<?xml version="1.0" encoding="utf-8"?>
<!-- Generator: Adobe Illustrator 22.0.1, SVG Export Plug-In . SVG Version: 6.00 Build 0)  -->
<svg version="1.1" id="Layer_1" focusable="false" xmlns="http://www.w3.org/2000/svg" xmlns:xlink="http://www.w3.org/1999/xlink"
	 x="0px" y="0px" viewBox="0 0 576 512" style="enable-background:new 0 0 576 512;" xml:space="preserve">
<path d="M504,0v78.5h-81.2c-6.9-22.6-27.8-39-52.6-39s-45.8,16.4-52.6,39H214.4c-6.9-22.6-27.8-39-52.6-39
	c-24.8,0-45.8,16.4-52.6,39H72V0H0v512h72v-76.6h41.1c6.9,22.4,27.8,38.8,52.6,38.8s45.6-16.3,52.6-38.8h103.2
	c6.9,22.4,27.8,38.8,52.6,38.8s45.6-16.3,52.6-38.8H504V512h72V0H504z M109.2,110.5c6.9,22.6,27.8,39,52.6,39s45.8-16.4,52.6-39
	h103.1c6.9,22.6,27.8,39,52.6,39s45.8-16.4,52.6-39H504V240h-51.8c-6.9-22.4-27.8-38.7-52.5-38.7c-24.7,0-45.6,16.3-52.5,38.7h-79.8
	c-6.9-22.4-27.8-38.7-52.5-38.7c-24.7,0-45.6,16.3-52.5,38.7H72V110.5H109.2z M426.7,403.4c-6.8-22.7-27.8-39.2-52.7-39.2
	s-45.9,16.5-52.7,39.2h-103c-6.8-22.7-27.8-39.2-52.7-39.2s-45.9,16.5-52.7,39.2H72V272h90.1c6.8,22.7,27.8,39.3,52.7,39.3
	c24.9,0,45.9-16.6,52.7-39.3H347c6.8,22.7,27.8,39.3,52.7,39.3c24.9,0,45.9-16.6,52.7-39.3H504v131.4H426.7z"/>
</svg>
