<?xml version="1.0" encoding="utf-8"?>
<!-- Generator: Adobe Illustrator 21.1.0, SVG Export Plug-In . SVG Version: 6.00 Build 0)  -->
<svg version="1.1" id="Layer_1" xmlns="http://www.w3.org/2000/svg" xmlns:xlink="http://www.w3.org/1999/xlink" x="0px" y="0px"
	 viewBox="0 0 565 512" style="enable-background:new 0 0 565 512;" xml:space="preserve">
<g>
	<g>
		<path d="M521.5,0.2H43.8C20,0.2,0.5,20.1,0.5,44.4v180.4c0,24.3,19.4,44.1,43.3,44.1h477.7c23.8,0,43.3-19.8,43.3-44.1V44.4
			C564.7,20.1,545.3,0.2,521.5,0.2z M143.5,57.2h28.2c7.5,0,14.4,6.4,14.4,14.7c0,8.3-6.3,14.7-14.4,14.7h-28.2
			c-7.5,0-14.4-6.4-14.4-14.7C129,63.6,135.3,57.2,143.5,57.2z M66.4,57.2h28.2c7.5,0,14.4,6.4,14.4,14.7c0,8.3-6.3,14.1-14.4,14.1
			H66.4c-7.5,0-14.4-6.4-14.4-14.7C51.9,62.9,58.8,57.2,66.4,57.2z M513.3,228.6H52.6v-27.5h460.8V228.6z M513.3,180.6H52.6v-27.5
			h460.8V180.6z M238.3,338.5c4-4.1,4-10.8,0-14.9c-2-2.1-4.6-3.1-7.3-3.1c-2.6,0-5.3,1-7.3,3.1c-23.7,24.3-10.2,47.8-0.3,65
			c11.8,20.5,17.1,32,0.3,49.2c-4,4.1-4,10.8,0,14.9c4,4.1,10.5,4.1,14.5,0c28.8-29.6,13.8-55.7,2.9-74.8
			C229.9,358.1,226.9,350.2,238.3,338.5z M54.4,342.7C43,323,40.1,315,51.5,303.3c4-4.1,4-10.8,0-14.9c-2-2.1-4.6-3.1-7.3-3.1
			c-2.6,0-5.3,1-7.3,3.1c-23.7,24.3-10.2,47.8-0.3,65c11.8,20.5,17.1,32,0.3,49.2c-4,4.1-4,10.8,0,14.9c4,4.1,10.5,4.1,14.5,0
			C80.4,388,65.3,361.8,54.4,342.7z M328.7,394.7c4-4.1,4-10.8,0-14.9c-2-2.1-4.6-3.1-7.3-3.1c-2.6,0-5.3,1-7.3,3.1
			c-23.7,24.3-10.2,47.8-0.3,65c11.8,20.5,17.1,32,0.3,49.2c-4,4.1-4,10.8,0,14.9c4,4.1,10.5,4.1,14.5,0
			c28.8-29.6,13.8-55.7,2.9-74.8C320.2,414.4,317.3,406.4,328.7,394.7z M412.2,359.5c4-4.1,4-10.8,0-14.9c-2-2.1-4.6-3.1-7.3-3.1
			c-2.6,0-5.3,1-7.3,3.1c-23.7,24.3-10.2,47.8-0.3,65c11.8,20.5,17.1,32,0.3,49.2c-4,4.1-4,10.8,0,14.9c4,4.1,10.5,4.1,14.6,0
			C441,444.2,426,418.1,415,399C403.7,379.2,400.8,371.2,412.2,359.5z M535.3,335.7l8.9-9.1c4-4.1,4-10.8,0-14.9
			c-2-2.1-4.6-3.1-7.3-3.1c-2.6,0-5.3,1-7.3,3.1l-8.9,9.1l-8.9-9.1c-2-2.1-4.6-3.1-7.3-3.1c-2.6,0-5.3,1-7.3,3.1
			c-4,4.1-4,10.8,0,14.9l8.9,9.1l-8.9,9.1c-4,4.1-4,10.8,0,14.9c4,4.1,10.5,4.1,14.5,0l8.9-9.1l8.9,9.1c4,4.1,10.5,4.1,14.6,0
			c4-4.1,4-10.8,0-14.9L535.3,335.7z M149.1,392.6l8.9-9.1c4-4.1,4-10.8,0-14.9c-2-2.1-4.6-3.1-7.3-3.1c-2.6,0-5.3,1-7.3,3.1
			l-8.9,9.1l-8.9-9.1c-2-2.1-4.6-3.1-7.3-3.1c-2.6,0-5.3,1-7.3,3.1c-4,4.1-4,10.8,0,14.9l8.9,9.1l-8.9,9.1c-4,4.1-4,10.8,0,14.9
			c4,4.1,10.5,4.1,14.5,0l8.9-9.1l8.9,9.1c4,4.1,10.5,4.1,14.5,0c4-4.1,4-10.8,0-14.9L149.1,392.6z M311.2,331.5l8.9,9.1
			c4,4.1,10.5,4.1,14.5,0c4-4.1,4-10.8,0-14.9l-8.9-9.1l8.9-9.1c4-4.1,4-10.8,0-14.9c-2-2.1-4.6-3.1-7.3-3.1s-5.3,1-7.3,3.1
			l-8.9,9.1l-8.9-9.1c-2-2.1-4.6-3.1-7.3-3.1c-2.6,0-5.3,1-7.3,3.1c-4,4.1-4,10.8,0,14.9l8.9,9.1l-8.9,9.1c-4,4.1-4,10.8,0,14.9
			c4,4.1,10.5,4.1,14.5,0L311.2,331.5z M429.2,279.9c-5.7,0-10.3,4.7-10.3,10.5v3.8c0,5.8,4.6,10.5,10.3,10.5
			c5.7,0,10.3-4.7,10.3-10.5v-3.8C439.5,284.6,434.9,279.9,429.2,279.9z M173.4,288.8c-5.7,0-10.3,4.7-10.3,10.5v3.8
			c0,5.8,4.6,10.5,10.3,10.5c5.7,0,10.3-4.7,10.3-10.5v-3.8C183.6,293.6,179,288.8,173.4,288.8z M73.4,451.2
			c-5.7,0-10.3,4.7-10.3,10.6v3.8c0,5.8,4.6,10.5,10.3,10.5c5.7,0,10.3-4.7,10.3-10.5v-3.8C83.7,455.9,79.1,451.2,73.4,451.2z
			 M478.5,449c-5.7,0-10.3,4.7-10.3,10.6v3.8c0,5.8,4.6,10.6,10.3,10.6c5.7,0,10.3-4.7,10.3-10.6v-3.8
			C488.8,453.8,484.2,449,478.5,449z"/>
	</g>
</g>
</svg>
