<?xml version="1.0" encoding="utf-8"?>
<!-- Generator: Adobe Illustrator 21.1.0, SVG Export Plug-In . SVG Version: 6.00 Build 0)  -->
<svg version="1.1" id="Layer_1" xmlns="http://www.w3.org/2000/svg" xmlns:xlink="http://www.w3.org/1999/xlink" x="0px" y="0px"
	 viewBox="0 0 412.1 512" style="enable-background:new 0 0 412.1 512;" xml:space="preserve">
<style type="text/css">
	.st0{fill:#010101;}
</style>
<g>
	<path class="st0" d="M15,221c0,81.9,51,284.9,185.2,290.8c0,0,5.1,0.2,6.8,0.2c1.3,0,5.2-0.1,5.2-0.2
		c134.1-5.9,185.2-208.9,185.2-290.8C349.5,200.2,62.8,200.2,15,221z"/>
	<path class="st0" d="M214.3,56.2c-3.1-13.4,13.7-26.9,24.8-34.3C226.9,16.5,215.3,0,215.3,0c-27.2,11.8-26.6,39.7-23.5,56.4
		C38.5,62.7-32.4,170.3,14.2,210.6c48-20.8,335.9-16.6,383.9,0C445.2,169.7,371.8,59.9,214.3,56.2z"/>
</g>
</svg>
