<?xml version="1.0" encoding="utf-8"?>
<!-- Generator: Adobe Illustrator 21.1.0, SVG Export Plug-In . SVG Version: 6.00 Build 0)  -->
<svg version="1.1" id="_x33_2" xmlns="http://www.w3.org/2000/svg" xmlns:xlink="http://www.w3.org/1999/xlink" x="0px" y="0px"
	 viewBox="0 0 578 512" style="enable-background:new 0 0 578 512;" xml:space="preserve">
<g>
	<path d="M553.7,21.9l-529.1,0C12,21.9,0,33.9,0,48.6v414.2c0,14.7,12,26.8,26.8,26.8h524.6c14.7,0,26.6-12,26.6-26.8V48.6
		C578,33.9,566.1,21.9,553.7,21.9z M158,371.5c0,0-93.8,2.6-93.8-34.8c0-26.4,27.3-36,39.2-40.6s24.2-9.1,24.2-9.1
		c0,0.2,1.2-4.2,7.1-9.8V269c0,0-4.7-5.2-9.7-13.7c-5.1-8.5-10.5-20.1-12-33.1c0-0.9-8.5-57.7,45.2-57.7c53.4,0,44.8,56.9,44.6,57.8
		C199.8,248.2,181,269,181,269v7.8c1.9,1.9,7.2,7.2,6.7,10.2c0,0,14.6,5,26.3,10.6c11.7,5.6,37.6,11.3,37.6,39.4
		C251.5,374.6,158,371.5,158,371.5z M508.9,370.5H312.5v-45.2h196.4V370.5z M508.9,289.5H312.5v-45.2h196.4V289.5z M508.9,208.6
		H312.5v-45.2h196.4V208.6z"/>
</g>
</svg>
