<?xml version="1.0" encoding="utf-8"?>
<!-- Generator: Adobe Illustrator 21.1.0, SVG Export Plug-In . SVG Version: 6.00 Build 0)  -->
<svg version="1.1" id="Layer_1" xmlns="http://www.w3.org/2000/svg" xmlns:xlink="http://www.w3.org/1999/xlink" x="0px" y="0px"
	 viewBox="0 0 416 512" style="enable-background:new 0 0 416 512;" xml:space="preserve">
<path d="M386,124c0-9.1-7.2-16-16-16H193c0,0,0-88.9,0-90c0-17.3-6.5-21.7-16.9-14.3L30,108.8V512c0,0,276.9,0,281.2,0
	c17.9,0,31.8-13.8,31.8-31c0-4.7,0-212,0-212s21,0,27,0c8.8,0,16-7,16-16C386,246.1,385.9,124,386,124z M193,181h44v32h-44V181z
	 M193,244h73v32h-73V244z M193,298h73v32h-73V298z M192.7,370.2c0-11.1,0-18.2,0-18.2H267v32h-76.6C190.4,384,192.7,378,192.7,370.2
	z M176.6,406H266v32H129.2L176.6,406z M311.1,480L67,480l29.6-20.1L291,460V160h-98v-19.9h118.1V480z M369.3,237.3h-26.8v-12.5h26.8
	V237.3z M369.3,210.8h-26.8v-12.5h26.8V210.8z M369.3,184.7h-26.8v-12.5h26.8V184.7z M369.3,157.7h-26.8v-12.5h26.8V157.7z"/>
</svg>
