<?xml version="1.0" encoding="utf-8"?>
<!-- Generator: Adobe Illustrator 21.1.0, SVG Export Plug-In . SVG Version: 6.00 Build 0)  -->
<svg version="1.1" id="Layer_4" xmlns="http://www.w3.org/2000/svg" xmlns:xlink="http://www.w3.org/1999/xlink" x="0px" y="0px"
	 viewBox="0 0 581.5 512" style="enable-background:new 0 0 581.5 512;" xml:space="preserve">
<g>
	<path d="M580.4,257.4c-5.7-48-22.4-92.2-49.8-131.4c-26.7-38.7-61.2-69.5-102.5-91.6C385.6,11.6,339.4,0,290.8,0
		c-48.5,0-94.7,11.6-137.4,34.4C112,56.6,77.5,87.4,50.9,126C23.5,165.2,6.8,209.4,1.1,257.4l-1.3,10.8h31.5l1-8.5
		c4.9-42.1,19.9-81.3,44.5-116.4l0.1-0.1c23.7-34.5,54.4-62,91.5-81.7c37.7-20.3,78.9-30.6,122.5-30.6c43.4,0,84.6,10.3,122.5,30.6
		c37,19.7,67.7,47.2,91.4,81.7l0.1,0.1c24.6,35.1,39.6,74.2,44.5,116.4l1,8.5h31.5L580.4,257.4z"/>
	<path d="M571.4,434.2L353,416.3c-2.1-14.3-7.6-27.3-15.4-37.7c0.3,0,0.6-0.1,0.8-0.2l76.5-10.5c0,0,4-0.7,4-1.9c-0.1-1-4.3-1-4.3-1
		l-78.9,7.5c-1-0.1-2-0.1-3.1-0.1c-9.7-10.3-22-17.1-35.7-18.7l-1.9-76.6c0,0-2.5-6.9-4.9,0l-4.6,76.6c-14,1.3-26.9,8.2-36.8,18.9
		c-1,0.1-1.8,0-2.6,0.1l-78.9-7.5c0,0-4.1-0.2-4.3,1c-0.1,1,4,1.9,4,1.9l76.5,10.5c0.1,0,0.3,0,0.4,0.1
		c-7.8,10.4-13.4,23.4-15.5,37.8L9.7,434.1c-21.8,2.1,0,7,0,7l54-1.1C53.5,442.4,46,451.6,46,462.5c0,12.7,10.4,23.1,23.1,23.1
		s23.1-10.4,23.1-23.1c0-11-7.8-20.3-18.1-22.5l65.8-1c-12.1,4.6-20.7,16.3-20.7,30.1c0,17.8,14.4,32.2,32.2,32.2
		s32.2-14.4,32.2-32.2c0-13.9-8.9-25.7-21.3-30.3l64.3-0.6c0.4-0.4,0.7-0.7,1.1-1.1c2.9,38.9,30.1,69.3,63.1,69.3
		s60.1-30.4,63.1-69.2c0.3,0.3,0.6,0.6,0.9,0.9l64.2,0.7c-12.4,4.5-21.3,16.3-21.3,30.3c0,17.8,14.4,32.2,32.2,32.2
		c17.8,0,32.2-14.4,32.2-32.2c0-13.7-8.6-25.4-20.7-30.1l67.2,1c-10.3,2.2-18.1,11.5-18.1,22.5c0,12.7,10.4,23.1,23.1,23.1
		s23.1-10.4,23.1-23.1c0-10.9-7.5-19.9-17.6-22.4l52.6,1.1C571.4,441.2,593.2,436.3,571.4,434.2z M85.4,462.5
		c0,9-7.3,16.3-16.3,16.3s-16.3-7.3-16.3-16.3s7.3-16.3,16.3-16.3C78.1,446.1,85.5,453.4,85.4,462.5z M176.7,468.9
		c0,14-11.4,25.4-25.4,25.4s-25.4-11.4-25.4-25.4s11.4-25.4,25.4-25.4C165.4,443.5,176.6,454.9,176.7,468.9z M322.9,400.9
		c-0.9,2.4-9.7,3.6-11.4,3.8c-0.2,0.1-0.4,0.1-0.4,0.1c-0.1,0.1-0.1,0,0,0l-16.3,0.5H288l-16.2-0.5c0,0,0,0-0.1,0h-0.1
		c-1.8-0.1-10.7-1.4-11.5-3.7c-0.1-0.4-0.1-0.7,0.1-1.1c0,0,0-0.1,0.1-0.2s0-0.1,0.1-0.2c0.6-1.5,2.7-6.3,4.3-7.2
		c1.5-0.9,6.9,0,6.9,0l16.7,1.5h6.7l16.6-1.6c0,0,5.3-0.8,6.9,0c1.6,0.9,3.7,5.7,4.3,7.2c0.1,0.1,0.1,0.2,0.1,0.2
		c0.1,0.1,0.1,0.2,0.1,0.2C322.9,400.2,323,400.5,322.9,400.9z M455.1,469c0,14-11.4,25.4-25.4,25.4S404.2,483,404.2,469
		s11.4-25.4,25.4-25.4S455.1,454.9,455.1,469z M529.6,462.4c0,9-7.3,16.3-16.3,16.3s-16.3-7.3-16.3-16.3s7.3-16.3,16.3-16.3
		S529.6,453.4,529.6,462.4z"/>
	<path d="M451,460.2c-1.2-2.8-2.8-5.2-4.9-7.3c-2.1-2.1-4.6-3.8-7.4-5s-5.8-1.8-9-1.8s-6.1,0.6-9,1.8c-2.8,1.2-5.2,2.8-7.3,5
		c-2.1,2.1-3.8,4.6-4.9,7.3c-1.2,2.8-1.8,5.8-1.8,9s0.6,6.1,1.8,9c1.2,2.8,2.8,5.2,4.9,7.3c2.1,2.1,4.6,3.8,7.3,5
		c2.8,1.2,5.8,1.8,9,1.8s6.1-0.6,9-1.8c2.8-1.2,5.2-2.8,7.4-5c2.1-2.1,3.8-4.6,4.9-7.3c1.2-2.8,1.8-5.8,1.8-9S452.2,463.1,451,460.2
		z M444.9,457.2c0.9,1.2,1.7,2.5,2.3,3.8v0.1v0.1c-0.1,1.7-0.6,3.2-1.6,4.7s-2.2,2.7-3.7,3.6c-1.2,0.7-2.6,1.2-4.1,1.3l-0.1-1
		c1.3-0.1,2.5-0.5,3.7-1.2c1.4-0.8,2.5-1.8,3.3-3.1c0.9-1.3,1.4-2.7,1.5-4.2c-0.6-1.2-1.3-2.4-2.2-3.5L444.9,457.2z M438.9,452.1
		c1.4,0.8,2.7,1.7,3.9,2.8l0.1,0.1v0.1c0.5,1.5,0.6,3.1,0.3,4.8c-0.3,1.7-0.9,3.2-1.9,4.5c-0.9,1.2-2,2.2-3.4,3l-0.5-0.9
		c1.3-0.6,2.3-1.5,3.1-2.7c0.9-1.2,1.4-2.5,1.7-4s0.2-2.9-0.2-4.3c-1.1-1-2.3-1.9-3.6-2.6L438.9,452.1z M431.3,449.8
		c1.6,0.1,3.2,0.5,4.7,1h0.1l0.1,0.1c1.1,1.2,1.8,2.6,2.2,4.3c0.4,1.6,0.5,3.3,0.1,5c-0.3,1.5-1,2.9-1.9,4.1l-0.8-0.6
		c0.9-1.1,1.5-2.4,1.7-3.7c0.3-1.5,0.2-2.9-0.1-4.4c-0.4-1.5-1-2.8-2-3.9c-1.4-0.5-2.9-0.8-4.4-0.9L431.3,449.8z M437,468.9
		c0,4-3.2,7.2-7.2,7.2s-7.2-3.2-7.2-7.2s3.2-7.2,7.2-7.2C433.8,461.8,437,465,437,468.9z M428.1,449.8h0.1l0.1,0.1
		c1.5,0.6,2.7,1.6,3.8,3c1.1,1.4,1.8,2.8,2.1,4.5c0.3,1.5,0.3,3-0.1,4.5l-1-0.3c0.3-1.4,0.4-2.7,0.1-4.1c-0.3-1.5-0.9-2.8-1.9-4
		c-0.9-1.2-2.1-2.1-3.4-2.7c-1.6,0.1-3.1,0.5-4.6,1.1l-0.4-1C424.7,450.3,426.4,450,428.1,449.8z M420.2,452.3L420.2,452.3h0.3
		c1.7,0,3.3,0.4,4.8,1.1c1.6,0.8,2.8,1.9,3.8,3.3c0.9,1.2,1.5,2.6,1.7,4.1l0.1,0.6h-0.7h-0.5v-0.8c-0.3-1.2-0.7-2.3-1.4-3.2
		c-0.9-1.2-2-2.2-3.4-2.9c-1.4-0.7-2.8-1.1-4.3-1.1c-1.2,0.7-2.3,1.6-3.3,2.5l-0.7-0.8C417.6,454,418.9,453,420.2,452.3z
		 M414.4,457.3L414.4,457.3l0.2-0.2c1.5-0.6,3-0.9,4.7-0.7c1.7,0.1,3.3,0.6,4.7,1.4c1.3,0.8,2.4,1.8,3.3,3.1l-0.8,0.6
		c-0.8-1.2-1.8-2.1-3-2.8c-1.3-0.7-2.7-1.2-4.2-1.3c-1.5-0.1-2.9,0.1-4.2,0.6c-0.9,1.2-1.6,2.5-2.2,3.9l-0.9-0.4
		C412.6,460.1,413.4,458.7,414.4,457.3z M410.5,468.9c0-1.4,0.2-2.9,0.5-4.3v-0.1l0.1-0.1c1.1-1.2,2.5-2.2,4.1-2.8
		c1.6-0.6,3.3-0.8,5-0.7c1.5,0.1,2.9,0.6,4.3,1.5l-0.5,0.9c-1.2-0.8-2.5-1.2-3.8-1.4c-1.5-0.2-3,0-4.4,0.6c-1.5,0.5-2.7,1.4-3.7,2.4
		c-0.3,1.3-0.4,2.6-0.4,3.9v0.6h-1C410.6,469.4,410.5,469.1,410.5,468.9z M412.5,477.4c-0.7-1.5-1.3-3-1.6-4.6v-0.1v-0.1
		c0.5-1.6,1.3-3,2.6-4.3c1.2-1.2,2.7-2.1,4.4-2.7c1.4-0.5,2.9-0.6,4.4-0.4l-0.2,1c-1.4-0.2-2.7,0-3.9,0.4c-1.5,0.5-2.8,1.3-3.9,2.4
		s-1.9,2.4-2.3,3.8c0.3,1.5,0.8,2.9,1.5,4.2L412.5,477.4z M415.1,479.7c0.8,1.2,1.8,2.2,2.9,3.1l-0.6,0.8c-1.2-1-2.3-2.2-3.2-3.4
		v-0.1V480c-0.2-1.7,0-3.3,0.6-5c0.6-1.6,1.6-3.1,2.9-4.2c1.1-1,2.4-1.7,3.8-2.2l0.3,1c-1.3,0.4-2.4,1-3.4,1.9c-1.2,1-2,2.3-2.6,3.7
		C415.1,476.7,414.9,478.2,415.1,479.7z M424.4,487.4c-1.6-0.5-3-1.1-4.4-1.9h-0.1v-0.1c-0.8-1.4-1.3-3-1.4-4.7s0.2-3.4,0.9-4.9
		c0.6-1.4,1.5-2.6,2.7-3.6l0.6,0.8c-1,0.9-1.8,2-2.4,3.2c-0.6,1.4-0.9,2.8-0.8,4.4c0.1,1.5,0.4,2.9,1.1,4.2c1.3,0.8,2.7,1.4,4.1,1.8
		L424.4,487.4z M429.7,488.1c-0.7,0-1.4,0-2.2-0.1h-0.1h-0.1c-1.4-1-2.5-2.2-3.3-3.8s-1.2-3.2-1.2-5c0-1.5,0.3-3,1-4.4l0.9,0.5
		c-0.6,1.2-0.9,2.5-0.9,3.9c0,1.6,0.4,3,1.1,4.4s1.7,2.5,2.9,3.4c1.6,0.2,3.2,0.1,4.7-0.1l0.1,1C431.7,488,430.7,488.1,429.7,488.1z
		 M435.9,487.1h-0.1h-0.1c-1.7-0.3-3.2-1-4.7-2.1c-1.4-1.1-2.5-2.5-3.2-4.1c-0.6-1.3-0.9-2.7-0.8-4.2h1c0,1.3,0.2,2.5,0.8,3.7
		c0.6,1.4,1.6,2.7,2.9,3.7s2.6,1.6,4.1,1.9c1.3-0.5,2.6-1.1,3.8-1.9l0.5,0.9C438.7,485.9,437.4,486.6,435.9,487.1z M442.6,483.2
		L442.6,483.2l-0.2,0.1c-0.7,0.2-1.5,0.3-2.2,0.3c-1.3,0-2.6-0.2-3.8-0.7c-1.3-0.5-2.4-1.2-3.4-2.1c-1.1-1-1.9-2.2-2.5-3.6l0.9-0.4
		c0.5,1.2,1.3,2.3,2.2,3.2c1.2,1,2.5,1.8,4,2.2c1.5,0.4,3,0.5,4.5,0.1c1.1-1,2-2.1,2.8-3.3l0.8,0.5
		C444.8,480.9,443.8,482.1,442.6,483.2z M447.3,476.8L447.3,476.8l-0.2,0.2c-0.9,0.7-1.9,1.2-2.9,1.5c-1.1,0.4-2.2,0.5-3.4,0.5
		c-1.2,0-2.3-0.2-3.3-0.5c-1.4-0.5-2.7-1.2-3.8-2.2l0.7-0.8c1,0.9,2.1,1.6,3.4,2c1.5,0.5,3,0.6,4.5,0.3c1.5-0.2,2.9-0.8,4.1-1.6
		c0.6-1.3,1-2.7,1.2-4.1l1,0.2C448.4,473.8,447.9,475.3,447.3,476.8z M448.9,469.2L448.9,469.2c-0.9,1.6-2,2.8-3.5,3.7
		c-1.5,1-3.1,1.5-4.8,1.7c-0.3,0-0.7,0-1,0c-1.2,0-2.3-0.2-3.4-0.6l0.4-0.9c1.3,0.5,2.6,0.6,4,0.5c1.5-0.2,2.9-0.7,4.2-1.5
		c0.7-0.4,1.2-0.9,1.7-1.4s0.9-1.1,1.3-1.8c0-1.6-0.2-3.1-0.6-4.6l1-0.3c0.4,1.6,0.6,3.2,0.6,4.9L448.9,469.2L448.9,469.2z"/>
	<path d="M82.1,457.1c-0.7-1.7-1.7-3.2-3-4.5s-2.8-2.3-4.5-3s-3.6-1.1-5.5-1.1s-3.7,0.4-5.5,1.1c-1.7,0.7-3.2,1.7-4.5,3
		s-2.3,2.8-3,4.5s-1.1,3.6-1.1,5.5s0.4,3.7,1.1,5.5c0.7,1.7,1.7,3.2,3,4.5s2.8,2.3,4.5,3c1.7,0.7,3.6,1.1,5.5,1.1s3.7-0.4,5.5-1.1
		c1.7-0.7,3.2-1.7,4.5-3s2.3-2.8,3-4.5s1.1-3.6,1.1-5.5C83.2,460.6,82.8,458.8,82.1,457.1z M78.4,455.2c0.5,0.7,1,1.5,1.4,2.3v0.1
		v0.1c-0.1,1-0.4,2-1,2.9s-1.3,1.6-2.3,2.2c-0.8,0.4-1.6,0.7-2.5,0.8l-0.1-0.6c0.8-0.1,1.6-0.3,2.2-0.7c0.8-0.5,1.5-1.1,2-1.9
		s0.8-1.7,0.9-2.6c-0.4-0.8-0.8-1.5-1.3-2.1L78.4,455.2z M74.7,452.1c0.9,0.5,1.7,1,2.4,1.7l0.1,0.1v0.1c0.3,0.9,0.3,1.9,0.2,2.9
		c-0.2,1-0.6,1.9-1.1,2.7c-0.5,0.8-1.2,1.4-2.1,1.8l-0.3-0.5c0.8-0.4,1.4-0.9,1.9-1.6s0.9-1.5,1-2.4s0.1-1.8-0.1-2.6
		c-0.7-0.6-1.4-1.1-2.2-1.6L74.7,452.1z M70,450.7c1,0.1,2,0.3,2.9,0.6H73l0.1,0.1c0.7,0.7,1.1,1.6,1.4,2.6s0.3,2,0.1,3
		c-0.2,0.9-0.6,1.7-1.2,2.5l-0.5-0.4c0.5-0.7,0.9-1.4,1.1-2.2c0.2-0.9,0.2-1.8-0.1-2.7c-0.2-0.9-0.6-1.7-1.2-2.4
		c-0.9-0.3-1.7-0.5-2.7-0.5L70,450.7z M73.5,462.4c0,2.4-2,4.4-4.4,4.4s-4.4-2-4.4-4.4s2-4.4,4.4-4.4S73.5,460,73.5,462.4z
		 M68.1,450.7L68.1,450.7h0.2c0.9,0.4,1.7,1,2.3,1.8c0.7,0.8,1.1,1.7,1.3,2.7c0.2,0.9,0.2,1.8-0.1,2.8l-0.6-0.2
		c0.2-0.8,0.2-1.6,0.1-2.5c-0.2-0.9-0.6-1.7-1.1-2.4c-0.6-0.7-1.3-1.3-2-1.7c-1,0.1-1.9,0.3-2.8,0.6l-0.2-0.6
		C66,451,67,450.8,68.1,450.7z M63.3,452.2L63.3,452.2h0.2c1,0,2,0.2,2.9,0.7s1.7,1.1,2.3,2c0.5,0.7,0.9,1.6,1.1,2.5l0.1,0.4h-0.4
		h-0.3v-0.5c-0.2-0.7-0.4-1.4-0.9-2c-0.5-0.8-1.2-1.4-2.1-1.8c-0.8-0.4-1.7-0.7-2.6-0.7c-0.7,0.4-1.4,0.9-2,1.5l-0.4-0.5
		C61.7,453.2,62.5,452.7,63.3,452.2z M59.8,455.3L59.8,455.3l0.1-0.1c0.9-0.4,1.9-0.5,2.9-0.5c1,0.1,2,0.4,2.9,0.9
		c0.8,0.5,1.5,1.1,2,1.9l-0.5,0.4c-0.5-0.7-1.1-1.3-1.8-1.7c-0.8-0.4-1.6-0.7-2.6-0.8s-1.8,0.1-2.6,0.4c-0.5,0.7-1,1.5-1.3,2.4
		l-0.6-0.2C58.7,457,59.2,456.1,59.8,455.3z M57.4,462.4c0-0.9,0.1-1.7,0.3-2.6v-0.1l0.1-0.1c0.7-0.8,1.5-1.3,2.5-1.7
		c1-0.4,2-0.5,3.1-0.4c0.9,0.1,1.8,0.4,2.6,0.9l-0.3,0.5c-0.7-0.5-1.5-0.7-2.3-0.8c-0.9-0.1-1.8,0-2.7,0.3s-1.6,0.8-2.3,1.5
		c-0.2,0.8-0.3,1.6-0.3,2.4v0.4h-0.6C57.4,462.6,57.4,462.5,57.4,462.4z M58.6,467.5c-0.4-0.9-0.8-1.8-1-2.8v-0.1v-0.1
		c0.3-1,0.8-1.8,1.6-2.6c0.8-0.8,1.6-1.3,2.7-1.6c0.9-0.3,1.8-0.4,2.7-0.3l-0.1,0.6c-0.8-0.1-1.6,0-2.4,0.2
		c-0.9,0.3-1.7,0.8-2.4,1.4c-0.7,0.7-1.2,1.4-1.4,2.3c0.2,0.9,0.5,1.8,0.9,2.6L58.6,467.5z M60.2,468.9c0.5,0.7,1.1,1.3,1.8,1.9
		l-0.4,0.5c-0.7-0.6-1.4-1.3-2-2.1v-0.1V469c-0.1-1,0-2,0.4-3s1-1.9,1.8-2.6c0.7-0.6,1.4-1.1,2.3-1.3l0.2,0.6
		c-0.8,0.2-1.5,0.6-2.1,1.2c-0.7,0.6-1.2,1.4-1.6,2.3S60.1,468,60.2,468.9z M65.9,473.6c-0.9-0.3-1.8-0.7-2.7-1.2h-0.1v-0.1
		c-0.5-0.9-0.8-1.8-0.8-2.9c-0.1-1.1,0.1-2.1,0.5-3c0.4-0.8,0.9-1.6,1.6-2.2l0.4,0.5c-0.6,0.5-1.1,1.2-1.5,2s-0.5,1.7-0.5,2.7
		c0,0.9,0.3,1.8,0.7,2.6c0.8,0.5,1.6,0.8,2.5,1.1L65.9,473.6z M69.1,474.1c-0.4,0-0.9,0-1.3-0.1h-0.1h-0.1c-0.8-0.6-1.5-1.4-2-2.3
		c-0.5-1-0.7-2-0.7-3c0-0.9,0.2-1.8,0.6-2.7l0.6,0.3c-0.4,0.8-0.6,1.5-0.6,2.4s0.2,1.8,0.7,2.7c0.4,0.9,1,1.5,1.8,2.1
		c1,0.1,1.9,0.1,2.9-0.1L71,474C70.3,474,69.7,474.1,69.1,474.1z M72.9,473.4L72.9,473.4h-0.2c-1-0.2-2-0.6-2.8-1.3
		c-0.9-0.7-1.5-1.5-2-2.5c-0.4-0.8-0.5-1.7-0.5-2.6H68c0,0.8,0.1,1.5,0.5,2.3c0.4,0.9,1,1.6,1.7,2.2c0.8,0.6,1.6,1,2.5,1.2
		c0.8-0.3,1.6-0.7,2.3-1.1l0.3,0.5C74.6,472.7,73.8,473.1,72.9,473.4z M76.9,471.1L76.9,471.1l-0.1,0.1c-0.4,0.1-0.9,0.2-1.4,0.2
		c-0.8,0-1.6-0.1-2.3-0.4c-0.8-0.3-1.5-0.7-2.1-1.3c-0.7-0.6-1.2-1.3-1.5-2.2l0.6-0.2c0.3,0.8,0.8,1.4,1.4,1.9
		c0.7,0.6,1.5,1.1,2.4,1.3c0.9,0.2,1.8,0.3,2.7,0.1c0.7-0.6,1.2-1.3,1.7-2l0.5,0.3C78.3,469.6,77.7,470.4,76.9,471.1z M79.8,467.1
		L79.8,467.1l-0.1,0.1c-0.5,0.4-1.1,0.7-1.8,0.9c-0.7,0.2-1.3,0.3-2,0.3s-1.4-0.1-2-0.3c-0.9-0.3-1.6-0.7-2.3-1.4l0.4-0.5
		c0.6,0.6,1.3,1,2.1,1.2c0.9,0.3,1.8,0.3,2.7,0.2c0.9-0.1,1.8-0.5,2.5-1c0.4-0.8,0.6-1.6,0.7-2.5l0.6,0.1
		C80.5,465.4,80.2,466.3,79.8,467.1z M80.8,462.5L80.8,462.5c-0.5,0.9-1.2,1.7-2.1,2.3c-0.9,0.6-1.9,0.9-2.9,1c-0.2,0-0.4,0-0.6,0
		c-0.7,0-1.4-0.1-2.1-0.4l0.2-0.6c0.8,0.3,1.6,0.4,2.4,0.3c0.9-0.1,1.8-0.4,2.6-0.9c0.4-0.3,0.8-0.5,1.1-0.9
		c0.3-0.3,0.6-0.7,0.8-1.1c0-1-0.1-1.9-0.4-2.8l0.6-0.2c0.2,1,0.4,1.9,0.4,3V462.5z"/>
	<path d="M526.1,457.1c-0.7-1.7-1.7-3.2-3-4.5s-2.8-2.3-4.5-3s-3.6-1.1-5.5-1.1c-1.9,0-3.7,0.4-5.5,1.1c-1.7,0.7-3.2,1.7-4.5,3
		s-2.3,2.8-3,4.5s-1.1,3.6-1.1,5.5s0.4,3.7,1.1,5.5c0.7,1.7,1.7,3.2,3,4.5s2.8,2.3,4.5,3s3.6,1.1,5.5,1.1c1.9,0,3.7-0.4,5.5-1.1
		c1.7-0.7,3.2-1.7,4.5-3s2.3-2.8,3-4.5s1.1-3.6,1.1-5.5C527.2,460.6,526.9,458.8,526.1,457.1z M522.4,455.2c0.5,0.7,1,1.5,1.4,2.3
		v0.1v0.1c-0.1,1-0.4,2-1,2.9s-1.3,1.6-2.3,2.2c-0.8,0.4-1.6,0.7-2.5,0.8l-0.1-0.6c0.8-0.1,1.6-0.3,2.2-0.7c0.8-0.5,1.5-1.1,2-1.9
		s0.8-1.7,0.9-2.6c-0.4-0.8-0.8-1.5-1.3-2.1L522.4,455.2z M518.8,452.1c0.9,0.5,1.7,1,2.4,1.7l0.1,0.1v0.1c0.3,0.9,0.3,1.9,0.2,2.9
		c-0.2,1-0.6,1.9-1.1,2.7c-0.5,0.8-1.2,1.4-2.1,1.8l-0.3-0.5c0.8-0.4,1.4-0.9,1.9-1.6s0.9-1.5,1-2.4c0.2-0.9,0.1-1.8-0.1-2.6
		c-0.7-0.6-1.4-1.1-2.2-1.6L518.8,452.1z M514.1,450.7c1,0.1,2,0.3,2.9,0.6h0.1l0.1,0.1c0.7,0.7,1.1,1.6,1.4,2.6c0.3,1,0.3,2,0.1,3
		c-0.2,0.9-0.6,1.7-1.2,2.5l-0.5-0.4c0.5-0.7,0.9-1.4,1.1-2.2c0.2-0.9,0.2-1.8-0.1-2.7c-0.2-0.9-0.6-1.7-1.2-2.4
		c-0.9-0.3-1.7-0.5-2.7-0.5L514.1,450.7z M517.6,462.4c0,2.4-2,4.4-4.4,4.4s-4.4-2-4.4-4.4s2-4.4,4.4-4.4
		C515.6,458,517.6,460,517.6,462.4z M512.2,450.7L512.2,450.7h0.2c0.9,0.4,1.7,1,2.3,1.8c0.7,0.8,1.1,1.7,1.3,2.7
		c0.2,0.9,0.2,1.8-0.1,2.8l-0.6-0.2c0.2-0.8,0.2-1.6,0.1-2.5c-0.2-0.9-0.6-1.7-1.1-2.4c-0.6-0.7-1.3-1.3-2-1.7
		c-1,0.1-1.9,0.3-2.8,0.6l-0.2-0.6C510.1,451,511.1,450.8,512.2,450.7z M507.3,452.2L507.3,452.2h0.2c1,0,2,0.2,2.9,0.7
		s1.7,1.1,2.3,2c0.5,0.7,0.9,1.6,1.1,2.5l0.1,0.4h-0.4h-0.3v-0.5c-0.2-0.7-0.4-1.4-0.9-2c-0.5-0.8-1.2-1.4-2.1-1.8
		c-0.8-0.4-1.7-0.7-2.6-0.7c-0.7,0.4-1.4,0.9-2,1.5l-0.4-0.5C505.8,453.2,506.5,452.7,507.3,452.2z M503.8,455.3L503.8,455.3
		l0.1-0.1c0.9-0.4,1.9-0.5,2.9-0.5c1,0.1,2,0.4,2.9,0.9c0.8,0.5,1.5,1.1,2,1.9l-0.5,0.4c-0.5-0.7-1.1-1.3-1.8-1.7
		c-0.8-0.4-1.6-0.7-2.6-0.8c-0.9-0.1-1.8,0.1-2.6,0.4c-0.5,0.7-1,1.5-1.3,2.4l-0.6-0.2C502.7,457,503.2,456.1,503.8,455.3z
		 M501.5,462.4c0-0.9,0.1-1.7,0.3-2.6v-0.1l0.1-0.1c0.7-0.8,1.5-1.3,2.5-1.7c1-0.4,2-0.5,3.1-0.4c0.9,0.1,1.8,0.4,2.6,0.9l-0.3,0.5
		c-0.7-0.5-1.5-0.7-2.3-0.8c-0.9-0.1-1.8,0-2.7,0.3c-0.9,0.3-1.6,0.8-2.3,1.5c-0.2,0.8-0.3,1.6-0.3,2.4v0.4h-0.6
		C501.5,462.6,501.5,462.5,501.5,462.4z M502.7,467.5c-0.4-0.9-0.8-1.8-1-2.8v-0.1v-0.1c0.3-1,0.8-1.8,1.6-2.6
		c0.8-0.8,1.6-1.3,2.7-1.6c0.9-0.3,1.8-0.4,2.7-0.3l-0.1,0.6c-0.8-0.1-1.6,0-2.4,0.2c-0.9,0.3-1.7,0.8-2.4,1.4
		c-0.7,0.7-1.2,1.4-1.4,2.3c0.2,0.9,0.5,1.8,0.9,2.6L502.7,467.5z M504.3,468.9c0.5,0.7,1.1,1.3,1.8,1.9l-0.4,0.5
		c-0.7-0.6-1.4-1.3-2-2.1v-0.1V469c-0.1-1,0-2,0.4-3s1-1.9,1.8-2.6c0.7-0.6,1.4-1.1,2.3-1.3l0.2,0.6c-0.8,0.2-1.5,0.6-2.1,1.2
		c-0.7,0.6-1.2,1.4-1.6,2.3C504.3,467.1,504.1,468,504.3,468.9z M509.9,473.6c-0.9-0.3-1.8-0.7-2.7-1.2h-0.1v-0.1
		c-0.5-0.9-0.8-1.8-0.8-2.9c-0.1-1.1,0.1-2.1,0.5-3c0.4-0.8,0.9-1.6,1.6-2.2l0.4,0.5c-0.6,0.5-1.1,1.2-1.5,2s-0.5,1.7-0.5,2.7
		c0,0.9,0.3,1.8,0.7,2.6c0.8,0.5,1.6,0.8,2.5,1.1L509.9,473.6z M513.2,474.1c-0.4,0-0.9,0-1.3-0.1h-0.1h-0.1c-0.8-0.6-1.5-1.4-2-2.3
		c-0.5-1-0.7-2-0.7-3c0-0.9,0.2-1.8,0.6-2.7l0.6,0.3c-0.4,0.8-0.6,1.5-0.6,2.4s0.2,1.8,0.7,2.7c0.4,0.9,1,1.5,1.8,2.1
		c1,0.1,1.9,0.1,2.9-0.1l0.1,0.6C514.4,474,513.8,474.1,513.2,474.1z M516.9,473.4L516.9,473.4h-0.2c-1-0.2-2-0.6-2.8-1.3
		c-0.9-0.7-1.5-1.5-2-2.5c-0.4-0.8-0.5-1.7-0.5-2.6h0.6c0,0.8,0.1,1.5,0.5,2.3c0.4,0.9,1,1.6,1.7,2.2c0.8,0.6,1.6,1,2.5,1.2
		c0.8-0.3,1.6-0.7,2.3-1.1l0.3,0.5C518.7,472.7,517.8,473.1,516.9,473.4z M521,471.1L521,471.1l-0.1,0.1c-0.4,0.1-0.9,0.2-1.4,0.2
		c-0.8,0-1.6-0.1-2.3-0.4c-0.8-0.3-1.5-0.7-2.1-1.3c-0.7-0.6-1.2-1.3-1.5-2.2l0.6-0.2c0.3,0.8,0.8,1.4,1.4,1.9
		c0.7,0.6,1.5,1.1,2.4,1.3c0.9,0.2,1.8,0.3,2.7,0.1c0.7-0.6,1.2-1.3,1.7-2l0.5,0.3C522.4,469.6,521.7,470.4,521,471.1z M523.9,467.1
		L523.9,467.1l-0.1,0.1c-0.5,0.4-1.1,0.7-1.8,0.9c-0.7,0.2-1.3,0.3-2,0.3s-1.4-0.1-2-0.3c-0.9-0.3-1.6-0.7-2.3-1.4l0.4-0.5
		c0.6,0.6,1.3,1,2.1,1.2c0.9,0.3,1.8,0.3,2.7,0.2c0.9-0.1,1.8-0.5,2.5-1c0.4-0.8,0.6-1.6,0.7-2.5l0.6,0.1
		C524.5,465.4,524.3,466.3,523.9,467.1z M524.9,462.5L524.9,462.5c-0.5,0.9-1.2,1.7-2.1,2.3c-0.9,0.6-1.9,0.9-2.9,1
		c-0.2,0-0.4,0-0.6,0c-0.7,0-1.4-0.1-2.1-0.4l0.2-0.6c0.8,0.3,1.6,0.4,2.4,0.3c0.9-0.1,1.8-0.4,2.6-0.9c0.4-0.3,0.8-0.5,1.1-0.9
		c0.3-0.3,0.6-0.7,0.8-1.1c0-1-0.1-1.9-0.4-2.8l0.6-0.2c0.2,1,0.4,1.9,0.4,3V462.5z"/>
	<path d="M172.6,460.2c-1.2-2.8-2.8-5.2-4.9-7.3c-2.1-2.1-4.6-3.8-7.4-5s-5.8-1.8-9-1.8s-6.1,0.6-9,1.8c-2.8,1.2-5.2,2.8-7.3,5
		c-2.1,2.1-3.8,4.6-4.9,7.3c-1.2,2.8-1.8,5.8-1.8,9s0.6,6.1,1.8,9c1.2,2.8,2.8,5.2,4.9,7.3c2.1,2.1,4.6,3.8,7.3,5
		c2.8,1.2,5.8,1.8,9,1.8s6.1-0.6,9-1.8c2.8-1.2,5.2-2.8,7.4-5c2.1-2.1,3.8-4.6,4.9-7.3c1.2-2.8,1.8-5.8,1.8-9
		S173.8,463.1,172.6,460.2z M166.5,457.2c0.9,1.2,1.7,2.5,2.3,3.8v0.1v0.1c-0.1,1.7-0.6,3.2-1.6,4.7s-2.2,2.7-3.7,3.6
		c-1.2,0.7-2.6,1.2-4.1,1.3l-0.1-1c1.3-0.1,2.5-0.5,3.7-1.2c1.4-0.8,2.5-1.8,3.3-3.1c0.9-1.3,1.4-2.7,1.5-4.2
		c-0.6-1.2-1.3-2.4-2.2-3.5L166.5,457.2z M160.5,452.1c1.4,0.8,2.7,1.7,3.9,2.8l0.1,0.1v0.1c0.5,1.5,0.6,3.1,0.3,4.8
		c-0.3,1.7-0.9,3.2-1.9,4.5c-0.9,1.2-2,2.2-3.4,3l-0.5-0.9c1.3-0.6,2.3-1.5,3.1-2.7c0.9-1.2,1.4-2.5,1.7-4s0.2-2.9-0.2-4.3
		c-1.1-1-2.3-1.9-3.6-2.6L160.5,452.1z M152.9,449.8c1.6,0.1,3.2,0.5,4.7,1h0.1l0.1,0.1c1.1,1.2,1.8,2.6,2.2,4.3
		c0.4,1.6,0.5,3.3,0.1,5c-0.3,1.5-1,2.9-1.9,4.1l-0.8-0.6c0.9-1.1,1.5-2.4,1.7-3.7c0.3-1.5,0.2-2.9-0.1-4.4c-0.4-1.5-1-2.8-2-3.9
		c-1.4-0.5-2.9-0.8-4.4-0.9L152.9,449.8z M158.6,468.9c0,4-3.2,7.2-7.2,7.2s-7.2-3.2-7.2-7.2s3.2-7.2,7.2-7.2
		C155.4,461.8,158.6,465,158.6,468.9z M149.7,449.8h0.1l0.1,0.1c1.5,0.6,2.7,1.6,3.8,3c1.1,1.4,1.8,2.8,2.1,4.5
		c0.3,1.5,0.3,3-0.1,4.5l-1-0.3c0.3-1.4,0.4-2.7,0.1-4.1c-0.3-1.5-0.9-2.8-1.9-4c-0.9-1.2-2.1-2.1-3.4-2.7c-1.6,0.1-3.1,0.5-4.6,1.1
		l-0.4-1C146.3,450.3,148,450,149.7,449.8z M141.8,452.3L141.8,452.3h0.3c1.7,0,3.3,0.4,4.8,1.1c1.6,0.8,2.8,1.9,3.8,3.3
		c0.9,1.2,1.5,2.6,1.7,4.1l0.1,0.6h-0.7h-0.5v-0.8c-0.3-1.2-0.7-2.3-1.4-3.2c-0.9-1.2-2-2.2-3.4-2.9c-1.4-0.7-2.8-1.1-4.3-1.1
		c-1.2,0.7-2.3,1.6-3.3,2.5l-0.7-0.8C139.2,454,140.5,453,141.8,452.3z M136,457.3L136,457.3l0.2-0.2c1.5-0.6,3-0.9,4.7-0.7
		c1.7,0.1,3.3,0.6,4.7,1.4c1.3,0.8,2.4,1.8,3.3,3.1l-0.8,0.6c-0.8-1.2-1.8-2.1-3-2.8c-1.3-0.7-2.7-1.2-4.2-1.3
		c-1.5-0.1-2.9,0.1-4.2,0.6c-0.9,1.2-1.6,2.5-2.2,3.9l-0.9-0.4C134.2,460.1,135,458.7,136,457.3z M132.1,468.9
		c0-1.4,0.2-2.9,0.5-4.3v-0.1l0.1-0.1c1.1-1.2,2.5-2.2,4.1-2.8c1.6-0.6,3.3-0.8,5-0.7c1.5,0.1,2.9,0.6,4.3,1.5l-0.5,0.9
		c-1.2-0.8-2.5-1.2-3.8-1.4c-1.5-0.2-3,0-4.4,0.6c-1.5,0.5-2.7,1.4-3.7,2.4c-0.3,1.3-0.4,2.6-0.4,3.9v0.6h-1
		C132.2,469.4,132.1,469.1,132.1,468.9z M134.1,477.4c-0.7-1.5-1.3-3-1.6-4.6v-0.1v-0.1c0.5-1.6,1.3-3,2.6-4.3
		c1.2-1.2,2.7-2.1,4.4-2.7c1.4-0.5,2.9-0.6,4.4-0.4l-0.2,1c-1.4-0.2-2.7,0-3.9,0.4c-1.5,0.5-2.8,1.3-3.9,2.4s-1.9,2.4-2.3,3.8
		c0.3,1.5,0.8,2.9,1.5,4.2L134.1,477.4z M136.7,479.7c0.8,1.2,1.8,2.2,2.9,3.1l-0.6,0.8c-1.2-1-2.3-2.2-3.2-3.4v-0.1V480
		c-0.2-1.7,0-3.3,0.6-5c0.6-1.6,1.6-3.1,2.9-4.2c1.1-1,2.4-1.7,3.8-2.2l0.3,1c-1.3,0.4-2.4,1-3.4,1.9c-1.2,1-2,2.3-2.6,3.7
		C136.7,476.7,136.5,478.2,136.7,479.7z M146,487.4c-1.6-0.5-3-1.1-4.4-1.9h-0.1v-0.1c-0.8-1.4-1.3-3-1.4-4.7s0.2-3.4,0.9-4.9
		c0.6-1.4,1.5-2.6,2.7-3.6l0.6,0.8c-1,0.9-1.8,2-2.4,3.2c-0.6,1.4-0.9,2.8-0.8,4.4c0.1,1.5,0.4,2.9,1.1,4.2c1.3,0.8,2.7,1.4,4.1,1.8
		L146,487.4z M151.3,488.1c-0.7,0-1.4,0-2.2-0.1H149h-0.1c-1.4-1-2.5-2.2-3.3-3.8s-1.2-3.2-1.2-5c0-1.5,0.3-3,1-4.4l0.9,0.5
		c-0.6,1.2-0.9,2.5-0.9,3.9c0,1.6,0.4,3,1.1,4.4s1.7,2.5,2.9,3.4c1.6,0.2,3.2,0.1,4.7-0.1l0.1,1C153.3,488,152.3,488.1,151.3,488.1z
		 M157.5,487.1h-0.1h-0.1c-1.7-0.3-3.2-1-4.7-2.1c-1.4-1.1-2.5-2.5-3.2-4.1c-0.6-1.3-0.9-2.7-0.8-4.2h1c0,1.3,0.2,2.5,0.8,3.7
		c0.6,1.4,1.6,2.7,2.9,3.7s2.6,1.6,4.1,1.9c1.3-0.5,2.6-1.1,3.8-1.9l0.5,0.9C160.3,485.9,159,486.6,157.5,487.1z M164.2,483.2
		L164.2,483.2l-0.2,0.1c-0.7,0.2-1.5,0.3-2.2,0.3c-1.3,0-2.6-0.2-3.8-0.7c-1.3-0.5-2.4-1.2-3.4-2.1c-1.1-1-1.9-2.2-2.5-3.6l0.9-0.4
		c0.5,1.2,1.3,2.3,2.2,3.2c1.2,1,2.5,1.8,4,2.2c1.5,0.4,3,0.5,4.5,0.1c1.1-1,2-2.1,2.8-3.3l0.8,0.5
		C166.4,480.9,165.4,482.1,164.2,483.2z M168.9,476.8L168.9,476.8l-0.2,0.2c-0.9,0.7-1.9,1.2-2.9,1.5c-1.1,0.4-2.2,0.5-3.4,0.5
		c-1.2,0-2.3-0.2-3.3-0.5c-1.4-0.5-2.7-1.2-3.8-2.2l0.7-0.8c1,0.9,2.1,1.6,3.4,2c1.5,0.5,3,0.6,4.5,0.3c1.5-0.2,2.9-0.8,4.1-1.6
		c0.6-1.3,1-2.7,1.2-4.1l1,0.2C170,473.8,169.5,475.3,168.9,476.8z M170.5,469.2L170.5,469.2c-0.9,1.6-2,2.8-3.5,3.7
		c-1.5,1-3.1,1.5-4.8,1.7c-0.3,0-0.7,0-1,0c-1.2,0-2.3-0.2-3.4-0.6l0.4-0.9c1.3,0.5,2.6,0.6,4,0.5c1.5-0.2,2.9-0.7,4.2-1.5
		c0.7-0.4,1.2-0.9,1.7-1.4s0.9-1.1,1.3-1.8c0-1.6-0.2-3.1-0.6-4.6l1-0.3c0.4,1.6,0.6,3.2,0.6,4.9L170.5,469.2L170.5,469.2z"/>
</g>
</svg>
