<?xml version="1.0" encoding="utf-8"?>
<!-- Generator: Adobe Illustrator 21.1.0, SVG Export Plug-In . SVG Version: 6.00 Build 0)  -->
<svg version="1.1" id="Layer_1" xmlns="http://www.w3.org/2000/svg" xmlns:xlink="http://www.w3.org/1999/xlink" x="0px" y="0px"
	 viewBox="0 0 512 512" style="enable-background:new 0 0 512 512;" xml:space="preserve">
<path d="M503.6,0.2C447.7-3.9,348.5,69.3,256,182.2C163.7,69.3,64.3-3.7,8.4,0.2L0,0.8l6.7,5.4C88.2,71.5,160.6,145.6,222,226
	c-17.2,23.1-33.8,47.4-49.7,72.3l44.6,35.5c12.3-20.7,25.4-41.1,39.1-61.1c13.7,20,26.8,40.6,39.1,61.1l44.6-35.5
	c-16-24.9-32.5-49.2-49.7-72.3C351.4,145.4,423.8,71.5,505.3,6.2l6.7-5.4L503.6,0.2z M431.6,444.7c5.1-8.3,46.6-60.4,24.8-103.3
	c-22.1-43.6-54.6-41.1-80.4-32.1C345,320.1,330.7,343,311,348.3c-29.1,8.1-31.3-12.8-31.3-18.6c-0.2,6.5,0.2,33.2,12.7,37.7
	c14.5,5.2,34.8,3.6,34.8,3.6c3.1,2.9,4.9,9.2,6.1,14.4c0.6,2.7,2.5,4.7,4.7,5.4c4.9,1.3,12.9,10.1,14.1,17.9
	c0.8,5.6,7,9.2,12.1,10.1c3.9,0.7,7,3.8,7.8,8.1c1.6,9.4,4.1,26,14.3,22.7c8.2-5.8,11.9-14.4,11-26c-0.8-11.9-6.1-18.9-16-21.1
	c-1.6-15.9-16.6-21.8-20.9-24c-0.6-9-4.9-19.5-12.3-23.6c31.1-31.7,65.7-20.2,76.5-4.1c14.7,22,11.3,47.1,2.5,67.8
	c-3.9,9.7-37.3,54.8-40.3,58.4c4.7,2.2,9.6,5.4,21.5-6.7c1.6,3.4,4.3,37.3,22.7,41.7c4.7-5.4,5.9-12.8,7.4-21.5
	C442.8,463.3,415,467.8,431.6,444.7z M200.1,348.1c-19.6-5.4-34-28.5-64.9-39c-25.8-9-58.3-11.5-80.4,32.1
	C32.9,384,74.5,436.3,79.6,444.4c16.4,23.4-11.3,18.9-7,45.8c1.4,8.8,2.6,16.2,7.4,21.5c18.6-4.5,21.1-38.4,22.7-41.8
	c11.7,12.1,16.6,9,21.3,6.7c-3.1-3.4-36.4-48.7-40.3-58.4c-9-20.4-12.3-45.8,2.5-67.8c11.1-16.2,45.4-27.6,76.3,4
	c-7.4,4-11.7,14.6-12.3,23.6c-4.3,2.2-19.2,8.1-20.7,24c-9.8,2.2-15.1,9.2-16,21.1c-0.8,11.7,2.9,20.4,11,26
	c10.2,3.6,12.5-13,14.1-22.7c0.6-4.3,3.9-7.4,7.8-8.1c5.3-0.9,11.3-4.7,12.1-10.1c1.2-8.1,9-16.6,13.9-18c2.5-0.7,4.1-2.7,4.7-5.4
	c1-5.2,3.1-11.5,6.1-14.4c0,0,20.3,1.6,34.8-3.6c11.4-4,12.8-27.6,13-36.1C230.7,338.3,226.7,355.3,200.1,348.1z"/>
</svg>
