<?xml version="1.0" encoding="utf-8"?>
<!-- Generator: Adobe Illustrator 21.1.0, SVG Export Plug-In . SVG Version: 6.00 Build 0)  -->
<svg version="1.1" id="Layer_2" xmlns="http://www.w3.org/2000/svg" xmlns:xlink="http://www.w3.org/1999/xlink" x="0px" y="0px"
	 viewBox="0 0 512 512" style="enable-background:new 0 0 512 512;" xml:space="preserve">
<path d="M26.1,26.1c-34.8,34.8-34.8,91.3,0,126.1L152.2,26.1C117.4-8.7,60.9-8.7,26.1,26.1z M500.1,475.8l-60.4-60.4
	c25.3-36.3,40.2-80.5,40.2-128.1c0-123.7-100.3-224-224-224s-224,100.3-224,224c0,48.7,15.5,93.7,41.9,130.5l-57.6,57.6
	c-13.3,13.3-3.9,36.2,15,36.2l26.1,0c8,0,15.7-3.2,21.3-8.8l39.2-39.2c38.1,29.9,86,47.7,138.2,47.7c53.2,0,102-18.5,140.4-49.5
	l41.1,41.1c5.6,5.6,13.1,8.7,21,8.8l26.5,0.2C503.9,512.1,513.5,489.2,500.1,475.8z M256,422.5c-19.4,0-35.1-15.6-35.1-34.9
	c0-19.3,15.7-34.9,35.1-34.9c19.4,0,35,15.7,35.1,34.9C291,406.9,275.3,422.5,256,422.5z M273,325.3c0,7.3-0.5,10.2-2.2,12.2
	c-2.4,2.7-6.2,3.1-8.9,3.1h-12.3c-2.9,0-6.6-0.4-8.8-3c-1.7-1.9-2.2-4.6-2.2-11c0-3.6-22.9-135.8-22.9-137.3
	c0-10.2,3.8-19.1,11.1-26.1c7.3-7.2,17.5-10.8,30.3-10.8c12.6,0,22.4,3.9,29.1,11.7c6.6,7.6,10,16.5,10,26.6
	C296.3,193.1,273.2,320.2,273,325.3z M485.9,26.1c-34.8-34.8-91.3-34.8-126.1,0l126.1,126.1C520.7,117.4,520.7,60.9,485.9,26.1z"/>
</svg>
