<?xml version="1.0" encoding="utf-8"?>
<!-- Generator: Adobe Illustrator 21.1.0, SVG Export Plug-In . SVG Version: 6.00 Build 0)  -->
<svg version="1.1" id="Layer_2" xmlns="http://www.w3.org/2000/svg" xmlns:xlink="http://www.w3.org/1999/xlink" x="0px" y="0px"
	 viewBox="0 0 512 512" style="enable-background:new 0 0 512 512;" xml:space="preserve">
<g>
	<path d="M26.1,26.1c-34.8,34.8-34.8,91.3,0,126.1L152.2,26.1C117.4-8.7,60.9-8.7,26.1,26.1z"/>
	<path d="M485.9,26.1c-34.8-34.8-91.3-34.8-126.1,0l126.1,126.1C520.7,117.4,520.7,60.9,485.9,26.1z"/>
	<path d="M500.1,475.8l-60.4-60.4c25.3-36.3,40.2-80.5,40.2-128.1c0-123.7-100.3-224-224-224s-224,100.3-224,224
		c0,48.7,15.5,93.7,41.9,130.5l-57.6,57.6c-13.3,13.3-3.9,36.2,15,36.2l26.1,0c8,0,15.7-3.2,21.3-8.8l39.2-39.2
		c38.1,29.9,86,47.7,138.2,47.7c53.2,0,102-18.5,140.4-49.5l41.1,41.1c5.6,5.6,13.1,8.7,21,8.8l26.5,0.2
		C503.9,512.1,513.5,489.2,500.1,475.8z M78.1,298c-1,0-2.3-0.1-3-0.3c-1.2-0.3-1.5-1.2-1.2-2.4l0.5-1.7c0.4-1.4,1.1-1.5,2.2-1.3
		c0.5,0.1,0.7,0.1,1.1,0.1c2.1,0,3.2-0.8,3.9-2.3h-0.1c0,0-1,0.6-2.7,0.6c-4.2,0-6.5-3.4-6.5-6.6c0-3.4,2.4-7.6,7.3-7.6
		c4.1,0,8.8,2.9,8.8,9.8C88.4,292.5,84.6,298,78.1,298z M425.4,294.5l0.9-1.5c0.6-1.1,1.5-1.2,2.6-0.5c0.8,0.3,1.6,0.5,2.4,0.5
		c1.7,0,2.4-0.6,2.4-1.4c0-1.1-0.9-1.5-2.6-1.5h-0.8c-1,0-1.5-0.3-2-1.3l-0.2-0.3c-0.4-0.8-0.2-1.6,0.5-2.5l0.9-1.2
		c1.1-1.4,2-2.2,2-2.2v-0.1c0,0-0.7,0.2-2.1,0.2h-2.1c-1.2,0-1.9-0.7-1.9-1.9v-1.5c0-1.2,0.6-1.9,1.9-1.9h9.7c1.2,0,1.9,0.7,1.9,1.9
		v0.6c0,1-0.2,1.6-0.8,2.3l-2.9,3.3c3.2,0.8,4.8,3.4,4.8,5.8c0,3.5-2.4,7.3-8,7.3c-2.8,0-4.7-0.8-5.9-1.6
		C424.8,296.5,424.8,295.5,425.4,294.5z M256,114.7L256,114.7c0.1-7.8,8.5-9.3,8.5-11.5c0-1.2-1-1.5-1.5-1.5s-1.1,0.2-1.6,0.6
		c-0.8,0.8-1.7,1.2-2.7,0.4l-1.4-1.1c-1-0.8-1.2-1.6-0.5-2.6c1.1-1.5,3.2-3.1,6.7-3.1c3.2,0,7.4,1.7,7.4,6.6c0,6.4-7.7,7.7-8.1,9.4
		h6.5c1.2,0,1.9,0.7,1.9,1.9v1.5c0,1.2-0.7,1.9-1.9,1.9H258c-1.2,0-2-0.7-2-1.9V114.7z M241,100.6l3.5-3.2c0.7-0.7,1.4-0.9,2.3-0.9
		h2c1.2,0,1.9,0.6,1.9,1.9v13.7h2.5c1.2,0,1.9,0.7,1.9,1.9v1.5c0,1.2-0.6,1.9-1.9,1.9h-11c-1.2,0-1.9-0.7-1.9-1.9V114h0.2
		c0-1.2,0.6-1.9,1.9-1.9h2.5v-6.5c0-0.8,0.1-1.7,0.1-1.7h-0.1c0,0-0.3,0.4-0.5,0.6c-0.7,0.7-1.7,0.7-2.6-0.2l-0.9-1
		C240,102.4,240.1,101.5,241,100.6z M257.2,467.5c-4.1,0-8.8-2.9-8.8-9.8c-0.1-6.1,3.7-11.7,10.3-11.7c1,0,2.3,0.1,3,0.3
		c1.2,0.3,1.5,1.2,1.2,2.4l-0.5,1.7c-0.4,1.4-1.1,1.4-2.2,1.3c-0.5-0.1-0.7-0.1-1.1-0.1c-2.1,0-3.2,0.8-3.9,2.3h0.1
		c0,0,1-0.6,2.7-0.6c4.2,0,6.5,3.4,6.5,6.6C264.5,463.3,262.1,467.5,257.2,467.5z M343.7,314.5c0,7.2-5.8,13-13,13H246
		c-8.9,0-16-7.2-16-16l0.2-114.8c0-7.2,5.8-13,13-13h18.7c7.2,0,13,5.8,13,13V282h55.8c7.2,0,13,5.8,13,13V314.5z"/>
	<path d="M258.4,460.4c0,1.1-0.6,1.8-1.5,1.8c-1.1,0-2.3-1.3-2.3-2.9c0-1,0.4-1.1,1.2-1.1C258.1,458.2,258.4,459.7,258.4,460.4z"/>
	<path d="M82.1,284.8c0,1-0.4,1.1-1.2,1.1c-2.4,0-2.6-1.5-2.6-2.3c0-1.1,0.6-1.8,1.5-1.8C80.9,281.8,82.1,283.1,82.1,284.8z"/>
</g>
</svg>
