<?xml version="1.0" encoding="utf-8"?>
<!-- Generator: Adobe Illustrator 19.0.0, SVG Export Plug-In . SVG Version: 6.00 Build 0)  -->
<svg version="1.1" id="Layer_1" focusable="false" xmlns="http://www.w3.org/2000/svg" xmlns:xlink="http://www.w3.org/1999/xlink"
	 x="0px" y="0px" viewBox="64 0 640 512" style="enable-background:new 64 0 640 512;" xml:space="preserve">
<g>
	<path d="M258.5,286.6H160v66.5h185.2L258.5,286.6z M424,413.5H160V480h350.7L424,413.5z"/>
	<path d="M702.3,468.8l-30.7,40.1c-2.7,3.5-7.7,4.2-11.2,1.5L67.1,54.4c-3.5-2.7-4.2-7.7-1.5-11.2L96.4,3.1
		c2.7-3.5,7.7-4.2,11.2-1.5L160,42.6V32h448v66.5H232.9l79.9,61.3H608v66.5H399.5l78.7,60.4H608v66.5h-43l135.9,104.5
		C704.4,460.3,705,465.3,702.3,468.8z"/>
</g>
</svg>
