<?xml version="1.0" encoding="utf-8"?>
<!-- Generator: Adobe Illustrator 21.1.0, SVG Export Plug-In . SVG Version: 6.00 Build 0)  -->
<svg version="1.1" id="Layer_1" xmlns="http://www.w3.org/2000/svg" xmlns:xlink="http://www.w3.org/1999/xlink" x="0px" y="0px"
	 viewBox="0 0 703 512" style="enable-background:new 0 0 703 512;" xml:space="preserve">
<g>
	<path d="M147.3,22c-53.9,0-97.5,43.7-97.5,97.5c0,53.9,43.6,97.5,97.5,97.5c53.8,0,97.5-43.6,97.5-97.5
		C244.8,65.7,201.1,22,147.3,22z M208.3,138h-42.6v42.6H130V138H87.3v-35.7H130V59.6h35.7v42.6h42.6L208.3,138L208.3,138z"/>
	<path d="M149.4,366.6c-40.2,0-72.7,32.6-72.7,72.7s32.6,72.7,72.7,72.7s72.7-32.6,72.7-72.7C222.1,399.2,189.6,366.6,149.4,366.6z
		 M149.4,474.9c-19.7,0-35.6-15.9-35.6-35.6s15.9-35.6,35.6-35.6s35.6,15.9,35.6,35.6S169.1,474.9,149.4,474.9z"/>
	<path d="M539.7,366.6c-40.2,0-72.7,32.6-72.7,72.7s32.6,72.7,72.7,72.7s72.7-32.6,72.7-72.7S579.8,366.6,539.7,366.6z M539.7,474.9
		c-19.7,0-35.6-15.9-35.6-35.6s15.9-35.6,35.6-35.6c19.7,0,35.6,15.9,35.6,35.6S559.3,474.9,539.7,474.9z"/>
	<path d="M680.1,391.5c0-0.7,0.5-153.3,0.6-159.9c0-27.5-1.2-47.9-16.9-63.6l-72.4-81.4c-4.9-5-11.2-9.1-18.9-12.4
		c-6.8-2.9-13.2-4.6-19.1-4.9V54.8c0-5.8-4.7-10.4-10.4-10.4h-8.8c-5.8,0-10.4,4.7-10.4,10.4v14.4H492V24.8c0-6.3-2.3-11.8-6.8-16.6
		S475.1,1,468.6,1H32.3c-6.5,0-12.1,2.4-16.7,7.2S8.8,18.5,8.8,24.8L9,422.4c-5,0-9,3-9,7.9s4,9,9,9h46.8
		c0-54.8,44.1-93.6,93.6-93.6c49.6,0,93.6,40.6,93.6,93.6c131.9,0,203-0.1,203-0.1c0-41.1,31.6-93.5,93.6-93.5
		c59.3,0,93.4,50.4,93.4,93.5c0,0,34.6,0.1,47.1,0.1s22.9-12.6,22.9-24.9S692.1,391.5,680.1,391.5z M146.8,267
		c-54.7,0-102.4-29.6-128-73.7V44.7C26,32.2,35.1,20.9,45.6,11H248c28.8,27,46.8,65.4,46.8,108C294.8,200.8,228.5,267,146.8,267z
		 M650.4,212.7H492.1V100.6h58.3c7.2,0,12.3,0.9,15.2,2.7v6.6l-1.9-0.9l-1,1c-0.3,1-0.5,2.2-0.5,3.5s0.2,2.5,0.5,3.5l1,1l5.9,3.5
		c0.3,0,0.6-0.5,1-1.5c0.3-1,0.5-2,0.5-3c0-1.3-0.2-2.5-0.5-3.5c-0.3-0.7-1.1-1.5-2.4-2.5l-1.5-0.7V104l79.8,89.3
		c2.6,2.3,3.9,5.1,3.9,8.4L650.4,212.7L650.4,212.7z"/>
	<rect x="536.4" y="20.5" width="4.5" height="14.2"/>
	<rect x="553.6" y="38.8" transform="matrix(0.7071 -0.7071 0.7071 0.7071 135.3856 409.0455)" width="15.8" height="4.5"/>
	<rect x="513.7" y="33.2" transform="matrix(0.7071 -0.7071 0.7071 0.7071 122.0482 376.8625)" width="4.5" height="15.8"/>
</g>
</svg>
