<?xml version="1.0" encoding="utf-8"?>
<!-- Generator: Adobe Illustrator 21.1.0, SVG Export Plug-In . SVG Version: 6.00 Build 0)  -->
<svg version="1.1" id="Layer_1" xmlns="http://www.w3.org/2000/svg" xmlns:xlink="http://www.w3.org/1999/xlink" x="0px" y="0px"
	 viewBox="0 0 660 512" style="enable-background:new 0 0 660 512;" xml:space="preserve">
<path d="M660,370.8v119.8c0,11.8-9.6,21.4-21.4,21.4H21.4C9.6,512,0,502.4,0,490.6v-245h30.6l7-16.8h15.9l7.5,16.8h63v-12.7
	l5.7,12.7h32.5l5.7-13.1v13.1h154.9V218l2.9-0.3c1.9,0,2.9,1.3,2.9,3.8v24.2h80.1v-6.4c4.4,2.3,9.6,3.9,15.7,5
	c6,1.1,11,1.7,14.8,1.7c3.9,0,9.8-0.1,18-0.2c8.1-0.1,13.1-0.2,14.7-0.2l7.4-16.8h16.1l7,16.8h64.7v-16.4l9.9,16.4h52.5V139.9h-52.2
	v12.2l-7-12.2h-52.9v12.2l-6.3-12.2h-71.1c-13.4,0-23.8,2-31.4,6.1v-6.1h-49.7v6.1c-4.7-4.1-11.7-6.1-21.1-6.1H157.7l-12.2,27.3
	l-12.2-27.3H76.7v12.2l-6.3-12.2H22.3L0,190V21.4C0,9.6,9.6,0,21.4,0h617.2C650.4,0,660,9.6,660,21.4v248.5h-34.3
	c-9.8,0-17.4,2-23.1,6.1v-6.1l-50.8,0.8c-10.6,0-18,2-22.5,6.1v-6.1h-91v6.1c-5.9-4.1-14.2-6.1-25-6.1h-59.3v6.1
	c-4.4-4-13.1-6.1-25.9-6.1H261l-15.4,15.9l-14.3-15.9h-99.7v104.8h99.2l15.6-16.5l14.8,16.5h60v-25.2h5.9c11.1,0,19.5-1.3,25.3-3.8
	v28.9H402v-27.7h2.3c1.7,0,2.8,0.2,3.1,0.5s0.6,1.3,0.6,2.9v24.2h151.9c11,0,19.3-2.3,25.2-6.8v6.8h47.8
	C644.2,375.6,653.3,374,660,370.8z M200.6,155v75.5h-19.4v-58.4l-27.1,58.4h-16.6l-27.1-58.4v58.4H72.4l-7-16.8H26.6l-7.4,16.8H0.6
	L33.9,155h27.3l31.5,71.4V155h30.4l24.5,51l22.1-51H200.6z M34,198.6h25.6l-12.9-30.4L34,198.6z M359.5,309.8c0,3.6-0.5,6.9-1.6,9.6
	c-1.1,2.9-2.4,5.2-4,7c-1.6,1.8-3.8,3.4-6.5,4.6c-2.7,1.3-5.2,2.2-7.5,2.7c-2.3,0.6-5.4,1-9.1,1.2c-3.8,0.3-6.7,0.3-8.9,0.3
	c-2.3,0-5.3-0.1-9.3-0.2c-3.9-0.1-6.8-0.2-8.4-0.2v25.6h-36l-23.1-25.2l-23.8,25.2h-73V285h74.5l22.7,24.8L269,285h59.5
	C349.2,285,359.5,293.3,359.5,309.8z M211.3,344.5l21.2-22l-19.8-21.6H166v13.4h41.3v15.1H166v15.1H211.3z M276.5,215.4v15.1h-62.4
	V155h62.4v15.9h-43.9v14.3h42.2v15.1h-42.2v15.1H276.5z M257.4,322.9l28.3,30.7v-60.3L257.4,322.9z M363.1,175.4
	c0,4.4-1.2,8.3-3.4,12.1c-2.3,3.7-5.5,6.4-9.4,8c4.9,1.8,8.1,4.3,9.8,7.3c1.6,3.1,2.4,7.3,2.4,12.7v15h-17.7c0-1.8,0-4.4,0-7.5
	c0-3.2,0-5.5,0-7c0-1.5-0.3-3.3-0.8-5.3s-1.3-3.5-2.4-4.4s-2.9-1.7-5.1-2.4c-2.3-0.7-5.1-1-8.6-1h-20.1v27.7h-18.5V155l43.6,0.3
	c9.3,0,16.7,1.3,22.1,3.9S363.1,167.2,363.1,175.4z M340.1,310.2c0-6.2-3.8-9.3-11.3-9.3h-24.5v19.3h24.1
	C336.2,320.2,340.1,316.9,340.1,310.2z M342.5,179c0-5.4-3.9-8.1-11.7-8.1h-23.1v16.8h22.8C338.5,187.7,342.5,184.9,342.5,179z
	 M442.7,305.4c0,4.1-1.2,8-3.5,11.7c-2.3,3.8-5.5,6.4-9.8,8c4.9,1.8,8.1,4.4,9.8,7.5c1.6,3.2,2.4,7.4,2.4,12.6v15.3h-18.5v-12.7
	c0-6.1-1.1-10.1-3.3-12.2c-2.3-1.9-6.5-2.9-13.1-2.9h-19.9v27.7h-18.5v-75.5h44c9.1,0,16.4,1.3,22,4.1
	C439.9,291.8,442.7,297.2,442.7,305.4z M392.8,155v75.5h-18.5V155H392.8z M422.1,308.6c0-5.1-4-7.7-12.1-7.7h-23.1v16.8H410
	C418.1,317.7,422.1,314.7,422.1,308.6z M612.8,155v75.5h-26.4l-35.1-56v56h-38l-7.4-16.8h-38.7l-7,16.8h-20.9
	c-24.5,0-36.7-12.3-36.7-37.1c0-25.6,12.7-38.4,38.2-38.4h17.9v16.1c-1.4,0-4.1-0.1-8.1-0.3c-3.9-0.3-6.6-0.3-8.1-0.2
	c-1.3,0.1-3.6,0.3-6.6,0.7c-3,0.3-5,1-6.1,1.9s-2.4,2.2-4,3.8c-1.6,1.6-2.8,3.8-3.3,6.5c-0.6,2.8-0.8,5.8-0.8,9.2
	c0,7,1.3,12.5,3.9,16.3c2.5,3.8,7.2,5.6,13.9,5.6h8.4l26.1-59.5h27.8l31,71.5V155h29.6l31.9,52.1V155H612.8z M515,344.9v15.6h-62.4
	V285H515v15.9h-43v13.4h42.2v15.1H472v15.1L515,344.9z M474.4,198.6H500l-12.6-30.4L474.4,198.6z M591.3,336.5c0,16-9.8,24-29.4,24
	h-36v-15.9h36c6.5,0,9.8-2.3,9.8-6.9c0-2.9-1.6-4.9-4.9-6c-3.3-1-7.2-1.5-11.9-1.5s-9.4-0.3-14.2-0.8c-4.8-0.6-8.8-2.6-12.1-6.1
	c-3.3-3.5-4.9-8.7-4.9-15.6c0-7.3,2.5-12.9,7.5-16.8c5-3.9,11.4-5.8,19-5.8h37.1V301h-33.9c-7,0-10.5,2.3-10.5,7.1
	c0,2.9,1.7,4.8,5,5.6s7.4,1.2,12.1,1.2c4.7,0,9.3,0.3,14,0.7c4.7,0.4,8.7,2.4,12.1,6C589.6,324.9,591.3,329.9,591.3,336.5z
	 M660,322.6v28.1c-4.6,6.5-13,9.8-25.1,9.8h-35.6v-15.9h35.6c6.3,0,9.4-2.3,9.4-6.9c0-2.5-1.2-4.4-3.5-5.5c-2.3-1.2-5.3-1.7-8.9-1.5
	c-3.6,0.1-7.5-0.1-11.5-0.5s-7.9-1.2-11.3-2.2c-3.4-1-6.5-3.3-8.9-6.7c-2.4-3.4-3.7-8-3.7-13.7c0-7.3,2.6-12.9,7.7-16.8
	c5.1-3.9,11.5-5.8,19.2-5.8H660V301h-33.5c-7,0-10.5,2.3-10.5,7.1c0,3.6,2.8,5.6,8.4,6.1c5.6,0.4,12.1,0.9,19.5,1.3
	C651.4,315.9,656.7,318.3,660,322.6z"/>
</svg>
