<?xml version="1.0" encoding="utf-8"?>
<!-- Generator: Adobe Illustrator 21.1.0, SVG Export Plug-In . SVG Version: 6.00 Build 0)  -->
<svg version="1.1" id="Layer_1" xmlns="http://www.w3.org/2000/svg" xmlns:xlink="http://www.w3.org/1999/xlink" x="0px" y="0px"
	 viewBox="0 0 560.5 512" style="enable-background:new 0 0 560.5 512;" xml:space="preserve">
<path d="M82.1,512h-82V351.1h82V512z M241.2,512h-82V197.9h82V512z M400.2,512h-82V296.5h82V512z M560.3,512h-82V148.3h82V512z
	 M519.7,81.3c-5.4,0-10.6-1.1-15.3-3l-104,104c3,5.6,4.6,12.1,4.6,18.9c0,22.5-18.2,40.7-40.7,40.7c-22.5,0-40.7-18.2-40.7-40.7
	c0-3.8,0.5-7.5,1.5-11.1l-99-71c-7,5.7-15.9,9.1-25.6,9.1c-8.1,0-15.7-2.4-22-6.5L77.3,229.6c3,5.7,4.7,12.1,4.7,19
	c0,22.5-18.2,40.7-40.7,40.7c-22.5,0-40.7-18.2-40.7-40.7c0-22.5,18.2-40.7,40.7-40.7c6.1,0,11.8,1.3,17,3.7l103.9-110.6
	c-1.5-4.2-2.3-8.8-2.3-13.5c0-22.5,18.2-40.7,40.7-40.7c22.5,0,40.7,18.2,40.7,40.7c0,3.3-0.4,6.4-1.1,9.5l99.8,71.5
	c6.8-5.1,15.2-8.1,24.3-8.1c6.1,0,11.9,1.4,17.1,3.8L484.5,61.2c-3.5-6-5.6-13-5.6-20.5C479,18.2,497.2,0,519.7,0
	c22.5,0,40.7,18.2,40.7,40.7C560.3,63.1,542.1,81.3,519.7,81.3z"/>
</svg>
