<?xml version="1.0" encoding="utf-8"?>
<!-- Generator: Adobe Illustrator 21.1.0, SVG Export Plug-In . SVG Version: 6.00 Build 0)  -->
<svg version="1.1" id="_x33_2" xmlns="http://www.w3.org/2000/svg" xmlns:xlink="http://www.w3.org/1999/xlink" x="0px" y="0px"
	 viewBox="0 0 512 512" style="enable-background:new 0 0 512 512;" xml:space="preserve">
<g>
	<path d="M336.2,306.6l62.8,64.5c-12.6,12.4-27,22.9-42.9,31.3c-12.3,6.4-27.6,11.6-46,15.6c-9,2-17.5-5.2-17.5-14.7V258.8h80.5
		v-70.9h-80.5v-23.6c27.5-13.7,46.5-42.3,47-76c0.6-46.7-34.9-85.9-80-88.1c-48.3-2.4-88.2,37.4-88.2,86.9c0,34.7,19.6,64,47.9,77.7
		v23.1h-80.5v70.9h80.5v144.5c0,9.5-8.4,16.6-17.5,14.7c-19.3-4.1-35.1-9.3-47.1-15.6c-16.5-8.8-31.6-19.9-44.8-33.1l57.6-62.7H0
		v185.8l54.8-67.9c21.2,21.8,47.8,39.8,79.6,53.6h0.1c35.5,15,74,23,114.6,23.7l3.6,10.2h5.8l3.6-10.1c40.4-0.8,78.8-8.8,114.4-23.7
		l0.2-0.1c31.6-13.8,58.3-31.9,79.3-53.8l56,66.9V306.6H336.2z M255.6,122c-19.2,0-34.8-16.1-34.8-36s15.6-36,34.8-36
		s34.8,16.1,34.8,36S274.8,122,255.6,122z"/>
	<ellipse cx="255.6" cy="86" rx="13.5" ry="14"/>
</g>
</svg>
