<?xml version="1.0" encoding="utf-8"?>
<!-- Generator: Adobe Illustrator 21.1.0, SVG Export Plug-In . SVG Version: 6.00 Build 0)  -->
<svg version="1.1" id="Layer_1" xmlns="http://www.w3.org/2000/svg" xmlns:xlink="http://www.w3.org/1999/xlink" x="0px" y="0px"
	 viewBox="0 0 366 512" style="enable-background:new 0 0 366 512;" xml:space="preserve">
<g>
	<path d="M275.6,119H67.4C52.8,119,41,130.8,41,145.4v222.3c0,14.6,11.8,26.4,26.4,26.4h208.1c14.6,0,26.4-11.8,26.4-26.4V145.4
		C301.9,130.8,290.1,119,275.6,119z"/>
	<path d="M352.1,151.7H343v-14.8c0-31.6-24-57.5-54.8-60.6l-22.3-57C261.4,7.6,250.2,0,237.7,0H105.3C92.8,0,81.7,7.6,77.1,19.3
		l-22.3,57C24,79.4,0,105.3,0,136.9v239.2c0,31.6,24,57.6,54.8,60.6l22.3,57c4.5,11.6,15.7,19.3,28.2,19.3h132.4
		c12.5,0,23.7-7.7,28.2-19.3l22.3-57c30.8-3.1,54.8-29.1,54.8-60.6V224h9.1c7.7,0,13.9-6.2,13.9-13.9v-44.5
		C366,157.9,359.8,151.7,352.1,151.7z M319,379.3c0,18-14.6,32.7-32.7,32.7H56.7c-18,0-32.7-14.6-32.7-32.7V133.7
		c0-18,14.6-32.7,32.7-32.7h229.6c18,0,32.7,14.6,32.7,32.7L319,379.3L319,379.3z"/>
</g>
</svg>
