<?xml version="1.0" encoding="utf-8"?>
<!-- Generator: Adobe Illustrator 19.0.0, SVG Export Plug-In . SVG Version: 6.00 Build 0)  -->
<svg version="1.1" id="Layer_2" xmlns="http://www.w3.org/2000/svg" xmlns:xlink="http://www.w3.org/1999/xlink" x="0px" y="0px"
	 viewBox="78 141 256 512" style="enable-background:new 78 141 256 512;" xml:space="preserve">
<path d="M212.1,650.5l103-111.4c4.7-5,1.1-13.2-5.8-13.2h-67l0-256.3l-0.3,0v-1.3h67.3c6.9,0,10.5-8.2,5.8-13.2L211.8,143.5
	c-3.1-3.4-8.5-3.4-11.6,0L97.2,255c-4.7,5-1.1,13.2,5.8,13.2h67l0,256.3l0.3,0v1.3H103c-6.9,0-10.5,8.2-5.8,13.2l103.3,111.4
	C203.7,653.8,209,653.8,212.1,650.5z"/>
</svg>
