<?xml version="1.0" encoding="utf-8"?>
<!-- Generator: Adobe Illustrator 21.1.0, SVG Export Plug-In . SVG Version: 6.00 Build 0)  -->
<svg version="1.1" id="Layer_3" xmlns="http://www.w3.org/2000/svg" xmlns:xlink="http://www.w3.org/1999/xlink" x="0px" y="0px"
	 viewBox="0 0 512 512" style="enable-background:new 0 0 512 512;" xml:space="preserve">
<g id="fill">
	<path d="M513,256C513,114.6,398.4,0,257,0S1,114.6,1,256s114.6,256,256,256S513,397.4,513,256z M34,256c0-123.2,99.8-223,223-223
		s223,99.8,223,223s-99.8,223-223,223S34,379.2,34,256z"/>
	<path d="M154.8,295c-10,0-14.9-12-7.9-19.1l110.1-110L367.1,276c7,7,2.1,19.1-7.9,19.1H299v147.4c85.3-19.3,149-95.4,149-186.5
		c0-105.5-85.5-191-191-191S66,150.5,66,256c0,91.1,63.7,167.2,149,186.4V295H154.8z"/>
</g>
</svg>
