<?xml version="1.0" encoding="utf-8"?>
<!-- Generator: Adobe Illustrator 19.0.0, SVG Export Plug-In . SVG Version: 6.00 Build 0)  -->
<svg version="1.1" id="Layer_2" xmlns="http://www.w3.org/2000/svg" xmlns:xlink="http://www.w3.org/1999/xlink" x="0px" y="0px"
	 viewBox="78 141 256 512" style="enable-background:new 78 141 256 512;" xml:space="preserve">
<path d="M242.2,275.6l44.2,44.2l45.3-45.3c3.1-3.1,3.1-8.2,0-11.3L211.9,143.5c-3.1-3.1-8.2-3.1-11.3,0L80.3,263.8
	c-3.1,3.1-3.1,8.2,0,11.3l45.3,45.3l44.8-44.8l-0.4,243.2l-44.4-44.5l-45.3,45.3c-3.1,3.1-3.1,8.2,0,11.3l119.7,119.7
	c3.1,3.1,8.2,3.1,11.3,0l120.3-120.3c3.1-3.1,3.1-8.2,0-11.3l-45.1-45.3L242.2,518V275.6z"/>
</svg>
