<?xml version="1.0" encoding="utf-8"?>
<!-- Generator: Adobe Illustrator 19.0.0, SVG Export Plug-In . SVG Version: 6.00 Build 0)  -->
<svg version="1.1" id="Layer_2" xmlns="http://www.w3.org/2000/svg" xmlns:xlink="http://www.w3.org/1999/xlink" x="0px" y="0px"
	 viewBox="-50 141 512 512" style="enable-background:new -50 141 512 512;" xml:space="preserve">
<path d="M459.5,391.2L348,288.2c-5-4.7-13.2-1.1-13.2,5.8v67l-256.3,0l0,0.3h-1.3V294c0-6.9-8.2-10.5-13.2-5.8L-47.5,391.5
	c-3.4,3.1-3.4,8.5,0,11.6L64,506.1c5,4.7,13.2,1.1,13.2-5.8v-67l256.3,0l0-0.3h1.3v67.3c0,6.9,8.2,10.5,13.2,5.8l111.4-103.3
	C462.8,399.6,462.8,394.3,459.5,391.2z"/>
</svg>
