<?xml version="1.0" encoding="utf-8"?>
<!-- Generator: Adobe Illustrator 21.1.0, SVG Export Plug-In . SVG Version: 6.00 Build 0)  -->
<svg version="1.1" id="Layer_3" xmlns="http://www.w3.org/2000/svg" xmlns:xlink="http://www.w3.org/1999/xlink" x="0px" y="0px"
	 viewBox="0 0 512 512" style="enable-background:new 0 0 512 512;" xml:space="preserve">
<g id="fill">
	<path d="M1,256c0,141.4,114.6,256,256,256s256-114.6,256-256S398.4,0,257,0S1,114.6,1,256z M480,256c0,123.2-99.8,223-223,223
		S34,379.2,34,256S133.8,33,257,33S480,132.8,480,256z"/>
	<path d="M359.2,217c10,0,14.9,12,7.9,19.1L257,346.1L146.9,236c-7-7-2.1-19.1,7.9-19.1H215V69.5C129.7,88.8,66,164.9,66,256
		c0,105.5,85.5,191,191,191s191-85.5,191-191c0-91.1-63.7-167.2-149-186.4V217H359.2z"/>
</g>
</svg>
