<?xml version="1.0" encoding="utf-8"?>
<!-- Generator: Adobe Illustrator 19.0.0, SVG Export Plug-In . SVG Version: 6.00 Build 0)  -->
<svg version="1.1" id="Layer_2" xmlns="http://www.w3.org/2000/svg" xmlns:xlink="http://www.w3.org/1999/xlink" x="0px" y="0px"
	 viewBox="-50 141 512 512" style="enable-background:new -50 141 512 512;" xml:space="preserve">
<path d="M459.7,391.3l-96-96c-3.1-3.1-8.2-3.1-11.3,0L307,340.5l20.5,20.5l-84.1,0v-85.4l20.5,20.5l45.3-45.3
	c3.1-3.1,3.1-8.2,0-11.3l-96-96c-3.1-3.1-8.2-3.1-11.3,0l-96,96c-3.1,3.1-3.1,8.2,0,11.3l45.3,45.3l20.5-20.5V361H84.8l20.1-20.1
	l-45.3-45.3c-3.1-3.1-8.2-3.1-11.3,0l-96,96c-3.1,3.1-3.1,8.2,0,11.3l96,96c3.1,3.1,8.2,3.1,11.3,0l45.3-45.3L84.2,433h87.1l0,85.8
	L150.6,498l-45.3,45.3c-3.1,3.1-3.1,8.2,0,11.3l96,96c3.1,3.1,8.2,3.1,11.3,0l96-96c3.1-3.1,3.1-8.2,0-11.3L263.5,498l-20.1,20.1
	V433h84.1L307,453.4l45.3,45.3c3.1,3.1,8.2,3.1,11.3,0l96-96C462.8,399.5,462.8,394.4,459.7,391.3z"/>
</svg>
