<?xml version="1.0" encoding="utf-8"?>
<!-- Generator: Adobe Illustrator 21.1.0, SVG Export Plug-In . SVG Version: 6.00 Build 0)  -->
<svg version="1.1" id="Layer_3" xmlns="http://www.w3.org/2000/svg" xmlns:xlink="http://www.w3.org/1999/xlink" x="0px" y="0px"
	 viewBox="0 0 512 512" style="enable-background:new 0 0 512 512;" xml:space="preserve">
<g id="fill">
	<path d="M257,512c141.4,0,256-114.6,256-256S398.4,0,257,0S1,114.6,1,256S115.6,512,257,512z M257,33c123.2,0,223,99.8,223,223
		s-99.8,223-223,223S34,379.2,34,256S133.8,33,257,33z"/>
	<path d="M218,153.8c0-10,12-14.9,19.1-7.9l110,110.1L237,366.1c-7,7-19.1,2.1-19.1-7.9V298H70.5c19.3,85.3,95.4,149,186.5,149
		c105.5,0,191-85.5,191-191S362.5,65,257,65c-91.1,0-167.2,63.7-186.4,149H218V153.8z"/>
</g>
</svg>
