<?xml version="1.0" encoding="utf-8"?>
<!-- Generator: Adobe Illustrator 19.0.0, SVG Export Plug-In . SVG Version: 6.00 Build 0)  -->
<svg version="1.1" id="Layer_3" xmlns="http://www.w3.org/2000/svg" xmlns:xlink="http://www.w3.org/1999/xlink" x="0px" y="0px"
	 viewBox="0 0 512 512" style="enable-background:new 0 0 512 512;" xml:space="preserve">
<g id="XMLID_1_">
	<path id="XMLID_8_" d="M209.7,470.3c0.1-0.4,0.1-0.8,0.2-1.2c2.3-14.3,13-25.6,27-29c40.1-9.9,33.6-54.8,61.6-88.2
		c22.3-26.6,36.5-52.9,45-76.1c15.9-43.6-2.3-106.2-64.2-121.9c-70.5-17.9-137.2,15-153.1,102.2c-3.1,17-18.1,29.2-35.4,28.9h0
		c-22.2-0.3-38.7-20.8-34.3-42.5C78.7,132.6,157.6,59.7,291.7,83c99.2,17.2,151.6,122.3,119.5,217.2c-10.4,30.7-29.7,63-56.1,96.2
		c-9.2,11.6-22.6,58.9-42.6,77.1c-19.4,17.6-38.7,31.2-58.3,36.6C229.2,516.9,205.6,495.8,209.7,470.3z"/>
	<path id="XMLID_64_" d="M33.9,512C15.2,512,0,496.8,0,478.1c0-18.7,15.2-33.9,33.9-33.9c18.7,0,33.9,15.2,33.9,33.9
		C67.8,496.8,52.6,512,33.9,512z M117.6,468.9l-75.2-75.2l36.8-36.8l75.2,75.2L117.6,468.9z M163.8,382.1
		c-18.7,0-33.9-15.2-33.9-33.9c0-18.7,15.2-33.9,33.9-33.9c18.7,0,33.9,15.2,33.9,33.9C197.7,366.9,182.5,382.1,163.8,382.1z
		 M190.2,228.6l-0.7-0.7c-10.1-10.1-9.1-26.8,2.1-35.7c13.2-10.4,29.8-16.6,48-16.6c42.8,0,77.5,34.7,77.5,77.4
		c0,18.1-6.2,34.8-16.6,48c-8.9,11.2-25.5,12.2-35.7,2.1l-0.7-0.7c-8.6-8.6-9.1-22.1-1.7-31.7c4.3-5.5,6.6-12.7,5.9-20.5
		c-1.3-13.5-12.2-24.5-25.8-25.8c-7.7-0.8-14.9,1.6-20.5,5.9C212.3,237.7,198.8,237.2,190.2,228.6z M495.3,141.9l-0.4,0.2
		c-13.9,5.3-29.3-2.3-33.6-16.5c-11.2-36.6-40.9-65.1-78.3-74.4c-14.1-3.5-22.7-17.8-18.8-31.9l0.1-0.4c3.8-13.4,17.5-21.4,31.1-18
		c55.2,13.7,99.1,55.8,115.6,109.8C514.8,123.5,507.9,137.1,495.3,141.9z"/>
</g>
</svg>
