<?xml version="1.0" encoding="utf-8"?>
<!-- Generator: Adobe Illustrator 19.0.0, SVG Export Plug-In . SVG Version: 6.00 Build 0)  -->
<svg version="1.1" id="Layer_1" xmlns="http://www.w3.org/2000/svg" xmlns:xlink="http://www.w3.org/1999/xlink" x="0px" y="0px"
	 viewBox="0 0 493.5 512" style="enable-background:new 0 0 493.5 512;" xml:space="preserve">
<path id="XMLID_2_" d="M284.3,512h-75.4c-5.5,0-10.8-2.4-14.5-6.6c-3.7-4.2-5.4-9.7-4.8-15.3L210,317.9L73,428.3
	c-4.4,3.6-10.2,5-15.7,3.9c-5.6-1.1-10.4-4.5-13.2-9.5L3.7,351.5c-2.7-4.8-3.3-10.6-1.6-15.9c1.8-5.3,5.7-9.6,10.7-11.8l161.4-69.8
	L11.3,178.3c-5.1-2.4-8.9-6.8-10.5-12.2c-1.6-5.4-0.8-11.2,2.2-16l39.9-63.8c2.9-4.7,7.7-7.9,13.1-8.8c5.4-0.9,10.9,0.4,15.2,3.8
	l139.9,109.8L189.7,22.9c-0.7-5.6,1-11.2,4.7-15.4c3.7-4.2,9-6.6,14.6-6.6h75.4c5.6,0,10.9,2.4,14.6,6.6s5.4,9.8,4.7,15.4l-21.4,167
	L421.8,81.5c4.4-3.4,10.1-4.8,15.6-3.7c5.5,1.1,10.2,4.5,13,9.4l39.2,68.8c2.7,4.8,3.3,10.5,1.6,15.8s-5.5,9.5-10.5,11.8l-160.2,72
	l161.4,70.9c5,2.2,8.9,6.5,10.6,11.7c1.7,5.2,1.2,11-1.5,15.8l-37.9,67.4c-2.8,4.9-7.5,8.4-13,9.5c-5.5,1.1-11.2-0.2-15.6-3.6
	L280.8,317.3l22.7,172.6c0.7,5.6-1,11.2-4.6,15.4C295.2,509.6,289.9,512,284.3,512z"/>
</svg>
