<?xml version="1.0" encoding="utf-8"?>
<!-- Generator: Adobe Illustrator 21.1.0, SVG Export Plug-In . SVG Version: 6.00 Build 0)  -->
<svg version="1.1" id="Layer_1" focusable="false" xmlns="http://www.w3.org/2000/svg" xmlns:xlink="http://www.w3.org/1999/xlink"
	 x="0px" y="0px" viewBox="0 0 485.7 512" style="enable-background:new 0 0 485.7 512;" xml:space="preserve">
<path d="M425.4,61.4c-19.5-19.6-42.7-34.8-69.1-45.3C329.3,5.4,299.6,0,268.1,0c-39.4,0-76.6,7.7-110.6,22.8
	c-32.3,14.4-60.9,35.1-84.9,61.6C25.8,136.1,0,205.8,0,280.6c0,34.2,6.1,66.3,18,95.5c11.4,28,28,52.6,49.1,73.3
	c41.4,40.4,97.7,62.6,158.6,62.6c51.5,0,91.7-9.1,130.4-29.4l14.5-7.6l-24.2-65l-19,10.6c-25.1,14.1-57.7,21.5-94.1,21.5
	c-93.9,0-157-66.5-157-165.6c0-120.5,78.4-207.9,186.4-207.9c90.5,0,146.8,58,146.8,151.3c0,40.9-11.2,75.3-30.8,94.5
	c-7.8,7.6-16.1,11.8-23.5,11.8h-0.4c-2.3-0.1-2.7-0.6-3.1-1c-0.8-1-7.9-11.4,0.4-53.3L378,134l-0.1-0.1l2-10.4l-76.3-14.3l-0.6,3.5
	c-6.3-0.5-12.6-0.8-19-0.8c-50,0-96.2,19.5-130.1,54.9c-32.1,33.5-50.5,79.2-50.5,125.4c0,30.3,9.3,56.5,26.9,75.7
	c17,18.6,40.3,28.8,65.5,28.8c34.7,0,64.3-12.4,88.2-37c3,6.2,6.8,11.7,11.5,16.6c12.6,13.2,30.3,20.4,50,20.4
	c38.3,0,73.6-17.7,99.5-49.8c26.7-33.2,40.8-78.5,40.8-131.2C485.7,155.2,464.3,100.4,425.4,61.4z M278,245.4
	c-1.6,9-4.8,18.6-9.3,28c-4.5,9.4-10.2,18.4-16.6,26c-13,15.6-27.3,24.2-40.1,24.2c-8.9,0-15.7-2.7-20.1-8.2
	c-4.8-5.8-7.3-14.8-7.3-26c0-27.9,9.7-54.4,27.4-74.6c17.3-19.7,39.8-30.5,63.6-30.5c4.6,0,9.2,0.3,13.6,0.8l-4.1,21.9l0.1,0
	L278,245.4z"/>
</svg>
