<?xml version="1.0" encoding="utf-8"?>
<!-- Generator: Adobe Illustrator 21.1.0, SVG Export Plug-In . SVG Version: 6.00 Build 0)  -->
<svg version="1.1" id="Layer_1" xmlns="http://www.w3.org/2000/svg" xmlns:xlink="http://www.w3.org/1999/xlink" x="0px" y="0px"
	 viewBox="0 0 551 512" style="enable-background:new 0 0 551 512;" xml:space="preserve">
<path d="M169.5,238H9.8v7.5h159.8L169.5,238L169.5,238z M152.2,400.9c-1.7,6.8-4.4,13.4-8.3,19.7c-3.6,6.1-8.2,11.5-13.8,16.1
	c-5.5,4.7-11.7,8-18.4,10.3c-7,2.7-14.2,4-21.6,4c-7.5,0-14.7-1.3-21.7-4c-6.7-2.2-12.9-5.6-18.4-10.3c-5.5-4.6-10.1-9.9-13.8-16.1
	c-3.9-6.3-6.5-12.9-8-19.7H66c0,0.8,0.5,2.4,1.5,5.1c1.2,2.4,2.8,4.6,4.7,6.6c1.9,1.9,4.1,3.4,6.5,4.4c2.7,1.2,5.3,1.8,8,1.8
	c2.9,0,5.5-0.6,8-1.8c2.7-1,4.9-2.4,6.9-4.4c1.9-2,3.4-4.1,4.4-6.6c1.2-2.7,1.8-4.4,1.8-5.1H152.2z M280.1,254.3l125.8,1.5
	c-2.7,0,62-3.8,77-8.4c6.5-3.2,18.4,0.8,18.4,0.8s2.1,2.7,1.8,11.7c-0.2,4.8-0.7,13.4-0.7,13.2c-0.5,1.4-1.1,1.8-1.1,1.8
	s-16.8,3.6-21.3,4c-1.2,3.4-2.4,6.3-3.6,8.7l8.3-1.8c8.2-0.2,16.2,0.8,24.2,2.9c7.5,2.2,14.3,5.4,20.6,9.5c6,4.1,10.9,8.6,14.8,13.5
	c3.8,5.4,6,10.7,6.5,16.1h-12.3c-11.9-10.6-30.8-19.5-51.4-19.5c-30.1,0-62.5,20.3-72.7,50.2c-3.5,10-5.2,20.1-5.7,31.1H9v-79.2
	l-9-1.8v-26.7l9-1.8v-24.5h159.8c0,1.7,0.2,3.4,0.4,5.1c0.2,1.9,0.7,3.9,1.5,5.8c1.9,4.9,4.7,8.8,8.3,11.7c4.8,3.4,9,9,12.3,16.8
	c2.4,6.1,4.4,13.5,5.8,22.3c1.2,6.1,2.1,12.7,2.5,19.7c0.2,3.4,0.4,6.2,0.4,8.4c0,1.7,0.4,3.5,1.1,5.5c0.9,2,2.1,3.7,3.6,5.5
	c1.2,1.5,2.8,2.8,4.7,4c1.7,1,3.5,1.5,5.4,1.5H270c3.4,0,6-2.2,8-6.6c1.5-3.4,2.1-7.6,2.1-12.4L280.1,254.3L280.1,254.3z
	 M280.1,227.8V105c0-3.4-1.5-6.1-4.4-8c-2.4-1.7-5.7-2.6-9.8-2.6h-84.1c-3.8,0-6.9,0.8-9,2.6c-2.1,1.9-3.2,4.6-3.2,8v123.5H9V123.2
	c0-2.7,0.2-5.8,0.4-9.5c1-8,3.4-15.2,7.3-21.6c5-9.3,12.7-16.4,23.1-21.6c12.8-6.6,28.9-9.9,48.4-9.9h285.6c9.4,0,17,1.4,22.8,4
	c4.8,2.2,9.5,6,14.1,11.3c17.1,19.7,34.1,44.4,50.9,73.8c8.6,15.6,15.3,29.8,19.9,42.4c5.5,14.4,7.8,28,7.6,24.9
	c-1.7,0.8-4,1.4-6.9,1.8c-2.4,0.8-5,1.2-7.6,1.5c-3.4,1-6.7,1.7-10.1,2.2c-9,1.5-17.7,2.7-26.4,3.7c-11.1,1-21.7,1.5-31.8,1.5
	L280.1,227.8z M488,227.4c-1.5,0.5-2.1,1-5,1.5c-2.4,0.8-5,1.4-8,1.8c-3.4,0.8-6.7,1.4-10.1,1.8c-9,1.7-17.8,2.9-26.8,3.7
	c-11.1,1.2-21.7,1.8-31.8,1.8H280.1v7.5h125.8c9.6,0,19.9-0.5,30.8-1.5c9-1,17.8-2.2,26.8-3.7c6.7-1.2,13.2-2.4,19.5-3.7
	c2.9-0.5,3.7-1,5.4-1.5L488,227.4z M381.7,206.2c1.7,0,3.4-0.4,5-1.1c1.5-0.8,2.8-1.7,4-2.9c0.9-1.2,1.9-2.7,2.9-4.4
	c0.5-1.5,0.8-3.1,0.8-5.1l-9.1-87c0-3.1-1.4-5.8-4-8c-2.4-2.1-5.3-3.3-8.6-3.3h-57.8c-3.6,0-6.5,0.8-8.6,2.6c-2.7,1.7-4,4.3-4,7.6
	v86.2c0,1.9,0.4,3.7,1.1,5.5c0.7,1.7,1.7,3.3,2.9,4.7c1.2,1.7,2.4,2.9,3.6,3.7c1.7,1,3.4,1.5,5,1.5L381.7,206.2L381.7,206.2z
	 M429.4,194.2l40.5-7.3c-6.5-14.8-14.9-31.2-25.3-49c-9.4-15.6-18.9-30-28.5-43.1l-4.7,1.1c-2.9,0.5-5.2,2-6.9,4.4
	c-1.7,2.4-2.1,5.1-1.5,8l14.5,77.9c0.5,2.4,1.7,4.5,3.6,6.2c1.9,1.5,4.2,2.2,6.9,2.2c0.2,0,0.7,0,1.5,0L429.4,194.2L429.4,194.2z
	 M487.7,322.7c8.6,0,16.8,1.6,24.6,4.7c7.7,3.1,14.5,7.8,20.3,13.8c5.8,5.9,10.3,12.7,13.8,20.5c3.1,7.8,4.7,16.1,4.7,24.9
	s-1.6,17.1-4.7,25.2c-3.4,7.6-8,14.4-13.8,20.5c-5.8,5.8-12.5,10.3-20.3,13.5c-7.7,3.4-15.9,5.1-24.6,5.1c-8.7,0-17-1.7-24.9-5.1
	c-7.5-3.1-14.2-7.6-20.2-13.5c-5.8-6.1-10.3-12.9-13.4-20.5c-3.4-8-5-16.4-5-25.2s1.7-17.1,5-24.9c3.1-7.8,7.6-14.6,13.4-20.5
	c6-6.1,12.8-10.7,20.2-13.8C470.6,324.2,478.9,322.7,487.7,322.7z M487.7,407.4c2.7,0,5.3-0.5,8-1.5c2.4-1.2,4.7-2.8,6.9-4.7
	c1.7-1.7,3.1-3.9,4.4-6.6c0.9-2.4,1.5-5.1,1.5-8s-0.5-5.7-1.5-8.4c-1.2-2.1-2.7-4.4-4.4-6.6c-2.1-1.9-4.4-3.4-6.9-4.4
	c-2.7-1-5.3-1.5-8-1.5c-2.9,0-5.6,0.5-8,1.5c-2.7,1-4.8,2.4-6.5,4.4c-2.1,2.2-3.7,4.4-4.7,6.6c-1.2,2.7-1.8,5.5-1.8,8.4
	s0.6,5.6,1.8,8c0.9,2.7,2.5,4.9,4.7,6.6c1.7,1.9,3.9,3.5,6.5,4.7C482.1,407,484.8,407.4,487.7,407.4z"/>
</svg>
