<?xml version="1.0" encoding="utf-8"?>
<!-- Generator: Adobe Illustrator 21.1.0, SVG Export Plug-In . SVG Version: 6.00 Build 0)  -->
<svg version="1.1" id="Layer_3" xmlns="http://www.w3.org/2000/svg" xmlns:xlink="http://www.w3.org/1999/xlink" x="0px" y="0px"
	 viewBox="0 0 512 512" style="enable-background:new 0 0 512 512;" xml:space="preserve">
<g>
	<path d="M100.5,401.7c-2-2-5.1-1.9-7.1,0.1L69,427c-2,2-1.9,5.1,0.1,7.1L85,449.4c2,2,5.1,1.9,7.1-0.1l24.4-25.2
		c2-2,1.8-5.2-0.1-7.1L100.5,401.7z"/>
	<path d="M89,117.7c2.1,1.9,5.2,1.8,7.1-0.1l15.4-15.9c2-2,1.9-5.1-0.1-7.1L86.2,70.4c-2-2-5.1-1.9-7.1,0.1L63.8,86.3
		c-2,2-1.9,5.1,0.1,7.1L89,117.7z"/>
	<path d="M79.7,374.9L68.4,356c-1.5-2.4-4.5-3.1-6.8-1.7l-30,18c-2.4,1.5-3.1,4.5-1.7,6.8L41.1,398c1.5,2.4,4.5,3.2,6.8,1.7l30-18
		C80.4,380.3,81.1,377.2,79.7,374.9z"/>
	<path d="M162.3,446.9L143,436.2c-2.4-1.4-5.4-0.5-6.8,2l-17,30.6c-1.4,2.4-0.5,5.4,2,6.8l19.3,10.7c2.4,1.4,5.4,0.5,6.8-2l17-30.6
		C165.6,451.3,164.7,448.2,162.3,446.9z"/>
	<path d="M214.8,464.4l-21.4-5.3c-2.7-0.7-5.4,0.9-6,3.6l-8.5,33.9c-0.7,2.7,0.9,5.4,3.6,6l21.4,5.3c2.7,0.7,5.4-0.9,6-3.6l8.5-33.9
		C219.1,467.7,217.5,465,214.8,464.4z"/>
	<path d="M296.6,48.8l21.4,5.3l6-3.6l8.5-33.9c0.7-2.7-0.9-5.4-3.6-6l-21.4-5.3c-2.7-0.7-5.4,0.9-6,3.6l-8.5,33.9
		C292.3,45.4,293.9,48.1,296.6,48.8z"/>
	<path d="M262.8,0l-22,0.4c-2.7,0-4.9,2.4-5,5.1l0.5,35c0,2.7,2.4,4.9,5,4.9l22-0.4c2.7,0,4.9-2.4,5-5.1l-0.5-35
		C267.8,2.2,265.5,0,262.8,0z"/>
	<path d="M187.2,56.3l21.1-6.1c2.7-0.8,4.2-3.5,3.4-6.2l-9.5-33.6c-0.8-2.7-3.5-4.2-6.2-3.4L175,13.1c-2.7,0.8-4.2,3.5-3.4,6.2
		l9.6,33.7C181.8,55.5,184.6,57.1,187.2,56.3z"/>
	<path d="M130.8,79.2c1.5,2.4,4.5,3.1,6.8,1.7l18.9-11.3c2.4-1.5,3.1-4.5,1.7-6.8l-18-30c-1.5-2.4-4.5-3.1-6.8-1.7l-18.9,11.3
		c-2.4,1.5-3.1,4.5-1.7,6.8L130.8,79.2z"/>
	<path d="M57.8,151.6c6.2-6.4,6-16.5-0.3-22.6c-6.3-6.1-16.5-5.9-22.6,0.4c-6.2,6.4-6,16.5,0.3,22.6C41.5,158.2,51.6,158,57.8,151.6
		z"/>
	<path d="M34.6,209.9c6.2-6.4,6-16.5-0.3-22.6c-6.3-6.1-16.5-5.9-22.6,0.4c-6.2,6.4-6,16.5,0.3,22.6
		C18.3,216.5,28.5,216.3,34.6,209.9z"/>
	<path d="M27.5,272.1c6.2-6.4,6-16.5-0.3-22.6c-6.3-6.1-16.5-5.9-22.6,0.4c-6.2,6.4-6,16.5,0.3,22.6
		C11.2,278.7,21.3,278.5,27.5,272.1z"/>
	<path d="M36.3,311.5c-6.3-6.1-16.5-5.9-22.6,0.4s-6,16.5,0.3,22.6s16.5,5.9,22.6-0.4S42.6,317.6,36.3,311.5z"/>
	<path d="M471.9,118.8l29.7,0.1l0.4-61.5l-122.6-1.1l0,0.6l-0.4-0.1l-18.1,124.3l63.5,6.7l2.9-22c38.2,72.3,27.8,163.9-32.2,225.8
		c-33.2,34.3-76.1,53.7-120.2,58.2c0.1,2.5,0.4,61,0.4,62.2c60.3-4.7,119.1-30.4,164.5-77.3C524.1,347.8,534.3,216.5,471.9,118.8z"
		/>
	<path d="M215.1,245.7c-2.3,5.6-3.6,11.7-3.6,18.1c0,26.4,21.9,47.9,48.9,47.9s48.9-21.4,48.9-47.9c0-23.2-16.9-42.6-39.3-47
		l-34-58.9c-8.5-14.8-27.4-19.9-42.2-11.3c-14.8,8.5-19.9,27.4-11.3,42.2L215.1,245.7z"/>
</g>
</svg>
