<?xml version="1.0" encoding="utf-8"?>
<!-- Generator: Adobe Illustrator 21.1.0, SVG Export Plug-In . SVG Version: 6.00 Build 0)  -->
<svg version="1.1" id="Layer_2" xmlns="http://www.w3.org/2000/svg" xmlns:xlink="http://www.w3.org/1999/xlink" x="0px" y="0px"
	 viewBox="0 0 512.4 512" style="enable-background:new 0 0 512.4 512;" xml:space="preserve">
<g id="fill">
	<path d="M118.8,422.9L118.8,422.9c-1.9,1.8-3.9,2.6-6.4,2.6c-2.4,0-4.5-0.8-6.3-2.6c-1.8-1.7-2.7-3.8-2.7-6.2
		c0-2.5,0.9-4.5,2.7-6.2c1.8-1.7,3.9-2.6,6.1-2.6c2.6,0,4.7,0.8,6.6,2.6c1.8,1.7,2.7,3.7,2.7,6.2S120.6,421.2,118.8,422.9z"/>
	<path d="M433.8,103.8L433.8,103.8c-1.9,1.8-3.9,2.6-6.4,2.6c-2.4,0-4.5-0.8-6.3-2.6c-1.8-1.7-2.7-3.7-2.7-6c0-2.4,0.9-4.4,2.8-6.3
		c1.8-1.9,3.8-2.8,6.1-2.8c2.5,0,4.6,0.9,6.5,2.8c1.8,1.8,2.8,3.9,2.8,6.3C436.5,100.1,435.6,102,433.8,103.8z"/>
	<path d="M433.8,300.3L433.8,300.3c-1.9,1.7-3.9,2.6-6.4,2.6c-2.4,0-4.5-0.8-6.3-2.6c-1.8-1.7-2.7-3.7-2.7-6c0-2.4,0.9-4.4,2.8-6.3
		c1.8-1.9,3.8-2.8,6.1-2.8c2.5,0,4.6,0.9,6.5,2.8c1.8,1.8,2.8,3.9,2.8,6.3C436.5,296.7,435.6,298.6,433.8,300.3z"/>
	<path d="M436.8,422.9L436.8,422.9c-1.9,1.8-3.9,2.6-6.4,2.6c-2.4,0-4.5-0.8-6.3-2.6c-1.8-1.7-2.7-3.8-2.7-6.2
		c0-2.5,0.9-4.5,2.7-6.2c1.8-1.7,3.9-2.6,6.1-2.6c2.6,0,4.7,0.8,6.6,2.6c1.8,1.7,2.7,3.7,2.7,6.2S438.6,421.2,436.8,422.9z"/>
	<path d="M115.8,103.8L115.8,103.8c-1.9,1.8-3.9,2.6-6.4,2.6c-2.4,0-4.5-0.8-6.3-2.6c-1.8-1.7-2.7-3.7-2.7-6c0-2.4,0.9-4.4,2.8-6.3
		c1.9-1.9,3.8-2.8,6.1-2.8c2.5,0,4.6,0.9,6.5,2.8c1.8,1.8,2.7,3.9,2.7,6.3C118.5,100.1,117.6,102,115.8,103.8z"/>
	<path d="M115.8,300.3L115.8,300.3c-1.9,1.7-3.9,2.6-6.4,2.6c-2.4,0-4.5-0.8-6.3-2.6c-1.8-1.7-2.7-3.7-2.7-6c0-2.4,0.9-4.4,2.8-6.3
		c1.9-1.9,3.8-2.8,6.1-2.8c2.5,0,4.6,0.9,6.5,2.8c1.8,1.8,2.7,3.9,2.7,6.3C118.5,296.7,117.6,298.6,115.8,300.3z"/>
	<path d="M461.1,238.6V201H262.8v11.4h17.9v32h-17.9v33.7h63.6v32h-63.6v29.1h17.9v32h-51.4v-32h19.1v-29.1h-64.8v-32h64.8v-33.7
		h-19.1v-32h19.1V201H53.3v37.6H0v204.1C0,481,31,512,69.3,512h373.3c38.3,0,69.3-31,69.3-69.3V238.6H461.1z M61.1,270.7H80V317
		H64.5v-30.9h-3.5V270.7z M81.7,424.6V440H48.9v-11.4l11.8-10.9c6.8-5.4,7.7-7.4,7.8-7.7c0-1.1-0.1-2.2-3.2-2.2
		c-2.3,0-4.1,0.5-5.4,1.6L58,411l-9.7-11.7l1.9-1.6c4.2-3.6,9.3-5.4,14.9-5.4c5.8,0,10.4,1.8,13.8,5.4c3.3,3.5,5,7.7,5,12.4
		c0,3.8-1.3,7.3-4,10.7c-0.8,1.1-1.9,2.4-3.4,3.8H81.7z M92.2,277.1c4.8-4.8,10.6-7.3,17.2-7.3c6.6,0,12.4,2.4,17.2,7.3l0,0
		c4.8,4.8,7.3,10.6,7.3,17.2c0,6.6-2.4,12.4-7.3,17.2c-4.8,4.8-10.7,7.3-17.5,7.3c-6.5,0-12.2-2.4-17-7.3
		c-4.8-4.8-7.3-10.6-7.3-17.2C85,287.7,87.4,281.9,92.2,277.1z M129.7,433.9c-4.8,4.7-10.7,7-17.4,7c-6.5,0-12.2-2.4-17-7
		c-4.8-4.7-7.3-10.5-7.3-17.3c0-6.8,2.5-12.6,7.3-17.3c4.8-4.7,10.6-7,17.2-7c6.6,0,12.4,2.4,17.2,7l0,0c4.8,4.7,7.3,10.5,7.3,17.3
		C137,423.4,134.5,429.2,129.7,433.9z M326.4,432.2H183.6v-32h142.8V432.2z M379.1,270.7H398V317h-15.5v-30.9h-3.5V270.7z
		 M399.8,424.6V440h-32.9v-11.4l11.8-10.9c6.8-5.4,7.7-7.4,7.8-7.7c0-1.1-0.1-2.2-3.2-2.2c-2.3,0-4.1,0.5-5.4,1.6L376,411l-9.7-11.7
		l1.9-1.6c4.2-3.6,9.3-5.4,14.9-5.4c5.8,0,10.4,1.8,13.8,5.4c3.3,3.5,5,7.7,5,12.4c0,3.8-1.3,7.3-4,10.7c-0.8,1.1-1.9,2.4-3.4,3.8
		H399.8z M410.3,277.1c4.8-4.8,10.6-7.3,17.2-7.3c6.6,0,12.4,2.4,17.2,7.3l0,0c4.8,4.8,7.3,10.6,7.3,17.2c0,6.6-2.4,12.4-7.3,17.2
		c-4.8,4.8-10.7,7.3-17.5,7.3c-6.5,0-12.2-2.4-17-7.3c-4.8-4.8-7.3-10.6-7.3-17.2C403,287.7,405.4,281.9,410.3,277.1z M447.7,433.9
		c-4.8,4.7-10.7,7-17.4,7c-6.5,0-12.2-2.4-17-7c-4.8-4.7-7.3-10.5-7.3-17.3c0-6.8,2.5-12.6,7.3-17.3c4.8-4.7,10.6-7,17.2-7
		c6.6,0,12.4,2.4,17.2,7l0,0c4.8,4.7,7.3,10.5,7.3,17.3C455,423.4,452.5,429.2,447.7,433.9z M442.7,0H69.3C31,0,0,31,0,69.3v90.5
		h53.3v26.8h195.1V176h-19.1v-32h19.1v-30.5h-64.8v-32h64.8V2.4h14.4v79.1h63.6v32h-63.6V144h17.9v32h-17.9v10.6h198.3v-26.8H512
		V69.3C512,31,481,0,442.7,0z M80,120.5H64.5V89.6h-3.5V74.1H80V120.5z M126.7,115c-4.8,4.8-10.7,7.3-17.5,7.3
		c-6.5,0-12.2-2.5-17-7.3c-4.8-4.8-7.3-10.6-7.3-17.2c0-6.6,2.5-12.4,7.3-17.2c4.8-4.8,10.6-7.3,17.2-7.3c6.6,0,12.4,2.4,17.2,7.3h0
		c4.8,4.8,7.3,10.6,7.3,17.2C134,104.3,131.5,110.1,126.7,115z M398,120.5h-15.5V89.6h-3.5V74.1H398V120.5z M444.7,115
		c-4.8,4.8-10.7,7.3-17.5,7.3c-6.5,0-12.2-2.5-17-7.3c-4.8-4.8-7.3-10.6-7.3-17.2c0-6.6,2.5-12.4,7.3-17.2
		c4.8-4.8,10.6-7.3,17.2-7.3c6.6,0,12.4,2.4,17.2,7.3h0c4.8,4.8,7.3,10.6,7.3,17.2C452,104.3,449.5,110.1,444.7,115z"/>
</g>
</svg>
