<?xml version="1.0" encoding="utf-8"?>
<!-- Generator: Adobe Illustrator 21.1.0, SVG Export Plug-In . SVG Version: 6.00 Build 0)  -->
<svg version="1.1" id="Layer_1" xmlns="http://www.w3.org/2000/svg" xmlns:xlink="http://www.w3.org/1999/xlink" x="0px" y="0px"
	 viewBox="0 0 512 512" style="enable-background:new 0 0 512 512;" xml:space="preserve">
<g>
	<path d="M311.1,106L373.8,1h-228l55.1,105H311.1z M325.7,233.5c26.8,13.4,50.6,37.5,50.6,37.5l95.2-172.5l-82.7-90L271,218.5
		C271,218.5,299.9,220.6,325.7,233.5z M184.3,234.5c26.5-13.2,56.7-16,56.7-16L123.2,8.5l-82.7,90L135.7,271
		C135.7,271,158.1,247.5,184.3,234.5z M256,239c-75.1,0-136,60.9-136,136s60.9,136,136,136s136-60.9,136-136S331.1,239,256,239z
		 M343.3,282l6.5,6.5l-14.4,14.4l-6.5-6.5L343.3,282z M349.5,375c0,51.6-41.9,93.5-93.5,93.5s-93.5-41.9-93.5-93.5
		s41.9-93.5,93.5-93.5S349.5,323.4,349.5,375z M315.3,262l8,4.6l-10.2,17.7l-8-4.6L315.3,262z M284.1,250.6l8.9,2.4l-5.3,19.7
		l-8.9-2.4L284.1,250.6z M250.9,247.5h9.2v20.4h-9.2V247.5L250.9,247.5z M226.9,250.8l5.3,19.7l-8.9,2.4l-5.3-19.7L226.9,250.8z
		 M195.8,262.6l10.2,17.7l-8,4.6l-10.2-17.7L195.8,262.6z M168.7,282l14.4,14.4l-6.5,6.5l-14.4-14.4L168.7,282z M147.6,307.7
		l17.7,10.2l-4.6,8L143,315.7L147.6,307.7z M133.9,338.1l19.7,5.3l-2.4,8.9l-19.7-5.3L133.9,338.1z M128.5,370.9h20.4v9.2h-20.4
		V370.9z M131.8,404.1l19.7-5.3l2.4,8.9l-19.7,5.3L131.8,404.1z M148.1,443.2l-4.6-8l17.7-10.2l4.6,8L148.1,443.2z M169.5,468.8
		l-6.5-6.5l14.4-14.4l6.5,6.5L169.5,468.8z M195.8,487.5l-8-4.6l10.2-17.7l8,4.6L195.8,487.5z M226.9,499.3l-8.9-2.4l5.3-19.7
		l8.9,2.4L226.9,499.3z M260.1,502.5h-9.2v-20.4h9.2V502.5z M284.1,499.5l-5.3-19.7l8.9-2.4l5.3,19.7L284.1,499.5z M315.3,488
		l-10.2-17.7l8-4.6l10.2,17.7L315.3,488z M342.6,468.8l-14.4-14.4l6.5-6.5l14.4,14.4L342.6,468.8z M363.9,443.2L346.2,433l4.6-8
		l17.7,10.2L363.9,443.2z M377.8,413l-19.7-5.3l2.4-8.9l19.7,5.3L377.8,413z M383.5,380.1h-20.4v-9.2h20.4V380.1z M380.5,346.9
		l-19.7,5.3l-2.4-8.9l19.7-5.3L380.5,346.9z M369,315.7l-17.7,10.2l-4.6-8l17.7-10.2L369,315.7z"/>
	<g>
		<path d="M256,303.3L256,303.3c-2,0-3.9,1-4.9,3.1l-17,34.4c-1.4,2.9-4.1,4.8-7.3,5.3l-38,5.5c-4.5,0.6-6.3,6.2-3,9.3l27.5,26.8
			c2.3,2.2,3.3,5.4,2.8,8.6l-6.4,37.8c-0.6,3.5,2.2,6.4,5.4,6.4c0.8,0,1.7-0.2,2.6-0.6l33.9-17.8c1.4-0.7,3-1.1,4.5-1.1
			s3.1,0.4,4.5,1.1l34.1,17.9c0.8,0.4,1.7,0.6,2.5,0.6c3.2,0,6-2.9,5.4-6.4l-6.6-37.8c-0.6-3.2,0.5-6.4,2.8-8.6l27.6-26.8
			c3.3-3.2,1.5-8.7-3-9.3l-38-5.5c-3.2-0.5-5.9-2.4-7.3-5.3L261,306.5C259.9,304.3,257.9,303.3,256,303.3L256,303.3z"/>
	</g>
</g>
</svg>
