<?xml version="1.0" encoding="utf-8"?>
<!-- Generator: Adobe Illustrator 21.1.0, SVG Export Plug-In . SVG Version: 6.00 Build 0)  -->
<svg version="1.1" id="Layer_1" xmlns="http://www.w3.org/2000/svg" xmlns:xlink="http://www.w3.org/1999/xlink" x="0px" y="0px"
	 viewBox="0 0 512 512" style="enable-background:new 0 0 512 512;" xml:space="preserve">
<g>
	<path d="M311.1,106L373.8,1h-228l55.1,105H311.1z M325.7,233.5c26.8,13.4,50.6,37.5,50.6,37.5l95.2-172.5l-82.7-90L271,218.5
		C271,218.5,299.9,220.6,325.7,233.5z M184.3,234.5c26.5-13.2,56.7-16,56.7-16L123.2,8.5l-82.7,90L135.7,271
		C135.7,271,158.1,247.5,184.3,234.5z M256,239c-75.1,0-136,60.9-136,136s60.9,136,136,136s136-60.9,136-136S331.1,239,256,239z
		 M343.3,282l6.5,6.5l-14.4,14.4l-6.5-6.5L343.3,282z M349.5,375c0,51.6-41.9,93.5-93.5,93.5s-93.5-41.9-93.5-93.5
		s41.9-93.5,93.5-93.5S349.5,323.4,349.5,375z M315.3,262l8,4.6l-10.2,17.7l-8-4.6L315.3,262z M284.1,250.6l8.9,2.4l-5.3,19.7
		l-8.9-2.4L284.1,250.6z M250.9,247.5h9.2v20.4h-9.2L250.9,247.5L250.9,247.5z M226.9,250.8l5.3,19.7l-8.9,2.4l-5.3-19.7
		L226.9,250.8z M195.8,262.6l10.2,17.7l-8,4.6l-10.2-17.7L195.8,262.6z M168.7,282l14.4,14.4l-6.5,6.5l-14.4-14.4L168.7,282z
		 M147.6,307.7l17.7,10.2l-4.6,8L143,315.7L147.6,307.7z M133.9,338.1l19.7,5.3l-2.4,8.9l-19.7-5.3L133.9,338.1z M128.5,370.9h20.4
		v9.2h-20.4V370.9z M131.8,404.1l19.7-5.3l2.4,8.9l-19.7,5.3L131.8,404.1z M148.1,443.2l-4.6-8l17.7-10.2l4.6,8L148.1,443.2z
		 M169.5,468.8l-6.5-6.5l14.4-14.4l6.5,6.5L169.5,468.8z M195.8,487.5l-8-4.6l10.2-17.7l8,4.6L195.8,487.5z M226.9,499.3l-8.9-2.4
		l5.3-19.7l8.9,2.4L226.9,499.3z M260.1,502.5h-9.2v-20.4h9.2V502.5z M284.1,499.5l-5.3-19.7l8.9-2.4l5.3,19.7L284.1,499.5z
		 M315.3,488l-10.2-17.7l8-4.6l10.2,17.7L315.3,488z M342.6,468.8l-14.4-14.4l6.5-6.5l14.4,14.4L342.6,468.8z M363.9,443.2
		L346.2,433l4.6-8l17.7,10.2L363.9,443.2z M377.8,413l-19.7-5.3l2.4-8.9l19.7,5.3L377.8,413z M383.5,380.1h-20.4v-9.2h20.4V380.1z
		 M380.5,346.9l-19.7,5.3l-2.4-8.9l19.7-5.3L380.5,346.9z M369,315.7l-17.7,10.2l-4.6-8l17.7-10.2L369,315.7z"/>
	<path d="M220.4,344.9c-0.6,5.3-1.8,10.6-3.5,16c4.1,4.7,7.1,10.6,9.4,16c1.2-5.3,2.9-11.2,5.9-16.6c-3.5-4.7-6.5-10.1-8.8-15.4
		c2.9-1.2,4.7-3.5,4.7-6.5c0-4.1-2.9-7.1-7.1-7.1c-3.5,0-6.5,3-6.5,7.1C214.6,342,216.9,344.9,220.4,344.9z M308,418.1H202.2
		c-1.3,0-2.6,1.3-2.6,2.6c0,1.3,1.3,2.6,2.6,2.6H308c1.3,0,2.6-1.3,2.6-2.6S309.3,418.1,308,418.1z M285.9,376.9
		c2.4-5.3,5.3-11.2,9.4-16c-1.8-5.3-2.9-10.6-3.5-16c3.5,0,5.9-3,5.9-6.5c0-4.1-2.9-7.1-6.5-7.1c-4.1,0-7.1,3-7.1,7.1
		c0,3,1.8,5.3,4.7,6.5c-2.4,5.3-5.3,10.6-8.8,15.4C282.9,365.6,284.7,371.5,285.9,376.9z M321.2,339.6c-3.5,0-6.5,3.5-6.5,7.1
		c0,1.2,0,1.8,0.6,3c-14.1,3-25.3,17.2-30.1,34.9c-1.8-20.7-12.4-37.9-26.5-43.2c2.4-1.2,4.1-3.5,4.1-6.5c0-4.1-2.9-7.1-6.5-7.1
		c-4.1,0-7.1,3-7.1,7.1c0,3,1.8,5.3,4.1,6.5c-14.1,5.3-24.7,22.5-26.5,43.2c-4.7-17.7-15.9-31.9-30.1-34.9c0.6-1.2,0.6-1.8,0.6-3
		c0-3.5-2.9-7.1-6.5-7.1c-4.1,0-7.1,3.5-7.1,7.1c0,4.1,2.9,7.1,7.1,7.1c1.8,0,2.9-0.6,4.1-1.8c8.2,12.4,11.9,50.3,11.9,50.3
		s22.2,0,49.6,0c27.1,0,48.6,0,48.6,0s3.6-37.9,11.9-50.3c1.2,1.2,2.4,1.8,4.1,1.8c4.1,0,7.1-3,7.1-7.1
		C328.3,343.1,325.3,339.6,321.2,339.6z M211.2,394.3c-0.9,0-1.3-0.4-1.3-0.9c0-0.9,0.4-1.3,1.3-1.3c0.4,0,0.9,0.4,0.9,1.3
		C212.1,393.9,211.7,394.3,211.2,394.3z M224,394.3c-0.9,0-1.3-0.4-1.3-0.9c0-0.9,0.4-1.3,1.3-1.3c0.4,0,0.9,0.4,0.9,1.3
		C224.9,393.9,224.4,394.3,224,394.3z M236.7,394.3c-0.4,0-1.3-0.4-1.3-0.9c0-0.9,0.9-1.3,1.3-1.3c0.4,0,1.3,0.4,1.3,1.3
		C238,393.9,237.1,394.3,236.7,394.3z M249.4,394.3c-0.4,0-0.9-0.4-0.9-0.9c0-0.9,0.4-1.3,0.9-1.3c0.9,0,1.3,0.4,1.3,1.3
		C250.7,393.9,250.3,394.3,249.4,394.3z M256.1,357c-1.5,0-2.7-1.2-2.7-2.7s1.2-2.7,2.7-2.7s2.7,1.2,2.7,2.7S257.6,357,256.1,357z
		 M262.6,394.3c-0.9,0-1.3-0.4-1.3-0.9c0-0.9,0.4-1.3,1.3-1.3c0.4,0,0.9,0.4,0.9,1.3C263.4,393.9,263,394.3,262.6,394.3z
		 M275.3,394.3c-0.4,0-1.3-0.4-1.3-0.9c0-0.9,0.9-1.3,1.3-1.3s1.3,0.4,1.3,1.3C276.6,393.9,275.7,394.3,275.3,394.3z M288,394.3
		c-0.4,0-0.9-0.4-0.9-0.9c0-0.9,0.4-1.3,0.9-1.3c0.9,0,1.3,0.4,1.3,1.3C289.3,393.9,288.9,394.3,288,394.3z M301.1,394.3
		c-0.9,0-1.3-0.4-1.3-0.9c0-0.9,0.4-1.3,1.3-1.3c0.4,0,0.9,0.4,0.9,1.3C302,393.9,301.6,394.3,301.1,394.3z M305.4,403.7h-98.8
		l-4,10.4h106.7L305.4,403.7z M211.8,410.2c-0.9,0-1.3-0.4-1.3-0.9c0-0.9,0.4-1.3,1.3-1.3c0.4,0,0.9,0.4,0.9,1.3
		C212.6,409.8,212.2,410.2,211.8,410.2z M226.1,410.2c-0.4,0-1.3-0.4-1.3-0.9c0-0.9,0.9-1.3,1.3-1.3s1.3,0.4,1.3,1.3
		C227.4,409.8,226.5,410.2,226.1,410.2z M240.4,410.2c-0.4,0-0.9-0.4-0.9-0.9c0-0.9,0.4-1.3,0.9-1.3c0.9,0,1.3,0.4,1.3,1.3
		C241.7,409.8,241.3,410.2,240.4,410.2z M255.1,410.2c-0.9,0-1.3-0.4-1.3-0.9c0-0.9,0.4-1.3,1.3-1.3c0.4,0,0.9,0.4,0.9,1.3
		C256,409.8,255.6,410.2,255.1,410.2z M269.4,410.2c-0.4,0-1.3-0.4-1.3-0.9c0-0.9,0.9-1.3,1.3-1.3s1.3,0.4,1.3,1.3
		C270.7,409.8,269.9,410.2,269.4,410.2z M283.7,410.2c-0.4,0-0.9-0.4-0.9-0.9c0-0.9,0.4-1.3,0.9-1.3c0.9,0,1.3,0.4,1.3,1.3
		C285,409.8,284.6,410.2,283.7,410.2z M298.5,410.2c-0.9,0-1.3-0.4-1.3-0.9c0-0.9,0.4-1.3,1.3-1.3c0.4,0,0.9,0.4,0.9,1.3
		C299.4,409.8,298.9,410.2,298.5,410.2z"/>
</g>
</svg>
