<?xml version="1.0" encoding="utf-8"?>
<!-- Generator: Adobe Illustrator 21.1.0, SVG Export Plug-In . SVG Version: 6.00 Build 0)  -->
<svg version="1.1" id="Layer_1" xmlns="http://www.w3.org/2000/svg" xmlns:xlink="http://www.w3.org/1999/xlink" x="0px" y="0px"
	 viewBox="0 0 512 512" style="enable-background:new 0 0 512 512;" xml:space="preserve">
<path d="M311.6,106L374.3,1h-228l55.1,105H311.6z M326.2,233.5c26.8,13.4,50.6,37.5,50.6,37.5L472,98.5l-82.7-90l-117.8,210
	C271.5,218.5,300.4,220.6,326.2,233.5z M184.8,234.5c26.5-13.2,56.7-16,56.7-16L123.7,8.5L41,98.5L136.2,271
	C136.2,271,158.6,247.5,184.8,234.5z M256.5,239c-75.1,0-136,60.9-136,136s60.9,136,136,136s136-60.9,136-136S331.6,239,256.5,239z
	 M343.8,282l6.5,6.5l-14.4,14.4l-6.5-6.5L343.8,282z M350,375c0,51.6-41.9,93.5-93.5,93.5S163,426.6,163,375s41.9-93.5,93.5-93.5
	S350,323.4,350,375z M315.8,262l8,4.6l-10.2,17.7l-8-4.6L315.8,262z M284.6,250.6l8.9,2.4l-5.3,19.7l-8.9-2.4L284.6,250.6z
	 M251.4,247.5h9.2v20.4h-9.2V247.5L251.4,247.5z M227.4,250.8l5.3,19.7l-8.9,2.4l-5.3-19.7L227.4,250.8z M196.3,262.6l10.2,17.7
	l-8,4.6l-10.2-17.7L196.3,262.6z M169.2,282l14.4,14.4l-6.5,6.5l-14.4-14.4L169.2,282z M148.1,307.7l17.7,10.2l-4.6,8l-17.7-10.2
	L148.1,307.7z M134.4,338.1l19.7,5.3l-2.4,8.9L132,347L134.4,338.1z M129,370.9h20.4v9.2H129V370.9z M132.3,404.1l19.7-5.3l2.4,8.9
	l-19.7,5.3L132.3,404.1z M148.6,443.2l-4.6-8l17.7-10.2l4.6,8L148.6,443.2z M170,468.8l-6.5-6.5l14.4-14.4l6.5,6.5L170,468.8z
	 M196.3,487.5l-8-4.6l10.2-17.7l8,4.6L196.3,487.5z M227.4,499.3l-8.9-2.4l5.3-19.7l8.9,2.4L227.4,499.3z M260.6,502.5h-9.2v-20.4
	h9.2V502.5z M284.6,499.5l-5.3-19.7l8.9-2.4l5.3,19.7L284.6,499.5z M315.8,488l-10.2-17.7l8-4.6l10.2,17.7L315.8,488z M343.1,468.8
	l-14.4-14.4l6.5-6.5l14.4,14.4L343.1,468.8z M364.4,443.2L346.7,433l4.6-8l17.7,10.2L364.4,443.2z M378.3,413l-19.7-5.3l2.4-8.9
	l19.7,5.3L378.3,413z M384,380.1h-20.4v-9.2H384V380.1z M381,346.9l-19.7,5.3l-2.4-8.9l19.7-5.3L381,346.9z M369.5,315.7l-17.7,10.2
	l-4.6-8l17.7-10.2L369.5,315.7z M256.5,302.8c-39.9,0-72.3,32.3-72.3,72.3s32.3,72.3,72.3,72.3c39.9,0,72.3-32.3,72.3-72.3
	S296.4,302.8,256.5,302.8z"/>
</svg>
