<?xml version="1.0" encoding="utf-8"?>
<!-- Generator: Adobe Illustrator 21.1.0, SVG Export Plug-In . SVG Version: 6.00 Build 0)  -->
<svg version="1.1" id="Layer_2" xmlns="http://www.w3.org/2000/svg" xmlns:xlink="http://www.w3.org/1999/xlink" x="0px" y="0px"
	 viewBox="0 0 512 512" style="enable-background:new 0 0 512 512;" xml:space="preserve">
<style type="text/css">
	.st0{fill:#040202;}
</style>
<path class="st0" d="M229.2,49.3l26.8-48l26.8,48v6.3h-53.6V49.3z M216.3,241.4C155.7,248.2,102,276,63,317.9
	C23.9,276,0,219.9,0,158.7C0,98,23.9,41.9,63,0c39.1,41.9,92.7,70.3,153.4,76.5V241.4z M286.8,492c0,1.3-0.5,2.4-1.4,3.3
	c-0.7,0.7-1.6,1.2-2.6,1.3v10.9c0,2.5-2,4.5-4.5,4.5h-44.6c-2.5,0-4.5-2-4.5-4.5v-10.9c-2.3-0.3-4-2.2-4-4.6c0-1.3,0.5-2.4,1.4-3.3
	c0.7-0.7,1.6-1.2,2.6-1.3v-4.9c-2.3-0.3-4-2.2-4-4.6c0-1.3,0.5-2.4,1.4-3.3c0.7-0.7,1.6-1.2,2.6-1.3V74.8h53.6v398.5
	c2.3,0.3,4,2.2,4,4.6c0,1.3-0.5,2.4-1.4,3.3c-0.7,0.7-1.6,1.2-2.6,1.3v4.9C285.1,487.7,286.8,489.6,286.8,492z M285.5,68.5
	c-0.8,0.8-2,1.4-3.3,1.4h-52.4c-2.5,0-4.6-2.1-4.6-4.6c0-1.3,0.5-2.4,1.4-3.3c0.8-0.8,2-1.3,3.3-1.3h52.4c2.5,0,4.6,2.1,4.6,4.6
	C286.8,66.5,286.3,67.7,285.5,68.5z M449,317.9c-39.1-41.9-92.7-69.7-153.4-76.5V76.5C356.3,70.3,410,41.9,449,0
	c39.1,41.9,63,98,63,158.7C512,219.9,488.1,276,449,317.9z"/>
</svg>
