<?xml version="1.0" encoding="utf-8"?>
<!-- Generator: Adobe Illustrator 22.0.1, SVG Export Plug-In . SVG Version: 6.00 Build 0)  -->
<svg version="1.1" id="Layer_1" xmlns="http://www.w3.org/2000/svg" xmlns:xlink="http://www.w3.org/1999/xlink" x="0px" y="0px"
	 viewBox="0 0 512 512" style="enable-background:new 0 0 512 512;" xml:space="preserve">
<path id="FILL_1_" d="M270.5,32.9l-22.4-14.9c-3.5-2.3-8.3-1.3-10.5,2.3l-77.2,123c-2.3,3.6-1.1,8.3,2.6,10.5l23.7,14L6.5,447.6
	c-12.3,19.6-6.4,45.5,13.2,57.9l0,0c19.7,12.4,45.7,6.5,58-13.2l176-273.2c36.3,30.9,81.9,85,107.2,124.2c3.1,3.7,6.1,5.7,10.1,3.5
	C453,303,512,186,512,121.9c0.2-3.7-2.4-7.1-6.2-7.6C459,108.6,396,93,345.7,71.3L360.2,48c2.1-3.3,1.1-7.6-2.2-9.7L298.7,1.1
	c-3.3-2.1-7.6-1.1-9.7,2.2L270.5,32.9z"/>
</svg>
