<?xml version="1.0" encoding="utf-8"?>
<!-- Generator: Adobe Illustrator 19.0.0, SVG Export Plug-In . SVG Version: 6.00 Build 0)  -->
<svg version="1.1" id="Layer_4" xmlns="http://www.w3.org/2000/svg" xmlns:xlink="http://www.w3.org/1999/xlink" x="0px" y="0px"
	 viewBox="0 0 386.6 512" style="enable-background:new 0 0 386.6 512;" xml:space="preserve">
<path id="XMLID_3_" d="M192.8,0c40.3-0.1,72.9,32.6,72.9,73c0,40.2-32.7,72.9-72.9,73c-40.3,0-73-32.7-73-73
	C119.8,32.6,152.4-0.1,192.8,0z M108.1,497.6l-55.3-71.3c-15.6-16.1-20-45.6-3.1-62.4c0-0.1,52.9-52.9,52.9-52.9l60.7,61.9
	l-33.2,36.1l35.7,41.5c14,16.2,11.4,40.9-5.6,53.9l0,0C143.9,516.7,120.7,513.7,108.1,497.6z M334.5,426.3l-56,71.1
	c-12.7,17.2-37.3,20.1-53.7,6.5l0,0c-15.9-13.1-18.1-36.8-4.9-52.6l38.8-44.1L224,372.9l60.8-61.9c0,0,52.9,52.7,53.1,52.9
	C354.6,380.6,350.3,410.2,334.5,426.3z M329.2,298l-57.4-56.6V287H113.7v-45.4l-56.1,55.2C44.4,310,23,309.8,9.9,296.5l-0.3-0.3
	c-13-13.2-12.9-34.4,0.2-47.5l103.8-104c5.1-5,10.5-8.9,17.3-11.3c15.7,16,37.6,26,61.9,26c24.1,0,46-9.9,61.7-25.9
	c6.6,2.3,12.1,6.1,17.2,11.1l105.1,105.3c13.1,13.1,13.2,34.3,0.1,47.5l0,0C363.8,310.9,342.4,311,329.2,298z"/>
</svg>
