<?xml version="1.0" encoding="utf-8"?>
<!-- Generator: Adobe Illustrator 19.0.0, SVG Export Plug-In . SVG Version: 6.00 Build 0)  -->
<svg version="1.1" id="Layer_6" xmlns="http://www.w3.org/2000/svg" xmlns:xlink="http://www.w3.org/1999/xlink" x="0px" y="0px"
	 viewBox="0 0 507.3 512" style="enable-background:new 0 0 507.3 512;" xml:space="preserve">
<style type="text/css">
	.st0{fill:#010101;}
</style>
<g id="XMLID_5_">
	<path id="XMLID_10_" class="st0" d="M404.4,105.4c-2.8-2.9-5.8-5.6-8.9-8.2V228H395c0.2,1.2,0.3,2.3,0.5,3.5l0,1.3
		c-1.7,26-13.4,49.3-31.4,66.2c-17.8,16.7-41.8,27-68,27h-85.4c-26.2,0-50.1-10.3-68-27c-17.9-16.8-29.7-40.2-31.4-66.2V97.1
		c-3,2.6-6,5.4-8.9,8.2c-29.4,29.4-47.7,70-47.7,114.7v285.2c0,2.7,1.1,5.2,2.9,7l0,0l0,0c1.8,1.8,4.3,2.9,7,2.9h360
		c7.5,0,14.3-3.1,19.3-8c5-4.9,8-11.8,8-19.3V220.1C452.1,175.4,433.8,134.8,404.4,105.4z M345.4,186c10.4,0,20.1,3.2,28.1,8.7V81.1
		c-24.5-14.9-53.2-23.5-83.8-23.5h-72.4c-30.6,0-59.3,8.6-83.8,23.5v113.5c8-5.5,17.7-8.7,28.1-8.7H345.4z M244.9,227.2V208h-83.3
		c-7,0-13.8,2.6-19,7.4c-5,4.5-8.2,10.6-9.1,17.3c1.5,19.2,10.2,37,24.4,50.3c14.5,13.6,33.3,21.1,52.9,21.1h85.4
		c19.7,0,38.5-7.5,52.9-21.1c14.2-13.3,22.8-31.1,24.4-50.3c-0.9-6.6-4.1-12.7-9.1-17.3c-5.3-4.8-12-7.4-19-7.4h-83v19.3
		c4.9,1.5,9.3,4.1,12.8,7.7c5.5,5.5,9,13.2,9,21.7c0,8.4-3.4,16.1-9,21.6c-5.5,5.5-13.2,9-21.6,9c-8.4,0-16.1-3.4-21.6-9
		c-5.5-5.5-9-13.2-9-21.6c0-8.5,3.4-16.1,9-21.7C235.4,231.3,239.9,228.6,244.9,227.2z"/>
	<path id="XMLID_79_" class="st0" d="M46.9,475.4H34.7C15.5,475.4,0,459.8,0,440.6v-87.7c0-17.3,7.1-33,18.5-44.4
		c7.8-7.8,17.5-13.5,28.4-16.4V475.4z M307.5,50.6c-2.9-5.2-7-9.7-11.8-13.4C283.8,28.1,268.3,24,253.5,24
		c-14.8,0-30.3,4.1-42.2,13.3c-4.8,3.7-9,8.2-11.8,13.4c-9.2,1-18.2,2.7-27,5.1c2.8-15,11.9-28,24.3-37.5C212.8,5.9,233.4,0,253.5,0
		c20.1,0,40.7,5.9,56.7,18.2c12.4,9.5,21.5,22.5,24.3,37.5C325.7,53.3,316.7,51.6,307.5,50.6z M507.1,440.6
		c0,19.2-15.5,34.7-34.7,34.7h-12.2V292.1c10.9,2.9,20.7,8.6,28.4,16.4c11.4,11.4,18.5,27.1,18.5,44.4V440.6z"/>
</g>
</svg>
