<?xml version="1.0" encoding="utf-8"?>
<!-- Generator: Adobe Illustrator 21.1.0, SVG Export Plug-In . SVG Version: 6.00 Build 0)  -->
<svg version="1.1" id="Layer_1" xmlns="http://www.w3.org/2000/svg" xmlns:xlink="http://www.w3.org/1999/xlink" x="0px" y="0px"
	 viewBox="0 0 512 512" style="enable-background:new 0 0 512 512;" xml:space="preserve">
<g>
	<path d="M124.9,178.2c0-0.5,0-1,0-1.6c0-78.9,58.6-142.8,130.9-142.8c72.2,0,130.9,63.9,130.9,142.8c0,0.5,0,1,0,1.6h30
		c0-0.7,0-1.3,0-2C416.6,79,344.3,0.1,255.1,0.1S93.6,79,93.6,176.3c0,0.7,0,1.3,0,2h31.3V178.2z"/>
	<path d="M511.3,433.6l-22.7-179c-2-21.7-18.8-38.3-38.8-38.3H342.3c-23.1,22.3-53.4,35.8-86.7,35.8s-63.6-13.5-86.7-35.8H62.1
		c-20,0-36.8,16.6-38.8,38.3l-22.7,179c-5.1,40.9,24,77.4,61.8,77.4h387.1C487.4,511,516.6,474.5,511.3,433.6z M320.5,339.6
		c0,11.3-8.4,20.5-18.8,20.5h-92.1c-10.4,0-18.8-9.2-18.8-20.5l0,0c0-11.3,8.4-20.5,18.8-20.5h92.2
		C312.2,319.1,320.5,328.3,320.5,339.6L320.5,339.6z"/>
</g>
</svg>
