<?xml version="1.0" encoding="utf-8"?>
<!-- Generator: Adobe Illustrator 21.1.0, SVG Export Plug-In . SVG Version: 6.00 Build 0)  -->
<svg version="1.1" id="_x36_2" xmlns="http://www.w3.org/2000/svg" xmlns:xlink="http://www.w3.org/1999/xlink" x="0px" y="0px"
	 viewBox="0 0 566.1 512" style="enable-background:new 0 0 566.1 512;" xml:space="preserve">
<path d="M488.3,177.3c16-2.3,28.4-16.2,28.4-32.8c0-13.3-7.8-24.7-19-30c-0.1,0-0.2-0.1-0.2-0.1c-0.8-0.4-1.6-0.7-2.5-1
	c-0.2-0.1-0.4-0.2-0.6-0.2c-0.8-0.3-1.5-0.5-2.3-0.7c-0.3-0.1-0.6-0.2-0.9-0.2c-0.7-0.2-1.4-0.3-2.1-0.4c-0.2,0-0.4-0.1-0.6-0.1
	c-0.3,0-0.7-0.1-1-0.1c-0.2,0-0.4-0.1-0.6-0.1c-1-0.1-2.1-0.2-3.1-0.2c0,0-0.1,0-0.2,0l0,0c-1.1,0-2.2,0.1-3.2,0.2
	c-0.1,0-0.1,0-0.2,0c-1,0.1-1.9,0.2-2.9,0.4c-0.3,0-0.6,0.1-0.8,0.2c-0.6,0.2-1.3,0.3-2,0.5c-0.6,0.2-1.2,0.4-1.8,0.6
	c-0.3,0.1-0.5,0.2-0.8,0.3c-12.6,4.7-21.5,16.8-21.5,31.1c0,0.6,0.1,1.2,0.1,1.8c-0.1,18.6-15.1,33.8-33.6,33.8
	c-12,0-22.5-6.8-28.4-16.6c-6.7-11.2-18.5-18.3-31.4-18.3h-23.6c-7-10.8-17.5-19.2-29.9-23.4v-19c11.1-2.4,19.3-12.2,19.3-24
	c0-12.6-9.6-23-21.9-24.4l-5.4-18.1c1.7-2.4,2.8-5.3,2.8-8.5c0-6.1-3.9-11.4-9.4-13.6L284.5,0h-3.8l-4.1,14.1
	c-5.5,2.3-9.4,7.5-9.4,13.6c0,3.1,1,6.1,2.8,8.5l-5.4,18.1c-12.3,1.3-21.9,11.7-21.9,24.4c0,11.8,8.3,21.6,19.3,24v20.5
	c-10.9,4.6-20,12.4-26.3,22.3v-0.3h-23.8c-13,0-24.7,7.1-31.4,18.3c-5.9,9.8-16.4,16.6-28.4,16.6c-18.5,0-33.5-15.1-33.6-33.8
	c0-0.6,0.1-1.2,0.1-1.8c0-14.2-9-26.3-21.5-31.1c-0.3-0.1-0.5-0.2-0.8-0.3c-0.6-0.2-1.2-0.4-1.8-0.6c-0.6-0.2-1.3-0.4-2-0.5
	c-0.3-0.1-0.6-0.1-0.8-0.2c-0.9-0.2-1.9-0.3-2.9-0.4c-0.1,0-0.1,0-0.2,0c-1.1-0.1-2.1-0.2-3.2-0.2l0,0c-0.1,0-0.1,0-0.2,0
	c-1,0-2,0-3.1,0.2c-0.2,0-0.4,0-0.6,0.1c-0.3,0-0.7,0.1-1,0.1c-0.2,0-0.4,0.1-0.6,0.1c-0.7,0.1-1.4,0.3-2.2,0.4
	c-0.3,0.1-0.6,0.2-0.9,0.2c-0.8,0.2-1.6,0.4-2.3,0.7c-0.2,0.1-0.4,0.2-0.6,0.2c-0.8,0.3-1.7,0.6-2.5,1c-0.1,0-0.2,0.1-0.2,0.1
	c-11.2,5.3-19,16.7-19,30c0,16.8,12.5,30.7,28.8,32.9C66,209.9,1.2,351.4,0,353.8C2.8,398,39.3,433,84,433s81.2-35,84-79.2
	c0.1-1.6-65.3-143.1-80.7-176.3c2-0.1,4-0.4,6-0.9c8.5,15,22.4,30.6,42,30.6h100.6c4.2,6.6,9.7,12.3,16.1,16.7V423h-26.6
	c-19.7,0-35.7,15.6-36.4,35.1h-15.6c-22.8,0-41.2,18.4-41.2,41.2c0,4.3,0,12.8,0,12.8h301.3c0,0,0-8.4,0-12.8
	c0-22.8-18.4-41.2-41.2-41.2h-23.7c-1-19.5-17-35.1-36.7-35.1h-18.4V226.5c8.1-4.7,14.9-11.3,19.9-19.1h100.2
	c19.6,0,33.4-15.6,42-30.6c2.1,0.5,4.3,0.8,6.6,0.9c-14.9,33.3-77.6,174.6-77.5,176.1c2.7,44.2,37.8,79.2,80.7,79.2s78-35,80.7-79.2
	C564.9,351.5,502.7,210,488.3,177.3z M156.6,353.9H11.2L84,193.4L156.6,353.9z M85.4,158.5c-7.7,0-14-6.3-14-14s6.3-14,14-14
	c7.8,0,14,6.3,14,14S93.1,158.5,85.4,158.5z M275.5,150.5l7.5,29l7.7-29.8c12.2,2.8,21.2,13.7,21.2,26.7c0,15.1-12.3,27.4-27.4,27.4
	s-27.4-12.3-27.4-27.4C257.2,164.4,264.8,154.3,275.5,150.5z M469.4,144.5c0-7.7,6.3-14,14-14s14,6.3,14,14s-6.3,14-14,14
	S469.4,152.2,469.4,144.5z M415.5,353.8l69.8-160.5l70,160.5H415.5z"/>
</svg>
