<?xml version="1.0" encoding="utf-8"?>
<!-- Generator: Adobe Illustrator 21.1.0, SVG Export Plug-In . SVG Version: 6.00 Build 0)  -->
<svg version="1.1" id="Layer_3" xmlns="http://www.w3.org/2000/svg" xmlns:xlink="http://www.w3.org/1999/xlink" x="0px" y="0px"
	 viewBox="0 0 512 512" style="enable-background:new 0 0 512 512;" xml:space="preserve">
<g>
	<path d="M472.4,118.6c-32.5-52-83.9-91.6-147.2-109.2C261.8-8.2,197.1,0,142.6,26.7c13.6,60,12.1,127.7-7,195.7
		c-19,68-52.8,126.7-95.6,171c32.7,51.4,83.9,91.6,147.2,109.2s128,9.5,182.6-17.2c-13.6-60-12.1-127.4,7-195.7
		C395.9,221.4,429.6,162.9,472.4,118.6z"/>
	<path d="M92.9,59.2c-39.2,31.7-69,75.8-83.6,128c-14.6,52.2-11.4,105.5,5.1,152.7c27.4-38,49.8-82.9,63.9-133.5
		S96.5,105.8,92.9,59.2z"/>
	<path d="M498,172.1c-27.4,38-49.9,83.2-63.9,133.5C420,355.9,415.2,406,419.5,452.8c39.2-31.7,69-75.8,83.6-128
		C517.7,272.7,515.1,219.5,498,172.1z"/>
</g>
</svg>
