<?xml version="1.0" encoding="utf-8"?>
<!-- Generator: Adobe Illustrator 21.1.0, SVG Export Plug-In . SVG Version: 6.00 Build 0)  -->
<svg version="1.1" id="Layer_1" xmlns="http://www.w3.org/2000/svg" xmlns:xlink="http://www.w3.org/1999/xlink" x="0px" y="0px"
	 viewBox="0 0 512 512" style="enable-background:new 0 0 512 512;" xml:space="preserve">
<path d="M256,0C114.6,0,0,114.6,0,256c0,141.4,114.6,256,256,256c141.4,0,256-114.6,256-256C512,114.6,397.4,0,256,0z M256,72.7
	c40.1,0,77.3,12.9,107.4,34.8l-256,256C85.5,333.2,72.7,296.1,72.7,256C72.7,154.7,154.7,72.7,256,72.7z M256,439.3
	c-35,0-67.6-9.8-95.4-26.8l252-252c17,27.8,26.8,60.5,26.8,95.4C439.3,357.3,357.3,439.3,256,439.3z"/>
</svg>
