<?xml version="1.0" encoding="utf-8"?>
<!-- Generator: Adobe Illustrator 21.1.0, SVG Export Plug-In . SVG Version: 6.00 Build 0)  -->
<svg version="1.1" id="Layer_1" xmlns="http://www.w3.org/2000/svg" xmlns:xlink="http://www.w3.org/1999/xlink" x="0px" y="0px"
	 viewBox="0 0 640 512" style="enable-background:new 0 0 640 512;" xml:space="preserve">
<path d="M19.1,96C8.6,96,0,104.6,0,115.1v282.6c0,10.5,8.6,19.1,19.1,19.1H166V96H19.1z M620.9,96H474v320.8h146.9
	c10.5,0,19.1-8.6,19.1-19.1V115.1C640,104.6,631.4,96,620.9,96z M198,96v320.8h244V96H198z M272,370c-14.4,0-26-11.6-26-26
	s11.6-26,26-26s26,11.6,26,26S286.4,370,272,370z M272,283c-14.4,0-26-11.6-26-26s11.6-26,26-26s26,11.6,26,26S286.4,283,272,283z
	 M272,196c-14.4,0-26-11.6-26-26s11.6-26,26-26s26,11.6,26,26S286.4,196,272,196z M368,370c-14.4,0-26-11.6-26-26s11.6-26,26-26
	s26,11.6,26,26S382.4,370,368,370z M368,283c-14.4,0-26-11.6-26-26s11.6-26,26-26s26,11.6,26,26S382.4,283,368,283z M368,196
	c-14.4,0-26-11.6-26-26s11.6-26,26-26s26,11.6,26,26S382.4,196,368,196z"/>
</svg>
