<?xml version="1.0" encoding="utf-8"?>
<!-- Generator: Adobe Illustrator 22.0.1, SVG Export Plug-In . SVG Version: 6.00 Build 0)  -->
<svg version="1.1" id="Layer_1" xmlns="http://www.w3.org/2000/svg" xmlns:xlink="http://www.w3.org/1999/xlink" x="0px" y="0px"
	 viewBox="0 0 512 512" style="enable-background:new 0 0 512 512;" xml:space="preserve">
<g>
	<polygon points="14.8,441.4 29.2,455.8 7,478 9.9,480.8 0,490.7 21.1,511.8 31,501.9 33.5,504.4 55.5,482.4 66.6,493.6 77.5,482.7 
		25.5,430.8 	"/>
	<polygon points="290.1,166.2 304.4,180.5 282.2,202.8 284.8,205.5 206,284.3 203.4,281.6 181.1,303.9 166.9,289.7 155.9,300.8 
		208.2,353.1 219.1,342.2 207.4,330.5 229.8,308.1 227.1,305.4 305.9,226.6 308.6,229.3 330.7,207.2 341.9,218.3 352.9,207.3 
		301,155.3 	"/>
	<polygon points="511.8,21.1 490.7,0 481.2,9.4 478.4,6.6 456.2,28.8 441.8,14.5 430.8,25.5 482.7,77.5 493.6,66.6 482.4,55.5 
		504.9,33 502.4,30.5 	"/>
	<path d="M63.4,352.6c-8.2-8.2-21.5-8.2-29.7,0l-14.1,14.1c-8.2,8.2-8.2,21.5,0,29.7l101,101c8.2,8.2,21.5,8.2,29.7,0l14.1-14.1
		c8.2-8.2,8.2-21.5,0-29.7L63.4,352.6z"/>
	<path d="M396.5,19.4c-8.2-8.2-21.5-8.2-29.7,0l-14.1,14.1c-8.2,8.2-8.2,21.5,0,29.7l101,101c8.2,8.2,21.5,8.2,29.7,0l14.1-14.1
		c8.2-8.2,8.2-21.5,0-29.7L396.5,19.4z"/>
	<path d="M102.9,276.3c-8.2-8.2-21.5-8.2-29.7,0l-14.1,14.1c-8.2,8.2-8.2,21.5,0,29.7l137.7,137.7c8.2,8.2,21.5,8.2,29.7,0
		l14.1-14.1c8.2-8.2,8.2-21.5,0-29.7L102.9,276.3z"/>
	<path d="M320.2,59c-8.2-8.2-21.5-8.2-29.7,0l-14.1,14.1c-8.2,8.2-8.2,21.5,0,29.7l137.7,137.7c8.2,8.2,21.5,8.2,29.7,0l14.1-14.1
		c8.2-8.2,8.2-21.5,0-29.7L320.2,59z"/>
</g>
</svg>
