<?xml version="1.0" encoding="utf-8"?>
<!-- Generator: Adobe Illustrator 21.1.0, SVG Export Plug-In . SVG Version: 6.00 Build 0)  -->
<svg version="1.1" id="Layer_2" xmlns="http://www.w3.org/2000/svg" xmlns:xlink="http://www.w3.org/1999/xlink" x="0px" y="0px"
	 viewBox="0 0 512 512" style="enable-background:new 0 0 512 512;" xml:space="preserve">
<path d="M507,128.5L456.5,78c4.3-4.3,4.1-11.3-0.3-15.7l-6.6-6.6c-4.4-4.4-11.4-4.5-15.7-0.3L383.3,4.9c-7.2-7.2-19.9-6.3-28.2,2
	L320.9,41c-8.3,8.3-9.3,21-2,28.2l48.6,48.6l-7.1,7.1l-69.6-69.6c-7.2-7.2-19.9-6.3-28.2,2l-34.1,34.1c-8.4,8.4-9.3,21.1-2.1,28.3
	l69.6,69.5L189.5,295.5L119.9,226c-7.2-7.2-19.9-6.3-28.2,2l-34.2,34.1c-8.3,8.3-9.3,21-2,28.2l69.8,69.8l-7,7l-48.7-48.8
	c-7.2-7.2-19.9-6.3-28.2,2L6.5,355.1c-8.1,8.1-8.8,20.5-1.5,27.7l50.5,50.5c-4.3,4.3-4.1,11.3,0.3,15.7l6.6,6.6
	c4.4,4.4,11.4,4.5,15.7,0.3l50.7,50.6c7.2,7.2,19.9,6.3,28.2-2l34.2-34.1c8.3-8.3,9.3-21,2-28.2l-44.9-45l7.1-7.1l65.8,65.8
	c7.2,7.2,19.9,6.3,28.2-2l34.1-34.1c8.4-8.4,9.3-21.1,2.1-28.3l-66.1-66L326,219.3l66.1,66c7.2,7.2,19.9,6.3,28.2-2l34.2-34.1
	c8.3-8.3,9.3-21,2-28.2l-66-66l7.2-7.2l45,45c7.2,7.2,19.9,6.3,28.2-2l34.7-34.7C513.5,148.1,514.2,135.7,507,128.5z"/>
</svg>
