<?xml version="1.0" encoding="utf-8"?>
<!-- Generator: Adobe Illustrator 21.1.0, SVG Export Plug-In . SVG Version: 6.00 Build 0)  -->
<svg version="1.1" id="Layer_2" xmlns="http://www.w3.org/2000/svg" xmlns:xlink="http://www.w3.org/1999/xlink" x="0px" y="0px"
	 viewBox="0 0 550 512" style="enable-background:new 0 0 550 512;" xml:space="preserve">
<g id="_x33_2">
	<path d="M111.3,100c-7.1,0-13,5.1-13,11.3V400c0,6.2,5.8,11.3,13,11.3h59.6c7.2,0,13-5.1,13-11.3l-0.1-129.9l182.3,0.1l0.1,129.9
		c0,6.2,5.8,11.3,13,11.3l59.6,0.1c7.1,0,13-5.1,13-11.3V111.4c0-6.2-5.8-11.3-13-11.3h-59.6c-7.2,0-13,5.1-13,11.3l0.1,133
		l-182.3-0.1l-0.1-133c0-6.2-5.8-11.3-12.9-11.3L111.3,100L111.3,100z"/>
	<path d="M79.4,118.1H19.1c-7,0-12.6,5.1-12.5,11.3v116.5c-3.7,0-6.6,3.1-6.6,6.9v5.7c0,3.8,3,6.8,6.6,6.9L6.7,382
		c0,6.2,5.8,11.3,13,11.3l59.6,0.1c7.1,0,13-5.1,13-11.3l0.1-252.7C92.3,123.1,86.4,118.1,79.4,118.1L79.4,118.1z"/>
	<path d="M470.8,118.2c-7.1,0-13,5.1-13,11.3l0.1,252.6c0,6.2,5.8,11.3,13,11.3h60.1c6.8-0.1,12.4-5.1,12.4-11.3V265.5
		c3.7,0,6.6-3.1,6.6-6.9V253c0-3.8-3-6.8-6.6-6.9l-0.1-116.6c0-6.2-5.8-11.3-13-11.3L470.8,118.2L470.8,118.2z"/>
</g>
</svg>
