<?xml version="1.0" encoding="utf-8"?>
<!-- Generator: Adobe Illustrator 21.1.0, SVG Export Plug-In . SVG Version: 6.00 Build 0)  -->
<svg version="1.1" id="Layer_1" xmlns="http://www.w3.org/2000/svg" xmlns:xlink="http://www.w3.org/1999/xlink" x="0px" y="0px"
	 viewBox="0 0 512 512" style="enable-background:new 0 0 512 512;" xml:space="preserve">
<path d="M30.8,448.5H0V64.8h30.8V448.5z M70.1,448.5H52.7V64.8h17.4V448.5z M108.3,448.5H90.8V64.8h17.4V448.5z M141,448.5h-11V64.8
	h11V448.5z M177.9,448.5h-17.4V64.8h17.4V448.5z M223.8,448.5h-24.2V64.8h24.2V448.5z M288.8,448.5h-36.1V64.8h36.1V448.5z
	 M327.3,448.5h-17.4V64.8h17.4V448.5z M381,448.5h-28.9V64.8H381V448.5z M417.3,448.5h-17.4V64.8h17.4V448.5z M450.1,448.5h-11V64.8
	h11V448.5z M512,448.5h-36.1V64.8H512V448.5z"/>
</svg>
