<?xml version="1.0" encoding="utf-8"?>
<!-- Generator: Adobe Illustrator 21.1.0, SVG Export Plug-In . SVG Version: 6.00 Build 0)  -->
<svg version="1.1" id="fill" xmlns="http://www.w3.org/2000/svg" xmlns:xlink="http://www.w3.org/1999/xlink" x="0px" y="0px"
	 viewBox="0 0 524.3 512" style="enable-background:new 0 0 524.3 512;" xml:space="preserve">
<g>
	<rect x="169.1" y="122.8" transform="matrix(0.6825 -0.7309 0.7309 0.6825 -35.0241 169.3138)" width="16.6" height="4.3"/>
	<rect x="168.3" y="129.5" transform="matrix(0.6825 -0.7309 0.7309 0.6825 -37.6467 176.6948)" width="32.4" height="4.3"/>
	<path d="M522.9,372.7l0-0.2c-3.7-28.8-11-57.1-18.1-84.4c-11.8-45.8-23-89.2-17.8-133c7.4-5.9,16.3-14.4,21-25.7
		c3.5-8.7,5.3-17.7,5.3-26.3v-33c0-13-2.8-23-8.6-30.8c-6.7-8.9-15.7-13.1-24.4-16.3l-0.9-0.3l-0.9-0.2
		c-34.2-5.8-69.2-11.3-103-16.6c-12.2-1.9-24.4-3.8-36.6-5.7L338.1,0h-0.8c-2,0-2.6,0.1-5.2,0.4l-0.6,0.1L134.2,53.8
		c-13.3,3.6-21.6,17-18.9,30.5l18.7,91.6c1.7,8.3,7.8,15.2,15.8,17.9l189.8,64.4c5.2,1.7,10.9,1.3,15.8-1.1c1,6.5,2.1,13.9,3.3,21.8
		l-0.6,0.1c-6.4,1.6-10.4,8.1-8.8,14.5l5.7,23.5c1.2,5.1,5.6,8.6,10.5,9.1c2.9,20.8,5.3,38.7,5.8,45.9c-1.4,1.3-3,2-5.6,3.3
		c-5.4,2.5-12.7,6-20.9,16.2c-9.8,12.3-6.3,35.3-0.4,51.3l0.2,0.4c22.1,51.7,44.7,69.1,89.5,69.1c8.7,0,18.9-0.6,33-1.9l0.9-0.1
		l0.9-0.2c24.4-6.8,42.4-28,50.4-59.9l0.1-0.6C524.3,424.3,525.5,397,522.9,372.7z M171.1,160l-10.7-54.8l152.8,46.6l8.4,58.9
		L171.1,160z"/>
	<rect y="260.6" width="147.5" height="38.1"/>
	<rect y="309.7" width="147.5" height="22.2"/>
	<rect y="348.5" width="147.5" height="32.7"/>
	<rect y="392.2" width="147.5" height="19.3"/>
	<rect y="422.7" width="147.5" height="46.6"/>
	<rect y="480.4" width="147.5" height="26.3"/>
	<rect y="233.8" width="147.5" height="11.3"/>
</g>
</svg>
