<?xml version="1.0" encoding="utf-8"?>
<!-- Generator: Adobe Illustrator 22.0.1, SVG Export Plug-In . SVG Version: 6.00 Build 0)  -->
<svg version="1.1" id="Layer_1" xmlns="http://www.w3.org/2000/svg" xmlns:xlink="http://www.w3.org/1999/xlink" x="0px" y="0px"
	 viewBox="0 0 512 512" style="enable-background:new 0 0 512 512;" xml:space="preserve">
<g>
	<polygon points="71,72 145,72 145,0 71,0 -1,0 -1,72 -1,146 71,146 	"/>
	<polygon points="71,366 -1,366 -1,440 -1,512 71,512 145,512 145,440 71,440 	"/>
	<polygon points="440,440 366,440 366,512 440,512 512,512 512,440 512,366 440,366 	"/>
	<polygon points="440,0 366,0 366,72 440,72 440,146 512,146 512,72 512,0 	"/>
	<rect x="110.1" y="109" width="63.8" height="295"/>
	<rect x="353.6" y="109" width="46.4" height="295"/>
	<rect x="313" y="109" width="29" height="295"/>
	<rect x="202.9" y="109" width="40.6" height="295"/>
	<rect x="266.7" y="109" width="23.2" height="295"/>
</g>
</svg>
