<?xml version="1.0" encoding="utf-8"?>
<!-- Generator: Adobe Illustrator 21.1.0, SVG Export Plug-In . SVG Version: 6.00 Build 0)  -->
<svg version="1.1" id="Layer_1" xmlns="http://www.w3.org/2000/svg" xmlns:xlink="http://www.w3.org/1999/xlink" x="0px" y="0px"
	 viewBox="0 0 512 512" style="enable-background:new 0 0 512 512;" xml:space="preserve">
<path d="M0,0h22.5v512H0V0z M40.7,0h22.1v512H40.7V0z M77.9,0h14.7v512H77.9V0z M111.2,0h22.5v512h-22.5V0z M158.6,0h11.6v512h-11.6
	V0z M181.1,0h33v512h-33V0z M233.7,0h11.2v512h-11.2V0z M256.2,0h10.9v512h-10.9V0z M296.2,0h10.9v512h-10.9V0z M322.9,0h21.8v512
	h-21.8V0z M378.6,0h10.9v512h-10.9V0z M415.1,0h21.1v512h-21.1V0z M455.2,0h11.2v512h-11.2V0z M494.1,0H512v512h-17.9V0z"/>
</svg>
