<?xml version="1.0" encoding="utf-8"?>
<!-- Generator: Adobe Illustrator 21.1.0, SVG Export Plug-In . SVG Version: 6.00 Build 0)  -->
<svg version="1.1" id="Layer_3" xmlns="http://www.w3.org/2000/svg" xmlns:xlink="http://www.w3.org/1999/xlink" x="0px" y="0px"
	 viewBox="0 0 395 512" style="enable-background:new 0 0 395 512;" xml:space="preserve">
<g>
	<path d="M316.1,355.9c-20,0-38.3,7.7-52.2,20c8.9,16.5,14,36.5,14,58s-5.1,41.5-14,58c13.8,12.4,32.1,20,52.2,20s38.3-7.7,52.2-20
		c-8.9-16.5-14-36.4-14-58s5.1-41.5,14-58C354.5,363.4,336.2,355.9,316.1,355.9z"/>
	<path d="M238,434c0,16.5,5.3,31.9,14,44.4c4.9-13.4,7.8-28.4,7.8-44.4s-2.9-31-7.8-44.4C243.1,402.1,238,417.5,238,434z"/>
	<g>
		<path d="M210.6,183.8l56.8,40.5L126.9,477c-12.5,22.4-35.6,34.8-59.3,34.8c-13.8,0-27.7-4.2-39.8-13c-32.4-23.6-37.3-70-10.5-99.8
			L210.6,183.8z"/>
	</g>
	<g>
		<path d="M378.1,6.8c-16.5-11.2-37.9-8.2-48,6.5c-5.7,8.4-6.4,18.8-2.9,28.3l-40.9,57.6L227.4,165l52.3,37.1l43-77.4L364,66.9
			c10.4-0.1,20.1-4.7,25.9-13.3C400,39,394.6,18,378.1,6.8z"/>
	</g>
	<path d="M380.2,389.6c-4.9,13.4-7.8,28.5-7.8,44.4s2.7,31,7.8,44.4c8.9-12.5,14-27.9,14-44.4S389.1,402.1,380.2,389.6z"/>
</g>
</svg>
