<?xml version="1.0" encoding="utf-8"?>
<!-- Generator: Adobe Illustrator 21.1.0, SVG Export Plug-In . SVG Version: 6.00 Build 0)  -->
<svg version="1.1" id="Layer_6" xmlns="http://www.w3.org/2000/svg" xmlns:xlink="http://www.w3.org/1999/xlink" x="0px" y="0px"
	 viewBox="0 0 512 512" style="enable-background:new 0 0 512 512;" xml:space="preserve">
<g>
	<path d="M406.6,337.7L406.6,337.7c-1.6-6.7-8.3-10.9-15.1-9.3l-58.2,13.9c-6.7,1.6-10.8,8.3-9.2,15l0,0c1.6,6.7,8.3,10.9,15,9.3
		l58.2-13.9C404,351.1,408.1,344.4,406.6,337.7z"/>
	<path d="M107.2,338.7L107.2,338.7c1.6-6.7,8.3-10.9,15-9.3l58.4,13.9c6.7,1.6,10.8,8.3,9.2,15l0,0c-1.6,6.7-8.3,10.8-15,9.2
		l-58.4-13.9C109.7,352.1,105.6,345.4,107.2,338.7z"/>
	<path d="M107.6,176.9L107.6,176.9c-1.9-6.7,2-13.6,8.7-15.4l57.9-16c6.6-1.8,13.5,2,15.4,8.7l0,0c1.8,6.6-2,13.5-8.7,15.4l-57.9,16
		C116.3,187.4,109.4,183.5,107.6,176.9z"/>
	<path d="M398.7,257.5L398.7,257.5c0-6.9-5.6-12.5-12.5-12.5h-59.8c-6.9,0-12.5,5.6-12.5,12.5l0,0c0,6.9,5.6,12.5,12.5,12.5h59.8
		C393.2,270,398.7,264.4,398.7,257.5z"/>
	<path d="M405.2,176.9L405.2,176.9c1.8-6.7-2-13.5-8.7-15.4l-57.6-16c-6.6-1.8-13.5,2-15.4,8.7l0,0c-1.8,6.6,2.1,13.5,8.7,15.4
		l57.6,16C396.4,187.4,403.3,183.5,405.2,176.9z"/>
	<path d="M121,257.5L121,257.5c0-6.9,5.6-12.5,12.5-12.5h60c6.9,0,12.5,5.6,12.5,12.5l0,0c0,6.9-5.6,12.5-12.5,12.5h-60
		C126.6,270,121,264.4,121,257.5z"/>
	<path d="M111.5,257.3c0-6.4,2.6-12.1,6.8-16.3c4.2-4.2,9.9-6.8,16.3-6.8h10.9c-1.4-14.2-4.1-28.1-8.1-41.4l-11.1,3.2
		c-12.2,3.5-25-3.5-28.6-15.7c-0.6-2.1-0.9-4.3-0.9-6.4c0-10,6.6-19.2,16.7-22.1l6.2-1.8c-13.5-25-31.7-47.1-53.4-65.3
		C25.1,130.1,0,190.4,0,256.5s25.1,126.4,66.3,171.8c21.3-17.8,39.2-39.4,52.6-63.9l-4.5-1c-12.4-2.8-20.2-15.1-17.5-27.6
		c2.4-10.7,11.9-18,22.5-18c1.7,0,3.4,0.2,5.1,0.6l12.6,2.8c4-13.2,6.8-26.9,8.3-41h-10.8C121.8,280.3,111.5,270,111.5,257.3z
		 M445.8,84.7c-21.6,18-39.7,40.1-53.2,65l7.1,2.1c10.1,2.9,16.7,12.1,16.7,22.1c0,2.1-0.3,4.3-0.9,6.4
		c-3.6,12.2-16.4,19.3-28.6,15.7l-12.1-3.5c-4,13.4-6.8,27.4-8.2,41.7h19.6c6.4,0,12.1,2.6,16.3,6.8c4.2,4.2,6.8,9.9,6.8,16.3
		c0,12.7-10.3,23.1-23.1,23.1h-19.4c1.5,14.2,4.3,27.9,8.3,41.2l13.6-3.1c1.7-0.4,3.4-0.6,5.1-0.6c10.6,0,20.1,7.3,22.5,18
		c2.8,12.4-5,24.8-17.4,27.6l-5.5,1.2c13.5,24.3,31.3,45.9,52.5,63.6c41.2-45.4,66.3-105.7,66.3-171.8S486.9,130.1,445.8,84.7z
		 M360.9,372l-20.3,4.6c-1.7,0.4-3.4,0.6-5.1,0.6c-10.5,0-20.1-7.3-22.5-18c-2.8-12.4,5-24.8,17.5-27.6l13.3-3
		c-4.6-15.5-7.7-31.6-9.2-48.2h-8c-6.4,0-12.1-2.6-16.3-6.8c-4.2-4.2-6.8-9.9-6.8-16.3c0-12.7,10.3-23.1,23.1-23.1h7.8
		c1.5-17.4,4.8-34.4,9.6-50.6l-14.5-4.2c-10.1-2.9-16.7-12.1-16.7-22.2c0-2.1,0.3-4.3,0.9-6.4c3.5-12.2,16.3-19.3,28.6-15.7
		l18.8,5.4c15.3-30,36.3-56.6,61.6-78.3C377.9,23.8,319.7,0.5,256,0.5S134.1,23.8,89.3,62.2c25.4,21.8,46.4,48.5,61.7,78.6l19.7-5.7
		c12.2-3.6,25,3.5,28.6,15.7c0.6,2.1,0.9,4.3,0.9,6.4c0,10-6.6,19.2-16.6,22.1l-15.5,4.5c4.8,16.2,8,33,9.5,50.3h16.6
		c12.7,0,23.1,10.3,23.1,23.1c0,6.4-2.6,12.1-6.8,16.3c-4.2,4.2-9.9,6.8-16.3,6.8h-16.7c-1.5,16.5-4.6,32.5-9.1,48l14.3,3.2
		c12.4,2.8,20.2,15.1,17.5,27.6c-2.4,10.7-11.9,18-22.5,18c-1.7,0-3.4-0.2-5.1-0.6l-21.3-4.8c-15.3,30.3-36.4,57.1-61.9,79
		c44.8,38.5,103,61.7,166.7,61.7s121.9-23.3,166.7-61.7C397.3,428.9,376.2,402.2,360.9,372z"/>
</g>
</svg>
