<?xml version="1.0" encoding="utf-8"?>
<!-- Generator: Adobe Illustrator 21.1.0, SVG Export Plug-In . SVG Version: 6.00 Build 0)  -->
<svg version="1.1" id="Layer_1" xmlns="http://www.w3.org/2000/svg" xmlns:xlink="http://www.w3.org/1999/xlink" x="0px" y="0px"
	 viewBox="0 0 512 512" style="enable-background:new 0 0 512 512;" xml:space="preserve">
<path d="M499.7,424.6l12.3-1.5l-11.8-9.4l-40.4-57.1v-17.1h-5.4v17.6l-34.2,57V395h-1.3v-38h1.8v-3.5h-1.8v-11.4h1.8v-3.5h-3
	l-3.2-11.5v-29.2h4.4v-4.2h1.9v-3.5h-1.9v-3.3h1.9v-3.5h-1.9v-3.1l1.2-3.9h2.3v-5h-2.3c24.8-50.3-16.5-48.9-31.9-79.8l-0.3-5.4
	c1.3-0.4,2.3-1.8,2.3-3.3s-0.9-2.8-2.2-3.3v-18.5h9.6v-2.3h-9.6V149h-2.2v9.8h-9.6v2.3h9.6v18.5c-1.3,0.5-2.3,1.8-2.3,3.3
	s0.9,2.9,2.3,3.3l-0.3,5.4c-15.4,30.9-56.7,29.5-31.9,79.8h-2.3v5h2.3l1.2,3.9v3.1h-2v3.5h2v3.3h-2v3.5h2v4.2h4.4V313
	c-6.6-6.7-16.1-12-21.5-22.7l-0.2-3.8c0.9-0.3,1.6-1.3,1.6-2.4s-0.7-2-1.6-2.3v-13.2h6.9V267h-6.9v-7h-1.5v7h-6.9v1.6h6.9V282
	c-0.9,0.3-1.6,1.2-1.6,2.3c0,1.1,0.7,2,1.6,2.4l-0.2,3.8c-3.7,7.5-9.6,12.3-14.9,16.8v-7.9l3.3-4.8v-5.1h-1.4v-66.8H321v-29.2
	l3.5-5.1v-5.1H321L291,82.7h0.6v-3.5h-1.6l-0.7-2.1v-18h0.7V58h-0.7v-1l0.4-0.5h1.9V55h-0.7c7.9-15.4-3.7-15.5-8.8-24l-0.4-7
	c0.8-0.3,1.4-1.1,1.4-2.1s-0.6-1.8-1.4-2.1V8.1h6.1V6.7h-6.1V0.4h-1.3v6.2h-6.1V8h6.1v11.7c-0.8,0.3-1.4,1.1-1.4,2.1
	s0.7,1.8,1.4,2.1l-0.4,7c-5.2,8.5-16.7,8.6-8.8,24h-0.7v1.5h1.8l0.5,0.5v1h-0.6V59h0.7v18.1l-0.7,2.1h-1.6v3.5h0.6l-29.9,100.6h-3.6
	v5.1l0,0l3.4,5.1v29.2h-2V233c-7.8-6.6-16.7-13.2-22.2-24.2l-0.3-5c1.2-0.4,2.2-1.6,2.2-3.1c0-1.4-0.8-2.6-2.1-3.1v-17.4h8.9v-2.1
	h-8.9v-9.2h-1.8v9.2h-9v2.1h9v17.4c-1.2,0.4-2.1,1.6-2.1,3.1s0.9,2.7,2.2,3.1l-0.3,5c-14.4,29-53.1,27.7-29.9,74.8h-2.2v4.7h2.2
	l1.1,3.7v2.9h-1.8v3.3h1.8v3h-1.8v3.3h1.8v4h4.1v27.4l-0.8,2.7c-6.1-5.3-13.6-10.5-18-19.4l-0.2-3.8c0.9-0.3,1.7-1.3,1.7-2.4
	s-0.7-2-1.6-2.3v-13.2h6.9v-1.6h-6.9v-7h-1.5v7h-6.9v1.6h6.9v13.2c-0.9,0.3-1.6,1.2-1.6,2.3c0,1.1,0.7,2,1.7,2.4l-0.2,3.8
	c-5.4,10.7-14.9,16-21.4,22.6v-4.3h4.3v-4.2h1.9v-3.4h-1.9v-3.2h1.9v-3.4h-1.9v-3l1.2-3.9h2.3v-4.9h-2.3
	c24.3-49.3-16.2-47.9-31.3-78.3l-0.3-5.2c1.3-0.4,2.3-1.7,2.3-3.3c0-1.5-0.9-2.7-2.2-3.2v-18.1h9.4V201h-9.4v-9.6h-2.2v9.6h-9.4v2.2
	h9.4v18.1c-1.2,0.5-2.2,1.7-2.2,3.2s0.9,2.8,2.3,3.3l-0.3,5.2c-15.1,30.4-55.6,29-31.3,78.3h-2.3v4.9h2.3l1.2,3.9v3H88v3.4h1.9v3.2
	H88v3.4h1.9v4.2h4.3v28.6L91,377.1h-3.1v3.4h1.8v11.1h-1.8v3.4h1.8l0,0h-0.3v18.7l-34-56.6v-17.6H50v17.1L9.6,413.7l-9.9,9.4
	l10.4,1.5v87.8h489.4v-87.8H499.7z"/>
</svg>
