<?xml version="1.0" encoding="utf-8"?>
<!-- Generator: Adobe Illustrator 21.1.0, SVG Export Plug-In . SVG Version: 6.00 Build 0)  -->
<svg version="1.1" id="Layer_1" xmlns="http://www.w3.org/2000/svg" xmlns:xlink="http://www.w3.org/1999/xlink" x="0px" y="0px"
	 viewBox="0 0 512 512" style="enable-background:new 0 0 512 512;" xml:space="preserve">
<path id="wampire-fill" d="M5,57c-4.5,2.8-5.8,7.4-4.5,12.1c1.4,4.7,4.9,7.9,10.3,8.2c17.1,1.4,62.9,10.4,73.9,33.6
	c6.2,12.6,2.5,30.4-12.7,51.1c-2.4,4-2.1,8.1-0.2,11.8c1.9,3.7,6.1,6,10.4,5.7c0,0,42.1-0.9,66.1,28c18.6,22,22.6,54.5,13,98.1
	c-1.5,7.1-7.5,17.1-9.9,21c-2.4,4-2.7,9.1,0.8,12.4c2.9,4.3,7.8,5.5,12.7,4.2c54.7-15.1,95-13,120.7,6.2c33,25.8,30.6,73.4,30,74.4
	c0.3,4.1,2.2,7.8,5.8,11.1c4.2,2.3,8.5,2,12.4,0.1c22.8-12.7,41.8-14.3,54.3-7.5l0,0c24,13,28.9,57.9,29,73.8
	c0.3,4.1,2.2,7.8,6.4,10.1c1,0.6,1,0.6,2.1,1.1c4.7,1.3,9.7,0,13.1-3.4c132.2-141.9,45.3-264.4,44.9-265.9c-2.5-2.7-5.7-4.4-9.3-5.1
	c-4.3,0.3-7.6,1.1-10,5.1c-1.2,2-39.6,49.8-108.2,19c16.9-12,40.7-33.3,54.5-65.4c1.4-4.5,0.6-10.2-3.6-12.5
	c-3.6-3.3-8.9-3.5-14.5-1.3c-14.5,8-39.7,15.4-48.9,7.7l-1-0.6c0,0-6.7-5-15.3-13.6c-7.6-8.1,4.6-33.1,13.4-45.5
	c2.4-4,2.7-9.1-0.3-13.4c-2.9-4.3-7.8-5.5-12.7-4.2c-35.1,10-59.9,30.8-73.3,46c-26.6-68.6,27-100.2,29.2-101.6
	c3.9-1.9,5.7-4.8,5.4-9c-0.3-4.2-1.2-7.2-3.7-9.9C285,37.6,165.7-56.3,5,57z"/>
</svg>
