<?xml version="1.0" encoding="utf-8"?>
<!-- Generator: Adobe Illustrator 21.1.0, SVG Export Plug-In . SVG Version: 6.00 Build 0)  -->
<svg version="1.1" id="Layer_2" xmlns="http://www.w3.org/2000/svg" xmlns:xlink="http://www.w3.org/1999/xlink" x="0px" y="0px"
	 viewBox="0 0 512.3 512" style="enable-background:new 0 0 512.3 512;" xml:space="preserve">
<g id="fill">
	<path d="M136.3,108.3c-0.8,1.9-1,4-0.7,5.9h-21.9v8.4H141l12.7,12c3.5,3.2,2.5,8.5-1.8,10.7l-10.1,2.2c-5.4,1.2-9.3,5.4-9.5,10.4
		l-0.8,28l-11.4,8.1v107.1h37.4L348,241.3l-1.7-59.8l-77.6,1.6v-0.8h-29l-0.9-34.6l30-8.7l1.2-13.4h23.5v-6.1h-23.4l0.2-3.8
		c0.2-4.9,2.2-9.7,5.7-13.5l2-2.2H305v-6.1h-21.2l0.8-0.9V66.8l-31.2,0.4l-0.4,8.3l-7.3,2.5l-10.6-0.4V66.4l-4.6-5.1V37.8H262V25.7
		h-31.5v-9.5V7.6c0-4.2-3.8-7.6-8.5-7.6h-30.4c-4.7,0-8.5,3.4-8.5,7.6l0.1,15.7h-36v12.1h30.1l-3.6,40l-12.9,2.2
		c-7.7,1.3-14.1,5.9-17.1,12.3h-37.1v8.4h33.6L136.3,108.3z"/>
	<path d="M470.8,245.3L512,187h0.1c0.3-0.5-0.8-3.4-2.5-6.6c-1.8-3.2-3.5-5.4-3.9-4.9l-61.1,70.1c-6.8,0.1-13.8,0.3-20.3,0.5
		l41.2-59.5h0.1c0.3-0.5-0.8-3.4-2.6-6.6c-1.8-3.1-3.5-5.3-3.9-4.9l-61.5,72.2c-4.8,0.3-9,0.8-12.4,1.2c-4.1,0.6-8.7,1.4-13.4,2.4
		l43-66.9h0.1c0.3-0.5-0.8-3.3-2.7-6.4c-1.9-3-3.6-5.1-4-4.6l-65.5,83.3c-0.6,0.7-1,1.6-1.3,2.6c-27.3,8.3-58.9,20.1-88.2,31.9
		c-48.4,19.5-98.8,31.1-149.7,34.6V209.6l-48.6,29.6v14.1c0,16.4-6.9,31.8-18.4,41L0.3,322.7h0.4l-0.2,4.7
		C-1.1,366.9,7.8,406,26,439.1l5.6,10.1c0,0,50.3,4,109.2,17.4c62.2,14.1,134,37.7,165.9,43.4c24.2,4.3,70.6,0.3,70.6,0.3l7.6-28.5
		c15-56.6,39-109.2,70.8-155l56.5-81.5C512.1,245.4,493.9,245.1,470.8,245.3z M506.1,177.4c0.3-0.3,1.5,1.3,2.8,3.6
		c1.3,2.3,2.1,4.4,1.9,4.8c-0.3,0.3-1.5-1.3-2.8-3.6C506.7,179.9,505.9,177.8,506.1,177.4z M459.5,177.1c0.3-0.3,1.5,1.2,2.8,3.5
		s2.2,4.4,1.9,4.7c-0.3,0.3-1.5-1.2-2.8-3.5C460.1,179.6,459.2,177.4,459.5,177.1z M408.5,175c0.3-0.4,1.5,1.1,2.9,3.3
		c1.4,2.2,2.3,4.2,1.9,4.6c-0.3,0.4-1.5-1.1-2.9-3.3C409.1,177.4,408.2,175.4,408.5,175z"/>
</g>
</svg>
