<?xml version="1.0" encoding="utf-8"?>
<!-- Generator: Adobe Illustrator 21.1.0, SVG Export Plug-In . SVG Version: 6.00 Build 0)  -->
<svg version="1.1" id="Layer_6" xmlns="http://www.w3.org/2000/svg" xmlns:xlink="http://www.w3.org/1999/xlink" x="0px" y="0px"
	 viewBox="0 0 602.5 512" style="enable-background:new 0 0 602.5 512;" xml:space="preserve">
<g>
	<path d="M518.9,106.8H38c-21,0-38,17-38,37.9v220.8c0,21,17,38,38,38h481c21,0,38-17,38-38V144.7
		C556.9,123.8,539.9,106.8,518.9,106.8L518.9,106.8z M39.9,385.3c-13.4,0-24.3-10.9-24.3-24.3V149.3c0-13.4,10.9-24.3,24.3-24.3
		h477.4c13.4,0,24.3,10.9,24.3,24.3V361c0,13.4-10.9,24.3-24.3,24.3H39.9L39.9,385.3z"/>
	<path d="M583.5,240c2.8,4.5,4.3,9.5,4.3,14.9s-1.5,10.5-4.3,14.9V240 M568.9,213.1v83.6c19.2-4.2,33.6-21.3,33.6-41.8
		C602.5,234.5,588.1,217.3,568.9,213.1L568.9,213.1z"/>
	<path d="M241.2,352.2l10.4-85.9l-34.1,5.9l19.7-113.7h57l-18,60.5l45.9-7.8L241.2,352.2z"/>
</g>
</svg>
