<?xml version="1.0" encoding="utf-8"?>
<!-- Generator: Adobe Illustrator 21.1.0, SVG Export Plug-In . SVG Version: 6.00 Build 0)  -->
<svg version="1.1" id="Layer_6" xmlns="http://www.w3.org/2000/svg" xmlns:xlink="http://www.w3.org/1999/xlink" x="0px" y="0px"
	 viewBox="0 0 602.5 512" style="enable-background:new 0 0 602.5 512;" xml:space="preserve">
<g>
	<path d="M518.9,106.8H38c-21,0-38,17-38,37.9v220.8c0,21,17,38,38,38h481c21,0,38-17,38-38V144.7
		C556.9,123.8,539.9,106.8,518.9,106.8z M541.6,361c0,13.4-10.9,24.3-24.3,24.3H39.8c-13.4,0-24.3-10.9-24.3-24.3V149.3
		c0-13.4,10.9-24.3,24.3-24.3h477.4c13.4,0,24.3,10.9,24.3,24.3V361z"/>
	<path d="M425.6,157.8l75.1,0.1c4,0,7.9,2.4,7.9,7.2v179.2c0,4.4-3.6,7.9-7.9,7.9h-75.1V157.8 M410.9,143.1V367h89.8
		c12.5,0,22.6-10.1,22.6-22.6V165.2c0-12.5-10.1-21.9-22.6-21.9L410.9,143.1L410.9,143.1z"/>
	<path d="M303,157.6l75.1,0.1v194.6H303V157.6 M288.3,142.9v224.2h104.4v-224L288.3,142.9L288.3,142.9z"/>
	<polygon points="165.5,367 270.1,367 270.1,142.8 165.5,142.7 	"/>
	<path d="M33.8,165.2v179.2c0,12.5,10.1,22.6,22.6,22.6h90.8V142.7l-90.8-0.2C43.9,142.5,33.8,152.6,33.8,165.2z"/>
	<path d="M568.9,213.1v83.6c19.2-4.2,33.6-21.3,33.6-41.8C602.5,234.5,588.1,217.3,568.9,213.1z"/>
</g>
</svg>
