<?xml version="1.0" encoding="utf-8"?>
<!-- Generator: Adobe Illustrator 21.1.0, SVG Export Plug-In . SVG Version: 6.00 Build 0)  -->
<svg version="1.1" id="Layer_6" xmlns="http://www.w3.org/2000/svg" xmlns:xlink="http://www.w3.org/1999/xlink" x="0px" y="0px"
	 viewBox="0 0 602.5 512" style="enable-background:new 0 0 602.5 512;" xml:space="preserve">
<g>
	<path d="M583.6,240.2c2.8,4.5,4.3,9.5,4.3,14.9s-1.5,10.5-4.3,14.9V240.2 M568.9,213.3v83.6c19.2-4.2,33.6-21.3,33.6-41.8
		C602.5,234.7,588.1,217.6,568.9,213.3L568.9,213.3z"/>
	<path d="M518.9,107.1H38c-21,0-38,17-38,37.9v220.8c0,21,17,38,38,38h481c21,0,38-17,38-38V145
		C556.9,124.1,539.9,107.1,518.9,107.1L518.9,107.1z M39.9,385.5c-13.4,0-24.3-10.9-24.3-24.3V149.5c0-13.4,10.9-24.3,24.3-24.3
		h477.4c13.4,0,24.3,10.9,24.3,24.3v211.6c0,13.4-10.9,24.3-24.3,24.3H39.9L39.9,385.5z"/>
	<path d="M425.6,158l75.1,0.1c4,0,7.9,2.4,7.9,7.2v179.2c0,4.4-3.6,7.9-7.9,7.9h-75.1V158 M410.9,143.3v223.9h89.8
		c12.5,0,22.6-10.1,22.6-22.6V165.4c0-12.5-10.1-21.9-22.6-21.9L410.9,143.3L410.9,143.3z"/>
	<path d="M180.2,157.6l75.2,0.1v194.8h-75.2V157.6 M165.5,142.9v224.4h104.6V143.1L165.5,142.9L165.5,142.9z"/>
	<path d="M56.4,157.4l76.2,0.1v195.1H56.4c-4.4,0-7.9-3.6-7.9-7.9V165.4C48.4,161,52,157.4,56.4,157.4 M56.4,142.7
		c-12.5,0-22.6,10.1-22.6,22.6v179.2c0,12.5,10.1,22.6,22.6,22.6h90.8V142.9L56.4,142.7L56.4,142.7z"/>
	<path d="M303,157.8l75.1,0.1v194.6H303V157.8 M288.3,143.1v224.2h104.4v-224L288.3,143.1L288.3,143.1z"/>
	<path d="M74.5,310.6l5.8-48.1l-19.1,3.3L72.2,202h31.9l-10.1,33.9l25.7-4.3L74.5,310.6z"/>
</g>
</svg>
