<?xml version="1.0" encoding="utf-8"?>
<!-- Generator: Adobe Illustrator 21.1.0, SVG Export Plug-In . SVG Version: 6.00 Build 0)  -->
<svg version="1.1" id="Layer_6" xmlns="http://www.w3.org/2000/svg" xmlns:xlink="http://www.w3.org/1999/xlink" x="0px" y="0px"
	 viewBox="0 0 602.5 512" style="enable-background:new 0 0 602.5 512;" xml:space="preserve">
<g>
	<path d="M518.9,106.5H38c-21,0-38,17-38,37.9v220.8c0,21,17,38,38,38h481c21,0,38-17,38-38V144.4
		C556.9,123.5,539.9,106.5,518.9,106.5z M541.6,360.7c0,13.4-10.9,24.3-24.3,24.3H39.8c-13.4,0-24.3-10.9-24.3-24.3V149
		c0-13.4,10.9-24.3,24.3-24.3h477.4c13.4,0,24.3,10.9,24.3,24.3V360.7z"/>
	<polygon points="288.3,366.7 392.7,366.7 392.7,142.8 288.3,142.6 	"/>
	<polygon points="165.5,366.7 270.1,366.7 270.1,142.5 165.5,142.4 	"/>
	<path d="M33.8,164.9v179.2c0,12.5,10.1,22.6,22.6,22.6h90.8V142.4l-90.8-0.2C43.9,142.2,33.8,152.3,33.8,164.9z"/>
	<path d="M568.9,212.8v83.6c19.2-4.2,33.6-21.3,33.6-41.8S588.1,217,568.9,212.8z"/>
	<path d="M425.6,157.8l75.1,0.1c4,0,7.9,2.4,7.9,7.2v179.2c0,4.4-3.6,7.9-7.9,7.9h-75.1V157.8 M410.9,143.1V367h89.8
		c12.5,0,22.6-10.1,22.6-22.6V165.2c0-12.5-10.1-21.9-22.6-21.9L410.9,143.1L410.9,143.1z"/>
</g>
</svg>
