<?xml version="1.0" encoding="utf-8"?>
<!-- Generator: Adobe Illustrator 21.1.0, SVG Export Plug-In . SVG Version: 6.00 Build 0)  -->
<svg version="1.1" id="Layer_6" xmlns="http://www.w3.org/2000/svg" xmlns:xlink="http://www.w3.org/1999/xlink" x="0px" y="0px"
	 viewBox="0 0 602.5 512" style="enable-background:new 0 0 602.5 512;" xml:space="preserve">
<g>
	<path d="M518.9,107H38c-21,0-38,17-38,37.9v220.8c0,21,17,38,38,38h481c21,0,38-17,38-38V144.9C556.9,124,539.9,107,518.9,107z
		 M541.6,361.1c0,13.4-10.9,24.3-24.3,24.3H39.8c-13.4,0-24.3-10.9-24.3-24.3V149.5c0-13.4,10.9-24.3,24.3-24.3h477.4
		c13.4,0,24.3,10.9,24.3,24.3V361.1z"/>
	<path d="M500.7,143.4l-89.8-0.2v223.9h89.8c12.5,0,22.6-10.1,22.6-22.6V165.3C523.3,152.8,513.3,143.4,500.7,143.4z"/>
	<polygon points="288.3,367.1 392.7,367.1 392.7,143.2 288.3,143 	"/>
	<polygon points="165.5,367.1 270.1,367.1 270.1,143 165.5,142.8 	"/>
	<path d="M33.8,165.3v179.2c0,12.5,10.1,22.6,22.6,22.6h90.8V142.8l-90.8-0.2C43.9,142.6,33.8,152.8,33.8,165.3z"/>
	<path d="M568.9,213.2v83.6c19.2-4.2,33.6-21.3,33.6-41.8S588.1,217.5,568.9,213.2z"/>
</g>
</svg>
