<?xml version="1.0" encoding="utf-8"?>
<!-- Generator: Adobe Illustrator 21.1.0, SVG Export Plug-In . SVG Version: 6.00 Build 0)  -->
<svg version="1.1" id="Layer_6" xmlns="http://www.w3.org/2000/svg" xmlns:xlink="http://www.w3.org/1999/xlink" x="0px" y="0px"
	 viewBox="0 0 602.5 512" style="enable-background:new 0 0 602.5 512;" xml:space="preserve">
<g>
	<path d="M518.9,107.4H38c-21,0-38,17-38,37.9v220.8c0,21,17,38,38,38h481c21,0,38-17,38-38V145.3
		C556.9,124.4,539.9,107.4,518.9,107.4z M541.6,361.5c0,13.4-10.9,24.3-24.3,24.3H39.8c-13.4,0-24.3-10.9-24.3-24.3V149.9
		c0-13.4,10.9-24.3,24.3-24.3h477.4c13.4,0,24.3,10.9,24.3,24.3V361.5z"/>
	<path d="M425.6,158.4l75.1,0.1c4,0,7.9,2.4,7.9,7.2V345c0,4.4-3.6,7.9-7.9,7.9h-75.1V158.4 M410.9,143.6v223.9h89.8
		c12.5,0,22.6-10.1,22.6-22.6V165.7c0-12.5-10.1-21.9-22.6-21.9L410.9,143.6L410.9,143.6z"/>
	<polygon points="288.3,367.6 392.7,367.6 392.7,143.6 288.3,143.5 	"/>
	<polygon points="165.5,367.6 270.1,367.6 270.1,143.4 165.5,143.2 	"/>
	<path d="M33.8,165.7V345c0,12.5,10.1,22.6,22.6,22.6h90.8V143.2L56.4,143C43.9,143,33.8,153.2,33.8,165.7z"/>
	<path d="M568.9,213.7v83.6c19.2-4.2,33.6-21.3,33.6-41.8S588.1,217.9,568.9,213.7z"/>
</g>
</svg>
