<?xml version="1.0" encoding="utf-8"?>
<!-- Generator: Adobe Illustrator 21.1.0, SVG Export Plug-In . SVG Version: 6.00 Build 0)  -->
<svg version="1.1" id="Layer_6" xmlns="http://www.w3.org/2000/svg" xmlns:xlink="http://www.w3.org/1999/xlink" x="0px" y="0px"
	 viewBox="0 0 602.5 512" style="enable-background:new 0 0 602.5 512;" xml:space="preserve">
<g>
	<path d="M519,106.5H38c-21,0-38,17-38,37.9v220.8c0,21,17,38,38,38h481c21,0,38-17,38-38V144.4C556.9,123.5,539.9,106.5,519,106.5z
		 M541.6,360.7c0,13.4-10.9,24.3-24.3,24.3H39.8c-13.4,0-24.3-10.9-24.3-24.3V149c0-13.4,10.9-24.3,24.3-24.3h477.4
		c13.4,0,24.3,10.9,24.3,24.3V360.7z"/>
	<path d="M180.2,157.1l75.2,0.1V352h-75.2V157.1 M165.5,142.4v224.4h104.6V142.5L165.5,142.4L165.5,142.4z"/>
	<path d="M425.6,157.5l75.1,0.1c4,0,7.9,2.4,7.9,7.2v179.2c0,4.4-3.6,7.9-7.9,7.9h-75.1V157.5 M410.9,142.8v223.9h89.8
		c12.5,0,22.6-10.1,22.6-22.6V164.9c0-12.5-10.1-21.9-22.6-21.9L410.9,142.8L410.9,142.8z"/>
	<path d="M303,157.3l75.1,0.1V352H303V157.3 M288.3,142.6v224.2h104.4v-224L288.3,142.6L288.3,142.6z"/>
	<path d="M33.8,164.9v179.2c0,12.5,10.1,22.6,22.6,22.6h90.8V142.4l-90.8-0.2C43.9,142.2,33.8,152.3,33.8,164.9z"/>
	<path d="M568.9,212.8v83.6c19.2-4.2,33.6-21.3,33.6-41.8S588.2,217,568.9,212.8z"/>
</g>
</svg>
