<?xml version="1.0" encoding="utf-8"?>
<!-- Generator: Adobe Illustrator 21.1.0, SVG Export Plug-In . SVG Version: 6.00 Build 0)  -->
<svg version="1.1" id="Layer_2" xmlns="http://www.w3.org/2000/svg" xmlns:xlink="http://www.w3.org/1999/xlink" x="0px" y="0px"
	 viewBox="0 0 529 512" style="enable-background:new 0 0 529 512;" xml:space="preserve">
<path d="M529,59.3l-10.7-13.5c-54.8,5.8-75.7,19.2-84.3,40.2c-5.1-2.1-9.9-0.7-12.9,1.5L406,99.1c-3.3,0.1-6.5,1.1-9.2,3l-0.2,0.1
	l-14.8,11.3c-2.9,2.2-4.9,5.2-5.9,8.5l-75.5,57.7c-3.5,0-7.1,1.1-10.1,3.4l-14.6,11.1c-3,2.3-5,5.4-5.9,8.8l-27.5,21.2
	c-9.8-10.3-19.7,8.6-26.5-10.9c0.1-5.6,12.3-9.7,12.2-15.2c-6.9-13.8-6.6-27.1-22.6-33.6c-10.1-3.7-14.1,29.1-27.7,42.1
	c2.2,6,6.3,12.2,4.4,17.6c-7.6,5.7-15,11.5-22.8,17.3c6.6,5.2,12,12.9,15.8,20.7c6.3-4.8,12.7-9.7,18.8-14.4
	c-2.2,3.7,0.7,7.7,3.2,10.9l-74.4,56.9c-3.7-0.2-7.5,0.9-10.6,3.3L97.5,330c-3.2,2.4-5.2,5.8-6,9.5l-43.7,33.3
	c-14.3-4.4-28.1-3.3-36.5,3.2c-5.3,4-8.6,10.1-9.6,17.5c-1.8,14.1,4.7,32.5,17.6,49.3l0.1,0.1c8.7,11,18.9,19.9,29.1,25
	c17.5,8.8,28.5,3.8,33.4,0c8.2-6.3,12.9-19,12.8-33.4l45.9-35.4c2.8-0.3,5.5-1.4,7.8-3.2l14.6-11.1c2.4-1.8,4.2-4.3,5.3-7l38.6-29.7
	c1.5,0.4,3,0.6,4.6,0.6c0.2,0.3,18.7,26.9,19.7,27.9c6.3,7,14.4,5.1,16.3,4.3c5.1-2.3,20.3-13.2,20.3-13.2c6-4.6,8.9-15.2,1.8-22.2
	c-11.6-11.4-21.9-25.3-23.3-27.5l14.5-11.1c2.8,2.1,5.7,3,8.6,3.2c2.3,5.2,10.6,25.2,10.6,25.2c4.4,10.1,12.4,12.7,18.5,11.8
	c0,0,18.7-3.7,29.1-11.6c4.1-3.1,6.8-6.6,7.6-10.6c2.1-10.2-5.3-15-5.3-15c-0.8-0.8-6.1-9.1-7.5-13.6c0.2-0.5,1.9-4.5,1.9-4.5
	c0.3-4.5-0.6-7.9-2.8-11.5l6.7-5.6c5.8-4.5,5.9-13.3,2.8-17.8l10.1-7.6c2.9-2.2,4.9-5.2,5.8-8.5l75.9-57.9c3.4,0,6.8-1.2,9.7-3.4
	l14.6-11.3c2.9-2.2,4.9-5.2,5.8-8.5l11-8.4h0.1l4-3.1c3.7-2.8,5.5-7.4,4.9-12.2C486.3,135.7,509.8,124.6,529,59.3z"/>
</svg>
