<?xml version="1.0" encoding="utf-8"?>
<!-- Generator: Adobe Illustrator 21.1.0, SVG Export Plug-In . SVG Version: 6.00 Build 0)  -->
<svg version="1.1" id="Layer_4" xmlns="http://www.w3.org/2000/svg" xmlns:xlink="http://www.w3.org/1999/xlink" x="0px" y="0px"
	 viewBox="0 0 512 512" style="enable-background:new 0 0 512 512;" xml:space="preserve">
<path d="M511.1,199.4c-4.9-45.1-82.3-70.3-82.3-70.3s12.9-10.9,29-16c18.6-5.9,40.8-6,40.8-6S481.8,82.9,463.2,77
	c-19.4-6.2-40.8,6-40.8,6s-6.3-23.3-26.6-43.2c-21.6-21.1-57.2-38.7-57.2-38.7s10.7,24.6,16.5,44.7c3.1,10.8,3.1,23.1,3.1,23.1
	s-32.8-21.3-65.9-25.7c-30.3-4-61.2,8.9-61.2,8.9l99.7,44.3c0,0-62.5,9.9-76.9,46.5c-10,25.3,3.1,61.9,8.7,75.5
	c-26.5-20.8-60.8-33.4-98.5-34.6c0-3.7-3.1-7.8-8.1-7.8c-4.5,0-7.9,3.8-7.9,7.8C71.5,187.8,9.4,238.8,0,309.1
	c20.1-20,55.2-22,78.6-2.8c19.7-18.5,50.2-19.5,70.2-4V512h16.3V303.2c20-15.8,52.5-15.4,71.8,2.8c15.7-13,36.7-16.5,54.6-11.7
	C268.7,369,242.7,512,242.7,512h46c0,0,17.8-186.5,34.8-238.1c19.6-59.2,57.3-114.3,57.3-114.3s18.4,22.7,18,56.2
	c-0.4,37.1-19.6,85.2-19.6,85.2s44.7-7,56.5-43.6c10-30.9-12.5-92.3-12.5-92.3s25,8.6,45.4,28.6c21.4,20.9,38.5,53.2,38.5,53.2
	S514.6,232.8,511.1,199.4z M301.7,265.3c0,0,0,0.1-0.1,0.2c-8.8-17.1-21.1-32.1-36-44.5c3.2-9.5,14.8-41.5,32.1-61
	c14.7-16.6,39.3-17.5,39.3-17.5l29,11.3C356,167.5,324.3,212.9,301.7,265.3z"/>
</svg>
