<?xml version="1.0" encoding="utf-8"?>
<!-- Generator: Adobe Illustrator 21.1.0, SVG Export Plug-In . SVG Version: 6.00 Build 0)  -->
<svg version="1.1" id="Layer_1" xmlns="http://www.w3.org/2000/svg" xmlns:xlink="http://www.w3.org/1999/xlink" x="0px" y="0px"
	 viewBox="0 0 601 512" style="enable-background:new 0 0 601 512;" xml:space="preserve">
<path d="M86.6,254.2L86.6,254.2c-0.1,17.5,14,31.7,31.5,31.7l147.9-0.4c10.7,0,19.3-8.6,19.3-19.3V150.8c0-16.1-13-29.2-29.2-29.2
	s-29.2,13-29.2,29.1c-0.1,28.8-0.2,69-0.4,72.2H118C100.7,223,86.6,237,86.6,254.2z M150.7,213c35.5,0,64.3-28.8,64.3-64.3
	s-28.8-64.3-64.3-64.3s-64.3,28.8-64.3,64.3S115.2,213,150.7,213z M506.4,165.4c0.3-29.2-23.4-53.1-52.6-53.1H291.5v173.6h213.9
	L506.4,165.4z M0,57.8v428.7h64.8V57.8c0-17.9-14.5-32.4-32.4-32.4l0,0C14.5,25.5,0,39.9,0,57.8z M79.2,382.2h442.7v-64.8H79.2
	V382.2z M536.2,182.1v304.5H601V182.1c0-17.9-14.5-32.4-32.4-32.4l0,0C550.7,149.7,536.2,164.2,536.2,182.1z"/>
</svg>
