<?xml version="1.0" encoding="utf-8"?>
<!-- Generator: Adobe Illustrator 21.1.0, SVG Export Plug-In . SVG Version: 6.00 Build 0)  -->
<svg version="1.1" id="Layer_1" xmlns="http://www.w3.org/2000/svg" xmlns:xlink="http://www.w3.org/1999/xlink" x="0px" y="0px"
	 viewBox="0 0 512 512" style="enable-background:new 0 0 512 512;" xml:space="preserve">
<g>
	<path d="M385.5,229.4h-98.2h-62.4h-98.2C56.7,229.4,0,285,0,353.5V475h25.8c0,0,9.2-44.5,230.2-48.8c221,4.3,230.2,48.8,230.2,48.8
		H512V353.5C512,285,455.3,229.4,385.5,229.4z M444.6,310.8h-16c0,0-0.6-15.7-141.4-19.7l0,0c0-5.1-4.1-9.2-9.2-9.2h-44.1
		c-5.1,0-9.2,4.1-9.2,9.2l0,0C84,295,83.4,310.8,83.4,310.8h-16v-3.5c0-28.6,35.7-51.8,79.8-51.8l108.7-0.2l108.7,0.2
		c44.1,0,79.8,23.1,79.8,51.8V310.8z"/>
	<path d="M385.4,48.7H126.6C56.7,48.7,0,103.7,0,172v103.2c0,0,20.6-70.8,105.7-70.8c11.2,0,41.6,0,41.6,0s0-1.5,0-2.5
		c0-41.4,34.3-74.9,76.6-74.9c0-4.6,3.7-8.3,8.3-8.3h47.5c4.6,0,8.3,3.7,8.3,8.3c42.3,0,76.6,33.6,76.6,74.9c0,1,0,2.5,0,2.5
		s30.5,0,41.6,0c85.1,0,105.7,70.8,105.7,70.8V172C512,103.7,455.3,48.7,385.4,48.7z"/>
</g>
</svg>
