<?xml version="1.0" encoding="utf-8"?>
<!-- Generator: Adobe Illustrator 21.1.0, SVG Export Plug-In . SVG Version: 6.00 Build 0)  -->
<svg version="1.1" id="Layer_1" xmlns="http://www.w3.org/2000/svg" xmlns:xlink="http://www.w3.org/1999/xlink" x="0px" y="0px"
	 viewBox="0 0 517.2 512" style="enable-background:new 0 0 517.2 512;" xml:space="preserve">
<path d="M515,272c-0.2-0.9-7.5-47.1-18.4-78c-13.7-36.7-36.3-84.4-77.1-84.4c-13.3-0.5-30.6,7.7-30.6,7.7V91h-0.5
	c-0.9-18.9-8.4-33.9-22.5-44.5c-22-16.6-54.1-16.6-73.2-14.7c-14.1-14.7-41.1-25.1-64.6-29.3c-35-6.2-66.5-0.8-88.8,14.8
	C115,5.5,80,0.8,51.4,12c-22,8.6-48.2,29.5-51.1,79.6h-0.5V512h388v-75.6c0,0,32.8,6.4,35.5,6c4.1,0.8,60.7,2.6,83.7-64.1
	c0,0,0,0,0,0.1C507.5,377.6,522.6,334.7,515,272z M236.5,320.5c-11.2,0-20.2-9-20.2-20.2c0-11.2,9-20.2,20.2-20.2
	c11.1,0,20.2,9,20.2,20.2C256.7,311.5,247.7,320.5,236.5,320.5z M302.2,104.1v97c0,8.2-6.9,14.8-15.2,14.5
	c-7.8-0.4-13.8-7.1-13.8-14.9V94.6c0-1.9-1.5-3.4-3.4-3.4l-9.7,0c-1.9,0-3.4,1.5-3.4,3.4v144.9c0,11.4-9.4,20.5-20.9,20.2
	c-10.9-0.4-19.4-9.7-19.4-20.6V103.4c0-6.7-5.4-12.1-12.1-12.1L36.8,91.5c1.4-19.5,8-41.7,29.3-50.1c15-5.9,33.3-3.9,47.2,0.8h0
	c15.3,5.3,29.9,18.6,29.9,18.6s10.5-15.6,26.1-22.5l0.2,0l-0.1,0c18.4-8.4,41-6.2,51.5-4.1c41.7,8.4,48.2,27.9,49.9,33.4
	c44.2-8.8,63.3-2.5,71.4,3.6c5.7,4.3,8.9,11,9.6,19.9l-36.8,0.1C308,91.1,302.2,96.9,302.2,104.1z M422.5,408.8
	c-3.2,0-22.3-1.7-34.6-3.9V146.4c9.7-4.7,19.3-6.8,28.5-5.7c26.4,3.4,46.2,57.4,54,98.9C474.6,262.2,497.4,406.9,422.5,408.8z"/>
</svg>
