<?xml version="1.0" encoding="utf-8"?>
<!-- Generator: Adobe Illustrator 21.1.0, SVG Export Plug-In . SVG Version: 6.00 Build 0)  -->
<svg version="1.1" id="bell-fill" xmlns="http://www.w3.org/2000/svg" xmlns:xlink="http://www.w3.org/1999/xlink" x="0px" y="0px"
	 viewBox="0 0 404.6 512" style="enable-background:new 0 0 404.6 512;" xml:space="preserve">
<g>
	<g>
		<path d="M380.5,368.5c0,0-48.7-45.5-49.1-98.3c0-90.1,17-139.4-33.9-190.2c-13.1-13.1-29.8-21.2-45.6-26
			c1.5-33.2-23-53.6-49.1-53.6S152.1,20.8,153.7,54c-15.7,4.8-32.4,12.8-45.6,25.9c-51,51-34,100.3-34,190.4
			c3.7,52.7-50,98.3-50,98.3S0,387,0,414.6c0,53.5,90.6,96.9,202.3,96.9s202.3-43.4,202.3-96.9C404.6,386.9,380.5,368.5,380.5,368.5
			z M203.2,28.2c11.6,0,21,9.4,21,21s-9.4,21-21,21s-21-9.4-21-21S191.6,28.2,203.2,28.2z M202.7,473.1c-96.2,0-156.3-36.9-156.3-59
			c0-27.4,72.9-44.3,99.1-50.9c0,28.3,18.6,58,57.2,58c41.1,0,57.2-32.4,57.2-57.9c26.5,6.3,99.2,22.6,99.2,50.7
			C359,436.9,298.9,473.1,202.7,473.1z"/>
	</g>
</g>
</svg>
