<?xml version="1.0" encoding="utf-8"?>
<!-- Generator: Adobe Illustrator 21.1.0, SVG Export Plug-In . SVG Version: 6.00 Build 0)  -->
<svg version="1.1" id="bell-bold_1_" xmlns="http://www.w3.org/2000/svg" xmlns:xlink="http://www.w3.org/1999/xlink" x="0px"
	 y="0px" viewBox="0 0 404.8 512" style="enable-background:new 0 0 404.8 512;" xml:space="preserve">
<g>
	<path d="M380.7,368.5c0,0-48.7-45.5-49.1-98.3c0-90.1,17-139.4-34-190.3c-13.1-13.1-29.9-21.2-45.6-26c1.5-33.2-23-53.6-49.1-53.6
		c-26.1,0-50.7,20.5-49.2,53.7c-15.7,4.8-32.4,12.8-45.6,25.9c-50.9,50.9-34,100.2-34,190.3c3.7,52.7-50,98.3-50,98.3
		S0,386.9,0,414.5c0,53.5,90.6,96.9,202.4,96.9s202.4-43.3,202.4-96.9C404.8,386.9,380.7,368.5,380.7,368.5z M203.3,28.1
		c11.6,0,21,9.4,21,21c0,11.6-9.4,21-21,21c-11.6,0-21-9.4-21-21C182.3,37.5,191.7,28.1,203.3,28.1z M202.3,411.2
		c-17.6,0-31.9-14.2-31.9-31.7s14.3-31.7,31.9-31.7c17.7,0,31.9,14.3,31.9,31.7C234.2,397.1,219.9,411.2,202.3,411.2z M217.9,323
		c0,6.6-0.5,9.3-2,11.1c-2.2,2.5-5.6,2.8-8.1,2.8h-11.3c-2.6,0-6-0.4-8-2.7c-1.5-1.7-2-4.2-2-10c0-3.3-20.8-123.3-20.8-124.6
		c0-9.3,3.5-17.3,10.1-23.7c6.6-6.5,15.9-9.8,27.5-9.8c11.5,0,20.3,3.5,26.5,10.6c6,6.9,9.1,15,9.1,24.2
		C239,203,218,318.4,217.9,323z"/>
</g>
</svg>
