<?xml version="1.0" encoding="utf-8"?>
<!-- Generator: Adobe Illustrator 21.1.0, SVG Export Plug-In . SVG Version: 6.00 Build 0)  -->
<svg version="1.1" id="bell-fill-slash" xmlns="http://www.w3.org/2000/svg" xmlns:xlink="http://www.w3.org/1999/xlink" x="0px"
	 y="0px" viewBox="0 0 453.8 512" style="enable-background:new 0 0 453.8 512;" xml:space="preserve">
<style type="text/css">
	.st0{fill:none;}
</style>
<g>
	<path class="st0" d="M228.2,27.5c-11.7,0.1-21.2,9.4-21.1,21.1c0.1,11.7,9.5,21.1,21.1,21.1c11.6,0.1,21-9.4,21.1-21.1
		C249.2,36.9,239.9,27.4,228.2,27.5z"/>
	<path d="M406,368.9c0,0-48.8-45.6-49.3-98.6c0-11.5,0.3-22.2,0.6-32.5L188.1,407.1c9.4,8.9,22.5,14.6,39.5,14.7
		c41.2,0,57.3-32.5,57.3-58c26.6,6.3,99.5,22.7,99.4,50.8c0.1,22.9-60.2,59.1-156.7,59.1c-36.6,0-68.1-5.3-92.9-13.2L103.3,492
		c34.3,12.7,77.3,20.2,123.9,20.2c112,0,202.9-43.5,202.9-97.2C430.1,387.4,406,368.9,406,368.9z"/>
	<path d="M421.4,44.5L348.9,117c-5.6-12.7-14-25-26.3-37.3c-13.2-13.2-29.9-21.2-45.6-26c1.4-33.2-23.1-53.8-49.3-53.7
		c-26.1,0-50.8,20.5-49.3,53.7c-15.8,4.8-32.5,12.8-45.7,26c-51.1,51.1-34,100.5-34,190.8c3.7,52.8-50.1,98.5-50.1,98.5
		S24.3,387.3,24.4,415c0,7.4,1.7,14.6,5,21.5L0,465.9l32.3,32.3L453.8,76.8L421.4,44.5z M228.2,69.7c-11.6,0-21.1-9.4-21.1-21.1
		c-0.1-11.7,9.4-21.1,21.1-21.1c11.7-0.1,21.1,9.4,21.1,21.1C249.2,60.4,239.7,69.8,228.2,69.7z"/>
</g>
</svg>
