<?xml version="1.0" encoding="utf-8"?>
<!-- Generator: Adobe Illustrator 21.1.0, SVG Export Plug-In . SVG Version: 6.00 Build 0)  -->
<svg version="1.1" id="bell-rotate-fill" xmlns="http://www.w3.org/2000/svg" xmlns:xlink="http://www.w3.org/1999/xlink" x="0px"
	 y="0px" viewBox="0 0 512 512" style="enable-background:new 0 0 512 512;" xml:space="preserve">
<g>
	<g>
		<path d="M494.2,180.6c-21.4-21.4-54.4-17-54.4-17s-73.1,2.5-114.5-38.2C255.4,55.6,230.3,4.1,151.2,4.2
			c-20.5,0-39.6,6.7-55.5,15.2C71.1-7.4,36.2-4.4,16,16C-4.2,36.2-7.5,71.2,19.4,95.7c-8.5,15.9-15.3,35.1-15.3,55.5
			c0,79.1,51.5,104.1,121.4,174.1c43.8,38,37.5,115.1,37.5,115.1s-4.5,33,17,54.4c41.6,41.6,145.6,4.9,232.3-81.8
			S535.8,222.2,494.2,180.6z M70.4,69.6c-9,9-23.6,9-32.7,0s-9-23.6,0-32.7s23.6-9,32.7,0C79.4,46.1,79.4,60.7,70.4,69.6z
			 M382.8,382.8c-74.7,74.7-150,92.7-167.1,75.5c-21.3-21.3,22.2-91,37.4-116.4c22,22,59.5,30.6,89.5,0.7
			c31.9-31.9,19.2-69.6-0.5-89.3c25.5-15.7,94.6-59.5,116.3-37.6C476.2,233.4,457.6,308.1,382.8,382.8z"/>
	</g>
</g>
</svg>
