<?xml version="1.0" encoding="utf-8"?>
<!-- Generator: Adobe Illustrator 21.1.0, SVG Export Plug-In . SVG Version: 6.00 Build 0)  -->
<svg version="1.1" id="Layer_1" xmlns="http://www.w3.org/2000/svg" xmlns:xlink="http://www.w3.org/1999/xlink" x="0px" y="0px"
	 viewBox="0 0 550 512" style="enable-background:new 0 0 550 512;" xml:space="preserve">
<path d="M492.2,72.9c-27.8,0-51.1,19.4-57.1,45.4h-98.9V82.5c0-6.1-5.6-12.5-12.5-12.5h-97.5c-6.1,0-12.5,6.4-12.5,12.5v35.9h-98.2
	c-6-26-29.2-45.4-57.1-45.4C26.2,72.9,0,99.2,0,131.5s26.2,58.6,58.6,58.6c29.1,0,53.3-21.2,57.8-49.1l98-0.2v1.9
	c-64.3,25-107,86.8-107,156.2l-0.5,25.9H74c-7,0-12.5,6.4-12.5,12.5v95.3c0,6.1,6.4,12.5,12.5,12.5h96c6.1,0,12.5-6.4,12.5-12.5
	v-95.3c0-6.9-5.6-12.5-12.5-12.5h-40.3l-0.1-25.9c0-57.4,33-108.8,84.3-132.3v11c0,6.1,6.4,12.5,12.5,12.5h38.9l-0.1,20.5h-30
	c-6.9,0-12.5,5.6-12.5,12.5v73.3c0,6.9,5.6,12.5,12.5,12.5h81.3c6.9,0,12.5-5.6,12.5-12.5V223c0-6.8-5.6-12.5-12.5-12.5H288
	l-0.4-20.5h36.3c6.2,0,12.5-6.3,12.5-12.5v-11.7c51.4,23.4,85.1,74.6,85.1,132.3l-0.1,26.6c0,0-39.2,0-40.3,0
	c-6.9,0-12.5,5.6-12.5,12.5v95.3c0,6.9,5.6,12.5,12.5,12.5h96c7,0,12.5-5.6,12.5-12.5v-95.2c0-6.9-5.5-12.5-12.5-12.5h-33l-0.5-26.6
	c0-36.2-11.4-70.7-32.8-99.6c-19.1-25.8-44.8-45.4-74.4-56.9V141h98.2c4.5,27.8,28.7,49.1,57.8,49.1c32.4,0,58.6-26.2,58.6-58.6
	S524.6,72.9,492.2,72.9z"/>
</svg>
