<?xml version="1.0" encoding="utf-8"?>
<!-- Generator: Adobe Illustrator 21.1.0, SVG Export Plug-In . SVG Version: 6.00 Build 0)  -->
<svg version="1.1" id="Layer_1" xmlns="http://www.w3.org/2000/svg" xmlns:xlink="http://www.w3.org/1999/xlink" x="0px" y="0px"
	 viewBox="0 0 663 512" style="enable-background:new 0 0 663 512;" xml:space="preserve">
<path d="M663,318.1c-1-17.5-5.9-33.7-12.8-49.6c-20.3-46.2-69.7-77-119.6-77c-21.4,0-41.6,5.1-60.6,15.4l-29.3-52.8l8-17.9
	c1.8,0.3,3.4,0.5,4.8,0.4c8.4-0.1,27.5-18.2,32.3-30.1c2.3-5.3,4-16-2.6-16c-16.7,0-36.3,6.7-80.9,3.6c-6.8-0.2-8.9,3.1-9.4,4.8
	c-1.2,2.4,0.2,6.7,2.6,9.6c1.8,2.7,16.9,15,36.8,21.9l-3.8,9H213.6l6-18.5l-1.5-0.4l9.9-28.1c-1.3-0.5-7-3.2-8.3-4.3
	c-3.6-2.3-6.1-4.5-6.8-6.9c-1.4-4.6,4.1-8.4,7.6-8.9c3.3-0.8,7.6-1.3,12.9-1.5c11.6,0,24.2,1.3,37.9,3.9l1.8-10.7
	c-4.3-1.2-19.4-3.9-36-4.3c-8.1,0-14.5,0.9-20.1,1.9c-15.3,2.9-16.8,17.7-14.3,23.6c2.1,4.8,5.6,9.2,11.7,13.1l-6.8,18.5l-1.5-0.8
	l-30.7,85.8c-17.5-8.1-47.6-13.9-69.7-8.4l1.2,7.3C52.4,206.9,0,257.1,0,327c0,60.4,47.2,127.3,125.3,127.3
	c80.8,0,111-66.4,115.8-77.7l6.8,3.1c7-16.9,10.6-34.5,10.6-52.7c0-25.7-12.3-89.4-69.7-118.5l6.8-18.9L316,325.3
	c-6.5,8.3-6.8,17.8-6.8,22.4c0,17.1,13.9,35.2,35.5,35.2c1.2,0,2.8-0.2,4.6-0.4l5.6,21.9h-6.3c-1.2,0-2,0.9-2,2v11c0,1.2,0.9,2,2,2
	h27.8c1.1,0,2-0.9,2-2v-11c0-1.2-0.9-2-2-2h-10.1l-6.4-25c12.8-5.2,21-19.4,20.4-31.1l25.7-2.7c2.2,15.4,7.2,29.6,14.8,42.7
	c6.8,13.4,15.9,24.9,27.3,34.6c11.4,9.7,23.9,17.5,37.5,23.1c14.4,5.4,29.3,8,44.7,8c16.9,0,33.2-3.3,48.8-10
	c14.9-6.4,28.3-15.5,40.1-27.4c11.4-11.7,20.2-25.3,26.5-40.7c6.6-15.6,9.8-32.1,9.8-49.2c0-2.5-0.2-5.4-0.4-8.4L663,318.1z
	 M85.5,230.4c12.1-5.4,25-8.3,38.3-8.4v87.8c-1.5,0.2-2.9,0.5-4.3,1l-36.3-79.3C83.9,231.1,84.8,230.8,85.5,230.4z M80.5,232.7
	l36.5,79.4c-0.8,0.5-1.7,1.2-2.5,1.8L53.4,252C61.5,244,70.5,237.5,80.5,232.7z M30.3,286.2c5.1-12.1,12.1-22.8,21.3-32.3l60.8,62
	c-1.1,1.2-1.9,2.5-2.5,4l-81-30C29.3,288.6,29.8,287.4,30.3,286.2z M27.8,292.9l81.3,29.9c-0.2,0.8-0.2,1.7-0.3,2.5H22.3
	C22.5,314.1,24.3,303.2,27.8,292.9z M30.3,367.4c-5-12.2-7.7-25-8-38.5h86.5c0.2,1.5,0.5,2.9,0.9,4.2l-78.1,37
	C31.1,369.2,30.7,368.3,30.3,367.4z M32.7,372.6l78.1-36.9c0.5,0.8,1.1,1.6,1.8,2.3l-60.9,61.9C43.9,391.7,37.5,382.7,32.7,372.6z
	 M85.5,423.5c-11.9-5.2-22.5-12.4-31.8-21.6l61-62c1.2,1,2.4,1.8,3.6,2.4l-29.5,82.5C87.8,424.4,86.7,423.9,85.5,423.5z
	 M123.9,431.5L123.9,431.5c-11.1-0.2-21.7-2-31.9-5.6l29.5-82.4c0.8,0.2,1.6,0.5,2.5,0.5V431.5z M167.8,231.2l-17.1,48.4l-14.7,23
	l26.3-73.7C164.1,229.6,166,230.4,167.8,231.2z M127.2,222c11.1,0.2,21.9,2.2,32.2,5.8l-29.4,82.4c-0.9-0.2-1.9-0.3-2.7-0.4V222z
	 M165.4,423.5c-12,5.1-24.8,7.8-38.3,8v-87.3c1.4-0.2,2.8-0.5,4.1-1.1l36.5,79.4C167,422.8,166.2,423.2,165.4,423.5z M170.2,421.3
	L133.8,342c0.8-0.5,1.7-1,2.5-1.7l60.7,61.9C189,410,180.1,416.4,170.2,421.3z M220.4,367.4c-4.9,12.1-11.9,23-21,32.5l-60.9-61.7
	c0.9-1.1,1.7-2.2,2.5-3.5l80.7,29.8C221.2,365.3,220.8,366.3,220.4,367.4z M222.6,361.7l-80.5-29.8c0.2-0.9,0.4-1.9,0.6-2.9h86
	C228.5,340.3,226.5,351.1,222.6,361.7z M224.9,298.9c2.4,8.5,3.6,17.3,3.8,26.5h-86.1c-0.2-1.5-0.5-3-1-4.4l77.8-36.8
	C221.6,288.9,223.5,293.8,224.9,298.9z M214.3,274.3c1.4,2.4,2.7,4.9,4,7.3l-77.8,36.9c-0.2-0.4-0.5-0.8-0.7-1.1l4.9-7.7l54.8-55.6
	C205.1,260,210,266.8,214.3,274.3z M197.3,251.9l-45.1,45.8l8.3-13.1l17-48.1C184.8,241,191.4,246,197.3,251.9z M624,282.9
	l-75.6,35.9c-0.5-1-0.9-2-1.5-2.9l59.2-60.3C613.4,263.7,619.4,272.8,624,282.9z M570.6,230.4c12.1,5.1,23.1,12.6,32.9,22.3
	c0.2,0.2,0.5,0.5,0.7,0.8l-59.1,60c-0.2-0.2-0.4-0.5-0.6-0.7c-0.9-0.8-1.9-1.5-2.8-2.2l28.7-80.2
	C570.4,230.4,570.5,230.4,570.6,230.4z M535.4,222.1c11.2,0.5,21.9,2.9,32.1,7l-28.7,79.7c-0.2-0.2-0.5-0.2-0.8-0.4
	c-0.8-0.4-1.7-0.7-2.6-0.9V222.1z M488,231.3l21.3,46.1l-25-44.2C485.5,232.5,486.8,231.8,488,231.3z M434.3,288.9
	c1.7-4.4,3.7-8.8,6-13.1c5-8.7,10.9-16.5,17.8-23.5l55.5,56.4l2.5,4.4c-1.3,1.5-2.4,3.1-3.2,4.8L434.3,288.9z M511.8,320.7
	c-0.2,0.8-0.5,1.5-0.6,2.4l-20.9,2.3h-62.8c0.2-11.7,2.1-22.9,5.8-33.6L511.8,320.7z M474.8,238.5l33.5,60.6l-48.1-48.8
	C464.7,246,469.6,242,474.8,238.5z M345.5,356.5c-5.1,0-9.2-4.1-9.2-9.2c0-5.1,4.1-9.2,9.2-9.2c5.1,0,9.2,4.2,9.2,9.2
	C354.7,352.5,350.6,356.5,345.5,356.5z M352.9,311.2c-2.8-0.5-5.4-0.8-8-0.8h-3.4l-6.4-24.3h7c1.2,0,2.1-0.9,2.1-2.1v-11.3
	c0-1.2-0.9-2.1-2.1-2.1h-27.7c-1.2,0-2.1,0.9-2.1,2.1v11.4c0,1.1,0.9,2.1,2.1,2.1h8.9l7.2,27.3c-0.8,0.2-1.9,0.9-3.4,1.9l-125.7-142
	l6.4-18.8h214.3L352.9,311.2z M402.1,292c-2.9,11.3-5.5,28.1-4.2,43.4l-18.2,1.9c-1-5.6-7.6-16.5-13.6-19.9L434,165.5l26.1,46.9
	C435,228.8,411,257.1,402.1,292z M427.5,328.9h31.3l-31.3,3.5V328.9z M428.6,343.5l83.7-8.8c0.1,0.3,0.3,0.7,0.5,1l-75.6,35.8
	C432.9,362.7,430,353.3,428.6,343.5z M440.8,378.1c-0.8-1.4-1.5-2.8-2.3-4.2l75.7-35.9c0.9,1.2,2,2.4,3.3,3.5l-59.1,59.9
	C451.3,394.6,445.4,386.8,440.8,378.1z M494.1,424.6c-11.4-4.1-21.6-10.3-30.7-18.5c-1-0.8-1.9-1.7-2.9-2.5l59.3-60.3
	c1.8,1.2,3.6,2.1,5.6,2.5l-28.7,79.7C495.9,425.3,495,425,494.1,424.6z M532.4,431.5h-2c-10.4,0-20.5-1.6-30.2-4.7l28.7-80.3
	c0.6,0,1.1,0.1,1.6,0.1c0.6,0,1.3,0,1.9-0.1V431.5z M532.4,307L532.4,307c-0.7-0.1-1.3-0.1-2-0.1c-1.5,0-2.9,0.2-4.1,0.4L491,230
	c12.4-5.3,25.6-8,39.5-8h1.9V307z M570.6,423.5c-11.1,4.7-22.9,7.4-35.2,8V346c0.9-0.2,1.8-0.5,2.6-0.9c0.7-0.3,1.4-0.6,2-1l35.6,77
	C574,421.9,572.3,422.7,570.6,423.5z M603.5,400.8c-7.9,7.8-16.5,14.2-25.7,19.2l-35.3-77.3c0.7-0.5,1.4-0.9,2-1.4
	c0.2-0.2,0.3-0.4,0.5-0.6l59,59.8C603.8,400.5,603.7,400.7,603.5,400.8z M625.5,367.4c-4.9,11.4-11.4,21.8-19.6,30.8l-59.1-60.1
	c0.7-1.2,1.4-2.2,1.9-3.5c0.1-0.1,0.1-0.2,0.2-0.3l78.3,28.8C626.6,364.6,626.1,366,625.5,367.4z M628.1,360.5l-78.4-29
	c0.2-0.9,0.3-1.7,0.4-2.6h83.4C633.3,339.8,631.5,350.4,628.1,360.5z M550.1,325.4c-0.1-1.4-0.3-2.7-0.7-4l75.8-35.9
	c0.1,0.2,0.2,0.4,0.3,0.6c5.1,12.4,7.7,25.4,8,39.3H550.1z"/>
</svg>
