<?xml version="1.0" encoding="utf-8"?>
<!-- Generator: Adobe Illustrator 21.1.0, SVG Export Plug-In . SVG Version: 6.00 Build 0)  -->
<svg version="1.1" id="Layer_2" xmlns="http://www.w3.org/2000/svg" xmlns:xlink="http://www.w3.org/1999/xlink" x="0px" y="0px"
	 viewBox="0 0 512 512" style="enable-background:new 0 0 512 512;" xml:space="preserve">
<g>
	<g>
		<path d="M495.7,264.7c-30.5-53.8-114-142-119-146.7c-16.4-15.5-27.5-39.7-53.7-39.7c-23.3,0-40.4,18.9-42.5,33.5
			c0,19.5,0,28.6,0,28.6s-11-7.7-24.4-7l0,0c-13.4-0.8-24.4,7-24.4,7s0-9.2,0-28.6c-2.1-14.6-19.2-33.5-42.5-33.5
			c-26.2,0-37.4,24.3-53.7,39.7c-5,4.8-88.9,93.5-119.2,147.2C5.9,282.1,0,301.9,0,323.1c0,62.1,50.3,112.3,112.3,112.3
			s112.3-50.3,112.3-112.3c0-3-0.1-5.9-0.3-8.9c15.7,10.6,31.8,9.5,31.8,9.5v0.1c0,0,16,1.1,31.8-9.5c-0.2,2.9-0.3,5.9-0.3,8.8
			c0,62.1,50.3,112.3,112.3,112.3S512,385.1,512,323.1C512.1,301.7,506.1,281.7,495.7,264.7z M111.3,406.1
			c-45.7,0-82.7-37-82.7-82.7s37-82.7,82.7-82.7s82.7,37,82.7,82.7S156.9,406.1,111.3,406.1z M256.8,272.8
			c-17.7,0-32.1-14.3-32.1-32.1s14.3-32.1,32.1-32.1c17.8,0,32.1,14.3,32.1,32.1S274.5,272.8,256.8,272.8z M400.1,406.1
			c-45.7,0-82.7-37-82.7-82.7s37-82.7,82.7-82.7c45.7,0,82.6,37,82.6,82.7S445.7,406.1,400.1,406.1z"/>
	</g>
</g>
</svg>
