<?xml version="1.0" encoding="utf-8"?>
<!-- Generator: Adobe Illustrator 21.1.0, SVG Export Plug-In . SVG Version: 6.00 Build 0)  -->
<svg version="1.1" xmlns="http://www.w3.org/2000/svg" xmlns:xlink="http://www.w3.org/1999/xlink" x="0px" y="0px"
	 viewBox="0 0 351 512" style="enable-background:new 0 0 351 512;" xml:space="preserve">
<path id="bitcoin" d="M348,188.5C348,123,295,70,229.5,70H222V0h-63v70h-49V0H47v70H1v155v82v155h46v50h63v-50h49v50h63v-50h7.5
	C295,462,348,409,348,343.5c0-29.6-10.9-56.7-28.9-77.5C337.1,245.2,348,218.1,348,188.5z M114,157h96.5c9.5,0,18.2,3.9,24.4,10.1
	S245,182,245,191.5c0,16.2-11.2,29.8-26.3,33.5H114V157z M234.9,364.9c-6.2,6.2-14.9,10.1-24.4,10.1H114v-68h104.7
	c15.1,3.7,26.3,17.3,26.3,33.5C245,350,241.1,358.7,234.9,364.9z"/>
</svg>
