<?xml version="1.0" encoding="utf-8"?>
<!-- Generator: Adobe Illustrator 21.1.0, SVG Export Plug-In . SVG Version: 6.00 Build 0)  -->
<svg version="1.1" id="Layer_1" xmlns="http://www.w3.org/2000/svg" xmlns:xlink="http://www.w3.org/1999/xlink" x="0px" y="0px"
	 viewBox="0 0 545.2 512" style="enable-background:new 0 0 545.2 512;" xml:space="preserve">
<path d="M364.3,1l-0.6-0.4c-0.8-0.7-1.5-0.5-2.2,0.2c-0.4,0.4-0.8,0.9-1.2,1.6c-11,18.3-25.4,35.7-42.3,52.5
	c-74.8,74.8-196.7,137.7-270.7,211.8C28,285.9,12,305.9,0.9,327.1c54.8,63.6,180,184.7,180.4,184.3c7.5-9.7,15.3-19,23.2-27.9
	s16-17.4,24.1-25.6c95.2-95.2,206-142.5,269.8-206.3c21.6-21.6,37.8-45,46.3-72.9C481.9,121.6,427,58,364.3,1z M252.3,370.5
	L237.2,386L225,373.8l-11.7,12l12.2,12.2l-15.1,15.5l-12.2-12.2l-10.9,11.2l-37.5-37.7L130,354.9l-37.7-37.7l10.9-11.2L86,289.1
	l15.1-15.5l17.1,16.9l11.7-12l-16.8-16.9l15-15.3l16.9,16.9l1.6-1.8c15.6-16,41.1-16.1,56.9-0.2c7.2,7.2,11.2,16.5,11.8,26
	c9.2,0.7,18.4,4.6,25.7,11.7c15.8,16,16.1,41.8,0.5,57.9l-1.7,1.8L252.3,370.5z M296.8,161.4c27.9-20.3,54.9-41.2,78.9-63.4
	l23.2,23.2c-21.5,20.2-49.5,39.6-81.4,60.8L296.8,161.4z M382.2,246.9l-20.7-20.7c27.9-20.2,54.9-41.2,78.9-63.4l23.2,23.2
	C442.1,206.3,414.2,225.6,382.2,246.9z M215.8,323.2c-3.8-4.1-9.7-4.6-14.2-1.8l-25,25.7l16.5,16.6l23-23.7c2.3-2.3,3.5-5.4,3.3-8.4
	C219.3,328.6,218.3,325.5,215.8,323.2z M180.1,286.8c-2.3-2.3-5.4-3.5-8.4-3.5c-3.1,0-6.1,1.2-8.4,3.6l-23,23.7l16.6,16.5l24.8-25.7
	C184.7,296.8,183.9,290.8,180.1,286.8z"/>
</svg>
