<?xml version="1.0" encoding="utf-8"?>
<!-- Generator: Adobe Illustrator 21.1.0, SVG Export Plug-In . SVG Version: 6.00 Build 0)  -->
<svg version="1.1" id="Layer_1" xmlns="http://www.w3.org/2000/svg" xmlns:xlink="http://www.w3.org/1999/xlink" x="0px" y="0px"
	 viewBox="0 0 512 512" style="enable-background:new 0 0 512 512;" xml:space="preserve">
<path d="M441,0H71C31.8,0,0,31.8,0,71v370c0,39.2,31.8,71,71,71h370c39.2,0,71-31.8,71-71V71C512,31.8,480.2,0,441,0z M387.9,317.3
	c0,49.3-39.9,89.1-89.1,89.1h-5.6V444h-47.4v-37.6H209V444h-47.4v-37.6H127V111.6h34.6V59H209v52.6h36.8V59h47.4v52.6h5.6
	c49.3,0,89.1,39.9,89.1,89.1c0,22.3-8.2,42.6-21.7,58.3C379.7,274.6,387.9,295,387.9,317.3z M284.5,177H212v51.1h78.7
	c11.3-2.8,19.8-13,19.8-25.2c0-7.2-2.9-13.7-7.6-18.4C298.2,180,291.7,177,284.5,177z M290.7,289.8H212v51.1h72.6
	c7.1,0,13.7-2.9,18.3-7.6c4.7-4.7,7.6-11.2,7.6-18.3C310.5,302.8,302,292.6,290.7,289.8z"/>
</svg>
