<?xml version="1.0" encoding="utf-8"?>
<!-- Generator: Adobe Illustrator 21.1.0, SVG Export Plug-In . SVG Version: 6.00 Build 0)  -->
<svg version="1.1" id="Layer_2" xmlns="http://www.w3.org/2000/svg" xmlns:xlink="http://www.w3.org/1999/xlink" x="0px" y="0px"
	 viewBox="0 0 502.3 512" style="enable-background:new 0 0 502.3 512;" xml:space="preserve">
<g id="fill">
	<polygon points="241.1,94.9 252.3,89.5 263.4,94.9 261.3,83.5 270.4,75.4 257.9,73.7 252.3,63.3 246.7,73.7 234.1,75.4 243.2,83.5 
			"/>
	<polygon points="164.9,107.2 169.3,118 176,108.2 188.7,107.8 180.6,98.8 184,87.7 172.3,92 161.8,85.5 162.6,97.1 152.6,104.3 	
		"/>
	<polygon points="97.8,166.7 110,163.5 119.7,171 120.2,159.4 130.9,153.2 119.1,149.2 116,137.9 108.1,147 95.5,146.3 102.5,155.9 
			"/>
	<polygon points="99.8,229.2 105.7,219 93.2,220.9 84.4,212.6 82.6,224.1 71.3,229.2 82.6,234.4 84.4,245.8 93.2,237.5 105.7,239.5 
			"/>
	<polygon points="119.7,287.5 110,294.9 97.8,291.8 102.5,302.5 95.5,312.2 108.1,311.4 116,320.5 119.1,309.3 130.9,305.3 
		120.2,299.1 	"/>
	<polygon points="176,350.2 169.3,340.4 164.9,351.3 152.6,354.2 162.6,361.3 161.8,372.9 172.3,366.5 184,370.8 180.6,359.6 
		188.7,350.7 	"/>
	<polygon points="263.5,363.6 252.3,369 241.1,363.6 243.2,375 234.1,383.1 246.7,384.8 252.3,395.2 257.9,384.8 270.4,383.1 
		261.3,375 	"/>
	<polygon points="339.6,351.3 335.2,340.4 328.5,350.2 315.8,350.7 323.9,359.6 320.5,370.8 332.2,366.5 342.8,372.9 341.9,361.3 
		351.9,354.2 	"/>
	<polygon points="406.7,291.8 394.5,294.9 384.8,287.5 384.3,299.1 373.6,305.3 385.4,309.3 388.5,320.5 396.4,311.4 409,312.2 
		402,302.5 	"/>
	<polygon points="421.9,224.1 420.1,212.6 411.3,220.9 398.8,219 404.7,229.2 398.8,239.5 411.3,237.5 420.1,245.8 421.9,234.4 
		433.3,229.2 	"/>
	<polygon points="384.8,171 394.5,163.5 406.7,166.7 402,155.9 409,146.3 396.4,147 388.5,137.9 385.4,149.2 373.6,153.2 
		384.3,159.4 	"/>
	<polygon points="328.5,108.2 335.2,118 339.6,107.1 351.9,104.3 341.9,97.1 342.8,85.5 332.2,92 320.5,87.7 323.9,98.8 
		315.8,107.8 	"/>
	<path d="M275.5,208.1c2.9-4.1,3.1-10.4,1.1-14.6c-4.9-9.9-23.9-7.5-38.5-7.9c-0.3,0.1-0.5,0.3-0.5,0.8V215
		C252.9,214.9,269.4,216.6,275.5,208.1z"/>
	<path d="M252.3,105.2c-74.6,0-135.3,55.6-135.3,124s60.7,124,135.3,124c74.6,0,135.3-55.6,135.3-124
		C387.5,160.8,326.8,105.2,252.3,105.2z M280.3,285v21.5h-21.1v-19.4c-4.1-0.6-9.4-0.1-13.9-0.3v19.7h-21.1v-19.7
		c-10.8-0.2-22.3,0.3-32.6-0.3c0.2-5.5-0.3-11.6,0.3-16.6c4.7,0.1,11.2,0.6,13.4-2.5c2.4-3.5,1.3-13.7,1.3-19.9v-42.7
		c0-6.3,1-17.2-1.6-19.9c-2.4-2.6-9.3-1.4-13.4-2c0.2-5.5-0.3-11.6,0.3-16.6h32.3v-19.7h21.1V166c4.1,0.6,9.3,0.1,13.9,0.3v-19.7
		h21.1v21c15,3.8,28.1,11.2,28.1,28.4c0,14.8-11,22.8-23.3,27.1c15.8,4.2,28.1,12.5,27.8,30.7C312.6,271.6,297,281.7,280.3,285z"/>
	<path d="M238.1,232.7c-0.3,0.1-0.5,0.3-0.5,0.8v17.1c0,4.5-1.1,14.1,1.3,16.1c1.3,1.1,5.4,0.8,8.3,0.8c10.2,0,19.3,0.3,24.8-3.1
		c6.1-3.6,10.4-12.1,7.5-20.7C275.3,230.9,255.9,232.8,238.1,232.7z"/>
	<path d="M502.2,235.8c0-0.5,0-1.1,0-1.6c0-1.7,0.1-3.3,0.1-5c0-4-0.1-7.9-0.3-11.8C495.3,96.3,386.1,0,252.3,0
		C116.4,0,5.9,99.2,2.3,222.9c-0.1,2.1-0.1,4.2-0.1,6.3c0,1.7,0,3.3,0.1,5c0,0.5,0,1,0,1.5c0,0.1,0,0.2,0,0.3H2.2v52.1h0.1
		c0.7,27.4,6.6,53.5,17,77.7c1.3,3,2.6,5.9,4,8.8c2.8,5.8,5.8,11.4,9,16.9c1.3,2.2,2.7,4.5,4.1,6.7c18.6,29.1,43.9,54.1,74,73.2
		c1.5,1,3.1,1.9,4.7,2.9c2.7,1.7,5.5,3.3,8.3,4.8c1.6,0.9,3.2,1.7,4.8,2.6c2.7,1.4,5.5,2.8,8.2,4.2c1.6,0.8,3.2,1.5,4.9,2.3
		c2.7,1.2,5.4,2.4,8.2,3.5c1.6,0.7,3.3,1.3,5,2c2.7,1,5.3,2.1,8.1,3c1.7,0.6,3.4,1.2,5.1,1.7c2.6,0.9,5.3,1.7,8,2.5
		c1.7,0.5,3.4,1,5.2,1.5c2.6,0.7,5.2,1.4,7.9,2c1.7,0.4,3.5,0.8,5.3,1.2c2.6,0.6,5.2,1.1,7.8,1.6c1.8,0.3,3.6,0.7,5.4,1
		c2.5,0.4,5.1,0.8,7.7,1.2c1.8,0.3,3.6,0.5,5.5,0.7c2.5,0.3,5,0.6,7.6,0.8c1.8,0.2,3.7,0.3,5.6,0.4c2.5,0.2,5,0.3,7.5,0.4
		c1.9,0.1,3.8,0.1,5.7,0.2c2,0,4,0.1,6,0.1c1.5,0,3.1,0,4.6-0.1c1.9,0,3.8-0.1,5.6-0.2c2.5-0.1,5-0.2,7.5-0.4
		c1.9-0.1,3.7-0.3,5.6-0.4c2.5-0.2,5.1-0.5,7.6-0.7c1.8-0.2,3.6-0.4,5.5-0.7c2.6-0.3,5.1-0.7,7.7-1.1c1.8-0.3,3.6-0.6,5.4-0.9
		c2.6-0.5,5.2-1,7.8-1.6c1.8-0.4,3.5-0.8,5.3-1.2c2.6-0.6,5.3-1.3,7.9-2c1.7-0.5,3.4-0.9,5.2-1.4c2.7-0.8,5.3-1.6,8-2.4
		c1.7-0.6,3.4-1.1,5.1-1.7c2.7-0.9,5.4-1.9,8.1-2.9c1.7-0.6,3.3-1.3,5-2c2.7-1.1,5.5-2.3,8.2-3.5c1.6-0.7,3.3-1.5,4.9-2.2
		c2.8-1.3,5.5-2.7,8.2-4.1c1.6-0.8,3.2-1.7,4.8-2.5c2.9-1.6,5.7-3.2,8.5-4.9c1.5-0.9,3-1.8,4.5-2.8c30.7-19.2,56.5-44.5,75.4-73.9
		c0.9-1.5,1.8-2.9,2.7-4.4c3.2-5.3,6.2-10.8,9-16.4c1.4-2.8,2.7-5.6,4-8.5c11.2-25.1,17.7-52.4,18.4-81h0.1v-5.4V236h-0.1
		C502.2,236,502.2,235.9,502.2,235.8z M252.3,406.3C145.5,406.3,59,327,59,229.2S145.5,52,252.3,52s193.3,79.3,193.3,177.2
		S359,406.3,252.3,406.3z M17.8,309c0.5,1.1,0.9,2.3,1.4,3.4v5.6C18.7,315.1,18.2,312.1,17.8,309z M23.2,335.6v-14.4
		c2.8,5.8,5.8,11.4,9,16.9v23.3C28.7,353.1,25.6,344.5,23.2,335.6z M36.3,370.4v-25.6c2.8,4.4,5.8,8.8,8.9,13v29.1
		C42,381.5,39.1,376.1,36.3,370.4z M49.4,393.6v-30.3c2.8,3.6,5.8,7.1,8.8,10.5v32.3C55.2,402,52.2,397.9,49.4,393.6z M62.6,411.6
		v-33.1c2.8,3,5.7,6,8.7,8.9v34.3C68.3,418.4,65.4,415,62.6,411.6z M75.7,426.4v-34.9c2.8,2.6,5.7,5.1,8.6,7.5v35.8
		C81.4,432.1,78.5,429.3,75.7,426.4z M88.8,438.9v-36.2c2.8,2.2,5.6,4.4,8.5,6.5V446C94.4,443.7,91.6,441.3,88.8,438.9z
		 M101.9,449.6v-37.2c2.8,1.9,5.6,3.8,8.4,5.6v37.8C107.5,453.7,104.7,451.7,101.9,449.6z M115,458.9v-38.1c2.7,1.7,5.5,3.3,8.3,4.8
		v38.5C120.6,462.4,117.8,460.7,115,458.9z M128.2,466.9v-38.7c2.7,1.4,5.5,2.8,8.2,4.1v39C133.6,469.9,130.9,468.4,128.2,466.9z
		 M141.3,473.8v-39.2c1.3,0.6,2.6,1.2,3.9,1.8c0.4,0.2,0.7,0.3,1.1,0.5c1,0.4,2.1,0.9,3.1,1.3v39.5
		C146.7,476.4,144,475.1,141.3,473.8z M154.4,479.8v-39.6c2.7,1,5.3,2,8.1,3V483C159.7,482,157.1,480.9,154.4,479.8z M175.5,487.5
		c-2.7-0.8-5.3-1.7-8-2.7v-39.9c2.6,0.9,5.3,1.7,8,2.5V487.5z M188.5,491.2c-2.6-0.7-5.3-1.4-7.9-2.2v-40.2c2.6,0.7,5.2,1.4,7.9,2
		V491.2z M201.5,494.2c-2.6-0.5-5.2-1.1-7.8-1.7v-40.4c2.6,0.6,5.2,1.1,7.8,1.6V494.2z M214.5,496.5c-2.6-0.4-5.1-0.8-7.7-1.3v-40.6
		c2.5,0.4,5.1,0.8,7.7,1.2V496.5z M227.6,498.1c-2.5-0.2-5.1-0.5-7.6-0.8v-40.7c2.5,0.3,5,0.5,7.6,0.8V498.1z M240.6,499
		c-2.5-0.1-5-0.3-7.5-0.5v-40.7c2.5,0.2,5,0.3,7.5,0.4V499z M256.8,499.2c-1.5,0-3.1,0-4.6,0c-2,0-4,0-6-0.1v-40.8c2,0,4,0.1,6,0.1
		c1.5,0,3.1-0.1,4.6-0.1V499.2z M270,498.6c-2.5,0.2-5,0.3-7.5,0.4v-40.8c2.5-0.1,5-0.2,7.5-0.4V498.6z M283.1,497.4
		c-2.5,0.3-5,0.6-7.6,0.8v-40.8c2.5-0.2,5.1-0.4,7.6-0.7V497.4z M296.2,495.5c-2.5,0.4-5.1,0.8-7.7,1.2V456c2.6-0.3,5.1-0.7,7.7-1.1
		V495.5z M309.3,492.8c-2.6,0.6-5.2,1.1-7.8,1.7V454c2.6-0.5,5.2-1,7.8-1.6V492.8z M322.4,489.5c-2.6,0.7-5.2,1.4-7.9,2.1v-40.4
		c2.6-0.6,5.3-1.3,7.9-2V489.5z M335.6,485.3c-2.6,0.9-5.3,1.8-8,2.6v-40.1c1.6-0.5,3.2-1,4.8-1.5c0,0,0,0,0,0c1-0.3,2-0.6,3.1-1
		V485.3z M348.7,480.4c-2.7,1.1-5.3,2.1-8.1,3.1v-39.9c0.5-0.2,1.1-0.4,1.6-0.6c0.8-0.3,1.6-0.6,2.4-0.9c1.4-0.5,2.7-1,4-1.5V480.4z
		 M353.6,478.2v-39.5c2.7-1.1,5.5-2.3,8.2-3.5v39.3C359.1,475.8,356.4,477,353.6,478.2z M366.7,472.1V433c2.8-1.3,5.5-2.7,8.2-4.1
		v38.8C372.2,469.2,369.5,470.7,366.7,472.1z M379.7,464.9v-38.5c2.8-1.5,5.6-3.1,8.3-4.7v38.1C385.3,461.6,382.5,463.3,379.7,464.9
		z M392.7,456.7v-37.9c2.9-1.8,5.7-3.6,8.4-5.5v37.4C398.4,452.7,395.6,454.7,392.7,456.7z M405.7,447.2v-37
		c2.9-2.1,5.7-4.2,8.5-6.4v36.4C411.5,442.5,408.6,444.9,405.7,447.2z M418.8,436.1v-36c2.9-2.4,5.8-4.9,8.6-7.4v35.1
		C424.6,430.7,421.7,433.4,418.8,436.1z M431.8,423.3v-34.6c3-2.8,5.9-5.7,8.7-8.7v33.3C437.7,416.7,434.8,420,431.8,423.3z
		 M444.8,408v-32.6c3.1-3.4,6-6.8,8.8-10.4v30.7C450.8,399.9,447.9,404,444.8,408z M457.8,389.2v-29.6c3.1-4.1,6.1-8.3,8.9-12.7
		v26.3C464,378.7,461,384.1,457.8,389.2z M470.8,364.7v-24.2c3.2-5.3,6.3-10.8,9-16.3v16.4C477.4,348.8,474.4,356.9,470.8,364.7z
		 M483.9,315.7c1-2.2,1.9-4.4,2.8-6.7c-0.7,5.5-1.7,10.8-2.8,16.2V315.7z"/>
</g>
</svg>
