<?xml version="1.0" encoding="utf-8"?>
<!-- Generator: Adobe Illustrator 21.1.0, SVG Export Plug-In . SVG Version: 6.00 Build 0)  -->
<svg version="1.1" id="Layer_1" xmlns="http://www.w3.org/2000/svg" xmlns:xlink="http://www.w3.org/1999/xlink" x="0px" y="0px"
	 viewBox="0 0 512 512" style="enable-background:new 0 0 512 512;" xml:space="preserve">
<path d="M256,0C115.2,0,0,115.2,0,256s115.2,256,256,256s256-115.2,256-256S396.8,0,256,0z M390.9,324.3c0,49.3-39.9,89.1-89.1,89.1
	h-5.6V451h-47.4v-37.6H212V451h-47.4v-37.6H130V118.6h34.6V66H212v52.6h36.8V66h47.4v52.6h5.6c49.3,0,89.1,39.9,89.1,89.1
	c0,22.3-8.2,42.6-21.7,58.3C382.7,281.6,390.9,302,390.9,324.3z M287.5,184H215v51.1h78.7c11.3-2.8,19.8-13,19.8-25.2
	c0-7.2-2.9-13.7-7.6-18.4C301.2,187,294.7,184,287.5,184z M293.7,296.8H215v51.1h72.6c7.1,0,13.7-2.9,18.3-7.6
	c4.7-4.7,7.6-11.2,7.6-18.3C313.5,309.8,305,299.6,293.7,296.8z"/>
</svg>
