<?xml version="1.0" encoding="utf-8"?>
<!-- Generator: Adobe Illustrator 21.1.0, SVG Export Plug-In . SVG Version: 6.00 Build 0)  -->
<svg version="1.1" id="Layer_1" xmlns="http://www.w3.org/2000/svg" xmlns:xlink="http://www.w3.org/1999/xlink" x="0px" y="0px"
	 viewBox="0 0 385.7 512" style="enable-background:new 0 0 385.7 512;" xml:space="preserve">
<g>
	<polygon points="219.9,363.2 248.1,335.1 219.9,307 	"/>
	<polygon points="219.9,149 219.9,205.2 248.1,177.1 	"/>
	<path d="M235.7,0H150C67.2,0,0,67.2,0,150v212c0,82.8,67.2,150,150,150h85.7c82.8,0,150-67.2,150-150V150
		C385.7,67.2,318.6,0,235.7,0z M307.6,335.1L177.8,464.9V307L108,376.7l-29.8-29.8l90.8-90.8l-90.9-90.9l29.8-29.8l69.9,69.9v-158
		l129.9,129.8l-79,79L307.6,335.1z"/>
</g>
</svg>
