<?xml version="1.0" encoding="utf-8"?>
<!-- Generator: Adobe Illustrator 21.1.0, SVG Export Plug-In . SVG Version: 6.00 Build 0)  -->
<svg version="1.1" id="Layer_2" xmlns="http://www.w3.org/2000/svg" xmlns:xlink="http://www.w3.org/1999/xlink" x="0px" y="0px"
	 viewBox="0 0 431.1 512" style="enable-background:new 0 0 431.1 512;" xml:space="preserve">
<path id="fill" d="M356,43v-8.1C356,15.6,340.4,0,321.1,0H110.9C91.6,0,76,15.6,76,34.9V43H24.5C11,43,0,54,0,67.5v420
	C0,501,11,512,24.5,512h382c13.5,0,24.5-11,24.5-24.5v-420C431,54,420,43,406.5,43H356z M119.7,32h192.7c6.4,0,11.7,5.2,11.7,11.7
	v17.7c0,6.4-5.2,11.7-11.7,11.7H119.7c-6.4,0-11.7-5.2-11.7-11.7V43.7C108,37.2,113.2,32,119.7,32z M195.1,335.6L139.5,430
	c-4.6,7.7-14.5,10.3-22.3,5.8c-0.6-0.3-1.1-0.7-1.6-1.1c-1.1-0.7-2.4-1.6-3.3-2.6l-32.7-32.9c-6.3-6.4-6.2-16.7,0.2-23
	c6.5-6.2,16.7-6.2,23,0.2l19.3,19.2l45-76.4c4.6-7.7,14.4-10.3,22.2-5.8C197,318,199.6,327.8,195.1,335.6z M195.1,151.4l-55.6,94.4
	c-4.6,7.7-14.5,10.3-22.3,5.8c-0.6-0.3-1.1-0.7-1.6-1c-1.1-0.7-2.4-1.6-3.3-2.6L79.6,215c-6.3-6.4-6.2-16.7,0.2-23
	c6.5-6.2,16.7-6.2,23,0.2l19.3,19.2l45-76.4c4.6-7.7,14.4-10.3,22.2-5.8C197,133.7,199.6,143.6,195.1,151.4z M356,435H225v-47h131
	V435z M356,362H225v-47h131V362z M356,250H225v-47h131V250z M356,177H225v-47h131V177z"/>
</svg>
