<?xml version="1.0" encoding="utf-8"?>
<!-- Generator: Adobe Illustrator 22.0.1, SVG Export Plug-In . SVG Version: 6.00 Build 0)  -->
<svg version="1.1" id="Layer_2_1_" xmlns="http://www.w3.org/2000/svg" xmlns:xlink="http://www.w3.org/1999/xlink" x="0px" y="0px"
	 viewBox="0 0 286.2 512" style="enable-background:new 0 0 286.2 512;" xml:space="preserve">
<style type="text/css">
	.st0{fill:#010202;}
</style>
<g>
	<path class="st0" d="M0,407.8h286.2v37.6c0,20.1-16.1,36.1-36.1,36.1h-25.6l-7.2,25.7c-1.6,3.2-4,5.6-8,5.6H77c-4,0-7.2-2.4-8-5.6
		l-7.2-25.7H36.1C16,481.5,0,465.4,0,445.4V407.8z"/>
	<path class="st0" d="M163.5,376.2l-14.9,14.9h-14.5l22.1-22.1c1.7-1.7,4.5-1.7,6.2,0l1,1C165.2,371.7,165.2,374.5,163.5,376.2z"/>
	<path class="st0" d="M250.1,53h-44V8c0-4-3.2-8-6.3-8h-26.6c-3.2,0-6.3,4-6.3,8v45h-36.3V37.6c0-4-5.1-8-10.2-8h-11V8
		c0-4-1.7-8-3.3-8H92c-1.7,0-3.3,4-3.3,8v21.5h-11c-6.1,0-10.2,4-10.2,8V53H36.1C16,53,0,69,0,89.1v302.1h97.9
		c0.1-24.9,20.3-45,45.3-45c24.9,0,45.1,20.1,45.3,45h97.8V89.1C286.2,69,270.2,53,250.1,53z M142.7,233.6
		c-16.8,0-30.4-13.6-30.4-31.2c0-14.4,20-47.2,24-53.6c1.6-2.4,4-4,6.4-4s5.6,1.6,6.4,4c4,6.4,24,40,24,53.6
		C173.1,220,159.5,233.6,142.7,233.6z"/>
</g>
</svg>
