<?xml version="1.0" encoding="utf-8"?>
<!-- Generator: Adobe Illustrator 22.0.1, SVG Export Plug-In . SVG Version: 6.00 Build 0)  -->
<svg version="1.1" id="Layer_2_1_" xmlns="http://www.w3.org/2000/svg" xmlns:xlink="http://www.w3.org/1999/xlink" x="0px" y="0px"
	 viewBox="0 0 286.2 512" style="enable-background:new 0 0 286.2 512;" xml:space="preserve">
<style type="text/css">
	.st0{fill:#010202;}
</style>
<g>
	<path class="st0" d="M0,407.8h286.2v37.6c0,20.1-16.1,36.1-36.1,36.1h-25.6l-7.2,25.7c-1.6,3.2-4,5.6-8,5.6H77c-4,0-7.2-2.4-8-5.6
		l-7.2-25.7H36.1C16,481.5,0,465.4,0,445.4V407.8z"/>
	<path class="st0" d="M163.5,376.2l-14.9,14.9h-14.5l22.1-22.1c1.7-1.7,4.5-1.7,6.2,0l1,1C165.2,371.7,165.2,374.5,163.5,376.2z"/>
	<path class="st0" d="M86.6,274.8c-2.8,0-5.1,2.3-5.1,5.1c0,2.8,2.2,5.1,5.1,5.1c2.8,0,5-2.2,5-5.1
		C91.7,277.1,89.5,274.8,86.6,274.8z M86.6,274.8c-2.8,0-5.1,2.3-5.1,5.1c0,2.8,2.2,5.1,5.1,5.1c2.8,0,5-2.2,5-5.1
		C91.7,277.1,89.5,274.8,86.6,274.8z M250.1,53h-44V8c0-4-3.2-8-6.3-8h-26.6c-3.2,0-6.3,4-6.3,8v45h-36.3V37.6c0-4-5.1-8-10.2-8h-11
		V8c0-4-1.7-8-3.3-8H92c-1.7,0-3.3,4-3.3,8v21.5h-11c-6.1,0-10.2,4-10.2,8V53H36.1C16,53,0,69,0,89.1v302.1h97.9
		c0.1-24.9,20.3-45,45.3-45c24.9,0,45.1,20.1,45.3,45h97.8V89.1C286.2,69,270.2,53,250.1,53z M167.6,158.8c5-5.1,11.3-7.9,17.8-8.3
		h0.4c2.2,0,4,1.8,4,4.1c0,1.1-0.5,2.1-1.2,2.9l-9,9c-3.8,3.8-3.7,9.9,0,13.7l6.8,6.8c3.8,3.8,9.9,3.8,13.7,0l7.8-7.7l1.2-1.2
		c0.8-0.7,1.8-1.1,2.9-1.1c2.2,0,4,1.8,4,4v0.4c-0.4,6.5-3.2,12.9-8.3,17.9c-7.4,7.3-17.9,9.7-27.3,7.3l-19.2,19.2L141,205.3
		l19.2-19.2C157.8,176.6,160.3,166.2,167.6,158.8z M95.7,291.1c-2.6,2.6-6.2,4.1-10.1,4.1c-7.8,0-14.2-6.4-14.2-14.2
		c0-3.9,1.5-7.6,4-10.2l51-50.9l20.3,20.3L95.7,291.1z M213.8,282.1l-10.5,10.5c-3.6,3.6-9.8,3.3-13.6-0.5l-28.1-28.1
		c-3.7-3.7-2-7.3-1.9-7.5c-0.3,0.1-4,1.4-6.3-0.9l-4.4-4.4c-1.2-1.2-1.2-3.1,0-4.3l6.2-6.2l-67.9-68.8c0,0-4.5,1.4-6.3-0.4
		c-1.8-1.9-9.2-14.9-9.2-14.9h-0.2l6-6h0.7c0,0,13.3,6.8,15.2,8.6c1.8,1.8,0.7,6,0.7,6l68.5,68.4l5.7-6c1.2-1.2,2.9-1.2,4.1,0
		l4.4,4.4c2.6,2.6,0.9,6.3,0.9,6.3s3.3-1.4,7.1,2.4l28.1,28.1C216.7,272.9,217.2,278.6,213.8,282.1z M181.9,246.9
		c-0.7-0.7-2.4-0.2-3.8,1.2c-1.4,1.4-1.9,3.1-1.2,3.8l24,23.9c0.7,0.7,2.4,0.2,3.8-1.2c1.4-1.2,2.1-2.8,1.5-3.6L181.9,246.9z
		 M172.6,256.2c-0.7-0.7-2.4-0.2-3.8,1.2c-1.4,1.4-1.9,3.1-1.2,3.8l24,23.9c0.7,0.7,2.4,0.2,3.8-1.2c1.4-1.2,2.1-2.8,1.5-3.8
		L172.6,256.2z M86.6,274.8c-2.8,0-5.1,2.3-5.1,5.1c0,2.8,2.2,5.1,5.1,5.1c2.8,0,5-2.2,5-5.1C91.7,277.1,89.5,274.8,86.6,274.8z
		 M86.6,274.8c-2.8,0-5.1,2.3-5.1,5.1c0,2.8,2.2,5.1,5.1,5.1c2.8,0,5-2.2,5-5.1C91.7,277.1,89.5,274.8,86.6,274.8z M86.6,274.8
		c-2.8,0-5.1,2.3-5.1,5.1c0,2.8,2.2,5.1,5.1,5.1c2.8,0,5-2.2,5-5.1C91.7,277.1,89.5,274.8,86.6,274.8z"/>
</g>
</svg>
