<?xml version="1.0" encoding="utf-8"?>
<!-- Generator: Adobe Illustrator 21.1.0, SVG Export Plug-In . SVG Version: 6.00 Build 0)  -->
<svg version="1.1" id="Layer_1" focusable="false" xmlns="http://www.w3.org/2000/svg" xmlns:xlink="http://www.w3.org/1999/xlink"
	 x="0px" y="0px" viewBox="0 0 384 512" style="enable-background:new 0 0 384 512;" xml:space="preserve">
<path id="_x37_2" d="M301.8,246.3c50.8,19.1,76.2,54.5,76.2,106.1c0,41.1-14.8,73.3-44.4,96.6c-15,11.7-45.5,33-125.5,33H17v-21.8
	c10.2-2.5,20.9-7.3,25-11.3c10.9-10.9,10.2-31.3,10.2-41.2c0-9-0.2-233-0.2-310.6c0-8.8-0.6-25-11.6-33.4
	c-4.7-3.6-16.4-8.3-23.3-9.9V32h188.2c78.5,0,104.4,18.5,117.9,29c26.7,20.9,40.1,51,40.1,90.3C363.1,195.3,342.7,226.9,301.8,246.3
	z M144.2,211h58.3c49.8,0,62.2-25.1,62.2-52.4c0-36.8-19.2-52.4-72.5-52.4h-48V211z M144.2,407.8h42.4c54.3,0,90.7-12.1,90.7-61.3
	c0-43.1-26.4-61.3-90.7-61.3h-42.4V407.8z"/>
</svg>
