<?xml version="1.0" encoding="utf-8"?>
<!-- Generator: Adobe Illustrator 21.1.0, SVG Export Plug-In . SVG Version: 6.00 Build 0)  -->
<svg version="1.1" id="Layer_1" xmlns="http://www.w3.org/2000/svg" xmlns:xlink="http://www.w3.org/1999/xlink" x="0px" y="0px"
	 viewBox="0 0 240 512" style="enable-background:new 0 0 240 512;" xml:space="preserve">
<g>
	<path d="M0,0v104.6l66.1,32.8c-11.7,25.1-20.8,52.4-31.4,81h172.4c-9.3-28.3-23.6-55.2-34.2-80.1l66.7-33L240,0H0z M119.9,32.7
		c-5.4,0-9.6-0.6-9.6-1.4s4.3-1.4,9.6-1.4c5.4,0,9.7,0.6,9.7,1.4C129.6,32,125.2,32.7,119.9,32.7z M212.3,93.2l-48.2,23.5
		c-11.5-24.6-22.7-45.4-33-60.7c1.3-1,1-1.4,1-2.4V30.4c0-2.9-24.5-2.9-24.5,0v23.2c0,1,1,3,1,4c-9.2,14.3-20.4,34.2-31.9,59.3
		L28.2,93.2V21.4h184.1V93.2z"/>
	<path d="M209.6,232.1H32.1c-0.3,0-0.5,0.2-0.6,0.4C23,258,14,284.1,9.2,309.7c-11.1,51.4-13.8,101.4,1,139.2c0.9,2.1,2.9,6,6,11.2
		c40.6,69.5,166.7,69.1,206.2-0.7c2.6-4.5,4.3-7.8,5.1-9.7c14.8-36.8,14-85.6,4.1-136c-4.8-27-12.6-54.1-21.3-81.2
		C210.2,232.3,209.9,232.1,209.6,232.1z"/>
</g>
</svg>
