<?xml version="1.0" encoding="utf-8"?>
<!-- Generator: Adobe Illustrator 21.1.0, SVG Export Plug-In . SVG Version: 6.00 Build 0)  -->
<svg version="1.1" id="Layer_2" xmlns="http://www.w3.org/2000/svg" xmlns:xlink="http://www.w3.org/1999/xlink" x="0px" y="0px"
	 viewBox="0 0 512 512" style="enable-background:new 0 0 512 512;" xml:space="preserve">
<path d="M511.9,44h-44.4L468-0.5l-31.4,31l-30.9-31V44h-44.4l28.9,28.5c-4.4,1.3-12.4,2.2-14.3,2.5c-16.1-0.3-29.3-22.6-39.1-31.9
	c-9.9-9.4-23.2-31-78.3-31c-21.4-0.9-55.9,14-67.3,62.4l-11,0.2c-9.1,0.4-15,5.3-17,7.3c-2.3,2-7,7-7,16v13.5
	C80.7,129.7,0.4,197,0.4,308.7S90.3,511.5,203,511.5s202.6-91.9,202.6-202.8s-85.4-180.8-156.1-197.3V97.9c0-8.1-3-12.6-6.5-16
	c-2.3-2-7.6-7.5-19.3-7c3.9-10.3,9.1-31,41.4-31c67.1,4.2,53.1,61.9,109.3,61.9h31.4v44.5l30.9-31l30.9,31v-44.5H512l-30.9-31
	L511.9,44z M96.3,314.7l-0.2,0.1c0,0-9-41.9,25.8-86.8l13.8,10.8C98.6,271.6,96.3,314.7,96.3,314.7z M140.4,234.2l-14.2-11.3
	l16.7-14.6l12.9,13.5L140.4,234.2z M238.4,80.8c0,2-3.1,3.7-9.4,5c-6.7,1.3-14.5,2-23.4,2c-9.3,0-17.3-0.7-23.9-2
	c-6.3-1.3-9.4-3-9.4-5s3.1-3.7,9.4-5c2.8-0.4,5.9-0.8,9.4-0.9c-0.3,1.5-0.8,5.6-0.8,5.6h32.5c0,0-0.2-2.7,0.7-5.2
	C233.7,75.8,238.4,78.8,238.4,80.8z M484.4,94.9h-27.5v29l-20.5-20L414,125.4v-31l-28.4-6.5l21-15l-19-18.5h28.9V26l20,20l20-20
	v29.5h27.9l-19,19.5L484.4,94.9z"/>
</svg>
