<?xml version="1.0" encoding="utf-8"?>
<!-- Generator: Adobe Illustrator 21.1.0, SVG Export Plug-In . SVG Version: 6.00 Build 0)  -->
<svg version="1.1" id="Layer_3" xmlns="http://www.w3.org/2000/svg" xmlns:xlink="http://www.w3.org/1999/xlink" x="0px" y="0px"
	 viewBox="0 0 512.7 512" style="enable-background:new 0 0 512.7 512;" xml:space="preserve">
<path d="M488.1,70.2c-7.9-8.1-17.1-14.4-27.4-18.8c-12.2-29.6-40.5-49.7-72.6-51.3C386.7,0,385.3,0,383.8,0
	c-22.2,0-43.1,8.7-58.9,24.4c-15.7,15.7-24.4,36.7-24.5,58.9c0,6.6,0.8,13.1,2.3,19.4l-73.7,73.7l7.4,6.5l23.7,20.7l7,6.1l9.4,8.3
	l9.8,41.1l3,12.5l8.6,35.9l2.2,9.3L408,208.9c7,1.7,14.2,2.6,21.6,2.4c21.7-0.4,42.1-9.1,57.5-24.4l0.3-0.3
	c13.9-14.1,21.8-32,23.6-50.5C513.2,112.5,505.6,88.2,488.1,70.2z M252.8,352.7l-8.4-36.1l-2.9-12.6l-8.5-36.6l-12.7-10.9l-7.1-6
	l-24-20.5l-7.5-6.4l-79.2,79.2c-6.7-1.6-13.7-2.4-20.8-2.2c-21.7,0.4-42.1,9.1-57.5,24.4l-0.3,0.3C5.1,344.5-2.6,370.8,0.8,395.7
	c2.3,16.9,9.8,33.2,22.4,46.2c7.9,8.1,17.1,14.4,27.4,18.8c12.8,31,43.1,51.4,76.9,51.4c0.3,0,0.6,0,1,0
	c21.9-0.3,42.4-8.9,57.9-24.4c15.7-15.7,24.4-36.7,24.4-58.9c0-6.9-0.8-13.6-2.4-20.1L255,362L252.8,352.7z"/>
<polygon points="138.5,188.1 122.3,203.9 45.6,182.9 92.2,153.6 67.9,96.7 126.8,114.3 126,53 171.9,85.7 199.8,44.8 220.4,105.8 
	204.4,121.8 193.3,89.2 175.1,114.2 147.4,95.8 148,138.3 103,127.6 118.5,161.8 99.2,173.5 "/>
</svg>
