<?xml version="1.0" encoding="utf-8"?>
<!-- Generator: Adobe Illustrator 21.1.0, SVG Export Plug-In . SVG Version: 6.00 Build 0)  -->
<svg version="1.1" id="Layer_3" xmlns="http://www.w3.org/2000/svg" xmlns:xlink="http://www.w3.org/1999/xlink" x="0px" y="0px"
	 viewBox="0 0 512.7 512" style="enable-background:new 0 0 512.7 512;" xml:space="preserve">
<path d="M488.1,70.2c-7.9-8.1-17.1-14.4-27.4-18.8C447.9,20.4,417.6,0,383.8,0c-22.2,0-43.1,8.7-58.9,24.4
	c-15.7,15.7-24.4,36.7-24.4,58.9c0,6.6,0.8,13.1,2.3,19.4L102.6,302.9c-6.7-1.6-13.7-2.4-20.8-2.2c-21.7,0.4-42.1,9.1-57.5,24.4
	l-0.3,0.3c-31.6,32-32,84.2-0.8,116.4c7.9,8.1,17.1,14.4,27.4,18.8c12.8,30.9,43.1,51.4,76.9,51.4c22.2,0,43.1-8.7,58.9-24.4
	c15.7-15.7,24.4-36.7,24.4-58.9c0-6.9-0.8-13.6-2.5-20.1L408,208.9c7,1.7,14.2,2.6,21.6,2.4c21.7-0.4,42.1-9.1,57.5-24.4l0.3-0.3
	C519,154.6,519.4,102.4,488.1,70.2z"/>
</svg>
