<?xml version="1.0" encoding="utf-8"?>
<!-- Generator: Adobe Illustrator 21.1.0, SVG Export Plug-In . SVG Version: 6.00 Build 0)  -->
<svg version="1.1" id="fill" xmlns="http://www.w3.org/2000/svg" xmlns:xlink="http://www.w3.org/1999/xlink" x="0px" y="0px"
	 viewBox="0 0 539 512" style="enable-background:new 0 0 539 512;" xml:space="preserve">
<path d="M159,30.8c-29.8-5.7-51.9-7.3-70.4-7.3c-16.7,0-30.6,1.3-45,1.9C43.1,25.4,0,69.2,0,69.2v326.7v36.8v11.6
	c0,0,71.2-3.6,151.1,14.1c41.6,9.2,112.1,38,112.1,38v-3v-45.4v-318C263.2,75.8,222,42.8,159,30.8z M48.9,89.1
	c5.9-6.1,11.5-11.8,16.2-16.5c1.1,0.5,1.2,0.5,2.3,0.9v265.5c-4.6,0.2-9,0.5-13.1,0.7c-1.8,0.1-3.6,0.2-5.4,0.4V89.1z M154.9,410.7
	c-40-8-87.8-11.7-119.6-13.5c5-5,8.6-8.5,8.7-8.5c14.3-0.6,28.3-1.9,44.9-1.9c18.6,0,40.5,1.6,70.4,7.3
	c38.5,7.4,68.9,22.6,86.6,45.7C226.6,431.4,193.3,418.5,154.9,410.7z"/>
<path d="M380.8,30.9c29.6-5.7,51.5-7.3,69.9-7.3c16.5,0,30.4,1.3,44.6,1.9c0.6,0,43.4,43.8,43.4,43.8v326.6v36.7v11.6
	c0,0-70.7-3.6-150,14.1c-41.3,9.2-111.4,38-111.4,38v-3v-45.4V130.2C277.3,75.9,318.3,42.9,380.8,30.9z M490.7,89.1
	c-5.9-6-11.5-11.7-16.2-16.4c-0.8-0.1-1.6-0.1-2.4-0.1v263.7l18.6,11.8V89.1z M385.1,410.7c39.7-8,87.3-11.7,118.9-13.5
	c-5-5-8.5-8.5-8.7-8.5c-14.2-0.6-28.1-1.9-44.6-1.9c-18.4,0-40.3,1.6-69.9,7.3c-38.2,7.4-68.4,22.6-86.1,45.7
	C313.8,431.4,347,418.5,385.1,410.7z"/>
</svg>
