<?xml version="1.0" encoding="utf-8"?>
<!-- Generator: Adobe Illustrator 21.1.0, SVG Export Plug-In . SVG Version: 6.00 Build 0)  -->
<svg version="1.1" id="Layer_2" xmlns="http://www.w3.org/2000/svg" xmlns:xlink="http://www.w3.org/1999/xlink" x="0px" y="0px"
	 viewBox="0 0 558.8 512" style="enable-background:new 0 0 558.8 512;" xml:space="preserve">
<path d="M558.8,259.6c-0.4-5.5-1.6-20.6-1.6-43c0-21.8,0.9-46.5,0.9-46.5c0-7.6,0-11.2-2.2-13l0.2-0.2c2.1-1.9,3.1-4.7,3-7.5
	c-0.5-6.7-1.4-20.9-1.4-40.9c0-21.8,0.9-46.5,0.9-46.5C558.5,47.6,549,38,534.6,38l-333-9c-16.3,0-31.9,6.5-43.5,18L29.9,159
	c-4.6,3.1-8.7,6.7-12.3,10.8l-0.8,0.7v0.2c-9.4,11-15.2,25.3-15.5,40.9c-0.3,22.7,11.5,42.7,29.3,54.4l-1.2,1
	c-4.6,3.1-8.7,6.7-12.3,10.8l-0.8,0.7v0.2c-9.4,11-15.2,25.3-15.4,40.9c-0.3,21.4,10.3,40.6,26.5,52.5c-4.1,2.9-7.9,6.2-11.2,10
	l-0.8,0.7v0.2C6,394.2,0.2,408.4,0,424.1c-0.4,35.8,29.4,65.1,65.2,65.1h355.9c0.6,0,1.3,0,2,0l0,0l0,0c0.2,0,0.3,0,0.4,0v-0.4
	l132.1-120.4c1.5-1.4,2.3-3.4,2.2-5.5c-0.5-6.1-1.5-20.8-1.5-42.1c0-21.8,0.9-46.5,0.9-46.5c0-4.9,0-8.1-0.6-10.3l0.7-0.6
	C558.4,262.4,558.9,261,558.8,259.6z M394,460.4H64.3c-19.6,0-35.5-15.9-35.5-35.5c0-7.1,2.1-13.7,5.7-19.2l14.1-12.6
	c4.8-2.3,10.1-3.7,15.7-3.7h39.5v44.4c0,1.6,2.1,2.4,3.1,1.3l12.7-13.9l12.7,13.9c1.2,1.3,3.1,0.4,3.1-1.3v-44.4h263.4
	c-4.8,14.1-7.3,29.2-7.3,45C391.6,443.2,392.5,451.9,394,460.4z M392.5,330c0,8.9,0.8,17.6,2.4,26.1H65.2
	c-19.6,0-35.5-15.9-35.5-35.5c0-7.1,2.1-13.7,5.7-19.2l14.1-12.6c4.8-2.3,10.1-3.7,15.7-3.7h334.7
	C395.1,299.2,392.5,314.3,392.5,330z M393,221.9c0,8.9,0.8,17.6,2.4,26.1H65.6c-19.6,0-35.5-15.9-35.5-35.5c0-7.1,2.1-13.7,5.7-19.2
	l14.1-12.6c4.8-2.3,10.1-3.7,15.7-3.7h38.2v45.6c0,1.6,2.1,2.4,3.1,1.3l12.7-13.9l12.7,13.9c1.2,1.3,3.1,0.4,3.1-1.3V177h264.6
	C395.5,191.1,393,206.2,393,221.9z M531.3,321.5c-0.1,8.4-0.4,26.6-0.8,40.3l-106.8,98.4c-2-8.4-3.1-17-3.1-25.9
	c0-18.5,4.5-36,12.4-51.3l98.9-91.3C531.6,302.4,531.3,315.4,531.3,321.5z M532.2,217.1c-0.1,8.4-0.4,26.6-0.8,40.3l-106.8,98.5
	c-2-8.4-3.1-17-3.1-25.9c0-18.5,4.5-36,12.4-51.3l98.9-91.3C532.5,198,532.2,211.1,532.2,217.1z M532.5,109.1
	c-0.1,8.4-0.4,26.6-0.8,40.3l-106.8,98.4c-2-8.4-3.1-17-3.1-25.9c0-18.5,4.5-36,12.4-51.3l99-91.4C532.9,90,532.5,103,532.5,109.1z"
	/>
</svg>
