<?xml version="1.0" encoding="utf-8"?>
<!-- Generator: Adobe Illustrator 22.0.1, SVG Export Plug-In . SVG Version: 6.00 Build 0)  -->
<svg version="1.1" id="bottom" xmlns="http://www.w3.org/2000/svg" xmlns:xlink="http://www.w3.org/1999/xlink" x="0px" y="0px"
	 viewBox="0 0 450 512" style="enable-background:new 0 0 450 512;" xml:space="preserve">
<g>
	<path d="M442.3,31h-27.5c-0.2,0-0.4,0-0.5,0H7.7c-4.4,0-8,3.6-8,8v434c0,4.4,3.6,8,8,8h27.5c0.2,0,0.4,0,0.5,0h406.6
		c4.4,0,8-3.6,8-8V39C450.3,34.6,446.7,31,442.3,31z M378.3,409H71.7V103h306.6V409z"/>
	<path d="M253.2,125.7h-56c-4.4,0-8,3.6-8,8v56c0,4.4,3.6,8,8,8h56c4.4,0,8-3.6,8-8v-56C261.2,129.2,257.6,125.7,253.2,125.7z
		 M158.7,220h-56c-4.4,0-8,3.6-8,8v56c0,4.4,3.6,8,8,8h56c4.4,0,8-3.6,8-8v-56C166.7,223.6,163.1,220,158.7,220z M253.2,220h-56
		c-4.4,0-8,3.6-8,8v56.2c0,4.4,3.6,8,8,8h56c4.4,0,8-3.6,8-8V228C261.2,223.6,257.6,220,253.2,220z M347.7,220h-56c-4.4,0-8,3.6-8,8
		v56c0,4.4,3.6,8,8,8h56c4.4,0,8-3.6,8-8v-56C355.7,223.6,352.1,220,347.7,220z M253.2,314.7h-56c-4.4,0-8,3.6-8,8v56
		c0,4.4,3.6,8,8,8h56c4.4,0,8-3.6,8-8v-56C261.2,318.3,257.6,314.7,253.2,314.7z M347.7,220h-56c-4.4,0-8,3.6-8,8v56
		c0,4.4,3.6,8,8,8h56c4.4,0,8-3.6,8-8v-56C355.7,223.6,352.1,220,347.7,220z M253.2,314.7h-56c-4.4,0-8,3.6-8,8v56c0,4.4,3.6,8,8,8
		h56c4.4,0,8-3.6,8-8v-56C261.2,318.3,257.6,314.7,253.2,314.7z M253.2,220h-56c-4.4,0-8,3.6-8,8v56.2c0,4.4,3.6,8,8,8h56
		c4.4,0,8-3.6,8-8V228C261.2,223.6,257.6,220,253.2,220z M253.2,125.7h-56c-4.4,0-8,3.6-8,8v56c0,4.4,3.6,8,8,8h56c4.4,0,8-3.6,8-8
		v-56C261.2,129.2,257.6,125.7,253.2,125.7z M158.7,220h-56c-4.4,0-8,3.6-8,8v56c0,4.4,3.6,8,8,8h56c4.4,0,8-3.6,8-8v-56
		C166.7,223.6,163.1,220,158.7,220z"/>
</g>
</svg>
