<?xml version="1.0" encoding="utf-8"?>
<!-- Generator: Adobe Illustrator 22.0.1, SVG Export Plug-In . SVG Version: 6.00 Build 0)  -->
<svg version="1.1" id="bottom" xmlns="http://www.w3.org/2000/svg" xmlns:xlink="http://www.w3.org/1999/xlink" x="0px" y="0px"
	 viewBox="0 0 450 512" style="enable-background:new 0 0 450 512;" xml:space="preserve">
<path d="M253.2,481h-56c-4.4,0-8-3.6-8-8v-56c0-4.4,3.6-8,8-8h56c4.4,0,8,3.6,8,8v56C261.2,477.4,257.6,481,253.2,481z M8,30.7h434
	c4.4,0,8,3.6,8,8v56c0,4.4-3.6,8-8,8H8c-4.4,0-8-3.6-8-8v-56C0,34.3,3.6,30.7,8,30.7z M386,125.3h56c4.4,0,8,3.6,8,8v56
	c0,4.4-3.6,8-8,8h-56c-4.4,0-8-3.6-8-8v-56C378,128.9,381.6,125.3,386,125.3z M386,219.8h56c4.4,0,8,3.6,8,8v56c0,4.4-3.6,8-8,8h-56
	c-4.4,0-8-3.6-8-8v-56C378,223.4,381.6,219.8,386,219.8z M386,314.3h56c4.4,0,8,3.6,8,8v56c0,4.4-3.6,8-8,8h-56c-4.4,0-8-3.6-8-8
	v-56C378,317.9,381.6,314.3,386,314.3z M386,409.3h56c4.4,0,8,3.6,8,8v56c0,4.4-3.6,8-8,8h-56c-4.4,0-8-3.6-8-8v-56
	C378,412.9,381.6,409.3,386,409.3z M291.7,219.8h56c4.4,0,8,3.6,8,8v56c0,4.4-3.6,8-8,8h-56c-4.4,0-8-3.6-8-8v-56
	C283.7,223.4,287.3,219.8,291.7,219.8z M291.7,409h56c4.4,0,8,3.6,8,8v56c0,4.4-3.6,8-8,8h-56c-4.4,0-8-3.6-8-8v-56
	C283.7,412.6,287.3,409,291.7,409z M197,125.3h56c4.4,0,8,3.6,8,8v56c0,4.4-3.6,8-8,8h-56c-4.4,0-8-3.6-8-8v-56
	C189,128.9,192.6,125.3,197,125.3z M197,219.8h56.2c4.4,0,8,3.6,8,8v56c0,4.4-3.6,8-8,8H197c-4.4,0-8-3.6-8-8v-56
	C189,223.4,192.6,219.8,197,219.8z M197,314.3h56c4.4,0,8,3.6,8,8v56c0,4.4-3.6,8-8,8h-56c-4.4,0-8-3.6-8-8v-56
	C189,317.9,192.6,314.3,197,314.3z M102.6,219.8h56c4.4,0,8,3.6,8,8v56c0,4.4-3.6,8-8,8h-56c-4.4,0-8-3.6-8-8v-56
	C94.7,223.4,98.2,219.8,102.6,219.8z M102.6,409h56c4.4,0,8,3.6,8,8v56c0,4.4-3.6,8-8,8h-56c-4.4,0-8-3.6-8-8v-56
	C94.7,412.6,98.2,409,102.6,409z M8,125.3h56c4.4,0,8,3.6,8,8v56c0,4.4-3.6,8-8,8H8c-4.4,0-8-3.6-8-8v-56C0,128.9,3.6,125.3,8,125.3
	z M8,219.8h56c4.4,0,8,3.6,8,8v56c0,4.4-3.6,8-8,8H8c-4.4,0-8-3.6-8-8v-56C0,223.4,3.6,219.8,8,219.8z M8,314.3h56c4.4,0,8,3.6,8,8
	v56c0,4.4-3.6,8-8,8H8c-4.4,0-8-3.6-8-8v-56C0,317.9,3.6,314.3,8,314.3z M8,409.3h56c4.4,0,8,3.6,8,8v56c0,4.4-3.6,8-8,8H8
	c-4.4,0-8-3.6-8-8v-56C0,412.9,3.6,409.3,8,409.3z"/>
</svg>
