<?xml version="1.0" encoding="utf-8"?>
<!-- Generator: Adobe Illustrator 22.0.1, SVG Export Plug-In . SVG Version: 6.00 Build 0)  -->
<svg version="1.1" id="bottom" xmlns="http://www.w3.org/2000/svg" xmlns:xlink="http://www.w3.org/1999/xlink" x="0px" y="0px"
	 viewBox="0 0 450 512" style="enable-background:new 0 0 450 512;" xml:space="preserve">
<style type="text/css">
	.st0{fill:#000100;}
</style>
<g>
	<path class="st0" d="M450,228.5v56c0,4.4-3.6,8-8,8H260.8v185.1c0,4.4-3.6,8-8,8h-56c-4.4,0-8-3.6-8-8V292.5H8c-4.4,0-8-3.6-8-8
		v-56c0-4.4,3.6-8,8-8h180.8V39.3c0-4.4,3.6-8,8-8h56c4.4,0,8,3.6,8,8v181.2H442C446.4,220.5,450,224.1,450,228.5z"/>
	<path class="st0" d="M442,31h-56c-4.4,0-8,3.6-8,8v56c0,4.4,3.6,8,8,8h56c4.4,0,8-3.6,8-8V39C450,34.6,446.4,31,442,31z M442,125.9
		h-56c-4.4,0-8,3.6-8,8v56c0,4.4,3.6,8,8,8h56c4.4,0,8-3.6,8-8v-56C450,129.5,446.4,125.9,442,125.9z M442,315h-56c-4.4,0-8,3.6-8,8
		v56c0,4.4,3.6,8,8,8h56c4.4,0,8-3.6,8-8v-56C450,318.6,446.4,315,442,315z M442,409.5h-56c-4.4,0-8,3.6-8,8v56c0,4.4,3.6,8,8,8h56
		c4.4,0,8-3.6,8-8v-56C450,413.1,446.4,409.5,442,409.5z M347.4,31.3h-56c-4.4,0-8,3.6-8,8v56c0,4.4,3.6,8,8,8h56c4.4,0,8-3.6,8-8
		v-56C355.4,34.9,351.8,31.3,347.4,31.3z M347.4,409.5h-56c-4.4,0-8,3.6-8,8v56c0,4.4,3.6,8,8,8h56c4.4,0,8-3.6,8-8v-56
		C355.4,413.1,351.8,409.5,347.4,409.5z M158.3,31.3h-56c-4.4,0-8,3.6-8,8v56c0,4.4,3.6,8,8,8h56c4.4,0,8-3.6,8-8v-56
		C166.3,34.9,162.7,31.3,158.3,31.3z M158.3,409.5h-56c-4.4,0-8,3.6-8,8v56c0,4.4,3.6,8,8,8h56c4.4,0,8-3.6,8-8v-56
		C166.3,413.1,162.7,409.5,158.3,409.5z M64,31H8c-4.4,0-8,3.6-8,8v56c0,4.4,3.6,8,8,8h56c4.4,0,8-3.6,8-8V39C72,34.6,68.4,31,64,31
		z M64,125.9H8c-4.4,0-8,3.6-8,8v56c0,4.4,3.6,8,8,8h56c4.4,0,8-3.6,8-8v-56C72,129.5,68.4,125.9,64,125.9z M64,315H8
		c-4.4,0-8,3.6-8,8v56c0,4.4,3.6,8,8,8h56c4.4,0,8-3.6,8-8v-56C72,318.6,68.4,315,64,315z M64,409.5H8c-4.4,0-8,3.6-8,8v56
		c0,4.4,3.6,8,8,8h56c4.4,0,8-3.6,8-8v-56C72,413.1,68.4,409.5,64,409.5z"/>
</g>
</svg>
