<?xml version="1.0" encoding="utf-8"?>
<!-- Generator: Adobe Illustrator 22.0.1, SVG Export Plug-In . SVG Version: 6.00 Build 0)  -->
<svg version="1.1" id="_x33_2" xmlns="http://www.w3.org/2000/svg" xmlns:xlink="http://www.w3.org/1999/xlink" x="0px" y="0px"
	 viewBox="0 0 450 512" style="enable-background:new 0 0 450 512;" xml:space="preserve">
<path d="M196.8,31h56c4.4,0,8,3.6,8,8v56c0,4.4-3.6,8-8,8h-56c-4.4,0-8-3.6-8-8V39C188.8,34.6,192.4,31,196.8,31z M64,481.3H8
	c-4.4,0-8-3.6-8-8v-56c0-4.4,3.6-8,8-8h56c4.4,0,8,3.6,8,8v56C72,477.7,68.4,481.3,64,481.3z M64,386.7H8c-4.4,0-8-3.6-8-8v-56
	c0-4.4,3.6-8,8-8h56c4.4,0,8,3.6,8,8v56C72,383.1,68.4,386.7,64,386.7z M64,292.2H8c-4.4,0-8-3.6-8-8v-56c0-4.4,3.6-8,8-8h56
	c4.4,0,8,3.6,8,8v56C72,288.6,68.4,292.2,64,292.2z M64,197.7H8c-4.4,0-8-3.6-8-8v-56c0-4.4,3.6-8,8-8h56c4.4,0,8,3.6,8,8v56
	C72,194.1,68.4,197.7,64,197.7z M64,102.7H8c-4.4,0-8-3.6-8-8v-56c0-4.4,3.6-8,8-8h56c4.4,0,8,3.6,8,8v56
	C72,99.1,68.4,102.7,64,102.7z M158.3,481.3h-56c-4.4,0-8-3.6-8-8v-56c0-4.4,3.6-8,8-8h56c4.4,0,8,3.6,8,8v56
	C166.3,477.7,162.7,481.3,158.3,481.3z M158.3,292.2h-56c-4.4,0-8-3.6-8-8v-56c0-4.4,3.6-8,8-8h56c4.4,0,8,3.6,8,8v56
	C166.3,288.6,162.7,292.2,158.3,292.2z M158.3,103h-56c-4.4,0-8-3.6-8-8V39c0-4.4,3.6-8,8-8h56c4.4,0,8,3.6,8,8v56
	C166.3,99.4,162.7,103,158.3,103z M252.8,481.3h-56c-4.4,0-8-3.6-8-8v-56c0-4.4,3.6-8,8-8h56c4.4,0,8,3.6,8,8v56
	C260.8,477.7,257.2,481.3,252.8,481.3z M253,386.7h-56c-4.4,0-8-3.6-8-8v-56c0-4.4,3.6-8,8-8h56c4.4,0,8,3.6,8,8v56
	C261,383.1,257.4,386.7,253,386.7z M253,292.2h-56.2c-4.4,0-8-3.6-8-8v-56c0-4.4,3.6-8,8-8H253c4.4,0,8,3.6,8,8v56
	C261,288.6,257.4,292.2,253,292.2z M253,197.7h-56c-4.4,0-8-3.6-8-8v-56c0-4.4,3.6-8,8-8h56c4.4,0,8,3.6,8,8v56
	C261,194.1,257.4,197.7,253,197.7z M347.4,481.3h-56c-4.4,0-8-3.6-8-8v-56c0-4.4,3.6-8,8-8h56c4.4,0,8,3.6,8,8v56
	C355.4,477.7,351.8,481.3,347.4,481.3z M347.4,292.2h-56c-4.4,0-8-3.6-8-8v-56c0-4.4,3.6-8,8-8h56c4.4,0,8,3.6,8,8v56
	C355.4,288.6,351.8,292.2,347.4,292.2z M347.4,103h-56c-4.4,0-8-3.6-8-8V39c0-4.4,3.6-8,8-8h56c4.4,0,8,3.6,8,8v56
	C355.4,99.4,351.8,103,347.4,103z M442,481.3h-56c-4.4,0-8-3.6-8-8v-56c0-4.4,3.6-8,8-8h56c4.4,0,8,3.6,8,8v56
	C450,477.7,446.4,481.3,442,481.3z M442,386.7h-56c-4.4,0-8-3.6-8-8v-56c0-4.4,3.6-8,8-8h56c4.4,0,8,3.6,8,8v56
	C450,383.1,446.4,386.7,442,386.7z M442,292.2h-56c-4.4,0-8-3.6-8-8v-56c0-4.4,3.6-8,8-8h56c4.4,0,8,3.6,8,8v56
	C450,288.6,446.4,292.2,442,292.2z M442,197.7h-56c-4.4,0-8-3.6-8-8v-56c0-4.4,3.6-8,8-8h56c4.4,0,8,3.6,8,8v56
	C450,194.1,446.4,197.7,442,197.7z M442,102.7h-56c-4.4,0-8-3.6-8-8v-56c0-4.4,3.6-8,8-8h56c4.4,0,8,3.6,8,8v56
	C450,99.1,446.4,102.7,442,102.7z"/>
</svg>
