<?xml version="1.0" encoding="utf-8"?>
<!-- Generator: Adobe Illustrator 22.0.1, SVG Export Plug-In . SVG Version: 6.00 Build 0)  -->
<svg version="1.1" id="Layer_2" xmlns="http://www.w3.org/2000/svg" xmlns:xlink="http://www.w3.org/1999/xlink" x="0px" y="0px"
	 viewBox="0 0 450 512" style="enable-background:new 0 0 450 512;" xml:space="preserve">
<style type="text/css">
	.st0{fill:#000100;}
</style>
<path class="st0" d="M196.5,31.3h56c4.4,0,8,3.6,8,8v56c0,4.4-3.6,8-8,8h-56c-4.4,0-8-3.6-8-8v-56C188.5,34.9,192.1,31.3,196.5,31.3
	z M63.7,481.5h-56c-4.4,0-8-3.6-8-8v-56c0-4.4,3.6-8,8-8h56c4.4,0,8,3.6,8,8v56C71.7,478,68.2,481.5,63.7,481.5z M63.7,387h-56
	c-4.4,0-8-3.6-8-8v-56c0-4.4,3.6-8,8-8h56c4.4,0,8,3.6,8,8v56C71.7,383.4,68.2,387,63.7,387z M63.7,292.5h-56c-4.4,0-8-3.6-8-8v-56
	c0-4.4,3.6-8,8-8h56c4.4,0,8,3.6,8,8v56C71.7,288.9,68.2,292.5,63.7,292.5z M63.7,197.9h-56c-4.4,0-8-3.6-8-8v-56c0-4.4,3.6-8,8-8
	h56c4.4,0,8,3.6,8,8v56C71.7,194.3,68.2,197.9,63.7,197.9z M63.7,103h-56c-4.4,0-8-3.6-8-8V39c0-4.4,3.6-8,8-8h56c4.4,0,8,3.6,8,8
	v56C71.7,99.4,68.2,103,63.7,103z M158,103.3h-56c-4.4,0-8-3.6-8-8v-56c0-4.4,3.6-8,8-8h56c4.4,0,8,3.6,8,8v56
	C166,99.7,162.5,103.3,158,103.3z M347.1,103.3h-56c-4.4,0-8-3.6-8-8v-56c0-4.4,3.6-8,8-8h56c4.4,0,8,3.6,8,8v56
	C355.1,99.7,351.5,103.3,347.1,103.3z M441.7,481.5H102c-4.4,0-8-3.6-8-8v-56c0-4.4,3.6-8,8-8h275.7V133.9c0-4.4,3.6-8,8-8h56
	c4.4,0,8,3.6,8,8v339.6C449.7,478,446.2,481.5,441.7,481.5z M441.7,103h-56c-4.4,0-8-3.6-8-8V39c0-4.4,3.6-8,8-8h56c4.4,0,8,3.6,8,8
	v56C449.7,99.4,446.2,103,441.7,103z"/>
</svg>
