<?xml version="1.0" encoding="utf-8"?>
<!-- Generator: Adobe Illustrator 21.1.0, SVG Export Plug-In . SVG Version: 6.00 Build 0)  -->
<svg version="1.1" id="Layer_4" xmlns="http://www.w3.org/2000/svg" xmlns:xlink="http://www.w3.org/1999/xlink" x="0px" y="0px"
	 viewBox="0 0 512 512" style="enable-background:new 0 0 512 512;" xml:space="preserve">
<g>
	<path d="M0,0v512h512V0H0z M440,440H72V72h368V440z"/>
	<path d="M432,255.4c0,0-33.1,36.7-37,36.7H291.8v102.8c0,3.9-35.7,37-35.7,37s-36.3-33.1-36.3-37V292.1H117c-3.9,0-37-36.7-37-36.7
		s33.1-35.3,37-35.3h102.8v-103c0-3.9,36.3-37,36.3-37s35.7,33.1,35.7,37V220H395C398.9,220,432,255.4,432,255.4z"/>
</g>
</svg>
