<?xml version="1.0" encoding="utf-8"?>
<!-- Generator: Adobe Illustrator 22.0.1, SVG Export Plug-In . SVG Version: 6.00 Build 0)  -->
<svg version="1.1" id="bottom" xmlns="http://www.w3.org/2000/svg" xmlns:xlink="http://www.w3.org/1999/xlink" x="0px" y="0px"
	 viewBox="0 0 450 512" style="enable-background:new 0 0 450 512;" xml:space="preserve">
<path d="M450,227.8v56c0,4.4-3.6,8-8,8h-56c-4.4,0-8-3.6-8-8v-56c0-4.4,3.6-8,8-8h56C446.4,219.8,450,223.4,450,227.8z M-0.3,473V39
	c0-4.4,3.6-8,8-8h56c4.4,0,8,3.6,8,8v434c0,4.4-3.6,8-8,8h-56C3.3,481-0.3,477.4-0.3,473z M94.3,95V39c0-4.4,3.6-8,8-8h56
	c4.4,0,8,3.6,8,8v56c0,4.4-3.6,8-8,8h-56C97.9,103,94.3,99.4,94.3,95z M188.8,95V39c0-4.4,3.6-8,8-8h56c4.4,0,8,3.6,8,8v56
	c0,4.4-3.6,8-8,8h-56C192.4,103,188.8,99.4,188.8,95z M283.4,95V39c0-4.4,3.6-8,8-8h56c4.4,0,8,3.6,8,8v56c0,4.4-3.6,8-8,8h-56
	C286.9,103,283.4,99.4,283.4,95z M378.3,95V39c0-4.4,3.6-8,8-8h56c4.4,0,8,3.6,8,8v56c0,4.4-3.6,8-8,8h-56
	C381.9,103,378.3,99.4,378.3,95z M188.8,189.3v-56c0-4.4,3.6-8,8-8h56c4.4,0,8,3.6,8,8v56c0,4.4-3.6,8-8,8h-56
	C192.4,197.3,188.8,193.7,188.8,189.3z M378,189.3v-56c0-4.4,3.6-8,8-8h56c4.4,0,8,3.6,8,8v56c0,4.4-3.6,8-8,8h-56
	C381.6,197.3,378,193.7,378,189.3z M94.3,284v-56c0-4.4,3.6-8,8-8h56c4.4,0,8,3.6,8,8v56c0,4.4-3.6,8-8,8h-56
	C97.9,292,94.3,288.4,94.3,284z M188.8,284v-56.2c0-4.4,3.6-8,8-8h56c4.4,0,8,3.6,8,8V284c0,4.4-3.6,8-8,8h-56
	C192.4,292,188.8,288.4,188.8,284z M283.4,284v-56c0-4.4,3.6-8,8-8h56c4.4,0,8,3.6,8,8v56c0,4.4-3.6,8-8,8h-56
	C286.9,292,283.4,288.4,283.4,284z M188.8,378.4v-56c0-4.4,3.6-8,8-8h56c4.4,0,8,3.6,8,8v56c0,4.4-3.6,8-8,8h-56
	C192.4,386.4,188.8,382.8,188.8,378.4z M378,378.4v-56c0-4.4,3.6-8,8-8h56c4.4,0,8,3.6,8,8v56c0,4.4-3.6,8-8,8h-56
	C381.6,386.4,378,382.8,378,378.4z M94.3,473v-56c0-4.4,3.6-8,8-8h56c4.4,0,8,3.6,8,8v56c0,4.4-3.6,8-8,8h-56
	C97.9,481,94.3,477.4,94.3,473z M188.8,473v-56c0-4.4,3.6-8,8-8h56c4.4,0,8,3.6,8,8v56c0,4.4-3.6,8-8,8h-56
	C192.4,481,188.8,477.4,188.8,473z M283.4,473v-56c0-4.4,3.6-8,8-8h56c4.4,0,8,3.6,8,8v56c0,4.4-3.6,8-8,8h-56
	C286.9,481,283.4,477.4,283.4,473z M378.3,473v-56c0-4.4,3.6-8,8-8h56c4.4,0,8,3.6,8,8v56c0,4.4-3.6,8-8,8h-56
	C381.9,481,378.3,477.4,378.3,473z"/>
</svg>
