<?xml version="1.0" encoding="utf-8"?>
<!-- Generator: Adobe Illustrator 22.0.1, SVG Export Plug-In . SVG Version: 6.00 Build 0)  -->
<svg version="1.1" id="bottom" xmlns="http://www.w3.org/2000/svg" xmlns:xlink="http://www.w3.org/1999/xlink" x="0px" y="0px"
	 viewBox="0 0 450 512" style="enable-background:new 0 0 450 512;" xml:space="preserve">
<path d="M0,284.2v-56c0-4.4,3.6-8,8-8h56c4.4,0,8,3.6,8,8v56c0,4.4-3.6,8-8,8H8C3.6,292.2,0,288.6,0,284.2z M450.3,39v434
	c0,4.4-3.6,8-8,8h-56c-4.4,0-8-3.6-8-8V39c0-4.4,3.6-8,8-8h56C446.7,31,450.3,34.6,450.3,39z M355.7,417v56c0,4.4-3.6,8-8,8h-56
	c-4.4,0-8-3.6-8-8v-56c0-4.4,3.6-8,8-8h56C352.1,409,355.7,412.6,355.7,417z M261.2,417v56c0,4.4-3.6,8-8,8h-56c-4.4,0-8-3.6-8-8
	v-56c0-4.4,3.6-8,8-8h56C257.6,409,261.2,412.6,261.2,417z M166.7,417v56c0,4.4-3.6,8-8,8h-56c-4.4,0-8-3.6-8-8v-56c0-4.4,3.6-8,8-8
	h56C163.1,409,166.7,412.6,166.7,417z M71.7,417v56c0,4.4-3.6,8-8,8h-56c-4.4,0-8-3.6-8-8v-56c0-4.4,3.6-8,8-8h56
	C68.2,409,71.7,412.6,71.7,417z M261.2,322.7v56c0,4.4-3.6,8-8,8h-56c-4.4,0-8-3.6-8-8v-56c0-4.4,3.6-8,8-8h56
	C257.6,314.7,261.2,318.3,261.2,322.7z M72,322.7v56c0,4.4-3.6,8-8,8H8c-4.4,0-8-3.6-8-8v-56c0-4.4,3.6-8,8-8h56
	C68.4,314.7,72,318.3,72,322.7z M355.7,228v56c0,4.4-3.6,8-8,8h-56c-4.4,0-8-3.6-8-8v-56c0-4.4,3.6-8,8-8h56
	C352.1,220,355.7,223.6,355.7,228z M261.2,228v56.2c0,4.4-3.6,8-8,8h-56c-4.4,0-8-3.6-8-8V228c0-4.4,3.6-8,8-8h56
	C257.6,220,261.2,223.6,261.2,228z M166.7,228v56c0,4.4-3.6,8-8,8h-56c-4.4,0-8-3.6-8-8v-56c0-4.4,3.6-8,8-8h56
	C163.1,220,166.7,223.6,166.7,228z M261.2,133.6v56c0,4.4-3.6,8-8,8h-56c-4.4,0-8-3.6-8-8v-56c0-4.4,3.6-8,8-8h56
	C257.6,125.6,261.2,129.2,261.2,133.6z M72,133.6v56c0,4.4-3.6,8-8,8H8c-4.4,0-8-3.6-8-8v-56c0-4.4,3.6-8,8-8h56
	C68.4,125.6,72,129.2,72,133.6z M355.7,39v56c0,4.4-3.6,8-8,8h-56c-4.4,0-8-3.6-8-8V39c0-4.4,3.6-8,8-8h56
	C352.1,31,355.7,34.6,355.7,39z M261.2,39v56c0,4.4-3.6,8-8,8h-56c-4.4,0-8-3.6-8-8V39c0-4.4,3.6-8,8-8h56
	C257.6,31,261.2,34.6,261.2,39z M166.7,39v56c0,4.4-3.6,8-8,8h-56c-4.4,0-8-3.6-8-8V39c0-4.4,3.6-8,8-8h56
	C163.1,31,166.7,34.6,166.7,39z M71.7,39v56c0,4.4-3.6,8-8,8h-56c-4.4,0-8-3.6-8-8V39c0-4.4,3.6-8,8-8h56C68.2,31,71.7,34.6,71.7,39
	z"/>
</svg>
