<?xml version="1.0" encoding="utf-8"?>
<!-- Generator: Adobe Illustrator 21.1.0, SVG Export Plug-In . SVG Version: 6.00 Build 0)  -->
<svg version="1.1" id="Layer_1" focusable="false" xmlns="http://www.w3.org/2000/svg" xmlns:xlink="http://www.w3.org/1999/xlink"
	 x="0px" y="0px" viewBox="0 0 512 512" style="enable-background:new 0 0 512 512;" xml:space="preserve">
<path d="M506.2,0.3c-1.5-0.4-3-0.4-4.4,0.1l-73.8,19.8h-0.2c-4.1,1.1-6.6,5.4-5.5,9.6c0.4,1.4,1.2,2.6,2.2,3.6l18.8,18.8
	c-9.7,9.7-28.8,28.8-53.2,53.2c-26.6-24.9-53.3-42.8-81.2-54.4C276.3,37.5,242.3,30.9,208,33C130.8,37.6,89.4,75.3,70.5,76
	C68,61,56.2,48.9,40.6,46.7l-0.2,0C21.2,44.2,0,57.2,0,85.7c0,18.2,7.3,33.1,15.8,41.9c5.7,5.9,12.3,10.4,20,13.4l56.4,276.2
	l11.4,2.3l0,0L371.1,474c1.3,3.8,2.9,7.4,4.9,10.8c2.5,4.3,17.2,27.4,51.1,27.4c28.5,0,41.9-21.3,39.2-40.3
	c-2.1-15.7-14.3-27.7-29.4-30.1c1.1-9.7,12.7-31.1,12.7-31.1c18.6-35,28.8-70.7,30.4-106.1c1.5-34.5-4.6-68.3-18.1-100.6
	c-11.8-28.3-29.9-55.2-55.1-81.9l53.2-53.1l18.7,18.7c3.1,3.1,8,3.1,11.2,0c1.1-1.1,1.8-2.5,2.1-3.9l19.8-73.7
	C512.9,5.7,510.4,1.4,506.2,0.3z M62.6,145.4c8.5-0.1,17.7-1.3,27.6-3.6c50.6-12,82-51.2,157.2-36.3c33.6,6.7,66.8,23.4,94.5,48.1
	c-38.4,38.4-81.8,81.8-121,121.1l-35,0.1l-0.1-0.2c-2.2,0-4.2,0.9-5.6,2.3l-66.7,66.6c-3.1,3.1-3.1,8,0,11.1c1.2,1.2,2.8,2,4.4,2.2
	l21.5-0.5c-11.9,11.9-21.5,21.6-28,28.1L62.6,145.4z M407,264.8c12.8,65-15.7,99.5-27.6,130.7c-7.5,19.6-11.4,37-11.9,52.1
	L129.3,399l25-25l0.4,19.9c1,4.2,5.2,6.8,9.5,5.9c1.5-0.4,2.9-1.1,3.9-2.2l66.6-66.5c1.7-1.7,2.5-4,2.3-6.2l0.1-33.5l121.5-121.3
	C383.4,197.8,400.3,231,407,264.8z"/>
</svg>
