<?xml version="1.0" encoding="utf-8"?>
<!-- Generator: Adobe Illustrator 22.0.1, SVG Export Plug-In . SVG Version: 6.00 Build 0)  -->
<svg version="1.1" id="Layer_3" xmlns="http://www.w3.org/2000/svg" xmlns:xlink="http://www.w3.org/1999/xlink" x="0px" y="0px"
	 viewBox="0 0 562.2 512" style="enable-background:new 0 0 562.2 512;" xml:space="preserve">
<style type="text/css">
	.st0{fill:#010101;}
</style>
<g>
	<path class="st0" d="M183.2,270.9c-2.5-6.6-5.3-12.9-8.2-18.9h0.8c0,0-31.9-62.3-31.9-91.6c0-13.4,3-24.1,6.2-31.7
		c10.5-13.7,16.9-31.9,16.9-51.8c0-42.8-29.4-77.5-65.7-77.5c-36.3,0-65.7,34.7-65.7,77.5c0,13.8,3.1,26.8,8.5,38.1h-0.2
		c0,0,0.5,0.5,1.2,1.5c1.6,3.1,3.4,6.1,5.3,8.9c3.7,7.7,7.7,19.4,7.7,34.8c0,22.1-17.3,63.2-25.7,81.7C14,276.2,0.6,321.5,0.6,371.3
		c0,55,12,104.6,31.3,139.7h138.6c4.7-8.5,8.9-17.8,12.6-27.8c-11.8-31.5-18.7-70-18.7-111.7C164.5,334.7,171.9,300.2,183.2,270.9z"
		/>
	<path class="st0" d="M355.9,252h0.8c0,0-31.9-62.3-31.9-91.6c0-13.4,3-24.1,6.2-31.7c10.5-13.7,16.9-31.9,16.9-51.8
		c0-42.8-29.4-77.5-65.7-77.5s-65.7,34.7-65.7,77.5c0,13.8,3.1,26.8,8.5,38.1h-0.2c0,0,0.5,0.5,1.2,1.5c1.6,3.1,3.4,6.1,5.3,8.9
		c3.7,7.7,7.7,19.4,7.7,34.8c0,22.1-17.3,63.2-25.7,81.7c-18.3,34.2-31.7,79.5-31.7,129.3c0,55,12,104.6,31.3,139.7h138.6
		c19.3-35.1,31.3-84.6,31.3-139.5C382.8,326.4,371.7,284.8,355.9,252z"/>
	<path class="st0" d="M536.2,251.5L536.2,251.5c0,0-31.3-62.1-31.3-91.2c0-13.4,3-24,6.2-31.6c10.5-13.7,16.8-31.8,16.8-51.6
		c0-42.6-29.3-77.2-65.5-77.2c-36.2,0-65.5,34.6-65.5,77.2c0,13.8,3.1,26.7,8.5,37.9h-0.4c0,0,0.5,0.5,1.2,1.5
		c1.6,3.1,3.4,6.1,5.3,8.9c3.7,7.7,7.7,19.4,7.7,34.8c0,22.1-17.3,63.2-25.7,81.7c-4.4,8.3-8.6,17.3-12.4,26.9
		c11.7,29.7,19.3,64.8,19.3,102.4c0,42.4-7.2,81.7-19.3,113.5v0c3.6,9.4,7.6,18.2,12,26.2h138.7C551,475.9,563,426.3,563,371.3
		C563,326,552,284.4,536.2,251.5z"/>
</g>
</svg>
