<?xml version="1.0" encoding="utf-8"?>
<!-- Generator: Adobe Illustrator 22.0.1, SVG Export Plug-In . SVG Version: 6.00 Build 0)  -->
<svg version="1.1" id="Layer_3" xmlns="http://www.w3.org/2000/svg" xmlns:xlink="http://www.w3.org/1999/xlink" x="0px" y="0px"
	 viewBox="0 0 420.9 512" style="enable-background:new 0 0 420.9 512;" xml:space="preserve">
<style type="text/css">
	.st0{fill:#010101;}
</style>
<g>
	<path class="st0" d="M174.6,252h0.8c0,0-31.9-62.3-31.9-91.6c0-13.4,3-24.1,6.2-31.7c10.5-13.7,16.9-31.9,16.9-51.8
		c0-42.8-29.4-77.5-65.7-77.5S35.1,34.1,35.1,76.9c0,13.8,3.1,26.8,8.5,38.1h-0.2c0,0,0.5,0.5,1.2,1.5c1.6,3.1,3.4,6.1,5.3,8.9
		c3.7,7.7,7.7,19.4,7.7,34.8c0,22.1-17.3,63.2-25.7,81.7C13.6,276.2,0.2,321.5,0.2,371.3c0,55,12,104.6,31.3,139.7h138.6
		c19.3-35.1,31.3-84.6,31.3-139.5C201.4,326.4,190.4,284.8,174.6,252z"/>
	<path class="st0" d="M317.2,306.2c-56.9,0-103,46.1-103,103s46.1,103,103,103c56.9,0,103-46.1,103-103S374.1,306.2,317.2,306.2z
		 M263.2,465.1c1.7,1.8,1.7,4.7,0,6.4c-0.9,0.9-2,1.3-3.1,1.3c-1.1,0-2.2-0.5-3.1-1.3c-15.1-15.9-23.5-37-23.5-59.5
		c0-22.5,8.3-43.6,23.5-59.5c1.7-1.8,4.5-1.8,6.2,0c1.7,1.8,1.7,4.7,0,6.5c-13.5,14.2-20.9,33-20.9,53
		C242.3,432.1,249.7,451,263.2,465.1z M294.4,493.3c-1.1,0-2.2-0.2-3.2-0.5c-4.9-1.5-9.6-3.5-14.2-5.9c-2.1-1.2-3-3.9-1.9-6.2
		c1.1-2.2,3.7-3.1,5.9-2c4,2.2,8.3,4,12.6,5.3c0.3,0.1,0.5,0.1,0.8,0.1c2.4,0,4.3,2,4.3,4.6C298.8,491.3,296.8,493.3,294.4,493.3z
		 M337.9,403c-3.6,2.6-8.1,3.8-12.8,3c-4.7-0.8-8.6-3.3-11.2-6.9c-2.6-3.6-3.8-8.1-3-12.8s3.3-8.6,6.9-11.2c3.5-2.6,8.1-3.8,12.8-3
		c4.7,0.8,8.6,3.3,11.2,6.9c2.6,3.6,3.8,8.1,3,12.8S341.5,400.4,337.9,403z M377.5,418.1c-0.8,4.7-3.3,8.6-6.9,11.2
		c-3.6,2.6-8.1,3.8-12.8,3c-4.7-0.8-8.6-3.3-11.2-6.9c-2.6-3.5-3.8-8.1-3-12.8c0.8-4.7,3.3-8.6,6.9-11.2c3.6-2.6,8.1-3.8,12.8-3
		s8.6,3.3,11.2,6.9C377.1,408.9,378.3,413.4,377.5,418.1z M383.9,377.1c-0.8,4.7-3.3,8.6-6.9,11.2c-3.6,2.6-8.1,3.8-12.8,3
		c-4.7-0.8-8.6-3.3-11.2-6.9c-2.6-3.6-3.8-8.1-3-12.8c0.8-4.7,3.3-8.6,6.9-11.2c3.5-2.6,8.1-3.8,12.8-3c4.7,0.8,8.6,3.3,11.2,6.9
		C383.4,367.9,384.6,372.4,383.9,377.1z"/>
</g>
</svg>
