<?xml version="1.0" encoding="utf-8"?>
<!-- Generator: Adobe Illustrator 21.1.0, SVG Export Plug-In . SVG Version: 6.00 Build 0)  -->
<svg version="1.1" id="Layer_3" xmlns="http://www.w3.org/2000/svg" xmlns:xlink="http://www.w3.org/1999/xlink" x="0px" y="0px"
	 viewBox="0 0 512 512" style="enable-background:new 0 0 512 512;" xml:space="preserve">
<path d="M414,0H298.3l19.9,108h184.4L414,0z M283.8,1h-56.6L210,118.3V176h12c0,0,4.3-5.8,6.5-6.4c5.3-1.3,20.9,12.3,20.9,12.3
	s10-3.1,13.5-3c4.1,0.1,16.1-3,16.1-3l10-7.4l12,7.5v-55.8L283.8,1z M96.7,0L7.9,108h184.4L212.4,0H96.7z M319,126v66h-18l-12.1-7.5
	l-10,7.5c0,0-12,3.1-16.1,3c-3.4-0.1-13.4,3-13.4,3s-15.5-13.7-20.8-12.4c-2.2,0.5-6.5,6.4-6.5,6.4H192v-66H0v386h512V126H319z
	 M351,356.8c-5.8-5.4-13.4-8.4-21.3-8.4c-7.4,0-14.5,2.6-20.1,7.4l-3.1,2.7l-3-2.8c-5.4-4.9-12.3-7.6-19.6-7.6
	c-5.9,0-11.4,1.7-16.8,5v74.1c0.6,6.7-1.9,12.6-6.8,17.5c-5,4.9-10.8,7.4-17.3,7.4c-6.6,0-12.5-2.5-17.4-7.4
	c-4.9-4.8-7.5-10.7-7.5-17.4c0-5.4,4.3-9.7,9.6-10.2h0.4c5.3,0.5,9.6,4.8,9.6,10.1c0,0.9,0.2,2.3,1.7,3.9c1.1,1.1,2.2,1.6,3.6,1.6
	c0.8,0,2.1-0.2,3.6-1.6c1.1-1.3,1.6-2.4,1.4-3.8v-74.8c-4.3-2.8-9.5-4.3-14.9-4.3c-7.3,0-14.3,2.7-19.7,7.7l-3,2.8l-3.2-2.6
	c-5.6-4.6-12.7-7.2-20-7.2c-8.1,0-15.8,3.1-21.7,8.7l-9.7,9.3l1.8-13.3c2.9-21.7,14.1-41.7,31.4-56.2c16.3-13.6,37.4-22,59.9-23.9
	c0.4-0.8,1-1.5,1.7-2.2c1.9-1.8,4.2-2.8,6.7-2.8c2.7,0,5.1,1,6.9,2.9c0.6,0.6,1.1,1.3,1.5,2c22.8,1.4,44.3,9.6,60.9,23.1
	c17.7,14.4,29.1,34.4,32.3,56.3l1.9,13.1L351,356.8z"/>
</svg>
