<?xml version="1.0" encoding="utf-8"?>
<!-- Generator: Adobe Illustrator 21.1.0, SVG Export Plug-In . SVG Version: 6.00 Build 0)  -->
<svg version="1.1" id="Layer_3" xmlns="http://www.w3.org/2000/svg" xmlns:xlink="http://www.w3.org/1999/xlink" x="0px" y="0px"
	 viewBox="0 0 512 512" style="enable-background:new 0 0 512 512;" xml:space="preserve">
<path d="M319,126v66h-18l-12.1-7.5l-10,7.5c0,0-12,3.1-16.1,3c-3.4-0.1-13.4,3-13.4,3s-15.5-13.7-20.8-12.4
	c-2.2,0.5-6.5,6.4-6.5,6.4H192v-66H0v386h512V126H319z M309.8,431.9c-10.5,9.6-24.7,14.7-42.5,15.1v10.2h-18.6V447
	c-13.9-1.9-25.4-6.7-34.7-14.6c-9.3-7.9-14.6-21.2-15.9-39.9h32.6c-0.1,1-0.1,1.7-0.1,2.1c0,6.2,1.6,11.5,4.7,16.2
	c3.2,4.6,7.6,7.6,13.4,9.1v-56.1c-18.7-8.7-31.3-17.2-37.8-25.6c-6.5-8.4-9.8-17.7-9.8-27.7c0-12.2,4.4-22.6,13.1-31.3
	c8.7-8.6,20.3-13.5,34.5-14.7v-8h18.6v8c15.3,1.3,27.6,6.2,36.6,14.8s13.6,19.9,13.6,33.9h-32.6c-1.5-13.8-7.4-21.3-17.6-22.5v44.1
	l18,8.1c10.2,4.6,18.2,9.8,24.3,15.7c6,5.9,10.2,12,12.5,18.3c2.3,6.3,3.5,12.8,3.5,19.3C325.6,410.4,320.3,422.3,309.8,431.9z
	 M267.3,371.9v49.2c7.6,0.1,13.8-2,18.7-6.3c4.9-4.3,7.4-9.5,7.3-15.5C293.3,387.7,284.6,378.6,267.3,371.9z M233.7,306.6
	c0,7.3,5,13.9,14.9,19.8V291C238.7,292.8,233.7,298,233.7,306.6z M96.7,0L7.9,108h184.4L212.4,0H96.7z M283.8,1h-56.6L210,118.3V176
	h12c0,0,4.3-5.8,6.5-6.4c5.3-1.3,20.9,12.3,20.9,12.3s10-3.1,13.5-3c4.1,0.1,16.1-3,16.1-3l10-7.4l12,7.5v-55.8L283.8,1z M414,0
	H298.3l19.9,108h184.4L414,0z"/>
</svg>
