<?xml version="1.0" encoding="utf-8"?>
<!-- Generator: Adobe Illustrator 21.1.0, SVG Export Plug-In . SVG Version: 6.00 Build 0)  -->
<svg version="1.1" id="Layer_3" xmlns="http://www.w3.org/2000/svg" xmlns:xlink="http://www.w3.org/1999/xlink" x="0px" y="0px"
	 viewBox="0 0 512 512" style="enable-background:new 0 0 512 512;" xml:space="preserve">
<path d="M258.3,265.9c-16.6,0-25,2.5-27.3,4.1c2.7,1.7,12.1,4.3,27.3,4.3s24.6-2.6,27.2-4.3C283.2,268.4,274.8,265.9,258.3,265.9z
	 M258.3,265.9c-16.6,0-25,2.5-27.3,4.1c2.7,1.7,12.1,4.3,27.3,4.3s24.6-2.6,27.2-4.3C283.2,268.4,274.8,265.9,258.3,265.9z M319,126
	v66h-18l-12.1-7.5l-10,7.5c0,0-12,3.1-16.1,3c-3.4-0.1-13.4,3-13.4,3s-15.5-13.7-20.8-12.4c-2.2,0.5-6.5,6.4-6.5,6.4H192v-66H0v386
	h512V126H319z M209.8,263.7c7.8-15.1,43.6-14.4,48.5-14.1h3.8c10.7,0,38.3,1.3,45,14.3c3.9,7.5,6.8,17,8.6,28l0.4,2.4l-11.1,8.3
	l-26.8,3.8l-19.5,22.2l-26.6,4.1l-22.4,20l-2.6-5.2c-5.1-9.6-7.6-20.8-7.6-33.4C199.3,309,199.8,282.9,209.8,263.7z M267.5,424v0.2
	l-0.4,18.7c20.5,1.2,40.9,7.4,40.9,18.8c0,12.6-24.8,19.2-49.3,19.2s-49.3-6.6-49.3-19.2c0-11.4,19.4-17.5,40-18.9l-0.4-18.7v-0.2
	c0.4-3.6,0.3-13.8-5.1-17c-0.9-0.6-1.9-1.1-2.8-1.7c-11.4-6.9-25.6-15.6-34.3-32.1l-1.5-2.8l22.2-19.9l25.9-3.9l19.5-22.2l27.8-4.1
	l13.3-9.7l1.1,7.1c1.8,11.1,1.9,20.5,1.9,22.3c0,40-25.3,55.3-42.1,65.4c-0.9,0.6-1.8,1.1-2.6,1.7
	C267.3,410.2,267.1,420.5,267.5,424z M285.5,270c-2.3-1.6-10.7-4.1-27.2-4.1c-16.6,0-25,2.5-27.3,4.1c2.7,1.7,12.1,4.3,27.3,4.3
	S282.9,271.7,285.5,270z M96.7,0L7.9,108h184.4L212.4,0H96.7z M283.8,1h-56.6L210,118.3V176h12c0,0,4.3-5.8,6.5-6.4
	c5.3-1.3,20.9,12.3,20.9,12.3s10-3.1,13.5-3c4.1,0.1,16.1-3,16.1-3l10-7.4l12,7.5v-55.8L283.8,1z M414,0H298.3l19.9,108h184.4L414,0
	z"/>
</svg>
