<?xml version="1.0" encoding="utf-8"?>
<!-- Generator: Adobe Illustrator 21.1.0, SVG Export Plug-In . SVG Version: 6.00 Build 0)  -->
<svg version="1.1" id="Layer_3" xmlns="http://www.w3.org/2000/svg" xmlns:xlink="http://www.w3.org/1999/xlink" x="0px" y="0px"
	 viewBox="0 0 512 512" style="enable-background:new 0 0 512 512;" xml:space="preserve">
<path d="M319,126v66h-18l-12.1-7.5l-10,7.5c0,0-12,3.1-16.1,3c-3.4-0.1-13.4,3-13.4,3s-15.5-13.7-20.8-12.4
	c-2.2,0.5-6.5,6.4-6.5,6.4H192v-66H0v386h512V126H319z M343.1,359.2l-0.3,0.6l-9.3,11.6L256,448.8l-78.6-78.6
	c-10.4-10.5-16.1-24.3-16.1-39.1c0-14.7,5.7-28.6,16.1-39.1c10.4-10.4,24.3-16.2,39-16.2c14.7,0,28.6,5.8,39.1,16.2l0.5,0.5l0.5-0.5
	c10.4-10.4,24.3-16.2,39-16.2s28.6,5.8,39.1,16.2C352.4,309.9,355.8,337.5,343.1,359.2z M96.7,0L7.9,108h184.4L212.4,0H96.7z
	 M283.8,1h-56.6L210,118.3V176h12c0,0,4.3-5.8,6.5-6.4c5.3-1.3,20.9,12.3,20.9,12.3s10-3.1,13.5-3c4.1,0.1,16.1-3,16.1-3l10-7.4
	l12,7.5v-55.8L283.8,1z M414,0H298.3l19.9,108h184.4L414,0z"/>
</svg>
