<?xml version="1.0" encoding="utf-8"?>
<!-- Generator: Adobe Illustrator 19.0.0, SVG Export Plug-In . SVG Version: 6.00 Build 0)  -->
<svg version="1.1" id="Layer_1" xmlns="http://www.w3.org/2000/svg" xmlns:xlink="http://www.w3.org/1999/xlink" x="0px" y="0px"
	 viewBox="0 0 448 512" style="enable-background:new 0 0 448 512;" xml:space="preserve">
<g id="XMLID_1_">
	<path id="XMLID_20_" d="M405.2,32H42.8C19.2,32,0,51.2,0,74.8v362.4C0,460.8,19.2,480,42.8,480h362.4c23.6,0,42.8-19.2,42.8-42.8
		V74.8C448,51.2,428.8,32,405.2,32z M230.3,340v27.3c34.4,1.1,61.4,11.5,61.4,24c0,13.4-30.3,24.2-67.8,24.2
		c-37.5,0-67.8-10.8-67.8-24.2c0-12.5,26.3-22.7,60.2-24V340c0,0,2.8-25.2-10.7-34c-25.4-16.6-64.6-38.3-64.6-102.7
		c0-4.3,0.2-47.4,15.2-78.1c10.4-21.3,67.1-19,67.1-19s57-2.3,67.3,19c14.9,30.8,15.2,73.9,15.2,78.1c0,64.4-39.2,86.2-64.7,102.8
		C227.6,314.9,230.3,340,230.3,340z"/>
	<path id="XMLID_45_" d="M254.6,286.3l-66.4-63.2l46.6-29.6l-21.9-31.3c0,0,13.9,0.6,18.6,0.6c12.8,0,23-1,23-1l19.8,39.9
		l-46.6,29.6L254.6,286.3z M225.1,145.7c-32.8,0-59.4-7.3-59.4-16.3c0-10.3,26.6-16.3,59.4-16.3s59.3,6.1,59.3,16.3
		C284.4,138.3,257.8,145.7,225.1,145.7z"/>
</g>
</svg>
