<?xml version="1.0" encoding="utf-8"?>
<!-- Generator: Adobe Illustrator 22.0.1, SVG Export Plug-In . SVG Version: 6.00 Build 0)  -->
<svg version="1.1" id="Layer_2" xmlns="http://www.w3.org/2000/svg" xmlns:xlink="http://www.w3.org/1999/xlink" x="0px" y="0px"
	 viewBox="0 0 400.9 512" style="enable-background:new 0 0 400.9 512;" xml:space="preserve">
<g>
	<path d="M354.4,343.4c55.5-108.7,47.5-179.7,35.3-240.9c-3.7-18.3-10-33.9-19.2-47c-9.2-13-21.2-23.5-36.1-31.6
		C304.8,8,263.4,0.5,204,0.5c-62.6,0-104.6,13.2-128.3,40.4C57.2,62.1,53.2,88.3,54,112.5c-24.5-0.7-37.3,10.3-43.9,21
		c-12.5,20.3-9.4,52.4,8.9,92.8c15.7,34.5,42.2,74.6,77.2,116.7c-2.2,1.2-4.2,2.7-6,4.5c-5.2,5.2-8.1,12.1-8.1,19.2l-1.8,116.8
		l0,0.3l0.2,2.2l0.1,0.5c1.3,7.9,14.4,26,28.2,25.5l229.9,0.4c7.4,0,14.3-2.9,19.5-8.1c5.2-5.2,8.1-12.1,8.1-19.5V366
		C366.3,356.6,361.6,348.4,354.4,343.4z M52.7,210.8c-9.1-20.9-9.2-33.5-6.3-38.2c1.7-2.7,5.3-3.6,9.2-3.6c1.3,0,2.6,0.1,3.9,0.3
		l20,87.5C65.5,236.9,57.4,221.5,52.7,210.8z M262,412c3.7,1.4,5.5,5.6,4.1,9.3c-1.1,2.7-3.6,4.4-6.3,4.5c-1,0.1-2-0.1-3-0.5
		l-31.8-12.4l-32,11.9c-0.7,0.3-1.4,0.4-2.1,0.4c-3,0.2-6-1.7-7.1-4.7c-1.4-3.7,0.5-7.8,4.2-9.2L205,405l-16.8-6.6
		c-3.7-1.5-5.5-5.6-4.1-9.3c1.4-3.7,5.6-5.5,9.3-4.1l31.8,12.4l32-11.9c3.8-1.4,7.9,0.5,9.2,4.2c1.4,3.7-0.5,7.8-4.2,9.2l-16.9,6.3
		L262,412z M263,310.3c3.7,1.4,5.5,5.6,4.1,9.3c-1.1,2.7-3.6,4.4-6.3,4.5c-1,0.1-2-0.1-3-0.5L226,311.2l-32,11.8
		c-0.7,0.3-1.4,0.4-2.1,0.4c-3.1,0.2-6-1.7-7.1-4.7c-1.4-3.7,0.5-7.8,4.2-9.2l16.9-6.3l-16.8-6.6c-3.7-1.5-5.5-5.6-4.1-9.3
		c1.4-3.7,5.6-5.5,9.3-4.1l31.8,12.4l32-11.8c3.8-1.4,7.8,0.5,9.2,4.2c1.4,3.7-0.5,7.9-4.2,9.2l-16.9,6.3L263,310.3z"/>
</g>
</svg>
