<?xml version="1.0" encoding="utf-8"?>
<!-- Generator: Adobe Illustrator 21.1.0, SVG Export Plug-In . SVG Version: 6.00 Build 0)  -->
<svg version="1.1" id="Layer_1" xmlns="http://www.w3.org/2000/svg" xmlns:xlink="http://www.w3.org/1999/xlink" x="0px" y="0px"
	 viewBox="0 0 448.9 512" style="enable-background:new 0 0 448.9 512;" xml:space="preserve">
<path d="M165.8,93.5c0,6.1-4.9,11-11,11H72v304h82.8c6.1,0,11,4.9,11,11V470c0,6.1-4.9,11-11,11H11c-6.1,0-11-4.9-11-11V43.6
	c0-6.1,4.9-11,11-11h143.7c6.1,0,11,4.9,11,11v49.9H165.8z M448.9,470c0,6.1-4.9,11-11,11H294.1c-6.1,0-11-4.9-11-11v-49.9
	c0-6.1,4.9-11,11-11h82.8V105h-82.8c-6.1,0-11-4.9-11-11V43.6c0-6.1,4.9-11,11-11h143.7c6.1,0,11,4.9,11,11L448.9,470L448.9,470z"/>
</svg>
