<?xml version="1.0" encoding="utf-8"?>
<!-- Generator: Adobe Illustrator 21.1.0, SVG Export Plug-In . SVG Version: 6.00 Build 0)  -->
<svg version="1.1" id="Layer_2" xmlns="http://www.w3.org/2000/svg" xmlns:xlink="http://www.w3.org/1999/xlink" x="0px" y="0px"
	 viewBox="0 0 550.5 512" style="enable-background:new 0 0 550.5 512;" xml:space="preserve">
<path d="M531,96.5c13,0,19.5,6.5,19.5,19.6v101.6H324.2c0-12.8-6.5-19.1-19.5-19.1h-58.5c-13,0-19.5,6.4-19.5,19.1H0V116.1
	C0,103,6.5,96.5,19.5,96.5h149.2l-0.4-42c1.4-10.8,7.5-16.2,18.2-16.2h178.4c10.7,0,16.7,5.3,18.2,15.7v42.5H531L531,96.5z
	 M304.7,256.4c13,0,19.5-6.4,19.5-19.1h226.3v216.8c0,13.1-6.5,19.6-19.5,19.6H19.5c-13,0-19.5-6.5-19.5-19.6V237.3h226.7
	c0,12.8,6.5,19.1,19.5,19.1H304.7z M354.7,74c0.6-7.6-3.5-11.5-12.1-11.5H208.8c-8.1,0-12.2,3.8-12.6,11.5v22.5h158.5V74L354.7,74z
	 M255.7,237.2c-6.4,0-9.5-3.2-9.5-9.8c0-6.5,3.1-9.8,9.5-9.8h39c6.6,0,9.9,3.2,9.9,9.8c0,6.5-3.3,9.8-9.9,9.8H255.7z"/>
</svg>
