<?xml version="1.0" encoding="utf-8"?>
<!-- Generator: Adobe Illustrator 21.1.0, SVG Export Plug-In . SVG Version: 6.00 Build 0)  -->
<svg version="1.1" id="Layer_3" xmlns="http://www.w3.org/2000/svg" xmlns:xlink="http://www.w3.org/1999/xlink" x="0px" y="0px"
	 viewBox="0 0 512 512" style="enable-background:new 0 0 512 512;" xml:space="preserve">
<g>
	<path d="M512,193.1v284.1c0,19.2-15.5,34.7-34.7,34.7H193.1c-19.2,0-34.7-15.5-34.7-34.7v-91.7h52V460H460V210.4h-74.4v-52h91.7
		C496.5,158.4,512,174,512,193.1z"/>
	<g>
		<path d="M318.8,353.6H34.7C15.5,353.6,0,338,0,318.8V34.7C0,15.5,15.5,0,34.7,0h284.1c19.2,0,34.7,15.5,34.7,34.7v284.1
			C353.6,338,338,353.6,318.8,353.6z"/>
	</g>
</g>
</svg>
