<?xml version="1.0" encoding="utf-8"?>
<!-- Generator: Adobe Illustrator 21.1.0, SVG Export Plug-In . SVG Version: 6.00 Build 0)  -->
<svg version="1.1" id="Layer_1" focusable="false" xmlns="http://www.w3.org/2000/svg" xmlns:xlink="http://www.w3.org/1999/xlink"
	 x="0px" y="0px" viewBox="0 0 512 512" style="enable-background:new 0 0 512 512;" xml:space="preserve">
<path d="M0,480h512V165.3H0V480z M0,32v108.9h512V32H0z M56.7,109.3c-11.1,0-20.2-9-20.2-20.2s9-20.2,20.2-20.2s20.2,9,20.2,20.2
	S67.9,109.3,56.7,109.3z M113.3,109.3c-11.2,0-20.2-9-20.2-20.2s9-20.2,20.2-20.2s20.2,9,20.2,20.2S124.4,109.3,113.3,109.3z
	 M169.7,109.3c-11.2,0-20.2-9-20.2-20.2s9-20.2,20.2-20.2s20.2,9,20.2,20.2S180.9,109.3,169.7,109.3z"/>
</svg>
