<?xml version="1.0" encoding="utf-8"?>
<!-- Generator: Adobe Illustrator 21.1.0, SVG Export Plug-In . SVG Version: 6.00 Build 0)  -->
<svg version="1.1" id="Layer_2" xmlns="http://www.w3.org/2000/svg" xmlns:xlink="http://www.w3.org/1999/xlink" x="0px" y="0px"
	 viewBox="0 0 465.5 512" style="enable-background:new 0 0 465.5 512;" xml:space="preserve">
<g>
	<path d="M453.2,285.3c7.1-0.8,12.3-7.1,12.3-14.2v-34.3c0-23-18.8-41.7-41.9-41.7l-381.7,0.1C18.8,195.2,0,213.9,0,236.9v34.3
		c0,7.1,5.2,13.4,12.3,14.2c8.4,1,15.7-5.5,15.7-13.8v-34.7c0-7.7,6.2-13.9,13.9-13.9h33v84.1h-30C21.8,307.1,3,325.8,3,348.8v34.7
		c0,7.8,6.5,14.1,14.5,13.9c7.4-0.3,13.5-6.9,13.5-14.4v-34c0-7.7,6.3-14,14-14h30v18.6c0,18.8,3.2,36.8,9.3,53.4h-0.2
		c-23.1,0-41.9,18.7-41.9,41.7v22.7c0,7.8,6.5,14.1,14.5,13.9c7.4-0.3,13.5-6.9,13.5-14.4v-22.1c0-7.7,6.3-14,14-14h13.3
		c27.7,46.3,78.3,77.2,136,77.2c57.8,0,108.4-31,136-77.2h12.4c7.7,0,14,6.3,14,14V471c0,7.1,5.2,13.4,12.3,14.2
		c8.4,1,15.7-5.5,15.7-13.8v-22.7c0-22.7-18.4-41.2-41.1-41.7c6-16.7,9.3-34.7,9.3-53.4v-18.7h29.1c7.7,0,14,6.3,14,14v34.2
		c0,7.1,5.2,13.4,12.3,14.2c8.4,1,15.7-5.5,15.7-13.8v-34.7c0-23-18.8-41.7-41.9-41.7h-29v-84.2h31.9c7.7,0,14,6.3,14,14v34.6
		C437.6,279.8,444.8,286.3,453.2,285.3z M148.2,275.7c-0.6-9,6.8-16.3,15.7-15.8c7.4,0.4,13.4,6.5,13.9,13.8
		c0.6,9-6.8,16.4-15.8,15.8C154.7,289.1,148.6,283.1,148.2,275.7z M178,418.2c-8.3,0-15-6.7-15-15c0-7.8,6.2-14.4,14-14.9
		c9.1-0.6,16.5,6.9,15.9,15.9C192.4,412,185.8,418.2,178,418.2z M188,362.3c-10.8-0.8-19.5-9.8-20-20.6
		c-0.6-12.6,9.4-22.9,21.8-22.9c12,0,21.8,9.7,21.8,21.8C211.5,353.2,200.7,363.3,188,362.3z M249.4,325.5c0-9.9,8-18,18-18
		c9.9,0,18,8,18,18s-8.1,17.9-18,17.9C257.4,343.4,249.4,335.4,249.4,325.5z M283.6,400.5c-9.4,1.2-17.4-6.8-16.2-16.2
		c0.8-6.4,6-11.6,12.4-12.4c9.4-1.2,17.4,6.8,16.2,16.2C295.2,394.4,290.1,399.6,283.6,400.5z M307.9,277.2
		c-9.4,1.2-17.3-6.8-16.1-16.2c0.8-6.4,6-11.6,12.4-12.4c9.4-1.2,17.4,6.8,16.2,16.2C319.5,271.2,314.3,276.4,307.9,277.2z"/>
	<path d="M303.3,87.5c-2.3-2.2-4.5-4.1-6.9-6.1c1.8-5.9,2.7-12.1,2.7-18.5c0-12.6-8.9-32.7-17.4-46.8c-8.4-13.8-16.6-21.8-16.6-11.2
		c0,4,1.7,7.7,3.7,11.2c3.1,5.5,7.4,10.9,7.4,17.6c0,11.6-4.6,22.2-12,30c-9.8-3.1-20.3-4.6-31.4-4.6c-10.8,0-21.1,1.5-30.7,4.4
		c-7.3-7.8-11.8-18.3-11.8-29.8c0-6.7,4-12.1,7.2-17.6c2.1-3.5,3.7-7.2,3.7-11.2c0-10.5-8.3-2.6-16.6,11.2
		c-8.6,14.1-17.2,34.2-17.2,46.8c0,6.3,0.9,12.4,2.6,18.2c-2.5,2-4.8,4.1-7.2,6.4c-19.2,19.1-28.8,42.2-28.8,69.2h198.8
		C332.6,129.4,322.9,106.4,303.3,87.5z"/>
</g>
</svg>
