<?xml version="1.0" encoding="utf-8"?>
<!-- Generator: Adobe Illustrator 21.1.0, SVG Export Plug-In . SVG Version: 6.00 Build 0)  -->
<svg version="1.1" id="Layer_2" xmlns="http://www.w3.org/2000/svg" xmlns:xlink="http://www.w3.org/1999/xlink" x="0px" y="0px"
	 viewBox="0 0 467.7 512" style="enable-background:new 0 0 467.7 512;" xml:space="preserve">
<g>
	<path d="M439.4,272.8v-34.9c0-7.7-6.3-13.9-14-13.9h-32v84.6h29.2c23.2,0,42.1,18.8,42.1,41.9v34.9c0,7.7-6.2,13.9-14,13.9
		c-7.7,0-14-6.2-14-13.9v-34.9c0-7.7-6.3-13.9-14-13.9h-29.2v18.8c0,18.9-3.3,36.9-9.3,53.7c22.8,0.4,41.3,19.1,41.3,41.9v22.8
		c0,7.7-6.3,13.9-14,13.9s-14-6.2-14-13.9V451c0-7.7-6.3-13.9-14-13.9H371c-23.3,39-62.8,67.1-109.2,75.2V257.5
		c0-7.7-3.2-14.7-8.2-19.8c-5-5-12.1-8.2-19.8-8.2c-15.5,0-28,12.6-28,28V512c-45.9-8.3-85.1-36.3-108.2-75H84.2
		c-7.7,0-14,6.2-14,13.9v22.8c0,7.7-6.2,13.9-14,13.9c-7.7,0-14-6.2-14-13.9V451c0-23.1,18.9-41.9,42.1-41.9h0.2
		c-6-16.8-9.3-34.9-9.3-53.7v-18.7H44.7c-7.7,0-14,6.2-14,13.9v34.8c0,7.7-6.3,13.9-14,13.9s-14-6.2-14-13.9v-34.8
		c0-23.1,18.9-41.9,42.1-41.9H75v-84.5H42c-7.7,0-14,6.2-14,13.9V273c0,7.7-6.3,13.9-14,13.9S0,280.7,0,273v-35
		c0-23.1,18.9-41.9,42.1-41.9l383.5-0.1c23.2,0,42.1,18.8,42.1,41.9v34.9c0,7.7-6.3,13.9-14,13.9S439.4,280.6,439.4,272.8z"/>
	<path d="M304.5,87.9c-2.3-2.2-4.5-4.2-6.9-6.1c1.8-5.9,2.7-12.2,2.7-18.6c0-12.7-8.9-32.8-17.5-47c-8.4-13.8-16.7-21.9-16.7-11.3
		c0,4.1,1.7,7.7,3.8,11.3c3.2,5.5,7.4,11,7.4,17.7c0,11.7-4.6,22.4-12.1,30.2c-9.9-3.1-20.4-4.6-31.6-4.6c-10.9,0-21.2,1.5-30.9,4.5
		c-7.3-7.8-11.9-18.4-11.9-30c0-6.7,4.1-12.2,7.2-17.7c2.1-3.6,3.8-7.2,3.8-11.3c0-10.6-8.3-2.6-16.7,11.3
		c-8.6,14.1-17.3,34.3-17.3,47c0,6.3,0.9,12.5,2.6,18.3c-2.5,2-4.8,4.2-7.2,6.4c-19.3,19.2-29,42.4-29,69.5H334
		C334,130,324.2,106.9,304.5,87.9z"/>
</g>
</svg>
