<?xml version="1.0" encoding="utf-8"?>
<!-- Generator: Adobe Illustrator 21.1.0, SVG Export Plug-In . SVG Version: 6.00 Build 0)  -->
<svg version="1.1" id="Layer_4" xmlns="http://www.w3.org/2000/svg" xmlns:xlink="http://www.w3.org/1999/xlink" x="0px" y="0px"
	 viewBox="0 0 361.1 512" style="enable-background:new 0 0 361.1 512;" xml:space="preserve">
<g>
	<path d="M1,0v512h120v-82.8c-0.4-33.4,26.7-60.4,60-60.4s60.4,27.1,61,60.4V513h119V0H1z M152,80h58v57h-58V80z M152,164h58v57h-58
		V164z M152,248h58v57h-58V248z M71,80h58v57H71L71,80z M71,164h58v57H71L71,164z M71,305l0-57h58v57H71z M290,305h-58v-57h58V305z
		 M290,221h-58v-57h58V221z M290,137h-58V80h58V137z"/>
</g>
</svg>
