<?xml version="1.0" encoding="utf-8"?>
<!-- Generator: Adobe Illustrator 21.1.0, SVG Export Plug-In . SVG Version: 6.00 Build 0)  -->
<svg version="1.1" id="Layer_4" xmlns="http://www.w3.org/2000/svg" xmlns:xlink="http://www.w3.org/1999/xlink" x="0px" y="0px"
	 viewBox="0 0 537.2 512" style="enable-background:new 0 0 537.2 512;" xml:space="preserve">
<g>
	<path d="M242.9,1v511.1h94.6V440c-0.3-29.1,23.3-52.6,52.3-52.6S442.4,411,443,440v73h93.7V1H242.9z M364.4,82.7h50.5v49.7h-50.5
		V82.7z M364.4,170.9h50.5v49.7h-50.5V170.9z M364.4,259.1h50.5v49.7h-50.5V259.1z M288.9,82.7h50.5v49.7h-50.5V82.7z M288.9,170.9
		h50.5v49.7h-50.5V170.9z M288.9,308.8v-49.7h50.5v49.7H288.9z M489.7,308.8h-50.5v-49.7h50.5V308.8z M489.7,220.6h-50.5v-49.7h50.5
		V220.6z M489.7,132.4h-50.5V82.7h50.5V132.4z"/>
	<path d="M227.6,463.7c0-3.5,0-7.8,0.9-11.5v-14.9h-9.3c0,0,4.4-7.9,6.9-12.2l1.6-2.9v-3.3c0.1-14.2,0.9-29.7,0.9-29.7l-1.7-17.8
		v-14.3l0.9-20.2V331l-4.6-3.7c-8.7-7.2-17.6-15.2-27-24.3c5.7-6.4,15.8-17.6,26.8-29.2l4-3.7v-59.4l-22.8,23.4
		c-13.6,14.6-28.5,30.8-36.4,39.4c-12.3-14.1-23.4-28.3-32.9-42.3c9.8-8.9,19.3-18,28.3-27.4c8.7-9.1,17.2-18.6,25.7-29.2
		c5.8,4.4,12.5,10.1,17.8,14.5l20.9,17.4v-27.1v-20.6v-6l-4.7-3.8c-3.1-2.5-6.3-5.1-9.5-7.6c4.5-6.6,9.8-14.6,12.2-18.4l2.8-3.1
		V33.3l-13.2-0.2c-1.5,0-2.9-0.1-4.4-0.1c-56.4,0-109.4,23-149.3,64.8C21.7,139.9-0.2,195.8,0,255.4c0.3,59.5,22.5,115.6,62.7,158
		c33.9,35.6,76.9,57.8,124.3,64.2h0.1c0.3,0.1,0.8,0.1,1,0.1c0.1,0,0.2,0,0.2,0h0.3c5.4,0.8,11.2,1.5,17.4,1.5c4.2,0,7.9-0.3,11.3-1
		l10.1-2.1L227.6,463.7L227.6,463.7z M175.2,433.1c-25.2-6.1-49-18.1-69.4-35.2l62.2-65.4c13.3,13,26.1,24.3,38.9,34.5l4.8,3.8
		l-7.4,11.4C193.4,399.1,183.6,416.1,175.2,433.1z M134.8,174.8c-6.4,6.8-13.4,13.7-21.6,21.1c-11.7-21.1-21.2-42.1-28.4-62.6
		c1.7-2.2,3.6-4.3,5.5-6.3c1.7-1.8,3.7-3.7,5.6-5.4c19.7,7.7,39.7,17.7,59.5,29.9C148.4,159.9,141.7,167.5,134.8,174.8z M40.3,249.5
		c0.7-25.7,6.5-50.7,17.1-73.5c6.7,15.2,14.6,30.7,23.7,46.4C67.8,232.3,54.1,241.4,40.3,249.5z M103.3,256.9
		c10.5,15.1,22.8,30.5,36.6,46.1l-62.1,65.3c-16.1-21.3-27.4-46.4-33.3-73.2C64.5,284.4,84.2,271.5,103.3,256.9z M135.8,92.9
		c21.9-11.2,46-17.5,70.5-18.3l-2.5,4.6c-7.1,13-15,26-23.7,38.7C165.4,108.4,150.5,100,135.8,92.9z"/>
</g>
</svg>
