<?xml version="1.0" encoding="utf-8"?>
<!-- Generator: Adobe Illustrator 21.1.0, SVG Export Plug-In . SVG Version: 6.00 Build 0)  -->
<svg version="1.1" id="Layer_3" xmlns="http://www.w3.org/2000/svg" xmlns:xlink="http://www.w3.org/1999/xlink" x="0px" y="0px"
	 viewBox="0 0 425.5 512" style="enable-background:new 0 0 425.5 512;" xml:space="preserve">
<g>
	<g>
		<polygon points="75.8,513 127.8,513 127.8,415.4 373.5,415.4 373.5,513 425.5,513 425.5,363.6 75.8,363.4 		"/>
	</g>
	<g>
		<polygon points="149.8,513 181.8,513 181.8,469.4 235.2,469.4 235.2,513 267.2,513 267.2,469.4 319.5,469.4 319.5,513 351.5,513 
			351.5,437.4 149.8,437.4 		"/>
	</g>
	<path d="M0,0v512h52V331h219V0H0z M119.5,267.1H64V221h55.5V267.1z M119.5,188.4H64v-46.1h55.5V188.4z M119.5,110.3H64V64.1h55.5
		V110.3z M207,267.1h-55.5V221H207V267.1z M207,188.4h-55.5v-46.1H207V188.4z M207,110.3h-55.5V64.1H207V110.3z"/>
	<g>
		<polygon points="388.4,77.5 303,77.5 303,331.3 388.4,331.3 		"/>
	</g>
</g>
</svg>
