<?xml version="1.0" encoding="utf-8"?>
<!-- Generator: Adobe Illustrator 21.1.0, SVG Export Plug-In . SVG Version: 6.00 Build 0)  -->
<svg version="1.1" id="Layer_1" xmlns="http://www.w3.org/2000/svg" xmlns:xlink="http://www.w3.org/1999/xlink" x="0px" y="0px"
	 viewBox="0 0 512 512" style="enable-background:new 0 0 512 512;" xml:space="preserve">
<path d="M366.3,0l-71.4,71.4l0.1,0.3l14,65l17.8,17.8L306,175.3c-24.2-10.9-54.7-6.9-73.9,12.3L65.3,354.4c-20,20-24,49.9-12.5,74.1
	L0,512l83.4-52.7c8.7,4.1,18.1,6.5,28,6.5c17.5,0,33.9-6.8,46.1-19.1l166.8-166.8c20-20,24-49.8,12.6-74.1l20.7-20.7l16.9,16.9
	l65.7,14.8l0.2,0.2l71.7-71.3L366.3,0z M353.7,127.3l-11.3-11l-7-37.6l30.9-30.9l33.5,33.5L353.7,127.3z M433.1,176.4l-36.2-7.4
	l-12-11.6l45.5-45.5l33.6,33.6L433.1,176.4z"/>
</svg>
