<?xml version="1.0" encoding="utf-8"?>
<!-- Generator: Adobe Illustrator 21.1.0, SVG Export Plug-In . SVG Version: 6.00 Build 0)  -->
<svg version="1.1" id="Layer_1" xmlns="http://www.w3.org/2000/svg" xmlns:xlink="http://www.w3.org/1999/xlink" x="0px" y="0px"
	 viewBox="0 0 564.4 512" style="enable-background:new 0 0 564.4 512;" xml:space="preserve">
<path d="M564.4,444.8l-87-67.8v51H225.5c-107,0-193-86.9-193-193c0-106.9,86-193,192-193c8.9,0,16-7.3,16-17c0-8-7.1-15-16-15
	c-124,0-224,100.7-224,225c0,124,102.3,225,226,225c94.5,0,250.9-1,250.9-1v53L564.4,444.8z M291.5,52c14.4,0,26-11.6,26-26
	s-11.6-26-26-26s-26,11.6-26,26S277.1,52,291.5,52z"/>
</svg>
