<?xml version="1.0" encoding="utf-8"?>
<!-- Generator: Adobe Illustrator 21.1.0, SVG Export Plug-In . SVG Version: 6.00 Build 0)  -->
<svg version="1.1" id="Layer_1" xmlns="http://www.w3.org/2000/svg" xmlns:xlink="http://www.w3.org/1999/xlink" x="0px" y="0px"
	 viewBox="0 0 512 512" style="enable-background:new 0 0 512 512;" xml:space="preserve">
<g>
	<g>
		<path d="M496.3,103.7c-0.7,0-1.6,0.2-2.4,0.5l-40.6,15.2c-1.5,0.5-2.7,1.4-3.6,2.8c-0.7,1.5-0.7,2.9-0.2,4.3
			c0.7,1.8,1.7,3,3.2,3.6c0.7,0.2,1.4,0.3,2.1,0.3c0.8,0,1.6-0.1,2.4-0.5l40.6-15.2c1.6-0.6,2.7-1.5,3.2-2.7
			c0.8-1.5,0.9-3.2,0.3-4.9c-0.5-1.4-1.6-2.4-3.2-3C497.5,103.8,497,103.7,496.3,103.7L496.3,103.7z"/>
	</g>
	<g>
		<path d="M456.9,42.9c-1.6,0-3,0.5-4.2,1.6l-31.8,28.9c-2.1,1.8-2.8,4-1.8,6.4c0.3,0.9,0.6,1.5,0.9,1.8c1.5,1.3,2.9,1.9,4.4,2
			c0.3,0,0.6,0,0.8,0c1.3,0,2.4-0.4,3.3-1.3L460.7,53c1-1,1.6-2.4,1.7-4.3c0.1-1.4-0.4-2.8-1.5-4C459.8,43.5,458.5,42.9,456.9,42.9
			L456.9,42.9z"/>
	</g>
	<g>
		<path d="M395.2,1.9c-0.7,0-1.4,0.2-2.1,0.7c-1.6,0.6-2.8,1.6-3.8,2.9l-15.7,40.4c-0.5,1.2-0.5,2.6,0.1,4.2
			c0.5,1.3,1.4,2.4,2.7,3.1c0.8,0.4,1.5,0.5,2.2,0.5c0.9,0,1.7-0.3,2.5-0.8c1.4-0.5,2.5-1.4,3.2-2.7l16.2-39.9
			c0.6-1.6,0.6-3.2,0-4.8c-0.5-1.4-1.6-2.4-3.2-3C396.6,2.1,395.9,1.9,395.2,1.9L395.2,1.9z"/>
	</g>
	<g>
		<path d="M462.5,174c-1.3,0-2.6,0.5-3.7,1.5c-1,1.2-1.6,2.7-1.9,4.6c0,0.4,0.1,1.1,0.4,2c0.9,2.4,2.7,3.6,5.3,3.6
			c0.1,0,0.2,0,0.3,0l42.9,0.8c1.6,0,3-0.5,4.2-1.6c1.1-1.2,1.8-2.6,1.8-4c0.2-1.5-0.4-3-1.5-4.4c-1.2-1-2.5-1.5-3.9-1.6l-43.6-0.9
			C462.7,174,462.6,174,462.5,174L462.5,174z"/>
	</g>
	<g>
		<path d="M447.9,226.6c-0.5,0-1,0.1-1.5,0.2c-1.6,0.6-2.8,1.7-3.7,3.2c-0.4,1.6-0.4,3.1,0.2,4.5c0.5,1.4,1.4,2.5,2.7,3.2l38.2,19.6
			c1,0.5,1.9,0.7,2.9,0.7c0.7,0,1.4-0.1,2-0.4c1.4-0.5,2.5-1.4,3.2-2.7c0.8-1.5,1-3,0.5-4.4c-0.7-1.7-1.7-2.9-3.2-3.7l-38.4-19.5
			C449.8,226.8,448.9,226.6,447.9,226.6L447.9,226.6z"/>
	</g>
	<g>
		<path d="M383.2,118.9c-1.1,0-2.1,0.2-3.1,0.6l-5.3,2c-2.1,0.8-3.7,2.2-4.8,4.2c-0.8,2.1-0.8,4.2,0,6.4l28.7,76.6
			c0.9,2.3,2.3,3.9,4.2,4.8c1,0.4,2.1,0.6,3.2,0.6s2.1-0.2,3.2-0.6l5.3-2c1.9-0.7,3.5-2.1,4.8-4.2c1.1-2,1.2-4.2,0.3-6.5L391,124.2
			c-0.8-2.1-2.3-3.7-4.5-4.7C385.3,119.1,384.2,118.9,383.2,118.9L383.2,118.9z"/>
	</g>
	<g>
		<path d="M324.9,31.1c-3.4-8.7-13.5-12.2-21.7-8.8c-7.2,2.7-11.8,10.1-13.8,22.1c-12.1,55.5-37.4,99.1-68.3,117
			c-28.8,16.7-53.2,31.4-77.5,40.8c-3.4-3.2-7.1-5-11.3-5.5c-1.4-0.1-5.3,0.3-8.3,1.3l-66.5,24.9c-8,3-12.2,9-12.9,18.1l-24.9,9.3
			C8.5,254.6,2,261,0.3,269.4c-1.1,6.7,0.5,15.9,5,27.8L15.7,325c3.7,9.9,11.3,16.8,22.9,20.8c11.3,3.8,23.3,3.3,36.1-1.4
			c18.9-7.4,32.1,11.1,33.8,19.7l29.3,125.7c2.2,9.6,4.7,16.1,7.5,19.2c3.2,3.1,7.2,3.6,12.2,1.8l80.6-30.2
			c4.4-1.7,5.9-5.1,4.5-10.5l-6.9-28.9c-1.4-5.3-4.4-7.5-8.5-5.6c-5.9,2.7-10.2,1.8-14.2-0.7c-5-3-8.3-8.4-10-16.2l-13.4-58.5
			c3.3-4.3,3.7-11.4,1.8-16.7l-13.8-36.8c40.4-13.1,58.1-16,90.9-22c23.9-4.5,67.3-1.6,127.2,43.4c9.4,7.8,17.7,10.3,24.9,7.6
			c3.9-1.5,15-7.8,10.6-20.9L324.9,31.1z"/>
	</g>
</g>
</svg>
