<?xml version="1.0" encoding="utf-8"?>
<!-- Generator: Adobe Illustrator 21.1.0, SVG Export Plug-In . SVG Version: 6.00 Build 0)  -->
<svg version="1.1" id="Layer_1" xmlns="http://www.w3.org/2000/svg" xmlns:xlink="http://www.w3.org/1999/xlink" x="0px" y="0px"
	 viewBox="0 0 332 512" style="enable-background:new 0 0 332 512;" xml:space="preserve">
<style type="text/css">
	.st0{fill:#020400;}
</style>
<path class="st0" d="M315.7,486.9h-24.5c-3.1-0.5-4-1.4-3.6-4.3c3.3-20.2,5.7-40.5,6.6-60.9c2.4-52.4-2.7-104.1-19.2-154.7
	c-6.1-18.9-14.1-37.1-23.7-54.9c-9.8-18.1-20.7-35.7-34.2-51.9c-5.3-6.4-3.9-12.3-1.8-18.7c19.3-0.5,34.5-5.7,34.5-12.1
	c0-6.7-16.7-12.2-37.4-12.2c-11.1,0-21,1.6-27.8,4.1c-1.2-0.4-2.2-1.1-3.2-2.3c-9.5-10.1-19.8-19.6-30.3-28.9
	c-12.2-10.8-25.3-20.7-38.5-30.5c-7.4-5.4-14.7-11.1-23.4-14.9c-3.2-1.4-4.4-3-4.4-6.2c0.1-12.7-0.1-25.3-0.1-38h-9.5
	c0,13.2,0.1,26.4,0.1,39.6c0,1.7,0.2,3.6-2.7,3.2c-3.9-0.5-4.2,1.4-4.2,4.1c0.1,32.8,0,65.6,0,98.4c0,2.3,0,4.6,0,6.9
	c0,1-0.1,1.6-0.6,1.9c-6.8-4-18-6.6-30.7-6.6C16.7,148,0,155,0,163.5S16.7,179,37.4,179c4.3,0,8.3-0.3,12-0.8c5.2,2,10.5,4,15.8,5.9
	c2.7,1,3.5,2.1,3.5,4.4c-0.1,11.8,0,23.7,0,35.5c0,85.9,0,171.8,0.1,257.6c0,3.2-0.8,4.9-4.6,5.8H45.7c-8.9,0-16.2,6.3-16.2,14V512
	H332v-11.1C331.9,493.2,324.6,486.9,315.7,486.9z M139.9,197.6c1.6,5.2,3.2,10.6,4.7,16c-7.6-0.1-39.7,0-39.7,0v-16.2l1.5-0.2
	c0,0,22.8,0,33.4,0C139.7,197.3,139.7,197.3,139.9,197.6z M162.1,319.3c-11.4-0.1-57.2,0-57.2,0v-16.4c0,0,41.8,0,56.3-0.1
	C161.6,307.8,161.9,313.3,162.1,319.3z M163.1,364.2c-7.8,0.1-58.2,0.1-58.2,0.1v-16.4c0,0,40.3,0,57.9,0
	C162.9,353.1,162.9,358.6,163.1,364.2z M163.1,403.1c-0.1,0-0.2,0-0.5,0c-14.5-0.1-57.8,0-57.8,0v-7.3c0,0,45.7,0.2,58.3,0
	C163.2,398.3,163.1,400.7,163.1,403.1z M160.6,295.3c0,0.6,0.1,1.2,0.1,1.8c-12.3,0-55.9,0.1-55.9,0.1v-8.4c0,0,39.2,0,55,0.1
	C160.2,290.9,160.4,293.1,160.6,295.3z M157.2,269.5c-14,0-52.3,0-52.3,0v-5.1c0,0,36.8,0.1,51.5,0
	C156.6,266.1,156.9,267.8,157.2,269.5z M104.9,409c0,0,41.4,0.1,58.2,0c0,5.7-0.1,11.2-0.1,16.4c-11.5-0.1-58,0-58,0L104.9,409z
	 M163.1,376.8c-12.8-0.1-58.3,0-58.3,0v-6.4c0,0,40.9,0.1,58.2,0C163.1,372.5,163.1,374.7,163.1,376.8z M162.7,342
	c-11.3-0.1-57.8,0-57.8,0v-16.5c0,0,40.4,0,57.5,0C162.5,330.8,162.6,336.3,162.7,342z M155.2,258.6c-12.1,0-50.4,0-50.4,0v-16.4
	c0,0,35,0.1,47,0C153,247.6,154.2,253.1,155.2,258.6z M150.4,235.9c-10.3-0.1-45.6,0-45.6,0v-16.3c0,0,30,0.1,41.4,0
	C147.7,225,149.1,230.4,150.4,235.9z M137.8,191.1c-6.9,0-33,0-33,0v-9.3c0,0,22.5,0,29.9,0C135.8,184.9,136.9,188,137.8,191.1z
	 M104.9,162.9v-56.1c5,10.7,14,30.7,23.2,56.1C122.2,162.7,111,162.8,104.9,162.9z M104.9,431.4c0,0,57.6,0,58,0
	c-0.1,6-0.1,11.6-0.2,16.6c-0.3,0-57.8,0.3-57.8,0.3V431.4z M104.9,470.3V454c0,0,43.7,0.1,57.7-0.1c-0.1,7.2-0.2,12.9-0.2,16.4
	C152.3,470.4,104.9,470.3,104.9,470.3z M240,437.3c-0.9,10.8-3.2,21.6-4.7,32.4c-0.3,2.5-1.3,3.8-4.7,3.7c-14.7-0.2-45.9,0-45.9,0
	s0.1-0.5,0.8-3.7c5.7-24.2,6.5-48.6,7.8-73.2c1.2-18.9,1.4-37.8,0.6-56.7c-1.2-25.4-3.6-50.8-7.8-76c-3.8-22.8-9.2-45.2-15.9-67.4
	c-6.1-20.4-14.1-40.2-23.2-59.8c-8.1-17.4-17-34.4-28-50.6c-0.5-0.6-0.8-1.3-1.7-2.9c5.5,2.4,8.1,6.1,11.1,9.1
	c22.5,22.4,41.8,46.7,58,72.9c18.1,29.2,32.1,59.7,41,92c5.9,21.2,9.2,42.8,11.7,64.4C243.6,360.1,243.5,398.7,240,437.3z"/>
</svg>
