<?xml version="1.0" encoding="utf-8"?>
<!-- Generator: Adobe Illustrator 21.1.0, SVG Export Plug-In . SVG Version: 6.00 Build 0)  -->
<svg version="1.1" id="fill" xmlns="http://www.w3.org/2000/svg" xmlns:xlink="http://www.w3.org/1999/xlink" x="0px" y="0px"
	 viewBox="0 0 317 512" style="enable-background:new 0 0 317 512;" xml:space="preserve">
<path d="M206.2,512v-22.9H317V512H206.2z M204,476.5h87.3v9.4H204V476.5z M204.8,473.4c-1.1,0-2.1,0-3.2,0.1c-0.5,0,0.2,3.8-0.3,3.8
	c-12.8,0-26.9,0-39.7,0c-16.2,0-30.7,0.1-45.7,0c-0.3,0,0.3-3.8,0-3.8c-8.1,0-18.6,0-25.4,0c-22.3,0-36.7,0-36.7,0
	s5.8-55.5,5.8-47.5c0-0.9,11-6.1,39.9-6.1c12.7,0,44.8,5.3,58.5,5.1c13.3-0.2,26.3-2.2,38.8-3.2c24.4-1.8,55.2,2,58.1,2.6
	c0.9,0.2,7.6,0.7,7.6,4.8c0,17.5,3.1,44.2,3.1,44.2s-13.6,0-33.9,0C223.1,473.4,215,473.4,204.8,473.4z M78.3,436.3l-1.1,33.9
	l1.5,0.1h1.8l1.4-34.1L78.3,436.3z M107.6,426l-0.2,0.2l-2.1,44.8l4.1,0.3l2.4-44.6L107.6,426z M132.5,426.4v-0.2h-0.6h-0.3
	L132.5,426.4v45.7l4.3,0.1l0.2-45L132.5,426.4z M164.8,428.4c-1.8,0.4-2.9,0.5-3.8,0.7c-0.3,0.1-0.6-0.2-0.8-0.2
	c-0.2,2.6-0.3,44.1-0.3,44.1l5.3,0.3l0.3-0.1C165.5,473.2,164.5,432,164.8,428.4z M201,426.3c-2.9,0.1-0.9,0.3-4.1,0.1
	c-0.3,0-0.6,0.1-0.8,0.1c0.3,2.6,1.1,43,1.1,43h5.5C202.7,469.6,201.6,429.2,201,426.3z M234.7,427.3c0.2,2,0.2,40.9,0.3,43
	c3.1,0,2.6,0,5.7,0c0-2.4-1.7-43-1.7-43H234.7C234.7,427.2,234.7,427.3,234.7,427.3z M158.3,415c-24,0-48.1-4.2-66.9-4.2
	c-21.1,0-31.3,5.2-31.3,5.2s1.4-51.4,1.4-59.4c0-2.2,22.6-1,22.6-1s2.9-12.9,2.9-20.9c0-3.7,14.7-5.2,28.3-5.2
	c12.1,0,26.6,4.4,39.7,4.2c12.7-0.2,24.9-5.2,36.8-5.2c13,0,26.1,0.5,34.1,3.1c3.7,1.2,6.7,2.7,6.7,4.4c0,4.7-1.1,8.1-1.1,8.1
	s2.9,19.9,2.9,38.6c0,0.5,19.9-1,19.9,3.1c0,17.4,2.9,27.1,2.9,27.1s-12.8-2.1-32.2-2.1C206.5,410.9,182.5,415,158.3,415z
	 M79.2,359.5c0.2,0,0.2,0,0.3,0c-0.5,1.8-0.9,47.4-1.2,49.2c2,0.2-0.8,0.3,1.2,0.5c0.6,0,1.2,0,1.8,0c0.5-2,0.9-47.8,1.2-49.8
	C79.8,359.5,82,359.5,79.2,359.5z M107.3,335.4c0.3,0,0.5,0.1,0.8,0.1c-0.5,2.8-1.1,70.6-1.5,73.3c3.1,0.4,2,0.2,5,0.6
	c0.8-3.3,1.5-70.8,2.3-74.1C110.4,335.4,111,335.4,107.3,335.4z M135.3,336c0.2,0,0.2,0,0.3,0s0.3,0,0.5,0c0,1.5,0,73.2,0,74.7
	c3.4,0.4,1.1,0.8,4.4,1.1c0.3-2,0.5-73.1,0.8-75.1C137.3,336.7,139.1,335.8,135.3,336z M164.6,337.8c-3.4,0-0.5,0-4,0
	c-0.3,0.1-0.5,0.1-0.8,0.2c-0.2,2.6-0.2,70.9-0.3,73.6c4.4,0.1,2.4,0.2,6.7,0.3c0.2,0,0.2-0.1,0.3-0.1
	C166,409,165.4,340.6,164.6,337.8z M199.9,333.6c-3.1-0.2-1.2-0.4-4.3-0.6c-0.3,0-0.5,0.1-0.8,0.1c0.3,2.6,0.6,70.9,1.1,73.6
	c3.5,0.4,2.1,0.8,5.7,1.2C201,405.1,200.4,336.5,199.9,333.6z M233.8,386c0.2,2,0.2,20.7,0.3,22.7c2.9,0.3,2.3,0.6,5.2,0.9
	c-1.2-2.3-0.9-20.1-0.8-23.7C236.7,386,235.7,386,233.8,386L233.8,386z M159.9,326.4c-17.9,0-35.9-4.2-50-4.2
	c-15.7,0-26.6,5.2-26.6,5.2s4.3-56.6,4.3-64.7c0-2.2,17-1,17-1s2.1-12.9,2.1-20.9c0-3.7,10.8-5.2,21.2-5.2c9,0,19.9,4.4,29.6,4.2
	c9.5-0.2,18.6-5.2,27.5-5.2c9.8,0,19.6,0.5,25.4,3.1c2.8,1.2,5,2.7,5,4.4c0,4.7-0.8,8.1-0.8,8.1s2.1,19.9,2.1,38.6
	c0,0.5,14.8-1,14.8,3.1c0,17.4,2.1,32.3,2.1,32.3s-9.6-2.1-24-2.1C195.9,322.2,178.1,326.4,159.9,326.4z M100.9,266h0.2
	c-0.3,1.8-0.6,52.3-0.9,54.1c1.8-0.3,2.9-0.5,4.4-0.3l0,0l0,0c-0.2,0-0.3,0,0,0l0,0c0,0,0.2,0,0,0c0.3-2.8,0.6-51.9,0.9-53.9
	C103.5,266,102.9,266,100.9,266z M116.6,241.5c0.2,0,0.5,0.1,0.6,0.1c-0.5,2.8-0.8,75.8-1.2,78.6c2.3,0.4,1.8,0.5,4.1,1
	c0.6-3.3,1.2-76.4,1.7-79.6C119.2,241.5,119.2,241.5,116.6,241.5z M136.5,241.4h0.2c0.2,0,0.3,0,0.5,0c0,1.5,0,79.1,0,80.6
	c2.4,0.4,2.1,0.8,4.7,1.1c0.2-2,0.5-80.1,0.6-82.1C139.6,241.2,139.4,241.3,136.5,241.4z M163.2,244c-2.6,0-2.3,0-4.9,0
	c-0.2,0.1-0.5,0.1-0.6,0.2c0,2.6-0.2,76.2-0.2,78.8c3.2,0.1,3.7,0.2,7,0.3l0.2-0.1C164.3,320.4,163.8,246.7,163.2,244z M199,239.8
	c-2.3-0.2-1.8-0.4-4.1-0.6c-0.2,0-0.5,0.1-0.6,0.1c0.3,2.6,0.5,76.2,0.8,78.8c2.6,0.4,2.4,0.8,5,1.2
	C199.8,316.5,199.3,242.7,199,239.8z M216.4,290.1c0,2,1.5,28,1.5,30c2.1,0.3,2.9,0.6,5.2,0.9c-0.9-2.3-1.8-28.7-2.8-31
	C219.2,290.1,217.8,290,216.4,290.1C216.4,290,216.4,290.1,216.4,290.1z M197.8,229.4v-28.9c0,0,2.9-0.6,6-0.2
	c4.1,0.6,8.9,2.3,8.9,2.3v30.9c0,0-2.9-1.8-6.1-2.7C202.3,229.7,197.8,229.4,197.8,229.4z M178.1,228.3c-8.1,0.5-16.3,3.2-16.3,3.2
	v-77.2c0,0,5.5-3.1,10.5-3.1c9.3,0,21.2,10.4,21.2,10.4v67.8C193.5,229.4,185.8,227.8,178.1,228.3z M161.7,151.2V122
	c0,0,6.6-3.8,12.7-3.1c7.5,0.9,14.8,4.2,14.8,4.2v30.3c0,0-8.9-5.1-17-6.3C167.4,146.3,161.7,151.2,161.7,151.2z M159.6,154.3v77.2
	c0,0-7.6-2.6-15.3-3.2c-7.3-0.5-14.4,1.1-14.4,1.1v-72.8c0,0,4.6-5.4,13.4-5.4C148.1,151.2,159.6,154.3,159.6,154.3z M174.4,116.8
	c-11.9,0-17-0.7-17,14.6c0,9,0,18,0,19.6c0,0.1,0,0.2,0,0.2s-7.5-3.2-14.8-3.2c-6.4,0-12.7,4.2-12.7,4.2V98c0,0,15.4-0.2,27.5,2.1
	c9.8,1.8,17,6.3,17,6.3s0,4.2,0,10.1C174.4,116.6,174.7,116.8,174.4,116.8z M142.6,93.8V81.3c0,0,9-2.1,17.3-2.1
	c7.5,0,14.4,2.1,14.4,2.1v18.8c0,0-10.1-3-18.8-4.8C148.7,94,142.6,93.8,142.6,93.8z M161.7,67.8h10.5v10.4l-10.5-1V67.8z
	 M161.7,36.5h6.4v27.1h-6.4V36.5z M155.3,0h8.4v32.3h-8.4V0z M159.6,56.3H149V37.5h10.5V56.3z M155.3,76.1l-10.5,1V60.5h10.5V76.1z
	 M108.8,233.6v-57.4c0,0,4.7-1.7,8.9-2.3c3.2-0.4,6,0.2,6,0.2v55.3c0,0-4.6,0.3-8.7,1.4C111.6,231.7,108.8,233.6,108.8,233.6z
	 M113,485.9H25.9v-9.4h87.3v9.4H113z M110.8,512H0v-22.9h110.8V512z M201.9,512h-86.8v-32.3h86.8V512z"/>
</svg>
