<?xml version="1.0" encoding="utf-8"?>
<!-- Generator: Adobe Illustrator 21.1.0, SVG Export Plug-In . SVG Version: 6.00 Build 0)  -->
<svg version="1.1" id="Layer_1" xmlns="http://www.w3.org/2000/svg" xmlns:xlink="http://www.w3.org/1999/xlink" x="0px" y="0px"
	 viewBox="0 0 518.4 512" style="enable-background:new 0 0 518.4 512;" xml:space="preserve">
<path d="M508.4,63.6h-19.8c-5.5,0-10,4.5-10,10V143c0,5.5,4.5,10,10,10h8v20.5h-27.9c0-61.6,0-134.6,0-139.7
	c1.1-13.6-11-24.8-24.8-24.8c0,0-93.7-7.9-184.7-7.9S74.5,8.9,74.5,8.9c-13.7,0-24.8,11.2-24.8,24.8v139.7H22V153h7.8
	c5.5,0,10-4.5,10-10V73.5c0-5.5-4.5-10-10-10H10c-5.5,0-10,4.5-10,10V143c0,5.5,4.5,10,10,10h8v24.5h31.7v81.7c-2.2,0-4,1.8-4,4
	v47.7c0,0,15.4,7.9,30.8,12.9s30.8,6.9,30.8,6.9c5.5,0,9.9,4.4,9.9,9.9v6c0,5.5-4.4,9.9-9.9,9.9l-61.5-3v105.3
	c0,4.4,3.5,7.9,7.9,7.9c2,0,4.3,0,6.9,0v34.8c0,5.5,4.5,10,10,10h33.7c5.5,0,10-4.5,10-10v-34.8c80.6,0,213,0,289.9,0v34.7
	c0,5.5,4.5,10,10,10h33.7c5.5,0,10-4.5,10-10v-34.7c4.4,0,6.9,0,6.9,0c4.4,0,7.9-3.5,7.9-8.1v-105l-61.6,3c-5.5,0-9.9-4.4-9.9-9.9
	v-6c0-5.5,4.4-9.9,9.9-9.9c0,0,15.4-2,30.8-6.9c15.4-5,30.8-12.9,30.8-12.9v-47.7c0-2.2-1.7-3.9-4-3.9v-81.8h31.9V153h7.8
	c5.5,0,10-4.5,10-10V73.5C518.3,68,513.9,63.6,508.4,63.6z M80,446c-10.7,0-19.4-8.7-19.4-19.4c0-10.7,8.7-19.4,19.4-19.4
	s19.4,8.7,19.4,19.4C99.3,437.3,90.7,446,80,446z M120.7,446c-6.9,0-12.4-5.6-12.4-12.4c0-6.9,5.6-12.4,12.4-12.4
	s12.4,5.6,12.4,12.4S127.5,446,120.7,446z M251.2,119.3h-18.9c-7.1,0-12.9,5.8-12.9,12.9c0,7.1,5.8,12.9,12.9,12.9h18.9v106.2H93.4
	c-5.5,0-10-4.5-10-10v-133c0-5.5,4.5-10,10-10h157.8L251.2,119.3L251.2,119.3z M438.1,407.2c10.8,0,19.6,8.7,19.6,19.4
	c0,10.7-8.8,19.4-19.6,19.4c-10.8,0-19.6-8.7-19.6-19.4C418.5,415.9,427.3,407.2,438.1,407.2z M408.4,433.5
	c0,6.8-5.6,12.4-12.6,12.4c-6.9,0-12.6-5.6-12.6-12.4c0-6.9,5.6-12.4,12.6-12.4S408.4,426.7,408.4,433.5z M435.9,241.3
	c0,5.5-4.5,10-10,10H267.1V145.1H284c7.1,0,12.9-5.8,12.9-12.9c0-7.1-5.8-12.9-12.9-12.9h-16.9v-21h158.8c5.5,0,10,4.5,10,10
	L435.9,241.3L435.9,241.3z"/>
</svg>
