<?xml version="1.0" encoding="utf-8"?>
<!-- Generator: Adobe Illustrator 22.0.1, SVG Export Plug-In . SVG Version: 6.00 Build 0)  -->
<svg version="1.1" id="Layer_1" xmlns="http://www.w3.org/2000/svg" xmlns:xlink="http://www.w3.org/1999/xlink" x="0px" y="0px"
	 viewBox="0 0 512 512" style="enable-background:new 0 0 512 512;" xml:space="preserve">
<g>
	<path d="M0,0v230.3h512V0H0z M256.5,67.6c13.5,0,24.7,11.2,24.7,24.7c0,13.5-11.2,24.7-24.7,24.7s-24.7-11.2-24.7-24.7
		C231.8,78.7,243,67.6,256.5,67.6z M339.8,162.3c0,4.8-3.2,8-8,8H180.2c-4.8,0-8-3.2-8-8v-33.5c0-4.8,3.2-8,8-8c4.8,0,8,3.2,8,8
		v25.5h135.7v-25.5c0-4.8,3.2-8,8-8s8,4,8,8V162.3z"/>
	<path d="M0,282.3V512h512V282.3H0z M256.5,349.3c13.5,0,24.7,11.2,24.7,24.7c0,13.5-11.2,24.7-24.7,24.7s-24.7-11.2-24.7-24.7
		C231.8,360.4,243,349.3,256.5,349.3z M339.8,444c0,4.8-3.2,8-8,8H180.2c-4.8,0-8-3.2-8-8v-33.5c0-4.8,3.2-8,8-8c4.8,0,8,3.2,8,8
		V436h135.7v-25.5c0-4.8,3.2-8,8-8s8,4,8,8V444z"/>
</g>
</svg>
