<?xml version="1.0" encoding="utf-8"?>
<!-- Generator: Adobe Illustrator 22.0.1, SVG Export Plug-In . SVG Version: 6.00 Build 0)  -->
<svg version="1.1" id="Layer_3" xmlns="http://www.w3.org/2000/svg" xmlns:xlink="http://www.w3.org/1999/xlink" x="0px" y="0px"
	 viewBox="0 0 512 512" style="enable-background:new 0 0 512 512;" xml:space="preserve">
<path d="M469.2,0H38.8C17.4,0,0,17.5,0,39.1v433.8C0,494.5,17.4,512,38.8,512h430.4c21.4,0,38.8-17.5,42.8-33.1V45.1
	C508,17.5,490.7,0,469.2,0z M208.3,407.7H97.5c-4.5,0-8.4-1.8-11.4-4.8c-2.9-2.9-4.8-7-4.8-11.5c0-9,7.2-16.2,16.1-16.2h110.7
	c8.9,0,16.1,7.3,16.1,16.2S217.2,407.7,208.3,407.7z M208.3,354.9H97.5c-4.5,0-8.4-1.8-11.4-4.8c-2.9-2.9-4.8-7-4.8-11.5
	c0-9,7.2-16.2,16.1-16.2h110.7c8.9,0,16.1,7.3,16.1,16.2S217.2,354.9,208.3,354.9z M208.3,180.6H97.5c-4.5,0-8.4-1.8-11.4-4.8
	c-2.9-2.9-4.8-7-4.8-11.5c0-9,7.2-16.2,16.1-16.2h110.7c8.9,0,16.1,7.3,16.1,16.2C224.4,173.3,217.2,180.6,208.3,180.6z
	 M403.6,393.1c6.3,6.3,6.3,16.6,0,22.9s-16.5,6.3-22.7,0l-27.8-28l-27.8,28c-6.3,6.3-16.5,6.3-22.8,0c-6.3-6.3-6.3-16.6,0-22.9
	l27.8-28l-27.8-28c-6.3-6.3-6.3-16.6,0-22.9c6.3-6.3,16.5-6.3,22.8,0l27.8,28l27.8-28c6.3-6.3,16.5-6.3,22.7,0s6.3,16.6,0,22.9
	l-27.8,28L403.6,393.1z M408.5,180.6h-39.3v39.6c0,9-7.2,16.2-16.1,16.2c-8.8,0-16.1-7.3-16.1-16.2v-39.6h-39.3
	c-8.9,0-16.1-7.3-16.1-16.2c0-9,7.2-16.2,16.1-16.2h39.3v-39.6c0-9,7.2-16.2,16.1-16.2c8.8,0,16.1,7.3,16.1,16.2v39.6h39.3
	c8.9,0,16.1,7.3,16.1,16.2C424.6,173.3,417.3,180.6,408.5,180.6z"/>
</svg>
