<?xml version="1.0" encoding="utf-8"?>
<!-- Generator: Adobe Illustrator 19.0.0, SVG Export Plug-In . SVG Version: 6.00 Build 0)  -->
<svg version="1.1" id="Layer_5" xmlns="http://www.w3.org/2000/svg" xmlns:xlink="http://www.w3.org/1999/xlink" x="0px" y="0px"
	 viewBox="-137 0 449.1 512" style="enable-background:new -137 0 449.1 512;" xml:space="preserve">
<path d="M-137,8v496c0,4.4,3.6,8,8,8h433c4.4,0,8-3.6,8-8V8c0-4.4-3.6-8-8-8h-433C-133.4,0-137,3.6-137,8z M-71.2,56.5h316v135h-316
	V56.5z M119.5,266.2v42.6c0,5.9-4.8,10.7-10.7,10.7H66.2c-5.9,0-10.7-4.8-10.7-10.7v-42.6c0-5.9,4.8-10.7,10.7-10.7h42.6
	C114.8,255.5,119.5,260.3,119.5,266.2z M-8.5,436.8c0,5.9-4.8,10.7-10.7,10.7h-42.6c-5.9,0-10.7-4.8-10.7-10.7v-42.6
	c0-5.9,4.8-10.7,10.7-10.7h42.6c5.9,0,10.7,4.8,10.7,10.7V436.8z M-8.5,308.8c0,5.9-4.8,10.7-10.7,10.7h-42.6
	c-5.9,0-10.7-4.8-10.7-10.7v-42.6c0-5.9,4.8-10.7,10.7-10.7h42.6c5.9,0,10.7,4.8,10.7,10.7V308.8z M247.5,436.8
	c0,5.9-4.8,10.7-10.7,10.7H66.2c-5.9,0-10.7-4.8-10.7-10.7v-42.6c0-5.9,4.8-10.7,10.7-10.7h170.6c5.9,0,10.7,4.8,10.7,10.7V436.8z
	 M247.5,308.8c0,5.9-4.8,10.7-10.7,10.7h-42.6c-5.9,0-10.7-4.8-10.7-10.7v-42.6c0-5.9,4.8-10.7,10.7-10.7h42.6
	c5.9,0,10.7,4.8,10.7,10.7V308.8z"/>
</svg>
