<?xml version="1.0" encoding="utf-8"?>
<!-- Generator: Adobe Illustrator 21.1.0, SVG Export Plug-In . SVG Version: 6.00 Build 0)  -->
<svg version="1.1" id="Layer_3" xmlns="http://www.w3.org/2000/svg" xmlns:xlink="http://www.w3.org/1999/xlink" x="0px" y="0px"
	 viewBox="0 0 378.1 512" style="enable-background:new 0 0 378.1 512;" xml:space="preserve">
<path d="M0,0.5v512h378V0.5H0z M63,475.5c-14.4,0-26-11.6-26-26s11.6-26,26-26s26,11.6,26,26S77.4,475.5,63,475.5z M63,381.5
	c-14.4,0-26-11.6-26-26s11.6-26,26-26s26,11.6,26,26S77.4,381.5,63,381.5z M63,287.5c-14.4,0-26-11.6-26-26s11.6-26,26-26
	s26,11.6,26,26S77.4,287.5,63,287.5z M87,206.5H40c-4.4,0-8-3.6-8-8s3.6-8,8-8h47c4.4,0,8,3.6,8,8S91.4,206.5,87,206.5z M147,475.5
	c-14.4,0-26-11.6-26-26s11.6-26,26-26s26,11.6,26,26S161.4,475.5,147,475.5z M147,381.5c-14.4,0-26-11.6-26-26s11.6-26,26-26
	s26,11.6,26,26S161.4,381.5,147,381.5z M147,287.5c-14.4,0-26-11.6-26-26s11.6-26,26-26s26,11.6,26,26S161.4,287.5,147,287.5z
	 M171,206.5h-47c-4.4,0-8-3.6-8-8s3.6-8,8-8h47c4.4,0,8,3.6,8,8S175.4,206.5,171,206.5z M200,198.5c0-4.4,3.6-8,8-8h47
	c4.4,0,8,3.6,8,8s-3.6,8-8,8h-47C203.6,206.5,200,202.9,200,198.5z M231,287.5c-14.4,0-26-11.6-26-26s11.6-26,26-26s26,11.6,26,26
	S245.4,287.5,231,287.5z M257,355.5c0,14.4-11.6,26-26,26s-26-11.6-26-26s11.6-26,26-26S257,341.1,257,355.5z M314.5,476.5h-83
	c-14.6,0-26.5-11.9-26.5-26.5s11.9-26.5,26.5-26.5h83c14.6,0,26.5,11.9,26.5,26.5S329.1,476.5,314.5,476.5z M315,381.5
	c-14.4,0-26-11.6-26-26s11.6-26,26-26s26,11.6,26,26S329.4,381.5,315,381.5z M315,287.5c-14.4,0-26-11.6-26-26s11.6-26,26-26
	s26,11.6,26,26S329.4,287.5,315,287.5z M338,206.5h-47c-4.4,0-8-3.6-8-8s3.6-8,8-8h47c4.4,0,8,3.6,8,8S342.4,206.5,338,206.5z
	 M347,166.5H31v-135h316V166.5z"/>
</svg>
