<?xml version="1.0" encoding="utf-8"?>
<!-- Generator: Adobe Illustrator 22.0.1, SVG Export Plug-In . SVG Version: 6.00 Build 0)  -->
<svg version="1.1" id="Layer_2" xmlns="http://www.w3.org/2000/svg" xmlns:xlink="http://www.w3.org/1999/xlink" x="0px" y="0px"
	 viewBox="0 0 512 512" style="enable-background:new 0 0 512 512;" xml:space="preserve">
<path d="M310.5,245.1c-2.6-1.8-4.9-2.9-5.1-2.5c-0.3,0.4,1.6,2.1,4.2,3.9c2.5,1.8,4.9,2.9,5.1,2.5
	C315,248.6,313.1,246.8,310.5,245.1z M310.5,245.1c-2.6-1.8-4.9-2.9-5.1-2.5c-0.3,0.4,1.6,2.1,4.2,3.9c2.5,1.8,4.9,2.9,5.1,2.5
	C315,248.6,313.1,246.8,310.5,245.1z M427.9,42.9h-0.5v-7.2c0-19.3-15.7-35-35-35c-19.3,0-35,15.7-35,35v7.2l-206,0v-7.3
	c0-19.3-15.7-35-35-35c-19.3,0-35,15.7-35,35V43H81l-81,0v469.1h452.4l59.6-59.4l0.1-409.8L427.9,42.9z M51.9,94.9h29.5v1.4
	c0,19.3,15.7,35,35,35c19.3,0,35-15.7,35-35v-1.4h206v1.4c0,19.3,15.7,35,35,35c19.3,0,35-15.7,35-35v-1.4h32.3L460,147h-408V94.9z
	 M178.5,437.2l1-54.5c4.1,5.8,9.8,15.8,19.7,22.5c10.8,7.4,23.7,9.6,31.2,11.3L178.5,437.2z M335.6,263.3L234.3,409.5
	c-21.7,1.2-48.4-20.3-50.9-33.8l101.2-147.5c1.6-2.1,14.2,4,28.2,13.7C326.8,251.6,337,261.1,335.6,263.3z M438.8,480.2l0.2-40.8
	l40.7,0.2L438.8,480.2z M310.5,245.1c-2.6-1.8-4.9-2.9-5.1-2.5c-0.3,0.4,1.6,2.1,4.2,3.9c2.5,1.8,4.9,2.9,5.1,2.5
	C315,248.6,313.1,246.8,310.5,245.1z"/>
</svg>
