<?xml version="1.0" encoding="utf-8"?>
<!-- Generator: Adobe Illustrator 22.0.1, SVG Export Plug-In . SVG Version: 6.00 Build 0)  -->
<svg version="1.1" id="Layer_2_1_" xmlns="http://www.w3.org/2000/svg" xmlns:xlink="http://www.w3.org/1999/xlink" x="0px" y="0px"
	 viewBox="0 0 512 512" style="enable-background:new 0 0 512 512;" xml:space="preserve">
<path d="M427.9,42.9h-0.5v-7.2c0-19.3-15.7-35-35-35s-35,15.7-35,35v7.2h-206v-7.3c0-19.3-15.7-35-35-35s-35,15.7-35,35V43H81H0
	v469.1h452.4l59.6-59.4l0.1-409.8L427.9,42.9z M51.9,94.9h29.5v1.4c0,19.3,15.7,35,35,35s35-15.7,35-35v-1.4h206v1.4
	c0,19.3,15.7,35,35,35s35-15.7,35-35v-1.4h32.3L460,147H52L51.9,94.9L51.9,94.9z M256.4,431.5c-13.5,0-24.5-11-24.5-24.5
	s11-24.5,24.5-24.5s24.5,11,24.5,24.5C280.8,420.5,269.9,431.5,256.4,431.5z M286.6,259l-20.2,109.7h-20L226.2,259
	c-2.5-18.3,11.7-34.7,30.2-34.7c17.1,0,30.5,13.9,30.5,30.4C286.9,256.2,286.8,257.6,286.6,259z M438.8,480.2l0.2-40.8l40.7,0.2
	L438.8,480.2z"/>
</svg>
