<?xml version="1.0" encoding="utf-8"?>
<!-- Generator: Adobe Illustrator 22.0.1, SVG Export Plug-In . SVG Version: 6.00 Build 0)  -->
<svg version="1.1" id="Layer_2" xmlns="http://www.w3.org/2000/svg" xmlns:xlink="http://www.w3.org/1999/xlink" x="0px" y="0px"
	 viewBox="0 0 512 512" style="enable-background:new 0 0 512 512;" xml:space="preserve">
<path d="M427.9,42.9h-0.5v-7.2c0-19.3-15.7-35-35-35c-19.3,0-35,15.7-35,35v7.2l-206,0v-7.3c0-19.3-15.7-35-35-35
	c-19.3,0-35,15.7-35,35V43H81l-81,0v469.1h452.4l59.6-59.4l0.1-409.8L427.9,42.9z M51.9,94.9h29.5v1.4c0,19.3,15.7,35,35,35
	c19.3,0,35-15.7,35-35v-1.4h206v1.4c0,19.3,15.7,35,35,35c19.3,0,35-15.7,35-35v-1.4h32.3L460,147h-408V94.9z M358.3,354.6h-75.6
	v75.6h-53.4v-75.6h-75.6v-53.4h75.6v-75.6h53.4v75.6h75.6V354.6z M438.8,480.2l0.2-40.8l40.7,0.2L438.8,480.2z"/>
</svg>
