<?xml version="1.0" encoding="utf-8"?>
<!-- Generator: Adobe Illustrator 19.0.0, SVG Export Plug-In . SVG Version: 6.00 Build 0)  -->
<svg version="1.1" id="Layer_2" xmlns="http://www.w3.org/2000/svg" xmlns:xlink="http://www.w3.org/1999/xlink" x="0px" y="0px"
	 viewBox="67 0 512 512" style="enable-background:new 67 0 512 512;" xml:space="preserve">
<g>
	<path d="M494.4,42.9v-7.2c0-19.3-15.7-35-35-35c-19.3,0-35,15.7-35,35v7.2h-206v-7.3c0-19.3-15.7-35-35-35c-19.3,0-35,15.7-35,35
		V43H67v469.1h452.4l59.6-59.4l0.1-409.8H494.4z M119,94.9h29.4v1.4c0,19.3,15.7,35,35,35c19.3,0,35-15.7,35-35v-1.4h206v1.4
		c0,19.3,15.7,35,35,35c19.3,0,35-15.7,35-35v-1.4h32.3L527,147H119V94.9z M267.2,332.4c0,8-6.5,14.6-14.6,14.6h-98.8
		c-8,0-14.6-6.5-14.6-14.6v-98.8c0-8.1,6.5-14.6,14.6-14.6h98.8c8,0,14.6,6.5,14.6,14.6V332.4z M505.8,480.2l0.2-40.8l40.7,0.2
		L505.8,480.2z"/>
</g>
</svg>
