<?xml version="1.0" encoding="utf-8"?>
<!-- Generator: Adobe Illustrator 22.0.1, SVG Export Plug-In . SVG Version: 6.00 Build 0)  -->
<svg version="1.1" id="Layer_2_1_" xmlns="http://www.w3.org/2000/svg" xmlns:xlink="http://www.w3.org/1999/xlink" x="0px" y="0px"
	 viewBox="0 0 512 512" style="enable-background:new 0 0 512 512;" xml:space="preserve">
<g>
	<path d="M427.9,42.9h-56h-235h-56h-81V512h452.4l59.6-59.4L512,42.8L427.9,42.9z M51.9,94.9h407.7L460,147H52L51.9,94.9L51.9,94.9z
		 M156.3,415c0,3.3-2.7,6-6,6h-46c-3.3,0-6-2.7-6-6v-44c0-3.3,2.7-6,6-6h46c3.3,0,6,2.7,6,6V415z M413.7,288c0,3.3-2.7,6-6,6H104.3
		c-3.3,0-6-2.7-6-6v-44c0-3.3,2.7-6,6-6h303.4c3.3,0,6,2.7,6,6V288z M285.3,415c0,3.3-2.7,6-6,6h-46c-3.3,0-6-2.7-6-6v-44
		c0-3.3,2.7-6,6-6h46c3.3,0,6,2.7,6,6V415z M438.8,480.2l0.2-40.8l40.7,0.2L438.8,480.2z"/>
	<path d="M116.5,0.7c-19.3,0-35,15.7-35,35v60.6c0,19.3,15.7,35,35,35s35-15.7,35-35V35.7C151.5,16.4,135.8,0.7,116.5,0.7z"/>
	<path d="M392.4,0.7c-19.3,0-35,15.7-35,35v60.6c0,19.3,15.7,35,35,35s35-15.7,35-35V35.7C427.4,16.4,411.7,0.7,392.4,0.7z"/>
</g>
</svg>
