<?xml version="1.0" encoding="utf-8"?>
<!-- Generator: Adobe Illustrator 19.0.0, SVG Export Plug-In . SVG Version: 6.00 Build 0)  -->
<svg version="1.1" id="Layer_2" xmlns="http://www.w3.org/2000/svg" xmlns:xlink="http://www.w3.org/1999/xlink" x="0px" y="0px"
	 viewBox="67 0 512 512" style="enable-background:new 67 0 512 512;" xml:space="preserve">
<path d="M494.4,42.9v-7.2c0-19.3-15.7-35-35-35c-19.3,0-35,15.7-35,35v7.2h-206v-7.3c0-19.3-15.7-35-35-35c-19.3,0-35,15.7-35,35V43
	H67v469.1h452.4l59.6-59.4l0.1-409.8H494.4z M119,94.9h29.4v1.4c0,19.3,15.7,35,35,35c19.3,0,35-15.7,35-35v-1.4h206v1.4
	c0,19.3,15.7,35,35,35c19.3,0,35-15.7,35-35v-1.4h32.3L527,147H119V94.9z M465.7,301.6l-55.8,54.3c-4.7,4.6-6.8,11.1-5.6,17.5
	l13.4,76.5c1.6,9.1-7.9,16-16.1,11.7l-69.2-36.2c-5.7-3-12.5-3-18.3,0l-68.7,36.2c-8.1,4.3-17.6-2.6-16.1-11.7l13-76.7
	c1.1-6.3-1-12.9-5.7-17.4L181,301.5c-6.6-6.4-2.9-17.6,6.1-18.9l77-11.1c6.4-0.9,11.9-4.9,14.8-10.8l34.4-69.6
	c4.1-8.3,15.8-8.3,19.9,0l34.6,69.7c2.9,5.8,8.4,9.8,14.8,10.7l76.9,11.1C468.7,283.9,472.3,295.1,465.7,301.6z M505.8,480.2
	l0.2-40.8l40.7,0.2L505.8,480.2z"/>
</svg>
