<?xml version="1.0" encoding="utf-8"?>
<!-- Generator: Adobe Illustrator 21.1.0, SVG Export Plug-In . SVG Version: 6.00 Build 0)  -->
<svg version="1.1" id="Layer_1" xmlns="http://www.w3.org/2000/svg" xmlns:xlink="http://www.w3.org/1999/xlink" x="0px" y="0px"
	 viewBox="0 0 441 512" style="enable-background:new 0 0 441 512;" xml:space="preserve">
<g>
	<g>
		<path d="M352.6,340.9c-27.5-13.2-61.8-25-61.8-25c1.3-7-11.3-19.5-15.8-24c0,0,0-13.1,0-17.1c0-0.7-9.3,1.8-13,2.1
			c-26.1,27-59,6.3-59-16c0-9.8,10.9-37.6,48-26c9.6-0.8,58-13.8,58.2-14c7.8-16.6,14.6-36.1,16.8-57c0.4-2.1,20.8-136-105-136
			c-128.5,0-105.6,138.5-106,136c6.8,61.3,51,110,51,110v19c-14,13.2-16.8,23.7-16.8,23.2c0,0-29,10.6-56.9,21.4S0,371.1,0,433.2
			c0,87.9,220.7,81.7,220.7,81.7S441,522.3,441,433.6C441,367.5,380.2,354.2,352.6,340.9z M77.6,186.2c1.8,5.8,7.8,10.1,15.4,10.1
			c9,0,16.2-5.9,16.2-13.3v-60.3c0-4.2-2.5-7.7-6.2-10.2c0.1-0.5-10.4-1-10.3-1.5c7.6-59.2,61.2-97.8,127.9-97.8
			s119.3,38.2,126.5,97.4c0.1,0.6-10.4,1.2-10.3,1.9c-9.6,6.4-6.1,11.8-6.1,70.4c0,4.6,3,8.4,7.3,10.8v10.1
			c0,34.9-42,37.1-90.5,47.6c-10.6-9.4-29.3-3.2-29.3,9.3c0,15.8,27.6,19.4,32.9,3.6c50.1-10.9,103-15,103-60.5v-9.2
			c4.1-1.7,7-4.8,8.1-8.5c22.2-0.4,20-15.1,20-33.3s2.2-32.9-20-33.3c-1.1-3.5-3.8-6.4-7.6-8.2C354.9,51.2,297.6,0,220.6,0
			S85.1,51,85.1,111.4c-3.8,1.8-6.4,4.7-7.5,8.2c-22.2,0.4-20,15.1-20,33.3S55.5,185.8,77.6,186.2z"/>
	</g>
</g>
</svg>
