<?xml version="1.0" encoding="utf-8"?>
<!-- Generator: Adobe Illustrator 21.1.0, SVG Export Plug-In . SVG Version: 6.00 Build 0)  -->
<svg version="1.1" id="Layer_1" xmlns="http://www.w3.org/2000/svg" xmlns:xlink="http://www.w3.org/1999/xlink" x="0px" y="0px"
	 viewBox="0 0 560.1 512" style="enable-background:new 0 0 560.1 512;" xml:space="preserve">
<g>
	<path d="M306.4,446L306.4,446C306.3,446,306.3,446,306.4,446h-0.2c-2.1-0.6-6-2.7-7.4-3.2c-3.2-2-7.8-3.1-7.8-78.3
		c0,0-2.1-19.7-2.7-38.2c-1.5,5.2-3.2,10.1-4.9,14.8c-6,16.6-5.2,31.7-7,37.9l-0.1,0.2c-2.3,6-4,12.4-5.2,18.9
		c1.6,17.6,3.1,32.6,3,40.4c-0.2,4.7-4.5,8.6-4.1,12.3c0.2,3.5,4.1,5.9,11.7,7.2c2.4,0.4,5.8,0.7,9.3,0.9c2.1,0.1,4.2,0.1,6.3,0.1
		c2.1,0,4,0,5.8-0.1c2.9-0.1,5.1-0.3,5.7-0.5C318.1,456.1,315.7,447.9,306.4,446z"/>
	<path d="M553.8,90c0.3,0,0.6,0,0.9,0s0.4,0,0.7,0c0.8,0,1.4-0.1,1.8-0.2c1.2-0.3,4.7-2.6,1.8-7.9c-0.8-1.5-8.5-13-12.7-16
		c-3.7-2.7-8.2-3.2-12.5-3.3c-0.9,0-1.9,0-2.8-0.1c-0.9,0-5.3-0.1-10.3-0.1c-3.1,0-6.4,0-9.2,0.2c-1.6,0.1-3.2,0.2-4.3,0.3
		c-0.4,0.1-0.9,0.1-1.3,0.1c-0.3,0-0.7,0-0.9,0s-0.6,0-0.9,0c-2-0.1-3.8-0.5-5.8-1.1c-1-0.4-2.5-0.5-3.9-0.6c-1.5-0.1-2.8,0-3.4-0.1
		c-0.2,0-0.3,0-0.3-0.1c-1.9-0.4-6.6-4.6-14.3-4.8c-0.2,0-0.4,0-0.6,0c-0.3,0-0.4,0-0.7,0c-1.6,0.1-3.4,0.3-5.2,0.8
		c-0.3,0.1-0.4,0.1-0.7,0.1h-0.1c-1.1,0-1.6-0.8-1.9-1c-1.4-1.5-5.2-4.9-8.3-5c-0.1,0-0.1,0-0.2,0h-0.1c-0.5,0-0.9,0.1-1.4,0.3
		c-1.5,0.8-2.5,3.7-2.2,7.8c0.1,0.9,0.1,1.7-0.1,2.4c-0.1,0.3-0.2,0.6-0.3,0.9c-0.2,0.3-0.3,0.7-0.4,1c-0.3,0.3-0.4,0.7-0.6,0.9
		c-0.1,0.2-0.3,0.3-0.3,0.4c-0.3,0.3-0.7,0.8-1.1,1.3c-0.3,0.3-0.5,0.6-0.8,0.9c-0.2,0.3-0.3,0.4-0.5,0.7c-0.4,0.5-0.8,1-1.2,1.5
		c-0.3,0.4-0.7,0.9-1,1.4c-0.3,0.5-0.7,1-1.1,1.5c-0.1,0.2-0.3,0.3-0.3,0.5c-0.3,0.3-0.5,0.8-0.8,1.1c-0.5,0.8-1.1,1.6-1.6,2.6
		c-4.9,7.9-11.2,19.9-17.6,38c-5.3,15-13.8,42.6-37.5,50.1c-1.6,0.5-3.3,0.8-5,0.9c-0.2,0-0.4,0-0.6,0c-0.3,0-0.5,0-0.8,0
		c-16.6-0.6-36.4-20.4-46.3-31.1c-1.5-1.6-13.3-18.4-37.6-30.6c-15.5-7.8-30.5-4.3-57.4-18c-4-2.1-8-10.1-14.4-19
		c-0.7-0.9-1.3-1.8-2.1-2.7c-8.8-11.2-21.7-22.6-44.1-23.5c-0.4,0-0.8,0-1.2,0c-0.3,0-0.6,0-0.9,0c-0.5,0-0.9,0-1.5,0
		c-15.8,0.4-29,8.3-41.4,18.6c0.8,0.5,1.5,0.9,2.4,0.9c1.1,0,2.1-0.4,2.6-1.2c0.8-1,2.1-1.6,3.7-1.7c0.6,0,1.2,0.1,1.7,0.3
		c1.7,0.5,3.1,1.4,4,2.6c0.9,0.9,1.1,1.3,2.2,1.3c1.3-0.1,2.6-0.4,3.5-1.1c1.3-0.9,2.9-1.4,4.6-1.5c0.2,0,0.3,0,0.5,0
		c1.9,0.2,3.5,0.9,4.6,2.1c1.3,1.3,3.2,2.2,5.3,2.5c2,0.3,2.6-0.2,3.7-1.7c0.3-0.4,1.1-1.1,2.1-1.7c0.1-0.1,0.3-0.2,0.4-0.3
		c0.1,0,0.2-0.1,0.3-0.1c0.9-0.5,2-0.9,2.8-1l0,0c0.9-0.3,1.6-0.4,2.5-0.5h0.3c1.8,0.2,3.4,0.9,4.4,2c1.2,0.9,2,1.5,3.3,1.5
		c1,0,2.1-0.4,2.5-1.2c0.7-1,2.1-1.6,3.5-1.7c0.6,0,1.1,0.1,1.7,0.3c1.6,0.5,3,1.4,3.9,2.6c0.8,0.9,1.1,1.3,2.1,1.3
		c1.3-0.1,2.5-0.4,3.4-1.1c1.2-0.9,2.8-1.4,4.5-1.5c0.2,0,0.3,0,0.5,0c1.8,0.2,3.4,0.9,4.4,2.1c1.2,1.3,3.1,2.2,5.2,2.5
		c1.3,0.2,2,0,2.7-0.6c0.7,0.9,1.4,1.8,2,2.7c-1,0.5-2.3,0.9-3.6,0.9c-0.4,0-0.9,0-1.4,0c-0.1,0-0.3,0-0.3,0c-3-0.4-5.7-1.7-7.5-3.5
		c-0.6-0.5-0.9-1-1.5-1s-1.3,0.3-2.2,0.9c-1.5,1.1-3.6,1.7-5.8,1.8h-0.3c-2.3-0.1-4.4-1.1-5.4-2.7c-0.6-0.8-1-1.2-1.7-1.4l-0.4,0.4
		c-1.1,1.5-3.1,2.3-5.3,2.4c-2.7,0-5.1-0.9-6.6-2.5c-0.2-0.2-0.3-0.3-0.5-0.4c-0.5-0.4-1.4-0.5-2.1-0.3c-0.7,0.2-1.4,0.3-2,0.7
		c0,0-1.1,0.3-1.4,0.6c-0.1,0.1-0.3,0.3-0.3,0.3c-1,2-3.6,3.4-6.4,3.4c-0.5,0-0.9,0-1.5,0c-0.1,0-0.3,0-0.3,0
		c-3.1-0.4-5.8-1.7-7.7-3.5c-0.6-0.5-0.9-1-1.5-1s-1.3,0.3-2.3,0.9c-1.6,1.1-3.7,1.7-5.9,1.8h-0.3c-2.4-0.1-4.6-1.1-5.6-2.7
		c-0.6-0.8-1-1.2-1.8-1.4l-0.6,0.5c-1.1,1.5-3.3,2.3-5.5,2.4c-2.1,0-4.2-0.6-5.8-1.6c-10.9,9.5-21.4,20.6-32.7,30.1
		C72,116,58.4,114.9,38.7,135.1C8.3,159.8,3.2,186.9,4.7,234.1c0.5,25.8-5.8,23.7-4.6,41.9c1.2,13.9,6.4,31.4,10.1,41.7
		c0.3,0.3,0.4,0.4,0.6,0.5l0,0c0,0,0,0,0.1,0c1.7,0-1-18.5,1.5-28.1c0-0.2,0.1-0.3,0.2-0.5c-0.5,15,2.8,25.3,3.8,25.7h0.1
		c0.1,0,0.2-0.1,0.2-0.3c0.4-2.5,0.7-14.5,1.5-17.4c0-0.1,0.1-0.2,0.1-0.3c0,0,2.7,16.8,3.3,20.1c0,0.1,0,0.2,0.1,0.3
		c1.4-5.1,7.4-22.6,6.9-29l-0.1-1.9c-0.8-10.1-3.2-23.9-6.5-39.3c-0.2-0.6,0.2-0.9,0.3-0.9c0.1,0,0.1-0.1,0.1-0.1
		c5.4,16.2,8.9,45.2,9.5,50.8c4,19.6-10.7,43.5-13.5,52.9c-0.2,0.4-0.3,1-0.4,1.5c-0.9,3.2-2,6.5-2.1,9.9
		c-0.3,7.9,4.2,14.6,8.2,20.6c26.3,35.7,34.6,93.6,35.4,94.3c2.1,2.1,13.1,3.7,13.9,3.9c1.5,0.3,3.5,0.4,5.8,0.5c0.8,0,1.5,0,2.3,0
		c0.9,0,1.7,0,2.7,0c6.7-0.2,14.1-1.1,17.9-2.8c1.3-0.5,7.3-3.9,0.2-8.6c-1.4-0.7-6.6-1.7-7.8-2.1c-3.8-1.4-8-4.6-12.6-9.8
		c-4.5-5.1-14.5-19.9-19.9-42.3c-5.9-18.3-6-63-6-63.3h0.7c1.7,28.6,5.2,46.8,7.7,57.2c0.4,0.9,4.1,6.3,5,8c2.6,5.3,7,18.5,7.5,20.3
		c0.9,4,1.7,8,4.3,11.2c2.8,3.6,7.8,5.9,13.7,6.3c0.1,0,0.2,0,0.3,0c0.1,0,0.1,0,0.2,0c0.2,0,0.3,0,0.5,0c0.6,0,1.3,0,2,0
		c1.3,0,2.8,0,4.4-0.1c7.1-0.3,16.4-1,21.1-2.3c-0.3-2.4-2.1-4.9-4.9-6.7c-1.5-1-7.1-3.5-8.2-4c-15.3-7.9-21.7-26.8-26.8-41.9
		l-0.2-0.6c-6.4-18.8-9.1-39.3-7.8-59c0.1-32.3,15.9-75.2,19.9-82.5c7.5-14,8.6-18,10.8-18.1h0.1c0.4,0,0.9,0.2,1.5,0.4
		c20.5,11.9,62.5,24,108.9,25.4c3.1,0.1,6.2,0.2,9.4,0.2c3.5,0,7-0.1,10.7-0.2c1.5-0.1,3.1-0.2,4.7-0.3c1.2-0.1,2.4-0.2,3.6-0.3
		c0.3,0,0.6,0,0.9-0.1c0.6,0,1.1-0.1,1.7-0.1c2.4-0.2,4.8-0.4,7.2-0.7c0.1,0,0.3,0,0.3,0h0.1c2.1,0,3.4,1.7,3.1,4.5
		c-1.1,14.4-7.3,41.1-9.3,52.5c-6.4,37.6-9.5,111-9.8,132c-0.2,4.7-4.5,8.6-4.1,12.3c0.2,3.5,4.1,5.9,11.7,7.2
		c2.4,0.4,5.7,0.7,9.1,0.9c2.1,0.1,4.2,0.1,6.3,0.1s4,0,5.8-0.1c3-0.1,5.2-0.3,5.8-0.5c9.4-2.1,7.1-10.4-2.3-12.3h-0.1h-0.3
		c-2.1,0-6.2-2.4-6.5-3.1c-0.3-0.6-0.3-1.1-0.3-1.5c-0.5-5-4.6-46.6,7.2-77.1l0.1-0.2c1.2-3.9,1.3-11.3,2.7-20.3
		c0.2-0.9,0.3-1.8,0.4-2.8c0.5-2.8,1.1-5.8,2-8.8c0.2-0.5,0.3-1,0.4-1.5c0.3-1,0.6-2.1,0.9-3.1c0.2-0.5,0.3-1,0.5-1.5
		c11.1-30.8,19.3-74.3,31.4-87c5.6-4.8,20.3-15.4,26.7-16.8c1.4-0.3,3.2-0.4,5.2-0.5c0.7,0,1.4,0,2.1,0c1.6,0,3.4,0,4.8,0.1
		c1,0,2.1,0.1,2.8,0.2c0.1,0,0.1,0,0.2,0c1,0.1,1.8,0.1,2,0.1c1.2,0.1,2.4,0.2,3.6,0.2c1.2,0,2.4,0.1,3.6,0.1c1.5,0,2.9,0,4.4-0.1
		c46.6-1.8,87.8-32.7,102.8-78.4c5.6-25,13.6-35.4,19.6-41.2c12.6-12.5,36.2-12,43.8-16.1c1-0.4,6.8-3.9,8.9-4.5
		c0.6-0.2,1.2-0.3,1.8-0.3c0.2,0,0.4,0,0.6,0c0.1,0,0.3,0,0.3,0c2.4,0.1,4.6,1,6.8,2l3,1.2c0.7,0.3,1.3,0.3,1.8,0.3h0.1
		c0.1,0,0.1,0,0.2,0c1.5-0.1,2-0.9,2.4-1.7c0.8-3.1-2.8-4.6-3.9-5.1c-6.6-1.9-18.3-5.6-21.2-9.3l-0.9-1.2l-0.1-0.2
		c0,0,6.8,4,14.3,6.3C548.8,89.5,551.6,89.9,553.8,90z"/>
</g>
</svg>
