<?xml version="1.0" encoding="utf-8"?>
<!-- Generator: Adobe Illustrator 21.1.0, SVG Export Plug-In . SVG Version: 6.00 Build 0)  -->
<svg version="1.1" id="Layer_2" xmlns="http://www.w3.org/2000/svg" xmlns:xlink="http://www.w3.org/1999/xlink" x="0px" y="0px"
	 viewBox="0 0 556.3 512" style="enable-background:new 0 0 556.3 512;" xml:space="preserve">
<g>
	<path d="M346.1,253.7c-2-2.3-5.4-2.6-7.7-0.7v0.1c-6.7,5.4-10.6,13.7-10.6,22.3c0,3.1,2.5,5.4,5.4,5.4c3.1,0,5.4-2.5,5.4-5.4
		c0-5.3,2.4-10.2,6.6-13.6c0.1-0.1,0.2-0.2,0.3-0.3C347.8,259.6,348.1,256.2,346.1,253.7C346.2,253.8,346.1,253.7,346.1,253.7z"/>
	<path d="M429.5,273.3c0-43.2-35-78.1-78.1-78.1s-78.1,35-78.1,78.1s35,78.1,78.1,78.1S429.5,316.4,429.5,273.3z M314.1,272.8
		c0-20.5,16.7-37.2,37.2-37.2s37.2,16.7,37.2,37.2c0,20.5-16.7,37.2-37.2,37.2C330.7,310,314.1,293.4,314.1,272.8z"/>
	<path d="M100.8,38.1H66.9c-7.7,0-14,6.2-14,14v9.1h61.6c0.1,0,0.1-1.3,0.1-9.1C114.7,44.3,108.4,38.1,100.8,38.1z"/>
	<path d="M479.2,38.1h-33.6c-7.7,0-14,23.1-14,23.1h61.6C493.2,61.1,486.9,38.1,479.2,38.1z"/>
	<path d="M512.9,67.1H43.4C19.4,67.1,0,86.5,0,110.5v148h228.1c6.3-61.3,58.3-109.2,121.5-109.2c67.4,0,122.1,54.7,122.1,122.1
		s-54.7,122-122.1,122c-63.5,0-115.6-48.4-121.5-110.2H0v147.2c0,24,19.5,43.4,43.4,43.4h469.5c24,0,43.4-19.5,43.4-43.4V110.6
		C556.3,86.6,536.9,67.1,512.9,67.1z M79.9,153.6c-7.6,0-13.8-6.1-13.8-13.8c0-7.6,6.1-13.8,13.8-13.8s13.8,6.1,13.8,13.8
		C93.6,147.5,87.5,153.6,79.9,153.6z M145.8,153.4h-32.4c-7.4,0-13.8-5.7-14-13.1c-0.3-7.8,5.9-14.3,13.6-14.3h32.4
		c7.4,0,13.8,5.7,14,13.1C159.8,147.1,153.6,153.4,145.8,153.4z"/>
</g>
</svg>
