<?xml version="1.0" encoding="utf-8"?>
<!-- Generator: Adobe Illustrator 21.1.0, SVG Export Plug-In . SVG Version: 6.00 Build 0)  -->
<svg version="1.1" id="Layer_2" xmlns="http://www.w3.org/2000/svg" xmlns:xlink="http://www.w3.org/1999/xlink" x="0px" y="0px"
	 viewBox="0 0 494.9 512" style="enable-background:new 0 0 494.9 512;" xml:space="preserve">
<g>
	<path d="M334.2,338c-1.7-2.1-4.8-2.3-6.9-0.6v0.1c-5.9,4.7-9.4,11.9-9.5,19.5c0,2.4,1.6,4.7,4,5.2c3.1,0.6,5.9-1.8,5.9-4.8
		c0-4.7,2.2-9.1,5.8-12.1c0.1-0.1,0.2-0.1,0.3-0.2C335.8,343.3,336.1,340.2,334.2,338L334.2,338z"/>
	<path d="M408.5,355.4c0-38.5-31.1-69.6-69.6-69.6s-69.6,31.1-69.6,69.6s31.1,69.6,69.6,69.6S408.5,393.8,408.5,355.4z M305.7,355
		c0-18.3,14.9-33.1,33.1-33.1c18.3,0,33.1,14.9,33.1,33.1c0,18.3-14.9,33.1-33.1,33.1C320.6,388.1,305.7,373.3,305.7,355z"/>
	<path d="M89,168.7l-29.5,0c-6.8,0-12.3,5.5-12.3,12.3v7.7h54.2c0,0,0-1.2,0-7.7C101.4,174.2,95.9,168.7,89,168.7z"/>
	<path d="M426.6,168.7h-29.3c-6.7,0-12.2,20.1-12.2,20.1h53.7C438.8,188.7,433.4,168.7,426.6,168.7z"/>
	<path d="M456.2,194.8H310.3l8.2-80.8c0-0.2-0.2-0.3-0.2-0.5H340c4.6,0,8.3-3.7,8.3-8.3V9.3c0-4.6-3.8-8.3-8.3-8.3H151.9
		c-4.6,0-8.3,3.7-8.3,8.3v95.8c0,4.6,3.8,8.3,8.3,8.3h21.7c0,0.2-0.2,0.3-0.2,0.5l8.1,80.8H38.7C17.3,194.8,0,212.1,0,233.4l0,108.9
		h229.2c5.6-54.5,51.9-97.2,108.2-97.2c60,0,108.7,48.7,108.7,108.7s-48.7,108.7-108.7,108.7c-56.5,0-103-43.2-108.2-98.2H0v108.9
		C0,494.7,17.4,512,38.6,512h417.7c21.4,0,38.6-17.4,38.6-38.7V233.5C494.9,212.1,477.6,194.8,456.2,194.8z M61.8,263.8
		c-6.8,0-12.2-5.5-12.2-12.2c0-6.7,5.5-12.2,12.2-12.2c6.8,0,12.2,5.5,12.2,12.2C74.1,258.3,68.7,263.8,61.8,263.8z M132.6,252.3
		c-0.2,6.6-5.9,11.8-12.5,11.8H91.6c-6.8,0-12.2-5.6-12-12.3c0.2-6.6,5.9-11.8,12.5-11.8h28.5C127.3,239.9,132.7,245.5,132.6,252.3z
		 M159.6,104.5c-3.9,0-7-3.2-7-7V16.1c0-3.8,3.1-7.1,7-7.1h173.7c3.9,0,7,3.2,7,7.1v81.3c0,3.9-3.1,7-7,7H159.6V104.5z"/>
	<path d="M160.5,23.1l171.2,0c1.8,0,3.8-1.4,4.3-3.2c0.8-3.1-1.3-5.9-4.1-5.9l-171.2,0c-1.8,0-3.8,1.4-4.3,3.2
		C155.6,20.3,157.7,23.1,160.5,23.1z"/>
	<path d="M160.5,36.1l171.2,0c1.8,0,3.8-1.4,4.3-3.2c0.8-3.1-1.3-5.9-4.1-5.9l-171.1,0c-1.7,0-3.3,0.9-4,2.4
		C155.2,32.7,157.4,36.1,160.5,36.1z"/>
	<path d="M160.5,49.2l171.2,0c1.8,0,3.8-1.4,4.3-3.2c0.8-3.1-1.3-5.9-4.1-5.9l-171.2,0c-1.8,0-3.8,1.4-4.3,3.2
		C155.6,46.4,157.7,49.2,160.5,49.2z"/>
	<path d="M160.5,63.2l171.4-1.1c2.8,0,4.9-2.6,4.2-5.7c-0.3-1.4-1.6-2.3-3-2.3l-172.7,0c-1.5,0-3.2,1.1-3.7,2.5
		C155.3,60.1,157.5,63.2,160.5,63.2z"/>
	<path d="M160.5,76.3l171.4-1c2.4,0,4.3-2,4.3-4.5c0-2.5-1.9-4.5-4.3-4.5l-171.4,1c-2.4,0-4.3,2-4.3,4.5
		C156.2,74.3,158.1,76.3,160.5,76.3z"/>
	<path d="M160.5,89.3l171.4-1c2.4,0,4.3-2,4.3-4.5c0-2.5-1.9-4.5-4.3-4.5l-171.4,1c-2.4,0-4.3,2-4.3,4.5
		C156.2,87.4,158.1,89.3,160.5,89.3z"/>
	<path d="M336.2,96.9c0-2.5-1.9-4.5-4.3-4.5l-171.4,1c-2.4,0-4.3,2-4.3,4.5c0,2.5,1.9,4.5,4.3,4.5l171.4-1
		C334.3,101.2,336.2,99.3,336.2,96.9z"/>
</g>
</svg>
