<?xml version="1.0" encoding="utf-8"?>
<!-- Generator: Adobe Illustrator 21.1.0, SVG Export Plug-In . SVG Version: 6.00 Build 0)  -->
<svg version="1.1" id="Layer_1" xmlns="http://www.w3.org/2000/svg" xmlns:xlink="http://www.w3.org/1999/xlink" x="0px" y="0px"
	 viewBox="0 0 558.9 512" style="enable-background:new 0 0 558.9 512;" xml:space="preserve">
<g>
	<path d="M554.7,300.2c-20.6-29.1-125.5-178.2-162.6-259c-3.9-10.1-12-14.2-22-11C305.7,49.4,247.2,49,180.7,28.8L172,26L0,307.2
		l33.6,14.4v75.8c0,8.5,4.6,16.6,11,19.6l162.8,77.7c2,0.9,4.1,1.4,6.2,1.4c0.5,0,1.1,0,1.6-0.1l308.1-45.3
		c8.5-0.9,15.6-0.2,15.7-10.6l0.5-106.2c1.1,0.3,2.3,0.3,3.4,0.2c4.9-0.3,9.5-3.2,12.4-7.9C560.3,318.5,560,307.6,554.7,300.2z
		 M179.8,104.2l108.5,19.3c2.5,0.4,4.6,3.4,4.5,6.7c0,3.3-2.1,5.5-4.6,5.1L179.7,116c-2.5-0.4-4.6-3.4-4.5-6.7
		C175.2,106.1,177.3,103.8,179.8,104.2z M197.1,442.3l-127-58.9l-0.2-48l127.2,53.8V442.3z M188.2,162.9c-2.5-0.4-4.6-3.4-4.5-6.7
		c0-3.3,2.1-5.5,4.6-5.1l51.7,9.2c2.5,0.4,4.6,3.4,4.5,6.7c0,3.3-2.1,5.5-4.6,5.1L188.2,162.9z M233.9,452V328.4
		c59.3-69.5,99.3-128.8,130.1-193.8v212.5c-1.5,35.3-24.6,75.9-36,93.9L233.9,452z M362.4,436.3c9.5-14.8,17.5-31.2,24.1-48.7
		c6.5,15.6,14.8,31.1,23.2,44.1L362.4,436.3z M511.3,420l-77.1,8.9c0-0.1-0.1-0.1-0.1-0.2c-11-16.9-31.5-48.3-35.3-87V119.4
		C430.6,177.2,467.5,231.3,512,293L511.3,420z"/>
</g>
</svg>
