<?xml version="1.0" encoding="utf-8"?>
<!-- Generator: Adobe Illustrator 21.1.0, SVG Export Plug-In . SVG Version: 6.00 Build 0)  -->
<svg version="1.1" id="Layer_1" xmlns="http://www.w3.org/2000/svg" xmlns:xlink="http://www.w3.org/1999/xlink" x="0px" y="0px"
	 viewBox="0 0 541.8 512" style="enable-background:new 0 0 541.8 512;" xml:space="preserve">
<g>
	<path d="M0,283l0,108c0,66.5,54.4,120.9,120.9,119.4c64-1.5,115.1-53.7,115.1-118.1V283H0z M30.1,329c0-4.6,3.8-8.4,8.5-8.4
		c2.4,0,4.5,1,6,2.4c1.5,1.5,2.4,3.6,2.4,5.9v19.7c-0.1,5.4-5,9.4-10.5,8.2c-3.9-0.9-6.5-4.5-6.5-8.4l0-19.4H30.1z M99,472.2
		c-0.6,4-4.1,6.7-7.8,6.7c-1.3,0-2.6-0.3-3.8-1c-30.5-17-57.7-49-57.7-97.6c0-5.6,5.6-9.9,11.4-7.8c3.3,1.2,5.4,4.5,5.4,8
		c0,38.9,26.7,69.6,48.9,83.7C98.1,465.9,99.5,469,99,472.2z"/>
	<path d="M117.7,0C86.3,0,56.7,12.3,34.6,34.5C12.2,56.8,0,86.5,0,117.9v101.5v19.5v4.1h236v-23.6l0,0V117.9
		c0.1-31.4-12.2-61.1-34.6-83.4C179.2,12.3,149.5,0.1,118,0C117.9,0,117.8,0,117.7,0L117.7,0z"/>
	<path d="M541.8,381H253.2c12.1,68.8,72.1,121,144.3,121S529.7,449.8,541.8,381L541.8,381z"/>
	<path d="M396.3,209c-75.3,0-137.4,56.9-145.6,130h291.1C533.7,265.9,471.6,209,396.3,209L396.3,209z"/>
</g>
</svg>
