<?xml version="1.0" encoding="utf-8"?>
<!-- Generator: Adobe Illustrator 22.0.1, SVG Export Plug-In . SVG Version: 6.00 Build 0)  -->
<svg version="1.1" id="Layer_1" xmlns="http://www.w3.org/2000/svg" xmlns:xlink="http://www.w3.org/1999/xlink" x="0px" y="0px"
	 viewBox="0 0 236.4 512" style="enable-background:new 0 0 236.4 512;" xml:space="preserve">
<style type="text/css">
	.st0{fill:#010101;}
</style>
<g>
	<path class="st0" d="M0,282.6v109.3C0,457.2,52.8,510,118.1,510c65.4,0,118.1-52.8,118.1-118.1V282.6H0z M29.9,328.5
		c0-4.6,3.8-8.4,8.4-8.4c2.4,0,4.4,1,5.9,2.4c1.5,1.5,2.4,3.6,2.4,5.9v19.7c-0.1,4.7-3.8,8.4-8.4,8.4s-8.4-3.8-8.4-8.4V328.5z
		 M99,472.2c-0.6,4-4.1,6.7-7.8,6.7c-1.3,0-2.6-0.3-3.8-1c-30.5-17-57.7-49-57.7-97.6c0-5.6,5.6-9.9,11.4-7.8c3.3,1.2,5.4,4.5,5.4,8
		c0,38.9,26.7,69.6,48.9,83.7C98.1,465.9,99.5,469,99,472.2z"/>
	<path d="M117.8,0c-31.4,0-61,12.3-83.2,34.6C12.2,56.9,0,86.6,0,118.1v101.7v19.5v4.1h236.3v-23.6h0V118.1
		c0.1-31.5-12.2-61.2-34.6-83.5c-22.3-22.3-52-34.5-83.6-34.6C118,0,117.9,0,117.8,0L117.8,0z"/>
</g>
</svg>
