<?xml version="1.0" encoding="utf-8"?>
<!-- Generator: Adobe Illustrator 22.0.1, SVG Export Plug-In . SVG Version: 6.00 Build 0)  -->
<svg version="1.1" id="Layer_1" xmlns="http://www.w3.org/2000/svg" xmlns:xlink="http://www.w3.org/1999/xlink" x="0px" y="0px"
	 viewBox="0 0 510 512" style="enable-background:new 0 0 510 512;" xml:space="preserve">
<g>
	<g>
		<path d="M176.1,29.9C157.7,11.4,132.2,0,104,0C47.7,0,2,45.7,2,102v128h204V102C206,73.8,194.6,48.3,176.1,29.9z"/>
	</g>
	<g>
		<path d="M2,410c0,56.3,45.7,102,102,102s102-45.7,102-102V282H2V410z"/>
	</g>
	<path d="M508.6,341H220.4c12.5-68.3,72.3-120,144.1-120S496.1,272.7,508.6,341z"/>
	<path d="M508.8,393c-12.1,68.8-72.1,121-144.3,121s-132.2-52.3-144.3-121H508.8z"/>
</g>
</svg>
