<?xml version="1.0" encoding="utf-8"?>
<!-- Generator: Adobe Illustrator 22.0.1, SVG Export Plug-In . SVG Version: 6.00 Build 0)  -->
<svg version="1.1" id="Layer_2" xmlns="http://www.w3.org/2000/svg" xmlns:xlink="http://www.w3.org/1999/xlink" x="0px" y="0px"
	 viewBox="0 0 512 512" style="enable-background:new 0 0 512 512;" xml:space="preserve">
<path d="M504,125h-56V72c0-4.4-3.6-8-8-8H337c-4.4,0-8,3.6-8,8v53H182V72c0-4.4-3.6-8-8-8H71c-4.4,0-8,3.6-8,8v53H8
	c-4.4,0-8,3.6-8,8v315h512V133C512,128.6,508.4,125,504,125z M220,313h-49.5v49.5h-52V313H69v-52h49.5v-49.5h52V261H220V313z
	 M447,313H296v-52h151V313z"/>
</svg>
