<?xml version="1.0" encoding="utf-8"?>
<!-- Generator: Adobe Illustrator 21.1.0, SVG Export Plug-In . SVG Version: 6.00 Build 0)  -->
<svg version="1.1" id="Layer_4" xmlns="http://www.w3.org/2000/svg" xmlns:xlink="http://www.w3.org/1999/xlink" x="0px" y="0px"
	 viewBox="0 0 559.1 512" style="enable-background:new 0 0 559.1 512;" xml:space="preserve">
<g>
	<path d="M38.8,487.2l-0.1-193.8c10.5-31.4,27.9-52.2,52.7-65.7H52.9c-8.3,0-7.6-31.3,1.5-31.3h41.5v13.8h4.5
		c6-37.6,40.4-89.5,87.9-89.5l194.2-0.1c47,0,82,51.8,88,89.4h4.5v-13.8h41.5c9.8,0,9.9,31.3,1.5,31.3h-39.2
		c24.9,13.4,43.8,34.3,52.8,65.6c0,0,0.1,177.3,0.1,193.8c0,12.8-10.5,24.8-24.1,24.8h-45.9c-13.5,0-24.8-12-24.8-24.8v-22.6
		l-302.7,0.2v22.6c0,12.8-11.3,24.8-24.8,24.8H63.5C50.1,512,38.8,500,38.8,487.2z M154.1,337.3C147.4,332,92.5,302,74.2,302
		c-7.3,0-13.4,6.8-13.4,16.6v24.1c0,10.5,7.9,18.8,16.5,18.8h78C159.6,350.1,160.2,341.8,154.1,337.3z M197.7,326.2v68h13v-68H197.7
		z M231.3,394.2h13v-68h-13V394.2z M307.7,326.1h-13v68h13V326.1z M326.1,394.1h13v-68h-13V394.1z M275.6,326.1h-13v68h13V326.1z
		 M441.7,220.1c-4.2-28.9-29.6-72.1-60.5-74.9c-60.5-2.7-131.2-2.7-191.7,0.1c-30.2,2.8-56.3,46.1-59.7,74.9
		C231.4,239.5,340,238.7,441.7,220.1z M495.4,361.2c8.5,0,16.5-8.3,16.5-18.8v-24.1c0-9.8-6.1-16.6-13.4-16.5
		c-18.3,0-73.1,30.1-79.9,35.4c-6.1,4.5-5.5,12.8-1.2,24.1L495.4,361.2z M502.8,433.8c4.7,0,9.1-4.6,9.1-10.4v-13.3
		c0-5.4-3.4-9.1-7.4-9.1c-10.1,0-40.3,16.6-44,19.5c-3.4,2.5-3,7-0.7,13.3H502.8z M372.7,326.1h-13v68h13V326.1z M425.9,425.4
		c0.6,0,1.1-0.5,1.1-1.1v-2.4c0-0.6-0.5-1.1-1.1-1.1L144.5,421c-0.6,0-1.1,0.5-1.1,1.1v2.4c0,0.6,0.5,1.1,1.1,1.1L425.9,425.4z
		 M427,434.3v-2.5c0-0.6-0.5-1.1-1.1-1.1l-281.4,0.2c-0.6,0-1.1,0.5-1.1,1.1v2.5c0,0.6,0.5,1.1,1.1,1.1l281.4-0.2
		C426.5,435.3,427,434.9,427,434.3z M144.5,445.5l281.4-0.2c0.6,0,1.1-0.5,1.1-1.1v-2.4c0-0.6-0.5-1.1-1.1-1.1l-281.4,0.2
		c-0.6,0-1.1,0.5-1.1,1.1v2.4C143.5,445,143.9,445.5,144.5,445.5z M68.4,434h43c2.3-6.2,2.7-10.8-0.7-13.3
		c-3.7-2.9-33.9-19.5-44-19.5c-4,0-7.4,3.7-7.4,9.1v13.3C59.4,429.5,63.7,434,68.4,434z"/>
	<polygon points="295.9,0 263.8,0 0,108.9 0.2,118.9 108,118.9 279.8,48 451.3,118.9 559.1,118.9 559.1,108.9 	"/>
</g>
</svg>
