<?xml version="1.0" encoding="utf-8"?>
<!-- Generator: Adobe Illustrator 21.1.0, SVG Export Plug-In . SVG Version: 6.00 Build 0)  -->
<svg version="1.1" id="Layer_4" xmlns="http://www.w3.org/2000/svg" xmlns:xlink="http://www.w3.org/1999/xlink" x="0px" y="0px"
	 viewBox="0 0 559.1 512" style="enable-background:new 0 0 559.1 512;" xml:space="preserve">
<g>
	<path d="M557.3,285.1l-75.9-178.4c-22-24.7-46.1-37.1-74.3-39.7l35.4-15.1c7.7-3.3-5.3-31.8-13.7-28.2l-38.2,16.3l5.4,12.7
		l-4.1,1.8c-20.3-32.2-72.2-66.4-116-47.8l-178.7,76C54,100.9,42.2,162.3,51.3,199.3l-4.1,1.8l-5.4-12.7L3.7,204.6
		c-9,3.8,3.2,32.7,10.9,29.4l36.1-15.4c-17.6,22.1-26.8,48.7-22.9,81.1c0,0,69.4,163.1,75.9,178.4c5,11.8,19.4,18.7,31.9,13.4
		l42.2-18c12.5-5.3,18.1-20.8,13.1-32.6l-8.8-20.8l278.5-118.5l8.8,20.8c5,11.8,20.1,18.4,32.6,13.1l42.2-18
		C556.6,312.3,562.3,296.8,557.3,285.1z M392.4,192.4c4.1-7.5,42.8-56.7,59.6-63.8c6.7-2.9,15,1,18.8,10l9.4,22.2
		c4.1,9.7,0.1,20.4-7.8,23.8l-71.8,30.6C392.4,206.3,388.5,199,392.4,192.4z M348,199.3l26.6,62.6l-12,5.1L336,204.4L348,199.3z
		 M343.7,275l-12,5.1l-26.6-62.6l12-5.1L343.7,275z M246.7,242.4l12-5.1l26.6,62.6l-12,5.1L246.7,242.4z M256.5,312.2l-12,5.1
		l-26.6-62.6l12-5.1L256.5,312.2z M276.3,229.8l12-5.1l26.6,62.6l-12,5.1L276.3,229.8z M81.9,197.4c-7.5-28.2-1.1-78,26.3-92.6
		c54.6-26.2,119.7-53.9,176.4-75.1c28.9-9.3,69.9,20.3,84.3,45.5C282.9,132.7,182.8,174.6,81.9,197.4z M87.9,348.2
		c-7.8,3.3-18.4-1.2-22.5-10.9l-9.4-22.2c-3.8-9-0.9-17.6,5.9-20.5c16.8-7.2,79.1-1,87.4,1.3c7.4,1.8,10.1,9.6,10.6,21.7L87.9,348.2
		z M109.5,417.9c-4.3,1.8-10.1-0.6-12.4-6l-5.2-12.2c-2.1-5-0.5-9.7,3.2-11.3c9.3-3.9,43.6-0.5,48.1,0.7c4.1,1,5.5,5.3,5.8,11.9
		L109.5,417.9z M186.9,267.8l12-5.1l26.6,62.6l-12,5.1L186.9,267.8z M176.9,380.1c-0.5,0.2-1.2,0-1.4-0.6l-0.9-2.2
		c-0.2-0.5,0-1.2,0.6-1.4L434,265.7c0.5-0.2,1.2,0,1.4,0.6l0.9,2.2c0.2,0.5,0,1.2-0.6,1.4L176.9,380.1z M179.4,388.7l-1-2.3
		c-0.2-0.5,0-1.2,0.6-1.4l258.9-110.2c0.5-0.2,1.2,0,1.4,0.6l1,2.3c0.2,0.5,0,1.2-0.6,1.4L180.8,389.2
		C180.3,389.5,179.6,389.2,179.4,388.7z M443.6,288.2L184.7,398.4c-0.5,0.2-1.2,0-1.4-0.6l-1-2.2c-0.2-0.5,0-1.2,0.6-1.4
		l258.9-110.2c0.5-0.2,1.2,0,1.4,0.6l0.9,2.2C444.4,287.3,444.2,287.9,443.6,288.2z M509.2,247.8l-39.6,16.8
		c-4.6-4.8-6.7-8.9-4.6-12.5c2.3-4.1,23.6-31.2,32.9-35.2c3.7-1.6,8.3,0.5,10.4,5.5l5.2,12.2C515.7,240.1,513.5,246,509.2,247.8z"/>
	<path d="M559.1,444.7c0-28.8-22.7-52.1-50.7-52.1c-22.1,0-41.6,14.6-48.3,36.2c-24.3-14.3-55.3-5.6-69.2,19.4
		c-4.2,7.6-6.5,16.2-6.6,25H0V512h559.1v-37.8h0V444.7z"/>
</g>
</svg>
