<?xml version="1.0" encoding="utf-8"?>
<!-- Generator: Adobe Illustrator 21.1.0, SVG Export Plug-In . SVG Version: 6.00 Build 0)  -->
<svg version="1.1" id="Layer_4" xmlns="http://www.w3.org/2000/svg" xmlns:xlink="http://www.w3.org/1999/xlink" x="0px" y="0px"
	 viewBox="0 0 444.6 512" style="enable-background:new 0 0 444.6 512;" xml:space="preserve">
<g>
	<path id="fill" d="M397,255.6h34.7c7.5,0,6.9-28.3-1.4-28.3h-37.4v12.4h-4.1c-5.4-33.9-36.5-80.7-79.3-80.7H134.4
		c-42.4,0-73.9,46.8-79.3,80.7H51v-12.4H13.6c-8.8,0-8.9,28.3-1.4,28.3h35.4c-22.4,12.1-39.4,31-47.6,59.2c0,0,0,159.9,0,174.8
		C0,501.2,9.5,512,21.7,512h41.4c12.2,0,22.4-10.8,22.4-22.4v-20.4h273v20.4c0,11.5,10.2,22.4,22.4,22.4h41.4
		c12.2,0,22.4-10.8,22.4-22.4V314.8C435.1,286.5,419.5,267.7,397,255.6z M135.7,181.4c54.5-2.5,118.4-2.5,172.9,0
		c27.3,2.5,50.8,41.5,53.9,67.5c-91.7,17.4-189.6,16.7-281.4,0C84.9,222.9,107.8,183.9,135.7,181.4z M301.3,344.5v61.4h-11.7v-61.4
		H301.3z M270.9,344.5v61.4h-11.7v-61.4H270.9z M242.7,344.5v61.4h-11.7v-61.4H242.7z M213.7,344.5v61.4H202v-61.4H213.7z
		 M185.4,344.5v61.4h-11.7v-61.4H185.4z M155.1,344.5v61.4h-11.7v-61.4H155.1z M64.9,441.7H26.1c-4.2,0-8.2-4.1-8.2-9.3v-12
		c0-4.9,3-8.2,6.7-8.2c9.1,0,36.4,15,39.7,17.6C67.3,432,67,436.1,64.9,441.7z M32.8,376.2c-7.7,0-14.8-7.5-14.8-17v-21.7
		c0-8.8,5.5-14.9,12.1-14.9c16.5,0,66,27.1,72,31.9c5.5,4.1,4.9,11.5,1.1,21.7H32.8z M349.2,452H95.4c-0.5,0-1-0.4-1-1v-2.2
		c0-0.5,0.4-1,1-1h253.8c0.5,0,1,0.4,1,1v2.2C350.2,451.6,349.8,452,349.2,452z M350.2,442.1c0,0.5-0.4,1-1,1H95.4c-0.5,0-1-0.4-1-1
		v-2.2c0-0.5,0.4-1,1-1h253.8c0.5,0,1,0.4,1,1V442.1z M349.2,434.1H95.4c-0.5,0-1-0.4-1-1v-2.2c0-0.5,0.4-1,1-1h253.8
		c0.5,0,1,0.4,1,1v2.2C350.2,433.7,349.8,434.1,349.2,434.1z M339.4,376.2c-3.8-10.2-4.4-17.7,1.1-21.7c6.1-4.8,55.5-31.9,72-31.9
		c6.6,0,12.1,6.1,12.1,14.9v21.7c0,9.5-7.1,17-14.8,17H339.4z M426,432.3c0,5.2-3.9,9.3-8.2,9.3h-38.8c-2.1-5.6-2.4-9.7,0.6-12
		c3.3-2.6,30.6-17.6,39.7-17.6c3.6,0,6.7,3.4,6.7,8.2V432.3z"/>
	<g>
		<path d="M143.2,110.7c0,15.4,12.5,27.9,27.9,27.9c15.4,0,27.9-12.5,27.9-27.9c0-15.4-27.2-46.5-27.2-46.5S143.2,95.3,143.2,110.7z
			"/>
	</g>
	<g>
		<path d="M277.2,64.2c0,0-28.6,31.1-28.6,46.5c0,15.4,12.5,27.9,27.9,27.9c15.4,0,27.9-12.5,27.9-27.9
			C304.4,95.3,277.2,64.2,277.2,64.2z"/>
	</g>
	<g>
		<path d="M224.5,0.2c0,0-28.6,31.1-28.6,46.5c0,15.4,12.5,27.9,27.9,27.9c15.4,0,27.9-12.5,27.9-27.9
			C251.7,31.3,224.5,0.2,224.5,0.2z"/>
	</g>
</g>
</svg>
