<?xml version="1.0" encoding="utf-8"?>
<!-- Generator: Adobe Illustrator 21.1.0, SVG Export Plug-In . SVG Version: 6.00 Build 0)  -->
<svg version="1.1" id="Layer_4" xmlns="http://www.w3.org/2000/svg" xmlns:xlink="http://www.w3.org/1999/xlink" x="0px" y="0px"
	 viewBox="0 0 559.1 512" style="enable-background:new 0 0 559.1 512;" xml:space="preserve">
<g>
	<path d="M1.8,285.1l75.9-178.4C99.7,82,123.9,69.6,152,67l-35.4-15.1c-7.7-3.3,5.3-31.8,13.7-28.2L168.5,40l-5.4,12.7l4.1,1.8
		c20.3-32.2,72.2-66.4,116-47.8l178.7,76c43.2,18.4,55.1,79.8,45.9,116.7l4.1,1.8l5.4-12.7l38.2,16.2c9,3.8-3.2,32.7-10.9,29.4
		l-36.1-15.4c17.6,22.1,26.8,48.7,22.9,81.1c0,0-69.4,163.1-75.9,178.4c-5,11.8-19.4,18.7-31.9,13.4l-42.2-18
		c-12.5-5.3-18.1-20.8-13.1-32.6l8.8-20.8L98.6,301.7l-8.8,20.8c-5,11.8-20.1,18.4-32.6,13.1l-42.2-18
		C2.5,312.3-3.2,296.8,1.8,285.1z M166.7,192.4c-4.1-7.5-42.8-56.7-59.6-63.8c-6.7-2.9-15,1-18.8,10l-9.4,22.2
		c-4.1,9.7-0.1,20.4,7.8,23.8l71.8,30.6C166.8,206.3,170.6,199,166.7,192.4z M211.1,199.3l-26.6,62.6l12,5.1l26.6-62.6L211.1,199.3z
		 M215.4,275l12,5.1l26.6-62.6l-12-5.1L215.4,275z M312.4,242.4l-12-5.1l-26.6,62.6l12,5.1L312.4,242.4z M302.6,312.2l12,5.1
		l26.6-62.6l-12-5.1L302.6,312.2z M282.9,229.8l-12-5.1l-26.6,62.6l12,5.1L282.9,229.8z M477.2,197.4c7.5-28.2,1.1-78-26.3-92.6
		c-54.6-26.2-119.7-53.9-176.4-75.1c-28.9-9.3-69.9,20.3-84.3,45.5C276.2,132.7,376.4,174.6,477.2,197.4z M471.2,348.2
		c7.8,3.3,18.4-1.2,22.5-10.9l9.4-22.2c3.8-9,0.9-17.6-5.9-20.5c-16.8-7.2-79.1-1-87.4,1.3c-7.4,1.8-10.1,9.6-10.6,21.7L471.2,348.2
		z M449.6,417.9c4.3,1.8,10.1-0.6,12.4-6l5.2-12.2c2.1-5,0.5-9.7-3.2-11.3c-9.3-3.9-43.6-0.5-48.1,0.7c-4.1,1-5.5,5.3-5.8,11.9
		L449.6,417.9z M372.2,267.8l-12-5.1l-26.6,62.6l12,5.1L372.2,267.8z M382.2,380.1c0.5,0.2,1.2,0,1.4-0.6l0.9-2.2
		c0.2-0.5,0-1.2-0.6-1.4L125.1,265.7c-0.5-0.2-1.2,0-1.4,0.6l-0.9,2.2c-0.2,0.5,0,1.2,0.6,1.4L382.2,380.1z M379.7,388.7l1-2.3
		c0.2-0.5,0-1.2-0.6-1.4L121.2,274.8c-0.5-0.2-1.2,0-1.4,0.6l-1,2.3c-0.2,0.5,0,1.2,0.6,1.4l258.9,110.2
		C378.9,389.5,379.5,389.2,379.7,388.7z M115.5,288.2l258.9,110.2c0.5,0.2,1.2,0,1.4-0.6l1-2.2c0.2-0.5,0-1.2-0.6-1.4L117.3,283.9
		c-0.5-0.2-1.2,0-1.4,0.6l-0.9,2.2C114.7,287.3,114.9,287.9,115.5,288.2z M50,247.8l39.6,16.8c4.6-4.8,6.7-8.9,4.6-12.5
		c-2.3-4.1-23.6-31.2-32.9-35.2c-3.7-1.6-8.3,0.5-10.4,5.5l-5.2,12.2C43.4,240.1,45.6,246,50,247.8z"/>
	<polygon points="0,473.2 0,474.2 0,474.2 0,512 559.1,512 559.1,473.2 	"/>
	<path d="M0.3,69.6c0.3-2.6,2.1-4.9,4.5-5.8l19.4-7.5L7,29.9c-1.7-2.6-1.5-6,0.4-8.4s5.2-3.3,8.1-2.3L41,28.4l7.4-22.2
		c0.9-2.8,3.5-4.8,6.4-4.9c3-0.2,5.7,1.5,6.9,4.2L72.2,28l13.3-7.9c2-1.2,4.5-1.3,6.7-0.4c2.1,1,3.7,2.9,4.1,5.2l3.9,20.8
		c0.5,2.4-0.4,4.8-2,6.4c-1,1-55.5,53.3-58.9,57.2l0,0c-2.8,3.2-6.6,5.1-10.3,3.4l-21.7-10l0,0c-1.6-0.8-2.9-2.2-3.6-4
		C2.3,95,4.2,90.8,8,89.4l9.1-3.3L3.2,76.4C1.1,74.9-0.1,72.3,0.3,69.6z"/>
</g>
</svg>
