<?xml version="1.0" encoding="utf-8"?>
<!-- Generator: Adobe Illustrator 21.1.0, SVG Export Plug-In . SVG Version: 6.00 Build 0)  -->
<svg version="1.1" id="Layer_4" xmlns="http://www.w3.org/2000/svg" xmlns:xlink="http://www.w3.org/1999/xlink" x="0px" y="0px"
	 viewBox="0 0 496.1 512" style="enable-background:new 0 0 496.1 512;" xml:space="preserve">
<g>
	<path d="M489.9,175.9L366.7,52.7c-26.6-13.2-50.9-15.5-75.3-8.2L315.8,20c5.3-5.3-15.1-24.8-20.9-19l-26.4,26.4l8.7,8.7l-2.9,2.9
		c-27.6-20-82.4-31.1-112.6-0.9L38.3,161.5c-29.9,29.9-19.1,85.1,0.9,112.8l-2.9,2.9l-8.7-8.7L1.2,294.8c-6.2,6.2,13.7,26.2,19,20.9
		l24.9-24.9c-7.3,24.4-6,49.6,8.2,75.3c0,0,112.7,112.7,123.2,123.2c8.1,8.1,22.5,9.1,31.1,0.5l29.2-29.2c8.6-8.6,8.1-23.4,0-31.6
		l-14.3-14.3l192.4-192.4l14.3,14.3c8.1,8.1,22.9,8.6,31.6,0l29.2-29.2C498.5,198.8,498,184,489.9,175.9z M321.2,154
		c0.9-7.6,16.7-61.6,28.3-73.3c4.6-4.6,12.8-4.2,19,2L383.8,98c6.7,6.7,6.9,17,1.5,22.4L335.7,170
		C325.9,165.6,320.2,160.8,321.2,154z M286.5,174.7l43.2,43.2l-8.3,8.3L278.2,183L286.5,174.7z M308.4,239.3l-8.3,8.3l-43.2-43.2
		l8.3-8.3L308.4,239.3z M216.6,244.6l8.3-8.3l43.2,43.2l-8.3,8.3L216.6,244.6z M248.1,299.5l-8.3,8.3l-43.2-43.2l8.3-8.3
		L248.1,299.5z M237,224.2l8.3-8.3l43.2,43.2l-8.3,8.3L237,224.2z M64,262.5c-15.7-21-27.1-64.7-9.2-86.1
		c36.7-40.2,81.7-85.2,121.9-121.9c21-17.5,65.1-6.6,85.6,9.6C209.9,141,140.5,209.6,64,262.5z M119.7,386.2
		c-5.4,5.4-15.7,5.2-22.4-1.5L82,369.4c-6.2-6.2-6.6-14.4-2-19.1c11.6-11.6,65.6-27.4,73.3-28.3c6.7-1,11.6,4.6,16.1,14.5
		L119.7,386.2z M161.1,437.1c-3,3-8.7,2.9-12.4-0.8l-8.4-8.4c-3.4-3.4-3.7-7.9-1.1-10.5c6.4-6.4,36.2-15.1,40.4-15.6
		c3.7-0.6,6.4,2.6,8.9,8L161.1,437.1z M175.3,285.9l8.3-8.3l43.2,43.2l-8.3,8.3L175.3,285.9z M204.6,382.9c-0.4,0.4-1,0.4-1.4,0
		l-1.5-1.5c-0.4-0.4-0.4-1,0-1.4l178.9-178.9c0.4-0.4,1-0.4,1.4,0l1.5,1.5c0.4,0.4,0.4,1,0,1.4L204.6,382.9z M209.6,389.2l-1.6-1.6
		c-0.4-0.4-0.4-1,0-1.4l178.9-178.9c0.4-0.4,1-0.4,1.4,0l1.6,1.6c0.4,0.4,0.4,1,0,1.4l-179,178.9
		C210.6,389.6,209.9,389.6,209.6,389.2z M396.1,216.6L217.2,395.5c-0.4,0.4-1,0.4-1.4,0l-1.5-1.5c-0.4-0.4-0.4-1,0-1.4l178.9-178.9
		c0.4-0.4,1-0.4,1.4,0l1.5,1.5C396.5,215.6,396.5,216.3,396.1,216.6z M437.2,161l-27.3,27.3c-5.4-2.5-8.6-5.1-8-8.9
		c0.5-4.2,9.2-34,15.6-40.4c2.6-2.6,7.1-2.3,10.5,1.1l8.4,8.4C440.1,152.3,440.2,158,437.2,161z"/>
	<rect y="473.2" width="496.1" height="38.8"/>
</g>
</svg>
