<?xml version="1.0" encoding="utf-8"?>
<!-- Generator: Adobe Illustrator 21.1.0, SVG Export Plug-In . SVG Version: 6.00 Build 0)  -->
<svg version="1.1" id="Layer_4" xmlns="http://www.w3.org/2000/svg" xmlns:xlink="http://www.w3.org/1999/xlink" x="0px" y="0px"
	 viewBox="0 0 560.4 512" style="enable-background:new 0 0 560.4 512;" xml:space="preserve">
<path id="fill" d="M500.1,155.8h43.6c9.4,0,8.7-35.5-1.7-35.5h-47v15.6h-5.1C483,93.2,443.9,34.5,390,34.5H170
	c-53.3,0-92.9,58.7-99.7,101.4h-5.1v-15.6h-47c-11.1,0-11.2,35.5-1.7,35.5h44.4C32.6,171.1,11.3,194.7,1,230.2c0,0,0,201,0,219.7
	c0,14.6,12,28.2,27.3,28.2h52c15.3,0,28.2-13.6,28.2-28.2v-25.6h343.1V450c0,14.5,12.8,28.2,28.2,28.2h52
	c15.3,0,28.2-13.6,28.2-28.2V230.2C547.9,194.7,528.2,171.1,500.1,155.8z M171.5,62.6c68.5-3.1,148.8-3.1,217.3,0
	c34.2,3.1,63.9,52.2,67.8,84.9c-115.3,21.8-238.3,21.1-353.7,0C107.7,114.7,136.5,65.7,171.5,62.6z M379.6,267.6v77.1h-14.7v-77.1
	H379.6z M341.5,267.6v77.1h-14.7v-77.1H341.5z M306,267.6v77.1h-14.7v-77.1H306z M269.6,267.6v77.1h-14.7v-77.1H269.6z M234.1,267.6
	v77.1h-14.7v-77.1H234.1z M195.9,267.6v77.1h-14.7v-77.1H195.9z M82.5,389.7H33.8c-5.4,0-10.3-5.2-10.3-11.8v-15.1
	c0-6.2,3.8-10.3,8.4-10.3c11.4,0,45.7,18.8,49.9,22.1C85.6,377.5,85.2,382.7,82.5,389.7z M42.2,307.4c-9.7,0-18.7-9.4-18.7-21.3
	v-27.3c0-11.1,6.9-18.8,15.2-18.8c20.7,0,82.9,34.1,90.5,40.1c6.9,5.1,6.2,14.5,1.4,27.3H42.2z M439.9,402.7h-319
	c-0.7,0-1.2-0.5-1.2-1.2v-2.8c0-0.7,0.5-1.2,1.2-1.2h319c0.7,0,1.2,0.5,1.2,1.2v2.8C441.1,402.2,440.6,402.7,439.9,402.7z
	 M441.1,390.3c0,0.7-0.5,1.2-1.2,1.2h-319c-0.7,0-1.2-0.5-1.2-1.2v-2.8c0-0.7,0.5-1.2,1.2-1.2h319c0.7,0,1.2,0.5,1.2,1.2V390.3z
	 M439.9,380.2h-319c-0.7,0-1.2-0.5-1.2-1.2v-2.8c0-0.7,0.5-1.2,1.2-1.2h319c0.7,0,1.2,0.5,1.2,1.2v2.8
	C441.1,379.7,440.6,380.2,439.9,380.2z M427.6,307.4c-4.9-12.8-5.5-22.2,1.4-27.3c7.6-6,69.8-40.1,90.5-40.1
	c8.3,0,15.2,7.7,15.2,18.8v27.3c0,12-9,21.3-18.6,21.3H427.6z M536.4,378c0,6.6-4.9,11.8-10.3,11.8h-48.8c-2.7-7-3-12.2,0.8-15.1
	c4.2-3.3,38.5-22.1,49.9-22.1c4.6,0,8.4,4.2,8.4,10.3V378z"/>
</svg>
