<?xml version="1.0" encoding="utf-8"?>
<!-- Generator: Adobe Illustrator 21.1.0, SVG Export Plug-In . SVG Version: 6.00 Build 0)  -->
<svg version="1.1" id="fill" xmlns="http://www.w3.org/2000/svg" xmlns:xlink="http://www.w3.org/1999/xlink" x="0px" y="0px"
	 viewBox="0 0 483.8 512" style="enable-background:new 0 0 483.8 512;" xml:space="preserve">
<g>
	<path d="M483.6,284.7H1v42.3l0,0c0,0.2,0,0.4,0,0.7c0,11.3,9,20.6,20.2,20.6s20.2-9.2,20.2-20.6c0-0.2,0-0.5,0-0.7l0,0
		c0,0.2,0,0.4,0,0.7c0,11.4,9,20.7,20.2,20.7s20.2-9.3,20.2-20.7c0-0.2,0-0.5,0-0.7l0,0c0,0.2,0,0.4,0,0.7c0,11.4,9,20.7,20.2,20.7
		c11.1,0,20.2-9.3,20.2-20.7c0-0.2,0-0.5,0-0.7l0,0c0,0.2,0,0.4,0,0.7c0,11.4,9,20.7,20.2,20.7c11.1,0,20.2-9.3,20.2-20.7
		c0-0.2,0-0.5,0-0.7l0,0c0,0.2,0,0.4,0,0.7c0,11.4,9,20.7,20.2,20.7s20.2-9.3,20.2-20.7c0-0.2,0-0.5,0-0.7h0c0,0.2,0,0.4,0,0.7
		c0,11.4,9,20.7,20.2,20.7s20.2-9.3,20.2-20.7c0-0.2,0-0.4,0-0.6l0,0c0,0.2,0,0.4,0,0.6v0.1c0,11.4,9,20.8,20.2,20.8
		s20.2-9.3,20.2-20.8c0-0.2,0-0.2,0-0.4l0,0c0,0.2,0,0.3,0,0.5c0,0.1,0,0.1,0,0.2c0,11.2,8.8,20.2,19.7,20.2s19.7-9.1,19.7-20.2
		c0-0.2,0-0.8,0-1l0,0c0,0.1,0,0.3,0,0.5c0,0.1,0,0.1,0,0.2c0,11.4,9,20.8,20.2,20.8s20.2-9.3,20.2-20.8c0-0.2,0-0.5,0-0.7l0,0
		c0,0.1,0,0.3,0,0.4s0,0.2,0,0.3c0,11.4,9,20.8,20.2,20.8s20.2-9.3,20.2-20.8c0-0.2,0-0.5,0-0.7l0,0c0,0.1,0,0.3,0,0.4s0,0.2,0,0.3
		c0,11.4,9,20.8,20.2,20.8s20.2-9.3,20.2-20.8c0-0.2,0-0.5,0-0.7l0,0c0,0.1,0,0.2,0,0.3c0,0.1,0,0.2,0,0.4c0,11.4,9,20.7,20.1,20.7
		c11.1,0,20.2-9.3,20.2-20.7c0-0.2,0-0.5,0-0.7l0,0v-42.5H483.6z"/>
	<path d="M0,362.4v62.3c0,25.2,7.8,45.9,23.3,62.3c15.9,16.4,36,24.4,60.4,24.4l309.1,0.5c24.4,0,45.2-8.4,62.5-25
		c17.3-17.1,26.1-37.8,26.5-62.3v-62.3H0V362.4z"/>
	<path d="M481.9,222.9c0-1.6-0.2-3.2-1.4-4.9c-0.4-0.7-19.1-24.9-26.6-39.4c-10.8-19.7-26.3-49.7-44.9-66.3l-8.8-8.3
		c-1-0.9-3.8-2.2-7.4-2.8c-52.2-7.3-95.7-55-125-67.4l-1.8,6.2l-9-2.4l1.5-4.8h-2.9c-26.9,0.6-45.3,14.3-113.6-2.1
		c-0.7-0.2-3-0.5-3-0.5c-7.1-1.2,8.4,20,11.3,25.6c3,5.7,26.8,39.4,38.5,77.8c8.4,27.3,16.1,78.9,21.1,88.2
		c6.8-10.6,18.8-17.7,32.5-17.3c19,0.5,34.7,15.5,36.1,34.5c0.9,12.3-4.2,23.4-12.6,30.7h215.8c0,0,0.7-27.9,0.7-37.9L481.9,222.9z
		 M218.1,204.8c0.1-1.8,0.2-3.7,0.3-5.5l7.1,1.9C222.9,202.2,220.4,203.4,218.1,204.8z M229.2,195.4l-10.3-2.8
		c0.3-2.9,0.5-5.8,0.9-8.7l10.3,2.8C229.8,189.6,229.5,192.5,229.2,195.4z M231,180.1l-10.3-2.8c0.4-3.2,0.9-6.5,1.4-9.7l10.3,2.8
		C231.9,173.7,231.4,176.9,231,180.1z M233.5,163.9l-10.3-2.8c0.9-4.7,1.8-9.5,2.8-14.2l10.3,2.8
		C235.3,154.4,234.4,159.2,233.5,163.9z M237.7,143.2l-10.3-2.8c1-4.3,2-8.6,3.1-12.9l10.2,2.8C239.8,134.6,238.8,138.9,237.7,143.2
		z M242.5,123.9l-10.1-2.8c1.1-4,2.1-8.1,3.3-12l10,2.7C244.5,115.8,243.5,119.9,242.5,123.9z M247.3,105.4l-9.9-2.7
		c1.1-3.6,2.1-7.4,3.2-11l9.7,2.6C249.3,98.1,248.3,101.8,247.3,105.4z M253.5,83.2c-0.4,1.6-0.9,3.2-1.3,4.8l-9.6-2.6
		c0.5-1.8,1.1-3.5,1.6-5.3l1.6-5.2l9.4,2.6L253.5,83.2z M257,71.2l-9.4-2.5l2.8-9.3l9.3,2.5L257,71.2z M261.5,55.5l-9.2-2.5l2.7-9.1
		l9.1,2.5L261.5,55.5z M369.7,115.9c0.9-0.6,1.7-1.2,2.6-1.8l8.1,6.2c-1.1,0.7-2.2,1.5-3.5,2.4c-1.7,1.1-3.4,2.3-4.9,3.6l-8.1-6.2
		C365.6,118.5,367.6,117.1,369.7,115.9z M358.6,124.5l8.2,6.3c-2.7,2.6-5.1,5.4-7.6,8.4l-8.4-6.5
		C353.2,129.9,355.9,127.1,358.6,124.5z M340.2,146.2c2.1-2.7,4.1-5.4,6.3-8.2l8.5,6.6c-1.8,2.3-3.6,4.7-5.4,7.2
		c-0.6,0.7-1.2,1.4-1.8,2.1l-8.5-6.6C339.6,146.9,339.9,146.5,340.2,146.2z M322.6,167.5l8.5,6.6c-3,3.3-6.2,6.7-9.5,9.9l-8.5-6.6
		C316.4,174.2,319.5,171,322.6,167.5z M291.4,196.4l8.5,6.6c-3.4,2.6-6.9,5.2-10.4,7.8l-8.6-6.6
		C284.4,201.7,287.9,199.1,291.4,196.4z M280.7,216.7c-2-2.8-4.3-5.3-7.1-7.7c0.5-0.3,0.9-0.6,1.4-0.9l8.6,6.7
		C282.6,215.4,281.7,216.1,280.7,216.7z M288.1,236.3c-0.3-3-0.9-5.8-1.8-8.7c1.3-0.3,2.6-0.7,3.8-1l0.8,8.9
		C290.1,235.8,289,236.1,288.1,236.3z M297.8,233.5l-0.8-9.2c5-1.8,9.9-3.3,14.7-4.6l0.8,9.4C307.9,230.3,303.1,231.8,297.8,233.5z
		 M305.3,198.6l-8.5-6.6c3.9-3.2,7.7-6.6,11.4-10l8.5,6.6C312.9,192,309.1,195.3,305.3,198.6z M319.5,227.3l-0.8-9.3
		c5.6-1.3,11.6-2.2,18-2.9l0.8,9.2C331.1,224.9,325.2,226,319.5,227.3z M343.2,159.8c-2.4,3.1-5,6.2-7.7,9.3l-8.5-6.6
		c2.3-2.7,4.5-5.4,6.8-8.3c0.4-0.5,0.9-1,1.3-1.6l8.5,6.6C343.5,159.4,343.3,159.6,343.2,159.8z M348.2,223.4
		c-1.2,0.1-2.4,0.2-3.5,0.2l-0.8-9.2c1.6-0.1,3.3-0.2,5-0.3c3.5-0.2,7-0.3,10.4-0.4l0.8,9.4C356.2,223.1,352.1,223.2,348.2,223.4z
		 M367.1,222.9l-0.8-9.5c4.8-0.1,9.6-0.2,14.2-0.1l0.8,9.6C376.7,222.8,371.9,222.8,367.1,222.9z M378.6,110.5c3.4-1.7,7-2.9,10.7-4
		l7.9,6c-4,0.6-7.2,1.8-10.8,3.9L378.6,110.5z M388.5,223l-0.9-9.7c4.5,0.1,9,0.2,13.4,0.4l0.8,9.7
		C397.5,223.3,393.1,223.1,388.5,223z M409.1,223.8l-0.9-9.7c4.1,0.2,8.3,0.5,12.4,0.9l0.8,9.6C417.3,224.3,413.2,224,409.1,223.8z
		 M428.6,225.1l-0.8-9.5c3.9,0.4,8,0.8,11.9,1.3l0.8,9.3C436.6,225.8,432.7,225.5,428.6,225.1z M447.7,227l-0.8-9.1
		c3.5,0.5,7,1,10.6,1.5l0.8,8.8C454.7,227.8,451.2,227.4,447.7,227z M465.4,229.2l-0.8-8.6c3.4,0.6,6.9,1.2,10.4,1.9l0.7,8.3
		C472.3,230.2,468.8,229.7,465.4,229.2z"/>
	<path d="M241.5,215.2h-0.2L64.7,6.2c-6.2-7.4-17.4-8.3-24.9-2c-7.4,6.2-8.3,17.4-2,24.9l177.3,209.7c-0.1,1-0.2,2.1-0.2,3.1
		c0,14.7,12,26.7,26.7,26.7c14.7,0,26.7-11.9,26.7-26.7C268.2,227.2,256.3,215.2,241.5,215.2z M241.5,254.8
		c-7.2,0-12.9-5.7-12.9-12.9c0-7.2,5.7-12.9,12.9-12.9c7.2,0,12.9,5.7,12.9,12.9C254.4,249.1,248.6,254.8,241.5,254.8z"/>
</g>
</svg>
