<?xml version="1.0" encoding="utf-8"?>
<!-- Generator: Adobe Illustrator 21.1.0, SVG Export Plug-In . SVG Version: 6.00 Build 0)  -->
<svg version="1.1" id="Layer_4" xmlns="http://www.w3.org/2000/svg" xmlns:xlink="http://www.w3.org/1999/xlink" x="0px" y="0px"
	 viewBox="0 0 550 512" style="enable-background:new 0 0 550 512;" xml:space="preserve">
<g>
	<path d="M256.7,406.9c-28.2,0-52.5,24.3-52.5,52.5c0,30.4,24.3,52.5,52.5,52.5c28.2,0,52.5-22.3,52.5-52.5
		C309.3,431.2,285,406.9,256.7,406.9z"/>
	<path d="M212.9,314.7c20.7-0.3,35.5-20.5,29.4-40.3L185.3,85.6l-16.3-57.1C165,16.3,161,0,138.5,0H30.6c-40.8,0-40.8,51,0,51H110
		l72.5,241.6C186.6,306,199,315,212.9,314.7L212.9,314.7z"/>
	<path d="M378.6,406.9c-28.2,0-52.5,24.3-52.5,52.5c0,30.4,24.3,52.5,52.5,52.5c28.2,0,52.5-22.3,52.5-52.5
		C431.2,431.2,406.9,406.9,378.6,406.9z"/>
	<path d="M519,36H255.8c-20.7,0-35.7,19.9-29.7,39.9l0,0c3.9,13.1,16,22,29.7,22h263.1c13.6,0,25.8-9,29.7-22l0,0
		C554.6,55.9,539.6,36,519,36z"/>
	<path d="M488.9,136.8h-203c-20.7,0-35.7,19.9-29.7,39.9l0,0c3.9,13.1,16,22,29.7,22H489c13.6,0,25.8-9,29.7-22l0,0
		C524.5,156.8,509.6,136.8,488.9,136.8z"/>
	<path d="M459.8,234.6H315c-20.7,0-35.7,19.9-29.7,39.9l0,0c3.9,13.1,16,22,29.7,22h144.8c13.6,0,25.8-9,29.7-22l0,0
		C495.4,254.6,480.6,234.6,459.8,234.6z"/>
	<path d="M439.8,334.6H230.7c-20.7,0-35.7,19.9-29.7,39.9l0,0c3.9,13.1,16,22,29.7,22h209.1c13.6,0,25.8-9,29.7-22l0,0
		C475.5,354.5,460.5,334.6,439.8,334.6z"/>
</g>
</svg>
