<?xml version="1.0" encoding="utf-8"?>
<!-- Generator: Adobe Illustrator 21.1.0, SVG Export Plug-In . SVG Version: 6.00 Build 0)  -->
<svg version="1.1" id="Layer_2" xmlns="http://www.w3.org/2000/svg" xmlns:xlink="http://www.w3.org/1999/xlink" x="0px" y="0px"
	 viewBox="0 0 550 512" style="enable-background:new 0 0 550 512;" xml:space="preserve">
<g id="a_fill">
	<path d="M227.2,448.8c5.2,0,10.6,5.5,10.6,10.6c0,7.8-6.3,10.6-10.6,10.6s-10.6-2.8-10.6-10.6C216.6,454.2,222.1,448.8,227.2,448.8
		L227.2,448.8z M227.2,406.8c-28.3,0-52.6,24.3-52.6,52.6c0,30.4,24.3,52.6,52.6,52.6s52.6-22.3,52.6-52.6
		C279.8,431.1,255.6,406.8,227.2,406.8L227.2,406.8z"/>
	<path d="M378.8,448.8c5.2,0,10.6,5.5,10.6,10.6c0,7.8-6.3,10.6-10.6,10.6s-10.6-2.8-10.6-10.6C368.2,454.2,373.7,448.8,378.8,448.8
		L378.8,448.8z M378.8,406.8c-28.3,0-52.6,24.3-52.6,52.6c0,30.4,24.3,52.6,52.6,52.6s52.6-22.3,52.6-52.6
		C431.5,431.1,407.2,406.8,378.8,406.8L378.8,406.8z"/>
	<path d="M506.3,258.4l-12.2,53h-357L60.4,53H26.6c-5.9,0-11.4-1.9-15.8-5.3c-4.5-3.3-7.9-8-9.6-13.7C-3.9,17.1,8.8,0,26.6,0h53.5
		C93,0,103.3,9.1,106,20.5c0,0.1,0,0.1,0,0.1l70.7,237.8H506.3z"/>
	<path d="M521.7,34.6H172.8c-18.7,0-32.2,18-26.8,36c1.8,6.2,53.1,177.3,53.1,177.3h310.2c0,0,37.3-171.2,39.1-177.3
		C553.8,52.6,540.3,34.6,521.7,34.6z"/>
	<path d="M492.5,322c0,0-9.2,39-12.4,51c-3.2,11.8-13.9,20.1-26.1,20.1H242.6l0,0h-81.4l-15.7-53h81.2l-5.4-18h271.2V322z"/>
</g>
</svg>
