<?xml version="1.0" encoding="utf-8"?>
<!-- Generator: Adobe Illustrator 21.1.0, SVG Export Plug-In . SVG Version: 6.00 Build 0)  -->
<svg version="1.1" id="Layer_4" xmlns="http://www.w3.org/2000/svg" xmlns:xlink="http://www.w3.org/1999/xlink" x="0px" y="0px"
	 viewBox="0 0 549.2 512" style="enable-background:new 0 0 549.2 512;" xml:space="preserve">
<g>
	<path d="M237.4,392.7c-25.4,0-47.3,21.8-47.3,47.3c0,27.3,21.8,47.3,47.3,47.3s47.3-20.1,47.3-47.3
		C284.8,414.5,262.9,392.7,237.4,392.7z"/>
	<path d="M191.7,310.3c18.7-0.3,31.9-18.4,26.4-36.3l-51.2-170l-14.7-51.3c-3.7-11.1-7.3-25.7-27.5-25.7H27.5
		c-36.7,0-36.7,45.9,0,45.9h71.6l65.3,217.6C168,302.4,179.1,310.5,191.7,310.3L191.7,310.3z"/>
	<path d="M394.3,392.7c-25.4,0-47.3,21.8-47.3,47.3c0,27.3,21.8,47.3,47.3,47.3c25.4,0,47.3-20.1,47.3-47.3
		C441.6,414.5,419.8,392.7,394.3,392.7z"/>
	<path d="M362.4,62c-0.6,1.5-1.3,3-1.9,4.5c-1,2.7-2,5.4-2.9,8.1c-3,9.7-4.8,20-5.1,30.6c-0.1,1.3-0.1,2.5-0.1,3.8
		c0,1.8,0,3.5,0.1,5.2c0.1,1.2,0.1,2.4,0.2,3.6H230.4c-6.2,0-12-2-16.6-5.5c-3.1-2.3-5.8-5.4-7.8-8.9v-0.1c-0.8-1.7-1.6-3.5-2.2-5.4
		c-0.3-0.8-0.4-1.5-0.5-2.3v-0.1c-0.9-4-0.8-8,0-11.8l0,0c0.2-0.6,0.3-1.3,0.4-1.8c3.4-11.2,13.8-19.9,26.7-19.9
		C230.4,62,362.4,62,362.4,62z"/>
	<path d="M407.9,207.6H257.4c-4.6,0-9-1.1-12.9-3.1c-1.3-0.7-2.6-1.5-3.9-2.4c-4-3-7.3-7.1-9.3-12l0,0c-0.3-0.8-0.6-1.5-0.8-2.3
		c-1.5-5.2-1.5-10.4-0.3-15.2c1.3-4.7,3.7-8.9,7-12.3l0,0c4.9-5.1,12-8.4,19.9-8.4h103.4c0.7,1.8,1.5,3.6,2.3,5.4
		c1.3,2.8,2.6,5.5,4.1,8.1c6.5,11.6,14.9,21.8,24.8,30.6c3.7,3.2,7.6,6.2,11.7,9C405.1,205.8,406.5,206.7,407.9,207.6z"/>
	<path d="M467.5,239.1H283.6c-18.7,0-32.1,18-26.7,35.9l0,0c3.5,11.8,14.4,19.9,26.7,19.9h183.9c12.3,0,23.2-8.1,26.7-19.9l0,0
		C499.6,257.1,486.2,239.1,467.5,239.1z"/>
	<path d="M449.5,328.1H214.1c-18.7,0-32.1,18-26.7,35.9l0,0c3.5,11.8,14.4,19.9,26.7,19.9h235.4c12.3,0,23.2-8.1,26.7-19.9l0,0
		C481.6,346.1,468.2,328.1,449.5,328.1z"/>
	<path d="M469.2,27c-44.2,0-80,35.9-80,80s35.9,80,80,80c44.2,0,80-35.9,80-80S513.4,27,469.2,27z M469.2,165.1c-32,0-58-26-58-58
		s26-58,58-58s58,26,58,58S501.2,165.1,469.2,165.1z"/>
	<path d="M430.6,118.6H508V95.2h-77.3L430.6,118.6z"/>
</g>
</svg>
