<?xml version="1.0" encoding="utf-8"?>
<!-- Generator: Adobe Illustrator 21.1.0, SVG Export Plug-In . SVG Version: 6.00 Build 0)  -->
<svg version="1.1" id="Layer_4" xmlns="http://www.w3.org/2000/svg" xmlns:xlink="http://www.w3.org/1999/xlink" x="0px" y="0px"
	 viewBox="0 0 550 512" style="enable-background:new 0 0 550 512;" xml:space="preserve">
<g>
	<path d="M237.6,396.3c-25.5,0-47.3,21.9-47.3,47.3c0,27.4,21.9,47.3,47.3,47.3s47.3-20.1,47.3-47.3
		C285.1,418.2,263.2,396.3,237.6,396.3z"/>
	<path d="M191.9,313.8c18.7-0.3,32-18.5,26.5-36.4l-51.3-170.2l-14.7-51.4c-3.7-11.1-7.3-25.7-27.5-25.7H27.5
		c-36.7,0-36.7,45.9,0,45.9h71.7l65.4,217.8C168.1,305.9,179.3,314,191.9,313.8L191.9,313.8z"/>
	<path d="M394.7,396.3c-25.5,0-47.3,21.9-47.3,47.3c0,27.4,21.9,47.3,47.3,47.3c25.5,0,47.3-20.1,47.3-47.3
		C442.2,418.2,420.3,396.3,394.7,396.3z"/>
	<path d="M362.9,65.2c-0.6,1.5-1.3,3-1.9,4.5c-1,2.7-2,5.4-2.9,8.1c-3,9.7-4.8,20-5.1,30.6c-0.1,1.3-0.1,2.5-0.1,3.8
		c0,1.8,0,3.5,0.1,5.2c0.1,1.2,0.1,2.4,0.2,3.6H230.6c-6.2,0-12-2-16.7-5.5c-3.2-2.3-5.9-5.4-7.8-8.9v-0.1c-0.8-1.7-1.6-3.5-2.2-5.4
		c-0.3-0.8-0.5-1.5-0.5-2.3v-0.1c-0.9-4.1-0.8-8,0-11.8l0,0c0.2-0.6,0.3-1.3,0.5-1.8c3.4-11.3,13.8-19.9,26.7-19.9
		C230.6,65.2,362.9,65.2,362.9,65.2z"/>
	<path d="M408.4,211H257.7c-4.6,0-9-1.1-12.9-3.2c-1.4-0.7-2.6-1.5-3.9-2.4c-4.1-3-7.3-7.1-9.3-12l0,0c-0.3-0.8-0.6-1.5-0.8-2.3
		c-1.5-5.2-1.5-10.4-0.3-15.2c1.3-4.7,3.7-8.9,7-12.3l0,0c5-5.1,12-8.4,19.9-8.4h103.5c0.7,1.8,1.5,3.6,2.3,5.4
		c1.3,2.8,2.6,5.5,4.1,8.1c6.5,11.6,14.9,21.9,24.8,30.6c3.7,3.2,7.7,6.2,11.7,9C405.5,209.2,407,210.1,408.4,211z"/>
	<path d="M468,242.6H283.9c-18.7,0-32.1,18-26.7,35.9l0,0c3.5,11.8,14.4,19.9,26.7,19.9H468c12.3,0,23.2-8.1,26.7-19.9l0,0
		C500.1,260.6,486.7,242.6,468,242.6z"/>
	<path d="M450,331.7H214.3c-18.7,0-32.1,18-26.7,35.9l0,0c3.5,11.8,14.4,19.9,26.7,19.9H450c12.3,0,23.2-8.1,26.7-19.9l0,0
		C482.1,349.7,468.7,331.7,450,331.7z"/>
	<path d="M469.9,30.2c-44.3,0-80.1,35.9-80.1,80.1s35.9,80.1,80.1,80.1c44.3,0,80.1-35.9,80.1-80.1S514.2,30.2,469.9,30.2z
		 M469.9,168.5c-32,0-58.1-26-58.1-58.1s26-58.1,58.1-58.1s58.1,26,58.1,58.1S501.9,168.5,469.9,168.5z"/>
	<path d="M469.5,158.8l39.7-39.8l-14.3-14.3l-16,15.9V63.4H460v57.2l-15.8-15.9L429.8,119L469.5,158.8z"/>
</g>
</svg>
