<?xml version="1.0" encoding="utf-8"?>
<!-- Generator: Adobe Illustrator 21.1.0, SVG Export Plug-In . SVG Version: 6.00 Build 0)  -->
<svg version="1.1" id="Layer_4" xmlns="http://www.w3.org/2000/svg" xmlns:xlink="http://www.w3.org/1999/xlink" x="0px" y="0px"
	 viewBox="0 0 550 512" style="enable-background:new 0 0 550 512;" xml:space="preserve">
<g>
	<path d="M238,393.1c-25.5,0-47.4,21.9-47.4,47.4c0,27.4,21.9,47.4,47.4,47.4s47.4-20.1,47.4-47.4
		C285.6,415.1,263.7,393.1,238,393.1z"/>
	<path d="M192.2,310.5c18.8-0.3,32-18.5,26.5-36.4l-51.4-170.5l-14.7-51.5c-3.7-11.1-7.3-25.8-27.6-25.8H27.6c-36.8,0-36.8,46,0,46
		h71.8l65.5,218.2C168.4,302.6,179.6,310.7,192.2,310.5L192.2,310.5z"/>
	<path d="M395.4,393.1c-25.5,0-47.4,21.9-47.4,47.4c0,27.4,21.9,47.4,47.4,47.4s47.4-20.1,47.4-47.4
		C442.9,415.1,421,393.1,395.4,393.1z"/>
	<path d="M363.5,61.5c-0.6,1.5-1.3,3-1.9,4.5c-1,2.7-2,5.4-2.9,8.1c-3,9.7-4.8,20-5.1,30.7c-0.1,1.3-0.1,2.5-0.1,3.8
		c0,1.8,0,3.5,0.1,5.2c0.1,1.2,0.1,2.4,0.2,3.6H231c-6.2,0-12-2-16.7-5.5c-3.2-2.3-5.9-5.4-7.8-8.9v-0.1c-0.8-1.7-1.6-3.5-2.2-5.4
		c-0.3-0.8-0.5-1.5-0.5-2.3V95c-0.9-4.1-0.8-8,0-11.8l0,0c0.2-0.6,0.3-1.3,0.5-1.8c3.4-11.3,13.8-19.9,26.8-19.9
		C231,61.5,363.5,61.5,363.5,61.5z"/>
	<path d="M409.1,207.6H258.2c-4.6,0-9-1.1-12.9-3.2c-1.4-0.7-2.6-1.5-3.9-2.4c-4.1-3-7.3-7.1-9.3-12l0,0c-0.3-0.8-0.6-1.5-0.8-2.3
		c-1.5-5.2-1.5-10.5-0.3-15.2c1.3-4.7,3.7-8.9,7-12.4l0,0c5-5.1,12-8.4,19.9-8.4h103.7c0.7,1.8,1.5,3.6,2.3,5.4
		c1.3,2.8,2.6,5.5,4.1,8.1c6.5,11.6,15,21.9,24.9,30.7c3.7,3.2,7.7,6.2,11.7,9C406.2,205.8,407.7,206.7,409.1,207.6z"/>
	<path d="M468.8,239.1H284.4c-18.8,0-32.2,18-26.8,36l0,0c3.5,11.8,14.4,19.9,26.8,19.9h184.4c12.4,0,23.3-8.1,26.8-19.9l0,0
		C501,257.2,487.6,239.1,468.8,239.1z"/>
	<path d="M450.8,328.4H214.7c-18.8,0-32.2,18-26.8,36l0,0c3.5,11.8,14.4,19.9,26.8,19.9h236.1c12.4,0,23.3-8.1,26.8-19.9l0,0
		C483,346.4,469.5,328.4,450.8,328.4z"/>
	<path d="M470.7,26.4c-44.4,0-80.3,36-80.3,80.3s36,80.3,80.3,80.3c44.4,0,80.3-36,80.3-80.3S515.1,26.4,470.7,26.4z M470.7,164.9
		c-32.1,0-58.2-26.1-58.2-58.2s26.1-58.2,58.2-58.2s58.2,26.1,58.2,58.2S502.8,164.9,470.7,164.9z"/>
	<polygon points="514.9,95.8 482.4,95.8 482.4,63.3 457.2,63.3 457.2,95.8 424.7,95.8 424.7,121 457.2,121 457.2,153.5 482.4,153.5 
		482.4,121 514.9,121 	"/>
</g>
</svg>
