<?xml version="1.0" encoding="utf-8"?>
<!-- Generator: Adobe Illustrator 21.1.0, SVG Export Plug-In . SVG Version: 6.00 Build 0)  -->
<svg version="1.1" id="Layer_2" xmlns="http://www.w3.org/2000/svg" xmlns:xlink="http://www.w3.org/1999/xlink" x="0px" y="0px"
	 viewBox="0 0 512 512" style="enable-background:new 0 0 512 512;" xml:space="preserve">
<style type="text/css">
	.st0{fill-rule:evenodd;clip-rule:evenodd;}
</style>
<g>
	<path class="st0" d="M255.1,193.7c-34.4,0-62.3,28-62.3,62.3s28,62.3,62.3,62.3c34.4,0,62.3-28,62.3-62.3S289.5,193.7,255.1,193.7z
		 M255.1,281.4c-14.1,0-25.4-11.4-25.4-25.4s11.4-25.4,25.4-25.4c14,0,25.4,11.4,25.4,25.4S269.2,281.4,255.1,281.4z M255.1,193.7
		c-34.4,0-62.3,28-62.3,62.3s28,62.3,62.3,62.3c34.4,0,62.3-28,62.3-62.3S289.5,193.7,255.1,193.7z M255.1,281.4
		c-14.1,0-25.4-11.4-25.4-25.4s11.4-25.4,25.4-25.4c14,0,25.4,11.4,25.4,25.4S269.2,281.4,255.1,281.4z M255.1,193.7
		c-34.4,0-62.3,28-62.3,62.3s28,62.3,62.3,62.3c34.4,0,62.3-28,62.3-62.3S289.5,193.7,255.1,193.7z M255.1,281.4
		c-14.1,0-25.4-11.4-25.4-25.4s11.4-25.4,25.4-25.4c14,0,25.4,11.4,25.4,25.4S269.2,281.4,255.1,281.4z M255.1,193.7
		c-34.4,0-62.3,28-62.3,62.3s28,62.3,62.3,62.3c34.4,0,62.3-28,62.3-62.3S289.5,193.7,255.1,193.7z M255.1,281.4
		c-14.1,0-25.4-11.4-25.4-25.4s11.4-25.4,25.4-25.4c14,0,25.4,11.4,25.4,25.4S269.2,281.4,255.1,281.4z M468.7,113.5v86.9
		c0,4.8-1.2,9.5-3.5,13.7l-44.2,82l11.1,6l-48.5,90l-11-6l-7.1-3.8l-13.9,25.9l-14.5-7.8l13.9-25.9l-7.1-3.8l-11-6l48.5-90l11.1,6
		l40.3-74.8c2.3-4.2,3.5-8.9,3.5-13.7V74.1C389.9,28.3,326.3,0,256,0C114.6,0,0,114.6,0,256s114.6,256,256,256s256-114.6,256-256
		C512,203.3,496.1,154.3,468.7,113.5z M256,55c17.4,0,34.5,2,51.1,5.8l-23.5,63.8h-0.2c-9.1-2.3-18.6-3.4-28.3-3.4
		c-9.3,0-18.2,1.1-26.9,3.1l-23.4-63.5C221.5,57,238.6,55,256,55z M256,457c-17.4,0-34.5-2-51.1-5.8l23.4-63.5
		c8.6,2,17.6,3.1,26.9,3.1c9.8,0,19.3-1.2,28.3-3.4h0.2l23.5,63.8C290.5,455,273.4,457,256,457z M255.1,350.3
		c-52.1,0-94.3-42.2-94.3-94.3s42.2-94.3,94.3-94.3c52.1,0,94.3,42.2,94.3,94.3S307.2,350.3,255.1,350.3z M255.1,193.7
		c-34.4,0-62.3,28-62.3,62.3s28,62.3,62.3,62.3c34.4,0,62.3-28,62.3-62.3S289.5,193.7,255.1,193.7z M255.1,281.4
		c-14.1,0-25.4-11.4-25.4-25.4s11.4-25.4,25.4-25.4c14,0,25.4,11.4,25.4,25.4S269.2,281.4,255.1,281.4z M255.1,193.7
		c-34.4,0-62.3,28-62.3,62.3s28,62.3,62.3,62.3c34.4,0,62.3-28,62.3-62.3S289.5,193.7,255.1,193.7z M255.1,281.4
		c-14.1,0-25.4-11.4-25.4-25.4s11.4-25.4,25.4-25.4c14,0,25.4,11.4,25.4,25.4S269.2,281.4,255.1,281.4z M255.1,193.7
		c-34.4,0-62.3,28-62.3,62.3s28,62.3,62.3,62.3c34.4,0,62.3-28,62.3-62.3S289.5,193.7,255.1,193.7z M255.1,281.4
		c-14.1,0-25.4-11.4-25.4-25.4s11.4-25.4,25.4-25.4c14,0,25.4,11.4,25.4,25.4S269.2,281.4,255.1,281.4z M255.1,193.7
		c-34.4,0-62.3,28-62.3,62.3s28,62.3,62.3,62.3c34.4,0,62.3-28,62.3-62.3S289.5,193.7,255.1,193.7z M255.1,281.4
		c-14.1,0-25.4-11.4-25.4-25.4s11.4-25.4,25.4-25.4c14,0,25.4,11.4,25.4,25.4S269.2,281.4,255.1,281.4z M255.1,193.7
		c-34.4,0-62.3,28-62.3,62.3s28,62.3,62.3,62.3c34.4,0,62.3-28,62.3-62.3S289.5,193.7,255.1,193.7z M255.1,281.4
		c-14.1,0-25.4-11.4-25.4-25.4s11.4-25.4,25.4-25.4c14,0,25.4,11.4,25.4,25.4S269.2,281.4,255.1,281.4z"/>
</g>
</svg>
