<?xml version="1.0" encoding="utf-8"?>
<!-- Generator: Adobe Illustrator 21.1.0, SVG Export Plug-In . SVG Version: 6.00 Build 0)  -->
<svg version="1.1" id="Layer_2" xmlns="http://www.w3.org/2000/svg" xmlns:xlink="http://www.w3.org/1999/xlink" x="0px" y="0px"
	 viewBox="0 0 419.3 512" style="enable-background:new 0 0 419.3 512;" xml:space="preserve">
<path d="M411.6,306.7c-8-9.7-21.1-14.6-39.3-14.6h-23.5l-3.2-16.5c-3.8-10.1-9.4-18.6-16.8-25.4c-7.4-6.8-15.5-10.8-24.4-12
	l-93.2,0.6c-7.2,0-17.9-12.7-32.3-38c-8-14.4-19.9-38.7-35.5-72.9c-13.5-30-23.6-51.3-30.4-64C102.6,43.3,92.9,27.9,84,17.7
	C74.3,5.9,64.8,0,55.5,0H35.9c-4.7,0-9.3,1.3-13.9,3.8c-4.7,2.5-8.7,5.9-12,10.2c-3.8,5.5-6.6,12-8.2,19.6
	c-2.5,10.1-2.1,21.6,1.3,34.2l103.7,365V512h287.2v-79.2l24.1-92.5C420.9,326.3,418.8,315.1,411.6,306.7z"/>
</svg>
