<?xml version="1.0" encoding="utf-8"?>
<!-- Generator: Adobe Illustrator 21.1.0, SVG Export Plug-In . SVG Version: 6.00 Build 0)  -->
<svg version="1.1" id="Layer_4" xmlns="http://www.w3.org/2000/svg" xmlns:xlink="http://www.w3.org/1999/xlink" x="0px" y="0px"
	 viewBox="0 0 454.6 512" style="enable-background:new 0 0 454.6 512;" xml:space="preserve">
<g id="fill">
	<path d="M454.6,471H0v41h454.6V471z"/>
	<rect x="180" y="64.2" width="22.7" height="41.9"/>
	<rect x="82" y="64.2" width="21.7" height="41.9"/>
	<rect x="147" y="64.2" width="22.7" height="41.9"/>
	<rect x="114" y="64.2" width="22.7" height="41.9"/>
	<path d="M442.7,213.7H440v-27.6c0-1.5-0.5-2.8-1.7-3.9c-1-1.1-2.2-1.7-3.7-1.7s-2.8,0.5-3.9,1.7c-1.1,1.1-1.7,2.4-1.7,3.9v27.6
		h-31.4v-27.6c0-1.5-0.5-2.8-1.7-3.9c-1.1-1.1-2.4-1.7-3.9-1.7s-2.8,0.5-3.9,1.7c-1,1.1-1.5,2.4-1.5,3.9v27.6h-2.7
		c-5.2,0-9.3,4.1-9.3,9.3v30.1c0,17,10.8,31.5,26.3,36.7c0,3.4,0,43.2,0,54.5c0,12-9.9,22-22.4,22c-12,0-22-9.8-22-22
		c0-1,0-6.4,0-7.9c0-26-22.9-46.9-48.9-46.9c-6.6,0-12.7,1.3-18,3.6V19.9c0-11-8.9-19.9-19.9-19.9H19.9C8.9,0,0,8.9,0,19.9v427.4
		h289.5V325.9c3.3-5.4,9.7-10.6,19.3-10.6c12.1,0,22,10,22,22.4c0,0.5,0,1.6,0,3.9c0,1.3,0,3.1,0,5.3c0,22.3,21.2,45.2,48.9,45.2
		c27.7,0,46.9-23.8,46.9-46.5v-56c15.3-5.1,25.3-19.8,25.3-36.5c0-6.8,0-30.1,0-30.1C452,217.8,447.9,213.7,442.7,213.7z
		 M396.6,192.5L396.6,192.5h-9.1v-6.4c0-1.2,0.4-2.3,1.2-3.1c1-1,2.1-1.5,3.3-1.5s2.3,0.5,3.3,1.5c0.8,0.8,1.2,1.9,1.2,3.1v6.4
		H396.6z M103,341.8l31.1-60.1H91.9l43.4-90.1h60.9L142,255h55L103,341.8z M219.5,109.6c0,2.4-1.9,4.3-4.3,4.3H73.6
		c-2.4,0-4.3-1.9-4.3-4.3v-49c0-2.4,1.9-4.3,4.3-4.3h141.6c2.4,0,4.3,1.9,4.3,4.3L219.5,109.6L219.5,109.6z M439.2,192.5
		L439.2,192.5h-9.3v-6.4c0-1.2,0.5-2.3,1.5-3.1c0.8-1,1.9-1.5,3.3-1.5c1.2,0,2.4,0.5,3.3,1.5c0.8,0.8,1.2,1.9,1.2,3.1V192.5z"/>
</g>
</svg>
