<?xml version="1.0" encoding="utf-8"?>
<!-- Generator: Adobe Illustrator 21.1.0, SVG Export Plug-In . SVG Version: 6.00 Build 0)  -->
<svg version="1.1" id="Layer_5" xmlns="http://www.w3.org/2000/svg" xmlns:xlink="http://www.w3.org/1999/xlink" x="0px" y="0px"
	 viewBox="0 0 580.4 512" style="enable-background:new 0 0 580.4 512;" xml:space="preserve">
<g>
	<path d="M391,440H72V122l271.4-0.6L414.9,50c-0.6,0-1.3,0-1.9,0H50C22.4,50,0,72.4,0,100v362c0,27.6,22.4,50,50,50h363
		c27.6,0,50-22.4,50-50V226.9l-71.8,71.8L391,440z"/>
	<path d="M571,9.7c-12.5-12.4-32.7-12.4-45.2,0L243.8,291l-51-88.1c-8.9-15.3-28.4-20.4-43.8-11.8c-15.3,8.9-20.6,28.4-11.8,43.8
		l69.9,120.9c1.4,2.4,3.2,4.7,5,6.6c0.8,0.9,1.5,1.8,2.4,2.7c12.5,12.5,32.8,12.5,45.3,0L571,54.9C583.5,42.4,583.5,22.2,571,9.7z"
		/>
</g>
</svg>
