<?xml version="1.0" encoding="utf-8"?>
<!-- Generator: Adobe Illustrator 21.1.0, SVG Export Plug-In . SVG Version: 6.00 Build 0)  -->
<svg version="1.1" id="Layer_1" xmlns="http://www.w3.org/2000/svg" xmlns:xlink="http://www.w3.org/1999/xlink" x="0px" y="0px"
	 viewBox="0 0 512 512" style="enable-background:new 0 0 512 512;" xml:space="preserve">
<path d="M462,0.5H50c-27.6,0-50,22.4-50,50v412c0,27.6,22.4,50,50,50h412c27.6,0,50-22.4,50-50v-412C512,22.9,489.6,0.5,462,0.5z
	 M356.8,197.1L228.3,366.7c-1.8,1.8-3.5,3.7-5.8,5c-12.6,7-28.9,2.5-36.3-10.2l-57-80.1c-7.4-12.7-3.2-28.7,9.4-35.7
	c12.6-7,28.9-2.5,36.3,10.2l41.4,53.4l106.4-150.9c0.8-0.9,7.1-10.9,21.8-10.9c15.9,0,25.4,12.6,25.5,25.5
	C370,181.6,357.5,196.4,356.8,197.1z"/>
</svg>
