<?xml version="1.0" encoding="utf-8"?>
<!-- Generator: Adobe Illustrator 21.1.0, SVG Export Plug-In . SVG Version: 6.00 Build 0)  -->
<svg version="1.1" id="Shape_1_1_" xmlns="http://www.w3.org/2000/svg" xmlns:xlink="http://www.w3.org/1999/xlink" x="0px" y="0px"
	 viewBox="0 0 512 512" style="enable-background:new 0 0 512 512;" xml:space="preserve">
<g>
	<path d="M256,0C114.6,0,0,114.6,0,256s114.6,256,256,256s256-114.6,256-256S397.3,0,256,0z M356.8,197.1L228.3,366.7
		c-1.8,1.8-3.5,3.7-5.8,5c-12.6,7-28.9,2.5-36.3-10.2l-57-80.1c-7.4-12.7-3.2-28.7,9.4-35.7c12.6-7,28.9-2.5,36.3,10.2l41.4,53.4
		l106.4-150.9c0.8-0.9,7.1-10.9,21.8-10.9c15.9,0,25.4,12.6,25.5,25.5C370,181.6,357.5,196.4,356.8,197.1z"/>
</g>
</svg>
