<?xml version="1.0" encoding="utf-8"?>
<!-- Generator: Adobe Illustrator 21.1.0, SVG Export Plug-In . SVG Version: 6.00 Build 0)  -->
<svg version="1.1" id="Layer_1" xmlns="http://www.w3.org/2000/svg" xmlns:xlink="http://www.w3.org/1999/xlink" x="0px" y="0px"
	 viewBox="0 0 542.4 512" style="enable-background:new 0 0 542.4 512;" xml:space="preserve">
<g>
	<path d="M524.5,7L524.5,7c-16.6-9-37.3-2.8-46.2,13.8L279.9,388l-82.2-96.4c-12.3-14.4-33.9-16.1-48.3-3.8h0
		c-14.4,12.3-16.1,33.9-3.8,48.3l108.6,127.3c18.4,21.6,52.8,18,66.3-7L538.3,53.2C547.3,36.7,541.1,16,524.5,7z"/>
	<path d="M142.5,421.7l-82.2-96.4c-6.8-7.9-16.4-12-26.1-12c-7.9,0-15.8,2.7-22.2,8.2c-14.4,12.3-16.1,33.9-3.8,48.3l108.6,127.3
		c18.4,21.6,52.8,18,66.3-7l24.6-45.5L161.3,387L142.5,421.7z"/>
	<path d="M401,86.9c2.8-5.2,4.1-10.7,4.1-16.2c0-12.1-6.5-23.9-17.9-30c-16.6-9-37.3-2.8-46.2,13.8L220,278.3l46.9,56.7L401,86.9z"
		/>
</g>
</svg>
