<?xml version="1.0" encoding="utf-8"?>
<!-- Generator: Adobe Illustrator 21.1.0, SVG Export Plug-In . SVG Version: 6.00 Build 0)  -->
<svg version="1.1" id="Layer_3" xmlns="http://www.w3.org/2000/svg" xmlns:xlink="http://www.w3.org/1999/xlink" x="0px" y="0px"
	 viewBox="0 0 548.4 512" style="enable-background:new 0 0 548.4 512;" xml:space="preserve">
<g>
	<path d="M234.4,238.1c0.1,1.8,0.4,3.6,1,5.3l50.8-7.6c-0.1-2.3-0.5-4.6-1.2-6.7L234.4,238.1z"/>
	<path d="M451.2,199.4l-46.7,8.3l0,0c0,3.5,1.4,6.9,3.8,9.6l45.4-6.8c0.2-0.9,0.3-1.9,0.3-2.8C454,204.8,453,201.9,451.2,199.4z"/>
	<path d="M182.1,182c-2.4-2.2-8.8-2.4-11.7-2.4c-0.8,0-1.8,0.4-2.3,1c-0.4,0.5-0.1,0.8,0.6,0.8c2.6,0,8.3,0.2,10.3,2
		c2.4,2.2,1.2,4.9,0.5,6.3c-0.3,0.4,0.1,0.7,0.8,0.7c0.9-0.1,1.9-0.6,2.3-1.1C183.6,187.6,184.8,184.4,182.1,182z M182.1,182
		c-2.4-2.2-8.8-2.4-11.7-2.4c-0.8,0-1.8,0.4-2.3,1c-0.4,0.5-0.1,0.8,0.6,0.8c2.6,0,8.3,0.2,10.3,2c2.4,2.2,1.2,4.9,0.5,6.3
		c-0.3,0.4,0.1,0.7,0.8,0.7c0.9-0.1,1.9-0.6,2.3-1.1C183.6,187.6,184.8,184.4,182.1,182z M182.1,182c-2.4-2.2-8.8-2.4-11.7-2.4
		c-0.8,0-1.8,0.4-2.3,1c-0.4,0.5-0.1,0.8,0.6,0.8c2.6,0,8.3,0.2,10.3,2c2.4,2.2,1.2,4.9,0.5,6.3c-0.3,0.4,0.1,0.7,0.8,0.7
		c0.9-0.1,1.9-0.6,2.3-1.1C183.6,187.6,184.8,184.4,182.1,182z M367.8,150.2c-0.9-2.6-3.3-7.7-9.6-11.5c-5.5-3.3-13.4-3.3-16.9-3.1
		c-0.9,0.1-1.5,0.7-1.5,1.5c0,0.1,0,0.1,0,0.2c0.1,0.8,0.9,1.3,1.7,1.3c3.1-0.2,10.1-0.2,14.8,2.6c5.4,3.3,7.5,7.8,8.2,9.9
		c0.2,0.7,1,1.1,1.8,1l0,0C367.4,151.9,368.1,151.1,367.8,150.2z M182.1,182c-2.4-2.2-8.8-2.4-11.7-2.4c-0.8,0-1.8,0.4-2.3,1
		c-0.4,0.5-0.1,0.8,0.6,0.8c2.6,0,8.3,0.2,10.3,2c2.4,2.2,1.2,4.9,0.5,6.3c-0.3,0.4,0.1,0.7,0.8,0.7c0.9-0.1,1.9-0.6,2.3-1.1
		C183.6,187.6,184.8,184.4,182.1,182z M367.8,150.2c-0.9-2.6-3.3-7.7-9.6-11.5c-5.5-3.3-13.4-3.3-16.9-3.1c-0.9,0.1-1.5,0.7-1.5,1.5
		c0,0.1,0,0.1,0,0.2c0.1,0.8,0.9,1.3,1.7,1.3c3.1-0.2,10.1-0.2,14.8,2.6c5.4,3.3,7.5,7.8,8.2,9.9c0.2,0.7,1,1.1,1.8,1l0,0
		C367.4,151.9,368.1,151.1,367.8,150.2z M182.1,182c-2.4-2.2-8.8-2.4-11.7-2.4c-0.8,0-1.8,0.4-2.3,1c-0.4,0.5-0.1,0.8,0.6,0.8
		c2.6,0,8.3,0.2,10.3,2c2.4,2.2,1.2,4.9,0.5,6.3c-0.3,0.4,0.1,0.7,0.8,0.7c0.9-0.1,1.9-0.6,2.3-1.1
		C183.6,187.6,184.8,184.4,182.1,182z M367.8,150.2c-0.9-2.6-3.3-7.7-9.6-11.5c-5.5-3.3-13.4-3.3-16.9-3.1c-0.9,0.1-1.5,0.7-1.5,1.5
		c0,0.1,0,0.1,0,0.2c0.1,0.8,0.9,1.3,1.7,1.3c3.1-0.2,10.1-0.2,14.8,2.6c5.4,3.3,7.5,7.8,8.2,9.9c0.2,0.7,1,1.1,1.8,1l0,0
		C367.4,151.9,368.1,151.1,367.8,150.2z M182.1,182c-2.4-2.2-8.8-2.4-11.7-2.4c-0.8,0-1.8,0.4-2.3,1c-0.4,0.5-0.1,0.8,0.6,0.8
		c2.6,0,8.3,0.2,10.3,2c2.4,2.2,1.2,4.9,0.5,6.3c-0.3,0.4,0.1,0.7,0.8,0.7c0.9-0.1,1.9-0.6,2.3-1.1
		C183.6,187.6,184.8,184.4,182.1,182z M367.8,150.2c-0.9-2.6-3.3-7.7-9.6-11.5c-5.5-3.3-13.4-3.3-16.9-3.1c-0.9,0.1-1.5,0.7-1.5,1.5
		c0,0.1,0,0.1,0,0.2c0.1,0.8,0.9,1.3,1.7,1.3c3.1-0.2,10.1-0.2,14.8,2.6c5.4,3.3,7.5,7.8,8.2,9.9c0.2,0.7,1,1.1,1.8,1l0,0
		C367.4,151.9,368.1,151.1,367.8,150.2z M182.1,182c-2.4-2.2-8.8-2.4-11.7-2.4c-0.8,0-1.8,0.4-2.3,1c-0.4,0.5-0.1,0.8,0.6,0.8
		c2.6,0,8.3,0.2,10.3,2c2.4,2.2,1.2,4.9,0.5,6.3c-0.3,0.4,0.1,0.7,0.8,0.7c0.9-0.1,1.9-0.6,2.3-1.1
		C183.6,187.6,184.8,184.4,182.1,182z M367.8,150.2c-0.9-2.6-3.3-7.7-9.6-11.5c-5.5-3.3-13.4-3.3-16.9-3.1c-0.9,0.1-1.5,0.7-1.5,1.5
		c0,0.1,0,0.1,0,0.2c0.1,0.8,0.9,1.3,1.7,1.3c3.1-0.2,10.1-0.2,14.8,2.6c5.4,3.3,7.5,7.8,8.2,9.9c0.2,0.7,1,1.1,1.8,1l0,0
		C367.4,151.9,368.1,151.1,367.8,150.2z M408,283c-1.3-4-4.7-11.8-12.5-17c-6.8-4.6-16-3.6-20.1-2.8c-1,0.2-1.6,1.2-1.6,2.3
		c0,0.2,0,0.3,0,0.5c0.2,1.2,1.2,2,2.2,1.8c3.6-0.7,11.8-1.6,17.6,2.3c6.7,4.5,9.7,11.4,10.8,14.7c0.3,1.1,1.3,1.7,2.2,1.4
		C407.8,285.8,408.4,284.4,408,283z M408,283c-1.3-4-4.7-11.8-12.5-17c-6.8-4.6-16-3.6-20.1-2.8c-1,0.2-1.6,1.2-1.6,2.3
		c0,0.2,0,0.3,0,0.5c0.2,1.2,1.2,2,2.2,1.8c3.6-0.7,11.8-1.6,17.6,2.3c6.7,4.5,9.7,11.4,10.8,14.7c0.3,1.1,1.3,1.7,2.2,1.4
		C407.8,285.8,408.4,284.4,408,283z M182.1,182c-2.4-2.2-8.8-2.4-11.7-2.4c-0.8,0-1.8,0.4-2.3,1c-0.4,0.5-0.1,0.8,0.6,0.8
		c2.6,0,8.3,0.2,10.3,2c2.4,2.2,1.2,4.9,0.5,6.3c-0.3,0.4,0.1,0.7,0.8,0.7c0.9-0.1,1.9-0.6,2.3-1.1
		C183.6,187.6,184.8,184.4,182.1,182z M367.8,150.2c-0.9-2.6-3.3-7.7-9.6-11.5c-5.5-3.3-13.4-3.3-16.9-3.1c-0.9,0.1-1.5,0.7-1.5,1.5
		c0,0.1,0,0.1,0,0.2c0.1,0.8,0.9,1.3,1.7,1.3c3.1-0.2,10.1-0.2,14.8,2.6c5.4,3.3,7.5,7.8,8.2,9.9c0.2,0.7,1,1.1,1.8,1l0,0
		C367.4,151.9,368.1,151.1,367.8,150.2z M182.1,182c-2.4-2.2-8.8-2.4-11.7-2.4c-0.8,0-1.8,0.4-2.3,1c-0.4,0.5-0.1,0.8,0.6,0.8
		c2.6,0,8.3,0.2,10.3,2c2.4,2.2,1.2,4.9,0.5,6.3c-0.3,0.4,0.1,0.7,0.8,0.7c0.9-0.1,1.9-0.6,2.3-1.1
		C183.6,187.6,184.8,184.4,182.1,182z M367.8,150.2c-0.9-2.6-3.3-7.7-9.6-11.5c-5.5-3.3-13.4-3.3-16.9-3.1c-0.9,0.1-1.5,0.7-1.5,1.5
		c0,0.1,0,0.1,0,0.2c0.1,0.8,0.9,1.3,1.7,1.3c3.1-0.2,10.1-0.2,14.8,2.6c5.4,3.3,7.5,7.8,8.2,9.9c0.2,0.7,1,1.1,1.8,1l0,0
		C367.4,151.9,368.1,151.1,367.8,150.2z M408,283c-1.3-4-4.7-11.8-12.5-17c-6.8-4.6-16-3.6-20.1-2.8c-1,0.2-1.6,1.2-1.6,2.3
		c0,0.2,0,0.3,0,0.5c0.2,1.2,1.2,2,2.2,1.8c3.6-0.7,11.8-1.6,17.6,2.3c6.7,4.5,9.7,11.4,10.8,14.7c0.3,1.1,1.3,1.7,2.2,1.4
		C407.8,285.8,408.4,284.4,408,283z M426.2,388.9c-0.9-2.6-3.3-7.7-9.5-11.5c-5.5-3.3-13.4-3.3-16.9-3.1c-0.9,0.1-1.5,0.7-1.5,1.5
		c0,0.1,0,0.1,0,0.2c0.1,0.8,0.9,1.3,1.7,1.3c3.1-0.2,10.1-0.2,14.8,2.6c5.4,3.3,7.5,7.8,8.2,9.9c0.2,0.7,1,1.1,1.8,1
		C425.8,390.6,426.5,389.8,426.2,388.9z M426.2,388.9c-0.9-2.6-3.3-7.7-9.5-11.5c-5.5-3.3-13.4-3.3-16.9-3.1
		c-0.9,0.1-1.5,0.7-1.5,1.5c0,0.1,0,0.1,0,0.2c0.1,0.8,0.9,1.3,1.7,1.3c3.1-0.2,10.1-0.2,14.8,2.6c5.4,3.3,7.5,7.8,8.2,9.9
		c0.2,0.7,1,1.1,1.8,1C425.8,390.6,426.5,389.8,426.2,388.9z M408,283c-1.3-4-4.7-11.8-12.5-17c-6.8-4.6-16-3.6-20.1-2.8
		c-1,0.2-1.6,1.2-1.6,2.3c0,0.2,0,0.3,0,0.5c0.2,1.2,1.2,2,2.2,1.8c3.6-0.7,11.8-1.6,17.6,2.3c6.7,4.5,9.7,11.4,10.8,14.7
		c0.3,1.1,1.3,1.7,2.2,1.4C407.8,285.8,408.4,284.4,408,283z M182.1,182c-2.4-2.2-8.8-2.4-11.7-2.4c-0.8,0-1.8,0.4-2.3,1
		c-0.4,0.5-0.1,0.8,0.6,0.8c2.6,0,8.3,0.2,10.3,2c2.4,2.2,1.2,4.9,0.5,6.3c-0.3,0.4,0.1,0.7,0.8,0.7c0.9-0.1,1.9-0.6,2.3-1.1
		C183.6,187.6,184.8,184.4,182.1,182z M367.8,150.2c-0.9-2.6-3.3-7.7-9.6-11.5c-5.5-3.3-13.4-3.3-16.9-3.1c-0.9,0.1-1.5,0.7-1.5,1.5
		c0,0.1,0,0.1,0,0.2c0.1,0.8,0.9,1.3,1.7,1.3c3.1-0.2,10.1-0.2,14.8,2.6c5.4,3.3,7.5,7.8,8.2,9.9c0.2,0.7,1,1.1,1.8,1l0,0
		C367.4,151.9,368.1,151.1,367.8,150.2z M182.1,182c-2.4-2.2-8.8-2.4-11.7-2.4c-0.8,0-1.8,0.4-2.3,1c-0.4,0.5-0.1,0.8,0.6,0.8
		c2.6,0,8.3,0.2,10.3,2c2.4,2.2,1.2,4.9,0.5,6.3c-0.3,0.4,0.1,0.7,0.8,0.7c0.9-0.1,1.9-0.6,2.3-1.1
		C183.6,187.6,184.8,184.4,182.1,182z M210.7,374.7c-2.4-3-6.9-7.4-14.4-10.2c-2.3-0.9-7-1.2-10-1.4c-1.6-0.1-3,1.5-3,3.4l0,0
		c0,1.9,1.2,3.4,2.8,3.5c3.2,0.2,7,0.5,8.5,1.1c6.4,2.4,10.1,6.1,12,8.4c0.9,1.2,2.4,1.4,3.5,0.5C211.7,378.9,212,376.3,210.7,374.7
		z M367.8,150.2c-0.9-2.6-3.3-7.7-9.6-11.5c-5.5-3.3-13.4-3.3-16.9-3.1c-0.9,0.1-1.5,0.7-1.5,1.5c0,0.1,0,0.1,0,0.2
		c0.1,0.8,0.9,1.3,1.7,1.3c3.1-0.2,10.1-0.2,14.8,2.6c5.4,3.3,7.5,7.8,8.2,9.9c0.2,0.7,1,1.1,1.8,1l0,0
		C367.4,151.9,368.1,151.1,367.8,150.2z M408,283c-1.3-4-4.7-11.8-12.5-17c-6.8-4.6-16-3.6-20.1-2.8c-1,0.2-1.6,1.2-1.6,2.3
		c0,0.2,0,0.3,0,0.5c0.2,1.2,1.2,2,2.2,1.8c3.6-0.7,11.8-1.6,17.6,2.3c6.7,4.5,9.7,11.4,10.8,14.7c0.3,1.1,1.3,1.7,2.2,1.4
		C407.8,285.8,408.4,284.4,408,283z M426.2,388.9c-0.9-2.6-3.3-7.7-9.5-11.5c-5.5-3.3-13.4-3.3-16.9-3.1c-0.9,0.1-1.5,0.7-1.5,1.5
		c0,0.1,0,0.1,0,0.2c0.1,0.8,0.9,1.3,1.7,1.3c3.1-0.2,10.1-0.2,14.8,2.6c5.4,3.3,7.5,7.8,8.2,9.9c0.2,0.7,1,1.1,1.8,1
		C425.8,390.6,426.5,389.8,426.2,388.9z M426.2,388.9c-0.9-2.6-3.3-7.7-9.5-11.5c-5.5-3.3-13.4-3.3-16.9-3.1
		c-0.9,0.1-1.5,0.7-1.5,1.5c0,0.1,0,0.1,0,0.2c0.1,0.8,0.9,1.3,1.7,1.3c3.1-0.2,10.1-0.2,14.8,2.6c5.4,3.3,7.5,7.8,8.2,9.9
		c0.2,0.7,1,1.1,1.8,1C425.8,390.6,426.5,389.8,426.2,388.9z M408,283c-1.3-4-4.7-11.8-12.5-17c-6.8-4.6-16-3.6-20.1-2.8
		c-1,0.2-1.6,1.2-1.6,2.3c0,0.2,0,0.3,0,0.5c0.2,1.2,1.2,2,2.2,1.8c3.6-0.7,11.8-1.6,17.6,2.3c6.7,4.5,9.7,11.4,10.8,14.7
		c0.3,1.1,1.3,1.7,2.2,1.4C407.8,285.8,408.4,284.4,408,283z M210.7,374.7c-2.4-3-6.9-7.4-14.4-10.2c-2.3-0.9-7-1.2-10-1.4
		c-1.6-0.1-3,1.5-3,3.4l0,0c0,1.9,1.2,3.4,2.8,3.5c3.2,0.2,7,0.5,8.5,1.1c6.4,2.4,10.1,6.1,12,8.4c0.9,1.2,2.4,1.4,3.5,0.5
		C211.7,378.9,212,376.3,210.7,374.7z M182.1,182c-2.4-2.2-8.8-2.4-11.7-2.4c-0.8,0-1.8,0.4-2.3,1c-0.4,0.5-0.1,0.8,0.6,0.8
		c2.6,0,8.3,0.2,10.3,2c2.4,2.2,1.2,4.9,0.5,6.3c-0.3,0.4,0.1,0.7,0.8,0.7c0.9-0.1,1.9-0.6,2.3-1.1
		C183.6,187.6,184.8,184.4,182.1,182z M367.8,150.2c-0.9-2.6-3.3-7.7-9.6-11.5c-5.5-3.3-13.4-3.3-16.9-3.1c-0.9,0.1-1.5,0.7-1.5,1.5
		c0,0.1,0,0.1,0,0.2c0.1,0.8,0.9,1.3,1.7,1.3c3.1-0.2,10.1-0.2,14.8,2.6c5.4,3.3,7.5,7.8,8.2,9.9c0.2,0.7,1,1.1,1.8,1l0,0
		C367.4,151.9,368.1,151.1,367.8,150.2z M182.1,182c-2.4-2.2-8.8-2.4-11.7-2.4c-0.8,0-1.8,0.4-2.3,1c-0.4,0.5-0.1,0.8,0.6,0.8
		c2.6,0,8.3,0.2,10.3,2c2.4,2.2,1.2,4.9,0.5,6.3c-0.3,0.4,0.1,0.7,0.8,0.7c0.9-0.1,1.9-0.6,2.3-1.1
		C183.6,187.6,184.8,184.4,182.1,182z M210.7,374.7c-2.4-3-6.9-7.4-14.4-10.2c-2.3-0.9-7-1.2-10-1.4c-1.6-0.1-3,1.5-3,3.4l0,0
		c0,1.9,1.2,3.4,2.8,3.5c3.2,0.2,7,0.5,8.5,1.1c6.4,2.4,10.1,6.1,12,8.4c0.9,1.2,2.4,1.4,3.5,0.5C211.7,378.9,212,376.3,210.7,374.7
		z M367.8,150.2c-0.9-2.6-3.3-7.7-9.6-11.5c-5.5-3.3-13.4-3.3-16.9-3.1c-0.9,0.1-1.5,0.7-1.5,1.5c0,0.1,0,0.1,0,0.2
		c0.1,0.8,0.9,1.3,1.7,1.3c3.1-0.2,10.1-0.2,14.8,2.6c5.4,3.3,7.5,7.8,8.2,9.9c0.2,0.7,1,1.1,1.8,1l0,0
		C367.4,151.9,368.1,151.1,367.8,150.2z M408,283c-1.3-4-4.7-11.8-12.5-17c-6.8-4.6-16-3.6-20.1-2.8c-1,0.2-1.6,1.2-1.6,2.3
		c0,0.2,0,0.3,0,0.5c0.2,1.2,1.2,2,2.2,1.8c3.6-0.7,11.8-1.6,17.6,2.3c6.7,4.5,9.7,11.4,10.8,14.7c0.3,1.1,1.3,1.7,2.2,1.4
		C407.8,285.8,408.4,284.4,408,283z M426.2,388.9c-0.9-2.6-3.3-7.7-9.5-11.5c-5.5-3.3-13.4-3.3-16.9-3.1c-0.9,0.1-1.5,0.7-1.5,1.5
		c0,0.1,0,0.1,0,0.2c0.1,0.8,0.9,1.3,1.7,1.3c3.1-0.2,10.1-0.2,14.8,2.6c5.4,3.3,7.5,7.8,8.2,9.9c0.2,0.7,1,1.1,1.8,1
		C425.8,390.6,426.5,389.8,426.2,388.9z M426.2,388.9c-0.9-2.6-3.3-7.7-9.5-11.5c-5.5-3.3-13.4-3.3-16.9-3.1
		c-0.9,0.1-1.5,0.7-1.5,1.5c0,0.1,0,0.1,0,0.2c0.1,0.8,0.9,1.3,1.7,1.3c3.1-0.2,10.1-0.2,14.8,2.6c5.4,3.3,7.5,7.8,8.2,9.9
		c0.2,0.7,1,1.1,1.8,1C425.8,390.6,426.5,389.8,426.2,388.9z M408,283c-1.3-4-4.7-11.8-12.5-17c-6.8-4.6-16-3.6-20.1-2.8
		c-1,0.2-1.6,1.2-1.6,2.3c0,0.2,0,0.3,0,0.5c0.2,1.2,1.2,2,2.2,1.8c3.6-0.7,11.8-1.6,17.6,2.3c6.7,4.5,9.7,11.4,10.8,14.7
		c0.3,1.1,1.3,1.7,2.2,1.4C407.8,285.8,408.4,284.4,408,283z M210.7,374.7c-2.4-3-6.9-7.4-14.4-10.2c-2.3-0.9-7-1.2-10-1.4
		c-1.6-0.1-3,1.5-3,3.4l0,0c0,1.9,1.2,3.4,2.8,3.5c3.2,0.2,7,0.5,8.5,1.1c6.4,2.4,10.1,6.1,12,8.4c0.9,1.2,2.4,1.4,3.5,0.5
		C211.7,378.9,212,376.3,210.7,374.7z M182.1,182c-2.4-2.2-8.8-2.4-11.7-2.4c-0.8,0-1.8,0.4-2.3,1c-0.4,0.5-0.1,0.8,0.6,0.8
		c2.6,0,8.3,0.2,10.3,2c2.4,2.2,1.2,4.9,0.5,6.3c-0.3,0.4,0.1,0.7,0.8,0.7c0.9-0.1,1.9-0.6,2.3-1.1
		C183.6,187.6,184.8,184.4,182.1,182z M367.8,150.2c-0.9-2.6-3.3-7.7-9.6-11.5c-5.5-3.3-13.4-3.3-16.9-3.1c-0.9,0.1-1.5,0.7-1.5,1.5
		c0,0.1,0,0.1,0,0.2c0.1,0.8,0.9,1.3,1.7,1.3c3.1-0.2,10.1-0.2,14.8,2.6c5.4,3.3,7.5,7.8,8.2,9.9c0.2,0.7,1,1.1,1.8,1l0,0
		C367.4,151.9,368.1,151.1,367.8,150.2z M182.1,182c-2.4-2.2-8.8-2.4-11.7-2.4c-0.8,0-1.8,0.4-2.3,1c-0.4,0.5-0.1,0.8,0.6,0.8
		c2.6,0,8.3,0.2,10.3,2c2.4,2.2,1.2,4.9,0.5,6.3c-0.3,0.4,0.1,0.7,0.8,0.7c0.9-0.1,1.9-0.6,2.3-1.1
		C183.6,187.6,184.8,184.4,182.1,182z M210.7,374.7c-2.4-3-6.9-7.4-14.4-10.2c-2.3-0.9-7-1.2-10-1.4c-1.6-0.1-3,1.5-3,3.4l0,0
		c0,1.9,1.2,3.4,2.8,3.5c3.2,0.2,7,0.5,8.5,1.1c6.4,2.4,10.1,6.1,12,8.4c0.9,1.2,2.4,1.4,3.5,0.5C211.7,378.9,212,376.3,210.7,374.7
		z M367.8,150.2c-0.9-2.6-3.3-7.7-9.6-11.5c-5.5-3.3-13.4-3.3-16.9-3.1c-0.9,0.1-1.5,0.7-1.5,1.5c0,0.1,0,0.1,0,0.2
		c0.1,0.8,0.9,1.3,1.7,1.3c3.1-0.2,10.1-0.2,14.8,2.6c5.4,3.3,7.5,7.8,8.2,9.9c0.2,0.7,1,1.1,1.8,1l0,0
		C367.4,151.9,368.1,151.1,367.8,150.2z M408,283c-1.3-4-4.7-11.8-12.5-17c-6.8-4.6-16-3.6-20.1-2.8c-1,0.2-1.6,1.2-1.6,2.3
		c0,0.2,0,0.3,0,0.5c0.2,1.2,1.2,2,2.2,1.8c3.6-0.7,11.8-1.6,17.6,2.3c6.7,4.5,9.7,11.4,10.8,14.7c0.3,1.1,1.3,1.7,2.2,1.4
		C407.8,285.8,408.4,284.4,408,283z M426.2,388.9c-0.9-2.6-3.3-7.7-9.5-11.5c-5.5-3.3-13.4-3.3-16.9-3.1c-0.9,0.1-1.5,0.7-1.5,1.5
		c0,0.1,0,0.1,0,0.2c0.1,0.8,0.9,1.3,1.7,1.3c3.1-0.2,10.1-0.2,14.8,2.6c5.4,3.3,7.5,7.8,8.2,9.9c0.2,0.7,1,1.1,1.8,1
		C425.8,390.6,426.5,389.8,426.2,388.9z M426.2,388.9c-0.9-2.6-3.3-7.7-9.5-11.5c-5.5-3.3-13.4-3.3-16.9-3.1
		c-0.9,0.1-1.5,0.7-1.5,1.5c0,0.1,0,0.1,0,0.2c0.1,0.8,0.9,1.3,1.7,1.3c3.1-0.2,10.1-0.2,14.8,2.6c5.4,3.3,7.5,7.8,8.2,9.9
		c0.2,0.7,1,1.1,1.8,1C425.8,390.6,426.5,389.8,426.2,388.9z M408,283c-1.3-4-4.7-11.8-12.5-17c-6.8-4.6-16-3.6-20.1-2.8
		c-1,0.2-1.6,1.2-1.6,2.3c0,0.2,0,0.3,0,0.5c0.2,1.2,1.2,2,2.2,1.8c3.6-0.7,11.8-1.6,17.6,2.3c6.7,4.5,9.7,11.4,10.8,14.7
		c0.3,1.1,1.3,1.7,2.2,1.4C407.8,285.8,408.4,284.4,408,283z M210.7,374.7c-2.4-3-6.9-7.4-14.4-10.2c-2.3-0.9-7-1.2-10-1.4
		c-1.6-0.1-3,1.5-3,3.4l0,0c0,1.9,1.2,3.4,2.8,3.5c3.2,0.2,7,0.5,8.5,1.1c6.4,2.4,10.1,6.1,12,8.4c0.9,1.2,2.4,1.4,3.5,0.5
		C211.7,378.9,212,376.3,210.7,374.7z M182.1,182c-2.4-2.2-8.8-2.4-11.7-2.4c-0.8,0-1.8,0.4-2.3,1c-0.4,0.5-0.1,0.8,0.6,0.8
		c2.6,0,8.3,0.2,10.3,2c2.4,2.2,1.2,4.9,0.5,6.3c-0.3,0.4,0.1,0.7,0.8,0.7c0.9-0.1,1.9-0.6,2.3-1.1
		C183.6,187.6,184.8,184.4,182.1,182z M367.8,150.2c-0.9-2.6-3.3-7.7-9.6-11.5c-5.5-3.3-13.4-3.3-16.9-3.1c-0.9,0.1-1.5,0.7-1.5,1.5
		c0,0.1,0,0.1,0,0.2c0.1,0.8,0.9,1.3,1.7,1.3c3.1-0.2,10.1-0.2,14.8,2.6c5.4,3.3,7.5,7.8,8.2,9.9c0.2,0.7,1,1.1,1.8,1l0,0
		C367.4,151.9,368.1,151.1,367.8,150.2z M545.7,183c-2.9-5.6-237.2-135.6-301-173.3c-30.3-17.9-67-7.6-87.6,24.6
		c0,0-144.4,218.4-148.1,223.2c-3.7,4.8-6.1,9.3-7.6,14.3c-2.7,10-1.2,20.8,1.7,39.4L32.4,486c2.8,16.7,15.9,27.9,29.9,25.7
		c98.1-15.8,452.9-73.1,458.2-76.5c8.1-4.9,8.5-11.4,9.7-24.9c0.1-1.1,17.4-197.2,17.4-197.2C548.6,197.2,549.2,189.5,545.7,183z
		 M375.3,151.1c0,15.5-16,28-35.7,28s-35.7-12.5-35.7-28s16-28,35.7-28S375.3,135.7,375.3,151.1z M302.2,71.5
		c10.1-2.6,19.3,1.2,20.6,8.6S317,95.6,307,98.2c-10.1,2.6-19.3-1.2-20.6-8.6S292.2,74.1,302.2,71.5z M246.6,121.9
		c0,7.5-8.3,13.7-18.6,13.7s-18.6-6.1-18.6-13.7c0-7.5,8.3-13.6,18.6-13.6C238.3,108.3,246.6,114.4,246.6,121.9z M202.2,49
		c13.5,0,24.4,8,24.4,17.9s-10.9,17.9-24.4,17.9s-24.4-8-24.4-17.9S188.7,49,202.2,49z M175.9,171.3c18.5,0,33.5,11.7,33.5,26.2
		s-15,26.2-33.5,26.2s-33.5-11.7-33.5-26.2S157.5,171.3,175.9,171.3z M132.8,116.3c14.4,0,26,9.1,26,20.4s-11.6,20.4-26,20.4
		s-26-9.1-26-20.4C106.7,125.4,118.4,116.3,132.8,116.3z M80.7,219.8c10.3,0,18.6,6.1,18.6,13.6s-8.3,13.7-18.6,13.7
		s-18.6-6.1-18.6-13.7S70.4,219.8,80.7,219.8z M56.5,340.9c-2.3-15.3,9.5-30.8,26.4-34.5s32.5,5.7,34.9,21.1
		c2.3,15.4-9.5,30.8-26.4,34.5S58.9,356.3,56.5,340.9z M108.3,452.8c-9.7,2.1-18.5-3.1-19.8-11.7s5.5-17.2,15.1-19.3
		c9.6-2.1,18.5,3.1,19.8,11.7C124.8,442,118,450.7,108.3,452.8z M193.1,413.2c-19.9,4.4-38.1-6.3-40.8-23.8
		c-2.6-17.5,11.3-35.3,31.2-39.6c19.9-4.4,38.1,6.3,40.8,23.8C226.9,391.1,212.9,408.8,193.1,413.2z M198.4,277.9
		c10.7-2.3,20.5,3.6,22,13.3c1.5,9.7-6,19.4-16.7,21.8c-10.7,2.3-20.5-3.6-22-13.3C180.3,289.9,187.8,280.2,198.4,277.9z M306.8,424
		c-12.3,2.7-23.7-3.9-25.3-14.8c-1.7-10.9,7-21.9,19.3-24.6s23.7,3.9,25.3,14.8S319.1,421.3,306.8,424z M328.1,301.2
		c-4.1-22.7,14.2-46.7,40.7-53.6s51.4,5.9,55.5,28.6s-14.2,46.7-40.7,53.5C357,336.6,332.2,323.8,328.1,301.2z M406.8,421.6
		c-17.2,3.8-33-5.5-35.3-20.6c-2.3-15.2,9.8-30.5,27-34.3s33,5.5,35.3,20.6C436.1,402.5,424,417.8,406.8,421.6z M473.5,353.1
		c-10.3,5.1-21.3,1.4-24.6-8.2c-3.3-9.6,2.5-21.5,12.8-26.6s21.3-1.4,24.6,8.2S483.9,348,473.5,353.1z M487.7,274.9
		c-13.2,6.5-27,2.6-30.8-8.8c-3.8-11.3,3.7-25.8,16.9-32.2c13.2-6.5,27-2.6,30.8,8.8C508.5,254,500.9,268.4,487.7,274.9z
		 M538.9,197.9l-85.2,12.8c-1.9,8.6-12.1,15.2-24.5,15.2c-8.8,0-16.5-3.3-20.9-8.4l-122.1,18.3c0,0.3,0,0.5,0,0.8
		c0,13.8-11.6,24.9-25.9,24.9c-11.9,0-21.8-7.6-24.9-18.1l-192.9,29l192-34.3c0-0.5,0-1,0-1.6c0-13.8,11.6-24.9,25.9-24.9
		c11.6,0,21.4,7.3,24.8,17.4l119.4-21.3l0,0c0-9.9,11.1-18,24.8-18c9.5,0,17.8,3.9,21.9,9.7l82-14.6c0,0,2.6,0.4,4.9,4.7
		C540.5,194.2,538.9,197.9,538.9,197.9z M416.6,377.4c-5.5-3.3-13.4-3.3-16.9-3.1c-0.9,0.1-1.5,0.7-1.5,1.5c0,0.1,0,0.1,0,0.2
		c0.1,0.8,0.9,1.3,1.7,1.3c3.1-0.2,10.1-0.2,14.8,2.6c5.4,3.3,7.5,7.8,8.2,9.9c0.2,0.7,1,1.1,1.8,1c1-0.1,1.6-1,1.3-1.9
		C425.3,386.3,422.9,381.2,416.6,377.4z M404.4,284.8c0.3,1.1,1.3,1.7,2.2,1.4c1.2-0.3,1.8-1.8,1.4-3.1c-1.3-4-4.7-11.8-12.5-17
		c-6.8-4.6-16-3.6-20.1-2.8c-1,0.2-1.6,1.2-1.6,2.3c0,0.2,0,0.3,0,0.5c0.2,1.2,1.2,2,2.2,1.8c3.6-0.7,11.8-1.6,17.6,2.3
		C400.3,274.6,403.3,281.5,404.4,284.8z M341.6,138.6c3.1-0.2,10.1-0.2,14.8,2.6c5.4,3.3,7.5,7.8,8.2,9.9c0.2,0.7,1,1.1,1.8,1l0,0
		c1-0.1,1.6-1,1.3-1.9c-0.9-2.6-3.3-7.7-9.6-11.5c-5.5-3.3-13.4-3.3-16.9-3.1c-0.9,0.1-1.5,0.7-1.5,1.5c0,0.1,0,0.1,0,0.2
		C339.9,138.1,340.7,138.6,341.6,138.6z M196.3,364.4c-2.3-0.9-7-1.2-10-1.4c-1.6-0.1-3,1.5-3,3.4l0,0c0,1.9,1.2,3.4,2.8,3.5
		c3.2,0.2,7,0.5,8.5,1.1c6.4,2.4,10.1,6.1,12,8.4c0.9,1.2,2.4,1.4,3.5,0.5c1.6-1.2,1.9-3.8,0.6-5.4
		C208.3,371.7,203.8,367.3,196.3,364.4z M168.8,181.3c2.6,0,8.3,0.2,10.3,2c2.4,2.2,1.2,4.9,0.5,6.3c-0.3,0.4,0.1,0.7,0.8,0.7
		c0.9-0.1,1.9-0.6,2.3-1.1c0.9-1.6,2.2-4.8-0.6-7.2c-2.4-2.2-8.8-2.4-11.7-2.4c-0.8,0-1.8,0.4-2.3,1
		C167.8,181,168,181.3,168.8,181.3z M367.8,150.2c-0.9-2.6-3.3-7.7-9.6-11.5c-5.5-3.3-13.4-3.3-16.9-3.1c-0.9,0.1-1.5,0.7-1.5,1.5
		c0,0.1,0,0.1,0,0.2c0.1,0.8,0.9,1.3,1.7,1.3c3.1-0.2,10.1-0.2,14.8,2.6c5.4,3.3,7.5,7.8,8.2,9.9c0.2,0.7,1,1.1,1.8,1l0,0
		C367.4,151.9,368.1,151.1,367.8,150.2z M182.1,182c-2.4-2.2-8.8-2.4-11.7-2.4c-0.8,0-1.8,0.4-2.3,1c-0.4,0.5-0.1,0.8,0.6,0.8
		c2.6,0,8.3,0.2,10.3,2c2.4,2.2,1.2,4.9,0.5,6.3c-0.3,0.4,0.1,0.7,0.8,0.7c0.9-0.1,1.9-0.6,2.3-1.1
		C183.6,187.6,184.8,184.4,182.1,182z M210.7,374.7c-2.4-3-6.9-7.4-14.4-10.2c-2.3-0.9-7-1.2-10-1.4c-1.6-0.1-3,1.5-3,3.4l0,0
		c0,1.9,1.2,3.4,2.8,3.5c3.2,0.2,7,0.5,8.5,1.1c6.4,2.4,10.1,6.1,12,8.4c0.9,1.2,2.4,1.4,3.5,0.5C211.7,378.9,212,376.3,210.7,374.7
		z M408,283c-1.3-4-4.7-11.8-12.5-17c-6.8-4.6-16-3.6-20.1-2.8c-1,0.2-1.6,1.2-1.6,2.3c0,0.2,0,0.3,0,0.5c0.2,1.2,1.2,2,2.2,1.8
		c3.6-0.7,11.8-1.6,17.6,2.3c6.7,4.5,9.7,11.4,10.8,14.7c0.3,1.1,1.3,1.7,2.2,1.4C407.8,285.8,408.4,284.4,408,283z M426.2,388.9
		c-0.9-2.6-3.3-7.7-9.5-11.5c-5.5-3.3-13.4-3.3-16.9-3.1c-0.9,0.1-1.5,0.7-1.5,1.5c0,0.1,0,0.1,0,0.2c0.1,0.8,0.9,1.3,1.7,1.3
		c3.1-0.2,10.1-0.2,14.8,2.6c5.4,3.3,7.5,7.8,8.2,9.9c0.2,0.7,1,1.1,1.8,1C425.8,390.6,426.5,389.8,426.2,388.9z M426.2,388.9
		c-0.9-2.6-3.3-7.7-9.5-11.5c-5.5-3.3-13.4-3.3-16.9-3.1c-0.9,0.1-1.5,0.7-1.5,1.5c0,0.1,0,0.1,0,0.2c0.1,0.8,0.9,1.3,1.7,1.3
		c3.1-0.2,10.1-0.2,14.8,2.6c5.4,3.3,7.5,7.8,8.2,9.9c0.2,0.7,1,1.1,1.8,1C425.8,390.6,426.5,389.8,426.2,388.9z M408,283
		c-1.3-4-4.7-11.8-12.5-17c-6.8-4.6-16-3.6-20.1-2.8c-1,0.2-1.6,1.2-1.6,2.3c0,0.2,0,0.3,0,0.5c0.2,1.2,1.2,2,2.2,1.8
		c3.6-0.7,11.8-1.6,17.6,2.3c6.7,4.5,9.7,11.4,10.8,14.7c0.3,1.1,1.3,1.7,2.2,1.4C407.8,285.8,408.4,284.4,408,283z M367.8,150.2
		c-0.9-2.6-3.3-7.7-9.6-11.5c-5.5-3.3-13.4-3.3-16.9-3.1c-0.9,0.1-1.5,0.7-1.5,1.5c0,0.1,0,0.1,0,0.2c0.1,0.8,0.9,1.3,1.7,1.3
		c3.1-0.2,10.1-0.2,14.8,2.6c5.4,3.3,7.5,7.8,8.2,9.9c0.2,0.7,1,1.1,1.8,1l0,0C367.4,151.9,368.1,151.1,367.8,150.2z M210.7,374.7
		c-2.4-3-6.9-7.4-14.4-10.2c-2.3-0.9-7-1.2-10-1.4c-1.6-0.1-3,1.5-3,3.4l0,0c0,1.9,1.2,3.4,2.8,3.5c3.2,0.2,7,0.5,8.5,1.1
		c6.4,2.4,10.1,6.1,12,8.4c0.9,1.2,2.4,1.4,3.5,0.5C211.7,378.9,212,376.3,210.7,374.7z M182.1,182c-2.4-2.2-8.8-2.4-11.7-2.4
		c-0.8,0-1.8,0.4-2.3,1c-0.4,0.5-0.1,0.8,0.6,0.8c2.6,0,8.3,0.2,10.3,2c2.4,2.2,1.2,4.9,0.5,6.3c-0.3,0.4,0.1,0.7,0.8,0.7
		c0.9-0.1,1.9-0.6,2.3-1.1C183.6,187.6,184.8,184.4,182.1,182z M367.8,150.2c-0.9-2.6-3.3-7.7-9.6-11.5c-5.5-3.3-13.4-3.3-16.9-3.1
		c-0.9,0.1-1.5,0.7-1.5,1.5c0,0.1,0,0.1,0,0.2c0.1,0.8,0.9,1.3,1.7,1.3c3.1-0.2,10.1-0.2,14.8,2.6c5.4,3.3,7.5,7.8,8.2,9.9
		c0.2,0.7,1,1.1,1.8,1l0,0C367.4,151.9,368.1,151.1,367.8,150.2z M182.1,182c-2.4-2.2-8.8-2.4-11.7-2.4c-0.8,0-1.8,0.4-2.3,1
		c-0.4,0.5-0.1,0.8,0.6,0.8c2.6,0,8.3,0.2,10.3,2c2.4,2.2,1.2,4.9,0.5,6.3c-0.3,0.4,0.1,0.7,0.8,0.7c0.9-0.1,1.9-0.6,2.3-1.1
		C183.6,187.6,184.8,184.4,182.1,182z M210.7,374.7c-2.4-3-6.9-7.4-14.4-10.2c-2.3-0.9-7-1.2-10-1.4c-1.6-0.1-3,1.5-3,3.4l0,0
		c0,1.9,1.2,3.4,2.8,3.5c3.2,0.2,7,0.5,8.5,1.1c6.4,2.4,10.1,6.1,12,8.4c0.9,1.2,2.4,1.4,3.5,0.5C211.7,378.9,212,376.3,210.7,374.7
		z M408,283c-1.3-4-4.7-11.8-12.5-17c-6.8-4.6-16-3.6-20.1-2.8c-1,0.2-1.6,1.2-1.6,2.3c0,0.2,0,0.3,0,0.5c0.2,1.2,1.2,2,2.2,1.8
		c3.6-0.7,11.8-1.6,17.6,2.3c6.7,4.5,9.7,11.4,10.8,14.7c0.3,1.1,1.3,1.7,2.2,1.4C407.8,285.8,408.4,284.4,408,283z M426.2,388.9
		c-0.9-2.6-3.3-7.7-9.5-11.5c-5.5-3.3-13.4-3.3-16.9-3.1c-0.9,0.1-1.5,0.7-1.5,1.5c0,0.1,0,0.1,0,0.2c0.1,0.8,0.9,1.3,1.7,1.3
		c3.1-0.2,10.1-0.2,14.8,2.6c5.4,3.3,7.5,7.8,8.2,9.9c0.2,0.7,1,1.1,1.8,1C425.8,390.6,426.5,389.8,426.2,388.9z M426.2,388.9
		c-0.9-2.6-3.3-7.7-9.5-11.5c-5.5-3.3-13.4-3.3-16.9-3.1c-0.9,0.1-1.5,0.7-1.5,1.5c0,0.1,0,0.1,0,0.2c0.1,0.8,0.9,1.3,1.7,1.3
		c3.1-0.2,10.1-0.2,14.8,2.6c5.4,3.3,7.5,7.8,8.2,9.9c0.2,0.7,1,1.1,1.8,1C425.8,390.6,426.5,389.8,426.2,388.9z M408,283
		c-1.3-4-4.7-11.8-12.5-17c-6.8-4.6-16-3.6-20.1-2.8c-1,0.2-1.6,1.2-1.6,2.3c0,0.2,0,0.3,0,0.5c0.2,1.2,1.2,2,2.2,1.8
		c3.6-0.7,11.8-1.6,17.6,2.3c6.7,4.5,9.7,11.4,10.8,14.7c0.3,1.1,1.3,1.7,2.2,1.4C407.8,285.8,408.4,284.4,408,283z M367.8,150.2
		c-0.9-2.6-3.3-7.7-9.6-11.5c-5.5-3.3-13.4-3.3-16.9-3.1c-0.9,0.1-1.5,0.7-1.5,1.5c0,0.1,0,0.1,0,0.2c0.1,0.8,0.9,1.3,1.7,1.3
		c3.1-0.2,10.1-0.2,14.8,2.6c5.4,3.3,7.5,7.8,8.2,9.9c0.2,0.7,1,1.1,1.8,1l0,0C367.4,151.9,368.1,151.1,367.8,150.2z M210.7,374.7
		c-2.4-3-6.9-7.4-14.4-10.2c-2.3-0.9-7-1.2-10-1.4c-1.6-0.1-3,1.5-3,3.4l0,0c0,1.9,1.2,3.4,2.8,3.5c3.2,0.2,7,0.5,8.5,1.1
		c6.4,2.4,10.1,6.1,12,8.4c0.9,1.2,2.4,1.4,3.5,0.5C211.7,378.9,212,376.3,210.7,374.7z M182.1,182c-2.4-2.2-8.8-2.4-11.7-2.4
		c-0.8,0-1.8,0.4-2.3,1c-0.4,0.5-0.1,0.8,0.6,0.8c2.6,0,8.3,0.2,10.3,2c2.4,2.2,1.2,4.9,0.5,6.3c-0.3,0.4,0.1,0.7,0.8,0.7
		c0.9-0.1,1.9-0.6,2.3-1.1C183.6,187.6,184.8,184.4,182.1,182z M367.8,150.2c-0.9-2.6-3.3-7.7-9.6-11.5c-5.5-3.3-13.4-3.3-16.9-3.1
		c-0.9,0.1-1.5,0.7-1.5,1.5c0,0.1,0,0.1,0,0.2c0.1,0.8,0.9,1.3,1.7,1.3c3.1-0.2,10.1-0.2,14.8,2.6c5.4,3.3,7.5,7.8,8.2,9.9
		c0.2,0.7,1,1.1,1.8,1l0,0C367.4,151.9,368.1,151.1,367.8,150.2z M182.1,182c-2.4-2.2-8.8-2.4-11.7-2.4c-0.8,0-1.8,0.4-2.3,1
		c-0.4,0.5-0.1,0.8,0.6,0.8c2.6,0,8.3,0.2,10.3,2c2.4,2.2,1.2,4.9,0.5,6.3c-0.3,0.4,0.1,0.7,0.8,0.7c0.9-0.1,1.9-0.6,2.3-1.1
		C183.6,187.6,184.8,184.4,182.1,182z M210.7,374.7c-2.4-3-6.9-7.4-14.4-10.2c-2.3-0.9-7-1.2-10-1.4c-1.6-0.1-3,1.5-3,3.4l0,0
		c0,1.9,1.2,3.4,2.8,3.5c3.2,0.2,7,0.5,8.5,1.1c6.4,2.4,10.1,6.1,12,8.4c0.9,1.2,2.4,1.4,3.5,0.5C211.7,378.9,212,376.3,210.7,374.7
		z M408,283c-1.3-4-4.7-11.8-12.5-17c-6.8-4.6-16-3.6-20.1-2.8c-1,0.2-1.6,1.2-1.6,2.3c0,0.2,0,0.3,0,0.5c0.2,1.2,1.2,2,2.2,1.8
		c3.6-0.7,11.8-1.6,17.6,2.3c6.7,4.5,9.7,11.4,10.8,14.7c0.3,1.1,1.3,1.7,2.2,1.4C407.8,285.8,408.4,284.4,408,283z M426.2,388.9
		c-0.9-2.6-3.3-7.7-9.5-11.5c-5.5-3.3-13.4-3.3-16.9-3.1c-0.9,0.1-1.5,0.7-1.5,1.5c0,0.1,0,0.1,0,0.2c0.1,0.8,0.9,1.3,1.7,1.3
		c3.1-0.2,10.1-0.2,14.8,2.6c5.4,3.3,7.5,7.8,8.2,9.9c0.2,0.7,1,1.1,1.8,1C425.8,390.6,426.5,389.8,426.2,388.9z M426.2,388.9
		c-0.9-2.6-3.3-7.7-9.5-11.5c-5.5-3.3-13.4-3.3-16.9-3.1c-0.9,0.1-1.5,0.7-1.5,1.5c0,0.1,0,0.1,0,0.2c0.1,0.8,0.9,1.3,1.7,1.3
		c3.1-0.2,10.1-0.2,14.8,2.6c5.4,3.3,7.5,7.8,8.2,9.9c0.2,0.7,1,1.1,1.8,1C425.8,390.6,426.5,389.8,426.2,388.9z M408,283
		c-1.3-4-4.7-11.8-12.5-17c-6.8-4.6-16-3.6-20.1-2.8c-1,0.2-1.6,1.2-1.6,2.3c0,0.2,0,0.3,0,0.5c0.2,1.2,1.2,2,2.2,1.8
		c3.6-0.7,11.8-1.6,17.6,2.3c6.7,4.5,9.7,11.4,10.8,14.7c0.3,1.1,1.3,1.7,2.2,1.4C407.8,285.8,408.4,284.4,408,283z M367.8,150.2
		c-0.9-2.6-3.3-7.7-9.6-11.5c-5.5-3.3-13.4-3.3-16.9-3.1c-0.9,0.1-1.5,0.7-1.5,1.5c0,0.1,0,0.1,0,0.2c0.1,0.8,0.9,1.3,1.7,1.3
		c3.1-0.2,10.1-0.2,14.8,2.6c5.4,3.3,7.5,7.8,8.2,9.9c0.2,0.7,1,1.1,1.8,1l0,0C367.4,151.9,368.1,151.1,367.8,150.2z M210.7,374.7
		c-2.4-3-6.9-7.4-14.4-10.2c-2.3-0.9-7-1.2-10-1.4c-1.6-0.1-3,1.5-3,3.4l0,0c0,1.9,1.2,3.4,2.8,3.5c3.2,0.2,7,0.5,8.5,1.1
		c6.4,2.4,10.1,6.1,12,8.4c0.9,1.2,2.4,1.4,3.5,0.5C211.7,378.9,212,376.3,210.7,374.7z M182.1,182c-2.4-2.2-8.8-2.4-11.7-2.4
		c-0.8,0-1.8,0.4-2.3,1c-0.4,0.5-0.1,0.8,0.6,0.8c2.6,0,8.3,0.2,10.3,2c2.4,2.2,1.2,4.9,0.5,6.3c-0.3,0.4,0.1,0.7,0.8,0.7
		c0.9-0.1,1.9-0.6,2.3-1.1C183.6,187.6,184.8,184.4,182.1,182z M367.8,150.2c-0.9-2.6-3.3-7.7-9.6-11.5c-5.5-3.3-13.4-3.3-16.9-3.1
		c-0.9,0.1-1.5,0.7-1.5,1.5c0,0.1,0,0.1,0,0.2c0.1,0.8,0.9,1.3,1.7,1.3c3.1-0.2,10.1-0.2,14.8,2.6c5.4,3.3,7.5,7.8,8.2,9.9
		c0.2,0.7,1,1.1,1.8,1l0,0C367.4,151.9,368.1,151.1,367.8,150.2z M182.1,182c-2.4-2.2-8.8-2.4-11.7-2.4c-0.8,0-1.8,0.4-2.3,1
		c-0.4,0.5-0.1,0.8,0.6,0.8c2.6,0,8.3,0.2,10.3,2c2.4,2.2,1.2,4.9,0.5,6.3c-0.3,0.4,0.1,0.7,0.8,0.7c0.9-0.1,1.9-0.6,2.3-1.1
		C183.6,187.6,184.8,184.4,182.1,182z M408,283c-1.3-4-4.7-11.8-12.5-17c-6.8-4.6-16-3.6-20.1-2.8c-1,0.2-1.6,1.2-1.6,2.3
		c0,0.2,0,0.3,0,0.5c0.2,1.2,1.2,2,2.2,1.8c3.6-0.7,11.8-1.6,17.6,2.3c6.7,4.5,9.7,11.4,10.8,14.7c0.3,1.1,1.3,1.7,2.2,1.4
		C407.8,285.8,408.4,284.4,408,283z M426.2,388.9c-0.9-2.6-3.3-7.7-9.5-11.5c-5.5-3.3-13.4-3.3-16.9-3.1c-0.9,0.1-1.5,0.7-1.5,1.5
		c0,0.1,0,0.1,0,0.2c0.1,0.8,0.9,1.3,1.7,1.3c3.1-0.2,10.1-0.2,14.8,2.6c5.4,3.3,7.5,7.8,8.2,9.9c0.2,0.7,1,1.1,1.8,1
		C425.8,390.6,426.5,389.8,426.2,388.9z M426.2,388.9c-0.9-2.6-3.3-7.7-9.5-11.5c-5.5-3.3-13.4-3.3-16.9-3.1
		c-0.9,0.1-1.5,0.7-1.5,1.5c0,0.1,0,0.1,0,0.2c0.1,0.8,0.9,1.3,1.7,1.3c3.1-0.2,10.1-0.2,14.8,2.6c5.4,3.3,7.5,7.8,8.2,9.9
		c0.2,0.7,1,1.1,1.8,1C425.8,390.6,426.5,389.8,426.2,388.9z M408,283c-1.3-4-4.7-11.8-12.5-17c-6.8-4.6-16-3.6-20.1-2.8
		c-1,0.2-1.6,1.2-1.6,2.3c0,0.2,0,0.3,0,0.5c0.2,1.2,1.2,2,2.2,1.8c3.6-0.7,11.8-1.6,17.6,2.3c6.7,4.5,9.7,11.4,10.8,14.7
		c0.3,1.1,1.3,1.7,2.2,1.4C407.8,285.8,408.4,284.4,408,283z M367.8,150.2c-0.9-2.6-3.3-7.7-9.6-11.5c-5.5-3.3-13.4-3.3-16.9-3.1
		c-0.9,0.1-1.5,0.7-1.5,1.5c0,0.1,0,0.1,0,0.2c0.1,0.8,0.9,1.3,1.7,1.3c3.1-0.2,10.1-0.2,14.8,2.6c5.4,3.3,7.5,7.8,8.2,9.9
		c0.2,0.7,1,1.1,1.8,1l0,0C367.4,151.9,368.1,151.1,367.8,150.2z M182.1,182c-2.4-2.2-8.8-2.4-11.7-2.4c-0.8,0-1.8,0.4-2.3,1
		c-0.4,0.5-0.1,0.8,0.6,0.8c2.6,0,8.3,0.2,10.3,2c2.4,2.2,1.2,4.9,0.5,6.3c-0.3,0.4,0.1,0.7,0.8,0.7c0.9-0.1,1.9-0.6,2.3-1.1
		C183.6,187.6,184.8,184.4,182.1,182z M367.8,150.2c-0.9-2.6-3.3-7.7-9.6-11.5c-5.5-3.3-13.4-3.3-16.9-3.1c-0.9,0.1-1.5,0.7-1.5,1.5
		c0,0.1,0,0.1,0,0.2c0.1,0.8,0.9,1.3,1.7,1.3c3.1-0.2,10.1-0.2,14.8,2.6c5.4,3.3,7.5,7.8,8.2,9.9c0.2,0.7,1,1.1,1.8,1l0,0
		C367.4,151.9,368.1,151.1,367.8,150.2z M182.1,182c-2.4-2.2-8.8-2.4-11.7-2.4c-0.8,0-1.8,0.4-2.3,1c-0.4,0.5-0.1,0.8,0.6,0.8
		c2.6,0,8.3,0.2,10.3,2c2.4,2.2,1.2,4.9,0.5,6.3c-0.3,0.4,0.1,0.7,0.8,0.7c0.9-0.1,1.9-0.6,2.3-1.1
		C183.6,187.6,184.8,184.4,182.1,182z M367.8,150.2c-0.9-2.6-3.3-7.7-9.6-11.5c-5.5-3.3-13.4-3.3-16.9-3.1c-0.9,0.1-1.5,0.7-1.5,1.5
		c0,0.1,0,0.1,0,0.2c0.1,0.8,0.9,1.3,1.7,1.3c3.1-0.2,10.1-0.2,14.8,2.6c5.4,3.3,7.5,7.8,8.2,9.9c0.2,0.7,1,1.1,1.8,1l0,0
		C367.4,151.9,368.1,151.1,367.8,150.2z M182.1,182c-2.4-2.2-8.8-2.4-11.7-2.4c-0.8,0-1.8,0.4-2.3,1c-0.4,0.5-0.1,0.8,0.6,0.8
		c2.6,0,8.3,0.2,10.3,2c2.4,2.2,1.2,4.9,0.5,6.3c-0.3,0.4,0.1,0.7,0.8,0.7c0.9-0.1,1.9-0.6,2.3-1.1
		C183.6,187.6,184.8,184.4,182.1,182z M367.8,150.2c-0.9-2.6-3.3-7.7-9.6-11.5c-5.5-3.3-13.4-3.3-16.9-3.1c-0.9,0.1-1.5,0.7-1.5,1.5
		c0,0.1,0,0.1,0,0.2c0.1,0.8,0.9,1.3,1.7,1.3c3.1-0.2,10.1-0.2,14.8,2.6c5.4,3.3,7.5,7.8,8.2,9.9c0.2,0.7,1,1.1,1.8,1l0,0
		C367.4,151.9,368.1,151.1,367.8,150.2z M182.1,182c-2.4-2.2-8.8-2.4-11.7-2.4c-0.8,0-1.8,0.4-2.3,1c-0.4,0.5-0.1,0.8,0.6,0.8
		c2.6,0,8.3,0.2,10.3,2c2.4,2.2,1.2,4.9,0.5,6.3c-0.3,0.4,0.1,0.7,0.8,0.7c0.9-0.1,1.9-0.6,2.3-1.1
		C183.6,187.6,184.8,184.4,182.1,182z M367.8,150.2c-0.9-2.6-3.3-7.7-9.6-11.5c-5.5-3.3-13.4-3.3-16.9-3.1c-0.9,0.1-1.5,0.7-1.5,1.5
		c0,0.1,0,0.1,0,0.2c0.1,0.8,0.9,1.3,1.7,1.3c3.1-0.2,10.1-0.2,14.8,2.6c5.4,3.3,7.5,7.8,8.2,9.9c0.2,0.7,1,1.1,1.8,1l0,0
		C367.4,151.9,368.1,151.1,367.8,150.2z M182.1,182c-2.4-2.2-8.8-2.4-11.7-2.4c-0.8,0-1.8,0.4-2.3,1c-0.4,0.5-0.1,0.8,0.6,0.8
		c2.6,0,8.3,0.2,10.3,2c2.4,2.2,1.2,4.9,0.5,6.3c-0.3,0.4,0.1,0.7,0.8,0.7c0.9-0.1,1.9-0.6,2.3-1.1
		C183.6,187.6,184.8,184.4,182.1,182z M367.8,150.2c-0.9-2.6-3.3-7.7-9.6-11.5c-5.5-3.3-13.4-3.3-16.9-3.1c-0.9,0.1-1.5,0.7-1.5,1.5
		c0,0.1,0,0.1,0,0.2c0.1,0.8,0.9,1.3,1.7,1.3c3.1-0.2,10.1-0.2,14.8,2.6c5.4,3.3,7.5,7.8,8.2,9.9c0.2,0.7,1,1.1,1.8,1l0,0
		C367.4,151.9,368.1,151.1,367.8,150.2z M182.1,182c-2.4-2.2-8.8-2.4-11.7-2.4c-0.8,0-1.8,0.4-2.3,1c-0.4,0.5-0.1,0.8,0.6,0.8
		c2.6,0,8.3,0.2,10.3,2c2.4,2.2,1.2,4.9,0.5,6.3c-0.3,0.4,0.1,0.7,0.8,0.7c0.9-0.1,1.9-0.6,2.3-1.1
		C183.6,187.6,184.8,184.4,182.1,182z M367.8,150.2c-0.9-2.6-3.3-7.7-9.6-11.5c-5.5-3.3-13.4-3.3-16.9-3.1c-0.9,0.1-1.5,0.7-1.5,1.5
		c0,0.1,0,0.1,0,0.2c0.1,0.8,0.9,1.3,1.7,1.3c3.1-0.2,10.1-0.2,14.8,2.6c5.4,3.3,7.5,7.8,8.2,9.9c0.2,0.7,1,1.1,1.8,1l0,0
		C367.4,151.9,368.1,151.1,367.8,150.2z M182.1,182c-2.4-2.2-8.8-2.4-11.7-2.4c-0.8,0-1.8,0.4-2.3,1c-0.4,0.5-0.1,0.8,0.6,0.8
		c2.6,0,8.3,0.2,10.3,2c2.4,2.2,1.2,4.9,0.5,6.3c-0.3,0.4,0.1,0.7,0.8,0.7c0.9-0.1,1.9-0.6,2.3-1.1
		C183.6,187.6,184.8,184.4,182.1,182z M182.1,182c-2.4-2.2-8.8-2.4-11.7-2.4c-0.8,0-1.8,0.4-2.3,1c-0.4,0.5-0.1,0.8,0.6,0.8
		c2.6,0,8.3,0.2,10.3,2c2.4,2.2,1.2,4.9,0.5,6.3c-0.3,0.4,0.1,0.7,0.8,0.7c0.9-0.1,1.9-0.6,2.3-1.1
		C183.6,187.6,184.8,184.4,182.1,182z M182.1,182c-2.4-2.2-8.8-2.4-11.7-2.4c-0.8,0-1.8,0.4-2.3,1c-0.4,0.5-0.1,0.8,0.6,0.8
		c2.6,0,8.3,0.2,10.3,2c2.4,2.2,1.2,4.9,0.5,6.3c-0.3,0.4,0.1,0.7,0.8,0.7c0.9-0.1,1.9-0.6,2.3-1.1
		C183.6,187.6,184.8,184.4,182.1,182z"/>
</g>
</svg>
