<?xml version="1.0" encoding="utf-8"?>
<!-- Generator: Adobe Illustrator 21.1.0, SVG Export Plug-In . SVG Version: 6.00 Build 0)  -->
<svg version="1.1" id="Layer_6" xmlns="http://www.w3.org/2000/svg" xmlns:xlink="http://www.w3.org/1999/xlink" x="0px" y="0px"
	 viewBox="0 0 512 512" style="enable-background:new 0 0 512 512;" xml:space="preserve">
<path d="M340.4,360.4l-2.6-10.8c-16.2,7.3-32.3,12-48.5,14.3l0.7,3.5c1.4,7.9,5.5,14.9,11.5,19.7c6,4.7,13,6.7,19.8,5.6
	c3.3-0.6,6.3-1.8,9-3.7c2.7-1.9,5-4.4,6.8-7.4C340.9,375.5,342,367.9,340.4,360.4z M256,0C114.6,0,0,114.6,0,256s114.6,256,256,256
	s256-114.6,256-256S397.4,0,256,0z M332.8,162.9c16.7,0,30.2,16.7,30.2,37.2s-13.6,37.2-30.2,37.2s-30.2-16.7-30.2-37.2
	C302.5,179.6,316,162.9,332.8,162.9z M179.2,162.9c16.7,0,30.2,16.7,30.2,37.2s-13.6,37.2-30.2,37.2S149,220.8,149,200.2
	C148.9,179.6,162.4,162.9,179.2,162.9z M363,336.3l-0.2,0.1c-1.8,1.1-3.6,2.1-5.4,3.2l4.1,16.9c2.9,13.7,0.8,27.3-5.8,38.5
	c-6.7,11.3-17.3,18.6-29.7,20.7c-2.3,0.4-4.7,0.6-7.1,0.6c-1.6,0-3.2-0.1-4.8-0.3c-8.7-1-17.3-4.6-24.7-10.5
	c-10.8-8.6-18.1-21-20.6-34.9l-1-5c-34.1,0.5-68.9-9.3-106.3-27.8c-7-3.8-9.4-12.6-5.4-19.5c3.9-6.7,12.5-8.9,19.3-5
	c67.2,32.4,126.9,31,173.2-1.1C364.5,302.6,379.1,326.7,363,336.3z M337.8,349.6c-16.2,7.3-32.3,12-48.5,14.3l0.7,3.5
	c1.4,7.9,5.5,14.9,11.5,19.7c6,4.7,13,6.7,19.8,5.6c3.3-0.6,6.3-1.8,9-3.7c2.7-1.9,5-4.4,6.8-7.4c3.6-6.1,4.8-13.6,3.2-21.2
	L337.8,349.6z"/>
</svg>
