<?xml version="1.0" encoding="utf-8"?>
<!-- Generator: Adobe Illustrator 21.1.0, SVG Export Plug-In . SVG Version: 6.00 Build 0)  -->
<svg version="1.1" id="fill" xmlns="http://www.w3.org/2000/svg" xmlns:xlink="http://www.w3.org/1999/xlink" x="0px" y="0px"
	 viewBox="0 0 396.7 512" style="enable-background:new 0 0 396.7 512;" xml:space="preserve">
<style type="text/css">
	.st0{fill-rule:evenodd;clip-rule:evenodd;}
</style>
<path class="st0" d="M306.9,512l-13.2-125.9l-9.3-1.9l-0.2-11.5l-20.6-5.7c-1.5-9.5-5.5-36-5.6-44.7c-0.2-10.7-1.8-36.6-1.8-36.6
	s4.5-3.9,4.4-7.5c0-3.6-2.3-28.1-2.4-33.3c-0.1-5.2,3.8-9.8,3.7-13c0-3.2-2.8-37.2-4-55c-1.2-17.8-4.3-51.1-4.3-51.1
	s11.8-2.9,23.3-6c11.5-3.1,44.5-7,49.4-7.6c4.9-0.6,10.2-9,13.3-15.4c3.1-6.4,2.3-12.1,4.2-14.8c1.9-2.7,8.6-2.1,14.5-2.2
	c5.9-0.1,25.5-7,28.2-8c2.7-1,3.2-2.3,3.2-2.3s3.2-0.5,4.4-1c1.2-0.5,0.5-2.7,0.5-2.7s2.2-0.3,1.9-2.7c-0.3-2.5-3.2-1.7-3.2-1.7
	s-0.8-2-3-1.7c-2.2,0.3-12.5,1.9-12.5,1.9s0-0.5,1.4-2.2c1.5-1.7,0-2.2-4.5-1.9c-4.4,0.3-9.9,2.5-15,2.6c-5.1,0.1-9.6,5.2-12.1,6.5
	c-2.5,1.3-4.2,1.7-4.2-0.4c0-2.1-3.3,2.2-13.4,4.4c-10.1,2.2-16-0.2-27.8,0c-11.8,0.2-10.5,2.7-15.1,2.7c-4.6,0.1-13.1-2.8-29.2-7.2
	c-16.1-4.4-36.3-7.9-36.3-7.9s-0.5-7.6-0.6-12.6c-0.1-5-1.6-23.9-3-32.3c-1.4-8.4-6.9-13.4-15.8-13.2c-18,0.1-17.5,21.7-18.1,33.6
	c-0.6,11.9-2,24.2-2,24.2s-1.2-1.2-2.6-0.8c-1.4,0.4-6.3,2.1-6.3,2.1s-1.2-1.2-4.2-0.1c-3,1-7.3,1.1-7.3,1.1s-1-0.4-5.4,0.1
	c-4.4,0.5-14.5,3-20.6,3.1c-6.2,0.1-13.7,0.6-15.7,2c-2,1.4-8.5,3.3-8.5,3.3s-7.7,0.5-15.9,0.6c-8.1,0.1-19.2,1.3-25.4,1.4
	c-6.2,0.1-12.1-1.6-15.3-2.2C52,67.9,53,70,53,70s-1.2,0-3.2-0.1c-2-0.2-3-2.3-4.8-3.9c-1.8-1.6-7.2-3.1-9.2-3.6
	c-2-0.6-6.9,0.3-9.9-0.1c-3-0.4-7.4-1.1-8.5,0.3c-1.2,1.4,2.4,4.3,2.4,4.3s-3.2,0.2-5.4,0.3c-2.2,0-6.2-0.5-8.7-0.1
	c-2.6,0.4-2.4,1-2.4,1s-1.6-0.4-3,1.4c-1.4,1.8,1.8,3.7,1.8,3.7S1.4,73.7,3,74.9c1.6,1.2,4.2,1.3,4.2,1.3s0,1,2.6,1.7
	c2.6,0.8,17,4.1,24.1,4.6c7.1,0.5,20.1-0.3,22.1,1c2,1.3,14.3,23.8,20.5,28.9c6.2,5.1,25.3,2.2,34.7,2.1
	c9.4-0.1,37.1,11.8,37.1,11.8s1.7,2.9-0.1,13.6c-1.8,10.7-1.5,32.7-1.4,37.6c0.1,4.9,5.2,4.5,5.2,4.5s0.4,1.9,0.4,6.1
	c0.1,4.2,3.3,4.5,3.3,4.5s-0.1,18.8-0.3,26.6c-0.2,7.8,4.1,12.2,4.1,12.2s-0.5,57.6-1.5,77.4c-0.8,16-4.4,48.6-5.7,60.4l-18.1,5.6
	l0.2,11.5l-9.2,2.2L115.9,512H306.9z"/>
</svg>
