<?xml version="1.0" encoding="utf-8"?>
<!-- Generator: Adobe Illustrator 21.1.0, SVG Export Plug-In . SVG Version: 6.00 Build 0)  -->
<svg version="1.1" id="Layer_4" xmlns="http://www.w3.org/2000/svg" xmlns:xlink="http://www.w3.org/1999/xlink" x="0px" y="0px"
	 viewBox="0 0 490.2 512" style="enable-background:new 0 0 490.2 512;" xml:space="preserve">
<g>
	<path d="M490.2,455.9l-79.6-76.8h67.3l-84.8-81.9h50.2l-69.2-66.8H414L248.8,82c0.9-0.9,1.4-2.2,1.4-3.6c0-2.8-2.3-5.1-5.1-5.1
		s-5.1,2.3-5.1,5.1c0,1.3,0.5,2.4,1.2,3.3L76.3,230.5h39.6l-69,66.8h50l-84.6,81.9h67.1L0,455.9h214.5V512h61.3v-56.1H490.2z"/>
	<path d="M227.8,42.9l-2.7,23.4l19.7-13.9l19.7,13.9l-2.7-23.4l22.5-9.5l-22.5-9.6l2.7-23.4l-19.7,13.9L225.2,0.4l2.7,23.4
		l-22.1,9.6L227.8,42.9z M236.6,19.6l8.3,6.2l8.6-6.2l-1.5,10l9.6,3.8l-9.5,3.7l1.2,10.1L245,41l-8.1,6.4l1.5-10.2l-9.6-3.8l9.2-3.8
		L236.6,19.6z"/>
</g>
</svg>
