<?xml version="1.0" encoding="utf-8"?>
<!-- Generator: Adobe Illustrator 22.0.1, SVG Export Plug-In . SVG Version: 6.00 Build 0)  -->
<svg version="1.1" id="Layer_1" xmlns="http://www.w3.org/2000/svg" xmlns:xlink="http://www.w3.org/1999/xlink" x="0px" y="0px"
	 viewBox="0 0 557.6 512" style="enable-background:new 0 0 557.6 512;" xml:space="preserve">
<g>
	<path d="M437.5,270.1C430.3,364,351.8,438,256,438c-100.5,0-182-81.5-182-182S155.5,74,256,74c20.7,0,40.7,3.5,59.2,9.9l38.6-64.5
		C323.7,6.9,290.6,0,256,0C114.6,0,0,114.6,0,256s114.6,256,256,256c136.7,0,248.3-107,255.6-241.9H437.5z"/>
	<path d="M541.4,70.2L541.4,70.2L310.1,342.7l-1,1c-1.8,1.8-4.3,4.4-7.8,6.3c-6,3.3-12.5,4.9-18.9,4.9c-13.4,0-26.4-6.8-33.9-18.8
		l-89.3-112.4l-0.5-0.8c-5.3-9.2-6.8-19.8-4-29.9c2.7-9.9,9.2-18.1,18.1-23.1c18.2-10.1,41.5-3.9,52.5,13.8l63.3,73.6l199.4-242
		c0,0,0,0,0,0l0.1-0.1C495.8,5.4,506.9,0,519.6,0c23.6,0,37.9,19.3,38,37.9C557.6,51,544.5,66.7,541.4,70.2z"/>
</g>
</svg>
