<?xml version="1.0" encoding="utf-8"?>
<!-- Generator: Adobe Illustrator 21.1.0, SVG Export Plug-In . SVG Version: 6.00 Build 0)  -->
<svg version="1.1" id="Layer_1" xmlns="http://www.w3.org/2000/svg" xmlns:xlink="http://www.w3.org/1999/xlink" x="0px" y="0px"
	 viewBox="0 0 512 512" style="enable-background:new 0 0 512 512;" xml:space="preserve">
<g id="_x35_2">
	<path d="M256,0C114.6,0,0,114.6,0,256s114.6,256,256,256s256-114.6,256-256S397.4,0,256,0z M247,372c-14.4,0-26-11.6-26-26
		s11.6-26,26-26s26,11.6,26,26S261.4,372,247,372z M302.8,209c-3.8,10.8-10.3,23.3-19.2,37.1c-8.5,13.1-14.2,22.8-17,29
		c-2.6,5.5-3.9,10.8-3.9,15.5c0,0.3,0.1,1.2,0.5,4c0.6,4.2,0.7,5.1,0.7,5.7c0,5.7-6.4,7.8-10.6,9.2l-4.5,1.5l-2.5-4
		c-6.5-10.4-9.8-21.7-9.8-33.6c0-9.7,2.9-21.6,8.7-36.5c5.4-13.8,8.9-23.9,10.4-30.3c1.5-6.1,2.3-12.9,2.3-20.2
		c0-5.8-0.4-10.8-1.2-14.8c-1.4-6.7-1.5-7.9-1.5-8.8c0-5.2,4.5-8.6,19.2-14.8c15.3-6.5,18.3-7,20.2-7c7.4,0,10.1,9.3,11.2,13.3
		c1.8,6.4,2.8,13.8,2.8,21.8C308.6,186.9,306.6,198,302.8,209z"/>
</g>
</svg>
