<?xml version="1.0" encoding="utf-8"?>
<!-- Generator: Adobe Illustrator 21.1.0, SVG Export Plug-In . SVG Version: 6.00 Build 0)  -->
<svg version="1.1" id="Layer_1" xmlns="http://www.w3.org/2000/svg" xmlns:xlink="http://www.w3.org/1999/xlink" x="0px" y="0px"
	 viewBox="0 0 512 512" style="enable-background:new 0 0 512 512;" xml:space="preserve">
<path d="M418.5,503h-23.6l-9.4,9H428L418.5,503z M439.3,218v-93h-18.9v-19h-83.7v43h83.7v23h-83.7v18h84.7v22h-84.7v21h64.7v125
	h84.7v154H512V218H439.3z M449.7,323.2h-30v-30h30V323.2z M449.7,282.2h-30v-30h30V282.2z M493.7,323.2h-30v-30h30V323.2z
	 M493.7,282.2h-30v-30h30V282.2z M336.7,243v115h55.8V243H336.7z M362.4,503h-23.6l-9.4,9h42.5L362.4,503z M308.8,427v85h18.9v-47
	h45.8v47h11v-47h45.8v47h17.9v-85H308.8z M172.7,503h-23.6l-9.4,9h42.5L172.7,503z M124.5,243v115h57.8V243H124.5z M116.6,503H93
	l-9.4,9H126L116.6,503z M63.8,427v85h17.9v-47h45.8v47h11v-47h45.8v47h18.9v-85H63.8z M327.7,381V90h-19.9V73h-14.7L260.7,1
	l-33.9,71h-15.7l-0.5,18h-17.9l-0.5,291H35.4l-0.5,36.9V512h17.9v-94h159.4v94h87.7v-94h158.4v94h18.9V381H327.7z M292.9,505h-72.7
	v-4h72.7V505z M292.9,495h-72.7v-4h72.7V495z M292.9,485h-72.7v-4h72.7V485z M292.9,475h-72.7v-4h72.7V475z M292.9,465h-72.7v-4
	h72.7V465z M292.9,455h-72.7v-4h72.7V455z M292.9,445h-72.7v-4h72.7V445z M292.9,435h-72.7v-4h72.7V435z M292.9,425h-72.7v-4h72.7
	V425z M308.4,377.3h-96v-30h96V377.3z M308.4,322.3h-96v-30h96V322.3z M308.4,267.3h-96v-30h96V267.3z M308.4,212.3h-96v-30h96
	V212.3z M308.4,157.3h-96v-30h96V157.3z M94.6,190h87.1l-0.5-18H94.6v-23h86.7v-43H94.6v19H75.7v93H0v294h26.9V358h87.6V233h66.7
	v-21H94.6V190z M50.1,323.2h-30v-30h30V323.2z M50.1,282.2h-30v-30h30V282.2z M94.1,323.2h-30v-30h30V323.2z M94.1,282.2h-30v-30h30
	V282.2z"/>
</svg>
