<?xml version="1.0" encoding="utf-8"?>
<!-- Generator: Adobe Illustrator 21.1.0, SVG Export Plug-In . SVG Version: 6.00 Build 0)  -->
<svg version="1.1" id="Layer_1" xmlns="http://www.w3.org/2000/svg" xmlns:xlink="http://www.w3.org/1999/xlink" x="0px" y="0px"
	 viewBox="0 0 524.3 512" style="enable-background:new 0 0 524.3 512;" xml:space="preserve">
<path d="M286.6,132.4c-24.5-24.4-24.9-24.5-49.4,0.1L68.7,280v231.3l387.5-0.1V280L286.6,132.4z M336.3,379.3h-51.8v51.8h-44v-51.8
	h-51.8v-44h51.8v-51.8h44v51.8h51.8V379.3z M286.6,12c-6.4-7.3-14.7-11-25-11c-9.6,0-17.8,3.7-24.4,11C219.3,29.7,0,228.4,0,228.4
	l36.8,36.7c0,0,215.7-196.8,217.3-198.2c8.1-7.9,8.1-7.8,15.9,0c1.6,1.6,216.2,196.2,216.2,196.2l38.1-34.7
	C524.3,228.4,336.5,61.1,286.6,12z"/>
</svg>
