<?xml version="1.0" encoding="utf-8"?>
<!-- Generator: Adobe Illustrator 21.1.0, SVG Export Plug-In . SVG Version: 6.00 Build 0)  -->
<svg version="1.1" id="Layer_1" xmlns="http://www.w3.org/2000/svg" xmlns:xlink="http://www.w3.org/1999/xlink" x="0px" y="0px"
	 viewBox="0 0 408 512" style="enable-background:new 0 0 408 512;" xml:space="preserve">
<g>
	<path d="M277.3,69.4l-12.1-14.2c-3-31-29.1-55.2-60.9-55.2c-31.8,0-57.9,24.2-60.9,55.2l-12.2,14.3L0,69.7V512h408V69.3L277.3,69.4
		z M204.3,24.3c6.1,0,11.1,5,11.1,11.1s-5,11.1-11.1,11.1c-6.1,0-11.1-5-11.1-11.1S198.3,24.3,204.3,24.3z M386.6,487.7H22.5V106
		c0,0,57.9,0,77.3,0l-14.6,17.6c-6.7,8.1-1,20.4,9.6,20.4l219.7-0.1c10.9-0.1,16-13.3,8.4-21.2L307,106c16.7,0,79.6,0,79.6,0V487.7z
		"/>
	<path d="M345.3,121.1c13.3,21-4.1,41.6-17.7,41.6c-29.1,0-221.3,0-250.4,0c-13.6,0-31.1-20.6-17.6-41.6h-22v351.5h333.9V121.1
		H345.3z M130.6,422H85.5v-40.8h45.1V422z M130.6,338.1H85.5v-40.8h45.1V338.1z M130.6,254.1H85.5v-40.7h45.1V254.1z M321.2,422
		H157.8v-40.8h163.4V422z M321.2,338.1H157.8v-40.8h163.4V338.1z M321.2,254.1H157.8v-40.7h163.4V254.1z"/>
</g>
</svg>
