<?xml version="1.0" encoding="utf-8"?>
<!-- Generator: Adobe Illustrator 21.1.0, SVG Export Plug-In . SVG Version: 6.00 Build 0)  -->
<svg version="1.1" id="Layer_1" xmlns="http://www.w3.org/2000/svg" xmlns:xlink="http://www.w3.org/1999/xlink" x="0px" y="0px"
	 viewBox="0 0 408 512" style="enable-background:new 0 0 408 512;" xml:space="preserve">
<g>
	<path d="M277.3,69.4l-12.1-14.2c-3-31-29.1-55.2-60.9-55.2s-57.9,24.2-60.9,55.2l-12.2,14.3L0,69.7V512h408V69.3L277.3,69.4z
		 M204.3,24.3c6.1,0,11.1,5,11.1,11.1s-5,11.1-11.1,11.1s-11.1-5-11.1-11.1S198.2,24.3,204.3,24.3z M386.6,487.7H22.5V106
		c0,0,57.9,0,77.3,0l-14.6,17.6c-6.7,8.1-1,20.4,9.6,20.4l219.7-0.1c10.9-0.1,16-13.3,8.4-21.2L307,106c16.7,0,79.6,0,79.6,0V487.7z
		"/>
	<path d="M345.3,121.1c13.3,21-4.1,41.6-17.7,41.6H77.2c-13.6,0-31.1-20.6-17.6-41.6h-22v351.5h333.9V121.1H345.3z M204,437.9
		c0,0-103.9,2.9-103.9-38.5c0-29.2,30.3-39.9,43.4-45c13.1-5.1,26.8-10.1,26.8-10.1c0,0.3,1.3-4.7,7.9-10.9v-9
		c0,0-5.2-5.7-10.8-15.1c-5.6-9.3-11.6-22.3-13.2-36.7c-0.1-1.1-9.5-64,49.9-64.1c59.2,0,49.6,63,49.4,64c-3.1,28.7-24,51.7-24,51.7
		v8.6c2.2,2.1,8.1,8,7.4,11.3c0,0,16.1,5.6,29.1,11.8c13,6.3,41.6,12.5,41.6,43.6C307.7,441.4,204,437.9,204,437.9z"/>
</g>
</svg>
