<?xml version="1.0" encoding="utf-8"?>
<!-- Generator: Adobe Illustrator 21.1.0, SVG Export Plug-In . SVG Version: 6.00 Build 0)  -->
<svg version="1.1" id="Layer_1" xmlns="http://www.w3.org/2000/svg" xmlns:xlink="http://www.w3.org/1999/xlink" x="0px" y="0px"
	 viewBox="0 0 408 512" style="enable-background:new 0 0 408 512;" xml:space="preserve">
<g>
	<path d="M345.3,121.1c13.3,21.1-4.1,41.9-17.7,41.9c-29.1,0-104.1-1-122.7-1c-18.8,0-98.6,1-127.7,1c-13.6,0-31.1-20.7-17.6-41.9
		h-22v351.5h333.9V121.1H345.3z M300.1,263.8L186.5,413.7c-1.6,1.6-3.1,3.3-5.1,4.4c-11.2,6.2-25.6,2.2-32.1-9l-50.4-70.8
		c-6.5-11.3-2.8-25.4,8.3-31.6c11.2-6.2,25.6-2.2,32.1,9l36.6,47.2l94-133.4c0.7-0.8,6.3-9.6,19.3-9.6c14.1,0,22.5,11.1,22.6,22.6
		C311.8,250.1,300.7,263.2,300.1,263.8z M345.3,121.1c13.3,21.1-4.1,41.9-17.7,41.9c-29.1,0-104.1-1-122.7-1c-18.8,0-98.6,1-127.7,1
		c-13.6,0-31.1-20.7-17.6-41.9h-22v351.5h333.9V121.1H345.3z M300.1,263.8L186.5,413.7c-1.6,1.6-3.1,3.3-5.1,4.4
		c-11.2,6.2-25.6,2.2-32.1-9l-50.4-70.8c-6.5-11.3-2.8-25.4,8.3-31.6c11.2-6.2,25.6-2.2,32.1,9l36.6,47.2l94-133.4
		c0.7-0.8,6.3-9.6,19.3-9.6c14.1,0,22.5,11.1,22.6,22.6C311.8,250.1,300.7,263.2,300.1,263.8z"/>
	<path d="M277.3,69.4l-12.1-14.2c-3-31-29.1-55.2-60.9-55.2c-31.8,0-57.9,24.2-60.9,55.2l-12.2,14.3L0,69.7V512h408V69.3L277.3,69.4
		z M204.3,24.3c6.1,0,11.1,5,11.1,11.1s-5,11.1-11.1,11.1c-6.1,0-11.1-5-11.1-11.1S198.3,24.3,204.3,24.3z M386.6,487.7H22.5V106
		c0,0,57.9,0,77.3,0l-14.6,17.6c-6.7,8.1-1,20.4,9.6,20.4l219.7-0.1c10.9-0.1,16-13.3,8.4-21.2L307,106c16.7,0,79.6,0,79.6,0V487.7z
		"/>
</g>
</svg>
