<?xml version="1.0" encoding="utf-8"?>
<!-- Generator: Adobe Illustrator 22.0.1, SVG Export Plug-In . SVG Version: 6.00 Build 0)  -->
<svg version="1.1" id="Layer_2_1_" xmlns="http://www.w3.org/2000/svg" xmlns:xlink="http://www.w3.org/1999/xlink" x="0px" y="0px"
	 viewBox="0 0 453.5 512" style="enable-background:new 0 0 453.5 512;" xml:space="preserve">
<path d="M417.8,163l25.8-25.8c4.2-4.3,4.2-11.1,0-15.4l-25.4-25.4c-4.3-4.3-11.1-4.3-15.4,0l-22.3,22.3
	c-35.6-32.8-81.7-54.4-132.6-59.1V43.1h44V27.7c0-15.3-12.4-27.6-27.6-27.6h-72.9c-15.3,0-27.6,12.4-27.6,27.6v15.4h41.8v16.4
	C90.3,70,0,167.2,0,285.3C0,410.5,101.5,512,226.7,512s226.8-101.5,226.8-226.8C453.5,240.2,440.4,198.3,417.8,163z M305.3,320.9
	c0,5.1-4.2,9.3-9.4,9.3h-85.6c-7.8,0-14.1-6.3-14-14.1l0.2-121.1c0-5.1,4.2-9.3,9.4-9.3h30.8c5.1,0,9.4,4.2,9.4,9.4v84.8h49.8
	c5.1,0,9.4,4.2,9.4,9.4V320.9z"/>
</svg>
