<?xml version="1.0" encoding="utf-8"?>
<!-- Generator: Adobe Illustrator 21.1.0, SVG Export Plug-In . SVG Version: 6.00 Build 0)  -->
<svg version="1.1" id="Layer_4" xmlns="http://www.w3.org/2000/svg" xmlns:xlink="http://www.w3.org/1999/xlink" x="0px" y="0px"
	 viewBox="0 0 512 512" style="enable-background:new 0 0 512 512;" xml:space="preserve">
<path d="M69.7,249.9c-0.9,0-1.5,0.7-1.5,1.8c0,0.7,0.3,2.2,2.6,2.2c0.8,0,1.2-0.1,1.2-1.1C72.1,251.2,70.9,249.9,69.7,249.9z
	 M255.8,442.1c-0.8,0-1.2,0.1-1.2,1.1c0,1.7,1.2,3,2.4,3c0.9,0,1.5-0.7,1.5-1.8C258.4,443.7,258.2,442.1,255.8,442.1z M255.8,442.1
	c-0.8,0-1.2,0.1-1.2,1.1c0,1.7,1.2,3,2.4,3c0.9,0,1.5-0.7,1.5-1.8C258.4,443.7,258.2,442.1,255.8,442.1z M69.7,249.9
	c-0.9,0-1.5,0.7-1.5,1.8c0,0.7,0.3,2.2,2.6,2.2c0.8,0,1.2-0.1,1.2-1.1C72.1,251.2,70.9,249.9,69.7,249.9z M69.7,249.9
	c-0.9,0-1.5,0.7-1.5,1.8c0,0.7,0.3,2.2,2.6,2.2c0.8,0,1.2-0.1,1.2-1.1C72.1,251.2,70.9,249.9,69.7,249.9z M255.8,442.1
	c-0.8,0-1.2,0.1-1.2,1.1c0,1.7,1.2,3,2.4,3c0.9,0,1.5-0.7,1.5-1.8C258.4,443.7,258.2,442.1,255.8,442.1z M255.8,442.1
	c-0.8,0-1.2,0.1-1.2,1.1c0,1.7,1.2,3,2.4,3c0.9,0,1.5-0.7,1.5-1.8C258.4,443.7,258.2,442.1,255.8,442.1z M69.7,249.9
	c-0.9,0-1.5,0.7-1.5,1.8c0,0.7,0.3,2.2,2.6,2.2c0.8,0,1.2-0.1,1.2-1.1C72.1,251.2,70.9,249.9,69.7,249.9z M256,0
	C114.6,0,0,114.6,0,256s114.6,256,256,256s256-114.6,256-256S397.4,0,256,0z M256.1,78.7c0-7.8,8.4-9.3,8.4-11.4
	c0-1.2-1-1.5-1.5-1.5c-0.5,0-1.1,0.2-1.6,0.6c-0.8,0.8-1.7,1.2-2.7,0.4l-1.4-1.1c-1-0.8-1.2-1.6-0.5-2.5c1.1-1.5,3.2-3.1,6.7-3.1
	c3.2,0,7.4,1.7,7.4,6.6c0,6.3-7.8,7.7-8.1,9.4h6.5c1.3,0,1.9,0.7,1.9,1.9v1.5c0,1.2-0.7,1.9-1.9,1.9h-11.3c-1.2,0-2-0.7-2-1.9V78.7z
	 M241.1,64.6l3.5-3.3c0.7-0.7,1.4-0.9,2.3-0.9h2c1.2,0,1.9,0.6,1.9,1.9v13.8h2.5c1.3,0,1.9,0.7,1.9,1.9v1.5c0,1.2-0.6,1.9-1.9,1.9
	h-11c-1.3,0-1.9-0.7-1.9-1.9V78c0-1.2,0.6-1.9,1.9-1.9h2.5v-6.5c0-0.8,0.1-1.7,0.1-1.7h-0.1c0,0-0.3,0.4-0.5,0.6
	c-0.7,0.7-1.7,0.7-2.5-0.2l-0.9-1C240.1,66.4,240.2,65.5,241.1,64.6z M68,266c-1,0-2.3-0.1-3.1-0.3c-1.2-0.4-1.5-1.3-1.2-2.4
	l0.5-1.7c0.4-1.4,1.1-1.5,2.2-1.3c0.5,0.1,0.7,0.1,1.1,0.1c2.1,0,3.2-0.8,3.9-2.4h-0.1c0,0-1,0.5-2.7,0.5c-4.2,0-6.5-3.4-6.5-6.6
	c0-3.4,2.4-7.6,7.3-7.6c4.1,0,8.8,2.9,8.8,9.8C78.3,260.5,74.6,266,68,266z M257.1,451.6c-4.1,0-8.8-2.9-8.8-9.8
	c0-6.2,3.8-11.7,10.3-11.7c1,0,2.3,0.1,3,0.3c1.2,0.3,1.5,1.2,1.2,2.4l-0.5,1.7c-0.4,1.4-1.1,1.4-2.2,1.3c-0.5-0.1-0.7-0.1-1.1-0.1
	c-2.1,0-3.2,0.8-3.9,2.3h0.1c0,0,1-0.6,2.7-0.6c4.2,0,6.5,3.4,6.5,6.6C264.4,447.4,262,451.6,257.1,451.6z M334.1,295.5h-85.3
	c-8.8,0-15.9-7.1-15.8-15.9l0.2-125.4c0-5.8,4.7-10.5,10.6-10.5h23.5c5.8,0,10.6,4.7,10.6,10.6V250h56.2c5.8,0,10.6,4.7,10.6,10.6
	v24.4C344.7,290.8,340,295.5,334.1,295.5z M441.7,266.7c-2.8,0-4.7-0.8-6-1.6c-0.9-0.7-1-1.6-0.4-2.6l0.9-1.5
	c0.6-1.1,1.5-1.2,2.6-0.5c0.8,0.3,1.6,0.5,2.4,0.5c1.7,0,2.4-0.6,2.4-1.4c0-1.1-0.9-1.5-2.6-1.5h-0.8c-1,0-1.5-0.3-2-1.3l-0.2-0.3
	c-0.4-0.8-0.2-1.6,0.5-2.5l0.9-1.2c1.1-1.4,2-2.2,2-2.2v-0.1c0,0-0.7,0.2-2.1,0.2h-2.1c-1.3,0-1.9-0.7-1.9-1.9v-1.5
	c0-1.3,0.6-1.9,1.9-1.9h9.7c1.2,0,1.9,0.7,1.9,1.9v0.5c0,1-0.2,1.6-0.8,2.4l-2.9,3.3c3.3,0.8,4.8,3.4,4.8,5.8
	C449.8,263,447.4,266.7,441.7,266.7z M255.8,442.1c-0.8,0-1.2,0.1-1.2,1.1c0,1.7,1.2,3,2.4,3c0.9,0,1.5-0.7,1.5-1.8
	C258.4,443.7,258.2,442.1,255.8,442.1z M69.7,249.9c-0.9,0-1.5,0.7-1.5,1.8c0,0.7,0.3,2.2,2.6,2.2c0.8,0,1.2-0.1,1.2-1.1
	C72.1,251.2,70.9,249.9,69.7,249.9z M69.7,249.9c-0.9,0-1.5,0.7-1.5,1.8c0,0.7,0.3,2.2,2.6,2.2c0.8,0,1.2-0.1,1.2-1.1
	C72.1,251.2,70.9,249.9,69.7,249.9z M255.8,442.1c-0.8,0-1.2,0.1-1.2,1.1c0,1.7,1.2,3,2.4,3c0.9,0,1.5-0.7,1.5-1.8
	C258.4,443.7,258.2,442.1,255.8,442.1z M255.8,442.1c-0.8,0-1.2,0.1-1.2,1.1c0,1.7,1.2,3,2.4,3c0.9,0,1.5-0.7,1.5-1.8
	C258.4,443.7,258.2,442.1,255.8,442.1z M69.7,249.9c-0.9,0-1.5,0.7-1.5,1.8c0,0.7,0.3,2.2,2.6,2.2c0.8,0,1.2-0.1,1.2-1.1
	C72.1,251.2,70.9,249.9,69.7,249.9z M255.8,442.1c-0.8,0-1.2,0.1-1.2,1.1c0,1.7,1.2,3,2.4,3c0.9,0,1.5-0.7,1.5-1.8
	C258.4,443.7,258.2,442.1,255.8,442.1z M255.8,442.1c-0.8,0-1.2,0.1-1.2,1.1c0,1.7,1.2,3,2.4,3c0.9,0,1.5-0.7,1.5-1.8
	C258.4,443.7,258.2,442.1,255.8,442.1z"/>
</svg>
