<?xml version="1.0" encoding="utf-8"?>
<!-- Generator: Adobe Illustrator 21.1.0, SVG Export Plug-In . SVG Version: 6.00 Build 0)  -->
<svg version="1.1" id="Layer_4" xmlns="http://www.w3.org/2000/svg" xmlns:xlink="http://www.w3.org/1999/xlink" x="0px" y="0px"
	 viewBox="0 0 512 512" style="enable-background:new 0 0 512 512;" xml:space="preserve">
<path d="M512,170.7H346.2V0l0,0H0.7H0.4l0.3,341.3v0.4h166V512h345.4L512,170.7z M73.3,72h200.1v197.7H73.3V72z M405.4,440
	l-139.6-98.3h64.8l108.7,76.5V440H405.4z M346.1,338.1v-3l0,0v-41.7l93.2,65.7v44.8L346.1,338.1z M346.2,278.7v-35.9h13.1l80.2,56.5
	v45.1L346.2,278.7z M379.9,242.8h59.5v41.9L379.9,242.8z M239.9,395.4l63.4,44.6h-63.4V395.4z M239.9,380.8v-39.1h5.4L384.9,440h-61
	L239.9,380.8z"/>
</svg>
