<?xml version="1.0" encoding="utf-8"?>
<!-- Generator: Adobe Illustrator 22.0.1, SVG Export Plug-In . SVG Version: 6.00 Build 0)  -->
<svg version="1.1" id="Layer_4" xmlns="http://www.w3.org/2000/svg" xmlns:xlink="http://www.w3.org/1999/xlink" x="0px" y="0px"
	 viewBox="0 0 512 512" style="enable-background:new 0 0 512 512;" xml:space="preserve">
<g id="solid">
	<g>
		<path d="M42.1,267.8c18.6-39.2,53.9-67.4,95.4-75.9l16.3-3.4c17.6-17.2,37.9-31,60.5-40.9c25.8-11.3,53.3-17,81.7-17
			c23.4,0,46.4,3.9,68.3,11.7c7.6,2.7,15,5.8,22.2,9.4C365.7,66.2,288.5,2.5,196.4,2.5C88.3,2.5,0.7,90.2,0.7,198.3
			c0,28.7,6.2,55.8,17.2,80.4C25.6,274.3,33.7,270.7,42.1,267.8z"/>
	</g>
	<g>
		<path d="M445,304.6c-4.5-1.1-9.1-1.8-14-2.1c-21.7-1.6-38.4,8.7-39.4,9.3c0.9-0.9,12.9-13.5,38.4-14.2c4.3-0.2,8.5,0.1,12.7,0.7
			c-15.9-67.8-77.1-118.2-150.2-118.2c-44.4,0-84.3,18.5-112.4,48.1c7,1.7,14.1,4.5,19.9,9.6c13.2,11.4,12.8,26.2,12.8,26.2
			s-3.3-15-15.7-22.9c-10-6.3-20.6-7.8-28.8-7.6h-0.1c-3.8,0.2-7.6,0.6-11.2,1.2c-1.8,0.4-2.8,0.7-2.8,0.7v-0.2
			c-30.2,6.2-55.3,27.6-67.5,56.4c7.9-0.1,16.7,1,24.5,4.6c17.9,8.3,23.3,26.5,23.4,27c-0.4-0.5-9.1-13.5-26.7-20.2
			c-7.7-2.9-16.1-3.8-24.1-3.5c-0.1,0.2-0.1,0.3-0.2,0.5C36.1,309,0,352.8,0,405.1c0,59.2,45.8,107.1,102.5,107.1l307.1,0.1
			c28.3,0,53.9-12,72.4-31.5c18.5-19.3,30-46.1,30-75.7C511.9,358.9,484,319.6,445,304.6z"/>
	</g>
</g>
</svg>
