<?xml version="1.0" encoding="utf-8"?>
<!-- Generator: Adobe Illustrator 21.1.0, SVG Export Plug-In . SVG Version: 6.00 Build 0)  -->
<svg version="1.1" id="Layer_1" focusable="false" xmlns="http://www.w3.org/2000/svg" xmlns:xlink="http://www.w3.org/1999/xlink"
	 x="0px" y="0px" viewBox="0 0 640 512" style="enable-background:new 0 0 640 512;" xml:space="preserve">
<g>
	<path d="M237.9,64.4c-12.8,9.3-24.5,20.2-34.9,32.4c-15.8-21.4-41.2-35.3-69.9-35.3c-48,0-87,39-87,87c0,18.8,5.9,36.1,16,50.3
		c-14.1,6.2-27,15.1-38.2,26.2c-18.2-26.3-26.5-58.5-23-90.7C8.8,61.1,75,7.8,148.4,15.8C184,19.7,215.9,37.3,237.9,64.4z"/>
	<path d="M558,218.3c-5.6-1.5-11.4-2.4-17.6-2.9c-27.2-2.2-48.2,11.8-49.4,12.6c1.1-1.2,16.2-18.3,48.2-19.3
		c5.4-0.3,10.7,0.1,15.9,0.9C535.2,117.5,458.4,49,366.7,49C311,49,261,74.2,225.8,114.4c8.8,2.3,17.7,6.1,25,13
		c16.6,15.5,16,35.6,16,35.6s-4.2-20.4-19.7-31.1c-12.5-8.6-25.8-10.6-36.1-10.4h-0.1c-4.8,0.3-9.5,0.8-14,1.6h-0.1
		c-2.3,0.5-3.5,0.9-3.5,0.9v-0.3c-37.9,8.5-69.4,37.6-84.6,76.8c9.9-0.1,21,1.3,30.7,6.2c22.4,11.3,29.2,36,29.3,36.8
		c-0.5-0.7-11.4-18.3-33.5-27.5c-9.6-4-20.2-5.2-30.2-4.8c-0.1,0.3-0.1,0.4-0.2,0.7C45.2,224.2,0,283.7,0,354.9
		c0,80.5,57.5,145.7,128.5,145.7l385.1,0.1c35.5,0,67.6-16.3,90.8-42.8c23.2-26.3,37.6-62.7,37.6-103
		C641.9,292.3,606.9,238.8,558,218.3z"/>
</g>
</svg>
