<?xml version="1.0" encoding="utf-8"?>
<!-- Generator: Adobe Illustrator 22.0.1, SVG Export Plug-In . SVG Version: 6.00 Build 0)  -->
<svg version="1.1" id="Layer_1" focusable="false" xmlns="http://www.w3.org/2000/svg" xmlns:xlink="http://www.w3.org/1999/xlink"
	 x="0px" y="0px" viewBox="0 0 512 512" style="enable-background:new 0 0 512 512;" xml:space="preserve">
<g id="solid_1_">
	<rect x="171.8" y="-0.7" width="47.3" height="68.7"/>
	<rect y="171.1" width="68.7" height="47.3"/>
	<path d="M391,171.1v7.3c-4.1-2.6-8.4-5-12.7-7.3H391z"/>
	<rect x="91.3" y="20.9" transform="matrix(0.866 -0.5 0.5 0.866 -12.2104 64.8845)" width="47.3" height="68.7"/>
	<rect x="32.2" y="79.8" transform="matrix(0.5 -0.866 0.866 0.5 -70.8985 105.4934)" width="47.3" height="68.7"/>
	<rect x="300.7" y="90.5" transform="matrix(0.866 -0.5 0.5 0.866 -12.1904 182.8113)" width="68.7" height="47.3"/>
	<path d="M79.3,247c-7.1,8.3-13.1,17.7-17.9,27.8c-12.4,4.2-24.2,10.3-34.9,18l-12-20.8l59.5-34.4L79.3,247z"/>
	<rect x="241.8" y="31.6" transform="matrix(0.5 -0.866 0.866 0.5 90.2296 266.7411)" width="68.7" height="47.3"/>
	<path d="M287.5,150.2c-24.1,0.6-47.4,5.8-69.4,15.4c-20.6,9-39.1,21.5-55.1,37.2l-14.9,3.1c-18.1,3.7-34.9,11.5-49.3,22.6
		c-3.6-10.5-5.6-21.8-5.6-33.5c0-56.5,45.8-102.3,102.3-102.3C236,92.6,270.9,116.1,287.5,150.2z"/>
	<path d="M445,304.6c-4.5-1.1-9.1-1.8-14-2.1c-21.7-1.6-38.4,8.7-39.4,9.3c0.9-0.9,12.9-13.5,38.4-14.2c4.3-0.2,8.5,0.1,12.7,0.7
		c-15.9-67.8-77.1-118.2-150.2-118.2c-44.4,0-84.3,18.5-112.4,48.1c7,1.7,14.1,4.5,19.9,9.6c13.2,11.4,12.8,26.2,12.8,26.2
		s-3.3-15-15.7-22.9c-10-6.3-20.6-7.8-28.8-7.6h-0.1c-3.8,0.2-7.6,0.6-11.2,1.2l0,0c-1.8,0.4-2.8,0.7-2.8,0.7v-0.2
		c-30.2,6.2-55.3,27.6-67.5,56.4c7.9-0.1,16.7,1,24.5,4.6c17.9,8.3,23.3,26.5,23.4,27c-0.4-0.5-9.1-13.5-26.7-20.2
		c-7.7-2.9-16.1-3.8-24.1-3.5c-0.1,0.2-0.1,0.3-0.2,0.5C36.1,309,0,352.8,0,405.1c0,59.2,45.8,107.1,102.5,107.1l307.1,0.1
		c28.3,0,53.9-12,72.4-31.5c18.5-19.3,30-46.1,30-75.7C511.9,358.9,484,319.6,445,304.6z"/>
</g>
</svg>
