<?xml version="1.0" encoding="utf-8"?>
<!-- Generator: Adobe Illustrator 22.0.1, SVG Export Plug-In . SVG Version: 6.00 Build 0)  -->
<svg version="1.1" id="Layer_1" focusable="false" xmlns="http://www.w3.org/2000/svg" xmlns:xlink="http://www.w3.org/1999/xlink"
	 x="0px" y="0px" viewBox="0 0 576 512" style="enable-background:new 0 0 576 512;" xml:space="preserve">
<g>
	<path d="M296.3,460h-52.3V334.4l165-168.6c13.8-14.1,3.8-37.8-15.9-37.8H22.9C3.2,128-6.7,151.7,7,165.8l165,168.6V460h-52.3
		C105,460,93,472,93,486.8V512h230.1v-25.2C323.1,472,311.1,460,296.3,460z"/>
	<path d="M440.7,0c-53.4,0-99.7,31-121.6,76h63.2c15-14.8,35.7-24,58.4-24c45.9,0,83.3,37.4,83.3,83.3c0,45.9-37.3,83.3-83.3,83.3
		c-3,0-5.9-0.2-8.8-0.5l-40,43.4c15.1,5.9,31.6,9.1,48.8,9.1c74.7,0,135.3-60.6,135.3-135.3S515.4,0,440.7,0z"/>
</g>
</svg>
