<?xml version="1.0" encoding="utf-8"?>
<!-- Generator: Adobe Illustrator 21.1.0, SVG Export Plug-In . SVG Version: 6.00 Build 0)  -->
<svg version="1.1" id="Layer_5" xmlns="http://www.w3.org/2000/svg" xmlns:xlink="http://www.w3.org/1999/xlink" x="0px" y="0px"
	 viewBox="0 0 487 512" style="enable-background:new 0 0 487 512;" xml:space="preserve">
<g>
	<path d="M192,372.9h-54.4c-18.3,0-33.1-14.9-33.1-33.1V173.2C129,161.8,146,136.9,146,108c0-39.8-32.2-72-72-72S2,68.2,2,108
		c0,28.6,16.7,53.3,40.8,64.9v166.9c0,52.2,42.5,94.7,94.7,94.7H192v77.4l108.2-108.2L192,295.6V372.9z M74,65.7
		c23.4,0,42.3,18.9,42.3,42.3c0,23.4-18.9,42.3-42.3,42.3S31.7,131.4,31.7,108C31.7,84.6,50.6,65.7,74,65.7z"/>
	<path d="M445.4,338.7v-167c0-52.2-42.5-94.7-94.7-94.7h-54.4V-0.4L188.1,107.8L296.3,216v-77.4h54.4c18.3,0,33.1,14.9,33.1,33.1
		v167.4C359.7,350.7,343,375.4,343,404c0,39.8,32.2,72,72,72s72-32.2,72-72C487,375.1,470,350.2,445.4,338.7z M415,446.3
		c-23.4,0-42.3-18.9-42.3-42.3c0-23.4,18.9-42.3,42.3-42.3s42.3,18.9,42.3,42.3C457.3,427.4,438.4,446.3,415,446.3z"/>
	<path d="M74,122c-7.7,0-14-6.3-14-14c0-7.7,6.3-14,14-14s14,6.3,14,14C88,115.7,81.7,122,74,122z"/>
	<path d="M415,418c-7.7,0-14-6.3-14-14c0-7.7,6.3-14,14-14s14,6.3,14,14C429,411.7,422.7,418,415,418z"/>
</g>
</svg>
