<?xml version="1.0" encoding="utf-8"?>
<!-- Generator: Adobe Illustrator 21.1.0, SVG Export Plug-In . SVG Version: 6.00 Build 0)  -->
<svg version="1.1" id="Layer_4" xmlns="http://www.w3.org/2000/svg" xmlns:xlink="http://www.w3.org/1999/xlink" x="0px" y="0px"
	 viewBox="0 0 381.4 512" style="enable-background:new 0 0 381.4 512;" xml:space="preserve">
<g>
	<path d="M288.3,138c0.4,72.4-35.9,80-94.7,92.4c-28.5,6-62.8,13.2-91.5,32.1V137.4C126.8,126,144,101,144,72c0-39.8-32.2-72-72-72
		S0,32.2,0,72c0,28.7,16.8,53.5,41.2,65.1v238.8C16.8,387.5,0,412.3,0,441c0,39.8,32.2,72,72,72s72-32.2,72-72
		c0-28.5-16.6-53.2-40.7-64.8c3.2-29.5,13.1-49.3,30.9-61.9c18.2-12.9,43.1-18.1,71.9-24.2C267,277.3,349.8,259.8,349,136.5
		L288.3,138z M72,29.7c23.4,0,42.3,18.9,42.3,42.3S95.4,114.3,72,114.3S29.7,95.4,29.7,72S48.6,29.7,72,29.7z M72,483.3
		c-23.4,0-42.3-18.9-42.3-42.3s18.9-42.3,42.3-42.3s42.3,18.9,42.3,42.3S95.4,483.3,72,483.3z"/>
	<path d="M72,86c-7.7,0-14-6.3-14-14s6.3-14,14-14s14,6.3,14,14S79.7,86,72,86z"/>
	<path d="M72,455c-7.7,0-14-6.3-14-14s6.3-14,14-14s14,6.3,14,14S79.7,455,72,455z"/>
	<polygon points="351.3,1 321.2,31.1 291.2,1 261.1,31.1 291.2,61.2 261.1,91.2 291.2,121.3 321.2,91.2 351.3,121.3 381.4,91.2 
		351.3,61.2 381.4,31.1 	"/>
</g>
</svg>
