<?xml version="1.0" encoding="utf-8"?>
<!-- Generator: Adobe Illustrator 21.1.0, SVG Export Plug-In . SVG Version: 6.00 Build 0)  -->
<svg version="1.1" id="Layer_2" xmlns="http://www.w3.org/2000/svg" xmlns:xlink="http://www.w3.org/1999/xlink" x="0px" y="0px"
	 viewBox="0 0 144 512" style="enable-background:new 0 0 144 512;" xml:space="preserve">
<g>
	<circle cx="72" cy="255.5" r="14"/>
	<path d="M72,183.5c-39.8,0-72,32.2-72,72s32.2,72,72,72s72-32.2,72-72S111.8,183.5,72,183.5z M72,297.8
		c-23.4,0-42.3-18.9-42.3-42.3c0-23.4,18.9-42.3,42.3-42.3s42.3,18.9,42.3,42.3C114.3,278.9,95.4,297.8,72,297.8z"/>
	<path d="M102.7,0H40.6v160.7h62.7C103.2,105.1,102.9,50.3,102.7,0z"/>
	<path d="M40.6,350.4v160.7h62.7c-0.2-55.6-0.4-110.4-0.6-160.7H40.6z"/>
</g>
</svg>
