<?xml version="1.0" encoding="utf-8"?>
<!-- Generator: Adobe Illustrator 21.1.0, SVG Export Plug-In . SVG Version: 6.00 Build 0)  -->
<svg version="1.1" id="Layer_4" xmlns="http://www.w3.org/2000/svg" xmlns:xlink="http://www.w3.org/1999/xlink" x="0px" y="0px"
	 viewBox="0 0 373 512" style="enable-background:new 0 0 373 512;" xml:space="preserve">
<g>
	<path d="M287.5,156.6c-5.7,55.3-40.5,62.6-93.9,73.8c-28.5,6-62.8,13.2-91.5,32.1V137.4C126.8,126,144,101,144,72
		c0-39.8-32.2-72-72-72S0,32.2,0,72c0,28.7,16.8,53.5,41.2,65.1v238.8C16.8,387.5,0,412.3,0,441c0,39.8,32.2,72,72,72s72-32.2,72-72
		c0-28.5-16.6-53.2-40.7-64.8c3.2-29.5,13.1-49.3,30.9-61.9c18.2-12.9,43.1-18.1,71.9-24.2c57.4-12.1,134.3-28.3,142.2-133.5H287.5z
		 M29.7,72c0-23.4,18.9-42.3,42.3-42.3s42.3,18.9,42.3,42.3S95.4,114.3,72,114.3S29.7,95.4,29.7,72z M114.3,441
		c0,23.4-18.9,42.3-42.3,42.3S29.7,464.4,29.7,441s18.9-42.3,42.3-42.3S114.3,417.6,114.3,441z"/>
	<path d="M72,86c-7.7,0-14-6.3-14-14s6.3-14,14-14s14,6.3,14,14S79.7,86,72,86z"/>
	<path d="M72,455c-7.7,0-14-6.3-14-14s6.3-14,14-14s14,6.3,14,14S79.7,455,72,455z"/>
	<path d="M371.2,50.2h-16.7v-19c0-17.2-13.9-31.1-31.1-31.1l0,0c-17.2,0-31.1,13.9-31.1,31.1v19h-16.5l-1.7,1.5v72.7H373V51.6
		L371.2,50.2z M304.8,31.1c0-10.2,8.3-18.5,18.5-18.5s18.5,8.3,18.5,18.5v19h-37.1v-19H304.8z"/>
</g>
</svg>
