<?xml version="1.0" encoding="utf-8"?>
<!-- Generator: Adobe Illustrator 21.1.0, SVG Export Plug-In . SVG Version: 6.00 Build 0)  -->
<svg version="1.1" id="Layer_1" xmlns="http://www.w3.org/2000/svg" xmlns:xlink="http://www.w3.org/1999/xlink" x="0px" y="0px"
	 viewBox="0 0 512 512" style="enable-background:new 0 0 512 512;" xml:space="preserve">
<g id="_x35_2">
	<path d="M491.6,194.5l-28.4-7.6c-12.4-3.3-18.2-17.5-11.8-28.6l14.7-25.4c6.2-10.8,4.4-24.4-4.4-33.2l-49.4-49.4
		c-8.8-8.8-22.4-10.6-33.2-4.4l-25.4,14.7c-11.1,6.4-25.3,0.5-28.6-11.8l-7.6-28.4C314.3,8.4,303.4,0,290.9,0h-69.8
		c-12.5,0-23.4,8.4-26.6,20.4l-7.6,28.4c-3.3,12.4-17.5,18.2-28.6,11.8l-25.4-14.7c-10.8-6.2-24.4-4.4-33.2,4.4L50.3,99.7
		c-8.8,8.8-10.6,22.4-4.4,33.2l14.7,25.4c6.4,11.1,0.5,25.3-11.8,28.6l-28.4,7.6C8.4,197.7,0,208.6,0,221.1v69.8
		c0,12.5,8.4,23.4,20.4,26.6l28.4,7.6c12.4,3.3,18.2,17.5,11.8,28.6l-14.7,25.4c-6.2,10.8-4.4,24.4,4.4,33.2l49.4,49.4
		c8.8,8.8,22.4,10.6,33.2,4.4l25.4-14.7c11.1-6.4,25.3-0.5,28.6,11.8l7.6,28.4c3.2,12,14.1,20.4,26.6,20.4h69.8
		c12.5,0,23.4-8.4,26.6-20.4l7.6-28.4c3.3-12.4,17.5-18.2,28.6-11.8l25.4,14.7c10.8,6.2,24.4,4.4,33.2-4.4l49.4-49.4
		c8.8-8.8,10.6-22.4,4.4-33.2l-14.7-25.4c-6.4-11.1-0.5-25.3,11.8-28.6l28.4-7.6c12-3.2,20.4-14.1,20.4-26.6v-69.8
		C512,208.6,503.6,197.7,491.6,194.5z M255,408.5c-84.3,0-152.6-68.3-152.6-152.6S170.7,103.3,255,103.3S407.6,171.7,407.6,256
		C407.6,340.2,339.3,408.5,255,408.5z"/>
	<path d="M256,155.4c-55.5,0-100.6,45-100.6,100.6c0,55.5,45,100.6,100.6,100.6c55.5,0,100.6-45,100.6-100.6S311.5,155.4,256,155.4z
		 M256,305c-27.1,0-49-21.9-49-49s21.9-49,49-49s49,21.9,49,49C305,283,283.1,305,256,305z"/>
</g>
</svg>
