<?xml version="1.0" encoding="utf-8"?>
<!-- Generator: Adobe Illustrator 21.1.0, SVG Export Plug-In . SVG Version: 6.00 Build 0)  -->
<svg version="1.1" id="Layer_1" xmlns="http://www.w3.org/2000/svg" xmlns:xlink="http://www.w3.org/1999/xlink" x="0px" y="0px"
	 viewBox="0 0 512 512" style="enable-background:new 0 0 512 512;" xml:space="preserve">
<g>
	<path d="M341,310.5l-23.1-5c-2.6-0.6-5.1-0.2-7.2,0.8c-3.6-15.6-9.9-30.3-18.3-43.4c2.3-0.8,4.5-2.4,5.9-4.7l12.8-19.9
		c3-4.6,2.3-10.6-1.5-14.5l-21.4-21.4c-3.9-3.9-9.9-4.5-14.5-1.5l-19.9,12.8c-2.4,1.6-4,3.8-4.8,6.4c-13.2-8.3-28-14.4-43.7-17.8
		c1.4-2.4,1.9-5.2,1.3-8.2l-5-23.1c-1.2-5.3-5.9-9.2-11.4-9.2H160c-5.5,0-10.2,3.8-11.4,9.2l-5,23.1c-0.7,3.1,0,6.1,1.4,8.5
		c-15.8,3.6-30.5,9.9-43.7,18.3c-0.6-2.8-2.3-5.5-5-7.2l-19.9-12.8c-4.6-3-10.6-2.3-14.5,1.5l-21.4,21.4c-3.9,3.9-4.5,9.9-1.5,14.5
		l12.8,19.9c1.8,2.7,4.4,4.4,7.3,5c-8.4,13.2-14.7,28-18.2,43.8c-2.5-1.6-5.5-2.2-8.6-1.5l-23.1,5c-5.3,1.2-9.2,5.9-9.2,11.4V352
		c0,5.5,3.8,10.2,9.2,11.4l23.1,5c3,0.7,6,0.1,8.4-1.4c3.4,15.8,9.5,30.5,17.8,43.8c-2.6,0.7-5,2.4-6.7,4.9l-12.8,19.9
		c-3,4.6-2.3,10.6,1.5,14.5L62,471.4c3.9,3.9,9.9,4.5,14.5,1.5l19.9-12.8c2.4-1.5,4-3.8,4.8-6.3c13.1,8.4,27.7,14.7,43.4,18.3
		c-1.1,2.2-1.5,4.8-0.9,7.5l5,23.1c1.1,5.3,5.9,9.2,11.4,9.2h30.2c5.5,0,10.2-3.8,11.4-9.2l5-23.1c0.5-2.5,0.2-5-0.7-7.2
		c15.7-3.5,30.4-9.6,43.5-17.8c0.8,2.1,2.4,4.1,4.5,5.4l19.9,12.8c4.6,3,10.6,2.3,14.5-1.5l21.4-21.4c3.9-3.9,4.5-9.9,1.5-14.5
		l-12.8-19.9c-1.4-2.1-3.3-3.6-5.4-4.4c8.3-13.2,14.5-27.8,18-43.5c2.1,0.9,4.5,1.2,7,0.7l23.1-5c5.3-1.1,9.2-5.9,9.2-11.4v-30.2
		C350.1,316.3,346.3,311.6,341,310.5z M175.9,393.2c-30.8,0-55.7-24.9-55.7-55.7c0-30.8,24.9-55.7,55.7-55.7
		c30.8,0,55.7,24.9,55.7,55.7C231.6,368.2,206.6,393.2,175.9,393.2z"/>
	<path d="M508.3,152.4l-14.3-9.9c-1.6-1.1-3.4-1.6-5.1-1.5c1.9-11.6,1.8-23.3-0.3-34.6c1.8,0.1,3.7-0.4,5.3-1.5l14.3-9.9
		c3.3-2.3,4.6-6.6,3-10.3l-8.5-20.5c-1.5-3.7-5.5-5.8-9.4-5.1l-17.1,3.2c-2.1,0.4-3.8,1.5-5,3c-6.7-9.3-15-17.6-24.7-24.3
		c1.6-1.2,2.8-3,3.1-5.2l3.1-17.1c0.7-4-1.4-7.9-5.1-9.4l-20.5-8.5c-3.7-1.5-8-0.3-10.3,3L406.8,18c-1.3,1.9-1.7,4.1-1.4,6.2
		c-11.7-2-23.5-1.8-34.8,0.2c0.4-2.1,0-4.4-1.4-6.3l-9.9-14.3c-2.3-3.3-6.6-4.6-10.3-3l-20.5,8.5c-3.7,1.5-5.8,5.5-5.1,9.4l3.1,17.1
		c0.4,2.3,1.8,4.2,3.5,5.5c-9.4,6.6-17.8,14.9-24.7,24.6c-1.2-1.7-3.1-3-5.4-3.5l-17.1-3.1c-4-0.7-7.9,1.4-9.4,5.1l-8.5,20.5
		c-1.5,3.7-0.3,8,3.1,10.3l14.3,9.9c1.9,1.3,4.1,1.7,6.1,1.4c-2.1,11.7-2.1,23.4-0.2,34.8c-2-0.3-4.1,0.2-5.9,1.4l-14.3,9.9
		c-3.3,2.3-4.6,6.6-3,10.3l8.5,20.5c1.5,3.7,5.5,5.8,9.4,5.1l17.1-3.1c2.1-0.4,3.8-1.4,5-2.9c6.6,9.4,14.7,17.8,24.4,24.6
		c-1.4,1.2-2.3,2.9-2.7,4.8l-3.1,17.1c-0.7,4,1.4,7.9,5.1,9.4l20.5,8.5c3.7,1.5,8,0.3,10.3-3l9.9-14.3c1.1-1.6,1.6-3.3,1.5-5.1
		c11.6,2,23.3,2,34.6,0.1c0,1.7,0.5,3.4,1.5,5l9.9,14.3c2.3,3.3,6.6,4.6,10.3,3l20.5-8.5c3.7-1.5,5.8-5.5,5.1-9.4l-3.1-17.1
		c-0.3-1.8-1.2-3.4-2.4-4.5c9.3-6.6,17.6-14.9,24.4-24.5c1.2,1.2,2.7,2.1,4.6,2.4l17.1,3.1c4,0.7,7.9-1.4,9.4-5.1l8.5-20.5
		C512.9,158.9,511.6,154.7,508.3,152.4z M426.4,140.1c-8.6,20.9-32.6,30.9-53.5,22.2c-20.9-8.6-30.9-32.6-22.2-53.5
		c8.6-20.9,32.6-30.9,53.5-22.2C425,95.2,435,119.2,426.4,140.1z"/>
</g>
</svg>
