<?xml version="1.0" encoding="utf-8"?>
<!-- Generator: Adobe Illustrator 21.1.0, SVG Export Plug-In . SVG Version: 6.00 Build 0)  -->
<svg version="1.1" id="_x33_2" xmlns="http://www.w3.org/2000/svg" xmlns:xlink="http://www.w3.org/1999/xlink" x="0px" y="0px"
	 viewBox="0 0 556.4 512" style="enable-background:new 0 0 556.4 512;" xml:space="preserve">
<g id="fill_1_">
	<path d="M201.2,107.2c-0.6,2.8,4.6,4.7,15.8,6l1.1-13.2c-4.3,0.4-8,1.1-10.9,1.9C203.3,103.2,201.6,105,201.2,107.2z"/>
	<path d="M228.1,126.6l-1.7,14.1c5-0.2,9.2-0.9,12.5-2.1c3.8-1.2,5.6-3,5.8-5.5C244.8,130.3,239.4,128.1,228.1,126.6z"/>
	<path d="M321.5,84.3c-25.7-10-61.7-16.3-101.5-16.3c-39.7,0-75.5,6.4-101.2,16.3c-25.7,10-40.6,23.3-40.6,37.3
		c0,14,15,27.4,40.6,37.4c25.7,10,61.5,16.2,101.2,16.2c39.8,0,75.8-6.3,101.5-16.2c25.7-10,40.6-23.4,40.6-37.4
		C362.1,107.6,347.2,94.2,321.5,84.3z M268.4,131.2c-0.3,6-4.8,10.9-13.7,14.2c-7,2.6-16.1,4.7-29,5.2l-0.8,7.2l-12.5,0.2l0.1-7.4
		c-11.6-0.2-20.5-1.5-27.4-4.3c-7.8-3.3-11.2-7.9-11.6-14.1l23.3-0.5c0.3,3.2,2.9,5.7,7.1,6.9c3,1.1,6.1,1.6,9.7,1.7l1.3-15.7
		l-0.7-0.2l-0.7-0.2c-0.7-0.2-0.5,0.1-1.2-0.1c0.2,0.3-0.5,0.1-1.1,0.1c-10.9-0.8-18.6-2.2-23-3.7c-3.5-1-6.9-2.8-8.9-5.1
		c-1.8-2-2.1-4.4-1.9-7.7c0.5-5.8,4.8-10.1,12.7-13.1c6.5-2.6,15.7-4.3,28-5l0.8-7.2l0.7,0.2c3.4-0.1,6,0.5,8.5,1.6
		c2.6,1.4,3.4,2.7,3.2,4.3l0.2,1.3c10.7,0.5,19,1.9,25.9,4.7c7.1,3.1,10.3,7.4,10.4,13.1l-13.6,0.3c-5,0.2-8.5-0.8-10.6-3.3
		c-1.2-1-2.2-1.7-4.6-2.8c-2.8-0.8-4.7-1.2-7.2-1.4l-1.5,14.4c3.7,0.4,6.9,0.9,9.9,1.2c3.2,0.5,5,0.6,6.9,0.9c3.2,0.5,6.4,1,9.2,1.8
		c4,1,7.5,2.8,9.8,4.7C267.7,125.5,268.8,128.1,268.4,131.2z"/>
	<path d="M555.9,174c-2.5-34-27.7-64.5-71.3-86c-19.8-9.8-42.7-17.4-68.3-22.7c-11.8-13.1-27.9-24.7-47.8-34.5
		C328.4,10.9,275.6,0,220,0v0C164.5,0,111.9,10.9,71.8,30.7C44,44.5,23.7,61.9,12,81.5l-2.4,4.4c-5,9.6-8,19.7-8.9,30.2
		C0.3,118,0,120,0,121.9l0,73.3c0,26.8,14.1,51.9,40.2,72.3c-2.1,2.8-4,5.6-5.7,8.5l-2.5,4.4c-5,9.6-8,19.6-8.8,29.9
		c-0.5,2.1-0.8,4.4-0.7,6.6v72.9c0,36.2,25.5,68.7,71.8,91.5c40.2,19.8,93,30.7,148.5,30.7c55.5,0,108.2-10.9,148.4-30.7
		c46.2-22.8,71.6-55.3,71.6-91.5v-36.4c8-3,15.3-6.1,22-9.3c46.2-22.8,71.6-55.3,71.6-91.5v-72.6C556.4,177.9,556.2,175.9,555.9,174
		z M94.9,79c32.7-16.2,78.3-25.4,125.1-25.4c47,0,92.7,9.3,125.4,25.4c26.2,12.9,41.8,29.1,41.8,43.3c0,14.3-15.6,30.5-41.8,43.5
		c-32.5,16-78.2,25.2-125.4,25.2c-47,0-92.6-9.2-125.1-25.2c-26.2-13-41.9-29.2-41.9-43.5C53,108.1,68.7,91.9,94.9,79z M55.1,204.8
		c5.2,3.2,10.8,6.3,16.7,9.2c40.1,19.8,92.7,30.7,148.2,30.7c55.6,0,108.4-10.9,148.5-30.7c6-2.9,11.6-6,16.8-9.3
		c-5.1,11.7-19.2,23.9-39.7,34c-32.5,16-78.2,25.3-125.3,25.3c-47.1,0-92.9-9.2-125.5-25.3C74.6,228.7,60.4,216.4,55.1,204.8z
		 M87.4,293.8c1.7,0.7,3.4,1.3,5.1,2c-2,4.1-3,8.4-3,12.6c0,17.1,16.5,33.5,44.7,45.6s67.7,19.8,111.3,19.8c14,0,27.6-0.8,40.5-2.2
		c13.9,1.7,28.2,2.7,42.8,3c-26,7-55.8,10.8-86.2,10.8c-47,0-92.6-9.2-125.1-25.2c-26.2-13-41.9-29.2-41.9-43.5
		C75.5,309.6,79.7,301.6,87.4,293.8z M368.1,433.1c-32.8,16.2-78.4,25.4-125.3,25.4c-46.9,0-92.6-9.3-125.5-25.4
		c-20.6-10.1-34.6-22.2-39.8-33.8c5.2,3.2,10.8,6.3,16.7,9.2c39.9,19.7,92.5,30.6,148.2,30.6c55.9,0,108.6-10.9,148.5-30.6l4-2
		c4.3-2.1,8.3-4.1,12.2-6.1C401.7,411.6,387.9,423.3,368.1,433.1z M461.8,295.9c-5.4,2.7-11.2,5.2-17.3,7.4l-12.2,4.2
		c-28.2,8.8-61.7,13.6-95.9,13.6c-23.5,0-46.6-2.3-67.9-6.5l7.1-0.8l0.6-0.1c19.4-2.7,38-6.7,55.2-12.1c1.5,0,3.1,0.1,4.8,0.1
		c55.8,0,108.5-10.9,148.4-30.6c6-3,11.7-6.1,17.1-9.4C496.6,273.5,482.5,285.7,461.8,295.9z M461.7,222.9
		c-9.8,4.8-20.8,9.1-32.7,12.6c2.6-4.5,4.8-9.1,6.5-13.8c6.3-1.9,12.1-3.9,17.5-6.3c21.8-9.5,34.4-22.3,34.4-35.6
		c0-13.3-12.6-26-34.4-35.5c-4-1.7-8.3-3.4-12.8-4.9v-12.3c7.7,2.7,14.9,5.8,21.5,9c26.1,12.9,41.7,29.1,41.7,43.3
		C503.3,193.8,487.8,210.1,461.7,222.9z"/>
</g>
<g id="_x35_2">
</g>
</svg>
