<?xml version="1.0" encoding="utf-8"?>
<!-- Generator: Adobe Illustrator 21.1.0, SVG Export Plug-In . SVG Version: 6.00 Build 0)  -->
<svg version="1.1" id="Layer_4" xmlns="http://www.w3.org/2000/svg" xmlns:xlink="http://www.w3.org/1999/xlink" x="0px" y="0px"
	 viewBox="0 0 502.3 512" style="enable-background:new 0 0 502.3 512;" xml:space="preserve">
<g>
	<path d="M244.6,467.3V512c-19.4-0.5-38.9-2.9-58.2-7.4v-44.8C205.7,464.3,225.2,466.7,244.6,467.3z"/>
	<path d="M315.8,459.8v45.7c-19.3,4.5-38.8,5.9-58.2,6.4v-44.8C277.1,466.8,296.5,464.3,315.8,459.8z"/>
	<path d="M173.5,456.5v46.2c-20.6-5.8-40.2-12-58.2-22v-48.3C133.6,442.7,153.2,450.8,173.5,456.5z"/>
	<path d="M32.1,355.2v59.3C11,382.4,0,346.8,0,311v-40.7c0.1,22.2,4.8,27.7,13.8,50.1C18.5,332.3,24.7,344,32.1,355.2z"/>
	<path d="M102.3,424.8v51.7c-22.6-14.5-42.2-28.4-58.2-48.3v-55.3C60.2,392.9,79.8,410.3,102.3,424.8z"/>
	<path d="M386,432.4v49.1c-18,10-37.6,15.4-58.2,21.2v-46.1C348.4,450.7,367.9,442.7,386,432.4z"/>
	<path d="M457.2,372.8v55.8c-16,19.9-35.6,31.6-58.2,46v-49.9C421.6,410.3,441.1,392.9,457.2,372.8z"/>
	<path d="M502.3,271.8v46.9l0,0c0,35.7-11,62.5-32.1,94.6v-58.1c7.3-11.2,13.3-22.8,18.1-34.5c5-12.4,8.6-24.9,10.9-37.3v-0.1l0,0
		C500.3,279.1,502.3,271.8,502.3,271.8z"/>
	<path d="M251,66c-95.8,0-173.5,66.1-173.5,147.6S155.2,361.2,251,361.2c95.8,0,173.5-66.1,173.5-147.6S346.8,66,251,66z
		 M299.7,230.9c-0.3,12-4.9,21.5-13.9,28.2c-7.1,5.2-16.4,9.2-29.6,10.2l-0.8,14.2l-12.8,0.4l0.1-14.6c-11.8-0.4-20.9-2.9-27.9-8.5
		c-7.9-6.5-11.4-15.5-11.8-27.9l23.7-0.9c0.3,6.4,3,11.3,7.3,13.7c3,2.1,6.2,3.1,9.9,3.4l1.3-31.1l-0.7-0.4l-0.7-0.4
		c-0.7-0.4-0.6,0.1-1.3-0.3c0.2,0.5-0.6,0.1-1.1,0.2c-11.1-1.6-19-4.3-23.4-7.2c-3.6-2-7.1-5.6-9.1-10.1c-1.8-4-2.2-8.8-1.9-15.3
		c0.5-11.4,4.8-19.9,12.9-25.8c6.6-5.1,16-8.6,28.5-10l0.8-14.2l0.7,0.4c3.5-0.2,6.2,0.9,8.6,3.1c2.6,2.7,3.4,5.2,3.3,8.5l0.2,2.6
		c10.9,1.1,19.4,3.7,26.4,9.3c7.2,6.1,10.5,14.6,10.6,26l-13.9,0.6c-5.1,0.5-8.7-1.5-10.8-6.5c-1.2-1.9-2.2-3.3-4.7-5.5
		c-2.8-1.6-4.8-2.3-7.4-2.9l-1.5,28.4c3.8,0.9,7,1.8,10.1,2.3c3.2,1,5.1,1.2,7,1.8c3.2,1,6.5,2,9.3,3.5c4.1,1.9,7.6,5.5,10,9.4
		C299.1,219.7,300.2,224.9,299.7,230.9z M258.3,221.8l-1.7,27.9c5.1-0.5,9.4-1.9,12.7-4.2c3.9-2.4,5.7-6,5.9-10.9
		C275.3,229.2,269.8,224.9,258.3,221.8z M230.9,183.5c-0.6,5.5,4.7,9.3,16.1,11.9l1.1-26.1c-4.4,0.9-8.1,2.2-11.1,3.8
		C233,175.5,231.2,179.1,230.9,183.5z"/>
	<path d="M251,0.1C112.4,0.1,0,95.7,0,213.6s112.4,213.5,251,213.5s251-95.6,251-213.5S389.6,0.1,251,0.1z M251,383.6
		c-110.4,0-199.8-76.1-199.8-170s89.5-170,199.8-170c110.4,0,199.8,76.1,199.8,170S361.3,383.6,251,383.6z"/>
</g>
</svg>
