<?xml version="1.0" encoding="utf-8"?>
<!-- Generator: Adobe Illustrator 21.1.0, SVG Export Plug-In . SVG Version: 6.00 Build 0)  -->
<svg version="1.1" id="Layer_1" xmlns="http://www.w3.org/2000/svg" xmlns:xlink="http://www.w3.org/1999/xlink" x="0px" y="0px"
	 viewBox="0 0 561 512" style="enable-background:new 0 0 561 512;" xml:space="preserve">
<path d="M554.2,215.9c0,0-2.1-2.4-8-7.3c-4.6-3.8-11.4-9-21.3-15.9c-6.9-4.8-15.3-10.4-25.5-16.7l-3.4-2.1
	c-7.6-4.7-16.6-8.4-26.4-11.2c-10.7-3.1-22.4-5.2-34.1-6.6c-13.2-1.6-26.4-2.2-38.4-2.4c-18.8-0.3-34.7,0.7-42.7,1.3
	c-3.6,0.3-5.6,0.5-5.6,0.5l-4.9,18.4l-36.4,0.9l-15.1,0.4l-12.3-24.9h-36.8l-31.9-68.7L174,1.1c0,0-1.7,0.4-5.3,1.4
	c-6.3,1.9-18.6,5.9-38.4,14c-6.7,2.7-14.1,5.9-22.6,9.6c-3.8,1.7-7.7,3.6-11.5,5.8C86,37.5,75.9,44.7,66.4,52.5
	c-9.2,7.4-17.9,15.3-25.6,22.7c-8.4,8.2-15.7,15.9-21.2,21.9C12.5,104.9,8.4,110,8.4,110L0,512.3h561L554.2,215.9z M24.3,477.6h-9.4
	v-55c0-3.9,2.4-6.1,4.7-6.3c2.4-0.2,4.7,1.7,4.7,5.7V477.6z M24.3,391.2l-4.7,1.1l-4.7,1.1v-60.6c0-4.3,2.4-7,4.7-7.5
	c2.4-0.5,4.7,1.2,4.7,5.6V391.2z M24.3,310.5l-4.7,2l-4.7,2v-47.4c0-3.5,2.4-6.2,4.7-7.3c2.4-1.1,4.7-0.4,4.7,3V310.5z M47.6,477.8
	H34v-55.6c0-5.9,3.4-9.1,6.8-9.4c3.4-0.3,6.8,2.5,6.8,8.5V477.8z M47.6,386.1l-6.8,1.6l-6.8,1.6v-59.4c0-6.3,3.4-10.2,6.8-10.9
	c3.4-0.7,6.8,1.7,6.8,8V386.1z M47.6,300.7l-6.8,2.9l-6.8,2.9v-47.2c0-5,3.4-9.1,6.8-10.6c3.4-1.6,6.8-0.6,6.8,4.5V300.7z
	 M75.4,478.1h-18v-56.4c0-8,4.5-12.3,9-12.6c4.5-0.3,9,3.4,9,11.6V478.1z M75.4,380.7l-18,3.6v-58.1c0-8.2,4.5-13.2,9-14
	s9,2.5,9,10.7V380.7z M75.4,290.7l-18,6.6v-47.2c0-6.7,4.5-11.8,9-13.6c4.5-1.7,9-0.1,9,6.6V290.7z M107.3,478.3H85.1V421
	c0-10.2,5.5-15.7,11.1-16c5.5-0.3,11.1,4.5,11.1,14.9V478.3z M107.3,375l-11.1,1.9l-11.1,1.9V322c0-10.1,5.5-16,11.1-16.9
	c5.5-0.8,11.1,3.3,11.1,13.4V375z M107.3,280.5L96.2,284l-11.1,3.5v-47.2c0-8.4,5.5-14.5,11.1-16.4c5.5-1.9,11.1,0.4,11.1,8.9V280.5
	z M143.5,478.3h-26.6v-58c0-12.5,6.7-19.1,13.3-19.4c6.7-0.3,13.3,5.7,13.3,18.4V478.3z M143.5,369.7l-13.3,1.9l-13.3,1.9v-55.6
	c0-11.9,6.7-18.7,13.3-19.6c6.7-0.9,13.3,4.2,13.3,16.1V369.7z M143.5,270.9l-13.3,3.4l-13.3,3.4v-47.4c0-10.2,6.7-17.2,13.3-19.1
	c6.7-1.8,13.3,1.4,13.3,11.7V270.9z M184.1,478.1h-30.8v-57.2c0-14.5,7.7-22,15.4-22.3c7.7-0.2,15.4,6.8,15.4,21.5V478.1z
	 M184.1,365.2c-5.1,0.5-10.2,1-15.4,1.6c-5.1,0.5-10.3,1.1-15.4,1.7v-53.2c0-13.5,7.7-20.9,15.4-21.7c7.7-0.8,15.4,5.2,15.4,18.6
	V365.2z M184.1,262.9c-5.1,0.8-10.2,1.8-15.4,2.8c-5.1,1-10.3,2.1-15.4,3.1v-46.4c0-11.8,7.7-19.4,15.4-21.1
	c7.7-1.8,15.4,2.5,15.4,14.4V262.9z M228.9,477.9h-35.2v-55.2c0-16.1,8.8-24.4,17.6-24.6c8.8-0.1,17.6,7.8,17.6,24.1V477.9z
	 M228.9,362c-5.9,0.2-11.8,0.6-17.6,1c-5.9,0.4-11.8,0.8-17.6,1.3v-50.2c0-14.7,8.8-22.6,17.6-23.1c8.8-0.6,17.6,6.2,17.6,20.8V362z
	 M228.9,257.1c-5.9,0.5-11.8,1.1-17.6,1.8c-5.9,0.7-11.8,1.4-17.6,2.3v-44.9c0-13.1,8.8-20.9,17.6-22.2c8.8-1.2,17.6,4.1,17.6,17.4
	V257.1z M278,477.6h-39.4v-53c0-17.6,9.9-26.5,19.7-26.6c9.8,0,19.7,8.7,19.7,26.4V477.6z M278,360c-6.6,0.1-13.1,0.2-19.7,0.4
	c-6.6,0.2-13.1,0.4-19.7,0.6v-47.4c0-15.7,9.9-23.9,19.7-24.1c9.8-0.3,19.7,7.4,19.7,23.1V360z M278,254c-6.6,0.2-13.1,0.4-19.7,0.7
	c-6.6,0.3-13.1,0.6-19.7,1v-43.2c0-14.3,9.9-22.2,19.7-22.8c9.8-0.6,19.7,6,19.7,20.6V254z M327.1,477.5h-39.4v-53.2
	c0-17.7,9.9-26.4,19.7-26.3c9.9,0.1,19.7,9,19.7,26.6V477.5z M327.1,360.9c-6.6-0.3-13.1-0.5-19.7-0.6c-6.6-0.1-13.1-0.2-19.7-0.3
	v-47.4c0-15.8,9.9-23.5,19.7-23.3c9.9,0.2,19.7,8.3,19.7,24.1V360.9z M327.1,256.1c-6.6-0.5-13.1-0.8-19.7-1.1
	c-6.6-0.3-13.1-0.4-19.7-0.6v-44c0-14.7,9.9-21.7,19.7-21.4c9.9,0.3,19.7,7.9,19.7,22.7V256.1z M371.9,478.1h-35.2v-55.8
	c0-16.3,8.8-24.2,17.6-24s17.6,8.5,17.6,24.6V478.1z M371.9,364.1c-5.9-0.5-11.7-0.9-17.6-1.3c-5.9-0.3-11.7-0.7-17.6-1v-50.2
	c0-14.7,8.8-21.5,17.6-21s17.6,8.4,17.6,23.1V364.1z M371.9,261.5c-5.9-0.8-11.7-1.6-17.6-2.3c-5.9-0.7-11.7-1.4-17.6-1.9v-47
	c0-13.7,8.8-19.6,17.6-18.6s17.6,8.8,17.6,22.6V261.5z M412.5,478.3h-30.8v-58c0-14.7,7.7-21.7,15.4-21.4
	c7.7,0.3,15.4,7.9,15.4,22.3V478.3z M412.5,368.2l-15.4-1.6l-15.4-1.6v-53.2c0-13.5,7.7-19.5,15.4-18.8c7.7,0.8,15.4,8.3,15.4,21.8
	V368.2z M412.5,269.1l-15.4-3l-15.4-3v-49.8c0-12.6,7.7-17.4,15.4-15.9c7.7,1.5,15.4,9.3,15.4,21.9V269.1z M448.8,478.3h-26.6v-58.8
	c0-12.7,6.7-18.6,13.3-18.3c6.7,0.3,13.3,6.9,13.3,19.3V478.3z M448.8,373.4l-13.3-1.9l-13.3-1.8V314c0-12,6.7-17.1,13.3-16.3
	c6.7,0.8,13.3,7.7,13.3,19.7V373.4z M448.8,278.1c-4.5-1.1-8.9-2.2-13.3-3.3c-4.5-1.1-8.9-2.2-13.3-3.3v-51.6
	c0-11.1,6.7-14.9,13.3-13.2c6.7,1.7,13.3,9,13.3,20V278.1z M480.7,478.3h-22.2v-58.2c0-10.3,5.5-15.1,11.1-14.8
	c5.5,0.3,11.1,5.7,11.1,15.9V478.3z M480.7,378.8l-11.1-1.9l-11.1-1.9v-56.8c0-10.2,5.5-14.4,11.1-13.5c5.5,0.9,11.1,6.8,11.1,17
	V378.8z M480.7,287.7l-11.1-3.4l-11.1-3.4V229c0-9.2,5.5-12,11.1-10.2c5.5,1.8,11.1,8.2,11.1,17.4V287.7z M508.4,478.2h-18v-57.4
	c0-8.1,4.5-11.9,9-11.6s9,4.6,9,12.6V478.2z M508.4,384.1l-18-3.6v-58c0-8.2,4.5-11.5,9-10.7c4.5,0.9,9,5.8,9,14.1V384.1z
	 M508.4,297.5l-9-3.3l-9-3.2v-52c0-7.3,4.5-9.2,9-7.5c4.5,1.8,9,7.2,9,14.5V297.5z M531.8,477.8h-13.6v-56.4c0-6,3.4-8.7,6.8-8.5
	c3.4,0.2,6.8,3.5,6.8,9.4V477.8z M531.8,389.2l-6.8-1.6l-6.8-1.6v-59.2c0-6.3,3.4-8.7,6.8-8c3.4,0.8,6.8,4.7,6.8,11V389.2z
	 M531.8,306.6l-6.8-2.8l-6.8-2.9v-52c0-5.5,3.4-6.7,6.8-5.2c3.4,1.6,6.8,5.9,6.8,11.4V306.6z M550.9,477.6h-9.4V422
	c0-4,2.3-5.9,4.7-5.7c2.3,0.2,4.7,2.3,4.7,6.3V477.6z M550.9,393.4l-4.7-1.1l-4.7-1.1v-60.4c0-4.3,2.3-6,4.7-5.5
	c2.3,0.5,4.7,3.2,4.7,7.6V393.4z M550.9,314.5l-9.4-4v-51.9c0-3.8,2.3-4.6,4.7-3.5c2.3,1,4.7,4,4.7,7.7V314.5z"/>
</svg>
