<?xml version="1.0" encoding="utf-8"?>
<!-- Generator: Adobe Illustrator 22.0.1, SVG Export Plug-In . SVG Version: 6.00 Build 0)  -->
<svg version="1.1" id="Layer_3" xmlns="http://www.w3.org/2000/svg" xmlns:xlink="http://www.w3.org/1999/xlink" x="0px" y="0px"
	 viewBox="0 0 512 512" style="enable-background:new 0 0 512 512;" xml:space="preserve">
<path d="M478.6-0.7H33.1C14.8-0.7,0,14.1,0,32.4v315c0,18.3,14.8,33.1,33.1,33.1h50.2l-11.4,95.2c-3.6,29.9,32.3,47.7,54,26.9
	l126.8-122h226c18.3,0,33.1-14.8,33.1-33.1v-315C511.8,14.1,496.9-0.7,478.6-0.7z M266.1,294.5v11.8h-21.6v-11.7
	c-31-2.4-58.6-23.2-58.6-63h37.7c0,17.6,7.5,27.9,20.8,31.7v-64.8c-38-16.2-55-36.2-55-61.7c0-29.5,24.8-53.1,55-53.1v-9.1H266v9.2
	c26.4,1.7,58.1,16.5,58.1,56.3h-37.7c-1.7-16-8.5-24.7-20.3-25.9V165l20.8,9.2c33.8,16.2,46.5,35.7,46.5,61.5
	C333.4,269.8,304.8,294.5,266.1,294.5z M266.1,207.7v56.8c15.3,0,30.1-9.5,30.1-25.2C296.1,225.8,286.2,215.3,266.1,207.7z
	 M227.3,132.2c0,8.5,5.7,16,17.3,23v-41C233,116.3,227.3,122.3,227.3,132.2z"/>
</svg>
