<?xml version="1.0" encoding="utf-8"?>
<!-- Generator: Adobe Illustrator 21.1.0, SVG Export Plug-In . SVG Version: 6.00 Build 0)  -->
<svg version="1.1" id="Layer_2" xmlns="http://www.w3.org/2000/svg" xmlns:xlink="http://www.w3.org/1999/xlink" x="0px" y="0px"
	 viewBox="0 0 520 512" style="enable-background:new 0 0 520 512;" xml:space="preserve">
<path d="M260,0C116.4,0,0,102.5,0,228.9c0,62.4,28.4,119,74.4,160.3C97.5,409.9,54.3,512,54.3,512s153.5-57.5,182-55.2
	c7.8,0.6,15.7,0.9,23.7,0.9c143.6,0,260-102.5,260-228.9C520,102.5,403.6,0,260,0z M260.5,373.8c-19.4,0-35.1-15.6-35.1-34.9
	c0-19.3,15.7-34.9,35.1-34.9c19.4,0,35,15.7,35.1,34.9C295.6,358.2,279.9,373.8,260.5,373.8z M286.9,214.8
	c-6,35.8-9.2,56.6-9.3,61.7c0,7.3-0.5,10.2-2.2,12.2c-2.4,2.7-6.2,3.1-8.9,3.1h-12.3c-2.9,0-6.6-0.4-8.8-3c-1.7-1.9-2.2-4.6-2.2-11
	c0-3.6-1.6-19.7-13-88.3c-9.9-63.3-9.9-67.5-9.9-69c0-10.2,3.8-19.1,11.1-26.1c7.3-7.2,17.5-10.8,30.3-10.8
	c12.6,0,22.4,3.9,29.1,11.7c6.6,7.6,10,16.5,10,26.6C300.8,124.3,300.8,131.7,286.9,214.8z"/>
</svg>
