<?xml version="1.0" encoding="utf-8"?>
<!-- Generator: Adobe Illustrator 21.1.0, SVG Export Plug-In . SVG Version: 6.00 Build 0)  -->
<svg version="1.1" id="Layer_1" xmlns="http://www.w3.org/2000/svg" xmlns:xlink="http://www.w3.org/1999/xlink" x="0px" y="0px"
	 viewBox="0 0 637.4 512" style="enable-background:new 0 0 637.4 512;" xml:space="preserve">
<g id="fill">
	<path d="M380,422.8c-19.9,4.8-40.6,7.3-61.3,7.3c-8.8,0-17.2-0.7-24.5-1.2c-5.7-0.5-10.5-0.8-14.8-0.8s-7.9,0.4-11.2,1.2
		c-18.6,4.6-64.9,16.6-100.5,25.9c4.2-20,8.5-39.8,9.5-44.1l3.6-17.4L167,382.4c-25-20.5-43.1-41.5-54.9-64
		c-11.8-22.4-17.5-46.2-17.5-73c0-14.3,1.8-28.2,5.3-41.6l-24.5-19.1c-6.3,18.9-9.7,39.2-9.7,60.6c0,63.4,28.1,114.4,83.1,159.5
		c-2,9.2-19.3,90.3-19.3,90.3s114.1-29.9,145.7-37.6c1-0.3,2.5-0.4,4.2-0.4c7.9,0,22.5,2,39.2,2c30.8,0,61.3-4.9,89.7-14.1
		L380,422.8z"/>
	<path d="M125.3,223.8l225.1,175.9c-10.5,1.5-21.1,2.3-31.9,2.3c-101,0-194.9-66.5-194.9-156.5C123.6,238,124.2,230.8,125.3,223.8z"
		/>
	<path d="M625.1,455.5l-104.6-81.7c30.9-34.7,49.9-78.5,49.9-128.5c0-126.8-119-213.7-252.2-213.7c-62.7,0-122.4,19.3-167.9,52.9
		L50.8,6.6C45,2.2,38.2,0.1,31.5,0.1c-9.4,0-18.8,4.2-25,12.3c-10.6,13.8-8.1,33.5,5.7,44.2l574.4,448.8
		c13.8,10.6,33.5,8.1,44.2-5.7C641.5,485.9,638.9,466.1,625.1,455.5z M474.5,337.8c23.8-25.6,38.4-57.5,38.4-92.6
		C512.9,156,421,89,318.2,89c-44.3,0-86.4,11.9-120.1,32.8l-23.9-18.7c17.1-11.7,36.3-21.1,57.3-28.2c27.8-9.5,56.9-14.2,86.8-14.2
		s58.9,4.7,86.3,14c26.9,9.1,51.1,22.2,71.6,38.8c20.6,16.7,36.7,36.3,47.9,58.2c11.6,22.9,17.5,47.6,17.5,73.6
		c0,25.9-6,50.6-17.8,73.5c-6.9,13.2-15.5,25.6-26,37.1L474.5,337.8z"/>
</g>
</svg>
