<?xml version="1.0" encoding="utf-8"?>
<!-- Generator: Adobe Illustrator 21.1.0, SVG Export Plug-In . SVG Version: 6.00 Build 0)  -->
<svg version="1.1" id="Layer_1" xmlns="http://www.w3.org/2000/svg" xmlns:xlink="http://www.w3.org/1999/xlink" x="0px" y="0px"
	 viewBox="0 0 512 512" style="enable-background:new 0 0 512 512;" xml:space="preserve">
<g id="fill">
	<path d="M256.1,47.7c30.3,0,59.7,4.8,87.5,14.4c27.3,9.4,51.8,22.8,72.6,39.9c20.9,17.2,37.2,37.3,48.6,59.8
		c11.8,23.5,17.8,48.9,17.8,75.7c0,26.6-6.1,52-18.1,75.5c-11.5,22.4-28,42.6-49.2,59.9c-42.5,34.6-100.4,54.5-158.7,54.5
		c-8.9,0-17.4-0.7-24.8-1.2c-5.8-0.5-10.7-0.8-15-0.8c-4.4,0-8,0.4-11.4,1.2c-18.9,4.7-65.8,17.1-101.9,26.6
		c4.3-20.6,8.6-40.9,9.6-45.3l3.7-17.9l-14-11.6c-25.4-21.1-43.7-42.7-55.7-65.8c-12-23-17.8-47.5-17.8-75c0-26.8,6-52.2,17.8-75.7
		c11.2-22.4,27.5-42.5,48.4-59.7c20.9-17.1,45.2-30.5,72.6-39.9C196.3,52.5,225.8,47.7,256.1,47.7 M256.1,17.7
		C120.9,17.7,0,107.1,0,237.5c0,65.2,28.5,117.6,84.3,164c-2,9.5-19.6,92.8-19.6,92.8s115.7-30.7,147.8-38.7c1-0.3,2.5-0.4,4.3-0.4
		c8,0,22.8,2,39.8,2c131.6,0,255.3-89.5,255.3-219.8S391.2,17.7,256.1,17.7L256.1,17.7z"/>
	<path d="M256.1,76.8c-104.4,0-197.4,66.1-197.4,160.7c0,92.5,95.3,160.9,197.7,160.9s197.2-69.5,197.2-161.1S360.4,76.8,256.1,76.8
		L256.1,76.8z"/>
</g>
</svg>
