<?xml version="1.0" encoding="utf-8"?>
<!-- Generator: Adobe Illustrator 21.1.0, SVG Export Plug-In . SVG Version: 6.00 Build 0)  -->
<svg version="1.1" id="Layer_2" xmlns="http://www.w3.org/2000/svg" xmlns:xlink="http://www.w3.org/1999/xlink" x="0px" y="0px"
	 viewBox="0 0 520 512" style="enable-background:new 0 0 520 512;" xml:space="preserve">
<path d="M260,0.5C116.4,0.5,0,103,0,229.4c0,62.4,28.4,119,74.4,160.3c23.1,20.7-20.1,122.8-20.1,122.8s153.5-57.5,182-55.2
	c7.8,0.6,15.7,0.9,23.7,0.9c143.6,0,260-102.5,260-228.9C520,103,403.6,0.5,260,0.5z M151,263.5c-19.9,0-36-16.1-36-36
	s16.1-36,36-36s36,16.1,36,36S170.9,263.5,151,263.5z M268,263.5c-19.9,0-36-16.1-36-36s16.1-36,36-36s36,16.1,36,36
	S287.9,263.5,268,263.5z M385,263.5c-19.9,0-36-16.1-36-36s16.1-36,36-36s36,16.1,36,36S404.9,263.5,385,263.5z"/>
</svg>
