<?xml version="1.0" encoding="utf-8"?>
<!-- Generator: Adobe Illustrator 21.1.0, SVG Export Plug-In . SVG Version: 6.00 Build 0)  -->
<svg version="1.1" id="Layer_2" xmlns="http://www.w3.org/2000/svg" xmlns:xlink="http://www.w3.org/1999/xlink" x="0px" y="0px"
	 viewBox="0 0 520 512" style="enable-background:new 0 0 520 512;" xml:space="preserve">
<g>
	<path d="M336.9,118.1c-2.6-1.8-4.9-2.9-5.1-2.5c-0.3,0.4,1.6,2.1,4.1,3.9s4.8,2.9,5.1,2.5C341.3,121.6,339.4,119.8,336.9,118.1z"/>
	<path d="M260,0C116.4,0,0,102.5,0,228.9c0,62.4,28.4,119,74.4,160.3C97.5,409.9,54.3,512,54.3,512s153.5-57.5,182-55.2
		c7.8,0.6,15.7,0.9,23.7,0.9c143.6,0,260-102.5,260-228.9C520,102.5,403.6,0,260,0z M167.6,364.5l2.2-53.4
		c12.6,19.8,22.7,26.7,47.5,31.5L167.6,364.5z M226.2,333.7c-1.1,1.4-1.8,2.6-4,2.5c-0.5,0-1.1,0-1.7,0c-7.1-0.3-16-3.4-25.3-9.1
		c-12.4-7.7-20.5-17.5-22-24.6c-0.2-0.3,0.8-1.7,1.6-2.8l135.1-197c0.2,3,10,12,23.3,21.1c12.3,8.5,23.6,14.3,27.4,14.3L226.2,333.7
		z M361.9,136.3c-1.5,2.1-14.1-4-28.1-13.8c-13.1-9.1-22.9-18.1-22.9-21c0-0.2,0-0.3,0.1-0.5c1.5-2.1,14,4,28.1,13.8
		C353.1,124.6,363.3,134.2,361.9,136.3z"/>
</g>
</svg>
