<?xml version="1.0" encoding="utf-8"?>
<!-- Generator: Adobe Illustrator 21.1.0, SVG Export Plug-In . SVG Version: 6.00 Build 0)  -->
<svg version="1.1" id="Layer_1" xmlns="http://www.w3.org/2000/svg" xmlns:xlink="http://www.w3.org/1999/xlink" x="0px" y="0px"
	 viewBox="0 0 512 512" style="enable-background:new 0 0 512 512;" xml:space="preserve">
<g id="fill">
	<path d="M205.8,86.6c-77.2,0-145.4,49.9-145.4,116.2S130.3,319.9,206,319.9s145.2-50.6,145.2-117.2S283,86.6,205.8,86.6z"/>
	<path id="_x33_2_3_" d="M491.3,352.6c13.9-23.6,20.7-49,20.7-76c0-28-7.3-54-22.1-78.1c-14.8-24.1-45-52.2-69.9-68.3
		c40,78.1,21.9,160.6-41.6,217.7c-45.6,37.3-116.2,56.4-184.5,53.2c-5.9,0-14.5-0.5-25.7-1.4c39.1,29.8,85.2,50.3,138,50.3
		c16.9,0,34.1-1.9,51.5-5.6c22.7,26.5,113,46.6,113,46.6s-24.5-38.7-29.6-50.8c-5.2-12.2-5.3-23.6-7-27.5
		C458.4,396.1,477.5,376.1,491.3,352.6z M205.9,28.9C97.3,28.9,0,99.7,0,202.7c0,51.6,25.1,95,63.4,125.6c1.4,1.1,2.9,2.7,4.3,4.3
		c-1.6,7.5-15.8,73.4-15.8,73.4s93.1-24.3,118.9-30.6c4.5-1.1,9.2-0.1,12.1,0.2c7.8,0.8,15.6,1.2,23.5,1.2
		c105.9,0,205.4-70.8,205.4-173.9S314.7,28.9,205.9,28.9z M206.3,348.4c-13,0-26-1.2-38.8-3.6c-9.2,2.4-75.5,20.4-75.5,20.4
		s9.9-39.7,11-44.4c-42.9-25.3-73.2-66.5-73.2-118.2c0-88.1,85-144.9,176.5-144.9S382.8,117,382.8,202.5S294.8,348.4,206.3,348.4z"
		/>
</g>
</svg>
