<?xml version="1.0" encoding="utf-8"?>
<!-- Generator: Adobe Illustrator 21.1.0, SVG Export Plug-In . SVG Version: 6.00 Build 0)  -->
<svg version="1.1" id="Layer_2" xmlns="http://www.w3.org/2000/svg" xmlns:xlink="http://www.w3.org/1999/xlink" x="0px" y="0px"
	 viewBox="0 0 520 512" style="enable-background:new 0 0 520 512;" xml:space="preserve">
<g>
	<path d="M33.7,232.4c0,54.3,24.7,103.6,64.8,139.5c20,17.9-17,105.8-17.5,106.9c1-0.4,133.7-50,158.4-48c6.8,0.5,13.7,0.8,20.6,0.8
		c29.1,0,57-4.8,82.5-13.7L59.5,140C43,167.6,33.7,199,33.7,232.4z"/>
	<path d="M512.1,467.6L418,374.9c42.1-36.2,68.3-86.7,68.3-142.6C486.3,122.4,385,33.2,260,33.2c-54.5,0-104.5,17-143.5,45.2
		L44.9,7.8C34.7-2.2,18.4-2.1,8.3,8l0,0C-1.9,18.2-1.9,34.8,8.4,44.9l467.2,459.8c10.2,10,26.5,9.9,36.6-0.2v0
		C522.4,494.3,522.4,477.7,512.1,467.6z"/>
</g>
</svg>
