<?xml version="1.0" encoding="utf-8"?>
<!-- Generator: Adobe Illustrator 22.0.1, SVG Export Plug-In . SVG Version: 6.00 Build 0)  -->
<svg version="1.1" id="Layer_3" xmlns="http://www.w3.org/2000/svg" xmlns:xlink="http://www.w3.org/1999/xlink" x="0px" y="0px"
	 viewBox="0 0 512 512" style="enable-background:new 0 0 512 512;" xml:space="preserve">
<path d="M478.6-0.7H33.1C14.8-0.7,0,14.1,0,32.4v315c0,18.3,14.8,33.1,33.1,33.1h50.2l-11.4,95.2c-3.6,29.9,32.3,47.7,54,26.9
	l126.8-122h226c18.3,0,33.1-14.8,33.1-33.1v-315C511.8,14.1,496.9-0.7,478.6-0.7z M260,320.9c-19.4,0-35.1-15.6-35.1-34.9
	c0-19.3,15.7-34.9,35.1-34.9c19.4,0,35,15.7,35.1,34.9C295.1,305.3,279.4,320.9,260,320.9z M297.5,105.8l-22.6,122.8l-30.1,0.3
	l-22.4-123.1c-0.4-2.3-0.6-4.7-0.6-6.9c0-20.6,16.8-38.1,38.2-38.1C283.8,60.7,301.8,82.4,297.5,105.8z"/>
</svg>
