<?xml version="1.0" encoding="utf-8"?>
<!-- Generator: Adobe Illustrator 22.0.1, SVG Export Plug-In . SVG Version: 6.00 Build 0)  -->
<svg version="1.1" id="Layer_3" xmlns="http://www.w3.org/2000/svg" xmlns:xlink="http://www.w3.org/1999/xlink" x="0px" y="0px"
	 viewBox="0 0 512 512" style="enable-background:new 0 0 512 512;" xml:space="preserve">
<path d="M478.6-0.7H33.1C14.8-0.7,0,14.1,0,32.4v315c0,18.3,14.8,33.1,33.1,33.1h50.2l-11.4,95.2c-3.6,29.9,32.3,47.7,54,26.9
	l126.8-122h226c18.3,0,33.1-14.8,33.1-33.1v-315C511.8,14.1,496.9-0.7,478.6-0.7z M358.5,129.2L237,289.5c-1.7,1.7-3.4,3.5-5.4,4.8
	c-11.9,6.6-27.3,2.3-34.3-9.6l-53.9-75.8c-7-12.1-3-27.1,8.9-33.7c11.9-6.6,27.3-2.4,34.3,9.6l39.2,50.5L326.4,92.7
	c0.7-0.8,6.7-10.3,20.6-10.3c15.1,0,24,11.9,24.1,24.1C371,114.6,359.1,128.5,358.5,129.2z"/>
</svg>
