<?xml version="1.0" encoding="utf-8"?>
<!-- Generator: Adobe Illustrator 22.0.1, SVG Export Plug-In . SVG Version: 6.00 Build 0)  -->
<svg version="1.1" id="Layer_3" xmlns="http://www.w3.org/2000/svg" xmlns:xlink="http://www.w3.org/1999/xlink" x="0px" y="0px"
	 viewBox="0 0 512 512" style="enable-background:new 0 0 512 512;" xml:space="preserve">
<path d="M328.1,77.8c-2.6-1.8-4.8-2.9-5.1-2.5c-0.3,0.4,1.6,2.1,4.1,3.9c2.6,1.8,4.8,2.9,5.1,2.5C332.5,81.3,330.6,79.5,328.1,77.8z
	 M328.1,77.8c-2.6-1.8-4.8-2.9-5.1-2.5c-0.3,0.4,1.6,2.1,4.1,3.9c2.6,1.8,4.8,2.9,5.1,2.5C332.5,81.3,330.6,79.5,328.1,77.8z
	 M478.6-0.7H33.1C14.8-0.7,0,14.1,0,32.4v315c0,18.3,14.8,33.1,33.1,33.1h50.2l-11.4,95.2c-3.6,29.9,32.3,47.7,54,26.9l126.8-122
	h226c18.3,0,33.1-14.8,33.1-33.1v-315C511.8,14.1,496.9-0.7,478.6-0.7z M158.8,324.2l2.2-53.4c12.6,19.8,22.7,26.7,47.6,31.5
	L158.8,324.2z M217.5,293.3c-1.1,1.4-1.7,2.6-4,2.5h-1.7c-7.1-0.3-16-3.4-25.3-9.1c-12.4-7.7-20.5-17.6-22-24.6
	c-0.2-0.3,0.8-1.7,1.6-2.8l135.1-197c0.1,3,10,12,23.3,21.1c12.3,8.6,23.6,14.3,27.4,14.3L217.5,293.3z M353.1,96.1
	c-1.5,2.1-14-4.1-28.1-13.8c-13.1-9.2-22.9-18.1-22.9-21c0-0.2,0-0.4,0.1-0.5c1.5-2,14.1,4.1,28.1,13.8
	C344.3,84.3,354.5,93.9,353.1,96.1z M328.1,77.8c-2.6-1.8-4.8-2.9-5.1-2.5c-0.3,0.4,1.6,2.1,4.1,3.9c2.6,1.8,4.8,2.9,5.1,2.5
	C332.5,81.3,330.6,79.5,328.1,77.8z M328.1,77.8c-2.6-1.8-4.8-2.9-5.1-2.5c-0.3,0.4,1.6,2.1,4.1,3.9c2.6,1.8,4.8,2.9,5.1,2.5
	C332.5,81.3,330.6,79.5,328.1,77.8z M328.1,77.8c-2.6-1.8-4.8-2.9-5.1-2.5c-0.3,0.4,1.6,2.1,4.1,3.9c2.6,1.8,4.8,2.9,5.1,2.5
	C332.5,81.3,330.6,79.5,328.1,77.8z"/>
</svg>
