<?xml version="1.0" encoding="utf-8"?>
<!-- Generator: Adobe Illustrator 21.1.0, SVG Export Plug-In . SVG Version: 6.00 Build 0)  -->
<svg version="1.1" id="Layer_1" xmlns="http://www.w3.org/2000/svg" xmlns:xlink="http://www.w3.org/1999/xlink" x="0px" y="0px"
	 viewBox="0 0 638.8 512" style="enable-background:new 0 0 638.8 512;" xml:space="preserve">
<style type="text/css">
	.st0{fill:#010101;}
</style>
<g>
	<path class="st0" d="M300.8,336.9c-38,19.4-83.6,38.4-107.7,48.1c-6.5,2.6-12.9-3.8-10.3-10.3c8.7-21.7,24.9-60.6,42.2-95.8
		L73.2,162.8c-11.3,28.9-17.5,60.3-17.5,93.2c0,141.4,114.6,256,256,256c57.1,0,109.7-18.6,152.3-50.2L300.8,336.9z"/>
	<path class="st0" d="M531.6,387.3c22.9-38.4,36.1-83.3,36.1-131.2c0-141.4-114.6-256-256-256c-71.2,0-135.6,29-182,76L31.6,0
		L0,41.3L607.7,512l31.6-41.3L531.6,387.3z M430.5,127c6.4-2.5,12.8,3.9,10.2,10.4c-11.9,29.6-37.8,91.5-61.3,132.1l-94.3-73
		C324.1,171,397.4,140.3,430.5,127z"/>
</g>
</svg>
