<?xml version="1.0" encoding="utf-8"?>
<!-- Generator: Adobe Illustrator 22.0.1, SVG Export Plug-In . SVG Version: 6.00 Build 0)  -->
<svg version="1.1" id="Layer_1" xmlns="http://www.w3.org/2000/svg" xmlns:xlink="http://www.w3.org/1999/xlink" x="0px" y="0px"
	 viewBox="0 0 512 512" style="enable-background:new 0 0 512 512;" xml:space="preserve">
<style type="text/css">
	.st0{fill:#010101;}
</style>
<g>
	<path class="st0" d="M256,0C114.6,0,0,114.6,0,256s114.6,256,256,256s256-114.6,256-256S397.4,0,256,0z M98,385.5L98,385.5
		c-6.6,6.6-17.6,5.7-23-2C49,346.4,35,302.3,35,256c0-26.4,4.6-52.1,13.3-76.3c3.1-8.4,12.7-12.4,20.8-8.4c5.3,2.6,8.5,7.9,8.5,13.5
		c0,1.7-0.3,3.4-0.9,5.1C69.2,210.5,65,232.8,65,256c0,41,12.8,79,34.7,110.3C103.9,372.3,103.2,380.4,98,385.5z M256,412
		c-86.2,0-156-69.8-156-156s69.8-156,156-156s156,69.8,156,156S342.2,412,256,412z"/>
	<path class="st0" d="M256,132c-68.5,0-124,55.5-124,124s55.5,124,124,124s124-55.5,124-124S324.5,132,256,132z M256,293
		c-20.4,0-37-16.6-37-37s16.6-37,37-37s37,16.6,37,37S276.4,293,256,293z"/>
</g>
</svg>
