<?xml version="1.0" encoding="utf-8"?>
<!-- Generator: Adobe Illustrator 21.1.0, SVG Export Plug-In . SVG Version: 6.00 Build 0)  -->
<svg version="1.1" id="Layer_1" xmlns="http://www.w3.org/2000/svg" xmlns:xlink="http://www.w3.org/1999/xlink" x="0px" y="0px"
	 viewBox="0 0 511 512" style="enable-background:new 0 0 511 512;" xml:space="preserve">
<g>
	<polygon points="45,0.9 -0.4,46.2 107.1,153.7 51.5,153.6 51.6,222.5 222,222.7 221.9,52.3 153,52.2 152.5,108.4 	"/>
	<polygon points="358.2,460.3 358.7,404.1 466.2,511.6 511.6,466.2 404.1,358.8 459.7,358.9 459.6,290 289.2,289.8 289.3,460.2 	"/>
	<polygon points="459.9,153.4 403.7,152.9 511.2,45.4 465.8,0 358.4,107.5 358.4,51.9 289.6,52 289.4,222.4 459.8,222.3 	"/>
	<polygon points="0.4,466.6 45.8,512 153.3,404.6 153.2,460.1 222,460 222.3,289.6 51.8,289.8 51.8,358.6 108,359.1 	"/>
</g>
</svg>
