<?xml version="1.0" encoding="utf-8"?>
<!-- Generator: Adobe Illustrator 21.1.0, SVG Export Plug-In . SVG Version: 6.00 Build 0)  -->
<svg version="1.1" id="Layer_2_1_" xmlns="http://www.w3.org/2000/svg" xmlns:xlink="http://www.w3.org/1999/xlink" x="0px" y="0px"
	 viewBox="0 0 550 512" style="enable-background:new 0 0 550 512;" xml:space="preserve">
<path d="M500,22.1H201.5l0,27.9H494C509.5,50,522,62.5,522,78v298.2c0,15.5-12.6,28.1-28.1,28.1H201.7l0,28.8h45.4l-41,41h-4.5
	l-0.1,25.2h170.3v-16.1c0-5-4.1-9.1-9.1-9.1h-32.1l-41.9-41H500c27.6,0,49.9-22.3,49.9-49.9V72C549.9,44.4,527.6,22.1,500,22.1z
	 M490.7,392.3c9.9,0,17.9-8,17.9-17.9V79.8c0-9.9-8-17.9-17.9-17.9H201.5l0.2,330.4H490.7z M48.3,206h96.2v-31.3H48.3V206z
	 M48.3,122.5v31.3h96.2v-31.3H48.3z M174.4,37.4H21c-3.3,0-5.9,2.6-5.9,5.9v441.2h165.2V43.3C180.3,40,177.7,37.4,174.4,37.4z
	 M104.7,330.3c-2.4,2-4.9,3-7.6,3c-3,0-5.7-1-8.1-3c-2-2.3-3-4.8-3-7.5c0-3,1-5.5,3-7.5c2.3-2.3,5-3.5,8.1-3.5
	c2.7,0,5.2,1.2,7.6,3.5c2,2,3,4.5,3,7.5C107.7,325.5,106.7,327.9,104.7,330.3z M109.8,279c-3.7,3.3-7.9,5-12.6,5s-8.9-1.7-12.6-5
	c-3.4-3.3-5-7.5-5-12.4c0-4.6,1.7-8.6,5-11.9c3.7-3.7,7.9-5.5,12.6-5.5s8.9,1.8,12.6,5.5c3.3,3.3,5,7.3,5,11.9
	C114.8,271.6,113.1,275.7,109.8,279z M155.1,217.5H37.7V111.1h117.4V217.5z M144.5,174.7H48.3V206h96.2V174.7z M144.5,122.5H48.3
	v31.3h96.2V122.5z M48.3,174.7V206h96.2v-31.3H48.3z M174.4,37.4H21c-3.3,0-5.9,2.6-5.9,5.9v441.2h165.2V43.3
	C180.3,40,177.7,37.4,174.4,37.4z M104.7,330.3c-2.4,2-4.9,3-7.6,3c-3,0-5.7-1-8.1-3c-2-2.3-3-4.8-3-7.5c0-3,1-5.5,3-7.5
	c2.3-2.3,5-3.5,8.1-3.5c2.7,0,5.2,1.2,7.6,3.5c2,2,3,4.5,3,7.5C107.7,325.5,106.7,327.9,104.7,330.3z M109.8,279
	c-3.7,3.3-7.9,5-12.6,5s-8.9-1.7-12.6-5c-3.4-3.3-5-7.5-5-12.4c0-4.6,1.7-8.6,5-11.9c3.7-3.7,7.9-5.5,12.6-5.5s8.9,1.8,12.6,5.5
	c3.3,3.3,5,7.3,5,11.9C114.8,271.6,113.1,275.7,109.8,279z M155.1,217.5H37.7V111.1h117.4V217.5z M144.5,174.7H48.3V206h96.2V174.7z
	 M144.5,122.5H48.3v31.3h96.2V122.5z M189.1,19.6H5.9c-3.3,0-5.9,2.6-5.9,5.9v474h195v-474C195,22.2,192.4,19.6,189.1,19.6z
	 M4.9,489.4V31.8c0-3.3,2.6-5.9,5.9-5.9h172.1c3.3,0,5.9,2.6,5.9,5.9l0.1,457.6H4.9z M174.4,37.4H21c-3.3,0-5.9,2.6-5.9,5.9v441.2
	h165.2V43.3C180.3,40,177.7,37.4,174.4,37.4z M104.7,330.3c-2.4,2-4.9,3-7.6,3c-3,0-5.7-1-8.1-3c-2-2.3-3-4.8-3-7.5c0-3,1-5.5,3-7.5
	c2.3-2.3,5-3.5,8.1-3.5c2.7,0,5.2,1.2,7.6,3.5c2,2,3,4.5,3,7.5C107.7,325.5,106.7,327.9,104.7,330.3z M109.8,279
	c-3.7,3.3-7.9,5-12.6,5s-8.9-1.7-12.6-5c-3.4-3.3-5-7.5-5-12.4c0-4.6,1.7-8.6,5-11.9c3.7-3.7,7.9-5.5,12.6-5.5s8.9,1.8,12.6,5.5
	c3.3,3.3,5,7.3,5,11.9C114.8,271.6,113.1,275.7,109.8,279z M155.1,217.5H37.7V111.1h117.4V217.5z M144.5,174.7H48.3V206h96.2V174.7z
	 M144.5,122.5H48.3v31.3h96.2V122.5z M48.3,122.5v31.3h96.2v-31.3H48.3z"/>
</svg>
