<?xml version="1.0" encoding="utf-8"?>
<!-- Generator: Adobe Illustrator 22.0.1, SVG Export Plug-In . SVG Version: 6.00 Build 0)  -->
<svg version="1.1" id="Layer_1" xmlns="http://www.w3.org/2000/svg" xmlns:xlink="http://www.w3.org/1999/xlink" x="0px" y="0px"
	 viewBox="0 0 590 512" style="enable-background:new 0 0 590 512;" xml:space="preserve">
<style type="text/css">
	.st0{fill:#010101;}
</style>
<g>
	<polygon class="st0" points="507.1,124.1 507.1,38.4 449.9,38.4 449.9,124.1 367.7,124.1 367.7,182.8 449.9,182.8 449.9,268.4 
		507.1,268.4 507.1,182.8 589.3,182.8 589.3,124.1 	"/>
	<path class="st0" d="M350.4,415V127H146v277.5C101.1,371,72,317.4,72,257c0-101.6,82.4-184,184-184c22.6,0,44.2,4.1,64.1,11.5
		l26.5-67C318.5,6.8,287.9,1,256,1C114.6,1,0,115.6,0,257s114.6,256,256,256c118.6,0,218.3-80.6,247.4-190h-75.6
		C413,361.6,385.5,394,350.4,415z M281.4,182.8h37.8v39.8h-37.8V182.8z M281.4,241.4h37.8v39.8h-37.8V241.4z M281.4,300.1h37.8v39.8
		h-37.8V300.1z M229.3,182.8h37.8v39.8h-37.8V182.8z M229.3,241.4h37.8v39.8h-37.8V241.4z M229.3,300.1h37.8v39.8h-37.8V300.1z
		 M176.6,182.8h37.8v39.8h-37.8V182.8z M176.6,241.4h37.8v39.8h-37.8V241.4z M176.6,300.1h37.8v39.8h-37.8V300.1z M209.1,435v-28.4
		c-0.3-23.3,17.4-42.2,39.1-42.2c21.7,0,39.3,18.9,39.7,42.2v31.7c-10.4,1.8-21,2.8-31.9,2.8C239.8,441,224.1,438.9,209.1,435z"/>
</g>
</svg>
