<?xml version="1.0" encoding="utf-8"?>
<!-- Generator: Adobe Illustrator 21.1.0, SVG Export Plug-In . SVG Version: 6.00 Build 0)  -->
<svg version="1.1" id="Layer_6" xmlns="http://www.w3.org/2000/svg" xmlns:xlink="http://www.w3.org/1999/xlink" x="0px" y="0px"
	 viewBox="0 0 512 512" style="enable-background:new 0 0 512 512;" xml:space="preserve">
<path d="M256,0C114.7,0,0,114.7,0,256s114.7,256,256,256c141.4,0,256-114.7,256-256S397.4,0,256,0z M179.2,162.9
	c16.7,0,30.2,16.7,30.2,37.2s-13.5,37.3-30.2,37.3c-16.7,0-30.2-16.7-30.2-37.3C148.9,179.6,162.4,162.9,179.2,162.9z M259.5,397
	c-3.6,0.6-7.2,1-10.8,1c0,0,0,0,0,0c-30.6,0-51.3-22.7-66.5-39.4c-3.8-4.2-9.8-10.7-13.3-13.4l-4.7,2.9l-18.6-29.7l7.7-4.8
	c5.3-3.3,10.4-4.7,15.3-4.7c15.8,0,29.1,14.6,39.5,26c13.7,15,27.9,30.6,45.3,27.5l8.9-1.6l6.1,34.5L259.5,397z M332.8,237.4
	c-16.7,0-30.2-16.7-30.2-37.3c-0.1-20.6,13.5-37.2,30.2-37.2c16.7,0,30.2,16.7,30.2,37.2S349.5,237.4,332.8,237.4z"/>
</svg>
