<?xml version="1.0" encoding="utf-8"?>
<!-- Generator: Adobe Illustrator 22.0.1, SVG Export Plug-In . SVG Version: 6.00 Build 0)  -->
<svg version="1.1" id="Layer_2" xmlns="http://www.w3.org/2000/svg" xmlns:xlink="http://www.w3.org/1999/xlink" x="0px" y="0px"
	 viewBox="0 0 577.4 512" style="enable-background:new 0 0 577.4 512;" xml:space="preserve">
<path d="M236.5,289.1c-1.5,1.2-8,10.9-13.6,19.3l8.8,4.9c3.3-8.6,7.7-19.3,12.1-24.3C236.9,288,238.8,288.8,236.5,289.1z
	 M298.5,337.7c-0.7-4.6,1-20.8,1-23.5c-3,5.4-8.8,19.1-13,29.4l14.4,8C299.7,344.6,298.7,338.6,298.5,337.7z M298.5,337.7
	c-0.7-4.6,1-20.8,1-23.5c-3,5.4-8.8,19.1-13,29.4l14.4,8C299.7,344.6,298.7,338.6,298.5,337.7z M236.5,289.1
	c-1.5,1.2-8,10.9-13.6,19.3l8.8,4.9c3.3-8.6,7.7-19.3,12.1-24.3C236.9,288,238.8,288.8,236.5,289.1z M576,496.5L297.5,5.1
	c-3.9-6.8-13.7-6.8-17.6,0L1.4,496.5c-1.8,3.2-1.8,7.1,0,10.3c1.8,3.2,5.2,5.2,8.8,5.2h557.1c3.6,0,7-2,8.8-5.2
	C577.8,503.7,577.8,499.7,576,496.5z M284.3,227.8c5.9-14.4,22.3-21.2,36.7-15.3c14.3,5.9,21.2,22.3,15.3,36.7
	c-5.9,14.3-22.3,21.2-36.7,15.3C285.3,258.6,278.4,242.2,284.3,227.8z M446.5,463.7h-134c3-19.6,16.9-35.5,35.1-33
	c1.9-6.3,4.5-12.1,7.7-17.3c-4.9-2-10-4.4-15.1-7.2c-2-1.1-3.1-3.2-2.6-4.7c0-0.1,0.1-0.2,0.1-0.3l7.2-13.5l-27.6-15.3
	c0,0-0.1,0-0.1,0c-5.9,0.9-11.4-2.4-13.7-7.6l-20.9-11.6c-0.6,1.6-1,2.6-1.1,2.9c13.5,15.2,22.7,36.7,24.3,40.3
	c0.9,2,0,32.5-0.6,51.8c-0.1,4.3-2,8.2-4.9,11c-2.9,2.8-6.8,4.5-11.1,4.5c-9.4,0-16.8-8.1-15.9-17.4c1.3-14.9,2.9-34.4,2.3-38.2
	c-2.6-5.6-5.7-11.4-12.6-20c1.3,10.6,1.1,14.7-2.2,21.6c-4.4,8.5-14.8,31.5-20.7,44.6c-2.6,5.7-8.3,9.4-14.6,9.4h-2.9
	c-11.6,0-19.4-12-14.6-22.6c7.5-16.6,17.1-37.6,21-45.5c0.3-3-0.7-10.9-1.7-16.9c-2.6-17.2-7.2-36.9,0-54.1c0.2-0.4,0.4-0.9,0.6-1.5
	l-11-6.1c0,0.1-0.1,0.1-0.1,0.2c-2.5,3.8-6.6,5.8-10.8,5.8c-2.6,0-5.3-0.8-7.6-2.4c-5.8-4.2-7.1-12.3-3-18.1
	c6.1-8.4,19.2-27.7,22-30.8c8.9-10,14.4-12,16.1-12.7c9.9-3.6,30.8-3.3,52.9,6l19.8,9.3c18,10.9,18.8,29.5,17.5,43.4
	c-0.3,3.3-0.5,14.1-0.2,15.5c0.7,3.8,2.7,15.4,4.2,24.7c0.5,2.9,0,5.6-1.3,8l23.1,12.8l6.1-11.5c0.3-0.6,1.1-1,2-1
	c0.8,0,1.7,0.2,2.5,0.8c10.9,6.3,20.6,13.9,28.1,22c2.2-0.4,4.4-0.6,6.7-0.6c28.5,0,51.5,30.5,51.3,67.7
	C446.5,458.5,446.5,463.7,446.5,463.7z M299.5,314.2c-3,5.4-8.8,19.1-13,29.4l14.4,8c-1.2-6.9-2.2-12.9-2.4-13.8
	C297.9,333,299.5,316.8,299.5,314.2z M236.5,289.1c-1.5,1.2-8,10.9-13.6,19.3l8.8,4.9c3.3-8.6,7.7-19.3,12.1-24.3
	C236.9,288,238.8,288.8,236.5,289.1z"/>
</svg>
