<?xml version="1.0" encoding="utf-8"?>
<!-- Generator: Adobe Illustrator 21.1.0, SVG Export Plug-In . SVG Version: 6.00 Build 0)  -->
<svg version="1.1" id="Layer_2" xmlns="http://www.w3.org/2000/svg" xmlns:xlink="http://www.w3.org/1999/xlink" x="0px" y="0px"
	 viewBox="0 0 512 512" style="enable-background:new 0 0 512 512;" xml:space="preserve">
<g>
	<path d="M509.6,293.5c-2.2-2.8-5-4.5-8.5-4.5c-14.7-1.1-27.2-11.2-31.2-25.3c-1.1-3.9-3.9-6.7-8-7.9c-3.9-1.1-8.5,0-11.3,2.8
		c-6.8,6.8-15.3,10.1-24.3,10.1c-14.7,0-28.4-10.1-32.9-24.7c-1.7-4.5-6.3-7.9-11.3-7.9H381c-19.3,0-34.6-15.2-34.6-34.3
		c0-10.7,5-20.8,14.1-27.5c2.8-2.3,4.5-5.6,4.5-9c0-3.4-1.7-6.7-4.5-9c-9.1-6.7-14.1-16.8-14.1-27.5c0-8.4,3.4-16.9,9.1-23
		c2.2-2.3,2.8-5.6,2.8-8.4s-1.7-6.2-3.9-7.9c-8-6.2-12.5-16.3-12.5-26.4s4.5-19.7,12.5-26.4c2.8-2.8,4.5-6.7,3.9-10.7
		c-0.6-3.9-3.4-7.3-7.4-9c-22.7-9-47-14-71.5-16.3c-74.3-5.6-147.9,20.8-201.8,73C24.3,126.1-4.1,198.6,0.5,272.2
		C8.9,406.9,122.4,512,258.4,512c124.7,0,231.9-88.2,253.4-209.5C512.4,299.1,511.3,295.7,509.6,293.5z M229.4,63.1l15.2,19.5
		l-22.3,10.5l-13.1-10.6L229.4,63.1z M90.5,182.8l15.4,9.7l-4,13.6l-16.2,4.3l-9-15.7L90.5,182.8z M83.1,335.1L64,315L82,280.8
		l20.9-2.3l15.2,42L83.1,335.1z M127.4,121.2l-4.3,5.6l-14-3.3l-7.1-7.4l5.4-12.6l20,15.8V121.2z M145.8,397.9l-11.4,1.2l-4.5-8.8
		l14.9-13.3l17.2,14.4L145.8,397.9z M187,270.5l-9.8,3.3l-9.1-9.4l9.8-8.2l10.9,7.6L187,270.5z M187.3,164.6l-14.6-2.3l8.8-16.9
		l22.8,10.1L187.3,164.6z M208.6,450.3l28.2-15.7l9.7,27.9L208.6,450.3z M252.8,360.1h-21.2l7.3-19.6l22.5,10.4L252.8,360.1z
		 M274.4,237.2h-22.8l-12.3-16.7l8.9-13.3l28,16.1L274.4,237.2z M279.5,153.8l-16.9-19.1l23.6-10.5l14.5,15.4L279.5,153.8z M333,398
		l-13.5-10.1l18.6-10l13.5,16.2L333,398z M362.3,328.9l-48.3-27l29.9-26.2l25.5,19.2L362.3,328.9z M429.2,361.1h-14.4l-9.2-16.4
		l23.3-1.6h0.4v18H429.2z"/>
	<path d="M451.3,216.6c17.4-16.1,31.1-35.8,40.2-57.6c-13.8-14.1-36.6-14.4-50.9-0.7s-14.5,36.3-0.6,50.4
		C443.2,212.1,447,214.8,451.3,216.6z"/>
	<path d="M494.6,104c1.9-11.6,1.2-23.6-1.8-34.9c-9.9-1.4-19,5.4-20.3,15.2c-1.4,9.8,5.4,18.8,15.3,20.1
		C489.9,104.7,492.3,104.6,494.6,104z"/>
	<path d="M408.6,112.5c4.9,7.2,15.3,8.4,21.9,1.9c3.9-4,5.1-10.1,2.9-15.2c-3.6-8.4-13.8-11.1-21.1-6.2
		C405.8,97.3,404.1,106.1,408.6,112.5L408.6,112.5z"/>
</g>
</svg>
