<?xml version="1.0" encoding="utf-8"?>
<!-- Generator: Adobe Illustrator 21.1.0, SVG Export Plug-In . SVG Version: 6.00 Build 0)  -->
<svg version="1.1" id="Layer_2" xmlns="http://www.w3.org/2000/svg" xmlns:xlink="http://www.w3.org/1999/xlink" x="0px" y="0px"
	 viewBox="0 0 512 512" style="enable-background:new 0 0 512 512;" xml:space="preserve">
<path d="M256,0C114.6,0,0,114.6,0,256s114.6,256,256,256s256-114.6,256-256S397.4,0,256,0z M441.3,214.3l18.1,5.1l-15.2,17.5
	l-0.3,0.3l-12.7-12.7L441.3,214.3z M406,144.3l10.2,0.2l5.1,12.8l-25.2,2.9l-1.3-1.3l-0.9-7L406,144.3z M330.5,75.6l27.7,0.8
	l11.5,36.8l-13.1,16.2l-40.4-19L330.5,75.6z M261.9,72.7l7.1-8.8l9.4,3.1l-1.1,19.9l-22.2,1.8L261.9,72.7z M224.4,64.1l15.1,19.5
	l-22.1,10.5l-13.1-10.6L224.4,64.1z M86.7,183.8l15.3,9.7l-4,13.6l-16,4.2l-8.9-15.6L86.7,183.8z M79.5,336.3l-19-20.2l17.9-34.2
	l20.7-2.3l15.1,42L79.5,336.3z M123.4,122.2l-4.3,5.6l-13.9-3.3l-7-7.4l5.4-12.6l19.8,15.8C123.4,120.3,123.4,122.2,123.4,122.2z
	 M141.6,399.1l-11.3,1.2l-4.5-8.8l14.8-13.3l17,14.4L141.6,399.1z M182.4,271.6l-9.7,3.3l-9-9.4l9.7-8.2l10.8,7.6L182.4,271.6z
	 M182.7,165.6l-14.5-2.3l8.7-16.9l22.6,10.1L182.7,165.6z M203.8,451.5l27.9-15.7l9.6,27.9L203.8,451.5z M247.6,361.3h-21l7.2-19.6
	l22.3,10.4L247.6,361.3z M269.1,238.2h-22.6l-12.2-16.7l8.8-13.3l27.7,16.1L269.1,238.2z M274.1,154.8l-16.7-19.1l23.4-10.5
	l14.4,15.4L274.1,154.8z M303.3,211.6l4.5-9.2l13.1,0.3l-1,12.6l-13,2.3L303.3,211.6z M327.2,399.2l-13.4-10.1l18.4-10l13.4,16.2
	L327.2,399.2z M356.2,330.1L308.3,303l29.6-26.2l25.3,19.2L356.2,330.1z M377.3,212l-17.7,4l-6.8-12.4l8.4-14.4l17.3,4.8L377.3,212z
	 M398,266.8l11.9-8.7l5.8,18.1l-23.1,8.9L398,266.8z M422.5,362.3h-14.4l-9.2-16.4l23.1-1.6h0.4v18H422.5z M452.7,317.8l-24.4-3.1
	l8.3-23.1l16.7-1.8L452.7,317.8z"/>
</svg>
