<?xml version="1.0" encoding="utf-8"?>
<!-- Generator: Adobe Illustrator 21.1.0, SVG Export Plug-In . SVG Version: 6.00 Build 0)  -->
<svg version="1.1" id="cool" xmlns="http://www.w3.org/2000/svg" xmlns:xlink="http://www.w3.org/1999/xlink" x="0px" y="0px"
	 viewBox="0 0 512 512" style="enable-background:new 0 0 512 512;" xml:space="preserve">
<g>
	<g>
		<path d="M256,0C114.6,0,0,114.6,0,256s114.6,256,256,256s256-114.6,256-256S397.4,0,256,0z M179.2,162.9
			c16.7,0,30.2,16.7,30.2,37.2s-13.6,37.2-30.2,37.2S149,220.8,149,200.2C148.9,179.6,162.4,162.9,179.2,162.9z M329.7,362.6
			l-0.3,0.1c-62.9,20.6-141.4,3.3-167-35.2c-5.8-5.5-5.9-14.7-0.2-20.2c5.5-5.4,14.5-5.4,20,0.1c31.6,28.7,84,51.7,139.5,28.2
			C339.9,330.4,347.8,357.5,329.7,362.6z M332.8,237.4c-16.7,0-30.2-16.7-30.2-37.2s13.6-37.2,30.2-37.2s30.2,16.7,30.2,37.2
			S349.5,237.4,332.8,237.4z"/>
	</g>
</g>
</svg>
