<?xml version="1.0" encoding="utf-8"?>
<!-- Generator: Adobe Illustrator 21.1.0, SVG Export Plug-In . SVG Version: 6.00 Build 0)  -->
<svg version="1.1" id="Layer_3" xmlns="http://www.w3.org/2000/svg" xmlns:xlink="http://www.w3.org/1999/xlink" x="0px" y="0px"
	 viewBox="0 0 512 512" style="enable-background:new 0 0 512 512;" xml:space="preserve">
<g>
	<path d="M256,0C114.6,0,0,114.6,0,256s114.6,256,256,256s256-114.6,256-256S397.4,0,256,0z M218.3,293.2c0,24,18.2,39.4,39.1,39.4
		c16.8,0,29.3-9.1,38.2-27.9l0.4-0.9c0,0,4.8-3.4,6.4-3.4h37.6c2.2,0,4.3,0.9,5.8,2.6c1.6,1.9,2.2,4.3,1.6,6.7
		c-4.9,23.4-16,41.5-32.5,54.5c-13.2,10.4-29.5,18.7-57.3,18.7c-42.1,0-82.3-26.9-89.1-70.8c-1.3-8.6-1.7-82.3-1.7-91.4
		c0-33.8,10.3-55.6,39.9-77c13.4-9.7,30.8-14.8,50.9-14.8c24.1,0,44.4,7.6,60.2,22.5c15.8,14.8,25.8,32.6,29.6,52.9
		c0.7,2.5,0,5-1.8,6.8c-1.5,1.5-3.4,2.3-5.5,2.3h-37.6c-3.4,0-6.2-2-7.1-5.2c-5.2-12.8-16.4-28.6-37.9-28.6
		c-25.7,0-40.3,20.4-40.3,47.4C217.1,234.7,218.3,285.6,218.3,293.2z"/>
</g>
</svg>
