<?xml version="1.0" encoding="utf-8"?>
<!-- Generator: Adobe Illustrator 16.0.0, SVG Export Plug-In . SVG Version: 6.00 Build 0)  -->
<!DOCTYPE svg PUBLIC "-//W3C//DTD SVG 1.1//EN" "http://www.w3.org/Graphics/SVG/1.1/DTD/svg11.dtd">
<svg version="1.1" id="Layer_2" xmlns="http://www.w3.org/2000/svg" xmlns:xlink="http://www.w3.org/1999/xlink" x="0px" y="0px"
	 width="421.2px" height="512px" viewBox="0 0 421.2 512" enable-background="new 0 0 421.2 512" xml:space="preserve">
<g>
	<path d="M341.2,497c0,8.3-6.7,15-15,15H15c-8.3,0-15-6.7-15-15V95c0-8.3,6.7-15,15-15h45v357c0,8.3,6.7,15,15,15h266.2V497z"/>
	<path id="fill-32_2_" d="M319,0v91.9c0,5.6,4.5,10.1,10.1,10.1H421L319,0z M421,134H297.1c-5.6,0-10.1-4.5-10.1-10.1V0H105
		c-8.3,0-15,6.7-15,15v392c0,8.3,6.7,15,15,15h301.2c8,0,14.5-6.2,15-14c0-0.3,0-0.6,0-1L421,134z M138.3,88h72.8v32h-72.8V88z
		 M138.3,148h72.8v32h-72.8V148z M371.5,360H138.3v-32h233.2V360z M371.5,300H138.3v-32h233.2V300z M371.5,240H138.3v-32h233.2V240z
		"/>
</g>
</svg>
