<?xml version="1.0" encoding="utf-8"?>
<!-- Generator: Adobe Illustrator 21.1.0, SVG Export Plug-In . SVG Version: 6.00 Build 0)  -->
<svg version="1.1" id="Layer_1" xmlns="http://www.w3.org/2000/svg" xmlns:xlink="http://www.w3.org/1999/xlink" x="0px" y="0px"
	 viewBox="0 0 550 512" style="enable-background:new 0 0 550 512;" xml:space="preserve">
<path d="M550,206.2V471h-43.6v41h-50.6v-41H95.3v41H44.6v-41H1V206.2c0-16.2,11.4-29.3,25.6-29.3h64.3v140h368.3v-140h65.2
	C538.6,176.9,550,190.1,550,206.2z M104.9,160.9H46.4V65.1c0-17.7,5.5-33,16.5-46c11-12.7,24.4-19,40.1-19h348.4
	c15.6,0,29,6.3,40.1,19c11,13,16.6,28.3,16.6,46l0.2,95.9h-62.8v140L105,300.9L104.9,160.9L104.9,160.9z"/>
</svg>
