<?xml version="1.0" encoding="utf-8"?>
<!-- Generator: Adobe Illustrator 21.1.0, SVG Export Plug-In . SVG Version: 6.00 Build 0)  -->
<svg version="1.1" id="Layer_2" xmlns="http://www.w3.org/2000/svg" xmlns:xlink="http://www.w3.org/1999/xlink" x="0px" y="0px"
	 viewBox="0 0 550.2 512" style="enable-background:new 0 0 550.2 512;" xml:space="preserve">
<g>
	<path d="M0,467h549.8V222.4H0V467z M420.8,330.1c11.2,0,21.3,5.2,27.9,13.1c6.6-7.9,16.7-13.1,27.9-13.1c20,0,36.2,16.2,36.2,36.2
		c0,19.9-16.2,36.2-36.2,36.2c-11.2,0-21.3-5-27.9-13.1c-6.7,7.9-16.7,13.1-27.9,13.1c-19.9,0-36.2-16.1-36.2-36.2
		C384.6,346.4,400.7,330.1,420.8,330.1z M179.6,347.5h122.5v40H179.6V347.5z M57.1,347.5h81.7v40H57.1V347.5z M0,45v132.2h549.8V45
		H0z M57.5,121.6c-1.5,2.4-3.9,3.6-6.9,3.6c-2.9,0-5.1-1.3-6.4-3.6c-1.5-2.1-2.3-5-2.3-8.8c-0.1-3.6,0.7-6.7,2.3-8.9
		c1.5-2.3,3.9-3.6,6.8-3.6c2.8,0,5.1,1.3,7,3.6c1.4,2.1,2.1,5,2.1,8.8C59.8,116.6,59,119.6,57.5,121.6z M78.1,121.6
		c-1.9,2.4-4.2,3.6-7,3.6s-5-1.3-7-3.6c-1.3-2.5-2.1-5.6-2.1-8.9c0-3.4,0.7-6.2,2.1-8.8c1.9-2.3,4.3-3.6,7.2-3.6s5.3,1.3,7,3.6
		c1.3,2.1,1.8,5,1.8,8.8S79.5,119.4,78.1,121.6z M98.7,121.6c-1.7,2.4-4,3.6-6.8,3.6c-2.9,0-5.3-1.3-6.9-3.6
		c-1.4-2.5-2.1-5.6-2.1-8.9c0-3.4,0.7-6.2,2.1-8.8c1.8-2.3,4.1-3.6,6.9-3.6c2.9,0,5.2,1.3,6.8,3.6c1.4,2.4,2.1,5.3,2.1,8.8
		C100.8,116.5,100.1,119.4,98.7,121.6z M118.8,121.6c-1.4,2.3-3.6,3.3-6.8,3.3c-2.8,0.3-5-1-6.8-3.6c-1.3-2.5-2.1-5.4-2.1-8.8
		c0-3.3,0.6-6.1,2.3-8.7c1.7-2.3,4.1-3.6,7-3.6c2.8,0,5,1.3,7,3.6c1.3,2.4,2.1,5.3,2.1,8.8C121.4,116.6,120.6,119.6,118.8,121.6z
		 M174.4,124.6H169v-18.8l-1.5,0.5l-0.5,0.5l-1.3,0.4l-0.8,0.3l-0.5,0.5c0-0.5-0.2-1.3-0.5-2.3l-0.3-1v-1.1l2.6-1.3
		c1.3-0.7,2.3-1.3,3.6-1.8h4.7V124.6z M199,124.7h-17.1l0.3-3.3l0.8-0.8l0.8-0.8l1.3-1.5c1.3-1,2.7-2.2,3.9-3.3l2.3-2.3
		c1.3-1.7,1.8-3.2,1.8-4.3c0-2.3-1.3-3.6-3.9-3.6c-1.1,0-2.1,0.3-3.2,0.8c-0.5,0.3-1.3,0.8-2.1,1.3c-0.7-1.5-1.3-2.8-1.5-3.9
		c2.3-1.7,4.9-2.5,7.8-2.5c2.8,0,4.9,0.8,6.4,2.3c1.5,1,2.3,2.8,2.3,5.4c0,2.8-2.3,6.1-6.8,10l-0.3,0.5l-0.8,0.5l-1,0.8h9V124.7z
		 M217,123.3c-2.3,1.3-4.9,1.8-7.3,1.8c-2.9,0-5.4-0.5-7.3-1.5c0.3-1.4,0.7-2.8,1-4.3l0.5,0.3l0.5,0.3l1.5,0.5l1.5,0.3l1.5,0.3
		c1.3,0,2.3-0.3,3.3-1c0.7-0.5,1-1.3,1-2.3c0.4-1.1-0.1-1.9-0.9-2.8c-1.1-0.5-2.3-0.8-3.6-0.8h-2.3v-3.9h2.3l2.8-0.8
		c0.8-0.5,1.3-1.3,1.3-2.1c0-1.7-1.3-2.5-3.6-2.5h-1.1l-1.8,0.3l-1,0.5l-1.1,0.8l-0.5-2.4l-0.3-0.8c0-0.4-0.3-0.7-0.5-1
		c2.1-1.3,4.7-1.8,7.8-1.8c2.6,0,4.4,0.6,5.7,1.8c1.5,1,2.3,2.3,2.3,4.2c0,2.3-1.4,4.3-4.3,5.7c1.5,0.2,2.8,0.8,3.6,1.8
		c1,1.3,1.5,2.6,1.5,4.1C219.6,119.8,218.8,121.6,217,123.3z M241.4,119h-2.8v5.7h-5.2V119h-10.9v-3.7h0.1c0.8-1,1.7-2.3,2.6-4.1
		l0.5-0.8l0.5-0.5l1.1-1.8l1.3-2.3l1-1.8l2.1-3.3h7v14.2h2.8V119z M310.2,122.5c-2.1,1.8-4.4,2.5-7.3,2.5c-2.9,0-5.3-0.5-7-1.5
		l0.6-0.7v-1l0.3-1.3l0.3-0.8c0.4,0,1.2,0.2,2.3,0.5c1.7,0.3,2.8,0.5,3.1,0.5c1.3,0,2.4-0.3,3.3-0.8c1-0.8,1.5-1.8,1.5-2.8
		c0-2.8-2.3-4.2-6.9-4.2h-1.8l-1.5,0.5l0.5-3.9l0.5-3.3c0.5-2.3,0.8-4.3,0.8-5.7h13.1v4.9h-9l-0.5,0.8v2.1l-0.3,0.8h1.5
		c2.3,0,4.3,0.5,6.4,1.3c1.9,1.3,2.8,3.4,2.8,6.1C313,119.2,312,121.2,310.2,122.5z M332,122.3c-1.8,1.8-3.8,2.5-6.2,2.5
		c-3.2,0-5.5-1-7.3-3.1c-1.8-2.1-2.6-4.5-2.6-7.4c0.2-4.3,1.6-7.9,4.5-10.5c2.8-2.3,6-3.4,9.6-3.6h2.1v4.3H330
		c-4.3,0.5-6.9,2.3-8,5.7h0.3c1.5-1.3,3.3-1.8,5.1-1.8c1.5,0,3.3,0.6,5.2,1.8c1.3,1.7,2.1,3.7,2.1,5.9
		C334.7,118.5,333.8,120.6,332,122.3z M354.7,104.5c-5.2,10.8-8.5,17.5-10.1,20.1h-5.7l4.7-9.3l5.2-9.7h-11.1l-0.2-5h17.2V104.5z
		 M372.9,123.2c-1.8,1.3-4.1,1.8-6.9,1.8c-2.4,0-4.4-0.8-6.2-2.3c-1.3-1-2.1-2.4-2.1-4.3c0-2.9,1.4-5,4.2-6.1
		c-2.4-1.1-3.6-2.8-3.6-5.4c0-1.8,0.8-3.3,2.3-4.6c1.6-1.3,3.6-1.8,6.2-1.8s4.6,0.6,6,1.8c1.4,1.3,2.1,2.8,2.1,4.3
		c-0.3,2.4-1.4,4.2-3.6,5.1v0.3c2.9,1,4.3,3,4.3,5.9C375.5,119.9,374.7,121.7,372.9,123.2z M436.8,121.7c-2.3,1.9-5.4,3-9,3.3h-2.6
		v-4.3h2.6c1.8,0,3.3-0.5,4.7-1.5c1.5-1.3,2.5-2.7,2.8-4.3c-1.1,1.3-2.6,1.8-4.7,1.8c-2.1,0-3.9-0.7-5.4-2.1
		c-1.3-1.4-2.1-3.2-2.1-5.4c-0.1-2.6,0.7-4.7,2.3-6.2c1.7-1.7,4-2.5,6.8-2.5s5,0.9,6.8,2.8c1.5,2.1,2.3,4.6,2.3,7.7
		C441.2,115.3,439.8,118.9,436.8,121.7z M456.5,124.5h-5.4v-18.7h-0.3l-0.8,0.5l-1.5,0.5c-0.8,0.5-1.5,0.9-2.1,1.3v-2.3l-0.5-1
		l-0.3-1.1l1.5-0.8l0.8-0.3l0.5-0.5l3.3-1.5h4.7V124.5z M481.7,125.1h-8.6l-8.8-0.5v-3.2c0.3-0.2,0.9-0.7,1.8-1.5l1.3-1.5
		c1.3-1,2.7-2.2,3.9-3.3l1.3-1.3l0.8-1c1.3-1.4,2.1-2.8,2.1-4.3c0-2.3-1.3-3.3-3.9-3.3c-0.8,0-1.8,0.2-2.8,0.5l-1,0.5l-1.3,0.8
		c-0.2-0.2-0.3-0.5-0.3-1.1l-0.5-1l-0.5-1.1l-0.5-0.8c2.3-1.7,4.9-2.5,8-2.5c2.6,0,4.7,0.8,6.2,2.4c1.3,1.3,2.1,3,2.1,5.4
		c0,2.9-2,6.3-6,10l-1.3,1l-1,1h9V125.1z M499.1,123.3c-1.9,1.4-4.3,2.1-7.3,2.1c-3.3,0-5.6-0.6-6.9-1.8l0.6-2.2l0.5-2.3l1,0.8h0.5
		l0.8,0.3l3.1,0.5c1.5,0,2.7-0.3,3.3-0.8c0.6-0.5,1.1-1.3,1.1-2.1c0-1.4-0.5-2.4-1.5-3.1c-0.5-0.5-1.5-0.8-3.2-0.8h-2.3v-3.9h2.3
		c0.8,0,1.8-0.3,2.8-0.8s1.5-1.3,1.5-2.1c0-1.7-1.3-2.5-3.6-2.5c-1.1,0-2.1,0.3-3.1,0.8l-2.1,0.8l-0.3-1.3l-0.3-1.3l-0.5-1.5
		c1.8-1.3,4.2-1.8,7.3-1.8c2.8,0,4.9,0.6,6.2,1.8c1.2,1.5,1.8,3,1.8,4.3c0,2.6-1.5,4.3-4.4,5.4c1.3,0.2,2.6,0.8,3.6,2.1
		c1.3,0.8,1.8,2.2,1.8,3.9C501.9,119.8,501,121.6,499.1,123.3z"/>
	<path d="M432.1,113.2c1.5,0,2.6-0.6,3.1-1.8V110l-0.3-1.8l-0.3-1.3c-0.5-1.3-1.4-1.8-2.6-1.8c-1,0-1.9,0.3-2.6,1
		c-0.5,0.8-0.8,1.9-0.8,3.1c0,1,0.3,1.9,0.8,2.5C430,112.7,430.9,113.2,432.1,113.2z"/>
	<path d="M367.1,110.6c0.5,0,1.1-0.3,1.5-1c0.5-0.7,0.8-1.4,0.8-2.3c0-1.9-0.8-2.8-2.6-2.8c-1.1,0-1.8,0.4-2.3,1.1
		c-0.3,0.7-0.5,1.3-0.5,1.8c0,0.8,0.3,1.6,1,2.3C365.7,110.3,366.4,110.6,367.1,110.6z"/>
	<path d="M366.9,122c0.8,0,1.6-0.5,2.3-1.3c0.4-0.3,0.5-1,0.5-2.1c0-1-0.3-1.8-1-2.5c-0.8-1-1.6-1.5-2.3-1.5c-0.7,0-1.4,0.5-2.1,1.5
		c-0.5,0.8-0.8,1.6-0.8,2.3c0,1,0.3,1.8,0.8,2.3C364.9,121.5,365.8,122,366.9,122z"/>
	<path d="M325.9,121.4c1,0,1.8-0.3,2.3-1c0.7-0.8,1.1-2,1.1-3.3c0-1.3-0.4-2.2-1.1-2.8c-0.7-0.7-1.5-1-2.6-1c-1.5,0-2.8,0.7-3.6,2.1
		v1.5c0,1.4,0.4,2.5,1.1,3.3C323.8,121.1,324.8,121.4,325.9,121.4z"/>
	<path d="M233.4,105.5l-0.8,1.3l-0.3,1c-0.4,0.7-0.7,1.4-1.1,2.1l-0.8,1.3l-1.1,1.3l-0.8,1.5l-0.3,0.8l-0.5,0.5h5.4L233.4,105.5
		L233.4,105.5z"/>
	<path d="M112.5,121.4c2.3,0,3.3-2.8,3.3-8.2c0-5.3-1.2-7.9-3.3-7.9c-2.4,0-3.6,2.7-3.6,7.9C108.8,118.7,110,121.4,112.5,121.4z"/>
	<path d="M91.9,121.4c2.3,0,3.3-2.8,3.3-8.2c0-5.3-1.2-7.9-3.3-7.9c-2.3,0-3.3,2.7-3.3,7.9C88.6,118.7,89.8,121.4,91.9,121.4z"/>
	<path d="M71.3,121.4c2.3,0,3.6-2.8,3.6-8.2c0-5.3-1.3-7.9-3.6-7.9c-2.3,0-3.3,2.7-3.3,7.9C67.8,118.7,69,121.4,71.3,121.4z"/>
	<path d="M50.8,121.4c2.3,0,3.3-2.8,3.3-8.2c0-5.3-1.1-7.9-3.3-7.9c-2.4,0-3.6,2.8-3.6,8.2C47.2,118.8,48.4,121.4,50.8,121.4z"/>
</g>
</svg>
