<?xml version="1.0" encoding="utf-8"?>
<!-- Generator: Adobe Illustrator 21.1.0, SVG Export Plug-In . SVG Version: 6.00 Build 0)  -->
<svg version="1.1" id="Layer_1" xmlns="http://www.w3.org/2000/svg" xmlns:xlink="http://www.w3.org/1999/xlink" x="0px" y="0px"
	 viewBox="0 0 550 512" style="enable-background:new 0 0 550 512;" xml:space="preserve">
<g id="Layer_2">
	<g id="Layer_3">
		<g>
			<path d="M550,283.7v-93.5H105.7V512H550V337.1H105.8v-53.4H550z M484,260.2l0.4-1.9l0.7,0.6h0.4l0.5,0.2l2.3,0.4
				c1.2,0,2-0.2,2.5-0.6c0.5-0.4,0.8-1,0.8-1.7c0-1.1-0.4-1.9-1.2-2.5c-0.4-0.4-1.2-0.6-2.4-0.6h-1.7V251h1.7c0.6,0,1.4-0.2,2.1-0.6
				c0.7-0.4,1.2-1,1.2-1.7c0-1.4-0.9-2.1-2.7-2.1c-0.8,0-1.5,0.2-2.4,0.6l-1.5,0.6l-0.2-1.1l-0.3-1.1l-0.4-1.3
				c1.3-1,3.1-1.4,5.5-1.4c2.1,0,3.6,0.5,4.6,1.4c0.8,1.3,1.4,2.5,1.4,3.6c0,2.1-1.1,3.6-3.3,4.4c1,0.1,1.9,0.7,2.7,1.7
				c0.9,0.7,1.4,1.8,1.4,3.1c0,1.6-0.7,3-2.1,4.4c-1.5,1.1-3.2,1.7-5.5,1.7c-2.5,0-4.2-0.5-5.2-1.4L484,260.2z M468.1,260.2
				c0.3-0.1,0.7-0.6,1.4-1.3l1-1.3c1-0.8,2-1.8,2.8-2.8l1-1.1l0.5-0.8c1-1.1,1.5-2.3,1.5-3.6c0-1.8-1-2.8-2.9-2.8
				c-0.6,0-1.4,0.1-2.1,0.4l-0.7,0.4l-1,0.6c-0.1-0.1-0.2-0.4-0.2-0.9l-0.4-0.8l-0.4-0.9l-0.4-0.6c1.6-1.4,3.6-2.1,6-2.1
				c1.9,0,3.5,0.6,4.6,1.9c1,1,1.5,2.5,1.5,4.4c0,2.4-1.5,5.2-4.5,8.2l-1,0.8l-0.7,0.8h6.7v4h-6.4l-6.6-0.4L468.1,260.2L468.1,260.2
				z M455.4,245l0.5-0.2l0.4-0.4l2.5-1.3h3.5v19.6h-4.1v-15.4H458l-0.5,0.4l-1.2,0.4c-0.6,0.4-1.2,0.8-1.5,1.1v-1.9l-0.4-0.8
				l-0.2-0.9L455.4,245z M439.2,245c1.3-1.4,3-2.1,5-2.1s3.7,0.8,5,2.3c1.2,1.7,1.7,3.8,1.7,6.3c0,3.6-1.1,6.6-3.3,8.9
				c-1.7,1.6-4.1,2.5-6.7,2.7H439v-3.6h1.9c1.3,0,2.5-0.4,3.5-1.3c1.2-1,1.9-2.2,2.1-3.6c-0.8,1-1.9,1.4-3.5,1.4
				c-1.5,0-2.8-0.6-4.1-1.7c-1-1.1-1.5-2.6-1.5-4.4C437.5,248,438,246.3,439.2,245z M389.1,248.2c0-1.4,0.5-2.7,1.7-3.8
				c1.2-1,2.7-1.4,4.6-1.4c1.9,0,3.5,0.5,4.5,1.4c1,1.1,1.5,2.3,1.5,3.6c-0.2,1.9-1,3.4-2.7,4.2v0.2c2.2,0.8,3.3,2.5,3.3,4.8
				c0,1.7-0.6,3.1-1.9,4.4c-1.3,1-3,1.4-5.2,1.4c-1.8,0-3.3-0.6-4.6-1.9c-1-0.8-1.5-2-1.5-3.6c0-2.4,1-4.1,3.1-5
				C390,251.8,389.1,250.3,389.1,248.2z M373.6,243.1h12.7v3.1c-3.9,8.9-6.4,14.3-7.6,16.5h-4.3l3.5-7.6l3.9-8h-8.3L373.6,243.1
				L373.6,243.1z M360.9,245.9c2.1-1.8,4.5-2.8,7.2-3h1.5v3.6h-1.5c-3.2,0.4-5.2,1.9-6,4.7h0.2c1.2-1,2.5-1.4,3.8-1.4
				c1.2,0,2.5,0.5,3.9,1.4c1,1.4,1.5,3,1.5,4.8c0,1.9-0.6,3.6-1.9,5c-1.3,1.4-2.8,2.1-4.6,2.1c-2.4,0-4.1-0.8-5.5-2.5
				c-1.4-1.7-1.9-3.7-1.9-6.1C357.6,250.8,358.7,248,360.9,245.9z M343.1,261.3v-0.8l0.3-1.1l0.2-0.6c0.3,0,0.8,0.1,1.7,0.4
				c1.3,0.3,2.1,0.4,2.3,0.4c0.9,0,1.7-0.2,2.5-0.6c0.7-0.7,1.2-1.4,1.2-2.3c0-2.3-1.7-3.4-5.2-3.4h-1.4l-1.2,0.4l0.4-3.1l0.4-2.7
				c0.4-1.9,0.5-3.5,0.5-4.7h9.7v4h-6.7l-0.4,0.6v1.7l-0.2,0.6h1.2c1.6,0,3.3,0.4,4.8,1.1c1.5,1.1,2.1,2.8,2.1,5
				c0,2.1-0.7,3.7-2.1,4.8c-1.5,1.4-3.3,2.1-5.5,2.1s-3.9-0.4-5.2-1.3L343.1,261.3z M287.8,255.2c0.6-0.8,1.3-1.9,1.9-3.3l0.4-0.6
				l0.4-0.4l0.8-1.4l1-1.9l0.7-1.4l1.5-2.8h5.2V255h2.1v3.3h-2.1v4.7h-3.8v-4.7h-8.1V255.2L287.8,255.2z M280.4,254.7
				c-0.8-0.4-1.6-0.6-2.7-0.6h-1.7V251h1.7l2.1-0.6c0.6-0.4,1-1,1-1.7c0-1.4-0.9-2.1-2.7-2.1h-0.8l-1.4,0.2l-0.7,0.4l-0.8,0.6
				l-0.4-1.9l-0.2-0.6c0-0.3-0.2-0.6-0.4-0.8c1.5-1,3.5-1.4,5.7-1.4c1.9,0,3.3,0.5,4.3,1.4c1.2,0.8,1.7,1.9,1.7,3.4
				c0,1.9-1.1,3.5-3.3,4.7c1.2,0.1,2.1,0.6,2.7,1.4c0.7,1,1.2,2.1,1.2,3.4c0,1.6-0.6,3-1.9,4.4c-1.7,1-3.6,1.4-5.5,1.4
				c-2.2,0-4-0.4-5.5-1.3c0.3-1.1,0.5-2.3,0.7-3.6l0.4,0.2l0.4,0.2l1.2,0.4l1.2,0.2l1.2,0.2c0.9,0,1.7-0.3,2.5-0.8
				c0.5-0.4,0.7-1.1,0.7-1.9C281.4,256.1,281,255.4,280.4,254.7z M257.8,260.2l0.5-0.6l0.5-0.6l1-1.3c1-0.8,2-1.8,2.9-2.8l1-1.1
				l0.7-0.8c0.9-1.4,1.4-2.6,1.4-3.6c0-1.9-1-3-2.8-3c-0.8,0-1.5,0.2-2.4,0.6c-0.4,0.3-0.9,0.6-1.5,1.1c-0.5-1.3-0.9-2.3-1.2-3.1
				c1.6-1.4,3.6-2.1,5.7-2.1s3.6,0.6,4.8,1.9c1.2,0.8,1.7,2.3,1.7,4.4c0,2.3-1.6,5-5,8.2l-0.2,0.4l-0.5,0.4l-0.7,0.6h6.7v3.8h-12.7
				L257.8,260.2L257.8,260.2z M243.9,245.7l1.9-1.1c0.9-0.6,1.7-1.1,2.7-1.4h3.5v19.6h-4.1v-15.4l-1.2,0.4l-0.4,0.4l-1,0.4l-0.5,0.2
				l-0.4,0.4c0-0.4-0.1-1.1-0.4-1.9l-0.2-0.8V245.7z M200.6,245.9c1.3-1.9,3-3,5.2-3c2.1,0,3.7,1,5.2,3c1,1.9,1.5,4.3,1.5,7.2
				c0,3.2-0.6,5.7-1.9,7.4c-1,1.8-2.7,2.7-5,2.7c-2.1,0.2-3.7-0.8-5-3c-1-2.1-1.5-4.5-1.5-7.2C198.9,250.2,199.3,247.9,200.6,245.9z
				 M185.3,245.9c1.3-1.9,3-3,5.2-3s3.8,1,5,3c1,1.9,1.5,4.3,1.5,7.2c0,3.1-0.5,5.5-1.5,7.4c-1.3,1.9-3,3-5,3c-2.2,0-3.9-1-5.2-3
				c-1-2.1-1.5-4.6-1.5-7.4C183.8,250.2,184.2,247.9,185.3,245.9z M169.8,245.9c1.5-1.9,3.2-3,5.4-3s3.9,1,5.2,3
				c0.9,1.7,1.4,4.1,1.4,7.2s-0.5,5.5-1.5,7.4c-1.5,1.9-3.2,3-5.2,3s-3.7-1-5.2-3c-1-2.1-1.5-4.6-1.5-7.4
				C168.3,250.2,168.8,247.9,169.8,245.9z M154.7,245.9c1.2-1.9,2.8-3,5-3c2.1,0,3.7,1,5.2,3c1,1.7,1.5,4.1,1.5,7.2
				c0,3.2-0.5,5.7-1.7,7.4c-1.2,1.9-2.9,3-5.2,3c-2.2,0-3.7-1-4.8-3c-1.2-1.7-1.7-4.1-1.7-7.2C153,250.2,153.6,247.7,154.7,245.9z
				 M435.8,404.8c8.4,0,15.8,4.2,20.8,10.7c4.9-6.5,12.4-10.7,20.8-10.7c14.8,0,27,13.3,27,29.7c0,16.3-12.1,29.6-27,29.6
				c-8.4,0-15.8-4.1-20.8-10.7c-5,6.5-12.4,10.7-20.8,10.7c-14.8,0-27-13.3-27-29.6C408.8,418,420.8,404.8,435.8,404.8z M255.9,419
				h91.4v32.8h-91.4V419z M164.5,419h60.9v32.8h-60.9V419z"/>
			<path d="M444.3,253.5c1.2,0,1.9-0.5,2.3-1.4v-1.3l-0.3-1.5l-0.2-1.1c-0.4-1-1-1.5-1.9-1.5c-0.7,0-1.5,0.3-1.9,0.8
				c-0.4,0.7-0.5,1.6-0.5,2.5c0,0.8,0.2,1.6,0.5,2.1C442.7,253,443.3,253.5,444.3,253.5z"/>
			<path d="M395.7,251.3c0.4,0,0.8-0.3,1.2-0.8c0.4-0.6,0.5-1.2,0.5-1.9c0-1.6-0.6-2.3-1.9-2.3c-0.8,0-1.4,0.3-1.7,0.9
				c-0.3,0.6-0.4,1.1-0.4,1.4c0,0.7,0.3,1.3,0.7,1.9C394.7,251.1,395.2,251.3,395.7,251.3z"/>
			<path d="M395.6,260.6c0.6,0,1.2-0.4,1.7-1.1c0.3-0.3,0.4-0.8,0.4-1.7c0-0.8-0.3-1.5-0.7-2.1c-0.6-0.8-1.2-1.3-1.7-1.3
				s-1,0.4-1.5,1.3c-0.4,0.7-0.5,1.3-0.5,1.9c0,0.8,0.2,1.4,0.5,1.9C394.1,260.2,394.7,260.6,395.6,260.6z"/>
			<path d="M365.1,260.2c0.7,0,1.4-0.3,1.7-0.8c0.5-0.7,0.8-1.6,0.8-2.8c0-1-0.3-1.8-0.8-2.3c-0.5-0.6-1.2-0.8-1.9-0.8
				c-1.2,0-2.1,0.6-2.7,1.7v1.3c0,1.1,0.3,2.1,0.8,2.8C363.5,259.9,364.2,260.2,365.1,260.2z"/>
			<path d="M295.9,247.1l-0.5,1.1l-0.2,0.8c-0.3,0.6-0.5,1.1-0.8,1.7l-0.5,1.1l-0.8,1.1l-0.5,1.3l-0.2,0.6l-0.4,0.4h4.1L295.9,247.1
				L295.9,247.1z"/>
			<path d="M205.8,260.2c1.6,0,2.5-2.3,2.5-6.7c0-4.3-0.8-6.5-2.5-6.5c-1.8,0-2.7,2.2-2.7,6.5C203.1,257.9,204,260.2,205.8,260.2z"
				/>
			<path d="M190.5,260.2c1.6,0,2.5-2.3,2.5-6.7c0-4.3-0.8-6.5-2.5-6.5c-1.6,0-2.5,2.2-2.5,6.5C187.9,257.9,188.9,260.2,190.5,260.2z
				"/>
			<path d="M175,260.2c1.7,0,2.7-2.3,2.7-6.7c0-4.3-0.9-6.5-2.7-6.5c-1.6,0-2.5,2.2-2.5,6.5C172.6,257.9,173.4,260.2,175,260.2z"/>
			<path d="M159.7,260.2c1.6,0,2.5-2.3,2.5-6.7c0-4.3-0.8-6.5-2.5-6.5c-1.8,0-2.7,2.3-2.7,6.7C157.1,258,158,260.2,159.7,260.2z"/>
			<path d="M408,0L0,193l82.9,211.2v-90.4L53,327.9l-19.2-49.1l49.1-23.2v-27.4c-1.1-1.3-2-2.9-2.7-4.7c-1-2.6-1.4-5-1.2-7.3
				c0.6-2.4,1.9-4.1,3.9-5l0,0V165H192l0.1-0.5l0.2-1.7l0.5-3.2l4.8-2.3l3,7.7h74l167.3-79.1L408,0z M79.6,231.8
				c-0.4,2.3-1.6,4-3.7,5c-2,0.9-3.8,0.7-5.5-0.6c-1.6-1.1-3-3-4.2-5.8c-1.2-2.7-1.5-5.3-1.1-7.5c0.4-2.3,1.5-4,3.6-4.9
				c1.9-0.9,3.8-0.7,5.8,0.4c1.5,1.1,2.9,3.1,4,5.9C79.6,227.2,80,229.7,79.6,231.8z M253,150.6c-0.9,2-2.3,3.4-4.3,4.3
				c-2,0.9-3.8,1.3-5.2,1.1l0.2-0.8l-0.3-0.8l-0.2-1.1l-0.1-0.6c0.3-0.1,0.8-0.3,1.8-0.4c1.3-0.3,2.1-0.5,2.3-0.6
				c0.8-0.4,1.5-0.9,2.1-1.7c0.5-1,0.5-1.8,0.2-2.6c-0.8-2.1-2.8-2.4-6-0.9l-1.3,0.6l-0.9,0.9l-0.7-3.1l-0.6-2.7
				c-0.4-2-0.7-3.5-1.2-4.5l9-4.2l1.5,3.7l-6.2,2.9l-0.2,0.8l0.6,1.6l0.1,0.6l1.1-0.5c1.5-0.7,3.1-1.1,4.8-1.1
				c1.7,0.4,3,1.7,3.7,3.7C254,147.1,253.9,149,253,150.6z M267.8,143.4c-0.7,1.9-1.8,3.1-3.6,3.9c-2.2,1-4.1,1-5.9,0.1
				c-1.8-1-3.1-2.6-4-4.8c-1.2-3.4-1.3-6.5,0-9.4c1.3-2.6,3.1-4.5,5.5-5.8l1.5-0.7l1.3,3.3l-1.5,0.7c-2.8,1.7-4.1,4-3.8,6.9l0.2-0.1
				c0.7-1.4,1.7-2.4,3-3c1.1-0.5,2.5-0.6,4.1-0.4c1.5,0.8,2.5,2.1,3.2,3.8C268.5,139.8,268.5,141.6,267.8,143.4z M277,141l-3.9,1.8
				l0.5-8.5l0.7-9l-7.6,3.6l-1.5-3.7l11.7-5.5l1.1,2.9C277.6,132.4,277.4,138.5,277,141z M296.1,130.7c-0.8,1.5-2.3,2.6-4.3,3.6
				c-1.6,0.8-3.3,0.9-4.9,0.3c-1.3-0.3-2.2-1.2-2.7-2.6c-0.8-2.2-0.5-4.2,1-6c-1.9,0-3.3-0.9-4.1-2.9c-0.5-1.3-0.5-2.7,0.2-4.2
				c0.7-1.4,1.9-2.5,3.7-3.3c1.8-0.8,3.4-1,4.6-0.6c1.4,0.6,2.3,1.5,2.7,2.6c0.5,1.9,0.3,3.6-0.9,5l0.1,0.2c2.3-0.2,3.9,0.8,4.7,3
				C296.9,127.4,296.9,129,296.1,130.7z M339.4,109c-1.1,2.2-2.8,4-5.2,5.4l-1.8,0.8l-1.3-3.3l1.8-0.8c1.2-0.6,2.1-1.5,2.7-2.7
				c0.7-1.4,0.9-2.8,0.6-4.2c-0.4,1.3-1.3,2.2-2.6,2.8c-1.5,0.7-2.8,0.7-4.4,0.2c-1.4-0.6-2.4-1.7-3-3.4c-0.7-1.9-0.8-3.7-0.2-5.4
				c0.6-1.8,2-3.2,3.9-4.1c1.9-0.9,3.6-0.9,5.5-0.1c1.6,1.1,2.9,2.7,3.8,5C340.6,102.7,340.7,105.9,339.4,109z M350,106.5l-5.6-14.1
				l-0.2,0.1l-0.4,0.7l-0.9,0.9c-0.5,0.7-0.8,1.2-1,1.7l-0.6-1.7l-0.6-0.6l-0.5-0.7l0.7-1.1l0.5-0.4l0.2-0.6l1.8-2.3l3.2-1.5l7.1,18
				L350,106.5z M365.1,99.6l-6.2,2.5l-0.8-2.2h0.1c0.2-0.2,0.5-0.8,0.8-1.7l0.5-1.6c0.6-1.2,1.2-2.5,1.6-3.8l0.5-1.4l0.3-1
				c0.5-1.5,0.5-2.8,0.1-4c-0.6-1.7-1.9-2.1-3.6-1.3c-0.5,0.3-1.2,0.7-1.8,1.3l-0.5,0.7l-0.6,1c-0.2-0.1-0.3-0.3-0.5-0.7l-0.6-0.6
				l-0.7-0.6l-0.6-0.4c1-2,2.6-3.5,4.7-4.5c1.8-0.8,3.5-0.9,4.9-0.3c1.3,0.5,2.3,1.6,3,3.4c0.8,2.2,0.5,5.4-1.2,9.5l-0.6,1.2
				l-0.4,1.1l6.2-2.9l1.5,3.6L365.1,99.6z M382.5,89.9c-0.9,1.7-2.4,2.9-4.4,3.9c-2.3,1.1-4,1.4-5.3,0.9l-0.2-1.8l-0.3-1.9l0.9,0.3
				l0.4-0.2l0.6-0.1l2.3-0.6c1.1-0.5,1.7-1,2.1-1.7c0.3-0.6,0.4-1.3,0.1-1.9c-0.4-1-1.1-1.6-1.9-1.8c-0.5-0.2-1.3-0.1-2.4,0.4
				l-1.5,0.7l-1.1-2.9l1.5-0.7c0.5-0.3,1.2-0.8,1.7-1.5s0.7-1.4,0.5-2.1c-0.5-1.3-1.5-1.5-3.2-0.7c-0.7,0.3-1.4,0.8-1.9,1.6
				l-1.2,1.2l-0.5-0.9l-0.6-0.9l-0.8-1c0.8-1.5,2.3-2.7,4.5-3.7c1.9-0.9,3.5-1.1,4.7-0.7c1.3,0.8,2.2,1.7,2.5,2.7
				c0.7,2,0.3,3.8-1.5,5.5c1-0.3,2-0.2,3.1,0.4c1.1,0.2,1.9,1,2.4,2.3C383.5,86.3,383.4,88,382.5,89.9z M460.9,135l-63.5,30h75.3
				L460.9,135z"/>
			<path d="M333.7,104.1c1.1-0.5,1.6-1.3,1.5-2.3l-0.5-1.2l-0.7-1.3l-0.5-0.9c-0.7-0.7-1.5-0.9-2.4-0.5c-0.7,0.3-1.2,0.9-1.5,1.6
				c-0.1,0.8,0,1.7,0.4,2.6c0.3,0.8,0.7,1.4,1.3,1.7C332.1,104.3,332.8,104.5,333.7,104.1z"/>
			<path d="M288.4,123.2c0.4-0.2,0.6-0.6,0.7-1.2c0.2-0.7,0.1-1.3-0.2-2c-0.5-1.4-1.5-1.9-2.6-1.3c-0.7,0.3-1.2,0.9-1.3,1.6
				c0,0.6,0,1.2,0.2,1.5c0.3,0.6,0.7,1.1,1.4,1.4C287.3,123.4,287.8,123.4,288.4,123.2z"/>
			<path d="M291.6,131.8c0.5-0.3,1-0.9,1.2-1.7c0.2-0.4,0.1-0.9-0.3-1.7c-0.3-0.8-0.7-1.3-1.5-1.6c-0.9-0.5-1.5-0.6-2.1-0.4
				c-0.5,0.2-0.8,0.9-1,1.8c-0.1,0.8-0.1,1.5,0.2,2c0.3,0.8,0.6,1.3,1.2,1.5C290.1,132.1,290.8,132.1,291.6,131.8z"/>
			<path d="M263.3,144.6c0.7-0.3,1.2-0.8,1.3-1.5c0.2-0.9,0.2-1.8-0.3-2.9c-0.4-0.9-0.9-1.5-1.5-1.8c-0.6-0.3-1.4-0.3-2.1,0.1
				c-1.1,0.5-1.7,1.4-1.8,2.7l0.5,1.2c0.4,1,1,1.8,1.7,2.2C261.8,145,262.6,145,263.3,144.6z"/>
			<path d="M74.9,233.8c1.5-0.7,1.5-3.2-0.1-7.3c-1.5-4-3.1-5.7-4.6-4.9c-1.6,0.8-1.6,3.2-0.1,7.3C71.6,233,73.2,234.6,74.9,233.8z"
				/>
		</g>
	</g>
</g>
<g id="Layer_3_1_">
</g>
</svg>
