<?xml version="1.0" encoding="utf-8"?>
<!-- Generator: Adobe Illustrator 22.0.1, SVG Export Plug-In . SVG Version: 6.00 Build 0)  -->
<svg version="1.1" id="Layer_1" xmlns="http://www.w3.org/2000/svg" xmlns:xlink="http://www.w3.org/1999/xlink" x="0px" y="0px"
	 viewBox="0 0 305.8 512" style="enable-background:new 0 0 305.8 512;" xml:space="preserve">
<g>
	<path d="M47.4,62.3h-7c-8.5,0-15.4,6.9-15.4,15.4v382.8h0.6l6.1,41c0.9,6,6.1,10.5,12.2,10.5c6.1,0,11.3-4.5,12.2-10.5l6.1-41h0.6
		V77.7C62.8,69.2,55.9,62.3,47.4,62.3z"/>
	<path d="M120.7,62.3h-7c-8.5,0-15.4,6.9-15.4,15.4v382.8h0.6l6.1,41c0.9,6,6.1,10.5,12.2,10.5c6.1,0,11.3-4.5,12.2-10.5l6.1-41h0.6
		V77.7C136,69.2,129.2,62.3,120.7,62.3z"/>
	<path d="M193.9,62.3h-7c-8.5,0-15.4,6.9-15.4,15.4v382.8h0.6l6.1,41c0.9,6,6.1,10.5,12.2,10.5s11.3-4.5,12.2-10.5l6.1-41h0.6V77.7
		C209.3,69.2,202.4,62.3,193.9,62.3z"/>
	<path d="M126.8,12.5V29H97.4v8.5c0,2.9-2.4,5.3-5.3,5.3H74.3c-2.9,0-5.3-2.4-5.3-5.3V29H57.8v8.5c0,2.9-2.4,5.3-5.3,5.3H34.7
		c-2.9,0-5.3-2.4-5.3-5.3V29H0V12.5h29.4V5.3c0-2.9,2.4-5.3,5.3-5.3h17.8c2.9,0,5.3,2.4,5.3,5.3v7.2H69V5.3C69,2.4,71.3,0,74.3,0
		h17.8c2.9,0,5.3,2.4,5.3,5.3v7.2H126.8z"/>
	<path d="M305.8,62.3L299,75.8l-24.2-12.2l-3.5,7c-1.2,2.4-4.1,3.4-6.6,2.2L250,65.5c-2.4-1.2-3.4-4.1-2.2-6.6l3.5-7l-9.2-4.6
		l-3.5,7c-1.2,2.4-4.1,3.4-6.6,2.2l-14.7-7.4c-2.4-1.2-3.4-4.1-2.2-6.6l3.5-7l-24.2-12.2l6.8-13.6l24.2,12.2l3-5.9
		c1.2-2.4,4.1-3.4,6.6-2.2l14.7,7.4c2.4,1.2,3.4,4.1,2.2,6.6l-3,5.9l9.2,4.6l3-5.9c1.2-2.4,4.1-3.4,6.6-2.2l14.7,7.4
		c2.4,1.2,3.4,4.1,2.2,6.6l-3,5.9L305.8,62.3z"/>
</g>
</svg>
