<?xml version="1.0" encoding="utf-8"?>
<!-- Generator: Adobe Illustrator 22.0.1, SVG Export Plug-In . SVG Version: 6.00 Build 0)  -->
<svg version="1.1" id="Layer_1" xmlns="http://www.w3.org/2000/svg" xmlns:xlink="http://www.w3.org/1999/xlink" x="0px" y="0px"
	 viewBox="0 0 483 512" style="enable-background:new 0 0 483 512;" xml:space="preserve">
<g>
	<path d="M295.3,393.5c-22.1,8.5-37.7,29.9-37.7,54.9c0,5.9,0.9,11.7,2.6,17.1c-0.4-3-0.5-5.9-0.5-9
		C259.6,429.9,273.9,406.4,295.3,393.5z"/>
	<path d="M314.2,389.5c-2.8,0.1-5.6,0.5-8.3,1c-25.9,10.9-44.1,36.4-44.1,66.1c0,6.6,0.9,13,2.6,19c0.9,1.8,1.9,3.5,3,5.1
		c-2.1-6.8-3.2-14-3.2-21.5C264.2,427,285.1,399.5,314.2,389.5z"/>
	<path d="M326.8,390.3c-1.8-0.3-3.6-0.5-5.5-0.6c-31.6,7.6-55,35.9-55,69.6c0,9.6,1.9,18.8,5.4,27.2c3.2,3.8,6.9,7.2,11,10
		c-5.8-10.5-9.1-22.6-9.1-35.4C273.5,427.5,296,399.3,326.8,390.3z"/>
	<path d="M333.7,391.9c-0.8-0.2-1.6-0.5-2.4-0.6c-31.9,7.4-55.7,35.9-55.7,69.8c0,14,4,27,11,38c0.9,0.5,1.7,1,2.6,1.5
		c-6.5-11-10.3-23.8-10.3-37.5C278.9,429,302.1,400.4,333.7,391.9z"/>
	<path d="M337.4,393.1c-32.2,7.2-56.3,35.8-56.3,69.9c0,14.5,4.3,27.9,11.8,39.2c7.4,3.3,15.5,5.1,24.1,5.1
		c32.8,0,59.3-26.4,59.3-58.9C376.2,423,360.1,401.4,337.4,393.1z"/>
	<path d="M481.9,36c-22.6,24.4-44.1,44-66.7,68.4c-40.5,43.7-57.7,71.2-64.4,83.6l12.6,11.5c4.4,4,4.7,10.8,0.6,15.2l-268,289.2
		c-9.6,10.3-25.7,10.9-36,1.4L8.1,457.1c-10.2-9.5-10.8-25.4-1.4-35.6l269.9-290.9c2.9-3.1,7.8-3.3,10.9-0.5l15,13.7
		c11.9-7.7,38-27,78.4-70.8c22.6-24.4,40.4-47.4,63-71.8C451.8-7.1,489.2,28.1,481.9,36z"/>
</g>
</svg>
