<?xml version="1.0" encoding="utf-8"?>
<!-- Generator: Adobe Illustrator 21.1.0, SVG Export Plug-In . SVG Version: 6.00 Build 0)  -->
<svg version="1.1" id="Layer_1" xmlns="http://www.w3.org/2000/svg" xmlns:xlink="http://www.w3.org/1999/xlink" x="0px" y="0px"
	 viewBox="0 0 512 512" style="enable-background:new 0 0 512 512;" xml:space="preserve">
<style type="text/css">
	.st0{fill:#010101;}
</style>
<polygon class="st0" points="349,318.1 349,213.9 212.9,350 512,350 512,422 421,422 421,512 349,512 349,422 140.9,422 50.9,512 
	0,512 0,461.1 97,364.1 97,163 0,163 0,91 97,91 97,0 169,0 169,292.1 298.1,163 193.9,163 193.9,91 370.1,91 461.1,0 512,0 
	512,50.9 421,141.9 421,318.1 "/>
</svg>
