<?xml version="1.0" encoding="utf-8"?>
<!-- Generator: Adobe Illustrator 21.1.0, SVG Export Plug-In . SVG Version: 6.00 Build 0)  -->
<svg version="1.1" id="Layer_4" xmlns="http://www.w3.org/2000/svg" xmlns:xlink="http://www.w3.org/1999/xlink" x="0px" y="0px"
	 viewBox="0 0 512 512" style="enable-background:new 0 0 512 512;" xml:space="preserve">
<path d="M256.5,190.7c-35.9,0-65.1,29.1-65.1,65s29.1,65,65.1,65c35.9,0,65-29.1,65-65S292.4,190.7,256.5,190.7z M256.5,298.4
	c-23.5,0-42.6-19.1-42.6-42.6s19.1-42.6,42.6-42.6s42.6,19.1,42.6,42.6S280,298.4,256.5,298.4z M256.5,190.7
	c-35.9,0-65.1,29.1-65.1,65s29.1,65,65.1,65c35.9,0,65-29.1,65-65S292.4,190.7,256.5,190.7z M256.5,298.4
	c-23.5,0-42.6-19.1-42.6-42.6s19.1-42.6,42.6-42.6s42.6,19.1,42.6,42.6S280,298.4,256.5,298.4z M439.4,232.1
	c-10.6-82.9-76.3-148.6-159.2-159.2V0h-47.6v72.9C149.8,83.6,84.2,149.2,73.5,232.1h-73v47.6h73c10.7,82.8,76.3,148.3,159.1,159v73
	h47.6v-73C363,428,428.7,362.5,439.4,279.6h72.9V232h-72.9V232.1z M399.4,279.7c-10.1,61-58.2,109.1-119.2,119.1v-50h-47.6v50
	c-60.9-10.1-109-58.2-119.1-119.1h50v-47.6h-50.1c10-61,58.2-109.2,119.1-119.2V163h47.6v-50.2c61,10,109.2,58.2,119.2,119.3h-50.2
	v47.6H399.4z M256.5,190.7c-35.9,0-65.1,29.1-65.1,65s29.1,65,65.1,65c35.9,0,65-29.1,65-65S292.4,190.7,256.5,190.7z M256.5,298.4
	c-23.5,0-42.6-19.1-42.6-42.6s19.1-42.6,42.6-42.6s42.6,19.1,42.6,42.6S280,298.4,256.5,298.4z"/>
</svg>
