<?xml version="1.0" encoding="utf-8"?>
<!-- Generator: Adobe Illustrator 21.1.0, SVG Export Plug-In . SVG Version: 6.00 Build 0)  -->
<svg version="1.1" id="Layer_1" xmlns="http://www.w3.org/2000/svg" xmlns:xlink="http://www.w3.org/1999/xlink" x="0px" y="0px"
	 viewBox="0 0 550 512" style="enable-background:new 0 0 550 512;" xml:space="preserve">
<path d="M472.9,447.1H69.8c-4.9,0-9.9,5-9.9,9.9c0,5,4.9,9.9,9.9,9.9h403.1c4.9,0,9.9-5,9.9-9.9
	C482.8,452.1,477.8,447.1,472.9,447.1z M139.2,108.3c-2.2,20.3-6.7,50.6-13.5,70.8c15.7,18,26.9,40.6,35.9,60.8
	c4.5-20.3,11.2-42.8,22.4-63.1c-13.5-18-24.7-48.3-33.7-68.6c11.2-4.5,18-13.5,18-24.8c0-15.8-11.2-27.1-26.9-27.1
	c-13.5,0-24.7,11.3-24.7,27.1C116.7,97.1,125.7,108.3,139.2,108.3z M388.4,240.1c9-20.3,20.2-42.8,35.9-60.8
	c-6.7-20.3-11.2-50.6-13.5-70.8c13.5,0,22.4-11.3,22.4-24.8c0-15.8-11.2-27.1-24.7-27.1c-15.7,0-26.9,11.3-26.9,27.1
	c0,11.3,6.7,20.3,18,24.8c-9,20.3-20.2,50.6-33.7,68.6C377.2,197.2,383.9,219.7,388.4,240.1z M523.2,88.1
	c-13.5,0-24.7,13.5-24.7,27.1c0,4.5,0,6.8,2.2,11.3c-53.9,11.3-96.5,75.3-114.5,142.9c-6.7-78.9-47.1-154.2-101-174.5
	c9-4.5,15.7-13.5,15.7-24.8c0-15.8-11.2-27.1-24.7-27.1c-15.7,0-26.9,11.3-26.9,27.1c0,11.3,6.7,20.3,15.7,24.8
	c-53.9,20.3-94.3,95.6-101,174.5c-17.9-67.6-60.5-131.7-114.5-142.9c2.2-4.5,2.2-6.8,2.2-11.3c0-13.5-11.2-27.1-24.7-27.1
	C11.2,88.1,0,101.5,0,115.1c0,15.8,11.2,27.1,26.9,27.1c6.7,0,11.2-2.3,15.7-6.8C74,182.7,87.8,367,87.8,367s84.8,0,189,0
	c103.1,0,185.4,0,185.4,0s13.8-184.2,45.2-231.6c4.5,4.5,9,6.8,15.7,6.8c15.7,0,26.9-11.3,26.9-27.1
	C550.1,101.6,538.9,88.1,523.2,88.1z M275,185.7c-5.6,0-10.1-4.5-10.1-10.1c0-5.6,4.5-10.1,10.1-10.1c5.6,0,10.1,4.5,10.1,10.1
	C285.2,181.1,280.6,185.7,275,185.7z M462.9,372.4H86.5l-15.1,59.8H478L462.9,372.4z M106.2,407.2c-3.3,0-4.9-1.6-4.9-3.3
	c0-3.3,1.6-5,4.9-5c1.6,0,3.3,1.6,3.3,5C109.5,405.6,107.8,407.2,106.2,407.2z M160.7,407.2c-1.6,0-4.9-1.6-4.9-3.3
	c0-3.3,3.3-5,4.9-5c1.6,0,4.9,1.6,4.9,5C165.7,405.6,162.4,407.2,160.7,407.2z M215.2,407.2c-1.6,0-3.3-1.6-3.3-3.3
	c0-3.3,1.6-5,3.3-5c3.3,0,4.9,1.6,4.9,5C220.1,405.6,218.5,407.2,215.2,407.2z M271.3,407.2c-3.3,0-4.9-1.6-4.9-3.3
	c0-3.3,1.6-5,4.9-5c1.6,0,3.3,1.6,3.3,5C274.7,405.6,273,407.2,271.3,407.2z M325.9,407.2c-1.6,0-4.9-1.6-4.9-3.3c0-3.3,3.3-5,4.9-5
	c1.6,0,4.9,1.6,4.9,5C330.8,405.6,327.5,407.2,325.9,407.2z M380.4,407.2c-1.6,0-3.3-1.6-3.3-3.3c0-3.3,1.6-5,3.3-5
	c3.3,0,4.9,1.6,4.9,5C385.4,405.6,383.7,407.2,380.4,407.2z M436.5,407.2c-3.3,0-4.9-1.6-4.9-3.3c0-3.3,1.6-5,4.9-5
	c1.6,0,3.3,1.6,3.3,5C439.8,405.6,438.2,407.2,436.5,407.2z"/>
</svg>
