<?xml version="1.0" encoding="utf-8"?>
<!-- Generator: Adobe Illustrator 21.1.0, SVG Export Plug-In . SVG Version: 6.00 Build 0)  -->
<svg version="1.1" id="Layer_1" xmlns="http://www.w3.org/2000/svg" xmlns:xlink="http://www.w3.org/1999/xlink" x="0px" y="0px"
	 viewBox="0 0 512 512" style="enable-background:new 0 0 512 512;" xml:space="preserve">
<g>
	<g>
		<path d="M323.7,131.6c-20.7,0-41.3,0-62,0c-24.2,0-48.4,0-72.6,0c-1.2,0-2.3,0.1-3.5,0.4c-7.4,2.1-11.7,12-9,20.1
			c1.8,5.8,6.9,10.1,12.5,10c30.3,0,60.5,0,90.8,0c12.6,0,25.3,0,37.9,0c4-0.1,8.3,0.6,11.9-1.8c5.5-3.2,8.2-11.1,6.4-17.8
			C334.7,136.3,329.4,131.5,323.7,131.6z M158.4,88.7c7,10,14.8,19.5,23.2,28c22.1,0,44.1,0,66.2,0c27.2,0,54.6,0,81.8,0
			c1.5,0.2,2.4-1.3,3.4-2.2c12.6-13.5,24.6-28.4,32.6-46.1c3.3-7.5,5.7-16.3,4.1-24.7c-1.5-7.3-6.6-12.9-12.5-15.8
			c-7.1-3.5-15.3-2.9-22.8-1.5c-18.7,4.4-25.3,8-45,16.4c-7,2.9-11.9-12.3-31.5-12.6c-17.6-0.3-22.3,16.5-29,13.4
			c-18.2-8.5-25.4-9.3-44.4-15.4c-7.3-2.3-15-3.5-22.5-2.4c-6.8,1.1-13.5,5.3-17.2,12.1c-3,5.4-3,12.2-2,18.4
			C145.4,68.3,151.8,78.9,158.4,88.7z M426.8,330.9c-9.6-29-22.2-56.8-37.4-82.6c-16.1-27-35.3-51.9-58.5-71.3
			c-13.3,0-26.5,0-39.9,0c-36.5,0-73,0-109.5,0c-27.5,23-49.4,53.7-67.1,86.5c-17.3,32.5-30.8,67.6-39,104.5
			c-4.1,19-6.8,38.4-6.5,58.1c0.4,14.2,2.4,28.9,8.4,41.6c7.2,16,20.9,26.9,35.4,32.7c24.1,9.6,50.1,10.4,75.3,11.2
			c20.8,0,65.6,0.1,65.6,0.1c35,0,69.2,1.3,104.1-1.9c18.3-2,37-5.3,53.4-15.3c12.2-7.4,22.2-19.8,26.9-34.5
			c6.5-19.7,6.1-41.2,3.9-61.7C439.5,375.3,433.9,352.7,426.8,330.9z M95.5,88.7c-5.8,0-10.6,6.3-10.3,13c0,6.4,4.7,12.6,10.3,12.4
			c13.2,0,26.4,0,39.6,0c-5.5-8-10.3-16.6-14.5-25.5C112.1,88.7,103.8,88.6,95.5,88.7z M81.1,66.5c2.8,3.3,5.5,6.9,8.7,9.6
			c8.6,0.2,17.3,0,25.9,0.1c-3.9-12-6.1-25.3-3.8-38.1c1.4-8.1,4.3-15.8,8.4-22.5C108.3,9.2,96.3,2.4,83.3,0.4
			c-7.5-1.2-16.1,0.4-21.3,7.4c-5,6.1-4.5,15.6-2.1,22.9C64.4,44.4,72.7,55.9,81.1,66.5z M146.1,128.8c-0.4-0.5-1.3-1.6-1.8-2.2
			c-17.6,0-35.1,0-52.6,0c-2.1-0.3-3.8,1.6-5.5,3c-22.8,21.3-40.8,49-55,78.8C15.3,242.4,3.3,279.6,0,318.6v24.1
			c1.1,11.2,3.7,22.6,9.3,31.9c7.6,12.9,20.1,20.5,32.7,24.4c3.3-34.8,12.2-68.5,23.9-100.6c18.6-50.4,45.1-97.5,80-134.2
			C142.2,152.8,142.5,140,146.1,128.8z M426.7,101.7c0.3-6.7-4.6-13-10.3-13c-8.4-0.1-16.7,0-25.1,0c-4.3,8.9-9.1,17.6-14.5,25.5
			c13.2,0,26.4,0,39.6,0C422,114.4,426.7,108.1,426.7,101.7z M396.2,76.2c8.6-0.1,17.3,0.1,25.9-0.1c3.2-2.7,5.9-6.3,8.7-9.6
			c8.4-10.6,16.7-22,21.2-35.8c2.3-7.4,2.8-16.9-2.1-22.9c-5.2-7-13.8-8.6-21.3-7.4c-13,2-25,8.9-36.8,15.3c4,6.7,7,14.3,8.4,22.5
			C402.4,50.9,400.2,64.2,396.2,76.2z M480.7,208.4c-14.2-29.8-32.2-57.6-55-78.8c-1.7-1.4-3.2-3.3-5.5-3c-17.6,0-35.1,0-52.6,0
			c-0.4,0.5-1.4,1.6-1.8,2.2c3.6,11.2,3.9,24,0.3,35.2c34.9,36.6,61.4,83.7,80,134.2c11.7,32.1,20.5,65.8,23.9,100.6
			c12.6-3.9,25.1-11.4,32.7-24.4c5.6-9.3,8.2-20.7,9.3-31.9v-24.1C508.6,279.6,496.6,242.4,480.7,208.4z"/>
	</g>
</g>
</svg>
