<?xml version="1.0" encoding="utf-8"?>
<!-- Generator: Adobe Illustrator 21.1.0, SVG Export Plug-In . SVG Version: 6.00 Build 0)  -->
<svg version="1.1" id="Layer_1" xmlns="http://www.w3.org/2000/svg" xmlns:xlink="http://www.w3.org/1999/xlink" x="0px" y="0px"
	 viewBox="0 0 404.9 512" style="enable-background:new 0 0 404.9 512;" xml:space="preserve">
<path d="M96.8,66.6c7.6,10.6,16,20.5,25.1,29.5c23.8,0,131.4,0,160.8,0c1.6,0.2,29.3-32.2,37.9-50.8c3.6-7.9,6.1-17.1,4.4-26
	C318.8-4,295-0.3,286.9,1.2c-20.2,4.6-27.3,8.4-48.6,17.2c-7.6,3.1-12.9-13-34.1-13.3c-19-0.3-24.1,17.3-31.3,14.1
	c-19.6-9-54.6-21.2-72.3-18.7c-7.4,1.2-24.9,8-20.7,32.1C82.8,45.2,89.6,56.4,96.8,66.6z M403.3,392.4
	c-1.9-60.6-52.5-177.3-120.1-232.8c-14.3,0-122,0-161.4,0C55.4,212.6,17.6,311,7.1,360.5c-4.4,20-7.4,40.4-7.1,61.1
	c0.4,15,2.6,30.4,9.1,43.8c7.8,16.8,22.6,28.3,38.3,34.4c26,10.1,54.1,11,81.4,11.8c22.5,0,145.6,1.5,183.3-1.9
	c19.8-2.1,40-5.6,57.7-16c13.2-7.8,23.9-20.8,29.1-36.3C406.1,436.7,405.7,414,403.3,392.4z M273.3,111.8H131.6c-8.9,0-16,7.2-16,16
	l0,0c0,8.9,7.2,16,16,16h141.6c8.8,0,16-7.2,16-16l0,0C289.3,119,282.1,111.8,273.3,111.8z"/>
</svg>
