<?xml version="1.0" encoding="utf-8"?>
<!-- Generator: Adobe Illustrator 21.1.0, SVG Export Plug-In . SVG Version: 6.00 Build 0)  -->
<svg version="1.1" id="Layer_5" xmlns="http://www.w3.org/2000/svg" xmlns:xlink="http://www.w3.org/1999/xlink" x="0px" y="0px"
	 viewBox="0 0 550 512" style="enable-background:new 0 0 550 512;" xml:space="preserve">
<g>
	<rect x="487.1" y="107.1" width="62.9" height="72"/>
	<rect x="386.2" y="107.1" width="62.9" height="72"/>
	<rect x="285.3" y="107.1" width="62.9" height="72"/>
	<rect x="487.1" y="440" width="62.9" height="72"/>
	<rect x="487.1" y="336.1" width="62.9" height="72"/>
	<rect x="487.1" y="216.6" width="62.9" height="72"/>
	<rect x="386.2" y="440" width="62.9" height="72"/>
	<rect x="98.1" y="440" width="62.9" height="72"/>
	<rect x="98.1" y="336.1" width="62.9" height="72"/>
	<rect x="186.2" y="440" width="62.9" height="72"/>
	<rect x="290.6" y="440" width="62.9" height="72"/>
	<path d="M183.8,158.3l116-156.9c0,0-53.5,42-100.9,83.3c-20.1,17.5-45.2,50.5-53.3,61.4l-55.9-14.4c0.9-22.2-16-42.6-39.1-46.3
		c-24.3-4-46.3,11.9-49.1,35.3c-2.8,23.5,14.6,45.7,38.9,49.7c19.2,3.1,36.9-6.1,44.9-21.7l32.1,8.2l17.4,20.2l-2.6,22L105.9,235
		c-15.9-7.6-36.5,0.2-49.4,19.9C41.8,277.7,43,307.7,59.3,322c16.2,14.3,41.4,7.4,56.2-15.4c12.9-19.9,13.6-45.5,2.6-61.1l36.7-50.2
		l1.3-1.3l0.4-0.9c12.7,3.7,48.7,13.7,73.2,14.6c59.2,2.3,123.8,1,123.8,1L183.8,158.3z M68,131.6c-1.5,12.1-12.8,20.2-25.2,18.2
		s-21.5-13.5-20-25.6S35.5,104,48,106C60.5,108.1,69.5,119.5,68,131.6z M101.2,294.1c-7.6,11.7-20.5,15.3-28.9,7.9
		c-8.4-7.3-9-22.8-1.4-34.5c7.6-11.7,20.5-15.3,28.9-7.9C108.2,266.9,108.8,282.4,101.2,294.1z M163.1,175.3
		c-3.2,3.8-8.5,3.8-11.7,0c-3.2-3.8-3.2-9.9,0-13.6c3.2-3.8,8.5-3.8,11.7,0C166.4,165.4,166.4,171.5,163.1,175.3z"/>
</g>
</svg>
