<?xml version="1.0" encoding="utf-8"?>
<!-- Generator: Adobe Illustrator 21.1.0, SVG Export Plug-In . SVG Version: 6.00 Build 0)  -->
<svg version="1.1" id="Layer_1" xmlns="http://www.w3.org/2000/svg" xmlns:xlink="http://www.w3.org/1999/xlink" x="0px" y="0px"
	 viewBox="0 0 512 512" style="enable-background:new 0 0 512 512;" xml:space="preserve">
<g>
	<path d="M338.6,0l-55.3,34.1c-22.9,14.1-38.9,40.4-41.8,68.7l-13.8,110.7l61.9-13.1L338.6,0z"/>
	<path d="M114.2,224.9l-0.1-0.1c-10.1-6.3-21.1-9.9-32.2-10.9l0,0l-33.5-6.7c-5.9-1.2-11.4,3.3-11.4,9.3v7.1
		c-10.1,5.9-19,14.2-25.6,24.9C0.9,265.4-2.4,285.4,2,304.8c4.5,19.4,16.2,35.9,33.1,46.4c12.3,7.6,25.9,11.3,39.4,11.3
		c24.8,0,49.1-12.4,63.2-34.8c5.7-8.3,9.3-18.1,10.7-29.3v-0.1v-0.1l262-25c28-2.9,54.1-18.7,68-41.3l33.2-53.8L144,260.7
		C138.2,246.3,128.1,234,114.2,224.9z M109.4,309.2c-0.3,0.5-0.6,0.9-0.9,1.4c-1.8,2.7-3,4.6-4.9,6.5c-5.4,5.4-12.3,9.2-19.9,11.2
		c-22.5,4.8-44.6-9-49.4-30.9l-0.1-0.4c-2.8-10.2-1.2-20.5,4.8-30.6c5.8-8.5,14.9-14.9,25.8-17.9c21.8-4.6,43.9,8.8,49.4,30.1v0.1
		C117,288.8,115.4,299.1,109.4,309.2z"/>
	<path d="M382,130c3,3,7.1,4.7,11.1,4.7c3.6,0,7-1.4,9.5-3.8l19-19c5.4-5.4,5-14.7-0.9-20.6c-2.8-2.8-6.4-4.4-10.1-4.7
		c-4-0.3-7.8,1.1-10.4,3.8l-19,19c-2.8,2.8-4.2,6.8-3.8,11C377.7,124,379.3,127.4,382,130z"/>
	<path d="M425.8,86.1c2.6,2.6,6,4.3,9.6,4.7c0.5,0.1,1,0.1,1.5,0.1c3.6,0,7-1.4,9.5-3.8l19-19c2.8-2.8,4.2-6.8,3.8-11
		c-0.4-3.5-2-6.9-4.7-9.6c-5.9-5.9-15.2-6.3-20.6-0.9l-19,19c-2.8,2.8-4.2,6.8-3.8,11C421.5,80.1,423.2,83.5,425.8,86.1z"/>
	<path d="M468.6,43.4c2.6,2.6,6,4.3,9.6,4.7c0.5,0.1,1,0.1,1.5,0.1c3.6,0,7-1.4,9.5-3.8l19-19c2.8-2.8,4.2-6.8,3.8-11
		c-0.4-3.5-2-7-4.7-9.6c-5.9-5.9-15.2-6.3-20.6-0.9l-19,19c-2.7,2.7-4.1,6.5-3.8,10.4C464.1,37,465.8,40.6,468.6,43.4z"/>
	<path d="M298.9,435.4c-0.3-12.8-4.1-25.5-11.3-37.2c-8.4-14.8-23.3-26.4-41-31.8l-0.4-0.1l21.7-56.1l-44.7,5.7l-6.6,46.8
		c-0.7,0.4-1.8,0.8-2.8,1c-9.4,1.2-18.3,4.4-28.7,10.4l-0.3,0.2c-16.9,10.5-28.6,27-33.1,46.4s-1.1,39.4,9.4,56.3
		c14.1,22.6,38.4,35,63.3,35c13.5,0,27.1-3.6,39.4-11.3c11.6-7,21-17.5,27.2-30h3.5c6,0,10.5-5.5,9.3-11.4L298.9,435.4z
		 M264.5,446.7c-1.9,7.6-5.8,14.5-11.2,19.9c-10.1,10.1-24.8,14.4-38.2,11.2h-0.2c-21.9-4.8-35.8-27-30.9-49.5
		c4.1-19,21.3-31.9,40.4-31.9c3,0,6,0.3,9,1C255.3,402.7,269.2,424.8,264.5,446.7z"/>
</g>
</svg>
