<?xml version="1.0" encoding="utf-8"?>
<!-- Generator: Adobe Illustrator 21.1.0, SVG Export Plug-In . SVG Version: 6.00 Build 0)  -->
<svg version="1.1" id="Layer_1" focusable="false" xmlns="http://www.w3.org/2000/svg" xmlns:xlink="http://www.w3.org/1999/xlink"
	 x="0px" y="0px" viewBox="0 0 512 512" style="enable-background:new 0 0 512 512;" xml:space="preserve">
<path d="M511.7,0.3L511.7,0.3C511.4,0,511-0.1,510.6,0l-84.7,22.5c-2.8,0.8-5.4,2.2-7.6,4.2L149,277.4c-12.5-2-28.4-6.7-39.5-10.2
	c-6.3-2-11.2,3.8-8.2,9.9c7.3,15,20.6,31.8,30.7,43.6c-18.8,20.4-48.6,54.5-73.7,91.5c-15.6-2.9-32.4,1.7-44.5,13.9
	c-18.5,19.1-18.5,51.5,0.6,71.2c19.7,19.7,51.5,19.7,71.1,0c12.1-12.2,16.8-28.9,13.9-44.5c36.8-24.6,70.8-54.5,91.2-73.5
	c11.9,10.2,28.7,23.4,43.6,30.6c6,2.9,11.8-1.8,9.9-8.1c-3.3-10.9-7.6-26.7-9.8-38.8L485.2,93.7c2-2.2,3.4-4.8,4.2-7.6L512,1.4
	C512.1,1,512,0.6,511.7,0.3z M50.2,484c-12.1,0-22.5-9.8-22.5-22.6c0-12.7,10.4-22.6,22.5-22.6c12.1,0,22.6,9.8,22.6,22.6
	C72.8,474.1,63,484,50.2,484z"/>
</svg>
