<?xml version="1.0" encoding="utf-8"?>
<!-- Generator: Adobe Illustrator 21.1.0, SVG Export Plug-In . SVG Version: 6.00 Build 0)  -->
<svg version="1.1" id="Layer_3" xmlns="http://www.w3.org/2000/svg" xmlns:xlink="http://www.w3.org/1999/xlink" x="0px" y="0px"
	 viewBox="0 0 390.9 512" style="enable-background:new 0 0 390.9 512;" xml:space="preserve">
<g>
	<g>
		<g>
			<path d="M87,161c0.3,1,0.7,2,1,3c2-1,4-2,6-3c-0.7,3-1.3,6-2,8.9c-2.1,3.1-5.4,3.6-8.9,5c-4.9,20.2,14.3,43.2,31.8,47.7
				c10,2.6,21.4,1.1,28.8,3c1.8,5,1.3,8.5,1,15.9c11.4,0.5,24,9.2,29.8,14.9c3.6-1.8,38.8-2,42.7,0c4.4-5.7,18.6-14.5,28.8-14.9
				c0.3-5,0.7-9.9,1-14.9c8-4,17.3-1.2,28.8-4c17.9-4.3,33.4-22.7,33.8-44.7c-3.1-3-3.1-4.2-8.9-5c-1.3-4-2.6-7.9-4-11.9
				c1.7,1,3.3,2,5,3h1c4.1-7.6,2.2-15.2,5-25.8C329.5,54.5,276.3,14,207.2,2.1C181.9-2.3,159,7.4,143.6,14
				C101.8,32,67,65.6,81,129.2C83.1,139.8,85,150.4,87,161z M239,138.2c11.1,0,26,0.6,33.8,5c17.5,8,12,39.1,3,51.6
				c-27.6,7.6-62-6.5-63.6-34.8C217.6,146.9,227,144.5,239,138.2z M198.3,181.8c17.1,3.6,28.4,39.6,8.9,48.7
				C198.2,222.8,195.8,197.3,198.3,181.8z M193.3,182.8c0,18.7-2.7,31.8-6,45.7c-1,0.7-2,1.3-3,2c-6.1-2.7-9.5-5.5-10.9-12.9
				c-4.4-13.9,9.8-28.1,15.9-35.8C190.6,182.2,192,182.5,193.3,182.8z M111.9,147.1c8.8-5.9,19.9-4.5,31.8-8.9
				c16.7-0.1,29.2,8.7,34.8,19.9c0.4,31.4-33,41.6-61.6,37.7C107,182.8,104.8,164.4,111.9,147.1z M111.9,225.5
				c-2,100.5,113.1,147.2,154.9,49.7c4.6-6.3,9.3-12.6,13.9-18.9c-0.7-10.3-1.3-20.5-2-30.8c-6,0.3-11.9,0.7-17.9,1
				c1.6,5.2,1.2,14.3-1,18.9c-2.7,4.4-8.1,4.1-10.9,7.9c-7,9.3-10.1,20.6-19.9,26.8h-6c-1,2.6-2,5.3-3,7.9c-6,3.3-4.6-2.5-8.9,3
				c-2.3-1-4.6-2-7-3c-0.7,1.7-1.3,3.3-2,5c-7.7,0.1-12.4,1.1-14.9-5c-2,1-4,2-6,3c-9-6.1-23.6-12.3-31.8-21.8
				c-7.8-9.1-6.1-16-17.9-21.8c-1.8-6.6-2.9-13.7-2-20.9C123.8,226.2,117.8,225.9,111.9,225.5z M378,410.3
				c-18-12.4-45.3-1.2-48.7,16.9c-26.5-10.9-53-21.9-79.5-32.8h-2c8.7-8.4,67.4-32,81.4-33.8c3.8,19.3,31.9,28.7,49.7,15.9
				c18.2-13.1,15.5-48-7-54.6c3.8-24.7-4.6-40.6-26.8-44.7c-25.7-4.7-43.9,25.7-31.8,46.7c-39.7,16.2-79.5,32.4-119.2,48.7
				c-38.4-16.2-76.8-32.4-115.2-48.7c10.8-24.6-5.1-46.9-31.8-46.7c-19,2.1-37.1,17-26.8,43.7c-15.8,10.3-30.6,38.1-8.9,54.6
				c18.7,14.2,46.7,4.6,51.6-15.9c27.1,11.6,54.3,23.2,81.4,34.8c-26.8,10.9-53.6,21.9-80.4,32.8c-13.7-19.2-41.4-35.6-59.6-7
				c-11,17.4,0.3,42,15.9,45.7c-7,24.7,6.5,41,26.8,44.7c26.6,4.8,42.3-25.3,31.8-46.7c28.8-11.9,57.6-23.8,86.4-35.8
				c10.9-4.3,21.9-8.6,32.8-12.9c38.4,15.9,76.8,31.8,115.2,47.7c-10.6,22,4.6,52.3,31.8,47.7c22.3-3.8,30.5-20.3,26.8-44.7
				C395.4,458.9,396.7,423.1,378,410.3z"/>
		</g>
	</g>
</g>
</svg>
