<?xml version="1.0" encoding="utf-8"?>
<!-- Generator: Adobe Illustrator 21.1.0, SVG Export Plug-In . SVG Version: 6.00 Build 0)  -->
<svg version="1.1" id="Layer_1" xmlns="http://www.w3.org/2000/svg" xmlns:xlink="http://www.w3.org/1999/xlink" x="0px" y="0px"
	 viewBox="0 0 405.6 512" style="enable-background:new 0 0 405.6 512;" xml:space="preserve">
<g>
	<path d="M405.6,58.2C404.7,26.6,314.5,1,203.3,1C92.2,1,2,26.6,1,58.2h0c0,0,0,32.1,0,58.7c0,31.9,90.6,57.7,202.3,57.7
		c111.7,0,202.3-25.8,202.3-57.7C405.6,85.1,405.6,58.2,405.6,58.2L405.6,58.2z"/>
	<path d="M1,170.6c0,0,0,0.2,0,0.5C1,170.9,1,170.8,1,170.6L1,170.6z"/>
	<path d="M203.3,228.9C91.6,228.9,1,203,1,171.1v58.2c0,31.9,90.6,57.7,202.3,57.7s202.3-25.8,202.3-57.7v-58.2
		C405.6,203,315.1,228.9,203.3,228.9z"/>
	<path d="M405.6,171.1c0-0.3,0-0.5,0-0.5h0C405.6,170.8,405.6,170.9,405.6,171.1z"/>
	<path d="M1,283.1c0,0,0,0.2,0,0.5C1,283.4,1,283.2,1,283.1L1,283.1z"/>
	<path d="M203.3,341.3C91.6,341.3,1,315.5,1,283.6v58.2c0,31.9,90.6,57.7,202.3,57.7s202.3-25.8,202.3-57.7v-58.2
		C405.6,315.5,315.1,341.3,203.3,341.3z"/>
	<path d="M405.6,283.6c0-0.3,0-0.5,0-0.5h0C405.6,283.2,405.6,283.4,405.6,283.6z"/>
	<path d="M1,395.5c0,0,0,0.2,0,0.5C1,395.9,1,395.7,1,395.5L1,395.5z"/>
	<path d="M405.6,396c0-0.3,0-0.5,0-0.5h0C405.6,395.7,405.6,395.9,405.6,396z"/>
	<path d="M203.3,453.8C91.6,453.8,1,427.9,1,396v58.2C1,486.2,91.6,512,203.3,512s202.3-25.8,202.3-57.7V396
		C405.6,427.9,315.1,453.8,203.3,453.8z"/>
</g>
</svg>
