<?xml version="1.0" encoding="utf-8"?>
<!-- Generator: Adobe Illustrator 21.1.0, SVG Export Plug-In . SVG Version: 6.00 Build 0)  -->
<svg version="1.1" id="Layer_1" xmlns="http://www.w3.org/2000/svg" xmlns:xlink="http://www.w3.org/1999/xlink" x="0px" y="0px"
	 viewBox="0 0 474.4 512" style="enable-background:new 0 0 474.4 512;" xml:space="preserve">
<g>
	<path d="M141.4,121.5c77.6,0,140.4-17.9,140.4-40.1c0-22.1,0-40.8,0-40.8l0,0C281.2,18.7,218.6,1,141.4,1C64.3,1,1.7,18.7,1,40.7
		l0,0c0,0,0,22.3,0,40.8C1,103.6,63.9,121.5,141.4,121.5z"/>
	<path d="M281.9,118.7c0,0.1,0,0.2,0,0.3C281.9,118.8,281.9,118.7,281.9,118.7L281.9,118.7z"/>
	<path d="M1,118.7c0,0,0,0.1,0,0.3C1,119,1,118.8,1,118.7L1,118.7z"/>
	<path d="M141.4,199.6c77.6,0,140.4-17.9,140.4-40.1v-40.4c0,22.1-62.9,40.1-140.4,40.1C63.9,159.1,1,141.2,1,119.1v40.4
		C1,181.6,63.9,199.6,141.4,199.6z"/>
	<path d="M281.9,197.1c0,22.1-62.9,40.1-140.4,40.1C63.9,237.2,1,219.3,1,197.1v40.4c0,22.1,62.9,40.1,140.4,40.1
		c9.9,0,19.5-0.3,28.9-0.8c0-5.3,0-8.2,0-8.2l0,0c0.6-20.4,47.1-37.7,111.6-43.9V197.1z"/>
	<path d="M281.9,196.8c0,0.1,0,0.2,0,0.3C281.9,196.9,281.9,196.8,281.9,196.8L281.9,196.8z"/>
	<path d="M1,196.8c0,0,0,0.1,0,0.3C1,197,1,196.9,1,196.8L1,196.8z"/>
	<path d="M1,275.2v40.4c0,22.1,62.9,40.1,140.4,40.1c9.9,0,19.5-0.3,28.9-0.8v-40.4c-9.3,0.6-19,0.9-28.9,0.9
		C63.9,315.3,1,297.3,1,275.2z"/>
	<path d="M1,274.8c0,0,0,0.1,0,0.3C1,275.1,1,275,1,274.8L1,274.8z"/>
	<path d="M1,353c0,0,0,0.1,0,0.3C1,353.2,1,353.1,1,353L1,353z"/>
	<path d="M1,353.3v40.4c0,22.1,62.9,40.1,140.4,40.1c9.9,0,19.5-0.3,28.9-0.8v-40.4c-9.3,0.6-19,0.8-28.9,0.8
		C63.9,393.4,1,375.4,1,353.3z"/>
	<path d="M1,431c0,0,0,0.1,0,0.3C1,431.2,1,431.1,1,431L1,431z"/>
	<path d="M1,431.4v40.4c0,22.1,62.9,40.1,140.4,40.1c9.9,0,19.5-0.3,28.9-0.8v-40.4c-9.3,0.6-19,0.8-28.9,0.8
		C63.9,471.4,1,453.5,1,431.4z"/>
	<path d="M474.3,275c-0.7-22-63.3-39.7-140.4-39.7S194.2,253,193.5,275l0,0c0,0,0,22.3,0,40.8c0,16.9,36.6,31.3,88.4,37.2
		c0,0.1,0,0.2,0,0.3c0-0.2,0-0.3,0-0.3c16.1,1.8,33.7,2.8,52,2.8c77.6,0,140.4-17.9,140.4-40.1S474.4,275,474.3,275L474.3,275z"/>
	<path d="M474.4,353.4c0-0.2,0-0.3,0-0.3l0,0C474.4,353.1,474.4,353.2,474.4,353.4z"/>
	<path d="M193.5,353c0,0,0,0.1,0,0.3C193.5,353.2,193.5,353.1,193.5,353L193.5,353z"/>
	<path d="M333.9,393.4c-77.6,0-140.4-17.9-140.4-40.1v40.4c0,16.9,36.6,31.3,88.4,37.2c0,0.1,0,0.2,0,0.3c0-0.2,0-0.3,0-0.3
		c16.1,1.8,33.7,2.8,52,2.8c77.6,0,140.4-17.9,140.4-40.1v-40.4C474.4,375.5,411.5,393.4,333.9,393.4z"/>
	<path d="M193.5,431.1c0,0,0,0.1,0,0.3C193.5,431.3,193.5,431.2,193.5,431.1L193.5,431.1z"/>
	<path d="M333.9,471.5c-77.6,0-140.4-17.9-140.4-40.1v40.4c0,22.1,62.9,40.1,140.4,40.1s140.4-17.9,140.4-40.1v-40.4
		C474.4,453.6,411.5,471.5,333.9,471.5z"/>
	<path d="M474.4,431.4c0-0.2,0-0.3,0-0.3l0,0C474.4,431.2,474.4,431.3,474.4,431.4z"/>
</g>
</svg>
