<?xml version="1.0" encoding="utf-8"?>
<!-- Generator: Adobe Illustrator 21.1.0, SVG Export Plug-In . SVG Version: 6.00 Build 0)  -->
<svg version="1.1" id="Layer_6" xmlns="http://www.w3.org/2000/svg" xmlns:xlink="http://www.w3.org/1999/xlink" x="0px" y="0px"
	 viewBox="0 0 512 512" style="enable-background:new 0 0 512 512;" xml:space="preserve">
<path d="M256,0C114.7,0,0,114.7,0,256s114.7,256,256,256c141.4,0,256-114.7,256-256S397.4,0,256,0z M129.4,181.8l25.4-25.4
	l28.5,28.9l28.6-28.9l25,25.5l-28.5,28.5L237,239l-25,25l-28.6-28.6L154.9,264l-25.5-25l28.9-28.6L129.4,181.8z M378.4,364.4h-17.1
	v18.1c0,27.7-22.5,50.2-50.2,50.2s-50.2-22.5-50.2-50.2v-18.1H141.6v-32.1h236.9v32.1H378.4z M368.5,264l-28.6-28.6L311.3,264
	l-25.5-25l28.9-28.6l-28.9-28.5l25.4-25.4l28.5,28.9l28.6-28.9l25,25.5l-28.5,28.5l28.6,28.6L368.5,264z M311.2,400.6
	c10,0,18.1-8.1,18.1-18.1v-18.1h-36.2v18.1C293.1,392.5,301.2,400.6,311.2,400.6z"/>
</svg>
