<?xml version="1.0" encoding="utf-8"?>
<!-- Generator: Adobe Illustrator 21.1.0, SVG Export Plug-In . SVG Version: 6.00 Build 0)  -->
<svg version="1.1" id="Layer_1" xmlns="http://www.w3.org/2000/svg" xmlns:xlink="http://www.w3.org/1999/xlink" x="0px" y="0px"
	 viewBox="0 0 550 512" style="enable-background:new 0 0 550 512;" xml:space="preserve">
<g>
	<path d="M531.8,40.7H18.3C8.2,40.7,0,49,0,59v339.4c0,10.1,8.3,18.3,18.3,18.3h237.6l-37.4,37.5h-47c-2.9,0-5.2,0.9-6.9,2.6
		c-1.7,1.8-2.6,4.1-2.6,6.9v13.6h226.1v-13.6c0-3-0.8-5.2-2.6-6.9s-4-2.6-6.9-2.6h-46.5l-38.3-37.5h238c10.1,0,18.3-8.2,18.2-18.3
		V59C550,49,541.9,40.7,531.8,40.7z M532,392c0,3.8-3.1,6.9-6.9,6.9H24.9c-3.8,0-6.9-3.1-6.9-6.9V65.4c0-3.8,3.1-6.9,6.9-6.9h500.2
		c3.8,0,6.9,3.1,6.9,6.9V392z"/>
	<path d="M521,76.9v303.7c0,4.1-3.3,7.4-7.4,7.4H36.4c-4.1,0-7.4-3.3-7.4-7.4V76.9c0-4.1,3.3-7.4,7.4-7.4h477.2
		C517.7,69.4,521,72.8,521,76.9z"/>
</g>
</svg>
