<?xml version="1.0" encoding="utf-8"?>
<!-- Generator: Adobe Illustrator 21.1.0, SVG Export Plug-In . SVG Version: 6.00 Build 0)  -->
<svg version="1.1" id="Layer_1" xmlns="http://www.w3.org/2000/svg" xmlns:xlink="http://www.w3.org/1999/xlink" x="0px" y="0px"
	 viewBox="0 0 550 512" style="enable-background:new 0 0 550 512;" xml:space="preserve">
<g>
	<path d="M321.5,461.2V452c0-10.3-8.4-18.8-18.8-18.8H278c-10.3,0-18.8,8.4-18.8,18.8v9.2c0,10.3,8.4,18.8,18.8,18.8h24.7
		C313.1,479.9,321.5,471.5,321.5,461.2z M188.3,479.9h27c7,0,12.8-5.8,12.8-12.8V446c0-7-5.8-12.8-12.8-12.8h-14.6
		c-4.6,0-8.8,2.4-11.1,6.3l-12.4,21.1C172.2,469.1,178.4,479.9,188.3,479.9z M368,222.7h29.4c12.7,0,21.8-12.4,17.9-24.5l-2.8-9
		c-2.5-7.9-9.7-13.2-17.9-13.2H368c-2,0-4,0.1-6,0.3c-13.1,1.1-21.1,14.7-15.7,26.6l4,8.8c3.1,6.9,10.1,11.1,17.6,11
		C367.9,222.7,368,222.7,368,222.7z M335.5,230.7l-19.8-11.5c-6.7-3.8-15.2-0.7-17.7,6.5c-2.6,7.6-3.9,15.7-3.9,23.9
		c0,12.5,3.2,24.7,9.2,35.6c3.7,6.8,12.6,8.3,18.6,3.4l17.4-14.7c4-3.4,5.5-9,3.5-13.9c-1.2-2.8-2-6.3-2-10.3c0-2,0.2-4.1,0.6-6
		C342.5,238.5,340.1,233.3,335.5,230.7z M372.1,479.9h23.2c10.8,0,19.5-8.7,19.5-19.5v-7.6c0-10.8-8.7-19.5-19.5-19.5h-23.2
		c-10.8,0-19.5,8.7-19.5,19.5v7.6C352.6,471.2,361.3,479.9,372.1,479.9z M462.3,325.1c5.2,1.4,10.2,3.4,14.8,6.2
		c7,4.3,16.1,3.2,22-2.6l7.8-7.7c8.1-8.1,6.9-21.6-2.7-27.9c-10.3-6.7-21.6-11.4-33.6-14.1c-11.2-2.5-21.8,6.1-21.8,17.6v10.9
		C448.7,315.9,454.3,323,462.3,325.1z M530.5,345.5l-21.1,8.4c-5.4,2.2-8.4,8-7.3,13.6c0.7,3.5,1,7.1,1,10.8c0,4.3-0.5,8.6-1.5,12.7
		c-1.4,5.6,1.6,11.4,7,13.7l20.9,9.2c6.7,2.9,14.5-0.7,16.5-7.8c2.6-9,3.8-18.3,3.8-27.7c0-8.4-1-16.7-3-24.7
		C545,346.6,537.3,342.8,530.5,345.5z M446,442.5v26.4c0,6,5.2,10.6,11.2,9.9c8.5-1,19.9-2.7,26.2-4.9c9.6-3.5,18.7-8.4,26.9-14.7
		c4.8-3.7,5.4-10.5,1.3-14.9L493,424.6c-3.4-3.6-9-4.1-13-1.3c-5.3,3.7-11.1,6.3-17.2,8c-1.8,0.5-4.8,0.8-7.7,1.2
		C450,433.1,446,437.4,446,442.5z M358.4,287.4l-4.5,17.5c-2.4,9.3,4.5,18.5,14.1,18.5c0.1,0,0.1,0,0.2,0h34.5
		c8.2,0,14.9-6.7,14.9-14.9v-16.9c0-8.2-6.6-14.9-14.8-14.9c-9.2-0.1-21.1-0.2-29.7-0.4C366.3,276.1,360.1,280.7,358.4,287.4z"/>
	<path d="M218.2,263.8c-5.8-13.6-13.9-25.6-24.3-36.1c-10.5-10.5-22.6-18.6-36.2-24.4c-14-5.9-28.9-8.9-44.1-8.9s-30.1,3-44.2,8.9
		c-13.4,5.8-25.5,13.9-36,24.3C23.1,238,14.9,250.1,9.1,263.7c-5.9,14-8.9,28.9-8.9,44.1c0,25.6,16.2,63.4,49.6,115.3
		c19.4,30.3,39.2,56.8,46.8,66.6l17.3,22.1l16.5-21.3c2-2.5,24.9-32.3,47.4-67.3c33.4-52,49.6-89.7,49.6-115.4
		C227.2,292.3,224.2,277.6,218.2,263.8z M113.5,370.6c-34.1,0-61.7-27.6-61.7-61.7s27.6-61.7,61.7-61.7s61.7,27.6,61.7,61.7
		C175.3,342.9,147.6,370.6,113.5,370.6z"/>
	<path d="M494.5,0.6c-30.5,0.1-55.2,25-55,55.5c0.1,25.3,17.2,46.6,40.5,53l14.8,76.9h0.7l14.1-76.9c23.4-6.5,40.5-28,40.4-53.5
		C549.8,25.1,525,0.5,494.5,0.6z M489.5,55.4c-1.9,3.4-6.3,4.6-9.7,2.7c-3.4-1.9-4.6-6.3-2.7-9.7s6.3-4.6,9.7-2.7
		C490.3,47.6,491.5,52,489.5,55.4z M485.8,33.2c-7,0.7-12.3,5-14.9,9.6c-3,5.2-3.6,11.1-0.7,17.7c2.8,5-2.9,7.7-4.3,6
		c-3.4-5-6.8-16-0.6-26.9c5.7-10,16.1-13.6,23.5-13.1C491.7,27.7,490.4,33.2,485.8,33.2z"/>
</g>
</svg>
