<?xml version="1.0" encoding="utf-8"?>
<!-- Generator: Adobe Illustrator 21.1.0, SVG Export Plug-In . SVG Version: 6.00 Build 0)  -->
<svg version="1.1" id="Layer_1" xmlns="http://www.w3.org/2000/svg" xmlns:xlink="http://www.w3.org/1999/xlink" x="0px" y="0px"
	 viewBox="0 0 550 512" style="enable-background:new 0 0 550 512;" xml:space="preserve">
<g>
	<path d="M543.5,43.1c-3.5-8.3-8.6-15.8-15-22.2s-13.9-11.5-22.3-15c-8.7-3.7-17.8-5.5-27.3-5.5c-9.4,0-18.6,1.8-27.3,5.5
		c-8.3,3.5-15.8,8.6-22.2,15c-6.4,6.4-11.4,13.9-15,22.2c-3.7,8.7-5.5,17.8-5.5,27.3c0,15.8,10,39.1,30.6,71.2
		c12,18.7,24.2,35,28.9,41.1l10.6,13.6l10.2-13.2c1.2-1.5,15.4-19.9,29.2-41.5C539,109.5,549,86.2,549,70.4
		C549,60.9,547.1,51.7,543.5,43.1z M478.9,109.1c-21,0-38.1-17.1-38.1-38.1s17.1-38.1,38.1-38.1S517,50,517,71
		C516.9,92,499.9,109.1,478.9,109.1z"/>
	<path d="M62.5,237.4c-3.2,5.6-5,11.6-5,18.1c0.9-5.3,2.8-10.8,5.9-16.3l0,0c2-3.4,4.2-6.4,6.6-9.1c0.4-0.4,0.8-0.9,1.2-1.3
		c0.4-0.4,0.8-0.8,1.3-1.2c0.8-0.8,1.7-1.6,2.6-2.3c0.4-0.4,0.9-0.7,1.3-1.1c0.5-0.3,0.9-0.7,1.4-1s0.9-0.6,1.4-1
		C71.7,225.7,65.9,231.5,62.5,237.4z M108,156.1C49.2,156.3,1.7,204.2,2,263c0.2,48.8,33.2,89.8,78.1,102.2L108,510.1h2.5l26.6-145
		c33.2-9.2,59.9-34.2,71.6-66.3c0-0.1,0-0.1,0.1-0.2c0.5-1.5,1-2.9,1.5-4.4l0,0c0.3-0.8,0.5-1.6,0.8-2.5s0.5-1.8,0.8-2.8
		c0.4-1.3,0.7-2.7,1-4c1.6-7.3,2.4-15,2.3-22.8C214.7,203.3,166.8,155.8,108,156.1z M51.8,231.2C57.3,221.6,65,215,73.2,211
		s16.8-5.5,23.9-5c3.2,1.3,3.7,5.3,2,8.5l0,0c-1.3,2.5-4,4.5-7.8,4.5c-4.4,0.4-8.4,1.6-12,3.3c0,0,0,0-0.1,0
		c-7.5,3.5-13.3,9.3-16.7,15.2c-3.2,5.6-5,11.6-5,18.1c0,5.1,1.2,10.5,3.6,16.1c2.6,4.7,1.3,8.4-1,10.5c-2.4,2.2-5.8,2.7-7.2,1
		c-2.7-4-5.5-10.1-6.9-17.2C44.1,255.8,44.8,243.5,51.8,231.2z M74.7,248c3.7-6.6,12.2-8.9,18.7-5.1c2.6,1.5,4.5,3.6,5.6,6.1
		c1.8,3.9,1.8,8.6-0.5,12.6c-2.7,4.7-7.7,7.2-12.7,6.9c-2.1-0.1-4.1-0.7-6-1.8C73.2,263,70.9,254.5,74.7,248z M62.5,237.4
		c-3.2,5.6-5,11.6-5,18.1c0.9-5.3,2.8-10.8,5.9-16.3l0,0c2-3.4,4.2-6.4,6.6-9.1c0.4-0.4,0.8-0.9,1.2-1.3c0.4-0.4,0.8-0.8,1.3-1.2
		c0.8-0.8,1.7-1.6,2.6-2.3c0.4-0.4,0.9-0.7,1.3-1.1c0.5-0.3,0.9-0.7,1.4-1s0.9-0.6,1.4-1C71.7,225.7,65.9,231.5,62.5,237.4z"/>
	<path d="M318.7,461.4v-9.2c0-10.4-8.4-18.8-18.8-18.8h-24.7c-10.4,0-18.8,8.4-18.8,18.8v9.2c0,10.4,8.4,18.8,18.8,18.8H300
		C310.4,480.2,318.7,471.7,318.7,461.4z M185.4,480.2h27c7.1,0,12.8-5.8,12.8-12.8v-21.1c0-7.1-5.8-12.8-12.8-12.8h-14.7
		c-4.6,0-8.8,2.4-11.1,6.3l-12.4,21.1C169.4,469.3,175.5,480.2,185.4,480.2z M365.3,222.6h29.4c12.7,0,21.8-12.4,18-24.6l-2.8-9
		c-2.5-7.9-9.7-13.2-18-13.2h-26.6c-2,0-4,0.1-6,0.3c-13.1,1.1-21.2,14.8-15.8,26.7l4,8.8c3.1,6.9,10.1,11.1,17.6,11
		C365.3,222.6,365.3,222.6,365.3,222.6z M332.9,230.7l-19.8-11.5c-6.7-3.8-15.2-0.7-17.7,6.5c-2.6,7.6-3.9,15.8-3.9,23.9
		c0,12.5,3.2,24.7,9.2,35.7c3.7,6.8,12.6,8.3,18.6,3.4l17.4-14.8c4-3.4,5.5-9,3.5-13.9c-1.2-2.8-2-6.3-2-10.4c0-2,0.2-4.1,0.6-6
		C339.8,238.6,337.3,233.3,332.9,230.7z M369.5,480.2h23.2c10.8,0,19.5-8.7,19.5-19.5V453c0-10.8-8.7-19.5-19.5-19.5h-23.2
		c-10.8,0-19.5,8.7-19.5,19.5v7.6C349.9,471.4,358.7,480.2,369.5,480.2z M459.7,325.2c5.2,1.4,10.2,3.4,14.8,6.2
		c7.1,4.3,16.1,3.2,22-2.6l7.8-7.7c8.2-8.1,6.9-21.6-2.7-28c-10.3-6.7-21.6-11.5-33.6-14.1c-11.2-2.5-21.8,6.1-21.8,17.6v10.9
		C446.1,315.9,451.7,323.1,459.7,325.2z M528.1,345.5L507,354c-5.4,2.2-8.4,8-7.3,13.7c0.7,3.5,1,7.1,1,10.8c0,4.3-0.5,8.6-1.5,12.7
		c-1.4,5.6,1.6,11.4,7,13.7l20.9,9.2c6.7,2.9,14.5-0.7,16.5-7.8c2.6-9,3.8-18.3,3.8-27.8c0-8.4-1-16.7-3-24.7
		C542.5,346.7,534.9,342.9,528.1,345.5z M443.4,442.7v26.4c0,6,5.2,10.6,11.2,9.9c8.5-1,19.9-2.7,26.2-4.9
		c9.6-3.5,18.7-8.4,26.9-14.8c4.8-3.7,5.4-10.5,1.3-14.9l-18.6-19.6c-3.4-3.6-9-4.1-13-1.3c-5.3,3.7-11.1,6.3-17.2,8
		c-1.8,0.5-4.8,0.8-7.7,1.2C447.3,433.2,443.4,437.5,443.4,442.7z M355.7,287.4l-4.5,17.5c-2.4,9.3,4.5,18.5,14.1,18.5
		c0.1,0,0.1,0,0.2,0H400c8.2,0,14.9-6.7,14.9-14.9v-17c0-8.2-6.6-14.9-14.8-14.9c-9.3-0.1-21.1-0.2-29.7-0.4
		C363.6,276,357.4,280.7,355.7,287.4z"/>
</g>
</svg>
