<?xml version="1.0" encoding="utf-8"?>
<!-- Generator: Adobe Illustrator 21.1.0, SVG Export Plug-In . SVG Version: 6.00 Build 0)  -->
<svg version="1.1" id="Layer_1" xmlns="http://www.w3.org/2000/svg" xmlns:xlink="http://www.w3.org/1999/xlink" x="0px" y="0px"
	 viewBox="0 0 550 512" style="enable-background:new 0 0 550 512;" xml:space="preserve">
<g>
	<path d="M544,185.1c-3.7-3.4-10.4-5.1-20.2-5.1H370.7c-9.7,0-16.4,1.7-20.2,5.1c-4,4.2-6,10.8-6,19.9v229.8c0,9.1,2.1,15.6,6,19.6
		s10.7,5.9,20.2,5.9h153.1c9.7,0,16.4-2,20.2-5.9c4-3.7,6-10.2,6-19.6V205C550,195.6,547.9,189,544,185.1z M447,458.8
		c-7.7,0-13.9-6.2-13.9-13.9c0-7.7,6.2-13.9,13.9-13.9s13.9,6.2,13.9,13.9C461,452.6,454.7,458.8,447,458.8z M528.7,421.9
		c0,1.9-0.7,3.7-1.9,5.1c-1.2,1.2-2.9,1.8-5.2,1.8H372.9c-2,0-3.7-0.6-5.2-1.8c-1.3-1.5-1.9-3.2-1.9-5.1v-212c0-1.9,0.7-3.7,1.9-5.1
		c1.2-1.2,2.9-1.8,5.2-1.8h148.6c2.2,0,4,0.6,5.2,1.8c1.2,1.5,1.9,3.2,1.9,5.1L528.7,421.9L528.7,421.9z"/>
	<path d="M514.2,210.2h-134c-2.3,0-4,0.6-5.2,1.8c-1.2,1.5-1.9,3.2-1.9,5.1v197.4c0,2,0.6,3.7,1.9,5.1c1.5,1.2,3.2,1.8,5.2,1.8h134
		c2.3,0,4-0.6,5.2-1.8c1.2-1.5,1.9-3.2,1.9-5.1V217.2l0,0c0-2-0.7-3.7-1.9-5.1C518.2,210.8,516.4,210.2,514.2,210.2z"/>
	<path d="M465.8,102.8v55h-23.3V112c0-12.9-10.4-23.4-23.3-23.4H46.6c-12.9,0-23.3,10.4-23.3,23.4v248.7c0,12.9,10.5,23.4,23.4,23.4
		h276.8l-0.1,23.8H249l33,32.9h40.7c2.2,0,4.1,0.6,5.6,1.8c1.5,1.8,2.3,3.8,2.3,6.3v11.4H135.4v-11.4c0-2.7,0.6-4.8,1.8-6.3
		c1.5-1.2,3.6-1.8,6.4-1.8H184l32.5-32.8H37.8c-11.3,0-20.3-3.3-27.3-10C3.5,390.9,0,381.8,0,370.7v-268c0-11.3,3.5-20.4,10.4-27.2
		c7-6.9,16.1-10.3,27.3-10.3h390c11.4,0,20.6,3.4,27.6,10.3S465.8,91.4,465.8,102.8z"/>
	<path d="M431.4,113.5v44.3h-79.1c-10.5,0-17.8,1.8-21.8,5.5c-4.4,4.5-6.5,11.7-6.5,21.5l-0.5,189.3H49.3c-8.3,0-14.9-6.7-14.9-14.9
		V113.5c0-8.3,6.7-14.9,14.9-14.9h367.1C424.7,98.6,431.4,105.3,431.4,113.5z"/>
</g>
</svg>
