<?xml version="1.0" encoding="utf-8"?>
<!-- Generator: Adobe Illustrator 21.1.0, SVG Export Plug-In . SVG Version: 6.00 Build 0)  -->
<svg version="1.1" id="Layer_2" xmlns="http://www.w3.org/2000/svg" xmlns:xlink="http://www.w3.org/1999/xlink" x="0px" y="0px"
	 viewBox="0 0 512 512" style="enable-background:new 0 0 512 512;" xml:space="preserve">
<path d="M243.9,206.2L21,113.9c-9.3-5.4-21,1.2-21,11.7v246.1c0,4.8,2.6,9.3,6.8,11.7l223.3,125.8c12.9,7.5,23.2-1.6,23.2-16.3
	V222.5C253.3,215.8,249.7,209.6,243.9,206.2z M67.8,249c-10.5-15.9-10.1-34.5,0.7-41.7c10.8-7.1,28.1,0,38.5,15.9
	c10.4,15.9,10.1,34.5-0.7,41.7C95.5,272,78.3,264.9,67.8,249z M107.2,316.3c-10.4-15.9-10.1-34.5,0.7-41.7
	c10.8-7.1,28.1,0,38.5,15.9s10.1,34.5-0.7,41.7C134.9,339.3,117.7,332.2,107.2,316.3z M185.9,398.5c-10.8,7.1-28.1,0-38.5-15.9
	c-10.5-15.9-10.1-34.5,0.7-41.7c10.8-7.1,28.1,0,38.5,15.9C197,372.8,196.7,391.4,185.9,398.5z"/>
<path d="M491,113.9l-222.8,92.3c-5.9,3.4-9.5,9.6-9.5,16.3v270.6c0,14.6,10.3,23.7,23.2,16.3l223.3-125.8c4.2-2.5,6.8-6.9,6.8-11.7
	V125.6C512,115.1,500.3,108.6,491,113.9z M373.1,366.1c-9.5,16.5-26.3,24.6-37.5,18.1c-11.2-6.5-12.6-25.1-3.1-41.6
	c9.5-16.5,26.3-24.6,37.5-18.1C381.2,331.1,382.6,349.7,373.1,366.1z M433.3,264.2c-9.5,16.5-26.3,24.6-37.5,18.1
	c-11.2-6.5-12.6-25.1-3.1-41.5c9.5-16.5,26.3-24.6,37.5-18.1C441.4,229.1,442.8,247.7,433.3,264.2z"/>
<path d="M490.5,92.6l-230-91.3c-4.3-1.7-9.6-1.7-13.9,0.1L21.4,92.6c-9.2,3.7-9.3,12.9-0.2,16.7l224.8,94c6.1,2.6,13.8,2.6,19.9,0
	l224.9-93.9C499.9,105.6,499.8,96.3,490.5,92.6z M255,112.8c-18.3,0-33.1-6.9-33.1-15.4c0-8.5,14.8-15.4,33.1-15.4
	c18.3,0,33.1,6.9,33.1,15.4C288.1,105.9,273.3,112.8,255,112.8z"/>
</svg>
