<?xml version="1.0" encoding="utf-8"?>
<!-- Generator: Adobe Illustrator 22.0.1, SVG Export Plug-In . SVG Version: 6.00 Build 0)  -->
<svg version="1.1" id="Layer_2" xmlns="http://www.w3.org/2000/svg" xmlns:xlink="http://www.w3.org/1999/xlink" x="0px" y="0px"
	 viewBox="0 0 512 512" style="enable-background:new 0 0 512 512;" xml:space="preserve">
<g>
	<ellipse cx="236.8" cy="56.8" rx="56.8" ry="56.8"/>
	<path d="M408.3,359.5c-4.6,0-9.1,0.4-13.5,1.1c-15.2-16.3-34.6-31.7-56.7-44.4c-1.8-1-3.6-1.5-5.2-1.5c-1.8,0-3.3,0.6-3.9,1.9
		l-12.4,23.3L269.8,314c2.5-4.8,3.5-10.4,2.6-16.2c-3.1-18.8-7.1-42.3-8.5-50c-0.7-2.7-0.2-24.6,0.4-31.3
		c2.7-28.1,1.1-65.6-35.3-87.7l-40.1-18.7C144.1,91.5,102,90.8,82,98.2c-3.5,1.3-14.5,5.4-32.5,25.6C43.8,130.1,17.3,169,5,186
		c-8.5,11.8-5.8,28.2,6,36.7c4.7,3.3,10,4.9,15.3,4.9c8.5,0,16.8-4.1,21.8-11.7c0.1-0.1,0.2-0.3,0.3-0.4l22.2,12.3
		c-0.5,1.2-0.9,2.2-1.2,3.1c-14.7,34.8-5.4,74.6,0,109.3c2,12,4,28.1,3.3,34.1c-8,16-27.4,58.5-42.5,92.1
		c-9.7,21.4,6,45.6,29.4,45.6h6c12.7,0,24.2-7.4,29.4-19c11.9-26.4,33-72.8,41.9-90.1c6.7-14,7-22.3,4.4-43.7
		c14,17.4,20.1,29,25.5,40.3c1.2,7.7-2,47.2-4.7,77.2c-1.7,18.9,13.2,35.2,32.2,35.2c8.7,0,16.6-3.5,22.5-9.1
		c5.8-5.6,9.5-13.4,9.8-22.1c1.3-38.8,3.1-100.5,1.3-104.6c-3.3-7.3-21.8-50.8-49.2-81.5c0.2-0.6,1-2.7,2.3-5.9l42.3,23.4
		c4.5,10.6,15.8,17.2,27.6,15.4v0c0,0,0.1,0,0.1,0l55.8,30.9l-14.5,27.2c-0.1,0.2-0.2,0.3-0.3,0.5c-1.2,3.1,1.1,7.2,5.2,9.5
		c10.4,5.8,20.6,10.6,30.6,14.6c-6.4,10.5-11.7,22.3-15.5,35c-36.8-5.1-64.7,27.1-70.9,66.8H512c0,0,0-10.5,0-15.7
		C512.5,421,466,359.5,408.3,359.5z M77.9,207.8L60.1,198c11.3-17,24.5-36.5,27.5-38.9c4.7-0.7,0.7-2.3,14.8-0.3
		C93.5,168.9,84.5,190.5,77.9,207.8z M188.7,269.1c8.5-20.8,20.2-48.4,26.3-59.3c0,5.3-3.4,38.1-2,47.4c0.3,1.9,2.4,14.1,4.8,28
		L188.7,269.1z"/>
</g>
</svg>
