<?xml version="1.0" encoding="utf-8"?>
<!-- Generator: Adobe Illustrator 21.1.0, SVG Export Plug-In . SVG Version: 6.00 Build 0)  -->
<svg version="1.1" id="Layer_6" xmlns="http://www.w3.org/2000/svg" xmlns:xlink="http://www.w3.org/1999/xlink" x="0px" y="0px"
	 viewBox="0 0 550 512" style="enable-background:new 0 0 550 512;" xml:space="preserve">
<g>
	<path d="M343.8,226.8c-1.6-4.6-2.1-9.2-2.5-13.9c-0.5-5-1-10.3-3.1-12.6c-2.2-2.4-7.2-3.3-12.2-4.3c-4.5-0.9-9.2-1.8-13.5-3.9
		c-4.6-2.1-8.3-5.3-12-8.3c-3.8-3.1-7.8-6.4-10.7-6.5c-2.9-0.1-7.1,2.6-11.3,5.4c-3.9,2.6-8,5.3-12.7,7c-4.6,1.6-9.2,2.1-13.9,2.5
		c-5,0.5-10.3,1-12.6,3.1s-3.3,7.2-4.3,12.2c-0.9,4.5-1.8,9.2-3.9,13.5c-2.1,4.6-5.3,8.3-8.3,12c-3.1,3.8-6.4,7.8-6.5,10.7
		c-0.1,2.9,2.6,7.1,5.4,11.3c0.1,0.2,0.3,0.4,0.4,0.6c0,0.1,0.1,0.1,0.1,0.2c2.6,4,5,7.7,6.5,12c1.6,4.6,2.1,9.2,2.5,13.9
		c0.5,5,1,10.3,3.1,12.6s7.2,3.3,12.2,4.3c4.5,0.9,9.2,1.8,13.5,3.9c2.2,1,4.2,2.4,6.3,3.8c0.1,0.1,0.2,0.2,0.4,0.3
		c1.6,1.2,3.1,2.4,4.6,3.6c0,0,0,0.1,0.1,0.1c0.1,0.2,0.4,0.3,0.6,0.4c3.8,3.1,7.8,6.4,10.7,6.5c2.9,0.1,7.1-2.6,11.3-5.4
		c3.9-2.6,8-5.3,12.7-7c4.6-1.6,9.2-2.1,13.9-2.5c5-0.5,10.3-1,12.6-3.1c2.4-2.2,3.3-7.2,4.3-12.2c0.9-4.5,1.8-9.2,3.9-13.5
		c2.1-4.6,5.3-8.3,8.3-12c3.1-3.8,6.4-7.8,6.5-10.7s-2.6-7.1-5.4-11.3C348.2,235.6,345.4,231.5,343.8,226.8z"/>
	<path d="M516.7,39.1c-35.5-39.4-85.3-50.3-113.4-25c-0.9,0.9-1.8,1.8-2.5,2.9c-23.3,37.9-51.3,73.2-86.9,110.2
		c-6.1-4.2-12.9-7.6-21.1-8c-13-0.7-23.4,6.2-32.6,12.3c-4.6,3-8.8,5.8-12.5,7.2c-3.4,1.2-8.3,1.7-13.5,2.2
		c-10.6,0.9-23.7,2.2-33.7,11.3c-10,9.1-12.6,22.1-14.6,32.4c-1,5.1-2,10-3.5,13.2c-1.7,3.5-5,7.5-8.4,11.7
		c-6.9,8.5-14.9,18.2-15.6,31.1c-0.5,8.9,2.7,16.5,6.6,23.4c-29,24-70.7,56.1-122.9,83.4c-6.9,2.1-13.3,5.3-18.8,10
		c-0.2,0.2-0.6,0.3-0.8,0.6l-0.1,0C-5.9,383.4,0,434.1,35.5,473.4s85.4,50.2,113.4,24.9c0.1-0.1,0.1-0.2,0.3-0.4
		c0.1-0.1,0.1-0.2,0.3-0.4l0.2-0.1c0.2-0.2,0.4-0.6,0.7-0.8c0.4-0.5,0.8-0.7,1.1-1.2c0.1,0,0-0.1,0.1-0.1c0.1-0.1,0.1-0.2,0.2-0.2
		c4.1-4.3,7.3-9.4,9.6-14.8c32.8-49.2,68.9-87.6,95.8-114c6.5,4.5,13.6,8.5,22.5,8.9c8.8,0.5,16.4-2.6,23.2-6.5l74.7,120.5
		c2.5,4.1,7,6.5,11.7,6.4c4.7-0.1,9.2-2.7,11.5-6.9l39.8-70.4l74.1-32.5c1.4-0.6,2.6-1.3,3.7-2.3c2.4-2.2,3.9-5.1,4.4-8.4
		c0.6-4.7-1.4-9.4-5.2-12.4l-112.3-86.5c4.6-6.4,8.4-13.6,8.9-22.4c0.4-8.2-2.3-15.3-5.7-21.8c40.5-31.7,78.5-56,118.5-75.3
		c1.1-0.5,2.2-1.3,3.1-2.2C558.1,129.1,552.2,78.5,516.7,39.1z M137.1,468.9c0,0.2-0.1,0.5-0.1,0.7c-1.1,2.4-2.5,4.7-4.1,6.6
		c-0.5,0.6-1,1.5-1.5,1.9c-0.2,0.1-0.1,0.2-0.3,0.4c-16.3,14.6-50.8,4.1-75.3-23c-24.5-27.2-31.5-62.5-15.2-77.3
		c2.7-2.4,6-3.9,9.5-5c0.1,0,0.2,0,0.3-0.1c0.2,0,0.3,0,0.5,0c0.5-0.1,0.9-0.2,1.4-0.3c2.2-0.3,4.5-0.3,6.9-0.1
		c20.7,2.5,40.6,28,44.6,57c1.9,14.1-0.3,26.6-5.5,35.2c14-5.1,22-23.5,18.9-46.7c-1.1-7.8-3.2-15.3-6.3-22.1
		c1.7,1.6,3.4,3.3,5.1,5.1c2.8,3.1,5.2,6.3,7.6,9.5c1,1.3,1.7,2.7,2.6,3.9c1.3,1.9,2.4,3.8,3.5,5.7c1,1.8,1.8,3.5,2.7,5.3
		c0.7,1.3,1.2,2.7,1.8,4c0.9,2.3,1.9,4.4,2.5,6.7c0.1,0.3,0.1,0.5,0.3,0.9C140.3,448.7,140.7,460,137.1,468.9z M387.1,252.5
		c-0.2,4.1-4.9,9.9-9.5,15.4c-4.3,5.3-8.7,10.7-11.9,17.3c-3,6.3-4.3,13.1-5.6,19.5c-1.4,7.2-2.8,14.5-6.2,17.6
		c-3.4,3.1-10.9,3.8-18.1,4.5c-6.6,0.6-13.4,1.2-20.1,3.6c-6.8,2.4-12.7,6.3-18.3,10c-6,3.9-12.2,8.1-16.3,7.9
		c-4.1-0.2-9.9-4.9-15.4-9.5c-0.4-0.3-0.7-0.5-0.9-0.7c0-0.1-0.1-0.1-0.1-0.1c-2.3-1.9-4.9-3.9-7.4-5.8c-2.7-2-5.6-3.8-8.7-5.3
		c-6.3-3-13.1-4.3-19.5-5.6c-7.2-1.4-14.5-2.8-17.6-6.2c-3.1-3.4-3.8-10.9-4.5-18.1c-0.6-6.6-1.2-13.4-3.6-20.1
		c-1.2-3.2-2.6-6.2-4.3-9.1c-1.5-2.6-3.1-5.1-4.8-7.6c0-0.2-0.2-0.3-0.3-0.4l0,0c-0.3-0.3-0.5-0.8-0.7-1.1c-3.9-6-8.1-12.2-7.9-16.3
		c0.2-4.1,4.9-9.9,9.5-15.4c4.3-5.3,8.7-10.7,11.9-17.3c3-6.3,4.3-13.1,5.6-19.5c1.4-7.2,2.8-14.5,6.2-17.6
		c3.4-3.1,10.9-3.8,18.1-4.5c6.6-0.6,13.4-1.2,20.1-3.6c6.8-2.4,12.7-6.3,18.3-10c6-3.9,12.2-8.1,16.3-7.9s9.9,4.9,15.4,9.5
		c5.3,4.3,10.7,8.7,17.3,11.9c6.3,3,13.1,4.3,19.5,5.6c7.2,1.4,14.5,2.8,17.6,6.2s3.8,10.9,4.5,18.1c0.6,6.6,1.2,13.4,3.6,20.1
		c0.8,2.1,1.8,4,2.9,5.9c2.2,4.4,4.7,8.5,7.3,12.5C383.2,242.1,387.3,248.3,387.1,252.5z"/>
</g>
</svg>
