<?xml version="1.0" encoding="utf-8"?>
<!-- Generator: Adobe Illustrator 21.1.0, SVG Export Plug-In . SVG Version: 6.00 Build 0)  -->
<svg version="1.1" id="Layer_1" focusable="false" xmlns="http://www.w3.org/2000/svg" xmlns:xlink="http://www.w3.org/1999/xlink"
	 x="0px" y="0px" viewBox="0 0 448 512" style="enable-background:new 0 0 448 512;" xml:space="preserve">
<path d="M223.5,31.9c38.5,0,69.6,31.2,69.6,69.6c0,38.5-31.2,69.6-69.6,69.6c-38.5,0-69.6-31.2-69.6-69.6
	C153.9,63,185.1,31.9,223.5,31.9z M223.5,480c-38.5,0-69.6-31.2-69.6-69.6c0-38.5,31.2-69.6,69.6-69.6c38.5,0,69.6,31.2,69.6,69.6
	C293.2,448.8,262,480,223.5,480z M20,296.6l-20-82h428l20,82H20z"/>
</svg>
