<?xml version="1.0" encoding="utf-8"?>
<!-- Generator: Adobe Illustrator 21.1.0, SVG Export Plug-In . SVG Version: 6.00 Build 0)  -->
<svg version="1.1" id="Layer_4" xmlns="http://www.w3.org/2000/svg" xmlns:xlink="http://www.w3.org/1999/xlink" x="0px" y="0px"
	 viewBox="0 0 512.7 512" style="enable-background:new 0 0 512.7 512;" xml:space="preserve">
<g>
	<path d="M481.5,424H194.3c-10.3-28.9-33-58.3-67.1-73.6V115c0-27.9-12.2-54-33.7-71.8L51.4,7.8l-0.1-0.1c-5-4-11-6.3-17.3-6.7
		c-1.9-0.1-3.8-0.1-5.7,0.1C20,2.1,12.6,6.2,7.4,12.8C3.2,18.1,1,24.3,0.7,30.6c-0.5,9.3,3.2,18.7,10.8,25.2L53.7,91
		c5.9,4.9,9.7,11.7,10.8,19.2c0.2,1.5,0.3,3,0.3,4.5v288.2c3.6-0.7,7.3-1,11.1-1c34.4,0,62.4,27.9,62.4,62.4c0,7.8-1.4,15.3-4,22.1
		h69.5l0,0h235c0.3-1.8,0.8-3.4,1.5-5c3.4-7.5,10.9-12.7,19.6-12.7s16.3,5.2,19.6,12.7c0.7,1.6,1.2,3.3,1.5,5h0.4
		c17.2,0,31.2-14,31.2-31.2v0C512.7,438,498.7,424,481.5,424z"/>
	<ellipse cx="76.1" cy="464.2" rx="47.8" ry="47.8"/>
	<circle cx="459.9" cy="490.2" r="16"/>
	<path d="M452.9,67.9h-70.5l12.1,65.8h112.4L452.9,67.9z M363.5,68.5H329l-10.5,71.5v35.2H374v-34L363.5,68.5z M239.5,67.9
		l-54.1,65.8h112.4L310,67.9H239.5z M395,144.7V185h-97.4v-40.2H180.5v235.3h332.2V144.7H395z"/>
</g>
</svg>
