<?xml version="1.0" encoding="utf-8"?>
<!-- Generator: Adobe Illustrator 21.1.0, SVG Export Plug-In . SVG Version: 6.00 Build 0)  -->
<svg version="1.1" id="fill" xmlns="http://www.w3.org/2000/svg" xmlns:xlink="http://www.w3.org/1999/xlink" x="0px" y="0px"
	 viewBox="0 0 512 512" style="enable-background:new 0 0 512 512;" xml:space="preserve">
<g>
	<path d="M366.2,110.2h-36.5c-6.6,0-12,5.4-12,12c0,6.6,5.4,12,12,12h36.5c3.3,0,6.3-1.3,8.5-3.5c2.2-2.2,3.5-5.1,3.5-8.5
		C378.2,115.6,372.8,110.2,366.2,110.2z M342.4,191.7l-25.8-25.8c-2.3-2.3-5.4-3.5-8.5-3.5c-3.1,0-6.1,1.2-8.5,3.5
		c-4.7,4.7-4.7,12.3,0,16.9l25.8,25.8c4.7,4.7,12.3,4.7,16.9,0C347.1,204,347.1,196.4,342.4,191.7z M212.3,61.6l-25.8-25.8
		c-2.3-2.3-5.4-3.5-8.5-3.5c-3.1,0-6.1,1.2-8.5,3.5c-4.7,4.7-4.7,12.3,0,16.9l25.8,25.8c4.7,4.7,12.3,4.7,16.9,0
		C217,73.8,217,66.3,212.3,61.6z M212.3,165.9c-4.7-4.7-12.3-4.7-16.9,0l-25.8,25.8c-2.3,2.3-3.5,5.4-3.5,8.5s1.2,6.1,3.5,8.5
		c4.7,4.7,12.3,4.7,16.9,0l25.8-25.8C217,178.2,217,170.6,212.3,165.9z M182.3,110.2h-36.5c-6.6,0-12,5.4-12,12c0,6.6,5.4,12,12,12
		h36.5c3.3,0,6.3-1.3,8.5-3.5c2.2-2.2,3.5-5.1,3.5-8.5C194.2,115.6,188.9,110.2,182.3,110.2z M256,0c-6.6,0-12,5.4-12,12v36.5
		c0,3.3,1.3,6.3,3.5,8.5c2.2,2.2,5.2,3.5,8.5,3.5c6.6,0,12-5.4,12-12V12C268,5.4,262.6,0,256,0z M342.4,35.8
		c-4.7-4.7-12.3-4.7-16.9,0l-25.8,25.8c-2.3,2.3-3.5,5.4-3.5,8.5s1.2,6.1,3.5,8.5c4.7,4.7,12.3,4.7,16.9,0l25.8-25.8
		C347.1,48,347.1,40.5,342.4,35.8z"/>
</g>
<g>
	<path d="M278.9,270v-118c9-6.9,14.8-17.7,14.8-29.9c0-20.8-16.8-37.6-37.6-37.6c-20.8,0-37.6,16.8-37.6,37.6
		c0,12.1,5.7,22.9,14.6,29.8V270C102.5,275.5,0,327.5,0,390.8C0,457.7,114.6,512,256,512c141.4,0,256-54.3,256-121.2
		C512,327.5,409.6,275.5,278.9,270z M314.9,288.2l-25.8,25.4c-3.4-0.4-6.8-0.8-10.2-1v-27.4C291.2,285.8,303.2,286.8,314.9,288.2z
		 M233.1,285.2v27.4c-3.5,0.3-7,0.6-10.4,1l-25.5-25.5C208.8,286.8,220.8,285.8,233.1,285.2z M46.2,425.2c-10.9-11.9-17-25-17-38.7
		c0-17.5,9.9-34,27.2-48.4l66.8,28.9c-0.8,2.7-1.2,5.5-1.2,8.3c0,5.3,1.4,10.5,3.9,15.4L46.2,425.2z M256,488.2
		c-22.3,0-43.8-1.4-64.1-4.1l39.6-46.2c8,0.7,16.2,1.1,24.5,1.1c8.3,0,16.4-0.4,24.2-1l39.6,46.2C299.6,486.8,278.2,488.2,256,488.2
		z M256,422.6c-63.3,0-114.6-22.7-114.6-50.8c0-24.6,39.4-45,91.7-49.8v53.5h45.8v-53.5c52.3,4.7,91.7,25.2,91.7,49.8
		C370.6,399.9,319.3,422.6,256,422.6z M465.9,425.1L386,390.6c2.5-4.9,3.9-10,3.9-15.3c0-2.8-0.4-5.6-1.1-8.3l66.9-28.9
		c17.3,14.4,27.2,30.8,27.2,48.3C482.8,400.2,476.8,413.2,465.9,425.1z"/>
</g>
</svg>
