<?xml version="1.0" encoding="utf-8"?>
<!-- Generator: Adobe Illustrator 21.1.0, SVG Export Plug-In . SVG Version: 6.00 Build 0)  -->
<svg version="1.1" id="Layer_2" xmlns="http://www.w3.org/2000/svg" xmlns:xlink="http://www.w3.org/1999/xlink" x="0px" y="0px"
	 viewBox="0 0 430 512" style="enable-background:new 0 0 430 512;" xml:space="preserve">
<path d="M182.5,82v363H430V82H182.5z M0,512l177-67.3V82.6L0,0V512z M114,359.4l41.1-8.9v-11.8l-41.1,7.2v-71.5l41.1,0.9v-11.8
	l-41.1-2.6v-68l41.1,7.2v-11.8l-41.1-8.9V88.5l41.1,17.7v316.9L114,436.3V359.4z M33.9,54.1l61.4,26.4v95.1l-61.4-13.3V54.1z
	 M33.9,179l61.4,10.8v70.1L33.9,256V179z M33.9,272.7l61.4,1.3v75.2L33.9,360V272.7z M33.9,376.7l61.4-13.3v78.9L33.9,462V376.7z"/>
</svg>
