<?xml version="1.0" encoding="utf-8"?>
<!-- Generator: Adobe Illustrator 21.1.0, SVG Export Plug-In . SVG Version: 6.00 Build 0)  -->
<svg version="1.1" id="Layer_2" xmlns="http://www.w3.org/2000/svg" xmlns:xlink="http://www.w3.org/1999/xlink" x="0px" y="0px"
	 viewBox="0 0 512 512" style="enable-background:new 0 0 512 512;" xml:space="preserve">
<style type="text/css">
	.st0{fill:#010101;}
</style>
<path class="st0" d="M477.1,190.9c-17.1-18.1-76.7-45.6-109.4,24.2l0,0c-1.4,2.9-3.4,5.5-6,7.2c-11.4,2.4-24.4-27.1-33.8-51.7
	L266.1,6.9c-1.4-3.4-4.3-6-7.9-6.5c-3.8-0.5-7.2,1-9.4,3.9c-1.7,2.2-41.5,56.3-44.6,93.4c-0.2,1.9-0.3,3.8-0.3,5.6
	c-2-0.7-4.1-1.4-6.3-2c-18.9-5.8-58.7-9.2-77.8-14C102.4,83,66.2,71.7,41.3,62.2c-8.2-3.2-15.5,6-10.9,13.5
	c20.5,32.4,55.7,82.5,55.8,82.6c48.3,99.4,52.2,138.4,67.4,157.4c25.8,34.7,50,41.1,58.4,42c-42.3,19.3-70.2,29.9-118,45.6
	c-143.9,47.3-79.6,73.2-79.6,73.2c216.8,91.7,61.3-21.9,228.2-34.1c211,15,195.8-87.4,204.3-155.7c6.7-54.5,64.5-55,64.5-55
	C490.9,204.9,477.1,190.9,477.1,190.9z"/>
</svg>
