<?xml version="1.0" encoding="utf-8"?>
<!-- Generator: Adobe Illustrator 19.0.0, SVG Export Plug-In . SVG Version: 6.00 Build 0)  -->
<svg version="1.1" id="Layer_2" xmlns="http://www.w3.org/2000/svg" xmlns:xlink="http://www.w3.org/1999/xlink" x="0px" y="0px"
	 viewBox="-76 0 378 512" style="enable-background:new -76 0 378 512;" xml:space="preserve">
<g>
	<path d="M113,452c-16.6,0-30,13.4-30,30s13.4,30,30,30s30-13.4,30-30S129.6,452,113,452z"/>
	<path d="M148.8,103H76.7v216L-26.4,216.7v78.4l0.5,6c0.6,4.3,2.3,7.7,5.1,10.2L112.8,432l132.1-121.7l4.7-6
		c1.3-2.8,1.9-5.2,1.9-7.4v-79.8L148.8,320V103z"/>
	<polygon points="-76,0 -76,124.5 -4,124.5 -4,72.3 230,72.3 230,124.5 302,124.5 302,0 	"/>
</g>
</svg>
