<?xml version="1.0" encoding="utf-8"?>
<!-- Generator: Adobe Illustrator 21.1.0, SVG Export Plug-In . SVG Version: 6.00 Build 0)  -->
<svg version="1.1" id="Layer_1" xmlns="http://www.w3.org/2000/svg" xmlns:xlink="http://www.w3.org/1999/xlink" x="0px" y="0px"
	 viewBox="0 0 550 512" style="enable-background:new 0 0 550 512;" xml:space="preserve">
<g>
	<g>
		<path d="M275.2,252.8c-26.7,0-48.4,21.7-48.4,48.5c0,26.8,21.7,48.5,48.4,48.5s48.4-21.7,48.4-48.5
			C323.6,274.5,302,252.8,275.2,252.8z M275.2,341.7c-22.3,0-40.3-18.1-40.3-40.4c0-22.3,18.1-40.4,40.3-40.4
			c22.3,0,40.3,18.1,40.3,40.4l0,0C315.5,323.6,297.5,341.7,275.2,341.7z"/>
	</g>
	<g>
		<path d="M275.2,279.5c-12,0-21.8,9.8-21.8,21.8s9.8,21.8,21.8,21.8c12,0,21.8-9.8,21.8-21.8S287.3,279.5,275.2,279.5z
			 M272.8,295.7c-0.1,0-0.1,0.1-0.1,0.1c-1.9,1.5-2.9,3.8-2.9,6.2c0,1.4-1.1,2.5-2.5,2.5c-1.4,0-2.5-1.1-2.5-2.5
			c0-4,1.7-7.6,4.8-10.1v-0.1c1.1-0.9,2.6-0.7,3.5,0.3c0,0,0,0.1,0.1,0.1C274,293.3,273.8,294.9,272.8,295.7z"/>
	</g>
	<g>
		<path d="M215.1,107.2c3.8,0,32.7-2.3,48.4-5.5v9.2h22.1v-9.4c15.5,3.3,45.5,5.7,49.4,5.7c5.3,0,9.6-4.3,9.6-9.6
			c0-5.3-4.3-9.6-9.6-9.6c-3.9,0-34.3,2.3-49.7,5.8c-1.1-4.9-5.5-8.6-10.8-8.6c-5.2,0-9.6,3.6-10.7,8.4c-15.6-3.3-44.9-5.6-48.7-5.6
			c-5.3,0-9.6,4.3-9.6,9.6C205.4,102.8,209.7,107.2,215.1,107.2z"/>
	</g>
	<g>
		<path d="M437.2,177.7l-78.2,25.7c-21.3-3.6-42.7-5.7-64.2-6.6l-4.5-38.9h-0.6c2.7-3.3,4.4-7.6,4.4-12.3v-29.3h-38.6v29.3
			c0,4.7,1.7,9,4.4,12.3h-0.5l-4.5,38.9c-21.4,0.9-42.8,3-64,6.6l-78.2-25.7v-35.9H64.4v37.5c0,13.5,10.9,24.3,24.3,24.3
			c2.7,0,5.2-0.5,7.6-1.2l58.6,52.4c-14,15.9-29.7,39.3-31.8,65.6c-3.3,42.5-1.7,100.4-1.7,100.4c0,1,0.1,7.2,0.1,7.2h23.5
			c0,0,9.4-89.2,13.9-100.8c3.3-8.7,12-18.6,21.4-27.5c3.1,5.8,9,10,15.8,10c2.6,0,5.1,0,7.8,0c4.2,35.8,34.6,63.4,71.4,63.4
			s67.1-27.7,71.3-63.4c2.6,0,5.1,0,7.8,0c6.6,0,12.3-3.9,15.5-9.4c9.6,9,18.3,19,21.7,27.8c4.5,11.6,12,96.6,12.6,99.9l24.8-0.1
			c0,0,0-3.1,0-6.4c0,0,1.5-57.9-1.7-100.4c-2.1-26.5-18.1-50.2-32.2-66.1l59.1-52.7c2.4,0.8,4.9,1.2,7.6,1.2
			c13.4,0,24.3-10.9,24.3-24.3v-37.5h-48.5L437.2,177.7L437.2,177.7z M275,359.2c-32,0-58-26-58-58.1c0-32.1,25.9-58.1,58-58.1
			s58,26,58,58.1C333,333.2,307.1,359.2,275,359.2z"/>
	</g>
	<g>
		<path d="M74.3,134.8h28.3v-12.1c19.9,4.3,58.3,7.3,63.3,7.3c6.8,0,12.3-5.6,12.3-12.3s-5.5-12.3-12.3-12.3c-5.1,0-43.9,3-63.6,7.4
			c-1.4-6.3-7.1-11.1-13.8-11.1c-6.6,0-12.2,4.6-13.7,10.8c-20.1-4.2-57.6-7.2-62.5-7.2C5.5,105.3,0,110.9,0,117.7
			c0,6.8,5.5,12.3,12.3,12.3c4.9,0,41.9-2.9,62-7V134.8L74.3,134.8z"/>
	</g>
	<g>
		<path d="M537.7,105.3c-4.9,0-42.5,2.9-62.5,7.2c-1.5-6.2-7.1-10.8-13.7-10.8c-6.8,0-12.4,4.8-13.8,11.1
			c-19.7-4.4-58.6-7.4-63.6-7.4c-6.8,0-12.3,5.6-12.3,12.3S377.2,130,384,130c5,0,43.5-3,63.3-7.3v12.1h28.3V123
			c20.2,4.2,57.2,7,62,7c6.8,0,12.3-5.6,12.3-12.3C550,111,544.5,105.3,537.7,105.3z"/>
	</g>
</g>
</svg>
