<?xml version="1.0" encoding="utf-8"?>
<!-- Generator: Adobe Illustrator 21.1.0, SVG Export Plug-In . SVG Version: 6.00 Build 0)  -->
<svg version="1.1" id="Layer_2" xmlns="http://www.w3.org/2000/svg" xmlns:xlink="http://www.w3.org/1999/xlink" x="0px" y="0px"
	 viewBox="0 0 512 512" style="enable-background:new 0 0 512 512;" xml:space="preserve">
<g>
	<path d="M488.5,136.7l-66.7,66.7l2.6,2.6c12.1,12.1,12.1,31.8,0,43.9l-20.1,20c-12.2,12.2-31.9,12.1-44,0L241.9,151.1
		c-12.1-12.1-12.1-31.8,0-43.9L262,87.1c12.2-12.1,31.8-12.1,44,0l2.8,2.8l66.5-66.5C390.4,8.3,410.5,0,431.9,0s41.5,8.3,56.6,23.5
		C519.8,54.7,519.8,105.5,488.5,136.7z"/>
	<path d="M62.7,512c-16.7,0-32.5-6.5-44.3-18.4c-24.4-24.4-24.4-64.2,0-88.6L243,180.4l88.6,88.6L107,493.6
		C95.1,505.5,79.4,512,62.7,512z"/>
</g>
</svg>
