<?xml version="1.0" encoding="utf-8"?>
<!-- Generator: Adobe Illustrator 22.0.1, SVG Export Plug-In . SVG Version: 6.00 Build 0)  -->
<svg version="1.1" id="Layer_2" xmlns="http://www.w3.org/2000/svg" xmlns:xlink="http://www.w3.org/1999/xlink" x="0px" y="0px"
	 viewBox="0 0 512 512" style="enable-background:new 0 0 512 512;" xml:space="preserve">
<g>
	<path d="M511.7,225.5C511,181.3,378.7,154,256,154C133.2,154,0.6,181.4,0.3,225.8c0,0,0,0,0,0l0.1,147.5v57.1
		c0,38.5,72.2,63.9,159.9,74.5c0,0,0.1,0,0.1,0c5.6,0.7,11.3,1.3,17,1.8c0.1,0,0.2,0,0.3,0c5.6,0.5,11.3,1,17,1.5c0.2,0,0.4,0,0.6,0
		c5.6,0.4,11.3,0.8,17,1.1c0.2,0,0.5,0,0.7,0c5.7,0.3,11.3,0.5,17,0.7c0.3,0,0.5,0,0.8,0c5.7,0.2,11.4,0.3,17,0.3c0.2,0,0.3,0,0.4,0
		c2.6,0,5.2,0,7.8,0c4.1,0,8.1,0,12.2-0.1c0.3,0,0.5,0,0.8,0c2.4,0,4.7-0.1,7.1-0.1c0.7,0,1.5,0,2.2,0c2.5-0.1,5-0.2,7.5-0.2
		c0.8,0,1.7-0.1,2.5-0.1c1.9-0.1,3.8-0.2,5.7-0.3c0.9,0,1.7-0.1,2.6-0.1c2.3-0.1,4.7-0.2,7-0.4c1.1-0.1,2.1-0.1,3.2-0.2
		c1.7-0.1,3.5-0.2,5.2-0.3c1.5-0.1,2.9-0.2,4.4-0.3c1.6-0.1,3.3-0.2,4.9-0.4c1.2-0.1,2.4-0.2,3.6-0.3c2-0.2,3.9-0.3,5.8-0.5
		c1.4-0.1,2.7-0.3,4.1-0.4c1.3-0.1,2.7-0.3,4-0.4c1.2-0.1,2.5-0.3,3.7-0.4c2.1-0.2,4.1-0.5,6.1-0.7c1.3-0.1,2.5-0.3,3.7-0.4
		c1.3-0.2,2.5-0.3,3.8-0.5c1.7-0.2,3.5-0.4,5.2-0.7c1.4-0.2,2.9-0.4,4.3-0.6c1.2-0.2,2.4-0.3,3.6-0.5c1.4-0.2,2.8-0.4,4.2-0.6
		c1.7-0.3,3.3-0.5,4.9-0.8c1.3-0.2,2.6-0.4,3.9-0.7c1.1-0.2,2.2-0.4,3.4-0.6c2-0.3,3.9-0.7,5.9-1.1c1-0.2,2-0.4,3-0.6
		c1.4-0.3,2.7-0.5,4.1-0.8c0.9-0.2,1.9-0.4,2.8-0.6c2-0.4,3.9-0.8,5.9-1.2c0.4-0.1,0.8-0.2,1.2-0.3c6.9-1.5,13.6-3.2,20-5v0
		c49.4-13.5,83.2-33.8,83.2-60.1L511.7,225.5C511.7,225.5,511.7,225.5,511.7,225.5z M124,306.5c-3.6,3.4-8,5.6-12.5,6.6v151.3
		c-4.4-1-8.7-2-12.8-3c-2.5-0.6-4.9-1.3-7.3-1.9V309.5c-2.8-1.8-5.3-4.1-7.3-7l-20.6-29.2c22.3,7,49,12.6,78,16.7L124,306.5z
		 M279,324.4c-3,3.7-6.7,6.4-10.7,8.1v145.9c-4.1,0.1-8.1,0.1-12.2,0.1c-2.6,0-5.2,0-7.8,0v-146c-4.1-1.7-7.8-4.3-10.8-8.1
		l-21.9-27.6c13.5,0.6,27,1,40.5,1c14.9,0,30-0.4,45-1.2L279,324.4z M433.6,302.5c-1.5,2.1-3.2,3.9-5.1,5.4v149.2
		c-4.8,1.5-9.9,2.9-15.2,4.2c-1.6,0.4-3.2,0.8-4.8,1.2v-149c-5.3-0.7-10.5-3-14.7-7l-18.4-17.3c30.4-4.5,58.1-10.7,80.5-18.5
		L433.6,302.5z M256,258.8c-152.3,0-220.3-38-220.3-39.9C35.8,217,99,179,256,179c159.6,0,220.3,38,220.3,39.9
		C476.3,220.8,412.4,258.8,256,258.8z M256,185.7c-132.6,0-196.4,29.2-196.4,31.6c0,2.6,64.2,31.7,196.4,31.7
		c135,0,196.4-30.1,196.4-31.7C452.4,215.6,388.3,185.7,256,185.7z"/>
	<path d="M361.3,75.8c-6.3-1.6-12.7,0-18.3,2.4c-1.6,0.8-3.2,0.8-4,0l-38.1-19c-0.8-0.8-0.8-2.4,0-3.2L366,22.7
		c5.6-2.4,7.9-8.7,6.3-14.3c-2.4-7.1-10.3-10.3-16.7-7.1l-80.9,41.3c-1.6,0.8-4,0.8-5.6,0L188.3,2c-6.3-3.2-14.3,0-16.7,7.1
		c-1.6,5.6,0.8,11.1,6.3,14.3L243,56.8c0.8,0.8,0.8,2.4,0,3.2l-38.9,19.8c-0.8,0.8-1.6,0.8-3.2,0c-5.6-3.2-11.9-4-18.3-2.4
		c-10.3,2.4-18.3,11.1-19.8,21.4c-2.4,15.9,10.3,30.2,25.4,30.2c14.3,0,26.2-11.9,26.2-26.2V102v-0.8l54.8-27.8c1.6-0.8,4-0.8,5.6,0
		l54,27.8c0.8,0,0.8,0.8,0.8,1.6l0,0c0,14.3,11.9,26.2,26.2,26.2c15.9,0,27.8-13.5,25.4-30.2C379.5,87.7,370.8,78.2,361.3,75.8z"/>
</g>
</svg>
