<?xml version="1.0" encoding="utf-8"?>
<!-- Generator: Adobe Illustrator 21.1.0, SVG Export Plug-In . SVG Version: 6.00 Build 0)  -->
<svg version="1.1" id="Layer_1" xmlns="http://www.w3.org/2000/svg" xmlns:xlink="http://www.w3.org/1999/xlink" x="0px" y="0px"
	 viewBox="0 0 537 512" style="enable-background:new 0 0 537 512;" xml:space="preserve">
<path d="M515.6,387.8c-55.1,112.5-201.1,133.9-324.2,120.8c-86.7-9.2-157.8-71.8-157.8-160.3c0-65.3,38.4-121.4,93.5-146.4
	c-72.5,6.8-121.3-19.3-115-28.6c30.2,13,73.9,17.7,95.3-3.7C53.5,192.3-4,170,0.2,148c0.5-0.9,1.9-3.1,14-1.5
	c24.8,3.4,77.4,4.1,86.1-52.4C111.3,40.4,158.2,0,214.4,0C278.8,0,331,53,331,118.4c0,41.4-20.9,77.7-52.6,98.9c0,0,0,0,0,0
	c2.1,0.7,3.2,2.8,2.8,4.9c-2,8.6-3,17.6-3,26.9c0,61.7,46.1,111.7,102.9,111.7c30.5,0,57.9-14.4,76.8-37.3
	c-15.8,12.1-35,19.2-55.8,19.2c-53.3,0-96.4-46.7-96.4-104.3c0-3.4,0.2-6.9,0.5-10.2c0.1-1.5,1.6-2.6,3.1-2.3c1.2,0.3,2.4,0.5,3,0.6
	c7.2,1.5,14.7,2.7,22.4,3.5c14.8,1.5,30.5,1.7,47.3-0.3c88-10.5,85.2-78.5,101.1-66.2C537.3,205.4,555,307.4,515.6,387.8z"/>
</svg>
