<?xml version="1.0" encoding="utf-8"?>
<!-- Generator: Adobe Illustrator 21.1.0, SVG Export Plug-In . SVG Version: 6.00 Build 0)  -->
<svg version="1.1" id="Layer_4" xmlns="http://www.w3.org/2000/svg" xmlns:xlink="http://www.w3.org/1999/xlink" x="0px" y="0px"
	 viewBox="0 0 512 512" style="enable-background:new 0 0 512 512;" xml:space="preserve">
<path d="M186.5-0.1l-53.3,1L1.4,132.7L0,186.4l86.7,86.7l0.3,0.3l0.2-0.2l59.8,5.9l42.3-42.3l12.8,12.8l5.7-5.7l12.8,12.8l4.1-4.1
	l35.3,33.4l-5.1,5.1l12.8,12.8l-5.7,5.7l12.8,12.8l-42,42l5.6,60.2l-0.2,0.2l87,87l53.3-1L510.6,379l1.4-53.7l-87-87l-0.2,0.2
	l-59.8-5.9l-42,42l-12.8-12.8l-5.7,5.7l-12.8-12.8l-5.1,5.1l-33.4-35.3l4.1-4.1l-12.8-12.8l5.7-5.7l-12.8-12.8l41.7-41.7l-5.5-60.2
	l0.2-0.2l-0.3-0.3L186.5-0.1L186.5-0.1z"/>
</svg>
