<?xml version="1.0" encoding="utf-8"?>
<!-- Generator: Adobe Illustrator 21.1.0, SVG Export Plug-In . SVG Version: 6.00 Build 0)  -->
<svg version="1.1" id="Layer_2" xmlns="http://www.w3.org/2000/svg" xmlns:xlink="http://www.w3.org/1999/xlink" x="0px" y="0px"
	 viewBox="0 0 487.4 512" style="enable-background:new 0 0 487.4 512;" xml:space="preserve">
<path d="M424.5,381.6c-16.3,11.6-33.7,21.6-52.1,30L324,300.8h14.8c26.4,0,47.8-21.4,47.8-47.8v-4.4c0-82.5,17.4-171.1,46.5-243.1
	c1.1-2.6-0.9-5.5-3.7-5.5h-32.2c-7.1,0-13.6,4.3-16.2,11.1c-24,61.2-38.8,117-42.2,186c-0.5,10.5-4.7,26-22.5,31.5h-84.9
	c1.4-22.3,7.8-41.3,18.8-56.2c6,0.7,12.1,1.6,18.3,2.7c11.7,2.2,23.7-1,32.8-8.7c0.8-0.7,1.6-1.4,2.4-2.1c2.9-2.5,1.8-7.2-1.8-8.2
	c-60.9-17.4-116.2-15.1-162.4,5.3c-4.4,1.9-4.1,8.3,0.5,9.8l13.9,4.3c7.9,2.5,16.4,2.9,24.4,0.9c6.8-1.7,13.9-3,21-3.9
	c11,14.9,17.4,33.9,18.8,56.1h-68.9c-26.4,0-47.8,21.4-47.8,47.8V301h64.4l-49.3,112.3c-19.1-8.4-37.1-18.6-54-30.4
	c-14.3-10-33.7-8.4-46.1,4l0,0C0.7,402.6,2.8,428.8,21,441.6C83.8,485.9,160.5,512,243.4,512c83.3,0,160.4-26.4,223.5-71.3
	c18.1-12.9,20.2-38.9,4.5-54.7l-0.6-0.6C458.4,373,438.8,371.4,424.5,381.6z M214.4,171c6.6-0.3,13.5-0.3,20.4,0
	c-4.1,6.7-7.5,14.1-10.2,22C221.9,185.2,218.5,177.8,214.4,171z M200.4,300.8h88l52.5,123.1c-30.9,10.2-63.9,15.7-98.2,15.7
	c-32.9,0-64.5-5.1-94.3-14.4L200.4,300.8z"/>
</svg>
