<?xml version="1.0" encoding="utf-8"?>
<!-- Generator: Adobe Illustrator 21.1.0, SVG Export Plug-In . SVG Version: 6.00 Build 0)  -->
<svg version="1.1" id="Layer_5" xmlns="http://www.w3.org/2000/svg" xmlns:xlink="http://www.w3.org/1999/xlink" x="0px" y="0px"
	 viewBox="0 0 502.7 512" style="enable-background:new 0 0 502.7 512;" xml:space="preserve">
<g>
	<path d="M391,331.7V441H72V123h197.7l48.5-72H50C22.4,51,0,73.4,0,101v362c0,27.6,22.4,50,50,50h363c27.6,0,50-22.4,50-50V229.2
		L391,331.7z"/>
	<g>
		<path d="M453.4,4.4L235.6,321.8c-7.3-7.4-11.9-14.9-13.2-21c-0.1-0.2,0.1-0.8,0.6-1.5l0,0l1-1.4c0.1-0.1,0.1-0.2,0.2-0.3
			c0.2-0.3,0.4-0.6,0.6-0.8L422.2,9.1c3.2-4.7,7.7-7.6,13.6-8.6c5.3-1.2,10.8-0.2,16.3,3.1l0,0L453.4,4.4z"/>
	</g>
	<g>
		<path d="M499.3,59.5L301.2,347.1c-1.6,2.1-2.6,3.9-6,3.7c-0.7-0.1-1.6,0-2.5,0c-6.9-0.2-15.5-2.8-22.7-5.6L489,26.9l4.7,3.8
			c4.5,3.4,7.4,7.9,8.6,13.3C503.3,49.7,502.3,54.9,499.3,59.5z"/>
	</g>
	<g>
		<path d="M232.3,365c-0.1-2.5,2.2-26.8,2.2-26.8c-5.1-4-10.8-12.3-17-24.6l-3.3,79.4l72.4-32.5c-12.9-1.1-22.3-3.6-28.1-7.6
			C258.4,352.9,240.3,362.7,232.3,365z"/>
	</g>
	<path d="M482.5,23.2L263.3,341.9c-2.7-1.4-5.5-3-8.3-4.7c0,0-0.1,0-0.2-0.1c0,0-0.1,0-0.1-0.1l0,0c-0.1,0-0.1-0.1-0.2-0.1
		c-0.9-0.6-2.7-1.8-3.3-2.2c-0.1,0-0.1-0.1-0.1-0.1s0,0-0.1,0c-2.4-1.6-7.6-5.5-9.8-7.2l218.3-319l11,7.1l0.6,0.4l3.8,2.5
		L482.5,23.2z"/>
</g>
</svg>
