<?xml version="1.0" encoding="utf-8"?>
<!-- Generator: Adobe Illustrator 21.1.0, SVG Export Plug-In . SVG Version: 6.00 Build 0)  -->
<svg version="1.1" id="Layer_5" xmlns="http://www.w3.org/2000/svg" xmlns:xlink="http://www.w3.org/1999/xlink" x="0px" y="0px"
	 viewBox="0 0 502.7 512" style="enable-background:new 0 0 502.7 512;" xml:space="preserve">
<style type="text/css">
	.st0{fill:#231F20;}
</style>
<g>
	<path d="M391,331.7V441H72V123h197.7l48.5-72H50C22.4,51,0,73.4,0,101v362c0,27.6,22.4,50,50,50h363c27.6,0,50-22.4,50-50V229.2
		L391,331.7z"/>
	<path d="M502.5,53.9c2.1-3.3-13.4-17.8-34.7-32.4C446.4,6.8,427.3-2.5,425,0.6L228.2,288.5l-7.7,11.3c3.8,20.6,44.2,53,77.3,51.3
		l8.5-12L502.5,53.9C502.5,53.9,502.5,53.9,502.5,53.9C502.5,53.9,502.5,53.9,502.5,53.9L502.5,53.9
		C502.5,53.9,502.5,53.9,502.5,53.9z M456.7,22.5c0.4-0.6,3.9,1.1,7.8,3.8c3.9,2.7,6.7,5.3,6.3,5.9c-0.4,0.6-3.9-1.1-7.8-3.8
		C459.1,25.7,456.3,23,456.7,22.5z"/>
	<g>
		<path class="st0" d="M214.7,310.3l-1.5,82.7l78.8-31.4c-11.4-2.6-31-6-47.3-17.1C229.5,334.2,220.8,319.2,214.7,310.3z"/>
	</g>
</g>
</svg>
