<?xml version="1.0" encoding="utf-8"?>
<!-- Generator: Adobe Illustrator 21.1.0, SVG Export Plug-In . SVG Version: 6.00 Build 0)  -->
<svg version="1.1" id="Layer_1" xmlns="http://www.w3.org/2000/svg" xmlns:xlink="http://www.w3.org/1999/xlink" x="0px" y="0px"
	 viewBox="0 0 550 512" style="enable-background:new 0 0 550 512;" xml:space="preserve">
<g>
	<g>
		<path d="M438.8,163.7l-163.5,46.7l-164.2-47.1C2.6,309.2,109.8,497,274.8,497S545.1,311.1,438.8,163.7z M140.1,220.6l43,12.3
			c-2.9,18.3-4.5,37.5-4.5,57.1c0,21.8,1.9,43.1,5.5,63.2c-14,3.9-27.3,8.7-39.5,14.3C118.2,324.3,115.4,266.9,140.1,220.6z
			 M181.9,409.6c5.3-1.9,10.6-3.7,16.2-5.3c2.8,7.4,5.9,14.6,9.2,21.3C198.3,421.2,189.8,415.8,181.9,409.6z M296.4,398.5
			c-6.5,14.2-13.9,25.6-21.6,33.5c-7.7-7.9-15.1-19.3-21.6-33.5c-0.6-1.2-1.1-2.5-1.7-3.8c7.8-0.7,15.6-1,23.3-1
			c7.7,0,15.5,0.4,23.3,1C297.5,395.9,297,397.2,296.4,398.5z M313.5,343.4c-12.7-1.3-25.7-2.1-38.7-2.1c-13.1,0-26.1,0.7-38.7,2.1
			c-3.4-17.5-5.2-35.6-5.2-53.5c0-14.1,1.1-28.4,3.3-42.4l41.1,11.8l40.2-11.5c2.1,13.9,3.2,28.1,3.2,42.1
			C318.7,307.8,316.9,326,313.5,343.4z M342.2,425.7c3.4-6.8,6.5-13.9,9.2-21.3c5.5,1.6,11,3.4,16.2,5.3
			C359.8,415.8,351.2,421.2,342.2,425.7z M404.9,367.5c-12.2-5.6-25.5-10.4-39.5-14.3c3.7-20.2,5.5-41.5,5.5-63.2
			c0-19.5-1.5-38.5-4.4-56.7l43.2-12.3C433.2,263.1,431.3,325.2,404.9,367.5z"/>
		<path d="M115.9,117.2l158.9,44.2L550,84.5L277.1,15.6L0,85l85.1,23.7c-3.9,5.9-34.3,39.7-40.7,74.8c-13.4,73.1-3.5,171.4,0,172.3
			c0.3,0.1,3.1-48.2,7.4-47.1c1.4,0.4,3,50,4.6,50.4c1.4,0.4,2.8-73.2,4.3-72.9c1.5,0.3,3.1,74.5,4.7,74.8c2,0.4,4-48.6,6-48.4
			c2.1,0.2,4.1,49.6,6.2,49.6c3.1,0,5.9-24.8,8.4-25.5c3.4-0.9,5.8,22,6.8,19.1c11.2-36-3.2-114.7,0-172.3
			C94.6,149.9,110.5,123.3,115.9,117.2z"/>
	</g>
</g>
</svg>
