<?xml version="1.0" encoding="utf-8"?>
<!-- Generator: Adobe Illustrator 21.1.0, SVG Export Plug-In . SVG Version: 6.00 Build 0)  -->
<svg version="1.1" id="fill" xmlns="http://www.w3.org/2000/svg" xmlns:xlink="http://www.w3.org/1999/xlink" x="0px" y="0px"
	 viewBox="0 0 301.1 512" style="enable-background:new 0 0 301.1 512;" xml:space="preserve">
<style type="text/css">
	.st0{fill-rule:evenodd;clip-rule:evenodd;}
</style>
<path class="st0" d="M249.8,512c-5.4-34.1-33.4-53.4-33.4-53.4c-31.8-21.4-63.7-20.5-63.7-20.5c-28,1.4-39.3,6.4-39.3,6.4
	c-35.7,14.9-45.8,35.8-45.8,35.8c-7.9,12.4-10.5,23.9-11.2,31.8H0.1l72.5-95.9l-2.2-12l1.3-14.5h15.5c7.9-15,26.8-69.9,26.8-69.9
	l-4.6-18.1l1.4-2.8l6.5-2.9h2.4l0.8-2.1c11.2-29.6,23.8-217.7,23.8-217.7c-0.6-2.9-4.4-4.8-4.4-4.8l-0.7-20.7l3.9-5.1
	c-6.3-7.5,5.4-7.9,5.4-7.9h2.8V20h1.8l0-20h2.9l0,20h1.9l0,17.7h1c13.7-0.2,6.8,8.1,6.8,8.1l4.3,3.7l-0.1,21.5
	c-1.5,0-3.8,4.2-3.8,4.2c4.2,158.6,21.5,220.7,21.5,220.7h3l6.7,2.8l0.9,2.2l-3.5,21.8c1.4,13.7,25.6,67.7,25.6,67.7H235l1.3,14.3
	l-2.6,12.7l67.4,94.5H249.8z M288.2,502l-18.7-7.4l5.9,7.8L288.2,502z M271.4,502.4l-4.8-7.4l-8,7.5L271.4,502.4z M227.4,421.9
	l-1.7,1.3l1.7,1.3l1.6,1.3l0,0l0,0l0,0v0l1.7-1.3l1.7-1.3l-1.7-1.3l-1.6-1.3v0l0,0l0,0v0L227.4,421.9z M228.8,419.7l-1.7-1.3
	l-1.7-1.3l-0.1,2.6l-0.1,2.6l1.7-1.3L228.8,419.7z M225.2,424l-0.1,2.6l-0.1,2.6l1.7-1.3l1.7-1.3l-1.6-1.3L225.2,424z M231.1,425.3
	l-1.7,1.3l1.7,1.3l1.7,1.3l0.1-2.6l0.1-2.6L231.1,425.3z M227.4,437.9h-13.3l18.9,7.9L227.4,437.9z M218.5,421.9l-1.7,1.3l1.7,1.3
	l1.6,1.3v0l0,0l0,0l0,0l1.7-1.3l1.7-1.3l-1.7-1.3l-1.6-1.3v0l0,0l0,0v0L218.5,421.9z M155.4,81.5l3.9,3.4l3.6-3.2L155.4,81.5z
	 M162.9,81l-3.9-3.5l-3.4,3.5H162.9z M159.3,85.9l-3.7,3.4h7.8L159.3,85.9z M155.5,89.9l4.1,3.6l3.8-3.4L155.5,89.9z M159,94.1
	l-4.3-3.6l-0.1,7.4L159,94.1z M154.8,118.1l4.9-4.4l-4.8-4.2L154.8,118.1z M154.9,107.9l4.7-4.1l-4.6-3.9L154.9,107.9z M159.6,94.7
	l-3.9,3.7h8.3L159.6,94.7z M155.7,99.2l4.4,3.9l4.1-3.7L155.7,99.2z M160.1,104.4l-4.2,4h8.9L160.1,104.4z M155.7,108.8l4.7,4.3
	l4.3-4L155.7,108.8z M160.3,114.4l-4.4,4.4h9.4L160.3,114.4z M155.6,119.3l5,4.5l4.7-4.3L155.6,119.3z M160.6,125.2l-4.7,4.6h10.1
	L160.6,125.2z M155.6,130.5l5.2,4.8l4.9-4.6L155.6,130.5z M160.8,136.8l-4.9,4.9h10.5L160.8,136.8z M155.7,142.2l5.7,5.6l5.3-5.3
	L155.7,142.2z M83.4,421.9l-1.7,1.3l1.7,1.3l1.7,1.3v0l0,0l0,0v0l1.6-1.3l1.7-1.3l-1.7-1.3l-1.7-1.3l0,0l0,0l0,0l0,0L83.4,421.9z
	 M84.6,419.7l-1.7-1.3l-1.7-1.3l0.1,2.6l0.1,2.6L83,421L84.6,419.7z M81.3,424l0.1,2.6l0.1,2.6l1.7-1.3l1.7-1.3l-1.7-1.3L81.3,424z
	 M87.1,421l1.7,1.3l-0.1-2.6l-0.1-2.6l-1.7,1.3l-1.7,1.3L87.1,421z M87.3,425.3l-1.7,1.3l1.7,1.3l1.7,1.3l-0.1-2.6l-0.1-2.6
	L87.3,425.3z M76.9,437.9l-5.7,7.9l18.9-7.9H76.9z M74.5,421.9l-1.7,1.3l1.7,1.3l1.7,1.3v0l0,0l0,0v0l1.6-1.3l1.7-1.3l-1.7-1.3
	l-1.7-1.3l0,0l0,0l0,0l0,0L74.5,421.9z M72.5,424l0.1,2.6l0.1,2.6l1.6-1.3l1.7-1.3l-1.7-1.3L72.5,424z M78.3,421l1.7,1.3l-0.1-2.6
	l-0.1-2.6l-1.7,1.3l-1.7,1.3L78.3,421z M78.4,425.3l-1.7,1.3l1.7,1.3l1.7,1.3l-0.1-2.6l-0.1-2.6L78.4,425.3z M49.7,471.6l-17.8,7.6
	l12.2,0.4L49.7,471.6z M38.7,490.8l19.6-7.6H44.5L38.7,490.8z M47.9,479.5l12.2,0.1l-7.6-7.7L47.9,479.5z M55.5,471l7.1,7.4l5.8-7.9
	L55.5,471z M69.9,468.8l5-7.6l-18.1,7.7L69.9,468.8z M73.7,459.9H60.6l-5.5,7.7L73.7,459.9z M65.8,449.7l-18,7.7l12.3,0.4
	L65.8,449.7z M63.9,457.8l12.3,0.1l-7.6-7.8L63.9,457.8z M95.7,424.4l1.7-1.3l-1.7-1.3l-1.7-1.3v0l0,0l0,0v0l-1.6,1.3l-1.7,1.3
	l1.7,1.3l1.7,1.3v0l0,0l0,0v0L95.7,424.4z M90.2,424l0.1,2.6l0.1,2.6l1.7-1.3l1.7-1.3l-1.7-1.3L90.2,424z M91,446.4
	c0.8-0.7,4.4-2.2,4.4-2.2C90.7,443,91,446.4,91,446.4z M73,447l13.2-0.1l5.1-7.8L73,447z M71.7,449.1l7.1,7.6l5.9-8.1L71.7,449.1z
	 M90.1,419.7l0.1,2.6l1.7-1.3l1.7-1.3l-1.7-1.3l-1.7-1.3L90.1,419.7z M90.4,401.3h7.1l-0.2-9.2h-7.1L90.4,401.3z M96,418.4l-1.7,1.3
	L96,421l1.7,1.3l-0.1-2.6l-0.1-2.6L96,418.4z M96.1,425.3l-1.7,1.3l1.7,1.3l1.7,1.3l-0.1-2.6l-0.1-2.6L96.1,425.3z M96,438.9
	c-2.4,1.1-1.1,2.8-1.1,2.8l1.5,1.9l4.6-2.3l-1.2-1.7C98.1,437.9,96,438.9,96,438.9z M140.6,424.4l1.7-1.3l-1.7-1.3l-1.7-1.3v0l0,0
	l0,0v0l-1.6,1.3l-1.7,1.3l1.7,1.3l1.7,1.3v0l0,0l0,0v0L140.6,424.4z M149.8,424.4l1.7-1.3l-1.7-1.3l-1.7-1.3v0l0,0l0,0v0l-1.7,1.3
	l-1.7,1.3l1.7,1.3l1.7,1.3v0l0,0l0,0v0L149.8,424.4z M158.9,424.4l1.7-1.3l-1.7-1.3l-1.7-1.3v0l0,0l0,0v0l-1.7,1.3l-1.7,1.3l1.7,1.3
	l1.6,1.3v0l0,0l0,0v0L158.9,424.4z M160.8,401.3l0-9.2h-7.1l0,9.2H160.8z M153.4,417.1l0,2.6v2.6l1.7-1.3l1.7-1.3l-1.7-1.3
	L153.4,417.1z M159.3,418.4l-1.7,1.3l1.7,1.3l1.7,1.3l0-2.6l0-2.6L159.3,418.4z M157.6,426.6l1.7,1.3l1.7,1.3l0-2.6l0-2.6l-1.7,1.3
	L157.6,426.6z M155.1,425.3l-1.7-1.3l0,2.6l0,2.6l1.7-1.3l1.7-1.3L155.1,425.3z M182,389.9c0,0-13.3-58.2-12.7-61.6h-30.9
	c0,0-12.8,56.2-16.4,61.6H182z M231.3,447l-18.3-7.9l5.1,7.8L231.3,447z M219.6,448.6l5.9,8.1l7.1-7.6L219.6,448.6z M209.7,421.9
	l-1.7,1.3l1.7,1.3l1.6,1.3l0,0l0,0l0,0v0l1.7-1.3l1.7-1.3l-1.7-1.3l-1.6-1.3v0l0,0l0,0v0L209.7,421.9z M207.5,424l-0.1,2.6l-0.1,2.6
	l1.7-1.3l1.7-1.3l-1.7-1.3L207.5,424z M213.5,421l1.7,1.3l0.1-2.6l0.1-2.6l-1.7,1.3l-1.7,1.3L213.5,421z M213.4,425.3l-1.7,1.3
	l1.7,1.3l1.7,1.3l0.1-2.6l0.1-2.6L213.4,425.3z M209.8,444.6c0,0,3.6,1.5,4.4,2.2C214.1,446.8,214.4,443.4,209.8,444.6z
	 M210.2,442.1c0,0,1.3-1.7-1.1-2.8c0,0-2.1-1-3.8,0.7l-1.2,1.7l4.6,2.3L210.2,442.1z M206.4,436.5c0,0,1.3-1.7-1.1-2.8
	c0,0-2.1-1-3.8,0.7l-3.4,4.7l4.7,2.1L206.4,436.5z M201.7,421.3l2.1,3.5l0.5-0.4l1.7-1.3l-1.7-1.3l-1.6-1.3v0l0,0l0,0v0L201.7,421.3
	z M154.7,181.6l6.9-5.6l-6.8-5.4L154.7,181.6z M161,162.3l-6.3-5.4l-0.1,11.1L161,162.3z M154.8,197.4l7.2-6.2l-7.2-5.9L154.8,197.4
	z M153.6,120l-5.2,4.5l5.3,4.7L153.6,120z M153.9,118.1l-0.1-8.6l-4.8,4.2L153.9,118.1z M153.5,131.3L148,136l5.5,5L153.5,131.3z
	 M153.4,143.1l-6,5.5l6,5.8L153.4,143.1z M153.4,156.9l-6.3,5.4l6.4,5.7L153.4,156.9z M153.4,170.6l-6.8,5.4l6.8,5.6L153.4,170.6z
	 M153.3,185.2l-7.2,5.9l7.2,6.2L153.3,185.2z M101,421.9l-1.7,1.3l1.7,1.3l0.5,0.4l2.1-3.5l-1-0.7v0l0,0l0,0v0L101,421.9z
	 M102.2,419.7l-1.7-1.3l-1.7-1.3l0.1,2.6l0.1,2.6l1.7-1.3L102.2,419.7z M98.9,424l0.1,2.6l0.1,2.3l2-3.3l-0.4-0.3L98.9,424z
	 M104.1,420.5l1.9-3.1l-1.3,1l-1.7,1.3L104.1,420.5z M104.5,425.3l-1.7,1.3l1.7,1.3l1.7,1.3l0-0.5l0.6,0.5l0-2.6l-0.1-2.6l-0.6,0.5
	l0-0.5L104.5,425.3z M106.2,401.3h7.1l-0.1-9.2h-7.1L106.2,401.3z M113.2,424.4l1.7-1.3l-1.7-1.3l-1.7-1.3v0l0,0l0,0v0l-1.6,1.3
	l-1.7,1.3l1.7,1.3l1.7,1.3v0l0,0l0,0v0L113.2,424.4z M122.4,424.4l1.7-1.3l-1.7-1.3l-1.7-1.3l0,0l0,0l0,0v0l-1.6,1.3l-1.7,1.3
	l1.7,1.3l1.7,1.3v0l0,0l0,0v0L122.4,424.4z M121.1,426.6l1.7,1.3l1.7,1.3l0-2.6l0-2.6l-1.7,1.3L121.1,426.6z M124.5,422.3l0-2.6
	l0-2.6l-1.7,1.3l-1.7,1.3l1.7,1.3L124.5,422.3z M118.6,425.3l-1.7-1.3l0,2.6l0,2.6l1.7-1.3l1.7-1.3L118.6,425.3z M118.6,421l1.7-1.3
	l-1.7-1.3l-1.7-1.3l0,2.6l0,2.6L118.6,421z M121.3,401.3l-0.1-9.2H114l0.1,9.2H121.3z M113.6,418.4l-1.7,1.3l1.7,1.3l1.7,1.3l0-2.6
	l0-2.6L113.6,418.4z M115.4,426.6l0-2.6l-1.7,1.3l-1.7,1.3l1.7,1.3l1.7,1.3L115.4,426.6z M109.5,425.3l-1.7-1.3l0,2.6l0.1,2.6
	l1.7-1.3l1.7-1.3L109.5,425.3z M109.4,421l1.7-1.3l-1.7-1.3l-1.7-1.3l0,2.6l0,2.6L109.4,421z M118.6,390.1l1.3-4.7l-9.1,4.7H118.6z
	 M121.1,381l4-15l-13.5,7L121.1,381z M127.7,361.2l3.3-14.4l-12.4,7L127.7,361.2z M117.5,355.9l-1.3,6.8l9.3,0.3L117.5,355.9z
	 M137,319.1l2-7l-4.5,3.3L137,319.1z M133.1,316.5l-5.4,3.7l8.1,0.1L133.1,316.5z M151,232.8l2.7,5.2l2.7-5.2H151z M156.3,231.1
	l-2.4-7.9l-2.6,8L156.3,231.1z M149.7,295.6l2.9-3.2l-6.4-7.4l-1.3,10.6H149.7z M142.3,310.8l4.5,3.5l5.2-3.7L142.3,310.8z
	 M149.7,249.4l4,5.3l4-5.3H149.7z M157.8,248.2l-4-8.1l-3.8,8.2L157.8,248.2z M148.1,265l11.6,0l-6-8.3L148.1,265z M148.2,266.5
	l5.4,6l5.6-6.1L148.2,266.5z M146.4,282.7l14.6-0.2l-7-8.1L146.4,282.7z M147.5,284.3l6.2,6.7l6.3-6.9L147.5,284.3z M152.7,273.6
	l-5.7-6.5l-1.8,14.8L152.7,273.6z M153,255.7l-4-5.3l-1.6,13.8L153,255.7z M153.3,239.1l-2.7-5.2l-1.1,13.6L153.3,239.1z
	 M154.3,239.1l3.8,8.4l-1.1-13.6L154.3,239.1z M154.5,255.7l5.6,8.6l-1.6-13.8L154.5,255.7z M154.7,273.5l7,8.1l-1.4-14.7
	L154.7,273.5z M161.2,284.9l-6.4,7.4l2.9,3.4h4.5L161.2,284.9z M155.1,310.6l5.2,3.7l4.5-3.5L155.1,310.6z M161.8,315.4l5.5,3.5
	l-1.3-6.5L161.8,315.4z M161,316.3l-5.2,3.8l11.3,0.1L161,316.3z M159.4,315l-5-3.5l0.3,7.7L159.4,315z M156,295.6l-2.1-2.4
	l-2.2,2.4H156z M147.7,315l4.7,4.1l0.3-7.7L147.7,315z M146.1,316.3l-6.1,3.9l11.3-0.1L146.1,316.3z M145.3,315.4l-4.2-3.1l-1.3,6.5
	L145.3,315.4z M143.4,295.6l1.2-10.6l-10.1,7.8l2.5,2.7H143.4z M145.7,267.1l-9,7l7.3,8.1L145.7,267.1z M145.8,264.5l1.6-14.1
	l-8.3,6.5L145.8,264.5z M147.9,247.7l1.5-14.3l-8,6.6L147.9,247.7z M150,231l1.2-14.6l-7.9,6.9L150,231z M151.4,214.2l1.2-14.3
	l-7.8,6.8L151.4,214.2z M152.3,218.3l-0.7,7l1.8-4.3L152.3,218.3z M153.7,218.7l1.3-3.3l-2.3,0.1L153.7,218.7z M154.2,221l1.7,4.3
	l-0.6-7L154.2,221z M156.4,214.2l6.6-7.6l-7.8-6.8L156.4,214.2z M157.7,231l6.8-7.7l-7.9-6.9L157.7,231z M159.8,247.7l6.5-7.7
	l-8-6.6L159.8,247.7z M161.7,264.5l6.8-7.6l-8.3-6.5L161.7,264.5z M163.4,282.2l7.3-8.1l-8.9-7L163.4,282.2z M162.9,285l1.1,10.6
	h6.5l2.5-2.7L162.9,285z M171.2,320.3l8.1-0.1l-5.3-3.7L171.2,320.3z M172.6,315.4l-4.5-3.3l2,7L172.6,315.4z M181,363l9.3-0.3
	l-1.3-6.8L181,363z M188,353.9l-12.4-7l3.3,14.4L188,353.9z M173.8,421.9l-1.7,1.3l1.7,1.3l1.6,1.3v0l0,0l0,0v0l1.7-1.3l1.7-1.3
	l-1.7-1.3l-1.6-1.3v0l0,0l0,0v0L173.8,421.9z M175.1,419.7l-1.7-1.3l-1.7-1.3l0,2.6l0,2.6l1.7-1.3L175.1,419.7z M177.6,421l1.7,1.3
	l0-2.6l0-2.6l-1.7,1.3l-1.7,1.3L177.6,421z M184.5,401.3l0.1-9.2h-7.1l-0.1,9.2H184.5z M186.3,424.4l1.7-1.3l-1.7-1.3l-1.6-1.3v0
	l0,0l0,0l0,0l-1.7,1.3l-1.7,1.3l1.7,1.3l1.6,1.3v0l0,0l0,0v0L186.3,424.4z M195.4,424.4l1.7-1.3l-1.7-1.3l-1.6-1.3v0l0,0l0,0v0
	l-1.7,1.3l-1.7,1.3l1.7,1.3l1.6,1.3v0l0,0l0,0v0L195.4,424.4z M194.1,426.6l1.7,1.3l1.7,1.3l0-2.6l0.1-2.6l-1.7,1.3L194.1,426.6z
	 M197.6,422.3l0-2.6l0.1-2.6l-1.7,1.3l-1.7,1.3l1.7,1.3L197.6,422.3z M193.4,419.7l-1.7-1.3l-1.7-1.3l0,2.6l0,2.6l1.7-1.3
	L193.4,419.7z M191.6,425.3L190,424l0,2.6l0,2.6l1.7-1.3l1.7-1.3L191.6,425.3z M192.4,401.3l0.2-9.2h-7.1l-0.1,9.2H192.4z
	 M186.8,418.4l-1.7,1.3l1.7,1.3l1.7,1.3l0-2.6l0-2.6L186.8,418.4z M185,426.6l1.7,1.3l1.7,1.3l0-2.6l0-2.6l-1.7,1.3L185,426.6z
	 M184.3,419.7l-1.7-1.3l-1.7-1.3l0,2.6l0,2.6l1.7-1.3L184.3,419.7z M182.5,425.3l-1.7-1.3l0,2.6l0,2.6l1.7-1.3l1.7-1.3L182.5,425.3z
	 M185.4,381l9.4-8l-13.5-7L185.4,381z M187.9,390.1h7.8l-9.1-4.7L187.9,390.1z M193.3,392.1l-0.2,9.2h7.1l0.2-9.2H193.3z
	 M198.3,429.2l1.7-1.3l1.7-1.3l-1.7-1.3l-1.7-1.3l-0.1,2.6L198.3,429.2z M199.3,417.4l1.9,3.1l1.1-0.8l-1.7-1.3L199.3,417.4z
	 M204.3,425.6l2,3.3l0.1-2.3l0.1-2.6l-1.7,1.3L204.3,425.6z M204.8,421l1.7,1.3l0.1-2.6l0.1-2.6l-1.7,1.3l-1.7,1.3L204.8,421z
	 M199.9,434.2c0,0,1.3-1.7-1.1-2.8c0,0-2.1-1-3.8,0.7l-3.4,4.9l5.1,1.7L199.9,434.2z M192.1,434.2c0,0,1.3-1.7-1.1-2.8
	c0,0-2.1-1-3.8,0.7l-1.9,3l5.1,1.7L192.1,434.2z M183.9,431.5c0,0-2.1-1-3.8,0.7l-0.9,1.6l5.3,1.2l0.5-0.7
	C185,434.4,186.3,432.6,183.9,431.5z M179.2,429.2l0-2.6l0-2.6l-1.7,1.3l-1.7,1.3l1.7,1.3L179.2,429.2z M176.2,431.4
	c0,0-2.1-0.4-3,1.4c0,0,4.4,0.7,5.1,1C178.3,433.8,178.4,432,176.2,431.4z M173.4,427.9l1.7-1.3l-1.7-1.3l-1.7-1.3l0,2.6l0,2.6
	L173.4,427.9z M176.6,401.3l0.1-9.2h-7.1l-0.1,9.2H176.6z M168.5,418.4l-1.7,1.3l1.7,1.3l1.7,1.3l0-2.6l0-2.6L168.5,418.4z
	 M168,424.4l1.7-1.3l-1.7-1.3l-1.6-1.3v0l0,0l0,0v0l-1.7,1.3l-1.7,1.3l1.7,1.3l1.6,1.3v0l0,0l0,0l0,0L168,424.4z M166.7,426.6
	l1.7,1.3l1.7,1.3l0-2.6l0-2.6l-1.7,1.3L166.7,426.6z M166,419.7l-1.7-1.3l-1.7-1.3l0,2.6l0,2.6l1.7-1.3L166,419.7z M164.3,425.3
	l-1.7-1.3l0,2.6l0,2.6l1.7-1.3l1.7-1.3L164.3,425.3z M168.7,401.3l0.1-9.2h-7.1l0,9.2H168.7z M182.7,335.2l-11.4-6.5l3.1,13.3
	L182.7,335.2z M135.3,328.7l-11.4,6.5l8.4,6.8L135.3,328.7z M128.1,421.9l-1.7,1.3l1.7,1.3l1.7,1.3v0l0,0l0,0v0l1.6-1.3l1.7-1.3
	l-1.7-1.3l-1.7-1.3v0l0,0l0,0l0,0L128.1,421.9z M133.6,422.3l0-2.6l0-2.6l-1.7,1.3l-1.7,1.3l1.7,1.3L133.6,422.3z M145.7,392.1
	l0,9.2h7.1l0-9.2H145.7z M151.9,417.1l-1.7,1.3l-1.7,1.3l1.7,1.3l1.7,1.3l0-2.6V417.1z M151.9,426.6V424l-1.7,1.3l-1.7,1.3l1.7,1.3
	l1.7,1.3V426.6z M146,425.3l-1.7-1.3l0,2.6l0,2.6l1.7-1.3l1.7-1.3L146,425.3z M146,421l1.7-1.3l-1.7-1.3l-1.7-1.3l0,2.6l0,2.6
	L146,421z M145,401.3l0-9.2h-7.1l0.1,9.2H145z M139.3,419.7l1.7,1.3l1.7,1.3l0-2.6l0-2.6l-1.7,1.3L139.3,419.7z M142.8,426.6l0-2.6
	l-1.7,1.3l-1.7,1.3l1.7,1.3l1.7,1.3L142.8,426.6z M136.9,425.3l-1.7-1.3l0,2.6l0,2.6l1.7-1.3l1.7-1.3L136.9,425.3z M136.8,421
	l1.7-1.3l-1.7-1.3l-1.7-1.3l0,2.6l0,2.6L136.8,421z M137.1,401.3l-0.1-9.2h-7.1l0.1,9.2H137.1z M133.6,426.6l0-2.6l-1.7,1.3
	l-1.7,1.3l1.7,1.3l1.7,1.3L133.6,426.6z M128.9,431c-2.2,0.5-2.1,2.3-2.1,2.3c0.8-0.3,5.1-1,5.1-1C131,430.7,128.9,431,128.9,431z
	 M127.8,427.9l1.7-1.3l-1.7-1.3L126,424l0,2.6l0,2.6L127.8,427.9z M127.7,421l1.7-1.3l-1.7-1.3l-1.7-1.3l0,2.6l0,2.6L127.7,421z
	 M129.2,401.3l-0.1-9.2h-7.1l0.1,9.2H129.2z M125,431.9c-1.7-1.7-3.8-0.7-3.8-0.7c-2.4,1.1-1.1,2.8-1.1,2.8l0.5,0.7l5.3-1.2
	L125,431.9z M117.9,431.7c-1.7-1.7-3.8-0.7-3.8-0.7c-2.4,1.1-1.1,2.8-1.1,2.8l1.7,2.6l5.1-1.7L117.9,431.7z M110.1,431.7
	c-1.7-1.7-3.8-0.7-3.8-0.7c-2.4,1.1-1.1,2.8-1.1,2.8l3.2,4.5l5.1-1.7L110.1,431.7z M103.6,434c-1.7-1.7-3.8-0.7-3.8-0.7
	c-2.4,1.1-1.1,2.8-1.1,2.8l3.7,4.7l4.7-2.1L103.6,434z M98.3,401.3h7.1l-0.2-9.2h-7.1L98.3,401.3z M101.8,390.1h1.1l2.1-6.7
	l-10.9-0.2L101.8,390.1z M105.8,382l2.3-7.2L95.3,382L105.8,382z M107.5,383.7l-2.1,6.5h1.3l11.9-6.3L107.5,383.7z M118.8,382.7
	l-8.3-7.7l-1.6,7.2L118.8,382.7z M123.9,364.4l-10.1-0.1l-2.2,6.7L123.9,364.4z M113.3,362.6l2-6.9l-11.9,7.1L113.3,362.6z
	 M116.4,352.1l1.8-6.5l-9.3,0.1L116.4,352.1z M119.1,343.3l1.8-6.4l-10.9,6.6L119.1,343.3z M120.3,345.6l-1.9,6.4l11.3-6.6
	L120.3,345.6z M130.3,343.6l-7.3-6.6l-1.2,6.3L130.3,343.6z M134.2,327.4l-8.7,0.2l-1.7,5.9L134.2,327.4z M125.9,319.1l2-7l-4.5,3.3
	L125.9,319.1z M127.8,318.4l4.3-3.1l-2.3-2.8L127.8,318.4z M133.4,314.1l5-3.5l-7.6,0.1L133.4,314.1z M134.8,295.6l-1.5-1.6
	l-2.1,1.6H134.8z M133.3,291.9l10.2-7.8l-17.2,0.1L133.3,291.9z M142.9,282.8l-7.2-7.7l-10,7.6L142.9,282.8z M135.7,273.3l9-6.9
	l-15.2,0.1L135.7,273.3z M144.8,265.1l-6.7-7.2l-9.3,7.1L144.8,265.1z M138.1,256.2l8.4-6.5l-14.1,0.1L138.1,256.2z M146.9,248.3
	l-6.5-7.3l-9,7.2L146.9,248.3z M140.5,239.2l8.1-6.6l-13.6,0.1L140.5,239.2z M149.1,231.5l-6.7-7.3l-8.9,7.5L149.1,231.5z
	 M142.4,222.5l8-6.8l-13.7,0.4L142.4,222.5z M150.5,214.8l-6.5-7.1l-8.7,7.4L150.5,214.8z M144,205.9l7.8-6.7l-13.4,0.3L144,205.9z
	 M151.7,198.3l-6.5-6.1l-7.4,6.1H151.7z M152.1,184.2l-13.3,0.3l6.4,5.7L152.1,184.2z M151.9,182.4l-6.1-5.6l-7,5.6H151.9z
	 M152.2,169.7l-12.6,0.3l6.1,5.2L152.2,169.7z M152,168.9l-5.7-5.6l-6.5,5.6H152z M152.3,156l-11.7,0.3l5.6,5.2L152.3,156z
	 M152.1,155.2l-5.4-5.7l-6.1,5.7H152.1z M152.4,142.2l-11.1,0.3l5.3,5.3L152.4,142.2z M152.3,141.7l-4.9-4.9l-5.6,4.9H152.3z
	 M152.5,130.5l-10.1,0.3l4.9,4.6L152.5,130.5z M152.4,129.8l-4.7-4.6l-5.4,4.6H152.4z M152.7,119.3l-9.7,0.2l4.7,4.3L152.7,119.3z
	 M152.7,118.7l-4.4-4.4l-5,4.4H152.7z M153,108.8l-9,0.2l4.3,4L153,108.8z M152.9,108.4l-4.2-4l-4.7,4H152.9z M153.1,99.2l-8.6,0.2
	l4.1,3.7L153.1,99.2z M152.9,98.4l-3.9-3.7l-4.4,3.7H152.9z M153.1,89.9l-7.9,0.2l3.8,3.4L153.1,89.9z M152.9,89.4l-3.7-3.4
	l-4.2,3.4H152.9z M153.1,81.5l-7.5,0.2l3.6,3.2L153.1,81.5z M153.2,81l-3.4-3.5l-3.9,3.5H153.2z M149.8,85.4l4.1,3.5l0-6.8
	L149.8,85.4z M153.9,90.5l-4.3,3.6l4.3,3.8L153.9,90.5z M149.3,103.8l4.6,4.1l-0.1-8L149.3,103.8z M153.8,199.9l-1.1,14.2h2.3
	L153.8,199.9z M160.6,148.6l-5.9-5.5l-0.1,11.2L160.6,148.6z M161.4,149.5l-5.4,5.7h11.5L161.4,149.5z M155.9,156l6.1,5.5l5.7-5.2
	L155.9,156z M161.8,163.2l-5.7,5.6h12.2L161.8,163.2z M156,169.7l6.5,5.4l6.1-5.2L156,169.7z M162.5,176.8l-6.1,5.6h13.1
	L162.5,176.8z M156.1,184.2l6.9,6l6.4-5.7L156.1,184.2z M162.9,192.1l-6.5,6.1h13.9L162.9,192.1z M156,199.2l7.8,6.7l5.6-6.4
	L156,199.2z M157.3,214.8l15.3,0.3l-8.7-7.4L157.3,214.8z M157.4,215.7l8,6.8l5.7-6.5L157.4,215.7z M158.7,231.5l15.6,0.3l-8.9-7.5
	L158.7,231.5z M159.1,232.7l8.1,6.6l5.5-6.5L159.1,232.7z M160.8,248.3l15.5-0.1l-9-7.2L160.8,248.3z M161.1,249.7l8.4,6.5l5.7-6.4
	L161.1,249.7z M162.8,265.1l16.1-0.1l-9.3-7.1L162.8,265.1z M162.7,266.3l9,6.9l6.2-6.9L162.7,266.3z M164.5,282.8l17.3-0.1l-10-7.6
	L164.5,282.8z M163.9,284.2l10.2,7.8l7-7.7L163.9,284.2z M172.6,295.6h3.6l-2.1-1.6L172.6,295.6z M168.7,310.6l5,3.5l2.6-3.4
	L168.7,310.6z M175,315.4l4.3,3.1l-2-5.9L175,315.4z M181.2,319.1l2.5-3.7l-4.5-3.3L181.2,319.1z M181,327.5l-8.7-0.2l10.4,6.1
	L181,327.5z M176.3,343.6l8.5-0.3l-1.2-6.3L176.3,343.6z M176.8,345.5l11.3,6.6l-1.9-6.4L176.8,345.5z M187.5,343.3l9.1,0.2
	l-10.9-6.6L187.5,343.3z M188.4,345.5l1.8,6.5l7.5-6.5L188.4,345.5z M192.7,364.3l-10.1,0.1l12.3,6.6L192.7,364.3z M203.1,362.9
	l-11.9-7.1l2,6.9L203.1,362.9z M187.7,382.7l9.8-0.6L196,375L187.7,382.7z M187.9,383.8l11.9,6.3h1.3l-2.1-6.5L187.9,383.8z
	 M200.7,382l10.5-0.1l-12.9-7.1L200.7,382z M201.5,383.5l2.1,6.7h1.1l7.7-6.9L201.5,383.5z M201.2,392.1l-0.2,9.2h7.1l0.2-9.2H201.2
	z M207.7,417.1l-0.1,2.6l-0.1,2.6l1.7-1.3l1.7-1.3l-1.7-1.3L207.7,417.1z M216.1,401.3l0.2-9.2h-7.1l-0.2,9.2H216.1z M216.3,426.6
	l-0.1,2.6l1.7-1.3l1.7-1.3l-1.7-1.3l-1.7-1.3L216.3,426.6z M219.9,419.7l-1.7-1.3l-1.7-1.3l-0.1,2.6l-0.1,2.6l1.7-1.3L219.9,419.7z
	 M220.5,426.6l1.7,1.3l1.6,1.3l0.1-2.6l0.1-2.6l-1.7,1.3L220.5,426.6z M222.3,421l1.7,1.3l0.1-2.6l0.1-2.6l-1.7,1.3l-1.7,1.3
	L222.3,421z M228,457.9l12.3-0.1l-4.7-7.7L228,457.9z M243,484.4l5.2,7.5L262,492L243,484.4z M263.9,490.8l-5.8-7.6h-13.8
	L263.9,490.8z M247.5,468.9l-18.1-7.7l5,7.6L247.5,468.9z M235.9,470.5l5.8,7.9l7.1-7.4L235.9,470.5z M244.2,457.8l12.3-0.4l-18-7.7
	L244.2,457.8z M243.7,459.9h-13.2l18.7,7.7L243.7,459.9z M244.2,479.6l12.2-0.1l-4.6-7.6L244.2,479.6z M260.2,479.5l12.2-0.4
	l-17.8-7.6L260.2,479.5z M260.4,482.9l6.2,8.4l7.5-8.7L260.4,482.9z M255.9,501.3l7.5-7.3l-13.6-0.5L255.9,501.3z M59.5,484.4
	l-19,7.6l13.7-0.1L59.5,484.4z M52.7,493.5L39.1,494l7.5,7.3L52.7,493.5z M44,502.5l-8-7.5l-4.8,7.4L44,502.5z M27.2,502.4l5.9-7.8
	L14.4,502L27.2,502.4z M12.7,500.8l17.7-6.7l-11.2-0.8L12.7,500.8z M19.9,491.5l13.2,0.4l-6.5-7.8L19.9,491.5z M36,491.4l6.2-8.4
	l-13.7-0.2L36,491.4z M30.2,477.9l16.9-6.8l-10.7-0.9L30.2,477.9z M37.1,468.4l12.6,0.4l-6.2-8L37.1,468.4z M52.5,468.3l5.9-8.6
	l-13-0.2L52.5,468.3z M46.1,456.2l17.1-7l-10.8-0.9L46.1,456.2z M53.2,446.5l12.7,0.4l-6.2-8.1L53.2,446.5z M68.7,446.4l6-8.8
	l-13.1-0.3L68.7,446.4z M66.2,428.8h5.4l0.2-7.6L66.2,428.8z M73.8,418.2l-1.4,1.5l0.1,2.6l1.7-1.3l1.7-1.3l-1.7-1.3L73.8,418.2z
	 M81.5,392.1h-7.1l0.3,9.2h7.1L81.5,392.1z M89.4,392.1h-7.1l0.3,9.2h7.1L89.4,392.1z M89.8,390.1H98l-6.1-5.3L89.8,390.1z
	 M93.9,380.2l14-7.5l-8.3-7.4L93.9,380.2z M109.4,370.9l2.1-6.8l-9.9-0.2L109.4,370.9z M102.1,361.2l12.9-7.5L107,347L102.1,361.2z
	 M113.2,328.8l-4.5,13.2l11.9-6.9L113.2,328.8z M121.9,333.5l1.7-6.1l-8.6,0.1L121.9,333.5z M124.8,320.3l-2.8-3.8l-5.3,3.7
	L124.8,320.3z M118.6,312.6l-1.9,5.9l4.3-3.1L118.6,312.6z M119.6,310.7l2.6,3.4l5-3.5L119.6,310.7z M122.2,295.6h6.4l3.6-2.7
	l-7.9-8.1L122.2,295.6z M125,281.6l9.8-7.5l-7-7.2L125,281.6z M128.1,263.9l9.1-7l-6.5-6.7L128.1,263.9z M139.6,240l-6.3-6.8
	l-2.5,13.9L139.6,240z M141.5,223.3l-6.5-6.8l-2.2,14.1L141.5,223.3z M134.6,214l8.5-7.3l-6.3-6.7L134.6,214z M136.9,197.4l7.2-6.2
	l-6.3-5.3L136.9,197.4z M137.9,181.6l6.8-5.6l-6-4.8L137.9,181.6z M139,168l6.3-5.7l-5.6-4.8L139,168z M139.8,154.4l6-5.8l-5.3-4.9
	L139.8,154.4z M146.5,136l-4.8-4.2L141,141L146.5,136z M141.7,129.1l5.3-4.7l-4.6-4L141.7,129.1z M142.7,118.1l4.9-4.4l-4.3-3.7
	L142.7,118.1z M143.4,107.9l4.6-4.1l-4.1-3.5L143.4,107.9z M144.1,97.9l4.3-3.8l-3.8-3.2L144.1,97.9z M144.6,88.9l4.1-3.5l-3.6-3
	L144.6,88.9z M145.4,80.5l3.8-3.5l-3.3-3L145.4,80.5z M146.4,73.3l3.3,3.2l3.6-3.4L146.4,73.3z M154,73.7l-3.7,3.3l3.8,3.5L154,73.7
	z M160.1,136l-5.4-4.7l-0.1,9.7L160.1,136z M159.9,124.5l-5.2-4.5l-0.1,9.2L159.9,124.5z M154.6,88.9l4.1-3.5l-4-3.3L154.6,88.9z
	 M154.8,80.5l3.8-3.5l-3.7-3.3L154.8,80.5z M155.5,73.1l3.6,3.4l3.4-3.2L155.5,73.1z M162.9,74l-3.3,3l3.8,3.5L162.9,74z
	 M163.5,82.4l-3.6,3l4.1,3.5L163.5,82.4z M164,90.9l-3.8,3.2l4.3,3.8L164,90.9z M164.9,100.3l-4.1,3.5l4.6,4.1L164.9,100.3z
	 M165.3,110l-4.3,3.7l4.9,4.4L165.3,110z M166,120.5l-4.6,4l5.2,4.7L166,120.5z M166.4,131.8l-4.8,4.2l5.5,5L166.4,131.8z
	 M167.6,143.7l-5.3,4.9l6,5.8L167.6,143.7z M168.4,157.5l-5.6,4.8l6.3,5.7L168.4,157.5z M169.5,171.2l-6,4.8l6.8,5.6L169.5,171.2z
	 M170.4,185.9l-6.4,5.3l7.2,6.2L170.4,185.9z M171.1,200l-6.3,6.7l8.5,7.3L171.1,200z M172.7,216.6l-6.5,6.8l8.7,7.4L172.7,216.6z
	 M174.4,233.2l-6.3,6.8l8.8,7.1L174.4,233.2z M176.9,250.2l-6.5,6.7l9.1,7L176.9,250.2z M179.7,266.9l-7,7.2l9.8,7.5L179.7,266.9z
	 M183.2,284.8l-8,8.1l3.6,2.7h6.4L183.2,284.8z M179.8,310.6l5,3.5l2.6-3.4L179.8,310.6z M188.5,312.6l-2.3,2.8l4.3,3.1L188.5,312.6
	z M185.1,316.5l-2.8,3.8l8.1-0.1L185.1,316.5z M183,327.4l1.7,6.1l6.9-6L183,327.4z M193.3,328.8l-7.4,6.3l11.9,6.9L193.3,328.8z
	 M199.6,347l-8.1,6.8l12.9,7.5L199.6,347z M195,364.1l2.1,6.8l7.8-7.1L195,364.1z M206.9,365.3l-8.3,7.4l14,7.5L206.9,365.3z
	 M214.6,384.8l-6.1,5.3h8.1L214.6,384.8z M217.1,392.1l-0.3,9.2h7.1l0.3-9.2H217.1z M225,392.1l-0.3,9.2h7.1l0.3-9.2H225z
	 M231.5,418.2l-0.2,0.2l-1.7,1.3l1.6,1.3l1.7,1.3l0.1-2.6L231.5,418.2z M233.6,421.2l0.2,7.6h5.4L233.6,421.2z M229.6,437.6l6,8.8
	l7.1-9L229.6,437.6z M244.7,438.7l-6.2,8.1l12.7-0.4L244.7,438.7z M251.9,448.4l-10.8,0.9l17.1,7L251.9,448.4z M245.8,459.7l5.9,8.6
	l7.1-8.9L245.8,459.7z M260.8,460.8l-6.2,8l12.6-0.4L260.8,460.8z M267.9,470.2l-10.7,0.9l16.9,6.8L267.9,470.2z M276.1,484
	l-6.5,7.8l13.2-0.4L276.1,484z M283.5,493.3l-11.2,0.8l17.7,6.7L283.5,493.3z M103.5,426.6l1.7-1.3l1.1-0.8l0,2.1l0,2.1l-1.1-0.8
	L103.5,426.6z"/>
</svg>
