<?xml version="1.0" encoding="utf-8"?>
<!-- Generator: Adobe Illustrator 21.1.0, SVG Export Plug-In . SVG Version: 6.00 Build 0)  -->
<svg version="1.1" id="Layer_1" xmlns="http://www.w3.org/2000/svg" xmlns:xlink="http://www.w3.org/1999/xlink" x="0px" y="0px"
	 viewBox="0 0 511 512" style="enable-background:new 0 0 511 512;" xml:space="preserve">
<path d="M510.7,512l-31.8-387.3c14.6-11.6,24-29.5,24-49.6c0-35-28.4-63.4-63.4-63.4c-30.4,0-55.9,21.5-62,50.1h-56.6l-40.1,69.4
	L252,0l-29.6,6.5L176,61.7h-41.5c-6.1-28.6-31.6-50.1-62-50.1C37.4,11.7,9,40.1,9,75.1c0,20,9.3,37.8,23.7,49.5L0.9,512H144
	l-31.8-387.5c10.2-8.2,17.8-19.5,21.4-32.5h56.7l40.4-48.2L258.3,170l26.2,15.2L338.4,92h40c3.6,12.9,11.1,24.1,21.1,32.3L367.7,512
	H510.7z"/>
</svg>
