<?xml version="1.0" encoding="utf-8"?>
<!-- Generator: Adobe Illustrator 21.1.0, SVG Export Plug-In . SVG Version: 6.00 Build 0)  -->
<svg version="1.1" id="Layer_1" xmlns="http://www.w3.org/2000/svg" xmlns:xlink="http://www.w3.org/1999/xlink" x="0px" y="0px"
	 viewBox="0 0 512 512" style="enable-background:new 0 0 512 512;" xml:space="preserve">
<style type="text/css">
	.st0{fill:#0B0B0B;}
</style>
<g>
	<polygon class="st0" points="49.7,0 49.7,512 88.4,512 88.4,38.5 473.3,38.5 473.3,512 512,512 512,0 	"/>
	<rect x="341.8" y="49.6" class="st0" width="120.5" height="434.9"/>
	<rect x="99.4" y="49.6" class="st0" width="120.5" height="434.9"/>
	<path class="st0" d="M0,203.7v104.6h44.2V203.7H0z M22.1,297.3l-11-16.5h22.1L22.1,297.3z M11.3,260.1v-6c0-3.6,0.8-6.4,2.5-8.3
		c1.7-1.9,3.9-2.8,6.8-2.8c2.8,0,5.1,1,6.8,2.8c1.7,1.9,2.5,4.6,2.5,8.3v6c0,3.6-0.8,6.4-2.5,8.3s-3.9,2.8-6.8,2.8s-5.1-0.9-6.8-2.8
		C12.2,266.5,11.3,263.8,11.3,260.1z M11.1,231.2l11-16.5l11,16.5H11.1z M20.6,267c1.2,0,2.2-0.5,2.8-1.5c0.6-1,1-2.6,1-4.8v-7.1
		c0-2.2-0.3-3.8-1-4.8c-0.6-1-1.6-1.5-2.8-1.5c-1.3,0-2.2,0.5-2.8,1.5c-0.6,1-1,2.6-1,4.8v7.1c0,2.2,0.3,3.8,1,4.8
		C18.4,266.5,19.4,267,20.6,267z"/>
</g>
</svg>
