<?xml version="1.0" encoding="utf-8"?>
<!-- Generator: Adobe Illustrator 21.1.0, SVG Export Plug-In . SVG Version: 6.00 Build 0)  -->
<svg version="1.1" id="Layer_1" focusable="false" xmlns="http://www.w3.org/2000/svg" xmlns:xlink="http://www.w3.org/1999/xlink"
	 x="0px" y="0px" viewBox="0 0 512 512" style="enable-background:new 0 0 512 512;" xml:space="preserve">
<path d="M510.4,46L466,1.6c-1.8-1.8-4.7-1.8-6.5,0l-73.3,73.3C349.6,48.5,304.6,32.9,256,32.9C132.8,32.9,32.9,132.8,32.9,256
	c0,48.6,15.5,93.6,41.9,130.2L1.6,459.5c-1.8,1.8-1.8,4.7,0,6.5L46,510.4c1.8,1.8,4.7,1.8,6.5,0l73.3-73.3
	c36.6,26.4,81.6,41.9,130.2,41.9c123.2,0,223.1-99.8,223.1-223.1c0-48.6-15.6-93.6-41.9-130.2l73.3-73.3
	C512.2,50.7,512.2,47.8,510.4,46z M104.9,256c0-40.4,15.7-78.3,44.2-106.8c28.5-28.5,66.5-44.3,106.8-44.3c28.1,0,55,7.6,78.3,21.8
	L126.8,334.3C112.5,311,104.9,284.1,104.9,256z M407.1,256c0,40.3-15.7,78.3-44.2,106.8c-28.5,28.5-66.5,44.3-106.8,44.3
	c-28.1,0-55-7.6-78.3-21.8l207.6-207.6C399.5,201,407.1,228,407.1,256z"/>
</svg>
