<?xml version="1.0" encoding="utf-8"?>
<!-- Generator: Adobe Illustrator 21.1.0, SVG Export Plug-In . SVG Version: 6.00 Build 0)  -->
<svg version="1.1" id="Layer_4" xmlns="http://www.w3.org/2000/svg" xmlns:xlink="http://www.w3.org/1999/xlink" x="0px" y="0px"
	 viewBox="0 0 512 512" style="enable-background:new 0 0 512 512;" xml:space="preserve">
<g>
	<path d="M512,241.9L256,396.3L0,242.9V512h512V241.9z"/>
	<path d="M506.3,193.2l-42.1-34V74.8c0-13.7-11.1-24.8-24.9-24.8H329.1L279.3,9.7c-13.1-12.5-33.6-12.5-46.7,0l-49.8,40.3H73
		c-13.7,0-24.8,11.1-24.8,24.8v84.1L5.7,193.2c-7.8,6-7.5,17.9,0.7,23.5l249.6,151.8l249.8-151.8
		C513.8,211.1,514.2,199.2,506.3,193.2z M267.5,291.7v11.1h-20.3v-11c-29.2-2.3-55.1-21.8-55.1-59.3h35.5c0,16.6,7.1,26.3,19.6,29.8
		v-61c-35.8-15.2-51.8-34.1-51.8-58.1c0-27.8,23.3-50,51.8-50v-8.6h20.3v8.7c24.8,1.6,54.7,15.5,54.7,53h-35.5
		c-1.6-15.1-8-23.2-19.1-24.4v47.9l19.6,8.7c31.8,15.2,43.8,33.6,43.8,58C330.9,268.6,303.9,291.7,267.5,291.7z M267.5,210v53.5
		c14.4,0,28.3-8.9,28.3-23.7C295.8,227.3,286.4,217.3,267.5,210z M231,139c0,8,5.4,15.1,16.3,21.6V122C236.4,124,231,129.7,231,139z
		"/>
</g>
</svg>
