<?xml version="1.0" encoding="utf-8"?>
<!-- Generator: Adobe Illustrator 21.1.0, SVG Export Plug-In . SVG Version: 6.00 Build 0)  -->
<svg version="1.1" id="Layer_3" xmlns="http://www.w3.org/2000/svg" xmlns:xlink="http://www.w3.org/1999/xlink" x="0px" y="0px"
	 viewBox="0 0 512 512" style="enable-background:new 0 0 512 512;" xml:space="preserve">
<g>
	<path d="M512,134.5L256,342.8L0,132.4v324.9h512v-52H374.6l7.7-7.7l13.7-13.7l-11.3-11.3l-7.8-7.8H512v-12.4H398.6l21.6-21.6
		l-18.9-18.9H512v-11.7h-88.7l20.5-20.6l-19.9-20H512V134.5z M379.5,259.6h0.4v3.9l16,16l-16,16.1v4.5h-0.4V259.6z M356.1,311.9h0.4
		v3.1l15.9,15.9l-15.9,15.8v5.7h-0.4V311.9z M332.2,405.4h-0.4v-40.5h0.4v3.4l15.9,15.9l-15.9,15.8V405.4z M380,384l-13.7,13.7
		l-7.7,7.7h-15.9l7.7-7.7L364,384l-19.2-19.2h15.9L380,384z M404.2,330.8l-21.6,21.6h-15.9l21.6-21.6l-18.9-18.9h15.9L404.2,330.8z
		 M427.9,279.6l-20.6,20.6h-15.9l20.6-20.6l-20-20h15.9L427.9,279.6z"/>
	<polygon points="512,58.5 0,58.5 256,283 	"/>
</g>
</svg>
