<?xml version="1.0" encoding="utf-8"?>
<!-- Generator: Adobe Illustrator 21.1.0, SVG Export Plug-In . SVG Version: 6.00 Build 0)  -->
<svg version="1.1" id="Layer_4" xmlns="http://www.w3.org/2000/svg" xmlns:xlink="http://www.w3.org/1999/xlink" x="0px" y="0px"
	 viewBox="0 0 512 512" style="enable-background:new 0 0 512 512;" xml:space="preserve">
<g>
	<path d="M512,241.9L256,396.3L0,242.9V512h512V241.9z"/>
	<path d="M506.3,193.2l-42.1-34V74.8c0-13.7-11.1-24.8-24.9-24.8H329.1L279.3,9.7c-13.1-12.5-33.6-12.5-46.7,0L182.8,50H73
		c-13.7,0-24.8,11.1-24.8,24.8v84.1L5.7,193.2c-7.8,6-7.5,17.9,0.7,23.5L256,368.5l249.8-151.8C513.8,211.1,514.2,199.2,506.3,193.2
		z M362.7,261.2H152v-47h210.7V261.2z M362.7,167.5H152v-47h210.7V167.5z"/>
</g>
</svg>
