<?xml version="1.0" encoding="utf-8"?>
<!-- Generator: Adobe Illustrator 21.1.0, SVG Export Plug-In . SVG Version: 6.00 Build 0)  -->
<svg version="1.1" id="Layer_1" focusable="false" xmlns="http://www.w3.org/2000/svg" xmlns:xlink="http://www.w3.org/1999/xlink"
	 x="0px" y="0px" viewBox="0 0 448 512" style="enable-background:new 0 0 448 512;" xml:space="preserve">
<path d="M448,387c0,7.2-5.8,13-13,13H13c-7.2,0-13-5.8-13-13v-70.1c0-7.2,5.8-13,13-13h422c7.2,0,13,5.8,13,13V387z M448,195.1
	c0,7.2-5.8,13-13,13H13c-7.2,0-13-5.8-13-13V125c0-7.2,5.8-13,13-13h422c7.2,0,13,5.8,13,13V195.1z"/>
</svg>
