<?xml version="1.0" encoding="utf-8"?>
<!-- Generator: Adobe Illustrator 21.1.0, SVG Export Plug-In . SVG Version: 6.00 Build 0)  -->
<svg version="1.1" xmlns="http://www.w3.org/2000/svg" xmlns:xlink="http://www.w3.org/1999/xlink" x="0px" y="0px"
	 viewBox="0 0 374 512" style="enable-background:new 0 0 374 512;" xml:space="preserve">
<g id="euro">
	<g>
		<path d="M373.5,20.5l-19.3,94.4c-22.8-21-53.3-31.7-84.2-29.5c-34.2-1.1-67,13.4-89.1,39.5c-13.4,16.2-27.3,56.1-27.3,56.1h187.4
			L330,233H148c0,5.2,0,11.4,0,19.6c0,8.1,0,15.9,0,24.4h172.3l-11,52h-154c4,20.8,12.9,40.3,25.8,57c21.5,26.2,53.8,41,87.5,40
			c38.6,1.9,76.1-12.7,103.4-40.2v103.8c-31.8,15.8-66.8,23.8-102.3,23.4c-61.2,1.8-120.2-22.9-161.8-67.9
			C78.4,412.9,58.7,373,51,330H0.4l11.1-52H45c0-5.4,0-10.5,0-16.8c0-10.4,0-19.4,0-27.2H0.3l11.1-52H52c0,0,27.3-81.2,56.1-112.8
			C151.3,23,212.3-2.2,275.5,0.1C309.3-0.7,342.9,6.2,373.5,20.5z"/>
	</g>
</g>
</svg>
