<?xml version="1.0" encoding="utf-8"?>
<!-- Generator: Adobe Illustrator 21.1.0, SVG Export Plug-In . SVG Version: 6.00 Build 0)  -->
<svg version="1.1" id="Layer_1" xmlns="http://www.w3.org/2000/svg" xmlns:xlink="http://www.w3.org/1999/xlink" x="0px" y="0px"
	 viewBox="0 0 545.2 512" style="enable-background:new 0 0 545.2 512;" xml:space="preserve">
<path d="M364.3,1l-0.6-0.4c-0.8-0.7-1.5-0.5-2.2,0.2c-0.4,0.4-0.8,0.9-1.2,1.6c-11,18.3-25.4,35.7-42.2,52.5
	c-74.8,74.8-196.7,137.7-270.7,211.8C28,285.9,12,305.9,0.9,327.1c54.8,63.6,180,184.7,180.4,184.3c7.5-9.7,15.3-19,23.2-27.9
	s15.9-17.4,24.1-25.6c95.2-95.2,206-142.5,269.8-206.3c21.6-21.6,37.8-45,46.3-72.9C481.9,121.6,427,58,364.3,1z M238.6,402
	c-13.5,12.1-32.1,16.2-51.4,11.7c-13.6-3.2-26.9-10.6-38.2-20.9l-11.3,9.5l-9-16.3l7.4-6.3c-1-1.4-2.4-3.1-3.7-4.8
	c-2.2-2.9-4.2-5.3-6-7.5l-10.1,8.4l-9-16.3l9-7.5c-7.6-13-11.8-27.6-12.2-41.6c-0.7-20.8,7.6-39.3,22.5-50.5
	c7.3-6.7,16.5-10.9,26.5-12.8l17,29.7c-9.8-1.6-19.1,1.2-25.5,7.6c-8,6.1-12.3,16.2-11.4,27.5c0.5,6.9,2.7,13.8,6.1,20.4l42.3-35
	l9,16.3l-40.9,34c1,1.5,2.7,3.3,4.3,5.5c1.8,2.2,3.4,4.3,5.2,6.7l39-32.1l9,16.4l-34.9,28.8c5.5,4.9,11.9,8.6,18.4,10.8
	c10.7,3.2,21,1.1,28.6-5.4c9-6.7,14.5-17.7,14.2-30.2l22.9,28.6C252.8,386.7,246.7,395.4,238.6,402z M296.8,161.4
	c27.9-20.2,54.9-41.2,78.9-63.4l23.2,23.2c-21.5,20.2-49.5,39.6-81.4,60.9L296.8,161.4z M382.2,246.9l-20.7-20.7
	c27.9-20.2,54.9-41.2,78.9-63.4l23.2,23.2C442.1,206.3,414.2,225.6,382.2,246.9z"/>
</svg>
