<?xml version="1.0" encoding="utf-8"?>
<!-- Generator: Adobe Illustrator 21.1.0, SVG Export Plug-In . SVG Version: 6.00 Build 0)  -->
<svg version="1.1" id="Layer_1" xmlns="http://www.w3.org/2000/svg" xmlns:xlink="http://www.w3.org/1999/xlink" x="0px" y="0px"
	 viewBox="0 0 512 512" style="enable-background:new 0 0 512 512;" xml:space="preserve">
<path d="M441,0H71C31.8,0,0,31.8,0,71v370c0,39.2,31.8,71,71,71h370c39.2,0,71-31.8,71-71V71C512,31.8,480.2,0,441,0z M354,197.6
	l-8.4,39.8H206.1v33.7h132l-8.4,39.8h-118c3.1,15.9,9.9,30.9,19.8,43.7c16.5,20.1,41.2,31.4,67,30.6c29.6,1.5,58.3-9.7,79.2-30.8
	V434c-24.4,12.1-51.2,18.2-78.4,17.9c-46.9,1.4-92.1-17.5-123.9-52c-22.6-24.7-37.7-55.2-43.6-88.2H93.1l8.5-39.8h25.7v-33.7H93
	l8.5-39.8h31.1c0,0,20.9-62.2,43-86.4c33.1-35.4,79.8-54.7,128.2-52.9c25.9-0.6,51.6,4.7,75.1,15.6L364.1,147
	c-17.5-16.1-40.8-24.3-64.5-22.6c-26.2-0.8-51.3,10.3-68.3,30.3c-10.3,12.4-20.9,43-20.9,43H354z"/>
</svg>
