<?xml version="1.0" encoding="utf-8"?>
<!-- Generator: Adobe Illustrator 22.0.1, SVG Export Plug-In . SVG Version: 6.00 Build 0)  -->
<svg version="1.1" id="Layer_1" xmlns="http://www.w3.org/2000/svg" xmlns:xlink="http://www.w3.org/1999/xlink" x="0px" y="0px"
	 viewBox="0 0 512 512" style="enable-background:new 0 0 512 512;" xml:space="preserve">
<g>
	<path d="M256,0C114.6,0,0,114.6,0,256s114.6,256,256,256s256-114.6,256-256S397.4,0,256,0z M258,411.6c-20.7,0-37.5-16.7-37.5-37.3
		c0-20.6,16.8-37.3,37.5-37.3s37.4,16.8,37.5,37.3C295.5,394.9,278.8,411.6,258,411.6z M286.2,241.8c-6.4,38.3-9.8,60.5-9.9,66
		c0,7.8-0.6,10.9-2.4,13c-2.5,2.9-6.6,3.3-9.5,3.3h-13.2c-3.1,0-7.1-0.4-9.4-3.2c-1.8-2.1-2.3-5-2.3-11.8c0-3.8-1.7-21.1-13.9-94.5
		C215,146.9,215,142.4,215,140.8c0-10.9,4.1-20.4,11.9-27.9c7.8-7.6,18.7-11.5,32.4-11.5c13.4,0,23.9,4.2,31.1,12.5
		c7.1,8.2,10.7,17.7,10.7,28.5C301,145,301,152.8,286.2,241.8z"/>
</g>
</svg>
