<?xml version="1.0" encoding="utf-8"?>
<!-- Generator: Adobe Illustrator 21.1.0, SVG Export Plug-In . SVG Version: 6.00 Build 0)  -->
<svg version="1.1" id="Layer_1" xmlns="http://www.w3.org/2000/svg" xmlns:xlink="http://www.w3.org/1999/xlink" x="0px" y="0px"
	 viewBox="0 0 197.3 512" style="enable-background:new 0 0 197.3 512;" xml:space="preserve">
<path d="M59.6,512C27.7,512,2,486.3,2,454.4s25.7-57.6,57.6-57.6s57.6,25.7,57.6,57.6S91.5,512,59.6,512z M183.2,150.7
	c-10.9,34.5-74.1,132.7-80.2,146.4c-5.8,12.2-10.7,27.7-7.4,43.2c1.3,9.2,1.5,11.4,1.5,12.7c0,12.7-14.2,17.3-23.4,20.5l-9.9,3.3
	l-5.6-8.9c-40.1-70.2-15.4-122.3-2.5-155.3c12-30.5,19.8-53,23.1-67.2c13.4-38.5-0.8-95-0.8-97c0-11.6,9.9-19,42.6-32.8
	C154.3,1.2,161.1,0,165.2,0c16.3,0,22.4,20.6,24.8,29.5C202.9,72.4,191.6,126.4,183.2,150.7z"/>
</svg>
