<?xml version="1.0" encoding="utf-8"?>
<!-- Generator: Adobe Illustrator 21.1.0, SVG Export Plug-In . SVG Version: 6.00 Build 0)  -->
<svg version="1.1" id="Layer_6" xmlns="http://www.w3.org/2000/svg" xmlns:xlink="http://www.w3.org/1999/xlink" x="0px" y="0px"
	 viewBox="0 0 637.2 512" style="enable-background:new 0 0 637.2 512;" xml:space="preserve">
<path d="M305.4,7.4L2.6,487.7C-4.2,498.1,3.3,512,15.8,512l605.6,0c12.5,0,20-13.9,13.2-24.3L331.8,7.4
	C325.6-2.2,311.6-2.2,305.4,7.4z M292.6,195.2h52v170.5h-52V195.2z M318.6,439c-17.6,0-31.8-14.3-31.8-31.8
	c0-17.6,14.3-31.8,31.8-31.8c17.6,0,31.8,14.3,31.8,31.8C350.4,424.7,336.2,439,318.6,439z"/>
</svg>
