<?xml version="1.0" encoding="utf-8"?>
<!-- Generator: Adobe Illustrator 22.0.1, SVG Export Plug-In . SVG Version: 6.00 Build 0)  -->
<svg version="1.1" id="Layer_1" xmlns="http://www.w3.org/2000/svg" xmlns:xlink="http://www.w3.org/1999/xlink" x="0px" y="0px"
	 viewBox="0 0 512 512" style="enable-background:new 0 0 512 512;" xml:space="preserve">
<path d="M462,0.5H50c-27.6,0-50,22.4-50,50v412c0,27.6,22.4,50,50,50h412c27.6,0,50-22.4,50-50v-412C512,22.9,489.6,0.5,462,0.5z
	 M233.9,411.6c-19.3,0-34.9-15.6-34.9-34.9c0-19.3,15.6-34.9,34.9-34.9c19.3,0,34.9,15.6,34.9,34.9
	C268.8,396,253.2,411.6,233.9,411.6z M308.8,192.7c-5.1,14.5-13.8,31.3-25.8,49.8c-11.4,17.6-19.1,30.6-22.8,38.9
	c-3.5,7.4-5.2,14.5-5.2,20.8c0,0.4,0.1,1.6,0.7,5.4c0.8,5.6,0.9,6.9,0.9,7.7c0,7.7-8.6,10.5-14.2,12.4l-6,2l-3.4-5.4
	c-8.7-14-13.2-29.1-13.2-45.1c0-13,3.9-29,11.7-49c7.3-18.5,12-32.1,14-40.7c2-8.2,3.1-17.3,3.1-27.1c0-7.8-0.5-14.5-1.6-19.9
	c-1.9-9-2-10.6-2-11.8c0-7,6-11.5,25.8-19.9c20.5-8.7,24.6-9.4,27.1-9.4c9.9,0,13.6,12.5,15,17.9c2.4,8.6,3.8,18.5,3.8,29.3
	C316.6,163,313.9,178,308.8,192.7z"/>
</svg>
