<?xml version="1.0" encoding="utf-8"?>
<!-- Generator: Adobe Illustrator 21.1.0, SVG Export Plug-In . SVG Version: 6.00 Build 0)  -->
<svg version="1.1" id="Layer_1" xmlns="http://www.w3.org/2000/svg" xmlns:xlink="http://www.w3.org/1999/xlink" x="0px" y="0px"
	 viewBox="0 0 141.5 512" style="enable-background:new 0 0 141.5 512;" xml:space="preserve">
<g>
	<g>
		<g>
			<path d="M70.5,388.4c-34,0-61.6,27.5-61.6,61.3S36.6,511,70.5,511s61.6-27.5,61.6-61.3S104.5,388.4,70.5,388.4z"/>
			<path d="M60.3,351.8l20.1,0c9.3,0,17.2-6.8,18.6-16.1c3.5-23.6,10.5-59.7,17.8-103.9c24.5-146.3,24.5-159.2,24.5-163.4
				c0-17.7-5.9-33.4-17.6-46.8C111.9,7.9,94.7,1,72.7,1C50.2,1,32.2,7.4,19.5,19.9C6.6,32.3,0,47.8,0,65.7c0,2.7,0,10,17.4,121.3
				c13.5,82.9,20.9,124.4,24.2,148.5C42.9,344.8,50.9,351.8,60.3,351.8z"/>
		</g>
	</g>
</g>
</svg>
