<?xml version="1.0" encoding="utf-8"?>
<!-- Generator: Adobe Illustrator 22.0.1, SVG Export Plug-In . SVG Version: 6.00 Build 0)  -->
<svg version="1.1" id="Layer_1" xmlns="http://www.w3.org/2000/svg" xmlns:xlink="http://www.w3.org/1999/xlink" x="0px" y="0px"
	 viewBox="0 0 512 512" style="enable-background:new 0 0 512 512;" xml:space="preserve">
<path d="M462,0.5H50c-27.6,0-50,22.4-50,50v412c0,27.6,22.4,50,50,50h412c27.6,0,50-22.4,50-50v-412C512,22.9,489.6,0.5,462,0.5z
	 M255.9,410.6c-20.6,0-37.5-16.7-37.5-37.3s16.8-37.3,37.5-37.3s37.5,16.7,37.5,37.3S276.5,410.6,255.9,410.6z M284.1,240.8
	c-6.4,38.3-9.7,60.5-9.8,66c-0.1,7.8-0.6,10.9-2.4,13c-2.5,2.9-6.6,3.3-9.5,3.3h-13.2c-3.2,0-7.1-0.4-9.4-3.2
	c-1.8-2.1-2.3-5-2.3-11.8c0-3.8-1.8-21.1-13.8-94.5C213,145.8,213,141.4,213,139.8c0-10.9,4-20.3,11.9-27.9
	c7.7-7.6,18.7-11.5,32.4-11.5c13.4,0,23.8,4.2,31.1,12.5c7.1,8.2,10.7,17.7,10.7,28.5C299,144,299,151.8,284.1,240.8z"/>
</svg>
