<?xml version="1.0" encoding="utf-8"?>
<!-- Generator: Adobe Illustrator 21.1.0, SVG Export Plug-In . SVG Version: 6.00 Build 0)  -->
<svg version="1.1" id="Layer_1" xmlns="http://www.w3.org/2000/svg" xmlns:xlink="http://www.w3.org/1999/xlink" x="0px" y="0px"
	 viewBox="0 0 512 512" style="enable-background:new 0 0 512 512;" xml:space="preserve">
<g>
	<g>
		<path d="M462,0.5H50c-27.6,0-50,22.4-50,50v412c0,27.6,22.4,50,50,50h412c27.6,0,50-22.4,50-50v-412C512,22.9,489.6,0.5,462,0.5z
			 M248,368.5v41H103v-145l39.9-0.1l-0.3,75.9l87.2-87.4l28.8,28.9l-86.4,86.7H248z M408,248.5l-39.9,0.1l0.5-75.9l-87.4,87.5
			l-28.7-28.8l86.6-86.9l-76.1,0.1l0.1-41.2h145v145.1H408z"/>
	</g>
</g>
</svg>
