<?xml version="1.0" encoding="utf-8"?>
<!-- Generator: Adobe Illustrator 21.1.0, SVG Export Plug-In . SVG Version: 6.00 Build 0)  -->
<svg version="1.1" id="Layer_1" xmlns="http://www.w3.org/2000/svg" xmlns:xlink="http://www.w3.org/1999/xlink" x="0px" y="0px"
	 viewBox="0 0 511 512" style="enable-background:new 0 0 511 512;" xml:space="preserve">
<polygon points="511.4,321.1 442.5,321 442,397.2 300.9,256.1 442,114.9 442,190.5 510.8,190.4 511,0 320.6,0.1 320.5,69 
	396.7,69.5 255.6,210.6 114.4,69.5 190,69.6 189.9,0.7 -0.5,0.5 -0.4,190.9 68.4,191 68.9,114.8 210.1,256 69,397.1 69.1,321.5 
	0.2,321.6 0,512 190.4,511.9 190.5,443.1 114.3,442.6 255.5,301.4 396.6,442.5 321,442.5 321.1,511.3 511.5,511.5 "/>
</svg>
