<?xml version="1.0" encoding="utf-8"?>
<!-- Generator: Adobe Illustrator 21.1.0, SVG Export Plug-In . SVG Version: 6.00 Build 0)  -->
<svg version="1.1" id="share-square" xmlns="http://www.w3.org/2000/svg" xmlns:xlink="http://www.w3.org/1999/xlink" x="0px"
	 y="0px" viewBox="0 0 543.9 512" style="enable-background:new 0 0 543.9 512;" xml:space="preserve">
<g>
	<path d="M401,450.5H62v-338h191.3l36.4-62H50c-27.6,0-50,22.4-50,50v362c0,27.6,22.4,50,50,50h363c27.6,0,50-22.4,50-50V226.9
		l-62,54.9V450.5z"/>
	<path d="M361.6,0.2c-5.8,0-8.7,7-4.5,11.1l65.8,65.2L216.1,283.1l45.3,45.3l206.7-206.8l64.7,65c4.1,4.1,11.1,1.2,11.1-4.6l0-182
		L361.6,0.2z"/>
</g>
</svg>
