<?xml version="1.0" encoding="utf-8"?>
<!-- Generator: Adobe Illustrator 21.1.0, SVG Export Plug-In . SVG Version: 6.00 Build 0)  -->
<svg version="1.1" id="Layer_1" xmlns="http://www.w3.org/2000/svg" xmlns:xlink="http://www.w3.org/1999/xlink" x="0px" y="0px"
	 viewBox="0 0 579 512" style="enable-background:new 0 0 579 512;" xml:space="preserve">
<path d="M289.5,72.2c-182.9,0-289.4,188-289.4,188v0.4c0,0,109.4,188.4,289.7,188.4c179.8,0,285.2-181.9,289-188.6
	C575,253.9,466.1,72.2,289.5,72.2z M383.1,303.9c-4.4-13.3-16.9-22.9-31.6-22.9c-18.4,0-33.3,14.9-33.3,33.3
	c0,17.7,13.8,32.2,31.1,33.3c-16.6,12.2-37.1,19.4-59.3,19.4c-55.4,0-100.3-44.9-100.3-100.2c0-55.4,44.9-100.3,100.3-100.3
	c55.3,0,100.2,44.9,100.2,100.3C390.1,279.9,387.6,292.4,383.1,303.9z M578.9,260.4c0.1,0.1,0.1,0.2,0.1,0.2v-0.4
	C579,260.2,578.9,260.3,578.9,260.4z"/>
</svg>
