<?xml version="1.0" encoding="utf-8"?>
<!-- Generator: Adobe Illustrator 21.1.0, SVG Export Plug-In . SVG Version: 6.00 Build 0)  -->
<svg version="1.1" id="Layer_2" xmlns="http://www.w3.org/2000/svg" xmlns:xlink="http://www.w3.org/1999/xlink" x="0px" y="0px"
	 viewBox="0 0 512 512" style="enable-background:new 0 0 512 512;" xml:space="preserve">
<style type="text/css">
	.st0{fill-rule:evenodd;clip-rule:evenodd;}
</style>
<path class="st0" d="M466.3,371.2l-168.6,14.6c0,0-40.8,0.7-34.1-16.7c7.7-20.1,42.1-20.4,42.1-20.4l185.3-7.3
	c0,0,21.1-0.4,21.1,5.5C505.3,368.9,466.3,371.2,466.3,371.2z M196.8,398.2c-13.8,0-26.5-2.4-36.4-6.4c3.2,1.7,5.2,2.7,5.2,2.7
	S61.2,419.9,50.1,422.2c-19.2,3.4-34.4,4.3-43.6,2.2c-8.9-2.1-3.6-3.6-3.6-3.6l112.6-33.5c0,0,28.7-4.6,29-4.4
	c1.3,0.7,2.5,1.5,3.7,2.2c-5.6-4.3-8.8-9.4-8.8-14.9c0-15.5,25.7-22.2,57.4-22.2s57.4,6.7,57.4,22.2
	C254.1,385.6,228.4,398.2,196.8,398.2z M197.9,394.5c4.2,0,7.6-0.8,7.6-1.8c0-1-3.4-1.8-7.6-1.8c-4.2,0-7.6,0.8-7.6,1.8
	C190.2,393.7,193.6,394.5,197.9,394.5z M197.9,369.3c-46.3,1.3-44.1,15.1-42.5,16.8c0,0.1,0,0.2,0,0.3c0-0.1,0.1-0.1,0.1-0.2
	c0,0,0,0-0.1-0.1c0.9-10.8,13.6-13.6,42.8-15.6c15.8,0.9,41.1,2.5,41.4,15.3C244.9,375.1,215.9,368.8,197.9,369.3z M227,162.3
	c-0.2,7.2-2.9,14.3-6.3,19.5c-3.8,5.8-8.8,8.5-13.1,10.9c-1.6,2.8-0.7,4.4-0.7,4.4s-1.5,0.8-3.6,1.6v105.4c3.7,0.8,4.4,2.3,4.4,2.3
	v4.4c0,0,9,5.2,13.1,12.4c5.5,9.6,6.5,21.8,6.5,21.8s-13.6,0-26.3,0c-11.2,0-14.4,0-14.4,0s11.2-1.2,11.6-11.6
	c0.3-7-16-19.7-16-19.7s2.8-2.9,5.1-2.9v-4.4c0,0,0.7-1.5,4.4-2.3v-105c-2.6-0.9-4.4-2-4.4-2s0.8-2.1-0.7-5.1
	c-2.1-1.4-8.6-6.3-10.9-10.2c-3.9-6.7-5.6-12-6.7-20.9c-1.3-2.6-4.6-4-5.6-6c-2.2-4.3-1.5-8-1.5-8s2.9-14.6,35.6-14.6
	c28.3,0,37,14.6,37,14.6s1.2,5.1-1.5,9.5C232,158.1,230.1,160.3,227,162.3z M168.4,345c-34.4,1.2-53-13.8-53-13.8l-92-109.8
	c0,0-10-21.6,12.3-24.8c31.7-4.5,55.9,17.5,55.9,17.5l102.2,117.1C193.9,331.2,200.3,343.9,168.4,345z"/>
</svg>
