<?xml version="1.0" encoding="utf-8"?>
<!-- Generator: Adobe Illustrator 21.1.0, SVG Export Plug-In . SVG Version: 6.00 Build 0)  -->
<svg version="1.1" id="Layer_3" xmlns="http://www.w3.org/2000/svg" xmlns:xlink="http://www.w3.org/1999/xlink" x="0px" y="0px"
	 viewBox="0 0 512 512" style="enable-background:new 0 0 512 512;" xml:space="preserve">
<g>
	<path d="M492.6,161.1h-43.5l0-161.1H189.6l0,161.1H179v326.2h313.6c10.7,0,19.4-8.7,19.4-19.4V180.5
		C512,169.8,503.3,161.1,492.6,161.1z M221.7,32.2H417l0,128.9H221.7L221.7,32.2z M270.6,416.1c-4.6,4.6-11,7.5-18.1,7.5
		c-14.1,0-25.6-11.5-25.6-25.6c0-7.1,2.9-13.5,7.5-18.1c4.6-4.6,11-7.5,18.1-7.5c7.1,0,13.5,2.9,18.1,7.5c4.6,4.6,7.5,11,7.5,18.1
		C278.1,405.1,275.2,411.5,270.6,416.1z M270.6,345.8c-4.6,4.6-11,7.5-18.1,7.5c-14.1,0-25.6-11.5-25.6-25.6
		c0-7.1,2.9-13.5,7.5-18.1c4.6-4.6,11-7.5,18.1-7.5c7.1,0,13.5,2.9,18.1,7.5c4.6,4.6,7.5,11,7.5,18.1
		C278.1,334.8,275.2,341.2,270.6,345.8z M360.9,416.1c-4.6,4.6-11,7.5-18.1,7.5c-14.1,0-25.6-11.5-25.6-25.6
		c0-7.1,2.9-13.5,7.5-18.1c4.6-4.6,11-7.5,18.1-7.5c7.1,0,13.5,2.9,18.1,7.5c4.6,4.6,7.5,11,7.5,18.1
		C368.4,405.1,365.5,411.5,360.9,416.1z M360.9,345.8c-4.6,4.6-11,7.5-18.1,7.5c-14.1,0-25.6-11.5-25.6-25.6
		c0-7.1,2.9-13.5,7.5-18.1c4.6-4.6,11-7.5,18.1-7.5c7.1,0,13.5,2.9,18.1,7.5c4.6,4.6,7.5,11,7.5,18.1
		C368.4,334.8,365.5,341.2,360.9,345.8z M451.2,416.1c-4.6,4.6-11,7.5-18.1,7.5c-14.1,0-25.6-11.5-25.6-25.6
		c0-7.1,2.9-13.5,7.5-18.1c4.6-4.6,11-7.5,18.1-7.5c7.1,0,13.5,2.9,18.1,7.5c4.6,4.6,7.5,11,7.5,18.1
		C458.7,405.1,455.8,411.5,451.2,416.1z M451.2,345.8c-4.6,4.6-11,7.5-18.1,7.5c-14.1,0-25.6-11.5-25.6-25.6
		c0-7.1,2.9-13.5,7.5-18.1c4.6-4.6,11-7.5,18.1-7.5c7.1,0,13.5,2.9,18.1,7.5c4.6,4.6,7.5,11,7.5,18.1
		C458.7,334.8,455.8,341.2,451.2,345.8z M458.7,275H226.9v-44.3h231.8V275z"/>
	<path d="M35.3,487.2H19.5C8.7,487.2,0,478.5,0,467.8V180.5c0-10.7,8.7-19.4,19.4-19.4h15.8V487.2z M161,499.3
		c0,6.7-5.4,12.2-12.2,12.2H64.6c-6.7,0-12.2-5.4-12.2-12.2V162.2c0-6.7,5.4-12.2,12.2-12.2h84.2c6.7,0,12.2,5.4,12.2,12.2V499.3z
		 M390.4,128.4H248.3v-21.6h142.1V128.4z M390.4,85.5H248.3V63.9h142.1V85.5z"/>
</g>
</svg>
