<?xml version="1.0" encoding="utf-8"?>
<!-- Generator: Adobe Illustrator 21.1.0, SVG Export Plug-In . SVG Version: 6.00 Build 0)  -->
<svg version="1.1" id="fill" xmlns="http://www.w3.org/2000/svg" xmlns:xlink="http://www.w3.org/1999/xlink" x="0px" y="0px"
	 viewBox="0 0 640 512" style="enable-background:new 0 0 640 512;" xml:space="preserve">
<g>
	<path d="M409.8,306.6c1.4,0.1,2.4,0.1,3.2,0.2c12.6,1,6.6-18.2,5.4-51.5c-1.2-32.5,2.7-78.8,2.7-111.2c0-10.2-1.1-20.2-3.2-29.6
		c-6.6-29.7-22.6-54.9-44.3-70.9c-15.8-11.7-34.5-18.4-54.6-18.4c-56.4,0-102.1,53.2-102.1,118.9c0,24.3,3,75.1,1.8,112.1
		c-1,30.7-7.4,50.6,2.6,50.6c1.7,0,5.3,0,10.4-0.1c-71.3,20.6-121,64.5-121,111.2c0,64.4,94.1,71,209.6,71.1h0.9
		c58-0.1,110.6-1.7,148.7-11.5c38.1-9.7,61.8-27.5,61.8-59.7C531.7,371.1,481.7,327.2,409.8,306.6z M321.2,332.5
		c-28.2,0-53.3-14.3-69.2-36.6l17.5-16.9c11.6,17.2,30.4,28.3,51.7,28.3c21.3,0,40.1-11.1,51.7-28.3l17.5,16.9
		C374.6,318.2,349.5,332.5,321.2,332.5z M398.6,183c-1.9,7.9-5.1,14.9-8.1,14.9c-1.4,0-2.9-0.2-4.2-1.2
		c-8.3,41.1-36.9,79.6-70.8,79.6c-33.6,0-61.9-37.8-70.5-78.4H244c-3,0-6.2-7-8.1-15c-0.1-0.5-0.2-0.9-0.3-1.4
		c0-0.2-0.1-0.4-0.1-0.5c-0.1-0.5-0.2-0.8-0.3-1.3c-0.1-0.3-0.1-0.5-0.2-0.7s-0.1-0.6-0.2-0.9c0-0.3-0.1-0.5-0.1-0.7
		s-0.1-0.5-0.1-0.8c-0.1-0.4-0.1-0.8-0.2-1.2c0-0.3-0.1-0.5-0.1-0.7s-0.1-0.5-0.1-0.8c0-0.3,0-0.5-0.1-0.7c0-0.4-0.1-0.6-0.1-1
		c0-0.3,0-0.5,0-0.8c0-0.2,0-0.4,0-0.6c0-0.4,0-0.7,0-1.1v-0.2c0-1,0.1-1.9,0.2-2.9c0.8-6.6,4.2-11.4,8.3-11.4
		c0.7,0,1.4,0.2,1.9,0.5c18.2-19.3,13.7-20.6,14.5-54.4c12.8,34.8,52.7,32.6,78.4,29.7c7.9-0.9,14.5-1.8,18.5-1.8
		c2.7,0,5.8,0.1,9,0.5c10.5,1.5,21.5,6.8,22.9,27.1c0.1-0.1,0.2-0.1,0.3-0.2c0,0.1,0,0.1,0,0.2c1-0.9,2.2-1.5,3.5-1.6
		c4.7,0.1,8.4,6.4,8.5,14.3c0,4.1-0.6,9.1-1.8,13.8L398.6,183L398.6,183z"/>
	<path d="M180.4,25c-18.2,0-25.4,3-27.4,3.7c-36.3,12-62.9,50.9-62.9,97c0,4.3,2.2,76.1,1.6,95.2c-0.8,26.1-6.3,42.9,2.3,42.9h8.8
		C42.1,281.3,0,318.4,0,358.1c0,33.1,29.4,48.3,74.4,55c0,0-0.2-7.8-0.1-9c2.6-42,44.4-81,105.6-102.5c-0.7-2.6-0.7-6.4-0.4-11.1
		c0.1-1.6,0.3-3.2,0.4-4.9h-1.4c-23.9,0-45.3-12.1-58.8-31l14.9-14.3c9.9,14.6,25.8,24,43.9,24c0.8,0,3.3-0.1,3.3-0.1
		c0.2-2.8,0.7-21,0.7-27.4c0,0,0,0-0.1,0c-2.9,0.6-5.8,1-8.8,1c-28.6,0-52.5-32-59.8-66.4H113c-2.9,0-5.9-7.7-7.5-15.5
		c-0.1-0.4-0.1-0.6-0.2-1c-0.5-2.6-0.6-5.1-0.6-7.3c0-6.8,3.3-12.2,7.2-12.2c0.6,0,1.2,0.2,1.6,0.4c1.2-1.3,2.3-2.5,3.3-3.6l0,0
		c11.7-13.2,8.4-16.2,9-42.8c6.4,17.4,20.7,23.9,35.9,25.8c0.6,0.3,1.1,0.4,1.4,0.2c8-6.4,15.1-11.3,21.4-14.9
		c1.1-0.6,2.2-1.2,3.2-1.7c7.8-22.7,21.6-42,39-55.2C226.5,43.4,203.9,25,180.4,25z"/>
	<path d="M536.8,263.4c1.1,0.1,2,0.1,2.7,0.2c10.7,0.8,5.6-15.4,4.6-43.6c-0.6-18.2,0.5-41.4,1.5-62.9h0.1c0.5-11.7,0.9-23,0.9-32.8
		c-0.2-54.7-38.8-99.1-86.4-99.1h-0.1H460c-16.1,0-31.1,5.1-44,14c-2,1.4-3.9,2.7-5.8,4.4c0,0-0.1,0-0.1,0.1l0,0l0,0
		c20.6,15.2,36.2,38.8,43.2,66.6c0,0,0,0,0.1-0.1c0.4,1.5,0.7,2.8,1,4.3c15.6,0.4,30.6-2.8,37.1-2.7c9,0.1,22.4,0.7,26.2,17.1
		c0.3,2.5,0.5,5,0.6,7.6c0.9-0.8,1.9-1.3,3.1-1.3c4,0,7.2,5.5,7.2,12.1c0,1.1-0.1,2.3-0.2,3.5c-0.3,2.1-0.6,4.2-1.2,6.3h0.3
		c-0.2,0.8-0.4,1.6-0.5,2.3c-1.6,6.6-4.3,12.2-6.8,12.2c-1.2,0-2.5-0.2-3.6-1c-7,34.8-31.2,67.3-59.9,67.3c-0.7,0-1.5,0-2.2-0.1
		c0,1.6,0,3.3,0,4.9c0,4.4,0.1,8.7,0.2,12.7c0.1,2.9,0.3,5.7,0.5,8.4c0.2,0,0.5,0.1,0.6,0.1c1.9,0.3,3.9,0.4,5.8,0.4
		c18.1,0,34-9.4,43.8-24l14.9,14.3c-13.5,18.8-34.8,30.9-58.7,30.9c-1.5,0-3,0-4.5-0.2h-0.5c0.1,1.5,0.2,2.8,0.3,4.1
		c0.3,4.7,0.3,8.6-0.4,11.4c63.3,20.8,107.4,60,111.1,102.3c0.2,1.9,0.3,8,0.2,9.1c43.6-6.9,71.9-22,71.9-54.5
		C640,318,597.7,280.8,536.8,263.4z"/>
</g>
</svg>
