<?xml version="1.0" encoding="utf-8"?>
<!-- Generator: Adobe Illustrator 22.0.1, SVG Export Plug-In . SVG Version: 6.00 Build 0)  -->
<svg version="1.1" xmlns="http://www.w3.org/2000/svg" xmlns:xlink="http://www.w3.org/1999/xlink" x="0px" y="0px"
	 viewBox="0 0 512.7 512" style="enable-background:new 0 0 512.7 512;" xml:space="preserve">
<style type="text/css">
	.st0{fill:#010101;}
</style>
<g id="Layer_3">
	<g>
		<circle class="st0" cx="394.8" cy="460.5" r="51.2"/>
	</g>
</g>
<g id="Layer_6">
	<g>
		<path class="st0" d="M372.5,98.3l55.6,55.6c4.4-5.2,8.7-10.3,12.8-15.3L385.4,83C381.3,87.9,377,93,372.5,98.3z"/>
		<path class="st0" d="M498.5,9c-16.6-13.7-41.3-11.4-55.1,5l-0.1,0.2c-0.1,0.1-7.2,8.6-19.5,23.2L479.4,93
			c15-17.8,23.9-28.4,24-28.5l0.2-0.3C517.3,47.6,515,22.9,498.5,9z"/>
		<path class="st0" d="M91.4,430.7c-2.5,2.3-6.4,4.2-11.1,1.3c-1.4-2.6-1.8-10.8-0.9-15.2c2.2-10.2,0.2-20.6-5.5-29.3
			c-5.7-8.8-14.4-14.8-24.6-16.9c-10.1-2.3-20.5-0.4-29.3,5.2c-8.9,5.7-15,14.5-17.1,24.9c-5.2,24-3.9,71.1,33.5,96.1
			c15,10,31.2,15.1,48.1,15.1c29.5,0,53.7-15.6,65.4-28.9c19.4-22,167.4-197.6,265.6-314.3l-55.6-55.6
			C262.7,228.7,112.5,406.8,91.4,430.7z"/>
		<path class="st0" d="M398,68l55.6,55.6c4.7-5.5,9-10.7,13.2-15.6l-55.6-55.6C407.1,57.2,402.7,62.5,398,68z"/>
	</g>
</g>
</svg>
