<?xml version="1.0" encoding="utf-8"?>
<!-- Generator: Adobe Illustrator 21.1.0, SVG Export Plug-In . SVG Version: 6.00 Build 0)  -->
<svg version="1.1" id="Layer_1" xmlns="http://www.w3.org/2000/svg" xmlns:xlink="http://www.w3.org/1999/xlink" x="0px" y="0px"
	 viewBox="0 0 533.2 512" style="enable-background:new 0 0 533.2 512;" xml:space="preserve">
<style type="text/css">
	.st0{fill:#010101;}
</style>
<g id="Layer_3">
	<g>
		<circle class="st0" cx="266.7" cy="460.5" r="51.2"/>
	</g>
</g>
<g>
	<path class="st0" d="M440.9,138.6L385.4,83c-4.1,4.9-8.4,10-12.9,15.3l55.6,55.6C432.5,148.7,436.8,143.6,440.9,138.6z"/>
	<path class="st0" d="M503.4,64.5l0.2-0.3C517.3,47.6,515,22.9,498.5,9c-16.6-13.7-41.3-11.4-55.1,5l-0.1,0.2
		c-0.1,0.1-7.2,8.6-19.5,23.2L479.4,93C494.4,75.2,503.3,64.6,503.4,64.5z"/>
	<path class="st0" d="M466.8,108l-55.6-55.6c-4.1,4.8-8.5,10.1-13.2,15.6l55.6,55.6C458.3,118.1,462.6,112.9,466.8,108z"/>
	<path class="st0" d="M106.3,153.8l55.6-55.6c-4.4-5.3-8.7-10.4-12.8-15.3l-55.6,55.6C97.6,143.5,101.9,148.6,106.3,153.8z"/>
	<path class="st0" d="M31.1,64.4c0.1,0.1,9,10.7,24,28.5l55.5-55.5C98.3,22.8,91.2,14.3,91.1,14.2L91,14C77.3-2.5,52.6-4.7,36,9
		c-16.6,13.8-18.8,38.5-5.1,55.1L31.1,64.4z"/>
	<path class="st0" d="M531.5,400.7c-2.1-10.4-8.2-19.2-17.1-24.9c-8.8-5.6-19.2-7.5-29.3-5.2c-10.2,2.1-18.9,8.1-24.6,16.9
		c-5.7,8.7-7.7,19.1-5.5,29.3c0.9,4.4,0.5,12.6-0.9,15.2c-4.7,2.9-8.6,1-11.1-1.3c-11.7-13.4-63.8-75-124.5-146.8
		c33.6-39.9,67.5-80.2,97-115.2l-55.6-55.6c-27.9,33.2-60.3,71.6-92.6,110c-32.4-38.4-64.7-76.8-92.7-109.9L119,168.8
		c29.5,35,63.4,75.3,97,115.1c-60.7,71.9-112.8,133.4-124.6,146.8c-2.5,2.3-6.4,4.2-11.1,1.3c-1.4-2.6-1.8-10.8-0.9-15.2
		c2.2-10.2,0.2-20.6-5.5-29.3c-5.7-8.8-14.4-14.8-24.6-16.9c-10.1-2.3-20.5-0.4-29.3,5.2c-8.9,5.7-15,14.5-17.1,24.9
		c-5.2,24-3.9,71.1,33.5,96.1c15,10,31.2,15.1,48.1,15.1c29.5,0,53.7-15.6,65.4-28.9c10.6-12,59.3-69.5,117.3-138.3
		C325.3,413.4,374,471,384.5,483c11.7,13.3,35.9,28.9,65.4,28.9c16.9,0,33.1-5.1,48.1-15.1C535.4,471.8,536.7,424.7,531.5,400.7z"/>
	<path class="st0" d="M80.9,123.6L136.5,68c-4.7-5.6-9.1-10.8-13.2-15.6L67.7,108C71.9,112.9,76.3,118.1,80.9,123.6z"/>
</g>
</svg>
