<?xml version="1.0" encoding="utf-8"?>
<!-- Generator: Adobe Illustrator 21.1.0, SVG Export Plug-In . SVG Version: 6.00 Build 0)  -->
<svg version="1.1" id="Layer_2" xmlns="http://www.w3.org/2000/svg" xmlns:xlink="http://www.w3.org/1999/xlink" x="0px" y="0px"
	 viewBox="0 0 421.5 512" style="enable-background:new 0 0 421.5 512;" xml:space="preserve">
<path id="fill-32" d="M299.5,0v111.9c0,5.6,4.5,10.1,10.1,10.1h111.9L299.5,0z M421.6,312.1h-60l-69.6,71.8l-71.2-93.8l-34.7,51.1
	h-47.3l-1,1.7c-6.7,11.4-19.1,18.6-32.4,18.6C84.8,361.5,68,344.7,68,324c0-20.7,16.8-37.5,37.5-37.5c13.2,0,25.7,7.1,32.3,18.6
	l1,1.7h23.8l63.9-90.8l75,104.5l39.1-42.7h81L421.5,154H277.6c-5.6,0-10.1-4.5-10.1-10.1V0h-252c-8.3,0-15,6.7-15,15v482
	c0,8.3,6.7,15,15,15h391.3c8.3,0,15-6.7,15-15L421.6,312.1z"/>
</svg>
