<?xml version="1.0" encoding="utf-8"?>
<!-- Generator: Adobe Illustrator 21.1.0, SVG Export Plug-In . SVG Version: 6.00 Build 0)  -->
<svg version="1.1" id="Layer_2" xmlns="http://www.w3.org/2000/svg" xmlns:xlink="http://www.w3.org/1999/xlink" x="0px" y="0px"
	 viewBox="0 0 421.5 512" style="enable-background:new 0 0 421.5 512;" xml:space="preserve">
<g>
	<path id="fill-32" d="M299.5,0v111.9c0,5.6,4.5,10.1,10.1,10.1h111.9L299.5,0z"/>
	<path d="M421.5,154H277.6c-5.6,0-10.1-4.5-10.1-10.1V0h-20l-232,0c-8.3,0-15,6.7-15,15v482c0,8.3,6.7,15,15,15h391.3
		c8.3,0,15-6.7,15-15L421.5,154z M346.6,281.6l-119.2,142c-11.1,13.2-31.2,13.8-43.1,1.3l-43.5-45.9c-3.1-3.7-4.6-8.2-4.6-12.6
		c0-6.9,3.6-13.7,10.2-17.3c7.9-4.4,17.8-2.8,24,3.8l35.3,37.8l112-133.7c7.4-8.9,21-9.1,28.7-0.4
		C352.7,263.7,352.8,274.4,346.6,281.6z"/>
</g>
</svg>
