<?xml version="1.0" encoding="utf-8"?>
<!-- Generator: Adobe Illustrator 21.1.0, SVG Export Plug-In . SVG Version: 6.00 Build 0)  -->
<svg version="1.1" id="Layer_4" xmlns="http://www.w3.org/2000/svg" xmlns:xlink="http://www.w3.org/1999/xlink" x="0px" y="0px"
	 viewBox="0 0 512 512" style="enable-background:new 0 0 512 512;" xml:space="preserve">
<g>
	<path d="M399.1,122H511L389,0v111.9C389,117.5,393.5,122,399.1,122z"/>
	<path d="M367.1,154c-5.6,0-10.1-4.5-10.1-10.1V0h-20L105,0c-8.3,0-15,6.7-15,15v239h99.5c56.6,0,102.5,45.9,102.5,102.5
		S246.1,459,189.5,459c-12.5,0-20.5,0-20.5,0s0,0,0,0c-0.2,0-0.3,0-0.5,0c-22.4,0-40.5-18.1-40.5-40.5c0-22,17.5-39.9,39.4-40.5
		c0.2,0,0.4,0,0.6,0h22c11,0,21-9,21-22c0-9.5-8-21-21-21c-4.4,0-66.5,0.5-100,0.8V497c0,8.3,6.7,15,15,15h391c8.3,0,15-6.7,15-15
		l-0.3-343H367.1z"/>
	<path d="M187.6,313.7c23.9,0.2,44.2,19.5,44.2,42.9c0,24.2-18.6,43.2-44.6,43.2c-4.5,0-3.8,0-4.5,0c-9.8,0-18.2,8.4-18.2,18.6
		c0,10.7,8.4,19,18.2,19c0.8,0,0,0,4.5,0c45.5,0,82.2-36.4,82.2-80.9c0-44.3-36.7-80.6-81.8-80.9h0h-123l1.3-36.7L1.3,295.1
		l64.6,55.3l-1.3-36.7H187.6z"/>
</g>
</svg>
