<?xml version="1.0" encoding="utf-8"?>
<!-- Generator: Adobe Illustrator 21.1.0, SVG Export Plug-In . SVG Version: 6.00 Build 0)  -->
<svg version="1.1" id="Layer_2" xmlns="http://www.w3.org/2000/svg" xmlns:xlink="http://www.w3.org/1999/xlink" x="0px" y="0px"
	 viewBox="0 0 421.5 512" style="enable-background:new 0 0 421.5 512;" xml:space="preserve">
<g>
	<path id="fill-32" d="M421.5,154H277.6c-5.6,0-10.1-4.5-10.1-10.1V0h-20l-232,0c-8.3,0-15,6.7-15,15v482c0,8.3,6.7,15,15,15h391.3
		c8.3,0,15-6.7,15-15L421.5,154z M349.8,372.5c-1.9,14.4-13,24.9-33.8,22.1c-13.2-1.8-26.5-13.4-34.3-22.2
		c-10.4,1.1-30.9,3.5-39,5.7c-7.3,2-24.2,9.3-34,13.6c-1,11.7-4.8,28.4-14.1,37.7c-14.8,14.8-30,13.3-40.3,3
		c-10.3-10.3-11.8-25.5,3-40.3c10.2-10.2,29.5-13.4,41.1-14c6.1-8.9,15.8-24.3,22.3-39.6c5.8-13.8,8.6-28,9.8-36.4
		c-7.5-9-16.5-23.3-16.5-36.4c0-21,11.8-30.6,26.4-30.6s26.4,9.7,26.4,30.6c0,12-7.9,25.1-15.1,34.1c2.8,7.1,8.4,19.7,15.1,28.7
		c7.8,10.5,16.1,18.8,21.1,23.4c9.8-5.7,23.4-11.2,35-9.7C343.7,345.1,351.7,358.1,349.8,372.5z M320.5,362.7
		c-6-1.5-14.2,2.3-14.4,3c-0.1,0.5,5.4,7.8,11.4,9.3c6,1.5,9.4-0.6,10.2-4C328.5,367.6,326.4,364.1,320.5,362.7z M241.3,327.8
		c0,0-3.7,12.1-5.4,15.9c-2.6,5.7-11.7,21.9-12,22.5c0.4-0.2,14.6-5.4,19.4-6.8c4.8-1.4,19.4-4.7,19.4-4.7s-9.9-10.3-12.8-14
		C247.5,337.7,241.3,327.8,241.3,327.8z M240.4,281.2c0.5,0,6.3-7.1,6.3-13.3c0-6.1-2.8-9-6.3-9c-3.5,0-6.3,2.8-6.3,9
		C234.1,274,239.6,281.2,240.4,281.2z M172.7,404.9c-4.3,4.3-4.3,8.3-1.9,10.8c2.5,2.5,6.5,2.5,10.8-1.9c4.3-4.3,5.4-13.3,4.9-13.8
		C186.2,399.6,177.1,400.5,172.7,404.9z M299.5,0v111.9c0,5.6,4.5,10.1,10.1,10.1h111.9L299.5,0z"/>
</g>
</svg>
