<?xml version="1.0" encoding="utf-8"?>
<!-- Generator: Adobe Illustrator 21.1.0, SVG Export Plug-In . SVG Version: 6.00 Build 0)  -->
<svg version="1.1" id="Layer_2" xmlns="http://www.w3.org/2000/svg" xmlns:xlink="http://www.w3.org/1999/xlink" x="0px" y="0px"
	 viewBox="0 0 421.5 512" style="enable-background:new 0 0 421.5 512;" xml:space="preserve">
<g>
	<path id="fill-32" d="M299.5,0v111.9c0,5.6,4.5,10.1,10.1,10.1h111.9L299.5,0z"/>
	<path d="M229.3,335.5c-0.3,0-0.5,0-0.8,0c-0.3,0-0.6,0-0.9,0c-4.1,0.4-7.2,3.9-7.2,8c0,3,1.7,5.7,4.2,7.1c0,0,0,0,0,0
		c0.2,0.1,0.5,0.2,0.7,0.3c0.3,0.1,0.7,0.3,1,0.4c0.1,0,0.1,0,0.1,0c0.4,0.1,0.7,0.1,1.1,0.2c0.3,0,0.6,0,0.9,0c0.3,0,0.5,0,0.8,0
		c4.1-0.4,7.3-3.8,7.3-8S233.4,335.9,229.3,335.5z M227.3,341.1C227.2,341.1,227.2,341.1,227.3,341.1c-1,0.8-1.5,1.9-1.5,3
		c0,0.7-0.5,1.2-1.2,1.2c-0.7,0-1.2-0.6-1.2-1.2c0-1.9,0.8-3.7,2.3-4.8v0c0.5-0.4,1.3-0.4,1.7,0.2c0,0,0,0,0,0
		C227.9,339.9,227.8,340.7,227.3,341.1z"/>
	<path d="M421.5,154H277.6c-5.6,0-10.1-4.5-10.1-10.1V0h-20l-232,0c-8.3,0-15,6.7-15,15v482c0,8.3,6.7,15,15,15h391.3
		c8.3,0,15-6.7,15-15L421.5,154z M248.9,292.5h7.3c1.7,0,3,4.8,3,5h-13.3C245.9,297.5,247.3,292.5,248.9,292.5z M163.7,295.5
		c0-1.7,1.4-3,3-3h7.3c1.7,0,3,1.4,3,3c0,1.7,0,1.9,0,1.9h-13.3C163.7,297.5,163.7,297.2,163.7,295.5z M152.1,308.4
		c0-5.2,4.2-9.4,9.4-9.4h102c5.2,0,9.4,4.2,9.4,9.4v69.5c0,5.2-4.2,9.4-9.4,9.4h-102c-5.2,0-9.4-4.2-9.4-9.5v-32.1h49.5
		c1.3,13.5,12.6,24,26.4,24c14.7,0,26.5-11.9,26.5-26.5c0-14.7-11.9-26.5-26.5-26.5c-13.7,0-25,10.4-26.4,23.8h-49.6V308.4z
		 M211.5,343.7c0-9.4,7.6-17,17-17c9.4,0,17,7.6,17,17s-7.6,17-17,17C219.1,360.7,211.5,353,211.5,343.7z M214.6,425.8l-5.2,3.6
		l-5.2,3.6c-8.4,5.9-15.3,10.6-20.8,14.2c1.4-4.1,2.8-8.2,4.4-12.3c-32.7-4-59.7-11.2-80.9-21.5c-7.3-3.7-13.2-7.4-17.6-11
		c-6-4.8-10.3-9.9-12.9-15.6c-2.6-5.7-3-11.7-1.3-18.3c1.6-6.2,4.7-11.6,9.4-16.3c7.4-7.3,16.9-13.4,28.6-18.5
		c8.6-3.6,19.6-7,33-10.3v9.1c-7.2,2.2-12.9,4.4-17.3,6.5c-6.1,3-11,6.6-14.8,10.8c-3.3,3.5-5.3,7.5-6.1,12
		c-0.9,4.8-0.1,9.1,2.4,12.9c2.5,3.9,6.1,7.5,10.9,10.7c3.5,2.3,8,4.8,13.7,7.3c14.6,6.3,33.3,11,56.1,14.1c0.1-6.5,0.1-12.2,0-17.2
		c2.2,1.8,5.1,4.2,8.5,7.3l8.5,7.1c6.8,5.8,12.4,10.7,16.8,14.8C222,420.6,218.6,423,214.6,425.8z M345.3,390.2
		c-3.4,5.4-8.1,10.2-14.2,14.5c-4.7,3.4-10.6,6.9-17.8,10.3c-20.9,9.6-46.9,16.2-78,19.9v-28.7c28-4.1,49.5-10.6,64.5-19.4
		c5.1-3,9.1-6.5,12-10.4c3.5-4.7,4.7-9.6,3.8-14.6c-0.2-4.7-2-9-5.4-13c-3-3.5-6.9-6.5-11.6-8.9v11.6c-5.2-5.7-12.2-13.6-20.8-23.4
		c3.5-1.7,7.8-3.7,12.9-6l6.5-3l6.4-3l-1.7,6.8l-1.6,6.8c9,3,16.4,6.1,22.2,9.2c7.7,4.2,13.8,9,18.4,14.5c4.5,5.3,7.2,11.2,8.2,17.8
		C350.1,378.4,348.8,384.7,345.3,390.2z"/>
</g>
</svg>
