<?xml version="1.0" encoding="utf-8"?>
<!-- Generator: Adobe Illustrator 21.1.0, SVG Export Plug-In . SVG Version: 6.00 Build 0)  -->
<svg version="1.1" id="Layer_2" xmlns="http://www.w3.org/2000/svg" xmlns:xlink="http://www.w3.org/1999/xlink" x="0px" y="0px"
	 viewBox="0 0 421.5 512" style="enable-background:new 0 0 421.5 512;" xml:space="preserve">
<g>
	<path id="fill-32" d="M299.5,0v111.9c0,5.6,4.5,10.1,10.1,10.1h111.9L299.5,0z"/>
	<path d="M421.5,154H277.6c-5.6,0-10.1-4.5-10.1-10.1V0h-20l-232,0c-8.3,0-15,6.7-15,15v482c0,8.3,6.7,15,15,15h391.3
		c8.3,0,15-6.7,15-15L421.5,154z M258.6,207.4c8,0,14.5,6.5,14.5,14.5s-6.5,14.5-14.5,14.5c-8,0-14.5-6.5-14.5-14.5
		S250.6,207.4,258.6,207.4z M201.3,301.6c0-1,0.3-2.2,0.9-3.6l2.3-2.9l54.2-49.1l54.9,48.7c1.4,1.2,2.2,2.8,2.5,4.9l0.2,2.9v37.9
		L276,300.1l0.1,83h-34.8l-0.1-83l-39.8,40V301.6z M325.7,442.8H191.5v-34.9h134.3V442.8z"/>
</g>
</svg>
