<?xml version="1.0" encoding="utf-8"?>
<!-- Generator: Adobe Illustrator 21.1.0, SVG Export Plug-In . SVG Version: 6.00 Build 0)  -->
<svg version="1.1" id="Layer_2" xmlns="http://www.w3.org/2000/svg" xmlns:xlink="http://www.w3.org/1999/xlink" x="0px" y="0px"
	 viewBox="0 0 421.5 512" style="enable-background:new 0 0 421.5 512;" xml:space="preserve">
<g>
	<path id="fill-32" d="M421.5,154H277.6c-5.6,0-10.1-4.5-10.1-10.1V0h-20l-232,0c-8.3,0-15,6.7-15,15v482c0,8.3,6.7,15,15,15h391.3
		c8.3,0,15-6.7,15-15L421.5,154z M339.8,352.8c-6,9.8-14.3,16.6-25.1,20.2c-6.5,2.4-15.7,3.6-27.3,3.6h-32.3v63.7h-32.7V261h64
		c12.8,0,23,1.5,30.5,4.5c9.8,4.2,17.6,11,23.3,20.4c5.6,9.4,8.5,20.4,8.5,33C348.7,331.6,345.8,343,339.8,352.8z M302.6,291.9
		c-4.5-3-10.9-4.5-19.3-4.5h-28.2v62.7h27.8c7.4,0,13.6-1.2,18.4-3.6c9.6-4.8,14.3-14.1,14.3-27.8
		C315.6,306,311.3,296.9,302.6,291.9z M299.5,0v111.9c0,5.6,4.5,10.1,10.1,10.1h111.9L299.5,0z"/>
</g>
</svg>
