<?xml version="1.0" encoding="utf-8"?>
<!-- Generator: Adobe Illustrator 21.1.0, SVG Export Plug-In . SVG Version: 6.00 Build 0)  -->
<svg version="1.1" id="Layer_2" xmlns="http://www.w3.org/2000/svg" xmlns:xlink="http://www.w3.org/1999/xlink" x="0px" y="0px"
	 viewBox="0 0 421.5 512" style="enable-background:new 0 0 421.5 512;" xml:space="preserve">
<g>
	<path id="fill-32" d="M421.5,154H277.6c-5.6,0-10.1-4.5-10.1-10.1V0l-252,0c-8.3,0-15,6.7-15,15v482c0,8.3,6.7,15,15,15h391.3
		c8.3,0,15-6.7,15-15L421.5,154z M349.7,430.7c0,2.7-0.8,4.8-2.5,6.5c-2,2-4.3,3-7,3H181.1c-2.7,0-4.8-1-6.5-3c-2-1.7-3-3.8-3-6.5
		V250.1c0-2.7,1-5,3-7c1.7-1.7,3.8-2.5,6.5-2.5h159.1c2.7,0,5,0.8,7,2.5c1.7,2,2.5,4.3,2.5,7V430.7z M322.7,429.6h16.5v-19h-16.5
		V429.6z M322.7,398.1h16.5v-19h-16.5V398.1z M322.7,366.1h16.5v-19h-16.5V366.1z M322.7,334.1h16.5v-18.5h-16.5V334.1z
		 M322.7,302.6h16.5v-19h-16.5V302.6z M322.7,270.6h16.5v-19h-16.5V270.6z M207.1,428.1h107.6v-80.5H207.1V428.1z M207.1,334.1
		h107.6v-81H207.1V334.1z M182.1,429.6h16.5v-19h-16.5V429.6z M182.1,398.1h16.5v-19h-16.5V398.1z M182.1,366.1h16.5v-19h-16.5
		V366.1z M182.1,334.1h16.5v-18.5h-16.5V334.1z M182.1,302.6h16.5v-19h-16.5V302.6z M182.1,270.6h16.5v-19h-16.5V270.6z M299.5,0
		v111.9c0,5.6,4.5,10.1,10.1,10.1h111.9L299.5,0z"/>
</g>
</svg>
