<?xml version="1.0" encoding="utf-8"?>
<!-- Generator: Adobe Illustrator 21.1.0, SVG Export Plug-In . SVG Version: 6.00 Build 0)  -->
<svg version="1.1" id="Layer_2" xmlns="http://www.w3.org/2000/svg" xmlns:xlink="http://www.w3.org/1999/xlink" x="0px" y="0px"
	 viewBox="0 0 421.5 512" style="enable-background:new 0 0 421.5 512;" xml:space="preserve">
<g>
	<path id="fill-32" d="M315.9,359.9l-3.3-4.9c-9.7-12.5-20.2-22.8-31.7-30.7c-14.4-10-29.4-15.4-45-16.3
		c-11.7-0.7-23.2,1.1-34.4,5.6c-16.8,6.5-32.3,18.1-46.5,34.9c-5.1,6.2-9,11.5-11.7,16c0.1,0.4,0.4,1,0.8,1.5l0.9,1.5
		c6.5,9.7,14,18.7,22.6,26.7c11.5,10.7,23.6,18.3,36.2,22.9c15.2,5.6,30.7,6.4,46.4,2.5c14.3-3.5,28.1-11,41.5-22.5
		c11.2-9.7,20.3-20.5,27.5-32.3C318.2,363.4,317.2,361.8,315.9,359.9z M274.8,375.7c-0.5,2.2-1.2,4.4-1.9,6.4
		c-0.1,0-0.1,0.1-0.1-0.1c-0.1-0.6-0.6-2.2-1.4-4.1c-1.6-3.2-4.1-5.5-7.4-7c-2.5-1.1-5.2-1.3-8-0.8c-2.8,0.5-5.3,1.8-7.4,3.8
		c-2.1,2.1-3.5,4.7-4.2,7.8c-0.7,3.9-0.2,7.4,1.7,10.6c1.6,2.9,3.9,5,7,6.3c1.8,0.8,3.7,1.2,5.7,1.2c0.7,0,1.3,0,2-0.1
		c0,0,0,0,0,0.1c-6.3,5.8-13.7,9.4-22.3,10.8c-2.7,0.5-5.3,0.7-7.8,0.7c-5.8,0-11.3-1.2-16.6-3.5c-9.4-4-16.6-10.6-21.6-19.8
		c-5.6-10.1-7.2-21-5-32.6c2-9.5,6.3-17.5,13-24.2c6.4-6.2,14-10.2,22.7-11.9c8.9-1.6,17.2-0.7,25.1,2.7
		c10.1,4.2,17.6,11.3,22.7,21.2C276.1,353.6,277.5,364.4,274.8,375.7z M315.9,359.9l-3.3-4.9c-9.7-12.5-20.2-22.8-31.7-30.7
		c-14.4-10-29.4-15.4-45-16.3c-11.7-0.7-23.2,1.1-34.4,5.6c-16.8,6.5-32.3,18.1-46.5,34.9c-5.1,6.2-9,11.5-11.7,16
		c0.1,0.4,0.4,1,0.8,1.5l0.9,1.5c6.5,9.7,14,18.7,22.6,26.7c11.5,10.7,23.6,18.3,36.2,22.9c15.2,5.6,30.7,6.4,46.4,2.5
		c14.3-3.5,28.1-11,41.5-22.5c11.2-9.7,20.3-20.5,27.5-32.3C318.2,363.4,317.2,361.8,315.9,359.9z M274.8,375.7
		c-0.5,2.2-1.2,4.4-1.9,6.4c-0.1,0-0.1,0.1-0.1-0.1c-0.1-0.6-0.6-2.2-1.4-4.1c-1.6-3.2-4.1-5.5-7.4-7c-2.5-1.1-5.2-1.3-8-0.8
		c-2.8,0.5-5.3,1.8-7.4,3.8c-2.1,2.1-3.5,4.7-4.2,7.8c-0.7,3.9-0.2,7.4,1.7,10.6c1.6,2.9,3.9,5,7,6.3c1.8,0.8,3.7,1.2,5.7,1.2
		c0.7,0,1.3,0,2-0.1c0,0,0,0,0,0.1c-6.3,5.8-13.7,9.4-22.3,10.8c-2.7,0.5-5.3,0.7-7.8,0.7c-5.8,0-11.3-1.2-16.6-3.5
		c-9.4-4-16.6-10.6-21.6-19.8c-5.6-10.1-7.2-21-5-32.6c2-9.5,6.3-17.5,13-24.2c6.4-6.2,14-10.2,22.7-11.9c8.9-1.6,17.2-0.7,25.1,2.7
		c10.1,4.2,17.6,11.3,22.7,21.2C276.1,353.6,277.5,364.4,274.8,375.7z M421.5,154H277.6c-5.6,0-10.1-4.5-10.1-10.1V0h-20l-232,0
		c-8.3,0-15,6.7-15,15v482c0,8.3,6.7,15,15,15h391.3c8.3,0,15-6.7,15-15L421.5,154z M313.2,408.6c-18.1,15.6-36.8,25.8-56.3,30.5
		c-21.3,5.4-42.2,4.2-62.9-3.3c-17.1-6.3-33.5-16.6-49.1-31.1c-11.7-11-21.9-23.1-30.7-36.3l-1.2-2c-0.5-0.8-0.9-1.5-1.1-2.1
		c3.6-6.2,8.9-13.4,15.9-21.8c19.3-22.7,40.3-38.5,63.1-47.3c15.2-6.1,30.8-8.6,46.7-7.6c21.2,1.2,41.5,8.5,61.1,22.1
		c15.5,10.8,29.8,24.7,42.9,41.7l4.5,6.6c1.7,2.5,3.2,4.7,4.4,6.6C340.7,380.8,328.3,395.4,313.2,408.6z M312.6,355
		c-9.7-12.5-20.2-22.8-31.7-30.7c-14.4-10-29.4-15.4-45-16.3c-11.7-0.7-23.2,1.1-34.4,5.6c-16.8,6.5-32.3,18.1-46.5,34.9
		c-5.1,6.2-9,11.5-11.7,16c0.1,0.4,0.4,1,0.8,1.5l0.9,1.5c6.5,9.7,14,18.7,22.6,26.7c11.5,10.7,23.6,18.3,36.2,22.9
		c15.2,5.6,30.7,6.4,46.4,2.5c14.3-3.5,28.1-11,41.5-22.5c11.2-9.7,20.3-20.5,27.5-32.3c-0.9-1.4-2-3-3.2-4.9L312.6,355z
		 M274.8,375.7c-0.5,2.2-1.2,4.4-1.9,6.4c-0.1,0-0.1,0.1-0.1-0.1c-0.1-0.6-0.6-2.2-1.4-4.1c-1.6-3.2-4.1-5.5-7.4-7
		c-2.5-1.1-5.2-1.3-8-0.8c-2.8,0.5-5.3,1.8-7.4,3.8c-2.1,2.1-3.5,4.7-4.2,7.8c-0.7,3.9-0.2,7.4,1.7,10.6c1.6,2.9,3.9,5,7,6.3
		c1.8,0.8,3.7,1.2,5.7,1.2c0.7,0,1.3,0,2-0.1c0,0,0,0,0,0.1c-6.3,5.8-13.7,9.4-22.3,10.8c-2.7,0.5-5.3,0.7-7.8,0.7
		c-5.8,0-11.3-1.2-16.6-3.5c-9.4-4-16.6-10.6-21.6-19.8c-5.6-10.1-7.2-21-5-32.6c2-9.5,6.3-17.5,13-24.2c6.4-6.2,14-10.2,22.7-11.9
		c8.9-1.6,17.2-0.7,25.1,2.7c10.1,4.2,17.6,11.3,22.7,21.2C276.1,353.6,277.5,364.4,274.8,375.7z M299.5,0v111.9
		c0,5.6,4.5,10.1,10.1,10.1h111.9L299.5,0z"/>
</g>
</svg>
