<?xml version="1.0" encoding="utf-8"?>
<!-- Generator: Adobe Illustrator 21.1.0, SVG Export Plug-In . SVG Version: 6.00 Build 0)  -->
<svg version="1.1" id="Layer_2" xmlns="http://www.w3.org/2000/svg" xmlns:xlink="http://www.w3.org/1999/xlink" x="0px" y="0px"
	 viewBox="0 0 421.5 512" style="enable-background:new 0 0 421.5 512;" xml:space="preserve">
<g>
	<path id="fill-32" d="M421.5,154H277.6c-5.6,0-10.1-4.5-10.1-10.1V0h-252c-8.3,0-15,6.7-15,15v482c0,8.3,6.7,15,15,15h391.3
		c8.3,0,15-6.7,15-15L421.5,154z M328.7,390.5c13.7,13.8,13.7,36.1,0,49.8l-3.5,3.5l-40.5-40.5l-40.5,40.5l-3.5-3.5
		c-13.7-13.8-13.7-36.1,0-49.8l15.6-15.6L223,341.6h-24.9v74.7h-40.2V216h84.2c34.6,0,62.8,28.2,62.8,62.8c0,23.3-12.7,44.1-32.8,55
		l12.7,12.7l40.5-40.4l28.4,28.4L313.2,375L328.7,390.5z M242.1,256.3h-43.9v45.2h43.9c12.5,0,22.6-10.2,22.6-22.6
		C264.7,266.4,254.6,256.3,242.1,256.3z M299.5,0v111.9c0,5.6,4.5,10.1,10.1,10.1h111.9L299.5,0z"/>
</g>
</svg>
