<?xml version="1.0" encoding="utf-8"?>
<!-- Generator: Adobe Illustrator 21.1.0, SVG Export Plug-In . SVG Version: 6.00 Build 0)  -->
<svg version="1.1" id="Shape_1_1_" xmlns="http://www.w3.org/2000/svg" xmlns:xlink="http://www.w3.org/1999/xlink" x="0px" y="0px"
	 viewBox="0 0 421.8 512" style="enable-background:new 0 0 421.8 512;" xml:space="preserve">
<path d="M406.7,46H305.4L264.2,0.9l0,0h-0.7h-31.1v134c0,5.5,4.5,10,10,10h124v-32L334.6,78h40.2c8.3,0,15,6.7,15,15v373
	c0,8.3-6.7,15-15,15H93.3c-8.3,0-15-6.7-15-15v-3.1h283.1c8.3,0,15-6.7,15-15V170.1H219.2c-6.6,0-12-5.4-12-12V0.9H15.4
	c-8.3,0-15,6.7-15,15v432c0,8.3,6.7,15,15,15h31V498c0,8.3,6.7,15,15,15h345.4c8.3,0,15-6.7,15-15V61C421.7,52.7,415,46,406.7,46z
	 M185.3,201.3h133v14h-133L185.3,201.3L185.3,201.3z M185.3,251.3h133v14h-133L185.3,251.3L185.3,251.3z M185.3,301.3h133v14h-133
	L185.3,301.3L185.3,301.3z M185.3,351.3h133v14h-133L185.3,351.3L185.3,351.3z M185.3,401.3h133v14h-133L185.3,401.3L185.3,401.3z
	 M60.3,101.3h103v14h-103C60.3,115.3,60.3,101.3,60.3,101.3z M60.3,151.3h103v14h-103C60.3,165.3,60.3,151.3,60.3,151.3z
	 M60.3,201.3h103v14h-103C60.3,215.3,60.3,201.3,60.3,201.3z M60.3,251.3h103v14h-103C60.3,265.3,60.3,251.3,60.3,251.3z
	 M60.3,301.3h103v14h-103C60.3,315.3,60.3,301.3,60.3,301.3z M60.3,351.3h103v14h-103C60.3,365.3,60.3,351.3,60.3,351.3z
	 M60.3,415.3v-14h103v14H60.3z"/>
</svg>
