<?xml version="1.0" encoding="utf-8"?>
<!-- Generator: Adobe Illustrator 21.1.0, SVG Export Plug-In . SVG Version: 6.00 Build 0)  -->
<svg version="1.1" id="Layer_2" xmlns="http://www.w3.org/2000/svg" xmlns:xlink="http://www.w3.org/1999/xlink" x="0px" y="0px"
	 viewBox="0 0 421.5 512" style="enable-background:new 0 0 421.5 512;" xml:space="preserve">
<g>
	<path id="fill-32" d="M421.5,154H277.6c-5.6,0-10.1-4.5-10.1-10.1V0h-20l-232,0c-8.3,0-15,6.7-15,15v482c0,8.3,6.7,15,15,15h391.3
		c8.3,0,15-6.7,15-15L421.5,154z M295.6,440.1h-41l-29.5-118.6l-28.5,118.6h-41l-46-179.1h43l24.6,109.1c0,0.7,0.5,2.7,1.5,6
		c0.3,1.3,0.8,3.2,1.5,5.5l29-120.6h39l30,120.6c0.7-2.3,1.5-6.2,2.5-11.5L306.2,261h42.4L295.6,440.1z M299.5,0v111.9
		c0,5.6,4.5,10.1,10.1,10.1h111.9L299.5,0z"/>
</g>
</svg>
