<?xml version="1.0" encoding="utf-8"?>
<!-- Generator: Adobe Illustrator 21.1.0, SVG Export Plug-In . SVG Version: 6.00 Build 0)  -->
<svg version="1.1" id="Layer_2" xmlns="http://www.w3.org/2000/svg" xmlns:xlink="http://www.w3.org/1999/xlink" x="0px" y="0px"
	 viewBox="0 0 421.5 512" style="enable-background:new 0 0 421.5 512;" xml:space="preserve">
<path id="fill-32" d="M299.5,0v111.9c0,5.6,4.5,10.1,10.1,10.1h111.9L299.5,0z"/>
<path d="M421.5,154H277.6c-5.6,0-10.1-4.5-10.1-10.1V0h-252c-8.3,0-15,6.7-15,15v482c0,8.3,6.7,15,15,15h391.2c8.3,0,15-6.7,15-15
	L421.5,154z M198.2,434.4h-133v-24h133V434.4z M198.2,384.4h-133v-24h133V384.4z M198.2,334.4h-133v-24h133V334.4z M198.2,284.4
	h-133v-24h133V284.4z M198.2,234.4h-133v-24h133V234.4z M198.2,184.4h-133v-24h133V184.4z M198.2,134.4h-133v-24h133V134.4z
	 M358.2,434.4h-133v-24h133V434.4z M358.2,384.4h-133v-24h133V384.4z M358.2,334.4h-133v-24h133V334.4z M358.2,284.4h-133v-24h133
	V284.4z M358.2,234.4h-133v-24h133V234.4z"/>
</svg>
