<?xml version="1.0" encoding="utf-8"?>
<!-- Generator: Adobe Illustrator 21.1.0, SVG Export Plug-In . SVG Version: 6.00 Build 0)  -->
<svg version="1.1" id="Layer_6" xmlns="http://www.w3.org/2000/svg" xmlns:xlink="http://www.w3.org/1999/xlink" x="0px" y="0px"
	 viewBox="0 0 421.2 512" style="enable-background:new 0 0 421.2 512;" xml:space="preserve">
<path d="M421,34H275.2L241,0v116h116l-30.8-30h63v394H75.9v-31.8l281.6,0.2L357.1,168H188.9v-52h0.1V0H0v448h44v64h377L421,34z
	 M64.2,97.9H157v32H64.2V97.9z M64.2,157.9H157v32H64.2V157.9z M64.2,217.9h228.1v32H64.2V217.9z M64.2,277.9h228.1v32H64.2V277.9z
	 M64.2,337.9h228.1v32H64.2V337.9z"/>
</svg>
