<?xml version="1.0" encoding="utf-8"?>
<!-- Generator: Adobe Illustrator 21.1.0, SVG Export Plug-In . SVG Version: 6.00 Build 0)  -->
<svg version="1.1" id="Layer_2" xmlns="http://www.w3.org/2000/svg" xmlns:xlink="http://www.w3.org/1999/xlink" x="0px" y="0px"
	 viewBox="0 0 421.5 512" style="enable-background:new 0 0 421.5 512;" xml:space="preserve">
<g>
	<path id="fill-32" d="M299.5,0v111.9c0,5.6,4.5,10.1,10.1,10.1h111.9L299.5,0z"/>
	<path d="M421.5,154H277.6c-5.6,0-10.1-4.5-10.1-10.1V0h-20l-232,0c-8.3,0-15,6.7-15,15v482c0,8.3,6.7,15,15,15h391.3
		c8.3,0,15-6.7,15-15L421.5,154z M198.3,266.3c0-1.3,0.4-2.7,1.1-4.4l2.8-3.5l56.5-50.3l57.3,49.7c1.7,1.5,2.7,3.5,3,6.1l0.3,3.5
		v52.2l-39.4-39.4l0.2,98h-42.7l-0.2-98l-38.9,39.1V266.3z M330,442.7H187.2v-42.8H330V442.7z"/>
</g>
</svg>
