<?xml version="1.0" encoding="utf-8"?>
<!-- Generator: Adobe Illustrator 21.1.0, SVG Export Plug-In . SVG Version: 6.00 Build 0)  -->
<svg version="1.1" id="Layer_2" xmlns="http://www.w3.org/2000/svg" xmlns:xlink="http://www.w3.org/1999/xlink" x="0px" y="0px"
	 viewBox="0 0 421.5 512" style="enable-background:new 0 0 421.5 512;" xml:space="preserve">
<g>
	<path id="fill-52" d="M299.5,0v111.9c0,5.6,4.5,10.1,10.1,10.1h111.9L299.5,0z M421.5,174h-164c-5.5,0-10-4.5-10-10V0l-232,0
		c-8.3,0-15,6.7-15,15v482c0,8.3,6.7,15,15,15h391.3c8.3,0,15-6.7,15-15L421.5,174z M172.9,301.8l-39.7,38.7l39.7,39.7v38.7
		l-77.8-78.9l77.8-77.8V301.8z M217.3,440.3h-29.3l33.4-199.7h29.3L217.3,440.3z M271.8,418.8v-39.7l39.7-38.7l-39.7-39.7v-39.2
		l77.8,78.9L271.8,418.8z"/>
</g>
<g>
	<path id="fill-32" d="M299.5,0v111.9c0,5.6,4.5,10.1,10.1,10.1h111.9L299.5,0z M421.5,154H277.6c-5.6,0-10.1-4.5-10.1-10.1V0h-20
		l-232,0c-8.3,0-15,6.7-15,15v482c0,8.3,6.7,15,15,15h391.3c8.3,0,15-6.7,15-15L421.5,154z M172.9,301.8l-39.7,38.7l39.7,39.7v38.7
		l-77.8-78.9l77.8-77.8V301.8z M217.3,440.3h-29.3l33.4-199.7h29.3L217.3,440.3z M271.8,418.8v-39.7l39.7-38.7l-39.7-39.7v-39.2
		l77.8,78.9L271.8,418.8z"/>
</g>
</svg>
