<?xml version="1.0" encoding="utf-8"?>
<!-- Generator: Adobe Illustrator 21.1.0, SVG Export Plug-In . SVG Version: 6.00 Build 0)  -->
<svg version="1.1" id="Layer_2" xmlns="http://www.w3.org/2000/svg" xmlns:xlink="http://www.w3.org/1999/xlink" x="0px" y="0px"
	 viewBox="0 0 421.5 512" style="enable-background:new 0 0 421.5 512;" xml:space="preserve">
<g>
	<path id="fill-32" d="M299.5,0v111.9c0,5.6,4.5,10.1,10.1,10.1h111.9L299.5,0z M421.5,154H277.6c-5.6,0-10.1-4.5-10.1-10.1V0h-20
		l-232,0c-8.3,0-15,6.7-15,15v482c0,8.3,6.7,15,15,15h391.3c8.3,0,15-6.7,15-15L421.5,154z M348.7,440.4H124.6V260.8h224.1V440.4z
		 M209.6,379.3l61-61l49.1,49v-74.5c0-1-0.3-1.8-1-2.3s-1.4-0.7-2-0.8H156.6c-1,0-1.8,0.3-2.3,0.8s-0.8,1.3-0.8,2.3v104.6l37.1-37.1
		L209.6,379.3z M213.2,414.7h88.8l-42.4-46.4L213.2,414.7z"/>
</g>
</svg>
