<?xml version="1.0" encoding="utf-8"?>
<!-- Generator: Adobe Illustrator 21.1.0, SVG Export Plug-In . SVG Version: 6.00 Build 0)  -->
<svg version="1.1" id="Layer_2" xmlns="http://www.w3.org/2000/svg" xmlns:xlink="http://www.w3.org/1999/xlink" x="0px" y="0px"
	 viewBox="0 0 421.5 512" style="enable-background:new 0 0 421.5 512;" xml:space="preserve">
<g>
	<path id="fill-32" d="M299.5,0v111.9c0,5.6,4.5,10.1,10.1,10.1h111.9L299.5,0z M421.5,154H277.6c-5.6,0-10.1-4.5-10.1-10.1V0h-252
		c-8.3,0-15,6.7-15,15v482c0,8.3,6.7,15,15,15h391.2c8.3,0,15-6.7,15-15L421.5,154z M283.4,225c14.9,0,26.7,12.1,26.7,26.7
		c0,0.7,0,1.4-0.1,2.2l-9.3,117.7h-34.4l-9.6-117.7C255.5,238.3,267.8,225,283.4,225z M283.6,441.5c-16.3,0-27.1-11.8-27.1-27.4
		c0-16,11.2-27.4,27.1-27.4s26.5,11.5,26.8,27.4C310.4,429.8,299.8,441.5,283.6,441.5z"/>
</g>
</svg>
