<?xml version="1.0" encoding="utf-8"?>
<!-- Generator: Adobe Illustrator 21.1.0, SVG Export Plug-In . SVG Version: 6.00 Build 0)  -->
<svg version="1.1" id="Layer_2" xmlns="http://www.w3.org/2000/svg" xmlns:xlink="http://www.w3.org/1999/xlink" x="0px" y="0px"
	 viewBox="0 0 421.5 512" style="enable-background:new 0 0 421.5 512;" xml:space="preserve">
<g>
	<path id="fill-32" d="M421.5,154H277.6c-5.6,0-10.1-4.5-10.1-10.1V0h-20l-232,0c-8.3,0-15,6.7-15,15v482c0,8.3,6.7,15,15,15h391.3
		c8.3,0,15-6.7,15-15L421.5,154z M328.9,376.6c-23.2,23.2-59.2,26.1-85.5,8.6l-15.6,15.6l3.5,3.5l-33.4,33.4
		c-3.6,3.6-8.3,5.4-13,5.4c-4.7,0-9.4-1.8-13-5.4c-7.2-7.2-7.2-18.8,0-25.9l33.4-33.4l3.5,3.5l15.6-15.6
		c-17.5-26.4-14.7-62.3,8.6-85.5c26.5-26.5,69.5-26.5,96,0C355.4,307.2,355.4,350.2,328.9,376.6z M252.7,300.5
		c-15.6,15.6-15.6,40.8,0,56.4c15.6,15.6,40.8,15.6,56.4,0c15.6-15.6,15.6-40.8,0-56.4C293.5,284.9,268.3,284.9,252.7,300.5z
		 M299.5,0v111.9c0,5.6,4.5,10.1,10.1,10.1h111.9L299.5,0z"/>
</g>
</svg>
