<?xml version="1.0" encoding="utf-8"?>
<!-- Generator: Adobe Illustrator 21.1.0, SVG Export Plug-In . SVG Version: 6.00 Build 0)  -->
<svg version="1.1" id="Layer_2" xmlns="http://www.w3.org/2000/svg" xmlns:xlink="http://www.w3.org/1999/xlink" x="0px" y="0px"
	 viewBox="0 0 421.5 512" style="enable-background:new 0 0 421.5 512;" xml:space="preserve">
<g>
	<path id="fill-32" d="M421.5,154H277.6c-5.6,0-10.1-4.5-10.1-10.1V0l-252,0c-8.3,0-15,6.7-15,15v482c0,8.3,6.7,15,15,15h391.3
		c8.3,0,15-6.7,15-15L421.5,154z M268.7,230.1L144.3,410.9l-4.7-2.8l125-181L268.7,230.1z M262.3,225.7l-124.9,181l-3.9-2.7
		l124.4-181L262.3,225.7z M122.6,385.1l111.7-162.8c1.8-2.7,4.4-4.3,7.7-4.9c3-0.7,6.1-0.1,9.2,1.8l0.7,0.5l-123.5,180
		c-2-1.8-3.6-3.4-4.8-4.8c-1.2-1.4-2-3-2.4-5C120.8,388.1,121.3,386.5,122.6,385.1z M116.6,439.7l1.9-44.9c3.5,7,6.8,11.6,9.6,13.9
		l-0.5,4.1l-0.3,3.8c-0.3,3.4-0.5,5.8-0.4,7.3c1.8-0.7,4.3-1.8,7.5-3.2l3.7-1.7l3.6-1.9c3.3,2.2,8.6,3.7,15.9,4.3L116.6,439.7z
		 M161.8,416.5c-1.8,0.4-3.6,0.3-5.2-0.4c-1.7-0.7-3.8-1.7-6.2-3.1l123.3-178.9l1.3,0.4c2.6,1.9,4.2,4.4,4.9,7.5
		c0.6,3.2,0,6.2-1.7,8.8L165.9,413.7C165,415.2,163.6,416.1,161.8,416.5z M349.5,439.7H170l21.3-30.4h158.2V439.7z M299.5,0v111.9
		c0,5.6,4.5,10.1,10.1,10.1h111.9L299.5,0z"/>
</g>
</svg>
