<?xml version="1.0" encoding="utf-8"?>
<!-- Generator: Adobe Illustrator 21.1.0, SVG Export Plug-In . SVG Version: 6.00 Build 0)  -->
<svg version="1.1" id="Layer_2" xmlns="http://www.w3.org/2000/svg" xmlns:xlink="http://www.w3.org/1999/xlink" x="0px" y="0px"
	 viewBox="0 0 421.5 512" style="enable-background:new 0 0 421.5 512;" xml:space="preserve">
<g>
	<path id="fill-32" d="M299.5,0v111.9c0,5.6,4.5,10.1,10.1,10.1h111.9L299.5,0z"/>
	<path d="M275.7,294.2H228c-2.9,0-4.4,1.4-4.5,4.1v8H280v-8C280.2,295.5,278.8,294.2,275.7,294.2z M275.7,294.2H228
		c-2.9,0-4.4,1.4-4.5,4.1v8H280v-8C280.2,295.5,278.8,294.2,275.7,294.2z M421.5,154H277.6c-5.6,0-10.1-4.5-10.1-10.1V0h-20l-232,0
		c-8.3,0-15,6.7-15,15v482c0,8.3,6.7,15,15,15h391.3c8.3,0,15-6.7,15-15L421.5,154z M349.7,433c0,4.6-2.3,6.9-6.9,6.9H160.6
		c-4.6,0-6.9-2.3-6.9-6.9v-76.9h80.8c0,4.5,2.3,6.8,6.9,6.8h20.8c4.6,0,6.9-2.3,6.9-6.8h80.6V433z M241.4,352.7
		c0-2.3,1.1-3.5,3.4-3.5h13.9c2.4,0,3.5,1.2,3.5,3.5c0,2.3-1.2,3.4-3.5,3.4h-13.9C242.5,356.1,241.4,355,241.4,352.7z M349.7,349.2
		h-80.6c0-4.5-2.3-6.8-6.9-6.8h-20.8c-4.6,0-6.9,2.3-6.9,6.8h-80.8v-36c0-4.6,2.3-6.9,6.9-6.9h53.1l-0.1-14.9
		c0.5-3.8,2.7-5.7,6.5-5.7h63.5c3.8,0,6,1.9,6.5,5.6v15.1l52.7,0c4.6,0,6.9,2.3,6.9,6.9V349.2z M275.7,294.2H228
		c-2.9,0-4.4,1.4-4.5,4.1v8H280v-8C280.2,295.5,278.8,294.2,275.7,294.2z M275.7,294.2H228c-2.9,0-4.4,1.4-4.5,4.1v8H280v-8
		C280.2,295.5,278.8,294.2,275.7,294.2z M275.7,294.2H228c-2.9,0-4.4,1.4-4.5,4.1v8H280v-8C280.2,295.5,278.8,294.2,275.7,294.2z"/>
</g>
</svg>
