<?xml version="1.0" encoding="utf-8"?>
<!-- Generator: Adobe Illustrator 21.1.0, SVG Export Plug-In . SVG Version: 6.00 Build 0)  -->
<svg version="1.1" id="Layer_2" xmlns="http://www.w3.org/2000/svg" xmlns:xlink="http://www.w3.org/1999/xlink" x="0px" y="0px"
	 viewBox="0 0 421.5 512" style="enable-background:new 0 0 421.5 512;" xml:space="preserve">
<g>
	<path id="fill-32" d="M421.5,154H277.6c-5.6,0-10.1-4.5-10.1-10.1V0l-252,0c-8.3,0-15,6.7-15,15v482c0,8.3,6.7,15,15,15h391.3
		c8.3,0,15-6.7,15-15L421.5,154z M349.5,415c0,13.9-39.5,25.2-88.3,25.2S172.9,429,172.9,415v-25.4c0,13.9,39.5,25.2,88.3,25.2
		c48.8,0,88.3-11.3,88.3-25.2V415z M349.5,365.9c0,13.9-39.5,25.2-88.3,25.2s-88.3-11.3-88.3-25.2v-25.4c0,13.9,39.5,25.2,88.3,25.2
		c48.8,0,88.3-11.3,88.3-25.2V365.9z M349.5,316.8c0,13.9-39.5,25.2-88.3,25.2s-88.3-11.3-88.3-25.2v-25.4
		c0,13.9,39.5,25.2,88.3,25.2c48.8,0,88.3-11.3,88.3-25.2V316.8z M349.5,267.8c0,13.9-39.5,25.2-88.3,25.2s-88.3-11.3-88.3-25.2
		v-17.2c0-5,0-8.5,0-8.5c0.4-13.8,39.8-25,88.3-25c48.5,0,87.9,11.2,88.3,25C349.5,242.2,349.5,253.9,349.5,267.8z M299.5,0v111.9
		c0,5.6,4.5,10.1,10.1,10.1h111.9L299.5,0z"/>
</g>
</svg>
