<?xml version="1.0" encoding="utf-8"?>
<!-- Generator: Adobe Illustrator 21.1.0, SVG Export Plug-In . SVG Version: 6.00 Build 0)  -->
<svg version="1.1" id="Layer_2" xmlns="http://www.w3.org/2000/svg" xmlns:xlink="http://www.w3.org/1999/xlink" x="0px" y="0px"
	 viewBox="0 0 421.5 512" style="enable-background:new 0 0 421.5 512;" xml:space="preserve">
<g>
	<path id="fill-32" d="M299.5,0v111.9c0,5.6,4.5,10.1,10.1,10.1h111.9L299.5,0z M421.5,154H277.6c-5.6,0-10.1-4.5-10.1-10.1V0h-20
		l-232,0c-8.3,0-15,6.7-15,15v482c0,8.3,6.7,15,15,15h391.3c8.3,0,15-6.7,15-15L421.5,154z M236.6,423.2l-0.1,20.5l-58.7-58.2
		c0,0-38.8,0.5-40.4,0.5c-1.6,0-2.9-1.3-2.9-2.9v-61.5c0-1.7,1.2-2.9,2.9-2.9l40.4-0.2l58.7-57.8l0.1,20.1V423.2z M256.2,381.1
		c-3.9-3.8-2.7-9.3-0.7-11.7c3.1-4.9,13.3-4.8,13.3-17.1c0-12.1-9.6-12.1-13.3-16.8c-2-2.5-3.1-8.2,0.7-12c4.3-4.3,9.8-2.4,10.3-2.1
		c12.8,4.7,20.9,18.2,20.9,31c0,12.8-8.1,25.9-20.2,30.6C264.7,383.9,260.2,385,256.2,381.1z"/>
</g>
</svg>
