<?xml version="1.0" encoding="utf-8"?>
<!-- Generator: Adobe Illustrator 21.1.0, SVG Export Plug-In . SVG Version: 6.00 Build 0)  -->
<svg version="1.1" id="Layer_2" xmlns="http://www.w3.org/2000/svg" xmlns:xlink="http://www.w3.org/1999/xlink" x="0px" y="0px"
	 viewBox="0 0 421.5 512" style="enable-background:new 0 0 421.5 512;" xml:space="preserve">
<g>
	<path id="fill-32" d="M421.5,154H277.6c-5.6,0-10.1-4.5-10.1-10.1V0l-252,0c-8.3,0-15,6.7-15,15v482c0,8.3,6.7,15,15,15h391.3
		c8.3,0,15-6.7,15-15L421.5,154z M232.7,309l33.5,33.7l42.3-43l-24.1-24.5h65v67.1l-21.9-26.9l-60.9,61.9l-33.3-33.7l-48.7,49.4
		L167.3,375L232.7,309z M349.7,440.2H135.1V240.6h24.1v175.1h190.5V440.2z M299.5,0v111.9c0,5.6,4.5,10.1,10.1,10.1h111.9L299.5,0z"
		/>
</g>
</svg>
