<?xml version="1.0" encoding="utf-8"?>
<!-- Generator: Adobe Illustrator 21.1.0, SVG Export Plug-In . SVG Version: 6.00 Build 0)  -->
<svg version="1.1" id="Layer_1" xmlns="http://www.w3.org/2000/svg" xmlns:xlink="http://www.w3.org/1999/xlink" x="0px" y="0px"
	 viewBox="0 0 467 512" style="enable-background:new 0 0 467 512;" xml:space="preserve">
<path d="M414.9,52.1h-52V82h52V52.1z M414.9,113h-52v49h52V113z M414.9,194h-52v47h52V194z M414.9,272h-52v49h52V272z M414.9,352
	h-52v49h52V352z M414.9,431h-52v28.9h52V431z M312.7,52.1H155.1V241h157.8V52.1H312.7z M312.7,274H155.1v186.9h157.8V274H312.7z
	 M104.1,52.1h-52V82h52V52.1z M104.1,113h-52v49h52V113z M104.1,194h-52v47h52V194z M104.1,272h-52v49h52V272z M104.1,352h-52v49h52
	V352z M104.1,431h-52v28.9h52V431z M467,23.9v464.2c0,13.2-10.7,23.9-23.9,23.9H23.9C10.7,512,0,501.3,0,488.1V23.9
	C0,10.7,10.7,0,23.9,0h419.2C456.3,0,467,10.7,467,23.9z"/>
</svg>
