<?xml version="1.0" encoding="utf-8"?>
<!-- Generator: Adobe Illustrator 21.1.0, SVG Export Plug-In . SVG Version: 6.00 Build 0)  -->
<svg version="1.1" id="Layer_3" xmlns="http://www.w3.org/2000/svg" xmlns:xlink="http://www.w3.org/1999/xlink" x="0px" y="0px"
	 viewBox="0 0 489.1 512" style="enable-background:new 0 0 489.1 512;" xml:space="preserve">
<path d="M65.3,146.3L65.3,146.3l-0.1,0.1c-12.8,24.2-19.6,51.4-19.6,78.5v205.4c0,11.2-10.6,20.7-23.2,20.7
	c-12.2,0-22.2-9.3-22.2-20.7V225.8c0-34.1,8-66.6,23.7-96.4l0.1-0.3l0.1-0.2l0.1-0.2c3.2-7.6,10.7-12.1,20-12.1c3,0,6.1,0.9,8.8,1.7
	l0.3,0.1l1.2,0.4c5.7,2.5,9.9,6.7,11.9,12.1C68.5,136,68.1,141.3,65.3,146.3z M145.2,483.8L145.2,483.8l0,0.2
	c-1.2,5.4-4.8,9.9-10,12.8l-0.1,0l-0.1,0.1c-3.2,2-7.7,3-12.5,3c-8.3,0-15-3.3-19.3-9.4l-0.3-0.4l-0.2-0.2
	C85.2,463.9,76,434.4,76,404.6v-76.5c0-11.4,10.3-20.7,22.9-20.7c12.7,0,23,9.3,23,20.7v98.7c0,15.7,3.3,20.3,10.3,28.5
	c2.7,3.2,5.8,6.8,9.5,12.4l0.1,0.1l0.1,0.1C145.4,472.7,146.6,478.5,145.2,483.8z M342,426.9c0,23.1-9.2,40.9-27.4,52.8
	c-16.6,10.9-40.4,16.6-68.8,16.6c-53.1,0-96.2-40.7-96.2-90.7v-28c0-11.3,10-20.7,22.3-21c6.5,0,12.7,2.6,16.9,7.1
	c3.7,3.9,5.6,8.8,5.3,13.5l0,0.2v28.1c0,27.1,23.3,49.1,51.8,49.1c1.4,0,2.8,0,4.2,0c1.4,0,2.7,0,4,0c11,0,21.6-0.3,29.5-3.7
	c9.3-4.1,14.1-12.2,14.1-24.2v-1.6c0-11.4,9.9-20.7,22.1-20.7c12.2,0,22.1,9.3,22.1,20.7V426.9z M222.4,405.3V245.7
	c0-6.1,2.7-11.8,7.4-15.7l0,0l0,0c3.7-3.2,8.6-5.1,13.5-5.1h1.7c6,0.1,11.8,2.6,16,6.7c3.8,3.9,5.8,8.8,5.7,14v159.7
	c0,11.4-9.9,20.7-22.1,20.7S222.4,416.7,222.4,405.3z M342,358.2c0,11.4-10,20.7-22.3,20.8c-6.5,0-12.7-2.6-17-7.1
	c-3.7-3.9-5.6-8.8-5.3-13.7l0-0.2V245.5c0-27-23.2-49-51.8-49c-28.6,0-51.8,22-51.8,49.1v67.4c0,11.4-9.9,20.7-22.2,20.7
	s-22.2-9.3-22.2-20.7v-67.4c0-50,43.2-90.7,96.2-90.7c53.1,0,96.2,40.7,96.2,90.7V358.2z M347.8,170.1L347.8,170.1L347.8,170.1
	c-22.7-30.6-61.4-49.5-101.1-49.5c-69,0-125.1,53.4-125.1,119.1v26.2c0,11.4-9.9,20.7-22.2,20.7c-12.2,0-22.1-9.3-22.1-20.7
	l0.1-28.1c0-42.9,17.6-83.2,49.5-113.5c31.9-30.4,74.5-47.2,119.8-47.2c54.7,0,106.4,25.4,138.4,68l0.1,0.1c3.2,4,4.6,9,3.9,14.3
	c-0.8,6-4.2,11.6-9.4,15.4c-3.6,2.6-8.3,4.1-13.1,4.1c-0.9,0-1.8,0-2.7-0.1c-6-0.6-11.8-3.8-16-8.6L347.8,170.1z M416,416.5
	c0,29.7-8.9,59.3-25.7,85.7l-0.2,0.2c-4.4,6.1-11.1,9.5-18.8,9.5c-4.5,0-8.7-1-11.7-2.8l-0.2-0.2l-0.5-0.3c-5.1-3-8.4-7.4-9.7-12.8
	v0l0,0c-1.4-5.4-0.2-11.2,3.1-16l0-0.1l0-0.1c12.8-19.7,19.3-40.9,19.3-63.1V237.9c0-11.4,9.9-20.7,22.2-20.7
	c5.9,0,11.5,2.2,15.7,6.2c4.1,3.9,6.3,9,6.3,14.7V416.5z M489,404.6c0,11.4-9.9,20.7-22.1,20.7c-12.2,0-22.2-9.3-22.2-20.7v-66.9
	c0-11.4,9.9-20.7,22.2-20.7c5.9,0,11.7,2.3,15.8,6.1c4.2,4,6.3,9.1,6.3,14.6V404.6z M489.1,277.9c0,11.4-9.9,20.7-22.1,20.7
	c-12.2,0-22.1-9.3-22.1-20.7v-53.1c0-100.6-86.6-182.5-193-182.5h-12.9c-52.4,0-101.8,19.9-139.2,56.1l-0.1,0.1
	c-4.4,4.6-10,7-16.2,7.1H83c-6,0-11.9-2.2-16.6-6.1c-4.7-4-7.3-9.3-7.6-14.9c-0.1-5.5,2.3-11,6.5-15.1C110.8,24.7,171.7,0,236.9,0
	h13.8c131.4,0,238.4,100.8,238.4,224.8V277.9z"/>
</svg>
