<?xml version="1.0" encoding="utf-8"?>
<!-- Generator: Adobe Illustrator 21.1.0, SVG Export Plug-In . SVG Version: 6.00 Build 0)  -->
<svg version="1.1" id="Layer_2" xmlns="http://www.w3.org/2000/svg" xmlns:xlink="http://www.w3.org/1999/xlink" x="0px" y="0px"
	 viewBox="0 0 550.5 512" style="enable-background:new 0 0 550.5 512;" xml:space="preserve">
<g>
	<path d="M0,217.3v236.8c0,13.1,6.5,19.6,19.5,19.6H531c13,0,19.5-6.5,19.5-19.6V217.3H0z M350.5,367.3h-51.8V419h-44v-51.8h-51.8
		v-44h51.8v-51.8h44v51.8h51.8V367.3z M531,96.5H383.1V54c-1.5-10.4-7.5-15.7-18.2-15.7H186.5c-10.7,0-16.8,5.4-18.2,16.2l0.4,42
		H19.5C6.5,96.5,0,103,0,116.1v81.6h550.5v-81.6C550.5,103,544,96.5,531,96.5z M354.7,74v22.5H196.2V74c0.4-7.7,4.5-11.5,12.6-11.5
		h133.8C351.2,62.5,355.3,66.4,354.7,74z"/>
</g>
</svg>
