<?xml version="1.0" encoding="utf-8"?>
<!-- Generator: Adobe Illustrator 21.1.0, SVG Export Plug-In . SVG Version: 6.00 Build 0)  -->
<svg version="1.1" id="Layer_1" xmlns="http://www.w3.org/2000/svg" xmlns:xlink="http://www.w3.org/1999/xlink" x="0px" y="0px"
	 viewBox="0 0 512 512" style="enable-background:new 0 0 512 512;" xml:space="preserve">
<g id="fill">
	<path d="M485.9,232.6c-9.5-11.1-19.7-25-26.8-40.5c-1.9-6.3-4.2-12.4-6.7-18.2c-7.6-27.9-3.1-59,30.1-87.6
		c0,0-67.4,17.2-111.7,99.4C259.8,75.6,82.7,98.6,0,239.2c19.4,31.7,44.6,59.2,73.7,80.4c2.9,1.7,10.9,6.6,15.5,9.5
		c15.6,9.3,32,16.7,48.9,22c21.9,13.6,50.5,30.5,71.1,50.3l0.7-39.8c23.3-0.3,46.7-4.3,69.4-11.9c13.8,5.4,26.9,11.8,39.5,19.1
		c5.4-5.9,3.9-21.7,0.9-37c19.4-10.9,37.8-24.8,54.6-41.9c18.2,18.9,85,35.3,95.7,97.3c-0.6,5.1-1.7,9.3-3.2,11.9
		c0,0,20.3-20.3,35-51.2C520,309.8,513.4,264.7,485.9,232.6z M54.3,243.4c-7.8,0-15.5-7.4-15.5-15.9s7.8-15.9,15.5-15.9
		s15.5,7.4,15.5,15.9C69.9,237.1,62.1,243.4,54.3,243.4z"/>
	<path d="M265.7,110.1c2.9-12.7,4.8-24.3,5.8-37c-57.2-20.1-117.4,2.1-152.3,47.6C166.8,98.5,218.2,96.4,265.7,110.1z"/>
	<path d="M54.1,218.1c-5.2,0-9.4,4.1-9.4,9.2c0,5.1,4.2,9.2,9.4,9.2s9.4-4.1,9.4-9.2C63.6,222.3,59.3,218.1,54.1,218.1z"/>
</g>
</svg>
