<?xml version="1.0" encoding="utf-8"?>
<!-- Generator: Adobe Illustrator 21.1.0, SVG Export Plug-In . SVG Version: 6.00 Build 0)  -->
<svg version="1.1" id="Layer_2" xmlns="http://www.w3.org/2000/svg" xmlns:xlink="http://www.w3.org/1999/xlink" x="0px" y="0px"
	 viewBox="0 0 512 512" style="enable-background:new 0 0 512 512;" xml:space="preserve">
<style type="text/css">
	.st0{fill-rule:evenodd;clip-rule:evenodd;}
</style>
<g>
	<g>
		<path class="st0" d="M424.3,426c-17.5,0-19.3,16.8-39.9,16.8c-19.7,0-40.5-16.8-61.8-16.8c-19.6,0-39.6,16.8-59.6,16.8
			c-18.9,0-41.1-16.8-59.6-16.8c-21.3,0-38.8,16.8-58.5,16.8c-22.1,0-42.8-16.8-61.2-16.8c-20.4,0-34.8,16.8-48.5,16.8
			c-20.1,0-35.3-8.4-35.3-8.4v69.2c0,0,13.6,8.4,31.4,8.4c14.5,0,30.7-16.8,53.5-16.8c18.2,0,38.5,16.8,60.1,16.8
			c19,0,39-16.8,59.6-16.8c18.8,0,38.1,16.8,57.4,16.8c20,0,40-16.8,59.6-16.8c21.1,0,41.7,16.8,61.2,16.8c19.2,0,20-16.8,36.6-16.8
			c26.2,0,48.4,16.8,64.5,16.8c17.8,0,28.1-8.4,28.1-8.4v-69.2c0,0-10.8,8.4-29.2,8.4C467.8,442.8,447.8,426,424.3,426z
			 M482.8,323.6c-1.4,0-2.9-0.1-4.4-0.4L457.9,94.4c0-1.3,0.5-7.3,0-8.2c0,0,0,0,0,0c-0.2-1.5-8.7-59.3-101.4-32.4
			c-50.2,14.6-91.2,60.7-103.3,75.8c-4,5-6.1,12.9-6.1,12.9c-0.5,1.6-0.8,3.3-0.8,5.1c0,3.2,0.8,6.2,2.2,8.8
			c-2.7,3.7-5.3,7.4-7.7,11c-1.9-0.7-4.2-1.1-6.8-1.3c-20-1.3-54.1-6.7-57.1-8.2c-26.8-13.8-62.8-49-87.7-49.3
			c-19.1-0.3-31.8,10.8-38.7,28.8c-11,28.7-9.7,73.3-8.7,91L0,227.3l66.4,83.3c-11.9,5-21.6,12.9-31.1,12.9
			c-20.1,0-35.3-8.4-35.3-8.4v69.2c0,0,13.7,8.4,31.4,8.4c14.5,0,30.7-16.8,53.5-16.8c18.2,0,38.5,16.8,60.1,16.8
			c19,0,39-16.8,59.6-16.8c18.8,0,38.1,16.8,57.4,16.8c20,0,40-16.8,59.6-16.8c21.1,0,41.7,16.8,61.2,16.8
			c19.2,0,19.9-16.8,36.6-16.8c26.2,0,48.4,16.8,64.5,16.8c17.8,0,28.1-8.4,28.1-8.4v-69.2C512,315.2,501.2,323.6,482.8,323.6z
			 M356.1,59.2c82.6-23.4,95.3,12.2,97.3,23.7c-2-0.7-3.7-0.8-3.7-0.8s-36.6-11.8-81.3-11.8c-36.5,0-71.2,27.9-98.7,59.6
			c-1.6-0.5-3.3-0.7-5-0.7c-3.1,0-6.1,0.8-8.7,2.2C264.2,121.2,304.4,73.8,356.1,59.2z M424.3,306.8c-17.3,0-19.3,16.6-39.5,16.8
			l36.6-85.6l-294.3-7.4c-2.3-7-7.3-19.6-7.2-31.5c0.1-14.3,10.6-27.8,12.2-28.8c2-1.1,17.2,11.4,40.8,16.4
			c17.4,3.7,38.2,4.7,52.5,4.8c-10.1,16.6-15.8,28.1-15.8,28.1h12.2c0,0,5.5-11.7,15.3-28.3c2.8-0.1,4.6-0.3,5.1-0.5
			c7.2-2.6,10.3-11.4,6.2-17.7c2.1-3.2,4.3-6.4,6.6-9.7c2.8,1.8,6.1,2.8,9.6,2.8c10.1,0,18.4-8.3,18.4-18.5c0-5.2-2.1-9.9-5.6-13.3
			c24.9-28.7,56.5-53.6,90.9-53.6c44.5,0,81.3,13.5,81.3,13.5s2.2,1.5,4.3,2.2l20.2,225.6C460.5,318.1,443.5,306.8,424.3,306.8z
			 M132.2,104.5c24.8,0,44.9-20.2,44.9-45.2c0-25-20.1-45.2-44.9-45.2c-24.8,0-44.9,20.2-44.9,45.2
			C87.3,84.3,107.4,104.5,132.2,104.5z"/>
	</g>
</g>
</svg>
