<?xml version="1.0" encoding="utf-8"?>
<!-- Generator: Adobe Illustrator 21.1.0, SVG Export Plug-In . SVG Version: 6.00 Build 0)  -->
<svg version="1.1" id="Layer_2" xmlns="http://www.w3.org/2000/svg" xmlns:xlink="http://www.w3.org/1999/xlink" x="0px" y="0px"
	 viewBox="0 0 557.8 512" style="enable-background:new 0 0 557.8 512;" xml:space="preserve">
<path d="M551.8,97.2l-0.5-0.5l-0.9-0.6c-2.9-1.9-6.3-3.2-10.3-3.8h-0.4c-1.5-0.2-2.9-0.2-4.3-0.1c-3.2,0.1-6.3,0.8-9.1,2
	c-34.3,13.3-65.4,22.3-92.5,26.8c-3.8,0.6-7.6,1.2-11.3,1.6c-5.5,0.5-10.4,1.1-15.2,1.6c-9.2,1.1-17.2,2-24.6,2
	c-7.1,0-13.3-0.9-19.6-2.7c-15-4.4-38-17.4-52.4-29.8c-14.3-12-29.9-31.3-35.4-38.3l-13.7-15.8c-4.9-5.6-29.3-32.2-58.2-37
	c-1.3-0.2-2.6-0.4-3.9-0.6c-3.4-0.5-7-0.7-10.7-0.7c-14.7,0-30.5,3.4-46.9,10.1c-5.9,2.2-12.3,5-19.1,8.3
	c-20.4,9.9-44.4,24.4-68.6,41.6l-0.8,0.3c0,0-1-1.2-5.6-1.2c-4.4,0-12.2,1.1-25.5,5.4c-4.2,1.3-7.6,2.6-10.3,3.8
	c-2.1,0.9-3.8,1.7-5.2,2.4C-0.5,75.9,0,78.2,0,78.2l114.5,433.6H174l0,0h0.1L114.6,287c11.4-3.4,82.1-21.6,90.9-24
	c18-5,25.8-6.7,31-6.7c2.8,0,5.3,0.4,9.6,1.2h0.2c0.9,0.2,1.9,0.3,3,0.5c9.2,1.5,19.7,6.2,31.9,14.4l0.2,0.1
	c5.4,3.5,10.8,7.6,16.1,11.5c15.7,11.8,32,24.1,53.1,25.4c1.1,0.1,2.3,0.1,3.4,0.1c10.7,0,22.2-3.5,40.5-12.8
	c7.1-3.7,15.3-8.3,24.9-13.9l2.1-1.6c28.9-27.1,64.9-64.9,131.8-156.9l0.4-0.5c2.7-4.2,4.1-8.5,4.1-12.8
	C558,105.7,555.8,100.8,551.8,97.2z M38,68.5c-2.1,1.4-5.9,3-10.2,4.2c-7,2.1-13.1,2.6-13.5,1.2c-0.3-1.4,5-4.3,12-6.3
	c4.4-1.3,8.4-2,10.8-2c1.5,0,2.5,0.3,2.6,0.8C39.9,67,39.2,67.7,38,68.5z M424,204.2l-9.4,2.4l1.6,6.2
	c-9.8,10.6-18.4,19.2-26.4,26.8l-6.4-25.1l-22.5,5.8l-7.8,2l7.7,30.1h0.1l0,0l11.9-3c-3.9,2.1-7.3,3.8-10.3,5.1
	c-0.5,0.2-1,0.4-1.5,0.6l-0.5-2l-11.7,3c-5.6-2.6-12.9-8.2-20.1-13.6l-0.2-0.2c-1.4-1-2.9-2.2-4.4-3.3l-2.2-8.8l-7.3,1.9
	c-1.7-1.1-3.3-2.2-5.1-3.3c-8.3-5.5-16.3-10-24.1-13.6l-2-7.9l-11.1,2.8c-4.9-1.6-9.8-2.8-14.6-3.6l-0.8-0.1
	c-0.6-0.1-1.1-0.2-1.6-0.3l-0.9-0.2h-0.3c-1.3-0.2-2.7-0.5-4-0.7l-5.3-20.8h-0.1v-0.1l-30.1,7.8l3.6,13.9
	c-7.4,1.4-15.8,3.6-26.8,6.7c-0.8,0.2-2.4,0.7-4.5,1.2l-3.5-13.9l-30.2,7.7l3.6,14.1c-11.9,3.1-22.4,5.9-31.2,8.2l-3.6-14l-24.5,6.3
	L89.3,191l24.8-6.3l-7.7-30.2l-25,6.4l-8.2-31.2l25.3-6.5l-6.4-24.9c5.3-3.6,10.5-7.1,15.7-10.4l13.4-3.4l-1.1-4.2
	c10.6-6.3,20.5-11.6,29.3-15.7l3,11.8l30.2-7.6v-0.1l0,0l-3.7-14.4c3.5-0.7,6.8-1,9.9-1c2,0,4,0.2,5.6,0.4h0.4
	c3.8,0.6,9.7,4,15.6,8.6l-27.1,6.9l7.7,30.2l30.2-7.7l-6.6-25.9c2.7,2.4,5.3,5,7.6,7.6l12.9,14.9c0.1,0.1,0.1,0.1,0.2,0.2L221.9,92
	v0.1l0,0l7.7,30.2l28.5-7.3c1,1.1,2.1,2.2,3.2,3.3l6.8,26.8l18.2-4.6c5.1,3.8,10.5,7.5,16.1,10.9l4.2,16.6l17.6-4.5
	c5.4,2.6,10.8,4.9,15.8,6.8l5.2,20.4l30.1-7.6V183h0.1l-1.4-5.3c2.8,0.2,5.7,0.3,8.6,0.3c6.6,0,13-0.5,19.4-1.1l-26.1,6.7l7.7,30.2
	h0.1l0,0l30.2-7.7l-7.5-29.6c2.1-0.2,4.3-0.5,6.5-0.7h0.3c4.2-0.5,9-1,14.1-1.5l0.7-0.1l0.7-0.1c3.3-0.4,6.6-0.9,10-1.4l2.9,11.2
	C435.3,191.3,429.4,198,424,204.2z M314.6,199.3l7.7,30.2l30.2-7.7l-7.7-30.2L314.6,199.3z M306.2,168.9v-0.1l-30.2,7.7l7.7,30.2
	h0.1l0,0L314,199L306.2,168.9L306.2,168.9z M267.6,145.9L267.6,145.9l-30.1,7.7l7.7,30.2l30.1-7.7L267.6,145.9L267.6,145.9z
	 M198.9,130.7l7.7,30.1h0.1l0,0l30.2-7.7l-7.8-30.1L198.9,130.7z M176.1,169.3l7.7,30.2l30.2-7.7l-7.7-30.2L176.1,169.3z
	 M198.3,130.3l-7.7-30.1l-30.1,7.7l7.6,30.1L198.3,130.3z M137.5,146.3l7.7,30.2l30.2-7.7l-7.7-30.2L137.5,146.3z M159.7,107.5
	L159.7,107.5L159.7,107.5L152,77.3L121.9,85l7.7,30.2L159.7,107.5z M144.9,177.2l-30.2,7.7v0.1h-0.1l7.7,30.2l30.2-7.7v-0.1h0.1
	L144.9,177.2z M129.1,115.8L99,123.5l7.7,30.2l30.2-7.7L129.1,115.8z"/>
</svg>
