<?xml version="1.0" encoding="utf-8"?>
<!-- Generator: Adobe Illustrator 21.1.0, SVG Export Plug-In . SVG Version: 6.00 Build 0)  -->
<svg version="1.1" id="Layer_2" xmlns="http://www.w3.org/2000/svg" xmlns:xlink="http://www.w3.org/1999/xlink" x="0px" y="0px"
	 viewBox="0 0 557.8 512" style="enable-background:new 0 0 557.8 512;" xml:space="preserve">
<path d="M551.8,97.2l-0.5-0.5l-0.9-0.6c-2.9-1.9-6.3-3.2-10.3-3.8h-0.4c-4.6-0.5-9.1,0.1-13.1,1.8c-39.3,15.2-74.4,24.8-104.1,28.5
	c-5.5,0.5-10.4,1.1-15.2,1.6c-9.2,1.1-17.2,2-24.6,2c-7.1,0-13.3-0.9-19.6-2.7c-15-4.4-38-17.4-52.4-29.8
	c-14.3-12-29.9-31.3-35.4-38.3l-13.7-15.8c-4.9-5.6-29.3-32.2-58.2-37c-4.6-0.8-9.6-1.2-14.7-1.2c-14.7,0-30.5,3.4-46.9,10.1
	c-23.4,8.8-55.3,27-87.6,49.9l-0.9,0.3c0,0-3.9-4.6-31.1,4.2C-1,73.3,0.1,78.2,0.1,78.2l114.5,433.6h59.5L114.6,287
	c11.1-3.3,82.2-21.6,91-24c18-5,25.8-6.7,31-6.7c2.8,0,5.3,0.4,9.6,1.2h0.2c0.9,0.2,1.9,0.3,3,0.5c9.2,1.5,19.7,6.2,31.9,14.4
	l0.2,0.1c5.4,3.5,10.8,7.6,16.1,11.5c15.7,11.8,32,24.1,53.1,25.4c1.1,0.1,2.3,0.1,3.4,0.1c14.9,0,31.3-6.7,65.3-26.7l2.1-1.6
	c28.9-27.1,64.9-64.9,131.8-156.9l0.4-0.5c2.7-4.2,4.1-8.5,4.1-12.8C558,105.7,555.8,100.8,551.8,97.2z M27.8,72.8
	c-7,2.1-13.1,2.6-13.5,1.2c-0.4-1.4,4.9-4.3,12-6.3c7-2.1,13.1-2.6,13.5-1.2S34.8,70.8,27.8,72.8z"/>
</svg>
