<?xml version="1.0" encoding="utf-8"?>
<!-- Generator: Adobe Illustrator 21.1.0, SVG Export Plug-In . SVG Version: 6.00 Build 0)  -->
<svg version="1.1" id="Layer_1" xmlns="http://www.w3.org/2000/svg" xmlns:xlink="http://www.w3.org/1999/xlink" x="0px" y="0px"
	 viewBox="0 0 545.2 512" style="enable-background:new 0 0 545.2 512;" xml:space="preserve">
<path d="M364.3,1l-0.6-0.4c-0.8-0.7-1.5-0.5-2.2,0.2c-0.4,0.4-0.8,0.9-1.2,1.6c-11,18.3-25.4,35.7-42.2,52.5
	c-74.8,74.8-196.7,137.7-270.7,211.8C28,285.9,12,305.9,0.9,327.1c54.8,63.6,180,184.7,180.4,184.3c7.5-9.7,15.3-19,23.2-27.9
	s15.9-17.4,24.1-25.6c95.2-95.2,206-142.5,269.8-206.3c21.6-21.6,37.8-45,46.3-72.9C481.9,121.6,427,58,364.3,1z M217.5,420.8
	c-0.4,0.6-7.1,7.3-7.5,7.6c-3.8,3.6-8,6.7-12.5,8.9L177.4,414c4.4-0.7,8.5-2.7,12-6.2c8.9-8.9,8.5-21.8,0.6-31.4
	c-4.9-6.2-18.2-21.8-26.2-32.2l-14.2,14.2L134.1,342l15.6-15.6l-10-12.7c-14.3-18.4-16.7-48.7,0.2-65.6c3.8-3.8,10.5-9.4,15.1-11.6
	l18.7,21.4c-2.4,1.1-4.7,2.7-6.7,4.7c-4.5,4.3-6.7,10.2-6.7,16c0,4.4,1.3,8.7,3.8,12.4l9.1,11.5l19.1-19.1l15.5,16.5l-20.5,20.5
	l26.5,32.9C230.1,372.3,234.6,402.7,217.5,420.8z M296.8,161.4c27.9-20.2,54.9-41.2,78.9-63.4l23.2,23.2
	c-21.5,20.2-49.5,39.6-81.4,60.9L296.8,161.4z M382.2,246.9l-20.7-20.7c27.9-20.2,54.9-41.2,78.9-63.4l23.2,23.2
	C442.1,206.3,414.2,225.6,382.2,246.9z"/>
</svg>
