<?xml version="1.0" encoding="utf-8"?>
<!-- Generator: Adobe Illustrator 21.1.0, SVG Export Plug-In . SVG Version: 6.00 Build 0)  -->
<svg version="1.1" id="Layer_1" xmlns="http://www.w3.org/2000/svg" xmlns:xlink="http://www.w3.org/1999/xlink" x="0px" y="0px"
	 viewBox="0 0 323.8 512" style="enable-background:new 0 0 323.8 512;" xml:space="preserve">
<style type="text/css">
	.st0{fill:#010101;}
</style>
<path class="st0" d="M294.8,85c8.2,0,16.3,1.5,23.4,4.1l5.6-82.1C310,2.2,284.8,0,269.2,0c-69.1,0-126.2,66.8-134.4,133.7l-5.6,46.4
	H65.3l-1.9,65l57.9,0c-4.8,37.5-9.7,96.5-12.3,119.2c-3.3,36-29,63.1-65.3,63.1c-14.1,0-26.7-4.5-37.1-11.9L0,504.6
	c13.7,4.8,28.6,7.1,43.8,7.4c1.5,0,29,0,30.8-0.4c72-2.2,124.8-73.5,130.3-145.9l13-121.4l83.9,0l2.2-65.3h-78l4.8-42
	C236.5,107.7,263.2,84.7,294.8,85z"/>
</svg>
