<?xml version="1.0" encoding="utf-8"?>
<!-- Generator: Adobe Illustrator 21.1.0, SVG Export Plug-In . SVG Version: 6.00 Build 0)  -->
<svg version="1.1" id="Layer_1" focusable="false" xmlns="http://www.w3.org/2000/svg" xmlns:xlink="http://www.w3.org/1999/xlink"
	 x="0px" y="0px" viewBox="0 0 512 512" style="enable-background:new 0 0 512 512;" xml:space="preserve">
<g>
	<path d="M445.1,124.5c-4.5-1.1-9.1-1.8-14-2.1c-21.7-1.6-38.4,8.7-39.4,9.3c0.9-0.9,12.9-13.5,38.4-14.2c4.3-0.2,8.5,0.1,12.7,0.7
		c-15.9-67.7-77.1-118-150.2-118c-44.4,0-84.3,18.5-112.4,48.1c7,1.7,14.1,4.5,19.9,9.6c13.2,11.4,12.8,26.2,12.8,26.2
		s-3.3-15-15.7-22.9c-10-6.3-20.6-7.8-28.8-7.6h-0.1c-3.8,0.2-7.6,0.6-11.2,1.2l0,0c-1.8,0.4-2.8,0.7-2.8,0.7v-0.2
		c-30.2,6.2-55.3,27.6-67.5,56.4c7.9-0.1,16.7,1,24.5,4.6c17.9,8.3,23.3,26.5,23.4,27c-0.4-0.5-9.1-13.5-26.7-20.2
		c-7.7-2.9-16.1-3.8-24.1-3.5c-0.1,0.2-0.1,0.3-0.2,0.5c-47.5,9-83.6,52.8-83.6,105.1C0.2,284,46,331.9,102.6,331.9l307.1,0.1
		c28.3,0,53.9-12,72.4-31.5c18.5-19.3,30-46.1,30-75.7C512,178.8,484.1,139.5,445.1,124.5z"/>
	<path d="M-0.2,370H276v52H-0.2V370z M443.3,512H36.1v-52h407.2V512z M512,422H346.9v-52H512V422z"/>
</g>
</svg>
