<?xml version="1.0" encoding="utf-8"?>
<!-- Generator: Adobe Illustrator 21.1.0, SVG Export Plug-In . SVG Version: 6.00 Build 0)  -->
<svg version="1.1" id="Layer_1" xmlns="http://www.w3.org/2000/svg" xmlns:xlink="http://www.w3.org/1999/xlink" x="0px" y="0px"
	 viewBox="0 0 521.6 512" style="enable-background:new 0 0 521.6 512;" xml:space="preserve">
<path d="M0,487.1C0,498.4,8.5,511,24,511h475.7c15.3,0,21.9-14.4,21.9-23.9V272.2H0V487.1z M498.7,161.7c-6.7,0-188.8,0-188.8,0
	c-9.2,0-16.4-0.7-24.9-7c-18-13.3-45-33-81-59.2c-7.2-5.7-15.3-8.5-24.5-8.5H67.8c-23.1,0-35.9,17.9-35.8,35.9v38.8c0,0-4.9,0-8,0
	C10.5,161.7,0,172.3,0,185.6v55.5h521.5v-55.5C521.5,172.3,511.2,161.7,498.7,161.7z"/>
<polygon points="390,47.1 390,84.4 521.5,84.4 521.5,47.1 "/>
</svg>
