<?xml version="1.0" encoding="utf-8"?>
<!-- Generator: Adobe Illustrator 21.1.0, SVG Export Plug-In . SVG Version: 6.00 Build 0)  -->
<svg version="1.1" id="Layer_1" xmlns="http://www.w3.org/2000/svg" xmlns:xlink="http://www.w3.org/1999/xlink" x="0px" y="0px"
	 viewBox="0 0 521.4 512" style="enable-background:new 0 0 521.4 512;" xml:space="preserve">
<g>
	<polygon points="521.8,61.1 460.6,61.1 460.6,0 423.3,0 423.3,61.1 362.2,61.1 362.2,98.4 423.3,98.4 423.3,159.6 460.6,159.6 
		460.6,98.4 521.8,98.4 	"/>
	<path d="M60.6,106.9c20.7,0,99.8-0.1,99.8-0.1c3.9,0,7.7,0.6,11.4,1.8c3.9,1.5,7.3,3.2,10,5.4l72.5,52.6c3.3,2.1,6.8,3.9,10.5,5.4
		c3.9,1.2,7.7,1.8,11.4,1.8l163,0.1c11.2,0,20.5,9.5,20.5,20.5v50l28.2,0.3c26.9,0,37,20.1,32.3,39.7c-3.1,16.6-43,185-45.3,196
		S453.1,512,421.2,512s-399.8,0-399.8,0C7.7,512,0,500.7,0,490.6c0,0,0-293.4,0-295.3c0-11.9,9.4-21.4,21.4-21.4c1,0,7.2,0,7.2,0
		c0-3.9,0-18.7,0-34.8S40,106.9,60.6,106.9z M57.1,144.4c0,0.8,0,57.1,0,57.1s-12.4,0-20.5,0c-4.8,0-8.1,6.3-8.1,9
		c0,25.5,0,33.9,0,33.9h402.6c0,0,0-32.3,0-33c0-6.1-4.1-9-10.7-9c-0.5,0-148.4,0-148.4,0c-7.8,0-22.6-3.3-34.8-12.5
		c-7.7-5.8-66.4-49.6-66.4-49.6c-3.6-2.3-6.3-4.7-10.5-4l-95.3,0.1C59.9,136.3,57.1,139.6,57.1,144.4z"/>
</g>
</svg>
