<?xml version="1.0" encoding="utf-8"?>
<!-- Generator: Adobe Illustrator 21.1.0, SVG Export Plug-In . SVG Version: 6.00 Build 0)  -->
<svg version="1.1" id="Layer_1" xmlns="http://www.w3.org/2000/svg" xmlns:xlink="http://www.w3.org/1999/xlink" x="0px" y="0px"
	 viewBox="0 0 492.8 512" style="enable-background:new 0 0 492.8 512;" xml:space="preserve">
<path d="M449.8,458.6c-5.5-4.5-9.9-10.3-13.3-17.4c-0.4-0.8-0.7-1.7-1.2-2.6c-3.2-7.3-7.1-18.7-11.5-33.9L310.8,21H187L75.2,404.7
	c-0.4,1.3-0.7,2.6-1.1,3.9c-5,12.9-9.7,23-14.1,30.4c-5.2,8.7-11.1,15.5-17.4,20.6c-6.4,5-13.8,8-22.2,8.9V491H214v-22.6
	c-11.8-1.4-20.5-4.7-26.1-9.9c-5.6-5.2-8.4-12.7-8.4-22.3c0-7.1,0.8-15,2.4-23.6c1.6-8.6,4.2-19.6,7.8-32.9l9.2-33.6h100.6l9.3,33.6
	c3.7,13.2,6.2,24.2,7.9,32.9c1.6,8.7,2.4,16.5,2.4,23.6c0,9.6-2.8,17-8.5,22.3c-5.7,5.2-14.5,8.5-26.3,9.9V491H473v-22.6
	C462.9,466.3,455.2,463.1,449.8,458.6z M208.4,306l40.2-143.1L289.2,306H208.4z"/>
</svg>
