<?xml version="1.0" encoding="utf-8"?>
<!-- Generator: Adobe Illustrator 21.1.0, SVG Export Plug-In . SVG Version: 6.00 Build 0)  -->
<svg version="1.1" id="Layer_2" xmlns="http://www.w3.org/2000/svg" xmlns:xlink="http://www.w3.org/1999/xlink" x="0px" y="0px"
	 viewBox="0 0 512 512" style="enable-background:new 0 0 512 512;" xml:space="preserve">
<g>
	<g>
		<path d="M3.2,340.6c-8,60.1-1.6,114.7,25.9,142.3c28.1,28.1,84.5,34.2,146,25.4c-35.8-31.1-71.7-64.6-107.2-100
			C45.5,385.8,23.9,363.2,3.2,340.6z"/>
	</g>
	<g>
		<path d="M306.9,9.1C233.9,24.6,158.7,58.3,118,99l-18.6,18.6c-39.7,39.7-72.9,111.8-89,182.9c25.1,28.5,51.8,57,80,85.2
			c41.6,41.6,83.9,80,125.8,114.7c69.5-16.5,139.3-49.1,178.1-87.9L413,394c39.8-39.8,72.9-112.6,88.8-184.1l0,0
			c-34.1-41-71.7-82.3-112.4-123C362.1,59.5,334.5,33.5,306.9,9.1z M367.3,191.7c-6.2,6.2-16.3,6.2-22.5,0l-1-1l-20.5,20.5l6.5,6.5
			c3.1,3.1,4.7,7.2,4.7,11.2c0,4.1-1.5,8.1-4.7,11.2c-6.2,6.2-16.3,6.2-22.5,0l-6.5-6.5l-20.4,20.4l9.7,9.7
			c3.1,3.1,4.7,7.2,4.7,11.2c0,4.1-1.6,8.1-4.7,11.3c-6.2,6.2-16.3,6.2-22.5,0l-9.7-9.7l-20,20l6.5,6.5c3.1,3.1,4.7,7.2,4.7,11.2
			c0,4.1-1.5,8.1-4.7,11.2c-6.2,6.2-16.3,6.2-22.5,0l-6.5-6.5l-21,21l1,1c3.1,3.1,4.7,7.2,4.7,11.2c0,4.1-1.6,8.1-4.7,11.3
			c-6.2,6.2-16.3,6.2-22.5,0l-24.5-24.5c-3.1-3.1-4.7-7.2-4.7-11.2c0-4.1,1.6-8.1,4.7-11.3c6.2-6.2,16.3-6.2,22.5,0l1,1l21-21
			l-6.5-6.5c-3.1-3.1-4.7-7.2-4.7-11.2c0-4.1,1.6-8.1,4.7-11.2c6.2-6.2,16.3-6.2,22.5,0l6.5,6.5l20-20l-9.7-9.7
			c-3.1-3.1-4.7-7.2-4.7-11.2c0-4.1,1.5-8.1,4.7-11.2c6.2-6.2,16.3-6.2,22.5,0l9.7,9.7l20.4-20.4l-6.5-6.5
			c-3.1-3.1-4.7-7.2-4.7-11.2c0-4.1,1.6-8.1,4.7-11.3c6.2-6.2,16.3-6.2,22.5,0l6.5,6.5l20.5-20.5l-1-1c-6.2-6.2-6.2-16.3,0-22.5
			c6.2-6.2,16.3-6.2,22.5,0l24.5,24.5c3.1,3.1,4.7,7.2,4.7,11.2C372,184.5,370.4,188.6,367.3,191.7z"/>
	</g>
	<g>
		<path d="M483.3,28.7C457,2.5,405.2-4.3,347.4,2.4c21.6,19.8,43.1,40.5,64.5,61.8c34.4,34.4,66.9,69.2,97.2,103.9
			C516.5,109,510.1,55.5,483.3,28.7z"/>
	</g>
</g>
</svg>
