<?xml version="1.0" encoding="utf-8"?>
<!-- Generator: Adobe Illustrator 21.1.0, SVG Export Plug-In . SVG Version: 6.00 Build 0)  -->
<svg version="1.1" id="Layer_3" xmlns="http://www.w3.org/2000/svg" xmlns:xlink="http://www.w3.org/1999/xlink" x="0px" y="0px"
	 viewBox="0 0 512 512" style="enable-background:new 0 0 512 512;" xml:space="preserve">
<g>
	<path d="M54.3,98.8C26.4,134.3,7.8,177.4,2,224.5l17.7-8c-0.2-0.4-0.3-0.7-0.5-1.1c0.5-2.4,13.7-74.1,43.2-105.3L54.3,98.8z"/>
	<path d="M508.1,303.7c-0.4,1.1-1.9,19.5-11.8,27.9c1,14.5-5.1,24.9-6,27.9C497.3,352,507.8,320.7,508.1,303.7z"/>
	<path d="M90.3,313c-17.5-14.9-40.8-44.1-58.4-72.9c-2.8-4.6-5.5-9.2-8-13.8c-0.2,0.1-0.5,0.2-0.9,0.4c-4.3,2.1-20.6,9.5-22.7,10.3
		c-3.2,62.8,14.1,128.8,56.7,180.8c2-0.7,34.2-15.8,38.5-18.2C92,386.4,86.9,337,90.3,313z M172.7,95.7c0,0-47.4,1.7-81.1,14.1
		c-7.9,2.9-15,6.4-20.5,10.5c-26.3,27-38.1,91-38.5,93.1c3.2,6.8,8.4,16.2,14.9,26.6c13.5,21.3,32.6,46.7,51.5,62.2
		c11.6-0.6,80.5-17.1,84.5-18.2c2.2-9.2,39.6-118.8,39.6-118.8L172.7,95.7z M195.2,450c-16-0.8-78.2-26.1-91-39.6
		c-1.3,0.6-35.8,17.3-37.5,18.2c50.3,51,103.2,80.3,183,83.5C243.1,506.4,214.1,482.8,195.2,450z M231.6,1.5
		C164.7,5.8,94.1,47.1,61.4,90.3c1.2,2,7.4,10.7,9.5,13.6c0.1,0.1,0.1,0.2,0.2,0.3c5-2.6,12.1-5.5,20.5-8.3
		c23.3-7.7,56.8-14.7,84.3-14.2c11.2-11.5,48.1-46.3,66.4-54.6C241.2,24.1,233.1,4.7,231.6,1.5z M325.6,10
		c-42.5-11.8-80.3-9.7-80.3-9.7s8.9,24.4,10.8,24.7c33.2,2.9,65.4,16.4,86.7,29.9c8.6-3.6,59.9-8.6,59.9-8.6S370.5,22.4,325.6,10z
		 M335.4,152.6c-13.4-1.5-86,10.6-98.4,17c-3.2,7-40.7,118.8-40.7,118.8l63.2,77.1c0,0,82.4-4.2,124.1-23.6
		c9.3-12.3,30.4-78.5,33.1-86.7C403.8,228.4,357.2,169.6,335.4,152.6z M384.6,356.9c-15.8,8-80.9,21.2-125.2,22.5
		c-3.2,4.5-48.7,62.3-51.4,66.4c7.2,15.6,33.1,44,58.8,62.1c12.4,0.6,54.7-2.9,94.2-18.2c6.8-5.9,53.2-35.6,63.2-88.8
		C422.3,398.4,387,359,384.6,356.9z M437,405.1c-5,27.2-19.6,47.3-23.6,52.5c22-11.4,66.1-65.1,76-96.3
		C487.9,363,467.4,393.3,437,405.1z M492.7,157.8C481.9,128.2,445,77.1,421,60.5c-10.2-2-57.8,3-69.6,7.5
		c-0.2,2.9-6.3,71.5-6.4,74.9c27.4,22,65,73.1,80.3,99.5c4.1,0,56.1-3.2,61-3.2C493,222.3,495.8,176.2,492.7,157.8z M507.7,204.9
		c-0.4-1.6-7.1,36.4-9.7,43.9c7.1,15.2,9.8,48.4,10.7,52.5C513.2,275.9,513.1,230.5,507.7,204.9z"/>
</g>
</svg>
