<?xml version="1.0" encoding="utf-8"?>
<!-- Generator: Adobe Illustrator 21.1.0, SVG Export Plug-In . SVG Version: 6.00 Build 0)  -->
<svg version="1.1" id="Layer_2" xmlns="http://www.w3.org/2000/svg" xmlns:xlink="http://www.w3.org/1999/xlink" x="0px" y="0px"
	 viewBox="0 0 550 512" style="enable-background:new 0 0 550 512;" xml:space="preserve">
<g id="fill_1_">
	<path d="M416,404.4v-267h-19.7V28c0,0-0.7-5.2-2.4-7.1c-1.7-1.7-4-2.8-6.7-2.9l-0.2,0.4h-17v280.8c-0.3,11.7-12.6,19.3-23,14
		l-36.2-18.4c-14.4-70.5-42.4-186.3-57-256.7c-2-8.7-18.4-15-18.4-15H39c-10.7,0-19.3,8.7-19.3,19.3V256c-5.4,0-10.3,2.2-13.9,5.7
		c-3.6,3.5-5.8,8.3-5.8,13.6v172.1h13c-0.5-3.3-0.7-6.6-0.7-9.9c0-2.5,0.1-5.1,0.4-7.6c0.1-1.2,0.3-2.3,0.5-3.6
		c0.1-0.7,0.2-1.2,0.3-1.9c6.1-34.9,36.2-61.4,72.4-61.4c17.9,0,34.2,6.5,46.9,17.1c0.5,0.4,0.9,0.7,1.3,1.1
		c0.4,0.3,0.7,0.7,1.1,0.9c3.6,3.3,6.8,6.9,9.7,10.9c0.4,0.5,0.7,0.9,1,1.4c0.3,0.4,0.6,0.8,0.8,1.2c8.1,11.9,12.7,26.2,12.7,41.8
		c0,0.9,0,1.9,0,2.9c0,0.2,0,0.4,0,0.7c0,0.2,0,0.4,0,0.6c0,0.5-0.1,0.8-0.1,1.3c-0.1,1.5-0.3,2.9-0.5,4.3h71.4
		c-0.1-1.4-0.2-2.9-0.2-4.3c0-37.9,30.4-68.6,67.9-68.6c37.5,0,67.9,30.7,67.9,68.6c0,1.5-0.1,2.9-0.2,4.3h21.2l0,0
		c5.5-1,10-6.5,10-12.1V424h4.6H416h134v-19.7L416,404.4L416,404.4z M74.2,280.7c0.1,0.4,0.1,0.7-0.1,1l-5.9,11.1
		c-0.1,0-0.1,0.1-0.2,0.1H7.8c-0.2-0.2-0.3-0.5-0.3-0.7v-11.1c0-0.1,0-0.3,0.1-0.4L74.2,280.7L74.2,280.7z M60.2,306.7
		c-1.7,2.9-3.5,3.9-7,3.9l-44.3,0.9l0,0c-0.4-0.2-0.7-0.4-0.9-0.7c-0.3-0.3-0.4-0.9-0.4-0.9v-15.3h58.8c0,0.2-0.1,0.3-0.1,0.5
		L60.2,306.7z M83.2,267.8l-2.7,5.1l-1.5,2.8l-1.7,3.1H6.7l0,0c-0.1-6.3,4.1-13.1,11-13.1h64.5c0.5,0,0.9,0.3,1.2,0.7
		C83.5,266.8,83.5,267.4,83.2,267.8z M280.5,348.1h-7.1l4.8-2.5v0.3c0,0.1,0.3,0,0.6-0.2l3.7-2.3c1.7-1,2.9-2.3,2.8-2.9l-0.2-0.7
		c-0.1-0.6-1.5-0.2-3.2,0.8l-3.7,2.3c-0.3,0.2-0.6,0.5-0.6,0.6l0.2,1l-7,3.7H210c-4.8,0-8.7-3.9-8.7-8.7v-56c0-15.5-12.6-28-28-28
		H113L92.5,125.8c0,0-13.2-6.7-13.2,5.5c0,11.7-2.5,115.3-2.8,124H74V41.8h153.1c4.2,0,7.9,3,8.8,7.1L273,226.2l-41.3-28.7
		c11.4-13.4,17-25.3,12.6-28.6c-5.4-4.1-23.9,6.3-41.1,23.2c-17.2,17.1-27,34.1-21.6,38.2c4.8,3.7,20.3-4.4,36.1-18.5l60.2,41.4
		l9.9,48.1l-39.7-38.1c1.9-3.3,1.2-7.6-1.9-10.1c-3.1-2.5-7.7-2.2-10.6,0.5c-3.2,3.2-3.2,8.3,0.1,11.4c2.1,2,5,2.6,7.5,2l46.3,44.5
		v27.9L280.5,348.1z M189.3,219.7c-2.9-2.2,4.6-13.7,16.5-25.5c11.9-11.7,24-19.5,26.8-17.2c2.9,2.2-4.6,13.7-16.5,25.5
		C204.1,214.3,192.1,222,189.3,219.7z M392.6,437.4c0,2.4-1.5,4.6-3.7,5.5V22.5c0.7,0.3,1.4,0.7,1.9,1.3c1.1,1.1,1.9,2.6,1.9,4.3
		V437.4z"/>
	<path d="M10.3,309.7l42.7-0.2c2.6,0,3.5-0.5,4.7-2.5l5-9.5H10.3V309.7z"/>
	<polygon points="71.4,282.6 10.3,282.6 10.3,291 66.9,291 	"/>
	<path d="M10.5,277.9h63.7l4.5-8.4H18.3C13.9,269.4,11,273.6,10.5,277.9z"/>
	<path d="M144.6,436.9c0.3-0.2,0.7-0.5,1.4-0.8c0,0,0.6-0.4,0.6-1.1c-0.1-3.3-0.7-7.3-1.4-10.7c0,0-0.2-0.7-0.8-0.9
		c-0.7-0.3-1.1-0.4-1.5-0.5c-0.2-0.1-0.3-0.2-0.4-0.4c-0.1-0.2,0-0.5,0.1-0.6c0.3-0.3,0.6-0.7,1-1.2c0,0,0.5-0.6,0.3-1.2
		c-0.9-3.2-2.5-6.9-4.1-9.8c0,0-0.3-0.7-1.1-0.7c-0.7-0.1-1.2-0.1-1.6-0.1c-0.2,0-0.4-0.1-0.5-0.3c-0.1-0.2-0.1-0.5,0-0.6
		c0.2-0.3,0.4-0.8,0.7-1.4c0,0,0.3-0.7-0.1-1.2c-1.7-2.8-4.2-6-6.6-8.5c0,0-0.6-0.5-1.2-0.4c-0.7,0.1-1.1,0.3-1.6,0.3
		c-0.2,0-0.4,0-0.6-0.2c-0.1-0.1-0.2-0.4-0.1-0.6c0.1-0.4,0.2-0.8,0.3-1.6c0,0,0.1-0.7-0.4-1.2c-2.4-2.2-5.6-4.7-8.5-6.5
		c0,0-0.7-0.4-1.3-0.1c-0.7,0.3-1.1,0.6-1.4,0.7c-0.2,0.1-0.4,0.1-0.6,0c-0.2-0.1-0.3-0.3-0.3-0.5c0-0.4-0.1-0.8-0.1-1.6
		c0,0-0.1-0.7-0.7-1c-2.9-1.6-6.7-3.2-9.9-4.1c0,0-0.7-0.2-1.2,0.3c-0.6,0.5-0.9,0.8-1.1,1c-0.1,0.1-0.3,0.2-0.6,0.1
		c-0.2-0.1-0.4-0.2-0.5-0.5c-0.1-0.4-0.3-0.8-0.6-1.5c0,0-0.3-0.7-0.9-0.8c-3.2-0.7-7.2-1.3-10.7-1.3c0,0,0.1,0,0,0
		c-0.2,0-0.7,0.1-1,0.6c-0.4,0.6-0.7,1-0.9,1.3c-0.1,0.1-0.3,0.3-0.5,0.3s-0.4-0.1-0.6-0.3c-0.2-0.3-0.6-0.7-0.9-1.3
		c0,0-0.4-0.7-1.1-0.6c-3.3,0.1-7.3,0.7-10.7,1.5c0,0-0.7,0.2-0.9,0.8c-0.3,0.7-0.4,1.1-0.6,1.5c-0.1,0.2-0.2,0.3-0.4,0.4
		c-0.2,0.1-0.5,0-0.6-0.1c-0.1-0.1-0.1-0.1-0.1-0.1c-0.1-0.1-0.1-0.1-0.2-0.2c-0.1-0.1-0.1-0.1-0.3-0.2c-0.1-0.1-0.1-0.1-0.2-0.2
		s-0.2-0.2-0.3-0.3c0,0-0.6-0.5-1.2-0.3c-3.2,0.9-6.9,2.5-9.9,4.2c0,0-0.7,0.4-0.7,1c-0.1,0.7-0.1,1.2-0.1,1.6
		c0,0.2-0.1,0.4-0.3,0.5c-0.1,0.1-0.3,0.1-0.5,0.1c-0.3-0.2-0.7-0.4-1.5-0.7c-0.2-0.1-0.3-0.1-0.5-0.1c-0.3-0.1-0.6-0.1-0.9,0.2
		c-2,1.2-4,2.7-6,4.4c-0.9,0.7-1.8,1.5-2.5,2.2c-0.1,0.1-0.3,0.3-0.3,0.5c-0.1,0.2-0.2,0.5-0.1,0.8c0.2,0.8,0.3,1.4,0.3,1.7
		c0,0.1-0.1,0.3-0.2,0.3c-0.1,0.1-0.3,0.2-0.6,0.2c-0.4-0.1-0.8-0.2-1.6-0.3c-0.7-0.1-1.2,0.4-1.2,0.4c-2.4,2.4-4.9,5.7-6.7,8.5
		c-0.4,0.7-0.1,1.2-0.1,1.2c0.3,0.7,0.6,1,0.7,1.5c0.1,0.2,0.1,0.4,0,0.6c-0.1,0.2-0.3,0.3-0.5,0.3c-0.4,0-0.8,0.1-1.6,0.1
		s-1.1,0.7-1.1,0.7c-1.7,3-3.3,6.7-4.1,9.9c-0.2,0.7,0.3,1.2,0.3,1.2c0.5,0.5,0.7,0.8,1,1.2c0.1,0.1,0.2,0.4,0.1,0.6
		c-0.1,0.2-0.2,0.3-0.4,0.4c-0.3,0.1-0.8,0.3-1.5,0.5c-0.7,0.3-0.8,0.9-0.8,0.9c-0.8,3.4-1.4,7.4-1.4,10.7c0,0.7,0.6,1.1,0.6,1.1
		c0.2,0.1,0.4,0.3,0.6,0.4c0.1,0.1,0.2,0.1,0.3,0.2c0.1,0.1,0.3,0.2,0.3,0.3c0.1,0,0.1,0.1,0.1,0.1c0.2,0.1,0.3,0.3,0.3,0.5
		s-0.1,0.4-0.3,0.5c-0.3,0.2-0.7,0.5-1.3,0.8c-0.6,0.3-0.6,1-0.6,1c0.1,3.4,0.6,7.5,1.4,10.7c0.2,0.7,0.8,0.9,0.8,0.9
		c0.7,0.3,1.1,0.4,1.5,0.5c0.2,0.1,0.4,0.2,0.4,0.5c0.1,0.2,0,0.4-0.1,0.6c-0.3,0.3-0.6,0.7-1,1.2c-0.5,0.6-0.3,1.2-0.3,1.2
		c0.9,3.3,2.4,7.1,4.1,10c0.3,0.7,1.1,0.7,1.1,0.7c0.7,0.1,1.2,0.1,1.6,0.1c0.2,0,0.4,0.1,0.6,0.3c0.1,0.2,0.1,0.4,0,0.6
		c-0.1,0.3-0.4,0.7-0.7,1.4c-0.3,0.7,0.1,1.2,0.1,1.2c1.8,3,4.2,6.2,6.6,8.6c0.6,0.5,1.2,0.4,1.2,0.4c0.7-0.1,1.1-0.3,1.6-0.3
		c0.2-0.1,0.4,0,0.6,0.1c0.1,0.1,0.2,0.3,0.2,0.5c-0.1,0.4-0.2,0.8-0.3,1.6c-0.1,0.7,0.4,1.2,0.4,1.2c2.4,2.4,5.7,4.9,8.5,6.7
		c0.7,0.4,1.3,0.1,1.3,0.1c0.7-0.3,1.1-0.6,1.4-0.7c0.2-0.1,0.4-0.1,0.6,0c0.2,0.1,0.3,0.3,0.3,0.5c0,0.4,0.1,0.8,0.1,1.6
		c0.1,0.7,0.7,1,0.7,1c3,1.7,6.7,3.2,9.9,4.2c0.7,0.2,1.2-0.3,1.2-0.3c0.6-0.5,0.9-0.8,1.1-1c0.1-0.1,0.4-0.2,0.6-0.1
		c0.1,0,0.1,0.1,0.2,0.1c0.1,0.1,0.1,0.1,0.1,0.1c0.1,0.4,0.3,0.8,0.6,1.7c0.3,0.7,0.9,0.8,0.9,0.8c3.3,0.8,7.4,1.4,10.7,1.5
		c0.1,0-0.3,0-0.2,0s0.1,0,0.2-0.1c0.1,0,0.1-0.1,0.1-0.1c0.1,0,0.1-0.1,0.1-0.1c0.1,0,0.1-0.1,0.1-0.1l0.1-0.1l0.1-0.1
		c0-0.1,0.1-0.1,0.1-0.1c0.1-0.1,0.2-0.3,0.3-0.5c0-0.1,0.1-0.1,0.1-0.1c0.3-0.4,0.5-0.7,0.6-0.9c0.1-0.1,0.3-0.1,0.4-0.1
		c0.2,0,0.4,0.1,0.5,0.3c0.2,0.3,0.5,0.7,0.9,1.3c0.4,0.7,1.1,0.6,1.1,0.6c3.5-0.1,7.6-0.6,10.9-1.3c0.7-0.2,0.9-0.9,0.9-0.9
		c0.2-0.7,0.4-1.1,0.6-1.5c0.1-0.2,0.2-0.4,0.4-0.5c0.2-0.1,0.4,0,0.6,0.1c0.3,0.3,0.7,0.6,1.2,1.1c0.6,0.5,1.2,0.3,1.2,0.3
		c3.4-0.9,7.1-2.5,10.1-4.1c0.7-0.4,0.7-1.1,0.7-1.1c0.1-0.7,0.1-1.2,0.1-1.6c0-0.2,0.1-0.4,0.4-0.5c0.2-0.1,0.4-0.1,0.6,0
		c0.4,0.2,0.7,0.4,1.4,0.7c0.2,0.1,0.4,0.1,0.5,0.1c0.3,0.1,0.6,0.1,0.9-0.2c2-1.2,4-2.7,6-4.4c0.9-0.7,1.8-1.5,2.5-2.2
		c0.1-0.1,0.3-0.3,0.4-0.5c0.1-0.2,0.2-0.5,0.1-0.8c-0.1-0.7-0.3-1.2-0.4-1.6c0-0.2,0-0.4,0.2-0.5c0.1-0.1,0.4-0.2,0.6-0.1
		c0.4,0.1,0.9,0.2,1.6,0.3c0,0,0.7,0.1,1.2-0.4c2.3-2.4,4.8-5.7,6.7-8.7c0,0,0.4-0.7,0.1-1.3c-0.4-0.7-0.6-1.1-0.7-1.4
		c-0.1-0.2-0.1-0.4,0-0.6s0.4-0.3,0.6-0.3h-0.3h0.1c0.1,0,0.3,0,0.4,0c0.3,0,0.7-0.1,1-0.1c0,0,0.7-0.1,1.1-0.7
		c1.6-2.9,3.1-6.7,4.1-9.9c0,0,0.2-0.7-0.3-1.2c-0.5-0.6-0.7-0.8-1-1.2c-0.1-0.1-0.2-0.3-0.1-0.6c0.1-0.2,0.2-0.4,0.4-0.5
		c0.4-0.1,0.8-0.3,1.5-0.5c0,0,0.7-0.3,0.8-0.9c0.7-3.2,1.3-7.2,1.4-10.7c0,0,0-0.7-0.6-1.1c-0.6-0.4-1-0.7-1.3-0.8
		c-0.1-0.1-0.3-0.3-0.3-0.5C144.3,437.2,144.4,437,144.6,436.9z M113.2,457.1c-10.7,14.9-31.4,18.3-46.3,7.6s-18.4-31.4-7.7-46.2
		c10.7-14.9,31.4-18.3,46.3-7.6C120.5,421.6,123.9,442.3,113.2,457.1z"/>
	<ellipse cx="86.1" cy="437.8" rx="11" ry="11"/>
	<ellipse cx="86.1" cy="419" rx="2.5" ry="2.5"/>
	<ellipse cx="86.1" cy="456.6" rx="2.5" ry="2.5"/>
	<ellipse cx="104.8" cy="437.8" rx="2.5" ry="2.5"/>
	<ellipse cx="67.3" cy="437.8" rx="2.5" ry="2.5"/>
	<path d="M351.2,443.1c0.3-0.2,0.7-0.5,1.2-0.8c0,0,0.6-0.4,0.6-1c-0.1-3-0.6-6.7-1.3-9.7c0,0-0.2-0.7-0.7-0.8
		c-0.6-0.2-1-0.4-1.4-0.5c-0.2-0.1-0.3-0.2-0.4-0.4c-0.1-0.2,0-0.4,0.1-0.6c0.3-0.3,0.6-0.7,0.9-1.1c0,0,0.4-0.6,0.3-1.1
		c-0.8-2.9-2.3-6.4-3.8-9.1c0,0-0.3-0.6-1-0.7c-0.7-0.1-1.1-0.1-1.4-0.1c-0.2,0-0.4-0.1-0.4-0.3c-0.1-0.2-0.1-0.4,0-0.6
		c0.2-0.3,0.4-0.7,0.7-1.3c0,0,0.3-0.6-0.1-1.1c-1.5-2.6-3.8-5.5-6.1-7.8c0,0-0.5-0.5-1.1-0.4c-0.7,0.1-1,0.2-1.4,0.3
		c-0.2,0-0.4,0-0.5-0.2c-0.1-0.1-0.2-0.4-0.1-0.6c0.1-0.4,0.2-0.8,0.3-1.4c0,0,0.1-0.7-0.4-1.1c-2.2-2.1-5.2-4.3-7.9-5.9
		c0,0-0.6-0.4-1.2-0.1c-0.6,0.3-1,0.6-1.3,0.7c-0.2,0.1-0.4,0.1-0.5,0c-0.2-0.1-0.3-0.3-0.3-0.5c0-0.4-0.1-0.8-0.1-1.4
		c0,0-0.1-0.7-0.6-0.9c-2.6-1.4-6.1-2.9-9.1-3.7c0,0-0.7-0.2-1.1,0.2c-0.5,0.5-0.8,0.7-1,0.9c-0.1,0.1-0.3,0.2-0.5,0.1
		c-0.2-0.1-0.4-0.2-0.4-0.4c-0.1-0.4-0.3-0.7-0.5-1.4c0,0-0.3-0.7-0.8-0.8c-2.9-0.7-6.7-1.2-9.7-1.2c0,0,0.1,0,0,0
		c-0.2,0-0.7,0.1-0.9,0.6c-0.4,0.6-0.6,0.9-0.8,1.2c-0.1,0.1-0.3,0.2-0.4,0.2c-0.2,0-0.4-0.1-0.5-0.3c-0.2-0.3-0.5-0.7-0.8-1.2
		c0,0-0.4-0.6-1-0.6c-3,0.1-6.7,0.6-9.7,1.3c0,0-0.7,0.2-0.8,0.8c-0.3,0.7-0.4,1-0.5,1.4c-0.1,0.2-0.2,0.3-0.4,0.4
		c-0.2,0.1-0.4,0-0.6-0.1c-0.1-0.1-0.1-0.1-0.1-0.1c-0.1-0.1-0.1-0.1-0.2-0.2c-0.1-0.1-0.1-0.1-0.3-0.2c-0.1-0.1-0.1-0.1-0.2-0.2
		c-0.1-0.1-0.2-0.2-0.3-0.3c0,0-0.5-0.5-1.1-0.2c-2.9,0.8-6.3,2.2-9,3.7c0,0-0.6,0.4-0.6,0.9c-0.1,0.7-0.1,1.1-0.1,1.4
		c0,0.2-0.1,0.4-0.3,0.4c-0.1,0.1-0.3,0.1-0.4,0.1c-0.3-0.2-0.7-0.4-1.3-0.7c-0.2-0.1-0.3-0.1-0.4-0.1c-0.3-0.1-0.6-0.1-0.8,0.2
		c-1.8,1.1-3.7,2.4-5.4,3.9c-0.8,0.7-1.6,1.3-2.3,2c-0.1,0.1-0.3,0.3-0.3,0.4c-0.1,0.2-0.2,0.5-0.1,0.7c0.2,0.7,0.3,1.2,0.3,1.6
		c0,0.1-0.1,0.2-0.2,0.3c-0.1,0.1-0.3,0.2-0.5,0.2c-0.4-0.1-0.7-0.2-1.4-0.3s-1.1,0.4-1.1,0.4c-2.2,2.2-4.4,5.2-6,7.8
		c-0.4,0.6-0.1,1.1-0.1,1.1c0.3,0.6,0.5,0.9,0.7,1.3c0.1,0.2,0.1,0.4,0,0.6c-0.1,0.2-0.3,0.2-0.4,0.3c-0.4,0-0.7,0.1-1.4,0.1
		c-0.7,0.1-1,0.7-1,0.7c-1.5,2.7-2.9,6.1-3.7,9c-0.2,0.7,0.3,1.1,0.3,1.1c0.4,0.5,0.7,0.8,0.9,1.1c0.1,0.1,0.2,0.4,0.1,0.6
		s-0.2,0.3-0.4,0.4c-0.3,0.1-0.7,0.2-1.3,0.5c-0.7,0.2-0.7,0.8-0.7,0.8c-0.7,3-1.2,6.7-1.3,9.7c0,0.7,0.6,1,0.6,1
		c0.2,0.1,0.4,0.2,0.6,0.4c0.1,0.1,0.2,0.1,0.3,0.2c0.1,0.1,0.3,0.2,0.3,0.2c0.1,0,0.1,0.1,0.1,0.1c0.2,0.1,0.3,0.3,0.3,0.5
		s-0.1,0.4-0.3,0.5c-0.3,0.2-0.7,0.5-1.2,0.8c-0.6,0.3-0.6,0.9-0.6,0.9c0.1,3.1,0.6,6.8,1.2,9.7c0.2,0.7,0.7,0.8,0.7,0.8
		c0.6,0.2,1,0.4,1.3,0.5c0.2,0.1,0.4,0.2,0.4,0.4c0.1,0.2,0,0.4-0.1,0.6c-0.3,0.2-0.6,0.6-0.9,1.1c-0.4,0.6-0.3,1.1-0.3,1.1
		c0.8,3,2.2,6.4,3.7,9.1c0.3,0.6,1,0.7,1,0.7c0.7,0.1,1.1,0.1,1.5,0.1c0.2,0,0.4,0.1,0.5,0.3c0.1,0.2,0.1,0.4,0,0.6
		c-0.1,0.3-0.4,0.7-0.7,1.2c-0.3,0.6,0.1,1.1,0.1,1.1c1.6,2.7,3.8,5.6,6,7.8c0.5,0.5,1.1,0.4,1.1,0.4c0.7-0.1,1-0.2,1.4-0.3
		c0.2-0.1,0.4,0,0.6,0.1c0.1,0.1,0.2,0.3,0.2,0.5c-0.1,0.4-0.2,0.7-0.3,1.4s0.4,1.1,0.4,1.1c2.2,2.2,5.2,4.4,7.7,6
		c0.6,0.4,1.2,0.1,1.2,0.1c0.6-0.3,1-0.6,1.3-0.7c0.2-0.1,0.4-0.1,0.6,0c0.2,0.1,0.3,0.2,0.3,0.4c0,0.4,0.1,0.8,0.1,1.4
		c0.1,0.7,0.6,0.9,0.6,0.9c2.7,1.5,6.1,2.9,9,3.7c0.7,0.2,1.1-0.2,1.1-0.2c0.5-0.4,0.8-0.7,1-0.9c0.1-0.1,0.4-0.2,0.6-0.1
		c0.1,0,0.1,0.1,0.2,0.1c0.1,0.1,0.1,0.1,0.1,0.1c0.1,0.4,0.3,0.8,0.6,1.5c0.3,0.7,0.8,0.8,0.8,0.8c3,0.7,6.7,1.2,9.7,1.3
		c0.1,0,0.7,0,0.7,0c0.1,0,0.1,0,0.2-0.1c0.1,0,0.1-0.1,0.1-0.1c0.1,0,0.1-0.1,0.1-0.1c0.1,0,0.1-0.1,0.1-0.1l0.1-0.1l0.1-0.1
		c0-0.1,0.1-0.1,0.1-0.1c0.1-0.1,0.2-0.3,0.2-0.4c0-0.1,0.1-0.1,0.1-0.1c0.2-0.4,0.4-0.7,0.6-0.8c0.1-0.1,0.2-0.1,0.4-0.1
		c0.2,0,0.4,0.1,0.4,0.2c0.2,0.3,0.4,0.7,0.8,1.2c0.4,0.6,1,0.5,1,0.5c3.1-0.1,6.7-0.5,9.6-1.2c0.7-0.2,0.8-0.7,0.8-0.7
		c0.2-0.7,0.4-1,0.5-1.3c0.1-0.2,0.2-0.4,0.4-0.4c0.2-0.1,0.4,0,0.5,0.1c0.2,0.2,0.6,0.5,1,0.9c0.5,0.5,1.1,0.2,1.1,0.2
		c3-0.8,6.3-2.2,8.9-3.7c0.6-0.4,0.6-0.9,0.6-0.9c0.1-0.7,0.1-1,0.1-1.4c0-0.2,0.1-0.4,0.3-0.5c0.2-0.1,0.4-0.1,0.5,0
		c0.3,0.2,0.7,0.4,1.3,0.7c0.2,0.1,0.3,0.1,0.4,0.1c0.2,0.1,0.6,0.1,0.8-0.2c1.8-1,3.6-2.4,5.3-3.8c0.8-0.7,1.6-1.3,2.2-2
		c0.1-0.1,0.2-0.3,0.3-0.4c0.1-0.2,0.2-0.5,0.1-0.7c-0.1-0.7-0.2-1-0.3-1.4c0-0.2,0-0.4,0.2-0.5c0.1-0.1,0.4-0.2,0.6-0.1
		c0.4,0.1,0.8,0.2,1.4,0.3c0,0,0.7,0.1,1.1-0.4c2.1-2.2,4.2-5.1,5.8-7.7c0,0,0.4-0.6,0.1-1.1c-0.3-0.6-0.5-0.9-0.7-1.2
		c-0.1-0.2-0.1-0.4,0-0.5c0.1-0.2,0.3-0.3,0.5-0.3h0.6h0.1c0.1,0,0.3,0,0.4,0c0.3,0,0.6-0.1,0.9-0.1c0,0,0.7-0.1,1-0.7
		c1.4-2.6,2.8-6.1,3.7-9.1c0,0,0.2-0.7-0.3-1.1c-0.4-0.6-0.7-0.8-0.9-1.1c-0.1-0.1-0.2-0.3-0.1-0.6c0.1-0.2,0.2-0.4,0.4-0.4
		c0.4-0.1,0.7-0.3,1.4-0.5c0,0,0.7-0.2,0.7-0.8c0.7-2.9,1.2-6.7,1.2-9.7c0,0,0-0.7-0.6-1c-0.6-0.4-0.9-0.7-1.2-0.8
		c-0.1-0.1-0.3-0.2-0.3-0.5C351,443.3,351,443.2,351.2,443.1z M322.4,460.8c-9.7,13.5-28.6,16.7-42.2,6.9
		c-13.6-9.7-16.7-28.6-6.9-42.1c9.7-13.5,28.6-16.7,42.2-6.9C329.2,428.4,332.2,447.2,322.4,460.8z"/>
	<ellipse cx="297.8" cy="443.2" rx="10" ry="10"/>
	<ellipse cx="297.8" cy="426" rx="2.3" ry="2.2"/>
	<ellipse cx="297.8" cy="460.3" rx="2.3" ry="2.2"/>
	<ellipse cx="317.6" cy="443.2" rx="2.6" ry="2.6"/>
	<ellipse cx="280.6" cy="443.2" rx="2.3" ry="2.2"/>
	<path d="M158.5,450.3L158.5,450.3c-0.2,0.7-0.3,1.2-0.5,1.9h72.5c-0.1-0.7-0.2-1.2-0.3-1.9H158.5z"/>
	<polygon points="363.4,452.2 385.5,452.2 387.2,450.3 365.3,450.3 	"/>
	<path d="M0,450.3v1.9h12.8c-0.1-0.7-0.3-1.2-0.4-1.9H0z"/>
	<path d="M175,238.5h-55c-3.2,0-5.7,2.5-5.7,5.7v3.5c0,3.2,2.5,5.7,5.7,5.7h55c3.2,0,5.7-2.5,5.7-5.7v-3.5
		C180.8,241.1,178.2,238.5,175,238.5z"/>
</g>
</svg>
