<?xml version="1.0" encoding="utf-8"?>
<!-- Generator: Adobe Illustrator 21.1.0, SVG Export Plug-In . SVG Version: 6.00 Build 0)  -->
<svg version="1.1" id="Layer_2" xmlns="http://www.w3.org/2000/svg" xmlns:xlink="http://www.w3.org/1999/xlink" x="0px" y="0px"
	 viewBox="0 0 550 512" style="enable-background:new 0 0 550 512;" xml:space="preserve">
<g id="fill">
	<path d="M410.8,400.8V137h-19.4V29c0,0-0.6-5.2-2.4-7c-1.7-1.7-4-2.8-6.6-2.9l-0.2,0.4h-16.7v277.3c-0.3,11.6-12.4,19.1-22.8,13.8
		L307,292.5c-14.2-69.6-41.9-183.9-56.3-253.5c-1.9-8.6-18.1-14.8-18.1-14.8H38.5c-10.5,0-19.1,8.6-19.1,19.1v211.1
		c-5.4,0-10.2,2.1-13.7,5.6c-3.5,3.4-5.7,8.2-5.7,13.4v170h12.9c-0.5-3.2-0.6-6.5-0.6-9.8c0-2.5,0.1-5,0.4-7.5
		c0.1-1.2,0.3-2.3,0.5-3.5c0.1-0.6,0.2-1.2,0.3-1.9c6-34.4,35.7-60.6,71.5-60.6c17.7,0,33.8,6.4,46.4,16.9c0.5,0.4,0.9,0.7,1.3,1.1
		c0.4,0.3,0.7,0.6,1.1,0.9c3.5,3.2,6.8,6.8,9.6,10.7c0.4,0.5,0.6,0.9,1,1.4c0.3,0.4,0.6,0.8,0.8,1.2c8,11.8,12.6,25.9,12.6,41.3
		c0,0.9,0,1.9,0,2.9c0,0.2,0,0.4,0,0.6s0,0.4,0,0.6c0,0.5-0.1,0.8-0.1,1.3c-0.1,1.5-0.3,2.9-0.5,4.3h70.5c-0.1-1.4-0.2-2.9-0.2-4.3
		c0-37.4,30-67.7,67.1-67.7c37,0,67.1,30.3,67.1,67.7c0,1.5-0.1,2.9-0.2,4.3h20.9l0,0c5.5-1,9.9-6.4,9.9-11.9v-11.1h4.5h14.1h132.3
		v-19.4L410.8,400.8L410.8,400.8z M73.3,278.6c0.1,0.4,0.1,0.6-0.1,1l-5.8,10.9c-0.1,0-0.1,0.1-0.2,0.1H7.7
		c-0.2-0.2-0.3-0.5-0.3-0.7V279c0-0.1,0-0.3,0.1-0.4H73.3L73.3,278.6z M59.4,304.3c-1.7,2.9-3.4,3.9-6.9,3.9l-43.8,0.9l0,0
		c-0.4-0.2-0.7-0.4-0.9-0.6c-0.3-0.3-0.4-0.9-0.4-0.9v-15.1h58.1c0,0.2-0.1,0.3-0.1,0.5L59.4,304.3z M82.2,265.8l-2.7,5l-1.5,2.8
		l-1.7,3.1H6.6l0,0c-0.1-6.2,4.1-13,10.8-13h63.7c0.5,0,0.9,0.3,1.2,0.6C82.4,264.9,82.4,265.5,82.2,265.8z M277,345.2h-7l4.7-2.5
		v0.3c0,0.1,0.3,0,0.6-0.2l3.7-2.3c1.7-1,2.9-2.3,2.8-2.9l-0.2-0.7c-0.1-0.6-1.5-0.2-3.1,0.8l-3.7,2.3c-0.3,0.2-0.6,0.5-0.6,0.6
		l0.2,1l-6.9,3.7h-60.1c-4.7,0-8.6-3.9-8.6-8.6v-55.3c0-15.3-12.4-27.7-27.7-27.7h-59.5l-20.3-128c0,0-13-6.6-13,5.5
		c0,11.6-2.5,113.9-2.8,122.4h-2.4V42.7h151.2c4.2,0,7.8,3,8.7,7l36.6,175.1l-40.8-28.3c11.3-13.2,16.7-25,12.4-28.2
		c-5.4-4.1-23.6,6.2-40.6,22.9c-17,16.8-26.6,33.7-21.3,37.8c4.7,3.7,20.1-4.3,35.6-18.2l59.5,40.9l9.8,47.5L245,261.4
		c1.9-3.2,1.2-7.5-1.9-10c-3.1-2.5-7.6-2.2-10.5,0.5c-3.1,3.1-3.1,8.2,0.1,11.3c2,1.9,4.9,2.6,7.4,1.9l45.7,44v27.6L277,345.2z
		 M186.9,218.4c-2.9-2.2,4.5-13.5,16.3-25.2c11.8-11.6,23.7-19.2,26.5-17c2.9,2.2-4.5,13.5-16.3,25.2
		C201.5,213,189.7,220.7,186.9,218.4z M387.7,433.4c0,2.4-1.5,4.5-3.7,5.5V23.6c0.7,0.3,1.4,0.7,1.9,1.3c1.1,1.1,1.9,2.6,1.9,4.3
		L387.7,433.4L387.7,433.4z"/>
	<path d="M10.2,307.3l42.2-0.2c2.6,0,3.4-0.5,4.6-2.5l4.9-9.3H10.2V307.3z"/>
	<polygon points="70.5,280.5 10.2,280.5 10.2,288.8 66.1,288.8 	"/>
	<path d="M10.4,275.8h62.9l4.4-8.3H18C13.7,267.5,10.8,271.6,10.4,275.8z"/>
	<path d="M142.8,432.9c0.3-0.2,0.7-0.5,1.4-0.8c0,0,0.6-0.4,0.6-1.1c-0.1-3.2-0.6-7.2-1.4-10.5c0,0-0.2-0.6-0.8-0.9
		s-1.1-0.4-1.5-0.5c-0.2-0.1-0.3-0.2-0.4-0.4s0-0.5,0.1-0.6c0.3-0.3,0.6-0.6,1-1.2c0,0,0.5-0.6,0.3-1.2c-0.9-3.1-2.5-6.8-4.1-9.7
		c0,0-0.3-0.6-1.1-0.6c-0.7-0.1-1.2-0.1-1.6-0.1c-0.2,0-0.4-0.1-0.5-0.3c-0.1-0.2-0.1-0.5,0-0.6c0.2-0.3,0.4-0.8,0.7-1.4
		c0,0,0.3-0.6-0.1-1.2c-1.7-2.8-4.2-5.9-6.5-8.4c0,0-0.6-0.5-1.2-0.4c-0.7,0.1-1.1,0.3-1.6,0.3c-0.2,0-0.4,0-0.6-0.2
		c-0.1-0.1-0.2-0.4-0.1-0.6c0.1-0.4,0.2-0.8,0.3-1.6c0,0,0.1-0.6-0.4-1.2c-2.4-2.2-5.6-4.6-8.4-6.4c0,0-0.6-0.4-1.3-0.1
		c-0.6,0.3-1.1,0.6-1.4,0.6c-0.2,0.1-0.4,0.1-0.6,0s-0.3-0.3-0.3-0.5c0-0.4-0.1-0.8-0.1-1.6c0,0-0.1-0.6-0.6-1
		c-2.9-1.6-6.6-3.1-9.8-4.1c0,0-0.7-0.2-1.2,0.3c-0.6,0.5-0.9,0.8-1.1,1c-0.1,0.1-0.3,0.2-0.6,0.1c-0.2-0.1-0.4-0.2-0.5-0.5
		c-0.1-0.4-0.3-0.8-0.6-1.5c0,0-0.3-0.6-0.9-0.8c-3.1-0.7-7.1-1.3-10.5-1.3c0,0,0.1,0,0,0c-0.2,0-0.7,0.1-1,0.6
		c-0.4,0.6-0.6,1-0.9,1.3c-0.1,0.1-0.3,0.3-0.5,0.3s-0.4-0.1-0.6-0.3c-0.2-0.3-0.6-0.7-0.9-1.3c0,0-0.4-0.6-1.1-0.6
		c-3.2,0.1-7.2,0.6-10.5,1.5c0,0-0.7,0.2-0.9,0.8c-0.3,0.6-0.4,1.1-0.6,1.5c-0.1,0.2-0.2,0.3-0.4,0.4s-0.5,0-0.6-0.1
		s-0.1-0.1-0.1-0.1c-0.1-0.1-0.1-0.1-0.2-0.2s-0.1-0.1-0.3-0.2c-0.1-0.1-0.1-0.1-0.2-0.2s-0.2-0.2-0.3-0.3c0,0-0.6-0.5-1.2-0.3
		c-3.1,0.9-6.8,2.5-9.8,4.2c0,0-0.6,0.4-0.6,1c-0.1,0.6-0.1,1.2-0.1,1.6c0,0.2-0.1,0.4-0.3,0.5c-0.1,0.1-0.3,0.1-0.5,0.1
		c-0.3-0.2-0.7-0.4-1.5-0.7c-0.2-0.1-0.3-0.1-0.5-0.1c-0.3-0.1-0.6-0.1-0.9,0.2c-1.9,1.2-4,2.7-5.9,4.3c-0.9,0.7-1.8,1.5-2.5,2.2
		c-0.1,0.1-0.3,0.3-0.3,0.5c-0.1,0.2-0.2,0.5-0.1,0.8c0.2,0.8,0.3,1.4,0.3,1.7c0,0.1-0.1,0.3-0.2,0.3c-0.1,0.1-0.3,0.2-0.6,0.2
		c-0.4-0.1-0.8-0.2-1.6-0.3c-0.7-0.1-1.2,0.4-1.2,0.4c-2.4,2.4-4.8,5.6-6.6,8.4c-0.4,0.6-0.1,1.2-0.1,1.2c0.3,0.6,0.6,1,0.7,1.5
		c0.1,0.2,0.1,0.4,0,0.6s-0.3,0.3-0.5,0.3c-0.4,0-0.8,0.1-1.6,0.1s-1.1,0.6-1.1,0.6c-1.7,3-3.2,6.7-4.1,9.8
		c-0.2,0.6,0.3,1.2,0.3,1.2c0.5,0.5,0.7,0.8,1,1.2c0.1,0.1,0.2,0.4,0.1,0.6s-0.2,0.3-0.4,0.4c-0.3,0.1-0.8,0.3-1.5,0.5
		c-0.7,0.3-0.8,0.9-0.8,0.9c-0.8,3.3-1.4,7.3-1.4,10.5c0,0.6,0.6,1.1,0.6,1.1c0.2,0.1,0.4,0.3,0.6,0.4c0.1,0.1,0.2,0.1,0.3,0.2
		c0.1,0.1,0.3,0.2,0.3,0.3c0.1,0,0.1,0.1,0.1,0.1c0.2,0.1,0.3,0.3,0.3,0.5s-0.1,0.4-0.3,0.5c-0.3,0.2-0.7,0.5-1.3,0.8
		c-0.6,0.3-0.6,1-0.6,1c0.1,3.3,0.6,7.4,1.4,10.5c0.2,0.6,0.8,0.9,0.8,0.9c0.6,0.3,1.1,0.4,1.5,0.5c0.2,0.1,0.4,0.2,0.4,0.5
		c0.1,0.2,0,0.4-0.1,0.6c-0.3,0.3-0.6,0.6-1,1.2c-0.5,0.6-0.3,1.2-0.3,1.2c0.9,3.2,2.4,7,4.1,9.9c0.3,0.6,1.1,0.6,1.1,0.6
		c0.7,0.1,1.2,0.1,1.6,0.1c0.2,0,0.4,0.1,0.6,0.3c0.1,0.2,0.1,0.4,0,0.6c-0.1,0.3-0.4,0.7-0.7,1.4c-0.3,0.6,0.1,1.2,0.1,1.2
		c1.8,3,4.2,6.1,6.5,8.5c0.6,0.5,1.2,0.4,1.2,0.4c0.7-0.1,1.1-0.3,1.6-0.3c0.2-0.1,0.4,0,0.6,0.1c0.1,0.1,0.2,0.3,0.2,0.5
		c-0.1,0.4-0.2,0.8-0.3,1.6c-0.1,0.6,0.4,1.2,0.4,1.2c2.4,2.4,5.6,4.8,8.4,6.6c0.6,0.4,1.3,0.1,1.3,0.1c0.6-0.3,1.1-0.6,1.4-0.6
		c0.2-0.1,0.4-0.1,0.6,0c0.2,0.1,0.3,0.3,0.3,0.5c0,0.4,0.1,0.8,0.1,1.6c0.1,0.6,0.6,1,0.6,1c3,1.7,6.7,3.1,9.8,4.2
		c0.7,0.2,1.2-0.3,1.2-0.3c0.6-0.5,0.9-0.8,1.1-1c0.1-0.1,0.4-0.2,0.6-0.1c0.1,0,0.1,0.1,0.2,0.1c0.1,0.1,0.1,0.1,0.1,0.1
		c0.1,0.4,0.3,0.8,0.6,1.7c0.3,0.6,0.9,0.8,0.9,0.8c3.2,0.8,7.3,1.4,10.5,1.5c0.1,0-0.3,0-0.2,0s0.1,0,0.2-0.1
		c0.1,0,0.1-0.1,0.1-0.1c0.1,0,0.1-0.1,0.1-0.1c0.1,0,0.1-0.1,0.1-0.1l0.1-0.1l0.1-0.1c0-0.1,0.1-0.1,0.1-0.1
		c0.1-0.1,0.2-0.3,0.3-0.5c0-0.1,0.1-0.1,0.1-0.1c0.3-0.4,0.5-0.6,0.6-0.9c0.1-0.1,0.3-0.1,0.4-0.1c0.2,0,0.4,0.1,0.5,0.3
		c0.2,0.3,0.5,0.6,0.9,1.3c0.4,0.6,1.1,0.6,1.1,0.6c3.4-0.1,7.5-0.6,10.7-1.3c0.7-0.2,0.9-0.9,0.9-0.9c0.2-0.6,0.4-1.1,0.6-1.5
		c0.1-0.2,0.2-0.4,0.4-0.5c0.2-0.1,0.4,0,0.6,0.1c0.3,0.3,0.6,0.6,1.2,1.1s1.2,0.3,1.2,0.3c3.3-0.9,7-2.5,10-4.1
		c0.6-0.4,0.6-1.1,0.6-1.1c0.1-0.6,0.1-1.2,0.1-1.6c0-0.2,0.1-0.4,0.4-0.5c0.2-0.1,0.4-0.1,0.6,0c0.4,0.2,0.7,0.4,1.4,0.6
		c0.2,0.1,0.4,0.1,0.5,0.1c0.3,0.1,0.6,0.1,0.9-0.2c1.9-1.2,4-2.7,5.9-4.3c0.9-0.7,1.8-1.5,2.5-2.2c0.1-0.1,0.3-0.3,0.4-0.5
		s0.2-0.5,0.1-0.8c-0.1-0.6-0.3-1.2-0.4-1.6c0-0.2,0-0.4,0.2-0.5c0.1-0.1,0.4-0.2,0.6-0.1c0.4,0.1,0.9,0.2,1.6,0.3
		c0,0,0.7,0.1,1.2-0.4c2.3-2.4,4.7-5.6,6.6-8.6c0,0,0.4-0.6,0.1-1.3c-0.4-0.6-0.6-1.1-0.7-1.4c-0.1-0.2-0.1-0.4,0-0.6
		s0.4-0.3,0.6-0.3H135h0.1c0.1,0,0.3,0,0.4,0c0.3,0,0.6-0.1,1-0.1c0,0,0.7-0.1,1.1-0.6c1.6-2.9,3.1-6.6,4.1-9.8c0,0,0.2-0.6-0.3-1.2
		s-0.7-0.8-1-1.2c-0.1-0.1-0.2-0.3-0.1-0.6c0.1-0.2,0.2-0.4,0.4-0.5c0.4-0.1,0.8-0.3,1.5-0.5c0,0,0.7-0.3,0.8-0.9
		c0.7-3.1,1.3-7.1,1.4-10.5c0,0,0-0.6-0.6-1.1c-0.6-0.4-1-0.6-1.3-0.8c-0.1-0.1-0.3-0.3-0.3-0.5C142.5,433.1,142.6,433,142.8,432.9z
		 M111.8,452.8c-10.5,14.7-31,18-45.7,7.5s-18.1-31-7.6-45.6c10.5-14.7,31-18,45.7-7.5C119,417.8,122.3,438.2,111.8,452.8z"/>
	<ellipse cx="85" cy="433.8" rx="10.8" ry="10.8"/>
	<ellipse cx="85" cy="415.2" rx="2.5" ry="2.5"/>
	<ellipse cx="85" cy="452.4" rx="2.5" ry="2.5"/>
	<ellipse cx="103.5" cy="433.8" rx="2.5" ry="2.5"/>
	<ellipse cx="66.4" cy="433.8" rx="2.5" ry="2.5"/>
	<path d="M346.8,439c0.3-0.2,0.7-0.5,1.2-0.8c0,0,0.6-0.4,0.6-1c-0.1-3-0.6-6.6-1.3-9.6c0,0-0.2-0.6-0.7-0.8c-0.6-0.2-1-0.4-1.4-0.5
		c-0.2-0.1-0.3-0.2-0.4-0.4s0-0.4,0.1-0.6c0.3-0.3,0.6-0.6,0.9-1.1c0,0,0.4-0.6,0.3-1.1c-0.8-2.9-2.3-6.3-3.8-9c0,0-0.3-0.6-1-0.6
		c-0.6-0.1-1.1-0.1-1.4-0.1c-0.2,0-0.4-0.1-0.4-0.3c-0.1-0.2-0.1-0.4,0-0.6c0.2-0.3,0.4-0.7,0.6-1.3c0,0,0.3-0.6-0.1-1.1
		c-1.5-2.6-3.8-5.5-6-7.7c0,0-0.5-0.5-1.1-0.4s-1,0.2-1.4,0.3c-0.2,0-0.4,0-0.5-0.2c-0.1-0.1-0.2-0.4-0.1-0.6
		c0.1-0.4,0.2-0.8,0.3-1.4c0,0,0.1-0.6-0.4-1.1c-2.1-2-5.1-4.3-7.8-5.8c0,0-0.6-0.4-1.2-0.1s-1,0.6-1.3,0.6c-0.2,0.1-0.4,0.1-0.5,0
		c-0.2-0.1-0.3-0.3-0.3-0.5c0-0.4-0.1-0.8-0.1-1.4c0,0-0.1-0.6-0.6-0.9c-2.6-1.4-6-2.9-9-3.7c0,0-0.6-0.2-1.1,0.2
		c-0.5,0.5-0.8,0.7-1,0.9c-0.1,0.1-0.3,0.2-0.5,0.1s-0.4-0.2-0.4-0.4c-0.1-0.4-0.3-0.7-0.5-1.4c0,0-0.3-0.6-0.8-0.8
		c-2.9-0.6-6.6-1.2-9.6-1.2c0,0,0.1,0,0,0c-0.2,0-0.6,0.1-0.9,0.6c-0.4,0.6-0.6,0.9-0.8,1.2c-0.1,0.1-0.3,0.2-0.4,0.2
		c-0.2,0-0.4-0.1-0.5-0.3c-0.2-0.3-0.5-0.6-0.8-1.2c0,0-0.4-0.6-1-0.6c-3,0.1-6.6,0.6-9.6,1.3c0,0-0.6,0.2-0.8,0.8
		c-0.3,0.6-0.4,1-0.5,1.4c-0.1,0.2-0.2,0.3-0.4,0.4c-0.2,0.1-0.4,0-0.6-0.1c-0.1-0.1-0.1-0.1-0.1-0.1c-0.1-0.1-0.1-0.1-0.2-0.2
		s-0.1-0.1-0.3-0.2c-0.1-0.1-0.1-0.1-0.2-0.2s-0.2-0.2-0.3-0.3c0,0-0.5-0.5-1.1-0.2c-2.9,0.8-6.2,2.2-8.9,3.7c0,0-0.6,0.4-0.6,0.9
		c-0.1,0.6-0.1,1.1-0.1,1.4c0,0.2-0.1,0.4-0.3,0.4c-0.1,0.1-0.3,0.1-0.4,0.1c-0.3-0.2-0.7-0.4-1.3-0.6c-0.2-0.1-0.3-0.1-0.4-0.1
		c-0.3-0.1-0.6-0.1-0.8,0.2c-1.8,1.1-3.6,2.4-5.4,3.9c-0.8,0.6-1.6,1.3-2.3,1.9c-0.1,0.1-0.3,0.3-0.3,0.4c-0.1,0.2-0.2,0.5-0.1,0.7
		c0.2,0.7,0.3,1.2,0.3,1.6c0,0.1-0.1,0.2-0.2,0.3c-0.1,0.1-0.3,0.2-0.5,0.2c-0.4-0.1-0.7-0.2-1.4-0.3c-0.6-0.1-1.1,0.4-1.1,0.4
		c-2.1,2.2-4.3,5.1-5.9,7.7c-0.4,0.6-0.1,1.1-0.1,1.1c0.3,0.6,0.5,0.9,0.6,1.3c0.1,0.2,0.1,0.4,0,0.6s-0.3,0.2-0.4,0.3
		c-0.4,0-0.7,0.1-1.4,0.1c-0.6,0.1-1,0.6-1,0.6c-1.5,2.7-2.9,6-3.7,8.9c-0.2,0.6,0.3,1.1,0.3,1.1c0.4,0.5,0.7,0.8,0.9,1.1
		c0.1,0.1,0.2,0.4,0.1,0.6c-0.1,0.2-0.2,0.3-0.4,0.4c-0.3,0.1-0.7,0.2-1.3,0.5c-0.6,0.2-0.7,0.8-0.7,0.8c-0.7,3-1.2,6.7-1.3,9.5
		c0,0.6,0.6,1,0.6,1c0.2,0.1,0.4,0.2,0.6,0.4c0.1,0.1,0.2,0.1,0.3,0.2s0.3,0.2,0.3,0.2c0.1,0,0.1,0.1,0.1,0.1
		c0.2,0.1,0.3,0.3,0.3,0.5s-0.1,0.4-0.3,0.5c-0.3,0.2-0.6,0.5-1.2,0.8c-0.6,0.3-0.6,0.9-0.6,0.9c0.1,3.1,0.6,6.8,1.2,9.5
		c0.2,0.6,0.7,0.8,0.7,0.8c0.6,0.2,1,0.4,1.3,0.5c0.2,0.1,0.4,0.2,0.4,0.4c0.1,0.2,0,0.4-0.1,0.6c-0.3,0.2-0.6,0.6-0.9,1.1
		c-0.4,0.6-0.3,1.1-0.3,1.1c0.8,3,2.2,6.3,3.7,9c0.3,0.6,1,0.6,1,0.6c0.6,0.1,1.1,0.1,1.5,0.1c0.2,0,0.4,0.1,0.5,0.3
		c0.1,0.2,0.1,0.4,0,0.6c-0.1,0.3-0.4,0.6-0.6,1.2c-0.3,0.6,0.1,1.1,0.1,1.1c1.6,2.7,3.8,5.6,5.9,7.7c0.5,0.5,1.1,0.4,1.1,0.4
		c0.6-0.1,1-0.2,1.4-0.3c0.2-0.1,0.4,0,0.6,0.1c0.1,0.1,0.2,0.3,0.2,0.5c-0.1,0.4-0.2,0.7-0.3,1.4c-0.1,0.6,0.4,1.1,0.4,1.1
		c2.2,2.1,5.1,4.3,7.6,5.9c0.6,0.4,1.2,0.1,1.2,0.1c0.6-0.3,1-0.6,1.3-0.6c0.2-0.1,0.4-0.1,0.6,0s0.3,0.2,0.3,0.4
		c0,0.4,0.1,0.8,0.1,1.4c0.1,0.6,0.6,0.9,0.6,0.9c2.7,1.5,6,2.9,8.9,3.7c0.6,0.2,1.1-0.2,1.1-0.2c0.5-0.4,0.8-0.7,1-0.9
		c0.1-0.1,0.4-0.2,0.6-0.1c0.1,0,0.1,0.1,0.2,0.1c0.1,0.1,0.1,0.1,0.1,0.1c0.1,0.4,0.3,0.8,0.6,1.5c0.3,0.6,0.8,0.8,0.8,0.8
		c3,0.7,6.7,1.2,9.6,1.3c0.1,0,0.6,0,0.6,0c0.1,0,0.1,0,0.2-0.1c0.1,0,0.1-0.1,0.1-0.1c0.1,0,0.1-0.1,0.1-0.1c0.1,0,0.1-0.1,0.1-0.1
		l0.1-0.1l0.1-0.1c0-0.1,0.1-0.1,0.1-0.1c0.1-0.1,0.2-0.3,0.2-0.4s0.1-0.1,0.1-0.1c0.2-0.4,0.4-0.6,0.6-0.8c0.1-0.1,0.2-0.1,0.4-0.1
		s0.4,0.1,0.4,0.2c0.2,0.3,0.4,0.6,0.8,1.2s1,0.5,1,0.5c3.1-0.1,6.6-0.5,9.4-1.2c0.6-0.2,0.8-0.7,0.8-0.7c0.2-0.6,0.4-1,0.5-1.3
		c0.1-0.2,0.2-0.4,0.4-0.4c0.2-0.1,0.4,0,0.5,0.1c0.2,0.2,0.6,0.5,1,0.9c0.5,0.5,1.1,0.2,1.1,0.2c3-0.8,6.2-2.1,8.8-3.6
		c0.6-0.4,0.6-0.9,0.6-0.9c0.1-0.6,0.1-1,0.1-1.4c0-0.2,0.1-0.4,0.3-0.5c0.2-0.1,0.4-0.1,0.5,0c0.3,0.2,0.6,0.4,1.3,0.6
		c0.2,0.1,0.3,0.1,0.4,0.1c0.2,0.1,0.6,0.1,0.8-0.2c1.8-1,3.5-2.4,5.3-3.8c0.8-0.6,1.6-1.3,2.2-1.9c0.1-0.1,0.2-0.3,0.3-0.4
		c0.1-0.2,0.2-0.5,0.1-0.7c-0.1-0.6-0.2-1-0.3-1.4c0-0.2,0-0.4,0.2-0.5c0.1-0.1,0.4-0.2,0.6-0.1c0.4,0.1,0.8,0.2,1.4,0.3
		c0,0,0.6,0.1,1.1-0.4c2-2.1,4.2-5,5.7-7.6c0,0,0.4-0.6,0.1-1.1c-0.3-0.6-0.5-0.9-0.6-1.2c-0.1-0.2-0.1-0.4,0-0.5
		c0.1-0.2,0.3-0.3,0.5-0.3h0.6h0.1c0.1,0,0.3,0,0.4,0c0.3,0,0.6-0.1,0.9-0.1c0,0,0.6-0.1,1-0.6c1.4-2.6,2.8-6,3.7-9
		c0,0,0.2-0.6-0.3-1.1c-0.4-0.6-0.7-0.8-0.9-1.1c-0.1-0.1-0.2-0.3-0.1-0.6c0.1-0.2,0.2-0.4,0.4-0.4c0.4-0.1,0.7-0.3,1.4-0.5
		c0,0,0.6-0.2,0.7-0.8c0.7-2.9,1.2-6.6,1.2-9.6c0,0,0-0.6-0.6-1s-0.9-0.6-1.2-0.8c-0.1-0.1-0.3-0.2-0.3-0.5
		C346.6,439.2,346.6,439.1,346.8,439z M318.4,456.5c-9.6,13.3-28.2,16.5-41.6,6.8c-13.4-9.5-16.5-28.2-6.8-41.5
		c9.6-13.3,28.2-16.5,41.6-6.8C325.1,424.4,328,443,318.4,456.5z"/>
	<ellipse cx="294.1" cy="439.1" rx="9.9" ry="9.9"/>
	<ellipse cx="294.1" cy="422.1" rx="2.3" ry="2.2"/>
	<ellipse cx="294.1" cy="456" rx="2.3" ry="2.2"/>
	<ellipse cx="313.7" cy="439.1" rx="2.6" ry="2.6"/>
	<ellipse cx="277.1" cy="439.1" rx="2.3" ry="2.2"/>
	<path d="M156.6,446.1L156.6,446.1c-0.2,0.6-0.3,1.2-0.5,1.9h71.6c-0.1-0.6-0.2-1.2-0.3-1.9H156.6z"/>
	<polygon points="358.9,447.9 380.7,447.9 382.4,446.1 360.8,446.1 	"/>
	<path d="M0,446.1v1.9h12.7c-0.1-0.6-0.3-1.2-0.4-1.9H0z"/>
	<path d="M172.8,237h-54.3c-3.1,0-5.6,2.5-5.6,5.6v3.4c0,3.1,2.5,5.6,5.6,5.6h54.3c3.1,0,5.6-2.5,5.6-5.6v-3.4
		C178.6,239.5,176,237,172.8,237z"/>
	<g id="Layer_5">
		<g>
			<path d="M497.3,175.7v-27.6H475v27.6c8.2-4.1,8.8-5.3,11.1-5.3C488.6,170.4,489.1,171.6,497.3,175.7z"/>
			<path d="M544.4,148.1H513c-3.1,0-5.6,2.5-5.6,5.6v27.9c0,4.5-4.3,6.8-8.3,5.5c-0.4-0.1-0.6-0.3-0.9-0.5l-7.2-4.4
				c-2.9-1.8-6.6-1.8-9.4,0l-7.7,4.7c-4.1,2.3-8.8-0.6-8.8-5.3v-27.9c0-3.1-2.5-5.6-5.6-5.6H428c-3.1,0-5.6,2.5-5.6,5.6v104.7
				c0,3.1,2.5,5.6,5.6,5.6h116.5c3.1,0,5.6-2.5,5.6-5.6V153.9C550.1,150.7,547.6,148.1,544.4,148.1z"/>
		</g>
		<g>
			<path d="M497.3,48.5V20.9H475v27.6c8.2-4.1,8.8-5.3,11.1-5.3C488.6,43.2,489.1,44.4,497.3,48.5z"/>
			<path d="M544.4,20.9H513c-3.1,0-5.6,2.5-5.6,5.6v27.9c0,4.5-4.3,6.8-8.3,5.5c-0.4-0.1-0.6-0.3-0.9-0.5L491,55
				c-2.9-1.8-6.6-1.8-9.4,0l-7.7,4.7c-4.1,2.3-8.8-0.6-8.8-5.3V26.6c0-3.1-2.5-5.6-5.6-5.6H428c-3.1,0-5.6,2.5-5.6,5.6v104.7
				c0,3.1,2.5,5.6,5.6,5.6h116.5c3.1,0,5.6-2.5,5.6-5.6V26.6C550.1,23.5,547.6,20.9,544.4,20.9z"/>
		</g>
		<g>
			<path d="M497.3,303.3v-27H475v27c7.6-4.1,8.8-5.3,11.1-5.3C488.6,298,489.7,299.2,497.3,303.3z"/>
			<path d="M544.4,276.4H513c-3.1,0-5.6,2.5-5.6,5.6v27.9c0,4.3-4,6.7-7.9,5.6c-0.6-0.2-1-0.4-1.5-0.7l-6.8-4.5c-3.1-2-6.9-2-10,0
				l-7.4,4.9c-4.1,2.3-8.8-0.6-8.8-5.3V282c0-3.1-2.5-5.6-5.6-5.6h-31.5c-3.1,0-5.6,2.5-5.6,5.6v104.7c0,3.1,2.5,5.6,5.6,5.6h116.5
				c3.1,0,5.6-2.5,5.6-5.6V282C550.1,278.9,547.6,276.4,544.4,276.4z"/>
		</g>
	</g>
</g>
</svg>
