<?xml version="1.0" encoding="utf-8"?>
<!-- Generator: Adobe Illustrator 21.1.0, SVG Export Plug-In . SVG Version: 6.00 Build 0)  -->
<svg version="1.1" id="Layer_1" xmlns="http://www.w3.org/2000/svg" xmlns:xlink="http://www.w3.org/1999/xlink" x="0px" y="0px"
	 viewBox="0 0 369.4 512" style="enable-background:new 0 0 369.4 512;" xml:space="preserve">
<path d="M165.9,236.6c-4.7-44.1-24-86.1-46.1-124.2C107.5,90.9,21.9-10.1,3,0.8c-23.6,13.6,100.2,217.8,134.6,252.8
	c11.8,28,133.7,287.8,171.2,255C361.8,462,198.5,292.9,165.9,236.6z"/>
<path d="M174.7,268.2c16.1-25.1,31-51.5,36.6-67.8l1.5-50.4c0.7-2.8,3-10.7,4.4-13.4L294.8,2c2.9-5.1,12.2,0.6,9.4,5.4l-56.8,98.4
	l6.7,3.8l56.8-98.4c2.8-4.8,12.5,0.4,9.6,5.5l-56.8,98.4l6.7,3.8l56.8-98.4c2.8-4.8,12.4,0.4,9.4,5.4l-56.8,98.4l6.7,3.8l56.8-98.4
	c2.8-4.8,12.4,0.4,9.4,5.4l-56.8,98.4l6.7,3.8l56.8-98.4c2.8-4.8,12.5,0.4,9.6,5.5l-77.9,134.7l-9,10l-44,26.4
	c-11.2,12.9-26.3,38.5-39.6,64.9c-15.3,30.2-28.4,61-31.1,74.5c-7.7,38.5-30.1,84.9-55.1,115.6c-55.2,68-89.4,48.4-58.2-33.6
	c14.1-37,43.2-79.6,72.7-105.5C136.8,322.8,156.5,296.2,174.7,268.2L174.7,268.2z"/>
</svg>
