<?xml version="1.0" encoding="utf-8"?>
<!-- Generator: Adobe Illustrator 21.1.0, SVG Export Plug-In . SVG Version: 6.00 Build 0)  -->
<svg version="1.1" id="Layer_1" xmlns="http://www.w3.org/2000/svg" xmlns:xlink="http://www.w3.org/1999/xlink" x="0px" y="0px"
	 viewBox="0 0 109 512" style="enable-background:new 0 0 109 512;" xml:space="preserve">
<path d="M103.3,3.9c0-5.3-12.6-5-12.6,0V103c0,1.9-2,3.5-4.4,3.5l0,0c-2.4,0-4.4-1.6-4.4-3.5V3.9c0-5.3-12.4-5-12.4,0V103
	c0,1.9-2,3.5-4.4,3.5c-2.4,0-4.4-1.6-4.4-3.5V3.9c0-5.3-12.4-5-12.4,0V103c0,1.9-2,3.5-4.4,3.5c-2.4,0-4.4-1.6-4.4-3.5V3.9
	c0-5.3-12.6-5-12.6,0V103c0,1.9-2,3.5-4.4,3.5s-4.4-1.6-4.4-3.5V3.9c0-5-12.4-5.3-12.4,0c0,0-9.5,98.6-4.3,131.2
	c0.9,5.6,6.4,19.2,7.7,21.7c5.5,10.5,27.2,40.1,27.2,40.1l6.1,8.4c-0.8,35-4.2,144.1-16.6,198.5c-11.6,51.6-11,69.8-4.2,86.6
	c11.5,28.7,55,28.9,66.1,0c6.6-16.8,6.7-35-4.9-86.6c-14.1-62.1-13.9-136.5-16-199.9l4.8-7c0,0,22.4-29.9,28.4-40.5
	c2.8-5,6.7-15.6,7.6-21C112.6,102.7,103.3,3.9,103.3,3.9z"/>
</svg>
