<?xml version="1.0" encoding="utf-8"?>
<!-- Generator: Adobe Illustrator 21.1.0, SVG Export Plug-In . SVG Version: 6.00 Build 0)  -->
<svg version="1.1" id="Layer_2" xmlns="http://www.w3.org/2000/svg" xmlns:xlink="http://www.w3.org/1999/xlink" x="0px" y="0px"
	 viewBox="0 0 549.4 512" style="enable-background:new 0 0 549.4 512;" xml:space="preserve">
<g id="fill_1_">
	<path d="M204.4,450.1V512h58.8V380.8C229.9,386.2,204.4,415.2,204.4,450.1z"/>
	<path d="M286.3,380.7V512H345v-61.9C345,415.2,319.6,386.3,286.3,380.7z"/>
	<path d="M549.4,512l-0.5-284.3H430.3v34h-16.5v-26h-47.5v-85.9h-27.5v25.3h-11v-25.3h-27.5v25.3h-11.5v-25.5h-10V0h-8v149.7h-10
		v25.5h-11v-25.3h-28v25.3h-11v-25.3h-28v85.9h-47.5v26h-16.5v-34H0V512h188.6v-61.8c0-47.6,38.6-86.1,86.1-86.1h0
		c47.6,0,86.1,38.6,86.1,86.1V512H549.4z M217.2,212.7h-13v-13h13V212.7z M252.2,212.7h-13v-13h13V212.7z M282.2,212.7h-13v-13h13
		V212.7z M312.3,212.7h-13v-13h13V212.7z M347.3,212.7h-13v-13h13V212.7z"/>
	<path d="M531.4,163.5v17.1h17.5v-17.1H531.4z M505.9,163.5v17.1h18v-17.1H505.9z M480.9,163.5v17.1h18v-17.1H480.9z M455.9,163.5
		v17.1h17.5v-17.1H455.9z M430.3,185.6v30h118.6v-30H430.3z M430.3,163.5v17.1h18v-17.1H430.3z M407.8,60.5
		c-0.7-3.3-3.2-7.2-7.5-11.5c-5-5-11.2-9.3-18.5-13c-8.7-4.3-18.3-7-29-8l-0.5-11c-2-4.3-13.9-6.3-35.5-6c-10.7,0-21.2,0.5-31.5,1.5
		c4.3,9.7,5.8,20.8,4.5,33.5c-1,6.3-2.2,11.7-3.5,16c6-3,14.3-5,25-6c10.7-1.3,20.9-1,30.5,1v9c8-1,16.7-2,26-3c8-0.7,15-1,21-1
		c7,0,12.2,0.5,15.5,1.5c1.7,0.7,2.8,0.7,3.5,0C408.2,62.9,408.2,61.9,407.8,60.5z M100.6,163.5v16.1h18v-16.1H100.6z M75.6,163.5
		v16.1h17.5v-16.1H75.6z M50.5,163.5v16.1H68v-16.1H50.5z M25,163.5v16.1h18v-16.1H25z M0,185.1v30h118.6v-30H0z M0,163.5v16.1h18
		v-16.1H0z"/>
</g>
</svg>
