<?xml version="1.0" encoding="utf-8"?>
<!-- Generator: Adobe Illustrator 21.1.0, SVG Export Plug-In . SVG Version: 6.00 Build 0)  -->
<svg version="1.1" id="Layer_5" xmlns="http://www.w3.org/2000/svg" xmlns:xlink="http://www.w3.org/1999/xlink" x="0px" y="0px"
	 viewBox="0 0 512 512" style="enable-background:new 0 0 512 512;" xml:space="preserve">
<g>
	<g>
		<path d="M256,0C114.6,0,0,114.6,0,256s114.6,256,256,256s256-114.6,256-256S397.4,0,256,0z M332.8,162.9
			c16.7,0,30.2,16.7,30.2,37.2s-13.6,37.2-30.2,37.2s-30.2-16.7-30.2-37.2C302.5,179.6,316,162.9,332.8,162.9z M179.2,162.9
			c16.7,0,30.2,16.7,30.2,37.2s-13.6,37.2-30.2,37.2S149,220.8,149,200.2C148.9,179.6,162.4,162.9,179.2,162.9z M367.9,355.8
			c-3.9,6.7-12.5,8.9-19.3,5.1c-35.1-19.8-138.1-19.4-172.8,1.1c-16.1,9.7-30.6-14.5-14.6-24.1l0.2-0.1
			c43.4-25.6,157.1-26.1,201-1.4C369.5,340,372.1,348.9,367.9,355.8z"/>
	</g>
</g>
</svg>
