<?xml version="1.0" encoding="utf-8"?>
<!-- Generator: Adobe Illustrator 21.1.0, SVG Export Plug-In . SVG Version: 6.00 Build 0)  -->
<svg version="1.1" id="Layer_4" xmlns="http://www.w3.org/2000/svg" xmlns:xlink="http://www.w3.org/1999/xlink" x="0px" y="0px"
	 viewBox="0 0 454.6 512" style="enable-background:new 0 0 454.6 512;" xml:space="preserve">
<g id="fill">
	<path d="M454.6,471H0v41h454.6V471z"/>
	<path d="M448.9,173.8l-90.4-88.4c-4.8-4.6-12.4-4.6-17,0.2c-4.7,4.8-4.6,12.4,0.2,17L386,146v56.5c0,1.1,0.4,2.1,1.2,2.8l41.2,40.9
		v89.8c0,10.3-2.9,44.2-40.2,44.2s-40.2-33.8-40.2-44.2v-56.2c0-48.6-27.8-65-58.5-70.2l0-189.8c0-11-8.9-19.9-19.9-19.9H19.9
		C8.9,0,0,8.9,0,19.9v427.4h289.5l0-213.2c24.5,5.1,34.4,18.7,34.4,45.7v56.2c0,25.3,13.5,68.3,64.3,68.3
		c50.7,0,64.3-42.9,64.3-68.3V182.4C452.5,179.2,451.2,176.1,448.9,173.8z M106.1,313.1c-15.8,0-28.5-13.6-17.4-33.4
		c11.1-19.8,17.4-33.4,17.4-33.4s8.3,19.3,20,37.4C137.8,301.8,122,313.1,106.1,313.1z M135,231.1c11.1-19.8,17.4-33.4,17.4-33.4
		s8.3,19.3,20,37.4c11.7,18.1-4.1,29.5-20,29.5C136.6,264.5,123.9,250.9,135,231.1z M167.3,346.5c-15.8,0-31.7-11.3-20-29.5
		c11.7-18.1,20-37.4,20-37.4s6.3,13.6,17.4,33.4C195.8,333,183.1,346.5,167.3,346.5z M219.5,139.6c0,2.4-1.9,4.3-4.3,4.3H73.6
		c-2.4,0-4.3-1.9-4.3-4.3v-79c0-2.4,1.9-4.3,4.3-4.3h141.6c2.4,0,4.3,1.9,4.3,4.3V139.6z"/>
</g>
</svg>
