<?xml version="1.0" encoding="utf-8"?>
<!-- Generator: Adobe Illustrator 21.1.0, SVG Export Plug-In . SVG Version: 6.00 Build 0)  -->
<svg version="1.1" id="Layer_2" xmlns="http://www.w3.org/2000/svg" xmlns:xlink="http://www.w3.org/1999/xlink" x="0px" y="0px"
	 viewBox="0 0 640 512" style="enable-background:new 0 0 640 512;" xml:space="preserve">
<path d="M184.7,67.6c-15.2,1.7-28.4,8.8-38.1,19c-9.7,10.3-15.9,23.8-16.9,38.4l-0.2,36.8h62v67.3H129l-0.8,115.6
	C130.7,415.5,85,481.1,0,486.5L0,418.3c42.7-4.7,61.9-33.5,61.3-67.9c-0.2-13.8,0-69.2,0.3-121.2H0v-67.3h62
	c0.1-20,0.2-33.1,0.2-33.1C62.6,64.1,111.2,8.4,177,0.8C191.8-0.8,206,0,219.7,3l1.8,71.7C210.6,68.8,197.9,66.1,184.7,67.6z
	 M279.3,512l-3-4.3c-19.5-27.8-52.2-88.6-52.2-183.9c0.5-90.7,28.6-150.3,52.2-184.3l3-4.3h70.1l-9.5,15.3
	c-19.7,31.8-43.1,87.7-43.1,173.8c0,83.3,23.5,139.8,43.2,172.5L349,512H279.3z M435,381.9l-55.3,55.3L334.5,392l55.3-55.3
	l-55.3-55.3l45.2-45.2l55.3,55.3l55.3-55.3l45.2,45.2l-55.3,55.3l55.3,55.3l-45.2,45.2L435,381.9z M588.6,507.6l-3,4.4h-69.8l9-15.1
	c19.7-33,43.2-89.9,43.2-173.4c0-83.7-23.5-140.2-43.2-173l-9.1-15.2h69.8l3,4.3c23.8,34.6,52.1,94.5,52.1,183.8
	C640.2,413,612.1,473,588.6,507.6z"/>
</svg>
