<?xml version="1.0" encoding="utf-8"?>
<!-- Generator: Adobe Illustrator 21.1.0, SVG Export Plug-In . SVG Version: 6.00 Build 0)  -->
<svg version="1.1" id="Layer_1" xmlns="http://www.w3.org/2000/svg" xmlns:xlink="http://www.w3.org/1999/xlink" x="0px" y="0px"
	 viewBox="0 0 550 512" style="enable-background:new 0 0 550 512;" xml:space="preserve">
<g>
	<path d="M84.4,96.2c19.7,0,35.7-16,35.7-35.7s-16-35.7-35.7-35.7s-35.7,16-35.7,35.7S64.7,96.2,84.4,96.2z M499,351.1
		c-15.8,0-28.7,12.9-28.7,28.7c0,15.8,12.9,28.7,28.7,28.7s28.7-12.9,28.7-28.7C527.7,363.9,514.8,351.1,499,351.1z M314,131.4
		c12,0,21.7-9.7,21.7-21.7S326,88,314,88c-12,0-21.7,9.7-21.7,21.7C292.4,121.7,302.1,131.4,314,131.4z M392.8,61
		c9.7,0,17.4-7.7,17.4-17.4s-7.7-17.4-17.4-17.4s-17.4,7.7-17.4,17.4S383.2,61,392.8,61z M172.8,363.6
		c69.6-32.9,181.7-104.4,240.7-156.1c-2.7-7.1-6.1-14.2-10-21c-15.7-27-38.6-47.3-64.8-59.6c-5.9,7.5-15.1,12.4-25.3,12.4
		c-15.7,0-28.8-11.2-31.7-26.1c-26.6-0.9-53.8,5.3-78.5,19.5C133,173.2,109,262.9,149.5,333.1C156.1,344.6,163.9,354.8,172.8,363.6z
		 M206.4,281.5c6.2,0,11.2,5.1,11.2,11.2c0,6.2-5.1,11.2-11.2,11.2c-6.2,0-11.2-5.1-11.2-11.2C195.2,286.5,200.1,281.5,206.4,281.5z
		 M214.3,453.8c-9.2,0-16.7,7.5-16.7,16.7c0,9.2,7.5,16.7,16.7,16.7c9.2,0,16.7-7.5,16.7-16.7C231,461.3,223.6,453.8,214.3,453.8z
		 M53.4,258.1c0-14.6-11.8-26.3-26.3-26.3S0.6,243.5,0.6,258.1c0,14.6,11.8,26.3,26.3,26.3S53.4,272.7,53.4,258.1z M545.2,90
		c-17.6-17.1-80.9,1.3-159.1,39.2c0,0-2.6,1.1-3.3,1.3c2.3,1.5,5.9,4.4,7.8,6.9c59.3-26.8,105.4-38,118.6-24.2
		c23.5,24.9-74.5,122.1-215.1,210.8c-138.5,87.2-246,121.6-251.9,88.8c-3.5-19.1,26.7-56.9,76.9-100.8c-0.8-2-2.8-8.2-3.2-8.8
		c-0.8,0.6-2.5,2.2-3.6,3.3C47.2,361.1,6.6,409.2,10.1,433.1c5.6,38.7,129.2-0.7,287.6-100.3C460.7,230.4,573.9,117.8,545.2,90z
		 M349.9,386.9c42.3-24.3,67.8-66.7,72.6-111.9c-52.8,44.5-135.9,99.4-192.6,123.8C268.3,411.8,312,408.8,349.9,386.9z"/>
</g>
</svg>
