<?xml version="1.0" encoding="utf-8"?>
<!-- Generator: Adobe Illustrator 21.1.0, SVG Export Plug-In . SVG Version: 6.00 Build 0)  -->
<svg version="1.1" id="Layer_1" xmlns="http://www.w3.org/2000/svg" xmlns:xlink="http://www.w3.org/1999/xlink" x="0px" y="0px"
	 viewBox="0 0 370 512" style="enable-background:new 0 0 370 512;" xml:space="preserve">
<g>
	<path d="M221.7,512l54.9-91.7c8-13.5,11.9-23.8,12.5-33.4v-0.3c1.4-17.3-7.3-33-14.7-43.1L274,343l-0.3-0.5
		c-2.2-3.5-4.5-6.9-6.9-10.6c-7.4-11.2-15-22.7-21.6-34.9c-4.1,10.1-6.9,21.5-8.4,33.9l-5.6,48.2l-33-39.1
		c-9.9-11.7-18.7-24.4-26.1-37.7c-7-12.6-13.1-26.1-18-40.3c-4.9-14.3-9-29.5-12.2-46.1c-0.2,0.2-0.3,0.4-0.5,0.6
		C115,247.3,101.2,286.3,99,335.9v0.3v0.3c-1.5,18,0.3,35.7,5.5,52.4v0.1c6.6,22.2,20.7,41.6,39.6,54.6l47.9,33h-66.2l-4.1-1.5
		c-1.1-0.4-2.3-0.8-3.4-1.3c-8.5-3.1-17.3-6.4-25.9-10.9c-40.2-20.1-71-53.5-84.3-91.8c-5.4-15.1-8-31.4-8-48.5
		c0-15.2,2.2-31.1,6.5-47.4v-0.1c7.3-26.9,19.6-53.5,36.5-79c15.7-23.7,35.4-46.3,58.5-67.2l0.2-0.2c19.1-17,38.6-34.4,55.9-49.8
		l0.1-0.1c7-6.2,14.2-12.9,21-19.4c5.5-5.4,11.4-11.1,17.6-16.6l47.1-42.5l-10.6,58.2c-5.4,29.6-6.7,58.8-4,86.9
		c1,9.3,2.3,17.9,4.2,26c2.3-4.5,4.1-9.3,5.1-14.2l9.3-46.2l29.6,39.3c1.2,1.6,3.7,5.3,9.6,13.6c12.4,17.9,35.6,51.2,49.5,68.8
		c9.2,11.3,15.8,21.3,20.8,31.3c5.5,10.9,9.3,23.1,11.4,36c1.8,11.2,2.2,23.3,1.3,35.9v0.1c-3.2,40.2-24.8,79-59.7,106.4L221.7,512z
		"/>
	<path d="M266.7,409.6c-6.4,16.9-28.8,51.7-44.2,63c-23.4-15.2-51.2-50.6-58.6-75.4c-11.4-38.7,13.9-59.8,14.7-60.7
		C186,358,200.2,377.7,215,395c0,0,11.4,14.1,19,12.8c18-3.2,13.3-44.1,17.5-52.8c4.4,6.8,8.5,13.4,11.7,18.2
		C271,383.9,271,397.8,266.7,409.6z"/>
</g>
</svg>
