<?xml version="1.0" encoding="utf-8"?>
<!-- Generator: Adobe Illustrator 21.1.0, SVG Export Plug-In . SVG Version: 6.00 Build 0)  -->
<svg version="1.1" id="fill" xmlns="http://www.w3.org/2000/svg" xmlns:xlink="http://www.w3.org/1999/xlink" x="0px" y="0px"
	 viewBox="0 0 474 512" style="enable-background:new 0 0 474 512;" xml:space="preserve">
<path d="M464.1,150.1l-16.3-13.9c-9.9-8.5-24-8.9-34.3-2l-93.1-79.5c5.2-11.3,2.6-25.1-7.4-33.6L296.8,7.3c-12-10.2-30-8.8-40.2,3.2
	l-72.8,85.3c-10.2,12-8.8,30,3.2,40.2l16.3,13.9c9.9,8.5,24,8.9,34.3,2l24.2,20.7L140.9,313.9l-4.2-3.6
	c-12.1-10.3-23.2-7.2-31.5,2.5L7.3,427.5c-12.4,14.5-4.5,28,9,39.6l39.6,33.8c13.5,10.6,27.3,17.2,40.5,2.7l97.8-114.7
	c9.5-11.1,7.7-22.9-2.4-31.5l-5.7-4.9l120.8-141.6l23.9,20.4c-5.2,11.3-2.6,25.1,7.4,33.6l16.3,13.9c12,10.2,30,8.8,40.2-3.2
	l72.8-85.3C477.5,178.3,476.1,160.3,464.1,150.1z"/>
</svg>
