<?xml version="1.0" encoding="utf-8"?>
<!-- Generator: Adobe Illustrator 21.1.0, SVG Export Plug-In . SVG Version: 6.00 Build 0)  -->
<svg version="1.1" id="Layer_1" xmlns="http://www.w3.org/2000/svg" xmlns:xlink="http://www.w3.org/1999/xlink" x="0px" y="0px"
	 viewBox="0 0 543 512" style="enable-background:new 0 0 543 512;" xml:space="preserve">
<g>
	<g>
		<path d="M310.5,85.9h-0.1C309.8,85.9,309.8,85.9,310.5,85.9z M291.5,90.5l0.1-5.9c0,0,16.4,1,18.8,1.2c4.8,0.1,47.6,1,60.1-3.7
			c7.2-2.7,20.1-16.1,20.1-26.7c0-10.1-0.6-27.9-0.7-23C389.4,25.8,385,0.5,354,0.5c-30.6,0-58.3,62.4-73,63.3h-21.5
			c-17.4,0-40.9-62.9-73.1-62.9c-15.3,0-35.9,9-35.9,36.6c0.2,12-1.6,23.3,5.3,33.7c7.8,11.7,19.2,13.9,29.3,14.7
			c6.6,0.6,36.9,0.7,44.4,0.4c2.4,0,18.9-0.8,18.9-0.8v5h-36v103l331-1v-102H291.5z M354,21c22.3-0.1,31.4,16.1,32.3,18
			c6.4,14.2-22,25.7-22,25.7s-55,6.7-54.7-4.1C306.7,50.2,342.3,18.4,354,21z M230.3,61c0.1,2.8-3.2,5.3-9.5,5.3
			c-11.5,0.3-21.3,0.3-29.3,0c-55.1-4.2-42.3-44-5.2-44.9c10.5,0,20.8,8,29.3,16.8C224.7,47.5,232.9,56.2,230.3,61z M0.5,193.5
			l194-1v-102H0.5V193.5z M14,512l180.5,0.5v-302H14.2L14,512z M212.5,210.5v302L530,512l-0.3-301.5H212.5z"/>
	</g>
</g>
</svg>
