<?xml version="1.0" encoding="utf-8"?>
<!-- Generator: Adobe Illustrator 21.1.0, SVG Export Plug-In . SVG Version: 6.00 Build 0)  -->
<svg version="1.1" id="Layer_3" xmlns="http://www.w3.org/2000/svg" xmlns:xlink="http://www.w3.org/1999/xlink" x="0px" y="0px"
	 viewBox="0 0 347 512" style="enable-background:new 0 0 347 512;" xml:space="preserve">
<path d="M346.7,81C344.6,47.9,269,20.5,269,20.5s-72.6-33.2-97.5-11c-35.9,32.1-59.1,88.2-61.4,93.8
	c-34.2,83.9,5.4,133.1,29.6,168.3c12.9,18.7-4.1,50-4.1,50L93,428.2c-45.2-16.5-85.4-17.4-92.1-1c-7.1,17.4,26.7,47.6,75.6,67.6
	c48.8,19.9,94.1,22,101.2,4.6c6.7-16.4-23.3-44.5-68.1-64.3l44.2-106c0,0,9.8-34.3,32-38.5c42-8.1,104.7-15.6,138.9-99.6
	C327.2,185.4,349.8,129.1,346.7,81z M335.4,79.8c-4.3,10.6-42.7,5.1-85.6-12.4c-43-17.5-74.1-40.4-69.8-51.1
	c4.9-12.3,42.6-5.2,85.6,12.4C308.5,46.2,340.4,67.7,335.4,79.8z"/>
</svg>
