<?xml version="1.0" encoding="utf-8"?>
<!-- Generator: Adobe Illustrator 21.1.0, SVG Export Plug-In . SVG Version: 6.00 Build 0)  -->
<svg version="1.1" id="Layer_2" xmlns="http://www.w3.org/2000/svg" xmlns:xlink="http://www.w3.org/1999/xlink" x="0px" y="0px"
	 viewBox="0 0 550 512" style="enable-background:new 0 0 550 512;" xml:space="preserve">
<path d="M550,315.2c0,0.4,0,0.8,0,1.2c0,74.3-60.4,134.4-134.6,134.4c-19.4,0-37.8-4.1-54.5-11.5c-0.1,0-0.1-0.1-0.2-0.1
	c-48.7-20.7-83-69.1-83-125.3c0-27.9,8.7-55.3,24.6-78.1h-53.4c15.9,22.7,24.6,50.2,24.6,78.1c0,64.2-44.6,118.1-104.5,132.4
	c-11.1,2.9-22.7,4.5-34.6,4.5C60.2,450.8,0,390.6,0,316.4c0-20,4.4-39,12.2-56.1c4.4-10.3,10-20,16.9-28.9H29l5.3-6.5l129-155.4
	l0.7-0.6c6.5-5.4,14.7-7.7,22.5-6.1c7.9,1.6,14.7,6.8,18.8,14.3l7.2,12.3c2.2,4.9,1.8,10.5-1,14.9c-2.8,4.5-7.7,7.2-13.1,7.3
	c-5.3,0-10-2.4-12.9-6.5l-4.6-6.3l-68,81.1c8.1-1.5,16.3-2.2,24.5-2.2c27.3,0,53.6,8,76.1,23.3c4.3,1.1,19.4,4.1,62.1,4.1
	c42.7,0,57.8-2.9,62.1-4.1c22.5-15.2,48.8-23.3,76.1-23.3c8.2,0,16.4,0.7,24.5,2.2l-68.1-81.1l-4.6,6.3c-3,4.2-7.8,6.7-12.9,6.5
	c-5.3-0.1-10.2-2.8-13-7.3c-2.9-4.6-3.2-10.2-1-15l0.5-0.9l6.7-11.3c4-7.5,10.9-12.7,18.8-14.2c8-1.5,16.2,0.7,22.6,6.1l0.8,0.7
	l0.6,0.7l129.9,156.4c20.3,24.5,31.5,55.4,31.4,87.1C550,314.3,550,314.8,550,315.2z"/>
</svg>
