<?xml version="1.0" encoding="utf-8"?>
<!-- Generator: Adobe Illustrator 21.1.0, SVG Export Plug-In . SVG Version: 6.00 Build 0)  -->
<svg version="1.1" id="Layer_4" xmlns="http://www.w3.org/2000/svg" xmlns:xlink="http://www.w3.org/1999/xlink" x="0px" y="0px"
	 viewBox="0 0 232 512" style="enable-background:new 0 0 232 512;" xml:space="preserve">
<g>
	<path d="M125,445.6l0.9-114.8c0,0-3.9-35.4,15.1-47.8c35.8-23.4,91-54,91-144.7c0-6-0.4-66.7-21.4-110
		C196.1-1.6,115.8,1.6,115.8,1.6S36-1.7,21.4,28.3C0.3,71.6,0,132.3,0,138.3c0,90.6,55.3,121.2,91,144.6
		c19,12.4,15.1,47.8,15.1,47.8l0.9,114.8c-48.1,1.8-85.6,16.2-85.6,33.9c0,18.8,42.7,34,95.5,34c52.7,0,95.4-15.2,95.4-34
		C212.3,461.7,173.9,447,125,445.6z M115.8,52.3c-46.4,0-83.9-9.4-83.9-20.9c0-13.2,37.6-20.9,83.9-20.9s83.9,7.8,83.9,20.9
		C199.7,42.9,162.1,52.3,115.8,52.3z"/>
</g>
</svg>
