<?xml version="1.0" encoding="utf-8"?>
<!-- Generator: Adobe Illustrator 21.1.0, SVG Export Plug-In . SVG Version: 6.00 Build 0)  -->
<svg version="1.1" id="Layer_3" xmlns="http://www.w3.org/2000/svg" xmlns:xlink="http://www.w3.org/1999/xlink" x="0px" y="0px"
	 viewBox="0 0 550 512" style="enable-background:new 0 0 550 512;" xml:space="preserve">
<g>
	<path d="M549.2,412.8c-5.3-13-37.2-12.4-73.1,0.8l-33.8-84.9c0,0-13.5-24.9-3.2-39.7c19.2-28,50.7-67.1,23.5-133.9
		c-1.8-4.4-20.2-49-48.7-74.6c-19.8-17.8-77.4,8.7-77.4,8.7s-57.3,20.9-61.5,46.4c-4.1-25.6-61.5-46.4-61.5-46.4
		s-57.6-26.5-77.4-8.7c-28.5,25.6-46.9,70.2-48.7,74.6C60.4,221.9,91.8,261,111.1,289c10.3,14.8-3.2,39.7-3.2,39.7L74,413.6
		C38.2,400.6,6.3,399.9,1,412.8c-5.7,13.8,21.2,37.9,60,53.8c38.8,15.8,74.6,17.5,80.3,3.7c5.3-13-18.5-35.4-54-51.2l35.1-84.4
		c0,0,7.8-27.3,25.4-30.7c33.4-6.4,83.1-12.4,110.2-79.2c1.5-3.7,14.5-36.2,17.1-69.2c2.5,33,15.6,65.6,17.1,69.2
		c27.2,66.8,77,72.8,110.2,79.2c17.7,3.4,25.4,30.7,25.4,30.7l35.1,84.4c-35.5,15.7-59.3,38.1-54,51.2c5.7,13.8,41.5,12.2,80.3-3.7
		C528.1,450.7,554.9,426.7,549.2,412.8z M266.4,136.4c-3.5,8.4-33.9,4.1-67.9-9.8c-34.1-13.9-58.9-32.1-55.4-40.6
		c3.9-9.8,33.8-4.1,67.9,9.8C245,109.6,270.3,126.7,266.4,136.4z M351.7,126.5c-34,13.9-64.4,18.4-67.9,9.8
		c-3.9-9.7,21.3-26.7,55.4-40.6c34.1-13.9,64-19.7,67.9-9.8C410.6,94.4,385.9,112.5,351.7,126.5z"/>
	<polygon points="321.1,67 315.9,61.2 288.5,88 294.4,94 	"/>
	<polygon points="262.5,88 235.2,61.2 230,67 256.7,94 	"/>
	<rect x="271.6" y="35" width="7.1" height="49.8"/>
</g>
</svg>
