<?xml version="1.0" encoding="utf-8"?>
<!-- Generator: Adobe Illustrator 21.1.0, SVG Export Plug-In . SVG Version: 6.00 Build 0)  -->
<svg version="1.1" id="Layer_1" focusable="false" xmlns="http://www.w3.org/2000/svg" xmlns:xlink="http://www.w3.org/1999/xlink"
	 x="0px" y="0px" viewBox="0 0 513.2 512" style="enable-background:new 0 0 513.2 512;" xml:space="preserve">
<path d="M489.8,0.7c-2-0.4-4.1-0.7-6.4-0.7H29.7c-0.5,0-1,0-1.5,0C6.1,1.2-6.1,24.9,3.3,43.1c0.7,1.3,1.4,2.5,2.3,3.8
	c0.9,1.2,1.8,2.4,3,3.5l200,224.8v167.5h-59.7c-17.7,0-32.4,13-35.1,30c0,0,0,0,0,0.1c-0.2,1.4-0.3,2.8-0.3,4.3V512H400v-33.6
	c0-19.7-16-35.7-35.7-35.7h-59.7V275.2L498.7,57l5.9-6.6C521.4,33.2,511.7,5.3,489.8,0.7z M162.6,114.6l-38.3-45.3H399l-40.1,44
	L162.6,114.6z"/>
</svg>
