<?xml version="1.0" encoding="utf-8"?>
<!-- Generator: Adobe Illustrator 21.1.0, SVG Export Plug-In . SVG Version: 6.00 Build 0)  -->
<svg version="1.1" id="Layer_1" xmlns="http://www.w3.org/2000/svg" xmlns:xlink="http://www.w3.org/1999/xlink" x="0px" y="0px"
	 viewBox="0 0 512 512" style="enable-background:new 0 0 512 512;" xml:space="preserve">
<style type="text/css">
	.st0{fill:#010101;}
</style>
<path class="st0" d="M84.4,65.6c15.6,7.7,31.7,14.3,48.1,19.8c8.6-26,19.1-49,31-68.2C134.1,28.4,107.4,45,84.4,65.6z M54.7,97
	C24,135.6,4.2,183.2,0,235.3h107.4c1.2-38.5,5.9-75.3,13.9-109.9C98.5,117.9,76.2,108.3,54.7,97z M107.4,276.8H0
	c4.2,52,24,99.7,54.7,138.3c21.4-11.3,43.7-20.9,66.6-28.4C113.4,352.1,108.7,315.2,107.4,276.8z M132.5,426.5
	c-16.5,5.5-32.6,12.2-48.2,19.8c23,20.7,49.8,37.2,79.2,48.5C151.5,475.6,141,452.6,132.5,426.5z M172.1,415.5
	c15.9,46.9,38.5,81.5,61.8,95.5c0.5,0.3,1.1,0.6,1.6,0.9V407C214.2,408.1,192.9,411,172.1,415.5z M148.5,276.8
	c1.2,35,5.4,68.1,12.3,98.8c24.4-5.5,49.5-8.9,74.7-10.1v-88.7H148.5z M160.9,136.3c-7,30.7-11.2,63.9-12.4,98.9h87.1v-88.8
	C210.4,145.2,185.3,141.8,160.9,136.3z M233.9,0.9c-23.3,13.9-45.9,48.6-61.8,95.4c20.8,4.6,42.1,7.4,63.4,8.5V0
	C235,0.3,234.5,0.6,233.9,0.9z M457.2,96.9c-21.6,11.4-44.2,21-67.3,28.6c8,34.5,12.6,71.3,13.9,109.7H512
	C507.8,183.2,488,135.5,457.2,96.9z M347.6,16.8c12.1,19.3,22.7,42.5,31.3,68.8c16.6-5.5,33-12.3,48.8-20
	C404.4,44.7,377.3,28.1,347.6,16.8z M277.1,0.9c-0.2-0.1-0.4-0.3-0.7-0.4v104.4c21.1-1.1,42.2-3.9,62.7-8.4
	C323.3,49.5,300.5,14.8,277.1,0.9z M350.4,136.4c-24.2,5.5-49,8.8-74,10v88.8h86.3C361.6,200.2,357.4,167,350.4,136.4z M276.4,276.8
	v88.7c24.9,1.2,49.8,4.5,74,10c7-30.6,11.1-63.7,12.3-98.7H276.4z M276.4,407v104.5c0.2-0.1,0.4-0.2,0.6-0.4
	c23.4-13.9,46.2-48.7,62.2-95.8C318.6,410.9,297.6,408.1,276.4,407z M378.9,426.3c-8.6,26.3-19.2,49.6-31.3,68.9
	c29.8-11.3,56.9-28,80.2-48.9C411.9,438.6,395.6,431.9,378.9,426.3z M403.8,276.8c-1.2,38.3-5.9,75.1-13.8,109.6
	c23.1,7.6,45.6,17.2,67.3,28.7c30.7-38.6,50.5-86.2,54.7-138.3H403.8z"/>
</svg>
