<?xml version="1.0" encoding="utf-8"?>
<!-- Generator: Adobe Illustrator 21.1.0, SVG Export Plug-In . SVG Version: 6.00 Build 0)  -->
<svg version="1.1" id="Shape_1_1_" xmlns="http://www.w3.org/2000/svg" xmlns:xlink="http://www.w3.org/1999/xlink" x="0px" y="0px"
	 viewBox="0 0 525.1 512" style="enable-background:new 0 0 525.1 512;" xml:space="preserve">
<g>
	<g>
		<path d="M525.1,302.6c0,0,0-231.1-18.4-285.6C494.9-7.3,480.5,5.3,470,11.4c-14.4,8.4-24.9,14.8-28.1,18c-7,7.1-1.8,22.7,5.2,16.4
			c1.6-1.5,28.1-20.1,37.1-21.6c9.7-1.7,14.2,44.4,17.1,87.1c2.4,35.4,2.9,83.7,2.7,126.4c-14.5-20.2-36-34.2-62.6-38.2
			c-63.8-9.4-221.7-41.1-244.5-41.5c-14.9-0.2-68.7-25.7-121.2-44.2c45.8-10,113.5-24.5,163.5-33.8c12.1-2.3,59.5-10,87.2,11.8
			c36.8,28.9,68,59.6,70.9,62.2c13.2,11.6,34.3-4.3,21.3-16.6c-5.7-5.4-30-27.5-53.4-45.2c-30-22.7-63-40.7-101.7-34.8
			C196.1,67.8,75.2,93.5,37,101.7c-2.3-0.6-4.5-1.2-6.7-1.7C-11,90.1,2,179,1.9,183c3.9,105.8,34.4,199.4,70.9,211.4
			c38.2,15.3,83.6-38.5,92-108.6c1.6-13.3,5-26.5,3.6-40.7c3.5-4.9,31.5,14.1,31.8,19.2c2.4,36,9.5,76.1,28.4,113.5
			c34.9,68.8,109.5,99.5,152.4,99.5c64.6,0,114.9-46.4,138.2-128.5C523.7,333.1,525.5,317.5,525.1,302.6L525.1,302.6z"/>
	</g>
</g>
</svg>
