<?xml version="1.0" encoding="utf-8"?>
<!-- Generator: Adobe Illustrator 21.1.0, SVG Export Plug-In . SVG Version: 6.00 Build 0)  -->
<svg version="1.1" id="Layer_2" xmlns="http://www.w3.org/2000/svg" xmlns:xlink="http://www.w3.org/1999/xlink" x="0px" y="0px"
	 viewBox="0 0 363.2 512" style="enable-background:new 0 0 363.2 512;" xml:space="preserve">
<path d="M182.7,280.7c77.5,0,140.3-62.8,140.3-140.3C323.1,62.8,260.2,0,182.7,0C105.2,0,42.4,62.8,42.4,140.3
	C42.4,217.8,105.2,280.7,182.7,280.7z M191.3,276.8c-2.8,0.2-5.7,0.3-8.6,0.3c-3.9,0-7.8-0.2-11.7-0.5c-1.3-3.8-0.4-8.2,2.7-11.2
	c4.3-4.2,11.1-4.1,15.2,0.2C191.9,268.6,192.7,273,191.3,276.8z M178.4,178c2.9-2.8,7.5-2.8,10.3,0.1c2.8,2.9,2.8,7.5-0.1,10.3
	c-2.9,2.8-7.5,2.8-10.3-0.1C175.4,185.5,175.5,180.9,178.4,178z M190.1,225.9c-3.4-3.5-3.3-9.1,0.1-12.5c3.5-3.4,9.1-3.4,12.5,0.1
	c3.4,3.5,3.4,9.1-0.1,12.5C199.1,229.5,193.5,229.4,190.1,225.9z M198.6,162.8c2.9-2.8,7.5-2.8,10.3,0.1c2.8,2.9,2.8,7.5-0.1,10.3
	c-2.9,2.8-7.5,2.8-10.3-0.1C195.7,170.2,195.8,165.6,198.6,162.8z M219,261.6c-4.3,4.2-11.1,4.1-15.2-0.2
	c-4.2-4.2-4.1-11.1,0.2-15.2c4.3-4.2,11.1-4.1,15.2,0.2C223.4,250.6,223.3,257.4,219,261.6z M218.4,202.5c-3.4-3.5-3.3-9.1,0.2-12.5
	c3.5-3.4,9.1-3.4,12.5,0.1c3.4,3.5,3.3,9.1-0.1,12.5C227.4,206.1,221.8,206,218.4,202.5z M226.5,117.6c-2.3,2.3-6,2.2-8.3-0.1
	c-2.3-2.3-2.2-6,0.1-8.3c2.3-2.3,6-2.2,8.3,0.1C228.9,111.6,228.9,115.3,226.5,117.6z M233.6,145.7c2.8,2.9,2.8,7.5-0.1,10.3
	s-7.5,2.8-10.3-0.1c-2.8-2.9-2.8-7.5,0.1-10.3C226.1,142.8,230.7,142.9,233.6,145.7z M228,222.8c4.2-4.2,11.1-4.1,15.2,0.2
	c4.2,4.3,4.1,11.1-0.2,15.2c-4.3,4.1-11.1,4.1-15.2-0.2C223.6,233.8,223.7,226.9,228,222.8z M256.7,98.9c2.9-2.8,7.5-2.8,10.3,0.1
	c2.8,2.9,2.8,7.5-0.1,10.3c-2.9,2.8-7.5,2.8-10.3-0.1C253.8,106.4,253.8,101.7,256.7,98.9z M258.1,69.8c2.9-2.8,7.5-2.8,10.3,0.1
	c2.8,2.9,2.8,7.5-0.1,10.3c-2.9,2.8-7.5,2.8-10.3-0.1C255.2,77.2,255.2,72.6,258.1,69.8z M280.1,144.7c3.4,3.5,3.3,9.1-0.1,12.5
	c-3.5,3.4-9.1,3.3-12.5-0.1c-3.4-3.5-3.4-9.1,0.1-12.5C271.1,141.1,276.7,141.1,280.1,144.7z M259.3,169.1c3.4,3.5,3.4,9.1-0.1,12.5
	c-3.5,3.4-9.1,3.3-12.5-0.1c-3.4-3.5-3.4-9.1,0.1-12.5C250.3,165.5,255.9,165.6,259.3,169.1z M235,266.7c-1.4-3.9-0.5-8.3,2.6-11.4
	c4.3-4.2,11.1-4.1,15.2,0.2c0.5,0.5,0.9,1,1.2,1.5C248,260.7,241.6,263.9,235,266.7z M251.7,214.6c-4.2-4.2-4.1-11.1,0.2-15.2
	c4.2-4.2,11.1-4.1,15.2,0.2c4.2,4.3,4.1,11.1-0.2,15.2C262.7,219,255.9,218.9,251.7,214.6z M264.4,250c-3.6-4.3-3.4-10.6,0.7-14.6
	c4.3-4.1,11.1-4.1,15.2,0.2c0.1,0.1,0.2,0.2,0.2,0.3C275.5,241,270.1,245.7,264.4,250z M275.6,191.2c-4.1-4.2-4.1-11.1,0.2-15.2
	c4.2-4.2,11.1-4.1,15.2,0.2c4.2,4.3,4.1,11.1-0.2,15.2C286.6,195.6,279.8,195.5,275.6,191.2z M288.5,226.9
	c-3.8-4.3-3.7-10.8,0.5-14.9c3.1-3.1,7.7-3.8,11.5-2.3C297,215.8,292.9,221.5,288.5,226.9z M306.7,198c-3.7-4.3-3.4-10.7,0.6-14.7
	c1.7-1.7,3.9-2.7,6.1-3C311.6,186.4,309.4,192.3,306.7,198z M319.4,138.3c-4,1.8-8.8,1-12-2.3c-4.1-4.2-4.1-11.1,0.2-15.2
	c2.7-2.7,6.6-3.6,10-2.8C318.7,124.6,319.3,131.4,319.4,138.3z M307.4,88.6c0.5-0.4,0.9-0.8,1.5-1.2c2.7,6.3,4.8,12.9,6.5,19.6
	c-2.9,0.1-5.9-0.9-8.2-3.2C303,99.6,303.1,92.8,307.4,88.6z M299.7,152.7c4.2-4.2,11.1-4.1,15.2,0.2c2,2,3,4.7,3.1,7.3
	c-0.2,1.2-0.4,2.5-0.6,3.7c-0.5,1.5-1.4,3-2.6,4.2c-4.3,4.1-11.1,4.1-15.2-0.2C295.4,163.6,295.5,156.8,299.7,152.7z M293.8,91.8
	c-3.5,3.4-9.1,3.3-12.5-0.1c-3.4-3.5-3.3-9.1,0.1-12.5c3.5-3.4,9.1-3.4,12.5,0.1C297.4,82.8,297.3,88.4,293.8,91.8z M279.6,46.7
	c0.5-0.5,1-0.9,1.6-1.3c4,4.2,7.8,8.6,11.3,13.3c-0.2,0.2-0.3,0.4-0.5,0.6c-3.5,3.4-9.1,3.3-12.5-0.1
	C276,55.8,276.1,50.2,279.6,46.7z M276.5,112.1c3.5-3.4,9.1-3.4,12.5,0.1c3.4,3.5,3.3,9.1-0.1,12.5c-3.5,3.4-9.1,3.4-12.5-0.1
	C272.9,121.1,273,115.5,276.5,112.1z M269.9,40.7c2.8,2.9,2.8,7.5-0.1,10.3c-2.9,2.8-7.5,2.8-10.3-0.1c-2.8-2.9-2.8-7.5,0.1-10.3
	C262.4,37.8,267,37.8,269.9,40.7z M251.9,30.2c2.3-2.3,6-2.2,8.3,0.1c2.3,2.3,2.2,6-0.1,8.3c-2.3,2.3-6,2.2-8.3-0.1
	C249.6,36.2,249.6,32.5,251.9,30.2z M241.1,125.2c2.9-2.8,7.5-2.8,10.3,0.1c2.8,2.9,2.8,7.5-0.1,10.3c-2.9,2.8-7.5,2.8-10.3-0.1
	C238.2,132.6,238.2,128,241.1,125.2z M225.8,55.8c2.3-2.3,6-2.2,8.3,0.1c2.3,2.3,2.2,6-0.1,8.3c-2.3,2.3-6,2.2-8.3-0.1
	C223.4,61.8,223.5,58,225.8,55.8z M212.7,68.5c2.3-2.3,6-2.2,8.3,0.1c2.3,2.3,2.2,6-0.1,8.3c-2.3,2.3-6,2.2-8.3-0.1
	C210.3,74.5,210.4,70.8,212.7,68.5z M199.6,81.3c2.3-2.3,6-2.2,8.3,0.1c2.3,2.3,2.2,6-0.1,8.3c-2.3,2.3-6,2.2-8.3-0.1
	C197.3,87.3,197.3,83.6,199.6,81.3z M205,126.6c2.3,2.3,2.2,6-0.1,8.3c-2.3,2.3-6,2.2-8.3-0.1c-2.3-2.3-2.2-6,0.1-8.3
	C199,124.2,202.7,124.3,205,126.6z M186.6,94.1c2.3-2.3,6-2.2,8.3,0.1c2.3,2.3,2.2,6-0.1,8.3c-2.3,2.3-6,2.2-8.3-0.1
	C184.2,100.1,184.3,96.3,186.6,94.1z M176,142.2c2.3-2.3,6-2.2,8.3,0.1c2.3,2.3,2.2,6-0.1,8.3c-2.3,2.3-6,2.2-8.3-0.1
	C173.7,148.2,173.7,144.5,176,142.2z M171.7,247.1c-3.5,3.4-9.1,3.4-12.5-0.1c-3.4-3.5-3.3-9.1,0.1-12.5c3.5-3.4,9.1-3.3,12.5,0.1
	C175.3,238.1,175.2,243.7,171.7,247.1z M168.9,205.2c-2.9,2.8-7.5,2.8-10.3-0.1c-2.8-2.9-2.8-7.5,0.1-10.3c2.9-2.8,7.5-2.8,10.3,0.1
	C171.8,197.7,171.8,202.4,168.9,205.2z M160.4,119.6c2.3-2.3,6-2.2,8.3,0.1c2.3,2.3,2.2,6-0.1,8.3c-2.3,2.3-6,2.2-8.3-0.1
	C158.1,125.6,158.1,121.9,160.4,119.6z M155.6,157.9c2.3-2.3,6-2.2,8.3,0.1c2.3,2.3,2.2,6-0.1,8.3c-2.3,2.3-6,2.2-8.3-0.1
	C153.2,163.9,153.2,160.2,155.6,157.9z M153.8,274c-6.9-1.5-13.6-3.5-20.1-6c0.2-2.6,1.2-5.1,3.2-7c4.2-4.1,11.1-4.1,15.2,0.2
	C155.6,264.7,156.1,269.9,153.8,274z M146.9,219.5c-2.9,2.8-7.5,2.8-10.3-0.1c-2.8-2.9-2.8-7.5,0.1-10.3c2.9-2.8,7.5-2.8,10.3,0.1
	C149.8,212.1,149.8,216.7,146.9,219.5z M134.5,174.1c2.3-2.3,6-2.2,8.3,0.1c2.3,2.3,2.2,6-0.1,8.3c-2.3,2.3-6,2.2-8.3-0.1
	C132.1,180.1,132.2,176.4,134.5,174.1z M131.5,251.3c-3.5,3.4-9.1,3.3-12.5-0.1c-3.4-3.5-3.4-9.1,0.1-12.5c3.5-3.4,9.1-3.4,12.5,0.1
	C135.1,242.3,135,247.9,131.5,251.3z M121.2,157.9c2.3-2.3,6-2.2,8.3,0.1c2.3,2.3,2.2,6-0.1,8.3c-2.3,2.3-6,2.2-8.3-0.1
	C118.9,163.9,118.9,160.2,121.2,157.9z M113.6,188.4c2.3-2.3,6-2.2,8.3,0.1c2.3,2.3,2.2,6-0.1,8.3c-2.3,2.3-6,2.2-8.3-0.1
	C111.3,194.4,111.3,190.7,113.6,188.4z M107.4,216.4c2.9-2.8,7.5-2.8,10.3,0.1c2.8,2.9,2.8,7.5-0.1,10.3c-2.9,2.8-7.5,2.8-10.3-0.1
	C104.5,223.8,104.5,219.2,107.4,216.4z M104.8,252.7c-4.7-3.2-9.1-6.7-13.3-10.5c3.5-2.4,8.3-2.1,11.4,1.1
	C105.5,245.9,106.1,249.6,104.8,252.7z M92.5,200.6c2.3-2.3,6-2.2,8.3,0.1c2.3,2.3,2.2,6-0.1,8.3c-2.3,2.3-6,2.2-8.3-0.1
	C90.1,206.6,90.2,202.9,92.5,200.6z M72.6,205.9c-2.3,2.3-6,2.2-8.3-0.1c-2.3-2.3-2.2-6,0.1-8.3c2.3-2.3,6-2.2,8.3,0.1
	C75,199.9,74.9,203.7,72.6,205.9z M81.6,218.2c2.9-2.8,7.5-2.8,10.3,0.1c2.8,2.9,2.8,7.5-0.1,10.3c-2.9,2.8-7.5,2.8-10.3-0.1
	C78.6,225.7,78.7,221,81.6,218.2z"/>
<path d="M182.3,301.7c-60,0-112.2-32.9-139.7-81.7H1.4c28.1,64.7,89.9,111.3,163.2,117.9L176.4,512h11.3l11.9-174.1
	c73.5-6.4,135.4-53.1,163.5-117.9H322C294.5,268.8,242.3,301.7,182.3,301.7z"/>
</svg>
