<?xml version="1.0" encoding="utf-8"?>
<!-- Generator: Adobe Illustrator 21.1.0, SVG Export Plug-In . SVG Version: 6.00 Build 0)  -->
<svg version="1.1" id="Layer_2" xmlns="http://www.w3.org/2000/svg" xmlns:xlink="http://www.w3.org/1999/xlink" x="0px" y="0px"
	 viewBox="0 0 268.1 512" style="enable-background:new 0 0 268.1 512;" xml:space="preserve">
<path d="M268.2,471.9c0-0.1-0.1-0.2-0.1-0.3l0,0l-21.2-90.3c13-22.4,19.6-53.7,16.7-86.7c-4.5-50.5-30.4-93.6-61.7-104.9l-7-29.7
	c-0.1-0.4-0.3-0.7-0.6-1c-3.8-3.8-20.7-3.7-44.2,0L139.3,99c3.2,0.2,1-12,23.7-11.8c15.1,0.2,36.8-13.9,37-24
	c0.4-9.9-11.6-18.1-26.5-18.5C151.7,44.2,116,65.8,131.1,90l12.8,70c-2.3,0.4-4.8,1-7.1,1.3l-42.7-100c3.4-0.4-1.7-12,20.6-16.8
	c14.7-3.2,32.8-21.7,30.9-31.7c-2.1-9.7-15.6-15.3-30.3-12C94.1,5.3,64.2,34.1,83.8,54.5l46.4,108.2c-5,1.1-9.9,2.3-15.1,3.6
	c-0.2,0.2-0.4,0-0.6,0.2l-33-85.7c0.2-28.4-41.6-28.2-59.7-16.6C9.2,72.3,3.1,85.6,8.5,94c5.3,8.4,31.5,9,44.1,1
	c19.3-12,23.8-0.2,26.3-2.3l29,75.2c-4.8,1.3-9.3,2.5-13.7,3.8L72.2,139c-6.3-27.7-46.5-18.3-62-2.9C-0.3,146.7-3.2,161,3.9,168
	c7.1,7.1,32.8,1.9,43.3-8.6c16.2-16.2,23.1-5.5,25.2-8L87.6,174c-27.9,8.8-47.1,18.5-46.2,24l0.2,0.2l13.1,57.7
	c-13.1,6.6-20.5,21.6-16.9,36.4l3.3,13.7l23.7-5.7l2.1,9.1l-23.6,5.7l17,71c3.4,14.2,15.8,23.9,29.6,24.8l21.5,94.4
	c0,0.1,0,0.2,0,0.3c1.9,8.8,38.5,8.5,81.8-0.8C236.6,495.4,270.1,480.7,268.2,471.9z M253.8,293.6c2.4,27.4-1.6,53-10.2,73.6
	l-40.4-172.3C229.4,210.9,249.8,248.4,253.8,293.6z M186.1,161c0.8,2.7-12.4,8.6-32.8,14.9l-2.3-13
	C171.2,159.1,185.3,158.3,186.1,161z M144.1,164l2.5,13.9c-1,0.2-1.7,0.6-2.7,0.8l-5.5-13.5C140.3,164.8,142.2,164.4,144.1,164z
	 M131.7,166.5l5.9,13.9c-5.2,1.3-10.7,3.1-16.4,4.2l-5.5-14.3C121.2,169,126.5,167.9,131.7,166.5z M109.2,171.9l5.5,14.3
	c-3.1,0.8-6.3,1.3-9.3,2.1l-8.8-13C100.8,174.1,105,173,109.2,171.9z M49.9,194.6c-0.8-3.1,15.8-10.1,40.1-17.2l8.4,12.6
	C70.8,195.7,50.4,197.8,49.9,194.6z"/>
</svg>
