<?xml version="1.0" encoding="utf-8"?>
<!-- Generator: Adobe Illustrator 21.1.0, SVG Export Plug-In . SVG Version: 6.00 Build 0)  -->
<svg version="1.1" id="Layer_2" xmlns="http://www.w3.org/2000/svg" xmlns:xlink="http://www.w3.org/1999/xlink" x="0px" y="0px"
	 viewBox="0 0 550 512" style="enable-background:new 0 0 550 512;" xml:space="preserve">
<g>
	<path d="M174.3,391.5c7,11.3,11.1,24.5,11.1,38.7c0,4.2-0.4,8.1-1.1,12h200.5c-0.6-4-1.1-7.9-1.1-12c0-14.2,4.2-27.5,11.2-38.7
		H174.3z"/>
	<path d="M398.5,282.6v-6.2c0-3.1-2.5-5.6-5.6-5.6h-66.1c-3.1,0-5.6,2.5-5.6,5.6v6.2c0,3.1,2.5,5.6,5.6,5.6h66.1
		C396,288.2,398.5,285.7,398.5,282.6z"/>
	<path d="M10.1,391.5v25.7c-2.8,0-5.4,1.1-7.2,2.9s-3,4.2-3,6.9v5.4c0,5.4,4.5,9.8,10.1,9.8h29.8c-0.6-3.9-1.1-7.9-1.1-12
		c0-14.2,4.2-27.5,11.5-38.7L10.1,391.5L10.1,391.5z"/>
	<ellipse cx="111.3" cy="430.8" rx="11.3" ry="11.3"/>
	<ellipse cx="111.3" cy="411.4" rx="2.6" ry="2.6"/>
	<ellipse cx="111.3" cy="450.2" rx="2.6" ry="2.6"/>
	<ellipse cx="130.7" cy="430.8" rx="2.6" ry="2.6"/>
	<ellipse cx="91.8" cy="430.8" rx="2.6" ry="2.6"/>
	<path d="M173,432.3c-0.6-0.4-1.1-0.7-1.4-0.9c-0.1-0.1-0.3-0.3-0.3-0.6c0.2-0.4,0.3-0.6,0.5-0.6c0.4-0.2,0.8-0.6,1.4-0.9
		c0,0,0.6-0.4,0.6-1.2c-0.1-3.4-0.6-7.6-1.5-11.1c0,0-0.2-0.7-0.8-1c-0.6-0.3-1.2-0.4-1.6-0.6c-0.2-0.1-0.4-0.2-0.4-0.4
		c-0.1-0.2,0-0.5,0.1-0.6c0.3-0.4,0.6-0.7,1.1-1.2c0,0,0.5-0.6,0.3-1.3c-0.9-3.2-2.6-7.2-4.3-10.2c0,0-0.4-0.6-1.1-0.7
		c-0.7-0.1-1.3-0.1-1.6-0.1c-0.2,0-0.4-0.1-0.5-0.4c-0.1-0.2-0.1-0.5,0-0.6c0.2-0.4,0.4-0.8,0.7-1.5c0,0,0.4-0.6-0.1-1.3
		c-1.8-3-4.3-6.3-6.8-8.8c0,0-0.6-0.6-1.3-0.4c-0.7,0.1-1.2,0.3-1.6,0.4c-0.2,0-0.4,0-0.6-0.2c-0.1-0.1-0.2-0.4-0.1-0.6
		c0.1-0.4,0.2-0.9,0.4-1.7c0,0,0.1-0.7-0.4-1.2c-2.5-2.3-5.8-4.9-8.9-6.7c0,0-0.6-0.4-1.4-0.1c-0.6,0.4-1.1,0.6-1.5,0.7
		c-0.2,0.1-0.4,0.1-0.6,0s-0.4-0.4-0.4-0.6c0-0.4-0.1-0.9-0.1-1.7c0,0-0.1-0.7-0.6-1.1c-3-1.7-6.9-3.2-10.3-4.2c0,0-0.7-0.2-1.3,0.3
		c-0.6,0.6-0.9,0.8-1.2,1.1c-0.1,0.1-0.4,0.2-0.6,0.1c-0.2-0.1-0.4-0.2-0.5-0.5c-0.1-0.4-0.3-0.8-0.6-1.6c0,0-0.3-0.7-0.9-0.9
		c-3.3-0.7-7.5-1.4-11.1-1.4c0,0,0,0-0.1,0c-0.2,0-0.7,0.1-1.1,0.6c-0.4,0.6-0.6,1-0.9,1.4c-0.1,0.1-0.3,0.3-0.5,0.3
		c-0.2,0-0.4-0.1-0.6-0.4c-0.2-0.4-0.6-0.7-0.9-1.4c0,0-0.4-0.6-1.1-0.6c-3.4,0.1-7.6,0.6-11.1,1.5c0,0-0.7,0.2-0.9,0.9
		c-0.3,0.7-0.4,1.2-0.6,1.6c-0.1,0.2-0.2,0.4-0.4,0.4c-0.2,0.1-0.5,0-0.6-0.1c-0.1-0.1-0.1-0.1-0.1-0.1c-0.1-0.1-0.1-0.1-0.2-0.2
		c-0.1-0.1-0.1-0.1-0.3-0.2c-0.1-0.1-0.1-0.1-0.2-0.2c-0.1-0.1-0.2-0.2-0.4-0.4c0,0-0.6-0.6-1.3-0.3c-3.3,1-7.2,2.6-10.2,4.3
		c0,0-0.6,0.4-0.6,1.1c-0.1,0.7-0.1,1.2-0.1,1.7c0,0.2-0.1,0.4-0.4,0.5c-0.1,0.1-0.3,0.1-0.5,0.1c-0.4-0.2-0.8-0.4-1.6-0.7
		c-0.2-0.1-0.4-0.1-0.5-0.1c-0.3-0.1-0.6-0.1-0.9,0.2c-2,1.2-4.2,2.8-6.2,4.5c-0.9,0.7-1.8,1.5-2.6,2.3c-0.1,0.1-0.3,0.4-0.4,0.5
		c-0.1,0.2-0.2,0.6-0.1,0.8c0.2,0.8,0.3,1.5,0.4,1.8c0,0.1-0.1,0.3-0.2,0.4s-0.4,0.2-0.6,0.2c-0.4-0.1-0.8-0.2-1.6-0.4
		c-0.7-0.1-1.3,0.4-1.3,0.4c-2.5,2.6-5,5.9-6.8,8.8c-0.4,0.6-0.1,1.3-0.1,1.3c0.4,0.6,0.6,1.1,0.7,1.5c0.1,0.2,0.1,0.4,0,0.6
		c-0.1,0.2-0.3,0.3-0.5,0.4c-0.4,0-0.8,0.1-1.6,0.1c-0.7,0.1-1.1,0.7-1.1,0.7c-1.8,3.1-3.3,7-4.2,10.2c-0.2,0.7,0.3,1.3,0.3,1.3
		c0.5,0.6,0.8,0.9,1.1,1.2c0.1,0.1,0.2,0.4,0.1,0.6c-0.1,0.2-0.2,0.4-0.4,0.4c-0.4,0.1-0.8,0.3-1.6,0.6c-0.7,0.3-0.8,1-0.8,1
		c-0.8,3.4-1.4,7.7-1.5,11c0,0.7,0.6,1.2,0.6,1.2c0.2,0.1,0.4,0.3,0.6,0.4c0.1,0.1,0.2,0.1,0.3,0.2s0.3,0.2,0.4,0.3
		c0.1,0,0.1,0.1,0.1,0.1c0.2,0.1,0.4,0.4,0.4,0.6c0,0.2-0.1,0.4-0.3,0.6c-0.4,0.2-0.7,0.6-1.4,0.9c-0.6,0.4-0.6,1-0.6,1
		c0.1,3.5,0.6,7.7,1.4,11c0.2,0.7,0.8,1,0.8,1c0.6,0.3,1.2,0.4,1.6,0.6c0.2,0.1,0.4,0.2,0.4,0.5c0.1,0.2,0,0.4-0.1,0.6
		c-0.3,0.3-0.6,0.6-1.1,1.2c-0.5,0.6-0.3,1.3-0.3,1.3c1,3.4,2.6,7.3,4.2,10.3c0.4,0.6,1.1,0.7,1.1,0.7c0.7,0.1,1.3,0.1,1.7,0.1
		c0.2,0,0.4,0.1,0.6,0.4c0.1,0.2,0.1,0.4,0,0.6c-0.1,0.4-0.4,0.7-0.7,1.5c-0.4,0.6,0.1,1.3,0.1,1.3c1.8,3,4.3,6.4,6.7,8.9
		c0.6,0.6,1.3,0.4,1.3,0.4c0.7-0.1,1.2-0.3,1.6-0.4c0.2-0.1,0.4,0,0.6,0.1c0.1,0.1,0.2,0.4,0.2,0.6c-0.1,0.4-0.2,0.8-0.4,1.7
		c-0.1,0.7,0.4,1.2,0.4,1.2c2.6,2.5,5.9,5,8.8,6.8c0.6,0.4,1.4,0.1,1.4,0.1c0.6-0.4,1.1-0.6,1.5-0.7c0.2-0.1,0.4-0.1,0.6,0
		c0.2,0.1,0.3,0.3,0.4,0.5c0,0.4,0.1,0.9,0.1,1.7c0.1,0.7,0.6,1.1,0.6,1.1c3,1.7,6.9,3.3,10.2,4.3c0.7,0.2,1.3-0.3,1.3-0.3
		c0.6-0.5,0.9-0.8,1.2-1.1c0.1-0.1,0.4-0.2,0.6-0.1c0.1,0,0.1,0.1,0.2,0.1c0.1,0.1,0.1,0.1,0.1,0.1c0.1,0.4,0.4,0.9,0.6,1.7
		c0.3,0.7,0.9,0.9,0.9,0.9c3.4,0.8,7.7,1.5,11.1,1.5c0.1,0,0.4,0,0.5,0s0.1,0,0.2-0.1c0.1,0,0.1-0.1,0.1-0.1c0.1,0,0.1-0.1,0.1-0.1
		c0.1,0,0.1-0.1,0.1-0.1l0.1-0.1l0.1-0.1c0-0.1,0.1-0.1,0.1-0.1c0.1-0.1,0.2-0.4,0.3-0.5c0-0.1,0.1-0.1,0.1-0.1
		c0.3-0.4,0.5-0.7,0.6-1c0.1-0.1,0.3-0.1,0.4-0.1c0.2,0,0.4,0.1,0.5,0.3c0.2,0.4,0.5,0.7,0.9,1.4c0.4,0.6,1.1,0.6,1.1,0.6
		c3.5-0.1,7.7-0.6,11-1.4c0.7-0.2,0.9-0.9,0.9-0.9c0.2-0.7,0.4-1.2,0.6-1.6c0.1-0.2,0.2-0.4,0.4-0.5s0.4,0,0.6,0.1
		c0.3,0.3,0.6,0.6,1.2,1.1c0.6,0.6,1.3,0.3,1.3,0.3c3.4-1,7.3-2.5,10.2-4.2c0.6-0.4,0.6-1.1,0.6-1.1c0.1-0.7,0.1-1.2,0.1-1.7
		c0-0.2,0.1-0.4,0.4-0.6c0.2-0.1,0.4-0.1,0.6,0c0.4,0.2,0.8,0.4,1.5,0.7c0.2,0.1,0.4,0.1,0.5,0.1c0.3,0.1,0.6,0.1,0.9-0.2
		c2-1.2,4.2-2.8,6.1-4.4c0.9-0.7,1.8-1.5,2.6-2.3c0.1-0.1,0.3-0.4,0.4-0.5c0.1-0.2,0.2-0.6,0.1-0.8c-0.1-0.7-0.3-1.2-0.4-1.7
		c0-0.2,0-0.4,0.2-0.6c0.1-0.1,0.4-0.2,0.6-0.1c0.4,0.1,0.9,0.2,1.6,0.4c0,0,0.7,0.1,1.3-0.4c2.3-2.5,4.9-5.7,6.7-8.8
		c0,0,0.4-0.6,0.1-1.3c-0.4-0.6-0.6-1.1-0.7-1.4c-0.1-0.2-0.1-0.4,0-0.6c0.1-0.2,0.4-0.4,0.6-0.4h0.3h0.1c0.1,0,0.3,0,0.4,0
		c0.4,0,0.6-0.1,1.1-0.1c0,0,0.7-0.1,1.1-0.7c1.6-3,3.2-6.9,4.2-10.3c0,0,0.2-0.7-0.3-1.3s-0.8-0.9-1.1-1.2
		c-0.1-0.1-0.2-0.4-0.1-0.6c0.1-0.2,0.2-0.4,0.4-0.5c0.4-0.1,0.8-0.4,1.6-0.6c0,0,0.7-0.3,0.8-1c0.8-3.3,1.4-7.5,1.4-11.1
		C173.5,433.5,173.5,432.8,173,432.3z M111.3,460.7c-16.6,0-30.1-13.5-30.1-30.1c0-16.6,13.5-30.1,30.1-30.1s30.1,13.5,30.1,30.1
		C141.4,447.3,127.9,460.7,111.3,460.7z"/>
	<ellipse cx="457.9" cy="430.7" rx="11.3" ry="11.3"/>
	<ellipse cx="457.9" cy="411.3" rx="2.6" ry="2.6"/>
	<ellipse cx="457.9" cy="450.2" rx="2.6" ry="2.6"/>
	<ellipse cx="477.3" cy="430.7" rx="2.6" ry="2.6"/>
	<path d="M438.1,428.2c-1.5,0-2.6,1.2-2.6,2.6c0,1.5,1.2,2.6,2.6,2.6c1.5,0,2.6-1.2,2.6-2.6C440.8,429.4,440.4,428.2,438.1,428.2z"
		/>
	<path d="M519.3,432.3c-0.6-0.4-1.1-0.7-1.4-0.9c-0.1-0.1-0.3-0.3-0.3-0.6c0.2-0.4,0.3-0.6,0.5-0.6c0.4-0.2,0.8-0.6,1.4-0.9
		c0,0,0.6-0.4,0.6-1.2c-0.1-3.4-0.6-7.6-1.5-11.1c0,0-0.2-0.7-0.8-1c-0.6-0.3-1.2-0.4-1.6-0.6c-0.2-0.1-0.4-0.2-0.4-0.4
		c-0.1-0.2,0-0.5,0.1-0.6c0.3-0.4,0.6-0.7,1.1-1.2c0,0,0.5-0.6,0.3-1.3c-0.9-3.2-2.6-7.2-4.3-10.2c0,0-0.4-0.6-1.1-0.7
		c-0.7-0.1-1.3-0.1-1.6-0.1c-0.2,0-0.4-0.1-0.5-0.4c-0.1-0.2-0.1-0.5,0-0.6c0.2-0.4,0.4-0.8,0.7-1.5c0,0,0.4-0.6-0.1-1.3
		c-1.8-3-4.3-6.3-6.8-8.8c0,0-0.6-0.6-1.3-0.4c-0.7,0.1-1.2,0.3-1.6,0.4c-0.2,0-0.4,0-0.6-0.2c-0.1-0.1-0.2-0.4-0.1-0.6
		c0.1-0.4,0.2-0.9,0.4-1.7c0,0,0.1-0.7-0.4-1.2c-2.5-2.3-5.8-4.9-8.9-6.7c0,0-0.6-0.4-1.4-0.1c-0.6,0.4-1.1,0.6-1.5,0.7
		c-0.2,0.1-0.4,0.1-0.6,0c-0.2-0.1-0.4-0.4-0.4-0.6c0-0.4-0.1-0.9-0.1-1.7c0,0-0.1-0.7-0.6-1.1c-3-1.7-6.9-3.2-10.3-4.2
		c0,0-0.7-0.2-1.3,0.3c-0.6,0.6-0.9,0.8-1.2,1.1c-0.1,0.1-0.4,0.2-0.6,0.1c-0.2-0.1-0.4-0.2-0.5-0.5c-0.1-0.4-0.3-0.8-0.6-1.6
		c0,0-0.3-0.7-0.9-0.9c-3.3-0.7-7.5-1.4-11.1-1.4c0,0,0,0-0.1,0c-0.2,0-0.7,0.1-1.1,0.6c-0.4,0.6-0.6,1-0.9,1.4
		c-0.1,0.1-0.3,0.3-0.5,0.3s-0.4-0.1-0.6-0.4c-0.2-0.4-0.6-0.7-0.9-1.4c0,0-0.4-0.6-1.1-0.6c-3.4,0.1-7.6,0.6-11.1,1.5
		c0,0-0.7,0.2-0.9,0.9c-0.3,0.7-0.4,1.2-0.6,1.6c-0.1,0.2-0.2,0.4-0.4,0.4c-0.2,0.1-0.5,0-0.6-0.1c-0.1-0.1-0.1-0.1-0.1-0.1
		c-0.1-0.1-0.1-0.1-0.2-0.2s-0.1-0.1-0.3-0.2c-0.1-0.1-0.1-0.1-0.2-0.2c-0.1-0.1-0.2-0.2-0.4-0.4c0,0-0.6-0.6-1.3-0.3
		c-3.3,1-7.2,2.6-10.2,4.3c0,0-0.6,0.4-0.6,1.1c-0.1,0.7-0.1,1.2-0.1,1.7c0,0.2-0.1,0.4-0.4,0.5c-0.1,0.1-0.3,0.1-0.5,0.1
		c-0.4-0.2-0.8-0.4-1.6-0.7c-0.2-0.1-0.4-0.1-0.5-0.1c-0.3-0.1-0.6-0.1-0.9,0.2c-2,1.2-4.2,2.8-6.2,4.5c-0.9,0.7-1.8,1.5-2.6,2.3
		c-0.1,0.1-0.3,0.4-0.4,0.5c-0.1,0.2-0.2,0.6-0.1,0.8c0.2,0.8,0.3,1.5,0.4,1.8c0,0.1-0.1,0.3-0.2,0.4s-0.4,0.2-0.6,0.2
		c-0.4-0.1-0.8-0.2-1.6-0.4c-0.7-0.1-1.3,0.4-1.3,0.4c-2.5,2.6-5,5.9-6.8,8.8c-0.4,0.6-0.1,1.3-0.1,1.3c0.4,0.6,0.6,1.1,0.7,1.5
		c0.1,0.2,0.1,0.4,0,0.6s-0.3,0.3-0.5,0.4c-0.4,0-0.8,0.1-1.6,0.1c-0.7,0.1-1.1,0.7-1.1,0.7c-1.8,3.1-3.3,7-4.2,10.2
		c-0.2,0.7,0.3,1.3,0.3,1.3c0.5,0.6,0.8,0.9,1.1,1.2c0.1,0.1,0.2,0.4,0.1,0.6c-0.1,0.2-0.2,0.4-0.4,0.4c-0.4,0.1-0.8,0.3-1.6,0.6
		c-0.7,0.3-0.8,1-0.8,1c-0.8,3.4-1.4,7.7-1.5,11c0,0.7,0.6,1.2,0.6,1.2c0.2,0.1,0.4,0.3,0.6,0.4c0.1,0.1,0.2,0.1,0.3,0.2
		c0.1,0.1,0.3,0.2,0.4,0.3c0.1,0,0.1,0.1,0.1,0.1c0.2,0.1,0.4,0.4,0.4,0.6c0,0.2-0.1,0.4-0.3,0.6c-0.4,0.2-0.7,0.6-1.4,0.9
		c-0.6,0.4-0.6,1-0.6,1c0.1,3.5,0.6,7.7,1.4,11c0.2,0.7,0.8,1,0.8,1c0.6,0.3,1.2,0.4,1.6,0.6c0.2,0.1,0.4,0.2,0.4,0.5
		c0.1,0.2,0,0.4-0.1,0.6c-0.3,0.3-0.6,0.6-1.1,1.2c-0.5,0.6-0.3,1.3-0.3,1.3c1,3.4,2.6,7.3,4.2,10.3c0.4,0.6,1.1,0.7,1.1,0.7
		c0.7,0.1,1.3,0.1,1.7,0.1c0.2,0,0.4,0.1,0.6,0.4c0.1,0.2,0.1,0.4,0,0.6c-0.1,0.4-0.4,0.7-0.7,1.5c-0.4,0.6,0.1,1.3,0.1,1.3
		c1.8,3,4.3,6.4,6.7,8.9c0.6,0.6,1.3,0.4,1.3,0.4c0.7-0.1,1.2-0.3,1.6-0.4c0.2-0.1,0.4,0,0.6,0.1c0.1,0.1,0.2,0.4,0.2,0.6
		c-0.1,0.4-0.2,0.8-0.4,1.7c-0.1,0.7,0.4,1.2,0.4,1.2c2.6,2.5,5.9,5,8.8,6.8c0.6,0.4,1.4,0.1,1.4,0.1c0.6-0.4,1.1-0.6,1.5-0.7
		c0.2-0.1,0.4-0.1,0.6,0c0.2,0.1,0.3,0.3,0.4,0.5c0,0.4,0.1,0.9,0.1,1.7c0.1,0.7,0.6,1.1,0.6,1.1c3,1.7,6.9,3.3,10.2,4.3
		c0.7,0.2,1.3-0.3,1.3-0.3c0.6-0.5,0.9-0.8,1.2-1.1c0.1-0.1,0.4-0.2,0.6-0.1c0.1,0,0.1,0.1,0.2,0.1c0.1,0.1,0.1,0.1,0.1,0.1
		c0.1,0.4,0.4,0.9,0.6,1.7c0.3,0.7,0.9,0.9,0.9,0.9c3.4,0.8,7.7,1.5,11.1,1.5c0.1,0,0.4,0,0.5,0s0.1,0,0.2-0.1
		c0.1,0,0.1-0.1,0.1-0.1c0.1,0,0.1-0.1,0.1-0.1c0.1,0,0.1-0.1,0.1-0.1l0.1-0.1l0.1-0.1c0-0.1,0.1-0.1,0.1-0.1
		c0.1-0.1,0.2-0.4,0.3-0.5c0-0.1,0.1-0.1,0.1-0.1c0.3-0.4,0.5-0.7,0.6-1c0.1-0.1,0.3-0.1,0.4-0.1c0.2,0,0.4,0.1,0.5,0.3
		c0.2,0.4,0.5,0.7,0.9,1.4c0.4,0.6,1.1,0.6,1.1,0.6c3.5-0.1,7.7-0.6,11-1.4c0.7-0.2,0.9-0.9,0.9-0.9c0.2-0.7,0.4-1.2,0.6-1.6
		c0.1-0.2,0.2-0.4,0.4-0.5c0.2-0.1,0.4,0,0.6,0.1c0.3,0.3,0.6,0.6,1.2,1.1c0.6,0.6,1.3,0.3,1.3,0.3c3.4-1,7.3-2.5,10.2-4.2
		c0.6-0.4,0.6-1.1,0.6-1.1c0.1-0.7,0.1-1.2,0.1-1.7c0-0.2,0.1-0.4,0.4-0.6c0.2-0.1,0.4-0.1,0.6,0c0.4,0.2,0.8,0.4,1.5,0.7
		c0.2,0.1,0.4,0.1,0.5,0.1c0.3,0.1,0.6,0.1,0.9-0.2c2-1.2,4.2-2.8,6.1-4.4c0.9-0.7,1.8-1.5,2.6-2.3c0.1-0.1,0.3-0.4,0.4-0.5
		c0.1-0.2,0.2-0.6,0.1-0.8c-0.1-0.7-0.3-1.2-0.4-1.7c0-0.2,0-0.4,0.2-0.6c0.1-0.1,0.4-0.2,0.6-0.1c0.4,0.1,0.9,0.2,1.6,0.4
		c0,0,0.7,0.1,1.3-0.4c2.3-2.5,4.9-5.7,6.7-8.8c0,0,0.4-0.6,0.1-1.3c-0.4-0.6-0.6-1.1-0.7-1.4c-0.1-0.2-0.1-0.4,0-0.6
		c0.1-0.2,0.4-0.4,0.6-0.4h0.3h0.1c0.1,0,0.3,0,0.4,0c0.4,0,0.6-0.1,1.1-0.1c0,0,0.7-0.1,1.1-0.7c1.6-3,3.2-6.9,4.2-10.3
		c0,0,0.2-0.7-0.3-1.3s-0.8-0.9-1.1-1.2c-0.1-0.1-0.2-0.4-0.1-0.6c0.1-0.2,0.2-0.4,0.4-0.5c0.4-0.1,0.8-0.4,1.6-0.6
		c0,0,0.7-0.3,0.8-1c0.8-3.3,1.4-7.5,1.4-11.1C519.8,433.5,519.8,432.8,519.3,432.3z M457.6,460.7c-16.6,0-30.1-13.5-30.1-30.1
		c0-16.6,13.5-30.1,30.1-30.1s30.1,13.5,30.1,30.1C487.8,447.3,474.2,460.7,457.6,460.7z"/>
	<path d="M546.7,186.1c-5.2-5.4-19-8.8-21.2,0.7l-13.8,20c-0.6-0.5-1.4-0.9-2-1.4l13.8-34.5c0.9,0.7,2.5-3.3,9,0.9
		c4.3,2.8,13.2,2.7,15.1-0.2c1.8-2.9-0.1-7.5-4.4-10.2c-6.2-4.1-20.4-4.3-20.6,5.4l-14.9,37.4c-1.5-0.9-3-1.8-4.5-2.8
		c-0.1,0-0.1-0.1-0.2-0.1l12.7-28.7c6.9-6.8-3.2-16.9-10.4-18.4c-5-1.1-9.7,0.6-10.4,4c-0.7,3.3,5.4,9.8,10.4,10.9
		c7.6,1.8,5.8,5.7,6.9,5.8L501,200c-1.5-0.8-2.9-1.7-4.2-2.4l2.6-13.2c5.2-8.2-6.8-15.7-14.3-15.7c-5.1,0-9.2,2.8-9.2,6.2
		c0,3.4,7.5,8.4,12.5,8.4c7.8,0,6.9,4.2,8,4.2l-1.8,9.1c-8.9-4.6-15.9-6.9-17-5.4l0,0v0.1l-3.1,5.2L434.8,52.1h37.6
		c7,0,14.1-5.5,15.5-12.5c1.9-10.1-5.5-18.9-15.1-18.9H144.1c-7,0-14.1,5.5-15.5,12.5c-1.9,10.1,5.5,18.9,15.1,18.9h45.8
		l-69.2,184.5h-19.1c-7.9,0-15.3,4.2-19.4,11l-32.4,54.1l-30.9,17.3c-5.3,3-8.5,8.5-8.5,14.5v5.5h9.9c2.7,0,4.9,2.1,4.9,4.8v15.3
		c0,2.7-2.2,4.8-4.9,4.8h-9.8v23.1h42.2c13.4-18.1,35-29.9,59.2-29.9s45.8,11.7,59.2,29.9h14.4h1h212.4
		c13.4-18.1,34.9-29.9,59.1-29.9c24.3,0,45.8,11.8,59.1,29.9h3.4v-57.2H322.9v47H205.2l-6-3.1l0.2-1.2c0-0.1-0.3-0.4-0.6-0.6
		l-4.4-2.8c-1.9-1.2-3.6-1.7-3.8-1l-0.2,0.9c-0.1,0.6,1.4,2.2,3.3,3.4l4.4,2.8c0.4,0.2,0.6,0.3,0.7,0.2l0.1-0.3l3.3,1.8h-17.7v-41.7
		l55.9-53c3.3,0.8,7.1-0.1,9.5-3c2.8-3.2,2.9-8.1,0.3-11.5c-3.5-4.4-10-4.8-13.9-1c-3.1,3-3.7,7.7-1.7,11.3l-26.1,24.8V274
		c0-4.3,0.3-8.3,0.6-11.8l19.5-26.7c20.9,14.9,39.9,21.9,43.6,15.4c2.1-3.8-1.5-11.4-8.9-20.4c-6.1-7.3-14.7-15.5-24.8-23.2
		c-11.1-8.4-21.8-14.7-30.3-18.1c-9-3.6-15.7-4.2-17.7-0.6c-3,5.3,5.4,18.2,19.8,31.8l-12,16.3c-1.9-0.2-4.2-0.3-6.7-0.3h-60.2
		l70-184.5H263c2,3.2,5.1,5.5,8.8,5.5h2c6.6,0,17.7,0,30.7,1.4c11.6,1.3,15.7,7.3,19,12.2c0.6,0.8,1.1,1.7,1.7,2.4
		c11.5,15,18.1,21.8,54.2,21.8h3.9c17,0,24.6,0,28.3-4.2c3.2-3.8,2.3-9.9,0.5-20.9c-1.4-8.7-3.6-14.8-6.4-19.1h17.7l43.1,157.2
		l-25.9,43c-0.9-39.8-2.3-95.5-2.3-104.5c0-14.2-15.5-6.5-15.5-6.5L398.7,291h-75.8v34.1H520l-9.7-25.5c-1.6-4.2-5.4-7.2-9.8-7.7
		l-6.4-23.3l29.8-49.4l0,0c0.7-1.6-3.5-5.9-10.6-11.1l11.9-17.2c0.7,0.8,3.1-2.7,8.6,2.9c3.6,3.7,12.3,5.5,14.8,3.1
		C551.1,194.7,550.2,189.8,546.7,186.1z M204.3,195.9c0.5-0.8,1.7-1.1,3.4-0.9c5.5,0.6,16.8,6.7,28.8,15.9
		c11.5,8.9,20.5,18.1,23.4,23.8c1,2,1.4,3.6,0.8,4.5c-2.1,3.7-16.6-3-32.2-14.9C213.1,212.2,202.2,199.5,204.3,195.9z M185.4,290.1
		h4.6v31.4l-4.6,4.5V290.1z M407.4,71.1c1.5,9.3,2.4,14.9,0.6,17.1c-2.2,2.6-10.2,2.6-24.8,2.6h-2.5c-36.2,0-41.3-6.8-51.6-20.5
		c-0.6-0.7-1-1.5-1.6-2.3c-3.5-5.2-8.8-13-22.9-14.6c-12.6-1.4-23.4-1.5-30.4-1.5c-0.6,0-0.7,0-0.7,0H272c-1,0.6-3-0.9-3-0.9h131
		C403.2,55.3,405.8,61.6,407.4,71.1z M441.9,291.9c0-1-0.1-2.8-0.1-5.2l8.6,5.2H441.9z M509,206.8c0.6,0.4,1.1,0.7,1.7,1.1l-2.8,4
		c-0.3-0.2-0.6-0.3-0.8-0.5L509,206.8z M480.5,192.5c0.6-0.9,6.3,1.4,13.8,5.5l-1,5.1C485.3,197.8,479.9,193.4,480.5,192.5z
		 M480.3,291.9l6.3-10.4l2.9,10.4H480.3z M496.5,199.1c1.3,0.7,2.6,1.5,3.9,2.2l-2.1,4.8c-0.9-0.6-1.8-1.2-2.8-1.8L496.5,199.1z
		 M502.3,202.5C502.4,202.6,502.4,202.6,502.3,202.5c1.7,1,3.2,2,4.8,3l-1.9,4.8c-1.6-0.9-3.3-1.8-5-3L502.3,202.5z M521.6,217.3
		c-0.5,0.8-5.1-0.9-11.5-4.3l2.6-3.7C518.4,213.2,522,216.5,521.6,217.3z"/>
</g>
</svg>
