<?xml version="1.0" encoding="utf-8"?>
<!-- Generator: Adobe Illustrator 21.1.0, SVG Export Plug-In . SVG Version: 6.00 Build 0)  -->
<svg version="1.1" id="Layer_2" xmlns="http://www.w3.org/2000/svg" xmlns:xlink="http://www.w3.org/1999/xlink" x="0px" y="0px"
	 viewBox="0 0 512 512" style="enable-background:new 0 0 512 512;" xml:space="preserve">
<path d="M256,440.8c23.9,0,43.2-19.3,43.2-43.2c0-23.9-19.3-43.2-43.2-43.2c-23.9,0-43.2,19.3-43.2,43.2S232.2,440.8,256,440.8z
	 M258.7,439.6c-0.9,0.1-1.7,0.1-2.6,0.1c-1.2,0-2.4-0.1-3.6-0.2c-0.4-1.2-0.1-2.5,0.8-3.4c1.3-1.3,3.4-1.3,4.7,0.1
	C258.8,437.1,259.1,438.4,258.7,439.6z M254.7,409.2c0.9-0.9,2.3-0.9,3.2,0c0.9,0.9,0.8,2.3,0,3.2c-0.9,0.9-2.3,0.9-3.2,0
	C253.8,411.5,253.8,410.1,254.7,409.2z M258.3,423.9c-1.1-1.1-1-2.8,0-3.9c1.1-1.1,2.8-1,3.9,0c1.1,1.1,1,2.8,0,3.9
	C261.1,425,259.4,425,258.3,423.9z M260.9,404.5c0.9-0.9,2.3-0.9,3.2,0s0.9,2.3,0,3.2c-0.9,0.9-2.3,0.9-3.2,0S260,405.4,260.9,404.5
	z M267.2,434.9c-1.3,1.3-3.4,1.3-4.7-0.1c-1.3-1.3-1.3-3.4,0.1-4.7c1.3-1.3,3.4-1.3,4.7,0.1C268.5,431.5,268.5,433.6,267.2,434.9z
	 M267,416.8c-1.1-1.1-1-2.8,0-3.9c1.1-1.1,2.8-1,3.9,0c1.1,1.1,1,2.8,0,3.9C269.8,417.8,268.1,417.8,267,416.8z M269.5,390.6
	c-0.7,0.7-1.9,0.7-2.6,0s-0.7-1.9,0-2.6s1.9-0.7,2.6,0S270.2,389.9,269.5,390.6z M271.7,399.3c0.9,0.9,0.9,2.3,0,3.2s-2.3,0.8-3.2,0
	c-0.9-0.9-0.8-2.3,0-3.2C269.4,398.4,270.8,398.4,271.7,399.3z M269.9,423c1.3-1.3,3.4-1.3,4.7,0.1c1.3,1.3,1.3,3.4-0.1,4.7
	c-1.3,1.3-3.4,1.3-4.7-0.1C268.6,426.4,268.6,424.3,269.9,423z M278.8,384.9c0.9-0.9,2.3-0.9,3.2,0c0.9,0.9,0.9,2.3,0,3.2
	s-2.3,0.8-3.2,0C277.9,387.2,277.9,385.7,278.8,384.9z M279.2,375.9c0.9-0.9,2.3-0.9,3.2,0s0.8,2.3,0,3.2c-0.9,0.9-2.3,0.9-3.2,0
	S278.3,376.8,279.2,375.9z M286,398.9c1.1,1.1,1,2.8,0,3.9c-1.1,1.1-2.8,1-3.9,0c-1.1-1.1-1-2.8,0-3.9
	C283.2,397.8,284.9,397.9,286,398.9z M279.6,406.5c1.1,1.1,1,2.8,0,3.9c-1.1,1.1-2.8,1-3.9,0c-1.1-1.1-1-2.8,0-3.9
	C276.8,405.4,278.5,405.4,279.6,406.5z M272.1,436.5c-0.4-1.2-0.2-2.6,0.8-3.5c1.3-1.3,3.4-1.3,4.7,0.1c0.1,0.1,0.3,0.3,0.4,0.5
	C276.1,434.7,274.2,435.7,272.1,436.5z M277.3,420.5c-1.3-1.3-1.3-3.4,0.1-4.7c1.3-1.3,3.4-1.3,4.7,0.1c1.3,1.3,1.3,3.4-0.1,4.7
	C280.6,421.8,278.5,421.8,277.3,420.5z M281.2,431.4c-1.1-1.3-1-3.3,0.2-4.5c1.3-1.3,3.4-1.3,4.7,0.1c0,0,0,0.1,0.1,0.1
	C284.6,428.6,282.9,430,281.2,431.4z M284.6,413.3c-1.3-1.3-1.3-3.4,0.1-4.7c1.3-1.3,3.4-1.3,4.7,0.1c1.3,1.3,1.3,3.4-0.1,4.7
	C288,414.6,285.9,414.6,284.6,413.3z M288.6,424.3c-1.2-1.3-1.1-3.3,0.1-4.6c1-0.9,2.4-1.2,3.5-0.7
	C291.2,420.8,290,422.6,288.6,424.3z M294.2,415.3c-1.1-1.3-1.1-3.3,0.2-4.5c0.5-0.5,1.2-0.8,1.9-0.9
	C295.7,411.8,295,413.6,294.2,415.3z M298.1,397c-1.2,0.5-2.7,0.3-3.7-0.7c-1.3-1.3-1.3-3.4,0.1-4.7c0.8-0.8,2-1.1,3.1-0.8
	C297.9,392.8,298.1,394.8,298.1,397z M294.4,381.7c0.1-0.1,0.3-0.3,0.4-0.4c0.8,1.9,1.5,4,2,6c-0.9,0-1.8-0.3-2.5-1
	C293.1,385.1,293.1,383,294.4,381.7z M292,401.4c1.3-1.3,3.4-1.3,4.7,0.1c0.6,0.6,0.9,1.4,0.9,2.3c-0.1,0.4-0.1,0.8-0.2,1.1
	c-0.2,0.5-0.4,0.9-0.8,1.3c-1.3,1.3-3.4,1.3-4.7-0.1C290.7,404.8,290.7,402.7,292,401.4z M290.2,382.7c-1.1,1.1-2.8,1-3.9,0
	c-1.1-1.1-1-2.8,0-3.9c1.1-1.1,2.8-1,3.9,0C291.3,379.9,291.3,381.6,290.2,382.7z M285.8,368.8c0.2-0.2,0.3-0.3,0.5-0.4
	c1.2,1.3,2.4,2.7,3.5,4.1c-0.1,0.1-0.1,0.1-0.2,0.2c-1.1,1.1-2.8,1-3.9,0C284.7,371.6,284.8,369.9,285.8,368.8z M284.9,388.9
	c1.1-1.1,2.8-1,3.9,0c1.1,1.1,1,2.8,0,3.9c-1.1,1.1-2.8,1-3.9,0C283.8,391.7,283.8,390,284.9,388.9z M282.8,366.9
	c0.9,0.9,0.9,2.3,0,3.2c-0.9,0.9-2.3,0.9-3.2,0c-0.9-0.9-0.9-2.3,0-3.2C280.6,366,282,366,282.8,366.9z M277.3,363.7
	c0.7-0.7,1.9-0.7,2.6,0s0.7,1.9,0,2.6s-1.9,0.7-2.6,0C276.6,365.6,276.6,364.4,277.3,363.7z M274,392.9c0.9-0.9,2.3-0.9,3.2,0
	c0.9,0.9,0.9,2.3,0,3.2c-0.9,0.9-2.3,0.9-3.2,0C273.1,395.2,273.1,393.8,274,392.9z M269.3,371.6c0.7-0.7,1.9-0.7,2.6,0
	s0.7,1.9,0,2.6s-1.9,0.7-2.6,0C268.6,373.4,268.6,372.3,269.3,371.6z M265.3,375.5c0.7-0.7,1.9-0.7,2.6,0s0.7,1.9,0,2.6
	s-1.9,0.7-2.6,0C264.5,377.3,264.5,376.2,265.3,375.5z M261.2,379.4c0.7-0.7,1.9-0.7,2.6,0s0.7,1.9,0,2.6s-1.9,0.7-2.6,0
	S260.5,380.1,261.2,379.4z M262.9,393.4c0.7,0.7,0.7,1.9,0,2.6s-1.9,0.7-2.6,0s-0.7-1.9,0-2.6C261,392.6,262.2,392.7,262.9,393.4z
	 M257.2,383.4c0.7-0.7,1.9-0.7,2.6,0s0.7,1.9,0,2.6s-1.9,0.7-2.6,0C256.5,385.2,256.5,384.1,257.2,383.4z M254,398.2
	c0.7-0.7,1.9-0.7,2.6,0s0.7,1.9,0,2.6s-1.9,0.7-2.6,0C253.2,400,253.3,398.9,254,398.2z M252.6,430.5c-1.1,1.1-2.8,1-3.9,0
	c-1.1-1.1-1-2.8,0-3.9c1.1-1.1,2.8-1,3.9,0C253.7,427.7,253.7,429.4,252.6,430.5z M251.8,417.6c-0.9,0.9-2.3,0.8-3.2,0
	c-0.9-0.9-0.8-2.3,0-3.2c0.9-0.9,2.3-0.9,3.2,0C252.7,415.3,252.7,416.7,251.8,417.6z M249.2,391.2c0.7-0.7,1.9-0.7,2.6,0
	c0.7,0.7,0.7,1.9,0,2.6s-1.9,0.7-2.6,0C248.4,393.1,248.5,391.9,249.2,391.2z M247.7,403c0.7-0.7,1.9-0.7,2.6,0
	c0.7,0.7,0.7,1.9,0,2.6c-0.7,0.7-1.9,0.7-2.6,0C246.9,404.9,247,403.7,247.7,403z M247.1,438.7c-2.1-0.5-4.2-1.1-6.2-1.8
	c0-0.8,0.4-1.6,1-2.2c1.3-1.3,3.4-1.3,4.7,0.1C247.7,435.9,247.8,437.5,247.1,438.7z M245,422c-0.9,0.9-2.3,0.8-3.2,0
	c-0.9-0.9-0.8-2.3,0-3.2c0.9-0.9,2.3-0.8,3.2,0C245.9,419.7,245.9,421.1,245,422z M241.2,408c0.7-0.7,1.9-0.7,2.6,0
	c0.7,0.7,0.7,1.9,0,2.6s-1.9,0.7-2.6,0C240.5,409.8,240.5,408.7,241.2,408z M240.3,431.8c-1.1,1.1-2.8,1-3.9,0c-1.1-1.1-1-2.8,0-3.9
	c1.1-1.1,2.8-1,3.9,0C241.4,429,241.3,430.7,240.3,431.8z M237.1,403c0.7-0.7,1.9-0.7,2.6,0c0.7,0.7,0.7,1.9,0,2.6s-1.9,0.7-2.6,0
	S236.4,403.7,237.1,403z M234.8,412.4c0.7-0.7,1.9-0.7,2.6,0c0.7,0.7,0.7,1.9,0,2.6s-1.9,0.7-2.6,0
	C234,414.3,234.1,413.1,234.8,412.4z M232.8,421c0.9-0.9,2.3-0.9,3.2,0s0.8,2.3,0,3.2c-0.9,0.9-2.3,0.9-3.2,0
	C231.9,423.3,232,421.9,232.8,421z M232.1,432.2c-1.4-1-2.8-2.1-4.1-3.2c1.1-0.8,2.6-0.6,3.5,0.3
	C232.2,430.1,232.4,431.2,232.1,432.2z M228.3,416.2c0.7-0.7,1.9-0.7,2.6,0c0.7,0.7,0.7,1.9,0,2.6s-1.9,0.7-2.6,0
	C227.5,418,227.5,416.9,228.3,416.2z M222.1,417.8c-0.7,0.7-1.9,0.7-2.6,0c-0.7-0.7-0.7-1.9,0-2.6s1.9-0.7,2.6,0
	C222.9,416,222.9,417.1,222.1,417.8z M224.9,421.6c0.9-0.9,2.3-0.8,3.2,0c0.9,0.9,0.8,2.3,0,3.2c-0.9,0.9-2.3,0.8-3.2,0
	C224,423.9,224,422.4,224.9,421.6z"/>
<path d="M255.9,447.2c-18.5,0-34.6-10.2-43-25.2h-12.7c8.7,19.9,27.7,34.3,50.3,36.3l3.7,53.7h3.5l3.7-53.7
	c22.7-2,41.7-16.4,50.4-36.3h-12.7C290.5,437,274.4,447.2,255.9,447.2z"/>
<path d="M501.2,370.5c-15-10.7-59.6,5.9-75.7,28.2c-24.5,33.6-40,16.9-43.2,21.9L263.6,285.7l143.2-162.3l3.9,3.5
	c2.6,2.4,6.7,2.2,9.2-0.5l91.8-101.6l0,0l0,0c1.6-1.7-3.3-8.6-10.7-15.3c-7.4-6.7-14.8-10.9-16.3-9.2c0,0,0,0.1-0.1,0.1l0,0
	L392.7,102c-2.4,2.6-2.2,6.7,0.5,9.2l5,4.5L255.9,277.1L113.8,115.7l5-4.5c2.6-2.4,2.8-6.5,0.5-9.2L27.4,0.5l0,0c0,0,0-0.1-0.1-0.1
	c-1.6-1.7-8.8,2.4-16.3,9.2S-1.4,23.3,0.2,24.9l0,0l0,0L92,126.6c2.4,2.6,6.5,2.8,9.2,0.5l3.9-3.5l143.2,162.3L129.7,420.5
	c-3.2-5-18.8,11.7-43.2-21.9c-16.2-22.4-60.7-39-75.7-28.2c-15,10.3-14,36.9,1.8,59.2c23.2,32.4,93.8,61.4,113.1,12.7l130.5-148
	l130.5,148c19.2,48.7,89.8,19.6,113.1-12.7C515.2,407.3,516.2,380.7,501.2,370.5z"/>
</svg>
