<?xml version="1.0" encoding="utf-8"?>
<!-- Generator: Adobe Illustrator 21.1.0, SVG Export Plug-In . SVG Version: 6.00 Build 0)  -->
<svg version="1.1" id="Layer_2" xmlns="http://www.w3.org/2000/svg" xmlns:xlink="http://www.w3.org/1999/xlink" x="0px" y="0px"
	 viewBox="0 0 507.7 512" style="enable-background:new 0 0 507.7 512;" xml:space="preserve">
<path d="M95.1,243.9c-40.6,0-73.5,32.9-73.5,73.5s32.9,73.5,73.5,73.5s73.5-32.9,73.5-73.5S135.7,243.9,95.1,243.9z M160,347.6
	c-1.9-2.2-1.8-5.6,0.3-7.7c0.9-0.9,2-1.4,3.2-1.6C162.6,341.5,161.4,344.6,160,347.6z M150.5,362.8c-2-2.2-1.9-5.7,0.2-7.8
	c1.6-1.6,4-2,6-1.2C154.9,356.9,152.8,359.9,150.5,362.8z M160.3,298.3c-2.2-2.2-2.1-5.8,0.1-8c0.2-0.2,0.5-0.4,0.8-0.6
	c1.4,3.3,2.5,6.7,3.4,10.3C163,300,161.4,299.5,160.3,298.3z M165.7,305.7c0.6,3.5,0.9,7,0.9,10.6c-2.1,0.9-4.6,0.5-6.3-1.2
	c-2.2-2.2-2.1-5.8,0.1-8C161.9,305.7,163.9,305.3,165.7,305.7z M102.4,310.2c1.2-1.2,3.2-1.2,4.3,0.1c1.2,1.2,1.2,3.2-0.1,4.3
	c-1.2,1.2-3.2,1.2-4.3-0.1C101.2,313.3,101.2,311.3,102.4,310.2z M101.4,297.6c-1.2,1.2-3.2,1.2-4.4-0.1c-1.2-1.2-1.2-3.2,0.1-4.3
	c1.2-1.2,3.2-1.2,4.4,0.1C102.7,294.4,102.6,296.4,101.4,297.6z M104,286.5c1.2-1.2,3.2-1.2,4.3,0.1c1.2,1.2,1.2,3.2-0.1,4.3
	c-1.2,1.2-3.2,1.2-4.3-0.1C102.7,289.6,102.7,287.7,104,286.5z M103.4,329.2c1.5-1.5,3.9-1.4,5.4,0.1s1.4,3.9-0.1,5.4
	s-3.9,1.4-5.4-0.1C101.9,333,101.9,330.6,103.4,329.2z M121.9,277.5c-1.2,1.2-3.2,1.2-4.3-0.1c-1.2-1.2-1.2-3.2,0.1-4.4
	c1.2-1.2,3.2-1.2,4.3,0.1C123.2,274.4,123.2,276.3,121.9,277.5z M121.7,325.6c-1.5,1.5-3.9,1.4-5.4-0.1s-1.4-3.9,0.1-5.4
	s3.9-1.4,5.4,0.1C123.2,321.7,123.2,324.2,121.7,325.6z M118.1,301.1c1.2,1.2,1.2,3.2-0.1,4.4c-1.2,1.2-3.2,1.2-4.3-0.1
	c-1.2-1.2-1.2-3.2,0.1-4.4C115,299.9,116.9,299.9,118.1,301.1z M115.1,284.2c-1.2,1.2-3.2,1.2-4.3-0.1c-1.2-1.2-1.2-3.2,0.1-4.4
	c1.2-1.2,3.2-1.2,4.3,0.1C116.3,281.1,116.3,283,115.1,284.2z M114.2,372.9c2.2,2.2,2.1,5.8-0.1,8s-5.8,2.1-8-0.1s-2.1-5.8,0.1-8
	C108.5,370.7,112,370.7,114.2,372.9z M113.8,350c-1.8-1.8-1.8-4.8,0.1-6.6c1.8-1.8,4.8-1.8,6.6,0.1c1.8,1.8,1.8,4.8-0.1,6.6
	C118.5,351.9,115.6,351.8,113.8,350z M118.8,360.6c2.2-2.2,5.8-2.1,8,0.1s2.1,5.8-0.1,8c-2.2,2.2-5.8,2.1-8-0.1
	C116.5,366.3,116.6,362.8,118.8,360.6z M131.1,309.5c1.5,1.5,1.4,3.9-0.1,5.4s-3.9,1.4-5.4-0.1s-1.4-3.9,0.1-5.4
	C127.2,308,129.6,308,131.1,309.5z M131.3,259.7c1.2-1.2,3.2-1.2,4.4,0.1c1.2,1.2,1.2,3.2-0.1,4.4c-1.2,1.2-3.2,1.2-4.4-0.1
	C130.1,262.9,130.1,260.9,131.3,259.7z M128.7,332.4c1.8-1.8,4.8-1.8,6.6,0.1c1.8,1.8,1.8,4.8-0.1,6.6c-1.8,1.8-4.8,1.8-6.6-0.1
	C126.8,337.1,126.8,334.2,128.7,332.4z M133.8,301.1c-1.5-1.5-1.4-3.9,0.1-5.4s3.9-1.4,5.4,0.1s1.4,3.9-0.1,5.4
	S135.3,302.6,133.8,301.1z M139.9,285.9c-1.5,1.5-3.9,1.4-5.4-0.1s-1.4-3.9,0.1-5.4s3.9-1.4,5.4,0.1S141.4,284.5,139.9,285.9z
	 M140.7,270.6c-1.5,1.5-3.9,1.4-5.4-0.1s-1.4-3.9,0.1-5.4s3.9-1.4,5.4,0.1C142.2,266.7,142.2,269.1,140.7,270.6z M144.2,302.6
	c1.8-1.8,4.8-1.8,6.6,0.1c1.8,1.8,1.8,4.8-0.1,6.6c-1.8,1.8-4.8,1.8-6.6-0.1C142.3,307.3,142.4,304.4,144.2,302.6z M146.7,291.9
	c-1.8-1.8-1.8-4.8,0.1-6.6c1.8-1.8,4.8-1.8,6.6,0.1c1.8,1.8,1.8,4.8-0.1,6.6C151.5,293.8,148.5,293.8,146.7,291.9z M152.3,275
	c-1.8,1.8-4.8,1.8-6.6-0.1c-1.8-1.8-1.8-4.8,0.1-6.6c0.3-0.3,0.5-0.5,0.9-0.7c2.1,2.2,4.1,4.5,5.9,7
	C152.5,274.8,152.4,274.9,152.3,275z M85.2,326.7c1.2,1.2,1.2,3.2-0.1,4.3c-1.2,1.2-3.2,1.2-4.4-0.1c-1.2-1.2-1.2-3.2,0.1-4.3
	C82.1,325.4,84,325.4,85.2,326.7z M83.4,306.6c1.2-1.2,3.2-1.2,4.4,0.1c1.2,1.2,1.2,3.2-0.1,4.3c-1.2,1.2-3.2,1.2-4.4-0.1
	C82.2,309.7,82.2,307.7,83.4,306.6z M82.5,345.9c1.5-1.5,3.9-1.4,5.4,0.1s1.4,3.9-0.1,5.4s-3.9,1.4-5.4-0.1
	C81,349.8,81,347.4,82.5,345.9z M63.3,342.7c1.2,1.2,1.2,3.2-0.1,4.3c-1.2,1.2-3.2,1.2-4.4-0.1c-1.2-1.2-1.2-3.2,0.1-4.3
	C60.1,341.4,62.1,341.4,63.3,342.7z M62.9,326.6c1.2-1.2,3.2-1.2,4.3,0.1c1.2,1.2,1.2,3.2-0.1,4.3c-1.2,1.2-3.2,1.2-4.3-0.1
	C61.7,329.7,61.7,327.8,62.9,326.6z M61.1,357.3c1.5,1.5,1.4,3.9-0.1,5.4s-3.9,1.4-5.4-0.1s-1.4-3.9,0.1-5.4
	C57.2,355.8,59.6,355.8,61.1,357.3z M61.8,368.9c1.8-1.8,4.8-1.8,6.6,0.1c1.8,1.8,1.8,4.8-0.1,6.6c-1.8,1.8-4.8,1.8-6.6-0.1
	C59.9,373.6,60,370.7,61.8,368.9z M69.8,335.1c1.2-1.2,3.2-1.2,4.4,0.1c1.2,1.2,1.2,3.2-0.1,4.3c-1.2,1.2-3.2,1.2-4.4-0.1
	C68.6,338.2,68.6,336.3,69.8,335.1z M71,353.4c1.5-1.5,3.9-1.4,5.4,0.1s1.4,3.9-0.1,5.4s-3.9,1.4-5.4-0.1S69.5,354.9,71,353.4z
	 M47.8,353.3c-1.2-1.2-1.2-3.2,0.1-4.4c1.2-1.2,3.2-1.2,4.4,0.1c1.2,1.2,1.2,3.2-0.1,4.4C50.9,354.6,49,354.6,47.8,353.3z
	 M47.5,363.7c-1.5,1.5-3.9,1.4-5.4-0.1s-1.4-3.9,0.1-5.4s3.9-1.4,5.4,0.1C49,359.8,49,362.2,47.5,363.7z M37.4,351.8
	c-1.2,1.2-3.2,1.2-4.3-0.1c-1.2-1.2-1.2-3.2,0.1-4.4c1.2-1.2,3.2-1.2,4.3,0.1C38.7,348.6,38.7,350.6,37.4,351.8z M53.3,371.3
	c1.3,1.4,1.6,3.3,1,4.9c-2.4-1.7-4.8-3.5-7-5.5C49.2,369.5,51.7,369.7,53.3,371.3z M71.1,380.6c2.2-2.2,5.8-2.1,8,0.1
	c1.8,1.8,2.1,4.6,0.9,6.7c-3.6-0.8-7.1-1.8-10.5-3.1C69.5,382.9,70.1,381.6,71.1,380.6z M82.8,373.2c-1.8-1.8-1.8-4.8,0.1-6.6
	c1.8-1.8,4.8-1.8,6.6,0.1c1.8,1.8,1.8,4.8-0.1,6.6C87.5,375.1,84.6,375.1,82.8,373.2z M91.6,318.4c1.2-1.2,3.2-1.2,4.4,0.1
	c1.2,1.2,1.2,3.2-0.1,4.3c-1.2,1.2-3.2,1.2-4.4-0.1C90.4,321.5,90.4,319.6,91.6,318.4z M92.8,337.2c1.5-1.5,3.9-1.4,5.4,0.1
	s1.4,3.9-0.1,5.4s-3.9,1.4-5.4-0.1C91.3,341.1,91.3,338.6,92.8,337.2z M99,355.7c1.8-1.8,4.8-1.8,6.6,0.1c1.8,1.8,1.8,4.8-0.1,6.6
	c-1.8,1.8-4.8,1.8-6.6-0.1C97.2,360.4,97.2,357.5,99,355.7z M123.8,377.6c2.2-2.2,5.8-2.1,8,0.1c0.2,0.3,0.5,0.5,0.6,0.8
	c-3.2,1.9-6.5,3.6-10,5.1C121.8,381.6,122.2,379.2,123.8,377.6z M131.2,356.3c-2.2-2.2-2.1-5.8,0.1-8c2.2-2.2,5.8-2.1,8,0.1
	s2.1,5.8-0.1,8C137,358.6,133.4,358.5,131.2,356.3z M139.5,326.1c-1.8-1.8-1.8-4.8,0.1-6.6c1.8-1.8,4.8-1.8,6.6,0.1
	c1.8,1.8,1.8,4.8-0.1,6.6C144.2,328,141.2,328,139.5,326.1z M143.9,336.1c2.2-2.2,5.8-2.1,8,0.1s2.1,5.8-0.1,8
	c-2.2,2.2-5.8,2.1-8-0.1C141.6,341.8,141.6,338.3,143.9,336.1z M164.3,331.9c-2.2,2.2-5.8,2.1-8-0.1s-2.1-5.8,0.1-8
	c2.2-2.2,5.8-2.1,8,0.1c1,1.1,1.6,2.5,1.6,3.8c-0.1,0.6-0.2,1.3-0.3,1.9C165.4,330.5,164.9,331.3,164.3,331.9z M89,388.7
	c-0.7-2-0.2-4.3,1.4-5.8c2.2-2.2,5.8-2.1,8,0.1c1.6,1.6,2,3.9,1.3,5.9c-1.5,0.1-3,0.1-4.5,0.1C93,389,91,388.9,89,388.7z
	 M137.8,374.8c-1.9-2.2-1.8-5.6,0.4-7.6c2.2-2.2,5.8-2.1,8,0.1l0.1,0.1C143.7,370.1,140.9,372.6,137.8,374.8z"/>
<path d="M168.1,358.9c-14.4,25.6-41.8,42.8-73.3,42.8c-31.4,0-58.8-17.3-73.2-42.8H0c15.9,36.6,52.4,62.2,94.9,62.2
	s79-25.6,94.9-62.2H168.1z"/>
<polygon points="91.8,512.1 85,411.7 104.6,411.7 97.7,512.1 "/>
<path d="M507.7,0L272.1,267c-14.1,35.8-41.4,51.6-73.1,54.2c0.1-1.3,0.1-2.5,0.1-3.8c0-57.5-46.6-104-104-104
	c-24.2,0-46.5,8.3-64.2,22.2c-30-46-31-99.1-0.5-120C62.2,92.9,155.9,127.9,190,175c51.6,70.8,84.2,35.6,91,46.1L475.7,0H507.7z"/>
</svg>
