<?xml version="1.0" encoding="utf-8"?>
<!-- Generator: Adobe Illustrator 21.1.0, SVG Export Plug-In . SVG Version: 6.00 Build 0)  -->
<svg version="1.1" id="Layer_2" xmlns="http://www.w3.org/2000/svg" xmlns:xlink="http://www.w3.org/1999/xlink" x="0px" y="0px"
	 viewBox="0 0 550 512" style="enable-background:new 0 0 550 512;" xml:space="preserve">
<path d="M493.9,238.9c-5.4-1.1-9.3-5.8-9.3-11.4v-0.1c0-27.6-63.8-49.9-142.5-49.9c-48.9,0-92,8.6-117.6,21.7
	c-4.7,2.4-10.2,3.2-15.4,2c-6.8-1.5-14.1-2.4-21.7-2.4c-25.9,0-48.4,9.6-59.4,23.8c-4.4,5.7-11.5,8.6-18.5,7.9l-8.5-90.3
	c-0.2-2.2,1.4-4.1,3.6-4.3c10-0.8,33.2-2.6,36.5-3c16.8-1.6,23.6,0.7,37.5,15.9c5.7,6.2,11.8,12.5,20.6,14.8
	c8,2.1,19.6-0.4,32.5-6.7c14.3-9.3,32.6-22.4,67.6-56.5c4.5-4.4,3.1-9.3,1.5-11.4c-1.7-2.2-4.1-4.3-10.7-3.4
	c-30.3,3.8-68,13.9-91.6-16.4c-5-6.4-16.7-26.7-16.7-26.7c-1.7-2.8-14.8-29.5-48.6-21.3C122.8,24,107.4,28.8,92,36.1
	c0,0-0.3-0.6-2.3-1c-1.9-0.3-5.3-0.5-11.2,0.4c-3.8,0.5-6.2,1.1-7.7,1.7c-1.7,0.7-2.7,2.3-2.5,4.1L92.7,315c0,0.1,0,0.2,0,0.3
	c0.1,2,5.7,3.4,12.5,3.2c6.7-0.3,12-2,12.2-3.9c0,0,0-0.1,0-0.1c0-0.1,0-0.2,0-0.4l-0.7-8.9c7.8,2.5,13,7.2,13,12.5
	c0,8-11.8,14.5-26.2,14.5s-26.2-6.5-26.2-14.5c0-4.5,3.7-8.5,9.5-11.2l-6.6-79C35.7,228.2,0,253.9,0,285.5c0,6.6,1.6,12.9,4.4,18.9
	c8,16.4,7.6,35.3-0.9,51.4c-2.2,4.2-3.6,8.7-3.6,13.9c0,34.3,34.8,62.1,77.6,62.1c17.2,0,33.1-4.5,46-12.1
	c31,18.1-27.1,33.2,10.3,65c20.3,17.3,127.1,5.8,178.6-62.8c1.9-2.6,4.6-4.4,7.7-5.5h0.1c2.5-0.7,5.1-1.1,7.7-0.8
	c44,3.7,132.1-19.5,168-88.5c0.2-0.4,0.4-0.7,0.5-0.9c3.7-7.5,10.2-13.3,18.1-16.1c21.7-7.8,35.6-19.6,35.6-32.8
	C550,260.3,527.1,245.5,493.9,238.9z M80.2,38.9c-1.9,0.2-3.7,0.2-4.7,0c-0.6-0.1-1-0.3-1-0.5c-0.1-0.7,2.4-1.5,5.6-1.8
	c1.9-0.2,3.7-0.2,4.7,0c0.6,0.1,1,0.3,1,0.5C85.8,37.8,83.3,38.6,80.2,38.9z"/>
</svg>
