<?xml version="1.0" encoding="utf-8"?>
<!-- Generator: Adobe Illustrator 21.1.0, SVG Export Plug-In . SVG Version: 6.00 Build 0)  -->
<svg version="1.1" id="Layer_1" xmlns="http://www.w3.org/2000/svg" xmlns:xlink="http://www.w3.org/1999/xlink" x="0px" y="0px"
	 viewBox="0 0 550 512" style="enable-background:new 0 0 550 512;" xml:space="preserve">
<g>
	<path d="M116.6,3.1v25.3h-7.2V3.1H85.8v25.3h-7.2V3.1H54.4v25.3h-7.2V3.1H23v25.3h-7.2V3.1L0,8.6v91.9h133.7V8.6L116.6,3.1z
		 M45,91.4H25.2V63.5c0-6.8,4.4-12.2,9.8-12.2c2.7,0,5.2,1.4,7,3.6c1.8,2.2,2.9,5.3,2.9,8.7C45,63.6,45,91.4,45,91.4z M81.8,91.4
		H62.1V63.5c0-6.8,4.4-12.2,9.8-12.2c2.7,0,5.2,1.4,7,3.6c1.8,2.2,2.9,5.3,2.9,8.7C81.8,63.6,81.8,91.4,81.8,91.4z M117.1,91.4H97.3
		V63.5c0-6.8,4.4-12.2,9.8-12.2c2.7,0,5.2,1.4,7,3.6c1.8,2.2,2.9,5.3,2.9,8.7V91.4z"/>
	<path d="M518.6,46.3v30.3h-13.3V46.3h-44v30.3H448V46.3h-45v30.3h-13.3V46.3h-45v30.3h-13.4V46.3l-29.8,8.3V165h248.4V54.6
		L518.6,46.3z M385.4,154h-37v-28.4c0-12.7,8.3-22.9,18.5-22.9c10.3,0,18.5,10.3,18.5,22.9V154z M454,154h-37v-28.4
		c0-12.7,8.3-22.9,18.5-22.9c10.3,0,18.5,10.3,18.5,22.9L454,154L454,154z M519.1,154h-37v-28.4c0-12.7,8.3-22.9,18.5-22.9
		c10.3,0,18.5,10.3,18.5,22.9L519.1,154L519.1,154z"/>
	<path d="M550,175.3v179l-12.6,38.5L456.9,512h-92c0,0,3.8-6.2,7.9-12.8l-3.8-22.9L385,451l4,22.9c3.1-4.8,6.4-9.8,9.5-14.6
		l-3.4-21.8l17.5-20l2.7,17.2c0.6-0.9,1.4-1.8,1.9-2.6c2.3-3,6.3-7.3,10.9-12l-1.8-16.4l20.8-15.7l1.1,12.4c4.8-4.5,8.1-7.6,8.1-7.6
		v-84.3c0-15.5-12.5-28-28-28h-23c-15.5,0-28,12.6-28,28l0.1,84.4L228.8,512H43.9c0,0,6.7-5.7,15.8-11.7l-0.2-25l24.9-14.8l0.2,23.5
		c9.5-6.3,20.2-13.2,31.1-20.4l-0.2-22.3l24.9-13.6l0.2,19.6c9.6-6.3,19.1-12.4,27.9-18.1l-0.2-16.7L193,399l0.2,14.3
		c2.7-1.8,5.3-3.4,7.7-4.9c5.6-3.5,11.4-7,17.4-10.4l-0.2-13.6l24.9-13.1L243,384c9.8-5.4,19.4-10.3,27.7-14.6l-0.2-12.8l24.9-14.2
		l0.1,14.6c3.7-1.8,5.9-2.8,5.9-2.8v-28.8l-5.8,12.4c-20.4,6.4-112.4,46.1-107.7,43.8C60.1,358.7,15.4,326.1,0,307V197.5l8.5,4.2
		l-2.2,6.6c3.5,3.7,7.7,7.9,12.7,12.5l2.7-5.8l12.2,8.7l-3.2,7c4,3.2,8.3,6.5,12.9,9.7l2.9-7.6l12.7,7.5l-3.1,8.2
		c4.5,2.8,9.4,5.5,14.4,8.1l3.3-9.4l13,6.5l-3.1,9.1c6.7,2.9,13.8,5.6,21.2,8l1.7-9.6l12.9,4.5l-1,9c2.1,0.5,4.2,1,6.4,1.5
		c5.3,1.2,10.8,2.2,16.5,3.3l0.4-8.2l14,2.8l-0.5,7.7c6.3,1,12.6,1.9,19,2.7l0.5-7l14,2.8l-0.5,5.8c6.3,0.7,12.6,1.4,18.8,2l0.2-5.3
		l14,0.9l-0.2,5.6c6.9,0.6,13.6,1.1,20.2,1.5l0.2-5.8l14,0.9l-0.2,5.8c8.8,0.5,17,0.9,24.3,0.8v-6.8h14v7.8l8.2-0.4v-23.6
		c0,0-73.1,0.9-92.4-0.3c-39.2-2.5-156.6-28.1-209.2-95.7V109h133.7v111.1c0,0,1.6,0.6,4.6,1.5v-5.9l14,2v7.7
		c5.7,1.4,12.6,2.8,20.3,4v-9.7l14,0.9v10.5c5.9,0.5,12,0.9,18.5,1v-10.6h14v10c6.6-0.5,14.9-1.2,23.8-2.1v-8.5l14-0.8v7.9
		c6.6-0.7,13.3-1.4,19.7-2.1v-7.4l14-1.5v7.4c7.8-1.2,11-2.8,11-2.8v-46.5H550V175.3z"/>
</g>
</svg>
