<?xml version="1.0" encoding="utf-8"?>
<!-- Generator: Adobe Illustrator 22.0.1, SVG Export Plug-In . SVG Version: 6.00 Build 0)  -->
<svg version="1.1" id="Layer_1" xmlns="http://www.w3.org/2000/svg" xmlns:xlink="http://www.w3.org/1999/xlink" x="0px" y="0px"
	 viewBox="0 0 512 512" style="enable-background:new 0 0 512 512;" xml:space="preserve">
<path d="M256,0C115.2,0,0,115.2,0,256s115.2,256,256,256s256-115.2,256-256S396.8,0,256,0z M359.1,145.2l-7.1-5
	c-6.2-4.3-13.5-6.6-21.1-6.6c-17.8,0-33,12.6-36.2,29.9l-3.5,30.7h49.5v42.1H286l-0.7,5.7l-0.2,0l-12.1,101.4
	c-4.1,51.5-42.8,88.9-92.1,88.9c-10.2,0-20.3-1.7-29.9-5l-3.7-1.3l5.4-60.5l7.1,5c6.2,4.3,13.5,6.6,21.1,6.6
	c19.7,0,34.9-14.8,36.9-36c1.5-15.6,9.8-84.5,12.3-104.7h-36.6v-42.1h41.5l4.2-34.8c5.5-46.2,44.9-81.1,91.5-81.1
	c10.2,0,20.3,1.7,29.9,5l3.7,1.3L359.1,145.2z"/>
</svg>
