<?xml version="1.0" encoding="utf-8"?>
<!-- Generator: Adobe Illustrator 21.1.0, SVG Export Plug-In . SVG Version: 6.00 Build 0)  -->
<svg version="1.1" id="south_korea_won_1_" xmlns="http://www.w3.org/2000/svg" xmlns:xlink="http://www.w3.org/1999/xlink" x="0px"
	 y="0px" viewBox="0 0 307 512" style="enable-background:new 0 0 307 512;" xml:space="preserve">
<path id="netherland_guilder" d="M264.9,67.8c13.3,0,25.6,4.1,35.7,11.2L307,7.6c-13.2-4.5-27.3-7-42.1-7
	c-66.3,0-120.9,49.8-128.6,114l-7.1,58.3H68.3v47.7h55.3c0,0-16.5,136.4-19.2,163.8c-3.3,34.3-27.9,60.3-62.3,60.3
	c-13.3,0-25.6-4.1-35.7-11.2L0,504.8c13.2,4.5,27.3,7,42.1,7c71.2,0,123.9-54.8,129.5-125.4l18-151.1c0.1,0.1,0.2,0.1,0.2,0.2
	l1.8-15H272v-47.7h-74.5l6.2-54.2l0,0C209,89.7,234.4,67.8,264.9,67.8z"/>
</svg>
