<?xml version="1.0" encoding="utf-8"?>
<!-- Generator: Adobe Illustrator 22.0.1, SVG Export Plug-In . SVG Version: 6.00 Build 0)  -->
<svg version="1.1" id="Layer_1" xmlns="http://www.w3.org/2000/svg" xmlns:xlink="http://www.w3.org/1999/xlink" x="0px" y="0px"
	 viewBox="0 0 545.2 512" style="enable-background:new 0 0 545.2 512;" xml:space="preserve">
<path d="M364.3,1l-0.6-0.4c-0.8-0.7-1.5-0.5-2.2,0.2c-0.4,0.4-0.8,0.9-1.2,1.6c-11,18.3-25.4,35.7-42.2,52.5
	c-74.8,74.8-196.7,137.7-270.7,211.8C28,285.9,12,305.9,0.9,327.1c54.8,63.6,180,184.7,180.4,184.3c7.5-9.7,15.3-19,23.2-27.9
	s15.9-17.4,24.1-25.6c95.2-95.2,206-142.5,269.8-206.3c21.6-21.6,37.8-45,46.3-72.9C481.9,121.6,427,58,364.3,1z M195.1,442.2
	c-4,4-8.6,7.3-13.8,9.9l-2.9,1.4l-23.3-28l7-1.2c3.8-0.7,7.2-2.5,9.9-5.2c7-7.1,7.1-17.8,0.3-26.2c-5.2-6.4-26.7-33.7-34.6-43.7
	l-13.9,13.9L105.7,345l16.1-16.1l-11-14c-16-20.4-14.3-49.7,4.1-68.1c4-4,8.6-7.3,13.8-9.8l2.9-1.4l23.4,28l-6.9,1.2
	c-3.8,0.7-7.2,2.5-9.9,5.2c-6.3,6.3-7.3,16.3-2.3,23.6l9.5,11.9l18.9-18.9l18.1,18.1L161,325.7l2,2.5l-0.1,0l33.5,42.6
	C215.1,392.8,214.5,422.8,195.1,442.2z M296.8,161.4c27.9-20.2,54.9-41.2,78.9-63.4l23.2,23.2c-21.5,20.2-49.5,39.6-81.4,60.9
	L296.8,161.4z M382.2,246.9l-20.7-20.7c27.9-20.2,54.9-41.2,78.9-63.4l23.2,23.2C442.1,206.3,414.2,225.6,382.2,246.9z"/>
</svg>
