<?xml version="1.0" encoding="utf-8"?>
<!-- Generator: Adobe Illustrator 21.1.0, SVG Export Plug-In . SVG Version: 6.00 Build 0)  -->
<svg version="1.1" id="_x37_2" xmlns="http://www.w3.org/2000/svg" xmlns:xlink="http://www.w3.org/1999/xlink" x="0px" y="0px"
	 viewBox="0 0 640 512" style="enable-background:new 0 0 640 512;" xml:space="preserve">
<g id="h4">
	<path d="M300.7,382.3c-1-4.4-1.5-12.7-1.5-24.8V155.4h-0.1c0-8.5,0.2-14.7,0.6-18.8c0.4-4.1,1.3-7.8,2.6-11c1.3-3.3,3.6-6,6.7-8.1
		c3.1-2.1,8.1-4.1,15-6V96H201.5v15.5c8.5,2.4,14.2,4.9,17.3,7.9c3.1,2.9,5.1,6.6,6.1,11.3c1,4.6,1.5,12.9,1.5,24.8v78.4H120.3
		v-78.5c0-12.1,0.6-20.4,1.9-25c1.3-4.6,3.4-8.3,6.4-11.1c3.1-2.8,8.7-5.4,17-7.8V96H22.4v15.5c5.9,1.6,10.6,3.3,14,5.3
		c3.4,1.9,5.9,4.5,7.5,7.6c1.6,3.1,2.6,7.2,3.1,12.2c0.4,5,0.6,11.2,0.6,18.5v202.4c0,7.5-0.3,13.7-0.7,18.7
		c-0.5,4.9-1.5,9-3.2,12.2c-1.6,3.2-4.1,5.7-7.5,7.5c-3.4,1.8-7.9,3.5-13.7,5.1v15.5h123.2V401c-4.6-1.1-8.4-2.4-11.5-3.9
		c-3.1-1.5-5.6-3.3-7.4-5.3c-1.8-2-3.2-4.5-4.1-7.5c-0.9-2.9-1.6-6.8-1.9-11.5c-0.3-4.7-0.5-9.8-0.5-15.3v-94.1h106.2v94.1
		c0,13.3-0.6,22.1-1.6,26.4c-1.1,4.3-3,7.6-5.6,10c-2.7,2.4-8.5,4.7-17.6,7.1v15.5h122.5V401c-8.3-2-14-4.5-17.2-7.5
		C303.8,390.5,301.7,386.8,300.7,382.3z"/>
	<path d="M591.3,273.1V96h-76.6L369.7,281.1v55.2h157.6v80.1h64v-80.1H620v-63.3H591.3z M447.2,273.1l80.2-100.2l-0.1,100.2H447.2z"
		/>
</g>
</svg>
