<?xml version="1.0" encoding="utf-8"?>
<!-- Generator: Adobe Illustrator 21.1.0, SVG Export Plug-In . SVG Version: 6.00 Build 0)  -->
<svg version="1.1" id="Layer_1" xmlns="http://www.w3.org/2000/svg" xmlns:xlink="http://www.w3.org/1999/xlink" x="0px" y="0px"
	 viewBox="0 0 211.4 512.6" style="enable-background:new 0 0 211.4 512.6;" xml:space="preserve">
<path d="M205,67c3.5,0,6.4-2.9,6.4-6.4c0-3.6-2.9-6.4-6.4-6.4h-9.6V41.4h9.6c3.5,0,6.4-2.9,6.4-6.4s-2.9-6.4-6.4-6.4h-9.6v-1.4
	c0-15-12.1-27.1-27.1-27.1H43C28.1,0,15.9,12.2,15.9,27.1v1.4H6.4C2.9,28.5,0,31.4,0,35c0,3.5,2.9,6.4,6.4,6.4h9.5v12.8H6.4
	C2.9,54.2,0,57,0,60.6C0,64.1,2.9,67,6.4,67h9.5v12.8H6.4c-3.5,0-6.4,2.9-6.4,6.4c0,3.6,2.9,6.4,6.4,6.4h9.5v12.8H6.4
	c-3.5,0-6.4,2.9-6.4,6.4s2.9,6.4,6.4,6.4h9.5V131H6.4c-3.5,0-6.4,2.9-6.4,6.4s2.9,6.4,6.4,6.4h9.5v12.8H6.4c-3.5,0-6.4,2.9-6.4,6.4
	s2.9,6.4,6.4,6.4h9.5v12.8H6.4c-3.5,0-6.4,2.9-6.4,6.4s2.9,6.4,6.4,6.4h9.5v13H6.4c-3.5,0-6.4,2.9-6.4,6.4s2.9,6.4,6.4,6.4h9.5v12.8
	H6.4c-1.8,0-3.4,0.7-4.5,1.9C0.7,236.7,0,238.3,0,240c0,3.6,2.9,6.4,6.4,6.4h9.5v1.4c0,15,12.2,27.1,27.1,27.1h26.2v26.3H68
	c-3.5,0-6.4,2.9-6.4,6.4v160.7c0,24.3,19.8,44.1,44.1,44.1s44.1-19.8,44.1-44.1V307.8c0-3.5-2.9-6.4-6.4-6.4h-1.2V275h26.2
	c14.9,0,27.1-12.1,27.1-27.1v-1.4h9.6c3.5,0,6.4-2.9,6.4-6.4s-2.9-6.4-6.4-6.4h-9.6v-12.8h9.6c3.5,0,6.4-2.9,6.4-6.4
	s-2.9-6.4-6.4-6.4h-9.6v-12.8h9.6c3.5,0,6.4-2.9,6.4-6.4s-2.9-6.4-6.4-6.4h-9.6v-12.8h9.6c3.5,0,6.4-2.9,6.4-6.4s-2.9-6.4-6.4-6.4
	h-9.6v-12.8h9.6c3.5,0,6.4-2.9,6.4-6.4s-2.9-6.4-6.4-6.4h-9.6v-12.8h9.6c3.5,0,6.4-2.9,6.4-6.4s-2.9-6.4-6.4-6.4h-9.6V92.6h9.6
	c3.5,0,6.4-2.9,6.4-6.4s-2.9-6.4-6.4-6.4h-9.6V67H205z M85.9,28.6c3.6,0,6.5,2.9,6.5,6.5s-2.9,6.5-6.5,6.5s-6.5-2.9-6.5-6.5
	C79.3,31.5,82.3,28.6,85.9,28.6z M85.9,54.2c3.6,0,6.5,2.9,6.5,6.5c0,3.6-2.9,6.5-6.5,6.5s-6.5-2.9-6.5-6.5
	C79.3,57.1,82.3,54.2,85.9,54.2z M85.9,79.8c3.6,0,6.5,2.9,6.5,6.5s-2.9,6.5-6.5,6.5s-6.5-2.9-6.5-6.5
	C79.3,82.7,82.3,79.8,85.9,79.8z M85.9,105.3c3.6,0,6.5,2.9,6.5,6.5s-2.9,6.5-6.5,6.5s-6.5-2.9-6.5-6.5
	C79.3,108.3,82.3,105.3,85.9,105.3z M85.9,130.9c3.6,0,6.5,2.9,6.5,6.5s-2.9,6.5-6.5,6.5s-6.5-2.9-6.5-6.5
	C79.3,133.8,82.3,130.9,85.9,130.9z M85.9,155.5c3.6,0,6.5,2.9,6.5,6.5s-2.9,6.5-6.5,6.5s-6.5-2.9-6.5-6.5
	C79.3,158.4,82.3,155.5,85.9,155.5z M85.9,182.1c3.6,0,6.5,2.9,6.5,6.5s-2.9,6.5-6.5,6.5s-6.5-2.9-6.5-6.5
	C79.3,185,82.3,182.1,85.9,182.1z M85.9,208.6c3.6,0,6.5,2.9,6.5,6.5s-2.9,6.5-6.5,6.5s-6.5-2.9-6.5-6.5
	C79.3,211.6,82.3,208.6,85.9,208.6z M79.3,241.6c0-3.6,2.9-6.5,6.5-6.5s6.5,2.9,6.5,6.5s-2.9,6.5-6.5,6.5
	C82.3,248.1,79.3,245.2,79.3,241.6z M125.9,248.1c-3.6,0-6.5-2.9-6.5-6.5s2.9-6.5,6.5-6.5s6.5,2.9,6.5,6.5
	C132.4,245.2,129.5,248.1,125.9,248.1z M125.9,221.7c-3.6,0-6.5-2.9-6.5-6.5s2.9-6.5,6.5-6.5s6.5,2.9,6.5,6.5
	S129.5,221.7,125.9,221.7z M125.9,195.1c-3.6,0-6.5-2.9-6.5-6.5s2.9-6.5,6.5-6.5s6.5,2.9,6.5,6.5
	C132.4,192.2,129.5,195.1,125.9,195.1z M125.9,168.5c-3.6,0-6.5-2.9-6.5-6.5s2.9-6.5,6.5-6.5s6.5,2.9,6.5,6.5
	S129.5,168.5,125.9,168.5z M125.9,144c-3.6,0-6.5-2.9-6.5-6.5s2.9-6.5,6.5-6.5s6.5,2.9,6.5,6.5C132.4,141,129.5,144,125.9,144z
	 M125.9,118.4c-3.6,0-6.5-2.9-6.5-6.5s2.9-6.5,6.5-6.5s6.5,2.9,6.5,6.5S129.5,118.4,125.9,118.4z M125.9,92.8
	c-3.6,0-6.5-2.9-6.5-6.5s2.9-6.5,6.5-6.5s6.5,2.9,6.5,6.5S129.5,92.8,125.9,92.8z M125.9,67.2c-3.6,0-6.5-2.9-6.5-6.5
	s2.9-6.5,6.5-6.5s6.5,2.9,6.5,6.5C132.4,64.3,129.5,67.2,125.9,67.2z M125.9,41.6c-3.6,0-6.5-2.9-6.5-6.5s2.9-6.5,6.5-6.5
	s6.5,2.9,6.5,6.5S129.5,41.6,125.9,41.6z"/>
</svg>
