<?xml version="1.0" encoding="utf-8"?>
<!-- Generator: Adobe Illustrator 21.1.0, SVG Export Plug-In . SVG Version: 6.00 Build 0)  -->
<svg version="1.1" id="Layer_1" xmlns="http://www.w3.org/2000/svg" xmlns:xlink="http://www.w3.org/1999/xlink" x="0px" y="0px"
	 viewBox="0 0 550 512.6" style="enable-background:new 0 0 550 512.6;" xml:space="preserve">
<g>
	<path d="M503.3,80.1c-15.1-8.3-27.7-14.2-69.6-14.2c-115.7,0-202.3,38.8-278,25.4c0,0-4,0.2-16.4-8.9v147.8c0,0,7.7-7.9,17.8-7.9
		c85.4-2.8,146.5,14.6,146.5,14.6c23.6,4.9,37.1,15.1,44,45.6c1.4,6.5,2.4,14,2.9,22.2c-4.8,1-8.3,5.2-8.3,10.3l0.1,33.4
		c0,4.6,2.9,8.5,7.1,9.9c-3,33.5-9.8,67.8-18,90.1c-8.7,24.2,102.8,29.5,111.1,20.5c16-32.7,17.9-107.9,11.2-158.4
		c-3.3-25.5-9.3-55.7,34.8-68.8c35.8-11.2,61.7-44.6,61.7-84C549.9,124.1,532.4,96.3,503.3,80.1z M464.9,215.8
		c-32.3,0-58.5-26.1-58.5-58.5s26.3-58.5,58.5-58.5c32.3,0,58.5,26.1,58.5,58.5C523.5,189.7,497.2,215.8,464.9,215.8z"/>
	<path d="M496.3,185.1c0,3.3-2.5,5.8-5.8,5.8h-51.1c-3.3,0-5.8-2.5-5.8-5.8s2.5-6,5.8-6h51.1C493.7,179.2,496.3,181.8,496.3,185.1z"
		/>
	<path d="M504.7,156.8c0,3.3-2.5,5.8-5.8,5.8h-67.7c-3.3,0-5.8-2.5-5.8-5.8c0-3.3,2.5-5.8,5.8-5.8h67.7
		C502,151,504.7,153.7,504.7,156.8z"/>
	<path d="M496.3,129.5c0,3.3-2.5,5.8-5.8,5.8h-51.1c-3.3,0-5.8-2.5-5.8-5.8c0-3.3,2.5-6,5.8-6h51.1
		C493.7,123.8,496.3,126.3,496.3,129.5z"/>
	<path d="M115.3,82.4L115.3,82.4c6.8,0,12.2,0,12.2,0v147.8c0,0-5.6,0-12.2,0l0,0c-6.8,0-12.2-5.6-12.2-12.2V94.8
		C102.9,87.9,108.5,82.4,115.3,82.4z"/>
	<path d="M81,201.4c-1.6-2.9-5.2-4.1-8.2-2.7c-3.8,1.7-8.9,3.7-12.8,3.7c-10.6,0-12.1-7.8-27-7.8c-7.8,0-17.8,4.5-22.7,7.3
		c-3.2,1.8-4.2,6-2.2,9.1l0.6,1c1.9,2.9,5.7,3.8,8.7,2c3.8-2.3,11.6-6.2,15.6-6.2c10.3,0,13.4,7.8,27,7.8c6.2,0,13.3-2.8,18.2-5.1
		C81.5,208.7,82.8,204.6,81,201.4L81,201.4z"/>
	<path d="M9.5,112.8c2,3.5,6.4,4.7,9.9,2.6c3.9-2.4,9.1-4.8,13.6-4.8c9.1,0,13.7,7.8,27,7.8c6,0,12.9-2.5,17.7-4.8
		c3.7-1.7,5.2-6,3.4-9.6l0,0c-1.7-3.4-5.7-4.9-9.2-3.4c-3.7,1.5-8.3,3.1-11.8,3.1c-10.5,0-13.4-7.8-27-7.8c-7.3,0-15.6,3.7-21.1,6.8
		c-3.5,1.9-4.7,6.3-2.8,9.8L9.5,112.8z"/>
	<path d="M91.4,151.7c-1.7-3.3-5.9-4.6-9.3-3c-4.6,2.2-11.1,4.8-16.4,4.8c-14.2,0.1-16.1-9.6-35.4-9.6c-10.2,0-21.5,5.2-26.9,8.3
		c-3.4,2.1-4.5,6.5-2.3,9.9l0,0c2.1,3.2,6.2,4.1,9.4,2.2c4.3-2.5,13.3-6.6,20.4-6.6c14.7,0,15.7,9.7,35.4,9.7
		c8.3,0,16.5-2.9,21.9-5.3c3.7-1.7,5.2-6.1,3.3-9.7L91.4,151.7z"/>
</g>
</svg>
