<?xml version="1.0" encoding="utf-8"?>
<!-- Generator: Adobe Illustrator 21.1.0, SVG Export Plug-In . SVG Version: 6.00 Build 0)  -->
<svg version="1.1" id="Layer_1" xmlns="http://www.w3.org/2000/svg" xmlns:xlink="http://www.w3.org/1999/xlink" x="0px" y="0px"
	 viewBox="0 0 532.6 512" style="enable-background:new 0 0 532.6 512;" xml:space="preserve">
<path d="M526.1,177.3l-6.4-6.2c-6.3-6.3-14.2-10.3-22.2-11.3c-5.3-0.6-10.3,0.2-14.4,2.3l-16.9-16.9c6-6,13.5-14.4,2-25.9
	l-69.5-69.5C322.1-1.5,255.7,1,255.7,1s-4.6,4.6-5.3,5.3c0,0,28.1,7.2,52,21.1c23.5,13.7,31.7,26.5,31.7,26.5s-10-11.2-34-24.7
	c-24.1-13.5-51-21.5-51-21.5c-2.1,2.1-5.3,5.3-5.3,5.3s47.6,14.8,78.9,73c-0.9,3-1.2,6.2-0.9,9.5c0.6,7.3,4.1,14.9,10.3,21.1
	l16.2,15l-143.4,133L178.2,291l-3.9-3.9c-11.3-11.3-22.6-9-31.6,0L7.8,421.9c-13.5,13.5-6.7,27.6,5.9,40.2L50.6,499
	c12.6,11.7,25.9,19.4,40.2,5.9L225.6,370c10.3-10.3,9.5-22.2,0-31.6l-5.3-5.3l26.4-26.2l134.5-142.4l20.9,20.9
	c11.9,11.9,20.2,3.9,25.3-1.2l16.8,16.8c-2.1,4.2-3,9.1-2.3,14.5c1,8,5.3,14.8,11.6,21.2c2.8,2.8,10.5,10.5,10.5,10.5
	c7.3,7.3,19.5,4.2,26.3-2.6l36.9-36.9C535.3,199.7,533.8,185,526.1,177.3z"/>
</svg>
