<?xml version="1.0" encoding="utf-8"?>
<!-- Generator: Adobe Illustrator 21.1.0, SVG Export Plug-In . SVG Version: 6.00 Build 0)  -->
<svg version="1.1" id="Layer_12" xmlns="http://www.w3.org/2000/svg" xmlns:xlink="http://www.w3.org/1999/xlink" x="0px" y="0px"
	 viewBox="0 0 564 512" style="enable-background:new 0 0 564 512;" xml:space="preserve">
<g>
	<path d="M16.4,322c3.3-1.4,6.9-2.1,10.6-2.1c3.4,0,6.8,0.6,10.1,2c29,11.8,75.2,30.7,112.9,46.8c10.7,2.1,21.8,4.2,33.5,6.1
		c10-3.7,19.4-7.2,28.1-10.6c-4.5-1.8-9-3.6-13.5-5.4C142.3,335.4,87,304.6,65.3,293.5c-20.7-11.4-51.7-15.4-55,15.3
		C9.2,314.7,12.8,319.1,16.4,322z"/>
	<path d="M206.5,375c-7.9,3.8-11.6,11.2-11.7,19.3c0.3,12.3,8.7,24.4,25.6,24.6c3.8,0,8.1-0.6,12.9-2.2l106.6-33.5
		c3.7-1.1,7.6,0.9,8.8,4.5c1.1,3.6-1,7.6-4.7,8.7L237.4,430c-6,1.9-11.7,2.8-17.1,2.8c-19.4-0.1-32.6-12-37.4-26.2
		C143.7,389.1,75.3,361.1,37,345.5c-14.9-6.1-31.8,2.2-36.1,17.8l0,0c-3.3,11.7,1.8,24.2,12.3,30.4c52.6,31,206.3,119.2,250,118.3
		c53.7,1.1,107-61.1,195.2-64.7V312.5l-83.2,0.1C347.3,312,318.9,333.6,206.5,375z"/>
	<path d="M228.2,351c8.5-3.5,16.2-6.7,23.3-9.7c-20.6-7.6-47.5-19.9-66.8-20.4c-5.7-0.1-5.7-0.1-8.7-1.8
		c-51.7-33.4-59.1-30.9-78.4-27.8c-0.8,0-2.1,0.7-3.5,1.6C83.4,305.4,167.8,336.3,228.2,351z"/>
	<path d="M200.3,316.4c25.1,3.9,47.2,16.6,67.7,21.6c7.2-2.9,13.8-5.7,19.9-8.3c-17.6-6.5-42.1-17.2-59.4-20.8
		c-4.8-1-4.9-0.1-7.5-1.5c-33.2-17.7-50.6-17.7-66.8-19c-0.7,0-1.8,0.6-3,1.3c-1.9,2.2-1.4,4.6,1.1,7
		C165.1,303.6,172.3,307.6,200.3,316.4z"/>
	<path d="M464.5,284.1c-9.4,89.7,9.5,148,24,183.3H561V284.5C533.6,281,484.4,282.4,464.5,284.1z M523.5,446.6
		c-9.4,0-17.1-7.6-17.1-17.1c0-9.4,7.6-17.1,17.1-17.1c9.4,0,17.1,7.6,17.1,17.1C540.6,439,533,446.6,523.5,446.6z"/>
	<path d="M277,210v20.1c-8.7-0.2-17.5-1.3-26.2-3.3v-20.1C259.5,208.7,268.2,209.7,277,210z"/>
	<path d="M309,206.6v20.5c-8.7,2-17.4,2.7-26.2,2.9v-20.1C291.6,209.8,300.3,208.7,309,206.6z"/>
	<path d="M245,205.2v20.8c-9.3-2.6-18.1-5.4-26.2-9.9v-21.7C227.1,198.9,235.9,202.6,245,205.2z"/>
	<path d="M181.4,159.6v26.7c-9.5-14.4-14.4-30.4-14.4-46.5v-18.3c0,10,2.2,12.5,6.2,22.5C175.3,149.3,178.1,154.6,181.4,159.6z"/>
	<path d="M213,190.9v23.2c-10.2-6.5-19-12.8-26.2-21.7v-24.9C194.1,176.6,202.9,184.4,213,190.9z"/>
	<path d="M340.5,194.3v22.1c-8.1,4.5-16.9,6.9-26.2,9.5v-20.7C323.6,202.5,332.4,198.9,340.5,194.3z"/>
	<path d="M372.5,167.5v25.1c-7.2,8.9-16,14.2-26.2,20.7v-22.4C356.5,184.4,365.3,176.6,372.5,167.5z"/>
	<path d="M392.8,122.1v21.1l0,0c0,16-4.9,28.1-14.4,42.5v-26.1c3.3-5,6-10.2,8.1-15.5c2.2-5.6,3.9-11.2,4.9-16.8v0l0,0
		C391.9,125.4,392.8,122.1,392.8,122.1z"/>
	<path d="M279.8,29.6c-43.1,0-78,29.7-78,66.3s34.9,66.3,78,66.3s78-29.7,78-66.3S322.9,29.6,279.8,29.6z M301.7,103.7
		c-0.1,5.4-2.2,9.7-6.2,12.7c-3.2,2.3-7.4,4.1-13.3,4.6l-0.4,6.4l-5.8,0.2l0-6.6c-5.3-0.2-9.4-1.3-12.5-3.8c-3.6-2.9-5.1-7-5.3-12.5
		l10.7-0.4c0.1,2.9,1.3,5.1,3.3,6.2c1.3,0.9,2.8,1.4,4.5,1.5l0.6-14l-0.3-0.2l-0.3-0.2c-0.3-0.2-0.3,0-0.6-0.1
		c0.1,0.2-0.3,0-0.5,0.1c-5-0.7-8.5-1.9-10.5-3.2c-1.6-0.9-3.2-2.5-4.1-4.5c-0.8-1.8-1-4-0.9-6.9c0.2-5.1,2.2-8.9,5.8-11.6
		c3-2.3,7.2-3.9,12.8-4.5l0.4-6.4l0.3,0.2c1.6-0.1,2.8,0.4,3.9,1.4c1.2,1.2,1.5,2.3,1.5,3.8l0.1,1.2c4.9,0.5,8.7,1.7,11.9,4.2
		c3.2,2.7,4.7,6.6,4.8,11.7l-6.2,0.3c-2.3,0.2-3.9-0.7-4.9-2.9c-0.5-0.9-1-1.5-2.1-2.5c-1.3-0.7-2.2-1-3.3-1.3l-0.7,12.8
		c1.7,0.4,3.1,0.8,4.5,1c1.4,0.4,2.3,0.5,3.1,0.8c1.4,0.4,2.9,0.9,4.2,1.6c1.8,0.9,3.4,2.5,4.5,4.2
		C301.5,98.7,301.9,101,301.7,103.7z M283.1,99.7l-0.8,12.5c2.3-0.2,4.2-0.9,5.7-1.9c1.8-1.1,2.6-2.7,2.7-4.9
		C290.8,103,288.3,101,283.1,99.7z M270.8,82.4c-0.3,2.5,2.1,4.2,7.2,5.3l0.5-11.7c-2,0.4-3.6,1-5,1.7
		C271.7,78.8,270.9,80.5,270.8,82.4z"/>
	<path d="M279.8,0C217.5,0,167,43,167,96s50.5,96,112.8,96s112.8-43,112.8-96S342.1,0,279.8,0z M279.8,172.4
		c-49.6,0-89.8-34.2-89.8-76.4s40.2-76.4,89.8-76.4c49.6,0,89.8,34.2,89.8,76.4S329.4,172.4,279.8,172.4z"/>
</g>
</svg>
