<?xml version="1.0" encoding="utf-8"?>
<!-- Generator: Adobe Illustrator 21.1.0, SVG Export Plug-In . SVG Version: 6.00 Build 0)  -->
<svg version="1.1" id="Layer_5" xmlns="http://www.w3.org/2000/svg" xmlns:xlink="http://www.w3.org/1999/xlink" x="0px" y="0px"
	 viewBox="0 0 421.5 512" style="enable-background:new 0 0 421.5 512;" xml:space="preserve">
<style type="text/css">
	.st0{display:none;}
</style>
<g>
	<path class="st0" d="M252,103.1h-2.8c11.2,7,21.7,15.3,31.5,24.8c-4.2-7-7-15.3-7.7-23.5L252,103.1z"/>
	<path class="st0" d="M300.3,106.3l-17.5-1.3c2.1,22.9,23.1,41.3,49.7,41.3c6.3,0,11.9-1.3,17.5-3.2
		C336,127.9,319.9,114.5,300.3,106.3z"/>
	<path d="M88.5,109.5C44,140.7,11.7,195.1,2.8,260.2c16.6,7.7,36.7,14.3,59.1,19.3c4.5-90.7,28-147,38.7-168.2
		C96.4,110.7,92.4,110.1,88.5,109.5z M379.4,133.6c7.7-8.9,11.9-20.3,11.9-32.4c0-29.9-26.6-54.1-59.5-54.1
		c-8.4,0-16.1,1.3-23.1,4.5c-21-17.2-37.1-26.7-39.2-28V0.7H85.4v74.4h16.1v26.1c0,0,0,0-0.1,0c23.8,3.7,51.8,5.8,81.8,5.8
		c23.7,0,46.2-1.3,66.3-3.7c-0.1-0.1-0.2-0.2-0.4-0.2h2.8l21,1.3c0.7,8.3,3.5,16.5,7.7,23.5c-1.2-1.2-2.5-2.4-3.7-3.5
		c-1.2-1.1-2.5-2.2-3.7-3.3c0,0,0,0-0.1-0.1c0,0-0.1-0.1-0.1-0.1c-1.3-1.1-2.5-2.2-3.8-3.2c-0.1-0.1-0.2-0.2-0.3-0.2
		c-1.1-0.9-2.1-1.7-3.2-2.6c-0.3-0.3-0.6-0.5-1-0.8c-1-0.8-2-1.6-3.1-2.4h0c-8.4,1-17.3,1.9-26.6,2.6
		c11.2,23.3,32.9,78.7,37.2,165.4c28.2-6.2,52.7-14.7,71.3-24.7c-7-43.3-24.5-82-49-111.9c10.5,7.6,23.8,12.7,37.8,12.7
		c8.4,0,16.1-1.3,23.1-4.5c17.5,23.5,29.4,52.1,37.1,79.5c0,1.3,0.7,2.6,0.7,3.8c14,50.9,14.7,96.7,14.7,96.7h10.5
		c0-1.3,0.7-3.2,0.7-4.5C428.4,244.9,408.1,181.3,379.4,133.6z M345,144.7c-3,1-6.2,1.4-9.7,1.6c-0.4,0-0.8,0-1.1,0.1h-0.3
		c-0.6,0-1.1,0-1.7,0h-0.4c-25.9,0-46.9-18.4-49.7-41.3l0.7,0.1l16.8,1.2c19.6,8.3,36.4,21,49,36.9
		C347.4,143.7,346.3,144.2,345,144.7C345,144.6,345,144.7,345,144.7z M374.3,124.5c-18.2-27.9-39.1-50.1-57.3-65.9
		c4.8-1.3,9.5-2.5,14.9-2.6h0.5c27.3,0,49.7,20.3,49.7,45.2c0,8.9-2.8,16.5-7.7,23.5C374.4,124.6,374.4,124.6,374.3,124.5z
		 M183.2,116.3c-25.2,0-49-1.3-70.1-3.5c-8.4,21.6-25,75.9-27.7,171.3c25.5,4.2,53.4,6.6,82.6,6.6c28.4,0,55.8-2.3,80.9-6.4
		c-2.6-92.1-18.1-145.9-26.7-169C209.7,115.9,196.7,116.3,183.2,116.3z"/>
	<path d="M61.2,310c0,31.5,3.2,58.6,8.3,81.9c-21.6-4.4-41.1-10.3-57.6-17.2C4.2,350.5,0,324.4,0,297.1c0-6.4,0-12.7,0.7-19.1
		c17.5,7.7,37.9,14,60.6,18.9C61.2,301.1,61.2,305.5,61.2,310z"/>
	<path d="M249.2,301.1c0,3.2,0,6.4,0,9.7c0,32.7-3.2,61.1-8.1,85.4c-22.9,3.3-47.6,5.1-73.2,5.1c-26.2,0-51.5-1.9-74.9-5.4
		c-4.9-24.2-8-52.6-8-85.2c0-3.3,0-6.5,0-9.7c25.6,4,53.5,6.1,82.9,6.1C196.6,307.2,224,305.1,249.2,301.1z"/>
	<path d="M346.5,297.1c0,25.4-3.5,49.6-9.8,71.9c-19.2,9.7-43.8,17.6-71.9,23.3c5.1-23.3,8.3-50.6,8.3-82.2c0-4.5-0.1-8.8-0.1-13.2
		c27.9-5.9,52.4-14.1,72.1-23.9C345.8,281.1,346.5,288.8,346.5,297.1z"/>
	<path d="M73.9,409.9c14.6,52.1,38,81.2,49.3,92.9C78.1,486,40.8,447,19.6,396.3C35.9,401.7,54.2,406.3,73.9,409.9z"/>
	<path d="M237.1,414.2c-14.6,57.4-38.2,88.1-45.6,96.7h0c-5.9,0.8-11.9,1.1-17.9,1.1c-11.3,0-22.4-1.3-33.1-3.9
		c-9.2-11.4-30.1-41.8-43.5-94.6c22.2,3,45.8,4.7,70.3,5C191.8,418.5,215.2,417,237.1,414.2z"/>
	<path d="M329,391.2c-23.6,60.5-69,104.8-123.7,117.3c5-4.2,36.6-33.2,54.9-97.8C286,406,309.2,399.4,329,391.2z"/>
</g>
</svg>
