<?xml version="1.0" encoding="utf-8"?>
<!-- Generator: Adobe Illustrator 21.1.0, SVG Export Plug-In . SVG Version: 6.00 Build 0)  -->
<svg version="1.1" id="Layer_12" xmlns="http://www.w3.org/2000/svg" xmlns:xlink="http://www.w3.org/1999/xlink" x="0px" y="0px"
	 viewBox="0 0 564 512" style="enable-background:new 0 0 564 512;" xml:space="preserve">
<g>
	<path d="M16.4,322c3.3-1.4,6.9-2.1,10.6-2.1c3.4,0,6.8,0.6,10.1,2c29,11.8,75.2,30.7,112.9,46.8c10.7,2.1,21.8,4.2,33.5,6.1
		c10-3.7,19.4-7.2,28.1-10.6c-4.5-1.8-9-3.6-13.5-5.4C142.3,335.4,87,304.6,65.3,293.5c-20.7-11.4-51.7-15.4-55,15.3
		C9.2,314.7,12.8,319.1,16.4,322z"/>
	<path d="M206.5,375c-7.9,3.8-11.6,11.2-11.7,19.3c0.3,12.3,8.7,24.4,25.6,24.6c3.8,0,8.1-0.6,12.9-2.2l106.6-33.5
		c3.7-1.1,7.6,0.9,8.8,4.5c1.1,3.6-1,7.6-4.7,8.7L237.4,430c-6,1.9-11.7,2.8-17.1,2.8c-19.4-0.1-32.6-12-37.4-26.2
		C143.7,389.1,75.3,361.1,37,345.5c-14.9-6.1-31.8,2.2-36.1,17.8l0,0c-3.3,11.7,1.8,24.2,12.3,30.4c52.6,31,206.3,119.2,250,118.3
		c53.7,1.1,107-61.1,195.2-64.7V312.5l-83.2,0.1C347.3,312,318.9,333.6,206.5,375z"/>
	<path d="M228.2,351c8.5-3.5,16.2-6.7,23.3-9.7c-20.6-7.6-47.5-19.9-66.8-20.4c-5.7-0.1-5.7-0.1-8.7-1.8
		c-51.7-33.4-59.1-30.9-78.4-27.8c-0.8,0-2.1,0.7-3.5,1.6C83.4,305.4,167.8,336.3,228.2,351z"/>
	<path d="M200.3,316.4c25.1,3.9,47.2,16.6,67.7,21.6c7.2-2.9,13.8-5.7,19.9-8.3c-17.6-6.5-42.1-17.2-59.4-20.8
		c-4.8-1-4.9-0.1-7.5-1.5c-33.2-17.7-50.6-17.7-66.8-19c-0.7,0-1.8,0.6-3,1.3c-1.9,2.2-1.4,4.6,1.1,7
		C165.1,303.6,172.3,307.6,200.3,316.4z"/>
	<path d="M464.5,284.1c-9.4,89.7,9.5,148,24,183.3H561V284.5C533.6,281,484.4,282.4,464.5,284.1z M523.5,446.6
		c-9.4,0-17.1-7.6-17.1-17.1c0-9.4,7.6-17.1,17.1-17.1c9.4,0,17.1,7.6,17.1,17.1C540.6,439,533,446.6,523.5,446.6z"/>
	<path d="M311.2,118.2c0,0,17-29.6,60.4-36.7c-7.5,2-16.1,5.3-25.5,10.7c-31.9,18.4-41,41.6-43.6,54.8c-0.9-4.9-2.4-11-5-17.8
		c-0.7-13.3-1.1-37.6,4-54c29.1,15.4,29.3-28.4,46-58.2c-29.4-40.5-51.8,0.4-49,49.9c0,0,8.8-39.5,31.2-48.9
		c-3.9,2.7-8.4,7.1-13.2,14.3c-8,11.9-14.4,27.3-17.2,42.8c-5.3,20-4.7,38.5-3.4,50.4c-7.9-18-24-40-56.2-58.6
		c-13.4-7.7-25.7-12.5-36.5-15.4c62.1,10.2,86.5,52.6,86.5,52.6c7.8-53-54.2-97-135.7-53.6c45.7,31.6,46.7,77.9,124.6,63
		c27.4,51.8,27,115.3,27.6,117.2h7.8c0,0,0.6-38.2-10.1-79.4c3.1-8.3,8.9-22.4,13.2-26.9c56.2,11.5,56.5-21.3,88.8-43.6
		C349,50.5,305.7,81.2,311.2,118.2z"/>
</g>
</svg>
