<?xml version="1.0" encoding="utf-8"?>
<!-- Generator: Adobe Illustrator 22.0.1, SVG Export Plug-In . SVG Version: 6.00 Build 0)  -->
<svg version="1.1" id="Layer_4" xmlns="http://www.w3.org/2000/svg" xmlns:xlink="http://www.w3.org/1999/xlink" x="0px" y="0px"
	 viewBox="0 0 510 512" style="enable-background:new 0 0 510 512;" xml:space="preserve">
<g id="_x33_2_2_">
	<path d="M477,183.3c-10.1-4.8-22.1-1.6-28.6,7.5l-75,106.1l-7.1-5.6l99.4-139.8c8.5-11.9,4.7-28.6-8-35.7l0,0
		c-11-6.2-24.9-3-32.2,7.4l-87.3,124.8c-2.4,3.4-7.1,4.2-10.4,1.8s-4.2-7-1.8-10.4l97.4-135.6c10.3-14.7,5-35.1-11.1-43l0,0
		c-12.9-6.3-28.4-2.3-36.6,9.4l-99,137.1c-2.4,3.3-7,4.1-10.3,1.8c-3.3-2.4-4.1-7-1.8-10.3l79.1-113c9.6-13.7,5.1-32.8-9.7-40.7l0,0
		c-12.5-6.6-27.9-2.9-36,8.7c-10.1,14.4-9.1,13.7-9.4,14.1c-17.6,24.8-35.3,50.2-52.5,74.6c-9.2,13.1-18.4,26.2-27.6,39.3
		c-0.2-3.6-0.4-6.9-0.6-10.2c-2.1-24.2-20-42.3-42.6-43c-22.5-0.7-40.9,16-43.9,39.9c-3.7,29.9-7.9,65.3-10.9,100.6
		c-1.9,22.7-3.3,48.8,4.1,74.1l-38.6,55l162,113.8l38.6-55c18.3-6.9,47.5-23.7,76.9-51.3l0.4-0.4c4.9-5.5,9.6-11.3,13.8-17.2
		c25.1-35.3,88.9-128.4,118.2-171.1C494,205.3,489.7,189.4,477,183.3L477,183.3z M254.7,273.9c-49.1,21.5-64.9,74.5-65.1,75.3
		c-1.7,5.9-8.3,9.5-14.2,7.8c-5.9-1.7-9.2-7.8-7.3-14.4c0.6-2.2,18.4-63.8,77.5-89.5c5.5-2.4,11.6-0.2,14.4,5
		c0.3,0.5,0.3,0.5,0.5,0.9C263,264.4,260.6,271.2,254.7,273.9z"/>
	<path d="M470.7,307.5c4.3-14.5,6-30.4,5.6-49.7l-0.4-18.4l-10.3,15.2c-7.3,10.8-14,20.6-20.5,29.9l-0.8,1.2l-0.2,1.6
		c-0.5,3.5-1.2,6.9-2.1,10.3c-0.8,3.1-1.8,6.2-2.9,9.1l-1.1,2.9l35.7,50.8l-116.3,81.7l-7.9-11.2l-4.4,9c-2.3,4.8-5.3,9.2-8.7,13.1
		l-3.1,3.5l13.9,19.8l162-113.8L470.7,307.5z"/>
	<path d="M294.8,24.8l-1-1.4c-15.7-22.2-36-28.3-57.1-17.2c-6.4,3.4-11.5,8.3-14.7,13.9c-14.6-14.3-31.3-15.2-49.9-2.7
		c-14,9.4-19.8,20.6-19.1,37.7c-10.8,2-19.9,7.6-25.8,16.2c-7.7,11.1-9.6,26-5.3,40l1.9,6.2l6-2.5c4.6-1.9,9.5-2.8,14.7-2.7
		c0.5,0,1.1,0,1.6,0.1l10.8,0.9l-5-9.6c-3.9-7.4-2.8-11.4,3.9-15.3c4.5-2.7,9.7-4.3,17.9,7.4c11.9,16.9,23.7,33.7,35.6,50.6l4.8,6.9
		l18.9-27l-2.4-3.4c-14.2-20.2-28.4-40.4-42.6-60.7c-3.3-4.7-4.6-9.3-3.7-13c0.8-3,3.1-5.5,6.8-7.3c2.4-1.2,8.6-4.3,16.9,7.6
		c11.6,16.4,23.1,32.8,34.6,49.2l4.8,6.9l4.8-6.9c3.7-5.3,7.5-10.7,11.2-16l2.4-3.4l-2.4-3.4c-4.3-6.1-8.6-12.3-12.9-18.4
		c-2.5-3.6-4.9-7.1-6.1-10.6c-1-2.9-0.7-6.1,0.9-8.9c1.7-3,4.6-5.1,7.9-5.8c6.4-1.4,9.6,1.5,14.7,8.7l3.6,5.2c1.3,1.9,2.6,3.8,4,5.7
		l4.8,6.9l7.7-11c2.3-3.2,4.5-6.4,6.8-9.6c0.7-1,1.3-1.9,2-2.7l2.6-3.4l-2.5-3.6C296.5,27.2,295.7,26,294.8,24.8z"/>
	<path d="M89.6,81.5c-4.5-4.3-11.7-4-16,0.5c-25.5,27.1-26.8,55-26.4,56.2c-0.1,6.1,4.3,10.9,10.3,11.6c0.5,0.1,0.5,0.1,1.1,0.1
		c6.6,0.2,11.5-4.8,11.7-11.4c0,0,1.1-20.3,20.3-40.8C94.4,93.6,94.1,85.9,89.6,81.5z M69.3,38.6c-4.5-4.3-11.7-4-16,0.5
		C2.9,92.7,1.1,146,0.9,148.2c-0.1,6.1,4.3,10.9,10.3,11.6c0.5,0.1,0.5,0.1,1.1,0.1c6.6,0.2,11.5-4.8,11.6-10.9
		c0.1-0.5,2.3-47.2,45.9-94.4C74.2,50.1,73.8,42.9,69.3,38.6z"/>
</g>
</svg>
