<?xml version="1.0" encoding="utf-8"?>
<!-- Generator: Adobe Illustrator 21.1.0, SVG Export Plug-In . SVG Version: 6.00 Build 0)  -->
<svg version="1.1" id="Layer_1" xmlns="http://www.w3.org/2000/svg" xmlns:xlink="http://www.w3.org/1999/xlink" x="0px" y="0px"
	 viewBox="0 0 512.7 512.6" style="enable-background:new 0 0 512.7 512.6;" xml:space="preserve">
<g>
	<path d="M174.8,290.2l-18.7,25.2l41.5,41.5l25.2-18.7c-10.2-5.3-19.5-11.8-27.7-20C186.7,309.8,180.1,300.4,174.8,290.2z"/>
	<path d="M23.1,437.6l52.5,52.5l-9.8,10.7c-14.4,15.9-39.6,16.3-54.7,1.2c-15.1-15.1-14.7-39.9,1.2-54.6L23.1,437.6z"/>
	<polygon points="183.4,372.5 90,474.3 38.8,423.2 140.6,329.8 	"/>
	<path d="M445.6,67.5c-8.5-8.5-20.8-13-36.6-13c-35,0-78.6,22.4-114.4,58.2c-26.9,26.9-46,57.8-54.2,87.6c-7.3,27.7-4.1,50.1,9,63.5
		c8.5,8.5,20.8,13,36.6,13c35,0,78.6-22.4,114.4-58.2C453.4,165.2,474.2,96.4,445.6,67.5z M317.7,147.6c-0.1-1.9,2.7-4.7,5.5-5.5
		l54.8-8.7c2.4-0.4,4.4,1.6,4,4s-3.1,5.1-5.5,5.5l-54.9,8.7C319.3,152,317.3,150,317.7,147.6z M375.6,180.6
		c-0.4,2.4-3.1,5.1-5.5,5.5l-54.9,8.7c-2.4,0.4-4.4-1.6-4-4s3.1-5.1,5.5-5.5l54.8-8.7C374,176.2,376,178.3,375.6,180.6z
		 M394.6,156.3c-0.4,2.4-3.1,5.1-5.5,5.5l-86.8,14.6c-2.7,0-4.4-1.6-4.3-4.3c0.4-2.4,3.1-5.2,5.5-5.5l87.1-14.2
		C393,151.9,395,153.9,394.6,156.3z"/>
	<path d="M485.6,27.6C435.1-22.9,332-2.1,255.9,74c-76.2,76.2-96.9,178.8-46,229.3c50.5,50.5,153.5,29.7,229.7-46.4
		C515.7,180.7,536.1,78.1,485.6,27.6z M415.1,233.2c-39.9,39.9-88.4,63.9-129.1,63.9c-20.8,0-38.7-6.5-51.3-19.1
		c-18.7-18.7-24-48.5-14.6-83.5c8.9-33,30.1-67.2,59.4-96.9c40.3-40.3,88.4-63.9,129.1-63.9c20.8,0,38.7,6.5,51.3,19.1
		C498.2,90.7,478.6,170.1,415.1,233.2z"/>
</g>
</svg>
