<?xml version="1.0" encoding="utf-8"?>
<!-- Generator: Adobe Illustrator 22.0.1, SVG Export Plug-In . SVG Version: 6.00 Build 0)  -->
<svg version="1.1" id="Layer_12" xmlns="http://www.w3.org/2000/svg" xmlns:xlink="http://www.w3.org/1999/xlink" x="0px" y="0px"
	 viewBox="0 0 564 512" style="enable-background:new 0 0 564 512;" xml:space="preserve">
<g>
	<path d="M16.4,226.7c3.3-1.4,6.9-2.1,10.6-2.1c3.4,0,6.8,0.6,10.1,2c29,11.8,75.2,30.7,112.9,46.8c10.7,2.1,21.8,4.2,33.5,6.1
		c10-3.7,19.4-7.2,28.1-10.6c-4.5-1.8-9-3.6-13.5-5.4C142.3,240.1,87,209.3,65.3,198.2c-20.7-11.4-51.7-15.4-55,15.3
		C9.2,219.4,12.8,223.8,16.4,226.7z"/>
	<path d="M206.5,279.7c-7.9,3.8-11.6,11.2-11.7,19.3c0.3,12.3,8.7,24.4,25.6,24.6c3.8,0,8.1-0.6,12.9-2.2l106.6-33.5
		c3.7-1.1,7.6,0.9,8.8,4.5c1.1,3.6-1,7.6-4.7,8.7l-106.6,33.6c-6,1.9-11.7,2.8-17.1,2.8c-19.4-0.1-32.6-12-37.4-26.2
		c-39.2-17.5-107.6-45.5-145.9-61.1c-14.9-6.1-31.8,2.2-36.1,17.8v0c-3.3,11.7,1.8,24.2,12.3,30.4c52.6,31,206.3,119.2,250,118.3
		c53.7,1.1,107-61.1,195.2-64.7V217.2l-83.2,0.1C347.3,216.7,318.9,238.3,206.5,279.7z"/>
	<path d="M228.2,255.7c8.5-3.5,16.2-6.7,23.3-9.7c-20.6-7.6-47.5-19.9-66.8-20.4c-5.7-0.1-5.7-0.1-8.7-1.8
		c-51.7-33.4-59.1-30.9-78.4-27.8c-0.8,0-2.1,0.7-3.5,1.6C83.4,210.1,167.8,241,228.2,255.7z"/>
	<path d="M200.3,221.1c25.1,3.9,47.2,16.6,67.7,21.6c7.2-2.9,13.8-5.7,19.9-8.3c-17.6-6.5-42.1-17.2-59.4-20.8
		c-4.8-1-4.9-0.1-7.5-1.5c-33.2-17.7-50.6-17.7-66.8-19c-0.7,0-1.8,0.6-3,1.3c-1.9,2.2-1.4,4.6,1.1,7
		C165.1,208.3,172.3,212.3,200.3,221.1z"/>
	<path d="M464.5,188.8c-9.4,89.7,9.5,148,24,183.3H561V189.2C533.6,185.7,484.4,187.1,464.5,188.8z M523.5,351.3
		c-9.4,0-17.1-7.6-17.1-17.1c0-9.4,7.6-17.1,17.1-17.1c9.4,0,17.1,7.6,17.1,17.1C540.6,343.7,533,351.3,523.5,351.3z"/>
</g>
</svg>
