<?xml version="1.0" encoding="utf-8"?>
<!-- Generator: Adobe Illustrator 21.1.0, SVG Export Plug-In . SVG Version: 6.00 Build 0)  -->
<svg version="1.1" id="Layer_3" xmlns="http://www.w3.org/2000/svg" xmlns:xlink="http://www.w3.org/1999/xlink" x="0px" y="0px"
	 viewBox="0 0 512 512" style="enable-background:new 0 0 512 512;" xml:space="preserve">
<g id="fill_1_">
	<path d="M0,329.1c0.2,17,13.8,30.4,30.6,30.4h450.6c17,0,30.8-13.8,30.8-30.6l0,0c0-17-13.8-30.6-30.8-30.6h-10.3
		c0-96.9-63.1-169-110.3-183.8l-25.3,94.3c-2.1,8-9.9,13.1-18.1,11.9l-1-0.2c-9-1.4-15-9.9-13.6-18.7L322,86.4
		c-3.3-6.4-18.3-20.5-36.3-20.5h-60.8c-20.5,0-33.1,14-36.3,20.5L207.4,202c1.4,9-4.7,17.3-13.4,18.7l0,0
		c-8.2,1.4-16.2-3.9-18.3-11.9l-25.1-94.3c-32.9,9.2-111.7,80.3-111.7,183.8h-8C13.6,298.3-0.2,312.1,0,329.1L0,329.1z"/>
	<path d="M479.9,447H32.1C14.4,447,0,432.6,0,414.9v0c0-17.7,14.4-32.1,32.1-32.1h447.9c17.7,0,32.1,14.4,32.1,32.1v0
		C512,432.6,497.6,447,479.9,447z"/>
</g>
</svg>
