<?xml version="1.0" encoding="utf-8"?>
<!-- Generator: Adobe Illustrator 21.1.0, SVG Export Plug-In . SVG Version: 6.00 Build 0)  -->
<svg version="1.1" id="Layer_1" xmlns="http://www.w3.org/2000/svg" xmlns:xlink="http://www.w3.org/1999/xlink" x="0px" y="0px"
	 viewBox="0 0 550 512" style="enable-background:new 0 0 550 512;" xml:space="preserve">
<g>
	<path d="M497.9,209c0-108-83.7-200-222.1-200s-224,91.7-224,200c-6.7,3.2-11.6,8.4-13.5,14.7h-0.1v119.6h0.1
		c3.2,10.3,14.1,18.1,27.7,18.1c15.1,0,27.5-9.4,28.9-21.4c9-4.6,15.1-14.1,15.1-24.9v-58.4c0-10.8-6.1-20.1-14.9-24.8v-2.5
		c0-7.5-4.5-13.9-11.1-18.3c0.2-0.9-4.3-1.7-4.1-2.7C96.4,126.3,156.1,62.9,276,62.9s180.1,68,193.5,145c0.2,1.2-4.2,2.2-4,3.3
		c-7.3,4.9-10.4,9.4-11.6,21.3c-8.5,4.8-14.2,14-14.2,24.4v58.4c0,10.7,6,20,14.8,24.8c1,7.1,6,13.2,13,17v18.1
		c0,62.7-75.5,66.5-162.5,85.4c-19-16.8-52.5-5.7-52.5,16.8c0,28.3,49.5,34.9,59.2,6.5c90.1-19.6,185.1-26.9,185.1-108.6v-16.6
		c7.3-3.1,12.5-8.6,14.6-15.2V223.8C509.6,217.4,504.8,212.2,497.9,209z"/>
	<path d="M0.2,283.5c0,32.7-4.6,59.1,35.2,59.8V223.7C-4.5,224.3,0.2,250.8,0.2,283.5z"/>
	<path d="M514.4,223.8v119.5c39.8-0.7,35.2-27.1,35.2-59.8S554.2,224.4,514.4,223.8z"/>
</g>
</svg>
