<?xml version="1.0" encoding="utf-8"?>
<!-- Generator: Adobe Illustrator 21.1.0, SVG Export Plug-In . SVG Version: 6.00 Build 0)  -->
<svg version="1.1" id="Layer_2" xmlns="http://www.w3.org/2000/svg" xmlns:xlink="http://www.w3.org/1999/xlink" x="0px" y="0px"
	 viewBox="0 0 561.2 512" style="enable-background:new 0 0 561.2 512;" xml:space="preserve">
<path d="M122.8,235.6c0,20.6,16.8,37.4,37.4,37.4c13.3,0,25.6-7.1,32.3-18.6l1-1.7h47.1l34.8-51.2l71.5,94.1l69.8-72.1h133
	c-3.1,7.9-6.8,15.5-11.2,23l-1,1.7l-27.4,34.4L280.6,512L47.9,279.3C16.9,248.4,0,207.4,0,163.7S16.9,78.9,47.8,48
	C78.8,17.2,119.8,0.2,163.5,0.2s84.7,17,115.6,47.8l1.4,1.4L282,48c31-30.8,72-47.8,115.7-47.8s84.8,17,115.6,47.8
	c37.9,37.9,53.8,90.7,45.8,141.2H395.9l-39.4,43l-75.5-105.2l-64.3,91.4h-23.3l-1-1.7c-6.6-11.4-19.1-18.6-32.2-18.6
	C139.6,198.3,122.8,215,122.8,235.6z"/>
</svg>
