<?xml version="1.0" encoding="utf-8"?>
<!-- Generator: Adobe Illustrator 21.1.0, SVG Export Plug-In . SVG Version: 6.00 Build 0)  -->
<svg version="1.1" id="Shape_1_1_" xmlns="http://www.w3.org/2000/svg" xmlns:xlink="http://www.w3.org/1999/xlink" x="0px" y="0px"
	 viewBox="0 0 512 512" style="enable-background:new 0 0 512 512;" xml:space="preserve">
<g>
	<path d="M256,0C114.6,0,0,114.6,0,256s114.6,256,256,256s256-114.6,256-256S397.3,0,256,0z M386.7,267.9l-0.5,0.9l-13.9,17.4
		L256,402.4L138.1,284.5c-15.7-15.7-24.3-36.5-24.3-58.6c0-22.1,8.6-42.9,24.3-58.6c15.7-15.7,36.5-24.3,58.6-24.3
		s42.9,8.6,58.6,24.3l0.7,0.7l0.7-0.7c15.7-15.6,36.5-24.3,58.6-24.3c22.1,0,42.9,8.6,58.6,24.3C400.5,194,405.8,235.3,386.7,267.9z
		"/>
</g>
</svg>
