<?xml version="1.0" encoding="utf-8"?>
<!-- Generator: Adobe Illustrator 21.1.0, SVG Export Plug-In . SVG Version: 6.00 Build 0)  -->
<svg version="1.1" id="Layer_2" xmlns="http://www.w3.org/2000/svg" xmlns:xlink="http://www.w3.org/1999/xlink" x="0px" y="0px"
	 viewBox="0 0 560.5 512" style="enable-background:new 0 0 560.5 512;" xml:space="preserve">
<path d="M306.5,485.8L280.3,512L47.8,279.5C17,248.6,0,207.5,0,163.9c0-43.6,17-84.7,47.8-115.6C78.6,17.6,119.7,0.5,163.3,0.5
	c34.5,0,67.4,10.7,94.9,30.4v123.5l78.3,64.9l-141.6,82.9c-5.8,3.4-5.7,15.8,0.2,19l111.4,60.9V485.8z M537.9,246.7l-1,1.7
	l-27.4,34.3L346,446.3v-95.5L269.1,312l124.7-77.5c5.1-3.2,5.6-13.9,0.8-18.1l-96.3-86V33.7c28.2-21.5,62.6-33.2,98.7-33.2
	c43.7,0,84.7,17.1,115.6,47.8C565.3,101,575.6,182.6,537.9,246.7z"/>
</svg>
