<?xml version="1.0" encoding="utf-8"?>
<!-- Generator: Adobe Illustrator 21.1.0, SVG Export Plug-In . SVG Version: 6.00 Build 0)  -->
<svg version="1.1" id="Layer_5" xmlns="http://www.w3.org/2000/svg" xmlns:xlink="http://www.w3.org/1999/xlink" x="0px" y="0px"
	 viewBox="0 0 550 512" style="enable-background:new 0 0 550 512;" xml:space="preserve">
<g>
	<path d="M513.6,263.5c2.6-3.7,3.9-8,3.9-12.3c-0.1-6-2.6-12-7.4-15.9c-8-6.7-19.5-5.3-26,3.1l-24.6,26.1l-167-13.9l-15.4-3.7
		l-2.8-15.3c-1.1-8.3-4.7-32.6-36-32.6c-2.7,0-12,0.1-23.2,0.1l-17.6-25.3v-16.1h8.1l149,30.2c3,0.7,6-1.4,6.8-4.6
		c0.6-3.2-1.3-6.5-4.3-7.3c-0.1,0-0.2,0-0.2,0l-90.1-18.3h88.9c3.1,0,5.7-2.6,5.8-6c0-3.4-2.4-6.1-5.6-6.2h-0.1H208.7v-9.2
		c0-8.2-6.4-15.1-14-15.1v-7.2h51.7c0.7,1.8,2.6,3.2,4.6,3.2h16.5c2.8,0,4.9-2.4,4.9-5.3c0-3-2.3-5.3-4.9-5.3h-16.5
		c-2,0-3.7,1.3-4.6,3.2H136.9c-0.7-1.8-2.6-3.2-4.6-3.2h-16.5c-2.8,0-4.9,2.4-4.9,5.3c0,3,2.3,5.3,4.9,5.3h16.5c2,0,3.7-1.3,4.6-3.2
		h51.7v7.2c-7.6,0.1-13.9,7-13.9,15.1v9.2H27.8c-3.1,0-5.7,2.6-5.8,6c0,3.4,2.4,6.1,5.6,6.2h0.1h88.9L26.7,176
		c-3.1,0.5-5.2,3.6-4.7,7c0.5,3.4,3.4,5.6,6.5,5.1c0.1,0,0.2,0,0.3,0l149.5-30.4h7.7v16l-17.9,25.8c-4.7,0.1-7.8,0.1-8.4,0.1
		c-12.1,0-16.8,9.5-18.3,12.6v0.1c-0.4,0.8-1.2,2.3-2.2,3.8H118c-22.5,0-42,12-51.8,22.2c-7.8,8.1-50.2,52.2-50.2,52.2l-0.4,0.5
		C13,294,0,310.3,0,325.2c0,18.6,16.8,33.2,49.9,43.4c25,7.6,51.8,10.4,62.8,10.4h15.1l-10.7,22H90.9c-9.7,0-18.9-3.2-26.8-9.2
		l-14.7-11.1l-9.1,13.9l14.7,11.1c10.6,8,23,12.3,36,12.3h157.6v-17h-43.3l16.4-33.1c15.2-6.3,35.1-14.5,46.7-19.4L460,313.9
		l3.5,0.2c5.6,0.4,11-3.2,16.9-11.5l32.9-38.8L513.6,263.5z M188.9,133.3h5.7c1.6,0,2.8,1.3,2.8,3v9.2h-11.2v-9.2
		C186.1,134.5,187.3,133.3,188.9,133.3z M71.5,257.4c-1.2,3.3-12.9,29.7-17.9,40.4c-1.9,4.1-3.7,6.8-8.9,6.1c-3.5-0.5-23.2-4-23.2-4
		c9-9.3,41.2-42.8,47.9-49.8c0.5-0.5,1.3-1.3,2.3-2.2l0.6,2.2C72.2,250.1,72.9,253.4,71.5,257.4z M191.8,186l9.3,13.3
		c-5.9,0.1-11.8,0.1-17.2,0.1c-0.5,0-1,0-1.4,0L191.8,186z M135,401l10.7-22h21.6c11.4,0,24-0.2,32.1-2.3l-12,24.3L135,401L135,401z
		"/>
	<path d="M515.9,193.2c-5.1-2.1-10.3-3.4-15.8-3.7c-29.3-2-54.8,21.9-56.7,53.5c-0.3,4.2-0.1,8.4,0.5,12.4l13.7,1.1l1.6-1.8
		c-0.7-3.4-1-7-0.7-10.6c1.4-22.6,19.6-39.8,40.6-38.3c3.9,0.3,7.7,1.2,11.3,2.7c15.6,6.5,25.4,23,24.3,41
		c-1.2,19.9-15.4,35.5-33.1,38L488,303.4c1.7,0.3,3.4,0.5,5.1,0.7c29.4,2,54.8-21.9,56.7-53.5C551.4,225.4,537.8,202.4,515.9,193.2z
		"/>
</g>
</svg>
