<?xml version="1.0" encoding="utf-8"?>
<!-- Generator: Adobe Illustrator 21.1.0, SVG Export Plug-In . SVG Version: 6.00 Build 0)  -->
<svg version="1.1" id="Layer_2" xmlns="http://www.w3.org/2000/svg" xmlns:xlink="http://www.w3.org/1999/xlink" x="0px" y="0px"
	 viewBox="0 0 512 512" style="enable-background:new 0 0 512 512;" xml:space="preserve">
<style type="text/css">
	.st0{fill:#010101;}
</style>
<g>
	<path class="st0" d="M150.8,236.1c-8.4,0-15.1,6.7-15.1,15.1c0,8.4,6.7,15.1,15.1,15.1c8.4,0,15.1-6.7,15.1-15.1
		C165.9,242.9,159.1,236.1,150.8,236.1z"/>
	<path class="st0" d="M207.8,236.1c-8.4,0-15.1,6.7-15.1,15.1c0,8.4,6.7,15.1,15.1,15.1c8.4,0,15.1-6.7,15.1-15.1
		C222.9,242.8,216.2,236.1,207.8,236.1z"/>
	<path class="st0" d="M271.6,277.8l231.2,0.1h0.1c5,0,9.1-4.1,9.1-9.1c0-5.1-4.1-9.2-9.2-9.2l-20.4-0.1l-1.2-22
		c-3.1-57.3-21.9-106.9-55.9-147.5C375.1,30.1,314.8,0,245.5,0c-18.5,0-37.6,2.1-57.4,6.4C93.9,27,19.9,106.2,4,203.5
		c0,0-20.3,93.8,30.9,159.1c25.5,32.6,63.2,49.9,100.9,49.9c14.8,0,29.7-2.7,44-8.3l101,105c1.7,1.8,4.1,2.8,6.5,2.8h166.9
		c42.8,0,50.8-39.4,52.2-51.5c2.9-25,0.2-97.4,0-100.4c-0.2-4.9-4.2-8.8-9.1-8.8H245.7c9.2-14.1,16.3-30.4,21.3-48.9
		C268.9,295.3,271.4,278.7,271.6,277.8z M295.8,490.5l-48.7-50.9h66.3C311.7,464.3,306.5,481.3,295.8,490.5z M487.6,373.4
		c0.3,10.4,0.8,24.5,1,42.2h-51.9c-0.1-18.2-1.6-30.9-2.8-42.2H487.6z M436.4,441.7h51.9c-0.1,10-0.5,11-1.2,16.8
		c-1.5,13.3-8.1,35.5-34.4,35.5h-30.1C431.6,478.6,435.3,464.2,436.4,441.7z M412,373.4c1.7,14.6,2.7,26.6,2.7,42.2h-78.6
		c0.1-18.6-1.3-31.5-2.6-42.2H412z M335.8,439.7h78.4c-1.6,30.8-7.8,50.4-21.3,54.3h-72.7C330,478.2,334.4,461.9,335.8,439.7z
		 M312.1,373.4c1.7,14,2.7,26.1,2.6,42.2h-90.8L202.5,393c10.3-6.4,18.7-13.3,25.4-19.7L312.1,373.4z M256,265.2c0,6.6-5.4,12-12,12
		H114.4c-6.6,0-12-5.4-12-12v-28.8c0-6.6,5.4-12,12-12H244c6.6,0,12,5.4,12,12V265.2z"/>
</g>
</svg>
