<?xml version="1.0" encoding="utf-8"?>
<!-- Generator: Adobe Illustrator 21.1.0, SVG Export Plug-In . SVG Version: 6.00 Build 0)  -->
<svg version="1.1" id="Layer_2" xmlns="http://www.w3.org/2000/svg" xmlns:xlink="http://www.w3.org/1999/xlink" x="0px" y="0px"
	 viewBox="0 0 512 512" style="enable-background:new 0 0 512 512;" xml:space="preserve">
<path d="M256,0C114.6,0,0,114.6,0,256s114.6,256,256,256s256-114.6,256-256S397.4,0,256,0C256,0,256,0,256,0z M176.7,57l27.1,71
	c-34.4,14.1-61.7,41.4-75.8,75.8l-71-27.1C79,122.2,122.2,79,176.7,57z M176.7,455C122.2,433,79,389.8,57,335.3l71-27.1
	c14.1,34.4,41.4,61.7,75.8,75.8L176.7,455z M159.3,256c0-53.4,43.3-96.7,96.7-96.7s96.7,43.3,96.7,96.7s-43.3,96.7-96.7,96.7
	S159.3,309.4,159.3,256L159.3,256z M335.3,455l-27.1-71c34.4-14.1,61.7-41.4,75.8-75.8l71,27.1C433,389.8,389.8,433,335.3,455z
	 M384,203.8c-14.1-34.4-41.4-61.7-75.8-75.8l27.1-71C389.8,79,433,122.2,455,176.7L384,203.8z"/>
</svg>
