<?xml version="1.0" encoding="utf-8"?>
<!-- Generator: Adobe Illustrator 21.1.0, SVG Export Plug-In . SVG Version: 6.00 Build 0)  -->
<svg version="1.1" id="Layer_2" xmlns="http://www.w3.org/2000/svg" xmlns:xlink="http://www.w3.org/1999/xlink" x="0px" y="0px"
	 viewBox="0 0 512 512" style="enable-background:new 0 0 512 512;" xml:space="preserve">
<g>
	<polygon points="40.5,446.2 108.9,505.5 103.1,512 0,489.8 	"/>
	<path d="M224.8,462.2c-11.2,15.7-25.9,22.7-44.2,23.8l-57.7,3.7l-8.7,9.7L46,440.2l8.8-9.4L51,374c-0.1-1.1-0.1-2.2-0.2-3.3
		c-0.4-16.8,4.5-33.7,15.2-45.7L224.8,462.2z"/>
	<path d="M254.6,406.3c6.5,5.6,12.5,5.2,18.2-1.2l233.6-293.9c8.3-12.5,7.1-30.5-2.8-41.8L432.3,7.7c-12.9-11.2-31.1-10-42.5,2.7
		L120.6,273.6c-5.7,6.4-5.3,12.3,1.2,17.9L254.6,406.3z"/>
</g>
</svg>
