<?xml version="1.0" encoding="utf-8"?>
<!-- Generator: Adobe Illustrator 21.1.0, SVG Export Plug-In . SVG Version: 6.00 Build 0)  -->
<svg version="1.1" id="Layer_1" xmlns="http://www.w3.org/2000/svg" xmlns:xlink="http://www.w3.org/1999/xlink" x="0px" y="0px"
	 viewBox="0 0 344.9 512" style="enable-background:new 0 0 344.9 512;" xml:space="preserve">
<style type="text/css">
	.st0{fill:#020202;}
	.st1{fill-rule:evenodd;clip-rule:evenodd;fill:#020202;}
</style>
<g id="fill" transform="translate(0,-952.36216)">
	<path class="st0" d="M142.2,1341.9l-6,23.8c-1.2,6.3-4.1,12.2-8.3,17.1l-59.1,68.8c-13.4,15.4-36.7,17.1-52.1,3.7l0,0
		c-15.4-13.4-17.1-36.7-3.8-52.1l52.7-61.4l16.4-78.6L142.2,1341.9z"/>
	<path class="st0" d="M334.8,1461.4c-6.1,0.4-11.4-4.5-11.8-10.9l-14.6-202.8c-11.9-1.7-43.4-7.5-57.2-12.6
		c-21.9-6.5-43.8-15.9-59.7-32.5l-10.7,44.5c0,0,28.7,31.1,45.8,51.6c7.8,9.4,14.3,23.2,20.5,54.5c2.8,14.2,7.2,46.5,10.6,72.7
		c0.2,1.5,0.3,3,0.3,4.4c0,18.5-15,34-34.1,34c-17.2,0-31.8-12.8-33.9-29.9c-2.9-23.7-7.2-55.4-11.2-70.6c-1-3.9-0.8-15-27.8-42
		c-34.6-34.6-50.9-64-50.9-64c-7.4-11.5-9.4-22.1-6.6-35.4l13.7-63.2c2-19.8,8.1-86.6,42.3-85.6c4.7-0.6,9.3-1,13.4-1
		c13.2-0.1,23.9,2.9,32.2,9.1c5.1,3.8,9.4,8.9,12.8,15.2c7.7,14.4,30.5,53.3,36.8,63.9l59.2,24.5l-6.2-85.3
		c-0.5-6.4,4.1-11.9,10.2-12.3c6.1-0.4,11.3,4.5,11.8,10.9l25.3,350.6C345.4,1455.5,340.8,1461,334.8,1461.4z"/>
	<path class="st0" d="M194.1,952.4c-30.3,0-55,24.7-55,55c0,30.5,24.7,55,55,55c30.5,0,55.3-24.5,55.3-55
		C249.4,977,224.6,952.4,194.1,952.4z"/>
	<path class="st1" d="M73,1063.3c20.2-1.4,42.6-0.7,39.8,6.3c-20,49.9-31.1,137-64.4,147.1c-19.5,5.9-40.1-3.4-46.8-23.3
		c-6.4-18.9,7.6-67.8,24.1-99.4C36.9,1072.2,57.1,1064.4,73,1063.3z"/>
</g>
</svg>
