<?xml version="1.0" encoding="utf-8"?>
<!-- Generator: Adobe Illustrator 21.1.0, SVG Export Plug-In . SVG Version: 6.00 Build 0)  -->
<svg version="1.1" id="Layer_1" xmlns="http://www.w3.org/2000/svg" xmlns:xlink="http://www.w3.org/1999/xlink" x="0px" y="0px"
	 viewBox="0 0 512 512" style="enable-background:new 0 0 512 512;" xml:space="preserve">
<g>
	<path d="M388.2,36.6C269-35.1,115,1.8,40.9,118.7L0,94.1l17.5,133.1l125.7-47l-40.8-24.5C156.2,73,266,47.1,351.1,98.3
		c87.1,52.4,115.2,164.9,62.9,252.3C367.7,428,273.3,459,191.8,428.2c-4.6-1.7-12.4-5.3-20.8-9.8c-16.9-9-38-3.1-47.9,13.3
		c-10.7,17.7-4.3,40.9,14,50.5c8.2,4.3,15.6,7.8,20.2,9.7c115,48.7,251.2,6.8,317.7-103.2C548.3,267.8,509.2,109.4,388.2,36.6z"/>
	<path d="M238.2,186.8h-26.4c-7.3,0-13.3,5.9-13.3,13.3v110.2c0,10.1,8.2,18.3,18.3,18.3H307c7.3,0,13.3-5.9,13.3-13.3v-26.4
		c0-7.3-5.9-13.3-13.3-13.3h-55.5v-75.6C251.5,192.7,245.6,186.8,238.2,186.8z"/>
</g>
</svg>
