<?xml version="1.0" encoding="utf-8"?>
<!-- Generator: Adobe Illustrator 21.1.0, SVG Export Plug-In . SVG Version: 6.00 Build 0)  -->
<svg version="1.1" id="Layer_8" xmlns="http://www.w3.org/2000/svg" xmlns:xlink="http://www.w3.org/1999/xlink" x="0px" y="0px"
	 viewBox="0 0 546.7 512" style="enable-background:new 0 0 546.7 512;" xml:space="preserve">
<style type="text/css">
	.st0{fill:#010101;}
</style>
<g>
	<path class="st0" d="M545.3,471.9c-0.8-11.5-6.3-26.5-14.9-40.1c-5.2-8.3-10.5-14.6-15.7-18.9c-5.3-4.2-10.5-6.3-15.8-6.3
		c-9.7-0.2-22.3,2-36.9,4.6c-3.4,0.6-6.9,1.2-10.5,1.8l67.6,90.3c1.1-0.2,2.2-0.3,3.2-0.5C537.5,501,546.5,488.9,545.3,471.9z"/>
	<path class="st0" d="M492.5,507.4c-16.4,2.3-35.9,4.3-55.6,4.3c-20.1,0-37.6-2.2-52.5-6.5c-14.9-4.3-27.1-10.8-36.5-19.3
		c-9.9-8.9-38.7-58.1-73.1-120.8c-34.6,62.7-63.5,111.8-73.4,120.8c-9.5,8.5-21.8,15-36.8,19.3s-32.7,6.5-52.9,6.5
		c-19.8,0-39.5-2-56-4.3l68.6-90.8c24.8,2.3,48.1,0.3,56.5-15.9c6.9-13.7,29.3-54.1,57.1-103.7c-65.5-122.4-135-258.6-135-258.6
		c-6-13.6,0.1-29.7,13.8-36l0.4-0.2c14-6,29.9,0,36.3,13.8l0.4,0.9c0,0,62.9,111.1,121,214.5C333.1,128,396.4,16.9,396.4,16.9
		l0.4-0.9c6.3-13.8,22.4-19.8,36.5-13.8l0.4,0.2c13.7,6.3,19.8,22.4,13.9,35.9c0,0-70,136.5-135.9,259
		c27.6,49.5,49.8,89.7,56.6,103.4c8.4,16.2,31.5,18.2,56.1,15.9L492.5,507.4z"/>
	<path class="st0" d="M86.2,411.2c-14.7-2.6-27.4-4.8-37.2-4.6c-5.3,0-10.5,2.1-15.8,6.3c-5.3,4.2-10.6,10.5-15.9,18.9
		c-8.6,13.6-14.2,28.6-15,40.1c-1.2,17,7.9,29.1,23.1,30.9c1,0.2,2.1,0.3,3.2,0.5L96.8,413C93.2,412.4,89.6,411.8,86.2,411.2z"/>
	<path class="st0" d="M74.7,269.8c-31.3,0-57,10.8-57,24.7c0,13.3,25.7,24.6,57,24.6s57-11.3,57-24.6
		C131.7,280.6,106,269.8,74.7,269.8z M74.4,314.9c-27.4,0-49.9-9.7-49.9-21.1c0-11.9,22.5-21.1,49.9-21.1s49.8,9.3,49.8,21.1
		C124.3,305.2,101.8,314.9,74.4,314.9z M74.4,274.7c-24.7,0-45,8.3-45,19.1c0,10.3,20.2,19.1,45,19.1c24.7,0,45-8.7,45-19.1
		C119.4,283.1,99.2,274.7,74.4,274.7z M74.7,320.7c-27.7,0-50.3-8.7-56-20c2,23.1,2,32.1,2.6,35.2c12.8,12.3,38,14.9,54.4,15.4
		c18,0,42.6-5.7,52.4-17.5c0.5-3.1,1-20.3,2.6-32.7C125,311.9,102.4,320.7,74.7,320.7z"/>
</g>
</svg>
