<?xml version="1.0" encoding="utf-8"?>
<!-- Generator: Adobe Illustrator 21.1.0, SVG Export Plug-In . SVG Version: 6.00 Build 0)  -->
<svg version="1.1" id="Layer_1" xmlns="http://www.w3.org/2000/svg" xmlns:xlink="http://www.w3.org/1999/xlink" x="0px" y="0px"
	 viewBox="0 0 524.3 512" style="enable-background:new 0 0 524.3 512;" xml:space="preserve">
<path d="M286.6,12c-6.4-7.3-14.7-11-25-11c-9.6,0-17.8,3.7-24.4,11c-17.9,17.7-53.7,53.2-92.1,91.5V70.4L117.9,62l-27.1,8.4v87.3
	C41.6,206.8,0,248.4,0,248.4l36.8,36.7c0,0,215.7-216.8,217.3-218.2c8.1-7.9,8.1-7.8,15.9,0c1.6,1.6,216.2,216.2,216.2,216.2
	l38.1-34.7C524.3,248.4,336.5,61.1,286.6,12z M286.6,132.4c-24.5-24.4-24.9-24.5-49.4,0.1L68.7,300v211.3l387.5-0.1V300L286.6,132.4
	z M362.3,373.5l-0.7,1.1L351,387.8l-88.6,88.7l-89.9-89.9c-12.3-12.3-19.1-28.7-19.1-46.1s6.8-33.8,19.1-46.1
	c12.3-12.3,28.7-19.1,46.1-19.1c16.3,0,31.7,6,43.8,16.9c12-10.9,27.4-16.9,43.8-16.9c17.4,0,33.7,6.8,46.1,19.1l0,0
	C373.2,315.4,377.3,347.9,362.3,373.5z"/>
</svg>
