<?xml version="1.0" encoding="utf-8"?>
<!-- Generator: Adobe Illustrator 22.0.1, SVG Export Plug-In . SVG Version: 6.00 Build 0)  -->
<svg version="1.1" id="Layer_1" xmlns="http://www.w3.org/2000/svg" xmlns:xlink="http://www.w3.org/1999/xlink" x="0px" y="0px"
	 viewBox="0 0 511.9 512" style="enable-background:new 0 0 511.9 512;" xml:space="preserve">
<g id="fill">
	<path d="M462.2,172c-8.6-32-37.8-55.5-72.4-55.5c-34.7,0-63.8,23.5-72.4,55.5H267V0H0v512h343V406h94v106h75V172H462.2z
		 M115.8,435.5h-66v-64h66V435.5z M115.8,335.5h-66v-64h66V335.5z M115.8,235.5h-66v-64h66V235.5z M115.8,135.5h-66v-64h66V135.5z
		 M217.8,435.5h-66v-64h66V435.5z M217.8,335.5h-66v-64h66V335.5z M217.8,235.5h-66v-64h66V235.5z M217.8,135.5h-66v-64h66V135.5z
		 M389.8,354.5c-41.4,0-75-33.6-75-75c0-41.4,33.6-75,75-75c41.4,0,75,33.6,75,75C464.8,320.9,431.2,354.5,389.8,354.5z"/>
	<polygon points="438.8,262.5 406.8,262.5 406.8,230.5 372.8,230.5 372.8,262.5 340.8,262.5 340.8,296.5 372.8,296.5 372.8,328.5 
		406.8,328.5 406.8,296.5 438.8,296.5 	"/>
</g>
</svg>
