<?xml version="1.0" encoding="utf-8"?>
<!-- Generator: Adobe Illustrator 21.1.0, SVG Export Plug-In . SVG Version: 6.00 Build 0)  -->
<svg version="1.1" id="Layer_1" xmlns="http://www.w3.org/2000/svg" xmlns:xlink="http://www.w3.org/1999/xlink" x="0px" y="0px"
	 viewBox="0 0 513.2 512" style="enable-background:new 0 0 513.2 512;" xml:space="preserve">
<g>
	<path d="M508.7,166.5L307.1,0L167.4,44l-1,49.6l-30-14.4l-133,43.4L0,512h513.2L508.7,166.5z M21.7,151.4l38.8-11.7l-0.6,76.2
		L21.1,225L21.7,151.4z M20.8,264.4l38.8-7.7L59,333.2l-38.8,5L20.8,264.4z M101.6,498L43,498.8l1-56.1
		c0.4-26.1,13.4-47.9,29.2-48.8c16-0.9,29.1,19.8,28.9,46.5L101.6,498z M130.4,323.9l-43.9,5.7l0.6-78.4l43.8-8.7L130.4,323.9z
		 M131.3,199.1l-43.8,10.3l0.6-78.1l43.8-13.2L131.3,199.1z M231.6,487.6l-47.5-0.3l0.3-52.9l47.5-1.4L231.6,487.6z M292.7,488
		l-45.3-0.3l0.3-55.2l45.3-1.4L292.7,488z M293,402.9l-108.4,5.4l0.3-52.8l108.4-9.4L293,402.9z M293.3,318L185,329.4l0.3-52.6
		l108.2-15.5L293.3,318z M293.6,233l-108.2,17.5l0.3-52.5l108.1-21.5L293.6,233z M293.9,148.3l-108.1,23.5l0.2-43.7l108-26.8
		L293.9,148.3z M294.1,73.1l-108,28.8l0.2-43.6l107.9-32.1L294.1,73.1z M376.7,491.8l-60.5,0.7l0.2-57.3l60.4,5.3L376.7,491.8z
		 M376.9,415.2l-60.4-8.3l0.2-57.1L377,364L376.9,415.2z M377,338.8l-60.3-17.2l0.2-57l60.2,23.1L377,338.8z M377.2,262.3l-60.2-26
		l0.2-56.8l60.1,31.9L377.2,262.3z M377.4,186l-60.1-34.9l0.1-47.2l60,39.8V186z M377.5,118.3l-60-42.7l0.1-47.1l60,47.5
		L377.5,118.3z M445.6,491l-42.5,0.5l0.1-48.6l42.5,3.9L445.6,491z M445.7,425l-42.5-6l0.1-48.5l42.4,10.4V425z M445.7,359.1
		l-42.4-12.5l0.1-48.3l42.4,16.9L445.7,359.1z M445.8,293.1l-42.4-19l0.1-48.2l42.3,23.4V293.1z M445.9,227.3l-42.3-25.5l0.1-40.1
		l42.3,29.1L445.9,227.3z M445.9,168.9l-42.3-31.3l0.1-40l42.2,34.8L445.9,168.9z M497.7,490.4l-32.4,0.4v-42.2l32.4,3V490.4z
		 M497.7,432.4l-32.4-4.6v-42.1l32.4,7.9V432.4z M497.8,374.5l-32.4-9.6v-42l32.3,12.9L497.8,374.5z M497.8,316.5L465.5,302v-41.9
		l32.3,17.8V316.5z M497.8,258.6l-32.3-19.5v-34.9l32.3,22.2V258.6z M497.8,207.3l-32.3-23.9v-34.8l32.2,26.6L497.8,207.3z"/>
</g>
</svg>
