<?xml version="1.0" encoding="utf-8"?>
<!-- Generator: Adobe Illustrator 21.1.0, SVG Export Plug-In . SVG Version: 6.00 Build 0)  -->
<svg version="1.1" id="Layer_1" xmlns="http://www.w3.org/2000/svg" xmlns:xlink="http://www.w3.org/1999/xlink" x="0px" y="0px"
	 viewBox="0 0 458.9 512" style="enable-background:new 0 0 458.9 512;" xml:space="preserve">
<path d="M454.6,40.6c2.4,0,4.3-1.9,4.3-4.3v-32c0-2.4-1.9-4.3-4.3-4.3H4.3C1.9,0,0,1.9,0,4.2v32c0,2.4,1.9,4.3,4.3,4.3H32v430.3H4.3
	c-2.4,0-4.3,1.9-4.3,4.3v32c0,2.4,1.9,4.3,4.3,4.3h450.2c2.4,0,4.3-1.9,4.3-4.3v-32c0-2.4-1.9-4.3-4.3-4.3v0.1h-27.6V40.6H454.6z
	 M193.6,102l71.7,0c2.7,3.3,10.2,13.7,10.2,27.8c0,29.8-39.9,43.2-39.9,67.8c0,26-10.9,25.7-10.9,0c0-24.3-41.1-36.6-41.1-67.8
	C183.5,115.6,190.9,105.3,193.6,102z M226.6,301.7v-27.8h7.6v27.8H226.6z M234.2,316.3v24c0,2.1-1.7,3.8-3.8,3.8l0,0
	c-2.1,0-3.8-1.7-3.8-3.8v-24H234.2z M226.6,259.4v-27.8h7.6v27.8H226.6z M128,443.1h-17.3c-8.4,0-8.5,6.1-8.5,8.5v19.2H70.3V40.5
	h31.9v19.1c0,2.3,0.5,8.5,8.5,8.5h19.4c-5.2,6.3-19.4,25.9-19.4,53.3c0,59.9,78.8,83.4,78.8,130c0,49.4-76.6,66-76.6,134.2
	C112.9,412.5,122.4,433.2,128,443.1z M163,444.8c0,0,33.7-10.2,62.1-34.3c3.5-2.9,10.4-2.7,14.2-0.2c19.7,13.4,62.1,30.2,62.1,30.2
	L163,444.8z M388.6,470.9h-31.9v-19.2c0-2.3-0.5-8.5-8.5-8.5H333c5.6-9.9,15.2-30.9,15.2-57.5c0-63.6-74.5-84.4-74.5-134.2
	c0-47.1,76.6-72.8,76.6-130c0-27.1-14.3-47-19.5-53.3h17.3c8.4,0,8.5-6.1,8.5-8.5V40.5h32V470.9z"/>
</svg>
