<?xml version="1.0" encoding="utf-8"?>
<!-- Generator: Adobe Illustrator 21.1.0, SVG Export Plug-In . SVG Version: 6.00 Build 0)  -->
<svg version="1.1" id="Layer_1" xmlns="http://www.w3.org/2000/svg" xmlns:xlink="http://www.w3.org/1999/xlink" x="0px" y="0px"
	 viewBox="0 0 512 512" style="enable-background:new 0 0 512 512;" xml:space="preserve">
<g>
	<path d="M256,0C114.6,0,0,114.6,0,256s114.6,256,256,256c141.4,0,256-114.6,256-256S397.4,0,256,0z M268.9,485.7v-26.1h-25.8v26.1
		C128.4,479.2,36.5,387.3,30,272.6h24.5l-0.5-25.8H30c6.5-114.7,98.3-206.6,213.1-213v18.7h25.8V33.8
		c114.7,6.4,206.6,98.3,213.1,213h-22.2l-0.4,25.8H482C475.5,387.3,383.6,479.2,268.9,485.7z"/>
	<path d="M431,265.2h-51.6v-11.1H431v-7.4h28.8c-4.6-104.1-87.3-187.9-190.9-194.4V81h-7.4v51.6h-11.1V81h-7.4V52.5
		c-102.8,7.3-184.5,90.8-189,194.3h23.3v7.4h55.2v3.7h7.4v3.7h-7.4v3.7H77.4v7.4H54.5c8,100.1,88.3,179.7,188.6,186.9v-24.8h7.4
		v-55.3h3.7V372h3.7v7.4h3.7v55.3h7.4v24.9c101.2-6.3,182.4-86.3,190.5-187H431V265.2z M254.2,136.3h3.7v7.4h-3.7V136.3z M254.2,151
		h3.7v7.4h-3.7V151z M257.8,364.7h-3.7v-7.4h3.7V364.7z M257.8,349.9h-3.7v-7.4h3.7V349.9z M331.5,261.5h-6.4
		c-25.7,28.6-24.5,72-79.3,81.8c-5,0.9-14,2.5-23.8,3c-7.3,0.3-17.4-4.8-20.8-5.9c-9.5-3.1-21.7,6.2-29.7,4.8
		c-10.6-1.8-17.9-5.9-17.9-13.7c0-3.8,48-43.3,49-47.3c1-4.4,0.3-14.8-6.4-22.7h2.6v-3.7h-6.4c-11.3-9.5-29.3-12.9-44.8-24
		c-26.4-18.9-48.4-45.3-38.6-47.3c97.3-20.6,141.1,52.2,144.8,50.5c2.5-1.1,5.4-2.6,8.7-4.2c0.5-0.3-1.4-1.7-4.8-4.1v3.3h-3.7v-5.8
		c-12-8.4-32.8-23.6-38-39.7c-4.6-14.1,22.1-34.8,23.8-35.5c1.2-0.5,7.1,6.2,14.2,15.7v-0.9h3.7v5.9c6,8.3,12.6,18,17.8,26.7
		c8,13.2,10.1,24.3,11.9,23.7c16.6-6.2,37.6-7.4,53.5-11.8c13.4-3.7,25.5-11.1,32.7-11.8c7.7-0.7,15.7,4.3,20.2,11.4
		c1.8,2.8,32.9,6.1,33.3,9.3c0.5,3.8-30.1,7.4-32.3,11c-2.3,3.7-6.2,7.1-12.3,9.7c-6.8,2.9-21.9,0.6-23.8,0
		c-6.9-2.2-17.7,5.8-30.2,18.1h2.8V261.5z M147.3,261.5v-3.7h7.4v3.7H147.3z M162.1,261.5v-3.7h7.4v3.7H162.1z M176.8,261.5v-3.7
		h7.4v3.7H176.8z M346.2,261.5h-7.4v-3.7h7.4V261.5z M361,261.5h-7.4v-3.7h7.4V261.5z M375.7,261.5h-7.4v-3.7h7.4V261.5z"/>
	<path d="M257.8,217.3h-3.7V210h3.7V217.3z M257.8,202.6h-3.7v-7.4h3.7V202.6z M257.8,187.9h-3.7v-7.4h3.7V187.9z M213.6,261.5h-7.4
		v-3.7h7.4V261.5z M228.4,261.5H221v-3.7h7.4V261.5z M243.1,261.5h-7.4v-3.7h7.4V261.5z M257.8,335.2h-3.7v-7.4h3.7V335.2z
		 M257.8,320.5h-3.7v-7.4h3.7V320.5z M257.8,305.7h-3.7v-7.4h3.7V305.7z M257.8,291h-3.7v-7.4h3.7V291z M257.8,276.3h-3.7v-7.4h3.7
		V276.3z M257.8,246.8h-3.7v-7.4h3.7V246.8z M272.6,261.5h-7.4v-3.7h7.4V261.5z M287.3,261.5h-7.4v-3.7h7.4V261.5z M302,261.5h-7.4
		v-3.7h7.4V261.5z M316.8,261.5h-7.4v-3.7h7.4V261.5z"/>
</g>
</svg>
