<?xml version="1.0" encoding="utf-8"?>
<!-- Generator: Adobe Illustrator 22.0.1, SVG Export Plug-In . SVG Version: 6.00 Build 0)  -->
<svg version="1.1" id="Layer_1" xmlns="http://www.w3.org/2000/svg" xmlns:xlink="http://www.w3.org/1999/xlink" x="0px" y="0px"
	 viewBox="0 0 589 512" style="enable-background:new 0 0 589 512;" xml:space="preserve">
<g>
	<path d="M531.3,160.2c-1.8-1.3-3.4-1.8-4.9-1.9H181.3c-2.4,0-4.4,0.8-5.6,1.9c-1.3,1.3-1.9,3.2-1.9,5.6v295l74.6-92.8l39.4,31.2
		l123.4-123L533.8,399V165.9C533.7,163.4,532.9,161.5,531.3,160.2z M259.5,284.4c-26.1,0-47.2-21.1-47.2-47.2s21.1-47.2,47.2-47.2
		s47.2,21.1,47.2,47.2S285.6,284.4,259.5,284.4z"/>
	<path d="M576.9,103H420.4V11.9c0-6.6-5.3-11.9-11.9-11.9H11.9C5.3,0,0,5.3,0,11.9v341.8c0,6.6,5.3,11.9,11.9,11.9h106.6V500
		c0,6.6,5.4,12,12,12h446.4c6.6,0,12-5.4,12-12V115C588.9,108.3,583.5,103,576.9,103z M118.5,115v218.6H32V32h356.4v71H130.5
		C123.9,103,118.5,108.3,118.5,115z M556.9,480h-28.7L410.6,343.9L293.1,480H150.5V135h406.4V480z"/>
</g>
</svg>
