<?xml version="1.0" encoding="utf-8"?>
<!-- Generator: Adobe Illustrator 21.1.0, SVG Export Plug-In . SVG Version: 6.00 Build 0)  -->
<svg version="1.1" id="Layer_1" xmlns="http://www.w3.org/2000/svg" xmlns:xlink="http://www.w3.org/1999/xlink" x="0px" y="0px"
	 viewBox="0 0 589 512" style="enable-background:new 0 0 589 512;" xml:space="preserve">
<g>
	<path d="M476.8,111.8c-1.8-1.3-3.5-1.8-5-2H117.5c-2.5,0-4.5,0.8-5.8,2c-1.3,1.3-2,3.3-2,5.8v264l54.2-94.2l47.8,47.8l143.4-153.5
		l124.3,124.2V117.6C479.3,115.1,478.5,113.1,476.8,111.8z M214.2,239.3c-26.8,0-48.5-21.7-48.5-48.5s21.7-48.5,48.5-48.5
		s48.5,21.7,48.5,48.5S241,239.3,214.2,239.3z"/>
	<path d="M0.1,22.6v466.8c0,12.5,10.1,22.6,22.6,22.6h543.6c12.5,0,22.6-10.1,22.6-22.6V22.6c0-12.5-10.1-22.6-22.6-22.6H22.7
		C10.2,0,0.1,10.1,0.1,22.6z M490.1,430.2L363.8,304.6l-109,125.6H81.9V90.7c0-2.9,0.9-5.1,2.3-6.6c1.4-1.4,3.7-2.3,6.5-2.3h407.7
		c1.7,0.3,3.7,0.9,5.7,2.3c2,1.4,2.8,3.7,2.8,6.6l0.1,339.5H490.1z"/>
</g>
</svg>
