<?xml version="1.0" encoding="utf-8"?>
<!-- Generator: Adobe Illustrator 21.1.0, SVG Export Plug-In . SVG Version: 6.00 Build 0)  -->
<svg version="1.1" id="Layer_1" xmlns="http://www.w3.org/2000/svg" xmlns:xlink="http://www.w3.org/1999/xlink" x="0px" y="0px"
	 viewBox="0 0 512 512" style="enable-background:new 0 0 512 512;" xml:space="preserve">
<g>
	<path d="M466,138.8h-60.9L372.8,33.2C366.7,13,348.1,0,328,0c-4.5,0-9.2,0.7-13.7,2.1l-281,86C8.6,95.6-5.3,121.8,2.2,146.6
		L84,413.7c5.7,18.7,22.1,31.3,40.5,33V466c0,25.4,20.6,46,46,46H466c25.4,0,46-20.6,46-46V184.8C512,159.4,491.4,138.8,466,138.8z
		 M124.4,184.8v229.4c-4.6-1.4-8.4-5.1-9.9-9.9L32.8,137.2c-1.6-5.1,0-9.3,1.1-11.3c1.1-2,3.7-5.7,8.8-7.2l281-86
		c1.4-0.4,2.9-0.7,4.4-0.7c6.5,0,12.3,4.3,14.2,10.5l29.5,96.3H170.4C145,138.8,124.4,159.4,124.4,184.8z M479.7,423.8L416.6,361
		l-2.6-2.6l-5.1,5l-65.3,63.1l-34.2-32.6l-26.6-25.3l-61.5-58.6l-64.9,65.2V192.7c0-12,9.8-21.8,21.8-21.8H458
		c12,0,21.8,9.8,21.8,21.8V423.8z"/>
	<circle cx="342.2" cy="265.3" r="46.3"/>
</g>
</svg>
