<?xml version="1.0" encoding="utf-8"?>
<!-- Generator: Adobe Illustrator 21.1.0, SVG Export Plug-In . SVG Version: 6.00 Build 0)  -->
<svg version="1.1" id="Layer_1" xmlns="http://www.w3.org/2000/svg" xmlns:xlink="http://www.w3.org/1999/xlink" x="0px" y="0px"
	 viewBox="0 0 512 512" style="enable-background:new 0 0 512 512;" xml:space="preserve">
<g>
	<path d="M451.3,0H60.8C27.2,0,0,27.2,0,60.8v390.5C0,484.8,27.2,512,60.8,512h390.5c33.5,0,60.8-27.2,60.8-60.8V60.8
		C512,27.2,484.8,0,451.3,0z M32,60.8C32,44.9,44.9,32,60.8,32h390.5c15.8,0,28.8,12.9,28.8,28.8V387l-97.5-97l-93,89.9l-161.7-154
		L32,322.2V60.8z"/>
	<circle cx="287.7" cy="156.7" r="61.2"/>
</g>
</svg>
