<?xml version="1.0" encoding="utf-8"?>
<!-- Generator: Adobe Illustrator 21.1.0, SVG Export Plug-In . SVG Version: 6.00 Build 0)  -->
<svg version="1.1" id="Layer_1" xmlns="http://www.w3.org/2000/svg" xmlns:xlink="http://www.w3.org/1999/xlink" x="0px" y="0px"
	 viewBox="0 0 550 512" style="enable-background:new 0 0 550 512;" xml:space="preserve">
<g id="_x37_2">
	<path d="M470.8,326.8c-43.7,0-34.5,36.6-42.2,52.8c-13.7,31.2-54.1,32.9-57.5,32.9H178.8c-3.4,0-43.7-1.7-57.5-32.9
		c-7.7-16.1,1.4-52.8-42.1-52.8H0v134.8C0,489.2,30,512,67.9,512H482c37.8,0,67.9-22.8,67.9-50.4V326.8H470.8z"/>
	<path d="M79,287.7c110.6,0,74.4,85.1,105.8,85.1h180.4c30.3,0-3.1-85,102.9-85H541l-95.3-105.1c-16.2-20.9-43.6-33.4-72.6-33.4
		v36.9v0.2c11.6,0,22.9,5.7,30.1,15l0.9,1.1l0.9,1.1l43.5,47.9c-85,6.9-105.3,58.2-112.8,84.3H214.1c-7.5-26.1-27.4-76.7-112.8-84.2
		l43.6-48.1l0.9-1.1l0.9-1.1c7.2-9.3,18.8-15.1,30.1-15.1v-36.9c-29,0-56.4,12.6-72.6,33.4L9,287.8L79,287.7L79,287.7z"/>
	<path d="M248.5,228.6h51.7V81l52.4,54.7V79.5l-0.4-4.3c-0.4-3.1-1.6-5.5-3.7-7.3L274.3,0l-73.2,69.3l-3.4,4.3
		c-0.9,2-1.4,3.7-1.4,5.3v57.2l52.1-55.8V228.6z"/>
</g>
</svg>
