<?xml version="1.0" encoding="utf-8"?>
<!-- Generator: Adobe Illustrator 21.1.0, SVG Export Plug-In . SVG Version: 6.00 Build 0)  -->
<svg version="1.1" id="Layer_1" xmlns="http://www.w3.org/2000/svg" xmlns:xlink="http://www.w3.org/1999/xlink" x="0px" y="0px"
	 viewBox="0 0 550 512" style="enable-background:new 0 0 550 512;" xml:space="preserve">
<g>
	<path d="M184.8,313.7h180.4c30.3,0-3.1-112.8,102.9-112.8H541L445.7,61.4c-16.2-27.7-43.6-44.3-72.6-44.3H176.8
		c-29,0-56.4,16.7-72.6,44.3L9,200.9l69.9-0.1C189.7,200.7,153.3,313.7,184.8,313.7z M470.8,252.7c-43.7,0-34.5,48.6-42.2,70
		c-13.7,41.4-54.1,43.6-57.5,43.6H178.8c-3.4,0-43.7-2.3-57.5-43.6c-7.7-21.4,1.4-70-42.1-70H0v178.8c0,36.7,30,66.9,67.9,66.9
		h414.1c37.8,0,67.9-30.2,67.9-66.9V252.7H470.8z"/>
</g>
</svg>
