<?xml version="1.0" encoding="utf-8"?>
<!-- Generator: Adobe Illustrator 21.1.0, SVG Export Plug-In . SVG Version: 6.00 Build 0)  -->
<svg version="1.1" id="Layer_1" focusable="false" xmlns="http://www.w3.org/2000/svg" xmlns:xlink="http://www.w3.org/1999/xlink"
	 x="0px" y="0px" viewBox="0 0 640 512" style="enable-background:new 0 0 640 512;" xml:space="preserve">
<path d="M495.2,96.6c-69.8,0-137.3,68.5-175.6,115.7C281.7,165,214.6,96.6,144.8,96.6C64.8,96.6,0,168,0,256s64.8,159.4,144.8,159.4
	c70.8,0,137.3-68,174.9-115.2c37.9,47.2,104.8,115.2,175.6,115.2c79.9,0,144.7-71.4,144.7-159.4S575.1,96.6,495.2,96.6z
	 M236.7,285.9c-17.8,18.6-35.2,33.2-51.5,43.1c-15.4,9.4-29.4,14.3-40.5,14.3c-18.1,0-35.5-8.2-49-23.1C80.4,303.5,72,280.6,72,256
	c0-24.7,8.4-47.5,23.7-64.3c13.5-14.9,30.9-23.1,49-23.1c10.5,0,23.9,4.8,38.8,13.8c16.1,9.7,33.3,23.9,51.1,42.2
	c10.5,10.8,20,21.7,28,31.6C255.2,265.6,246.5,275.8,236.7,285.9z M544.2,320.3c-13.5,14.9-30.9,23.1-49,23.1
	c-10.9,0-24.7-4.8-39.9-13.9c-16.2-9.7-33.4-23.9-51.1-42.1c-10.3-10.6-19.7-21.4-27.5-31.1c7.6-9.4,16.6-19.6,26.5-29.9
	c18.2-18.8,35.8-33.4,52.2-43.5c15.4-9.4,29.2-14.3,39.9-14.3c18.1,0,35.5,8.2,49,23.1c15.3,16.8,23.7,39.7,23.7,64.3
	C567.9,280.6,559.5,303.5,544.2,320.3z"/>
</svg>
