<?xml version="1.0" encoding="utf-8"?>
<!-- Generator: Adobe Illustrator 22.0.1, SVG Export Plug-In . SVG Version: 6.00 Build 0)  -->
<svg version="1.1" id="Layer_1" xmlns="http://www.w3.org/2000/svg" xmlns:xlink="http://www.w3.org/1999/xlink" x="0px" y="0px"
	 viewBox="0 0 512 512" style="enable-background:new 0 0 512 512;" xml:space="preserve">
<path d="M462,0.5H50c-27.6,0-50,22.4-50,50v412c0,27.6,22.4,50,50,50h412c27.6,0,50-22.4,50-50v-412C512,22.9,489.6,0.5,462,0.5z
	 M278.5,392.1h-45c-5.8,0-10.5-4.7-10.5-10.4V241.1h65.9v140.6h0.1C289,387.5,284.3,392.1,278.5,392.1z M256,196.5
	c-22.2,0-40.2-18-40.2-40.1c0-22.2,18-40.1,40.2-40.1c22.1,0,40.1,18,40.1,40.1C296.2,178.6,278.3,196.5,256,196.5z"/>
</svg>
