<?xml version="1.0" encoding="utf-8"?>
<!-- Generator: Adobe Illustrator 21.1.0, SVG Export Plug-In . SVG Version: 6.00 Build 0)  -->
<svg version="1.1" id="Layer_1" xmlns="http://www.w3.org/2000/svg" xmlns:xlink="http://www.w3.org/1999/xlink" x="0px" y="0px"
	 viewBox="0 0 512 512" style="enable-background:new 0 0 512 512;" xml:space="preserve">
<g>
	<path d="M256,0C114.6,0,0,114.6,0,256s114.6,256,256,256s256-114.6,256-256S397.4,0,256,0z M289.6,375.7c0,5.8-4.7,10.4-10.5,10.4
		h-45c-5.8,0-10.5-4.7-10.5-10.4V235.1h65.9V375.7z M256.7,190.5c-22.2,0-40.2-18-40.2-40.1c0-22.2,18-40.1,40.2-40.1
		c22.1,0,40.1,18,40.1,40.1C296.8,172.6,278.9,190.5,256.7,190.5z"/>
</g>
</svg>
