<?xml version="1.0" encoding="utf-8"?>
<!-- Generator: Adobe Illustrator 21.1.0, SVG Export Plug-In . SVG Version: 6.00 Build 0)  -->
<svg version="1.1" id="Layer_1" xmlns="http://www.w3.org/2000/svg" xmlns:xlink="http://www.w3.org/1999/xlink" x="0px" y="0px"
	 viewBox="0 0 512 512" style="enable-background:new 0 0 512 512;" xml:space="preserve">
<path d="M441,0H71C31.8,0,0,31.8,0,71v370c0,39.2,31.8,71,71,71h370c39.2,0,71-31.8,71-71V71C512,31.8,480.2,0,441,0z M336.8,159.4
	H413l-40.3,57.1h-37.5c-12.9,46.8-53.4,82.1-102.9,87.3l155.5,138.7h-86.5L146.7,304.5l0.1-0.2h-0.1v-58.1h52.5
	c17.1,0,32.5-6.9,43.7-18.1c3.5-3.5,6.5-7.4,9.1-11.6H134.2l36.9-57.1h84.7c-9.6-21.7-31.3-36.9-56.5-36.9H101L137.9,65H413
	l-40.3,57.1h-50.9C328.8,133.5,333.9,146,336.8,159.4z"/>
</svg>
