<?xml version="1.0" encoding="utf-8"?>
<!-- Generator: Adobe Illustrator 21.1.0, SVG Export Plug-In . SVG Version: 6.00 Build 0)  -->
<svg version="1.1" id="south_korea_won_1_" xmlns="http://www.w3.org/2000/svg" xmlns:xlink="http://www.w3.org/1999/xlink" x="0px"
	 y="0px" viewBox="0 0 420 512" style="enable-background:new 0 0 420 512;" xml:space="preserve">
<path id="indian-rupee" d="M317.7,205.5h50.9l54.6-77.5H319.8c-3.9-18.1-10.8-35.1-20.2-50.5h69L423.2,0h-262H75H50L0,78h133.2
	c34.3,0,63.7,20.6,76.7,50H95l-50,77.5h159.8c-3.5,5.7-7.6,11-12.3,15.7c-15.2,15.2-36.1,24.6-59.3,24.6H62v78.8l0.2,0l-0.2,0.3
	L271.7,512H389L178.1,323.9C245.2,316.9,300.2,269,317.7,205.5z"/>
</svg>
