<?xml version="1.0" encoding="utf-8"?>
<!-- Generator: Adobe Illustrator 21.1.0, SVG Export Plug-In . SVG Version: 6.00 Build 0)  -->
<svg version="1.1" xmlns="http://www.w3.org/2000/svg" xmlns:xlink="http://www.w3.org/1999/xlink" x="0px" y="0px"
	 viewBox="0 0 512.2 512" style="enable-background:new 0 0 512.2 512;" xml:space="preserve">
<path d="M451.1,0H60.7C27.1,0-0.1,27.2-0.1,60.8v390.4c0,33.6,27.2,60.8,60.8,60.8h390.4c33.6,0,60.8-27.2,60.8-60.8V60.8
	C511.9,27.2,484.7,0,451.1,0z M383.9,64h48c8.8,0,16,7.2,16,16v48c0,8.8-7.2,16-16,16h-48c-8.8,0-16-7.2-16-16V80
	C367.9,71.2,375.1,64,383.9,64z M256,158.4c54.4,0,99.2,43.2,99.2,97.6s-44.8,97.6-99.2,97.6s-99.2-43.2-99.2-97.6
	C158.4,201.6,201.6,158.4,256,158.4z M447.5,464H63.9c-8.8,0-16-7.2-16-16V208h63.9c-8,12.8-11.2,33.6-11.2,48
	c0,86.4,70.3,155.2,155.1,155.2c86.3,0,155.1-70.4,155.1-155.2c0-14.4-1.6-36.8-12.8-48h63.9v240C463.5,457.6,457.1,464,447.5,464z"
	/>
</svg>
