<?xml version="1.0" encoding="utf-8"?>
<!-- Generator: Adobe Illustrator 21.1.0, SVG Export Plug-In . SVG Version: 6.00 Build 0)  -->
<svg version="1.1" id="Layer_1" focusable="false" xmlns="http://www.w3.org/2000/svg" xmlns:xlink="http://www.w3.org/1999/xlink"
	 x="0px" y="0px" viewBox="0 0 384 512" style="enable-background:new 0 0 384 512;" xml:space="preserve">
<path d="M102.7,512.3c-39.9,0-73.7-21.2-95.1-59.7c-1.5-2.6-2.8-5.3-4.1-7.9c-10.4-21.5,3.6-46.6,28.2-50.5h0
	c17.3-2.7,34.4,6.2,41,21.6c9.6,22.3,18.4,24.1,25.9,24.1c6.8,0,11.8-18.1,23.4-56.1c10.8-35.4,18.3-79.5,27.1-126
	c10.7-56.7,21.8-115.4,36.9-160.5c9-26.7,18.8-47,30-61.9c21.6-28.8,46.5-34.8,63.6-34.8c43.1,0,77.7,23,97.5,64.9
	c1.7,3.7,3.3,7.3,4.6,10.9c8.5,22.2-7.6,46.1-32.4,48l-0.1,0c-16.9,1.3-32.8-8.2-38.6-23.4c-0.9-2.4-2-4.9-3.2-7.3
	c-9.3-18.7-31.2-45.9-53.7,39.7c-10.3,39.2-20.9,88.8-30,137.1c-10.6,56-20.6,108.8-34.2,150.6c-8.1,24.8-16.9,43.6-26.9,57.5
	C142.5,506.4,118.9,512.3,102.7,512.3z"/>
</svg>
