<?xml version="1.0" encoding="utf-8"?>
<!-- Generator: Adobe Illustrator 22.0.1, SVG Export Plug-In . SVG Version: 6.00 Build 0)  -->
<svg version="1.1" id="Layer_4" xmlns="http://www.w3.org/2000/svg" xmlns:xlink="http://www.w3.org/1999/xlink" x="0px" y="0px"
	 viewBox="0 0 512.7 512" style="enable-background:new 0 0 512.7 512;" xml:space="preserve">
<g>
	<path d="M460.7,87.7v109.4H52V87.7H0V512h52v-31.9h408.7V512h52V87.7H460.7z M52,448.1v-219h408.7v219H52z"/>
	<path d="M359.6,25.2h-34.3l5.9,32h54.7L359.6,25.2z M316.1,25.5h-16.8l-5.1,34.8v17.1h27V60.8L316.1,25.5z M255.8,25.2l-26.3,32
		h54.7l6-32H255.8z M331.4,62.5v19.6H284V62.5h-56.9V177h161.5V62.5H331.4z"/>
	<path d="M404.6,276.3h-34.3l5.9,32h54.7L404.6,276.3z M361.1,276.6h-16.8l-5.1,34.8v17.1h27V312L361.1,276.6z M300.8,276.3
		l-26.3,32h54.7l6-32H300.8z M376.4,313.6v19.6H329v-19.6h-56.9V428h161.5V313.6H376.4z"/>
	<path d="M211.4,276.3h-34.3l5.9,32h54.7L211.4,276.3z M168,276.6h-16.8l-5.1,34.8v17.1h27V312L168,276.6z M107.6,276.3l-26.3,32
		H136l6-32H107.6z M183.3,313.6v19.6h-47.4v-19.6h-57V428h161.5V313.6H183.3z"/>
</g>
</svg>
