<?xml version="1.0" encoding="utf-8"?>
<!-- Generator: Adobe Illustrator 21.1.0, SVG Export Plug-In . SVG Version: 6.00 Build 0)  -->
<svg version="1.1" id="Layer_1" xmlns="http://www.w3.org/2000/svg" xmlns:xlink="http://www.w3.org/1999/xlink" x="0px" y="0px"
	 viewBox="0 0 495 512" style="enable-background:new 0 0 495 512;" xml:space="preserve">
<style type="text/css">
	.st0{fill-rule:evenodd;clip-rule:evenodd;}
</style>
<g>
	<path d="M495,264v-72H0v72h83.5l114,108.3L51.7,512h29.8l131-125.4l132,125.4h30.1L227.4,372.2l113-108.2H495z M212.5,358l-98.9-94
		h197.1L212.5,358z"/>
	<path class="st0" d="M378.5,4.3C371.4,1.4,367,0,367,0v180.4c0,0,6.6,0,11.8,0L378.5,4.3z"/>
	<path class="st0" d="M384.9,7.1l0.1,173.4c14.4,0,13.9,8.3,13.9,8.3s28.6,0,46.7,0c2.9,0,8.8-9.9,13-12.6c12.2-8,21.9-21,21.9-42.2
		C480.5,59.8,416.8,21.6,384.9,7.1z M432.7,158.3c-11.4,0-23.9-12.2-23.9-12.2V54.8c0,0,22.2,4.5,35.8,30.4
		c9.6,18.3,11.9,60.9,11.9,60.9S445.1,158.3,432.7,158.3z"/>
	<path class="st0" d="M415,92.9c2.4,0,4.4,2,4.4,4.5v27c0,2.5-1.9,4.5-4.4,4.5s-4.4-2-4.4-4.5v-27C410.6,94.9,412.6,92.9,415,92.9z"
		/>
</g>
</svg>
