<?xml version="1.0" encoding="utf-8"?>
<!-- Generator: Adobe Illustrator 21.1.0, SVG Export Plug-In . SVG Version: 6.00 Build 0)  -->
<svg version="1.1" id="Layer_3" xmlns="http://www.w3.org/2000/svg" xmlns:xlink="http://www.w3.org/1999/xlink" x="0px" y="0px"
	 viewBox="0 0 417.9 512" style="enable-background:new 0 0 417.9 512;" xml:space="preserve">
<path d="M381.6,107.6c6.4,19.9,7.9,39.5,4.6,58.7c-4-12.3-7.8-22.6-11.1-30.8c-1.4,4-3.4,9.8-6.1,17.4c-1.4-12.9-3.5-23.5-6.6-31.8
	l-4.1,10.4l-4,9.9l-0.5-3.5l-0.5-3.5c-0.3-3-0.7-5.5-1-7.5c-1-5.3-2-10.1-3-14.4c-1,2.3-1.9,5-2.5,8l-1,4l-1,4
	c-1.7,6.6-3.2,11.8-4.6,15.4c-1.4-4.3-2.4-10.9-3-19.9l-0.5-5c0-2-0.2-3.8-0.5-5.5c-0.4-3.6-1-7-2-9.9c-0.4,1.7-1,5-2,9.9l-0.5,3
	c-0.3,1-0.5,1.8-0.5,2.5c-0.7,2-1,3.5-1,4.5c-1-1.7-1.9-3.5-2.5-5.5l-2.5-6c-2.4-5-4-8.8-5.1-11.4l-0.5,3.5v3c0,2.3,0,4.3,0,6
	c-0.4,4.7-0.9,8.8-1.5,12.4c-1.4-3.3-2.5-7.5-3.5-12.4c-0.4-1.6-0.9-3.8-1.5-6.5l-0.5-3.5l-1-3c-0.7,2.7-1.9,7-3.5,12.9l-1.5,6.5
	c-0.7,2.7-1.4,5-2,7c-0.7-2.3-1.4-5.1-2-8.5l-2.5-9c-1.7-6.6-3.2-12.3-4.6-16.9c0,2-0.2,4.3-0.5,7l-0.5,7c-0.3,5.6-0.7,10.3-1,13.9
	c-2.4-1-3.9-2.3-4.6-4c-0.3-1.3-0.5-3.3-0.5-6v-1.5c0-0.7,0-1.2,0-1.5c0-1-0.2-2-0.5-3c-0.3-1.6-1.4-3-3-4c-0.4,0.7-0.7,1.7-1,3
	l-0.5,1l-0.5,0.5c0,0.7-0.2,1.2-0.5,1.5l-10.1-2c5.7,6.3,11.8,12.1,18.2,17.4c8.4,11.6,14.2,23.7,17.2,36.3
	c3.4,13.9,3.2,27.4-0.5,40.3c-1.4,4.7-2.7,8.3-4,10.9c-1.4,4.3-3,8-5.1,10.9c-4.7,8-10.6,13.1-17.7,15.4c3-6,7.3-13.3,12.7-21.9
	c-7.8,4.3-13.8,7.5-18.2,9.5c3.4-5,7.1-10.4,11.1-16.4l-9.1,2c1.3-3,3-6.5,5.1-10.4l2.5-5l2-5.5c-1.3,0.3-3.7,1-7.1,2
	c-1,0.3-2.2,0.7-3.5,1c-0.7,0-1.4,0-2,0c-0.4,0.3-0.9,0.5-1.5,0.5l8.1-9.5l-12.2-11.4l3.6,15.9c-1.7-1.3-3.6-2.6-5.6-4l-5.1-3.5
	c-4.4-3.3-7.8-6-10.1-8c2,5,5.6,11.6,10.6,19.9l2.5,4.5c1,2,2,3.7,3,5c2,3.7,3.7,7,5.1,9.9c-1.4-1-3-2.3-5.1-4l-2.5-2l-2-2
	c-4-3-7.4-5.5-10.1-7.5c1.7,4.6,3.9,10.6,6.6,17.9l3.5,9c1.7,3.3,2.9,6.3,3.5,9c-0.7-0.7-1.5-1.7-2.5-3c-0.7-0.3-1.4-0.8-2-1.5l-1-1
	l-0.5-1c-1.7-1.7-2.9-2.8-3.6-3.5c-1.4-1-2.4-1.8-3-2.5c2.4,12.9,3.9,26,4.5,39.3c-1.4-3-3.4-7.6-6.1-13.9c-0.7-1.3-1.4-2.7-2-4
	c0-0.7-0.2-1.3-0.5-2l-0.5-1l-0.5-1c-1.3-3-2.2-5.1-2.5-6.5c-2.4,12.9-5.2,25.2-8.6,36.8c-1.7-2-3-4.6-4.1-8c-0.7-2.3-1-5.3-1-9
	l-0.5-2v-2.5c0-2-0.2-3.6-0.5-5c-0.3-3.3-0.9-6.3-1.5-9c-1,2-2.2,4.6-3.5,8l-1.5,3.5l-1.5,4c-2.4,6-4.6,10.9-6.6,14.9
	c-0.3-5.6-0.3-13.4,0-23.4l0.5-5.5c0.3-2.3,0.5-4.3,0.5-6c0-4.3,0-8.1,0-11.5l-2.5,5.5l-2.5,5.5c-2.4,4.6-4.2,8.3-5.6,10.9
	c-0.3-4-0.2-9.6,0.5-16.9v-4l0.5-4.5c0-3,0-5.6,0-8c-2,7.6-4.9,17.4-8.6,29.4c-1.7,4.6-3.5,10.1-5.6,16.4c-1,2.3-2,5.1-3,8.5l-1.5,4
	l-1.5,4.5c-5.1,14.9-9,26.4-11.6,34.3c-4.1,12.3-7.1,22.7-9.1,31.3c-8.8,44.8-13.3,97.8-13.7,159.2c0,2.7,4.7,4.3,14.2,5
	c3,0.3,6.9,0.5,11.6,0.5c1.4,0,3,0,5.1,0h2c0.7,0,1.2,0,1.5,0c3.4,0.7,6.2,1.2,8.6,1.5c3,0.3,5.9,0.8,8.6,1.5
	c6.8,1.3,11.5,3.3,14.2,6c-2.7,0.3-14.4,1.3-34.9,3c-19.9,2-31.3,3-33.9,3c-8.8-0.7-18.4-1.7-28.9-3c-3.4-0.3-7.6-0.8-12.7-1.5h-1.5
	h-1c-1.4-0.3-2.4-0.5-3-0.5c-2-0.3-3.7-0.5-5.1-0.5c-14.9-1.7-24-2.3-27.3-2c-3-1-1.4-2.7,5.1-5c2-1,4.7-2,8.1-3
	c0.3-0.3,1-0.5,2-0.5l0.5-0.5l1-0.5c1.3-0.3,2.4-0.7,3-1c12.1-0.7,18.6-1,19.2-1c4.4-0.7,8.4-2.2,12.2-4.5
	c0.3-40.1,4.9-86.4,13.7-138.8c4.7-23.9,11.6-49.4,20.8-76.6c1.7-5,3.5-10.8,5.6-17.4l3-8.5l1.5-4.5l1.5-4.5
	c5.1-14.9,8.9-26.9,11.6-35.8c1.7-9,0.3-20.4-4.1-34.3c-0.7,1.7-1.7,3.8-3,6.5c-1.3,2.7-2.5,4.8-3.5,6.5c0-5.6-0.2-11.4-0.5-17.4
	c-2,7.6-4,15.3-6.1,22.9c-0.7-2-1.4-4.6-2-8c-1-3.3-1.9-6-2.5-8c-2.4,12.3-4.1,23.7-5.1,34.3c-2.7-5.3-5.4-10.6-8.1-15.9
	c-1,5.6-1.5,10.4-1.5,14.4c-0.4,5,0.2,9.6,1.5,13.9c-1.4-2-2.9-4-4.6-6c-2-2.7-3.5-4.6-4.6-6c0,2.3,0,5,0,8v7.5
	c0,7-0.2,12.1-0.5,15.4c-1.4-2.7-3-6.3-5.1-10.9l-1-2.5l-1.5-3c-1-2.3-1.9-4.1-2.5-5.5c-2.4,6-3.7,12.8-4.1,20.4
	c0,5.3,0.8,12.1,2.5,20.4c-3.4-2.7-5.7-5.8-7.1-9.5c-1.4-3.3-2.4-7.3-3-11.9c0-1.7,0-3.6,0-6v-3v-3.5c0-5.3-0.2-9.3-0.5-11.9
	c-0.7,1.3-1.4,2.8-2,4.5c-0.3,1.3-1,3.2-2,5.5l-0.5,1.5l-1,1c-0.3,1-0.7,2-1,3c-0.7,1.7-1.4,3-2,4c-2.4-5-2.5-11.3-0.5-18.9
	c0.3-1.3,0.7-3,1-5l1-2.5l1-2c1.3-4.3,2.2-7.5,2.5-9.5c-1.4,1.3-4,4.3-8.1,9l-1,1l-1.5,1.5c-0.7,1-1.4,1.8-2,2.5
	c-1.7,1.7-2.9,3-3.5,4c4.1-11.9,8.9-23.4,14.7-34.3c-2.7,2-5.7,4.2-9.1,6.5l-5.1,3l-4.6,3.5c0.3-2,1.5-4.5,3.5-7.5l1-1.5l1.5-2
	c1-1.3,1.7-2.5,2-3.5c2-2.6,3.2-5.1,3.5-7.5c0.7-2.6,0.5-5.3-0.5-8l8.6,4.5c-1-0.7-2.4-1.8-4.1-3.5c-1.4-1.3-2.5-2.5-3.5-3.5
	c1-1,2.4-2.3,4.1-4l1.5-1l1-0.5c0.7-1,1.4-1.6,2-2c3.4-3.3,5.2-6.6,5.6-9.9c0.3-3,1.3-5.8,3-8.5c1.7-2,4-4,7.1-6c1-0.7,2.4-1.3,4-2
	l2-1.5l2-1c3.7-2,6.4-3.5,8.1-4.5c-1.4,0.3-3.4,1-6.1,2l-3,0.5c-1,0.7-2,1.2-3,1.5c-4.7,1.3-8.3,3.3-10.6,6c-0.3,0-0.7,0.2-1,0.5
	v0.5l-0.5,0.5c-0.7,0.7-1.2,0.8-1.5,0.5c0-0.3,0-0.8,0-1.5v-0.5v-1c0.3-1.7,0.3-2.6,0-3c0-0.3-0.7,1.2-2,4.5l-0.5,1v1
	c-0.4,1-0.7,1.7-1,2c-0.3,1.3-0.7,2.2-1,2.5v-1c-0.3,0-0.5-0.2-0.5-0.5v-0.5v-0.5c-0.3-2-0.7-2.8-1-2.5v3.5
	c-0.3,1.3-0.5,2.2-0.5,2.5c0,0.7,0,1.2,0,1.5l-1.5,1c0,0.3,0,0.2,0-0.5v-0.5v-0.5l-0.5-0.5c0-1.7-0.2-2.3-0.5-2l-1,4
	c-0.3,1.3-0.5,2.2-0.5,2.5l-0.5,1.5c-0.3,0.3-0.5,0.2-0.5-0.5c-0.3-0.3-0.5-0.8-0.5-1.5v-0.5v-1c-0.7-2.3-1-3.3-1-3
	c-0.3,0-0.7,0.7-1,2c0,0.3,0,1,0,2l-0.5,1v1c-0.7,3.7-1.2,5.6-1.5,6c0,0.3-0.2-0.5-0.5-2.5c-0.3-1-0.5-1.7-0.5-2l-0.5-0.5
	c-0.3,0.3-0.5,1-0.5,2c-0.3,0.3-0.5,0.8-0.5,1.5v1l-0.5,0.5c-0.3,3.3-0.7,5-1,5c-0.7,0.7-1.4,1.5-2,2.5v-3.5v-0.5v-0.5v-1v-1
	c-0.4,0.3-0.7,1-1,2c-0.3,0.7-0.5,1.3-0.5,2l-0.5,1l-0.5,0.5c-1,3.7-1.7,5.6-2,6c-0.3,0-0.7-0.7-1-2v-0.5v-0.5v-0.5
	c0-0.7-0.2-0.8-0.5-0.5l-0.5,1.5c-0.4,0.3-0.5,0.7-0.5,1l-0.5,1v0.5l-1.5,4c-0.3,0.3-0.7-0.2-1-1.5v-1v-0.5c0-0.3-0.2-0.5-0.5-0.5
	l-0.5,1c0,0.3-0.2,0.7-0.5,1l-0.5,1c-0.3,2-0.7,3.2-1,3.5c-0.7,0.3-1.4,0.7-2,1c-0.7-8,2.5-18.4,9.6-31.3c3-5,6.4-10.3,10.1-15.9
	c3-4.3,6.3-8.5,9.6-12.4c0-1.6,0.2-4,0.5-7c0-3,0-5.3,0-7c-2,4.6-4.9,11.4-8.6,20.4V110c0-0.3-0.2-0.7-0.5-1c0-0.3-0.2-0.8-0.5-1.5
	c-0.4-1.3-0.9-2.5-1.5-3.5c-1-3-1.9-5.3-2.5-7c-2,6-4.2,11.9-6.6,17.9c0-0.7,0-1.7,0-3c0-0.3,0.2-0.8,0.5-1.5v-2c0-2.7,0-4.6,0-6
	c-0.4,0.3-0.7,0.5-1,0.5c-0.3,0.3-0.7,0.7-1,1c-1,0.3-1.9,0.7-2.5,1c-2,1.3-3.5,2.2-4.6,2.5c-1.7-2.3-4-5.8-7.1-10.4
	c0.3,8.6,1,17.9,2,27.9l-3-5l-3-4.5c-2.4-3.3-4.4-6.3-6.1-9c-0.7,8.3-1.2,16.1-1.5,23.4c-1.4-1.3-3-3-5.1-5
	c-1.7-2.3-3.2-4.1-4.6-5.5c0,1.3,0,3.2,0,5.5c0,0.7-0.2,1.7-0.5,3v1.5v2c0,5.6-0.2,9.5-0.5,11.4c-0.3-0.7-1-1.8-2-3.5
	c-0.3-0.7-0.7-1.3-1-2l-1-1.5l-0.5-1c-2.4-4-3.9-6.6-4.6-8c-0.4,2-0.5,4.1-0.5,6.5l0.5,6.5c0,5.3-0.2,9.5-0.5,12.4
	c-4-4.3-6.9-9.3-8.6-14.9c-1.4-5.3-1.5-10.9-0.5-16.9c1.7-10.9,6.3-21.7,13.7-32.3c5.1-7,11.3-12.9,18.8-17.9
	c6.7-5,14.5-8.8,23.3-11.4c8.1-2.7,16.7-4,25.8-4c8.8,0,17.4,1.2,25.8,3.5v-1v-0.5l0.5-0.5v-0.5c-5.7-1.3-13-2.5-21.8-3.5
	c-1.4,0-3-0.2-5.1-0.5l-5.6-0.5c-4.7-0.3-8.3-0.7-10.6-1c6.8-5.3,13.7-9.1,20.8-11.4c8.4-2.3,16.4-2.5,23.8-0.5
	c7.8,0.7,15.4,4.3,22.8,10.9c2.4,2,5.6,5,9.6,9l2,2.5l2.5,2c1.7,2,3.2,3.5,4.5,4.5c-0.3-0.7-0.7-1.7-1-3l-0.5-1.5l-0.5-1.5
	c-1-2.7-1.9-4.8-2.5-6.5c-2.4-4.3-5.8-6.6-10.1-7l2-4.5c-0.7,0-1.7-0.2-3-0.5c-0.4,0-0.9-0.2-1.5-0.5h-2c-3-0.7-5.1-1.2-6.1-1.5
	c0.7-0.3,1.7-1,3-2c0.3-0.3,0.8-0.7,1.5-1l1.5-1.5c3-2,5.1-3.3,6.1-4c-3.4,0.3-7.6,0.8-12.7,1.5l-6.6,0.5c-2.7,0.3-4.9,0.5-6.6,0.5
	c1-0.3,2.2-1,3.5-2c0.3-0.3,0.8-0.8,1.5-1.5l2-1.5c3.4-2.3,5.7-4,7.1-5c-5.7-0.3-11.8-0.5-18.2-0.5c0.7-0.7,1.9-2.1,3.5-4.5l0.5-1
	c0.3-0.3,0.7-0.7,1-1c0.7-1,1.2-1.7,1.5-2c-2-0.3-4.9-0.5-8.6-0.5c-3.4-0.3-6.1-0.5-8.1-0.5c1-0.7,2.9-1.8,5.6-3.5l2-1l0.5-0.5
	l1-0.5c1-0.7,1.8-1.2,2.5-1.5c-2-0.3-4.9-0.7-8.6-1c-3.4-0.7-6.1-1.2-8.1-1.5c2.7-2.6,6.6-4.1,11.6-4.5c1.7,0,3.9,0,6.6,0l1.5,0.5
	h1.5c1.3,0,2.4,0,3,0c12.5,1.3,24.1,6.3,34.9,14.9c9.8,7.6,18.1,17.4,24.8,29.4c0.7-2.7,1.5-5.6,2.5-9l2.5-9c0.7,1.7,1.4,3.7,2,6
	c0.7,2.7,1.2,4.6,1.5,6c1-1.3,2.4-3.6,4.1-7l1-2c0.3-0.7,0.7-1.2,1-1.5c0.7-1.3,1.2-2.5,1.5-3.5c1.3-0.3,2.7-0.8,4-1.5l4.1-2
	c3-1.7,5.6-2.8,7.6-3.5c6.4-2.7,12.2-4,17.2-4c-1.4,1-3.9,3-7.6,6l-1,1l-1,0.5c-0.7,0.7-1.2,1.2-1.5,1.5c-1.7,1.3-2.9,2.3-3.5,3
	c1.3,0,3,0.2,5.1,0.5c1,0,2,0,3,0h3c5.7,0.3,9.6,0.5,11.6,0.5c-2.7,1-5.9,2-9.6,3c-4.1,1-7.1,1.8-9.1,2.5c1,0.7,2.7,1.5,5.1,2.5
	c1,0.3,2,0.7,3,1c0.7,0.3,1.4,0.7,2,1c-5.1,2.7-10.8,5.3-17.2,8c1,0.3,2.5,0.5,4.6,0.5c0.7,0.3,1.3,0.5,2,0.5c0.3,0,0.8,0,1.5,0
	l0.5,0.5c0,0.3-0.3,1.2-1,2.5c0,0.3-0.2,0.8-0.5,1.5l-1,1.5c-1,2.7-1.9,4.5-2.5,5.5c17.2-6.3,34.6-8.8,52.2-7.5
	c18.9,1.3,35.4,6.8,49.6,16.4l3,2l2.5,2c2.4,1.7,4.4,3.2,6.1,4.5c4,3,7.6,6,10.6,9c7.8,7,11.6,10.4,11.6,10.4
	S379.3,99.3,381.6,107.6z M261.6,153.8c2.7-6.6,0.5-10.1-6.6-10.4C252,150,254.2,153.5,261.6,153.8z"/>
</svg>
