<?xml version="1.0" encoding="utf-8"?>
<!-- Generator: Adobe Illustrator 21.1.0, SVG Export Plug-In . SVG Version: 6.00 Build 0)  -->
<svg version="1.1" id="Layer_3" xmlns="http://www.w3.org/2000/svg" xmlns:xlink="http://www.w3.org/1999/xlink" x="0px" y="0px"
	 viewBox="0 0 550 512" style="enable-background:new 0 0 550 512;" xml:space="preserve">
<path d="M539.4,122.6c5.6,8,9,16.2,10.3,24.8c1.2,10.3-1.1,18.6-6.9,24.8c0-2.3,0-5.5,0-9.7v-5.1c0-1.8,0-3.3,0-4.7
	c-0.7,1-2,3.1-3.7,6.2l-0.4,0.8l-0.4,0.8c-0.5,0.5-0.9,1-1.1,1.6c-0.5,1.3-1,2.2-1.4,2.7c0-1.8-0.1-4.7-0.4-8.9c0-0.8,0-1.7,0-2.7
	v-1.2v-1.2c-0.3-2.1-0.4-3.5-0.4-4.3c-0.7,1-1.8,2.5-3.3,4.3c-0.5,0.8-1.1,1.6-1.8,2.3c-0.5,0.5-1,1.2-1.4,1.9
	c-0.3-5.7-0.7-11.9-1.1-18.6c-1.4,2.1-3,4.5-4.8,7.4l-2.2,3.5l-2.2,3.5c1-7.8,1.4-15,1.4-21.7l-2.2,4.3l-2.6,4.3
	c-0.7-0.5-1.8-1.2-3.3-1.9c-0.5-0.2-1.1-0.6-1.8-1.2c-0.5-0.2-1-0.5-1.4-0.8c0,0.8,0,2.3,0,4.7v1.2c0,0.5,0,1,0,1.6
	c0.2,0.8,0.4,1.4,0.4,1.9c-1.7-4.7-3.3-9.2-4.8-13.5c-0.5,1-1.1,2.7-1.8,5.1c-0.5,0.8-0.9,1.8-1.1,3.1c-0.3,0.2-0.4,0.6-0.4,1.2
	l-0.4,0.4c0,0.2-0.1,0.5-0.4,0.8c-2.2-7-4.2-12.3-5.9-15.9c0,1.3,0,3.1,0,5.4c0.2,2.1,0.4,3.9,0.4,5.4c2.5,2.9,4.8,6.1,6.9,9.7
	c2.7,4.1,5.1,8.2,7.3,12c5.1,10.1,7.3,18.2,6.6,24.4c-0.3-0.2-0.7-0.5-1.1-0.8c-0.3-0.2-0.7-1-1.1-2.3V177c-0.2-0.2-0.4-0.5-0.4-0.8
	l-0.4-0.8c-0.2,0-0.4,0.2-0.4,0.4v0.4l-0.4,0.8c0,1-0.1,1.4-0.4,1.2c-0.2,0-0.6-1-1.1-3.1v-0.4l-0.4-0.4c0-0.5-0.1-0.9-0.4-1.2
	c-0.2-0.5-0.4-0.9-0.4-1.2c-0.3,0-0.4,0.2-0.4,0.4v0.4v0.4l-0.4,0.4c0,1.3-0.1,1.8-0.4,1.6c-0.3-0.2-0.7-1.7-1.4-4.3l-0.4-0.8
	l-0.4-0.8c-0.3-0.5-0.4-1-0.4-1.6c-0.2-0.8-0.5-1.3-0.7-1.6v0.8c0,0.2,0,0.5,0,0.8v0.4v0.8c0,1.8,0,2.6,0,2.3
	c-0.5-0.5-1-1.2-1.4-1.9c-0.3,0-0.5-1.2-0.7-3.5l-0.4-0.8v-0.8c0-0.5-0.1-0.9-0.4-1.2c0-0.8-0.1-1.2-0.4-1.2c0-0.2-0.1-0.2-0.4,0.4
	c0,0.2-0.1,0.8-0.4,1.6c-0.2,1.6-0.5,2.2-0.7,1.9c0-0.2-0.2-1.9-0.7-5.1v-0.8l-0.4-0.8c0-0.5,0-1,0-1.6c-0.2-1-0.5-1.6-0.7-1.6
	c0-0.2-0.2,0.6-0.7,2.7v0.4v0.8c0,0.2-0.1,0.5-0.4,0.8c0,0.5-0.1,0.8-0.4,0.8c0-0.2-0.1-0.6-0.4-1.2c0-0.5-0.1-1.3-0.4-2.3
	c-0.5-1.8-0.7-2.9-0.7-3.1c-0.2-0.2-0.4,0.2-0.4,1.6l-0.4,0.4v0.4c0,0.2,0,0.5,0,0.8v0.4l-1.1-1.2v-1.2c0-0.2-0.1-0.8-0.4-1.6v-3.1
	c-0.2,0-0.5,0.6-0.7,1.9v0.4v0.4c0,0.2,0,0.5,0,0.8l-0.4,0.4c-0.2-0.2-0.5-0.9-0.7-1.9c-0.3-0.2-0.4-0.6-0.4-1.2l-0.4-0.8l-0.4-0.8
	c-1-2.9-1.4-4.1-1.4-3.9c-0.2,0.2-0.2,1,0,2.3v0.8c0,0.2,0,0.5,0,0.8s0,0.5,0,0.8c-0.2,0.2-0.6,0.2-1.1-0.4v-0.4h-0.4
	c-0.2-0.2-0.5-0.5-0.7-0.8c-1.7-1.8-4.3-3.3-7.7-4.7c-0.5-0.2-1.2-0.5-2.2-0.8l-1.8-0.8c-2-0.5-3.4-1-4.4-1.6c1.2,1,3.2,2.2,5.9,3.5
	l1.4,1.2l1.4,0.8c1,0.8,2,1.4,3,1.9c2,1.3,3.5,2.9,4.8,4.7c1.4,1.8,2.3,3.9,2.5,6.2c0,2.9,1.2,5.4,3.7,7.8c0.5,0.5,1,1,1.4,1.6
	l0.7,0.8l1.1,0.4c1.2,1.3,2.2,2.3,3,3.1c-0.7,0.8-1.6,1.7-2.5,2.7c-1.2,1.3-2.1,2.2-2.5,2.7l5.9-3.5c-0.7,2.1-0.9,4.1-0.4,6.2
	c0.2,1.8,1.1,3.7,2.5,5.8c0.2,0.8,0.7,1.7,1.4,2.7l1.1,1.6l0.7,1.2c1.2,2.3,2.1,4.3,2.6,5.8l-3.3-2.3l-3.7-2.7
	c-2.5-1.8-4.6-3.5-6.6-5.1c4.2,8.5,7.7,17.4,10.6,26.7c-0.5-0.8-1.4-1.9-2.5-3.5c-0.5-0.5-1-1-1.4-1.6l-1.1-1.2l-0.7-0.8
	c-3-3.7-4.9-5.9-5.9-7c0.2,1.6,1,4,2.2,7.4l0.4,1.6l0.7,1.9c0.2,1.6,0.5,2.9,0.7,3.9c0.7,2.9,1.1,5.3,1.1,7.4c0,2.6-0.5,5.1-1.4,7.4
	c-0.5-0.8-1-1.9-1.4-3.5c-0.2-0.5-0.5-1.2-0.7-1.9l-0.4-1.2l-0.7-0.8c-1.4-3.9-2.5-6.5-3-7.8c0,2.1-0.1,5.2-0.4,9.3v2.7v2.3
	c0,1.8,0,3.3,0,4.7c-0.5,3.7-1.2,6.6-2.2,8.9c-1,3.1-2.7,5.7-5.1,7.8c1.2-6.5,1.8-11.9,1.8-16.2c0-5.7-1-10.9-3-15.5
	c-0.5,1-1.1,2.5-1.8,4.3l-0.7,1.9l-1.1,2.3c-1.2,3.3-2.5,6.2-3.7,8.5c0-2.9,0-6.8,0-12v-5.8c0-2.3,0-4.4,0-6.2c-0.7,1-2,2.6-3.7,4.7
	c-0.5,0.8-1.1,1.7-1.8,2.7c-0.5,0.5-1,1.2-1.4,1.9c0.9-3.3,1.4-7.1,1.4-11.3c-0.2-2.9-0.7-6.5-1.1-10.9c-2.2,4.1-4.2,8.2-5.9,12.4
	c-1-8.2-2.2-17-3.7-26.3c-0.5,1.3-1.1,3.3-1.8,5.8c-0.7,2.6-1.2,4.7-1.4,6.2c-1.4-5.9-3-11.9-4.8-17.8c0,4.7,0,9.2,0,13.5
	c-0.7-1.3-1.6-3-2.5-5.1c-1-2.1-1.8-3.7-2.5-5.1c-1.2,5.2-2.1,9.6-2.5,13.2c-0.7,4.9-0.9,9.4-0.4,13.6c2.2,7,5.1,16.2,8.8,27.9
	l1.1,3.5l1.1,3.1l2.2,7c1.4,4.9,2.8,9.3,4,13.2c6.4,21.2,11.3,41.1,15,59.7c3.2,20.9,5.3,37.7,6.6,50.4c1.7,18.1,2.7,37.2,3,57.4
	c2.7,1.8,5.6,3,8.8,3.5c0.7,0.2,5.3,0.6,14,1.2c0.5,0,1.2,0.2,2.2,0.4l0.4,0.4l0.7,0.4c0.5,0,1,0.2,1.4,0.4c2.5,0.8,4.4,1.6,5.9,2.3
	c4.4,1.8,5.5,3.1,3.3,3.9c-2.2-0.2-8.7,0.2-19.4,1.6c-1,0-2.2,0.2-3.7,0.4c-0.5,0-1.2,0.2-2.2,0.4h-0.7h-1.8
	c-3.7,0.5-6.7,0.9-9.2,1.2c-7.3,1-14.3,1.8-20.9,2.3c-1.7,0-9.8-0.6-24.2-1.9c-14.9-1.6-23.4-2.5-25.3-2.7c2-2.1,5.3-3.7,10.3-4.7
	c2-0.5,4-0.9,6.2-1.2c1.7-0.2,3.8-0.6,6.2-1.2c0.2,0,0.6,0,1.1,0h1.4c1.4,0,2.7,0,3.7,0c3.2,0,6-0.2,8.5-0.4
	c6.9-0.5,10.1-1.8,9.9-3.9c0-26.1-0.7-47.9-2.2-65.5c-1.2-18.6-3.7-38-7.3-58.1c-1.2-4.9-2.8-10.6-4.8-17l-74.1,66.3h0.4
	c-4.4,5.4-11.6,11.3-21.6,17.8c-20,12.7-44.2,20.8-72.6,24.4c-11.7,1.6-15.5,1.2-30.2-1.2c-11.7-1.8-24.1-4.7-37-8.9
	c-5.1-1.6-10.3-3.3-15.4-5.4c-4.1-1.6-8.2-3.1-12.1-4.7c-4.4-2.1-8-3.7-10.6-5.1l3-1.2l-69-62l-9.2-6.2c-0.2,1-0.5,2.1-0.7,3.1
	c-6.1,34.9-9.3,76.1-9.5,123.6c-0.3,2.1,3,3.3,9.9,3.9c2.5,0.2,5.3,0.4,8.5,0.4c1,0,2.2,0,3.7,0h1.4c0.5,0,1,0,1.4,0
	c2.5,0.5,4.4,0.9,5.9,1.2c2.5,0.2,4.5,0.6,6.2,1.2c4.9,1,8.5,2.6,10.6,4.7c-2.2,0.2-10.6,1.2-25.3,2.7c-14.7,1.3-22.8,1.9-24.6,1.9
	c-6.6-0.5-13.7-1.3-21.3-2.3c-2.5-0.2-5.3-0.6-8.8-1.2h-1.1h-1.1c-0.7-0.2-1.4-0.4-1.8-0.4c-1.4-0.2-2.8-0.4-4-0.4
	c-10.5-1.3-17-1.8-19.4-1.6c-2.2-0.8-1.1-2.1,3.3-3.9c1.4-0.8,3.4-1.6,5.9-2.3c0.5-0.2,0.9-0.4,1.4-0.4l0.7-0.4l0.7-0.4
	c0.9-0.2,1.7-0.4,2.2-0.4c8.5-0.5,13.2-0.9,14-1.2c3.2-0.5,6.1-1.7,8.8-3.5c0.2-31,3.4-66.9,9.5-107.7c3.7-18.6,8.7-38.5,15-59.7
	c1.2-4.1,2.7-8.6,4.4-13.5l1.8-6.6l1.1-3.5l1.1-3.5c3.7-11.7,6.6-20.9,8.8-27.9c0.9-7,0-15.9-3-26.7c-0.5,1.3-1.4,3-2.5,5.1
	c-1,2.1-1.8,3.9-2.5,5.4c0.2-4.7,0.2-9.3,0-13.9c-1.7,5.9-3.2,11.9-4.4,17.8c-0.5-1.6-1.1-3.6-1.8-6.2c-0.7-2.3-1.4-4.3-1.8-5.8
	c-1.4,9.3-2.7,18.1-3.7,26.3c-1.7-4.1-3.7-8.2-5.9-12.4c-0.5,4.7-0.9,8.4-1.1,11.3c0,4.1,0.5,7.8,1.4,10.9c-1.2-1.6-2.3-3.1-3.3-4.7
	c-1.7-1.8-3-3.3-3.7-4.3c0,1.6,0,3.5,0,5.8v6.2c0,5.2,0,9.2,0,12c-1.2-2.3-2.5-5.3-3.7-8.9l-1.1-1.9l-0.7-2.3
	c-0.7-1.8-1.4-3.3-1.8-4.3c-2,4.7-3,9.9-3,15.9c0,4.1,0.5,9.4,1.4,15.9c-2.2-2.1-3.9-4.5-5.1-7.4c-1-2.6-1.6-5.7-1.8-9.3
	c0-1.3-0.1-2.9-0.4-4.7v-2.3v-2.3c0-4.4,0-7.5,0-9.3c-0.5,0.8-1,1.8-1.4,3.1l-0.4,1.2l-0.4,1.2c-0.5,0.8-0.9,1.4-1.1,1.9
	c-1.2,3.7-2.2,6.1-3,7.4c-1.7-3.9-2-8.8-0.7-14.8c0.2-1,0.7-2.3,1.1-3.9l0.7-1.6l0.4-1.9c1-3.3,1.7-5.8,2.2-7.4
	c-0.7,0.8-1.6,1.8-2.5,3.1c-0.5,0.5-1.1,1.2-1.8,1.9l-0.7,0.8l-0.7,1.2c-3.2,3.3-5.3,5.7-6.2,7c3.2-9.3,6.9-18.2,11-26.7
	c-2,1.6-4.3,3.3-6.9,5.1l-3.3,2.7l-3.7,2.3c0.5-1.6,1.4-3.3,3-5.4l0.7-1.6l0.7-1.2c0.7-1.3,1.4-2.3,1.8-3.1c1.2-2.1,2.1-3.9,2.5-5.4
	c0.5-2.3,0.4-4.5-0.4-6.6l5.9,3.5c-0.7-0.5-1.6-1.4-2.6-2.7c-1.2-1-2.1-1.9-2.5-2.7c0.7-0.8,1.7-1.7,3-2.7l0.7-0.8l1.1-0.8
	c0.5-0.5,1-1,1.4-1.6c2.5-2.3,3.7-4.8,3.7-7.4c0.2-2.6,1.1-4.7,2.5-6.6c1.2-1.6,2.8-3.1,4.8-4.7c0.9-0.5,2-1.2,3-1.9l1.4-0.8
	l1.4-1.2c2.7-1.3,4.6-2.5,5.9-3.5c-0.9,0.5-2.5,1-4.4,1.6l-1.8,0.8c-1,0.2-1.7,0.5-2.2,0.8c-3.4,1.3-6.1,2.9-8,4.7
	c0,0.2-0.1,0.5-0.4,0.8h-0.4l-0.4,0.4c-0.5,0.5-0.7,0.6-0.7,0.4v-0.8c0-0.2,0-0.5,0-0.8v-0.8c0-1.3,0-2.1,0-2.3
	c-0.2-0.2-0.7,1-1.4,3.9l-0.4,0.8l-0.4,0.8c-0.2,0.5-0.4,1-0.4,1.6c-0.2,0.8-0.5,1.3-0.7,1.6l-0.4-0.4c0-0.2,0-0.5,0-0.8v-0.4V153
	c-0.2-1.3-0.5-1.9-0.7-1.9c0,0.2-0.1,1.3-0.4,3.1c0,0.8,0,1.4,0,1.9s-0.1,0.8-0.4,0.8l-0.7,1.2v-0.4c-0.2-0.2-0.4-0.5-0.4-0.8v-0.4
	v-0.4c0-1.3-0.1-1.8-0.4-1.6c0,0.2-0.3,1.3-0.7,3.1c-0.2,1-0.5,1.8-0.7,2.3c0,0.5-0.1,0.9-0.4,1.2l-0.4-0.8c0-0.2,0-0.5,0-0.8v-0.8
	l-0.4-0.4c-0.2-2.1-0.5-3-0.7-2.7c0,0.2-0.1,0.8-0.4,1.6c0,0.5-0.1,1-0.4,1.6v0.8v0.8c-0.5,3.1-0.9,4.8-1.1,5.1
	c-0.2,0.2-0.5-0.4-0.7-1.9c0-0.8,0-1.3,0-1.6c-0.3-0.5-0.5-0.6-0.7-0.4l-0.4,1.2c0,0.2,0,0.6,0,1.2v0.8l-0.4,0.8
	c-0.2,2.3-0.5,3.7-0.7,3.9c-0.5,0.5-1,1-1.4,1.6c-0.3,0.2-0.3-0.5,0-2.3v-0.8v-0.4c0-0.2,0-0.5,0-0.8c0-0.5,0-0.6,0-0.4
	c-0.3,0-0.5,0.5-0.7,1.6c-0.2,0.2-0.5,0.6-0.7,1.2v0.8l-0.4,0.8c-1,2.6-1.4,4-1.4,4.3c-0.2,0.2-0.5-0.2-0.7-1.6v-0.4
	c0-0.2,0-0.5,0-0.8l-0.4-0.4c-0.2,0.2-0.5,0.6-0.7,1.2c0,0.2,0,0.6,0,1.2l-0.4,0.4v0.4c-0.7,2.1-1.2,3.1-1.4,3.1
	c0,0.2-0.1-0.2-0.4-1.2v-0.8v-0.4l-0.4-0.4c-0.2,0.2-0.4,0.6-0.4,1.2c-0.2,0-0.4,0.2-0.4,0.8l-0.4,0.8l-0.7,2.3
	c-0.5,0.2-1,0.5-1.4,0.8c-0.5-6.2,1.8-14.4,6.9-24.4c2-3.9,4.4-7.8,7.3-12c2.2-3.7,4.6-6.8,6.9-9.7c0-1.6,0-3.3,0-5.4
	c0.2-2.3,0.4-4.1,0.4-5.4c-1.7,3.7-3.8,8.9-6.2,15.9v-0.4V139c-0.2,0-0.4-0.2-0.4-0.4c-0.2-0.5-0.4-0.9-0.4-1.2
	c-0.5-1-0.9-2.1-1.1-3.1c-0.7-2.3-1.4-4-1.8-5.1c-1.4,4.4-3,8.9-4.8,13.5c0-0.5,0-1.2,0-1.9c0-0.5,0-1,0-1.6v-1.2
	c0.2-2.3,0.4-3.9,0.4-4.7c-0.5,0.2-1,0.5-1.4,0.8c-0.7,0.5-1.4,0.9-1.8,1.2c-1.4,0.8-2.5,1.4-3.3,1.9c-1.2-2.1-3-4.9-5.1-8.5
	c0.2,6.8,0.7,14,1.4,21.7l-2.2-3.5l-2.2-3.5c-1.7-2.9-3.2-5.3-4.4-7.4c-0.5,6.7-0.9,12.9-1.1,18.6c-0.5-0.5-1.1-1.2-1.8-1.9
	c-0.2-0.2-0.5-0.6-0.7-1.2l-1.1-1.2c-1.4-2.1-2.6-3.5-3.3-4.3c0,1,0,2.5,0,4.3c0,0.5-0.1,1.3-0.4,2.3v1.6v1.2
	c-0.3,4.4-0.4,7.5-0.4,9.3c-0.5-1-1.6-3.1-3.3-6.2c-0.5-0.8-0.9-1.4-1.1-1.9c-0.3-0.5-0.5-1-0.7-1.6c-0.7-1.3-1.2-2.2-1.4-2.7
	c-0.3,1.3-0.4,2.9-0.4,4.7v5.1c0.2,4.1,0.2,7.5,0,10.1c-3-3.3-5-7.4-6.2-12c-1-3.9-1.1-8.2-0.4-13.2c1.2-8.5,4.6-16.8,9.9-24.8
	c3.7-5.4,8.1-10.2,13.2-14.4c5.1-3.6,10.8-6.5,16.8-8.5c6.1-2.1,12.4-3.1,18.7-3.1c6.6,0,12.9,0.9,18.7,2.7l0.4-0.4v-0.4
	c0-0.5,0-0.9,0-1.2c-4.2-1-9.3-1.9-15.4-2.7c-1.2,0-2.5-0.2-4-0.4l-3.7-0.4c-3.5-0.2-6.1-0.5-8.1-0.8c5.1-4.1,10.3-7.1,15.4-8.9
	c5.9-2.1,11.5-2.2,16.8-0.4c5.6,0.5,11.2,3.3,16.8,8.5c1.7,1.6,3.9,3.9,6.6,7l1.8,1.6l1.4,1.9c1.2,1.3,2.3,2.5,3.3,3.5
	c0-0.5-0.2-1.3-0.7-2.3l-0.4-1.2l-0.4-1.6c-0.5-1.8-1.1-3.3-1.8-4.7c-1.4-3.3-3.9-5.1-7.3-5.4l1.4-3.5C99.4,87,98,86.6,95.8,86h-1.4
	c-0.2-0.2-0.6-0.4-1.1-0.4c-0.7-0.2-1.4-0.4-1.8-0.4c0.5-0.5,1.1-1,1.8-1.6c0.2-0.2,0.6-0.5,1.1-0.8l1.4-1.2
	c2.2-1.6,3.7-2.7,4.4-3.5c-2.7,0.5-5.9,1-9.5,1.6l-4.4,0.4c-2,0.2-3.5,0.4-4.8,0.4c0.5-0.2,1.2-0.8,2.2-1.6c0.5-0.2,0.9-0.6,1.4-1.2
	l1.4-1.2c2.5-1.8,4-3.1,4.8-3.9c-4.2-0.2-8.5-0.4-12.9-0.4c0.5-0.5,1.2-1.7,2.2-3.5l0.7-0.8c0.2-0.2,0.5-0.5,0.7-0.8
	c0.2-0.8,0.5-1.3,0.7-1.6c-1.4-0.2-3.4-0.4-5.9-0.4c-2.5-0.2-4.4-0.4-5.9-0.4c0.7-0.5,2.1-1.4,4-2.7l1.1-0.8l0.7-0.4l0.4-0.4
	c1-0.5,1.7-0.9,2.2-1.2c-1.7-0.2-3.8-0.6-6.2-1.2c-2.5-0.2-4.6-0.5-6.2-0.8c1.5-2.2,4.3-3.3,8-3.3c1.2,0,2.8,0,4.8,0l1.1,0.4h1.4
	c0.7,0,1.4,0,2.2,0c8.8,1,17.2,4.9,25.3,11.7c7.1,6,12.9,13.4,17.6,22.5c0.5-1.8,1.1-4,1.8-6.6l1.8-7c0.5,1.3,0.9,2.9,1.4,4.7
	c0.5,2.1,0.9,3.7,1.4,4.7c0.5-1,1.4-2.9,2.5-5.4l0.7-1.6c0.2-0.5,0.5-0.9,0.7-1.2c0.5-1.3,0.9-2.2,1.4-2.7c0.7-0.2,1.6-0.6,2.5-1.2
	l3-1.6c2.5-1.3,4.4-2.2,5.9-2.7c4.4-2.1,8.5-3.1,12.1-3.1c-1,0.8-2.7,2.3-5.1,4.7l-0.7,0.4l-0.7,0.8c-0.7,0.5-1.2,0.9-1.4,1.2
	c-1.2,1-2.1,1.8-2.6,2.3c1,0,2.2,0,3.7,0c0.7,0.2,1.4,0.4,2.2,0.4h2.6c3.9,0.2,6.6,0.4,8,0.4c-2,0.8-4.1,1.6-6.6,2.3
	c-3.2,0.8-5.5,1.4-6.9,1.9c0.7,0.2,2,0.8,3.7,1.6c0.7,0.5,1.4,0.9,2.2,1.2c0.5,0.2,0.9,0.5,1.4,0.8c-3.7,2.1-7.8,4.1-12.4,6.2
	c0.7,0,1.8,0.2,3.3,0.4c0.5,0,1.1,0.2,1.8,0.4c0.2,0,0.5,0,0.7,0h0.4h0.4c-0.2,0.5-0.6,1.2-1.1,1.9c0,0.5-0.1,0.9-0.4,1.2l-0.4,1.2
	c-1,2.1-1.7,3.7-2.2,4.7c12.4-4.9,25.1-6.8,37.7-5.8c13.7,1,25.7,5.3,35.9,12.8l1.8,1.6l2.2,1.6c1.7,1.3,3,2.3,4,3.1
	c3.2,2.6,5.9,4.9,8.1,7c5.6,5.7,9.3,11.7,11,17.8c4.6,15.5,5.7,30.9,3.3,46.1c-3-9.8-5.6-18-8.1-24.4c-1,3.1-2.5,7.8-4.4,13.9
	c-1.2-10.3-2.8-18.6-4.8-24.8l-3,7.8l-3,7.8l-0.4-2.7l-0.4-2.7c-0.2-2.1-0.5-3.9-0.7-5.4c-0.7-4.4-1.6-8.2-2.5-11.3
	c-0.5,1.8-1,3.9-1.4,6.2l-0.7,3.1l-0.7,2.7c-1.2,5.4-2.3,9.6-3.3,12.4c-1-3.7-1.7-8.9-2.2-15.9l-0.4-3.9c-0.3-1.6-0.4-2.9-0.4-3.9
	c-0.5-3.1-1-5.7-1.4-7.8c-0.2,1.3-0.7,3.7-1.4,7.4l-0.4,2.3c-0.3,0.8-0.4,1.4-0.4,1.9c-0.5,1.6-0.7,2.7-0.7,3.5
	c-0.7-1.3-1.4-2.7-1.8-4.3l-1.8-4.3c-1.7-3.9-3-6.8-3.7-8.9l-0.4,2.3v2.3c0,2.1,0,3.7,0,5.1c-0.2,3.7-0.6,6.7-1.1,9.3
	c-0.9-2.6-1.8-5.8-2.5-9.7c-0.2-1.3-0.6-3-1.1-5.1l-0.7-2.3l-0.4-2.7c-0.5,2.3-1.4,5.8-2.6,10.5l-1.1,5.1c-0.5,1.8-1,3.5-1.4,5.1
	c-0.5-1.8-1-4-1.4-6.6l-1.8-6.6c-1.2-5.4-2.3-9.8-3.3-13.2c0,1.6-0.1,3.3-0.4,5.4l-0.4,5.4c-0.2,4.4-0.5,7.8-0.7,10.5
	c-1.7-0.5-2.8-1.6-3.3-3.1c-0.3-1-0.4-2.6-0.4-4.7v-1.2c0-0.2,0-0.6,0-1.2c0-0.8-0.1-1.4-0.4-1.9c-0.2-1.6-1-2.6-2.2-3.1
	c-0.2,0.5-0.5,1.3-0.7,2.3l-0.4,0.4l-0.4,0.8v0.8l-7.7-1.6c4.1,5.2,8.5,9.7,13.2,13.5c6.1,9,10.3,18.6,12.4,28.7
	c2.5,10.9,2.3,21.2-0.4,31c-1,3.7-2,6.5-3,8.5c-1.2,3.3-2.5,6.2-3.7,8.5c-3.4,6.2-7.7,10.2-12.9,12c2.2-4.7,5.3-10.3,9.2-17
	c-5.6,3.7-9.9,6.1-12.9,7.4c2.2-3.9,4.8-8.2,7.7-12.8l-6.6,1.6c1-2.1,2.2-4.8,3.7-8.2l1.8-3.9l1.4-3.9c-1,0.2-2.7,0.6-5.1,1.2
	c-0.7,0.2-1.6,0.5-2.5,0.8c-0.5,0-1,0.2-1.4,0.4h-0.4c-0.2,0-0.5,0-0.7,0l5.9-7.4l-8.9-8.9l2.5,12.4c-1.2-0.8-2.5-1.8-3.7-3.1
	l-4-2.7c-3.2-2.6-5.6-4.5-7.3-5.8c1.4,3.7,4,8.6,7.7,15.1l1.8,3.9c0.7,1.3,1.4,2.5,2.2,3.5c1.4,2.9,2.7,5.4,3.7,7.8
	c-1-0.8-2.2-1.8-3.7-3.1l-1.8-1.6l-1.4-1.6c-3-2.3-5.3-4.3-7.3-5.8c1.2,3.9,2.8,8.5,4.8,14l2.5,7c1.2,2.9,2.1,5.1,2.5,7
	c-0.7-0.8-2.2-2.5-4.4-5.1l-0.7-0.4l-0.7-0.8c-0.5-0.5-0.9-1-1.1-1.6c-1-0.8-1.7-1.4-2.2-1.9c1.7,10.1,2.8,20.3,3.3,30.6
	c-1-2.3-2.5-5.9-4.4-10.9c-0.5-1-1-2.1-1.4-3.1v-0.8l-0.4-0.8c-0.3-0.8-0.5-1.3-0.7-1.6c-0.7-2.3-1.4-4-1.8-5.1
	c-1.7,10.1-3.8,19.7-6.2,28.7c-1.2-1.6-2.2-3.6-3-6.2c-0.5-1.8-0.7-4.1-0.7-7v-1.6l-0.4-1.9c0-1.6,0-2.7,0-3.5
	c-0.2-2.9-0.7-5.1-1.4-7c-0.7,1.3-1.4,3.3-2.2,5.8l-1.1,2.7l-1.4,3.1c-1.7,4.7-3.3,8.4-4.8,11.3c-0.2-4.1-0.1-10.1,0.4-17.8v-4.3
	c0.2-1.8,0.4-3.3,0.4-4.7c0.2-3.3,0.2-6.3,0-8.9l-1.8,4.3l-1.8,4.3c-1.7,3.7-3,6.5-4,8.5c0-3.1,0.1-7.5,0.4-13.2l0.4-3.1v-3.1
	c0.2-2.6,0.2-4.7,0-6.6c-2,8.5-6.4,23.5-13.2,44.9l-2.2,6.2l-1.8,6.2c-1.4,4.7-2.8,8.8-4,12.4c-2.7,9-4.9,16.8-6.6,23.2l11.7,8.2
	l90.6,53.1l1.1-0.8c3.7,3.7,9.8,7.1,18.4,10.5c17.1,6.8,28.3,9.4,52.2,8.2c19.1-1,37.3-4.7,54.7-11.3c3-1.3,5.9-2.4,8.8-3.5
	c2.2-1,4.3-2.1,6.2-3.1c2.2-1.3,3.9-2.2,5.1-2.7l2.5-0.4l94.1-69.6l1.1-1.2c-1.7-5.7-3.8-12.7-6.2-20.9c-1-2.6-2.2-6.2-3.7-10.9
	l-1.4-5.1c-0.7-2.1-1.4-3.9-1.8-5.4c-5.3-17-9-29.6-11-37.6c0,1.8,0,3.9,0,6.2l0.4,3.5v3.1c0.5,5.4,0.6,9.7,0.4,12.8
	c-0.9-2.1-2.2-4.7-3.7-8.2l-2.2-4.3l-1.8-4.3c0,2.6,0.1,5.5,0.4,8.9c0,1.3,0,2.7,0,4.3l0.4,4.7c0.5,7.5,0.5,13.4,0,17.8
	c-1.2-3.1-2.8-7-4.8-11.7l-1.1-2.7l-1.1-3.1c-1-2.3-1.7-4.3-2.2-5.8c-0.7,1.8-1.2,4.1-1.4,7c0,1-0.1,2.3-0.4,3.9v1.6v1.9
	c-0.2,2.9-0.6,5.2-1.1,7c-0.5,2.3-1.4,4.4-3,6.2c-2.5-9-4.4-18.6-5.9-28.7c-0.5,1-1.2,2.7-2.2,5.1c0,0.2-0.1,0.6-0.4,1.2l-0.4,0.8
	l-0.4,0.8c-0.5,1.3-0.9,2.3-1.1,3.1c-2,5.1-3.4,8.9-4.4,11.3c0.5-10.3,1.6-20.7,3.3-31c-1,1-2.6,2.7-4.8,5.1l-0.7,0.8l-0.4,0.4
	c-0.5,0.5-1,1-1.4,1.6c-0.7,0.8-1.4,1.4-2.2,1.9c0.7-1.8,1.6-4.1,2.5-7l2.5-6.6c2.2-5.7,3.9-10.3,5.1-13.9c-2,1.3-4.4,3.3-7.3,5.8
	l-1.8,1.6l-1.4,1.6c-1.4,1.3-2.7,2.3-3.7,3.1c1-2.3,2.2-4.9,3.7-7.8c0.5-1,1.2-2.3,2.2-3.9l1.8-3.5c3.4-6.5,6-11.5,7.7-15.1
	c-2,1.3-4.4,3.3-7.3,5.8l-4,2.7c-1.2,1-2.5,2.1-3.7,3.1l2.5-12.4l-9,8.8l5.9,7.4c-0.2,0-0.6-0.2-1.1-0.4H374h-0.7
	c-1-0.2-1.8-0.5-2.5-0.8c-2.5-0.8-4.2-1.3-5.1-1.6l1.4,4.3l1.8,3.9c1.4,3.1,2.7,5.8,3.7,8.2l-6.6-1.6c3,4.4,5.5,8.6,7.7,12.8
	c-2.9-1.6-7.2-4-12.8-7.4c3.9,6.8,6.9,12.4,9.2,17c-5.1-1.8-9.4-5.8-12.8-12c-1.2-2.3-2.5-5.1-3.7-8.5c-0.7-2.1-1.7-4.9-3-8.5
	c-2.5-10.1-2.5-20.4-0.4-31c2.2-10.1,6.4-19.7,12.4-28.7c4.6-3.9,9-8.4,13.2-13.5l-7.3,1.6c-0.2,0-0.4-0.2-0.4-0.8l-0.4-0.8
	l-0.4-0.4c-0.2-1-0.5-1.8-0.7-2.3c-1.2,0.5-2,1.6-2.2,3.1c0,0.5-0.1,1.2-0.4,1.9c0,0.5,0,0.9,0,1.2v1.2c0,2.1-0.1,3.7-0.4,4.7
	c-0.5,1.6-1.6,2.6-3.3,3.1c-0.2-2.6-0.5-6.1-0.7-10.5l-0.4-5.4c-0.2-2.1-0.4-3.9-0.4-5.4c-1,3.3-2.1,7.8-3.3,13.2l-1.4,6.6
	c-0.7,2.6-1.4,4.8-1.8,6.6c-0.3-1.6-0.7-3.3-1.1-5.1l-1.4-5.1c-1-4.7-1.8-8.2-2.5-10.5l-0.4,2.7l-0.7,2.3c-0.2,2.1-0.5,3.7-0.7,5.1
	c-1,3.9-2,7.1-3,9.7c-0.5-2.6-0.7-5.7-0.7-9.3c-0.3-1.3-0.4-3-0.4-5.1v-2.3v-2.3c-1,2.1-2.2,5.1-3.7,8.9l-1.8,4.3
	c-0.7,1.6-1.4,3-1.8,4.3c-0.2-0.8-0.5-1.9-0.7-3.5c-0.3-0.5-0.4-1.2-0.4-1.9l-0.4-2.3c-1-3.6-1.6-6.1-1.8-7.4
	c-0.5,2.1-0.9,4.7-1.1,7.8c-0.3,1-0.5,2.3-0.7,3.9v3.9c-0.7,7-1.6,12.3-2.5,15.9c-0.7-2.9-1.7-7-3-12.4l-0.7-3.1l-0.7-2.7
	c-0.7-2.3-1.4-4.4-1.8-6.2c-0.7,3.1-1.4,6.7-2.2,10.9c-0.3,1.6-0.5,3.5-0.7,5.8l-0.4,2.7l-0.4,2.7l-3-7.8l-3-7.8
	c-2.2,6.2-3.9,14.5-5.1,24.8c-1.7-6.2-3-10.9-4-14c-2.5,6.5-5.1,14.6-8.1,24.4c-2.5-15.2-1.4-30.6,3.3-46.1
	c1.7-6.2,5.3-12.1,11-17.8c2.2-2.1,4.8-4.4,7.7-7c1.2-0.8,2.5-1.8,4-3.1l2.2-1.6l2.2-1.6c10.3-7.5,22.1-11.7,35.6-12.8
	c12.7-1,25.2,0.9,37.4,5.8c-0.3-0.8-0.9-2.2-1.8-4.3l-0.4-1.6c-0.2-0.2-0.4-0.6-0.4-1.2c-0.5-0.8-0.9-1.4-1.1-1.9h0.4h0.4
	c0.2,0,0.5,0,0.7,0c0.7,0,1.4-0.2,1.8-0.4c1.4-0.2,2.6-0.4,3.3-0.4c-4.6-2.1-9-4.1-12.9-6.2c0.5-0.2,0.9-0.4,1.1-0.4
	c0.2-0.2,0.5-0.4,0.7-0.4c0.7-0.2,1.4-0.5,2.2-0.8c1.4-0.8,2.7-1.4,3.7-1.9c-1.4-0.5-3.8-1.2-6.9-1.9l-1.8-0.8h-0.7l-1.1-0.4
	c-1.2-0.5-2.2-0.9-3-1.2l16.5-0.8c-0.7-0.5-1.6-1.3-2.5-2.3c-0.2-0.2-0.7-0.6-1.4-1.2l-0.7-0.4l-0.7-0.8c-2.5-2.3-4.2-3.9-5.1-4.7
	c3.7,0,7.7,1,12.1,3.1c1.4,0.5,3.4,1.4,5.9,2.7l2.6,1.6c1.2,0.5,2.2,0.9,3,1.2c0.2,0.8,0.6,1.7,1.1,2.7l0.4,0.8l0.4,0.4l0.7,1.6
	c1.4,2.6,2.5,4.4,3,5.4c0.2-1,0.7-2.6,1.4-4.7c0.5-1.8,0.9-3.3,1.1-4.7c1.7,6.2,3,10.7,4,13.6c4.6-9,10.5-16.6,17.6-22.5
	c7.8-6.7,16.1-10.5,24.9-11.3c0.7-0.2,1.4-0.4,2.2-0.4h1.4h1.1c2-0.2,3.5-0.4,4.8-0.4c3.7,0.2,6.4,1.4,8,3.5
	c-1.4,0.2-3.4,0.6-5.9,1.2c-2.7,0.2-4.8,0.5-6.2,0.8c0.5,0.2,1.2,0.6,2.2,1.2l0.4,0.4l0.7,0.4l1.1,0.8c2,1.3,3.3,2.2,4,2.7
	c-1.4,0-3.4,0.2-5.9,0.4c-2.5,0-4.4,0.2-5.9,0.4c0.2,0.2,0.5,0.8,0.7,1.6c0.2,0.2,0.5,0.5,0.7,0.8l0.7,1.2c1,1.6,1.7,2.6,2.2,3.1
	c-4.4,0-8.7,0.2-12.8,0.4c0.7,0.8,2.3,2.1,4.8,3.9l1.4,1.2c0.5,0.5,0.9,0.9,1.4,1.2c1,0.8,1.7,1.3,2.2,1.6c-1,0-2.5-0.2-4.8-0.4
	l-4.4-0.4c-3.7-0.5-6.9-1-9.5-1.6c0.7,0.8,2.2,1.9,4.4,3.5l1.4,1.2c0.5,0.2,0.9,0.5,1.1,0.8c1,0.8,1.7,1.3,2.2,1.6
	c-0.7,0-1.4,0.2-2.2,0.4c-0.2,0-0.7,0.2-1.1,0.4h-1.4l-1.1,0.4c-0.5,0.2-0.9,0.4-1.1,0.4c-1,0.2-1.7,0.4-2.2,0.4l1.4,3.5
	c-3.2,0.2-5.6,2.1-7.3,5.4c-0.7,1.3-1.4,3-1.8,5.1l-0.4,1.2l-0.4,1.2c-0.2,1-0.5,1.8-0.7,2.3c0.9-1,2.1-2.2,3.3-3.5l1.4-1.6l1.8-1.9
	c2.7-3.1,4.9-5.4,6.6-7c2.7-2.6,5.3-4.5,7.7-5.8c3-1.6,6-2.4,9.2-2.7c5.3-1.6,11-1.4,16.8,0.4c5.1,1.8,10.1,4.8,15,8.9
	c-1.7,0.2-4.3,0.5-7.7,0.8l-4,0.4c-1.4,0.2-2.7,0.4-3.7,0.4c-6.1,0.8-11.2,1.7-15.4,2.7c0,0.2,0,0.6,0,1.2v0.4l0.4,0.4
	c5.9-1.8,12.1-2.7,18.7-2.7c6.4,0,12.4,1,18.4,3.1c6.1,2.1,11.7,4.9,16.8,8.5c5.3,4.1,8.1,6.2,8.1,6.2S535.9,117.1,539.4,122.6z
	 M191.6,369.8l2.2-0.8l-62-41.5l-12.8-8.2l14.7,11.3L191.6,369.8z M177.7,375.6l1.8-0.8l-57.5-49.3l-1.4-1.2L177.7,375.6z
	 M184.2,372.9l2.5-1.2l-53.5-39.9l-11-7.8l0.4,0.8L184.2,372.9z M127.4,322.9l5.1,3.5l66.4,40.3l1.4-0.8L127.4,322.9z M141.7,341.1
	l38.9,33.3l2.5-1.2L141.7,341.1z M190.5,370.2L153.1,345l34.8,26.3L190.5,370.2z M195.2,368.2l2.2-1.2l-44-26.3L195.2,368.2z
	 M161.9,164.8c-2.2,5.2-0.6,7.8,4.8,8.2C168.6,168,167,165.3,161.9,164.8z M353.1,362h3.3l64.2-49.2l6.9-5.8L353.1,362z
	 M361.1,361.6l30.1-24.8L359,361.6H361.1z M363.4,361.2l3.7-0.4l44.4-39.2L363.4,361.2z M371,360.4l63.5-56.6l-3,1.9l-62.7,55
	L371,360.4z M383.2,173.3c5.3-0.2,6.9-3,4.8-8.2C382.8,165.4,381.2,168.1,383.2,173.3z"/>
</svg>
