<?xml version="1.0" encoding="utf-8"?>
<!-- Generator: Adobe Illustrator 21.1.0, SVG Export Plug-In . SVG Version: 6.00 Build 0)  -->
<svg version="1.1" id="Layer_1" xmlns="http://www.w3.org/2000/svg" xmlns:xlink="http://www.w3.org/1999/xlink" x="0px" y="0px"
	 viewBox="0 0 512 512" style="enable-background:new 0 0 512 512;" xml:space="preserve">
<g>
	<path d="M384.7,96c-23.6,0-45.8,10-64.8,27.4C301.1,106,279.3,96,256,96c-23.1,0-44.8,9.9-63.6,27.1C173.5,105.9,151.5,96,128,96
		C56.9,96-0.7,186.5-0.7,298.1S56.9,500.3,128,500.3c20.9,0,40.6-7.8,58-21.7c20.1,21.1,44.2,33.4,70,33.4
		c25.9,0,50.1-12.4,70.3-33.7c17.5,14,37.4,22,58.4,22c71.1,0,128.7-90.5,128.7-202.1S455.8,96,384.7,96z M264.2,272.9l18.6-6.4
		l-18.1,36.1l-18.1-36.1L264.2,272.9z M118.6,255.8l14.3-25l1.8-16.8c0.6-5.7,7-8.7,11.8-5.5l50.3,33.3c7.8,5.1,3.8,17.2-5.4,16.8
		L118.6,255.8z M336.4,385L307.1,359c-3.3-2.9-9.5-3.1-13-0.4l-22.4,17c-3.8,2.8-10.1,2.8-13.9,0l-22.4-17c-3.6-2.7-9.8-2.6-13,0.4
		L193.1,385v-28.4l29.3-25.9c3.3-2.9,9.5-3.1,13-0.4l22.4,17c3.8,2.9,10.1,2.9,13.9,0l22.4-17c3.6-2.7,9.8-2.6,13,0.4l29.3,25.9V385
		z M338.1,258.8c-9.3,0.4-13.2-11.7-5.4-16.8l50.3-33.3c4.8-3.2,11.2-0.2,11.8,5.5l1.8,16.8l14.3,25L338.1,258.8z"/>
	<path d="M198.9,0.4c-8.8-2.6-14.4,8.2-8.2,14.9c15.5,15.5,38.1,43.8,38.7,77.8c8.8-2.6,17-4.1,25.3-4.1l1.5-0.5h1.5
		c9.3,0,19.1,2.1,29.4,5.7C263.9,55.5,227.8,8.6,198.9,0.4z"/>
</g>
</svg>
