<?xml version="1.0" encoding="utf-8"?>
<!-- Generator: Adobe Illustrator 21.1.0, SVG Export Plug-In . SVG Version: 6.00 Build 0)  -->
<svg version="1.1" id="Layer_1" xmlns="http://www.w3.org/2000/svg" xmlns:xlink="http://www.w3.org/1999/xlink" x="0px" y="0px"
	 viewBox="0 0 660 512" style="enable-background:new 0 0 660 512;" xml:space="preserve">
<path d="M638.6,512H21.4C9.6,512,0,500.6,0,486.5v-461C0,11.4,9.6,0,21.4,0h617.2C650.4,0,660,11.4,660,25.5v461
	C660,500.6,650.4,512,638.6,512z M208.6,274.8V172h-65.3v102.8c0,13.1-3.6,23.7-10.9,31.7c-7.3,8-17.2,12.1-29.9,12.1
	c-20.9,0-42.7-6.5-65.7-19.6v37.7c10.1,3.3,21.6,5.8,34.5,7.6c13,1.8,23.3,2.8,31,3.1l12.2,0.4C177.2,347.6,208.6,323.4,208.6,274.8
	z M412.9,336.1V298c-19,11.7-38.1,18.4-57.5,20.1c-20.5,1.7-36.7-3-48.4-13.9c-11.7-10.9-17.5-26.7-17.5-47.5
	c0-20.7,5.9-36.6,17.5-47.5c11.7-10.9,27.8-15.4,48.4-13.5c19.4,1.4,38.6,7.8,57.5,19.2v-37.3c-9.4-2.7-19-4.9-28.9-6.5
	c-10-1.7-17.5-2.7-22.6-3.3l-8.1-0.8c-24.3-1.3-45.2,0.2-62.6,4.7c-17.4,4.5-30.9,11.2-40.2,20.1c-9.4,8.9-16.1,18.7-20.3,29.5
	c-4.2,10.8-6.3,22.6-6.3,35.6c0,13,2.1,24.8,6.3,35.4c4.2,10.7,11,20.4,20.3,29.3c9.4,8.9,22.7,15.5,40.2,20.1
	c17.4,4.5,38.2,6.1,62.6,4.7C372.5,345.5,392.4,342.1,412.9,336.1z M623.2,297.9c0-12-4.1-21.8-12.3-29.6
	c-8.2-7.8-18.6-12.2-31.3-13.3v-0.8c10.8-1.9,19.3-6.5,25.5-13.9s9.3-16.2,9.3-26.6c0-12.3-3.9-22.1-11.7-29.4
	c-7.9-7.3-18.1-11.3-30.7-11.9c-0.7,0-1.9-0.1-3.5-0.2c-1.6-0.1-2.9-0.2-3.9-0.2H433.8v170h140.8c14.1,0,25.7-4,34.8-12
	C618.6,321.9,623.2,311.2,623.2,297.9z M548.5,205.7c2.9,3.8,4.4,8.4,4.4,14c0,5.5-1.4,10.2-4.4,14c-2.9,3.8-6.5,6.1-11,6.9
	c-0.5,0.3-1.8,0.4-4.2,0.4h-39.2v-43h39.2c0.5,0,1.3,0.1,2.3,0.2c1,0.1,1.7,0.2,1.9,0.2C542,199.5,545.7,201.9,548.5,205.7z
	 M553.8,275.6c2.9,4.1,4.4,9.1,4.4,14.9c0,5.9-1.4,10.8-4.4,14.9c-2.9,4.1-6.6,6.7-11.1,7.8c-1.4,0.6-3.1,0.8-5.3,0.8H494v-47h43.5
	c2.1,0,3.9,0.3,5.3,0.8C547.3,268.9,550.9,271.5,553.8,275.6z"/>
</svg>
