<?xml version="1.0" encoding="utf-8"?>
<!-- Generator: Adobe Illustrator 21.1.0, SVG Export Plug-In . SVG Version: 6.00 Build 0)  -->
<svg version="1.1" id="share-square" xmlns="http://www.w3.org/2000/svg" xmlns:xlink="http://www.w3.org/1999/xlink" x="0px"
	 y="0px" viewBox="0 0 550 512" style="enable-background:new 0 0 550 512;" xml:space="preserve">
<path d="M549.5,113.1c-5.2-6.5-111.6,29.9-111.6,29.9s-24.7-1-44.8-1c-9.7,0-18.6,2.5-23.2,5.6c-13.7,9.2-30.2,20.2-45.3,30.5
	c-85.3,58.6-155.2,108.6-155.2,108.6l-32.7,5.6L14.1,239L0,256.7l54.9,86.6l-3.6,2.4l-7.1,15.1l1.9,2.8l16.5,1.3l25-16.9l1,1.4
	l-13.6,13.3l-17.4,11.7c-2.3,1.5-2.8,4.6-1.3,6.9l25.9,38.5c1.5,2.3,4.6,2.8,6.9,1.3l16.2-10.9l1,1.4l39.3-11.6l1.5,2.7l30.1-12
	l-0.2-8c0,0,9.3-6.3,47.7-32.2c2.5,2.2,4.9,8.3,5.3,10.8c8-7,9.4-14.2,7.8-19.7c0.4-0.3,0.8-0.5,1.1-0.8l9.3,13.8
	c-5.1,4.7-6.2,12.5-2.2,18.3c4.7,6.9,14.4,8.4,20.9,2.8c5-4.2,6.4-11.4,3.4-17.1c-3.4-6.6-11-9.3-17.5-6.8l-9.5-14
	c1.5-1,2.2-1.5,7.3-4.9c5.7,8.1,27.8-2.2,28-2.4l21.5-14.5c0.2-0.1-7.6-11.4-7.6-11.4l6.2,4.1l20.4-14.6l8.7,1.1l3.6-2.4l-3.8-5.7
	l26.1-17.5l-3-4.2l2.5-1.7l5.7,8.5l48.1-32.4l8,12c-5.4,4.9-6.4,13.4-1.5,19.4c4.4,5.3,12.1,6.7,18,3.2c7.1-4.2,9.1-13.4,4.6-20.1
	c-3.7-5.5-10.6-7.6-16.6-5.4l-10-14.9l-0.1,0.1l-3.9-5.8c0,0,26.1-17.5,50.1-33.8c0.1-0.1,3.9,5.7,3.8,5.7c-0.1-0.2-1.6,2.8-0.8,4
	c0.8,1.1,3.6,0.3,3.8,0.3l7.1-4.8c3-2.1,0-6.2-2.8-4.2c-0.2,0.1-3.6,2.4-3.6,2.4c0.1-0.1-3.9-5.6-3.8-5.7l27.5-18.5
	c0.1,0.2,0.2,0.5,0.4,0.7c1.9,2.7,5.2,3.7,7.5,2.2c2.3-1.5,2.7-5,0.8-7.7c-0.2-0.2-0.4-0.4-0.5-0.7c0.1,0,0.1-0.1,0.1-0.1
	S556.3,121.7,549.5,113.1z M253.3,359c3.4-2.3,8-1.4,10.3,2c2.3,3.4,1.4,8-2,10.3s-8,1.4-10.3-2C249,365.9,249.9,361.3,253.3,359z
	 M420.1,256.4c3.4-2.3,8-1.4,10.3,2c2.3,3.4,1.4,8-2,10.3c-3.4,2.3-8,1.4-10.3-2C415.8,263.3,416.7,258.7,420.1,256.4z M335.5,192
	l-8.1-11.9c0,0,42.3-28.4,43.1-29c3.3-2.2,8.8-4.1,13.1-4.7c1.5,5.9,5.3,22,5.3,22L335.5,192z M396.3,168.9l-6.1-23.2l40.9-0.1
	L396.3,168.9z"/>
</svg>
