<?xml version="1.0" encoding="utf-8"?>
<!-- Generator: Adobe Illustrator 21.1.0, SVG Export Plug-In . SVG Version: 6.00 Build 0)  -->
<svg version="1.1" id="share-square" xmlns="http://www.w3.org/2000/svg" xmlns:xlink="http://www.w3.org/1999/xlink" x="0px"
	 y="0px" viewBox="0 0 353.1 512" style="enable-background:new 0 0 353.1 512;" xml:space="preserve">
<path d="M353,394.8v-80.4l-3.1-10.1l-3,10.1v41.2L326.6,338v-40.8l-6.1-20.3l-6,20.3v30.3l-24.3-21.1v-33.5L280,239.5l-10,33.4v15.9
	l-44-38.2c0,0-6-97.9-12.3-97.9c-0.6,0-3.4,0-3.4,0l-0.3-7.8c-0.1-0.8-0.7-1.5-1.6-1.5h-5.9c0,0,0.1-12-0.2-12c-1.5,0-2-1.3-3.7-1.3
	c-0.2,0-5.5-65.1-5.5-65.3C190.4,46.2,177.3,0,176.6,0S161,46.3,158.8,64.8c0,0.1-4,65.3-4.2,65.3c-1.3,0-2.5,1.3-3.7,1.3
	c-0.3,0-0.1,12.1-0.1,12.1h-5.9c-0.9,0-1.6,0.7-1.6,1.6l-0.1,6.5c0,0-4.1,0-4.9,0c-7,0-11.6,101.1-11.3,100.4
	c-0.2,0-19.9,16.9-43.7,37.5v-16.4l-10-33.4L63,272.9v33.9c-8.3,7.2-16.6,14.3-24.3,21v-30.5l-6-20.3l-6.1,20.3v41
	c-8.5,7.3-15.6,13.5-20.3,17.5v-41.3l-3-10.1l-3.1,10.1v80.4h128.1V420l-66.5,59l2.5,22.6l81.6,2.5l10-11.3v15.5
	c0,2.1,1.7,3.8,3.8,3.8h33.9c2.1,0,3.8-1.7,3.8-3.8v-15.5l9.4,10.2l82.2-1.4l2.5-22.6l-66.6-60.2V395H353V394.8z M187,156.9h-21
	l-1-43c0,0,3.1-2,11.3-2c8.8,0,11.7,2,11.7,2L187,156.9z M165,108.9c0-14.9,5.2-28,11.5-28c6.4,0,11.5,13.1,11.5,28
	C182,105.9,171,105.9,165,108.9z"/>
</svg>
