<?xml version="1.0" encoding="utf-8"?>
<!-- Generator: Adobe Illustrator 21.1.0, SVG Export Plug-In . SVG Version: 6.00 Build 0)  -->
<svg version="1.1" id="Layer_2" xmlns="http://www.w3.org/2000/svg" xmlns:xlink="http://www.w3.org/1999/xlink" x="0px" y="0px"
	 viewBox="0 0 512 512" style="enable-background:new 0 0 512 512;" xml:space="preserve">
<g id="Layer_1">
	<path d="M512,194v-26.4l-256-24.2L0,167.6v298.5l256,46l256-46V218l-28-2.6v-24L512,194z M42,214.6l-42,3.9v-24l42-3.9V214.6z
		 M138,204.2l-58,5.5v-24l58-5.5V204.2z M227,196.6l-57,5.4v-24l57-5.4V196.6z M357,203.5l-74-6.9v-24l74,6.9V203.5z M452,212.4
		l-57-5.3v-24l57,5.3V212.4z"/>
	<polygon points="512,46.7 512,136.8 256,104.5 0,136.8 0,46.7 256,0.7 	"/>
</g>
</svg>
