<?xml version="1.0" encoding="utf-8"?>
<!-- Generator: Adobe Illustrator 21.1.0, SVG Export Plug-In . SVG Version: 6.00 Build 0)  -->
<svg version="1.1" id="Layer_1" xmlns="http://www.w3.org/2000/svg" xmlns:xlink="http://www.w3.org/1999/xlink" x="0px" y="0px"
	 viewBox="0 0 512 512" style="enable-background:new 0 0 512 512;" xml:space="preserve">
<path d="M502.7,459.1l-9.8-9.8l17.1-17.1l-38.5-38.5l-17.1,17.1l-16.6-16.6L470,362l-38.5-38.5l19.2-19.2l-38.5-38.5l-51.4,51.4
	l-76.5-76.5c54.5-70.2,61.3-158.4,12.2-207.5c-54.7-54.7-158-40-230.7,32.7s-87.4,176-32.7,230.7c49,49,137.2,42.3,207.3-12.1
	L458.8,503c12.1,12.1,31.7,12.1,43.8,0l0,0C514.8,490.8,514.8,471.2,502.7,459.1z M77.3,252.3c-30.5-30.5-16-94.3,32.3-142.6
	C157.8,61.4,221.7,47,252.1,77.5c30.5,30.5,16,94.3-32.3,142.6C171.6,268.3,107.7,282.8,77.3,252.3z"/>
</svg>
