<?xml version="1.0" encoding="utf-8"?>
<!-- Generator: Adobe Illustrator 22.0.1, SVG Export Plug-In . SVG Version: 6.00 Build 0)  -->
<svg version="1.1" id="Layer_3" xmlns="http://www.w3.org/2000/svg" xmlns:xlink="http://www.w3.org/1999/xlink" x="0px" y="0px"
	 viewBox="0 0 576 512" style="enable-background:new 0 0 576 512;" xml:space="preserve">
<style type="text/css">
	.st0{fill:#070707;}
</style>
<path class="st0" d="M0,80v352.8c0,8.3,6.7,15,15,15l545.9-0.1c8.3,0,15-6.7,15-15V80c0-8.3-6.7-15-15-15H15C6.7,65,0,71.7,0,80z
	 M300.8,133.7h52.1v52h-52.1V133.7z M300.8,229.6h52.1v52h-52.1V229.6z M220.7,133.7h52.1v52h-52.1V133.7z M220.7,229.6h52.1v52
	h-52.1V229.6z M112,377H59.9v-52H112V377z M112,281.6H59.9v-52H112V281.6z M112,185.7H59.9v-52H112V185.7z M192.3,377h-52.1v-52
	h52.1V377z M192.3,281.6h-52.1v-52h52.1V281.6z M192.3,185.7h-52.1v-52h52.1V185.7z M433.3,377H220.7v-52h212.7V377z M433.3,281.6
	h-52.1v-52h52.1V281.6z M433.3,185.7h-52.1v-52h52.1V185.7z M513.5,377h-52.1v-52h52.1V377z M513.5,281.6h-52.1v-52h52.1V281.6z
	 M513.5,185.7h-52.1v-52h52.1V185.7z"/>
</svg>
