<?xml version="1.0" encoding="utf-8"?>
<!-- Generator: Adobe Illustrator 22.0.1, SVG Export Plug-In . SVG Version: 6.00 Build 0)  -->
<svg version="1.1" id="Layer_1" xmlns="http://www.w3.org/2000/svg" xmlns:xlink="http://www.w3.org/1999/xlink" x="0px" y="0px"
	 viewBox="0 0 431.3 512" style="enable-background:new 0 0 431.3 512;" xml:space="preserve">
<style type="text/css">
	.st0{fill:#010101;}
</style>
<path class="st0" d="M354.7,229c-3.4,9.1-10.7,16.8-20.8,19.9c-17.5,5.4-37.4-3.8-42-21.2c-0.3-1.2-0.6-2.4-0.8-3.5
	c8.4,2,17.1,3,26,3c62.5,0,113.3-50.4,113.8-112.8c0.6-62.4-49.9-114-112.3-114.8c-55-0.7-101.2,37.6-112.6,89
	c-37.2,12.6-64,47.9-64,89.3c0,11.7,2.1,23,6.1,33.3L1,360.4l-0.6,43.3c-0.1,5.5,4.5,10,10,9.8l42.9-1.5l28.9-29.3
	c3.8-3.9,5.8-9.2,5.4-14.6l-1.1-14.6c-0.2-2.4,1.6-4.5,4-4.7l24.3-1.8c1.8-0.1,3.5-0.9,4.7-2.2l7.1-7.2c1.2-1.2,1.7-2.8,1.6-4.4
	l-1.9-26.4c-0.2-2.7,1.8-5,4.5-5.2l33.8-2.5l34.2-34.7c9.2,4,19.2,6.6,29.7,7.4c-3.7-6.4-6.7-13.2-9.1-20.4
	c-5.4-16.4-6.7-33.1-4.5-49.1c-6.8-6-11.1-14.7-11.1-24.5c0-8.1,3-15.6,7.9-21.3c5.1,12.4,12.4,23.8,21.3,33.5
	c0.1-0.3,0.2-0.6,0.3-0.8c-0.1,0.3-0.2,0.6-0.3,0.9l0,0c-5.4,17.9-5.5,37.5,0.8,56.6c4,12,10.1,22.8,17.9,31.8l-93.6,185.2
	l12.7,41.4c1.6,5.3,7.3,8.1,12.5,6.3l40.4-14.5l18.6-36.7c2.4-4.8,2.7-10.5,0.7-15.6l-5.5-13.6c-0.9-2.2,0.2-4.8,2.4-5.7l22.6-9.1
	c1.7-0.7,3-1.9,3.8-3.5l4.6-9.1c0.7-1.5,0.8-3.2,0.2-4.7l-9.9-24.6c-1-2.5,0.2-5.3,2.7-6.3l31.4-12.7l22.2-44
	c11.7,0.7,23.7-0.7,35.5-4.6c49.5-16.3,76.4-69.5,60.2-119C398.4,206.8,378.1,221.4,354.7,229z M42.1,376l-24.2,19.7l19.4-24.5
	L167,239.7l4.9,4.8L42.1,376z M213.1,155.7c0.6-0.7,1.3-1.4,2-2.1C214.4,154.3,213.7,155,213.1,155.7z M240.6,173.3
	c-0.3,0.6-0.6,1.3-0.9,1.9C240,174.6,240.3,173.9,240.6,173.3c-6.3-8-11.3-16.9-14.9-26.6c3.7-1.4,7.6-2.2,11.8-2.2
	c1.4,0,2.9,0.1,4.3,0.3c12.5-14.5,28.9-25.8,48.4-32.2c4.1-1.4,8.3-2.5,12.5-3.3C285.8,93,262.8,83,237.5,83c-4.6,0-9.2,0.3-13.6,1
	c12.3-40.2,49.7-69.5,93.9-69.5c54.1,0,98.2,44,98.2,98.2s-44.1,98.2-98.2,98.2c-8.8,0-17.4-1.2-25.6-3.4
	c3.5-13.8,15.4-20.9,21.6-22.9c14.3-4.7,29.4,0.9,37.6,12.6c19.4-7.8,35.6-22,45.8-40.1c-23.8-29.4-64.2-42.7-102.3-30.1
	C270.4,134.9,251.5,152.1,240.6,173.3L240.6,173.3z M285.2,301.4L202,466.1l-17,26.2l10.9-29.3l83.2-164.7l0.1-0.2l6.1,3.1
	L285.2,301.4z"/>
</svg>
