<?xml version="1.0" encoding="utf-8"?>
<!-- Generator: Adobe Illustrator 21.1.0, SVG Export Plug-In . SVG Version: 6.00 Build 0)  -->
<svg version="1.1" id="Layer_2" xmlns="http://www.w3.org/2000/svg" xmlns:xlink="http://www.w3.org/1999/xlink" x="0px" y="0px"
	 viewBox="0 0 512 512" style="enable-background:new 0 0 512 512;" xml:space="preserve">
<style type="text/css">
	.st0{fill-rule:evenodd;clip-rule:evenodd;}
</style>
<g>
	<path d="M337.5,1l-123,132l43.5,0.1l-88.3,88.1h68.4L166.4,302h147L313,403.6h52.2L365.2,302H512l-71.3-80.8h68l-86.7-88.1h41.8
		L337.5,1L337.5,1z"/>
	<path class="st0" d="M0,365c0,0,16.1,7,37.5,7c14.6,0,29.9-14,51.5-14c19.6,0,41.5,14,65,14c20.9,0,39.4-14,62.1-14
		c19.3,0,42.3,13.5,62.1,14v45.5h0c-20.5,0-40.9-14-60.9-14c-21.8,0-43.1,14-63.2,14c-23,0-44.5-14-63.8-14c-24.3,0-41.4,14-56.8,14
		c-18.9,0-33.4-7-33.4-7V365z M512,508c-13.9-4.1-30.2-10-48.2-10c-17.6,0-36.9,14-57.4,14c-20.7,0-42.6-14-65-14
		c-20.8,0-42,14-63.2,14c-20.5,0-40.9-14-60.9-14c-21.8,0-43.1,14-63.2,14c-23,0-44.5-14-63.8-14c-24.3,0-41.4,14-56.8,14
		C14.5,512,0,505,0,505v-45.5c0,0,16.1,7,37.5,7c14.6,0,29.9-14,51.5-14c19.6,0,41.5,14,65,14c20.9,0,39.4-14,62.1-14
		c19.6,0,43.2,14,63.2,14c21.2,0,42.5-14,63.2-14c22.6,0,44.7,14,65.6,14c21.8,0,42.4-14,60.9-14c16,0,30.4,5.8,43,9.9V508z"/>
</g>
</svg>
