<?xml version="1.0" encoding="utf-8"?>
<!-- Generator: Adobe Illustrator 21.1.0, SVG Export Plug-In . SVG Version: 6.00 Build 0)  -->
<svg version="1.1" id="Layer_1" focusable="false" xmlns="http://www.w3.org/2000/svg" xmlns:xlink="http://www.w3.org/1999/xlink"
	 x="0px" y="0px" viewBox="0 0 448 512" style="enable-background:new 0 0 448 512;" xml:space="preserve">
<path d="M448,409.7V480c0,0-13.2,0.3-14.8,0.3c-26.1,0-51.4-5.9-73.6-17.2c-24.1-12.2-42.7-29.9-53.7-51.1
	c-3.6-6.4-60.7-98.8-103.3-175.4L89.4,480H0l160.6-318.7l-0.8-1.4c-19.1-33.3-35-55.1-80.6-55.1H68.7V32h10.4
	c41.8,0,77.3,12.4,105.3,36.8c23.3,20.2,37.2,44.9,46.3,61.3c1.7,3,143.8,248.6,143.8,248.6c8.9,18.8,33.6,31,62.9,31H448z"/>
</svg>
