<?xml version="1.0" encoding="utf-8"?>
<!-- Generator: Adobe Illustrator 21.1.0, SVG Export Plug-In . SVG Version: 6.00 Build 0)  -->
<svg version="1.1" id="Layer_3" xmlns="http://www.w3.org/2000/svg" xmlns:xlink="http://www.w3.org/1999/xlink" x="0px" y="0px"
	 viewBox="0 0 442.3 512" style="enable-background:new 0 0 442.3 512;" xml:space="preserve">
<g>
	<path d="M437.9,94.1c-36.2-36.8-95.3-37.2-132-1c-36.8,36.2-37.3,95.2-1.1,132c1.5,1.6,4.7,4.5,4.8,4.4L442.3,98.9
		C442.4,98.8,439.5,95.6,437.9,94.1z"/>
	<path d="M279.9,470.4c0.4-0.5,0.7-1.1,0.9-1.8c0.6-2.1-0.1-4.2-1.5-4.6l-10.8-3.1c-1.5-0.4-3.1,0.9-3.7,3.1
		c-0.2,0.6-0.2,1.2-0.2,1.7c-8-1.8-17.3-3.2-27.4-4h0.8v-85.4c6.9-4.9,11.3-13,11.3-22.1c0-15-12.2-27.2-27.2-27.2
		c-4.8,0-9.3,1.2-13.2,3.4L39.5,229.8l127-93c0.1,0,0.1,0,0.2,0l62.8-13c7.7-1.6,9.7-7.7,4.3-13.4l-14.6-15.9
		c0.1-0.1,0.2-0.1,0.3-0.2c1.5-1,1.8-3,0.8-4.5l0.1,0.2l0.5-0.4l-0.1-0.2c1,1.5,3,1.8,4.5,0.8c1.4-1,1.8-2.9,0.9-4.3l2.6-2.4l0,0
		l42,42c5.9-15.1,14.8-28.9,26.6-40.7c12-12,25.9-20.8,40.7-26.5L293,13c-17.1-17.1-44.7-17.3-62.1-0.8c-3.2-1.2-6.6-2.6-10.3-4.3
		c-10.6-4.7-27.1-4.9-38.4,6c-12.4,12-18.4,29.2-17.5,49.7c0.5,10.4,2.6,19,4,23.8l1.1,4.7l-12.1,34.1c-0.1,0.4-0.2,0.7-0.3,1
		L28.9,219.6c-2.9-1.8-6.3-2.9-10-2.9c-10.4,0-18.8,8.4-18.8,18.8c0,10.4,8.4,18.8,18.8,18.8c1.2,0,2.3-0.1,3.4-0.3l172.6,102.7
		c0.7,7.8,4.6,14.6,10.5,19.1v30.1l-0.1-0.1v4.7H203V410c0-1.8-1.5-3.3-3.4-3.3c-1.8,0-3.3,1.5-3.3,3.3v13.7c0,1.9,1.5,3.3,3.3,3.3
		c1.9,0,3.4-1.5,3.4-3.3v-0.5h2.3v35.6l-28.8,5.3c-23.6,4-39.4,11.4-39.4,19.9c0,0,0,1.3,0,3.2c0,0,0,1.4,0,3.7V503c0,5,4.1,9,9,9
		h139.6c5,0,9-4,9-9v-12.3c0-2.2,0-3.7,0-3.7c0-1.9,0-3.2,0-3.2C294.8,478.8,289.3,474.2,279.9,470.4z M202.6,109.3
		c-0.6,0.7-1.2,1.3-1.9,1.8c-1.9,1.4-4.2,2.2-6.7,2.2c-4.1,0-7.8-2.2-9.7-5.5c-1-1.7-1.7-3.7-1.7-5.9c0-2.1,0.6-4.1,1.7-5.9
		c0.3-0.5,0.6-1,1-1.4s0.8-0.9,1.2-1.2c2-1.8,4.6-2.9,7.5-2.9c6.3,0,11.4,5.1,11.4,11.4C205.4,104.7,204.3,107.3,202.6,109.3z
		 M185.9,17.8c9-8.7,23.1-9.1,32.4-5c2.3,1,5.2,2.3,8.3,3.5l-1,1c-15.5,15.5-17.2,39.6-5,57l-0.1-0.1l-1.6,1.1l0.1,0.2
		c-1-1.5-3-1.8-4.5-0.8c-1.4,1-1.8,2.9-0.9,4.3l-0.5,0.4l0.1,0.2c-1-1.5-3-1.8-4.5-0.8c-1,0.7-1.5,1.8-1.4,2.9l-14.8-16.1
		c-5.3-5.8-11.9-4.5-14.5,3l-5.1,14.2C169.7,69.3,164.9,38,185.9,17.8z M18.9,244.6c-5.1,0-9.2-4.1-9.2-9.2c0-5.1,4.1-9.2,9.2-9.2
		s9.2,4.1,9.2,9.2C28.2,240.5,24,244.6,18.9,244.6z M196.6,344.8L33.3,247.6c1.6-1.9,2.8-4.1,3.6-6.5l163.3,97
		C198.7,340.1,197.5,342.4,196.6,344.8z M222,363.6c-5.1,0-9.2-4.1-9.2-9.2s4.1-9.2,9.2-9.2s9.2,4.1,9.2,9.2S227.1,363.6,222,363.6z
		"/>
</g>
</svg>
