<?xml version="1.0" encoding="utf-8"?>
<!-- Generator: Adobe Illustrator 21.1.0, SVG Export Plug-In . SVG Version: 6.00 Build 0)  -->
<svg version="1.1" id="Layer_3" xmlns="http://www.w3.org/2000/svg" xmlns:xlink="http://www.w3.org/1999/xlink" x="0px" y="0px"
	 viewBox="0 0 349.1 512" style="enable-background:new 0 0 349.1 512;" xml:space="preserve">
<g>
	<path d="M233.3,360.1c0-24.9,0-75.4,0-75.4h-8.1v75.5c-4.7,1.7-8.1,6.2-8.1,11.5c0,6.8,5.5,12.3,12.3,12.3
		c6.8,0,12.3-5.5,12.3-12.3C241.8,366.3,238.2,361.7,233.3,360.1z"/>
	<path d="M190.1,258.2h159L305.2-0.5H43.9L0,258.2h162v200.3c-22.7,2.4-48.4,11.3-92.7,26.8c0,1,0,2.4,0,4.1h47.3v3.3H69.3v18.8
		h210.6v-18.8h-44.4v-3.3h44.4c0-1.5,0-2.9,0-4.1c-42.4-14.7-67.7-23.5-89.7-26.4L190.1,258.2L190.1,258.2z"/>
</g>
</svg>
