<?xml version="1.0" encoding="utf-8"?>
<!-- Generator: Adobe Illustrator 21.1.0, SVG Export Plug-In . SVG Version: 6.00 Build 0)  -->
<svg version="1.1" id="Layer_2" xmlns="http://www.w3.org/2000/svg" xmlns:xlink="http://www.w3.org/1999/xlink" x="0px" y="0px"
	 viewBox="0 0 509.1 512" style="enable-background:new 0 0 509.1 512;" xml:space="preserve">
<g>
	<path d="M436,387L436,260H453v-52H56v52h17.1v14L73,387H37v52h435v-52H436z M135.1,260H176v126.8h-40.9V260z M233,260h42v126.8h-42
		V260z M332,260h42v126.8h-42V260z"/>
	<polygon points="0,460 0,512 509.1,512 509,460 	"/>
	<path d="M254.6,0L0,110.3l0,37.3c0,5.2,4.2,9.4,9.4,9.4H37v18h435v-18h27.6c5.2,0,9.4-4.2,9.4-9.4l0-37.3L254.6,0z M254.5,126.8
		c-15.5,0-28.1-12.6-28.1-28.1c0-15.5,12.6-28.1,28.1-28.1c15.5,0,28.1,12.6,28.1,28.1C282.6,114.2,270,126.8,254.5,126.8z"/>
</g>
</svg>
