<?xml version="1.0" encoding="utf-8"?>
<!-- Generator: Adobe Illustrator 21.1.0, SVG Export Plug-In . SVG Version: 6.00 Build 0)  -->
<svg version="1.1" id="Layer_1" xmlns="http://www.w3.org/2000/svg" xmlns:xlink="http://www.w3.org/1999/xlink" x="0px" y="0px"
	 viewBox="0 0 512 512" style="enable-background:new 0 0 512 512;" xml:space="preserve">
<style type="text/css">
	.st0{fill:#010101;}
</style>
<g>
	<path class="st0" d="M211,242.2c-44.1,4.5-70.7-21.5-67.9-54.4c2.4-28.2,24.9-46,52.8-45.8c30.9,0.3,42.3,20.4,46.5,34.1
		c2.3,7.4,9.2,12.3,16.9,12.1h0c11.1-0.4,18.9-11.1,15.9-21.7c-4.1-14.2-13.6-32.6-35.5-44.8c-6.9-3.9-14.6-6.4-23.3-10.2
		c19.1,0.3,35.4,4.1,49.8,14.7c8.9,6.6,18.8,5.8,24.6-2c5.7-7.7,4-17.2-4.6-23.8c-13.9-10.7-29.7-17-46.8-19.5
		c-10.5-1.6-21.3-1.8-32.5-2.7c5.9-3.2,41.9-5.5,59.5-6.7c9.6-0.6,17.1-6.6,17.5-15.6c0.4-9.2-6.8-16.8-16.5-17.2
		C226,37.5,186.5,44.6,151.1,68c12.4-16.2,35.7-29.6,60.8-35.4c10.5-2.4,16.2-10.3,14.3-19.6c-1.9-9.3-10.5-14.9-20.8-12.4
		c-45.8,11-81,35.7-101.7,79.2c-8.9,18.6-18.7,36.8-27.9,55.3C61.2,164.5,27,189.4,4.3,193.5c-3.8,0.7-4.3,2.8-4.3,6.3
		c0,17,2.1,33.7,7.3,49.9c6.6,20.7,17.4,38.4,36.5,50c4.6,2.8,7.7,2.8,12.3-0.7c8.3-6.4,17.1-12.5,26.3-17.5
		c14.2-7.7,29-12.4,45.6-7.3c32.3,9.9,64.5,8.8,96.6-1.6c3.6-1.2,7.4-2.6,11.1-4.3c10.5-4.9,12.3-19,3.5-26.5l0,0
		c-4.8-4-12.1-5.5-17.8-2.9C217.3,240.7,213.2,241.9,211,242.2z"/>
	<path class="st0" d="M299.3,270c43.9-6.1,71.4,18.9,69.8,51.8c-1.4,28.3-23.2,46.9-51.1,47.7c-30.9,0.9-43.1-18.8-47.8-32.3
		c-2.5-7.3-9.7-12-17.4-11.4h0c-11,0.8-18.5,11.8-15,22.3c4.6,14.1,14.8,32.1,37.1,43.4c7.1,3.6,14.8,5.9,23.6,9.3
		c-19.1,0.4-35.6-2.8-50.3-12.8c-9.1-6.2-19-5.1-24.5,2.9c-5.4,8-3.4,17.3,5.5,23.6c14.2,10.1,30.3,15.9,47.5,17.8
		c10.6,1.2,21.3,1,32.5,1.5c-5.8,3.4-41.7,7.1-59.2,8.9c-9.5,1-16.9,7.2-16.9,16.2c-0.1,9.2,7.4,16.6,17.1,16.5
		c41.6-0.2,80.8-8.8,115.4-33.5c-11.8,16.7-34.6,30.9-59.4,37.6c-10.4,2.8-15.8,10.9-13.6,20.1c2.3,9.3,11,14.5,21.2,11.6
		c45.4-12.7,79.6-38.7,98.7-82.9c8.2-18.9,17.3-37.5,25.8-56.3c13.5-29.9,46.8-56,69.3-61c3.7-0.8,4.2-3,4-6.5
		c-0.6-17-3.4-33.6-9.1-49.6c-7.3-20.4-18.8-37.7-38.4-48.6c-4.7-2.6-7.8-2.5-12.2,1.1c-8.1,6.7-16.6,13.1-25.7,18.5
		c-13.9,8.3-28.6,13.5-45.3,9c-32.7-8.7-64.8-6.4-96.5,5.2c-3.5,1.3-7.2,2.9-10.9,4.7c-10.3,5.3-11.6,19.5-2.5,26.6l0,0
		c4.9,3.8,12.3,5,17.9,2.2C293,271.7,297.1,270.4,299.3,270z"/>
</g>
</svg>
