<?xml version="1.0" encoding="utf-8"?>
<!-- Generator: Adobe Illustrator 22.0.1, SVG Export Plug-In . SVG Version: 6.00 Build 0)  -->
<svg version="1.1" id="Layer_1" xmlns="http://www.w3.org/2000/svg" xmlns:xlink="http://www.w3.org/1999/xlink" x="0px" y="0px"
	 viewBox="0 0 640 512" style="enable-background:new 0 0 640 512;" xml:space="preserve">
<path d="M581.3,0H59.5c-17,0-30.8,13.8-30.9,30.9v362.6c0,17.1,13.8,30.9,30.9,30.9h521.6c17.1,0,30.9-13.8,30.9-30.9V30.9
	C612.1,13.8,598.3,0,581.3,0z M590.6,386.2c0,9.3-7.6,16.9-17,16.9h-507c-9.3,0-17-7.6-17-16.9v-348c0-9.3,7.6-16.9,17-16.9h507.1
	c9.3,0,17,7.6,17,16.9L590.6,386.2L590.6,386.2z M568.2,34.5H72.1c-4.3,0-7.8,3.5-7.8,7.9v339.7c0,4.3,3.5,7.9,7.8,7.9h496.2
	c4.3,0,7.8-3.5,7.8-7.9V42.4C576,38.1,572.6,34.5,568.2,34.5z M0,455.5v36.3c0,9.8,5.6,15.5,17,17.2c11.3,1.7,24.8,2.7,40.6,2.7
	h524.3c15.7,0,29.3-0.9,40.6-2.7c11.4-1.7,17-7.6,17-17.2v-36.3H0z M74.7,491.7c-2,1.4-3.8,1.6-5.6,0.7c-1.2-0.5-2.1-1.5-2.7-2.8
	s-0.6-2.7,0-4.2s1.5-2.6,2.7-3.1c1.3-0.6,2.3-0.9,3.6-0.7c1.2,0.1,2.2,0.7,3.1,1.7c0.8,0.9,1.3,2.1,1.3,3.3
	C77.4,488.7,76.7,490.4,74.7,491.7z M92.5,491.7c-2,1.4-3.8,1.6-5.6,0.7c-1.2-0.5-2.1-1.5-2.7-2.8s-0.6-2.7,0-4.2s1.4-2.6,2.7-3.1
	c1.3-0.6,2.3-0.9,3.6-0.7c1.2,0.1,2.2,0.7,3.1,1.7c0.9,0.9,1.4,2.1,1.3,3.3C95.2,488.7,94.5,490.4,92.5,491.7z M348.5,491.8h-58
	c-3.6,0-7.8-3.5-7.8-7.2c0-3.6,3.1-6.7,6.7-6.7h60.4c4,0,6.7,3,6.7,6.7C356.7,488.2,352.4,491.8,348.5,491.8z"/>
</svg>
