<?xml version="1.0" encoding="utf-8"?>
<!-- Generator: Adobe Illustrator 21.1.0, SVG Export Plug-In . SVG Version: 6.00 Build 0)  -->
<svg version="1.1" id="Layer_6" xmlns="http://www.w3.org/2000/svg" xmlns:xlink="http://www.w3.org/1999/xlink" x="0px" y="0px"
	 viewBox="0 0 512 512" style="enable-background:new 0 0 512 512;" xml:space="preserve">
<g>
	<path d="M256,0C114.7,0,0,114.7,0,256s114.7,256,256,256c141.4,0,256-114.7,256-256S397.4,0,256,0z M357.1,124.9l26.2,26.2
		L342.4,192l40.9,40.9l-26.2,26.2L290,192L357.1,124.9z M128.3,151.1l26.2-26.2l67.1,67.1l-67.1,67.1l-26.2-26.2l40.9-40.9
		L128.3,151.1z M395,309.6c0,31-14.7,60.3-41.4,82.5c-26.1,21.7-60,33.7-95.6,33.7c-35.6,0-69.5-12-95.6-33.7
		c-26.7-22.3-41.4-51.6-41.4-82.5v-16.7H395V309.6z M187.4,368.4c19.4,15.4,44.4,23.9,70.5,23.9c26.1,0,51.2-8.5,70.5-23.9
		c14.8-11.8,24.8-26.4,28.9-42.1H158.5C162.6,342,172.6,356.6,187.4,368.4z"/>
</g>
</svg>
