<?xml version="1.0" encoding="utf-8"?>
<!-- Generator: Adobe Illustrator 21.1.0, SVG Export Plug-In . SVG Version: 6.00 Build 0)  -->
<svg version="1.1" id="Layer_1" xmlns="http://www.w3.org/2000/svg" xmlns:xlink="http://www.w3.org/1999/xlink" x="0px" y="0px"
	 viewBox="0 0 467.2 512" style="enable-background:new 0 0 467.2 512;" xml:space="preserve">
<path d="M0,464.9c0,26,21.8,47.1,48.7,47.1h369.8c26.9,0,48.7-21.1,48.7-47.1V70.6H0V464.9z M425.8,89.4c9.4,0,17,7.4,17,16.5
	s-7.6,16.5-17,16.5s-17-7.4-17-16.5S416.4,89.4,425.8,89.4z M377.2,89.4c9.4,0,17,7.4,17,16.5s-7.6,16.5-17,16.5s-17-7.4-17-16.5
	C360.1,96.8,367.8,89.4,377.2,89.4z M328.5,89.4c9.4,0,17,7.4,17,16.5s-7.6,16.5-17,16.5s-17-7.4-17-16.5S319.1,89.4,328.5,89.4z
	 M231.5,176.1c75.6,0,136.9,60.7,136.9,136.9c0,75.2-61.3,136.9-136.9,136.9c-75.3,0-136.9-61.7-136.9-136.9
	C94.5,236.7,156.1,176.1,231.5,176.1z M24.4,89.4h77.9v33H24.4V89.4z M440.4,0H26.8C12,0,0,11.6,0,25.9C0,36,0,51.8,0,51.8h467.2
	c0,0,0-18.5,0-25.9C467.2,11.6,455.2,0,440.4,0z M65.7,42.3c-12.1,0-21.9-3.6-21.9-8.1c0-3.6,6.7-6.7,15.8-7.8
	c0.2-2.2,0.1-12.4,0.1-12.4h11.9c0,0-0.1,9.6-0.2,12.3c9.4,0.9,16.2,4.1,16.2,7.8C87.6,38.7,77.8,42.3,65.7,42.3z M220.4,295
	c5.7,0,10.4-4.6,10.4-10.2s-4.7-10.2-10.4-10.2s-10.4,4.6-10.4,10.2C210,290.4,214.7,295,220.4,295z M215.2,279.6l2.1,1
	c0,0-1.5,1.4-2.1,3.1c-0.7,1.8-1.1,4.1-1.1,4.1s-1.1-2-1.1-3.9C213,282.3,215.2,279.6,215.2,279.6z M232.5,422.6
	C293,423.4,339,374.5,339,314.7c0-60.6-46-109.6-107.3-109.6h-0.9c-60.5,0-107.3,49-107.3,108.7
	C123.4,374.5,170.3,422.6,232.5,422.6z M274.9,241.5c5,0,9,3.9,9,8.8s-4,8.8-9,8.8s-9-3.9-9-8.8C265.9,245.4,270,241.5,274.9,241.5z
	 M245.8,229h1.1c0,0-0.6,4.9,1.1,12.4c1.9,8.9,15.7,17,14.8,29c-0.7,9.4-3.2,17.6-3.2,17.6h-1.1c0,0,0.5-10.5-3.2-19.7
	c-3.4-8.5-9.4-8.6-12.7-23.8C241,236.7,245.8,229,245.8,229z M240.2,256.9h0.6c0,0-0.3,2.7,0.5,6.7c1,4.8,8.1,9.3,7.6,15.8
	c-0.3,5.1-1.6,9.6-1.6,9.6h-0.6c0,0,0.3-5.7-1.6-10.7c-1.8-4.6-4.8-4.7-6.5-12.9C237.7,261.1,240.2,256.9,240.2,256.9z M226.8,241.5
	c3.5,0,6.3,2.8,6.3,6.2c0,3.4-2.8,6.2-6.3,6.2s-6.3-2.8-6.3-6.2C220.5,244.3,223.3,241.5,226.8,241.5z M220.5,272.4
	c7,0,12.7,5.6,12.7,12.4c0,6.8-5.7,12.4-12.7,12.4s-12.7-5.6-12.7-12.4C207.8,278,213.4,272.4,220.5,272.4z M269.3,311.4
	c23.4,0,30.3-8.8,40.7-15.5c2.1,7.2,3.3,14.8,3.3,22.6c0,44.8-37.4,81.1-83.5,81.1s-83.5-36.3-83.5-81.1c0-5,0.5-9.9,1.4-14.6
	C154.7,266.1,228.3,311.4,269.3,311.4z M226.8,252.8c2.9,0,5.2-2.3,5.2-5.1c0-2.8-2.3-5.1-5.2-5.1s-5.2,2.3-5.2,5.1
	C221.6,250.5,223.9,252.8,226.8,252.8z M224.1,245.1l1.1,0.5c0,0-0.7,0.7-1.1,1.6c-0.3,0.9-0.5,2.1-0.5,2.1s-0.5-1-0.5-1.9
	C223.1,246.4,224.1,245.1,224.1,245.1z M274.9,257.4c4.1,0,7.4-3.2,7.4-7.2c0-4-3.3-7.2-7.4-7.2c-4.1,0-7.4,3.2-7.4,7.2
	C267.5,254.2,270.8,257.4,274.9,257.4z M271.2,246.6l1.5,0.7c0,0-1,1-1.5,2.2c-0.5,1.3-0.8,2.9-0.8,2.9s-0.7-1.4-0.7-2.8
	C269.7,248.5,271.2,246.6,271.2,246.6z"/>
</svg>
