<?xml version="1.0" encoding="utf-8"?>
<!-- Generator: Adobe Illustrator 21.1.0, SVG Export Plug-In . SVG Version: 6.00 Build 0)  -->
<svg version="1.1" id="fill" xmlns="http://www.w3.org/2000/svg" xmlns:xlink="http://www.w3.org/1999/xlink" x="0px" y="0px"
	 viewBox="0 0 550 512" style="enable-background:new 0 0 550 512;" xml:space="preserve">
<g>
	<path d="M437.5,386.4c-21.9,0.2-39.5,18-39.3,39.8c0.1,21.9,17.8,39.5,39.7,39.4c21.9-0.1,39.6-17.8,39.6-39.6v-0.5
		C477.2,403.8,459.3,386.2,437.5,386.4z M463.6,426.1c0,14.3-11.5,25.7-25.7,25.8c-14.3,0-25.8-11.4-25.8-25.7
		c-0.1-14.3,11.4-25.8,25.6-25.8C451.8,400.3,463.4,411.7,463.6,426.1L463.6,426.1L463.6,426.1z"/>
	<path d="M437.7,407.7c-10.1,0.1-18.3,8.4-18.3,18.5c0,10.1,8.3,18.3,18.4,18.3c10.1,0,18.3-8.2,18.3-18.4V426
		C456.1,415.8,447.8,407.6,437.7,407.7z M445.4,426.1c0,4.1-3.3,7.5-7.5,7.5s-7.5-3.3-7.5-7.5c0-4.1,3.3-7.5,7.5-7.5
		C442,418.5,445.3,421.8,445.4,426.1L445.4,426.1z"/>
	<path d="M356.4,386.4c-21.9,0.2-39.5,18-39.3,39.8c0.1,21.9,17.8,39.5,39.7,39.4c21.9-0.1,39.6-17.8,39.6-39.6v-0.5
		C396.1,403.8,378.3,386.2,356.4,386.4z M382.5,426.1c0,14.3-11.5,25.7-25.7,25.8c-14.3,0-25.8-11.4-25.8-25.7
		c-0.1-14.3,11.4-25.8,25.6-25.8C370.7,400.3,382.3,411.7,382.5,426.1L382.5,426.1L382.5,426.1z"/>
	<path d="M356.6,407.7c-10.1,0.1-18.3,8.4-18.3,18.5c0,10.1,8.3,18.3,18.4,18.3c10.1,0,18.3-8.2,18.3-18.4V426
		C375,415.8,366.7,407.6,356.6,407.7z M364.3,426.1c0,4.1-3.3,7.5-7.5,7.5c-4.2,0-7.5-3.3-7.5-7.5c0-4.1,3.3-7.5,7.5-7.5
		C360.9,418.5,364.2,421.8,364.3,426.1L364.3,426.1z"/>
	<path d="M274.2,386.4c-21.9,0.2-39.5,18-39.3,39.8c0.1,21.9,17.8,39.5,39.7,39.4c21.9-0.1,39.6-17.8,39.6-39.6v-0.5
		C313.9,403.8,296.1,386.2,274.2,386.4z M300.2,426.1c0,14.3-11.5,25.7-25.7,25.8c-14.3,0-25.8-11.4-25.8-25.7
		c-0.1-14.3,11.4-25.8,25.6-25.8C288.5,400.3,300.1,411.7,300.2,426.1L300.2,426.1L300.2,426.1z"/>
	<path d="M274.4,407.7c-10.1,0.1-18.3,8.4-18.3,18.5c0,10.1,8.3,18.3,18.4,18.3s18.3-8.2,18.3-18.4V426
		C292.8,415.8,284.5,407.6,274.4,407.7z M282.1,426.1c0,4.1-3.3,7.5-7.5,7.5s-7.5-3.3-7.5-7.5c0-4.1,3.3-7.5,7.5-7.5
		C278.6,418.5,282,421.8,282.1,426.1L282.1,426.1z"/>
	<path d="M191.3,386.4c-21.9,0.2-39.5,18-39.3,39.8c0.1,21.9,17.8,39.5,39.7,39.4s39.6-17.8,39.6-39.6v-0.5
		C230.8,403.8,213,386.2,191.3,386.4z M217.3,426.1c0,14.3-11.5,25.7-25.7,25.8c-14.3,0-25.8-11.4-25.8-25.7
		c-0.1-14.3,11.4-25.8,25.6-25.8C205.5,400.3,217.1,411.7,217.3,426.1L217.3,426.1L217.3,426.1z"/>
	<path d="M191.5,407.7c-10.1,0.1-18.3,8.4-18.3,18.5c0,10.1,8.3,18.3,18.4,18.3c10.1,0,18.3-8.2,18.3-18.4V426
		C209.9,415.8,201.6,407.6,191.5,407.7z M199,426.1c0,4.1-3.3,7.5-7.5,7.5c-4.2,0-7.5-3.3-7.5-7.5c0-4.1,3.3-7.5,7.5-7.5
		C195.6,418.5,199,421.8,199,426.1L199,426.1z"/>
	<path d="M109.6,386.4c-21.9,0.2-39.5,18-39.3,39.8c0.1,21.9,17.8,39.5,39.7,39.4s39.6-17.8,39.6-39.6v-0.5
		C149.4,403.8,131.5,386.2,109.6,386.4z M135.6,426.1c0,14.3-11.5,25.7-25.7,25.8c-14.3,0-25.8-11.4-25.8-25.7
		c-0.1-14.3,11.4-25.8,25.6-25.8C123.9,400.3,135.4,411.7,135.6,426.1L135.6,426.1L135.6,426.1z"/>
	<path d="M109.8,407.7c-10.1,0.1-18.3,8.4-18.3,18.5c0,10.1,8.3,18.3,18.4,18.3s18.3-8.2,18.3-18.4V426
		C128.2,415.8,119.9,407.6,109.8,407.7z M117.5,426.1c0,4.1-3.3,7.5-7.5,7.5c-4.2,0-7.5-3.3-7.5-7.5c0-4.1,3.3-7.5,7.5-7.5
		C114,418.5,117.4,421.8,117.5,426.1L117.5,426.1z"/>
	<path d="M45.3,394.4c-10.1,0.1-18.3,8.4-18.3,18.5c0,10.1,8.3,18.3,18.4,18.3s18.3-8.2,18.3-18.4v-0.2
		C63.7,402.5,55.4,394.4,45.3,394.4z M53,412.8c0,4.1-3.3,7.5-7.5,7.5s-7.5-3.3-7.5-7.5c0-4.1,3.3-7.5,7.5-7.5
		C49.6,405.3,52.9,408.5,53,412.8L53,412.8z"/>
	<path d="M499.7,394.4c-10.1,0.1-18.3,8.4-18.3,18.5c0,10.1,8.3,18.3,18.4,18.3s18.3-8.2,18.3-18.4v-0.2
		C518.2,402.5,509.8,394.4,499.7,394.4z M507.4,412.8c0,4.1-3.3,7.5-7.5,7.5s-7.5-3.3-7.5-7.5c0-4.1,3.3-7.5,7.5-7.5
		C504,405.3,507.4,408.5,507.4,412.8L507.4,412.8z"/>
	<path d="M171.9,471.2v17.3h27.7v-17.3H171.9z M255.3,471.2v17.3h27.7v-17.3H255.3z M340.7,471.2v17.3h29.5v-17.3H340.7z
		 M446.3,471.3h-18.4v17.3h16.5c1.7,0,4.2-0.5,7.4-1.6v-17.8C449.1,470.3,447.2,471.1,446.3,471.3z M518.8,434.6
		c-3.8,3-8.6,6.1-15.1,9.1c-0.8,0.5-1.7,0.8-2.6,1.3l4.1,16.4c4.4-2.6,8.9-5.1,13.2-7.8c2.6-1.6,5.1-3.3,7.4-5.1L518.8,434.6z
		 M542.6,392.8l-16.8-0.7c2.7,11.6,5.2,21.1,2.3,29.7l8.4,16.4C547.3,425,549.2,409.4,542.6,392.8z M488.2,451.1
		c-8,4-15.8,7.9-22.4,11.1v0.7l4,16.6c7-3.2,14.7-7.1,22.7-11.4L488.2,451.1z M384.3,471.2v17.3h29.5v-17.3H384.3z M297.1,471.2
		v17.3h29.5v-17.3H297.1z M213.7,471.2v17.3h27.6v-17.3H213.7z M55.5,450.1L50,466.5c8.7,4.8,17.3,9.1,24.8,12.6l4-17.4
		C71.9,458.2,63.9,454.2,55.5,450.1z M134,471.2v17.3h23.9v-17.3H134z M99.2,471.2c-1.1-0.3-3.7-1.4-7.5-3.1l-3.9,16.6
		c5.9,2.3,10.5,3.6,13.2,3.7h18.9v-17.3H99.2L99.2,471.2z M19.8,392.1l-16.9,0.7c-5.7,14.3-5.1,27.7,2.2,39.6l11.7-13.2
		C15.2,411.2,17.4,402.5,19.8,392.1z M41.9,443.5c-8-3.9-13.7-7.6-17.8-11.6l-10,11.5c3.7,3.4,8,6.8,13,9.8
		c3.4,2.1,6.9,4.2,10.4,6.2l5.2-15.4C42.6,443.8,42.2,443.7,41.9,443.5z"/>
	<path d="M549.6,366.7l-13.9-43.2c0-2-1.6-3.6-3.6-3.5l-100.7-2.1v-18.5c3-1.3,5.1-4.2,5.1-7.6v-11.6c0-4.9-3.4-9.1-8.2-10.2
		l-12.5-2.8l3.8-9.4l28.7,11.2l3.1-7.7l19.1,7.5l0,0l0,0l0,0c0.1,0,0.2,0,0.3,0c2,0,6.2-6.3,9.7-14.6c3.6-8.8,5.1-16.4,3.3-17.3l0,0
		L129.1,97.1l0,0l0,0l0,0l0,0c-1.9-0.6-6.3,5.9-9.9,14.7c-3.6,8.9-5.1,16.7-3.3,17.4c0.1,0.1,0.3,0.1,0.5,0l103.5,40.8l-3.1,7.7
		l98.7,38.9L299.3,247l-75.5,7.3c-5.7,0.5-9.4,6.2-7.6,11.7l5,14.8c2,6,7.5,10.1,13.8,10.4l9,0.5v21.2l-105.5,4.5L7.8,357.1
		c-9.8,4-13.1,23.5-0.1,23.5l530.4,1C545.9,381.6,551.6,374.2,549.6,366.7z M124.8,114.1c-2.5,6.1-5.6,10.6-6.9,10
		c-1.3-0.5-0.3-5.9,2.3-11.9s5.6-10.6,6.9-10C128.3,102.7,127.3,108,124.8,114.1z"/>
	<path d="M512,165.8L512,165.8L158.1,26.3c-0.1-0.1-0.2-0.2-0.4-0.3c-1.9-0.8-6.3,5.8-10,14.7c-3.6,8.9-5.1,16.7-3.3,17.4l0,0
		l354.4,139.7l0,0l0,0l0,0c0.1,0,0.2,0,0.3,0c2,0,6.2-6.3,9.7-14.7C512.5,174.3,513.9,166.6,512,165.8z M153.5,43.1
		c-2.5,6.1-5.6,10.6-6.9,10c-1.3-0.5-0.3-5.9,2.3-11.9s5.6-10.6,6.9-10C157,31.6,156,36.9,153.5,43.1z"/>
	<path d="M498,200.9L498,200.9L498,200.9L498,200.9L498,200.9L143.7,61.1l0,0l0,0l-0.2-0.1l0,0c-2-0.3-6.2,6.1-9.8,14.7
		c-3.7,8.9-5.1,16.7-3.3,17.4c0.1,0,0.3,0.1,0.5,0l354,139.7l0,0l0,0l0,0l0,0c1.9,0.6,6.3-5.9,9.9-14.6
		C498.4,209.5,499.8,201.7,498,200.9z M139.3,78.2c-2.5,6.1-5.6,10.6-6.9,10s-0.3-5.9,2.3-11.9c2.5-6.1,5.6-10.6,6.9-10
		C142.8,66.7,141.8,72.1,139.3,78.2z"/>
</g>
</svg>
