<?xml version="1.0" encoding="utf-8"?>
<!-- Generator: Adobe Illustrator 21.1.0, SVG Export Plug-In . SVG Version: 6.00 Build 0)  -->
<svg version="1.1" id="Layer_1" xmlns="http://www.w3.org/2000/svg" xmlns:xlink="http://www.w3.org/1999/xlink" x="0px" y="0px"
	 viewBox="0 0 524.3 512" style="enable-background:new 0 0 524.3 512;" xml:space="preserve">
<g>
	<path d="M510,13.8c-13.5,9.7-47.3,25.1-108.9,30c-12.8,1-26.3,0.3-40.3-1.2c-15.2-1.7-31-4.5-47.3-7.3c-17.2-3-35-6.1-53.2-8.2
		c-52.8-5.9-109-2.8-164.2,38c-27.9,20.6-47,47.6-56.7,80.2c-7.7,25.9-9.6,55.4-5.6,87.6c5,40,20,78,28,96.2
		C35.1,365.5,20.2,402.3,12,430.2c-7.6,25.8-10.7,47.4-11.9,61c-0.5,5,1.2,10.1,4.6,13.8c3.4,3.8,8.3,5.9,13.4,5.9h12.3
		c5.8,0,10.6-4.5,11-10.3c0.7-10.6,3-32.5,11.1-59.7c6.7-22.5,18.5-51.7,38.7-81.2c12.6,8.6,29.7,18.2,50.4,24.8
		c11.1,3.6,22.2,6,33.4,7.2c15.9,1.8,31.9,1.2,47.7-1.7c33.5-6.2,66.6-23.1,98.1-50.1C446.4,232.8,483.3,118.3,503,56.8
		c5.3-16.3,9.4-29.2,13.6-36.8c0.9-1.6,7.5-17.1,7.7-17.5C523.9,2.8,512.7,11.8,510,13.8z M312.3,209.2l-0.3,0.6l-9.1,11.4
		l-76.4,76.4L149,220.1c-10.3-10.3-15.9-24-15.9-38.5c0-14.5,5.7-28.2,15.9-38.5c10.3-10.2,24-15.9,38.5-15.9
		c14.5,0,28.2,5.7,38.5,15.9l0.5,0.5l0.5-0.5c10.3-10.2,23.9-15.9,38.5-15.9s28.2,5.7,38.5,15.9
		C321.4,160.7,324.8,187.8,312.3,209.2z"/>
</g>
</svg>
