<?xml version="1.0" encoding="utf-8"?>
<!-- Generator: Adobe Illustrator 22.0.1, SVG Export Plug-In . SVG Version: 6.00 Build 0)  -->
<svg version="1.1" id="Layer_2" xmlns="http://www.w3.org/2000/svg" xmlns:xlink="http://www.w3.org/1999/xlink" x="0px" y="0px"
	 viewBox="0 0 512 512" style="enable-background:new 0 0 512 512;" xml:space="preserve">
<path id="fill" d="M497.7,169.6c-2.4-8.2-10-13.5-18-13.5c-1.8,0-3.6,0.3-5.4,0.8c0,0,0,0,0,0c-24-52.6-66.6-95-119.4-118.8
	c-0.1,0.2-0.1,0.4-0.2,0.5l0,0c3.7-10.2-2-21.3-12.3-24.4C322.1,8.2,288.5,0,256,0c-32.5,0-66.1,8.2-86.4,14.3
	c-10.4,3.1-16,14.3-12.3,24.4l0.7,2.1l-0.7-2C105,62.8,62.9,105,39.1,157.4l-0.4-0.2c-2.1-0.8-4.3-1.1-6.4-1.1
	c-8.1,0-15.6,5.2-18,13.5C8.2,189.9,0,223.5,0,256c0,32.5,8.2,66.1,14.3,86.4c2.4,8.2,10,13.5,18,13.5c2.1,0,4.3-0.4,6.4-1.1
	l0.3-0.1l0,0c23.8,52.5,65.9,94.8,118.3,118.8c0,0,0,0,0,0c-3.6,10.2,2,21.3,12.4,24.3c20.2,6,53.9,14.2,86.3,14.2
	c32.5,0,66.1-8.2,86.4-14.3c10.1-3,15.7-13.7,12.6-23.7c0,0,0,0,0.1,0.1c52.8-23.8,95.4-66.3,119.4-119c-0.3-0.1-0.6-0.2-1-0.3
	c2.1,0.7,4.2,1.1,6.3,1.1c8.1,0,15.6-5.2,18-13.5c6-20.2,14.2-53.9,14.2-86.3C512,223.6,503.8,189.9,497.7,169.6z M344,68.4
	c43.9,20.4,79.4,55.7,100,99.5l0,0l-54,19.5c-14.4-27.9-37.4-50.7-65.5-64.9L344,68.4z M168.2,69l19.5,54
	c-27.6,14.4-50.1,37-64.3,64.7l-54-19.5C89.7,124.8,124.8,89.6,168.2,69z M168.2,443.2c-43.4-20.6-78.5-55.9-98.9-99.5l-0.1,0
	l54.1-19.5c14.2,27.8,36.8,50.5,64.4,64.9L168.2,443.2z M139.6,256.1c0-64.8,52.5-117.2,117.3-117.2c64.8,0,117.2,52.5,117.2,117.2
	c0,64.8-52.5,117.3-117.2,117.3C192,373.4,139.6,320.9,139.6,256.1z M344.1,443.8L344.1,443.8l-19.5-54
	c28.1-14.3,51.1-37.1,65.5-65.1l54,19.5C423.5,388,388,423.4,344.1,443.8z"/>
</svg>
