<?xml version="1.0" encoding="utf-8"?>
<!-- Generator: Adobe Illustrator 21.1.0, SVG Export Plug-In . SVG Version: 6.00 Build 0)  -->
<svg version="1.1" id="Layer_6" xmlns="http://www.w3.org/2000/svg" xmlns:xlink="http://www.w3.org/1999/xlink" x="0px" y="0px"
	 viewBox="0 0 470.7 512" style="enable-background:new 0 0 470.7 512;" xml:space="preserve">
<g>
	<path d="M235.4,109.2c-72.8,0-131.8,59-131.8,131.8c0,48.6,26.4,91.1,65.6,114v31.2v15.4v9.7h132.2v-9.7v-15.4V355
		c39.3-22.8,65.7-65.3,65.7-114.1C367.2,168.2,308.2,109.2,235.4,109.2z"/>
	<rect x="169.3" y="423.1" width="132.2" height="25.1"/>
	<path d="M190.4,480.2h90.1c11.1,0,21.1-9,21.1-21.1H169.3C169.3,471.2,179.2,480.2,190.4,480.2z"/>
	<path d="M235.4,511.8c11.6,0,21.1-9.4,21.1-21.1h-42.2C214.3,502.4,223.7,511.8,235.4,511.8z"/>
	<rect x="407.4" y="198.8" transform="matrix(-1.836970e-16 1 -1 -1.836970e-16 669.4604 -198.7696)" width="53.5" height="73.2"/>
	<rect x="9.8" y="198.8" transform="matrix(-1.836970e-16 1 -1 -1.836970e-16 271.9213 198.7696)" width="53.5" height="73.2"/>
	<rect x="208.6" transform="matrix(-1 -1.224647e-16 1.224647e-16 -1 470.6909 73.1517)" width="53.5" height="73.2"/>
	<rect x="349.1" y="58.2" transform="matrix(0.7071 0.7071 -0.7071 0.7071 177.1272 -238.0346)" width="53.5" height="73.2"/>
	<rect x="68" y="58.2" transform="matrix(-0.7071 0.7071 -0.7071 -0.7071 228.8532 94.7941)" width="53.5" height="73.2"/>
</g>
</svg>
