<?xml version="1.0" encoding="utf-8"?>
<!-- Generator: Adobe Illustrator 21.1.0, SVG Export Plug-In . SVG Version: 6.00 Build 0)  -->
<svg version="1.1" id="Layer_2" xmlns="http://www.w3.org/2000/svg" xmlns:xlink="http://www.w3.org/1999/xlink" x="0px" y="0px"
	 viewBox="0 0 376 512" style="enable-background:new 0 0 376 512;" xml:space="preserve">
<g>
	<path d="M375.6,187.6C375.6,84,291.5,0,187.8,0S0,84,0,187.6c0,97.7,79.3,157.5,86.6,169.7c16.5,27.7,13.7,50.1,13.7,50.3h175.6
		c0-0.2-2.8-22.6,13.6-50.3C296.9,344.6,375.6,285.3,375.6,187.6z M200,304v11.8h-21.6v-11.7c-31-2.5-58.5-23.2-58.5-63h37.7
		c0,17.6,7.5,28,20.8,31.7V208c-38-16.2-55-36.2-55-61.7c0-29.5,24.8-53.1,55-53.1V84H200v9.2c26.4,1.7,58.1,16.5,58.1,56.3h-37.7
		c-1.7-16-8.5-24.7-20.3-25.9v50.9l20.8,9.3c33.8,16.2,46.5,35.7,46.5,61.5C267.4,279.5,238.7,304,200,304z M200,217.2V274
		c15.3,0,30.1-9.5,30.1-25.2C230.1,235.5,220.1,225,200,217.2z M161.3,141.8c0,8.5,5.7,16,17.3,23v-41
		C167,125.8,161.3,131.9,161.3,141.8z M102.8,415.3v21.9h167.9v-21.9H102.8z M102.8,445.1c0,15.4,12.6,26.8,26.8,26.8H244
		c14.1,0,26.8-11.4,26.8-26.8H102.8z M159.8,485.2c0,14.8,12,26.8,26.8,26.8c14.8,0,26.8-12,26.8-26.8H159.8z"/>
</g>
</svg>
