<?xml version="1.0" encoding="utf-8"?>
<!-- Generator: Adobe Illustrator 21.1.0, SVG Export Plug-In . SVG Version: 6.00 Build 0)  -->
<svg version="1.1" id="Layer_2" xmlns="http://www.w3.org/2000/svg" xmlns:xlink="http://www.w3.org/1999/xlink" x="0px" y="0px"
	 viewBox="0 0 376 512" style="enable-background:new 0 0 376 512;" xml:space="preserve">
<g>
	<path d="M375.6,187.6C375.6,84,291.5,0,187.8,0S0,84,0,187.6c0,97.7,79.3,157.5,86.6,169.7c16.5,27.7,13.7,50.1,13.7,50.3h175.6
		c0-0.2-2.8-22.6,13.6-50.3C296.9,344.6,375.6,285.3,375.6,187.6z M188,335c-19.4,0-35.1-15.6-35.1-34.9c0-19.3,15.7-34.9,35.1-34.9
		c19.4,0,35,15.7,35.1,34.9C223,319.5,207.3,335,188,335z M203.8,240.3c-0.5,2.7-2.9,4.6-5.7,4.6l-20.5,0.1c-2.8,0-5.2-2-5.7-4.7
		c-4.5-23.1-24.2-115.2-24.2-116.5c0-10.2,3.8-19.1,11.1-26.1c7.3-7.2,17.5-10.8,30.3-10.8c12.6,0,22.4,3.9,29.1,11.7
		c6.6,7.6,10,16.5,10,26.6C228.3,127.4,208.4,217.7,203.8,240.3z M102.8,415.3v21.9h167.9v-21.9H102.8z M102.8,445.1
		c0,15.4,12.6,26.8,26.8,26.8H244c14.1,0,26.8-11.4,26.8-26.8H102.8z M159.8,485.2c0,14.8,12,26.8,26.8,26.8
		c14.8,0,26.8-12,26.8-26.8H159.8z"/>
</g>
</svg>
