<?xml version="1.0" encoding="utf-8"?>
<!-- Generator: Adobe Illustrator 21.1.0, SVG Export Plug-In . SVG Version: 6.00 Build 0)  -->
<svg version="1.1" id="Layer_2" xmlns="http://www.w3.org/2000/svg" xmlns:xlink="http://www.w3.org/1999/xlink" x="0px" y="0px"
	 viewBox="0 0 640 512" style="enable-background:new 0 0 640 512;" xml:space="preserve">
<g>
	<g>
		<path d="M629.9,465.4L450.7,325.3c25.1-29,56.9-75.6,56.9-137.7C507.6,84,423.5,0,319.8,0c-70,0-131.1,38.3-163.4,95L41.9,5.4
			C37.2,1.8,31.6,0,26,0C18.2,0,10.6,3.5,5.4,10.1c-8.8,11.4-6.7,27.7,4.7,36.5l126.6,99.1l280.5,219.5l180.8,141.5
			c11.4,8.8,27.7,6.7,36.5-4.7C643.3,490.5,641.3,474.2,629.9,465.4z"/>
	</g>
	<g>
		<path d="M291.8,485.2c0,14.8,12,26.8,26.8,26.8c14.8,0,26.8-12,26.8-26.8H291.8z M234.7,445.1c0,15.4,12.6,26.8,26.8,26.8H376
			c14.1,0,26.8-11.4,26.8-26.8H234.7z M397,415.3H234.7v21.9h167.9v-17.5L397,415.3z M136.7,145.6
			C136.7,145.6,136.7,145.6,136.7,145.6l280.5,219.5l0,0L136.7,145.6z M387.3,407.7L133.3,209c10.2,85.1,78.6,137.1,85.3,148.4
			c16.5,27.7,13.7,50.1,13.7,50.3H387.3z"/>
	</g>
</g>
</svg>
