<?xml version="1.0" encoding="utf-8"?>
<!-- Generator: Adobe Illustrator 22.0.1, SVG Export Plug-In . SVG Version: 6.00 Build 0)  -->
<svg version="1.1" id="Layer_2_1_" xmlns="http://www.w3.org/2000/svg" xmlns:xlink="http://www.w3.org/1999/xlink" x="0px" y="0px"
	 viewBox="0 0 640 512" style="enable-background:new 0 0 640 512;" xml:space="preserve">
<style type="text/css">
	.st0{fill:#030202;}
</style>
<g>
	<path d="M274,452.2h357.7c4.4,0,8-3.6,8-8v-60c0-4.4-3.6-8-8-8H274c-4.4,0-8,3.6-8,8v60C266,448.6,269.6,452.2,274,452.2z
		 M274,138.2h357.7c4.4,0,8-3.6,8-8v-60c0-4.4-3.6-8-8-8H274c-4.4,0-8,3.6-8,8v60C266,134.6,269.6,138.2,274,138.2z M274,295.2
		h357.7c4.4,0,8-3.6,8-8v-60c0-4.4-3.6-8-8-8H274c-4.4,0-8,3.6-8,8v60C266,291.6,269.6,295.2,274,295.2z"/>
	<path class="st0" d="M206.7,375.4c-23,23.6-79.6,84.7-96,101.1c-3.4,3.4-8.8,3.4-12.1,0L2.8,375.4c-5.3-5.4-1.5-14.5,6-14.5
		l55.4-0.5v-210H8.6c-7.6,0-11.4-9.1-6.1-14.5c23-23.6,79.6-84.6,96-101.1c3.4-3.4,8.8-3.4,12.1,0l95.8,101.1
		c5.3,5.4,1.5,14.5-6,14.5l-55.4,0.5v210h55.6C208.1,361,211.9,370.1,206.7,375.4z"/>
</g>
</svg>
