<?xml version="1.0" encoding="utf-8"?>
<!-- Generator: Adobe Illustrator 21.1.0, SVG Export Plug-In . SVG Version: 6.00 Build 0)  -->
<svg version="1.1" id="Layer_1" xmlns="http://www.w3.org/2000/svg" xmlns:xlink="http://www.w3.org/1999/xlink" x="0px" y="0px"
	 viewBox="0 0 506.1 512" style="enable-background:new 0 0 506.1 512;" xml:space="preserve">
<g>
	<path d="M470.3,143.2c19.8,0,35.8-16,35.8-35.8s-16-35.8-35.8-35.8s-35.8,16-35.8,35.8S450.5,143.2,470.3,143.2z M470.3,91.2
		c8.9,0,16.2,7.2,16.2,16.2c0,8.9-7.2,16.2-16.2,16.2c-8.9,0-16.2-7.2-16.2-16.2C454.1,98.5,461.3,91.2,470.3,91.2z"/>
	<path d="M330,272.7c-19.8,0-35.8,16-35.8,35.8s16,35.8,35.8,35.8s35.8-16,35.8-35.8S349.8,272.7,330,272.7z M330,324.7
		c-8.9,0-16.2-7.2-16.2-16.2c0-8.9,7.2-16.2,16.2-16.2c8.9,0,16.2,7.2,16.2,16.2C346.2,317.4,339,324.7,330,324.7z"/>
	<path d="M200.6,267.8c19.8,0,35.8-16,35.8-35.8s-16-35.8-35.8-35.8s-35.8,16-35.8,35.8S180.8,267.8,200.6,267.8z M200.6,215.8
		c8.9,0,16.2,7.2,16.2,16.2c0,8.9-7.2,16.2-16.2,16.2c-8.9,0-16.2-7.2-16.2-16.2C184.4,223,191.6,215.8,200.6,215.8z"/>
	<path d="M35.8,439.4C16,439.4,0,455.4,0,475.2S16,511,35.8,511s35.8-16,35.8-35.8S55.6,439.4,35.8,439.4z M35.8,491.4
		c-8.9,0-16.2-7.2-16.2-16.2c0-8.9,7.2-16.2,16.2-16.2S52,466.3,52,475.2C52,484.1,44.7,491.4,35.8,491.4z"/>
	<path d="M219.3,277.2l63.6,43.2c-0.9-3.8-1.4-7.8-1.4-11.8c0-20.8,12.9-38.6,31.1-45.8l-64-42.1c0.8,3.5,1.2,7.2,1.2,11
		C249.7,252.3,237.1,269.9,219.3,277.2z"/>
	<path d="M378.2,295.6l93.4-140.4c-1.1,0.1-2.2,0.1-3.3,0.1c-22.9,0-42.2-15.7-47.7-36.9l-93.9,141.1c1.3-0.1,2.6-0.2,3.9-0.2
		C353.3,259.4,372.5,274.7,378.2,295.6z"/>
	<path d="M104.2,429.6l98.1-148.7c-0.6,0-1.2,0-1.8,0c-23.5,0-43.2-16.5-48.1-38.6L71.6,364.7V1H6.9c0,0,0,332.1,0,432.8
		c9.4-7.2,20.8-8.4,24.9-8.7l-0.1,0.2c1.7-0.2,3.4-0.3,5.1-0.3c22.2,0,41,14.7,47.1,35v0.1c7.9,21.2-5.4,42-5.4,42H506v-64.7H99
		L104.2,429.6z"/>
</g>
</svg>
