<?xml version="1.0" encoding="utf-8"?>
<!-- Generator: Adobe Illustrator 21.1.0, SVG Export Plug-In . SVG Version: 6.00 Build 0)  -->
<svg version="1.1" id="Layer_1" xmlns="http://www.w3.org/2000/svg" xmlns:xlink="http://www.w3.org/1999/xlink" x="0px" y="0px"
	 viewBox="0 0 552 512" style="enable-background:new 0 0 552 512;" xml:space="preserve">
<style type="text/css">
	.st0{fill-rule:evenodd;clip-rule:evenodd;}
</style>
<g>
	<g>
		<path class="st0" d="M62,449V244h77.5c8.1,20.2,27.9,34.5,51,34.5c9,0,17.4-2.2,24.9-5.9l47.1,47.1c-3.8,7.5-5.9,15.9-5.9,24.9
			c0,30.4,24.6,55,55,55s55-24.6,55-55c0-6.8-1.2-13.3-3.5-19.4l114.9-112.5c5.5,1.9,11.5,2.9,17.6,2.9c30.4,0,55-24.6,55-55
			s-24.6-55-55-55s-55,24.6-55,55c0,10.8,3.1,20.8,8.4,29.3L339.4,297.1c-8.2-4.8-17.7-7.6-27.9-7.6c-8,0-15.5,1.7-22.4,4.8
			l-48.4-48.4c3.1-6.8,4.8-14.4,4.8-22.4c0-30.4-24.6-55-55-55c-24.3,0-44.8,15.7-52.1,37.5H62V0H0v512h551v-63H62z"/>
	</g>
</g>
</svg>
