<?xml version="1.0" encoding="utf-8"?>
<!-- Generator: Adobe Illustrator 21.1.0, SVG Export Plug-In . SVG Version: 6.00 Build 0)  -->
<svg version="1.1" id="Layer_6" xmlns="http://www.w3.org/2000/svg" xmlns:xlink="http://www.w3.org/1999/xlink" x="0px" y="0px"
	 viewBox="0 0 512.3 512" style="enable-background:new 0 0 512.3 512;" xml:space="preserve">
<g>
	<path d="M279.1,319.8c-12-12-31.5-12-43.5,0s-12,31.5,0,43.5l9.1,9.1l-64.4,64.4c-17,17-44.7,17-61.7,0l-43.1-43.1
		c-17-17-17-44.7,0-61.7l64.4-64.4l9.1,9.1c12,12,31.5,12,43.5,0s12-31.5,0-43.5l-11.1-11.1c-22.9-22.9-60-22.9-82.9,0l-67.1,67.1
		c-40.7,40.7-40.7,106.7,0,147.3l44.4,44.4c40.7,40.7,106.7,40.7,147.3,0l67.1-67.1c22.9-22.9,22.9-60,0-82.9L279.1,319.8z"/>
	<path d="M481.8,74.9l-44.4-44.4c-40.7-40.6-106.7-40.6-147.4,0l-67,67.1c-22.9,22.9-22.9,60,0,82.9l11.1,11.1c12,12,31.5,12,43.5,0
		s12-31.5,0-43.5l-9.1-9.1l64.4-64.4c17-17,44.7-17,61.7,0l43.1,43.1c17,17,17,44.7,0,61.7l-64.4,64.4l-9.1-9.1
		c-12-12-31.5-12-43.5,0s-12,31.5,0,43.5l11.1,11.1c22.9,22.9,60,22.9,82.9,0l67.1-67.1C522.5,181.5,522.5,115.5,481.8,74.9z"/>
	<path d="M166.2,296c-6.1-6.2-16.1-6.2-22.3,0s-6.2,16.2,0,22.3l49.7,49.7c6.2,6.2,16.2,6.2,22.3,0c6.2-6.2,6.2-16.2,0-22.3
		l-13.4-13.4l132.4-132.4l13.4,13.4c6.2,6.2,16.2,6.2,22.3,0c6.2-6.2,6.2-16.2,0-22.3l-22.5-22.5c-0.5-0.8-1.2-1.5-1.9-2.2
		c-0.7-0.7-1.4-1.3-2.1-1.8l-23.2-23.2c-6.1-6.2-16.1-6.2-22.3,0s-6.2,16.2,0,22.3l14,14L180.2,309.9L166.2,296z"/>
</g>
</svg>
