<?xml version="1.0" encoding="utf-8"?>
<!-- Generator: Adobe Illustrator 21.1.0, SVG Export Plug-In . SVG Version: 6.00 Build 0)  -->
<svg version="1.1" id="Layer_6" xmlns="http://www.w3.org/2000/svg" xmlns:xlink="http://www.w3.org/1999/xlink" x="0px" y="0px"
	 viewBox="0 0 225.3 512" style="enable-background:new 0 0 225.3 512;" xml:space="preserve">
<path d="M225.3,477.4v-243c0-4.9-2-14-15.6-19.6c-1.8-0.7-3.8-1.4-6-2.1v-26c0-13.1-11.9-18.6-23.5-21.4V22.9
	c0-8.2-4.2-15.6-11.3-19.7c-7-4.1-15.7-4.2-22.7-0.3L58.7,51C50.3,55.7,45,64.5,45,74.2v91.3c-2.3,0.6-4.4,1.1-6.3,1.8
	c-14.2,4.8-17.2,13.3-17.2,19.5v26c-2.2,0.6-4.2,1.3-6,2.1C2,220.4,0,229.5,0,234.5v247.4c0,6.5,3.2,15.4,18.4,20.6
	c5.8,2,13.8,3.8,23.7,5.2c19,2.8,44.2,4.3,70.8,4.3c26.6,0,51.8-1.5,70.9-4.3c9.9-1.5,17.9-3.2,23.7-5.2
	c15.2-5.2,18.4-14.1,18.4-20.6C225.8,480.3,225.6,478.8,225.3,477.4z M66.3,451.9c0,4.4-3.6,8-8,8c-4.4,0-8-3.6-8-8v-41h16V451.9z
	 M66.3,401.1h-16v-106h16V401.1z M66.3,285.6h-16V272c0-4.4,3.6-8,8-8c2.2,0,4.2,0.9,5.7,2.3c1.5,1.5,2.3,3.5,2.3,5.7V285.6z"/>
</svg>
