<?xml version="1.0" encoding="utf-8"?>
<!-- Generator: Adobe Illustrator 21.1.0, SVG Export Plug-In . SVG Version: 6.00 Build 0)  -->
<svg version="1.1" xmlns="http://www.w3.org/2000/svg" xmlns:xlink="http://www.w3.org/1999/xlink" x="0px" y="0px"
	 viewBox="0 0 370 512" style="enable-background:new 0 0 370 512;" xml:space="preserve">
<path id="italy_lira" d="M333.9,408.3l-0.2-1.4c-21.5,10.7-45,17.1-69,18.6c-18.8-1.6-37.4-5.2-55.4-10.7c-15.4-4-24.3-6.6-27.6-6.6
	c-6.9-0.5-13.8-0.5-20.7,0c-16.1-1.1-32.3,1.7-47.1,8.1c16.4-17.9,30.3-37.9,41.4-59.4c2.7-6.2,4.9-12.6,6.6-19.1H255v-61h-93.7
	l-6.9-35H255v-61H139.5c-0.3-1.6-0.6-3.2-1-4.8c-2.8-12.3-4.4-24.8-4.8-37.5c-0.6-16.8,5.6-33.2,17.3-45.4
	c11.9-11.7,28.1-18,44.7-17.3c15.6-0.5,30.7,5.3,41.9,16.1c13,14.4,21.2,32.5,23.3,51.8l91.1-13.5C348.6,93.4,331.4,59,303.9,34
	c-30.1-23.7-67.7-35.7-106-33.7c-27.7-0.3-55.1,5.6-80.3,17.3C94.1,28.4,74.3,46.1,60.9,68.3c-13,20.9-20.1,44.9-20.4,69.6
	c0,14.5,1.3,28.9,3.9,43.1H1v61h58.8l8.2,35H1v61h69c-2.9,11.9-7.5,23.3-13.8,33.9c-13.7,23.4-32.5,43.3-55.1,58.3L37,511.9
	c24.3-18.1,53.6-28.2,83.9-29c25.4,1.7,50.5,6.6,74.7,14.5c26.2,8.4,53.4,13.3,80.9,14.5c16.5,0,32.9-2.1,48.8-6.2
	c15.4-4,30.3-9.8,44.4-17.3L333.9,408.3z"/>
</svg>
