<?xml version="1.0" encoding="utf-8"?>
<!-- Generator: Adobe Illustrator 21.1.0, SVG Export Plug-In . SVG Version: 6.00 Build 0)  -->
<svg version="1.1" id="Layer_5" xmlns="http://www.w3.org/2000/svg" xmlns:xlink="http://www.w3.org/1999/xlink" x="0px" y="0px"
	 viewBox="0 0 512.5 512" style="enable-background:new 0 0 512.5 512;" xml:space="preserve">
<g>
	<g>
		<path d="M110.1,512h402.4v-76H110.1V512z M110.1,222h402.4v-76H110.1V222z M111.1,0v76h401.4V0H111.1z M511.5,291H110.1v76h401.4
			V291z M50.1,436H35.5L1.1,479.9V493h35v19h14v-19h8v-15h-8V436z M17.1,478l18.4-23l0.6,23H17.1z M46.9,361.3
			c5.5-4.5,8.2-10.8,8.2-18.8c0-5-1.5-9.3-4.6-12.9c-3-3.6-7.1-6-12.2-7.2l14.4-17.2V292H2.2v14.6h30.9c-2,1.7-3.9,3.6-5.7,5.7
			c-1.9,2.1-4,4.8-6.5,8c-2.5,3.3-4.1,5.5-4.9,6.6l3.8,8.3c10.8-1,16.2,1.7,16.2,8c0,2.9-1.1,5-3.4,6.5c-2.3,1.4-4.9,2.1-7.8,2.1
			c-5.7,0-11-2.2-15.9-6.6l-8.8,12.9c6.7,6.5,15.4,9.8,26.2,9.8C34.5,368,41.4,365.8,46.9,361.3z M54.1,222v-14.6H20.5
			c0.2-2.5,2-5.1,5.5-7.7c3.5-2.7,7.3-5.2,11.4-7.5c4.1-2.3,7.8-5.5,11.2-9.6c3.4-4.1,5.1-8.7,5.1-13.6c0-7.1-2.5-12.7-7.6-16.8
			S34.9,146,27.7,146c-5.8,0-11.2,1.4-15.9,4.3c-4.8,2.9-8.4,6.8-10.9,11.8l12.8,8.9c3.5-5.7,7.6-8.6,12.3-8.6c2.5,0,4.5,0.7,6,2
			c1.4,1.3,2.2,3.3,2.2,5.7c0,2.3-1.2,4.5-3.5,6.6s-5.2,4.3-8.6,6.4c-3.4,2.2-6.8,4.5-10.1,7s-6.1,5.8-8.5,10
			c-2.3,4.2-3.5,8.8-3.5,13.8c0,1.9,0.3,4.6,0.9,8h53.2V222z M17.8,18.6h0.3v2.1v42.9h-14V76h44V63.6H34.2V0h-14L0.1,19.8l9.9,7.3
			C11.2,22.2,13.8,19.4,17.8,18.6z"/>
	</g>
</g>
</svg>
