<?xml version="1.0" encoding="utf-8"?>
<!-- Generator: Adobe Illustrator 21.1.0, SVG Export Plug-In . SVG Version: 6.00 Build 0)  -->
<svg version="1.1" id="Layer_5" xmlns="http://www.w3.org/2000/svg" xmlns:xlink="http://www.w3.org/1999/xlink" x="0px" y="0px"
	 viewBox="0 0 512 512" style="enable-background:new 0 0 512 512;" xml:space="preserve">
<g>
	<g>
		<path d="M140.6,512H512v-76H140.6V512z M140.6,222H512v-76H140.6V222z M141.6,0v76H512V0H141.6z M511,291H140.6v76H511V291z
			 M38,76.1L38,76.1c-21,0-38-17-38-38l0,0c0-21,17-38,38-38l0,0c21,0,38,17,38,38l0,0C76,59.1,59,76.1,38,76.1z M38,222.1L38,222.1
			c-21,0-38-17-38-38l0,0c0-21,17-38,38-38l0,0c21,0,38,17,38,38l0,0C76,205.1,59,222.1,38,222.1z M38,366.6L38,366.6
			c-21,0-38-17-38-38l0,0c0-21,17-38,38-38l0,0c21,0,38,17,38,38l0,0C76,349.6,59,366.6,38,366.6z M38,512L38,512c-21,0-38-17-38-38
			l0,0c0-21,17-38,38-38l0,0c21,0,38,17,38,38l0,0C76,495,59,512,38,512z"/>
	</g>
</g>
</svg>
