<?xml version="1.0" encoding="utf-8"?>
<!-- Generator: Adobe Illustrator 21.1.0, SVG Export Plug-In . SVG Version: 6.00 Build 0)  -->
<svg version="1.1" id="Layer_1" xmlns="http://www.w3.org/2000/svg" xmlns:xlink="http://www.w3.org/1999/xlink" x="0px" y="0px"
	 viewBox="0 0 512 512" style="enable-background:new 0 0 512 512;" xml:space="preserve">
<g>
	<g>
		<path d="M41.6,172.4c13.9,3.7,22.1,18,18.4,31.8c-3.7,13.9-18,22.1-31.8,18.4c-13.9-3.7-22.1-18-18.4-31.8
			C13.4,176.9,27.7,168.6,41.6,172.4z"/>
	</g>
	<g>
		<path d="M114.8,112.8c-10.2,10.2-26.6,10.2-36.8,0S67.8,86.2,78,76s26.6-10.2,36.8,0C124.9,86.1,124.9,102.6,114.8,112.8z"/>
	</g>
	<g>
		<path d="M194.7,9.7c13.9-3.7,28.1,4.5,31.8,18.4s-4.5,28.1-18.4,31.8s-28.1-4.5-31.8-18.4C172.6,27.7,180.9,13.4,194.7,9.7z"/>
	</g>
	<g>
		<path d="M158,433.7c12.4,7.2,16.7,23.1,9.5,35.5s-23.1,16.7-35.5,9.5s-16.7-23.1-9.5-35.5C129.7,430.8,145.6,426.5,158,433.7z"/>
	</g>
	<g>
		<path d="M262,1c14.4,0,26,11.6,26,26s-11.6,26-26,26s-26-11.6-26-26S247.6,1,262,1z"/>
	</g>
	<g>
		<path d="M428.5,402c9.7,0,17.5,7.8,17.5,17.5s-7.8,17.5-17.5,17.5s-17.5-7.8-17.5-17.5S418.8,402,428.5,402z"/>
	</g>
	<g>
		<path d="M379,436c11,0,20,9,20,20s-9,20-20,20s-20-9-20-20S368,436,379,436z"/>
	</g>
	<g>
		<path d="M28.1,291.4c13.9-3.7,28.1,4.5,31.8,18.4s-4.5,28.1-18.4,31.8c-13.9,3.7-28.1-4.5-31.8-18.4
			C6,309.4,14.2,295.1,28.1,291.4z"/>
	</g>
	<g>
		<path d="M26,231c14.4,0,26,11.6,26,26s-11.6,26-26,26S0,271.4,0,257S11.6,231,26,231z"/>
	</g>
	<g>
		<path d="M114.8,401.2c10.2,10.2,10.2,26.6,0,36.8s-26.6,10.2-36.8,0s-10.2-26.6,0-36.8C88.1,391.1,104.6,391.1,114.8,401.2z"/>
	</g>
	<g>
		<path d="M45.8,349.5c12.4-7.2,28.3-2.9,35.5,9.5s2.9,28.3-9.5,35.5s-28.3,2.9-35.5-9.5S33.4,356.7,45.8,349.5z"/>
	</g>
	<g>
		<path d="M489.5,209c-6.4,0-11.5-5.1-11.5-11.5s5.1-11.5,11.5-11.5s11.5,5.1,11.5,11.5S495.9,209,489.5,209z"/>
	</g>
	<g>
		<path d="M81.3,155c-7.2,12.4-23.1,16.7-35.5,9.5s-16.7-23.1-9.5-35.5s23.1-16.7,35.5-9.5S88.5,142.6,81.3,155z"/>
	</g>
	<g>
		<path d="M322,40c-2.8,0-5-2.2-5-5s2.2-5,5-5s5,2.2,5,5S324.8,40,322,40z"/>
	</g>
	<g>
		<path d="M465,152c-5.5,0-10-4.5-10-10s4.5-10,10-10s10,4.5,10,10S470.5,152,465,152z"/>
	</g>
	<g>
		<path d="M379,65c-3.9,0-7-3.1-7-7s3.1-7,7-7s7,3.1,7,7S382.9,65,379,65z"/>
	</g>
	<g>
		<path d="M428,102c-4.4,0-8-3.6-8-8s3.6-8,8-8s8,3.6,8,8S432.4,102,428,102z"/>
	</g>
	<g>
		<path d="M486,257c0-7.2,5.8-13,13-13s13,5.8,13,13c0,7.2-5.8,13-13,13S486,264.2,486,257z"/>
	</g>
	<g>
		<path d="M475,316.5c0-8,6.5-14.5,14.5-14.5s14.5,6.5,14.5,14.5s-6.5,14.5-14.5,14.5S475,324.5,475,316.5z"/>
	</g>
	<g>
		<path d="M158,80.3c-12.4,7.2-28.3,2.9-35.5-9.5s-2.9-28.3,9.5-35.5s28.3-2.9,35.5,9.5S170.4,73.2,158,80.3z"/>
	</g>
	<g>
		<path d="M465,356c8.8,0,16,7.2,16,16s-7.2,16-16,16s-16-7.2-16-16S456.2,356,465,356z"/>
	</g>
	<g>
		<circle cx="201.3" cy="479" r="25.9"/>
	</g>
	<g>
		<circle cx="262.3" cy="487.4" r="24.6"/>
	</g>
	<g>
		<circle cx="322.8" cy="479" r="23.6"/>
	</g>
</g>
</svg>
