<?xml version="1.0" encoding="utf-8"?>
<!-- Generator: Adobe Illustrator 21.1.0, SVG Export Plug-In . SVG Version: 6.00 Build 0)  -->
<svg version="1.1" id="Layer_2" xmlns="http://www.w3.org/2000/svg" xmlns:xlink="http://www.w3.org/1999/xlink" x="0px" y="0px"
	 viewBox="0 0 512 512" style="enable-background:new 0 0 512 512;" xml:space="preserve">
<circle cx="256" cy="256" r="74.2"/>
<path d="M448.5,218C433.2,140.3,372,79,294.4,63.6V0h-76v63.4C140.3,78.5,78.8,140,63.4,218h-63v76h63
	c15.3,78,76.9,139.4,154.9,154.6V512h76v-63.6C372,433,433.2,371.7,448.5,294h63.9v-76H448.5z M256,387.9
	C183.1,387.9,124,328.9,124,256S183.1,124.1,256,124.1S387.9,183.1,387.9,256S328.8,387.9,256,387.9z"/>
</svg>
