<?xml version="1.0" encoding="utf-8"?>
<!-- Generator: Adobe Illustrator 21.1.0, SVG Export Plug-In . SVG Version: 6.00 Build 0)  -->
<svg version="1.1" id="Layer_1" xmlns="http://www.w3.org/2000/svg" xmlns:xlink="http://www.w3.org/1999/xlink" x="0px" y="0px"
	 viewBox="0 0 513.4 512" style="enable-background:new 0 0 513.4 512;" xml:space="preserve">
<style type="text/css">
	.st0{fill-rule:evenodd;clip-rule:evenodd;}
</style>
<g>
	<path class="st0" d="M512.7,160.2V88.4c0-11.9-9.7-21.6-21.6-21.6H22.3c-11.9,0-21.6,9.7-21.6,21.6v349.8
		c0,11.9,9.7,21.6,21.6,21.6h468.8c11.9,0,21.6-9.7,21.6-21.6v-67.8h-49.8v-51.3h49.8V211.5h-49.8v-51.3H512.7z M122.8,352.1
		c-48.8,0-88.4-39.6-88.4-88.5c0-48.8,39.6-88.4,88.4-88.4c48.9,0,88.5,39.6,88.5,88.4C211.2,312.5,171.6,352.1,122.8,352.1z
		 M302.5,329.8h-37.3v-37.3h37.3V329.8z M302.5,282.3h-37.3V245h37.3V282.3z M302.5,236.7h-37.3v-37.3h37.3V236.7z M351.3,329.8H314
		v-37.3h37.3V329.8z M351.3,282.3H314V245h37.3V282.3z M351.3,236.7H314v-37.3h37.3V236.7z M401,329.8h-37.3v-37.3H401V329.8z
		 M401,282.3h-37.3V245H401V282.3z M401,236.7h-37.3v-37.3H401V236.7z M122.8,194c-38.5,0-69.7,31.2-69.7,69.7
		c0,38.5,31.2,69.7,69.7,69.7c38.5,0,69.7-31.2,69.7-69.7C192.4,225.2,161.2,194,122.8,194z M174.3,263.8c0,2.1-0.8,4-2.2,5.3
		c-1.3,1.4-3.2,2.2-5.3,2.2h-23.3c-2.3,6.6-7.6,11.8-14.2,14v23.2c0,4.1-3.4,7.5-7.5,7.5c-4.1,0-7.5-3.4-7.5-7.5v-23.2
		c-6.7-2.3-12-7.6-14.3-14.3H77c-4.1,0-7.5-3.4-7.5-7.5c0-4.2,3.4-7.5,7.5-7.5h23c2.3-6.7,7.7-12,14.5-14.3v-23
		c0-4.1,3.4-7.5,7.5-7.5c2.1,0,3.9,0.8,5.3,2.2c1.4,1.4,2.2,3.2,2.2,5.3V242c6.6,2.4,11.8,7.7,14.1,14.4h23.2
		C170.9,256.3,174.3,259.7,174.3,263.8z M121.8,250.8c-7.1,0-12.9,5.8-12.9,12.9c0,7.1,5.8,12.9,12.9,12.9c7.1,0,12.9-5.8,12.9-12.9
		C134.6,256.5,128.9,250.8,121.8,250.8z"/>
</g>
</svg>
