<?xml version="1.0" encoding="utf-8"?>
<!-- Generator: Adobe Illustrator 21.1.0, SVG Export Plug-In . SVG Version: 6.00 Build 0)  -->
<svg version="1.1" id="Layer_1" xmlns="http://www.w3.org/2000/svg" xmlns:xlink="http://www.w3.org/1999/xlink" x="0px" y="0px"
	 viewBox="0 0 512 512" style="enable-background:new 0 0 512 512;" xml:space="preserve">
<g>
	<g>
		<path d="M470.4,172.4c-13.9,3.7-22.1,18-18.4,31.8c3.7,13.9,18,22.1,31.8,18.4c13.9-3.7,22.1-18,18.4-31.8
			C498.6,176.9,484.3,168.6,470.4,172.4z"/>
	</g>
	<g>
		<path d="M397.2,112.8c10.2,10.2,26.6,10.2,36.8,0c10.2-10.2,10.2-26.6,0-36.8s-26.6-10.2-36.8,0
			C387.1,86.1,387.1,102.6,397.2,112.8z"/>
	</g>
	<g>
		<path d="M317.3,9.7c-13.9-3.7-28.1,4.5-31.8,18.4c-3.7,13.9,4.5,28.1,18.4,31.8c13.9,3.7,28.1-4.5,31.8-18.4
			C339.4,27.7,331.1,13.4,317.3,9.7z"/>
	</g>
	<g>
		<path d="M354,433.7c-12.4,7.2-16.7,23.1-9.5,35.5c7.2,12.4,23.1,16.7,35.5,9.5c12.4-7.2,16.7-23.1,9.5-35.5
			C382.3,430.8,366.4,426.5,354,433.7z"/>
	</g>
	<g>
		<path d="M250,1c-14.4,0-26,11.6-26,26s11.6,26,26,26c14.4,0,26-11.6,26-26S264.4,1,250,1z"/>
	</g>
	<g>
		<path d="M83.5,402c-9.7,0-17.5,7.8-17.5,17.5S73.8,437,83.5,437s17.5-7.8,17.5-17.5S93.2,402,83.5,402z"/>
	</g>
	<g>
		<path d="M133,436c-11,0-20,9-20,20s9,20,20,20s20-9,20-20S144,436,133,436z"/>
	</g>
	<g>
		<path d="M483.9,291.4c-13.9-3.7-28.1,4.5-31.8,18.4c-3.7,13.9,4.5,28.1,18.4,31.8c13.9,3.7,28.1-4.5,31.8-18.4
			C506,309.4,497.8,295.1,483.9,291.4z"/>
	</g>
	<g>
		<path d="M486,231c-14.4,0-26,11.6-26,26c0,14.4,11.6,26,26,26c14.4,0,26-11.6,26-26C512,242.6,500.4,231,486,231z"/>
	</g>
	<g>
		<path d="M397.2,401.2c-10.2,10.2-10.2,26.6,0,36.8s26.6,10.2,36.8,0c10.2-10.2,10.2-26.6,0-36.8
			C423.9,391.1,407.4,391.1,397.2,401.2z"/>
	</g>
	<g>
		<path d="M466.2,349.5c-12.4-7.2-28.3-2.9-35.5,9.5c-7.2,12.4-2.9,28.3,9.5,35.5c12.4,7.2,28.3,2.9,35.5-9.5
			C482.9,372.6,478.6,356.7,466.2,349.5z"/>
	</g>
	<g>
		<path d="M22.5,209c6.4,0,11.5-5.1,11.5-11.5c0-6.4-5.1-11.5-11.5-11.5S11,191.1,11,197.5C11,203.9,16.1,209,22.5,209z"/>
	</g>
	<g>
		<path d="M430.7,155c7.2,12.4,23.1,16.7,35.5,9.5c12.4-7.2,16.7-23.1,9.5-35.5c-7.2-12.4-23.1-16.7-35.5-9.5
			C427.8,126.7,423.5,142.6,430.7,155z"/>
	</g>
	<g>
		<path d="M190,40c2.8,0,5-2.2,5-5s-2.2-5-5-5s-5,2.2-5,5S187.2,40,190,40z"/>
	</g>
	<g>
		<path d="M47,152c5.5,0,10-4.5,10-10s-4.5-10-10-10s-10,4.5-10,10S41.5,152,47,152z"/>
	</g>
	<g>
		<path d="M133,65c3.9,0,7-3.1,7-7s-3.1-7-7-7s-7,3.1-7,7S129.1,65,133,65z"/>
	</g>
	<g>
		<path d="M84,102c4.4,0,8-3.6,8-8s-3.6-8-8-8s-8,3.6-8,8S79.6,102,84,102z"/>
	</g>
	<g>
		<path d="M26,257c0-7.2-5.8-13-13-13s-13,5.8-13,13s5.8,13,13,13S26,264.2,26,257z"/>
	</g>
	<g>
		<path d="M37,316.5c0-8-6.5-14.5-14.5-14.5S8,308.5,8,316.5S14.5,331,22.5,331S37,324.5,37,316.5z"/>
	</g>
	<g>
		<path d="M354,80.3c12.4,7.2,28.3,2.9,35.5-9.5c7.2-12.4,2.9-28.3-9.5-35.5c-12.4-7.2-28.3-2.9-35.5,9.5
			C337.3,57.2,341.6,73.2,354,80.3z"/>
	</g>
	<g>
		<path d="M47,356c-8.8,0-16,7.2-16,16s7.2,16,16,16s16-7.2,16-16S55.8,356,47,356z"/>
	</g>
	<g>
		<circle cx="310.7" cy="479" r="25.9"/>
	</g>
	<g>
		<circle cx="249.7" cy="487.4" r="24.6"/>
	</g>
	<g>
		<circle cx="189.2" cy="479" r="23.6"/>
	</g>
</g>
</svg>
