<?xml version="1.0" encoding="utf-8"?>
<!-- Generator: Adobe Illustrator 21.1.0, SVG Export Plug-In . SVG Version: 6.00 Build 0)  -->
<svg version="1.1" id="Layer_4" xmlns="http://www.w3.org/2000/svg" xmlns:xlink="http://www.w3.org/1999/xlink" x="0px" y="0px"
	 viewBox="0 0 392.3 512" style="enable-background:new 0 0 392.3 512;" xml:space="preserve">
<g>
	<polygon points="57.5,284.9 89,284.9 31.5,224.7 89,164.6 57.5,164.6 0,224.7 	"/>
	<polygon points="97,284.9 109.7,284.9 67.3,240.5 171.8,240.5 171.8,209.5 67.2,209.1 109.7,164.6 97,164.6 39.5,224.7 	"/>
	<rect x="52.6" y="314.9" width="62" height="197.1"/>
	<path d="M257.6,270.1c-2.1,0.3-3.8,2.8-3.8,5.6c0,1.8,0.7,3.4,1.8,4.2v8c0,1.5,0.9,2.6,1.9,2.6c1.1,0,2-1.2,2-2.7v-8.1
		c1.2-1,2-2.8,2-4.8C261.5,272,259.8,269.8,257.6,270.1z"/>
	<path d="M388,0h-57.7H52.5l0,0v62v73.6h62V62h148.6l-36.4,10.7v414L330.3,506v6h32.2H388h4.3V0H388z M267.2,304.8l-18.2-1.1v-39.2
		c0-3.6,2.6-6.8,6.2-7.5l2.9-0.6c4.7-0.9,9.1,2.7,9.1,7.5V304.8z"/>
</g>
</svg>
