<?xml version="1.0" encoding="utf-8"?>
<!-- Generator: Adobe Illustrator 21.1.0, SVG Export Plug-In . SVG Version: 6.00 Build 0)  -->
<svg version="1.1" id="Layer_1" xmlns="http://www.w3.org/2000/svg" xmlns:xlink="http://www.w3.org/1999/xlink" x="0px" y="0px"
	 viewBox="0 0 457.2 512" style="enable-background:new 0 0 457.2 512;" xml:space="preserve">
<path d="M411.1,486.8c-4,0.1-8.2,0.3-12.6,0.4v-31.9l3.8-1.7l9.1,0.2c0,0,0,0,0,0c0.3,0,0.5-0.2,0.5-0.5c0,0,0.2-1,1.3-1.7
	c0.2-0.1,0.6-0.3,1.1-0.5v2.7h1.2v-3.4c1.9-1.1,4.2-2.8,4-4.4c-0.1-0.7-0.6-1.2-1.4-1.6c0.4-0.5,0.6-1,0.5-1.4
	c0-0.2-0.1-0.4-0.2-0.5c0.2-0.3,0.3-0.6,0.2-0.9c0-0.2-0.1-0.4-0.2-0.6c0.2-0.3,0.3-0.6,0.2-0.9c-0.1-0.8-1-1.4-2.7-1.8
	c1.1-0.5,3-1.5,3.3-2.8c0.1-0.3-0.1-0.6-0.4-0.7c-0.3-0.1-0.6,0.1-0.7,0.4c-0.2,0.7-1.5,1.5-2.7,2v-0.7c1-0.4,3.1-1.4,3.4-2.7
	c0-0.1,0-0.2-0.2-0.3c-0.1,0-0.2,0-0.3,0.2c-0.2,0.9-1.9,1.8-3,2.3v-1c1-0.4,3.1-1.4,3.4-2.7c0-0.1,0-0.2-0.2-0.3
	c-0.1,0-0.2,0-0.3,0.2c-0.2,0.9-1.9,1.8-3,2.3v-1.1c1-0.4,3.1-1.4,3.4-2.7c0-0.1,0-0.2-0.2-0.3c-0.1,0-0.2,0-0.3,0.2
	c-0.2,0.9-1.9,1.8-3,2.3v-4h-0.1c5.1-3.3-61.4-3.5-61.4-3.5h-9.8l2.7-1.5c3-1.8,4.1-5.6,2.3-8.7l-3.1-5.3c-1-1.7-2.7-2.8-4.5-3
	l0.9-14.2c5.8-4,11.3-8.3,16.6-12.8l13.8,2.6c-0.3,1.9,0.3,3.9,1.8,5.4l4.4,4.3c2.5,2.5,6.5,2.5,9,0l5.5-5.5c2.5-2.5,2.5-6.5,0-9
	l-4.4-4.3c-1.4-1.4-3.3-2-5.1-1.8l-2.8-13.9c4.5-5.3,8.8-10.9,12.8-16.7l13.9-1c0.2,1.9,1.3,3.7,3.1,4.7l5.3,3.1
	c3,1.7,6.9,0.7,8.6-2.3l3.9-6.7c1.7-3,0.7-6.9-2.3-8.6l-5.3-3.1c-1.7-1-3.7-1-5.4-0.4l-6.2-12.6c3-6.4,5.7-12.9,8.1-19.6l13.1-4.5
	c0.7,1.8,2.2,3.2,4.2,3.8l6,1.6c3.4,0.9,6.9-1.1,7.7-4.5l2-7.5c0.9-3.4-1.1-6.9-4.5-7.8l-6-1.6c-1.9-0.5-3.8-0.1-5.3,1l-9.2-10.5
	c1.3-6.9,2.2-13.9,2.7-21.1l11.4-7.8c1.2,1.5,3,2.5,5.1,2.5l6.2,0c3.5,0,6.3-2.8,6.3-6.3l0-7.7c0-3.5-2.8-6.3-6.3-6.3l-6.2,0
	c-2,0-3.7,0.9-4.9,2.4l-11.6-7.8c-0.6-7.1-1.5-14.2-2.8-21.1l9-10.4c1.5,1.2,3.5,1.7,5.5,1.1l5.9-1.6c3.4-0.9,5.4-4.4,4.5-7.8
	l-2-7.5c-0.9-3.4-4.4-5.4-7.8-4.5l-5.9,1.6c-1.9,0.5-3.4,1.9-4.1,3.6l-13.2-4.5c-2.4-6.7-5.1-13.3-8.2-19.6l6-12.4
	c1.8,0.7,3.8,0.7,5.6-0.3l5.3-3.1c3-1.8,4.1-5.6,2.3-8.7l-3.9-6.7c-1.8-3-5.6-4.1-8.7-2.3l-5.3,3.1c-1.7,1-2.8,2.7-3,4.5l-14-0.9
	c-4-5.8-8.3-11.4-12.9-16.7l2.6-13.7c1.9,0.3,3.9-0.3,5.4-1.8l4.3-4.4c2.5-2.5,2.5-6.5,0-9l-5.5-5.5c-2.5-2.5-6.5-2.5-9,0l-4.3,4.4
	c-1.4,1.4-2,3.3-1.8,5.1L358.3,76c-5.4-4.6-11-8.9-16.8-12.8l-1-13.8c1.9-0.2,3.7-1.3,4.7-3.1l3.1-5.3c1.7-3,0.7-6.9-2.3-8.6
	l-6.7-3.9c-3-1.7-6.9-0.7-8.6,2.3l-3.1,5.3c-1,1.7-1,3.7-0.4,5.4l-12.5,6.2c-6.4-3-13-5.7-19.7-8.1l-4.5-13c1.8-0.7,3.2-2.2,3.8-4.2
	l1.6-6c0.9-3.4-1.1-6.8-4.5-7.7l-7.5-2c-3.4-0.9-6.8,1.1-7.7,4.5l-1.6,6c-0.5,1.9-0.1,3.8,1,5.3l-10.5,9.2c-6.9-1.3-14-2.2-21.1-2.7
	L236,17.5c1.5-1.2,2.5-3,2.5-5l0-6.2c0-3.5-2.8-6.3-6.3-6.3l-7.7,0c-3.5,0-6.3,2.8-6.3,6.3l0,6.2c0,2,0.9,3.7,2.4,4.9l-7.8,11.6
	c-7.1,0.6-14.2,1.5-21.1,2.8l-10.5-9c1.2-1.5,1.7-3.5,1.1-5.5l-1.6-5.9C179.8,8,176.3,6,173,6.9l-7.5,2c-3.4,0.9-5.4,4.4-4.5,7.8
	l1.6,5.9c0.5,1.9,1.9,3.4,3.6,4.1L161.7,40c-6.7,2.4-13.2,5.1-19.6,8.2l-12.5-6.1c0.7-1.8,0.7-3.8-0.3-5.6l-3.1-5.3
	c-1.8-3-5.6-4.1-8.7-2.3l-6.7,3.9c-3,1.8-4.1,5.6-2.3,8.7l3.1,5.3c1,1.7,2.7,2.8,4.5,3.1L115.2,64c-5.8,4-11.3,8.3-16.6,12.9
	l-13.8-2.6c0.3-1.9-0.3-3.9-1.8-5.4l-4.4-4.3c-2.5-2.5-6.5-2.5-9,0L64.3,70c-2.5,2.5-2.5,6.5,0,9l4.4,4.4c1.4,1.4,3.3,2,5.1,1.8
	L76.6,99c-4.5,5.3-8.8,10.9-12.7,16.7l-14,1c-0.2-1.9-1.3-3.7-3.1-4.7l-5.3-3.1c-3-1.7-6.9-0.7-8.6,2.3l-3.9,6.7
	c-1.7,3-0.7,6.9,2.3,8.6l5.3,3.1c1.7,1,3.7,1.1,5.4,0.4l6.3,12.7c-3,6.3-5.7,12.8-8,19.5l-13.2,4.6c-0.7-1.8-2.2-3.2-4.2-3.8l-6-1.6
	c-3.4-0.9-6.8,1.1-7.8,4.5l-2,7.5c-0.9,3.4,1.1,6.8,4.5,7.7l6,1.6c1.9,0.5,3.8,0.1,5.3-1l9.3,10.6c-1.2,6.9-2.2,13.8-2.7,20.9
	L18,221.2c-1.2-1.5-3-2.5-5-2.5l-6.2,0c-3.5,0-6.3,2.9-6.3,6.4l0,7.7c0,3.5,2.8,6.3,6.4,6.3l6.2,0c2,0,3.7-0.9,4.9-2.4l11.8,7.9
	c0.6,7.1,1.5,14,2.8,20.9L23.4,276c-1.5-1.2-3.5-1.7-5.5-1.1l-5.9,1.6c-3.4,0.9-5.4,4.4-4.5,7.8l2,7.5c0.9,3.4,4.4,5.4,7.8,4.5
	l5.9-1.6c1.9-0.5,3.4-1.9,4.1-3.6l13.4,4.6c2.4,6.6,5.1,13.1,8.1,19.4l-6.1,12.6c-1.8-0.8-3.8-0.7-5.6,0.3l-5.3,3.1
	c-3,1.8-4.1,5.6-2.3,8.7l3.9,6.7c1.7,3,5.6,4.1,8.7,2.3l5.3-3.1c1.7-1,2.8-2.7,3-4.5l14.3,0.9c4,5.7,8.2,11.2,12.8,16.5l-2.7,13.9
	c-1.9-0.3-3.9,0.3-5.4,1.8l-4.3,4.4c-2.5,2.5-2.5,6.5,0,9l5.5,5.5c2.5,2.5,6.5,2.5,9,0l4.4-4.4c1.4-1.4,2-3.3,1.8-5.1l14-2.8
	c5.3,4.5,10.8,8.7,16.6,12.7l1,14.1c-1.9,0.2-3.7,1.3-4.7,3.1l-3.1,5.3c-1.7,3-0.7,6.9,2.3,8.6l1.7,1h-9.6c0,0-66.2,0.2-61.2,3.5
	h-0.1v4c-1.1-0.5-2.7-1.4-3-2.3c0-0.1-0.1-0.2-0.3-0.2c-0.1,0-0.2,0.1-0.2,0.3c0.3,1.3,2.4,2.3,3.4,2.7v1.1c-1.1-0.5-2.7-1.4-3-2.3
	c0-0.1-0.1-0.2-0.3-0.2c-0.1,0-0.2,0.1-0.2,0.3c0.3,1.3,2.4,2.3,3.4,2.7v1c-1.1-0.5-2.7-1.4-3-2.3c0-0.1-0.1-0.2-0.3-0.2
	c-0.1,0-0.2,0.2-0.2,0.3c0.3,1.3,2.4,2.3,3.4,2.7v0.7c-1.1-0.5-2.5-1.3-2.7-2c-0.1-0.3-0.4-0.5-0.6-0.4c-0.3,0.1-0.5,0.4-0.4,0.7
	c0.3,1.3,2.2,2.3,3.3,2.8c-1.7,0.4-2.6,1-2.7,1.8c0,0.3,0,0.6,0.2,0.9c-0.1,0.2-0.2,0.4-0.2,0.6c0,0.3,0,0.6,0.2,0.9
	c-0.1,0.2-0.2,0.4-0.2,0.5c-0.1,0.5,0.2,0.9,0.5,1.4c-0.9,0.4-1.3,0.9-1.4,1.6c-0.2,1.6,2.1,3.3,4,4.4v3.4h1.2v-2.7
	c0.5,0.2,0.8,0.4,1.1,0.5c1.1,0.7,1.3,1.6,1.3,1.7c0,0.3,0.3,0.5,0.5,0.5c0,0,0,0,0,0l9.1-0.2l3.8,1.7v31.9
	c-4.4-0.1-8.6-0.3-12.6-0.4l-15.2-10.6L1.8,495v1.6h1L3.3,512h154.2l0.7,0.2l0-0.2H455l0.4-15.4h1V495l-30-18.9L411.1,486.8z
	 M417.7,444.3c-0.2-0.1-0.4-0.1-0.7-0.2c0.5-0.4,0.9-0.8,1.2-1.2c0,0.1,0,0.1,0.1,0.2C418.3,443.4,418.1,443.8,417.7,444.3z
	 M418.1,442.1c-0.1-0.1-0.2-0.2-0.4-0.3c0.1-0.2,0.3-0.3,0.4-0.5c0,0.1,0,0.1,0.1,0.2C418.2,441.7,418.2,441.9,418.1,442.1z
	 M415.5,438.5c0,0,0.1,0.1,0.1,0.1c1.6,0.3,2.5,0.8,2.6,1.5c0,0.2,0,0.4-0.1,0.5c-0.5-0.4-1.3-0.7-2.4-0.9c-0.1,0-0.2,0-0.2,0.1
	V438.5z M415.5,440c0,0,0.1,0.1,0.1,0.1c1.1,0.2,1.9,0.5,2.3,0.9c-0.1,0.2-0.3,0.4-0.5,0.6c-0.4-0.2-1-0.3-1.6-0.5
	c-0.1,0-0.2,0-0.2,0.1V440z M415.5,441.5c0,0,0.1,0.1,0.1,0.1c0.5,0.1,1,0.2,1.4,0.4c-0.4,0.4-1,0.8-1.5,1.1V441.5z M415.5,443.6
	c0.7-0.4,1.4-0.9,1.9-1.5c0.2,0.1,0.3,0.2,0.5,0.3c-0.3,0.5-0.8,0.9-1.5,1.4c0,0-0.1,0-0.1,0c-0.3-0.1-0.6,0.1-0.6,0.4
	c0,0,0,0.1,0,0.1c-0.1,0-0.1,0.1-0.2,0.1V443.6z M415.5,445.1c0.1-0.1,0.3-0.2,0.4-0.3c0.1,0.1,0.1,0.1,0.2,0.1
	c0.2,0,0.5,0.1,0.7,0.2c-0.4,0.3-0.9,0.7-1.3,1V445.1z M415.5,446.6c0.6-0.4,1.3-0.9,1.8-1.3c0.7,0.2,1.1,0.6,1.1,0.9
	c0.1,0.8-1.3,1.9-3,3V446.6z M408.5,452.6l-4.8-0.1v-2.3l4.8,0.1V452.6z M408.5,449.9l-4.8-0.1v-1.1l4.8,0.1V449.9z M408.5,448.4
	l-4.8-0.1v-1.1l4.8,0.1V448.4z M410.7,452.6l-1.7,0v-2.3l1.7,0V452.6z M410.7,449.9l-1.7,0v-1.1l1.7,0V449.9z M410.7,448.4l-1.7,0
	v-1.1l1.7,0V448.4z M412.3,450.9c-0.6,0.5-1,1-1.2,1.5V450c0.1-0.3,0.4-1,1.2-1.6V450.9z M412.3,447.9
	C412.3,447.9,412.3,447.9,412.3,447.9c-0.6,0.4-0.9,0.7-1.2,1.1v-0.5c0.1-0.3,0.4-1,1.2-1.6V447.9z M412.3,446.4
	C412.3,446.4,412.3,446.4,412.3,446.4c-0.6,0.4-0.9,0.8-1.2,1.1v-0.4c0,0,0-0.1,0-0.1c0.1-0.3,0.4-1,1.2-1.6V446.4z M414.3,449.8
	c-0.5,0.3-1.1,0.6-1.6,0.8c0,0,0,0,0,0v-2.5c0.3-0.2,0.9-0.4,1.6-0.8V449.8z M414.3,446.8c-0.6,0.3-1.1,0.6-1.6,0.8v-1
	c0.3-0.2,0.9-0.4,1.6-0.8V446.8z M414.3,445.3c-0.6,0.3-1.1,0.6-1.6,0.8v-1c0.3-0.2,0.9-0.4,1.6-0.8V445.3z M414.3,429.6v3.8
	c-1.7,0.8-2.8,1.8-3.4,2.5C410.9,435.9,413.9,429.8,414.3,429.6z M398.5,445.7c6-2.8,12-8.9,12-8.9c0,0,0.1,0,0.1,0
	c0.1,0,0.1,0,0.2-0.1c0,0,1.3-1.7,3.6-2.8v1.1c-2.5,1.2-3.9,3-4,3c-0.1,0.1-0.1,0.2,0,0.3c0,0,0.1,0,0.1,0c0.1,0,0.1,0,0.2-0.1
	c0,0,1.3-1.7,3.6-2.8v1c-2.5,1.2-3.9,3-4,3c-0.1,0.1-0.1,0.2,0,0.3c0,0,0.1,0,0.1,0c0.1,0,0.1,0,0.2-0.1c0,0,1.3-1.7,3.6-2.8v0.7
	c-2.7,1.2-4.1,3.1-4.2,3.2c-0.2,0.2-0.1,0.6,0.1,0.8c0.1,0.1,0.2,0.1,0.3,0.1c0.2,0,0.3-0.1,0.4-0.2c0,0,1.2-1.5,3.3-2.7v4.9
	c-0.8,0.4-1.5,0.8-2,1c0,0,0,0,0,0c-1.1,0.7-1.5,1.6-1.6,2l-9.1-0.2c0,0-0.1,0-0.1,0l-3,1.3V445.7z M398.5,448.6l3.2-1.4l1.6,0v1.1
	l-1.7,0c0,0-0.1,0-0.1,0l-3,1.3V448.6z M398.5,450.1l3.2-1.4l1.6,0v1.1l-1.7,0c0,0-0.1,0-0.1,0l-3,1.3V450.1z M398.5,451.6l3.2-1.4
	l1.6,0v2.3l-1.1,0c-0.1,0-0.2,0-0.2,0l-3.5,1.5V451.6z M438.7,221.8c-0.2,0.7-0.4,1.4-0.4,2.1l0,7.7c0,0.7,0.1,1.3,0.3,1.9l-10.3,7
	c0.3-4.2,0.4-8.5,0.4-12.8c0-4.3-0.2-8.6-0.5-12.9L438.7,221.8z M19,234.8c0.2-0.7,0.4-1.4,0.4-2.1l0-7.7c0-0.7-0.1-1.3-0.3-1.9
	l10.4-7.1c-0.3,4.2-0.4,8.5-0.4,12.8c0,4.4,0.2,8.8,0.5,13.1L19,234.8z M39.9,443.1c0-0.1,0-0.1,0.1-0.2c0.3,0.4,0.7,0.8,1.2,1.2
	c-0.3,0.1-0.5,0.1-0.7,0.2C40.1,443.8,39.9,443.4,39.9,443.1z M39.9,441.6c0-0.1,0-0.1,0.1-0.2c0.1,0.2,0.2,0.3,0.4,0.5
	c-0.1,0.1-0.3,0.2-0.4,0.3C39.9,441.9,39.9,441.7,39.9,441.6z M42.6,449.1c-1.6-1-3-2.2-2.9-3c0-0.3,0.4-0.6,1.1-0.9
	c0.5,0.5,1.2,0.9,1.8,1.3V449.1z M42.6,446.1c-0.5-0.3-0.9-0.6-1.3-1c0.2-0.1,0.4-0.1,0.7-0.2c0.1,0,0.2-0.1,0.2-0.1
	c0.1,0.1,0.3,0.2,0.4,0.3V446.1z M42.6,444.6c-0.1,0-0.1-0.1-0.2-0.1c0,0,0-0.1,0-0.1c-0.1-0.3-0.3-0.5-0.6-0.4c0,0-0.1,0-0.1,0
	c-0.6-0.5-1.1-1-1.4-1.4c0.1-0.1,0.3-0.2,0.5-0.3c0.6,0.5,1.2,1,1.9,1.5V444.6z M42.6,443.1c-0.5-0.4-1.1-0.7-1.5-1.1
	c0.4-0.1,0.8-0.3,1.4-0.4c0.1,0,0.1,0,0.1-0.1V443.1z M42.6,441.3c0-0.1-0.1-0.1-0.2-0.1c-0.7,0.1-1.2,0.3-1.6,0.5
	c-0.2-0.2-0.4-0.4-0.5-0.6c0.4-0.4,1.1-0.7,2.3-0.9c0.1,0,0.1,0,0.1-0.1V441.3z M42.6,439.8c0-0.1-0.1-0.1-0.2-0.1
	c-1.1,0.2-1.9,0.5-2.4,0.9c-0.1-0.2-0.1-0.4-0.1-0.5c0.1-0.6,1-1.1,2.6-1.5c0.1,0,0.1,0,0.1-0.1V439.8z M25.5,506.3l2.4-2l27.4,2
	H25.5z M59.6,505.7l-30.8-2.3l10.9-9.5c8.5-1,15.1,1.3,15.1,1.3c1.5-0.5,3.1-0.8,4.8-0.9V505.7z M375,458.9l0.7-0.3v1l-0.7,0.3
	V458.9z M375,460.4l0.7-0.3v1l-0.7,0.3V460.4z M375,461.9l0.7-0.3v2.5l-0.7,0.3V461.9z M375,473.4h8.4l-8.3,11.1H375V473.4z
	 M384.3,474.6h2.4l7.8,10h-17.8L384.3,474.6z M375,495.4c1.5-0.1,3-0.1,4.4,0l-4.4,7.6V495.4z M165.6,484.2l7.1-26.9h113.6l7.2,26.6
	L165.6,484.2z M118.3,393.4l-0.3-4c8.7,6,18,11.4,27.7,15.9l-3.6,1.8C133.9,403.1,125.9,398.5,118.3,393.4z M141,407.7l-11.4,5.6
	c-0.5-0.5-1-1-1.7-1.4l-6.7-3.9c-0.6-0.3-1.2-0.5-1.8-0.7l-0.9-12.7C125.6,399.5,133.2,403.9,141,407.7z M145.3,69.6l0,1.1
	l-12.1-9.2l-0.1-1.2L145.3,69.6z M133.9,59.7c3.7-2.1,7.4-4,11.2-5.9l0.2,14.4L133.9,59.7z M146.3,71.5l0-1.1l0.9,0.7l0,1.1
	L146.3,71.5z M147.2,73.5l0,0.5c-0.3,0.1-0.6,0.3-0.9,0.4l0-1.6L147.2,73.5z M146.3,69.1l-0.2-15.5l0.9,0.8l0.2,15.4L146.3,69.1z
	 M155.2,72.4l35,74.5c-2,1-4.1,2-6,3.2l-41.3-71.2C146.9,76.6,151,74.4,155.2,72.4z M163.5,48.9l10.2,11l-0.5,2.9
	c-2.9,1-5.8,2.1-8.7,3.2l-2.2-2L163.5,48.9z M162.6,46.4C162.6,46.4,162.6,46.4,162.6,46.4L162.6,46.4L162.6,46.4z M179.4,43.9
	l9.2,11.9l-0.7,2.9c-3,0.7-6,1.5-9,2.4l-2-2.1L179.4,43.9z M178.7,41.3C178.7,41.3,178.7,41.3,178.7,41.3L178.7,41.3L178.7,41.3z
	 M195.6,40.3l8.2,12.6l-1,2.8c-3.1,0.5-6.2,1-9.2,1.6l-1.7-2.3L195.6,40.3z M195.2,37.7C195.2,37.7,195.2,37.7,195.2,37.7
	L195.2,37.7L195.2,37.7z M234.6,51.2l-1.5,2.6c-1.6,0-3.1-0.1-4.7-0.1c-1.5,0-3.1,0.1-4.6,0.1l-1.4-2.6l6.3-13.9L234.6,51.2z
	 M228.8,34.7C228.8,34.7,228.8,34.7,228.8,34.7L228.8,34.7L228.8,34.7z M250,52.4l-1.7,2.4c-3.1-0.3-6.2-0.6-9.3-0.8l-1.1-2.7
	l7.5-13.3L250,52.4z M245.7,35.4C245.7,35.4,245.7,35.4,245.7,35.4L245.7,35.4L245.7,35.4z M265.3,54.9l-1.8,2.2
	c-3.1-0.6-6.1-1.1-9.2-1.6l-0.9-2.7l8.6-12.6L265.3,54.9z M262.4,37.6C262.4,37.6,262.5,37.6,262.4,37.6L262.4,37.6L262.4,37.6z
	 M280.3,58.8l-2.1,2.1c-3-0.9-6-1.7-9-2.4l-0.6-2.8l9.7-11.8L280.3,58.8z M278.9,41.3C278.9,41.3,278.9,41.3,278.9,41.3L278.9,41.3
	L278.9,41.3z M296,65.4l-0.1-1.1l0.9-0.7l0.1,1.1L296,65.4z M296.9,66l0.1,1.5c-0.3-0.1-0.6-0.3-0.9-0.4l0-0.4L296.9,66z
	 M300.9,71.6l-34.6,74.7c-2.1-0.9-4.1-1.8-6.3-2.6l28-77.5C292.4,67.9,296.7,69.7,300.9,71.6z M311.5,53.5l-0.6,15.3l-0.9,0.7
	l0.6-15.2L311.5,53.5z M310.6,52.9L310.6,52.9C310.6,52.8,310.7,52.8,310.6,52.9L310.6,52.9z M310.9,70.2l0,1.1l-0.9,0.7l0-1.1
	L310.9,70.2z M310.8,72.6l-0.1,1.5c-0.3-0.2-0.6-0.3-0.9-0.4l0-0.4L310.8,72.6z M314.3,78.5l-41,71.4c-2-1.1-4-2.2-6-3.1l34.6-74.7
	C306.1,74.1,310.2,76.2,314.3,78.5z M324.6,60.3l-0.1,1.2l-12.5,9l0-1.1L324.6,60.3z M312,68.1l0.5-14.3c3.8,1.8,7.6,3.8,11.2,5.9
	L312,68.1z M326.4,61.4l-1.9,15.2l-1,0.6l1.9-15.1L326.4,61.4z M325.6,60.7C325.6,60.7,325.6,60.7,325.6,60.7L325.6,60.7L325.6,60.7
	z M396.8,132.6l-9.2,12.2l-1.1,0l9.2-12.1L396.8,132.6z M396.5,131.5L396.5,131.5C396.5,131.5,396.5,131.5,396.5,131.5L396.5,131.5z
	 M404.5,147.6l-10.3,11.4l-1.1-0.1l10.2-11.3L404.5,147.6z M404.3,146.5L404.3,146.5C404.3,146.5,404.3,146.5,404.3,146.5
	L404.3,146.5z M410.9,163.2l-11.2,10.4l-1.1-0.2l11.1-10.3L410.9,163.2z M410.7,162.1L410.7,162.1
	C410.8,162.1,410.8,162.1,410.7,162.1L410.7,162.1z M415.9,179.3l-12.1,9.4l-1.1-0.3l12-9.3L415.9,179.3z M415.8,178.2L415.8,178.2
	C415.9,178.2,415.9,178.2,415.8,178.2L415.8,178.2z M419.9,196.8c0.7,4.2,1.2,8.3,1.6,12.6l-13.7-4.8L419.9,196.8z M419.5,194.7
	L419.5,194.7C419.5,194.7,419.5,194.7,419.5,194.7L419.5,194.7z M421.9,213.5c0.3,4.2,0.5,8.4,0.5,12.7l-13.2-6L421.9,213.5z
	 M421.7,211.4L421.7,211.4C421.7,211.4,421.7,211.4,421.7,211.4L421.7,211.4z M422.5,228.3C422.5,228.3,422.5,228.3,422.5,228.3
	L422.5,228.3L422.5,228.3z M409.3,236l13.2-5.6c0,4.3-0.2,8.5-0.5,12.7L409.3,236z M421.7,245.2L421.7,245.2L421.7,245.2
	C421.7,245.2,421.7,245.2,421.7,245.2z M407.9,251.7l13.6-4.4c-0.4,4.2-1,8.4-1.7,12.6L407.9,251.7z M419.5,261.9
	C419.5,261.9,419.5,261.9,419.5,261.9L419.5,261.9L419.5,261.9z M414.7,277.5l-11.9-9.8l1.1-0.2l12,9.9L414.7,277.5z M415.8,278.4
	C415.8,278.4,415.8,278.4,415.8,278.4L415.8,278.4L415.8,278.4z M409.7,293.5l-11-10.8l1.1-0.1l11.1,10.9L409.7,293.5z M410.8,294.5
	C410.8,294.5,410.8,294.5,410.8,294.5L410.8,294.5L410.8,294.5z M316.7,406.6l-3.6-1.7c9.6-4.6,18.8-10,27.5-16l-0.3,4
	C332.8,398,324.9,402.6,316.7,406.6z M340.2,394.2l-0.8,12.7c-0.7,0.1-1.4,0.4-2,0.7l-6.7,3.9c-0.6,0.3-1.1,0.8-1.5,1.2l-11.3-5.5
	C325.6,403.3,333.1,399,340.2,394.2z M148.1,404l0-1.2l11.7-10l0.1,1.1L148.1,404z M159.9,395.3l0.7,14.1c-3.9-1.5-7.8-3.1-11.6-4.8
	L159.9,395.3z M148.2,401.4l0.5-15l2.6-1.9c2.7,1.4,5.5,2.6,8.3,3.9l0.2,3.1L148.2,401.4z M148.8,385.1l0-1.1l0.6-0.4
	c0.3,0.2,0.6,0.3,0.9,0.4L148.8,385.1z M143.5,378l41-71.4c2,1.1,4,2.2,6,3.1l-34.6,74.7C151.7,382.5,147.6,380.3,143.5,378z
	 M146.8,386.5l0-1.1l0.9-0.6l0,1.1L146.8,386.5z M147.7,387.2l-0.6,15.2l-0.9,0.8l0.6-15.3L147.7,387.2z M146.9,384.1l0.1-1.8
	c0.3,0.2,0.6,0.3,0.9,0.4l0,0.7L146.9,384.1z M133.1,396.3l0.2-1.2l12.5-9l0,1.1L133.1,396.3z M145.7,388.6l-0.5,14.1
	c-3.8-1.8-7.4-3.7-11.1-5.8L145.7,388.6z M133.2,380.1l1-0.6l-1.9,15.1l-1,0.7L133.2,380.1z M130.3,394.7c-3.6-2.1-7.1-4.4-10.5-6.7
	l12.2-7.2L130.3,394.7z M107.7,350.8l58.1-58.3c1.6,1.6,3.3,3.1,5,4.6L118,360.2C114.5,357.2,111,354,107.7,350.8z M112.7,358.4
	L111,359l0.3-1l0.7-0.3C112.2,357.9,112.5,358.1,112.7,358.4z M36.6,229l14,6.4l-1,0.5l-14.2-6.4L36.6,229z M35.5,227.3l14.1-6
	l1,0.5l-14,5.9L35.5,227.3z M37.9,228.4l13.8-5.8l2.7,1.5c0,1.5-0.1,3-0.1,4.6c0,1.5,0.1,3.1,0.1,4.6l-2.7,1.4L37.9,228.4z
	 M52.9,207.1l2.6,1.8c-0.3,3-0.6,6.1-0.8,9.2l-2.8,1.2l-13.3-7.5L52.9,207.1z M37.3,211l-1.1-0.6l14.6-4.7l0.9,0.6L37.3,211z
	 M117.4,96.9l53,62.9c-1.7,1.5-3.4,3-5,4.6l-58.3-58.1C110.4,103,113.9,99.9,117.4,96.9z M110.5,98.1l1.6,0.6
	c-0.2,0.2-0.5,0.4-0.7,0.7l-0.5-0.2L110.5,98.1z M133,79.3l-0.1-1.1l0.9,0.6l0.1,1.1L133,79.3z M134,81.2l0.1,0.6
	c-0.3,0.2-0.5,0.4-0.8,0.5l-0.2-1.7L134,81.2z M141.9,79.5l41.3,71.2c-2,1.2-3.9,2.4-5.7,3.7L130.2,87
	C134,84.3,137.9,81.8,141.9,79.5z M134.9,79.5l1.4,0.9c-0.3,0.2-0.5,0.4-0.8,0.5l-0.5-0.3L134.9,79.5z M175.4,61.7l-0.1,0.5
	c-0.3,0.1-0.6,0.2-0.9,0.3l0.3-1.6L175.4,61.7z M174.8,59.6l0.2-1.1l0.7,0.8l-0.2,1.1L174.8,59.6z M183.4,62l21.5,79.5
	c-2.2,0.6-4.4,1.3-6.5,2.1l-28.3-77.3C174.4,64.6,178.9,63.2,183.4,62z M176.5,61.4l0.2-1.1l1,1.1c-0.3,0.1-0.6,0.2-1,0.3
	L176.5,61.4z M190.1,57.7l-0.1,0.5c-0.3,0.1-0.6,0.2-0.9,0.2l0.4-1.5L190.1,57.7z M189.7,55.5l0.3-1.1l0.7,0.9l-0.3,1.1L189.7,55.5z
	 M198.1,58.6l14.5,81c-2.2,0.4-4.5,0.9-6.6,1.5l-21.5-79.5C188.9,60.5,193.4,59.5,198.1,58.6z M191.2,57.4l0.3-1.1l0.9,1.2
	c-0.3,0.1-0.6,0.2-1,0.2L191.2,57.4z M243,56.5l-7,82c-2.2-0.2-4.5-0.3-6.8-0.3L229,55.8C233.7,55.8,238.4,56.1,243,56.5z
	 M234.4,53.8l0.8-1.4l0.4,1l-0.2,0.4C235,53.9,234.7,53.9,234.4,53.8z M236.2,52.3l-0.4-1l0.6-1l0.4,1L236.2,52.3z M237.3,52.6
	l0.6,1.4c-0.3,0-0.7,0-1,0l-0.2-0.4L237.3,52.6z M257.9,58.3l-14.1,81.1c-2.2-0.4-4.5-0.7-6.7-0.9l7-82
	C248.7,56.9,253.4,57.5,257.9,58.3z M249.6,55l0.9-1.3l0.3,1.1l-0.3,0.4C250.2,55.1,249.9,55,249.6,55z M251.5,53.6l-0.3-1l0.6-0.9
	l0.3,1L251.5,53.6z M252.6,54l0.5,1.5c-0.3,0-0.7-0.1-1-0.1l-0.1-0.4L252.6,54z M272.6,61.5l-21.1,79.6c-2.2-0.6-4.4-1-6.7-1.4
	L259,58.5C263.6,59.3,268.2,60.3,272.6,61.5z M264.6,57.4l1-1.2l0.2,1.1l-0.3,0.3C265.2,57.6,264.9,57.5,264.6,57.4z M266.7,56.3
	l-0.2-1.1l0.7-0.9l0.2,1.1L266.7,56.3z M267.7,56.7l0.3,1.5c-0.3-0.1-0.6-0.1-1-0.2l-0.1-0.4L267.7,56.7z M327,86.6l-47,67.5
	c-1.9-1.3-3.8-2.5-5.7-3.6l41-71.4C319.2,81.4,323.2,83.9,327,86.6z M320.8,80l1.4-0.8l-0.1,1.1l-0.4,0.3
	C321.4,80.3,321.1,80.2,320.8,80z M324.1,80.3l-0.2,1.6c-0.3-0.2-0.6-0.4-0.8-0.5l0.1-0.5L324.1,80.3z M323.3,79.6l0.1-1.1l1-0.6
	l-0.1,1.1L323.3,79.6z M350.1,105.7L292,164.1c-1.6-1.6-3.3-3.1-5-4.6l52.8-63.2C343.3,99.3,346.8,102.5,350.1,105.7z M345.2,98.2
	l1.5-0.6l-0.3,1l-0.5,0.2C345.7,98.7,345.4,98.5,345.2,98.2z M416.9,195.1l-12.6,8.2l-2.8-1c-0.5-3.1-1-6.2-1.6-9.2l2.2-1.7
	L416.9,195.1z M403.2,190.5l0.9-0.7l15,3.9l-1,0.6L403.2,190.5z M419.1,211.6l-13.3,7l-2.7-1.2c-0.2-3.1-0.5-6.2-0.8-9.3l2.4-1.6
	L419.1,211.6z M405.8,205.9l0.9-0.6l14.6,5.2l-1,0.5L405.8,205.9z M421.1,227.7l-14-6.4l1-0.5l14.1,6.4L421.1,227.7z M422.2,229.4
	l-14.1,6l-1-0.6l14-5.9L422.2,229.4z M419.8,228.3l-13.8,5.8l-2.6-1.5c0-1.6,0.1-3.2,0.1-4.8c0-1.5-0.1-3-0.1-4.5l2.6-1.4
	L419.8,228.3z M404.8,249.5l-2.5-1.7c0.3-3.1,0.6-6.2,0.8-9.3l2.7-1.1l13.3,7.5L404.8,249.5z M420.3,245.6l1.1,0.6l-14.6,4.7
	l-0.9-0.6L420.3,245.6z M402.3,264.8l-2.3-1.9c0.6-3,1.1-6.1,1.6-9.2l2.7-0.9l12.6,8.6L402.3,264.8z M418.1,262.3l1,0.7l-14.9,3.4
	l-0.9-0.7L418.1,262.3z M312.4,387.1l0-1.1l12.1,9.2l0.1,1.2L312.4,387.1z M323.7,397c-3.6,2.1-7.3,4-11.1,5.8l-0.2-14.4L323.7,397z
	 M311.3,385.2l0,1.1l-0.9-0.7l0-1.1L311.3,385.2z M310.5,383.2l0-0.6c0.3-0.1,0.6-0.3,0.9-0.4l0,1.7L310.5,383.2z M311.4,387.6
	l0.2,15.5l-0.9-0.8l-0.2-15.4L311.4,387.6z M302.6,384.1l-35-74.5c2-1,4-2,6-3.2l41.3,71.2C310.9,379.9,306.8,382.1,302.6,384.1z
	 M270,425.4l-1.4-1.2c2.8-0.6,5.5-1.2,8.2-1.9l0.8,3.1H270z M214.9,425.4l-1.4-2.1c5.2,0.4,10.5,0.6,15.9,0.6c5.4,0,10.7-0.3,16-0.7
	l-1.5,2.2H214.9z M203.2,425.4c-3.1-0.4-6.2-0.9-9.3-1.4l3.1-2.7c4.5,0.8,9.1,1.3,13.8,1.8l1.6,2.3H203.2z M179.6,395.7
	c0.9,0.3,1.8,0.5,2.7,0.8l-3.4,12.6l-1.5-11.1L179.6,395.7z M177.2,396.6l-0.2-1.1l0.4-0.4c0.3,0.1,0.6,0.2,0.9,0.3L177.2,396.6z
	 M183,418.4c3.7,0.9,7.5,1.7,11.3,2.4l-3,2.6c-3.1-0.6-6.1-1.3-9.1-2L183,418.4z M360.3,116.8l-62.9,53c-1.5-1.7-3-3.4-4.6-5
	l58.1-58.3C354.2,109.8,357.3,113.2,360.3,116.8z M356.1,108.9l1.6-0.4l-0.4,1l-0.5,0.1C356.5,109.3,356.3,109.1,356.1,108.9z
	 M357.9,110.8l0.2-0.4l1.1-0.3l-0.6,1.5C358.3,111.3,358.1,111,357.9,110.8z M367.1,121.1l-0.5,0.1c-0.2-0.3-0.4-0.5-0.6-0.8
	l1.6-0.3L367.1,121.1z M367.8,122l1.1-0.2l-0.7,1.4c-0.2-0.3-0.4-0.5-0.6-0.8L367.8,122z M369.5,128.7L302.2,176
	c-1.3-1.8-2.7-3.7-4.1-5.4l62.9-53C364,121.2,366.8,124.9,369.5,128.7z M375.9,133.6l-0.5,0c-0.2-0.3-0.3-0.5-0.5-0.8l1.6-0.2
	L375.9,133.6z M376.6,134.6l1.1-0.1l-0.8,1.3c-0.2-0.3-0.4-0.5-0.5-0.8L376.6,134.6z M377.7,141.3l-71.2,41.3
	c-1.2-2-2.4-3.9-3.7-5.7l67.3-47.4C372.8,133.3,375.3,137.3,377.7,141.3z M383.6,146.7l-0.5,0c-0.1-0.3-0.3-0.6-0.4-0.9l1.6,0
	L383.6,146.7z M385.3,147.8l-1,1.3c-0.1-0.3-0.3-0.6-0.5-0.9l0.3-0.4L385.3,147.8z M384.8,154.6l-74.5,35c-1-2.1-2-4.1-3.2-6
	l71.2-41.3C380.6,146.2,382.8,150.3,384.8,154.6z M399.5,189.6l-0.4-0.1c-0.1-0.3-0.1-0.6-0.2-0.9l1.5,0.4L399.5,189.6z M400.8,191
	l-1.2,0.9c-0.1-0.3-0.2-0.6-0.2-1l0.3-0.3L400.8,191z M400.6,212.3l-82,7.4c-0.2-2.3-0.5-4.5-0.9-6.7l81-14.5
	C399.5,203,400.1,207.6,400.6,212.3z M399.9,265.3l-0.4-0.3c0.1-0.3,0.2-0.6,0.2-0.9l1.2,1L399.9,265.3z M400.5,267.2l-1.6,0.4
	c0.1-0.3,0.1-0.6,0.2-1l0.5-0.1L400.5,267.2z M398.8,257.3l-81.1-14.1c0.4-2.2,0.7-4.5,0.9-6.7l82,7
	C400.2,248.1,399.6,252.7,398.8,257.3z M384.5,308.3l-0.3-0.5c0.1-0.3,0.3-0.6,0.4-0.9l1,1.4L384.5,308.3z M384.6,310.3l-1.6-0.1
	c0.2-0.3,0.3-0.6,0.4-0.9l0.5,0L384.6,310.3z M378.6,313.6l-71.4-41c1.1-2,2.2-4,3.1-6l74.7,34.6
	C383.1,305.5,380.9,309.6,378.6,313.6z M376.6,321.1c0.2-0.3,0.4-0.5,0.5-0.8l0.9,1.5l-1.1-0.1L376.6,321.1z M376.8,323.6l-1.7-0.2
	c0.2-0.3,0.4-0.6,0.5-0.8l0.6,0.1L376.8,323.6z M370.6,326.4l-67.5-47c1.3-1.9,2.5-3.8,3.7-5.7l71.4,41
	C375.8,318.6,373.3,322.5,370.6,326.4z M368,333.6c0.2-0.3,0.4-0.5,0.6-0.8l0.7,1.5l-1.1-0.2L368,333.6z M368,336.1l-1.7-0.4
	c0.2-0.3,0.4-0.5,0.6-0.8l0.6,0.1L368,336.1z M361.5,338.3l-63.2-52.8c1.4-1.7,2.8-3.6,4.1-5.4l67.5,47
	C367.3,331,364.5,334.7,361.5,338.3z M351.4,349.5l-58.3-58.1c1.6-1.6,3.1-3.3,4.6-5l63.2,52.8C357.8,342.7,354.7,346.2,351.4,349.5
	z M359.5,346.2l-1-0.3l-0.2-0.6c0.2-0.2,0.4-0.5,0.6-0.7L359.5,346.2z M358.1,347.8l-1.7-0.5c0.2-0.2,0.5-0.5,0.7-0.7l0.6,0.2
	L358.1,347.8z M340.4,359.7l-53-62.9c1.7-1.5,3.4-3,5-4.6l58.3,58.1C347.4,353.5,343.9,356.7,340.4,359.7z M348.7,357.2l-1-0.4
	l-0.2-0.6c0.2-0.2,0.5-0.5,0.7-0.7L348.7,357.2z M347.2,358.6l-1.6-0.7c0.3-0.2,0.5-0.4,0.8-0.6l0.6,0.2L347.2,358.6z M239.6,233.8
	l68.8,31.9c-0.9,2-2,3.9-3.1,5.9L239.6,233.8z M304.9,272.5c-1.1,1.9-2.3,3.8-3.6,5.6l-62.2-43.4L304.9,272.5z M240.1,232.9
	l71.4,25.8c-0.8,2.1-1.6,4.1-2.5,6.1L240.1,232.9z M240.5,231.9l73.3,19.5c-0.6,2.1-1.2,4.2-2,6.3L240.5,231.9z M240.7,230.9
	l74.7,13c-0.4,2.2-0.8,4.3-1.4,6.5L240.7,230.9z M240.9,229.8l75.6,6.4c-0.2,2.2-0.5,4.4-0.9,6.6L240.9,229.8z M241,228.8l75.9-0.2
	c0,2.2-0.1,4.4-0.3,6.6L241,228.8z M241,227.7l75.6-6.8c0.2,2.2,0.3,4.4,0.3,6.6L241,227.7z M240.9,226.7l74.7-13.3
	c0.4,2.2,0.7,4.4,0.9,6.6L240.9,226.7z M240.7,225.6l73.3-19.8c0.6,2.1,1,4.3,1.4,6.5L240.7,225.6z M240.4,224.6l71.2-26.1
	c0.7,2.1,1.4,4.2,2,6.3L240.4,224.6z M240.1,223.6l68.7-32.2c0.9,2,1.8,4,2.6,6.1L240.1,223.6z M239.6,222.7l65.6-38.1
	c1.1,1.9,2.1,3.9,3.1,5.9L239.6,222.7z M239.1,221.7l62-43.6c1.3,1.8,2.4,3.7,3.6,5.6L239.1,221.7z M300.7,279
	c-1.3,1.8-2.6,3.6-4,5.3l-58.2-48.6L300.7,279z M310.8,265.7c0.9-2.1,1.8-4.1,2.6-6.3l77.5,28c-1.6,4.4-3.4,8.7-5.4,12.9
	L310.8,265.7z M389.9,295.6l0.5,0l0.7,0.8l-1.6,0.1C389.7,296.2,389.8,295.9,389.9,295.6z M390.9,294.5l-0.3-0.4
	c0.1-0.3,0.2-0.6,0.4-0.9l1.1,1.2L390.9,294.5z M313.8,258.4c0.8-2.1,1.4-4.3,2-6.5l79.6,21.1c-1.2,4.5-2.6,9-4.2,13.4L313.8,258.4z
	 M395.2,281.3l0.5-0.1l0.8,0.8l-1.6,0.2C395,281.9,395.1,281.6,395.2,281.3z M396,280.1l-0.3-0.3c0.1-0.3,0.2-0.6,0.3-0.9l1.1,1.1
	L396,280.1z M395.7,272l-79.6-21.1c0.6-2.2,1-4.4,1.4-6.7l81.1,14.1C397.8,262.9,396.9,267.5,395.7,272z M318.7,235.4
	c0.2-2.2,0.3-4.5,0.3-6.8l82.3-0.2c0,4.7-0.2,9.4-0.6,14L318.7,235.4z M319,227.5c0-2.3-0.1-4.6-0.3-6.8l82-7.4
	c0.4,4.6,0.7,9.3,0.7,14L319,227.5z M317.5,211.9c-0.4-2.2-0.9-4.5-1.5-6.6l79.5-21.5c1.2,4.5,2.2,9,3,13.7L317.5,211.9z
	 M395.5,176.2l0.3-0.3l1.1,0.2l-1.1,1C395.7,176.9,395.6,176.6,395.5,176.2z M395.5,174.9l-0.4-0.1c-0.1-0.3-0.2-0.6-0.3-0.9
	l1.5,0.3L395.5,174.9z M395.2,182.7l-79.5,21.5c-0.6-2.2-1.3-4.4-2.1-6.5l77.3-28.3C392.6,173.8,394,178.2,395.2,182.7z
	 M390.7,162.9c-0.1-0.3-0.2-0.6-0.4-0.9l0.3-0.3l1.1,0.1L390.7,162.9z M390.2,160.5l-0.4,0c-0.1-0.3-0.3-0.6-0.4-0.9l1.5,0.1
	L390.2,160.5z M390.6,168.4l-77.3,28.3c-0.8-2.1-1.7-4.2-2.6-6.3l74.5-35C387.2,159.7,389,164,390.6,168.4z M295.8,171.2l-58,48.9
	l53.5-53.7C292.9,167.9,294.4,169.5,295.8,171.2z M296.5,172c1.4,1.7,2.7,3.4,4,5.2l-62,43.6L296.5,172z M296,285
	c-1.4,1.7-2.9,3.3-4.4,4.9l-53.7-53.5L296,285z M290.8,290.7c-1.6,1.6-3.2,3-4.9,4.5l-48.9-58L290.8,290.7z M285.2,295.8
	c-1.7,1.4-3.5,2.7-5.2,4l-43.6-62L285.2,295.8z M324.7,377.4l0.1,1.1l-0.9-0.6l-0.1-1.1L324.7,377.4z M323.6,375.5l-0.1-0.7
	c0.3-0.2,0.5-0.3,0.8-0.5l0.2,1.8L323.6,375.5z M315.9,377.1l-41.3-71.2c2-1.2,3.9-2.4,5.7-3.7l47.4,67.3
	C323.8,372.2,319.9,374.7,315.9,377.1z M322.7,377.2l-1.5-0.9c0.3-0.2,0.5-0.4,0.8-0.5l0.5,0.3L322.7,377.2z M279.1,300.5
	c-1.8,1.3-3.7,2.5-5.6,3.6l-38.1-65.6L279.1,300.5z M272.6,304.6c-1.9,1.1-3.9,2.1-5.8,3.1L234.5,239L272.6,304.6z M265.8,308.1
	c-2,0.9-4,1.8-6.1,2.6L235,243.3l-0.5-2L265.8,308.1z M280.8,397.7l-1.5,9.4l-2.9-10.9c0.8-0.2,1.6-0.5,2.4-0.7L280.8,397.7z
	 M279.9,395.2c0.3-0.1,0.6-0.2,1-0.3l0.4,0.4l-0.2,1.1L279.9,395.2z M281.7,398.7l0.7,0.8l-2,12.1l-0.5-2L281.7,398.7z M281.9,397.4
	l0.2-1.1l0.7,0.8l-0.2,1.1L281.9,397.4z M282.3,395l0.1-0.6c0.3-0.1,0.6-0.2,0.9-0.3l-0.3,1.7L282.3,395z M275.8,394.2l-21.5-79.5
	c1.7-0.5,3.5-1.1,5.1-1.7l28.3,77.3C283.8,391.8,279.8,393,275.8,394.2z M267.6,399l0.2-0.6c0.3-0.1,0.6-0.1,0.9-0.2l-0.4,1.7
	L267.6,399z M267.9,401.2l-0.3,1.1l-0.7-0.9l0.3-1.1L267.9,401.2z M268.8,402.2l4,5.1l0.6,2.2l-4.9-6.3L268.8,402.2z M269.1,400.9
	l0.8-3c0.1,0,0.2-0.1,0.3-0.1l1.9,6.9L269.1,400.9z M259.7,397.9l-4.1-23.2l8.3,0l5.7,21.1C266.4,396.6,263.1,397.3,259.7,397.9z
	 M266.4,399.2l-0.3,1.1l-1-1.3c0.3-0.1,0.6-0.2,0.9-0.2L266.4,399.2z M252.6,401.7l0.2-0.6c0.3,0,0.6-0.1,1-0.1l-0.6,1.6
	L252.6,401.7z M252.7,403.9l-0.4,1.1l-0.6-0.9l0.4-1.1L252.7,403.9z M244.8,399.9l-2.3-25.2l11.9,0l4.2,23.4
	C254.1,398.9,249.5,399.5,244.8,399.9z M251.4,401.9l-0.4,1.1l-0.9-1.5c0.3,0,0.6-0.1,1-0.1L251.4,401.9z M254.8,370.5l-9.6-53.6
	c1-0.2,1.9-0.4,2.9-0.6l14.6,54.2L254.8,370.5z M238.1,254.9l20.6,56.1c-1.6,0.6-3.3,1.1-5,1.6L238.1,254.9z M247.6,314.2
	c-0.9,0.2-1.8,0.4-2.7,0.5l-5.5-30.9L247.6,314.2z M253.8,370.5l-11.6,0l-4.7-52.6c2.3-0.2,4.5-0.5,6.7-0.9L253.8,370.5z
	 M241.1,370.5l-11.4,0l-0.1-52.2c2.3,0,4.5-0.1,6.8-0.3L241.1,370.5z M241.5,374.7l2.3,25.3c-4.6,0.4-9.3,0.6-14,0.7l-0.1-25.9
	L241.5,374.7z M238.6,402.5l-0.7,1.6l-0.5-1l0.3-0.6C238,402.6,238.3,402.5,238.6,402.5z M237.3,405.3l-0.5,1l-0.5-1l0.5-1
	L237.3,405.3z M235.9,402.6l0.3,0.6l-0.5,1l-0.8-1.5C235.2,402.6,235.6,402.6,235.9,402.6z M235.8,406.6l0.5,1l-6.4,14.2l-0.5-1.1
	L235.8,406.6z M236.9,408.7l6.6,12.5c-4.1,0.3-8.3,0.5-12.5,0.5L236.9,408.7z M237.5,407.5l0.5-1l7.1,13.4l-0.4,1.1L237.5,407.5z
	 M238.5,405.3l1.3-2.8c3.1-0.2,6.1-0.5,9.1-0.8l1.7,2.6l-5.1,14.4L238.5,405.3z M251.3,405.3l0.6,0.9l-5.2,14.7l-0.6-1L251.3,405.3z
	 M252.6,407.3l7.7,11.9c-4.1,0.7-8.3,1.2-12.4,1.6L252.6,407.3z M253.1,406.1l0.4-1.1l8.2,12.8l-0.3,1.2L253.1,406.1z M253.9,403.8
	l1-2.9c3.1-0.5,6.1-1,9.1-1.6l1.8,2.4l-3.8,14.8L253.9,403.8z M266.7,402.7l0.7,0.9l-3.9,15l-0.6-1L266.7,402.7z M268.1,404.6
	l5.9,7.6l1.1,4c-3.5,0.9-7,1.6-10.6,2.3L268.1,404.6z M236.2,272.1l7.7,42.8c-2.2,0.4-4.4,0.7-6.6,0.9l-5.3-59.4L236.2,272.1z
	 M236.2,315.9c-2.2,0.2-4.4,0.3-6.6,0.3l-0.2-69l0.9,3.3L236.2,315.9z M233.7,402.7l1.4,2.7l-6.3,13.9l-5.8-13.8l1.6-2.8
	c1.6,0,3.1,0.1,4.7,0.1C230.8,402.8,232.3,402.7,233.7,402.7z M191,400.4l0.2,1.1l-0.7,0.9l-0.2-1.1L191,400.4z M190,400l-0.4-1.7
	c0.3,0.1,0.6,0.1,1,0.2l0.1,0.6L190,400z M191.5,402.8l3.4,14.8l-0.7,1l-3.4-14.9L191.5,402.8z M191.8,399.4l0.4-0.5
	c0.3,0.1,0.6,0.2,0.9,0.2l-1.1,1.3L191.8,399.4z M192.4,401.8l2-2.4c3,0.6,6,1.1,9.1,1.6l0.9,2.9l-8.6,12.6L192.4,401.8z M214,317.1
	c2.2,0.4,4.5,0.7,6.7,0.9l-4.5,52.6l-11.6,0L214,317.1z M213.3,314.8c-0.9-0.2-1.8-0.3-2.7-0.5l8-30.3L213.3,314.8z M215.9,374.8
	l-2.2,25.2c-4.7-0.4-9.3-1-13.9-1.8l4.1-23.4L215.9,374.8z M208.2,401.5l-1,1.5l-0.3-1l0.4-0.6C207.6,401.5,207.9,401.5,208.2,401.5
	z M206.1,403.1l0.3,1l-0.6,0.9l-0.3-1L206.1,403.1z M205.1,402.7l-0.5-1.6c0.3,0,0.6,0.1,1,0.1l0.2,0.6L205.1,402.7z M204.7,405.1
	l0.3,1l-8.8,12.8l-0.3-1.2L204.7,405.1z M205.5,407.4l4.3,13.5c-4.2-0.4-8.3-1-12.4-1.6L205.5,407.4z M206.2,406.3l0.6-0.9l4.7,14.4
	l-0.6,1.1L206.2,406.3z M207.6,404.3l1.8-2.6c3,0.3,6.1,0.6,9.1,0.8l1.2,2.8l-7.5,13.3L207.6,404.3z M220.4,404.1l-0.7-1.6
	c0.3,0,0.7,0,1,0.1l0.2,0.6L220.4,404.1z M221.5,404.4l0.4,1l-0.5,1l-0.4-1L221.5,404.4z M220.2,406.5l0.4,1l-7.6,13.5l-0.4-1.1
	L220.2,406.5z M221.2,408.8l5.5,13c-4.2,0-8.4-0.2-12.5-0.5L221.2,408.8z M221.8,407.6l0.5-1l5.9,14l-0.5,1.1L221.8,407.6z
	 M222.1,403.2l0.3-0.6c0.3,0,0.6,0,1,0l-0.9,1.6L222.1,403.2z M214.8,400.1l2.2-25.3l11.8,0l0.1,25.9
	C224.1,400.7,219.4,400.4,214.8,400.1z M217.3,370.6l4.5-52.5c2.2,0.2,4.5,0.3,6.8,0.3l0.1,52.2L217.3,370.6z M222,315.9l5.6-65.3
	l0.9-3.4l0.2,69C226.3,316.2,224.1,316.1,222,315.9z M220.9,315.9c-2.2-0.2-4.4-0.5-6.6-0.8l7.4-42.7l4.2-15.8L220.9,315.9z
	 M204.5,312.8c-1.7-0.5-3.4-1-5-1.6l20.3-56.3L204.5,312.8z M210.1,316.3c0.9,0.2,1.9,0.4,2.9,0.6l-9.3,53.7l-7.9,0L210.1,316.3z
	 M202.9,374.8l-4,23.2c-3.3-0.6-6.6-1.3-9.9-2.1l5.6-21.1L202.9,374.8z M189.1,401l-2.2,2.7l1.5-5.7c0,0,0,0,0,0L189.1,401z
	 M189.4,402.3l0.2,1.1l-4,4.8l0.5-2L189.4,402.3z M190,404.7l3.2,13.8c-3.2-0.6-6.4-1.3-9.6-2.1l1.5-5.7L190,404.7z M246.4,425.4
	l1.6-2.4c4.6-0.5,9.2-1.1,13.8-1.8l3.1,2.7c-3.4,0.6-6.9,1.2-10.4,1.6H246.4z M264.5,420.7c3.8-0.7,7.5-1.5,11.2-2.5l0.8,3.1
	c-3,0.7-6,1.4-9,2L264.5,420.7z M281.1,414l2.2-13.5l9.6,10.4c-3.9,1.4-7.8,2.6-11.7,3.7L281.1,414z M283.6,399.2l0.2-1.1l10.3,11.1
	l-0.1,1.2L283.6,399.2z M284,396.8l0.5-3.1c2.9-1,5.8-2,8.6-3.2l2.3,2l-1.2,15.2L284,396.8z M294.2,390.1c0.3-0.1,0.6-0.2,0.9-0.4
	l0.4,0.4l-0.1,1.1L294.2,390.1z M288.7,390l-28.3-77.3c2.1-0.8,4.2-1.7,6.3-2.6l35,74.5C297.4,386.5,293.1,388.4,288.7,390z
	 M309.4,386.1l0.2,15.2l-11.1-10.1l0.2-3.1c2.8-1.2,5.6-2.5,8.3-3.9L309.4,386.1z M308,383.8c0.3-0.1,0.6-0.3,0.9-0.4l0.5,0.4l0,1.1
	L308,383.8z M297.6,388.7l-0.1,1.7l-0.8-0.7l0-0.6C297,389,297.3,388.8,297.6,388.7z M296.5,391l0.8,0.7l-0.1,1.1l-0.8-0.7
	L296.5,391z M298.2,395.1l10.5,9.5c-3.8,1.7-7.7,3.3-11.6,4.8L298.2,395.1z M298.3,393.8l0.1-1.1l11.3,10.2l0,1.2L298.3,393.8z
	 M320.3,376.9l2.6,1.6l1.5,15.2l-12-9.1l0-3.1C315,380.1,317.7,378.5,320.3,376.9z M324,379.2l0.9,0.6l1.5,15.5l-0.9-0.7L324,379.2z
	 M326.1,380.5l12,7.5c-3.4,2.4-7,4.6-10.6,6.7L326.1,380.5z M325.9,379.2l-0.1-1.1l12.9,8.1l0.2,1.2L325.9,379.2z M325.7,376.7
	l-0.3-3.1c2.5-1.7,5.1-3.4,7.5-5.3l2.7,1.4l2.8,15L325.7,376.7z M333.8,367.7c0.3-0.2,0.5-0.4,0.8-0.6l0.6,0.3l0.2,1.1L333.8,367.7z
	 M336,366c0.3-0.2,0.5-0.4,0.8-0.6l0.3,1.8l-1-0.5L336,366z M336.3,367.9l1,0.5l0.2,1.1l-1-0.5L336.3,367.9z M328.5,368.9
	l-47.4-67.3c1.8-1.3,3.7-2.7,5.4-4.1l53,62.9C336,363.4,332.3,366.2,328.5,368.9z M344.7,358.7l2.9,1.2l4.1,14.7l-13.4-6.8l-0.6-3.1
	C340,362.7,342.4,360.8,344.7,358.7z M348.1,358l1,0.4l0.3,1.1l-1-0.4L348.1,358z M349.1,354.6c2.2-2.1,4.4-4.3,6.4-6.5l3,0.9
	l5.4,14.3l-13.9-5.7L349.1,354.6z M358.9,347.2l1,0.3l0.4,1l-1-0.3L358.9,347.2z M359.7,343.7c2-2.3,4-4.6,5.9-7l3,0.6l6.6,13.7
	l-14.4-4.4L359.7,343.7z M368.8,335.4l1.1,0.2l0.5,1l-1.1-0.2L368.8,335.4z M369.3,331.9c1.8-2.5,3.6-5,5.3-7.6l3,0.4l7.8,13.1
	l-14.7-3.2L369.3,331.9z M377.6,322.8l1.1,0.1l0.6,1l-1.1-0.1L377.6,322.8z M377.8,319.3c1.6-2.6,3.2-5.3,4.6-8l3,0.1l8.9,12.4
	l-14.9-1.9L377.8,319.3z M385.3,309.4l1.1,0l0.7,0.9l-1.1,0L385.3,309.4z M386.9,308.4l-1.8-2.5c1.4-2.8,2.7-5.6,3.9-8.4l2.9-0.1
	l9.9,11.6L386.9,308.4z M391.7,295.5l1.1-0.1l0.7,0.9l-1.1,0.1L391.7,295.5z M393.3,294.4l-2-2.3c1.1-2.9,2.2-5.8,3.2-8.7l2.9-0.4
	l10.9,10.7L393.3,294.4z M397,281l1.1-0.2l0.8,0.8l-1.1,0.1L397,281z M398.4,279.8l-2.1-2.1c0.9-3,1.7-6,2.4-9l2.8-0.7l11.8,9.7
	L398.4,279.8z M400.9,266.2l1.1-0.2l0.9,0.7l-1.1,0.2L400.9,266.2z M402.5,250.3L402,250c0-0.3,0.1-0.7,0.1-1l1.3,0.9L402.5,250.3z
	 M403.2,252.1l-1.5,0.5c0-0.3,0.1-0.7,0.1-1l0.4-0.1L403.2,252.1z M402.1,207c0-0.3-0.1-0.7-0.1-1l0.4-0.2l1.1,0.4L402.1,207z
	 M402.2,204.6l-0.4-0.2c0-0.3-0.1-0.6-0.1-1l1.5,0.5L402.2,204.6z M404.5,251.7l-0.9-0.6l1-0.3l0.9,0.6L404.5,251.7z M403.7,235.1
	l-0.4-0.2c0-0.3,0-0.7,0-1l1.4,0.8L403.7,235.1z M404.6,236.8l-1.4,0.6c0-0.3,0-0.7,0.1-1l0.4-0.2L404.6,236.8z M403.3,222.2
	c0-0.3,0-0.7,0-1l0.4-0.2l1,0.5L403.3,222.2z M403.6,219.8l-0.4-0.2c0-0.3,0-0.6,0-1l1.4,0.6L403.6,219.8z M405.9,236.3l-1-0.5
	l1-0.4l1,0.6L405.9,236.3z M405.9,220.8l-1-0.5l1-0.5l1,0.5L405.9,220.8z M404.5,205.4l-1.1-0.4l0.9-0.6l1.1,0.4L404.5,205.4z
	 M401.9,190.2l-1.1-0.3l0.9-0.7l1.1,0.3L401.9,190.2z M401.4,188.1l-2.9-0.7c-0.7-3-1.5-6-2.4-9l2.1-2l15,2.5L401.4,188.1z
	 M397.9,175.3l-1.1-0.2l0.8-0.7l1.1,0.2L397.9,175.3z M397.3,173.2l-2.9-0.5c-1-3-2.1-5.9-3.2-8.8l1.9-2.1l15.2,1.2L397.3,173.2z
	 M392.6,160.7l-1.1-0.1l0.7-0.8l1.1,0.1L392.6,160.7z M391.8,158.7l-2.9-0.2c-1.2-2.9-2.6-5.7-4-8.4l1.7-2.3l15.2-0.2L391.8,158.7z
	 M386.1,146.7l-1.1,0l0.7-0.9l1.1,0L386.1,146.7z M385.1,144.8l-2.9,0c-1.5-2.7-3.1-5.4-4.7-8.1l1.5-2.5l15.2-1.5L385.1,144.8z
	 M378.4,133.3l-1.1,0.1l0.6-0.9l1.1-0.1L378.4,133.3z M377.2,131.5l-3,0.3c-1.7-2.6-3.5-5.1-5.3-7.6l1.3-2.6l15-2.8L377.2,131.5z
	 M369.5,120.6l-1.1,0.2l0.5-1l1.1-0.2L369.5,120.6z M368.2,118.9l-3,0.6c-1.9-2.4-3.9-4.8-6-7.1l1.1-2.7l14.7-4.1L368.2,118.9z
	 M359.6,108.8l-1.1,0.3l0.4-1l1.1-0.3L359.6,108.8z M358.2,107.2l-2.9,0.8c-2.1-2.2-4.3-4.4-6.6-6.5l0.9-2.8l14.3-5.4L358.2,107.2z
	 M348.7,97.8l-1.1,0.4l0.3-1l1.1-0.4L348.7,97.8z M348.3,99.1l-0.5,1.6c-0.2-0.2-0.5-0.5-0.7-0.7l0.1-0.5L348.3,99.1z M290.6,165.6
	l-53.5,53.7l48.6-58.2C287.4,162.5,289,164,290.6,165.6z M236.2,218.6l43.4-62.2c1.8,1.3,3.6,2.6,5.3,4L236.2,218.6z M278.7,155.8
	L235.4,218l37.8-65.8C275.1,153.4,276.9,154.6,278.7,155.8z M234.5,217.5l31.9-68.8c2,0.9,3.9,2,5.9,3.1L234.5,217.5z M233.5,217.1
	l25.8-71.4c2.1,0.8,4.1,1.6,6.1,2.5L233.5,217.1z M232.5,216.7l19.5-73.3c2.1,0.6,4.2,1.2,6.3,2L232.5,216.7z M236.9,140.7
	c2.2,0.2,4.4,0.5,6.6,0.9l-13,74.7L236.9,140.7z M229.4,216.2l-0.2-75.9c2.2,0,4.4,0.1,6.6,0.3L229.4,216.2z M244.5,141.7
	c2.2,0.4,4.3,0.8,6.5,1.4l-19.5,73.3L244.5,141.7z M238.4,228.2c0,5.2-4.2,9.5-9.5,9.5c-5.2,0-9.5-4.2-9.5-9.5
	c0-5.2,4.2-9.5,9.5-9.5C234.1,218.7,238.4,223,238.4,228.2z M222.4,238.5l-37.8,65.8c-1.9-1.1-3.8-2.3-5.6-3.5L222.4,238.5z
	 M97.5,339.7l62.9-53c1.5,1.7,3,3.4,4.6,5L106.9,350C103.7,346.7,100.5,343.3,97.5,339.7z M101.8,347.7l-1.8,0.5l0.4-1l0.7-0.2
	C101.4,347.3,101.6,347.5,101.8,347.7z M99.9,345.7l-0.3,0.7l-1.1,0.3l0.7-1.7C99.5,345.2,99.7,345.5,99.9,345.7z M90.5,335.6
	l0.8-0.1c0.2,0.3,0.4,0.5,0.6,0.8l-1.9,0.3L90.5,335.6z M89.8,334.7l-1.1,0.2l0.8-1.6c0.2,0.3,0.4,0.5,0.6,0.8L89.8,334.7z
	 M88.3,327.9l67.3-47.4c1.3,1.8,2.7,3.7,4.1,5.4l-62.9,53C93.8,335.4,91,331.7,88.3,327.9z M81.7,323.1l0.7-0.1
	c0.2,0.3,0.3,0.5,0.5,0.8l-1.8,0.2L81.7,323.1z M81.1,322.1l-1.1,0.1l1-1.5c0.2,0.3,0.4,0.5,0.5,0.8L81.1,322.1z M80.1,315.2
	l71.2-41.3c1.2,2,2.4,3.9,3.7,5.7L87.7,327C85,323.2,82.5,319.3,80.1,315.2z M74,310l0.7,0c0.2,0.3,0.3,0.6,0.4,0.9l-1.8,0L74,310z
	 M72.4,308.9l1.1-1.4c0.1,0.3,0.3,0.6,0.4,0.9l-0.4,0.5L72.4,308.9z M73.1,302l74.5-35c1,2.1,2.1,4,3.2,6l-71.2,41.3
	C77.2,310.3,75.1,306.2,73.1,302z M58.2,267.1l0.6,0.2c0.1,0.3,0.1,0.6,0.2,0.9l-1.7-0.4L58.2,267.1z M56.9,265.7l1.3-1.1
	c0.1,0.3,0.2,0.6,0.2,1l-0.5,0.4L56.9,265.7z M57.2,244.2l82-7.4c0.2,2.3,0.5,4.5,0.9,6.7l-81,14.5
	C58.3,253.5,57.7,248.9,57.2,244.2z M57.8,191.3l0.5,0.4c-0.1,0.3-0.1,0.6-0.2,0.9l-1.3-1.1L57.8,191.3z M57.2,189.5l1.6-0.4
	c-0.1,0.3-0.1,0.6-0.2,1l-0.6,0.1L57.2,189.5z M59,199.2l81.1,14.1c-0.4,2.2-0.7,4.5-0.9,6.7l-82-7C57.6,208.4,58.2,203.8,59,199.2z
	 M73.2,148.3l0.4,0.5c-0.1,0.3-0.3,0.6-0.4,0.9l-1-1.4L73.2,148.3z M73.1,146.4l1.7,0.1c-0.2,0.3-0.3,0.6-0.4,0.9l-0.6,0L73.1,146.4
	z M79.2,142.9l71.4,41c-1.1,2-2.2,4-3.1,6l-74.7-34.6C74.7,151.1,76.9,146.9,79.2,142.9z M81.1,135.6c-0.2,0.3-0.4,0.5-0.5,0.8
	l-0.9-1.5l1.1,0.1L81.1,135.6z M80.8,133.1l1.7,0.2c-0.2,0.3-0.4,0.5-0.5,0.8l-0.6-0.1L80.8,133.1z M87.2,130.2l67.5,47
	c-1.3,1.9-2.5,3.8-3.6,5.7l-71.4-41C82.1,137.9,84.6,134,87.2,130.2z M89.7,123.1c-0.2,0.3-0.4,0.5-0.6,0.8l-0.7-1.6l1.1,0.2
	L89.7,123.1z M89.7,120.6l1.7,0.4c-0.2,0.3-0.4,0.5-0.6,0.8l-0.6-0.1L89.7,120.6z M96.3,118.2l63.2,52.8c-1.4,1.7-2.8,3.6-4.1,5.4
	l-67.5-47C90.5,125.5,93.3,121.8,96.3,118.2z M106.4,107.1l58.3,58.1c-1.6,1.6-3.1,3.3-4.6,5L97,117.4
	C100,113.8,103.1,110.4,106.4,107.1z M98.2,110.5l1,0.3l0.2,0.6c-0.2,0.2-0.4,0.5-0.6,0.7L98.2,110.5z M99.6,108.9l1.7,0.5
	c-0.2,0.2-0.5,0.5-0.7,0.7l-0.6-0.2L99.6,108.9z M218.7,221.8L152.9,184c1.1-1.9,2.3-3.8,3.6-5.6L218.7,221.8z M157.1,177.6
	c1.3-1.8,2.6-3.6,4-5.3l58.2,48.6L157.1,177.6z M218.2,222.7l-68.8-31.9c0.9-2,2-3.9,3.1-5.9L218.2,222.7z M217.7,223.7l-71.4-25.8
	c0.8-2.1,1.6-4.1,2.5-6.1L217.7,223.7z M217.4,224.6L144,205.2c0.6-2.1,1.2-4.2,2-6.3L217.4,224.6z M217.1,225.7l-74.7-13
	c0.4-2.2,0.8-4.3,1.4-6.5L217.1,225.7z M216.9,226.7l-75.6-6.4c0.2-2.2,0.5-4.4,0.9-6.6L216.9,226.7z M216.8,227.8l-75.9,0.2
	c0-2.2,0.1-4.4,0.3-6.6L216.8,227.8z M216.8,228.8l-75.6,6.8c-0.2-2.2-0.3-4.4-0.3-6.6L216.8,228.8z M216.9,229.9l-74.7,13.3
	c-0.4-2.2-0.7-4.3-0.9-6.6L216.9,229.9z M217.1,230.9l-73.3,19.8c-0.6-2.1-1-4.3-1.4-6.5L217.1,230.9z M217.4,231.9L146.1,258
	c-0.7-2.1-1.4-4.2-2-6.3L217.4,231.9z M217.7,232.9l-68.7,32.2c-0.9-2-1.8-4-2.6-6.1L217.7,232.9z M218.2,233.9l-65.6,38.1
	c-1.1-1.9-2.1-3.9-3.1-5.8L218.2,233.9z M218.7,234.8l-62,43.6c-1.3-1.8-2.4-3.7-3.6-5.6L218.7,234.8z M219.3,235.6l-58,48.9
	c-1.4-1.7-2.7-3.5-4-5.3L219.3,235.6z M161.8,171.5c1.4-1.7,2.9-3.3,4.5-4.9l53.7,53.5L161.8,171.5z M147,190.9
	c-0.9,2.1-1.8,4.1-2.6,6.3l-77.5-28c1.6-4.4,3.4-8.7,5.4-12.9L147,190.9z M67.8,161.1l-0.5,0l-0.7-0.8l1.7-0.1
	C68.1,160.5,67.9,160.8,67.8,161.1z M66.8,162.2l0.4,0.4c-0.1,0.3-0.2,0.6-0.4,0.9l-1.1-1.3L66.8,162.2z M144,198.1
	c-0.8,2.1-1.4,4.3-2,6.5l-79.6-21.1c1.2-4.5,2.6-9,4.2-13.4L144,198.1z M62.6,175.4l-0.6,0.1l-0.8-0.8l1.7-0.2
	C62.8,174.8,62.7,175.1,62.6,175.4z M61.7,176.6l0.4,0.4c-0.1,0.3-0.2,0.6-0.3,0.9l-1.2-1.2L61.7,176.6z M62.1,184.5l79.6,21.1
	c-0.6,2.2-1,4.4-1.4,6.6l-81.1-14.1C60,193.6,60.9,189,62.1,184.5z M139.1,221.1c-0.2,2.2-0.3,4.5-0.3,6.8l-82.3,0.2
	c0-4.7,0.2-9.4,0.6-14L139.1,221.1z M138.8,229c0,2.3,0.1,4.5,0.3,6.8l-82,7.4c-0.4-4.6-0.7-9.3-0.7-14L138.8,229z M140.3,244.6
	c0.4,2.2,0.9,4.5,1.5,6.6l-79.5,21.5c-1.2-4.5-2.2-9-3-13.7L140.3,244.6z M62.3,280.3l-0.4,0.4l-1.1-0.2l1.3-1.2
	C62.1,279.7,62.2,280,62.3,280.3z M62.2,281.8l0.6,0.1c0.1,0.3,0.2,0.6,0.3,0.9l-1.7-0.3L62.2,281.8z M62.6,273.8l79.5-21.5
	c0.6,2.2,1.3,4.4,2.1,6.5l-77.3,28.3C65.2,282.7,63.8,278.3,62.6,273.8z M67.1,293.7c0.1,0.3,0.2,0.6,0.4,0.9l-0.4,0.5l-1.1-0.1
	L67.1,293.7z M67.5,296.1l0.6,0c0.1,0.3,0.3,0.6,0.4,0.9l-1.8-0.1L67.5,296.1z M67.2,288.1l77.3-28.3c0.8,2.1,1.7,4.2,2.6,6.3
	l-74.5,35C70.7,296.8,68.8,292.5,67.2,288.1z M162,285.3l58-48.9l-53.5,53.7C165,288.6,163.5,287,162,285.3z M227.3,216.3L214,141.6
	c2.2-0.4,4.3-0.7,6.6-0.9L227.3,216.3z M221.6,140.6c2.2-0.2,4.4-0.3,6.6-0.3l0.2,75.9L221.6,140.6z M226.3,216.4l-19.8-73.3
	c2.1-0.6,4.3-1,6.5-1.4L226.3,216.4z M225.2,216.7l-26.1-71.2c2.1-0.7,4.2-1.4,6.3-2L225.2,216.7z M224.2,217.1L192,148.4
	c2-0.9,4-1.8,6.1-2.6L224.2,217.1z M223.3,217.5l-38.1-65.6c1.9-1.1,3.9-2.1,5.8-3.1L223.3,217.5z M222.4,218.1l-43.6-62
	c1.8-1.3,3.7-2.5,5.6-3.6L222.4,218.1z M177.9,156.7l43.6,62l-48.9-58C174.3,159.3,176.1,157.9,177.9,156.7z M220.7,219.4L167,165.9
	c1.6-1.6,3.2-3,4.9-4.5L220.7,219.4z M109.4,101.2l-0.5-1.7l1,0.4l0.2,0.6C109.9,100.8,109.6,101,109.4,101.2z M108.6,98.2l-0.3-1.1
	l1,0.4l0.3,1.1L108.6,98.2z M108.5,102c-2.2,2.1-4.4,4.3-6.5,6.5l-2.9-0.9l-5.4-14.3l13.9,5.7L108.5,102z M98.7,109.5l-1-0.3l-0.4-1
	l1,0.3L98.7,109.5z M98,113c-2,2.3-4,4.6-5.9,7l-3-0.6l-6.6-13.7l14.4,4.4L98,113z M88.9,121.3l-1.1-0.2l-0.5-1l1.1,0.2L88.9,121.3z
	 M88.4,124.8c-1.8,2.5-3.6,5-5.3,7.5l-3-0.4l-7.8-13.1l14.7,3.2L88.4,124.8z M80.1,133.9l-1.1-0.1l-0.6-1l1.1,0.1L80.1,133.9z
	 M79.9,137.4c-1.6,2.6-3.1,5.3-4.6,8l-3-0.1l-8.9-12.4l14.9,1.9L79.9,137.4z M72.4,147.2l-1.1,0l-0.7-0.9l1.1,0L72.4,147.2z
	 M70.8,148.2l1.8,2.5c-1.4,2.7-2.7,5.5-3.9,8.3l-3,0.2l-9.9-11.6L70.8,148.2z M65.9,161.2l-1.1,0.1l-0.7-0.9l1.1-0.1L65.9,161.2z
	 M64.4,162.3l2,2.4c-1.1,2.8-2.2,5.7-3.1,8.7l-3,0.4l-10.9-10.7L64.4,162.3z M60.7,175.6l-1.1,0.1l-0.8-0.8l1.1-0.1L60.7,175.6z
	 M59.3,176.9l2.2,2.2c-0.9,2.9-1.6,5.9-2.4,8.9l-2.9,0.7L44.4,179L59.3,176.9z M56.8,190.5l-1.1,0.2l-0.9-0.7l1.1-0.2L56.8,190.5z
	 M55.4,191.9l2.4,1.9c-0.6,3-1.1,6-1.6,9.1l-2.9,0.9l-12.6-8.6L55.4,191.9z M55.2,206.4l0.5,0.4c0,0.3-0.1,0.6-0.1,1l-1.4-1
	L55.2,206.4z M54.5,204.6l1.6-0.5c0,0.3-0.1,0.6-0.1,1l-0.6,0.2L54.5,204.6z M55.7,249.6c0,0.3,0.1,0.6,0.1,1l-0.5,0.3l-1.1-0.4
	L55.7,249.6z M55.5,252.1l0.6,0.2c0,0.3,0.1,0.6,0.1,1l-1.6-0.6L55.5,252.1z M53.2,205l0.9,0.6l-1,0.3l-0.9-0.6L53.2,205z M54,221.6
	l0.6,0.3c0,0.3,0,0.7,0,1L53,222L54,221.6z M53.1,219.9l1.5-0.7c0,0.3,0,0.7,0,1l-0.5,0.2L53.1,219.9z M54.5,234.4c0,0.3,0,0.7,0,1
	l-0.5,0.3l-1-0.5L54.5,234.4z M54,236.9l0.6,0.3c0,0.3,0,0.6,0.1,1l-1.6-0.7L54,236.9z M51.8,220.4l1,0.5l-1,0.4l-1-0.5L51.8,220.4z
	 M51.8,235.9l1,0.5l-1,0.5l-1-0.5L51.8,235.9z M51.9,238l2.9,1.3c0.2,3.1,0.5,6.1,0.8,9.1l-2.6,1.7L38.6,245L51.9,238z M53.1,251.3
	l1.1,0.4l-0.9,0.6l-1-0.4L53.1,251.3z M53.4,253.4l2.9,1c0.5,3,1,6.1,1.6,9.1l-2.4,1.9l-14.8-3.8L53.4,253.4z M55.8,266.5l1.1,0.3
	l-0.9,0.7l-1.1-0.3L55.8,266.5z M56.3,268.6l3,0.8c0.7,3,1.5,5.9,2.4,8.9l-2.2,2.1l-15-2.5L56.3,268.6z M59.8,281.4l1.1,0.2
	l-0.8,0.7l-1.1-0.2L59.8,281.4z M60.4,283.5l3.1,0.5c1,2.9,2,5.8,3.2,8.6l-2.1,2.3l-15.2-1.2L60.4,283.5z M65.1,296l1.1,0.1
	l-0.7,0.8l-1.1-0.1L65.1,296z M65.9,297.9l3.1,0.2c1.2,2.8,2.5,5.5,3.9,8.3l-1.9,2.5l-15.2,0.2L65.9,297.9z M71.6,310l1.1,0
	l-0.7,0.9l-1.1,0L71.6,310z M72.6,311.9l3.2,0c1.5,2.7,3,5.3,4.6,7.9l-1.7,2.6l-15.2,1.5L72.6,311.9z M79.3,323.4l1.1-0.1l-0.6,0.9
	l-1.1,0.1L79.3,323.4z M80.4,325.2l3.2-0.3c1.7,2.5,3.4,5,5.2,7.4l-1.4,2.8l-15,2.8L80.4,325.2z M88.1,336l1.1-0.2l-0.5,1l-1.1,0.2
	L88.1,336z M89.4,337.7l3.2-0.6c1.9,2.4,3.8,4.7,5.8,6.9l-1.2,2.9l-14.7,4.1L89.4,337.7z M98.1,347.9l1.1-0.3l-0.4,1l-1.1,0.3
	L98.1,347.9z M99.5,349.5l3.2-0.9c2.1,2.2,4.2,4.3,6.4,6.4l-0.9,3.1l-14.3,5.4L99.5,349.5z M109,358.8l1-0.4l-0.3,1l-1,0.4
	L109,358.8z M109.4,357.6l0.5-1.8c0.2,0.2,0.5,0.5,0.7,0.7l-0.2,0.7L109.4,357.6z M167.3,290.9l53.5-53.7l-48.6,58.2
	C170.5,294,168.8,292.5,167.3,290.9z M221.6,237.9l-43.4,62.2c-1.8-1.3-3.6-2.6-5.3-4L221.6,237.9z M183.6,306.1l-41,71.4
	c-4-2.3-8-4.8-11.8-7.5l47.1-67.5C179.7,303.7,181.6,304.9,183.6,306.1z M137,376.6l-1.6,0.9l0.1-1.1l0.6-0.4
	C136.5,376.2,136.7,376.4,137,376.6z M133.6,376.3l0.2-1.8c0.3,0.2,0.6,0.3,0.8,0.5l-0.1,0.7L133.6,376.3z M134.4,377.1l-0.1,1.1
	l-1,0.6l0.1-1.1L134.4,377.1z M133.4,393.7l1.9-14.9l2.8-1.6c2.6,1.6,5.2,3.1,7.9,4.6l-0.1,3.1L133.4,393.7z M185.6,304.8l37.8-65.8
	l-31.9,68.8C189.4,306.9,187.5,305.9,185.6,304.8z M223.5,241.3l-0.5,1.9l-24.4,67.6c-2.1-0.8-4.1-1.6-6.1-2.5L223.5,241.3z
	 M198.8,313.2c1.7,0.6,3.4,1.1,5.2,1.6l-21.1,79.6c-4.1-1.1-8.1-2.4-12-3.8L198.8,313.2z M176.1,396.5l0.1,1.1l-0.8,0.8l-0.1-1.1
	L176.1,396.5z M175.2,395.9l-0.2-1.7c0.3,0.1,0.6,0.2,0.9,0.3l0.1,0.6L175.2,395.9z M174.6,399.3l-10.9,11.1l-0.1-1.2l10.8-11
	L174.6,399.3z M174.8,400.6l1.9,14c-4-1.1-8-2.4-11.9-3.8L174.8,400.6z M175.7,399.7l0.8-0.8l1.8,12.8l-0.6,2.2L175.7,399.7z
	 M181.9,422.5c2.8,0.7,5.6,1.3,8.4,1.9l-1.2,1h-8L181.9,422.5z M193,424.9c1,0.2,2.1,0.4,3.1,0.5h-3.7L193,424.9z M265.9,424.7
	l0.8,0.7h-5C263.1,425.2,264.5,424.9,265.9,424.7z M284.2,425.4l-1.3-4.7c3.6-1,7.1-2.1,10.6-3.3l-2.7,8H284.2z M282.6,419.7l-0.8-3
	c4.5-1.3,9-2.7,13.4-4.3l-1.3,3.8C290.2,417.4,286.4,418.6,282.6,419.7z M295.2,408.8l1.2-15.4l0.8,0.7l-1.2,15.5L295.2,408.8z
	 M297.8,411.4c4.4-1.6,8.6-3.4,12.8-5.4l3.6,1.8c-5.8,2.8-11.7,5.2-17.8,7.4L297.8,411.4z M339.6,385.5l-2.8-15.1l1,0.5l2.9,15.3
	L339.6,385.5z M338.5,369.1L352,376l0.3,1.2l-13.6-7L338.5,369.1z M348.8,360.4l1,0.4l4.2,15l-1-0.5L348.8,360.4z M351,361.3
	l13.1,5.3c-3,2.9-6.1,5.7-9.2,8.5L351,361.3z M350.6,360l-0.3-1.1l14.1,5.7l0.4,1.1L350.6,360z M359.8,349.5l1,0.3l5.5,14.5
	l-1.1-0.4L359.8,349.5z M362.1,350.2l13.5,4.2c-2.7,3.2-5.6,6.2-8.5,9.2L362.1,350.2z M361.7,348.9l-0.4-1l14.5,4.5l0.5,1.1
	L361.7,348.9z M369.9,337.6l1.1,0.2l6.7,14l-1.1-0.3L369.9,337.6z M372.2,338.1l13.8,3c-2.4,3.4-5,6.7-7.6,10L372.2,338.1z
	 M371.7,336.9l-0.5-1l14.8,3.2l0.6,1L371.7,336.9z M378.9,324.9l1.1,0.1l7.9,13.4l-1.1-0.2L378.9,324.9z M381.3,325.2l14.1,1.8
	c-2.1,3.6-4.4,7.1-6.8,10.6L381.3,325.2z M380.6,324l-0.6-1l15.1,1.9l0.7,1L380.6,324z M395.7,323.9l-9-12.5l1.1,0l9,12.6
	L395.7,323.9z M389.1,311.5l14.2,0.5c-1.8,3.8-3.8,7.5-5.8,11.2L389.1,311.5z M388.3,310.4l-0.6-0.9l15.2,0.6l0.8,0.9L388.3,310.4z
	 M403.4,309l-10-11.7l1.1,0l10.1,11.8L403.4,309z M395.8,297.2l14.3-0.7c-1.5,4-3.1,7.9-4.9,11.7L395.8,297.2z M394.9,296.2
	l-0.7-0.8l15.2-0.8l0.9,0.8L394.9,296.2z M401.1,282.4l14.2-2c-1.2,4.1-2.4,8.1-3.8,12.1L401.1,282.4z M400.2,281.5l-0.8-0.8l15-2.1
	l0.9,0.8L400.2,281.5z M405.2,267.2l13.9-3.2c-0.8,4.2-1.7,8.3-2.7,12.4L405.2,267.2z M418.3,261.1l-12.7-8.7l1-0.3l12.8,8.8
	L418.3,261.1z M420.4,244.5l-13.4-7.6l1-0.4l13.5,7.6L420.4,244.5z M408,219.7l-1-0.5l13.4-7.1l1.1,0.4L408,219.7z M406.6,204.1
	l-1.1-0.4l12.8-8.2l1.2,0.3L406.6,204.1z M405.1,189l11.3-8.8c1,4.1,2,8.2,2.7,12.4L405.1,189z M414.4,178l-15.2-2.5l0.8-0.7
	l15.3,2.5L414.4,178z M401,173.8l10.5-9.8c1.4,4,2.7,8,3.8,12.1L401,173.8z M409.3,162l-15.4-1.2l0.7-0.8l15.5,1.2L409.3,162z
	 M395.6,159l9.6-10.6c1.7,3.9,3.4,7.8,4.9,11.7L395.6,159z M402.8,146.5l-15.4,0.2l0.7-0.9l15.5-0.2L402.8,146.5z M388.9,144.8
	l8.6-11.4c2.1,3.7,4,7.4,5.9,11.2L388.9,144.8z M395.1,131.7l-15.3,1.5l0.6-0.9l15.5-1.5L395.1,131.7z M381,131.1l7.6-12.1
	c2.4,3.5,4.7,7,6.8,10.7L381,131.1z M379.7,131.3l-1.1,0.1l8.1-12.9l1.2-0.2L379.7,131.3z M386,117.5l-15.1,2.8l0.5-1l15.3-2.9
	L386,117.5z M372,118.2l6.5-12.7c2.7,3.3,5.2,6.6,7.7,10L372,118.2z M370.7,118.5l-1.1,0.2l6.9-13.5l1.2-0.3L370.7,118.5z
	 M375.7,104.3l-14.8,4.2l0.4-1l15-4.2L375.7,104.3z M361.8,106.2l5.4-13.2c2.9,3,5.8,6.1,8.5,9.3L361.8,106.2z M360.5,106.5
	l-1.1,0.3l5.7-14.1l1.1-0.4L360.5,106.5z M364.4,91.9L350,97.4l0.3-1.1l14.5-5.5L364.4,91.9z M350.7,95l4.2-13.6
	c3.2,2.7,6.3,5.6,9.3,8.5L350.7,95z M349.4,95.5l-1.1,0.4l4.5-14.5l1.1-0.5L349.4,95.5z M352,80.6l-13.9,6.7l0.2-1.1l14-6.7
	L352,80.6z M351.5,82l-4.4,14.4l-2.8,1.1c-2.3-2-4.7-4-7.1-5.9l0.6-2.9L351.5,82z M339,95.6l-52.8,63.2c-1.8-1.4-3.6-2.8-5.4-4.1
	l47.1-67.5C331.7,89.9,335.4,92.7,339,95.6z M333.4,88.6l1.4-0.7l-0.2,1.1l-0.5,0.2C333.9,89,333.7,88.8,333.4,88.6z M335.5,90.2
	l0.1-0.5l1-0.5l-0.3,1.6C336,90.6,335.7,90.4,335.5,90.2z M336.9,87.9l-1,0.5l0.2-1.1l1-0.5L336.9,87.9z M335.2,86.6l-2.7,1.3
	c-2.5-1.8-5-3.6-7.6-5.3l0.4-2.9l13.1-7.8L335.2,86.6z M325.4,78.3l0.1-1.1l13.4-7.9l-0.2,1.1L325.4,78.3z M325.7,75.9l1.8-14.2
	c3.6,2.2,7.2,4.4,10.7,6.8L325.7,75.9z M324.3,62.9l-1.9,14.9l-2.6,1.5c-2.7-1.6-5.3-3.2-8.1-4.7l0.1-2.9L324.3,62.9z M306.5,72
	c-2.8-1.4-5.6-2.7-8.5-3.9l-0.1-2.9l11.6-9.9l-0.6,15L306.5,72z M308.9,71.6l0,1.1l-0.4,0.3c-0.3-0.2-0.6-0.3-0.9-0.4L308.9,71.6z
	 M309.5,53.8l-11.7,10l-0.1-1.1l11.8-10.1L309.5,53.8z M297.7,61.4L297,47.1c4,1.5,7.9,3.1,11.7,4.9L297.7,61.4z M259,143.4
	c-2.1-0.8-4.3-1.4-6.5-2l21.1-79.6c4.5,1.2,9,2.6,13.4,4.2L259,143.4z M279.4,61.2l1.1-1.1l0.1,1.1l-0.3,0.3
	C280,61.4,279.7,61.3,279.4,61.2z M281.5,60.2l-0.1-1.1l0.8-0.8l0.2,1.1L281.5,60.2z M282.5,60.7l0.2,1.5c-0.3-0.1-0.6-0.2-0.9-0.3
	l-0.1-0.4L282.5,60.7z M283.1,57.4L294,46.3l0.1,1.2l-10.8,11L283.1,57.4z M282.9,56l-2-14.2c4.1,1.1,8.1,2.4,12.1,3.8L282.9,56z
	 M282,57l-0.8,0.8l-2.1-15l0.8-0.9L282,57z M268.2,54.4l-0.2-1.1l9.8-12l0.2,1.2L268.2,54.4z M267.7,52l-3.2-14
	c4.2,0.8,8.3,1.7,12.4,2.7L267.7,52z M266.9,53l-0.7,0.9l-3.4-14.8l0.7-1L266.9,53z M252.9,51.6l-0.3-1l8.8-12.8l0.3,1.1L252.9,51.6
	z M252.2,49.3l-4.4-13.6c4.2,0.4,8.4,1,12.6,1.7L252.2,49.3z M251.4,50.4l-0.6,0.9l-4.7-14.5l0.6-1L251.4,50.4z M237.4,50.2l-0.4-1
	l7.6-13.5l0.4,1.1L237.4,50.2z M236.5,47.9l-5.6-13.2c4.3,0,8.5,0.2,12.7,0.5L236.5,47.9z M235.8,49.1l-0.6,1l-5.9-14l0.5-1.1
	L235.8,49.1z M222.7,53.9c-0.3,0-0.7,0-1,0l-0.2-0.4l0.5-1L222.7,53.9z M221.9,50.1l-0.5-1l6.4-14.1l0.5,1.1L221.9,50.1z
	 M220.7,47.9L214,35.3c4.2-0.3,8.4-0.5,12.7-0.5L220.7,47.9z M221.3,51.3l-0.5,1l-0.5-1l0.5-1L221.3,51.3z M220.2,49.2l-0.5,1
	l-7.1-13.4l0.4-1.1L220.2,49.2z M219.8,52.6l0.5,1l-0.2,0.4c-0.3,0-0.7,0-1,0L219.8,52.6z M228,55.8l0.2,82.3
	c-2.3,0-4.6,0.1-6.8,0.3l-7.4-82C218.6,56.1,223.3,55.9,228,55.8z M220.3,138.6c-2.3,0.2-4.5,0.5-6.7,0.9l-14.5-81
	c4.6-0.8,9.2-1.4,13.9-1.9L220.3,138.6z M205.1,55l-0.2,0.5c-0.3,0-0.6,0.1-1,0.1l0.5-1.5L205.1,55z M205,52.8l0.4-1.1l0.6,0.9
	l-0.4,1.1L205,52.8z M206.5,55.2l-0.2-0.4l0.4-1.1l0.9,1.3C207.2,55.1,206.8,55.2,206.5,55.2z M206.4,51.4l-0.6-0.9l5.1-14.7l0.6,1
	L206.4,51.4z M205,49.3l-7.8-12c4.2-0.7,8.3-1.2,12.6-1.7L205,49.3z M204.6,50.6l-0.4,1.1L196,38.9l0.3-1.2L204.6,50.6z M191,54
	l-0.7-0.9l3.9-15l0.6,1L191,54z M189.5,52.1l-8.8-11.3c4.1-1,8.2-2,12.4-2.7L189.5,52.1z M189.2,53.4l-0.3,1.1l-9.3-12l0.2-1.2
	L189.2,53.4z M176,58l-0.7-0.8l2.5-15.3l0.7,0.9L176,58z M174.3,56.2l-9.7-10.5c4-1.4,8-2.7,12.1-3.8L174.3,56.2z M174.1,57.5
	l-0.2,1.1l-10.3-11.1l0.1-1.2L174.1,57.5z M163.4,66.5c-0.3,0.1-0.6,0.2-0.9,0.4l-0.4-0.3l0.1-1.1L163.4,66.5z M169.1,66.5
	l28.3,77.3c-2.1,0.8-4.2,1.7-6.3,2.6l-35-74.5C160.4,70,164.7,68.2,169.1,66.5z M148.3,70.5l-0.2-15.2l11.1,10.1l-0.2,3
	c-2.8,1.2-5.6,2.6-8.4,4L148.3,70.5z M149.6,72.9c-0.3,0.1-0.6,0.3-0.9,0.5l-0.4-0.3l0-1.1L149.6,72.9z M160.1,67.9l0.1-1.6L161,67
	l0,0.5C160.7,67.6,160.4,67.7,160.1,67.9z M161.1,65.7l-0.8-0.7l0.1-1.1l0.8,0.7L161.1,65.7z M159.5,61.6L148.9,52
	c3.8-1.7,7.7-3.4,11.7-4.9L159.5,61.6z M159.4,62.9l-0.1,1.1l-11.3-10.2l0-1.2L159.4,62.9z M137.3,79.7l-2.5-1.6L133.3,63l12,9.1
	l0,3C142.6,76.5,140,78.1,137.3,79.7z M133.7,77.5l-0.9-0.6l-1.5-15.5l0.9,0.7L133.7,77.5z M131.6,76.2l-12-7.5
	c3.5-2.4,7-4.6,10.6-6.8L131.6,76.2z M131.8,77.5l0.1,1.1L119,70.5l-0.2-1.2L131.8,77.5z M132,79.9l0.3,3.1
	c-2.6,1.7-5.1,3.5-7.5,5.3l-2.7-1.4l-2.8-15L132,79.9z M123.8,89c-0.3,0.2-0.5,0.4-0.8,0.6l-0.5-0.3l-0.2-1.1L123.8,89z M121.7,90.7
	c-0.3,0.2-0.5,0.4-0.8,0.6l-0.3-1.7l1,0.5L121.7,90.7z M121.3,88.7l-1-0.5l-0.2-1.1l1,0.5L121.3,88.7z M129.3,87.6l47.4,67.3
	c-1.8,1.3-3.7,2.7-5.4,4.1l-53-62.9C121.8,93.2,125.5,90.3,129.3,87.6z M113,97.9l-2.8-1.1l-4.1-14.7l13.4,6.8L120,92
	C117.6,93.9,115.3,95.9,113,97.9z M105.7,80.7l-0.3-1.2l13.6,7l0.2,1.1L105.7,80.7z M108.9,96.3l-1-0.4l-4.2-15l1.1,0.5L108.9,96.3z
	 M106.7,95.4L93.6,90c3-2.9,6.1-5.8,9.2-8.5L106.7,95.4z M107,96.6l0.3,1.1L93.3,92l-0.4-1.1L107,96.6z M97.9,107.2l-1-0.3
	l-5.5-14.5l1.1,0.4L97.9,107.2z M95.5,106.5L82,102.3c2.7-3.2,5.6-6.2,8.5-9.2L95.5,106.5z M96,107.8l0.4,1l-14.5-4.5l-0.5-1.1
	L96,107.8z M87.8,119.1l-1.1-0.2l-6.7-14l1.1,0.3L87.8,119.1z M85.4,118.6l-13.8-3c2.4-3.4,5-6.7,7.6-9.9L85.4,118.6z M86,119.8
	l0.5,1l-14.9-3.2l-0.6-1L86,119.8z M78.8,131.8l-1.1-0.1l-7.9-13.4l1.1,0.2L78.8,131.8z M76.4,131.5l-14-1.8
	c2.1-3.6,4.4-7.1,6.7-10.6L76.4,131.5z M77.1,132.7l0.6,1l-15.1-1.9l-0.7-1L77.1,132.7z M62,132.7l9,12.5l-1.1,0l-9.1-12.6L62,132.7
	z M68.6,145.2l-14.2-0.5c1.8-3.8,3.8-7.5,5.8-11.1L68.6,145.2z M69.3,146.2l0.7,0.9l-15.2-0.6l-0.8-0.9L69.3,146.2z M54.3,147.6
	l10,11.7l-1.1,0.1l-10.1-11.8L54.3,147.6z M61.9,159.4l-14.2,0.7c1.5-3.9,3.1-7.8,4.8-11.6L61.9,159.4z M62.8,160.5l0.7,0.8
	l-15.2,0.8l-0.9-0.8L62.8,160.5z M47.9,163.1l11,10.8l-1.1,0.2l-11.1-10.9L47.9,163.1z M56.5,174.3l-14.1,1.9
	c1.1-4.1,2.4-8.1,3.8-12L56.5,174.3z M57.5,175.2l0.8,0.8l-15,2.1l-0.9-0.8L57.5,175.2z M42.9,179.2l11.9,9.8l-1.1,0.2l-12-9.9
	L42.9,179.2z M52.5,189.5l-13.8,3.2c0.8-4.1,1.7-8.2,2.7-12.3L52.5,189.5z M53.5,190.3l0.9,0.7l-14.8,3.4l-1-0.7L53.5,190.3z
	 M39.4,195.6l12.7,8.7l-1,0.3l-12.8-8.8L39.4,195.6z M49.8,205l-13.5,4.4c0.4-4.2,1-8.4,1.6-12.5L49.8,205z M37.2,212.2l13.4,7.6
	l-1,0.4l-13.5-7.6L37.2,212.2z M48.4,220.7l-13,5.5c0-4.2,0.2-8.4,0.5-12.5L48.4,220.7z M48.4,236.4l-12.5,6.6
	c-0.3-4.1-0.5-8.3-0.5-12.5L48.4,236.4z M49.7,237l1,0.5l-13.4,7.1l-1.1-0.4L49.7,237z M37.3,245.7l14.5,5.1l-0.9,0.6l-14.7-5.2
	L37.3,245.7z M49.8,252.1l-11.9,7.7c-0.7-4.1-1.2-8.3-1.6-12.4L49.8,252.1z M51.1,252.6l1.1,0.4l-12.8,8.2l-1.2-0.3L51.1,252.6z
	 M39.6,262.3l14.9,3.8l-0.9,0.7L38.6,263L39.6,262.3z M52.6,267.7l-11.2,8.7c-1-4-1.9-8.1-2.7-12.2L52.6,267.7z M53.9,268l1.1,0.3
	l-12,9.3l-1.2-0.2L53.9,268z M43.3,278.7l15.2,2.5l-0.8,0.7l-15.3-2.5L43.3,278.7z M56.7,282.9l-10.4,9.6c-1.4-3.9-2.7-7.9-3.8-12
	L56.7,282.9z M58,283.1l1.1,0.2L48,293.6l-1.2-0.1L58,283.1z M48.4,294.7l15.4,1.2l-0.7,0.8l-15.5-1.2L48.4,294.7z M62.1,297.7
	l-9.5,10.5c-1.7-3.8-3.3-7.7-4.8-11.6L62.1,297.7z M63.4,297.8l1.1,0.1l-10.2,11.3l-1.2,0L63.4,297.8z M54.8,310.2l15.4-0.2
	l-0.7,0.9L54,311L54.8,310.2z M68.8,311.9l-8.5,11.2c-2-3.6-4-7.3-5.8-11.1L68.8,311.9z M70.1,311.9l1.1,0L62.1,324l-1.2,0.1
	L70.1,311.9z M62.6,325l15.3-1.5l-0.6,0.9L61.9,326L62.6,325z M76.7,325.6l-7.5,11.9c-2.4-3.4-4.6-6.9-6.7-10.5L76.7,325.6z
	 M78,325.4l1.1-0.1L71,338.2l-1.2,0.2L78,325.4z M71.7,339.1l15.1-2.8l-0.5,1l-15.3,2.9L71.7,339.1z M85.7,338.5l-6.4,12.5
	c-2.6-3.2-5.2-6.5-7.6-9.9L85.7,338.5z M87,338.2l1.1-0.2l-6.9,13.5l-1.2,0.3c0,0,0,0,0,0L87,338.2z M81.9,352.4l14.8-4.1l-0.4,1
	l-14.9,4.2c0,0,0,0,0,0L81.9,352.4z M95.9,350.5l-5.3,13c-2.9-3-5.7-6-8.4-9.2L95.9,350.5z M97.1,350.1l1.1-0.3l-5.7,14.1l-1.1,0.4
	c0,0,0,0,0,0L97.1,350.1z M93.3,364.7l14.4-5.4l-0.3,1l-14.5,5.5c0,0,0,0,0,0L93.3,364.7z M107,361.6l-4.1,13.4
	c-3.1-2.7-6.2-5.5-9.1-8.4L107,361.6z M108.3,361.2l1-0.4l-4.5,14.5l-1.1,0.5c0,0,0,0,0,0L108.3,361.2z M105.7,376l13.9-6.7
	l-0.2,1.1l-14,6.7c0,0,0,0,0,0L105.7,376z M106.1,374.7l4.4-14.4l3-1.1c2.3,2,4.6,3.9,6.9,5.8l-0.7,3.1L106.1,374.7z M118.8,360.9
	l52.8-63.2c1.8,1.4,3.6,2.8,5.4,4.1l-47,67.5C126.1,366.7,122.4,363.8,118.8,360.9z M124.4,368l-1.7,0.8l0.2-1.1l0.7-0.3
	C123.9,367.6,124.2,367.8,124.4,368z M122.2,366.3l-0.2,0.7l-1,0.5l0.4-1.8C121.7,365.9,122,366.1,122.2,366.3z M120.8,368.8l1-0.5
	l-0.2,1.1l-1,0.5L120.8,368.8z M122.5,370.1l2.9-1.4c2.4,1.8,4.9,3.5,7.5,5.2l-0.4,3.1l-13.1,7.8L122.5,370.1z M132.3,378.4
	l-0.1,1.1l-13.4,7.9c0,0,0,0,0,0l0.2-1.2L132.3,378.4z M148.2,406.5c4.2,1.9,8.5,3.7,12.8,5.3l1.3,3.8c-6.1-2.2-12-4.6-17.7-7.3
	L148.2,406.5z M160.8,390.6l-0.1-1.7c0.3,0.1,0.6,0.3,0.9,0.4l0,0.6L160.8,390.6z M161.7,391.2l0.1,1.1l-0.9,0.7l-0.1-1.1
	L161.7,391.2z M161.7,409.7l-0.8-15.3l0.8-0.7l0.8,15.2L161.7,409.7z M156.9,384.9l34.6-74.7c2.1,0.9,4.1,1.8,6.3,2.6l-28,77.4
	C165.4,388.6,161.1,386.8,156.9,384.9z M163.2,389.9c0.3,0.1,0.6,0.2,0.9,0.4l-1.4,1.2l0-1.1L163.2,389.9z M165.2,390.7
	c2.8,1.1,5.7,2.2,8.6,3.1l0.4,3.1l-10.7,10.9l-0.8-15L165.2,390.7z M176.9,416.9l-0.8,3c-3.8-1-7.5-2.2-11.2-3.4l-1.3-3.8
	C167.9,414.2,172.4,415.6,176.9,416.9z M175.8,420.9l-1.2,4.5H168l-2.7-7.7C168.8,418.9,172.3,420,175.8,420.9z M293,425.4l3-8.9
	c6.6-2.4,13.1-5.1,19.4-8.1l12.6,6.1c-0.7,1.8-0.7,3.8,0.3,5.6l3.1,5.3H293z M341.6,385.5l-2.6-14.1l12.6,6.4
	C348.3,380.5,345,383.1,341.6,385.5z M342.5,391.3l0.3-4c3.8-2.7,7.4-5.5,11-8.5l4,0.8C352.9,383.7,347.8,387.6,342.5,391.3z
	 M355.8,377.1c8.1-6.9,15.6-14.5,22.5-22.6l0.8,3.9c-6,6.9-12.5,13.4-19.3,19.4L355.8,377.1z M381.8,372.1c-0.6,0.3-1.3,0.7-1.8,1.2
	l-5.5,5.5c-0.5,0.5-0.8,1-1.1,1.6l-12.4-2.4c6.5-5.7,12.6-11.9,18.3-18.4L381.8,372.1z M380.8,356.3l-0.8-3.9
	c2.9-3.6,5.8-7.3,8.4-11l4-0.3C388.9,346.3,385,351.4,380.8,356.3z M390,339.1c6-8.7,11.3-17.9,15.9-27.5l1.8,3.6
	c-4,8.2-8.6,16.1-13.6,23.7L390,339.1z M413.8,327.6c-0.5,0.5-1,1-1.4,1.7l-3.9,6.7c-0.3,0.6-0.5,1.2-0.7,1.8l-12.5,0.9
	c4.8-7.2,9.1-14.6,12.9-22.4L413.8,327.6z M408.9,312.7l-1.8-3.6c1.9-4.2,3.7-8.6,5.4-13l3.8-1.3
	C414.1,300.9,411.6,306.9,408.9,312.7z M417.1,292.3l-3.8,1.3c3.5-9.9,6.2-20.1,8.1-30.6l2.6,3C422.4,275,420,283.7,417.1,292.3z
	 M433.2,276.4c-0.4,0.6-0.7,1.2-0.9,2l-2,7.5c-0.2,0.6-0.2,1.3-0.2,1.9l-11.7,4.1c2.7-8.1,4.9-16.4,6.6-24.8L433.2,276.4z
	 M424.6,263.3l-2.7-3.1c0.8-4.6,1.4-9.3,1.8-14l3.4-2.3C426.6,250.5,425.7,257,424.6,263.3z M427.7,227.8c0,4.6-0.1,9.1-0.4,13.5
	l-3.3,2.2c0.4-5.2,0.6-10.5,0.6-15.8c0-5.3-0.3-10.6-0.7-15.9l3.3,2.2C427.5,218.7,427.7,223.2,427.7,227.8z M427,211.5l-3.4-2.2
	c-0.5-4.7-1.1-9.4-1.9-14l2.7-3.1C425.6,198.5,426.4,204.9,427,211.5z M429.9,167.7c-0.1,0.7,0,1.4,0.2,2.2l2,7.5
	c0.2,0.6,0.5,1.2,0.8,1.8l-8.1,9.4c-1.7-8.5-4-16.7-6.7-24.8L429.9,167.7z M423.9,189.5l-2.6,3c-1.9-10.5-4.7-20.7-8.3-30.5l3.8,1.3
	C419.7,171.8,422.1,180.5,423.9,189.5z M415.9,160.8l-3.8-1.3c-1.7-4.4-3.5-8.8-5.5-13l1.8-3.6C411.2,148.6,413.7,154.6,415.9,160.8
	z M407.4,117.8c0.1,0.7,0.3,1.4,0.7,2l3.9,6.7c0.3,0.6,0.8,1.1,1.2,1.5l-5.4,11.2c-3.9-7.7-8.2-15.1-13-22.2L407.4,117.8z
	 M393.5,116.9c5.1,7.5,9.7,15.3,13.7,23.5l-1.7,3.6c-4.6-9.6-9.9-18.7-16-27.4L393.5,116.9z M392,114.6l-4-0.3
	c-2.7-3.8-5.6-7.5-8.6-11.1l0.8-4C384.3,104.2,388.2,109.3,392,114.6z M372.7,75.3c0.3,0.6,0.7,1.3,1.2,1.8l5.5,5.5
	c0.5,0.5,1,0.8,1.6,1.1L378.6,96c-5.7-6.4-11.8-12.5-18.3-18.2L372.7,75.3z M359,78.1c6.9,6,13.3,12.4,19.3,19.2l-0.8,3.9
	c-6.9-8.1-14.4-15.5-22.5-22.4L359,78.1z M356.9,76.3l-3.9,0.8c-3.6-3-7.3-5.8-11.2-8.5l-0.3-4C346.9,68.2,352,72.1,356.9,76.3z
	 M341.6,71c3.4,2.5,6.8,5,10,7.7l-13,6.2L341.6,71z M340.6,70.5l-3.2,15l-1,0.5l3.2-14.8L340.6,70.5z M328.2,43.3
	c0.5,0.5,1,1,1.6,1.4l6.7,3.9c0.6,0.3,1.2,0.5,1.8,0.7l0.9,12.4c-7.1-4.7-14.6-9-22.3-12.8L328.2,43.3z M315.7,49.5
	c8.2,4,16.1,8.5,23.6,13.6l0.3,4c-8.7-6-17.9-11.3-27.5-15.8L315.7,49.5z M313.3,48.3l-3.6,1.8c-4.3-1.9-8.6-3.7-13.1-5.4l-1.3-3.8
	C301.4,43.1,307.5,45.5,313.3,48.3z M295.9,47l0.8,15.3l-0.9,0.7l-0.8-15.2L295.9,47z M295.1,46.4L295.1,46.4L295.1,46.4
	C295,46.4,295.1,46.4,295.1,46.4z M294.9,65.2l0.1,1.1l-0.3,0.3c-0.3-0.1-0.6-0.2-0.9-0.4L294.9,65.2z M294.9,63.9l-2.2,1.9
	c-2.9-1.1-5.8-2.2-8.8-3.2l-0.4-2.8l10.7-10.9L294.9,63.9z M276.9,23.9c0.6,0.4,1.2,0.7,2,0.9l7.5,2c0.6,0.2,1.3,0.2,1.9,0.2
	l4.1,11.7c-8-2.7-16.3-4.9-24.8-6.6L276.9,23.9z M266.5,33c9,1.7,17.7,4,26.2,6.9l1.3,3.8c-9.8-3.5-20.1-6.2-30.6-8.1L266.5,33z
	 M263.9,32.5l-3.1,2.7c-4.6-0.8-9.3-1.4-14-1.8l-2.3-3.4C251.1,30.6,257.5,31.4,263.9,32.5z M222.4,18.5c0.7,0.2,1.4,0.4,2.1,0.4
	l7.7,0c0.7,0,1.3-0.1,1.9-0.3l7,10.3c-4.2-0.3-8.4-0.4-12.7-0.4c-4.4,0-8.7,0.2-13,0.5L222.4,18.5z M214.7,30
	c4.5-0.3,9.1-0.5,13.8-0.5c4.5,0,9,0.1,13.4,0.4l2.2,3.3c-5.2-0.4-10.4-0.6-15.6-0.6c-5.4,0-10.7,0.3-16,0.7L214.7,30z M219.2,51.4
	l-1.2,2.7c-3.1,0.2-6.2,0.5-9.3,0.8l-1.6-2.4l5-14.4L219.2,51.4z M211.9,35.5C211.9,35.5,211.9,35.5,211.9,35.5L211.9,35.5
	L211.9,35.5z M212,30.2l-2.2,3.4c-4.7,0.5-9.4,1.1-14,1.9l-3.1-2.7C199,31.6,205.5,30.7,212,30.2z M168.3,27.3
	c0.7,0.1,1.4,0,2.2-0.2l7.5-2c0.6-0.2,1.2-0.5,1.8-0.8l9.4,8.1c-8.5,1.7-16.8,4-24.8,6.7L168.3,27.3z M163.8,40.4
	c8.5-3,17.3-5.3,26.2-7.1l3,2.6c-10.5,2-20.7,4.7-30.6,8.3L163.8,40.4z M162.5,47.9l-1.2,15.4l-0.8-0.7l1.2-15.5L162.5,47.9z
	 M161.3,41.3l-1.3,3.8c-4.4,1.7-8.7,3.5-13,5.4l-3.6-1.8C149.2,46,155.2,43.5,161.3,41.3z M118.3,49.8c0.7-0.1,1.4-0.4,2-0.7
	l6.7-3.9c0.6-0.3,1.1-0.8,1.5-1.2l11.3,5.5c-7.7,3.9-15.2,8.2-22.3,13L118.3,49.8z M117.4,63.8c7.5-5.1,15.4-9.7,23.6-13.8l3.6,1.7
	c-9.6,4.6-18.8,10-27.4,16L117.4,63.8z M118,71.2l2.8,15.1l-1-0.5L117,70.6L118,71.2z M116.1,71.1l2.7,14.1l-12.6-6.5
	C109.4,76.1,112.7,73.5,116.1,71.1z M115.2,65.3l-0.3,4c-3.8,2.7-7.4,5.5-11,8.5l-4-0.8C104.8,72.9,109.9,69,115.2,65.3z
	 M101.8,79.6c-8.1,6.9-15.6,14.5-22.5,22.6l-0.8-3.9c6-6.9,12.4-13.4,19.3-19.4L101.8,79.6z M75.9,84.5c0.6-0.3,1.3-0.7,1.8-1.2
	l5.5-5.5c0.5-0.5,0.8-1,1.1-1.6l12.4,2.4C90.1,84.3,84,90.5,78.3,97L75.9,84.5z M76.9,100.3l0.8,3.9c-2.9,3.6-5.7,7.2-8.4,11l-4,0.3
	C68.8,110.3,72.7,105.2,76.9,100.3z M67.7,117.5c-6,8.7-11.3,17.9-15.9,27.6l-1.8-3.6c4-8.2,8.6-16.2,13.6-23.7L67.7,117.5z
	 M43.8,129c0.5-0.5,1-1,1.4-1.7l3.9-6.7c0.3-0.6,0.5-1.2,0.7-1.8l12.6-0.9c-4.8,7.2-9.1,14.7-12.9,22.4L43.8,129z M48.9,144l1.8,3.6
	c-1.9,4.2-3.7,8.5-5.3,12.9l-3.8,1.3C43.7,155.7,46.1,149.8,48.9,144z M40.6,164.4l3.8-1.3c-3.5,9.9-6.3,20.2-8.1,30.7l-2.6-3
	C35.4,181.8,37.7,172.9,40.6,164.4z M24.4,180.3c0.4-0.6,0.7-1.2,0.9-2l2-7.5c0.2-0.6,0.2-1.3,0.2-1.9l11.8-4.1
	c-2.7,8.1-4.9,16.4-6.6,25L24.4,180.3z M33.2,193.4l2.7,3.1c-0.7,4.5-1.3,9.1-1.8,13.8l-3.4,2.3C31.2,206.1,32,199.7,33.2,193.4z
	 M30.1,228.7c0-4.5,0.1-9,0.4-13.5l3.3-2.2c-0.4,5.2-0.6,10.4-0.6,15.7c0,5.4,0.3,10.8,0.7,16.1l-3.3-2.2
	C30.3,238,30.1,233.4,30.1,228.7z M30.8,245.3l3.4,2.2c0.5,4.6,1.1,9.2,1.9,13.8l-2.7,3.1C32.2,258.1,31.4,251.7,30.8,245.3z
	 M27.8,288.9c0.1-0.7,0-1.4-0.2-2.2l-2-7.5c-0.2-0.6-0.5-1.2-0.8-1.7L33,268c1.7,8.5,4,16.9,6.8,25L27.8,288.9z M33.9,267l2.6-3
	c2,10.6,4.8,20.8,8.4,30.7l-3.8-1.3C38.1,284.9,35.7,276,33.9,267z M42,296l3.8,1.3c1.6,4.3,3.4,8.6,5.4,12.8l-1.8,3.6
	C46.7,307.9,44.2,302,42,296z M50.3,338.9c-0.1-0.7-0.4-1.4-0.7-2l-3.9-6.7c-0.3-0.6-0.8-1.1-1.2-1.5l5.5-11.4
	c3.9,7.8,8.3,15.3,13.1,22.4L50.3,338.9z M64.4,339.8c-5.1-7.6-9.8-15.5-13.8-23.7l1.7-3.6c4.6,9.7,10,18.9,16.1,27.6L64.4,339.8z
	 M66,342l4,0.3c2.7,3.7,5.5,7.3,8.4,10.8l-0.8,4C73.5,352.3,69.6,347.2,66,342z M85,381.3c-0.3-0.6-0.7-1.3-1.2-1.8l-5.5-5.5
	c-0.5-0.5-1-0.8-1.6-1.1l2.4-12.5c5.8,6.5,11.9,12.7,18.5,18.4L85,381.3z M98.9,378.6c-6.9-6-13.5-12.5-19.5-19.4l0.8-3.9
	c6.9,8.1,14.5,15.7,22.7,22.6L98.9,378.6z M101,380.3l3.9-0.8c3.5,2.9,7.2,5.7,10.9,8.3l0.3,4C110.9,388.3,105.8,384.4,101,380.3z
	 M116.1,385.5c-3.4-2.4-6.7-4.9-9.9-7.6l12.8-6.2L116.1,385.5z M117.1,386.1l3.2-15l1-0.5l-3.2,14.8L117.1,386.1z M130.2,420.6
	c1-1.7,1.1-3.7,0.4-5.4l12.8-6.3c6.3,3,12.8,5.7,19.4,8l3,8.5h-38.3L130.2,420.6z M86.5,457.3h79.6l-7.1,26.9H86.5V457.3z
	 M63.1,450.1l1.6,0.7v1l-1.6-0.7V450.1z M63.1,451.6l1.6,0.7v1l-1.6-0.7V451.6z M63.1,453.1l1.6,0.7v2.5l-1.6-0.7V453.1z
	 M63.1,473.4h7.6l-7.6,10V473.4z M71.4,474.6h2.4l7.7,10H63.7L71.4,474.6z M63.1,494.3c1.3,0,2.6,0.2,3.8,0.3l-3.8,5.5V494.3z
	 M43.8,429.6c0.4,0.2,3.4,6.3,3.4,6.3c-0.6-0.6-1.8-1.7-3.4-2.5V429.6z M45.4,450.6C45.4,450.6,45.4,450.6,45.4,450.6
	c-0.5-0.2-1-0.5-1.6-0.8v-2.5c0.7,0.4,1.2,0.7,1.6,0.8V450.6z M45.4,447.7c-0.4-0.2-1-0.5-1.6-0.8v-1c0.7,0.4,1.2,0.7,1.6,0.8V447.7
	z M45.4,446.2c-0.4-0.2-1-0.5-1.6-0.8v-1c0.7,0.4,1.2,0.7,1.6,0.8V446.2z M47,452.4c-0.2-0.4-0.5-1-1.2-1.5v-2.5
	c0.8,0.6,1.1,1.2,1.2,1.6V452.4z M47,449c-0.2-0.4-0.6-0.8-1.2-1.1c0,0,0,0,0,0v-1c0.8,0.6,1.1,1.3,1.2,1.6V449z M47,447.1v0.4
	c-0.2-0.4-0.6-0.8-1.2-1.1c0,0,0,0,0,0v-1C46.6,446,46.9,446.7,47,447.1C47,447.1,47,447.1,47,447.1z M49.2,452.6l-1.7,0v-2.3l1.7,0
	V452.6z M49.2,449.9l-1.7,0v-1.1l1.7,0V449.9z M49.2,448.4l-1.7,0v-1.1l1.7,0V448.4z M54.4,452.5l-4.8,0.1v-2.3l4.8-0.1V452.5z
	 M54.4,449.8l-4.8,0.1v-1.1l4.8-0.1V449.8z M54.4,448.3l-4.8,0.1v-1.1l4.8-0.1V448.3z M59.6,454l-3.5-1.5c-0.1,0-0.1,0-0.2,0l-1.1,0
	v-2.3l1.6,0l3.2,1.4V454z M59.6,451.1l-3-1.3c0,0-0.1,0-0.1,0l-1.7,0v-1.1l1.6,0l3.2,1.4V451.1z M59.6,449.6l-3-1.3c0,0-0.1,0-0.1,0
	l-1.7,0v-1.1l1.6,0l3.2,1.4V449.6z M59.6,448.1l-3-1.3c0,0-0.1,0-0.1,0l-9.1,0.2c-0.1-0.4-0.5-1.3-1.6-2c0,0,0,0,0,0
	c-0.5-0.2-1.2-0.6-2-1v-4.9c2.2,1.1,3.3,2.6,3.3,2.7c0.1,0.1,0.3,0.2,0.4,0.2c0.1,0,0.2,0,0.3-0.1c0.2-0.2,0.3-0.5,0.1-0.8
	c-0.1-0.1-1.5-2-4.2-3.2V437c2.3,1.2,3.6,2.8,3.6,2.8c0,0.1,0.1,0.1,0.2,0.1c0,0,0.1,0,0.1,0c0.1-0.1,0.1-0.2,0-0.3
	c-0.1-0.1-1.4-1.8-3.9-3v-1c2.3,1.2,3.6,2.8,3.6,2.8c0,0,0.1,0.1,0.2,0.1c0,0,0.1,0,0.1,0c0.1-0.1,0.1-0.2,0-0.3
	c-0.1-0.1-1.4-1.8-3.9-3v-1.1c2.3,1.2,3.6,2.8,3.6,2.8c0,0.1,0.1,0.1,0.2,0.1c0,0,0.1,0,0.1,0c0,0,5.9,6,11.9,8.9V448.1z M83,506.3
	H66.8l-3.7-0.3v-3.6l5.2-7.6c3.3,0.5,5.5,1.2,5.5,1.2c1-0.3,2.1-0.5,3.3-0.6l5.9,10V506.3z M83,502.9l-4.4-7.6c1.5-0.1,3-0.1,4.4,0
	V502.9z M83,487.8c-7-0.2-13.6-0.3-19.9-0.5v-1.1h19.5l0.4,0.5V487.8z M83,484.6L83,484.6l-8.3-11.1H83V484.6z M83,470.9h-2.1v-5.4
	H65.9v5.4h-2.8v-14.2l19.9,8.8V470.9z M68.6,454v1l-3.5-1.5v-1L68.6,454z M65.1,452v-1l3.5,1.5v1L65.1,452z M68.6,455.5v2.5
	l-3.5-1.5V454L68.6,455.5z M73.9,456.4v1l-4.9-2.2v-1L73.9,456.4z M69,453.7v-1l4.9,2.2v1L69,453.7z M73.9,457.9v2.5l-4.9-2.2v-2.5
	L73.9,457.9z M79.3,458.8v1l-5-2.2v-1L79.3,458.8z M74.4,456.1v-1l5,2.2v1L74.4,456.1z M79.3,460.2v2.5l-5-2.2v-2.5L79.3,460.2z
	 M81.9,459.9v1l-2.2-1v-1L81.9,459.9z M79.8,458.5v-1l2.2,1v1L79.8,458.5z M81.9,461.4v2.5l-2.2-1v-2.5L81.9,461.4z M83,464.3
	l-0.7-0.3v-2.5l0.7,0.3V464.3z M83,461.4l-0.7-0.3v-1l0.7,0.3V461.4z M83,459.9l-0.7-0.3v-1l0.7,0.3V459.9z M83,458.4l-3.3-1.5
	c0,0-0.1,0-0.1,0l-5.3-2.3c0,0-0.1-0.1-0.2-0.1c0,0,0,0,0,0l-5.2-2.3c0,0-0.1-0.1-0.1-0.1c0,0,0,0,0,0l-5.7-2.5v-2.3
	c5.9,2.7,13,5.9,19.9,8.6V458.4z M86.5,506.3v-10.6c3.8,0.4,4,1,4,1l6.1,9.6L86.5,506.3z M371.4,506.3l-10.1,0l6.1-9.6
	c0,0,0.2-0.5,4-1V506.3z M371.4,484.2h-25.2h-4.8h-41.3l-7.3-26.9h78.6V484.2z M395,506l-3.7,0.3H375v-0.8l5.9-10
	c1.2,0.1,2.3,0.3,3.3,0.6c0,0,2.3-0.7,5.6-1.2l5.3,7.6V506z M395,500.1l-3.8-5.5c1.2-0.2,2.5-0.3,3.8-0.3V500.1z M395,487.3
	c-6.3,0.2-13,0.4-20,0.5v-1.1l0.4-0.5H395V487.3z M395,483.4l-7.7-10h7.7V483.4z M395,470.9h-2.8v-5.4h-15.1v5.4H375v-5.4l20-8.8
	V470.9z M378.2,458.9v1l-2.2,1v-1L378.2,458.9z M376.1,459.4v-1l2.2-1v1L376.1,459.4z M378.2,460.4v2.5l-2.2,1v-2.5L378.2,460.4z
	 M383.6,456.6v1l-5,2.2v-1L383.6,456.6z M378.7,458.3v-1l5-2.2v1L378.7,458.3z M383.6,458.1v2.5l-5,2.2v-2.5L383.6,458.1z
	 M389,454.2v1l-4.9,2.2v-1L389,454.2z M384.1,455.9v-1l4.9-2.2v1L384.1,455.9z M389,455.7v2.5l-4.9,2.2v-2.5L389,455.7z
	 M392.9,452.5v1l-3.5,1.5v-1L392.9,452.5z M389.5,453.5v-1l3.5-1.5v1L389.5,453.5z M392.9,454v2.5l-3.5,1.5v-2.5L392.9,454z
	 M395,455.6l-1.6,0.7v-2.5l1.6-0.7V455.6z M395,452.6l-1.6,0.7v-1l1.6-0.7V452.6z M395,451.1l-1.6,0.7v-1l1.6-0.7V451.1z M395,449.6
	l-5.7,2.5c0,0,0,0,0,0c-0.1,0-0.1,0-0.2,0.1l-5.2,2.3c0,0,0,0,0,0c-0.1,0-0.1,0-0.2,0.1l-5.3,2.3c0,0-0.1,0-0.1,0l-3.4,1.5V456
	c6.9-2.7,14.1-5.9,20-8.6V449.6z M432.7,506.3h-29.9l27.5-2L432.7,506.3z M398.5,505.7v-11.4c1.6,0.1,3.3,0.4,4.8,0.9
	c0,0,6.6-2.3,15.2-1.3l11,9.5L398.5,505.7z"/>
</svg>
