<?xml version="1.0" encoding="utf-8"?>
<!-- Generator: Adobe Illustrator 21.1.0, SVG Export Plug-In . SVG Version: 6.00 Build 0)  -->
<svg version="1.1" id="Shape_1_1_" xmlns="http://www.w3.org/2000/svg" xmlns:xlink="http://www.w3.org/1999/xlink" x="0px" y="0px"
	 viewBox="0 0 512 512" style="enable-background:new 0 0 512 512;" xml:space="preserve">
<path d="M0,256c0,141.4,114.6,256,256,256s256-114.6,256-256S397.4,0,256,0S0,114.6,0,256z M286.7,96.7v232.8l74.3-73.7
	c12.5-12.4,32.7-12.4,45.2,0.1l3.3,3.3c12.4,12.5,12.4,32.8-0.1,45.3L274.1,439.2c-11,11.1-29,11-40-0.1L103,307
	c-12.5-12.5-12.4-32.7,0-45.2l3.4-3.4c12.5-12.5,32.8-12.5,45.3,0l71,71.1V96.7c0-8.8,3.6-16.8,9.4-22.6c5.8-5.8,13.8-9.4,22.6-9.4
	C272.4,64.7,286.7,79,286.7,96.7z"/>
</svg>
