<?xml version="1.0" encoding="utf-8"?>
<!-- Generator: Adobe Illustrator 21.1.0, SVG Export Plug-In . SVG Version: 6.00 Build 0)  -->
<svg version="1.1" id="Shape_1_1_" xmlns="http://www.w3.org/2000/svg" xmlns:xlink="http://www.w3.org/1999/xlink" x="0px" y="0px"
	 viewBox="0 0 512 512" style="enable-background:new 0 0 512 512;" xml:space="preserve">
<path d="M256,0C114.6,0,0,114.6,0,256s114.6,256,256,256s256-114.6,256-256S397.4,0,256,0z M415.3,286.7H182.4l73.7,74.3
	c12.4,12.5,12.4,32.7-0.1,45.2l-3.3,3.3c-12.5,12.4-32.8,12.4-45.3-0.1L72.8,274.1c-11.1-11-11-29,0.1-40L205,103
	c12.5-12.5,32.7-12.4,45.2,0l3.4,3.4c12.5,12.5,12.5,32.8,0,45.3l-71.1,71h232.7c8.8,0,16.8,3.6,22.6,9.4c5.8,5.8,9.4,13.8,9.4,22.6
	C447.3,272.4,433,286.7,415.3,286.7z"/>
</svg>
