<?xml version="1.0" encoding="utf-8"?>
<!-- Generator: Adobe Illustrator 21.1.0, SVG Export Plug-In . SVG Version: 6.00 Build 0)  -->
<svg version="1.1" id="Layer_1" xmlns="http://www.w3.org/2000/svg" xmlns:xlink="http://www.w3.org/1999/xlink" x="0px" y="0px"
	 viewBox="0 0 450 512" style="enable-background:new 0 0 450 512;" xml:space="preserve">
<path d="M8.4,276.2l147.9,148.4c12.5,12.5,32.8,12.6,45.3,0.1l3.3-3.3c12.5-12.5,12.5-32.7,0.1-45.2L118,288.6h300
	c17.7,0,32-14.3,32-32v0c0-17.7-14.3-32-32-32H118.1l88.7-88.6c12.5-12.5,12.5-32.8,0-45.3l-3.4-3.4c-12.5-12.4-32.7-12.5-45.2,0
	L8.5,236.1C-2.6,247.2-2.6,265.1,8.4,276.2z"/>
</svg>
