<?xml version="1.0" encoding="utf-8"?>
<!-- Generator: Adobe Illustrator 21.1.0, SVG Export Plug-In . SVG Version: 6.00 Build 0)  -->
<svg version="1.1" id="Shape_1_1_" xmlns="http://www.w3.org/2000/svg" xmlns:xlink="http://www.w3.org/1999/xlink" x="0px" y="0px"
	 viewBox="0 0 512 512" style="enable-background:new 0 0 512 512;" xml:space="preserve">
<path d="M512,256C512,114.6,397.4,0,256,0S0,114.6,0,256s114.6,256,256,256S512,397.4,512,256z M225.3,415.3V182.4L151,256.2
	c-12.5,12.4-32.7,12.4-45.2-0.1l-3.3-3.3c-12.4-12.5-12.4-32.8,0.1-45.3L237.9,72.8c11-11.1,29-11,40,0.1L409,205
	c12.5,12.5,12.4,32.7,0,45.2l-3.4,3.4c-12.5,12.5-32.8,12.5-45.3,0l-71-71.1v232.7c0,8.8-3.6,16.8-9.4,22.6
	c-5.8,5.8-13.8,9.4-22.6,9.4C239.6,447.3,225.3,433,225.3,415.3z"/>
</svg>
