<?xml version="1.0" encoding="utf-8"?>
<!-- Generator: Adobe Illustrator 21.1.0, SVG Export Plug-In . SVG Version: 6.00 Build 0)  -->
<svg version="1.1" id="Shape_1_1_" xmlns="http://www.w3.org/2000/svg" xmlns:xlink="http://www.w3.org/1999/xlink" x="0px" y="0px"
	 viewBox="0 0 512 512" style="enable-background:new 0 0 512 512;" xml:space="preserve">
<path d="M256,512c141.4,0,256-114.6,256-256S397.4,0,256,0S0,114.6,0,256S114.6,512,256,512z M96.7,225.3h232.8L255.8,151
	c-12.4-12.5-12.4-32.7,0.1-45.2l3.3-3.3c12.5-12.4,32.8-12.4,45.3,0.1l134.6,135.3c11.1,11,11,29-0.1,40L307,409
	c-12.5,12.5-32.7,12.4-45.2,0l-3.4-3.4c-12.5-12.5-12.5-32.8,0-45.3l71.1-71H96.7c-8.8,0-16.8-3.6-22.6-9.4
	c-5.8-5.8-9.4-13.8-9.4-22.6C64.7,239.6,79,225.3,96.7,225.3z"/>
</svg>
