<?xml version="1.0" encoding="utf-8"?>
<!-- Generator: Adobe Illustrator 21.1.0, SVG Export Plug-In . SVG Version: 6.00 Build 0)  -->
<svg version="1.1" id="Layer_1" xmlns="http://www.w3.org/2000/svg" xmlns:xlink="http://www.w3.org/1999/xlink" x="0px" y="0px"
	 viewBox="0 0 356 512" style="enable-background:new 0 0 356 512;" xml:space="preserve">
<path d="M157.9,39.4L9.4,187.2C-3.1,199.7-3.1,220,9.3,232.5l3.3,3.3c12.5,12.5,32.7,12.5,45.2,0.1l87.5-86.9v300
	c0,17.7,14.3,32,32,32h0c17.7,0,32-14.3,32-32V149.1l88.6,88.7c12.5,12.5,32.8,12.5,45.3,0l3.4-3.4c12.4-12.5,12.5-32.7,0-45.2
	L197.9,39.5C186.9,28.4,168.9,28.3,157.9,39.4z"/>
</svg>
