<?xml version="1.0" encoding="utf-8"?>
<!-- Generator: Adobe Illustrator 21.1.0, SVG Export Plug-In . SVG Version: 6.00 Build 0)  -->
<svg version="1.1" id="Layer_4" xmlns="http://www.w3.org/2000/svg" xmlns:xlink="http://www.w3.org/1999/xlink" x="0px" y="0px"
	 viewBox="0 0 559.1 512" style="enable-background:new 0 0 559.1 512;" xml:space="preserve">
<g>
	<path d="M556.1,441.7c-5-10.5-15.8-17.8-28.2-17.8l-4,0.1H199.3c-11.6-35.5-38.1-64.2-72.1-78.9V115c0-27.9-12.2-54-33.7-71.8
		L51.4,7.8l-0.1-0.1c-5-4-11-6.3-17.3-6.7c-1.9-0.1-3.8-0.1-5.7,0.1C20,2.1,12.6,6.2,7.4,12.8C3.2,18.1,1,24.3,0.7,30.6
		c-0.5,9.3,3.2,18.7,10.8,25.2L53.7,91c5.9,4.9,9.7,11.7,10.8,19.2c0.2,1.5,0.3,3,0.3,4.5v288.2c3.6-0.7,7.3-1,11.1-1
		c34.4,0,62.4,27.9,62.4,62.4c0,7.8-1.4,15.3-4,22.1h69.5c0,0,0,0,0,0H482c0.3-1.8,0.8-3.4,1.5-5c3.4-7.5,10.9-12.7,19.6-12.7
		s16.3,5.2,19.6,12.7c0.7,1.6,1.2,3.3,1.5,5h3.6c12.4,0,23.1-7.2,28.1-17.6c0,0,0,0,0-0.1c2-4.1,3.1-8.7,3.1-13.5
		C559.1,450.3,558,445.8,556.1,441.7z"/>
	<ellipse cx="76.1" cy="464.2" rx="47.8" ry="47.8"/>
	<path d="M525.2,79.7c8.8,0,13.2,4.4,13.2,13.2v68.4H385.2c0-8.6-4.4-12.9-13.2-12.9h-39.6c-8.8,0-13.2,4.3-13.2,12.9H165.8V92.9
		c0-8.8,4.4-13.2,13.2-13.2h101l-0.3-28.3c1-7.2,5.1-10.9,12.3-10.9h120.7c7.2,0,11.3,3.6,12.3,10.6v28.7L525.2,79.7L525.2,79.7z
		 M372,187.4c8.8,0,13.2-4.3,13.2-12.9h153.2v176c0,8.8-4.4,13.2-13.2,13.2H179c-8.8,0-13.2-4.4-13.2-13.2v-176h153.5
		c0,8.6,4.4,12.9,13.2,12.9H372z M405.9,64.5c0.4-5.1-2.4-7.7-8.2-7.7h-90.6c-5.5,0-8.3,2.6-8.5,7.7v15.2h107.3V64.5L405.9,64.5z
		 M338.9,174.5c-4.3,0-6.4-2.2-6.4-6.6s2.1-6.6,6.4-6.6h26.4c4.5,0,6.7,2.2,6.7,6.6s-2.2,6.6-6.7,6.6H338.9z"/>
	<circle cx="503.1" cy="490.2" r="16"/>
</g>
</svg>
