<?xml version="1.0" encoding="utf-8"?>
<!-- Generator: Adobe Illustrator 21.1.0, SVG Export Plug-In . SVG Version: 6.00 Build 0)  -->
<svg version="1.1" id="Layer_7" xmlns="http://www.w3.org/2000/svg" xmlns:xlink="http://www.w3.org/1999/xlink" x="0px" y="0px"
	 viewBox="0 0 512.4 512" style="enable-background:new 0 0 512.4 512;" xml:space="preserve">
<g>
	<path d="M344,256c-0.7,33.2-19.8,61.8-47.5,76.1c-0.1,0.1-0.2,0.1-0.4,0.2c-12.1,6.5-25.8,10.1-40.2,10.1
		c-20.9,0-40.4-7.7-55.5-20.5c-0.2-0.1-0.3-0.3-0.5-0.4c-18.8-15.7-30.9-39.2-31.5-65.4H0.3v0.5C0.3,393.4,107.8,505.1,243,512
		c2.2,0.1,4.4,0.2,6.6,0.3c1.1,0,2.2,0,3.3,0.1c1.1,0,2.2,0,3.3,0c0.9,0,1.9,0,2.8,0c1,0,2,0,3,0c1,0,2-0.1,3-0.1
		c134.7-4.6,242.9-113.2,246.9-248c0.1-2.5,0.1-5.1,0.1-7.7V256H344z M97.6,302.6h-23v7.3h22.6v17.7H74.7v7.7h23V353H56.9v-68.6
		h40.7V302.6z M457.6,302.1h-20.4v6.2h20.4v17.2h-20.4v19.7H420v-60.5h37.5V302.1z"/>
	<path d="M318.2,209.1l-17.5-17.5l-33.8,33.8c-3.4-1.2-7.1-1.9-10.9-1.9c-18.2,0-32.9,14.7-32.9,32.9s14.7,32.9,32.9,32.9
		s32.9-14.7,32.9-32.9c0-5.2-1.2-10.2-3.4-14.6L318.2,209.1z"/>
	<path d="M503.7,191.5c-17.5-66.9-61.5-123.1-120-156.8c-0.8-0.4-1.5-0.9-2.2-1.3c-2.2-1.2-4.4-2.5-6.7-3.6
		C339.4,11.2,299,0.7,256.2,0.7c-127.3,0-232.9,93-252.6,214.8h173.6c14.3-29.2,44.3-49.3,78.9-49.3c34.7,0,64.7,20.1,78.9,49.3
		h173.6C507.4,207.3,505.8,199.3,503.7,191.5z M117.2,188.3L82,178.5l-25.7-6.5l4.7-17.4l60.9,16.3L117.2,188.3z M136,144.1
		L110.4,118l-19-18.5l12.8-12.7l44.6,44.6L136,144.1z M186,108l-13.1-32.3l-11.5-27.3l16.5-6.8l24.6,59.6L186,108z M263.5,91h-18
		V28.3h18V91z M323.4,106.7l-16.5-6.8L331,41.6l16.5,6.8L323.4,106.7z M360.3,131.3l44.6-44.6l12.7,12.7L373,144L360.3,131.3z
		 M391.8,188.2l-4.7-17.3l60.9-16.3l4.7,17.4L391.8,188.2z"/>
</g>
</svg>
