<?xml version="1.0" encoding="utf-8"?>
<!-- Generator: Adobe Illustrator 21.1.0, SVG Export Plug-In . SVG Version: 6.00 Build 0)  -->
<svg version="1.1" id="Layer_1" xmlns="http://www.w3.org/2000/svg" xmlns:xlink="http://www.w3.org/1999/xlink" x="0px" y="0px"
	 viewBox="0 0 495 512" style="enable-background:new 0 0 495 512;" xml:space="preserve">
<g>
	<g>
		<path d="M209.2,510.9h75.7l0.1-243.1l-75.8,0.1V510.9z M435.3,93.4H284.9l0.1-80c0-4-4.1-7.1-12.2-9.4c-7.2-2-15.7-3-25.5-3
			c-10.5,0-20.4,1-27.5,3c-7.8,2.3-10.5,4.9-10.5,8.8v80.6H0V246h435.3l59.7-76.4L435.3,93.4z M247.5,18.8c-15.1,0-27.4-2.7-27.4-6
			s12.3-6,27.4-6c15.1,0,27.4,2.7,27.4,6S262.6,18.8,247.5,18.8z"/>
	</g>
</g>
</svg>
