<?xml version="1.0" encoding="utf-8"?>
<!-- Generator: Adobe Illustrator 21.1.0, SVG Export Plug-In . SVG Version: 6.00 Build 0)  -->
<svg version="1.1" id="Layer_1" xmlns="http://www.w3.org/2000/svg" xmlns:xlink="http://www.w3.org/1999/xlink" x="0px" y="0px"
	 viewBox="0 0 529 512" style="enable-background:new 0 0 529 512;" xml:space="preserve">
<path d="M186,54L0,0v440l186,60l160-43l180,55l3-442L346,13L186,54z M316.1,189.6c0.5-0.5,1-0.8,1.2-0.8l0.4,1.5h-0.8
	c-0.5,0.2-0.8,0.4-0.8,0.4s-0.1,0-0.4,0s-0.4-0.1-0.4-0.4C315.2,189.8,315.5,189.6,316.1,189.6z M315.5,197.5h0.9v-0.4
	c0.9-0.8,1.7-1.2,2.2-1.2h0.5l0.4-0.4h0.5l0.4,0.4h0.5c0.6,0,1.2-0.1,1.8-0.4c0.3,0,0.7-0.1,1.3-0.4l0.9-0.8h0.4
	c0.6-0.5,1.2-0.8,1.8-0.8l0.9,0.8c0.3,0,0.5,0.1,0.4,0.4c0,0.5-0.5,1-1.4,1.2l-0.9,0.4l-0.9,0.4c-0.3,0-0.6,0-0.9,0
	c-0.3,0.3-0.6,0.4-0.9,0.4s-0.6,0.1-0.9,0.4c-0.9,0-1.5,0.1-1.8,0.4l-0.5,0.4l-0.4,0.4c-0.3,0-0.6,0.1-0.9,0.4l-0.5,0.4l-0.4,0.4
	c-1.2,0.3-2.3,1-3.2,2c-1.2,1.4-1.8,2.6-1.8,3.7c0,0.5,0.3,1.1,0.9,1.6h0.5v0.4c0.3,0.3,0.6,0.4,0.9,0.4v0.4h-3.1
	c0-0.3-0.1-0.4-0.5-0.4h-0.4h-0.5v-0.4v-0.4c0-0.3-0.1-0.4-0.4-0.4c0,0-0.5,0-1.4,0c-0.3-0.3-0.4-0.5-0.4-0.8s0.1-0.5,0.4-0.8
	c0.6-0.3,0.9-0.5,0.9-0.8v-0.8c0-0.3,0.2-0.4,0.5-0.4l0.4-0.4h0.5h0.4v-0.4l-0.4-0.4c-0.3,0-0.5-0.1-0.5-0.4l1.4-0.8
	c0.3-0.3,0.4-0.5,0.4-0.8c0.3,0,0.5-0.3,0.5-0.8l-0.5-0.4v-0.4h0.5h0.4l0.4-0.4c0.3,0,0.6,0,0.9,0
	C315.3,197.9,315.5,197.8,315.5,197.5z M318.4,210.1c0,0.3-0.2,0.3-0.4,0c-0.3,0-0.6-0.1-0.9-0.4c-0.6,0-0.9,0-0.9,0s0-0.1,0-0.4
	c0-0.5,0.4-0.7,1.3-0.4l0.5,0.4C318.3,209.5,318.5,209.8,318.4,210.1z M312.4,190.7v-0.4h0.8h0.4h0.4c0.3,0,0.5,0,0.8,0v0.4v0.4
	c-0.3,0-0.6,0-0.8,0h-0.4l0.4,0.8c-0.3,0-0.7,0-1.2,0H312C311.9,191.4,312.1,191,312.4,190.7z M310.7,192.3h-0.4l-0.4,0.4h-0.4
	l-0.4-0.4c0,0.3-0.1,0.4-0.4,0.4h-0.4v-0.4c0-0.2,0.3-0.4,0.8-0.4l0.4-0.4c0.3,0,0.4,0,0.4,0c0.5,0,1,0.1,1.2,0.4
	C310.9,191.9,310.7,192,310.7,192.3z M306.6,190.3h0.4h1.6c-0.3-0.3-0.5-0.4-0.8-0.4v-0.4c0.3,0,0.5,0,0.8,0l0.4-0.4l0.4-0.4h0.4
	c0.3-0.5,0.5-0.8,0.8-0.8v0.4v0.4v0.4l-0.8,0.4h-0.4c-0.3,0.2-0.4,0.5-0.4,0.8c0.5,0,1.1,0.1,1.6,0.4h-0.4h-0.4
	c-0.3,0-0.6,0.1-0.8,0.4c-0.3,0-0.6,0-0.8,0h-0.8c-0.3-0.3-0.5-0.4-0.8-0.4L306.6,190.3L306.6,190.3z M304.5,211.3
	c0.3-0.3,0.5-0.4,0.5-0.4l0.4-0.4c0.3,0,0.6,0.1,0.9,0.4c0.3,0,0.5,0.1,0.5,0.4v0.4h-0.5v0.4h-0.9c-0.6,0-0.9-0.1-0.9-0.4V211.3z
	 M297.2,190.7c0.3,0,0.7-0.1,1.2-0.4h0.4c0.3,0,0.7,0.1,1.2,0.4l0.4,0.4h0.4h0.4l0.4-0.4c0.3-0.2,0.6-0.4,0.8-0.4l0.4,0.4h0.4v0.4
	v0.4h-0.4h-0.4c0,0.3-0.1,0.3-0.4,0v0.4h-0.4h-0.8v0.4l-0.4,0.4H300h-0.4c-0.6,0-0.8-0.3-0.8-0.8c0.1,0,0.3,0,0.4,0l-0.4-0.4h0.4
	v-0.4h-0.4c0,0-0.1,0-0.4,0h-0.8c-0.3,0.2-0.6,0.4-0.8,0.4h-0.4l-0.4-0.4C296.2,190.9,296.6,190.7,297.2,190.7z M269.6,191.9
	c0,0.2,0.1,0.4,0.4,0.4v-0.4h0.8l-0.4-0.4h1.2c0,0.3,0.1,0.4,0.4,0.4l0.8,0.4c0.3,0,0.5-0.1,0.8-0.4v-0.4h0.8v0.4c0,0.1,0,0.3,0,0.4
	h0.4h0.4v-0.4h1.2c0.3,0,0.7,0.1,1.2,0.4c0.3,0.3,0.4,0.5,0.4,0.8l-0.4,0.4h-0.4c-0.3,0.5-0.6,0.8-0.8,0.8c-0.8,0.5-1.5,0.8-2.1,0.8
	s-1-0.2-1.2-0.8h-2c-0.3,0-0.4-0.1-0.4-0.4h0.4l0.4-0.4c-0.1,0-0.2,0-0.4,0h-0.4c0,0-0.1,0-0.4,0H270h-0.4c-0.3,0-0.3-0.1,0-0.4
	c-0.6-0.2-0.8-0.6-0.8-1.2L269.6,191.9L269.6,191.9z M261.4,193.8l0.4-0.4c0.3,0,0.5,0,0.8,0c0.4,0,0.8,0,1.2,0v0.4
	c0,0.3,0.1,0.4,0.4,0.4h0.4c0-0.5,0.1-0.8,0.4-0.8c0.5,0,0.9,0.2,1.2,0.8v0.4l0.4,0.4c-0.3-0.8-0.4-1.3-0.4-1.5
	c0-0.5,0.3-0.8,0.8-0.8c0.3,0,0.5,0.1,0.8,0.4l0.8,0.4v0.4l-0.4,0.4h0.4c0-0.2,0.1-0.4,0.4-0.4s0.4,0.1,0.4,0.4v0.4l0.4,0.4
	c0.3,0,0.8,0.1,1.6,0.4c0.5,0.5,1,0.9,1.2,1.2c0.1,0,0.3,0,0.4,0v0.4h1.2c0,0.5,0.1,0.9,0.4,1.2h0.4c0.3,0,0.4,0.1,0.4,0.4
	c-0.3,0-0.4,0.1-0.4,0.4h-0.8c-0.6,0.5-1,0.8-1.2,0.8c0-0.2,0.1-0.5,0.4-0.8c-0.3,0-0.6,0-0.8,0h-0.8h-0.4l0.4-0.4v-0.4
	c0.3,0,0.4-0.1,0.4-0.4c-0.3,0-0.4-0.1-0.4-0.4l-0.4-0.4v-0.4h0.4c-0.3,0-0.6-0.1-0.8-0.4c-0.6,0-1,0.3-1.2,0.8
	c-0.3,0.3-0.4,0.6-0.4,1.2v0.4l-0.4,0.4h-0.4v0.4c-0.3,0-0.6,0.2-0.8,0.8v0.8c0,0.2-0.1,0.4-0.4,0.4l-0.8-0.4l-0.4-0.4h-0.4
	c-0.8-0.5-1.2-1-1.2-1.5c0.5,0,1.1,0,1.6,0l0.4-0.4h-0.4h-0.4h-0.4c-0.3,0-0.5,0-0.8,0s-0.4-0.3-0.4-0.8l0.4-0.4h0.4h0.4
	c0.3,0,0.5-0.1,0.8-0.4l0.8-0.4h-0.8h-0.4c0-0.2-0.1-0.4-0.4-0.4l-0.4,0.4c-0.3,0.5-0.6,0.8-0.8,0.8c-0.6,0-1-0.2-1.2-0.8h0.4
	c-0.8-0.5-1.2-1-1.2-1.5l-0.4-0.4l-0.4-0.4L261.4,193.8L261.4,193.8z M261.4,195.7l0.4,0.4c0.3,0.3,0.4,0.4,0.4,0.4s0.1,0.3,0.4,0.8
	c-0.6-0.2-1-0.5-1.2-0.8C261.1,196,261.1,195.7,261.4,195.7z M241.9,232.5v-0.4c0.3-0.3,0.6-0.4,0.9-0.4c0,0.3-0.2,0.5-0.4,0.8
	c0,0.3,0,0.4,0,0.4h0.4v0.4h0.5v-0.4v-0.4h0.4v-0.4v-0.4l0.5-0.4h0.4h0.9h0.4v0.4c0,0.3-0.2,0.4-0.4,0.4v0.4c-0.3,0-0.4,0.1-0.4,0.4
	h2.3c0.3,0.6,0.3,1.1,0,1.6h-0.5l-0.4,0.4v0.4l-0.5,0.4h0.5h0.4h0.5c0,0.3,0.2,0.5,0.4,0.8v0.4c0.3,0.3,0.5,0.6,0.5,0.8h0.4l0.5,0.8
	c0.6,0.3,0.9,0.5,0.9,0.8v0.4v0.4h0.4c0,0.3-0.2,0.4-0.4,0.4v0.4l0.4-0.4h0.5c0.6,0,0.9,0.3,0.9,0.8c0,0.3-0.2,0.6-0.5,0.8l-0.4,0.4
	c-0.3,0-0.5,0.1-0.5,0.4c0.3,0,0.6,0,0.9,0v0.4c-0.3,0.3-0.8,0.4-1.4,0.4h-1.4c-0.3,0-0.4,0.1-0.4,0.4h-0.9c-0.3,0-0.6,0-0.9,0h-0.5
	h-0.4l-0.4,0.4h-0.5c-0.3,0-0.6,0.1-0.9,0.4c0-0.3,0.3-0.6,0.9-0.8l0.5-0.8h0.4h0.4c0.3-0.3,0.5-0.5,0.5-0.8
	c-0.3,0.3-0.6,0.4-0.9,0.4l-0.4-0.4h-0.5h-0.4h-0.5c0-0.3,0.3-0.5,0.9-0.8c0.3-0.3,0.5-0.5,0.5-0.8v-0.4l-0.5-0.4
	c1.2,0,1.8-0.3,1.8-0.8v-0.8h-0.5c-0.3,0-0.4-0.1-0.4-0.4v-0.4h-0.4h-0.5h-0.9l0.5-0.4v-0.4v-0.4v-0.4l-0.5-0.4v0.4h-0.4v-0.4
	c0-0.3,0.1-0.4,0.4-0.4v-0.4h-0.4c-0.3,0-0.5-0.1-0.5-0.4l0.5-0.4v-0.4c-0.6,0-0.9-0.2-0.9-0.8c0,0-0.2,0-0.5,0V232.5z M244.2,238.9
	c0-0.3,0.1-0.4,0.4-0.4v0.4H244.2z M240.1,237.8c0-0.3,0.2-0.5,0.5-0.8h0.4h0.9c0.6,0,0.9,0.1,0.9,0.4c0.3,0.3,0.5,0.7,0.5,1.2
	l-0.5,0.4v1.6v0.4c0,0.3-0.2,0.5-0.4,0.8h-0.5h-0.4c-0.3,0-0.6,0.1-0.9,0.4l-0.5,0.4h-0.4c0,0.3,0,0.4,0,0.4s-0.2,0-0.5,0
	s-0.4-0.1-0.4-0.4c-0.3-0.3-0.5-0.5-0.5-0.8s0.2-0.5,0.5-0.8l0.4-0.4c0-0.3,0-0.5,0-0.8c-0.3-0.3-0.4-0.5-0.4-0.8v-0.4h0.4h0.5
	c0.3,0,0.4-0.1,0.4-0.4V237.8z M147.4,188c0.8-0.3,1.5-0.4,2-0.4h0.8h0.4v-0.4c0.3,0,0.5,0,0.8,0v-0.4l0.4-0.4
	c0.3,0,0.8,0.1,1.6,0.4l0.4,0.4h0.4c0.5-1,1.2-1.5,2-1.5h0.4h0.4c0-0.3,0.3-0.4,0.8-0.4h4c0-0.2,0.1-0.4,0.4-0.4c0.3,0,0.5,0,0.8,0
	l0.4,0.4c0.3,0,0.5-0.1,0.8-0.4h0.4h0.4h0.4h0.4h1.2h0.8c0.5,0,0.9,0,1.2,0c1.3,0,2.1,0.3,2.4,0.8c-0.1,0.1-0.2,0.2-0.4,0.2l2.3-0.6
	c0.3,0,0.5,0.1,0.8,0.4h0.4v0.4c0.3,0.3,0.5,0.4,0.8,0.4h0.4h0.4c0.5,0,0.8,0.3,0.8,0.8l-0.4,0.4H176c-0.5,0.5-1.3,0.8-2.4,0.8h-0.8
	l-0.4,0.4c-0.5,0-1.1,0.1-1.6,0.4c0.3,0.3,0.7,0.3,1.2,0h0.8c0.3,0,0.5,0,0.8,0c-0.3,0.3-0.9,0.6-2,1.2c-0.3,0-0.7,0.1-1.2,0.4
	L170,191h-0.4c-0.5,0.2-1.2,0.6-2,1.1l-0.4,1.2c-0.5,0.2-0.8,0.5-0.8,0.7c-0.3,0-0.7,0-1.2,0h-0.4h-0.4h-0.8h-0.4
	c-0.5,0.3-0.9,0.5-1.2,0.8h1.2c0,0.3-0.1,0.5-0.4,0.8H162c0.5,0.3,0.9,0.5,1.2,0.8c-0.3,0.3-0.5,0.5-0.8,0.8L162,198
	c-0.3,0-0.4,0.1-0.4,0.4H160v0.4c0,0.5-0.3,0.8-0.8,0.8l-0.4,0.4c-0.3,0.2-0.4,0.5-0.4,0.8h1.2c0.3,0,0.4,0.1,0.4,0.4
	c0,0.3-0.4,0.5-1.2,0.8s-1.3,0.4-1.6,0.4h-0.4c-0.3,0-0.4-0.1-0.4-0.4H156h-2.8H153c-0.3,0-0.5,0-0.8,0c-0.5,0-1.6-0.2-3.2-0.8v0.4
	l-0.4,0.4c-0.3,0-0.4-0.1-0.4-0.4c0-0.8,0.3-1.2,0.8-1.2h0.8h0.4l0.4-0.4v-0.4h-0.4c-0.3-0.2-0.4-0.5-0.4-0.8v-0.4h0.4h0.4
	c0.5,0,0.9,0.1,1.2,0.4l0.4,0.4l0.4,0.4h0.8c-0.3-0.2-0.4-0.5-0.4-0.8h-0.8c-0.3-0.5-0.4-0.9-0.4-1.1h-0.4H151h-0.8v-0.4
	c0.3-0.5,0.7-0.9,1.2-1.1c0.3,0,0.5-0.1,0.8-0.4h0.4c0.5,0,0.8-0.2,0.8-0.8c0-0.5-0.4-0.9-1.2-1.1h-0.4l-0.4-0.4
	c-0.3,0-0.4-0.1-0.4-0.4l0.4-0.4h0.4c-0.3,0-0.4-0.1-0.4-0.4h0.4h0.4h0.4c0.5,0,0.9,0.1,1.2,0.4h0.4l0.4,0.4v0.4
	c0.5,0.2,0.9,0.4,1.2,0.4l-0.4-0.4v-0.4l-0.8-0.4v-0.4h0.4h1.6l0.4-0.4h0.8c0.3-0.3,0.4-0.5,0.4-0.8h-0.4c-0.5,0.5-1.5,0.8-2.8,0.8
	h-0.4h-0.4h-0.4h-0.4H153c-0.3,0-0.5,0-0.8,0c-0.5-0.3-0.7-0.5-0.4-0.8h-0.4l-0.8,0.8c-0.5,0-0.9-0.1-1.2-0.4
	c-0.5-0.2-0.8-0.5-0.8-0.8c0.3-0.2,0.5-0.4,0.8-0.4H149h-0.4c-0.3,0-0.5,0-0.8,0c0.3-0.3,0.5-0.5,0.8-0.8c-0.3,0.2-0.5,0.4-0.8,0.4
	l-0.4-0.4c0.3-0.3,0.5-0.5,0.8-0.8h-0.8c-0.3,0.3-0.5,0.4-0.8,0.4h-0.8C145.8,188.6,146.4,188.2,147.4,188z M167.7,213.2l0.8,0.4
	c0.3,0.3,0.7,0.4,1.2,0.4v0.8h0.4c0.5,0,0.9,0.3,1.2,0.8h-0.4h-0.4c-0.3,0-0.4,0.1-0.4,0.4c0.3,0.3,0.5,0.4,0.8,0.4h0.4h0.4
	c-0.8,0.5-1.2,0.9-1.2,1.2c0.3,0.3,0.5,0.4,0.8,0.4c0,0.3,0.3,0.5,0.8,0.8c0.3,0.3,0.7,0.4,1.2,0.4c0,0.8,0.3,1.1,0.8,1.1h0.4h0.4
	l0.4,0.4h0.4c0.8,0,1.2,0.4,1.2,1.1l-0.4,0.4c-0.3,0-0.5,0-0.8,0v0.4v0.4c-0.3,0.3-0.5,0.4-0.8,0.4c0,0.3,0,0.5,0,0.8h-0.4
	c-0.5,0-1.1-0.4-1.6-1.2l-0.8-0.4V222c-0.5-0.3-0.9-0.4-1.2-0.4h-0.4v0.4c0.1,0,0.3,0,0.4,0v0.4c-0.3,0.3-0.4,0.3-0.4,0v0.8h0.4
	c0,0.3,0.1,0.5,0.4,0.8c0,0.3,0.1,0.5,0.4,0.8h0.4h0.4v0.4h0.8c0,0.3,0,0.5,0,0.8l0.4,0.4v0.4c0,0.3,0,0.5,0,0.8v0.4l-0.4,0.4
	c-0.3,0-0.8-0.1-1.6-0.4c-0.8-0.5-1.3-0.9-1.6-1.2h-0.4c0,0.3,0.1,0.4,0.4,0.4l0.4,0.4l0.4,0.4c0.8,0.5,1.2,1,1.2,1.5v0.4h-0.4v-0.4
	h-0.4c-0.3,0-0.5-0.1-0.8-0.4H170c-0.5-0.2-0.9-0.4-1.2-0.4c-0.3-0.3-0.5-0.4-0.8-0.4l-0.8-0.4h-0.4c-0.5-0.3-0.7-0.6-0.4-1.2
	c-0.5-0.2-1-0.5-1.6-0.8l-0.4-0.4l-0.8-0.8l-0.4,0.4c0,0.3-0.1,0.4-0.4,0.4h-0.4v-0.4c-0.3,0-0.5,0.1-0.8,0.4h-0.4
	c-0.3,0-0.5,0-0.8,0c-0.5-0.3-0.8-0.5-0.8-0.8s0.1-0.5,0.4-0.8c0.5-0.3,0.9-0.4,1.2-0.4h1.2c0.3,0,0.5,0,0.8,0l0.8-0.4v-0.4
	l-0.4-0.4c0-0.2,0.1-0.5,0.4-0.8h0.4h0.4v-0.4l0.4-0.4l0.4-0.8c0-0.5-0.4-1.1-1.2-1.9c-0.8-0.8-1.5-1.2-2-1.2l-0.4,0.4
	c-0.3,0.3-0.5,0.4-0.8,0.4v-0.4V217l0.4-0.4h0.4l-0.4-0.4c-0.5-0.2-0.8-0.5-0.8-0.8c-0.8-0.5-1.3-0.8-1.6-0.8l-0.8,0.4
	c-0.3,0.5-0.5,0.8-0.8,0.8s-0.4-0.1-0.4-0.4V215c-0.3,0-1,0-2.4,0H154h-0.8c-0.5,0-0.9,0-1.2,0s-0.5-0.1-0.8-0.4l-0.4-0.4h-1.6
	c0-0.3-0.1-0.4-0.4-0.4c-0.3-0.2-0.4-0.5-0.4-0.8c0.3,0,0.5,0,0.8,0h0.4h0.4v-0.4c-0.3-0.2-0.9-0.4-2-0.4c-0.3-0.5-0.4-0.9-0.4-1.2
	c0-0.8,0.1-1.3,0.4-1.5l0.4-0.4V209v-0.4c0.8-1,1.7-1.5,2.8-1.5l1.2,0.8l-0.4,0.4l-0.4,0.4c-0.5,0.2-0.8,0.5-0.8,0.8
	c0,0.5,0.1,0.8,0.4,0.8v0.4v0.4c0,0.2,0.1,0.4,0.4,0.4l0.4-0.4c0.3,0,0.4-0.1,0.4-0.4l-0.4-0.4v-0.4v-0.4c0-0.5,0.4-1,1.2-1.5
	c0.8,0,1.6,0,2.4,0c0.5,0,0.9,0.3,1.2,0.8c0.3,0.2,0.4,0.6,0.4,1.1v0.4c-0.3,0.2-0.3,0.4,0,0.4l0.4-0.4h0.4h0.4v0.4h0.4
	c0.3,0,0.4-0.1,0.4-0.4l0.8-0.8c0.5,0,1,0.1,1.6,0.4c0.5,0.3,0.9,0.4,1.2,0.4s0.4,0.2,0.4,0.8h0.4v0.4c0.5,0.5,0.9,0.8,1.2,0.8h1.2
	h0.4c0.5,0.3,0.8,0.4,0.8,0.4s0,0.1,0,0.4L167.7,213.2z M160.5,227c-0.3,0.3-0.4,0.4-0.4,0.4s-0.1-0.1-0.4-0.4h0.4H160.5z
	 M160.9,219.3c0-0.8,0.3-1,0.8-0.8c0.8,0,1.2,0.3,1.2,0.8c0,0.3-0.1,0.5-0.4,0.8c-0.3,0-0.5,0-0.8,0
	C161.2,220.1,160.9,219.8,160.9,219.3z M163.3,219v-0.4h0.4h0.4l0.4,0.4v0.4c-0.3,0-0.5,0-0.8,0C163.4,219.3,163.3,219.2,163.3,219z
	 M159.3,216.3c0,0.5-0.3,0.8-0.8,0.8l0.4-0.4L159.3,216.3z M156.1,243.4c0.3,0,0.5,0,0.8,0l0.4,0.4h-0.4h-0.4h-0.4L156.1,243.4
	L156.1,243.4z M155.3,228.9c-0.5,0.3-0.9,0.4-1.2,0.4v-0.4l0.4-0.4v-0.4c0.3-0.2,0.4-0.4,0.4-0.4c0.3,0,0.6,0,1.2,0
	C155.9,228.3,155.6,228.6,155.3,228.9z M156.5,227h-0.8c-0.8-0.8-1.3-1.2-1.6-1.2c0,0.3-0.1,0.7-0.4,1.2c-0.5,0.3-0.9,0.4-1.2,0.4
	c0,0.3-0.1,0.4-0.4,0.4V227c-0.3-0.3-0.5-0.4-0.8-0.4L151,227h-0.4v-0.8h0.4c0.3-0.3,0.4-0.5,0.4-0.8V225c0-0.2,0-0.5,0-0.8
	c0-0.2,0.1-0.5,0.4-0.8c0.3-0.5,0.5-0.8,0.8-0.8c0,0.3,0.1,0.4,0.4,0.4v0.4v0.4l0.4-0.4c0.3,0.3,0.5,0.4,0.8,0.4l0.4,0.4
	c0.8,0.3,1.3,0.5,1.6,0.8v0.4l0.4,0.4l0.4,0.4h0.8C157.2,226.7,156.8,227,156.5,227z M154.6,223.2c-0.3,0-0.5-0.1-0.8-0.4v-0.4h0.4
	v0.4L154.6,223.2z M157.7,228.9c0.5,0,0.8,0.1,0.8,0.4v0.4c-0.3,0.3-0.4,0.4-0.4,0.4c-0.3,0-0.5-0.3-0.8-0.8
	C157.3,229,157.5,228.9,157.7,228.9z M144.2,209.8c0,0.3-0.3,0.6-0.8,1.2h-0.8c0-0.5,0-0.9,0-1.2c-0.3-0.2-0.4-0.5-0.4-0.8v-0.4
	v-0.4v-0.8h0.8c-0.3,0-0.4-0.1-0.4-0.4h0.4v-0.4c0.3-0.2,0.4-0.4,0.4-0.4s0.1,0,0.4,0c0.3,0,0.5,0.1,0.8,0.4h0.8
	c0.8,0.3,1.5,0.4,2,0.4v0.4l-0.8,0.4l-0.4,0.8l-0.4,0.4c-0.3,0.3-0.7,0.4-1.2,0.4h-0.4h-0.4v0.4L144.2,209.8L144.2,209.8z
	 M140.7,211.7h-0.4h-0.4v0.4h-0.4v0.4c-0.3,0-0.5,0-0.8,0v-0.4v-0.4c-0.5-0.3-1.1-0.5-1.6-0.8l-0.8-0.4c-0.5-0.2-0.8-0.5-0.8-0.8
	V209l0.8,0.4c0.3,0,0.5,0,0.8,0h0.4v-0.8h-0.4h-0.4c-0.3,0-0.4-0.1-0.4-0.4v-0.4h0.4c0.3-0.3,0.5-0.4,0.8-0.4l0.8-0.4l0.4,0.4h1.6
	c0.3,0,0.4,0.1,0.4,0.4c0,0.3-0.1,0.5-0.4,0.8l-0.8,0.4h0.8h0.4v0.4c0,0,0,0.1,0,0.4h0.4h0.4c-0.3,1-0.4,1.7-0.4,1.9L140.7,211.7
	L140.7,211.7z M141.1,216.3c0.8,0.5,1.2,0.9,1.2,1.2h-0.4v0.4h-0.4c-0.3,0-0.9-0.1-2-0.4l-1.2-0.4c0-0.2,0.1-0.4,0.4-0.4
	c0.3,0,0.4,0,0.4,0l0.4-0.4v-0.4c0-0.3,0.3-0.4,0.8-0.4L141.1,216.3z M135.5,216.3v0.4h0.4c-0.3,0.5-0.9,0.8-2,0.8
	c-0.3,0-0.5-0.1-0.8-0.4c-0.3,0-0.5,0-0.8,0c-0.5-0.5-0.9-0.8-1.2-0.8h-0.4l-0.4,0.4c0,0.3-0.1,0.4-0.4,0.4h-0.4l-0.8,0.4
	c-0.5,0-0.9,0.1-1.2,0.4h-3.2c-0.3,0-0.4-0.1-0.4-0.4V217l-0.4-0.4h-0.8h-0.4H122c-0.5,0-0.9-0.1-1.2-0.4c-0.3-0.2-0.4-0.5-0.4-0.8
	L120,215c0.8-0.5,2-0.8,3.6-0.8c0.3,0,0.5,0,0.8,0h0.4l-0.4-0.4H124h-2h-0.4h-0.4c-0.3,0-0.5,0-0.8,0c-0.8,0-1.2-0.2-1.2-0.8
	c0-0.2,0.1-0.5,0.4-0.7c-0.3,0-0.5-0.1-0.8-0.4l-0.4-0.4c0-1,0.5-1.8,1.6-2.3s2-0.8,2.8-0.8c0.3,0,0.4,0.1,0.4,0.4l0.4,0.4h0.4
	l0.4-0.4c0.8,0,1.3,0.4,1.6,1.2c0.5,0,0.9-0.1,1.2-0.4v-0.4h0.4c0.8,0,1.3,0.2,1.6,0.8c0,0.2,0,0.5,0,0.8v0.4c0,0.3,0.1,0.4,0.4,0.4
	h0.4v-0.4c0-0.2-0.1-0.6-0.4-1.1c-0.3-0.8-0.4-1.3-0.4-1.5h0.4c0-0.3,0.1-0.4,0.4-0.4h0.4v0.4c0.3,0,0.4-0.1,0.4-0.4v-0.4
	c0-0.5,0.4-0.8,1.2-0.8s1.2,0.4,1.2,1.1c0,0.3-0.1,0.4-0.4,0.4l-0.4,0.8c0,0.2,0,0.5,0,0.8c0.3,0.2,0.4,0.5,0.4,0.8
	c0.3,0.8,0.4,1.3,0.4,1.5c0,0.5,0.5,1,1.6,1.5l0.8,0.4l0.4,0.4c0.5,0.3,0.9,0.4,1.2,0.4c-0.5,0.3-0.8,0.4-0.8,0.4s-0.3,0-0.8,0
	c-0.3,0-0.4,0.1-0.4,0.4v0.4H135.5z M136.3,202.5c-0.3,0-0.5-0.1-0.8-0.4v-0.4c0.3,0,0.5,0.1,0.8,0.4c0.5,0.2,0.9,0.4,1.2,0.4v-0.8
	c-0.8,0-1.2-0.2-1.2-0.8h0.4h0.4h0.8c0.3,0.3,0.5,0.4,0.8,0.4l0.4-0.4c0.5,0,0.8,0.4,0.8,1.2v0.4v0.8c-0.3,0.5-0.4,0.9-0.4,1.1
	l-0.8,0.4h-0.4h-0.4h-0.4c-0.3,0-0.4-0.1-0.4-0.4V204v-0.4c0-0.2,0.3-0.4,0.8-0.4h0.4l-0.4-0.4c-0.3,0-0.8,0.1-1.6,0.4
	c-0.5,0-0.9,0-1.2,0h-0.4v-0.4h-0.4l-0.4-0.4h-0.4l-0.4-0.4v-0.4v-0.4c0-0.1,0-0.3,0-0.4h0.4c0.3,0,0.5,0.1,0.8,0.4l0.4,0.4v0.4
	C135.2,202.6,135.8,202.8,136.3,202.5z M134.7,198.3l0.4-0.4h0.4h0.4h0.4v0.4h-1.2H134.7z M133.5,203.6h0.4v0.4
	c0,0.3-0.1,0.4-0.4,0.4v0.4h-0.4c-0.3-0.3-0.4-0.4-0.4-0.4s-0.1,0-0.4,0C132.6,204.2,133,203.9,133.5,203.6z M141.1,204.8
	c0-0.3,0.1-0.5,0.4-0.8h0.4v-0.4l0.4-0.4h0.4c0.3,0,0.7,0.1,1.2,0.4c0.3,0.3,0.4,0.4,0.4,0.4s0,0.1,0,0.4c0,0.8-0.3,1.2-0.8,1.2
	L141.1,204.8z M146.2,205.2c-0.8-0.2-1.2-0.6-1.2-1.1l0.4-0.4h0.4c-0.3-0.2-0.5-0.6-0.8-1.1l-0.4-0.4l-0.4-0.4c-0.3,0-0.5,0-0.8,0
	s-0.8-0.1-1.6-0.4c-0.5-0.3-0.8-0.5-0.8-0.8s0.1-0.4,0.4-0.4h0.4c0.5,0,1.2,0.1,2,0.4l0.4,0.4c0.3,0.3,0.5,0.4,0.8,0.4
	c0.5,0,0.8-0.1,0.8-0.4h0.8c-0.3,0.5-0.1,0.8,0.4,0.8h0.4h0.4l0.4,0.4h-1.6c0,0.5,0.3,0.8,0.8,0.8h0.4c0.3,0,0.4,0.1,0.4,0.4v0.4
	l0.4-0.4l0.4,0.4h0.8c0.5,0.3,0.9,0.4,1.2,0.4c0.8,0,1.6-0.2,2.4-0.8h0.4h0.4c0.5-0.2,0.9-0.4,1.2-0.4c1.6,0,2.5,0.4,2.8,1.1
	l-0.4,0.4h0.4c0,0.8-0.3,1.2-0.8,1.2c-0.3,0-0.7,0.1-1.2,0.4h-0.4h-0.4c-0.3,0-0.4-0.1-0.4-0.4c-0.3,0-0.4-0.1-0.4-0.4l-0.8,0.4H151
	c-0.5,0.3-0.9,0.3-1.2,0c-0.5,0-0.8-0.1-0.8-0.4h-0.4c0,0.3-0.1,0.4-0.4,0.4l-0.4,0.4C147.3,205.9,146.7,205.7,146.2,205.2z
	 M141.5,198.7c0.3,0,0.7,0,1.2,0l0.8-0.4h0.4h0.4v0.8c0,0.2-0.1,0.4-0.4,0.4C143.6,199.4,142.8,199.2,141.5,198.7z M157.3,208.6
	v-0.4c-0.3,0-0.4-0.1-0.4-0.4l0.4-0.4h0.4h0.4h0.4c0.3,0.3,0.5,0.4,0.8,0.4c0.5,0,1,0.1,1.6,0.4l0.4,0.4h0.4c0,0.5-0.1,0.8-0.4,0.8
	c-0.3,0-0.5,0-0.8,0l-0.4-0.4l-0.8,0.4c-0.3,0-0.4,0-0.4,0c-1,0-1.5-0.3-1.2-0.8H157.3z M142.2,192.6c0.3,0,0.4,0.1,0.4,0.4
	c0.3,0,0.4,0,0.4,0s0.1,0,0.4,0v-0.4h-0.8c-0.3-0.3-0.4-0.5-0.4-0.8v-0.4h0.4h0.4l0.4,0.4h0.4h0.4v-0.4h-0.4h-0.4
	c-0.3,0-0.4-0.1-0.4-0.4h-0.4v-0.4c0.5-0.2,1-0.4,1.6-0.4c-0.3-0.3-0.4-0.5-0.4-0.8c0.8,0.2,1.5,0.5,2,0.8h0.4
	c0.3,0.2,0.4,0.5,0.4,0.8c0,0.5,0.1,0.8,0.4,0.8h0.4h0.4h0.4h0.4l0.4,0.4v0.4v0.4h0.4v-0.4v-0.4h0.4c0.3,0,0.4,0.1,0.4,0.4v0.4h0.4
	v0.4v0.4c-0.3,0-0.4,0.1-0.4,0.4h0.4h0.4h0.8h0.4l0.4,0.4v0.4l-0.4,0.4h-0.4h-0.4l-0.4,0.4c-0.3,0.5-0.5,0.8-0.8,0.8
	s-0.4-0.2-0.4-0.8l-0.4,0.4H149l0.4,0.4c0,0.3,0.1,0.4,0.4,0.4H149v0.8l-0.8-0.4l-0.4-0.4c0,0.5-0.3,0.8-0.8,0.8s-0.9,0-1.2,0
	c-0.3-0.3-0.4-0.5-0.4-0.8h0.4c-0.3,0-0.5-0.1-0.8-0.4c-0.5-0.2-0.8-0.5-0.8-0.8c0-0.2,0.4-0.5,1.2-0.8H145h-0.4h-0.4v-0.4h-0.4
	l-0.4,0.4c-0.3,0-0.4-0.1-0.4-0.4c0.3-0.2,0.5-0.4,0.8-0.4c-1.3,0-2-0.5-2-1.5L142.2,192.6L142.2,192.6z M140.3,195.6l0.4,0.4
	c0.3,0,0.5,0,0.8,0c0,0.5,0.3,0.8,0.8,0.8h0.4v0.4v0.4v0.4c-0.5,0.3-1.1,0.4-1.6,0.4s-0.8-0.1-0.8-0.4l0.4-0.4l-0.4-0.4h-0.4
	c-0.3-0.5-0.4-0.9-0.4-1.1l0.4-0.4L140.3,195.6L140.3,195.6z M138.7,192.9h0.4h0.4v0.8h-0.8v-0.4c-0.3,0-0.4-0.1-0.4-0.4
	L138.7,192.9L138.7,192.9z M132.3,194.8c0.3,0,0.5,0,0.8,0h0.4h0.4l0.4,0.4h0.4l0.4-0.4c0.3,0,0.5,0.3,0.8,0.8
	c0,0.3,0.1,0.4,0.4,0.4v-0.4h0.4c0.3,0,0.5,0.1,0.8,0.4v0.4h0.4l-0.4,0.4l0.4,0.4c0.5,0.3,0.8,0.5,0.8,0.8l-0.4,0.4h-0.4
	c-0.3,0-0.5-0.1-0.8-0.4c-0.3-0.2-0.5-0.4-0.8-0.4l-0.4-0.4h-0.4c-0.3,0-0.5,0-0.8,0h-0.4h-0.4h-0.4c-0.5,0-0.9-0.1-1.2-0.4
	c0.3-0.3,0.5-0.4,0.8-0.4h0.4V196h-0.4h-0.4h-0.4c0-0.3,0-0.4,0-0.4c-0.3,0-0.4-0.2-0.4-0.8H132.3z M132.3,198.7l0.4,0.4l0.4,0.4
	c0,0.3,0,0.4,0,0.4s-0.1,0-0.4,0c-0.3,0-0.5-0.1-0.8-0.4c-0.3-0.5-0.4-0.9-0.4-1.1C131.8,198.3,132.1,198.4,132.3,198.7z
	 M125.6,197.5c-0.3,0-0.4-0.1-0.4-0.4c-0.3,0-0.5,0-0.8,0h-0.2c-0.1,0.1-0.2,0.3-0.2,0.4v-0.4h0.2c0.2-0.2,0.5-0.5,1-0.8
	c0.5-0.2,0.9-0.4,1.2-0.4c0.8,0,1.3,0.4,1.6,1.1h-0.4l-0.4,0.4h-0.4c0.3,0,0.5,0.1,0.8,0.4c-0.3,0.3-0.8,0.4-1.6,0.4h1.2
	c0,0.5-0.3,0.9-0.8,1.1c-0.3,0-0.7,0-1.2,0c-0.3,0-0.5-0.1-0.8-0.4l-0.4-0.4c0-0.5,0.4-0.8,1.2-0.8c0.3-0.2,0.5-0.4,0.8-0.4h-0.4
	V197.5z M122.8,197.9l0.4,0.4h0.4c-0.3,0.3-0.4,0.4-0.4,0.4s-0.1,0-0.4,0l-0.4-0.4C122.4,197.8,122.5,197.7,122.8,197.9z
	 M123.6,200.6v0.4h-0.8l-0.4-0.4H123.6z M122.8,201.4l0.4,0.4c0.3,0,0.4,0.1,0.4,0.4h0.8c0.3,0,0.6,0.2,1.2,0.8
	c0.3,0.2,0.5,0.4,0.8,0.4c0.5,0,0.9,0,1.2,0c0.5,0,0.8-0.1,0.8-0.4c-0.3,0-0.5,0-0.8,0l0.4-0.4v-0.4h-0.4l-0.4-0.4
	c0-0.2,0.1-0.5,0.4-0.8l0.4-0.4c0.3,0,0.4-0.1,0.4-0.4c0.3,0.3,0.5,0.4,0.8,0.4v0.4c0,0.5,0.1,0.9,0.4,1.2c0.3,0.2,0.5,0.4,0.8,0.4
	h0.4c0.3-0.2,0.5-0.4,0.8-0.4l0.4,0.4c0.3,0.3,0.4,0.5,0.4,0.8l-0.8,0.8c-0.3,0.5-0.5,0.8-0.8,0.8H130h-1.2l-1.2,0.4h-0.4h-0.4
	l-0.4,0.4c-0.8,0.3-1.6,0.4-2.4,0.4h-0.4l-0.8-0.4c0-0.3,0.1-0.5,0.4-0.8h0.4c0-0.3,0-0.5,0-0.8c-0.5,0-0.8,0.3-0.8,0.8H122h-0.4
	h-0.4h-0.4h-0.4c-0.5,0-0.8-0.3-0.8-0.8v-0.8h0.4h0.4h0.4h0.4l-0.4-0.4v-0.4h0.4h0.4c-0.3,0-0.4-0.1-0.4-0.4c0-0.3,0.3-0.4,0.8-0.4
	c-0.3,0-0.4-0.1-0.4-0.4c0.3,0,0.5,0,0.8,0L122.8,201.4L122.8,201.4z M119.2,203.3l-0.4,0.4c-0.3,0-0.5,0-0.8,0c0-0.2,0-0.4,0-0.4
	c0-0.2,0.3-0.5,0.8-0.8h0.4h0.4C119.6,202.8,119.5,203,119.2,203.3z M114.9,201.7c0.3,0,0.4-0.1,0.4-0.4h0.4l0.4-0.4
	c0.3,0,0.5-0.1,0.8-0.4c0.3,0,0.4-0.1,0.4-0.4l0.4-0.4c0.3-0.3,0.7-0.4,1.2-0.4h0.4h0.4c1.3-0.5,2-0.5,2,0c0,0.3-0.1,0.5-0.4,0.8
	v0.4v0.4l-1.6,1.2l-0.4-0.4v-0.4c0-0.3-0.1-0.4-0.4-0.4c0,0.3-0.1,0.5-0.4,0.8c-0.3,0.3-0.5,0.4-0.8,0.4v0.4l-0.4,0.4
	c-0.3,0-0.5,0-0.8,0v-0.4H116h-0.4h-0.4h-0.4l-0.4-0.4L114.9,201.7z M111.7,210.2l0.4-0.4l0.4-0.4c0.5-1,0.8-1.7,0.8-1.9
	s0-0.5,0-0.8l-0.4-0.4v-0.4c0.3-0.2,0.7-0.2,1.2,0h0.4h0.4h0.4h0.4c0.3-0.2,0.5-0.4,0.8-0.4c0,0.3,0.1,0.4,0.4,0.4l0.4,0.4h0.8
	c0.3,0.3,0.5,0.4,0.8,0.4l0.4-0.4h0.4c0.3,0,0.7,0.3,1.2,0.8c0.8,0.3,1.2,0.5,1.2,0.8s-0.4,0.5-1.2,0.8h-0.4H120h-0.4
	c-0.5,0.2-1.1,0.8-1.6,1.5c-0.5,0.5-0.8,1-0.8,1.5l-1.6,0.8l-1.2,0.4H114c0-0.2-0.1-0.4-0.4-0.4h-0.4v-0.4v-0.4h-0.4h-0.4v-0.4
	c-0.5,0-0.8-0.1-0.8-0.4C111.7,210.7,111.7,210.4,111.7,210.2z M71.2,233.1h-0.4l-0.4-0.4h0.8c0-0.2,0-0.4,0-0.4s0.1,0,0.4,0
	s0.4,0.3,0.4,0.8L71.2,233.1L71.2,233.1z M85.5,236.9c-0.5,0-1.1,0.4-1.6,1.2c0-0.3-0.1-0.4-0.4-0.4h-0.4v-0.8h0.4l0.4-0.4h0.8h0.8
	C85.5,236.5,85.5,236.9,85.5,236.9z M103.7,239.6c0-0.5,0.1-0.8,0.4-0.8c0-0.3,0.3-0.3,0.8,0c-0.3,0.2-0.1,0.6,0.4,1.1
	c0.3,0.3,0.4,0.5,0.4,0.8s0,0.4,0,0.4s-0.1,0-0.4,0l-0.4-0.4l-0.4-0.4V240v-0.4v-0.4h-0.4L103.7,239.6z M106.1,244.6v0.4
	c-0.3,0-0.4-0.1-0.4-0.4l-0.4-0.4l0.4-0.4l-0.4-0.4V243h-0.4v-0.4l-0.4-0.4c0.3,0,0.5,0,0.8,0v0.4v0.4l0.4-0.4v0.4v0.4l0.4,0.4h-0.4
	v0.4L106.1,244.6z M111.7,249.2l-0.4-0.4v-0.4c-0.3,0-0.6,0-0.8,0c-0.3-0.3-0.5-0.5-0.8-0.8c0.3,0,0.4-0.1,0.4-0.4h-0.4h-0.4
	l0.4-0.4h0.4l0.4,0.4h0.4v0.4c1.1,0.2,2.1,1,3.2,2.3v0.4c-0.5,0-1.1-0.1-1.6-0.4C112.2,249.7,111.9,249.4,111.7,249.2z M203,317.6
	l-0.4,0.4l-0.4,0.8c-0.3,0.3-0.5,0.5-0.8,0.8v0.4H201c0,0.3-0.1,0.4-0.4,0.4c0,0.3-0.1,0.5-0.4,0.8h-0.4v0.4
	c-0.3,0.3-0.4,0.7-0.4,1.2l0.4,0.8v0.8c0,0.2,0,0.6,0,1.1l-0.4,0.4v0.4v0.4H199v0.4v0.4c0,0.2,0,0.5,0,0.7l-0.4,0.8l-0.4,0.4v0.4
	c-0.3,0.5-0.5,0.9-0.8,1.2v0.4v0.4c-0.3,0.3-0.5,0.5-0.8,0.8s-0.5,0.4-0.8,0.4c-1.1,0-1.7,0-2,0v0.4l-0.4,0.4l-0.4,0.4h-0.4h-0.4
	c-0.5,0.2-0.9,0.5-1.2,0.8c0,0.2-0.1,0.4-0.4,0.4l-0.4,0.4c-0.3,0.2-0.4,0.9-0.4,1.9v1.5c-0.5,0.5-1.1,1.1-1.6,1.9v0.4v0.4l-0.4,0.4
	c0,0.3-0.1,0.5-0.4,0.8l-0.4,0.4c-0.5,0.5-0.9,0.9-1.2,1.2c0,0.2-0.1,0.5-0.4,0.8v0.8l-0.4,0.4c-0.5,0.8-1.1,1.1-1.6,1.1
	c-0.3,0-0.7-0.1-1.2-0.4h-0.4c-0.3,0-0.5-0.1-0.8-0.4h-0.4h-0.4H180c0,0.2,0.1,0.4,0.4,0.4l0.4,0.4v0.4l0.4,0.4v0.4v0.4h0.4v0.4
	c0,0.5,0,0.9,0,1.1c0,0.3-0.3,0.7-0.8,1.2c-0.3,0.3-0.7,0.4-1.2,0.4h-0.4c-0.3,0-0.5,0.1-0.8,0.4H178h-0.4c-0.5-0.3-0.9-0.3-1.2,0
	c-0.3,0.2-0.4,0.6-0.4,1.1v0.4c0,0.2,0,0.5,0,0.8v0.4c-0.3,0.3-0.5,0.4-0.8,0.4h-0.4l-0.4-0.4H174h-0.4c-0.3,0-0.4,0.1-0.4,0.4
	c0,0.2,0.1,0.5,0.4,0.8c0,0.2,0.1,0.4,0.4,0.4h0.4h0.4v0.4v0.4h-0.4H174l-0.4-0.4v0.4l0.4,0.4c-0.3,0.3-0.5,1-0.8,2.3
	c0,0.3-0.1,0.4-0.4,0.4h-0.4H172c-0.5,0.3-0.8,0.8-0.8,1.5c0,0.5,0.3,0.9,0.8,1.1l0.4,0.4c0.3,0,0.4,0.1,0.4,0.4
	c0,0.5-0.3,0.9-0.8,1.2l-0.4,0.4l-0.4,0.4v0.4v0.4l-0.4,0.4c0,0.3-0.1,0.4-0.4,0.4H170l-0.4,0.4c-0.3,0.3-0.4,0.8-0.4,1.5
	c0,0.3,0.1,0.4,0.4,0.4v0.4c0.3,0.3,0.5,0.8,0.8,1.5v0.4v0.4l0.4,0.4c0.3,0.5,0.7,0.9,1.2,1.2l0.8,0.4l0.8,0.4h-0.4h-0.4h-0.4
	l-0.4,0.4h-0.4l-0.4,0.4h-0.4h-0.4h-0.8c-0.5,0-0.8-0.1-0.8-0.4v-0.4l-0.4-0.4H168l-0.4-0.4c-0.3,0-0.4-0.1-0.4-0.4h-0.8l-0.4-0.4
	v-0.4c-0.5,0-0.9,0-1.2,0l-0.4-0.4l-0.4-0.4v-0.4v-0.4h0.4c0-0.2,0.1-0.4,0.4-0.4h-0.4V370v-0.4c0-0.3-0.1-0.5-0.4-0.8
	c-0.3-0.3-0.4-0.5-0.4-0.8v-0.4c0-0.5-0.1-1-0.4-1.5v-0.4v-0.4c0-0.3,0-0.5,0-0.8v-0.4l0.4-0.4v-0.4l0.4-0.4l-0.4-0.8
	c-0.3-0.3-0.4-0.5-0.4-0.8c0-0.5,0.1-0.8,0.4-0.8c0.3,0,0.4,0.1,0.4,0.4c0.3,0.3,0.5,0.4,0.8,0.4l0.8-5.4v-0.8h-0.4v0.4h-0.4v-0.4
	c-0.3-0.2-0.4-0.5-0.4-0.8c0-0.2,0.1-0.5,0.4-0.8v-0.8v-0.4h0.4c0-0.3-0.1-0.4-0.4-0.4v-0.8v-0.4v-0.4c0-0.2,0.1-0.6,0.4-1.1v-0.4
	c0.3-0.2,0.4-0.5,0.4-0.8v-0.4l0.4-0.4v-0.4h0.4c0-0.2,0-0.6,0-1.1l0.4-0.8v-0.8v-2.7c-0.3-0.2-0.3-0.6,0-1.1v-0.8
	c0-0.3,0.1-0.5,0.4-0.8c0-0.3,0-0.6,0-1.2l0.4-0.8c0-0.2,0-0.5,0-0.7v-0.4c0-0.2,0.1-0.5,0.4-0.8v-0.4V334v-1.5c0-0.2,0-0.6,0-1.1
	l0.4-0.4c0-0.2,0-0.5,0-0.8c0-0.2-0.1-0.8-0.4-1.5c0-0.8,0-1.3,0-1.5c-0.3-0.7-0.8-1.3-1.6-1.5l-0.4-0.4h-0.4l-0.4-0.4
	c-0.3-0.5-0.7-0.8-1.2-0.8c-0.5-0.3-1.2-0.8-2-1.5c-0.3,0-0.4-0.3-0.4-0.8v-0.4c0-0.2,0-0.5,0-0.8l-0.4-0.4v-0.4
	c-0.3-0.2-0.4-0.5-0.4-0.8l-0.4-0.4c-0.3-0.5-0.4-0.9-0.4-1.2c-0.3-0.7-0.5-1.5-0.8-2.3h-0.4l-0.4-0.4v-0.4v-0.4
	c-0.3,0-0.4-0.1-0.4-0.4h-0.4c-0.3-0.3-0.4-0.5-0.4-0.8c-0.3-0.5-0.4-0.9-0.4-1.2c0-0.2,0-0.5,0-0.8l0.4-0.4l0.4-0.4l0.8-0.8h-0.8
	l-0.4-0.8v-0.8v-0.4l0.4-0.4c0.3-0.5,0.4-1,0.4-1.5c0.3,0,0.5-0.3,0.8-0.8c0.3,0,0.4-0.1,0.4-0.4v1c0.3-0.3,0.4-0.5,0.4-0.8h0.4
	c0.5-0.3,0.8-0.5,0.8-0.8V303c-0.3,0-0.4-0.1-0.4-0.4h0.4v-0.4v-0.4c-0.3,0-0.4-0.1-0.4-0.4c0-0.2,0.1-0.4,0.4-0.4v-0.4v-0.4
	l-0.4-0.4l-0.4-0.4V299v-0.4h-0.4v-0.4h0.4l-0.4-0.4h-0.4c0-0.2-0.1-0.4-0.4-0.4l-0.4,0.4c-0.5,0.3-0.8,0.5-0.8,0.8h0.4
	c0,0.5-0.1,0.8-0.4,0.8c-0.3,0-0.5-0.1-0.8-0.4l-0.4-0.4l-0.4-0.4h-0.4h-0.4v-0.4c-0.3,0-0.5,0-0.8,0v-0.4V297l-0.8-0.4
	c0-0.3-0.1-0.4-0.4-0.4H153c-0.3,0-0.4-0.1-0.4-0.4v-0.4V295l-0.4-0.4v-0.4l-0.8-0.4v-0.4c-0.5-0.3-0.8-0.6-0.8-1.2h-0.4h-0.4v0.4
	c-0.3,0-0.5-0.1-0.8-0.4h-0.4l-0.4-0.4l-0.4-0.4h-0.4c-0.5,0-0.9,0-1.2,0c-0.3-0.2-0.4-0.5-0.4-0.8l-0.8-0.4
	c-0.3-0.5-0.5-0.9-0.8-1.2h-0.4c-0.3,0-0.5,0-0.8,0h-0.4v0.4l-0.4,0.4h-0.4l-0.4-0.4H141c0-0.2-0.1-0.4-0.4-0.4v0.4h-0.4l-0.8-0.8
	H139l-0.4-0.4h-0.4h-0.4h-0.4H137c0-0.3-0.1-0.5-0.4-0.8c-0.3,0-0.4-0.1-0.4-0.4h-0.4h-0.4c0-0.2-0.1-0.4-0.4-0.4h-0.4
	c0-0.3-0.1-0.4-0.4-0.4l-0.4-0.4c-0.5-0.3-0.8-0.5-0.8-0.8h-0.4c-0.3-0.3-0.4-0.5-0.4-0.8l0.4-0.4v-0.4c0-0.3,0-0.5,0-0.8l-0.4-0.4
	c0-0.5-0.3-1.1-0.8-1.9c-0.3,0-0.5-0.3-0.8-0.8h-0.4l-0.4-0.4c0-0.2-0.1-0.4-0.4-0.4l-0.4-0.4l-0.4-0.4v-0.4v-0.4
	c-0.3-0.2-0.4-0.5-0.4-0.8H128c-0.5-0.5-0.8-0.9-0.8-1.1h-0.4c0-0.3-0.1-0.5-0.4-0.8l-0.8-0.4v-0.4l-0.4-0.4c0-0.2,0-0.5,0-0.8
	l-0.4-0.4v-0.4c0-0.2-0.1-0.4-0.4-0.4l-0.4-0.4h-0.4c-0.3,0-0.5-0.1-0.8-0.4v0.4c0,0.3,0.1,0.7,0.4,1.2v0.4l0.4,0.4
	c0,0.3,0.1,0.4,0.4,0.4l0.4,0.4v0.4c0.5,0.3,0.8,0.8,0.8,1.5c0.3,0.3,0.5,0.5,0.8,0.8l0.4,0.8v0.4l0.4,0.8v0.7
	c0.3,0.3,0.5,0.5,0.8,0.8c0.3,0,0.4,0.1,0.4,0.4c0.3,0,0.4,0.1,0.4,0.4v0.4H128l-0.4-0.8c-0.3,0-0.5-0.1-0.8-0.4l-0.4-0.4L126,279
	v-0.4v0.4l-0.8-0.8l-0.4-0.4c0-0.3-0.1-0.4-0.4-0.4L124,277c-0.3,0-0.5-0.1-0.8-0.4h0.4c0.3,0,0.4-0.1,0.4-0.4c-0.8-1-1.5-1.7-2-1.9
	c0-0.2,0-0.5,0-0.8l-0.4-0.8v-0.4l-0.4-0.4v-0.4c-0.3-0.3-0.4-0.6-0.4-1.2c-0.3-0.5-0.8-1-1.6-1.5c-0.3-0.3-0.7-0.5-1.2-0.8
	c-0.3,0-0.5-0.1-0.8-0.4c-0.3,0-0.4-0.1-0.4-0.4v-0.4c0-0.2-0.1-0.5-0.4-0.8l-0.4,0v-0.4c-0.3-0.5-0.4-1.1-0.4-1.9
	c-0.5,0-0.9-0.3-1.2-0.8l-0.4-1.2l-0.4-0.4l-0.4-0.4v-0.4l0.4-0.4c0-0.3,0-0.8,0-1.5V258c0-0.5-0.1-0.9-0.4-1.2
	c0-0.2,0.1-0.9,0.4-1.9v-0.4l0.4-0.8V253c0-0.2,0-0.5,0-0.8l-0.4-0.4l-0.4-0.4c0-0.2,0-0.5,0-0.7h0.4c0.5,0,0.9,0.1,1.2,0.4v-0.4
	c0.3-0.3,0.4-0.5,0.4-0.8l-0.4-0.4v-0.4h-0.4l-0.4-0.4l-0.4-0.4c-0.3,0-0.5,0-0.8,0c0-0.5-0.1-0.8-0.4-0.8H112
	c-0.5-0.3-0.8-0.5-0.8-0.8c-0.5,0-0.9-0.3-1.2-0.8v-0.4l-0.4-0.8l-0.8-0.8c-0.3,0-0.4-0.1-0.4-0.4v-0.4V243H108h-0.4
	c-0.3-0.3-0.4-0.5-0.4-0.8v-0.8V241v-0.4h-0.4c-0.5,0-0.9-0.1-1.2-0.4c-0.3-0.3-0.4-0.5-0.4-0.8V239c0-0.5-0.4-0.8-1.2-0.8h-0.4
	c0-0.2,0-0.5,0-0.8l0.4-0.4v-0.4h-0.4l-0.4,0.4c-0.3,0-0.4-0.1-0.4-0.4c-0.3,0-0.4-0.1-0.4-0.4v0.8h0.4v0.4v0.4c0,0.2,0,0.5,0,0.8
	c-0.5-0.5-0.8-1-0.8-1.5c-0.5-0.3-0.8-0.6-0.8-1.2v-0.4h0.4h0.4h0.4v0.8c0-0.3,0.1-0.4,0.4-0.4v-0.4l-0.4-0.4H102
	c-0.3,0-0.5-0.1-0.8-0.4v0.4H101c0,0.3-0.1,0.4-0.4,0.4l-0.8-0.8l-0.4-0.4c0-0.2-0.1-0.4-0.4-0.4c-0.3-0.3-0.8-0.5-1.6-0.8l-0.8-0.4
	c-0.3,0-0.5,0-0.8,0h-1.6l-0.8-0.4H93c-0.3-0.2-0.5-0.4-0.8-0.4c-0.8-0.2-1.3-0.6-1.6-1.1h-0.4h-0.4l-0.4,0.4c0,0.2,0,0.5,0,0.7
	c0,0.3-0.5,0.7-1.6,1.2c-0.8,0.5-1.3,0.8-1.6,0.8h-0.4c-0.3,0-0.4-0.1-0.4-0.4h0.4v-0.4v-0.4c0-0.8,0.5-1.3,1.6-1.5v-0.4H87
	c-0.5,0-1.2,0.4-2,1.1c-0.8,0.8-1.2,1.4-1.2,1.9v0.8c0,0.5-0.5,1-1.6,1.5l-0.4,0.4h-0.4v0.4c-0.3,0.2-0.7,0.6-1.2,1.1l-0.4,0.4
	c-0.3,0-0.5,0.1-0.8,0.4c-0.5,0.5-1.5,0.9-2.8,1.2c-0.3,0-0.5,0.1-0.8,0.4H75l-0.4,0.4c-0.8,0.5-1.5,0.6-2,0.4
	c0.3-0.2,0.5-0.4,0.8-0.4h0.8v-0.4h0.4l0.4-0.8c0.3-0.2,0.5-0.4,0.8-0.4v-0.4h0.8c0.3,0,0.5,0,0.8,0c0.3-0.5,0.7-1,1.2-1.5l0.8-0.4
	c0.3-0.3,0.5-0.4,0.8-0.4s0.4-0.1,0.4-0.4l0.4-0.8c0.3-0.5,0.5-0.9,0.8-1.2h-0.4H81l-0.4,0.4c-0.3,0-0.5,0-0.8,0h-0.4H79v0.4h-0.4
	c-0.5,0-1-0.2-1.6-0.8v0.4h-0.4l-0.4,0.4H76v0.1c0-0.3,0-0.5,0-0.8v-0.8V233h-0.4c-0.3,0-0.4,0.1-0.4,0.4l-0.4,0.4
	c-0.3,0-0.7-0.2-1.2-0.8c-0.5-0.5-0.9-0.9-1.2-1.1h0.4c0-0.2,0-0.5,0-0.8h-0.4l-0.4-0.4c-0.3-0.3-0.4-0.5-0.4-0.8
	c0-0.5,0.4-1,1.2-1.5c0.5-0.3,1.1-0.4,1.6-0.4l0.4-0.4c0.3,0,0.6,0,1.2,0c0.5-0.5,0.8-0.9,0.8-1.2V226l-0.4-0.4l0.4-0.4v-0.4h-0.4
	c-0.3,0-0.5,0.1-0.8,0.4h-0.4c0,0.3-0.1,0.4-0.4,0.4l-0.4-0.4H74h-0.4h-2l-0.4-0.4v-0.4V224v-0.4c-0.5,0-0.9-0.1-1.2-0.4
	c0.3-0.2,0.5-0.4,0.8-0.4l0.8-0.8c0.8-0.2,1.3-0.5,1.6-0.8H74c0,0.5,0.1,0.9,0.4,1.1h0.4h0.4h0.4H76c0-0.7-0.3-1.1-0.8-1.1
	c0-0.2-0.1-0.4-0.4-0.4l-0.4-0.4H74l-0.4-0.8l-0.4-0.4c0-0.3-0.1-0.4-0.4-0.4l-0.4-0.4H72l-0.8-0.4l0.4-1.1h2
	c1.3-1.8,2.9-2.9,4.8-3.5V213l0.4,0.4c0.3,0,0.5-0.1,0.8-0.4H80l0.4-0.4l0.4-0.7c0.3,0,0.5,0.1,0.8,0.4v0.4H82l-0.4,0.4
	c0.5,0.3,0.9,0.1,1.2-0.4h0.4c0,0.3,0.1,0.4,0.4,0.4h1.6l0.4,0.4c0.3,0,0.5,0.1,0.8,0.4h2.8c0.3,0.3,0.9,0.5,2,0.8
	c0.3,0,0.5,0,0.8,0c0.5,0.3,0.9,0.4,1.2,0.4l0.4-0.4H94c0.3,0,0.5,0,0.8,0s0.6,0.1,1.2,0.4h0.4c0.3,0,0.5,0.1,0.8,0.4h0.4l0.4,0.4
	c0.5,0.5,1.2,0.8,2,0.8c0.8,0.3,1.5,0.4,2,0.4V217h-0.4c0-0.2,0.1-0.4,0.4-0.4c0-0.3,0.3-0.4,0.8-0.4h0.4v-0.4
	c0.3-0.3,0.5-0.1,0.8,0.4l0.8-0.4h0.4l0.4-0.4c0.5-0.2,1.3-0.5,2.4-0.8c0.3,0.5,0.5,0.8,0.8,0.8s0.4-0.1,0.4-0.4l0.4-0.4
	c0-0.2,0.1-0.4,0.4-0.4l0.8,0.8c0.3,0.3,0.4,0.5,0.4,0.8c0.3,0,0.5,0,0.8,0s0.5-0.1,0.8-0.4V215h0.4c0,0.3,0.1,0.4,0.4,0.4l0.4,0.8
	c0.3,0,0.5-0.1,0.8-0.4c0.3-0.3,0.5-0.4,0.8-0.4c0.5,0,1,0.1,1.6,0.4l0.4,0.4h0.8c1,0.8,2,1.2,2.8,1.2l1.6-0.4
	c0.3,0.3,0.7,0.7,1.2,1.2c0,0.2-0.1,0.4-0.4,0.4h-0.4H122v0.4c0.3,0,0.4,0.1,0.4,0.4c0.3,0,0.7,0,1.2,0h0.4h0.4
	c0.5-0.2,0.9-0.4,1.2-0.4h2l0.8,0.4l0.4,0.4l0.4,0.4c0,0.3,0.3,0.4,0.8,0.4v-0.4l-0.4-0.4v-0.4c0-0.2,0.1-0.5,0.4-0.8h0.4
	c0.5,0,0.8-0.2,0.8-0.8c-0.3,0.3-0.5,0.4-0.8,0.4c-0.3,0.2-0.7,0.4-1.2,0.4c-0.3,0-0.4-0.1-0.4-0.4c0-0.5,0.4-0.8,1.2-0.8l0.4-0.4
	h0.4h0.8c0.3,0.8,0.9,1.3,2,1.5c0.8,0.5,1.7,0.8,2.8,0.8c0.3,0,0.7,0,1.2,0h0.4h0.4c0.3,0,0.5,0,0.8,0c0-0.8,0.4-1.1,1.2-1.1h0.8
	c0.3,0.2,0.5,0.4,0.8,0.4v0.4v0.4h-0.4c0,0.5,0.3,0.6,0.8,0.4c0-0.3,0.1-0.5,0.4-0.8c0-0.3,0.1-0.4,0.4-0.4h0.4
	c0.5-0.5,0.8-1,0.8-1.5l-0.4,0.4l-0.4,0.4c0-0.8,0-1.3,0-1.5s-0.3-0.5-0.8-0.8H142h-0.4c-0.3-0.2-0.4-0.5-0.4-0.8v-0.4l0.4-0.4h0.4
	v-0.4l-0.4-0.4v-0.4c0-0.2,0.1-0.4,0.4-0.4h0.4V212v-0.4c0-0.3,0.1-0.4,0.4-0.4c1.6,0.3,2.4,0.9,2.4,1.9v0.4v0.4h0.4
	c0.3,0.3,0.4,0.5,0.4,0.8v0.4l-0.4,0.4H145c0.3,0.3,0.5,0.4,0.8,0.4h0.8l0.4,0.4c-0.3,0-0.4,0.1-0.4,0.4c0.5,0.3,0.8,0.8,0.8,1.5
	c0.3,0,0.4-0.1,0.4-0.4l0.4-0.8c0-0.5,0.1-0.8,0.4-0.8c0.3,0,0.5,0.3,0.8,0.8c0.5,0.3,0.8,0.5,0.8,0.8s-0.1,0.4-0.4,0.4l-0.4,0.4
	c0,0.3,0.1,0.5,0.4,0.8c0,0.3,0.1,0.4,0.4,0.4c0.3,0.5,0.7,0.5,1.2,0c0-0.3,0.1-0.5,0.4-0.8v-0.4l0.4-0.8h0.4
	c0.3-0.2,0.4-0.5,0.4-0.8l-0.4-0.4v-0.4c0-0.2,0-0.5,0-0.8c0.3,0,0.5,0,0.8,0h0.4h0.4c0.3,0,0.5,0.1,0.8,0.4c0.3,0,0.4,0.1,0.4,0.4
	c0.5,0.3,0.9,0.4,1.2,0.4v0.4c0,0.3,0,0.5,0,0.8c-0.5,0-0.8,0.3-0.8,0.8v0.4l0.4,0.4c0.3,0.3,0.4,0.5,0.4,0.8s-0.3,0.6-0.8,1.2
	c-0.8,0.5-1.2,0.6-1.2,0.4h-0.4v0.4c-0.3,0-0.5,0-0.8,0l-0.4,0.4l-0.4-0.4h-0.4v-0.4c-0.3,0-0.5,0-0.8,0l0.4,0.4v0.4
	c0,0.3-0.1,0.5-0.4,0.8c-0.5,0.3-0.9,0.4-1.2,0.4s-0.5-0.1-0.8-0.4H149l-0.4-0.4h-0.8c0.3,0.5,0.7,0.8,1.2,0.8
	c0.3,0.3,0.5,0.4,0.8,0.4h1.2v0.8c-0.3,0-0.4,0.1-0.4,0.4l-0.8,0.4c-0.3,0.3-0.5,0.4-0.8,0.4h-0.8v0.4h-0.4c0,0.5-0.1,0.6-0.4,0.4
	c-0.5-0.2-1-0.4-1.6-0.4h-0.4c0,0.3,0.1,0.4,0.4,0.4h0.4l0.4,0.4c0.5,0,0.8,0.1,0.8,0.4c0,0.3-0.3,0.5-0.8,0.8h-0.4
	c-0.3,0-0.5,0-0.8,0l-0.4,0.8v0.4l-0.4,0.4c0,0.3-0.1,0.4-0.4,0.4c-0.8,1-1.2,2-1.2,3v1.9h0.4v-0.4c0.3,0,0.5,0,0.8,0
	s0.5,0.4,0.8,1.2s0.4,1.4,0.4,1.9c0.3,0,0.4-0.1,0.4-0.4h0.4l0.4-0.4c0.3,0,0.5,0.1,0.8,0.4l0.8,0.4c2.1,1,3.6,1.8,4.4,2.3h2.4
	c0.3,0.5,0.5,1,0.8,1.5v0.8v0.4v0.4c0,0.5,0.3,1,0.8,1.5c0.3,0.3,0.4,0.5,0.4,0.8c0.3,0.3,0.5,0.5,0.8,0.8c0.3,0,0.5,0,0.8,0v-0.4
	c0-0.2,0.1-0.4,0.4-0.4l0.4-0.4v-0.4v-0.8v-0.4V243c-0.3-1-0.7-1.7-1.2-1.9c0.5,0,1.2-0.4,2-1.2c0.5-0.5,0.8-0.9,0.8-1.1
	c0-1-0.1-1.9-0.4-2.7l-0.4-0.4l-0.4-0.4c-0.3-0.5-0.5-0.9-0.8-1.1h0.4c0.3-0.3,0.5-0.4,0.8-0.4c0.3-0.2,0.4-0.6,0.4-1.1
	c0-0.2-0.1-0.4-0.4-0.4V232l-0.4-0.4c-0.3-0.3-0.3-0.5,0-0.8c0.5-0.3,0.7-0.5,0.4-0.8v-0.4h-0.4v-0.4c0-0.3,0.1-0.5,0.4-0.8h0.4
	c0.3,0,0.7,0,1.2,0l0.8,0.4c0.3,0,0.5,0,0.8,0h0.4l0.4-0.4c0.5,0,0.9,0.2,1.2,0.8h0.4v0.4c0.3,0.3,0.5,0.4,0.8,0.4
	c0,0.5,0.3,0.8,0.8,0.8l0.4,0.4h0.4l0.4,0.4v0.4v0.4c0.3,0.5,0.4,0.9,0.4,1.2c0,0.5,0.3,0.8,0.8,0.8l0.4,0.4l0.4,0.8
	c0.5,0,1.1-0.2,1.6-0.8c0.5-0.5,0.8-1,0.8-1.5v-0.4l0.4-0.4h0.4l0.4,0.4c0,0.3,0.1,0.4,0.4,0.4v0.4l0.4,0.4c0.5,0.3,0.6,0.5,0.4,0.8
	c0,0.5,0.1,0.9,0.4,1.2l0.4,0.4h0.4c0,0.3,0,0.5,0,0.8h0.4v0.4c0,0.2-0.1,0.4-0.4,0.4v0.4H176l0.4,0.4l0.4,0.4
	c0.5,0.2,0.9,0.4,1.2,0.4c0,0.5,0.3,0.9,0.8,1.2c0.5,0.2,1.1,0.4,1.6,0.4h0.4v0.4c0,0.2-0.4,0.5-1.2,0.7l-0.4,0.4h-0.4
	c-0.3,0-0.5,0.1-0.8,0.4h0.4c0.3,0,0.8-0.1,1.6-0.4c0.5-0.2,1-0.5,1.6-0.8v0.4c0,0.3,0.1,0.4,0.4,0.4v0.4c0.3,0.8,0.4,1.4,0.4,1.9
	s-0.4,0.9-1.2,1.1h-0.8l-0.4,0.4c-0.5,0-0.8,0.1-0.8,0.4c-0.5,0.8-1.1,1.2-1.6,1.2c-0.3,0-0.5,0-0.8,0l-0.8-0.4h-0.8h-0.8h-0.8
	c-0.5,0-1.1,0.1-1.6,0.4c-0.3,0-0.5,0.1-0.8,0.4v0.4v0.4c-0.3,0.3-0.5,0.4-0.8,0.4H170c-0.5,0.2-0.9,0.6-1.2,1.1l0.8-0.4h0.4
	l0.4-0.4c0.8-0.5,1.5-0.8,2-0.8h0.4c0.3,0,0.5,0,0.8,0c0.5,0.3,0.8,0.5,0.8,0.8s-0.3,0.5-0.8,0.8h-0.4l-0.4,0.4h0.4h0.4v0.4v0.4
	c-0.3,0-0.4,0.1-0.4,0.4c0,0.3,0.4,0.6,1.2,1.1c0.5,0.5,1,0.8,1.6,0.8h0.8c0.3,0,0.4,0.1,0.4,0.4c0,0.3-0.4,0.5-1.2,0.8
	c-0.5,0.3-0.9,0.4-1.2,0.4s-0.4,0.1-0.4,0.4H174l-0.4,0.4l-0.8,0.8l-0.4-0.4c-0.3-0.3-0.4-0.5-0.4-0.8s0.3-0.5,0.8-0.8
	s1.1-0.4,1.6-0.4c-0.5,0-0.8-0.1-0.8-0.4v-0.4c-0.3,0-0.4,0.1-0.4,0.4h-0.4v0.4H172h-0.4h-0.4v0.4c-0.3,0.5-0.7,0.8-1.2,0.8h-0.8
	c0,0.3-0.1,0.4-0.4,0.4l-0.4,0.4l-0.4,0.4c-0.3,0.3-0.4,0.8-0.4,1.5c0,0.3,0,0.5,0,0.8h0.4l-0.4,0.4c-0.3,0-0.4-0.1-0.4-0.4
	c-0.3,0.3-0.7,0.5-1.2,0.8h-0.4v0.4c-0.1,0-0.2,0-0.4,0l0.4-0.4h-0.4c-0.3,0-0.5,0.1-0.8,0.4H164v0.4v0.4c0,0.3,0,0.5,0,0.8
	l-0.8,0.8v-0.4l-0.4,0.4v0.4h0.4v0.4l-0.4,0.8l-0.4,0.8l-0.4-0.4v-0.4v-0.4v-0.4l-0.4-0.4v0.4c0,0.3,0,0.5,0,0.8
	c0.3,0.3,0.4,0.5,0.4,0.8v0.4v0.4v0.4h-0.4c0,0.2,0.3,0.4,0.8,0.4c-0.3,0.3-0.5,0.4-0.8,0.4v0.4l0.4,0.4l-0.4,0.4l-0.4,0.4h-0.4
	c-0.3,0-0.5,0.1-0.8,0.4v0.4h-0.4l-0.8,0.8c-0.5,0-0.9,0.2-1.2,0.7c-0.8,0.5-1.2,1.4-1.2,2.7c0,0.5,0.1,1,0.4,1.5
	c0.5,0.5,0.8,1,0.8,1.5v0.4v0.4c0.3,0.2,0.4,0.5,0.4,0.8c0,1-0.3,1.5-0.8,1.5c-0.3,0-0.4-0.1-0.4-0.4l-0.4-0.4v-0.4H156V279
	c-0.3-0.3-0.5-0.5-0.8-0.8c0-0.3,0-0.6,0-1.2l-0.4-0.4v-0.8c-0.3-0.8-0.7-1.2-1.2-1.2h-0.4L153,274h-0.4l-0.4-0.4l-0.4-0.4
	c-0.3,0-0.5,0-0.8,0h-0.4l-0.4,0.4v-0.4h-0.4h-0.4H149c-0.5,0-0.8,0.1-0.8,0.4h0.4l-0.4,0.4c0,0.3,0.1,0.5,0.4,0.8
	c-0.3,0.3-0.7,0.1-1.2-0.4H147l-0.4-0.4h-0.4h-0.4c0,0.3-0.1,0.4-0.4,0.4L145,274l-0.4-0.4c-0.5,0-0.9,0.3-1.2,0.8
	c-0.3,0-0.4,0.1-0.4,0.4l-0.4,0.4h-0.4h-0.4v0.4c-1.1,0.2-1.6,1-1.6,2.3l0.4,0.4v0.8c0,0.3,0,0.5,0,0.8l-0.4,0.4v0.4v1.9v0.4
	l0.4,0.4v0.4v0.4v0.4l0.4,0.4l0.4,0.4v0.4c0.3,0,0.4,0.1,0.4,0.4l0.4,0.4c0.3,0.3,0.5,0.5,0.8,0.8h0.4v0.4h0.4h0.4l0.4-0.4h0.4
	c0.3,0,0.5,0,0.8,0h0.4h0.4V287l0.4-0.4l0.4-0.4v-0.8c0-0.5,0.3-0.9,0.8-1.2c0.5-0.2,1.1-0.4,1.6-0.4c0.3,0,0.5,0,0.8,0s0.5,0,0.8,0
	v0.4c0,0.3-0.1,0.7-0.4,1.2c-0.3,0.2-0.4,0.5-0.4,0.8c0,0.5-0.1,1-0.4,1.5V287h-0.4v1.9v0.4h-0.4v0.4v0.4h0.4c0.3,0,0.8,0,1.6,0h0.8
	c0.3,0,0.5,0,0.8,0s0.5,0.1,0.8,0.4h0.4c0.3,0,0.4,0.1,0.4,0.4v0.8v0.4v0.8v2.7c0,0.2,0.1,0.5,0.4,0.8c0,0.2,0.1,0.4,0.4,0.4h0.4
	l0.4,0.4v0.4c0.3,0.3,0.5,0.4,0.8,0.4l0.4-0.4h0.4l0.8-0.4h0.4c0.5,0,0.9,0.1,1.2,0.4l0.4,0.4l0.4,0.4h0.4l0.4-0.4v-0.4h0.4V297
	c0.3,0,0.4-0.1,0.4-0.4v-0.4c0-0.5,0.3-0.8,0.8-0.8c0.5-0.3,0.9-0.4,1.2-0.4l0.8-0.4h0.4l0.4-0.4h0.4c0-0.2,0.1-0.4,0.4-0.4h0.4v0.4
	l-0.4,0.4l-0.4,0.4v0.4v0.8c0,0.2,0,0.5,0,0.8c0.3,0.2,0.5,0.4,0.8,0.4c0-0.2,0-0.5,0-0.8v-0.4l-0.4-0.4c0-0.2,0.1-0.5,0.4-0.8h0.4
	h0.4h0.8c0-0.2-0.1-0.4-0.4-0.4H168v-0.4h0.8c0,0.3,0.1,0.5,0.4,0.8h0.4h0.4c0,0.5,0.1,0.8,0.4,0.8h2c0,0.3,0.1,0.4,0.4,0.4h0.4
	c0.5,0,0.9-0.1,1.2-0.4l0.4-0.4h0.4c0.3,0,0.5,0.1,0.8,0.4h-0.4c0,0.3,0.1,0.5,0.4,0.8h0.8c0-0.5,0.1-0.8,0.4-0.8v0.4
	c0,0.2-0.1,0.4-0.4,0.4l0.4,0.4c0.3,0,0.4,0.1,0.4,0.4v0.4v0.4h0.8c0.3,0,0.5,0.1,0.8,0.4v0.4c0.3,0,0.5,0.3,0.8,0.8h0.4
	c0.3,0.5,0.7,0.9,1.2,1.1c0.3,0,0.5,0,0.8,0h0.4l0.4,0.4h0.8h0.4h0.4h0.4v0.4h0.4c0.3,0,0.5,0.1,0.8,0.4l0.8,0.8h0.4
	c0,0.3,0,0.6,0,1.1l0.4,0.8v0.4h0.4v0.4c0.3,0,0.4,0.1,0.4,0.4l-0.4,0.4l-0.8,0.4c-0.3,0.5-0.4,1-0.4,1.5v0.4h0.4
	c0.3,0.3,0.5,0.5,0.8,0.8h0.8c-0.3,0-0.5-0.1-0.8-0.4c-0.5-0.2-0.8-0.5-0.8-0.7c0-0.5,0-0.8,0-0.8s0.3,0,0.8,0h0.4h0.4l0.4,0.4
	l0.4-0.4v0.4v0.4l-0.4,0.4c0,0.5-0.1,0.8-0.4,0.8v0.4h0.4v-0.4l0.4-0.4l0.4-0.4c0.3-0.2,0.5-0.4,0.8-0.4s0.7,0,1.2,0l0.4,0.4
	c0.3,0.3,0.5,0.4,0.8,0.4l0.4,0.4l0.4,0.4v0.4h0.4h0.4c0.3,0,0.5,0.1,0.8,0.4c0.3,0,0.5,0,0.8,0h1.2c0.3,0,0.7,0,1.2,0
	c0.3,0.3,0.5,0.4,0.8,0.4c0,0.3,0.3,0.6,0.8,1.1l0.8,0.8h0.4h0.4c0.3,0,0.4,0,0.4,0s0.1,0,0.4,0c0.5,0.3,0.8,0.9,0.8,1.9
	C203.8,315.8,203.5,316.9,203,317.6z M164.1,357.8v-0.4V357l0.4-1.1c0.3,0,0.4,0.1,0.4,0.4v0.4v0.4v1.1h-0.4L164.1,357.8z
	 M183.1,248.4v0.4h0.4c0.5,0,0.9,0,1.2,0v0.4v0.4v0.4v0.4v0.4v0.4c0.3,0,0.5-0.1,0.8-0.4v0.4v0.4c0,0.5-0.1,0.8-0.4,0.8h-0.4V252
	h-0.4v-0.4l-0.4-0.4v0.4h-0.4l-0.4,0.4h-0.4c0-0.2,0.1-0.4,0.4-0.4h-0.4c-0.3,0-0.4-0.1-0.4-0.4l-0.8,0.4c-0.3,0-0.5-0.1-0.8-0.4
	h-0.4H180c-0.3,0.3-0.5,0.4-0.8,0.4v-0.4v-0.4l0.4-0.4V250h-0.4c0.5-0.3,0.9-0.8,1.2-1.5l0.4-0.4v-0.4l0.4-0.8l0.4-0.8
	c0.3-0.5,0.5-0.8,0.8-0.8v0.4c0,0,0,0.1,0,0.4c0,0.3,0,0.5,0,0.8l-0.4,0.4l-0.4,0.4v0.4h0.4h0.4h0.4l-0.4,0.4L183.1,248.4
	L183.1,248.4z M178.4,253v0.4c0,0.3-0.1,0.4-0.4,0.4h-0.4c-0.5,0-0.8-0.1-0.8-0.4l0.4-0.4l0.4-0.8h0.4v0.4v0.4L178.4,253L178.4,253z
	 M174.8,248.8l-0.4-0.4H174l-0.4-0.4c0.5,0,1,0.1,1.6,0.4h0.8l0.4,0.8H176C175.7,249.2,175.3,249,174.8,248.8z M176,253v0.4h-0.4
	c-0.3,0-0.5-0.1-0.8-0.4c-0.5-0.2-0.8-0.5-0.8-0.8c0.3,0.3,0.5,0.5,0.8,0.8H176z M172,287c0.3,0,0.5,0.1,0.8,0.4h-0.4H172
	c-0.3,0-0.5,0-0.8,0V287l0.4-0.4v0.4H172z M167.3,287.4l-0.4,0.4h-0.4v-0.4c-0.3,0-0.5,0-0.8,0h-0.4h-0.4h-0.4h-0.4
	c0-0.3,0-0.4,0-0.4v-0.4h1.6c-0.3,0-0.4-0.3-0.4-0.8c-0.3,0-0.4-0.1-0.4-0.4l0.4-0.4h0.4v0.4h0.4h0.4h0.4h0.4c0.5,0,0.9,0.1,1.2,0.4
	h0.4c0,0.2,0.1,0.4,0.4,0.4h-0.4l0.4,0.4h0.4l0.4,0.4h-1.6l-0.4,0.4h-0.4V287C167.4,287,167.3,287.2,167.3,287.4z M164.5,284.4V284
	c0.3,0,0.4-0.1,0.4-0.4v0.4C164.9,284.2,164.7,284.4,164.5,284.4z M161.3,285.5l-0.4-0.4h-0.4c0.3,0,0.4-0.1,0.4-0.4l-0.4-0.4h-0.4
	c-0.3,0-0.4-0.1-0.4-0.4c-0.3,0-0.4-0.1-0.4-0.4h-0.4h-0.4h-0.4l-0.4-0.4l-0.4-0.4h-1.2v-0.4h-0.4c-0.3,0-0.7,0.1-1.2,0.4
	c-0.5,0-0.8,0.1-0.8,0.4h-0.4c0.5-1,1.4-1.5,2.8-1.5c0.5,0,1.2,0.1,2,0.4c0.8,0.5,1.3,0.8,1.6,0.8h0.4v0.4c0.8,0.5,1.6,0.8,2.4,0.8
	v0.4h0.4c0.3,0,0.4,0.1,0.4,0.4l0.4,0.4c0,0.2-0.1,0.4-0.4,0.4h-0.4h-0.4c-0.3,0-0.5,0-0.8,0L161.3,285.5L161.3,285.5z M161.7,287.4
	l-0.4,0.4c-0.3,0-0.5,0-0.8,0l-0.4-0.4c0,0,0-0.1,0-0.4h0.4h0.4h0.4L161.7,287.4z M159.7,277.9h-0.4v-0.4h0.4h0.4v0.4H159.7z
	 M160.1,279.8v0.4v0.4c-0.3,0-0.4-0.1-0.4-0.4v-0.4H160.1z M192.3,216c0,0.3-0.3,0.5-1,0.8h-0.9h-1l-0.5-0.4
	c-0.3-0.5-0.5-0.9-0.5-1.2l0.5-0.4l0.5-0.4c0.6,0,1.1,0.3,1.4,0.8h0.5v0.4C191.6,215.8,192,216,192.3,216z M224.7,216.7
	c-0.6,0.5-1.1,0.8-1.4,0.8c-0.3,0.3-0.6,0.4-1,0.4h-1.4c-0.6,0.3-1.3,0.5-1.9,0.8h-1.9l-1,0.4l-1,0.8c-0.3,0.3-0.6,0.6-0.9,1.2
	l-0.5,0.4c0,0.3-0.2,0.4-0.5,0.4c0,0.2-0.5,0.5-1.4,0.8h-0.5l-1,0.4h-1v-0.8l-0.5,0.4v0.4v0.4c-0.3,0-0.6,0.2-1,0.4h-0.5h-0.5
	c-1,0.3-1.4,0.6-1.4,1.2v0.4v0.4v0.4c0.3,0.3,0.5,0.5,0.5,0.8s-0.2,0.4-0.5,0.4c0,0.3-0.3,0.4-1,0.4v0.4h-0.5
	c-0.3,0.3-0.5,0.5-0.5,0.8v0.4v0.8v0.8v0.8h-0.5v0.8c-0.3,0.5-0.6,0.8-0.9,0.8c-0.3,0-0.5-0.1-0.5-0.4c0,0.3-0.2,0.4-0.5,0.4h-0.5
	c-0.3,0-0.6-0.2-1-0.8c0-0.3-0.2-0.5-0.5-0.8h0c-0.3,0-0.6,0-1,0l-0.5,0.4H197c0-0.2-0.2-0.5-0.5-0.8H196c0-0.2-0.2-0.4-0.5-0.4
	v-0.4v-0.4c-0.7-0.3-1.1-0.8-1.4-1.6c-0.6-0.8-1-1.4-1-2V226l0.5-0.4c-0.3-0.2-0.6-0.2-1,0h-0.5c-0.3,0-0.5-0.1-0.5-0.4v-0.4v-0.4
	c-0.3-0.3-0.5-0.5-0.5-0.8l-0.5-0.4c-0.3-0.2-0.5-0.6-0.5-1.2v-0.4v-0.4h0.5c-0.3-0.2-0.7-0.2-1,0V220l0.5-0.4v-0.8
	c0.3-0.2,0.6-0.5,0.9-0.8c0.7-0.2,1.1-0.2,1.4,0c0-0.5,0.2-1,0.5-1.6l0.5-0.8l0.5-0.4c-0.3-0.3-0.8-0.4-1.4-0.4H192l-1-0.4
	c-1.3-0.3-1.9-0.6-1.9-1.2h0.5h0.5l0.9,0.4c0.7,0.3,1.1,0.4,1.4,0.4h0.5v0v-0.4c-0.3,0-0.6-0.1-1-0.4l-0.5-0.4v-0.4
	c-0.7-0.5-1.3-0.8-1.9-0.8L189,212h-0.5c-0.6,0-1-0.1-1-0.4v-0.4v-0.4h0.5c0.3-0.2,0.5-0.6,0.5-1.2l-0.5-0.4l0,0h-0.5V209
	c-0.6-2.1-1.6-3.6-2.9-4.7c-1.6-1.6-3.5-2.3-5.7-2.3h-1.4H177v0.4c-0.3,0.2-0.6,0.4-1,0.4l-0.5-0.4H175c-0.3,0-0.6,0-1,0v0.4
	c-0.6,0-1.3,0-1.9,0c-0.6-0.2-1-0.5-1-0.8l0.5-0.4l0.5-0.4h-1v-0.4l-1-0.4h-1.4l0.5-0.4h0.5c0-0.3,0.2-0.4,0.5-0.4h1h0.5h2.4
	c0.3-0.2,0.6-0.5,1-0.8h-1.9c0,0.3-0.2,0.4-0.5,0.4h-1.4l-1-0.4c-0.3,0-0.6-0.1-1-0.4c-1.6-0.5-2.4-0.9-2.4-1.2c0-0.5,0.3-0.8,1-0.8
	h0.5h1l0.5-0.4l0.5-0.4c0.7,0,1-0.1,1-0.4c0.3,0,0.7,0,1,0h1c1,0,1.6,0,1.9,0c0.6-0.5,1-1.2,1-1.9v-0.4h-0.5c-0.6,0-1.1,0-1.4,0
	c-0.6,0-1-0.1-1-0.4c0-0.3,0-0.5,0-0.8h0.5h0.5c1.6-0.5,2.9-1.3,3.8-2.3c0.3,0.2,0.8,0.4,1.4,0.4c0.3,0,0.5-0.2,0.5-0.8l0.5-0.4
	v-0.4c0-0.2,0.2-0.4,0.5-0.4s0.6,0,1,0h1c0.6-0.3,1.3-0.4,1.9-0.4c0.3,0,0.6-0.1,1-0.4h1c0.6-0.5,1.1-0.8,1.4-0.8
	c0.3,0,0.5,0.1,0.5,0.4v0.4h0.5l0.5,0.4c0,0.3,0.1,0.4,0.5,0.4c0-0.3,0-0.5,0-0.8h-0.5l0.5-0.8c0.3,0.5,0.6,0.8,1,0.8h0.5l1,0.4h0.5
	V187h-0.5v-0.4c0-0.2,0.2-0.4,0.5-0.4h0.5c1,0,1.7,0.1,2.4,0.4l1,0.4l0.5,0.4h1.9l-0.5-0.4c-0.3,0-0.6,0-1,0c-0.7-0.5-1-0.9-1-1.2
	c0-0.2,0.3-0.4,1-0.4h0.5V185c-0.3,0-0.5-0.1-0.5-0.4c1.3-0.5,2.5-0.8,3.8-0.8c1,0,1.7,0.1,2.4,0.4h1v-0.4c0.3,0,0.6,0,1,0h0.5h0.5
	c0.3,0,0.8,0,1.4,0l1.4-0.8c1.3-0.2,2.2-0.4,2.9-0.4h6.2c1,0,2.1,0.2,3.3,0.8l0.5,0.4l1,0.4c0.6,0.3,1.1,0.5,1.4,0.8
	c0.3,0.3,1,0.4,1.9,0.4h1c0.3,0,0.6,0,1,0c0,0.5-0.7,0.9-1.9,1.2H227h-1c-0.3,0.3-0.7,0.4-1,0.4l-9.6,0.4c0.3,0.3,1.7,0.3,4.3,0h1.4
	c0.6,0,1.1,0,1.4,0h1.4v0.4l-0.5,0.4l-0.5,0.4l-0.5,0.8c0.3,0,0.6-0.1,1-0.4l1-0.4l0.5-0.4c0.6-0.2,1.1-0.5,1.4-0.8l1-0.4
	c1,0,1.4,0.4,1.4,1.2c0,0.3-0.5,0.9-1.4,2l-0.5,0.4l-0.5,0.4l-0.5,0.8c0.3,0,1-0.5,1.9-1.6l0.5-0.8l0.5-0.4c0.3-0.2,0.6-0.4,1-0.4
	h2.9c0.3,0,0.6,0,1,0c0.3,0,0.6-0.1,1-0.4V188h0.5h1.9c0.3-0.5,0.6-0.8,1-0.8c0.3,0,0.8,0.3,1.4,0.8c1,0.3,1.4,0.5,1.4,0.8
	s-0.2,0.5-0.5,0.8H239c-0.6,0.2-1.1,0.4-1.4,0.4l-0.5,0.4l-0.5,0.4c-0.6,0.3-1.4,0.4-2.4,0.4c0.6,0.2,1,0.2,1,0
	c0,0.5-0.2,0.9-0.5,1.2h-0.5l-1,0.4v0.4c0,0.3-0.2,0.4-0.5,0.4l-0.5,0.4h-1v0.4v0.4c0,0.3-0.2,0.5-0.5,0.8l-0.5,0.4l-0.5,0.4
	c-0.3,0-0.5,0.3-0.5,0.8v0.4v0.4c0,0.3,0.2,0.3,0.5,0h0.5c0.3,0,0.6,0.1,1,0.4h0.5l0.5,0.4l-0.5,0.4v0.4h0.5c0.6,0.2,1,0.5,1,0.8
	c0,0.2-0.5,0.5-1.4,0.8c-0.3,0-0.6,0-1,0h-0.5v-0.4c-0.3,0-0.6,0.1-1,0.4v0.4c0,0.3,0.2,0.5,0.5,0.8h0.5h0.5v0.4v0.4
	c0.3,0.3,0.5,0.5,0.5,0.8v0.4v0.4c-1,0-1.4,0.3-1.4,0.8l0.5,0.4h1l0.5,0.4c-0.3,0.5-1,0.8-1.9,0.8c0,0.3,0.2,0.5,0.5,0.8
	c-0.3,0.3-0.8,0.5-1.4,0.8h-0.5c-0.3,0.2-0.4,0.4-0.5,0.7c0.3,0.2,0.5,0.5,0.5,0.9c0,0.2-0.2,0.5-0.5,0.8h-0.5c-0.3,0-0.7-0.1-1-0.4
	c-0.7-0.5-1.1-0.9-1.4-1.2h-0.5v0.4c0.3,0.3,0.8,0.6,1.4,1.2l0.5,0.4l1,0.4c1,0.8,1.4,1.6,1.4,2.3c0,0.3-0.2,0.4-0.5,0.4v0.4H228
	c-0.6,0-1.1-0.1-1.4-0.4c0-0.2-0.2-0.5-0.5-0.8c-0.3-0.8-0.8-1.2-1.4-1.2l-0.5,0.4l-0.5-0.4v0.4l0.5,0.4v0.4c0,0.3-0.2,0.4-0.5,0.4
	h-0.5c0,0.5,0.8,0.9,2.4,1.2h0.5h0.9c0.7,0,1,0,1,0s0,0.1,0,0.4c-0.3,0-1,0.3-1.9,0.8h-0.5C225.4,216.2,225.1,216.5,224.7,216.7z
	 M231.9,204.3l0.5-0.4h1v0.4h0.5l-0.5,0.4c-0.3,0.3-0.7,0.4-1,0.4v-0.4L231.9,204.3z M229,226l-0.5-0.4c-0.3,0-0.7,0-1,0v-0.4h0.5
	c0-0.3,0-0.5,0-0.8V224h-0.5H227h-0.5l1-0.4c0.3,0,0.6,0,1,0v-0.4c-0.3,0-0.8-0.1-1.4-0.4c-0.6,0-0.9-0.1-0.9-0.4
	c0.3-0.3,0.6-0.3,0.9,0V222h0.5v-0.4h0.5c0,0.2,0.2,0.4,0.5,0.4v0.4v0.4l0.5,0.4c0.3,0,0.5-0.1,0.5-0.4h0.5c-0.3-0.2-0.3-0.4,0-0.4
	v0.4h0.5l1-0.4l0.5,0.4v-0.4c0.3,0,0.6,0,1,0h0.5h0.5h0.5c0.3-0.3,0.5-0.3,0.5,0c0-0.3,0.2-0.5,0.5-0.8c0,0.5,0.3,0.8,1,0.8l0.5-0.4
	h0.5v0.4c0,0.2,0,0.5,0,0.8l0.5,0.4c0.6,0,1,0.3,1,0.8c-0.3,0.3-0.7,0.5-1,0.8c-0.3,0.5-0.6,0.8-1,0.8h-1l-0.5,0.4
	c-0.6,0.3-1.3,0.4-1.9,0.4c-0.7,0-1.3,0-1.9,0l-1-0.4l-1-0.4L229,226L229,226z M301.9,325.4v0.4l-0.4-0.4H301c0,1.3-0.2,2.6-0.5,3.9
	c0,0.5-0.2,1.1-0.5,1.6l-0.9,1.6v0.8v0.8c-0.3,0.5-0.6,1.1-0.9,1.6c-0.6,0.8-1.3,1.2-2.2,1.2c-0.6,0-1-0.1-1.3-0.4
	c-0.6-0.5-0.9-1-0.9-1.5l0.4-0.4v-0.4c-0.3-0.2-0.4-0.5-0.4-0.8v-0.8c0-0.2,0-0.5,0-0.8c0.3,0,0.6,0,0.9,0l0.4-2
	c0-0.2-0.1-0.5-0.4-0.8v-0.8v-0.4c0-0.8,0.3-1.3,0.9-1.6c0-0.3,0.3-0.4,0.9-0.4l0.4-0.4h0.4c0.3-0.3,0.7-0.8,1.4-1.6h0.4l0.5-0.8
	l0.4-0.4v-0.4v-0.4v-0.4c0.6,0,1,0.5,1.3,1.5v0.4l0.4,0.8C301.9,324.8,301.9,325.2,301.9,325.4z M310.7,291.9c-0.3,0-0.4,0-0.4,0
	s-0.2,0-0.5,0c0.3-0.3,0.6-0.4,0.9-0.4V291.9z M340.6,297.6c0,0.5-0.3,0.8-0.9,0.8s-0.9-0.4-0.9-1.2c0-0.2,0-0.5,0-0.8l0.4-0.8
	c0.3-0.5,0.5-1.1,0.5-1.6c0,0.3,0.1,0.5,0.4,0.8l0.4,0.4c0.3,0.5,0.4,1,0.4,1.6C341,297.1,340.9,297.4,340.6,297.6z M359.2,304.3
	l-0.4-0.4v-0.4v-0.4c0.3,0.3,0.4,0.5,0.4,0.8C359.5,304.2,359.5,304.3,359.2,304.3z M360.5,305.8c0,0.2,0,0.5,0,0.8v-0.4l-0.4-0.4
	v-0.4h0.4V305.8z M366.5,310.8l-0.4-0.4l-0.4-0.4v-0.4c-0.3,0-0.7-0.2-1.3-0.7l-0.4-0.4l-0.4-0.4c-0.6-0.5-1.1-1.3-1.7-2.3
	c0-0.3,0-0.5,0-0.8l-0.4-0.4v-0.4h-0.4h-0.4v-0.8l-0.4-0.4v-0.4c-0.3-0.3-0.6-0.5-0.9-0.8H359v-0.4c-0.3-0.5-0.6-0.9-0.8-1.1h-0.4
	l-0.4-0.4l-0.4-0.4l-0.4-0.8v-0.4h0.4h0.4v0.4h1.3c0.6,0,1,0.4,1.3,1.1c0,0.3,0.1,0.4,0.4,0.4s0.6,0.1,0.9,0.4l0.4,0.4
	c0.8,1,1.6,1.5,2.1,1.5l0.4,0.4h0.4c0.3,0.3,0.4,0.5,0.4,0.8v0.4h0.4h0.4l-0.5,0.4c0,0.5,0.3,0.8,0.9,0.8c0,0.3,0.1,0.5,0.4,0.8v0.4
	l0.4,0.4h0.4v0.4c0.3,0,0.4,0.1,0.4,0.4v1.6c-0.3,0-0.4,0.1-0.5,0.4v0.4v0.4l-0.4,0.4L366.5,310.8z M368.3,306.8
	c0,0.3,0.1,0.4,0.4,0.4v0.4h-0.4v-0.4h-0.4v-0.4c0-0.2-0.1-0.4-0.4-0.4h-0.4c0-0.2,0.2-0.4,0.4-0.4c0-0.2,0.2-0.4,0.5-0.4v0.8
	L368.3,306.8z M372.5,313h-0.4c-0.9,0-1.6-0.1-2.2-0.3h-0.4h-0.4h-0.4l-0.4-0.4l-0.4-0.4l-0.4-0.4l0.5-0.4l0.4-0.4v0.4h0.4v-0.4h0.4
	c0.3,0,0.6,0.1,0.9,0.4l0.4,0.4c0.3,0,0.6,0.1,0.9,0.4c0.3,0,0.6,0,0.9,0h0.4l0.4-0.4h0.4h0.4l0.4,0.4c0.3,0,0.6,0,0.9,0h0.9h0.4
	l-0.9,0.4h-0.4c0.3,0.2,0.7,0.4,1.3,0.4h0.4v0.4h0.4h0.4l0.4,0.4h0.4h0.4h0.4v0.4c0,0.2-0.2,0.4-0.4,0.4l-0.4-0.4v-0.4l-0.5,0.4
	h-0.4l-0.4-0.4c-0.3,0-0.4,0.1-0.4,0.4h0.4v0.4c-1.2-0.5-2.6-0.7-4.3-0.7L372.5,313z M370,307.6v-0.4h0.4v0.4
	C370.1,307.6,370,307.6,370,307.6z M372.3,302.9h0.4c0.3,0,0.6-0.1,0.9-0.4v-0.4v-0.4l0.5-0.4l0.4-0.4h0.4h0.4l0.5-0.4v-0.4h0.4
	c0-0.3,0-0.5,0-0.8h0.4h0.4v-0.4h0.4l0.4-0.4h0.4c0-0.3,0.2-0.5,0.5-0.8c0-0.3,0.2-0.4,0.4-0.4c0.3-0.8,0.6-1.2,0.9-1.2
	s0.4,0.4,0.4,1.2c0,0.3,0.1,0.4,0.4,0.4h0.4l0.4,0.4h0.4v0.4h-0.4l-0.4,0.4v0.4h0.4c-0.3,0-0.7,0.1-1.3,0.4v0.4c0,0.5,0.1,1,0.4,1.5
	c0.6,0.8,1,1.1,1.3,1.1c0,0.3-0.2,0.4-0.5,0.4h-0.4h-0.4l-0.4,0.4v0.4v0.8c-0.3,0.3-0.5,0.5-0.5,0.8c-0.3,0-0.4,0.1-0.4,0.4
	l-0.4,0.4l0.4,0.4v0.4l-0.4,0.4c0,0.3,0,0.5,0,0.8h-0.4l-0.5,0.4h-0.4h-0.4v-0.4l-0.4-0.4h-0.4c-0.3-0.2-0.6-0.4-0.9-0.4l-0.5,0.4
	h-0.4h-0.4v-0.4v-0.4l-0.4,0.4h-0.4c-0.6,0-0.9-0.2-0.8-0.8v-0.4l-0.4-0.4v-0.4v-0.4l-0.4-0.4l-0.4-0.8c-0.3-0.3-0.4-0.5-0.4-0.8
	s0.3-0.4,0.9-0.4L372.3,302.9z M372.2,283.8c-0.6,0-0.9-0.3-0.9-0.8h-0.4c0-0.3,0.2-0.4,0.4-0.4v-0.4h0.4h0.4
	c0.6-0.5,0.9-0.8,0.9-0.8c0.3,0,0.4,0.1,0.4,0.4l0.4,0.4c0,0.2-0.3,0.7-0.9,1.2L372.2,283.8z M383.5,284.3c0-0.3,0.1-0.5,0.4-0.8
	h0.4c0,0.2,0.1,0.4,0.4,0.4h0.4v0.4l0.4,0.4v0.4v0.4v0.4l-0.4,0.4c0,0.3,0,0.5,0,0.8s0,0.6,0,1.2c0.3,0.3,0.6,0.4,0.9,0.4v-0.4h0.4
	l0.4,0.4v0.4h0.4v0.4h0.4v0.4l-0.9-0.4v-0.4h-0.4v0.4h-0.4v-0.4l-0.4-0.4h-0.4v0.4h-0.4l-0.4-0.4v-0.4h0.4v-0.4h-0.4h-0.4l-0.4-0.4
	v-0.4v-0.4v-0.4l0.4-0.4c0-0.3,0-0.5,0-0.8v-0.4L383.5,284.3z M384.1,277.7c0-0.2,0.2-0.8,0.5-1.6c0.3-0.5,0.6-0.8,0.9-0.8l0.4,0.4
	c0,0.5-0.2,1.1-0.5,1.6c0,1,0,1.6,0,1.6s-0.3,0-0.9,0C384.2,278.9,384.1,278.5,384.1,277.7z M388.5,292.8v-0.4V292v-0.4h-0.4v-0.4
	h0.4h0.4c0-0.2-0.1-0.5-0.4-0.8h-0.4V290h0.4l0.4,0.4h0.4c0,0.3,0,0.5,0,0.8v0.4v0.4h-0.4v0.4c0.3,0,0.4,0.1,0.4,0.4
	c0.3,0,0.4,0.1,0.4,0.4h0.4c0,0.2,0.1,0.8,0.4,1.6c0.3,0.5,0.4,0.9,0.4,1.1h-0.4v0.4c-0.3,0.3-0.5,0.5-0.5,0.8v-0.4v-0.4h-0.4h-0.4
	v0.4h0.4v0.4c0,0.3-0.2,0.4-0.5,0.4h-0.4c-0.6,0-0.9-0.4-0.8-1.2c0-0.2,0.2-0.4,0.4-0.4l-0.4-0.4h-0.4v0.4l-0.4-0.4v0.4l-0.4-0.4
	v0.4v0.4c-0.3,0.3-0.6,0.4-0.9,0.4v-0.4c0.3,0,0.4-0.1,0.4-0.4h-0.4v-0.4l0.4-0.4c0.3,0,0.5-0.3,0.5-0.8h0.4h0.4l0.4,0.4h0.4v-0.4
	c0-0.2,0.1-0.4,0.4-0.4h0.4v-0.4v-0.4v-0.4h-0.4L388.5,292.8c0,0.5-0.2,0.8-0.5,0.8h-0.4v-0.4h0.4v-0.4h-0.4
	c-0.3,0.3-0.5,0.5-0.5,0.8c0.3,0,0.4,0.1,0.4,0.4h-0.4l-0.4-0.4l-0.4-0.4c0-0.3,0.2-0.4,0.5-0.4v-0.4c0.3-0.3,0.4-0.4,0.4-0.4h0.4
	h0.4c0,0.3,0,0.5,0,0.8H388.5z M384.3,305.3l0.4-0.4v0.4l0.9-0.4c0.6-0.3,1-0.4,1.3-0.4v0.4c-0.3,0-0.4,0.1-0.4,0.4h-0.4
	c-0.3,0.5-0.7,0.8-1.3,0.8l0.4,0.8l0.4,0.8c0,0.3,0,0.5,0,0.8h0.4v0.4h-0.4l-0.4,0.4h-0.4v-0.4v-0.4c-0.3-0.2-0.4-0.5-0.4-0.8v-0.8
	H384l-0.4,0.4v0.4l0.4,0.4c0,0.3,0,0.5,0,0.8v0.4v0.4c-0.3,0.5-0.6,0.8-0.9,0.8v-0.4c-0.3,0-0.4-0.1-0.4-0.4v-1.9h-0.4
	c-0.3,0-0.4-0.1-0.4-0.4s0.2-0.5,0.5-0.8v-0.4c0.3-0.3,0.4-0.5,0.4-0.8V305c0.3,0,0.4-0.1,0.5-0.4c0-0.5,0-0.9,0-1.2
	c0.6-0.5,1-0.8,1.3-0.8l2.6,0.3h0.4l0.4-0.4l0.4-0.4h0.4c0,0.5-0.2,0.9-0.5,1.2c0,0.3-0.3,0.4-0.9,0.4l-0.4-0.4c-0.3,0-0.6,0-0.9,0
	h-0.4h-0.9h-0.4c-0.3,0-0.4,0.1-0.4,0.4c-0.3,0-0.4,0.1-0.4,0.4s0,0.5,0,0.8C383.7,305.2,384,305.3,384.3,305.3z M382.8,315.1
	l-0.4-0.4H382c0-0.2,0.2-0.4,0.4-0.4h0.4h0.4c0,0.2,0.1,0.4,0.4,0.4v0.4v0.4h-0.4v-0.4H382.8z M381.5,313.9l-0.4-0.4v0.4h-0.4h-0.4
	h-0.4h-0.4c0-0.5,0.3-0.8,0.9-0.8c0.3,0,0.6,0.1,0.9,0.4v-0.4h0.9v0.8H381.5z M383.2,313.9c-0.3,0-0.4-0.1-0.4-0.4s0.1-0.4,0.4-0.4
	h0.4h0.4h0.4v0.4c0.3,0,0.6,0,0.9,0l0.4-0.4h0.4c-0.3,0.3-0.6,0.5-0.9,0.8h-1.7H383.2z M384.3,289l0.4,0.4h0.4l0.4,0.4l-0.4,0.4
	c0,0.3,0,0.4,0,0.4L384.3,289z M387.1,315c0-0.3,0-0.5,0-0.8h0.4l0.4-0.4h0.4c0.3-0.2,0.7-0.4,1.3-0.4c0.6-0.3,0.9-0.3,0.9,0
	c0,0.2-0.3,0.4-0.9,0.4c-0.6,0.3-1,0.4-1.3,0.4v0.4c-0.3,0.3-0.4,0.5-0.4,0.8c-0.3,0-0.6,0-0.9,0L387.1,315z M389.8,307.9v-0.4v-0.4
	h0.4c0.3,0,0.4,0.1,0.4,0.4v0.4v0.4C390.4,308.3,390.1,308.2,389.8,307.9z M385.9,292.5c0-0.3,0-0.5,0-0.8v-0.4v-0.4l0.4,0.4h0.4
	v0.8l-0.5,0.4H385.9z M387.2,290.5h-0.4v-0.4h0.4l0.4,0.4v0.4c0,0,0-0.1,0-0.4H387.2z M383.8,292.1v0.4h-0.4c0,0.2-0.2,0.4-0.5,0.4
	c-0.3,0.5-0.4,0.9-0.4,1.2h-0.4l-0.4,0.4h-0.4c0.3-0.5,0.7-0.9,1.3-1.2l0.4-0.4c0.3-0.3,0.5-0.5,0.5-0.8H383.8z M400,344.6
	c0.6-0.3,1.1-0.3,1.7,0C401.2,344.8,400.6,344.8,400,344.6z M412.1,353c-0.3,0.8-0.7,1.2-1.3,1.2c-0.3,0-0.7-0.5-1.2-1.5
	c-0.6-0.7-0.8-1.4-0.8-1.9s0.3-0.6,0.9-0.4h0.4h0.4h0.4v0.4l0.9-0.4h0.4l0.4-0.4c-0.3-0.2-0.4-0.5-0.4-0.8h0.4v0.4v0.4v0.4v0.4
	c0.3,0.3,0.4,0.5,0.4,0.7C413,351.7,412.7,352.2,412.1,353z M418.6,336.4c0,0.5-0.2,0.9-0.5,1.2v0.8v0.4v0.4
	c-0.3,0.2-0.6,0.5-0.9,0.8l-0.4,0.8c-0.3,0.5-0.5,0.9-0.5,1.1c-0.3,0.3-0.4,0.5-0.4,0.8l-0.4,0.4v0.4c-0.3,0.8-0.5,1.4-0.5,1.9
	s-0.3,0.8-0.9,0.8c0,0.3-0.2,0.4-0.4,0.4l-0.9,0.4c-1.1,0.3-1.7,0.7-1.7,1.2l-0.8-0.4c-0.6-0.2-0.8-0.5-0.8-0.7
	c-0.3,0-0.6,0.1-0.8,0.4v0.4c-0.3,0-0.6,0-0.9,0c-0.9,0-1.7-0.1-2.5-0.3c-0.8-0.5-1.3-1.1-1.2-1.9c0-0.2-0.1-0.5-0.4-0.8v-0.4v-0.4
	c-0.3,0-0.6,0-0.9,0h-0.4v-0.4v-0.4v-0.4v-0.4H402v0.4v0.4h-0.4c0,0.2-0.2,0.4-0.4,0.4h-0.4v-0.4c0.3,0,0.6-0.4,0.9-1.2
	c0.3-0.2,0.4-0.5,0.5-0.8c0-0.2,0-0.5,0-0.8c-0.3,0.3-0.6,0.5-0.9,0.8v0.4l-0.4,0.4c-0.6,0.8-1,1.2-1.3,1.2s-0.4-0.3-0.4-0.8
	l-0.4-0.8l-0.4-0.8l-0.4-0.8c-0.3-0.3-0.8-0.5-1.7-0.7c-0.8-0.2-1.7-0.3-2.6-0.3c-0.6,0-1,0.2-1.3,0.4l-0.5,0.4
	c-0.3,0-0.4,0.1-0.4,0.4c-0.6,0-1.1,0-1.7,0h-0.9l-0.5,0.4c-1.1,0-1.7,0.4-1.7,1.2l-0.9,0.4h-0.4c-0.3,0-0.7,0-1.3,0h-0.4h-0.4
	c-0.6,0-1.2,0.3-1.7,0.8c-0.6,0.3-1.2,0.4-1.7,0.4c-0.6,0-1.1-0.1-1.7-0.3c-0.6-0.2-0.8-0.5-0.8-0.7v-0.4l0.4-0.4
	c0.3-0.3,0.5-0.6,0.5-1.2c0-0.3-0.1-0.6-0.4-1.2l-0.4-0.4v-0.8c-0.5-1.8-0.8-2.9-0.8-3.5l-0.4-0.4l-0.4-0.4c0-0.3,0-0.5,0-0.8v-0.4
	h0.4c0-0.2-0.1-0.5-0.4-0.8c0-0.2,0-0.5,0-0.8v-0.4l0.1-2.3v-0.4h0.4v0.4c0.3,0,0.7-0.3,1.3-0.8l0.4-0.4l0.5-0.4
	c0-0.3,0.3-0.4,0.9-0.4h0.9l0.4-0.4h0.4c0.3,0,0.7-0.1,1.3-0.4c0.3,0,0.7-0.1,1.3-0.4c1.1-0.5,1.7-1.2,1.8-2v-0.4
	c0-0.5,0.2-0.9,0.4-1.2c0.3,0.2,0.4,0.5,0.4,0.8h0.4v-0.4l0.5-0.4v-0.4l0.4,0.4h0.4c0-0.5,0-0.9,0-1.2l0.4-0.4
	c0.3-0.3,0.4-0.5,0.4-0.8c0.3,0,0.6,0,0.9,0c0.3-0.5,0.6-0.8,0.9-0.8s0.6,0.3,0.8,0.8c0.3,0.3,0.4,0.5,0.4,0.8
	c0.3-0.3,0.6-0.4,0.9-0.4l0.4,0.4v-0.4v-0.4c0-0.3,0.2-0.5,0.5-0.8l0.4-0.4v-0.4c0-0.3,0.3-0.5,0.9-0.8c0.6,0,1,0,1.3,0l0.4-0.4
	v-0.4l-0.4-0.4h0.4l0.4,0.4l0.8,0.4c0.6,0.3,1.1,0.4,1.7,0.4c0.3,0,0.4-0.1,0.5-0.4h0.4h0.4l0.4,0.4c0,0.3-0.2,0.5-0.4,0.8h-0.4
	l-0.5,2.3h0.4h0.4v0.4v0.4h0.4c0,0.2,0.1,0.4,0.4,0.4l0.8,0.4c0.3,0,0.7,0.1,1.3,0.3l0.4,0.4c0.3,0.5,0.5,0.8,0.8,0.8
	c0.6,0,1-0.6,1.3-1.6c0-0.3,0-0.5,0-0.8l0.5-0.8l0.1-3.9l0.4-0.4c0.3-0.2,0.5-0.5,0.5-0.8c0,0.5,0.1,0.9,0.4,1.2l0.4,0.8v0.8v0.8
	c0,0.3,0.1,0.5,0.4,0.8c0.3,0,0.6,0,0.9,0h0.4c0.3,0.3,0.4,0.6,0.4,1.1v0.8c0,0.3,0.1,0.4,0.4,0.4c0,0.2,0,0.5,0,0.8l0.4,0.4
	c0,0.5,0.1,0.9,0.4,1.2c0,0.5,0.3,0.9,0.8,1.1l0.8,0.4c0.3,0.3,0.6,0.5,0.8,0.7l0.4,0.8v0.4v0.4l0.4,0.4h0.9c0,0.8,0.2,1.4,0.8,1.9
	l0.4,0.4h0.4c0.3,0.2,0.4,0.5,0.4,0.8c0.3,0.2,0.5,0.9,0.8,1.9c0.2,0.8,0.4,1.5,0.3,2.3C419,335.6,418.8,335.9,418.6,336.4z
	 M395,307.8h-0.4h-0.4v-0.4c-0.3,0-0.6,0-0.9,0h-0.9h-0.9c0-0.2,0.2-0.4,0.4-0.4h1.7h0.4h0.4v0.4C394.9,307.4,395,307.6,395,307.8z
	 M404,260.6h0.4c0.3-0.3,0.7-0.8,1.3-1.6c0.6-0.5,0.9-1.2,0.9-2l-0.4-0.4c0-0.2,0.2-0.5,0.5-0.8c0-0.5,0.1-0.8,0.4-0.8l0.4,0.4V255
	h0.4v0.4v0.4c0,0.3,0.1,0.4,0.4,0.4v0.4c0,0.3,0,0.5,0,0.8v0.4v0.4c-0.3,0-0.4,0.1-0.5,0.4v0.4h-0.4v0.8v0.8v0.4H407v0.4v0.4v0.4
	v0.4l-0.4,0.4l-0.5,0.4V263v-0.4c-0.6,0.5-0.9,0.9-0.9,1.2v-0.4h-0.4l-0.5,0.4h-0.4h-0.4c-0.3,0-0.4-0.1-0.4-0.4s-0.1-0.4-0.4-0.4
	v0.4v0.4l0.4,0.4h-0.4c-0.3,0-0.4,0.1-0.4,0.4c-0.3,0.3-0.6,0.5-0.9,0.8V265H401v-0.4l0.5-0.4v-0.4h-0.4h-0.4c0-0.3-0.1-0.4-0.4-0.4
	s-0.4,0.1-0.5,0.4c0.6,0,0.9,0.2,0.8,0.8c-0.3,0.5-0.6,0.8-0.9,0.8l-0.4-0.4v0.4l-0.5,0.4c0,0.3,0,0.4,0,0.4s-0.1,0-0.4,0l-0.4-0.4
	v-0.4V265l0.9-0.4l0.5-0.4h0.4v-0.4h-0.4H399l-0.4,0.4h-0.4c-0.3,0.3-0.6,0.4-0.9,0.4h-0.4h-0.4l0.4,0.4h0.4v0.4l0.4,0.4v0.4h-0.4
	c0,0.2,0,0.5,0,0.8l-0.4,0.4c0,0.5-0.2,0.8-0.5,0.8s-0.4-0.1-0.4-0.4c-0.3,0-0.4-0.1-0.4-0.4l0.5-0.4l0.4-0.8h-0.4h-0.4h-0.4
	c0-0.3,0-0.4,0-0.4c0-0.2,0.1-0.4,0.4-0.4c0.3-0.5,0.6-0.8,0.9-0.8v-0.4h0.4l0.4-0.4l0.9-0.8c0.3-0.3,0.6-0.4,0.9-0.4h2.6l0.4-0.4
	l0.5-0.4v-0.4c0,0,0.1,0,0.4,0v-0.8h0.4v0.4C403.4,260.9,403.7,260.8,404,260.6z M408.9,240.1v-0.4c0-0.5,0-0.9,0-1.2
	c0-0.5,0.3-0.8,0.9-0.8v-0.4v-0.4v-0.8c0,0.5,0.1,0.9,0.4,1.2v0.4l0.4,0.4v0.4v0.4c0,0.3,0,0.5,0,0.8v0.8v0.4v0.4v0.4l0.4,0.8
	l0.4,0.4c0,0.5,0.1,0.9,0.4,1.2c-0.3-0.3-0.6-0.4-0.9-0.4c-0.6,0-0.9,0.3-0.9,0.8c-0.3,0.3-0.4,0.8-0.5,1.6c0,0.3,0.1,0.7,0.4,1.2
	l0.4,0.4l0.4,0.4h-0.4v-0.4h-0.4c-0.3,0-0.4,0.1-0.4,0.4l-0.5,0.4c-0.3,0-0.3-0.1,0-0.4v-0.4v-0.4v-0.8v-0.4v-0.4v-0.4v-0.4
	c-0.3,0-0.4-0.1-0.4-0.4l0.4-0.4c0-0.3,0-0.5,0-0.8l0.1-2.4L408.9,240.1z M409.5,249.9l0.4,0.4v0.4c0.6,0.3,1.1,0.4,1.7,0.4h0.4h0.4
	v0.4c0,0,0.2-0.1,0.4-0.4c0.3-0.3,0.6-0.4,0.9-0.4c0,0.3-0.2,0.4-0.4,0.4v0.4l-0.5,0.4c-0.3,0-0.4-0.1-0.4-0.4
	c-0.3,0-0.4,0.1-0.5,0.4h0.4c0,0.3,0.1,0.4,0.4,0.4c-0.6,0.3-1,0.4-1.3,0.4s-0.6,0.1-0.9,0.4l-0.4,0.4v0.4h-0.4l-0.4-0.4
	c-0.3,0-0.6-0.1-0.9-0.4l-0.5,0.4h-0.4c-0.6-0.2-0.9-0.2-0.9,0c0,0.3,0.1,0.4,0.4,0.4l0.4,0.4l-0.5,0.4h-0.4v-0.8l-0.4-0.4l0.5-0.4
	v-0.4h0.4v-0.4h0.4c0.3,0,0.6-0.3,0.9-0.8c0-0.3,0-0.5,0-0.8v-0.4v-0.4v-0.4C408.9,249.5,409.2,249.6,409.5,249.9z M415.5,309.3h0.4
	h0.4l0.9-0.4l0.4-0.4v-0.4l0.4-0.4l0.4,0.4v0.4c0,0.3-0.2,0.5-0.5,0.8c-0.3,0-0.4,0.1-0.4,0.4c-0.3,0-0.4,0.1-0.4,0.4h-0.4
	c-0.3,0.3-0.6,0.4-0.9,0.4s-0.4-0.1-0.4-0.4H415l-0.4-0.4c-0.3,0-0.4-0.1-0.4-0.4H415.5z M414.6,250.2c0.3-0.5,0.5-0.8,0.5-0.8
	s0.2,0,0.4,0h0.4h0.4c-0.6,0-0.9,0.1-0.9,0.4C415.2,250.1,414.9,250.2,414.6,250.2z M414.5,313.2h0.4v0.4v0.4h0.4h0.4v0.4h0.4h0.4
	l-0.4,0.4v0.4c-0.3,0-0.6-0.1-0.8-0.4h-0.9c-0.6,0-1-0.1-1.3-0.3c-0.3-0.3-0.4-0.5-0.4-0.8h-0.4v-0.4l-0.4-0.4l-0.8-0.8
	c-0.3-0.3-0.7-0.4-1.3-0.4c-0.3,0-0.6,0.1-0.9,0.4l-0.4,0.4c0,0.3,0,0.5,0,0.8h-0.4h-1.3c-0.6,0-1-0.1-1.3-0.3l-0.4-0.4
	c-0.3,0-0.6,0-0.9,0h-0.4h-0.9h-0.4v-0.4c0-0.3,0.2-0.4,0.4-0.4h0.4v-0.4c-0.3-0.3-0.4-0.5-0.4-0.8v-0.4v-0.4c0-0.3-0.3-0.5-0.8-0.8
	h-0.4v-0.4h-0.4c-0.3,0-0.6,0-0.9,0c-0.3-0.2-0.7-0.4-1.3-0.4l-0.4-0.4c-0.3-0.2-0.6-0.4-0.8-0.4v0.4h-0.4h-0.4v-0.4
	c0-0.3-0.1-0.4-0.4-0.4v-0.4c-0.3,0-0.4-0.1-0.4-0.4h0.4h0.4c0.6,0,0.9-0.1,0.9-0.4c-0.3,0-0.7,0-1.3,0h-0.4l-0.4-0.4V305h-0.4
	l-0.4-0.4v-0.4h0.4l0.4-0.4h0.4l0.4-0.4c0.3,0,0.6,0.1,0.8,0.4l0.4,0.4h0.4v1.6c0,0.3,0.3,0.4,0.8,0.4v0.4c0.3,0.3,0.6,0.4,0.8,0.4
	v-0.4l0.4-0.4c0.3-0.2,0.6-0.4,0.9-0.4l0.4-0.4h0.4l0.5-0.8c0,0.2,0.1,0.4,0.4,0.4s0.6,0.1,0.8,0.4l0.4,0.4h0.9h0.4
	c0,0.3,0.1,0.4,0.4,0.4c0.6,0.5,1.4,0.7,2.6,0.7h0.4l0.4,0.4c0,0.3,0.1,0.4,0.4,0.4h0.4c0.3,0.3,0.6,0.5,0.8,0.8l0.4,0.4v0.4
	l0.4,0.4h0.4h0.4c0.3,0,0.4,0.3,0.4,0.8l-0.4,0.4v0.8h0.4c0.3,0.3,0.4,0.5,0.4,0.8v0.4l0.4,0.4L414.5,313.2z M399.2,309.7v0.4
	c0,0.3-0.2,0.4-0.4,0.4v0.4v0.4h-0.4c0-0.2,0-0.5,0-0.8h0.4v-0.4C398.8,309.8,399,309.7,399.2,309.7z M395.2,316.3v0.4h-0.4h-0.4
	c-0.3,0-0.4-0.1-0.4-0.4C394.5,316.3,394.9,316.3,395.2,316.3z M392.6,302.4v0.4v0.4l-0.4,0.4h-0.4l0.4,0.4v0.4
	c-0.3,0-0.4-0.1-0.4-0.4v-0.4v-0.4v-0.4v-0.4l-0.4-0.4c0-0.5,0.2-0.8,0.4-0.8c0,0.5,0.3,0.8,0.8,0.8V302.4z M419.4,308.1H419
	c-0.3,0-0.3-0.3,0-0.8c-0.3,0-0.6-0.1-0.8-0.4v-0.4h-0.4l-0.4-0.4c0.3,0,0.6,0.1,0.8,0.4l0.4,0.4l0.4,0.4l0.4,0.4V308.1z
	 M417.2,248.6v-0.4h0.4l0.4-0.4c0,0.3,0,0.5,0,0.8c-0.3,0-0.4,0-0.4,0s-0.1,0-0.3,0C417.3,248.6,417.3,248.6,417.2,248.6z
	 M421.9,310.3v0.4l-0.4-0.4v-0.4c-0.3,0-0.4-0.2-0.4-0.8c0.3,0,0.4,0.1,0.4,0.4c0.6,0.2,0.8,0.5,0.8,0.8H421.9z M425.6,312.2
	l-0.8-0.4v-0.4h0.9c0,0.3,0.1,0.4,0.4,0.4L425.6,312.2z M426.8,314.1l-0.4-0.4c0.6,0,1,0.1,1.3,0.4
	C427.4,314.1,427.1,314.1,426.8,314.1z M426.9,312.1c0.6,0.2,1,0.6,1.2,1.1c-0.3,0-0.6-0.1-0.8-0.4L426.9,312.1z M428.5,314.4
	c-0.3,0-0.4-0.1-0.4-0.4c0.6,0.2,0.8,0.5,0.8,0.7C428.7,314.8,428.5,314.7,428.5,314.4z M439.6,351.9c-0.3,0.5-0.6,0.8-0.9,0.8v0.4
	v0.4v0.4h-0.8h-0.4c-0.3,0.5-0.8,1.4-1.4,2.7c-0.3,0.3-0.6,0.5-0.9,0.8l-0.4,0.4h-0.4l-0.4-0.4c-0.3,0-0.7-0.1-1.3-0.3
	c-0.3,0-0.4-0.1-0.4-0.4h-0.4c0-0.5,0.3-0.9,0.9-1.2l0.5-0.8c0.3,0,0.4-0.1,0.4-0.4c0-0.2,0.2-0.4,0.4-0.4c0.3,0,0.7-0.1,1.3-0.4
	l0.4-0.4l0.4-0.4c0.3-0.2,0.6-0.6,0.9-1.2c0-0.5,0.3-0.8,0.9-0.8c0-0.2,0-0.5,0-0.8c0.3-0.3,0.6-0.5,0.9-0.8v0.4v0.4
	c0,0.3,0.1,0.4,0.4,0.4l0.4-0.4c0,0,0.1,0,0.4,0c0,0.5,0.1,0.8,0.4,0.7C440.2,350.9,439.9,351.3,439.6,351.9z M444.8,345.6
	c0,0.3,0,0.5,0,0.8l-0.5,0.8v0.4h-0.4c-0.6,0-0.8,0.2-0.9,0.4v0.4h0.4l-0.4,0.4v0.4l-0.4,0.4l-0.4,0.4c-0.3,0.5-0.6,0.8-0.9,0.8
	s-0.4-0.2-0.4-0.7v-0.4l0.4-0.4v-0.4l-0.4-0.4h-0.4l-0.4-0.4c-0.3,0-0.4-0.1-0.4-0.4l0.4-0.4h0.4c0.3-0.3,0.4-0.8,0.5-1.5v-0.4V345
	h-0.4v-0.4v-0.4v-0.4c-0.6,0-1-0.2-1.2-0.7c-0.3-0.5-0.4-1-0.4-1.5c0,0.2,0.3,0.5,0.8,0.7h0.4v0.4h0.4v0.4v0.4
	c0,0.3,0.1,0.5,0.4,0.7c0,0.3,0.1,0.4,0.4,0.4c0-0.2,0.2-0.4,0.4-0.4h0.4c0,1,0.4,1.5,1.2,1.5h0.4l0.4-0.4c0,0,0.1,0,0.4,0
	L444.8,345.6z M445.6,322.4h-0.4h-0.4h-0.4c0-0.3,0.2-0.5,0.5-0.8h0.4c0,0.2,0.1,0.4,0.4,0.4L445.6,322.4z M446.9,320.9h-0.4v0.4
	h-0.4c-0.3,0-0.4,0-0.4,0s0-0.1,0-0.4l0.9-0.4h0.4L446.9,320.9z M444.4,205.8c0.6-0.5,1-0.8,1.3-0.8s0.7,0.1,1.3,0.4
	c0.6,0.3,0.8,0.5,0.8,0.8s-0.6,0.4-1.7,0.4c-0.3,0-0.6,0.1-0.9,0.4c-0.3,0-0.6,0-0.9,0s-0.4-0.1-0.4-0.4
	C443.9,206.3,444.1,206,444.4,205.8z M439.5,208.6l0.4,0.4c0,0.3,0,0.4,0,0.4s-0.2,0-0.4,0c-0.6,0-1-0.3-1.3-0.8L439.5,208.6z
	 M416.4,197.2c0.6,0,1,0,1.3,0l0.9,0.4h0.4v0.4l-0.5,0.4c-0.6,0-0.9,0-0.9,0s-0.2,0-0.4,0c-0.6,0-1.2-0.1-1.7-0.4
	c-0.6-0.3-0.9-0.5-0.8-0.8l-0.4-0.4L416.4,197.2z M404.3,195.6c0.3-0.3,0.7-0.4,1.3-0.4c0.3,0,0.6,0.1,0.9,0.4l0.4,0.4l0.4,0.4h0.4
	c0-0.5,0.3-0.8,0.9-0.8c0.3,0,0.9,0.1,1.7,0.4h0.4l0.9,0.4c0.3,0,0.6,0,0.8,0l-0.4,0.4v0.4c-0.3,0.3-0.4,0.5-0.4,0.8h-0.9
	c-0.3,0-0.6,0-0.9,0h-0.4H409h-0.4h-0.4h-0.4v0.4h-0.4c-0.3,0-0.6-0.1-0.9-0.4v0.4c-0.3,0.3-0.5,0.4-0.5,0.4s-0.1,0-0.4,0
	s-0.7-0.3-1.3-0.8c-0.3-0.3-0.4-0.7-0.4-1.2C403.8,196.3,404,195.9,404.3,195.6z M407.4,201.3c0.5-0.6,1-0.9,1.5-0.9
	c1.1,0,1.7,0.5,1.7,1.6h-0.9c-0.3-0.3-0.7-0.4-1.3-0.4H408L407.4,201.3c-0.1,0.1-0.2,0.2-0.2,0.3v-0.4L407.4,201.3z M407.2,200
	c0-0.3,0.1-0.4,0.4-0.4s0.4,0,0.4,0s0,0.1,0,0.4v0.4h-0.4C407.3,200.4,407.2,200.3,407.2,200z M402.1,196l0.4,0.4v0.4
	c-0.3,0.3-0.4,0.4-0.4,0.4c-0.3,0-0.4-0.1-0.4-0.4C401.6,196.6,401.8,196.3,402.1,196z M373.6,190.5h0.4v0.4
	c-0.3,0.3-0.5,0.4-0.5,0.4l-0.4-0.4h-0.4C373,190.6,373.3,190.5,373.6,190.5z M366.6,188.9v-0.4c0.6-0.5,1.2-0.8,1.8-0.8h0.4v0.8
	h0.5v-0.4h0.4c0.3,0,0.7,0.1,1.3,0.4c0.6,0.6,0.8,0.9,0.8,1.2s-0.4,0.5-1.3,0.8c-0.3,0-0.6,0.1-0.9,0.4c-0.3,0-0.6-0.1-0.9-0.4
	l-1.3,0.4l-1.8,0.4c-0.6,0-0.9,0-0.9,0s0-0.1,0-0.4c0-0.3,0.2-0.5,0.4-0.8h0.5c0-0.3,0.1-0.5,0.4-0.8L366.6,188.9z M357.8,184.1
	l0.5-0.4c0.9-0.6,1.6-0.8,2.2-0.8s1,0.1,1.3,0.4l0.4,0.4l0.4,0.4c0,0.3-0.2,0.4-0.4,0.4v0.4v0.4c-0.3,0.3-0.6,0.4-0.9,0.4
	c0.3,0,0.6,0,0.9,0s0.6,0.1,0.9,0.4h0.4h0.9c0.3,0,0.7,0.3,1.3,0.8c-0.3,0.3-0.5,0.5-0.5,0.8s-0.2,0.4-0.4,0.4l-0.5,0.4h0.5v0.4v0.4
	h-0.5c-0.3,0-0.7,0-1.3,0c-0.3,0-0.6-0.1-0.9-0.4c-1.2-0.3-1.9-0.4-2.2-0.4c-0.3,0-0.8-0.1-1.3-0.4l-0.4-0.4l-0.4-0.4
	c0.3-0.3,0.6-0.4,0.9-0.4l0.9-0.4c0.3-0.3,0.5-0.4,0.5-0.4h-0.9c-0.9,0-1.9-0.4-3.1-1.2c0.6,0,1-0.1,1.3-0.4L357.8,184.1z
	 M359.2,193.3c0,0.6,0,0.8,0,0.8s-0.2,0-0.5,0h-0.4v-0.4v-0.4h0.4L359.2,193.3z M357.4,186.9h-0.5h-0.4H356h-0.4c0-0.6,0-0.8,0-0.8
	c0-0.3,0.1-0.4,0.4-0.4h0.5l0.9,0.4h0.4C357.8,186.6,357.6,186.9,357.4,186.9z M356.1,182.9v0.4h-0.4h-0.5c-0.3,0-0.6-0.1-0.9-0.4
	H356.1z M345.8,201h0.4h0.5c0.3,0,0.6,0,0.9,0s0.6-0.3,0.9-0.8v-0.4v-0.4c0.3-0.3,0.6-0.4,0.9-0.4c1.2-1.1,3-2,5.4-2.8
	c0.3,0,0.7-0.1,1.3-0.4c0.3,0,0.7,0,1.3,0c0.9-0.3,1.5-0.4,1.8-0.4c-0.3,0.8,0.3,0.9,1.8,0.4c0.9,0,1.6-0.1,2.2-0.4
	c0.6-0.3,1-0.6,1.4-0.8c0-0.3,0.3-0.6,0.9-0.8v-0.4l0.4-0.4c0.9-0.5,1.6-0.8,2.2-0.8c1.7,0,2.8,0.7,3,2h5c4.1,1.1,4.9,2.4,2.6,4
	c-0.3,0.3-0.9,0.7-1.8,1.2l-0.9,0.4l-0.9,0.4c-1.2,0.8-1.9,1.2-2.2,1.2c-0.3,0.5-0.3,0.8,0,0.8c0.6,0.3,1.9-0.5,4-2.4
	c0.3,0.8,1.7,1.5,4.4,2l1.3,0.4h0.9h0.4l0.7,0.4h4.4c0-1.3,0.6-1.9,1.8-1.6c3.2,0.3,4.9,0.8,5.2,1.6c0,0.3,0,0.5,0,0.8l-0.4,0.4
	c0,0.8,0.1,1.5,0.4,2c0.6,0.8,1.1,1.2,1.7,1.2c0.3,0,0.6-0.1,0.9-0.4c0-0.3,0-0.5,0-0.8v-0.4c0.3,0,0.6,0,0.9,0s0.6,0.1,0.9,0.4
	c0.3,0.3,0.6,0.4,0.9,0.4h6.1c0.3-1.1,0.6-1.7,0.9-2c0.6-0.8,1.6-1.2,3.1-1.2c2.6,0,5.2,0.5,7.8,1.6c0.3,0,0.7,0.3,1.3,0.8v0.8
	c0.3,0,0.6,0.1,0.9,0.4c0.3,0.3,0.9,0.4,1.7,0.4h0.9h0.4c0.6-0.3,1-0.4,1.3-0.4c2.3,0,3.7,0.9,4.2,2.7l8.6,0.4
	c0.3,0,0.6,0.1,0.8,0.4l0.9,0.4c0,0.3,0.1,0.4,0.4,0.4c0.8,0.5,1,0.1,0.5-1.2c0-0.5,0.7-0.8,2.2-0.8c2,0,4,0.4,6,1.1
	c1.7,0.5,2.5,0.8,2.5,0.8s0.8,0.5,2.5,1.6c0.6,0.3,1.3,0.5,2.1,0.8l1.3,0.8l0.8,0.4c2,0.8,3.2,1.6,3.8,2.3c-1.2,0.5-1.9,0.9-2.2,1.2
	c-0.3,0-0.4,0.1-0.5,0.4v0.4c-0.3,0.5-0.6,0.8-0.9,0.8c-0.6,0-1.5-0.5-2.9-1.6c-0.6-0.5-1.1-0.8-1.7-0.8c-0.5-0.5-1.1-0.8-1.7-0.8
	c-0.3,0-0.4,0.3-0.4,0.8v0.4v0.4l-0.9,0.4l-0.9,0.4c-0.6,0.3-0.9,0.8-0.9,1.6l0.4,0.4l0.4,0.4c0.3,0.3,0.4,0.5,0.4,0.8
	c0.5,0.8-0.3,1.2-2.6,1.2c-0.6,0-1.3,0.3-2.2,0.8c-0.3,0.3-0.6,0.5-0.9,0.8l-1.3,0.8c-1.8,1.3-6.2,2-7.4,2c-0.3,0-0.7-0.1-1.3-0.4
	c-0.3,0-0.6-0.1-0.8-0.4c-0.3,0-0.6,0-0.9,0c-1.4,0-2.9,1.3-4.4,4c0,0.5,0,0.9,0,1.2v0.4v0.4v0.4h-0.4v0.4c-0.3,0.3-0.4,0.5-0.4,0.8
	c-0.3,0.3-0.5,0.5-0.5,0.8s-0.2,0.4-0.4,0.4v0.4h-0.4c-0.6,0.5-0.7,0.9-0.5,1.2c-0.9,0.3-1.5,0.8-1.8,1.6l-0.5,0.8l-0.4,0.4
	c-0.3,0.5-0.5,0.9-0.5,1.2c-0.6-0.5-1-1.7-1.2-3.5c0-0.5,0-1.2,0.1-2c-0.3-0.8-0.4-1.3-0.4-1.6c0-0.8,0.3-1.4,0.9-2
	c0.3-0.3,0.6-0.5,0.9-0.8s0.6-0.4,0.9-0.4c0.3-0.3,0.7-0.8,1.4-1.6l0.9-0.8l0.5-1.2c0.3-0.3,0.7-0.5,1.3-0.8h0.4
	c0.3-0.3,0.6-0.4,0.9-0.4c1.5-0.8,2-1.6,1.8-2.4c-0.3,0-0.4-0.1-0.4-0.4c-0.3,0-0.6,0-0.9,0c-0.9,1.3-1.7,2.1-2.2,2.4
	c-0.6,0.5-1,0.7-1.3,0.4v-0.8c0-0.3,0.1-0.5,0.4-0.8c-0.6,0-1,0-1.3,0h-0.4h-0.4c-2.3,0-3.9,0.5-4.9,3.4h-2.2l-1.3-0.4
	c-0.6-0.2-1.1-0.4-1.7-0.4c-0.9,0-2.2,0.2-3.9,0.4c-1.7,0,0.1,1.2-0.5,1.4c-0.6,0.3-1.5,0.8-2.6,1.6c0,0.3-0.3,0.7-0.9,1.2l-0.5,0.4
	l-0.4,0.4c-0.3,0.3-0.6,0.5-0.9,0.8l-0.5,0.4l-0.4,0.4c-0.9,0.5-1.3,1.1-1.4,1.6v0.4l0.4,0.4c0,0.3,0.1,0.5,0.4,0.8
	c0.9,0.5,1.7,0.4,2.6-0.4c0.3-0.3,0.7,0,1.3,0.8c0.8,0.8,1.2,1.5,1.2,2c0,0.3-0.2,0.7-0.5,1.2v0.4l-0.5,0.4
	c-0.3,0.5-0.5,1.1-0.5,1.6v0.4v0.8c0,0.5-0.3,1.2-0.9,2c0,0.5-0.3,0.9-0.9,1.2c-0.3,0.3-0.7,0.8-1.4,1.6l-0.5,1.2l-0.9,0.8
	c-1.2,1.8-2.2,2.8-3.1,2.8c-0.6,0-1.2-0.1-1.7-0.4h-0.4h-0.4c-0.9,0.5-1.5,1.3-1.8,2.4l-0.5,0.4l-0.4,0.4l-0.5,0.4
	c-0.3,0.3-0.7,0.4-1.3,0.4c0,0.3,0.1,0.5,0.4,0.8v0.4h0.4c0.8,1,1.2,2.2,1.2,3.5c0,0.8-0.3,1.2-0.9,1.2v0.4h-0.4
	c-0.3,0-0.4,0.1-0.5,0.4c-0.6,0-0.9,0.1-0.9,0.4h-0.9c0-0.3,0.2-0.4,0.5-0.4v-0.4v-0.4v-0.4v-0.4v-0.4v-0.4h-0.4v-0.4
	c0.6,0,0.9-0.3,0.9-0.8c0-0.3-0.1-0.4-0.4-0.4s-0.6,0-0.9,0h-0.4l-0.4-0.4v-0.4l0.4-0.4v-0.4v-0.4v-0.4h-0.4h-0.4
	c0-0.3-0.2-0.4-0.4-0.4c-0.3,0-0.6,0-0.9,0c-0.3,0.3-0.6,0.4-0.9,0.4l-0.4,0.4l-0.9,0.4c0-0.3,0-0.5,0-0.8l0.4-0.4l0.5-0.4
	c0-0.2-0.1-0.4-0.4-0.4l-0.4-0.4h-0.4l-0.4,0.4c0,0.2-0.3,0.5-0.9,0.8v0.4h-0.4l-0.4,0.4H383v0.4h-0.4c-0.3,0-0.4,0.1-0.5,0.4
	c0,0.3,0.1,0.4,0.4,0.4v0.4c0.3,0,0.4,0.1,0.4,0.4c0.3,0.3,0.4,0.5,0.4,0.8c0.3,0,0.6,0,0.9,0h0.4v-0.4l0.5-0.4h0.4l0.4,0.4h0.4h0.4
	c0.3,0,0.4,0.1,0.4,0.4c-0.3,0-0.4,0.1-0.4,0.4h-0.9v0.4c-0.9,0.3-1.3,0.5-1.3,0.8l-0.4,0.4v0.4c-0.3,0-0.5,0.1-0.5,0.4
	s0.1,0.4,0.4,0.4c0,0.3,0.1,0.4,0.4,0.4c0,0.3,0,0.5,0,0.8h0.4v0.4v0.4v0.4c0.8,1,1.2,2.1,1.2,3.1c0,0.5-0.2,0.9-0.5,1.2v0.4
	c0,0.3,0,0.5,0,0.8c-0.3,0-0.7,0.3-1.3,0.8c0,0.3-0.2,0.5-0.4,0.8c0,0.3-0.2,0.5-0.5,0.8v0.4c-0.3,0.3-0.4,0.5-0.4,0.8
	c-0.3,0.5-0.6,0.8-0.9,0.8c0,0.2-0.3,0.5-0.9,0.8l-0.5,0.4l-0.4,0.4l-0.5,0.4c-0.6,0.3-1.2,0.4-1.7,0.4h-0.4l-0.4-0.4
	c-0.3,0-0.5,0.3-0.5,0.8c-0.3,0.3-0.6,0.4-0.9,0.4l-0.9,0.4h-0.4h-0.4l-0.9,0.4v0.4v0.4c0,0.3-0.2,0.4-0.4,0.4
	c-0.3,0-0.4-0.3-0.4-0.8v-0.4c0-0.3-0.3-0.4-0.9-0.4h-0.4h-0.4c0,0.3-0.3,0.5-0.9,0.8v0.4l-0.9,0.4c-0.6,0.5-0.9,1-0.9,1.6v0.4
	l0.4,0.4c0.3,0,0.4,0.1,0.4,0.4l0.4,0.8c0.6,0.5,1,0.9,1.3,1.2c0.6,0.2,0.9,0.7,0.8,1.5c0.6,0.5,0.8,1.2,0.8,1.9
	c0,0.3-0.2,0.7-0.4,1.2v0.4l-0.5,0.4c-0.3,0-0.6,0.3-0.9,0.8h-0.9c0,0.3-0.2,0.4-0.4,0.4c0,0.2-0.2,0.4-0.5,0.4
	c0,0.5-0.2,0.8-0.4,0.8l-0.5,0.4l-0.4,0.4c-0.3,0-0.4-0.1-0.4-0.4v-0.4V294v-0.4v-0.4h-0.9c-0.3-0.3-0.4-0.5-0.4-0.8
	c-0.3,0-0.6-0.1-0.9-0.4c0-0.2-0.1-0.5-0.4-0.8l-0.4-0.4h-0.4l-0.4-0.4c-0.3,0-0.4-0.1-0.4-0.4s-0.1-0.4-0.4-0.4h-0.4h-0.4v0.4
	c0,0.3,0.1,0.4,0.4,0.4v0.4c0,0.3-0.2,0.5-0.5,0.8c0,0.3-0.2,0.4-0.4,0.4v0.4v0.4c-0.3,0-0.5,0.3-0.5,0.8l0.4,0.4
	c0,0.3,0.1,0.4,0.4,0.4c0.3,0.3,0.4,0.5,0.4,0.8v0.4v0.4l0.4,0.4c0.3,0.2,0.6,0.5,0.9,0.7l0.4,0.4l0.9,0.4c0.9,0.5,1.3,1.2,1.3,1.9
	h-0.4c0,0.3,0,0.5,0,0.8l0.4,0.8h0.4v0.4v0.4c0,0.2,0.1,0.5,0.4,0.8h-0.4h-0.4h-0.4c-1.5-0.5-2.5-1.5-3-3.1c0-0.3,0-0.5,0-0.8
	l-0.4-0.8c0-0.5-0.1-0.9-0.4-1.2v-0.4v-0.4l-0.4-0.4c0-0.5-0.1-0.8-0.4-0.8h-0.4c0-0.5,0-1,0-1.6v-0.8v-0.4v-0.4
	c0-0.5-0.1-1.3-0.4-2.3l-0.4-0.8c0-0.2,0-0.5,0-0.8v-0.8v-0.4c0-0.2,0-0.5,0-0.8h-0.4h-0.4v-0.4v-0.4c-0.3,0.3-0.5,0.5-0.5,0.8
	l-0.4,0.4c-0.6,0.5-1,0.8-1.3,0.8s-0.4-0.4-0.4-1.2v-0.4c0-0.3,0-0.5,0-0.8v-0.4c-0.3-0.2-0.6-0.6-0.9-1.2v-0.4l-0.4-0.4
	c-0.6-0.5-1-0.9-1.3-1.2c0-0.2,0-0.5,0-0.8l-0.4-0.4v-0.4c0-0.3-0.1-0.5-0.4-0.8c-0.3,0-0.6-0.1-0.9-0.4c0,0.5-0.3,0.9-0.9,1.2
	c-0.3,0.3-0.7,0.4-1.3,0.4c-0.3,0-0.6-0.1-0.9-0.4c0,0.3-0.2,0.4-0.5,0.4c-0.6,0.3-0.9,0.5-0.9,0.8v0.4c0,0.3-0.2,0.5-0.4,0.8
	c-0.3,0.3-0.7,0.6-1.3,0.8l-0.5,0.4c-0.3,0-0.4,0.1-0.4,0.4l-1.3,1.2l-1.3,0.8v0.4l-0.5,0.4l-0.4,0.4h-0.4l-0.4,0.4
	c-0.3,0-0.5,0.3-0.5,0.8c0,0.3,0,0.5,0,0.8v0.4v0.4c0,0.3,0,0.5,0,0.8v0.4c-0.3,0.5-0.4,0.9-0.4,1.2l0.4,1.2h-0.4h-0.5l-0.4,0.8v0.4
	c-0.6,0.3-0.9,0.6-0.9,0.8v0.4L337,296c-0.3,0-0.4-0.1-0.4-0.4c-0.3,0-0.4-0.1-0.4-0.4l-0.4-0.8v-0.8c-0.3-0.5-0.6-0.9-0.9-1.2V292
	l-0.4-0.4l-0.4-0.4v-0.4v-0.4v-0.8c-0.3-0.2-0.4-0.5-0.4-0.8h-0.5v-0.4V288v-0.8h-0.4c-0.3-0.8-0.4-1.3-0.4-1.5l-0.4-0.8v-0.4
	c-0.3-0.5-0.4-0.9-0.4-1.2v-0.4v-0.4v-0.4v-0.4c0-0.3,0-0.5,0-0.8v-0.4v-0.4v-0.4v-0.4c-0.3,0.3-0.4,0.5-0.4,0.8h-0.4v0.4
	c-0.3,0.5-0.6,0.8-0.9,0.8c-0.6,0-1-0.1-1.3-0.4l-0.4-0.4v-0.4l-0.4-0.4c0-0.3,0.2-0.4,0.4-0.4h0.5h0.4v-0.4c0-0.2-0.3-0.4-0.9-0.4
	c-0.3,0-0.7-0.1-1.3-0.4c-0.3-0.2-0.6-0.5-0.9-0.8l-0.4-0.4v-0.4c-0.3-0.5-0.6-0.8-0.9-0.8h-0.4h-0.4h-0.5l-0.4,0.4l-1.3-0.4v0.4
	h-0.4h-0.9h-0.5c-0.3,0-0.9-0.1-1.8-0.4h-0.9c-0.3,0-0.6,0-0.9,0l-0.9-0.4H315l-0.4-0.4v-0.4c-0.3-0.5-0.6-0.8-0.9-0.8h-0.4v0.4
	l-0.4,0.4h-1.8c-0.3-0.2-0.6-0.5-0.9-0.8h-0.5v-0.4c-0.3-0.3-0.6-0.4-0.9-0.4h-0.4c0-0.2-0.1-0.4-0.4-0.4v-0.4v-0.4
	c-0.3-0.5-0.6-0.9-0.9-1.2c-0.6-0.5-1.2-0.8-1.8-0.8l-0.4,0.4c0,0.3,0,0.5,0,0.8s0,0.5,0,0.8c0,0.5,0.3,1.2,0.9,2
	c0.3,0.5,0.7,0.8,1.3,0.8c0,0.3,0,0.5,0,0.8v0.4c0.3,0,0.5-0.1,0.5-0.4h0.4c0,0.3,0,0.5,0,0.8v0.4c0,0.2,0.1,0.5,0.4,0.8
	c0.3,0,0.7,0,1.3,0c0.9,0,1.6-0.3,2.2-0.8l0.4-0.4l0.5-0.4c0.3-0.5,0.6-0.8,0.9-0.8v1.2c0.3,0.8,1,1.3,2.2,1.6
	c0.3,0.3,0.6,0.5,0.9,0.8v0.4h0.4v0.4h0.5c0,0.5-0.2,0.9-0.5,1.2l-0.4,0.4c-0.3,0.3-0.5,0.5-0.5,0.8c-0.6,0-0.9,0.3-0.9,0.8H315v0.4
	v0.4c-0.3,0-0.6,0.3-0.9,0.8v0.4h-0.5c-0.3,0-0.6,0.1-0.9,0.4s-0.5,0.5-0.5,0.8h-0.4h-0.5c-0.3,0.3-0.6,0.4-0.9,0.4
	c-1.2,0.3-1.8,0.7-1.8,1.2h0.5v0.4c-0.3,0.3-0.8,0.4-1.3,0.4l-0.9,0.4H306c-0.3,0-0.7,0.3-1.3,0.8l-0.5,0.4l-0.9,0.4h-0.9
	c-0.9,0.5-1.5,0.8-1.8,0.8h-0.5l-0.4-0.4h-0.5h-0.4c0,0.3,0,0.5,0,0.8s0,0.5,0,0.8l0.4,0.4l0.5,0.4c0.3,0.5,0.6,0.8,0.9,0.8l0.4-0.4
	l0.5-0.4c0.3,0,0.6,0,0.9,0h0.5h0.4c0.6,0,1.3-0.2,2.2-0.4l0.9-0.4l1.3-0.4v0.4c0,1.1-0.3,2.4-0.9,4c-0.3,0.5-0.6,1.1-0.9,1.6
	s-0.6,0.9-0.9,1.2c-0.3,0.3-0.6,0.7-0.9,1.2v0.4l-0.4,0.4c-0.6,1.1-1.2,1.7-1.8,2c-0.6,0.6-1.3,1.1-2.2,1.6l-0.9,0.4l-0.9,0.8
	c-1.2,1.1-2.1,2.3-2.7,3.6v0.4l-0.5,0.4v0.4c-0.3,0.3-0.4,0.7-0.4,1.2c0,0.3,0,0.5,0,0.8v0.4c0,0.8,0,1.3,0,1.6
	c0,0.5,0.1,0.8,0.4,0.8c0,0.3,0.1,0.5,0.4,0.8c0.6,0.5,0.9,0.9,0.9,1.1c0,0.3-0.2,0.4-0.5,0.4v0.4v0.8c0,0.3,0,0.7,0,1.2v0.8v0.8
	c0.3,0,0.5,0.3,0.4,0.8c0,1-0.9,1.8-2.7,2.4l-1.3,0.8c-0.3,0-0.6,0.1-0.9,0.4c-0.6,0.5-0.9,1.1-0.9,1.6c-0.3,0-0.6,0.1-0.9,0.4
	s-0.5,0.5-0.5,0.8s0.1,0.7,0.4,1.2l0.4,0.4v0.8c0,0.5,0,1.1,0,1.6v0.8c0,0.3-0.3,0.4-0.9,0.4h-0.4c-0.9,0.5-1.5,1.2-1.8,2
	c0.3,0,0.4,0.3,0.4,0.8c0,0.3-0.2,0.7-0.4,1.2c-0.3,0.3-0.5,0.5-0.5,0.8h-0.4l-0.5,0.4c0,0.3-0.3,0.7-0.9,1.2v0.8
	c0,0.3-0.2,0.4-0.4,0.4l-0.5,0.4v0.4c-0.6,0.5-0.9,0.9-0.9,1.2c-0.6,0.5-1.2,0.9-1.8,1.2h-0.4l-0.5,0.4c-0.6,0-0.9,0.2-0.9,0.4h-0.5
	l-0.4,0.4c-0.3,0-0.6-0.1-0.9-0.4h-0.5c-0.3,0-0.7,0-1.3,0l-0.9,0.4l-0.5,0.4h-0.4c-0.3,0.3-0.6,0.4-0.9,0.4c-0.6,0-1-0.2-1.3-0.7
	h-0.4c0-0.2-0.1-0.6-0.4-1.2c0-0.3-0.1-0.5-0.4-0.8c0.6-0.3,0.9-0.6,0.9-0.8c0-0.5-0.3-1-0.9-1.5l-0.5-0.4c0-0.2-0.2-0.4-0.4-0.4
	l-0.5-0.8l-0.4-0.8c-0.6-0.8-0.9-1.4-0.9-1.9c-0.9-1.5-1.3-3-1.3-4.3V332c0-0.3-0.2-0.5-0.5-0.8v-0.4l-0.9-1.6
	c-0.6-0.5-0.9-0.9-0.9-1.1c-0.6-1-0.9-2.2-0.9-3.5c0-0.8,0.5-1.7,1.4-2.8l0.4-0.4l0.5-0.8c0.3-0.5,0.4-0.9,0.4-1.2
	c0-0.5-0.1-0.9-0.4-1.2v-0.8V317c-0.3-0.8-0.8-1.8-1.3-3.1v-0.8v-0.4c0-0.5-0.1-0.9-0.4-1.2c-0.3-0.3-0.6-0.6-0.9-1.2l-0.5-0.4
	l-0.9-0.4c-0.6-1-0.9-1.8-0.9-2.3c0-0.3,0-0.7,0-1.2c0.3-0.3,0.6-0.4,0.9-0.4c0-0.3,0-0.5,0-0.8v-0.4v-0.8c0-0.2,0-0.5,0-0.8
	c-0.3-1-1-1.6-2.2-1.5H257c-0.3,0-0.7-0.4-1.3-1.2c-0.3-0.3-0.6-0.5-0.9-0.8c0-0.3-0.3-0.4-0.9-0.4s-1.5,0.2-2.7,0.5l-0.9,0.8h-1.4
	c0,0.3-0.2,0.4-0.4,0.4v0.4c-0.3,0-0.6,0-0.9,0h-0.5h-0.4l-0.9-0.4h-0.4c-0.3,0-0.8,0-1.4,0v0.4h-0.9h-0.9c0,0.3-0.3,0.4-0.9,0.4
	l-0.4-0.4h-0.5c-0.3,0-0.8-0.3-1.3-0.8l-0.5-0.4l-0.9-0.4c-0.9-0.5-1.5-1-1.8-1.6c0-0.5-0.2-0.9-0.4-1.2l-0.5-0.4
	c-0.3-0.5-0.6-1-0.9-1.6c-0.3,0-0.8-0.4-1.4-1.2l-1.4-0.8v-0.4c-0.3,0-0.5-0.1-0.5-0.4h0.5l-0.5-0.4V291v-0.4c0-0.3-0.2-0.5-0.4-0.8
	v-0.4c0.3-0.3,0.6-0.8,0.9-1.6c0.3-0.8,0.4-1.5,0.4-2s-0.2-1.3-0.4-2.4v-0.8c0-0.5,0-0.9,0-1.2c0-0.3,0.1-0.7,0.4-1.2l0.5-0.4v-0.4
	c0.6-1.6,1.5-3.2,2.7-4.9c0.3-0.5,0.6-0.8,0.9-0.8h0.9l0.5-0.4c0.3-0.3,0.8-0.5,1.4-0.8c0.3-0.3,0.5-0.7,0.5-1.2
	c0.3-0.3,0.4-0.5,0.4-0.8v-0.4v-0.4c0-0.5,0.2-0.9,0.5-1.2c0.3-0.5,0.8-1.2,1.4-2l0.9-0.8l0.9-1.2l0.5-0.4c0-0.3,0.1-0.4,0.4-0.4
	c0.9,0.5,2.1,0.8,3.6,0.8l0.4-0.4h0.5l0.4-0.4c0.9-0.3,2-0.7,3.2-1.2c1.2-0.3,2.3-0.4,3.2-0.5h0.5l0.4,0.4h0.5h0.4l0.4-0.4
	c0.3-0.3,0.6-0.4,0.9-0.4h0.5l0.4,0.4h0.5l0.4-0.4c0.3,0,0.6,0,0.9,0h0.5l0.4,0.4h0.5h0.4v-0.4c0,0.3,0,0.5,0,0.8h-0.4
	c-0.3,0-0.5,0.1-0.5,0.4s0.2,0.4,0.5,0.4l0.4,0.4v0.4l-0.4,0.4c-0.3,0.3-0.5,0.6-0.5,0.8c0,0.5,0.3,0.9,0.9,1.2
	c0.3,0.5,0.6,0.8,0.9,0.8h1.4c0.9,0,1.9,0.5,3.1,1.5c1.2,1.1,2.2,1.6,3.1,1.6c0.3,0,0.5-0.1,0.5-0.4c0.3,0,0.4-0.1,0.4-0.4v-0.8
	c0-0.5,0.2-0.9,0.5-1.2c0.3,0,0.6,0,0.9,0l0.4-0.4h0.5h0.9c0,0.3,0.1,0.5,0.4,0.8h0.5c0,0.3,0.3,0.4,0.9,0.4h0.4
	c0.3,0,0.5,0.1,0.5,0.4c0.6,0.3,1.3,0.4,2.2,0.4c0.9,0.3,1.6,0.4,2.2,0.4c0.3,0,0.7,0,1.4,0l0.4-0.4h0.9c0.3,0,0.6,0,0.9,0
	c0.6,0.3,1,0.4,1.3,0.4h0.4h0.5c0-0.1,0-0.2,0.1-0.3l-0.1-0.1c0-0.3,0.1-0.4,0.4-0.4c0-0.5,0.3-1.3,0.9-2.4v-0.4l0.5-0.4
	c0.3-0.3,0.4-0.5,0.4-0.8v-0.8v-0.4l-0.4-0.4v-0.4h0.4v-0.4h-0.4h-0.5c-0.3,0-0.6-0.1-0.9-0.4v0.4l-0.4,0.4
	c-0.3,0.3-0.8,0.4-1.4,0.4h-0.4l-0.5-0.4l-0.4-0.4l-0.5-0.4c-0.3,0-0.6,0.1-0.9,0.4c-0.3,0.5-0.6,0.8-0.9,0.8l-0.4-0.4l-0.5-0.4
	c-0.3-0.3-0.6-0.3-0.9,0v-0.4h-0.4v-0.4h-0.5c-0.3-0.3-0.3-0.5,0-0.8c-0.3,0-0.6-0.1-0.9-0.4l-0.4-0.4l0.4-0.4v-0.4v-0.8h-0.4
	c0-0.5,0.4-0.8,1.3-0.8l0.9-0.4h0.5c0.3,0,0.6-0.1,0.9-0.4h-0.5v-0.4l-0.4,0.4h-0.5h-0.4h-0.5l-0.4,0.4l-0.5,0.4
	c-0.3,0-0.4-0.1-0.4-0.4h-0.4c-0.3-0.3-0.6-0.4-0.9-0.4s-0.6,0-0.9,0v0.4h-0.5c0,0.3,0,0.5,0,0.8h-0.4v-0.4h-0.5h-0.4v0.4l0.9,0.8
	h-0.5v0.4l0.5,0.8l0.9,0.4v0.4h-0.5h-0.4c-0.3-0.3-0.6-0.4-0.9-0.4v0.4h0.4c0,0.3,0,0.5,0,0.8c-0.3,0.3-0.3,0.5,0,0.8h-0.4
	c-0.9,0-1.4-0.5-1.3-1.6h0.5v-0.4h-0.5c-0.3,0-0.4-0.1-0.4-0.4c0-0.5-0.3-0.9-0.9-1.2v-0.4l-0.5-0.4c-0.3-0.2-0.4-0.6-0.4-1.2v-0.8
	c0-0.3-0.1-0.5-0.5-0.8c-0.3-0.5-0.6-0.8-0.9-0.8l-0.4-0.4h-0.5l-0.4-0.4h-0.5c-0.6,0-1.1-0.2-1.3-0.8c-0.3-0.5-0.4-1.1-0.4-1.6
	h-1.4c-0.3,0-0.4-0.1-0.4-0.4v-0.4v-0.4l-0.5,0.4h-0.4c-0.3,0-0.5,0.1-0.5,0.4v0.4v0.4c0,0.5,0.3,0.9,0.9,1.2c0.3,0,0.5,0.1,0.5,0.4
	l0.4,0.4v0.4c0,0.3,0.2,0.5,0.5,0.8c0,0.3,0.1,0.4,0.4,0.4c0.3,0.3,0.6,0.4,0.9,0.4v-0.4h0.5v0.4c0,0.3,0.1,0.5,0.4,0.8h0.4h0.5
	l0.4,0.4c0.3,0,0.5,0.1,0.5,0.4c0.3,0.2,0.4,0.5,0.4,0.8h-0.4v-0.4c-0.3,0-0.6,0-0.9,0c-0.6,0-0.9,0.2-0.9,0.4
	c0,0.3,0.2,0.5,0.4,0.8l0.5,0.4c0,0.3-0.2,0.4-0.5,0.4s-0.4,0.1-0.4,0.4c0,0.5-0.2,0.8-0.4,0.8c-0.3,0-0.5-0.1-0.5-0.4
	c0.3,0,0.5-0.1,0.5-0.4c0.3-0.3,0.4-0.5,0.4-0.8s-0.2-0.4-0.4-0.4v-0.4h-0.5l-0.4-0.8c-0.3-0.2-0.5-0.5-0.5-0.8h-0.4h-0.5
	c-0.6-0.2-1.2-0.8-1.8-1.6h-0.4l-0.5-0.4l-0.4-0.4l-0.5-0.8l-0.4-0.8c-0.3-0.5-0.7-0.8-1.4-0.8c-0.3,0-0.6,0.1-0.9,0.4
	c0,0.3-0.2,0.4-0.4,0.4h-0.5l-0.4,0.8c-0.3,0-0.8,0-1.3,0h-0.5h-0.4l-0.9-0.4c-0.6,0-0.9,0.1-0.9,0.4c-0.3,0.3-0.5,0.6-0.5,0.8v0.8
	c0,0.3-0.2,0.6-0.4,0.8c-0.3,0.3-0.8,0.4-1.4,0.4c-0.3,0.3-0.8,0.7-1.4,1.2c-0.3,0.6-0.5,1.1-0.5,1.6v0.4h0.5
	c-0.6,0.8-1.2,1.4-1.8,1.6v0.4l-0.5,0.4c-0.3,0.3-0.6,0.4-0.9,0.4h-0.4h-0.5h-0.4c-0.3,0-0.6,0.1-0.9,0.4l-0.9,0.4h-0.4h-0.5v-0.4
	v-0.4c-0.3-0.5-0.6-0.8-0.9-0.8s-0.6,0.1-0.9,0.4h-0.9h-0.4v-0.4v-1.6c-0.3,0-0.5-0.1-0.5-0.4v-0.4l0.5-0.4v-0.8v-0.8v-0.8l0.4-0.8
	l-0.4-0.4v-0.4c-0.3-0.3-0.5-0.5-0.5-0.8l0.9-0.4l0.9-0.8v0.4h0.5h0.4h1.8v0.4h0.5h1.8c0.3-0.3,0.5-0.3,0.5,0h0.4h0.5h0.4h0.5
	c0-0.5,0-0.9,0-1.2c0.3-0.3,0.4-0.5,0.4-0.8v-0.4v-0.8v-0.4v-0.4c-0.6,0-0.9-0.2-0.9-0.8c-0.3,0-0.4-0.2-0.4-0.8l-0.5-0.4h-0.4
	c-0.3,0-0.6-0.1-0.9-0.4c-0.6,0-0.9-0.3-0.9-0.8l0.5-0.4h0.4l0.4-0.4c0,0.3,0.2,0.4,0.5,0.4c0.3,0.3,0.6,0.4,0.9,0.4l0.4-0.4h0.5
	v-0.4c-0.3,0-0.5-0.1-0.5-0.4v-0.4h0.5c0.3,0.3,0.8,0.4,1.4,0.4c0.3,0,0.5-0.3,0.5-0.8c0.9,0,1.5-0.5,1.8-1.6l0.9-0.4
	c0.3,0,0.6,0,0.9,0l0.9-0.8v-0.4v-0.4v-0.4l0.4-0.4l0.5-0.4l0.4-0.4c0.3-0.3,0.8-0.4,1.3-0.4h0.5h0.4v-0.4h0.5h0.4h0.5
	c0.3-0.3,0.4-0.5,0.4-0.8v-0.4l-0.4-0.4c0-0.3,0-0.5,0-0.8l-0.5-0.4c0-0.3,0-0.7,0-1.2s0.3-1.1,0.9-1.6l0.5-0.4
	c0.3-0.3,0.6-0.4,0.9-0.4v0.4c0,0.3,0,0.7,0,1.2v0.4h0.4v0.4l-0.4,0.4h-0.5v0.4c-0.3,0.3-0.4,0.6-0.4,0.8c0,0.6,0.2,0.8,0.4,0.8v0.4
	h0.5h0.4v0.4h0.5v0.4c0.3,0,0.6-0.1,0.9-0.4h0.4c0.6-0.3,1.1-0.4,1.4-0.4v0.4l0.4,0.4h0.5l0.4-0.4h0.9h0.5l0.4-0.4l0.4-0.4
	c0.3-0.3,0.6-0.4,0.9-0.4c0.6,0,1.1,0.1,1.4,0.4v0.4c0.3,0,0.8-0.1,1.3-0.4v-0.8h0.5v-0.4c0.6-0.3,0.9-0.7,0.9-1.2s0.1-1.2,0.5-2
	c0.3-0.5,0.6-0.8,0.9-0.8h0.5l0.4,0.4c0.3,0.3,0.6,0.4,0.9,0.4h0.5v-0.4c0.3-0.5,0-1.2-0.9-2c-0.3-0.3-0.1-0.7,0.5-1.2
	c0.6-0.3,1.2-0.4,1.8-0.4c0.3,0,0.6,0.1,0.9,0.4h0.4h0.9l0.9-0.4c0.3-0.3,0.6-0.4,0.9-0.4c0-0.3-0.1-0.5-0.4-0.8v-0.4l-0.5-0.4
	c0,0.5-0.4,0.8-1.4,0.8c-0.6,0.3-1.2,0.3-1.8,0l-0.4,0.4H278c-0.6,0.3-1.1,0.4-1.3,0.4c-0.6,0-0.9-0.2-0.9-0.8c-0.3,0-0.6,0-0.9,0
	c-0.6-0.3-0.9-0.7-0.9-1.2c0-0.3,0.1-0.4,0.4-0.4v-0.4h0.5c-0.3,0-0.6-0.3-0.9-0.8c0-0.3,0-0.5,0-0.8v-0.4v-0.4
	c0.6,0,1.2-0.4,1.8-1.2l0.4-0.4l0.5-0.4c0.3-0.3,0.6-0.5,0.9-0.8h0.4l0.5-0.4c0.3-0.3,0.4-0.5,0.4-0.8s-0.2-0.5-0.4-0.8
	c-0.6-0.3-1.2-0.4-1.8-0.4c-1.5,0-2.3,0.6-2.3,1.6v0.4v0.4c0,0.5-0.5,1.1-1.4,1.6l-0.9,0.4v0.4h-0.5l-0.4,0.4h-0.9
	c-0.3,0.3-0.5,0.6-0.5,0.8l-0.4,0.4v0.8v0.4v0.8c0,0.3,0,0.6,0,0.8c0.6,0,1.1,0.1,1.3,0.4c0.3,0.5,0.5,0.9,0.5,1.2s-0.2,0.7-0.5,1.2
	c-0.3,0.3-0.6,0.4-0.9,0.4s-0.6,0.1-0.9,0.4c-0.3,0.6-0.4,1.1-0.4,1.6c0,0.3,0.2,0.4,0.4,0.4l0.5,0.4c0,0.3-0.3,0.6-0.9,0.8v0.4
	l-0.4,0.4h-1.4l-0.4,0.8c-0.3,0-0.5,0.1-0.5,0.4c-0.3,0.3-0.6,0.4-0.9,0.4l-0.4-1.2c0-0.3-0.2-0.4-0.5-0.4v-0.4v-0.4
	c0-0.3-0.2-0.7-0.4-1.2v-0.4c0-0.3-0.2-0.5-0.5-0.8v-0.4c-0.3-0.3-0.4-0.5-0.4-0.8v-0.4c-0.3-0.3-0.5-0.5-0.5-0.8v-0.4
	c-0.6,0.8-1.2,1.5-1.8,2c-0.6,0.6-1.4,0.8-2.3,0.8c-0.3,0-0.6-0.3-0.9-0.8l-0.9-0.4c0-0.3,0.2-0.4,0.5-0.4v-0.8c-0.3,0-0.6,0-0.9,0
	l0.4-0.4v-0.4h0.5c-0.6-0.5-0.9-1.5-0.9-2.8c0-0.3,0.1-0.4,0.4-0.4l0.5-0.4c0.6-0.8,1.2-1.4,1.8-1.6l0.5-0.4h0.4
	c0.3-0.5,0.8-0.7,1.4-0.4l-0.5-0.4H260c0.9-0.3,1.7-0.7,2.3-1.2l0.5-0.8c0.3-0.3,0.6-0.5,0.9-0.8c0.3,0,0.4-0.1,0.4-0.4v-0.4
	c0-0.5,0.2-0.8,0.5-0.8l0.4-0.8c0.3-0.8,0.9-1.4,1.8-1.6c0.3-0.3,0.8-0.7,1.4-1.2c0.3-0.5,0.5-0.9,0.8-1.4c-0.1,0-0.1-0.1-0.2-0.1
	c-0.2,0.1-0.4,0.2-0.6,0.3l-0.5,0.4c-0.6,0-1.1,0-1.4,0c0.3,0,0.4-0.1,0.4-0.4h0.5l-0.5-0.4c0-0.3,0.2-0.4,0.5-0.4h0.4
	c0-0.3,0.2-0.4,0.5-0.4c0,0.3,0,0.6,0,0.8h0.4c0,0,0.1,0,0.1,0.1c0.1,0,0.2-0.1,0.3-0.1c0,0.1-0.1,0.1-0.1,0.2
	c0.2,0.1,0.4,0.2,0.6,0.2l0.4-0.4v-0.4l0.5-0.4c-0.3,0-0.6,0-0.9,0c0-0.3,0.2-0.4,0.4-0.4l0.5-0.4h0.4c0.3-0.3,0.6-0.4,0.9-0.4
	l0.5-0.4h0.4v0.8c0-0.3,0.2-0.4,0.5-0.4v-0.4c0.3-0.3,0.6-0.4,0.9-0.4v0.4c0.3-0.3,0.6-0.5,0.9-0.8h0.4h0.5
	c-0.3-0.3-0.5-0.5-0.5-0.8h0.5h0.4v-0.4l0.5,0.4h0.4h0.5h0.4h0.5c0.6-0.5,0.9-0.7,0.9-0.4s-0.2,0.6-0.5,0.8l-0.4,0.4
	c0.3,0,0.6,0,0.9,0l0.4-0.8h0.4v0.4c0.3-0.3,0.9-0.7,1.8-1.2v1.2c0.3-0.5,0.6-0.8,0.9-0.8l0.5,0.4h0.4v0.4h0.5
	c-0.3,0.3-0.5,0.5-0.5,0.8h-0.4h-0.5h-0.4l0.9,0.8h0.4h0.9c0.3,0,0.6,0,0.9,0c0.6,0,1.8,0.4,3.6,1.2l0.9,0.4l1.3,0.4
	c0.9,0.5,1.5,0.8,1.8,0.8c3,1.1,4.2,2.1,3.6,3.2c-0.3,0.6-0.8,1-1.4,1.2c-0.9,0.3-1.7,0.3-2.3,0c-0.9-0.3-2.2-0.4-4-0.4
	c0,0.3,0.1,0.7,0.5,1.2v0.4l0.4,0.8c0.3,0.8,0.9,1.3,1.8,1.6v-1.6c1.8,0.5,3,0.4,3.6-0.4l0.4-0.4l0.5-0.8c0.3-0.5,0.6-0.8,0.9-0.8
	h0.9h0.4h0.5c0.6,0,0.9-0.3,0.9-0.8v-0.4v-0.4c-0.3,0-0.5-0.1-0.5-0.4c0.3-1.4,0.8-2.2,1.4-2.4l0.4-0.4c0.3,0.3,0.5,0.7,0.4,1.2
	c0,0.5,0,1.1,0,1.6c-0.3,0.3-0.3,0.4,0,0.4c0.3,0.3,0.6,0.4,0.9,0.4s0.9-0.3,1.8-0.8l0.5-0.4l0.9-0.4l1.3-0.8
	c2.1-1.4,3.3-1.6,3.6-0.8c0.9,0.3,1.9,0.3,3.1,0l0.9-0.4h0.5c0.6-0.3,1.1-0.4,1.3-0.4c0.3,0,0.5,0.1,0.5,0.4l0.4,0.4h0.5
	c0.6,0.3,0.9-0.1,0.9-1.2v-0.4c-0.3-0.3-0.3-0.5,0-0.8c0-0.3,1.2-0.1,3.6,0.4c0.6,0,1.2,0.3,1.8,0.8l1.3,0.8c0.3,0,0.6,0.1,0.9,0.4
	c1.5,0.8,1.9,0.4,1.3-1.2c-1.2-1.1-1.7-2.4-1.7-4c0-0.6,0.6-1.4,1.8-2.4c1.2-1.1,2.1-1.6,2.7-1.6c-0.6,0-0.9,0-0.9,0v-0.4v-0.4
	c0-0.3,0.2-0.4,0.5-0.4s0.4,0.1,0.4,0.4h0.5v0.4l-0.5,0.4c1.5,0.5,2.2,0.9,2.2,1.2l-0.5,0.4v0.4c-0.3,0.3-0.4,0.6-0.4,0.8
	c0,0.3,0.1,0.8,0.4,1.6c0,0.8,0,1.6,0,2.4c0.6,2.1,1.1,3.2,1.7,3.2s0.6-0.5,0-1.6l-0.4-0.8v-0.4c0-0.5,0-0.9,0-1.2
	c0.6-0.5,0.8-1.1,0.5-1.6l-0.4-0.4l-0.4-0.8c0-0.3,0-0.6,0-0.8c1.2-0.6,1.8-1.4,1.8-2.4c0,0.3,0.1,0.7,0.4,1.2v0.4
	c0,0.3,0.1,0.5,0.4,0.8c0.3,0.5,0.9,0.1,1.8-1.2c0.6,0,1.2,0.1,1.8,0.4h0.4h0.5c0.6,0,1-0.1,1.3-0.4v-0.4l-0.4-0.4v-0.4
	c0-1.1,0.9-1.8,2.7-2C344.6,201.1,345.2,201.1,345.8,201z M378.6,200.1c-0.6,0-0.9-0.1-0.9-0.4v-0.4c0.3-0.3,0.5-0.4,0.5-0.4
	s0.1,0,0.4,0c0.6,0,0.9,0.3,0.9,0.8l-0.4,0.4v-0.4L378.6,200.1z M252.8,259.8v-0.4h0.4h0.5c0,0,0,0.1,0,0.4h-0.5H252.8z
	 M259.1,258.1v-0.4h0.5l0.4-0.4l0.5,0.4c0.3,0.3,0.4,0.8,0.4,1.6c0,0.3-0.2,0.5-0.4,0.8l-0.5,0.4c-0.3,0-0.4-0.1-0.4-0.4l-0.5-0.4
	v-0.4h0.5c0-0.3,0-0.5,0-0.8L259.1,258.1z M259.6,256.1v-0.4v-0.4h0.4h0.5v0.8v0.4c-0.3,0.3-0.5,0.4-0.5,0.4v-0.4L259.6,256.1z
	 M263.6,262.1v-0.4c0.6-0.3,1.1-0.3,1.4,0h0.4h0.5h0.4c0.3-0.3,0.6-0.3,0.9,0l-0.4,0.4v0.4v0.4v0.4h-0.5c-0.3,0-0.6-0.3-0.9-0.8H265
	l-0.5-0.4h-0.4H263.6z M276.7,264.7c0.6,0,1.1,0,1.4,0c0.6,0.2,0.9,0.4,0.9,0.4s0.1,0,0.4,0l-0.4,0.4l-0.5-0.4c-0.3,0-0.6,0-0.9,0
	C277.2,265.1,277,265,276.7,264.7z M286.5,265.4V265c0.3,0,0.6-0.1,0.9-0.4c0.6,0,0.9,0,0.9,0s0.1-0.1,0.4-0.4v0.4h-0.4v0.4
	l-0.5,0.4h-0.9H286.5z M261.9,236.3v0.4c0,0,0,0.1,0,0.4c-0.6,0-0.9-0.1-0.9-0.4v-0.4H261.9z M262.8,236.7l-0.4-0.4v-0.4l0.4-0.4
	c0-0.3,0.2-0.4,0.5-0.4s0.6,0.3,0.9,0.8c-0.3,0-0.5,0.1-0.5,0.4v0.4c-0.3,0.6-0.6,0.8-0.9,0.8h-0.4l0.4-0.4c0.3,0,0.5-0.1,0.5-0.4
	L262.8,236.7z M270.5,233.4V233v-0.4c0.3-0.5,0.5-0.8,0.5-0.8s0.2,0,0.4,0l-0.4,0.4v0.4v0.4L270.5,233.4z M275.1,230.1h0.5h0.4v0.4
	l-0.4,0.4v0.4v0.4c-0.3,0-0.5,0-0.5,0h-0.4v-0.4v-0.4h0.4h0.5v-0.4C275.2,230.6,275.1,230.4,275.1,230.1z M387.6,292.5v0.4
	c0-0.2,0-0.5,0-0.8V292.5z M150.2,189.1c-0.3,0-0.5,0-0.8,0s-0.5,0.1-0.8,0.4c0.3,0,0.5,0,0.8,0L150.2,189.1z M298.3,291
	c-0.3-0.8-0.4-1.4-0.4-2c-0.3,0-0.4-0.2-0.4-0.8l0.4-0.4c0-0.5-0.1-0.9-0.4-1.2v-0.4l-0.4-0.4c-0.3,0-0.4-0.1-0.4-0.4
	c-0.3-0.2-0.6-0.4-0.9-0.4c-0.3-0.8-0.4-1.3-0.4-1.6c-1.2-0.3-1.8-1.2-1.8-2.8c0-0.3,0-0.7,0-1.2h-0.4c0-0.3,0-0.5,0-0.8h-0.5v-0.4
	h-0.4h-0.5v-0.4c-0.3,0-0.4-0.1-0.4-0.4V277c0-0.3,0-0.5,0-0.8h-0.5l-0.4-0.8V275l-0.9-1.2l-0.4-0.4V273v-0.4v-0.4v-0.4
	c0,0.3-0.2,0.7-0.5,1.2v0.4v0.4c-0.6,0-1-0.4-1.3-1.2l-0.5-0.4v-0.4c-0.3-0.3-0.6-0.4-0.9-0.4v0.4l4,6.7c0,0.3,0.1,0.8,0.4,1.6
	c0.3,0.5,0.6,1.1,0.9,1.6v2c0.3,0.3,0.6,0.5,0.9,0.8l0.9,0.4c0,0.3,0,0.5,0,0.8c0.3,0,0.4,0.1,0.4,0.4l0.4,0.8
	c0,0.5,0.1,0.9,0.4,1.2c0.3,0.3,0.6,0.5,0.9,0.8h0.5c0,0.3,0.1,0.4,0.4,0.4c0,0.3,0.1,0.4,0.4,0.4v0.4l0.4,0.4
	c0.3,0.5,0.7,0.8,1.3,0.8C298.6,291.4,298.6,291.2,298.3,291z M283.4,257h1.4c0.3,0,0.6-0.1,0.9-0.4h0.4l0.5-0.4
	c0.3-0.3,0.6-0.4,0.9-0.4h0.9h0.4h0.5c0.3,0,0.4,0.1,0.4,0.4h0.5l0.4,0.4l0.9,0.4c0.3,0,0.6,0,0.9,0c0,0.3,0.1,0.4,0.4,0.4h2.3
	c0.3,0,0.6-0.1,0.9-0.4l0.4-0.4l0.5-0.4c0-1.1-0.9-2-2.7-2.8l-0.9-0.4c-0.3-0.3-0.6-0.4-0.9-0.4c-0.6-0.5-0.9-0.9-0.9-1.2
	c0.9-0.3,1.3-0.7,1.3-1.2c0-0.3-0.1-0.4-0.4-0.4v-0.4l0.4-0.4h-0.9c-0.3,0.3-0.7,0.4-1.3,0.4c-0.9,0.6-1.3,1-1.3,1.2
	c0,0.3,0.1,0.4,0.4,0.4h1.3c-0.3,0.3-0.7,0.6-1.3,0.8c-0.6,0.6-1.2,0.8-1.8,0.8l-0.4-0.8l-0.5-0.4l-0.4-0.4l-1.3-1.6
	c-0.6,0-0.9,0.3-0.9,0.8H284l-0.5,0.4v0.4v0.4c-0.3,0-0.6,0-0.9,0v0.4c0,0.3-0.2,0.6-0.4,0.8v0.8c0,0.3-0.2,0.4-0.5,0.4v0.4
	c-0.3,0.6-0.4,0.9-0.4,1.2s0.1,0.5,0.4,0.8v0.4h0.5l0.4,0.4h0.5H283.4z M292.9,248.9l0.5-0.4h-0.5V248.9z M226.7,208.2l0.5,0.4h0.5
	l-0.5-0.4c-0.3,0-0.5-0.1-0.5-0.4h-0.5C226.2,208.1,226.3,208.2,226.7,208.2z M360.5,186.1h-0.3c0.1,0,0.4,0,0.7,0H360.5z"/>
</svg>
