<?xml version="1.0" encoding="utf-8"?>
<!-- Generator: Adobe Illustrator 21.1.0, SVG Export Plug-In . SVG Version: 6.00 Build 0)  -->
<svg version="1.1" id="Layer_1" xmlns="http://www.w3.org/2000/svg" xmlns:xlink="http://www.w3.org/1999/xlink" x="0px" y="0px"
	 viewBox="0 0 495.4 512" style="enable-background:new 0 0 495.4 512;" xml:space="preserve">
<g>
	<g>
		<path d="M285,217.7v-18.8l-75.8,0.2V218l-153.4-1L0,288.8l55.8,70.8l439.5,2.2V217.7H285z M495.4,106.9l-58-71.2H285l0.1-22.3
			c0-4-4.1-7.1-12.2-9.4c-7.2-2-15.7-3-25.5-3c-10.5,0-20.4,1-27.5,3c-7.8,2.3-10.5,4.9-10.5,8.8v22.9H0.1v142.6h436.3L495.4,106.9z
			 M247.6,18.8c-15.1,0-27.4-2.7-27.4-6s12.3-6,27.4-6c15.1,0,27.4,2.7,27.4,6S262.7,18.8,247.6,18.8z M209.3,510.9H285l0.1-129.5
			l-75.8,0.1V510.9z"/>
	</g>
</g>
</svg>
