<?xml version="1.0" encoding="utf-8"?>
<!-- Generator: Adobe Illustrator 21.1.0, SVG Export Plug-In . SVG Version: 6.00 Build 0)  -->
<svg version="1.1" id="Layer_1" xmlns="http://www.w3.org/2000/svg" xmlns:xlink="http://www.w3.org/1999/xlink" x="0px" y="0px"
	 viewBox="0 0 366.1 512" style="enable-background:new 0 0 366.1 512;" xml:space="preserve">
<g>
	<g>
		<path d="M282.3,22.6C202.2-23.9,99.7,3.7,53.5,84.2c-38.4,66.8-26,149.2,25.2,201.8L0,511l1.7,1L156,331.3
			c71.2,18.8,148.9-11.5,187.5-78.7C389.9,172.1,362.4,69,282.3,22.6z M186,158.8c-10.3,6-23.6,2.4-29.5-7.9
			c-6-10.4-2.4-23.7,7.9-29.7c10.3-6,23.6-2.4,29.5,7.9C199.9,139.5,196.3,152.8,186,158.8z M210,94.7c-19.2-8.9-39.9-5.6-53.7,2.3
			c-15.8,9.2-26.3,23.7-28.9,45.6c-0.3,17.3-19.3,15.8-20.3,9.2c-1.2-18.5,6.5-52.6,39.5-71.9c30.3-17.6,63-11.1,81.6,1.6
			C234,89.2,222.1,101.6,210,94.7z"/>
	</g>
</g>
</svg>
