<?xml version="1.0" encoding="utf-8"?>
<!-- Generator: Adobe Illustrator 21.1.0, SVG Export Plug-In . SVG Version: 6.00 Build 0)  -->
<svg version="1.1" id="Layer_2" xmlns="http://www.w3.org/2000/svg" xmlns:xlink="http://www.w3.org/1999/xlink" x="0px" y="0px"
	 viewBox="0 0 491.2 512" style="enable-background:new 0 0 491.2 512;" xml:space="preserve">
<g id="fill">
	<path d="M491.2,426.7c0,25.9-26.2,47.9-75.8,63.5c-44.8,14.2-105.1,22-169.8,22s-124.9-7.8-169.8-22C26.2,474.5,0,452.6,0,426.8
		c0-12.1,6.2-30,35.6-46.6c17-9.6,40.3-17.9,67.9-24.3l40,40c-24.8,4.4-45.8,10.3-60.8,17.2c-16.5,7.6-18.8,13.2-19,13.7
		c0.6,2.5,10,13.5,48,23.8c35.9,9.8,83.5,15.2,133.9,15.2c50.6,0,98.2-5.4,134.1-15.3c38-10.4,47.3-21.3,47.8-23.8
		c-0.2-0.5-2.4-6.1-18.9-13.7c-14.9-6.9-35.9-12.8-60.7-17.2l40-40c27.5,6.4,50.7,14.7,67.7,24.3
		C484.8,396.8,491.1,414.6,491.2,426.7z"/>
	<path d="M245.3,0C158.4,0,88,70.5,88,157.4c0,96,157.6,282.8,157.6,282.8s157.1-186,157.1-282.8C402.7,70.5,332.3,0,245.3,0z
		 M245.3,227.4c-38.7,0-70.1-31.4-70.1-70c0-38.7,31.4-70.1,70.1-70.1c38.7,0,70,31.4,70,70.1C315.4,196,284,227.4,245.3,227.4z"/>
</g>
</svg>
