<?xml version="1.0" encoding="utf-8"?>
<!-- Generator: Adobe Illustrator 21.1.0, SVG Export Plug-In . SVG Version: 6.00 Build 0)  -->
<svg version="1.1" id="Layer_2" xmlns="http://www.w3.org/2000/svg" xmlns:xlink="http://www.w3.org/1999/xlink" x="0px" y="0px"
	 viewBox="0 0 495.9 512" style="enable-background:new 0 0 495.9 512;" xml:space="preserve">
<g>
	<path d="M485.2,44.8L443.5,9.5c-6.4-5.4-15.1-7.3-23.2-5.1L292.9,39.1v52.7L455,145l4.9-1.7c6.9-2.3,12.3-7.6,14.9-14.4L494,78.5
		C498.5,66.6,495,53.1,485.2,44.8z"/>
	<path d="M418.4,146.8l-125.5-36.3V280l113.3,39.4c8,2.8,16.8,1.4,23.5-3.6l47.9-35.4c13-9.9,15.7-28.2,6.3-41.5L418.4,146.8z"/>
	<path d="M207.9,59.5L81.5,59.3c-6.3,0-12.3,2.5-16.7,6.9L9.3,121.6c-11.8,11.8-11.8,30.9,0,42.7l56.6,56.6
		c4.4,4.4,10.5,6.9,16.7,6.9l125.2-0.3L207.9,59.5L207.9,59.5z"/>
	<path d="M321.4,352h-45V10.8c0-14.4-52-14.4-52,0V352h-44c-18.5,0-33.5,15-33.5,33.5c0,9.3,3.8,17.6,9.8,23.7
		c6.1,6.1,14.4,9.8,23.7,9.8h44v93.5h52V419h45c18.5,0,33.5-15,33.5-33.5v-0.2C354.9,366.9,339.9,352,321.4,352z M250.9,16.5
		c-10.6,0-19.3-2.7-19.3-6c0-3.3,8.7-6,19.3-6s19.3,2.7,19.3,6C270.2,13.8,261.5,16.5,250.9,16.5z"/>
</g>
</svg>
