<?xml version="1.0" encoding="utf-8"?>
<!-- Generator: Adobe Illustrator 21.1.0, SVG Export Plug-In . SVG Version: 6.00 Build 0)  -->
<svg version="1.1" id="Layer_1" xmlns="http://www.w3.org/2000/svg" xmlns:xlink="http://www.w3.org/1999/xlink" x="0px" y="0px"
	 viewBox="0 0 511.8 512" style="enable-background:new 0 0 511.8 512;" xml:space="preserve">
<path d="M511.8,172V0h-171v70l61-3.4l-45.5,45.5L301.1,57l-41.7,41.7l55.1,55.1l-11.7,11.7C228,112,123.3,118.8,56.1,186
	c-74.8,74.9-74.8,196.1,0,270.9s196,74.8,270.8,0c67-67,74-171.2,21-245.9l11.8-11.8l54.5,54.5l41.7-41.7l-54.5-54.5l45.5-45.5
	l-3.2,60.1h68.1V172z M281.7,411.6c-49.8,49.8-130.5,49.8-180.3,0s-49.8-130.5,0-180.3s130.5-49.8,180.3,0S331.5,361.8,281.7,411.6z
	"/>
</svg>
