<?xml version="1.0" encoding="utf-8"?>
<!-- Generator: Adobe Illustrator 21.1.0, SVG Export Plug-In . SVG Version: 6.00 Build 0)  -->
<svg version="1.1" id="Layer_1" xmlns="http://www.w3.org/2000/svg" xmlns:xlink="http://www.w3.org/1999/xlink" x="0px" y="0px"
	 viewBox="0 0 545.7 512" style="enable-background:new 0 0 545.7 512;" xml:space="preserve">
<g>
	<path d="M386.4,132.6l1.1,64.2l55.7-3.1c0,0-31.7,31.7-60.5,60.5c-14.3-13-31.2-23.2-49.8-29.8c2.8,15.8,0.4,44.7-7.2,64.6
		c25.8,14.6,43.3,42.3,43.3,74.1c0,46.9-38,85-85,85c-29.1,0-54.9-14.7-70.2-37c-6.9,4.7-35.8,16.2-62.2,16
		c23.8,49.1,74.2,83,132.4,83.1c81.2,0,147-65.8,147-147c0-21.5-4.6-41.9-12.9-60.3c30.3-30.3,67-67.1,67-67.1l-3.3,55.6l63.8,0.5
		l0.1-159.3L386.4,132.6z"/>
	<path d="M294,240c0-38.2-14.6-73.1-38.5-99.2c20.5-20.5,37.6-37.6,37.6-37.6l-3.3,55.6l63.8,0.5V0L194.3,0.1l1.1,64.2l55.7-3.1
		c0,0-21.1,21.1-44.5,44.5C188.4,97.5,168.2,93,147,93C65.8,93,0,158.8,0,240s65.8,147,147,147S294,321.2,294,240z M147,325
		c-46.9,0-85-38.1-85-85s38-85,85-85s85,38.1,85,85S193.9,325,147,325z"/>
</g>
</svg>
