<?xml version="1.0" encoding="utf-8"?>
<!-- Generator: Adobe Illustrator 21.1.0, SVG Export Plug-In . SVG Version: 6.00 Build 0)  -->
<svg version="1.1" id="Layer_1" xmlns="http://www.w3.org/2000/svg" xmlns:xlink="http://www.w3.org/1999/xlink" x="0px" y="0px"
	 viewBox="0 0 512 512" style="enable-background:new 0 0 512 512;" xml:space="preserve">
<path d="M406.6,143.7L359,192.5l28.4,24.9H338v-77.9h-59v77.9h-20.7c-13.9-57.4-65.6-99.9-127.3-99.9c-72.3,0-131,58.7-131,131
	s58.7,131,131,131c61,0,112.2-41.6,126.8-98H279v77h59v-77h49.3l-28.3,25l47.7,47.7L512,248.5L406.6,143.7z M131,315.5
	c-37,0-67-30-67-67s30-67,67-67s67,30,67,67S168,315.5,131,315.5z"/>
</svg>
