<?xml version="1.0" encoding="utf-8"?>
<!-- Generator: Adobe Illustrator 21.1.0, SVG Export Plug-In . SVG Version: 6.00 Build 0)  -->
<svg version="1.1" id="Layer_1" xmlns="http://www.w3.org/2000/svg" xmlns:xlink="http://www.w3.org/1999/xlink" x="0px" y="0px"
	 viewBox="0 0 262 512" style="enable-background:new 0 0 262 512;" xml:space="preserve">
<path d="M164,254.2V233h77v-59h-77v-49.3l25,28.3l47.7-47.7L131.5,0L26.2,105.4L75,153l24.9-28.4V174H22v59h77.9v20.7
	C42.6,267.7,0,319.4,0,381c0,72.3,58.6,131,131,131s131-58.7,131-131C262,320,220.4,268.8,164,254.2z M131,448c-37,0-67-30-67-67
	s30-67,67-67s67,30,67,67S168,448,131,448z"/>
</svg>
