<?xml version="1.0" encoding="utf-8"?>
<!-- Generator: Adobe Illustrator 21.1.0, SVG Export Plug-In . SVG Version: 6.00 Build 0)  -->
<svg version="1.1" id="Layer_1" xmlns="http://www.w3.org/2000/svg" xmlns:xlink="http://www.w3.org/1999/xlink" x="0px" y="0px"
	 viewBox="0 0 512.3 512" style="enable-background:new 0 0 512.3 512;" xml:space="preserve">
<path d="M512.3,171.7L512.2,0L340.3-0.2l1.1,69.1l60.3-3.1l-99,99c-74.8-53.5-179.5-46.7-246.7,20.5c-74.7,74.7-74.7,196,0.1,270.7
	c74.8,74.8,196,74.8,270.8,0c67-67,74-171.2,21-245.9l99-99l-3.3,60L512.3,171.7z M281.6,410.8c-49.8,49.8-130.5,49.8-180.3,0
	s-49.8-130.5,0-180.3s130.5-49.8,180.3,0S331.4,361,281.6,410.8z"/>
</svg>
