<?xml version="1.0" encoding="utf-8"?>
<!-- Generator: Adobe Illustrator 21.1.0, SVG Export Plug-In . SVG Version: 6.00 Build 0)  -->
<svg version="1.1" id="Layer_1" xmlns="http://www.w3.org/2000/svg" xmlns:xlink="http://www.w3.org/1999/xlink" x="0px" y="0px"
	 viewBox="0 0 640 512" style="enable-background:new 0 0 640 512;" xml:space="preserve">
<path d="M621.2,128.1C590.8,75.8,527.4,64.7,473.9,64C436.7,63.6,399.1,66,363,75.2c-14.4,3.7-28.7,5.2-43,5
	c-14.3,0.2-28.7-1.3-43-5C240.9,66,203.3,63.6,166.1,64c-53.5,0.6-117,11.8-147.3,64.1C-11.4,180.3-2.6,251,26.8,301.2
	c25.3,43.2,12.4,142.6,57.5,135C139.1,427.1,263.7,320,300,275.5c7.3-8.9,13.7-13.2,20-14c6.3,0.8,12.7,5.1,20,14
	c36.3,44.5,160.9,151.6,215.8,160.7c45,7.6,32.2-91.8,57.5-135C642.6,251,651.4,180.3,621.2,128.1z M117.4,199.3
	c20.9-20.4,42.9-29.7,64.6-30.8c31.8-1.5,63,14.7,89.4,39.7C227.3,234.1,170.4,251.8,117.4,199.3z M368.5,208.3
	c26.4-25,57.6-41.2,89.4-39.7c21.7,1,43.7,10.4,64.6,30.8C469.6,251.8,412.8,234.1,368.5,208.3z"/>
</svg>
