<?xml version="1.0" encoding="utf-8"?>
<!-- Generator: Adobe Illustrator 21.1.0, SVG Export Plug-In . SVG Version: 6.00 Build 0)  -->
<svg version="1.1" id="Layer_1" xmlns="http://www.w3.org/2000/svg" xmlns:xlink="http://www.w3.org/1999/xlink" x="0px" y="0px"
	 viewBox="0 0 660 512" style="enable-background:new 0 0 660 512;" xml:space="preserve">
<path d="M636.9,512H25.1C11.8,512,1,501.2,1,487.9V25.1C1,11.8,11.8,1,25.1,1h611.9C650.2,1,661,11.8,661,25.1v462.9
	C661,501.2,650.2,512,636.9,512z M603.7,331.3c15.6-26.3,23.4-54.9,23.4-85.9c0-31-7.8-59.6-23.4-85.8s-36.9-46.9-63.8-62.3
	c-26.9-15.3-56.2-23.1-88-23.1c-38.9,0-74,11.6-105.5,34.6c27,24.4,45.3,54,54.7,89.1h-15.7c-9.4-31.3-26.5-57.6-51.2-79.2
	c-24.4,21.6-41.3,47.9-50.8,79.2h-16.1c9.4-35.1,27.9-64.9,55.2-89.1c-31.5-23-66.6-34.5-105.5-34.5c-31.8,0-61.2,7.7-88.2,23.1
	s-48.3,36.1-63.8,62.3s-23.2,54.7-23.2,85.8c0,31,7.7,59.7,23.2,85.9c15.4,26.3,36.7,47.1,63.8,62.3c27,15.2,56.4,22.9,88.2,22.9
	c38.8,0,74-11.5,105.5-34.5c-25.7-23.3-43.4-51-53.1-83h16.1c10,29,26.3,53.5,48.9,73.4c22.9-20,39.3-44.4,49.2-73.4h15.7
	c-9.4,32-27,59.7-52.7,83c31.4,23.1,66.6,34.5,105.5,34.5c31.8,0,61.1-7.6,88-22.9C566.8,378.4,588,357.5,603.7,331.3z M118.5,204
	h27.9l-14.1,82h-18l10.2-62.9L101.6,286H89.1l-1.1-62.5L76.8,286H59.9l14.1-82H100l0.8,51L118.5,204z M199.8,237.1
	c0,1.2-0.6,5.8-1.6,13.5c-3.4,21-5.3,32.8-5.5,35.4h-15l0.4-6.9c-4.4,5.4-10.8,8.1-18.9,8.1c-5,0-9.1-1.7-12.1-5
	c-3-3.3-4.5-7.6-4.5-13.1c0-8.2,2.7-14.5,8.3-19.1c5.5-4.4,13.4-6.7,23.6-6.7c2.9,0,5.4,0.1,7.5,0.4c0-0.8,0-1.4,0-1.9
	c0-0.5,0.1-0.9,0.2-1.3s0.2-0.7,0.2-0.9c0-4.1-3.8-6.1-11.4-6.1c-6.3,0-12.7,1-19.3,3.1c0-0.8,0.8-5.8,2.4-15
	c8.1-2.3,15.4-3.4,21.7-3.4C191.8,217.9,199.8,224.2,199.8,237.1z M179.3,256h-4.2c-10,0-15,3.5-15,10.4c0,4.6,2.1,6.9,6.3,6.9
	c3.7,0,6.7-1.6,9.1-4.8C177.8,265.3,179.1,261.1,179.3,256z M249.5,219.3l-2.4,15.4c-4.7-0.6-9.2-0.8-13.4-0.8c-5.8,0-8.7,1.7-8.7,5
	c0,1.8,0.5,3.1,1.4,4.1s3.2,2,6.9,3.3c8.7,4.1,13,10.4,13,18.9c0,15.2-9.3,22.5-27.9,22.4c-7.4,0-13.7-0.5-18.9-1.5
	c0-0.5,0.8-5.8,2.4-15.8c6.3,1.8,11.8,2.7,16.5,2.7c6.8,0,10.2-2.1,10.2-6.1c0-1.3-0.5-2.5-1.4-3.5s-3.2-2.3-6.9-3.9
	c-9.2-4.3-13.8-10.5-13.8-18.5c0-15.1,9-22.6,26.8-22.6C239.9,218.2,245.2,218.6,249.5,219.3z M277.8,219h9l-2.4,16h-9.1
	c-0.6,3.5-1.2,7.9-2.1,12.9c-0.9,5-1.7,9-2.1,12.1c-0.6,3.1-0.7,5-0.7,5.8c0,3.4,2,5,5.9,5c1.9,0,3.5-0.3,5.1-0.7l-2.3,15
	c-4.8,1.3-9,1.9-13,1.9c-9.2,0-14.1-4.8-14.5-14.6c0-2.5,0.9-8.4,2.8-17.6c0.6-4.1,3.2-19.3,7.8-45.7h17.7L277.8,219z M343.2,242.9
	c0,4.6-0.8,10-2.4,16.1h-35.5c-0.8,4.6,0.2,8.1,2.9,10.4c2.7,2.3,6.9,3.5,12.4,3.5c6.3,0,12.4-1.4,18.5-4.2l-2.7,16.9
	c-6.6,1.5-12.7,2.3-18.5,2.3c-20.2,0-30.4-9.9-30.4-29.6c0-11.5,2.9-21,8.9-28.5c5.9-7.5,13.3-11.1,22.3-11.1
	c7.6,0,13.6,2.2,17.9,6.5C341.1,229.5,343.2,235.4,343.2,242.9z M305.9,245H326v-0.8c0-1,0-1.8,0-2.3c0-0.6-0.1-1.2-0.2-2.1
	c-0.1-0.8-0.4-1.7-0.8-2.5s-0.9-1.5-1.6-2.2s-1.4-1.1-2.4-1.5c-0.9-0.4-2.2-0.6-3.8-0.6C311.3,233.1,307.4,237.1,305.9,245z
	 M388.1,218.6c-2.9,4.9-5.3,11.4-7.1,19.6c-4.7-0.6-8.1,2-10.1,7.5c-2,5.6-4.6,18.9-8.1,40.2h-18.1l1.2-4.2
	c4.7-27.5,7.7-48.4,9.1-62.8h16.6l-0.8,10.4c2.9-4.3,5.6-7.5,8.1-9.2C381.3,218.3,384.4,217.9,388.1,218.6z M448.4,206.2l-3.1,17.7
	c-5.8-2.8-11-4.2-15.8-4.2c-6.8,0-12.4,2.9-16.7,8.7c-4.3,5.8-6.5,13.1-6.5,22.2c0,6.1,1.5,11,4.5,14.6c3,3.6,7.2,5.4,12.4,5.4
	c4.4,0,9.5-1.2,15.4-3.9l-3.1,18.5c-6,1.5-11.4,2.3-16.1,2.3c-9.7,0-17.4-3.1-23-9.4c-5.7-6.3-8.5-14.9-8.5-25.9
	c0-14.6,3.8-26.6,11.4-35.9c7.6-9.3,17.4-14.1,29.5-14.1C434.1,202.1,440.7,203.4,448.4,206.2z M500.3,237.1c0,3.9-0.4,8.3-1.2,13.5
	c-2.9,16.4-4.7,28.2-5.5,35.4H479v-6.9c-4.1,5.4-10.5,8.1-18.9,8.1c-5,0-9-1.7-12-5c-3-3.3-4.5-7.6-4.5-13.1
	c0-8.2,2.7-14.5,8.3-19.1c5.5-4.4,13.4-6.7,23.7-6.7c3.1,0,5.5,0.1,7.1,0.4c0.6-1.5,0.8-2.9,0.8-4.2c0-4.1-3.8-6.1-11.4-6.1
	c-6.3,0-12.7,1-19.3,3.1c0-0.8,0.9-5.8,2.7-15c8.1-2.3,15.4-3.4,21.7-3.4C492.5,217.9,500.3,224.2,500.3,237.1z M480.6,256h-4
	c-10.2,0-15.4,3.5-15.4,10.4c0,4.6,2.1,6.9,6.3,6.9c3.7,0,6.7-1.6,9.1-4.8C479,265.3,480.4,261.1,480.6,256z M546,218.7
	c-3.1,5.2-5.6,11.7-7.1,19.6c-4.7-0.6-8,1.9-9.9,7.1c-1.8,5.3-4.6,18.8-8.3,40.6h-18.1l1.1-4.2c4-21.8,7-42.7,9.1-62.8h17
	c0,2.3-0.6,5.8-1.6,10.4c3.4-4.3,6.4-7.5,8.9-9.2C539.7,218.4,542.6,218,546,218.7z M591.3,204h18l-13.8,82h-17.2l1.2-5.7
	c-5,4.6-10.6,6.9-16.9,6.9c-6.6,0-11.8-2.5-15.7-7.4c-4-5-5.8-11.7-5.8-20.1c0-10.9,2.9-20.5,8.9-28.7c5.9-8.2,12.7-12.3,20.6-12.3
	c6.6,0,12.2,3,16.9,9.1L591.3,204z M583.4,248.2c0-8.5-3.3-12.7-9.9-12.7c-4.1,0-7.5,2.1-10,6.1c-2.5,4.1-3.8,9.5-3.8,16.1
	c0,8.7,3,13.1,9.1,13.1c4.1,0,7.7-2.1,10.5-6.3C582,260.2,583.4,254.8,583.4,248.2z"/>
</svg>
