<?xml version="1.0" encoding="utf-8"?>
<!-- Generator: Adobe Illustrator 21.1.0, SVG Export Plug-In . SVG Version: 6.00 Build 0)  -->
<svg version="1.1" id="Layer_2" xmlns="http://www.w3.org/2000/svg" xmlns:xlink="http://www.w3.org/1999/xlink" x="0px" y="0px"
	 viewBox="0 0 576 512" style="enable-background:new 0 0 576 512;" xml:space="preserve">
<g>
	<path d="M413.4,32.6c9.7,0,17.8,7.1,17.8,17.1c0,94.3,0,377.4,0,377.4c0,11.1-8.2,17.6-17.8,17.6c-13.9,0-29.8-30.1-32.2-33.8
		c-7.2-10.2-14.9-19.8-23.2-28.6c-24.8-27-49.8-42.7-74.9-46.9c-34.2-6.3-73.5-10.5-117.9-12.8v42.7c0,11.4-6.5,15.4-7.9,16.2
		l-8.3,24c-2.6,8.6,1.6,26,14.5,26c9.4,0,9.7,3,9.1,9l-4.1,31.6c-0.6,6-3.3,9-8.3,9H70.3c-15.6,0-14.6-8.4-13.2-18.9l19-107.5
		c1.9-10.2-5.1-28.7-18.6-32c-2.8-0.6-29.8-4.6-41.4-7.9C6.6,311.9,0,303.2,0,293.2V177.3c0-12.3,10-22.3,22.3-22.3h36.9
		c3.9-8.8,10.2-13.2,19-13.2h74.5c11.1,0,15.6,6.7,17.8,11.5c0,0,75-3.7,112.6-11.5c25-5.2,50.1-20.2,74.9-46.9
		c8.3-8.8,26.9-34.3,33.5-45.2C397.8,38.3,405.1,32.6,413.4,32.6z M461.8,282.6v-87.9c0-2.6-1-4.7-2.9-6.4c-1.9-1.7-4-2.6-6.2-2.6
		h-5.8c-2.5,0-4.6,0.9-6.2,2.6c-1.7,1.7-2.5,3.8-2.5,6.4v87.9c0,2.8,0.8,5,2.5,6.4c1.7,1.7,3.7,2.6,6.2,2.6h5.8
		c2.2,0,4.3-0.9,6.2-2.6C460.8,287.6,461.8,285.5,461.8,282.6z M482.5,117.5c-1.1,1.1-2.5,1.7-4.1,1.7c-1.9,0.3-3.6-0.3-5-1.7
		c-0.8-1.1-1.2-2.6-1.2-4.3c0-1.7,0.4-3.1,1.2-4.3l30.2-35c1.4-0.9,3-1.3,5-1.3c1.4-0.6,2.8-0.1,4.1,1.3c1.4,1.4,2.1,2.8,2.1,4.3
		c0,2-0.7,3.7-2.1,5.1L482.5,117.5z M512.7,355.1c1.4,1.4,2.1,3.1,2.1,5.1c0,1.7-0.7,3.1-2.1,4.3c-1.4,1.1-2.8,1.7-4.1,1.7
		c-1.9,0-3.6-0.9-5-2.6l-30.2-34.1c-0.8-1.1-1.2-2.6-1.2-4.3c0-1.4,0.4-2.8,1.2-4.3c1.4-1.4,3-2.1,5-2.1c1.7,0.3,3,1,4.1,2.1
		L512.7,355.1z M505.7,160.6c0-2.8,1.4-4.8,4.1-6l41.4-17.1c1.7-0.6,3.3-0.6,5,0c1.7,0.6,2.8,1.7,3.3,3.4c0.5,1.7,0.5,3.3,0,4.7
		c-0.8,1.7-1.9,2.8-3.3,3.4l-42.2,17.5c-1.4,0.6-2.9,0.4-4.6-0.4c-1.4-0.6-2.6-1.7-3.7-3.4C505.7,162.2,505.7,161.4,505.7,160.6z
		 M556.1,289.4c1.4,0.6,2.5,1.6,3.3,3c0.5,2,0.5,3.7,0,5.1c-0.6,1.4-1.7,2.6-3.3,3.4c-1.7,0.6-3.3,0.6-5,0l-41.4-17.1
		c-2.8-0.9-4.1-2.7-4.1-5.5c0-1.1,0-1.8,0-2.1c1.1-2,2.3-3.4,3.7-4.3c1.7-0.6,3.2-0.6,4.6,0L556.1,289.4z M569.8,213.1
		c1.7,0,3,0.6,4.1,1.7c1.4,1.1,2.1,2.6,2.1,4.3c0,2-0.7,3.6-2.1,4.7c-1.1,1.1-2.5,1.7-4.1,1.7h-45.5c-1.4,0-2.8-0.6-4.1-1.7
		c-1.4-1.1-2.1-2.7-2.1-4.7c0-1.7,0.7-3.1,2.1-4.3c1.4-1.1,2.8-1.7,4.1-1.7H569.8z"/>
</g>
</svg>
