<?xml version="1.0" encoding="utf-8"?>
<!-- Generator: Adobe Illustrator 22.0.1, SVG Export Plug-In . SVG Version: 6.00 Build 0)  -->
<svg version="1.1" id="Layer_2" xmlns="http://www.w3.org/2000/svg" xmlns:xlink="http://www.w3.org/1999/xlink" x="0px" y="0px"
	 viewBox="0 0 512 512" style="enable-background:new 0 0 512 512;" xml:space="preserve">
<style type="text/css">
	.st0{fill:#010101;}
</style>
<path class="st0" d="M451.4,128.5c-3.8-4.5-5.6-10.1-2.8-15.8c8.5-24.8,1.9-56.3-22.6-61.9C408,46.3,392,57.6,388.2,79
	c-0.9,3.4-0.9,7.9-1.9,12.4c-31.1,0-104.6-73.1-217.7-45C81.2,67.9,35.2,134.6,31.3,231.9C18.6,243.7,0,269.9,0,322
	c0,97,74.9,160.8,166.9,160.8c119.6,0,143.8-63.8,189.5-63.8c21.9,0,35,13.7,39.7,9.5c6.2-5.5-17.6-21.1-40.7-21.1
	c-32.2,0-76.9,56.1-185.2,56.1c-89,0-144.1-59.1-144.1-144.5c0-26.1,5.8-43.1,10.6-52.7c5.4,13.2,13.1,23.2,17,26.4
	c17.2,15,36.4,12.1,57.5,19c11,3.6,22.5,5.3,34,4.8c65.4-3.1,262.7-12.5,271.4-12.5c17.9,0,33.9,15.8,51.8,21.4
	c12.3,4.5,18.8,2.3,28.3-7.9c8.5,4.5,15.1-2.3,15.1-11.3C515.5,257.8,481.5,163.3,451.4,128.5z M427.8,223.5
	c-9.8,0-17.7-7.9-17.7-17.7c0-9.8,7.9-17.7,17.7-17.7c9.8,0,17.7,7.9,17.7,17.7C445.5,215.6,437.6,223.5,427.8,223.5z"/>
</svg>
