<?xml version="1.0" encoding="utf-8"?>
<!-- Generator: Adobe Illustrator 21.1.0, SVG Export Plug-In . SVG Version: 6.00 Build 0)  -->
<svg version="1.1" id="Layer_1" focusable="false" xmlns="http://www.w3.org/2000/svg" xmlns:xlink="http://www.w3.org/1999/xlink"
	 x="0px" y="0px" viewBox="0 0 512 512" style="enable-background:new 0 0 512 512;" xml:space="preserve">
<path d="M451.8,115V99.3h-35.6v85.9h35.6v-16.5H512v61.8h-60.2v-14.8h-35.6v85.1h35.6v-15.6H512v61.8h-60.2v-15.6h-35.6v85.1h35.6
	V401H512v61.8h-60.2v-15.6h-35.6v36.2c0,15.8-12.8,28.6-28.7,28.6h-263c-15.8,0-28.7-12.8-28.7-28.6v-36.2H60.2v15.6H0V401h60.2
	v15.6h35.8v-86H60.2v16.5H0v-61.8h60.2v14.8h35.8V215H60.2v15.6H0v-61.8h60.2v15.6h35.8V99.3H60.2V115H0V53.2h60.2v15.6h35.8V28.6
	C95.9,12.8,108.7,0,124.6,0h263c15.8,0,28.7,12.8,28.7,28.6v40.1h35.6V53.2H512V115H451.8z"/>
</svg>
