<?xml version="1.0" encoding="utf-8"?>
<!-- Generator: Adobe Illustrator 21.1.0, SVG Export Plug-In . SVG Version: 6.00 Build 0)  -->
<svg version="1.1" id="Layer_1" xmlns="http://www.w3.org/2000/svg" xmlns:xlink="http://www.w3.org/1999/xlink" x="0px" y="0px"
	 viewBox="0 0 586 512" style="enable-background:new 0 0 586 512;" xml:space="preserve">
<g id="_x35_2_1_">
	<g>
		<path d="M172.3,305.9l-37.9,37.8c-16.9-28-25.4-59.3-25.4-93.6v-40.9h51.2v40.9C160.2,270.3,164.3,288.9,172.3,305.9z"/>
		<path d="M475.2,209.3v40.9c0,46.5-15.8,87.7-46.8,122.3c-29.9,33.3-67.1,53.1-110.7,59.1v29.1h96.7V512H168.2v-51.2h98.3v-29.1
			c-20.9-2.9-40.4-8.9-58.3-18.2l39.1-39.1c14,5,28.9,7.5,44.7,7.5c36,0,67.2-13,92.9-38.7c25.6-25.7,38.6-57,38.6-93v-40.9H475.2z"
			/>
		<path d="M185,201v44c0,14.3,2.8,27.9,7.9,40.4l84.4-84.4H185z M271.7,350.1c6.6,1.3,13.4,1.9,20.3,1.9c29.5,0,56.3-12,75.7-31.3
			C387,301.3,399,274.5,399,245v-22.3L271.7,350.1z M292,0.4c-59.1,0-107,47.9-107,107V149h144.3L396,82.2
			C384.7,35.3,342.4,0.4,292,0.4z"/>
		<circle cx="258.5" cy="234.5" r="8.5"/>
		<polygon points="585.8,0 73.8,512 0.2,512 512.2,0 		"/>
	</g>
</g>
</svg>
