<?xml version="1.0" encoding="utf-8"?>
<!-- Generator: Adobe Illustrator 21.1.0, SVG Export Plug-In . SVG Version: 6.00 Build 0)  -->
<svg version="1.1" id="Layer_1" xmlns="http://www.w3.org/2000/svg" xmlns:xlink="http://www.w3.org/1999/xlink" x="0px" y="0px"
	 viewBox="0 0 366 512" style="enable-background:new 0 0 366 512;" xml:space="preserve">
<g id="_x35_2_1_">
	<g>
		<path d="M314.6,209.3v40.9c0,36-13,67.3-38.6,93c-25.6,25.7-56.9,38.7-92.8,38.7c-36,0-67.3-13-93.1-38.7
			c-25.8-25.7-38.8-57-38.8-93v-40.9H0v40.9c0,46.5,15.8,87.7,46.8,122.3c29.8,33.3,67.1,53.1,110.7,59.1v29.1H59.2V512h246.2v-51.2
			h-96.7v-29.1c43.6-6,80.8-25.8,110.7-59.1c31.1-34.6,46.8-75.8,46.8-122.3v-40.9H314.6z"/>
		<path d="M76,245c0,59.1,47.9,107,107,107c29.5,0,56.3-12,75.7-31.3C278,301.3,290,274.5,290,245v-44H76V245z M216.5,226
			c4.7,0,8.5,3.8,8.5,8.5s-3.8,8.5-8.5,8.5s-8.5-3.8-8.5-8.5S211.8,226,216.5,226z M183.5,226c4.7,0,8.5,3.8,8.5,8.5
			s-3.8,8.5-8.5,8.5s-8.5-3.8-8.5-8.5S178.8,226,183.5,226z M149.5,226c4.7,0,8.5,3.8,8.5,8.5s-3.8,8.5-8.5,8.5s-8.5-3.8-8.5-8.5
			S144.8,226,149.5,226z M183,0.4c-59.1,0-107,47.9-107,107V149h214v-41.6C290,48.3,242.1,0.4,183,0.4z"/>
	</g>
</g>
</svg>
