<?xml version="1.0" encoding="utf-8"?>
<!-- Generator: Adobe Illustrator 21.1.0, SVG Export Plug-In . SVG Version: 6.00 Build 0)  -->
<svg version="1.1" id="_x35_2_1_" xmlns="http://www.w3.org/2000/svg" xmlns:xlink="http://www.w3.org/1999/xlink" x="0px" y="0px"
	 viewBox="0 0 551.1 512" style="enable-background:new 0 0 551.1 512;" xml:space="preserve">
<g id="fill">
	<path d="M434.6,342.2c33.1,0,61.1,22.1,70,52.3h46.5l-0.3-113.6h0.1l-0.1-29.6c0-2.1-1.8-3.9-3.9-3.9s-3.9,1.8-3.9,3.9l0.1,13.4
		h-68.3v-23.2h-8.2v-5.1l48.7,22.5l32.8-70.4L270.2,59.8l3.8,33.7l-4,8.5l-75.4-36.2l-13.7,26l76.7,37l-4.2,9l88.6,40.9v33.4h-3.3
		v27.1h-4.9v25.3h-43l-28.6-23.3v-22.7l-31.5-26.4h-28.9l-0.6,64.3h-19.8l0.3-81.3h-120l-12.4,21.1v-57.3h-1.9v60.5l-4.6,7.8v-24.2
		h-5.5v33.6L5.8,270c-6.7,11-6.4,36.8,0.7,47.5l49.4,74L83,392c9.6-29,37.1-49.9,69.3-49.9c33.1,0,61.1,22.1,70,52.3l16.2,0.3v-0.3
		h126.2C373.5,364.2,401.5,342.2,434.6,342.2z M131.5,256.5c0,0-64.7-0.2-72.7,0s-7.7-4-7.7-4c0-8.6,26.9-49.3,26.9-49.3h56.5
		L131.5,256.5z M363.6,264.5v-25.3h-4.9v-27.1h-3.3v-27.2l97.7,45.1h-0.3v11.2h-8.2v23.2H363.6z"/>
	<path d="M152.1,356.3c-32.5,0-58.9,26.3-58.9,58.9s26.4,58.9,58.9,58.9s58.9-26.4,58.9-58.9S184.7,356.3,152.1,356.3z M152.1,435.7
		c-11.3,0-20.5-9.2-20.5-20.5s9.2-20.5,20.5-20.5c11.3,0,20.5,9.2,20.5,20.5C172.7,426.6,163.5,435.7,152.1,435.7z"/>
	<path d="M434.6,356.3c-32.5,0-58.9,26.3-58.9,58.9s26.4,58.9,58.9,58.9s58.9-26.4,58.9-58.9S467.1,356.3,434.6,356.3z M434.6,435.7
		c-11.3,0-20.5-9.2-20.5-20.5s9.2-20.5,20.5-20.5c11.3,0,20.5,9.2,20.5,20.5C455.1,426.6,445.9,435.7,434.6,435.7z"/>
	<polygon points="260.1,448.9 263.4,448.9 263.4,432.6 268.3,432.6 268.3,396 238.3,396 238.3,432.6 243.2,432.6 243.2,448.9 
		246.6,448.9 246.6,466.5 228.5,466.5 228.5,474.1 246.6,474.1 260.1,474.1 278.1,474.1 278.1,466.5 260.1,466.5 	"/>
	<polygon points="532.8,448.9 536.1,448.9 536.1,432.6 541,432.6 541,396 511.1,396 511.1,432.6 515.9,432.6 515.9,448.9 
		519.3,448.9 519.3,466.5 501.2,466.5 501.2,474.1 519.3,474.1 532.8,474.1 550.8,474.1 550.8,466.5 532.8,466.5 	"/>
	<path d="M152,77.9l25.3,11.7l13.3-26.4l-25.4-12.5C143.7,40,100.7,38,100.7,38S133.9,72.2,152,77.9z"/>
</g>
</svg>
