<?xml version="1.0" encoding="utf-8"?>
<!-- Generator: Adobe Illustrator 21.1.0, SVG Export Plug-In . SVG Version: 6.00 Build 0)  -->
<svg version="1.1" id="fill" xmlns="http://www.w3.org/2000/svg" xmlns:xlink="http://www.w3.org/1999/xlink" x="0px" y="0px"
	 viewBox="0 0 562.7 512" style="enable-background:new 0 0 562.7 512;" xml:space="preserve">
<g>
	<path d="M499.4,297.2c-0.1,0-0.1,0-0.2,0l0,0l-315-94.6l5.3-10.3l-4.9-1.4l-29.7,3l-27.2-8.2l-18.4,61.4l27.4,8.2l22.9,18.7
		l4.9,1.5l1.3-11.4l94.3,28.3v123.9h-80.8V460h-31.5v25.1h-24.1V512h332.9v-26.8h-24.1V460H401v-43.9h-96.2V305.6l176,52.9l0,0
		c0.1,0,0.1,0.1,0.2,0.1c2.4,0.7,8.4-12.4,13.5-29.4C499.6,312.2,501.8,297.9,499.4,297.2z M492.3,328.5c-4.2,14-8.7,25-9.9,24.7
		c-1.3-0.4,1.1-12.1,5.3-26.1s8.7-25,9.9-24.7C498.9,302.8,496.5,314.5,492.3,328.5z"/>
	<path d="M72.9,169c-18.5-5.8-50.7,2.6-67.5,7.8c-5.3,1.7-7.1,8.3-3.4,12.4c11.5,12.8,34,35.6,52.4,41.1l49.5,14.9l18.9-61.1
		L72.9,169z"/>
	<polygon points="493.3,263.5 486,261.4 453.5,278.8 498.6,292.3 	"/>
	<polygon points="504.6,251 490.9,258.6 496.2,260.2 501,284.2 512.6,252.8 	"/>
	<polygon points="450,381 457.3,383.3 477.6,362.2 432.5,348.6 	"/>
	<polygon points="452.6,386 459.8,399.9 467.5,402.8 475.2,370.3 457.9,387.6 	"/>
	<rect x="236.2" y="166.9" transform="matrix(0.9577 0.2877 -0.2877 0.9577 68.8408 -89.8201)" width="207.7" height="44.7"/>
	<path d="M549.6,130.1c-0.1,0-0.1,0-0.2,0l0,0l-315-94.6l5.3-10.3l-4.9-1.4l-29.7,3l-27.2-8.2l-18.4,61.4l27.4,8.2l22.9,18.7
		l4.9,1.5l1.3-11.4l315,94.6l0,0c0.1,0,0.1,0.1,0.2,0.1c2.4,0.7,8.4-12.4,13.5-29.4C549.8,145.2,552,130.8,549.6,130.1z
		 M542.5,161.5c-4.2,14-8.7,25-9.9,24.7c-1.3-0.4,1.1-12.1,5.3-26.1s8.7-25,9.9-24.7C549.1,135.8,546.7,147.4,542.5,161.5z"/>
	<path d="M123.1,2c-18.5-5.8-50.7,2.6-67.5,7.8c-5.3,1.7-7.1,8.3-3.4,12.4c11.5,12.8,34,35.6,52.4,41.1l49.5,14.9L173,17L123.1,2z"
		/>
	<polygon points="543.5,96.4 536.1,94.3 503.7,111.7 548.8,125.2 	"/>
	<polygon points="554.7,84 541.1,91.6 546.4,93.2 551.2,117.2 562.7,85.7 	"/>
	<polygon points="500.2,214 507.5,216.3 527.8,195.2 482.7,181.6 	"/>
	<polygon points="502.8,219 510,232.9 517.7,235.8 525.3,203.2 508.1,220.6 	"/>
</g>
</svg>
