<?xml version="1.0" encoding="utf-8"?>
<!-- Generator: Adobe Illustrator 21.1.0, SVG Export Plug-In . SVG Version: 6.00 Build 0)  -->
<svg version="1.1" id="fill" xmlns="http://www.w3.org/2000/svg" xmlns:xlink="http://www.w3.org/1999/xlink" x="0px" y="0px"
	 viewBox="0 0 520.3 512" style="enable-background:new 0 0 520.3 512;" xml:space="preserve">
<g>
	<path d="M437.7,371.9c0,0-0.1-0.1-0.2-0.1l0,0L174,117l10.5-7.5l-4.2-3.9l-30.9-12.2l-22.8-22l-49.6,51.3l23,22.2l13.2,30.2l4.1,4
		l7.1-10.7L388,423.1l0,0c0,0.1,0.1,0.1,0.1,0.2c2,1.9,14.7-8,28.4-22.2C430.2,386.9,439.7,373.8,437.7,371.9z M414.7,399.3
		c-11.3,11.7-21.4,20.4-22.5,19.3c-1.1-1,7.2-11.4,18.6-23.1c11.3-11.7,21.4-20.4,22.5-19.3C434.4,377.3,426,387.6,414.7,399.3z"/>
	<path d="M80.9,26.9C65.5,11.7,29.3,3.6,10,0.1C3.9-0.9-1.3,4.7,0.3,10.7c4.8,18.5,15.4,52.6,30.9,67.5l41.4,40.1l50-50.9L80.9,26.9
		z"/>
	<polygon points="448.9,335.4 442.7,329.6 401.7,330.2 439.4,366.7 	"/>
	<polygon points="466.4,328.8 449,329.4 453.4,333.7 446,359.9 473.5,334.7 	"/>
	<polygon points="346,429.7 352,435.7 382.9,425.1 345.2,388.7 	"/>
	<polygon points="346,436 346,453.4 352.1,460.2 376.3,431.9 350.4,440.3 	"/>
	<path d="M520.3,503.5c-26.7-23-24.9-61.6-24.9-61.6s20.9,12.7,19.6,10.7c-10.4-15.6-9.4-35.6-24-51.3
		c-12.1-13.1-45.7-11.4-51.8-8.4c34.2,22.1,16.9,29.8,31.1,54.1c0,0-10.3-6.5-15.4-11.7c-1.1,5,4.1,20.5,15.4,34.3
		c-1.5,1.5-29.6-0.5-46.9-20.2c-3.2-3.6,13.4,35,13.4,35c-21.1-5.4-29.5-33-32.4-58.2c-11.6,27.9-0.7,51.2,6.4,60.4
		c9.5,12.3,44.3,25.5,59.7,25.4c0,0-13.8-11.5-12.6-18.9C470.6,498.3,495.3,510.3,520.3,503.5z"/>
</g>
</svg>
