<?xml version="1.0" encoding="utf-8"?>
<!-- Generator: Adobe Illustrator 22.0.1, SVG Export Plug-In . SVG Version: 6.00 Build 0)  -->
<svg version="1.1" id="Layer_1" xmlns="http://www.w3.org/2000/svg" xmlns:xlink="http://www.w3.org/1999/xlink" x="0px" y="0px"
	 viewBox="0 0 303.7 512" style="enable-background:new 0 0 303.7 512;" xml:space="preserve">
<path d="M286.7,0H17C7.6,0,0,7.6,0,17v477.8c0,9.4,7.6,17.1,17,17.1h269.6c9.4,0,17-7.6,17-17.1V17C303.7,7.6,296.1,0,286.7,0z
	 M188.3,471.8c-1.6,1.6-3.8,2.6-6.2,2.6h-61c-4.8,0-8.8-3.9-8.8-8.8c0-2.4,1-4.6,2.6-6.2c1.6-1.6,3.8-2.6,6.2-2.6h61
	c4.8,0,8.8,3.9,8.8,8.8C190.9,468,189.9,470.2,188.3,471.8z"/>
</svg>
