<?xml version="1.0" encoding="utf-8"?>
<!-- Generator: Adobe Illustrator 22.0.1, SVG Export Plug-In . SVG Version: 6.00 Build 0)  -->
<svg version="1.1" id="Layer_1" xmlns="http://www.w3.org/2000/svg" xmlns:xlink="http://www.w3.org/1999/xlink" x="0px" y="0px"
	 viewBox="0 0 303.7 512" style="enable-background:new 0 0 303.7 512;" xml:space="preserve">
<path d="M272.5,0.1H30.8c-17.1,0-31,13.9-31,31V481c0,17.1,13.9,31,31,31h241.7c17.1,0,31-13.9,31-31V31.1
	C303.5,13.9,289.7,0.1,272.5,0.1z M79.6,41.4c-3.5,0-6.4-2.8-6.4-6.4s2.8-6.4,6.4-6.4c3.5,0,6.4,2.8,6.4,6.4S83.2,41.4,79.6,41.4z
	 M151.5,492.8c-17.6,0-31.9-14.3-31.9-31.9c0-17.6,14.3-31.9,31.9-31.9s31.9,14.3,31.9,31.9C183.4,478.5,169.1,492.8,151.5,492.8z
	 M184.4,41.2h-65.6c-3.5,0-6.3-2.8-6.3-6.3l0,0c0-3.5,2.8-6.3,6.3-6.3h65.6c3.5,0,6.3,2.8,6.3,6.3l0,0
	C190.7,38.4,187.9,41.2,184.4,41.2z"/>
</svg>
