<?xml version="1.0" encoding="utf-8"?>
<!-- Generator: Adobe Illustrator 22.0.1, SVG Export Plug-In . SVG Version: 6.00 Build 0)  -->
<svg version="1.1" id="Layer_1" xmlns="http://www.w3.org/2000/svg" xmlns:xlink="http://www.w3.org/1999/xlink" x="0px" y="0px"
	 viewBox="0 0 303.7 512" style="enable-background:new 0 0 303.7 512;" xml:space="preserve">
<g>
	<path d="M286.8,0H16.8C7.5,0,0,7.6,0,16.9v478.2c0,9.3,7.5,16.8,16.8,16.8h269.9c9.3,0,16.8-7.5,16.8-16.8V16.9
		C303.6,7.6,296.1,0,286.8,0z M182,484.5h-61c-4.9,0-8.8-3.9-8.8-8.8l0,0c0-4.9,3.9-8.8,8.8-8.8h61c4.9,0,8.8,3.9,8.8,8.8l0,0
		C190.8,480.5,186.9,484.5,182,484.5z M273.3,437.7H30.2V37.6h243.1V437.7z"/>
	<rect x="44.9" y="52.3" width="213.8" height="370.6"/>
</g>
</svg>
