<?xml version="1.0" encoding="utf-8"?>
<!-- Generator: Adobe Illustrator 22.0.1, SVG Export Plug-In . SVG Version: 6.00 Build 0)  -->
<svg version="1.1" id="Layer_2_1_" xmlns="http://www.w3.org/2000/svg" xmlns:xlink="http://www.w3.org/1999/xlink" x="0px" y="0px"
	 viewBox="0 0 550.2 512" style="enable-background:new 0 0 550.2 512;" xml:space="preserve">
<g>
	<path d="M0,45v102.2h549.8V45H0z M0,172.4V467h549.8V172.4H0z M42.1,271.5h121.7v40H42.1V271.5z M224.6,371.5H42.1v-40h182.5V371.5
		z M393.6,439.3C330.3,439.3,279,388,279,324.7s51.3-114.6,114.6-114.6s114.6,51.3,114.6,114.6S456.9,439.3,393.6,439.3z"/>
	<path d="M451.6,343.6c-2.2-6-6.2-11.9-12-17.5c-5.8-5.6-13.5-10.6-23.2-15l-17.2-7.7v-42c9.8,1.1,15.4,8.2,16.8,21.4h31.1
		c0-13.3-4.3-24.1-13-32.3c-8.7-8.2-20.3-12.9-35-14.1v-7.6h-17.8v7.6c-13.6,1.1-24.6,5.8-32.9,14c-8.3,8.2-12.5,18.2-12.5,29.8
		c0,9.6,3.1,18.4,9.3,26.4c6.2,8,18.2,16.2,36.1,24.4v53.5c-5.5-1.4-9.7-4.3-12.8-8.7c-3-4.4-4.5-9.5-4.5-15.4c0-0.4,0-1.1,0.1-2
		h-31.1c1.3,17.8,6.3,30.5,15.2,38s19.9,12.2,33.1,14v9.7h17.8v-9.7c17-0.4,30.5-5.2,40.5-14.4c10.1-9.2,15.1-20.5,15.1-34.1
		C454.9,355.8,453.8,349.6,451.6,343.6z M381.5,295.4c-9.5-5.6-14.2-11.9-14.2-18.9c0-8.2,4.7-13.1,14.2-14.9V295.4z M417.1,379.7
		c-4.7,4.1-10.6,6.2-17.9,6v-46.9c16.6,6.4,24.8,15.1,24.8,26.1C424.2,370.6,421.8,375.5,417.1,379.7z"/>
</g>
</svg>
