<?xml version="1.0" encoding="utf-8"?>
<!-- Generator: Adobe Illustrator 21.1.0, SVG Export Plug-In . SVG Version: 6.00 Build 0)  -->
<svg version="1.1" id="Layer_2" xmlns="http://www.w3.org/2000/svg" xmlns:xlink="http://www.w3.org/1999/xlink" x="0px" y="0px"
	 viewBox="0 0 575.9 512" style="enable-background:new 0 0 575.9 512;" xml:space="preserve">
<g id="_x37_2">
	<path d="M-0.1,0v512h576V0H-0.1z M503.9,440h-432V72h432V440z"/>
	<path d="M479.9,96v320h-384v-96.6h70.5l37.6-89.8l68.2,162.6c2.3,5.4,7.3,8.9,13.3,9.1c0.3,0,0.5,0,0.8,0c5.7,0,10.8-3,13.4-7.9
		l66.4-124.8H437c13.9,0,25.2-11.3,25.2-25.2s-11.3-25.2-25.2-25.2H336.8L290,301.9l-71.8-181.8c-2.3-5.8-7.8-9.6-14.1-9.6h0
		c-6.3,0-11.8,3.8-14.1,9.7l-57.7,148.6H95.9V96H479.9z"/>
</g>
</svg>
