<?xml version="1.0" encoding="utf-8"?>
<!-- Generator: Adobe Illustrator 21.1.0, SVG Export Plug-In . SVG Version: 6.00 Build 0)  -->
<svg version="1.1" id="Layer_1" xmlns="http://www.w3.org/2000/svg" xmlns:xlink="http://www.w3.org/1999/xlink" x="0px" y="0px"
	 viewBox="0 0 551 512" style="enable-background:new 0 0 551 512;" xml:space="preserve">
<g>
	<path d="M551,331.1c-32.7,90.8-119.3,155.6-220.9,155.6c-129.7,0-234.9-105.6-234.9-235.8c0-101.4,63.6-187.8,153.1-221.2
		l-32.1,48.1c-22.5,33.7-34.4,73.1-34.4,114.2c0,114.2,92.5,207.1,206.2,207.1c41.1,0,80.3-12,113.6-34.5L551,331.1z"/>
	<path d="M51.8,355.7l-9.6-24.3l-14.8,22l-26.9,1.4l17.8,19.5l-6.7,24.7l24.9-9.8L60,402.8l-2.4-25.6l21.1-15.9L51.8,355.7z
		 M416.9,217.2l30.2,32.1l9.1-41.5l42.7-16.3L459.6,170l-3.8-42.5l-34,28.5l-44.1-9.8l18.2,38.7l-23.9,36.4L416.9,217.2z M87.8,55.8
		L95,36.7l-20.6,6.5L57.1,31l0.4,20.1L39.4,62.7L60,68.8l6.7,19.5L79.2,72h22L87.8,55.8z"/>
</g>
</svg>
