<?xml version="1.0" encoding="utf-8"?>
<!-- Generator: Adobe Illustrator 22.0.1, SVG Export Plug-In . SVG Version: 6.00 Build 0)  -->
<svg version="1.1" id="Layer_7" xmlns="http://www.w3.org/2000/svg" xmlns:xlink="http://www.w3.org/1999/xlink" x="0px" y="0px"
	 viewBox="0 0 511.9 512" style="enable-background:new 0 0 511.9 512;" xml:space="preserve">
<path d="M512,141c-0.3-36.5-29-66.1-65.1-67.9l-1.3-15.5c3.1-1.1,5.4-4,5.4-7.5c0-3.5-2.3-6.5-5.5-7.6L444.3,28h-2.7l-1.2,14.4
	c-3.2,1.1-5.5,4-5.5,7.6c0,3.5,2.3,6.5,5.4,7.5L439,73.2c-35.6,2.3-63.8,31.7-64.1,67.8h0v56h-34c-0.8-44.5-34.7-80.9-78.2-85.5
	l-1.2-14.7c5.2-1.8,8.9-6.7,8.9-12.5c0-5.8-3.8-10.8-9-12.5l-2-23.8H255l-2,23.8c-5.3,1.8-9,6.7-9,12.5c0,5.8,3.7,10.7,8.9,12.5
	l-1.2,14.2c-47,1-84.9,39-85.7,86h-29v-56h0c-0.3-36.1-28.5-65.6-64.1-67.8l-1.3-15.6c3.1-1.1,5.4-4,5.4-7.5c0-3.5-2.3-6.5-5.5-7.6
	L70.3,28h-2.7l-1.2,14.4c-3.2,1.1-5.5,4-5.5,7.6c0,3.5,2.3,6.5,5.4,7.5l-1.3,15.5C29,74.9,0.2,104.5,0,141h0v371h38v-64.5
	c0-22.3,18.1-40.5,40.5-40.5c22.3,0,40.5,18.1,40.5,40.5V512H210v-75c0-26,21-47,47-47c13,0,24.7,5.3,33.2,13.8
	c8.5,8.5,13.8,20.3,13.8,33.2v75h92v-64.5c0-22.3,18.1-40.5,40.5-40.5c22.3,0,40.5,18.1,40.5,40.5V512H512L512,141L512,141z
	 M24.5,197H9v-12.4c0-4.3,3.5-7.8,7.8-7.8c4.3,0,7.8,3.5,7.8,7.8V197z M50.4,197h-17v-13.6c0-4.7,3.8-8.5,8.5-8.5
	c4.7,0,8.5,3.8,8.5,8.5V197z M77.4,197H58.9v-14.8c0-5.1,4.1-9.3,9.2-9.3c5.1,0,9.2,4.1,9.2,9.3V197z M103,197h-17v-13.6
	c0-4.7,3.8-8.5,8.5-8.5c4.7,0,8.5,3.8,8.5,8.5V197z M127.2,197h-15.5v-12.4c0-4.3,3.5-7.8,7.8-7.8c4.3,0,7.8,3.5,7.8,7.8V197z
	 M223.4,307H191v-25.8c0-8.9,7.2-16.2,16.2-16.2c8.9,0,16.2,7.2,16.2,16.2V307z M276.5,307H238v-30.7c0-10.6,8.6-19.3,19.3-19.3
	c10.6,0,19.3,8.6,19.3,19.3V307z M323.3,307H291v-25.8c0-8.9,7.2-16.2,16.2-16.2c8.9,0,16.2,7.2,16.2,16.2V307z M400.5,197H385
	v-12.4c0-4.3,3.5-7.8,7.8-7.8c4.3,0,7.8,3.5,7.8,7.8V197z M426.4,197h-17v-13.6c0-4.7,3.8-8.5,8.5-8.5c4.7,0,8.5,3.8,8.5,8.5V197z
	 M453.4,197h-18.5v-14.8c0-5.1,4.1-9.3,9.3-9.3c5.1,0,9.2,4.1,9.2,9.3V197z M479,197h-17v-13.6c0-4.7,3.8-8.5,8.5-8.5
	c4.7,0,8.5,3.8,8.5,8.5V197z M503.2,197h-15.5v-12.4c0-4.3,3.5-7.8,7.8-7.8c4.3,0,7.8,3.5,7.8,7.8V197z"/>
</svg>
