<?xml version="1.0" encoding="utf-8"?>
<!-- Generator: Adobe Illustrator 21.1.0, SVG Export Plug-In . SVG Version: 6.00 Build 0)  -->
<svg version="1.1" id="Layer_1" xmlns="http://www.w3.org/2000/svg" xmlns:xlink="http://www.w3.org/1999/xlink" x="0px" y="0px"
	 viewBox="0 0 450 512" style="enable-background:new 0 0 450 512;" xml:space="preserve">
<path d="M445.4,376.1h-10.5v-19.9h-34.1v19.9h-10.5c-2,0-3.7,1.7-3.7,3.7v55.1c0,2,1.7,3.7,3.7,3.7h19.2
	c-1.7,16.7-15.8,29.7-32.9,29.7c-18.2,0-33-14.8-33-33l-0.3-363.6c0-39.6-46.6-71.6-104.1-71.6c-56.5,0-102.5,31-104,69.7l-1.8,0
	l-1.4,0.1C57.8,75.5-0.3,138.2-0.3,212.6v156.1C-0.3,447.7,64,512,143,512s143.3-64.3,143.3-143.3V212.6c0-36.3-13.7-70.9-38.4-97.5
	c-24.6-26.4-58-42.5-93.9-45.2l-3.5,0c3.5-30.3,41.8-54.1,88.6-54.1c49.1,0,88.9,26.2,88.9,58.6l0,361c0,26.8,21.7,48.6,48.6,48.6
	c25.7,0,46.7-20,48.4-45.2h20.3c2,0,3.7-1.7,3.7-3.7v-55.1C449.1,377.8,447.4,376.1,445.4,376.1z M166.3,170.9
	c0,13.1-10.2,23.8-22.9,23.8c-12.6,0-22.9-10.7-22.9-23.8c0-13.1,10.3-23.8,22.9-23.8C156,147.1,166.3,157.8,166.3,170.9z"/>
</svg>
