<?xml version="1.0" encoding="utf-8"?>
<!-- Generator: Adobe Illustrator 21.1.0, SVG Export Plug-In . SVG Version: 6.00 Build 0)  -->
<svg version="1.1" id="Layer_1" xmlns="http://www.w3.org/2000/svg" xmlns:xlink="http://www.w3.org/1999/xlink" x="0px" y="0px"
	 viewBox="0 0 550 512" style="enable-background:new 0 0 550 512;" xml:space="preserve">
<g>
	<path d="M530.1,267.3l-51.5,27c-3.2,0-6.2,0.8-8.9,2.2c-2.7-1.3-5.7-2.2-8.9-2.2h-28.1c-9.6,0-17.6,6.8-19.4,15.9h-29.5v-59.4
		c0-18.2-14.7-32.9-32.9-33l-43.6-0.1v-16h137.3c8,0,14.5-6.5,14.5-14.5v-23.9c0-0.2,0-0.3,0-0.5c0-2.6-0.7-5.2-2.1-7.6l-46-75.8
		c1.6-3.1,1.7-6.9-0.3-10.1l-7.6-12.4c-0.8-1.4-2.1-2.5-3.4-3.3c-0.1-1.5-0.6-3.1-1.4-4.5l-1.9-29.8c0,0-0.7-11.5-7.6-7.4
		l-73.1,44.4c-6.9,4.2,3,10.1,3,10.1l25.7,15.6c0.8,1.4,2.1,2.5,3.3,3.3c0.1,1.5,0.6,3.1,1.4,4.5l7.6,12.4c1.9,3.2,5.4,4.9,8.9,4.9
		l25.3,41.7h-83.7V125c0-13.3-10.9-24.2-24.2-24.2H107.2c-13.3,0-24.2,10.9-24.2,24.2s10.9,24.2,24.2,24.2h142l0.3,29.6
		c0.1,7.5,3.8,14.2,9.3,18.3v20.4L33,216.9c-18.2-0.1-33,14.7-33,33v211.5c0,18.2,14.8,33,33,33h317.8c18.2,0,33-14.8,33-33V401
		h29.5c1.8,9.1,9.8,15.9,19.4,15.9H461c3.2,0,6.2-0.8,8.9-2.2c2.7,1.3,5.7,2.2,8.9,2.2l51.5,27c0,0,19.8,10.6,19.8-5.2V272.5
		C549.9,256.7,530.1,267.3,530.1,267.3z M342.6,266.8c-7.8,0-14.2-6.3-14.2-14.2s6.3-14.2,14.2-14.2c7.8,0,14.2,6.3,14.2,14.2
		C356.8,260.5,350.4,266.8,342.6,266.8z M445.8,302.6c-3.3,0-6-1.3-6-3c0-1.7,2.6-3,6-3c3.3,0,6,1.3,6,3
		C451.7,301.3,449.1,302.6,445.8,302.6z"/>
</g>
</svg>
