<?xml version="1.0" encoding="utf-8"?>
<!-- Generator: Adobe Illustrator 21.1.0, SVG Export Plug-In . SVG Version: 6.00 Build 0)  -->
<svg version="1.1" id="Layer_1" xmlns="http://www.w3.org/2000/svg" xmlns:xlink="http://www.w3.org/1999/xlink" x="0px" y="0px"
	 viewBox="0 0 512 512" style="enable-background:new 0 0 512 512;" xml:space="preserve">
<g>
	<path d="M442.6,265.4h-36.9l1.9-46.2c0.2-4.7-1.5-9.2-4.7-12.5c-3.3-3.4-7.6-5.3-12.3-5.3H17.1c-4.7,0-9,1.9-12.3,5.3
		s-4.9,7.9-4.7,12.5l7.5,163.4c1.8,39,25.8,72,59.5,86.9h0.5V512h273v-42.5h0.1c27.2-12.1,48.2-36,56.1-65.5h45.9
		c38.2,0,69.3-31.1,69.3-69.3C511.9,296.5,480.8,265.4,442.6,265.4z M442.6,370.1h-41.9l3.4-70.8c0.2,0,0.5,0,0.7,0h37.8
		c19.5,0,35.4,15.9,35.4,35.4C477.9,354.2,462.1,370.1,442.6,370.1z"/>
	<path d="M248.2,179.1c-2.7,1.6-5.6,2.3-8.5,2.3c-5.7,0-11.3-2.9-14.4-8.2c-4.7-7.9-2.1-18.2,5.9-22.9c9.3-5.5,15.7-15.6,17.6-27.8
		c2-12.7-1.3-25.3-8.8-33.7c-0.1-0.1-0.1-0.2-0.2-0.2c-1.8-2.1-3.6-4.2-5.4-6.3c-15.5-17.7-31.4-36.1-36-62.8
		c-1.6-9.1,4.5-17.7,13.6-19.3s17.7,4.5,19.3,13.6c3,17.5,14.7,30.9,28.3,46.5c1.8,2.1,3.7,4.2,5.5,6.4c14,15.8,20.3,38.6,16.8,61
		C278.3,149.8,266.1,168.5,248.2,179.1z"/>
	<path d="M196.3,141.4c-5.5,14.2-15.4,27.2-27.7,36.6c-3,2.3-6.6,3.4-10.1,3.4c-5,0-10-2.3-13.3-6.6c-5.6-7.3-4.2-17.8,3.2-23.4
		c7.4-5.7,13.5-13.7,16.8-22.1c6.5-16.8,0.3-33.5-20.6-55.9c-14.9-15.9-24.4-34.6-27.5-54.1c-1.5-9.1,4.8-17.7,13.9-19.1
		c9.1-1.5,17.7,4.8,19.1,13.9c2.1,13.1,8.4,25.4,18.9,36.5C179.9,62.3,213.2,97.9,196.3,141.4z"/>
</g>
</svg>
