<?xml version="1.0" encoding="utf-8"?>
<!-- Generator: Adobe Illustrator 21.1.0, SVG Export Plug-In . SVG Version: 6.00 Build 0)  -->
<svg version="1.1" id="Layer_1" xmlns="http://www.w3.org/2000/svg" xmlns:xlink="http://www.w3.org/1999/xlink" x="0px" y="0px"
	 viewBox="0 0 512 512" style="enable-background:new 0 0 512 512;" xml:space="preserve">
<style type="text/css">
	.st0{fill:#010101;}
</style>
<g>
	<g>
		<circle cx="62" cy="451" r="62"/>
	</g>
	<g>
		<circle cx="450" cy="451" r="62"/>
	</g>
	<g>
		<circle cx="256" cy="451" r="62"/>
	</g>
	<path class="st0" d="M192.4,119.5c0-10.9,1.5-25.7,4.5-44.5h-61.3c-6.3,15.2-9.9,30-10.9,44.5H192.4z M124.7,142.3
		c1,14.2,4.9,28.9,11.9,44h61.3c-2.3-9.6-4.1-24.2-5.4-44H124.7z M202.3,51.8c5.3-21.8,13.5-38.7,24.7-51
		c-32.6,7.9-58.5,24.9-77.7,51H202.3z M149.4,209.1c19.5,27,45.3,43.9,77.7,50.5c-9.6-10.6-17.8-27.4-24.7-50.5H149.4z M215.2,142.3
		c1.3,20.1,2.8,34.8,4.5,44h71.7c3-17.1,4.5-31.8,4.5-44H215.2z M296.8,119.5c-1.3-20.4-2.6-35.3-4-44.5h-72.2
		c-1.3,8.2-2.3,15.3-3,21.3c-1,8.2-1.5,16-1.5,23.2H296.8z M286.4,51.8c-4.3-13.9-9.2-24.6-14.8-32.2c-5.3-7.6-10.4-11.4-15.3-11.4
		c-5.3,0-10.6,3.8-15.8,11.4c-5.6,7.6-10.4,18.3-14.3,32.2H286.4z M226.1,209.1c4,13.5,8.7,24.1,14.3,31.7
		c5.3,7.6,10.6,11.4,15.8,11.4c4.9,0,10.1-3.8,15.3-11.4c5.6-7.6,10.6-18.1,14.8-31.7H226.1z M362.6,51.8
		c-19.1-27.4-45-44.4-77.7-51c9.2,9.9,17.6,26.9,25.2,51H362.6z M310.2,209.1c-5.6,21.4-14,38.3-25.2,50.5
		c32.7-7.9,58.5-24.7,77.7-50.5H310.2z M314.1,74c1.3,8.9,2.3,16.2,3,21.8c1,8.2,1.5,15.8,1.5,22.8h67.8c-1-14.5-4.9-29.3-11.9-44.5
		H314.1z M319.6,142.3c0,10.6-1.5,25.2-4.5,44H377c5.9-16.2,9.4-30.8,10.4-44H319.6z"/>
	<path d="M358.1,258.8c-5.6,5.1-11.6,9.7-17.9,14l75.3,108.7l18.3-12.9L358.1,258.8z M256,293.2c-3.6,0-7.1-0.1-10.6-0.4v81h22.8
		v-81.1C264.1,293.1,260.1,293.2,256,293.2z M155.1,259.8l-77,108.7l18.3,12.9l76.6-107.8C166.8,269.5,160.8,264.8,155.1,259.8z"/>
</g>
</svg>
