<?xml version="1.0" encoding="utf-8"?>
<!-- Generator: Adobe Illustrator 21.1.0, SVG Export Plug-In . SVG Version: 6.00 Build 0)  -->
<svg version="1.1" id="Layer_2" xmlns="http://www.w3.org/2000/svg" xmlns:xlink="http://www.w3.org/1999/xlink" x="0px" y="0px"
	 viewBox="0 0 549.9 512" style="enable-background:new 0 0 549.9 512;" xml:space="preserve">
<g>
	<g>
		<path d="M71.5,43l-0.1,169H0v205.7c0,28.5,22.6,51.4,51.4,51.4h467c20.3,0,31.6-16.9,31.6-37.8L550,43.1L71.5,43z M54.7,426.9
			c-9.1,0-16.5-7.4-16.5-16.6c0-15.6,0-157.6,0-157.6h33c0,0,0,142.1,0,157.7C71.3,419.6,63.9,426.9,54.7,426.9z M136.6,131.8h130.7
			V170H136.6V131.8z M136.6,203.8h130.7V242H136.6V203.8z M136.6,275.8h130.7V314H136.6V275.8z M489.2,385.9H136.6v-38.2h352.5
			V385.9z M489.2,314.7H307V139.1h182.1V314.7z M451,177.3H345.2v99.2H451V177.3z"/>
	</g>
</g>
</svg>
