<?xml version="1.0" encoding="utf-8"?>
<!-- Generator: Adobe Illustrator 21.1.0, SVG Export Plug-In . SVG Version: 6.00 Build 0)  -->
<svg version="1.1" id="Layer_1" xmlns="http://www.w3.org/2000/svg" xmlns:xlink="http://www.w3.org/1999/xlink" x="0px" y="0px"
	 viewBox="0 0 482 512" style="enable-background:new 0 0 482 512;" xml:space="preserve">
<g id="fill">
	<path d="M481.7,423v77.8l-2.8,2.3c-0.5,0.4-11.5,9.2-29.9,9.2c-7.8,0-16-3.3-24.8-6.7c-10-3.9-21.3-8.4-33-8.4
		c-5.5,0-12.2,3.1-19.3,6.4c-8.7,4.1-18.6,8.7-29.2,8.7c-10.1,0-19.8-4-29.2-7.9c-9-3.7-17.5-7.2-25.6-7.2c-7.2,0-15.1,3.4-23.5,6.9
		c-9.5,4-19.4,8.2-29.9,8.2c-10.3,0-19.8-4.2-29-8.3c-8-3.5-15.6-6.9-22.4-6.9c-7.9,0-16.1,3.5-24.8,7.2c-9.2,3.9-18.7,7.9-28.6,7.9
		c-11.6,0-22.5-4.6-32.2-8.6c-7.9-3.3-15.4-6.5-21.7-6.5c-9.6,0-18,4.1-26.1,8.1c-7.4,3.6-14.4,7-21.9,7c-17.9,0-31.5-8.3-32.1-8.7
		l-3.6-2.2v-75.8l11.1,6.2c0.3,0.1,12.4,6.6,28,6.6c3.7,0,8.6-2.7,13.9-5.5c7.9-4.3,17.6-9.5,29.6-9.5c9.4,0,18.8,3.9,27.8,7.6
		c8.9,3.7,18.2,7.5,27,7.5c7.1,0,14.4-3.2,22.1-6.7c8.9-3.9,19-8.4,30.3-8.4c9.7,0,19.6,4.1,29.2,8c8.4,3.5,17.1,7,24.1,7
		c7.5,0,15.5-3.4,24-7c9.4-4,19.1-8.1,29.3-8.1c11.2,0,21.6,4.2,31.6,8.3c8.5,3.5,16.6,6.8,23.7,6.8c8,0,16.5-3.8,24.8-7.4
		c8.6-3.8,17.5-7.7,26.6-7.7c13.2,0,24.8,5,34.9,9.4c6.7,2.9,13,5.7,17.4,5.7c13.6,0,21.5-5.9,21.6-6L481.7,423z"/>
	<path d="M469.7,331c-0.3,0.2-8,5.9-21.2,5.9c-4.3,0-10.5-2.7-17.1-5.6c-10-4.3-21.4-9.3-34.4-9.3h-0.6l-0.6,0.1
		c-1.1,0.2-2.5,0.5-4,0.9c-1.2,0.3-3.3,0.8-4.2,0.9c-9.8-1.2-87.8-36.5-121.2-85.9c-13.6-20.1-17.7-39.7-12.1-58.1
		c4-13.1,10.5-20.3,20.1-22.1c21.6-4,52.1,18.6,62.4,27.8c6.6,6.6,19.7,3.9,11.7-9.6c-0.7-1.2-1.5-2.6-2.3-3.9
		c-7.2-12.3-19.3-32.9-39.2-47.5c-24.9-18.2-53.8-20.9-86-8c-43.3,17.4-54.8,47.7-56.9,70c-2.4,25.8,6.7,56.1,25.5,85.5
		c13.6,21.3,31.6,41,51.9,57.1c-3.8-0.1-7.9-0.1-12.3,0.1c-52.9-31.8-88.5-84.9-94.4-124.3c-7.4-49.3,21.4-84.6,38.5-96.4
		c36.6-25.3,99.6-28.4,137.6-6.8c6.4,3.7,12.6,7.7,18.1,11.3c4.4,2.9,8.2,5.4,11.3,7.1c2.9,1.6,8.8,4.9,13.8,1.2
		c5.1-3.8,2.7-10,1.7-12.6c-3.6-9.5-20.1-39.8-52-66.3c-38.3-31.9-84.6-46.2-134-41.5c-45,4.3-86.5,27.2-116.9,64.6
		c-28.5,35-43,78.8-39.8,124.9c4.2,60.5,24.9,95.2,57.6,133.1c-7,1.9-13.1,5.1-18.3,8c-5.2,2.8-10,5.4-13.6,5.4
		c-15.4,0-27.2-6.4-27.5-6.5l-11.1-6.2v74.9l3.6,2.2c0.6,0.3,14,8.5,31.7,8.5c7.4,0,14.3-3.4,21.5-6.9C64.8,399,73,395,82.4,395
		c6.1,0,13.5,3.1,21.3,6.3c9.5,4,20.2,8.5,31.7,8.5c9.7,0,19.1-4,28.2-7.8c8.6-3.6,16.6-7,24.3-7c6.7,0,14.1,3.3,22,6.7
		c9.1,4,18.5,8.1,28.6,8.1c10.4,0,20.1-4.1,29.4-8.1c8.2-3.5,16-6.8,23.1-6.8c8,0,16.3,3.4,25.2,7.1c9.3,3.8,18.9,7.8,28.8,7.8
		c10.5,0,20.2-4.5,28.7-8.5c7-3.2,13.5-6.3,18.9-6.3c11.5,0,22.6,4.4,32.4,8.2c8.6,3.4,16.8,6.6,24.4,6.6c18.1,0,29.1-8.7,29.5-9.1
		l2.8-2.3V337l0.1-15.4L469.7,331z"/>
</g>
</svg>
