<?xml version="1.0" encoding="utf-8"?>
<!-- Generator: Adobe Illustrator 21.1.0, SVG Export Plug-In . SVG Version: 6.00 Build 0)  -->
<svg version="1.1" id="Layer_1" xmlns="http://www.w3.org/2000/svg" xmlns:xlink="http://www.w3.org/1999/xlink" x="0px" y="0px"
	 viewBox="0 0 550 512" style="enable-background:new 0 0 550 512;" xml:space="preserve">
<path d="M520.6,414.2l-0.1-67.4l-35-47.1l-18,1.4c10.1-33.5,29-100.8,43.6-175.9c-46,2.1-82.4,14.1-111.3,31.1
	c0.2-24.7-0.6-49.3-3.3-71.5c-22.3,7.7-42.4,17.5-60.5,28.9c0.2-32.2-0.6-64.9-2.6-95.8c-41.5,28.5-73.4,63.9-98,100.6
	c-7.4-14.6-15.6-28.6-24.5-41.4c-9.7,6.7-18.9,13.8-27.4,21.2c-6.9-30.6-14.9-58.7-24-80.3c-44.7,48.2-70.1,116.7-84.6,176.7
	c-8.9-3.7-17.7-5.8-25.6-6.5c-2.7,9.2-5.2,18.8-7.6,28.3c-2.8-0.3-5.6-0.4-8.3-0.4C14.2,253,0,323.6,0,323.6L1.1,493h547.7l1.2-78.8
	H520.6z M487.8,338.5l14.1,18.6v57.2h-29.4v-46.4L487.8,338.5z M452.6,367.9v47.9h-22.8v-26.3H411v26.3h-39.9v-24.7h-19.9v24.7
	h-40.1v-41.7c0,0,32.9-14.4,49.3-21.6c34.8,0,45.7,0,80.6,0C444.4,357.6,452.6,367.9,452.6,367.9z M476.6,161.2l-28.2,120.6h-42.8
	l-12.7-8C392.9,273.8,413.8,222.4,476.6,161.2z M369,131.6c0,0,5.4,21.7,6.1,37.5l-14.6-12.5c0,0-23.7,31.5-48.7,85.4
	C312.7,239.6,340.6,164,369,131.6z M297.4,75.1c4,22.4,7,86.7,7,86.7L275.3,127l-9.6,9.3C279.2,100.9,297.4,75.1,297.4,75.1z
	 M255.3,148c16.7,29.6,36.9,109.6,43.3,144.9l-42.1,4.1l-136.4,4.3C136.6,257.1,216.8,177.2,255.3,148z M184.6,122.8
	c6.7,10.9,12.8,22.5,18.6,34.2c-29.4,20.6-77.4,84.4-113,131.4c2.2-6.2,15.3-44.5,18-51.2C127.3,190.7,152.9,152.4,184.6,122.8z
	 M140,68.8c5.9,17.3,11.4,36.6,16.5,56.5C105.1,183.6,81.8,253.5,72,292.9C77.3,242.8,93.2,143.1,140,68.8z M127.9,364.8l-1.2,50.9
	h-68v-50.9H39.9v50.9H19.9c0,0,0-52.5,0-78.8c9-3.1,18-6.2,27-9.3c22.5-6,46.7,8.7,65.7,12.3c14,2.7,17.2-13.6,29.4-12.3
	c55.2,5.9,149.1,46.3,149.1,46.3v41.7H146.7v-49.4L127.9,364.8z M528.9,463.3H21.1v-16.3h507.8V463.3z"/>
</svg>
