<?xml version="1.0" encoding="utf-8"?>
<!-- Generator: Adobe Illustrator 21.1.0, SVG Export Plug-In . SVG Version: 6.00 Build 0)  -->
<svg version="1.1" id="Layer_8" xmlns="http://www.w3.org/2000/svg" xmlns:xlink="http://www.w3.org/1999/xlink" x="0px" y="0px"
	 viewBox="0 0 422.6 512" style="enable-background:new 0 0 422.6 512;" xml:space="preserve">
<path d="M380.2,173.5l0.4,0.2l31.7-61.8l-20.2-11.2c20.8-18.1,25.9-49,10.9-73.1C386.4,0.9,351.2-7.3,324.5,9.4
	c-14.6,9.1-23.6,23.7-26.1,39.5L280.5,39l-28,54.1c-13.4-2.7-27.2-4.1-41.4-4.1C86.5,89,0,192.2,0,300.3C0,423.2,99.9,512,211.1,512
	c116.8,0,211.5-94.7,211.5-211.5C422.6,252.8,406.8,208.9,380.2,173.5z M374.4,91L316,58.6c-0.3-13.2,6.2-26.2,18.2-33.7
	c18.1-11.3,42-5.8,53.3,12.4c11.3,18.1,5.8,42-12.4,53.3C374.9,90.7,374.7,90.9,374.4,91z"/>
</svg>
