<?xml version="1.0" encoding="utf-8"?>
<!-- Generator: Adobe Illustrator 21.1.0, SVG Export Plug-In . SVG Version: 6.00 Build 0)  -->
<svg version="1.1" id="Layer_2" xmlns="http://www.w3.org/2000/svg" xmlns:xlink="http://www.w3.org/1999/xlink" x="0px" y="0px"
	 viewBox="0 0 550 512" style="enable-background:new 0 0 550 512;" xml:space="preserve">
<g>
	<path d="M139.8,319.9H130l6.9,6.9h9.8L139.8,319.9z M137.2,339l-6.9,6.9h9.9l6.9-6.9H137.2z M148.8,302.2v9.7l6.1,6.1v-9.7
		L148.8,302.2z M148.8,355v9.6l6.1-6.1v-9.6L148.8,355z M167.9,309v9.7l6.9-6.9v-9.7L167.9,309z M167.9,348v9.8l6.9,6.9v-9.8
		L167.9,348z M186.1,339.8h-9.8l6.9,6.9h9.8L186.1,339.8z M183.1,320.7l-6.9,6.9h9.9l6.9-6.9H183.1z M208.6,296.5L195.1,310h17.8
		C211.3,305.6,209.8,301.1,208.6,296.5z M214.5,314.4L202,326.8h17.8C217.9,322.7,216.1,318.6,214.5,314.4z M214.5,314.4L202,326.8
		h17.8C217.9,322.7,216.1,318.6,214.5,314.4z M213.7,180.4l5.6,2C217.4,181.7,215.6,181,213.7,180.4z M208.6,296.5L195.1,310h17.8
		C211.3,305.6,209.8,301.1,208.6,296.5z M176.2,327.6h9.9l6.9-6.9h-9.9L176.2,327.6z M176.3,339.8l6.9,6.9h9.8l-6.9-6.9H176.3z
		 M167.9,357.8l6.9,6.9v-9.8l-6.9-6.9V357.8z M167.9,318.7l6.9-6.9v-9.7l-6.9,6.9V318.7z M148.8,364.7l6.1-6.1v-9.6l-6.1,6.1V364.7z
		 M148.8,311.8l6.1,6.1v-9.7l-6.1-6.1V311.8z M130.3,345.9h9.9l6.9-6.9h-9.9L130.3,345.9z M146.7,326.8l-6.9-6.9H130l6.9,6.9H146.7z
		 M208.6,296.5L195.1,310h17.8C211.3,305.6,209.8,301.1,208.6,296.5z M214.5,314.4L202,326.8h17.8
		C217.9,322.7,216.1,318.6,214.5,314.4z M183.1,320.7l-6.9,6.9h9.9l6.9-6.9H183.1z M186.1,339.8h-9.8l6.9,6.9h9.8L186.1,339.8z
		 M167.9,348v9.8l6.9,6.9v-9.8L167.9,348z M167.9,309v9.7l6.9-6.9v-9.7L167.9,309z M148.8,355v9.6l6.1-6.1v-9.6L148.8,355z
		 M148.8,302.2v9.7l6.1,6.1v-9.7L148.8,302.2z M137.2,339l-6.9,6.9h9.9l6.9-6.9H137.2z M139.8,319.9H130l6.9,6.9h9.8L139.8,319.9z"
		/>
	<path d="M285,395c-0.1-0.1-0.2-0.1-0.3-0.2c-46.3-33.1-76.4-87.2-76.4-148.4c0-22.4,4-43.9,11.5-63.8l-0.4-0.1l-5.6-2
		c-16.1-5.5-33.6-8.5-52.2-8.5c-10.8,0-21.4,1.1-31.6,3.1l-21.4-41.3l-13.7,7.6c-1.9-12.1-8.8-23.2-19.9-30.1
		C54.5,98.4,27.6,104.7,15,125c-11.4,18.4-7.6,42,8.3,55.8l-15.4,8.5l24.2,47.2l0.3-0.2C12.1,263.4,0,296.9,0,333.3
		c0,89.1,72.3,161.4,161.4,161.4c60.3,0,116.2-34.2,143.5-87.6C298,403.5,291.3,399.4,285,395z M36.8,173.4
		c-0.2-0.1-0.4-0.2-0.5-0.3c-13.9-8.6-18.1-26.9-9.5-40.7c8.6-13.9,26.9-18.1,40.7-9.5c9.2,5.7,14.1,15.6,13.9,25.7L36.8,173.4z
		 M241.9,383.3h-22l14.3,14.6v0.1l-8.5,8.6L211.4,392v22.6h-10.7v-33L185.5,366l-0.1,24l-17.5-17.3v26.9l22.5,22.6l-7.6,7.5
		l-15-15.1v15.2h-13V414l-15.9,15.9l-7.5-7.5l23.3-23.3v-25.5l-16.8,16.8v-24.4l-13.7,13.5v32.9h-9.9v-22.6l-16.7,16.7l-8.7-8.7
		l16.7-16.7H83.1v-10.7h33.3l13.7-13.7h-25.2l17.6-17.5H94.9l-23.3,23.3l-7.6-7.5L79.8,339H64.1v-12.2h16.1l-16-16l7.6-7.6
		l23.5,23.6h26.9l-17.5-17.6h23.7l-13-13H83.1v-10.7h22.5L89,269l8.1-8l16.6,16.6v-23.2h10.7v33l13.7,13.5v-24l16.8,16.6v-25.7
		l-23.5-23.3l7.6-7.5l15.9,15.9v-15.9h13v15.1l15.2-15.1l7.5,7.5l-22.6,22.6v27.3l17.6-17.5v24.6l15.3-15.6v-32.9h1.2
		c0.5,15.1,2.8,29.7,6.6,43.7c1.3,4.6,2.7,9.1,4.3,13.5c0.5,1.5,1,2.9,1.6,4.3c1.6,4.2,3.4,8.4,5.3,12.5c2.1,4.4,4.3,8.7,6.8,13
		h-25.4l17.5,17.5h-24.6l15.3,15.3h32.6V383.3z"/>
	<path d="M517.6,148.9l0.3,0.2l24.2-47.2l-15.4-8.6c15.9-13.8,19.8-37.4,8.3-55.8c-12.7-20.4-39.5-26.6-59.9-13.9
		c-11.1,7-18,18.1-19.9,30.2l-13.7-7.6l-21.4,41.3c-10.2-2.1-20.8-3.1-31.6-3.1c-95,0-161.1,78.7-161.1,161.3
		c0,93.8,76.2,161.5,161.1,161.5c89.1,0,161.4-72.3,161.4-161.4C550,209.4,537.9,175.9,517.6,148.9z M478.4,274.8l-23.3-23.3h-27.6
		l17.5,17.5h-25.2l13.7,13.7h33.3v10.7h-22.7l16.7,16.7l-0.1,0.1l-8.6,8.6l-16.7-16.7v22.6h-9.9v-32.9l-13.7-13.5v24.4l-16.8-16.8
		v25.5l23.3,23.4l-7.5,7.5l-15.9-15.9v15.9h-13v-15.2l-14.9,15.1l-7.6-7.5l22.5-22.6v-26.9l-17.5,17.3l-0.1-24l-15.3,15.6v33h-10.7
		v-22.6l-14.4,14.6l-8.5-8.6v-0.1l14.3-14.6h-22v-10.7h32.6l15.3-15.3h-24.6l17.5-17.6h-26.4l-23,23l-7.5-7.5l0.2-0.2l15.4-15.3
		h-15.4v-13h15.6l-15.6-15.5l7.4-7.4l23,22.9H348l-16.8-16.8h23.7l-15.3-15.3h-32.4v-10.7h22.7L315.3,182l8.7-8.6l14.6,14.6v-22.7
		h10.7v32.9l15.3,15.6v-24.6l17.5,17.5v-27.3l-22.6-22.6l7.5-7.5l15.2,15.1v-15.1h13v16l15.9-15.9l7.5,7.5l-23.5,23.3v25.7
		l16.8-16.6v24l13.7-13.5v-33h10.7v23.2l16.6-16.6l8.1,8l-16.6,16.6h22.5v10.7h-32.2l-13,13h23.7l-17.5,17.6h26.9l23.5-23.6l7.6,7.5
		l-16,16h16.1v12.2h-15.7l15.8,15.7L478.4,274.8z M513.2,86l-44.6-24.7c-0.2-10.1,4.7-20,13.9-25.7c13.8-8.6,32.1-4.4,40.7,9.5
		c8.6,13.8,4.4,32.1-9.5,40.7C513.6,85.7,513.4,85.9,513.2,86z M403.3,239.4h9.8l6.9-6.9h-9.8L403.3,239.4z M402.9,251.6l6.9,6.9
		h9.9l-6.9-6.9H402.9z M395.1,271.1l6.1,6.1v-9.6l-6.1-6.1V271.1z M395.1,230.5l6.1-6.1v-9.7l-6.1,6.1V230.5z M375.2,277.2l6.9-6.9
		v-9.8l-6.9,6.9V277.2z M375.2,224.4l6.9,6.9v-9.7l-6.9-6.9V224.4z M357,233.2l6.9,6.9h9.9l-6.9-6.9H357z M357.1,259.2h9.8l6.9-6.9
		h-9.8L357.1,259.2z"/>
</g>
</svg>
