<?xml version="1.0" encoding="utf-8"?>
<!-- Generator: Adobe Illustrator 21.1.0, SVG Export Plug-In . SVG Version: 6.00 Build 0)  -->
<svg version="1.1" id="Layer_2" xmlns="http://www.w3.org/2000/svg" xmlns:xlink="http://www.w3.org/1999/xlink" x="0px" y="0px"
	 viewBox="0 0 550 512" style="enable-background:new 0 0 550 512;" xml:space="preserve">
<style type="text/css">
	.st0{fill:#040202;}
</style>
<g>
	<path class="st0" d="M207.7,246c0-22.6,4.1-44.2,11.7-64.1c-17.7-6.8-37.1-10.5-57.9-10.5c-10.8,0-21.4,1.1-31.6,3.1l-21.4-41.3
		l-13.7,7.5c-1.9-12-8.8-23.2-19.9-30.1c-20.4-12.7-47.2-6.5-59.9,13.9c-11.4,18.4-7.6,42,8.3,55.8l-15.4,8.5L32.1,236l0.3-0.2
		C12.1,262.9,0,296.4,0,332.8c0,89.1,72.3,161.4,161.4,161.4c60.2,0,116.1-34.1,143.5-87.5C247.1,376.3,207.7,315.8,207.7,246z
		 M36.8,172.9c-0.2-0.1-0.4-0.2-0.5-0.3c-13.9-8.6-18.1-26.9-9.5-40.7c8.6-13.9,26.9-18.1,40.7-9.5c9.2,5.7,14.1,15.6,13.9,25.7
		L36.8,172.9z"/>
	<path class="st0" d="M517.6,148.4l0.3,0.2l24.2-47.2l-15.4-8.5c15.9-13.8,19.8-37.4,8.3-55.8c-12.7-20.4-39.5-26.6-59.9-13.9
		c-11.1,6.9-18,18.1-19.9,30.1l-13.7-7.6L420.2,87c-10.2-2.1-20.8-3.1-31.6-3.1c-95,0-161.1,78.7-161.1,161.3
		c0,93.8,76.2,161.6,161.1,161.6c89.1,0,161.4-72.3,161.4-161.4C550,208.9,537.9,175.4,517.6,148.4z M482.5,35
		c13.8-8.6,32.1-4.4,40.7,9.5c8.6,13.8,4.4,32.1-9.5,40.7c-0.2,0.1-0.3,0.2-0.5,0.3l-44.6-24.7C468.4,50.6,473.4,40.7,482.5,35z"/>
</g>
</svg>
