<?xml version="1.0" encoding="utf-8"?>
<!-- Generator: Adobe Illustrator 21.1.0, SVG Export Plug-In . SVG Version: 6.00 Build 0)  -->
<svg version="1.1" id="Layer_1" xmlns="http://www.w3.org/2000/svg" xmlns:xlink="http://www.w3.org/1999/xlink" x="0px" y="0px"
	 viewBox="0 0 484 512" style="enable-background:new 0 0 484 512;" xml:space="preserve">
<path d="M483.3,155.8L483.3,155.8c-0.8-24.9-10.4-47.8-25.9-65.3s-37-29.7-61.4-33.4l-0.5-0.1H383c-2-33.1-16.5-57-53.7-57H57
	C9.8,0.1,1.4,38.4,1.4,85.7c0,47.2,8.3,85.6,55.6,85.6h2v29c0,5,4.5,9,10,9s10-4,10-9v-29h10v2c0,5,4.4,9,10,9s10-4,10-9v-2h10v20
	c0,5,4.4,9,10,9c5.6,0,10-4,10-9v-20h8c2.4,3,3.8,6.8,3.8,10.9v9.3c0,2,0.9,4.1,2.3,5.5c1.8,1.8,4.1,2.6,6.4,2.3
	c4.1-0.3,7.6-4.1,7.6-8.8v-13.9c0-1.9,0.3-3.6,0.8-5.3h56.9c0.4,1.3,0.6,2.6,0.6,4c0,3.8,2.3,8.2,7.3,8.2h2.3c2.3,0,4.4-0.9,5.8-2.3
	c1.5-1.5,2.3-3.5,2.3-5.5c0-1.5,0.3-3,0.6-4.3h47.4c0.5,1.6,0.7,3.3,0.7,5v1.2c0,3.2,2.9,6.1,6.1,6.1c3.5,0,6.1-2.6,6.1-6.1v-0.3
	c0-2.1,0.4-4.1,1-5.9h24c37.3,0,50.6-23.3,53.8-57.2H394c10.9,2.4,20,8.3,26.5,16.5c6.6,8.3,10.5,18.7,10.5,29.8
	c0,3.1-0.3,6.2-0.9,9.4c-2.2,11-8.2,20.4-16.3,27.1c-8.2,6.7-18.5,10.6-29.7,10.6H247c-19.5,0-37.1,7.9-49.9,20.7
	c-12.7,12.7-20.6,30.4-20.6,49.8v14.5H154c-2.8,0-5.5,0.6-8,1.6c-3.7,1.6-6.8,4.2-9,7.4c-2.2,3.3-3.5,7.2-3.5,11.5v184.1
	c0,8.5,6.9,15.5,15.5,15.5h110c8.5,0,15.5-6.9,15.5-15.5V313c0-2.8-0.6-5.5-1.6-8c-1.6-3.7-4.2-6.8-7.4-9c-3.3-2.2-7.2-3.5-11.5-3.5
	h-21.5v-15.2c0-2.1,0.4-4,1.2-5.8c1.1-2.6,3-4.9,5.4-6.5s5.2-2.5,8.2-2.5h137.1h0.1c27.7-0.9,52.4-12.9,70.2-31.5
	c17.8-18.6,28.7-43.9,28.7-71.6C483.4,158.2,483.3,157,483.3,155.8z"/>
</svg>
