<?xml version="1.0" encoding="utf-8"?>
<!-- Generator: Adobe Illustrator 21.1.0, SVG Export Plug-In . SVG Version: 6.00 Build 0)  -->
<svg version="1.1" id="Layer_1" xmlns="http://www.w3.org/2000/svg" xmlns:xlink="http://www.w3.org/1999/xlink" x="0px" y="0px"
	 viewBox="0 0 488.5 512" style="enable-background:new 0 0 488.5 512;" xml:space="preserve">
<path d="M463.6,235.2c-1-1.8-38-65.7-70.5-122.2c-25.5-44.2-48.6-84.2-50.5-87.4c-4.6-8-12-13.7-20.9-16.1c-9-2.4-18.3-1.2-26.3,3.4
	c-16.5,9.5-22.2,30.7-12.7,47.2c69.7,120.7,118.9,205.9,121,209.6c31.7,55,12.8,125.6-42.2,157.4c-55,31.7-125.6,12.8-157.4-42.2
	c-0.1-0.2-4.6-7.9-18.4-31.8C151.6,294,80.5,170.9,79.1,168.4l-0.1-0.1c-18-31.2-7.3-71.2,23.7-89.1c15.1-8.7,32.7-11,49.6-6.5
	c16.9,4.5,30.9,15.3,39.6,30.4c0.8,1.4,16.4,28.4,36.1,62.6c34.8,60.2,87.2,151,88.9,153.9l0.1,0.2c2,3.5,2.6,7.6,1.5,11.5
	c-1.1,4-3.6,7.3-7.2,9.4c-7.3,4.2-16.7,1.7-20.9-5.6c-0.7-1.3-82.7-143.2-86-148.8c-4.5-7.9-11.9-13.6-20.9-16
	c-8.9-2.4-18.5-1.2-26.3,3.3c-7.8,4.4-13.6,12.1-16,21c-2.4,9-1.3,18.4,3.4,26.4c4.8,8.2,85.4,147.9,86,148.8
	c11.4,19.7,29.7,33.8,51.4,39.6c21.7,5.8,44.4,2.7,64.1-8.6c19.7-11.4,33.8-29.6,39.6-51.3c5.8-21.7,2.8-44.5-8.6-64.2
	C375.9,283.1,254.7,73.2,252,68.4c-18-31.2-46.9-53.5-81.5-62.8C135.8-3.6,99.5,1.2,68.3,19.2c-31.2,18-53.5,47.1-62.7,81.7
	c-9.3,34.6-4.4,70.9,13.6,102c1,1.7,121.6,210.7,125.1,216.7c24.7,42.8,64.5,73.3,112,86c15.8,4.2,31.9,6.3,47.9,6.3
	c32,0,63.6-8.4,92.1-24.9c42.8-24.7,73.3-64.4,86-111.9C494.9,327.7,488.3,278,463.6,235.2z"/>
</svg>
