<?xml version="1.0" encoding="utf-8"?>
<!-- Generator: Adobe Illustrator 21.1.0, SVG Export Plug-In . SVG Version: 6.00 Build 0)  -->
<svg version="1.1" id="Layer_2" xmlns="http://www.w3.org/2000/svg" xmlns:xlink="http://www.w3.org/1999/xlink" x="0px" y="0px"
	 viewBox="0 0 418.3 512" style="enable-background:new 0 0 418.3 512;" xml:space="preserve">
<g>
	<path d="M286,421.9h-94.6V512l94.7-0.2L286,421.9z M132.3,421.9l-0.1,89.9L186,512v-90.1H132.3z M128.2,386.2v30.7l57.9-0.3v-30.4
		H128.2z"/>
	<path d="M208.7,0C88,0,0,76.2,0,170.2c0,17.1,3.1,34.1,10.2,50.6l3.1,6.1l168.8,147l14.6,12.3h-5.3v30.7l98.7-0.3v-30.4h-68.6
		l13.9-11.7l168.8-147.6l3.9-6.1c6.3-16.5,10.2-33.6,10.2-50.6C417.5,76.8,329.5,0,208.7,0z M26.7,222
		c54.4-20.6,91.1,3.7,109.2,22.6l51,117.7L26.7,222z M207.2,374.5l-54.9-126.9c8.3-14.2,36.1-24,56.5-24c19.6,0,40.7,11.4,54.1,22.8
		L207.2,374.5z M226,365.9L276.2,250l1.6-1.8c18.8-20.7,48.6-32.9,80.8-32.9c14.1,0,18.2,2.4,31.5,7.3L226,365.9z"/>
</g>
</svg>
