<?xml version="1.0" encoding="utf-8"?>
<!-- Generator: Adobe Illustrator 21.1.0, SVG Export Plug-In . SVG Version: 6.00 Build 0)  -->
<svg version="1.1" id="Layer_2" xmlns="http://www.w3.org/2000/svg" xmlns:xlink="http://www.w3.org/1999/xlink" x="0px" y="0px"
	 viewBox="0 0 418.3 512" style="enable-background:new 0 0 418.3 512;" xml:space="preserve">
<g>
	<path d="M286,421.9h-94.6V512l94.7-0.2L286,421.9z M132.3,421.9l-0.1,89.9L186,512v-90.1H132.3z M128.2,386.2v30.7l57.8-0.3v-30.4
		H128.2z"/>
	<path d="M418.2,170.2c0,17.1-3.9,34.1-10.2,50.6l-3.9,6.1L235.4,374.5l-13.9,11.7h68.5v30.4l-98.7,0.3v-30.7h5.3l-14.6-12.3
		l-168.7-147l-3.1-6.1C3.2,204.3,0,187.2,0,170.2C0,88.9,65.9,20.8,161.9,4c-21.7,8.9-41.6,24.1-58.1,45
		c-27.4,34.5-42.5,80.3-42.5,129c0,12.3,1,24.4,2.9,36.2c-11.4,0.3-23.9,2.7-37.5,7.8l160.1,140.3l-50.9-117.7
		c-12.1-12.7-32.8-27.9-61.5-30.1c-2-11.8-3.1-24-3.1-36.5c0-94.8,60.4-176.1,135-177l-4.8,223c-19.2,1.9-41.9,11-49.2,23.6
		l54.9,126.9l55.7-128.1c-12-10.2-30.1-20.4-47.8-22.4L210.3,1c73.9,1.9,133.6,82.7,133.6,177c0,13.3-1.2,26.2-3.4,38.6
		c-25.1,3.6-47.5,14.8-62.7,31.6l-1.6,1.8L226,365.9l164-143.3c-13.3-4.9-17.4-7.3-31.5-7.3c-2.6,0-5.1,0.1-7.7,0.2
		c2-12.2,3.1-24.8,3.1-37.6c0-48.7-15.1-94.5-42.5-129c-17-21.4-37.4-36.8-59.7-45.6C349.8,19.1,417.6,88.3,418.2,170.2z"/>
</g>
</svg>
