<?xml version="1.0" encoding="utf-8"?>
<!-- Generator: Adobe Illustrator 21.1.0, SVG Export Plug-In . SVG Version: 6.00 Build 0)  -->
<svg version="1.1" id="Layer_3" xmlns="http://www.w3.org/2000/svg" xmlns:xlink="http://www.w3.org/1999/xlink" x="0px" y="0px"
	 viewBox="0 0 460.5 512" style="enable-background:new 0 0 460.5 512;" xml:space="preserve">
<path d="M421.5,304.6h-76.6l-45.4-102.3c7.1-11.8,11.2-25.7,11.2-40.5c0-32.6-19.8-60.6-47.9-72.6V0h-61.9v89.2
	c-28.2,12-47.9,40-47.9,72.6c0,15,4.2,28.9,11.4,40.9l-41.7,102H40c-10.5,0-19,8.5-19,19c0,10.5,8.5,19,19,19h67L56.1,466.7l4.2,1.7
	l-14.4,35.1c-0.8,2,0.1,4.4,2.2,5.2l6.9,2.8c2,0.8,4.4-0.1,5.2-2.2l14.4-35.1l17.5,7.2l40.9-39.1l40.9-99.8h42.9v4
	c0,6.6,5.4,12,12,12c6.6,0,12-5.4,12-12v-4H294l45.1,101.5l42,37.9l9-4l13.9,31.3c0.9,2,3.3,2.9,5.3,2l6.8-3c2-0.9,2.9-3.3,2-5.3
	l-13.9-31.3l12.4-5.5l-54.9-123.6h59.8c10.5,0,19-8.5,19-19C440.5,313.1,432,304.6,421.5,304.6z M231.7,144.8c9.4,0,17,7.6,17,17
	s-7.6,17-17,17s-17-7.6-17-17S222.4,144.8,231.7,144.8z M240.7,304.6v-3c0-6.6-5.4-12-12-12c-6.6,0-12,5.4-12,12v3h-27.4l26.8-65.5
	c5,1,10.2,1.5,15.6,1.5c5.6,0,11-0.6,16.2-1.7l29.1,65.6H240.7z"/>
</svg>
