<?xml version="1.0" encoding="utf-8"?>
<!-- Generator: Adobe Illustrator 21.1.0, SVG Export Plug-In . SVG Version: 6.00 Build 0)  -->
<svg version="1.1" id="Layer_3" xmlns="http://www.w3.org/2000/svg" xmlns:xlink="http://www.w3.org/1999/xlink" x="0px" y="0px"
	 viewBox="0 0 512 512" style="enable-background:new 0 0 512 512;" xml:space="preserve">
<g id="fill">
	<path d="M487,182.3l-100-34.9v79.3l34.2,11.9l-5.4,15.4L387,244v218.6l1.9,0.7c15.9,5.5,32.7-1.4,37.6-15.4l59.1-169.5l-42.2-14.7
		l5.4-15.4L491,263l15.8-45.3C511.7,203.6,502.8,187.8,487,182.3z"/>
	<path id="XMLID_14_" d="M180.9,226c-11.7,0-21.2,9.5-21.2,21.2s9.5,21.2,21.2,21.2s21.2-9.5,21.2-21.2S192.6,226,180.9,226z
		 M180.9,226c-11.7,0-21.2,9.5-21.2,21.2s9.5,21.2,21.2,21.2s21.2-9.5,21.2-21.2S192.6,226,180.9,226z M180.9,226
		c-11.7,0-21.2,9.5-21.2,21.2s9.5,21.2,21.2,21.2s21.2-9.5,21.2-21.2S192.6,226,180.9,226z M180.9,226c-11.7,0-21.2,9.5-21.2,21.2
		s9.5,21.2,21.2,21.2s21.2-9.5,21.2-21.2S192.6,226,180.9,226z M353.8,108.1h-21.2V13c0-3.9-1.8-7.5-4.8-9.9s-7-3.3-10.7-2.5
		L11.5,88.3l0,0h-0.2c-0.8,0.2-1.5,0.4-2.2,0.7c-0.2,0.1-0.3,0.1-0.4,0.2c-0.6,0.3-1.1,0.6-1.7,0.9c-0.2,0.1-0.4,0.3-0.6,0.5
		c-0.4,0.3-0.8,0.6-1.2,1C5,91.8,4.8,92,4.6,92.3C4.3,92.7,4,93,3.8,93.4c-0.2,0.3-0.4,0.5-0.5,0.8C3,94.6,2.8,95,2.6,95.4
		c-0.1,0.3-0.3,0.6-0.4,0.9c-0.2,0.5-0.3,0.9-0.4,1.4c-0.1,0.3-0.2,0.6-0.2,0.9c-0.1,0.5-0.1,1.1-0.2,1.6c0,0.2-0.1,0.4-0.1,0.6
		v398.4c0,7,5.7,12.8,12.8,12.8h339.7c7,0,12.8-5.7,12.8-12.8V120.8C366.5,113.8,360.8,108.1,353.8,108.1z M210,360v21H82v-21H210z
		 M117.8,247.2c0-34.8,28.3-63.2,63.2-63.2s63.2,28.3,63.2,63.2c0,34.8-28.3,63.2-63.2,63.2S117.8,282,117.8,247.2z M260,424H102
		v-21h158V424z M280,381h-53v-21h53V381z M299.1,108.1H58L299.1,39V108.1z M202.1,247.2c0-11.7-9.5-21.2-21.2-21.2
		s-21.2,9.5-21.2,21.2s9.5,21.2,21.2,21.2S202.1,258.9,202.1,247.2z M180.9,226c-11.7,0-21.2,9.5-21.2,21.2s9.5,21.2,21.2,21.2
		s21.2-9.5,21.2-21.2S192.6,226,180.9,226z M180.9,226c-11.7,0-21.2,9.5-21.2,21.2s9.5,21.2,21.2,21.2s21.2-9.5,21.2-21.2
		S192.6,226,180.9,226z"/>
</g>
</svg>
