<?xml version="1.0" encoding="utf-8"?>
<!-- Generator: Adobe Illustrator 21.1.0, SVG Export Plug-In . SVG Version: 6.00 Build 0)  -->
<svg version="1.1" id="Layer_2" xmlns="http://www.w3.org/2000/svg" xmlns:xlink="http://www.w3.org/1999/xlink" x="0px" y="0px"
	 viewBox="0 0 421.5 512" style="enable-background:new 0 0 421.5 512;" xml:space="preserve">
<g>
	<path d="M341.7,497c0,8.3-6.7,15-15,15H15.5c-8.3,0-15-6.7-15-15V95c0-8.3,6.7-15,15-15h45v357c0,8.3,6.7,15,15,15h266.2L341.7,497
		z"/>
	<path id="fill-32_2_" d="M319.5,0v91.9c0,5.6,4.5,10.1,10.1,10.1h91.9L319.5,0z M421.5,134H297.6c-5.6,0-10.1-4.5-10.1-10.1V0h-182
		c-8.3,0-15,6.7-15,15v392c0,8.3,6.7,15,15,15h301.2c8,0,14.5-6.2,15-14c0-0.3,0-0.6,0-1L421.5,134z M138.8,88h72.8v32h-72.8V88z
		 M138.8,148h72.8v32h-72.8V148z M372,360H138.8v-32H372V360z M372,300H138.8v-32H372V300z M372,240H138.8v-32H372V240z"/>
</g>
</svg>
