<?xml version="1.0" encoding="utf-8"?>
<!-- Generator: Adobe Illustrator 22.0.1, SVG Export Plug-In . SVG Version: 6.00 Build 0)  -->
<svg version="1.1" id="Layer_1" xmlns="http://www.w3.org/2000/svg" xmlns:xlink="http://www.w3.org/1999/xlink" x="0px" y="0px"
	 viewBox="0 0 512 512" style="enable-background:new 0 0 512 512;" xml:space="preserve">
<style type="text/css">
	.st0{fill:#0B0B0B;}
</style>
<g>
	<path class="st0" d="M311,328.4c3,0,5.4-2.4,5.4-5.4c0-3-2.4-5.4-5.4-5.4H192.9c-3,0-5.4,2.4-5.4,5.4c0,3,2.4,5.4,5.4,5.4H311z"/>
	<path class="st0" d="M59.6,313.6c0,0-18.5-11.3-27.8,0c-1.2,1.4,18.8,100.6,18.8,100.6v19.5v78.4h27.8c0,0,0-48.9,0-78.4h46.3v78.4
		h27.8v-78.4v-8.6v-13.6H77.6C74,390.4,59.6,313.6,59.6,313.6z"/>
	<path class="st0" d="M440.9,313.6c0,0-14.5,76.8-18,97.9H348v13.6v8.6v78.4h27.8v-78.4h46.3c0,29.5,0,78.4,0,78.4h27.8v-78.4v-19.5
		c0,0,20-99.2,18.8-100.6C459.3,302.3,440.9,313.6,440.9,313.6z"/>
	<path class="st0" d="M509.8,145.8C470.1,61.4,371.4,1.6,256,1.6C140.2,1.6,41.3,61.7,1.8,146.4c-0.6,1.3-1.8,4-1.8,4l0,0
		c9.2-2.3,21.7,1.3,32.3,10.1c10.7,8.9,16.5,20.6,15.9,30.1c2.7-3.1,29.1-32.3,66.9-32.3c39.9,0,72.2,32.6,72.2,32.6
		s19.4-21.9,49.1-29.8v151h31.1V159c35.9,4.6,61.1,31.9,61.1,31.9s29-32.6,71-32.6c42,0,67.1,32.6,67.1,32.6l0.1-0.1
		c-0.7-9.5,5-21.4,15.7-30.3c9.5-7.9,20.5-11.6,29.2-10.6C511.2,148.9,510.3,146.9,509.8,145.8z"/>
	<path class="st0" d="M404.9,359.9c7.4,0,13.5-6,13.5-13.5s-6-13.5-13.5-13.5H96.3c-7.4,0-13.5,6-13.5,13.5s6,13.5,13.5,13.5h99.3
		v152.2h112.7V359.9H404.9z"/>
</g>
</svg>
