<?xml version="1.0" encoding="utf-8"?>
<!-- Generator: Adobe Illustrator 21.1.0, SVG Export Plug-In . SVG Version: 6.00 Build 0)  -->
<svg version="1.1" id="Layer_1" xmlns="http://www.w3.org/2000/svg" xmlns:xlink="http://www.w3.org/1999/xlink" x="0px" y="0px"
	 viewBox="0 0 512 512" style="enable-background:new 0 0 512 512;" xml:space="preserve">
<path d="M277.7,57.8c16.5-42.5,56.6-66.5,89.6-53.7c33,12.8,46.4,57.6,29.9,100.1c-16.5,42.5-56.6,66.5-89.6,53.7
	C274.6,145,261.2,100.2,277.7,57.8z M158,0.9c35-5.6,69,24.9,75.9,68.2c7,43.3-15.7,83-50.7,88.6c-35,5.6-68.9-24.9-75.9-68.2
	C100.4,46.2,123.1,6.5,158,0.9z M17.9,225.1c-24.4-32.3-23.8-73.9,1.3-92.9c25.1-19,65.3-8.1,89.7,24.2
	c24.4,32.3,23.8,73.9-1.3,92.9C82.5,268.3,42.3,257.4,17.9,225.1z M360.3,513c-4.8,0-9.6-0.5-14.2-1.5c0,0,0,0-0.1,0
	c-0.4-0.1-4.3-1.3-10.2-3c0,0,0,0-0.1,0C316.7,502.9,276,492,256,492c-20.5,0-62.3,11.4-80.5,16.7c-5.1,1.5-8.3,2.5-8.7,2.6
	c0,0-0.1,0-0.1,0c-4.9,1.1-9.9,1.7-15,1.7c-42.5,0-77-39.3-77-87.7c0-7.3,0.8-14.3,2.2-21.1c0.1-48.5,106.3-207.3,181.3-207.3
	c69.6,0,161.5,139.9,174.6,198.9c2.9,9.2,4.5,19.1,4.5,29.5C437.3,473.7,402.8,513,360.3,513z M505.7,217.6
	c-14.7,37.8-50.4,59.1-79.7,47.7c-29.4-11.4-41.3-51.3-26.6-89c14.7-37.8,50.4-59.1,79.7-47.7C508.5,139.9,520.4,179.8,505.7,217.6z
	"/>
</svg>
