<?xml version="1.0" encoding="utf-8"?>
<!-- Generator: Adobe Illustrator 21.1.0, SVG Export Plug-In . SVG Version: 6.00 Build 0)  -->
<svg version="1.1" id="Layer_1" xmlns="http://www.w3.org/2000/svg" xmlns:xlink="http://www.w3.org/1999/xlink" x="0px" y="0px"
	 viewBox="0 0 513.4 512" style="enable-background:new 0 0 513.4 512;" xml:space="preserve">
<path d="M408.2,126.5c-15.6,54.4-55.8,90.7-89.9,81c-34-9.7-48.9-61.7-33.3-116.1s55.9-90.7,89.9-81S423.9,72.1,408.2,126.5z
	 M168.2,0.5c-34.9,5.6-56,55.4-47.1,111.3s44.5,96.7,79.5,91.1c34.9-5.6,56-55.4,47.1-111.3C238.7,35.8,203.1-5.1,168.2,0.5z
	 M34.8,154.5c-32.5,12.9-43.5,61.7-24.6,109s60.5,75.2,93,62.4c32.5-12.9,43.5-61.7,24.6-109C108.9,169.5,67.3,141.6,34.8,154.5z
	 M480.4,169.5c-32.1-13.7-74.5,13.2-94.5,60c-20.1,46.8-10.3,95.9,21.8,109.6s74.5-13.2,94.5-60
	C522.3,232.3,512.5,183.2,480.4,169.5z M411.9,494.9c28.9-19.7-5.8-88.2-51.9-151.9c-33.2-45.9-25-104-103.5-96
	c-82.9-3.8-187.6,141-165.9,235.1c13.8,59.5,124.5,1.9,166.1-12.1C318.9,449.1,336,548,411.9,494.9z"/>
</svg>
