<?xml version="1.0" encoding="utf-8"?>
<!-- Generator: Adobe Illustrator 21.1.0, SVG Export Plug-In . SVG Version: 6.00 Build 0)  -->
<svg version="1.1" xmlns="http://www.w3.org/2000/svg" xmlns:xlink="http://www.w3.org/1999/xlink" x="0px" y="0px"
	 viewBox="0 0 432.7 512" style="enable-background:new 0 0 432.7 512;" xml:space="preserve">
<g>
	<path d="M390.2,130.6c0-0.4,0-0.6,0-0.7"/>
	<path d="M134.5,305c1.6-11.2,11.2-19.2,22.4-19.2h46.3c91.1,0,163-36.8,183.8-145.6c0-3.2,1.6-9.6,1.6-9.6c8-40,1.6-67.2-20.8-91.2
		C343.9,12.2,302.3,1,246.4,1H88.1C77,1,67.4,9,65.8,20.2L0.2,441c-1.6,8,4.8,16,12.8,16h97.5L134.5,305z"/>
	<path d="M414.2,151.4C391.8,257,318.3,313,203.2,313h-41.6l-32,200h67.1c9.6,0,17.6-6.4,19.2-17.6l19.2-108.8
		c1.6-9.6,9.6-17.6,19.2-17.6h12.8c79.9,0,142.2-32,161.4-126.4C436.6,205.8,433.4,173.8,414.2,151.4z"/>
</g>
</svg>
