<?xml version="1.0" encoding="utf-8"?>
<!-- Generator: Adobe Illustrator 21.1.0, SVG Export Plug-In . SVG Version: 6.00 Build 0)  -->
<svg version="1.1" id="Layer_1" xmlns="http://www.w3.org/2000/svg" xmlns:xlink="http://www.w3.org/1999/xlink" x="0px" y="0px"
	 viewBox="0 0 660 512" style="enable-background:new 0 0 660 512;" xml:space="preserve">
<path d="M638.6,511.7H21.4C9.6,511.7,0,502.1,0,490.3V22.7C0,10.9,9.6,1.3,21.4,1.3h617.2c11.8,0,21.4,9.6,21.4,21.4v467.6
	C660,502.1,650.4,511.7,638.6,511.7z M146.7,212.4c0-10.9-3.7-18.8-11.1-23.7c-7.4-4.9-16.9-7.4-28.5-7.4H61.2c-3.5,0-5.5,1.8-6,5.1
	L36.6,300.2c0,1.1,0.3,2.2,1.1,3c0.7,0.9,1.6,1.3,2.8,1.3h21.7c3.7,0,5.8-1.7,6.3-5.1l5.3-30.7c0-1.6,0.6-2.9,1.8-3.8
	s2.6-1.5,4.4-1.7c1.8-0.3,3.4-0.3,4.9-0.3c1.5,0,3.4,0.1,5.5,0.2c2.1,0.1,3.4,0.2,3.9,0.2c16.4,0,29.2-4.4,38.5-13.5
	C142,240.8,146.7,228.4,146.7,212.4z M112.4,222.5c-0.9,6.6-3.4,11-7.5,13c-4.1,2-9.9,3.1-17.4,3.1l-9.1,0.3l4.5-30.1
	c0.5-2,1.8-3.1,3.9-3.1h5.6c7.5,0,12.9,1.1,16.4,3.3C112.1,211.1,113.3,215.6,112.4,222.5z M235.2,299.5l11.9-72.6
	c0-1.1-0.3-2.2-1-3c-0.7-0.9-1.7-1.3-2.8-1.3h-21.7c-2.6,0-4.2,3.1-4.9,9.2c-5.1-7.5-14.1-11.2-26.9-11.2c-13.8,0-25.4,5-35,15
	c-9.6,10-14.3,21.8-14.3,35.5c0,10.9,3.3,19.6,9.8,26.1c6.5,6.5,15.3,9.7,26.2,9.7c5.4,0,10.9-1.1,16.6-3.4
	c5.7-2.3,10.3-5.2,13.8-8.9c-0.9,2.3-1.4,4.2-1.4,5.8c0,2.9,1.3,4.4,3.9,4.4H229C232.6,304.6,234.6,303,235.2,299.5z M213.2,259.9
	c0,6.9-2.3,12.6-7.2,17.1c-4.8,4.6-10.7,6.9-17.8,6.9c-5.6,0-10.1-1.5-13.5-4.4c-3.4-2.9-5.1-7-5.1-12.3c0-6.9,2.3-12.7,7.2-17.4
	c4.8-4.8,10.7-7.2,17.7-7.2c5.4,0,9.8,1.5,13.3,4.6C211.4,250.2,213.2,254.5,213.2,259.9z M363.6,225.4c0-0.9-0.4-1.8-1.3-2.6
	c-0.8-0.8-1.7-1.2-2.6-1.2h-22.1c-2.1,0-3.8,0.9-4.9,2.8L302.1,268l-12.7-41.8c-0.9-2.9-3-4.4-6.3-4.4h-21.5c-0.9,0-1.8,0.4-2.4,1.2
	c-0.8,0.8-1.1,1.7-1.1,2.6c0,0.5,1.8,6,5.5,16.6c3.7,10.7,7.6,22.1,12,34.3c4.4,12.2,6.6,18.8,6.9,19.7
	c-15.8,20.8-23.6,32-23.6,33.3c0,2.5,1.3,3.8,3.9,3.8h21.8c2.1,0,3.9-0.9,5.3-2.8L363,227.5C363.4,227,363.6,226.3,363.6,225.4z
	 M471.9,212.4c0-10.9-3.6-18.8-10.9-23.7c-7.2-4.9-16.8-7.4-28.7-7.4h-45.5c-3.8,0-5.7,1.8-6,5.1l-18.5,113.8c-0.3,1.1,0,2.2,0.7,3
	c0.7,0.9,1.7,1.3,2.8,1.3h23.5c2.3,0,3.9-1.2,4.5-3.4l5.3-32.5c0.3-1.6,0.8-2.9,1.9-3.8c1.1-0.9,2.4-1.5,4.2-1.7
	c1.8-0.3,3.4-0.3,4.9-0.3s3.4,0.1,5.5,0.2c2.1,0.1,3.4,0.2,3.9,0.2c16.6,0,29.5-4.4,38.7-13.5C467.3,240.8,471.9,228.4,471.9,212.4z
	 M438,218.3c0,7.8-2,13.1-6.1,15.9c-4.1,2.9-10.3,4.3-18.8,4.3l-9.1,0.3l4.5-30.1c0.5-2,1.8-3.1,3.9-3.1h5.3c4.2,0,7.5,0.3,10.1,0.7
	c2.4,0.4,4.8,1.7,7,3.6C436.9,211.9,438,214.7,438,218.3z M560.4,299.5l11.9-72.6c0.3-1.1-0.1-2.2-0.8-3c-0.8-0.9-1.8-1.3-2.9-1.3
	h-21.7c-2.6,0-4.2,3.1-4.9,9.2c-4.9-7.5-13.9-11.2-26.9-11.2c-13.8,0-25.4,5-35,15c-9.6,10-14.3,21.8-14.3,35.5
	c0,10.9,3.3,19.6,9.8,26.1c6.5,6.5,15.3,9.7,26.2,9.7c5.6,0,11.2-1.1,16.9-3.4c5.7-2.3,10.2-5.2,13.5-8.9c0,0.3-0.2,1.1-0.5,2.6
	c-0.3,1.5-0.5,2.5-0.5,3.3c0,2.9,1.2,4.4,3.5,4.4h19.6C557.9,304.6,560,303,560.4,299.5z M538.8,259.9c0,6.6-2.4,12.3-7.4,16.9
	c-4.9,4.7-10.8,7-17.5,7c-5.6,0-10.1-1.5-13.5-4.4c-3.4-2.9-5.1-7-5.1-12.3c0-6.9,2.3-12.7,7-17.4c4.7-4.8,10.7-7.2,17.9-7.2
	c5.1,0,9.6,1.5,13.2,4.6S538.8,254.5,538.8,259.9z M623,185.5v-0.3c0-2.5-1.2-3.8-3.5-3.8h-21.4c-2.1,0-3.3,1-3.5,3.1l-18.5,115.7
	l-0.3,0.7c0,0.9,0.3,1.8,1,2.6c0.7,0.8,1.7,1.2,2.8,1.2h19c3.7,0,5.7-1.7,6-5.1L623,185.5z"/>
</svg>
