<?xml version="1.0" encoding="utf-8"?>
<!-- Generator: Adobe Illustrator 21.1.0, SVG Export Plug-In . SVG Version: 6.00 Build 0)  -->
<svg version="1.1" id="social-rss-circle.svg" xmlns="http://www.w3.org/2000/svg" xmlns:xlink="http://www.w3.org/1999/xlink"
	 x="0px" y="0px" viewBox="0 0 512 512" style="enable-background:new 0 0 512 512;" xml:space="preserve">
<path d="M256,0C115.2,0,0,115.2,0,256s115.2,256,256,256s256-115.2,256-256S396.8,0,256,0z M206,284.9V281l-15.4,94.3h-57.8
	c-5.8,0-9.6-3.8-7.7-9.6l40.4-252.2c1.9-5.8,5.8-11.5,13.5-11.5h96.3c32.7,0,59.7,7.7,73.2,23.1c13.5,15.4,17.3,30.8,13.5,55.8
	c0,0-0.3,4.9-1.3,7.7c-13.5,65.5-56.5,84.7-112.3,84.7h-28.9C211.8,273.3,207.9,279.1,206,284.9z M395,258.3
	c-11.6,55.8-48.1,77-96.3,77h-7.7c-5.8,0-11.5,3.9-11.5,9.6v3.9l-9.6,59.7v1.9c0,5.8-5.8,9.6-11.5,9.6h-40.4l19.3-119.3h25
	c69.3,0,113.6-34.7,127-98.2C396.9,216,398.9,235.2,395,258.3z"/>
</svg>
