<?xml version="1.0" encoding="utf-8"?>
<!-- Generator: Adobe Illustrator 22.0.1, SVG Export Plug-In . SVG Version: 6.00 Build 0)  -->
<svg version="1.1" id="Layer_2_1_" xmlns="http://www.w3.org/2000/svg" xmlns:xlink="http://www.w3.org/1999/xlink" x="0px" y="0px"
	 viewBox="0 0 512 512" style="enable-background:new 0 0 512 512;" xml:space="preserve">
<g id="fill">
	<path d="M395.3,291.5c-1.8,34-8.7,54.7-21,63.2c-20.6,14.3-49.4,19.9-82.8,26.5c-33.7,6.6-71.8,14.1-113.4,31.9
		c-52.9,22.6-128.7,77.1-154.5,96.1C18.3,513.1,11,513,5.7,509L171,297.3c4.3,1.8,8.9,2.8,13.9,2.8c19.7,0,35.7-16,35.7-35.7
		s-16-35.7-35.7-35.7s-35.7,16-35.7,35.7c0,7.4,2.3,14.3,6.1,20L5.7,508.9C2,506,0,501.7,0,497.2c0-1.9,0.4-3.8,1.1-5.6
		c13.5-32.7,45-113.5,54.2-178.8c6.4-44.8,3.6-83.6,1.3-117.8c-2.4-33.9-4.4-63.2,4-86.8c5-14.1,23.2-26.1,55.5-36.7
		c21.9-7.2,42.3-11.1,43.2-11.3L395,246.9C395,247.7,396.6,268.5,395.3,291.5z"/>
	<path d="M173.4,0l-8.1,34.4l252.1,199.7l94.5-53.5V0H173.4z"/>
</g>
</svg>
