<?xml version="1.0" encoding="utf-8"?>
<!-- Generator: Adobe Illustrator 21.1.0, SVG Export Plug-In . SVG Version: 6.00 Build 0)  -->
<svg version="1.1" id="Layer_2" xmlns="http://www.w3.org/2000/svg" xmlns:xlink="http://www.w3.org/1999/xlink" x="0px" y="0px"
	 viewBox="0 0 512 512" style="enable-background:new 0 0 512 512;" xml:space="preserve">
<g>
	<path d="M349,77.6C207.7,218.9,172.9,253.7,31.6,395C20.8,405.7-3.5,507.6,0.4,511.6c4,4,106-20.5,116.6-31.1
		C261.5,336,434.5,163,434.5,163L349,77.6z"/>
	<path d="M476.3,156c2.1,2.1,3.4,5.1,3.5,8v0.1c0,3.1-1.3,6.1-3.5,8.3L354.5,294.3c-4.3,4.5-12.3,4.5-16.7,0.2
		c-4.4-4.3-4.4-12.3,0-16.7l113.6-113.6l-9.1-9.1h0l-85.5-85.5l68.8-68.8l85.5,85.5l-52.3,52.3C459.3,138.9,464.8,144.5,476.3,156z"
		/>
</g>
</svg>
