<?xml version="1.0" encoding="utf-8"?>
<!-- Generator: Adobe Illustrator 21.1.0, SVG Export Plug-In . SVG Version: 6.00 Build 0)  -->
<svg version="1.1" id="Layer_1" xmlns="http://www.w3.org/2000/svg" xmlns:xlink="http://www.w3.org/1999/xlink" x="0px" y="0px"
	 viewBox="0 0 377 512" style="enable-background:new 0 0 377 512;" xml:space="preserve">
<g>
	<path d="M376.5,70.8c2.7-4.3-17.4-23.1-45.2-42.2C303.6,9.5,278.7-2.6,275.6,1.5L19.7,376l-10,14.7c5,26.7,57.6,69,100.5,66.7
		l11.1-15.7L376.5,70.8C376.5,70.9,376.5,70.9,376.5,70.8C376.5,70.8,376.5,70.8,376.5,70.8L376.5,70.8
		C376.5,70.8,376.5,70.8,376.5,70.8z M316.9,29.9c0.5-0.8,5,1.4,10.1,4.9c5,3.5,8.7,6.9,8.2,7.7c-0.5,0.8-5.1-1.4-10.1-4.9
		C320,34.1,316.4,30.7,316.9,29.9z"/>
	<g>
		<path d="M2,404.4L0,512l102.5-40.9c-14.8-3.4-40.3-7.8-61.6-22.3C21.3,435.6,10,415.9,2,404.4z"/>
	</g>
</g>
</svg>
