<?xml version="1.0" encoding="utf-8"?>
<!-- Generator: Adobe Illustrator 21.1.0, SVG Export Plug-In . SVG Version: 6.00 Build 0)  -->
<svg version="1.1" id="Layer_1" xmlns="http://www.w3.org/2000/svg" xmlns:xlink="http://www.w3.org/1999/xlink" x="0px" y="0px"
	 viewBox="0 0 376 512" style="enable-background:new 0 0 376 512;" xml:space="preserve">
<style type="text/css">
	.st0{fill:#010101;}
</style>
<g>
	<g>
		<path class="st0" d="M311.8,5.8L28,419.2c-9.5-9.7-15.5-19.5-17.2-27.4c-0.2-0.3,0.2-1.1,0.8-2c0,0,0,0,0,0l1.3-1.8
			c0.1-0.1,0.2-0.3,0.3-0.4c0.3-0.4,0.5-0.8,0.8-1.1L271.1,11.9c4.1-6.1,10-9.8,17.7-11.2c6.9-1.6,14.1-0.2,21.2,4l0,0L311.8,5.8z"
			/>
	</g>
	<g>
		<path class="st0" d="M371.6,77.6L113.5,452.2c-2.1,2.7-3.4,5.1-7.8,4.9c-1-0.1-2.1,0-3.3-0.1c-9-0.2-20.2-3.7-29.6-7.3L358.1,35
			l6.1,4.9c5.9,4.4,9.6,10.2,11.2,17.4C376.8,64.7,375.5,71.5,371.6,77.6z"/>
	</g>
	<g>
		<path class="st0" d="M23.7,475.5c-0.1-3.3,2.8-34.9,2.8-34.9c-6.6-5.2-14.1-16-22.2-32L0,512l94.3-42.4c-16.8-1.4-29-4.7-36.6-9.8
			C57.7,459.8,34.2,472.5,23.7,475.5z"/>
	</g>
	<path class="st0" d="M349.7,30.2L64.2,445.4c-3.6-1.8-7.2-3.9-10.8-6.1c0,0-0.1-0.1-0.2-0.1c0,0-0.1-0.1-0.1-0.1c0,0,0,0,0,0
		c-0.1-0.1-0.2-0.1-0.3-0.2c-1.2-0.8-3.6-2.3-4.3-2.8c-0.1-0.1-0.1-0.1-0.2-0.1c0,0-0.1,0-0.1,0c-3.1-2.1-9.9-7.2-12.7-9.4
		L319.8,10.9l14.3,9.2l0.8,0.5l5,3.2L349.7,30.2z"/>
</g>
</svg>
