<?xml version="1.0" encoding="utf-8"?>
<!-- Generator: Adobe Illustrator 21.1.0, SVG Export Plug-In . SVG Version: 6.00 Build 0)  -->
<svg version="1.1" id="Layer_1" xmlns="http://www.w3.org/2000/svg" xmlns:xlink="http://www.w3.org/1999/xlink" x="0px" y="0px"
	 viewBox="0 0 382 512" style="enable-background:new 0 0 382 512;" xml:space="preserve">
<path d="M40.7,513.4l4.5-312.8l-44.2,0l0-33.2l44.6,0l0.4-27H1l0-33.2l45.4,0l2-106.5l125.3,2c75.7,0,147,12.7,165,104.8h43v33.2
	h-39.3c0.2,5.1,0.4,10.6,0.4,16c0,3.7-0.2,7.2-0.2,10.9H382v33.2h-43.4c-12.3,56.5-52.2,100.5-146.2,100.3
	c-15.6-0.4-60.2,0.4-60.2,0.4L129.2,515L40.7,513.4z M256.7,200.8H133.9v36.4h67.6C219.6,237,243.4,225.5,256.7,200.8z M266.7,156.7
	c0-5.7-0.4-11.1-1.2-16l-131.6-0.2l0.2,26.8l132.3,0C266.7,164.1,266.7,160.4,266.7,156.7z M201.4,77.1h-67.6v30.7l119.6,0
	C239.9,86.9,218.4,76.9,201.4,77.1z"/>
</svg>
