<?xml version="1.0" encoding="utf-8"?>
<!-- Generator: Adobe Illustrator 21.1.0, SVG Export Plug-In . SVG Version: 6.00 Build 0)  -->
<svg version="1.1" id="Layer_1" xmlns="http://www.w3.org/2000/svg" xmlns:xlink="http://www.w3.org/1999/xlink" x="0px" y="0px"
	 viewBox="0 0 512 512" style="enable-background:new 0 0 512 512;" xml:space="preserve">
<path d="M256,0C115.2,0,0,115.2,0,256s115.2,256,256,256s256-115.2,256-256S396.8,0,256,0z M401.7,231.3h-31.1
	c-8.8,40.5-37.4,72-104.7,71.9c-11.1-0.3-43.1,0.3-43.1,0.3l-2.2,153l-63.4-1.2l3.2-224.1h-31.7v-23.8h32L161,188h-32.3v-23.8h32.6
	l1.5-76.3l89.8,1.5c54.3,0,105.3,9.1,118.2,75.1h30.8v23.8h-28.2c0.2,3.7,0.3,7.6,0.3,11.4c0,2.6-0.1,5.1-0.1,7.8h28.2V231.3z
	 M224,188.2l0.1,19.2h94.7c0.3-2.4,0.3-5,0.3-7.6c0-4.1-0.3-7.9-0.9-11.4L224,188.2z M224,257.4h48.4c13.1-0.2,30.1-8.4,39.6-26.1
	h-88V257.4z M272.4,142.7H224v22h85.6C299.9,149.8,284.5,142.6,272.4,142.7z"/>
</svg>
