<?xml version="1.0" encoding="utf-8"?>
<!-- Generator: Adobe Illustrator 21.1.0, SVG Export Plug-In . SVG Version: 6.00 Build 0)  -->
<svg version="1.1" id="Layer_1" xmlns="http://www.w3.org/2000/svg" xmlns:xlink="http://www.w3.org/1999/xlink" x="0px" y="0px"
	 viewBox="0 0 545.2 512" style="enable-background:new 0 0 545.2 512;" xml:space="preserve">
<path d="M364.3,1l-0.6-0.4c-0.8-0.7-1.5-0.5-2.2,0.2c-0.4,0.4-0.8,0.9-1.2,1.6c-11,18.3-25.4,35.7-42.2,52.5
	c-74.8,74.8-196.7,137.7-270.7,211.8C28,285.9,12,305.9,0.9,327.1c54.8,63.6,180,184.7,180.4,184.3c7.5-9.7,15.3-19,23.2-27.9
	s15.9-17.4,24.1-25.6c95.2-95.2,206-142.5,269.8-206.3c21.6-21.6,37.8-45,46.3-72.9C481.9,121.6,427,58,364.3,1z M201.3,430.1
	L126,352.6l-10.8,10.8l-8.1-8.1l10.9-10.9l-6.5-6.7l-11,11l-8.1-8.1l11.1-11.1L78,303l31.1-30.1c18.5-18.5,39-32.8,65.9-14.7
	l10.5-10.5l8.1,8.1l-9.6,9.6c1.3,1.2,2.7,2.5,4,3.8c0.9,0.9,1.7,1.8,2.6,2.7l9.6-9.6l8.1,8.1l-10.6,10.6
	c10.8,16.8,11.8,37.3-11.2,60.2c-3.9,3.7-14.6,14.8-14.6,14.8l51.4,52.9L201.3,430.1z M296.8,161.4c27.9-20.2,54.9-41.2,78.9-63.4
	l23.2,23.2c-21.5,20.2-49.5,39.6-81.4,60.9L296.8,161.4z M382.2,246.9l-20.7-20.7c27.9-20.2,54.9-41.2,78.9-63.4l23.2,23.2
	C442.1,206.3,414.2,225.6,382.2,246.9z M177.7,301l-30,30l8.9,8.9l16.5-16.5C177.5,318.9,180.5,310.3,177.7,301z M169.4,287.8
	c-1.4-1.4-2.8-2.6-4.2-3.6L133,316.3l6.6,6.5l32.3-32.3C171.2,289.6,170.3,288.7,169.4,287.8z M134,284.3l-16.5,16.5l7.5,7.5
	l29.2-29.2C145.8,277.3,138.1,280.1,134,284.3z"/>
</svg>
