<?xml version="1.0" encoding="utf-8"?>
<!-- Generator: Adobe Illustrator 22.0.1, SVG Export Plug-In . SVG Version: 6.00 Build 0)  -->
<svg version="1.1" id="Layer_3" xmlns="http://www.w3.org/2000/svg" xmlns:xlink="http://www.w3.org/1999/xlink" x="0px" y="0px"
	 viewBox="0 0 512 512" style="enable-background:new 0 0 512 512;" xml:space="preserve">
<style type="text/css">
	.st0{fill:#000100;}
</style>
<g>
	<polygon points="462,113.7 384.9,113.7 384.9,36.6 333.2,36.6 333.2,113.7 256.1,113.7 256.1,165.4 333.2,165.4 333.2,242.4 
		384.9,242.5 384.9,165.4 461.9,165.4 	"/>
	<path class="st0" d="M464.2,359.1c-11.4-4.5-47.1-17.6-79-17.6c-32.3,0-59.5,17.2-67.5,40.7c-16.8-5.3-76-27-124.3-78.6
		c-47-50.1-60.6-104.4-62.1-111.1c23.4-8,40.7-34.9,40.7-66.8c0-31.6-13.2-66.9-17.8-78.4C144.4,19.6,120.7,0,93,0
		C56.6,0,0.1,51.2,0.1,93.3c0,4,0,11.1,0,11.1s4.5,147.8,111.7,262.1c125.7,134.2,290.9,144.6,296.4,145c3.2,0.3,6.5,0.5,9.8,0.5
		c42.4,0,94.1-56,94.1-92.2C512,392.4,492.3,368.9,464.2,359.1z"/>
</g>
</svg>
