<?xml version="1.0" encoding="utf-8"?>
<!-- Generator: Adobe Illustrator 22.0.1, SVG Export Plug-In . SVG Version: 6.00 Build 0)  -->
<svg version="1.1" id="Layer_3" xmlns="http://www.w3.org/2000/svg" xmlns:xlink="http://www.w3.org/1999/xlink" x="0px" y="0px"
	 viewBox="0 0 512 512" style="enable-background:new 0 0 512 512;" xml:space="preserve">
<style type="text/css">
	.st0{fill:#000100;}
</style>
<path class="st0" d="M47.9,359.1c11.4-4.5,47.1-17.6,79-17.6c32.3,0,59.5,17.2,67.5,40.7c16.8-5.3,76-27,124.3-78.6
	c47-50.1,60.6-104.4,62.1-111.1c-23.4-8-40.7-34.9-40.7-66.8c0-31.6,13.2-66.9,17.8-78.4C367.7,19.6,391.4,0,419.1,0
	C455.5,0,512,51.2,512,93.3c0,4,0,11.1,0,11.1s-4.5,147.8-111.7,262.1c-125.7,134.2-290.9,144.6-296.4,145c-3.2,0.3-6.5,0.5-9.8,0.5
	C51.6,512,0,456,0,419.8C0.1,392.4,19.8,368.9,47.9,359.1z"/>
</svg>
