<?xml version="1.0" encoding="utf-8"?>
<!-- Generator: Adobe Illustrator 22.0.1, SVG Export Plug-In . SVG Version: 6.00 Build 0)  -->
<svg version="1.1" id="Layer_3" xmlns="http://www.w3.org/2000/svg" xmlns:xlink="http://www.w3.org/1999/xlink" x="0px" y="0px"
	 viewBox="0 0 512 512" style="enable-background:new 0 0 512 512;" xml:space="preserve">
<style type="text/css">
	.st0{fill:#000100;}
</style>
<g>
	<path d="M495.9,163.6c-11.6-30.2-28.1-56.8-49.3-79.9c-24.3-26.6-53-47.2-86.2-61.6C326.7,7.2,292.1,0.2,256.7,1.3v30.4
		c29.9,0.5,58.5,6.5,85.8,17.9c28.3,11.7,52.6,28,72.9,49.1c20.8,20.3,37,44.4,48.6,72.2c11.1,27.4,16.8,55.8,17.1,85.2H513
		C513.2,224.6,507.5,193.8,495.9,163.6z"/>
	<path d="M301.9,211.2c-5.8-6.1-12.5-10.8-20.1-14.1c-7.9-3.5-16.1-5.5-24.7-5.7c-0.3,2.5-0.4,5.3-0.4,8.4V223l3.4,1.1l3.4,1.1
		c2.8,1,5.2,1.8,7.2,2.3c4.8,2.5,8.6,5.6,11.4,9.1c1.5,2.5,3.1,5.8,4.9,9.9l1.1,2.3l0.8,2.7c0.8,2,1.4,3.7,1.9,4.9
		c4.6-0.3,9.7-0.4,15.5-0.4H322c-0.3-8.6-2.2-16.8-5.7-24.7C312.8,223.7,308,217,301.9,211.2z"/>
	<path d="M368.7,141.6c-14.4-14.5-31.5-25.6-51.3-33.5c-19.2-7.6-39.4-11.8-60.3-12.5c-0.3,4.8-0.4,10.3-0.4,16.4v16
		c19.5,0.5,38.1,4.9,55.8,13.3c18.2,8.9,33.3,20.9,45.2,36.1c16.7,21,26,47.4,28.1,79.1c4.8-0.3,10.1-0.4,15.9-0.4h15.6
		c0-21.3-4.3-41.9-12.9-62C396,173.5,384.1,156,368.7,141.6z"/>
	<path class="st0" d="M464.8,359.6c-11.4-4.5-47.1-17.6-79-17.6c-32.3,0-59.5,17.2-67.5,40.7c-16.8-5.3-76-27-124.3-78.6
		c-47-50.1-60.6-104.4-62.1-111.1c23.4-8,40.7-34.9,40.7-66.8c0-31.6-13.2-66.9-17.8-78.4C145,20.1,121.3,0.5,93.6,0.5
		C57.2,0.5,0.7,51.7,0.7,93.8c0,4,0,11.1,0,11.1S5.2,252.7,112.4,367c125.7,134.2,290.9,144.6,296.4,145c3.2,0.3,6.5,0.5,9.8,0.5
		c42.4,0,94.1-56,94.1-92.2C512.6,392.9,492.9,369.4,464.8,359.6z"/>
</g>
</svg>
