<?xml version="1.0" encoding="utf-8"?>
<!-- Generator: Adobe Illustrator 22.0.1, SVG Export Plug-In . SVG Version: 6.00 Build 0)  -->
<svg version="1.1" id="Layer_3" xmlns="http://www.w3.org/2000/svg" xmlns:xlink="http://www.w3.org/1999/xlink" x="0px" y="0px"
	 viewBox="0 0 512 512" style="enable-background:new 0 0 512 512;" xml:space="preserve">
<style type="text/css">
	.st0{fill:#000100;}
</style>
<g>
	<path class="st0" d="M464.1,359.1c-11.4-4.5-47.1-17.6-79-17.6c-32.3,0-59.5,17.2-67.5,40.7c-16.8-5.3-76-27-124.3-78.6
		c-47-50.1-60.6-104.4-62.1-111.1c23.4-8,40.7-34.9,40.7-66.8c0-31.6-13.2-66.9-17.8-78.4C144.2,19.6,120.6,0,92.9,0
		C56.5,0,0,51.2,0,93.3c0,4,0.3,7.9,0.8,11.7L0,104.4c0,0,4.5,147.8,111.7,262.1c125.7,134.2,290.9,144.6,296.4,145
		c3.2,0.3,6.5,0.5,9.8,0.5c42.4,0,94.1-56,94.1-92.2C511.9,392.4,492.2,368.9,464.1,359.1z"/>
	<path class="st0" d="M438.4,34.3L328.9,183.9l-36.5-47.1c-7.4-12.7-23.7-17.2-36.3-10.2c-12.6,7-16.8,23-9.4,35.7l57,80.1
		c7.4,12.7,23.7,17.2,36.3,10.2c2.3-1.3,4-3.2,5.8-5L479.2,64.1c8.1-11.1,5.8-26.6-5.2-35l0,0C462.8,20.6,446.7,22.9,438.4,34.3z"/>
</g>
</svg>
