<?xml version="1.0" encoding="utf-8"?>
<!-- Generator: Adobe Illustrator 21.1.0, SVG Export Plug-In . SVG Version: 6.00 Build 0)  -->
<svg version="1.1" id="Layer_1" focusable="false" xmlns="http://www.w3.org/2000/svg" xmlns:xlink="http://www.w3.org/1999/xlink"
	 x="0px" y="0px" viewBox="0 0 512 512" style="enable-background:new 0 0 512 512;" xml:space="preserve">
<path d="M487.7,139.6c18.9,0,24.3-16.9,24.3-37.7s-5.3-37.7-24.3-37.7H89.8c-1.4,0-2.9-0.1-4.5-0.1c-17.6-0.6-58.8-2-81.5,46.1
	c-8.7,18.5-2.1,41.2,14.7,50.8c5,2.9,10.4,4.2,15.7,4.2c12.4,0,24.4-7.4,30.5-20.4c2.2-4.8,2.7-5.9,18.4-5.4
	c2.4,0.1,4.6,0.2,6.7,0.2h22.6c-8,161.1-38.9,254.7-57.9,276.8c-13,15.1-12.3,39,1.4,53.3C62.6,476.6,71,480,79.5,480
	c9.1,0,18.2-4,24.9-11.8c56.6-66,72.3-250.8,76.5-328.5h120.5c-4.9,24.8-11.5,62-15.8,102.2c-10.9,103.3-0.5,170,31.8,203.7
	c18.7,19.5,49.4,34.6,81,34.6c11.2,0,22.6-1.9,33.6-6.2c19.7-7.7,53.8-30.1,60.9-92.4c2.4-20.6-11-39.5-29.8-42.1
	c-18.9-2.6-35.9,12.1-38.3,32.7c-2.9,25.6-12.7,29.5-16,30.8c-13.6,5.3-34.6-2-44.3-12.1c-19.8-20.6-21.3-125.4,6.9-251.2
	L487.7,139.6L487.7,139.6z"/>
</svg>
