<?xml version="1.0" encoding="utf-8"?>
<!-- Generator: Adobe Illustrator 21.1.0, SVG Export Plug-In . SVG Version: 6.00 Build 0)  -->
<svg version="1.1" id="Layer_1" xmlns="http://www.w3.org/2000/svg" xmlns:xlink="http://www.w3.org/1999/xlink" x="0px" y="0px"
	 viewBox="0 0 517 512" style="enable-background:new 0 0 517 512;" xml:space="preserve">
<g>
	<path d="M113.6,481c31.6,18.2,65.6,28.3,102.3,30.2V298.5H-0.3c2.1,35.7,12.3,68.9,30.4,99.6C50.6,432.9,78.4,460.6,113.6,481z"/>
	<g>
		<path d="M112.7,71.4c-35,20.4-62.7,48-83.1,82.9c-17.8,30.5-27.8,63.1-30.1,98.2h214.2V41C177.3,43.3,143.6,53.5,112.7,71.4z"/>
	</g>
	<path d="M363.1,479.6c35-20.4,62.7-48,83.1-82.9c17.8-30.5,27.8-63.1,30.1-98.2H262.1V510C298.6,507.7,332.2,497.6,363.1,479.6z"/>
	<path d="M388.1,35.6c-35.7-20.6-74.2-32-115.6-34.1v240.4h244.3c-2.4-40.3-13.9-77.8-34.3-112.6C459.3,89.9,427.9,58.7,388.1,35.6z
		"/>
</g>
</svg>
