<?xml version="1.0" encoding="utf-8"?>
<!-- Generator: Adobe Illustrator 21.1.0, SVG Export Plug-In . SVG Version: 6.00 Build 0)  -->
<svg version="1.1" id="Layer_1" xmlns="http://www.w3.org/2000/svg" xmlns:xlink="http://www.w3.org/1999/xlink" x="0px" y="0px"
	 viewBox="0 0 276 512" style="enable-background:new 0 0 276 512;" xml:space="preserve">
<g>
	<path d="M202.4,465.4l-0.5,3.2l-4.6-0.6l0.5-3.2c1.2-7.2-4.2-13.8-11.9-14.8c-7.8-1-15.2,4.1-16.3,11.3l-0.5,3.2l-5-0.6l0.5-3.2
		c1.2-7.2-5.1-14-14-15.1c-8.9-1.2-17.3,3.8-18.4,11l-0.5,3.2l-4.8-0.6l0.5-3.2c1.1-7-4.8-13.6-13.5-15c-0.2,0-0.4-0.1-0.6-0.1
		c-4.6-0.6-9.2,0.4-12.7,2.8c-3.1,2.1-5.2,4.9-5.7,8.2l-0.5,3.2l-4.5-0.6l0.5-3.2c0.5-3.3-0.5-6.5-2.7-9.3
		c-2.6-3.2-6.7-5.2-11.3-5.8c-8.9-1.2-17.3,3.8-18.4,11l-0.5,3.2l-5-0.6l0.5-3.2c0.6-3.6-0.4-7.1-2.9-10c-2.2-2.7-5.5-4.3-9.2-4.8
		c-3.6-0.5-7.3,0.4-10.3,2.4c-3.2,2.2-5.3,5.2-6,8.9L24,446l-4.6-0.6l0.4-3.6c0.9-5.3-1.4-10.5-5.7-13C11.4,445.3,0.3,512,0.3,512
		h6.9l10.1-56.5c0.1,0,0.2,0.1,0.4,0.1l5,0.6c0.1,0,0.2,0,0.4,0l-8.5,55.8l25.7,0l9.7-52.4c0.1,0,0.2,0.1,0.4,0.1l4.8,0.6
		c0.1,0,0.2,0,0.4,0L47.7,512h31l8.5-47.5c0.1,0,0.2,0.1,0.4,0.1l4.8,0.6c0.1,0,0.2,0,0.5,0L85.7,512h31.1l7.6-42.8
		c0.1,0,0.2,0.1,0.4,0.1l4.8,0.6c0.1,0,0.2,0,0.4,0l-6.2,42.1h31.6l6.7-37.9c0.1,0,0.2,0.1,0.4,0.1l4.8,0.6c0.1,0,0.2,0,0.5,0
		l-5.7,37.2h26.6l6-33.7c0.1,0,0.2,0.1,0.4,0.1l4.8,0.6c0.1,0,0.2,0,0.4,0l-5.1,33h6.7c0,0,7.3-44.2,9.6-57.6
		C207,455.9,203.3,460.2,202.4,465.4z"/>
	<path d="M272.5,112.3l-25.1-3.3c0.1-2-1.1-3.8-2.9-4.1L254,47c0.1,0,0.2-0.1,0.2-0.1c0.5-0.3,0.9-0.8,1.1-1.4l2.5,0.3l0.1-0.5
		c0.2-1.3-0.1-2.6-0.9-3.5c-0.5-0.6-1.2-1-2-1.1l-2.2-0.3l2.2-13.3l2.6,0.3c3.2,0.4,6.2-1.6,6.7-4.5c0.1-0.7,0-1.4-0.1-2l-80.5-10.5
		L103,0c-0.4,0.6-0.6,1.2-0.7,1.9c-0.5,2.9,1.7,5.6,5,6l2.6,0.3l-2.2,13.3l-1.9-0.3c-2-0.2-3.9,1.4-4.2,3.7l-0.1,0.5l2.4,0.3
		c0,0.7,0.2,1.4,0.7,1.8L95,85.3c-1.7-0.2-3.5,1.2-4,3.2l-25.2-3.1c-1.9-0.2-3.6,0.9-3.9,2.5c-0.1,0.8,0.1,1.6,0.6,2.2
		c0.5,0.6,1.4,1.1,2.2,1.2l1.9,0.2l-1.6,10.1c0.9,1.3,1.5,2.9,1.6,4.8h-0.2c-1.7-0.2-3.4,1.2-3.7,3.2l-0.1,0.5l2.6,0.4
		c0,0.5,0.2,1,0.6,1.2L61.6,138l-0.4-0.1c-0.7-0.1-1.4,0.1-2,0.5c-0.7,0.5-1.2,1.3-1.6,2.2l-0.9-0.1c-1.9-0.2-3.6,0.9-3.9,2.5
		c-0.1,0.8,0.1,1.6,0.6,2.2c0.5,0.6,1.4,1.1,2.2,1.2l1.2,0.2l-1.7,10.3l0.1,0.2c0.9,1.2,1.4,2.8,1.5,4.4c-0.6,0-1.1,0.2-1.6,0.5
		c-0.9,0.6-1.5,1.6-1.6,2.7l-0.1,0.5l2.6,0.3c0,0.5,0.2,1,0.6,1.2L52.4,193H52c-0.7-0.1-1.4,0.1-2,0.5c-0.7,0.5-1.4,1.3-1.6,2.2
		l-0.9-0.1c-1.9-0.2-3.6,0.9-3.9,2.5c-0.2,1.7,1,3.2,2.9,3.4l1.2,0.2L46,212l0.1,0.2c0.9,1.2,1.4,2.8,1.5,4.4
		c-0.6,0-1.1,0.2-1.6,0.5c-0.9,0.6-1.5,1.6-1.6,2.7l-0.1,0.5l2.6,0.3c0,0.5,0.2,1,0.6,1.2l-4.1,26.5l-0.4-0.1
		c-0.7-0.1-1.4,0.1-2,0.5c-0.9,0.5-1.4,1.5-1.6,2.5l-0.9-0.1c-0.9-0.1-1.7,0.1-2.5,0.6s-1.2,1.2-1.4,2c-0.1,0.8,0.1,1.6,0.6,2.2
		c0.5,0.6,1.4,1.1,2.2,1.2l1.2,0.2l-1.6,10.2l0.1,0.2c0.9,1.2,1.4,2.7,1.5,4.4c-1.6,0-3,1.4-3.4,3.2l-0.1,0.5l2.6,0.3
		c0,0.5,0.2,1,0.6,1.2l-4.4,26.3h-0.4c-1.6-0.2-3.1,1-3.6,2.7l-0.9-0.1c-1.9-0.2-3.6,0.9-3.9,2.5s1,3.2,2.9,3.4l1.2,0.2l-1.7,10.3
		l0.1,0.2c0.9,1.2,1.4,2.8,1.5,4.4c-1.6,0-3,1.4-3.4,3.2l-0.1,0.5l2.6,0.3c0,0.5,0.2,1,0.6,1.2l-4.4,26.3l-0.4-0.1
		c-0.7-0.1-1.4,0.1-2,0.5c-0.7,0.5-1.2,1.3-1.5,2.2l-0.9-0.1c-1.9-0.2-3.6,0.9-3.9,2.6c-0.2,1.6,1,3.2,2.9,3.4l1.2,0.2l-1.7,10.3
		l0.1,0.2c0.9,1.2,1.4,2.8,1.5,4.4c-1.6,0-3,1.4-3.4,3.2l-0.1,0.5l2.6,0.3c0,0.5,0.2,1,0.6,1.2L16.3,414H16c-1.6-0.2-3.1,1-3.6,2.7
		l-0.9-0.1c-1.9-0.2-3.6,0.9-3.9,2.5v0.1c-1.5,4.6,4.4,8.2,15.3,9.6l181.7,23.1c10.3,1.3,14.9-0.8,16.2-4.3c0-0.1,0.1-0.3,0.1-0.4
		s0-0.1,0-0.2l0,0c0,0,0,0,0-0.1c0.2-1.6-1-3.2-2.9-3.4l-0.9-0.1c0.1-1.8-1-3.3-2.5-3.5l-0.4-0.1l4.4-26.3c0.4-0.2,0.7-0.5,1-1
		l2.6,0.3l0.1-0.5c0.4-2-0.7-3.8-2.5-4h-0.1c0.6-1.5,1.6-2.8,2.6-3.7l0.1-0.1l1.7-10.5l1.9,0.2c0.9,0.1,1.7-0.1,2.5-0.6
		s1.2-1.2,1.4-2c0-0.1,0-0.3,0-0.4c0-0.6-0.2-1.3-0.6-1.8c-0.5-0.6-1.4-1.1-2.2-1.2l-0.9-0.1c0.1-1.8-1-3.3-2.5-3.5h-0.4l4.4-26.3
		c0.4-0.1,0.7-0.5,1-1l2.6,0.3l0.1-0.5c0.1-1.1-0.1-2.2-0.7-3c-0.5-0.6-1.1-0.9-1.7-1h-0.1c0.6-1.5,1.5-2.8,2.7-3.7l0.1-0.1
		l1.7-10.5l1.9,0.2c0.9,0.1,1.7-0.1,2.5-0.6c0.7-0.5,1.2-1.2,1.4-2c0-0.2,0-0.3,0-0.4c0-0.6-0.2-1.3-0.6-1.8
		c-0.5-0.6-1.4-1.1-2.2-1.2l-0.9-0.1c0.1-1-0.2-1.9-0.7-2.6c-0.5-0.5-1.1-0.9-1.7-1l-0.4-0.1l4.4-26.3c0.4-0.1,0.7-0.5,1-1l2.6,0.4
		l0.1-0.5c0.1-1.1-0.1-2.2-0.7-3c-0.5-0.6-1.1-0.9-1.7-1h-0.1c0.6-1.5,1.6-2.8,2.7-3.7l0.1-0.1l1.7-10.5l1.9,0.2
		c0.9,0.1,1.7-0.1,2.5-0.6s1.2-1.2,1.4-2c0-0.1,0-0.3,0-0.4c0-0.6-0.2-1.3-0.6-1.8c-0.5-0.6-1.4-1.1-2.2-1.2l-0.9-0.1
		c0.2-1.9-0.9-3.6-2.5-3.8h-0.4l4.4-26.3c0.4-0.2,0.7-0.5,1-1l2.6,0.4l0.1-0.5c0.1-1.1-0.1-2.2-0.7-3c-0.5-0.6-1.1-0.9-1.7-1h-0.1
		c0.6-1.5,1.6-2.8,2.7-3.7l0.1-0.1l1.7-10.5l1.9,0.2c0.9,0.1,1.7-0.1,2.5-0.6c0.7-0.5,1.2-1.2,1.4-2c0.2-1.6-1-3.2-2.9-3.4l-0.9-0.1
		c0.1-1.8-1-3.3-2.5-3.5H251l4.4-26.3c0.4-0.2,0.7-0.5,1-1l2.6,0.3l0.1-0.5c0.4-2-0.7-3.8-2.5-4h-0.1c0.6-1.5,1.6-2.8,2.7-3.7
		l0.1-0.1l1.7-10.5l1.9,0.2c0.9,0.1,1.7-0.1,2.5-0.6s1.2-1.2,1.4-2c0-0.1,0-0.3,0-0.4c0-0.6-0.2-1.3-0.6-1.8
		c-0.5-0.6-1.4-1.1-2.2-1.2l-0.9-0.1c0-0.9-0.2-1.8-0.7-2.5c-0.5-0.6-1.1-0.9-1.7-1l-0.4-0.1l4.4-26.3c0.4-0.1,0.7-0.5,1-1l2.6,0.3
		l0.1-0.5c0.1-1.1-0.1-2.2-0.7-3c-0.5-0.6-1.1-0.9-1.7-1l-0.7-0.1c0.7-1.6,1.7-3,2.9-4l1.7-10.3l2.5,0.3c0.9,0.1,1.7-0.1,2.5-0.6
		s1.2-1.2,1.4-2c0-0.2,0-0.3,0-0.4C275.4,113.8,274.3,112.5,272.5,112.3z M237,122.1h0.2c3.7,0.5,6.6,3.6,7.1,7.5h-0.4
		c-0.7-0.1-1.4,0.1-2,0.5c-0.9,0.6-1.5,1.6-1.6,2.7l-0.1,0.5l2.6,0.3c0,0.5,0.2,1,0.6,1.2l-4.4,26.3l-0.4-0.1
		c-0.7-0.1-1.4,0.1-2,0.5c-0.7,0.5-1.2,1.3-1.6,2.2l-9.6-1.2c0-1-0.2-1.8-0.7-2.5c-0.5-0.5-1.1-0.9-1.7-1l-0.4-0.1l4.4-26.3
		c0.4-0.2,0.7-0.5,1-1l2.6,0.3l0.1-0.5c0.2-1.1-0.1-2.2-0.7-3c-0.5-0.6-1.1-0.9-1.7-1l-0.5-0.1C229.6,123.8,233.2,121.6,237,122.1z
		 M233.9,188.7c0,0.5,0.2,1,0.6,1.2l-4.4,26.3l-0.4-0.1c-1.6-0.2-3.1,1-3.6,2.7l-9.6-1.2c0.1-1.8-1-3.3-2.5-3.5l-0.4-0.1l4.4-26.3
		c0.4-0.1,0.9-0.5,1-1l2.6,0.3l0.1-0.5c0.4-1.9-0.7-3.7-2.4-4c1.6-3.3,5.1-5.4,8.5-4.9h0.2c3.5,0.5,6,3.3,6.6,6.9
		c-1.6-0.1-3.1,1.3-3.5,3.2l-0.1,0.5L233.9,188.7z M224.8,243.9c0,0.5,0.2,1,0.6,1.2l-4.4,26.3l-0.4-0.1c-1.6-0.2-3.2,1.1-3.6,3
		l-9.6-1.2c0.2-1.9-0.9-3.6-2.5-3.8h-0.4L209,243c0.4-0.1,0.7-0.5,1-1l2.6,0.3l0.1-0.5c0.1-1.1-0.1-2.2-0.7-3c-0.4-0.5-1-0.8-1.6-1
		c1.6-3.3,5.1-5.4,8.5-5h0.2c3.5,0.5,6.1,3.3,6.6,6.9c-0.6,0-1.2,0.1-1.7,0.5c-0.9,0.6-1.5,1.6-1.6,2.7l-0.1,0.5L224.8,243.9z
		 M215.7,299.3c0,0.5,0.2,1,0.6,1.2l-4.4,26.3l-0.4-0.1c-0.7-0.1-1.4,0.1-2,0.5c-0.7,0.5-1.4,1.3-1.6,2.2l-9.6-1.3
		c0.1-1.8-1-3.3-2.5-3.5l-0.4-0.1l4.4-26.3c0.4-0.2,0.7-0.5,1-1l2.6,0.3l0.1-0.5c0.1-1.1-0.1-2.2-0.7-3c-0.4-0.5-1-0.9-1.6-1
		c1.6-3.3,5-5.4,8.5-5h0.2c3.5,0.5,6.1,3.3,6.6,6.9c-0.6,0-1.2,0.1-1.7,0.5c-0.9,0.6-1.5,1.6-1.6,2.7l-0.1,0.5L215.7,299.3z
		 M206.6,354.5c0,0.5,0.2,1,0.6,1.2l-4.4,26.3l-0.4-0.1c-0.7-0.1-1.4,0.1-2,0.5c-0.7,0.5-1.2,1.3-1.5,2.2l-9.6-1.3
		c0.1-1.8-1-3.3-2.5-3.5h-0.4l4.4-26.3c0.4-0.2,0.7-0.5,1-1l2.6,0.3l0.1-0.5c0.2-1.1-0.1-2.2-0.7-3c-0.4-0.5-1-0.8-1.6-1
		c1.6-3.3,5-5.4,8.5-4.9h0.2c3.5,0.4,6.1,3.3,6.6,6.9c-0.6,0-1.2,0.1-1.7,0.5c-0.9,0.6-1.5,1.6-1.6,2.7l-0.1,0.5L206.6,354.5z
		 M197.7,409.6c0,0.5,0.2,1,0.6,1.2l-4.4,26.3l-0.4-0.1c-1.6-0.2-3.1,1-3.6,2.7l-9.6-1.2c0.1-1.8-1-3.3-2.5-3.5h-0.4l4.4-26.3
		c0.4-0.1,0.7-0.5,1-1l2.6,0.3l0.1-0.5c0.2-1.9-0.7-3.7-2.4-4c1.6-3.3,5.1-5.4,8.5-4.9h0.2c3.5,0.5,6.1,3.3,6.6,6.9
		c-1.6-0.1-3.1,1.3-3.5,3.2l-0.1,0.5L197.7,409.6z M43.9,386.2c-0.5-0.5-1.1-0.9-1.7-1h-0.1c1.6-3.3,5-5.4,8.5-4.9h0.2
		c3.5,0.5,6,3.3,6.6,6.9c-1.6-0.2-3.2,1.2-3.6,3.2l-0.1,0.5l2.6,0.3c0,0.5,0.2,1,0.6,1.2l-4.4,26.3h-0.4c-1.6-0.2-3.1,1-3.6,2.7
		l-9.2-1.2c0-1-0.2-1.9-0.7-2.5s-1.1-0.9-1.7-1h-0.4l4.4-26.3c0.4-0.1,0.7-0.5,1-1l2.6,0.3l0.1-0.5C44.8,388.1,44.6,387,43.9,386.2z
		 M53,331.1c-0.5-0.6-1.1-0.9-1.7-1h-0.1c1.6-3.3,5.1-5.4,8.5-4.9h0.2c3.5,0.4,6,3.3,6.6,6.9c-1.7-0.2-3.2,1.2-3.6,3.2l-0.1,0.5
		l2.6,0.3c0,0.5,0.2,1,0.6,1.2l-4.4,26.3h-0.4c-0.6-0.1-1.4,0.1-2,0.5c-0.7,0.5-1.2,1.3-1.5,2.2l-9.2-1.2c0-0.9-0.2-1.8-0.7-2.5
		c-0.5-0.6-1.1-0.9-1.7-1h-0.4l4.4-26.3c0.4-0.2,0.7-0.5,1-1l2.6,0.3l0.1-0.5C53.9,332.9,53.6,331.9,53,331.1z M62,275.9
		c-0.5-0.6-1.1-0.9-1.7-1h-0.1c1.6-3.3,5.1-5.4,8.5-5h0.2c3.5,0.5,6,3.3,6.6,6.9c-1.6-0.2-3.2,1.2-3.6,3.2l-0.1,0.5l2.6,0.3
		c0,0.5,0.2,1,0.6,1.2l-4.1,26.5l-0.4-0.1c-0.7-0.1-1.4,0.1-2,0.5c-0.7,0.5-1.4,1.3-1.6,2.2l-9.2-1.2c0.1-1.8-1-3.3-2.5-3.5h-0.4
		l4.4-26.3c0.4-0.2,0.7-0.5,1-1l2.6,0.3l0.1-0.5C62.9,277.8,62.7,276.7,62,275.9z M69.3,219.5L69.3,219.5c1.6-3.4,5-5.4,8.5-5H78
		c3.5,0.4,6,3.3,6.6,6.9c-1.6-0.2-3.2,1.2-3.6,3.2l-0.1,0.5l2.6,0.3c0,0.5,0.2,1,0.6,1.2L79.9,253h-0.4c-0.6-0.1-1.4,0.1-2,0.5
		c-0.9,0.5-1.4,1.5-1.6,2.5l-9.2-1.2c0.1-1.1-0.1-2.1-0.7-2.8c-0.5-0.6-1.1-0.9-1.7-1l-0.4-0.1l4.4-26.3c0.4-0.2,0.7-0.5,1-1
		l2.6,0.4l0.1-0.5C72.1,221.5,71,219.7,69.3,219.5z M80.1,165.3c-0.5-0.5-1.1-0.9-1.7-1h-0.1c1.6-3.3,5.1-5.4,8.5-4.9h0.2
		c3.5,0.4,6,3.3,6.6,6.9c-0.6-0.1-1.4,0.1-2,0.5c-0.9,0.6-1.5,1.6-1.6,2.7l-0.1,0.5l2.6,0.4c0,0.5,0.2,1,0.6,1.2l-4.4,26.3h-0.4
		c-1.6-0.2-3.1,1-3.6,2.7l-9.2-1.2c0.1-1.8-1-3.3-2.5-3.5l-0.4-0.1l4.4-26.3c0.4-0.2,0.7-0.5,1-1l2.6,0.3l0.1-0.5
		C81.1,167.1,80.8,166,80.1,165.3z M98.5,166.9c2-3.3,6.1-5.3,10.3-4.7h0.4c4.4,0.6,7.6,3.5,8.5,7.2c-1.6,0-3,1.3-3.4,3.2l-0.1,0.5
		l2.6,0.3c0,0.5,0.2,1,0.6,1.2l-4.2,26.4l-0.4-0.1c-1.6-0.2-3.1,1-3.6,2.7l-13.8-1.8c0-1-0.2-1.9-0.7-2.5c-0.5-0.6-1.1-0.9-1.7-1
		l-0.4-0.1l4.4-26.2c0.4-0.1,0.7-0.5,1-1l2.6,0.3l0.1-0.5C100.9,169,100,167.3,98.5,166.9z M122.7,170.1c2-3.3,6.1-5.3,10.3-4.7h0.4
		c4.4,0.6,7.6,3.5,8.5,7.2c-1.6-0.1-3.1,1.3-3.5,3.2l-0.1,0.5l2.6,0.3c0,0.5,0.2,1,0.6,1.2l-4.4,26.3h-0.4c-1.6-0.2-3.1,1-3.6,2.7
		l-13.4-1.8c0.1-1.8-1-3.3-2.5-3.5h-0.4l4.4-26.3c0.4-0.1,0.7-0.5,1-1l2.6,0.3l0.1-0.5C125.2,172.1,124.2,170.4,122.7,170.1z
		 M133.2,115.9c-0.5-0.6-1.1-0.9-1.7-1h-0.2c2-3.6,6.3-5.7,11.1-5.1h0.4c4.6,0.6,8.1,3.8,8.9,7.7h-0.4c-0.7-0.1-1.4,0.1-2,0.5
		c-0.9,0.6-1.5,1.6-1.6,2.7l-0.1,0.5l2.6,0.4c0,0.5,0.2,1,0.6,1.2l-4.4,26.3L146,149c-1.5-0.2-3.1,1-3.6,2.7l-13.5-1.8
		c0.1-1.8-1-3.3-2.5-3.5H126l4.4-26.3c0.4-0.1,0.7-0.5,1-1l2.6,0.3l0.1-0.5C134,117.7,133.8,116.6,133.2,115.9z M172.5,177.3
		c-0.4-0.4-0.7-0.7-1.2-0.9c2-3.3,6.1-5.3,10.3-4.7h0.4c4.4,0.6,7.6,3.5,8.5,7.2c-1.6,0-3,1.4-3.2,3.2l-0.1,0.5l2.6,0.3
		c0,0.5,0.2,1,0.6,1.2l-4.4,26.3l-0.4-0.1c-1.6-0.2-3.1,1-3.6,2.7l-13.9-1.8c0.1-1.8-1-3.3-2.5-3.5l-0.4-0.1l4.4-26.3
		c0.4-0.1,0.7-0.5,1-1l2.6,0.3l0.1-0.5C173.3,179.2,173.1,178.1,172.5,177.3z M196.9,180.5c-0.4-0.5-0.9-0.8-1.5-0.9
		c2-3.3,6.1-5.3,10.3-4.7h0.4c4.4,0.6,7.6,3.5,8.5,7.2c-0.6,0-1.1,0.2-1.7,0.5c-0.9,0.6-1.5,1.6-1.6,2.7l-0.1,0.5l2.6,0.3
		c0,0.5,0.2,1,0.6,1.2l-4.4,26.3h-0.4c-0.7-0.1-1.4,0.1-2,0.5c-0.7,0.5-1.4,1.3-1.6,2.2l-13.7-1.8c0.1-1.8-1-3.3-2.5-3.5h-0.4
		l4.4-26.3c0.4-0.1,0.7-0.5,1-1l2.6,0.3l0.1-0.5C197.8,182.3,197.6,181.2,196.9,180.5z M204.2,124.4h-0.2c2-3.6,6.3-5.7,11.1-5.1
		l0.4,0.1c4.6,0.6,8.2,3.8,8.9,7.7H224c-1.7-0.2-3.4,1.2-3.6,3.2l-0.1,0.5l2.6,0.3c0,0.5,0.2,1,0.6,1.2l-4.4,26.3l-0.4-0.1
		c-1.5-0.2-3.1,1-3.6,2.7l-13.7-1.8c0-0.9-0.2-1.8-0.7-2.5c-0.5-0.5-1.1-0.9-1.7-1l-0.4-0.1l4.4-26.3c0.4-0.2,0.7-0.5,1-1l2.6,0.3
		l0.1-0.5C207,126.3,205.9,124.6,204.2,124.4z M204.8,241.3c0,0.5,0.2,1,0.6,1.2l-4.4,26.3l-0.4-0.1c-0.6-0.1-1.4,0.1-2,0.5
		c-0.9,0.6-1.4,1.5-1.6,2.5l-13.5-1.8c0.2-1.9-0.9-3.6-2.5-3.8h-0.4l4.4-26.3c0.4-0.1,0.7-0.5,1-1l2.6,0.3l0.1-0.5
		c0.2-1.1-0.1-2.2-0.7-3c-0.4-0.5-0.9-0.8-1.5-0.9c2-3.3,6.1-5.3,10.3-4.7l0.4,0.1c4.4,0.6,7.6,3.5,8.5,7.2c-1.6,0-3.1,1.3-3.4,3.2
		l-0.1,0.5L204.8,241.3z M195.6,296.7c0,0.5,0.2,1,0.6,1.2l-4.4,26.3h-0.4c-0.7-0.1-1.4,0.1-2,0.5c-0.7,0.5-1.4,1.3-1.6,2.2
		l-13.7-1.8c0-1-0.2-1.9-0.7-2.5c-0.5-0.6-1.1-0.9-1.7-1l-0.4-0.1l4.4-26.3c0.5-0.1,0.7-0.5,1-1l2.6,0.3l0.1-0.5
		c0.1-1.1-0.1-2.2-0.7-3c-0.4-0.5-0.9-0.8-1.5-0.9c2-3.3,6.1-5.3,10.3-4.7l0.4,0.1c4.4,0.6,7.6,3.5,8.5,7.2c-1.6,0-3.1,1.3-3.4,3.2
		l-0.1,0.5L195.6,296.7z M186.6,351.9c0,0.5,0.2,1,0.6,1.2l-4.4,26.3h-0.4c-1.5-0.2-3.1,1-3.6,2.7l-13.7-1.8c0-0.9-0.2-1.8-0.7-2.5
		c-0.5-0.6-1.1-0.9-1.7-1l-0.4-0.1l4.4-26.3c0.4-0.1,0.7-0.5,1-1l2.6,0.3l0.1-0.5c0.1-1.1-0.1-2.2-0.7-3c-0.4-0.5-0.9-0.8-1.5-0.9
		c2-3.3,6.1-5.3,10.3-4.7h0.4c4.4,0.6,7.6,3.5,8.5,7.2c-1.6,0-3.1,1.3-3.4,3.2l-0.1,0.5L186.6,351.9z M104.7,397.5
		c0,0.5,0.2,1,0.6,1.2L101,425h-0.4c-0.7-0.1-1.4,0.1-2,0.5c-0.7,0.5-1.2,1.3-1.6,2.2L83.6,426c0-1-0.2-1.9-0.7-2.5s-1.1-0.9-1.7-1
		h-0.4l4.4-26.3c0.4-0.1,0.7-0.5,1-1l2.6,0.3l0.1-0.5c0.1-1.1-0.1-2.2-0.7-3c-0.4-0.5-0.9-0.8-1.5-0.9c2-3.3,6.1-5.3,10.3-4.7h0.4
		c4.4,0.5,7.6,3.5,8.5,7.1c-0.6,0-1.2,0.1-1.7,0.5c-0.9,0.6-1.5,1.6-1.6,2.7l-0.1,0.5L104.7,397.5z M63.6,388.8
		c-0.4-0.5-0.9-0.8-1.4-0.9c2-3.3,6.1-5.3,10.3-4.7l0.4,0.1c4.4,0.6,7.6,3.5,8.5,7.2c-1.6,0-3,1.4-3.4,3.2l-0.1,0.5l2.6,0.3
		c0,0.5,0.2,1,0.6,1.2L77,421.9l-0.4-0.1c-0.7-0.1-1.4,0.1-2,0.5c-0.7,0.5-1.4,1.3-1.6,2.2l-13.8-1.8c0-1-0.2-1.9-0.7-2.5
		c-0.5-0.6-1.1-0.9-1.7-1h-0.4l4.4-26.3c0.4-0.2,0.7-0.5,1-1l2.6,0.3l0.1-0.5C64.6,390.6,64.3,389.5,63.6,388.8z M72.6,333.6
		c-0.4-0.5-0.9-0.8-1.4-0.9c2-3.3,6.1-5.3,10.3-4.7H82c4.4,0.6,7.6,3.5,8.5,7.2c-1.6,0-3,1.3-3.4,3.2l-0.1,0.5l2.6,0.3
		c0,0.5,0.2,1,0.6,1.2l-4.4,26.3l-0.4-0.1c-1.5-0.2-3.1,1-3.6,2.7l-13.5-1.7c0.1-1.8-1-3.3-2.6-3.5l-0.4-0.1l4.4-26.3
		c0.4-0.1,0.7-0.5,1-1l2.6,0.3l0.1-0.5C73.6,335.5,73.3,334.4,72.6,333.6z M80.3,277.5c2-3.3,6.1-5.3,10.3-4.7H91
		c4.4,0.6,7.6,3.5,8.5,7.2c-1.6,0-3,1.3-3.4,3.2l-0.1,0.5l2.6,0.3c0,0.5,0.2,1,0.6,1.2l-4.4,26.3l-0.4-0.1c-1.6-0.2-3.1,1-3.6,2.7
		l-13.8-1.8c0-1-0.2-1.9-0.7-2.6c-0.5-0.6-1.1-0.9-1.7-1h-0.4l4.4-26.3c0.5-0.1,0.7-0.5,1-1l2.6,0.3l0.1-0.5
		C82.7,279.6,81.8,277.9,80.3,277.5z M90.8,223c-0.4-0.5-0.9-0.8-1.4-0.9c2-3.3,6.1-5.3,10.3-4.7l0.4,0.1c4.4,0.6,7.6,3.5,8.5,7.2
		c-1.6,0-3,1.3-3.4,3.2l-0.1,0.5l2.6,0.3c0,0.5,0.2,1,0.6,1.2l-4.4,26.3l-0.4-0.1c-1.6-0.2-3.2,1.1-3.6,3l-13.7-1.8
		c0.2-1.9-0.9-3.6-2.5-3.8l-0.4-0.1l4.4-26.3c0.4-0.1,0.9-0.5,1-1l2.6,0.3l0.1-0.5C91.8,224.9,91.4,223.8,90.8,223z M113.7,225.2
		c2-3.3,6.1-5.3,10.3-4.7h0.4c4.4,0.6,7.6,3.5,8.5,7.2c-0.6,0-1.2,0.1-1.7,0.5c-0.9,0.6-1.5,1.6-1.6,2.7l-0.1,0.5l2.6,0.3
		c0,0.5,0.2,1,0.6,1.2l-4.4,26.3l-0.4-0.1c-1.6-0.2-3.2,1.1-3.6,3l-13.5-1.8c0.2-1.9-0.9-3.6-2.5-3.8h-0.4l4.4-26.3
		c0.4-0.2,0.7-0.5,1-1l2.6,0.3l0.1-0.5C116.1,227.3,115.2,225.6,113.7,225.2z M137.8,228.4c2-3.3,6.1-5.3,10.3-4.7l0.4,0.1
		c0.1,0,0.2,0.1,0.5,0.1c4.1,0.7,7.2,3.5,8,7c-1.6,0-3,1.3-3.4,3.2l-0.1,0.5l2.6,0.3c0,0.5,0.2,1,0.6,1.2l-4.4,26.3h-0.4
		c-1.6-0.2-3.2,1.1-3.6,3l-6.1-0.8l-7.6-1c0.1-1.1-0.1-2.1-0.7-2.8c-0.5-0.6-1.1-0.9-1.7-1l-0.4-0.1l4.4-26.3c0.4-0.2,0.7-0.5,1-1
		l2.6,0.3l0.1-0.5C140.1,230.4,139.3,228.8,137.8,228.4z M162.1,231.6c2-3.3,6.1-5.3,10.4-4.7h0.4c4.4,0.6,7.6,3.5,8.5,7.2
		c-1.6,0-3,1.4-3.2,3.2l-0.1,0.5l2.6,0.4c0,0.5,0.2,1,0.6,1.2l-4.4,26.3l-0.4-0.1c-1.6-0.2-3.2,1.1-3.6,3l-13.9-1.8
		c0.2-1.9-0.9-3.6-2.5-3.8l-0.4-0.1l4.4-26.3c0.5-0.2,0.7-0.5,1-1l2.6,0.3l0.1-0.5C164.5,233.6,163.6,232,162.1,231.6z M171.5,293.6
		c0,0.5,0.2,1,0.6,1.2l-4.4,26.3l-0.4-0.1c-1.6-0.2-3.1,1-3.6,2.7l-13.9-1.8c0.1-1.8-1-3.3-2.5-3.5l-0.4-0.1l4.4-26.3
		c0.5-0.2,0.7-0.5,1-1l2.6,0.3l0.1-0.5c0.2-1.8-0.6-3.4-2-3.9c1.9-3.3,6.1-5.3,10.3-4.7h0.4c4.4,0.6,7.6,3.5,8.5,7.2
		c-1.6,0-3,1.4-3.2,3.2l-0.1,0.5L171.5,293.6z M104.6,280.7c2-3.3,6.1-5.3,10.3-4.7h0.4c4.4,0.6,7.6,3.5,8.5,7.2
		c-0.6,0-1.2,0.1-1.7,0.5c-0.9,0.6-1.5,1.6-1.6,2.7l-0.1,0.5l2.6,0.3c0,0.5,0.2,1,0.6,1.2l-4.4,26.3h-0.4c-0.7-0.1-1.4,0.1-2,0.5
		c-0.7,0.5-1.4,1.3-1.6,2.2l-13.5-1.8c0.1-1.8-1-3.3-2.5-3.5h-0.4l4.4-26.3c0.4-0.1,0.7-0.5,1-1l2.6,0.3l0.1-0.5
		C107.1,282.7,106.1,281.1,104.6,280.7z M127.1,288.9c0.5-0.1,0.9-0.5,1-1l2.6,0.4l0.1-0.5c0.1-1.1-0.1-2.2-0.7-3
		c-0.4-0.4-0.9-0.7-1.4-0.9c2-3.3,6.1-5.3,10.3-4.7h0.4c0.2,0,0.4,0.1,0.5,0.1c4.1,0.7,7.1,3.5,7.8,7c-1.6,0-3.1,1.4-3.4,3.2
		l-0.1,0.5l2.6,0.3c0,0.5,0.2,1,0.6,1.2l-4.4,26.3h-0.4c-1.6-0.2-3.1,1-3.6,2.7l-6.1-0.8l-7.7-1c0-1-0.2-1.9-0.7-2.5s-1.1-0.9-1.7-1
		h-0.4L127.1,288.9z M92.5,370.8c0.1-1.8-1-3.3-2.5-3.5l-0.4-0.1l4.4-26.3c0.4-0.1,0.9-0.5,1-1l2.6,0.3l0.1-0.5
		c0.2-1.8-0.6-3.5-2.2-3.9c2-3.3,6.1-5.3,10.3-4.7h0.4c4.4,0.6,7.6,3.5,8.5,7.2c-0.6,0-1.2,0.1-1.7,0.5c-0.9,0.6-1.5,1.6-1.6,2.7
		l-0.1,0.5l2.6,0.3c0,0.5,0.2,1,0.6,1.2l-4.4,26.3h-0.4c-1.5-0.2-3.1,1-3.6,2.7L92.5,370.8z M118,344.1c0.4-0.2,0.7-0.5,1-1l2.6,0.3
		l0.1-0.5c0.2-1.8-0.6-3.5-2.1-3.9c2-3.3,6.1-5.3,10.3-4.7h0.4c0.2,0,0.4,0.1,0.6,0.2c4,0.8,7.1,3.5,7.8,7c-1.6,0-3,1.3-3.4,3.2
		l-0.1,0.5l2.6,0.3c0,0.5,0.2,1,0.6,1.2l-4.4,26.3h-0.4c-1.6-0.2-3.1,0.9-3.6,2.7l-6-0.8l-7.8-1c0-0.9-0.2-1.8-0.7-2.5
		c-0.5-0.6-1.1-0.9-1.7-1h-0.4L118,344.1z M142.3,347.3c0.4-0.2,0.7-0.5,1-1l2.6,0.3l0.1-0.5c0.2-1.8-0.6-3.4-2-3.9
		c1.9-3.3,6.1-5.3,10.3-4.7h0.4c4.4,0.6,7.6,3.5,8.5,7.2c-1.5,0-3,1.4-3.2,3.2l-0.1,0.5l2.6,0.3c0,0.5,0.2,1,0.6,1.2l-4.4,26.3h-0.4
		c-1.5-0.2-3.1,1-3.6,2.7l-13.9-1.8c0-0.9-0.2-1.8-0.7-2.5c-0.5-0.6-1.1-0.9-1.7-1l-0.4-0.1L142.3,347.3z M165.2,179.8
		c0,0.5,0.2,1,0.6,1.2l-4.4,26.3l-0.4-0.1c-1.6-0.2-3.1,1-3.6,2.7l-6.2-0.8l-7.6-1c0.1-1.8-1-3.3-2.5-3.5l-0.4-0.1l4.4-26.3
		c0.4-0.1,0.7-0.5,1-1l2.6,0.3l0.1-0.5c0.2-1.8-0.6-3.5-2.1-3.9c2-3.3,6.1-5.3,10.3-4.7h0.4c0.1,0,0.2,0.1,0.4,0.1
		c4.1,0.7,7.2,3.5,8.1,7.1c-1.6,0-3,1.3-3.4,3.2l-0.1,0.5L165.2,179.8z M105.1,425.6h-0.4l4.4-26.3c0.4-0.1,0.7-0.5,1-1l2.6,0.3
		l0.1-0.5c0.2-1.8-0.6-3.5-2.1-3.9c2-3.3,6.1-5.3,10.3-4.7h0.4c0.2,0,0.5,0.1,0.6,0.2c4,0.8,7,3.5,7.7,7c-0.6,0-1.1,0.2-1.7,0.5
		c-0.9,0.6-1.5,1.6-1.6,2.7l-0.1,0.5l2.6,0.4c0,0.5,0.2,1,0.6,1.2l-4.4,26.3l-0.4-0.1c-1.6-0.2-3.1,1-3.6,2.7l-6-0.8l-7.8-1
		C107.7,427.3,106.6,425.8,105.1,425.6z M133.2,402.4c0.4-0.1,0.7-0.5,1-1l2.6,0.3l0.1-0.5c0.2-1.8-0.6-3.4-2-3.9
		c1.9-3.3,6.1-5.3,10.4-4.7h0.4c4.4,0.6,7.6,3.5,8.5,7.2c-0.5,0-1.1,0.2-1.6,0.5c-0.9,0.6-1.5,1.6-1.7,2.7l-0.1,0.5l2.6,0.3
		c0,0.5,0.2,1,0.6,1.2l-4.4,26.3h-0.4c-1.6-0.2-3.1,1-3.6,2.7l-13.9-1.8c0-1-0.2-1.9-0.7-2.5s-1.1-0.9-1.7-1l-0.4-0.1L133.2,402.4z
		 M157.7,405.6c0.4-0.1,0.7-0.5,1-1l2.6,0.3l0.1-0.5c0.2-1.9-0.6-3.5-2.2-3.9c2-3.3,6.1-5.3,10.3-4.7h0.4c4.4,0.6,7.6,3.5,8.5,7.2
		c-1.6,0-3.1,1.3-3.4,3.2l-0.1,0.5l2.6,0.3c0,0.5,0.2,1,0.6,1.2l-4.4,26.3l-0.4-0.1c-1.6-0.2-3.1,1-3.6,2.7l-13.7-1.8
		c0.1-1.8-1-3.3-2.5-3.5h-0.4L157.7,405.6z M201.8,69.8c1.2-7.5,9.1-12.7,17.5-11.6c4.1,0.5,7.7,2.5,10.2,5.4s3.5,6.6,2.9,10.2
		l-5.3,32.6l-30.6-4L201.8,69.8z M190.7,116h0.4c4.6,0.6,8.1,3.8,8.9,7.7h-0.2c-1.7-0.2-3.4,1.2-3.6,3.2l-0.1,0.5l2.6,0.4
		c0,0.5,0.2,1,0.6,1.2l-4.4,26.3l-0.4-0.1c-0.7-0.1-1.4,0.1-2,0.5c-0.7,0.5-1.2,1.3-1.6,2.2l-13.9-1.8c0-1-0.2-1.8-0.7-2.5
		c-0.5-0.6-1.1-0.9-1.7-1h-0.4l4.4-26.3c0.5-0.2,0.9-0.5,1-1l2.6,0.4l0.1-0.5c0.4-2-0.7-3.8-2.5-4h-0.1
		C181.7,117.6,186,115.4,190.7,116z M155.2,122.2l2.6,0.3l0.1-0.5c0.4-2-0.7-3.8-2.5-4h-0.1c2-3.6,6.3-5.7,11.1-5.1h0.4
		c0.1,0,0.2,0.1,0.4,0.1c4.5,0.7,7.8,3.8,8.6,7.6h-0.2c-1.7-0.2-3.4,1.2-3.7,3.2l-0.1,0.5l2.6,0.3c0,0.5,0.2,1,0.6,1.2l-4.4,26.3
		l-0.4-0.1c-1.5-0.2-3.1,1-3.6,2.7l-6.2-0.8l-7.5-1c0.1-1.8-1-3.3-2.5-3.5H150l4.4-26.3C154.7,123,155.1,122.6,155.2,122.2z
		 M110.8,57.7c1.7-10.3,12.4-17.4,24-15.9s19.6,11.1,17.9,21.4L147.3,96l-41.9-5.5L110.8,57.7z M105.8,116.9c0.5-0.1,0.7-0.5,1-1
		l2.6,0.4l0.1-0.5c0.4-2-0.7-3.8-2.5-4h-0.2c2-3.6,6.3-5.7,11.1-5.1l0.4,0.1c4.6,0.6,8.2,3.8,8.9,7.7H127c-1.7-0.2-3.4,1.2-3.7,3.2
		l-0.1,0.5l2.6,0.3c0,0.5,0.2,1,0.6,1.2L122,146l-0.4-0.1c-0.7-0.1-1.4,0.1-2,0.5c-0.7,0.5-1.2,1.3-1.6,2.2l-13.8-1.8
		c0.1-1.8-1-3.3-2.5-3.5l-0.4-0.1L105.8,116.9z M87.2,113.3l2.6,0.3l0.1-0.5c0.4-2-0.7-3.7-2.5-4l-0.6-0.1c1.7-3.6,5.3-5.9,9.2-5.4
		h0.2c3.7,0.5,6.6,3.6,7.1,7.5l-0.5-0.1c-1.7-0.2-3.4,1.2-3.6,3.2l-0.1,0.5l2.6,0.3c0,0.5,0.2,1,0.6,1.2L98,142.5h-0.4
		c-0.6-0.1-1.4,0.1-2,0.5c-0.7,0.5-1.2,1.3-1.5,2.2l-9.2-1.2c0.1-1.8-1-3.3-2.5-3.5l-0.4-0.1l4.4-26.3
		C86.6,114.2,86.9,113.8,87.2,113.3z M69.5,112.1c0.4-0.1,0.7-0.5,1-1l2.6,0.3l0.1-0.4c0.1-1.1-0.1-2.2-0.7-3
		c-0.5-0.6-1.1-0.9-1.7-1l-1-0.1c1.5-3.6,4.6-6,7.7-5.6h0.2c3.1,0.4,5.2,3.4,5.6,7.3h-0.1c-1.7-0.2-3.4,1.2-3.6,3.2l-0.1,0.5
		l2.6,0.4c0,0.5,0.2,1,0.6,1.2l-4.5,26.3l-0.4-0.1c-1.5-0.2-3.1,1-3.6,2.7L68,142c0-0.9-0.2-1.8-0.7-2.5c-0.5-0.5-1.1-0.9-1.7-1
		h-0.4L69.5,112.1z M60.5,167.3c0.4-0.1,0.7-0.5,1-1l2.6,0.3l0.1-0.5c0.4-2-0.7-3.8-2.5-4l-0.4-0.1c1.5-3.3,4.2-5.5,7-5.1h0.2
		c2.7,0.4,4.7,3.1,5.1,6.7c-1.5,0.1-3,1.4-3.2,3.2l-0.1,0.5l2.6,0.3c0,0.5,0.2,1,0.6,1.2l-4.4,26.3h-0.4c-1.6-0.2-3.1,1-3.6,2.7
		L59,197c0-1-0.2-1.9-0.7-2.5c-0.5-0.6-1.1-0.9-1.7-1l-0.4-0.1L60.5,167.3z M51.4,222.4c0.4-0.2,0.7-0.5,1-1l2.6,0.3l0.1-0.5
		c0.4-2-0.7-3.8-2.5-4l-0.5-0.1c1.5-3.4,4.2-5.5,7-5.1h0.2c2.7,0.4,4.7,3.2,5.1,6.8c-1.5,0.1-2.9,1.4-3.2,3.2l-0.1,0.5l2.6,0.3
		c0,0.5,0.2,1,0.6,1.2L60,250.3h-0.4c-0.7-0.1-1.4,0.1-2,0.5c-0.9,0.6-1.4,1.5-1.6,2.5l-6.2-0.8c0.2-1.9-0.9-3.6-2.5-3.8l-0.4-0.1
		L51.4,222.4z M42.3,277.9c0.4-0.1,0.7-0.5,1-1l2.6,0.3l0.1-0.5c0.4-2-0.7-3.8-2.5-4l-0.5-0.1c1.5-3.4,4.2-5.5,7-5.1h0.2
		c2.7,0.4,4.7,3.1,5.1,6.8c-1.5,0.1-2.9,1.4-3.2,3.2l0,0.5l2.6,0.3c0,0.5,0.2,1,0.6,1.2L51,305.8h-0.4c-1.6-0.2-3.1,1-3.6,2.7
		l-6.2-0.8c0.1-1.8-1-3.3-2.5-3.5l-0.4-0.1L42.3,277.9z M33.2,333.1c0.4-0.2,0.7-0.5,1-1l2.6,0.3l0.1-0.5c0.4-2-0.7-3.8-2.5-4
		l-0.4-0.1c1.5-3.4,4.2-5.5,7-5.1h0.2c2.7,0.4,4.7,3.1,5.1,6.7c-1.5,0.1-2.9,1.4-3.2,3.2l-0.1,0.5l2.6,0.3c0,0.5,0.2,1,0.6,1.2
		l-4.4,26.3l-0.4-0.1c-1.5-0.2-3.1,1-3.6,2.7l-6.2-0.8c0.1-1.8-1-3.3-2.5-3.5h-0.4L33.2,333.1z M24.2,388.2c0.5-0.1,0.7-0.5,1-1
		l2.6,0.3l0.1-0.5c0.2-1.1-0.1-2.2-0.7-3c-0.5-0.5-1.1-0.9-1.7-1H25c1.5-3.3,4.2-5.5,7-5.1h0.2c2.7,0.4,4.7,3.1,5.1,6.7
		c-0.5,0-1,0.2-1.5,0.5c-0.9,0.6-1.5,1.6-1.6,2.7l-0.1,0.5l2.6,0.3c0,0.5,0.2,1,0.6,1.2L33,416.1l-0.4-0.1c-1.6-0.2-3.1,1-3.6,2.7
		l-6.2-0.8c0-1-0.2-1.9-0.7-2.5s-1.1-0.9-1.7-1l-0.4-0.1L24.2,388.2z M214.5,411.8c0,0.5,0.2,1,0.6,1.2l-4.4,26.3h-0.4
		c-0.7-0.1-1.4,0.1-2,0.5c-0.7,0.5-1.4,1.3-1.6,2.2l-6.3-0.8c0.1-1.8-1-3.3-2.5-3.5l-0.4-0.1l4.4-26.3c0.4-0.1,0.7-0.5,1-1l2.6,0.3
		l0.1-0.5c0.4-1.9-0.7-3.7-2.4-4c1.5-3.4,4.2-5.5,7-5.1h0.2c2.7,0.4,4.7,3.1,5.1,6.7c-1.7-0.2-3.4,1.2-3.6,3.2l-0.1,0.5L214.5,411.8
		z M223.5,356.7c0,0.5,0.2,1,0.6,1.2l-4.4,26.3l-0.4-0.1c-1.5-0.2-3.1,1-3.6,2.7l-6.3-0.8c0-0.9-0.2-1.8-0.7-2.5
		c-0.5-0.5-1.1-0.9-1.7-1h-0.4l4.4-26.3c0.4-0.1,0.7-0.5,1-1l2.6,0.3l0.1-0.5c0.4-2-0.7-3.7-2.4-4c1.5-3.3,4.2-5.5,7-5.1h0.2
		c2.7,0.4,4.7,3.1,5.1,6.7c-0.6-0.1-1.4,0.1-2,0.5c-0.9,0.6-1.5,1.6-1.6,2.7l-0.1,0.5L223.5,356.7z M232.6,301.5
		c0,0.5,0.2,1,0.6,1.2l-4.4,26.3h-0.4c-1.6-0.2-3.1,1-3.6,2.7l-6.3-0.8c0-1-0.2-1.9-0.7-2.5c-0.5-0.5-1.1-0.9-1.7-1h-0.4l4.2-26.4
		c0.4-0.1,0.7-0.5,1-1l2.6,0.3l0.1-0.5c0.1-1.1-0.1-2.2-0.7-3c-0.4-0.5-1-0.8-1.6-0.9c1.5-3.4,4.2-5.5,7-5.2h0.2
		c2.7,0.4,4.7,3.1,5.1,6.7c-0.6-0.1-1.4,0.1-2,0.5c-0.9,0.6-1.5,1.6-1.6,2.7l-0.1,0.5L232.6,301.5z M241.7,246.1
		c0,0.5,0.2,1,0.6,1.2l-4.4,26.3l-0.4-0.1c-1.6-0.2-3.2,1.1-3.6,3l-6.3-0.8c0.1-1.1-0.1-2.1-0.7-2.8c-0.5-0.5-1.1-0.9-1.7-1h-0.4
		l4.4-26.3c0.4-0.1,0.7-0.5,1-1l2.6,0.4l0.1-0.5c0.2-1.1-0.1-2.2-0.7-3c-0.5-0.5-1-0.8-1.6-1c1.5-3.4,4.2-5.5,7-5.2h0.2
		c2.7,0.4,4.7,3.2,5.1,6.7c-0.6-0.1-1.4,0.1-2,0.5c-0.9,0.6-1.5,1.6-1.6,2.7l-0.1,0.5L241.7,246.1z M250.6,190.9
		c0,0.5,0.2,1,0.6,1.2l-4.4,26.3l-0.4-0.1c-1.6-0.2-3.1,1-3.6,2.7l-6.3-0.8c0-0.9-0.2-1.9-0.7-2.5c-0.5-0.6-1.1-0.9-1.7-1l-0.4-0.1
		l4.4-26.3c0.4-0.1,0.7-0.5,1-1l2.6,0.3l0.1-0.5c0.1-1.1-0.1-2.2-0.7-3c-0.4-0.5-1-0.8-1.6-1c1.5-3.4,4.2-5.5,7-5.1h0.2
		c2.7,0.4,4.7,3.2,5.1,6.7c-1.7-0.2-3.4,1.2-3.6,3.2l-0.1,0.5L250.6,190.9z M260.8,131.7c-1.7-0.2-3.4,1.2-3.6,3.2l-0.1,0.5l2.6,0.3
		c0,0.5,0.2,1,0.6,1.2l-4.4,26.3l-0.4-0.1c-0.7-0.1-1.4,0.1-2,0.5c-0.7,0.5-1.2,1.3-1.5,2.2l-6.3-0.8c0.1-1.8-1-3.3-2.5-3.5h-0.4
		l4.4-26.3c0.4-0.1,0.7-0.5,1-1l2.6,0.3l0.1-0.5c0.4-2-0.7-3.8-2.5-4l-0.5-0.1c1.5-3.6,4.6-6,7.7-5.6h0.2c3.1,0.4,5.2,3.4,5.6,7.3
		L260.8,131.7z"/>
</g>
</svg>
