<?xml version="1.0" encoding="utf-8"?>
<!-- Generator: Adobe Illustrator 21.1.0, SVG Export Plug-In . SVG Version: 6.00 Build 0)  -->
<svg version="1.1" id="Layer_5" xmlns="http://www.w3.org/2000/svg" xmlns:xlink="http://www.w3.org/1999/xlink" x="0px" y="0px"
	 viewBox="0 0 550 512" style="enable-background:new 0 0 550 512;" xml:space="preserve">
<g>
	<path d="M535,103.1v-0.3c0,0,0.5-3.7-1.7-6.2c-1.5-1.9-5-2.7-5-2.7l0,0l0,0L46,92.1c0,0-3.5,0.1-5.6,1.8c-2.3,2-2.9,4.5-2.9,4.6
		l0,0v18l-7-5.3c-1.8-1.5-4.1-0.5-5.3,1.7L9.7,138.6c-1.2,2.2-1.3,5.6,0.5,7.1c1,2,3.1,2,4.7,0.8c12-9.8,14-6.5,14-6.5l8.6,7.1v10.6
		h-0.1c0,0-9.5,7.7-8.3,15.2c1.1,6.7,16.8,4.8,23.7,7.8c17.9,7.9,20.9,23.6,20.9,23.6l0,0l0,0c0,0.1,2,18.8-2.6,37.5
		C65.7,264.3,43,301,32.8,320.3c-5.6,10.4-16.1,30.4-20.2,41.4C9,371.3,1.3,402,1.3,402.3l0,0c-0.2,0.2-5.9,9.1,7.9,11.7
		c3,0.6,2.3,0.6,2,0.6c-0.1,0-0.1,0-0.1,0l-6.9,16.1l0,0c0,0.1-1.2,4,1.2,6.7c1.3,1.4,5.3,1.9,5.3,1.9l128.6,20.9l0,0l0,0
		c0.2,0,9.6-0.5,11.7-1.8c1.6-1,3.2-5.6,3.4-7.2c0.5-3.5-0.5-12.8-0.6-13.7c0,0,0-0.1,0.1-0.1l0,0c0.4,0,2.1,0.1,4.4,0.1
		c4.4,0,10.6-0.3,12.9-1.7c1.7-1,4.4-4.4,3.8-6.1c-5.5-18.9-2.4-20-0.6-26.3c4.7-16.5,15.8-15.7,19.1-22.2c3-6.2-6-8.4,1.2-29.1
		c6.6-18.9,21.3-17,19.2-24.2c-5.6-19.2-1.7-19.1,2.3-28.3c5.7-13.2,8-18.2,19.4-20.4c0.6-0.2,1.2-0.2,1.8-0.2
		c7.8,0,20.6,7.8,27.3,9.8c3.8,1.2,15.5,2,15.5,2l0,0l0,0l93.7-3.9c7.4-0.3,12.7-7.4,10.8-14.6c-3.9-15.2-8.2-47.7,1.4-60.1
		c9-11.6,21.2-11.9,21.2-11.9l101.9-3.7c0,0,12.9-0.3,16.1-2.9c4-3.2,5.5-8.1,6.2-11.2c1.6-6,2.6-14.5,3.2-24.5h0.2
		c0.2-4.8,0.4-9.7,0.5-14.5c0,0,0-0.1,0.1-0.1h5.1c0,0,0.1,0,0.1-0.1v-40.5c0,0,0-0.1-0.1-0.1H535V103.1z M361.7,247.3
		c0,11-13.2,24.2-24.2,24.2l-61.8,2c-0.4,0-0.7,0-1.1,0c-10.1,0-19.7-4.5-26.2-12.3l-4.7-5.6c-7.5-9-7.4-20.9-2.1-29.7l0,0l0,0
		c1.7,1.2,5.1,3.7,6.8,4.6c1.7,0.9,7.6,3.3,7.6,3.3s7.4,14.2,11.5,18.2c4.1,4,15.5,11.6,20.9,13.7c1.2,0.5,5,1.1,5.8,0
		c0.8-1.1-1.4-4.4-2.2-5.5c-3.2-5-11.3-17.9-13.1-23.6c-1.7-5.9-1.9-19.1-1.9-25.1l62.7-9.7l0,0c11,0,22.4,12,22.4,23L361.7,247.3z"
		/>
	<polygon points="84.4,75.8 55.1,75.8 50.7,86.7 88.8,86.7 	"/>
	<polygon points="516.2,79.4 488.3,79.4 485,88 522,88 	"/>
	<rect x="542.7" y="103.1" width="4.9" height="40.7"/>
</g>
</svg>
