<?xml version="1.0" encoding="utf-8"?>
<!-- Generator: Adobe Illustrator 21.1.0, SVG Export Plug-In . SVG Version: 6.00 Build 0)  -->
<svg version="1.1" id="Layer_2" xmlns="http://www.w3.org/2000/svg" xmlns:xlink="http://www.w3.org/1999/xlink" x="0px" y="0px"
	 viewBox="0 0 444.4 512" style="enable-background:new 0 0 444.4 512;" xml:space="preserve">
<g>
	<path d="M2,99.8v177.6c1.2-0.4,2.4-0.6,3.8-0.2c4.6,1.4,6.8,6-1,33.3c-1,3.2-0.4,10.9-2.8,17.3V512l181.1-104.4
		c-0.8-2.4-1.2-4.8-1.2-7.3c0-12.7,10.3-23,23.1-23c7,0,13.1,3,17.3,7.7l0,0l134-77.2C281.4,188.3,151.3,106.8,2,99.8z M36.4,138.1
		c8.4-6.7,23.7-6.7,25.8-0.8c1.6,4.4-3.8,10.3-10.7,15.5c-8.7,6.5-21.5,4.4-24.3,1.6C24.3,151.4,25.1,147.2,36.4,138.1z M74.2,256.8
		c5.8-1.6,22.1-12.9,33.8-3.2c9.9,8.3-9.7,14.9-25.6,21.2c-12.1,4.8-37.8,11.9-40,0.8C40.8,268.7,42.8,265.1,74.2,256.8z
		 M70.4,409.6c-24.9,0-44.9-20-44.9-44.8s20.1-44.8,44.9-44.8s44.9,20,44.9,44.8S95.2,409.6,70.4,409.6z M115.7,220.7
		c-16.7,0-30.2-13.5-30.2-30.2s13.5-30.2,30.2-30.2c16.7,0,30.2,13.5,30.2,30.2S132.4,220.7,115.7,220.7z M198.2,227.8
		c-8.7,6.5-19.5,5-22.3,2.2c-4.2-4.2-3-9.3,8.4-18.5c8.4-6.7,23.1-6.5,25.8-0.8C212.6,216.1,205.2,222.7,198.2,227.8z M275.4,314.3
		c-8.5,6.5-19.3,5.2-21.9,2.6c-4.2-4-2.8-8.9,8.5-18.1c8.4-6.7,22.7-6.7,25.3-1.2C289.7,302.6,282.2,309.2,275.4,314.3z"/>
	<path d="M374.4,294.9l69-39.1C350.4,106.8,188.1,5.8,2,0v79.2C159.5,84.9,295.1,169.9,374.4,294.9z"/>
</g>
</svg>
