<?xml version="1.0" encoding="utf-8"?>
<!-- Generator: Adobe Illustrator 21.1.0, SVG Export Plug-In . SVG Version: 6.00 Build 0)  -->
<svg version="1.1" id="Layer_2" xmlns="http://www.w3.org/2000/svg" xmlns:xlink="http://www.w3.org/1999/xlink" x="0px" y="0px"
	 viewBox="0 0 470 512.6" style="enable-background:new 0 0 470 512.6;" xml:space="preserve">
<g>
	<path d="M127.1,342.3v0.2c0,6.4-5.2,11.6-11.6,11.6c-2.2,0-4.2-0.6-5.9-1.7h0L70.3,375c32.4,53.2,90.8,89.7,156.7,92.6V284.7
		L127.1,342.3z M110.2,380.3c-4.1,2.8-9.5,2.3-10.2,1.2c-1.5-2.2,0.7-6.2,4.9-9c4.1-2.8,8.9-2.4,10.3-0.2
		C116.6,374.4,112.7,378.6,110.2,380.3z M144.3,419.3c-4.1,2.8-9.4,2.2-10.1,1.2c-1.5-2.2,0.7-6.2,4.8-9c4.1-2.8,8.8-2.3,10.3-0.2
		C150.7,413.4,146.7,417.6,144.3,419.3z M153.6,368.2c-1.7-2-0.4-5,4.9-8.5c3.9-2.6,9.1-2,10.6,0.1c1.5,2.2-1.9,6-5.1,8
		C160,370.3,154.7,369.5,153.6,368.2z M176,441.6c-7.3,0-13.3-6-13.3-13.3S168.6,415,176,415c7.3,0,13.3,5.9,13.3,13.3
		S183.3,441.6,176,441.6z M178.9,400.5c-4.4-3.7,4.2-6.7,11.2-9.5c5.4-2.2,16.5-5.3,17.7-0.4c0.6,2.4-0.7,4.5-14.6,8.3
		C190.7,399.5,184.2,404.8,178.9,400.5z M210,452.5c-4.2,2.3-8.9,1.9-10,0.6c-1.5-2-0.6-4.9,5-8.3c4.1-2.5,8.4-2.3,9.7-0.1
		C216.1,446.8,213.4,450.7,210,452.5z M196.1,369.8c-11.1,0-20.1-9-20.1-20.1c0-11.1,9-20.1,20.1-20.1c11.1,0,20.1,9,20.1,20.1
		C216.2,360.8,207.2,369.8,196.1,369.8z"/>
	<path d="M229.3,156c0.2-0.3,0.5-0.6,0.7-0.8V89.8C168.1,92.1,107.9,124,72.1,180l51.6,29.9c2.1-1.9,4.8-3,7.8-3
		c6.4,0,11.6,5.2,11.6,11.6c0,0.9-0.1,1.7-0.3,2.5l87.2,50.5V182c-0.2,0.3-0.5,0.5-0.7,0.7c-0.6,0.6-1.4,1-2.4,1.3
		c-5.5,1.9-3.6-7.1-2.3-14.6C225.2,165.6,226.8,159.3,229.3,156z M184.2,127.8c7.3,0,13.3,5.9,13.3,13.3c0,7.3-5.9,13.3-13.3,13.3
		c-7.3,0-13.3-6-13.3-13.3C171,133.7,176.9,127.8,184.2,127.8z M198.9,175.8c0,5-3.1,8.6-5.8,8.6c-2.7,0-3.9-5.6-3.9-8.6
		c0-5,3.5-9,4.8-9C196.7,166.8,198.9,170.8,198.9,175.8z M130.6,169.9c-7.3,0-13.3-5.9-13.3-13.3c0-7.3,5.9-13.3,13.3-13.3
		c7.3,0,13.3,5.9,13.3,13.3C143.9,164,137.9,169.9,130.6,169.9z M159.2,142c-2.6,0-4.7-3.8-4.7-8.4s2.9-8.8,5.5-8.8
		c2.6,0,3.9,4.2,3.9,8.8S161.8,142,159.2,142z M189.2,233.5c-11.1,0-20-9-20-20c0-11.1,9-20,20-20c11.1,0,20,9,20,20
		C209.2,224.6,200.3,233.5,189.2,233.5z M209,131.7c-2.7,0-3.9-5.6-3.9-8.6c0-5,3.5-9,4.8-9c2.7,0,4.8,4,4.8,9
		C214.8,128.1,211.7,131.7,209,131.7z"/>
	<path d="M307.8,328.7c0,0.3,0,0.5,0,0.8v0c0,3.3-0.5,7.2-4.4,9.1c-5.1,2.5-4.4-6.5-4.1-14c0-0.1,0-0.1,0-0.2c0-0.2,0-0.4,0-0.6
		l-40.3-23c-0.2,0.2-0.4,0.3-0.6,0.5c-2,1.6-4.5,2.5-7.2,2.5c-6.4,0-11.6-5.2-11.6-11.6c0-0.5,0-1.1,0.1-1.6c0-0.3,0.1-0.5,0.1-0.7
		l-5.3-3v181.1c62.5-2.3,122.6-34.7,158.5-90.8L307.8,328.7z M245.8,316.2c5.8-4.4,14.4,4.4,22.1,8.8c6.2,3.5,14.2,11.4,19.4,18.5
		c8.5,11.5,5.1,14.1-0.6,18.9c-9.8,8-23.6,2.5-30.1-5.8C242.3,338.7,241.2,319.7,245.8,316.2z M258.9,436.1
		c-0.2,4.9-3.2,8.9-4.9,9.1c-2.7,0.3-4.9-2.1-4.9-8.8c0-5,2.5-8.6,5.2-8.6C257,427.7,259,432.1,258.9,436.1z M265.1,382.8
		c0.4-3.4,2.5-8.6,5.3-8.6c2.7,0,4.2,5.6,4.1,9.5c-0.2,4.9-2.7,7.7-4.5,7.9C267.3,391.9,264.7,387.3,265.1,382.8z M279.6,431
		c-7.3,0-13.3-6-13.3-13.3s5.9-13.3,13.3-13.3c7.3,0,13.3,5.9,13.3,13.3S286.9,431,279.6,431z M308.7,426.3
		c-0.2,4.9-2.7,7.7-4.5,7.9c-2.7,0.3-5.4-4.3-4.9-8.8c0.4-3.4,2.5-8.6,5.3-8.6C307.3,416.7,308.8,422.3,308.7,426.3z M315.8,372
		c-0.7,2.6,0.7,11-5.7,13.3c-5.4,2-3.7-7-2.6-14.5c0.8-5.7,3.6-17,8.5-15.5C318.3,356,319.4,358.2,315.8,372z M332.4,415.5
		c-7.3,0-13.3-5.9-13.3-13.3c0-7.3,5.9-13.3,13.3-13.3c7.3,0,13.3,5.9,13.3,13.3C345.7,409.5,339.7,415.5,332.4,415.5z"/>
	<path d="M235.8,477.3v35.3c77.5-2.3,152.1-42.2,195.5-112.2L401.8,383C364.2,441.5,301.2,475,235.8,477.3z"/>
	<path d="M61.7,380.8L31,398.1c41.7,66.5,113.4,111.6,196.1,114v-34.7C157.1,474.5,96.4,436.9,61.7,380.8z"/>
	<path d="M407,184.7c32.4,61.3,30,133-0.6,191.4l29.5,17.3c37-68.3,39.9-153.3,1.2-226.7L407,184.7z"/>
	<path d="M248,49.9v89.5c0.6-0.2,1.2-0.3,1.9-0.1c2.3,0.7,3.4,3-0.5,16.8c-0.5,1.6-0.2,5.5-1.4,8.7v92.8l91.1-52.6
		c-0.4-1.2-0.6-2.4-0.6-3.7c0-6.4,5.2-11.6,11.6-11.6c3.5,0,6.6,1.5,8.7,3.9l0,0l67.4-38.9C388.5,94.5,323.1,53.4,248,49.9z
		 M265.3,69.2c4.2-3.4,11.9-3.4,13-0.4c0.8,2.2-1.9,5.2-5.4,7.8c-4.4,3.3-10.8,2.2-12.2,0.8C259.2,75.9,259.6,73.8,265.3,69.2z
		 M284.3,129c2.9-0.8,11.1-6.5,17-1.6c5,4.2-4.9,7.5-12.9,10.7c-6.1,2.4-19,6-20.1,0.4C267.5,135,268.5,133.2,284.3,129z M282.4,206
		c-12.5,0-22.6-10.1-22.6-22.6c0-12.5,10.1-22.6,22.6-22.6c12.5,0,22.6,10.1,22.6,22.6C305,195.9,294.9,206,282.4,206z M305.2,110.8
		c-8.4,0-15.2-6.8-15.2-15.2s6.8-15.2,15.2-15.2c8.4,0,15.2,6.8,15.2,15.2S313.6,110.8,305.2,110.8z M346.7,114.4
		c-4.4,3.3-9.8,2.5-11.2,1.1c-2.1-2.1-1.5-4.7,4.2-9.3c4.2-3.4,11.6-3.3,13-0.4C353.9,108.5,350.2,111.8,346.7,114.4z M385.5,158
		c-4.3,3.3-9.7,2.6-11,1.3c-2.1-2-1.4-4.5,4.3-9.1c4.2-3.4,11.4-3.4,12.7-0.6C392.7,152.1,388.9,155.4,385.5,158z"/>
	<path d="M58.8,182.4l-30.1-17.9c-36.4,68.8-39.9,153.3-0.6,226.7l30.1-17.4C25.8,311.3,28.1,240.2,58.8,182.4z"/>
	<path d="M398.3,189.3l-49.4,28.6c0.7,1.5,1.2,3.2,1.2,5c0,6.4-5.2,11.6-11.6,11.6c-4,0-7.5-2-9.5-5l-88.6,51.3l4,2.3
		c1.9-1.4,4.3-2.2,6.8-2.2c6.4,0,11.6,5.2,11.6,11.6c0,0.4,0,0.9-0.1,1.3l37.7,21.8c1-4.3,2.8-7.9,5.6-7.4c2.1,0.4,3.4,2,2.3,11.9
		l88.9,51.5C426.6,316.6,429,248.3,398.3,189.3z M382.4,212.7c0.7-2.5,2.9-3.1,8.8-0.6c4.3,1.8,7.2,7.6,5.5,9.8
		c-1.6,2.1-5.6,0.6-9-1C383.5,218.9,381.9,214.4,382.4,212.7z M372.6,233.3c1.7-1.7,9.7-2.6,27.3,13.7c1.9,1.8,2,4.9,1,11.7
		c-0.8,5.7-14.5,11.2-19.6,5.6C370.2,252.2,369.1,236.9,372.6,233.3z M308.8,295.1c-14.2-2.8-17.2-13.6-17.2-21
		c0-12.5,9.9-18.6,18-17.6c17.4,2.2,36.8,14,36.8,21.9c0,7.2-12.5,9.1-18.8,11.7C322.6,292,315.5,296.4,308.8,295.1z M348.5,301.3
		c-0.8,2.6-2.8,4.5-8.9,1.8c-4.5-1.9-8-6.6-6.9-9c1.1-2.5,5.7-2,9.3-0.4C346.4,295.9,349,299.6,348.5,301.3z M362.5,264.3
		c-1,5.7-7.9-0.3-13.9-5c-4.5-3.6-12.8-11.7-9.2-15.2c1.8-1.7,4.3-1.6,14.4,8.6C355.7,254.6,363.7,257.6,362.5,264.3z M386.1,343.3
		c-1,2.5-4.7,2.4-8.8,0.3c-4.4-2.2-7.5-7.5-6.2-9.9c1.3-2.4,6.2-1.3,9.5,0.8C384.8,337.1,386.8,341.7,386.1,343.3z M375.9,320.3
		c-7.3,0-13.3-6-13.3-13.3c0-7.3,5.9-13.3,13.3-13.3c7.3,0,13.3,5.9,13.3,13.3C389.1,314.3,383.2,320.3,375.9,320.3z M391,293.2
		c-3.9-3-4.7-7.1-3.9-8.1c1.6-2.1,6.9-1.3,10.8,1.7c3.9,3,5.5,6.3,3.8,8.5C400.1,297.4,393.4,295,391,293.2z"/>
	<path d="M435.3,148.2l34.7-19.7C423.2,53.4,341.6,2.5,248-0.4v39.9C327.2,42.4,395.4,85.2,435.3,148.2z"/>
	<path d="M139,227.2c-0.2,0.2-0.4,0.3-0.6,0.5c-1.9,1.4-4.3,2.3-6.9,2.3c-6.4,0-11.6-5.2-11.6-11.6c0-0.4,0-0.8,0.1-1.3
		c0-0.3,0.1-0.5,0.1-0.7l-52.2-30c-30,55-32.3,123.2-1.7,181.6l38.2-22v0c-0.3-1.1-0.5-2.3-0.5-3.5c0-6.4,5.2-11.6,11.6-11.6
		c3.4,0,6.4,1.4,8.5,3.8l100.7-58.2L139,227.2z M77.5,216.1c0.7-2.5,2.9-3.1,8.8-0.6c4.3,1.8,7.2,7.5,5.5,9.8c-1.6,2.1-5.6,0.6-9-1
		C78.6,222.3,77,217.8,77.5,216.1z M80.4,347.6c-1,2.4-5.1,1.2-8.5-0.4c-4.3-2-6.9-7.4-6.4-9.1c0.7-2.5,3.4-2.3,9.3,0.2
		C79.1,340.2,81.4,345.2,80.4,347.6z M74.8,318.2c-7.3,0-13.3-5.9-13.3-13.3c0-7.3,5.9-13.3,13.3-13.3c7.3,0,13.3,6,13.3,13.3
		C88,312.2,82.1,318.2,74.8,318.2z M88,264.8c-7.3,0-13.3-5.9-13.3-13.3c0-7.3,5.9-13.3,13.3-13.3c7.3,0,13.3,6,13.3,13.3
		C101.3,258.9,95.4,264.8,88,264.8z M124,313.9c-1.7,1.7-6.2,0.2-14.5-8.4c-1.9-1.9-10.4-5.2-9.3-11.9c0.9-5.7,8.5,0.6,14.5,5.3
		C119.2,302.3,127.6,310.3,124,313.9z M152.5,303.8c-11.1,0-20.1-9-20.1-20.1s9-20.1,20.1-20.1s20.1,9,20.1,20.1
		S163.6,303.8,152.5,303.8z"/>
	<path d="M229.4,80V45.3C151.9,47.6,77.3,87.5,33.3,157.5l30.1,17.9C101,116.4,164.1,82.3,229.4,80z"/>
</g>
</svg>
