<?xml version="1.0" encoding="utf-8"?>
<!-- Generator: Adobe Illustrator 21.1.0, SVG Export Plug-In . SVG Version: 6.00 Build 0)  -->
<svg version="1.1" id="Layer_3" xmlns="http://www.w3.org/2000/svg" xmlns:xlink="http://www.w3.org/1999/xlink" x="0px" y="0px"
	 viewBox="0 0 572 512" style="enable-background:new 0 0 572 512;" xml:space="preserve">
<g>
	<path d="M554,140.1c-7.8-1-58.7-23.3-110.2,16.6c-51.4,39.9-191.3,149.9-200.2,156.7c-8.9,6.9-37.8,20.8-73,8.9l-122-36.1
		c0,0-11.5-5.1-19.3,0.9c-5.2,4-29,22.5-29,22.5l138.9,101.9c0,0-25.6,27.6-26.2,32.9c0-0.7-24.2,18.7-24.2,18.7l29.9-8.4l7.4,9.6
		c1,1.3,2.6,1.9,3.8,1.5l146.6-55.3c0,0,45.7-25.1,73.7-45.3c6.6-4.8,13-9.5,19.2-14.1l75.8-35.3c2.4-0.9,3.2-3.7,1.5-5.8l-8.9-10.9
		l-1.7,0.7c73.2-58.4,106.6-93.3,106.6-93.3s40.2-39.7,26.6-57.3C565.7,144.8,561.8,141.2,554,140.1z M123.8,453
		c2.9,4.2,4.8,7.8,4.4,8.1c-0.5,0.3-3.2-2.8-6-7c-2.9-4.2-4.8-7.8-4.4-8.1C118.2,445.7,120.9,448.8,123.8,453z"/>
</g>
<g id="_x35_2_2_">
	<path d="M281.4,175.8c0-0.4-0.1-0.8-0.2-1.1C270.7,110.4,216.5,60.8,150,57.3l-4.2,0l-5.6,0l-5.1,0c-52.5,2.7-97.5,34.4-119.2,79.4
		c-0.2,0.5-0.4,0.9-0.6,1.4c-0.3,0.7-0.7,1.4-1,2.1c-0.6,1.3-1.1,2.5-1.7,3.8c-0.4,0.8-0.7,1.6-1,2.5c-0.2,0.6-0.4,1.1-0.6,1.7
		c-0.1,0.3-0.3,0.7-0.4,1.1c-0.2,0.5-0.4,1-0.6,1.6c-0.7,2.1-1.4,4.2-2.1,6.4c-0.3,1.1-0.6,2.1-0.9,3.2c-3.3,11.9-5,24.4-5,37.4
		c0,14,2,27.5,5.8,40.2c7-5,15.1-10.9,17.9-12.9c2.9-2.1,7.6-2.5,12.5-2.3c-0.8-3.1-1.4-6.3-1.8-9.6c-0.7,0.1-1.4,0.1-2.1,0.1
		c-8.9,0-16.1-7.2-16.1-16.1S25.3,181,34.2,181c0.7,0,1.5,0.1,2.2,0.2c7.1-46.3,43.8-83,90.3-89.8c-0.2-0.9-0.3-1.8-0.3-2.7
		c0-8.9,7.2-16.1,16.1-16.1c8.9,0,16.1,7.2,16.1,16.1c0,0.9-0.1,1.9-0.3,2.7c46.4,6.9,83.1,43.5,90.2,89.8c0.8-0.1,1.6-0.2,2.4-0.2
		c8.9,0,16.1,7.2,16.1,16.1c0.1,8.9-7.2,16.1-16.1,16.1c-0.8,0-1.5-0.1-2.3-0.2c-2.3,15.5-7.8,30-16,42.6
		c2.8,1.4,20.5,3.7,44.6-18.6c3.7-12.5,5.6-25.8,5.6-39.5C283.1,190.3,282.5,183,281.4,175.8z"/>
	<polygon points="155,136.8 130.2,136.8 130,220.5 191.6,220.5 191.6,195.1 155,195.1 	"/>
	<path d="M134.8,87.1c0.1,0.1,0.2,0.1,0.4,0.1c0.1,0,0.2,0,0.2-0.1c0.1-0.1,0.2-0.1,0.2-0.2l1.3-1.1c0,0.3,0,0.6,0,0.9v6h-1.9v1.9
		h6.8v-1.9h-2.5v-9.9h-2.1l-3.6,3l0.7,1.1C134.6,87,134.7,87,134.8,87.1z"/>
	<path d="M150.7,93.3c0.3-0.2,0.2-0.4,0.1-0.6c-0.2-0.2-0.6-0.7-0.6-0.7h-2.6c-0.3,0-0.6,0-0.9,0.1c-0.2,0.1-0.4,0.1-0.6,0.2
		l2.1-2.2c0.3-0.3,0.6-0.6,0.8-0.9s0.5-0.6,0.7-0.9c0.1-0.2,0.2-0.4,0.4-0.7c0.1-0.4,0.2-0.9,0.2-1.3c0-0.5-0.1-0.9-0.2-1.3
		c-0.2-0.4-0.4-0.7-0.7-1c-0.3-0.2-0.7-0.5-1.1-0.7c-0.4-0.2-0.9-0.2-1.5-0.2s-1,0.1-1.4,0.2c-0.4,0.2-0.8,0.3-1.2,0.6
		c-0.3,0.2-0.6,0.6-0.8,1c-0.2,0.4-0.4,0.9-0.5,1.4l1.2,0.2c0.1,0,0.1,0,0.2,0s0.1,0,0.2,0c0.2,0,0.4-0.1,0.5-0.2
		c0.1-0.1,0.2-0.2,0.3-0.5c0.1-0.2,0.1-0.2,0.2-0.4c0.1-0.1,0.2-0.2,0.3-0.3c0.1-0.1,0.2-0.2,0.4-0.2c0.2-0.1,0.3-0.1,0.5-0.1
		c0.4,0,0.7,0.1,0.9,0.4c0.2,0.2,0.3,0.6,0.3,1c0,0.2-0.1,0.5-0.1,0.7s-0.2,0.5-0.3,0.7c-0.2,0.2-0.3,0.5-0.5,0.7
		c-0.2,0.2-0.4,0.5-0.7,0.8l-3.2,3.2c-0.2,0.2-0.2,0.2-0.3,0.5c-0.1,0.2-0.1,0.3-0.1,0.5v1.1h8.1L150.7,93.3L150.7,93.3z"/>
	<path d="M255.7,198.1c0.2-0.1,0.5-0.2,0.7-0.3c0.2-0.2,0.4-0.3,0.5-0.5c0.2-0.2,0.2-0.4,0.3-0.7s0.1-0.6,0.1-0.9
		c0-0.4-0.1-0.7-0.2-1.1c-0.1-0.4-0.4-0.6-0.7-0.9c-0.3-0.2-0.6-0.5-1.1-0.6c-0.4-0.2-0.9-0.2-1.5-0.2c-0.5,0-1,0.1-1.4,0.2
		c-0.4,0.2-0.8,0.3-1.2,0.6c-0.3,0.2-0.6,0.6-0.8,1c-0.2,0.4-0.4,0.9-0.5,1.4l1.2,0.2c0.1,0,0.1,0,0.2,0c0.1,0,0.1,0,0.2,0
		c0.2,0,0.4-0.1,0.5-0.2c0.1-0.1,0.2-0.2,0.3-0.5c0.1-0.2,0.1-0.2,0.2-0.4s0.2-0.2,0.3-0.3c0.1-0.1,0.2-0.2,0.4-0.2
		c0.2-0.1,0.3-0.1,0.5-0.1c0.4,0,0.7,0.1,0.9,0.4c0.2,0.2,0.3,0.6,0.3,1c0,0.2,0,0.4-0.1,0.6c-0.1,0.2-0.2,0.3-0.3,0.5
		c-0.2,0.1-0.4,0.2-0.6,0.3c-0.2,0.1-0.6,0.1-1.1,0.1v1.6c0.5,0,0.9,0.1,1.2,0.1c0.3,0.1,0.5,0.2,0.7,0.3c0.2,0.2,0.2,0.3,0.2,0.5
		c0.1,0.2,0.1,0.4,0.1,0.6c0,0.2-0.1,0.4-0.1,0.5c-0.1,0.2-0.2,0.3-0.3,0.5s-0.3,0.2-0.5,0.3c-0.2,0.1-0.4,0.2-0.7,0.2
		c-0.4,0-0.6-0.1-0.9-0.2c-0.2-0.2-0.5-0.5-0.7-0.9c-0.1-0.1-0.2-0.2-0.3-0.2c-0.1-0.1-0.2-0.1-0.4-0.1c-0.1,0-0.2,0-0.2,0
		c-0.1,0-0.2,0.1-0.2,0.1l-1.1,0.4c0.2,0.5,0.4,0.9,0.6,1.3c0.2,0.4,0.5,0.7,0.8,0.9c0.3,0.2,0.7,0.4,1.1,0.5
		c0.4,0.1,0.9,0.2,1.4,0.2s1-0.1,1.5-0.2c0.5-0.2,0.9-0.4,1.2-0.6c0.4-0.2,0.6-0.6,0.8-1.1c0.2-0.4,0.3-0.9,0.3-1.5
		C257.4,199.3,256.9,198.5,255.7,198.1z"/>
	<path d="M35.4,193c-0.3-0.3-0.7-0.6-1.2-0.8c-0.5-0.2-1.1-0.2-1.7-0.2c-0.6,0-1.2,0.1-1.7,0.3c-0.5,0.2-0.9,0.5-1.2,0.8
		c-0.3,0.3-0.6,0.7-0.8,1.2c-0.2,0.4-0.2,0.9-0.2,1.5s0.1,1.1,0.2,1.5c0.2,0.4,0.4,0.7,0.7,1.1c0.3,0.2,0.7,0.5,1.1,0.6
		c0.4,0.1,0.7,0.2,1.1,0.2c0.3,0,0.6-0.1,0.9-0.1s0.6-0.2,0.7-0.2c-0.1,0.1-0.1,0.2-0.2,0.2c-0.1,0.1-0.1,0.2-0.2,0.2l-3.7,4.4h2.2
		c0.2,0,0.6-0.1,0.7-0.2c0.2-0.1,0.4-0.2,0.5-0.4l2.5-3.5c0.2-0.2,0.4-0.6,0.5-0.8c0.2-0.2,0.2-0.6,0.4-0.9c0.1-0.3,0.2-0.6,0.2-0.9
		c0.1-0.3,0.1-0.7,0.1-1.1c0-0.6-0.1-1.1-0.2-1.6C36.1,193.8,35.8,193.4,35.4,193z M33.8,196.9c-0.2,0.3-0.7,0.5-1.2,0.5
		c-1.1,0-1.6-0.6-1.6-1.7c0-0.2,0.1-0.5,0.1-0.7c0.1-0.2,0.2-0.4,0.3-0.6c0.1-0.2,0.2-0.2,0.5-0.4c0.2-0.1,0.4-0.1,0.7-0.1
		c0.2,0,0.5,0.1,0.7,0.1c0.2,0.1,0.4,0.2,0.6,0.3c0.2,0.2,0.2,0.3,0.3,0.6c0.1,0.2,0.1,0.4,0.1,0.7C34.2,196.1,34,196.5,33.8,196.9z
		"/>
</g>
</svg>
