<?xml version="1.0" encoding="utf-8"?>
<!-- Generator: Adobe Illustrator 21.1.0, SVG Export Plug-In . SVG Version: 6.00 Build 0)  -->
<svg version="1.1" id="Layer_3" xmlns="http://www.w3.org/2000/svg" xmlns:xlink="http://www.w3.org/1999/xlink" x="0px" y="0px"
	 viewBox="0 0 572 512" style="enable-background:new 0 0 572 512;" xml:space="preserve">
<g>
	<rect y="460" width="572" height="52"/>
	<path d="M547.3,327.7c-4-6.7-18.5-60.4-81.8-75.7S229,196.4,218.1,193.7c-10.9-2.6-39.9-16.5-52.5-51.5L117.5,24.4
		c0,0-3.2-12.2-12.8-14.5C98.3,8.4,69,1.3,69,1.3l7.2,172.1c0,0-37.6-2.7-42.1,0.1c0.6-0.5-29.7-7.2-29.7-7.2l25.3,18.1l-2.8,11.8
		c-0.4,1.6,0.1,3.2,1.2,3.9L162.7,280c0,0,48.1,20,81.4,29.2c7.9,2.2,15.5,4.2,23,6.2l74.9,37.2c2.2,1.3,4.9,0.2,5.5-2.4l2.9-13.8
		l-1.6-0.9c91.3,20.6,139.4,24.9,139.4,24.9s56.1,6.6,61.3-15C551,339.7,551.4,334.4,547.3,327.7z M34.3,187.2
		c-1.5,4.8-3.1,8.6-3.6,8.5c-0.5-0.2,0.2-4.2,1.7-9.1c1.5-4.8,3.1-8.6,3.6-8.5C36.5,178.4,35.7,182.4,34.3,187.2z"/>
</g>
</svg>
