<?xml version="1.0" encoding="utf-8"?>
<!-- Generator: Adobe Illustrator 21.1.0, SVG Export Plug-In . SVG Version: 6.00 Build 0)  -->
<svg version="1.1" id="Layer_3" xmlns="http://www.w3.org/2000/svg" xmlns:xlink="http://www.w3.org/1999/xlink" x="0px" y="0px"
	 viewBox="0 0 572 512" style="enable-background:new 0 0 572 512;" xml:space="preserve">
<g>
	<rect y="460" width="572" height="52"/>
	<path d="M553.7,7.3C546,6.3,495-16,443.5,23.9S252.3,173.8,243.4,180.7c-8.9,6.9-37.8,20.8-73,8.9l-122-36.1c0,0-11.5-5.1-19.3,0.9
		c-5.2,4-29,22.5-29,22.5l138.9,101.9c0,0-25.6,27.6-26.2,32.9c0-0.7-24.2,18.7-24.2,18.7l29.9-8.4l7.4,9.6c1,1.3,2.6,1.9,3.8,1.5
		l146.6-55.3c0,0,45.7-25.1,73.7-45.3c6.6-4.8,13-9.5,19.2-14.1l75.8-35.3c2.4-0.9,3.2-3.7,1.5-5.8l-8.9-10.9l-1.7,0.7
		c73.2-58.4,106.6-93.3,106.6-93.3s40.2-39.7,26.6-57.3C565.4,12,561.5,8.4,553.7,7.3z M123.5,320.2c2.9,4.2,4.8,7.8,4.4,8.1
		c-0.5,0.3-3.2-2.8-6-7c-2.9-4.2-4.8-7.8-4.4-8.1C117.9,312.9,120.6,316,123.5,320.2z"/>
</g>
</svg>
