<?xml version="1.0" encoding="utf-8"?>
<!-- Generator: Adobe Illustrator 21.1.0, SVG Export Plug-In . SVG Version: 6.00 Build 0)  -->
<svg version="1.1" id="Layer_1" xmlns="http://www.w3.org/2000/svg" xmlns:xlink="http://www.w3.org/1999/xlink" x="0px" y="0px"
	 viewBox="0 0 512 512" style="enable-background:new 0 0 512 512;" xml:space="preserve">
<path d="M256,0C114.6,0,0,114.6,0,256s114.6,256,256,256s256-114.6,256-256S397.4,0,256,0z M342.3,269.6l-128,75.6
	c-2.4,1.5-5,2.2-7.7,2.2c-2.4,0-4.9-0.6-7.3-1.8c-5.1-3.2-7.7-7.5-7.7-13.1V181.1c0-5.8,2.5-10.2,7.7-13.1c5.1-2.7,10.1-2.6,15,0.4
	l128,75.3c5.1,2.9,7.7,7.3,7.7,13.1C350,262.6,347.5,266.9,342.3,269.6z"/>
</svg>
