<?xml version="1.0" encoding="utf-8"?>
<!-- Generator: Adobe Illustrator 21.1.0, SVG Export Plug-In . SVG Version: 6.00 Build 0)  -->
<svg version="1.1" id="Layer_2" xmlns="http://www.w3.org/2000/svg" xmlns:xlink="http://www.w3.org/1999/xlink" x="0px" y="0px"
	 viewBox="0 0 476 512" style="enable-background:new 0 0 476 512;" xml:space="preserve">
<path id="_x36_2_1_" d="M453.3,81.9h-6.7V13.8c0-3.8-1.3-7-4.1-9.7c-2.4-2.8-5.4-4.1-9.2-4.1s-7,1.3-9.7,4.1
	c-2.8,2.8-4.1,5.9-4.1,9.7v68.1H342V13.8c0-3.8-1.3-7-4.1-9.7C335.1,1.3,332,0,328.2,0s-7,1.3-9.7,4.1c-2.4,2.8-3.6,5.9-3.6,9.7
	v68.1h-6.7c-12.9,0-22.9,10-22.9,23v74.2c0,41.9,26.7,77.8,64.8,90.6c0,8.4,0,95.2,0,123c0,29.7-24.5,54.3-55.3,54.3
	c-29.6,0-54.3-24.3-54.3-54.3c0-2.5,0-15.8,0-19.4c0-64.2-56.6-115.7-120.8-115.7C43.5,257.7,0,329.4,0,360h69.6
	c4.5-16.4,22.1-38.9,53.2-38.9c29.8,0,54.3,24.8,54.3,55.3c0,1.1,0,4,0,9.5c0,3.3,0,7.6,0,13c0,55.1,52.4,111.6,120.8,111.6
	s115.7-58.7,115.7-114.7V269.1c37.7-12.7,62.4-48.8,62.4-90c0-16.7,0-74.2,0-74.2C476.2,92,466.2,81.9,453.3,81.9z M339.5,29.7
	h-22.4V13.8c0-3.1,1-5.6,3.1-7.7c2.4-2.4,5.1-3.6,8.2-3.6c3.1,0,5.7,1.2,8.2,3.6c2,2,3.1,4.6,3.1,7.7v15.9H339.5z M444.6,29.7h-22.9
	V13.8c0-3.1,1.1-5.6,3.6-7.7c2-2.4,4.7-3.6,8.2-3.6c3.1,0,5.8,1.2,8.2,3.6c2,2,3.1,4.6,3.1,7.7v15.9H444.6z"/>
</svg>
