<?xml version="1.0" encoding="utf-8"?>
<!-- Generator: Adobe Illustrator 16.0.0, SVG Export Plug-In . SVG Version: 6.00 Build 0)  -->
<!DOCTYPE svg PUBLIC "-//W3C//DTD SVG 1.1 Tiny//EN" "http://www.w3.org/Graphics/SVG/1.1/DTD/svg11-tiny.dtd">
<svg version="1.1" baseProfile="tiny" id="Layer_1" xmlns="http://www.w3.org/2000/svg" xmlns:xlink="http://www.w3.org/1999/xlink"
	 x="0px" y="0px" width="464.473px" height="512px" viewBox="0 0 464.473 512" xml:space="preserve">
<path fill="#010101" d="M230.787,511.992c0,0,56.17,0,56.17-166.271c0-30.955-25.174-56.172-56.17-56.172
	c-30.998,0-56.192,25.217-56.192,56.172C174.594,511.992,230.787,511.992,230.787,511.992z M299.693,455.33
	c2.453-9.535,4.373-19.115,5.867-28.82l1.13-7.682c2.453-1.066,4.906-2.09,7.381-3.199c38.996-17.664,71.828-47.85,92.756-85.184
	c9.537-17.131,16.576-35.627,20.758-54.869c4.844-21.504,6.08-43.926,3.541-65.878c-2.238-20.544-7.701-40.619-16.426-59.456
	c-9.92-22.165-23.701-42.368-41.045-59.392c-17.664-17.643-38.551-32.106-61.334-42.069c-23.423-10.581-49.13-16.042-75.093-16.683
	c-26.026-0.64-52.011,3.542-76.416,12.864c-23.424,8.938-44.928,22.123-63.552,39.125c-17.643,16.043-32.726,35.627-43.648,57.131
	c-9.323,18.304-15.702,37.888-19.243,58.091c-3.542,20.885-3.542,42.368-0.341,63.574c2.88,18.602,8.341,36.906,16.384,54.25
	c18.944,40.129,51.051,73.473,90.837,93.738c4.821,2.219,9.621,4.48,14.763,6.699c0.32,2.582,0.981,5.461,1.28,8.363
	c1.6,9.344,3.542,18.965,5.781,28.266c-8.661-2.9-17.344-6.123-25.685-9.984c-45.909-20.82-84.736-56.789-108.821-101.418
	C17.645,322.594,9.944,301.09,5.144,278.584c-5.482-24.704-6.442-50.709-3.2-76.075c3.2-23.723,9.941-47.168,19.904-68.693
	c11.861-25.344,28.565-48.768,48.448-68.353c19.541-19.541,43.947-35.925,70.613-47.168c27.797-11.669,57.664-17.92,87.701-18.282
	c30.122-0.32,60.245,5.12,88.297,16.17c27.01,10.624,51.926,26.411,73.174,46.208c20.588,19.093,37.547,41.856,50.049,66.965
	c10.58,21.184,17.963,44.288,21.504,67.733c3.84,24.405,3.84,49.429-0.342,73.515c-3.541,22.463-10.922,44.607-20.885,65.131
	c-22.465,45.27-59.713,82.518-104.961,105.002c-11.242,5.461-23.125,10.262-35.306,14.102L299.693,455.33z M310.787,363.703
	L311,353.678c0-6.742,0-13.482-0.982-20.117c-0.318-2.582-0.959-4.822-1.6-7.383c11.883-9.621,21.824-21.822,29.205-35.625
	c5.463-10.262,9.623-21.504,11.883-33.088c2.582-12.844,3.201-26.305,1.303-39.788c-1.58-11.883-4.844-23.424-9.623-34.347
	c-6.078-13.142-14.441-25.344-24.703-35.627c-10.603-10.261-22.484-18.603-35.968-24.725c-14.762-6.4-30.826-10.24-46.869-10.582
	c-16.042-0.32-32.427,2.582-47.509,8.363c-13.482,5.461-26.005,13.163-36.907,23.104c-10.944,9.941-19.925,21.504-26.347,34.646
	c-5.482,10.581-9.301,21.845-11.563,33.707c-2.24,12.203-2.539,24.725-0.96,36.907c1.6,11.883,4.821,23.446,9.621,34.325
	c7.381,16.385,18.283,30.828,31.787,42.711l-1.941,8.66c-1.28,6.742-0.96,13.162-0.96,20.203v9.002
	c-22.485-13.781-41.109-33.707-53.611-56.811c-7.403-13.162-12.523-27.285-15.424-42.068c-3.542-16.385-4.16-33.366-1.92-50.07
	c1.92-15.083,6.102-29.845,12.203-43.349c7.381-16.661,18.283-32.085,31.125-45.248c13.163-13.163,28.565-23.744,45.248-31.125
	c18.624-8.341,38.827-12.842,59.072-13.482c20.565-0.341,41.108,3.2,60.01,10.603c17.344,6.72,33.087,16.662,46.869,29.184
	c13.461,12.522,25.045,27.264,33.365,43.669c6.742,13.482,11.883,27.925,14.465,42.688c2.58,15.424,3.199,31.125,0.959,46.549
	c-1.92,15.082-6.08,29.846-12.543,43.648c-12.502,27.947-34.006,52.01-60.332,67.754L310.787,363.703L310.787,363.703z
	 M230.787,159.437c31.252,0,56.618,25.344,56.618,56.661c0,31.424-25.365,56.791-56.618,56.791c-31.296,0-56.64-25.366-56.64-56.492
	c0-31.125,25.344-56.512,56.64-56.512V159.437z"/>
</svg>
