<?xml version="1.0" encoding="utf-8"?>
<!-- Generator: Adobe Illustrator 22.0.1, SVG Export Plug-In . SVG Version: 6.00 Build 0)  -->
<svg version="1.1" id="Layer_1" xmlns="http://www.w3.org/2000/svg" xmlns:xlink="http://www.w3.org/1999/xlink" x="0px" y="0px"
	 viewBox="0 0 394.4 512" style="enable-background:new 0 0 394.4 512;" xml:space="preserve">
<style type="text/css">
	.st0{fill:#010101;}
</style>
<g>
	<path class="st0" d="M282.4,63.5l42-42c-1.6-4.3-4-8.4-7.4-11.8c-12.8-12.8-33.7-12.8-46.5,0c-12.8,12.8-12.8,33.6,0,46.5
		C274.1,59.5,278.2,61.9,282.4,63.5z"/>
	<polygon class="st0" points="342.7,158.4 384.9,158.4 368.7,223.1 326.4,223.1 326.4,511.7 67.8,511.7 67.8,223.1 25.5,223.1 
		9.3,158.4 51.7,158.4 51.7,106.8 13.8,134.8 0,121 66.6,30.7 104.1,68.2 68.7,94.3 68.7,158.4 325.7,158.4 325.7,94.3 290.3,68.2 
		327.7,30.7 394.3,121 380.6,134.8 342.7,106.8 	"/>
	<path class="st0" d="M112.2,63.5l-42-42c1.6-4.3,4-8.4,7.4-11.8c12.8-12.8,33.7-12.8,46.5,0c12.8,12.8,12.8,33.6,0,46.5
		C120.6,59.5,116.5,61.9,112.2,63.5z"/>
</g>
</svg>
