<?xml version="1.0" encoding="utf-8"?>
<!-- Generator: Adobe Illustrator 21.1.0, SVG Export Plug-In . SVG Version: 6.00 Build 0)  -->
<svg version="1.1" id="Layer_2" xmlns="http://www.w3.org/2000/svg" xmlns:xlink="http://www.w3.org/1999/xlink" x="0px" y="0px"
	 viewBox="0 0 512 512" style="enable-background:new 0 0 512 512;" xml:space="preserve">
<path d="M0,50v412c0,27.6,22.4,50,50,50h412c27.6,0,50-22.4,50-50V50c0-27.6-22.4-50-50-50H50C22.4,0,0,22.4,0,50z M136,208
	c0-14.4,11.6-26,26-26s26,11.6,26,26s-11.6,26-26,26S136,222.4,136,208z M136,415V264h52v151H136z M380,328v87h-52v-87H380z
	 M380,272c0,14.4-11.6,26-26,26s-26-11.6-26-26s11.6-26,26-26S380,257.6,380,272z M284,168v247h-52V168H284z M284,112
	c0,14.4-11.6,26-26,26s-26-11.6-26-26s11.6-26,26-26S284,97.6,284,112z"/>
</svg>
