<?xml version="1.0" encoding="utf-8"?>
<!-- Generator: Adobe Illustrator 21.1.0, SVG Export Plug-In . SVG Version: 6.00 Build 0)  -->
<svg version="1.1" id="Layer_1" xmlns="http://www.w3.org/2000/svg" xmlns:xlink="http://www.w3.org/1999/xlink" x="0px" y="0px"
	 viewBox="0 0 512 512" style="enable-background:new 0 0 512 512;" xml:space="preserve">
<path d="M256,0C115.2,0,0,115.2,0,256s115.2,256,256,256s256-115.2,256-256S396.8,0,256,0z M358.9,437.9c-11.7,3-23.6,4.5-35.5,4.5
	c-20-0.9-39.8-4.4-58.9-10.6c-17.6-5.8-35.9-9.3-54.4-10.6c-22.1,0.6-43.4,7.9-61.1,21.1L122.8,383c16.4-10.9,30.1-25.5,40.1-42.5
	c7.7-13,12-27.7,12.6-42.9c0-4.7-1-13.9-1-13.9h-51.8v-54.6h38.7c-6.6-18.8-10-38.5-10-58.3c0.2-17.8,5.3-35.2,14.8-50.4
	c9.8-16.1,24.2-28.9,41.3-36.8c18.3-8.4,38.2-12.7,58.3-12.5c27.8-1.5,55.2,7.2,77,24.4c20,18.1,32.5,43,35,69.8l-66.3,9.8
	c-1.5-14-7.5-27.1-17-37.5c-8.2-7.8-19.2-11.9-30.5-11.7c-12.1-0.5-23.9,4-32.5,12.5c-8.5,8.8-13,20.7-12.5,32.8
	c0.3,9.1,1.5,18.2,3.5,27.1c2,10.4,4.7,20.6,8.2,30.6H307v53.9h-65.2c0.5,3.6,0.7,7.2,0.7,10.9c0.1,12.3-2.4,24.5-7.4,35.8
	c-8.1,15.7-18.3,30.2-30.2,43.3c10.8-4.7,22.6-6.7,34.3-5.9c5-0.4,10.1-0.4,15.1,0c2.4,0,9,1.9,20.1,4.8c13.1,4,26.6,6.6,40.3,7.8
	c17.5-1.2,34.6-5.8,50.2-13.5l0.2,1l26.1,58.3C381.1,430.8,370.2,435,358.9,437.9z"/>
</svg>
