<?xml version="1.0" encoding="utf-8"?>
<!-- Generator: Adobe Illustrator 21.1.0, SVG Export Plug-In . SVG Version: 6.00 Build 0)  -->
<svg version="1.1" id="Layer_1" xmlns="http://www.w3.org/2000/svg" xmlns:xlink="http://www.w3.org/1999/xlink" x="0px" y="0px"
	 viewBox="0 0 545.2 512" style="enable-background:new 0 0 545.2 512;" xml:space="preserve">
<path d="M364.3,1l-0.6-0.4c-0.8-0.7-1.5-0.5-2.2,0.2c-0.4,0.4-0.8,0.9-1.2,1.6c-11,18.3-25.4,35.7-42.3,52.5
	c-74.8,74.8-196.7,137.7-270.7,211.8C28,285.9,12,305.9,0.9,327.1c54.8,63.6,180,184.7,180.4,184.3c7.5-9.7,15.3-19,23.2-27.9
	s16-17.4,24.1-25.6c95.2-95.2,206-142.5,269.8-206.3c21.6-21.6,37.8-45,46.3-72.9C481.9,121.6,427,58,364.3,1z M185,431.5L160.4,406
	l4-4c0.2-1.1,0-3.3-2-6.7c-2.7-5.1-6-9.5-10-13.8l-4-3.6l-12.9,12.4l-24.6-25.5l12-11.5l-12.7-12c-11.8-12.2-17.5-25.1-17.3-39.1
	c0.2-13.8,6.2-26.4,17.8-37.5c12.2-11.8,25.1-17.8,38.2-18c13.3,0,25.3,5.3,35.3,16.2l0.7,0.7l2.4,5.1l-29.1,28l-3.8-4
	c-3.8-3.8-7.3-5.8-10.4-5.8c-3.3,0-6,1.1-8.7,3.8c-2.2,2.2-3.1,4.7-2.7,8c0.7,4,3.3,8.2,8,13.1l12.9,12.2l27.8-27.1l24.7,25.5
	l-26.7,26l2.7,2.4c4.4,4.4,7.8,9.8,10.2,15.8c0.9,2.2,1.6,4.4,2,6.7l51.5-49.7l24.7,25.5L185,431.5z M296.8,161.4
	c27.9-20.3,54.9-41.2,78.9-63.4l23.2,23.2c-21.5,20.2-49.5,39.6-81.4,60.8L296.8,161.4z M382.2,246.9l-20.7-20.7
	c27.9-20.2,54.9-41.2,78.9-63.4l23.2,23.2C442.1,206.3,414.2,225.6,382.2,246.9z"/>
</svg>
