<?xml version="1.0" encoding="utf-8"?>
<!-- Generator: Adobe Illustrator 21.1.0, SVG Export Plug-In . SVG Version: 6.00 Build 0)  -->
<svg version="1.1" xmlns="http://www.w3.org/2000/svg" xmlns:xlink="http://www.w3.org/1999/xlink" x="0px" y="0px"
	 viewBox="0 0 369 512" style="enable-background:new 0 0 369 512;" xml:space="preserve">
<g id="pound">
	<g>
		<path d="M332.9,408.3l35.9,80.1c-14,7.5-28.9,13.3-44.4,17.3c-16,4.1-32.4,6.2-48.8,6.2c-27.5-1.2-54.7-6.1-80.9-14.5
			c-24.2-7.9-49.3-12.8-74.7-14.5c-30.3,0.8-59.6,10.9-83.9,29L0.1,430.3c22.5-15,41.4-35,55.1-58.3c10.6-17.9,16.5-38.1,17.3-58.9
			c0-6.4-1.4-19.1-1.4-19.1H0v-75h53.1c-9.1-25.8-13.7-52.9-13.8-80.1c0.3-24.5,7.3-48.4,20.3-69.2C73,47.6,92.8,30,116.3,19.2
			c25.1-11.6,52.5-17.5,80.1-17.2c38.2-2,75.8,9.9,105.8,33.5c27.5,24.9,44.7,59.1,48.1,95.9l-91,13.4
			c-2.1-19.2-10.3-37.2-23.3-51.5c-11.3-10.7-26.3-16.4-41.9-16c-16.6-0.7-32.8,5.5-44.6,17.2c-11.7,12.1-17.9,28.4-17.2,45.1
			c0.4,12.5,2,25,4.8,37.2c2.7,14.3,6.5,28.3,11.2,42H253v74h-89.6c0.7,5,1,9.9,1,14.9c0.2,16.9-3.3,33.7-10.2,49.2
			c-11.1,21.5-25.1,41.5-41.4,59.4c14.8-6.4,31-9.2,47.1-8.1c6.9-0.5,13.8-0.5,20.7,0c3.3,0,12.3,2.6,27.6,6.6
			c18,5.5,36.6,9.1,55.4,10.7c24-1.6,47.5-7.9,69-18.6L332.9,408.3z"/>
	</g>
</g>
</svg>
