<?xml version="1.0" encoding="utf-8"?>
<!-- Generator: Adobe Illustrator 21.1.0, SVG Export Plug-In . SVG Version: 6.00 Build 0)  -->
<svg version="1.1" id="Layer_2" xmlns="http://www.w3.org/2000/svg" xmlns:xlink="http://www.w3.org/1999/xlink" x="0px" y="0px"
	 viewBox="0 0 460.9 512" style="enable-background:new 0 0 460.9 512;" xml:space="preserve">
<g>
	<path d="M361.7,92.1c-24.1-16.7-57,0.3-57,29.6v0c0,11.8,5.7,23,15.4,29.8c41.2,28.5,68.3,76.1,68.3,130
		c0,87.1-70.5,157.8-157.6,158c-87.2,0.2-158.4-70.8-158.4-158c0-53.9,27-101.5,68.2-130c9.7-6.7,15.5-17.9,15.5-29.7v0
		c0-29.3-32.9-46.4-56.9-29.8C39.3,133.7,0,203,0,281.6c0,127,103.8,230.6,230.8,230.4c127.1-0.2,230.1-103.3,230.1-230.4
		C460.9,203.1,421.6,133.7,361.7,92.1z"/>
	<path d="M230.4,224.2L230.4,224.2c19.9,0,36-16.1,36-36V36c0-19.9-16.1-36-36-36h0c-19.9,0-36,16.1-36,36v152.2
		C194.4,208.1,210.6,224.2,230.4,224.2z"/>
</g>
</svg>
