<?xml version="1.0" encoding="utf-8"?>
<!-- Generator: Adobe Illustrator 21.1.0, SVG Export Plug-In . SVG Version: 6.00 Build 0)  -->
<svg version="1.1" id="Layer_1" xmlns="http://www.w3.org/2000/svg" xmlns:xlink="http://www.w3.org/1999/xlink" x="0px" y="0px"
	 viewBox="0 0 436 512" style="enable-background:new 0 0 436 512;" xml:space="preserve">
<g id="_x37_2">
	<g>
		<path d="M436,269.1l-50.7-50.7l-96.1,96.1l-50.5-50.5c51.6-20.6,86.3-70.5,86.3-126.9C325,61.5,263.5,0,187.9,0H0v451.7h71.7
			V274.4h76l90.9,90.9l-45.5,45.5c-28,28-28,73.3,0,101.3l0,0l96.1-96.1l96.1,96.1l0,0c28-28,28-73.3,0-101.3l-45.5-45.5L436,269.1z
			 M187.9,202.7H71.7V71.7h116.2c36.1,0,65.5,29.4,65.5,65.5C253.4,173.3,224,202.7,187.9,202.7z"/>
	</g>
</g>
</svg>
