<?xml version="1.0" encoding="utf-8"?>
<!-- Generator: Adobe Illustrator 22.0.1, SVG Export Plug-In . SVG Version: 6.00 Build 0)  -->
<svg version="1.1" id="Layer_1" xmlns="http://www.w3.org/2000/svg" xmlns:xlink="http://www.w3.org/1999/xlink" x="0px" y="0px"
	 viewBox="0 0 512 512" style="enable-background:new 0 0 512 512;" xml:space="preserve">
<g>
	<polygon points="316.8,4.6 316.8,80.9 393,80.9 	"/>
	<path d="M180.8,437.3v21.4h148.5v-21.4H180.8z M180.8,384v21h148.5v-21H180.8z M180.8,458.7h148.5v-21.4H180.8V458.7z M180.8,384
		v21h148.5v-21H180.8z M180.8,458.7h148.5v-21.4H180.8V458.7z M180.8,384v21h148.5v-21H180.8z"/>
	<path d="M494.2,145l-95.3,0V94.6h-97V0H112.5v144.9l-94.6,0c-9.9,0-17.9,8-17.9,17.9v266c0,9.9,8,17.9,17.9,17.9H118V512h275.9
		v-65.1h100.3c9.9,0,17.9-8,17.9-17.9V162.9C512.1,153,504.1,145,494.2,145z M96.1,233.2H53.3v-31.9h42.8V233.2z M361.5,480.9H148.6
		V361.4h212.9V480.9z"/>
</g>
</svg>
