<?xml version="1.0" encoding="utf-8"?>
<!-- Generator: Adobe Illustrator 21.1.0, SVG Export Plug-In . SVG Version: 6.00 Build 0)  -->
<svg version="1.1" id="Layer_2" xmlns="http://www.w3.org/2000/svg" xmlns:xlink="http://www.w3.org/1999/xlink" x="0px" y="0px"
	 viewBox="0 0 232.1 512" style="enable-background:new 0 0 232.1 512;" xml:space="preserve">
<style type="text/css">
	.st0{fill:#010101;}
</style>
<path class="st0" d="M173.4,117.6l-36.7-83.4h23.4c26.2,0,48.2-14.7,53.2-34.2H174c-2.2,4.4-5.2,7.1-14,7.1H73.2
	c-8.6,0-11.8-2.7-14-7.1H20C25.1,19.5,47,34.2,73.3,34.2h22.1l-36.7,83.4c-32.5,1.1-58.6,22.2-58.6,48.1v298.1
	c0,26.6,27.4,48.2,61.2,48.2h109.5c33.8,0,61.2-21.6,61.2-48.2V165.7C232,139.8,205.9,118.7,173.4,117.6z M105.2,117.5H81.8
	l23.5-53.3v53.3H105.2z M126.9,117.5V64.2l23.5,53.3H126.9z"/>
</svg>
