<?xml version="1.0" encoding="utf-8"?>
<!-- Generator: Adobe Illustrator 22.0.1, SVG Export Plug-In . SVG Version: 6.00 Build 0)  -->
<svg version="1.1" id="Layer_1" xmlns="http://www.w3.org/2000/svg" xmlns:xlink="http://www.w3.org/1999/xlink" x="0px" y="0px"
	 viewBox="0 0 512 512" style="enable-background:new 0 0 512 512;" xml:space="preserve">
<g>
	<path d="M256,0c-59.8,0-108.3,9-108.3,66.8c0,36.9,0,66.8,0,66.8h128v20.6c0,0-202.1,0-206.8,0C32,154.2,0,200.6,0,246.8v61.7
		c0,42,32.1,72,59.1,72c16.7,0,68.9,0,68.9,0s0-50.4,0-51.4c0-24.9,8.5-82.3,68.9-82.3h108.3c27.4,0,59.1-29.1,59.1-51.4V66.8
		C364.3,8.5,315.8,0,256,0z M203.8,92.8c-14.5,0-26.2-11.7-26.2-26.2c0-14.5,11.7-26.2,26.2-26.2c14.5,0,26.2,11.7,26.2,26.2
		C229.9,81.1,218.2,92.8,203.8,92.8z"/>
	<path d="M256,514.1c59.8,0,108.3-9,108.3-66.8c0-36.9,0-66.8,0-66.8h-128v-20.6c0,0,202.1,0,206.8,0c36.9,0,68.9-46.4,68.9-92.5
		v-61.7c0-42-32.1-72-59.1-72c-16.7,0-68.9,0-68.9,0s0,50.4,0,51.4c0,24.9-8.5,82.3-68.9,82.3H206.8c-27.4,0-59.1,29.1-59.1,51.4
		v128.5C147.7,505.6,196.2,514.1,256,514.1z M308.3,421.3c14.5,0,26.2,11.7,26.2,26.2c0,14.5-11.7,26.2-26.2,26.2
		c-14.5,0-26.2-11.7-26.2-26.2C282.1,433,293.8,421.3,308.3,421.3z"/>
</g>
</svg>
