<?xml version="1.0" encoding="utf-8"?>
<!-- Generator: Adobe Illustrator 21.1.0, SVG Export Plug-In . SVG Version: 6.00 Build 0)  -->
<svg version="1.1" id="Layer_1" xmlns="http://www.w3.org/2000/svg" xmlns:xlink="http://www.w3.org/1999/xlink" x="0px" y="0px"
	 viewBox="0 0 512 512" style="enable-background:new 0 0 512 512;" xml:space="preserve">
<path d="M232.7,0v232.7H0V0H232.7z M232.7,279.3V512H0V279.3H232.7z M72.5,160.2h87.6V72.5H72.5V160.2z M72.5,439h87.6v-87.2H72.5
	V439z M129.3,382.7v46.5H82.8v-46.5H129.3z M150,82.8v46.5h-46.5V82.8H150z M512,0v232.7H279.3V0H512z M512,279.3v139.6H372.4v-46.5
	h-46.5V512h-46.5V279.3H419v46.5h46.5v-46.5H512z M351.8,160.2h87.6V72.5h-87.6V160.2z M418.9,465.5V512h-46.5v-46.5H418.9z
	 M429.2,82.8v46.5h-46.5V82.8H429.2z M464.6,418.1v46.5h-46.5v-46.5H464.6z M512,465.5V512h-46.5v-46.5H512z"/>
</svg>
