<?xml version="1.0" encoding="utf-8"?>
<!-- Generator: Adobe Illustrator 21.1.0, SVG Export Plug-In . SVG Version: 6.00 Build 0)  -->
<svg version="1.1" id="Layer_1" xmlns="http://www.w3.org/2000/svg" xmlns:xlink="http://www.w3.org/1999/xlink" x="0px" y="0px"
	 viewBox="0 0 512 512" style="enable-background:new 0 0 512 512;" xml:space="preserve">
<path d="M256,0C114.6,0,0,114.6,0,256s114.6,256,256,256s256-114.6,256-256S397.4,0,256,0z M261,412c-14.9,0-27-12.1-27-27
	c0-14.9,12.1-27,27-27s27,12.1,27,27C288,399.9,275.9,412,261,412z M315.2,270.8c-23.5,21-27.6,30.6-27.8,44.3l-0.2,14.8h-52.5
	l0.2-15.2c0.4-30.4,10.4-50.4,38.2-76.3c21.3-19.7,22.3-25,22.3-34c0-19.2-13.9-32.6-33.9-32.6c-25,0-37.7,14.1-37.7,41.9v15h-52.5
	v-15c0-28.7,9.1-52.7,26.2-69.4c16.2-15.7,38.3-24.1,64-24.1c24.4,0,46.6,8.5,62.6,23.9c16.1,15.5,25,37.1,25,60.8
	C349.1,230.2,339.3,249.3,315.2,270.8z"/>
</svg>
