<?xml version="1.0" encoding="utf-8"?>
<!-- Generator: Adobe Illustrator 22.0.1, SVG Export Plug-In . SVG Version: 6.00 Build 0)  -->
<svg version="1.1" id="Layer_1" xmlns="http://www.w3.org/2000/svg" xmlns:xlink="http://www.w3.org/1999/xlink" x="0px" y="0px"
	 viewBox="0 0 512 512" style="enable-background:new 0 0 512 512;" xml:space="preserve">
<path d="M462,0.5H50c-27.6,0-50,22.4-50,50v412c0,27.6,22.4,50,50,50h412c27.6,0,50-22.4,50-50v-412C512,22.9,489.6,0.5,462,0.5z
	 M256.8,408.1c-14.9,0-27-12.1-27-27c0-14.9,12.1-27,27-27c14.9,0,27,12.1,27,27C283.8,396,271.7,408.1,256.8,408.1z M311,266.9
	c-23.5,21-27.6,30.6-27.8,44.3L283,326h-52.5l0.2-15.2c0.4-30.4,10.4-50.4,38.2-76.3c21.3-19.7,22.3-25,22.3-34
	c0-19.2-13.9-32.6-33.9-32.6c-25,0-37.7,14.1-37.7,41.9v15h-52.5v-15c0-28.7,9.1-52.7,26.2-69.4c16.2-15.7,38.3-24.1,64-24.1
	c24.4,0,46.6,8.5,62.6,23.9c16.1,15.5,25,37.1,25,60.8C344.9,226.3,335.1,245.4,311,266.9z"/>
</svg>
