<?xml version="1.0" encoding="utf-8"?>
<!-- Generator: Adobe Illustrator 22.0.1, SVG Export Plug-In . SVG Version: 6.00 Build 0)  -->
<svg version="1.1" id="Layer_1" xmlns="http://www.w3.org/2000/svg" xmlns:xlink="http://www.w3.org/1999/xlink" x="0px" y="0px"
	 viewBox="0 0 324.2 512" style="enable-background:new 0 0 324.2 512;" xml:space="preserve">
<g id="XMLID_1_">
	<g>
		<path d="M207.1,468.5v0.5c0,23.7-19.3,43.1-43.1,43.1c-23.7,0-43.1-19.3-43.1-43.1v-0.5c0-23.7,19.3-43.1,43.1-43.1
			C187.7,425.4,207.1,444.7,207.1,468.5z"/>
	</g>
	<g>
		<path d="M324.2,154c0,46-17.6,79.6-62.6,119.9c-46.2,41.3-60.4,64-61,99.8l-73,0.2c0.6-56.5,18.6-92.2,71.4-141.4
			c42.8-39.8,49.6-54.2,49.6-80.1c0-47.2-35.3-81.4-84-81.4C105.5,71,73,106.5,73,171v14H0v-14c0-53,16.5-97.1,47.7-127.4
			C77,15.1,117.4,0,164.6,0C257.1,0,324.2,64.8,324.2,154z"/>
	</g>
</g>
</svg>
