<?xml version="1.0" encoding="utf-8"?>
<!-- Generator: Adobe Illustrator 21.1.0, SVG Export Plug-In . SVG Version: 6.00 Build 0)  -->
<svg version="1.1" id="Layer_1" xmlns="http://www.w3.org/2000/svg" xmlns:xlink="http://www.w3.org/1999/xlink" x="0px" y="0px"
	 viewBox="0 0 554.7 512" style="enable-background:new 0 0 554.7 512;" xml:space="preserve">
<path d="M152.2,285c-11.7,0-20.9-10-20-21.7c3.2-42.2,11.7-75.2,25.2-98.8c15.7-27.6,40.4-48.4,73.7-62.3l-40-63.7
	C135.8,63.3,95.5,100,70,148.5C50.6,185,40.9,243.8,40.9,325.1v127.5c0,12.4,10.1,22.6,22.6,22.6h138.9c12.5,0,22.6-10.1,22.6-22.6
	V307.7c0-12.5-10.1-22.6-22.6-22.6H152.2z M434.3,285c-11.7,0-20.9-10-20-21.7c3.2-42.2,11.7-75.2,25.2-98.8
	c15.7-27.6,40.4-48.4,73.7-62.3l-40.1-63.7c-55.2,24.9-95.5,61.5-121.1,110.1c-19.4,36.4-29.1,95.3-29.1,176.6v127.5
	c0,12.5,10.1,22.6,22.6,22.6h138.9c12.5,0,22.6-10.1,22.6-22.6v-145c0-12.5-10.1-22.6-22.6-22.6H434.3z"/>
</svg>
