<?xml version="1.0" encoding="utf-8"?>
<!-- Generator: Adobe Illustrator 21.1.0, SVG Export Plug-In . SVG Version: 6.00 Build 0)  -->
<svg version="1.1" id="Layer_1" xmlns="http://www.w3.org/2000/svg" xmlns:xlink="http://www.w3.org/1999/xlink" x="0px" y="0px"
	 viewBox="0 0 554.7 512" style="enable-background:new 0 0 554.7 512;" xml:space="preserve">
<path d="M81.2,474c55.2-24.8,95.5-61.4,121.1-109.9c19.4-36.4,29.1-95.1,29.1-176.3V60.6c0-12.5-10.1-22.6-22.7-22.6H69.9
	c-12.5,0-22.7,10.1-22.7,22.6v144.7c0,12.5,10.1,22.6,22.7,22.6h50.2c11.8,0,20.9,10,20,21.7c-3.2,42.2-11.7,75-25.2,98.7
	c-15.8,27.5-40.4,48.2-73.7,62.1L81.2,474L81.2,474z M363.4,474c55.2-24.8,95.5-61.4,121.1-109.9c19.4-36.4,29.1-95.1,29.1-176.3
	V60.6c0-12.5-10.1-22.6-22.7-22.6H352c-12.5,0-22.7,10.1-22.7,22.6v144.7c0,12.5,10.1,22.6,22.7,22.6h50.2c11.8,0,20.9,10,20,21.7
	c-3.2,42.2-11.7,75-25.2,98.7c-15.8,27.5-40.4,48.3-73.7,62.2L363.4,474L363.4,474z"/>
</svg>
