<?xml version="1.0" encoding="utf-8"?>
<!-- Generator: Adobe Illustrator 21.1.0, SVG Export Plug-In . SVG Version: 6.00 Build 0)  -->
<svg version="1.1" id="Layer_1" xmlns="http://www.w3.org/2000/svg" xmlns:xlink="http://www.w3.org/1999/xlink" x="0px" y="0px"
	 viewBox="0 0 512 512" style="enable-background:new 0 0 512 512;" xml:space="preserve">
<g>
	<g>
		<circle cx="256" cy="259.9" r="32.2"/>
	</g>
	<g>
		<path d="M287.4,301.1c-8.7,6.6-19.6,10.6-31.4,10.6c-11.8,0-22.6-3.9-31.3-10.5l-77,101.5c30.1,22.9,67.6,36.5,108.4,36.5
			c40.8,0,78.4-13.6,108.5-36.5L287.4,301.1z M334.4,98.6l-55.7,114.6c17.3,8.4,29.2,26.1,29.2,46.6c0,0.2,0,0.4,0,0.6l127.4,1.4
			c0-0.7,0-1.3,0-2C435.2,189,394.1,127.7,334.4,98.6z M76.8,259.9c0,0.7,0,1.3,0,2l127.4-1.4c0-0.2,0-0.4,0-0.6
			c0-20.4,11.8-38,28.9-46.5L176.7,99.1C117.5,128.3,76.8,189.3,76.8,259.9z"/>
	</g>
	<g>
		<g>
			<path d="M256,0C114.6,0,0,114.6,0,256s114.6,256,256,256s256-114.6,256-256S397.4,0,256,0z M256,459.9
				c-112.6,0-203.9-91.3-203.9-203.9S143.4,52.1,256,52.1S459.9,143.4,459.9,256S368.6,459.9,256,459.9z"/>
		</g>
	</g>
</g>
</svg>
