<?xml version="1.0" encoding="utf-8"?>
<!-- Generator: Adobe Illustrator 21.1.0, SVG Export Plug-In . SVG Version: 6.00 Build 0)  -->
<svg version="1.1" id="Layer_1" xmlns="http://www.w3.org/2000/svg" xmlns:xlink="http://www.w3.org/1999/xlink" x="0px" y="0px"
	 viewBox="0 0 512 512" style="enable-background:new 0 0 512 512;" xml:space="preserve">
<g>
	<g>
		<circle cx="256" cy="256" r="46"/>
	</g>
	<g>
		<path d="M300.8,314.9c-12.4,9.5-28,15.1-44.8,15.1c-16.8,0-32.3-5.6-44.7-15l-110,145c43,32.7,96.6,52.1,154.8,52.1
			c58.2,0,111.9-19.4,154.9-52.2L300.8,314.9z M368,25.7l-79.6,163.7c24.7,12,41.6,37.3,41.6,66.6c0,0.3,0,0.5,0,0.8l182,2
			c0-0.9,0-1.9,0-2.8C512,154.8,453.2,67.3,368,25.7z M0,256c0,0.9,0,1.9,0,2.8l182-2c0-0.3,0-0.5,0-0.8c0-29.1,16.8-54.3,41.3-66.4
			L142.8,26.3C58.2,68.1,0,155.3,0,256z"/>
	</g>
</g>
</svg>
