<?xml version="1.0" encoding="utf-8"?>
<!-- Generator: Adobe Illustrator 21.1.0, SVG Export Plug-In . SVG Version: 6.00 Build 0)  -->
<svg version="1.1" id="_x33_2_2_" xmlns="http://www.w3.org/2000/svg" xmlns:xlink="http://www.w3.org/1999/xlink" x="0px" y="0px"
	 viewBox="0 0 550 512" style="enable-background:new 0 0 550 512;" xml:space="preserve">
<g id="fill">
	<path d="M549.2,116c0,8.1-3.2,15.7-8.9,21.5L456.7,221l-43.2-43l29.2-29.3c-42.5,10.2-75.8,52-97.7,80.8l-38.1-49.9
		c37.8-46.3,81.3-86.4,138.8-93.1l-32.5-32.3l43.2-43.1l83.9,83.4C546.1,100.2,549.2,107.9,549.2,116z"/>
	<path d="M540,412.3l-84.1,84.1L412.7,453l32.8-32.7c-81.2-11.9-121.1-69.9-168.4-131.9C226.8,220,169,143,74.9,143H0V81.8h75
		c114.4,0,194.4,87.7,250.9,169.8c41.2,52.5,74.5,98.8,116.2,105.8l-29-29l43.2-43.3l83.8,84C552,381,552,400.3,540,412.3z"/>
	<path d="M271.8,322.9c-42.5,47.9-105,100.8-196.3,100.8H0v-61.2h75.4c70.7,0,118.1-42.4,158.3-89.4L271.8,322.9z"/>
</g>
</svg>
