<?xml version="1.0" encoding="utf-8"?>
<!-- Generator: Adobe Illustrator 21.1.0, SVG Export Plug-In . SVG Version: 6.00 Build 0)  -->
<svg version="1.1" id="Layer_1" xmlns="http://www.w3.org/2000/svg" xmlns:xlink="http://www.w3.org/1999/xlink" x="0px" y="0px"
	 viewBox="0 0 283 512.6" style="enable-background:new 0 0 283 512.6;" xml:space="preserve">
<g>
	<path d="M0.2,0v68.5h66.1l53.8,43V132h-5.9v285.2c-12.5,12.7-20.8,32.3-20.8,48.3c0,26,21.6,47.1,48.4,47.1s48.4-21.1,48.4-47.1
		c0-16-8.3-35.6-20.8-48.3V132h-5.9v-20.4l53.8-43H283V0H0.2z M163,87.1c-2.5-7.4-11-12.8-21-12.8s-18.5,5.4-21,12.8L97.7,68.5h88.6
		L163,87.1z M249,43.2H34.2v-5.9H249V43.2z M249,25.7H34.2v-5.9H249V25.7z"/>
</g>
</svg>
