<?xml version="1.0" encoding="utf-8"?>
<!-- Generator: Adobe Illustrator 21.1.0, SVG Export Plug-In . SVG Version: 6.00 Build 0)  -->
<svg version="1.1" id="Layer_1" xmlns="http://www.w3.org/2000/svg" xmlns:xlink="http://www.w3.org/1999/xlink" x="0px" y="0px"
	 viewBox="0 0 560 512" style="enable-background:new 0 0 560 512;" xml:space="preserve">
<g>
	<path d="M334.6,197.7l-52,8.3c-2.6-6.6-5-11.2-7.1-13.8c-2.1-2.6-5.6-5.2-10.4-7.8v40.5c28.3,7.6,47.3,15.5,56.8,23.9
		c12.6,11.3,18.9,25.6,18.9,43c0,10.2-2.3,19.5-6.8,28c-4.5,8.5-10.3,15.6-17.3,21.3c-7,5.7-14.5,9.8-22.4,12.4
		c-7.9,2.6-17.6,4.1-29.1,4.5v26.4h-20.4V358c-13.7-1.2-24.8-3.4-33.4-6.6c-8.5-3.2-15.9-7.7-22.1-13.4c-6.2-5.7-11-11.8-14.3-18.4
		c-3.4-6.6-5.9-14.5-7.6-23.8l56.5-6.6c1.7,9.2,3.9,15.9,6.8,20c2.8,4.1,7.5,7.7,14.1,10.9v-49.4c-18.8-5.2-32.2-9.8-40.1-13.6
		c-7.9-3.8-14.7-10-20.5-18.4c-5.8-8.4-8.7-18.7-8.7-30.9c0-16.6,5.8-30.5,17.4-41.6s28.9-17.3,51.8-18.5v-13.8h20.4v13.8
		c20.9,1.3,36.8,6.2,47.9,14.8C324.1,171.1,331.3,182.8,334.6,197.7z M244.7,183.7c-6,2-10.1,4.4-12.4,7.3
		c-2.3,2.9-3.5,6.3-3.5,10.3c0,4.1,1.2,7.7,3.5,10.8c2.4,3,6.5,5.6,12.4,7.6V183.7z M265.1,321.5c7.9-1.8,13.7-4.7,17.4-8.8
		c3.7-4.1,5.5-8.6,5.5-13.7c0-4.4-1.6-8.4-4.7-12.1c-3.1-3.7-9.2-7.1-18.3-10.3V321.5z"/>
	<path d="M0,257.3C-0.6,115.7,114.6,0,256.1,0c139.3,0,252.6,111.2,256,249.7h47.8l-83.7,105.2l-83.7-105.2h47.7
		c-3.5-98.7-84.5-177.6-184-177.6c-101.9,0-184,82-184.1,184c-0.1,90.4,65,165.7,150.9,181.3c4.8,0.9,13.4,1.8,22.9,2.3
		c19.2,1,34.3,16.9,34.3,36.1c0,20.7-17.4,37.3-38.1,36.1c-9.2-0.5-17.4-1.4-22.3-2.1C95.9,492.2,0.5,386,0,257.3z"/>
</g>
</svg>
