<?xml version="1.0" encoding="utf-8"?>
<!-- Generator: Adobe Illustrator 21.1.0, SVG Export Plug-In . SVG Version: 6.00 Build 0)  -->
<svg version="1.1" id="Layer_2" xmlns="http://www.w3.org/2000/svg" xmlns:xlink="http://www.w3.org/1999/xlink" x="0px" y="0px"
	 viewBox="0 0 465.4 512" style="enable-background:new 0 0 465.4 512;" xml:space="preserve">
<g id="fill">
	<path d="M156.6,174.3c0,42.1,34.1,76.3,76.3,76.3c21,0,40.1-8.6,53.9-22.3c13.8-13.8,22.3-32.9,22.3-53.9V143H156.6V174.3z
		 M256.7,170.8c3.3,0,6.1,2.7,6.1,6.1s-2.7,6.1-6.1,6.1c-3.3,0-6.1-2.7-6.1-6.1S253.3,170.8,256.7,170.8z M233.2,170.8
		c3.3,0,6.1,2.7,6.1,6.1s-2.7,6.1-6.1,6.1s-6.1-2.7-6.1-6.1S229.8,170.8,233.2,170.8z M208.9,170.8c3.3,0,6.1,2.7,6.1,6.1
		s-2.7,6.1-6.1,6.1s-6.1-2.7-6.1-6.1S205.6,170.8,208.9,170.8z M232.8,0c-42.1,0-76.3,34.1-76.3,76.3v29.6h152.5V76.3
		C309.1,34.1,274.9,0,232.8,0z"/>
	<path d="M360.6,302.5c-53.8,0-98,40.5-104,92.6h-5.5v-87.7c31.1-4.3,57.6-18.4,78.9-42.1c22.2-24.7,33.3-54,33.3-87.1v-29.2h-36.8
		V178c0,25.6-9.3,48-27.5,66.3c-18.2,18.3-40.5,27.6-66.1,27.6c-25.7,0-48-9.3-66.3-27.6C148.2,226,139,203.7,139,178v-29.2h-36.6
		V178c0,33.1,11.3,62.5,33.3,87.1c21.2,23.7,47.8,37.8,78.9,42.1V395h-5.5c-6.1-52.1-50.3-92.5-104-92.5
		c-57.9,0-104.8,46.9-104.8,104.8S47.2,512,105.1,512h255.5c0.9,0,1.8,0,2.7,0c56.6-1.4,102-47.8,102-104.7
		C465.4,349.4,418.5,302.5,360.6,302.5z M43.3,407.3c0-34,27.7-61.8,61.8-61.8c34,0,61.8,27.7,61.8,61.8S139.1,469,105.1,469
		C71,469,43.3,441.3,43.3,407.3z M189.3,469.6c8.3-11.2,14.4-24.1,17.8-38h51.7c3.3,14,9.4,26.9,17.8,38H189.3z M360.6,469
		c-34,0-61.8-27.7-61.8-61.8s27.7-61.8,61.8-61.8s61.8,27.7,61.8,61.8S394.7,469,360.6,469z"/>
</g>
</svg>
