<?xml version="1.0" encoding="utf-8"?>
<!-- Generator: Adobe Illustrator 21.1.0, SVG Export Plug-In . SVG Version: 6.00 Build 0)  -->
<svg version="1.1" id="Layer_1" xmlns="http://www.w3.org/2000/svg" xmlns:xlink="http://www.w3.org/1999/xlink" x="0px" y="0px"
	 viewBox="0 0 550 512" style="enable-background:new 0 0 550 512;" xml:space="preserve">
<g>
	<polygon points="267.8,86.4 193.2,218.9 133.5,183.5 227.9,16.1 	"/>
	<polygon points="418.6,124.8 403,172.7 389.2,214.5 348.2,200.8 301.7,185.7 326.9,172.3 230.6,1.3 309.4,0 388.5,140.5 	"/>
	<polygon points="550,399.8 470.3,399.8 395.9,267.4 455.7,232 	"/>
	<polygon points="548,409.7 510,479.9 353.8,479.9 353.8,512 318.7,476.6 288.7,445.8 318.7,414.6 353.8,379.2 353.8,409.7 	"/>
	<polygon points="243.2,408.5 243.2,478.7 54.4,478.7 93.7,408.5 	"/>
	<polygon points="170.3,321.2 139.8,307.9 40.7,483.9 0,414.9 75.7,280.1 49.8,269.3 95.4,250.2 135.3,233.8 151.7,274.4 	"/>
</g>
</svg>
