<?xml version="1.0" encoding="utf-8"?>
<!-- Generator: Adobe Illustrator 21.1.0, SVG Export Plug-In . SVG Version: 6.00 Build 0)  -->
<svg version="1.1" id="Layer_1" xmlns="http://www.w3.org/2000/svg" xmlns:xlink="http://www.w3.org/1999/xlink" x="0px" y="0px"
	 viewBox="0 0 512 512" style="enable-background:new 0 0 512 512;" xml:space="preserve">
<path d="M37,388.7c66.6,110,202.7,151.9,317.8,103.2c4.6-1.9,12-5.4,20.2-9.7c18.3-9.6,24.7-32.8,14-50.5
	c-9.9-16.4-31-22.3-47.9-13.3c-8.4,4.5-16.2,8.1-20.8,9.8C238.8,459,144.4,428,98.1,350.6C45.8,263.2,73.9,150.7,161,98.3
	c85.1-51.2,194.9-25.3,248.6,57.4l-40.8,24.5l125.7,47L512,94.1l-40.9,24.6C397,1.8,243-35.1,123.8,36.6
	C2.8,109.4-36.3,267.8,37,388.7z"/>
</svg>
