<?xml version="1.0" encoding="utf-8"?>
<!-- Generator: Adobe Illustrator 21.1.0, SVG Export Plug-In . SVG Version: 6.00 Build 0)  -->
<svg version="1.1" id="Layer_1" xmlns="http://www.w3.org/2000/svg" xmlns:xlink="http://www.w3.org/1999/xlink" x="0px" y="0px"
	 viewBox="0 0 550 512" style="enable-background:new 0 0 550 512;" xml:space="preserve">
<g>
	<path d="M285.9,133.2h1.6V15.3L224.6,79L99.5,205.8l125.2,127.3l62.9,64V281.2h59.1c45.9,0,114.3,19.3,135.7,103.7
		c4.2,16.7,6.6,35.9,6.6,58c0,10.6-0.4,22.4-1.1,35.3c0,6.8-0.8,24.5,7.7,24.5c3,0,5.6-1.7,7.7-5c3.8-4.6,10-19.8,10.7-21.7
		c24-55,36-98.4,36-130.2C550,205.2,469.6,133.2,285.9,133.2z"/>
	<polygon points="188,79 188,15.3 0,205.8 188.1,397.1 188.1,333.1 62.9,205.8 	"/>
</g>
</svg>
