<?xml version="1.0" encoding="utf-8"?>
<!-- Generator: Adobe Illustrator 21.1.0, SVG Export Plug-In . SVG Version: 6.00 Build 0)  -->
<svg version="1.1" id="Layer_1" xmlns="http://www.w3.org/2000/svg" xmlns:xlink="http://www.w3.org/1999/xlink" x="0px" y="0px"
	 viewBox="0 0 418.6 512" style="enable-background:new 0 0 418.6 512;" xml:space="preserve">
<path d="M418.6,302.7c0,115.6-93.7,209.3-209.3,209.3C93.7,512,0,418.3,0,302.7c0-94.9,63.3-174.9,149.9-200.5l40.8,43.2
	c-81,9.2-144.2,78.2-144.2,161.7c0,89.7,73,162.7,162.7,162.7c89.7,0,162.7-73,162.7-162.7c0-83.3-62.9-152.1-143.6-161.6l40.6-43.1
	C355.5,128.1,418.6,207.9,418.6,302.7z"/>
<g>
	<polygon points="197.4,0.3 164.9,0.3 173.7,40.4 	"/>
	<polygon points="238.5,46 211.5,0.3 207.5,0.3 180.5,46 	"/>
	<polygon points="254.4,0.3 221.6,0.3 245.7,41 	"/>
	<polygon points="286.9,46 262.3,4.4 253.4,46 	"/>
	<polygon points="156.7,3.8 131.9,46 165.9,46 	"/>
	<polygon points="282,54.6 282,54.6 249.1,54.6 209.5,130.2 208.1,127.5 169.7,54.9 126.6,54.9 209.6,142.7 292.4,54.9 	"/>
	<polygon points="209.8,123.5 238.9,54.9 179.9,54.9 	"/>
</g>
</svg>
