<?xml version="1.0" encoding="utf-8"?>
<!-- Generator: Adobe Illustrator 21.1.0, SVG Export Plug-In . SVG Version: 6.00 Build 0)  -->
<svg version="1.1" id="Layer_1" xmlns="http://www.w3.org/2000/svg" xmlns:xlink="http://www.w3.org/1999/xlink" x="0px" y="0px"
	 viewBox="0 0 512 512" style="enable-background:new 0 0 512 512;" xml:space="preserve">
<path d="M441,0H71C31.8,0,0,31.8,0,71v370c0,39.2,31.8,71,71,71h370c39.2,0,71-31.8,71-71V71C512,31.8,480.2,0,441,0z M200.2,343.2
	c-14.2,16.2-36.5,24.4-66.4,24.4c-1.7,0-3.8,0.1-6.2,0.1c-3.1,0.1-6.7,0.2-10.5,0.2c-18.1,0-43-2.2-59.3-17.9
	c-10.6-10.3-15.9-24.8-15.9-43.2c0-12.5,13.6-47.4,22.5-60.7c6.4-9.6,16.5-10.4,22.9-6.4c6.2,3.9,9.7,13.3,2.8,24.7
	c-2.1,3.5-5.3,9.9-11.7,29.3c-3.1,9.4,0.2,15.8,11.2,22.3c11.4,6.6,25.2,6.3,36.3,6.1c2,0,3.7-0.1,5.5-0.1
	c19.9,0,32.7-3.6,40.2-11.2c9.3-9.5,10.8-26,10.3-47.9c-1-43-8.7-78.6-14.3-104.6c-3.4-15.6-5.8-26.9-5.5-34.1
	c0.3-6.6,3.5-26.4,13.3-29.1c7.9-2.2,12.7,3.5,15.9,7.3c1.3,1.6,2.7,3.2,4.1,4.1l1.1,0.8c10.1,6.8,21.5,14.5,20.8,28.1
	c-0.4,7.3-7,17.6-13.1,24.9c0.1,9.9,4.8,59.5,11.8,114.3C219.7,303.4,214.3,327.2,200.2,343.2z M238.3,303.7
	c-1.1-4.4-2.6-11.9-2.8-14.5c-1.9-31.7-12.2-93.9-16.5-120.5c-2.3-13.7-2.3-14.3-2.3-15.3c0-4.2,3-13.1,5-18.1
	c4.6-11.5,8.9-16.4,14.3-16.4c3.6,0,6.3,1.7,8.3,5c1.1,1.8,2,4.3,3.7,8.6c11.7,30.5,15,78.8,17.6,117.7c0.6,8.9,1.1,17.2,1.8,24.9
	c0.1,2,4.2,4.4,8.9,4.4c3.3,0,47.7,0.4,66.1,0.6c-0.6-2.9-1.4-6.5-2.4-10.3c-1.7-6.6-4.4-11.2-7.1-15.5c-3-4.9-6-9.9-7-16.9
	c-1.4-10.5,1.3-21.7,6.9-28.1c3.5-4,7-4.9,9.5-4.9c13.6,0,25.7,20.2,29.7,49.3c2.6,19.1,0.5,47.7-0.3,58.5c-0.1,1.6-0.3,3.4-0.3,3.8
	c0,4-1.1,7.1-3.4,9.2c-2.5,2.3-5.3,2.7-7.2,2.7h-1c-0.1,0-0.2,0-0.2,0c-2.6,0-65.5-0.3-86.3-0.5l-6.2-0.1
	C253.2,327.4,240.8,313.3,238.3,303.7z M278.2,374.8l-17.4-18.8c-1.9-2-1.8-5.1,0.2-7l16.4-15.8c2-2,5.3-1.8,7.2,0.3l16.6,19
	c0.3-0.6,0.6-1.3,1.1-1.8l16.5-15.8c2-2,5.3-1.8,7.2,0.3l17.2,19.6c1.8,2,1.6,5.1-0.4,6.9l-16.1,15c-2,1.9-5.1,1.8-7-0.3l-17.1-18.3
	c-0.3,0.8-0.6,1.3-1.3,1.9l-16.1,15C283.3,377,280.1,376.8,278.2,374.8z M446.5,374.5c-2.1,2.3-4.1,4.7-6.3,7.2
	c-12,14.1-25.5,30.2-54.3,35.9c-4.6,0.9-9.1,1.3-13.6,1.3c-16.2,0-31.4-5.5-48.5-11.7c-5.9-2.1-11.9-4.3-18.3-6.3l-0.4-0.1l-0.5-0.3
	c-4.8-2.4-7.2-7.2-6-12.2c1.1-4.8,5.1-8.4,9.6-8.5c3.7-0.1,8.8,0.8,15.2,2c6.6,1.1,14.8,2.6,23.4,3.2c29.7,2.2,56.7-15.6,82.3-54.2
	c12.5-18.9,1.3-34.1-17.1-55.1c-0.7-0.8-1.4-1.6-2.1-2.4c-6.8-7.9-11.8-14.8-13.7-17.4c-0.2-0.3-0.4-0.5-0.5-0.7
	c-3.9-4-6-9.3-6.1-14.7c-0.1-5.7,2.1-11.1,6.2-15.1c8.2-8.2,21.7-8,30.1,0.3c0.2,0.2,18.5,18.6,35.1,42.6
	c10,14.6,11.8,27.1,11.8,47.8C473,336.5,465,353.9,446.5,374.5z"/>
</svg>
