<?xml version="1.0" encoding="utf-8"?>
<!-- Generator: Adobe Illustrator 21.1.0, SVG Export Plug-In . SVG Version: 6.00 Build 0)  -->
<svg version="1.1" id="south_korea_won_1_" xmlns="http://www.w3.org/2000/svg" xmlns:xlink="http://www.w3.org/1999/xlink" x="0px"
	 y="0px" viewBox="0 0 550 512" style="enable-background:new 0 0 550 512;" xml:space="preserve">
<g>
	<path d="M534.9,271.8L534.9,271.8c-21.1-30.6-44.5-54.2-44.7-54.4c-10.7-10.7-27.9-10.8-38.4-0.4c-5.2,5.1-7.9,12-7.8,19.2
		c0.1,7,2.8,13.7,7.8,18.8c0.2,0.2,0.4,0.5,0.6,0.9c2.4,3.3,8.7,12.2,17.5,22.2c0.9,1,1.8,2,2.7,3c23.4,26.8,37.7,46.3,21.8,70.3
		c-32.7,49.2-67.1,71.9-105,69.1c-11-0.8-21.4-2.7-29.8-4.1c-8.2-1.5-14.6-2.6-19.4-2.5c-5.7,0.1-10.9,4.7-12.3,10.8
		c-1.5,6.4,1.5,12.5,7.7,15.6l0.6,0.3l0.6,0.2c8.1,2.6,15.8,5.4,23.3,8.1c21.8,7.8,41.2,14.9,61.9,14.9c5.7,0,11.4-0.6,17.3-1.7
		c36.6-7.4,53.9-27.8,69.2-45.8c2.7-3.2,5.3-6.2,8-9.2c23.7-26.3,33.9-48.4,33.9-74.3C549.9,306.3,547.7,290.4,534.9,271.8z"/>
	<path d="M405.4,347.6c0.3,0,0.8,0,1.3,0c2.3,0,6-0.4,9.1-3.4c2.8-2.7,4.3-6.6,4.3-11.7c0-0.5,0.2-2.7,0.3-4.9
		c1.1-13.7,3.7-50.2,0.4-74.6c-5-37-20.5-62.8-37.8-62.8c-3.1,0-7.6,1.1-12,6.2c-7.1,8.1-10.6,22.5-8.8,35.8
		c1.2,8.8,5.1,15.3,8.9,21.5c3.4,5.6,6.9,11.4,9.1,19.8c1.3,4.9,2.3,9.5,3.1,13.2c-23.4-0.2-80.1-0.7-84.3-0.7
		c-6,0-11.2-3.2-11.3-5.7c-0.8-9.9-1.5-20.5-2.3-31.8c-3.4-49.6-7.6-111.3-22.5-150.2c-2.1-5.6-3.3-8.7-4.7-11
		c-2.5-4.2-6.1-6.4-10.6-6.4c-7,0-12.5,6.2-18.3,20.9c-2.6,6.4-6.4,17.8-6.4,23.1c0,1.2,0.1,2,3,19.5
		c5.6,33.9,18.7,113.3,21.1,153.7c0.2,3.2,2.1,12.9,3.6,18.4c3.2,12.4,19.1,30.3,36.6,30.3l7.9,0.1c26.8,0.2,108.2,0.6,110.2,0.6
		C405.1,347.6,405.3,347.6,405.4,347.6z"/>
	<path d="M206.8,133.7c7.8-9.3,16.3-22.5,16.7-31.8c0.9-17.4-13.7-27.2-26.5-35.8l-1.4-1c-1.7-1.1-3.5-3.2-5.2-5.3
		c-4.1-4.9-10.3-12.1-20.3-9.3c-12.4,3.6-16.5,28.7-16.9,37.2c-0.5,9.2,2.7,23.6,7,43.5c7.1,33.2,16.9,78.6,18.2,133.4
		c0.6,27.9-1.3,49-13.1,61.1c-9.5,9.8-25.9,14.3-51.3,14.3c-2.3,0-4.5,0.1-7,0.1c-14.2,0.2-31.7,0.6-46.3-7.8
		c-14.1-8.2-18.3-16.4-14.3-28.5c8.2-24.8,12.3-33,15-37.4c8.8-14.5,4.3-26.4-3.6-31.5c-8.1-5.2-21-4-29.2,8.2
		C17.4,260.1,0,304.6,0,320.6c0,23.5,6.8,42,20.3,55.1c20.7,20.1,52.6,22.9,75.6,22.9c4.9,0,9.5-0.2,13.4-0.2
		c3.1-0.1,5.7-0.2,7.9-0.2c38.2,0,66.6-10.5,84.7-31.1c18-20.5,24.8-50.8,20-87.6C212.9,209.6,207,146.3,206.8,133.7z"/>
	<path d="M354.5,409.6c2.4,2.6,6.4,2.7,9,0.3l20.5-19.1c2.6-2.3,2.7-6.3,0.5-8.8L362.6,357c-2.4-2.7-6.6-2.9-9.2-0.4l-21,20.2
		c-0.7,0.6-1.1,1.5-1.5,2.3l-21.2-24.3c-2.4-2.7-6.6-2.9-9.2-0.4l-20.9,20.2c-2.5,2.4-2.7,6.4-0.2,8.9l22.2,23.9
		c2.4,2.6,6.4,2.7,9,0.3l20.5-19.1c0.8-0.7,1.2-1.5,1.6-2.4L354.5,409.6z"/>
</g>
</svg>
