<?xml version="1.0" encoding="utf-8"?>
<!-- Generator: Adobe Illustrator 21.1.0, SVG Export Plug-In . SVG Version: 6.00 Build 0)  -->
<svg version="1.1" id="Layer_1" xmlns="http://www.w3.org/2000/svg" xmlns:xlink="http://www.w3.org/1999/xlink" x="0px" y="0px"
	 viewBox="0 0 545.2 512" style="enable-background:new 0 0 545.2 512;" xml:space="preserve">
<path d="M364.3,1l-0.6-0.4c-0.8-0.7-1.5-0.5-2.2,0.2c-0.4,0.4-0.8,0.9-1.2,1.6c-11,18.3-25.4,35.7-42.3,52.5
	c-74.8,74.8-196.7,137.7-270.7,211.8C28,285.9,12,305.9,0.9,327.1c54.8,63.6,180,184.7,180.4,184.3c7.5-9.7,15.3-19,23.2-27.9
	s16-17.4,24.1-25.6c95.2-95.2,206-142.5,269.8-206.3c21.6-21.6,37.8-45,46.3-72.9C481.9,121.6,427,58,364.3,1z M193.2,388.4
	c-0.5,0.7-4.3,4.5-5.7,5.9c-6.2,6.2-15.7,14.1-26.9,14.3c-7.2,0.2-14.3-3.1-20.7-9.5c-4.5-4.5-11.7-21-13.3-29
	c-1.2-5.7,2.2-9.7,5.9-10.5s8.3,1.2,9.8,7.8c0.5,1.9,1.6,5.2,6,14.1c2.1,4.1,5.3,5.3,11.2,3.6c7.4-2.2,15.7-11.5,16.4-12.2
	c6.7-6.7,10-12.4,9.8-17.4c0-6.4-5.2-12.6-12.9-19.8c-15.2-14.5-30-24.1-41-31c-6.5-4.3-11.4-7.2-13.8-10c-0.2-0.2-8.5-9.7-5.5-15
	c2.1-3.6,6-3.4,8.3-3.1c2.2,0.3,3.3-0.2,3.3-0.2c5.9-1.2,12.6-2.4,17.2,2.6c2.4,2.8,3.6,8.6,4.1,13.3c3.6,3.4,22.2,19,43.4,35.3
	c11.4,8.6,17.8,18.8,18.5,29.3C208.4,367.5,203.5,378,193.2,388.4z M210.3,326.9c-1.9-1-5-3.3-6-4c-11.5-10.4-36.5-28.3-47.2-35.9
	c-5.5-4-5.7-4.1-6-4.5c-1.2-1.2-9.7-14.7-5.2-19c2.6-2.6,5.2-1.4,9.1,0.5c14.7,6.5,31.7,21.4,46.7,34.7c3.3,2.8,6.4,5.5,9.1,7.9
	c0.5,0.5,2.6,0,4.1-1.5c1.2-1.2,16.2-15.9,22.8-22.4c-8.6-6.2-14.8-5-20-8.8c-4.1-3.1-7.2-8.1-7.4-12.2c-0.2-2.8,0.9-4.3,1.7-5.2
	c4.8-4.8,16.2-2.1,27.8,6.7c7.6,5.7,21.2,21.5,21.4,21.7c1.4,1.4,2.1,2.9,2.1,4.5c0,1.7-1,2.9-1.7,3.6c-0.4,0-32.8,32.1-32.8,32.1
	C223.9,330,214.4,329.4,210.3,326.9z M253,336.5c0,1.4-1.2,2.4-2.6,2.4l-12.4-0.5c-1.4,0-2.4-1.2-2.4-2.4l0.2-11.2
	c0-1.4,1.2-2.4,2.6-2.4l12.2,0.9c-0.2-0.3-0.2-0.7-0.2-1l0.2-11.2c0-1.4,1.2-2.4,2.6-2.4l12.8,0.9c1.4,0,2.4,1.2,2.2,2.6l-0.3,10.7
	c0,1.4-1.2,2.4-2.6,2.4l-12.2-0.5c0.2,0.3,0.3,0.7,0.3,1.2L253,336.5z M303.5,317.5c-1.2,1.9-2.9,3.5-4.3,5.2
	c-5.7,6.9-29.8,17.1-29.8,17.1c-2.6,0.9-5.2,0-6.7-2.2c-1.4-2.3-1.2-5,0.5-6.7c1.4-1.4,11.9-8.8,15.2-11.5
	c10.9-9.5,14.1-24.8,9.6-46.7c-4-19.7-33.6-8.8-44.6-17.4c-7.8-6-1.2-19,7.6-18.1c0.2,0,29.8,0,37.8,6.7c2.9,2.4,6.2,4.8,9.8,8.4
	c7.1,7.1,10.3,15.9,11,29.5c0,1.5,0.2,3.1,0.3,4.7C310.6,295.3,311.4,305.5,303.5,317.5z M296.8,161.4
	c27.9-20.3,54.9-41.2,78.9-63.4l23.2,23.2c-21.5,20.2-49.5,39.6-81.4,60.8L296.8,161.4z M382.2,246.9l-20.7-20.7
	c27.9-20.2,54.9-41.2,78.9-63.4l23.2,23.2C442.1,206.3,414.2,225.6,382.2,246.9z"/>
</svg>
