<?xml version="1.0" encoding="utf-8"?>
<!-- Generator: Adobe Illustrator 21.1.0, SVG Export Plug-In . SVG Version: 6.00 Build 0)  -->
<svg version="1.1" id="Layer_1" xmlns="http://www.w3.org/2000/svg" xmlns:xlink="http://www.w3.org/1999/xlink" x="0px" y="0px"
	 viewBox="0 0 550 512" style="enable-background:new 0 0 550 512;" xml:space="preserve">
<g>
	<path d="M218,307.4L88.7,474.6H240l6.4-31.7h56.3l6.5,31.7h152.2L332,307.4H218z M271.6,314.9h5.7l0.3,1.2l0,0l8.1,41.2h-22.5
		L271.6,314.9z M249.9,425.5l11.7-59.6h25.9l11.8,59.6H249.9z"/>
	<path d="M437.8,382.9c29.5-36.2,47.3-82.4,47.3-132.8C485.1,134,391,40,275,40S64.9,134,64.9,250.2c0,50.4,17.7,96.6,47.3,132.8
		L0,474.6h58.2L204,307.4l-50.8,41.9c-22-27.1-35.1-61.6-35.1-99.2C118,163.2,188.5,92.6,275.4,92.6s157.4,70.5,157.4,157.4
		c0,37.8-13.3,72.5-35.5,99.6L346,307.4l145.8,167.2H550L437.8,382.9z"/>
</g>
</svg>
