<?xml version="1.0" encoding="utf-8"?>
<!-- Generator: Adobe Illustrator 22.0.1, SVG Export Plug-In . SVG Version: 6.00 Build 0)  -->
<svg version="1.1" id="Layer_1" xmlns="http://www.w3.org/2000/svg" xmlns:xlink="http://www.w3.org/1999/xlink" x="0px" y="0px"
	 viewBox="0 0 405 512" style="enable-background:new 0 0 405 512;" xml:space="preserve">
<style type="text/css">
	.st0{fill-rule:evenodd;clip-rule:evenodd;}
</style>
<g>
	<rect x="63.2" y="54.1" width="73.2" height="15"/>
	<rect x="269.7" y="54.1" width="73.2" height="15"/>
	<rect x="102.3" y="19" width="49.1" height="15"/>
	<rect x="253.6" y="19" width="49.1" height="15"/>
	<path class="st0" d="M224.6,257.6v-18h73.2V88.2h-88.2V52.9c11.6-3.2,20.1-13.6,20.1-25.9c0-14.9-12.3-26.9-27.6-26.9
		c-15.2,0-27.6,12.1-27.6,26.9c0,12.3,8.5,22.7,20.1,25.9v35.3h-87.2v151.4h74.2v18H0V512h405V257.6H224.6z M244.2,117.5
		c12.2,0,22,9.9,22,22c0,12.2-9.8,22-22,22c-12.1,0-22-9.9-22-22C222.2,127.4,232,117.5,244.2,117.5z M139.1,139.6
		c0-12.2,9.8-22,22-22s22,9.9,22,22c0,12.2-9.8,22-22,22S139.1,151.7,139.1,139.6z M150.9,193.4c0-4.1,23-7.3,51.3-7.3
		c28.3,0,51.3,3.3,51.3,7.3c0,4.1-23,7.3-51.3,7.3C173.9,200.8,150.9,197.5,150.9,193.4z"/>
</g>
</svg>
