<?xml version="1.0" encoding="utf-8"?>
<!-- Generator: Adobe Illustrator 21.1.0, SVG Export Plug-In . SVG Version: 6.00 Build 0)  -->
<svg version="1.1" id="Layer_1" xmlns="http://www.w3.org/2000/svg" xmlns:xlink="http://www.w3.org/1999/xlink" x="0px" y="0px"
	 viewBox="0 0 384.3 512" style="enable-background:new 0 0 384.3 512;" xml:space="preserve">
<g>
	<path d="M133.4,435.3c-2.6-7.3-7.4-13.4-14.3-18.3c-7.2-4.8-14.9-6.9-23-6.2c-8.3,0.2-15.5,3.3-21.6,9.4
		c-8.8,10.6-13.9,25.3-15.5,44.1c-0.5,6-0.6,14-0.3,24l0.1,11.9l0.4,11.8l20.6-10c7.8-4.2,14.4-8,19.7-11.5
		c14.2-9.2,25-19.6,32.2-31.3C135.8,451.3,136.4,443.3,133.4,435.3z M266.7,147.2c-8.4,0-15.2,6.8-15.2,15.2
		c0,8.4,6.8,15.2,15.2,15.2c8.4,0,15.2-6.8,15.2-15.2C281.9,154,275.1,147.2,266.7,147.2z M266.7,147.2c-8.4,0-15.2,6.8-15.2,15.2
		c0,8.4,6.8,15.2,15.2,15.2c8.4,0,15.2-6.8,15.2-15.2C281.9,154,275.1,147.2,266.7,147.2z M214.6,243.5c-4.6,0-8.3,3.7-8.3,8.3
		c0,4.6,3.7,8.3,8.3,8.3c4.6,0,8.3-3.7,8.3-8.3C223,247.2,219.3,243.5,214.6,243.5z M237.3,205.1c-4.6,0-8.4,3.7-8.4,8.3
		c0,4.6,3.7,8.4,8.4,8.4c4.6,0,8.3-3.7,8.3-8.4C245.7,208.8,241.9,205.1,237.3,205.1z M266.7,147.2c-8.4,0-15.2,6.8-15.2,15.2
		c0,8.4,6.8,15.2,15.2,15.2c8.4,0,15.2-6.8,15.2-15.2C281.9,154,275.1,147.2,266.7,147.2z M266.7,147.2c-8.4,0-15.2,6.8-15.2,15.2
		c0,8.4,6.8,15.2,15.2,15.2c8.4,0,15.2-6.8,15.2-15.2C281.9,154,275.1,147.2,266.7,147.2z M237.3,205.1c-4.6,0-8.4,3.7-8.4,8.3
		c0,4.6,3.7,8.4,8.4,8.4c4.6,0,8.3-3.7,8.3-8.4C245.7,208.8,241.9,205.1,237.3,205.1z M214.6,243.5c-4.6,0-8.3,3.7-8.3,8.3
		c0,4.6,3.7,8.3,8.3,8.3c4.6,0,8.3-3.7,8.3-8.3C223,247.2,219.3,243.5,214.6,243.5z M214.6,243.5c-4.6,0-8.3,3.7-8.3,8.3
		c0,4.6,3.7,8.3,8.3,8.3c4.6,0,8.3-3.7,8.3-8.3C223,247.2,219.3,243.5,214.6,243.5z M237.3,205.1c-4.6,0-8.4,3.7-8.4,8.3
		c0,4.6,3.7,8.4,8.4,8.4c4.6,0,8.3-3.7,8.3-8.4C245.7,208.8,241.9,205.1,237.3,205.1z M266.7,147.2c-8.4,0-15.2,6.8-15.2,15.2
		c0,8.4,6.8,15.2,15.2,15.2c8.4,0,15.2-6.8,15.2-15.2C281.9,154,275.1,147.2,266.7,147.2z M266.7,147.2c-8.4,0-15.2,6.8-15.2,15.2
		c0,8.4,6.8,15.2,15.2,15.2c8.4,0,15.2-6.8,15.2-15.2C281.9,154,275.1,147.2,266.7,147.2z M237.3,205.1c-4.6,0-8.4,3.7-8.4,8.3
		c0,4.6,3.7,8.4,8.4,8.4c4.6,0,8.3-3.7,8.3-8.4C245.7,208.8,241.9,205.1,237.3,205.1z M214.6,243.5c-4.6,0-8.3,3.7-8.3,8.3
		c0,4.6,3.7,8.3,8.3,8.3c4.6,0,8.3-3.7,8.3-8.3C223,247.2,219.3,243.5,214.6,243.5z M258.5,37.7c-36.9,25-75.1,59.8-101.7,105.9
		c-30.4,52.6-46.4,107.3-51.6,153.5c60.1-0.4,102,23.8,130.6,75.4c37.4-27.6,76.8-68.9,107.1-121.5c26.6-46.1,37.7-96.6,40.9-141.1
		C336.8,102,287.9,76,258.5,37.7z M214.6,267.3c-8.5,0-15.5-6.9-15.5-15.5s7-15.5,15.5-15.5c8.6,0,15.5,6.9,15.5,15.5
		S223.2,267.3,214.6,267.3z M237.3,228.9c-8.6,0-15.5-6.9-15.5-15.5c0-8.5,6.9-15.5,15.5-15.5c8.6,0,15.5,6.9,15.5,15.5
		C252.8,222,245.9,228.9,237.3,228.9z M266.7,190.5c-15.6,0-28.2-12.6-28.2-28.2s12.6-28.2,28.2-28.2s28.2,12.6,28.2,28.2
		S282.3,190.5,266.7,190.5z M266.7,147.2c-8.4,0-15.2,6.8-15.2,15.2c0,8.4,6.8,15.2,15.2,15.2c8.4,0,15.2-6.8,15.2-15.2
		C281.9,154,275.1,147.2,266.7,147.2z M237.3,205.1c-4.6,0-8.4,3.7-8.4,8.3c0,4.6,3.7,8.4,8.4,8.4c4.6,0,8.3-3.7,8.3-8.4
		C245.7,208.8,241.9,205.1,237.3,205.1z M214.6,243.5c-4.6,0-8.3,3.7-8.3,8.3c0,4.6,3.7,8.3,8.3,8.3c4.6,0,8.3-3.7,8.3-8.3
		C223,247.2,219.3,243.5,214.6,243.5z M214.6,243.5c-4.6,0-8.3,3.7-8.3,8.3c0,4.6,3.7,8.3,8.3,8.3c4.6,0,8.3-3.7,8.3-8.3
		C223,247.2,219.3,243.5,214.6,243.5z M237.3,205.1c-4.6,0-8.4,3.7-8.4,8.3c0,4.6,3.7,8.4,8.4,8.4c4.6,0,8.3-3.7,8.3-8.4
		C245.7,208.8,241.9,205.1,237.3,205.1z M266.7,147.2c-8.4,0-15.2,6.8-15.2,15.2c0,8.4,6.8,15.2,15.2,15.2c8.4,0,15.2-6.8,15.2-15.2
		C281.9,154,275.1,147.2,266.7,147.2z M266.7,147.2c-8.4,0-15.2,6.8-15.2,15.2c0,8.4,6.8,15.2,15.2,15.2c8.4,0,15.2-6.8,15.2-15.2
		C281.9,154,275.1,147.2,266.7,147.2z M237.3,205.1c-4.6,0-8.4,3.7-8.4,8.3c0,4.6,3.7,8.4,8.4,8.4c4.6,0,8.3-3.7,8.3-8.4
		C245.7,208.8,241.9,205.1,237.3,205.1z M214.6,243.5c-4.6,0-8.3,3.7-8.3,8.3c0,4.6,3.7,8.3,8.3,8.3c4.6,0,8.3-3.7,8.3-8.3
		C223,247.2,219.3,243.5,214.6,243.5z M237.3,205.1c-4.6,0-8.4,3.7-8.4,8.3c0,4.6,3.7,8.4,8.4,8.4c4.6,0,8.3-3.7,8.3-8.4
		C245.7,208.8,241.9,205.1,237.3,205.1z M266.7,147.2c-8.4,0-15.2,6.8-15.2,15.2c0,8.4,6.8,15.2,15.2,15.2c8.4,0,15.2-6.8,15.2-15.2
		C281.9,154,275.1,147.2,266.7,147.2z M266.7,147.2c-8.4,0-15.2,6.8-15.2,15.2c0,8.4,6.8,15.2,15.2,15.2c8.4,0,15.2-6.8,15.2-15.2
		C281.9,154,275.1,147.2,266.7,147.2z M237.3,205.1c-4.6,0-8.4,3.7-8.4,8.3c0,4.6,3.7,8.4,8.4,8.4c4.6,0,8.3-3.7,8.3-8.4
		C245.7,208.8,241.9,205.1,237.3,205.1z M362.9,1.5c-15.5-8.9-85.7,24.8-86.1,24.7c11.3,19.1,27.7,32.1,46.7,43.2
		c19.7,11.5,39.2,19.2,60.8,19C384.3,88.4,378.4,10.4,362.9,1.5z M318.7,318.2c-22.9,29.3-69.4,69-69.4,69l43.3,74.1
		C292.6,461.3,351.8,384,318.7,318.2z M0,292.4l86.7,1c0,0,10.9-60.3,24.8-94.8C37.2,202.3,0,292.4,0,292.4z M174,328.7
		C115.8,295.1,41.4,315,7.9,373.2c43.7-14.3,79.3-10.4,103-3.7c-4.5,4.3-32.2,32.3-32.2,32.3l51.7,2.6l28.1,43.5
		c0,0,11.3-41.3,11.9-44.2c17.5,16.9,38.7,45.7,48.2,91.1C252.1,436.7,232.2,362.3,174,328.7z"/>
</g>
</svg>
