<?xml version="1.0" encoding="utf-8"?>
<!-- Generator: Adobe Illustrator 21.1.0, SVG Export Plug-In . SVG Version: 6.00 Build 0)  -->
<svg version="1.1" id="Layer_1" xmlns="http://www.w3.org/2000/svg" xmlns:xlink="http://www.w3.org/1999/xlink" x="0px" y="0px"
	 viewBox="0 0 292 512" style="enable-background:new 0 0 292 512;" xml:space="preserve">
<g>
	<path d="M250.3,430.6c0-57.9-46.9-104.9-104.7-104.9S40.9,372.6,40.9,430.5c26.4-29.5,54.6-42,75.2-47.1c-1.5,5.2-10.1,38-10.1,38
		l39.6-20.4l39.6,20.4c0,0-9.4-35.7-10.1-38.1C195.4,388.4,223.6,400.8,250.3,430.6z M142.9,205.3c-4.6,0-8.4,3.7-8.4,8.3
		c0,4.6,3.7,8.4,8.4,8.4c4.6,0,8.3-3.7,8.3-8.4C151.2,209.1,147.5,205.3,142.9,205.3z M143.1,146.8c-8.4,0-15.2,6.8-15.2,15.2
		c0,8.4,6.8,15.2,15.2,15.2c8.4,0,15.2-6.8,15.2-15.2C158.3,153.6,151.5,146.8,143.1,146.8z M143.1,146.8c-8.4,0-15.2,6.8-15.2,15.2
		c0,8.4,6.8,15.2,15.2,15.2c8.4,0,15.2-6.8,15.2-15.2C158.3,153.6,151.5,146.8,143.1,146.8z M142.9,205.3c-4.6,0-8.4,3.7-8.4,8.3
		c0,4.6,3.7,8.4,8.4,8.4c4.6,0,8.3-3.7,8.3-8.4C151.2,209.1,147.5,205.3,142.9,205.3z M207.9,72c-38.5,14.3-86.2,16-124.5,0
		c-16.7,34.6-30.3,77-30.3,122.9c0,52.3,11.6,100.1,27.6,136.8c44.6-26.1,86.3-26.1,129.8,0.1c16-36.7,27.6-84.5,27.6-136.9
		C238.1,149,224.6,106.5,207.9,72z M142.9,268.2c-8.5,0-15.5-6.9-15.5-15.5s7-15.5,15.5-15.5c8.6,0,15.5,6.9,15.5,15.5
		S151.5,268.2,142.9,268.2z M142.9,229.2c-8.6,0-15.5-6.9-15.5-15.5c0-8.5,6.9-15.5,15.5-15.5c8.6,0,15.5,6.9,15.5,15.5
		C158.4,222.3,151.5,229.2,142.9,229.2z M143.1,190.2c-15.6,0-28.2-12.6-28.2-28.2s12.6-28.2,28.2-28.2s28.2,12.6,28.2,28.2
		S158.7,190.2,143.1,190.2z M143.1,146.8c-8.4,0-15.2,6.8-15.2,15.2c0,8.4,6.8,15.2,15.2,15.2c8.4,0,15.2-6.8,15.2-15.2
		C158.3,153.6,151.5,146.8,143.1,146.8z M142.9,244.4c-4.6,0-8.3,3.7-8.3,8.3c0,4.6,3.7,8.3,8.3,8.3c4.6,0,8.4-3.7,8.4-8.3
		C151.2,248.1,147.5,244.4,142.9,244.4z M142.9,205.3c-4.6,0-8.4,3.7-8.4,8.3c0,4.6,3.7,8.4,8.4,8.4c4.6,0,8.3-3.7,8.3-8.4
		C151.2,209.1,147.5,205.3,142.9,205.3z M143.1,146.8c-8.4,0-15.2,6.8-15.2,15.2c0,8.4,6.8,15.2,15.2,15.2c8.4,0,15.2-6.8,15.2-15.2
		C158.3,153.6,151.5,146.8,143.1,146.8z M143.1,146.8c-8.4,0-15.2,6.8-15.2,15.2c0,8.4,6.8,15.2,15.2,15.2c8.4,0,15.2-6.8,15.2-15.2
		C158.3,153.6,151.5,146.8,143.1,146.8z M42.9,255.5C-10.8,290.3,0.2,373.6,0.2,373.6l65.1-36.7C65.3,336.9,47.5,287.2,42.9,255.5z
		 M249,255.5c-4.5,31.8-22.1,81.4-22.1,81.4l64.2,36.6C291.1,373.6,302,290.3,249,255.5z M161.2,422.8c-5-4.3-11.2-6.9-18.5-7.5
		c-7.5-0.5-14.1,1.3-19.8,5.3c-6.1,3.7-10.1,9.1-12.1,16.3c-2,11.7,0.5,24.9,7.4,39.6c2.2,4.7,5.6,10.7,10.1,18.1l5.2,8.9l5.4,8.6
		l11-16.2c4-6.5,7.3-12.2,9.7-17.1c6.7-13,10.2-25.4,10.6-37.3C169.9,433.7,166.9,427.5,161.2,422.8z M145.6,0
		C130.2,0,92.3,55.5,92,55.5c16.7,9.4,34.5,12.1,53.4,12.2c19.7,0.1,37.6-2.5,53.6-12C199,55.7,161,0,145.6,0z"/>
</g>
</svg>
