<?xml version="1.0" encoding="utf-8"?>
<!-- Generator: Adobe Illustrator 21.1.0, SVG Export Plug-In . SVG Version: 6.00 Build 0)  -->
<svg version="1.1" id="Layer_2" xmlns="http://www.w3.org/2000/svg" xmlns:xlink="http://www.w3.org/1999/xlink" x="0px" y="0px"
	 viewBox="0 0 512 512" style="enable-background:new 0 0 512 512;" xml:space="preserve">
<g>
	<g>
		<path d="M144.7,207.3c0,2,0.7,3.7,2,5s3,2,5,2c7.3,0,13.5,2.5,18.4,7.5c5,5,7.5,11.2,7.5,18.5c0,4.7,2.3,7,7,7c4.6,0,7-2.3,7-7
			c0-11-3.8-20.3-11.5-28c-8-8-17.4-12-28.4-12C147,200.3,144.7,202.7,144.7,207.3z M150.1,152.4c25.2,0,46.8,9,64.8,27
			c17.6,18,26.4,39.5,26.4,64.4c0,4.7,2.3,7,7,7c4.6,0,7-2.3,7-7c0-29-10.3-53.8-30.9-74.4c-20.3-20.6-45-31-74.2-31
			c-4.7,0-7,2.3-7,7c0,2,0.7,3.7,2,5C146.5,151.7,148.2,152.4,150.1,152.4z M209.9,242.8c0,4.7,2.3,7,7,7c4.6,0,7-2.3,7-7
			c0-20-7-37.1-20.9-51.5c-14.3-14.3-31.4-21.5-51.3-21.5c-4.7,0-7,2.3-7,7c0,2,0.7,3.7,2,5s3,2,5,2c15.9,0,29.7,5.8,41.4,17.5
			C204.3,212.7,209.9,226.5,209.9,242.8z M494,293.5H114v-170c0-5.7-2.6-10.4-7.2-14.1V11.2c0-6.2-5-11.2-11.2-11.2l0,0
			c-6.2,0-11.2,5-11.2,11.2v98.2c-4.3,3.7-6.4,8.4-6.4,14.1v170H18c-9.9,0-18,8.1-18,18v181h78V512h84v-19.5h187V512h85v-19.5h78
			v-181C512,301.6,503.9,293.5,494,293.5z M92.5,419.7c-15.2,0-27.5-12.3-27.5-27.5s12.3-27.5,27.5-27.5S120,377,120,392.2
			S107.7,419.7,92.5,419.7z M315.6,423.5h-39v-63h39V423.5z M374.6,423.5h-39v-63h39V423.5z M434.6,423.5h-38v-63h38V423.5z"/>
	</g>
</g>
</svg>
