<?xml version="1.0" encoding="utf-8"?>
<!-- Generator: Adobe Illustrator 21.1.0, SVG Export Plug-In . SVG Version: 6.00 Build 0)  -->
<svg version="1.1" id="Layer_1" xmlns="http://www.w3.org/2000/svg" xmlns:xlink="http://www.w3.org/1999/xlink" x="0px" y="0px"
	 viewBox="0 0 512 512" style="enable-background:new 0 0 512 512;" xml:space="preserve">
<path d="M441,0H71C31.8,0,0,31.8,0,71v370c0,39.2,31.8,71,71,71h370c39.2,0,71-31.8,71-71V71C512,31.8,480.2,0,441,0z M164.8,384
	c-20.8,0-36.8-16-36.8-36.8c0-20.8,16-36.8,36.8-36.8s36.8,16,36.8,36.8C201.6,368,185.6,384,164.8,384z M257.6,384
	c0-72-57.6-129.6-129.6-129.6v-40c92.8,0,169.6,75.2,169.6,169.6H257.6z M344,384c0-120-97.6-216-216-216v-40
	c140.8,0,256,115.2,256,256H344z"/>
</svg>
