<?xml version="1.0" encoding="utf-8"?>
<!-- Generator: Adobe Illustrator 21.1.0, SVG Export Plug-In . SVG Version: 6.00 Build 0)  -->
<svg version="1.1" id="Layer_1" xmlns="http://www.w3.org/2000/svg" xmlns:xlink="http://www.w3.org/1999/xlink" x="0px" y="0px"
	 viewBox="0 0 512 512" style="enable-background:new 0 0 512 512;" xml:space="preserve">
<path d="M256,0C115.2,0,0,115.2,0,256s115.2,256,256,256s256-115.2,256-256S396.8,0,256,0z M380,225.2c-3.6,10.8-9.4,20.6-17,29.1
	c-7.2,7.7-15.9,13.8-25.5,18c-10.3,4.5-21,7.8-32.1,9.8c-11.9,2.1-23.9,3.4-36,3.8c-12,0-25.2,0.7-38.1,0.7h-9.4V315h93.1v51.8
	h-93.2v63.4h-69.7v-63.4H129v-51.9h23.1v-28.4H129v-54.4h23.1V86.2h99c27-1.3,53.9,1.9,79.9,9.4c16.7,6.2,30.8,17.7,40.1,32.8
	c10.1,16.2,15.4,35,15,54.2C386.4,197.1,384.3,211.5,380,225.2z M306,158.9c-6.9-7.8-16.7-12.6-27.2-13.3c-2.8,0-8.4-0.6-16.7-0.9
	c-8.3-0.3-19.6,0-33.8,0h-7v87.4h0.3v0.1h4.2c20.8,1.1,41.6-0.3,62.1-4.2c8-2.4,14.9-7.5,19.6-14.5c5-7.8,7.6-17,7.3-26.3
	C315.4,177,312.3,167,306,158.9z"/>
</svg>
