<?xml version="1.0" encoding="utf-8"?>
<!-- Generator: Adobe Illustrator 21.1.0, SVG Export Plug-In . SVG Version: 6.00 Build 0)  -->
<svg version="1.1" id="Layer_1" xmlns="http://www.w3.org/2000/svg" xmlns:xlink="http://www.w3.org/1999/xlink" x="0px" y="0px"
	 viewBox="0 0 545.2 512" style="enable-background:new 0 0 545.2 512;" xml:space="preserve">
<path d="M364.3,1l-0.6-0.4c-0.8-0.7-1.5-0.5-2.2,0.2c-0.4,0.4-0.8,0.9-1.2,1.6c-11,18.3-25.4,35.7-42.2,52.5
	c-74.8,74.8-196.7,137.7-270.7,211.8C28,285.9,12,305.9,0.9,327.1c54.8,63.6,180,184.7,180.4,184.3c7.5-9.7,15.3-19,23.2-27.9
	s15.9-17.4,24.1-25.6c95.2-95.2,206-142.5,269.8-206.3c21.6-21.6,37.8-45,46.3-72.9C481.9,121.6,427,58,364.3,1z M232.7,406.3
	l-26,26l-23.7-23.7l-8.6,8.6l-19.4-19.4l8.6-8.6l-10.6-10.6l-8.6,8.6l-20.3-20.3l8.6-8.6L78,303.7l37-37
	c9.6-10.6,20.9-19.5,33.4-26.4c8.5-3.9,18.1-4.9,27.3-2.7c9.9,2.3,18.9,7.3,25.9,14.7c5.5,5.3,10.1,11.4,13.6,18.2
	c2.7,5.4,4.2,11.2,4.5,17.2c0.2,5.6-0.8,11.1-2.8,16.3c-2.2,5.5-5,10.8-8.3,15.6c-3.7,5.2-7.7,10.2-12,14.9
	c-4.5,4.5-9.1,9.7-14,14.5l-3.5,3.5l10.6,10.6l34.8-34.8l19.4,19.4L209,382.5L232.7,406.3z M296.8,161.4
	c27.9-20.2,54.9-41.2,78.9-63.4l23.2,23.2c-21.5,20.2-49.5,39.6-81.4,60.9L296.8,161.4z M382.2,246.9l-20.7-20.7
	c27.9-20.2,54.9-41.2,78.9-63.4l23.2,23.2C442.1,206.3,414.2,225.6,382.2,246.9z M183.7,293.1c-1-4.8-3.5-9.2-7.1-12.6
	c-3.6-4-8.5-6.6-13.9-7.2c-5.5-0.3-11,1.5-15.1,5.2c-1,1-3.4,2.9-6.6,5.9c-3.2,3-7.3,7.3-12.6,12.6l-2.6,2.6l32.7,32.7l0.1-0.1l0,0
	l1.6-1.6c8.2-7.4,15.4-15.7,21.6-24.8C183.9,301.9,184.6,297.4,183.7,293.1z"/>
</svg>
