<?xml version="1.0" encoding="utf-8"?>
<!-- Generator: Adobe Illustrator 21.1.0, SVG Export Plug-In . SVG Version: 6.00 Build 0)  -->
<svg version="1.1" xmlns="http://www.w3.org/2000/svg" xmlns:xlink="http://www.w3.org/1999/xlink" x="0px" y="0px"
	 viewBox="0 0 382 512" style="enable-background:new 0 0 382 512;" xml:space="preserve">
<g id="ruble">
	<g>
		<path d="M276.4,340.5v77.2H137.8V512H34.2v-94.3H-0.1v-77.2h34.3v-42.2H-0.1v-80.9h34.3V0.4h147.2c40.1-1.9,80.2,2.8,118.8,13.9
			c24.8,9.2,45.8,26.3,59.7,48.8c15.1,24.1,22.9,52.1,22.3,80.6c0.5,21.5-2.6,42.9-9.1,63.4c-5.4,16-14,30.7-25.2,43.2
			c-10.7,11.4-23.7,20.5-38,26.8c-15.3,6.7-31.3,11.6-47.7,14.5c-17.7,3.1-35.6,5.1-53.6,5.7c-17.9,0-37.5,1.1-56.6,1.1H138v42.2
			H276.4z M137.8,217.5h6.3c30.9,1.6,61.9-0.5,92.3-6.3c11.9-3.6,22.2-11.2,29.1-21.6c7.5-11.6,11.3-25.3,10.9-39.1
			c0.7-15.1-3.9-30-13.2-42c-10.3-11.6-24.8-18.8-40.4-19.8c-4.1,0-12.5-0.9-24.8-1.3c-12.3-0.4-29.1,0-50.2,0h-10.4v130H137.8z"/>
	</g>
</g>
</svg>
