<?xml version="1.0" encoding="utf-8"?>
<!-- Generator: Adobe Illustrator 21.1.0, SVG Export Plug-In . SVG Version: 6.00 Build 0)  -->
<svg version="1.1" id="Layer_1" xmlns="http://www.w3.org/2000/svg" xmlns:xlink="http://www.w3.org/1999/xlink" x="0px" y="0px"
	 viewBox="0 0 442 512" style="enable-background:new 0 0 442 512;" xml:space="preserve">
<polygon points="442,332.1 442,511.8 0,512.2 0,0 160.8,0 160.8,61.8 67,61.7 67,90.6 160.8,91.1 160.8,141.7 67,141.3 67,170.9 
	160.8,171.2 160.8,221.8 67,221.8 67,250.8 160.8,251.1 160.8,301.6 67,302 67,331 160.8,330.6 160.8,331.8 160.8,331.8 
	160.8,411.9 188.2,411.9 188.2,331.9 228.7,331.9 228.9,412 256,412 255.9,332 297,332 296.9,412 324,412 324.1,332 364.9,332.1 
	364.7,412.1 392.2,412.1 392,332.1 "/>
</svg>
