<?xml version="1.0" encoding="utf-8"?>
<!-- Generator: Adobe Illustrator 22.0.1, SVG Export Plug-In . SVG Version: 6.00 Build 0)  -->
<svg version="1.1" id="Layer_1" xmlns="http://www.w3.org/2000/svg" xmlns:xlink="http://www.w3.org/1999/xlink" x="0px" y="0px"
	 viewBox="0 0 512 512" style="enable-background:new 0 0 512 512;" xml:space="preserve">
<path id="FILL" d="M512,368v144H0V0h149v66H88.5c-1.2,0-2.4,0.5-3.2,1.3c-0.8,0.8-1.3,1.9-1.3,3.2c0,2.5,2,4.5,4.5,4.5H149v26H88.5
	c-1.2,0-2.4,0.5-3.2,1.3c-0.8,0.8-1.3,1.9-1.3,3.2c0,2.5,2,4.5,4.5,4.5H149v27H88.5c-1.2,0-2.4,0.5-3.2,1.3
	c-0.8,0.8-1.3,1.9-1.3,3.2c0,2.5,2,4.5,4.5,4.5H149v26H62.5c-1.2,0-2.4,0.5-3.2,1.3c-0.8,0.8-1.3,1.9-1.3,3.2c0,2.5,2,4.5,4.5,4.5
	H149v26H88.5c-1.2,0-2.4,0.5-3.2,1.3c-0.8,0.8-1.3,1.9-1.3,3.2c0,2.5,2,4.5,4.5,4.5H149v27H88.5c-1.2,0-2.4,0.5-3.2,1.3
	c-0.8,0.8-1.3,1.9-1.3,3.2c0,2.5,2,4.5,4.5,4.5H149v26H88.5c-1.2,0-2.4,0.5-3.2,1.3c-0.8,0.8-1.3,1.9-1.3,3.2c0,2.5,2,4.5,4.5,4.5
	H149v26H62.5c-1.2,0-2.4,0.5-3.2,1.3c-0.8,0.8-1.3,1.9-1.3,3.2c0,2.5,2,4.5,4.5,4.5H149v26H88.5c-1.2,0-2.4,0.5-3.2,1.3
	c-0.8,0.8-1.3,1.9-1.3,3.2c0,2.5,2,4.5,4.5,4.5H149v11h16v58.5c0,1.2,0.5,2.4,1.3,3.2c0.8,0.8,1.9,1.3,3.2,1.3c2.5,0,4.5-2,4.5-4.5
	V368h27v58.5c0,1.2,0.5,2.4,1.3,3.2c0.8,0.8,1.9,1.3,3.2,1.3c2.5,0,4.5-2,4.5-4.5V368h26v83.5c0,1.2,0.5,2.4,1.3,3.2
	c0.8,0.8,1.9,1.3,3.2,1.3c2.5,0,4.5-2,4.5-4.5V368h26v58.5c0,1.2,0.5,2.4,1.3,3.2c0.8,0.8,1.9,1.3,3.2,1.3c2.5,0,4.5-2,4.5-4.5V368
	h27v58.5c0,1.2,0.5,2.4,1.3,3.2c0.8,0.8,1.9,1.3,3.2,1.3c2.5,0,4.5-2,4.5-4.5V368h26v58.5c0,1.2,0.5,2.4,1.3,3.2
	c0.8,0.8,1.9,1.3,3.2,1.3c2.5,0,4.5-2,4.5-4.5V368h28v83.5c0,1.2,0.5,2.4,1.3,3.2c0.8,0.8,1.9,1.3,3.2,1.3c2.5,0,4.5-2,4.5-4.5V368
	h25v58.5c0,1.2,0.5,2.4,1.3,3.2c0.8,0.8,1.9,1.3,3.2,1.3c2.5,0,4.5-2,4.5-4.5V368h27v58.5c0,1.2,0.5,2.4,1.3,3.2
	c0.8,0.8,1.9,1.3,3.2,1.3c2.5,0,4.5-2,4.5-4.5V368H512z"/>
</svg>
