<?xml version="1.0" encoding="utf-8"?>
<!-- Generator: Adobe Illustrator 21.1.0, SVG Export Plug-In . SVG Version: 6.00 Build 0)  -->
<svg version="1.1" id="Layer_6" xmlns="http://www.w3.org/2000/svg" xmlns:xlink="http://www.w3.org/1999/xlink" x="0px" y="0px"
	 viewBox="0 0 253 512" style="enable-background:new 0 0 253 512;" xml:space="preserve">
<path d="M0,0v150h111v23H0v202h82v23H0v22h111v23H0v69h253V0H0z M0,195h81v23H0V195z M111,353H0v-23h111V353z M81,308H0v-23h81V308z
	 M112,263H0v-23h112V263z M162.6,118.6c-16.6,0-30.3-13.5-30.3-30.1c0-16.6,13.7-30.1,30.3-30.1s30.3,13.5,30.3,30.1
	C192.9,105.1,179.2,118.6,162.6,118.6z"/>
</svg>
