<?xml version="1.0" encoding="utf-8"?>
<!-- Generator: Adobe Illustrator 21.1.0, SVG Export Plug-In . SVG Version: 6.00 Build 0)  -->
<svg version="1.1" id="Layer_4" xmlns="http://www.w3.org/2000/svg" xmlns:xlink="http://www.w3.org/1999/xlink" x="0px" y="0px"
	 viewBox="0 0 550 512" style="enable-background:new 0 0 550 512;" xml:space="preserve">
<g>
	<path d="M381.6,256H168.4L0,512h250.1l2.8-119.9H282l2.8,119.9H550L381.6,256z M252.9,346.9l1.9-87.6h25.3l1.9,87.6H252.9z"/>
	<path d="M510.7,104.7L308.2,93c-1.3-9.4-5-17.9-10.1-24.7c0.2,0,0.4-0.1,0.6-0.2l50-6.9c0,0,2.6-0.5,2.6-1.2
		c-0.1-0.7-2.7-0.7-2.7-0.7L297,64.4c-0.7-0.1-1.3-0.1-2.1-0.1c-6.3-6.7-14.4-11.2-23.4-12.2L270.3,2c0,0-1.7-4.4-3.2,0l-2.9,50.1
		c-9.2,0.9-17.6,5.4-24,12.4c-0.7,0.1-1.1,0-1.7,0.1l-51.6-5c0,0-2.6-0.2-2.7,0.7c-0.1,0.7,2.6,1.2,2.6,1.2l50,6.9
		c0.1,0,0.2,0,0.3,0.1c-5.1,6.8-8.7,15.3-10.1,24.7L24.1,104.6c-14.3,1.3,0,4.6,0,4.6l73-0.8c-6.6,1.6-11.5,7.6-11.5,14.7
		c0,8.3,6.8,15,15,15s15-6.8,15-15c0-7.2-5.1-13.2-11.8-14.7l64.9-0.7c-7.9,3-13.5,10.7-13.5,19.7c0,11.6,9.5,21,21,21
		c11.6,0,21-9.5,21-21c0-9.1-5.8-16.8-14-19.8l42.1-0.4c0.3-0.3,0.5-0.5,0.8-0.8c1.9,25.4,19.7,45.3,41.2,45.3s39.3-19.9,41.2-45.2
		c0.2,0.2,0.4,0.4,0.6,0.6l42,0.5c-8.1,2.9-13.9,10.7-14,19.8c0,11.6,9.5,21,21,21c11.5,0,21-9.5,21-21c0-9-5.6-16.6-13.5-19.7
		l65.8,0.7c-6.7,1.4-11.8,7.5-11.8,14.8c0,8.3,6.8,15,15,15s15-6.8,15-15c0-7.1-4.9-13.1-11.5-14.7l72.2,0.8
		C510.7,109.2,525,106,510.7,104.7z M111.4,123.1c0,5.9-4.8,10.6-10.6,10.6c-5.9,0-10.6-4.8-10.6-10.6c0-5.9,4.8-10.6,10.6-10.6
		C106.7,112.5,111.4,117.3,111.4,123.1z M193,127.4c0,9.2-7.5,16.6-16.6,16.6s-16.6-7.5-16.6-16.6c0-9.2,7.5-16.6,16.6-16.6
		C185.6,110.8,192.9,118.2,193,127.4z M280.9,85.4C280.8,85.5,280.8,85.4,280.9,85.4l-10.7,0.4h-4.4l-10.6-0.4c0,0,0,0-0.1,0H255
		c-1.1-0.1-7-0.9-7.5-2.5c-0.1-0.3-0.1-0.5,0.1-0.8l0,0c0,0,0-0.1,0.1-0.2s0-0.1,0.1-0.2c0.4-0.9,1.8-4.1,2.8-4.7
		c0.9-0.6,4.4,0,4.4,0l11,0.9h4.4l10.9-1c0,0,3.5-0.6,4.4,0c1,0.6,2.5,3.7,2.8,4.7c0.1,0.1,0.1,0.2,0.1,0.2c0.1,0.1,0.1,0.2,0.1,0.2
		l0,0c0.1,0.3,0.1,0.5,0.1,0.8c-0.6,1.6-6.3,2.4-7.5,2.5C281,85.4,280.9,85.4,280.9,85.4z M375.1,127.4c0,9.2-7.5,16.6-16.6,16.6
		s-16.6-7.5-16.6-16.6s7.5-16.6,16.6-16.6S375.1,118.2,375.1,127.4z M445.7,123.1c0,5.9-4.8,10.6-10.7,10.7
		c-5.9,0-10.6-4.8-10.6-10.6c0-5.9,4.8-10.6,10.6-10.6C440.9,112.5,445.7,117.3,445.7,123.1z"/>
</g>
</svg>
