<?xml version="1.0" encoding="utf-8"?>
<!-- Generator: Adobe Illustrator 21.1.0, SVG Export Plug-In . SVG Version: 6.00 Build 0)  -->
<svg version="1.1" id="Layer_1" xmlns="http://www.w3.org/2000/svg" xmlns:xlink="http://www.w3.org/1999/xlink" x="0px" y="0px"
	 viewBox="0 0 512 512" style="enable-background:new 0 0 512 512;" xml:space="preserve">
<path d="M156.3,141.2c-18.3,0-28.8,1.5-34.2,2.5v92.2h29.8c37.7,0,60-18.8,60-48.1C211.9,157.1,191.1,141.7,156.3,141.2z
	 M156.3,141.2c-18.3,0-28.8,1.5-34.2,2.5v92.2h29.8c37.7,0,60-18.8,60-48.1C211.9,157.1,191.1,141.7,156.3,141.2z M441,0H71
	C31.8,0,0,31.8,0,71v370c0,39.2,31.8,71,71,71h370c39.2,0,71-31.8,71-71V71C512,31.8,480.2,0,441,0z M222.3,427.9
	c-5.5-9.4-13.4-42.7-23.3-83.8c-8.9-41.6-23.3-53.1-54-53.6h-22.8v137.4H54v-342c0,0,53.8-0.7,94-0.7c49.6,0,84.3,7.4,108,26.3
	c19.8,15.9,30.8,39.1,30.8,69.9c0,42.6-30.2,71.9-59,82.3v1.5c23.3,9.4,36.2,31.7,44.6,62.4c10.4,37.7,20.8,87.4,27.3,100.3H222.3z
	 M438.4,412.7c-13.8,10-32,15-54.8,15c-22.9,0-42.6-5.8-59.3-17.2c-16.7-11.5-24.8-28-24.3-49.5l0.3-0.8h45.4
	c0,11.6,3.1,19.9,9.4,24.9c6.3,5,15.7,7.4,28.5,7.4c9.7,0,16.9-1.9,21.7-5.8c4.8-3.9,7.1-8.9,7.1-15.2c0-7-2.3-12.5-7-16.4
	c-4.7-3.9-13.1-8-25.3-12.3c-25.4-8-44.2-16.6-56.5-25.8c-12.3-9.2-18.4-22.5-18.4-39.7c0-16.8,7.3-30.5,21.9-40.9
	c14.6-10.4,33.2-15.6,55.6-15.6c22.3,0,40.6,5.8,54.8,17.2c14.2,11.5,21.1,26.3,20.6,44.3l-0.3,0.8h-45.3c0-8-2.8-14.5-8.2-19.6
	c-5.4-5-12.9-7.5-22.5-7.5c-9.4,0-16.8,2.1-22.1,6.2c-5.4,4.2-8,9.2-8,15.3c0,5.9,2.8,10.6,8.1,14.1c5.4,3.6,15.5,8,30.4,13.3
	c22.9,6.8,40,15.2,51.6,25.1c11.5,10,17.4,23.7,17.3,41.1C459,388.9,452.2,402.7,438.4,412.7z M156.3,141.2
	c-18.3,0-28.8,1.5-34.2,2.5v92.2h29.8c37.7,0,60-18.8,60-48.1C211.9,157.1,191.1,141.7,156.3,141.2z"/>
</svg>
