<?xml version="1.0" encoding="utf-8"?>
<!-- Generator: Adobe Illustrator 21.1.0, SVG Export Plug-In . SVG Version: 6.00 Build 0)  -->
<svg version="1.1" id="south_korea_won_1_" xmlns="http://www.w3.org/2000/svg" xmlns:xlink="http://www.w3.org/1999/xlink" x="0px"
	 y="0px" viewBox="0 0 550 512" style="enable-background:new 0 0 550 512;" xml:space="preserve">
<g id="pkrs">
	<g>
		<path d="M526.5,365.9c-15.7-14.8-39-27.4-70.1-37.6c-20.1-8-33.9-14.6-41.2-19.9c-7.3-5.3-11-12.3-11-21.1
			c0-9.1,3.6-16.7,10.9-22.9c7.3-6.2,17.3-9.3,30-9.3c13,0,23.2,3.7,30.6,11.2c7.4,7.5,11.1,17.2,11.1,29.2h61.5l0.4-1.2
			c0.6-26.9-8.7-49.1-28-66.2s-44.1-25.7-74.4-25.7c-30.5,0-55.7,7.8-75.5,23.3s-29.8,35.9-29.8,61.1c0,25.8,8.3,45.7,24.9,59.4
			s42.2,26.5,76.7,38.6c16.5,6.5,27.9,12.6,34.3,18.4c6.4,5.8,9.6,14,9.6,24.5c0,9.4-3.2,16.9-9.6,22.7c-6.5,5.8-16.2,8.7-29.4,8.7
			c-17.3,0-30.1-3.7-38.7-11.1S396,428.2,396,410.9h-61.7l-0.4,1.2c-0.6,32.2,10.4,56.9,33,74c22.7,17.1,49.5,25.7,80.5,25.7
			c30.9,0,55.7-7.5,74.4-22.4c18.7-14.9,28-35.6,28-62.1C550.1,401.2,542.2,380.8,526.5,365.9z M236,269v-2.2
			c39-15.5,80.1-59.3,80.1-123c0-46-14.8-80.7-41.8-104.4C242,11.1,195,0,127.6,0C73.1,0,0,1,0,1v511h92.6V306.7h30.9
			c41.8,0.7,61.3,17.8,73.4,80c13.5,61.5,24.2,111.3,31.7,125.3h105c-8.7-19.2-22.9-93.4-37-149.8C285.1,316.3,267.6,283,236,269z
			 M133,225.2H92.6V87.4c7.4-1.5,21.6-3.7,46.4-3.7c47.1,0.7,75.5,23.7,75.5,69.6C214.4,197.1,184.1,225.2,133,225.2z"/>
	</g>
</g>
</svg>
