<?xml version="1.0" encoding="utf-8"?>
<!-- Generator: Adobe Illustrator 21.1.0, SVG Export Plug-In . SVG Version: 6.00 Build 0)  -->
<svg version="1.1" id="Layer_1" xmlns="http://www.w3.org/2000/svg" xmlns:xlink="http://www.w3.org/1999/xlink" x="0px" y="0px"
	 viewBox="0 0 545.2 512" style="enable-background:new 0 0 545.2 512;" xml:space="preserve">
<path d="M159,295.4c-11.1-11-24.1-9.1-36.8,3.2c-6.6,6.6-9.8,10.9-11.4,13.2l33.2,33.2l10.7-10.7C168.3,320.8,169.5,306,159,295.4z
	 M159,295.4c-11.1-11-24.1-9.1-36.8,3.2c-6.6,6.6-9.8,10.9-11.4,13.2l33.2,33.2l10.7-10.7C168.3,320.8,169.5,306,159,295.4z
	 M364.3,1l-0.6-0.4c-0.8-0.7-1.5-0.5-2.2,0.2c-0.4,0.4-0.8,0.9-1.2,1.6c-11,18.3-25.4,35.7-42.2,52.5
	c-74.8,74.8-196.7,137.7-270.7,211.8C28,285.9,12,305.9,0.9,327.1c54.8,63.6,180,184.7,180.4,184.3c7.5-9.7,15.3-19,23.2-27.9
	s15.9-17.4,24.1-25.6c95.2-95.2,206-142.5,269.8-206.3c21.6-21.6,37.8-45,46.3-72.9C481.9,121.6,427,58,364.3,1z M375.7,98
	l23.2,23.2c-21.5,20.2-49.5,39.6-81.4,60.9l-20.7-20.7C324.7,141.2,351.7,120.2,375.7,98z M249.2,378.1
	c-5.4-1.4-20.2-10.5-38.6-21.8c-18.2-11.8-27.5-10.7-38.7,0.2l-8.2,8.2l49.5,49.5l-24.5,24.5L65.4,315.6c0,0,19.1-19.6,33.6-34.1
	c17.9-17.9,33-27.7,48.4-29.4c12.9-1.4,25.2,3,36.3,14.1c15.4,15.4,15,36.8,8.4,50.9l0.5,0.5c11.8-5,24.4-1.6,38.5,6.4
	c17.3,9.8,39,24,45.9,26.3L249.2,378.1z M321.5,294.9c-1.4,8.6-6.1,16.9-14.3,25.1c-8.2,8.2-17.4,13.3-27.6,15.2
	c-10.1,1.9-19-1.1-26.6-9.1l-0.2-0.4l16.4-16.4c4.2,4.2,8.3,6.1,12.3,5.6c4.1-0.5,8.4-3,12.9-7.6c3.5-3.5,5.4-6.8,5.7-9.9
	c0.3-3.1-0.6-5.8-2.9-8c-2.5-2.5-5.4-3.7-8.4-3.4c-3.1,0.3-7.6,1.9-13.5,4.7c-12.1,6.3-21.9,9.9-29.6,11.1
	c-7.7,1.1-14.7-1.5-20.9-7.7c-6.1-6.1-8.3-13.6-6.8-22.6c1.5-9,6.3-17.6,14.4-25.6c8-8,16.7-12.6,25.9-13.5s17.1,1.9,23.4,8.5
	l0.2,0.4l-16.3,16.3c-2.9-2.9-6.2-4.3-10-4.1c-3.8,0.1-7.4,2-10.8,5.4c-3.4,3.4-5.3,6.8-5.7,10.2c-0.4,3.4,0.4,6.2,2.6,8.4
	c2.1,2.1,4.8,2.8,8,2.2c3.2-0.7,8.5-2.7,15.7-6.1c10.7-5.8,19.9-8.9,27.6-9.5c7.8-0.6,14.8,2.3,21,8.6
	C320.4,278.8,322.9,286.3,321.5,294.9z M382.2,246.9l-20.7-20.7c27.9-20.2,54.9-41.2,78.9-63.4l23.2,23.2
	C442.1,206.3,414.2,225.6,382.2,246.9z M122.2,298.7c-6.6,6.6-9.8,10.9-11.4,13.2l33.2,33.2l10.7-10.7c13.6-13.6,14.8-28.4,4.3-38.9
	C148,284.4,134.9,286.3,122.2,298.7z"/>
</svg>
