<?xml version="1.0" encoding="utf-8"?>
<!-- Generator: Adobe Illustrator 21.1.0, SVG Export Plug-In . SVG Version: 6.00 Build 0)  -->
<svg version="1.1" id="Layer_1" xmlns="http://www.w3.org/2000/svg" xmlns:xlink="http://www.w3.org/1999/xlink" x="0px" y="0px"
	 viewBox="0 0 545.2 512" style="enable-background:new 0 0 545.2 512;" xml:space="preserve">
<path d="M158.9,296c-11.2-11.2-24.2-9.1-37,3.4c-6.6,6.8-9.8,11-11.5,13.3l33.3,33.3l10.8-10.8C168.2,321.5,169.5,306.4,158.9,296z
	 M158.9,296c-11.2-11.2-24.2-9.1-37,3.4c-6.6,6.8-9.8,11-11.5,13.3l33.3,33.3l10.8-10.8C168.2,321.5,169.5,306.4,158.9,296z
	 M364.3,1l-0.6-0.4c-0.8-0.7-1.5-0.5-2.2,0.2c-0.4,0.4-0.8,0.9-1.2,1.6c-11,18.3-25.4,35.7-42.2,52.5
	c-74.8,74.8-196.7,137.7-270.7,211.8C28,285.9,12,305.9,0.9,327.1c54.8,63.6,180,184.7,180.4,184.3c7.5-9.7,15.3-19,23.2-27.9
	s15.9-17.4,24.1-25.6c95.2-95.2,206-142.5,269.8-206.3c21.6-21.6,37.8-45,46.3-72.9C481.9,121.6,427,58,364.3,1z M249.5,378.8
	c-5.4-1.3-20.3-10.5-38.7-21.8c-18.3-11.8-27.5-10.6-38.9,0.3l-8.3,8.3l49.5,49.5l-24.8,24.8L64.8,316.4c0,0,19.6-19.6,34.1-34.1
	c17.9-18.1,33.3-27.9,48.7-29.7c12.8-1.5,25.2,2.9,36.3,14c15.4,15.4,15,36.8,8.3,51l0.5,0.5c11.8-5.1,24.5-1.7,38.7,6.4
	c17.4,9.8,39.2,23.8,46.1,26.2L249.5,378.8z M284.6,343.1L201,259.5l24.7-24.7c17.1-17.1,35.6-31.4,58.6-8.5
	c17.7,17.7,11.3,36.8-4.7,53.2c-3,3-11.7,12-11.7,12l34.1,34.1L284.6,343.1z M296.8,161.4c27.9-20.2,54.9-41.2,78.9-63.4l23.2,23.2
	c-21.5,20.2-49.5,39.6-81.4,60.9L296.8,161.4z M382.2,246.9l-20.7-20.7c27.9-20.2,54.9-41.2,78.9-63.4l23.2,23.2
	C442.1,206.3,414.2,225.6,382.2,246.9z M266.3,243.8c-6.6-6.6-14.7-5.9-19.3-1.4c-0.7,0.7-14.5,14-14.5,14l21.6,21.6
	c0,0,5.9-5.9,11-11C274.3,258,271.4,248.8,266.3,243.8z M121.9,299.3c-6.6,6.8-9.8,11-11.5,13.3l33.3,33.3l10.8-10.8
	c13.7-13.7,15-28.7,4.4-39.2C147.8,284.8,134.7,286.8,121.9,299.3z"/>
</svg>
