<?xml version="1.0" encoding="utf-8"?>
<!-- Generator: Adobe Illustrator 21.1.0, SVG Export Plug-In . SVG Version: 6.00 Build 0)  -->
<svg version="1.1" id="Layer_1" xmlns="http://www.w3.org/2000/svg" xmlns:xlink="http://www.w3.org/1999/xlink" x="0px" y="0px"
	 viewBox="0 0 512 512" style="enable-background:new 0 0 512 512;" xml:space="preserve">
<path d="M156.3,141.2c-17.8,0-28.2,1.4-33.7,2.4c-0.1,0-0.3,0-0.4,0.1v92.2h29.8c24.5,0,42.5-8,52.1-21.6c5.2-7.3,7.9-16.3,7.9-26.5
	C211.9,157.1,191.1,141.7,156.3,141.2z M441,0H71C31.8,0,0,31.8,0,71v370c0,39.2,31.8,71,71,71h370c39.2,0,71-31.8,71-71V71
	C512,31.8,480.2,0,441,0z M222.3,427.9c-5.5-9.4-13.4-42.7-23.3-83.8c-8.9-41.6-23.3-53.1-54-53.6h-22.8v137.4H54v-342
	c0,0,53.8-0.7,94-0.7c49.6,0,84.3,7.4,108,26.3c19.8,15.9,30.8,39.1,30.8,69.9c0,42.6-30.2,71.9-59,82.3v1.5
	c23.3,9.4,36.2,31.7,44.6,62.4c10.4,37.7,20.8,87.4,27.3,100.3H222.3z M483,260.2c0.2,10-1.2,19.9-4.1,29.4
	c-2.5,7.4-6.5,14.2-11.7,20c-5,5.3-11,9.5-17.6,12.4c-7,3.1-14.4,5.3-22.1,6.7c-8.2,1.4-16.5,2.3-24.8,2.6c-8.3,0-17.4,0.5-26.2,0.5
	H370v95.3h-48V193.8h68.1c18.6-0.9,37.1,1.3,55,6.5c11.4,4.3,21.2,12.2,27.6,22.6C479.6,234.1,483.3,247,483,260.2z M409.2,234.8
	c-1.9,0-5.7-0.5-11.5-0.6c-5.7-0.1-13.5,0-23.3,0h-4.8v60.2h3c14.3,0.7,28.7-0.3,42.8-2.9c5.5-1.6,10.3-5.2,13.5-10
	c3.5-5.4,5.3-11.7,5.1-18.1c0.3-7-1.8-13.9-6.1-19.4C423.1,238.5,416.4,235.2,409.2,234.8z M156.3,141.2c-17.8,0-28.2,1.4-33.7,2.4
	c-0.1,0-0.3,0-0.4,0.1v92.2h29.8c24.5,0,42.5-8,52.1-21.6c5.2-7.3,7.9-16.3,7.9-26.5C211.9,157.1,191.1,141.7,156.3,141.2z
	 M156.3,141.2c-17.8,0-28.2,1.4-33.7,2.4c-0.1,0-0.3,0-0.4,0.1v92.2h29.8c24.5,0,42.5-8,52.1-21.6c5.2-7.3,7.9-16.3,7.9-26.5
	C211.9,157.1,191.1,141.7,156.3,141.2z M156.3,141.2c-17.8,0-28.2,1.4-33.7,2.4c-0.1,0-0.3,0-0.4,0.1v92.2h29.8
	c24.5,0,42.5-8,52.1-21.6c5.2-7.3,7.9-16.3,7.9-26.5C211.9,157.1,191.1,141.7,156.3,141.2z"/>
</svg>
