<?xml version="1.0" encoding="utf-8"?>
<!-- Generator: Adobe Illustrator 21.1.0, SVG Export Plug-In . SVG Version: 6.00 Build 0)  -->
<svg version="1.1" id="Layer_1" xmlns="http://www.w3.org/2000/svg" xmlns:xlink="http://www.w3.org/1999/xlink" x="0px" y="0px"
	 viewBox="0 0 512 512" style="enable-background:new 0 0 512 512;" xml:space="preserve">
<path d="M173,159.8c-15.5,0-24.4,1.3-29,2.1v78.4h25.3c32,0,51-16,51-40.9C220.2,173.3,202.5,160.2,173,159.8z M173,159.8
	c-15.5,0-24.4,1.3-29,2.1v78.4h25.3c32,0,51-16,51-40.9C220.2,173.3,202.5,160.2,173,159.8z M256,0C115.2,0,0,115.2,0,256
	s115.2,256,256,256s256-115.2,256-256S396.8,0,256,0z M229,403.3c-4.7-8-11.4-36.3-19.8-71.3c-7.6-35.4-19.8-45.1-45.9-45.5h-19.4
	v116.7H86V112.7c0,0,45.7-0.6,79.8-0.6c42.1,0,71.6,6.3,91.8,22.4c16.8,13.5,26.1,33.3,26.1,59.4c0,36.2-25.7,61.1-50.1,69.9v1.3
	c19.8,8,30.8,26.9,37.9,53c8.8,32.1,17.7,74.3,23.2,85.2H229z M444.5,286.4c-2.1,6.3-5.5,12-9.8,16.9c-4.2,4.4-9.3,8-14.9,10.5
	c-5.9,2.6-12.2,4.5-18.6,5.6c-6.9,1.2-14,1.9-21,2.2c-7,0-14.7,0.4-22.1,0.4h-5.5v80.4h-40.5V205.6h57.5c15.7-0.7,31.3,1.1,46.4,5.5
	c9.6,3.6,17.9,10.3,23.3,19.1c5.9,9.4,8.9,20.4,8.7,31.5C448.2,270,447,278.4,444.5,286.4z M385.7,240.2c-1.6,0-4.8-0.4-9.7-0.5
	c-4.8-0.1-11.4,0-19.6,0h-4v50.8h2.6c12.1,0.6,24.2-0.2,36.1-2.5c4.7-1.4,8.7-4.4,11.4-8.4c3-4.5,4.4-9.8,4.3-15.3
	c0.3-5.9-1.5-11.7-5.2-16.4C397.4,243.3,391.8,240.6,385.7,240.2z M173,159.8c-15.5,0-24.4,1.3-29,2.1v78.4h25.3c32,0,51-16,51-40.9
	C220.2,173.3,202.5,160.2,173,159.8z M173,159.8c-15.5,0-24.4,1.3-29,2.1v78.4h25.3c32,0,51-16,51-40.9
	C220.2,173.3,202.5,160.2,173,159.8z M173,159.8c-15.5,0-24.4,1.3-29,2.1v78.4h25.3c32,0,51-16,51-40.9
	C220.2,173.3,202.5,160.2,173,159.8z"/>
</svg>
