<?xml version="1.0" encoding="utf-8"?>
<!-- Generator: Adobe Illustrator 21.1.0, SVG Export Plug-In . SVG Version: 6.00 Build 0)  -->
<svg version="1.1" id="indonesia_rupiah_2_" xmlns="http://www.w3.org/2000/svg" xmlns:xlink="http://www.w3.org/1999/xlink"
	 x="0px" y="0px" viewBox="0 0 550 512" style="enable-background:new 0 0 550 512;" xml:space="preserve">
<g id="indonesia_rupiah">
	<g>
		<path d="M224.2,269.4v-2.2c37.1-15.5,76.1-59.2,76.1-122.7c0-45.9-14.1-80.6-39.7-104.2C229.9,12.1,185.2,1,121.2,1
			C69.4,1,0,1,0,1v511h87.9V307.1h29.4c39.7,0.7,58.2,17.8,69.7,79.9c12.8,61.4,23,111,30.1,125h99.8
			c-8.3-19.2-21.8-93.2-35.2-149.5C270.9,316.7,254.2,283.4,224.2,269.4z M126.3,225.8H87.9V88.2c7-1.5,20.5-3.7,44.1-3.7
			c44.8,0.7,71.7,23.7,71.7,69.5C203.7,197.7,174.9,225.8,126.3,225.8z M550,263.4c0.3-19.5-4.3-38.7-13.2-55.3
			c-8.2-15.4-20.8-27.2-35.4-33.5c-22.9-7.7-46.7-10.9-70.5-9.6h-87.3v345.7h61.6V369.6h8.3c11.3,0,23-0.7,33.6-0.7
			c10.6-0.5,21.3-1.8,31.8-3.9c9.8-2,19.3-5.3,28.3-9.9c8.5-4.3,16.2-10.6,22.6-18.4c6.7-8.6,11.8-18.7,15-29.7
			C548.4,292.9,550.2,278.2,550,263.4z M480.7,294.9c-4.1,7.1-10.2,12.4-17.3,14.8c-18.1,3.9-36.5,5.4-54.8,4.3h-3.9v-89.1h6.1
			c12.5,0,22.5-0.2,29.8,0c7.4,0.2,12.3,0.9,14.7,0.9c9.3,0.7,17.8,5.6,24,13.6c5.5,8.2,8.3,18.4,7.9,28.8
			C487.5,277.6,485.2,286.9,480.7,294.9z"/>
	</g>
</g>
</svg>
