<?xml version="1.0" encoding="utf-8"?>
<!-- Generator: Adobe Illustrator 22.0.1, SVG Export Plug-In . SVG Version: 6.00 Build 0)  -->
<svg version="1.1" id="Layer_4" xmlns="http://www.w3.org/2000/svg" xmlns:xlink="http://www.w3.org/1999/xlink" x="0px" y="0px"
	 viewBox="0 0 512 512" style="enable-background:new 0 0 512 512;" xml:space="preserve">
<g>
	<g>
		<path d="M294.7,129.5c-3.4-1-7.8-0.6-10.4-3.4c-1.5-11.6,2.2-25.1-5.9-35c-4.3-6.3-11.8-8.9-18.7-11.3c1-1.3,2.8-4,3.7-5.4
			c-2.5-2.1-4.9-5.9-8.8-4.6c-4.8,1.8-2.3,6.9-1.8,10.4c-6.6,2.2-13.7,4.8-17.8,10.8c-8.1,9.9-4.2,23.2-5.9,34.7
			c-2.3,3.4-7,2.5-10.3,3.5v10h76.1V129.5z M244.7,145.1c2.5,4.7,5.5,11,12,10.6c6.4,0.4,9.5-5.8,12-10.6
			C260.7,144.8,252.7,144.8,244.7,145.1z M50.3,509.8h412.8v-21.5H50.3V509.8z M72,477.6h141.2c0.1-41.2-0.1-82.4,0.1-123.5
			c-0.6-22.9,20.3-43.5,43.5-42.8c23.2-0.6,43.9,20,43.3,42.8c0.2,41.2,0,82.3,0.1,123.5h141.2V295.1c23.5,0,47,0,70.6,0
			c-61.5-46.4-123.1-92.7-184.7-139.2V75.1c10.8,0,21.7,0,32.5,0C325.5,50,291.1,25,256.7,0c-34.4,25-68.8,50-103.2,75.1
			c10.8,0,21.7,0,32.5,0v80.8C124.5,202.3,63,248.7,1.4,295.1c23.5,0,47.1,0,70.6,0V477.6z M338.2,354.1h65.2v53.7h-65.2V354.1z
			 M338.2,418.5h65.2V440h-65.2V418.5z M257.6,269.9c-19.2,0-34.8-15.6-34.8-34.8s15.6-34.8,34.8-34.8c19.2,0,34.8,15.6,34.8,34.8
			S276.8,269.9,257.6,269.9z M207.8,107.3c-0.1-17.1,9.8-33.9,25-42.1c15-8.5,34.7-8.1,49.4,1c14.3,8.5,23.4,24.7,23.3,41.2
			c0.1,17.9-0.1,35.7,0,53.6h-97.8C207.9,143.1,207.7,125.2,207.8,107.3z M109.8,354.1h65.2v53.7h-65.2V354.1z M109.8,418.5h65.2
			V440h-65.2V418.5z M272.8,234.7h-12.9v-10.1c0-2.6-2.1-4.8-4.7-4.8s-4.7,2.2-4.7,4.8c0,0,0,13.3,0,13.7c0,2,1.6,3.6,3.5,3.6h18.7
			c1.9,0,3.5-1.6,3.5-3.6C276.3,236.3,274.7,234.7,272.8,234.7z"/>
	</g>
</g>
</svg>
