<?xml version="1.0" encoding="utf-8"?>
<!-- Generator: Adobe Illustrator 21.1.0, SVG Export Plug-In . SVG Version: 6.00 Build 0)  -->
<svg version="1.1" id="Layer_2" xmlns="http://www.w3.org/2000/svg" xmlns:xlink="http://www.w3.org/1999/xlink" x="0px" y="0px"
	 viewBox="0 0 339.5 512" style="enable-background:new 0 0 339.5 512;" xml:space="preserve">
<g>
	<path d="M230.4,213.2c-1.2-9.6-2.7-18.8-5-27.3c-16.8,3.2-34.9,4.9-53.9,4.9c-20.9,0-41-2.2-59.1-6.1c-2.2,8.5-3.9,17.6-5.2,27.1
		l0,0c19.1,4.8,40.9,7.5,64.2,7.5C192.6,219.5,212.7,217.3,230.4,213.2z"/>
	<path d="M125,335.4c6.5,12.5,14.4,22.2,23.2,28.3c-6.4,22.4,6.7,34.6,20.3,34.6c13.9,0,20.3-9.9,20.3-9.9
		c4.8-7.2,2.2-19.5,0.9-24.9c8.4-5.8,16.1-15.2,22.5-27.1c-12.9,1.9-26.4,2.7-40.5,2.7C155.2,339.2,139.6,337.8,125,335.4z"/>
	<path d="M107.8,278.8c2.1,13.8,5.2,26.5,9.1,37.9c16.7,3.4,35,5.3,54.4,5.3c17.2,0,33.7-1.5,48.6-4.3c4.1-11.3,7.2-24.1,9.3-37.7
		c-17.9,3.8-37.4,5.8-58,5.8C148.7,285.8,127.2,283.2,107.8,278.8z"/>
	<path d="M171.5,236.8c-23.5,0-45.8-2.7-65.8-7.7c-0.3,4.6-0.3,9.2-0.3,13.8c0,6,0.2,11.8,0.5,17.6c19.2,4.9,41.7,7.9,65.6,7.9
		c21.6,0,42.1-2.4,59.9-6.5c0.5-6.1,0.7-12.5,0.7-18.9c0-4.3-0.2-8.5-0.3-12.6C213.3,234.6,193,236.8,171.5,236.8z"/>
	<path d="M168.4,406.4c-9.4,0-17.2-5.8-17.2-5.8s-3.8,34.5,20.9,34.5s17.2-36.5,17.2-36.5C186.1,402.8,178.6,406.4,168.4,406.4z"/>
	<path d="M170.8,443.1c-9.4,0-17.2-6.3-17.2-6.3s-8.2,32.9,15.8,32.9s20.3-34,20.3-34C185.4,440,181,443.1,170.8,443.1z"/>
	<path d="M160.2,475c-5-2-11.3-8.9-11.3-8.9c-16.5,10.9-13.9,23.6-13.9,23.6c10.1,2,14.6,14.2,14.6,14.2
		c22.1-1.5,29.2-29.7,29.2-29.7C171.5,477.1,165.2,477.6,160.2,475z"/>
	<path d="M126,489.2l-15.6-2.2c-6.2,6.1-18.4,1.7-18.4,1.7c0,11.8,13.6,17.9,13.6,17.9c19.7,11.3,37.9,0,37.9,0
		C143.7,498.7,126,489.2,126,489.2z"/>
	<path d="M102.2,484.7c14.9-1.7,15.8-14.2,14.9-17.1c-0.7-2.9-3.6-10.6-3.6-10.6s10-20-6.4-28.8c0,0,10,15.9-2.1,24.7
		c0,0-29.4-1.7-21.5,21.2C84.3,474.2,86.5,486.6,102.2,484.7z"/>
	<path d="M119.8,153c3.8-6.8,7.9-13,12.4-18.1c-1.9-3.9-5.3-8.9-10.8-8.9c0,0-8.9,5.3-12.5,18.8C108.9,145,116.1,151.6,119.8,153z"
		/>
	<path d="M60.6,135.9c15.3,9.9,45.8,4.4,45.8,4.4c0-4.8,8.4-15.7,8.4-15.7c-23-14.3-46.2-5.1-46.2-5.1
		C64,123.3,60.6,135.9,60.6,135.9z"/>
	<path d="M39.5,94.3c-2.6,21.5,3.6,24.6,9.4,30.4c1.5,2,7.7,10.2,7.7,10.2c1.4-9.9,8.9-17.2,8.9-17.2c-2.6-9.4-7.2-14.8-10.3-20.1
		c8.9-0.5,15.3-5.8,17.9-13.1c4.1-10.4,0.5-37-13.2-50.7c0,0-5.3-8.9,7.9-22.5C80.4-2.5,76.2-0.3,76.2-0.3S53.1,10.1,40,31.5
		c0,0-21.6,12.5-17.3,38.1C24.2,77.6,27.8,88.5,39.5,94.3z"/>
	<path d="M232.1,145c-3.6-13.7-10.5-18.8-10.5-18.8c-6,0-13.4,6.1-15.1,10.2c4.1,4.9,7.9,10.8,11.5,17.2
		C221.8,152.5,232.1,145,232.1,145z"/>
	<path d="M281.2,135.7c0,0-7.2-8.2-9.6-17.1c0,0-21.8-8.2-44.6,5.8c0,0,10.1,13.8,10.1,18.9C237.3,145.6,266,145.6,281.2,135.7z"/>
	<path d="M279.4,33.7C265.6,47.3,262,74,266.1,84.4c3.1,7.3,8.9,12.5,17.9,13.1c-3.6,5.3-7.6,10.1-10.1,19.5c0,0,3.6,8,11.2,16.6
		c0,0,3.6-6.8,5.3-8.9c5.3-6.3,12-8.9,9.4-30.4c11.5-5.8,15.8-16.7,16.8-24.1c4.1-26.1-17.3-38.1-17.3-38.1
		C286.1,10.1,263-0.3,263-0.3s-4.1-2,8.9,11.4S279.4,33.7,279.4,33.7z"/>
	<path d="M114.9,163.2C103.5,159,92,161,92,161c-2.6-4.8-9.4-10.4-9.4-10.4l-15.3-2c0,4.8,11.5,17.2,15.3,18.8
		c2.7,1.5,19.2,7.3,27,9.9C111.1,172.4,113,167.7,114.9,163.2z"/>
	<path d="M271.6,148.5l-15.8,2c0,0-6.9,5.8-9.4,10.4c0,0-12.5-0.9-23.5,2.7c1.9,4.3,3.4,8.7,5,13.3c8.4-2.9,24.9-8.5,28-9.6
		C260,165.8,271.6,153.3,271.6,148.5z"/>
	<path d="M105.4,192.2c-5-1.9-9.8-0.3-9.8-0.3l2.6,14.2h4.3C103.4,201.3,104.2,196.7,105.4,192.2z"/>
	<path d="M34.2,183.5c7.9,17.2,21.6,19.3,21.6,19.3l3.1,2c2.1,1.5,5,2.4,7.7,2.6c9.4,0,25.6-1.4,25.6-1.4l-2.7-13.7
		c-17.3-2-29.7,3.2-29.7,3.2c-5.3-10.4-15.3-16.2-15.3-16.2c0-7.3-5.8-24.1-5.8-24.1c-0.5-7.9-8.4-13.7-8.4-13.7l-2.1,5.3
		c0,0,7.9,0.5,5.3,11.4C31.1,168.3,34.2,183.5,34.2,183.5z"/>
	<path d="M243.6,191.4c0,0-6.2-1.5-11.5,0.9c1,4.4,1.9,9,2.7,13.8h5.7L243.6,191.4z"/>
	<path d="M277.3,206.1l5.8-4.1c0,0,13.7-2,21.6-19.3c0,0,3.6-15.2,0.5-25.6c-3.1-10.4,5.3-11.4,5.3-11.4l-2.1-4.8
		c0,0-7.9,5.8-8.4,13.7c0,0-5.8,17.2-5.8,24.1c0,0-10,5.8-15.3,16.2c0,0-12-4.1-29.4-2l-3.1,13.8
		C246.4,206.4,269.4,207.6,277.3,206.1z"/>
	<path d="M99.8,236.6c0.2-4.9,0.3-9.9,0.9-14.7c-5.8,2.9-7,7.5-7,7.5s3.1,9,5.8,7.3C99.4,236.8,99.8,236.6,99.8,236.6z"/>
	<path d="M35.2,253c0,0,25.2,10.9,35.2,7.9c10-3.1,24.2-20.3,24.2-20.3c-2.6-1.5-4.1-8.4-4.1-8.4c-4.8,0.5-18.4,10.9-20.4,14.7
		c-2.1,3.6-2.6,4.1-2.6,4.1c-11-8.4-28.3-7.9-28.3-7.9s-8.9-15.7-12-21.5c-2.6-5.8-8.9-10.4-8.9-10.4C12.5,207.1,0,205,0,205l1,4.8
		c3.1,1,15.3,5.8,15.3,5.8C16.8,227.4,35.2,253,35.2,253z"/>
	<path d="M241.1,236.3c2.9,2.9,5.3-7.3,5.3-7.3s-2.1-6-9.6-8.5c0.5,4.4,0.7,9,0.9,13.8L241.1,236.3z"/>
	<path d="M301,242.6c0,0-17.3-1-28.3,7.9c0,0-1-0.5-2.6-4.1c-2.1-3.6-15.8-15-20.4-15.5c0,0-2.1,8.2-4.3,9.2
		c0,0,14.3,17.2,24.2,20.3c10,3.1,35.2-7.9,35.2-7.9s18.4-25.6,18.4-37.5c0,0,12-4.8,15.3-5.8l1-4.8c0,0.5-12,2-17.3,6.3
		c0,0-6.4,4.8-8.9,10.4C310.4,226.9,301,242.6,301,242.6z"/>
	<path d="M91.5,279.1c0-0.5,8.4-0.5,8.9,4.1l1.5-8l0,0c-1.2-9-2.1-18.4-2.2-28C95.6,254.2,91.2,265.1,91.5,279.1z"/>
	<path d="M98.2,323.6c3.1-13.1,0.5-35,0.5-35c-1.2-6.1-7.9-3.6-7.9-3.6c-6.4,4.1-2.6,38.7-2.6,38.7c-16.8,6.3-24.7,24.6-24.7,24.6
		c-2.1-2.6-24.2-1.5-27.8-1.5c-3.1,0-8.9,1.5-8.9,1.5c-2.6-1.5-14.3,5.8-14.3,5.8l0.3,1l2.2,1.5c2.6-1.5,12.5-4.8,12.5-4.8l4.8,2
		l35.7,1C68.3,354.9,94.6,336.6,98.2,323.6z"/>
	<path d="M249.5,279.1c0.3-18.4-7.4-31.4-11.7-37v1c0,7-0.3,13.8-0.9,20.6l0,0l3.6,19.6C240.6,278.6,249.5,279.1,249.5,279.1z"/>
	<path d="M325.2,330.8c0,0-6-0.3-9.1,0.3c-3.1,0.7-25.6,3.8-27,7.2c0,0-11.5-16.2-29.2-18.9c0,0-3.4-34.5-10.1-37.9
		c0,0-8.8,1.7-7.4,5.6c0,0,2.1,22,7.7,34.1c5.8,12.1,35.9,24.6,35.9,24.6l35-9.4l4.1-3.1c0,0,10.5,1,13.4,2l2.1-3.1
		C340.8,333.5,327.4,328.8,325.2,330.8z"/>
	<path d="M117.3,168.5c16.5,3.4,34.9,5.3,54.1,5.3c17.3,0,33.8-1.5,49.1-4.3c-8.8-24.9-21.8-43.3-37.1-50.5
		c3.3-5.8,5.3-13.3,5.3-21.7c0-3.6-0.3-7-1-10.2c-2.7,14.5-10.8,25.1-20.6,25.1s-18.2-10.9-20.8-25.9c-0.9,3.4-1.2,7.3-1.2,11.3
		c0,8.9,2.4,17.1,6.2,23C137.5,128.4,125.5,145.5,117.3,168.5z"/>
</g>
</svg>
