<?xml version="1.0" encoding="utf-8"?>
<!-- Generator: Adobe Illustrator 21.1.0, SVG Export Plug-In . SVG Version: 6.00 Build 0)  -->
<svg version="1.1" id="Layer_1" xmlns="http://www.w3.org/2000/svg" xmlns:xlink="http://www.w3.org/1999/xlink" x="0px" y="0px"
	 viewBox="0 0 455.7 512" style="enable-background:new 0 0 455.7 512;" xml:space="preserve">
<path d="M247.9,273.8l132.3-153.6l32.6-16.2l42.9-70.9L417.5,0l-64.1,52.6L342,87.2L209.7,240.8l-26.4-22.9
	c-5.5-4.8-13.9-4.2-18.7,1.3l-10.1,11.7c-2.9,3.3-4.1,7.9-2.8,12.2c1.2,4.2,3.8,16.9-6.1,28.4c-3.8,4.4-8.7,7.5-13.9,9.1L15.1,415
	c-21.3,24.6-19.1,62.7,5.9,83.6c24.3,20.2,60.4,17.4,81.2-6.6l118-136.1c1-5,3.2-9.8,6.8-14c9.4-10.9,22.7-10.7,26.8-10.2
	c4.3,0.6,8.6-1.2,11.4-4.5l10.4-12c4.8-5.5,4.2-13.9-1.3-18.7L247.9,273.8z"/>
</svg>
