<?xml version="1.0" encoding="utf-8"?>
<!-- Generator: Adobe Illustrator 21.1.0, SVG Export Plug-In . SVG Version: 6.00 Build 0)  -->
<svg version="1.1" id="Layer_1" xmlns="http://www.w3.org/2000/svg" xmlns:xlink="http://www.w3.org/1999/xlink" x="0px" y="0px"
	 viewBox="0 0 550 512" style="enable-background:new 0 0 550 512;" xml:space="preserve">
<path d="M465.2,202.8H105.4c-16.4,0-29.8,13.4-29.8,29.8c0,16.4,13.4,29.8,29.8,29.8h241.5l-10.7-30.9l94.8,30.9h34.1
	c16.4,0,29.8-13.4,29.8-29.8C494.9,216.2,481.5,202.8,465.2,202.8z M244,241.2H111.1c-4.1,0-7.4-3.3-7.4-7.4s3.3-7.4,7.4-7.4H244
	c4.1,0,7.4,3.3,7.4,7.4S248.1,241.2,244,241.2z M456.4,248.6c-8.2,0-14.8-6.6-14.8-14.8s6.6-14.8,14.8-14.8s14.8,6.6,14.8,14.8
	S464.5,248.6,456.4,248.6z M465.2,202.8H105.4c-16.4,0-29.8,13.4-29.8,29.8c0,16.4,13.4,29.8,29.8,29.8h241.5l-10.7-30.9l94.8,30.9
	h34.1c16.4,0,29.8-13.4,29.8-29.8C494.9,216.2,481.5,202.8,465.2,202.8z M244,241.2H111.1c-4.1,0-7.4-3.3-7.4-7.4s3.3-7.4,7.4-7.4
	H244c4.1,0,7.4,3.3,7.4,7.4S248.1,241.2,244,241.2z M456.4,248.6c-8.2,0-14.8-6.6-14.8-14.8s6.6-14.8,14.8-14.8s14.8,6.6,14.8,14.8
	S464.5,248.6,456.4,248.6z M465.2,202.8H105.4c-16.4,0-29.8,13.4-29.8,29.8c0,16.4,13.4,29.8,29.8,29.8h241.5l-10.7-30.9l94.8,30.9
	h34.1c16.4,0,29.8-13.4,29.8-29.8C494.9,216.2,481.5,202.8,465.2,202.8z M244,241.2H111.1c-4.1,0-7.4-3.3-7.4-7.4s3.3-7.4,7.4-7.4
	H244c4.1,0,7.4,3.3,7.4,7.4S248.1,241.2,244,241.2z M456.4,248.6c-8.2,0-14.8-6.6-14.8-14.8s6.6-14.8,14.8-14.8s14.8,6.6,14.8,14.8
	S464.5,248.6,456.4,248.6z M465.2,202.8H105.4c-16.4,0-29.8,13.4-29.8,29.8c0,16.4,13.4,29.8,29.8,29.8h241.5l-10.7-30.9l94.8,30.9
	h34.1c16.4,0,29.8-13.4,29.8-29.8C494.9,216.2,481.5,202.8,465.2,202.8z M244,241.2H111.1c-4.1,0-7.4-3.3-7.4-7.4s3.3-7.4,7.4-7.4
	H244c4.1,0,7.4,3.3,7.4,7.4S248.1,241.2,244,241.2z M456.4,248.6c-8.2,0-14.8-6.6-14.8-14.8s6.6-14.8,14.8-14.8s14.8,6.6,14.8,14.8
	S464.5,248.6,456.4,248.6z M531.7,29.2H18.2C8.2,29.2,0,37.5,0,47.5v359.4c0,10,8.2,18.2,18.2,18.2h237.5l-37.4,37.5h-46.9
	c-2.8,0-5.1,0.9-6.9,2.6c-1.7,1.7-2.6,4-2.6,6.9v13.6H388v-13.6c0-2.9-0.9-5.1-2.6-6.9c-1.7-1.8-3.9-2.6-6.9-2.6H332l-38.3-37.5h238
	c10,0,18.2-8.2,18.2-18.3V47.5C549.9,37.5,541.8,29.2,531.7,29.2z M114.4,79.3c4.1,0,7.4,3.4,7.4,7.3c0,4.1-3.4,7.4-7.4,7.4
	c-4.1,0-7.3-3.3-7.3-7.4C107.1,82.6,110.3,79.3,114.4,79.3z M84.9,79.3c4.1,0,7.4,3.4,7.4,7.3c0,4.1-3.5,7.4-7.4,7.4
	c-4.1,0-7.4-3.3-7.4-7.4C77.5,82.6,80.8,79.3,84.9,79.3z M55.3,94.1c-4.1,0-7.4-3.3-7.4-7.4c0-4.1,3.3-7.3,7.4-7.3
	c4.1,0,7.4,3.4,7.4,7.3C62.7,90.8,59.4,94.1,55.3,94.1z M465.2,270.9h-7.9l12.3,4.1l-27.9,20c-1.5,1.1-2.5,2.7-2.6,4.6
	c-0.1,1.9,0.5,3.7,1.9,5l34,34l-29.8,29.8l-34-34c-0.5-0.5-1.1-1-1.9-1.2c-0.9-0.4-1.7-0.6-2.6-0.6H406c-0.7,0.1-1.4,0.4-2,0.5
	c-1.1,0.5-1.9,1.2-2.6,2.2l-19.7,28.1l-31.6-92.3H105.4c-21.1,0-38.2-17.2-38.2-38.2s17.1-38.2,38.2-38.2h359.7
	c21.1,0,38.2,17.2,38.2,38.2S486.2,270.9,465.2,270.9z M504.8,94.1H158.7c-4.1,0-7.4-3.3-7.4-7.4c0-4.1,3.3-7.3,7.4-7.3h346.1
	c4.1,0,7.3,3.4,7.3,7.3C512.1,90.8,508.9,94.1,504.8,94.1z M465.2,202.8H105.4c-16.4,0-29.8,13.4-29.8,29.8
	c0,16.4,13.4,29.8,29.8,29.8h241.5l-10.7-30.9l94.8,30.9h34.1c16.4,0,29.8-13.4,29.8-29.8C494.9,216.2,481.5,202.8,465.2,202.8z
	 M244,241.2H111.1c-4.1,0-7.4-3.3-7.4-7.4s3.3-7.4,7.4-7.4H244c4.1,0,7.4,3.3,7.4,7.4S248.1,241.2,244,241.2z M456.4,248.6
	c-8.2,0-14.8-6.6-14.8-14.8s6.6-14.8,14.8-14.8s14.8,6.6,14.8,14.8S464.5,248.6,456.4,248.6z M465.2,202.8H105.4
	c-16.4,0-29.8,13.4-29.8,29.8c0,16.4,13.4,29.8,29.8,29.8h241.5l-10.7-30.9l94.8,30.9h34.1c16.4,0,29.8-13.4,29.8-29.8
	C494.9,216.2,481.5,202.8,465.2,202.8z M244,241.2H111.1c-4.1,0-7.4-3.3-7.4-7.4s3.3-7.4,7.4-7.4H244c4.1,0,7.4,3.3,7.4,7.4
	S248.1,241.2,244,241.2z M456.4,248.6c-8.2,0-14.8-6.6-14.8-14.8s6.6-14.8,14.8-14.8s14.8,6.6,14.8,14.8S464.5,248.6,456.4,248.6z
	 M465.2,202.8H105.4c-16.4,0-29.8,13.4-29.8,29.8c0,16.4,13.4,29.8,29.8,29.8h241.5l-10.7-30.9l94.8,30.9h34.1
	c16.4,0,29.8-13.4,29.8-29.8C494.9,216.2,481.5,202.8,465.2,202.8z M244,241.2H111.1c-4.1,0-7.4-3.3-7.4-7.4s3.3-7.4,7.4-7.4H244
	c4.1,0,7.4,3.3,7.4,7.4S248.1,241.2,244,241.2z M456.4,248.6c-8.2,0-14.8-6.6-14.8-14.8s6.6-14.8,14.8-14.8s14.8,6.6,14.8,14.8
	S464.5,248.6,456.4,248.6z M465.2,202.8H105.4c-16.4,0-29.8,13.4-29.8,29.8c0,16.4,13.4,29.8,29.8,29.8h241.5l-10.7-30.9l94.8,30.9
	h34.1c16.4,0,29.8-13.4,29.8-29.8C494.9,216.2,481.5,202.8,465.2,202.8z M244,241.2H111.1c-4.1,0-7.4-3.3-7.4-7.4s3.3-7.4,7.4-7.4
	H244c4.1,0,7.4,3.3,7.4,7.4S248.1,241.2,244,241.2z M456.4,248.6c-8.2,0-14.8-6.6-14.8-14.8s6.6-14.8,14.8-14.8s14.8,6.6,14.8,14.8
	S464.5,248.6,456.4,248.6z M465.2,202.8H105.4c-16.4,0-29.8,13.4-29.8,29.8c0,16.4,13.4,29.8,29.8,29.8h241.5l-10.7-30.9l94.8,30.9
	h34.1c16.4,0,29.8-13.4,29.8-29.8C494.9,216.2,481.5,202.8,465.2,202.8z M244,241.2H111.1c-4.1,0-7.4-3.3-7.4-7.4s3.3-7.4,7.4-7.4
	H244c4.1,0,7.4,3.3,7.4,7.4S248.1,241.2,244,241.2z M456.4,248.6c-8.2,0-14.8-6.6-14.8-14.8s6.6-14.8,14.8-14.8s14.8,6.6,14.8,14.8
	S464.5,248.6,456.4,248.6z"/>
</svg>
