<?xml version="1.0" encoding="utf-8"?>
<!-- Generator: Adobe Illustrator 22.0.1, SVG Export Plug-In . SVG Version: 6.00 Build 0)  -->
<svg version="1.1" id="Layer_2_1_" xmlns="http://www.w3.org/2000/svg" xmlns:xlink="http://www.w3.org/1999/xlink" x="0px" y="0px"
	 viewBox="0 0 512 512" style="enable-background:new 0 0 512 512;" xml:space="preserve">
<g>
	<path d="M499.2,437.4l-99.8-99.9l-8.2,8.2L373.5,328c24.8-34.1,39.5-76.1,39.5-121.5C413,92.5,320.5,0,206.5,0S0,92.5,0,206.5
		S92.5,413,206.5,413c45.5,0,87.5-14.7,121.6-39.6l17.7,17.7l-8.2,8.2l99.8,99.9c8.5,8.5,19.7,12.8,30.9,12.8
		c11.2,0,22.4-4.3,30.9-12.8C516.3,482.1,516.3,454.5,499.2,437.4z M206.5,341C132.2,341,72,280.8,72,206.5S132.2,72,206.5,72
		S341,132.2,341,206.5S280.8,341,206.5,341z"/>
</g>
</svg>
