<?xml version="1.0" encoding="utf-8"?>
<!-- Generator: Adobe Illustrator 22.0.1, SVG Export Plug-In . SVG Version: 6.00 Build 0)  -->
<svg version="1.1" id="Layer_2_1_" xmlns="http://www.w3.org/2000/svg" xmlns:xlink="http://www.w3.org/1999/xlink" x="0px" y="0px"
	 viewBox="0 0 512 512" style="enable-background:new 0 0 512 512;" xml:space="preserve">
<g>
	<g>
		<path d="M499.2,437.4l-99.8-99.9l-8.2,8.2L373.5,328c24.8-34.1,39.5-76.1,39.5-121.5C413,92.5,320.5,0,206.5,0S0,92.5,0,206.5
			S92.5,413,206.5,413c45.5,0,87.5-14.7,121.6-39.6l17.7,17.7l-8.2,8.2l99.8,99.9c8.5,8.5,19.7,12.8,30.9,12.8
			c11.2,0,22.4-4.3,30.9-12.8C516.3,482.1,516.3,454.5,499.2,437.4z M206.5,341C132.2,341,72,280.8,72,206.5S132.2,72,206.5,72
			S341,132.2,341,206.5S280.8,341,206.5,341z"/>
	</g>
	<path d="M261.6,157.7H97.1c-2.6,5.7-4.7,11.7-6.4,17.9h2c3.1,0,5.7,2.5,5.7,5.7s-2.5,5.7-5.7,5.7h-4.4c-0.9,5.3-1.4,10.7-1.6,16.1
		h84.6l-8.1-23.6l72.4,23.6h26c12.5,0,22.7-10.2,22.7-22.7S274.1,157.7,261.6,157.7z M254.9,192.5c-6.2,0-11.3-5-11.3-11.3
		c0-6.2,5-11.3,11.3-11.3c6.2,0,11.3,5,11.3,11.3C266.1,187.5,261.1,192.5,254.9,192.5z M206.6,86.7c-46.2,0-86.3,26.1-106.4,64.4
		h161.4c16.1,0,29.2,13.1,29.2,29.2s-13.1,29.2-29.2,29.2h-6.1l9.3,3.1l-21.3,15.2c-1.1,0.8-1.9,2.1-2,3.5s0.4,2.8,1.4,3.8l26,26
		l-5.5,5.5l-17.3,17.3l-26-25.9c-0.4-0.4-0.8-0.7-1.4-1c-0.7-0.3-1.3-0.5-2-0.5h-0.5c-0.6,0.1-1.1,0.2-1.5,0.4
		c-0.8,0.4-1.5,1-1.9,1.7l-15.1,21.5l-24.2-70.5H86.7c1.5,64.9,54.6,117.1,119.9,117.1c66.2,0,119.9-53.7,119.9-119.9
		S272.8,86.7,206.6,86.7z M261.6,157.7H97.1c-2.6,5.7-4.7,11.7-6.4,17.9h2c3.1,0,5.7,2.5,5.7,5.7s-2.5,5.7-5.7,5.7h-4.4
		c-0.9,5.3-1.4,10.7-1.6,16.1h84.6l-8.1-23.6l72.4,23.6h26c12.5,0,22.7-10.2,22.7-22.7S274.1,157.7,261.6,157.7z M254.9,192.5
		c-6.2,0-11.3-5-11.3-11.3c0-6.2,5-11.3,11.3-11.3c6.2,0,11.3,5,11.3,11.3C266.1,187.5,261.1,192.5,254.9,192.5z M261.6,157.7H97.1
		c-2.6,5.7-4.7,11.7-6.4,17.9h2c3.1,0,5.7,2.5,5.7,5.7s-2.5,5.7-5.7,5.7h-4.4c-0.9,5.3-1.4,10.7-1.6,16.1h84.6l-8.1-23.6l72.4,23.6
		h26c12.5,0,22.7-10.2,22.7-22.7S274.1,157.7,261.6,157.7z M254.9,192.5c-6.2,0-11.3-5-11.3-11.3c0-6.2,5-11.3,11.3-11.3
		c6.2,0,11.3,5,11.3,11.3C266.1,187.5,261.1,192.5,254.9,192.5z"/>
</g>
</svg>
