<?xml version="1.0" encoding="utf-8"?>
<!-- Generator: Adobe Illustrator 21.1.0, SVG Export Plug-In . SVG Version: 6.00 Build 0)  -->
<svg version="1.1" id="Layer_3" xmlns="http://www.w3.org/2000/svg" xmlns:xlink="http://www.w3.org/1999/xlink" x="0px" y="0px"
	 viewBox="0 0 429.4 512" style="enable-background:new 0 0 429.4 512;" xml:space="preserve">
<g id="fill">
	<path d="M411.5,395.3h-26.3l-11.8-165.2c-4.2-61.4-50.2-110.6-109.1-120.5V89.8h17.9c13.7,0,24.8-11.1,24.8-24.8V53.8
		C307,24.1,283,0,253.3,0h-76.2c-29.7,0-53.8,24.1-53.8,53.8V65c0,13.7,11.1,24.8,24.8,24.8h18v19.7
		c-59.2,9.6-105.5,58.9-109.7,120.5l-11,165.3c-1.4-0.1-2.9-0.2-4.3-0.2l-23.3,0c-9.8,0-17.9,8.1-17.9,18c0,1.2,0.2,2.4,0.7,3.5
		c2,52.7,44.7,95.3,97.7,95.3H331c53,0,96.4-42.5,98.4-95.3c0-1.2,0-2.3,0-3.5C429.4,403.4,421.3,395.3,411.5,395.3z M183.9,89.8
		h62.7v18c-1.3,0-2.7-0.1-4-0.1h-55.3c-1.1,0-2.3,0-3.4,0V89.8z M124.1,240.8c2.7-39.5,35.5-70.1,75-70.1h31.7
		c39.5,0,72.3,30.6,75,70.1l6,130.1c0.4,8.5-6.4,15.6-14.9,15.6c0,0-61.5-14-82-14c-20.5,0-82,14-82,14c-8.5,0-15.3-7.1-14.9-15.6
		L124.1,240.8z"/>
	<path d="M285.9,235.7c-2-27-24.8-48.2-51.9-48.2h-38.2c-27.2,0-49.9,21.1-51.9,48.2l-6,129.2c25.4-5.2,59.2-11.3,77-11.3
		c17.7,0,51.6,6.1,77,11.3L285.9,235.7z M285.9,235.7c-2-27-24.8-48.2-51.9-48.2h-38.2c-27.2,0-49.9,21.1-51.9,48.2l-6,129.2
		c25.4-5.2,59.2-11.3,77-11.3c17.7,0,51.6,6.1,77,11.3L285.9,235.7z M285.9,235.7c-2-27-24.8-48.2-51.9-48.2h-38.2
		c-27.2,0-49.9,21.1-51.9,48.2l-6,129.2c25.4-5.2,59.2-11.3,77-11.3c17.7,0,51.6,6.1,77,11.3L285.9,235.7z"/>
</g>
</svg>
