<?xml version="1.0" encoding="utf-8"?>
<!-- Generator: Adobe Illustrator 21.1.0, SVG Export Plug-In . SVG Version: 6.00 Build 0)  -->
<svg version="1.1" id="Layer_1" xmlns="http://www.w3.org/2000/svg" xmlns:xlink="http://www.w3.org/1999/xlink" x="0px" y="0px"
	 viewBox="0 0 512 512" style="enable-background:new 0 0 512 512;" xml:space="preserve">
<g>
	<path d="M512,130.6V19.5C512,8.7,503.3,0,492.5,0H19.5C8.7,0,0,8.7,0,19.5v111.1c0,10.7,8.7,19.5,19.5,19.5H230v81.5H19.5
		C8.7,231.6,0,240.3,0,251v111.1c0,10.7,8.7,19.5,19.5,19.5H230v53.3h-9.6c-2.8,0-5.1,2.3-5.1,5.1v15.8h-101v35.5h101v15.6
		c0,2.8,2.3,5.1,5.1,5.1h72.5c2.8,0,5.1-2.3,5.1-5.1v-15.6h99.7v-35.5H298V440c0-2.8-2.3-5.1-5.1-5.1H282v-53.3h210.6
		c10.7,0,19.5-8.7,19.5-19.5V251c0-10.7-8.7-19.5-19.5-19.5H282v-81.5h210.6C503.3,150.1,512,141.3,512,130.6z M78.7,96.9
		c-12,0-21.8-9.8-21.8-21.8c0-12,9.8-21.8,21.8-21.8c12,0,21.8,9.8,21.8,21.8C100.5,87.1,90.7,96.9,78.7,96.9z M78.7,328.4
		c-12,0-21.8-9.8-21.8-21.8c0-12,9.8-21.8,21.8-21.8c12,0,21.8,9.8,21.8,21.8C100.5,318.6,90.7,328.4,78.7,328.4z"/>
</g>
</svg>
