<?xml version="1.0" encoding="utf-8"?>
<!-- Generator: Adobe Illustrator 22.0.1, SVG Export Plug-In . SVG Version: 6.00 Build 0)  -->
<svg version="1.1" id="Layer_3" xmlns="http://www.w3.org/2000/svg" xmlns:xlink="http://www.w3.org/1999/xlink" x="0px" y="0px"
	 viewBox="0 0 512 512" style="enable-background:new 0 0 512 512;" xml:space="preserve">
<g>
	<path d="M125.8,54.7l48.8,0.1l61.8,61.3l-0.3-61.9l38.4-0.5l0.3,62l61.5-60.9l49.9-0.3l-80.5,79.7l-101.2,0.5L125.8,54.7z"/>
	<path d="M22.5,200.8L22.5,200.8c-12.4,0-22.4,10-22.4,22.4v259.9c0,12.4,10,22.4,22.4,22.4h0c12.4,0,22.4-10,22.4-22.4V223.2
		C44.9,210.8,34.9,200.8,22.5,200.8z"/>
	<path d="M489,200.8L489,200.8c-12.4,0-22.4,10-22.4,22.4v259.9c0,12.4,10,22.4,22.4,22.4h0c12.4,0,22.4-10,22.4-22.4V223.2
		C511.5,210.8,501.4,200.8,489,200.8z"/>
	<path d="M94.3,41.4h323c11.3,0,20.4-9.1,20.4-20.4c0-11.3-9.1-20.4-20.4-20.4h-323C83.1,0.6,73.9,9.7,73.9,21
		C73.9,32.3,83.1,41.4,94.3,41.4z"/>
	<path d="M223.9,143.6c-11.3,0-20.4,9.1-20.4,20.4c0,11.3,9.1,20.4,20.4,20.4h62.7c11.3,0,20.4-9.1,20.4-20.4
		c0-11.3-9.1-20.4-20.4-20.4H223.9z"/>
	<path d="M440.3,228.9h-89.4c-25-22.8-58.2-36.7-94.7-36.7c-36.5,0-69.7,13.9-94.7,36.7H70.2c-10.5,0-13.1,8.6-13.1,19.1v216.9
		c0,10.4,8.4,18.8,18.8,18.8h88.6c14.9,12.8,32.5,22.6,51.9,28.3h79.5c19.4-5.7,37-15.5,51.9-28.3h86.8c10.4,0,18.8-8.4,18.8-18.8
		V248C453.4,237.5,450.9,228.9,440.3,228.9z M122.7,288.6H93.6c-12.7,0-23-10.3-23-23c0-12.2,10-23,23-23h54.8
		C137.1,256,128.3,271.6,122.7,288.6z M418.3,288.6h-29.1c-5.6-17-14.4-32.6-25.7-46.1h54.8c13.1,0,23,10.8,23,23
		C441.4,278.3,431.1,288.6,418.3,288.6z"/>
</g>
</svg>
