<?xml version="1.0" encoding="utf-8"?>
<!-- Generator: Adobe Illustrator 21.1.0, SVG Export Plug-In . SVG Version: 6.00 Build 0)  -->
<svg version="1.1" id="Layer_1" xmlns="http://www.w3.org/2000/svg" xmlns:xlink="http://www.w3.org/1999/xlink" x="0px" y="0px"
	 viewBox="0 0 512 512" style="enable-background:new 0 0 512 512;" xml:space="preserve">
<style type="text/css">
	.st0{fill:#010101;}
</style>
<g>
	<path class="st0" d="M492.9,443.1l-8.1-47.5V156.9L468,42.1l-16.2,114.8v238.6l-8.1,47.6h-13.3l-5.9-5.9l-5.1-30.4V210.3
		l-13.3-94.5l-12.7,94.5v133.1l-119-56.3l-4.5-39.4l-11,12.3l-1.9-29.5h-1l-2,29.5l-11-12.3l-4.5,39.4l-119.9,56.7V210.3l-12.7-94.5
		l-13.3,94.5v196.5l-5.3,31.5l-4.9,4.8H68.3l-8.1-47.5V156.9L44,42.1L27.1,156.9v238.6l-8,47.6H0V512h512v-68.9H492.9L492.9,443.1z
		 M48.1,403.7h-8.8V166h8.8V403.7z M108.3,374.6l-3.7,8V217.8h3.7V374.6z M119.2,416.4L236,307L120.7,425.1L119.2,416.4z M132.5,446
		l4.3-3.3v3.3H132.5z M155.8,446v-18.3l17.5-13.9V446L155.8,446L155.8,446z M192.4,446v-47.3l17.5-13.9V446L192.4,446L192.4,446z
		 M229,446v-76.1l17.5-13.9v90.1L229,446L229,446z M265.5,446v-90.8l17.6,13.9V446L265.5,446L265.5,446z M302.1,446v-61.8l17.5,13.9
		V446H302.1z M338.6,446v-33l17.5,13.9v19L338.6,446L338.6,446z M375.2,446v-3.9l5,3.9H375.2z M391.4,424.4L276.8,307l116.1,108.7
		L391.4,424.4z M406.6,381.7l-3.9-9.5V217.8h3.9V381.7z M472.8,403.7h-8.9V166h8.9V403.7z"/>
</g>
</svg>
