<?xml version="1.0" encoding="utf-8"?>
<!-- Generator: Adobe Illustrator 21.1.0, SVG Export Plug-In . SVG Version: 6.00 Build 0)  -->
<svg version="1.1" id="Layer_2" xmlns="http://www.w3.org/2000/svg" xmlns:xlink="http://www.w3.org/1999/xlink" x="0px" y="0px"
	 viewBox="0 0 487.4 512" style="enable-background:new 0 0 487.4 512;" xml:space="preserve">
<path d="M254,123.7c16-10.4,20.6-31.8,10.2-47.8c-1.1-1.6-2.2-3.1-3.6-4.6l20.2-71H248l-13.2,41.2L221.6,0.3H189l20.1,71
	c-12.9,14-12,35.9,2,48.8c1.6,1.5,3.3,2.8,5.2,3.9L3,276.1c-1.4,1.1-2.4,2.7-2.9,4.4v226.2l174.1,5.2l313.2-5.2V278.5L254,123.7z
	 M234.8,77.2c9.6,0,17.4,7.8,17.4,17.4c0,9.6-7.8,17.4-17.4,17.4c-9.6,0-17.4-7.8-17.4-17.4C217.5,85,225.2,77.2,234.8,77.2z
	 M50.4,455.8L23,454.9V320.3l27.5-6.3V455.8z M104.1,457.6l-27.5-0.9V308l27.5-6.3V457.6z M150.8,459.1l-27.5-0.9v-161l27.5-6.3
	V459.1z M166,230.5c-0.5,1-0.8,2.2-0.8,3.3v-0.3L43.7,266.8l167.1-116.5L166,230.5z M236.8,136.6l114.8,124.3L183.2,235L236.8,136.6
	z M273.1,458.1l-52,1V291.5l52,6.7V458.1z M361.4,456.5l-52,1V302.8l52,6.7V456.5z M273.5,154.9l181.6,122l-77.4-12L273.5,154.9z
	 M463,454.6l-52,1V315.8l52,6.7V454.6z"/>
</svg>
