<?xml version="1.0" encoding="utf-8"?>
<!-- Generator: Adobe Illustrator 21.1.0, SVG Export Plug-In . SVG Version: 6.00 Build 0)  -->
<svg version="1.1" id="Layer_1" xmlns="http://www.w3.org/2000/svg" xmlns:xlink="http://www.w3.org/1999/xlink" x="0px" y="0px"
	 viewBox="0 0 550 512" style="enable-background:new 0 0 550 512;" xml:space="preserve">
<g>
	<path d="M264.1,133.2h-1.6V15.3L325.4,79l125.1,126.8L325.3,333.1l-62.9,64V281.2h-59.1c-45.9,0-114.3,19.3-135.7,103.7
		c-4.2,16.7-6.6,35.9-6.6,58c0,10.6,0.4,22.4,1.1,35.3c0,6.8,0.8,24.5-7.7,24.5c-3,0-5.6-1.7-7.7-5c-3.8-4.6-10-19.8-10.7-21.7
		C12,421,0,377.6,0,345.8C0,205.2,80.4,133.2,264.1,133.2z"/>
	<polygon points="362,79 362,15.3 550,205.8 361.9,397.1 361.9,333.1 487.1,205.8 	"/>
</g>
</svg>
