<?xml version="1.0" encoding="utf-8"?>
<!-- Generator: Adobe Illustrator 21.1.0, SVG Export Plug-In . SVG Version: 6.00 Build 0)  -->
<svg version="1.1" id="Layer_1" xmlns="http://www.w3.org/2000/svg" xmlns:xlink="http://www.w3.org/1999/xlink" x="0px" y="0px"
	 viewBox="0 0 466 512" style="enable-background:new 0 0 466 512;" xml:space="preserve">
<style type="text/css">
	.st0{fill:#010101;}
</style>
<path class="st0" d="M466,419c0,51.4-41.6,93-93,93s-93-41.6-93-93c0-3.4,0.2-6.8,0.6-10.2l-129-80.6c-16,13-36.4,20.8-58.5,20.8
	c-51.4,0-93-41.6-93-93s41.6-93,93-93c22.1,0,42.5,7.7,58.5,20.7l129.1-80.5c-0.4-3.3-0.5-6.7-0.5-10.1c0-51.4,41.6-93,93-93
	s93,41.6,93,93s-41.6,93-93,93c-24.9,0-47.5-9.8-64.2-25.7L184.3,238c1.1,5.8,1.7,11.8,1.7,18c0,6.1-0.6,12-1.7,17.8l124.6,77.8
	c16.7-15.9,39.2-25.6,64.1-25.6C424.4,326,466,367.6,466,419z"/>
</svg>
