<?xml version="1.0" encoding="utf-8"?>
<!-- Generator: Adobe Illustrator 21.1.0, SVG Export Plug-In . SVG Version: 6.00 Build 0)  -->
<svg version="1.1" id="Layer_1" xmlns="http://www.w3.org/2000/svg" xmlns:xlink="http://www.w3.org/1999/xlink" x="0px" y="0px"
	 viewBox="0 0 305.1 512" style="enable-background:new 0 0 305.1 512;" xml:space="preserve">
<path d="M300,8.9h-21.8c-3,0-5.4,2.4-5.3,5.3v27.5c0,3-2.4,5.4-5.3,5.3h-10.3c-3,0-5.4-2.4-5.3-5.3V15.9c0-8.8-7.1-15.8-15.8-15.8
	h-167c-8.8,0.1-15.8,7.2-15.8,16v25.8c0,3-2.4,5.4-5.3,5.3H37.7c-3,0-5.4-2.4-5.3-5.3V14.4c0-3-2.4-5.4-5.3-5.3L5.3,9
	c-3,0-5.4,2.4-5.3,5.3l-0.1,483.5c0,3,2.4,5.4,5.3,5.3l21.8,0.1c3,0,5.4-2.4,5.3-5.3v-27.5c0-3,2.4-5.4,5.3-5.3H48
	c3,0,5.4,2.4,5.3,5.3v25.8c0,8.8,7.1,15.8,15.8,15.8H236c8.8,0,15.8-7.1,15.8-15.8v-25.8c0-3,2.4-5.4,5.3-5.3h10.3
	c3,0,5.4,2.4,5.3,5.3v27.5c0,3,2.4,5.4,5.3,5.3h21.8c3,0,5.4-2.4,5.3-5.3V14.3C305.3,11.2,302.9,8.8,300,8.9z M195.7,72
	c0,4.5-3.2,8.1-7,8.1h-8.8c-1.8,0-3.3,1.8-3.3,3.9v48.5c4,2.9,7.1,7.1,8.7,12h3.4c4,0,7,3.6,7,8.1v0.1c0,4.5-3.2,8.1-7,8.1h-3.8
	c-1.7,4.4-4.6,8.1-8.3,10.9V217c11.2,5.2,19.1,16.5,19.1,29.7s-7.8,24.5-19.1,29.7v62.1c3.9,2.8,6.9,6.7,8.5,11.3h3.5
	c4,0,7,3.6,7,8.1v0.1c0,4.5-3.2,8.1-7,8.1H185c-1.7,4.7-4.7,8.6-8.6,11.5v48.9c0,2.1,1.5,3.9,3.3,3.9h8.8c4,0,7,3.6,7,8.1v0.1
	c0,4.5-3.2,8.1-7,8.1h-71.2c-4,0-7-3.6-7-8.1v-0.1c0-4.5,3.2-8.1,7-8.1h8.8c1.8,0,3.3-1.8,3.3-3.9v-47.8c-4.7-2.9-8.3-7.4-10.3-12.7
	h-1.8c-4,0-7-3.6-7-8.1v-0.1c0-4.5,3.2-8.1,7-8.1h1.8c1.8-5.2,5.5-9.6,10.2-12.4v-60.8c-11.3-5.1-19.2-16.5-19.3-29.8
	c0-13.3,7.8-24.7,19.3-29.8v-44c-4.5-2.8-8.2-7.1-10-12.2h-2c-4,0-7-3.6-7-8.1v-0.1c0-4.5,3.2-8.1,7-8.1h1.7c1.8-5.5,5.5-10,10.3-13
	V84.1c0-2.1-1.5-3.9-3.3-3.9l-8.6-0.2c-4,0-7-3.6-7-8.1v-0.1c0-4.5,3.2-8.1,7-8.1h12.2v0.1h59.2C192.6,63.8,195.7,67.4,195.7,72
	L195.7,72z"/>
</svg>
