<?xml version="1.0" encoding="utf-8"?>
<!-- Generator: Adobe Illustrator 21.1.0, SVG Export Plug-In . SVG Version: 6.00 Build 0)  -->
<svg version="1.1" id="Layer_1" xmlns="http://www.w3.org/2000/svg" xmlns:xlink="http://www.w3.org/1999/xlink" x="0px" y="0px"
	 viewBox="0 0 197.4 512.3" style="enable-background:new 0 0 197.4 512.3;" xml:space="preserve">
<path d="M197.4,94.7c0-7.5-3.2-12.6-8-13c-0.9-15.1-1.7-26.4-1.8-27.7l-0.2-3.7V27.2c0-8.2-5.4-13.6-13.6-13.6V6.8
	c0-4.1-2.7-6.8-6.8-6.8s-6.8,2.7-6.8,6.8v6.8h-13.6V6.8c0-4.1-2.7-6.8-6.8-6.8S133,2.7,133,6.8v6.8h-13.6V6.8c0-4.1-2.7-6.8-6.8-6.8
	c-4.1,0-6.8,2.7-6.8,6.8v6.8H92.4V6.8c0-4.1-2.7-6.8-6.8-6.8c-4.1,0-6.8,2.7-6.8,6.8v6.8H65.2V6.8c0-4.1-2.7-6.8-6.8-6.8
	s-6.8,2.7-6.8,6.8v6.8H38.1V6.8c0-4.1-2.7-6.8-6.8-6.8s-6.8,2.7-6.8,6.8v6.8c-8.1,0-13.6,5.4-13.6,13.6v21l0,0L10.5,54
	c-0.1,1.4-0.9,12.7-2,27.7l0,0c-5,0-8.5,5.4-8.5,13c0,6.8,2.7,11.7,6.8,12.8C5,134,3.3,161.7,3.3,168.2c0,10.2,5.3,16.6,9.9,22
	c4.8,5.7,9.4,11.2,9.4,21.8c0,14.9-3.3,65.6-5.7,102.5c-1.5,22.8-2.3,35.9-2.3,38.4c0,11.4,8.4,51.6,18.1,86.1
	c20.4,73.5,31.5,73.3,36.3,73.3h52.3c23.6,0,54.7-143,55-156.4c0-1.2-1.8-120.8-1.8-143.9c0-10.8,4.9-16.6,10-22.7
	c4.8-5.7,9.7-11.5,9.7-20.7c0-7.9-1.5-35.2-3.1-61.2C194.9,106.1,197.4,101.3,197.4,94.7z M98.7,284.8c-7,0-12.7-5.7-12.7-12.6
	c0-7,5.7-12.6,12.7-12.6s12.6,5.7,12.6,12.6C111.3,279.1,105.7,284.8,98.7,284.8z M121.3,223.4c-0.4,5.4-2.4,25.1-8.9,37.7
	c-3.2-4-8.2-6.6-13.7-6.6c-5.6,0-10.5,2.6-13.7,6.6c-6.5-12.6-8.5-32.3-8.9-37.7l-0.1-1.8l1.3-1.4c1.1-1.2,6-5.1,21.4-5.1
	c15.3,0,20.3,3.8,21.5,5l1.4,1.4L121.3,223.4z M166,46.8H25.9v-5.9H166V46.8z"/>
</svg>
