<?xml version="1.0" encoding="utf-8"?>
<!-- Generator: Adobe Illustrator 21.1.0, SVG Export Plug-In . SVG Version: 6.00 Build 0)  -->
<svg version="1.1" id="Layer_1" xmlns="http://www.w3.org/2000/svg" xmlns:xlink="http://www.w3.org/1999/xlink" x="0px" y="0px"
	 viewBox="0 0 512.7 512.6" style="enable-background:new 0 0 512.7 512.6;" xml:space="preserve">
<path d="M511.3,182.8l-15.4-15.4c-2.1-2.1-5.5-2.1-7.5,0l-5.3,5.3c-2.1,2.1-5.5,2.1-7.5,0l-7.3-7.3c-2.1-2.1-2.1-5.5,0-7.5l4.1-4.1
	c6.2-6.2,6.2-16.2,0-22.4l-91.2-91.2c-6.3-6.1-16.3-6.1-22.5,0.1l-4.1,4.1c-2.1,2.1-5.5,2.1-7.5,0l-7.3-7.3c-2.1-2.1-2.1-5.5,0-7.5
	l5.3-5.3c2.1-2.1,2.1-5.5,0-7.5L329.7,1.3c-2.1-2.1-5.5-2.1-7.5,0L1.8,321.6c-2.1,2.1-2.1,5.5,0,7.5l15.4,15.5
	c2.1,2.1,5.5,2.1,7.5,0l5.3-5.3c2.1-2.1,5.5-2.1,7.5,0l7.3,7.3c2.1,2.1,2.1,5.5,0,7.5l-4.1,4.1c-6.2,6.2-6.2,16.2,0,22.4l91.1,91.1
	c6.2,6.2,16.2,6.2,22.4,0l4.1-4.1c2.1-2.1,5.5-2.1,7.5,0l7.3,7.3c2.1,2.1,2.1,5.5,0,7.5l-5.3,5.3c-2.1,2.1-2.1,5.5,0,7.5l15.4,15.4
	c2.1,2.1,5.5,2.1,7.5,0l320.4-320.4C513.4,188.2,513.4,184.8,511.3,182.8z M406.1,146.1l-0.1,0.1c-3.2,3.2-8,3.5-10.7,0.8l-6.2-6.2
	c-1.3-1.3-3.6-1.1-5.1,0.4l-34.3,34.3c0.8,4.9,0,10-2.3,14.6l2.4,2.4c2.8,2.8,2.4,7.5-0.8,10.7l-0.1,0.1c-3.2,3.2-8,3.5-10.7,0.8
	l-2.7-2.7c-4.3,1.9-9,2.5-13.6,1.8l-32,32c4.3,11.6,1.8,25.2-7.5,34.5s-22.9,11.8-34.5,7.5L204,321.1c0.8,4.7,0.1,9.6-2,14l2.5,2.5
	c2.8,2.8,2.4,7.5-0.8,10.7l-0.1,0.1c-3.2,3.2-8,3.5-10.7,0.8l-2.5-2.5c-4.5,2.1-9.4,2.8-14.2,2.1l-34.6,34.6
	c-1.5,1.5-1.7,3.8-0.4,5.1l6.2,6.2c2.8,2.8,2.4,7.5-0.8,10.7l-0.1,0.1c-3.2,3.2-8,3.5-10.7,0.8l-36.2-36.2
	c-2.8-2.8-2.4-7.5,0.8-10.7l0.1-0.1c3.2-3.2,8-3.5,10.7-0.8l6.2,6.2c1.3,1.3,3.6,1.1,5.1-0.4l33.8-33.8c-1.3-5.4-0.7-11.1,1.7-16.2
	l-1.3-1.3c-2.8-2.8-2.4-7.5,0.8-10.7l0.1-0.1c3.2-3.2,8-3.5,10.7-0.8l1.3,1.3c5-2.4,10.7-2.9,16-1.6l43-43
	c-4.4-11.6-1.9-25.3,7.4-34.7c9.4-9.4,23-11.9,34.7-7.4l31.1-31.1c-1.2-5.2-0.8-10.8,1.5-15.7l-1.4-1.4c-2.8-2.8-2.4-7.5,0.8-10.7
	l0.1-0.1c3.2-3.2,8-3.5,10.7-0.8l1.2,1.2c5.2-2.6,11-3.2,16.5-1.9l33.5-33.5c1.5-1.5,1.7-3.8,0.4-5.1l-5.9-6.2
	c-2.8-2.8-2.4-7.5,0.8-10.7l0.1-0.1c3.2-3.2,8-3.5,10.7-0.8l8.6,8.6l-0.1,0.1l27.7,27.7C409.7,138.2,409.3,142.9,406.1,146.1z"/>
</svg>
