<?xml version="1.0" encoding="utf-8"?>
<!-- Generator: Adobe Illustrator 21.1.0, SVG Export Plug-In . SVG Version: 6.00 Build 0)  -->
<svg version="1.1" id="Layer_1" xmlns="http://www.w3.org/2000/svg" xmlns:xlink="http://www.w3.org/1999/xlink" x="0px" y="0px"
	 viewBox="0 0 189.5 512.6" style="enable-background:new 0 0 189.5 512.6;" xml:space="preserve">
<path d="M159.5,483.6L132.1,437h-0.5v-52.9c13.7-17.7,22.4-45,22.4-75.7c0-26.3-6.4-50.1-16.9-67.5c30.8-37.7,52.3-107.5,52.3-145.1
	c0-53.2-42.4-96.4-94.8-96.4C42.4-0.4,0,42.7,0,95.9C0,133.6,21.5,203.3,52.3,241c-10.4,17.4-16.9,41.2-16.9,67.5
	c0,30,8.4,56.8,21.6,74.5v54.7l-27,45.8l0,0c-1.7,2.7-2.7,5.6-2.7,8.6c0,7.9,6.4,15,17,20.5h100.8c10.5-5.4,17-12.6,17-20.5
	C162.1,489.2,161.2,486.3,159.5,483.6L159.5,483.6z"/>
</svg>
