<?xml version="1.0" encoding="utf-8"?>
<!-- Generator: Adobe Illustrator 21.1.0, SVG Export Plug-In . SVG Version: 6.00 Build 0)  -->
<svg version="1.1" id="Layer_2" xmlns="http://www.w3.org/2000/svg" xmlns:xlink="http://www.w3.org/1999/xlink" x="0px" y="0px"
	 viewBox="0 0 417 512" style="enable-background:new 0 0 417 512;" xml:space="preserve">
<path d="M208.7,0.1L0,93.9V233c0,64.7,19.9,123.7,59.8,177c39.9,53.6,89.5,87.6,148.9,102c59.4-14.4,108.9-48.4,148.5-102
	c39.9-53.3,59.8-112.3,59.8-177V93.9L208.7,0.1z M187.1,315.5c-8.2,2.7-19.7,1.8-19.7,1.8c-1.7,1.5-2.9,4.8-3.5,7.4
	c-0.4,1.4-1.3,2.4-2.7,2.8c-2.8,0.7-7.2,5.1-7.9,9.3c-0.5,2.8-3.8,4.8-6.8,5.2c-2.2,0.4-4.1,2-4.4,4.2c-0.9,5-2.2,13.6-8,11.7
	c-4.6-2.9-6.7-7.4-6.3-13.4c0.5-6.1,3.5-9.7,9-10.9c0.8-8.2,9.3-11.2,11.7-12.4c0.3-4.6,2.8-10.1,7-12.2
	c-17.5-16.3-37-10.4-43.2-2.1c-8.3,11.3-6.5,24.4-1.4,35c2.2,5,21.1,28.4,22.8,30.1c-2.7,1.2-5.5,2.8-12.1-3.5
	c-0.9,1.7-2.3,19.2-12.9,21.5c-2.7-2.8-3.4-6.6-4.2-11.1c-2.4-13.9,13.2-11.6,3.9-23.6c-2.9-4.2-26.4-31.2-14-53.3
	c12.5-22.5,30.9-21.2,45.5-16.6c17.5,5.4,25.6,17.4,36.7,20.1c15,3.7,17.3-5.1,17.6-8.8C194.3,301.2,193.5,313.4,187.1,315.5z
	 M311.8,379c-0.8,4.5-1.5,8.3-4.2,11.1c-10.4-2.3-11.9-19.8-12.9-21.5c-6.7,6.3-9.5,4.6-12.2,3.5c1.7-1.8,20.6-25.1,22.8-30.1
	c5-10.7,7-23.6-1.4-35c-6.1-8.3-25.7-14.3-43.3,2.1c4.2,2.1,6.6,7.5,7,12.2c2.4,1.2,10.9,4.2,11.8,12.4c5.6,1.2,8.6,4.8,9,10.9
	c0.5,6-1.6,10.4-6.3,13.4c-5.8,1.7-7.2-6.8-8.1-11.7c-0.5-2.2-2.2-3.8-4.4-4.2c-2.9-0.5-6.4-2.3-6.8-5.2c-0.7-4-5.2-8.6-8-9.3
	c-1.3-0.3-2.3-1.4-2.7-2.8c-0.7-2.7-1.7-5.9-3.5-7.4c0,0-11.5,0.8-19.7-1.8c-7.1-2.3-7.3-16.1-7.2-19.5c0,3,1.3,13.8,17.7,9.6
	c11.1-2.8,19.2-14.6,36.7-20.2c14.6-4.6,33-5.9,45.5,16.6c12.4,22.1-11.1,49-14,53.3C298.5,367.3,314.3,365,311.8,379z M349.6,129.2
	c-46.1,33.7-87.1,71.8-121.9,113.4c9.7,11.9,19.1,24.5,28.2,37.3l-25.3,18.3c-7-10.5-14.4-21.2-22.1-31.5
	c-7.8,10.3-15.2,20.9-22.1,31.5l-25.3-18.3c9-12.9,18.4-25.4,28.2-37.3c-34.8-41.5-75.8-79.7-121.9-113.4l-3.8-2.8l4.8-0.3
	c31.6-2,87.9,35.7,140.2,94c52.4-58.3,108.5-96,140.2-94l4.8,0.3L349.6,129.2z"/>
</svg>
