<?xml version="1.0" encoding="utf-8"?>
<!-- Generator: Adobe Illustrator 21.1.0, SVG Export Plug-In . SVG Version: 6.00 Build 0)  -->
<svg version="1.1" id="Layer_1" xmlns="http://www.w3.org/2000/svg" xmlns:xlink="http://www.w3.org/1999/xlink" x="0px" y="0px"
	 viewBox="0 0 500 512" style="enable-background:new 0 0 500 512;" xml:space="preserve">
<path d="M403.8,106.2H258.4v42h145.2v-42H403.8z M385.7,53.6H258.4v42.1h127.1V53.6H385.7z M240.3,1h-92v42.1h92V1L240.3,1z
	 M258.9,180.2l48.4,20.7h113.5v-42.1H259.1L258.9,180.2z M407.5,246.5h30.3v-35.1H332.6L407.5,246.5z M350.4,1h-92v42h92V1z
	 M240.3,53.6H113.2v42.1h127.1L240.3,53.6L240.3,53.6z M239.8,180.3v-21.5H78v42.1h113.3L239.8,180.3z M243.2,211.7L243.2,211.7
	L46.8,294.5c-4.5,1.9-5.8,6.9-2.9,10.4L90,358.2c1.4,1.6,2.1,3.5,2.1,5.5v78.7c0,0.2,0,0.6,0,0.6H2.4C1,443,0,444,0,445.2v15
	c0,1.2,1.1,2.2,2.5,2.2c17.1,0,117.2-0.1,125.8-0.1c0.3,0,0.7,0.1,1,0.2c32.3,13.5,114,47.9,114,47.9c1,0.5,2.2,0.7,3.4,0.7
	c0-0.3,0-267.7,0-297.4C246.6,212.1,244.8,211,243.2,211.7z M99,325.3l-12.8,5.2c-2.2,0.9-4.2-0.2-4.7-2.5l-1.9-10.6
	c-0.5-2.3,1-4.9,3.2-5.8l12.8-5.5c2.3-1,4.5,0.1,4.8,2.5l1.8,10.9C102.8,321.7,101.3,324.3,99,325.3z M127.4,313.7l-13.5,5.5
	c-2.3,0.9-4.5-0.2-4.8-2.5l-1.8-11c-0.3-2.4,1.1-5.1,3.4-6.1l13.6-5.8c2.4-1,4.7,0.1,5,2.5l1.7,11.3
	C131.4,310.1,129.7,312.8,127.4,313.7z M157.4,301.5l-14.3,5.8c-2.4,1-4.7-0.2-5-2.6l-1.7-11.4c-0.3-2.4,1.3-5.3,3.8-6.3l14.4-6.2
	c2.5-1.1,4.9,0.1,5.3,2.6l1.6,11.7C161.6,297.7,159.9,300.5,157.4,301.5z M189.2,288.6l-15.2,6.2c-2.6,1.1-4.9-0.1-5.3-2.6
	l-1.6-11.8c-0.3-2.5,1.5-5.5,4.1-6.6l15.3-6.6c2.7-1.2,5.1,0,5.5,2.6l1.5,12.2C193.8,284.6,191.8,287.5,189.2,288.6z M223,274.8
	l-16.1,6.6c-2.7,1.1-5.1-0.1-5.5-2.7l-1.4-12.3c-0.3-2.6,1.7-5.7,4.5-6.9l16.4-7c2.9-1.2,5.4,0,5.7,2.7l1.3,12.7
	C228,270.6,225.8,273.7,223,274.8z M471.4,492.1H384c-1.4,0-2.5,1-2.5,2.2v14.6c0,1.2,1.1,2.2,2.5,2.2h87.4c1.4,0,2.5-1,2.5-2.2
	v-14.6C473.8,493,472.8,492.1,471.4,492.1z M497.5,443l-89.8-0.1c0,0,0-0.4,0-0.6v-78.7c0-2,0.7-3.9,2.1-5.5l46.1-53.3
	c3-3.5,1.6-8.5-2.9-10.4l-196.3-82.7l0,0c-1.6-0.7-3.4,0.4-3.4,2c0,29.6,0,297,0,297.4c1.1,0,2.3-0.2,3.4-0.7
	c0,0,80.5-34.2,113.1-47.9c0.3-0.1,0.7-0.2,1-0.2c17.3,0,110.4,0.1,126.8,0.1c1.4,0,2.4-1,2.4-2.2v-15
	C499.9,443.9,498.7,443,497.5,443z M299.7,266l-1.4,12.3c-0.3,2.6-2.7,3.8-5.5,2.7l-16.3-6.6c-2.9-1.2-4.9-4.2-4.7-6.9l1.3-12.6
	c0.2-2.7,2.9-3.9,5.7-2.7l16.4,7C298,260.3,300,263.4,299.7,266z M332.6,279.9l-1.6,11.8c-0.3,2.5-2.6,3.7-5.3,2.6l-15.2-6.2
	c-2.6-1.1-4.6-4-4.3-6.6l1.5-12.1c0.3-2.6,2.7-3.8,5.5-2.6l15.3,6.6C331.1,274.4,332.9,277.4,332.6,279.9z M363.6,292.9l-1.7,11.4
	c-0.3,2.4-2.6,3.5-5,2.6l-14.4-5.8c-2.5-1-4.3-3.8-4-6.3l1.6-11.7c0.3-2.5,2.7-3.7,5.3-2.6l14.5,6.2
	C362.2,287.7,363.9,290.5,363.6,292.9z M392.8,305.2l-1.8,11c-0.3,2.3-2.5,3.4-4.9,2.5l-13.5-5.5c-2.4-1-4-3.7-3.7-6l1.7-11.3
	c0.3-2.4,2.6-3.5,5-2.5l13.6,5.8C391.5,300.1,393.1,302.8,392.8,305.2z M397.5,318.9l1.8-10.9c0.5-2.3,2.5-3.4,4.8-2.5L417,311
	c2.2,0.9,3.7,3.5,3.2,5.8l-1.9,10.6c-0.5,2.2-2.5,3.3-4.7,2.5l-12.8-5.2C398.6,323.8,397.1,321.2,397.5,318.9z M240.3,106.2H95.1
	v42.1h145.2L240.3,106.2L240.3,106.2z M115.8,492.1H28.5c-1.4,0-2.5,1-2.5,2.2v14.6c0,1.2,1.1,2.2,2.5,2.2h87.4c1.4,0,2.5-1,2.5-2.2
	v-14.6C118.3,493,117.2,492.1,115.8,492.1z M166.3,211.4H61v35.1h30.3L166.3,211.4z"/>
</svg>
