<?xml version="1.0" encoding="utf-8"?>
<!-- Generator: Adobe Illustrator 21.1.0, SVG Export Plug-In . SVG Version: 6.00 Build 0)  -->
<svg version="1.1" id="Layer_1" xmlns="http://www.w3.org/2000/svg" xmlns:xlink="http://www.w3.org/1999/xlink" x="0px" y="0px"
	 viewBox="0 0 512 512" style="enable-background:new 0 0 512 512;" xml:space="preserve">
<g>
	<path d="M492.2,232.7c-2.4,4.1-6.8,6.8-11.8,6.8c-5.2,0-9.7-2.9-12-7.1c-0.2,0-0.4,0-0.6,0c-4.5-41.2-20.7-78.8-45.3-109.5
		c0.1-0.1,0.2-0.2,0.3-0.3c-1.4-4.7-0.2-9.9,3.5-13.6c3.6-3.6,8.6-4.8,13.2-3.6c6.6-9.2,5.7-22.1-2.6-30.4
		c-8.3-8.3-21.2-9.1-30.4-2.6c1.2,4.6,0,9.6-3.6,13.2c-3.7,3.7-8.9,4.8-13.5,3.5c-0.1,0.1-0.2,0.2-0.3,0.3
		C358.3,64.8,320.7,48.5,279.5,44c0-0.1,0-0.3,0-0.4c-4.3-2.3-7.1-6.9-7.1-12.1c0-5.1,2.7-9.5,6.8-11.9C277.3,8.5,267.6,0,255.8,0
		c-11.7,0-21.4,8.5-23.3,19.7c4.1,2.4,6.8,6.8,6.8,11.8c0,5.2-2.9,9.7-7.1,12c0,0.1,0,0.3,0,0.4c-41.2,4.5-78.8,20.8-109.5,45.4
		c-0.1-0.1-0.2-0.2-0.3-0.3c-4.7,1.4-9.9,0.2-13.6-3.5c-3.6-3.6-4.8-8.6-3.6-13.2C96,65.8,83.1,66.7,74.8,75
		c-8.3,8.3-9.1,21.2-2.6,30.4c4.6-1.2,9.6,0,13.2,3.6c3.7,3.7,4.8,8.9,3.5,13.5c0.1,0.1,0.2,0.2,0.3,0.3
		C64.7,153.6,48.5,191.2,44,232.4c-0.2,0-0.4,0-0.5,0c-2.3,4.3-6.9,7.1-12.1,7.1c-5.1,0-9.5-2.7-11.9-6.8
		C8.3,234.6-0.2,244.3-0.2,256c0,11.7,8.5,21.4,19.7,23.3c2.4-4.1,6.8-6.8,11.8-6.8c5.2,0,9.7,2.9,12,7.1c0.2,0,0.4,0,0.6,0
		c4.6,41.1,20.8,78.7,45.4,109.4c-0.2,0.2-0.3,0.3-0.5,0.5c1.4,4.7,0.2,9.9-3.5,13.6c-3.6,3.6-8.6,4.8-13.2,3.6
		c-6.6,9.2-5.7,22.1,2.6,30.4c8.3,8.3,21.2,9.1,30.4,2.6c-1.2-4.6,0-9.6,3.6-13.2c3.7-3.7,8.9-4.8,13.5-3.5c0.2-0.2,0.3-0.3,0.5-0.5
		c30.7,24.5,68.2,40.7,109.4,45.3c0,0.2,0,0.5,0,0.7c4.3,2.3,7.1,6.9,7.1,12.1c0,5.1-2.7,9.5-6.8,11.9c1.9,11.2,11.6,19.7,23.3,19.7
		c11.7,0,21.4-8.5,23.3-19.7c-4.1-2.4-6.8-6.8-6.8-11.8c0-5.2,2.9-9.7,7.1-12c0-0.2,0-0.5,0-0.7c41.1-4.5,78.7-20.8,109.4-45.3
		c0.2,0.2,0.3,0.3,0.5,0.5c4.7-1.4,9.9-0.2,13.6,3.5c3.6,3.6,4.8,8.6,3.6,13.2c9.2,6.6,22.1,5.7,30.4-2.6c8.3-8.3,9.1-21.2,2.6-30.4
		c-4.6,1.2-9.6,0-13.2-3.6c-3.7-3.7-4.8-8.9-3.5-13.5c-0.2-0.2-0.3-0.3-0.5-0.5c24.6-30.7,40.8-68.2,45.4-109.4c0.2,0,0.4,0,0.6,0
		c2.3-4.3,6.9-7.1,12.1-7.1c5.1,0,9.5,2.7,11.9,6.8c11.2-1.9,19.7-11.6,19.7-23.3C511.8,244.3,503.3,234.6,492.2,232.7z
		 M330.2,308.2c-2.9,4.2-6.3,8.2-10.1,11.9c-4,4-8.2,7.5-12.7,10.6l41,41c-21.4,17.1-47.7,28.5-76.5,31.6v-58
		c-5.2,0.9-10.6,1.4-16.2,1.4c-5.4,0-10.7-0.5-15.8-1.4v58c-29-3.1-55.5-14.5-77-31.8l41-41c-4.4-3-8.5-6.5-12.4-10.4
		c-3.8-3.8-7.2-7.9-10.2-12.2l-41,41c-17.3-21.4-28.8-47.8-31.9-76.7h58.1c-1-5.3-1.5-10.8-1.5-16.4c0-5.3,0.4-10.5,1.3-15.6h-58
		c3-29,14.4-55.5,31.7-77.1l41,41c3.1-4.5,6.6-8.7,10.6-12.7c3.7-3.7,7.7-7.1,11.9-10.1l-41-41c21.6-17.5,48.3-29.1,77.5-32.2v58
		c5.1-0.9,10.4-1.4,15.8-1.4c5.5,0,10.9,0.5,16.2,1.4v-58c29,3.1,55.4,14.6,76.9,32l-41,41c4.3,3,8.4,6.4,12.2,10.2
		c3.9,3.9,7.4,8.1,10.4,12.4l41-41c17.4,21.6,28.8,48.2,31.8,77.3h-58c0.9,5.1,1.3,10.3,1.3,15.6c0,5.6-0.5,11.1-1.5,16.4h58.1
		c-3.2,29-14.7,55.4-32.1,76.9L330.2,308.2z"/>
	<circle cx="255.8" cy="255.8" r="76"/>
</g>
</svg>
