<?xml version="1.0" encoding="utf-8"?>
<!-- Generator: Adobe Illustrator 21.1.0, SVG Export Plug-In . SVG Version: 6.00 Build 0)  -->
<svg version="1.1" id="Layer_1" xmlns="http://www.w3.org/2000/svg" xmlns:xlink="http://www.w3.org/1999/xlink" x="0px" y="0px"
	 viewBox="0 0 422 512" style="enable-background:new 0 0 422 512;" xml:space="preserve">
<path d="M352,52.5l-31-52H101l-31,52H0v230.3v228.7h422v-459H352z M282,168.5c-16.3-22.6-34.8-51.9-56.5-61.7
	c0.1,0.4,0.4,1.8,0.4,1.8s26,192.8,26,198.9c0,17.8-41.4,82-41.4,82s-41.6-64.2-41.6-82c0-9,27.3-199.3,27.3-199.3s0.2-0.9,0.3-1.3
	c-21.1,9.8-37.8,39.1-50.6,61.7c-2.1-2.4-52-64-52-64l32.7-67h172.7l30.6,68C330,105.5,284.2,166.1,282,168.5z"/>
</svg>
