<?xml version="1.0" encoding="utf-8"?>
<!-- Generator: Adobe Illustrator 21.1.0, SVG Export Plug-In . SVG Version: 6.00 Build 0)  -->
<svg version="1.1" id="Layer_2" xmlns="http://www.w3.org/2000/svg" xmlns:xlink="http://www.w3.org/1999/xlink" x="0px" y="0px"
	 viewBox="0 0 422 512" style="enable-background:new 0 0 422 512;" xml:space="preserve">
<path d="M321.6,0.5L101.3,0.7L74.3,47l23,24.1l50.9,53.6l62.8-64l61.9,64.2l76-76.7L321.6,0.5z M399.3,53.1L346.4,106l-73.9,74.5
	l-0.1-0.1l-0.1,0.1l-47-48.7c2.9,21.4,25.7,191,25.7,196.7c0,17.8-41.4,82-41.4,82s-41.6-64.2-41.6-82c0-8.3,23.2-170.9,26.8-196
	l-47.2,48.1L75,105L23,53H0v459h422V53L399.3,53.1z"/>
</svg>
