<?xml version="1.0" encoding="utf-8"?>
<!-- Generator: Adobe Illustrator 21.1.0, SVG Export Plug-In . SVG Version: 6.00 Build 0)  -->
<svg version="1.1" id="Layer_1" xmlns="http://www.w3.org/2000/svg" xmlns:xlink="http://www.w3.org/1999/xlink" x="0px" y="0px"
	 viewBox="0 0 511.5 512" style="enable-background:new 0 0 511.5 512;" xml:space="preserve">
<g>
	<g>
		<path d="M402.4,451.5c-57.4-50.6-265.9-63.9-265.9-223.7c0-110.9,109.9-156.2,200.2-156.2c40.7,0,80.9,3,80.9,3s9.1-2,4-8.1
			C408.2,50.1,333.6,0,252.8,0C125.9,0,0,109.7,0,243.9C0,432.5,154,512,248.7,512c103.7,0,155.7-49.4,155.7-49.4
			S409.8,458.1,402.4,451.5z M508.6,232.8C455,183.6,400.7,169.7,361,168.3c-62.7-2.2-85.9,25.5-85.9,54.4c0,37.3,57.6,62.9,91,75.6
			c15,5.7,124.4,52.4,124.4,52.4s14.7-26.8,19.2-55.4C514.3,265.2,508.8,233,508.6,232.8z"/>
	</g>
</g>
</svg>
