<?xml version="1.0" encoding="utf-8"?>
<!-- Generator: Adobe Illustrator 21.1.0, SVG Export Plug-In . SVG Version: 6.00 Build 0)  -->
<svg version="1.1" id="Layer_2" xmlns="http://www.w3.org/2000/svg" xmlns:xlink="http://www.w3.org/1999/xlink" x="0px" y="0px"
	 viewBox="0 0 512 512" style="enable-background:new 0 0 512 512;" xml:space="preserve">
<g>
	<path d="M11.3,512h71.2V297.1h122.3V512h298V224.8H11.3V512z M250.1,297.1h182.3v198.2H250.1V297.1z"/>
	<rect x="273.8" y="446.4" transform="matrix(0.7071 -0.7071 0.7071 0.7071 -248.3588 333.6006)" width="9.5" height="40.4"/>
	<rect x="262.5" y="465.1" transform="matrix(0.7071 -0.7071 0.7071 0.7071 -259.6538 328.9246)" width="9.5" height="25.6"/>
	<path d="M454.7,51.4L454.7,51.4V29.3c0-16.2-13.2-29.4-29.4-29.4H88.7C72.4,0,59.3,13.2,59.3,29.4v22.1l0,0L0,172.9v15.9
		c0,5.3,4.3,9.6,9.6,9.6h23.9c5.3,0,9.6-4.3,9.6-9.6v-15.9l0,0h36v15.9c0,5.3,4.3,9.6,9.6,9.6h30.7c5.3,0,9.6-4.3,9.6-9.6v-15.9l0,0
		h42l0,0c0,0.1,0,8.7,0,15.9c0,5.3,4.3,9.6,9.6,9.6h40.9c5.3,0,9.6-4.3,9.6-9.6c0-7.2,0-15.8,0-15.9l0,0h52l0,0c0,0.1,0,8.7,0,15.9
		c0,5.3,4.3,9.6,9.6,9.6h40.9c5.3,0,9.6-4.3,9.6-9.6c0-7.2,0-15.8,0-15.9l0,0h42l0,0v15.9c0,5.3,4.3,9.6,9.6,9.6h30.7
		c5.3,0,9.6-4.3,9.6-9.6v-15.9h34v15.9c0,5.3,4.3,9.6,9.6,9.6h23.9c5.3,0,9.6-4.3,9.6-9.6v-15.9L454.7,51.4z"/>
	<rect x="89.7" y="321.4" transform="matrix(0.7071 -0.7071 0.7071 0.7071 -198.449 173.233)" width="40.4" height="9.5"/>
	<rect x="85.8" y="310.1" transform="matrix(0.7071 -0.7071 0.7071 0.7071 -193.7318 161.9207)" width="25.6" height="9.5"/>
</g>
</svg>
