<?xml version="1.0" encoding="utf-8"?>
<!-- Generator: Adobe Illustrator 21.1.0, SVG Export Plug-In . SVG Version: 6.00 Build 0)  -->
<svg version="1.1" id="Layer_1" xmlns="http://www.w3.org/2000/svg" xmlns:xlink="http://www.w3.org/1999/xlink" x="0px" y="0px"
	 viewBox="0 0 493.7 512" style="enable-background:new 0 0 493.7 512;" xml:space="preserve">
<path d="M310.4,63.1c17.4,102.6-58.6,118.3-58.6,118.3s64.6-27.4,52.9-100.8c0-0.3,4.6-17,5.1-18.6C310.6,59.2,310,60.7,310.4,63.1z
	 M294.6,85c-13.8,23.3-16.7,27.3-42.7,37.1c-43.2,16.2-104.4,21.3-126.6,52.9c-10.8,23.6-20.5,172.1-116.1,263
	c-14.6,15-10.1,44.5,1.9,59.5c22.6-2,45.2-8.4,70.8-18.2c22.9-8.6,45.3-20.9,67.2-36.7c-15.6-41.3-17-91.7,26.9-129.7
	c-28.2,39.1-31.9,72.3-21.4,125.3l9.9-8.8c-4.3-24.1-18.7-70.4,23.5-116c0.1-0.1,0.2,0.1,0.1,0.2c-24.1,33.9-23,71.7-14.2,105.8
	c24.5-20.7,136.5-163.8,150-179.7c-119.3-21.7-184.3,53.8-184.3,53.8s70.1-102.5,206.8-80c52.8-62,103.7-89.7,111.2-138.8
	c-35.2-8-61.9-52.1-118.9-71.9c-13.7-3.4-26-3.2-35.7,2.9C301.3,11.3,314.2,56.7,294.6,85z M481.8,143.7
	c-20.6,44-63.1,67.8-130.7,136.8C293.7,339.1,242.6,409,179.7,462.4c-100,74.7-165.6,41.1-165.6,41.1c80.1-9,132.7-48.2,151.5-65.4
	c28.1-26.3,97.7-108.7,107-122.4c38-55.8,150.4-170.8,156.3-177.5c19.1-21.4,31.5-42.1,37.2-62.3C496.2,84.2,502.2,92.2,481.8,143.7
	z"/>
</svg>
