<?xml version="1.0" encoding="utf-8"?>
<!-- Generator: Adobe Illustrator 21.1.0, SVG Export Plug-In . SVG Version: 6.00 Build 0)  -->
<svg version="1.1" id="Layer_1" xmlns="http://www.w3.org/2000/svg" xmlns:xlink="http://www.w3.org/1999/xlink" x="0px" y="0px"
	 viewBox="0 0 458.8 512" style="enable-background:new 0 0 458.8 512;" xml:space="preserve">
<g>
	<path d="M353.2,97.9c-3.6,4.3-9,10.2-16,17.7c-12.9,13.8-31,32.5-51.1,52.8c-35.7,36-80,79.1-92.9,88.7c-1.9,1.5-6.5,4.8-9.5,1
		c-16.3-19.1-26.1-42.5-28.4-67.7c-2.2-23.8,2.5-47.5,13.5-68.8l-37.5-37.8c-5.7-6.5-14.2-10.3-23.5-10.3c-19.2,0-34.2,15-34.2,34.2
		V512H0V107.8C0,48.3,48.3,0,107.8,0c28.8,0,55.9,11.2,76.2,31.5L221.3,69c43.5-23,97.9-17.2,136.5,14.9l0.4,0.4l0.3,0.5
		C361.2,88.4,358.2,92,353.2,97.9z"/>
	<path d="M342.4,129L342.4,129c0.1-0.2,0.4-0.2,0.6-0.1c1.7,1.3,5.3,1.3,9.1,1.5c3.8,0.2,7.8,0.6,10.2,2.9c4,3.7,4.4,9.9,0.7,14.1
		c-3.7,4.1-10,4.5-14,0.8c-2.6-2.2-3.4-6.1-4-9.8c-0.6-3.8-1-7.4-2.5-8.9C342.3,129.4,342.3,129.2,342.4,129z M316.7,157.5
		c0.1-0.1,0.4-0.2,0.6,0c1.7,1.2,5.3,1.3,9.1,1.5c3.8,0.2,7.8,0.6,10.2,3c4,3.6,4.4,9.9,0.7,14c-3.7,4.1-10,4.5-14.1,0.8
		c-2.6-2.2-3.4-6.1-4-9.8c-0.6-3.8-1-7.4-2.5-8.9C316.6,158,316.6,157.7,316.7,157.5z M291,186.1c0.1-0.2,0.4-0.2,0.6-0.1
		c1.7,1.3,5.3,1.3,9.1,1.5c3.8,0.2,7.8,0.6,10.2,2.9c4,3.7,4.4,9.9,0.7,14.1c-3.7,4.1-10,4.5-14.1,0.8c-2.6-2.2-3.4-6.1-4-9.8
		c-0.6-3.8-1-7.4-2.5-8.9C290.9,186.5,290.9,186.2,291,186.1z M265.3,214.6c0.1-0.2,0.4-0.2,0.6,0c1.7,1.2,5.3,1.3,9.1,1.5
		c3.8,0.2,7.8,0.6,10.2,3c4,3.6,4.4,9.9,0.7,14c-3.7,4.1-10,4.5-14,0.8c-2.6-2.2-3.4-6.1-4-9.8c-0.6-3.8-1-7.4-2.5-8.9
		C265.2,215,265.2,214.8,265.3,214.6z M246.1,262.4c-2.6-2.2-3.4-6.1-4-9.8c-0.6-3.8-1-7.4-2.5-8.9c-0.1-0.1-0.1-0.4,0-0.6
		c0.1-0.1,0.4-0.2,0.6-0.1c1.7,1.3,5.3,1.3,9.1,1.5c3.8,0.2,7.8,0.6,10.2,3c4.1,3.6,4.4,9.9,0.7,14
		C256.4,265.7,250.2,266.1,246.1,262.4z M266.4,306.5c-2.6-2.2-3.4-6.1-4-9.8c-0.6-3.8-1-7.4-2.5-8.9c-0.1-0.2-0.1-0.4,0-0.6
		c0.1-0.2,0.4-0.2,0.6,0c1.7,1.2,5.3,1.3,9.1,1.5c3.8,0.2,7.8,0.6,10.2,3c4,3.7,4.4,9.9,0.7,14C276.7,309.8,270.4,310.2,266.4,306.5
		z M300.7,349.8c-3.7,4.1-10,4.5-14,0.8c-2.6-2.2-3.4-6.1-4-9.8c-0.6-3.8-1-7.4-2.5-8.9c-0.1-0.2-0.1-0.4,0-0.6
		c0.1-0.1,0.4-0.2,0.6,0c1.7,1.2,5.3,1.3,9.1,1.5c3.8,0.2,7.8,0.6,10.2,3C304.1,339.4,304.4,345.7,300.7,349.8z M292.1,278
		c-2.6-2.2-3.4-6.1-4-9.8c-0.6-3.8-1-7.4-2.5-8.9c-0.1-0.1-0.1-0.4,0-0.6c0.1-0.1,0.4-0.2,0.6-0.1c1.7,1.2,5.3,1.3,9.1,1.5
		c3.8,0.2,7.8,0.6,10.2,3c4,3.7,4.4,9.9,0.7,14.1C302.4,281.3,296.1,281.6,292.1,278z M326.4,321.3c-3.7,4.1-10,4.5-14,0.8
		c-2.6-2.2-3.4-6.1-4-9.8c-0.6-3.8-1-7.4-2.5-8.9c-0.1-0.2-0.1-0.4,0-0.6c0.1-0.2,0.4-0.2,0.6-0.1c1.7,1.3,5.3,1.3,9.1,1.5
		c3.8,0.2,7.8,0.6,10.2,3C329.8,310.9,330.1,317.2,326.4,321.3z M317.8,249.5c-2.6-2.2-3.4-6.1-4-9.8c-0.6-3.8-1.1-7.4-2.5-8.9
		c-0.1-0.2-0.1-0.4,0-0.6c0.1-0.2,0.4-0.2,0.6,0c1.7,1.2,5.3,1.3,9.1,1.5c3.8,0.2,7.8,0.6,10.2,2.9c4,3.7,4.4,9.9,0.7,14.1
		C328.1,252.8,321.8,253.1,317.8,249.5z M352.1,292.8c-3.7,4.1-10,4.5-14,0.8c-2.6-2.2-3.4-6.1-4-9.8c-0.6-3.8-1-7.4-2.5-8.9
		c-0.1-0.2-0.1-0.4,0-0.6c0.1-0.1,0.4-0.2,0.6,0c1.7,1.2,5.3,1.3,9.1,1.5c3.8,0.2,7.8,0.6,10.2,3
		C355.5,282.3,355.8,288.6,352.1,292.8z M343.5,220.9c-2.6-2.1-3.4-6.1-4-9.8c-0.6-3.8-1.1-7.4-2.5-8.9c-0.1-0.1-0.1-0.4,0-0.6
		c0.1-0.1,0.4-0.2,0.6-0.1c1.7,1.2,5.3,1.3,9.1,1.5c3.8,0.2,7.8,0.6,10.2,3c4,3.7,4.4,9.9,0.7,14
		C353.8,224.2,347.5,224.6,343.5,220.9z M377.8,264.2c-3.7,4.1-10,4.5-14,0.8c-2.6-2.2-3.4-6.1-4-9.8c-0.6-3.8-1-7.4-2.5-8.9
		c-0.1-0.2-0.1-0.4,0-0.6c0.1-0.2,0.4-0.2,0.6-0.1c1.7,1.3,5.3,1.3,9.1,1.5c3.8,0.2,7.8,0.6,10.2,2.9
		C381.2,253.8,381.5,260.1,377.8,264.2z M369.2,192.4c-2.6-2.2-3.4-6.1-4-9.8c-0.6-3.8-1.1-7.4-2.5-8.9c-0.1-0.2-0.1-0.4,0-0.6
		c0.1-0.2,0.4-0.2,0.6,0c1.7,1.2,5.3,1.3,9.1,1.5c3.8,0.2,7.8,0.6,10.2,3c4,3.6,4.4,9.9,0.7,14C379.5,195.7,373.2,196,369.2,192.4z
		 M403.5,235.7c-3.7,4.1-10,4.5-14,0.8c-2.6-2.2-3.4-6.1-4-9.8c-0.6-3.8-1-7.4-2.5-8.9c-0.1-0.2-0.1-0.4,0-0.6
		c0.1-0.1,0.4-0.2,0.6,0c1.7,1.2,5.3,1.3,9.1,1.5c3.8,0.2,7.8,0.6,10.2,3C406.9,225.3,407.2,231.5,403.5,235.7z M394.8,163.9
		c-2.6-2.1-3.4-6.1-4-9.8c-0.6-3.8-1-7.4-2.5-8.9c-0.1-0.2-0.1-0.4,0-0.6c0.1-0.1,0.4-0.2,0.6,0c1.7,1.2,5.3,1.3,9.1,1.5
		c3.8,0.2,7.8,0.6,10.2,3c4,3.7,4.4,9.9,0.7,14C405.2,167.2,398.9,167.5,394.8,163.9z M429.2,207.2c-3.7,4.1-10,4.4-14,0.8
		c-2.6-2.2-3.4-6.1-4-9.8c-0.6-3.8-1-7.4-2.5-8.9c-0.1-0.2-0.1-0.4,0-0.6s0.4-0.2,0.6-0.1c1.7,1.3,5.3,1.3,9.1,1.5
		c3.8,0.2,7.8,0.6,10.2,2.9C432.6,196.8,432.9,203,429.2,207.2z M454.9,178.6c-3.7,4.1-10,4.5-14,0.8c-2.6-2.2-3.4-6.1-4-9.8
		c-0.6-3.8-1-7.4-2.5-8.9c-0.1-0.2-0.1-0.4,0-0.6c0.1-0.2,0.4-0.2,0.6-0.1c1.7,1.2,5.3,1.3,9.1,1.5c3.8,0.2,7.8,0.6,10.2,3
		C458.3,168.2,458.6,174.5,454.9,178.6z"/>
</g>
</svg>
