<?xml version="1.0" encoding="utf-8"?>
<!-- Generator: Adobe Illustrator 21.1.0, SVG Export Plug-In . SVG Version: 6.00 Build 0)  -->
<svg version="1.1" id="Layer_2" xmlns="http://www.w3.org/2000/svg" xmlns:xlink="http://www.w3.org/1999/xlink" x="0px" y="0px"
	 viewBox="0 0 410.1 512" style="enable-background:new 0 0 410.1 512;" xml:space="preserve">
<g>
	<path d="M404.6,412.9l-133,54.6c3.3,8.9,8.4,16.8,15.2,23.6c6.5,6.5,14,11.6,22.5,15.2c8.5,3.3,17.4,5,26.7,5.1
		c9.7,0.1,19-1.7,27.7-5.3c9.2-3.7,17.2-8.9,24-15.7c6.6-6.6,11.9-14.2,15.7-22.8c3.7-8.8,5.7-17.8,5.9-27.1
		C409.6,431.2,408,422,404.6,412.9z"/>
	<polygon points="379.9,352.1 247.8,406.4 268.7,458.6 400.5,404.6 	"/>
	<path d="M55.7,144.5c2.4-0.5,4.9-1,7.5-1.5l199.1,244.3l9-4.3L108.2,132.1c2.7-0.7,5.3-1.5,8-2.2l163.1,249.7l9-3.7L157,117.6
		c2.4-0.8,4.8-1.5,7.2-2.3l130.1,258.2l9.6-3.7L201.6,102.5c0.1,0,0.1,0,0.2-0.1c2.4-0.9,4.8-1.7,7.2-2.6l102.9,266.6l9.6-4.3
		L248.8,84.7c2.3-0.9,4.6-1.8,6.9-2.8l72.7,277l10.8-3.7L295.1,65c2.7-1.2,5.4-2.5,8-3.7l44,290.5l8.1-3.3L339,43.4
		c2.7-1.5,5.3-2.9,7.8-4.3l15.4,306.7l9.9-4l12.4-334c-0.1,0.1-0.3,0.3-0.4,0.4c0-0.6,0-1.1-0.2-1.6c-1.1-4-7.4-5.8-18.7-5.5
		c-10.7,0.1-25.3,2.2-43.8,6.1c-39.1,8.1-85.1,21.7-137.9,40.7c-53.2,19-97.4,37.9-132.7,56.7c-17,8.7-29.6,16.5-38,23.3
		c-9,7-12.9,12.3-11.8,15.9c0.1,0.3,0.3,0.6,0.4,0.9c0,0.1,0.1,0.2,0.1,0.3l242.1,249.3l11.1-5.2L55.7,144.5z M27.7,130.4
		c1.1-7,17.3-18.4,48.9-34.4c31.5-16,70.7-32.3,117.4-48.8c44.4-15.7,81.9-26.6,112.5-32.7s46-5.8,46.1,0.7
		c-1.1,6.9-18,18.6-50.7,35s-71.3,32.5-115.7,48.2c-46.6,16.6-85,27.8-115.1,33.7C41.1,137.9,26.6,137.4,27.7,130.4z"/>
</g>
</svg>
