<?xml version="1.0" encoding="utf-8"?>
<!-- Generator: Adobe Illustrator 21.1.0, SVG Export Plug-In . SVG Version: 6.00 Build 0)  -->
<svg version="1.1" id="Layer_1" focusable="false" xmlns="http://www.w3.org/2000/svg" xmlns:xlink="http://www.w3.org/1999/xlink"
	 x="0px" y="0px" viewBox="0 0 378.7 512" style="enable-background:new 0 0 378.7 512;" xml:space="preserve">
<path d="M304,138v-31.3H114.9c43,53.9,99.2,124,100.8,126.1c11,13.7,11,33.1,0.1,46.7L115,405.4h189V374h74.6v74.3
	c0,17.5-14.2,31.7-31.7,31.7H37.2C5.9,480-11.5,443.7,8,419.3l131.8-164.5c-16.1-18.5-83.9-102.6-131.7-162
	C-11.5,68.3,5.9,32,37.3,32H347c17.5,0,31.7,14.2,31.7,31.7V138H304z"/>
</svg>
