<?xml version="1.0" encoding="utf-8"?>
<!-- Generator: Adobe Illustrator 22.0.1, SVG Export Plug-In . SVG Version: 6.00 Build 0)  -->
<svg version="1.1" id="Layer_1" xmlns="http://www.w3.org/2000/svg" xmlns:xlink="http://www.w3.org/1999/xlink" x="0px" y="0px"
	 viewBox="0 0 512 512" style="enable-background:new 0 0 512 512;" xml:space="preserve">
<path d="M456.6,55.1c-7.9-8-20.8-8-28.8,0l-36.4,36.4l28.8,28.8l36.4-36.4c4-4,6-9.2,6-14.4C462.6,64.3,460.6,59.1,456.6,55.1z
	 M270.4,6c-3.7-3.7-8.8-6-14.4-6c-11.2,0-20.4,9.1-20.4,20.3v51.5h40.7V20.3C276.4,14.7,274.1,9.6,270.4,6z M255.4,110
	c-42.8,0-81.6,17.4-109.6,45.4s-45.4,66.8-45.4,109.6v167.6h310.1V265.1C410.4,179.5,341,110,255.4,110z M172.9,299.5l-18.1,0v-18.2
	h18.1V299.5z M172.5,275.6h-17.9c0-75.9,31.3-74.5,31.3-74.5S172.5,204.8,172.5,275.6z M82.9,55.1c-8-8-20.8-8-28.8,0
	c-7.9,8-7.9,20.8,0,28.8l36.4,36.4l28.8-28.8L82.9,55.1z M20.4,216C9.1,216,0,225.1,0,236.3c0,11.2,9.1,20.3,20.3,20.3h51.5V216
	H20.4z M440,474.5l-29.6-33.1H100.3l-29.6,33.1H44V512h422.7v-37.5H440z M491.7,216h-51.5v40.7h51.5c5.6,0,10.7-2.3,14.4-6
	c3.7-3.7,6-8.8,6-14.4C512,225.1,502.9,216,491.7,216z"/>
</svg>
