<?xml version="1.0" encoding="utf-8"?>
<!-- Generator: Adobe Illustrator 21.1.0, SVG Export Plug-In . SVG Version: 6.00 Build 0)  -->
<svg version="1.1" id="Layer_1" xmlns="http://www.w3.org/2000/svg" xmlns:xlink="http://www.w3.org/1999/xlink" x="0px" y="0px"
	 viewBox="0 0 512 512" style="enable-background:new 0 0 512 512;" xml:space="preserve">
<g>
	<path d="M175.8,409.2l39.9-39.9c13-13,34-13,47,0l12.9,12.9l104.4-104.4l-12.9-12.9c-13-13-13-34,0-47l39.9-39.9c13-13,34-13,47,0
		l12.9,12.9l14.7-14.7c40.3-40.3,40.3-105.5,0-145.8s-105.5-40.3-145.8,0L321.2,45l13,13c13,13,13,34,0,47l-39.9,39.9
		c-13,13-34,13-47,0L234.4,132L129.9,236.4l12.9,12.9c13,13,13,34,0,47l-39.9,39.9c-13,13-34,13-47,0L43,323.4L30.4,336
		c-40.3,40.3-40.3,105.5,0,145.8c20.1,20.1,46.5,30.2,72.9,30.2s52.8-10.1,72.9-30.2l12.5-12.7l-12.9-12.9
		C162.8,443.2,162.8,422.2,175.8,409.2z"/>
	<path d="M237.5,105.7l30.9,30.9c4.4,4.4,11.6,4.4,16.1,0l41.4-41.4c4.4-4.4,4.4-11.6,0-16.1L295,48.2c-4.4-4.4-11.6-4.4-16.1,0
		l-41.4,41.4C233.1,94,233.1,101.2,237.5,105.7z"/>
	<path d="M463.9,217.1L433,186.2c-4.4-4.4-11.6-4.4-16.1,0l-41.4,41.4c-4.4,4.4-4.4,11.6,0,16.1l30.9,30.9c4.4,4.4,11.6,4.4,16.1,0
		l41.4-41.4C468.3,228.8,468.3,221.6,463.9,217.1z"/>
	<path d="M93.7,327.3l41.4-41.4c4.4-4.4,4.4-11.6,0-16.1l-30.9-30.9c-4.4-4.4-11.6-4.4-16.1,0l-41.4,41.4c-4.4,4.4-4.4,11.6,0,16.1
		l30.9,30.9C82.1,331.7,89.3,331.7,93.7,327.3z"/>
	<path d="M273.3,407.8l-30.9-30.9c-4.4-4.4-11.6-4.4-16.1,0l-41.4,41.4c-4.4,4.4-4.4,11.6,0,16.1l30.9,30.9c4.4,4.4,11.6,4.4,16.1,0
		l41.4-41.4C277.7,419.5,277.7,412.3,273.3,407.8z"/>
</g>
</svg>
