<?xml version="1.0" encoding="utf-8"?>
<!-- Generator: Adobe Illustrator 21.1.0, SVG Export Plug-In . SVG Version: 6.00 Build 0)  -->
<svg version="1.1" id="Layer_1" xmlns="http://www.w3.org/2000/svg" xmlns:xlink="http://www.w3.org/1999/xlink" x="0px" y="0px"
	 viewBox="0 0 483 512" style="enable-background:new 0 0 483 512;" xml:space="preserve">
<path d="M393.6,0.5h-39.5l-2,64h-29.8l4-64H156.7l5,64H130l-4-64v0.2H88.3L0,483.7c0,0,16.3,4.6,33.6,8.4c19.7,4.4,40.8,8,40.8,8
	l42.1-275.2l11.9,0.8l-26.6,278.1c0,0,19.2,2.6,38.7,4.3c20.4,1.7,41.1,3.5,41.1,3.5l8.5-285.6l13.9,0.4l3.4,286.1h69.1l-4.9-285.7
	h15.5l15.3,284.7c0,0,19.9-1,39.8-3c19.8-2,39.5-5,39.5-5l-36.1-279.2h11.9l52.7,275.2c0,0,20.6-3.3,39.5-7.5
	c17.5-3.8,33.3-8.5,33.3-8.5L393.6,0.5z M241.8,155.2c-9.3,0-16.8-7.5-16.8-16.8s7.5-16.8,16.8-16.8s16.8,7.5,16.8,16.8
	S251.1,155.2,241.8,155.2z M241.8,104.9c-9.3,0-16.8-7.5-16.8-16.8s7.5-16.8,16.8-16.8s16.8,7.5,16.8,16.8S251.1,104.9,241.8,104.9z
	 M241.8,54.5c-9.3,0-16.8-7.5-16.8-16.8S232.6,21,241.8,21s16.8,7.5,16.8,16.7S251.1,54.5,241.8,54.5z"/>
</svg>
