<?xml version="1.0" encoding="utf-8"?>
<!-- Generator: Adobe Illustrator 21.1.0, SVG Export Plug-In . SVG Version: 6.00 Build 0)  -->
<svg version="1.1" id="Layer_1" xmlns="http://www.w3.org/2000/svg" xmlns:xlink="http://www.w3.org/1999/xlink" x="0px" y="0px"
	 viewBox="0 0 512 512" style="enable-background:new 0 0 512 512;" xml:space="preserve">
<style type="text/css">
	.st0{fill:#010101;}
</style>
<g>
	<path class="st0" d="M511.6,489.9L387.3,34.5l-264.8,0.2L0.6,484.1C-2.6,498.4,8.2,512,22.8,512l10.2,0c1.3,0,27.3-20.1,66.2-20.1
		c33,0,75.3,20.1,119.6,20.1c26.4,0,68.1-20,94.4-20c37.4,0,59.2,11.3,88.8,15.9c26.8,4.2,79.6,4,80.6,4l11.5,0
		C505.6,511.8,514.1,501.1,511.6,489.9z"/>
	<g>
		<path class="st0" d="M250.8,9.2c-5.7,0-10.3,4.6-10.3,10.3s4.6,10.3,10.3,10.3c4.2,0,7.7-2.5,9.4-6.1h-5.3v-8.6h5.2
			C258.6,11.6,255,9.2,250.8,9.2L250.8,9.2z"/>
	</g>
	<g>
		<path class="st0" d="M250.8,0c-6.5,0-12.2,3.2-15.7,8.1H122.5v22.8H235l0-0.2c3.5,5,9.3,8.3,15.8,8.3c6.5,0,12.2-3.2,15.7-8.1
			h120.8V8.1H266.6C263,3.2,257.3,0,250.8,0L250.8,0z M250.8,34.8c-8.4,0-15.2-6.8-15.2-15.3s6.8-15.3,15.2-15.3
			c6.9,0,12.7,4.6,14.6,11h8.3v8.6h-8.3C263.6,30.2,257.8,34.8,250.8,34.8L250.8,34.8z"/>
	</g>
</g>
</svg>
