<?xml version="1.0" encoding="utf-8"?>
<!-- Generator: Adobe Illustrator 21.1.0, SVG Export Plug-In . SVG Version: 6.00 Build 0)  -->
<svg version="1.1" id="Layer_1" xmlns="http://www.w3.org/2000/svg" xmlns:xlink="http://www.w3.org/1999/xlink" x="0px" y="0px"
	 viewBox="0 0 512 512" style="enable-background:new 0 0 512 512;" xml:space="preserve">
<path d="M462.1,0.5h-412c-27.6,0-50,22.4-50,50v412c0,27.6,22.4,50,50,50h412c27.6,0,50-22.4,50-50v-412
	C512.1,22.9,489.7,0.5,462.1,0.5z M60.2,134.9h58.4V207H60.2V134.9z M203.4,379.6H60.2v-72.1h143.2V379.6z M144.6,170.2
	c0-34.3,27.8-62.1,62.1-62.1s62.1,27.8,62.1,62.1s-27.8,62.1-62.1,62.1S144.6,204.5,144.6,170.2z M292.9,405.8
	c-34.3,0-62.1-27.8-62.1-62.1s27.8-62.1,62.1-62.1s62.1,27.8,62.1,62.1S327.2,405.8,292.9,405.8z M452.2,379.2h-65.3v-72.1h65.3
	V379.2z M452.2,206.1H293v-72.2h159.2V206.1z"/>
</svg>
