<?xml version="1.0" encoding="utf-8"?>
<!-- Generator: Adobe Illustrator 21.1.0, SVG Export Plug-In . SVG Version: 6.00 Build 0)  -->
<svg version="1.1" id="Layer_1" xmlns="http://www.w3.org/2000/svg" xmlns:xlink="http://www.w3.org/1999/xlink" x="0px" y="0px"
	 viewBox="0 0 512 512" style="enable-background:new 0 0 512 512;" xml:space="preserve">
<path d="M512,462.5v-412c0-27.6-22.4-50-50-50H50c-27.6,0-50,22.4-50,50v412c0,27.6,22.4,50,50,50h412
	C489.6,512.5,512,490.1,512,462.5z M377.6,60.6V119h-72.1V60.6H377.6z M132.9,203.8V60.6H205v143.2H132.9z M342.3,145
	c34.3,0,62.1,27.8,62.1,62.1s-27.8,62.1-62.1,62.1s-62.1-27.8-62.1-62.1S308,145,342.3,145z M106.7,293.3
	c0-34.3,27.8-62.1,62.1-62.1s62.1,27.8,62.1,62.1s-27.8,62.1-62.1,62.1S106.7,327.6,106.7,293.3z M133.3,452.6v-65.3h72.1v65.3
	H133.3z M306.4,452.6V293.4h72.2v159.2H306.4z"/>
</svg>
