<?xml version="1.0" encoding="utf-8"?>
<!-- Generator: Adobe Illustrator 21.1.0, SVG Export Plug-In . SVG Version: 6.00 Build 0)  -->
<svg version="1.1" id="Layer_3" xmlns="http://www.w3.org/2000/svg" xmlns:xlink="http://www.w3.org/1999/xlink" x="0px" y="0px"
	 viewBox="0 0 550 512" style="enable-background:new 0 0 550 512;" xml:space="preserve">
<g id="fill">
	<path d="M218.2,267.2v28.6c-8.1-4.8-12.1-10.1-12.1-16C206.2,272.9,210.2,268.7,218.2,267.2z"/>
	<path d="M254.3,354.7c0,4.9-2,9-5.9,12.5c-3.9,3.4-9,5.2-15.1,5.1v-39.7C247.3,338,254.3,345.3,254.3,354.7z"/>
	<path d="M432.8,55.8l-115,120.5l0.1-49.4h12.5v-23.2H318l0.1-24.6h12.4V55.8H0V457h550V55.8H432.8z M66.8,126.4h205.9v26.2H66.8
		V126.4z M66.8,183.5h205.9v26.2H66.8V183.5z M141.8,377.5h-75v-26.2h75V377.5z M141.8,320.5h-75v-26.2h75V320.5z M141.8,267.3h-75
		v-26.2h75V267.3z M267.6,381c-8.5,7.8-20,11.8-34.3,12.2v8.2h-15v-8.2c-11.2-1.5-20.5-5.4-28.1-11.8c-7.5-6.3-11.8-17.1-12.9-32.2
		h26.4c-0.1,0.8-0.1,1.3-0.1,1.7c0,5,1.3,9.3,3.8,13.1c2.6,3.7,6.2,6.2,10.8,7.4v-45.3c-15.1-7-25.2-13.9-30.6-20.7
		c-5.3-6.8-7.9-14.3-7.9-22.4c0-9.9,3.5-18.3,10.6-25.2c7.1-7,16.4-10.9,27.9-11.8v-6.5h15v6.5c12.4,1,22.3,5,29.5,12
		c7.4,7,11,16.1,11,27.3h-26.3c-1.2-11.2-6-17.2-14.2-18.2v35.6l14.5,6.5c8.2,3.7,14.7,7.9,19.6,12.7c4.9,4.7,8.2,9.6,10.1,14.8
		c1.9,5.1,2.8,10.3,2.8,15.6C280.4,363.7,276.1,373.2,267.6,381z M343,408h-24.9v-23.8H343V408z M343,361.9h-24.9v-24.1H343V361.9z
		 M343,315.2h-24.9v-23.5H343V315.2z M343,267.8h-24.9v-24.1H343V267.8z M343,221.1h-24.9v-23.5H343V221.1z M429.2,117.5v27
		l-28.1,0.8L429.2,117.5z M484.8,377.5h-98.2v-26.2h98.2V377.5z M484.8,320.5h-98.2v-26.2h98.2V320.5z M484.8,267.3h-98.2v-26.2
		h98.2V267.3z"/>
</g>
</svg>
