<?xml version="1.0" encoding="utf-8"?>
<!-- Generator: Adobe Illustrator 21.1.0, SVG Export Plug-In . SVG Version: 6.00 Build 0)  -->
<svg version="1.1" id="Layer_6" xmlns="http://www.w3.org/2000/svg" xmlns:xlink="http://www.w3.org/1999/xlink" x="0px" y="0px"
	 viewBox="0 0 512 512" style="enable-background:new 0 0 512 512;" xml:space="preserve">
<g>
	<g>
		<path d="M256,0C114.7,0,0,114.6,0,256s114.7,256,256,256s256-114.6,256-256S397.4,0,256,0z M332.8,162.9
			c16.7,0,30.2,16.7,30.2,37.2s-13.6,37.2-30.2,37.2c-16.7,0-30.2-16.7-30.2-37.2C302.5,179.6,316,162.9,332.8,162.9z M179.2,162.9
			c16.7,0,30.2,16.7,30.2,37.2s-13.6,37.2-30.2,37.2S149,220.8,149,200.2C148.9,179.6,162.4,162.9,179.2,162.9z M363,336.3l-0.2,0.1
			c-66.3,40.2-129.1,37.2-201.4,1.4c-7-3.8-9.4-12.6-5.4-19.5c3.9-6.7,12.5-8.9,19.3-5c67.2,32.4,126.9,31,173.2-1.1
			C364.5,302.6,379.1,326.7,363,336.3z"/>
	</g>
</g>
</svg>
