<?xml version="1.0" encoding="utf-8"?>
<!-- Generator: Adobe Illustrator 21.1.0, SVG Export Plug-In . SVG Version: 6.00 Build 0)  -->
<svg version="1.1" id="Layer_1" xmlns="http://www.w3.org/2000/svg" xmlns:xlink="http://www.w3.org/1999/xlink" x="0px" y="0px"
	 viewBox="0 0 512 512" style="enable-background:new 0 0 512 512;" xml:space="preserve">
<path d="M482.8,340.2l29.2-29.2l-32.3-32.3H512v-46h-33.2l33-33l-29.2-29.2l-62.1,62.2h-47.2l44.1-44.1l-62.1-0.1l19.1-19.1H462V128
	h-46.7l34.8-34.8l-28.9-28.9h-6.1l-31.8,31.8V49.1h-41.2v88l-20.1,20V94.5l-42.3,42.2v-45l62-62.3L312.5,0.2l-32.8,33V0h-48v31.1
	L201,0l-29,29.3l59.7,60.3v49l-44.1-44.4v63l-24.9-25.1V44.3h-41.2v46.7L92,61.6L60,93.5l29.5,29.6H42.8v41.2h87.6l24.9,24.9H93.9
	l43.1,43.2H92l-62.3-61.7L0.4,199.9l33,32.6H0v47h31.9L0,311.5l29,29l60.9-60.9h46l-44,44.1h63.5l-24.9,24.9H42.8v41.2h46.7
	L63,416.5v6.1l28.9,28.9l29.5-29.5v46.7h41.2v-88.1l25-25.1l0.1,62.5l44-44v48.2l-59.6,60.3l29.2,29.2l30.5-31V512h48v-33l32.7,33
	l28.9-29.2l-61.6-62.2v-44.4l42.2,42.6v-63.8l20.1,20v88h41.2v-46.7l34.8,34.8l26.8-26.8l5.2-5.2l-34.8-34.8H462v-41.2h-87.8
	L354,322.8l62.3-0.1l-44-44h49L482.8,340.2z M200.3,223.4l17.3,17.3h-24.9l-17.3-17.3H200.3z M221.7,201.4v-24.4l17.3,17.3v24.4
	L221.7,201.4z M238.9,293.8v24.5l-17.3,17.3v-24.5L238.9,293.8z M175.6,289.6l17.3-17.3h24.5l-17.3,17.3H175.6z M335,222.4
	l-17.3,17.3H293l17.3-17.3H335z M272.5,216.8v-24.3l15.3-15.3v24.3L272.5,216.8z M287.9,311.2v24.3l-15.3-15.3v-24.4L287.9,311.2z
	 M292.1,271.4h25l17.3,17.3h-25L292.1,271.4z"/>
</svg>
