<?xml version="1.0" encoding="utf-8"?>
<!-- Generator: Adobe Illustrator 21.1.0, SVG Export Plug-In . SVG Version: 6.00 Build 0)  -->
<svg version="1.1" id="Layer_1" xmlns="http://www.w3.org/2000/svg" xmlns:xlink="http://www.w3.org/1999/xlink" x="0px" y="0px"
	 viewBox="0 0 512 512" style="enable-background:new 0 0 512 512;" xml:space="preserve">
<g>
	<path d="M168.1,512l168.1-168.4L287.8,295l-88,87.4L199.6,0h-64v382.3l-86.9-87L0.2,343.8L168.1,512z"/>
	<path d="M429.5,242.2H396v32.5h33.4v-32.5H429.5z M437.6,274.6h32.9v-32.5h-32.9V274.6z M459,197.2h52V0.2h-52v12l-44.7,29.5v48.5
		l44.7-30V197.2z M478.6,242.2v32.5H512v-32.5L478.6,242.2L478.6,242.2z M458.6,310.6c-8.4-1-16.7-0.7-24.8,1
		c-7.8,1.7-14.9,4.8-21.3,9.5c-12.2,8.4-22.6,22.9-25.3,42c-3.1,19.9,0.6,35.9,7.6,48.5c4.4,7,9.6,12.8,15.7,17.5s13,8,20.8,10
		c7.8,1.7,15.4,1.7,22.8,0c6.6-1.2,12.8-4.1,18.6-8.8c0.1,10.5,0.5,36.3-16.6,42.2c-3.7,1.1-7.6,1.2-11.7,0.5
		c-6.9-1-12.5-4.8-16.7-17c-3.6,0.3-34.6,5.5-37.5,5.5c1,8.7,3.4,16.5,7.1,23.5c19.9,34.8,64.4,24.8,63.3,25
		c48.3-9.8,49.6-53,51.3-91.5c0.5-19.3-0.9-48.2-7.1-65.5C491.4,317.1,464.4,311.3,458.6,310.6z M447.5,394.2
		c-9.3-0.2-16.7-8.9-16.5-19.2c0.2-10,7.5-17.8,16.3-17.8c8.9,0,16.4,8,16.7,18.1C464.3,385.8,456.9,394.4,447.5,394.2z
		 M387.9,242.2H355v32.5h32.9V242.2z"/>
</g>
</svg>
