<?xml version="1.0" encoding="utf-8"?>
<!-- Generator: Adobe Illustrator 21.1.0, SVG Export Plug-In . SVG Version: 6.00 Build 0)  -->
<svg version="1.1" id="Layer_1" xmlns="http://www.w3.org/2000/svg" xmlns:xlink="http://www.w3.org/1999/xlink" x="0px" y="0px"
	 viewBox="0 0 550 512" style="enable-background:new 0 0 550 512;" xml:space="preserve">
<g>
	<path d="M158.6,512l158.6-158.9l-45.7-45.9l-83,82.5L188.4,0H128v389.6l-82-82.1L0.2,353.3L158.6,512z"/>
	<path d="M548.8,314.9H341.2v47.2h128.3l0.2,0.2L341.2,464v48.1h207.6V464H421.4l127.4-101.9V314.9z M423.3,163.7h39.8l21,50.7h66
		L466,0h-42.7l-82.9,214.3h63.4L423.3,163.7z M441.8,64.7h0.8c1.8,7.3,11.7,53.1,11.7,53.1h-22.2C432.1,117.8,440,72,441.8,64.7z"/>
</g>
</svg>
