<?xml version="1.0" encoding="utf-8"?>
<!-- Generator: Adobe Illustrator 21.1.0, SVG Export Plug-In . SVG Version: 6.00 Build 0)  -->
<svg version="1.1" id="Layer_1" xmlns="http://www.w3.org/2000/svg" xmlns:xlink="http://www.w3.org/1999/xlink" x="0px" y="0px"
	 viewBox="0 0 550 512" style="enable-background:new 0 0 550 512;" xml:space="preserve">
<g>
	<path d="M158.6,0L0,158.9l45.8,45.9l83-82.5l0.1,389.7h60.4V122.4l82,82.1l45.8-45.9L158.6,0z"/>
	<path d="M548.8,0.3H341.2v47.2h128.3l0.2,0.2L341.2,149.4v48.1h207.6v-48.1H421.4L548.8,47.5V0.3z M423.3,461.3h39.8l21,50.7h66
		l-84-214.3h-42.7L340.5,512h63.4L423.3,461.3z M441.8,362.3h0.8c1.8,7.3,11.7,53.1,11.7,53.1h-22.2
		C432.1,415.5,440,369.6,441.8,362.3z"/>
</g>
</svg>
