<?xml version="1.0" encoding="utf-8"?>
<!-- Generator: Adobe Illustrator 21.1.0, SVG Export Plug-In . SVG Version: 6.00 Build 0)  -->
<svg version="1.1" id="Layer_1" xmlns="http://www.w3.org/2000/svg" xmlns:xlink="http://www.w3.org/1999/xlink" x="0px" y="0px"
	 viewBox="0 0 445.7 512" style="enable-background:new 0 0 445.7 512;" xml:space="preserve">
<style type="text/css">
	.st0{fill-rule:evenodd;clip-rule:evenodd;}
</style>
<path class="st0" d="M428.3,354.5c-16.7,9.6-70.9,22.9-80.5,6.2c-9.6-16.7,29-57,45.7-66.6c16.7-9.6,38-3.9,47.7,12.8
	C450.7,323.6,445,344.9,428.3,354.5z M323.3,346.6c-19.3,0-34.9-53.6-34.9-72.8c0-19.3,15.6-34.9,34.9-34.9
	c19.3,0,34.9,15.6,34.9,34.9C358.2,293.1,342.5,346.6,323.3,346.6z M268.2,233.6c-6.3,9.2-10.8,22.9-10.8,22.9s-9-3.1-21.5-3.1
	c-20.9,0-45.1,11.9-58.5,35.9c-26.8,48.1,17.4,86.1,17.4,86.1s-24.4,12.5-24.4,60.8c0,33.8,36.5,62.2,63.4,62.2
	c14,0,22.6-4.1,22.6-4.1l3.9,7.2c0,0-46,10.2-115.7,10.2C17.4,511.6,0,488.1,0,488.1V180.6c0,0,48,18.4,139,18.4
	c101.4,0,143-18.4,143-18.4v40C282,220.6,274.2,224.9,268.2,233.6z M140.1,173.3C62.7,173.3,0,161.4,0,146.7
	c0-14.4,59.7-26.1,135-26.6V96.6c-14-4-24.2-23-24.2-37c0-15.8,28.7-59.6,28.7-59.6s28.7,43.9,28.7,59.6c0,13.7-9.7,32-22.3,36.7
	V120c74.5,0.6,134.2,12.3,134.2,26.6C280.2,161.4,217.5,173.3,140.1,173.3z M218.3,354.5c-16.7-9.6-22.4-31-12.8-47.6
	c9.6-16.7,31-22.4,47.7-12.8c16.7,9.6,55.3,49.9,45.7,66.6C289.2,377.4,235,364.2,218.3,354.5z M205.5,442.8
	c-9.6-16.7-3.9-38,12.8-47.6c16.7-9.6,70.9-22.9,80.5-6.2c9.6,16.7-29,57-45.7,66.6C236.5,465.2,215.1,459.5,205.5,442.8z
	 M323.3,403c19.3,0,34.9,53.6,34.9,72.8c0,19.3-15.6,34.9-34.9,34.9c-19.3,0-34.9-15.6-34.9-34.9C288.4,456.6,304,403,323.3,403z
	 M347.7,388.9c9.6-16.7,63.9-3.4,80.5,6.2c16.7,9.6,22.4,31,12.8,47.6c-9.6,16.7-31,22.4-47.7,12.8
	C376.7,445.9,338.1,405.6,347.7,388.9z"/>
</svg>
