<?xml version="1.0" encoding="utf-8"?>
<!-- Generator: Adobe Illustrator 21.1.0, SVG Export Plug-In . SVG Version: 6.00 Build 0)  -->
<svg version="1.1" id="Layer_7" xmlns="http://www.w3.org/2000/svg" xmlns:xlink="http://www.w3.org/1999/xlink" x="0px" y="0px"
	 viewBox="0 0 512 512" style="enable-background:new 0 0 512 512;" xml:space="preserve">
<path d="M256,0C114.6,0,0,114.6,0,256s114.6,256,256,256s256-114.6,256-256S397.4,0,256,0z M266,59.2c6.3,0.3,12.6,0.9,19,1.8
	c13.1,1.9,25.8,5,37.8,9.3l-20.5,49.1c-11.4-5.6-23.5-10-36.3-13V59.2z M61.4,246.1c-0.7,4.6-1.1,9.2-1.4,13.8
	c-0.2-10.5,0.5-21.2,2-31.9c3-21,9.2-40.7,18-58.7l9.3,5.4C75.1,195.3,65.2,219.6,61.4,246.1z M85.3,343.3l-3.3-6.8l12.2-6l3.3,6.8
	L85.3,343.3z M102.5,158l-12.2-7c8.1-12.9,17.7-24.7,28.4-35.3l13.7,15.9C121.4,139.2,111.4,148,102.5,158z M123.2,394.2l-5.3-5.3
	l9.6-9.6l5.3,5.3L123.2,394.2z M183.2,433.4l-6.9-3l5.4-12.4l6.9,3L183.2,433.4z M150.7,120.7l-16.3-18.9
	c13.5-10.7,28.3-19.6,44.1-26.5l11.1,31C176,109.5,162.9,114.3,150.7,120.7z M210.7,102.8l-12.5-34.9c15-4.7,30.7-7.6,46.8-8.6v43.6
	C233.4,101.7,221.9,101.7,210.7,102.8z M265.2,447.9h-4.5v0.2h-7.5v-0.2h-4.6v-25.6h16.6V447.9z M326.2,197.7l-48.8,53.7
	c0.6,1.9,1.1,4.1,1.1,6.6c0,12.7-11,22.8-24,21.4c-9.9-1.1-17.8-9-18.9-18.9c-1.4-13,8.7-24,21.4-24c2.5,0,4.8,0.5,6.7,1.1
	l53.8-48.8c1.2-1.1,2.7-1.6,4.2-1.6c1.6,0,3.2,0.6,4.5,1.9C328.3,191.5,328.4,195.3,326.2,197.7z M338.4,430.1l-6-12.2l6.8-3.3
	l6,12.2L338.4,430.1z M320.6,130l21.6-51.6c17.3,8.3,33.1,19,47,31.6l-42,42C339.2,143.8,330.3,136.4,320.6,130z M361.1,167.8
	l42.9-42.9c12.2,13.7,22.4,29,30.4,45.5l-56.6,24.3C373.1,185.1,367.5,176.2,361.1,167.8z M390.8,394.2l-9.6-9.6l5.3-5.3l9.6,9.6
	L390.8,394.2z M432.3,335.8l-12.4-5.4l3-6.9l12.4,5.4L432.3,335.8z M395.2,256c-1.2-14.6-4.3-28.7-9.1-42.1l56.4-24.2
	C450,210.6,454,232.9,454,256H395.2z"/>
</svg>
