<?xml version="1.0" encoding="utf-8"?>
<!-- Generator: Adobe Illustrator 21.1.0, SVG Export Plug-In . SVG Version: 6.00 Build 0)  -->
<svg version="1.1" id="Layer_1" xmlns="http://www.w3.org/2000/svg" xmlns:xlink="http://www.w3.org/1999/xlink" x="0px" y="0px"
	 viewBox="0 0 124 512" style="enable-background:new 0 0 124 512;" xml:space="preserve">
<path d="M50.8,192.8c-14.6-4.3-27.3-21.5-36.3-39.3C-5.9,113.8-4.9,68,17.9,30.2c24.3-40,63.9-40,88.1,0
	c22.8,37.8,23.8,83.5,3.6,123.3c-9.1,17.7-21.8,34.9-36.3,39.3c2.4,65.6,1.6,144.9,15.7,210.4c11,51.8,10.9,70.1,4.7,86.9
	c-10.6,29-52,28.8-62.9,0c-6.5-16.9-7.2-35.1,3.9-86.9C49,337.6,48.9,258.7,50.8,192.8L50.8,192.8z"/>
</svg>
