<?xml version="1.0" encoding="utf-8"?>
<!-- Generator: Adobe Illustrator 21.1.0, SVG Export Plug-In . SVG Version: 6.00 Build 0)  -->
<svg version="1.1" id="Layer_1" xmlns="http://www.w3.org/2000/svg" xmlns:xlink="http://www.w3.org/1999/xlink" x="0px" y="0px"
	 viewBox="0 0 448 512" style="enable-background:new 0 0 448 512;" xml:space="preserve">
<path d="M82,3.9c0-5.3-10-5-10,0V103c0,1.9-1.6,3.5-3.5,3.5l0,0c-1.9,0-3.5-1.6-3.5-3.5V3.9c0-5.3-9.8-5-9.8,0V103
	c0,1.9-1.6,3.5-3.5,3.5s-3.5-1.6-3.5-3.5V3.9c0-5.3-9.8-5-9.8,0V103c0,1.9-1.6,3.5-3.5,3.5s-3.5-1.6-3.5-3.5V3.9c0-5.3-10-5-10,0
	V103c0,1.9-1.6,3.5-3.5,3.5s-3.5-1.6-3.5-3.5V3.9c0-5-9.8-5.3-9.8,0c0,0-7.5,98.6-3.4,131.2c0.7,5.6,5.1,19.2,6.1,21.7
	c4.4,10.5,21.6,40.1,21.6,40.1l4.8,8.4c-0.6,35-3.3,144.1-13.2,198.5c-9.2,51.6-8.7,69.8-3.3,86.6c9.1,28.7,43.6,28.9,52.4,0
	c5.2-16.8,5.3-35-3.9-86.6c-11.2-62.1-11-136.5-12.7-199.9l3.8-7c0,0,17.8-29.9,22.5-40.5c2.2-5,5.3-15.6,6-21
	C89.4,102.7,82,3.9,82,3.9z"/>
<path d="M224.2,0c-18.8,0-39.3,112.5-39.3,133.9c0,38,3.7,77.8,19.2,112.8c0,56.2-49.1,253.1,10.6,265.1
	c42.2,8.3,21.2-238.6,17.9-264.6C243.3,206.1,247.7,0,224.2,0L224.2,0z"/>
<path d="M374.8,192.8c-14.6-4.3-27.3-21.5-36.3-39.3c-20.3-39.7-19.4-85.5,3.5-123.3c24.3-40,63.9-40,88.1,0
	c22.8,37.8,23.8,83.5,3.6,123.3c-9.1,17.7-21.8,34.9-36.3,39.3c2.4,65.6,1.6,144.9,15.7,210.4c11,51.8,10.9,70.1,4.7,86.9
	c-10.6,29-52,28.8-62.9,0c-6.5-16.9-7.2-35.1,3.9-86.9C373,337.6,372.9,258.7,374.8,192.8L374.8,192.8z"/>
</svg>
