<?xml version="1.0" encoding="utf-8"?>
<!-- Generator: Adobe Illustrator 21.1.0, SVG Export Plug-In . SVG Version: 6.00 Build 0)  -->
<svg version="1.1" id="Layer_1" focusable="false" xmlns="http://www.w3.org/2000/svg" xmlns:xlink="http://www.w3.org/1999/xlink"
	 x="0px" y="0px" viewBox="0 0 576 512" style="enable-background:new 0 0 576 512;" xml:space="preserve">
<g>
	<polygon points="531.8,212.1 465.2,278.6 398.6,212.1 354.9,255.9 421.3,322.5 354.9,389 398.6,432.8 465.2,366.3 531.8,432.8 
		575.5,389 509.1,322.5 575.5,255.9 	"/>
	<path d="M576,93.1H372.2c-1.5,0-2.9,0.9-3.4,2.3l-168.3,393c-11.6,30.2-53.8,31.6-67.4,2.2L46.1,334c-0.6-1.3-1.9-2.1-3.3-2.1H0
		v-93.1h78.5c14.3,0,27.2,8.3,33.2,21.2l49.1,86.5c0.9,1.9,3.5,1.8,4.3-0.1L300.4,23.5C305.8,9.3,319.4,0,334.5,0H576V93.1z"/>
</g>
</svg>
