<?xml version="1.0" encoding="utf-8"?>
<!-- Generator: Adobe Illustrator 22.0.1, SVG Export Plug-In . SVG Version: 6.00 Build 0)  -->
<svg version="1.1" id="Layer_3" xmlns="http://www.w3.org/2000/svg" xmlns:xlink="http://www.w3.org/1999/xlink" x="0px" y="0px"
	 viewBox="0 0 512 512" style="enable-background:new 0 0 512 512;" xml:space="preserve">
<g>
	<path d="M317.7,32.9l-0.2,0l-0.1-0.2c-0.4-0.5-0.9-0.8-1.5-1.1c-0.8-0.2-1.5-0.3-2.3-0.2c-7.4,0.8-13.7,0.9-18.9,0.2l-2.6-0.5
		c-1.9-0.2-3.2-0.5-4.1-0.7c-1.1-0.3-2.2-0.8-3.3-1.4c-1.1-0.6-2.4-1.7-3.9-3.1c-1.5-1.4-2.7-2.8-3.5-4.1c-1.4-1.9-2.9-4.6-4.3-8.1
		l-1.5-3.1c-0.7-1.5-1.5-2.8-2.5-4.1c-1.8-2.3-3.7-3.8-5.8-4.7c-0.6-0.4-1.4-0.7-2.3-1c-2.5-0.7-5.3-0.7-8.4-0.2
		c-4.5,0.4-10.2,1.8-17,4.3L235.4,5l-0.3-0.3c-0.3-0.2-0.8-0.3-1.5-0.4c-0.9-0.1-2.1-0.1-3.4-0.1c-1.3,0.1-2.3,0.2-3,0.4
		c-0.7,0.2-1.1,0.4-1.2,0.6l-0.2,0.1l0,123l0,0.1c-55.4,2.1-107.3,9.9-149.3,22.4l19.2,46c43.4-13.9,94.8-22.3,150.1-23.2V128
		l-10.1,0.2l0.1-82.9l16.4,0c2.9-0.1,4.7,0,5.5,0.2c0.3,0.1,0.8,0.3,1.5,0.6l0.5,0.3c1.5,0.6,3.1,1.9,4.8,3.8l2.3,2.8
		c1.4,1.8,2.5,3.1,3.3,3.9c1.4,1.3,3,2.2,4.5,2.6l0.5,0.1c1.2,0.3,2.7,0.4,4.5,0.2c1.8-0.2,4.3-0.7,7.6-1.7l0.6-0.2
		c3.6-1.9,7.3-4.2,11-6.8c5.1-3.4,11.1-8,18-13.7l0.2,0c0.7-0.7,1.1-1.4,1.3-2.2C318.4,34.5,318.2,33.7,317.7,32.9z M230.7,4.7
		c1.5,0,2.3,0.1,2.3,0.4c0,0.3-0.7,0.5-2.3,0.6c-1.6,0.1-2.4-0.1-2.3-0.4C228.4,4.9,229.2,4.8,230.7,4.7z"/>
	<path d="M438.8,151.6c-47.1-14.5-107.1-22.8-170.5-23.7v45.8c56.6,1.1,109.1,10.1,152.9,24.8L438.8,151.6z"/>
	<path d="M110.4,237.1l3.9,9.2c42.4,8.8,91.3,13.5,142.1,13.5c53.6,0,105.3-5.3,149.3-15.1l2.1-5.7c-14.1-4.6-29.2-8.6-45.1-11.8
		c-33.7-6.9-69.6-10.5-106.7-10.5c-37.1,0-73,3.5-106.7,10.5C135.6,230.1,122.7,233.4,110.4,237.1z"/>
	<path d="M0.2,245.2v57.9c0,27.6,110.2,79.2,184.9,79.2c-7.1,10.7-12.1,23.2-14.2,36.6C97.6,408.1,36.6,383.7,0.2,351.8V413
		c0,9.4,4.5,19.4,13.5,29.6c11.3,13,28.9,25.5,51,36.3c24.2,11.8,52.6,21.1,84.6,27.6c10.4,2.1,21,4,31.8,5.4v-78.1
		c0-43.4,33.7-78.7,75.2-78.7c20.8,0,39.6,8.8,53.2,23c13.6,14.2,22,33.9,22,55.6v78c10.6-1.5,21-3.3,31.2-5.3
		c31.9-6.6,60.4-15.9,84.6-27.6c22.1-10.8,39.7-23.3,51-36.3c8.7-10,13.2-19.6,13.5-28.8v-62.1c-36.4,31.8-97.1,56.2-170,67
		c-2.1-13.4-7.1-25.8-14.3-36.6c74.5,0,184.3-51.2,184.3-79.1v-57.4c-49.8,31.3-145.5,52.4-255.4,52.4
		C145.9,298.2,49.8,276.8,0.2,245.2z"/>
	<path d="M256.3,379.5L256.3,379.5c-25.3,0-46,20.2-46.9,45.5c0,0.6,0,1.2,0,1.8V512h93.9v-85.2c0-0.6,0-1.2,0-1.8
		C302.2,399.7,281.6,379.5,256.3,379.5z"/>
	<path d="M100.1,114c0,9.7-6.3,13.5-14,13.5c-5,0-9.4-2.1-11.9-5.2l-4.6,0.9l-12.3,40.3l17,40.8c-11.7,4.5-22.8,9.5-32.9,14.8
		c-28.6-10.4-32.2-11.7-41.2-15.5c1.4-14.6,16.3-31.2,54.2-45.5l11.8-38.7l6-1.2l0,0l26.8-5.2c0,0,0.1,0,0.2,0
		C99.7,113.2,100.1,113.5,100.1,114z"/>
	<path d="M412.1,114c0,9.7,6.3,13.5,14,13.5c5,0,9.4-2.1,11.9-5.2l4.6,0.9l12.3,40.3l-17,40.8c11.7,4.5,22.8,9.5,32.9,14.8
		c28.6-10.4,32.2-11.7,41.2-15.5c-1.4-14.6-16.3-31.2-54.2-45.5l-11.8-38.7l-6-1.2l0,0l-26.8-5.2c0,0-0.1,0-0.2,0
		C412.5,113.2,412.1,113.5,412.1,114z"/>
</g>
</svg>
