<?xml version="1.0" encoding="utf-8"?>
<!-- Generator: Adobe Illustrator 21.1.0, SVG Export Plug-In . SVG Version: 6.00 Build 0)  -->
<svg version="1.1" id="Layer_1" xmlns="http://www.w3.org/2000/svg" xmlns:xlink="http://www.w3.org/1999/xlink" x="0px" y="0px"
	 viewBox="0 0 536.7 512" style="enable-background:new 0 0 536.7 512;" xml:space="preserve">
<path d="M268.3,438.8L268.3,438.8c-5.8,0-11.6,1.4-16.9,4.2l-126.5,66.6c-3.1,1.7-6.4,2.4-9.5,2.4c-11.9,0-22.4-10.7-20.1-23.9
	l24-141.3c2-11.7-1.9-23.7-10.4-32L6.2,214.8c-12.1-11.8-5.4-32.4,11.3-34.9l141.8-20.5c11.8-1.7,22-9.1,27.3-19.8l63.3-128.2
	C253.7,3.8,261,0,268.2,0l0,0L268.3,438.8L268.3,438.8z"/>
</svg>
