<?xml version="1.0" encoding="utf-8"?>
<!-- Generator: Adobe Illustrator 21.1.0, SVG Export Plug-In . SVG Version: 6.00 Build 0)  -->
<svg version="1.1" id="Layer_1" xmlns="http://www.w3.org/2000/svg" xmlns:xlink="http://www.w3.org/1999/xlink" x="0px" y="0px"
	 viewBox="0 0 536.6 512" style="enable-background:new 0 0 536.6 512;" xml:space="preserve">
<g>
	<path d="M215.4,153.7l52.8-106.9V0l0,0c-7.3,0-14.6,3.8-18.3,11.4l-63.3,128.2c-5.3,10.7-15.5,18.1-27.3,19.8L17.5,180
		C0.7,182.4-6,203,6.2,214.9l102.6,100c8.5,8.3,12.4,20.3,10.4,32l-24,141.3c-2.2,13.2,8.2,23.9,20.1,23.9c3.1,0,6.4-0.7,9.5-2.4
		L251.4,443c5.3-2.8,11-4.2,16.8-4.2v-32c-11,0-22,2.7-31.7,7.8l-105.8,55.7L150.8,352c3.8-22.1-3.6-44.6-19.6-60.3l-85.8-83.6
		L164,191C186.2,187.8,205.4,173.8,215.4,153.7z"/>
</g>
</svg>
