<?xml version="1.0" encoding="utf-8"?>
<!-- Generator: Adobe Illustrator 21.1.0, SVG Export Plug-In . SVG Version: 6.00 Build 0)  -->
<svg version="1.1" id="Layer_1" xmlns="http://www.w3.org/2000/svg" xmlns:xlink="http://www.w3.org/1999/xlink" x="0px" y="0px"
	 viewBox="0 0 189 512" style="enable-background:new 0 0 189 512;" xml:space="preserve">
<path d="M189,472.7l-8.2-3.3l0.3-11.9l-21.1-5.2c-0.4-0.7-0.8-1.5-1.4-2.4c-5.3-9.8-8.5-22.9-8.5-22.9s2.4,2.2,1.7-6.1
	c-0.7-8.2-2.7-17.5-2.9-22.4c-0.3-4.9,0.7-11.1,0.7-11.1s4-1.9,2.9-6.3c-1-4.4-2-15.2-2-15.2s2.3,0.7,1.6-5.7
	c-0.7-6.3-6.1-72.4-6.1-72.4s4,0.9,6,2.4c2,1.5,10.6,1.5,14.7-5.7c4.1-7.1,5.7-12.8,6-16.4c0.3-3.6,3.8-9.2,3.6-12.8
	c-0.3-3.6,0.8-11.3-1.4-14c-2.3-2.7-2-6.2-2.7-8.9c-0.7-2.7-0.4-3.2-1.5-4.6c-0.9-1.4-2.5-3.6-2.5-3.6l6.4-14.6l-6.1-10l-6.1-1.2
	l-5.8,11.7c0,0-2.1-1.2-3.2-2c-1.2-0.8-8.4-14-10.5-18.2c-2.1-4.2-4.8-7.5-7.2-10.2c-2.4-2.7-3.3-3.4-5.7-4.4
	c-2.4-1.1,0.7-2-3.6-3.9c-4.2-1.9-8-4.9-9.3-8.2c-0.7-1.7-0.9-2.3-1-2.5c0.3,0.1,2.1,0.5,2.6-1.4c0.5-2-2-5.9-2-5.9s1.6-5,0.8-7.5
	c-0.7-2.6-2.8-3.9-2.8-3.9l-0.8-4c0,0,0.8,1.6,2.1-0.3c1.3-1.9,0.9-3.2-0.1-7.1c-0.2-0.8-0.6-1.8-1.1-3l22.7-5.5l-25.4,0.7
	c-0.8-1.3-1.9-2.6-2.9-3.8l16.7-12.6l-20.7,8.9c-0.7-0.5-1.5-1-2.2-1.4c-1-0.6-2.3-1.2-3.7-1.7l3.7-19.3l-9,17.6
	c-2.1-0.5-4.3-0.8-6.5-0.8L71.5,87.6l10,22.4c-2.3,0.5-4.4,1.5-6.2,2.9l-13.4-6.3l-11.6-5.4l11.6,7.8l10.7,7.1
	c-1.2,1.8-1.9,3.5-2.2,4.9l-8.4,1.1l-10.3,1.4c0-0.2,0-0.3-0.1-0.5c-0.3-3.8-4.4-17.1-9.2-27.2c-4.8-10.1-3.6-8.8-5.8-16
	c-2.3-7.3-2-9.3-3.6-14c-1.6-4.7-3.3-8.6-5.6-11.3c-2.3-2.7-2.8-2.8-2.8-2.8l0.5-5.4c0,0,2-0.9,2.1-1.9c0.1-0.9-1.2-2.2-1.2-2.2
	s8.5-1.6,8.5-3c0-1.4,2.7-2.3,1.6-4.5c-1.1-2.2-2.7-3.5-1.9-5.1c0.8-1.6,2.5-3.1,2.5-3.1l-2.5-0.3l0.7-1.9l-3.7,0.5l-0.5-2l-5.5,0.9
	c0-0.8-0.2-1.6-0.4-2.4c-0.2-1.1-0.4-2,0.2-2.3c1-0.4,1.5-1.6,2.6-3.9c1.2-2.4,7.3-7.1,7.7-9.2c0.2-2.1,1-3.8,0.2-4.9
	c-0.7-1.1-2.6,0.9-4.9,2.3c-2.3,1.5-3.3,1.2-5.5,2.4c-2.1,1.2,0.2-4.6-2.1-5.6c-2.2-1-4.5,1.7-6.5,4c-2.1,2.3-3.6,0.6-6.2,4
	c-2.3,3.5,0,8.3,2.1,10.9c0.9,1.5,1.3,2.4,1.4,3.3l-2.5-1l-2.1,2.6l-4.1-0.5l-0.7,1.8l-2.8-0.3l0.7,1.9L0,26.6c0,0,3.1,1.5,3.3,3.5
	c-0.5,0.9-0.8,3.8-1.7,4.4c-0.7,0.7-1,1.6,0,2.5c1.1,0.9,2,2.6,4.1,3.3c0.7,0.2,1.7,0.5,2.5,0.8c-1.3,0.9,0.2,2.5,2.7,3.7
	c0.5,0.9,1.1,2.4,1.1,2.4v2.4c0,0-2.1-0.3-2.4,1.5c-0.3,1.8,1.5,3.4,1.5,3.4s-1.2,0.1-1.2,2s1.9,3,1.9,3s-2.3,0.8-1.1,3.1
	c1.3,2.3,2.8,2.7,2.8,2.7s1.2,5.5,0.4,7.2c-0.7,1.7-0.6,3.3-0.6,3.3s-1.5,0.7-0.7,2.2c0.7,1.5,1.9,1.5,2,4.2
	c0.1,2.8,0.7,2.9,0.7,2.9s2,4.2,3.6,4.2s3.1-1.8,3.1-2.7c0-0.9,0.7,5.9,1.6,10.2c0.7,4.3,3.3,18.9,6.5,26.5
	c3.2,7.6,4.5,11.9,5.7,15.8c1.1,3.8,2.1,7.3,1,9.5c-1.1,2.2-5,11.3-5.2,18.2c-0.2,6.9-1.3,11.6,2.4,11.3c3.7-0.2,4.2,1.6,5.2,1
	c1-0.6-0.1,4.3,2.3,6.7c2.4,2.4,3,0.8,4.1,8c1.1,7.2,0.6,7.7,2.8,13c2.2,5.3,2.9,6.7,2.9,6.7s-7.6,9.1-10.6,21.1
	c-3,12-2.5,22.8-0.7,25.6c1.8,2.8,3.4,4.9,3.4,4.9s-2.6,10.3-2.1,18.7c0.4,8.4,0.9,14,2,18c1,4,2,6.6,2,6.6s0.3,3.6,1.2,6.3
	c0.8,2.7,1.2,5.9,1.2,5.9s0,18.5,1.3,24.8c1.3,6.3,1.6,9.6,2.4,13.9c0.8,4.3,2.7,9.7,4.5,15.4c1.9,5.7,4.4,12.1,4.4,12.1
	s0.3,3.2-0.3,11.2c-0.5,8-2.5,31.4-6.5,37.1c-4,5.7-11,9.4-16,13.3c-0.4,0.4-0.8,0.7-1.2,1.1l-22,1.9v12.7l-7.9,5.3l4.4,6.9V512
	h173.2l-0.1-31.8L189,472.7z M55.2,128c-1.3-0.1-2.8-1-3.3-3.9l10.2,0.4l8.2,0.3c0.4,2.7,2,4,2,4v0.4L62,132.3l-2.9,0.9
	C57.4,130.8,56.4,128.1,55.2,128z M75.8,150.1c-1.1,1.8-2,4.4-2,4.4s-5.4-2.4-7.2-4c-1.9-1.6-2-1.5-2.8-3.8
	c-0.8-2.3-0.3-3.7-1.6-5.7c-0.1-0.2-0.2-0.3-0.3-0.5c-1-2-0.8-4.3-2.5-6.7l2.5-0.2l10.5-0.7c0.2,2.4,0.4,5.1,0.7,6.5
	c0.6,2.8,1,4.3,2.3,4.4c1.3,0.2,2.4-0.9,2.4-0.9l0.3,2.3C78.1,145.2,76.8,148.2,75.8,150.1z"/>
</svg>
