<?xml version="1.0" encoding="utf-8"?>
<!-- Generator: Adobe Illustrator 21.1.0, SVG Export Plug-In . SVG Version: 6.00 Build 0)  -->
<svg version="1.1" id="Layer_4" xmlns="http://www.w3.org/2000/svg" xmlns:xlink="http://www.w3.org/1999/xlink" x="0px" y="0px"
	 viewBox="0 0 489.1 512" style="enable-background:new 0 0 489.1 512;" xml:space="preserve">
<g>
	<path d="M402.2,285.6c-16.9,0-32.6,4.8-45.9,13c-15.7-6.2-31.2-9.3-46.3-9.3c-59.9,0-86,42.1-134.8,88.5
		c-41.9,39.9-55,74.5-91.6,72.5c-25.5-1.4-21.8-18-12.9-45.9l0.5-1.5l0.3-1c7.7-28.6,36.7-97.5,60.6-129.2
		c26.7-4.3,49.3-17.2,74.7-35.1c9.2-6.5,34.9-28,49.4-40.2c10.9-9.2,13.4-24.9,6.6-36.9c52.6-40.8,115.5-89.9,126.7-113.7
		c2.2-4.6,8.8-15.5,4-23.3c-6.5-10.3-19.2-11-34.4-11.1c-2.1-4.3-6.5-7.3-11.6-7.3h-16.5c-2.3-2.1-5.1-3.4-8.2-3.4
		c-7.4,0-13.4,7.2-13.4,16c0,8.8,6,16,13.4,16c2.9,0,5.5-1.1,7.7-3v0h17c6.1,0,11.2-4.3,12.5-10c8.7,0,23,1.1,25.5,6.6
		c1.9,3.7,0,9.8-5.6,18.3c-17.5,28.7-71.1,68.8-122.4,108c-10.6-10-27.3-10.9-38.9-1.4c-18.3,15-40,32.7-46.4,37.3
		c-7.1,5.1-26.8,19.1-43.9,23.9c0.5-2.2,1.1-4.9,1.9-8.1c0.9-2.7,5.1-14.3,12.7-34.6c2.9-7.8,2.4-16.5-1.5-23.9
		c-2.8-5.3-7.2-9.6-12.5-12.4c11.7-36,26.5-75.9,42.6-93.9c9.2-11,22-16.8,32.2-18.8c11.6-2.3,24.1-6.4,32.6-5.7
		c0.6,6.5,6.1,11.6,12.8,11.6h16.5c2.3,2.1,5.1,3.4,8.2,3.4c7.4,0,13.4-7.2,13.4-16s-6-16-13.4-16c-2.9,0-5.5,1.1-7.7,3v0h-17
		c-4.5,0-8.4,2.3-10.7,5.8c-7.9-0.8-18.4,2.2-34.2,5.1c-15.8,2.9-29,10.1-39.6,21.6c-16.8,23.5-32.4,54.5-45.8,96.9
		c-13.4-1.8-26.5,5.8-31.4,18.8c-9.5,25.4-15.1,42.1-16.7,49.4c-4.1,19.3-3.2,35.5,2.7,48.1c-36.1,53.1-53,105.5-63.3,140.9
		c-12.9,41.6-11.5,72.5,4.3,94.5c13.8,19.3,36.2,28.9,68.4,29.6c0.9,0,1.7,0,2.5,0c59,0,83.9-38.2,127.9-85.5
		c37.5-40.4,57.5-74.9,99.6-74.9c1.3,0,2.7,0.1,4.1,0.3c-1.6,6.6-2.4,13.4-2.4,20.5c0,48.2,39.1,87.3,87.3,87.3
		c48.2,0,87.3-39.1,87.3-87.3S450.4,285.6,402.2,285.6z M281.8,6.1c2.1,0,3.7,4.1,3.7,9.2c0,5.1-1.7,9.2-3.7,9.2s-3.8-4.1-3.8-9.2
		C278,10.2,279.7,6.1,281.8,6.1z M402.2,421.1c-26.6,0-48.2-21.6-48.2-48.2s21.6-48.2,48.2-48.2s48.2,21.6,48.2,48.2
		S428.8,421.1,402.2,421.1z"/>
	<path d="M402.2,342.1c-16.8,0-30.4,13.6-30.4,30.4c0,16.8,13.6,30.4,30.4,30.4c16.8,0,30.4-13.6,30.4-30.4
		C432.6,355.7,419,342.1,402.2,342.1z M402.2,386.6c-7.8,0-14.1-6.3-14.1-14.1c0-7.8,6.3-14.1,14.1-14.1c7.8,0,14.1,6.3,14.1,14.1
		C416.3,380.3,410,386.6,402.2,386.6z"/>
</g>
</svg>
