<?xml version="1.0" encoding="utf-8"?>
<!-- Generator: Adobe Illustrator 21.1.0, SVG Export Plug-In . SVG Version: 6.00 Build 0)  -->
<svg version="1.1" id="Layer_1" xmlns="http://www.w3.org/2000/svg" xmlns:xlink="http://www.w3.org/1999/xlink" x="0px" y="0px"
	 viewBox="0 0 512 512" style="enable-background:new 0 0 512 512;" xml:space="preserve">
<g id="fill_1_">
	<path d="M64.2,171.8l17.4,68.4L112,360.5L10,336.8c-1.1-0.2-2.1-0.6-3-1.1c-5.1-2.7-8-8.5-6.7-14.5L72.5,10
		c1.6-7,8.6-11.3,15.5-9.7l311.7,72.2c0.5,0.1,1,0.3,1.5,0.4L201,123.8L73.6,156.1C66.6,157.9,62.4,164.9,64.2,171.8z"/>
	<path d="M510.8,416.1l-78.5-309.7c-1.8-6.9-8.8-11.1-15.8-9.4l-310.1,78.6c-6.9,1.8-11.1,8.8-9.4,15.8l78.6,309.7
		c1.8,6.9,8.8,11.1,15.7,9.4l310.1-78.6C508.4,430.1,512.6,423,510.8,416.1z M268.7,218.2c-10.9,0-19.7-8.8-19.7-19.7
		c0-10.9,8.8-19.7,19.7-19.7c10.9,0,19.7,8.8,19.7,19.7C288.4,209.4,279.6,218.2,268.7,218.2z"/>
</g>
</svg>
