<?xml version="1.0" encoding="utf-8"?>
<!-- Generator: Adobe Illustrator 21.1.0, SVG Export Plug-In . SVG Version: 6.00 Build 0)  -->
<svg version="1.1" id="Shape_1_1_" xmlns="http://www.w3.org/2000/svg" xmlns:xlink="http://www.w3.org/1999/xlink" x="0px" y="0px"
	 viewBox="0 0 512 512" style="enable-background:new 0 0 512 512;" xml:space="preserve">
<g>
	<path d="M256,0C114.6,0,0,114.6,0,256s114.6,256,256,256s256-114.6,256-256S397.3,0,256,0z M364.7,345.4c0,4.7-1.7,8.9-5.2,12.3
		c-3.5,3.5-7.6,5.2-12.3,5.2c0,0-81.3,0-178.3,0c-4.7,0-8.9-1.7-12.3-5.2c-3.5-3.5-5.2-7.6-5.2-12.3c-0.1-97-0.1-78.7-0.1-175.8
		c0-4.7,1.7-8.8,5.2-12.3c3.5-3.5,7.6-5.2,12.3-5.2c97.1,0,178.3,0,178.3,0c4.7,0,8.9,1.7,12.3,5.2c3.5,3.6,5.3,7.6,5.3,12.3V345.4z
		"/>
</g>
</svg>
