<?xml version="1.0" encoding="utf-8"?>
<!-- Generator: Adobe Illustrator 21.1.0, SVG Export Plug-In . SVG Version: 6.00 Build 0)  -->
<svg version="1.1" id="Layer_1" xmlns="http://www.w3.org/2000/svg" xmlns:xlink="http://www.w3.org/1999/xlink" x="0px" y="0px"
	 viewBox="0 0 512 512" style="enable-background:new 0 0 512 512;" xml:space="preserve">
<path d="M512,21.2v469.5c0,5.7-2.1,10.7-6.3,14.9c-4.2,4.2-9.2,6.3-14.9,6.3c0,0-352.2,0-469.5,0c-5.7,0-10.7-2.1-14.9-6.3
	c-4.2-4.2-6.3-9.2-6.3-14.9C0,373.4,0,138.6,0,21.2c0-5.7,2.1-10.7,6.3-14.9C10.5,2.1,15.5,0,21.2,0c117.4,0,469.5,0,469.5,0
	c5.7,0,10.7,2.1,14.9,6.3C509.9,10.6,512,15.5,512,21.2z"/>
</svg>
