<?xml version="1.0" encoding="utf-8"?>
<!-- Generator: Adobe Illustrator 22.0.1, SVG Export Plug-In . SVG Version: 6.00 Build 0)  -->
<svg version="1.1" id="Layer_1" xmlns="http://www.w3.org/2000/svg" xmlns:xlink="http://www.w3.org/1999/xlink" x="0px" y="0px"
	 viewBox="0 0 482 512" style="enable-background:new 0 0 482 512;" xml:space="preserve">
<path d="M117.2,64.1c13.9-21,34.2-36.9,60.7-47.8C204.3,5.4,235,0,269.9,0c20.5,0,40,1.2,58.4,3.5c18.6,2.3,39.8,6.4,63.7,12.3
	v106.4h-47.1c-4.4-19.3-9.9-34.6-16.7-46c-6.8-11.4-15.2-19.7-25.3-25.1c-10.1-5.4-22.8-8.1-38.2-8.1c-13.1,0-24.8,2.4-35.1,7.3
	c-10.3,4.9-18.4,12.2-24.4,21.8c-5.9,9.7-8.9,21.3-8.9,35c0,14.1,2.5,26.4,7.7,36.8s13.8,20.5,26,30.4c12.2,9.9,29.8,21.2,53,33.9
	c1.4,0.7,2.8,1.5,4.2,2.3H114.3c-3.8-6.5-7-13.2-9.7-20.3c-5.6-14.7-8.4-31.2-8.4-49.5C96.2,110.7,103.2,85.1,117.2,64.1z
	 M377.2,443.3c-13.1,22.2-32.1,39.2-57.1,51c-25,11.9-53.9,17.8-86.7,17.8c-23.4,0-47.8-1.4-73.1-4.2c-25.4-2.8-49.1-6.9-71.4-12.3
	V382.7h47.2c5.7,29,15.3,50.8,28.7,65c13.4,14.2,33.1,21.4,59,21.4c13.5,0,25.7-2.4,36.5-7.3c10.8-4.8,19.5-12.7,26-23.6
	c6.5-10.9,9.8-24.5,9.8-40.9c0-15.1-2.6-28.3-7.9-39.4s-13.8-21.7-25.5-31.7c-8.2-7.1-18.7-14.4-31.4-22h154.5
	c7.4,17.5,11.1,37.8,11,60.9C396.8,395.1,390.3,421.2,377.2,443.3z M482,287.6H0v-61.1h482V287.6z"/>
</svg>
