<?xml version="1.0" encoding="utf-8"?>
<!-- Generator: Adobe Illustrator 21.1.0, SVG Export Plug-In . SVG Version: 6.00 Build 0)  -->
<svg version="1.1" id="Layer_1" xmlns="http://www.w3.org/2000/svg" xmlns:xlink="http://www.w3.org/1999/xlink" x="0px" y="0px"
	 viewBox="0 0 660 512" style="enable-background:new 0 0 660 512;" xml:space="preserve">
<path d="M638.5,512H21.5C9.6,512,0,502.4,0,490.5V22.2C0,10.3,9.6,0.8,21.5,0.8h616.9c11.9,0,21.5,9.6,21.5,21.5v468.3
	C660,502.4,650.4,512,638.5,512z M134.2,286.5c0-10.9-3.1-19.4-9.4-25.5c-6.3-6.1-16-11.4-29.2-15.9c-6.8-2.5-11.8-4.8-14.9-6.8
	c-3-2.1-4.6-4.4-4.6-6.9c0-4.8,3.6-7.2,11-7.2c11.1,0,23,3.1,35.7,9.3l5-31.6c-12.8-6-27-8.9-42.8-8.9c-14.9,0-26.6,3.5-35.4,10.6
	c-9.5,7.3-14.1,17.5-14.1,30.5c0,10.8,3.1,19.1,9.4,25.2s15.9,11.4,28.8,15.9c7.5,2.5,12.8,4.9,15.7,7.1c3,2.2,4.4,4.7,4.4,7.7
	c0,6-4.6,8.9-13.8,8.9c-5.7,0-12.4-1.2-20.4-3.6c-7.9-2.4-14.8-5.3-20.7-8.8l-5.3,31.9c13.9,7.6,30.2,11.3,48.8,11.3
	c15.5,0,28-3.5,37.2-10.3C129.4,311.8,134.2,300.9,134.2,286.5z M219.6,226.9l5.6-31.1h-27.8v-37.6l-36.9,5.8l-5.2,31.8l-13,2.4
	l-4.9,28.8H155v61.4c0,15.6,4.1,26.8,12.3,33.6c7.3,5.5,18,8.2,32.1,8.2c6.1,0,13.6-1,22.6-3v-33c-6.1,1.3-10.2,2.1-12.3,2.1
	c-8.2,0-12.3-4.7-12.3-14.1v-55.2H219.6z M310.4,233.2v-39c-2.9-0.5-5.6-0.7-8.1-0.7c-6.2,0-11.4,1.5-15.9,4.5
	c-4.5,2.9-7.8,7.2-9.9,12.7l-2.9-15.8h-37.9v132.1h44.2v-85.7c4.9-5.7,12.6-8.6,23.3-8.6C306.1,232.9,308.5,233,310.4,233.2z
	 M359.2,176.2c4.5-4.4,6.8-9.6,6.8-15.7s-2.3-11.4-6.8-15.7c-4.5-4.4-9.9-6.6-16.2-6.6s-11.7,2.2-16.1,6.6
	c-4.4,4.4-6.5,9.6-6.5,15.7s2.2,11.4,6.5,15.7c4.4,4.4,9.7,6.6,16.1,6.6S354.8,180.5,359.2,176.2z M321.5,327.1h43.3V194.9h-43.3
	V327.1z M501.4,257.3c0-22.8-4.4-39.5-13.2-50c-7.8-9.8-18.6-14.7-32.3-14.7c-12.3,0-23.6,5.2-33.7,15.7l-2.5-13.4h-38v180.6
	l43.3-7.2v-42.1c6.8,2,13.4,3,19.9,3c15.8,0,28.7-5.2,38.7-15.7C495.5,301.4,501.4,282.6,501.4,257.3z M457.9,259.1
	c0,12.8-2,22.6-6,29.5c-3.8,6.6-8.7,9.9-14.9,9.9c-4.5,0-8.5-0.9-12-2.7v-62.4c5.7-5.7,11.2-8.6,16.6-8.6
	C452.5,224.8,457.9,236.3,457.9,259.1z M625.3,260.5c0-21-4.7-37.5-14.1-49.3c-9.5-11.9-23.2-17.8-41.4-17.8
	c-18.3,0-33,6.1-43.7,18.5S510,241,510,262.2c0,23.7,6,41.2,18.1,52.4c10.6,10.3,26.2,15.4,46.7,15.4c19.4,0,34.6-3.6,46-10.9
	l-4.6-29.1c-10.9,6-23.2,8.9-36.8,8.9c-8.2,0-14.4-1.9-18.3-5.5c-4.2-3.5-6.8-9.6-7.8-18.5h71.5C625,272.4,625.3,267.6,625.3,260.5z
	 M584.5,248.8h-31.9c1.2-18.3,6.5-27.4,15.9-27.4C578.5,221.4,583.8,230.5,584.5,248.8z"/>
</svg>
