<?xml version="1.0" encoding="utf-8"?>
<!-- Generator: Adobe Illustrator 21.1.0, SVG Export Plug-In . SVG Version: 6.00 Build 0)  -->
<svg version="1.1" id="Layer_1" xmlns="http://www.w3.org/2000/svg" xmlns:xlink="http://www.w3.org/1999/xlink" x="0px" y="0px"
	 viewBox="0 0 464 512" style="enable-background:new 0 0 464 512;" xml:space="preserve">
<path d="M329.6,310.4c1.4,0.1,2.6,0.1,3.5,0.2h1c12.6,0,6.2-21,4.9-56.8s3-86.9,3-122.6c0-19.5-4-33.9-11-44.4l6.6-3.8l27-15.4
	c0.7-0.3,1-1.3,1-3c0-1.3-0.3-2.2-1-2.5L221.5,2.7c-0.7-0.7-1.7-1-3-1c-1,0-2,0.3-3,1L72.9,62.3c-0.7,0.4-1,1.2-1,2.5
	c0,1.7,0.3,2.7,1,3l11,5.9l-1,9.4c-1.7,0.4-3.2,1.2-4.5,2.5c-1,1.7-1.5,3.3-1.5,5c0,1.7,0.5,3.3,1.5,5c0.7,1,1.8,1.8,3.5,2.5
	l-6,86.8v0.5l2.5,20.8l1.5-8.9l4.5,12.9l8.5-25.3l-6-86.8c1.3-0.7,2.5-1.5,3.5-2.5c1-1.7,1.5-3.3,1.5-5c0-1.7-0.5-3.3-1.5-5
	c-1.3-1.3-2.8-2.2-4.5-2.5l-1-8.4l15,8.4l0.5,0.5l12,6.9l-3.5,40.2l8,3c0.2,27.5,3.3,81.7,2,121.3c-1.1,33.9-8.1,55.8,3,55.8
	c1.9,0,5.8,0,11.5-0.1C54.7,333.4,0,381.8,0,433.3c0,71,103.7,78.2,231,78.3h1c64-0.1,121.9-1.9,163.9-12.7
	c42-10.7,68.1-30.3,68.1-65.8C463.9,381.6,408.8,333.1,329.6,310.4z M231.9,339.2c-31.1,0-58.7-15.8-76.3-40.3l19.3-18.6
	c12.8,18.9,33.6,31.2,57,31.2c23.4,0,44.2-12.3,57-31.2l19.3,18.6C290.6,323.4,262.9,339.2,231.9,339.2z M317.2,174.5
	c-1.9,8.7-5.8,16.2-9,16.2c-1.5,0-3.2-0.2-4.6-1.3c-9.2,45.2-40.6,87.7-78,87.7c-37.1,0-68.3-41.6-77.7-86.4h-1
	c-3.3,0-6.8-7.7-8.9-16.4c-2.2-8.3-5.1-26.5,6-30.6c0,0,64.3,24,66.5,24.7c3.3,1,6,1.5,8,1.5c2.3,0,5.2-0.5,8.5-1.5
	c2.3-0.7,78-27.9,78-27.9c0.2,1.5,0.4,3.1,0.5,4.8c0.1-0.1,0.2-0.1,0.2-0.1c1.2-1.1,2.4-2,3.9-1.7
	C322.1,145.8,318.9,166.7,317.2,174.5z"/>
</svg>
