<?xml version="1.0" encoding="utf-8"?>
<!-- Generator: Adobe Illustrator 21.1.0, SVG Export Plug-In . SVG Version: 6.00 Build 0)  -->
<svg version="1.1" id="Layer_1" focusable="false" xmlns="http://www.w3.org/2000/svg" xmlns:xlink="http://www.w3.org/1999/xlink"
	 x="0px" y="0px" viewBox="0 0 512 512" style="enable-background:new 0 0 512 512;" xml:space="preserve">
<g>
	<path d="M512,420.8v67.1H312.1c0,0-3.7-23-3.7-38.7c0-19.5,4.4-37.7,13.1-54.6c17.5-34,48.1-53.4,62.9-62.7
		c1-0.7,26.8-18.8,36.9-28.1c11.1-10.2,17.8-29.9,4.6-42.3c-12.9-12.1-42.2-11.6-63.4,27.8l-51.8-38.1
		c28.1-58.4,76.6-66.3,101.8-66.3c45.5,0,98,27,98,91.8c0,50.5-45.8,83.2-61,92.1c-14.5,8.5-56.3,34.6-59.2,52L512,420.8L512,420.8z
		"/>
	<path d="M232.7,42.8l-77.4,80L77.8,42.9c-6.8-7-16-10.9-25.5-10.8l-16.8,0.1C4,32.4-11.6,70.8,10.4,93.5l86.9,89.2l-86.7,89.1
		c-22.1,22.6-6.4,61,24.9,61.3l16.7,0.2c9.7,0.1,18.9-3.8,25.6-10.8l77.4-79.9l77.4,79.9c6.8,7,16,10.9,25.6,10.8l16.7-0.2
		c31.3-0.3,47-38.7,24.9-61.3l-86.7-89.1l86.9-89.2c22.1-22.7,6.4-61.2-25-61.3l-16.8-0.1C248.5,32,239.4,35.9,232.7,42.8z"/>
</g>
</svg>
