<?xml version="1.0" encoding="utf-8"?>
<!-- Generator: Adobe Illustrator 21.1.0, SVG Export Plug-In . SVG Version: 6.00 Build 0)  -->
<svg version="1.1" id="Layer_1" xmlns="http://www.w3.org/2000/svg" xmlns:xlink="http://www.w3.org/1999/xlink" x="0px" y="0px"
	 viewBox="0 0 511.8 512" style="enable-background:new 0 0 511.8 512;" xml:space="preserve">
<g>
	<path d="M0,127v307c0,24.1,16.9,44.5,39.5,49.8c0,0.2,0,0.4,0.1,0.6c1,6.3,5.8,10.3,12.6,10.3h20.6c6.5,0,11.2-3.7,12.4-9.5
		c0,0,0,0,0-0.1V75.9H51.2C23,75.9,0,98.9,0,127z"/>
	<path d="M460.6,75.9h-36.7v409.3c0,0,0,0,0,0.1c1.3,5.8,5.9,9.5,12.5,9.5h20.6c6.8,0,11.6-4,12.6-10.3
		c23.9-4.3,42.2-25.3,42.2-50.4V127C511.7,98.9,488.7,75.9,460.6,75.9z"/>
	<path d="M359.3,75.9L319.9,19H191.8l-39.4,56.9h-15.2v409.4h234.6V75.9H359.3z M194.9,75.9L210.1,54h91.5l15.2,21.9H194.9z"/>
</g>
</svg>
