<?xml version="1.0" encoding="utf-8"?>
<!-- Generator: Adobe Illustrator 21.1.0, SVG Export Plug-In . SVG Version: 6.00 Build 0)  -->
<svg version="1.1" id="surprised" xmlns="http://www.w3.org/2000/svg" xmlns:xlink="http://www.w3.org/1999/xlink" x="0px" y="0px"
	 viewBox="0 0 512 512" style="enable-background:new 0 0 512 512;" xml:space="preserve">
<g>
	<g>
		<path d="M256,0C114.6,0,0,114.6,0,256s114.6,256,256,256s256-114.6,256-256S397.3,0,256,0z M179.2,237.4
			c-16.7,0-30.2-16.7-30.2-37.2s13.6-37.2,30.2-37.2s30.2,16.7,30.2,37.2S195.9,237.4,179.2,237.4z M255.5,420
			c-31.2,0-56.5-27.5-56.5-61.5s3.5-61.5,56.5-61.5s56.5,27.5,56.5,61.5S286.7,420,255.5,420z M332.8,237.4
			c-16.7,0-30.2-16.7-30.2-37.2s13.6-37.2,30.2-37.2c16.7,0,30.2,16.7,30.2,37.2S349.5,237.4,332.8,237.4z"/>
	</g>
</g>
</svg>
