<?xml version="1.0" encoding="utf-8"?>
<!-- Generator: Adobe Illustrator 21.1.0, SVG Export Plug-In . SVG Version: 6.00 Build 0)  -->
<svg version="1.1" id="Layer_4" xmlns="http://www.w3.org/2000/svg" xmlns:xlink="http://www.w3.org/1999/xlink" x="0px" y="0px"
	 viewBox="0 0 465.4 512" style="enable-background:new 0 0 465.4 512;" xml:space="preserve">
<style type="text/css">
	.st0{fill-rule:evenodd;clip-rule:evenodd;}
</style>
<path class="st0" d="M462.7,113.1c-57.4,0-104-46.5-104.7-104c0,0-49.2-9.1-125.4-9.1S107.3,9.1,107.3,9.1
	c-0.7,57.5-47.3,104-104.6,104c-0.9,0-1.8-0.1-2.7-0.1c4,38.2,10.4,98.7,18.2,178.1C32.3,433.9,231.4,512,231.4,512h2.6
	c0,0,199.1-78.1,213.3-220.9c7.8-79.4,14.2-139.9,18.2-178.1C464.5,113,463.6,113.1,462.7,113.1z M331.8,204.1L217.8,354.5
	c-1.6,1.6-3.1,3.3-5.2,4.4c-11.2,6.2-25.6,2.2-32.2-9l-50.5-71c-6.6-11.3-2.8-25.5,8.3-31.7c11.2-6.2,25.6-2.2,32.2,9l36.7,47.3
	l94.3-133.8c0.7-0.8,6.3-9.7,19.3-9.7c14.1,0,22.5,11.2,22.6,22.6C343.5,190.4,332.4,203.5,331.8,204.1z"/>
</svg>
