<?xml version="1.0" encoding="utf-8"?>
<!-- Generator: Adobe Illustrator 22.0.1, SVG Export Plug-In . SVG Version: 6.00 Build 0)  -->
<svg version="1.1" id="Layer_3" xmlns="http://www.w3.org/2000/svg" xmlns:xlink="http://www.w3.org/1999/xlink" x="0px" y="0px"
	 viewBox="0 0 512 512" style="enable-background:new 0 0 512 512;" xml:space="preserve">
<g>
	<path d="M392.5,291.7c-73.4-1.3-175.6,52.4-253.8,50C50.4,339.1,0,295,0,295s50.4,96.8,125.9,96.8c170,0,169.2-48.1,292.3-50.1
		c69.7-1.1,93.8,43.4,93.8,43.4S482.9,293.3,392.5,291.7z"/>
	<path d="M347.7,423.3c-65-1.1-155.5,46.4-224.8,44.3C44.7,465.3,0,426.3,0,426.3S44.7,512,111.5,512c150.6,0,149.9-42.6,259-44.3
		c61.7-1,83.1,38.4,83.1,38.4S427.8,424.7,347.7,423.3z"/>
	<path d="M150.9,306c-1.8,0-3.5,0-5.3-0.1c-29.4-0.9-57.8-6.5-84.2-16.8l-48-18.6l190.8-117.4L190,117.8L93,169
		c-11.5,6.3-24.8,7.6-37.4,3.8C42.7,169,32.2,160.3,26,148.3c-5.9-11.5-7.1-24.6-3.5-37c3.7-12.6,12.1-23,23.6-29.3l0.4-0.2
		L190.3,5.9c11.5-6.3,24.8-7.6,37.4-3.8c12.8,3.8,23.2,12.5,29.4,24.3c5,8.8,76.6,125.5,120.8,197.5l21.9,35.7l-42.3,3.1
		c-25.6,1.9-55.9,10.6-87.9,19.9C229.9,294.1,188.8,306,150.9,306z M257.2,26.6c0,0.1,0.1,0.1,0.1,0.2
		C257.2,26.7,257.2,26.6,257.2,26.6z"/>
	<path d="M435,185.5c42.6,0,77-36.2,77-80.7c0-44.6-34.5-80.7-77-80.7c-42.6,0-77,36.2-77,80.7C357.9,149.4,392.4,185.5,435,185.5z"
		/>
</g>
</svg>
