<?xml version="1.0" encoding="utf-8"?>
<!-- Generator: Adobe Illustrator 21.1.0, SVG Export Plug-In . SVG Version: 6.00 Build 0)  -->
<svg version="1.1" id="Layer_2" xmlns="http://www.w3.org/2000/svg" xmlns:xlink="http://www.w3.org/1999/xlink" x="0px" y="0px"
	 viewBox="0 0 558.1 512" style="enable-background:new 0 0 558.1 512;" xml:space="preserve">
<g id="_x37_2">
	<path d="M129.6,368.2l-50,58.2c-20.6-10.7-37.5-23.1-50.5-36.8c-19-20-29.1-43-29.1-66.4c0-23.8,10.4-47.1,30-67.4
		c12.2-12.6,27.8-24.1,46.4-34.1l40.2,45.7c-28.5,14.1-45.1,31.1-45.1,46.8C71.5,331.6,94.9,353.2,129.6,368.2z"/>
	<path d="M417.6,450.4c-41.9,12.1-89.5,18.5-138.6,18.5c-54.4,0-107-7.8-152-22.7h-0.1l54.6-63.5c29.6,6.4,62.3,9.8,95.9,9.8
		c28,0,60.9-3.2,86.7-7.8L417.6,450.4z"/>
	<path d="M465.1,213.4l-9.9-4.5v-102c0-15.2,12.4-27.9,27.6-27.7c14.7,0.3,26.5,12.3,26.5,27v18.5c0,7.8,6.4,14.2,14.2,14.2
		c3.9,0,7.5-1.6,10-4.2c2.6-2.6,4.2-6.1,4.2-10v-18.5c0-30.9-25.3-55.9-56.4-55.4c-30.4,0.5-54.5,26-54.5,56.4v23.9l-82.3-7.9v-22.2
		c0-16.6,13-30.5,29.5-31c6.4-0.2,12.4,1.7,17.4,4.9c3.5,2.3,7.7,2.9,11.7,1.8c12.2-3.3,14.8-19.6,4.1-26.4c-9.2-6-20.2-9.5-32-9.6
		c-33-0.2-60.1,27.5-60.1,60.6v77.7c-10.8-0.7-25.1-1.4-36.1-1.4c-54.2,0-106.6,7.8-151.5,22.5l-4,1.3l42.2,48.1
		c33.5-8.8,71.8-13.5,111.6-13.5c10.9,0,21.9,0.4,32.5,1.1l5.3,0.5v55.1c0,4.1,1.7,7.7,4.3,10.4c2.7,2.7,6.3,4.3,10.4,4.3
		c8.1,0,14.7-6.6,14.7-14.7v-33.7l82.3,7.9v40.4c0,7.8,6.4,14.2,14.2,14.2c3.9,0,7.5-1.6,10-4.2c2.6-2.6,4.2-6.1,4.2-10v-30.1
		c18.1,12,28,24.9,28,37c0,18.7-24.6,39.8-64.1,55l-3.6,1.4l50.9,62.5c24.1-11.7,48.3-28.3,62.7-43.5c19-20,29-43,29-66.3
		C558.1,279.8,525.1,240.8,465.1,213.4z M426.8,238.3l-82.3-7.9v-22.3l82.3,7.9V238.3z M426.8,187.6l-82.3-7.9v-28.1l82.3,7.9V187.6
		z"/>
</g>
</svg>
