<?xml version="1.0" encoding="utf-8"?>
<!-- Generator: Adobe Illustrator 21.1.0, SVG Export Plug-In . SVG Version: 6.00 Build 0)  -->
<svg version="1.1" id="Layer_4" xmlns="http://www.w3.org/2000/svg" xmlns:xlink="http://www.w3.org/1999/xlink" x="0px" y="0px"
	 viewBox="0 0 512 512" style="enable-background:new 0 0 512 512;" xml:space="preserve">
<g>
	<path d="M471.2,2.2c-32.6,2.3-63.3,16.5-86.3,40L111,321.4l-6.8-6.9c-13.5-13.7-35.3-13.6-48.7,0.2l42.4,43.1l13.5,13.8l-76,77.4
		c-9.3-1.3-19.1,1.5-26.3,8.9C-3,470.3-3,490.3,9.2,502.7c12.2,12.4,31.9,12.4,44,0c7.2-7.3,10-17.3,8.7-26.8l76-77.3l13.5,13.8
		l43.2,44l0.8-0.9c12.8-13.7,12.5-35.3-0.7-48.7l-7.6-7.7l274.3-279.7c23-23.4,36.9-54.5,39.2-87.6L502.8,0L471.2,2.2z"/>
	<path d="M127.1,42.2l113,115.1l-76.9,76.9L50.5,119.4c-23-23.4-37-54.5-39.2-87.6L9.2,0l31.6,2.2C73.4,4.5,104.1,18.7,127.1,42.2z"
		/>
	<path d="M502.9,502.7c-12.2,12.4-31.9,12.4-44,0c-7.2-7.3-10-17.3-8.7-26.8l-76-77.3l-13.5,13.8l-43.2,44l-0.8-0.9
		c-12.8-13.7-12.5-35.3,0.7-48.7l7.6-7.7l-51.3-52.3l76.9-76.9l50.6,51.5l6.8-6.9c13.5-13.7,35.3-13.6,48.7,0.2l-42.4,43.1
		l-13.5,13.8l76,77.3c9.3-1.3,19.1,1.5,26.3,8.9C515,470.3,515,490.3,502.9,502.7z"/>
</g>
</svg>
