<?xml version="1.0" encoding="utf-8"?>
<!-- Generator: Adobe Illustrator 21.1.0, SVG Export Plug-In . SVG Version: 6.00 Build 0)  -->
<svg version="1.1" id="Layer_1" xmlns="http://www.w3.org/2000/svg" xmlns:xlink="http://www.w3.org/1999/xlink" x="0px" y="0px"
	 viewBox="0 0 521.2 512" style="enable-background:new 0 0 521.2 512;" xml:space="preserve">
<g>
	<path d="M469.9,151.3c-6.9,6.4-13.2,11.8-18.5,16c-3.8,2.9-9.8,6.7-16.1,10.2c-0.2,0.1-0.3,0.2-0.5,0.3
		c23.9,55.9,21.1,120.5-8.5,174.3c7.8,7.9,15.4,15.7,22.8,23.5c2.8,2.7,5.6,5.4,8.4,8.1c2.4-3.8,4.6-7.7,6.8-11.7
		c18.8-34.4,29.4-73.9,29.4-115.8C493.8,218.7,485.2,183.1,469.9,151.3z M355.5,37.5c-0.7-0.3-1.4-0.7-2.2-1
		c-3.7-1.7-7.4-3.3-11.1-4.8c-0.6-0.2-1.1-0.5-1.7-0.7c-0.6-0.3-1.3-0.5-1.9-0.8c-1-0.4-2.1-0.8-3.1-1.2c-0.7-0.3-1.5-0.5-2.2-0.8
		c0,0,0,0,0,0c-0.9-0.3-1.8-0.6-2.6-0.9c-0.2-0.1-0.3-0.1-0.5-0.2c-0.7-0.3-1.5-0.5-2.2-0.7c-0.4-0.2-0.9-0.3-1.3-0.4
		c-0.5-0.2-1-0.3-1.6-0.5c-0.1,0-0.2-0.1-0.2-0.1c-0.5-0.2-1.1-0.3-1.6-0.5c-1.1-0.3-2.2-0.7-3.3-1c-0.5-0.2-1-0.3-1.5-0.5
		c-0.5-0.1-1-0.3-1.6-0.4c-0.8-0.2-1.6-0.5-2.4-0.7c-1.5-0.4-3.1-0.8-4.6-1.2c-0.6-0.1-1.2-0.3-1.9-0.4c-1-0.2-2-0.5-3-0.7
		c-0.4-0.1-0.9-0.2-1.3-0.3c-0.1,0-0.2,0-0.2,0c-0.8-0.2-1.6-0.4-2.5-0.5c-2-0.4-4-0.8-6-1.2c-0.8-0.1-1.6-0.3-2.4-0.4
		c0,0-0.1,0-0.1,0c-0.6-0.1-1.3-0.2-1.9-0.3c-0.3,0-0.5-0.1-0.8-0.1c-0.8-0.1-1.6-0.3-2.5-0.4c-1.1-0.2-2.3-0.3-3.4-0.5
		c-0.1,0-0.3,0-0.4-0.1c-0.6-0.1-1.3-0.2-1.9-0.2c-0.7-0.1-1.3-0.2-2-0.2c-0.8-0.1-1.6-0.2-2.4-0.3c-3.5-0.4-7-0.6-10.6-0.9
		c-1.1-0.1-2.2-0.1-3.3-0.2c-0.9,0-1.9-0.1-2.9-0.1c-0.4,0-0.9,0-1.3,0c-1,0-2.1-0.1-3.1-0.1c-1.2,0-2.4,0-3.7,0c-1.4,0-2.8,0-4.2,0
		C203,14.9,160.8,27.9,125,50c10.5,10.2,21.1,20.7,31.6,31.3c2.5-1.3,5-2.6,7.5-3.9c22.5-11,46.8-17.6,71.3-19.6
		c0.7-0.1,1.4-0.1,2.2-0.2c0.6,0,1.3-0.1,1.9-0.1c1-0.1,2-0.1,3.1-0.2c0.8,0,1.6-0.1,2.5-0.1c30.5-1,61.2,4.9,89.5,17.8
		c0-0.1,0.1-0.2,0.1-0.2c3.4-6.1,7-12.1,9.6-15.4c4.3-5.5,10-12.1,16.8-19.3C359.2,39.3,357.3,38.4,355.5,37.5z M84.3,148.5
		c1-1.5,2-3,3-4.5c-7.5-9.3-16.8-21.9-26.8-36.2c-31.9,41-50.9,92.5-50.9,148.5c0,49.7,15,96,40.7,134.4c0.1-0.1,0.2-0.2,0.4-0.3
		c10-7.6,21.3-15.9,34.4-25.1C42.1,299.6,41.9,214.3,84.3,148.5z M365,420.1c-38.1,26.4-83.4,37.9-127.8,34.7
		c-0.7-0.1-1.4-0.1-2.2-0.2c-0.7-0.1-1.4-0.1-2.1-0.2c-30.3-2.8-60-12.6-86.7-29.3c-9.3,13.1-17.6,24.6-25.1,34.6
		c-0.1,0.1-0.1,0.1-0.2,0.2c37.1,23.9,81.2,37.9,128.5,38.3c0.8,0,1.5,0,2.3,0h0.5c0.8,0,1.5,0,2.2,0c46.9-0.5,90.6-14.4,127.5-38
		c4.1-2.6,8.2-5.4,12.1-8.3C384.4,442,374.7,431.3,365,420.1z"/>
	<path d="M252.3,96c-20.5,0-40.2,3.9-58.2,10.9l9.5,9.3c15.3-5.3,31.6-8.2,48.7-8.2c16.8,0,32.9,2.8,47.9,7.9l8.7-9.6
		C291.3,99.6,272.2,96,252.3,96z M404.1,204.8l-9.9,8.6c4.1,13.5,6.3,27.9,6.3,42.8c0,16.1-2.6,31.6-7.3,46.1l9.5,9.3
		c6.4-17.3,9.8-35.9,9.8-55.4C412.5,238.2,409.6,220.9,404.1,204.8z M312.4,391.8c-18.4,8.1-38.7,12.7-60.1,12.7
		c-26.7,0-51.7-7-73.3-19.3l-7.7,9.4c23.8,14,51.5,21.9,81,21.9c24.8,0,48.3-5.6,69.3-15.7L312.4,391.8z M118.3,192.8l-8.1-10.6
		C98.6,204.3,92,229.5,92,256.2c0,31,8.8,60,24.1,84.5l9.5-7.5c-13.7-22.4-21.5-48.8-21.5-77C104.1,233.5,109.2,212,118.3,192.8z"/>
	<path d="M509.1,72.9c0,0-23.4,27.2-50.4,56.7c-10.1,11-20.7,22.3-30.7,32.6c-10.8,11.1-21,21.1-29.4,28.4c-2.4,2.1-4.6,3.9-6.6,5.5
		c-0.9,0.7-2,1.4-3.1,2.2c-6.3,4.2-16,9.4-21.5,11.6c-14,5.4-57.6,16.5-57.6,16.5l-9.8,2.9c-4.4,4.7-8.9,9.4-13.5,14.1
		c-8.8,9.2-17.7,18.5-26.8,28C227.5,305,194.3,340.3,165,376c-2.6,3.1-5.1,6.2-7.6,9.4c-8.3,10.3-16.1,20.6-23.5,31
		c-1.8,2.4-3.5,4.9-5.2,7.3c-7.4,10.5-13.9,19.7-19.9,27.6c-25.4,34-39.5,46.5-55.8,55.1c-34.5,18.3-65.8-13.4-47.9-47.9
		c8.4-16.4,20.5-30.7,54.2-56c8-6,17.3-12.7,28-20.2c2.3-1.6,4.5-3.2,6.9-4.9c9.5-6.9,19.9-14.9,30.7-23.8c3.1-2.5,6.2-5,9.3-7.6
		c32.8-27.2,68.9-60,98.3-87.3c15.1-14,28.3-26.6,38.4-36.3c3.8-3.6,7.1-6.8,9.9-9.5l3.2-12.1c0,0,11.3-42.8,17-56.4
		c1.2-2.8,8-16.2,12.7-23.2c0.6-0.8,1.1-1.6,1.6-2.2c1.8-2.3,3.8-4.7,6.2-7.4c7.3-8.3,17.3-18.4,28.3-29.1
		c10.3-10,21.6-20.5,32.5-30.5c29.2-26.7,56.1-49.8,56.1-49.8c4.8-4.8,13.6,4.4,9,9l-90.7,90.7c-1.8,1.8-1.8,4.6,0,6.3
		c1.8,1.8,4.6,1.8,6.4,0l40.7-40.7l49.9-49.9c4.6-4.6,14,4.3,9.1,9.1l-49.2,49.2l-30.4,30.4l-11.1,11.1c-1.8,1.8-1.8,4.6,0,6.3
		c1.8,1.8,4.6,1.8,6.3,0l90.7-90.7c4.6-4.6,13.8,4.2,9,9l-90.7,90.7c-1.8,1.8-1.8,4.6,0,6.3s4.6,1.8,6.4,0l90.6-90.6
		c4.6-4.6,13.8,4.2,9,9l-50.2,50.2l-30.6,30.6l-9.8,9.8c-0.9,0.9-1.3,2-1.3,3.2c0,1.1,0.4,2.3,1.3,3.2c1.8,1.8,4.6,1.8,6.3,0
		l39.5-39.5L500,63.8C504.6,59.2,513.9,68.1,509.1,72.9z"/>
	<path d="M52.2,26C34.9,43.3,119.8,166,139.5,185.7c35.1,35.1,75.2,68.4,121.8,86.3c51.9,51.9,188.2,278.8,254.4,234.8
		c46.6-31.2-200.5-239.7-227.6-260.7C260,198.5,73.9,4.3,52.2,26L52.2,26z"/>
</g>
</svg>
