<?xml version="1.0" encoding="utf-8"?>
<!-- Generator: Adobe Illustrator 21.1.0, SVG Export Plug-In . SVG Version: 6.00 Build 0)  -->
<svg version="1.1" id="Layer_3" xmlns="http://www.w3.org/2000/svg" xmlns:xlink="http://www.w3.org/1999/xlink" x="0px" y="0px"
	 viewBox="0 0 512 512" style="enable-background:new 0 0 512 512;" xml:space="preserve">
<style type="text/css">
	.st0{fill:#010101;}
</style>
<g>
	
		<ellipse transform="matrix(0.7071 -0.7071 0.7071 0.7071 -176.2364 450.4939)" class="st0" cx="455.7" cy="438" rx="56.3" ry="56.3"/>
	<path d="M441.7,61.9C409.4,29.6,360.3,11,306.9,11c-53,0-102,18.6-134.3,50.9c-19.3,19.3-45.2,46.9-68.6,72.9l264.8,264.8
		c26-23.4,53.6-49.3,72.9-68.6C514.7,258.1,514.7,134.8,441.7,61.9z M52.1,195.4c-16,20.7-14.1,50.3,4.4,68.7L98.3,306
		c2.8,2.8,2.8,7.4,0,10.2l-1.3,1.3c-3.8,3.8-3.8,9.8,0,13.6l0,0l-81.4,81.4c-20.9,20.9-20.9,54.7,0,75.6
		c10.4,10.4,24.2,15.7,37.8,15.7s27.3-5.2,37.8-15.7l81.4-81.4l0,0c3.8,3.8,9.8,3.8,13.6,0l1.2-1.2c1.3-1.3,3.3-2,5.1-2
		c1.9,0,3.8,0.7,5.1,2l41.3,41.3c9.7,9.7,22.9,15.6,36.7,15.8c0.3,0,0.5,0,0.8,0c11.7,0,22.6-3.8,31.8-10.9
		c9-6.9,22.3-18.2,37.5-31.6L83.6,157.8C70.3,173,58.9,186.4,52.1,195.4z"/>
</g>
</svg>
