<?xml version="1.0" encoding="utf-8"?>
<!-- Generator: Adobe Illustrator 22.0.1, SVG Export Plug-In . SVG Version: 6.00 Build 0)  -->
<svg version="1.1" id="Layer_2_1_" xmlns="http://www.w3.org/2000/svg" xmlns:xlink="http://www.w3.org/1999/xlink" x="0px" y="0px"
	 viewBox="0 0 571.3 512" style="enable-background:new 0 0 571.3 512;" xml:space="preserve">
<path d="M285.6,27.6C128,27.6,0.2,152.4,0.2,306.4c0,68.8,25.5,131.7,67.7,180.3c163.2-0.4,356.5-0.4,435.5,0
	c42.3-48.6,67.7-111.5,67.7-180.2C571.1,152.4,443.3,27.6,285.6,27.6z M297.3,86.3c7.6,0.3,15.2,1.1,23,2.2
	c15.7,2.2,31.1,6.2,45.6,11.3l-24.7,59.6c-13.8-6.7-28.5-12.1-43.8-15.7L297.3,86.3L297.3,86.3z M50.6,313.7
	c-0.8,5.7-1.3,11.3-1.7,16.8c-0.3-12.8,0.6-25.7,2.4-38.8c3.6-25.4,11-49.5,21.8-71.4l11.2,6.5C66.9,252,55.2,281.4,50.6,313.7z
	 M100,206.7L85.3,198c9.8-15.6,21.4-30,34.3-43l16.6,19.5C123,183.7,110.8,194.5,100,206.7z M158.3,161.2l-19.6-23
	c16.2-13,34.1-24,53.2-32.2l13.5,37.7C188.9,147.7,173.1,153.6,158.3,161.2z M215.6,97c18.1-5.8,37-9.3,56.5-10.5v53.1
	c-14-1.4-27.9-1.4-41.4-0.2L215.6,97z M316.5,330c9,8.5,14.6,20.4,14.6,33.7c0,25.4-20.5,46-45.9,46s-45.9-20.6-45.9-46
	c0-25.4,20.5-46,45.9-46c6.3,0,58.4-95.3,63.8-93.1C354.1,226.7,312.5,326.3,316.5,330z M363.3,172.6l26.1-62.9
	c20.8,10.1,40,23,56.6,38.5l-50.6,51.1C385.8,189.2,374.9,180.4,363.3,172.6z M412.1,218.4l51.8-52.2c14.7,16.5,27,35.3,36.7,55.4
	l-68.3,29.5C426.7,239.6,419.9,228.7,412.1,218.4z M453.3,325.8c-1.5-17.6-5.2-34.9-11-51.2l68.1-29.5c9.1,25.4,13.9,52.5,13.9,80.7
	H453.3z"/>
</svg>
