<?xml version="1.0" encoding="utf-8"?>
<!-- Generator: Adobe Illustrator 21.1.0, SVG Export Plug-In . SVG Version: 6.00 Build 0)  -->
<svg version="1.1" id="Layer_6" xmlns="http://www.w3.org/2000/svg" xmlns:xlink="http://www.w3.org/1999/xlink" x="0px" y="0px"
	 viewBox="0 0 550 512" style="enable-background:new 0 0 550 512;" xml:space="preserve">
<g>
	<path d="M549,400.2c0-1.8-1.4-3.2-3.2-3.2h-1.2L542.3,293h1.5c1.8,0,3.2-1.4,3.2-3.2c0-1.8-1.4-3.2-3.2-3.2h-1.7l-2.6-113.9h0.4
		c1.8,0,3.2-1.4,3.2-3.2c0-1.8-1.4-3.2-3.2-3.2h-0.7h-0.5v-22h1.2c1.8,0,3.2-1.4,3.2-3.2c0-1.8-1.4-3.2-3.2-3.2h-0.8v-4.5
		c0-7.9-5.7-14.6-13.3-15.9c0.2-0.4,0.3-0.8,0.3-1.3c0-1.3-0.7-2.3-1.8-2.8c1-0.5,1.8-1.6,1.8-2.8c0-1.4-0.9-2.6-2.3-3v-2.6
		c0.7-0.3,1.1-1,1.1-1.8c0-0.8-0.5-1.5-1.1-1.8v-5.3c0-0.5-0.4-0.8-0.8-0.8c-0.5,0-0.8,0.4-0.8,0.8v5.3c-0.7,0.3-1.1,1-1.1,1.8
		c0,0.8,0.5,1.5,1.1,1.8v2.6c-1.3,0.4-2.3,1.6-2.3,3c0,1.3,0.7,2.3,1.8,2.8c-1,0.5-1.8,1.6-1.8,2.8c0,0.4,0.1,0.8,0.3,1.3
		c-7.6,1.3-13.3,7.9-13.3,15.9v4.5h-0.6c-1.8,0-3.2,1.4-3.2,3.2c0,1.8,1.4,3.2,3.2,3.2h0.9v22h-0.9c-1.8,0-3.2,1.4-3.2,3.2
		c0,1.8,1.4,3.2,3.2,3.2h1.4L505,286.5h-1.7c-1.8,0-3.2,1.4-3.2,3.2c0,1.8,1.4,3.2,3.2,3.2h1.5L502.5,397h-1.2
		c-1.8,0-3.2,1.4-3.2,3.2c0,1.8,1.4,3.2,3.2,3.2h0.9L500,511.6h47.4l-2.4-108.2h0.9C547.6,403.4,549,401.9,549,400.2z M516.3,166.3
		h-5.1v-17c0-1.4,1.2-2.6,2.6-2.6c1.4,0,2.6,1.2,2.6,2.6L516.3,166.3L516.3,166.3z M525.6,166.3h-5.1v-17c0-1.4,1.2-2.6,2.6-2.6
		s2.6,1.2,2.6,2.6L525.6,166.3L525.6,166.3z M534.8,166.3h-5.1v-17c0-1.4,1.2-2.6,2.6-2.6s2.6,1.2,2.6,2.6L534.8,166.3L534.8,166.3z
		"/>
	<path d="M481.9,407.3h-2.7l-1.4-70.1h2.9c0.9,0,1.6-0.8,1.6-1.6v-0.5c0-0.9-0.8-1.6-1.6-1.6h-3l-1.6-55.9h1.7
		c0.9,0,1.6-0.8,1.6-1.6v-0.7c0-0.9-0.8-1.6-1.6-1.6h-1.8h-0.3v-13.1h2.1c0.9,0,1.6-0.8,1.6-1.6v-0.5c0-0.9-0.8-1.6-1.6-1.6h-1.9
		v-2.7c0-4.7-3.5-8.7-7.9-9.5c0.1-0.3,0.2-0.5,0.2-0.8c0-0.8-0.4-1.3-1-1.7c0.6-0.3,1-0.9,1-1.7c0-0.8-0.6-1.6-1.3-1.8v-1.6
		c0.4-0.2,0.7-0.6,0.7-1.1c0-0.5-0.3-0.8-0.7-1.1v-3.2c0-0.3-0.2-0.4-0.4-0.4h-0.2c-0.3,0-0.4,0.2-0.4,0.4v3.2
		c-0.4,0.2-0.7,0.6-0.7,1.1c0,0.5,0.3,0.8,0.7,1.1v1.6c-0.8,0.3-1.3,0.9-1.3,1.8c0,0.8,0.4,1.3,1,1.7c-0.6,0.3-1,0.9-1,1.7
		c0,0.3,0.1,0.5,0.2,0.8c-4.5,0.8-7.9,4.7-7.9,9.5v2.7h-1.2c-0.9,0-1.6,0.8-1.6,1.6v0.5c0,0.9,0.8,1.6,1.6,1.6h1.4v13.1h-1.4
		c-0.9,0-1.6,0.8-1.6,1.6v0.5c0,0.9,0.8,1.6,1.6,1.6h1.7l-0.7,23.9h-37.6v-49h5.6c2.8,0,5.1-2.3,5.1-5.1v-0.6c0-2.8-2.3-5.1-5.1-5.1
		h-4.9v-9c0-13.1-9.7-23.9-22.3-25.6c0.3-0.6,0.3-1.3,0.3-1.9c0-2-1.2-3.9-2.9-4.7c1.7-0.9,2.9-2.7,2.9-4.7c0-2.4-1.6-4.5-3.9-5.1
		v-4.5c1.1-0.6,1.9-1.7,1.9-3s-0.8-2.5-1.9-3v-9c0-0.8-0.6-1.4-1.4-1.4h-0.2c-0.8,0-1.4,0.6-1.4,1.4v9c-1.1,0.6-1.9,1.7-1.9,3
		s0.8,2.5,1.9,3v4.5c-2.2,0.7-3.9,2.7-3.9,5.1c0,2,1.2,3.9,2.9,4.7c-1.7,0.9-2.9,2.7-2.9,4.7c0,0.7,0.2,1.3,0.3,1.9
		c-9.2,1.3-16.9,7.3-20.3,15.7V222c0,0,8.3-41.4-4.8-68c-13.1-26.6-49.4-51.3-49.4-51.3s4-1.6,0-6c-4-4.4-28.2-18.3-28.2-18.3
		s-2.8-7-7.5-9c2.2-1.1,3.6-3.3,3.6-5.8s-1.4-4.7-3.5-5.7c2.1-1.1,3.5-3.3,3.5-5.7c0-2.9-2-5.5-4.7-6.2v-5.4
		c1.3-0.7,2.4-2.1,2.4-3.7c0-1.6-0.9-3-2.4-3.7v-11c0-1-0.8-1.8-1.8-1.8c-1,0-1.8,0.8-1.8,1.8v11c-1.3,0.7-2.4,2.1-2.4,3.7
		c0,1.6,0.9,3,2.4,3.7v5.4c-2.7,0.8-4.7,3.3-4.7,6.2c0,2.5,1.4,4.7,3.5,5.7c-2.1,1.1-3.5,3.3-3.5,5.7c0,2.5,1.5,4.8,3.6,5.8
		c-4.6,2-7.5,9-7.5,9s-24.3,13.9-28.2,18.3c-4,4.4,0,6,0,6s-36.2,24.7-49.4,51.3s-4.8,68-4.8,68v0.6c-3.5-8.3-11.1-14.4-20.3-15.7
		c0.3-0.6,0.3-1.3,0.3-1.9c0-2-1.2-3.9-2.9-4.7c1.7-0.9,2.9-2.7,2.9-4.7c0-2.4-1.6-4.5-3.9-5.1v-4.5c1.1-0.6,1.9-1.7,1.9-3
		s-0.8-2.5-1.9-3v-9c0-0.8-0.6-1.4-1.4-1.4h-0.2c-0.8,0-1.4,0.6-1.4,1.4v9c-1.1,0.6-1.9,1.7-1.9,3s0.8,2.5,1.9,3v4.5
		c-2.2,0.7-3.9,2.7-3.9,5.1c0,2,1.2,3.9,2.9,4.7c-1.7,0.9-2.9,2.7-2.9,4.7c0,0.7,0.2,1.3,0.3,1.9c-12.6,1.8-22.3,12.6-22.3,25.6v9
		h-4.4c-2.8,0-5.1,2.3-5.1,5.1v0.6c0,2.8,2.3,5.1,5.1,5.1h5.6v49H92.2L91.5,276h1.7c0.9,0,1.6-0.8,1.6-1.6v-0.5
		c0-0.9-0.8-1.6-1.6-1.6h-1.4v-13.1h1.4c0.9,0,1.6-0.8,1.6-1.6v-0.5c0-0.9-0.8-1.6-1.6-1.6H92v-2.7c0-4.7-3.5-8.7-7.9-9.5
		c0.1-0.3,0.2-0.5,0.2-0.8c0-0.8-0.4-1.3-1-1.7c0.6-0.3,1-0.9,1-1.7c0-0.8-0.6-1.6-1.3-1.8v-1.6c0.4-0.2,0.7-0.6,0.7-1.1
		c0-0.5-0.3-0.8-0.7-1.1v-3.2c0-0.3-0.2-0.4-0.4-0.4h-0.2c-0.3,0-0.4,0.2-0.4,0.4v3.2c-0.4,0.2-0.7,0.6-0.7,1.1
		c0,0.5,0.3,0.8,0.7,1.1v1.6c-0.8,0.3-1.3,0.9-1.3,1.8c0,0.8,0.4,1.3,1,1.7c-0.6,0.3-1,0.9-1,1.7c0,0.3,0.1,0.5,0.2,0.8
		c-4.5,0.8-7.9,4.7-7.9,9.5v2.7h-1.9c-0.9,0-1.6,0.8-1.6,1.6v0.5c0,0.9,0.8,1.6,1.6,1.6h2.1v13.1h-0.3h-1.8c-0.9,0-1.6,0.8-1.6,1.6
		v0.5c0,0.9,0.8,1.6,1.6,1.6h1.7L71,332h-3c-0.9,0-1.6,0.8-1.6,1.6v0.5c0,0.9,0.8,1.6,1.6,1.6h2.9L69.5,406h-2.7
		c-0.9,0-1.6,0.8-1.6,1.6v0.5c0,0.9,0.8,1.6,1.6,1.6h2.6L68,511.7l413-0.4l-1.4-100.4h2.6c0.9,0,1.6-0.8,1.6-1.6v-0.5
		C483.6,408.1,482.8,407.3,481.9,407.3z M86.4,262.2c0-0.8,0.7-1.5,1.5-1.5c0.8,0,1.5,0.7,1.5,1.5v10.1h-3V262.2z M80.8,262.2
		c0-0.8,0.7-1.5,1.5-1.5s1.5,0.7,1.5,1.5v10.1h-3.1L80.8,262.2L80.8,262.2z M78.4,272.3h-3.1v-10.1c0-0.8,0.7-1.5,1.5-1.5
		s1.5,0.7,1.5,1.5L78.4,272.3L78.4,272.3z M145.1,262.3h-8.8v-6.2c0-2.4,1.9-4.4,4.4-4.4s4.4,1.9,4.4,4.4V262.3z M160.7,262.3H152
		v-6.2c0-2.4,1.9-4.4,4.4-4.4s4.4,1.9,4.4,4.4V262.3z M176.4,262.3h-8.8v-6.2c0-2.4,1.9-4.4,4.4-4.4c2.4,0,4.4,1.9,4.4,4.4V262.3z
		 M381.1,262.3h-8.8v-6.2c0-2.4,1.9-4.4,4.4-4.4c2.4,0,4.4,1.9,4.4,4.4V262.3L381.1,262.3z M396.7,262.3H388v-6.2
		c0-2.4,1.9-4.4,4.4-4.4c2.4,0,4.4,1.9,4.4,4.4L396.7,262.3L396.7,262.3z M412.4,262.3h-8.8v-6.2c0-2.4,1.9-4.4,4.4-4.4
		c2.4,0,4.4,1.9,4.4,4.4L412.4,262.3L412.4,262.3z M464.8,263.5c0-0.8,0.7-1.5,1.5-1.5c0.8,0,1.5,0.7,1.5,1.5v10.1h-3.1L464.8,263.5
		L464.8,263.5z M459.2,263.5c0-0.8,0.7-1.5,1.5-1.5c0.8,0,1.5,0.7,1.5,1.5v10.1h-3.1L459.2,263.5L459.2,263.5z M473.4,273.6h-3
		v-10.1c0-0.8,0.7-1.5,1.5-1.5c0.8,0,1.5,0.7,1.5,1.5V273.6z"/>
	<path d="M49.5,397h-1.2L46.1,293h1.5c1.8,0,3.2-1.4,3.2-3.2c0-1.8-1.4-3.2-3.2-3.2h-1.7l-2.6-113.9h0.4c1.8,0,3.2-1.4,3.2-3.2
		c0-1.8-1.4-3.2-3.2-3.2l0,0v-22h0.9c1.8,0,3.2-1.4,3.2-3.2c0-1.8-1.4-3.2-3.2-3.2h-0.5v-4.5c0-7.9-5.7-14.6-13.3-15.9
		c0.2-0.4,0.3-0.8,0.3-1.3c0-1.3-0.7-2.3-1.8-2.8c1-0.5,1.8-1.6,1.8-2.8c0-1.4-0.9-2.6-2.3-3v-2.6c0.7-0.3,1.1-1,1.1-1.8
		c0-0.8-0.5-1.5-1.1-1.8v-5.3c0-0.5-0.4-0.8-0.8-0.8c-0.5,0-0.8,0.4-0.8,0.8v5.3c-0.7,0.3-1.1,1-1.1,1.8c0,0.8,0.5,1.5,1.1,1.8v2.6
		c-1.3,0.4-2.3,1.6-2.3,3c0,1.3,0.7,2.3,1.8,2.8c-1,0.5-1.8,1.6-1.8,2.8c0,0.4,0.1,0.8,0.3,1.3c-7.6,1.3-13.3,7.9-13.3,15.9v4.5H11
		c-1.8,0-3.2,1.4-3.2,3.2c0,1.8,1.4,3.2,3.2,3.2h1.2v22H12c-1.8,0-3.2,1.4-3.2,3.2c0,1.8,1.4,3.2,3.2,3.2h-0.5L8.9,286.5H7.2
		c-1.8,0-3.2,1.4-3.2,3.2c0,1.8,1.4,3.2,3.2,3.2h1.5L6.4,397H5.2c-1.8,0-3.2,1.4-3.2,3.2c0,1.8,1.4,3.2,3.2,3.2h0.9L3.7,511.6H51
		l-2.4-108.2h0.9c1.8,0,3.2-1.4,3.2-3.2C52.7,398.5,51.3,397,49.5,397z M21.3,166.3h-5.1v-17c0-1.4,1.2-2.6,2.6-2.6s2.6,1.2,2.6,2.6
		L21.3,166.3L21.3,166.3z M30.6,166.3h-5.1v-17c0-1.4,1.2-2.6,2.6-2.6s2.6,1.2,2.6,2.6L30.6,166.3L30.6,166.3z M39.8,166.3h-5.1v-17
		c0-1.4,1.2-2.6,2.6-2.6s2.6,1.2,2.6,2.6L39.8,166.3L39.8,166.3z"/>
</g>
</svg>
