<?xml version="1.0" encoding="utf-8"?>
<!-- Generator: Adobe Illustrator 21.1.0, SVG Export Plug-In . SVG Version: 6.00 Build 0)  -->
<svg version="1.1" id="Layer_1" focusable="false" xmlns="http://www.w3.org/2000/svg" xmlns:xlink="http://www.w3.org/1999/xlink"
	 x="0px" y="0px" viewBox="0 0 640 512" style="enable-background:new 0 0 640 512;" xml:space="preserve">
<path d="M639.2,170.3l-12.6-38c-2.8-8.4-11.8-12.9-20.2-10.1l-58.8,19.4V48c0-8.8-7.2-16-16-16h-40c-8.8,0-16,7.2-16,16v117.4
	l-55,18.2V48c0-8.8-7.2-16-16-16h-40c-8.8,0-16,7.2-16,16v159.4l-57.2,18.9V48c0-8.8-7.2-16-16-16h-40c-8.8,0-16,7.2-16,16v202.1
	l-55,18.2V48c0-8.8-7.2-16-16-16h-40c-8.8,0-16,7.2-16,16v244.1L11,318.9c-8.4,2.8-12.9,11.8-10.1,20.2l12.6,38
	c2.8,8.4,11.8,12.9,20.2,10.1l58.6-19.4V464c0,8.8,7.2,16,16,16h40c8.8,0,16-7.2,16-16V344.1l55-18.2V464c0,8.8,7.2,16,16,16h40
	c8.8,0,16-7.2,16-16V302.1l57.2-18.9V464c0,8.8,7.2,16,16,16h40c8.8,0,16-7.2,16-16V259.4l55-18.2V464c0,8.8,7.2,16,16,16h40
	c8.8,0,16-7.2,16-16V217.4l81.5-26.9C637.4,187.7,642,178.6,639.2,170.3z"/>
</svg>
