<?xml version="1.0" encoding="utf-8"?>
<!-- Generator: Adobe Illustrator 21.1.0, SVG Export Plug-In . SVG Version: 6.00 Build 0)  -->
<svg version="1.1" id="Layer_2" xmlns="http://www.w3.org/2000/svg" xmlns:xlink="http://www.w3.org/1999/xlink" x="0px" y="0px"
	 viewBox="0 0 582 512" style="enable-background:new 0 0 582 512;" xml:space="preserve">
<g>
	<path d="M581.9,289.1c0-1.8-1.5-3.2-3.2-3.1l-56,1.1L438,305.5H228.8L80.5,345.2c-8.8,3.5-11.7,21.1-0.1,21.1l501.6,0.9
		L581.9,289.1z"/>
	<path d="M448.4,407c0.1,19.6,16,35.3,35.5,35.2c19.6-0.1,35.4-15.9,35.4-35.5v-0.4c-0.2-19.4-16.2-35.2-35.8-35
		C464,371.6,448.3,387.6,448.4,407z M477.2,406.9c0,3.7,3.1,6.7,6.7,6.7c3.7,0,6.7-3,6.7-6.7c0,0,0,0,0,0c0,3.7-3,6.7-6.7,6.7
		S477.2,410.7,477.2,406.9C477.2,406.9,477.2,406.9,477.2,406.9z M483.8,390.5C483.8,390.5,483.8,390.5,483.8,390.5
		c9.1-0.1,16.5,7.2,16.6,16.3v0.2c0,5.7-2.9,10.7-7.3,13.6c4.3-3,7.2-7.9,7.2-13.6v-0.2C500.2,397.7,492.8,390.4,483.8,390.5z
		 M484.5,423.4c-0.2,0-0.3,0-0.5,0c0,0,0,0,0,0C484.1,423.4,484.3,423.4,484.5,423.4z M483.9,430.1
		C483.9,430.1,483.9,430.1,483.9,430.1c-0.1,0-0.2,0-0.3,0C483.7,430.1,483.8,430.1,483.9,430.1z M483.6,383.9
		c-12.7,0.1-22.9,10.5-22.9,23.2c0.1,9.1,5.4,17,13.2,20.7c-7.8-3.7-13.2-11.5-13.2-20.7C460.6,394.4,470.9,384,483.6,383.9
		C483.6,383.9,483.6,383.9,483.6,383.9z"/>
	<path d="M446.8,406.8v-0.4c-0.2-19.4-16.2-35.2-35.8-35c-19.6,0.2-35.3,16.2-35.2,35.6c0.1,19.6,16,35.3,35.5,35.2
		C431,442.2,446.8,426.3,446.8,406.8z M404.6,406.9C404.6,406.9,404.6,406.9,404.6,406.9c0,3.7,3.1,6.7,6.7,6.7c3.7,0,6.7-3,6.7-6.7
		c0,0,0,0,0,0c0,3.7-3,6.7-6.7,6.7S404.6,410.7,404.6,406.9z M411.2,390.5C411.2,390.5,411.2,390.5,411.2,390.5
		c9.1-0.1,16.5,7.2,16.6,16.3l0,0.2c0,5.7-2.9,10.7-7.3,13.6c4.3-3,7.2-7.9,7.2-13.6v-0.2C427.7,397.7,420.3,390.4,411.2,390.5z
		 M411.9,423.4c-0.2,0-0.3,0-0.5,0c0,0,0,0,0,0C411.5,423.4,411.7,423.4,411.9,423.4z M388.1,407.1c-0.1-12.7,10.2-23.1,22.9-23.2
		c0,0,0,0,0,0C398.3,384,388.1,394.4,388.1,407.1c0.1,9.1,5.5,17,13.2,20.7C393.6,424.1,388.2,416.3,388.1,407.1z M411,430.1
		c0.1,0,0.2,0,0.3,0c0,0,0,0,0,0C411.2,430.1,411.1,430.1,411,430.1z"/>
	<path d="M373.2,406.8v-0.4c-0.2-19.4-16.2-35.2-35.8-35c-19.6,0.2-35.3,16.2-35.2,35.6c0.1,19.6,16,35.3,35.5,35.2
		C357.3,442.2,373.2,426.3,373.2,406.8z M332.1,410.7c1.2,1.8,3.3,2.9,5.5,2.9c3.7,0,6.7-3,6.7-6.7v-0.1c0-1.1-0.3-2.2-0.8-3.1
		c0.5,1,0.9,2.1,0.9,3.3c0,3.7-3,6.7-6.7,6.7C335.4,413.7,333.3,412.5,332.1,410.7z M354,406.9v-0.2c0-9.1-7.4-16.3-16.5-16.3
		c0,0,0,0,0.1,0c9-0.1,16.5,7.2,16.5,16.3v0.2c0,8-5.7,14.6-13.2,16.1C348.4,421.5,354,414.9,354,406.9z M338.8,423.3
		c-0.3,0-0.6,0.1-1,0.1c0,0-0.1,0-0.1,0C338.1,423.4,338.4,423.4,338.8,423.3z M340.8,423.1c-0.5,0.1-1,0.2-1.5,0.2
		C339.9,423.3,340.4,423.2,340.8,423.1z M314.4,407.1c-0.1-12.8,10.2-23.1,22.9-23.2c0,0,0.1,0,0.1,0c-12.7,0.1-22.9,10.5-22.8,23.2
		c0.1,11.9,9.1,21.7,20.8,22.9C323.7,428.8,314.5,419.1,314.4,407.1z M337.1,430.1c0.2,0,0.4,0,0.6,0c0,0,0,0-0.1,0
		C337.5,430.1,337.3,430.1,337.1,430.1z M335.7,430c0.3,0,0.6,0,0.9,0.1C336.2,430,336,430,335.7,430z"/>
	<path d="M298.9,406.8v-0.4c-0.3-19.4-16.2-35.2-35.8-35c-19.6,0.2-35.3,16.2-35.1,35.6c0.1,19.6,16,35.3,35.5,35.2
		C283,442.2,298.9,426.3,298.9,406.8z M257.2,404.3c-0.3,0.8-0.5,1.7-0.5,2.6c0,3.8,3.1,6.7,6.7,6.7c1.8,0,3.5-0.7,4.7-1.9
		c-1.2,1.2-2.9,2-4.8,2c-3.8,0-6.7-3-6.7-6.7C256.6,406,256.8,405.1,257.2,404.3z M263.4,423.4c-9,0-16.5-7.3-16.5-16.4
		C247,416.1,254.4,423.4,263.4,423.4z M240.2,407.1c-0.1-12.8,10.2-23.1,22.9-23.2c0,0,0,0,0,0C250.5,384,240.2,394.4,240.2,407.1
		c0.1,9.1,5.5,17,13.2,20.7C245.7,424.1,240.3,416.3,240.2,407.1z M263.2,430.1c0.1,0,0.2,0,0.3,0c0,0,0,0,0,0
		C263.3,430.1,263.3,430.1,263.2,430.1z"/>
	<path d="M225.8,406.8v-0.4c-0.2-19.4-16.2-35.2-35.8-35c-19.6,0.2-35.3,16.2-35.2,35.6c0.1,19.6,16,35.3,35.5,35.2
		C210,442.2,225.8,426.3,225.8,406.8z M183.6,406.9C183.6,406.9,183.6,406.9,183.6,406.9c0,3.7,3.1,6.7,6.7,6.7c3.7,0,6.7-3,6.7-6.7
		c0,0,0,0,0,0c0,3.7-3,6.7-6.7,6.7C186.5,413.7,183.6,410.7,183.6,406.9z M190.2,390.5C190.2,390.5,190.2,390.5,190.2,390.5
		c9.1-0.1,16.5,7.2,16.6,16.3v0.2c0,5.7-2.9,10.7-7.3,13.6c4.3-3,7.2-7.9,7.2-13.6v-0.2C206.7,397.7,199.3,390.4,190.2,390.5z
		 M190.9,423.4c-0.2,0-0.3,0-0.5,0c0,0,0,0,0,0C190.5,423.4,190.7,423.4,190.9,423.4z M167.1,407.1c-0.1-12.7,10.2-23.1,22.9-23.2
		c0,0,0,0,0,0C177.3,384,167.1,394.4,167.1,407.1c0.1,9.1,5.5,17,13.2,20.7C172.6,424.1,167.1,416.3,167.1,407.1z M190,430.1
		c0.1,0,0.2,0,0.3,0c0,0,0,0,0,0C190.2,430.1,190.1,430.1,190,430.1z"/>
	<path d="M148.9,395L148.9,395c0-9.2-7.4-16.5-16.5-16.5c-9,0.1-16.4,7.5-16.3,16.5c0,9,7.4,16.4,16.5,16.4S148.9,404.1,148.9,395z
		 M132.5,388.3C132.5,388.3,132.5,388.3,132.5,388.3C132.5,388.3,132.5,388.3,132.5,388.3L132.5,388.3z M125.8,395.1
		C125.8,395.1,125.8,395.1,125.8,395.1C125.8,395.1,125.8,395.1,125.8,395.1c0,3.8,3.1,6.7,6.7,6.7
		C128.8,401.8,125.8,398.8,125.8,395.1z M137.1,400c-0.1,0.1-0.2,0.2-0.3,0.3C136.9,400.2,137,400.1,137.1,400z M136.8,400.3
		c-1,0.8-2.2,1.3-3.5,1.4C134.6,401.6,135.8,401.1,136.8,400.3z M137.3,399.8c0.1-0.1,0.1-0.1,0.2-0.2
		C137.4,399.7,137.4,399.8,137.3,399.8z M139.3,395.8c0-0.2,0-0.5,0-0.7l0,0C139.3,395.3,139.3,395.5,139.3,395.8z M137.8,399.3
		C137.8,399.3,137.8,399.3,137.8,399.3C137.8,399.3,137.8,399.3,137.8,399.3z"/>
	<path d="M555.9,395L555.9,395c-0.1-9.2-7.5-16.5-16.5-16.5c-9,0.1-16.4,7.5-16.3,16.5c0,9,7.4,16.4,16.5,16.4
		S555.9,404.1,555.9,395z M532.8,395.1L532.8,395.1c0,3.8,3.1,6.7,6.7,6.7C535.7,401.8,532.8,398.8,532.8,395.1z M544.1,400
		c-0.1,0.1-0.2,0.2-0.3,0.3C543.9,400.2,544,400.1,544.1,400z M543.7,400.3c-1,0.8-2.2,1.3-3.5,1.4
		C541.5,401.6,542.7,401.1,543.7,400.3z M544.3,399.8c0.1-0.1,0.1-0.1,0.2-0.2C544.4,399.7,544.3,399.8,544.3,399.8z M546.2,395.8
		c0-0.2,0-0.5,0-0.7l0,0C546.2,395.3,546.2,395.5,546.2,395.8z M544.7,399.3C544.7,399.3,544.7,399.3,544.7,399.3
		C544.7,399.3,544.7,399.3,544.7,399.3z"/>
	<rect x="245.8" y="447.4" width="24.8" height="15.5"/>
	<path d="M174.1,444.6l-3.4,14.9c5.3,2,9.3,3.2,11.9,3.3h16.8v-15.5h-18.6C179.7,447.1,177.4,446.1,174.1,444.6z"/>
	<rect x="211.8" y="447.4" width="21.4" height="15.5"/>
	<path d="M136.6,443.2c7.8,4.3,15.5,8.2,22.3,11.3l3.6-15.6c-6.2-3.1-13.4-6.7-20.9-10.4L136.6,443.2z"/>
	<path d="M562.6,376.5c2.4,10.3,4.7,18.9,2,26.6l7.5,14.7c9.8-11.9,11.5-25.8,5.6-40.7L562.6,376.5z"/>
	<path d="M542.9,422.7c-0.8,0.4-1.6,0.8-2.3,1.1l3.7,14.6c4-2.3,8-4.7,11.9-7c2.3-1.5,4.6-2.9,6.6-4.5l-6.4-12.5
		C553,417.2,548.6,420,542.9,422.7z"/>
	<rect x="283.2" y="447.4" width="24.8" height="15.5"/>
	<rect x="396.9" y="447.4" width="26.5" height="15.5"/>
	<path d="M109.6,376.5l-15.1,0.7c-5.1,12.7-4.5,24.8,1.9,35.5l10.4-11.9C105.4,393.6,107.4,385.8,109.6,376.5z"/>
	<rect x="435.9" y="447.4" width="26.5" height="15.5"/>
	<rect x="357.9" y="447.4" width="26.5" height="15.5"/>
	<rect x="320.5" y="447.4" width="24.8" height="15.5"/>
	<path d="M475,447.5v15.5h14.8c1.6,0,3.8-0.5,6.6-1.5v-16c-2.4,1.1-4.1,1.8-4.9,2H475z"/>
	<path d="M113.5,412.2l-9,10.3c3.3,3.1,7.1,6,11.6,8.8c3.1,1.8,6.1,3.8,9.3,5.5l4.7-13.9c-0.2-0.2-0.5-0.2-0.8-0.4
		C122.2,419.1,117.1,415.7,113.5,412.2z"/>
	<path d="M508.9,439.3v0.7l3.6,14.9c6.2-2.8,13.2-6.4,20.3-10.2l-3.8-15.4C521.7,432.9,514.8,436.3,508.9,439.3z"/>
	<path d="M397.2,174.1c0.5,0.1,0.9-0.2,1.1-0.7l0.5-1.8c0.1-0.4-0.2-0.8-0.7-1l-10.3-2.5l-3.5,0.8l-0.1,0.3l2.8,2.4L397.2,174.1z"/>
	<path d="M395.6,180.6c0.5,0.1,0.9-0.2,1.1-0.7l0.5-1.8c0-0.5-0.2-0.9-0.7-1l-10.3-2.5l-3.5,0.8l-0.1,0.3l2.8,2.4L395.6,180.6z"/>
	<path d="M394.1,187.1c0.5,0.1,0.9-0.2,1.1-0.7l0.5-1.8c-0.1-0.4-0.3-0.9-0.7-1l-10.3-2.5l-3.5,0.8l-0.1,0.3l2.8,2.4L394.1,187.1z"
		/>
	<path d="M398.7,167.7c0.5,0.1,0.9-0.2,1.1-0.7l0.5-1.8c0.1-0.4-0.2-0.9-0.7-1l-10.3-2.5l-3.5,0.8l-0.1,0.3l2.8,2.4L398.7,167.7z"/>
	<path d="M400.4,161.2c0.5,0.1,0.9-0.2,1.1-0.7l0.5-1.8c0.1-0.5-0.2-0.8-0.7-1l-10.3-2.5l-3.5,0.8l-0.1,0.3l2.8,2.4L400.4,161.2z"/>
	<path d="M401.9,154.7c0.5,0.1,0.9-0.2,1.1-0.7l0.5-1.8c0.1-0.4-0.2-0.8-0.7-1l-10.3-2.5l-3.5,0.8l-0.1,0.3l2.8,2.4L401.9,154.7z"/>
	<path d="M86.5,242.5l15.8,1.1l-0.1,1.5c-0.2,2.1,0.9,4,2.2,4.1l61.6,4.1c1.1,0.1,2.1-1,2.5-2.5l38.2,2.5v0.7l12.1,14h25.9v0.3
		c-0.1,1,0.6,1.8,1.5,1.9c1.1,0.2,2-0.6,2.1-1.7l0.1-0.6h18.7l12.1,18.1h154.5l65-20.5h24v-53.6l-9-2.7l0.1-2.6l1.4-22.7l1.8-22.5
		l2.1-22.5l2.5-22.4l3-22.1l13.4-79.8c0.4-1.3-0.3-2.7-1.5-3.3c-1.9-1-4.3,0.2-4.7,2.3l-13.3,77.9l-3.1,22.7l-2.5,22.7l-2.1,22.8
		l-1.8,23.1l-1.4,22.9l-0.1,1.8l-52.1-15.5h-2v-16.7h-12.1v16.5h-14v-4c0.4-0.3,0.6-0.8,0.8-1.7c0.8-3,1.5-3.4,0.2-7.2
		c-0.3-1-0.8-2.2-1.1-3.5v-2.5h-0.4c-0.2-2.3,0.7-4,4-3.2l7.4,1.8c0,0,2.6,0.1,2.8-0.8l0.8-3.1l19.2,4.7c12.3,3,10.3,6,9.4,7.8
		c-1,1.8-1,2.8,3.2,2.7c4.2-0.1,5.7,4.2,9.7,8c4,3.8,4.5-2.1,7.1-13c2.6-10.9,9.6-9.1,7.5-12.6c-2.1-3.3-8.7-0.8-12.8-0.2
		c-4.2,0.7-10.6-0.3-12.6-0.8l-16.2-4c-6.7-1.7-41.8-15.2-41.8-15.2l-26.4-6.4l-0.7,2.6l-1.8,1.1l-10-2.5l0.3-1.2
		c0.3-0.2,0.6-0.5,0.7-1.1l0.6-2.3c0.2-0.5,0.1-0.9-0.2-1.3l0.8-3.1c0.4-1.7-2.1-2.2-2.5-0.6l-0.8,3.1c-0.3,0.2-0.6,0.5-0.7,1.1
		l-0.6,2.3c-0.2,0.5-0.1,0.9,0.2,1.3l-0.3,1.2l-8.3-1.8c-12.6-3.1-33.5-6.9-33.5-6.9l-46.3-11.3l1.8-7.8c0.3-1.1-1.5-1.5-1.7-0.4
		l-1.8,7.8l-2.2-0.5l-1.5,0.9l-3.8-0.9l-1-1.6l-8.2-2l-1.8,2.1l-9.3-3.3l-1.6,6.6l9.7,1.4l0.5,2.6l8.3,2l1.6-1l3.8,0.9l0.8,1.5
		l93.2,22.8l0.6-1.8c2.8-7.9,14.6-3.6,11.8,4.2l-7.4,31.9l-1.8-15.7l6.2-17.4c1.5-3.9-4.5-6-5.9-2.1l-6.7,18.8l2.6,23.5h-22.4
		l-70.3,26.1H252l0.1-1.2c0.1-1.1-0.8-2.1-1.9-2.1c-1,0-1.8,0.8-1.8,1.8l-0.1,1.6H219l-4.8,7.2l-43.6-2.9c-0.2-1.5-1.1-2.6-2.2-2.7
		l-61.6-4.1c-1.5-0.1-2.6,1.6-2.8,3.7l-0.1,1.4l-15.8-1.1c-0.4-1.3-1.1-2.1-2.1-2.1l-81.9-5.5c-1.5-0.1-2.6,1.6-2.8,3.7L0,234.9
		c-0.2,2.1,0.9,4,2.2,4.1l81.9,5.4C85.2,244.4,86,243.7,86.5,242.5z M304.7,128.4l-0.2,0.5c-0.2,0.8-0.9,1.2-1.8,1.1l-5.6-1.4
		c-0.8-0.2-1.2-1-1.1-1.8l0.2-0.5c0.2-0.8,1-1.2,1.8-1.1l5.7,1.4C304.5,126.9,304.9,127.7,304.7,128.4z M315.7,131.6
		c-0.2,0.8-0.9,1.2-1.8,1.1l-5.6-1.4c-0.8-0.2-1.2-1-1.1-1.8l0.2-0.5c0.2-0.8,1-1.2,1.8-1.1l5.6,1.4c0.8,0.2,1.1,1,1.1,1.8
		L315.7,131.6z M326.8,133.8l-0.2,0.5c-0.2,0.8-1,1.2-1.8,1.1l-5.6-1.4c-0.8-0.2-1.2-1-1.1-1.8l0.2-0.5c0.2-0.8,1-1.2,1.8-1.1
		l5.6,1.4C326.5,132.3,326.9,133,326.8,133.8z M337.8,136.5l-0.2,0.5c-0.2,0.8-1,1.2-1.8,1.1l-5.6-1.4c-0.8-0.2-1.2-1-1.1-1.8
		l0.2-0.5c0.2-0.8,0.9-1.2,1.8-1.1l5.6,1.4C337.6,135,338,135.8,337.8,136.5z M348.8,139.2l-0.2,0.5c-0.2,0.8-1,1.2-1.8,1.1
		l-5.6-1.4c-0.8-0.2-1.2-1-1.1-1.8l0.2-0.5c0.2-0.8,1-1.2,1.8-1.1l5.6,1.4C348.6,137.7,349,138.5,348.8,139.2z M359.9,141.9
		l-0.2,0.5c-0.2,0.8-1,1.2-1.8,1.1l-5.7-1.4c-0.8-0.2-1.2-1-1.1-1.8l0.2-0.5c0.2-0.8,0.9-1.2,1.8-1.1l5.6,1.4
		C359.6,140.4,360.1,141.1,359.9,141.9z M414.6,173c0.5-0.4,2-0.7,3,0H414.6z M410.9,164.6l1,0.2c0.4,0.4,0.7,0.8,0.8,1.1
		c0.8,1.8-1.1,3.6-2.1,3.3c-1.2-0.3-1.5,0.2-1.2,0.6c0.2,0.2,0.7,0.4,0.7,0.4c2.8,0.7,4.1-0.8,4.7-3.5c0.1-0.4,0.4-0.6,0.8-0.8
		c1,0.7,1.5,1.8,1.1,3l-0.2,0.8c-0.4,1.5-1.8,2.4-3.4,2.1l-3.8-0.9c-1.5-0.4-2.5-1.8-2.1-3.4l0.2-0.8
		C407.9,165.2,409.5,164.3,410.9,164.6z M405.9,167.6c0,0-0.5,3.8,3.8,4.8c2.1,0.5,3.1,0.8,3.7,0.9v18.5l-16.4-0.2l7.6-33.2l3.3,0.8
		L405.9,167.6z M387.9,147c0.2-0.7,0.8-1.1,1.5-1l14.4,3c0.8,0.2,1.2,0.9,1,1.7l-9.3,41.1h-1.6l0.2-0.7c0-0.5-0.2-0.8-0.7-1
		l-10.3-2.5l-3.5,0.8l-0.1,0.3l2.8,2.4l2.9,0.7h-6.8l-0.2-2L387.9,147z M42.7,234.3l-35.5-2.4l0.1-1.6c0.2,0.2,0.4,0.3,0.7,0.3
		l10.2,0.7c0.5,0.1,1.1-0.4,1.1-1l0.5-6.3c0.1-0.5-0.4-1.1-1-1.1l-10.1-0.6c-0.3,0-0.5,0.1-0.8,0.2l0.1-1.6l35.5,2.4L42.7,234.3z"/>
</g>
</svg>
