<?xml version="1.0" encoding="utf-8"?>
<!-- Generator: Adobe Illustrator 21.1.0, SVG Export Plug-In . SVG Version: 6.00 Build 0)  -->
<svg version="1.1" id="Layer_4" xmlns="http://www.w3.org/2000/svg" xmlns:xlink="http://www.w3.org/1999/xlink" x="0px" y="0px"
	 viewBox="0 0 512 512" style="enable-background:new 0 0 512 512;" xml:space="preserve">
<g>
	<path d="M0,489.7h100.1V389.6H0V489.7z M29.7,419.2h40.8V460H29.7V419.2z"/>
	<rect x="194.1" y="403.6" width="317.9" height="72"/>
	<rect x="194.1" y="62.9" width="317.9" height="72"/>
	<rect x="194.1" y="233.1" width="317.9" height="72"/>
	<path d="M106.3,44.2l-62.4,62.2L30.2,83.1c-4.5-7.7-14.3-10.3-22.1-5.9C0.4,81.6-2.3,91.5,2.1,99.2l23.2,39.8
		c0.7,1.3,1.6,2.4,2.6,3.3c0.4,0.5,0.8,0.9,1.3,1.4c6.3,6.3,16.6,6.3,22.9,0l77-76.9c6.3-6.3,6.3-16.5,0-22.8
		C122.8,37.9,112.6,37.9,106.3,44.2z"/>
	<path d="M106.3,214.8l-62.4,62.2l-13.8-23.3c-4.5-7.7-14.3-10.3-22.1-5.9c-7.7,4.5-10.4,14.3-5.9,22.1l23.2,39.8
		c0.7,1.3,1.6,2.4,2.6,3.3c0.4,0.5,0.8,0.9,1.3,1.4c6.3,6.3,16.6,6.3,22.9,0l77-76.9c6.3-6.3,6.3-16.5,0-22.8
		C122.8,208.5,112.6,208.5,106.3,214.8z"/>
</g>
</svg>
