<?xml version="1.0" encoding="utf-8"?>
<!-- Generator: Adobe Illustrator 21.1.0, SVG Export Plug-In . SVG Version: 6.00 Build 0)  -->
<svg version="1.1" id="Layer_5" xmlns="http://www.w3.org/2000/svg" xmlns:xlink="http://www.w3.org/1999/xlink" x="0px" y="0px"
	 viewBox="0 0 513.8 512" style="enable-background:new 0 0 513.8 512;" xml:space="preserve">
<g>
	<path d="M175.5,120.6V30.4c0-16.8-13.6-30.4-30.4-30.4H33.3C16.5,0,2.9,13.6,2.9,30.4v90.1c0,13.3,8.5,24.6,20.4,28.7v213.4
		C11.4,366.7,2.9,378,2.9,391.3v90.1c0,16.8,13.6,30.4,30.4,30.4H145c16.8,0,30.4-13.6,30.4-30.4v-90.1c0-14.5-10.2-26.7-23.8-29.7
		V150.3C165.3,147.2,175.5,135.1,175.5,120.6z"/>
	<path d="M513.8,29.2v454.2c0,15.8-12.8,28.6-28.6,28.6H188.3l0.2-511.5h296.6C500.9,0.5,513.8,13.4,513.8,29.2z M482.4,32.4H230.1
		v128.1h252.3L482.4,32.4L482.4,32.4z M292.9,192.2h-62.8v48.1h62.8V192.2z M292.9,272.2h-62.8v48.1h62.8V272.2z M292.9,352.1h-62.8
		v48.1h62.8V352.1z M292.9,432.1h-62.8v48.1h62.8V432.1z M251.8,105.4h5.2V77.6c-0.8,0-1.6,0-2.4,0h-2c-0.5,0.3-1.2,0.6-2,0.8
		c-0.3,0-0.6,0.1-0.8,0.4l-0.8,0.4c-1.1,0.6-2.1,1.1-3.2,1.6c0,0.3,0.2,0.5,0.4,0.8v0.8v0.4c0.3,0.8,0.4,1.5,0.4,2
		c0.5-0.3,1.1-0.5,1.6-0.8l0.4-0.4l0.8-0.4c0.5-0.3,0.9-0.4,1.2-0.4c0.3-0.3,0.6-0.6,1.2-0.8L251.8,105.4L251.8,105.4z M269.5,446.3
		c-0.3-0.3-0.7-0.5-1.2-0.8c-0.3,0-0.4-0.1-0.4-0.4h-0.8c-0.8-0.5-1.6-1.1-2.4-1.6c-0.6,1.6-1.1,3.3-1.6,4.9l-0.4,0.8l-0.4,0.8v0.4
		c-0.5,1.1-0.9,1.9-1.2,2.4c-0.5-1.1-1.2-2.6-2-4.5c-0.3-1.1-0.6-1.9-0.8-2.5c-0.3-0.8-0.7-1.6-1.2-2.4c-0.5,0.5-1.3,1.1-2.4,1.6
		h-0.4l-0.4,0.4c-0.5,0.3-1.1,0.5-1.6,0.8c1.1,1.1,2.1,2.4,3.2,4.1l0.8,0.8c0.3,0.5,0.5,0.9,0.8,1.2c0.5,0.5,1.1,1.2,1.6,2
		c-0.8,0-1.6-0.1-2.4-0.4c-0.6,0-0.9,0-1.2,0l-1.2-0.4c-1.9-0.3-3.5-0.5-4.8-0.8v5.7c1.6-0.3,3.2-0.5,4.8-0.8l1.2-0.4h0.4h0.8
		c0.8-0.3,1.6-0.4,2.4-0.4c-0.5,0.8-1.1,1.5-1.6,2c-0.3,0.6-0.5,0.9-0.8,1.2l-0.8,0.8l-0.4,0.8c-0.3,0.3-0.6,0.6-0.8,0.8
		c-0.5,0.8-1.2,1.6-2,2.4c0.8,0.3,1.6,0.7,2.4,1.2c0.5,0.3,0.9,0.5,1.2,0.8s0.7,0.6,1.2,0.8c0.5-1.6,1.2-3.3,2-4.9l0.4-1.2v-0.4
		l0.4-0.4c0.3-1.1,0.5-2,0.8-2.9h0.4c0,0.5,0.1,1.1,0.4,1.6c0.3,0.3,0.4,0.7,0.4,1.2l0.4,0.4v0.4l0.4,1.2c0.8,1.6,1.5,3.3,2,4.9
		c0.5-0.3,0.9-0.5,1.2-0.8c0.3-0.3,0.5-0.4,0.8-0.4l0.4-0.4c1.1-0.5,1.9-1,2.4-1.2c-1.1-1.4-2.1-2.7-3.2-4.1l-0.8-0.8
		c-0.3-0.5-0.5-0.8-0.8-0.8c-0.6-0.8-1.1-1.6-1.6-2.4c0.8,0,1.7,0.1,2.8,0.4c0.3,0,0.7,0,1.2,0l0.8,0.4c2.1,0.3,3.9,0.5,5.3,0.8
		v-5.7c-2.7,0.6-6,1.1-10.1,1.6c0.5-0.8,1.1-1.5,1.6-2c0.3-0.3,0.5-0.7,0.8-1.2l0.8-0.8c1.3-1.6,2-2.4,2-2.4
		S268.7,447.4,269.5,446.3z M269.5,310.5v-6.9h3.6v-4.1h-3.6v-16.7h-6c-1.6,2.4-3.5,5.3-5.6,8.6l-0.8,0.8l-0.4,1.2
		c-0.5,0.8-0.9,1.5-1.2,2.1c-1.1,1.6-2.1,3.1-3.2,4.5v1.6c0,0.8,0,1.5,0,2.1h12.5v6.9h4.7V310.5z M253.8,361.9v4.5h12.9
		c-0.5,1.1-1.1,2.2-1.6,3.3c-0.5,0.8-1.1,1.9-1.6,3.2c-1.4,2.5-2.3,4.2-2.8,5.3c-1.9,3.8-3.8,7.7-5.6,11.8h5.6
		c2.1-4.9,6-13,11.6-24.4v-3.7L253.8,361.9L253.8,361.9z M261.5,231h4.8v-27.7h-4c-1.9,0.8-4.1,1.9-6.8,3.3c0,0.5,0.1,1.2,0.4,2.1
		v0.4v0.4c0.3,0.3,0.4,0.7,0.4,1.2c0.5-0.3,0.9-0.5,1.2-0.8c0.3,0,0.5-0.1,0.8-0.4h0.4l0.8-0.4l0.4-0.4c0.5-0.3,1.1-0.6,1.6-0.8
		L261.5,231L261.5,231z M257,299.5h0.4c0.3-0.8,0.7-1.5,1.2-2.1c0.3-0.3,0.4-0.7,0.4-1.2l0.8-0.8c0.8-1.4,1.6-2.6,2.4-3.7
		c0.8-1.3,1.6-3,2.4-4.9c0,1.6,0,3.2,0,4.9v7.8L257,299.5L257,299.5z M285.2,105.4v-4.5h-11.3c0-0.3,0.1-0.4,0.4-0.4l0.4-0.4h0.4
		c0-0.3,0.2-0.6,0.4-0.8c0.3,0,0.5-0.1,0.8-0.4c2.7-2.7,4.6-4.9,5.6-6.5c1.6-2.4,2.4-4.8,2.4-6.9c0-2.4-0.7-4.3-2-5.7
		c-1.9-1.9-4.2-2.9-6.8-2.9c-3.5,0-6.3,1-8.4,2.9c0,0.8,0.1,1.5,0.4,2l0.4,0.4v0.4c0.3,0.3,0.4,0.7,0.4,1.2c1.1-0.8,2-1.4,2.8-1.6
		c1.1-0.5,2.1-0.8,3.2-0.8c1.6,0,2.8,0.4,3.6,1.2c0.8,0.8,1.2,1.9,1.2,3.3c0,1.9-0.8,3.8-2.4,5.7c-1.1,1.6-3.5,4.2-7.2,7.7l-3.2,2.9
		v3.3L285.2,105.4L285.2,105.4z M290,100.1c0,0.3,0,0.5,0,0.8c-0.3,0.3-0.4,0.7-0.4,1.2c-0.3,0.8-0.5,1.4-0.8,1.6
		c2.1,1.4,4.8,2.1,8,2.1s5.8-0.8,7.6-2.5c1.9-1.6,2.8-3.7,2.8-6.1c0-1.6-0.5-3.1-1.6-4.5c-1.1-1.1-2.6-1.9-4.4-2.5
		c1.6-0.5,2.9-1.3,4-2.4c0.8-1.1,1.2-2.4,1.2-4.1c0-1.9-0.8-3.5-2.4-4.9c-1.3-1.3-3.5-2-6.5-2c-1.3,0-2.8,0.3-4.4,0.8
		c-1.3,0.3-2.4,0.8-3.2,1.6c0,0.6,0.1,1.1,0.4,1.6c0.3,0.8,0.6,1.5,0.8,2.1c0.5-0.6,1.3-1,2.4-1.2c1.1-0.3,2.1-0.4,3.2-0.4
		c1.3,0,2.4,0.3,3.2,0.8c0.8,0.8,1.2,1.6,1.2,2.4c0,1.4-0.7,2.5-2,3.3c-1.1,0.6-2.3,0.8-3.6,0.8h-2.4v3.7h2.4c1.9,0,3.3,0.4,4.4,1.2
		c1.3,0.8,2,2,2,3.7c0,1.1-0.4,2-1.2,2.9c-1.1,1.1-2.6,1.6-4.4,1.6c-1.1,0-2.3-0.3-3.6-0.8c-1.1-0.3-1.6-0.4-1.6-0.4
		S290.8,100.3,290,100.1z M328.3,105.4v-6.9h3.6c0-0.5,0-0.9,0-1.2v-2.9h-3.6V77.6h-6c-1.1,1.4-2.1,2.9-3.2,4.5
		c-0.5,1.1-1.4,2.4-2.4,4.1c-0.6,0.8-0.9,1.5-1.2,2.1c-0.6,0.5-1.1,1.2-1.6,2c-1.1,1.6-2,3.2-2.8,4.5v3.7h12.5v6.9
		C323.6,105.4,328.3,105.4,328.3,105.4z M315.8,94.4c0.6-0.8,1.1-1.5,1.6-2.1v-0.4l0.4-0.8l0.4-0.8c1.1-1.3,2-2.6,2.8-3.7
		c0.8-1.4,1.6-3,2.4-4.9c0,1.6,0,3.3,0,4.9c0,1.1,0,2.4,0,4.1v3.7C323.4,94.4,315.8,94.4,315.8,94.4z M387.4,192.2h-62.8v48.1h62.8
		V192.2z M387.4,272.2h-62.8v48.1h62.8V272.2z M387.4,352.1h-62.8v48.1h62.8V352.1z M387.4,432.1h-62.8v48.1h62.8V432.1z M352,77.6
		h-14.1c-0.3,1.9-0.7,4.2-1.2,6.9c0,1.4-0.1,2.5-0.4,3.3c0,1.4-0.2,2.6-0.4,3.7c1.1,0,2.4,0,4,0c2.4,0,4.3,0.4,5.6,1.2
		c1.3,0.8,2,2,2,3.7c0,1.6-0.7,3-2,4.1c-1.1,0.8-2.4,1.2-4,1.2c-1.1,0-2.3-0.1-3.6-0.4c-0.8-0.3-1.6-0.7-2.4-1.2
		c0,0.5-0.1,0.9-0.4,1.2v0.4v0.4c-0.3,0.8-0.4,1.5-0.4,2.1c1.9,1.1,4.3,1.6,7.2,1.6c3.2,0,5.9-1,8-2.9c1.9-1.6,2.8-3.8,2.8-6.5
		c0-1.6-0.3-3.1-0.8-4.5c-0.8-1.1-1.8-2-2.8-2.9c-1.6-1.1-3.8-1.6-6.5-1.6c-0.8,0-1.5,0-2,0c0-0.8,0.1-1.8,0.4-2.9v-0.4v-0.8
		c0.3-0.5,0.4-1.1,0.4-1.6H352V77.6z M367.3,231v-4.5H356c0.3-0.3,0.7-0.5,1.2-0.8c0.5-0.6,0.9-1,1.2-1.2c2.7-2.7,4.7-4.9,6-6.5
		c1.3-2.2,2-4.5,2-6.9s-0.7-4.3-2-5.7c-1.6-1.6-3.9-2.4-6.8-2.4c-3.5,0-6.3,0.9-8.5,2.9c0.3,0.5,0.5,1.1,0.8,1.6v0.4l0.4,0.4
		c0,0.5,0.1,1,0.4,1.2c0.8-0.8,1.6-1.4,2.4-1.6c1.1-0.5,2.1-0.8,3.2-0.8c1.6,0,2.9,0.5,4,1.6c0.5,0.8,0.8,1.9,0.8,3.2
		c0,1.6-0.7,3.4-2,5.3c-1.3,1.9-3.8,4.5-7.2,7.7c-0.3,0.3-0.7,0.6-1.2,0.8l-0.4,0.4l-0.8,0.8c-0.3,0.3-0.7,0.5-1.2,0.8v3.3H367.3z
		 M366.1,282.8H352c-0.3,1.9-0.7,4.2-1.2,6.9v1.6c0,0.5-0.2,1.1-0.4,1.6c0,1.4-0.2,2.6-0.4,3.7c1.1-0.3,2.3-0.4,3.6-0.4
		c2.7,0,4.7,0.6,6,1.6c1.3,0.8,2,2.1,2,3.7s-0.7,3-2,4.1c-1.1,0.8-2.4,1.2-4,1.2c-1.1,0-2.3-0.1-3.6-0.4c-0.8-0.3-1.6-0.7-2.4-1.2
		c-0.5,2.2-0.9,3.5-1.2,4.1c2.1,1.1,4.6,1.6,7.2,1.6c3.5,0,6.3-1,8.4-2.9c1.9-1.9,2.8-4.2,2.8-6.9c0-1.4-0.3-2.7-0.8-4.1
		c-0.8-1.1-1.8-2-2.8-2.9c-1.9-1.1-4-1.6-6.5-1.6c-0.8,0-1.5,0-2,0c0-0.8,0.1-1.8,0.4-2.9v-0.4v-0.8c0-0.6,0.2-1.1,0.4-1.6H366v-4
		H366.1z M348.4,382.7c0,2.2,0.8,3.9,2.4,5.3c1.6,1.6,4,2.4,7.2,2.4c3,0,5.4-0.8,7.2-2.4c1.9-1.4,2.8-3.3,2.8-5.7
		c0-1.9-0.5-3.4-1.6-4.5c-0.8-1.1-2-2.1-3.6-2.9c1.3-0.8,2.4-1.8,3.2-2.9c0.5-1.1,0.8-2.2,0.8-3.3c0-1.9-0.7-3.5-2-4.9
		c-1.6-1.6-3.8-2.5-6.5-2.5s-4.8,0.7-6.4,2.1c-1.9,1.6-2.8,3.5-2.8,5.7c0,1.4,0.3,2.6,0.8,3.7c0.8,1.1,1.9,1.9,3.2,2.5
		c-3.2,1.6-4.8,2.4-4.8,2.4S348.4,379.4,348.4,382.7z M354.8,446.3c0,7.6,0,15.4,0,23.3h4.8v-28.2h-4.4c-0.5,0.3-1.1,0.6-1.6,0.8
		l-0.4,0.4h-0.4L352,443c-1.1,0.6-2.2,1.1-3.2,1.6c0,0.6,0.1,1.2,0.4,2.1c0,0.5,0,1,0,1.2c0.3,0.3,0.4,0.5,0.4,0.8
		c0.6-0.3,1.3-0.7,2.4-1.2s1.9-1,2.4-1.2L354.8,446.3L354.8,446.3z M362.9,382.7c0,1.1-0.4,2-1.2,2.9c-1.1,0.8-2.3,1.2-3.6,1.2
		c-1.3,0-2.4-0.5-3.2-1.6c-0.8-0.8-1.2-1.8-1.2-2.9s0.4-2.2,1.2-3.3c0.8-1.1,1.7-1.6,2.8-1.6c1.1,0,2.1,0.6,3.2,1.6
		C362.2,380.1,362.9,381.3,362.9,382.7z M354,368.8c0-0.8,0.4-1.6,1.2-2.4c0.6-0.8,1.5-1.2,2.8-1.2c1.4,0,2.4,0.4,3.2,1.2
		c0.5,0.8,0.8,1.8,0.8,2.9s-0.4,2.1-1.2,2.9c-0.8,0.8-1.6,1.2-2.4,1.2s-1.7-0.4-2.8-1.2C354.5,371.3,354,370.2,354,368.8z
		 M374.1,81.3c0-2.2,0-3.5,0-4.1c-0.8-0.3-1.8-0.3-2.8,0c-4,0.3-7.2,1.6-9.6,4.1c-1.6,1.4-2.8,3.1-3.6,5.3c-0.8,2.2-1.2,4.6-1.2,7.3
		c0,3.5,0.9,6.4,2.8,8.6s4.4,3.3,7.7,3.3c2.7,0,5-1,6.8-2.9c1.9-1.9,2.8-4.2,2.8-7c0-2.7-0.8-5-2.4-6.9c-1.6-1.6-3.6-2.4-6-2.4
		c-2.7,0-4.8,1-6.4,2.9c0.5-2.2,1.5-3.9,2.8-5.3c1.6-1.6,3.7-2.6,6.4-2.9c0.5,0,1.1,0,1.6,0h0.4H374.1z M371.7,96.4
		c0,1.6-0.4,3-1.2,4.1c-0.8,1.1-1.9,1.6-3.2,1.6c-1.6,0-3-0.7-4-2c-0.8-1.4-1.2-3-1.2-4.9c0-0.5,0.1-1.1,0.4-1.6
		c0.3-0.8,0.8-1.5,1.6-2c0.8-0.6,1.7-0.8,2.8-0.8c1.3,0,2.5,0.6,3.6,1.6C371.3,93.1,371.7,94.5,371.7,96.4z M380.6,77.6v4.1h12.9
		v0.4c-4.5,9.2-8.5,17-11.7,23.3h5.6c1.1-2.2,2-4.3,2.8-6.5c0.8-1.3,1.7-3.2,2.8-5.7l0.8-1.2l0.4-1.6c0.5-1.1,1.1-2,1.6-2.9
		c1.1-2.2,2.1-4.3,3.2-6.5v-3.3L380.6,77.6L380.6,77.6z M402.3,98c0,2.2,0.8,4,2.4,5.3c1.9,1.6,4.3,2.5,7.2,2.5s5.4-0.7,7.2-2.1
		c1.9-1.6,2.8-3.7,2.8-6.1c0-1.6-0.4-3.1-1.2-4.5c-1.1-1.1-2.4-1.9-4-2.4v-0.4c1.6-0.5,2.7-1.5,3.2-2.9c0.8-1.1,1.2-2.2,1.2-3.2
		c0-1.9-0.7-3.5-2-4.9c-1.6-1.6-3.9-2.4-6.8-2.4c-2.7,0-4.8,0.8-6.5,2.4c-1.9,1.4-2.8,3.1-2.8,5.3c0,1.4,0.4,2.6,1.2,3.7
		c0.8,1.1,1.9,1.9,3.2,2.4v0.4C404,92.5,402.3,94.8,402.3,98z M416.8,98c0,1.1-0.4,2.1-1.2,2.9c-0.8,0.8-1.9,1.2-3.2,1.2
		c-1.4,0-2.6-0.4-3.6-1.2c-0.8-1.1-1.2-2.2-1.2-3.3c0-1.1,0.5-2.2,1.6-3.2c0.8-1.1,1.6-1.6,2.4-1.6c1.4,0,2.6,0.5,3.6,1.6
		C416.2,95.4,416.8,96.7,416.8,98z M408.3,84.5c0-1.1,0.3-2,0.8-2.9c0.8-0.8,1.9-1.2,3.2-1.2c1.3,0,2.3,0.4,2.8,1.2
		c0.5,0.8,0.8,1.8,0.8,2.9s-0.3,2.1-0.8,2.9c-0.8,0.8-1.6,1.2-2.4,1.2c-1.1,0-2-0.4-2.8-1.2C408.9,86.6,408.3,85.7,408.3,84.5z
		 M482.4,192.2h-63.2v48.1h63.2V192.2z M482.4,272.2h-63.2v48.1h63.2V272.2z M482.4,352.1h-63.2v48.1h63.2V352.1z M482.4,432.1
		h-63.2v48.1h63.2V432.1z M427.6,105.8c0.8,0,1.7,0,2.8,0c4-0.6,7.2-1.9,9.7-4.1c3.2-3,4.8-7.2,4.8-12.6c0-3.5-0.8-6.4-2.4-8.6
		c-1.9-2.4-4.4-3.7-7.6-3.7c-2.7,0-5.1,1.1-7.2,3.3c-1.6,1.9-2.4,4.2-2.4,6.9c0,2.4,0.8,4.5,2.4,6.1c1.4,1.6,3.2,2.5,5.6,2.5
		c2.7,0,4.7-0.8,6-2.5h0.4c-0.5,2.7-1.7,4.8-3.6,6.1c-1.6,1.4-3.5,2.2-5.6,2.4c-1.4,0-2.3,0-2.8,0L427.6,105.8L427.6,105.8z
		 M430.1,86.6c0-1.6,0.5-3,1.6-4.1c0.8-1.1,1.9-1.6,3.2-1.6c1.6,0,2.8,0.7,3.6,2.1c0.8,1.3,1.2,3,1.2,4.9c0,0.8-0.1,1.4-0.4,1.6
		c-0.6,0.5-1.1,1.1-1.6,1.6c-0.8,0.5-1.8,0.8-2.8,0.8c-1.4,0-2.6-0.5-3.6-1.6C430.5,89.5,430.1,88.2,430.1,86.6z M447.4,473.7
		c0.3-1.1,0.5-2.7,0.8-4.9c0.3-0.8,0.4-1.5,0.4-2c0-0.8,0.2-1.6,0.4-2.5h4.8c-0.3,1.1-0.5,2.6-0.8,4.5c0,1.1-0.2,1.9-0.4,2.5
		c0,0.8-0.1,1.6-0.4,2.4h4.8c0.3-0.8,0.4-1.6,0.4-2.4c0-0.3,0-0.7,0-1.2l0.4-1.2c0-0.8,0.1-1.5,0.4-2c0-0.8,0.1-1.6,0.4-2.5h4.8
		v-4.9H459c0.3-0.8,0.5-1.9,0.8-3.3v-0.4c0-0.3,0-0.5,0-0.8c0-0.5,0.2-1.1,0.4-1.6h4.8v-4.9h-4.4c0.3-1.4,0.5-3,0.8-4.9l0.4-0.8
		c0-0.6,0-1,0-1.2c0-0.8,0.1-1.6,0.4-2.4h-4.8c-0.3,1.1-0.6,2.6-0.8,4.5v1.2c0,0.3,0,0.6,0,0.8c-0.3,1.1-0.4,2-0.4,2.9h-4.8
		c0-1.4,0.1-3,0.4-4.9c0.3-0.8,0.4-1.5,0.4-2.1c0.3-0.8,0.4-1.6,0.4-2.4h-4.8c0,1.1-0.1,2.6-0.4,4.5s-0.5,3.5-0.8,4.9h-5.3v4.9h4.4
		c0,0.8-0.2,1.8-0.4,2.9v0.8c0,0.3,0,0.5,0,0.8c-0.3,0.5-0.4,1.1-0.4,1.6h-5.3v4.9h4.4c0,0.8-0.1,1.6-0.4,2.5c0,0.3,0,0.7,0,1.2
		l-0.4,0.8c-0.3,1.9-0.4,3.5-0.4,4.9h4.6V473.7z M458.6,286.4c0-0.3,0-0.7,0-1.2v-0.4v-0.4c0-0.8,0-1.5,0-2c-0.8-0.3-1.8-0.3-2.8,0
		c-4,0.3-7.2,1.6-9.7,4.1c-1.6,1.4-2.8,3.1-3.6,5.3c-0.8,2.2-1.2,4.6-1.2,7.4c0,3.5,0.9,6.4,2.8,8.6s4.4,3.3,7.7,3.3
		c2.7,0,5-1,6.8-2.9c1.9-1.9,2.8-4.2,2.8-6.9c0-2.7-0.8-5-2.4-6.9c-1.6-1.6-3.6-2.5-6-2.5c-2.7,0-4.7,1-6,2.9h-0.4
		c0.5-2.2,1.5-3.9,2.8-5.3c1.6-1.6,3.7-2.6,6.4-2.9c0.5,0,1.1,0,1.6,0h0.4h0.8V286.4z M443.8,390.5c1.1,0,2.1,0,3.2,0
		c4-0.5,7.2-1.9,9.7-4.1c3.2-3,4.8-7.3,4.8-13.1c0-3.5-0.9-6.2-2.8-8.1c-1.6-2.4-4-3.7-7.2-3.7c-3,0-5.4,1.1-7.2,3.3
		c-1.9,1.9-2.8,4.2-2.8,6.9c0,2.5,0.8,4.5,2.4,6.1s3.6,2.4,6,2.4c2.7,0,4.7-0.8,6-2.4c-0.5,2.7-1.6,4.8-3.2,6.1
		c-1.6,1.4-3.5,2-5.6,2c-1.4,0.3-2.4,0.4-3.2,0.4L443.8,390.5L443.8,390.5z M442.9,225.7c-0.3,0.5-0.5,1.2-0.8,2c0,0.3,0,0.6,0,0.8
		c-0.3,0.3-0.4,0.7-0.4,1.2c1.9,1.1,4.4,1.6,7.7,1.6c3.2,0,5.9-0.8,8-2.5c1.9-1.3,2.8-3.2,2.8-5.7c0-1.9-0.7-3.5-2-4.9
		c-1.1-1.1-2.4-1.9-4-2.5c1.6-0.5,2.8-1.3,3.6-2.4c0.8-1.1,1.2-2.4,1.2-4.1c0-1.9-0.7-3.4-2-4.5c-1.6-1.3-3.8-2-6.4-2
		c-1.6,0-3.2,0.1-4.8,0.4c-1.4,0.6-2.4,1.1-3.2,1.6c0.3,0.6,0.6,1.1,0.8,1.6c0.3,0.8,0.4,1.5,0.4,2.1c0.8-0.6,1.6-1,2.4-1.2
		c1.1-0.3,2.1-0.4,3.2-0.4c1.6,0,2.7,0.3,3.2,0.8c0.8,0.8,1.2,1.6,1.2,2.4c0,1.4-0.5,2.5-1.6,3.3c-1.1,0.6-2.3,0.8-3.6,0.8h-1.2
		h-0.8h-0.4v3.7h2.4c1.6,0,3,0.4,4,1.2c1.4,0.8,2,2,2,3.7c0,1.1-0.4,2-1.2,2.9c-1.1,1.1-2.6,1.6-4.4,1.6c-1.1,0-2.3-0.3-3.6-0.8
		c-1.1-0.3-1.6-0.4-1.6-0.4S443.5,226,442.9,225.7z M456.2,301.1c0,1.9-0.4,3.4-1.2,4.5c-0.8,0.8-1.9,1.2-3.2,1.2
		c-1.6,0-3-0.5-4-1.6c-0.8-1.4-1.2-3-1.2-4.9c0-0.5,0.1-1.1,0.4-1.6c0.3-0.8,0.8-1.5,1.6-2c0.8-0.5,1.7-0.8,2.8-0.8
		c1.4,0,2.6,0.6,3.6,1.6C455.8,298.3,456.2,299.5,456.2,301.1z M446.6,371.3c0-1.6,0.4-3,1.2-4.1c1.1-1.1,2.1-1.6,3.2-1.6
		c1.6,0,3,0.7,4,2c0.5,1.4,0.8,3,0.8,4.9c0,0.5,0,1.1,0,1.6c-0.5,0.5-1.2,1.1-2,1.6c-0.8,0.3-1.7,0.4-2.8,0.4
		c-1.3,0-2.4-0.4-3.2-1.2C447,373.9,446.6,372.6,446.6,371.3z M467.5,91.1c0-4.1-0.8-7.5-2.4-10.2s-4-4.1-7.2-4.1s-5.8,1.4-7.7,4.1
		c-1.6,2.7-2.4,6.2-2.4,10.6c0,4.3,0.8,7.7,2.4,10.2c1.9,2.7,4.3,4.1,7.2,4.1c3.2,0,5.8-1.2,7.6-3.7
		C466.7,99.4,467.5,95.7,467.5,91.1z M449.8,459.4l0.8-6.1h4.8l-0.8,6.1H449.8z M453,91.5c0-3.3,0.4-5.9,1.2-7.8
		c0.8-1.9,2-2.9,3.6-2.9c1.3,0,2.4,1,3.2,2.9c0.8,1.6,1.2,4.2,1.2,7.8c0,3.2-0.4,5.8-1.2,7.7c-0.8,1.6-1.9,2.4-3.2,2.4
		c-1.6,0-2.8-0.8-3.6-2.4C453.4,97.3,453,94.8,453,91.5z"/>
</g>
</svg>
