<?xml version="1.0" encoding="utf-8"?>
<!-- Generator: Adobe Illustrator 21.1.0, SVG Export Plug-In . SVG Version: 6.00 Build 0)  -->
<svg version="1.1" id="Layer_1" xmlns="http://www.w3.org/2000/svg" xmlns:xlink="http://www.w3.org/1999/xlink" x="0px" y="0px"
	 viewBox="0 0 594.4 511.7" style="enable-background:new 0 0 594.4 511.7;" xml:space="preserve">
<g id="_x37_2">
	<path d="M264.5,276.4L56.8,484.1c-6.8,6.8-17.8,6.8-24.6,0L6.2,458.1c-6.8-6.8-6.8-17.8,0-24.6l178.1-177.8L6,78
		c-6.8-6.8-6.8-17.8,0-24.6l26.1-26.1c6.8-6.8,17.8-6.8,24.6,0l207.8,207.7C276,246.3,276,265,264.5,276.4z"/>
	<path d="M587.2,463H296.7c-4,0-7.3-3.3-7.3-7.3v-57.5c0-4,3.3-7.3,7.3-7.3h290.4c4,0,7.3,3.3,7.3,7.3v57.5
		C594.4,459.7,591.2,463,587.2,463z"/>
</g>
</svg>
