<?xml version="1.0" encoding="utf-8"?>
<!-- Generator: Adobe Illustrator 22.0.1, SVG Export Plug-In . SVG Version: 6.00 Build 0)  -->
<svg version="1.1" id="Layer_2_1_" xmlns="http://www.w3.org/2000/svg" xmlns:xlink="http://www.w3.org/1999/xlink" x="0px" y="0px"
	 viewBox="0 0 512 512" style="enable-background:new 0 0 512 512;" xml:space="preserve">
<style type="text/css">
	.st0{fill:#070707;}
</style>
<g>
	<polygon points="89.2,396.3 163.8,321.8 120,278 2,396.3 120.4,514.3 163.8,470.9 	"/>
	<polygon points="426.8,396.3 352.2,470.9 396.1,514.7 514,396.3 395.6,278.4 352.2,321.8 	"/>
	<rect x="152.5" y="365.3" width="212.4" height="62"/>
	<path class="st0" d="M76.4,147H114c13.9-72,49.3-79.9,101.5-76.8c0,0-0.8,131.5-0.8,138.7c0,29.6-24.7,32.8-32.4,34.3v41.7h151.5
		v-41.7c-6.4-1.1-32.4-4.7-32.4-34.3c0-6-0.8-138.7-0.8-138.7c38.1-0.5,84.5-11.1,101.3,76.8h37.6V0H76.4V147z"/>
</g>
</svg>
