<?xml version="1.0" encoding="utf-8"?>
<!-- Generator: Adobe Illustrator 21.1.0, SVG Export Plug-In . SVG Version: 6.00 Build 0)  -->
<svg version="1.1" id="Layer_2" xmlns="http://www.w3.org/2000/svg" xmlns:xlink="http://www.w3.org/1999/xlink" x="0px" y="0px"
	 viewBox="0 0 550 512" style="enable-background:new 0 0 550 512;" xml:space="preserve">
<g id="fill">
	<g>
		<path d="M547.3,179.4c-4.4-14.4-12.1-17.4-28.1-18.6c0,0-120.1,1.4-205.5-55c0,0,20,102.7-1.1,175c-19,65.3-70.8,106.1-73.7,109.5
			c14,43.7,44.6,80.9,76.6,103.8c18.2,13.1,41.9,14.9,71.1,5.1c55.7-18.2,106-52.7,134.8-137.9C551.4,264.2,553.1,203.7,547.3,179.4
			z M319.9,264.5c1-10,3.8-21.2,10.6-24.1c10.7-4.5,23-3.3,32.5,5.8c9.6,9.1,11.8,23.1,4,31.3s-37.6,5.9-50.5-2.1
			C318,272.3,319.4,270.1,319.9,264.5z M421,418c-32.5-36.8-71.4-50-116.5-39.8C329.1,315.4,433.9,349.8,421,418z M460.2,304.3
			c-3.2,11.7-22.7,7.4-35.2,3.1c-12-4.2-23.1-10.8-23.1-22.9c0-12.2,10.3-21.9,23.1-21.9S465.8,284.1,460.2,304.3z M303.6,187.5
			C293.6,76.6,275.8,35.6,261,19.4c-7-7.9-17-9.8-26.3-5.5c0,0-81.5,58.7-202.4,40.3c-15.7-4-26.9,11-29.5,26
			C-7.9,134.1,17.4,232,17.4,232c1.8,7.4,15.9,87.9,90,136.9c32.4,21.8,61.6,30.1,87.8,24.8c20.2-6.1,41-22.1,62.4-48.1
			C293.5,301.2,308.8,248.4,303.6,187.5z M65.3,175.7c-2.9-12.1,16.8-23.2,31.4-24.5c14.2-1.3,28.6,3,34.9,14
			c6.3,11.1,1.1,24.4-11.6,29.9C107.2,200.5,70.2,196.6,65.3,175.7z M96.2,280.2c50,20.9,97.5,13.3,142.6-22.6
			C239.9,339,111.9,357.7,96.2,280.2z M219.6,171.3c-12.4,7.7-26.1,12.8-36.2,4.3c-10.2-8.4-10.9-24.3-1.5-35.6s47.9-21,60.9-1.8
			C250.2,149.2,232.4,163.4,219.6,171.3z"/>
	</g>
</g>
</svg>
