<?xml version="1.0" encoding="utf-8"?>
<!-- Generator: Adobe Illustrator 21.1.0, SVG Export Plug-In . SVG Version: 6.00 Build 0)  -->
<svg version="1.1" id="Layer_2" xmlns="http://www.w3.org/2000/svg" xmlns:xlink="http://www.w3.org/1999/xlink" x="0px" y="0px"
	 viewBox="0 0 510.9 512" style="enable-background:new 0 0 510.9 512;" xml:space="preserve">
<path d="M511.8,84.1c0-21.5-8.2-43-24.6-59.4c-32.8-32.8-86-32.8-118.8,0L90.9,302.2c-25.4,25.4-31.1,62.9-17.2,93.8L9.4,460.3
	c-11.8,11.8-12.6,30.2-2,42c5.6,6.2,13.1,9.7,21.4,9.9c0.3,0,0.5,0,0.8,0c7.9,0,15.5-3.2,21.1-8.7l65.2-65.2
	c30.9,13.9,68.4,8.1,93.8-17.2l277.5-277.5C503.6,127,511.8,105.6,511.8,84.1z M41.6,494.3c-3.3,3.3-7.7,5.1-12.4,5
	c-4.7-0.1-9-2.1-12.1-5.6c-5.9-6.6-5.2-17.4,1.6-24.2l51-51l12,12c0,0,0,0,0,0l12,12L41.6,494.3z M453.8,65.6l-16.5,16.5l11,11
	c1.1,1.1,1.1,2.9,0,3.9c-0.5,0.4-1.1,0.7-1.7,0.7c-0.7,0-1.3-0.3-1.9-0.8l-11.1-11.1l-14.8,14.8l7.3,7.3c1.1,1.1,1.1,2.9,0,3.9
	c-0.5,0.4-1.1,0.7-1.7,0.7c-0.7,0-1.3-0.3-1.9-0.8l-7.4-7.4l-14.8,14.8l7.3,7.3c1.1,1.1,1.1,2.9,0,3.9c-0.5,0.4-1.1,0.7-1.7,0.7
	c-0.7,0-1.3-0.3-1.9-0.8l-7.4-7.4l-14.8,14.8l7.3,7.3c1.1,1.1,1.1,2.9,0,3.9c-0.5,0.4-1.1,0.7-1.7,0.7c-0.7,0-1.3-0.3-1.9-0.8
	l-7.4-7.4l-14.8,14.8l11,11c1.1,1.1,1.1,2.9,0,3.9c-0.5,0.4-1.1,0.7-1.7,0.7c-0.7,0-1.3-0.3-1.9-0.8L359.4,160l-14.8,14.8l7.3,7.3
	c1.1,1.1,1.1,2.9,0,3.9c-0.5,0.4-1.1,0.7-1.7,0.7c-0.7,0-1.3-0.3-1.9-0.8l-7.4-7.4L326,193.3l7.3,7.3c1.1,1.1,1.1,2.9,0,3.9
	c-0.5,0.4-1.1,0.7-1.7,0.7c-0.7,0-1.3-0.3-1.9-0.8l-7.4-7.4l-14.8,14.8l7.3,7.3c1.1,1.1,1.1,2.9,0,3.9c-0.5,0.4-1.1,0.7-1.7,0.7
	c-0.7,0-1.3-0.3-1.9-0.8l-7.4-7.4l-14.8,14.8l11,11c1.1,1.1,1.1,2.9,0,3.9c-0.5,0.4-1.1,0.7-1.7,0.7c-0.7,0-1.3-0.3-1.9-0.8
	l-11.1-11.1l-14.8,14.8l7.3,7.3c1.1,1.1,1.1,2.9,0,3.9c-0.5,0.4-1.1,0.7-1.7,0.7c-0.7,0-1.3-0.3-1.9-0.8l-7.4-7.4l-14.8,14.8
	l7.3,7.3c1.1,1.1,1.1,2.9,0,3.9c-0.5,0.4-1.1,0.7-1.7,0.7c-0.7,0-1.3-0.3-1.9-0.8l-7.4-7.4L233.3,286l7.3,7.3c1.1,1.1,1.1,2.9,0,3.9
	c-0.5,0.4-1.1,0.7-1.7,0.7c-0.7,0-1.3-0.3-1.9-0.8l-7.4-7.4l-14.8,14.8l11,11c1.1,1.1,1.1,2.9,0,3.9c-0.5,0.4-1.1,0.7-1.7,0.7
	c-0.7,0-1.3-0.3-1.9-0.8l-11.1-11.1L196.3,323l7.3,7.3c1.1,1.1,1.1,2.9,0,3.9c-0.5,0.4-1.1,0.7-1.7,0.7c-0.7,0-1.3-0.3-1.9-0.8
	l-7.4-7.4l-14.8,14.8l7.3,7.3c1.1,1.1,1.1,2.9,0,3.9c-0.5,0.4-1.1,0.7-1.7,0.7c-0.7,0-1.3-0.3-1.9-0.8l-7.4-7.4l-14.8,14.8l7.3,7.3
	c1.1,1.1,1.1,2.9,0,3.9c-0.5,0.4-1.1,0.7-1.7,0.7c-0.7,0-1.3-0.3-1.9-0.8l-7.4-7.4l-14.8,14.8l11.1,11.1c1,1,1,2.7,0,3.7
	c-0.5,0.5-1.2,0.8-1.9,0.8c-0.7,0-1.3-0.3-1.9-0.8L137,382.3l-24.9,24.9l-7.4-7.4l24.9-24.9l-11.1-11.1c-1.1-1.1-1-3.1,0.4-4
	c1.1-0.7,2.5-0.5,3.4,0.4l11,11l14.8-14.8l-7.4-7.4c-1.1-1.1-1-3.1,0.4-4c1-0.7,2.5-0.5,3.4,0.4l7.3,7.3l14.8-14.8l-7.4-7.4
	c-1.1-1.1-1-3.1,0.4-4c1.1-0.7,2.5-0.5,3.4,0.4l7.3,7.3l14.8-14.8l-7.4-7.4c-1.1-1.1-1-3.1,0.4-4c1.1-0.7,2.5-0.5,3.4,0.4l7.3,7.3
	l14.8-14.8l-11.1-11.1c-1.1-1.1-1-3.1,0.4-4c1-0.7,2.5-0.5,3.4,0.4l11.1,11.1l14.8-14.8l-7.4-7.4c-1.1-1.1-1-3.1,0.4-4
	c1-0.7,2.5-0.5,3.4,0.4l7.3,7.3l14.8-14.8l-7.4-7.4c-1.1-1.1-1-3.1,0.4-4c1-0.7,2.5-0.5,3.4,0.4l7.3,7.3l14.8-14.8l-7.4-7.4
	c-1.1-1.1-1-3.1,0.4-4c1.1-0.7,2.5-0.5,3.4,0.4l7.3,7.3l14.8-14.8l-11.1-11.1c-1.1-1.1-1-3.1,0.4-4c1.1-0.7,2.5-0.5,3.4,0.4
	l11.1,11.1l14.8-14.8l-7.4-7.4c-1.1-1.1-1-3.1,0.4-4c1-0.7,2.5-0.5,3.4,0.4l7.3,7.3l14.8-14.8l-7.4-7.4c-1.1-1.1-1-3.1,0.4-4
	c1-0.7,2.5-0.5,3.4,0.4l7.3,7.3l14.8-14.8l-7.4-7.4c-1.1-1.1-1-3.1,0.4-4c1-0.7,2.5-0.5,3.4,0.4l7.3,7.3l14.8-14.8l-11.1-11.1
	c-1.1-1.1-1-3.1,0.4-4c1-0.7,2.5-0.5,3.4,0.4l11.1,11.1l14.8-14.8l-7.4-7.4c-1.1-1.1-1-3.1,0.4-4c1-0.7,2.5-0.5,3.4,0.4l7.3,7.3
	l14.8-14.8l-7.4-7.4c-1.1-1.1-1-3.1,0.4-4c1-0.7,2.5-0.5,3.4,0.4l7.3,7.3l14.8-14.8l-7.4-7.4c-1.1-1.1-1-3.1,0.4-4
	c1-0.7,2.5-0.5,3.4,0.4l7.3,7.3L426,78.4l-11.1-11c-0.9-0.9-1.1-2.3-0.4-3.4c1-1.4,2.9-1.5,4-0.4l11.2,11.1L446.5,58
	c2.2-2.2,5.7-2,7.8,0.4C456,60.5,455.7,63.7,453.8,65.6z"/>
</svg>
