<?xml version="1.0" encoding="utf-8"?>
<!-- Generator: Adobe Illustrator 21.1.0, SVG Export Plug-In . SVG Version: 6.00 Build 0)  -->
<svg version="1.1" id="Layer_2" xmlns="http://www.w3.org/2000/svg" xmlns:xlink="http://www.w3.org/1999/xlink" x="0px" y="0px"
	 viewBox="0 0 417 512" style="enable-background:new 0 0 417 512;" xml:space="preserve">
<g>
	<path d="M216.7,389.5L402,127.3c25.6-36.3,17-86.4-19.3-112c-36.3-25.6-86.4-17-112,19.3L85.4,296.7c-25.6,5.6-49.2,20.4-65.5,43.5
		C-14.7,389.2-3,457.1,46,491.8c49.1,34.7,116.9,23,151.6-26C213.9,442.7,220,415.5,216.7,389.5z M308.3,93.3
		c5-7.1,14.8-8.8,21.9-3.8c7.1,5,8.8,14.8,3.8,21.9L183.1,324.8c-1.9-1.8-3.8-3.5-5.9-5.2l42-59.4c2.5-3.6,1.7-8.6-1.9-11.1
		c-3.6-2.5-8.6-1.7-11.1,1.9l-42,59.4c-2.2-1.3-4.5-2.6-6.8-3.7L308.3,93.3z M73.4,453c-27.6-19.5-34.2-57.8-14.7-85.4
		c19.5-27.6,57.8-34.2,85.4-14.7s34.2,57.8,14.7,85.4C139.3,465.9,101.1,472.5,73.4,453z M282,296.8l-28.8-20.4
		c-4.1-2.9-5.1-8.7-2.2-12.8c1.5-2.1,3.6-3.4,5.9-3.7c2.3-0.4,4.8,0.1,6.9,1.5l28.8,20.4L282,296.8z M304.7,264.8l-28.8-20.4
		c-4.1-2.9-5.1-8.7-2.2-12.8c1.5-2.1,3.6-3.4,5.9-3.7c2.3-0.4,4.8,0.1,6.9,1.5l28.8,20.4L304.7,264.8z M327.3,232.8l-28.8-20.4
		c-4.1-2.9-5.1-8.7-2.2-12.8c1.5-2.1,3.6-3.4,5.9-3.7c2.3-0.4,4.8,0.1,6.9,1.5l28.8,20.4L327.3,232.8z M349.9,200.8l-28.8-20.4
		c-4.1-2.9-5.1-8.7-2.2-12.8c1.5-2.1,3.6-3.4,5.9-3.7s4.8,0.1,6.9,1.5l28.8,20.4L349.9,200.8z M372.5,168.7l-28.8-20.4
		c-4.1-2.9-5.1-8.7-2.2-12.8c1.5-2.1,3.6-3.4,5.9-3.7s4.8,0.1,6.9,1.5l28.8,20.4L372.5,168.7z"/>
	<ellipse transform="matrix(0.5771 -0.8167 0.8167 0.5771 -284.7388 259.0084)" cx="107.7" cy="404.4" rx="39.9" ry="39.9"/>
</g>
</svg>
