<?xml version="1.0" encoding="utf-8"?>
<!-- Generator: Adobe Illustrator 21.1.0, SVG Export Plug-In . SVG Version: 6.00 Build 0)  -->
<svg version="1.1" id="Layer_1" xmlns="http://www.w3.org/2000/svg" xmlns:xlink="http://www.w3.org/1999/xlink" x="0px" y="0px"
	 viewBox="0 0 505.9 512" style="enable-background:new 0 0 505.9 512;" xml:space="preserve">
<path d="M3.3,282.8c3,0.3,6.6,0.7,10.9,1c9.6,0.7,19.2,1.2,28.8,1.5c13.9,0.3,27.1,0.5,39.7,0.5c15.5-0.7,29.6-1.8,42.1-3.5V49.9
	H33.6c-2,3.7-4.3,9.3-6.9,17c-2.3,6.3-4.6,13.1-6.9,20.4c-2.6,8.6-5.1,17.8-7.4,27.4C6.8,138.6,3.1,163.1,1.5,188
	C-1,219.3-0.3,250.9,3.3,282.8z M77.7,76.3c3,0,5.8,0.5,8.4,1.5c2.3,1,4.6,2.5,6.9,4.5c2,2.3,3.5,4.7,4.5,7c1,2.7,1.5,5.5,1.5,8.5
	c0,2.7-0.5,5.3-1.5,8c-1,3-2.5,5.3-4.5,7c-2.3,2-4.6,3.5-6.9,4.5c-2.6,1.3-5.5,2-8.4,2c-2.6,0-5.3-0.7-7.9-2c-3-1-5.3-2.5-6.9-4.5
	c-2-1.7-3.5-4-4.5-7c-1.3-2.7-2-5.3-2-8c0-3,0.7-5.8,2-8.5c1-2.3,2.5-4.7,4.5-7c1.7-2,4-3.5,6.9-4.5C72.4,76.8,75,76.3,77.7,76.3z
	 M487.1,321.5c-12.6,12.5-27.4,18.7-44.6,18.7h-91.2c5.6,13,10.7,24,15.1,33.2c4.5,9.1,7.6,19.3,9.4,30.4s1.5,26-1,44.6
	s-9.1,34.5-19.8,47.6c-10.7,13.1-27.2,17.9-49.3,14.2c-6,0-11.1-2.2-15.4-6.5c-4.3-4.7-7.9-10.3-10.9-17s-5.1-12.4-6.4-17.2
	c-1.3-4.8-2.8-11.4-4.5-19.7c-1.7-9.6-3-16.5-4-20.4c-1-4-2.9-9.3-5.7-16c-2.8-6.7-6.4-12-10.7-16c-7.3-7.3-18.3-20.4-33.2-39.4
	c-10.6-14-21.6-27.3-33-39.9s-19.4-20.3-24-22.9c-6.6-4-13.7-8.7-21.3-14v-217c0-5.7,2.1-10.5,6.2-14.5c4.1-4,9.2-6.2,15.1-6.5
	c7.6-0.3,24.8-5.3,51.5-15c17.2-5.7,30.5-10,39.9-13c9.4-3,22.7-6.2,39.9-9.7c17.2-3.5,33-5.2,47.6-5.2h6h24.8h11.9
	c29.4,0.7,51.1,9.3,64.9,25.9c12.6,15.3,17.9,35.4,15.9,60.4c8.6,8.3,14.5,18.6,17.9,30.9c4,13.3,4,26.3,0,38.9
	c10.2,13.3,15,28.3,14.4,44.9c0,7.3-1.7,15.8-5,25.4c12.2,14,18.3,30.6,18.3,49.9C506,294.2,499.7,309,487.1,321.5z"/>
</svg>
