<?xml version="1.0" encoding="utf-8"?>
<!-- Generator: Adobe Illustrator 21.1.0, SVG Export Plug-In . SVG Version: 6.00 Build 0)  -->
<svg version="1.1" id="Layer_1" xmlns="http://www.w3.org/2000/svg" xmlns:xlink="http://www.w3.org/1999/xlink" x="0px" y="0px"
	 viewBox="0 0 430.8 512" style="enable-background:new 0 0 430.8 512;" xml:space="preserve">
<path d="M419.9,127.4C373.1,99.9,254.2,30.5,207.5,3.3c-10.7-6.3-24.4-2.6-30.6,8c-12.7,21.7-46.7,80-46.7,80l33.7,19.7l-60.5,103.6
	l-21.6-12.6c-16.2-9.4-37.1-4-46.5,12.2l-35.5,60.8l106.2,62C93.8,372.6,54.1,501.2,53,504.7c-1.3,4-0.3,4.6,1.4,5.6
	c1.8,1,2.8,1.7,5.6-1.5c2.4-2.8,95-100.4,120.2-128.3l105.3,61.5l35.5-60.8c9.5-16.2,3.9-37.1-12.2-46.5L288,322.7l60.5-103.6
	l32.8,19.2c0,0,34-58.1,46.7-79.9C434.3,147.4,430.7,133.7,419.9,127.4z M139.9,229L139.9,229c-5.7-3.3-7.6-10.7-4.3-16.4l45.4-77.7
	c3.3-5.7,10.7-7.6,16.4-4.3l0,0c5.7,3.3,7.6,10.7,4.3,16.4l-45.4,77.7C153,230.4,145.7,232.4,139.9,229z M192.6,245.9l45.4-77.7
	c3.3-5.7,10.7-7.6,16.4-4.3l2.6,1.5c5.7,3.3,7.6,10.7,4.3,16.4l-45.4,77.7c-3.3,5.7-10.7,7.6-16.4,4.3l-2.6-1.5
	C191.2,259,189.3,251.6,192.6,245.9z M256.5,297.1L256.5,297.1c-5.7-3.3-7.6-10.7-4.3-16.4l45.4-77.7c3.3-5.7,10.7-7.6,16.4-4.3v0
	c5.7,3.3,7.6,10.7,4.3,16.4l-45.4,77.7C269.6,298.5,262.2,300.5,256.5,297.1z"/>
</svg>
