<?xml version="1.0" encoding="utf-8"?>
<!-- Generator: Adobe Illustrator 21.1.0, SVG Export Plug-In . SVG Version: 6.00 Build 0)  -->
<svg version="1.1" id="Layer_1" xmlns="http://www.w3.org/2000/svg" xmlns:xlink="http://www.w3.org/1999/xlink" x="0px" y="0px"
	 viewBox="0 0 512 512" style="enable-background:new 0 0 512 512;" xml:space="preserve">
<path d="M444.4,139.3L444.4,139.3c-20.1,11.3-46.7,8.4-63.9-8.8c-17.2-17.2-20.1-43.7-8.7-63.8L303.6-1.3L0.3,302.1l68.5,68.5
	c0,0,0,0,0.1,0c20.1-11.2,46-8.3,63,8.9c17.1,17.1,20.4,43.1,9.1,63.2l0,0l66.8,66.7L511.1,206L444.4,139.3z M222,121.8l18.8-18.8
	l21.4,21.4l-18.8,18.8L222,121.8z M266.7,166.6l18.8-18.8l26.6,26.6l-18.8,18.8L266.7,166.6z M317.3,217.1l18.8-18.8l26.6,26.6
	l-18.8,18.8L317.3,217.1z M388,287.7l-21.4-21.4l18.8-18.8l21.4,21.4L388,287.7z"/>
</svg>
