<?xml version="1.0" encoding="utf-8"?>
<!-- Generator: Adobe Illustrator 21.1.0, SVG Export Plug-In . SVG Version: 6.00 Build 0)  -->
<svg version="1.1" id="Layer_5" xmlns="http://www.w3.org/2000/svg" xmlns:xlink="http://www.w3.org/1999/xlink" x="0px" y="0px"
	 viewBox="0 0 512 512" style="enable-background:new 0 0 512 512;" xml:space="preserve">
<path d="M369,374.1c-35.1,0-65.4-11.2-92.5-34.3c-21.3-18.2-36.9-40.5-52-62.1c-28.4-40.6-46.1-63.6-81.6-63.6
	c-20,0-34.4,5.1-44,15.7c-6.8,7.4-11.1,17.2-14,27.2c-7.4,26.5-30.1,45.8-57.4,48.6l-26.4,2.7c-0.9-8.2-7-81.7,38.2-131.8
	c17.4-19.3,49.5-42.3,103.6-42.3c35.9,0,66.8,11.4,94.3,34.7c21.8,18.5,37.6,41.1,52.9,63c27.8,39.8,45.1,62.3,78.9,62.3
	c19.1,0,33.2-5.1,42.9-15.5c7.2-7.7,11.9-17.9,15-28.3c7.8-26.5,31.2-45.3,58.8-47.3l26.1-1.9c0.6,8.3,4.9,82.1-41.1,131.8
	C445.8,359.8,410.6,374.1,369,374.1z"/>
</svg>
