<?xml version="1.0" encoding="utf-8"?>
<!-- Generator: Adobe Illustrator 21.1.0, SVG Export Plug-In . SVG Version: 6.00 Build 0)  -->
<svg version="1.1" id="Layer_1" focusable="false" xmlns="http://www.w3.org/2000/svg" xmlns:xlink="http://www.w3.org/1999/xlink"
	 x="0px" y="0px" viewBox="0 0 640 512" style="enable-background:new 0 0 640 512;" xml:space="preserve">
<path d="M319.8,512c-97.2,0-185.1-61.6-185.1-184.8c0-31.4,10.2-65,26-98.4l293.9,231.5C419.9,494.8,371.1,512,319.8,512z
	 M601.3,509.6L3.8,40.4c-4.7-3.7-5.1-10.6-0.9-14.9L25.5,2.9c3.6-3.6,9.2-3.9,13.2-0.8l175.9,138C272.1,61.3,339.5,0,339.5,0
	s0.7,63.7,48.4,126.2c44.7,58.5,117,132.8,117,201c0,13.8-1.1,26.8-3.2,39l134.6,105.2c4.7,3.7,5.1,10.6,0.9,14.9l-22.6,22.6
	C610.9,512.4,605.3,512.8,601.3,509.6z M234.3,426.2c1.3,1.2,2.5,1.7,3.4,2.1l0.1,0.1c1.7,0.8,3.5,1.3,5.3,1.5
	c6.5,0.9,13.2-1.8,17.3-7.2c3.1-4,4.4-8.9,3.7-13.9c-0.8-4.8-3.3-9-7.2-11.8c-6.3-4.7-11.9-9.9-16.4-15.4
	c-15-18.5-19.2-39.6-12.8-64.4c0.2-0.8,0.4-1.5,0.5-2.3c1-7.7-3.1-15.4-10.4-18.9c-1.2-0.6-2.3-1-3.5-1.3
	c-10-2.6-19.9,3.3-22.6,13.3c-9.5,36-2.7,69.4,19.7,96.6C218.2,412.8,225.7,419.9,234.3,426.2z"/>
</svg>
