<?xml version="1.0" encoding="utf-8"?>
<!-- Generator: Adobe Illustrator 21.1.0, SVG Export Plug-In . SVG Version: 6.00 Build 0)  -->
<svg version="1.1" id="Layer_3" xmlns="http://www.w3.org/2000/svg" xmlns:xlink="http://www.w3.org/1999/xlink" x="0px" y="0px"
	 viewBox="0 0 371.2 512" style="enable-background:new 0 0 371.2 512;" xml:space="preserve">
<path d="M254.2,126.2C206.5,63.7,205.8,0,205.8,0S1,186.3,1,327.2C1,450.4,88.9,512,186.1,512c97.2,0,185.1-61.6,185.1-184.8
	C371.2,259,298.9,184.7,254.2,126.2z M126.8,422.7c-4.1,5.4-10.8,8.1-17.3,7.2c-1.8-0.2-3.6-0.7-5.3-1.5l-0.1-0.1
	c-0.9-0.4-2.1-0.9-3.4-2.1c-8.7-6.3-16.2-13.4-22.9-21.6c-22.4-27.2-29.2-60.6-19.7-96.6c2.7-10,12.6-15.9,22.6-13.3
	c1.2,0.3,2.3,0.7,3.5,1.3c7.3,3.5,11.4,11.2,10.4,18.9c-0.1,0.8-0.3,1.5-0.5,2.3c-6.4,24.8-2.2,45.9,12.8,64.4
	c4.5,5.5,10.1,10.7,16.4,15.4c3.9,2.8,6.4,7,7.2,11.8C131.2,413.8,129.9,418.7,126.8,422.7z"/>
</svg>
