<?xml version="1.0" encoding="utf-8"?>
<!-- Generator: Adobe Illustrator 21.1.0, SVG Export Plug-In . SVG Version: 6.00 Build 0)  -->
<svg version="1.1" id="Layer_5" xmlns="http://www.w3.org/2000/svg" xmlns:xlink="http://www.w3.org/1999/xlink" x="0px" y="0px"
	 viewBox="0 0 512 512" style="enable-background:new 0 0 512 512;" xml:space="preserve">
<path d="M256,0C114.6,0,0,114.6,0,256s114.6,256,256,256s256-114.6,256-256S397.4,0,256,0z M162.1,102.5c8.2-4.9,18.8-2.3,23.7,5.9
	c4.9,8.2,2.3,18.8-5.9,23.7c-8.2,4.9-18.8,2.3-23.7-5.9C151.3,118,153.9,107.4,162.1,102.5z M69.8,163.1L175,223.8
	c-3.1,7.8-5.1,16.2-5.8,25l-109.1-63C62.9,178,66.1,170.4,69.8,163.1z M109.8,256c0,9.5-7.8,17.3-17.3,17.3s-17.3-7.8-17.3-17.3
	s7.8-17.3,17.3-17.3S109.8,246.5,109.8,256z M69.8,348.9c-3.7-7.3-6.9-14.9-9.7-22.7l109.1-63c0.7,8.8,2.7,17.1,5.8,25L69.8,348.9z
	 M185.9,403.6c-4.9,8.2-15.5,10.9-23.7,5.9c-8.2-4.9-10.8-15.5-5.9-23.7c4.9-8.2,15.5-10.9,23.7-5.9
	C188.1,384.8,190.8,395.4,185.9,403.6z M96.9,390.2c-5.3-6.3-10.3-13-14.9-19.9l105.1-60.8c5.3,6.8,11.6,12.9,18.7,17.9L96.9,390.2z
	 M187.2,202.5L82.1,141.8c4.6-7,9.6-13.6,14.9-20l109,62.8C198.9,189.6,192.5,195.7,187.2,202.5z M243,463.7
	c-8.1-0.5-16.1-1.5-24-2.9V334.9c7.5,3.5,15.5,6,24,7.3V463.7z M243,169.8c-8.5,1.3-16.5,3.7-24,7.3V51.2c7.9-1.4,15.9-2.4,24-2.9
	V169.8z M342.8,248c-0.8-8.7-2.9-17.1-6.1-24.9l105.1-60.8c3.7,7.3,7,14.9,9.8,22.7L342.8,248z M433.2,256c0,9.5-7.8,17.3-17.3,17.3
	c-9.6,0-17.3-7.8-17.3-17.3s7.8-17.3,17.3-17.3C425.5,238.7,433.2,246.5,433.2,256z M342.8,264l109,62.8c-2.8,7.8-6.1,15.3-9.8,22.6
	l-105.2-60.6C339.9,281.1,342,272.7,342.8,264z M322.5,108.4c4.9-8.2,15.5-10.8,23.7-5.9c8.2,4.9,10.9,15.5,5.9,23.7
	c-4.9,8.2-15.5,10.9-23.7,6C320.2,127.3,317.6,116.6,322.5,108.4z M414.6,121.3c5.4,6.3,10.4,13,15,19.9L324.4,202
	c-5.3-6.8-11.7-12.7-18.8-17.6L414.6,121.3z M292,461c-7.9,1.4-15.9,2.3-24,2.8V342.3c8.4-1.2,16.5-3.5,24-6.9V461z M292,176.6
	c-7.5-3.4-15.6-5.8-24-6.9V48.3c8.1,0.5,16.1,1.4,24,2.8V176.6z M324.4,310l105.2,60.7c-4.6,6.9-9.6,13.6-14.9,19.9l-109-63
	C312.7,322.7,319,316.8,324.4,310z M346.3,409.5c-8.2,4.9-18.8,2.3-23.7-5.9c-4.9-8.2-2.3-18.8,5.9-23.7c8.2-4.9,18.8-2.3,23.7,5.9
	C357.2,394,354.5,404.6,346.3,409.5z"/>
</svg>
