<?xml version="1.0" encoding="utf-8"?>
<!-- Generator: Adobe Illustrator 21.1.0, SVG Export Plug-In . SVG Version: 6.00 Build 0)  -->
<svg version="1.1" id="Layer_5" xmlns="http://www.w3.org/2000/svg" xmlns:xlink="http://www.w3.org/1999/xlink" x="0px" y="0px"
	 viewBox="0 0 512 512" style="enable-background:new 0 0 512 512;" xml:space="preserve">
<path d="M500.8,255.4c0-21.6-2.8-42.5-8-62.4l13.6-7.5c-2.5-20.8-16.1-37.6-34.2-45c-11.3-21.1-25.5-40.4-42.2-57.2l9.5-11.5
	C427,53.9,406.1,45.5,386,48.1c-19.1-12-39.9-21.4-62-27.7L324.4,5c-19.3-8.7-40.8-5.6-56.6,6.2c-3.8-0.2-7.6-0.3-11.5-0.3
	c-19.5,0-38.4,2.3-56.6,6.6l-5.4-12.7c-23.1,0-43,14-51.5,34.1C123.6,49,105.8,61.6,90,76.3l-6.6-8.6c-24.6,9.5-38.6,34.6-35.3,59.6
	c-10.4,16.9-18.9,35.2-25,54.6l-8.5-3.2C-4.1,199.2-4.7,230,12,251.2c0,1.4-0.1,2.9-0.1,4.3c0,17.3,1.8,34.2,5.2,50.5L9.2,307
	c-7.5,27.7,7.1,56.2,33.1,66.6c10.4,18.7,23.1,36,37.8,51.3l-8.1,6.4c9.8,24.5,34.9,38.2,59.9,34.6c17.4,10.3,36.1,18.5,55.8,24.3
	l-2.9,11.4c20.8,14.8,48.2,13.4,67.3-1.7c1.4,0,2.8,0.1,4.3,0.1c20.3,0,40.1-2.5,59-7.2l3.8,11.6c24.8,1.6,46.8-13.2,55.6-35
	c17.8-9.9,34.2-21.9,48.9-35.7l8.1,8.5c23.3-10.3,36.1-34.6,32.9-58.7c11.5-18.6,20.5-38.8,26.7-60.2l13.8,1.3
	c11-20,8.5-43.7-4.4-60.8C500.7,261,500.8,258.2,500.8,255.4z M256.4,405.2c-82.7,0-149.7-67.1-149.7-149.8
	c0-82.7,67-149.8,149.7-149.8c82.7,0,149.7,67.1,149.7,149.8C406.1,338.2,339.1,405.2,256.4,405.2z"/>
</svg>
