<?xml version="1.0" encoding="utf-8"?>
<!-- Generator: Adobe Illustrator 21.1.0, SVG Export Plug-In . SVG Version: 6.00 Build 0)  -->
<svg version="1.1" id="Layer_1" xmlns="http://www.w3.org/2000/svg" xmlns:xlink="http://www.w3.org/1999/xlink" x="0px" y="0px"
	 viewBox="0 0 467.2 512" style="enable-background:new 0 0 467.2 512;" xml:space="preserve">
<g>
	<path d="M392.7,128.5V80.3c0-44.3-36-80.3-80.3-80.3H154.8c-44.3,0-80.3,36-80.3,80.3v48.2c-38.3,13.8-66.9,47.8-73,89.1
		c103.6,0,360.4-0.1,464.2-0.1C459.5,176.2,430.9,142.3,392.7,128.5z M371.7,123.1c-5.6-0.9-11.4-1.3-17.3-1.3H112.8
		c-5.9,0-11.6,0.5-17.2,1.3V80.3c0-32.7,26.6-59.3,59.3-59.3h157.7c32.7,0,59.3,26.6,59.3,59.3V123.1z M0.3,240.1v211.2
		c0,33.5,27.2,60.7,60.7,60.7h345.4c33.5,0,60.7-27.2,60.7-60.7V240.9L0.3,240.1z M356.4,382.3h-7.8v80.3h-21.8v-80.3H319
		c-12.9,0-23.4-11.1-23.4-24.7c0-13.6,10.4-24.7,23.4-24.7h7.8v-35.5c0-6,4.9-10.8,10.9-10.8s10.9,4.8,10.9,10.8v35.5h7.8
		c12.9,0,23.4,11.1,23.4,24.7C379.7,371.2,369.3,382.3,356.4,382.3z M351.9,345.2h-28.4c-6.7,0-12.1,5.5-12.1,12.4
		s5.4,12.3,12.1,12.3h28.4c6.7,0,12.1-5.5,12.1-12.3S358.6,345.2,351.9,345.2z"/>
	<path d="M343.5,98c4.8,0.4,8.8-3.6,8.6-8.4c-0.5-9.1-2.6-23-10.9-32.6c-8.8-10.2-21.4-14.5-29.9-16.3c-4.8-1-9.4,2.6-9.6,7.6v0
		c-0.1,3.9,2.5,7.3,6.4,8.1c6.1,1.3,15.1,4.2,21.1,11.1c5,5.8,6.7,15.7,7,23C336.3,94.4,339.5,97.7,343.5,98L343.5,98z"/>
	<path d="M116.6,98c-4.8,0.4-8.8-3.6-8.6-8.4c0.5-9.1,2.6-23,10.9-32.6c8.8-10.2,21.4-14.5,29.9-16.3c4.8-1,9.4,2.6,9.6,7.6v0
		c0.1,3.9-2.5,7.3-6.4,8.1c-6.1,1.3-15.1,4.2-21.1,11.1c-5,5.8-6.7,15.7-7,23C123.7,94.4,120.6,97.7,116.6,98L116.6,98z"/>
</g>
</svg>
