<?xml version="1.0" encoding="utf-8"?>
<!-- Generator: Adobe Illustrator 21.1.0, SVG Export Plug-In . SVG Version: 6.00 Build 0)  -->
<svg version="1.1" id="Layer_4" xmlns="http://www.w3.org/2000/svg" xmlns:xlink="http://www.w3.org/1999/xlink" x="0px" y="0px"
	 viewBox="0 0 550 512" style="enable-background:new 0 0 550 512;" xml:space="preserve">
<path d="M385,93c0,0-222.9,0-224.4,0.1c-43.8,1.1-83.4,19.3-112.3,48.3C18.4,171.2,0,212.4,0,257.9c0,89.7,71.6,162.6,160.7,164.9
	c1.4,0,224.4,0.1,224.4,0.1c45.6,0,86.8-18.5,116.6-48.3c29.8-29.8,48.3-71.1,48.3-116.6C549.9,166.8,476.1,93,385,93z M164.9,389.4
	c-72.6,0-131.4-58.8-131.4-131.4s58.8-131.4,131.4-131.4s131.4,58.8,131.4,131.4S237.6,389.4,164.9,389.4z M385,389.4H264.6
	c39.7-30.1,65.3-77.8,65.3-131.4s-25.6-101.3-65.3-131.4H385c36.3,0,69.1,14.7,93,38.5c23.8,23.8,38.5,56.6,38.5,93
	C516.4,330.6,457.6,389.4,385,389.4z"/>
</svg>
