<?xml version="1.0" encoding="utf-8"?>
<!-- Generator: Adobe Illustrator 21.1.0, SVG Export Plug-In . SVG Version: 6.00 Build 0)  -->
<svg version="1.1" id="Layer_4" xmlns="http://www.w3.org/2000/svg" xmlns:xlink="http://www.w3.org/1999/xlink" x="0px" y="0px"
	 viewBox="0 0 512 512" style="enable-background:new 0 0 512 512;" xml:space="preserve">
<g>
	<path d="M99.5,0L99.5,0c-0.3,0-0.7,0-1,0C44.1,0,0,83.3,0,186v9.6h38.9V212H0c0,77.2,0,300,0,300h304V212h-38.6v-16.4H304V181
		c0-83,27.3-153.7,65.5-180L99.5,0z M108.9,212H55.4v-16.4h53.5V212z M178.9,212h-53.5v-16.4h53.5V212z M248.9,212h-53.5v-16.4h53.5
		V212z"/>
	<path d="M416,1c-53,0-96,83.3-96,186s43,186,96,186s96-83.3,96-186S469,1,416,1z M428.5,263c-20.2,0-36.5-34.5-36.5-76.9
		s16.3-76.9,36.5-76.9s36.5,34.4,36.5,76.9S448.7,263,428.5,263z"/>
</g>
</svg>
