<?xml version="1.0" encoding="utf-8"?>
<!-- Generator: Adobe Illustrator 21.1.0, SVG Export Plug-In . SVG Version: 6.00 Build 0)  -->
<svg version="1.1" id="Layer_6" xmlns="http://www.w3.org/2000/svg" xmlns:xlink="http://www.w3.org/1999/xlink" x="0px" y="0px"
	 viewBox="0 0 580 512" style="enable-background:new 0 0 580 512;" xml:space="preserve">
<g>
	<path d="M574.5,109.8H417.1c-3,0-5.4-2.5-5.4-5.4V28.5c0-3-2.4-5.5-5.4-5.5H173.8c-3,0-5.4,2.5-5.4,5.5v75.9c0,3-2.4,5.4-5.4,5.4
		H5.4c-3,0-5.4,2.5-5.4,5.4v104.4c0,3,2.4,5.4,5.4,5.4h251.7v-27.9h67V225h250.5c3,0,5.4-2.4,5.4-5.4V115.3
		C580,112.3,577.6,109.8,574.5,109.8z M378.9,104.4c0,3-2.4,5.4-5.4,5.4H206.5c-3,0-5.4-2.5-5.4-5.4V61.2c0-3,2.4-5.4,5.4-5.4h166.9
		c3,0,5.4,2.4,5.4,5.4V104.4z"/>
	<path d="M156.9,365.9c3.8,3.8,3.7,9.9,0,13.6c-3.8,3.8-9.9,3.8-13.6,0c-3.8-3.8-3.7-9.9,0-13.6C147,362.1,153.1,362.1,156.9,365.9z
		"/>
	<path d="M574.6,245.5H324.1v23.4h-67v-23.4H5.4c-3,0-5.4,2.5-5.4,5.4v239.7c0,3,2.4,5.4,5.4,5.4h569.1c3,0,5.4-2.5,5.4-5.4V250.9
		C580,247.9,577.6,245.5,574.6,245.5z M427.8,400.5l20.8,0.1l3.2,0c2,0.1,3.9,0.8,5.4,2.3c3,3,3,7.9,0.1,10.8l-0.5,0.5
		c-9.3,8.3-21.6,13-35.1,12.9c-19.7-0.2-37.1-11-46.6-26.9l-227.9-0.2c-6.9,0-13.8-2.9-19.1-8.2c-10.5-10.6-10.5-27.6,0-38.1
		c5.3-5.3,12.2-8.2,19.1-8.2l227.9,0.2c9.5-15.9,26.9-26.6,46.6-26.8c13.5-0.1,25.8,4.6,35.1,12.9l0.5,0.5c3,3,2.9,7.8-0.1,10.8
		c-1.5,1.5-3.5,2.3-5.4,2.3l-3.2,0l-20.9,0c-10.1,0-18.3,8.3-18.3,18.4v18.3C409.5,392.3,417.7,400.5,427.8,400.5z"/>
	<rect x="278.4" y="220" width="24.4" height="26.1"/>
</g>
</svg>
