<?xml version="1.0" encoding="utf-8"?>
<!-- Generator: Adobe Illustrator 21.1.0, SVG Export Plug-In . SVG Version: 6.00 Build 0)  -->
<svg version="1.1" id="Layer_1" xmlns="http://www.w3.org/2000/svg" xmlns:xlink="http://www.w3.org/1999/xlink" x="0px" y="0px"
	 viewBox="0 0 541.1 512" style="enable-background:new 0 0 541.1 512;" xml:space="preserve">
<g>
	<g>
		<path d="M398.3,320c-13.4-13.4-24.9-8.4-24.9-8.4s6-13-3.2-22.2l-15.5-15.5c-4.2-4.2-10.1-4.2-14.3,0l-20.1,21L79.4,53.9
			c0,0,4-15-2.4-21.3C70.6,26.2,23.7,2.2,23.7,2.2h-2.5L0,23.4h0.8c0,0,26,46.1,32.5,52.6s22.3,1.6,22.3,1.6L294.3,320l-21.8,21.8
			c-4.2,4.2-4.2,10.9,0,15.1l15.5,15.5c8.4,8.4,22.2,3.2,22.2,3.2s-6.7,13.1,6.7,26.6l98.9,98.9c13.4,13.4,35.3,14.3,47.8,1.7
			l36.9-36.9c11.7-12.6,10-32.7-3.4-47L398.3,320z M435.7,472.2c-5,5-10.9,6.7-13.4,4.2l-84.2-84.2c-2.5-2.5-0.8-8.4,4.2-13.4
			s10.9-6.7,13.4-4.2l85.1,84.2C443.2,462.2,440.7,468,435.7,472.2z M468.4,439.5c-5,5-10.9,6.7-13.4,4.2l-84.2-84.2
			c-2.5-2.5-0.8-8.4,4.2-13.4s10.9-6.7,13.4-4.2l85.1,85.1C475.9,429.5,473.4,435.3,468.4,439.5z M213.4,264.6L186.7,291l-3.9-3.9
			c-11.3-11.3-22.6-9-31.6,0L16.3,421.9c-13.5,13.5-6.7,27.6,5.9,40.2L59.1,499c12.6,11.7,25.9,19.4,40.2,5.9L234.1,370
			c10.3-10.3,9.5-22.2,0-31.6l-5.3-5.3l26.8-26.8L213.4,264.6z M534.6,177.3l-6.4-6.2c-6.3-6.3-14.2-10.3-22.2-11.3
			c-5.3-0.6-10.3,0.2-14.4,2.3l-16.9-16.9c6-6,13.5-14.4,2-25.9l-69.5-69.5C330.6-1.5,264.2,1,264.2,1s-4.6,4.6-5.3,5.3
			c0,0,28.1,7.2,52,21.1c23.5,13.7,31.7,26.5,31.7,26.5s-10-11.2-34-24.7c-24.1-13.5-51-21.5-51-21.5c-2.1,2.1-5.3,5.3-5.3,5.3
			s47.6,14.8,78.9,73c-0.9,3-1.2,6.2-0.9,9.5c0.6,7.3,4.1,14.9,10.3,21.1l16.2,15l-90.9,81.1l41.5,42l82.3-90.2l20.9,20.9
			c11.9,11.9,20.2,3.9,25.3-1.2l16.8,16.8c-2.1,4.2-3,9.1-2.3,14.5c1,8,5.3,14.8,11.6,21.2c2.8,2.8,10.5,10.5,10.5,10.5
			c7.3,7.3,19.5,4.2,26.3-2.6l36.9-36.9C543.8,199.7,542.3,185,534.6,177.3z"/>
	</g>
</g>
</svg>
