<?xml version="1.0" encoding="utf-8"?>
<!-- Generator: Adobe Illustrator 21.1.0, SVG Export Plug-In . SVG Version: 6.00 Build 0)  -->
<svg version="1.1" id="Layer_3" xmlns="http://www.w3.org/2000/svg" xmlns:xlink="http://www.w3.org/1999/xlink" x="0px" y="0px"
	 viewBox="0 0 450.8 512" style="enable-background:new 0 0 450.8 512;" xml:space="preserve">
<g>
	<path d="M450.7,121.5c-0.8-43.8-21.5-76.6-50.2-95.4C371.8,7,336.6,0.1,303,0c-25,0-57.9,4.6-77.7,13.6c-0.1,0-0.1,0-0.2-0.1
		c3.6,21,47.4,58.2,86.5,72.3C280,96.1,186.4,60.3,176.1,2c-11.7-1.7-25.1-2-28.3-2C114.2,0.1,79,7,50.4,26.1
		C21.7,45,1,77.8,0.1,121.5v0.2c0,2.7-0.1,5.4-0.1,8.3c-0.4,53.8,15.6,82.9,29.1,106.4C42.3,260.2,53.5,279,53.8,330
		c0.1,69.2,11.3,113.2,27.9,141.6C98,499.8,121.3,512,140.8,512h0.3c5.5,0,10.6-0.9,15.4-2.6c7.3-2.6,12.9-8.3,16-13.8
		c3.2-5.6,4.8-11.3,6-17.1c2.3-11.7,2.7-24.7,3-39c0.6-28.6,1-62.3,9.6-90.9c3.6-12.3,8.1-25.3,13.9-34c6-8.5,10.9-12.5,20.2-13.5
		c9.3,1,14.2,5,20.2,13.5c5.9,8.7,10.3,21.7,13.9,34c11.5,37.7,8.1,83.5,10.8,116.2c1.1,11.1,2.4,21,7.9,30.8
		c3.1,5.5,8.7,11.2,16.1,13.9c4.6,1.7,9.8,2.6,15.3,2.6h0.3c19.6,0,42.8-12.2,59.2-40.4c16.6-28.4,27.8-72.5,27.9-141.6
		c0.4-51,11.5-69.7,24.7-93.6c13.5-23.5,29.6-52.6,29.1-106.4C450.8,127.2,450.8,124.4,450.7,121.5z M100,149.3
		c0-16.1-12.5-28.7-28.6-28.7c16.1,0,28.6-12.6,28.6-28.7c0,16.1,12.6,28.7,28.6,28.7C112.6,120.6,100,133.2,100,149.3z"/>
</g>
</svg>
