<?xml version="1.0" encoding="utf-8"?>
<!-- Generator: Adobe Illustrator 21.1.0, SVG Export Plug-In . SVG Version: 6.00 Build 0)  -->
<svg version="1.1" id="Layer_4" xmlns="http://www.w3.org/2000/svg" xmlns:xlink="http://www.w3.org/1999/xlink" x="0px" y="0px"
	 viewBox="0 0 512 512" style="enable-background:new 0 0 512 512;" xml:space="preserve">
<path d="M512,62.2C513.2,14.4,350,0.6,261.8,0C196-0.2,134,4,86.4,13.3C30.7,24,1.9,39.4,0.1,59.6C0.1,60.3,0,61,0,61.7h0
	c0,17.9-0.1,39.1,7.6,55c4.4,9,9.7,18.5,15.8,29.3c1.5,2.7,3.1,5.5,4.7,8.4c5.2,9.3,8.7,19.5,11.7,30.7c1.6,6.1,12.4,56.5,23.4,82.3
	c38.9,91.4,98.4,141.6,114.5,168.4c2.3,3.8,16.2,24.6,28.9,47.7c9.7,17.6,28.2,28.5,48.3,28.5h23.6c24.4,0,46-16.1,52.8-39.5
	c1.8-6,3.5-12.4,5.2-19c3.3-12.9,7.5-52.1,4-72.3c-7.8-43.7,12.3-93.4,13.8-97.1c34.9-83.8,95.9-106,140.4-163.3
	C509.7,101.5,512,79.5,512,62.2L512,62.2z M325.9,454.1c-32.8,1.8-57.5,1.8-73,1.5c-18.6-0.4-37.2-1.7-52.6-3
	c-3.2-5.3-6.6-10.7-10.2-16.1c32.1,1.7,63.6,3,77.8,3.4c10.3,0.3,37.3,0.5,60.5,0.7C327.8,445.2,326.9,449.7,325.9,454.1z
	 M270.3,378.6c-29.9-0.9-91.9-3.4-131.6-6.4c-5.4-6.6-10.4-13-15-19.2c44.3,4.5,95.7,8.6,128.2,9.4c11.8,0.3,48.5,1,77.1,1.5
	c0.1,5.1,0.5,10.3,1.1,15.4C307.1,379.1,280.2,378.9,270.3,378.6z M337.1,302.7c-27.4-0.4-67.4-1.3-83.5-1.6
	c-44-1-125.2-8.7-170.9-14.5c-2.9-5.9-5.5-11.7-7.8-17.2c56.3,9,137.4,14.8,212.3,14.8h5.8c20,0,36.9,0,50.5,0
	C341,290.3,338.9,296.5,337.1,302.7z M378.5,223.2c-21.2,0-81.2,0.1-91.4,0.1c-81.7,0-171.3-7.3-223-18.3c-3.2-0.7-6.3-0.7-9.2-0.2
	c-0.2-0.9-0.4-1.8-0.6-2.6c-1.2-5.2-2.4-10.1-3.6-15c19.4,3.6,40.7,7.1,63.4,10.2c44.3,6,94,10.5,146.1,11.1c7,0.1,14,0.1,20.9,0
	c43.6-0.6,83.6-4.6,118.6-9.6C392.1,206.7,385,214.8,378.5,223.2z M480.1,122.9c-4.4,0.8-9.2,1.7-14.3,2.7
	c-46.6,8.8-117,22-205.6,21.7c-73.4-0.3-156.5-10.3-240.6-28.9c-5.8-11.2-8.1-24.3-9-37c37.5,31.6,165.3,41.4,238.5,42
	c58.6,0.5,114.4-3.5,159.2-10.7c6.1-1,11.2-1.8,17.3-2.8c27.8-5.3,49-11.8,63.3-19.5c4.1-2.2,7.6-4.5,10.6-6.9
	C496.7,96.4,490.8,110.4,480.1,122.9z"/>
</svg>
