<?xml version="1.0" encoding="utf-8"?>
<!-- Generator: Adobe Illustrator 21.1.0, SVG Export Plug-In . SVG Version: 6.00 Build 0)  -->
<svg version="1.1" id="Layer_1" xmlns="http://www.w3.org/2000/svg" xmlns:xlink="http://www.w3.org/1999/xlink" x="0px" y="0px"
	 viewBox="0 0 673 512" style="enable-background:new 0 0 673 512;" xml:space="preserve">
<g id="fill">
	<path d="M129.4,365.6c-40.2,0-72.7,32.6-72.7,72.7S89.3,511,129.4,511s72.7-32.6,72.7-72.7S169.6,365.6,129.4,365.6z M129.4,473.9
		c-19.7,0-35.6-15.9-35.6-35.6s15.9-35.6,35.6-35.6s35.6,15.9,35.6,35.6S149.1,473.9,129.4,473.9z"/>
	<path d="M509.7,365.6c-40.2,0-72.7,32.6-72.7,72.7s32.6,72.7,72.7,72.7s72.7-32.6,72.7-72.7S549.8,365.6,509.7,365.6z M509.7,473.9
		c-19.7,0-35.6-15.9-35.6-35.6s15.9-35.6,35.6-35.6s35.6,15.9,35.6,35.6S529.3,473.9,509.7,473.9z"/>
	<path d="M653.4,390.8V229.4c0-6.6-2-13-5.6-18.5L563.4,85c-8-11.6-21.1-18.6-35.2-18.6h-66.1V43.1c0-12.8-10.4-23.1-23.1-23.1l0,0
		c-12.8,0-23.1,10.4-23.1,23.1v130.3H303l0,0h-0.1v0.2l-163.5-118c0.1-1.5,0.2-3,0.2-4.5c0-29.8-25.2-53.6-55.4-51.4
		C58.8,1.6,38.4,22.1,36.7,47.4C35.8,60.9,40,73.3,47.7,83c-4.5,31.1,22.9,48.6,27.6,59.7c5.8,13.3-6.7,20.7-16.2,18.6
		c-3.5-0.8-5.5-6.8-6.5-11.9c-0.8-3.9-4.4-6.5-8.3-5.9c-4.5,0.6-7.4,5.2-6.1,9.5c3.9,12.5,14.2,33.4,38.4,21.8
		c33.7-16.2,15.8-42.8-0.4-58.5C68.6,108.9,62.9,102,60,94.2c8.1,5.3,17.7,8.3,28.1,8.3c7.5,0,14.5-1.6,20.9-4.4l193.9,140.1v41.3H9
		c0,0,0,141.6,0,141.8c-5,0-9,3-9,7.9s4,9,9,9l0,0l23.2,0.1v-0.1h3.6c0-54.8,44.1-93.6,93.6-93.6c49.6,0,93.6,40.6,93.6,93.6
		c2.1,0,4.3,0,6.4,0v0.1h177.1v-0.2c6.1,0,9.5,0,9.5,0c0-41.1,31.6-93.5,93.6-93.5c59.3,0,93.4,50.4,93.4,93.5
		c0,0,34.6,0.1,47.1,0.1s22.9-12.6,22.9-24.9C673,402.1,664,392.5,653.4,390.8z M88.1,70.2C77.6,70.2,69,61.6,69,51.1
		S77.5,32,88.1,32s19.1,8.6,19.1,19.1S98.7,70.2,88.1,70.2z M524.7,120.4c0.1,0.9,0.4,1.5,0.9,1.9v6.6l-1.9-0.9l-1,1
		c-0.3,1-0.5,2.2-0.5,3.5s0.2,2.5,0.5,3.5l1,1l5.9,3.5c0.3,0,0.6-0.5,1-1.5c0.3-1,0.5-2,0.5-3c0-1.3-0.2-2.5-0.5-3.5
		c-0.3-0.7-1.1-1.5-2.4-2.5l-1.5-0.7v-5.8L598,230H462.1V118.4h61.2L524.7,120.4z"/>
</g>
</svg>
