<?xml version="1.0" encoding="utf-8"?>
<!-- Generator: Adobe Illustrator 21.1.0, SVG Export Plug-In . SVG Version: 6.00 Build 0)  -->
<svg version="1.1" id="Layer_2" xmlns="http://www.w3.org/2000/svg" xmlns:xlink="http://www.w3.org/1999/xlink" x="0px" y="0px"
	 viewBox="0 0 250 512" style="enable-background:new 0 0 250 512;" xml:space="preserve">
<g>
	<g>
		<path d="M147.5,435.1c0,0-11.4-5.6-22.7-5.6c-11.5,0-23,5.6-23,5.6s5.2,17.5,4.5,34.7c-0.9,21-7.4,42.2-7.4,42.2s2.1,0,5.3,0
			c3.5-22.1,3.7-42.5,20.4-42.5c18.2,0,17.1,23.7,20.7,42.5c3.7,0,6,0,6,0s-5.9-22.7-6.9-43.5C143.5,451.1,147.5,435.1,147.5,435.1z
			 M179.7,463.4c-3.5-26.2,17.1-31.7,17.1-31.7s-13.1-4.8-23.8-2.8c-21.1,3.9-22.9,8.4-22.9,8.4s-3.8,12.7-3.8,28
			c0,27.4,7.6,46.6,7.6,46.6s2.2,0,5.7,0c-17.5-35.2,1.2-54.6,16.2-33.6c5.8,8.2,10.7,15.6,25.6,33.6c10.8,0,19.1,0,19.1,0
			S182.9,487.7,179.7,463.4z M100,437.7c0,0-1.8-4.5-22.9-8.3c-10.7-2-23.8,2.8-23.8,2.8s20.8,5.5,17.1,31.5
			c-3.3,24.1-41,48.3-41,48.3s8.4,0,19.1,0c15.1-17.9,19.8-25.3,25.7-33.5c15.1-21,33.6-1.5,16.2,33.5c3.5,0,5.7,0,5.7,0
			s7.7-19.2,7.7-46.5C103.8,450.3,100,437.7,100,437.7z M51.5,483.6c9.7-15.8,12.9-12,13.4-7.4c12.9-32.1-11.4-42.7-14.7-43.8
			c-19.2-6.6-24.4,3-24.4,3s38.8,1.2,23.8,36.2c-8.5,19.8-28.6,29.9-40.1,33.4c-4.7,1.4-9.6,0.9-9.6,0.9v6.2h20.5
			C27.7,507.2,44.4,495.2,51.5,483.6z M240.4,504.9c-11.4-3.5-31.6-13.6-40.1-33.4c-14.9-35,23.8-36.2,23.8-36.2s-5.2-9.6-24.4-3
			c-3.3,1.1-27.6,11.7-14.7,43.8c0.5-4.6,3.7-8.4,13.4,7.4c7.1,11.7,23.8,23.7,31,28.4H250v-6.2C250,505.8,245.2,506.3,240.4,504.9z
			 M121.1,35.6c0-0.7-0.7-1.3-1.4-1.3h-4.4c-0.8,0-1.4,0.6-1.4,1.3v13.6h7.4V35.6H121.1z M113.7,78.7c2.3-0.2,4.7-0.4,7.4-0.4V55.5
			h-7.4V78.7z M133.6,35.6c0-0.7-0.7-1.3-1.4-1.3h-4.4c-0.8,0-1.4,0.6-1.4,1.3v13.6h7.4V35.6H133.6z M126.3,78.3
			c2.6,0.1,5.1,0.2,7.4,0.4V55.5h-7.4V78.3z M112.4,35.1c0-1.2,1.1-2.2,2.4-2.2h5.4c1.3,0,2.4,1,2.4,2.2v43.2c0.4,0,0.8,0,1.2,0
			c0.4,0,0.8,0,1.2,0V34.9c0-1.1,1-2,2.2-2h5.7c1.2,0,2.2,0.9,2.2,2v43.9c0.7,0.1,1.3,0.2,2,0.2V34c0-1.4-1.2-2.4-2.6-2.4h-21.3
			c-1.4,0-2.6,1.1-2.6,2.4v44.9c0.7-0.1,1.2-0.2,1.9-0.2C112.4,78.7,112.4,35.1,112.4,35.1z M121.1,50.9h-7.4v2.8h7.4V50.9z
			 M133.6,50.9h-7.4v2.8h7.4V50.9z M167,419.9c2.1,0.2,4,0.4,5.6,0.6l-4.1-10.1c-1.6-0.2-3.4-0.3-5.3-0.4L167,419.9z M150.7,339.6
			l1,7.9c1.5,0.2,3,0.5,4.2,0.8l-0.9-7.9l0,0c-1.1-0.2-2.4-0.5-3.8-0.7C150.9,339.6,150.8,339.6,150.7,339.6z M162.2,407.2
			c1.9,0.1,3.6,0.3,5.3,0.4c-1.5-4.8-4-15-4.9-19c-1.4-0.2-3-0.3-4.6-0.5C158.7,391.6,160.7,402,162.2,407.2z M151.6,349.6
			c0.2,2.2,2.5,20.8,4.3,29.9c1.5,0.1,3.1,0.3,4.5,0.4c-1.5-8.6-3.6-24.4-4.3-29.4l0,0C154.8,350.1,153.4,349.8,151.6,349.6z
			 M128.7,139.1c2.7,0.1,5.3,0.1,7.6,0.3h0.7v-9.2c-2.6-0.4-5.4-0.6-8.4-0.8v9.7H128.7z M157.4,385.4l4.5,0.5l-0.5-3.2l-4.5-0.5
			L157.4,385.4z M104.4,92.8v-5.2h1.9v5.2c2.5-0.6,6.4-0.6,10.2-1.2v-4.1h1.9v4.1h9.6v-3.5h1.9v4.1c3.2,0,6.4,0.6,10.2,1.2v-4.7h1.9
			V94c0.7,0.3,1.4,0.4,2.2,0.6c0.8,0.1,1.6,0.3,2.2,0.6V83c-0.1-1.5-15.2-2.6-23.3-2.5c-11.9,0.1-22.1,1-23.3,2.4v10.5l0.7,0.6
			C101.2,93.4,102.5,93.4,104.4,92.8z M149.1,432.5c1.9-1.2,10.7-4.4,20.9-5c-1-0.9-3.1-3.7-4-5.1c-7.7-0.6-17.8-1.1-29.3-1.3l1,6.7
			C137.6,427.9,145.3,430.2,149.1,432.5z M108.2,336c0.7-14.1,1.2-30.5,1.2-44.6c-2.9,0.2-5.3,0.4-7.6,0.7
			c-1.2,15.7-2.6,31.5-3.8,44.4C101.2,336.4,104.6,336.2,108.2,336z M95.5,285.9c1.4-0.4,3.2-0.7,5.2-1c1.2-14.1,1.9-31.8,2.4-48.1
			c-1.6,0.2-3.2,0.4-4.5,0.6C98,254.3,97.4,271.9,95.5,285.9z M93,379.1c4.2-0.3,13.2-0.6,13.2-0.6s0.7-20,1.2-30.5
			c-4,0.2-7.6,0.4-10.9,0.7C95.4,359.7,94.8,370.2,93,379.1z M95.4,291.3c1.4-0.4,3.1-0.7,5.1-1l0.2-3.4c-2,0.3-3.7,0.6-5.3,1
			C95.5,288.9,95.4,290.1,95.4,291.3z M96.8,346.6c3.3-0.3,6.8-0.5,10.8-0.7h0.1l0.5-7.8c-3.7,0.1-7.1,0.4-10.3,0.6L96.8,346.6z
			 M164.6,419.7c-0.7-1.7-2.4-6.5-3.5-10c-7.3-0.5-16.2-0.8-25.9-1l0.9,9.7C147.1,418.7,157,419.1,164.6,419.7z M135.2,427.4
			l-1.2-6.3c-3.7-0.1-7.7-0.1-11.6-0.1c-6.2,0-12.1,0.1-17.6,0.2l-1.2,8.8c0,0,12.3-3.9,21.3-3.9
			C128.7,426.1,135.2,427.4,135.2,427.4z M91.6,385c4.2-0.3,8.9-0.5,14.1-0.7l0.2-3.2c-5.2,0.2-9.6,0.4-13.7,0.7
			C92.2,382.6,91.9,384.3,91.6,385z M86.7,406.9c5.2-0.3,11.1-0.5,17.5-0.7c0.2-2.8,0.9-12.9,1.4-19.2c-5.2,0.2-10,0.4-14.2,0.7
			C89.9,394.1,87.4,404.3,86.7,406.9z M102.5,140c1.5-0.2,3.3-0.3,5.2-0.5v-8.9c-1.9,0.3-3.5,0.7-5.2,1.2V140z M107.6,113.4
			c-1.9,0.3-3.5,0.7-5.2,1.1v15.1c1.5-0.4,3.3-0.8,5.2-1.1V113.4z M98.2,164.2c1.2,2,1.6,3.9,1.6,4.2v7.1c1.2-0.3,2.4-0.7,3.8-0.9
			c-0.7-4.5-1.2-7.4-1.2-7.9l-7-9.9c-1.9,0.6-3.2,0.6-3.2,0.6v1.7C95.2,160,97,162.2,98.2,164.2z M96.2,149.8H98v5.8
			c2.5-0.6,7-0.6,12.1-1.2v-4.7h1.9v4.1c5.2,0,12.1-0.6,19.1,0v-4.7h1.9v4.7c5.2,0,10.9,0.6,16.6,1.2v-5.8h1.9v5.8
			c0.7,0.6,1.3,0.6,2.5,0.6V155l-1.9-1.7v-9.9c-0.1-0.1-0.4-0.3-1-0.4c-4.4-1-21.5-1.5-28.1-1.4c-6.7,0.2-23.2,0.2-28,1.4
			c-0.4,0.1-0.8,0.2-1,0.4v8.7l-1.3,1.7v2.3c0,0,1.3-0.6,3.2-0.6v-5.7H96.2z M108.2,111.2V96.3l-3.2-1.2c-1.3,0-3.2,0.6-3.2,0.6
			l0.7,0.6v16.1c0.2-0.1,0.4-0.1,0.7-0.2c1.4-0.3,3-0.7,4.6-0.9C107.9,111.3,108.1,111.2,108.2,111.2z M99.3,235.3
			c1.3-0.2,2.9-0.4,4.5-0.6v-3.3c-1.6,0.2-3.1,0.4-4.5,0.6V235.3z M96.6,338.8c-2.1,0.2-4.1,0.4-5.8,0.6l-1.2,7.9
			c1.9-0.3,3.8-0.5,6-0.7L96.6,338.8z M78.1,422.6c-1.9,0.2-3.5,0.3-4.9,0.5l-0.7,3.1h3.2L78.1,422.6z M76.3,420.1
			c0.3,0,0.5-0.1,0.9-0.1l2.4-0.2l3.6-9.9c-2.3,0.2-4.4,0.3-6.4,0.5l-3.1,10c0.2,0,0.5-0.1,0.9-0.1L76.3,420.1z M95.5,348.8
			c-2.3,0.2-4.4,0.5-6.3,0.7c-1.9,11.2-3.8,21.9-5.2,30.4c2.1-0.2,4.5-0.4,7-0.6C93,370.6,94.2,360.1,95.5,348.8z M88.9,387.9
			l-6.7,0.7l-5.2,19c2.1-0.2,4.5-0.4,7-0.5L88.9,387.9z M90.3,382c-2.6,0.2-4.9,0.4-7,0.7c-0.2,1.1-0.4,2.7-0.5,3.2
			c2.1-0.2,4.4-0.5,7-0.7C89.9,384.5,90.2,382.8,90.3,382z M126.8,112.2c-1.1,0-2.3-0.1-3.4-0.1c-1.4,0-2.9,0-4.2,0.1v15.1
			c1.4-0.1,2.7-0.1,4.2-0.1c1.2,0,2.3,0,3.4,0.1V112.2z M144.1,96.9l1.3-1.2c-1.3,0-2.5-0.6-3.2-0.6l-3.2,1.2v15.2
			c1.9,0.3,3.5,0.7,5.2,1.1V96.9H144.1z M117.8,95.7l-1.3-2.3c-3.2,0-6.4,0.6-8.9,1.2l1.9,0.6V111c1.8-0.2,3.5-0.4,5.4-0.6
			c0.8-0.1,1.4-0.1,2.3-0.2h0.1c0.2,0,0.4,0,0.5,0V95.7z M144.1,131.5c-1.6-0.4-3.3-0.8-5.2-1.1v9c1.9,0.1,3.6,0.3,5.2,0.5V131.5z
			 M128.7,112.3v15.1c3,0.2,5.7,0.4,8.4,0.8v-15.1C134.4,112.7,131.6,112.4,128.7,112.3z M130,93.4V94l-1.3,2.3v14
			c3,0.2,5.7,0.5,8.4,0.9V95.7l2.5-1.2C136.4,94,133.2,93.4,130,93.4z M144.1,114.5c-1.5-0.4-3.3-0.8-5.2-1.1v15.1
			c1.9,0.3,3.5,0.7,5.2,1.1V114.5z M119.1,139c1.1,0,2.9,0,4.1,0c1.4,0,2.1,0,3.5,0v-9.7c-1,0-2,0-3,0c-1.5,0-3.1,0-4.6,0.1V139z
			 M117.8,112.3c-2.6,0.1-5.1,0.4-7.5,0.7c-0.3,0.1-0.5,0.1-0.9,0.2h0.7v15c2.4-0.3,4.9-0.6,7.7-0.7
			C117.8,127.5,117.8,112.3,117.8,112.3z M110.1,139.3c2.4-0.1,4.9-0.2,7.7-0.3v-9.6c-2.6,0.2-5.3,0.4-7.7,0.8V139.3z M126.8,95.7
			l1.3-2.3c-3.2-0.6-6.4,0-10.2,0l1.3,2.3v14.5h7.7V95.7H126.8z M149.8,287.7c-1.1-0.2-2.4-0.5-3.8-0.7l0.2,3.4
			c1.4,0.2,2.6,0.4,3.8,0.7L149.8,287.7z M130.5,285.7v3.3c5.3,0.2,10.1,0.6,14.1,1.1c0-0.9,0-2.3-0.3-3.4
			C140.4,286.3,135.7,285.9,130.5,285.7z M142.6,176.5c-0.5,3.4-0.5,7.3-0.5,11.7v6.4c0.7,12.2,0.7,23.8,1.3,34.8
			c1.3,0.2,2.6,0.3,3.8,0.5c-0.7-22.3-0.7-40.6,0-52.3C145.8,177.2,144.3,176.8,142.6,176.5z M130.7,291.1
			c0.5,13.5,0.5,29.5,1.2,44.9c0.2,0,0.3,0,0.5,0.1l0,0c5.7,0.2,10.9,0.6,15.2,1.1l0,0c0.3,0,0.7,0.1,1,0.1
			c-1.2-13.4-2.5-29.4-3.7-45C140.8,291.7,135.9,291.3,130.7,291.1z M140.2,338.5c-0.5,0-1.2-0.1-1.8-0.1l0,0
			c-2.1-0.1-4.3-0.2-6.6-0.3v7.7c6.8,0.3,12.9,0.7,17.7,1.4l-0.9-7.9C146.3,339,143.4,338.8,140.2,338.5L140.2,338.5z M130.5,283.6
			c5.3,0.2,10,0.6,14,1.1c-1.2-14.6-1.8-32-2.4-48c-3.6-0.4-7.7-0.7-12.2-0.8C130,250.3,130.5,268.1,130.5,283.6z M143.4,236.8
			c0.7,16.1,1.9,34,2.4,48.1c1.4,0.2,2.6,0.4,3.8,0.7c-1.1-14.9-1.8-32.4-2.4-48.2C146,237.2,144.8,237,143.4,236.8z M130,233.8
			c4.2,0.1,8,0.4,11.5,0.7v-3.3c-3.4-0.3-7.4-0.6-11.5-0.7V233.8z M143.4,234.8c1.3,0.2,2.6,0.3,3.8,0.5V232
			c-1.2-0.2-2.4-0.4-3.8-0.5V234.8z M123.3,291c-4,0-7.8,0.1-11.3,0.3c-0.5,13.5-1.2,29.3-1.9,44.7c3.2-0.1,6.6-0.2,10-0.2
			s6.6,0.1,9.8,0.1c-0.7-15.4-1.2-31.4-1.3-44.9C126.9,291,125.2,291,123.3,291z M129.3,174.8c0,11.6,0.7,31.4,0.7,53.6
			c4.2,0.1,8,0.4,11.4,0.7c-0.7-11-1.2-22.5-1.2-34.6l0.1-18.6C137,175.4,133.3,175,129.3,174.8z M133.4,380.9l0.3,3.3
			c8.2,0.2,15.7,0.5,21.8,1c-0.2-1.2-0.5-3.2-0.5-3.2S141.5,381.1,133.4,380.9z M104,408.9c-6.6,0.2-12.6,0.4-17.9,0.7l-3.8,10
			c5.8-0.4,12.9-0.7,20.7-0.9L104,408.9z M160.2,407.1c-1.4-5.2-3.7-15.5-4.4-19.1c-6-0.5-13.6-0.9-22.1-1.1
			c0.2,2.9,0.9,13.9,1.2,19.3C144.5,406.3,153.2,406.6,160.2,407.1z M78.2,426.7c0,0,12.1,2.9,19.1,5.8c0.3,0,0.8-0.3,1.4-0.7
			c0.7-0.4,2.4-1.1,2.4-1.1l1.3-9.5c-8.2,0.2-15.6,0.6-21.6,1L78.2,426.7z M106.4,195.2c-0.7,11.5-0.7,23-1.2,34
			c2-0.2,4.1-0.4,6.4-0.5c0.7-22.4,1.2-41.9,1.3-53.5c-2.4,0.2-4.7,0.6-6.9,0.9c0.5,3.5,0.4,8.8,0.4,13.3V195.2z M113.3,234
			c3.2-0.2,6.5-0.2,10-0.2c1.6,0,3.2,0,4.7,0.1v-3.3c-1.5,0-3.1-0.1-4.7-0.1c-3.5,0-6.8,0.1-10,0.2V234z M112.1,283.8
			c3.5-0.2,7.3-0.3,11.2-0.3c1.9,0,3.6,0,5.4,0.1c0-16.1-0.7-33.4-0.7-47.7c-1.5,0-3.1-0.1-4.7-0.1c-3.5,0-6.8,0.1-10,0.2
			C113.3,250.4,112.7,268.2,112.1,283.8z M123.3,174.7c-2.9,0-5.6,0.1-8.1,0.3c0,12.2-1.1,31.4-1.8,53.6c3.2-0.2,6.5-0.2,10-0.2
			c1.6,0,3.2,0,4.7,0.1c-0.7-22.3-0.2-41.5-0.2-53.6C126.4,174.7,124.8,174.7,123.3,174.7z M105.2,418.6c5.5-0.1,11.2-0.2,17.3-0.2
			c3.8,0,7.6,0,11.2,0.1l-0.9-9.7c-3.4,0-6.8-0.1-10.3-0.1c-5.6,0-11,0.1-16.2,0.2L105.2,418.6z M150.1,293.1
			c-1.1-0.3-2.1-0.4-3.5-0.6c1.2,15.7,2.4,31.5,3.7,45c1.4,0.2,2.7,0.4,3.8,0.6C153,324.1,151.3,307.8,150.1,293.1z M144.8,348.7
			c-2.1-0.1-4.5-0.3-6.9-0.5h-0.1c-1.9-0.1-3.8-0.2-5.9-0.3c0.7,10.7,0.7,20.8,1.2,30.4c7.9,0.2,15.1,0.5,21,0.9
			c-1.2-9-4-27.4-4.4-30C148.2,349.1,146.6,348.9,144.8,348.7z M99.3,229.9c1.3-0.2,2.9-0.4,4.5-0.6c0.7-11,1.3-22.6,1.3-34.7v-6.4
			c0-3.9,0-8.4-0.5-11.8c-1.6,0.3-3.2,0.7-4.5,1.1C99.9,196.5,99.9,213.8,99.3,229.9z M111.9,285.9l-0.1,3.3
			c3.6-0.2,7.5-0.3,11.5-0.3c1.9,0,3.6,0,5.4,0.1v-3.3c-1.8,0-3.5-0.1-5.4-0.1C119.2,285.6,115.4,285.7,111.9,285.9z M154.2,158
			c-1.3-0.6-1.9-0.6-3.2-0.6l-7,9.3c0,0.6-0.7,3.7-1.3,8.1c1.6,0.4,3.1,0.8,4.5,1.2v-8.1c0-5.2,5.1-8.1,7-8.1L154.2,158L154.2,158z
			 M97.4,156.8l7,9.3c0,0,1.2,3.2,1.3,8.1c2.2-0.4,4.5-0.7,7-0.9v-10.7l-3.2-7C104.4,155.6,100.5,156.2,97.4,156.8z M111.4,155.6
			l3.8,6.4v11.1c2.4-0.2,5.1-0.3,7.6-0.3c1.8,0,3.5,0,5.2,0.1v-11.5l2.5-5.8C123.6,155.1,117.1,155.6,111.4,155.6z M132.5,155.6
			l-3.2,6.4v11c4.2,0.2,8.1,0.7,11.5,1.4c0.7-5,1.2-8.3,1.2-8.3l7-9.3c-2.9-0.3-5.7-0.6-8.6-0.8
			C137.8,155.8,135.1,155.6,132.5,155.6z M106.4,406.2c5.1-0.1,10.4-0.2,15.9-0.2c3.5,0,6.9,0,10.2,0.1c-0.4-5.4-0.9-16.3-1.1-19.3
			c-3-0.1-6-0.1-9.2-0.1c-5.2,0-10,0.1-14.7,0.2C107,393.3,106.5,403.3,106.4,406.2z M108.2,378.4c4.4-0.1,9.1-0.2,14-0.2
			c3.1,0,6,0,8.9,0.1c-0.5-9.1-1.1-28.1-1.2-30.5c-3.1-0.1-6.4-0.1-9.8-0.1c-3.7,0-7.3,0.1-10.7,0.2
			C109.5,350.3,108.9,369,108.2,378.4z M130,345.8V338c-3.1-0.1-6.4-0.1-9.8-0.1c-3.5,0-6.8,0.1-10.1,0.2l-0.5,7.8
			c3.4-0.1,6.9-0.2,10.7-0.2C123.5,345.6,126.8,345.7,130,345.8z M102.1,290.1c2.3-0.3,4.9-0.5,7.7-0.7l0.2-3.3
			c-2.7,0.2-5.4,0.4-7.7,0.7L102.1,290.1z M102.5,284.7c2.3-0.3,4.8-0.5,7.7-0.7c0.5-16.1,0.5-33.4,1.2-47.8
			c-2.3,0.1-4.4,0.3-6.4,0.5C104.4,252.7,103.2,270.6,102.5,284.7z M105.1,234.6c2-0.2,4.1-0.4,6.4-0.5v-3.3
			c-2.3,0.1-4.4,0.3-6.4,0.5V234.6z M171.4,426.1h5.2l-2-2.7c-1.6-0.2-3.5-0.5-5.7-0.7L171.4,426.1z M100.4,292.4
			c-2,0.3-3.7,0.6-5.2,1c-1.2,15.8-3,31.2-4.3,44c1.8-0.2,3.6-0.4,5.7-0.6C98,323.8,99.2,308.1,100.4,292.4z M123.6,24
			c4.1,0,7.8,0.9,10.3,2.3c0.1-0.8,0.2-1.6,0.2-2.5c0-6.6-5.4-10.2-8.4-11.7L123.7,1l-2.1,11.1c-3.1,1.5-8.4,5.1-8.4,11.7
			c0,0.8,0.1,1.6,0.2,2.4C116,24.9,119.7,24,123.6,24z M113.6,28.1v2l20.3,0.1v-2c-2.5-1.4-6.2-2.3-10.3-2.3
			C119.7,25.8,116,26.7,113.6,28.1z M108.5,381.1c-0.1,0-0.3,0-0.4,0l-0.1,3.1c4.6-0.1,9.3-0.1,14.4-0.1c3.1,0,6.2,0,9.1,0.1
			l-0.2-3.2v-0.2l-10,0.1c-0.9,0-1.6,0-2.5,0c-0.2,0-0.3,0-0.5,0c-0.8,0-1.5,0-2.2,0c-2.9,0-5.6,0.1-8.2,0.2H108.5z M122.2,380.9
			L122.2,380.9C122.3,380.9,122.2,380.9,122.2,380.9L122.2,380.9z"/>
	</g>
</g>
</svg>
