<?xml version="1.0" encoding="utf-8"?>
<!-- Generator: Adobe Illustrator 21.1.0, SVG Export Plug-In . SVG Version: 6.00 Build 0)  -->
<svg version="1.1" id="Layer_2" xmlns="http://www.w3.org/2000/svg" xmlns:xlink="http://www.w3.org/1999/xlink" x="0px" y="0px"
	 viewBox="0 0 696 512" style="enable-background:new 0 0 696 512;" xml:space="preserve">
<g>
	<path d="M601.7,176.5l17.5-79.6c-62.8-8.8-88.1,33.9-104.5,69.5c-94.4,10.3-168.6,87.7-174,183.5h-22.8c-0.1-2.9-0.2-5.9-0.2-8.9
		c0-48.4,17.5-92.8,46.4-127.2l-2.9-2.9l9.8-8c0.8,0.4,1.8,0.7,2.8,0.8c4.3,0.4,8.1-2.7,8.5-6.9c0.4-4.3-2.7-8.1-7-8.5
		s-8.1,2.7-8.5,6.9c-0.1,1,0,2,0.3,3l-10.3,8.4l-22-22l19.9-19.9c18.8,16.7,39.7,23.4,47.5,15.1c8.1-8.7-1-30.2-20.3-48.2
		c-19.3-17.9-41.4-25.5-49.5-16.8c-7.5,8-0.3,27.1,16.1,44.1l-19.8,19.8L311.2,161c-4.1-4.1-9.7-6.4-15.5-6.4h-24.8V66.9
		c0-6-5-11-11.1-11h-2.2V31.7c0-7.7,6.2-13.9,13.9-13.9c0.7,0,1.3,0,1.9,0.1v-15c-1-0.1-2-0.2-3-0.2c-14.9,0-27,12.1-27,27v26.2
		h-5.3c-6.2,0-11.1,4.9-11.1,11v87.7H84.3c-24.2,0-43.8,19.6-43.8,43.8l-0.1,107c1.6-0.6,3.1-1.2,4.7-1.7
		c15.1-6.7,31.8-10.4,49.5-10.4c52.9,0,97.9,33.7,114.8,80.7h157.3v-15.6c1.5-92.3,76.8-166.7,169.5-166.7
		c51.9,0,98.4,23.3,129.5,60.1c9.8-2.2,19.9-3.6,30.3-4C672.9,215.2,640.1,190,601.7,176.5z M341.1,121c4.5-4.8,20.1,2.6,34.9,16.4
		s23.2,28.9,18.8,33.7c-4.5,4.8-20.1-2.6-34.9-16.4C345.1,140.8,336.7,125.8,341.1,121z"/>
	<circle cx="95.3" cy="416.4" r="17.4"/>
	<circle cx="95.3" cy="386.6" r="4"/>
	<circle cx="95.3" cy="446.3" r="4"/>
	<circle cx="125.2" cy="416.4" r="4"/>
	<circle cx="65.4" cy="416.4" r="4"/>
	<path d="M674.6,365.9c0.1-1.6,0.1-3.1,0.1-4.7c0-12.2-1.6-24-4.5-35.3l7.7-4.3c-1.4-11.8-9.1-21.2-19.4-25.5
		c-6.4-11.9-14.4-22.8-23.9-32.3l5.4-6.5c-7-10.1-18.8-14.8-30.2-13.3c-10.8-6.8-22.5-12.1-35-15.7l0.2-8.7
		c-10.9-4.9-23.1-3.2-32,3.5c-2.1-0.1-4.3-0.2-6.5-0.2c-11,0-21.7,1.3-32,3.7l-3.1-7.2c-13.1,0-24.3,7.9-29.1,19.3
		c-10.9,5.7-20.9,12.9-29.9,21.2l-3.7-4.9c-13.9,5.4-21.8,19.5-19.9,33.7c-5.9,9.6-10.7,19.9-14.1,30.8l-4.8-1.8
		c-10.6,11.6-11,29-1.5,41c0,0.8,0,1.6,0,2.4c0,9.8,1,19.3,3,28.5l-4.5,0.6c-4.2,15.6,4,31.7,18.7,37.6c5.9,10.6,13.1,20.3,21.4,29
		l-4.6,3.6c5.5,13.8,19.7,21.6,33.9,19.6c9.8,5.8,20.4,10.5,31.6,13.7l-1.6,6.5c11.7,8.4,27.3,7.6,38.1-1c0.8,0,1.6,0,2.4,0
		c11.5,0,22.7-1.4,33.3-4.1l2.2,6.6c14,0.9,26.5-7.4,31.4-19.8c10-5.6,19.3-12.4,27.6-20.2l4.6,4.8c13.2-5.8,20.4-19.6,18.6-33.2
		c6.5-10.5,11.6-21.9,15.1-34.1l7.8,0.7C683.4,389,681.9,375.6,674.6,365.9z M536.5,445.9c-46.8,0-84.7-37.9-84.7-84.7
		s37.9-84.7,84.7-84.7s84.7,37.9,84.7,84.7S583.3,445.9,536.5,445.9z"/>
	<path d="M138.3,447.1c-16.9,23.6-49.8,29-73.4,12.1s-29-49.8-12.1-73.4s49.8-29,73.4-12.1C149.9,390.6,155.3,423.5,138.3,447.1
		 M191.2,412.4c-0.1-5.2-1-11.6-2.3-16.9c0,0-0.3-1.1-1.4-1.5c-1.1-0.4-1.8-0.6-2.4-0.8c-0.3-0.1-0.5-0.3-0.6-0.6
		c-0.1-0.3,0-0.7,0.2-0.9l0,0c0.4-0.5,0.9-1.1,1.7-1.9c0,0,0.8-0.9,0.4-2c-1.5-5-4-11-6.6-15.7c0,0-0.6-1-1.7-1.1
		c-1.1-0.1-1.9-0.1-2.5-0.2c-0.3,0-0.6-0.2-0.7-0.5c-0.2-0.3-0.2-0.7,0-0.9l0,0c0.3-0.5,0.6-1.3,1.1-2.3c0,0,0.5-1-0.1-2
		c-2.7-4.5-6.7-9.6-10.5-13.5c0,0-0.8-0.8-1.9-0.6c-1.1,0.2-1.9,0.4-2.5,0.5c-0.3,0-0.6,0-0.8-0.3c-0.2-0.2-0.3-0.6-0.2-0.9l0,0
		c0.1-0.6,0.3-1.4,0.5-2.5c0,0,0.2-1.1-0.6-1.9c-3.8-3.6-8.9-7.5-13.6-10.3c0,0-1-0.6-2-0.1s-1.7,0.9-2.2,1.1
		c-0.3,0.1-0.6,0.1-0.9,0c-0.3-0.2-0.5-0.5-0.5-0.8l0,0c0-0.6-0.1-1.4-0.2-2.5c0,0-0.1-1.1-1.1-1.7c-4.6-2.5-10.6-5-15.8-6.5
		c0,0-1.1-0.3-2,0.4c-0.9,0.8-1.4,1.3-1.9,1.7c-0.2,0.2-0.5,0.3-0.9,0.2c-0.3-0.1-0.6-0.3-0.7-0.7l0,0c-0.2-0.6-0.4-1.3-0.8-2.4
		c0,0-0.4-1.1-1.5-1.4c-5.1-1.2-11.5-2.1-16.9-2.1c0,0-0.1,0-0.2,0c-0.3,0-1.1,0.2-1.6,0.9c-0.6,0.9-1.1,1.6-1.4,2.1
		c-0.2,0.2-0.4,0.4-0.8,0.4c-0.3,0-0.7-0.2-0.8-0.5l0,0c-0.3-0.5-0.8-1.2-1.4-2.1c0,0-0.6-1-1.8-0.9c-5.2,0.1-11.6,1-16.9,2.3
		c0,0-1.1,0.3-1.5,1.4s-0.6,1.8-0.8,2.4c-0.1,0.3-0.3,0.5-0.6,0.6c-0.3,0.1-0.7,0-0.9-0.2l0,0c-0.1-0.1-0.2-0.1-0.3-0.2
		c-0.1-0.1-0.2-0.2-0.4-0.3c-0.1-0.1-0.3-0.2-0.4-0.3c-0.1-0.1-0.2-0.2-0.3-0.3c-0.2-0.2-0.4-0.3-0.6-0.5c0,0-0.9-0.8-2-0.4
		c-5,1.5-11,4-15.7,6.6c0,0-1,0.6-1.1,1.7s-0.1,1.9-0.2,2.5c0,0.3-0.2,0.6-0.5,0.7c-0.2,0.1-0.4,0.1-0.7,0.1
		c-0.5-0.3-1.3-0.6-2.4-1.2c-0.3-0.1-0.5-0.2-0.8-0.2c-0.4-0.1-0.9-0.1-1.4,0.3c-3.1,1.9-6.4,4.3-9.5,6.9c-1.4,1.2-2.8,2.3-4,3.5
		c-0.2,0.2-0.4,0.5-0.5,0.7c-0.2,0.3-0.3,0.8-0.2,1.3c0.3,1.3,0.4,2.2,0.6,2.7c0,0.2-0.1,0.4-0.3,0.5c-0.2,0.2-0.5,0.3-0.8,0.3
		c-0.6-0.1-1.3-0.3-2.5-0.5c-1.1-0.2-1.9,0.6-1.9,0.6c-3.8,3.9-7.7,9-10.5,13.5c-0.6,1-0.1,2-0.1,2c0.5,1,0.9,1.7,1.1,2.3l0,0
		c0.2,0.3,0.2,0.6,0,0.9s-0.4,0.4-0.7,0.5c-0.6,0-1.4,0.1-2.5,0.2s-1.7,1.1-1.7,1.1c-2.6,4.8-5.1,10.7-6.6,15.7
		c-0.3,1.1,0.4,2,0.4,2c0.7,0.8,1.3,1.4,1.7,1.9l0,0c0.2,0.2,0.3,0.6,0.2,0.9c-0.1,0.3-0.3,0.5-0.6,0.6c-0.5,0.2-1.3,0.4-2.4,0.8
		s-1.4,1.5-1.4,1.5C1,400.8,0.1,407.2,0,412.4c0,1.1,0.9,1.8,0.9,1.8c0.3,0.2,0.7,0.4,0.9,0.6c0.2,0.1,0.3,0.2,0.4,0.3
		c0.2,0.1,0.4,0.3,0.6,0.4c0.1,0,0.1,0.1,0.2,0.1l0,0c0.3,0.2,0.5,0.5,0.5,0.8s-0.2,0.6-0.4,0.8C2.6,417.5,2,418,1,418.6
		s-0.9,1.8-0.9,1.8c0.1,5.4,0.9,11.9,2.1,16.9c0.3,1.1,1.4,1.5,1.4,1.5c1.1,0.4,1.8,0.6,2.4,0.8l0,0c0.3,0.1,0.6,0.3,0.7,0.7
		c0.1,0.3,0,0.6-0.2,0.9c-0.4,0.4-0.9,1-1.7,1.9s-0.4,2-0.4,2c1.5,5.2,3.9,11.2,6.5,15.8c0.6,1,1.7,1.1,1.7,1.1
		c1.1,0.1,1.9,0.1,2.5,0.2l0,0c0.3,0,0.6,0.2,0.8,0.5c0.2,0.3,0.2,0.6,0,0.9c-0.3,0.5-0.6,1.2-1.1,2.2s0.1,2,0.1,2
		c2.8,4.7,6.7,9.8,10.3,13.6c0.8,0.8,1.9,0.6,1.9,0.6c1.1-0.2,1.9-0.4,2.5-0.5l0,0c0.3-0.1,0.7,0,0.9,0.2c0.2,0.2,0.3,0.5,0.3,0.8
		c-0.1,0.6-0.3,1.3-0.5,2.5c-0.2,1.1,0.6,1.9,0.6,1.9c3.9,3.8,9,7.7,13.5,10.5c1,0.6,2,0.1,2,0.1c1-0.5,1.7-0.9,2.3-1.1l0,0
		c0.3-0.2,0.6-0.2,0.9,0c0.3,0.2,0.4,0.4,0.5,0.7c0,0.6,0.1,1.4,0.2,2.5c0.1,1.1,1.1,1.7,1.1,1.7c4.8,2.6,10.7,5.1,15.7,6.6
		c1.1,0.3,2-0.4,2-0.4c0.8-0.7,1.4-1.3,1.9-1.7l0,0c0.2-0.2,0.6-0.3,0.9-0.2c0.1,0,0.2,0.1,0.3,0.1l0,0c0.1,0.1,0.1,0.1,0.2,0.2
		c0.2,0.6,0.5,1.4,0.9,2.6c0.4,1.1,1.5,1.4,1.5,1.4c5.3,1.3,11.7,2.2,16.9,2.3c0.1,0,0.3,0,0.4,0s0.2,0,0.3-0.1l0,0
		c0.1,0,0.2-0.1,0.2-0.1l0,0c0.1,0,0.1-0.1,0.2-0.1l0,0c0.1,0,0.1-0.1,0.2-0.1l0,0c0.1,0,0.1-0.1,0.1-0.1l0,0l0.1-0.1l0,0
		c0-0.1,0.1-0.1,0.1-0.1c0.2-0.2,0.3-0.5,0.4-0.7c0-0.1,0.1-0.1,0.1-0.2c0.4-0.6,0.7-1.1,1-1.5l0,0c0.2-0.1,0.4-0.2,0.6-0.2
		c0.3,0,0.6,0.2,0.8,0.4c0.3,0.5,0.8,1.1,1.4,2.1c0.6,1,1.8,0.9,1.8,0.9c5.4-0.1,11.9-0.9,16.9-2.1c1.1-0.3,1.5-1.4,1.5-1.4
		c0.4-1.1,0.6-1.8,0.8-2.4l0,0c0.1-0.3,0.3-0.6,0.7-0.7c0.3-0.1,0.6,0,0.9,0.2c0.4,0.4,1,0.9,1.9,1.7c0.9,0.8,2,0.4,2,0.4
		c5.2-1.5,11.2-3.9,15.8-6.5c1-0.6,1.1-1.7,1.1-1.7c0.1-1.1,0.1-1.9,0.2-2.5l0,0c0-0.3,0.2-0.6,0.5-0.8c0.3-0.2,0.6-0.2,0.9,0
		c0.5,0.3,1.2,0.6,2.2,1.1c0.3,0.1,0.5,0.2,0.8,0.2c0.4,0.1,0.9,0.1,1.4-0.3c3.1-1.9,6.4-4.3,9.5-6.9c1.4-1.2,2.8-2.3,4-3.5
		c0.2-0.2,0.4-0.5,0.5-0.7c0.2-0.3,0.3-0.8,0.2-1.3c-0.2-1.1-0.4-1.9-0.5-2.5c0-0.3,0-0.6,0.3-0.8c0.2-0.2,0.6-0.3,0.9-0.2l0,0
		c0.6,0.1,1.4,0.3,2.5,0.5c0,0,1.1,0.2,1.9-0.6c3.6-3.8,7.5-8.9,10.3-13.6c0,0,0.6-1,0.1-2s-0.9-1.7-1.1-2.2c-0.1-0.3-0.1-0.6,0-0.9
		c0.2-0.3,0.5-0.5,0.8-0.5l0,0h0.1h0.1c0.2,0,0.4,0,0.6,0c0.5,0,1-0.1,1.7-0.1c0,0,1.1-0.1,1.7-1.1c2.5-4.6,5-10.6,6.5-15.8
		c0,0,0.3-1.1-0.4-2s-1.3-1.4-1.7-1.9c-0.2-0.2-0.3-0.5-0.2-0.9c0.1-0.3,0.3-0.6,0.7-0.7l0,0c0.6-0.2,1.3-0.5,2.4-0.8
		c0,0,1.1-0.4,1.4-1.5c1.2-5.1,2.1-11.5,2.1-16.9c0,0,0-1.1-0.9-1.8c-0.9-0.6-1.6-1.1-2.1-1.4c-0.2-0.2-0.4-0.4-0.4-0.8
		c0-0.3,0.2-0.7,0.5-0.8l0,0c0.5-0.3,1.2-0.8,2.1-1.4C190.2,414.2,191.2,413.6,191.2,412.4"/>
	<circle cx="536.5" cy="361.2" r="34.1"/>
</g>
</svg>
