<?xml version="1.0" encoding="utf-8"?>
<!-- Generator: Adobe Illustrator 21.1.0, SVG Export Plug-In . SVG Version: 6.00 Build 0)  -->
<svg version="1.1" id="Layer_1" focusable="false" xmlns="http://www.w3.org/2000/svg" xmlns:xlink="http://www.w3.org/1999/xlink"
	 x="0px" y="0px" viewBox="0 0 392 512" style="enable-background:new 0 0 392 512;" xml:space="preserve">
<g>
	<path d="M196,297.5c20.8,0,37.5-16.7,37.5-37.5s-16.7-37.5-37.5-37.5c-20.8,0-37.9,17.1-37.5,37.5
		C158.5,280.9,175.2,297.5,196,297.5z"/>
	<path d="M15.1,360.6c-10,0-16.8,8.9-14.7,18.4c8.4,38.9,31.5,70.5,76.2,83.6v0c0,27.3,22.1,49.4,49.4,49.4h140.4
		c27.3,0,49.4-22.1,49.4-49.4v0c44.2-13.1,67.8-44.7,75.7-83.6c2.1-9.5-5.3-18.4-14.7-18.4h-61.5v-52.5
		c44.2-13.1,67.8-44.7,75.7-83.6c2.1-9.5-5.3-18.4-14.7-18.4h-61v-52.5c44.2-13.1,67.8-44.7,75.7-83.6c2.1-9.5-5.3-18.4-14.7-18.4
		h-61V24.7c0-13.6-11.1-24.7-24.7-24.7H100.8C87.2,0,76.1,11.1,76.1,24.7v26.8h-61c-10,0-16.8,8.9-14.7,18.4
		c8.4,38.9,31.5,70.5,76.2,83.6V206H15.1c-10,0-16.8,8.9-14.7,18.4c8.4,38.9,31.5,70.5,76.2,83.6v52.5H15.1z M196,63.4
		c26.3,0,47.3,21,47.3,47.3S222.3,158,196,158s-47.3-21-47.3-47.3S169.7,63.4,196,63.4z M196,212.9c26.3,0,47.3,21,47.3,47.3
		c0,26.3-21,47.3-47.3,47.3s-47.3-21-47.3-47.3C148.1,233.9,169.7,212.9,196,212.9z M196,362.4c26.3,0,47.3,21,47.3,47.3
		c0,26.3-21,47.3-47.3,47.3s-47.3-21-47.3-47.3C148.1,383.9,169.7,362.4,196,362.4z"/>
	<path d="M196,372.6c-20.8,0-37.9,17.1-37.5,37.5c0,20.8,16.7,37.5,37.5,37.5c20.8,0,37.5-16.7,37.5-37.5
		C233.5,389.2,216.8,372.6,196,372.6z"/>
</g>
</svg>
