<?xml version="1.0" encoding="utf-8"?>
<!-- Generator: Adobe Illustrator 21.1.0, SVG Export Plug-In . SVG Version: 6.00 Build 0)  -->
<svg version="1.1" id="Layer_2" xmlns="http://www.w3.org/2000/svg" xmlns:xlink="http://www.w3.org/1999/xlink" x="0px" y="0px"
	 viewBox="0 0 510 512" style="enable-background:new 0 0 510 512;" xml:space="preserve">
<path d="M0,485.1c0-14.1,11.6-25.9,25.9-25.9c2.1,0,83.9,0,83.9,0l17.7-56.8h254.9l17,56.7c0,0,81.1,0.1,84.7,0.1
	c14.2,0,25.9,11.8,25.9,25.9c0,14.3-11.7,25.9-25.9,25.9c-1.9,0-454.9,0-458.1,0C11.6,511,0,499.4,0,485.1z M181.4,217.7h147.2
	l36.6,123.5H144.8L181.4,217.7z M266.7,9.2l43.8,147.3H199.6L243.3,9.2c1.6-5.2,6.3-8.7,11.7-8.7l0,0C260.4,0.5,265.2,4,266.7,9.2z"
	/>
</svg>
