<?xml version="1.0" encoding="utf-8"?>
<!-- Generator: Adobe Illustrator 21.1.0, SVG Export Plug-In . SVG Version: 6.00 Build 0)  -->
<svg version="1.1" id="fill" xmlns="http://www.w3.org/2000/svg" xmlns:xlink="http://www.w3.org/1999/xlink" x="0px" y="0px"
	 viewBox="0 0 550.2 512" style="enable-background:new 0 0 550.2 512;" xml:space="preserve">
<style type="text/css">
	.st0{fill:#FFFFFF;}
</style>
<g>
	<path d="M438,382.5c29.5-36.1,47.2-82.4,47.2-132.7c0-116-94-209.9-209.9-209.9s-209.9,94-209.9,210c0,50.4,17.7,96.5,47.2,132.7
		L0.5,474.1h200.4l17.6-34l-6.5,12.5H77.4l10.9-12.5h130.2l2.4-4.5H92.3l10.9-12.5h122.5v-4.5H107l10.9-12.5h107.7V402h-47.4v-0.3
		h-56.4l10.9-12.5h45.5v-1.5c0-1,0-2,0.1-3h-41.6l10.9-12.5h72c-1.9-1.4-3.6-3-5.3-4.5h-62.7l10.9-12.5h40.5c-1.1-1.4-2.2-3-3.2-4.5
		h-33.3l10.9-12.5h15.4c-0.7-1.5-1.4-3-2-4.5h-9.4l6.6-7.5c-3.1-9.3-4.6-19-4.6-29c0-17.7,4.6-34.3,13.7-49.5
		c8.8-14.7,20.8-26,35.7-33.8v-7.2c-10,5.3-18.8,12.4-26.6,21.1c-3.9,4.2-6.8,8.1-8.7,11.5v-65.1c10-1.7,21.8-3.2,35.4-4.7V131
		c14.4-2.5,28.5-3.8,42.4-3.8c13.3,0.1,26.4,1.4,39.1,3.8v38c14.9,1.4,28,3.1,39.1,5.1v65.1c-2.2-3.6-5.4-7.9-9.6-12.6
		c-8.3-9.6-18.2-17-29.5-22v7.6c15.8,7.6,28.5,18.9,38.3,33.8c10,15.5,14.9,32.6,14.9,51.1c0,9.9-1.5,19.5-4.5,28.8l6.8,7.8l4,4.5
		l10.9,12.5h-33.7c-1,1.5-2.1,3.1-3.2,4.5h40.9l10.9,12.5H336c-1.8,1.6-3.6,3.1-5.5,4.5h72.7l10.9,12.5h-42c0.1,0.9,0.1,2,0.1,3v1.5
		h45.8l10.9,12.5h-56.7v0.3h-47.8v4.2h108.4l10.9,12.5H324.4v4.5h123.2l10.9,12.5H329.3l2.4,4.5h130.7l10.9,12.5H338.3l2.4,4.5
		h136.5l10.9,12.5H347.3l2.4,4.5h200.4L438,382.5z M209.7,457.2l-6.4,12.5H62.7l10.8-12.5H209.7z M219.8,469.7l-1.8,4.5h114.7
		l-1.8-4.5H219.8z M224.7,457.2H326l-1.8-4.5h-97.7L224.7,457.2z M231.4,440.1h87.8l-1.8-4.5h-84.2L231.4,440.1z M239.4,420.2
		l-1.6,3h75.5l-2.1-3l-0.4-1.5h-70.6L239.4,420.2z M249.3,402l-2.1,4.2h55.9l-2.2-4.2H249.3z"/>
	<path d="M274.9,247.6c-29.4,0-53.2,23.8-53.2,53.2s23.8,53.2,53.2,53.2s53.2-23.8,53.2-53.2S304.3,247.6,274.9,247.6z M274.9,336.2
		c-19.7,0-35.5-15.9-35.5-35.5c0-19.7,15.9-35.5,35.5-35.5c19.7,0,35.5,15.9,35.5,35.5S294.5,336.2,274.9,336.2z"/>
	<path d="M370.6,325.9c-13.1,42.3-50.8,72.9-95.3,72.9s-82.3-30.6-95.3-72.9h7.8c12.8,38,47.2,65.2,87.6,65.2
		c40.4,0,74.8-27.2,87.6-65.2H370.6z"/>
	<path d="M250.7,402.2l-25.1-0.2v24.6l-24.8,47.5h17l18.6-46.7l0,0c0.2,0,0.3,0,0.4,0c1.6,0,2.9-1.6,2.9-3.6c0-0.8-0.3-1.6-0.6-2.2
		l1.4-3L250.7,402.2z"/>
	<path d="M324.9,426.6V402l-25.1,0.2l10.1,16.5l1.4,3c-0.4,0.6-0.6,1.4-0.6,2.2c0,2,1.3,3.6,2.9,3.6c0.2,0,0.3,0,0.4,0l0,0
		l18.6,46.7h17L324.9,426.6z"/>
	<path class="st0" d="M275.7,92.4c-86.9,0-157.3,70.4-157.3,157.3c0,37.6,13.2,72.1,35.2,99.2l10.5-8.7
		c-19.8-24.5-31.6-55.7-31.6-89.7c0-79.1,64-143.1,143.1-143.1s143.1,64,143.1,143.1c0,34.1-11.9,65.4-31.8,90l10.5,8.7
		c22.1-27.1,35.5-61.8,35.5-99.5C432.9,162.8,362.5,92.4,275.7,92.4z"/>
	<path d="M239.7,141.6c0-2,3.4-3.6,10-5.1c6.6-1.4,14.5-2.1,23.7-2.1c9.4,0,17.3,0.7,23.7,2.1c6.7,1.4,10,3.1,10,5.1
		c0,2-3.4,3.6-10,5.1c-6.4,1.7-14.3,2.5-23.7,2.5c-9.2,0-17-0.8-23.7-2.5C243,145.3,239.7,143.6,239.7,141.6z"/>
	<path d="M363.5,373c0,0-12.3,0-29,0c-19.8,17.4-42.3,22.1-58.9,22.1c-13,0-38.8-3.9-59.3-22.1c-7.5,0-29.8,0-29.8,0
		c-4.8,0-8.7,3.9-8.7,8.7v20.9h194.2v-20.9C372.2,376.9,368.4,373,363.5,373z M207.5,399.4c-6,0-10.9-4.8-10.9-10.9
		s4.9-10.9,10.9-10.9c6,0,10.9,4.8,10.9,10.9C218.4,394.5,213.5,399.4,207.5,399.4z M341.7,399.4c-6,0-10.9-4.8-10.9-10.9
		s4.8-10.9,10.9-10.9c6,0,10.9,4.8,10.9,10.9C352.6,394.5,347.8,399.4,341.7,399.4z"/>
</g>
</svg>
