<?xml version="1.0" encoding="utf-8"?>
<!-- Generator: Adobe Illustrator 21.1.0, SVG Export Plug-In . SVG Version: 6.00 Build 0)  -->
<svg version="1.1" id="Layer_2" xmlns="http://www.w3.org/2000/svg" xmlns:xlink="http://www.w3.org/1999/xlink" x="0px" y="0px"
	 viewBox="0 0 351.7 512" style="enable-background:new 0 0 351.7 512;" xml:space="preserve">
<path d="M160.2,107.6v44.8c17.6,1.7,33,3.7,46.1,6v76.7c-2.6-4.3-6.4-9.3-11.3-14.9c-9.8-11.3-21.4-20-34.8-25.9v9
	c18.6,9,33.6,22.3,45.1,39.9c11.8,18.3,17.6,38.4,17.6,60.3c0,17.9-4.1,34.9-12.3,50.8c-7.8,15.6-18.8,28.6-32.8,38.9h42.6
	c1.3-0.3,2.6,0.2,3.9,1.5c1.3,1.3,2.3,3,2.9,5c1,3,1.5,6.5,1.5,10.5v16.9h-56.3V456l29.4,55.3H26.9l29-55.3v-28.9H0v-16.9
	c0-7.3,1.5-12.3,4.4-15c1.3-1.7,2.6-2.3,3.9-2h42.1C36.8,382.9,26,370,18.1,354.3c-8.2-16-12.3-32.9-12.3-50.8
	c0-20.9,5.4-40.4,16.2-58.3c10.4-17.3,24.5-30.6,42.1-39.9v-8.5c-11.8,6.3-22.2,14.6-31.4,24.9c-4.6,5-8,9.5-10.3,13.5v-76.7
	c11.8-2,25.7-3.8,41.7-5.5v-45.4c17-3,33.6-4.5,50-4.5C129.8,103.2,145.2,104.7,160.2,107.6z M26,401.2c-2.3,2.3-3.4,5.3-3.4,9
	c0,3.3,1.2,6.3,3.4,8.9c2.6,2.3,5.6,3.5,8.8,3.5c3.6,0,6.7-1.2,9.3-3.5c2.3-2.7,3.4-5.6,3.4-8.9c0-3.7-1.1-6.6-3.4-9
	c-2.6-2.7-5.7-4-9.3-4C31.5,397.2,28.6,398.5,26,401.2z M42.1,506.3h144.1l-5.4-10.9H48L42.1,506.3z M50.5,490.9h127.9l-6.9-12.5
	H56.8L50.5,490.9z M56.8,332.4c2.9,8,7.3,14.8,13.2,20.4c5.9,6,12.6,10.6,20.1,14c7.5,3.3,15.5,5,24,5s16.7-1.7,24.5-5
	c7.5-3.3,14.2-8,20.1-14c5.6-5.6,10-12.5,13.2-20.4c3.3-7.6,4.9-15.8,4.9-24.4c0-9-1.6-17.3-4.9-24.9c-3.3-7.6-7.7-14.5-13.2-20.4
	c-5.9-6-12.6-10.6-20.1-13.9c-7.8-3.3-16-5-24.5-5s-16.5,1.7-24,5s-14.2,8-20.1,13.9c-5.9,6-10.3,12.8-13.2,20.4
	c-3.3,7.6-4.9,16-4.9,24.9C51.9,316.6,53.6,324.8,56.8,332.4z M66.2,461l-6.9,12.9h110.3l-6.9-12.9H66.2z M155.8,448.5l-2-4.5H75
	l-2.4,4.5v4c0,0.7-0.2,1.5-0.5,2.5c-0.7,1.3-1.8,2-3.4,2h91.6c-2,0-3.3-0.7-3.9-2c-0.3-1-0.5-1.8-0.5-2.5L155.8,448.5L155.8,448.5z
	 M185.2,56.3v0.5L72.5,56.3c0-1,0-1.7,0-2c0-7.3,1.5-14.3,4.4-20.9c2.9-6.3,7-12,12.3-17c5.2-4.6,11.1-8.5,17.7-11.5
	c7.2-2.7,14.5-4,22-4c9.1,0,17.8,2,26,6c7.5,3.7,14,9,19.6,16c7.5-6,16-9,25.5-9c8.5,0,16.2,2.3,23,7c6.9,4.6,12.3,10.8,16.2,18.4
	c2.9-4,6.7-7.1,11.3-9.5c4.3-2.3,9-3.5,14.2-3.5c8.2,0,15.4,2.8,21.6,8.5c5.9,5.6,9.6,12.6,11.3,20.9c0,0.3,0,0.7,0,1h-65.7v-0.5
	L185.2,56.3L185.2,56.3z M84.3,114.1c-7.8,1.7-11.8,3.7-11.8,6s3.9,4.3,11.8,6c7.8,2,17.1,3,27.9,3c11.1,0,20.4-1,27.9-3
	c7.8-1.7,11.8-3.7,11.8-6s-3.9-4.3-11.8-6c-7.5-1.7-16.8-2.5-27.9-2.5C101.4,111.6,92.1,112.5,84.3,114.1z M143.6,338.9
	c-7.8,8.3-17.7,12.5-29.4,12.5c-11.4,0-21.2-4.2-29.4-12.5s-12.3-18.4-12.3-30.4c0-11.6,4.1-21.6,12.3-29.9s18-12.5,29.4-12.5
	c11.7,0,21.6,4.2,29.4,12.5c8.2,8.3,12.3,18.3,12.3,29.9C155.8,320.4,151.7,330.6,143.6,338.9z M151.4,440l-6.8-12.9H83.8L77.4,440
	H151.4z M202.4,419.1c2.6-2.7,3.9-5.6,3.9-8.9c0-3.7-1.3-6.6-3.9-9c-2.3-2.7-5.2-4-8.8-4s-6.6,1.3-8.8,4c-2.3,2.3-3.4,5.3-3.4,9
	c0,3.3,1.1,6.3,3.4,8.9c2.3,2.3,5.2,3.5,8.8,3.5C197.1,422.6,200.1,421.4,202.4,419.1z M306.7,56.8c0-0.3,0-0.7,0-1
	c1-6,3.6-10.9,7.8-14.9c4.2-4,9.1-6,14.7-6s10.4,2,14.7,6c4.2,4,6.9,9,7.8,14.9v0.5L306.7,56.8z"/>
</svg>
