<?xml version="1.0" encoding="utf-8"?>
<!-- Generator: Adobe Illustrator 21.1.0, SVG Export Plug-In . SVG Version: 6.00 Build 0)  -->
<svg version="1.1" id="Layer_1" xmlns="http://www.w3.org/2000/svg" xmlns:xlink="http://www.w3.org/1999/xlink" x="0px" y="0px"
	 viewBox="0 0 511 512" style="enable-background:new 0 0 511 512;" xml:space="preserve">
<path d="M362,0v69l38.2-2.5l-82,82c-37.4-15.2-80.5-12.4-115.8,8.4l-15-15l54.5-54.5l-41.7-41.7l-54.5,54.5l-34.9-34.9L149,67V0H0
	v149l67.9-0.8l-2.4-37.7l34.9,34.9l-55.1,55.1L87,242.2l55.1-55.1l14.6,14.6c-21.7,35.6-24.8,79.3-9.5,117.2l-49.6,49.9L43,314.2
	L1.3,355.9l54.8,54.8l-55.7,56L45.7,512l55.7-56l54.8,54.8l41.7-41.7l-54.9-55l42.7-43c51.5,42.3,127.6,39.4,175.7-8.7
	c48-48,51-124,8.9-175.5l75.1-75.1L443,150h68V0H362z M316.1,317.2c-26.2,26.2-68.6,26.2-94.8,0s-26.2-68.6,0-94.8s68.6-26.2,94.8,0
	C342.3,248.6,342.3,291,316.1,317.2z"/>
</svg>
