<?xml version="1.0" encoding="utf-8"?>
<!-- Generator: Adobe Illustrator 21.1.0, SVG Export Plug-In . SVG Version: 6.00 Build 0)  -->
<svg version="1.1" id="Layer_1" xmlns="http://www.w3.org/2000/svg" xmlns:xlink="http://www.w3.org/1999/xlink" x="0px" y="0px"
	 viewBox="0 0 510 512" style="enable-background:new 0 0 510 512;" xml:space="preserve">
<path d="M472.3,124.5v-3c0-60.3-48.5-106-108.9-106v36.4c40.2,0,72.9,32.4,72.9,72.6h-23.9l21.3,26.2l20.5,25.6l20.5-25.6l20.5-26.2
	H472.3z M94.3,119.2v37.1h41.2v-37.1H94.3z M169.6,119.2v37.1h42.1v-37.1H169.6z M169.6,119.2v37.1h42.1v-37.1H169.6z M94.3,156.3
	h41.2v-37.1H94.3V156.3z M357.6,206.2c-25.1,0-48.7,6.1-69.6,16.8c10.7-20.9,16.8-44.5,16.8-69.6C304.8,69.2,236.6,1,152.4,1
	S0,69.2,0,153.4s68.2,152.4,152.4,152.4c25.1,0,48.7-6.1,69.6-16.8c-10.7,20.9-16.8,44.5-16.8,69.6c0,84.2,68.2,152.4,152.4,152.4
	S510,442.8,510,358.6S441.8,206.2,357.6,206.2z M242.7,197.9h-31.2v-12.6h-42.1V254h-34v-68.7H94.2v15.1H63V89.2h71.5V51.8h35.3
	v37.7l72.9-0.1V197.9z M396.1,435.4l-13-43.1h-56.2l-11.1,43.1h-45.9l57-181.1h58.2l58.3,181.1H396.1z M354,287.3
	c-2.6,11.6-20.7,72.2-20.7,72.2h43.2c0,0-18.7-60.5-21.9-72.2H354z M169.6,156.3h42.1v-37.1h-42.1V156.3z M94.3,156.3h41.2v-37.1
	H94.3V156.3z M73.6,387.4h23.9l-21.2-26.1l-20.4-25.6l-20.4,25.6l-20.4,26.1H38v3c0,60.2,48.4,105.7,108.6,105.7v-36.3
	C106.3,459.8,73.6,427.5,73.6,387.4z"/>
</svg>
