<?xml version="1.0" encoding="utf-8"?>
<!-- Generator: Adobe Illustrator 21.1.0, SVG Export Plug-In . SVG Version: 6.00 Build 0)  -->
<svg version="1.1" id="Layer_1" xmlns="http://www.w3.org/2000/svg" xmlns:xlink="http://www.w3.org/1999/xlink" x="0px" y="0px"
	 viewBox="0 0 354 512" style="enable-background:new 0 0 354 512;" xml:space="preserve">
<path d="M354,161V0H194v64l57.1-2.9c0,0-21.1,21.1-44.5,44.5C188.4,97.5,168.2,93,147,93C65.8,93,0,158.8,0,240
	c0,70.5,49.7,129.5,116,143.7V420H38v60h78v32h62v-32h78v-60h-78v-36.3c66.3-14.2,116-73.1,116-143.7c0-38.5-14.8-73.5-39-99.7
	c20.5-20.6,38.1-38.1,38.1-38.1L290,161H354z M147.1,325c-46.9,0-85-38.1-85-85s38-85,85-85s85,38.1,85,85
	C232,287,194,325,147.1,325z"/>
</svg>
