<?xml version="1.0" encoding="utf-8"?>
<!-- Generator: Adobe Illustrator 22.0.1, SVG Export Plug-In . SVG Version: 6.00 Build 0)  -->
<svg version="1.1" id="Layer_5" xmlns="http://www.w3.org/2000/svg" xmlns:xlink="http://www.w3.org/1999/xlink" x="0px" y="0px"
	 viewBox="0 0 361.3 512" style="enable-background:new 0 0 361.3 512;" xml:space="preserve">
<g>
	<path d="M0,147.5v329C0,496.1,15.9,512,35.5,512h290.3c19.6,0,35.5-15.9,35.5-35.5v-329H0z"/>
	<path d="M335.3,64.5h-51.7V42.2c0-23.3-18.9-42.2-42.2-42.2H115.1C91.9,0,73,18.9,73,42.2v22.3H25c-14.4,0-26,11.6-26,26l0,0
		c0,14.4,11.6,26,26,26h310.3c14.4,0,26-11.6,26-26l0,0C361.3,76.1,349.7,64.5,335.3,64.5z M104.2,43c0-9,7.3-16.3,16.3-16.3H236
		c9,0,16.3,7.3,16.3,16.3v21.5H104.2V43z"/>
</g>
</svg>
