<?xml version="1.0" encoding="utf-8"?>
<!-- Generator: Adobe Illustrator 21.1.0, SVG Export Plug-In . SVG Version: 6.00 Build 0)  -->
<svg version="1.1" id="Layer_4" xmlns="http://www.w3.org/2000/svg" xmlns:xlink="http://www.w3.org/1999/xlink" x="0px" y="0px"
	 viewBox="0 0 511.2 512" style="enable-background:new 0 0 511.2 512;" xml:space="preserve">
<path d="M500.1,211.6c0.7-4.5,1-9.1,1-13.7c0-28.2-12.7-54.2-34.6-72.2c-3-48.7-43.7-87.9-94.6-91.3c-14.9-9.6-32.6-14.8-50.7-14.8
	c-5.1,0-10.1,0.4-15.1,1.2c-16.2-13-36.6-20.2-58.2-20.2c-35.7,0-67.3,20-81.9,49.7c-11.7,1.8-22.6,6.5-31.8,13.5
	c-6.9-1.5-13.9-2.3-21.1-2.3c-51,0-92.7,39-94.2,87.5C6.7,164.1,0,182.5,0,202c0,10.1,1.9,20.1,5.4,29.5c-1.1,4.6-1.7,9.3-1.7,14.1
	c0,33.7,28.4,61.1,63.3,61.1c11.3,0,22.3-2.9,32-8.3c33.7-9.5,42.8-9.7,43.7-9.7c3.2,0,7.8,0.6,13.5,1.7
	c26.8,43.2,69.4,59.7,69.4,59.7h0.7c2.2,26.4,4.3,51.5,5.2,65.4C234.4,459.7,205,512,205,512h92.7c0,0-9.8-63.5-9.4-76.3
	c1.3-51.1,7.4-89.2,14.7-117.1c9.1,1,19,2.7,29.1,5.3c15.9,4.1,30.2,6.2,42.8,6.2c14.6,0,27-2.8,37-8.3c7,1.9,14.3,3,21.7,3
	c42.9,0,77.8-33.5,77.8-74.7C511.2,236.4,507.3,223.1,500.1,211.6z M196,300.4c8.9,2.6,18.1,5.3,26.8,8.1c0.5,5.4,1,11,1.4,16.7
	C214.5,317.3,204.3,308.5,196,300.4z"/>
</svg>
