<?xml version="1.0" encoding="utf-8"?>
<!-- Generator: Adobe Illustrator 21.1.0, SVG Export Plug-In . SVG Version: 6.00 Build 0)  -->
<svg version="1.1" id="Layer_1" xmlns="http://www.w3.org/2000/svg" xmlns:xlink="http://www.w3.org/1999/xlink" x="0px" y="0px"
	 viewBox="0 0 673 512" style="enable-background:new 0 0 673 512;" xml:space="preserve">
<style type="text/css">
	.st0{fill:#020202;}
</style>
<g id="fill_1_">
	<g>
		<path class="st0" d="M653.4,390.8V229.4c0-6.6-2-13-5.6-18.5L563.4,85c-8-11.6-21.1-18.6-35.2-18.6h-66.1V43.1
			c0-12.8-10.4-23.1-23.1-23.1l0,0c-12.8,0-23.1,10.4-23.1,23.1v130.3H303l0,0h-0.1v0.2v55.6L156.4,216L296,180.1v-51.5h58V0H185.7
			v128.6H244v11.2L22.1,202l4.2,52.6l254.3,24.9H9v10H8.8C8.9,406.6,9,421.1,9,421.3c-5,0-9,3-9,7.9s4,9,9,9l0,0l23.2,0.1v-0.1h3.6
			c0-54.8,44.1-93.6,93.6-93.6c49.6,0,93.6,40.6,93.6,93.6c2.1,0,4.3,0,6.4,0v0.1h177.1v-0.2c6.1,0,9.5,0,9.5,0
			c0-41.1,31.6-93.5,93.6-93.5c59.3,0,93.4,50.4,93.4,93.5c0,0,34.6,0.1,47.1,0.1s22.9-12.6,22.9-24.9
			C673,402.1,664,392.5,653.4,390.8z M237.7,76.6V52H302v24.6H237.7z M462.1,230V118.4h61.2l1.4,2c0.1,0.9,0.4,1.5,0.9,1.9v6.6
			l-1.9-0.9l-1,1c-0.3,1-0.5,2.2-0.5,3.5s0.2,2.5,0.5,3.5l1,1l5.9,3.5c0.3,0,0.6-0.5,1-1.5c0.3-1,0.5-2,0.5-3c0-1.3-0.2-2.5-0.5-3.5
			c-0.3-0.7-1.1-1.5-2.4-2.5l-1.5-0.7v-5.8L598,230H462.1z"/>
		<path class="st0" d="M129.4,365.6c-40.2,0-72.7,32.6-72.7,72.7S89.3,511,129.4,511s72.7-32.6,72.7-72.7S169.6,365.6,129.4,365.6z
			 M129.4,473.9c-19.7,0-35.6-15.9-35.6-35.6s15.9-35.6,35.6-35.6s35.6,15.9,35.6,35.6S149.1,473.9,129.4,473.9z"/>
		<path class="st0" d="M509.7,365.6c-40.2,0-72.7,32.6-72.7,72.7s32.6,72.7,72.7,72.7s72.7-32.6,72.7-72.7S549.8,365.6,509.7,365.6z
			 M509.7,473.9c-19.7,0-35.6-15.9-35.6-35.6s15.9-35.6,35.6-35.6s35.6,15.9,35.6,35.6S529.3,473.9,509.7,473.9z"/>
	</g>
</g>
</svg>
