<?xml version="1.0" encoding="utf-8"?>
<!-- Generator: Adobe Illustrator 21.1.0, SVG Export Plug-In . SVG Version: 6.00 Build 0)  -->
<svg version="1.1" id="Layer_1" xmlns="http://www.w3.org/2000/svg" xmlns:xlink="http://www.w3.org/1999/xlink" x="0px" y="0px"
	 viewBox="0 0 545.2 512" style="enable-background:new 0 0 545.2 512;" xml:space="preserve">
<path d="M364.3,1l-0.6-0.4c-0.8-0.7-1.5-0.5-2.2,0.2c-0.4,0.4-0.8,0.9-1.2,1.6c-11,18.3-25.4,35.7-42.3,52.5
	c-74.8,74.8-196.7,137.7-270.7,211.8C28,285.9,12,305.9,0.9,327.1c54.8,63.6,180,184.7,180.4,184.3c7.5-9.7,15.3-19,23.2-27.9
	s16-17.4,24.1-25.6c95.2-95.2,206-142.5,269.8-206.3c21.6-21.6,37.8-45,46.3-72.9C481.9,121.6,427,58,364.3,1z M234.2,400.4
	l-29.2,24.8l-46.2-55L137.7,403L118.3,380l20.9-32.8l-8.9-9.8l-21.1,32.8l-19.4-22.8l21.1-32.8l-24.9-29.4l29.2-24.8l17.4,20.5
	l21.2-33.1l19.4,22.9L152,304l8.9,9.8l21.2-33.1l19.4,22.8l-21.1,33.1l31.6,37.7c12.5-10.8,16.6-27.4,12-42.1l27.4-23.2
	c5.8,10.9,8.8,23.1,8.8,35.1C260.1,364.9,251.2,385.6,234.2,400.4z M296.8,161.4c27.9-20.3,54.9-41.2,78.9-63.4l23.2,23.2
	c-21.5,20.2-49.5,39.6-81.4,60.8L296.8,161.4z M382.2,246.9l-20.7-20.7c27.9-20.2,54.9-41.2,78.9-63.4l23.2,23.2
	C442.1,206.3,414.2,225.6,382.2,246.9z"/>
</svg>
