<?xml version="1.0" encoding="utf-8"?>
<!-- Generator: Adobe Illustrator 21.1.0, SVG Export Plug-In . SVG Version: 6.00 Build 0)  -->
<svg version="1.1" id="Layer_1" xmlns="http://www.w3.org/2000/svg" xmlns:xlink="http://www.w3.org/1999/xlink" x="0px" y="0px"
	 viewBox="0 0 512 512" style="enable-background:new 0 0 512 512;" xml:space="preserve">
<path d="M256,0C115.2,0,0,115.2,0,256s115.2,256,256,256s256-115.2,256-256S396.8,0,256,0z M357.5,411.3
	c-25.8,21.2-58.8,33.9-94.7,34.1h-77.5V289.3L110,312.2v-60.7l75.3-23v-15.9l-75.3,23v-60.7l75.3-23V74h77.5v54.3l76-23.2v60.8
	l-76,23.2v15.8l76-23.2v60.7l-76,23.2v110.3c33.2-0.3,61.5-20.5,73.9-49.2h72.6C401.9,360.6,383.3,390.2,357.5,411.3z"/>
</svg>
