<?xml version="1.0" encoding="utf-8"?>
<!-- Generator: Adobe Illustrator 21.1.0, SVG Export Plug-In . SVG Version: 6.00 Build 0)  -->
<svg version="1.1" id="Layer_2" xmlns="http://www.w3.org/2000/svg" xmlns:xlink="http://www.w3.org/1999/xlink" x="0px" y="0px"
	 viewBox="0 0 640 512" style="enable-background:new 0 0 640 512;" xml:space="preserve">
<path d="M293.5,31.8c114,0,235.8,56.3,269.5,233.9c-3.9,1.9-243.5,136.7-540.4,7.4C53.2,90,178,31.8,293.5,31.8z M627.1,362.4
	c-36.7,42.1-100,32.7-140.5,15c-7.2,1.8-14.7,3.4-22.3,4.9c0.2,0.7,0.4,1.4,0.6,2.2c12.9,13.8,31.8,38.2,31.8,62.1
	c0,9.8-5.9,32.9-35.9,35c-38.8,2.8-74.2-12.5-99.1-31.3c-25.4-19.3-40.5-42.2-65.3-53c-19.1-0.1-38.5-0.8-57.5-1.8
	c-16.3,6-30.4,18.1-47.3,35.9c-23.9,25.2-73.5,42.2-104.2,44.9c-45.5,4.1-64.8-18.1-64.8-37.1c0-30.4,34.8-58.5,45.8-66.6
	c-13.4-4.9-38.3-15.2-53.9-25C4.7,341.6,0,329.6,0,317.4c0-13.4,5.8-27,17.1-32.7c108.2,49.4,212.7,57,230.3,58.3
	C265,344.5,443,355.8,567.7,279c26.3-16.2,58,9.4,65.4,21.5C644.6,319.3,641.1,346.3,627.1,362.4z"/>
</svg>
