<?xml version="1.0" encoding="utf-8"?>
<!-- Generator: Adobe Illustrator 21.1.0, SVG Export Plug-In . SVG Version: 6.00 Build 0)  -->
<svg version="1.1" id="Layer_3" xmlns="http://www.w3.org/2000/svg" xmlns:xlink="http://www.w3.org/1999/xlink" x="0px" y="0px"
	 viewBox="0 0 598 512" style="enable-background:new 0 0 598 512;" xml:space="preserve">
<path id="fill" d="M311.2,14.7c-0.1-3.9-1.6-7.3-4.4-10.2c-2.9-3-6.6-4.5-10.9-4.5c-4,0-7.5,1.5-10.5,4.5c-3,3-4.4,6.4-4.5,10.4
	C135.6,22.4,17.9,119.2,0,252.5c20.1-19.3,47.5-31.2,77.6-31.2c27.3,0,52.3,9.7,71.7,25.9c18.7-17.3,43.8-27.9,71.3-27.9
	c23.1,0,44.5,7.5,61.9,20.2v209.6c0,8.2-3.1,15.5-9.2,22.1c-6.4,6.3-13.6,9.4-21.6,9.4c-8.3,0-15.5-3.1-21.6-9.4
	c-6.4-6.5-9.6-13.9-9.6-22.1c0-0.1,0-0.2,0-0.2c0-8.5-6.9-15.4-15.4-15.4h-1.2c-8.5,0-15.4,6.9-15.4,15.4l0,0.2
	c0,16.9,6.3,31.6,19,44.1c12.4,12.5,27,18.8,43.8,18.8c16.5,0,31-6.3,43.7-18.8c12.5-12.5,18.7-27.2,18.7-44.1V241.9
	c17.9-14.1,40.5-22.6,65.1-22.6c27.3,0,52.1,10.4,70.8,27.4c19.5-16.5,44.7-26.4,72.2-26.4c29.5,0,56.3,11.4,76.3,30
	C578.8,116.2,458.5,19.6,311.2,14.7z"/>
</svg>
