<?xml version="1.0" encoding="utf-8"?>
<!-- Generator: Adobe Illustrator 22.0.1, SVG Export Plug-In . SVG Version: 6.00 Build 0)  -->
<svg version="1.1" id="Layer_2" xmlns="http://www.w3.org/2000/svg" xmlns:xlink="http://www.w3.org/1999/xlink" x="0px" y="0px"
	 viewBox="0 0 448 512" style="enable-background:new 0 0 448 512;" xml:space="preserve">
<g id="_x37_2_1_">
	<path d="M65,59.6c3.7,8.1,5.6,21.7,5.6,40.6l0,136.5c0,85,68.9,153.8,153.8,153.8s153.8-68.9,153.8-153.8l0.1-136.5
		c0-17.3,1.3-29.2,3.8-35.9c3.4-9.6,8.8-16.8,16.2-21.5c7.5-4.8,14.8-7.2,26-7.2h0.3V0H271.2v36.3c6.5,1,9.6,3.2,15.7,6.5
		c5.7,3.1,10.4,8.8,14.1,16.9c3.7,8.1,5.6,21.7,5.6,40.6c0,0-0.1,131.8-0.1,136.5c0,45.3-36.7,82.1-82.1,82.1
		c-45.3,0-82.1-36.7-82.1-82.1c0-4.7,0-136.5,0-136.5c0-17.3,1.3-29.2,3.8-35.9c3.4-9.6,8.8-16.8,16.2-21.5
		c4.8-3.1,9.6-5.2,15.3-6.3V0H23.4v35.6c16.1,0,18.6,2.4,27.5,7.2C56.5,45.8,61.2,51.5,65,59.6z"/>
	<rect y="440" width="448" height="72"/>
</g>
</svg>
