<?xml version="1.0" encoding="utf-8"?>
<!-- Generator: Adobe Illustrator 21.1.0, SVG Export Plug-In . SVG Version: 6.00 Build 0)  -->
<svg version="1.1" id="Layer_1" xmlns="http://www.w3.org/2000/svg" xmlns:xlink="http://www.w3.org/1999/xlink" x="0px" y="0px"
	 viewBox="0 0 512 512" style="enable-background:new 0 0 512 512;" xml:space="preserve">
<path d="M475,388.7c-66.6,110-202.7,151.9-317.8,103.2c-4.6-1.9-12-5.4-20.2-9.7c-18.3-9.6-24.7-32.8-14-50.5
	c9.9-16.4,31-22.3,47.9-13.3c8.4,4.5,16.2,8.1,20.8,9.8c81.5,30.8,175.9-0.2,222.2-77.6c52.3-87.4,24.2-199.9-62.9-252.3
	C265.9,47.1,156.1,73,102.4,155.7l40.8,24.5l-125.7,47L0,94.1l40.9,24.6C115,1.8,269-35.1,388.2,36.6
	C509.2,109.4,548.3,267.8,475,388.7z"/>
</svg>
