<?xml version="1.0" encoding="utf-8"?>
<!-- Generator: Adobe Illustrator 21.1.0, SVG Export Plug-In . SVG Version: 6.00 Build 0)  -->
<svg version="1.1" id="Layer_1" xmlns="http://www.w3.org/2000/svg" xmlns:xlink="http://www.w3.org/1999/xlink" x="0px" y="0px"
	 viewBox="0 0 512 512" style="enable-background:new 0 0 512 512;" xml:space="preserve">
<path d="M441,0H71C31.8,0,0,31.8,0,71v370c0,39.2,31.8,71,71,71h370c39.2,0,71-31.8,71-71V71C512,31.8,480.2,0,441,0z M338.5,384
	c-17.9,16.4-42.1,25-72.5,25.7v17.4h-31.8v-17.3c-23.6-3.2-43.3-11.5-59.2-24.9c-15.9-13.5-24.9-36.1-27.2-68h55.7
	c-0.1,1.7-0.2,2.9-0.2,3.6c0,10.5,2.7,19.7,8.1,27.6c5.5,7.8,13,13,22.8,15.5V268c-31.9-14.7-53.3-29.3-64.5-43.7
	c-11.1-14.4-16.7-30.1-16.7-47.3c0-20.8,7.5-38.5,22.3-53.3c14.9-14.7,34.5-23.1,58.8-25V85.2h31.8v13.7c26.1,2.1,47,10.5,62.5,25.3
	c15.5,14.7,23.2,34,23.2,57.7h-55.6c-2.5-23.6-12.5-36.4-30-38.3v75.1l30.7,13.7c17.3,7.8,31.1,16.7,41.4,26.7
	c10.3,10,17.4,20.4,21.4,31.2c3.9,10.8,5.9,21.7,5.9,32.9C365.5,347.3,356.5,367.6,338.5,384z M266,281.7v83.9
	c12.9,0.2,23.6-3.5,31.9-10.8c8.4-7.4,12.5-16.1,12.5-26.4C310.4,308.7,295.6,293.1,266,281.7z M208.8,170.4
	c0,12.5,8.5,23.7,25.5,33.8v-60.4C217.3,146.9,208.8,155.8,208.8,170.4z"/>
</svg>
