<?xml version="1.0" encoding="utf-8"?>
<!-- Generator: Adobe Illustrator 21.1.0, SVG Export Plug-In . SVG Version: 6.00 Build 0)  -->
<svg version="1.1" id="Layer_1" xmlns="http://www.w3.org/2000/svg" xmlns:xlink="http://www.w3.org/1999/xlink" x="0px" y="0px"
	 viewBox="0 0 545.2 512" style="enable-background:new 0 0 545.2 512;" xml:space="preserve">
<g>
	<path d="M364.3,1l-0.6-0.4c-0.8-0.7-1.5-0.5-2.2,0.2c-0.4,0.4-0.8,0.9-1.2,1.6c-11,18.3-25.4,35.7-42.2,52.5
		c-74.8,74.8-196.7,137.7-270.7,211.8C28,285.9,12,305.9,0.9,327.1c54.8,63.6,180,184.7,180.4,184.3c7.5-9.7,15.3-19,23.2-27.9
		s15.9-17.4,24.1-25.6c95.2-95.2,206-142.5,269.8-206.3c21.6-21.6,37.8-45,46.3-72.9C481.9,121.6,427,58,364.3,1z M209.6,427.2
		l-14-14.1c-9.4,6.9-19.4,10.6-30,11c-12,0.5-23.7-4.9-34.4-16.3l-0.5-0.5l-1.6-3.9l24.7-24.9l3,3c5.3,5.3,10.3,8,14.5,7.8
		c4.4-0.2,8.3-1.9,12-5.6c3.5-3.4,5.1-6.7,5.1-10.1c0-3.3-1.4-6.5-4.4-9.5c-3-3-6.2-4.6-9.5-4.8c-3.9-0.2-9.2,1.1-15.7,4.1
		c-14.5,6.7-26.8,10.4-36.9,10.8c-10.8,0.5-20.8-4.1-30-13.2c-8.7-8.7-12.9-18.5-12.9-29.7c0-9.9,3.4-19.4,9.9-28.6l-15.2-15.4
		l17-17.1l15.5,15.5c9.2-6.2,19.1-8.6,29.1-7.8c11.3,1.1,21.7,6.5,31.3,16.3l0.9,0.9l0.9,4.1l-24.4,24.6l-3-3
		c-4.6-4.8-9.2-7.6-13.4-8.1c-0.6-0.1-1.2-0.1-1.8-0.1c-3,0-5.6,1.1-8.1,3.7c-3.2,3-4.4,6-4.2,9c0.2,3.2,1.9,6.4,5,9.4
		c2.8,2.8,5.8,4.2,9,4.4c2.5,0.2,7.3-0.5,16.1-4.4c14.7-6.5,27.2-9.9,37.1-10.2c10.6-0.3,20.7,3.9,29.7,13.1
		c8.8,8.8,13.3,18.9,13.1,29.8c-0.2,9.7-3.5,19.3-10.8,29l14.1,14.1L209.6,427.2z M296.8,161.4c27.9-20.2,54.9-41.2,78.9-63.4
		l23.2,23.2c-21.5,20.2-49.5,39.6-81.4,60.9L296.8,161.4z M382.2,246.9l-20.7-20.7c27.9-20.2,54.9-41.2,78.9-63.4l23.2,23.2
		C442.1,206.3,414.2,225.6,382.2,246.9z"/>
</g>
</svg>
