<?xml version="1.0" encoding="utf-8"?>
<!-- Generator: Adobe Illustrator 21.1.0, SVG Export Plug-In . SVG Version: 6.00 Build 0)  -->
<svg version="1.1" id="Layer_1" xmlns="http://www.w3.org/2000/svg" xmlns:xlink="http://www.w3.org/1999/xlink" x="0px" y="0px"
	 viewBox="0 0 512 512" style="enable-background:new 0 0 512 512;" xml:space="preserve">
<path d="M256,0C115.2,0,0,115.2,0,256s115.2,256,256,256s256-115.2,256-256S396.8,0,256,0z M339.3,383.3
	c-17.9,16.4-42.1,25-72.4,25.7v17.4h-31.8v-17.3c-23.6-3.2-43.3-11.5-59.2-24.9c-15.9-13.5-24.9-36.1-27.2-68h55.7
	c-0.1,1.7-0.2,2.9-0.2,3.6c0,10.5,2.7,19.7,8.1,27.6c5.5,7.8,13,13,22.8,15.5v-95.6c-31.9-14.7-53.3-29.3-64.5-43.6
	c-11.1-14.4-16.7-30.1-16.7-47.3c0-20.8,7.5-38.5,22.3-53.3c14.9-14.7,34.5-23.1,58.8-25V84.5h31.8v13.7c26.1,2.1,47,10.5,62.4,25.3
	c15.5,14.7,23.2,34,23.2,57.7h-55.7c-2.5-23.6-12.5-36.4-30-38.3V218l30.7,13.7c17.3,7.8,31.1,16.7,41.4,26.7
	c10.3,10,17.4,20.4,21.4,31.2c3.9,10.8,5.9,21.7,5.9,32.9C366.3,346.7,357.3,366.9,339.3,383.3z M266.8,281v83.8
	c12.9,0.2,23.6-3.5,31.9-10.8c8.4-7.4,12.5-16.1,12.5-26.4C311.2,308,296.4,292.4,266.8,281z M209.6,169.7
	c0,12.5,8.5,23.7,25.5,33.8v-60.4C218.1,146.3,209.6,155.1,209.6,169.7z"/>
</svg>
