<?xml version="1.0" encoding="utf-8"?>
<!-- Generator: Adobe Illustrator 21.1.0, SVG Export Plug-In . SVG Version: 6.00 Build 0)  -->
<svg version="1.1" xmlns="http://www.w3.org/2000/svg" xmlns:xlink="http://www.w3.org/1999/xlink" x="0px" y="0px"
	 viewBox="0 0 327 512" style="enable-background:new 0 0 327 512;" xml:space="preserve">
<path d="M318.3,307.7c-6-16.2-16.7-31.8-32.1-46.8c-15.5-15-36.1-28.4-62.1-40.1l-46-20.6V87.5c26.2,2.9,41.2,22.1,45,57.5h83.5
	c0-35.6-11.6-64.5-34.8-86.6c-23.2-22.1-54.5-34.7-93.7-37.9V0h-47.7v20.5c-36.5,2.9-66,15.5-88.3,37.5
	C19.8,80.1,8.6,106.7,8.6,137.9c0,25.7,8.3,49.3,25,70.9c16.7,21.5,48.9,43.4,96.7,65.5v143.4c-14.7-3.8-26-11.6-34.2-23.3
	C88.1,382.5,84,368.8,84,353c0-1.1,0.1-2.9,0.3-5.4H0.8c3.4,47.8,17,81.8,40.8,102c23.8,20.2,53.4,32.6,88.8,37.4V513h47.7v-26.1
	c45.5-1.1,81.8-14,108.7-38.6c27-24.6,40.4-55,40.4-91.3C327.2,340.3,324.2,323.9,318.3,307.7z M130.4,178.5
	c-25.5-15.1-38.2-32-38.2-50.7c0-21.9,12.7-35.2,38.2-39.9V178.5z M225.9,404.4c-12.5,11-28.5,16.5-47.9,16.2V294.8
	c44.4,17.1,66.6,40.5,66.6,70C244.7,380.2,238.5,393.3,225.9,404.4z"/>
</svg>
