<?xml version="1.0" encoding="utf-8"?>
<!-- Generator: Adobe Illustrator 21.1.0, SVG Export Plug-In . SVG Version: 6.00 Build 0)  -->
<svg version="1.2" baseProfile="tiny" id="Layer_1" xmlns="http://www.w3.org/2000/svg" xmlns:xlink="http://www.w3.org/1999/xlink"
	 x="0px" y="0px" viewBox="0 0 590 512" xml:space="preserve">
<g>
	<path fill="#010101" d="M567.6,14C554,4.6,541.7-1.4,540.2,0.7l-126,184.4l-4.9,7.2c2.5,13.1,28.4,34,49.5,32.8l5.5-7.7L589.9,34.8
		C591.2,32.7,581.3,23.4,567.6,14z M569.5,20.8c-0.3,0.4-2.5-0.7-5-2.4c-2.4-1.7-4.2-3.4-4-3.8c0.2-0.4,2.5,0.7,5,2.4
		S569.8,20.4,569.5,20.8z"/>
	<path fill="#010101" d="M424.7,221c-9.7-6.6-15.3-16.3-19.2-21.9l-1,53L455,232C447.7,230.3,435.2,228.2,424.7,221z"/>
	<path d="M427.8,323c-7.1,18.5-17.2,35.6-29.6,50.7c-14.1-9-29.1-14.6-38.8-18.3c-22.6-8.8-46.2-17.4-46.2-17.4
		c-0.1,0-2.6-8.3-13.7-18.8v-15.5c26.9-30.6,38.7-64.5,41.5-89.4c0.2-2,16.3-110.4-85.8-110.8c-102.2,0.4-86.1,108.8-85.8,110.8
		c2.8,24.9,15.9,60.5,41.5,89.4v15.5c-11.1,10.5-13.6,18.8-13.7,18.8c0,0-23.6,8.6-46.3,17.4c-9.4,3.7-24,9-37.7,17.6
		C87.4,341.3,72,301,72,257c0-101.6,82.4-184,184-184c22.6,0,44.2,4.1,64.1,11.5l26.5-67C318.5,6.8,287.9,1,256,1
		C114.6,1,0,115.6,0,257s114.6,256,256,256c118.6,0,218.3-80.6,247.4-190H427.8z"/>
</g>
</svg>
