<?xml version="1.0" encoding="utf-8"?>
<!-- Generator: Adobe Illustrator 21.1.0, SVG Export Plug-In . SVG Version: 6.00 Build 0)  -->
<svg version="1.1" id="_x33_2" xmlns="http://www.w3.org/2000/svg" xmlns:xlink="http://www.w3.org/1999/xlink" x="0px" y="0px"
	 viewBox="0 0 578 512" style="enable-background:new 0 0 578 512;" xml:space="preserve">
<style type="text/css">
	.st0{fill:#040202;}
</style>
<g>
	<path class="st0" d="M349.4,0.4H228.7v166h120.7V0.4z M289,91.3c-20.5,0-37.3-16.7-37.3-37.1c0-20.5,16.7-37.1,37.3-37.1
		s37.3,16.7,37.3,37.1S309.6,91.3,289,91.3z"/>
	<path class="st0" d="M216.7,152.3h-15.9v42.9h175.4v-42.9h-15.8v26.2H216.7V152.3z"/>
	<path class="st0" d="M289,32.7c-11.9,0-21.5,9.6-21.5,21.3s9.6,21.3,21.5,21.3s21.5-9.6,21.5-21.3S300.9,32.7,289,32.7z"/>
	<path class="st0" d="M553.7,103.9H360.4v37.5h29v64.8H188.7v-64.8h28v-37.5H24.5C12,103.9,0,115.9,0,130.6v354.2
		c0,14.7,12,26.8,26.8,26.8h524.6c14.7,0,26.6-12,26.6-26.8V130.6C578,115.9,566.1,103.9,553.7,103.9z M158,463.5
		c0,0-93.8,2.6-93.8-34.8c0-26.4,27.3-36,39.2-40.6s24.2-9.1,24.2-9.1c0,0.2,1.2-4.2,7.1-9.8V361c0,0-4.7-5.2-9.7-13.7
		c-5.1-8.5-10.5-20.1-12-33.1c0-0.9-8.5-57.7,45.2-57.7c53.4,0,44.8,56.9,44.6,57.8C199.8,340.2,181,361,181,361v7.8
		c1.9,1.9,7.2,7.2,6.7,10.2c0,0,14.6,5,26.3,10.6c11.7,5.6,37.6,11.3,37.6,39.4C251.5,466.6,158,463.5,158,463.5z M508.9,462.5
		H312.5v-45.2h196.4V462.5z M508.9,381.5H312.5v-45.2h196.4V381.5z M508.9,300.6H312.5v-45.2h196.4V300.6z"/>
</g>
</svg>
