<?xml version="1.0" encoding="utf-8"?>
<!-- Generator: Adobe Illustrator 21.1.0, SVG Export Plug-In . SVG Version: 6.00 Build 0)  -->
<svg version="1.2" baseProfile="tiny" id="Layer_1" xmlns="http://www.w3.org/2000/svg" xmlns:xlink="http://www.w3.org/1999/xlink"
	 x="0px" y="0px" viewBox="0 0 590 512" xml:space="preserve">
<g>
	<path fill="#010101" d="M585.5,174.8c-2.8-7.5-7.7-14.7-14.9-21.7c-7.2-6.9-16.7-13.1-28.8-18.6l-21.3-9.5V72.9
		c12.1,1.3,19.1,10.2,20.8,26.6H580c0-16.5-5.4-29.9-16.1-40.1c-10.7-10.2-25.2-16.1-43.4-17.5v-9.5h-22.1v9.5
		c-16.9,1.3-30.6,7.2-40.9,17.4S442,81.8,442,96.3c0,11.9,3.8,22.8,11.6,32.8c7.7,10,22.6,20.1,44.8,30.3v66.4
		c-6.8-1.8-12-5.4-15.8-10.8c-3.7-5.5-5.6-11.9-5.6-19.2c0-0.5,0-1.3,0.1-2.5h-38.7c1.6,22.1,7.9,37.9,18.9,47.2
		c11,9.4,24.7,15.1,41.1,17.3v12h22.1v-12.1c21.1-0.5,37.9-6.5,50.3-17.9c12.5-11.4,18.7-25.5,18.7-42.3
		C589.6,189.9,588.2,182.3,585.5,174.8z M498.5,115c-11.8-7-17.7-14.8-17.7-23.5c0-10.1,5.9-16.3,17.7-18.5V115z M542.7,219.6
		c-5.8,5.1-13.2,7.6-22.2,7.5v-58.2c20.6,7.9,30.8,18.8,30.8,32.4C551.4,208.4,548.5,214.4,542.7,219.6z"/>
	<path d="M427.8,323c-7.1,18.5-17.2,35.6-29.6,50.7c-14.1-9-29.1-14.6-38.8-18.3c-22.6-8.8-46.2-17.4-46.2-17.4
		c-0.1,0-2.6-8.3-13.7-18.8v-15.5c26.9-30.6,38.7-64.5,41.5-89.4c0.2-2,16.3-110.4-85.8-110.8c-102.2,0.4-86.1,108.8-85.8,110.8
		c2.8,24.9,15.9,60.5,41.5,89.4v15.5c-11.1,10.5-13.6,18.8-13.7,18.8c0,0-23.6,8.6-46.3,17.4c-9.4,3.7-24,9-37.7,17.6
		C87.4,341.3,72,301,72,257c0-101.6,82.4-184,184-184c22.6,0,44.2,4.1,64.1,11.5l26.5-67C318.5,6.8,287.9,1,256,1
		C114.6,1,0,115.6,0,257s114.6,256,256,256c118.6,0,218.3-80.6,247.4-190H427.8z"/>
</g>
</svg>
