<?xml version="1.0" encoding="utf-8"?>
<!-- Generator: Adobe Illustrator 21.1.0, SVG Export Plug-In . SVG Version: 6.00 Build 0)  -->
<svg version="1.1" id="Layer_1" xmlns="http://www.w3.org/2000/svg" xmlns:xlink="http://www.w3.org/1999/xlink" x="0px" y="0px"
	 viewBox="0 0 487.5 512" style="enable-background:new 0 0 487.5 512;" xml:space="preserve">
<style type="text/css">
	.st0{fill:#010101;}
</style>
<g>
	<path d="M371.2,329.1c-29-13.9-65-26.3-65-26.3c1.4-7.3-11.8-20.5-16.6-25.2v-19.2c0,0,46.6-51.3,53.6-115.4
		C343.6,140.8,365,0,232.8,0C100.2,0.1,121.1,140.6,121.4,143.1c3.5,32.2,17,61.1,29.5,81.9c12.5,20.9,24.1,33.7,24.1,33.7v20
		c-14.7,13.9-17.7,24.9-17.7,24.3c0,0-30.5,11.1-59.8,22.5s-97,35.3-97,100.6c0,92.4,232,85.9,232,85.9s231.6,7.8,231.6-85.5
		C464.2,357.1,400.2,343.1,371.2,329.1z"/>
	<path class="st0" d="M482.2,222.2l-14.7-3.1c-0.4-1-0.8-2-1.2-2.9l8.1-12.5c1.8-2.6,1.4-6.1-0.9-8.3l-14.8-14.8
		c-2.3-2.2-5.7-2.6-8.4-0.9l-12.5,8.1c-0.9-0.4-1.9-0.8-2.9-1.2l-3.1-14.7c-0.6-3.1-3.4-5.3-6.5-5.3h-21c-3.1,0-5.9,2.2-6.5,5.3
		l-3.1,14.7c-0.9,0.4-1.9,0.8-2.9,1.2l-12.7-8.2c-2.6-1.8-6.1-1.4-8.3,0.9l-14.8,14.8c-2.2,2.3-2.6,5.7-0.9,8.3l8.2,12.7
		c-0.4,0.9-0.8,1.9-1.2,2.8l-14.8,3.1c-3.1,0.6-5.3,3.4-5.3,6.5v21c0,3.1,2.2,5.9,5.3,6.5l14.8,3.1c0.4,0.9,0.8,1.9,1.2,2.8
		l-8.2,12.7c-1.8,2.6-1.4,6.1,0.9,8.3l14.8,14.8c2.3,2.2,5.7,2.6,8.4,0.9l12.7-8.2c0.9,0.4,1.9,0.8,2.8,1.2l3.1,14.8
		c0.6,3.1,3.4,5.3,6.5,5.3h20.9c3.1,0,5.9-2.2,6.5-5.3l3.1-14.7c0.9-0.4,1.9-0.8,2.9-1.2l12.6,8.2c2.6,1.8,6.1,1.4,8.4-0.9
		l14.8-14.8c2.2-2.2,2.6-5.7,0.9-8.3l-8.1-12.5c0.4-0.9,0.8-1.9,1.2-2.9l14.7-3.1c3.1-0.6,5.3-3.4,5.3-6.5v-21
		C487.5,225.6,485.3,222.9,482.2,222.2z M414.9,277.1c-20.9,0-37.9-17-37.9-37.9s17-37.9,37.9-37.9c20.9,0,37.9,17,37.9,37.9
		S435.8,277.1,414.9,277.1z"/>
	<circle class="st0" cx="414.9" cy="239.2" r="22.7"/>
</g>
</svg>
