<?xml version="1.0" encoding="utf-8"?>
<!-- Generator: Adobe Illustrator 21.1.0, SVG Export Plug-In . SVG Version: 6.00 Build 0)  -->
<svg version="1.1" id="Layer_1" xmlns="http://www.w3.org/2000/svg" xmlns:xlink="http://www.w3.org/1999/xlink" x="0px" y="0px"
	 viewBox="0 0 512 512" style="enable-background:new 0 0 512 512;" xml:space="preserve">
<style type="text/css">
	.st0{fill:#010101;}
</style>
<g>
	<path class="st0" d="M256,0C114.6,0,0,114.6,0,256s114.6,256,256,256s256-114.6,256-256S397.4,0,256,0z M217.2,302.2
		c8.6,9.4,22.3,15.5,37.7,15.5c16.1,0,30.3-6.6,38.8-16.8l13.2,10.9c-12,12.8-30.8,21.1-52,21.1c-20.5,0-38.9-7.8-50.9-19.9
		L217.2,302.2z M196.6,241.1c-7.9,0.4-13.6-35.5-0.3-33.3c13.8-15.3,11.7-17.1,12.1-42.6c5.9,11.5,14.1,23,41.4,23
		c30,0,60.5-12.1,60.5,21.3c13.3-12.8,11.9,35.7-1.4,31.4c-7.9,36.3-30.1,62.4-56.2,62.4C226.6,303.3,204.4,277.3,196.6,241.1z
		 M402.3,367.6c-30.8-31.5-89-44-93.6-45l18.4,2.4c5.7,0.7,10.7-3.9,10.5-9.6c0,0-7.9-19.3-2.2-124.7c2.6-47.3-36.7-85.3-80-85.3
		c-41.9,0-80.1,35.5-80.1,80.8c0,1.5,0,3,0.1,4.4c5.7,105.4-2.2,124.6-2.2,124.6c-0.3,5.8,4.8,10.4,10.6,9.6l18.5-2.4
		c-3.7,0.8-61.9,13-93.1,44.4C85,335.1,72,296.5,72,256c0-49.2,19.1-95.4,53.9-130.1C160.7,91.1,206.8,72,256,72
		s95.3,19.1,130.1,53.9c34.8,34.8,53.9,81,53.9,130.1C440,296.9,426.8,335.7,402.3,367.6z"/>
</g>
</svg>
