<?xml version="1.0" encoding="utf-8"?>
<!-- Generator: Adobe Illustrator 21.1.0, SVG Export Plug-In . SVG Version: 6.00 Build 0)  -->
<svg version="1.1" id="_x35_2" xmlns="http://www.w3.org/2000/svg" xmlns:xlink="http://www.w3.org/1999/xlink" x="0px" y="0px"
	 viewBox="0 0 464.6 512" style="enable-background:new 0 0 464.6 512;" xml:space="preserve">
<path d="M369,386.9c-11.4,0-20.6,9.2-20.6,20.6c0,11.4,9.2,20.6,20.6,20.6c11.4,0,20.6-9.2,20.6-20.6
	C389.6,396.1,380.3,386.9,369,386.9z M390.2,337.1c0.5,1.9,1,3.9,1.5,5.9l0.2,0.7l0,0.7c-0.2,7.1-1.8,15-4.9,23.5
	c13.9,6.8,22.9,20.9,22.9,36.6c0,22.5-18.3,40.9-40.9,40.9c-22.5,0-40.9-18.3-40.9-40.9c0-21.7,16.9-39.4,38.3-40.8
	c3.4-10.7,4.2-19.3,2.3-25.1c-1.5-3.5-2.5-7.7-3.2-12.2c-27.8-12.8-59.3-23.6-59.3-23.6c1.4-7.3-11.8-20.5-16.6-25.2v-19.2
	c0,0,46.6-51.3,53.6-115.4C343.6,140.8,365,0,232.8,0C100.2,0.1,121.1,140.6,121.4,143.1c3.5,32.2,16.9,61.1,29.5,81.9
	c12.5,20.8,24.1,33.6,24.1,33.6v20c-14.7,13.9-17.7,24.9-17.7,24.3c0,0-10.1,3.7-24.3,9c-2.6,4.1-5.9,9.7-5.9,9.8
	c0.5,0.9,2.6,2.7,4.1,4.1c6.7,5.9,17.7,15.5,19,37.3c44.2,12.1,54.8,62,54,90c-0.1,4.6-4.4,7.3-8.1,9.7c-0.7,0.5-1.6,1.1-2.3,1.6
	c0.4,3,0.7,8.3-2.7,12.3c-2.4,2.8-5.9,4.3-10.6,4.5c-4.3,0.2-8.7-1.6-11.5-4.8c-2.6-2.8-3.7-6.5-3.1-10.4c1.1-7.5,5.5-10.6,8-11.8
	c3.5-1.6,7.4-1.5,10.5-0.7c1.7-1.6,3.9-3.7,4.7-4.8c0.4-16.5-6.9-42-21.8-57.5c-8.1-8.4-17.2-12.7-27-12.7
	c-23.9,0-43.3,29.2-46.6,69.7c0.6,0.7,3.5,3.9,4.2,4.7c5.1-0.5,9.2,0.4,12.2,2.9c2.1,1.7,4.6,5,4.6,11c0,5.6-2.2,8.9-4.1,10.7
	c-3.5,3.4-7.9,3.7-9.2,3.8c-0.2,0-0.3,0-0.5,0c-4.2,0-8.9-2.6-11.6-6.5c-1.5-2.2-3.6-6.6-2-12.7c-0.6-0.5-7.9-6.9-7.9-6.9l0-18.3
	c1.5-11.9,3.7-29.9,17.7-49.2c11-15.2,23.9-21.6,30.1-23.6c0.7-11.8-6.6-19.1-12.6-25.1c-3-3-5.6-5.6-6.9-8.6
	c-0.7-1.6-1.9-4.5-2-8.1c-2.7,1-5.5,2.1-8.2,3.2c-29.3,11.4-97,35.3-97,100.6c0,92.4,232,85.9,232,85.9s231.6,7.8,231.6-85.5
	C464.2,369.8,421.6,350,390.2,337.1z M314,413.6h-23.1v23.3H263v-23.3h-23.3v-28h23.2v-23.3h27.9v23.3H314V413.6z"/>
</svg>
