<?xml version="1.0" encoding="utf-8"?>
<!-- Generator: Adobe Illustrator 21.1.0, SVG Export Plug-In . SVG Version: 6.00 Build 0)  -->
<svg version="1.1" id="Layer_1" xmlns="http://www.w3.org/2000/svg" xmlns:xlink="http://www.w3.org/1999/xlink" x="0px" y="0px"
	 viewBox="0 0 512 512" style="enable-background:new 0 0 512 512;" xml:space="preserve">
<g>
	<path d="M256,0.1C114.6,0.1,0,114.7,0,256.1s114.6,256,256,256s256-114.6,256-256S397.4,0.1,256,0.1z M256,479.6
		c-69.7,0-132-31.9-173-82c33.1-42.8,112.9-57.7,112.9-57.7s1.8-4.8,5.4-9.8c3.2-4.6,8.2-9.6,8.2-9.6v-16.2c0,0-44-45.5-44-114
		c0-62,34.4-95.9,90-95.9c48.8,0,90.1,28.1,90.1,96c0,68.5-44.1,114.1-44.1,114.1v16.2c0,0,5,5,8.2,9.6c3.6,5.1,5.4,9.9,5.4,9.9
		s80.4,15.1,113.3,58.3C387.4,448,325.4,479.6,256,479.6z"/>
</g>
</svg>
