<?xml version="1.0" encoding="utf-8"?>
<!-- Generator: Adobe Illustrator 21.1.0, SVG Export Plug-In . SVG Version: 6.00 Build 0)  -->
<svg version="1.1" id="Layer_1" xmlns="http://www.w3.org/2000/svg" xmlns:xlink="http://www.w3.org/1999/xlink" x="0px" y="0px"
	 viewBox="0 0 463.6 512" style="enable-background:new 0 0 463.6 512;" xml:space="preserve">
<path d="M464.3,426.5c0,93.3-231.6,85.5-231.6,85.5s-232,6.5-232-85.9c0-65.3,67.7-89.2,97-100.6s59.8-22.5,59.8-22.5
	c0,0.6,3-10.4,17.7-24.3v-20c0,0-11.6-12.8-24.1-33.7c-12.5-20.8-26-49.7-29.5-81.9c-0.1-1.2-4.9-33.4,4.2-66.9L28.9,47.6L231.8,0
	l202.6,49.2l-15,4.9l0.5,7c5.9,0.6,10.3,4.9,10.3,10c0.5,4.8-3,8.5-8.4,9.7l8.8,99.1l-12.5,30.2l-5.1-15l-2.7,10.4l-3.4-25.1v-0.6
	l7.9-99.1c-4.7-1.5-8.4-5.1-8.4-9.7c0-5.1,4.4-9.7,10.6-10l0.2-6.5l-1.5,0.4l-76,21.9c8.7,33.3,3.9,65,3.7,66
	c-7,64.1-53.6,115.4-53.6,115.4v19.2c4.8,4.7,18,17.9,16.6,25.2c0,0,36,12.4,65,26.3C400.4,343.1,464.4,357.1,464.3,426.5z"/>
</svg>
