<?xml version="1.0" encoding="utf-8"?>
<!-- Generator: Adobe Illustrator 21.1.0, SVG Export Plug-In . SVG Version: 6.00 Build 0)  -->
<svg version="1.1" id="Layer_1" xmlns="http://www.w3.org/2000/svg" xmlns:xlink="http://www.w3.org/1999/xlink" x="0px" y="0px"
	 viewBox="0 0 462.1 512" style="enable-background:new 0 0 462.1 512;" xml:space="preserve">
<g>
	<path d="M120.6,94.5c11.2-54.2,50.9-88.7,101-92.4h0.4c2.9-0.2,15.1-0.2,17.9,0h0.4c51.5,3.8,92,40.2,101.9,97.1
		C280.3,102.2,152.3,95,120.6,94.5z"/>
	<path d="M461.2,445.8c-9.8,55.3-96.3,64.9-201.4,66.1c-9.4,0.1-19.1,0.1-28.8,0.1c-9.6,0-19.1,0-28.4-0.1
		C97.5,510.7,11,501,1,445.8c-0.7-3.4-3.4-18.1,4.4-39.5c15.7-41.3,65.9-79.8,150.9-102c0,0,2.6-5.2,6.6-10.9
		c4.8-6.8,11-14.3,11-14.3v-18.9c0,0-1.3-1.1-3.4-3.2c-6-5.9-19.1-19.6-30.5-37.5c-8.7-14.6-16.3-32.7-18.6-53.4
		c-1-4.7-1.7-9.4-2.3-14c72.1,5.3,203.2-3.4,223.3-3.5c0.3-0.1,0.5-0.2,0.8-0.3c-0.7,5.8-1.6,11.7-2.8,17.7
		c-2.3,20.7-9.8,38.7-18.6,53.4c-11.3,19-24.6,32.2-30.6,37.6c-0.1,0.1-0.1,0.1-0.1,0.1c-2,1.9-3.2,2.8-3.2,2.8v19.1
		c0,0,6,7.5,10.5,14.3c3.7,5.6,6,10.7,6,10.7c89.3,24.5,139.9,64.1,153.8,106.8C463.7,426.1,462.1,441.8,461.2,445.8z"/>
	<path d="M387.7,124.7c-3.3-1.8-7.6-3.2-12.6-4c-3.2-0.5-7.4-0.2-9.5-3.1c-1.7-2-2.9-4.1-4.6-6c-3.5-0.5-15.5,0.8-16.9-3.4
		c-0.3-2.3-1.1-6.8-1.5-9.1h-0.2c2.6,15,3.1,31.4,1.1,49c12.2-4.7,6.4,10.7,6.6,20.4c0,0,1.3,36.3,24.3,71
		c3.9,5.8,19.2,14.7,17.2,3.1c-4.3-7.4-3.5-21,0-27c0.1-3.8,0.1-7.7,0.3-11.5c-0.2-5.4-1.4-15.8,4.5-8.3
		c3.9,4.3,29.7,36.5,46.9,21.5C428.4,195.8,423.1,143.7,387.7,124.7z"/>
</g>
</svg>
