<?xml version="1.0" encoding="utf-8"?>
<!-- Generator: Adobe Illustrator 21.1.0, SVG Export Plug-In . SVG Version: 6.00 Build 0)  -->
<svg version="1.1" id="Layer_1" xmlns="http://www.w3.org/2000/svg" xmlns:xlink="http://www.w3.org/1999/xlink" x="0px" y="0px"
	 viewBox="0 0 487.5 512" style="enable-background:new 0 0 487.5 512;" xml:space="preserve">
<style type="text/css">
	.st0{fill:#010101;}
</style>
<g>
	<path d="M371.2,329.1c-29-13.9-65-26.3-65-26.3c1.4-7.3-11.8-20.5-16.6-25.2v-19.2c0,0,46.6-51.3,53.6-115.4
		C343.6,140.8,365,0,232.8,0C100.2,0.1,121.1,140.6,121.4,143.1c3.5,32.2,17,61.1,29.5,81.9c12.5,20.9,24.1,33.7,24.1,33.7v20
		c-14.7,13.9-17.7,24.9-17.7,24.3c0,0-30.5,11.1-59.8,22.5s-97,35.3-97,100.6c0,92.4,232,85.9,232,85.9s231.6,7.8,231.6-85.5
		C464.2,357.1,400.2,343.1,371.2,329.1z"/>
	<path id="fill_2_" class="st0" d="M427.1,151.8l-60.7,27.3v40.4c0,18.8,5.8,36,17.4,51.4c11.6,15.6,26,25.5,43.2,29.6
		c17.2-4.2,31.6-14,43.1-29.6c11.6-15.5,17.4-32.6,17.4-51.4v-40.4L427.1,151.8z M466.9,219.5c0,14.9-4.5,28.3-13.7,40.6l-0.1,0.1
		c-8,10.8-14.8,15.9-25.9,19.6V173.9l39.8,19.1V219.5z"/>
</g>
</svg>
