<?xml version="1.0" encoding="utf-8"?>
<!-- Generator: Adobe Illustrator 21.1.0, SVG Export Plug-In . SVG Version: 6.00 Build 0)  -->
<svg version="1.2" baseProfile="tiny" id="Layer_1" xmlns="http://www.w3.org/2000/svg" xmlns:xlink="http://www.w3.org/1999/xlink"
	 x="0px" y="0px" viewBox="0 0 590 512" xml:space="preserve">
<g>
	<path d="M427.8,323c-7.1,18.5-17.2,35.6-29.6,50.7c-14.1-9-29.1-14.6-38.8-18.3c-22.6-8.8-46.2-17.4-46.2-17.4
		c-0.1,0-2.6-8.3-13.7-18.8v-15.5c26.9-30.6,38.7-64.5,41.5-89.4c0.2-2,16.3-110.4-85.8-110.8c-102.2,0.4-86.1,108.8-85.8,110.8
		c2.8,24.9,15.9,60.5,41.5,89.4v15.5c-11.1,10.5-13.6,18.8-13.7,18.8c0,0-23.6,8.6-46.3,17.4c-9.4,3.7-24,9-37.7,17.6
		C87.4,341.3,72,301,72,257c0-101.6,82.4-184,184-184c22.6,0,44.2,4.1,64.1,11.5l26.5-67C318.5,6.8,287.9,1,256,1
		C114.6,1,0,115.6,0,257s114.6,256,256,256c118.6,0,218.3-80.6,247.4-190H427.8z"/>
	<path fill="#010101" d="M414.9,103.2v163.3c0,9.7,7.9,17.6,17.6,17.6h139c9.7,0,17.6-7.9,17.6-17.6V103.2H414.9z M473.2,228.8
		h-12.1v-68.1h12.1V228.8z M507.8,239.3h-12.1v-91.8h12.1V239.3z M542.7,228.8h-12.1v-68.1h12.1V228.8z"/>
	<path fill="#010101" d="M576.2,62h-25.7V50.9c0-11.6-9.4-20.9-20.9-20.9H472c-11.5,0-20.9,9.4-20.9,20.9V62h-23.8
		c-7.1,0-12.9,5.8-12.9,12.9l0,0c0,7.1,5.8,12.9,12.9,12.9h148.9c7.1,0,12.9-5.8,12.9-12.9l0,0C589.1,67.8,583.4,62,576.2,62z
		 M466.6,51.3c0-4.5,3.6-8.1,8.1-8.1h52.2c4.5,0,8.1,3.6,8.1,8.1V62h-68.4V51.3z"/>
</g>
</svg>
