<?xml version="1.0" encoding="utf-8"?>
<!-- Generator: Adobe Illustrator 21.1.0, SVG Export Plug-In . SVG Version: 6.00 Build 0)  -->
<svg version="1.1" id="Layer_1" xmlns="http://www.w3.org/2000/svg" xmlns:xlink="http://www.w3.org/1999/xlink" x="0px" y="0px"
	 viewBox="0 0 590 512" style="enable-background:new 0 0 590 512;" xml:space="preserve">
<g>
	<path d="M427.8,323c-7.1,18.5-17.2,35.6-29.6,50.7c-14.1-9-29.1-14.6-38.8-18.3c-22.6-8.8-46.2-17.4-46.2-17.4
		c-0.1,0-2.6-8.3-13.7-18.8v-15.5c26.9-30.6,38.7-64.5,41.5-89.4c0.2-2,16.3-110.4-85.8-110.8c-102.2,0.4-86.1,108.8-85.8,110.8
		c2.8,24.9,15.9,60.5,41.5,89.4v15.5c-11.1,10.5-13.6,18.8-13.7,18.8c0,0-23.6,8.6-46.3,17.4c-9.4,3.7-24,9-37.7,17.6
		C87.4,341.3,72,301,72,257c0-101.6,82.4-184,184-184c22.6,0,44.2,4.1,64.1,11.5l26.5-67C318.5,6.8,287.9,1,256,1
		C114.6,1,0,115.6,0,257s114.6,256,256,256c118.6,0,218.3-80.6,247.4-190H427.8z"/>
	<path d="M367,214.1c0.1,7.4,6.1,13.2,13.3,13.2h196.2c7.4,0,13.4-6.1,13.4-13.3l0,0c0-7.4-6.1-13.3-13.4-13.3H572
		c0-42.2-27.5-73.6-48.1-80L513,161.8c-1,3.5-4.3,5.7-7.9,5.2l-0.4-0.1c-3.9-0.5-6.5-4.3-6-8.1l8.4-50.3c-1.4-2.8-8-8.9-15.8-8.9
		h-26.5c-8.9,0-14.4,6.1-15.8,8.9l8.1,50.4c0.5,3.9-2.1,7.6-5.8,8.1l0,0c-3.6,0.5-7-1.7-8-5.2l-10.7-41.2c-14.3,4-48.6,35-48.6,80
		h-3.5C373,200.6,366.9,206.7,367,214.1L367,214.1z"/>
</g>
</svg>
