<?xml version="1.0" encoding="utf-8"?>
<!-- Generator: Adobe Illustrator 21.1.0, SVG Export Plug-In . SVG Version: 6.00 Build 0)  -->
<svg version="1.1" id="Layer_3" xmlns="http://www.w3.org/2000/svg" xmlns:xlink="http://www.w3.org/1999/xlink" x="0px" y="0px"
	 viewBox="0 0 464.6 512" style="enable-background:new 0 0 464.6 512;" xml:space="preserve">
<g id="fill">
	<path d="M459.9,397.4c-5.4-16.6-15.5-28.8-27.3-38c-20.4-15.9-45.9-23.4-61.4-30.9c-29-13.9-65-26.3-65-26.3c0.3-1.5,0-3.3-0.8-5.1
		c-2.8-6.9-11.3-15.6-15.3-19.6c-0.2-0.2-0.3-0.3-0.5-0.5v-19.2c0,0,35.5-39,49.2-91.5h-213c5.9,22.6,15.7,42.6,25,58.2
		c3.5,5.9,7,11.1,10.1,15.6c1.1,1.5,2.1,2.9,3,4.2c0.6,0.9,1.3,1.7,1.9,2.5c0.6,0.8,1.2,1.6,1.7,2.3c0.3,0.4,0.5,0.7,0.8,1.1
		c0.8,1,1.5,2,2.2,2.8c1.1,1.4,2.1,2.5,2.8,3.4c0.3,0.3,0.5,0.6,0.8,0.9c0.5,0.6,0.8,0.9,0.8,0.9v20c-14.7,13.9-17.7,24.9-17.7,24.3
		c0,0-30.5,11.1-59.8,22.5s-97,35.3-97,100.6c0,92.4,232,85.9,232,85.9s2.5,0.1,6.9,0.1c32.8,0.3,173.7-1.3,214-54.1
		c6.8-9,10.8-19.4,10.8-31.6C464.1,415.1,462.6,405.7,459.9,397.4z"/>
	<path d="M372.7,47.7c0,8.2-5.4,15-12.8,17.2l-18,86.1H122.3l-18-85.9c-7.8-2-13.5-9-13.5-17.4c0-9.9,8.1-18,18-18s18,8.1,18,18
		c0,4-1.3,7.7-3.5,10.6c9.9,10.7,33.1,34.3,42.2,31.8c11.5-3.2,42.3-46.8,52.1-61c-2.4-3.1-3.9-6.9-3.9-11.1c0-9.9,8.1-18,18-18
		c9.9,0,18,8.1,18,18c0,4-1.3,7.7-3.5,10.7C257.4,43,294.3,88.8,308,92.6c7.1,2,24.8-21.5,33-33.2c-2.7-3.1-4.3-7.2-4.3-11.7
		c0-9.9,8.1-18,18-18S372.7,37.8,372.7,47.7z"/>
</g>
</svg>
