<?xml version="1.0" encoding="utf-8"?>
<!-- Generator: Adobe Illustrator 21.1.0, SVG Export Plug-In . SVG Version: 6.00 Build 0)  -->
<svg version="1.1" id="Layer_1" xmlns="http://www.w3.org/2000/svg" xmlns:xlink="http://www.w3.org/1999/xlink" x="0px" y="0px"
	 viewBox="0 0 512 512" style="enable-background:new 0 0 512 512;" xml:space="preserve">
<style type="text/css">
	.st0{fill:#010101;}
</style>
<g>
	<path class="st0" d="M256,0C114.6,0,0,114.6,0,256s114.6,256,256,256s256-114.6,256-256S397.4,0,256,0z M398.5,372.4
		c-14-8.8-28.8-14.3-38.3-18C337.6,345.6,314,337,314,337c-0.1,0-2.6-8.3-13.7-18.8v-15.5c26.9-30.6,38.7-64.5,41.5-89.4
		c0.2-2,16.3-110.4-85.8-110.8c-102.2,0.4-86.1,108.8-85.8,110.8c2.8,24.9,15.9,60.5,41.5,89.4v15.5C200.6,328.7,198.1,337,198,337
		c0,0-23.6,8.6-46.3,17.4c-9.4,3.7-24,9-37.7,17.6c-0.2,0.1-0.3,0.3-0.5,0.4C86.6,339.6,72,299,72,256c0-49.2,19.1-95.4,53.9-130.1
		C160.7,91.1,206.8,72,256,72s95.3,19.1,130.1,53.9c34.8,34.8,53.9,81,53.9,130.1C440,298.9,425.4,339.6,398.5,372.4z"/>
</g>
</svg>
