<?xml version="1.0" encoding="utf-8"?>
<!-- Generator: Adobe Illustrator 21.1.0, SVG Export Plug-In . SVG Version: 6.00 Build 0)  -->
<svg version="1.1" id="fill" xmlns="http://www.w3.org/2000/svg" xmlns:xlink="http://www.w3.org/1999/xlink" x="0px" y="0px"
	 viewBox="0 0 640 512" style="enable-background:new 0 0 640 512;" xml:space="preserve">
<g>
	<path d="M230.7,279.1v-17.4c0,0-1.1-0.8-2.9-2.6l-0.1-0.1c-5.5-5-17.6-17.1-28-34.4c-8-13.4-14.9-29.9-17-48.8
		c-9.1-45.1-1-82.9,17.9-109.2c7.8-10.8,17.3-19.7,28.4-26.4c-5.3-3.8-11-6.9-17.2-9.4c-7.9-3.2-16.5-5.2-25.7-5.9
		c-0.1,0-0.2,0-0.3,0c-2.3-0.2-11.7-0.2-13.9,0h-0.1c-0.1,0-0.2,0-0.3,0c-53.9,3.9-92.1,53.9-77.4,126.8c1.7,16,7.6,30,14.3,41.3
		c8.7,14.7,19,24.9,23.7,29.2c0,0,0,0,0.1,0.1c1.6,1.4,2.5,2.1,2.5,2.1v14.8c0,0-4.7,5.9-8.2,11.1c-2.8,4.3-4.7,8.3-4.7,8.3
		C52.7,277.5,13.5,308.1,2.9,341.2c-4.1,11.8-2.9,24-2.2,27.1c4.7,26.3,31.9,39.3,71.2,45.6c0.5-4.4,1.4-9.4,3.1-14.1
		c4.2-13.2,12.3-26.2,24.3-38.3c24.2-27.7,64.9-52.4,122-69.7C225.6,285.5,230.7,279.1,230.7,279.1z"/>
	<path d="M637,341.2c-10.6-33.1-49.8-63.8-118.8-82.7c0,0-1.8-3.9-4.7-8.3c-3.5-5.2-8.1-11.1-8.1-11.1v-14.8c0,0,0.9-0.7,2.5-2.1
		c0,0,0,0,0.1-0.1c4.7-4.2,15-14.4,23.7-29.2c6.7-11.3,12.6-25.3,14.3-41.3c14.7-73-23.7-123-77.4-126.8c-0.1,0-0.2,0-0.3,0h-0.1
		c-2.1-0.2-11.7-0.2-13.9,0c-0.1,0-0.2,0-0.3,0c-9.5,0.7-18.5,2.8-26.8,6.2c-5.8,2.4-11.2,5.3-16.2,8.9
		c10.3,6.2,19.4,14.5,26.9,24.4c20,26.4,28.7,64.9,19.5,111.3c-2,18.9-9,35.4-17,48.8c-10.4,17.4-22.5,29.5-28,34.4l-0.1,0.1
		c-1.8,1.7-2.9,2.6-2.9,2.6v17.4c0,0,5.5,6.9,9.6,13.1c0.1,0.1,0.2,0.2,0.2,0.3c48.3,15.4,84.5,35.3,108.9,57.7
		c19.1,15.2,31.3,32.1,36.9,49.5c1.7,4.9,2.7,9.7,3.1,14.1c39.3-6.2,66.5-19.2,71.2-45.6C640,365.2,641.2,353.1,637,341.2z"/>
	<path d="M447,324.2c-26.6-12.8-59.6-24.1-59.6-24.1c1.3-6.7-10.8-18.8-15.2-23.1v-17.6c0,0,42.8-47.1,49.2-105.9
		c0.4-2,20-131.2-101.3-131.2c-121.7,0.1-102.5,129-102.2,131.3c3.2,29.5,15.6,56.1,27.1,75.2c11.5,19.2,22.1,30.9,22.1,30.9v18.4
		c-13.5,12.8-16.2,22.8-16.2,22.3c0,0-28,10.2-54.9,20.6c-26.9,10.5-89,32.4-89,92.3c0,84.8,212.9,78.8,212.9,78.8
		s212.5,7.2,212.5-78.5C532.3,349.9,473.6,337,447,324.2z"/>
</g>
</svg>
