<?xml version="1.0" encoding="utf-8"?>
<!-- Generator: Adobe Illustrator 21.1.0, SVG Export Plug-In . SVG Version: 6.00 Build 0)  -->
<svg version="1.1" id="Layer_1" xmlns="http://www.w3.org/2000/svg" xmlns:xlink="http://www.w3.org/1999/xlink" x="0px" y="0px"
	 viewBox="0 0 487.5 512" style="enable-background:new 0 0 487.5 512;" xml:space="preserve">
<g>
	<path d="M371.2,329.1c-29-13.9-65-26.3-65-26.3c1.4-7.3-11.8-20.5-16.6-25.2v-19.2c0,0,46.6-51.3,53.6-115.4
		C343.6,140.8,365,0,232.8,0C100.2,0.1,121.1,140.6,121.4,143.1c3.5,32.2,17,61.1,29.5,81.9c12.5,20.9,24.1,33.7,24.1,33.7v20
		c-14.7,13.9-17.7,24.9-17.7,24.3c0,0-30.5,11.1-59.8,22.5s-97,35.3-97,100.6c0,92.4,232,85.9,232,85.9s231.6,7.8,231.6-85.5
		C464.2,357.1,400.2,343.1,371.2,329.1z"/>
	<path d="M444.6,251l-39.1,14.9h-0.2l-38.7-14.7c0,0-4.2,26.3-4.5,29.9c-0.1,1.9,1.7,4.4,4.8,7.1c3.9,3.4,26.3,14.9,37,14.9
		c10.1,0,35.1-11.9,40.1-15.6c3.6-2.5,5.4-4.3,5.4-5.6C449.4,279.1,444.6,251,444.6,251z"/>
	<path d="M482.2,244.8l3.6,52.2l-5.1,15.9l-2.1-7.9l-1.1,5.5l-1.4-13.2V297l3.2-52.2c-1.9-0.8-3.4-2.7-3.4-5.1
		c0-2.7,1.8-5.1,4.3-5.3l0.1-3.4l-0.6,0.2l-74.4,27.8l-83.1-31.7l82.6-25.1l82.5,25.9l-6.1,2.6l0.2,3.7c2.4,0.3,4.2,2.6,4.2,5.3
		C485.8,242.2,484.4,244.2,482.2,244.8z"/>
</g>
</svg>
