<?xml version="1.0" encoding="utf-8"?>
<!-- Generator: Adobe Illustrator 21.1.0, SVG Export Plug-In . SVG Version: 6.00 Build 0)  -->
<svg version="1.2" baseProfile="tiny" id="Layer_1" xmlns="http://www.w3.org/2000/svg" xmlns:xlink="http://www.w3.org/1999/xlink"
	 x="0px" y="0px" viewBox="0 0 590 512" xml:space="preserve">
<g>
	<path d="M427.8,323c-7.1,18.5-17.2,35.6-29.6,50.7c-14.1-9-29.1-14.6-38.8-18.3c-22.6-8.8-46.2-17.4-46.2-17.4
		c-0.1,0-2.6-8.3-13.7-18.8v-15.5c26.9-30.6,38.7-64.5,41.5-89.4c0.2-2,16.3-110.4-85.8-110.8c-102.2,0.4-86.1,108.8-85.8,110.8
		c2.8,24.9,15.9,60.5,41.5,89.4v15.5c-11.1,10.5-13.6,18.8-13.7,18.8c0,0-23.6,8.6-46.3,17.4c-9.4,3.7-24,9-37.7,17.6
		C87.4,341.3,72,301,72,257c0-101.6,82.4-184,184-184c22.6,0,44.2,4.1,64.1,11.5l26.5-67C318.5,6.8,287.9,1,256,1
		C114.6,1,0,115.6,0,257s114.6,256,256,256c118.6,0,218.3-80.6,247.4-190H427.8z"/>
	<path fill="#010101" d="M581.8,139.2l-23.4-4.9c-0.6-1.6-1.3-3.2-1.9-4.7l13-20c2.8-4.2,2.2-9.8-1.4-13.3l-23.7-23.7
		c-3.6-3.5-9.1-4.1-13.4-1.4l-20,13c-1.5-0.7-3.1-1.3-4.7-1.9l-4.9-23.4c-1-4.9-5.4-8.4-10.4-8.4h-33.5c-5,0-9.4,3.5-10.4,8.4
		l-4.9,23.5c-1.5,0.6-3.1,1.2-4.6,1.9l-20.2-13.1c-4.2-2.8-9.8-2.2-13.3,1.4l-23.7,23.7c-3.5,3.6-4.1,9.1-1.4,13.3l13.1,20.2
		c-0.7,1.5-1.3,3-1.9,4.5l-23.6,5c-4.9,1-8.4,5.4-8.4,10.4v33.5c0,5,3.5,9.4,8.4,10.4l23.6,5c0.6,1.5,1.2,3,1.9,4.4L379,223.2
		c-2.8,4.2-2.2,9.8,1.4,13.3l23.7,23.7c3.6,3.5,9.1,4.1,13.4,1.4l20.2-13.1c1.5,0.7,3,1.3,4.5,1.9l5,23.6c1,4.9,5.4,8.4,10.4,8.4
		H491c5,0,9.4-3.5,10.4-8.4l4.9-23.5c1.5-0.6,3.1-1.2,4.6-1.9l20.1,13.1c4.2,2.8,9.8,2.2,13.4-1.4l23.7-23.7
		c3.5-3.5,4.1-9.1,1.4-13.3l-13-20c0.7-1.5,1.3-3.1,1.9-4.7l23.4-4.9c4.9-1,8.4-5.4,8.4-10.4v-33.5
		C590.2,144.6,586.7,140.3,581.8,139.2z M474.3,226.9c-33.4,0-60.5-27.1-60.5-60.5s27.1-60.5,60.5-60.5s60.5,27.1,60.5,60.5
		S507.7,226.9,474.3,226.9z"/>
	<circle fill="#010101" cx="474.3" cy="166.3" r="36.3"/>
</g>
</svg>
