<?xml version="1.0" encoding="utf-8"?>
<!-- Generator: Adobe Illustrator 21.1.0, SVG Export Plug-In . SVG Version: 6.00 Build 0)  -->
<svg version="1.2" baseProfile="tiny" id="Layer_1" xmlns="http://www.w3.org/2000/svg" xmlns:xlink="http://www.w3.org/1999/xlink"
	 x="0px" y="0px" viewBox="0 0 590 512" xml:space="preserve">
<g>
	<path d="M427.8,323c-7.1,18.5-17.2,35.6-29.6,50.7c-14.1-9-29.1-14.6-38.8-18.3c-22.6-8.8-46.2-17.4-46.2-17.4
		c-0.1,0-2.6-8.3-13.7-18.8v-15.5c26.9-30.6,38.7-64.5,41.5-89.4c0.2-2,16.3-110.4-85.8-110.8c-102.2,0.4-86.1,108.8-85.8,110.8
		c2.8,24.9,15.9,60.5,41.5,89.4v15.5c-11.1,10.5-13.6,18.8-13.7,18.8c0,0-23.6,8.6-46.3,17.4c-9.4,3.7-24,9-37.7,17.6
		C87.4,341.3,72,301,72,257c0-101.6,82.4-184,184-184c22.6,0,44.2,4.1,64.1,11.5l26.5-67C318.5,6.8,287.9,1,256,1
		C114.6,1,0,115.6,0,257s114.6,256,256,256c118.6,0,218.3-80.6,247.4-190H427.8z"/>
	<path fill="#010101" d="M582.1,111.3c0,0-4.9-20.6-16.9-34.9c-1.4-1.4-3-2.7-4.6-3.9c2.4-3,4.5-6.1,6.2-9.3
		c7.1-13.6,11-28.8,8.6-40.9c-3.1-16-9-22.6-16.3-21.2c-8.8,2-12.5,12.3-14.5,18.2c-2.3,6.9-2.7,22.2-0.5,33.7
		c1.4,8.3,2.9,13.2,0.6,20.3c-1.8,6.2-5.1,12.9-10.3,18.4s1,6.4,6,2.2c4.8-4.9,9.4-9.4,13.5-13.7c1.1,0.9,2.1,1.9,2.8,2.9
		c3.9,7,5.1,17,0.3,25.4c-6.2,10.8-20.5,14.9-31.6,8.4c-11.1-6.4-14.9-20.6-8.5-31.7c5.5-9.5,13.7-12.3,22.1-12.4
		c0.9,0,2.5,0.1,2.5,0.1s0.9-1.5,1.3-4.3c0.4-2.4,0.4-6.1,0.4-6.1s-2.1-0.5-2.6-0.6c-18.4-3.3-38.7,2.7-38.7,2.7s-31.9,3.8-39,16
		L398.7,192c-4.5,7.8-1.6,18.3,6.1,22.9l95.8,55.4c8,4.6,18.2,1.9,22.8-6.1l64.2-111.3C594.7,140.9,582.1,111.3,582.1,111.3z
		 M539.3,91.5c-4.2,4.2-3.6,2-1-0.3c5-6.1,7.7-10.3,9.6-16.6c2.3-7.2,1.5-15.9-0.2-24.4c-1.8-10.8-0.4-23.5,2.1-31.3
		c2.7-8.2,8.1-15.4,11.6-13.8c8.4,3.9,16.8,29.8,2.1,55.7c-1.8,3.2-3.8,6.4-6,9.6c-3.3-2.1-6.1-3.5-6.1-3.5c0,2.1-0.1,6.6-1.8,10.3
		c-0.1,0.1,0.7,0.5,1.9,1.2C547.9,83.3,544.3,86.3,539.3,91.5z"/>
</g>
</svg>
