<?xml version="1.0" encoding="utf-8"?>
<!-- Generator: Adobe Illustrator 21.1.0, SVG Export Plug-In . SVG Version: 6.00 Build 0)  -->
<svg version="1.2" baseProfile="tiny" id="Layer_1" xmlns="http://www.w3.org/2000/svg" xmlns:xlink="http://www.w3.org/1999/xlink"
	 x="0px" y="0px" viewBox="0 0 590 512" xml:space="preserve">
<g>
	<path fill="#010101" d="M477.3,35c-62.3,0-112.7,44.4-112.7,99.2c0,27.1,12.3,51.6,32.3,69.5c10,9-8.7,53.2-8.7,53.2
		s66.5-24.9,78.9-23.9c3.4,0.3,6.8,0.4,10.3,0.4c62.3,0,112.7-44.4,112.7-99.2C590,79.5,539.5,35,477.3,35z M430,149.1
		c-8.6,0-15.6-7-15.6-15.6s7-15.6,15.6-15.6s15.6,7,15.6,15.6S438.7,149.1,430,149.1z M480.8,149.1c-8.6,0-15.6-7-15.6-15.6
		s7-15.6,15.6-15.6s15.6,7,15.6,15.6S489.4,149.1,480.8,149.1z M531.5,149.1c-8.6,0-15.6-7-15.6-15.6s7-15.6,15.6-15.6
		s15.6,7,15.6,15.6S540.1,149.1,531.5,149.1z"/>
	<path d="M427.8,323c-7.1,18.5-17.2,35.6-29.6,50.7c-14.1-9-29.1-14.6-38.8-18.3c-22.6-8.8-46.2-17.4-46.2-17.4
		c-0.1,0-2.6-8.3-13.7-18.8v-15.5c26.9-30.6,38.7-64.5,41.5-89.4c0.2-2,16.3-110.4-85.8-110.8c-102.2,0.4-86.1,108.8-85.8,110.8
		c2.8,24.9,15.9,60.5,41.5,89.4v15.5c-11.1,10.5-13.6,18.8-13.7,18.8c0,0-23.6,8.6-46.3,17.4c-9.4,3.7-24,9-37.7,17.6
		C87.4,341.3,72,301,72,257c0-101.6,82.4-184,184-184c22.6,0,44.2,4.1,64.1,11.5l26.5-67C318.5,6.8,287.9,1,256,1
		C114.6,1,0,115.6,0,257s114.6,256,256,256c118.6,0,218.3-80.6,247.4-190H427.8z"/>
</g>
</svg>
