<?xml version="1.0" encoding="utf-8"?>
<!-- Generator: Adobe Illustrator 21.1.0, SVG Export Plug-In . SVG Version: 6.00 Build 0)  -->
<svg version="1.1" id="Layer_1" xmlns="http://www.w3.org/2000/svg" xmlns:xlink="http://www.w3.org/1999/xlink" x="0px" y="0px"
	 viewBox="0 0 487.5 512" style="enable-background:new 0 0 487.5 512;" xml:space="preserve">
<style type="text/css">
	.st0{fill:#010101;}
</style>
<g>
	<path d="M371.2,329.1c-29-13.9-65-26.3-65-26.3c1.4-7.3-11.8-20.5-16.6-25.2v-19.2c0,0,46.6-51.3,53.6-115.4
		C343.6,140.8,365,0,232.8,0C100.2,0.1,121.1,140.6,121.4,143.1c3.5,32.2,17,61.1,29.5,81.9c12.5,20.9,24.1,33.7,24.1,33.7v20
		c-14.7,13.9-17.7,24.9-17.7,24.3c0,0-30.5,11.1-59.8,22.5s-97,35.3-97,100.6c0,92.4,232,85.9,232,85.9s231.6,7.8,231.6-85.5
		C464.2,357.1,400.2,343.1,371.2,329.1z"/>
	<path class="st0" d="M418.7,168c-38,0-68.8,27.1-68.8,60.5c0,16.5,7.5,31.5,19.7,42.4c6.1,5.5-5.3,32.5-5.3,32.5
		s40.6-15.2,48.1-14.6c2.1,0.2,4.1,0.2,6.3,0.2c38,0,68.8-27.1,68.8-60.5C487.4,195.1,456.6,168,418.7,168z M389.8,237.6
		c-5.2,0-9.5-4.3-9.5-9.5c0-5.2,4.3-9.5,9.5-9.5c5.2,0,9.5,4.3,9.5,9.5C399.3,233.3,395.1,237.6,389.8,237.6z M420.8,237.6
		c-5.2,0-9.5-4.3-9.5-9.5c0-5.2,4.3-9.5,9.5-9.5c5.2,0,9.5,4.3,9.5,9.5C430.3,233.3,426.1,237.6,420.8,237.6z M451.8,237.6
		c-5.2,0-9.5-4.3-9.5-9.5c0-5.2,4.3-9.5,9.5-9.5c5.2,0,9.5,4.3,9.5,9.5C461.3,233.3,457,237.6,451.8,237.6z"/>
</g>
</svg>
