<?xml version="1.0" encoding="utf-8"?>
<!-- Generator: Adobe Illustrator 21.1.0, SVG Export Plug-In . SVG Version: 6.00 Build 0)  -->
<svg version="1.1" id="Layer_5" xmlns="http://www.w3.org/2000/svg" xmlns:xlink="http://www.w3.org/1999/xlink" x="0px" y="0px"
	 viewBox="0 0 453.6 512" style="enable-background:new 0 0 453.6 512;" xml:space="preserve">
<path d="M362.8,333.1c-4.6-2.2-9.4-4.4-14.2-6.5l15.4-66.8c2.9-12.4-3-25.5-11.3-25.5h-35.3c12.8-21.2,20.3-47.1,20.3-75.1
	c0-0.8,0-1.6,0-2.3c10.5-2.3,16.8-5.2,16.8-8.7V148c38.3-7.2,62.6-17.7,62.6-29.4c0-12.3-26.7-23.3-68.6-30.6
	c-9-30.4-26.4-61-39.7-76.8c-9.3-11-25.3-14.5-38.6-8.2l-20.5,9.7c-6.9-1-14.3-1.5-22.3-1.5c-6.9,0-13.4,0.4-19.5,1.2l-19.7-9.3
	c-13.3-6.3-29.3-2.9-38.6,8.2C136.4,27,118.9,57.6,109.9,88c-41.8,7.3-68.5,18.3-68.5,30.6c0,11.7,24.3,22.2,62.6,29.4v0.3
	c0,2.9,4.6,5.5,12.6,7.6c0,1.1,0,2.2,0,3.4c0,28,7.5,53.9,20.3,75.1h-34.4c-8.4,0-14.2,13.1-11.3,25.5l15.1,65.4
	c-3.7,1.4-7.4,2.8-11.2,4.3c-28.6,11.2-94.9,34.5-94.9,98.4c0,90.4,226.9,84,226.9,84s226.5,7.6,226.5-83.6
	C453.7,360.5,391.1,346.8,362.8,333.1z M285.4,355.8c0,4.6-4.3,7.9-8.7,6.8l-34.1-8.5c-3.3,5.3-9.1,8.8-15.8,8.8
	c-6.6,0-12.5-3.5-15.8-8.7l-33.9,8.5c-4.4,1.1-8.7-2.2-8.7-6.8V322c0-4.6,4.3-7.9,8.7-6.8l44.4,11.1c1.6-0.5,3.4-0.8,5.2-0.8
	c1.8,0,3.6,0.3,5.3,0.8l44.5-11.2c4.4-1.1,8.7,2.2,8.7,6.8V355.8z M269.1,203.1c-19.5,0-28.7-11.8-29.2-26.6h-20.6
	c-0.5,14.9-9.7,26.6-29.1,26.6c-20,0-43.4-16.9-43.4-28c0-9.5,16.2-17.2,36.3-17.2c16.3,0,30,5.1,34.6,12.1h23.9
	c4.6-7,18.4-12.1,34.8-12.1c20.1,0,36.4,7.7,36.4,17.2C312.7,186.2,289.2,203.1,269.1,203.1z"/>
</svg>
