<?xml version="1.0" encoding="utf-8"?>
<!-- Generator: Adobe Illustrator 21.1.0, SVG Export Plug-In . SVG Version: 6.00 Build 0)  -->
<svg version="1.1" id="Layer_1" xmlns="http://www.w3.org/2000/svg" xmlns:xlink="http://www.w3.org/1999/xlink" x="0px" y="0px"
	 viewBox="0 0 463.9 512" style="enable-background:new 0 0 463.9 512;" xml:space="preserve">
<path d="M329.6,310.8c1.4,0.1,2.6,0.1,3.5,0.2c0.3,0,0.7,0,1,0c12.6,0,6.2-21,4.9-56.8c-1.3-35.8,3-86.9,3-122.6
	C341.9,59.4,291.5,0.8,229.4,0.8s-112.5,58.6-112.5,131c0,26.7,3.3,82.8,2,123.6c-1.1,33.9-8.1,55.8,3,55.8c1.9,0,5.8,0,11.5-0.1
	C54.7,333.8,0,382.2,0,433.7c0,71,103.7,78.2,231,78.3h1c64-0.1,121.9-1.9,163.9-12.7c42-10.7,68.1-30.3,68.1-65.8
	C463.9,382,408.8,333.5,329.6,310.8z M231.9,339.6c-31.1,0-58.7-15.8-76.3-40.3l19.3-18.6c12.8,18.9,33.6,31.2,57,31.2
	s44.2-12.3,57-31.2l19.3,18.6C290.6,323.8,262.9,339.6,231.9,339.6z M308.2,191.1c-1.5,0-3.2-0.2-4.6-1.3
	c-9.2,45.2-40.6,87.7-78,87.7c-37.1,0-68.3-41.6-77.7-86.4c-0.3,0-0.7,0-1,0c-3.3,0-6.8-7.7-8.9-16.4l0,0c-0.1-0.6-0.3-1.2-0.4-1.8
	c0-0.1,0-0.2-0.1-0.3c-0.1-0.6-0.2-1.2-0.4-1.8c0-0.1,0-0.2,0-0.2c-0.1-0.5-0.2-1-0.3-1.4c0-0.2-0.1-0.4-0.1-0.6
	c-0.1-0.4-0.1-0.9-0.2-1.3c0-0.3-0.1-0.5-0.1-0.7c0-0.4-0.1-0.8-0.1-1.1c0-0.2,0-0.5-0.1-0.7c0-0.4-0.1-0.8-0.1-1.2
	c0-0.2,0-0.5,0-0.7c0-0.4,0-0.8-0.1-1.2c0-0.2,0-0.4,0-0.5c0-0.5,0-1,0-1.5l0,0c0-8.7,4.2-15.8,9.4-15.8c0.8,0,1.5,0.2,2.1,0.5
	c20.1-21.3,15.1-22.7,16-59.9c18.4,50.2,88.2,30.5,106.8,30.7c13.1,0.1,33.3,1.2,35.2,30.5c0.1-0.1,0.1-0.1,0.2-0.2v0.1
	c1.2-1.1,2.4-1.7,3.9-1.7c5.2,0,9.3,7.1,9.4,15.8c0,4.5-0.7,10-2,15.2h0.2C314.9,183.5,311.4,191.1,308.2,191.1z"/>
</svg>
