<?xml version="1.0" encoding="utf-8"?>
<!-- Generator: Adobe Illustrator 21.1.0, SVG Export Plug-In . SVG Version: 6.00 Build 0)  -->
<svg version="1.2" baseProfile="tiny" id="Layer_1" xmlns="http://www.w3.org/2000/svg" xmlns:xlink="http://www.w3.org/1999/xlink"
	 x="0px" y="0px" viewBox="0 0 590 512" xml:space="preserve">
<g>
	<path d="M427.8,323c-7.1,18.5-17.2,35.6-29.6,50.7c-14.1-9-29.1-14.6-38.8-18.3c-22.6-8.8-46.2-17.4-46.2-17.4
		c-0.1,0-2.6-8.3-13.7-18.8v-15.5c26.9-30.6,38.7-64.5,41.5-89.4c0.2-2,16.3-110.4-85.8-110.8c-102.2,0.4-86.1,108.8-85.8,110.8
		c2.8,24.9,15.9,60.5,41.5,89.4v15.5c-11.1,10.5-13.6,18.8-13.7,18.8c0,0-23.6,8.6-46.3,17.4c-9.4,3.7-24,9-37.7,17.6
		C87.4,341.3,72,301,72,257c0-101.6,82.4-184,184-184c22.6,0,44.2,4.1,64.1,11.5l26.5-67C318.5,6.8,287.9,1,256,1
		C114.6,1,0,115.6,0,257s114.6,256,256,256c118.6,0,218.3-80.6,247.4-190H427.8z"/>
	<path fill="#010101" d="M588.3,211.8c-0.9-30.1-26.1-88-59.6-115.6c-7.1,0-60.6,0-80.1,0c-33,26.3-51.7,75.2-56.9,99.7
		c-2.2,9.9-3.7,20.1-3.5,30.3c0.2,7.4,1.3,15.1,4.5,21.7c3.9,8.3,11.2,14,19,17.1c12.9,5,26.9,5.5,40.4,5.9c11.2,0,72.3,0.7,91-0.9
		c9.8-1,19.9-2.8,28.6-7.9c6.6-3.9,11.9-10.3,14.4-18C589.7,233.7,589.5,222.5,588.3,211.8z"/>
	<path fill="#010101" d="M453.5,72.5c-4.4,0-7.9,3.6-7.9,7.9c0,4.4,3.6,7.9,7.9,7.9h70.3c4.4,0,7.9-3.6,7.9-7.9
		c0-4.4-3.6-7.9-7.9-7.9H453.5z"/>
	<path fill="#010101" d="M436.2,50c3.8,5.3,7.9,10.2,12.5,14.6c11.8,0,65.2,0,79.8,0c0.8,0.1,14.5-16,18.8-25.2
		c1.8-3.9,3-8.5,2.2-12.9c-3.1-11.6-14.9-9.7-18.9-9c-10,2.3-13.6,4.2-24.1,8.5c-3.8,1.5-6.4-6.5-16.9-6.6c-9.4-0.1-12,8.6-15.5,7
		C464.2,22,446.8,16,438,17.2c-3.7,0.6-12.4,4-10.3,15.9C429.2,39.4,432.6,45,436.2,50z"/>
</g>
</svg>
