<?xml version="1.0" encoding="utf-8"?>
<!-- Generator: Adobe Illustrator 21.1.0, SVG Export Plug-In . SVG Version: 6.00 Build 0)  -->
<svg version="1.1" id="Layer_1" xmlns="http://www.w3.org/2000/svg" xmlns:xlink="http://www.w3.org/1999/xlink" x="0px" y="0px"
	 viewBox="0 0 590 512" style="enable-background:new 0 0 590 512;" xml:space="preserve">
<style type="text/css">
	.st0{fill:#010101;}
</style>
<g>
	<path d="M427.8,323c-7.1,18.5-17.2,35.6-29.6,50.7c-14.1-9-29.1-14.6-38.8-18.3c-22.6-8.8-46.2-17.4-46.2-17.4
		c-0.1,0-2.6-8.3-13.7-18.8v-15.5c26.9-30.6,38.7-64.5,41.5-89.4c0.2-2,16.3-110.4-85.8-110.8c-102.2,0.4-86.1,108.8-85.8,110.8
		c2.8,24.9,15.9,60.5,41.5,89.4v15.5c-11.1,10.5-13.6,18.8-13.7,18.8c0,0-23.6,8.6-46.3,17.4c-9.4,3.7-24,9-37.7,17.6
		C87.4,341.3,72,301,72,257c0-101.6,82.4-184,184-184c22.6,0,44.2,4.1,64.1,11.5l26.5-67C318.5,6.8,287.9,1,256,1
		C114.6,1,0,115.6,0,257s114.6,256,256,256c118.6,0,218.3-80.6,247.4-190H427.8z"/>
	<path class="st0" d="M471.5,44C406,44,353,97,353,162.5S406,281,471.5,281S590,228,590,162.5S536.9,44,471.5,44z M471.5,256.9
		c-52.2,0-94.4-42.3-94.4-94.4s42.3-94.4,94.4-94.4s94.4,42.3,94.4,94.4S523.6,256.9,471.5,256.9z"/>
	<path class="st0" d="M471.5,77.3c-47.1,0-85.2,38.1-85.2,85.2s38.1,85.2,85.2,85.2s85.2-38.1,85.2-85.2S518.5,77.3,471.5,77.3z
		 M533.5,179.8l-49.2-10.5c-2.7,5.8-9.1,9.1-15.5,7.8l-1.8-0.5c-0.8-0.3-1.5-0.6-2.3-1l-16.2,23.6c3,2.5,3.6,6.9,1.3,10.2
		c-2.3,3.3-6.5,4.3-10,2.5l-3.9,5.8l-1.5-1.1l3.9-5.8c-3-2.5-3.6-6.9-1.3-10.2c2.3-3.3,6.5-4.3,10-2.5l16.3-23.5
		c-4.5-3.3-6.8-9.2-5.2-14.9c0.6-2.4,1.9-4.4,3.5-6.1L449,129.7c-2.2-4.2-2.7-9-1.2-13.5l3-10l9.6,6.2c3.4,2.2,5.8,5.6,6.6,9.6
		l6.1,27.5c0.4,0,0.8,0.1,1.2,0.2l1.8,0.5c1.1,0.4,2,0.8,2.9,1.4l3-4.5l1.5,1.1l-3.1,4.5c2.5,2,4.3,5,4.9,8.2l50.2,5.1
		c2,0.2,3.9,1,5.4,2.2l9.3,7.1l-11,4C537.4,180.1,535.5,180.2,533.5,179.8z"/>
	<g>
		<path d="M471.6,157c3.6,0,6.5,2.9,6.5,6.5s-2.9,6.5-6.5,6.5s-6.5-2.9-6.5-6.5S468.1,157,471.6,157 M471.6,155
			c-4.7,0-8.5,3.8-8.5,8.5s3.8,8.5,8.5,8.5c4.7,0,8.5-3.8,8.5-8.5S476.3,155,471.6,155L471.6,155z"/>
	</g>
</g>
</svg>
