<?xml version="1.0" encoding="utf-8"?>
<!-- Generator: Adobe Illustrator 21.1.0, SVG Export Plug-In . SVG Version: 6.00 Build 0)  -->
<svg version="1.1" id="Layer_1" xmlns="http://www.w3.org/2000/svg" xmlns:xlink="http://www.w3.org/1999/xlink" x="0px" y="0px"
	 viewBox="0 0 512 512" style="enable-background:new 0 0 512 512;" xml:space="preserve">
<g>
	<g>
		<path d="M256,0C114.6,0,0,114.6,0,256s114.6,256,256,256c141.4,0,256-114.6,256-256S397.4,0,256,0z M256,479.9
			c-70.2,0-132.8-32.3-173.8-82.8c23.3-49.8,111.3-68.3,116-69.3l-20,2.6c-6.2,0.8-11.6-4.2-11.4-10.4c0,0,8.6-20.8,2.4-134.6
			c-0.1-1.6-0.1-3.2-0.1-4.8c0-48.8,41.2-87.3,86.5-87.3c46.8,0,89.2,41,86.4,92.1c-6.2,113.8,2.4,134.7,2.4,134.7
			c0.3,6.3-5.1,11.2-11.3,10.4l-20-2.6c4.7,1,93.4,19.7,116.3,70C388.1,448,325.8,479.9,256,479.9z"/>
	</g>
	<g>
		<path d="M254.9,322.6c-16.7,0-31.4-6.6-40.7-16.7l-14.3,11.7c13,13.1,32.8,21.5,55,21.5c22.9,0,43.3-8.9,56.2-22.8l-14.3-11.8
			C287.6,315.5,272.2,322.6,254.9,322.6z"/>
	</g>
	<g>
		<path d="M252.4,307.1c28.2,0,52.1-28.2,60.7-67.4c14.4,4.7,15.9-47.6,1.5-33.9c0-36.1-32.8-23-65.3-23
			c-29.5,0-38.3-12.4-44.7-24.9c-0.4,27.5,1.9,29.5-13.1,46c-14.5-2.4-8.2,36.4,0.3,36C200.3,279,224.2,307.1,252.4,307.1z"/>
	</g>
</g>
</svg>
