<?xml version="1.0" encoding="utf-8"?>
<!-- Generator: Adobe Illustrator 21.1.0, SVG Export Plug-In . SVG Version: 6.00 Build 0)  -->
<svg version="1.1" id="Layer_1" xmlns="http://www.w3.org/2000/svg" xmlns:xlink="http://www.w3.org/1999/xlink" x="0px" y="0px"
	 viewBox="0 0 487.5 512" style="enable-background:new 0 0 487.5 512;" xml:space="preserve">
<style type="text/css">
	.st0{fill:#010101;}
</style>
<g>
	<path d="M371.2,329.1c-29-13.9-65-26.3-65-26.3c1.4-7.3-11.8-20.5-16.6-25.2v-19.2c0,0,46.6-51.3,53.6-115.4
		C343.6,140.8,365,0,232.8,0C100.2,0.1,121.1,140.6,121.4,143.1c3.5,32.2,17,61.1,29.5,81.9c12.5,20.9,24.1,33.7,24.1,33.7v20
		c-14.7,13.9-17.7,24.9-17.7,24.3c0,0-30.5,11.1-59.8,22.5s-97,35.3-97,100.6c0,92.4,232,85.9,232,85.9s231.6,7.8,231.6-85.5
		C464.2,357.1,400.2,343.1,371.2,329.1z"/>
	<path class="st0" d="M466.2,191.7c0,0-2.9-12.4-10.1-21c-0.8-0.8-1.8-1.6-2.8-2.3c1.4-1.8,2.7-3.7,3.7-5.6
		c4.3-8.2,6.6-17.3,5.2-24.6c-1.9-9.6-5.4-13.6-9.8-12.7c-5.3,1.2-7.5,7.4-8.7,10.9c-1.4,4.1-1.6,13.3-0.3,20.2
		c0.8,5,1.7,7.9,0.4,12.2c-1.1,3.7-3.1,7.7-6.2,11c-3.1,3.3,0.6,3.8,3.6,1.3c2.9-2.9,5.6-5.6,8.1-8.2c0.7,0.5,1.3,1.1,1.7,1.7
		c2.3,4.2,3.1,10.2,0.2,15.3c-3.7,6.5-12.3,8.9-19,5c-6.7-3.8-8.9-12.4-5.1-19c3.3-5.7,8.2-7.4,13.3-7.4c0.5,0,1.5,0.1,1.5,0.1
		s0.5-0.9,0.8-2.6c0.2-1.4,0.2-3.7,0.2-3.7s-1.3-0.3-1.6-0.4c-11-2-23.2,1.6-23.2,1.6s-19.2,2.3-23.4,9.6L356,240.2
		c-2.7,4.7-1,11,3.7,13.8l57.5,33.3c4.8,2.8,10.9,1.1,13.7-3.7l38.5-66.8C473.7,209.5,466.2,191.7,466.2,191.7z M440.5,179.8
		c-2.5,2.5-2.2,1.2-0.6-0.2c3-3.7,4.6-6.2,5.8-10c1.4-4.3,0.9-9.5-0.1-14.7c-1.1-6.5-0.2-14.1,1.3-18.8c1.6-4.9,4.9-9.2,7-8.3
		c5,2.3,10.1,17.9,1.3,33.4c-1.1,1.9-2.3,3.8-3.6,5.8c-2-1.3-3.7-2.1-3.7-2.1c0,1.3-0.1,4-1.1,6.2c-0.1,0.1,0.4,0.3,1.1,0.7
		C445.6,174.9,443.5,176.7,440.5,179.8z"/>
</g>
</svg>
