<?xml version="1.0" encoding="utf-8"?>
<!-- Generator: Adobe Illustrator 21.1.0, SVG Export Plug-In . SVG Version: 6.00 Build 0)  -->
<svg version="1.2" baseProfile="tiny" id="Layer_1" xmlns="http://www.w3.org/2000/svg" xmlns:xlink="http://www.w3.org/1999/xlink"
	 x="0px" y="0px" viewBox="0 0 590 512" xml:space="preserve">
<g>
	<path d="M427.8,323c-7.1,18.5-17.2,35.6-29.6,50.7c-14.1-9-29.1-14.6-38.8-18.3c-22.6-8.8-46.2-17.4-46.2-17.4
		c-0.1,0-2.6-8.3-13.7-18.8v-15.5c26.9-30.6,38.7-64.5,41.5-89.4c0.2-2,16.3-110.4-85.8-110.8c-102.2,0.4-86.1,108.8-85.8,110.8
		c2.8,24.9,15.9,60.5,41.5,89.4v15.5c-11.1,10.5-13.6,18.8-13.7,18.8c0,0-23.6,8.6-46.3,17.4c-9.4,3.7-24,9-37.7,17.6
		C87.4,341.3,72,301,72,257c0-101.6,82.4-184,184-184c22.6,0,44.2,4.1,64.1,11.5l26.5-67C318.5,6.8,287.9,1,256,1
		C114.6,1,0,115.6,0,257s114.6,256,256,256c118.6,0,218.3-80.6,247.4-190H427.8z"/>
	<path fill="#010101" d="M586.7,120.9h-33.2V83.2c0-34.1-27.6-61.8-61.8-61.8l0,0c-34.1,0-61.8,27.6-61.8,61.8v37.7h-32.7l-3.4,2.9
		V268h196.1V123.8L586.7,120.9z M455,83.2c0-20.3,16.5-36.8,36.8-36.8s36.8,16.5,36.8,36.8v37.7H455V83.2z"/>
</g>
</svg>
