<?xml version="1.0" encoding="utf-8"?>
<!-- Generator: Adobe Illustrator 21.1.0, SVG Export Plug-In . SVG Version: 6.00 Build 0)  -->
<svg version="1.1" id="Layer_1" xmlns="http://www.w3.org/2000/svg" xmlns:xlink="http://www.w3.org/1999/xlink" x="0px" y="0px"
	 viewBox="0 0 487.5 512" style="enable-background:new 0 0 487.5 512;" xml:space="preserve">
<style type="text/css">
	.st0{fill:#010101;}
</style>
<g>
	<path d="M371.2,329.1c-29-13.9-65-26.3-65-26.3c1.4-7.3-11.8-20.5-16.6-25.2v-19.2c0,0,46.6-51.3,53.6-115.4
		C343.6,140.8,365,0,232.8,0C100.2,0.1,121.1,140.6,121.4,143.1c3.5,32.2,17,61.1,29.5,81.9c12.5,20.9,24.1,33.7,24.1,33.7v20
		c-14.7,13.9-17.7,24.9-17.7,24.3c0,0-30.5,11.1-59.8,22.5s-97,35.3-97,100.6c0,92.4,232,85.9,232,85.9s231.6,7.8,231.6-85.5
		C464.2,357.1,400.2,343.1,371.2,329.1z"/>
	<path class="st0" d="M487,265.3c-0.5-16.8-14.6-49.2-33.3-64.6c-4,0-33.9,0-44.8,0c-18.4,14.7-28.9,42-31.8,55.7
		c-1.2,5.5-2.1,11.2-2,16.9c0.1,4.1,0.7,8.4,2.5,12.1c2.2,4.6,6.3,7.8,10.6,9.6c7.2,2.8,15,3.1,22.6,3.3c6.3,0,40.4,0.4,50.9-0.5
		c5.5-0.6,11.1-1.6,16-4.4c3.7-2.2,6.7-5.8,8.1-10.1C487.8,277.6,487.7,271.3,487,265.3z"/>
	<path class="st0" d="M411.6,187.4c-2.5,0-4.4,2-4.4,4.4c0,2.5,2,4.4,4.4,4.4h39.3c2.5,0,4.4-2,4.4-4.4c0-2.5-2-4.4-4.4-4.4H411.6z"
		/>
	<path class="st0" d="M402,174.9c2.1,3,4.4,5.7,7,8.2c6.6,0,36.5,0,44.6,0c0.4,0.1,8.1-8.9,10.5-14.1c1-2.2,1.7-4.8,1.2-7.2
		c-1.7-6.5-8.3-5.4-10.6-5c-5.6,1.3-7.6,2.3-13.5,4.8c-2.1,0.8-3.6-3.6-9.4-3.7c-5.3-0.1-6.7,4.8-8.7,3.9
		c-5.5-2.5-15.3-5.8-20.2-5.1c-2.1,0.3-6.9,2.2-5.8,8.9C398,168.9,399.9,172.1,402,174.9z"/>
</g>
</svg>
