<?xml version="1.0" encoding="utf-8"?>
<!-- Generator: Adobe Illustrator 21.1.0, SVG Export Plug-In . SVG Version: 6.00 Build 0)  -->
<svg version="1.1" id="Layer_1" xmlns="http://www.w3.org/2000/svg" xmlns:xlink="http://www.w3.org/1999/xlink" x="0px" y="0px"
	 viewBox="0 0 487.5 512" style="enable-background:new 0 0 487.5 512;" xml:space="preserve">
<style type="text/css">
	.st0{fill:#010101;}
</style>
<g>
	<path d="M371.2,329.1c-29-13.9-65-26.3-65-26.3c1.4-7.3-11.8-20.5-16.6-25.2v-19.2c0,0,46.6-51.3,53.6-115.4
		C343.6,140.8,365,0,232.8,0C100.2,0.1,121.1,140.6,121.4,143.1c3.5,32.2,17,61.1,29.5,81.9c12.5,20.9,24.1,33.7,24.1,33.7v20
		c-14.7,13.9-17.7,24.9-17.7,24.3c0,0-30.5,11.1-59.8,22.5s-97,35.3-97,100.6c0,92.4,232,85.9,232,85.9s231.6,7.8,231.6-85.5
		C464.2,357.1,400.2,343.1,371.2,329.1z"/>
	<path class="st0" d="M483.3,251.5c-1.8-4.9-5.1-9.6-9.8-14.2c-4.7-4.5-11-8.6-18.9-12.2l-14-6.2v-34.2c7.9,0.9,12.5,6.7,13.6,17.5
		h25.4c0-10.8-3.5-19.6-10.6-26.3c-7-6.7-16.5-10.6-28.5-11.5v-6.2H426v6.2c-11.1,0.9-20.1,4.7-26.8,11.4S389,190.6,389,200.1
		c0,7.8,2.5,15,7.6,21.5c5.1,6.6,14.8,13.2,29.4,19.9v43.6c-4.5-1.2-7.9-3.5-10.4-7.1c-2.4-3.6-3.7-7.8-3.7-12.6
		c0-0.3,0-0.9,0.1-1.6h-25.4c1,14.5,5.2,24.9,12.4,31c7.2,6.2,16.2,9.9,27,11.3v7.9h14.5v-7.9c13.8-0.3,24.9-4.3,33-11.7
		c8.2-7.5,12.3-16.7,12.3-27.7C486,261.4,485.1,256.4,483.3,251.5z M426.2,212.2c-7.7-4.6-11.6-9.7-11.6-15.4
		c0-6.6,3.9-10.7,11.6-12.1V212.2z M455.2,280.9c-3.8,3.3-8.7,5-14.6,4.9v-38.2c13.5,5.2,20.2,12.3,20.2,21.3
		C460.9,273.5,459,277.5,455.2,280.9z"/>
</g>
</svg>
