<?xml version="1.0" encoding="utf-8"?>
<!-- Generator: Adobe Illustrator 21.1.0, SVG Export Plug-In . SVG Version: 6.00 Build 0)  -->
<svg version="1.1" id="Layer_1" xmlns="http://www.w3.org/2000/svg" xmlns:xlink="http://www.w3.org/1999/xlink" x="0px" y="0px"
	 viewBox="0 0 487.5 512" style="enable-background:new 0 0 487.5 512;" xml:space="preserve">
<style type="text/css">
	.st0{fill:#010101;}
</style>
<g>
	<path d="M371.2,329.1c-29-13.9-65-26.3-65-26.3c1.4-7.3-11.8-20.5-16.6-25.2v-19.2c0,0,46.6-51.3,53.6-115.4
		C343.6,140.8,365,0,232.8,0C100.2,0.1,121.1,140.6,121.4,143.1c3.5,32.2,17,61.1,29.5,81.9c12.5,20.9,24.1,33.7,24.1,33.7v20
		c-14.7,13.9-17.7,24.9-17.7,24.3c0,0-30.5,11.1-59.8,22.5s-97,35.3-97,100.6c0,92.4,232,85.9,232,85.9s231.6,7.8,231.6-85.5
		C464.2,357.1,400.2,343.1,371.2,329.1z"/>
	<path class="st0" d="M455.4,296.7l-32.8-17.2c-2.7-1.4-6-1.4-8.7,0l-32.6,17.2c-3.9,2-8.4-1.2-7.7-5.5l6.2-36.4
		c0.5-3-0.5-6.1-2.7-8.2l-26.4-25.8c-3.1-3.1-1.4-8.3,2.9-9l36.6-5.3c3.1-0.4,5.6-2.3,7.1-5.1l16.3-33.2c2-3.9,7.5-3.9,9.4,0
		l16.4,33.1c1.3,2.8,4,4.7,7.1,5.1l36.5,5.3c4.4,0.6,6.1,6,2.9,9l-26.5,25.8c-2.2,2.1-3.3,5.3-2.7,8.3l6.4,36.3
		C463.8,295.4,459.3,298.7,455.4,296.7z"/>
</g>
</svg>
