<?xml version="1.0" encoding="utf-8"?>
<!-- Generator: Adobe Illustrator 21.1.0, SVG Export Plug-In . SVG Version: 6.00 Build 0)  -->
<svg version="1.1" id="Shape_1_1_" xmlns="http://www.w3.org/2000/svg" xmlns:xlink="http://www.w3.org/1999/xlink" x="0px" y="0px"
	 viewBox="0 0 512 512" style="enable-background:new 0 0 512 512;" xml:space="preserve">
<g>
	<path d="M13.8,482H72V30H13.8C6.2,30,0,36.1,0,43.7v424.5C0,475.9,6.2,482,13.8,482z"/>
	<path d="M440,30v452h58.3c7.6,0,13.7-6.1,13.7-13.7V43.7c0-7.6-6.1-13.7-13.7-13.7H440z"/>
	<polygon points="321,256 420.1,355.1 355.1,420.1 256,321 156.9,420.1 91.9,355.1 191,256 91.9,156.9 156.9,91.9 256,191 
		355.1,91.9 420.1,156.9 	"/>
</g>
</svg>
