<?xml version="1.0" encoding="utf-8"?>
<!-- Generator: Adobe Illustrator 21.1.0, SVG Export Plug-In . SVG Version: 6.00 Build 0)  -->
<svg version="1.1" id="Layer_1" xmlns="http://www.w3.org/2000/svg" xmlns:xlink="http://www.w3.org/1999/xlink" x="0px" y="0px"
	 viewBox="0 0 735.1 512" style="enable-background:new 0 0 735.1 512;" xml:space="preserve">
<g>
	<path d="M246.1,365.5c-40.3,0-73,32.7-73,73s32.7,73,73,73s73-32.7,73-73S286.4,365.5,246.1,365.5z M246.1,474.2
		c-19.7,0-35.7-16-35.7-35.7s16-35.7,35.7-35.7s35.7,16,35.7,35.7S265.8,474.2,246.1,474.2z"/>
	<path d="M571.2,365.5c-40.3,0-73,32.7-73,73s32.7,73,73,73s73-32.7,73-73S611.5,365.5,571.2,365.5z M571.2,474.2
		c-19.7,0-35.7-16-35.7-35.7s16-35.7,35.7-35.7s35.7,16,35.7,35.7S590.9,474.2,571.2,474.2z"/>
	<path d="M712.2,390.5c0-0.7,0.8-143.8,0.6-146.6s-0.5-7.2-1-13.2s-1.3-10.6-2.5-13.9c-1.2-3.3-2.9-7.1-5.2-11.2
		c-2.3-4.2-5.1-7.9-8.3-11.2l-72.7-73.7c-4.9-5-11.2-9.1-18.9-12.5c-7.7-3.3-14.8-5-21.3-5h-59.5V23.4c0-6.3-2.3-11.9-6.9-16.7
		c-4.6-4.8-10.2-7.2-16.7-7.2H128.5c-6.6,0-12.1,2.4-16.7,7.2c-4.6,4.8-6.9,10.4-6.9,16.7v69.1H35.1c-14.4,0-26,11.6-26,26
		s11.6,26,26,26H105v52H89.1c-14.4,0-26,11.6-26,26s11.6,26,26,26H105v52H26c-14.4,0-26,11.6-26,26s11.6,26,26,26h79v69
		c-5,0-9,3-9,7.9s4,9.1,9,9.1s33.9,0,47,0c0-55,44.3-94,94-94s94,40.8,94,94c132.4,0,137.1-0.1,137.1-0.1c0-41.3,31.7-93.9,94-93.9
		c59.5,0,93.7,50.6,93.7,93.9c0,0,34.8,0.1,47.3,0.1s23-12.7,23-25S724.2,390.5,712.2,390.5z M682.1,247.1H523.4V134.6h58.5
		c7.3,0,12.3,0.9,15.2,2.7v6.6l-1.9-0.9l-1,1c-0.3,1-0.5,2.2-0.5,3.5s0.2,2.5,0.5,3.5l1,1l5.9,3.5c0.3,0,0.6-0.5,1-1.5
		c0.3-1,0.5-2,0.5-3c0-1.3-0.2-2.5-0.5-3.5c-0.3-0.7-1.2-1.5-2.4-2.5l-1.5-0.7V138l80.1,89.6c2.6,2.3,3.9,5.2,3.9,8.5L682.1,247.1
		L682.1,247.1z"/>
</g>
</svg>
