<?xml version="1.0" encoding="utf-8"?>
<!-- Generator: Adobe Illustrator 21.1.0, SVG Export Plug-In . SVG Version: 6.00 Build 0)  -->
<svg version="1.1" id="Layer_1" xmlns="http://www.w3.org/2000/svg" xmlns:xlink="http://www.w3.org/1999/xlink" x="0px" y="0px"
	 viewBox="0 0 550 512" style="enable-background:new 0 0 550 512;" xml:space="preserve">
<g>
	<path d="M223.9,341.7c-1.5,0.1-2.9,0.2-4.5,0.2c-34,0-61.5-27.5-61.5-61.5c0-19.6,9.2-37.1,23.4-48.3c0.8-26.1,7.9-53.3,17.4-70.2
		c-56.6,9.8-99.6,59.1-99.6,118.5c0,19.9,4.9,38.7,13.4,55.3l-24.2,24.2l-50-50L0,348.1l50,50l-48,48l41.6,41.6l48-48l50.6,50.6
		l38.3-38.3l-50.6-50.6l21.8-21.8c19.3,13.2,42.6,20.9,67.8,20.9c23.9,0,46.2-7,64.9-19C259.4,373.9,231.7,350.9,223.9,341.7z"/>
	<path d="M550,158V20.2l-136.4,0.1L413.6,84l34.9-2.2l-48.8,48.8c-17.8-10.5-38.6-16.4-60.8-16.4c-66.4,0-120.3,53.9-120.3,120.3
		s53.9,120.3,120.3,120.3s120.3-53.8,120.3-120.3c0-23-6.4-44.4-17.6-62.6l48.4-48.4l-2.1,34.6L550,158z M338.8,295.9
		c-34,0-61.5-27.5-61.5-61.5s27.5-61.5,61.5-61.5s61.5,27.5,61.5,61.5C400.3,268.4,372.8,295.9,338.8,295.9z"/>
</g>
</svg>
