<?xml version="1.0" encoding="utf-8"?>
<!-- Generator: Adobe Illustrator 21.1.0, SVG Export Plug-In . SVG Version: 6.00 Build 0)  -->
<svg version="1.1" id="Layer_4" xmlns="http://www.w3.org/2000/svg" xmlns:xlink="http://www.w3.org/1999/xlink" x="0px" y="0px"
	 viewBox="0 0 574 512" style="enable-background:new 0 0 574 512;" xml:space="preserve">
<path d="M358.3,447.5H43.9C19.7,447.5,0,427.8,0,403.6V109.8c0-9.2,2.8-17.7,7.7-24.8l386.9,343.3
	C386.6,439.9,373.3,447.5,358.3,447.5z M574,373.1c0,4.7-0.8,9.2-2.2,13.5c-7.5,22.3-33.4,32.4-54.4,21.8l-64.5-39.9l109.6,98.2
	c11.2,9.9,11.7,27.2,1.2,37.8c-5,5-11.7,7.6-18.3,7.6c-6.1,0-12.3-2.2-17.2-6.5L11.3,45.7C0.1,35.8-0.4,18.5,10.2,7.9
	c5.1-5,11.7-7.6,18.4-7.6c6.1,0,12.3,2.2,17.2,6.5l65.5,59.1h247.1c24.3,0,43.9,19.7,43.9,43.9v213.7l11,9.7V166.3h14.4l88-61.7
	c25.1-14.4,57.1,2.6,58.3,31.5c0,0.6,0,1.2,0,1.8V373.1z"/>
</svg>
