<?xml version="1.0" encoding="utf-8"?>
<!-- Generator: Adobe Illustrator 21.1.0, SVG Export Plug-In . SVG Version: 6.00 Build 0)  -->
<svg version="1.1" id="Layer_6" xmlns="http://www.w3.org/2000/svg" xmlns:xlink="http://www.w3.org/1999/xlink" x="0px" y="0px"
	 viewBox="0 0 624 512" style="enable-background:new 0 0 624 512;" xml:space="preserve">
<g id="_x36_2">
	<path d="M623.9,259C623.9,259,623.9,259,623.9,259L623.9,259C624,259,624,259,623.9,259z M624,258.7L624,258.7
		C624,258.7,624,258.7,624,258.7z M391.2,96.1c-147.1,0-232.8,162.6-232.8,162.6v0.3c0,0,88,162.9,233,162.9
		c144,0,228.7-155.9,232.5-163l0-0.1c0,0,0,0.1,0.1,0.1c0,0,0,0,0,0c0-0.1,0-0.1,0-0.1C620.3,252.4,532.9,96.1,391.2,96.1z
		 M472.5,297.5c-3.8-11.5-14.7-19.8-27.4-19.8c-16,0-28.9,12.9-28.9,28.9c0,15.3,11.9,27.9,27,28.9c-14.4,10.5-32.2,16.9-51.4,16.9
		c-48,0-86.9-38.9-86.9-86.9s38.9-86.9,86.9-86.9c48-0.1,86.9,38.8,86.9,86.8C478.7,276.8,476.5,287.6,472.5,297.5z"/>
	<rect y="225.5" width="130" height="62"/>
	<rect width="267" height="62"/>
	<rect y="451" width="267" height="62"/>
</g>
</svg>
