<?xml version="1.0" encoding="utf-8"?>
<!-- Generator: Adobe Illustrator 21.1.0, SVG Export Plug-In . SVG Version: 6.00 Build 0)  -->
<svg version="1.1" id="Layer_6" xmlns="http://www.w3.org/2000/svg" xmlns:xlink="http://www.w3.org/1999/xlink" x="0px" y="0px"
	 viewBox="0 0 624 512" style="enable-background:new 0 0 624 512;" xml:space="preserve">
<g id="_x35_2_1_">
	<rect width="287" height="62"/>
	<rect y="449.8" width="287" height="62.2"/>
	<rect y="225.5" width="130.1" height="62"/>
	<polygon points="624,0 261.5,467 199.8,467 562.7,0 	"/>
	<path d="M624,260.2L624,260.2C624,260.2,624,260.2,624,260.2z M526.9,147.8l-58.6,75.5c6.8,12.3,10.6,26.4,10.6,41.4
		c0,13.4-3.1,26-8.5,37.3c-2.8-13.3-14.6-23.3-28.7-23.3c-16.2,0-29.3,13.1-29.3,29.3c0,15.3,11.7,27.8,26.5,29.2
		c-13.3,8.4-29,13.2-45.8,13.2c-7.4,0-14.6-0.9-21.5-2.7l-49,63.1c21.1,7.8,44.2,12.5,68.8,12.5c144.2,0,228.9-156.4,232.4-163
		c0-0.1,0-0.1,0-0.2C621.8,256.2,587.1,194.1,526.9,147.8z M391.3,97.5c-147.1,0-232.7,162.6-232.7,162.6v0.3
		c0,0,34.9,64.6,97,112.4l58.3-75.6c-4.1-10-6.4-21-6.4-32.5c0-47.4,38.4-85.8,85.8-85.8c3.8,0,7.6,0.3,11.3,0.7l54.1-70.1
		C437.8,102.1,415.3,97.5,391.3,97.5z"/>
</g>
</svg>
