<?xml version="1.0" encoding="utf-8"?>
<!-- Generator: Adobe Illustrator 21.1.0, SVG Export Plug-In . SVG Version: 6.00 Build 0)  -->
<svg version="1.1" id="Layer_1" xmlns="http://www.w3.org/2000/svg" xmlns:xlink="http://www.w3.org/1999/xlink" x="0px" y="0px"
	 viewBox="0 0 512 512" style="enable-background:new 0 0 512 512;" xml:space="preserve">
<style type="text/css">
	.st0{fill:#0C0506;}
</style>
<g>
	<path class="st0" d="M400.3,423.8v8.6h9v-8.6H400.3z M382,423.8v8.6h9.3v-8.6H382z M400.3,423.8v8.6h9v-8.6H400.3z M382,432.3h9.3
		v-8.6H382V432.3z M262.9,409.9v13.8h13.8v-13.8H262.9z M235.6,409.9v13.8h13.4v-13.8H235.6z M262.9,409.9v13.8h13.8v-13.8H262.9z
		 M235.6,423.8h13.4v-13.8h-13.4V423.8z M127.3,423.8v8.6h9.3v-8.6H127.3z M109.4,423.8v8.6h9v-8.6H109.4z M127.3,423.8v8.6h9.3
		v-8.6H127.3z M109.4,432.3h9v-8.6h-9V432.3z M484.7,310.3H512c-20.8-32.3-66.1-55.9-95.2-59.4c-0.3,0-0.3-67,0-80.9h34L256.2,0.9
		L61.2,170.1h34c0.5,11.7,0.6,77.7,0.4,77.9c-29.5,4.7-74.2,34.7-95.6,62.4h27.3v176.4H0v26.9h512v-26.9h-27.3V310.3z M257.2,82.7
		l46.8,41.8l-7.8,7.8l-38.9-34.8l-38.9,34.8l-7.8-7.8L257.2,82.7z M262.9,167v-23.5h23.8V167H262.9z M286.7,176v23.5h-23.8V176
		H286.7z M225.6,167v-23.5h23.8V167H225.6z M249.5,176v23.5h-23.8V176H249.5z M170.7,486.8H68.3v-74.3c0-28.3,22.9-51.2,51.2-51.2
		s51.2,22.9,51.2,51.2V486.8z M324.2,486.8H187.8V394c0-37.6,30.5-68.2,68.2-68.2c37.6,0,68.2,30.5,68.2,68.2V486.8z M443.7,486.8
		H341.3V413c0-28.3,22.9-51.2,51.2-51.2c28.3,0,51.2,22.9,51.2,51.2V486.8z M400.3,432.3h9v-8.6h-9V432.3z M382,432.3h9.3v-8.6H382
		V432.3z M262.9,423.8h13.8v-13.8h-13.8V423.8z M235.6,423.8h13.4v-13.8h-13.4V423.8z M127.3,432.3h9.3v-8.6h-9.3V432.3z
		 M109.4,432.3h9v-8.6h-9V432.3z"/>
</g>
</svg>
