<?xml version="1.0" encoding="utf-8"?>
<!-- Generator: Adobe Illustrator 21.1.0, SVG Export Plug-In . SVG Version: 6.00 Build 0)  -->
<svg version="1.1" id="Layer_1" xmlns="http://www.w3.org/2000/svg" xmlns:xlink="http://www.w3.org/1999/xlink" x="0px" y="0px"
	 viewBox="0 0 512 512" style="enable-background:new 0 0 512 512;" xml:space="preserve">
<path d="M511.7,140.5c-1.6,49.6-36.8,118.3-104,204.8c-70.4,91.2-128,136-176,136c-30.4,0-54.4-27.2-75.2-83.2
	c-14.4-51.2-27.2-100.8-41.6-151.9C99,191.8,83,163,65.4,163c-3.2,0-17.6,8-40,24l-25.6-30.4c25.6-22.4,49.6-44.8,75.2-67.2
	c33.6-28.8,59.2-44.8,75.2-46.4c40-3.2,64,24,73.6,81.6c9.6,62.4,17.6,102.3,20.8,116.8c11.2,52.8,24,78.4,38.4,78.4
	c11.2,0,27.2-17.6,47.9-51.2c20.8-33.6,33.6-59.2,35.2-76.8c3.2-28.8-8-43.2-35.2-43.2c-12.8,0-25.6,3.2-38.4,8
	c25.7-83.5,73.7-123.5,144.1-120.3C489.4,39.8,514.9,73.4,511.7,140.5z"/>
</svg>
