<?xml version="1.0" encoding="utf-8"?>
<!-- Generator: Adobe Illustrator 21.1.0, SVG Export Plug-In . SVG Version: 6.00 Build 0)  -->
<svg version="1.1" id="social-rss-circle.svg" xmlns="http://www.w3.org/2000/svg" xmlns:xlink="http://www.w3.org/1999/xlink"
	 x="0px" y="0px" viewBox="0 0 512 512" style="enable-background:new 0 0 512 512;" xml:space="preserve">
<path d="M256,0C115.2,0,0,115.2,0,256s115.2,256,256,256s256-115.2,256-256S396.8,0,256,0z M369.6,286.4
	c-11.2,3.2-20.8,3.2-30.4,3.2c-20.8,44.8-60.8,83.2-73.6,91.2c-8,4.8-16,4.8-25.6,0c-16-9.6-75.2-59.2-96-212.8h43.2
	c11.2,92.8,38.4,140.8,67.2,176c16-16,32-38.4,44.8-62.4c-28.8-14.4-46.4-48-46.4-84.8c0-38.4,22.4-67.2,59.2-67.2
	c36.8,0,56,22.4,56,62.4c0,14.4-3.2,30.4-9.6,44.8c-27.2,4.8-36.8-12.8-36.8-12.8c1.6-6.4,4.8-17.6,4.8-28.8
	c0-19.2-6.4-28.8-16-28.8c-11.2,0-17.6,9.6-17.6,28.8c0,40,25.6,62.4,57.6,62.4c6.4,0,12.8,0,19.2-1.6V286.4z"/>
</svg>
