<?xml version="1.0" encoding="utf-8"?>
<!-- Generator: Adobe Illustrator 21.1.0, SVG Export Plug-In . SVG Version: 6.00 Build 0)  -->
<svg version="1.1" id="Layer_1" xmlns="http://www.w3.org/2000/svg" xmlns:xlink="http://www.w3.org/1999/xlink" x="0px" y="0px"
	 viewBox="0 0 660 512" style="enable-background:new 0 0 660 512;" xml:space="preserve">
<path d="M638.6,513H21.4C9.6,513,0,503.4,0,491.6V23.4C0,11.6,9.6,2,21.4,2h617.2c11.8,0,21.4,9.6,21.4,21.4v468.2
	C660,503.4,650.4,513,638.6,513z M152.5,266.5l-16.9-82.4c-2.1-10.1-9.2-15.1-21.4-15.1H37.5l-0.3,3.8
	C96.4,187.4,134.9,218.6,152.5,266.5z M203.5,169l-46.2,122.3l-4.9-24.9c-4.9-13-13-25-24.3-36.1c-11.3-11-23.8-19.3-37.6-24.8
	L129.3,348h50l74.5-179H203.5z M243.6,348h47.2l29.7-179h-47.2L243.6,348z M463.3,173.3c-13.1-5-27.3-7.5-42.8-7.5
	c-23.3,0-42.5,5.5-57.4,16.4c-14.9,11-22.5,25.2-22.5,42.8c-0.3,19.1,13.5,35.3,41.3,48.6c9.1,4.4,15.5,8.2,19.1,11.7
	c3.6,3.4,5.5,7.1,5.5,11c0,5.5-2.9,9.7-8.6,12.7c-5.7,2.9-12.2,4.4-19.5,4.4c-16.6,0-31.5-3.1-44.9-9.2l-6.3-2.8l-6.6,40
	c14.3,6.4,31.9,9.6,52.9,9.6c25,0.3,45-5.3,60-16.4c14.9-11.2,22.6-26.1,23.1-44.8c0-19.9-13.4-36.1-40.3-48.6
	c-9.3-4.8-16.1-8.7-20.3-11.8c-4.2-3-6.3-6.6-6.3-10.8c0-3.9,2.3-7.4,7-10.4c4.7-3.1,11.4-4.6,20.3-4.6c13.3-0.3,25.1,1.9,35.4,6.5
	l4.2,2.4L463.3,173.3z M584.7,169h-36.3c-12.4,0-20.6,5-24.8,15l-70.2,164h49.5l10.1-27h60.6c0.9,4.1,2.8,13.1,5.6,27h43.9
	L584.7,169z M566,284h-39.6c2.6-6.9,8.9-23.5,19-50l0.7-2.4c0.9-1.8,1.9-4.3,2.9-7.4c1.1-3.1,1.9-5.5,2.7-7.4l3.5,15.3L566,284z"/>
</svg>
