<?xml version="1.0" encoding="utf-8"?>
<!-- Generator: Adobe Illustrator 21.1.0, SVG Export Plug-In . SVG Version: 6.00 Build 0)  -->
<svg version="1.1" id="Layer_1" xmlns="http://www.w3.org/2000/svg" xmlns:xlink="http://www.w3.org/1999/xlink" x="0px" y="0px"
	 viewBox="0 0 511.5 512" style="enable-background:new 0 0 511.5 512;" xml:space="preserve">
<path d="M476.4,82.2h-44.9v-45c0-20.5-16.7-37.1-37.2-37.2h-275C98.7,0,82.1,16.6,82.1,37.2v127.2H37.1C16.6,164.3,0,180.9,0,201.4
	v275c0,20.5,16.6,37.1,37.1,37.1c0,0,0,0,0.1,0h275c20.5,0,37.1-16.6,37.1-37.1v-45h127.1c20.5,0,37.1-16.6,37.1-37.1v-275
	C513.4,98.8,496.8,82.2,476.4,82.2z M112.9,47.2c0-9,7.3-16.3,16.3-16.2c0,0,0,0,0,0h255c9,0,16.3,7.3,16.3,16.2v35H201.3
	c-20.5,0-37,16.6-37.1,37.1v45h-51.3V47.2z M195,384.3v-35h123.4v51.3H211.3C202.3,400.5,195.1,393.3,195,384.3
	C195,384.3,195,384.3,195,384.3z M195,318.4V195.1h107.1c9,0,16.3,7.3,16.3,16.3v107H195z M112.9,195.1h51.3v123.3h-35
	c-9,0-16.3-7.3-16.3-16.4V195.1z M312.1,164.3H195v-35c0-9,7.3-16.2,16.3-16.2h189.2v189.1c0,9-7.3,16.4-16.3,16.4h-35v-117
	C349.2,180.9,332.6,164.3,312.1,164.3z M318.5,466.4c0,9-7.3,16.3-16.3,16.3h-255c-9,0-16.3-7.3-16.3-16.3v-255
	c0-8.9,7.3-16.3,16.3-16.3h34.9v116.9c0,20.5,16.6,37.2,37.2,37.2h45v45c0,20.5,16.6,37.1,37.1,37.1h117.1V466.4z M482.6,384.3
	c0,9-7.3,16.3-16.3,16.3H349.3v-51.3h45c20.5,0,37.2-16.7,37.2-37.2V113h34.9c9,0,16.3,7.3,16.3,16.2V384.3z"/>
</svg>
