<?xml version="1.0" encoding="utf-8"?>
<!-- Generator: Adobe Illustrator 21.1.0, SVG Export Plug-In . SVG Version: 6.00 Build 0)  -->
<svg version="1.1" id="Layer_1" xmlns="http://www.w3.org/2000/svg" xmlns:xlink="http://www.w3.org/1999/xlink" x="0px" y="0px"
	 viewBox="0 0 512 512" style="enable-background:new 0 0 512 512;" xml:space="preserve">
<g>
	<path d="M292.5,73.6l-12.8-7.8c1.1-1.8,26.9-43.6,78.4-45.3c55.1-1.8,77.6,28.1,78.5,29.4l-12.1,8.9c-0.7-1-19.2-24.8-65.9-23.2
		C315.4,36.9,292.7,73.2,292.5,73.6z"/>
	<path d="M390.5,192.2c-0.1-0.5-6.5-50.2-49.7-67.7c-34.1-13.9-51.9-0.4-52.6,0.2l-9.5-11.6c1-0.8,24.9-19.9,67.7-2.5
		c51.5,20.9,58.6,77.5,58.9,79.8L390.5,192.2z"/>
	<path d="M430.4,160.4c-0.3-1.4-8.4-35.2-50.2-57.3c-39-20.7-81.3-7.6-81.7-7.5l-4.6-14.3c2-0.6,48.6-15.2,93.3,8.5
		c48.3,25.6,57.5,65.7,57.9,67.4L430.4,160.4z"/>
	<path d="M212.6,79.1c-0.1-0.4-10.9-42-52.1-56.7C115.4,6.3,90,24,89.8,24.2L81,12c1.3-0.9,32.1-22.4,84.5-3.8
		c49.1,17.5,61.2,65.2,61.7,67.2L212.6,79.1z"/>
	<path d="M57.7,119.9l-13-7.5c0.9-1.5,22-36.9,76.3-46.4c50.3-8.8,90.7,19.4,92.4,20.6l-8.7,12.2c-0.4-0.3-37.2-25.7-81.2-18.1
		C76.1,89.1,57.9,119.6,57.7,119.9z"/>
	<path d="M108.7,169.4l-13.4-6.6c1-2.1,25.4-50.3,80.5-57.7c24.3-3.2,43.7,5.5,44.6,5.9l-6.2,13.6l3.1-6.8l-3.1,6.8
		c-0.2-0.1-16.6-7.3-36.4-4.7C130.7,126.2,108.9,168.9,108.7,169.4z"/>
	<path d="M395.7,70.1c0,3.6-4.6,3.8-8.2,3.8S381,71,381,67.5s3.8-7.4,7.3-7.4S395.7,66.6,395.7,70.1z"/>
	<path d="M380.6,135.1c-3.5,1.8-6-2.6-7.8-6c-1.8-3.5-0.5-7.7,3-9.5s7.7-0.5,9.5,3C387.1,126,384,133.3,380.6,135.1z"/>
	<path d="M438.3,80.2c-4-2.2-1.4-7.6,0.8-11.7c2.2-4,7.3-5.5,11.4-3.3c4,2.2,5.5,7.3,3.3,11.4C451.6,80.6,442.4,82.4,438.3,80.2z"/>
	<path d="M449.6,119.1c-3.5,1.8-6-2.6-7.8-6c-1.8-3.5-0.5-7.7,3-9.5s11.1,0.2,12.9,3.6C459.4,110.7,453.1,117.3,449.6,119.1z"/>
	<path d="M448.5,182.2c-3.5,1.8-6-2.6-7.8-6c-1.8-3.5,1.4-6.4,4.9-8.2s9.1-1.2,10.9,2.3S451.9,180.3,448.5,182.2z"/>
	<path d="M496.7,158.1c-2.9,1.5-5-2.1-6.5-5s1.2-5.3,4.1-6.8s7.6-1,9.1,1.9C504.8,151.1,499.5,156.6,496.7,158.1z"/>
	<path d="M449.6,119.1c-3.5,1.8-6-2.6-7.8-6c-1.8-3.5-0.5-7.7,3-9.5s11.1,0.2,12.9,3.6C459.4,110.7,453.1,117.3,449.6,119.1z"/>
	<path d="M219.5,127.8c-3.5,1.8-6-2.6-7.8-6c-1.8-3.5-0.5-7.7,3-9.5s11.1,0.2,12.9,3.6S222.9,126,219.5,127.8z"/>
	<path d="M220.5,20c-3.5,1.8-6-2.6-7.8-6c-1.8-3.5-0.5-7.7,3-9.5s11.1,0.2,12.9,3.6S223.9,18.2,220.5,20z"/>
	<path d="M280.2,99.4c0,4.7-6.1,5-10.8,5c-4.7,0-8.5-3.8-8.5-8.5s4.9-9.7,9.6-9.7S280.2,94.7,280.2,99.4z"/>
	<path d="M323.6,33c-2.9,1.5-5-2.1-6.5-5s1.2-5.3,4.1-6.8s7.6-1,9.1,1.9S326.4,31.5,323.6,33z"/>
	<path d="M73.6,56.4c0,4.7-6.1,5-10.8,5s-8.5-3.8-8.5-8.5s4.9-9.7,9.6-9.7S73.6,51.7,73.6,56.4z"/>
	<path d="M40,149.5c-3.5,1.8-6-2.6-7.8-6s-0.5-7.7,3-9.5s7.7-0.5,9.5,3C46.5,140.3,43.5,147.6,40,149.5z"/>
	<path d="M111.6,63.2c-4-2.2-1.4-7.6,0.8-11.7c2.2-4,7.3-5.5,11.4-3.3c4,2.2,5.5,7.3,3.3,11.4C124.9,63.7,115.7,65.5,111.6,63.2z"/>
	<path d="M122.9,102.2c-3.5,1.8-6-2.6-7.8-6c-1.8-3.5-0.5-7.7,3-9.5s11.1,0.2,12.9,3.6S126.4,100.4,122.9,102.2z"/>
	<path d="M71.8,205.2c-3.5,1.8-6-2.6-7.8-6c-1.8-3.5,1.4-6.4,4.9-8.2s9.1-1.2,10.9,2.3S75.2,203.4,71.8,205.2z"/>
	<path d="M170,141.1c-2.9,1.5-5-2.1-6.5-5s1.2-5.3,4.1-6.8c2.9-1.5,7.6-1,9.1,1.9S172.8,139.6,170,141.1z"/>
	<path d="M122.9,102.2c-3.5,1.8-6-2.6-7.8-6c-1.8-3.5-0.5-7.7,3-9.5s11.1,0.2,12.9,3.6S126.4,100.4,122.9,102.2z"/>
	<path d="M11.8,18.2c-2.9,1.5-5-2.1-6.5-5s1.2-5.3,4.1-6.8s7.6-1,9.1,1.9C19.9,11.2,14.6,16.7,11.8,18.2z"/>
	<ellipse cx="250.4" cy="168" rx="56.5" ry="9"/>
	<path d="M510.3,451.5c-9-13.8-20.8-28.4-35.1-38.5c-34.3-24.2-43.3-51.2-56.3-73.1c-25.5-43-91-172.1-91-172.1l0,0
		c-2-11.1-35.9-20-77.4-20c-41.1,0-74.8,8.7-77.3,19.7l0,0c0,0-33.4,77.5-46.4,100.5c-19.6,34.6-66.6,98.9-99.7,157.4
		c-16.4,29-23.6,54.5-26.8,70.2C-1.4,504.1,6,512,15.7,512l38-0.1c18.4,0,35.1-9.5,42.9-24.4l50-95.5c1.8-3.5,7.7-1.7,6.7,2.1
		c-3.2,12.6-6.3,26-7,34.4c-1.2,14.9,0.6,26.9,3.4,36.2c3.8,12.4,21.8,15.7,30.6,5.6c7.9-9.1,16.5-21,21.5-34.7
		c3.4-9.3,13.8-39.5,13.8-39.5c3.3-4.8,11.4-3.6,12.8,1.9l15.8,62.3c4,15.8,25.9,51.2,44,51.2l0,0c9.2-14.6,26-22.4,42.9-22.4
		c11.9,0,23.9,3.8,33.5,11.8c9.4,4.9,21.1-1.3,20.8-11l-1.4-51.1c-0.2-7.4,10.3-10.7,15.3-4.9l56.8,64.9
		c6.8,7.8,17.3,12.4,28.4,12.3l-23.8-57.5c-1.9-4.6,4.8-8.2,8.4-4.5l23.3,16.1C503,472.2,516.8,461.5,510.3,451.5z M250.4,154.7
		c35.3,0,63.9,6.3,63.9,14c0,7.8-28.6,14-63.9,14s-63.8-6.3-63.8-14C186.6,161,215.2,154.7,250.4,154.7z M320,205
		c-3.5,0-10,4-20.5,7c-5.9,1.7-18.9,13-28.2,22.5C259,246.9,251.8,248,245.5,248h-0.1c-7,0-13.7-2.8-22.2-14
		c-6.9-9.1-16.4-21.6-22-21.6l0,0C193,209,181,206,181,206l9-2.5l11.2-0.1h0.1c10,0,19.8,12.8,29.2,25.2c4.6,6,12.2,10,15,10.4
		c3.1-0.3,12.9-4.3,19.4-10.9c12.7-12.9,24.8-23.3,34.6-25.1c10.5-2,24.5-3,24.5-3L320,205z"/>
</g>
</svg>
