<?xml version="1.0" encoding="utf-8"?>
<!-- Generator: Adobe Illustrator 21.1.0, SVG Export Plug-In . SVG Version: 6.00 Build 0)  -->
<svg version="1.1" id="Layer_1" xmlns="http://www.w3.org/2000/svg" xmlns:xlink="http://www.w3.org/1999/xlink" x="0px" y="0px"
	 viewBox="0 0 512 512" style="enable-background:new 0 0 512 512;" xml:space="preserve">
<path d="M252.7,368.7c-3,28.3-9.3,55.8-18.8,82.5c-23.4-4.3-46-10.9-67.7-19.6c-21.5-8.7-41.9-19.3-61.2-31.9
	c-39.4-25.3-72.9-57.4-100.4-96.3V303l-0.4-0.4c-3.8-20.7-5.1-41.5-3.7-62.5c1.4-21.2,5.3-42.1,11.8-62.5
	c11.9,23.1,26.1,44.7,42.4,64.5c16.6,20.4,35.1,38.8,55.5,55.1c20.4,16.6,42.5,30.9,66.1,42.9C200.9,352.4,226.3,361.9,252.7,368.7z
	 M228.2,465.9c-5.7,14.2-12.5,28-20.4,41.7c-22.3-4.4-43.6-11.4-64.1-21.3c-19.9-9.8-38.2-22-55.1-36.7
	c-16.9-14.4-31.6-30.8-44.1-49s-22.4-37.8-29.8-58.8c27.5,32.1,59.4,58.8,95.9,80C147.2,443,186.4,457.7,228.2,465.9z M254.4,352.8
	c-26.4-7.1-51.6-16.9-75.5-29.4c-23.4-12.3-45.2-27-65.3-44.1c-19.9-16.6-37.7-35.2-53.5-55.9c-15.8-20.4-29.3-42.3-40.4-65.7
	c8.2-19.9,18.6-38.2,31.4-55.1c22.9,37.3,51.1,69.6,84.9,96.8c33.7,27.2,71.3,48.1,112.7,62.5C254.4,291.9,256.3,322.3,254.4,352.8z
	 M61.7,89.4c12.8-14.7,26.9-27.9,42.5-39.6c15.8-11.4,32.6-21.1,50.6-29s36.7-13.5,56.3-16.7c20.1-3.5,40.4-4.7,60.8-3.7
	c10.3,0.8,20.8,2.2,31.4,4.1c-41.4,7.6-80.3,21.6-116.7,42c-37.5,21.2-70.6,48.2-99.2,80.9C78.5,115.7,69.9,103,61.7,89.4z
	 M97.7,139.6c15.8-18.2,33.2-34.8,52.2-49.8c18.8-14.4,38.8-27,60-37.6c20.7-10.3,42.2-18.6,64.5-24.9s45-10.4,68.1-12.3
	c19.9,7.1,38.6,16.6,56.3,28.6c17.4,11.7,33.1,25.3,46.9,40.8C437,84.1,429.1,84,422,84c-25,0.3-49.5,3-73.5,8.2
	c-24,4.9-47.2,12.1-69.8,21.6c-45.4,19.4-85.7,46.8-120.8,82.5C135.5,179.8,115.3,160.9,97.7,139.6z M422.1,100
	c12.3-0.3,24.7,0.1,37.5,1.2c13.1,16.9,23.7,35.1,31.8,54.7c-43,1.1-84.5,9.1-124.5,24.1c-41.4,15.5-79.1,37.9-113.1,67
	c-29.4-10.4-57-24.1-82.8-41.3c16.9-16.9,35-31.9,54.3-44.9c19.3-12.8,39.6-23.7,60.8-32.7C329.5,110,374.8,100.6,422.1,100z
	 M240.1,511.6c-4.6-0.3-9.8-0.8-15.5-1.6c20.7-37.6,34.4-77.4,41.2-119.6c7.1-43.8,6.5-87.5-1.6-131.1c23.4-20.1,48.8-37,76.3-50.6
	c6,22.9,9.8,46,11.4,69.4c1.9,23.1,1.4,46.3-1.6,69.4c-5.7,46.5-20.3,90.6-43.6,132.3c-5.7,10.4-12,20.4-18.8,30.2
	C271.8,511.9,255.8,512.5,240.1,511.6z M435.6,177.2c7.9,23.1,13.5,46.7,16.7,70.6c3.3,23.4,4.1,47,2.4,70.7
	c-1.4,23.1-4.9,46-10.6,68.6c-5.7,22.3-13.6,44-23.7,64.9c-16.1,13.3-33.3,24.6-51.8,33.9c-19,9.3-38.9,16.1-59.6,20.4
	c4.3-6.8,8.2-13.1,11.4-18.8c12.3-21.8,22.2-44.5,29.8-68.2c7.6-23.1,12.9-46.8,15.9-71c6-49.3,2.2-98-11.4-146.2
	C380.6,190.7,407.5,182.4,435.6,177.2z M497.6,171.5c11.4,32.4,16,65.9,13.9,100.5c-1.9,28.9-8.3,56.3-19.2,82.5
	c-10.6,25.6-25,48.7-43.3,69.4c14.1-39.5,21.5-80.2,22-122.1c0.8-43.3-5.9-85.6-20-127C466.3,172.8,481.8,171.7,497.6,171.5z"/>
</svg>
