<?xml version="1.0" encoding="utf-8"?>
<!-- Generator: Adobe Illustrator 21.1.0, SVG Export Plug-In . SVG Version: 6.00 Build 0)  -->
<svg version="1.1" id="Layer_3" xmlns="http://www.w3.org/2000/svg" xmlns:xlink="http://www.w3.org/1999/xlink" x="0px" y="0px"
	 viewBox="0 0 425.1 512" style="enable-background:new 0 0 425.1 512;" xml:space="preserve">
<path d="M285,511.5L120.9,349c0,0-108.5,1.5-112.9,1.5s-8-3.6-8-8s0-100.1,0-172c0-4.7,3.4-8,8-8l112.9-0.5L285,0.5V511.5z
	 M425.1,256c0,36.1-22.2,71.1-56.7,84.3c-1.3,0.7-14.5,6.2-25.6-4.7c-10.9-10.7-6.5-24.1-2.5-29.1c7.2-11.7,37.5-13.5,38.2-50.5
	c0-35.6-27.8-37.2-38.2-50.5c-4-5-8.3-18.4,2.5-29.1c11.1-10.9,24.3-5.5,25.6-4.7C402.9,184.9,425.1,219.9,425.1,256z"/>
</svg>
