<?xml version="1.0" encoding="utf-8"?>
<!-- Generator: Adobe Illustrator 21.1.0, SVG Export Plug-In . SVG Version: 6.00 Build 0)  -->
<svg version="1.1" id="Layer_1" xmlns="http://www.w3.org/2000/svg" xmlns:xlink="http://www.w3.org/1999/xlink" x="0px" y="0px"
	 viewBox="0 0 512 512" style="enable-background:new 0 0 512 512;" xml:space="preserve">
<style type="text/css">
	.st0{fill-rule:evenodd;clip-rule:evenodd;}
</style>
<g>
	<path d="M349.3,365.6L349.3,365.6c-15.9,6-33.5-2.3-39-18.4c-7-20.5-15.5-44.6-18-47.8c-6.6-8.3-24.9-18.3-38.6-21.8
		c0.2,2,0.4,4.3,0.6,6.4c1.9,20.9,3.2,37.3,1.5,43.4c-1.5,5.2-16.8,48.8-26.4,75.9c-4.5,12.8-16.8,21.1-30.4,20.4h0
		c-20-1-33.7-20.5-27.8-39.6c7.1-22.9,15-50.7,17.4-66.5c3.4-22.2-2.4-45-2.4-45.2c-1.4-5.1-2.5-8.8-3.4-11.7
		c-2.6-8.3-3.8-12.1-4.4-29.4c-0.9-22.5,0.9-48.7,1.9-62.1c-10.5,4.7-11.4,9.9-11.4,16.9l-0.3,33.6c-0.1,14.3-11.7,25.8-26,25.8h0
		c-14.4,0-26.1-11.7-26-26.2l0.4-55.7c0-12.8,10.8-20,22.2-27.7c1.5-1,49-28.5,54.6-32c27.1-16.6,50.9-14.7,70.8,5.8l0,0
		c0.2,0.2,34.5,38.6,37.9,42c1.7,0.6,15.5-1,28.8-2.8c14-1.8,26.9,8.1,28.7,22.1v0c1.8,14.2-8.4,27.1-22.6,28.7
		c-17.6,1.9-38.9,4.1-45.9,4.2c-9.1,0.2-16.9-8.7-22.7-15.6c-0.5,5.3-0.2,31.6-0.2,31.6s35.5,16.1,50.8,23.5
		c15.5,7.5,20.3,10.6,28.3,30.4c0.4,1,10.9,30.4,19.1,53.6C372.4,342.9,364.6,359.8,349.3,365.6z"/>
	<path class="st0" d="M250.8,0.3c27.6,0,49.9,21.8,49.9,48.7s-22.3,48.7-49.9,48.7S200.9,75.9,200.9,49S223.2,0.3,250.8,0.3z"/>
	<path d="M393.6,401c-73.5-1.3-175.7,53-254,50.6c-88.5-2.6-139-47.2-139-47.2s50.5,107.9,126,107.9c170.1,0,169.4-48.6,292.6-50.6
		c71.1,0,92.8,41.9,93.9,43.8C512.3,502.7,482.6,402.6,393.6,401z"/>
</g>
</svg>
