<?xml version="1.0" encoding="utf-8"?>
<!-- Generator: Adobe Illustrator 21.1.0, SVG Export Plug-In . SVG Version: 6.00 Build 0)  -->
<svg version="1.1" id="Layer_2" xmlns="http://www.w3.org/2000/svg" xmlns:xlink="http://www.w3.org/1999/xlink" x="0px" y="0px"
	 viewBox="0 0 358.8 512" style="enable-background:new 0 0 358.8 512;" xml:space="preserve">
<g>
	<path d="M218.9,169.7c-18.5-16.2-28.1-6-40.1-0.7l-12.3-7.2c3.3-2,5.7-4.3,10.7-3.5l4.6-12.3c-8.8-2.7-19.9-0.7-26.6,9.4L151,153
		l-3.6,6.3l4.2,2.4c-3.6,7.2-4.9,13.5-3.4,19.1c3.1,12.8,15.7,15.9,20.6,15.5c7.2-0.5,10.6-3.2,20.4-12.8l15.1,8.7
		c-4.2,2.8-6.9,3.1-13.1,0.9l-8,18.4c21.2,7.7,32.4-11.9,32.6-12.6l8.1,4.6l3.6-6.3l-8.1-4.6C221.4,189,226.3,176.2,218.9,169.7z
		 M162.6,168l11,6.4C166.4,182.8,157,176,162.6,168z M208.3,186.1l-13.7-7.9C199.8,171.9,212.5,175.3,208.3,186.1z"/>
	<path id="fill" d="M324.5,298.3v-84c0-10.7-6.5-19.9-15.7-24.1c1.9-3.1,3.7-6.2,5.5-9.2c16.5-28.5,25.9-61.9,29.5-76.7
		c1.1-4.6-0.9-9.4-5.1-11.8L181,1.4c-5.8-3.3-13.1-0.6-15.5,5.7c-4.4,12.5-12.9,33.4-26.4,56.6c-23,39.9-92,98.1-116.8,140.9
		c-10.9,19-15.6,34.5-17.2,46.1H0V512h324.5v-80.5c20.8-14.9,34.4-39.1,34.4-66.6C358.8,337.4,345.3,313.2,324.5,298.3z M67.8,231.3
		c24.9-43.1,94.1-101.7,117.3-141.8c3.8-6.7,7.3-13,10.3-19.2l89.4,51.7c-4,10.1-9.2,21.1-15.7,32.3c-19.5,33.9-46.7,70.7-66.7,96.4
		H58.2C60.6,244.7,63.8,238.3,67.8,231.3z M271.9,245.1v5.6h-4.1C269.2,248.9,270.5,247,271.9,245.1z M278.1,427.7h-16.7
		c-11.1,0-19.7,0-19.7,0h-36.9c-34.4,0-62.2-27.8-62.2-62.2s27.8-62.2,62.2-62.2h36.9c0,0,1.3,0,19.7,0h16.7
		c34.4,0,62.2,27.8,62.2,62.2C340.2,399.8,312.4,427.7,278.1,427.7z M278.1,329.7h-36.4v-0.1h-36.9c-19.9,0-36,16.1-36,35.9
		c0,19.8,16.1,35.9,36,35.9h56.6v0.1h16.7c19.9,0,36-16.1,36-35.9C314.1,345.7,297.9,329.7,278.1,329.7z M203.8,380.1
		c-8.1,0-14.7-6.6-14.7-14.7s6.6-14.7,14.7-14.7s14.7,6.6,14.7,14.7S211.9,380.1,203.8,380.1z"/>
</g>
</svg>
