<?xml version="1.0" encoding="utf-8"?>
<!-- Generator: Adobe Illustrator 21.1.0, SVG Export Plug-In . SVG Version: 6.00 Build 0)  -->
<svg version="1.1" id="Layer_1" xmlns="http://www.w3.org/2000/svg" xmlns:xlink="http://www.w3.org/1999/xlink" x="0px" y="0px"
	 viewBox="0 0 535 512" style="enable-background:new 0 0 535 512;" xml:space="preserve">
<path d="M510,221.2l-123-19.2l2.3-148l24.7-15L534.2,53L510,70.1V221.2z M380.6,201.5l-122.4-18.2l-9,5.3l62.7,10.6v133.7l-120-20.5
	v-130l27.5-18.8L259,167l1.1-126.3l33.5-14.2L404.4,39L383,53.5L380.6,201.5z M183.8,311.6L74,291l-1.8-129.1l41.2,5l28.6-13.7
	l72.4,8.6L186,180.5L183.8,311.6z M116,156.3l-0.9-123.2L137,18.5l-1.1,130.1L116,156.3z M111,159.9L1.6,144.3
	C0.9,71.4,0.5,28.9,0.5,16.7c0-0.9,9.2-4.5,27.4-16.7l110.1,11.2L111,28.7L111,159.9L111,159.9z M115.3,436.2L7,413.9L6.2,287.3
	L115,306.7L115.3,436.2z M240,331.2l-0.5,130.6L123,437.2l0.2-128.7L240,331.2z M364,484.4l-118-21.5L245.3,332L364,352.6V484.4z
	 M318,199.4l122,21.1v135l-122-22.1V199.4z M444,357.5V219.6l66,9.7l-0.2,139.1L444,357.5z M510.2,511.8L371,485.8V353.4l139,23.9
	L510.2,511.8z M532.7,207.7L513,219.1V74l22-15.7L532.7,207.7z M533.9,349.1L513,366.3V226.8l20-10.9L533.9,349.1z M534.4,486.2
	L514,511.3V375.6l20-16.5L534.4,486.2z"/>
</svg>
