<?xml version="1.0" encoding="utf-8"?>
<!-- Generator: Adobe Illustrator 21.1.0, SVG Export Plug-In . SVG Version: 6.00 Build 0)  -->
<svg version="1.1" id="Layer_4" xmlns="http://www.w3.org/2000/svg" xmlns:xlink="http://www.w3.org/1999/xlink" x="0px" y="0px"
	 viewBox="0 0 578.1 512" style="enable-background:new 0 0 578.1 512;" xml:space="preserve">
<g>
	<path d="M321.1,282.2h-21.2l3.7,21.9h33.9L321.1,282.2z M294.2,282.4h-10.4l-3.2,23.8v11.7h16.7v-11.3L294.2,282.4z M256.8,282.2
		l-16.3,21.9h33.9l3.7-21.9H256.8z M303.6,307.7v13.4h-29.4v-13.4H239v78.2h100v-78.2H303.6z"/>
	<path d="M382.3,409H361l3.7,21.9h33.9L382.3,409z M355.3,409.2h-10.4l-3.2,23.8v11.7h16.7v-11.3L355.3,409.2z M318,409l-16.3,21.9
		h33.9l3.7-21.9H318z M364.8,434.5v13.4h-29.4v-13.4h-35.2v78.2h100v-78.2H364.8z"/>
	<path d="M259.5,409h-21.2l3.7,21.9h33.9L259.5,409z M232.6,409.2h-10.4L219,433v11.7h16.7v-11.3L232.6,409.2z M195.2,409L179,430.9
		h33.9l3.7-21.9H195.2z M242.1,434.5v13.4h-29.4v-13.4h-35.2v78.2h100v-78.2H242.1z"/>
	<polygon points="289.1,0 0,157.7 0,512.2 133.9,512.2 133.9,241 441.2,241 441.2,512.2 578.1,512.2 578.1,157.7 	"/>
</g>
</svg>
