<?xml version="1.0" encoding="utf-8"?>
<!-- Generator: Adobe Illustrator 21.1.0, SVG Export Plug-In . SVG Version: 6.00 Build 0)  -->
<svg version="1.1" id="Layer_2" xmlns="http://www.w3.org/2000/svg" xmlns:xlink="http://www.w3.org/1999/xlink" x="0px" y="0px"
	 viewBox="0 0 354.6 512" style="enable-background:new 0 0 354.6 512;" xml:space="preserve">
<g>
	<path d="M308.6,294.4v-76h23.9c-10.9-46.4-41.2-85.5-81.9-108.3V0h-165v109.8c-51.3,28.8-86,83.7-86,146.7
		c0,63,34.7,117.8,86,146.7V512h165V402.9c40.8-22.8,71.2-61.9,82-108.5H308.6z M169.2,394.7c-76.2,0-138-61.8-138-138
		c0-76.2,61.8-138,138-138c76.2,0,138,61.8,138,138C307.2,333,245.4,394.7,169.2,394.7z"/>
	<path d="M309.6,283.4h32v-5h-24v-3h24v-7h-24v-3h24v-7h-24v-3h24v-7h-24v-3h24v-7h-24v-3h24v-6h-32V283.4z"/>
	<path d="M338.6,229.4L338.6,229.4v54h0c8.8,0,16-7.1,16-16v-22.1c0-8.8-7.1-15.9-15.8-15.9"/>
	<path d="M178.4,264c-1.6,6-7.6,9.8-13.6,8.8c-0.4-0.1-0.9-0.2-1.3-0.3c-0.4-0.1-0.8-0.3-1.2-0.4c-5.7-2.2-8.9-8.5-7.3-14.5
		c1.6-6,7.6-9.8,13.6-8.8c0.4,0.1,0.9,0.2,1.3,0.3c0.4,0.1,0.8,0.3,1.3,0.4C176.9,251.7,180.1,257.9,178.4,264z"/>
	<path d="M169.2,128c-71.1,0-128.7,57.7-128.7,128.8c0,71.1,57.6,128.7,128.7,128.7s128.8-57.6,128.8-128.7
		C297.9,185.6,240.3,128,169.2,128z M254.6,284.1l-69.9-14.9c-3.8,8.2-12.9,12.9-22,11.1l-2.5-0.7c-1.1-0.4-2.2-0.9-3.2-1.4
		l-23,33.6c4.2,3.6,5,9.8,1.9,14.5c-3.2,4.7-9.3,6.1-14.2,3.6l-5.6,8.2l-2.2-1.5l5.6-8.2c-4.2-3.6-5-9.8-1.9-14.5
		c3.2-4.6,9.3-6.1,14.2-3.6l22.9-33.5c-6.4-4.7-9.6-13.1-7.4-21.2c0.9-3.4,2.7-6.4,5-8.7l-17.9-34c-3.1-5.9-3.8-12.8-1.8-19.2
		l4.3-14.2l13.7,8.8c4.8,3.1,8.2,8,9.5,13.6L169,241c0.6,0.1,1.1,0.2,1.7,0.3l2.5,0.7c1.5,0.5,2.8,1.2,4.1,2l4.3-6.4l2.2,1.5
		l-4.4,6.4c3.6,3,6.1,7.2,6.9,11.8l71.4,7.3c2.8,0.3,5.5,1.4,7.7,3.1l13.1,10.2l-15.6,5.7C260.3,284.5,257.4,284.7,254.6,284.1z"/>
</g>
</svg>
