<?xml version="1.0" encoding="utf-8"?>
<!-- Generator: Adobe Illustrator 21.1.0, SVG Export Plug-In . SVG Version: 6.00 Build 0)  -->
<svg version="1.1" id="Layer_1" focusable="false" xmlns="http://www.w3.org/2000/svg" xmlns:xlink="http://www.w3.org/1999/xlink"
	 x="0px" y="0px" viewBox="0 0 576 512" style="enable-background:new 0 0 576 512;" xml:space="preserve">
<g>
	<path d="M477.4,346.7c-19.7,0-21.7,19.8-44.9,19.8c-22.2,0-45.6-19.8-69.5-19.8c-22,0-44.5,19.8-67,19.8c-21.3,0-46.2-19.8-67-19.8
		c-24,0-43.6,19.8-65.8,19.8c-24.9,0-48.1-19.8-68.8-19.8c-22.9,0-39.1,19.8-54.6,19.8c-22.6,0-39.7-9.9-39.7-9.9v81.5
		c0,0,15.3,9.9,35.3,9.9c16.3,0,34.5-19.8,60.2-19.8c20.5,0,43.3,19.8,67.6,19.8c21.4,0,43.9-19.8,67-19.8
		c21.1,0,42.9,19.8,64.6,19.8c22.5,0,45-19.8,67-19.8c23.7,0,46.9,19.8,68.8,19.8c21.6,0,22.5-19.8,41.2-19.8
		c29.5,0,54.4,19.8,72.5,19.8c20,0,31.6-9.9,31.6-9.9v-81.5c0,0-12.1,9.9-32.8,9.9C526.3,366.5,503.8,346.7,477.4,346.7z"/>
	<path d="M477.4,64c-19.7,0-21.7,19.8-44.9,19.8C410.3,83.8,386.9,64,363,64c-22,0-44.5,19.8-67,19.8c-21.3,0-46.2-19.8-67-19.8
		c-24,0-43.6,19.8-65.8,19.8C138.2,83.8,115,64,94.3,64c-22.9,0-39.1,19.8-54.6,19.8C17.1,83.8,0,73.9,0,73.9v81.5
		c0,0,15.3,9.9,35.3,9.9c16.3,0,34.5-19.8,60.2-19.8c20.5,0,43.3,19.8,67.6,19.8c21.4,0,43.9-19.8,67-19.8
		c21.1,0,42.9,19.8,64.6,19.8c22.5,0,45-19.8,67-19.8c23.7,0,46.9,19.8,68.8,19.8c21.6,0,22.5-19.8,41.2-19.8
		c29.5,0,54.4,19.8,72.5,19.8c20,0,31.6-9.9,31.6-9.9V73.9c0,0-12.1,9.9-32.8,9.9C526.3,83.8,503.8,64,477.4,64z"/>
	<path d="M477.4,205.4c-19.7,0-21.7,19.8-44.9,19.8c-22.2,0-45.6-19.8-69.5-19.8c-22,0-44.5,19.8-67,19.8c-21.3,0-46.2-19.8-67-19.8
		c-24,0-43.6,19.8-65.8,19.8c-24.9,0-48.1-19.8-68.8-19.8c-22.9,0-39.1,19.8-54.6,19.8c-22.6,0-39.7-9.9-39.7-9.9v81.5
		c0,0,15.3,9.9,35.3,9.9c16.3,0,34.5-19.8,60.2-19.8c20.5,0,43.3,19.8,67.6,19.8c21.4,0,43.9-19.8,67-19.8
		c21.1,0,42.9,19.8,64.6,19.8c22.5,0,45-19.8,67-19.8c23.7,0,46.9,19.8,68.8,19.8c21.6,0,22.5-19.8,41.2-19.8
		c29.5,0,54.4,19.8,72.5,19.8c20,0,31.6-9.9,31.6-9.9v-81.5c0,0-12.1,9.9-32.8,9.9C526.3,225.2,503.8,205.4,477.4,205.4z"/>
</g>
</svg>
