<?xml version="1.0" encoding="utf-8"?>
<!-- Generator: Adobe Illustrator 22.0.1, SVG Export Plug-In . SVG Version: 6.00 Build 0)  -->
<svg version="1.1" id="Layer_2" xmlns="http://www.w3.org/2000/svg" xmlns:xlink="http://www.w3.org/1999/xlink" x="0px" y="0px"
	 viewBox="0 0 512 512" style="enable-background:new 0 0 512 512;" xml:space="preserve">
<style type="text/css">
	.st0{fill:#070707;}
</style>
<path class="st0" d="M153.3,0H277c13.2,0,21.5,14.1,15.1,25.7l-31.8,38.8h-17.5v46.1h-55.3V64.5H170l-31.8-38.8
	C131.8,14.2,140.1,0,153.3,0z M78.4,512c-27.9,0-50.7-22.7-50.7-50.7c0-24.6,34.4-64.1,41.2-71.8l9.4-10.5l9.4,10.5
	c6.9,7.7,41.2,47.2,41.2,71.8C129,489.3,106.3,512,78.4,512z M151.9,339.6c-2.8,2.8-6.7,4.6-11,4.6H15.9c-8.6,0-15.6-7-15.6-15.6
	c0-4.3,1.7-8.2,4.6-11c2.8-2.8,6.7-4.6,11-4.6h124.9c8.6,0,15.6,7,15.6,15.6C156.4,332.9,154.7,336.8,151.9,339.6z M274.6,235.9
	H161.4c-13.7,0-26.2,10-27.5,25v31.2H24.1v-31.2c1.2-74.9,62.4-134.9,137.4-134.9h113.2V235.9z M373.2,269.3
	c0,5.8-4.7,10.6-10.6,10.6h-63.3c-5.8,0-10.6-4.7-10.6-10.6V100.4c0-5.8,4.7-10.6,10.6-10.6h63.3c5.8,0,10.6,4.7,10.6,10.6V269.3z
	 M511.7,235.9H386.3V126.1h125.4V235.9z"/>
</svg>
