<?xml version="1.0" encoding="utf-8"?>
<!-- Generator: Adobe Illustrator 21.1.0, SVG Export Plug-In . SVG Version: 6.00 Build 0)  -->
<svg version="1.1" id="Layer_1" xmlns="http://www.w3.org/2000/svg" xmlns:xlink="http://www.w3.org/1999/xlink" x="0px" y="0px"
	 viewBox="0 0 512 512" style="enable-background:new 0 0 512 512;" xml:space="preserve">
<g>
	<path d="M162.2,216.4c17.4-80.9-50.4-145.8-80.3-215.3C58.4,68.8-4.3,126.6,0.2,201.3C11.4,282.8,135.9,293.8,162.2,216.4z
		 M55.9,249.5C20.5,237.6,14.1,195.8,7,164c36.1,42.6,81.7,83.8,143.6,63.5C121.5,240.8,89.1,267.4,55.9,249.5z"/>
	<path d="M425,1.2c-24.8,71.2-90.8,132.2-86,210.8c11.8,85.9,143,97.5,170.7,15.9C527.9,142.7,456.5,74.3,425,1.2z M397.7,262.9
		c-37.4-12.6-44.1-56.6-51.5-90.1c38,44.9,86.1,88.3,151.3,66.9C466.7,253.7,432.7,281.7,397.7,262.9z"/>
	<path d="M252.6,132.3c-31.1,78.3-82.4,146.6-112,225.3c-26.4,69.8,30.6,154,104.8,153.7c72.9,8.5,139.9-68.4,121.1-140.8
		C343.2,284.6,283.6,215.2,252.6,132.3z M220.3,486.9c-55.2-18.2-73.8-81.4-65.4-134.3c20.5,33.6,36.1,75.6,75.3,91.1
		c34.4,17,72.9,6.9,109.3,6.6C306.2,476.1,264.3,507.4,220.3,486.9z"/>
</g>
</svg>
