<?xml version="1.0" encoding="utf-8"?>
<!-- Generator: Adobe Illustrator 21.1.0, SVG Export Plug-In . SVG Version: 6.00 Build 0)  -->
<svg version="1.1" id="Layer_1" focusable="false" xmlns="http://www.w3.org/2000/svg" xmlns:xlink="http://www.w3.org/1999/xlink"
	 x="0px" y="0px" viewBox="0 0 576 512" style="enable-background:new 0 0 576 512;" xml:space="preserve">
<g>
	<path d="M477.4,410.1c-19.7,0-21.7,19.8-44.9,19.8c-22.2,0-45.6-19.8-69.5-19.8c-22,0-44.5,19.8-67,19.8c-21.3,0-46.2-19.8-67-19.8
		c-24,0-43.6,19.8-65.8,19.8c-24.9,0-48.1-19.8-68.8-19.8c-22.9,0-39.1,19.8-54.6,19.8c-22.6,0-39.7-9.9-39.7-9.9v81.5
		c0,0,15.3,9.9,35.3,9.9c16.3,0,34.5-19.8,60.2-19.8c20.5,0,43.3,19.8,67.6,19.8c21.4,0,43.9-19.8,67-19.8
		c21.1,0,42.9,19.8,64.6,19.8c22.5,0,45-19.8,67-19.8c23.7,0,46.9,19.8,68.8,19.8c21.6,0,22.5-19.8,41.2-19.8
		c29.5,0,54.4,19.8,72.5,19.8c20,0,31.6-9.9,31.6-9.9v-81.5c0,0-12.1,9.9-32.8,9.9C526.3,429.8,503.8,410.1,477.4,410.1z"/>
	<path d="M477.4,283.7c-19.7,0-21.7,19.8-44.9,19.8c-22.2,0-45.6-19.8-69.5-19.8c-22,0-44.5,19.8-67,19.8c-21.3,0-46.2-19.8-67-19.8
		c-24,0-43.6,19.8-65.8,19.8c-24.9,0-48.1-19.8-68.8-19.8c-22.9,0-39.1,19.8-54.6,19.8c-22.6,0-39.7-9.9-39.7-9.9v81.5
		c0,0,15.3,9.9,35.3,9.9c16.3,0,34.5-19.8,60.2-19.8c20.5,0,43.3,19.8,67.6,19.8c21.4,0,43.9-19.8,67-19.8
		c21.1,0,42.9,19.8,64.6,19.8c22.5,0,45-19.8,67-19.8c23.7,0,46.9,19.8,68.8,19.8c21.6,0,22.5-19.8,41.2-19.8
		c29.5,0,54.4,19.8,72.5,19.8c20,0,31.6-9.9,31.6-9.9v-81.5c0,0-12.1,9.9-32.8,9.9C526.3,303.5,503.8,283.7,477.4,283.7z"/>
	<path d="M297.6,268.7L184.4,167.3c-2.8-2.5-4.5-5.9-5.1-10.2l-0.5-6V72.7l82.7,83V0l72.1,0v156.7l81.1-81.5V155
		c0,2.2-0.6,4.6-1.9,7.4l-4.7,6L297.6,268.7z"/>
</g>
</svg>
