<?xml version="1.0" encoding="utf-8"?>
<!-- Generator: Adobe Illustrator 21.1.0, SVG Export Plug-In . SVG Version: 6.00 Build 0)  -->
<svg version="1.1" id="Layer_2" xmlns="http://www.w3.org/2000/svg" xmlns:xlink="http://www.w3.org/1999/xlink" x="0px" y="0px"
	 viewBox="0 0 512 512" style="enable-background:new 0 0 512 512;" xml:space="preserve">
<g>
	<path d="M54,512h347.7l-83.6-83.6H193.3c17.5-13.3,39.4-21.1,63.1-21.1c21.7,0,41.8,6.6,58.5,17.9L57.3,167.5
		c-1.9,11.2-2.9,22.7-2.9,34.5c0.2,62.1,28.3,117.6,72.4,154.6C82.3,393.8,54,449.6,54,512z"/>
	<path d="M390.2,353.4c41.8-37.1,68.2-91.1,68.2-151.4c0-111.6-90.5-202-202-202C196.1,0,142,26.4,105,68.2L36.8,0L0,36.8
		l475.4,475.4l36.8-36.8L390.2,353.4z M256.6,17c4.4,0,7.9,3.5,7.9,7.9c0,4.4-3.5,7.9-7.9,7.9s-7.9-3.5-7.9-7.9
		C248.7,20.5,252.3,17,256.6,17z M213.2,176.4c3-5.1,7-9.7,11.7-13.4v-0.2c4.1-3.4,10.2-2.9,13.6,1.2c0.1,0.1,0.1,0.2,0.2,0.3
		c3.4,4.1,2.9,10.2-1.2,13.6c-0.2,0.1-0.3,0.3-0.5,0.4c-4.2,3.4-7.4,7.8-9.3,12.6L213.2,176.4z M322.5,285.8L301,264.2
		c19.3-13.9,31.9-36.6,31.9-62.2c0-42.3-34.3-76.5-76.5-76.5c-25.6,0-48.3,12.6-62.2,31.9l-20.9-20.9c19.4-24.4,49.4-40,83.1-40
		c58.6,0,106.2,47.5,106.2,106.2C362.5,236.3,346.9,266.3,322.5,285.8z"/>
	<circle cx="256.6" cy="24.9" r="3.7"/>
</g>
</svg>
