<?xml version="1.0" encoding="utf-8"?>
<!-- Generator: Adobe Illustrator 21.1.0, SVG Export Plug-In . SVG Version: 6.00 Build 0)  -->
<svg version="1.1" id="Layer_1" xmlns="http://www.w3.org/2000/svg" xmlns:xlink="http://www.w3.org/1999/xlink" x="0px" y="0px"
	 viewBox="0 0 660 512" style="enable-background:new 0 0 660 512;" xml:space="preserve">
<path d="M634,512H27c-14.1,0-25.5-11.4-25.5-25.5v-461C1.5,11.4,12.9,0,27,0h607c14.1,0,25.5,11.4,25.5,25.5v461
	C659.5,500.6,648.1,512,634,512z M79.3,205c2.5,11.6,6.2,28.6,11.2,51h22.4l1.3-8.1l1.2-7.7c0.8-6.7,1.7-12.2,2.5-16.2
	c0.6,3.8,1.4,9.2,2.5,16.2l0.8,7.7l1.3,8.1h11.2h11.2c1.4-5.9,3.3-14.4,5.8-25.5l2.9-12.6l2.5-12.9h-4.5H147c-3.9,0-7,0-9.5,0
	c-0.3,3.8-1,9-2.1,15.8l-0.8,7.7l-1.3,7.7c-0.6-3.8-1.4-8.9-2.5-15.4l-0.8-7.7l-1.2-8.1c-3.1,0-6.6,0-10.8,0h-5.4h-5.4l-1.3,8.1
	l-1.2,7.7c-0.8,6.2-1.7,11.5-2.5,15.8c0-1.1-0.1-2.3-0.4-3.6l-1.7-13.8L98,205C92.4,205,86.2,205,79.3,205z M168.8,205v25.1V256
	h20.3h20.7v-7v-7h-11.2h-9.8v-5h9h9v-14h-9h-9v-5h20v-6.3V205h-20H168.8z M221.9,300.5c0,2.4,0.6,4.9,1.7,7.3c1.4,2.2,3.1,4,5.1,5.3
	c4.8,3.3,10.9,4.8,18.5,4.5c8.4,0.3,15-1.6,19.8-5.7c3.6-3,5.3-7.6,5-13.9v-16.4V265h-10.5H251v15.5V296v1.6c0,0.6,0,1.1,0,1.6
	c0,1.1-0.3,2.1-0.9,2.9s-1.2,1.4-2.1,1.6c-1.1,0.3-2.1,0.1-3-0.4c-0.8-0.6-1.4-1.4-1.7-2.4c-0.3-0.8-0.4-1.8-0.4-2.9v-16.4V265h-21
	V300.5z M229.9,206.3c-3.4,1.9-5.8,4.6-6.9,8.2c-1.4,4.4-1.3,8.5,0.4,12.3c1.7,3,4.7,5.2,9,6.5l8.1,2.5c3.4,0.8,6.2,1.5,8.1,2
	c1.2,0.3,2,0.8,2.6,1.6c0.5,0.8,0.7,1.7,0.4,2.5c-0.6,1.9-2,3-4.3,3.3s-3.9-0.4-4.7-2c-0.3-0.3-0.6-0.8-0.8-1.6v-0.7V240h-19.9
	l0.4,3c0.3,2.2,1,4.2,2.1,6.1c1.1,1.9,2.6,3.3,4.6,4.1c4.5,3,10.9,4.3,19.3,4.1c7.2-0.3,12.8-1.8,16.7-4.5c3.6-2.4,5.9-5.9,6.7-10.2
	c0.5-5.2-0.4-9.2-2.9-12.2c-1.4-1.6-3.5-3.1-6.3-4.5c-1.1-0.3-2.4-0.7-3.8-1.2l-1.7-0.4l-1.7-0.8c-0.8-0.3-1.9-0.6-3.3-0.4h-1.7
	l-1.3-0.9c-2.5-0.8-4.6-1.6-6.3-2.4v-0.4l-1-0.4c0,0,0-0.8,0-1.1c0-0.8,0.1-1.4,0.4-1.7c1.1-0.8,2.4-1.2,3.8-1.2
	c1.3,0,2.5,0.2,3.6,0.7c0.4,0.6,0.7,1.2,1.1,1.7v0.8l0.4,0.8c6.8,0,13.1,0,18.9,0c0.3-2.5-0.1-4.8-1.3-7c-1.2-2.5-2.7-4.3-4.7-5.3
	c-2.9-1.7-6.4-2.7-10.7-3.3c-1.7-0.3-3.6-0.4-5.6-0.4c-1.2,0-3,0-5.6,0C237.4,203.6,233.3,204.6,229.9,206.3z M282.9,212v7h14v37
	h9.8h10.2v-37h6.7h6.3v-14h-23.4H283v7H282.9z M287.9,317h17v-15.4c0-6.2,0-11.2,0-15l10.9,30.4c3.3,0,7.5,0,12.6,0H341v-51h-17
	v30.8l-5.8-15.4c-2.2-6.2-4-11.3-5.4-15.4h-24.9L287.9,317L287.9,317z M343,205v25.1V256h20.7H384v-14h-9.8h-10.3v-5h18v-14h-18v-5
	h9.8h10.2v-13H343z M359,266v25.5V317h10.2h9.8v-51H359z M416.5,264.6c-3.3,0.5-6.4,1.5-9.2,2.9c-3.1,1.6-5.6,3.7-7.5,6.1
	c-3.6,5.2-5.3,11.7-5,19.6s2.9,14.2,7.9,18.8c5,4.4,11.6,6.4,19.6,6.1c3.6,0.3,7.3-0.3,10.9-1.6c3-1.1,5.9-2.9,8.4-5.3
	s4.3-5.2,5.4-8.2c2.2-6.3,2.6-12.8,1.2-19.6c-1.4-6.8-4.7-11.7-10-14.7C432.4,264.9,425.1,263.5,416.5,264.6z M399.1,256h11.2h9.8
	v-18h1.2h0.8c0.8,0,1.5,0.1,2.1,0.4c1.6,0.3,2.6,1.1,2.9,2.4c0.2,1.1,0.5,2.3,0.8,3.6l0.4,4c0.6,3.2,1.1,5.7,1.7,7.6
	c4.6,0,10.8,0,19.7,0c-1.1-3.5-2-7.4-2.5-11.7v-2.4l-0.4-2.4c-0.3-1.6-0.7-3.1-1.3-4.4c-0.6-1.3-1.5-2.4-2.9-3.2s-2.9-1.3-4.5-1.6
	c3.6-1.1,6.2-2.7,7.9-4.9c1.6-2.4,2.1-5.9,1.3-10.5c-0.3-2.2-1.1-3.9-2.5-5.3c-1.4-1.6-3.2-2.7-5.4-3.2c-1.9-0.5-4.3-0.9-7-1.2
	c-1.1,0-2.4,0-3.7,0H425h-12.8h-12.9V256H399.1z M420.3,278.4c1.1-0.5,2.1-0.5,3.2,0c1,0.3,1.9,0.8,2.4,1.6c0.5,1.1,0.9,2.2,1.2,3.5
	c0,0.5,0,1.9,0,1.9l1,2.1v1.5v1.6c0,1.4,0,2.5,0,3.3c-0.3,2.8-0.7,5.1-1.3,7c-0.3,1.6-1,2.7-2.1,3.3c-1.1,0.6-2.3,0.7-3.4,0.4
	c-1.1-0.3-2-0.8-2.5-1.7c-0.6-1.1-1-2.5-1.3-4.1c0-0.6-0.1-1.2-0.4-2.1v-2.4v-3.1c0-1.3,0-2.3,0-3.1c0-2.3,0.3-4.4,0.8-6.2
	c0.3-0.8,0.5-1.4,0.8-2C419.2,279.2,419.8,278.7,420.3,278.4z M420.1,216h1.7h1.7c1.1,0.3,2.1,0.6,2.9,0.8c1.7,0.5,2.4,1.9,2.1,4.1
	c0,1.9-0.8,3.1-2.5,3.7c-1.4,0.5-3.4,0.8-5.9,0.8L420.1,216L420.1,216z M464.2,205v51c5.6,0,11.2,0,17,0v-7.7v-7.7
	c0-6.2,0-11.3,0-15.4c4.5,12.4,8.1,22.7,10.9,30.8h12.6h12.6v-25.5V205h-17v30.3l-5.4-15c-2.3-6.2-4.1-11.3-5.5-15.4L464.2,205
	L464.2,205z M464.2,317h17v-15.5c0-6,0-11,0-15.1l5.5,14.7l5.1,14.7l0.4,0.4v0.4c0,0.3,0.3,0.4,0.8,0.4h12.1h12.1v-51h-16.6
	l-0.4,15.4v15l-5.4-15l-5.5-15.4h-12.6h-12.6v51H464.2z M532.3,317c2.6,0,5,0,7,0v-56.2V205h-3.5h-3.5V317z M579.3,317h7V205
	c-2.5,0-4.8,0-7,0V317z M603.9,205.8c-1.9,0.8-3.2,2.2-3.7,4.1c-0.8,1.9-0.8,3.7,0,5.3c0.8,2.2,2.6,3.4,5.4,3.7
	c2.5,0.5,4.6,0,6.3-1.6c1.1-1.4,1.8-3,2.1-4.9c0-1.9-0.7-3.4-2.1-4.5c-0.8-1.4-2.1-2.2-3.8-2.4C606.7,205.1,605.3,205.3,603.9,205.8
	z M605.1,206.6c2.2-0.3,3.9,0,5,0.8c1.7,1.4,2.4,3.1,2.1,5.3c-0.3,2.2-1.2,3.8-2.9,4.9c-1.9,0.8-3.9,0.7-5.9-0.4
	c-1.7-1.4-2.5-3-2.5-4.9c0-1.1,0.4-2.3,1.3-3.7C602.8,207.6,603.7,206.9,605.1,206.6z M604.3,208v2.3v1.2v1.2
	c-0.5,1.6-0.2,3,0.4,4.1c0.3-0.5,0.4-1.2,0.6-2v-1.2V213h0.2h0.4h0.8c0,0,0.1,0.4,0.4,1l0.4,0.4l0.4,0.8c0.6,0.8,1.4,1.2,2.5,1.2
	c-0.6-0.8-1.4-2-2.5-3.7l2.3-0.8v-0.8v-0.8c-0.2-0.8-0.5-1.4-1-1.6c-0.6-0.3-1.4-0.4-2.5-0.7h-1.2L604.3,208L604.3,208z M606.8,210
	h1.7c0.3,0,0.5,0.6,0.8,1.1c-0.6,0.3-1.2,0.4-2.1,0.4c-0.3,0.3-0.7,0.4-1.2,0.5h-0.6v-2H606.8z"/>
</svg>
