<?xml version="1.0" encoding="utf-8"?>
<!-- Generator: Adobe Illustrator 21.1.0, SVG Export Plug-In . SVG Version: 6.00 Build 0)  -->
<svg version="1.1" id="Layer_5" xmlns="http://www.w3.org/2000/svg" xmlns:xlink="http://www.w3.org/1999/xlink" x="0px" y="0px"
	 viewBox="0 0 640 512" style="enable-background:new 0 0 640 512;" xml:space="preserve">
<g>
	<path d="M468.5,84.1c-7.9,0-15.9,0.5-24,1.5c-59,7.6-124.2,38.2-163.7,117.7c-15.7,31.7-46.1,45.5-73.6,45.5
		c-17.5,0-33.9-5.6-44.6-15.7c0,0,0,0-0.1-0.1c-4-3.7-7.1-8.1-9.3-13c0,0,0,0,0-0.1c-0.2-0.4-0.4-0.7-0.6-1.1
		c-9-16-12.9-32.8-12.9-32.8c118-49.6,92.8-86.1,89.5-86c-11,10.3-60.2,14.2-75,20.1c-14.8-5.2-34.9,13-41.3,9.9
		c-5.6-3.6-12.1-2.6-23.6,2.1c-33.8,17.5-61.2,14.7-82.8,17.2c-22.7,4.2,19.3,24.6,41.9,37.7c14.3,4.5,18.7,16.7,27.5,38.3
		c5.2,19.5,13.5,37.2,19.7,47.1c0.2,0.4,0.4,0.8,0.6,1.1c5.1,8.4,15.9,20.1,26.8,30.6c27.2,26.5,72,58.8,157.4,72.2
		c-2.6,16.8-12.7,56.6-50.3,84.2c104.6,28.6,125.5-57.4,128.9-78c2.8,0,5.6,0,8.5,0c22.3,0,43.8-3.1,64.3-8.6
		c2.3,9.9,6.9,37.3-4.1,64.8c49.4-14.3,56.8-67,57.8-85.1c93-46,154.6-133.9,154.6-166C640,146.7,558.5,84.1,468.5,84.1z M534,216
		c-8.8,0-16-7.2-16-16s7.2-16,16-16s16,7.2,16,16S542.8,216,534,216z"/>
</g>
</svg>
