<?xml version="1.0" encoding="utf-8"?>
<!-- Generator: Adobe Illustrator 21.1.0, SVG Export Plug-In . SVG Version: 6.00 Build 0)  -->
<svg version="1.1" id="_x33_2" xmlns="http://www.w3.org/2000/svg" xmlns:xlink="http://www.w3.org/1999/xlink" x="0px" y="0px"
	 viewBox="0 0 640 512" style="enable-background:new 0 0 640 512;" xml:space="preserve">
<g>
	<circle cx="320.1" cy="400" r="80"/>
	<path d="M628.5,149.5c-80.6-74-188.1-119.1-306.1-119.1c-120.6,0-230.2,47.1-311.3,124C4,161.1,0,170.6,0,180.4v0
		c0,31.5,37.8,47.9,60.7,26.2C128.9,142,221,102.4,322.4,102.4c99.2,0,189.6,38,257.4,100.2c23,21.1,60.2,4.6,60.2-26.6v0
		C640,165.9,635.9,156.3,628.5,149.5z"/>
	<path d="M517.4,263.9C462.7,221.3,394,196,319.4,196c-73.9,0-141.9,24.8-196.3,66.6c-8.8,6.8-13.9,17.3-13.9,28.4v0
		c0,29.9,34.2,46.7,57.9,28.5c42.2-32.4,95-51.6,152.3-51.6c57.9,0,111.2,19.6,153.6,52.6c23.6,18.4,58.1,1.5,58.1-28.4v0
		C531.1,281.1,526.1,270.6,517.4,263.9z"/>
</g>
</svg>
