<?xml version="1.0" encoding="utf-8"?>
<!-- Generator: Adobe Illustrator 21.1.0, SVG Export Plug-In . SVG Version: 6.00 Build 0)  -->
<svg version="1.1" id="Layer_4" xmlns="http://www.w3.org/2000/svg" xmlns:xlink="http://www.w3.org/1999/xlink" x="0px" y="0px"
	 viewBox="0 0 512 512" style="enable-background:new 0 0 512 512;" xml:space="preserve">
<g>
	<g>
		<path d="M256,0C114.6,0,0,114.6,0,256s114.6,256,256,256s256-114.6,256-256S397.4,0,256,0z M142.6,206.7c2.7-3.1,0.1-0.1,0.1-0.1
			c3.1-3.6,15.1-18.6,37.8-18.6c23,0,35.2,15.6,37.9,18.7c2.7,3.1,2.8,9.3-5.4,9.3c-8.2,0-13.3-7.7-32.5-7.7
			c-18.8,0-24.5,7.7-32.5,7.7C139.9,216,139.8,209.8,142.6,206.7z M299.7,362.6l-0.3,0.1c-48.6,13.4-100.8,0-136.9-35.2
			c-5.8-5.5-5.9-14.7-0.2-20.2c5.5-5.4,14.5-5.4,20,0.1c28.9,28.2,70.7,39,109.5,28.2C309.9,330.4,317.7,357.5,299.7,362.6z
			 M332.8,237.4c-16.7,0-30.2-16.7-30.2-37.2s13.6-37.2,30.2-37.2s30.2,16.7,30.2,37.2S349.5,237.4,332.8,237.4z"/>
	</g>
</g>
</svg>
