<?xml version="1.0" encoding="utf-8"?>
<!-- Generator: Adobe Illustrator 21.1.0, SVG Export Plug-In . SVG Version: 6.00 Build 0)  -->
<svg version="1.1" id="Layer_1" xmlns="http://www.w3.org/2000/svg" xmlns:xlink="http://www.w3.org/1999/xlink" x="0px" y="0px"
	 viewBox="0 0 512 512" style="enable-background:new 0 0 512 512;" xml:space="preserve">
<path d="M256,0C115.2,0,0,115.2,0,256s115.2,256,256,256s256-115.2,256-256S396.8,0,256,0z M439,263.4v43.7h-61.4L347,407.3h-56.5
	l-16.3-100.2H241l-20.5,100.2h-57.1l-30.7-100.2H72v-43.7h47.4l-7.2-23.3H72v-43.7h26.8L72,109h56.5l26.8,87.4h63.6l13.4-65.3h58.3
	l10.6,65.3h54.1l26.8-87.4h56.5l-26.8,87.4H439v43.7h-40.8l-7.2,23.3H439z M311.9,263.4h22.7l7.2-23.3h-33.6L311.9,263.4z
	 M319.8,311.7l1.4-4.6H319L319.8,311.7z M254.7,240.1l-4.8,23.3H267l-3.8-23.3H254.7z M175.8,263.4h29.3l4.8-23.3h-41.2L175.8,263.4
	z M193.4,320.7l2.7-13.6h-6.9L193.4,320.7z"/>
</svg>
