<?xml version="1.0" encoding="utf-8"?>
<!-- Generator: Adobe Illustrator 21.1.0, SVG Export Plug-In . SVG Version: 6.00 Build 0)  -->
<svg version="1.1" id="Layer_1" xmlns="http://www.w3.org/2000/svg" xmlns:xlink="http://www.w3.org/1999/xlink" x="0px" y="0px"
	 viewBox="0 0 545.2 512" style="enable-background:new 0 0 545.2 512;" xml:space="preserve">
<path d="M364.3,1l-0.6-0.4c-0.8-0.7-1.5-0.5-2.2,0.2c-0.4,0.4-0.8,0.9-1.2,1.6c-11,18.3-25.4,35.7-42.3,52.5
	c-74.8,74.8-196.7,137.7-270.7,211.8C28,285.9,12,305.9,0.9,327.1c54.8,63.6,180,184.7,180.4,184.3c7.5-9.7,15.3-19,23.2-27.9
	s16-17.4,24.1-25.6c95.2-95.2,206-142.5,269.8-206.3c21.6-21.6,37.8-45,46.3-72.9C481.9,121.6,427,58,364.3,1z M276.6,341.2
	l-19,17.1l-31.4-19.7L207,356.3l16.8,32.9l-19.6,18l-31.1-19.9L156,403l-18.5-20.3l11.8-10.7l-10.7-10.2l-10.9,10l-18.5-20.3
	l5.4-4.9l-30.9-19.9l22.6-20.6l30,20.8l15.9-14.5l-16.8-32.9l21.7-19.9l30.8,20l15.8-14.2l-17.8-32.1l22.3-20.4l16.8,32.9l5.5-5
	l18.5,20.3l-11.2,10.1l8.7,11.8l12.1-11l18.5,20.3l-17.6,16.1L276.6,341.2z M296.8,161.4c27.9-20.3,54.9-41.2,78.9-63.4l23.2,23.2
	c-21.5,20.2-49.5,39.6-81.4,60.8L296.8,161.4z M382.2,246.9l-20.7-20.7c27.9-20.2,54.9-41.2,78.9-63.4l23.2,23.2
	C442.1,206.3,414.2,225.6,382.2,246.9z M206.4,291.7l16.5,14l3.8-3.5l-12.4-17.5L206.4,291.7z M182.7,314.2l11.9,17.4l8.3-7.5
	l-16-13.6L182.7,314.2z M154.5,339.5l15.9,14.2l4-3.7L162,331.7L154.5,339.5z"/>
</svg>
