<?xml version="1.0" encoding="utf-8"?>
<!-- Generator: Adobe Illustrator 21.1.0, SVG Export Plug-In . SVG Version: 6.00 Build 0)  -->
<svg version="1.1" id="south_korea_won_1_" xmlns="http://www.w3.org/2000/svg" xmlns:xlink="http://www.w3.org/1999/xlink" x="0px"
	 y="0px" viewBox="0 0 550 512" style="enable-background:new 0 0 550 512;" xml:space="preserve">
<path id="south_korea_won" d="M550,229.4V164h-41l40.2-131h-84.7l-40.2,131h-81l-15.9-97.8h-20.1h-47.1h-20.1l-20,97.8h-95.2
	L84.7,33H0l40.2,131H0v65.5h60.2L71,264.4H0v65.5h91.1l46,150.2h18.3h66.3h0.9l30.7-150.2H303L327.4,480h67.2h17.5l46-150.2H550
	v-65.5h-71.8l10.7-34.9H550z M144.9,229.4h61.7l-7.2,34.9h-43.9L144.9,229.4z M181.9,350.3l-6.3-20.4H186L181.9,350.3z M266.7,264.4
	l7.2-34.9h12.7l5.7,34.9H266.7z M371.3,336.7l-1.1-6.9h3.2L371.3,336.7z M393.5,264.4h-34l-5.7-34.9h50.4L393.5,264.4z"/>
</svg>
