<?xml version="1.0" encoding="utf-8"?>
<!-- Generator: Adobe Illustrator 21.1.0, SVG Export Plug-In . SVG Version: 6.00 Build 0)  -->
<svg version="1.1" id="Layer_1" xmlns="http://www.w3.org/2000/svg" xmlns:xlink="http://www.w3.org/1999/xlink" x="0px" y="0px"
	 viewBox="0 0 512 512" style="enable-background:new 0 0 512 512;" xml:space="preserve">
<path d="M363.3,0.3c-38.1,0-76.1,14.5-105.2,43.6c-36.7,36.7-50,88.7-39.9,136.4C194,204.9,76.6,328,21.9,383.4
	c-29.3,29.7-29,77.5,0.7,106.8C37.3,504.7,56.4,512,75.6,512c19.5,0,39-7.5,53.8-22.5c52.4-53.1,160.7-167.3,190.9-198.1
	c14,4.2,28.5,6.3,43,6.3c38.1,0,76.1-14.5,105.2-43.6C510.7,212,522.2,150.7,503,98.1c-2.2-6-7.7-9.4-13.3-9.4
	c-3.5,0-7.1,1.3-9.9,4.1L393.6,179c-3.3,3.3-8.2,4.4-12.6,2.8l-32-11.6c-3.3-1.2-5.9-3.8-7.2-7.1l-12.1-32.5
	c-1.6-4.4-0.6-9.4,2.8-12.7l85.7-85.7c7.4-7.4,4.5-19.8-5.3-23.3C396.9,3.2,380.1,0.3,363.3,0.3L363.3,0.3z"/>
</svg>
