<?xml version="1.0" encoding="utf-8"?>
<!-- Generator: Adobe Illustrator 21.1.0, SVG Export Plug-In . SVG Version: 6.00 Build 0)  -->
<svg version="1.1" id="Layer_3" xmlns="http://www.w3.org/2000/svg" xmlns:xlink="http://www.w3.org/1999/xlink" x="0px" y="0px"
	 viewBox="0 0 512 512" style="enable-background:new 0 0 512 512;" xml:space="preserve">
<style type="text/css">
	.st0{fill:#231F20;}
</style>
<g>
	<path d="M376.5,70.5c2.7-4.3-17.4-23.1-45.2-42.2C303.6,9.1,278.7-3,275.6,1.1l-256,374.5l-10,14.7c5,26.7,57.6,69,100.5,66.7
		l11.1-15.7L376.5,70.5L376.5,70.5L376.5,70.5L376.5,70.5L376.5,70.5z M316.9,29.6c0.5-0.8,5,1.4,10.1,4.9c5,3.5,8.7,6.9,8.2,7.7
		s-5.1-1.4-10.1-4.9C320,33.7,316.4,30.3,316.9,29.6z"/>
	<g>
		<path class="st0" d="M2,404.1L0,511.7l102.5-40.9c-14.8-3.4-40.3-7.8-61.6-22.3C21.3,435.2,10,415.6,2,404.1z"/>
	</g>
	<polygon points="512,512 130.6,512 179.9,440 512,440 	"/>
	<path d="M612.6,322"/>
</g>
</svg>
