<?xml version="1.0" encoding="utf-8"?>
<!-- Generator: Adobe Illustrator 21.1.0, SVG Export Plug-In . SVG Version: 6.00 Build 0)  -->
<svg version="1.1" id="Layer_1" xmlns="http://www.w3.org/2000/svg" xmlns:xlink="http://www.w3.org/1999/xlink" x="0px" y="0px"
	 viewBox="0 0 545.2 512" style="enable-background:new 0 0 545.2 512;" xml:space="preserve">
<path d="M364.3,1l-0.6-0.4c-0.8-0.7-1.5-0.5-2.2,0.2c-0.4,0.4-0.8,0.9-1.2,1.6c-11,18.3-25.4,35.7-42.3,52.5
	c-74.8,74.8-196.7,137.7-270.7,211.8C28,285.9,12,305.9,0.9,327.1c54.8,63.6,180,184.7,180.4,184.3c7.5-9.7,15.3-19,23.2-27.9
	s16-17.4,24.1-25.6c95.2-95.2,206-142.5,269.8-206.3c21.6-21.6,37.8-45,46.3-72.9C481.9,121.6,427,58,364.3,1z M237,392.7L213.7,416
	l-23.5-23.5L164,419l-22.8-22.8l26.3-26.5L157,359.2l-26.5,26.5l-23.4-23.4l17.7-17.7L56,327.2L82.1,301l2.2,0.5
	c12.1,2.9,36.8,8.4,49.1,11.5c-3.4-13-9.8-38.8-12.1-48.2l-0.5-2.4l27.1-27.1l17.4,68.6l17.7-17.7l23.4,23.4l-26.1,26.1l10.5,10.5
	l26.1-26.1l22.8,22.8l-26.1,26.1L237,392.7z M296.8,161.4c27.9-20.3,54.9-41.2,78.9-63.4l23.2,23.2c-21.5,20.2-49.5,39.6-81.4,60.8
	L296.8,161.4z M382.2,246.9l-20.7-20.7c27.9-20.2,54.9-41.2,78.9-63.4l23.2,23.2C442.1,206.3,414.2,225.6,382.2,246.9z"/>
</svg>
