<?xml version="1.0" encoding="utf-8"?>
<!-- Generator: Adobe Illustrator 21.1.0, SVG Export Plug-In . SVG Version: 6.00 Build 0)  -->
<svg version="1.1" id="Layer_2" xmlns="http://www.w3.org/2000/svg" xmlns:xlink="http://www.w3.org/1999/xlink" x="0px" y="0px"
	 viewBox="0 0 565 512" style="enable-background:new 0 0 565 512;" xml:space="preserve">
<path d="M511.8,51.2v48.9H51.6h-0.1V51.2H511.8 M520.5-0.8H42.8C19-0.8-0.5,19.1-0.5,43.4v180.4c0,24.3,19.4,44.1,43.3,44.1h477.7
	c23.8,0,43.3-19.8,43.3-44.1V43.4C563.7,19.1,544.3-0.8,520.5-0.8L520.5-0.8z M51.6,179.6v-27.5h460.8v27.5h-0.1H51.6L51.6,179.6z
	 M51.6,227.6v-27.5h460.8v27.5h-0.1H51.6L51.6,227.6z M428.2,278.9c-5.7,0-10.3,4.7-10.3,10.5v3.8c0,5.8,4.6,10.5,10.3,10.5
	c5.7,0,10.3-4.7,10.3-10.5v-3.8C438.5,283.6,433.9,278.9,428.2,278.9L428.2,278.9z M43.2,284.3c-2.6,0-5.3,1-7.3,3.1
	c-23.7,24.3-10.2,47.8-0.3,65c11.8,20.5,17.1,32,0.3,49.2c-4,4.1-4,10.8,0,14.9c2,2,4.6,3.1,7.3,3.1s5.3-1,7.3-3.1
	c29-29.5,13.9-55.7,3-74.8C42,322,39.1,314,50.5,302.3c4-4.1,4-10.8,0-14.9C48.5,285.3,45.9,284.3,43.2,284.3L43.2,284.3z
	 M172.4,287.8c-5.7,0-10.3,4.7-10.3,10.5v3.8c0,5.8,4.6,10.5,10.3,10.5s10.3-4.7,10.3-10.5v-3.8C182.6,292.6,178,287.8,172.4,287.8
	L172.4,287.8z M326.3,288.5c-2.7,0-5.3,1-7.3,3.1l-8.9,9.1l-8.9-9.1c-2-2.1-4.6-3.1-7.3-3.1c-2.6,0-5.3,1-7.3,3.1
	c-4,4.1-4,10.8,0,14.9l8.9,9.1l-8.9,9.1c-4,4.1-4,10.8,0,14.9c2,2.1,4.6,3.1,7.3,3.1s5.3-1,7.3-3.1l9.1-9.1l8.9,9.1
	c2,2.1,4.6,3.1,7.3,3.1s5.3-1,7.3-3.1c4-4.1,4-10.8,0-14.9l-8.9-9.1l8.9-9.1c4-4.1,4-10.8,0-14.9C331.6,289.5,329,288.5,326.3,288.5
	L326.3,288.5z M535.9,307.6c-2.6,0-5.3,1-7.3,3.1l-8.9,9.1l-8.9-9.1c-2-2.1-4.6-3.1-7.3-3.1c-2.6,0-5.3,1-7.3,3.1
	c-4,4.1-4,10.8,0,14.9l8.9,9.1l-8.9,9.1c-4,4.1-4,10.8,0,14.9c2,2,4.6,3.1,7.3,3.1s5.3-1,7.3-3.1l8.9-9.1l8.9,9.1
	c2,2,4.6,3.1,7.3,3.1s5.3-1,7.3-3.1c4-4.1,4-10.8,0-14.9l-8.8-9.1l8.9-9.1c4-4.1,4-10.8,0-14.9C541.2,308.6,538.6,307.6,535.9,307.6
	L535.9,307.6z M230,319.5c-2.6,0-5.3,1-7.3,3.1c-23.7,24.3-10.2,47.8-0.3,65c11.8,20.5,17.1,32,0.3,49.2c-4,4.1-4,10.8,0,14.9
	c2,2,4.6,3.1,7.3,3.1s5.3-1,7.3-3.1c28.8-29.6,13.8-55.7,2.9-74.8c-11.2-19.8-14.2-27.7-2.8-39.4c4-4.1,4-10.8,0-14.9
	C235.3,320.5,232.7,319.5,230,319.5L230,319.5z M403.9,340.5c-2.6,0-5.3,1-7.3,3.1c-23.7,24.3-10.2,47.8-0.3,65
	c11.8,20.5,17.1,32,0.3,49.2c-4,4.1-4,10.8,0,14.9c2,2,4.6,3.1,7.3,3.1c2.6,0,5.3-1,7.3-3.1C440,443.2,425,417.1,414,398
	c-11.3-19.8-14.2-27.8-2.8-39.5c4-4.1,4-10.8,0-14.9C409.2,341.5,406.6,340.5,403.9,340.5L403.9,340.5z M149.7,364.5
	c-2.6,0-5.3,1-7.3,3.1l-8.9,9.1l-8.9-9.1c-2-2.1-4.6-3.1-7.3-3.1c-2.6,0-5.3,1-7.3,3.1c-4,4.1-4,10.8,0,14.9l8.9,9.1l-8.9,9.1
	c-4,4.1-4,10.8,0,14.9c2,2.1,4.6,3.1,7.3,3.1s5.3-1,7.3-3.1l8.9-9.1l8.9,9.1c2,2.1,4.6,3.1,7.3,3.1s5.3-1,7.3-3.1
	c4-4.1,4-10.8,0-14.9l-8.7-9.1l8.9-9.1c4-4.1,4-10.8,0-14.9C155,365.5,152.4,364.5,149.7,364.5L149.7,364.5z M320.4,375.7
	c-2.6,0-5.3,1-7.3,3.1c-23.7,24.3-10.2,47.8-0.3,65c11.8,20.5,17.1,32,0.3,49.2c-4,4.1-4,10.8,0,14.9c2,2.1,4.6,3.1,7.3,3.1
	s5.3-1,7.3-3.1c28.8-29.6,13.8-55.7,2.9-74.8c-11.3-19.7-14.2-27.7-2.8-39.4c4-4.1,4-10.8,0-14.9
	C325.7,376.7,323.1,375.7,320.4,375.7L320.4,375.7z M477.5,448c-5.7,0-10.3,4.7-10.3,10.6v3.8c0,5.8,4.6,10.6,10.3,10.6
	c5.7,0,10.3-4.7,10.3-10.6v-3.8C487.8,452.8,483.2,448,477.5,448L477.5,448z M72.4,450.2c-5.7,0-10.3,4.7-10.3,10.6v3.8
	c0,5.8,4.6,10.5,10.3,10.5s10.3-4.7,10.3-10.5v-3.8C82.7,454.9,78.1,450.2,72.4,450.2L72.4,450.2z"/>
<g>
	<path d="M152.5,58.2h28.2c7.5,0,14.4,6.4,14.4,14.7s-6.3,14.7-14.4,14.7h-28.2c-7.5,0-14.4-6.4-14.4-14.7
		C138,64.6,144.3,58.2,152.5,58.2z"/>
</g>
<g>
	<path d="M75.4,58.2h28.2c7.5,0,14.4,6.4,14.4,14.7S111.7,87,103.6,87H75.4C67.9,87,61,80.6,61,72.3C60.9,63.9,67.8,58.2,75.4,58.2z
		"/>
</g>
</svg>
