<?xml version="1.0" encoding="utf-8"?>
<!-- Generator: Adobe Illustrator 21.1.0, SVG Export Plug-In . SVG Version: 6.00 Build 0)  -->
<svg version="1.1" id="Layer_3" xmlns="http://www.w3.org/2000/svg" xmlns:xlink="http://www.w3.org/1999/xlink" x="0px" y="0px"
	 viewBox="0 0 401.5 512" style="enable-background:new 0 0 401.5 512;" xml:space="preserve">
<g id="_x35_2">
	<path d="M392.8,438.1L392.8,438.1l-70.2-117.3c-4.1-8.5-12.7-14.4-22.8-14.7v0H197.6v-44.5h97.3c10.5,0,18.9-8.5,18.9-18.9
		c0-10.5-8.5-18.9-18.9-18.9h-97.3v-84.7c0-14.4-11.6-26-26-26c-14.4,0-26,11.6-26,26v193c0,14.2,11.4,25.8,25.6,26v0h112.9
		l63.7,106l0,0c4.4,8,12.9,13.3,22.7,13.3c14.4,0,26-11.6,26-26C396.5,446.6,395.2,442,392.8,438.1z"/>
	<path d="M169.2,459.5c-64.4,0-116.6-52.2-116.6-116.6c0-32.3,13.1-61.4,34.3-82.5v-65.2C35.1,224,0.1,279.4,0.1,342.9
		C0.1,436.3,75.8,512,169.2,512c43.2,0,82.7-16.2,112.6-42.9l-27.1-46.9C233.4,445.1,203,459.5,169.2,459.5z"/>
	<circle cx="171.8" cy="45.6" r="46.1"/>
	<path d="M311.2,512.1l-55-0.1c0,0,7.5-3.2,23.7-10.9c13.5-6.4,31.4-21.2,31.4-21.2V512.1z"/>
</g>
</svg>
