<?xml version="1.0" encoding="utf-8"?>
<!-- Generator: Adobe Illustrator 21.1.0, SVG Export Plug-In . SVG Version: 6.00 Build 0)  -->
<svg version="1.1" id="Layer_1" xmlns="http://www.w3.org/2000/svg" xmlns:xlink="http://www.w3.org/1999/xlink" x="0px" y="0px"
	 viewBox="0 0 512 512" style="enable-background:new 0 0 512 512;" xml:space="preserve">
<g>
	<path d="M1.3,170v342h252.5V170H1.3z M43.4,487.3c-9.6,0-17.4-7.8-17.4-17.4s7.8-17.4,17.4-17.4s17.4,7.8,17.4,17.4
		S53,487.3,43.4,487.3z M43.4,424.5c-9.6,0-17.4-7.8-17.4-17.4s7.8-17.4,17.4-17.4s17.4,7.8,17.4,17.4S53,424.5,43.4,424.5z
		 M43.4,361.7c-9.6,0-17.4-7.8-17.4-17.4S33.8,327,43.4,327s17.4,7.8,17.4,17.4S53,361.7,43.4,361.7z M59.4,307.6H28
		c-2.9,0-5.3-2.4-5.3-5.3s2.4-5.4,5.3-5.4h31.4c2.9,0,5.3,2.4,5.3,5.4S62.4,307.6,59.4,307.6z M99.5,487.3
		c-9.6,0-17.4-7.8-17.4-17.4s7.8-17.4,17.4-17.4s17.4,7.8,17.4,17.4S109.1,487.3,99.5,487.3z M99.5,424.5c-9.6,0-17.4-7.8-17.4-17.4
		s7.8-17.4,17.4-17.4s17.4,7.8,17.4,17.4S109.1,424.5,99.5,424.5z M99.5,361.7c-9.6,0-17.4-7.8-17.4-17.4S89.9,327,99.5,327
		s17.4,7.8,17.4,17.4S109.1,361.7,99.5,361.7z M115.5,307.6H84.2c-2.9,0-5.3-2.4-5.3-5.3s2.4-5.4,5.3-5.4h31.4
		c2.9,0,5.3,2.4,5.3,5.4S118.5,307.6,115.5,307.6z M134.9,302.3c0-2.9,2.4-5.4,5.4-5.4h31.4c2.9,0,5.3,2.4,5.3,5.4s-2.4,5.3-5.3,5.3
		h-31.4C137.3,307.6,134.9,305.2,134.9,302.3z M155.6,361.7c-9.6,0-17.4-7.8-17.4-17.4S146,327,155.6,327s17.4,7.8,17.4,17.4
		S165.3,361.7,155.6,361.7z M173,407.1c0,9.6-7.8,17.4-17.4,17.4s-17.4-7.8-17.4-17.4s7.8-17.4,17.4-17.4S173,397.5,173,407.1z
		 M211.4,488H156c-9.8,0-17.7-8-17.7-17.7s8-17.7,17.7-17.7h55.4c9.8,0,17.7,8,17.7,17.7S221.2,488,211.4,488z M211.7,424.5
		c-9.6,0-17.4-7.8-17.4-17.4s7.8-17.4,17.4-17.4s17.4,7.8,17.4,17.4S221.4,424.5,211.7,424.5z M211.7,361.7
		c-9.6,0-17.4-7.8-17.4-17.4s7.8-17.4,17.4-17.4s17.4,7.8,17.4,17.4S221.4,361.7,211.7,361.7z M227.1,307.6h-31.4
		c-2.9,0-5.4-2.4-5.4-5.3s2.4-5.4,5.4-5.4h31.4c2.9,0,5.4,2.4,5.4,5.4S230,307.6,227.1,307.6z M233.1,280.9H22v-90.2h211.1V280.9z"
		/>
	<path d="M394.9,122.8c-13.8,0-25,11.2-25,25c0,2.7,0.4,5.3,1.2,7.7l-31.1,31c-2.4-0.7-4.9-1.1-7.5-1.1c-1.2,0-2.4,0.1-3.5,0.3
		l-34.6-56.4l0,0c2.1-3.7,3.3-7.9,3.3-12.5c0-13.8-11.2-25-25-25s-25,11.2-25,25c0,0.5,0,1,0,1.5l-32.6,32.6h31.4l12.9-12.9
		c3.8,2.4,8.4,3.8,13.2,3.8c1,0,2.1-0.1,3.1-0.2l34.8,56.7c-2,3.6-3.1,7.7-3.1,12.1c0,13.8,11.2,25,25,25s25-11.2,25-25
		c0-3-0.5-5.8-1.5-8.5l30.5-30.5c2.6,0.9,5.4,1.4,8.3,1.4c13.8,0,25-11.2,25-25C419.8,133.9,408.7,122.8,394.9,122.8z M273.3,125.5
		c-4.8,0-8.7-3.9-8.7-8.7s3.9-8.7,8.7-8.7s8.7,3.9,8.7,8.7S278.1,125.5,273.3,125.5z M333.3,219.5c-4.8,0-8.7-3.9-8.7-8.7
		s3.9-8.7,8.7-8.7c4.8,0,8.7,3.9,8.7,8.7C342,215.5,338.1,219.5,333.3,219.5z M395.3,155.7c-4.8,0-8.7-3.9-8.7-8.7s3.9-8.7,8.7-8.7
		c4.8,0,8.7,3.9,8.7,8.7S400.1,155.7,395.3,155.7z"/>
	<path d="M511.9,329.5c0,3.9-1.6,7.5-4.2,10.1c-2.5,2.6-6.1,4.2-10.1,4.2h-12.3V341H339.9l84.2,154c3.3,6,1.1,13.4-4.8,16.6
		c-5.9,3.2-13.3,1.1-16.5-4.8L330.1,374v74.2c0,6.7-5.4,12.2-12.2,12.2c-6.7,0-12.2-5.5-12.2-12.2v-72.9L254.8,459l-0.1-46.7
		l43.4-71.3h-25.3v-52h154.8V73.9H194.1v76.2h-52V45h-4.8v2.9H125c-8,0-14.4-6.5-14.4-14.4c0-4,1.6-7.6,4.2-10.2
		c2.5-2.6,6.1-4.2,10.1-4.2h12.3v2.8h168.5v-8.5c0-3.4,1.4-6.4,3.6-8.6c2.2-2.2,5.3-3.6,8.6-3.6c6.7,0,12.2,5.5,12.2,12.2v8.5h155
		v-2.8h12.3c8,0,14.4,6.5,14.4,14.4c0,3.9-1.6,7.5-4.2,10.1c-2.5,2.6-6.1,4.2-10.1,4.2h-12.3V45h-5.7v272.9h5.7v-2.8h12.3
		C505.5,315.1,511.9,321.6,511.9,329.5z"/>
</g>
</svg>
