<?xml version="1.0" encoding="utf-8"?>
<!-- Generator: Adobe Illustrator 21.1.0, SVG Export Plug-In . SVG Version: 6.00 Build 0)  -->
<svg version="1.1" id="Layer_1" xmlns="http://www.w3.org/2000/svg" xmlns:xlink="http://www.w3.org/1999/xlink" x="0px" y="0px"
	 viewBox="0 0 412.1 512" style="enable-background:new 0 0 412.1 512;" xml:space="preserve">
<g>
	<path d="M205.2,257.4c40.2,0,79.6,1.3,111,3.5c9.4,0.7,17.4,1.4,24.3,2.1c-1.3,8.4-3,17-4.9,25.7c-6.7,30-16.6,59-28.4,83.7
		c-13.2,27.6-28.4,49.2-45.1,64.2c-16.5,14.8-33.9,22.4-53.1,23.2l-3,0.1c-0.1,0-0.2,0-0.3,0c-0.5,0-1.3,0-2,0l-2.1-0.1
		c-19.2-0.8-36.6-8.4-53.1-23.2c-16.7-14.9-31.9-36.5-45.1-64.2c-11.8-24.7-21.6-53.7-28.4-83.7c-2-8.7-3.6-17.4-4.9-25.7
		c6.8-0.7,14.8-1.4,24.3-2.1C125.6,258.7,165.1,257.4,205.2,257.4 M205.2,205.4c-83.6,0-167.2,5.2-191.1,15.6
		c0,81.9,51,284.9,185.2,290.8c0,0,4.6,0.2,6.5,0.2c0.1,0,0.2,0,0.3,0c1.3,0,5.2-0.1,5.2-0.2c134.1-5.9,185.2-208.9,185.2-290.8
		C372.5,210.6,288.9,205.4,205.2,205.4L205.2,205.4z"/>
	<path d="M202.6,107.9l9.6,0.2c45.6,1.1,86.8,13,116.2,33.7c3.7,2.6,7,5.2,9.9,7.7c-58.8-4.7-128-5.1-146.9-5.1
		c-46.8,0-86,1.3-117.6,3.7c2.2-1.8,4.6-3.7,7.2-5.6c28.2-20.4,68.1-32.6,112.2-34.4L202.6,107.9 M214.4,0
		c-27.2,11.8-26.6,39.7-23.5,56.4C37.6,62.7-33.3,170.3,13.3,210.6c22.7-9.8,98.9-14.1,178.1-14.1c88.4,0,180.5,5.3,205.8,14.1
		c47.2-40.9-26.2-150.7-183.7-154.4c-3.1-13.4,13.7-26.9,24.8-34.3C226,16.5,214.4,0,214.4,0L214.4,0z"/>
</g>
</svg>
