<?xml version="1.0" encoding="utf-8"?>
<!-- Generator: Adobe Illustrator 21.1.0, SVG Export Plug-In . SVG Version: 6.00 Build 0)  -->
<svg version="1.1" id="Layer_1" xmlns="http://www.w3.org/2000/svg" xmlns:xlink="http://www.w3.org/1999/xlink" x="0px" y="0px"
	 viewBox="0 0 416 512" style="enable-background:new 0 0 416 512;" xml:space="preserve">
<path d="M141,93v15v52v21v31.8c0,4.2-0.1,7.7-0.1,11.2h-0.1v52v2h-0.1v52v22v15.6L114,386h-0.8l-13.2,9c-6.5,4.4-12.8,8.7-18,12.2
	V135.4L141,93 M184.5,0.3c-2.4,0-5.2,1.2-8.4,3.4L30,108.8V512c0,0,276.9,0,281.2,0c17.9,0,31.8-13.8,31.8-31c0-4.7,0-212,0-212
	s21,0,27,0c8.8,0,16-7,16-16c0-6.9-0.1-129,0-129c0-9.1-7.2-16-16-16H193c0,0,0-88.9,0-90C193,6,189.9,0.3,184.5,0.3L184.5,0.3z
	 M342.5,157.7v-12.5h26.8v12.5H342.5L342.5,157.7z M193,181c0-9.4,0-21,0-21h98v300l-194.1-0.1c0,0,15.2-10.3,32.3-21.9H266v-32
	h-89.4c7.4-5.1,11.5-13.1,13.8-22H267v-32h-74.3c0-5.7,0-13.2,0-22H266v-32h-73.2c0-7.1,0-14.5,0-22H266v-32h-73.1
	c0-13,0-19.7,0.1-31h44v-32H193L193,181z M342.5,184.7v-12.5h26.8v12.5H342.5L342.5,184.7z M342.5,210.8v-12.5h26.8v12.5H342.5
	L342.5,210.8z M342.5,237.3v-12.5h26.8v12.5H342.5L342.5,237.3z"/>
</svg>
