<?xml version="1.0" encoding="utf-8"?>
<!-- Generator: Adobe Illustrator 21.1.0, SVG Export Plug-In . SVG Version: 6.00 Build 0)  -->
<svg version="1.1" id="_x33_2" xmlns="http://www.w3.org/2000/svg" xmlns:xlink="http://www.w3.org/1999/xlink" x="0px" y="0px"
	 viewBox="0 0 578 512" style="enable-background:new 0 0 578 512;" xml:space="preserve">
<g id="_x35_2">
	<path d="M556.4,21.6H21.7C10.6,21.6,0,32.2,0,45.2v421.1c0,13,10.6,23.7,23.7,23.7h530.7c13,0,23.6-10.6,23.6-23.7V45.2
		C578,32.2,567.4,21.6,556.4,21.6z M526,438H52V73.6h474V438z"/>
	<rect x="296.3" y="309.2" width="199.9" height="43.2"/>
	<rect x="296.3" y="231.8" width="199.9" height="43.2"/>
	<rect x="296.3" y="154.4" width="199.9" height="43.2"/>
	<path d="M231,289.1c-11.9-5.7-26.6-10.8-26.6-10.8c0.6-3-4.8-8.4-6.8-10.3v-7.9c0,0,19.1-21,22-47.3c0.2-0.9,8.9-58.6-45.2-58.6
		c-54.3,0-45.7,57.6-45.6,58.6c1.4,13.2,7,25,12.1,33.5c5.1,8.6,9.9,13.8,9.9,13.8v8.2c-6,5.7-7.2,10.2-7.2,10
		c0,0-12.5,4.5-24.5,9.2c-12,4.7-39.7,14.5-39.7,41.2c0,37.8,95,35.2,95,35.2s94.8,3.2,94.8-35C269.1,300.6,242.9,294.9,231,289.1z"
		/>
</g>
</svg>
