<?xml version="1.0" encoding="utf-8"?>
<!-- Generator: Adobe Illustrator 21.1.0, SVG Export Plug-In . SVG Version: 6.00 Build 0)  -->
<svg version="1.1" id="Layer_2" xmlns="http://www.w3.org/2000/svg" xmlns:xlink="http://www.w3.org/1999/xlink" x="0px" y="0px"
	 viewBox="0 0 512 512" style="enable-background:new 0 0 512 512;" xml:space="preserve">
<g id="_x35_2">
	<path d="M500.1,475.7l-60.4-60.4c25.3-36.3,40.2-80.4,40.2-128c0-123.8-100.3-224-224-224s-224,100.3-224,224
		c0,48.7,15.5,93.7,41.9,130.4l-57.6,57.6c-13.4,13.4-4,36.2,14.9,36.2l26.1,0.1c8,0,15.7-3.1,21.3-8.8l39.2-39.2
		c38.1,29.9,86,47.7,138.2,47.7c53.2,0,102-18.5,140.5-49.5l41.1,41.1c5.5,5.6,13.1,8.7,21,8.8l26.5,0.2
		C503.9,512,513.5,489.1,500.1,475.7z M255.9,459.5c-95.1,0-172.2-77.1-172.2-172.2s77.1-172.2,172.2-172.2s172.2,77.1,172.2,172.2
		S351,459.5,255.9,459.5z"/>
	<path d="M485.9,26.1c-34.8-34.8-91.3-34.8-126.1,0l126.1,126.1C520.7,117.4,520.7,60.9,485.9,26.1z M405.2,285.5l2.9-3.3
		c0.6-0.7,0.8-1.3,0.8-2.3v-0.6c0-1.2-0.7-1.9-1.9-1.9h-9.7c-1.3,0-1.9,0.7-1.9,1.9v1.5c0,1.2,0.7,1.9,1.9,1.9h2.1
		c1.4,0,2.1-0.2,2.1-0.2v0.1c0,0-0.9,0.8-2,2.2l-0.9,1.2c-0.7,0.9-0.9,1.7-0.5,2.5l0.2,0.3c0.5,1,1,1.3,2,1.3h0.8
		c1.7,0,2.6,0.4,2.6,1.5c0,0.8-0.7,1.4-2.4,1.4c-0.8,0-1.6-0.2-2.4-0.5c-1.1-0.7-2-0.6-2.6,0.5l-0.9,1.5c-0.6,1-0.6,2,0.7,2.5
		c1.2,0.8,3.1,1.6,5.9,1.6c5.6,0,8-3.8,8-7.3C410,288.9,408.4,286.3,405.2,285.5z M330.7,282h-55.8v-85.3c0-7.2-5.8-13-13-13h-18.7
		c-7.2,0-13,5.8-13,13L230,311.5c0,8.8,7.1,16,16,16h84.7c7.2,0,13-5.8,13-13V295C343.7,287.8,337.9,282,330.7,282z M258,423.3
		c-1.7,0-2.7,0.6-2.7,0.6h-0.1c0.7-1.5,1.8-2.3,3.9-2.3c0.4,0,0.6,0,1.1,0.1c1.1,0.1,1.8,0.1,2.2-1.3l0.5-1.7c0.3-1.2,0-2.1-1.2-2.4
		c-0.7-0.2-2-0.3-3-0.3c-6.6,0-10.4,5.6-10.3,11.7c0,6.9,4.7,9.8,8.8,9.8c4.9,0,7.3-4.2,7.3-7.6C264.5,426.7,262.2,423.3,258,423.3z
		 M256.9,432.2c-1.1,0-2.3-1.3-2.3-2.9c0-1,0.4-1.1,1.2-1.1c2.3,0,2.6,1.5,2.6,2.2C258.4,431.5,257.8,432.2,256.9,432.2z M26.1,26.1
		c-34.8,34.8-34.8,91.3,0,126.1L152.2,26.1C117.4-8.7,60.9-8.7,26.1,26.1z M109.6,276.5c-4.9,0-7.3,4.2-7.3,7.6
		c0,3.2,2.3,6.6,6.5,6.6c1.7,0,2.7-0.6,2.7-0.6h0.1c-0.7,1.5-1.8,2.3-3.9,2.3c-0.4,0-0.6,0-1.1-0.1c-1.1-0.2-1.8-0.1-2.2,1.3
		l-0.5,1.7c-0.3,1.2,0,2.1,1.2,2.4c0.7,0.2,2,0.3,3,0.3c6.5,0,10.3-5.5,10.3-11.7C118.4,279.4,113.7,276.5,109.6,276.5z
		 M110.9,285.9c-2.4,0-2.6-1.5-2.6-2.3c0-1.1,0.6-1.8,1.5-1.8c1.1,0,2.3,1.3,2.3,3C112.1,285.8,111.7,285.9,110.9,285.9z
		 M253.2,142.1h-2.5v-13.7c0-1.3-0.7-1.9-1.9-1.9h-2c-0.9,0-1.6,0.2-2.3,0.9l-3.5,3.2c-0.9,0.9-1,1.8-0.1,2.7l0.9,1
		c0.9,0.9,1.9,0.9,2.6,0.2c0.2-0.2,0.5-0.6,0.5-0.6h0.1c0,0-0.1,0.9-0.1,1.7v6.5h-2.5c-1.3,0-1.9,0.7-1.9,1.9h-0.2v1.5
		c0,1.2,0.7,1.9,1.9,1.9h11c1.3,0,1.9-0.7,1.9-1.9V144C255.1,142.8,254.4,142.1,253.2,142.1z M269.3,141.9h-6.5
		c0.4-1.7,8.1-3,8.1-9.4c0-4.9-4.2-6.6-7.4-6.6c-3.5,0-5.6,1.6-6.7,3.1c-0.7,1-0.5,1.8,0.5,2.6l1.4,1.1c1,0.8,1.9,0.4,2.7-0.4
		c0.5-0.4,1.1-0.6,1.6-0.6s1.5,0.3,1.5,1.5c0,2.2-8.4,3.7-8.4,11.5H256v0.6c0,1.2,0.8,1.9,2,1.9h11.3c1.2,0,1.9-0.7,1.9-1.9v-1.5
		C271.2,142.6,270.5,141.9,269.3,141.9z"/>
</g>
</svg>
