<?xml version="1.0" encoding="utf-8"?>
<!-- Generator: Adobe Illustrator 21.1.0, SVG Export Plug-In . SVG Version: 6.00 Build 0)  -->
<svg version="1.1" id="Layer_2" xmlns="http://www.w3.org/2000/svg" xmlns:xlink="http://www.w3.org/1999/xlink" x="0px" y="0px"
	 viewBox="0 0 512 512" style="enable-background:new 0 0 512 512;" xml:space="preserve">
<g id="_x35_2">
	<path d="M255.9,63.3c-123.7,0-224,100.3-224,224c0,48.7,15.5,93.7,41.9,130.5l-57.6,57.6c-13.3,13.3-3.9,36.1,15,36.2l26.1,0.1h0.1
		c8,0,15.6-3.2,21.2-8.8l39.2-39.2c38.1,29.9,86.1,47.7,138.2,47.7c53.2,0,102.1-18.5,140.5-49.5l41.1,41.1c5.6,5.6,13.1,8.8,21,8.8
		l26.5,0.2c0.1,0,0.1,0,0.2,0c18.8,0,28.3-22.8,15-36.2l-60.4-60.4c25.3-36.3,40.2-80.5,40.2-128.1
		C479.9,163.6,379.6,63.3,255.9,63.3L255.9,63.3z M255.9,459.6c-95.1,0-172.2-77.1-172.2-172.2s77.1-172.2,172.2-172.2
		s172.2,77.1,172.2,172.2C428.1,382.5,351,459.6,255.9,459.6L255.9,459.6z"/>
	<path d="M152.2,26.1L26.1,152.2c-34.8-34.8-34.8-91.3,0-126.1S117.4-8.7,152.2,26.1z"/>
	<path d="M485.9,152.2L359.8,26.1c34.8-34.8,91.3-34.8,126.1,0S520.7,117.4,485.9,152.2z"/>
	<polygon points="380.5,313.7 281.5,313.7 281.5,412.8 229.5,412.8 229.5,313.7 130.3,313.7 130.3,261.7 229.5,261.7 229.5,162.6 
		281.5,162.6 281.5,261.7 380.5,261.7 	"/>
</g>
</svg>
