<?xml version="1.0" encoding="utf-8"?>
<!-- Generator: Adobe Illustrator 19.0.0, SVG Export Plug-In . SVG Version: 6.00 Build 0)  -->
<svg version="1.1" id="Layer_1" focusable="false" xmlns="http://www.w3.org/2000/svg" xmlns:xlink="http://www.w3.org/1999/xlink"
	 x="0px" y="0px" viewBox="64 0 640 512" style="enable-background:new 64 0 640 512;" xml:space="preserve">
<g id="_x35_2">
	<path d="M475.2,426.5H160v52h381.2L475.2,426.5z M306.3,293.5H160v52h212.3L306.3,293.5z M161,179v38.5h48.9L161,179z"/>
	<path d="M701.7,484.3l-25.4,25.4c-2.9,2.9-7.4,3.1-10.6,0.6L67,39.7c-3.8-3-4.1-8.5-0.7-11.9L91.7,2.3c2.9-2.9,7.4-3.1,10.6-0.6
		L160,46.7V31.5h448.7v52h-402l104.1,82h297.9v52H376.8l96.5,76h135.4v52h-69.4L701,472.3C704.7,475.3,705,480.9,701.7,484.3z"/>
</g>
</svg>
