<?xml version="1.0" encoding="utf-8"?>
<!-- Generator: Adobe Illustrator 21.1.0, SVG Export Plug-In . SVG Version: 6.00 Build 0)  -->
<svg version="1.1" id="Layer_1" xmlns="http://www.w3.org/2000/svg" xmlns:xlink="http://www.w3.org/1999/xlink" x="0px" y="0px"
	 viewBox="0 0 703 512" style="enable-background:new 0 0 703 512;" xml:space="preserve">
<g>
	<g>
		<path d="M539.7,366.6c-40.2,0-72.7,32.6-72.7,72.7s32.6,72.7,72.7,72.7s72.7-32.6,72.7-72.7S579.8,366.6,539.7,366.6z
			 M539.7,474.9c-19.7,0-35.6-15.9-35.6-35.6s15.9-35.6,35.6-35.6s35.6,15.9,35.6,35.6S559.3,474.9,539.7,474.9z"/>
	</g>
	<g>
		<path d="M149.4,366.6c-40.2,0-72.7,32.6-72.7,72.7s32.6,72.7,72.7,72.7s72.7-32.6,72.7-72.7C222.1,399.2,189.6,366.6,149.4,366.6z
			 M149.4,474.9c-19.7,0-35.6-15.9-35.6-35.6s15.9-35.6,35.6-35.6s35.6,15.9,35.6,35.6S169.1,474.9,149.4,474.9z"/>
	</g>
	<path d="M440,53v68.2h0.1v91.5v52h52h136.5c-0.1,22-0.2,32.4-0.3,59c-23.4-18.4-53.4-30-88.7-30c-67.6,0-115.8,42.6-135.6,93.5
		c-41.2,0-47.9,0.1-118.6,0.1c-21-54.7-74-93.6-136-93.6c-33.2,0-63.9,11.2-88.4,30L60.8,53H440 M468.6,1H32.3
		c-6.5,0-12.1,2.4-16.7,7.2S8.8,18.5,8.8,24.8L9,422.4c-5,0-9,3-9,7.9s4,9,9,9h46.8c0-54.8,44.1-93.6,93.6-93.6
		c49.6,0,93.6,40.6,93.6,93.6c131.9,0,203-0.1,203-0.1c0-41.1,31.6-93.5,93.6-93.5c59.3,0,93.4,50.4,93.4,93.5
		c0,0,34.6,0.1,47.1,0.1s22.9-12.6,22.9-24.9s-10.9-22.9-22.9-22.9c0-0.7,0.5-153.3,0.6-159.9c0-27.5-1.2-47.9-16.9-63.6l-72.4-81.4
		c-4.9-5-11.2-9.1-18.9-12.4c-6.8-2.9-13.2-4.6-19.1-4.9V54.9c0-5.8-4.7-10.5-10.4-10.5h-8.8c-5.8,0-10.4,4.7-10.4,10.5v14.4H492
		V24.8c0-6.3-2.3-11.8-6.8-16.6S475.1,1,468.6,1L468.6,1z M492.1,212.7V100.6h58.3c7.2,0,12.3,0.9,15.2,2.7v6.6l-1.9-0.9l-1,1
		c-0.3,1-0.5,2.2-0.5,3.5s0.2,2.5,0.5,3.5l1,1l5.9,3.5c0.3,0,0.6-0.5,1-1.5c0.3-1,0.5-2,0.5-3c0-1.3-0.2-2.5-0.5-3.5
		c-0.3-0.7-1.1-1.5-2.4-2.5l-1.5-0.7V104l79.8,89.3c2.6,2.3,3.9,5.1,3.9,8.4v11H492.1L492.1,212.7z"/>
	<g>
		<path d="M226.2,63c11.2,15.8,17.8,35.1,17.8,56c0,53.6-43.4,97-97,97c-30.8,0-58.3-14.4-76.1-36.8c0,2.7,0,62.9,0,66.8
			c22.2,13.4,48.3,21,76.1,21c81.7,0,148-66.3,148-148c0-19.8-3.9-38.7-11-56C283.5,63,227.1,63,226.2,63z"/>
	</g>
	<g>
		<polygon points="211,106 171.3,106 171.3,66.4 129.6,66.4 129.6,106 90,106 90,147.8 129.6,147.8 129.6,187.4 171.3,187.4 
			171.3,147.8 211,147.8 		"/>
	</g>
	<rect x="536.4" y="20.5" width="4.5" height="14.2"/>
	<rect x="553.6" y="38.8" transform="matrix(0.7071 -0.7071 0.7071 0.7071 135.3957 409.0455)" width="15.8" height="4.5"/>
	<rect x="513.7" y="33.2" transform="matrix(0.7071 -0.7071 0.7071 0.7071 122.0411 376.8697)" width="4.5" height="15.8"/>
</g>
</svg>
