<?xml version="1.0" encoding="utf-8"?>
<!-- Generator: Adobe Illustrator 21.1.0, SVG Export Plug-In . SVG Version: 6.00 Build 0)  -->
<svg version="1.1" id="_x33_2" xmlns="http://www.w3.org/2000/svg" xmlns:xlink="http://www.w3.org/1999/xlink" x="0px" y="0px"
	 viewBox="0 0 512 512" style="enable-background:new 0 0 512 512;" xml:space="preserve">
<g>
	<ellipse cx="257.5" cy="86" rx="11.2" ry="11"/>
	<path d="M372.8,329.5l5.3,5.1l47.5,46.4l-9.9,9.2c-14.1,13.3-30.4,24.5-48.3,33.4c-18,8.9-41.7,15.6-70.5,20.1
		c-6.9,1.1-13.1-4.2-13.1-11V245.8h82.3V201h-82.3v-31.9c35.5-10.7,61.4-42.3,62-80.6c0.8-46.8-36.7-86.2-84.1-88.4
		C211-2.3,169,37.6,169,87c0,39,26.1,71.3,62.1,82.1V201h-84.3v44.8h84.3V433c0,6.8-6.2,12.1-13.1,11l-2-0.3
		c-30.2-4.6-54.4-11.4-71.7-20.1c-18.5-9.3-35.4-21.2-50.3-35.3l-9.4-9l43.4-44.9l4.9-5.1H1V466l5.4-6.3l38-44.8l10.3,10
		c20.9,20.6,47.6,37.7,79.2,50.7l0,0h0.1c35.6,14.3,74.3,22,115.2,22.7l5.3,14.7h6.1l5.4-14.7c39.5-1.1,77.1-8.7,111.9-22.6h0.1
		c31.5-13.1,58.1-30.3,79-50.9l10.1-9.9l39.6,45l5.4,6.1V329.5H372.8z M257.5,121c-19.6,0-35.6-15.7-35.6-35s15.9-35,35.6-35
		s35.6,15.7,35.6,35S277.1,121,257.5,121z"/>
</g>
</svg>
