<?xml version="1.0" encoding="utf-8"?>
<!-- Generator: Adobe Illustrator 21.1.0, SVG Export Plug-In . SVG Version: 6.00 Build 0)  -->
<svg version="1.1" id="Shape_1_1_" xmlns="http://www.w3.org/2000/svg" xmlns:xlink="http://www.w3.org/1999/xlink" x="0px" y="0px"
	 viewBox="0 0 512 512" style="enable-background:new 0 0 512 512;" xml:space="preserve">
<g>
	<g>
		<path d="M0,256c0,141.4,114.6,256,256,256s256-114.6,256-256S397.4,0,256,0S0,114.6,0,256z M460.8,256
			c0,113.1-91.7,204.8-204.8,204.8S51.2,369.1,51.2,256S142.9,51.2,256,51.2S460.8,142.9,460.8,256z"/>
		<polygon points="421.6,316.6 261.8,158.2 101,316.6 181.3,316.6 261.8,236.1 340,316.6 		"/>
		<polygon points="217.7,316.6 251.4,316.6 261.5,306.5 270.6,316.6 304.8,316.6 261.5,273.8 		"/>
	</g>
</g>
</svg>
