<?xml version="1.0" encoding="utf-8"?>
<!-- Generator: Adobe Illustrator 21.1.0, SVG Export Plug-In . SVG Version: 6.00 Build 0)  -->
<svg version="1.1" id="Shape_1_1_" xmlns="http://www.w3.org/2000/svg" xmlns:xlink="http://www.w3.org/1999/xlink" x="0px" y="0px"
	 viewBox="0 0 512 512" style="enable-background:new 0 0 512 512;" xml:space="preserve">
<style type="text/css">
	.st0{fill:#2E9BE5;}
</style>
<g>
	<path d="M256.5,460.5c-54.5,0-105.7-21.2-144.3-59.7C73.7,362.2,52.5,311,52.5,256.5s21.2-105.7,59.7-144.3
		c38.5-38.5,89.8-59.7,144.3-59.7s105.7,21.2,144.3,59.7c38.5,38.5,59.7,89.8,59.7,144.3s-21.2,105.7-59.7,144.3
		C362.2,439.3,311,460.5,256.5,460.5 M256.5,512.5c141.4,0,256-114.6,256-256s-114.6-256-256-256s-256,114.6-256,256
		S115.1,512.5,256.5,512.5L256.5,512.5z"/>
	<g>
		<polygon class="st0" points="145.1,238.7 145.1,165.8 256.5,280 367.5,165.9 367.5,238.7 256.3,349.9 		"/>
		<polygon points="145.1,165.8 145.1,238.7 256.3,349.9 367.5,238.7 367.5,165.9 256.5,280 		"/>
	</g>
</g>
</svg>
