<?xml version="1.0" encoding="utf-8"?>
<!-- Generator: Adobe Illustrator 21.1.0, SVG Export Plug-In . SVG Version: 6.00 Build 0)  -->
<svg version="1.1" id="Shape_1_1_" xmlns="http://www.w3.org/2000/svg" xmlns:xlink="http://www.w3.org/1999/xlink" x="0px" y="0px"
	 viewBox="0 0 512 512" style="enable-background:new 0 0 512 512;" xml:space="preserve">
<style type="text/css">
	.st0{fill:#2E9BE5;}
</style>
<g>
	<path d="M256.5,52.5c54.5,0,105.7,21.2,144.3,59.7c38.5,38.5,59.7,89.8,59.7,144.3s-21.2,105.7-59.7,144.3
		c-38.5,38.5-89.8,59.7-144.3,59.7s-105.7-21.2-144.3-59.7C73.7,362.2,52.5,311,52.5,256.5s21.2-105.7,59.7-144.3
		C150.8,73.7,202,52.5,256.5,52.5 M256.5,0.5c-141.4,0-256,114.6-256,256s114.6,256,256,256s256-114.6,256-256S397.9,0.5,256.5,0.5
		L256.5,0.5z"/>
	<g>
		<polygon class="st0" points="367.9,274.3 367.9,347.2 256.5,233 145.5,347.1 145.5,274.3 256.7,163.1 		"/>
		<polygon points="256.7,163.1 145.5,274.3 145.5,347.1 256.5,233 367.9,347.2 367.9,274.3 256.7,163.1 		"/>
	</g>
</g>
</svg>
