<?xml version="1.0" encoding="utf-8"?>
<!-- Generator: Adobe Illustrator 21.1.0, SVG Export Plug-In . SVG Version: 6.00 Build 0)  -->
<svg version="1.1" id="Shape_1_1_" xmlns="http://www.w3.org/2000/svg" xmlns:xlink="http://www.w3.org/1999/xlink" x="0px" y="0px"
	 viewBox="0 0 512 512" style="enable-background:new 0 0 512 512;" xml:space="preserve">
<style type="text/css">
	.st0{fill:#2E9BE5;}
</style>
<g>
	<path d="M460.5,256.5c0,54.5-21.2,105.7-59.7,144.3c-38.5,38.5-89.8,59.7-144.3,59.7s-105.7-21.2-144.3-59.7
		C73.7,362.2,52.5,311,52.5,256.5s21.2-105.7,59.7-144.3c38.5-38.5,89.8-59.7,144.3-59.7s105.7,21.2,144.3,59.7
		C439.3,150.8,460.5,202,460.5,256.5 M512.5,256.5c0-141.4-114.6-256-256-256s-256,114.6-256,256s114.6,256,256,256
		S512.5,397.9,512.5,256.5L512.5,256.5z"/>
	<g>
		<polygon class="st0" points="238.7,367.9 165.8,367.9 280,256.5 165.9,145.5 238.7,145.5 349.9,256.7 		"/>
		<polygon points="238.7,145.5 165.9,145.5 280,256.5 165.8,367.9 238.7,367.9 349.9,256.7 238.7,145.5 		"/>
	</g>
</g>
</svg>
