<?xml version="1.0" encoding="utf-8"?>
<!-- Generator: Adobe Illustrator 21.1.0, SVG Export Plug-In . SVG Version: 6.00 Build 0)  -->
<svg version="1.1" id="Shape_1_1_" xmlns="http://www.w3.org/2000/svg" xmlns:xlink="http://www.w3.org/1999/xlink" x="0px" y="0px"
	 viewBox="0 0 512 512" style="enable-background:new 0 0 512 512;" xml:space="preserve">
<g>
	<g>
		<path d="M512,256C512,114.6,397.4,0,256,0S0,114.6,0,256s114.6,256,256,256S512,397.4,512,256z M51.2,256
			c0-113.1,91.7-204.8,204.8-204.8S460.8,142.9,460.8,256S369.1,460.8,256,460.8S51.2,369.1,51.2,256z"/>
		<polygon points="90.4,195.4 250.2,353.8 411,195.4 330.7,195.4 250.2,275.9 172,195.4 		"/>
		<polygon points="294.3,195.4 260.6,195.4 250.5,205.5 241.4,195.4 207.2,195.4 250.5,238.2 		"/>
	</g>
</g>
</svg>
