<?xml version="1.0" encoding="utf-8"?>
<!-- Generator: Adobe Illustrator 21.1.0, SVG Export Plug-In . SVG Version: 6.00 Build 0)  -->
<svg version="1.1" id="Shape_1_1_" xmlns="http://www.w3.org/2000/svg" xmlns:xlink="http://www.w3.org/1999/xlink" x="0px" y="0px"
	 viewBox="0 0 512 512" style="enable-background:new 0 0 512 512;" xml:space="preserve">
<g>
	<g>
		<path d="M256,512c141.4,0,256-114.6,256-256S397.4,0,256,0S0,114.6,0,256S114.6,512,256,512z M256,51.2
			c113.1,0,204.8,91.7,204.8,204.8S369.1,460.8,256,460.8S51.2,369.1,51.2,256S142.9,51.2,256,51.2z"/>
		<polygon points="316.6,90.4 158.2,250.2 316.6,411 316.6,330.7 236.1,250.2 316.6,172 		"/>
		<polygon points="316.6,294.3 316.6,260.6 306.5,250.5 316.6,241.4 316.6,207.2 273.8,250.5 		"/>
	</g>
</g>
</svg>
