<?xml version="1.0" encoding="utf-8"?>
<!-- Generator: Adobe Illustrator 21.1.0, SVG Export Plug-In . SVG Version: 6.00 Build 0)  -->
<svg version="1.1" id="Layer_5" xmlns="http://www.w3.org/2000/svg" xmlns:xlink="http://www.w3.org/1999/xlink" x="0px" y="0px"
	 viewBox="0 0 512 512" style="enable-background:new 0 0 512 512;" xml:space="preserve">
<style type="text/css">
	.st0{fill:#010101;}
</style>
<path class="st0" d="M512,153.6V0H0v153.6h25.7v134.6H5.8v51.2h19.9v123.7H0v51.2h204.9V339.4h19.9v-51.2h-19.9v-83.4
	c0-28.3,22.9-51.2,51.2-51.2c28.3,0,51.2,22.9,51.2,51.2v83.4h-19.9v51.2h19.9v174.9H512v-51.2h-25.4V339.4h19.9v-51.2h-19.9V153.6
	H512z M153.6,463.2H76.9V339.4h76.7V463.2z M153.6,204.8v83.4H76.9V153.6h91.1C159.1,168.8,153.6,186.1,153.6,204.8z M51.2,102.4
	V51.2h409.6v51.2H51.2z M344.2,153.6h91.1v134.6h-76.9v-83.4C358.4,186.1,352.9,168.8,344.2,153.6z M358.4,463.2V339.4h76.7v123.7
	H358.4z"/>
</svg>
