<?xml version="1.0" encoding="utf-8"?>
<!-- Generator: Adobe Illustrator 19.0.0, SVG Export Plug-In . SVG Version: 6.00 Build 0)  -->
<svg version="1.1" id="Layer_1" xmlns="http://www.w3.org/2000/svg" xmlns:xlink="http://www.w3.org/1999/xlink" x="0px" y="0px"
	 viewBox="76.2 0 449.9 512" style="enable-background:new 76.2 0 449.9 512;" xml:space="preserve">
<path id="_x35_2_1_" d="M144.2,257.6l106.7-100.7l0.1,75.2h223v50.2H250.7v75.1L144.2,257.6 M76.2,257.3c0,4.2,1.6,8.4,4.8,11.5
	c31.4,31.3,149,139.3,194.1,183.4c3.3,3.2,7.3,4.7,11.3,4.7c8.4,0,16.4-6.5,16.4-16.3V334.3H526l0-154.2H302.9l-0.2-106
	c-0.1-9.8-8.1-16.2-16.4-16.2c-4,0-8,1.5-11.3,4.7L81,245.7C77.8,248.9,76.2,253.1,76.2,257.3L76.2,257.3z"/>
</svg>
