<?xml version="1.0" encoding="utf-8"?>
<!-- Generator: Adobe Illustrator 19.0.0, SVG Export Plug-In . SVG Version: 6.00 Build 0)  -->
<svg version="1.1" id="Layer_1" xmlns="http://www.w3.org/2000/svg" xmlns:xlink="http://www.w3.org/1999/xlink" x="0px" y="0px"
	 viewBox="52 0 482 512" style="enable-background:new 52 0 482 512;" xml:space="preserve">
<g id="_x35_2">
	<path d="M308,187.1l0,3.4l0.4,51.6H360h122v28.1H359h-52v52v2.3c-6.9-6.5-13.9-13.1-20.9-19.7c-18-16.9-36.2-34.1-51.3-48.4
		L308,187.1 M345.2,85.3c-3.4,0-6.9,1.3-9.7,4.1L170,246.2c-5.5,5.4-5.5,14.3,0,19.8c26.9,26.8,126.8,119.3,165.4,157
		c2.8,2.8,6.3,4,9.7,4c7.2,0,14.1-5.6,14.1-14v-91h175V190H360l-0.8-90.8C359.2,90.9,352.4,85.3,345.2,85.3L345.2,85.3z"/>
	<rect x="52" y="67.3" width="52" height="378"/>
</g>
</svg>
