<?xml version="1.0" encoding="utf-8"?>
<!-- Generator: Adobe Illustrator 19.0.0, SVG Export Plug-In . SVG Version: 6.00 Build 0)  -->
<svg version="1.1" id="Layer_2" xmlns="http://www.w3.org/2000/svg" xmlns:xlink="http://www.w3.org/1999/xlink" x="0px" y="0px"
	 viewBox="78 141 256 512" style="enable-background:new 78 141 256 512;" xml:space="preserve">
<path id="_x35_2" d="M232.1,237.7l68.5,68.5l31.1-31.1c3.1-3.1,3.1-8.2,0-11.3L211.8,143.9c-3.1-3.1-8.2-3.1-11.3,0L80.4,264
	c-3.1,3.1-3.1,8.2,0,11.3l31.1,31.1l68.7-68.7v319.9l-68.7-68.7L80.4,520c-3.1,3.1-3.1,8.2,0,11.3l119.8,119.8
	c3.1,3.1,8.2,3.1,11.3,0l120.2-120.2c3.1-3.1,3.1-8.2,0-11.3l-31.1-31.1L232.1,557V237.7z"/>
</svg>
