<?xml version="1.0" encoding="utf-8"?>
<!-- Generator: Adobe Illustrator 19.0.0, SVG Export Plug-In . SVG Version: 6.00 Build 0)  -->
<svg version="1.1" id="Layer_2" xmlns="http://www.w3.org/2000/svg" xmlns:xlink="http://www.w3.org/1999/xlink" x="0px" y="0px"
	 viewBox="0 0 512 512" style="enable-background:new 0 0 512 512;" xml:space="preserve">
<path id="_x35_2" d="M402.3,357.5c3.1,3.1,8.2,3.1,11.3,0l96-96c3.1-3.1,3.1-8.2,0-11.3l-96-96c-3.1-3.1-8.2-3.1-11.3,0l-31.1,31.1
	l38.1,38.1h-126V96.2l44.6,44.6l31.1-31.1c3.1-3.1,3.1-8.2,0-11.3l-96-96c-3.1-3.1-8.2-3.1-11.3,0l-96,96c-3.1,3.1-3.1,8.2,0,11.3
	l31.1,31.1l44.6-44.6v127.2H103.1l37.7-37.7l-31.1-31.1c-3.1-3.1-8.2-3.1-11.3,0l-96,96c-3.1,3.1-3.1,8.2,0,11.3l96,96
	c3.1,3.1,8.2,3.1,11.3,0l31.1-31.1l-51.4-51.4h142v140.7l-44.9-44.9l-31.1,31.1c-3.1,3.1-3.1,8.2,0,11.3l96,96
	c3.1,3.1,8.2,3.1,11.3,0l96-96c3.1-3.1,3.1-8.2,0-11.3l-31.1-31.1l-44.3,44.3v-140h139l-51.1,51.1L402.3,357.5z"/>
</svg>
