<?xml version="1.0" encoding="utf-8"?>
<!-- Generator: Adobe Illustrator 19.0.0, SVG Export Plug-In . SVG Version: 6.00 Build 0)  -->
<svg version="1.1" id="Layer_1" xmlns="http://www.w3.org/2000/svg" xmlns:xlink="http://www.w3.org/1999/xlink" x="0px" y="0px"
	 viewBox="52 0 482 512" style="enable-background:new 52 0 482 512;" xml:space="preserve">
<g id="_x35_2">
	<path d="M391.8,325.5l0-3.4l-0.4-51.6h-51.6h-122v-28.1h123h52v-52v-2.3c6.9,6.5,13.9,13.1,20.9,19.7c18,16.9,36.2,34.1,51.3,48.4
		L391.8,325.5 M354.6,427.3c3.4,0,6.9-1.3,9.7-4.1l165.5-156.8c5.5-5.4,5.5-14.3,0-19.8c-26.9-26.8-126.8-119.3-165.4-157
		c-2.8-2.8-6.3-4-9.7-4c-7.2,0-14.1,5.6-14.1,14v91h-175v132.1h174l0.8,90.8C340.6,421.7,347.5,427.3,354.6,427.3L354.6,427.3z"/>
	<rect x="52" y="67.3" width="52" height="378"/>
</g>
</svg>
