<?xml version="1.0" encoding="utf-8"?>
<!-- Generator: Adobe Illustrator 19.0.0, SVG Export Plug-In . SVG Version: 6.00 Build 0)  -->
<svg version="1.1" id="Layer_1" xmlns="http://www.w3.org/2000/svg" xmlns:xlink="http://www.w3.org/1999/xlink" x="0px" y="0px"
	 viewBox="101.6 0 399 512" style="enable-background:new 101.6 0 399 512;" xml:space="preserve">
<path id="_x35_2_1_" d="M301.3,414.3L200.6,307.6l75.2-0.1v-223H326v223.3h75.1L301.3,414.3 M301,482.3c4.2,0,8.4-1.6,11.5-4.8
	c31.3-31.4,139.3-149,183.4-194.1c3.2-3.3,4.7-7.3,4.7-11.3c0-8.4-6.5-16.4-16.3-16.4H378V32.4H223.8v223.1l-106,0.2
	c-9.8,0.1-16.2,8.1-16.2,16.4c0,4,1.5,8,4.7,11.3l183.1,194C292.6,480.7,296.8,482.3,301,482.3L301,482.3z"/>
</svg>
