<?xml version="1.0" encoding="utf-8"?>
<!-- Generator: Adobe Illustrator 19.0.0, SVG Export Plug-In . SVG Version: 6.00 Build 0)  -->
<svg version="1.1" id="Layer_2" xmlns="http://www.w3.org/2000/svg" xmlns:xlink="http://www.w3.org/1999/xlink" x="0px" y="0px"
	 viewBox="-50.3 141 512 512" style="enable-background:new -50.3 141 512 512;" xml:space="preserve">
<path id="_x35_2" d="M365.5,423.4l-68.5,68.5L328,523c3.1,3.1,8.2,3.1,11.3,0l119.9-119.9c3.1-3.1,3.1-8.2,0-11.3L339.1,271.7
	c-3.1-3.1-8.2-3.1-11.3,0l-31.1,31.1l68.7,68.7H45.6l68.7-68.7l-31.1-31.1c-3.1-3.1-8.2-3.1-11.3,0L-47.9,391.5
	c-3.1,3.1-3.1,8.2,0,11.3L72.2,523c3.1,3.1,8.2,3.1,11.3,0l31.1-31.1l-68.5-68.5H365.5z"/>
</svg>
