<?xml version="1.0" encoding="utf-8"?>
<!-- Generator: Adobe Illustrator 19.0.0, SVG Export Plug-In . SVG Version: 6.00 Build 0)  -->
<svg version="1.1" id="Layer_1" xmlns="http://www.w3.org/2000/svg" xmlns:xlink="http://www.w3.org/1999/xlink" x="0px" y="0px"
	 viewBox="104 0 378 512" style="enable-background:new 104 0 378 512;" xml:space="preserve">
<g id="_x35_2">
	<path d="M223.8,355.1l3.4,0l51.6-0.4v-51.6v-122h28.1v123v52h52h2.3C354.6,363,348,370,341.4,377c-16.9,18-34.1,36.2-48.4,51.3
		L223.8,355.1 M122,317.9c0,3.4,1.3,6.9,4.1,9.7l156.8,165.5c5.4,5.5,14.3,5.5,19.8,0c26.8-26.9,119.3-126.8,157-165.4
		c2.8-2.8,4-6.3,4-9.7c0-7.2-5.6-14.1-14-14.1h-91v-175H226.7v174l-90.8,0.8C127.6,303.9,122,310.8,122,317.9L122,317.9z"/>
	<rect x="104" y="15.3" width="378" height="52"/>
</g>
</svg>
