<?xml version="1.0" encoding="utf-8"?>
<!-- Generator: Adobe Illustrator 19.0.0, SVG Export Plug-In . SVG Version: 6.00 Build 0)  -->
<svg version="1.1" id="Layer_1" xmlns="http://www.w3.org/2000/svg" xmlns:xlink="http://www.w3.org/1999/xlink" x="0px" y="0px"
	 viewBox="76.2 0 449.9 512" style="enable-background:new 76.2 0 449.9 512;" xml:space="preserve">
<path id="_x35_2_1_" d="M458,257.2L351.3,357.9l-0.1-75.2h-223v-50.2h223.3v-75.1L458,257.2 M526,257.4c0-4.2-1.6-8.4-4.8-11.5
	c-31.4-31.3-149-139.3-194.1-183.4c-3.3-3.2-7.3-4.7-11.3-4.7c-8.4,0-16.4,6.5-16.4,16.3v106.2H76.2v154.2h223.1l0.2,106
	c0.1,9.8,8.1,16.2,16.4,16.2c4,0,8-1.5,11.3-4.7l194-183.1C524.4,265.9,526,261.6,526,257.4L526,257.4z"/>
</svg>
