<?xml version="1.0" encoding="utf-8"?>
<!-- Generator: Adobe Illustrator 22.0.1, SVG Export Plug-In . SVG Version: 6.00 Build 0)  -->
<svg version="1.1" id="Layer_3" xmlns="http://www.w3.org/2000/svg" xmlns:xlink="http://www.w3.org/1999/xlink" x="0px" y="0px"
	 viewBox="0 0 512 512" style="enable-background:new 0 0 512 512;" xml:space="preserve">
<style type="text/css">
	.st0{fill:#010101;}
</style>
<g id="_x35_2_1_">
	<path id="XMLID_7_" class="st0" d="M209.2,481l0.1-0.6c1.7-10.8,10.3-19.2,21.1-20.9c11.1-1.8,25.7-6.7,38.6-19.4
		c4.7-4.6,23.8-65.4,37.3-82.1c22.5-27.9,37.9-54.6,46.5-78.9c24-67.4-21.1-124.9-71.9-135.1c-85-17.2-148.3,19.4-165.3,120.2
		c-2.1,12.2-12.8,21-25.1,20.8h-2.1c-15.2-0.2-26.8-13.9-24.5-28.9C80,150.7,148.3,70.9,290,92.8c80.3,12.4,146.8,100.1,111.8,204
		c-10,29.7-29.8,60.3-54.6,93.4c-11.3,15.2-20.1,66.2-41.8,87.1c-22.2,21.5-43.3,29.7-68.4,32.6C220.5,511.9,206.6,497.5,209.2,481z
		"/>
	<path id="XMLID_52_" class="st0" d="M201.6,189.8c11.4-6.8,24.8-10.7,39-10.5c39.5,0.6,71.9,33,72.5,72.5
		c0.2,14.3-3.6,27.7-10.5,39c-8.8,14.7-29,17.2-41.1,5.1c-5.1-5.1-7.7-11.8-7.7-18.6c0-4.6,1.2-9.2,3.7-13.3
		c2.2-3.5,3.3-7.8,3.1-12.3c-0.6-10.6-9.3-19.3-19.9-19.9c-4.5-0.3-8.7,0.9-12.3,3.1c-10.2,6.3-23.5,4.5-31.9-4
		c-5.2-5.2-7.7-11.9-7.7-18.5C188.8,203.6,193.3,194.9,201.6,189.8z M33.9,512C15.2,512,0,496.8,0,478.1c0-18.7,15.2-33.9,33.9-33.9
		s33.9,15.2,33.9,33.9S52.6,512,33.9,512z M117.6,468.9l-75.2-75.2l36.8-36.8l75.2,75.2L117.6,468.9z M163.8,382.1
		c-18.7,0-33.9-15.2-33.9-33.9c0-18.7,15.2-33.9,33.9-33.9s33.9,15.2,33.9,33.9C197.7,366.9,182.5,382.1,163.8,382.1z M495.3,141.9
		l-0.4,0.2c-13.9,5.3-29.3-2.3-33.6-16.5C450.1,89,420.4,60.5,383,51.2c-14.1-3.5-22.7-17.8-18.8-31.9l0.1-0.4
		c3.8-13.4,17.5-21.4,31.1-18c55.2,13.7,99.1,55.8,115.6,109.8C514.8,123.5,507.9,137.1,495.3,141.9z"/>
</g>
</svg>
