<?xml version="1.0" encoding="utf-8"?>
<!-- Generator: Adobe Illustrator 21.1.0, SVG Export Plug-In . SVG Version: 6.00 Build 0)  -->
<svg version="1.1" id="Layer_1" focusable="false" xmlns="http://www.w3.org/2000/svg" xmlns:xlink="http://www.w3.org/1999/xlink"
	 x="0px" y="0px" viewBox="0 0 485.7 512" style="enable-background:new 0 0 485.7 512;" xml:space="preserve">
<path id="_x35_2" d="M425.8,60.8c-19.3-19.4-42.4-34.4-68.6-44.8C330.3,5.4,300.7,0,269.2,0c-39.6,0-77,7.7-111.1,22.8
	c-32.4,14.4-61,35.1-85,61.6C26,136.3,0,206.3,0,281.6c0,34.2,6,66.3,18,95.5c11.4,27.8,27.8,52.3,48.9,72.8
	C108.1,489.9,164.2,512,225,512c51.9,0,92.3-9.1,131.1-29.4l7-3.7l-17.8-47.7l-9.2,5.1c-27.8,15.5-63.5,23.7-103.2,23.7
	c-104.2,0-174.2-73.4-174.2-182.7c0-131.4,86.2-226.7,204.9-226.7c100.9,0,163.5,64.3,163.5,167.8c0,45.3-12.9,83.9-35.3,105.8
	c-10.1,9.8-21.4,15.2-31.9,15.2h-0.6c-5-0.1-8.6-1.7-11.2-5c-4.3-5.4-10.2-20.8-1.7-63.9l9.3-49l0,0l12.2-64.6l4.1-21.7l0,0
	l2.1-11.2l-59.1-11l-1,5.4c-9.3-1.2-18.8-1.8-28.4-1.8c-49.2,0-94.7,19.1-128.1,53.9c-31.7,32.9-49.8,77.9-49.8,123.3
	c0,28.9,8.8,53.7,25.3,71.8c15.7,17.2,37.3,26.6,60.6,26.6c39.3,0,70.9-16,96-48.7c2.5,12.2,7.7,22.6,15.5,30.7
	c11.1,11.6,27,18,44.6,18c36.7,0,70.7-17,95.6-47.9c26.4-32.7,40.3-77.6,40.3-130C485.7,153.9,464.4,99.5,425.8,60.8z M279.3,278.6
	c-5,10.5-11.4,20.6-18.7,29.3c-15.6,18.6-33.3,28.9-49.9,28.9c-12.4,0-22.5-4.3-29.1-12.3c-6.5-8-10-19.6-10-33.6
	c0-31.6,11.1-61.6,31.2-84.5c20-22.8,46.3-35.3,74.2-35.3c9.2,0,18.1,0.9,26.4,2.8l-6.1,32.7l-0.7,3.9l0,0l-6.8,36.4
	C288,257.2,284.3,268.1,279.3,278.6z"/>
</svg>
