<?xml version="1.0" encoding="utf-8"?>
<!-- Generator: Adobe Illustrator 21.1.0, SVG Export Plug-In . SVG Version: 6.00 Build 0)  -->
<svg version="1.1" id="Layer_1" xmlns="http://www.w3.org/2000/svg" xmlns:xlink="http://www.w3.org/1999/xlink" x="0px" y="0px"
	 viewBox="0 0 783 512" style="enable-background:new 0 0 783 512;" xml:space="preserve">
<g>
	<g>
		<path d="M670.3,205.7c-0.1,0-0.1,0.1-0.2,0.1C670.3,206.5,670.4,206.5,670.3,205.7z M251,58.5c0-4.5,1.4-8,4.3-10.5
			c2.8-2.2,6.8-3.4,11.9-3.4h110.5c5.4,0,9.7,1.1,12.8,3.4c3.8,2.6,5.7,6.1,5.7,10.5v161.2l165.6-0.1c13.3,0,27.2-0.6,41.7-1.9
			c11.4-1.3,22.9-2.9,34.6-4.8c4.4-0.7,8.8-1.6,13.3-2.9c3.5-0.3,6.8-1,10-1.9c3.7-0.6,6.6-1.4,8.8-2.3c-0.8-2.9-3.9-17.5-9.8-32.7
			c-6-16.6-14.7-35.2-26.1-55.6c-22.1-38.7-44.4-71-66.9-96.9c-6-7-12.2-12-18.5-14.9c-7.6-3.5-17.6-5.3-29.9-5.3H144.3
			c-25.6,0-46.8,4.3-63.6,13C67.1,20.2,57,29.6,50.3,41.7C45.3,50,42.1,59.5,40.8,70c-0.3,4.8-0.5,8.9-0.5,12.5v138.1H251V58.5z
			 M559.3,52.3c2.2-3.2,5.2-5.1,9-5.8l6.2-1.4c12.6,17.3,25.2,36.1,37.5,56.6c13.6,23.3,24.7,44.8,33.2,64.3l-53.1,9.6v0.5h-1.9
			c-3.5,0-6.5-1-9-2.9c-2.5-2.2-4.1-5-4.7-8.1l-19-102.2C556.5,59,557.1,55.5,559.3,52.3z M425.1,58c0-4.5,1.7-7.8,5.2-10.1
			c2.8-2.2,6.6-3.4,11.4-3.4h75.9c4.4,0,8.2,1.4,11.4,4.3c3.5,2.9,5.2,6.4,5.2,10.6l11.9,114.1c0,2.6-0.3,4.8-1,6.7
			c-1.3,2.2-2.5,4.2-3.8,5.8c-1.6,1.6-3.3,2.9-5.2,3.8c-2.2,1-4.5,1.4-6.6,1.4h-87.8c-2.2,0-4.4-0.6-6.7-1.9c-1.6-1-3.2-2.6-4.7-4.8
			c-1.6-1.9-2.8-4-3.8-6.2c-0.9-2.2-1.4-4.6-1.4-7.2V58z M198.5,65.5c0,46.2,0,103,0,103h-106c0,0,0.1-63.8,0.1-89.6
			c0-17.5,20-26.4,36.9-26.4c26.5,0,70,0,70,0S198.5,59.3,198.5,65.5z M251,242.9v-9.8H41.3v9.8H251z M667.8,325.3
			c27.2,0,52,11.7,67.5,25.6h16.1c-0.6-7-3.5-14-8.5-21.1c-5.1-6.4-11.6-12.3-19.5-17.7c-8.2-5.4-17.2-9.6-27-12.5
			c-10.4-2.9-21-4.1-31.8-3.8l-10.9,2.4c1.6-3.2,3.2-7,4.7-11.5c5.9-0.5,28-5.3,28-5.3s0.8-0.6,1.4-2.4c0,0.3,0.8-10.9,0.9-17.3
			c0.3-11.8-2.4-15.3-2.4-15.3s-15.6-5.2-24.2-1c-19.7,6-104.6,11-101,11l-165.1-1.9v116.1c0,6.4-0.9,11.8-2.9,16.3
			c-2.5,5.8-6,8.6-10.4,8.6h-72.6c-2.5,0-4.9-0.6-7.1-1.9c-2.5-1.6-4.6-3.4-6.2-5.3c-1.9-2.2-3.5-4.6-4.7-7.2
			c-1-2.6-1.4-4.9-1.4-7.2c0-2.9-0.2-6.5-0.5-11c-0.6-9.3-1.7-17.9-3.3-25.9c-1.9-11.5-4.4-21.3-7.6-29.2
			c-4.4-10.2-9.8-17.6-16.1-22.1c-4.7-3.8-8.4-8.9-10.9-15.3c-0.9-2.6-1.6-5.1-1.9-7.7c-0.3-2.2-0.5-4.5-0.5-6.7H40.4v32.1
			l-11.9,2.4v35l11.9,2.4v104.1h524.6c0.6-14.4,2.8-27.6,7.5-40.7C585.8,352,628.3,325.3,667.8,325.3z M92.5,380.5
			c0,0,1.4-28.1,0-49c-1-14.4-5-24-5-24s125.1,0,127,0c10.1,19.8,14.2,11.6,18,24c8.6,27.1,5.8,39.1,7,49
			C237.7,380.5,92.5,380.5,92.5,380.5z M545.5,334.5c-21.2,28.5-23,45-23,45h-75c0,0,1-6.7,1-11c0-3.4,0-61,0-61l122,1
			C570.5,308.5,557.4,318.5,545.5,334.5z M727.3,368.6c-7.6-8-16.4-14.1-26.6-18.2c-10.1-4.2-20.9-6.2-32.2-6.2
			c-11.4,0-22.3,2.1-32.8,6.2c-9.8,4.1-18.6,10.2-26.5,18.2c-7.6,7.7-13.5,16.6-17.6,26.9c-4.4,10.2-6.6,21.1-6.6,32.6
			c0,11.5,2.2,22.5,6.6,33.1c4.1,9.9,10,18.9,17.6,26.9c7.9,7.7,16.8,13.6,26.5,17.7c10.4,4.5,21.4,6.7,32.8,6.7
			c11.4,0,22.1-2.2,32.2-6.7c10.1-4.1,19-10.1,26.6-17.7c7.6-8,13.6-17,18-26.9c4.1-10.6,6.2-21.6,6.2-33.1
			c0-11.5-2.1-22.4-6.2-32.6C740.9,385.3,734.9,376.3,727.3,368.6z M693.6,438.7c-1.6,3.5-3.5,6.4-5.7,8.6c-2.9,2.6-5.9,4.6-9,6.2
			c-3.5,1.3-6.9,1.9-10.4,1.9c-3.8,0-7.3-0.6-10.4-1.9c-3.5-1.6-6.3-3.7-8.5-6.2c-2.8-2.2-4.9-5.1-6.2-8.6
			c-1.6-3.2-2.4-6.7-2.4-10.5c0-3.8,0.8-7.5,2.4-11.1c1.2-2.9,3.3-5.7,6.2-8.6c2.2-2.6,5.1-4.5,8.5-5.8c3.1-1.3,6.7-1.9,10.4-1.9
			c3.5,0,6.9,0.7,10.4,1.9c3.2,1.3,6.2,3.2,9,5.8c2.2,2.9,4.1,5.8,5.7,8.6c1.3,3.5,1.9,7.2,1.9,11.1
			C695.5,431.9,694.9,435.5,693.6,438.7z M167.5,453.5c-1.3,3.2-3.2,6.1-5.7,8.6c-2.5,2.6-5.5,4.5-9,5.7c-3.2,1.6-6.6,2.4-10.4,2.4
			c-3.5,0-6.9-0.8-10.4-2.4c-3.2-1.3-6-3.2-8.5-5.7c-2.5-2.6-4.6-5.4-6.2-8.6c-1.3-3.5-1.9-5.8-1.9-6.7H65.5
			c1.9,9,5.4,17.6,10.4,25.9c4.7,8,10.8,15,18,21.1c7.3,6.1,15.3,10.6,24.2,13.4c9.2,3.5,18.6,5.3,28.5,5.3c9.8,0,19.3-1.8,28.4-5.3
			c8.9-2.9,16.9-7.4,24.2-13.4c7.3-6.1,13.3-13.1,18-21.1c5-8.3,8.7-16.9,10.9-25.9h-58.4C169.9,447.8,169.1,450,167.5,453.5z
			 M651.9,223.5c-4.4,1-8.9,1.8-13.3,2.4c-11.7,2.2-23.4,3.8-35.1,4.8c-14.5,1.6-28.5,2.4-41.7,2.4H396.2v9.8h165.1
			c12.6,0,26.1-0.6,40.3-1.9c11.7-1.3,23.4-2.9,35.1-4.8c8.9-1.6,17.4-3.2,25.6-4.8c3.8-0.6,4.9-1.3,7.1-1.9l-0.5-10.3
			c-1.9,0.6-2.8,1.3-6.6,1.9C659.1,222.1,655.7,222.9,651.9,223.5z"/>
	</g>
</g>
</svg>
