<?xml version="1.0" encoding="utf-8"?>
<!-- Generator: Adobe Illustrator 21.1.0, SVG Export Plug-In . SVG Version: 6.00 Build 0)  -->
<svg version="1.1" id="Layer_2" xmlns="http://www.w3.org/2000/svg" xmlns:xlink="http://www.w3.org/1999/xlink" x="0px" y="0px"
	 viewBox="0 0 512.4 512" style="enable-background:new 0 0 512.4 512;" xml:space="preserve">
<g>
	<path d="M442.7,0H69.3C31,0,0,31,0,69.3v90.5h52V69.3C52,59.8,59.8,52,69.3,52h373.3c9.5,0,17.3,7.8,17.3,17.3v90.5h52V69.3
		C512,31,481,0,442.7,0z M460,238.6v204.1c0,9.5-7.8,17.3-17.3,17.3H69.3c-9.6,0-17.3-7.8-17.3-17.3V238.6H0v204.1
		C0,481,31,512,69.3,512h373.3c38.3,0,69.3-31,69.3-69.3V238.6H460z"/>
	<path d="M146.7,88.5L146.7,88.5c-4.8-4.8-10.6-7.3-17.2-7.3c-6.6,0-12.4,2.4-17.2,7.3c-4.8,4.8-7.3,10.6-7.3,17.2
		c0,6.6,2.4,12.4,7.3,17.2c4.8,4.8,10.5,7.3,17,7.3c6.7,0,12.6-2.4,17.4-7.3c4.8-4.8,7.3-10.6,7.3-17.2
		C154,99.2,151.5,93.4,146.7,88.5z M138.5,105.8c0,2.4-0.9,4.3-2.7,6l0,0c-1.9,1.7-3.9,2.6-6.3,2.6c-2.4,0-4.5-0.8-6.3-2.6
		c-1.8-1.7-2.7-3.7-2.7-6c0-2.4,0.9-4.4,2.8-6.3c1.9-1.8,3.8-2.7,6.1-2.7c2.5,0,4.6,0.9,6.5,2.8
		C137.6,101.3,138.5,103.4,138.5,105.8z"/>
	<polygon points="81.1,97.6 84.6,97.6 84.6,128.5 100,128.5 100,82.1 81.1,82.1 	"/>
	<path d="M146.7,277.1L146.7,277.1c-4.8-4.8-10.6-7.3-17.2-7.3c-6.6,0-12.4,2.4-17.2,7.3c-4.8,4.8-7.3,10.6-7.3,17.2
		c0,6.6,2.4,12.4,7.3,17.2c4.8,4.8,10.5,7.3,17,7.3c6.7,0,12.6-2.4,17.4-7.3c4.8-4.8,7.3-10.6,7.3-17.2
		C154,287.7,151.5,281.9,146.7,277.1z M138.5,294.3c0,2.4-0.9,4.3-2.7,6l0,0c-1.9,1.7-3.9,2.6-6.3,2.6c-2.4,0-4.5-0.8-6.3-2.6
		c-1.8-1.7-2.7-3.7-2.7-6c0-2.4,0.9-4.4,2.8-6.3c1.9-1.8,3.8-2.7,6.1-2.7c2.5,0,4.6,0.9,6.5,2.8
		C137.6,289.9,138.5,291.9,138.5,294.3z"/>
	<polygon points="81.1,286.1 84.6,286.1 84.6,317.1 100,317.1 100,270.7 81.1,270.7 	"/>
	<path d="M157.7,393.4L157.7,393.4c-4.8-4.7-10.6-7-17.2-7c-6.6,0-12.4,2.4-17.2,7c-4.8,4.7-7.3,10.5-7.3,17.3
		c0,6.8,2.5,12.6,7.3,17.3c4.8,4.7,10.5,7,17,7c6.7,0,12.6-2.4,17.4-7c4.8-4.7,7.3-10.5,7.3-17.3S162.5,398.1,157.7,393.4z
		 M149.5,410.6c0,2.5-0.9,4.5-2.7,6.2l0,0c-1.9,1.7-3.9,2.6-6.3,2.6c-2.4,0-4.5-0.8-6.3-2.6c-1.8-1.7-2.7-3.8-2.7-6.2
		c0-2.5,0.9-4.5,2.7-6.2c1.9-1.7,3.9-2.6,6.1-2.6c2.6,0,4.7,0.8,6.6,2.6C148.6,406.1,149.5,408.2,149.5,410.6z"/>
	<path d="M111.9,404.1c0-4.7-1.7-8.9-5-12.4c-3.4-3.6-8-5.4-13.8-5.4c-5.7,0-10.7,1.8-14.9,5.4l-1.9,1.6L86,405l1.9-1.6
		c1.3-1.1,3.1-1.6,5.4-1.6c3.1,0,3.2,1.1,3.2,2.2c-0.1,0.3-1,2.3-7.8,7.7l-11.8,10.9V434h32.9v-15.4h-5.2c1.4-1.4,2.6-2.7,3.4-3.8
		C110.6,411.5,111.9,407.9,111.9,404.1z"/>
	<path d="M428.7,88.5L428.7,88.5c-4.8-4.8-10.6-7.3-17.2-7.3c-6.6,0-12.4,2.4-17.2,7.3c-4.8,4.8-7.3,10.6-7.3,17.2
		c0,6.6,2.4,12.4,7.3,17.2c4.8,4.8,10.5,7.3,17,7.3c6.7,0,12.6-2.4,17.4-7.3c4.8-4.8,7.3-10.6,7.3-17.2
		C436,99.2,433.5,93.4,428.7,88.5z M420.5,105.8c0,2.4-0.9,4.3-2.7,6l0,0c-1.9,1.7-3.9,2.6-6.3,2.6c-2.4,0-4.5-0.8-6.3-2.6
		c-1.8-1.7-2.7-3.7-2.7-6c0-2.4,0.9-4.4,2.8-6.3c1.9-1.8,3.8-2.7,6.1-2.7c2.5,0,4.6,0.9,6.5,2.8
		C419.6,101.3,420.5,103.4,420.5,105.8z"/>
	<polygon points="363.1,97.6 366.6,97.6 366.6,128.5 382,128.5 382,82.1 363.1,82.1 	"/>
	<path d="M428.7,277.1L428.7,277.1c-4.8-4.8-10.6-7.3-17.2-7.3c-6.6,0-12.4,2.4-17.2,7.3c-4.8,4.8-7.3,10.6-7.3,17.2
		c0,6.6,2.4,12.4,7.3,17.2c4.8,4.8,10.5,7.3,17,7.3c6.7,0,12.6-2.4,17.4-7.3c4.8-4.8,7.3-10.6,7.3-17.2
		C436,287.7,433.5,281.9,428.7,277.1z M420.5,294.3c0,2.4-0.9,4.3-2.7,6l0,0c-1.9,1.7-3.9,2.6-6.3,2.6c-2.4,0-4.5-0.8-6.3-2.6
		c-1.8-1.7-2.7-3.7-2.7-6c0-2.4,0.9-4.4,2.8-6.3c1.9-1.8,3.8-2.7,6.1-2.7c2.5,0,4.6,0.9,6.5,2.8
		C419.6,289.9,420.5,291.9,420.5,294.3z"/>
	<polygon points="363.1,286.1 366.6,286.1 366.6,317.1 382,317.1 382,270.7 363.1,270.7 	"/>
	<path d="M431.7,393.4L431.7,393.4c-4.8-4.7-10.6-7-17.2-7c-6.6,0-12.4,2.4-17.2,7c-4.8,4.7-7.3,10.5-7.3,17.3
		c0,6.8,2.5,12.6,7.3,17.3c4.8,4.7,13.5,7,20,7c6.7,0,9.6-2.4,14.4-7c4.8-4.7,7.3-10.5,7.3-17.3S436.5,398.1,431.7,393.4z
		 M423.5,410.6c0,2.5-0.9,4.5-2.7,6.2l0,0c-1.9,1.7-3.9,2.6-6.3,2.6c-2.4,0-4.5-0.8-6.3-2.6c-1.8-1.7-2.7-3.8-2.7-6.2
		c0-2.5,0.9-4.5,2.7-6.2c1.9-1.7,3.9-2.6,6.1-2.6c2.6,0,4.7,0.8,6.6,2.6C422.6,406.1,423.5,408.2,423.5,410.6z"/>
	<path d="M385.9,404.1c0-4.7-1.7-8.9-5-12.4c-3.4-3.6-8-5.4-13.8-5.4c-5.7,0-10.7,1.8-14.9,5.4l-1.9,1.6L360,405l1.9-1.6
		c1.3-1.1,3.1-1.6,5.4-1.6c3.1,0,3.2,1.1,3.2,2.2c-0.1,0.3-1,2.3-7.8,7.7l-11.8,10.9l3,11.4h32.9l-3-15.4h-5.2
		c1.4-1.4,2.6-2.7,3.4-3.8C384.6,411.5,385.9,407.9,385.9,404.1z"/>
	<rect x="186.6" y="89.5" width="136.8" height="32"/>
	<rect x="186.6" y="278.1" width="136.8" height="32"/>
	<rect x="186.6" y="394.2" width="136.8" height="32"/>
	<rect x="229.3" y="148" width="51.4" height="32"/>
	<rect x="229.3" y="212.4" width="51.4" height="32"/>
	<rect x="229.3" y="337.2" width="51.4" height="32"/>
	<polygon points="512.4,186.6 262.8,186.6 262.8,2.4 248.4,2.4 248.4,186.6 -1.3,186.6 -1.3,201 248.4,201 248.4,355.2 262.8,355.2 
		262.8,201 512.4,201 	"/>
</g>
</svg>
