<?xml version="1.0" encoding="utf-8"?>
<!-- Generator: Adobe Illustrator 21.1.0, SVG Export Plug-In . SVG Version: 6.00 Build 0)  -->
<svg version="1.1" id="Layer_1" xmlns="http://www.w3.org/2000/svg" xmlns:xlink="http://www.w3.org/1999/xlink" x="0px" y="0px"
	 viewBox="0 0 512 512" style="enable-background:new 0 0 512 512;" xml:space="preserve">
<g>
	<path d="M256,238c-75.1,0-136,60.9-136,136s60.9,136,136,136s136-60.9,136-136S331.1,238,256,238z M380.5,345.9l-19.7,5.3l-2.4-8.9
		l19.7-5.3L380.5,345.9z M364.4,306.7l4.6,8l-17.7,10.2l-4.6-8L364.4,306.7z M349.5,374c0,51.6-41.9,93.5-93.5,93.5
		c-51.6,0-93.5-41.9-93.5-93.5s41.9-93.5,93.5-93.5C307.6,280.5,349.5,322.4,349.5,374z M343.3,281l6.5,6.5l-14.4,14.4l-6.5-6.5
		L343.3,281z M315.3,261l8,4.6l-10.2,17.7l-8-4.6L315.3,261z M284.1,249.6l8.9,2.4l-5.3,19.7l-8.9-2.4L284.1,249.6z M250.9,246.5
		h9.2v20.4h-9.2V246.5z M226.9,249.8l5.3,19.7l-8.9,2.4l-5.3-19.7L226.9,249.8z M195.8,261.6l10.2,17.7l-8,4.6l-10.2-17.7
		L195.8,261.6z M168.7,281l14.4,14.4l-6.5,6.5l-14.4-14.4L168.7,281z M147.6,306.7l17.7,10.2l-4.6,8L143,314.7L147.6,306.7z
		 M133.9,337.1l19.7,5.3l-2.4,8.9l-19.7-5.3L133.9,337.1z M128.5,369.9h20.4v9.2h-20.4V369.9z M131.8,403.1l19.7-5.3l2.4,8.9
		l-19.7,5.3L131.8,403.1z M148.1,442.2l-4.6-8l17.7-10.2l4.6,8L148.1,442.2z M169.5,467.8l-6.5-6.5l14.4-14.4l6.5,6.5L169.5,467.8z
		 M195.8,486.5l-8-4.6l10.2-17.7l8,4.6L195.8,486.5z M226.9,498.3l-8.9-2.4l5.3-19.7l8.9,2.4L226.9,498.3z M260.1,501.5h-9.2v-20.4
		h9.2V501.5z M284.1,498.5l-5.3-19.7l8.9-2.4l5.3,19.7L284.1,498.5z M315.3,487l-10.2-17.7l8-4.6l10.2,17.7L315.3,487z M342.6,467.8
		l-14.4-14.4l6.5-6.5l14.4,14.4L342.6,467.8z M363.9,442.2L346.2,432l4.6-8l17.7,10.2L363.9,442.2z M377.8,412l-19.7-5.3l2.4-8.9
		l19.7,5.3L377.8,412z M363.1,379.1v-9.2h20.4v9.2H363.1z M98.1,7.5L59.6,49.3l104.7,181.8c0.8-0.4,1.7-0.7,2.5-1.1
		c14.1-8.2,29.5-14.5,45.8-18.3L98.1,7.5z M414,7.8l-0.3-0.3l-124.1,204c17.3,4,33.6,10.7,48.5,19.5L452.4,49.7L414,7.8z M120.7,0
		L148,52h209.6l31.1-52H120.7z"/>
	<path d="M254.9,344.2l2.9,5.8c4.5,9.1,13.3,15.5,23.4,16.9l6.2,0.9l-4.5,4.4c-7.4,7.2-10.7,17.5-8.9,27.6l1.1,6.1l-5.7-3
		c-4.4-2.3-9.4-3.5-14.4-3.5c-5,0-10,1.2-14.5,3.6l-5.6,3l1.1-6.4c1.7-10-1.6-20.3-8.9-27.4l-4.5-4.4l6.3-0.9
		c10.1-1.5,18.9-7.8,23.4-17L254.9,344.2 M254.9,303L254.9,303c-2,0-3.9,1-4.9,3.1l-17,34.4c-1.4,2.9-4.1,4.9-7.3,5.3l-38,5.5
		c-4.5,0.7-6.3,6.2-3,9.3l27.5,26.8c2.3,2.2,3.3,5.5,2.8,8.6l-6.4,37.9c-0.6,3.5,2.2,6.4,5.4,6.4c0.9,0,1.7-0.2,2.5-0.7l34-17.9
		c1.4-0.7,3-1.1,4.5-1.1c1.5,0,3.1,0.4,4.5,1.1l34.2,17.9c0.8,0.5,1.7,0.7,2.5,0.7c3.2,0,6-2.9,5.4-6.4l-6.6-37.8
		c-0.6-3.2,0.5-6.4,2.8-8.6l27.6-26.8c3.3-3.2,1.5-8.7-3-9.3l-38-5.6c-3.2-0.5-5.9-2.5-7.3-5.3L260,306.1
		C258.8,304,256.9,303,254.9,303L254.9,303z"/>
</g>
</svg>
