<?xml version="1.0" encoding="utf-8"?>
<!-- Generator: Adobe Illustrator 21.1.0, SVG Export Plug-In . SVG Version: 6.00 Build 0)  -->
<svg version="1.1" id="Layer_1" xmlns="http://www.w3.org/2000/svg" xmlns:xlink="http://www.w3.org/1999/xlink" x="0px" y="0px"
	 viewBox="0 0 512.4 512" style="enable-background:new 0 0 512.4 512;" xml:space="preserve">
<g>
	<path d="M256.5,304.3c-38.2,0-69.3,30.9-69.3,69.3s30.9,69.3,69.3,69.3c38.2,0,69.3-30.9,69.3-69.3S294.7,304.3,256.5,304.3
		L256.5,304.3z"/>
	<path d="M256.4,238c-75.1,0-136,60.9-136,136s60.9,136,136,136s136-60.9,136-136S331.5,238,256.4,238z M380.9,345.9l-19.7,5.3
		l-2.4-8.9l19.7-5.3L380.9,345.9z M364.8,306.7l4.6,8l-17.7,10.2l-4.6-8L364.8,306.7z M349.9,374c0,51.6-41.9,93.5-93.5,93.5
		c-51.6,0-93.5-41.9-93.5-93.5s41.9-93.5,93.5-93.5C308,280.5,349.9,322.4,349.9,374z M343.7,281l6.5,6.5l-14.4,14.4l-6.5-6.5
		L343.7,281z M315.7,261l8,4.6l-10.2,17.7l-8-4.6L315.7,261z M284.5,249.6l8.9,2.4l-5.3,19.7l-8.9-2.4L284.5,249.6z M251.3,246.5
		h9.2v20.4h-9.2V246.5z M227.3,249.8l5.3,19.7l-8.9,2.4l-5.3-19.7L227.3,249.8z M196.2,261.6l10.2,17.7l-8,4.6l-10.2-17.7
		L196.2,261.6z M169.1,281l14.4,14.4l-6.5,6.5l-14.4-14.4L169.1,281z M148,306.7l17.7,10.2l-4.6,8l-17.7-10.2L148,306.7z
		 M134.3,337.1l19.7,5.3l-2.4,8.9l-19.7-5.3L134.3,337.1z M128.9,369.9h20.4v9.2h-20.4V369.9z M132.2,403.1l19.7-5.3l2.4,8.9
		l-19.7,5.3L132.2,403.1z M148.5,442.2l-4.6-8l17.7-10.2l4.6,8L148.5,442.2z M169.9,467.8l-6.5-6.5l14.4-14.4l6.5,6.5L169.9,467.8z
		 M196.2,486.5l-8-4.6l10.2-17.7l8,4.6L196.2,486.5z M227.3,498.3l-8.9-2.4l5.3-19.7l8.9,2.4L227.3,498.3z M260.5,501.5h-9.2v-20.4
		h9.2V501.5z M284.5,498.5l-5.3-19.7l8.9-2.4l5.3,19.7L284.5,498.5z M315.7,487l-10.2-17.7l8-4.6l10.2,17.7L315.7,487z M343,467.8
		l-14.4-14.4l6.5-6.5l14.4,14.4L343,467.8z M364.3,442.2L346.6,432l4.6-8l17.7,10.2L364.3,442.2z M378.2,412l-19.7-5.3l2.4-8.9
		l19.7,5.3L378.2,412z M363.5,379.1v-9.2h20.4v9.2H363.5z M98.5,7.5L60,49.3l104.7,181.8c0.8-0.4,1.7-0.7,2.5-1.1
		c14.1-8.2,29.5-14.5,45.8-18.3L98.5,7.5z M414.4,7.8l-0.3-0.3l-124.1,204c17.3,4,33.6,10.7,48.5,19.5L452.8,49.7L414.4,7.8z
		 M121.1,0l27.3,52H358l31.1-52H121.1z"/>
</g>
</svg>
