<?xml version="1.0" encoding="utf-8"?>
<!-- Generator: Adobe Illustrator 22.0.1, SVG Export Plug-In . SVG Version: 6.00 Build 0)  -->
<svg version="1.1" id="Layer_4" xmlns="http://www.w3.org/2000/svg" xmlns:xlink="http://www.w3.org/1999/xlink" x="0px" y="0px"
	 viewBox="0 0 386.6 512" style="enable-background:new 0 0 386.6 512;" xml:space="preserve">
<style type="text/css">
	.st0{fill:#010101;}
</style>
<g id="_x35_2">
	<path id="XMLID_7_" class="st0" d="M192.4,145.9c40.3,0,72.9-32.7,72.9-73c0-40.4-32.7-73.1-72.9-73c-40.3-0.1-73,32.6-73,73
		C119.4,113.2,152.1,145.9,192.4,145.9L192.4,145.9z"/>
	<path id="XMLID_47_" class="st0" d="M376.2,250L271.3,144.8c-4.9-4.8-10.1-8.5-16.4-10.8c-15.9,16.2-38,26.3-62.5,26.4
		c-24.6,0-46.8-10.2-62.7-26.5c-6.4,2.4-11.5,6.2-16.5,11L9.5,248.8c-11.4,11.4-13,29.3-4,42.6l0.2,0.3
		c11.7,17.3,36.2,19.8,51.2,5.3l56.5-55.3v43.2c-10.9,0.2-19.7,9.1-19.7,20.1v14.4c-1.6,1.6-44.3,44.4-44.3,44.6
		c-16.9,16.7-12.5,46.3,3.1,62.4l54.8,70.6c7.3,9.9,18.6,15.1,30,15.1c8,0,16.1-2.6,22.9-7.9c16.5-12.9,19.2-36.8,5.9-53l-36.3-42.1
		l8.5-9.3h112.4l7.6,7.5l-38.8,44.1c-13.2,15.9-11,39.5,4.9,52.6l0,0c16.5,13.6,41,10.6,53.7-6.5l56.1-71.1
		c15.8-16.1,20.1-45.6,3.4-62.4c-0.2-0.1-44.6-44.6-44.6-44.6v-14.3c0-11.1-9-20.1-20.1-20.1h-1.4v-43.5L329,298
		c6.6,6.4,15,9.5,23.4,9.5c10.6,0,21.2-5,27.8-14.7C389.3,279.3,387.6,261.4,376.2,250z M229,368.7h-71.4l-33-25.6V311h137.3v32.3
		L229,368.7z"/>
</g>
</svg>
