<?xml version="1.0" encoding="utf-8"?>
<!-- Generator: Adobe Illustrator 22.0.1, SVG Export Plug-In . SVG Version: 6.00 Build 0)  -->
<svg version="1.1" id="Layer_6" xmlns="http://www.w3.org/2000/svg" xmlns:xlink="http://www.w3.org/1999/xlink" x="0px" y="0px"
	 viewBox="0 0 507.3 512" style="enable-background:new 0 0 507.3 512;" xml:space="preserve">
<style type="text/css">
	.st0{fill:#010101;}
</style>
<g id="_x35_2">
	<path id="XMLID_88_" d="M404.4,105.4C375,76,334.4,57.7,289.7,57.7h-72.4c-22.3,0-43.6,4.6-63.1,12.8
		c-19.4,8.3-36.9,20.2-51.6,34.9c-29.4,29.4-47.7,70-47.7,114.7v264.2c0,15.3,12.4,27.8,27.8,27.8h341.7c15.3,0,27.8-12.4,27.8-27.8
		V220.1C452.1,175.4,433.8,134.8,404.4,105.4z M162,124.7c16.7-9.8,35.6-15,55.3-15h72.4c19.9,0,39,5.3,55.8,15.2v69
		c-4.1-1.4-8.5-2.2-13-2.2h-158c-4.4,0-8.6,0.7-12.6,2v-69H162z M165.6,227.5c1.8-1.7,4.7-3.7,8.9-3.7h70.4v3.4
		c-5,1.5-9.5,4.2-13.1,7.8c-5.5,5.5-9,13.2-9,21.7c0,8.4,3.4,16.1,9,21.6c5.5,5.5,13.2,9,21.6,9c8.5,0,16.1-3.4,21.6-9
		c5.5-5.5,9-13.2,9-21.6c0-8.5-3.4-16.1-9-21.7c-3.5-3.5-7.9-6.2-12.8-7.7v-3.5h70.1c4.2,0,7.1,2,8.9,3.7c2.1,2,3.5,4.7,4.1,7.5
		c-1.4,14.1-7.5,27.2-17.3,37.1c-10.4,10.4-23.8,16.1-37.9,16.1h-73.4c-14.1,0-27.5-5.7-37.9-16.1c-9.9-9.9-16-23-17.4-37.1
		C162.1,232.2,163.5,229.5,165.6,227.5z M400.1,460H106.9V220.1c0-25.4,8.6-49.5,24.6-69.2v83.9c1.4,23.8,11.5,45.3,26.9,60.7
		c15.3,15.3,35.9,24.8,58.4,24.8h73.4c22.5,0,43.1-9.4,58.4-24.8c15.4-15.4,25.5-36.8,26.9-60.7V151c15.9,19.6,24.6,43.8,24.6,69.2
		L400.1,460L400.1,460z"/>
	<path id="XMLID_4_" class="st0" d="M46.9,475.4H34.7C15.5,475.4,0,459.8,0,440.6v-87.7c0-17.3,7.1-33,18.5-44.4
		c7.8-7.8,17.5-13.5,28.4-16.4V475.4z M307.5,50.6c-2.9-5.2-7-9.7-11.8-13.4C283.8,28.1,268.3,24,253.5,24
		c-14.8,0-30.3,4.1-42.2,13.3c-4.8,3.7-9,8.2-11.8,13.4c-9.2,1-18.2,2.7-27,5.1c2.8-15,11.9-28,24.3-37.5C212.8,5.9,233.4,0,253.5,0
		s40.7,5.9,56.7,18.2c12.4,9.5,21.5,22.5,24.3,37.5C325.7,53.3,316.7,51.6,307.5,50.6z M507.1,440.6c0,19.2-15.5,34.7-34.7,34.7
		h-12.2V292.1c10.9,2.9,20.7,8.6,28.4,16.4c11.4,11.4,18.5,27.1,18.5,44.4L507.1,440.6L507.1,440.6z"/>
</g>
</svg>
