<?xml version="1.0" encoding="utf-8"?>
<!-- Generator: Adobe Illustrator 21.1.0, SVG Export Plug-In . SVG Version: 6.00 Build 0)  -->
<svg version="1.1" id="Layer_1" xmlns="http://www.w3.org/2000/svg" xmlns:xlink="http://www.w3.org/1999/xlink" x="0px" y="0px"
	 viewBox="0 0 560.7 512" style="enable-background:new 0 0 560.7 512;" xml:space="preserve">
<g>
	<path d="M484.4,267.4l24,173.2c0.9,6.6-2.1,11.3-4,13.5c-1.9,2.2-6.1,5.8-12.8,5.8H69.1c-6.7,0-10.9-3.6-12.8-5.8
		c-1.9-2.2-4.9-6.8-4-13.5l24-173.2h91.4c32.7,23.2,71.8,35.8,112.3,35.8c40.5,0,79.6-12.6,112.3-35.8H484.4 M491.9,216.3H374.6
		c-25.2,22.3-58.3,35.8-94.6,35.8c-36.3,0-69.4-13.5-94.6-35.8H68.8c-21.8,0-40.1,16.6-42.3,38.3l-24.8,179
		C-3.9,474.5,27.8,511,69.1,511h422.4c41.3,0,73.1-36.5,67.4-77.4l-24.8-179C532,232.9,513.7,216.3,491.9,216.3L491.9,216.3z"/>
	<path d="M455.5,176.3c0,0.7,0,1.3,0,2H405c0-0.6,0-1.1,0-1.7c0-69.2-56.1-125.4-125.4-125.4c-69.2,0-125.4,56.1-125.4,125.4
		c0,0.6,0,1.1,0,1.7h-51.1c0-0.7,0-1.3,0-2C103.2,79,182.1,0.1,279.4,0.1S455.5,79,455.5,176.3z"/>
	<rect x="209.2" y="319.1" width="141.6" height="41.1"/>
</g>
</svg>
