<?xml version="1.0" encoding="utf-8"?>
<!-- Generator: Adobe Illustrator 21.1.0, SVG Export Plug-In . SVG Version: 6.00 Build 0)  -->
<svg version="1.1" id="_x35_2_1_" xmlns="http://www.w3.org/2000/svg" xmlns:xlink="http://www.w3.org/1999/xlink" x="0px" y="0px"
	 viewBox="0 0 566.3 512" style="enable-background:new 0 0 566.3 512;" xml:space="preserve">
<path d="M488.3,176.4c11.5-3.3,20-14,20-26.6c0-11-6.5-20.5-15.8-25c-0.1,0-0.1-0.1-0.2-0.1c-0.7-0.3-1.4-0.6-2.1-0.8
	c-0.2-0.1-0.3-0.1-0.5-0.2c-0.6-0.2-1.3-0.4-1.9-0.6c-0.3-0.1-0.5-0.1-0.8-0.2c-0.6-0.1-1.2-0.3-1.8-0.4c-0.2,0-0.4-0.1-0.5-0.1
	c-0.3,0-0.6-0.1-0.9-0.1c-0.2,0-0.3-0.1-0.5-0.1c-0.9-0.1-1.7-0.1-2.6-0.1h-0.1l0,0c-0.9,0-1.8,0.1-2.7,0.1c-0.1,0-0.1,0-0.2,0
	c-0.8,0.1-1.6,0.2-2.4,0.4c-0.2,0-0.5,0.1-0.7,0.1c-0.5,0.1-1.1,0.3-1.6,0.4s-1,0.3-1.5,0.5c-0.2,0.1-0.4,0.2-0.7,0.2
	c-10.5,3.9-17.9,14-17.9,25.9c0,0.5,0.1,1,0.1,1.5c-0.1,15.5-12.6,28.1-28,28.1c-10,0-18.7-5.6-23.7-13.8
	c-5.6-9.3-15.4-15.2-26.2-15.2h-50.4c-5.9-9.5-15-16.9-25.8-20.6V87c9.4-2,16.4-10.3,16.4-20.3c0-10.7-8.1-19.5-18.5-20.7l-4.6-15.4
	c1.5-2,2.4-4.5,2.4-7.2c0-5.2-3.3-9.6-8-11.6l-3.6-12h-3.2l-3.6,12c-4.7,1.9-8,6.4-8,11.6c0,2.7,0.9,5.1,2.4,7.2L266,46
	c-10.4,1.1-18.5,9.9-18.5,20.7c0,10,7,18.3,16.4,20.3v44c-9.4,4-17.2,10.8-22.6,19.3h-50.4c-10.8,0-20.6,5.9-26.2,15.2
	c-5,8.2-13.7,13.8-23.7,13.8c-15.4,0-27.9-12.6-28-28.1c0-0.5,0.1-1,0.1-1.5c0-11.8-7.5-21.9-17.9-25.9c-0.2-0.1-0.4-0.2-0.7-0.2
	c-0.5-0.2-1-0.3-1.5-0.5s-1.1-0.3-1.6-0.4c-0.2-0.1-0.5-0.1-0.7-0.1c-0.8-0.2-1.6-0.3-2.4-0.4c-0.1,0-0.1,0-0.2,0
	c-0.9-0.1-1.8-0.1-2.7-0.1l0,0c-0.1,0-0.1,0-0.1,0c-0.8,0-1.7,0-2.6,0.1c-0.2,0-0.3,0-0.5,0.1c-0.3,0-0.6,0.1-0.9,0.1
	c-0.2,0-0.4,0.1-0.5,0.1c-0.6,0.1-1.2,0.2-1.8,0.4c-0.3,0.1-0.5,0.1-0.8,0.2c-0.7,0.2-1.3,0.4-1.9,0.6c-0.2,0.1-0.3,0.1-0.5,0.2
	c-0.7,0.3-1.4,0.5-2.1,0.8c-0.1,0-0.1,0.1-0.2,0.1c-9.4,4.4-15.8,13.9-15.8,25c0,13.8,10.2,25.3,23.4,27.3
	C66.2,209.6,1.3,351.4,0,353.7C3,398,39.6,433,84.3,433s81.2-35,84-79.2c0.1-1.6-65.4-143.3-80.8-176.4c1.5-0.1,3-0.4,4.5-0.7
	c7.1,12.5,18.6,25.5,34.9,25.5h114.5c3.6,5.7,8.3,10.6,13.8,14.4V446h-14.7c-14.6,0-26.4,11.6-27,26H202
	c-16.8,0-30.5,13.7-30.5,30.5c0,3.2,0,9.5,0,9.5h223c0,0,0-6.2,0-9.5c0-16.8-13.7-30.5-30.5-30.5h-17.5c-0.5-14.4-12.4-26-27-26h-12
	V218.6c7-4,12.8-9.7,17.1-16.5l0,0h114.5c16.3,0,27.8-13,34.9-25.5c2.1,0.5,4.3,0.8,6.5,0.8c0.7,0,1.3,0,2-0.1
	c-14.8,33.2-77.7,174.7-77.6,176.3c2.7,44.2,37.8,79.2,80.7,79.2s78-35,80.7-79.2C565.3,351.3,502,207.5,488.3,176.4z M157,353.8
	H11.6l72.7-160.5L157,353.8z M85.5,161.5c-6.4,0-11.7-5.2-11.7-11.7s5.2-11.7,11.7-11.7s11.7,5.2,11.7,11.7S92,161.5,85.5,161.5z
	 M283,199.4c-12.8,0-23.2-10.4-23.2-23.2c0-10.1,6.5-18.8,15.5-21.9l6.4,24.6l6.6-25.3c10.3,2.4,18,11.6,18,22.6
	C306.3,189,295.9,199.4,283,199.4z M480.6,161.5c-6.5,0-11.7-5.2-11.7-11.7s5.2-11.7,11.7-11.7c6.4,0,11.7,5.2,11.7,11.7
	S487,161.5,480.6,161.5z M415.9,353.7l69.8-160.5l70,160.5H415.9z"/>
</svg>
