<?xml version="1.0" encoding="utf-8"?>
<!-- Generator: Adobe Illustrator 21.1.0, SVG Export Plug-In . SVG Version: 6.00 Build 0)  -->
<svg version="1.1" id="Layer_2" xmlns="http://www.w3.org/2000/svg" xmlns:xlink="http://www.w3.org/1999/xlink" x="0px" y="0px"
	 viewBox="0 0 391.5 512" style="enable-background:new 0 0 391.5 512;" xml:space="preserve">
<g>
	<path d="M195.5,0.3L92.3,103.5l103.2,103.2l36.8-36.8l29.7-29.7l36.8-36.8L195.5,0.3z M195.5,133.2l-29.7-29.7l29.7-29.7l29.7,29.7
		L195.5,133.2z"/>
	<path d="M345,162.5h-51.2l-44.2,34.2v1.8h72.4l16,43H52.5l15.8-43h72.2v-2.8l-43.2-33.2H48.5l-48,79v218v51v1h390v-1v-51v-218
		L345,162.5z M338.5,459.5h-286v-166h286V459.5z"/>
	<polygon points="281.4,234.4 111.6,234.4 121.6,212.4 271.4,212.4 	"/>
</g>
</svg>
