<?xml version="1.0" encoding="utf-8"?>
<!-- Generator: Adobe Illustrator 21.1.0, SVG Export Plug-In . SVG Version: 6.00 Build 0)  -->
<svg version="1.1" id="Layer_1" xmlns="http://www.w3.org/2000/svg" xmlns:xlink="http://www.w3.org/1999/xlink" x="0px" y="0px"
	 viewBox="0 0 512 512" style="enable-background:new 0 0 512 512;" xml:space="preserve">
<path id="_x35_2" d="M256,0C114.6,0,0,114.6,0,256s114.6,256,256,256c141.4,0,256-114.6,256-256S397.4,0,256,0z M256,52.3
	c49.4,0,94.8,17.6,130,46.9L99.2,386c-29.3-35.3-46.9-80.6-46.9-130C52.3,143.5,143.5,52.3,256,52.3z M256,459.7
	c-44.3,0-85.3-14.1-118.7-38.2l284.3-284.2c24,33.4,38.2,74.4,38.2,118.7C459.7,368.5,368.5,459.7,256,459.7z"/>
</svg>
