<?xml version="1.0" encoding="utf-8"?>
<!-- Generator: Adobe Illustrator 21.1.0, SVG Export Plug-In . SVG Version: 6.00 Build 0)  -->
<svg version="1.1" id="Layer_2" xmlns="http://www.w3.org/2000/svg" xmlns:xlink="http://www.w3.org/1999/xlink" x="0px" y="0px"
	 viewBox="0 0 550 512" style="enable-background:new 0 0 550 512;" xml:space="preserve">
<g>
	<path d="M134.8,142.5h12.4l0.1,227.1h-12.5V142.5 M415.2,142.6v227.1h-12.4l-0.1-227.1H415.2 M111.3,100.9c-7.1,0-13,5-13,11.2
		v287.7c0,6.2,5.8,11.2,13,11.2h59.6c7.2,0,13-5,13-11.2l-0.1-129.5l182.3,0.1l0.1,129.5c0,6.2,5.8,11.2,13,11.2l59.6,0.1
		c7.1,0,13-5,13-11.2V112.3c0-6.2-5.8-11.2-13-11.2h-59.6c-7.2,0-13,5-13,11.2l0.1,132.5l-182.3-0.1l-0.1-132.5
		c0-6.2-5.8-11.2-12.9-11.2L111.3,100.9L111.3,100.9z"/>
	<path d="M55.7,160.5l-0.1,191.2H43.2l-0.1-191.2H55.7 M79.4,119H19.1c-7,0-12.6,5-12.5,11.2v116.1c-3.7,0-6.6,3.1-6.6,6.9v5.6
		c0,3.8,3,6.8,6.6,6.9l0.1,116.3c0,6.2,5.8,11.2,13,11.2l59.6,0.1c7.1,0,13-5,13-11.2l0.1-251.8C92.3,124,86.4,119,79.4,119
		L79.4,119z"/>
	<path d="M494.3,160.6h12.4l0.1,191h-12.4L494.3,160.6 M470.8,119.1c-7.1,0-13,5-13,11.2l0.1,251.7c0,6.2,5.8,11.2,13,11.2H531
		c6.8-0.1,12.4-5,12.4-11.2V265.9c3.7,0,6.6-3.1,6.6-6.9v-5.6c0-3.8-3-6.8-6.6-6.9l-0.1-116.2c0-6.2-5.8-11.2-13-11.2L470.8,119.1
		L470.8,119.1z"/>
</g>
</svg>
