<?xml version="1.0" encoding="utf-8"?>
<!-- Generator: Adobe Illustrator 21.1.0, SVG Export Plug-In . SVG Version: 6.00 Build 0)  -->
<svg version="1.1" id="Layer_2" xmlns="http://www.w3.org/2000/svg" xmlns:xlink="http://www.w3.org/1999/xlink" x="0px" y="0px"
	 viewBox="0 0 512 512" style="enable-background:new 0 0 512 512;" xml:space="preserve">
<path d="M507,128.5L456.5,78c4.3-4.3,4.1-11.3-0.3-15.7l-6.6-6.6c-2.3-2.3-5.2-3.4-8.1-3.4c-2.8,0-5.5,1-7.6,3.1L383.3,4.9
	C380,1.6,375.6,0,371,0c-5.6,0-11.4,2.3-15.9,6.9L320.9,41c-8.3,8.3-9.3,21-2,28.2l48.4,48.4l-7.1,7.1l-69.4-69.4
	c-3.3-3.3-7.7-4.9-12.3-4.9c-5.6,0-11.4,2.3-15.9,6.9l-34.1,34.1c-8.4,8.4-9.3,21.1-2.1,28.3l69.6,69.5L189.5,295.5L119.9,226
	c-3.3-3.3-7.7-4.9-12.3-4.9c-5.6,0-11.4,2.3-15.9,6.9l-34.2,34.1c-8.3,8.3-9.3,21-2,28.2l69.6,69.6l-7,7l-48.5-48.6
	c-3.3-3.3-7.7-4.9-12.3-4.9c-5.6,0-11.4,2.3-15.9,6.9L6.5,355.1c-8.1,8.1-8.8,20.5-1.5,27.7l50.5,50.5c-4.3,4.3-4.1,11.3,0.3,15.7
	l6.6,6.6c2.3,2.3,5.2,3.4,8.1,3.4c2.8,0,5.5-1,7.6-3.1l50.7,50.6c3.3,3.3,7.7,4.9,12.3,4.9c5.6,0,11.4-2.3,15.9-6.9l34.2-34.1
	c8.3-8.3,9.3-21,2-28.2L148.1,397l7.1-7.1l66,66c3.3,3.3,7.7,4.9,12.3,4.9c5.6,0,11.4-2.3,15.9-6.9l34.1-34.1
	c8.4-8.4,9.3-21.1,2.1-28.3l-66.1-66L326,219.3l66.1,66c3.3,3.3,7.7,4.9,12.3,4.9c5.6,0,11.4-2.3,15.9-6.9l34.2-34.1
	c8.3-8.3,9.3-21,2-28.2l-66.2-66.2l7.2-7.2l45.2,45.2c3.3,3.3,7.7,4.9,12.3,4.9c5.6,0,11.4-2.3,15.9-6.9l34.7-34.7
	C513.5,148.1,514.2,135.7,507,128.5z M141.9,460.2l-34.1-34.1l-22.6-22.6l-33.9-33.9l5.1-5.1l90.5,90.7L141.9,460.2z M239.3,404.7
	l-5,5L101.8,277.2l5-5l53,53l0.3,0.3l-0.1,0.1l29.8,29.7L239.3,404.7z M405.2,239l-49.5-49.5l-0.3-0.3l0.1-0.1l-29.8-29.7l-53-52.9
	l5-5L410.2,234L405.2,239z M455.8,146.5l-90.6-90.4l5-4.9l34,34l22.6,22.6l33.9,33.9L455.8,146.5z"/>
</svg>
