<?xml version="1.0" encoding="utf-8"?>
<!-- Generator: Adobe Illustrator 21.1.0, SVG Export Plug-In . SVG Version: 6.00 Build 0)  -->
<svg version="1.1" id="fill" xmlns="http://www.w3.org/2000/svg" xmlns:xlink="http://www.w3.org/1999/xlink" x="0px" y="0px"
	 viewBox="0 0 524.3 512" style="enable-background:new 0 0 524.3 512;" xml:space="preserve">
<g id="_x35_2_1_">
	<path d="M522.9,372.7l0-0.2c-3.7-28.8-11-57.1-18.1-84.4c-11.8-45.8-23-89.2-17.8-133c7.4-5.9,16.3-14.4,21-25.7
		c3.5-8.7,5.3-17.7,5.3-26.3v-33c0-13-2.8-23-8.6-30.8c-6.7-8.9-15.7-13.1-24.4-16.3l-0.9-0.3l-0.9-0.2
		c-34.2-5.8-69.2-11.3-103-16.6c-12.2-1.9-24.4-3.8-36.6-5.7L338.1,0h-0.8c-2,0-2.6,0.1-5.2,0.4l-0.6,0.1L134.2,53.8
		c-13.3,3.6-21.6,17-18.9,30.5l18.7,91.6c1.7,8.3,7.8,15.2,15.8,17.9l189.8,64.4c2.1,0.7,4.3,1.1,6.6,1.1c3.2,0,6.4-0.7,9.2-2.1
		c1,6.5,2.1,13.9,3.3,21.8l-0.6,0.1c-6.4,1.6-10.4,8.1-8.8,14.5l5.7,23.5c1.2,5.1,5.6,8.6,10.5,9.1c2.9,20.8,5.3,38.7,5.8,45.9
		c-1.4,1.3-3,2-5.6,3.3c-5.4,2.5-12.7,6-20.9,16.2c-9.8,12.3-6.3,35.3-0.4,51.3l0.2,0.4c22.1,51.7,44.7,69.1,89.5,69.1
		c8.7,0,18.9-0.6,33-1.9l0.9-0.1l0.9-0.2c24.4-6.8,42.4-28,50.4-59.9l0.1-0.6C524.3,424.3,525.5,397,522.9,372.7z M171.1,160
		l-10.7-54.8l152.8,46.6l8.4,58.9L171.1,160z M328.3,102L247,77.2l91.1-24.6c9.5,1.5,19.1,3,28.7,4.5l0.7,0.1
		c30.9,4.8,62.7,9.8,93.9,15.1v30.8c0,1.3-0.3,3.5-1.3,6.1c-0.4,0.6-1.8,2.3-5.4,5.2l-16.7,13.3l0,0.1L370,181.5l-5.3-37.1
		l-4.7-32.7L328.3,102z M468.6,438.5c-2.8,10.3-7.1,17.9-11.7,20.6c-9.7,0.8-16.9,1.2-22.9,1.2c-15.8,0-19.9-3.1-21.4-4.3
		c-4-3.1-10.7-11.2-19.8-32.2c-0.4-1.2-0.8-2.3-1-3.4c4.1-2.1,9.3-5.2,14.5-9.9l18.7-17l-1.8-25.2c-0.3-4.9-1.4-15.3-6.1-49.4
		l-0.1-0.7l0.2,0l-3.1-20.7l-2.7-19.1l-0.2,0l-1.1-7.2c-1.1-7.6-2.3-15.2-3.3-22l-4.2-27.4l31.7-25c2.5,35.9,11.4,70.5,20.1,104.2
		c6.6,25.6,13.5,52.1,16.8,77.6C473.3,397.5,472.3,418.7,468.6,438.5z"/>
	<rect x="169.1" y="122.8" transform="matrix(0.6825 -0.7309 0.7309 0.6825 -35.0241 169.3138)" width="16.6" height="4.3"/>
	<rect x="168.3" y="129.5" transform="matrix(0.6825 -0.7309 0.7309 0.6825 -37.6467 176.6948)" width="32.4" height="4.3"/>
	<rect y="260.6" width="147.5" height="38.1"/>
	<rect y="309.7" width="147.5" height="22.2"/>
	<rect y="348.5" width="147.5" height="32.7"/>
	<rect y="392.2" width="147.5" height="19.3"/>
	<rect y="422.7" width="147.5" height="46.6"/>
	<rect y="480.4" width="147.5" height="26.3"/>
	<rect y="233.8" width="147.5" height="11.3"/>
</g>
</svg>
