<?xml version="1.0" encoding="utf-8"?>
<!-- Generator: Adobe Illustrator 21.1.0, SVG Export Plug-In . SVG Version: 6.00 Build 0)  -->
<svg version="1.1" id="Layer_6" xmlns="http://www.w3.org/2000/svg" xmlns:xlink="http://www.w3.org/1999/xlink" x="0px" y="0px"
	 viewBox="0 0 512 512" style="enable-background:new 0 0 512 512;" xml:space="preserve">
<path d="M453.7,93.3c-11.1-13.5-23.6-25.9-37.3-36.8C372.5,21.1,316.7,0,256,0C195,0,138.9,21.4,94.9,57c-13.6,11-26,23.4-37.1,37
	C21.7,138.1,0,194.5,0,256s21.7,117.9,57.8,162c11.1,13.5,23.5,25.9,37.1,37c44,35.7,100,57,161.1,57c60.7,0,116.5-21.1,160.4-56.4
	c13.7-11,26.2-23.3,37.3-36.8C490.1,374.5,512,317.8,512,256S490.1,137.5,453.7,93.3z M52,256c0-47.2,16-90.6,42.9-125.2
	c3.9,5,7.6,10.3,11,15.6c-13.8,5.3-21.5,20.3-17.3,34.9c4.4,15.5,20.6,24.5,36.1,20.1l5.3-1.5c2.5,8.9,4.5,18.1,5.8,27.5l-5.2,0
	c-16-0.3-29.2,12.6-29.3,28.8c-0.1,16.2,12.8,29.3,29,29.4l5.4,0c-1.3,9.1-3.2,18-5.7,26.6l-6.3-1.5c-15.5-4-31.3,5.5-35.3,21.2
	c-3.5,14.3,4,28.6,17.3,34c-3.4,5.3-7,10.3-10.8,15.3C68,346.6,52,303.2,52,256z M256,460c-46.6,0-89.6-15.7-124-42
	c9.9-12.1,18.7-25.1,26.3-38.9l11.1,2.7c2.4,0.6,4.8,0.9,7.2,0.9c13,0,24.8-8.8,28.1-22.1c3.9-15.7-5.7-31.4-21.4-35.3l-2.8-0.7
	c3.5-12.5,6-25.4,7.6-38.6l3.7,0c0.2,0,0.4,0,0.5,0c15.8,0,28.7-12.8,28.8-28.8c0.1-16.1-12.8-29.3-29-29.4l-3.8,0
	c-1.6-14.4-4.4-28.5-8.2-42.1l3.8-1.1c12.8-3.5,21.2-15.1,21.2-27.8c0-2.6-0.4-5.3-1.1-8c-4.4-15.5-20.6-24.5-36.1-20.1l-10.1,2.9
	c-7.4-13.3-16-25.9-25.6-37.6c34.3-26.3,77.3-42,124-42c46.2,0,88.9,15.4,123.1,41.3c-9.8,11.9-18.5,24.7-26.1,38.2l-8.6-2.5
	c-15.6-4.4-31.7,4.6-36.1,20.2c-0.8,2.7-1.1,5.4-1.1,8.1c0,12.7,8.4,24.4,21.2,27.9l2.2,0.6c-3.9,13.8-6.7,28-8.3,42.6l-2.1,0
	c-16.2,0.1-29.2,13.3-29,29.5c0.1,16,13,28.9,28.8,28.9c0.2,0,0.4,0,0.5,0l2.2,0c1.6,13.3,4.2,26.4,7.8,39l-1.5,0.4
	c-15.7,3.9-25.3,19.7-21.4,35.4c3.3,13.3,15.1,22.2,28.1,22.2c2.4,0,4.8-0.3,7.2-0.9l10.2-2.5c7.6,13.6,16.3,26.4,26.2,38.4
	C344.9,444.6,302.2,460,256,460z M416.4,382.1c-3.8-4.8-7.3-9.8-10.7-14.9c13.7-5.1,21.7-19.8,18.1-34.4
	c-3.9-15.7-19.7-25.3-35.2-21.3l-7.6,1.9c-2.6-8.7-4.6-17.7-5.9-26.9l6.8,0c16.2-0.1,29.2-13.3,29-29.5s-13.3-29.2-29.3-28.9l-6.9,0
	c1.3-9.6,3.3-18.9,5.9-28l6.9,2c15.6,4.4,31.7-4.6,36.1-20.2c4.3-15.2-4.1-30.9-18.9-35.6c3.6-5.7,7.5-11.2,11.7-16.4
	C443.7,164.6,460,208.4,460,256S443.7,347.4,416.4,382.1z"/>
</svg>
