<?xml version="1.0" encoding="utf-8"?>
<!-- Generator: Adobe Illustrator 21.1.0, SVG Export Plug-In . SVG Version: 6.00 Build 0)  -->
<svg version="1.1" id="Layer_4" xmlns="http://www.w3.org/2000/svg" xmlns:xlink="http://www.w3.org/1999/xlink" x="0px" y="0px"
	 viewBox="0 0 512 512" style="enable-background:new 0 0 512 512;" xml:space="preserve">
<path d="M355.8,20.2C325.1,7.2,291.4,0,256,0C114.6,0,0,114.6,0,256c0,106.2,64.6,197.2,156.7,236c30.7,13,64.4,20.2,99.8,20.2
	c141.4,0,256-114.6,256-256C512.5,150,447.9,59,355.8,20.2z M460,256c0,15-1.6,29.7-4.7,43.8c-8.3-10.6-17.5-20.8-26.4-30.9
	c-19.6-21.9-39.8-44.3-52.5-70.8c34.2-1.2,59.6,1.5,76.9,5.8C457.7,220.6,460,238,460,256z M54.9,290.4c5.9-4.5,13.4-9.5,22.8-14.8
	c28.5-16.1,68-31.6,114.1-45.1c5.4-1.6,10.8-3.1,16.3-4.6c-4.4,36.5-29.2,74.4-55.2,114.2c-12.7,19.4-26.5,40.5-38.4,62.8
	C83.8,373.4,62.4,334.3,54.9,290.4z M97.1,128.1c20.8,0.6,47.2,5,69.2,16.9c14.5,7.9,25.4,18.1,32.5,30.6
	c-7.4,1.9-14.4,3.9-21.3,5.9c-31.8,9.2-82.8,26.1-124,49.2C58.3,192.1,73.9,156.9,97.1,128.1z M221.3,55c4.6,8.6,10,20.6,15.9,37.5
	c7,19.8,13.6,43.2,19.9,69.6c-2.4,0.5-4.9,1-7.3,1.5c-11.3-26.8-31.5-48.6-59-63.5c-14.5-7.8-29.6-13.1-43.6-16.5
	C169.3,69.5,194.4,59.6,221.3,55z M338.2,69.3c-15.2,20.4-27.5,47.5-25.7,83.6c-1.7,0.2-3.4,0.5-5.1,0.7c-6.9-29.9-14.3-56.1-22-78
	c-2.8-8.1-5.7-15.6-8.6-22.4C298.5,55.2,319.1,60.8,338.2,69.3z M429.2,148.2c-10.7-1-22.2-1.5-34.4-1.5c-6.7,0-13.6,0.1-20.6,0.4
	c-3.4,0.1-6.9,0.3-10.7,0.6c-0.4-20.9,6.7-37.2,18.9-51.9C400.8,110.4,416.7,128.2,429.2,148.2z M195.7,368.2l0.1-0.1
	c16.7-25.5,34-51.9,46.4-79.4c12.1-26.8,17.9-51.5,17.7-75.2c2.6-0.5,5.1-1.1,7.6-1.6c10.2,54.6,17.3,112.3,20,163.6
	c1.8,33.6,1.5,61.9-0.7,82.3c-10.1,1.5-20.3,2.3-30.8,2.3c-36.3,0-70.4-9.5-99.9-26.1C167.3,411.6,181.7,389.6,195.7,368.2z
	 M338.8,442.5c1.4-27.8,0.3-57.8-1.2-81.6c-3.2-49.6-10.2-105.1-19.9-157.6c1.7-0.2,3.5-0.5,5.2-0.7c15.2,41.7,43.1,72.8,67.8,100.5
	c18.1,20.2,33.9,37.8,41.5,55.6C410.8,395.5,378.1,425,338.8,442.5z"/>
</svg>
