<?xml version="1.0" encoding="utf-8"?>
<!-- Generator: Adobe Illustrator 21.1.0, SVG Export Plug-In . SVG Version: 6.00 Build 0)  -->
<svg version="1.1" id="Layer_3" xmlns="http://www.w3.org/2000/svg" xmlns:xlink="http://www.w3.org/1999/xlink" x="0px" y="0px"
	 viewBox="0 0 512 512" style="enable-background:new 0 0 512 512;" xml:space="preserve">
<g>
	<path d="M460,52v174.4c-10.4-7-22.3-13.4-35.7-19v-70.1c0-35.1-28.5-63.6-63.6-63.6H152.8c-35.1,0-63.6,28.5-63.6,63.6V207
		c-14,5.8-26.4,12.4-37.1,19.7V52H460 M512,0H0v315.3h57.1c-0.8-2.7-1.2-5.5-1.2-8.3c0-25.9,33.7-48.8,85.1-62.7v-107
		c0-6.4,5.2-11.6,11.6-11.6h207.9c6.4,0,11.6,5.2,11.6,11.6v107.2c51,13.9,84.2,36.7,84.2,62.4c0,2.8-0.4,5.5-1.2,8.3H512V0L512,0z"
		/>
	<path d="M256.2,254.8c-86.7,0-156.9,26.9-156.9,60c0,6,2.3,11.8,6.6,17.3c2.1,2.7,3.8,6.2,5.1,10.6l71.9,163
		c1.7,3.8,5.5,6.3,9.7,6.2l0.6,0c7-0.2,11.9-7.1,9.6-13.8l-9.8-28.3h26.1l5.6,33c0.8,5,5.1,8.6,10.2,8.7l0.5,0
		c6.5,0,11.4-5.8,10.3-12.2l-5.3-29.5h32.2l-5.1,29.5c-1.1,6.3,3.7,12.1,10.1,12.2h0.1c5,0,9.3-3.5,10.2-8.4l6.4-33.3H320
		l-10.6,27.7c-2.6,6.8,2.4,14.1,9.7,14.1h0.8c4.1,0,7.8-2.4,9.5-6.2c13.9-31.3,76-171.2,77.9-173.5c0.1-0.1-0.1-0.1-0.4-0.2
		c4.1-5.4,6.3-11,6.3-16.9C413.2,281.7,342.9,254.8,256.2,254.8z M256.2,268.4c72.5,0,131.4,19.6,131.4,43.9
		c0,24.2-58.8,43.9-131.4,43.9s-131.4-19.7-131.4-43.9C124.9,288,183.7,268.4,256.2,268.4z M158,386.2h-0.4l-3.1-5.4l-14.7-25.7
		c16.5,7,37.1,12.4,60.5,15.8l2.7,14.9h-45V386.2z M184.9,449l-19.7-41.8H207l8,41.8H184.9z M276.6,449h-40.2l-8-41.8h56.3
		L276.6,449z M224.7,385.9l-2.4-12.4c10.9,0.9,22.2,1.4,33.9,1.4c11.9,0,23.5-0.5,34.7-1.5l-2.3,12.4H224.7z M328,449h-30.1l8-41.8
		h41.8L328,449z M355.8,386.2h-0.4l-0.4-0.4h-45l2.7-15c23.5-3.5,44.3-9,60.8-16.1l-14.5,25.8L355.8,386.2z"/>
	<path d="M351,239.5v-92.3H162v92.2c28.1-5.7,60.1-9,94.2-9C290.5,230.4,322.8,233.7,351,239.5z"/>
</g>
</svg>
