<?xml version="1.0" encoding="utf-8"?>
<!-- Generator: Adobe Illustrator 21.1.0, SVG Export Plug-In . SVG Version: 6.00 Build 0)  -->
<svg version="1.1" id="Layer_1" xmlns="http://www.w3.org/2000/svg" xmlns:xlink="http://www.w3.org/1999/xlink" x="0px" y="0px"
	 viewBox="0 0 547.4 512" style="enable-background:new 0 0 547.4 512;" xml:space="preserve">
<path id="wampire-bold" d="M35.7,56.8c-4.2,2.8-5.5,7.4-4.3,12c1.3,4.7,4.7,7.9,9.8,8.2c16.3,1.4,59.7,10.4,70.2,33.5
	c5.9,12.6,2.4,30.3-12.1,51c-2.3,4-2,8.1-0.2,11.7c1.8,3.7,5.8,5.9,9.9,5.6c0,0,39.9-0.9,62.8,27.9c17.7,21.9,21.4,54.3,12.3,97.8
	c-1.4,7.1-7.1,17-9.4,21c-2.3,4-2.6,9.1,0.8,12.3c2.8,4.2,7.4,5.5,12,4.2c52-15.1,90.2-13,114.6,6.2c31.2,25.7,29.1,73.1,28.5,74.1
	c0.3,4.1,2.1,7.8,5.5,11c4,2.3,8.1,2,11.7,0.1c21.7-12.6,39.6-14.2,51.5-7.4l0,0c22.8,13,27.4,57.7,27.5,73.6
	c0.3,4.1,2.1,7.8,6.1,10c1,0.6,1,0.6,2,1.1c4.5,1.3,9.2,0,12.5-3.4c125.6-141.4,43.1-263.4,42.7-265c-2.4-2.7-5.4-4.4-8.9-5.1
	c-4.1,0.3-7.2,1.1-9.5,5.1c-1.1,2-37.6,49.6-102.8,19c16-11.9,38.7-33.2,51.7-65.2c1.3-4.5,0.6-10.2-3.4-12.4
	c-3.4-3.3-8.5-3.5-13.7-1.3c-13.7,7.9-37.7,15.3-46.4,7.7l-1-0.6c0,0-6.4-4.9-14.6-13.6c-7.2-8.1,4.4-33,12.8-45.3
	c2.3-4,2.6-9.1-0.3-13.3c-2.8-4.2-7.4-5.5-12-4.2c-33.3,9.9-56.9,30.6-69.6,45.8c-25.2-68.3,25.6-99.8,27.7-101.2
	c3.7-1.8,5.4-4.8,5.1-8.9s-1.1-7.2-3.5-9.9C301.5,37.5,188.3-56.1,35.7,56.8z M136.6,61.7c30.9-7.5,66.2-12.6,94.5-1.3
	c-33.9,53.7-7.9,129.4,12.2,149.4c21.2,21.2,44.7,11.9,58.3-2.2c4.9,10.4,12.9,17.9,21.8,21.8c-0.1-0.1-34.8,31.6-5,61.5
	C338,310.5,399,341.8,463.5,314c6.9,33.6-0.7,70.2-11.1,92.3c-5.4-12.2-37-38.3-75.5-34.5c-12.5-42.3-55.1-95.9-136.7-89.3
	c7.1-76.4-34.1-124.8-75.3-140.9C172.9,99.5,144.9,66.2,136.6,61.7z"/>
</svg>
