<?xml version="1.0" encoding="utf-8"?>
<!-- Generator: Adobe Illustrator 21.1.0, SVG Export Plug-In . SVG Version: 6.00 Build 0)  -->
<svg version="1.1" id="Layer_1" xmlns="http://www.w3.org/2000/svg" xmlns:xlink="http://www.w3.org/1999/xlink" x="0px" y="0px"
	 viewBox="0 0 512 512" style="enable-background:new 0 0 512 512;" xml:space="preserve">
<g>
	<g>
		<path d="M489,259.2H55.7v-207c0-10.9,8.7-19.6,19.6-19.6c5.5,0,10.3,2.2,13.6,6l20.2,20.1c-12,21.8-9.8,49,6.5,68.1h0.1
			c3.7,0,86.5-82.9,84.9-85c-11.3-9.4-25.2-14.1-38.9-14.1c-10.1,0-20.2,2.5-29.1,7.6l-20.2-20.1C102.5,5.5,89.4,0,75.3,0
			C46.4,0,23,23.4,23,52.3v207c-12.9,0.1-23,10.4-23,23.4C0,295.8,71.1,433,71.1,433c7,19.1,23.2,32.1,42.6,35.9l-4.3,11.4
			c-4.3,12,1.6,25.6,13.5,30c2.7,1.1,5.4,1.6,8.1,1.6c9.2,0,18.3-6,21.6-15.3l8.4-23.7l189.5,0.3l8.5,23.3
			c3.2,9.3,12.4,15.3,21.6,15.3c2.7,0,5.4-0.5,8.1-1.6c11.8-4.4,17.8-18,13.5-30l-4.3-11.4c18.9-3.8,35.6-16.9,42.6-35.9
			c0,0,71.7-137.3,71.7-150.3C512.2,269.5,502,259.2,489,259.2z M394.2,409l-1.5,3l-1.2,3.2c-0.6,1.6-2.5,2.6-4.1,2.9l-17,3.4h-19.8
			L161,421.1h-21.5l-15.8-3.1c-3-0.6-3.6-2.2-3.8-2.9l-1.1-3.1l-1.5-2.9c-0.2-0.3-15.5-29.9-31.6-62.2
			c-7.2-14.4-12.9-26.1-17.4-35.6h375.2c-4.6,9.5-10.3,21.2-17.5,35.5C409.8,379.1,394.4,408.7,394.2,409z"/>
	</g>
	<path d="M305.9,129.9c0-17.8,14.4-32.1,32.1-32.1c17.8,0,32.1,14.4,32.1,32.1S355.7,162,338,162
		C320.3,162.1,305.9,147.7,305.9,129.9z M352.2,233.4c-11.4,0-20.7-9.3-20.7-20.7s9.3-20.7,20.7-20.7c11.4,0,20.7,9.3,20.7,20.7
		C372.9,224.2,363.7,233.4,352.2,233.4z M402.3,192c-12.9,0-23.4-10.5-23.4-23.4s10.5-23.4,23.4-23.4s23.4,10.5,23.4,23.4
		C425.8,181.5,415.3,192,402.3,192z"/>
</g>
</svg>
