<?xml version="1.0" encoding="utf-8"?>
<!-- Generator: Adobe Illustrator 21.1.0, SVG Export Plug-In . SVG Version: 6.00 Build 0)  -->
<svg version="1.1" id="Layer_1" xmlns="http://www.w3.org/2000/svg" xmlns:xlink="http://www.w3.org/1999/xlink" x="0px" y="0px"
	 viewBox="0 0 736 512" style="enable-background:new 0 0 736 512;" xml:space="preserve">
<style type="text/css">
	.st0{fill-rule:evenodd;clip-rule:evenodd;}
</style>
<g>
	<g>
		<path class="st0" d="M565,0L368,0L171.1,0C87.7,0,20,66.4,20,148.4v139.5c0,0,33.1-78.6,135-88.9c0-0.2,0-0.7,0-1
			c1.8-37.5,32.9-67.4,71.6-67.4h47.8c37.3,0,67.8,27.8,71.6,63.4c0.1,0.8,0,2,0,2l22-0.1l22,0.1c0,0-0.1-1.2,0-2
			c3.8-35.6,34.3-63.4,71.6-63.4h47.8c38.7,0,69.7,29.9,71.6,67.4c0,0.3,0,0.8,0,1c101.8,10.3,135,88.9,135,88.9V148.4
			C716,66.4,648.4,0,565,0z M664,169c0,0-20.5-10.9-40-14c-20.8-46.3-61.8-77-122-77h-32c-36.4,0-79.5,12.6-102,44
			c-28.1-33.2-64.7-44-103-44h-35c-54.8,0-101.4,33.6-118,77c-19.5,3.9-40,14-40,14s0-19.1,0-20c0-64.9,34.3-97,97-97h398
			c64.9,0,97,32.1,97,97C664,151.9,664,169,664,169z M565,226.2L369,226v0l-1,0l-1,0v0l-196,0.2C87.7,226.2,20,292.6,20,374.6V512
			h30.2c0,0,18.1-59,317.8-59c302.5,0,317.8,59,317.8,59H716V374.6C716,292.6,648.4,226.2,565,226.2z M96.6,334.6
			c0-39,55.6-70.7,124.1-70.7L367,264v0l1,0l1,0v0l146.3-0.1c68.5,0,124.1,31.6,124.1,70.7v4.7h-19.8c0,0,14.1-25.6-213.8-28.1
			c0,0,0-0.1,0-0.2c-0.1-6-4.9-10.8-10.9-10.8l-53.2,0c-6,0-10.8,4.8-10.9,10.8c0,0.1,0,0.2,0,0.2c-228.7,2.4-214.4,28.1-214.4,28.1
			H96.6V334.6z M664,436.5C630.9,422.9,549.3,401,368,401c-181.5,0-262.8,22.2-295.9,36.1c0-0.3-0.1-52.1-0.1-52.1s20.2,7,32,7
			c32.7,0,44.5-13.5,51-17c10.9-5.8,95-10.1,157-11c21.8,0,42.1-3,48-12c0.1,0,6.6,0.1,16,0c3.6,6.3,21.9,12,45,12
			c70.1,0,131.9,2.8,161,11c11.7,15,40.5,16,54,16c8,0,23.3-4.4,28-6C664,385,664,436.5,664,436.5z"/>
	</g>
</g>
</svg>
