<?xml version="1.0" encoding="utf-8"?>
<!-- Generator: Adobe Illustrator 21.1.0, SVG Export Plug-In . SVG Version: 6.00 Build 0)  -->
<svg version="1.1" id="Layer_1" xmlns="http://www.w3.org/2000/svg" xmlns:xlink="http://www.w3.org/1999/xlink" x="0px" y="0px"
	 viewBox="0 0 655 512" style="enable-background:new 0 0 655 512;" xml:space="preserve">
<g>
	<g>
		<path d="M483.4,0H172.6C88.6,0,20.5,66,20.5,148v124c0,0,24.8-85,127-85c13.4,0,50,0,50,0s0-1.8,0-3c0-49.7,41.2-90,92-90
			c0-5.5,4.5-10,10-10h57c5.5,0,10,4.5,10,10c50.8,0,92,40.3,92,90c0,1.2,0,3,0,3s36.6,0,50,0c102.2,0,127,85,127,85V148
			C635.5,66,567.4,0,483.4,0z M583.5,152c-15-10.1-50-17-65-17c-9,0-21.8,0-22,0c-8.2-41.8-57.3-73.1-107-80
			c-2.8-8.5-11.3-12.9-20-13c-3.3-0.1-80.5,0-84,0c-9.4,0-16.4,5.5-19,13c-22.5,0-94.2,18.7-107,80c-0.7,0-10.4,0-20,0
			c-17.1,0-54.3,7.6-67,17c0-0.1,0-0.1,0-0.1c0-1.6,0-6,0-16.9c0-21.7,32.3-83,97-83c10.4,0,54.7-4,85.9-4c0-10.8,14.2-18,23.1-18
			c18.6,0,83.3,0,99,0c8.8,0,23.1,7.1,23.1,18c24.9,0,66.9,4,82.9,4c58.9,0,100,47.5,100,93C583.5,147.7,583.5,150.8,583.5,152z
			 M483.5,217h-118h-75h-118c-83.9,0-152,66.8-152,149v146h31c0,0,11-53.4,276.5-58.6c265.5,5.2,276.5,58.6,276.5,58.6h31V366
			C635.5,283.8,567.4,217,483.5,217z M101.5,310.6c0-34.3,42.9-62.2,95.9-62.2l130.6-0.3l130.6,0.3c53,0,95.9,27.8,95.9,62.2v4.2
			h-19.2c0,0-0.7-18.9-169.8-23.7c0,0,0,0,0,0c0-6.1-4.9-11-11-11h-52.9c-6.1,0-11,4.9-11,11v0c-169.1,4.7-169.8,23.7-169.8,23.7
			h-19.2V310.6z M327.5,402c-170.6,0-255,34-255,34s0-30.5,0-43c0-35.4,0-36,0-36s14.5,10,37,10c31.9,0,39.5-10.9,46-13
			c39.6-7.1,95.2-10.7,124-10c19,0.5,35-12,35-12h28c0,0,6.9,10.4,25,11c27.9,0.9,88,3.6,129,10c11.7,1.8,19.5,14,49,14
			c22.1,0,38-9,38-9s0,0.4,0,78.2C549.9,423.6,471.3,402,327.5,402z"/>
	</g>
</g>
</svg>
