<?xml version="1.0" encoding="utf-8"?>
<!-- Generator: Adobe Illustrator 21.1.0, SVG Export Plug-In . SVG Version: 6.00 Build 0)  -->
<svg version="1.1" id="bell-bold_1_" xmlns="http://www.w3.org/2000/svg" xmlns:xlink="http://www.w3.org/1999/xlink" x="0px"
	 y="0px" viewBox="0 0 404.8 512" style="enable-background:new 0 0 404.8 512;" xml:space="preserve">
<g>
	<path d="M380.7,368.5L380.7,368.5c0,0-48.7-45.5-49.1-98.3c0-90.1,17-139.4-34-190.3c-13.1-13.1-29.9-21.2-45.6-26
		c1.5-33.2-23-53.6-49.1-53.6c-26.1,0-50.7,20.5-49.2,53.7c-15.7,4.8-32.4,12.8-45.6,25.9c-50.9,50.9-34,100.2-34,190.3
		c3.7,52.7-50,98.3-50,98.3S0,386.9,0,414.5c0,53.5,90.6,96.9,202.4,96.9s202.4-43.3,202.4-96.9
		C404.8,386.9,380.7,368.5,380.7,368.5z M203.3,28.1c11.6,0,21,9.4,21,21c0,11.6-9.4,21-21,21c-11.6,0-21-9.4-21-21
		C182.3,37.5,191.7,28.1,203.3,28.1z M314.8,439.8c-30.5,12.6-70.5,19.6-112.4,19.6c-41.9,0-81.8-7-112.3-19.6
		c-25.8-10.7-35.5-21.6-37.8-25.4c0.8-2.4,5.4-6.3,5.4-6.3c7.5-6.4,72.4-63.8,68.3-139.6c0-20-0.8-38-1.6-53.9
		c-2.6-57.7-2.3-75.3,20.3-98c3.6-3.6,8.5-6.8,14.5-9.4c12.2,9.3,27.5,14.8,44,14.8c16.4,0,31.5-5.4,43.8-14.6
		c5.7,2.6,10.3,5.7,13.8,9.2l0,0l0,0c22.7,22.6,22.9,40.2,20.3,97.8c-0.8,16.4-1.6,34.9-1.6,55.7v0.4c0.6,73,58.6,129.3,65.2,135.5
		c0,0,4.4,2.8,7.7,8.3C350.3,418.3,340.6,429.2,314.8,439.8z"/>
	<path d="M203.4,166.1c-11.6,0-20.9,3.3-27.5,9.8c-6.6,6.4-10.1,14.4-10.1,23.7c0,1.4,20.8,121.4,20.8,124.6c0,5.8,0.5,8.3,2,10
		c2,2.4,5.4,2.7,8,2.7h11.3c2.5,0,5.9-0.4,8.1-2.8c1.5-1.8,2-4.4,2-11.1c0.1-4.6,21.1-120,21.1-122.2c0-9.2-3.1-17.2-9.1-24.1
		C223.7,169.6,214.9,166.1,203.4,166.1L203.4,166.1z M202.3,347.9c-17.6,0-31.9,14.2-31.9,31.7s14.3,31.7,31.9,31.7
		s31.9-14.2,31.9-31.7C234.2,362.1,220,347.9,202.3,347.9L202.3,347.9z"/>
</g>
</svg>
