<?xml version="1.0" encoding="utf-8"?>
<!-- Generator: Adobe Illustrator 21.1.0, SVG Export Plug-In . SVG Version: 6.00 Build 0)  -->
<svg version="1.1" id="bell-rotate-slash" xmlns="http://www.w3.org/2000/svg" xmlns:xlink="http://www.w3.org/1999/xlink" x="0px"
	 y="0px" viewBox="0 0 471.7 512" style="enable-background:new 0 0 471.7 512;" xml:space="preserve">
<g>
	<path d="M455.7,195.5c-19.7-19.7-50.2-15.7-50.2-15.7s-67.4,2.3-105.6-35.2c-8.2-8.2-15.7-16.1-22.8-23.6v68
		c18.3,15,29.7,19,29.7,19s-12.8,8.5-29.7,21.8v132.8c13-0.3,26.5-5.6,38.7-17.8c29.4-29.4,17.7-64.2-0.5-82.3
		c23.5-14.5,87.2-54.9,107.2-34.7c16.3,16.3-0.8,85.2-69.7,154.1c-26.2,26.2-52.4,44.8-75.8,57v44.9c33.5-15.4,69.7-40.7,103-74.1
		C460.1,329.8,494,233.8,455.7,195.5z"/>
	<path d="M184.2,40.4c-12.9-4.9-27.4-7.6-44.7-7.6c-18.9,0-36.5,6.2-51.2,14c-22.8-24.7-54.9-21.9-73.6-3.1
		C-3.9,62.4-7,94.6,17.9,117.2c-7.8,14.7-14.1,32.4-14.1,51.2c0,72.9,47.5,96,111.9,160.5c40.4,35,34.6,106.1,34.6,106.1
		s-4.1,30.4,15.7,50.2c5.1,5.1,11.2,8.9,18.2,11.5V512h46.5V0h-46.5V40.4z M34.9,93.2c-8.3-8.3-8.3-21.8,0-30.1
		c8.3-8.4,21.8-8.3,30.2,0s8.3,21.8,0,30.1C56.7,101.5,43.1,101.5,34.9,93.2z M181.6,333.2c0,0-24.3-39-94-95.1
		c-27.7-23-42.1-47.9-36.5-81.2c11.4,2.4,35.7-3.7,54.3-22.4c18.6-18.6,24.4-43.2,22.4-54.3c22.6-4.2,39.8,1.6,56.4,13.8v235.4
		C182.5,331.8,181.6,333.2,181.6,333.2z"/>
</g>
</svg>
