<?xml version="1.0" encoding="utf-8"?>
<!-- Generator: Adobe Illustrator 21.1.0, SVG Export Plug-In . SVG Version: 6.00 Build 0)  -->
<svg version="1.1" id="bell-bold_1_" xmlns="http://www.w3.org/2000/svg" xmlns:xlink="http://www.w3.org/1999/xlink" x="0px"
	 y="0px" viewBox="0 0 404.8 512" style="enable-background:new 0 0 404.8 512;" xml:space="preserve">
<g id="bell-bold">
	<g>
		<path d="M380.7,368.5c0,0-48.7-45.5-49.1-98.3c0-90.1,17-139.4-34-190.3c-13.1-13.1-29.9-21.2-45.6-26c1.5-33.2-23-53.6-49.1-53.6
			S152.2,20.8,153.7,54c-15.7,4.8-32.4,12.8-45.6,25.9c-50.9,50.9-34,100.2-34,190.3c3.7,52.7-50,98.3-50,98.3S0,386.9,0,414.5
			c0,53.5,90.6,96.9,202.4,96.9s202.4-43.3,202.4-96.9C404.8,386.9,380.7,368.5,380.7,368.5z M203.3,28.1c11.6,0,21,9.4,21,21
			s-9.4,21-21,21s-21-9.4-21-21S191.7,28.1,203.3,28.1z M118,187.1c-3.3-35.4,4-62.9,31.3-82.2c6.3,9.7,27.5,22.3,53.6,22.3
			s47.2-13.1,53.6-22.3c36.9,25.4,32.2,63.4,29.5,119.7c-7.6,65.4,6.3,94.7,6.3,94.7s-44.9-8.9-89.3-8.9c-43.2,0-85.8,8.9-85.8,8.9
			S127.4,275.1,118,187.1z M202.9,473.1c-96.2,0-156.4-36.9-156.4-59c0-27.4,73-44.3,99.1-50.9c0,28.3,18.6,58,57.2,58
			c41.1,0,57.2-32.4,57.2-57.9c26.6,6.3,99.2,22.6,99.2,50.8C359.2,436.9,299.1,473.1,202.9,473.1z"/>
	</g>
</g>
</svg>
