<?xml version="1.0" encoding="utf-8"?>
<!-- Generator: Adobe Illustrator 21.1.0, SVG Export Plug-In . SVG Version: 6.00 Build 0)  -->
<svg version="1.1" id="Layer_1" xmlns="http://www.w3.org/2000/svg" xmlns:xlink="http://www.w3.org/1999/xlink" x="0px" y="0px"
	 viewBox="0 0 550 512" style="enable-background:new 0 0 550 512;" xml:space="preserve">
<path d="M491.1,71.7c-28.4,0-52.2,20.2-57.7,47h-97.6V82.7c0-6.1-5.6-12.5-12.5-12.5h-97.5c-6.1,0-12.5,6.4-12.5,12.5v35.9h-96.8
	c-5.5-26.9-29.2-47.1-57.7-47.1C26.4,71.6,0,98,0,130.5c0,32.5,26.4,58.9,58.9,58.9c28.8,0,52.8-20.7,57.9-48h96.6l0.6,1.8
	c-64.3,25-107.1,86.9-107.1,156.4l-0.5,25.9h-33c-7,0-12.5,6.4-12.5,12.5v95.3c0,6.1,6.4,12.5,12.5,12.5h96
	c6.1,0,12.5-6.4,12.5-12.5v-95.5c0-6.9-5.7-12.5-12.5-12.5H129l-0.1-25.9c0-57.5,33-108.9,84.4-132.4v11c0,6.1,6.4,12.5,12.5,12.5
	h39l-0.1,20.5h-30.1c-6.9,0-12.5,5.6-12.5,12.5v73.3c0,6.9,5.6,12.5,12.5,12.5H316c6.9,0,12.5-5.6,12.5-12.5v-73.4
	c0-6.8-5.7-12.5-12.5-12.5h-28.6l-0.4-20.5h36.3c6.2,0,12.5-6.3,12.5-12.5v-11.7c51.4,23.4,85.2,74.7,85.2,132.5l-0.1,26.7
	c0,0-39.3,0-40.4,0c-6.9,0-12.5,5.6-12.5,12.5v95.3c0,6.9,5.6,12.5,12.5,12.5h96c7,0,12.5-5.6,12.5-12.5v-95.4
	c0-6.9-5.5-12.5-12.5-12.5h-33l-0.5-26.6c0-36.2-11.4-70.7-32.8-99.8c-19.1-25.8-44.8-45.5-74.5-56.9v-0.7h97.3
	c5,27.4,29,48.2,57.9,48.2c32.5,0,58.9-26.4,58.9-58.9C550,98,523.6,71.7,491.1,71.7z M58.9,147.4c-9.3,0-16.9-7.6-16.9-16.9
	c0-9.3,7.6-16.9,16.9-16.9c9.3,0,16.9,7.6,16.9,16.9C75.8,139.8,68.2,147.4,58.9,147.4z M143.1,363.5v44H99v-44H143.1z M290.5,246.9
	v27.2h-30.8v-27.2H290.5z M297.8,152.3h-46.2v-44.8h46.2V152.3z M450.3,363.5v44h-44v-44H450.3z M491.1,147.5
	c-9.3,0-16.9-7.6-16.9-16.9c0-9.3,7.6-16.9,16.9-16.9c9.3,0,16.9,7.6,16.9,16.9C508,139.9,500.4,147.5,491.1,147.5z"/>
</svg>
