<?xml version="1.0" encoding="utf-8"?>
<!-- Generator: Adobe Illustrator 21.1.0, SVG Export Plug-In . SVG Version: 6.00 Build 0)  -->
<svg version="1.1" id="Layer_2" xmlns="http://www.w3.org/2000/svg" xmlns:xlink="http://www.w3.org/1999/xlink" x="0px" y="0px"
	 viewBox="0 0 512 512" style="enable-background:new 0 0 512 512;" xml:space="preserve">
<g>
	<path d="M495.7,265.2c-30.5-53.8-114-142-119-146.7c-16.4-15.5-27.5-39.7-53.7-39.7c-23.3,0-40.4,18.9-42.5,33.5
		c0,19.5,0,28.6,0,28.6s-10-7-22.6-7c-0.6,0-1.2,0-1.8,0.1c-0.6,0-1.2-0.1-1.8-0.1c-12.6,0-22.6,7-22.6,7s0-9.2,0-28.6
		c-2.1-14.6-19.2-33.5-42.5-33.5c-26.2,0-37.4,24.3-53.7,39.7c-5,4.8-88.9,93.5-119.2,147.2C5.9,282.6,0,302.4,0,323.6
		c0,62.1,50.3,112.3,112.3,112.3c62.1,0,112.3-50.3,112.3-112.3c0-3-0.1-5.9-0.3-8.9c12.9,8.8,26.2,9.6,30.4,9.6c0.9,0,1.4,0,1.4,0
		v0.1c0,0,0.5,0,1.4,0c4.2,0,17.4-0.8,30.4-9.6c-0.2,2.9-0.3,5.9-0.3,8.8c0,62.1,50.3,112.3,112.3,112.3
		c62.1,0,112.3-50.3,112.3-112.3C512.1,302.2,506.1,282.2,495.7,265.2z M204.3,156.7l-18.8,135l3.1,34.8c0.2,1.7,0.2,3.6,0.2,5.4
		c0,18.1-8,35.1-22.3,47.8c-14.4,12.8-33.6,19.8-53.9,19.8s-39.5-7.1-53.9-19.8c-14.4-12.7-22.3-29.7-22.3-47.8
		c0-12.3,3.8-24.3,10.9-34.8l0.1-0.2l0.1-0.2C71.6,258.8,149.3,146.1,155,141.1c4.4-3.7,8-7.6,11.7-11.3
		c9.3-9.9,13.8-13.9,20.7-13.9c9.4,0,15.8,6.9,17.1,10.1v19.7h0.1L204.3,156.7z M256.8,273.4c-17.7,0-32.1-14.3-32.1-32.1
		s14.3-32.1,32.1-32.1c17.8,0,32.1,14.3,32.1,32.1S274.5,273.4,256.8,273.4z M453.7,379.7c-14.4,12.8-33.5,19.8-53.9,19.8
		s-39.5-7.1-53.9-19.8c-14.4-12.8-22.3-29.7-22.3-47.8c0-1.8,0.1-3.6,0.2-5.4l3.1-34.8l-18.8-135l-0.2-11h0.1V126
		c1.3-3.2,7.6-10.1,17.1-10.1c6.9,0,11.4,4.1,20.7,13.9c3.6,3.8,7.3,7.7,11.7,11.3c5.7,5,83.3,117.7,107.4,155.5l0.1,0.2l0.1,0.2
		c7.1,10.5,10.9,22.6,10.9,34.8C476,349.9,468.1,366.9,453.7,379.7z"/>
	<path d="M111.3,273.4c-32,0-58.1,26-58.1,58.1s26,58.1,58.1,58.1c32,0,58.1-26,58.1-58.1S143.4,273.4,111.3,273.4z"/>
	<path d="M402.2,273.4c-32,0-58.1,26-58.1,58.1s26,58.1,58.1,58.1c32,0,58.1-26,58.1-58.1S434.2,273.4,402.2,273.4z"/>
</g>
</svg>
