<?xml version="1.0" encoding="utf-8"?>
<!-- Generator: Adobe Illustrator 21.1.0, SVG Export Plug-In . SVG Version: 6.00 Build 0)  -->
<svg version="1.1" id="Layer_2" xmlns="http://www.w3.org/2000/svg" xmlns:xlink="http://www.w3.org/1999/xlink" x="0px" y="0px"
	 viewBox="0 0 492 512" style="enable-background:new 0 0 492 512;" xml:space="preserve">
<g id="_x35_2">
	<path d="M330.8,37.7c-0.1-0.4-0.2-0.9-0.3-1.4c6.9-1.1,12.3-8.4,9.8-16.6C336.6,7.5,323.9,0,323.9,0s-4.4,11.5-6.3,20.7
		c-1.6,8.1,2.3,14.4,8.7,15.6c0,0.5-0.1,1-0.1,1.5c-13.6,0.4-24.1,2.9-24.1,5.9c0,3.3,12.5,6,28,6s28-2.7,28-6
		C358,40.5,345.9,37.8,330.8,37.7z M327.5,28.4c0,0-0.8,2.5-1.2,7.8c-3.6-1.2-5.8-6.1-4.8-12.3c1.1-7.3,3.8-16.4,3.8-16.4
		s7.7,5.9,10,15.7c1.4,5.9-1.2,11.2-4.7,12.8c-0.6-2.5-1.1-5.4-1.2-7.6C328.4,26.5,327.5,28.4,327.5,28.4z"/>
	<path d="M162.8,37.7c-0.1-0.4-0.2-0.9-0.3-1.4c6.9-1.1,12.3-8.4,9.8-16.6C168.6,7.5,155.9,0,155.9,0s-4.4,11.5-6.3,20.7
		c-1.6,8.1,2.3,14.4,8.7,15.6c0,0.5-0.1,1-0.1,1.5c-13.6,0.4-24.1,2.9-24.1,5.9c0,3.3,12.5,6,28,6s28-2.7,28-6
		C190,40.5,177.9,37.8,162.8,37.7z M159.5,28.4c0,0-0.8,2.5-1.2,7.8c-3.6-1.2-5.8-6.1-4.8-12.3c1.1-7.3,3.8-16.4,3.8-16.4
		s7.7,5.9,10,15.7c1.4,5.9-1.2,11.2-4.7,12.8c-0.6-2.5-1.1-5.4-1.2-7.6C160.4,26.5,159.5,28.4,159.5,28.4z"/>
	<path d="M246.8,37.7c-0.1-0.4-0.2-0.9-0.3-1.4c6.9-1.1,12.3-8.4,9.8-16.6C252.6,7.5,239.9,0,239.9,0s-4.4,11.5-6.3,20.7
		c-1.6,8.1,2.3,14.4,8.7,15.6c0,0.5-0.1,1-0.1,1.5c-13.6,0.4-24.1,2.9-24.1,5.9c0,3.3,12.5,6,28,6s28-2.7,28-6
		C274,40.5,261.9,37.8,246.8,37.7z M243.5,28.4c0,0-0.8,2.5-1.2,7.8c-3.6-1.2-5.8-6.1-4.8-12.3c1.1-7.3,3.8-16.4,3.8-16.4
		s7.7,5.9,10,15.7c1.4,5.9-1.2,11.2-4.7,12.8c-0.6-2.5-1.1-5.4-1.2-7.6C244.4,26.5,243.5,28.4,243.5,28.4z"/>
	<path d="M85.5,272h321c7.5,0,13.5-6,13.5-13.5v-34.4v-42.2v-1v-5.8v-17.9c0-13.9-11.3-25.2-25.2-25.2H358V48.2c0,3.3-12.5,6-28,6
		s-28-2.7-28-6V132h-28V48.2c0,3.3-12.5,6-28,6s-28-2.7-28-6V132h-28V48.2c0,3.3-12.5,6-28,6s-28-2.7-28-6V132H97.2
		C83.3,132,72,143.3,72,157.2v17.9v5.8v1v42.2v34.4C72,266,78,272,85.5,272z M117,237l0-5.1c1.1,0.1,2.2,0.1,3.4,0.1
		c16.4,0,31.3-6.5,42.3-17c11,10.5,25.9,17,42.3,17c16.2,0,30.9-6.3,41.9-16.7c10.9,10.4,25.7,16.7,41.9,16.7s30.9-6.3,41.8-16.7
		c10.9,10.4,25.7,16.7,41.9,16.7c0.8,0,1.7,0,2.5-0.1v5.1H117z M375,167.2v32c-0.7,0-1.3,0.1-2,0.1c-12.2,0-22.6-7.7-26.6-18.4
		c-2.3-6.1-8.3-10-14.8-10h-1.5c-8.1,0-14.4,6-15.7,13.3c-4.8,9-14.2,15.1-25.1,15.1c-12.2,0-22.5-7.7-26.6-18.4
		c-2.3-6.1-8.3-10-14.8-10h-1.5c-8.1,0-14.5,6-15.7,13.3c-4.7,9-14.2,15.1-25.1,15.1c-12.2,0-22.5-7.7-26.6-18.4
		c-2.3-6.1-8.3-10-14.8-10h-1.7c-3.3,0-6.4,0.9-9,2.7c-2.6,1.7-4.6,4.3-5.8,7.3c-4.1,10.8-14.4,18.4-26.6,18.4c-1.4,0-2.7-0.1-4-0.3
		l0.1-32C117.2,167,375,167.1,375,167.2z"/>
	<path d="M472.9,292H19.1C8.5,292,0,300.5,0,311.1v69.2v1.2v30.8V493c0,10.5,8.5,19,19.1,19H473c10.5,0,19.1-8.5,19.1-19.1v-80.7
		v-30.8v-1.2V311C492,300.5,483.5,292,472.9,292z M440,344v49.4c-6,3.8-13.2,6.1-20.8,6.1c-16.6,0-30.7-10.4-36.2-25
		c-3.2-8.3-11.3-13.6-20.2-13.6h-2.1c-11.1,0-19.7,8.2-21.4,18.1c-6.5,12.3-19.4,20.6-34.2,20.6c-16.6,0-30.7-10.4-36.2-25
		c-3.2-8.3-11.3-13.6-20.2-13.6h-2.1c-11.1,0-19.7,8.2-21.4,18.1c-6.5,12.3-19.4,20.6-34.2,20.6c-16.6,0-30.7-10.4-36.2-25
		c-3.2-8.3-11.3-13.6-20.2-13.6h-2.3c-4.4,0-8.7,1.3-12.2,3.7c-3.5,2.3-6.3,5.8-7.9,9.9c-5.5,14.6-19.7,25-36.2,25
		c-9.1,0-17.4-3.1-24-8.3V344H440z M52,460v-19.2c7.3,2.1,15,3.2,23,3.2c22.3,0,42.6-8.8,57.5-23.2c14.9,14.4,35.2,23.2,57.5,23.2
		c22.1,0,42.1-8.6,57-22.7c14.9,14.1,34.9,22.7,57,22.7c22.1,0,42.1-8.6,57-22.7c14.9,14.1,34.9,22.7,57,22.7c7.6,0,15-1,22-2.9V460
		H52z"/>
</g>
</svg>
