<?xml version="1.0" encoding="utf-8"?>
<!-- Generator: Adobe Illustrator 21.1.0, SVG Export Plug-In . SVG Version: 6.00 Build 0)  -->
<svg version="1.1" id="Layer_2" xmlns="http://www.w3.org/2000/svg" xmlns:xlink="http://www.w3.org/1999/xlink" x="0px" y="0px"
	 viewBox="0 0 502.3 512" style="enable-background:new 0 0 502.3 512;" xml:space="preserve">
<g id="_x35_2">
	<path d="M251.2,104.6c-73.5,0-133.3,54.8-133.3,122.2s59.8,122.2,133.3,122.2c73.5,0,133.3-54.8,133.3-122.2
		C384.4,159.4,324.6,104.6,251.2,104.6z M251.2,336.3c-65.9,0-119.5-49.2-119.5-109.5c0-60.4,53.6-109.6,119.5-109.6
		c65.9,0,119.5,49.1,119.5,109.6C370.7,287.2,317.1,336.3,251.2,336.3z"/>
	<polygon points="240.1,94.4 251.2,89.1 262.2,94.4 260.1,83.2 269,75.2 256.7,73.6 251.2,63.3 245.6,73.6 233.3,75.2 242.2,83.2 	
		"/>
	<polygon points="165.1,106.5 169.4,117.2 176.1,107.6 188.5,107.1 180.6,98.3 183.9,87.3 172.4,91.5 162,85.2 162.8,96.6 
		153,103.7 	"/>
	<polygon points="99,165.2 111,162.1 120.6,169.4 121.1,157.9 131.7,151.8 120,147.9 116.9,136.8 109.2,145.8 96.7,145 103.7,154.5 
			"/>
	<polygon points="101,226.8 106.8,216.7 94.5,218.6 85.8,210.4 84,221.7 72.8,226.8 84,231.8 85.8,243.1 94.5,234.9 106.8,236.9 	
		"/>
	<polygon points="120.6,284.2 111,291.5 99,288.4 103.7,299 96.7,308.5 109.2,307.8 116.9,316.7 120,305.7 131.7,301.7 121.1,295.6 
			"/>
	<polygon points="176.1,346 169.4,336.3 165.1,347 153,349.9 162.8,356.9 162,368.3 172.4,362 183.9,366.2 180.6,355.2 188.5,346.4 
			"/>
	<polygon points="262.2,359.1 251.2,364.4 240.1,359.1 242.2,370.4 233.3,378.3 245.6,380 251.2,390.2 256.7,380 269,378.3 
		260.1,370.4 	"/>
	<polygon points="337.2,347 332.9,336.3 326.2,346 313.8,346.4 321.8,355.2 318.4,366.2 330,362 340.3,368.3 339.5,356.9 
		349.3,349.9 	"/>
	<polygon points="403.3,288.4 391.3,291.5 381.7,284.2 381.2,295.6 370.7,301.7 382.4,305.7 385.4,316.7 393.1,307.8 405.6,308.5 
		398.7,299 	"/>
	<polygon points="418.3,221.7 416.5,210.4 407.8,218.6 395.5,216.7 401.3,226.8 395.5,236.9 407.8,234.9 416.5,243.1 418.3,231.8 
		429.5,226.8 	"/>
	<polygon points="381.7,169.4 391.3,162.1 403.3,165.2 398.7,154.5 405.6,145 393.1,145.8 385.4,136.8 382.4,147.9 370.7,151.8 
		381.2,157.9 	"/>
	<polygon points="326.2,107.6 332.9,117.2 337.2,106.5 349.3,103.7 339.5,96.6 340.3,85.2 330,91.5 318.4,87.3 321.8,98.3 
		313.8,107.1 	"/>
	<path d="M284,223c12.2-4.3,23.2-12.3,23.2-27.1c0-17.2-13.1-24.6-28.1-28.4c0-7,0-14,0-21c-7,0-14.1,0-21.1,0c0,6.6,0,13.1,0,19.7
		c-4.5-0.2-9.8,0.3-13.9-0.3c0-6.5,0-13,0-19.4c-7,0-14.1,0-21.1,0c0,6.6,0,13.1,0,19.7c-10.8,0-21.6,0-32.3,0
		c-0.6,5-0.1,11.2-0.3,16.6c4,0.6,10.9-0.5,13.4,2c2.6,2.8,1.6,13.6,1.6,19.9c0,14.4,0,28.1,0,42.7c0,6.3,1.1,16.4-1.3,19.9
		c-2.1,3.1-8.7,2.7-13.4,2.6c-0.6,5-0.1,11.2-0.3,16.6c10.3,0.6,21.8,0.1,32.6,0.3c0,6.6,0,13.1,0,19.7c7,0,14.1,0,21.1,0
		c0-6.6,0-13.1,0-19.7c4.5,0.2,9.8-0.3,13.9,0.3c0,6.5,0,13,0,19.4c7,0,14.1,0,21.1,0c0-7.2,0-14.3,0-21.5
		c16.7-3.3,32.3-13.5,32.6-31.4C312.1,235.5,299.8,227.1,284,223z M236.5,186.4c0-0.4,0.2-0.7,0.5-0.8c14.5,0.5,33.6-2,38.5,7.9
		c2.1,4.1,1.9,10.5-1.1,14.6c-6.2,8.5-22.6,6.7-37.9,6.9C236.5,205.5,236.5,195.9,236.5,186.4z M271,264.3
		c-5.6,3.3-14.6,3.1-24.9,3.1c-2.9,0-6.9,0.3-8.3-0.8c-2.5-2-1.3-11.6-1.3-16.1c0-6.3,0-11.5,0-17.1c0-0.4,0.2-0.7,0.5-0.8
		c17.8,0.1,37.2-1.8,41.4,11C281.3,252.3,277,260.7,271,264.3z"/>
	<path d="M501.1,235.9c0-0.6,0-1.1,0-1.7c0-1.6,0.1-3.3,0.1-5c0-4-0.1-7.9-0.3-11.8C494.2,96.3,385,0,251.2,0
		C116.4,0,6.5,97.7,1.3,220c-0.1,3-0.2,6.1-0.2,9.2c0,1.7,0,3.3,0.1,5c0,0.5,0,1,0,1.5c0,0.1,0,0.2,0,0.3H1.1v52.1h0.1
		c0.7,27.4,6.6,53.5,17,77.7c1.3,3,2.6,5.9,4,8.8c2.8,5.8,5.8,11.4,9,16.9c1.3,2.2,2.7,4.5,4.1,6.7c18.6,29.1,43.9,54.1,74,73.2
		c1.5,1,3.1,1.9,4.7,2.9c2.7,1.7,5.5,3.3,8.3,4.8c1.6,0.9,3.2,1.7,4.8,2.6c2.7,1.4,5.5,2.8,8.2,4.2c1.6,0.8,3.2,1.5,4.9,2.3
		c2.7,1.2,5.4,2.4,8.2,3.5c1.6,0.7,3.3,1.3,5,2c2.7,1,5.3,2.1,8.1,3c1.7,0.6,3.4,1.2,5.1,1.7c2.6,0.9,5.3,1.7,8,2.5
		c1.7,0.5,3.4,1,5.2,1.5c2.6,0.7,5.2,1.4,7.9,2c1.7,0.4,3.5,0.8,5.3,1.2c2.6,0.6,5.2,1.1,7.8,1.6c1.8,0.3,3.6,0.7,5.4,1
		c2.5,0.4,5.1,0.8,7.7,1.2c1.8,0.3,3.6,0.5,5.5,0.7c2.5,0.3,5,0.6,7.6,0.8c1.8,0.2,3.7,0.3,5.6,0.4c2.5,0.2,5,0.3,7.5,0.4
		c1.9,0.1,3.8,0.1,5.7,0.2c2,0,4,0.1,6,0.1c1.5,0,3.1,0,4.6-0.1c1.9,0,3.8-0.1,5.6-0.2c2.5-0.1,5-0.2,7.5-0.4
		c1.9-0.1,3.7-0.3,5.6-0.4c2.5-0.2,5.1-0.5,7.6-0.7c1.8-0.2,3.6-0.4,5.5-0.7c2.6-0.3,5.1-0.7,7.7-1.1c1.8-0.3,3.6-0.6,5.4-0.9
		c2.6-0.5,5.2-1,7.8-1.6c1.8-0.4,3.5-0.8,5.3-1.2c2.6-0.6,5.3-1.3,7.9-2c1.7-0.5,3.4-0.9,5.2-1.4c2.7-0.8,5.3-1.6,8-2.4
		c1.7-0.6,3.4-1.1,5.1-1.7c2.7-0.9,5.4-1.9,8.1-2.9c1.7-0.6,3.3-1.3,5-2c2.7-1.1,5.5-2.3,8.2-3.5c1.6-0.7,3.3-1.5,4.9-2.2
		c2.8-1.3,5.5-2.7,8.2-4.1c1.6-0.8,3.2-1.7,4.8-2.5c2.9-1.6,5.7-3.2,8.5-4.9c1.5-0.9,3-1.8,4.5-2.8c30.7-19.2,56.5-44.5,75.4-73.9
		c0.9-1.5,1.8-2.9,2.7-4.4c3.2-5.3,6.2-10.8,9-16.4c1.4-2.8,2.7-5.6,4-8.5c11.2-25.1,17.7-52.4,18.4-81h0.1v-5.4V236h-0.1
		C501.1,236,501.1,235.9,501.1,235.9z M251.2,406.3c-106.8,0-193.3-79.3-193.3-177.2S144.4,52,251.2,52s193.3,79.3,193.3,177.2
		S357.9,406.3,251.2,406.3z M16.7,309c0.5,1.1,0.9,2.3,1.4,3.4v5.6C17.6,315.1,17.1,312.1,16.7,309z M22.1,335.6v-14.4
		c2.8,5.8,5.8,11.4,9,16.9v23.3C27.6,353.1,24.5,344.5,22.1,335.6z M35.2,370.4v-25.6c2.8,4.4,5.8,8.8,8.9,13v29.1
		C40.9,381.5,38,376.1,35.2,370.4z M48.4,393.6v-30.3c2.8,3.6,5.8,7.1,8.8,10.5v32.3C54.1,402,51.1,397.9,48.4,393.6z M61.5,411.6
		v-33.1c2.8,3,5.7,6,8.7,8.9v34.3C67.2,418.4,64.3,415,61.5,411.6z M74.6,426.4v-34.9c2.8,2.6,5.7,5.1,8.6,7.5v35.8
		C80.3,432.1,77.4,429.3,74.6,426.4z M87.7,438.9v-36.2c2.8,2.2,5.6,4.4,8.5,6.5V446C93.3,443.7,90.5,441.3,87.7,438.9z
		 M100.8,449.6v-37.2c2.8,1.9,5.6,3.8,8.4,5.6v37.8C106.4,453.7,103.6,451.7,100.8,449.6z M113.9,458.9v-38.1
		c2.7,1.7,5.5,3.3,8.3,4.8v38.5C119.5,462.4,116.7,460.7,113.9,458.9z M127.1,466.9v-38.7c2.7,1.4,5.5,2.8,8.2,4.1v39
		C132.5,469.9,129.8,468.4,127.1,466.9z M140.2,473.8v-39.2c1.3,0.6,2.6,1.2,3.9,1.7c0.4,0.2,0.8,0.3,1.1,0.5c1,0.4,2,0.9,3.1,1.3
		v39.5C145.6,476.4,142.9,475.1,140.2,473.8z M153.3,479.8v-39.6c2.7,1,5.3,2,8.1,3V483C158.7,482,156,480.9,153.3,479.8z
		 M174.4,487.5c-2.7-0.8-5.3-1.7-8-2.7v-39.9c2.6,0.9,5.3,1.7,8,2.5V487.5z M187.4,491.2c-2.6-0.7-5.3-1.4-7.9-2.2v-40.2
		c2.6,0.7,5.2,1.4,7.9,2V491.2z M200.4,494.2c-2.6-0.5-5.2-1.1-7.8-1.7v-40.4c2.6,0.6,5.2,1.1,7.8,1.6V494.2z M213.4,496.5
		c-2.6-0.4-5.1-0.8-7.7-1.3v-40.6c2.5,0.4,5.1,0.8,7.7,1.2V496.5z M226.5,498.1c-2.5-0.2-5.1-0.5-7.6-0.8v-40.7
		c2.5,0.3,5,0.5,7.6,0.8V498.1z M239.5,499c-2.5-0.1-5-0.3-7.5-0.5v-40.7c2.5,0.2,5,0.3,7.5,0.4V499z M255.8,499.2
		c-1.5,0-3.1,0-4.6,0c-2,0-4,0-6-0.1v-40.8c2,0,4,0.1,6,0.1c1.5,0,3.1-0.1,4.6-0.1V499.2z M268.9,498.6c-2.5,0.2-5,0.3-7.5,0.4
		v-40.8c2.5-0.1,5-0.2,7.5-0.4V498.6z M282,497.4c-2.5,0.3-5,0.6-7.6,0.8v-40.8c2.5-0.2,5.1-0.4,7.6-0.7V497.4z M295.1,495.5
		c-2.5,0.4-5.1,0.8-7.7,1.2V456c2.6-0.3,5.1-0.7,7.7-1.1V495.5z M308.2,492.8c-2.6,0.6-5.2,1.1-7.8,1.7V454c2.6-0.5,5.2-1,7.8-1.6
		V492.8z M321.3,489.5c-2.6,0.7-5.2,1.4-7.9,2.1v-40.4c2.6-0.6,5.3-1.3,7.9-2V489.5z M334.5,485.3c-2.6,0.9-5.3,1.8-8,2.6v-40.1
		c1.6-0.5,3.2-1,4.8-1.5c0,0,0,0,0.1,0c1-0.3,2-0.6,3-1V485.3z M347.6,480.4c-2.7,1.1-5.3,2.1-8.1,3.1v-39.9
		c0.5-0.2,1.1-0.4,1.6-0.6c0.8-0.3,1.6-0.6,2.4-0.9c1.3-0.5,2.7-1,4-1.5V480.4z M352.6,478.2v-39.5c2.7-1.1,5.5-2.3,8.2-3.5v39.3
		C358,475.8,355.3,477,352.6,478.2z M365.6,472.1V433c2.8-1.3,5.5-2.7,8.2-4.1v38.8C371.1,469.2,368.4,470.7,365.6,472.1z
		 M378.6,464.9v-38.5c2.8-1.5,5.6-3.1,8.3-4.7v38.1C384.2,461.6,381.4,463.3,378.6,464.9z M391.6,456.7v-37.9
		c2.9-1.8,5.7-3.6,8.4-5.5v37.4C397.3,452.7,394.5,454.7,391.6,456.7z M404.6,447.2v-37c2.9-2.1,5.7-4.2,8.5-6.4v36.4
		C410.4,442.5,407.6,444.9,404.6,447.2z M417.7,436.1v-36c2.9-2.4,5.8-4.9,8.6-7.4v35.1C423.5,430.7,420.6,433.4,417.7,436.1z
		 M430.7,423.3v-34.6c3-2.8,5.9-5.7,8.7-8.7v33.3C436.6,416.7,433.7,420,430.7,423.3z M443.7,408v-32.6c3.1-3.4,6-6.8,8.8-10.4v30.7
		C449.7,399.9,446.8,404,443.7,408z M456.7,389.2v-29.6c3.1-4.1,6.1-8.3,8.9-12.7v26.3C462.9,378.7,459.9,384.1,456.7,389.2z
		 M469.8,364.7v-24.2c3.2-5.3,6.3-10.8,9-16.3v16.4C476.3,348.8,473.3,356.9,469.8,364.7z M482.8,315.7c1-2.2,1.9-4.4,2.8-6.7
		c-0.7,5.5-1.7,10.8-2.8,16.2V315.7z"/>
</g>
</svg>
