<?xml version="1.0" encoding="utf-8"?>
<!-- Generator: Adobe Illustrator 22.0.1, SVG Export Plug-In . SVG Version: 6.00 Build 0)  -->
<svg version="1.1" id="Layer_1" xmlns="http://www.w3.org/2000/svg" xmlns:xlink="http://www.w3.org/1999/xlink" x="0px" y="0px"
	 viewBox="0 0 520.2 512" style="enable-background:new 0 0 520.2 512;" xml:space="preserve">
<path d="M210,63.5c0.7,0,2.1,0.1,4.3,1L444,152.1c3.9,1.5,11.8,9.4,16.5,24.2c4,12.4,3,21.4,1.9,23.7l0,0l-93.6,146.7
	c-3.7-10.7-8.3-21-13.8-30.8c-17-30.3-41-52.5-67.4-62.6l-169.5-64.6l91.5-125.2C209.7,63.5,209.8,63.5,210,63.5 M210,0
	c-15.4,0-29.7,6.4-40.8,18.8L10.5,235.7l22.9-4.3c2.9-0.5,5.8-0.8,8.7-0.8c6.6,0,13.4,1.3,20.3,4l206.9,78.9
	c14.2,5.4,27.7,18.3,37.8,36.4c10.3,18.3,15.8,39.4,15.4,59.4c-0.4,21.2-7.3,38.6-19,47.9c-5.9,4.6-12.7,6.9-20,6.9
	c-4.5,0-9.3-0.9-14-2.7L62.6,382.4c-17.1-6.5-31.1-32-30.7-55.6c0.2-12.1,4.1-22,10.7-27.2c3.2-2.6,6.9-3.8,10.9-3.8
	c2.5,0,5.2,0.5,7.9,1.6l206.9,78.9c4.5,1.7,8.4,8.9,8.3,15.4c0,2.9-0.9,5.4-2.3,6.5c-0.3,0.2-0.9,0.7-2,0.7c-0.5,0-1.1-0.1-1.7-0.4
	L63.7,319.5c-1.5-0.6-3-0.9-4.5-0.9c-2.5,0-4.9,0.8-7,2.5c-3.7,2.9-5.9,8.1-6,14.3c-0.2,10.8,6,21.7,14.2,24.8l206.9,78.9
	c3.6,1.4,7.2,2.1,10.7,2.1c5.8,0,11.2-1.9,16-5.6c8.9-7,14.1-19.7,14.4-35c0.5-28.4-15.6-57-36.6-65L64.7,256.7
	c-5.6-2.2-11.3-3.3-16.9-3.3c-9.1,0-17.7,3-25,8.7c-14,11.1-22.3,31.4-22.7,55.7c-0.4,21.9,5.5,44.8,16.4,64.5
	c11.1,20,26.3,34.5,42.7,40.8l221.2,84.4c7.7,3,15.4,4.4,22.7,4.4c19,0,36-9.7,47.7-28L508.4,237c13.2-20.6,15.2-51.4,5.3-82.3
	c-9.9-30.8-29.2-54.2-51.6-62.8L232.5,4.4C224.9,1.4,217.3,0,210,0L210,0z"/>
</svg>
