<?xml version="1.0" encoding="utf-8"?>
<!-- Generator: Adobe Illustrator 21.1.0, SVG Export Plug-In . SVG Version: 6.00 Build 0)  -->
<svg version="1.1" id="Layer_1" xmlns="http://www.w3.org/2000/svg" xmlns:xlink="http://www.w3.org/1999/xlink" x="0px" y="0px"
	 viewBox="0 0 449.3 512" style="enable-background:new 0 0 449.3 512;" xml:space="preserve">
<g id="_x35_2" transform="translate(0,-952.36216)">
	<path d="M83.5,1263l-17.8,85.1l-58.2,67.2c-10.9,12.3-9.7,31.1,2.7,41.9c12.4,10.8,31.2,9.3,41.8-3.3l63.4-73.2
		c3.4-3.9,5.7-8.6,6.6-13.6l6.7-34.1L83.5,1263z M180.2,952.4c-29,0-52.5,23.6-52.5,52.5c0,29.1,23.6,52.5,52.5,52.5
		c29.1,0,52.8-23.4,52.8-52.5C232.9,975.9,209.3,952.4,180.2,952.4z"/>
	<path d="M447.5,1443.7c-2.8-4.8-8.1-7.5-13.6-6.8L348,1269.7c1.9-3.3,1.9-7.5-0.1-10.8l-23.2-40.2c4.9-11.7-0.2-26-12.9-31.2
		l-71.1-29.3c0,0-31.5-53.3-41.2-71.4c-6.2-11.6-16.5-20.8-39.2-20.7c-17.5,0.1-41.8,5.7-56.4,13.5h0.1
		c-24.7,13.6-45.9,36.6-60.8,55.9c-11,14.3-38.4,67.5-38.4,67.5c-6,8.1-6.2,19.1-0.6,27.4c9.2,13.7,29.3,14.1,39,0.7
		c0,0,21.5-47.1,32.7-60.9c6.8-8.5,23-23.8,38-37.5l-17.9,85.5c-2.4,11.6-0.8,20.3,5.7,30.3l130.4,202c8.7,13.9,27.1,18,40.9,9.1
		c13.8-8.9,17.7-27.4,8.5-41.1l-112.4-174.3l17.4-72.5c17.8,32.3,55.3,44.7,86.7,52.5c-4.4,1.6-8.7,6.1-9.4,10.7
		c-0.6,3.6,1.4,14,6.2,5.7c0-0.1,2.8-12.3,18-11.7c10.6,5,15.5,4.7,20.3,3.6l21.3,37c1.9,3.4,5.4,5.4,9.3,5.4l85.9,167.2
		c-3.3,4.4-3.7,10.4-1,15.2c3.8,6.6,12.2,8.8,18.8,5C449,1458.7,451.3,1450.3,447.5,1443.7z"/>
</g>
</svg>
