<?xml version="1.0" encoding="utf-8"?>
<!-- Generator: Adobe Illustrator 22.0.1, SVG Export Plug-In . SVG Version: 6.00 Build 0)  -->
<svg version="1.1" id="Layer_1" xmlns="http://www.w3.org/2000/svg" xmlns:xlink="http://www.w3.org/1999/xlink" x="0px" y="0px"
	 viewBox="0 0 512 512" style="enable-background:new 0 0 512 512;" xml:space="preserve">
<style type="text/css">
	.st0{fill:#010101;}
</style>
<g>
	<g>
		<path class="st0" d="M91.8,52v21.7H52V52H91.8 M143.8,0H0v125.7h143.8V0L143.8,0z"/>
	</g>
	<g>
		<path class="st0" d="M275.9,52v21.7h-39.8V52H275.9 M327.9,0H184.1v125.7h143.8L327.9,0L327.9,0z"/>
	</g>
	<g>
		<path class="st0" d="M460,52v21.7h-39.8V52H460 M512,0H368.2v125.7H512V0L512,0z"/>
	</g>
	<g>
		<path class="st0" d="M384.2,193.2v125.7H512V193.2H384.2z M460,266.8h-23.8v-21.7H460V266.8z"/>
	</g>
	<g>
		<path class="st0" d="M142.5,438.3V460H52v-21.7H142.5 M194.5,386.3H0V512h194.5V386.3L194.5,386.3z"/>
	</g>
	<g>
		<path class="st0" d="M292.7,245.2v21.7H52v-21.7H292.7z M0,193.2v125.7h344.7V193.2H0z"/>
	</g>
	<g>
		<path class="st0" d="M460,438.3V460H286.8v-21.7H460 M512,386.3H234.8V512H512V386.3L512,386.3z"/>
	</g>
</g>
</svg>
