<?xml version="1.0" encoding="utf-8"?>
<!-- Generator: Adobe Illustrator 21.1.0, SVG Export Plug-In . SVG Version: 6.00 Build 0)  -->
<svg version="1.1" id="Layer_2" xmlns="http://www.w3.org/2000/svg" xmlns:xlink="http://www.w3.org/1999/xlink" x="0px" y="0px"
	 viewBox="0 0 512 512" style="enable-background:new 0 0 512 512;" xml:space="preserve">
<style type="text/css">
	.st0{fill-rule:evenodd;clip-rule:evenodd;}
</style>
<g id="_x35_2">
	<g>
		<path class="st0" d="M482.9,357.5c-14.9,0-34.8-17-58.2-17c-17.3,0-19.2,16.9-39.6,17l36.3-85.9l-99.5-2.5
			c-5.7-7.9-14.3-16.8-27.1-25.7c-0.4-0.3-0.5-1-0.7-1.5c-19.5-43-47.4-110.5-68.6-159.9c-0.3-0.7-1.1-1.4-0.9-2.2
			C232.9,48.9,205.9,0,205.9,0l-47.1,22.5c0,0,8.6,43.8,47,62.1c-10.7,2.2-39.7,10.8-56.8,32.2c-17.3,21.6-24.4,57.9-25.5,59.4
			c-4.7,6.6-10.1,15.3-14.3,26.6c-6.5,17.6-7.9,42.1-7.9,60.5L0,260.8l66.5,84.6c-10.9,5-20,12.2-28.9,12.2C17.6,357.5,0,349,0,349
			v55.2c0,0,16.1,8.5,33.8,8.5c14.4,0,30.5-17,53.2-17c18.1,0,38.3,17,59.8,17c18.9,0,38.8-17,59.3-17c18.7,0,37.9,17,57.1,17
			c19.9,0,39.8-17,59.3-17c21,0,41.5,17,60.9,17c19.1,0,19.9-17,36.4-17c26.1,0,48.2,17,64.2,17c17.7,0,28-8.5,28-8.5V349
			C512,349,501.3,357.5,482.9,357.5z M159.2,153.1c-0.2,1.5-0.3,3.1-0.3,4.7c0,17,13.2,30.7,29.4,30.7s29.4-13.8,29.4-30.7
			c0-17-13.2-30.7-29.4-30.7c-9.6,0-18.1,4.8-23.5,12.2c10.1-17.5,40.9-28.4,50.9-38.9c0.5-0.5,0.8-1,1.1-1.5
			c16.8,36.8,35.3,80.6,51.3,119.2c-0.6-0.1-1.3-0.2-1.9-0.2c-16.9-1.2-47.7,4.4-50.2,3c-17.2-9.2-38.8-29.2-57.4-38.5
			C156.9,181.5,155.3,167.7,159.2,153.1z M279.4,267.9l-110.9-2.8c-0.4-2.6-0.7-5.3-0.7-8c0.1-12.6,9-24.5,10.3-25.3
			c1.6-1,14.5,10.1,34.4,14.5c24.4,5.4,58.6-5.9,60.5-6.6c1.2-0.5,2.2-1.1,3.1-1.9c1.4,3.5,2.8,6.9,4.2,10.3c0.1,0.3,0.4,0.6,0.4,1
			C279.7,255.8,279.3,262.1,279.4,267.9z M424.7,440.8c-17.4,0-19.2,17-39.7,17c-19.6,0-40.3-17-61.5-17c-19.5,0-39.4,17-59.3,17
			c-18.8,0-40.9-17-59.3-17c-21.2,0-38.6,17-58.2,17c-22,0-42.6-17-60.9-17c-20.3,0-34.6,17-48.3,17c-20,0-37.6-8.5-37.6-8.5v55.2
			c0,0,16.1,8.5,33.8,8.5c14.4,0,30.5-17,53.2-17c18.1,0,38.3,17,59.8,17c18.9,0,38.8-17,59.3-17c18.7,0,37.9,17,57.1,17
			c19.9,0,39.8-17,59.3-17c21,0,41.5,17,60.9,17c19.1,0,19.9-17,36.4-17c26.1,0,48.2,17,64.2,17c17.7,0,28-8.5,28-8.5v-55.2
			c0,0-10.7,8.5-29.1,8.5C468,457.8,448.1,440.8,424.7,440.8z"/>
	</g>
</g>
</svg>
