<?xml version="1.0" encoding="utf-8"?>
<!-- Generator: Adobe Illustrator 21.1.0, SVG Export Plug-In . SVG Version: 6.00 Build 0)  -->
<svg version="1.1" id="Layer_1" xmlns="http://www.w3.org/2000/svg" xmlns:xlink="http://www.w3.org/1999/xlink" x="0px" y="0px"
	 viewBox="0 0 240 512" style="enable-background:new 0 0 240 512;" xml:space="preserve">
<g>
	<path d="M120.8,150.3l9.2,21h-18.9L120.8,150.3 M241.1,0H0v110.4l66.5,32.3c-11.8,24.7-20.9,51.7-31.5,79.9h173.1
		c-9.3-27.9-23.7-54.4-34.3-79l67-32.5L241.1,0L241.1,0z M79.5,117.7L28.3,93.5V28.4h185.1v64.5l-50.8,24.4
		C151,93,142.2,77.6,131.8,62.5c1.3-1,1-1.4,1-2.4V37.2c0-1.4-6.1-2.1-12.3-2.1s-12.3,0.7-12.3,2.1v22.9c0,1,1,3,1,3.9
		C100,78.2,91.1,92.9,79.5,117.7L79.5,117.7z M120.5,39.5c-5.4,0-9.6-0.6-9.6-1.4c0-0.8,4.4-1.4,9.6-1.4c5.4,0,9.7,0.6,9.7,1.4
		C130.2,38.8,125.9,39.5,120.5,39.5L120.5,39.5z"/>
	<path d="M173.3,287.3c3.4,12.4,6.7,25.5,9,38.4l0.1,0.4l0.1,0.4c8.7,43.2,8.4,79.9-0.8,103.4c-0.4,0.7-1.1,2-2.5,4.5
		c-9.2,15.9-32.4,26.2-59.3,26.2c-26.6,0-50-10.2-59.4-26.1l0-0.1l-0.1-0.1c-1.6-2.6-2.5-4.2-2.9-5.1c-6.2-16.7-10.6-48.5,2-105.8
		l0.1-0.6l0.1-0.7c2.2-11.2,5.4-22.9,9.2-35H173.3 M210.7,236H32.4c-0.3,0-0.5,0.2-0.6,0.4c-8.6,25.1-17.5,50.9-22.4,76.1
		c-11.1,50.7-13.8,100,1,137.3c0.9,2.1,2.9,5.9,6,11C36.7,495,78.3,512,119.8,512c41.9,0,83.7-17.3,103.6-51.9
		c2.6-4.4,4.4-7.7,5.1-9.6c14.9-36.3,14.1-84.4,4.1-134.1c-4.9-26.6-12.7-53.3-21.4-80.1C211.2,236.2,210.9,236,210.7,236L210.7,236
		z"/>
</g>
</svg>
