<?xml version="1.0" encoding="utf-8"?>
<!-- Generator: Adobe Illustrator 21.1.0, SVG Export Plug-In . SVG Version: 6.00 Build 0)  -->
<svg version="1.1" id="Layer_3" xmlns="http://www.w3.org/2000/svg" xmlns:xlink="http://www.w3.org/1999/xlink" x="0px" y="0px"
	 viewBox="0 0 512.7 512" style="enable-background:new 0 0 512.7 512;" xml:space="preserve">
<path d="M488.1,70.2c-7.9-8.1-17.1-14.4-27.4-18.8C447.9,20.4,417.6,0,383.8,0c-22.2,0-43.1,8.7-58.9,24.4
	c-15.7,15.7-24.4,36.7-24.4,58.9c0,6.6,0.8,13.1,2.3,19.4L102.6,302.9c-6.7-1.6-13.7-2.4-20.8-2.2c-21.7,0.4-42.1,9.1-57.5,24.4
	l-0.3,0.3c-31.6,32-32,84.2-0.8,116.4c7.9,8.1,17.1,14.4,27.4,18.8c12.8,30.9,43.1,51.4,76.9,51.4c22.2,0,43.1-8.7,58.9-24.4
	c15.7-15.7,24.4-36.7,24.4-58.9c0-6.9-0.8-13.6-2.5-20.1L408,208.9c7,1.7,14.2,2.6,21.6,2.4c21.7-0.4,42.1-9.1,57.5-24.4l0.3-0.3
	C519,154.6,519.4,102.4,488.1,70.2z M453.4,150.5c-0.4,0.5-0.9,1-1.3,1.4c-12.6,12.6-32.9,13.3-46.1,1.5l-6.3-5.6l-1-1L145.8,399.7
	l9.1,9.1c4.2,5.8,6.5,12.7,6.5,19.9l0,0c0,9-3.5,17.5-9.9,23.9c-6.4,6.4-14.9,9.9-23.9,9.9c-5.9,0-11.6-1.5-16.6-4.4
	c6.2-6.9,8.1-16.7,4.8-25.4c-4.2-11-15.6-17.6-27.1-15.6c-11.4,1.9-22.9-2.1-30.7-10.7c-11.3-12.6-11.3-32.3,0-45
	c0.4-0.5,0.9-1,1.3-1.4c11.5-11.5,29.5-13.1,42.6-4.3l9.6,9.6l252.8-252.8l-0.6-0.6l0.1-0.1l-5.6-6.5c-5.3-6.1-8.2-14-8.2-22.1l0,0
	c0-9,3.5-17.5,9.9-23.9c6.4-6.4,14.9-9.9,23.9-9.9c5.9,0,11.6,1.5,16.6,4.4c-6.2,6.9-8.1,16.7-4.8,25.4c4.2,11,15.6,17.6,27.1,15.6
	c11.4-1.9,22.9,2.1,30.7,10.7C464.7,118.1,464.7,137.9,453.4,150.5z"/>
</svg>
