<?xml version="1.0" encoding="utf-8"?>
<!-- Generator: Adobe Illustrator 22.0.1, SVG Export Plug-In . SVG Version: 6.00 Build 0)  -->
<svg version="1.1" id="Layer_1" xmlns="http://www.w3.org/2000/svg" xmlns:xlink="http://www.w3.org/1999/xlink" x="0px" y="0px"
	 viewBox="0 0 458.6 512" style="enable-background:new 0 0 458.6 512;" xml:space="preserve">
<style type="text/css">
	.st0{fill:#010101;}
</style>
<path class="st0" d="M457.6,275.8l-19.8-34.7c-1.3-2.3-3.1-4-5.2-5.1c-0.4-0.2-0.8-0.4-1.3-0.6c-1.6-0.6-3.3-1-5-1
	c-2.5,0-5.1,0.7-7.4,2.3l-54,36.1c-22.5-22.7-50.2-40.3-81.3-51.1V16.4C283.7,7.3,252.1,0,213,0c-39,0-70.7,7.3-70.7,16.4v205.3
	C60,250.2,1,327.3,1,417.8c0,33.9,8.3,65.9,22.9,94.2h379c13.6-27.5,22.1-61.6,22.1-94.2c0-36.1-9.3-70-25.8-99.5l52.4-23.8
	C458.7,291.2,461.5,282.6,457.6,275.8z M367.1,460H58.9C55,446.4,53,432.3,53,417.8c0-32.7,10.3-64.1,29.7-90.6
	c19.2-26.2,45.7-45.7,76.7-56.5l35-12.1v-206c5.4,0.2,11.7,0.4,18.7,0.4c7,0,13.3-0.2,18.7-0.4v206l35,12.1
	c23,8,44.3,21.3,61.4,38.6l15.3,15.4l10.5,18.8c12.6,22.6,19.3,48.3,19.3,74.3C373,431.4,370.9,446,367.1,460z M213,6.5
	c30.6,0,55.5,4,55.5,9c0,5-24.8,9-55.5,9c-30.6,0-55.5-4-55.5-9C157.6,10.6,182.4,6.5,213,6.5z"/>
</svg>
