<?xml version="1.0" encoding="utf-8"?>
<!-- Generator: Adobe Illustrator 21.1.0, SVG Export Plug-In . SVG Version: 6.00 Build 0)  -->
<svg version="1.1" id="_x35_2" xmlns="http://www.w3.org/2000/svg" xmlns:xlink="http://www.w3.org/1999/xlink" x="0px" y="0px"
	 viewBox="0 0 587.3 512" style="enable-background:new 0 0 587.3 512;" xml:space="preserve">
<path d="M172.2,7.8C139.9,1.6,116-0.1,96-0.1C77.9-0.1,62.9,1.3,47.3,2C46.7,2,0,49.4,0,49.4v353.8V443v12.6
	c0,0,77.1-3.9,163.6,15.3c45,10,121.4,41.2,121.4,41.2v-3.2v-49.2V115.4C285,56.6,240.4,20.8,172.2,7.8z M219.2,83
	c9.5,8.7,13.8,18.6,13.8,32.3v249.5c-15.4-6.3-32.3-11.2-50.7-14.7c-28.1-5.4-52.9-8.2-77.3-8.7V52.2c17.8,0.5,36.3,2.8,57.6,6.8
	C187.7,63.8,207.3,72.1,219.2,83z M53,71c6.4-6.6,12.5-12.8,17.5-17.9c1.2,0.5,1.3,0.5,2.5,1l0,287.5c-5,0.2-9.7,0.5-14.2,0.8
	c-2,0.1-3.9,0.2-5.8,0.4V71z M167.7,419.2c-43.3-8.7-95.1-12.7-129.5-14.6c5.4-5.4,9.3-9.2,9.4-9.2c15.5-0.7,30.6-2.1,48.6-2.1
	c20.1,0,43.9,1.7,76.2,7.9c41.7,8,74.6,24.5,93.8,49.5C245.4,441.6,209.3,427.6,167.7,419.2z"/>
<path d="M412.3,7.8C444.4,1.7,468.1,0,488,0c17.9,0,32.9,1.4,48.3,2.1c0.6,0,47,47.1,47,47.1v351.3V440v12.5
	c0,0-76.6-3.9-162.4,15.2c-44.7,10-120.6,40.9-120.6,40.9v-3.2v-48.8V114.7C300.3,56.3,344.6,20.8,412.3,7.8z M365.9,82.7
	c-9.4,8.6-13.6,18.5-13.6,32v247.4c15.3-6.2,32.1-11.1,50.2-14.6c27.9-5.3,52.5-8.1,76.7-8.7V52.1c-17.6,0.5-36,2.7-57.1,6.8
	C397.2,63.7,377.8,71.9,365.9,82.7z M531.3,70.5c-6.4-6.5-12.5-12.6-17.5-17.6c-0.9-0.1-1.7-0.1-2.6-0.1v286.6
	c5,0.2,9.7,0.5,14.2,0.8c2,0.1,3.9,0.2,5.9,0.3V70.5z M417,416.5c43-8.6,94.5-12.6,128.7-14.5c-5.4-5.4-9.2-9.1-9.4-9.1
	c-15.4-0.7-30.4-2.1-48.3-2.1c-19.9,0-43.6,1.7-75.7,7.8c-41.4,7.9-74.1,24.3-93.2,49.2C339.8,438.7,375.7,424.8,417,416.5z"/>
</svg>
