<?xml version="1.0" encoding="utf-8"?>
<!-- Generator: Adobe Illustrator 21.1.0, SVG Export Plug-In . SVG Version: 6.00 Build 0)  -->
<svg version="1.1" id="Layer_2" xmlns="http://www.w3.org/2000/svg" xmlns:xlink="http://www.w3.org/1999/xlink" x="0px" y="0px"
	 viewBox="0 0 504.3 512" style="enable-background:new 0 0 504.3 512;" xml:space="preserve">
<g>
	<g>
		<path d="M504.2,44.9h-43.8l0.5-44.5l-31,31l-30.5-31v44.5h-43.8l28.5,28.5c-4.3,1.3-12.2,2.2-14.1,2.5
			c-15.9-0.3-28.9-22.6-38.5-31.9c-9.8-9.4-22.9-31-77.2-31c-21.1-0.9-55.2,14.5-66.4,62.9h-11.3c-3,0-5.9,0.7-8.8,2
			c-3,1.3-5.4,3-7.4,5c-2.3,2-3.9,4.3-4.9,7c-1.3,3-2,6-2,9v13.5C79.2,130.7,0,198,0,309.7s88.6,202.9,199.7,202.9
			s199.7-91.9,199.7-202.9s-84.2-180.9-153.9-197.4V98.9c0-3-0.5-6-1.5-9c-1.3-2.7-3-5-4.9-7c-2.3-2-4.8-3.7-7.4-5
			c-3-1.3-6.1-2-9.3-2H220c4-10.5,9-31,40.8-31c66.1,4.2,52.3,61.9,107.7,61.9h31v44.5l30.5-31l30.5,31v-44.5h43.8l-30.5-31
			L504.2,44.9z M239.1,163.5c49.4,14.1,108,66,108,146s-63,151-148,151s-147-68.5-147-151s55.2-128.9,107-146
			c13.1-1.6,33-11.5,33-22c0.1-0.6-0.6,1,7,1c5.8,0,6.9-0.8,7-1l0,0C206.1,149.4,225.1,162.4,239.1,163.5z M225.3,76.8
			c6.2,1.3,9.3,3,9.3,5s-3.1,3.7-9.3,5c-6.6,1.3-14.3,2-23.1,2c-9.2,0-17.1-0.7-23.6-2c-6.2-1.3-9.3-3-9.3-5s3.1-3.7,9.3-5
			c2.8-0.4,5.9-0.8,9.4-0.9c-0.5,1.4-0.9,5.6-0.9,5.6h32c0,0-0.2-2.7,0.7-5.2C222.2,76.4,224,76.6,225.3,76.8z M477.1,95.9H450v29
			l-20.2-20l-22.1,21.5v-31l-28-6.5l20.7-15l-18.7-18.5h28.5V26.9l19.7,20l19.7-20v29.5h27.5l-18.7,19.5L477.1,95.9z M94.3,315.9
			l0.2-0.1c0,0,2.3-43.2,38.9-75.9l-13.6-10.8C85.4,274,94.3,315.9,94.3,315.9z M124,223.8l14,11.3l15.3-12.5l-12.7-13.5L124,223.8z
			"/>
	</g>
</g>
</svg>
