<?xml version="1.0" encoding="utf-8"?>
<!-- Generator: Adobe Illustrator 21.1.0, SVG Export Plug-In . SVG Version: 6.00 Build 0)  -->
<svg version="1.1" id="Layer_1" xmlns="http://www.w3.org/2000/svg" xmlns:xlink="http://www.w3.org/1999/xlink" x="0px" y="0px"
	 viewBox="0 0 188.2 512" style="enable-background:new 0 0 188.2 512;" xml:space="preserve">
<g>
	<path d="M164.8,232h-140c-6.7,25.7-13.8,51.9-17.6,77.6C-1.5,361-3.6,411,8,448.8c5.8,18.4,15.9,34,30.4,45.6
		c12.6,9.7,30,14.9,50.4,16.8v0.8h12v-0.8c19.4-1,36.2-7.1,48.8-16.8c13.6-10.7,23-26.4,28.8-44.8c11.6-36.8,11-85.6,3.2-136
		C177.8,286.5,171.6,259.1,164.8,232z M128.9,433.9c-2.8,9-6.8,15.9-11.1,19.4c-2.8,2.1-8.8,5.4-19.5,5.9l-4.1,0.2l-0.4,0
		c-15.7-1.5-21.8-5-23.3-6c-5.8-4.8-10-11.4-12.7-20.1c-5.5-18-9.8-52.5,0.8-115l0.1-0.5l0.1-0.5c1.6-10.8,3.9-21.8,6.6-33.2h58.3
		c2.5,11.9,4.8,24.5,6.6,37l0,0.3l0,0.3C137.5,368.3,137,408.3,128.9,433.9z"/>
	<path d="M187.1,0h-5.5h-15.9H22.3H6.6H0.9v21.4v83.8l0.2,0.1l50.5,32.6c-9.2,25-16.2,52.1-24.4,80.5h135.2
		c-7.3-28.5-18.6-55.6-27-80.6l51.5-32.5h0.2v-3.9c0.1-0.5,0.1-1,0.1-1.4V21.4h0.1V0H187.1z M94,32.7c-4.2,0-7.5-0.6-7.5-1.4
		c0-0.8,3.4-1.4,7.5-1.4c4.2,0,7.6,0.6,7.6,1.4C101.6,32,98.2,32.7,94,32.7z M165.7,93.2l-37.1,23.1c-8.9-24.5-17.7-45.1-25.8-60.3
		c1-1,0.8-1.4,0.8-2.4V30.4c0-1.5-4.8-2.2-9.6-2.2s-9.6,0.7-9.6,2.2v23.2c0,1,0.8,3,0.8,4C78,72,69.1,92,60.1,117.4L22.3,93.2V21.4
		h143.4V93.2z"/>
</g>
</svg>
