<?xml version="1.0" encoding="utf-8"?>
<!-- Generator: Adobe Illustrator 21.1.0, SVG Export Plug-In . SVG Version: 6.00 Build 0)  -->
<svg version="1.1" id="Layer_4" xmlns="http://www.w3.org/2000/svg" xmlns:xlink="http://www.w3.org/1999/xlink" x="0px" y="0px"
	 viewBox="0 0 512 512" style="enable-background:new 0 0 512 512;" xml:space="preserve">
<path id="_x35_2_1_" d="M236.8,0h38c3.9,0,7,3.1,7,7v38c0,3.9-3.1,7-7,7h-38c-3.9,0-7-3.1-7-7V7C229.8,3.1,233,0,236.8,0z
	 M236.8,114.9h38c3.9,0,7,3.1,7,7v38c0,3.9-3.1,7-7,7h-38c-3.9,0-7-3.1-7-7v-38C229.8,118.1,233,114.9,236.8,114.9z M236.8,230h38
	c3.9,0,7,3.1,7,7v38c0,3.9-3.1,7-7,7h-38c-3.9,0-7-3.1-7-7v-38C229.8,233.1,233,230,236.8,230z M52,512H0V282.1h-0.1v-52H0V0h52V512
	z M121.8,229.9h38c3.9,0,7,3.1,7,7v38c0,3.9-3.1,7-7,7h-38c-3.9,0-7-3.1-7-7v-38C114.8,233.1,118,229.9,121.8,229.9z M159.9,512h-38
	c-3.9,0-7-3.1-7-7v-38c0-3.9,3.1-7,7-7h38c3.9,0,7,3.1,7,7v38C166.9,508.9,163.8,512,159.9,512z M159.9,52h-38c-3.9,0-7-3.1-7-7V7
	c0-3.9,3.1-7,7-7h38c3.9,0,7,3.1,7,7v38C166.9,48.9,163.8,52,159.9,52z M236.8,345.1h38c3.9,0,7,3.1,7,7v38c0,3.9-3.1,7-7,7h-38
	c-3.9,0-7-3.1-7-7v-38C229.8,348.2,233,345.1,236.8,345.1z M275,512h-38c-3.9,0-7-3.1-7-7v-38c0-3.9,3.1-7,7-7h38c3.9,0,7,3.1,7,7
	v38C282,508.9,278.9,512,275,512z M352,229.9h38c3.9,0,7,3.1,7,7v38c0,3.9-3.1,7-7,7h-38c-3.9,0-7-3.1-7-7v-38
	C345,233.1,348.1,229.9,352,229.9z M390.1,512h-38c-3.9,0-7-3.1-7-7v-38c0-3.9,3.1-7,7-7h38c3.9,0,7,3.1,7,7v38
	C397.1,508.9,393.9,512,390.1,512z M390.1,52h-38c-3.9,0-7-3.1-7-7V7c0-3.9,3.1-7,7-7h38c3.9,0,7,3.1,7,7v38
	C397.1,48.9,393.9,52,390.1,52z M505,512h-38c-3.9,0-7-3.1-7-7v-38c0-3.9,3.1-7,7-7h38c3.9,0,7,3.1,7,7v38
	C512,508.9,508.9,512,505,512z M505,397.1h-38c-3.9,0-7-3.1-7-7v-38c0-3.9,3.1-7,7-7h38c3.9,0,7,3.1,7,7v38
	C512,393.9,508.9,397.1,505,397.1z M512,275c0,3.9-3.1,7-7,7h-45v-0.1h-0.1v-45c0-3.9,3.1-7,7-7h45v0.1h0.1V275z M505,166.9h-38
	c-3.9,0-7-3.1-7-7v-38c0-3.9,3.1-7,7-7h38c3.9,0,7,3.1,7,7v38C512,163.8,508.9,166.9,505,166.9z M505,52h-38c-3.9,0-7-3.1-7-7V7
	c0-3.9,3.1-7,7-7h38c3.9,0,7,3.1,7,7v38C512,48.9,508.9,52,505,52z"/>
</svg>
