<?xml version="1.0" encoding="utf-8"?>
<!-- Generator: Adobe Illustrator 21.1.0, SVG Export Plug-In . SVG Version: 6.00 Build 0)  -->
<svg version="1.1" id="Layer_4" xmlns="http://www.w3.org/2000/svg" xmlns:xlink="http://www.w3.org/1999/xlink" x="0px" y="0px"
	 viewBox="0 0 512 512" style="enable-background:new 0 0 512 512;" xml:space="preserve">
<path id="_x35_2_1_" d="M0,275.1v-38c0-3.9,3.1-7,7-7h38c3.9,0,7,3.1,7,7v38c0,3.9-3.1,7-7,7H7C3.1,282.1,0,279,0,275.1z
	 M114.9,275.1v-38c0-3.9,3.1-7,7-7h38c3.9,0,7,3.1,7,7v38c0,3.9-3.1,7-7,7h-38C118,282.1,114.9,279,114.9,275.1z M230,275.1v-38
	c0-3.9,3.1-7,7-7h38c3.9,0,7,3.1,7,7v38c0,3.9-3.1,7-7,7h-38C233.1,282.1,230,279,230,275.1z M512,460v52H282v0.1h-52V512H0v-52H512
	z M229.9,390.1v-38c0-3.9,3.1-7,7-7h38c3.9,0,7,3.1,7,7v38c0,3.9-3.1,7-7,7h-38C233,397.1,229.9,394,229.9,390.1z M512,352v38
	c0,3.9-3.1,7-7,7h-38c-3.9,0-7-3.1-7-7v-38c0-3.9,3.1-7,7-7h38C508.8,345,512,348.2,512,352z M52,352v38c0,3.9-3.1,7-7,7H7
	c-3.9,0-7-3.1-7-7v-38c0-3.9,3.1-7,7-7h38C48.8,345,52,348.2,52,352z M345,275.1v-38c0-3.9,3.1-7,7-7h38c3.9,0,7,3.1,7,7v38
	c0,3.9-3.1,7-7,7h-38C348.2,282.1,345,279,345,275.1z M512,237v38c0,3.9-3.1,7-7,7h-38c-3.9,0-7-3.1-7-7v-38c0-3.9,3.1-7,7-7h38
	C508.8,230,512,233.1,512,237z M229.9,160v-38c0-3.9,3.1-7,7-7h38c3.9,0,7,3.1,7,7v38c0,3.9-3.1,7-7,7h-38
	C233,167,229.9,163.8,229.9,160z M512,121.9v38c0,3.9-3.1,7-7,7h-38c-3.9,0-7-3.1-7-7v-38c0-3.9,3.1-7,7-7h38
	C508.8,114.9,512,118,512,121.9z M52,121.9v38c0,3.9-3.1,7-7,7H7c-3.9,0-7-3.1-7-7v-38c0-3.9,3.1-7,7-7h38
	C48.8,114.9,52,118,52,121.9z M512,7v38c0,3.9-3.1,7-7,7h-38c-3.9,0-7-3.1-7-7V7c0-3.9,3.1-7,7-7h38C508.8,0,512,3.1,512,7z M397,7
	v38c0,3.9-3.1,7-7,7h-38c-3.9,0-7-3.1-7-7V7c0-3.9,3.1-7,7-7h38C393.9,0,397,3.1,397,7z M275,0c3.9,0,7,3.1,7,7v45h-0.1l0,0h-45
	c-3.9,0-7-3.1-7-7V0h0.1l0,0H275z M166.9,7v38c0,3.9-3.1,7-7,7h-38c-3.9,0-7-3.1-7-7V7c0-3.9,3.1-7,7-7h38
	C163.7,0,166.9,3.1,166.9,7z M52,7v38c0,3.9-3.1,7-7,7H7c-3.9,0-7-3.1-7-7V7c0-3.9,3.1-7,7-7h38C48.8,0,52,3.1,52,7z"/>
</svg>
