<?xml version="1.0" encoding="utf-8"?>
<!-- Generator: Adobe Illustrator 21.1.0, SVG Export Plug-In . SVG Version: 6.00 Build 0)  -->
<svg version="1.1" id="Layer_4" xmlns="http://www.w3.org/2000/svg" xmlns:xlink="http://www.w3.org/1999/xlink" x="0px" y="0px"
	 viewBox="0 0 512 512" style="enable-background:new 0 0 512 512;" xml:space="preserve">
<path id="_x35_2_1_" d="M512,236.9v38c0,3.9-3.1,7-7,7h-38c-3.9,0-7-3.1-7-7v-38c0-3.9,3.1-7,7-7h38
	C508.8,229.9,512,233.1,512,236.9z M-0.1,52v-52h229.9v-0.1h52v0.1H512v52H-0.1z M-0.1,159.9v-38c0-3.9,3.1-7,7-7h38
	c3.9,0,7,3.1,7,7v38c0,3.9-3.1,7-7,7h-38C3.1,166.9-0.1,163.9-0.1,159.9z M460,159.9v-38c0-3.9,3.1-7,7-7h38c3.9,0,7,3.1,7,7v38
	c0,3.9-3.1,7-7,7h-38C463,166.9,460,163.9,460,159.9z M-0.1,275v-38c0-3.9,3.1-7,7-7h38c3.9,0,7,3.1,7,7v38c0,3.9-3.1,7-7,7h-38
	C3.1,282-0.1,278.9-0.1,275z M-0.1,390.1v-38c0-3.9,3.1-7,7-7h38c3.9,0,7,3.1,7,7v38c0,3.9-3.1,7-7,7h-38
	C3.1,397.1-0.1,394-0.1,390.1z M460,390.1v-38c0-3.9,3.1-7,7-7h38c3.9,0,7,3.1,7,7v38c0,3.9-3.1,7-7,7h-38
	C463,397.1,460,394,460,390.1z M-0.1,460h512v52h-512V460z"/>
</svg>
