<?xml version="1.0" encoding="utf-8"?>
<!-- Generator: Adobe Illustrator 21.1.0, SVG Export Plug-In . SVG Version: 6.00 Build 0)  -->
<svg version="1.1" id="Layer_4" xmlns="http://www.w3.org/2000/svg" xmlns:xlink="http://www.w3.org/1999/xlink" x="0px" y="0px"
	 viewBox="0 0 512 512" style="enable-background:new 0 0 512 512;" xml:space="preserve">
<path d="M230,121.9c0-3.9,3.1-7,7-7h38c3.9,0,7,3.1,7,7v38c0,3.9-3.1,7-7,7h-38c-3.9,0-7-3.1-7-7V121.9z M230,236.9c0-3.9,3.1-7,7-7
	h38c3.8,0,7,3.1,7,7v38c0,3.9-3.1,7-7,7h-38c-3.9,0-7-3.1-7-7V236.9z M230,352c0-3.9,3.1-7,7-7h38c3.9,0,7,3.2,7,7v38
	c0,3.9-3.1,7-7,7h-38c-3.9,0-7-3.1-7-7V352z M52,505c0,3.9-3.1,7-7,7H7c-3.9,0-7-3.1-7-7v-38c0-3.9,3.1-7,7-7h38c3.9,0,7,3.1,7,7
	V505z M52,390.1c0,3.9-3.1,7-7,7H7c-3.9,0-7-3.1-7-7v-38c0-3.9,3.1-7,7-7h38c3.9,0,7,3.1,7,7V390.1z M52,275c0,3.9-3.1,7-7,7H7
	c-3.9,0-7-3.1-7-7v-38c0-3.9,3.1-7,7-7h38c3.9,0,7,3.1,7,7V275z M52,160c0,3.9-3.1,7-7,7H7c-3.9,0-7-3.2-7-7v-38c0-3.9,3.1-7,7-7h38
	c3.9,0,7,3.1,7,7V160z M52,45c0,3.9-3.1,7-7,7H7c-3.9,0-7-3.1-7-7V7c0-3.9,3.1-7,7-7h38c3.9,0,7,3.1,7,7V45z M166.9,505
	c0,3.9-3.1,7-7,7h-38c-3.9,0-7-3.1-7-7v-38c0-3.9,3.1-7,7-7h38c3.9,0,7,3.1,7,7V505z M166.9,274.9c0,3.9-3.1,7-7,7h-38
	c-3.9,0-7-3.1-7-7v-38c0-3.9,3.1-7,7-7h38c3.8,0,7,3.1,7,7V274.9z M166.9,45c0,3.9-3.1,7-7,7h-38c-3.9,0-7-3.1-7-7V7
	c0-3.9,3.1-7,7-7h38c3.9,0,7,3.1,7,7V45z M282.1,512L282.1,512L282.1,512H237c-3.9,0-7-3.1-7-7v-45h45.1c3.9,0,7,3.1,7,7V512z
	 M282.1,52L282.1,52L282.1,52H237c-3.9,0-7-3.1-7-7V0h45.1c3.9,0,7,3.1,7,7V52z M397,505c0,3.9-3.1,7-7,7h-38c-3.8,0-7-3.1-7-7v-38
	c0-3.9,3.1-7,7-7h38c3.9,0,7,3.1,7,7V505z M397,274.9c0,3.9-3.1,7-7,7h-38c-3.9,0-7-3.1-7-7v-38c0-3.9,3.1-7,7-7h38c3.9,0,7,3.1,7,7
	V274.9z M397,45c0,3.9-3.1,7-7,7h-38c-3.8,0-7-3.1-7-7V7c0-3.9,3.1-7,7-7h38c3.9,0,7,3.1,7,7V45z M512,505c0,3.9-3.1,7-7,7h-38
	c-3.9,0-7-3.1-7-7v-38c0-3.9,3.1-7,7-7h38c3.9,0,7,3.1,7,7V505z M512,390.1c0,3.9-3.1,7-7,7h-38c-3.9,0-7-3.1-7-7v-38
	c0-3.9,3.1-7,7-7h38c3.9,0,7,3.1,7,7V390.1z M512,274.9c0,3.9-3.1,7-7,7h-38c-3.9,0-7-3.1-7-7v-38c0-3.9,3.1-7,7-7h38
	c3.8,0,7,3.1,7,7V274.9z M512,160c0,3.9-3.1,7-7,7h-38c-3.9,0-7-3.2-7-7v-38c0-3.9,3.1-7,7-7h38c3.9,0,7,3.1,7,7V160z M512,45
	c0,3.9-3.1,7-7,7h-38c-3.9,0-7-3.1-7-7V7c0-3.9,3.1-7,7-7h38c3.9,0,7,3.1,7,7V45z"/>
</svg>
