<?xml version="1.0" encoding="utf-8"?>
<!-- Generator: Adobe Illustrator 21.1.0, SVG Export Plug-In . SVG Version: 6.00 Build 0)  -->
<svg version="1.1" id="Layer_4" xmlns="http://www.w3.org/2000/svg" xmlns:xlink="http://www.w3.org/1999/xlink" x="0px" y="0px"
	 viewBox="0 0 512 512" style="enable-background:new 0 0 512 512;" xml:space="preserve">
<path d="M345,7c0-3.9,3.1-7,7-7h38c3.9,0,7,3.1,7,7v38c0,3.9-3.1,7-7,7h-38c-3.8,0-7-3.1-7-7V7z M114.9,7c0-3.9,3.1-7,7-7h38
	c3.9,0,7,3.1,7,7v38c0,3.9-3.1,7-7,7h-38c-3.9,0-7-3.1-7-7V7z M0,7c0-3.9,3.1-7,7-7h38c3.9,0,7,3.1,7,7v38c0,3.9-3.1,7-7,7H7
	c-3.9,0-7-3.1-7-7V7z M0,122c0-3.9,3.1-7,7-7h38c3.9,0,7,3.1,7,7v38c0,3.9-3.1,7-7,7H7c-3.9,0-7-3.2-7-7V122z M52,505
	c0,3.9-3.1,7-7,7H7c-3.9,0-7-3.1-7-7v-38c0-3.9,3.1-7,7-7h38c3.9,0,7,3.1,7,7V505z M52,390.1c0,3.9-3.1,7-7,7H7c-3.9,0-7-3.1-7-7
	v-38c0-3.9,3.1-7,7-7h38c3.9,0,7,3.1,7,7V390.1z M166.9,505c0,3.9-3.1,7-7,7h-38c-3.9,0-7-3.1-7-7v-38c0-3.9,3.1-7,7-7h38
	c3.9,0,7,3.1,7,7V505z M397,505c0,3.9-3.1,7-7,7h-38c-3.8,0-7-3.1-7-7v-38c0-3.9,3.1-7,7-7h38c3.9,0,7,3.1,7,7V505z M512,505
	c0,3.9-3.1,7-7,7h-38c-3.9,0-7-3.1-7-7v-38c0-3.9,3.1-7,7-7h38c3.9,0,7,3.1,7,7V505z M512,390.1c0,3.9-3.1,7-7,7h-38
	c-3.9,0-7-3.1-7-7v-38c0-3.9,3.1-7,7-7h38c3.9,0,7,3.1,7,7V390.1z M512,282H282.1l0,230l-52,0l0-230H0v-52h230l0-230l52,0l0,230H512
	V282z M512,160c0,3.9-3.1,7-7,7h-38c-3.9,0-7-3.2-7-7v-38c0-3.9,3.1-7,7-7h38c3.9,0,7,3.1,7,7V160z M512,45c0,3.9-3.1,7-7,7h-38
	c-3.9,0-7-3.1-7-7V7c0-3.9,3.1-7,7-7h38c3.9,0,7,3.1,7,7V45z"/>
</svg>
