<?xml version="1.0" encoding="utf-8"?>
<!-- Generator: Adobe Illustrator 21.1.0, SVG Export Plug-In . SVG Version: 6.00 Build 0)  -->
<svg version="1.1" id="Layer_4" xmlns="http://www.w3.org/2000/svg" xmlns:xlink="http://www.w3.org/1999/xlink" x="0px" y="0px"
	 viewBox="0 0 512 512" style="enable-background:new 0 0 512 512;" xml:space="preserve">
<path id="_x35_2_1_" d="M275.1,512h-38c-3.9,0-7-3.1-7-7v-38c0-3.9,3.1-7,7-7h38c3.9,0,7,3.1,7,7v38
	C282.1,508.9,278.9,512,275.1,512z M275.1,397.1h-38c-3.9,0-7-3.1-7-7v-38c0-3.9,3.1-7,7-7h38c3.9,0,7,3.1,7,7v38
	C282.1,393.9,278.9,397.1,275.1,397.1z M275.1,282h-38c-3.9,0-7-3.1-7-7v-38c0-3.9,3.1-7,7-7h38c3.9,0,7,3.1,7,7v38
	C282.1,278.9,278.9,282,275.1,282z M459.9,0h52v229.9h0.1v52h-0.1V512h-52V0z M390.1,282.1h-38c-3.9,0-7-3.1-7-7v-38
	c0-3.9,3.1-7,7-7h38c3.9,0,7,3.1,7,7v38C397.1,278.9,393.9,282.1,390.1,282.1z M352,0h38c3.9,0,7,3.1,7,7v38c0,3.9-3.1,7-7,7h-38
	c-3.9,0-7-3.1-7-7V7C345,3.1,348.1,0,352,0z M352,460h38c3.9,0,7,3.1,7,7v38c0,3.9-3.1,7-7,7h-38c-3.9,0-7-3.1-7-7v-38
	C345,463.1,348.1,460,352,460z M275.1,166.9h-38c-3.9,0-7-3.1-7-7v-38c0-3.9,3.1-7,7-7h38c3.9,0,7,3.1,7,7v38
	C282.1,163.8,278.9,166.9,275.1,166.9z M236.9,0h38c3.9,0,7,3.1,7,7v38c0,3.9-3.1,7-7,7h-38c-3.9,0-7-3.1-7-7V7
	C229.9,3.1,233.1,0,236.9,0z M159.9,282.1h-38c-3.9,0-7-3.1-7-7v-38c0-3.9,3.1-7,7-7h38c3.9,0,7,3.1,7,7v38
	C166.9,278.9,163.8,282.1,159.9,282.1z M121.8,0h38c3.9,0,7,3.1,7,7v38c0,3.9-3.1,7-7,7h-38c-3.9,0-7-3.1-7-7V7
	C114.8,3.1,118,0,121.8,0z M121.8,460h38c3.9,0,7,3.1,7,7v38c0,3.9-3.1,7-7,7h-38c-3.9,0-7-3.1-7-7v-38
	C114.8,463.1,118,460,121.8,460z M6.9,0h38c3.9,0,7,3.1,7,7v38c0,3.9-3.1,7-7,7h-38c-3.9,0-7-3.1-7-7V7C-0.1,3.1,3.1,0,6.9,0z
	 M6.9,114.9h38c3.9,0,7,3.1,7,7v38c0,3.9-3.1,7-7,7h-38c-3.9,0-7-3.1-7-7v-38C-0.1,118.1,3.1,114.9,6.9,114.9z M-0.1,237
	c0-3.9,3.1-7,7-7h45v0.1H52v45c0,3.9-3.1,7-7,7H0V282h-0.1V237z M6.9,345.1h38c3.9,0,7,3.1,7,7v38c0,3.9-3.1,7-7,7h-38
	c-3.9,0-7-3.1-7-7v-38C-0.1,348.2,3.1,345.1,6.9,345.1z M6.9,460h38c3.9,0,7,3.1,7,7v38c0,3.9-3.1,7-7,7h-38c-3.9,0-7-3.1-7-7v-38
	C-0.1,463.1,3.1,460,6.9,460z"/>
</svg>
