<?xml version="1.0" encoding="utf-8"?>
<!-- Generator: Adobe Illustrator 21.1.0, SVG Export Plug-In . SVG Version: 6.00 Build 0)  -->
<svg version="1.1" id="Layer_1" focusable="false" xmlns="http://www.w3.org/2000/svg" xmlns:xlink="http://www.w3.org/1999/xlink"
	 x="0px" y="0px" viewBox="0 0 512 512" style="enable-background:new 0 0 512 512;" xml:space="preserve">
<path id="_x35_2" d="M506.2,0.3c-1.5-0.4-3-0.4-4.4,0.1l-73.9,19.8h-0.2c-4.1,1.1-6.6,5.4-5.5,9.6c0.4,1.4,1.2,2.6,2.2,3.6
	l18.8,18.8c-9.8,9.8-29.1,29.1-53.9,53.9c-26.9-25.2-53.7-43.1-81.7-54.7C275,37.8,241.2,31.7,206.9,33.3
	c-35.7,1.6-71.6,11.8-106.7,30.5c-11.1,5.9-37.4,18.6-48.1,14.4c-0.1,0-0.9-0.9-0.9-3c1.2-13.6-8.4-25.8-21.9-27.7l-0.1,0
	C15.4,45.7,2.5,55.4,0.6,69.2c-0.7,4.5-0.8,9.5-0.1,15c1.3,11.4,5.8,21.4,12.9,28.8c5.3,5.5,11.7,9.5,19.2,12l59.7,292.2l295.1,60.2
	c5.6,20.4,23.9,34.7,48.5,34.7c22.1,0,31.6-15.5,29.7-29.2c-1.8-13.5-14-23.1-27.8-21.9c-1.6,0.1-3-0.9-3-0.9
	c-3.8-11.3,8.6-36.9,14.4-48c18.4-35.4,29-71,30.6-106.4c1.5-34.4-4.6-68.2-18.1-100.4c-11.8-28.4-30.1-55.5-55.7-82.5l53.9-53.8
	l18.7,18.7c3.1,3.1,8,3.1,11.2,0c1.1-1.1,1.8-2.5,2.1-3.9l19.8-73.7C512.9,5.7,510.4,1.4,506.2,0.3z M59,127.8
	c15.1,0.2,52.5-11.5,65.7-19.5c38.1-23,81.5-30.3,125.2-22c37.7,7.2,74.7,26.1,105.3,53.8c-41.5,41.5-90.6,90.6-134.4,134.5l-35,0.1
	l-0.1-0.2c-2.2,0-4.2,0.9-5.6,2.3l-66.7,66.6c-3.1,3.1-3.1,8,0,11.1c1.2,1.2,2.8,2,4.4,2.2l21.5-0.5c-11.8,11.8-21.3,21.4-27.8,27.9
	L59,127.8z M426.2,262.3c8.4,43.5,1,86.8-22,124.8c-5.7,9.4-18.2,45.1-19,64l-256.2-52.3l25-24.9l0.4,19.9c1,4.2,5.2,6.8,9.5,5.9
	c1.5-0.4,2.9-1.1,3.9-2.2l66.6-66.5c1.7-1.7,2.5-4,2.3-6.2l0.1-33.5l135-134.7C399.8,187.4,419,224.5,426.2,262.3z"/>
</svg>
