<?xml version="1.0" encoding="utf-8"?>
<!-- Generator: Adobe Illustrator 22.0.1, SVG Export Plug-In . SVG Version: 6.00 Build 0)  -->
<svg version="1.1" id="Layer_3" xmlns="http://www.w3.org/2000/svg" xmlns:xlink="http://www.w3.org/1999/xlink" x="0px" y="0px"
	 viewBox="0 0 420.9 512" style="enable-background:new 0 0 420.9 512;" xml:space="preserve">
<style type="text/css">
	.st0{fill:#010101;}
</style>
<g>
	<path d="M101.4,52c4.7,0,13.5,9.5,13.5,25.1c0,7.6-2.2,14.9-6.1,20l-4,5.2l-2.6,6c-0.4,1-0.8,2-1.2,3c-1.2-2.9-2.4-5.8-3.8-8.6
		l-1.7-3.5l-2.2-3.2c-0.6-0.8-5.4-8.2-5.4-19C88,61.5,96.7,52,101.4,52 M101.2,208.9c2.7,8.2,6.1,17.5,10.5,28.1
		c7.8,18.7,15.5,34.2,17.3,37.7c13.6,28.5,21,62.8,21,96.7c0,31.7-4.7,62.3-13.3,87.6H66.1c-8.6-25.4-13.3-55.9-13.3-87.6
		c0-49.6,16-86.8,25.5-104.7l0.8-1.6l0.7-1.6C84.3,253.8,94,232.3,101.2,208.9 M101.4,0.2C65.3,0.2,36,34.7,36,77.3
		c0,27.3,12.5,45.5,14.5,48.4c3.7,7.7,7.7,19.4,7.7,34.8c0,22.1-17.3,63.2-25.7,81.7C14.2,276.3,0.8,321.7,0.8,371.4
		c0,55,12,104.5,31.3,139.6h138.6c19.3-35.1,31.3-84.7,31.3-139.6c0-45.2-10.6-86.8-26.4-119.7c0,0-31.8-62-31.8-91.2
		c0-13.4,3-24,6.2-31.6c10.5-13.7,16.8-31.8,16.8-51.6C166.9,34.7,137.6,0.2,101.4,0.2L101.4,0.2z"/>
	<path class="st0" d="M317.2,306.2c-56.9,0-103,46.1-103,103s46.1,103,103,103c56.9,0,103-46.1,103-103S374.1,306.2,317.2,306.2z
		 M263.2,465.1c1.7,1.8,1.7,4.7,0,6.4c-0.9,0.9-2,1.3-3.1,1.3c-1.1,0-2.2-0.5-3.1-1.3c-15.1-15.9-23.5-37-23.5-59.5
		c0-22.5,8.3-43.6,23.5-59.5c1.7-1.8,4.5-1.8,6.2,0c1.7,1.8,1.7,4.7,0,6.5c-13.5,14.2-20.9,33-20.9,53
		C242.3,432.1,249.7,451,263.2,465.1z M294.4,493.3c-1.1,0-2.2-0.2-3.2-0.5c-4.9-1.5-9.6-3.5-14.2-5.9c-2.1-1.2-3-3.9-1.9-6.2
		c1.1-2.2,3.7-3.1,5.9-2c4,2.2,8.3,4,12.6,5.3c0.3,0.1,0.5,0.1,0.8,0.1c2.4,0,4.3,2,4.3,4.6C298.8,491.3,296.8,493.3,294.4,493.3z
		 M337.9,403c-3.6,2.6-8.1,3.8-12.8,3c-4.7-0.8-8.6-3.3-11.2-6.9c-2.6-3.6-3.8-8.1-3-12.8s3.3-8.6,6.9-11.2c3.5-2.6,8.1-3.8,12.8-3
		c4.7,0.8,8.6,3.3,11.2,6.9c2.6,3.6,3.8,8.1,3,12.8S341.5,400.4,337.9,403z M377.5,418.1c-0.8,4.7-3.3,8.6-6.9,11.2
		c-3.6,2.6-8.1,3.8-12.8,3c-4.7-0.8-8.6-3.3-11.2-6.9c-2.6-3.5-3.8-8.1-3-12.8c0.8-4.7,3.3-8.6,6.9-11.2c3.6-2.6,8.1-3.8,12.8-3
		s8.6,3.3,11.2,6.9C377.1,408.9,378.3,413.4,377.5,418.1z M383.9,377.1c-0.8,4.7-3.3,8.6-6.9,11.2c-3.6,2.6-8.1,3.8-12.8,3
		c-4.7-0.8-8.6-3.3-11.2-6.9c-2.6-3.6-3.8-8.1-3-12.8c0.8-4.7,3.3-8.6,6.9-11.2c3.5-2.6,8.1-3.8,12.8-3c4.7,0.8,8.6,3.3,11.2,6.9
		C383.4,367.9,384.6,372.4,383.9,377.1z"/>
</g>
</svg>
