<?xml version="1.0" encoding="utf-8"?>
<!-- Generator: Adobe Illustrator 21.1.0, SVG Export Plug-In . SVG Version: 6.00 Build 0)  -->
<svg version="1.1" id="Layer_3" xmlns="http://www.w3.org/2000/svg" xmlns:xlink="http://www.w3.org/1999/xlink" x="0px" y="0px"
	 viewBox="0 0 512 512" style="enable-background:new 0 0 512 512;" xml:space="preserve">
<g id="_x35_2_1_">
	<path d="M511.4,126L413.9,1h-0.6L297.4,0l21.2,126h-0.1v66h-18v0.4l-12.3-7.4l-10,7.4c0,0-11.7,3-16,2.6l-0.1,1H262l-13.4,2.4
		c0,0-14.2-12.4-20.1-12.4c-0.3,0-0.5,0-0.8,0.1c-2.2,0.5-6.5,6-6.5,6h-30.7v-66l0.4-0.1L212,0L96.1,1h-0.6L0,126l-0.5,0.1v386h512
		L511.4,126L511.4,126z M339.5,26.5h44.9l64.3,99.5h-76.9L339.5,26.5z M125.1,26.5h44.8L139.6,126H62.8L125.1,26.5z M457.5,460h-406
		V178h87l1,14.4V244H222l13.8,12.7l27.9-8.6c1-0.3,2.3-0.7,3.4-0.9c3.6-0.3,17-2.2,17-2.2h88.4v-66h87L457.5,460z M283.3,1h-56.6
		l-17.2,117.3V176h12c0,0,4.3-5.8,6.5-6.4c5.3-1.3,20.9,12.3,20.9,12.3s10-3.1,13.5-3c4.1,0.1,16.1-3,16.1-3l10-7.4l12,7.5v-55.8
		L283.3,1z"/>
	<path d="M257.7,276.8L180,354.7l31.8,31.9l25.2-24.7V450h42v-88.1l24.6,24.7l31.8-31.9L257.7,276.8z"/>
</g>
</svg>
