<?xml version="1.0" encoding="utf-8"?>
<!-- Generator: Adobe Illustrator 21.1.0, SVG Export Plug-In . SVG Version: 6.00 Build 0)  -->
<svg version="1.1" id="Layer_3" xmlns="http://www.w3.org/2000/svg" xmlns:xlink="http://www.w3.org/1999/xlink" x="0px" y="0px"
	 viewBox="0 0 512 512" style="enable-background:new 0 0 512 512;" xml:space="preserve">
<g id="_x35_2">
	<path d="M511.9,126L414.4,1h-0.6L297.9,0l21.2,126H319v66l-128,0.1v-66l0.4-0.1L212.5,0L96.6,1H96L0.5,126L0,126.1v386h512
		L511.9,126L511.9,126z M340,26.5h44.9l64.3,99.5h-76.9L340,26.5z M125.6,26.5h44.8L140.1,126H63.3L125.6,26.5z M458,460H52V178h87
		l1,14.4V244l233,1v-66h87L458,460z M283.8,1h-56.6L210,118.3V176l91,0v-55.8L283.8,1z"/>
	<path d="M339.6,308l-98.1,128.1c-1.5,1.5-2.9,3.1-4.9,4.2c-10.5,5.9-24.2,2.1-30.4-8.5l-42-59c-6.2-10.6-2.7-24,7.9-29.9
		c10.5-5.9,24.2-2.1,30.4,8.5l28.9,36.7l79.6-112.5c0.7-0.8,5.9-9.1,18.2-9.1c13.3,0,21.2,10.5,21.3,21.3
		C350.7,295,340.2,307.4,339.6,308z"/>
</g>
</svg>
