<?xml version="1.0" encoding="utf-8"?>
<!-- Generator: Adobe Illustrator 21.1.0, SVG Export Plug-In . SVG Version: 6.00 Build 0)  -->
<svg version="1.1" id="Layer_3" xmlns="http://www.w3.org/2000/svg" xmlns:xlink="http://www.w3.org/1999/xlink" x="0px" y="0px"
	 viewBox="0 0 512 512" style="enable-background:new 0 0 512 512;" xml:space="preserve">
<g id="_x35_2_2_">
	<path d="M511.9,126L414.4,1h-0.6L297.9,0l21.2,126H319v66h-18v0.4l-12.3-7.4l-10,7.4c0,0-11.7,3-16,2.6l-0.1,1h-0.1l-13.4,2.4
		c0,0-14.2-12.4-20.1-12.4c-0.3,0-0.5,0-0.8,0.1c-2.2,0.5-6.5,6-6.5,6H191v-66l0.4-0.1L212.5,0L96.6,1H96L0.5,126L0,126.1v386h512
		L511.9,126L511.9,126z M340,26.5h44.9l64.3,99.5h-76.9L340,26.5z M125.6,26.5h44.8L140.1,126H63.3L125.6,26.5z M458,460H52V178h87
		l1,14.4V244h82.5l13.8,12.7l27.9-8.6c1-0.3,2.3-0.7,3.4-0.9c3.6-0.3,17-2.2,17-2.2H373v-66h87L458,460z M283.8,1h-56.6L210,118.3
		V176h12c0,0,4.3-5.8,6.5-6.4c5.3-1.3,20.9,12.3,20.9,12.3s10-3.1,13.5-3c4.1,0.1,16.1-3,16.1-3l10-7.4l12,7.5v-55.8L283.8,1z"/>
	<path d="M303.6,296.8c-1.4-9.2-3.7-17.1-6.8-23.4l0,0c-6.2-12.6-34.6-12-38.5-11.8c-3.9-0.2-32.2-0.8-38.4,11.8
		c-7.9,16.1-8.3,37.9-8.3,42.1c0,10.5,2,19.9,6,27.9l2.1,4.3l17.7-16.7l21.1-3.4L274,309l21.2-3.3l8.8-6.9L303.6,296.8z
		 M258.3,280.3c-15.2,0-24.6-2.6-27.3-4.3c2.3-1.6,10.7-4.1,27.3-4.1c16.5,0,24.9,2.5,27.2,4.1C282.9,277.7,273.5,280.3,258.3,280.3
		z"/>
	<path d="M265.4,423.1l0.3-15.6v-0.2c-0.3-2.8-0.2-11.5,4-14.2c0.7-0.4,1.4-0.9,2.1-1.4C285,383.2,305,370.4,305,337
		c0-1.5-0.1-9.2-1.5-18.6l-0.9-5.9l-10.5,8.1l-21.9,3.4l-15.4,18.5l-20.5,3.3l-17.6,16.6l1.2,2.3c6.9,13.8,18.2,21,27.2,26.8
		c0.8,0.5,1.5,0.9,2.2,1.4c4.3,2.7,4.3,11.2,4,14.2v0.2l0.3,15.6c-16.3,1.2-31.7,6.3-31.7,15.7c0,10.5,19.6,16,39,16s39-5.5,39-16
		C297.7,429.3,281.5,424.1,265.4,423.1z"/>
</g>
</svg>
