<?xml version="1.0" encoding="utf-8"?>
<!-- Generator: Adobe Illustrator 19.0.0, SVG Export Plug-In . SVG Version: 6.00 Build 0)  -->
<svg version="1.1" id="Layer_1" xmlns="http://www.w3.org/2000/svg" xmlns:xlink="http://www.w3.org/1999/xlink" x="0px" y="0px"
	 viewBox="0 0 448 512" style="enable-background:new 0 0 448 512;" xml:space="preserve">
<style type="text/css">
	.st0{fill:#010101;}
</style>
<g id="_x35_2">
	<path id="XMLID_30_" d="M396,428H52V84h344V428z M42.8,32C19.2,32,0,51.2,0,74.8v362.4C0,460.8,19.2,480,42.8,480h362.4
		c23.6,0,42.8-19.2,42.8-42.8V74.8c0-23.6-19.2-42.8-42.8-42.8H42.8z"/>
	<path id="XMLID_16_" class="st0" d="M230.3,340c0,0-2.8-25.1,10.7-34c25.4-16.6,64.6-38.4,64.6-102.8c0-4.3-0.3-47.4-15.2-78.1
		c-10.3-21.2-67.3-19-67.3-19s-56.7-2.3-67.1,19c-15,30.8-15.2,73.9-15.2,78.1c0,64.4,39.3,86.1,64.6,102.7
		c13.5,8.8,10.7,34,10.7,34l0,27.3c-33.9,1.4-60.2,11.6-60.2,24.1c0,13.4,30.3,24.2,67.8,24.2c37.4,0,67.8-10.8,67.8-24.2
		c0-12.5-26.9-22.9-61.4-24L230.3,340z M165.7,129.4c0-10.3,26.6-16.3,59.3-16.3s59.3,6.1,59.3,16.3c0,9-26.6,16.3-59.3,16.3
		C192.3,145.7,165.7,138.3,165.7,129.4z M188.2,223.1l46.6-29.6l-21.9-31.3c0,0,13.9,0.6,18.6,0.6c12.8,0,23-1,23-1l19.8,39.9
		l-46.6,29.6l26.9,55L188.2,223.1z"/>
</g>
</svg>
