<?xml version="1.0" encoding="utf-8"?>
<!-- Generator: Adobe Illustrator 21.1.0, SVG Export Plug-In . SVG Version: 6.00 Build 0)  -->
<svg version="1.1" id="Layer_3" xmlns="http://www.w3.org/2000/svg" xmlns:xlink="http://www.w3.org/1999/xlink" x="0px" y="0px"
	 viewBox="0 0 512 512" style="enable-background:new 0 0 512 512;" xml:space="preserve">
<style type="text/css">
	.st0{fill:#030000;}
</style>
<g id="_x35_2_2_">
	<path class="st0" d="M386,61.4L338,0.5h-0.3l-57-0.5l10.4,61.4h0v32.2l-63,0V61.5l0.2,0L238.7,0l-57,0.5h-0.3l-47,60.9l-0.2,0
		v188.1h251.9L386,61.4L386,61.4z M301.4,12.9h22.1l31.6,48.5h-37.8L301.4,12.9z M195.9,12.9h22l-14.9,48.5h-37.8L195.9,12.9z
		 M359.5,224.2H159.7V86.7h42.8l0.5,7v25.1l114.6,0.5V87.2h42.8L359.5,224.2z M273.8,0.5h-27.8l-8.5,57.2v28.1l44.8,0V58.6
		L273.8,0.5z"/>
	<path class="st0" d="M512,323.9L464,263h-0.3l-57-0.5l10.4,61.4h0V356l-63,0v-32.2l0.2,0l10.4-61.4l-57,0.5h-0.3l-47,60.9l-0.2,0
		V512H512L512,323.9L512,323.9z M427.4,275.4h22.1l31.6,48.5h-37.8L427.4,275.4z M321.9,275.4h22L329,323.9h-37.8L321.9,275.4z
		 M485.4,486.6H285.7V349.2h42.8l0.5,7v25.1l114.6,0.5v-32.2h42.8L485.4,486.6z M399.7,263h-27.8l-8.5,57.2v28.1h44.8V321L399.7,263
		z"/>
	<path class="st0" d="M251.8,323.9l-48-60.9h-0.3l-57-0.5l10.4,61.4h0v32.2l-63,0v-32.2l0.2,0l10.4-61.4l-57,0.5h-0.3l-47,60.9
		l-0.2,0V512h251.9L251.8,323.9L251.8,323.9z M167.3,275.4h22.1l31.6,48.5h-37.8L167.3,275.4z M61.8,275.4h22l-14.9,48.5H31.1
		L61.8,275.4z M225.3,486.7H25.6V349.2h42.8l0.5,7v25.1l114.6,0.5v-32.2h42.8L225.3,486.7z M139.6,263h-27.8l-8.5,57.2v28.1l44.8,0
		v-27.2L139.6,263z"/>
</g>
</svg>
