<?xml version="1.0" encoding="utf-8"?>
<!-- Generator: Adobe Illustrator 21.1.0, SVG Export Plug-In . SVG Version: 6.00 Build 0)  -->
<svg version="1.1" id="Layer_1" xmlns="http://www.w3.org/2000/svg" xmlns:xlink="http://www.w3.org/1999/xlink" x="0px" y="0px"
	 viewBox="0 0 448.9 512" style="enable-background:new 0 0 448.9 512;" xml:space="preserve">
<path id="_x35_2_1_" d="M145.8,70.8c0,7.6-6.2,13.8-13.8,13.8H52V429h80c7.6,0,13.8,6.2,13.8,13.8v24.5c0,7.6-6.2,13.8-13.8,13.8
	H13.8C6.2,481,0,474.9,0,467.3V46.3c0-7.6,6.2-13.8,13.8-13.8h118.3c7.6,0,13.8,6.2,13.8,13.8V70.8z M448.9,467.3
	c0,7.6-6.2,13.8-13.8,13.8H316.8c-7.6,0-13.8-6.2-13.8-13.8v-24.5c0-7.6,6.2-13.8,13.8-13.8h80V84.6h-80c-7.6,0-13.8-6.2-13.8-13.8
	V46.3c0-7.6,6.2-13.8,13.8-13.8h118.3c7.6,0,13.8,6.2,13.8,13.8V467.3z"/>
</svg>
