<?xml version="1.0" encoding="utf-8"?>
<!-- Generator: Adobe Illustrator 21.1.0, SVG Export Plug-In . SVG Version: 6.00 Build 0)  -->
<svg version="1.1" id="Layer_2" xmlns="http://www.w3.org/2000/svg" xmlns:xlink="http://www.w3.org/1999/xlink" x="0px" y="0px"
	 viewBox="0 0 550 512" style="enable-background:new 0 0 550 512;" xml:space="preserve">
<path d="M530.5,97.5c13,0,19.5,6.5,19.5,19.5v101h-226c0-12.7-6.5-19-19.5-19H246c-13,0-19.5,6.4-19.5,19H0V117
	c0-13,6.5-19.5,19.5-19.5h149.1l-0.4-41.8c1.4-10.7,7.5-16.1,18.2-16.1h178.2c10.7,0,16.7,5.3,18.2,15.6v42.3L530.5,97.5L530.5,97.5
	z M304.4,256.5c13,0,19.5-6.4,19.5-19H550V453c0,13-6.5,19.5-19.5,19.5H19.5C6.5,472.5,0,466,0,453V237.4h226.5
	c0,12.7,6.5,19,19.5,19H304.4z M505.9,281.4h-163c-15.8,20-34.8,18.7-41.9,18.7h-56.7c-4.8,0-26.7-2-37.5-18.7H43.2v136.9
	c0,6.5,3.3,9.7,9.9,9.7h443c6.6,0,9.9-3.2,9.9-9.7L505.9,281.4L505.9,281.4z M356,73.5c0.6-7.6-3.5-11.4-12.1-11.4h-137
	c-8.1,0-12.2,3.8-12.6,11.4v24.1H356V73.5L356,73.5z M255.5,237.4c-6.4,0-9.5-3.2-9.5-9.7c0-6.5,3.1-9.7,9.5-9.7h39
	c6.6,0,9.9,3.2,9.9,9.7s-3.3,9.7-9.9,9.7H255.5z"/>
</svg>
