<?xml version="1.0" encoding="utf-8"?>
<!-- Generator: Adobe Illustrator 21.1.0, SVG Export Plug-In . SVG Version: 6.00 Build 0)  -->
<svg version="1.1" id="Layer_3" xmlns="http://www.w3.org/2000/svg" xmlns:xlink="http://www.w3.org/1999/xlink" x="0px" y="0px"
	 viewBox="0 0 512 512" style="enable-background:new 0 0 512 512;" xml:space="preserve">
<g>
	<path d="M0,318.8V34.7C0,15.5,15.5,0,34.7,0h284.1c19.2,0,34.7,15.5,34.7,34.7v91.7h-52V52H52v249.5h74.4v52H34.7
		C15.5,353.5,0,338,0,318.8z"/>
	<path d="M210.4,460V210.4H460V460H210.4 M193.1,512h284.1c19.2,0,34.7-15.5,34.7-34.7V193.1c0-19.2-15.5-34.7-34.7-34.7H193.1
		c-19.2,0-34.7,15.5-34.7,34.7v284.1C158.4,496.4,174,512,193.1,512L193.1,512z"/>
</g>
</svg>
