<?xml version="1.0" encoding="utf-8"?>
<!-- Generator: Adobe Illustrator 21.1.0, SVG Export Plug-In . SVG Version: 6.00 Build 0)  -->
<svg version="1.1" id="Layer_3" xmlns="http://www.w3.org/2000/svg" xmlns:xlink="http://www.w3.org/1999/xlink" x="0px" y="0px"
	 viewBox="0 0 639.7 512" style="enable-background:new 0 0 639.7 512;" xml:space="preserve">
<g id="_x35_2">
	<path d="M215.4,360V150.4H425V360H215.4 M198.1,412h244.1c19.2,0,34.7-15.5,34.7-34.7V133.1c0-19.2-15.5-34.7-34.7-34.7H198.1
		c-19.2,0-34.7,15.5-34.7,34.7v244.1C163.4,396.4,179,412,198.1,412L198.1,412z"/>
	<path d="M0,228.8V34.7C0,15.5,15.5,0,34.7,0h194.1c19.2,0,34.7,15.5,34.7,34.7v31.7h-52V52H52v159.5h79.2v52H34.7
		C15.5,263.5,0,248,0,228.8z"/>
	<path d="M639.7,283.2v194.1c0,19.2-15.5,34.7-34.7,34.7H410.9c-19.2,0-34.7-15.5-34.7-34.7v-33h52V460h159.6V300.5l-78.6,2.2v-52
		l95.9-2.2C624.2,248.5,639.7,264,639.7,283.2z"/>
</g>
</svg>
