<?xml version="1.0" encoding="utf-8"?>
<!-- Generator: Adobe Illustrator 22.0.1, SVG Export Plug-In . SVG Version: 6.00 Build 0)  -->
<svg version="1.1" id="Layer_2" xmlns="http://www.w3.org/2000/svg" xmlns:xlink="http://www.w3.org/1999/xlink" x="0px" y="0px"
	 viewBox="0 0 258.1 300" style="enable-background:new 0 0 258.1 300;" xml:space="preserve">
<g id="_x35_2" transform="translate(0,-952.36218)">
	<path d="M226.9,952.7c-6,0.1-11.8,3.2-15,8.6c0,0,0,0.1,0,0.1l-45.9,78.4c-24.1-7.5-49.3-2.7-62.3,15.1c0,0.1-0.1,0.1-0.1,0.2
		c-24.5,36.2-39.6,50.7-99.9,80.4c-3.4,1.6-4.8,5.7-3.2,9.1c0.5,1,1.3,1.9,2.2,2.6l33.1,23.3c1.5,1,11.4,0.4,13.2,0.1
		c4.9-0.8,1,5.7-0.6,8.7c-5.1,9.1-13.4,25.1-12.2,27.1c4.6,7.8,39.1,0.6,48.6-6.9c4.9-3.6,5.7-4.3,12.3-10.7
		c-0.5,5.3-1.4,8.6-4.3,14.3c-1.8,3.1-1,7,1.9,9l18.5,13.1c2.7,1.9,6.3,1.6,8.6-0.6c1.9-1.8,3.9-4.1,6.1-7c0.2,0.9,0.2,1.7,0.2,2.4
		c0,0,0,0.1,0,0.1c0,3.2,0.3,4.6-1,9.5c-0.7,2.8,0.3,5.7,2.7,7.3l19.8,13.9c3.1,2.1,7.3,1.3,9.5-1.8c0.7-1.1,1.1-2.3,1.2-3.6
		c0.4-18,7.9-46.2,27-79.5c3.8-6.7,8.8-15.6,13.2-23c0,0,0.1-0.1,0.1-0.1l12.2-21.1c0.8-1.4,1.6-3,1.6-3c0.1-0.2,0.2-0.4,0.3-0.6
		c9-20,0.7-44-17.9-61l45.7-78.3c4.9-8.4,2-19.2-6.4-24c0,0-0.1,0-0.1,0C233.2,953.4,230.1,952.6,226.9,952.7L226.9,952.7z
		 M115.6,1071.9l78.4,43.7l-10.1,17.2v0.1c-4.5,7.6-9.6,16.6-13.3,23.1c-13.6,23.7-21.8,45.1-25.8,63.1l-3.3-2.3
		c-0.6-4.2-1.6-12.1-5.8-19.4c-1.9-3.2-6.1-4.3-9.3-2.4c-1,0.6-1.9,1.5-2.5,2.5c-0.5,1-1.8,4.3-2.3,5.1l-10-7
		c1.6-4.5,2.6-9.1,2.7-13.6c0.3-13.4,0.5-9.5-0.4-22.9c-0.2-3.8-3.4-6.6-7.2-6.4c-2.3,0.1-4.4,1.5-5.6,3.5
		c-9.7,13-12.4,16.9-17.4,21.2c-7.9,6.9-21,12.1-21,12.1c4.6-7.6,12.1-29.9,14.6-39.3c0.8-3.7-1.5-7.3-5.2-8.1
		c-2.8-0.6-5.6,0.5-7.2,2.9c-4.3,5-10.2,6.6-13.5,8l-17-12.1C77.3,1118,95.3,1100.9,115.6,1071.9L115.6,1071.9z"/>
	<path d="M248.4,1201.2c7,10.8,8.2,18,6.2,22.8c-1.8,4.3-6.9,7.8-15.3,10c-1.1-4.1-3.3-8.4-6.6-12.8c2.4-6.7,3.2-12.2,1.5-16.8
		c-1.5-4.4-4.9-7.5-9.2-10.5c3.1-6.2,3.8-12.4,2-18c-1.6-5.2-4.8-9.8-8.3-13.9c5.5-8.7-1.8-16-4.6-25.2l8.6-14.8
		c0.8-1.4,1.6-3,1.6-3c0.1-0.2,0.2-0.4,0.3-0.6c0.5-1.2,1-2.3,1.4-3.5c9.7,2.5,20.4,7.3,26.5,16.3c5.3,8.6,4.8,19.4-3,31.5
		c-0.7,1.1-0.5,2.6,0.3,3.6c7,8,9.4,13.9,9.1,18.2c-0.4,4.3-3.5,8.2-9.8,12.7C247.9,1198,247.5,1199.9,248.4,1201.2z"/>
	<path d="M232,1247.6c-3.4,4.8-11,6.8-21.1,2c-1-0.5-2.2-0.4-3.1,0.3c-12.4,5.8-28.2-1.8-37-13c2.2-17.8,10.1-42.4,26.3-70.7
		c1.9-3.3,4.1-7.2,6.4-11.3c2.3-4,4.6-8.1,6.8-11.8c0,0,0,0,0,0l0.1-0.2c3.2,6.6,5.6,16.4,2.5,21.2l4.5,6.1c1.6,2.4,2.9,4.9,3.7,7.5
		c1.5,4.9,1.3,9.9-2.3,15.6c-0.9,1.3-0.4,3.3,0.9,4.2c4.9,3.1,7.6,5.8,8.7,8.9c1.1,3.1,0.7,7.3-2,14.2c-0.4,1-0.2,2.2,0.5,3
		C235.5,1234.2,235.4,1242.8,232,1247.6z"/>
</g>
</svg>
