<?xml version="1.0" encoding="utf-8"?>
<!-- Generator: Adobe Illustrator 21.1.0, SVG Export Plug-In . SVG Version: 6.00 Build 0)  -->
<svg version="1.1" id="Layer_1" focusable="false" xmlns="http://www.w3.org/2000/svg" xmlns:xlink="http://www.w3.org/1999/xlink"
	 x="0px" y="0px" viewBox="0 0 512 512" style="enable-background:new 0 0 512 512;" xml:space="preserve">
<path d="M0,32v448h512V32H0z M179.7,75.9c11.2,0,20.2,9,20.2,20.2c0,11.2-9,20.2-20.2,20.2s-20.2-9-20.2-20.2
	C159.5,84.9,168.5,75.9,179.7,75.9z M123.3,75.9c11.2,0,20.2,9,20.2,20.2c0,11.2-9.1,20.2-20.2,20.2c-11.2,0-20.2-9-20.2-20.2
	C103.1,84.9,112.1,75.9,123.3,75.9z M66.7,75.9c11.2,0,20.2,9,20.2,20.2c0,11.2-9,20.2-20.2,20.2c-11.1,0-20.2-9-20.2-20.2
	C46.5,84.9,55.5,75.9,66.7,75.9z M460,428H52V149h408V428z"/>
</svg>
