<?xml version="1.0" encoding="utf-8"?>
<!-- Generator: Adobe Illustrator 21.1.0, SVG Export Plug-In . SVG Version: 6.00 Build 0)  -->
<svg version="1.1" id="Layer_1" xmlns="http://www.w3.org/2000/svg" xmlns:xlink="http://www.w3.org/1999/xlink" x="0px" y="0px"
	 viewBox="0 0 384 512" style="enable-background:new 0 0 384 512;" xml:space="preserve">
<path id="_x35_2" d="M381.9,2.8c-1.5-1.2-3.4-1.9-5.4-1.9L8,0.4h0C6,0.4,4.1,1,2.7,2.3C1.3,3.5,0.5,5.1,0.5,6.9L0.2,240.7
	c-0.1,40.5,25.4,78.3,66.5,98.7c9.9,4.9,20.5,8.7,31.4,11.3v118.5c0,23.7,19.2,42.8,42.8,42.8h104.3c23.7,0,42.8-19.2,42.8-42.8
	V350.9c55.1-12.7,95.7-56,95.8-107.2L384,7.3C384,5.6,383.2,3.9,381.9,2.8z M52.4,52.5l225.5,0.3l-0.1,97.4c0,1.6-0.8,3.4-2.2,4.8
	c-2.1,2-5,3.1-8.1,3.1c-2.2,0-4.2-0.5-6-1.6c-2.8-1.6-4.4-4-4.4-6.4l0.1-22.3c-0.1-9-7.1-16.1-16.1-16.1H241
	c-9.1,0-16.2,7.1-16.2,16.1c0,2-1,3.9-2.7,5.4c-2,1.8-4.7,2.7-7.6,2.7h0c-2.2,0-4.3-0.6-6-1.6c-2.8-1.6-4.4-4-4.4-6.5
	c0-4.3-1.7-8.4-4.7-11.4c-3-3-7.1-4.7-11.4-4.7h-0.1c-9.1,0-16.2,7.1-16.2,16.1l-0.1,22.1c-0.1,4.4-4.9,8.2-10.4,8.2c0,0,0,0,0,0
	H161c-2,0-4-0.5-5.7-1.5c-2.7-1.6-4.4-4-4.3-6.6l0-36.2c0-4.3-1.7-8.4-4.7-11.4c-3-3-7.1-4.7-11.4-4.7h-0.1
	c-9.1,0-16.2,7.2-16.2,16.2c0,1.6-0.8,3.4-2.3,4.9c-1.8,1.9-4.8,3-7.8,3c-1.9,0-3.4-0.3-5-1.3c-2.4-1.4-4.4-3.9-5.7-5.7
	c-1.6-2.2-3.6-4.8-7-6.7c-5.3-3-11.7-3-16.7,0.1c-8.1,4.8-8.5,13.1-8.6,17.1l0,0.5c-0.1,2.1,0,4.8,0,8.4c0,1.5,0.1,3.2,0.1,5l0,0.1
	c0.3,9.1,0.4,20.9,0.3,36.2c0,1.6-0.8,3.4-2.2,4.8c-2.1,2-5,3.1-8.1,3.1c-1.2,0-2.3-0.2-3.3-0.5L52.4,52.5z M236,460h-86V356.8
	l86,1.4V460z M331.8,243.7c-0.1,19.2-12.5,32.7-19.9,39c-14.8,12.7-35.8,20-57.5,20l-121.9-0.2H132c-14.8,0-29.4-3.4-42.3-9.8
	c-23.3-11.6-37.7-31.5-37.6-52v-0.1l0-25.2c1.1,0.1,2.1,0.1,3.2,0.1h0.3c11.5,0,22.7-4.5,30.8-12.4c7.7-7.5,11.9-17.4,11.9-27.9
	c0-8.8-0.1-16.3-0.2-22.6c3.3,0.8,6.8,1.3,10.4,1.3c3.5,0,7.1-0.4,10.5-1.2c1,13,8.5,24.7,20.5,31.6c6.5,3.7,14.1,5.7,21.9,5.8h0.1
	c17.4,0,32.6-9.9,39.3-24.4c4.4,1.4,9,2.2,13.7,2.2h0.2c4.8-0.1,9.4-0.8,13.7-2.2c3.4,7.6,9.4,14.1,17.2,18.6
	c6.7,3.8,14.1,5.8,22.1,5.9c11.6,0.1,23-4.4,31-12.4c7.6-7.4,11.8-17.3,11.8-27.8c0-0.9-0.1-58.8-0.2-97.5l21.6,0L331.8,243.7z"/>
</svg>
