<?xml version="1.0" encoding="utf-8"?>
<!-- Generator: Adobe Illustrator 21.1.0, SVG Export Plug-In . SVG Version: 6.00 Build 0)  -->
<svg version="1.1" id="Layer_2" xmlns="http://www.w3.org/2000/svg" xmlns:xlink="http://www.w3.org/1999/xlink" x="0px" y="0px"
	 viewBox="0 0 466 512" style="enable-background:new 0 0 466 512;" xml:space="preserve">
<g id="_x35_2_1_">
	<g>
		<path d="M340.5,246.2v37.5h-0.1v51.2v18.7c0,12.4-2.1,24.6-6.2,36.2l-3.5,9.8l-5.4,9c-9.4,15.7-22.7,28.8-38.5,37.9
			c-16.2,9.4-34.8,14.4-53.6,14.4c-18.9,0-37.5-5-53.7-14.3c-15.8-9.1-29.1-22.3-38.4-37.9l-5.1-8.6l-3.8-10.4
			c-4.1-11.4-6.2-23.6-6.2-36.1V335v-51.2v-37.6L340.5,246.2 M423.6,195l-381.7,0.1C18.8,195.1,0,213.8,0,236.8v34.7
			c0,7.7,6.3,13.9,14,13.9s14-6.2,14-13.9v-34.7c0-7.7,6.3-13.9,14-13.9h32.9V307h-30C21.8,307,3,325.7,3,348.7v34.7
			c0,7.7,6.2,13.9,14,13.9c7.7,0,14-6.2,14-13.9v-34.6c0-7.7,6.3-13.9,14-13.9h30v18.6c0,18.8,3.2,36.8,9.3,53.4h-0.2
			c-23.1,0-41.9,18.7-41.9,41.7v22.7c0,7.7,6.2,13.9,14,13.9c7.7,0,14-6.2,14-13.9v-22.7c0-7.7,6.3-13.9,14-13.9h13.3
			c27.7,46.3,78.3,77.2,136,77.2s108.4-31,136-77.2h12.4c7.7,0,14,6.2,14,13.9v22.7c0,7.7,6.3,13.9,14,13.9s14-6.2,14-13.9v-22.7
			c0-22.7-18.4-41.2-41.1-41.7c6-16.7,9.3-34.7,9.3-53.4v-18.7h29.1c7.7,0,14,6.2,14,13.9v34.7c0,7.7,6.3,13.9,14,13.9
			s14-6.2,14-13.9v-34.7c0-23-18.8-41.7-41.9-41.7h-29v-84.2h31.9c7.7,0,14,6.2,14,13.9v34.7c0,7.7,6.3,13.9,14,13.9s14-6.2,14-13.9
			v-34.7C465.5,213.7,446.7,195,423.6,195L423.6,195z"/>
		<path d="M267.3,0c-1.4,0-2.3,1.5-2.3,4.8c0,4,1.7,7.7,3.7,11.2c3.1,5.5,7.4,10.9,7.4,17.6c0,11.6-4.6,22.2-12,30
			c-9.8-3.1-20.3-4.6-31.4-4.6c-10.8,0-21.1,1.5-30.7,4.4c-7.3-7.8-11.8-18.3-11.8-29.8c0-6.7,4-12.1,7.2-17.6
			c2.1-3.5,3.7-7.2,3.7-11.2c0-3.4-0.8-4.8-2.3-4.8c-3,0-8.7,6.7-14.4,16.1c-8.6,14.1-17.2,34.2-17.2,46.8c0,6.3,0.9,12.4,2.6,18.2
			c-2.5,2-4.8,4.1-7.2,6.4c-19.2,19.1-28.8,42.2-28.8,69.2h198.8c0-27.3-9.7-50.3-29.3-69.2c-2.3-2.2-4.5-4.1-6.9-6.1
			c1.8-5.9,2.7-12.1,2.7-18.5c0-12.6-8.9-32.7-17.4-46.8C276,6.7,270.3,0,267.3,0L267.3,0z"/>
		<path d="M148.2,274.7c0-8.2,6.6-14.8,14.8-14.8s14.8,6.6,14.8,14.8c0,8.2-6.6,14.8-14.8,14.8S148.2,283,148.2,274.7z"/>
		<path d="M178,418.2c-8.3,0-15-6.7-15-15s6.7-15,15-15s15,6.7,15,15S186.3,418.2,178,418.2z"/>
		<path d="M189.7,362.4c-12.1,0-21.8-9.8-21.8-21.8c0-12.1,9.8-21.8,21.8-21.8s21.8,9.8,21.8,21.8S201.7,362.4,189.7,362.4z"/>
		<path d="M249.4,325.5c0-9.9,8-18,18-18c9.9,0,18,8,18,18s-8.1,17.9-18,17.9C257.4,343.4,249.4,335.3,249.4,325.5z"/>
		<path d="M281.8,400.6c-7.9,0-14.4-6.5-14.4-14.4s6.5-14.4,14.4-14.4s14.4,6.5,14.4,14.4C296.2,394.1,289.7,400.6,281.8,400.6z"/>
		<path d="M306,277.3c-7.9,0-14.4-6.5-14.4-14.4s6.5-14.4,14.4-14.4s14.4,6.5,14.4,14.4S314,277.3,306,277.3z"/>
	</g>
</g>
</svg>
