<?xml version="1.0" encoding="utf-8"?>
<!-- Generator: Adobe Illustrator 21.1.0, SVG Export Plug-In . SVG Version: 6.00 Build 0)  -->
<svg version="1.1" id="Layer_4" xmlns="http://www.w3.org/2000/svg" xmlns:xlink="http://www.w3.org/1999/xlink" x="0px" y="0px"
	 viewBox="0 0 361.1 512" style="enable-background:new 0 0 361.1 512;" xml:space="preserve">
<g>
	<path d="M0,0v512h144v-82.4c-0.5-21,16.5-38.1,37.6-38.1c21,0,38.1,17,38.4,38.1V512h141V0H0z M309,460h-37v-29.3
		c0-50.6-41.2-92.2-91.8-91.2c-48.9,1-88.2,40.9-88.2,90.1V460H51V52h258V460z"/>
	<path d="M211,80l-58,0l0,58l58,0L211,80z"/>
	<path d="M290,80l-58,0l0,58l58,0L290,80z"/>
	<path d="M132,80l-58,0l0,58l58,0L132,80z"/>
	<path d="M211,164l-58,0l0,58l58,0L211,164z"/>
	<path d="M290,164l-58,0l0,58l58,0L290,164z"/>
	<path d="M132,164l-58,0l0,58l58,0L132,164z"/>
	<path d="M211,248l-58,0l0,58h58L211,248z"/>
	<path d="M290,248l-58,0l0,58h58L290,248z"/>
	<path d="M132,248l-58,0l0,58h58L132,248z"/>
</g>
</svg>
