<?xml version="1.0" encoding="utf-8"?>
<!-- Generator: Adobe Illustrator 21.1.0, SVG Export Plug-In . SVG Version: 6.00 Build 0)  -->
<svg version="1.1" id="Layer_1" xmlns="http://www.w3.org/2000/svg" xmlns:xlink="http://www.w3.org/1999/xlink" x="0px" y="0px"
	 viewBox="0 0 512 512" style="enable-background:new 0 0 512 512;" xml:space="preserve">
<g>
	<path d="M477.6,148.9v-24.3H439v-24.3h-48.1v23.6H361V0.5H0v512h144v-82.4c-0.5-21,16.5-38.1,37.6-38.1c21,0,38.1,17,38.4,38.1
		v82.4h292V148.9H477.6z M309,460.5h-37v-29.3c0-50.6-41.2-92.2-91.8-91.2c-48.9,1-88.2,40.9-88.2,90.1v30.4H51v-408h258V460.5z
		 M477.2,463.8H361v-38.5h116.2V463.8z M477.3,401H361v-24.3h116.3V401z M477.3,352.4H361v-24.3h116.3V352.4z M477.3,303.8H361
		v-24.1h116.3V303.8z M477.3,255.4H361v-24.3h116.3V255.4z M477.3,206.8H361v-24.3h116.3V206.8z"/>
	<rect x="153" y="80" width="58" height="58"/>
	<rect x="232" y="80" width="58" height="58"/>
	<rect x="74" y="80" width="58" height="58"/>
	<rect x="153" y="164" width="58" height="58"/>
	<rect x="232" y="164" width="58" height="58"/>
	<rect x="74" y="164" width="58" height="58"/>
	<rect x="153" y="248" width="58" height="58"/>
	<rect x="232" y="248" width="58" height="58"/>
	<rect x="74" y="248" width="58" height="58"/>
</g>
</svg>
