<?xml version="1.0" encoding="utf-8"?>
<!-- Generator: Adobe Illustrator 21.1.0, SVG Export Plug-In . SVG Version: 6.00 Build 0)  -->
<svg version="1.1" id="Layer_4" xmlns="http://www.w3.org/2000/svg" xmlns:xlink="http://www.w3.org/1999/xlink" x="0px" y="0px"
	 viewBox="0 0 565.6 512" style="enable-background:new 0 0 565.6 512;" xml:space="preserve">
<g>
	<path d="M442.1,460v52h0.1v-52H442.1z"/>
	<path d="M240.5,0v512h125.3v-88.1c0-21.1,17.1-38.2,38.2-38.2s38.2,17.1,38.2,38.2V512h124.2V0H240.5z M514.5,460h-20.2v-36.1
		c0-49.8-40.4-90.2-90.2-90.2s-90.2,40.4-90.2,90.2V460h-22.3V52h223V460z"/>
	<path d="M227.6,462.6c0-3.5,0-7.8,0.9-11.5v-14.9h-9.3c0,0,4.4-7.9,6.9-12.2l1.6-2.9v-3.3c0.1-14.2,0.9-29.7,0.9-29.7l-1.7-17.8
		V356l0.9-20.2v-5.9l-4.6-3.7c-8.7-7.2-17.6-15.3-27-24.3c5.7-6.4,15.8-17.6,26.8-29.2l4-3.7v-59.4l-22.5,23.4
		c-13.6,14.6-28.5,30.8-36.4,39.4c-12.3-14.1-23.4-28.3-32.9-42.4c9.8-8.9,19.3-18,28.3-27.5c8.7-9.1,17.2-18.6,25.7-29.2
		c5.8,4.4,12.5,10.1,17.8,14.5l20.9,17.4v-27.1v-20.6v-6l-4.7-3.8c-3.1-2.5-6.3-5.1-9.5-7.6c4.5-6.6,9.8-14.6,12.2-18.4l2.8-3.1
		V32.1l-13.2-0.3c-1.5,0-2.9-0.1-4.4-0.1c-56.4,0-109.5,23-149.3,64.8C21.7,138.7-0.2,194.6,0,254.2c0.3,59.5,22.5,115.6,62.7,158
		c33.9,35.6,76.9,57.8,124.4,64.2h0.1c0.3,0.1,0.8,0.1,1,0.1c0.1,0,0.2,0,0.2,0h0.3c5.4,0.8,11.2,1.5,17.4,1.5c4.2,0,7.9-0.3,11.3-1
		l10.1-2.1L227.6,462.6L227.6,462.6z M175.3,432c-25.2-6.1-49-18.1-69.4-35.2l62.2-65.4c13.3,13,26.1,24.3,38.9,34.5l4.8,3.8
		l-7.4,11.4C193.4,397.9,183.6,415,175.3,432z M134.8,173.6c-6.4,6.8-13.4,13.7-21.6,21.1C101.5,173.6,92,152.6,84.8,132
		c1.7-2.2,3.6-4.3,5.5-6.3c1.7-1.8,3.7-3.7,5.6-5.4c19.7,7.7,39.7,17.7,59.5,29.9C148.4,158.7,141.7,166.3,134.8,173.6z M40.3,248.3
		c0.7-25.7,6.5-50.7,17.1-73.6c6.7,15.2,14.6,30.7,23.7,46.4C67.8,231.1,54.1,240.2,40.3,248.3z M103.4,255.7
		c10.5,15.1,22.8,30.5,36.6,46.1l-62.1,65.3c-16.1-21.4-27.5-46.5-33.3-73.2C64.5,283.2,84.2,270.3,103.4,255.7z M135.9,91.7
		c21.9-11.2,46-17.5,70.5-18.3l-2.5,4.6c-7.1,13-15,26-23.7,38.7C165.4,107.2,150.5,98.8,135.9,91.7z"/>
	<path d="M358.7,282.3H311v-47.7h47.7V282.3z M358.7,213.7H311V166h47.7V213.7z M358.7,144.4H311V96.7h47.7V144.4z M429.5,282.3
		h-47.7v-47.7h47.7V282.3z M429.5,213.7h-47.7V166h47.7V213.7z M429.5,144.4h-47.7V96.7h47.7V144.4z M498.1,282.3h-47v-47.7h47
		V282.3z M498.1,213.7h-47V166h47V213.7z M498.1,144.4h-47V96.7h47V144.4z"/>
</g>
</svg>
