<?xml version="1.0" encoding="utf-8"?>
<!-- Generator: Adobe Illustrator 21.1.0, SVG Export Plug-In . SVG Version: 6.00 Build 0)  -->
<svg version="1.1" id="Layer_3" xmlns="http://www.w3.org/2000/svg" xmlns:xlink="http://www.w3.org/1999/xlink" x="0px" y="0px"
	 viewBox="0 0 425.5 512" style="enable-background:new 0 0 425.5 512;" xml:space="preserve">
<g>
	<g>
		<path d="M271,0H0v512h52V331h219V0z M219,279H52V52h167V279z"/>
	</g>
	<g>
		<rect x="70" y="74.1" width="55.5" height="46.1"/>
	</g>
	<g>
		<rect x="145.5" y="74.1" width="55.5" height="46.1"/>
	</g>
	<g>
		<rect x="70" y="142.2" width="55.5" height="46.1"/>
	</g>
	<g>
		<rect x="145.5" y="142.2" width="55.5" height="46.1"/>
	</g>
	<g>
		<rect x="70" y="211" width="55.5" height="46.1"/>
	</g>
	<g>
		<rect x="145.5" y="211" width="55.5" height="46.1"/>
	</g>
	<g>
		<rect x="303" y="77.5" width="85.4" height="253.7"/>
	</g>
	<g>
		<polygon points="149.8,437.4 149.8,513 181.8,513 181.8,469.4 235.2,469.4 235.2,513 267.2,513 267.2,469.4 319.5,469.4 
			319.5,513 351.5,513 351.5,437.4 		"/>
	</g>
	<g>
		<polygon points="75.8,363.6 75.8,513 127.8,513 127.8,415.4 373.5,415.4 373.5,513 425.5,513 425.5,363.6 		"/>
	</g>
</g>
</svg>
