<?xml version="1.0" encoding="utf-8"?>
<!-- Generator: Adobe Illustrator 21.1.0, SVG Export Plug-In . SVG Version: 6.00 Build 0)  -->
<svg version="1.1" id="Layer_1" xmlns="http://www.w3.org/2000/svg" xmlns:xlink="http://www.w3.org/1999/xlink" x="0px" y="0px"
	 viewBox="0 0 512 512" style="enable-background:new 0 0 512 512;" xml:space="preserve">
<g>
	<g>
		<path d="M449.7,122.2c-0.7,1.5-0.7,2.9-0.2,4.3c0.7,1.8,1.7,3,3.2,3.6c1.6,0.4,3.1,0.4,4.5-0.2l40.6-15.2c1.6-0.6,2.7-1.5,3.2-2.7
			c0.8-1.5,0.9-3.2,0.3-4.9c-0.5-1.4-1.6-2.4-3.2-3c-1.2-0.6-2.6-0.5-4.2,0.1l-40.6,15.2C451.8,119.9,450.6,120.8,449.7,122.2z"/>
	</g>
	<g>
		<path d="M420,81.6c1.5,1.3,2.9,1.9,4.4,2c1.7,0.2,3-0.2,4.1-1.2L460.7,53c1-1,1.6-2.4,1.7-4.3c0.1-1.4-0.4-2.8-1.5-4
			s-2.4-1.8-4-1.8s-3,0.5-4.2,1.6l-31.8,28.9c-2.1,1.8-2.8,4-1.8,6.4C419.4,80.7,419.7,81.3,420,81.6z"/>
	</g>
	<g>
		<path d="M376.4,53.2c1.7,0.8,3.3,0.7,4.7-0.3c1.4-0.5,2.5-1.4,3.2-2.7l16.2-39.9c0.6-1.6,0.6-3.2,0-4.8c-0.5-1.4-1.6-2.4-3.2-3
			c-1.5-0.8-2.9-0.8-4.2,0.1c-1.6,0.6-2.8,1.6-3.8,2.9l-15.7,40.4c-0.5,1.2-0.5,2.6,0.1,4.2C374.2,51.4,375.1,52.5,376.4,53.2z"/>
	</g>
	<g>
		<path d="M510.3,176.5c-1.2-1-2.5-1.5-3.9-1.6l-43.6-0.9c-1.4-0.1-2.8,0.4-4,1.5c-1,1.2-1.6,2.7-1.9,4.6c0,0.4,0.1,1.1,0.4,2
			c0.9,2.5,2.8,3.7,5.6,3.6l42.9,0.8c1.6,0,3-0.5,4.2-1.6c1.1-1.2,1.8-2.6,1.8-4C512,179.4,511.4,177.9,510.3,176.5z"/>
	</g>
	<g>
		<path d="M489.2,246.8l-38.4-19.5c-1.5-0.7-2.9-0.8-4.4-0.5c-1.6,0.6-2.8,1.7-3.7,3.2c-0.4,1.6-0.4,3.1,0.2,4.5
			c0.5,1.4,1.4,2.5,2.7,3.2l38.2,19.6c1.7,0.8,3.4,0.9,4.9,0.3c1.4-0.5,2.5-1.4,3.2-2.7c0.8-1.5,1-3,0.5-4.4
			C491.7,248.8,490.7,247.6,489.2,246.8z"/>
	</g>
	<g>
		<path d="M398.7,208.7c0.9,2.3,2.3,3.9,4.2,4.8c2.1,0.8,4.2,0.8,6.4,0l5.3-2c1.9-0.7,3.5-2.1,4.8-4.2c1.1-2,1.2-4.2,0.3-6.5
			L391,124.2c-0.8-2.1-2.3-3.7-4.5-4.7c-2.3-0.8-4.4-0.8-6.4,0l-5.3,2c-2.1,0.8-3.7,2.2-4.8,4.2c-0.8,2.1-0.8,4.2,0,6.4L398.7,208.7
			z"/>
	</g>
	<path d="M340.8,52.5C340.8,52.5,340.8,52.5,340.8,52.5C340.8,52.5,340.8,52.5,340.8,52.5 M309.7,138.7l39,104.1
		c-21.5-7.7-42.6-11.6-63.1-11.6c-9.1,0-18.1,0.8-26.6,2.4l-5.1,0.9c-30.7,5.6-37.1,10.4-78.6,23.8l-25,8.1
		c-14.6,4.7-36.1,19.6-30.7,33.9h0c-10.7-6-23-9.6-36.4-9.6c-7.9,0-15.8,1.3-23.5,3.8l-1.2-3.2l4.2-1.6l31.1-11.6l1.1-13.7
		l27.6-10.3l9,8.6l30.8-11.9c25.8-10,50.5-24.4,76.7-39.6c2.7-1.6,5.4-3.1,8.2-4.8C271.6,192.2,292.9,168.9,309.7,138.7 M309.7,21
		c-2.2,0-4.4,0.4-6.5,1.3c-7.2,2.7-11.8,10.1-13.8,22.1c-12.1,55.5-37.4,99.1-68.3,117c-28.8,16.7-53.2,31.4-77.5,40.8
		c-3.4-3.2-7.1-5-11.3-5.5c-0.1,0-0.3,0-0.5,0c-1.7,0-5.1,0.4-7.8,1.3l-66.5,24.9c-8,3-12.2,9-12.9,18.1l-24.9,9.3
		C8.5,254.6,2,261,0.3,269.4c-1.1,6.7,0.5,15.9,5,27.8L15.7,325c3.7,9.9,11.3,16.8,22.9,20.8c5,1.7,10.2,2.5,15.5,2.5
		c6.6,0,13.5-1.3,20.6-3.9c3-1.2,5.9-1.7,8.6-1.7c14.2,0,23.8,14.2,25.2,21.4l29.3,125.7c2.2,9.6,4.7,16.1,7.5,19.2
		c2,1.9,4.3,2.8,6.9,2.8c1.6,0,3.4-0.4,5.3-1l80.6-30.2c4.4-1.7,5.9-5.1,4.5-10.5l-6.9-28.9c-1.1-4-3.1-6.3-5.8-6.3
		c-0.8,0-1.8,0.2-2.7,0.7c-2.5,1.1-4.7,1.6-6.8,1.6c-2.7,0-5.1-0.9-7.4-2.3c-5-3-8.3-8.4-10-16.2l-13.4-58.5
		c3.3-4.3,3.7-11.4,1.8-16.7l-13.8-36.8c40.4-13.1,58.1-16,90.9-22c4.9-0.9,10.6-1.5,17.1-1.5c25.2,0,62.4,9.2,110.1,44.9
		c7,5.8,13.3,8.6,19.1,8.6c2,0,4-0.4,5.8-1c3.9-1.5,15-7.8,10.6-20.9L324.9,31.1C322.4,24.6,316.1,21,309.7,21L309.7,21z"/>
</g>
</svg>
