<?xml version="1.0" encoding="utf-8"?>
<!-- Generator: Adobe Illustrator 21.1.0, SVG Export Plug-In . SVG Version: 6.00 Build 0)  -->
<svg version="1.1" id="Layer_1" xmlns="http://www.w3.org/2000/svg" xmlns:xlink="http://www.w3.org/1999/xlink" x="0px" y="0px"
	 viewBox="0 0 518.4 512" style="enable-background:new 0 0 518.4 512;" xml:space="preserve">
<g>
	<path d="M22,153h7.8c5.5,0,10-4.5,10-10V73.5c0-5.5-4.5-10-10-10H10c-5.5,0-10,4.5-10,10V143c0,5.5,4.5,10,10,10h8v24.5h33.7v-4.1
		H22V153z"/>
	<path d="M508.4,63.6h-19.8c-5.5,0-10,4.5-10,10V143c0,5.5,4.5,10,10,10h8v20.5h-29.9v4.1h33.9V153h7.8c5.5,0,10-4.5,10-10V73.5
		C518.3,68,513.9,63.6,508.4,63.6z"/>
	<path id="_x35_2" d="M126.8,379.1c-9.4,0-17.1,7.7-17.1,17.1s7.7,17.1,17.1,17.1s17-7.7,17.1-17.1
		C144,386.8,136.3,379.1,126.8,379.1z M162.7,391.5c-6,0-10.9,4.9-10.9,10.9c0,6,4.9,10.9,10.9,10.9c6,0,10.9-4.9,10.9-10.9
		C173.7,396.4,168.7,391.5,162.7,391.5z M251.2,254.3L251.2,254.3l15.9,0v0H251.2z M353.4,391.4c-6.2,0-11.1,4.8-11.1,10.9
		c0,6,5,10.9,11.1,10.9c6.2,0,11.1-4.9,11.1-10.9S359.6,391.4,353.4,391.4z M390.7,379.1c-9.5,0-17.3,7.7-17.3,17.1
		s7.8,17.1,17.3,17.1c9.5,0,17.3-7.7,17.3-17.1S400.3,379.1,390.7,379.1z M390.7,379.1c-9.5,0-17.3,7.7-17.3,17.1
		s7.8,17.1,17.3,17.1c9.5,0,17.3-7.7,17.3-17.1S400.3,379.1,390.7,379.1z M353.4,391.4c-6.2,0-11.1,4.8-11.1,10.9
		c0,6,5,10.9,11.1,10.9c6.2,0,11.1-4.9,11.1-10.9S359.6,391.4,353.4,391.4z M251.2,254.3h15.9v0L251.2,254.3L251.2,254.3z
		 M162.7,391.5c-6,0-10.9,4.9-10.9,10.9c0,6,4.9,10.9,10.9,10.9c6,0,10.9-4.9,10.9-10.9C173.7,396.4,168.7,391.5,162.7,391.5z
		 M126.8,379.1c-9.4,0-17.1,7.7-17.1,17.1s7.7,17.1,17.1,17.1s17-7.7,17.1-17.1C144,386.8,136.3,379.1,126.8,379.1z M469.5,245.2V50
		c0-10.5,8.4-42.8-39.5-42.8c-11.4,0-98.6-6.7-170.7-6.7c-72,0-159.3,6.6-170.7,6.6c-42.4,0-39.6,25.3-39.6,41.6v196.4
		c-2.2,5.3-3.4,11.1-3.4,17L45.8,469c0,4.2,3.4,7.6,7.6,7.7l7.1,0.1v23.9c0,6.3,5.1,11.4,11.4,11.4h31c6.3,0,11.3-5.1,11.4-11.3
		l0-23.4H404l0,23.3c0,6.3,5,11.4,11.3,11.4l31.3,0.1c6.3,0,11.4-5.1,11.4-11.3v-23.9l6.7,0c4.6,0,8.3-3.7,8.3-8.3V262.1
		C472.9,256.3,471.8,250.5,469.5,245.2z M420.9,320.7c-2.9,1.1-6,2.2-9,3.2c-15.4,4.9-30.8,6.9-30.8,6.9c-5.5,0-9.9,4.4-9.9,9.9v6
		c0,5.5,4.4,9.9,9.9,9.9l39.8-1.9v70.6H97.8l0-70.6l39.5,1.9c5.5,0,9.9-4.4,9.9-9.9v-6c0-5.5-4.4-9.9-9.9-9.9c0,0-15.4-1.9-30.8-6.9
		c-3-1-5.9-2-8.7-3.1l0-56.1l3.4-4.7v-5.6h150.1V148.1h-18.9c-7.1,0-12.9-5.8-12.9-12.9c0-7.1,5.8-12.9,12.9-12.9h18.9V99.1H108.1
		c-2.5,0-4.8,0.4-7,1.2V68.7c0-5.2,4.2-9.5,9.4-9.6l1.6-0.1c8.2-0.7,75.4-6.5,147.2-6.5c71.8,0,138.9,5.9,147.1,6.6l0.8,0.1l0.8,0
		c2.9,0,5.6,1.3,7.4,3.3c1.5,1.6,2.2,3.3,2,5.3l0,32.2c-1.8-0.5-3.8-0.8-5.8-0.8H267.1v23.2H284c7.1,0,12.9,5.8,12.9,12.9
		c0,7.1-5.8,12.9-12.9,12.9h-16.9v106.2h150.5v5.8l3.4,4.7V320.7z M390.7,413.3c9.5,0,17.3-7.7,17.3-17.1s-7.8-17.1-17.3-17.1
		c-9.5,0-17.3,7.7-17.3,17.1S381.2,413.3,390.7,413.3z M353.4,391.4c-6.2,0-11.1,4.8-11.1,10.9c0,6,5,10.9,11.1,10.9
		c6.2,0,11.1-4.9,11.1-10.9S359.6,391.4,353.4,391.4z M267.1,254.3L267.1,254.3l-15.9,0v0H267.1z M162.7,391.5
		c-6,0-10.9,4.9-10.9,10.9c0,6,4.9,10.9,10.9,10.9c6,0,10.9-4.9,10.9-10.9C173.7,396.4,168.7,391.5,162.7,391.5z M126.8,379.1
		c-9.4,0-17.1,7.7-17.1,17.1s7.7,17.1,17.1,17.1s17-7.7,17.1-17.1C144,386.8,136.3,379.1,126.8,379.1z"/>
</g>
</svg>
