<?xml version="1.0" encoding="utf-8"?>
<!-- Generator: Adobe Illustrator 19.0.0, SVG Export Plug-In . SVG Version: 6.00 Build 0)  -->
<svg version="1.1" id="Layer_5" xmlns="http://www.w3.org/2000/svg" xmlns:xlink="http://www.w3.org/1999/xlink" x="0px" y="0px"
	 viewBox="-137 0 449.1 512" style="enable-background:new -137 0 449.1 512;" xml:space="preserve">
<style type="text/css">
	.st0{fill:#0B0506;}
</style>
<g id="_x35_2">
	<path d="M-137,8v496c0,4.4,3.6,8,8,8h433c4.4,0,8-3.6,8-8V8c0-4.4-3.6-8-8-8h-433C-133.4,0-137,3.6-137,8z M260,460H-85V52h345V460
		z"/>
	<path class="st0" d="M-66.2,69.5h306v135h-306V69.5z M118.5,251.2v42.6c0,5.9-4.8,10.7-10.7,10.7H65.2c-5.9,0-10.7-4.8-10.7-10.7
		v-42.6c0-5.9,4.8-10.7,10.7-10.7h42.6C113.8,240.5,118.5,245.3,118.5,251.2z M-4.5,416.8c0,5.9-4.8,10.7-10.7,10.7h-42.6
		c-5.9,0-10.7-4.8-10.7-10.7v-42.6c0-5.9,4.8-10.7,10.7-10.7h42.6c5.9,0,10.7,4.8,10.7,10.7V416.8z M-4.5,293.8
		c0,5.9-4.8,10.7-10.7,10.7h-42.6c-5.9,0-10.7-4.8-10.7-10.7v-42.6c0-5.9,4.8-10.7,10.7-10.7h42.6c5.9,0,10.7,4.8,10.7,10.7V293.8z
		 M241.5,416.8c0,5.9-4.8,10.7-10.7,10.7H65.2c-5.9,0-10.7-4.8-10.7-10.7v-42.6c0-5.9,4.8-10.7,10.7-10.7h165.6
		c5.9,0,10.7,4.8,10.7,10.7V416.8z M241.5,293.8c0,5.9-4.8,10.7-10.7,10.7h-42.6c-5.9,0-10.7-4.8-10.7-10.7v-42.6
		c0-5.9,4.8-10.7,10.7-10.7h42.6c5.9,0,10.7,4.8,10.7,10.7V293.8z"/>
</g>
</svg>
