<?xml version="1.0" encoding="utf-8"?>
<!-- Generator: Adobe Illustrator 21.1.0, SVG Export Plug-In . SVG Version: 6.00 Build 0)  -->
<svg version="1.1" id="Layer_3" xmlns="http://www.w3.org/2000/svg" xmlns:xlink="http://www.w3.org/1999/xlink" x="0px" y="0px"
	 viewBox="0 0 377.2 512" style="enable-background:new 0 0 377.2 512;" xml:space="preserve">
<g>
	<path d="M287.6,250.6c-14.5,0-26.4,11.8-26.4,26.4c0,14.5,11.8,26.4,26.4,26.4c14.5,0,26.4-11.8,26.4-26.4
		C313.9,262.4,302.1,250.6,287.6,250.6z"/>
	<path d="M221.1,250.6c-14.5,0-26.4,11.8-26.4,26.4c0,14.5,11.8,26.4,26.4,26.4c14.5,0,26.4-11.8,26.4-26.4
		C247.5,262.4,235.7,250.6,221.1,250.6z"/>
	<path d="M153.7,250.6c-14.5,0-26.4,11.8-26.4,26.4c0,14.5,11.8,26.4,26.4,26.4s26.4-11.8,26.4-26.4
		C180.1,262.4,168.2,250.6,153.7,250.6z"/>
	<path d="M87.3,250.6c-14.5,0-26.4,11.8-26.4,26.4c0,14.5,11.8,26.4,26.4,26.4s26.4-11.8,26.4-26.4
		C113.6,262.4,101.8,250.6,87.3,250.6z"/>
	<path d="M287.6,331.7c-14.5,0-26.4,11.8-26.4,26.4s11.8,26.4,26.4,26.4c14.5,0,26.4-11.8,26.4-26.4S302.1,331.7,287.6,331.7z"/>
	<path d="M221.1,384.4c14.5,0,26.4-11.8,26.4-26.4s-11.8-26.4-26.4-26.4c-14.5,0-26.4,11.8-26.4,26.4S206.6,384.4,221.1,384.4z"/>
	<path d="M153.7,331.7c-14.5,0-26.4,11.8-26.4,26.4s11.8,26.4,26.4,26.4s26.4-11.8,26.4-26.4S168.2,331.7,153.7,331.7z"/>
	<path d="M87.3,331.7c-14.5,0-26.4,11.8-26.4,26.4s11.8,26.4,26.4,26.4s26.4-11.8,26.4-26.4S101.8,331.7,87.3,331.7z"/>
	<path d="M287.1,411.8h-63.6c-14.8,0-26.8,12-26.8,26.8s12,26.8,26.8,26.8h63.6c14.8,0,26.8-12,26.8-26.8S301.9,411.8,287.1,411.8z"
		/>
	<path d="M153.7,411.8c-14.5,0-26.4,11.8-26.4,26.4c0,14.5,11.8,26.4,26.4,26.4s26.4-11.8,26.4-26.4
		C180.1,423.7,168.2,411.8,153.7,411.8z"/>
	<path d="M87.3,411.8c-14.5,0-26.4,11.8-26.4,26.4c0,14.5,11.8,26.4,26.4,26.4s26.4-11.8,26.4-26.4
		C113.6,423.7,101.8,411.8,87.3,411.8z"/>
	<path d="M376.4,0.5h-51.2H50.3h-52v52v72.1v52v303.6v32.3h52h274.9h51.2h0.8V0.5H376.4z M50.3,52.5h274.9v90.1H50.3V52.5z
		 M50.3,480.2V176.6h274.9v303.6H50.3z"/>
	<path d="M305,195.6h-32.4c-7,0-12.8,5.7-12.8,12.8c0,7,5.7,12.8,12.8,12.8H305c7,0,12.8-5.7,12.8-12.8
		C317.8,201.3,312,195.6,305,195.6z"/>
	<path d="M205.6,221.1H238c7,0,12.8-5.7,12.8-12.8c0-7-5.7-12.8-12.8-12.8h-32.4c-7,0-12.8,5.7-12.8,12.8
		C192.8,215.4,198.5,221.1,205.6,221.1z"/>
	<path d="M170.1,195.6h-32.4c-7,0-12.8,5.7-12.8,12.8c0,7,5.7,12.8,12.8,12.8h32.4c7,0,12.8-5.7,12.8-12.8
		C182.9,201.3,177.1,195.6,170.1,195.6z"/>
	<path d="M102.2,195.6H69.8c-7,0-12.8,5.7-12.8,12.8c0,7,5.7,12.8,12.8,12.8h32.4c7,0,12.8-5.7,12.8-12.8
		C115,201.3,109.3,195.6,102.2,195.6z"/>
</g>
</svg>
