<?xml version="1.0" encoding="utf-8"?>
<!-- Generator: Adobe Illustrator 22.0.1, SVG Export Plug-In . SVG Version: 6.00 Build 0)  -->
<svg version="1.1" id="Layer_3" xmlns="http://www.w3.org/2000/svg" xmlns:xlink="http://www.w3.org/1999/xlink" x="0px" y="0px"
	 viewBox="0 0 512 512" style="enable-background:new 0 0 512 512;" xml:space="preserve">
<g>
	<path d="M212.9,407.6H101.3c-4.5,0-8.5-1.8-11.4-4.7c-2.9-2.9-4.8-7-4.8-11.5c0-8.9,7.2-16.2,16.2-16.2h111.6
		c8.9,0,16.2,7.2,16.2,16.2S221.9,407.7,212.9,407.6z M212.9,354.9H101.3c-4.5,0-8.5-1.8-11.4-4.7c-2.9-2.9-4.8-7-4.8-11.5
		c0-8.9,7.2-16.2,16.2-16.2h111.6c8.9,0,16.2,7.2,16.2,16.2C229.1,347.6,221.9,354.9,212.9,354.9z M212.9,180.6H101.3
		c-4.5,0-8.5-1.8-11.4-4.7s-4.8-7-4.8-11.5c0-8.9,7.2-16.2,16.2-16.2h111.6c8.9,0,16.2,7.2,16.2,16.2
		C229.1,173.3,221.9,180.6,212.9,180.6z M409.8,393.1c6.3,6.3,6.3,16.6,0,22.9s-16.6,6.3-22.9,0l-28-28l-28,28
		c-6.3,6.3-16.6,6.3-22.9,0s-6.3-16.6,0-22.9l28-28l-28-28c-6.3-6.3-6.3-16.6,0-22.9s16.6-6.3,22.9,0l28,28l28-28
		c6.3-6.3,16.6-6.3,22.9,0s6.3,16.6,0,22.9l-28,28L409.8,393.1z M414.7,180.5h-39.6v39.6c0,8.9-7.3,16.2-16.2,16.2
		c-8.9,0-16.2-7.2-16.2-16.2v-39.6h-39.6c-8.9,0-16.2-7.3-16.2-16.2s7.2-16.2,16.2-16.2h39.6v-39.6c0-8.9,7.3-16.2,16.2-16.2
		c8.9,0,16.2,7.2,16.2,16.2v39.6h39.6c8.9,0,16.2,7.3,16.2,16.2C430.9,173.2,423.7,180.5,414.7,180.5z"/>
	<path d="M461,52v408H53V52H461 M473.9,0H40.1C18.5,0,1,17.5,1,39.1v433.8C1,494.5,18.5,512,40.1,512h433.8
		c21.6,0,39.1-17.5,39.1-39.1V39.1C513,17.5,495.5,0,473.9,0L473.9,0z"/>
</g>
</svg>
