<?xml version="1.0" encoding="utf-8"?>
<!-- Generator: Adobe Illustrator 22.0.1, SVG Export Plug-In . SVG Version: 6.00 Build 0)  -->
<svg version="1.1" id="Layer_2" xmlns="http://www.w3.org/2000/svg" xmlns:xlink="http://www.w3.org/1999/xlink" x="0px" y="0px"
	 viewBox="0 0 512 512" style="enable-background:new 0 0 512 512;" xml:space="preserve">
<g>
	<path d="M427.9,42.9V28c0-15.4-12.5-28-28-28c-15.5,0-28,12.5-28,28v15l-235,0V28c0-15.4-12.5-28-28-28C93.5,0,81,12.5,81,28v15
		l-81,0v469.1h431.6l80.5-80.5l0.1-388.7L427.9,42.9z M51.9,94.9h29v7.1c0,15.5,12.5,28,28,28c15.5,0,28-12.5,28-28v-7.1h235v7.1
		c0,15.5,12.5,28,28,28c15.5,0,28-12.5,28-28v-7.1h31.8L460,147h-408V94.9z M356.8,459.9l-304.8,0.4V199h408l-0.3,158.2l-102.9,0.1
		V459.9z M408.8,461.2l0.2-51.8l51.6,0.2L408.8,461.2z"/>
</g>
</svg>
