<?xml version="1.0" encoding="utf-8"?>
<!-- Generator: Adobe Illustrator 19.0.0, SVG Export Plug-In . SVG Version: 6.00 Build 0)  -->
<svg version="1.1" id="Layer_2" xmlns="http://www.w3.org/2000/svg" xmlns:xlink="http://www.w3.org/1999/xlink" x="0px" y="0px"
	 viewBox="67 0 512 512" style="enable-background:new 67 0 512 512;" xml:space="preserve">
<g id="_x35_2">
	<path d="M494.8,43.2V28.3c0-15.4-12.5-28-28-28s-28,12.5-28,28v15h-235v-15c0-15.4-12.5-28-28-28c-15.4,0-27.9,12.5-27.9,28v15h-81
		v469.1h431.6l80.5-80.5l0.1-388.7L494.8,43.2z M118.8,95.2h29v7.1c0,15.5,12.5,28,28,28s28-12.5,28-28v-7.1h235v7.1
		c0,15.5,12.5,28,28,28s28-12.5,28-28v-7.1h31.8l0.3,52.1h-408L118.8,95.2L118.8,95.2z M423.7,460.2l-304.8,0.4V199.3h408
		l-0.3,158.2l-102.9,0.1L423.7,460.2L423.7,460.2z M475.7,461.5l0.2-51.8l51.6,0.2L475.7,461.5z"/>
	<path d="M397.7,359.1c-4,3.9-5.8,9.5-4.8,15l11.5,65.6c1.4,7.8-6.7,13.7-13.8,10l-59.3-31c-4.9-2.6-10.7-2.6-15.7,0l-58.9,31
		c-7,3.7-15.1-2.2-13.8-10l11.2-65.7c0.9-5.4-0.9-11-4.8-14.9l-47.7-46.5c-5.6-5.5-2.5-15.1,5.3-16.2l66-9.5
		c5.5-0.8,10.2-4.2,12.7-9.2l29.4-59.6c3.5-7.1,13.5-7.1,17,0l29.6,59.7c2.5,5,7.2,8.4,12.7,9.2l65.9,9.5
		c7.8,1.1,10.9,10.7,5.3,16.2L397.7,359.1z"/>
</g>
</svg>
