<?xml version="1.0" encoding="utf-8"?>
<!-- Generator: Adobe Illustrator 22.0.1, SVG Export Plug-In . SVG Version: 6.00 Build 0)  -->
<svg version="1.1" id="Layer_2_1_" xmlns="http://www.w3.org/2000/svg" xmlns:xlink="http://www.w3.org/1999/xlink" x="0px" y="0px"
	 viewBox="0 0 512 512" style="enable-background:new 0 0 512 512;" xml:space="preserve">
<g>
	<path d="M279.3,365h-46c-3.3,0-6,2.7-6,6v44c0,3.3,2.7,6,6,6h46c3.3,0,6-2.7,6-6v-44C285.3,367.7,282.6,365,279.3,365z M150.3,365
		h-46c-3.3,0-6,2.7-6,6v44c0,3.3,2.7,6,6,6h46c3.3,0,6-2.7,6-6v-44C156.3,367.7,153.6,365,150.3,365z M407.7,238H104.3
		c-3.3,0-6,2.7-6,6v44c0,3.3,2.7,6,6,6h303.4c3.3,0,6-2.7,6-6v-44C413.7,240.7,411,238,407.7,238z"/>
	<path d="M427.9,42.9V28c0-15.4-12.5-28-28-28s-28,12.5-28,28v15h-235V28c0-15.4-12.5-28-28-28C93.5,0,81,12.5,81,28v15H0v469.1
		h431.6l80.5-80.5l0.1-388.7L427.9,42.9z M51.9,94.9h29v7.1c0,15.5,12.5,28,28,28s28-12.5,28-28v-7.1h235v7.1c0,15.5,12.5,28,28,28
		s28-12.5,28-28v-7.1h31.8L460,147H52L51.9,94.9L51.9,94.9z M356.8,459.9L52,460.3V199h408l-0.3,158.2l-102.9,0.1L356.8,459.9
		L356.8,459.9z M408.8,461.2l0.2-51.8l51.6,0.2L408.8,461.2z"/>
</g>
</svg>
