<?xml version="1.0" encoding="utf-8"?>
<!-- Generator: Adobe Illustrator 19.0.0, SVG Export Plug-In . SVG Version: 6.00 Build 0)  -->
<svg version="1.1" id="Layer_2" xmlns="http://www.w3.org/2000/svg" xmlns:xlink="http://www.w3.org/1999/xlink" x="0px" y="0px"
	 viewBox="67 0 512 512" style="enable-background:new 67 0 512 512;" xml:space="preserve">
<g id="_x35_2">
	<path d="M494.8,43.2V28.3c0-15.4-12.5-28-28-28s-28,12.5-28,28v15h-235v-15c0-15.4-12.5-28-28-28c-15.4,0-27.9,12.5-27.9,28v15h-81
		v469.1h431.6l80.5-80.5l0.1-388.7L494.8,43.2z M118.8,95.2h29v7.1c0,15.5,12.5,28,28,28s28-12.5,28-28v-7.1h235v7.1
		c0,15.5,12.5,28,28,28s28-12.5,28-28v-7.1h31.8l0.3,52.1h-408L118.8,95.2L118.8,95.2z M423.7,460.2l-304.8,0.4V199.3h408
		l-0.3,158.2l-102.9,0.1L423.7,460.2L423.7,460.2z M475.7,461.5l0.2-51.8l51.6,0.2L475.7,461.5z"/>
	<g>
		<path d="M163.8,357h98.8c8.1,0,14.6-6.5,14.6-14.6v-98.8c0-8.1-6.5-14.6-14.6-14.6h-98.8c-8.1,0-14.6,6.5-14.6,14.6v98.8
			C149.2,350.4,155.7,357,163.8,357z"/>
	</g>
</g>
</svg>
