<?xml version="1.0" encoding="utf-8"?>
<!-- Generator: Adobe Illustrator 21.1.0, SVG Export Plug-In . SVG Version: 6.00 Build 0)  -->
<svg version="1.1" id="Layer_1" xmlns="http://www.w3.org/2000/svg" xmlns:xlink="http://www.w3.org/1999/xlink" x="0px" y="0px"
	 viewBox="0 0 441 512" style="enable-background:new 0 0 441 512;" xml:space="preserve">
<g>
	<path d="M76.4,186.2c1.8,5.8,7.8,10.1,15.4,10.1c9,0,16.2-5.9,16.2-13.3v-60.3c0-4.2-2.5-7.7-6.2-10.2c0.1-0.5-10.4-1-10.3-1.5
		c7.6-59.3,61.3-97.9,128-97.9s119.4,38.2,126.6,97.5c0.1,0.6-10.4,1.2-10.3,1.9c-9.6,6.4-6.1,11.8-6.1,70.5c0,4.6,3,8.4,7.3,10.8
		V204c0,34.7-41.7,36.9-89.9,47.3c-10.5-9.3-29.1-3.2-29.1,9.2c0,15.7,27.4,19.3,32.7,3.6C300.4,253.3,353,249.3,353,204v-9.4
		c4.1-1.7,7-4.8,8.1-8.5c22.2-0.4,20-15.1,20-33.3s2.2-32.9-20-33.3c-1.1-3.5-3.8-6.4-7.6-8.2C353.8,51.2,296.5,0,219.4,0
		S83.9,51,83.9,111.4c-3.8,1.8-6.4,4.7-7.5,8.2c-22.2,0.4-20,15.1-20,33.3S54.3,185.8,76.4,186.2z"/>
	<path d="M435.3,415.6c-7.1-22.1-24.6-43.2-52.7-61.7c-23.4-15.4-54.2-28.9-92.5-39.5c-0.1,0-0.3-0.1-0.4-0.1c0,0-2.2-4.8-5.7-10.2
		c-2.2-3.3-4.8-6.9-6.8-9.5c-1.4-1.8-2.5-3.2-2.9-3.8c-0.2-0.2-0.2-0.3-0.2-0.3v-15.7c-1.5-0.1-9.3,1.9-12.6,2.2
		c-12,12.4-25.4,14.6-36.4,11.3V308c0,0,11.9,16.9,15.3,22.5c3.9,6.4,13.2,25.5,13.2,25.5c132.9,32.5,137.4,79.3,135.7,84.3
		c-16.8,14.4-62.6,22.2-169.8,22.2c-71.1,0-149.9-3.1-169.4-22.1c-1.9-7.8,8.1-55.6,133.1-82.9c0,0,10.8-20.2,15.1-26.9
		c3.5-5.4,16.7-21.8,16.7-21.8v-24.8c-7.8-5.5-13-14.1-13-23c0-3.8,1.6-10.3,5.8-16.1C143.2,190.3,145,77.2,221.1,77.2
		c70,0,73.5,105.7,22.8,156.1c1.9,0.4,4,1,6.1,1.6c9.6-0.8,58-13.8,58.2-14c1.8-0.6,5.5-1.9,5.5-1.9s0.2,0,0.2,0
		c4.7-10.6,8.4-22.6,9.8-35.7c10.6-53-1.5-96.1-27-123.4c-5.8-6.2-12.2-11.6-19.3-16.1c-0.2-0.2-0.5-0.3-0.7-0.5
		c-0.6-0.4-1.2-0.7-1.8-1.1c-9.1-5.4-19-9.4-29.7-11.8c-5.3-1.2-10.7-2-16.3-2.4h-0.4c-0.7-0.1-1.9-0.1-3.4-0.1c-0.1,0-0.1,0-0.2,0
		c-2.8,0-6.5,0-9.4,0c-0.2,0-0.4,0-0.6,0c-0.2,0-0.4,0-0.6,0c-1.3,0-2.3,0-2.9,0.1h-0.4c-1,0.1-2,0.1-2.9,0.2
		c-47.1,4.6-84.1,38.6-93.4,91.1c-3.4,19.1-3.2,40.6,1.5,64.1c2.1,19.6,9.3,36.7,17.6,50.6c9,14.2,19.1,25.6,25.5,32.2
		c1.3,1.3,2.4,2.4,3.3,3.4c2,2,3.2,3,3.2,3v17.9c0,0-0.2,0.2-0.5,0.6c-1,1.3-3.6,4.4-6.3,8c-1.2,1.6-2.5,3.3-3.7,5
		c-3.8,5.4-6.3,10.4-6.3,10.4c0,0,0,0,0,0c-33.3,8.7-61,20.1-83.1,33.3C35,366.3,15.1,388.3,6.4,411.3c-6.3,17.3-5.4,30.1-4.5,35.4
		c0.1,0.9,0.3,1.6,0.4,2c7,39.2,54.8,54.2,120.1,59.7c21.9,1.9,45.7,2.6,70.7,2.9c8.8,0.1,17.8,0.1,26.9,0.1c9.2,0,18.3,0,27.3-0.1
		c27.6-0.3,53.9-1.2,77.6-3.6c61.8-6,106.4-21.3,113.1-59.1c0.2-0.8,0.4-2.2,0.6-4C439.1,438.5,439.2,426.9,435.3,415.6z"/>
</g>
</svg>
