<?xml version="1.0" encoding="utf-8"?>
<!-- Generator: Adobe Illustrator 21.1.0, SVG Export Plug-In . SVG Version: 6.00 Build 0)  -->
<svg version="1.1" id="Layer_3" xmlns="http://www.w3.org/2000/svg" xmlns:xlink="http://www.w3.org/1999/xlink" x="0px" y="0px"
	 viewBox="0 0 495.9 512" style="enable-background:new 0 0 495.9 512;" xml:space="preserve">
<g>
	<path d="M457.6,195.1H310.9l8.1-81c0-0.2-0.2-0.3-0.2-0.5h21.8c4.6,0,8.3-3.7,8.3-8.3v-96c0-4.6-3.8-8.3-8.4-8.3H152.2
		c-4.6,0-8.3,3.7-8.3,8.3v96c0,4.6,3.8,8.3,8.3,8.3h21.8c0,0.2-0.2,0.3-0.2,0.5l8,81H38.4C17.2,195.1,0,212.4,0,233.6L0,345h260.6
		c4.7-37.7,37.4-66.9,76.7-65.9c40.1,0.9,72.7,33.7,73.5,73.8c0.9,42.3-33.3,77-75.4,77c-38.4,0-70.1-28.7-74.8-65.8H0v109.2
		C0,494.7,17.3,512,38.6,512h418.8c21.3,0,38.5-17.3,38.5-38.5v-240C495.9,212.3,478.7,195.1,457.6,195.1z M191.7,117.7h109.8
		l-7,73.4h-95.8L191.7,117.7z M160,104.6L160,104.6c-3.9,0.1-7.1-3.1-7.1-7V16.1c0-3.8,3.1-7.1,7.1-7.1h174c3.9,0,7.1,3.2,7.1,7.1
		v81.4c0,3.9-3.2,7-7,7H160z M461.6,477.8H35.2v-79.5h192.5c18.5,46.1,65,76.7,118.1,72.5c54.9-4.4,99.6-47.2,106.2-101.9
		c8.6-71-46.7-131.4-116-131.4c-48.6,0-90.5,29.4-108.1,72.3H35.2v-79.5h426.5v247.5H461.6z"/>
	<path d="M331.9,339.7c-1.5-1.8-4.2-2.1-6-0.5v0.1c-5.2,4.2-8.3,10.7-8.3,17.4c0,2.4,1.9,4.2,4.2,4.2c2.4,0,4.2-1.9,4.2-4.2
		c0-4.1,1.9-8,5.1-10.6c0.1-0.1,0.1-0.1,0.2-0.2C333.2,344.3,333.5,341.6,331.9,339.7C331.9,339.8,331.9,339.7,331.9,339.7z"/>
	<path d="M396.4,355c0-33.7-27.3-61-61-61s-61,27.3-61,61s27.3,61,61,61S396.4,388.6,396.4,355z M306.5,354.6c0-16,13-29,29-29
		c16,0,29,13,29,29c0,16-13,29-29,29C319.5,383.5,306.5,370.6,306.5,354.6z"/>
	<path d="M61.9,264.3c-6.8,0-12.3-5.5-12.3-12.3s5.5-12.3,12.3-12.3c6.8,0,12.3,5.5,12.3,12.3C74.1,258.8,68.7,264.3,61.9,264.3z"/>
	<path d="M132.7,252.8c-0.2,6.6-5.9,11.8-12.5,11.8H91.7c-6.8,0-12.2-5.6-12.1-12.4c0.2-6.6,5.9-11.8,12.5-11.8l28.6,0
		C127.5,240.4,132.9,246,132.7,252.8z"/>
	<path d="M89.2,169l-29.6,0c-6.8,0-12.4,5.5-12.4,12.4v7.7h54.3c0,0,0-1.2,0-7.7C101.6,174.5,96.1,169,89.2,169z"/>
	<path d="M427.3,169H398c-6.7,0-12.2,20.1-12.2,20.1h53.8C439.6,189.1,434.1,169,427.3,169z"/>
	<path d="M160.7,23.1l171.5,0c1.8,0,3.8-1.4,4.3-3.2c0.8-3.1-1.3-5.9-4.1-5.9l-171.5,0c-1.8,0-3.8,1.4-4.3,3.2
		C155.8,20.4,157.9,23.1,160.7,23.1z"/>
	<path d="M160.7,36.2l171.5,0c1.8,0,3.8-1.4,4.3-3.2c0.8-3.1-1.3-5.9-4.1-5.9l-171.5,0c-1.7,0-3.3,0.9-4.1,2.4
		C155.4,32.7,157.6,36.2,160.7,36.2z"/>
	<path d="M160.7,49.3l171.5,0c1.8,0,3.8-1.4,4.3-3.2c0.8-3.1-1.3-5.9-4.1-5.9l-171.5,0c-1.8,0-3.8,1.4-4.3,3.2
		C155.8,46.5,157.9,49.3,160.7,49.3z"/>
	<path d="M160.7,63.4l171.7-1.1c2.8,0,4.9-2.7,4.2-5.7c-0.3-1.4-1.6-2.3-3-2.3l-173,0c-1.5,0-3.2,1.1-3.7,2.5
		C155.5,60.2,157.7,63.4,160.7,63.4z"/>
	<path d="M160.7,76.4l171.7-1c2.4,0,4.3-2,4.3-4.5c0-2.5-1.9-4.5-4.3-4.5l-171.7,1c-2.4,0-4.3,2-4.3,4.5
		C156.4,74.5,158.3,76.4,160.7,76.4z"/>
	<path d="M160.7,89.5l171.7-1c2.4,0,4.3-2,4.3-4.5s-1.9-4.5-4.3-4.5l-171.7,1c-2.4,0-4.3,2-4.3,4.5
		C156.4,87.5,158.3,89.5,160.7,89.5z"/>
	<path d="M336.8,97c0-2.5-1.9-4.5-4.3-4.5l-171.7,1c-2.4,0-4.3,2-4.3,4.5s1.9,4.5,4.3,4.5l171.7-1C334.9,101.4,336.8,99.5,336.8,97z
		"/>
</g>
</svg>
