<?xml version="1.0" encoding="utf-8"?>
<!-- Generator: Adobe Illustrator 21.1.0, SVG Export Plug-In . SVG Version: 6.00 Build 0)  -->
<svg version="1.1" id="_x35_2" xmlns="http://www.w3.org/2000/svg" xmlns:xlink="http://www.w3.org/1999/xlink" x="0px" y="0px"
	 viewBox="0 0 653.6 512" style="enable-background:new 0 0 653.6 512;" xml:space="preserve">
<g>
	<path d="M117.9,0L78.4,0C69.3,0,62,7.3,62,16.4V27h72.1c0.1,0,0.1-1.5,0.1-10.6C134.2,7.3,126.9,0,117.9,0z"/>
	<path d="M562.5,0h-39.4c-9.1,0-16.4,27-16.4,27h72.1C578.9,26.9,571.5,0,562.5,0z"/>
	<path d="M92.8,135.8c-8.9,0-16.2-7.2-16.2-16.2s7.2-16.2,16.2-16.2s16.2,7.2,16.2,16.2S101.7,135.8,92.8,135.8z"/>
	<path d="M170.3,135l-38,0c-8.7,0-16.1-6.7-16.5-15.3c-0.4-9.2,6.9-16.7,16-16.7l38,0c8.7,0,16.1,6.7,16.5,15.3
		C186.6,127.5,179.3,135,170.3,135z"/>
	<path d="M406.1,251.9c-2.3-2.7-6.4-3.1-9.1-0.8v0.1c-7.9,6.3-12.5,16.1-12.5,26.2c0,3.6,2.9,6.4,6.4,6.4c3.6,0,6.4-2.9,6.4-6.4
		c0-6.2,2.8-12,7.7-16c0.1-0.1,0.2-0.2,0.3-0.3c2.7-2.3,3.1-6.3,0.8-9.1C406.2,252,406.2,251.9,406.1,251.9z"/>
	<path d="M503.1,274.9c0-50.7-41.1-91.8-91.8-91.8s-91.8,41.1-91.8,91.8s41.1,91.8,91.8,91.8S503.1,325.6,503.1,274.9z M367.5,274.3
		c0-24.1,19.6-43.7,43.7-43.7s43.7,19.6,43.7,43.7s-19.6,43.7-43.7,43.7S367.5,298.5,367.5,274.3z"/>
	<path d="M603.7,34H50.4C22.7,34,0,56.7,0,84.4V259h11.1l0,0h256.5l0,0h29.8c7-55.6,55.1-99,113.1-98.5
		c62.4,0.5,113,52.2,112.2,114.6c-0.8,61.8-51.2,111.6-113.2,111.6c-57.6,0-105.1-43-112.2-98.7H0v173.7C0,489.4,22.7,512,50.3,512
		h553.3c27.7,0,50.3-22.7,50.3-50.3V84.4C654,56.7,631.4,34,603.7,34z M601,460H52V341h198c31.6,78.7,117.2,127.6,210.2,104.5
		c60.9-15.2,108.5-62.9,124.3-123.7C615.2,204,526.7,97.8,413.9,97.8c-73.5,0-136.9,44.5-163.5,109.2H52V87h549V460z"/>
</g>
</svg>
