<?xml version="1.0" encoding="utf-8"?>
<!-- Generator: Adobe Illustrator 21.1.0, SVG Export Plug-In . SVG Version: 6.00 Build 0)  -->
<svg version="1.1" id="Layer_1" xmlns="http://www.w3.org/2000/svg" xmlns:xlink="http://www.w3.org/1999/xlink" x="0px" y="0px"
	 viewBox="0 0 651.6 512" style="enable-background:new 0 0 651.6 512;" xml:space="preserve">
<g>
	<path d="M336,113.6L209.6,91.1c-2.9-0.5-5.3,2.1-5.3,5.9c0,3.8,2.3,7.3,5.3,7.8l126.4,22.4c2.9,0.5,5.3-2.1,5.3-5.9
		C341.3,117.6,338.9,114.1,336,113.6z"/>
	<path d="M279.8,156.4l-60.3-10.7c-2.9-0.5-5.3,2.1-5.3,5.9c0,3.8,2.3,7.3,5.3,7.8l60.3,10.7c2.9,0.5,5.3-2.1,5.3-5.9
		C285.1,160.4,282.7,156.9,279.8,156.4z"/>
	<path d="M646.8,319c-24.1-33.8-146.3-207.2-189.6-301.1c-4.5-11.7-14-16.5-25.7-12.9c-75.1,22.3-143.2,21.8-220.8-1.7l-10.1-3.2
		L0,327.2l39.2,16.7v53.3c0,9.9,5.3,19.3,12.9,22.8l189.8,90.3c2.3,1.1,4.8,1.6,7.3,1.6c0.6,0,1.2,0,1.9-0.1l359.2-41
		c9.9-1.1,18.1-11.9,18.2-24l0.6-88.6c1.3,0.2,2.7,0.3,4,0.2c5.7-0.4,11-3.7,14.5-9.2C653.2,340.3,652.9,327.6,646.8,319z
		 M229.8,449.4L81.7,380.9L81.5,360l148.3,62.6V449.4z M206.2,359.4L65.3,300.3L219.7,48.5C284.1,66,344.6,68,408.8,54.6
		C360.8,173.8,295.2,260.5,206.2,359.4z M272.7,460.6V351.8c69.1-80.8,115.7-149.8,151.7-225.3v212.2c-1.9,41-28.7,88.2-42,109.2
		L272.7,460.6z M422.6,442.4c11.1-17.2,20.4-36.3,28.1-56.6c7.6,18.1,17.2,36.2,27,51.3L422.6,442.4z M596.2,423.4l-89.9,10.4
		c0,0-0.1-0.1-0.1-0.2c-12.8-19.6-36.7-56.2-41.1-101.2V108.8c37,67.2,80,130.1,132,201.8L596.2,423.4z"/>
</g>
</svg>
