<?xml version="1.0" encoding="utf-8"?>
<!-- Generator: Adobe Illustrator 21.1.0, SVG Export Plug-In . SVG Version: 6.00 Build 0)  -->
<svg version="1.1" id="Layer_1" xmlns="http://www.w3.org/2000/svg" xmlns:xlink="http://www.w3.org/1999/xlink" x="0px" y="0px"
	 viewBox="0 0 541.8 512" style="enable-background:new 0 0 541.8 512;" xml:space="preserve">
<g id="_x35_2">
	<path d="M0,286v105.5C0,454,48.4,505.1,109.8,509.3C178.3,514,236,458.8,236,390.1V286H0z M29.1,328c0-4.6,3.8-8.4,8.5-8.4
		c2.4,0,4.5,1,6,2.4c1.5,1.5,2.4,3.6,2.4,5.9v19.7c-0.1,5.4-5,9.4-10.5,8.2c-3.9-0.9-6.5-4.5-6.5-8.4l0-19.4H29.1z M98.6,471.7
		c-0.6,4-4.1,6.7-7.8,6.7c-1.3,0-2.6-0.3-3.8-1c-30.6-17-57.7-49-57.7-97.6c0-5.6,5.6-9.9,11.4-7.8c3.3,1.2,5.3,4.5,5.3,8
		c0,38.9,26.7,69.6,48.9,83.7C97.6,465.4,99.1,468.5,98.6,471.7z"/>
	<path d="M117.9,51c18,0.1,34.2,6.8,46.8,19.4c12.5,12.5,19.3,29.2,19.3,46.7v0.1v0.1V234H52V117.3c0-17.6,6.9-34.3,19.2-46.8
		C83.7,57.9,100.2,51,117.6,51L117.9,51 M118.1,0h-0.4C86.3,0,56.8,12.3,34.6,34.5S0,86.5,0,117.9V286h236V117.9
		c0.1-31.4-12.3-61.1-34.6-83.4C179.2,12.2,149.6,0.1,118.1,0L118.1,0z"/>
	<path d="M541.8,381H253.2c12.1,68.8,72.1,121,144.3,121S529.7,449.8,541.8,381L541.8,381z"/>
	<path d="M396.3,209c-75.3,0-137.4,56.9-145.6,130h291.1C533.7,265.9,471.6,209,396.3,209L396.3,209z"/>
</g>
</svg>
