<?xml version="1.0" encoding="utf-8"?>
<!-- Generator: Adobe Illustrator 22.0.1, SVG Export Plug-In . SVG Version: 6.00 Build 0)  -->
<svg version="1.1" id="Layer_1" xmlns="http://www.w3.org/2000/svg" xmlns:xlink="http://www.w3.org/1999/xlink" x="0px" y="0px"
	 viewBox="0 0 236.4 512" style="enable-background:new 0 0 236.4 512;" xml:space="preserve">
<g id="_x35_2">
	<path d="M0,286.4v105.5C0,457.2,52.8,510,118.2,510c65.3,0,118.1-52.8,118.1-118.1V286.4H0z M30,328.5c0-4.6,3.8-8.4,8.4-8.4
		c2.4,0,4.4,1,5.9,2.4c1.5,1.5,2.4,3.6,2.4,5.9v19.7c-0.1,4.7-3.8,8.4-8.4,8.4c-4.6,0-8.4-3.8-8.4-8.4V328.5z M99.1,472.2
		c-0.6,4-4.1,6.7-7.8,6.7c-1.3,0-2.6-0.3-3.8-1c-30.6-17-57.7-49-57.7-97.6c0-5.6,5.6-9.9,11.4-7.8c3.3,1.2,5.3,4.5,5.3,8
		c0,38.9,26.7,69.6,48.9,83.7C98.1,465.9,99.6,469,99.1,472.2z"/>
	<path d="M118.1,52c18.1,0.1,34.3,6.8,46.9,19.3c12.5,12.5,19.4,29.1,19.4,46.6l0,0.1v0.1v116.4H52V118.1c0-17.6,6.9-34.2,19.3-46.7
		c12.5-12.5,29-19.4,46.5-19.4H118.1 M118.2,0h-0.4C86.4,0,56.9,12.3,34.6,34.6C12.3,56.9,0,86.6,0,118.1v168.4h236.3V118.1
		c0.1-31.5-12.3-61.2-34.6-83.5C179.4,12.2,149.8,0.1,118.2,0L118.2,0z"/>
</g>
</svg>
