<?xml version="1.0" encoding="utf-8"?>
<!-- Generator: Adobe Illustrator 21.1.0, SVG Export Plug-In . SVG Version: 6.00 Build 0)  -->
<svg version="1.1" id="Layer_4" xmlns="http://www.w3.org/2000/svg" xmlns:xlink="http://www.w3.org/1999/xlink" x="0px" y="0px"
	 viewBox="0 0 559.1 512" style="enable-background:new 0 0 559.1 512;" xml:space="preserve">
<g>
	<path d="M38.8,487.2l-0.1-193.8c10.5-31.4,27.9-52.2,52.7-65.7l-38.5,0c-8.3,0-7.6-31.3,1.5-31.3l41.5,0l0,13.8l4.5,0
		c6-37.6,40.4-89.5,87.9-89.5l194.2-0.1c47,0,82,51.8,88,89.4l4.5,0l0-13.8l41.5,0c9.8,0,9.9,31.3,1.5,31.3l-39.2,0
		c24.9,13.4,43.8,34.3,52.8,65.6c0,0,0.1,177.3,0.1,193.8c0,12.8-10.5,24.8-24.1,24.8l-45.9,0c-13.5,0-24.8-12-24.8-24.8l0-22.6
		l-302.7,0.2l0,22.6c0,12.8-11.3,24.8-24.8,24.8l-45.9,0C50.1,512,38.8,500,38.8,487.2z M380.8,145.2c-30.2-1.4-63-2-95.9-2
		c-32.8,0-65.6,0.7-95.9,2.1c-30.2,2.8-56.3,46.1-59.7,74.9c50.4,9.5,102.5,14.1,154.5,14.1c53.1,0,106.1-4.9,157.4-14.3
		C437.2,191.2,411.8,147.9,380.8,145.2z M492,424.6l-0.1-125c-5.9-16.8-16.1-28.8-32-37.4l-6.9-3.8l-4.3,0.8
		c-53.9,9.9-109.3,14.9-164.6,14.9c-55.3,0-109.8-4.9-162-14.8l-4.6-0.9l-7.2,3.9c-14.9,8.1-24.9,20.1-31.9,38.3l0.1,124.2
		L492,424.6z"/>
	<path d="M402.6,341c6-4.8,55.4-31.9,71.9-31.9c6.6,0,12.1,6.1,12.1,14.9l0,21.7c0,9.5-7.1,17-14.8,17l-70.3,0
		C397.6,352.6,397.1,345.1,402.6,341z"/>
	<path d="M169.3,341.2c5.5,4.1,4.9,11.5,1.1,21.7l-70.3,0c-7.7,0-14.8-7.5-14.8-16.9l0-21.7c0-8.8,5.5-14.9,12.1-14.9
		C113.9,309.4,163.3,336.4,169.3,341.2z"/>
	<path d="M440.3,408.1c3.3-2.6,30.5-17.6,39.6-17.6c3.6,0,6.7,3.4,6.7,8.2l0,12c0,5.2-3.9,9.3-8.2,9.3l-38.7,0
		C437.6,414.4,437.3,410.3,440.3,408.1z"/>
	<path d="M130.7,420.2l-38.7,0c-4.2,0-8.2-4.1-8.2-9.3l0-12c0-4.9,3-8.2,6.7-8.2c9.1,0,36.3,14.9,39.6,17.5
		C133.2,410.5,132.9,414.6,130.7,420.2z"/>
	<rect x="350.6" y="329.1" width="11.5" height="58.1"/>
	<rect x="319.2" y="329.2" width="11.5" height="58.1"/>
	<rect x="289.4" y="329.2" width="11.5" height="58.1"/>
	<rect x="260.4" y="329.2" width="11.5" height="58.1"/>
	<rect x="230.6" y="329.2" width="11.5" height="58.1"/>
	<rect x="199.2" y="329.2" width="11.5" height="58.1"/>
	<path d="M148,403.2l0-2.6c0-0.6,0.5-1,1-1l262.4-0.2c0.6,0,1,0.4,1,1l0,2.6c0,0.6-0.5,1-1,1l-262.4,0.2
		C148.5,404.2,148,403.7,148,403.2z"/>
	<path d="M148.8,412.3l0-2.6c0-0.6,0.5-1,1-1l262.4-0.2c0.6,0,1,0.4,1,1l0,2.6c0,0.6-0.4,1-1,1l-262.4,0.2
		C149.3,413.3,148.8,412.9,148.8,412.3z"/>
	<path d="M412.5,418.8l0,2.6c0,0.6-0.4,1-1,1l-262.4,0.2c-0.6,0-1-0.5-1-1l0-2.6c0-0.6,0.4-1,1-1l262.4-0.2
		C412.1,417.8,412.5,418.2,412.5,418.8z"/>
	<path d="M295.7,0L295.7,0L295.7,0h-31.8v0L1.9,108.1c-3,1.3-2.2,5.8,1.1,5.8l90.8,0.3l186-76.8l185.7,76.8l90.6-0.3
		c3.3,0,4.2-4.5,1.1-5.8L295.7,0z"/>
</g>
</svg>
