<?xml version="1.0" encoding="utf-8"?>
<!-- Generator: Adobe Illustrator 21.1.0, SVG Export Plug-In . SVG Version: 6.00 Build 0)  -->
<svg version="1.1" id="Layer_4" xmlns="http://www.w3.org/2000/svg" xmlns:xlink="http://www.w3.org/1999/xlink" x="0px" y="0px"
	 viewBox="0 0 496.1 512" style="enable-background:new 0 0 496.1 512;" xml:space="preserve">
<g>
	<path d="M489.9,175.9L366.6,52.7c-26.6-13.2-50.9-15.5-75.3-8.2L315.8,20c5.3-5.3-15.1-24.8-20.9-19l-26.4,26.4l8.7,8.7l-2.9,2.9
		C246.7,19,191.9,7.9,161.7,38.1L38.2,161.6c-29.9,29.9-19.1,85.1,0.9,112.8l-2.9,2.9l-8.7-8.7L1.2,294.8
		c-6.2,6.2,13.7,26.2,19,20.9l24.9-24.9c-7.3,24.4-6,49.6,8.2,75.3c0,0,112.7,112.7,123.2,123.2c8.1,8.1,22.5,9.1,31.1,0.5
		l29.2-29.2c8.6-8.6,8.1-23.4,0-31.6l-14.3-14.3l192.4-192.4l14.3,14.3c8.1,8.1,22.9,8.6,31.6,0l29.2-29.2
		C498.5,198.8,498,184,489.9,175.9z M55.1,176.2c18.3-20.1,38.8-41.4,59.6-62.2c20.9-20.9,42.1-41.3,62.2-59.6
		c21-17.5,65.1-6.6,85.6,9.6c-26,38.1-56.1,74.1-89.2,107.2c-33.7,33.7-70.5,64.4-109.1,91.1C48.5,241.3,37.1,197.6,55.1,176.2z
		 M162.1,424.4l-79.5-79.5c-7-14.4-8-28.5-3.5-44.1l2-6.8l3.2-2.2c40.5-28,78.9-60.1,114-95.2c35.2-35.2,66.6-73,93.5-112.4l2.4-3.5
		l7-2.1c14.6-4.3,28.6-3.1,44.6,4l79,79L162.1,424.4z"/>
	<path d="M165.8,314.4c-6.9,0.8-55.5,15-66,25.5c-4.2,4.2-3.8,11.6,1.8,17.2l13.8,13.8c6,6,15.3,6.2,20.2,1.3l44.7-44.7
		C176.3,318.6,171.9,313.5,165.8,314.4z"/>
	<path d="M314.1,166.2c-0.9,6.1,4.2,10.5,13.1,14.5l44.7-44.7c4.9-4.9,4.7-14.2-1.4-20.2L356.7,102c-5.6-5.6-13-6-17.2-1.8
		C329.1,110.7,314.9,159.3,314.1,166.2z"/>
	<path d="M184.5,381.1c-3.8,0.5-30.6,8.3-36.4,14c-2.3,2.3-2.1,6.4,1,9.5l7.6,7.6c3.3,3.3,8.4,3.4,11.1,0.7l24.6-24.6
		C190.2,383.4,187.8,380.6,184.5,381.1z"/>
	<path d="M388.9,191.8l24.6-24.6c2.7-2.7,2.6-7.8-0.7-11.1l-7.6-7.6c-3.1-3.1-7.1-3.3-9.5-1c-5.8,5.8-13.6,32.6-14,36.4
		C381.1,187.2,384,189.6,388.9,191.8z"/>
	<rect x="201" y="269.8" transform="matrix(0.7071 -0.7071 0.7071 0.7071 -148.8551 232.4039)" width="10.3" height="52.2"/>
	<rect x="220.9" y="249.9" transform="matrix(0.7071 -0.7071 0.7071 0.7071 -128.9354 240.655)" width="10.3" height="52.2"/>
	<rect x="239.8" y="230.9" transform="matrix(0.7071 -0.7071 0.7071 0.7071 -109.9874 248.5041)" width="10.3" height="52.2"/>
	<rect x="258.3" y="212.4" transform="matrix(0.7071 -0.7071 0.7071 0.7071 -91.5252 256.1508)" width="10.3" height="52.2"/>
	<rect x="277.2" y="193.5" transform="matrix(0.7071 -0.7071 0.7071 0.7071 -72.5771 263.9999)" width="10.3" height="52.2"/>
	<rect x="297.2" y="173.6" transform="matrix(0.7071 -0.7071 0.7071 0.7071 -52.6573 272.2509)" width="10.3" height="52.2"/>
	<path d="M367,192l-1.6-1.6c-0.4-0.4-0.9-0.4-1.3,0L197.3,357.2c-0.4,0.4-0.4,0.9,0,1.3l1.6,1.6c0.4,0.4,0.9,0.4,1.3,0L367,193.3
		C367.4,192.9,367.4,192.4,367,192z"/>
	<path d="M372.4,198.3l-1.6-1.6c-0.4-0.4-0.9-0.4-1.3,0L202.6,363.5c-0.4,0.4-0.4,0.9,0,1.3l1.6,1.6c0.4,0.4,0.9,0.4,1.3,0
		l166.8-166.8C372.7,199.2,372.7,198.7,372.4,198.3z"/>
	<path d="M208.9,370.1l1.6,1.6c0.4,0.4,0.9,0.4,1.3,0l166.8-166.8c0.4-0.4,0.4-0.9,0-1.3L377,202c-0.4-0.4-0.9-0.4-1.3,0
		L208.9,368.9C208.6,369.2,208.6,369.8,208.9,370.1z"/>
	<rect y="473.2" width="496.1" height="38.8"/>
</g>
</svg>
