<?xml version="1.0" encoding="utf-8"?>
<!-- Generator: Adobe Illustrator 21.1.0, SVG Export Plug-In . SVG Version: 6.00 Build 0)  -->
<svg version="1.1" id="Layer_4" xmlns="http://www.w3.org/2000/svg" xmlns:xlink="http://www.w3.org/1999/xlink" x="0px" y="0px"
	 viewBox="0 0 645 512" style="enable-background:new 0 0 645 512;" xml:space="preserve">
<g>
	<path d="M575.9,140h50.3c10.9,0,10-41-2-41H570v18h-5.9C556.2,67.8,511.2,0,449,0H195C133.5,0,87.8,67.8,79.9,117H74V99H19.7
		c-12.8,0-12.9,41-2,41h51.3C36.5,157.6,11.8,184.9,0,225.9c0,0,0,232,0,253.6C0,496.3,13.8,512,31.5,512h60
		c17.7,0,32.5-15.7,32.5-32.5V450h396v29.5c0,16.7,14.8,32.5,32.5,32.5h60c17.7,0,32.5-15.7,32.5-32.5V225.9
		C631.2,184.9,608.5,157.6,575.9,140z M197.2,32.4c39.6-1.8,82.5-2.7,125.4-2.7s85.9,0.9,125.4,2.7c39.5,3.6,73.7,60.2,78.2,98
		c-65.9,12.5-134,18.5-202.2,18.5c-69.4,0-138.8-6.3-206-18.5C123.5,92.6,156.8,36,197.2,32.4z M593,398H52V234.4
		c7.7-22,21.1-37.7,41.8-49l9.1-5l5.6,1c70.5,12.9,143,19.4,215.3,19.4c72.4,0,143.7-6.5,211.9-19.5l6-1.1l9.4,5.1
		c19.5,10.6,32.6,26.2,41.8,50V398z"/>
	<path d="M78.4,317h92c5-13.3,5.7-23.1-1.4-28.4c-7.9-6.2-72.6-41.7-94.1-41.7c-8.6,0-15.8,8-15.8,19.5v28.4
		C59,307.2,68.3,317,78.4,317z"/>
	<path d="M474.1,288.6c-7.2,5.3-6.5,15.1-1.4,28.4h92c10.1,0,19.4-9.8,19.4-22.2v-28.4c0-11.5-7.2-19.5-15.8-19.5
		C546.6,246.9,482,282.4,474.1,288.6z"/>
	<path d="M119.6,376.4c-4.4-3.4-40-23-51.9-23c-4.7,0-8.7,4.4-8.7,10.8v15.6c0,6.8,5.2,12.2,10.7,12.2h50.7
		C123.1,384.7,123.5,379.3,119.6,376.4z"/>
	<path d="M577.3,353.4c-11.9,0-47.5,19.5-51.9,23c-4,2.9-3.6,8.3-0.8,15.6h50.7c5.5,0,10.7-5.4,10.7-12.2v-15.6
		C586,357.8,582,353.4,577.3,353.4z"/>
	<rect x="222" y="273" width="15" height="76"/>
	<rect x="263" y="273" width="15" height="76"/>
	<rect x="302" y="273" width="15" height="76"/>
	<rect x="340" y="273" width="15" height="76"/>
	<rect x="379" y="273" width="15" height="76"/>
	<rect x="420" y="273" width="15" height="76"/>
	<path d="M500.7,365H157.3c-0.7,0-1.3,0.6-1.3,1.3v3.4c0,0.7,0.6,1.3,1.3,1.3h343.4c0.7,0,1.3-0.6,1.3-1.3v-3.4
		C502,365.6,501.4,365,500.7,365z"/>
	<path d="M156.3,383h343.4c0.7,0,1.3-0.6,1.3-1.3v-3.4c0-0.7-0.6-1.3-1.3-1.3H156.3c-0.7,0-1.3,0.6-1.3,1.3v3.4
		C155,382.4,155.6,383,156.3,383z"/>
	<path d="M500.7,389H157.3c-0.7,0-1.3,0.6-1.3,1.3v3.4c0,0.7,0.6,1.3,1.3,1.3h343.4c0.7,0,1.3-0.6,1.3-1.3v-3.4
		C502,389.6,501.4,389,500.7,389z"/>
</g>
</svg>
