<?xml version="1.0" encoding="utf-8"?>
<!-- Generator: Adobe Illustrator 21.1.0, SVG Export Plug-In . SVG Version: 6.00 Build 0)  -->
<svg version="1.1" id="Layer_2" xmlns="http://www.w3.org/2000/svg" xmlns:xlink="http://www.w3.org/1999/xlink" x="0px" y="0px"
	 viewBox="0 0 550 512" style="enable-background:new 0 0 550 512;" xml:space="preserve">
<g id="a_52_2_">
	<path d="M227.2,448.8c5.2,0,10.6,5.5,10.6,10.6c0,7.8-6.3,10.6-10.6,10.6c-4.3,0-10.6-2.8-10.6-10.6
		C216.6,454.2,222.1,448.8,227.2,448.8L227.2,448.8z M227.2,406.8c-28.3,0-52.6,24.3-52.6,52.6c0,30.4,24.3,52.6,52.6,52.6
		s52.6-22.3,52.6-52.6C279.8,431.1,255.6,406.8,227.2,406.8L227.2,406.8z"/>
	<path d="M378.8,448.8c5.2,0,10.6,5.5,10.6,10.6c0,7.8-6.3,10.6-10.6,10.6s-10.6-2.8-10.6-10.6C368.2,454.2,373.7,448.8,378.8,448.8
		 M378.8,406.8c-28.3,0-52.6,24.3-52.6,52.6c0,30.4,24.3,52.6,52.6,52.6s52.6-22.3,52.6-52.6C431.5,431.1,407.2,406.8,378.8,406.8
		L378.8,406.8z"/>
	<path d="M521.7,34.6H172.8c-18.7,0-32.2,18-26.8,36c1.9,6.5,56.2,187.8,56.2,187.8h-25.6L106,20.6c0,0,0,0,0-0.1
		C103.3,9.1,93,0,80.1,0H26.6C8.8,0-3.9,17.1,1.2,34.1c1.7,5.6,5.1,10.3,9.6,13.7c4.5,3.3,10,5.3,15.8,5.3h33.8l76.9,258.4h80.9
		l8.6,28.6h-81l15.8,53h81.1c0,0,0,0,0,0H454c12.2,0,23-8.2,26.1-20.1c16.9-63.6,65.4-292.5,68.3-302.4
		C553.8,52.6,540.3,34.6,521.7,34.6z M272.4,311.4h169.1l-6.8,28.6l-0.3,1H281.3l-0.3-1L272.4,311.4z M453.6,258.4H256.5L205.1,86.6
		h286.4L453.6,258.4z"/>
	<polygon points="434.8,340 434.5,341 281.3,341 281,340 	"/>
</g>
</svg>
