<?xml version="1.0" encoding="utf-8"?>
<!-- Generator: Adobe Illustrator 21.1.0, SVG Export Plug-In . SVG Version: 6.00 Build 0)  -->
<svg version="1.1" id="Layer_4" xmlns="http://www.w3.org/2000/svg" xmlns:xlink="http://www.w3.org/1999/xlink" x="0px" y="0px"
	 viewBox="0 0 593.2 512" style="enable-background:new 0 0 593.2 512;" xml:space="preserve">
<g id="_x35_2">
	<path d="M257.2,450.7c5,0,10.3,5.3,10.3,10.3c0,7.6-6.1,10.3-10.3,10.3c-4.2,0-10.3-2.7-10.3-10.3
		C246.9,455.9,252.2,450.7,257.2,450.7 M257.2,409.9c-27.5,0-51.1,23.6-51.1,51.1c0,29.5,23.6,51.1,51.1,51.1s51.1-21.6,51.1-51.1
		C308.2,433.5,284.8,409.9,257.2,409.9L257.2,409.9z"/>
	<path d="M426.6,450.7c5,0,10.3,5.3,10.3,10.3c0,7.6-6.1,10.3-10.3,10.3s-10.3-2.7-10.3-10.3C416.3,455.9,421.6,450.7,426.6,450.7
		 M426.6,409.9c-27.5,0-51.1,23.6-51.1,51.1c0,29.5,23.6,51.1,51.1,51.1s51.1-21.6,51.1-51.1C477.7,433.5,454.1,409.9,426.6,409.9
		L426.6,409.9z"/>
	<path d="M271.6,156h271.2c17.2,0,29.4,16.5,24.5,32.8l0,0c-3.3,10.8-13.2,18.2-24.5,18.2H271.7c-11.3,0-21.2-7.4-24.5-18.2l0,0
		C242.3,172.5,254.5,156,271.6,156z"/>
	<path d="M295.7,250h223.2c17.2,0,29.4,16.5,24.5,32.8l0,0c-3.3,10.8-13.2,18.2-24.5,18.2H295.7c-11.3,0-21.2-7.4-24.5-18.2l0,0
		C266.2,266.5,278.5,250,295.7,250z"/>
	<path d="M237.8,287.7L162.7,35.2c0,0,0,0,0-0.1C160.1,23.9,150,15,137.4,15H26.1C8.6,15-3.8,31.8,1.3,48.4l0,0
		C4.6,59.4,14.7,67,26.1,67H118l69.6,233.9c2.9,11.1,12.7,18.9,24.2,19.3l0,0C229.2,320.8,242.3,304.5,237.8,287.7z"/>
	<path d="M228.7,345h261.2c17.2,0,29.4,16.5,24.5,32.8l0,0c-3.3,10.8-13.2,18.2-24.5,18.2H228.7c-11.3,0-21.2-7.4-24.5-18.2l0,0
		C199.5,361.5,211.7,345,228.7,345z"/>
	<path d="M567.7,58h-29l-9.4-52.1l0,0L414.9,0.1l-34,9.9h-64l0,0l-19.3-0.2L280.5,58h-33.6c-17.2,0-29.4,16.5-24.5,32.8
		c3.3,10.8,13.2,18.2,24.5,18.2h320.8c11.3,0,21.2-7.4,24.5-18.2C597,74.5,584.7,58,567.7,58z M414.9,24.2l94.1,4.9l5.7,28.9H390.3
		l-5-25.2L414.9,24.2z M313.8,33h48.5l4.8,25h-62.4L313.8,33z"/>
</g>
</svg>
