<?xml version="1.0" encoding="utf-8"?>
<!-- Generator: Adobe Illustrator 21.1.0, SVG Export Plug-In . SVG Version: 6.00 Build 0)  -->
<svg version="1.1" id="Layer_4" xmlns="http://www.w3.org/2000/svg" xmlns:xlink="http://www.w3.org/1999/xlink" x="0px" y="0px"
	 viewBox="0 0 550 512" style="enable-background:new 0 0 550 512;" xml:space="preserve">
<g id="_x35_2_2_">
	<path d="M257.1,448.8c5.2,0,10.6,5.5,10.6,10.6c0,7.8-6.3,10.6-10.6,10.6c-4.3,0-10.6-2.8-10.6-10.6
		C246.5,454.2,252,448.8,257.1,448.8 M257.1,406.8c-28.3,0-52.6,24.3-52.6,52.6c0,30.4,24.3,52.6,52.6,52.6
		c28.3,0,52.6-22.3,52.6-52.6C309.7,431.1,285.5,406.8,257.1,406.8L257.1,406.8z"/>
	<path d="M378.8,448.8c5.2,0,10.6,5.5,10.6,10.6c0,7.8-6.3,10.6-10.6,10.6s-10.6-2.8-10.6-10.6C368.2,454.2,373.7,448.8,378.8,448.8
		 M378.8,406.8c-28.3,0-52.6,24.3-52.6,52.6c0,30.4,24.3,52.6,52.6,52.6s52.6-22.3,52.6-52.6C431.5,431.1,407.2,406.8,378.8,406.8
		L378.8,406.8z"/>
	<path d="M548.8,70.1L548.8,70.1C545.4,81.3,535.1,89,523.4,89H251.1c-11.7,0-22-7.7-25.4-18.9l0,0c-5.1-17,7.6-34.1,25.4-34.1
		h272.3C541.2,36,553.9,53.1,548.8,70.1z"/>
	<path d="M276.8,145h220.8c17.8,0,30.5,17.1,25.4,34.1l0,0c-3.4,11.2-13.7,18.9-25.4,18.9H276.9c-11.7,0-22-7.7-25.4-18.9l0,0
		C246.4,162.1,259.1,145,276.8,145z"/>
	<path d="M301.8,242h171c17.8,0,30.5,17.1,25.4,34.1l0,0c-3.4,11.2-13.7,18.9-25.4,18.9h-171c-11.7,0-22-7.7-25.4-18.9l0,0
		C271.3,259.1,284,242,301.8,242z"/>
	<path d="M242.5,278.2L165.9,20.6c0,0,0,0,0-0.1C163.2,9.1,152.9,0,140,0H26.5C8.7,0-4,17.1,1.1,34.1l0,0C4.5,45.3,14.8,53,26.5,53
		h93.8l71,238.7c3,11.3,13,19.3,24.7,19.7l0,0C233.7,312,247,295.3,242.5,278.2z"/>
	<path d="M226.7,340h217.4c17.8,0,30.5,17.1,25.4,34.1l0,0c-3.4,11.2-13.7,18.9-25.4,18.9H226.7c-11.7,0-22-7.7-25.4-18.9l0,0
		C196.3,357.1,209,340,226.7,340z"/>
</g>
</svg>
