<?xml version="1.0" encoding="utf-8"?>
<!-- Generator: Adobe Illustrator 21.1.0, SVG Export Plug-In . SVG Version: 6.00 Build 0)  -->
<svg version="1.1" id="Layer_4" xmlns="http://www.w3.org/2000/svg" xmlns:xlink="http://www.w3.org/1999/xlink" x="0px" y="0px"
	 viewBox="0 0 610.8 512" style="enable-background:new 0 0 610.8 512;" xml:space="preserve">
<g id="_x35_2">
	<path d="M263.2,448.8c5.2,0,10.6,5.5,10.6,10.6c0,7.8-6.3,10.6-10.6,10.6c-4.3,0-10.6-2.8-10.6-10.6
		C252.6,454.2,258.1,448.8,263.2,448.8L263.2,448.8z M263.2,406.8c-28.3,0-52.6,24.3-52.6,52.6c0,30.4,24.3,52.6,52.6,52.6
		s52.6-22.3,52.6-52.6C315.8,431.1,291.6,406.8,263.2,406.8L263.2,406.8z"/>
	<path d="M437.7,448.8c5.2,0,10.6,5.5,10.6,10.6c0,7.8-6.3,10.6-10.6,10.6s-10.6-2.8-10.6-10.6C427.1,454.2,432.6,448.8,437.7,448.8
		L437.7,448.8z M437.7,406.8c-28.3,0-52.6,24.3-52.6,52.6c0,30.4,24.3,52.6,52.6,52.6s52.6-22.3,52.6-52.6
		C490.4,431.1,466.1,406.8,437.7,406.8L437.7,406.8z"/>
	<path d="M392.2,87c-0.1,1.4-0.1,2.8-0.1,4.2c0,2,0,3.9,0.1,5.8h-141c-9.1,0-17.4-4.7-22.2-12c0,0,0,0,0-0.1
		c-1.3-2.1-2.4-4.3-3.1-6.8c-0.5-1.8-0.9-3.6-1-5.4l0,0c-0.1-0.7-0.1-1.5-0.1-2.2c0-2.1,0.3-4.1,0.7-6.1l0,0c0.3-1.1,0.6-2.2,1-3.3
		c3.7-9.8,13.2-17.1,24.8-17.1H401c-1.1,3-2.2,6-3.2,9C394.5,63.8,392.5,75.2,392.2,87z"/>
	<path d="M448.8,198H277.1c-1.7,0-3.3-0.2-4.9-0.5c-9.6-1.8-17.6-8.8-20.4-18.4c-0.8-2.6-1.1-5.2-1.1-7.7c0-9.7,5.4-18.6,13.7-23.2
		l0,0c3.8-2.1,8.1-3.3,12.8-3.3h126.7c1.4,3.1,2.9,6.1,4.6,9c7.2,12.9,16.6,24.3,27.5,33.9C439.9,191.6,444.3,194.9,448.8,198z"/>
	<path d="M301.9,242h231.8c17.8,0,30.5,17.1,25.4,34.1l0,0c-3.4,11.2-13.7,18.9-25.4,18.9H301.9c-11.7,0-22-7.7-25.4-18.9l0,0
		C271.4,259.1,284.1,242,301.9,242z"/>
	<path d="M242.6,278.2L166,20.6c0,0,0,0,0-0.1C163.3,9.1,153,0,140.1,0H26.6C8.8,0-3.9,17.1,1.2,34.1l0,0C4.6,45.3,14.9,53,26.6,53
		h93.8l71,238.7c3,11.3,13,19.3,24.7,19.7l0,0C233.8,312,247.1,295.3,242.6,278.2z"/>
	<path d="M232.8,340H504c17.8,0,30.5,17.1,25.4,34.1l0,0C526,385.3,515.7,393,504,393H232.8c-11.7,0-22-7.7-25.4-18.9l0,0
		C202.4,357.1,215.1,340,232.8,340z"/>
	<path d="M521.9,0.1c-49.2,0-89.1,39.9-89.1,89s39.9,89,89.1,89s89-39.9,89-89S571.1,0.1,521.9,0.1z M521.9,155.8
		c-36.8,0-66.6-29.8-66.6-66.6s29.8-66.6,66.6-66.6s66.6,29.8,66.6,66.6S558.7,155.8,521.9,155.8z"/>
	<path d="M521.6,143l43.7-44.2l-12.8-13L530,108.4V37h-17v71.4l-22.4-22.6l-12.8,13L521.6,143z"/>
</g>
</svg>
