<?xml version="1.0" encoding="utf-8"?>
<!-- Generator: Adobe Illustrator 21.1.0, SVG Export Plug-In . SVG Version: 6.00 Build 0)  -->
<svg version="1.1" id="Layer_2" xmlns="http://www.w3.org/2000/svg" xmlns:xlink="http://www.w3.org/1999/xlink" x="0px" y="0px"
	 viewBox="0 0 512 512" style="enable-background:new 0 0 512 512;" xml:space="preserve">
<style type="text/css">
	.st0{fill-rule:evenodd;clip-rule:evenodd;}
</style>
<g id="_x35_2">
	<g>
		<path d="M307.1,431.2c-16.6,3.9-33.7,5.8-51.1,5.8c-17.4,0-34.5-2-51.1-5.8l23.4-63.5c8.6,2,17.6,3.1,26.9,3.1
			c9.8,0,19.3-1.2,28.3-3.4h0.2L307.1,431.2z"/>
	</g>
	<g>
		<path d="M307.1,80.8l-23.5,63.8h-0.2c-9.1-2.3-18.6-3.4-28.3-3.4c-9.3,0-18.2,1.1-26.9,3.1l-23.4-63.5C221.5,77,238.6,75,256,75
			C273.4,75,290.5,77,307.1,80.8z"/>
	</g>
	<g>
		<circle class="st0" cx="255.1" cy="256" r="25.4"/>
	</g>
	<g>
		<path d="M255.1,193.7c34.4,0,62.3,28,62.3,62.3s-28,62.3-62.3,62.3s-62.3-28-62.3-62.3S220.8,193.7,255.1,193.7 M255.1,161.7
			c-52.1,0-94.3,42.2-94.3,94.3s42.2,94.3,94.3,94.3s94.3-42.2,94.3-94.3S307.2,161.7,255.1,161.7L255.1,161.7z"/>
	</g>
	<g>
		<path class="st0" d="M256,0C114.6,0,0,114.6,0,256s114.6,256,256,256s256-114.6,256-256S397.4,0,256,0z M256,459.9
			c-112.6,0-203.9-91.3-203.9-203.9S143.4,52.1,256,52.1S459.9,143.4,459.9,256S368.6,459.9,256,459.9z"/>
	</g>
	<g>
		<path class="st0" d="M465.3,214.1l-44.2,82l11.1,6l-48.5,90l-11-6l-7.1-3.8l-13.9,25.9l-14.5-7.8l13.9-25.9l-7.1-3.8l-11-6
			l48.5-90l11.1,6l40.3-74.8c2.3-4.2,3.5-8.9,3.5-13.7v-87.4l32.6,39.8v55.7C468.7,205.2,467.5,209.9,465.3,214.1z"/>
	</g>
</g>
</svg>
