<?xml version="1.0" encoding="utf-8"?>
<!-- Generator: Adobe Illustrator 21.1.0, SVG Export Plug-In . SVG Version: 6.00 Build 0)  -->
<svg version="1.1" id="Layer_2" xmlns="http://www.w3.org/2000/svg" xmlns:xlink="http://www.w3.org/1999/xlink" x="0px" y="0px"
	 viewBox="0 0 410 512" style="enable-background:new 0 0 410 512;" xml:space="preserve">
<style type="text/css">
	.st0{fill-rule:evenodd;clip-rule:evenodd;}
</style>
<g id="_x35_2">
	<g>
		<path class="st0" d="M174.9,295.6l-1-2l-13.7-27.9l-13.7,27.9l-1,2l-2.3,0.4l-30.7,4.5l22.2,21.6l1.7,1.6l-0.5,2.3l-5.2,30.5
			l27.5-14.4l2.1-1l2,1l27.6,14.4l-5.3-30.5l-0.4-2.3l1.6-1.6l22.3-21.6l-30.7-4.5L174.9,295.6z M226.8,294.3l-8.8-1.2l-37.2-5.3
			L164.2,254l-4-8l-4,8l-16.7,33.7l-37.2,5.3l-8.8,1.2l6.4,6.3l27,26.2l-6.4,37l-1.5,8.8l7.9-4.2l33.3-17.4l33.3,17.4l7.8,4.2
			l-1.5-8.8l-6.3-37l27-26.2L226.8,294.3z M188.8,325.3l6.8,39.3L160.3,346l-35.4,18.5l6.8-39.3L103,297.4l39.6-5.7l17.7-35.8
			l17.7,35.8l39.5,5.7L188.8,325.3z M0,0v473h93v38.8l66.2-41.6l66.8,41.6V385.7c0,0-18,27.8-67.1,27.8c-47.5,0-65.9-27.8-65.9-27.8
			V421H52V52l306-0.7V421h-65v52h117V0H0z M317,95H93v52h224V95z M93,225h224v-52H93V225z"/>
	</g>
</g>
</svg>
