<?xml version="1.0" encoding="utf-8"?>
<!-- Generator: Adobe Illustrator 21.1.0, SVG Export Plug-In . SVG Version: 6.00 Build 0)  -->
<svg version="1.1" id="Layer_2" xmlns="http://www.w3.org/2000/svg" xmlns:xlink="http://www.w3.org/1999/xlink" x="0px" y="0px"
	 viewBox="0 0 574.1 512" style="enable-background:new 0 0 574.1 512;" xml:space="preserve">
<g>
	<path d="M52.1,346.7l-0.2-180.6c0-14.4-11.7-26-26-26l0,0c-14.4,0-26,11.6-26,26v216.6c0,8.9,7.2,16.1,16,16.1h117.3l-0.2,60.1
		l-107,0.1c-14.4,0-26,11.7-26,26l0,0c0,14.4,11.7,26,26,26h159.3l-0.5-164.3H52.1z"/>
	<path d="M173.3,304.6H60.1v30.1h113.2c6.6,0,12-5.4,12-12v-6C185.4,310,179.9,304.6,173.3,304.6z"/>
	<path d="M574.1,382.7V166.3c0-14.6-11.7-26.4-26.1-26.4l0,0c-14.4,0-26.1,11.8-26.1,26.4l-0.2,180.4H390.8L390.3,512h157.5
		c14.2,0,25.8-11.6,25.8-26.1l0,0c0-14.4-11.5-26.1-25.8-26.1l-105.9-0.1l-0.2-61h116.6C567,398.8,574.1,391.6,574.1,382.7z"/>
	<path d="M390.8,316.5v6.2c0,6.6,5.4,11.9,11.9,11.9H515v-30.1H402.7C396.1,304.6,390.8,310,390.8,316.5z"/>
	<path d="M318.1,467.9h-7.5V269.5h132.3v-8.9c0-10-2.3-18.1-7.5-25.3c-4.9-7.3-11.1-10.9-18.5-10.9H299.5c3.6-4.3,6.6-10.9,8.8-19.6
		c2.5-9.8,3.7-15.6,3.7-27.5c0-19.2-2.7-34.6-8.1-46h-12.3c0,0,0,0,0-0.1l53.1-94.3c-22.2,18.4-37.9,40.1-47.1,64.8
		c-2.9,8.1-4.9,15.4-6,22c-0.4-15.5-2.5-30.7-6.2-45.6c-3.5-14.2-8.3-28.1-14.4-41.5c-6.9-15.2-13.8-27.2-20.7-36l40.7,129
		c-0.1,0.6-0.1,1.2-0.1,1.7H277c-5.4,11.8-8.2,27.1-8.2,46c0,12,1.2,17.8,3.7,27.5c2.2,8.8,5.2,15.4,8.8,19.6H164
		c-7.2,0-13.5,3.6-18.9,10.8c-5,7.2-7.8,15.3-7.8,25.2v8h133.3v199.4h-11.1c-22.3,0-39.5,11.7-39.5,25.4l0.7,14.7h139.1v-15.7
		C359.6,479,340.6,467.9,318.1,467.9z"/>
</g>
</svg>
