<?xml version="1.0" encoding="utf-8"?>
<!-- Generator: Adobe Illustrator 21.1.0, SVG Export Plug-In . SVG Version: 6.00 Build 0)  -->
<svg version="1.1" id="Layer_4" xmlns="http://www.w3.org/2000/svg" xmlns:xlink="http://www.w3.org/1999/xlink" x="0px" y="0px"
	 viewBox="0 0 454.6 512" style="enable-background:new 0 0 454.6 512;" xml:space="preserve">
<g id="_x35_2_1_">
	<path d="M443.1,213.7h-2.7v-27.6c0-1.5-0.5-2.8-1.7-3.9c-1-1.1-2.2-1.7-3.7-1.7c-1.5,0-2.8,0.5-3.9,1.7c-1.1,1.1-1.7,2.4-1.7,3.9
		v27.6H398v-27.6c0-1.5-0.5-2.8-1.7-3.9c-1.1-1.1-2.4-1.7-3.9-1.7c-1.5,0-2.8,0.5-3.9,1.7c-1,1.1-1.5,2.4-1.5,3.9v27.6h-2.7
		c-5.2,0-9.3,4.1-9.3,9.3v30.1c0,17.4,11.4,32.3,27.5,37.1v55c0,13.4-10.7,25.3-25.3,25.3s-25.3-11.7-25.3-25.3v-8.7
		c0-26-20.9-46.9-46.9-46.9c-5.7,0-10.9,1-15.6,2.7V19.9c0-11-8.9-19.9-19.9-19.9H19.9C8.9,0,0,8.9,0,19.9v427.4h289.5V316.3
		c3.9-3,9-5.2,15.6-5.2c14.4,0,25.3,11.9,25.3,25.3v9.1c0,22.3,19.2,46.5,46.9,46.5c27.7,0,46.9-23.8,46.9-46.5v-55.2
		c23.3-6.4,28.2-26.8,28.2-37.3c0-7.5,0-30.1,0-30.1C452.4,217.8,448.3,213.7,443.1,213.7z M397,192.5L397,192.5h-9.1v-6.4
		c0-1.2,0.4-2.3,1.2-3.1c1-1,2.1-1.5,3.3-1.5c1.2,0,2.3,0.5,3.3,1.5c0.8,0.8,1.2,1.9,1.2,3.1V192.5z M231.1,395.3H58.4V52h172.7
		V395.3z M439.6,192.5L439.6,192.5h-9.3v-6.4c0-1.2,0.5-2.3,1.5-3.1c0.8-1,1.9-1.5,3.3-1.5c1.2,0,2.4,0.5,3.3,1.5
		c0.8,0.8,1.2,1.9,1.2,3.1V192.5z"/>
	<path d="M215.8,73.3H74.1c-2.4,0-4.3,1.9-4.3,4.3v53c0,2.4,1.9,4.3,4.3,4.3h141.6c2.4,0,4.3-1.9,4.3-4.3v-53
		C220,75.2,218.1,73.3,215.8,73.3z M106.1,125H84.4V83.2h21.7V125z M139.1,125h-22.7V83.2h22.7V125z M172.1,125h-22.7V83.2h22.7V125
		z M205.1,125h-22.7V83.2h22.7V125z M197.5,275h-55.1l54.2-63.3h-60.9l-43.4,90.1h42.1l-31.1,60.1L197.5,275z"/>
	<path d="M454.6,471H0v41h454.6V471z"/>
</g>
</svg>
