<?xml version="1.0" encoding="utf-8"?>
<!-- Generator: Adobe Illustrator 21.1.0, SVG Export Plug-In . SVG Version: 6.00 Build 0)  -->
<svg version="1.1" id="Layer_1" xmlns="http://www.w3.org/2000/svg" xmlns:xlink="http://www.w3.org/1999/xlink" x="0px" y="0px"
	 viewBox="0 0 565.1 512" style="enable-background:new 0 0 565.1 512;" xml:space="preserve">
<g id="_x35_2">
	<path d="M227.1,105c-58.5,0-110.3,37.9-110.3,88.1c0,50.2,53,88.8,110.5,88.8s110.1-38.4,110.1-88.9S285.6,105,227.1,105z
		 M271.8,215.4c-11.8,9.2-28,14.5-44.6,14.5c-16.3,0-33.1-5.5-44.8-14.6c-5.1-4-13.6-12.1-13.6-22.2c0-9.6,7.1-17.2,13.1-21.8
		c11.7-9.1,28.1-14.3,45.2-14.3c17.1,0,33.6,5.2,45.3,14.2c5.9,4.6,13,12.1,13,21.8C285.4,203.3,276.9,211.5,271.8,215.4z"/>
	<path d="M542.2,358.3c15.3-26.1,22.9-54.1,22.9-83.9c0-30.9-8.1-59.6-24.4-86.2c-16.3-26.6-49.7-57.6-77.2-75.4
		c44.2,86.2,24.2,177.3-45.9,240.3c-50.3,41.2-128.2,62.3-203.6,58.7c-6.5,0-16-0.5-28.4-1.5c43.2,32.9,94,55.5,152.3,55.5
		c18.6,0,37.6-2.1,56.8-6.2c25.1,29.3,124.7,51.4,124.7,51.4s-27-42.7-32.7-56.1c-5.7-13.5-5.9-26-7.7-30.4
		C505.9,406.3,527,384.2,542.2,358.3z M227.3,1C107.4,1,0,79.1,0,192.8c0,56.9,27.7,104.9,70,138.6c1.5,1.2,3.2,3,4.8,4.7
		c-1.8,8.3-17.4,81-17.4,81s102.8-26.8,131.2-33.8c5-1.2,10.2-0.1,13.4,0.2c8.6,0.9,17.2,1.3,25.9,1.3
		c116.9,0,226.7-78.1,226.7-191.9S347.3,1,227.3,1z M227.7,335.5c-12.7,0-25.3-1.1-37.7-3.5c-9,2.4-73.3,19.8-73.3,19.8
		s9.6-38.6,10.7-43.1C85.6,284.1,56.2,244,56.2,193.8C56.2,108.2,138.8,53,227.7,53s171.5,57.7,171.5,140.8S313.7,335.5,227.7,335.5
		z"/>
</g>
</svg>
