<?xml version="1.0" encoding="utf-8"?>
<!-- Generator: Adobe Illustrator 21.1.0, SVG Export Plug-In . SVG Version: 6.00 Build 0)  -->
<svg version="1.1" id="Layer_5" xmlns="http://www.w3.org/2000/svg" xmlns:xlink="http://www.w3.org/1999/xlink" x="0px" y="0px"
	 viewBox="0 0 580.4 512" style="enable-background:new 0 0 580.4 512;" xml:space="preserve">
<g>
	<path d="M411,459.9H52v-359h312.9l51.9-51.9c-1.3-0.1-2.5-0.2-3.8-0.2H50c-27.6,0-50,22.5-50,50.1v363C0,489.5,22.4,512,50,512h363
		c27.6,0,50-22.5,50-50.1V228.1l-52,52.1V459.9z"/>
	<path d="M571.1,8.4c-11.3-11.2-29.6-11.2-41,0L241.5,297.2l-54.2-94.1c-8-13.8-25.7-18.6-39.7-10.7c-13.8,8-10.7,39.8-2.7,53.8
		l63.4,109.9c1.2,2.2,2.9,4.3,4.6,6c0.7,0.8,1.4,1.7,2.2,2.5c11.3,11.3,29.8,11.3,41.1,0L571.1,49.4
		C582.4,38.1,582.4,19.8,571.1,8.4z"/>
</g>
</svg>
