<?xml version="1.0" encoding="utf-8"?>
<!-- Generator: Adobe Illustrator 21.1.0, SVG Export Plug-In . SVG Version: 6.00 Build 0)  -->
<svg version="1.1" id="Shape_1_1_" xmlns="http://www.w3.org/2000/svg" xmlns:xlink="http://www.w3.org/1999/xlink" x="0px" y="0px"
	 viewBox="0 0 512 512" style="enable-background:new 0 0 512 512;" xml:space="preserve">
<g>
	<g>
		<path d="M256,0C114.6,0,0,114.6,0,256s114.6,256,256,256s256-114.6,256-256S397.4,0,256,0z M256,460.8
			c-113.1,0-204.8-91.7-204.8-204.8S142.9,51.2,256,51.2S460.8,142.9,460.8,256S369.1,460.8,256,460.8z"/>
		<path d="M344.5,147.5c-14.7,0-21,10-21.8,10.9L216.3,309.3l-41.4-53.4c-7.4-12.7-23.7-17.2-36.3-10.2s-16.8,23-9.4,35.7l57,80.1
			c7.4,12.7,23.7,17.2,36.3,10.2c2.3-1.3,4-3.2,5.8-5l128.5-169.6c0.7-0.7,13.2-15.5,13.2-24.1C369.9,160.1,360.4,147.5,344.5,147.5
			z"/>
	</g>
</g>
</svg>
