<?xml version="1.0" encoding="utf-8"?>
<!-- Generator: Adobe Illustrator 21.1.0, SVG Export Plug-In . SVG Version: 6.00 Build 0)  -->
<svg version="1.1" id="Layer_1" xmlns="http://www.w3.org/2000/svg" xmlns:xlink="http://www.w3.org/1999/xlink" x="0px" y="0px"
	 viewBox="0 0 512 512" style="enable-background:new 0 0 512 512;" xml:space="preserve">
<g>
	<path d="M344.5,148c-14.7,0-21,10-21.8,10.9L216.3,309.8l-41.4-53.4c-7.4-12.7-23.7-17.2-36.3-10.2s-16.8,23-9.4,35.7l57,80.1
		c7.4,12.7,23.7,17.2,36.3,10.2c2.3-1.3,4-3.2,5.8-5l128.5-169.6c0.7-0.7,13.2-15.5,13.2-24.1C369.9,160.6,360.4,148,344.5,148z"/>
	<path d="M462,0.5H50c-27.6,0-50,22.4-50,50v412c0,27.6,22.4,50,50,50h412c27.6,0,50-22.4,50-50v-412C512,22.9,489.6,0.5,462,0.5z
		 M460,448.5c0,9.9-2,12-12,12c-2.4,0-382.6,0-384,0c-10,0-12-2.1-12-12c0-0.6,0-380,0-384c0-10,2-12,12-12c6,0,377.4,0,384,0
		c10,0,12,2,12,12C460,65.8,460,446.5,460,448.5z"/>
</g>
</svg>
