<?xml version="1.0" encoding="utf-8"?>
<!-- Generator: Adobe Illustrator 21.1.0, SVG Export Plug-In . SVG Version: 6.00 Build 0)  -->
<svg version="1.1" id="Layer_2" xmlns="http://www.w3.org/2000/svg" xmlns:xlink="http://www.w3.org/1999/xlink" x="0px" y="0px"
	 viewBox="0 0 543 512" style="enable-background:new 0 0 543 512;" xml:space="preserve">
<g>
	<rect x="307" y="116" width="236" height="55"/>
	<rect x="307" width="236" height="54"/>
	<rect x="307" y="457" width="236" height="55"/>
	<rect x="307" y="341" width="236" height="55"/>
</g>
<path d="M178.3,7.7l-104,103.5L49.3,67.8c-7.2-12.4-23.1-16.6-35.6-9.6C1.3,65.5-3.1,81.3,4.1,93.9l40.4,70c1.1,2,2.6,3.8,4.1,5.3
	c0.6,0.7,1.2,1.5,2,2.2c10.2,10.2,26.7,10.2,36.8,0L215,44.4c10.2-10.2,10.2-26.5,0-36.7C204.9-2.4,188.5-2.4,178.3,7.7z"/>
<path d="M178.3,340.6L74.4,444l-25.1-43.3c-7.2-12.4-23.1-16.6-35.6-9.6c-12.4,7.2-16.7,23.1-9.6,35.6l40.4,70
	c1.1,2,2.6,3.8,4.1,5.3c0.6,0.7,1.2,1.5,2,2.2c10.2,10.2,26.7,10.2,36.8,0l127.5-127c10.2-10.2,10.2-26.5,0-36.7
	C204.9,330.5,188.5,330.5,178.3,340.6z"/>
</svg>
