<?xml version="1.0" encoding="utf-8"?>
<!-- Generator: Adobe Illustrator 21.1.0, SVG Export Plug-In . SVG Version: 6.00 Build 0)  -->
<svg version="1.1" id="Layer_1" xmlns="http://www.w3.org/2000/svg" xmlns:xlink="http://www.w3.org/1999/xlink" x="0px" y="0px"
	 viewBox="0 0 512 512" style="enable-background:new 0 0 512 512;" xml:space="preserve">
<g>
	<path d="M256,0C114.6,0,0,114.6,0,256s114.6,256,256,256s256-114.6,256-256S397.4,0,256,0z M256,460.1c-112.6,0-204-91.4-204-204
		s91.4-204,204-204s204,91.4,204,204S368.6,460.1,256,460.1z"/>
	<path d="M348.4,312.3c-46.2,32.1-106,33.5-173.2,1.1c-6.7-3.9-15.4-1.6-19.3,5c-4,6.8-1.6,15.7,5.4,19.5
		c37.3,18.5,72.1,28.2,106.2,27.8l0.9,4.1c2.5,14,9.8,26.4,20.6,34.9c7.4,5.9,16,9.5,24.7,10.5c1.6,0.2,3.2,0.3,4.8,0.3
		c2.4,0,4.8-0.2,7.1-0.6c12.4-2.1,23-9.4,29.7-20.7c6.6-11.2,8.7-24.8,5.8-38.5l-3.9-16c1.8-1,3.6-2.1,5.5-3.2l0.2-0.1
		C379.1,326.7,364.5,302.6,348.4,312.3z M340.1,359.6c1.6,7.5,0.4,15.1-3.2,21.2c-1.8,3-4.1,5.5-6.8,7.4c-2.7,1.9-5.7,3.1-9,3.7
		c-6.8,1.1-13.9-0.8-19.8-5.6c-6-4.8-10.1-11.8-11.5-19.7l-0.5-2.6c16.2-2.3,32.3-7,48.6-14.3L340.1,359.6z"/>
	<path d="M332.8,237.4c16.7,0,30.2-16.7,30.2-37.2s-13.6-37.2-30.2-37.2c-16.7,0-30.2,16.7-30.2,37.2
		C302.5,220.8,316,237.4,332.8,237.4z"/>
	<path d="M179.2,237.4c16.7,0,30.2-16.7,30.2-37.2s-13.6-37.2-30.2-37.2c-16.7,0-30.2,16.7-30.2,37.2
		C148.9,220.8,162.4,237.4,179.2,237.4z"/>
</g>
</svg>
