<?xml version="1.0" encoding="utf-8"?>
<!-- Generator: Adobe Illustrator 21.1.0, SVG Export Plug-In . SVG Version: 6.00 Build 0)  -->
<svg version="1.1" id="Layer_3" xmlns="http://www.w3.org/2000/svg" xmlns:xlink="http://www.w3.org/1999/xlink" x="0px" y="0px"
	 viewBox="0 0 548.4 512" style="enable-background:new 0 0 548.4 512;" xml:space="preserve">
<g>
	<path d="M404.4,207.8l-119.4,21.3c0.7,2.1,1.1,4.4,1.2,6.7l122.1-18.3C405.9,214.7,404.4,211.4,404.4,207.8L404.4,207.8z"/>
	<path d="M545.7,182.9c-2.9-5.6-237.2-135.6-301-173.3c-10-5.9-20.7-8.8-31.3-8.8c-21.5,0-42.5,11.7-56.3,33.3
		c0,0-144.4,218.4-148.1,223.2c-3.7,4.8-6.1,9.3-7.6,14.3c-2.7,10-1.2,20.8,1.7,39.4L32.4,486c2.5,15.3,13.7,26,26.3,26
		c1.2,0,2.4-0.1,3.6-0.3c98.1-15.8,452.9-73.1,458.2-76.5c8.1-4.9,8.5-11.4,9.7-24.9c0.1-1.1,17.4-197.2,17.4-197.2
		C548.6,197.2,549.2,189.5,545.7,182.9z M490.1,273.6c-1.7,19.8-3.2,36.7-4.5,51c0.3,0.6,0.6,1.3,0.8,2c1.9,5.5,0.8,11.8-2.5,17.1
		c0.5-5.8,1.1-12.1,1.7-19.1c-4-8.1-14.2-10.9-23.8-6.2c-10.3,5.1-16.1,17-12.8,26.6c3.3,9.6,14.3,13.3,24.6,8.2
		c4.4-2.2,7.9-5.5,10.3-9.5c-2,22.9-3.3,37.4-4.1,46.6c-12,2.1-27.7,4.8-46.8,8.1c-3.2,11-13.2,20.4-26.2,23.3
		c-14.2,3.1-27.5-2.7-32.9-13.3c-16.8,2.8-35,5.8-54.5,9c-3.3,3.2-7.7,5.6-12.6,6.7c-5.9,1.3-11.6,0.5-16.1-2
		c-51.6,8.5-111.1,18.1-176.8,28.8c-1.7,0.9-3.6,1.7-5.6,2.1c-2.8,0.6-5.5,0.6-8,0.1c-6.7,1.1-13.4,2.2-20.2,3.3l-17-101.8
		c-3.4-3.6-5.8-8.1-6.6-13.4c-0.8-5,0-9.9,1.9-14.5l-3.9-23.5c-0.8-5.1-1.9-12.1-2.3-16.5c1.7-2.5,5-7.4,11.6-17.3l171.6-25.7
		c-0.5-1.7-0.8-3.5-1-5.3L64.3,268.5c0,0,0,0,0,0c3.7-5.5,8.4-12.5,14.3-21.5c-9.3-0.8-16.5-6.5-16.5-13.6c0-7.5,8.3-13.6,18.6-13.6
		c5.2,0,9.9,1.6,13.3,4.1c11.5-17.3,26.1-39.4,44.6-67.4c-1.9,0.3-3.8,0.5-5.9,0.5c-14.4,0-26-9.1-26-20.4c0-11.3,11.7-20.4,26-20.4
		c10.9,0,20.2,5.3,24.1,12.7c9.6-14.4,20-30.2,31.3-47.4c-6.3-3.2-10.4-8.6-10.4-14.7c0-9.9,10.9-17.9,24.4-17.9
		c8.3,0,15.6,3,20,7.7c-1.4-0.8-2.6-1.6-3.9-2.3c-1.7-1-3.3-1.5-4.8-1.5c-4,0-8.8,3.6-12.6,9.4l-0.2,0.3l-0.2,0.3
		c-4.2,6.4-8.3,12.6-12.3,18.7c4,2,8.8,3.2,14,3.2c13.5,0,24.4-8,24.4-17.9c0-3.8-1.6-7.3-4.3-10.1c16,9.4,40.1,23.1,68,38.9
		c-2-1.6-3.3-3.7-3.8-6.2c-1.3-7.4,5.8-15.5,15.8-18.1c10.1-2.6,19.3,1.2,20.6,8.6c1.3,7.4-5.8,15.5-15.8,18.1
		c-4.9,1.3-9.6,1-13.3-0.5c14.3,8.1,29.4,16.7,44.9,25.5c0.3,0,0.6,0,0.9,0c16.1,0,29.8,8.4,34.2,19.9
		c31.6,17.9,66.7,37.8,93.9,53.5h0l-16.5,3c1.8,2.5,2.8,5.4,2.8,8.4c0,1-0.1,1.9-0.3,2.8l30.6-4.6c4.1,2.4,7.8,4.6,11.2,6.6
		c-0.6,6.7-1.2,13.1-1.7,19.3c5.1,1.7,9.1,5.4,10.9,10.7C508.3,253.3,501.8,266.7,490.1,273.6z"/>
	<ellipse cx="228" cy="121.9" rx="18.6" ry="13.6"/>
	<path d="M99.3,233.4c0-3.7-2-7.1-5.3-9.6c-5.9,8.9-11,16.5-15.4,23.1c0.7,0.1,1.4,0.1,2.1,0.1C91,247.1,99.3,241,99.3,233.4z"/>
	<path d="M290.2,95.7c1,0.8,2.2,1.5,3.5,2C292.5,97,291.4,96.4,290.2,95.7z"/>
	<ellipse cx="175.9" cy="197.6" rx="33.5" ry="26.2"/>
	<path d="M303.8,151.1c0,15.5,16,28,35.7,28s35.7-12.5,35.7-28c0-2.8-0.5-5.5-1.5-8.1c-9.5-5.3-18.6-10.5-27.2-15.4
		c-2.6-1.5-5.3-3-7.9-4.5C319.3,123.5,303.8,135.9,303.8,151.1z M341.4,135.6c3.5-0.2,11.3-0.2,16.9,3.1c6.3,3.8,8.7,8.9,9.6,11.5
		c0.3,0.9-0.3,1.7-1.3,1.9c-0.8,0.1-1.6-0.3-1.8-1c-0.7-2.1-2.8-6.7-8.2-9.9c-4.7-2.8-11.7-2.8-14.8-2.6c-0.9,0-1.6-0.5-1.7-1.3
		c0-0.1,0-0.1,0-0.2C339.8,136.3,340.5,135.7,341.4,135.6z"/>
	<path d="M158.8,136.6c0-2.7-0.7-5.3-1.9-7.7c-6.5,9.8-12.5,18.9-18.2,27.5C150.2,154.4,158.8,146.3,158.8,136.6z"/>
	<path d="M368.9,247.6c-26.6,6.9-44.8,30.9-40.7,53.6c4.1,22.7,28.9,35.5,55.5,28.5c26.6-6.9,44.8-30.9,40.7-53.5
		C420.3,253.5,395.4,240.7,368.9,247.6z M406.6,286.2c-0.9,0.3-1.9-0.3-2.3-1.4c-1.1-3.3-4-10.2-10.8-14.7c-5.8-3.9-14-3-17.6-2.3
		c-1,0.2-2-0.6-2.2-1.8c0-0.2,0-0.3,0-0.5c0-1.1,0.7-2.1,1.6-2.3c4.1-0.8,13.2-1.8,20.1,2.8c7.8,5.2,11.2,13,12.5,17
		C408.4,284.4,407.8,285.8,406.6,286.2z"/>
	<path d="M473.8,233.9c-13.2,6.5-20.8,20.9-16.9,32.2c3.8,11.3,17.6,15.2,30.8,8.8c0.8-0.4,1.6-0.8,2.3-1.3
		c1.1-12.7,2.3-26.5,3.7-41.7C488,229.9,480.8,230.5,473.8,233.9z"/>
	<path d="M326.1,399.3c-1.7-10.9-13-17.5-25.3-14.8c-12.3,2.7-21,13.7-19.4,24.6c0.9,5.7,4.3,10.2,9.2,12.8
		c9.9-1.6,19.4-3.2,28.7-4.7C324.4,412.4,327.1,405.9,326.1,399.3z"/>
	<path d="M433.8,387.3c-2.3-15.2-18.1-24.4-35.3-20.6c-17.2,3.8-29.3,19.1-27,34.3c0.4,2.6,1.2,5.1,2.3,7.3c22.2-3.7,42-7,59.1-9.9
		C434,394.8,434.3,391,433.8,387.3z M424.9,390.8L424.9,390.8c-0.8,0.1-1.6-0.3-1.8-1c-0.7-2.1-2.8-6.7-8.2-9.9
		c-4.7-2.8-11.7-2.8-14.8-2.6c-0.9,0-1.6-0.5-1.7-1.3c0-0.1,0-0.1,0-0.2c0-0.8,0.7-1.4,1.5-1.5c3.5-0.2,11.3-0.2,16.9,3.1
		c6.3,3.8,8.7,8.9,9.6,11.5C426.5,389.8,425.8,390.6,424.9,390.8z"/>
	<path d="M183.5,349.7c-19.9,4.4-33.8,22.1-31.2,39.6c2.7,17.5,20.9,28.2,40.8,23.8c19.9-4.4,33.8-22.1,31.2-39.6
		C221.6,356,203.3,345.4,183.5,349.7z M210.1,380.1c-1.1,0.8-2.6,0.6-3.6-0.5c-1.8-2.3-5.5-6-12-8.4c-1.5-0.6-5.3-0.9-8.5-1.1
		c-1.6-0.1-2.8-1.6-2.8-3.5v0c0-2,1.4-3.5,3-3.4c3.1,0.2,7.7,0.5,10,1.4c7.5,2.8,12,7.2,14.4,10.2
		C212,376.3,211.7,378.9,210.1,380.1z"/>
	<path d="M91.4,362c16.9-3.7,28.8-19.2,26.4-34.5c-2.3-15.3-17.9-24.8-34.8-21.1c-11.5,2.5-20.6,10.4-24.5,20l4.7,27.9
		C69.7,361.2,80.3,364.4,91.4,362z"/>
	<path d="M203.7,312.9c10.7-2.3,18.1-12.1,16.7-21.7c-1.5-9.7-11.3-15.6-22-13.3c-10.7,2.3-18.1,12.1-16.7,21.7
		S193.1,315.2,203.7,312.9z"/>
	<path d="M123.5,433.5c-1.3-8.6-10.2-13.8-19.8-11.7c-9.7,2.1-16.4,10.8-15.1,19.3c0.9,6.1,5.7,10.5,11.8,11.8
		c4.6-0.7,9.1-1.5,13.6-2.2C120.4,447.1,124.5,440.3,123.5,433.5z"/>
	<path d="M260.3,211.6c-14.3,0-25.9,11.2-25.9,24.9c0,0.5,0,1.1,0.1,1.6l50.6-9C281.8,219,271.9,211.6,260.3,211.6z"/>
	<path d="M260.3,261.5c14.3,0,25.9-11.2,25.9-24.9c0-0.3,0-0.5,0-0.8l-50.8,7.6C238.5,253.8,248.5,261.5,260.3,261.5z"/>
	<path d="M429.2,189.8c-13.7,0-24.7,8.1-24.8,18l46.7-8.3C447,193.7,438.7,189.8,429.2,189.8z"/>
	<path d="M429.2,225.9c12.3,0,22.6-6.6,24.5-15.2l-45.4,6.8C412.7,222.5,420.4,225.9,429.2,225.9z"/>
</g>
</svg>
