<?xml version="1.0" encoding="utf-8"?>
<!-- Generator: Adobe Illustrator 21.1.0, SVG Export Plug-In . SVG Version: 6.00 Build 0)  -->
<svg version="1.1" id="Layer_1" xmlns="http://www.w3.org/2000/svg" xmlns:xlink="http://www.w3.org/1999/xlink" x="0px" y="0px"
	 viewBox="0 0 559.5 512" style="enable-background:new 0 0 559.5 512;" xml:space="preserve">
<g>
	<g>
		<path d="M534,1c-14.7,0-21,10-21.8,10.9L293.3,275.3l-73.6-85.6c-7.4-12.7-23.7-17.2-36.3-10.2s-16.8,23-9.4,35.7l89.2,112.3
			c7.4,12.7,23.7,17.2,36.3,10.2c2.3-1.3,4-3.2,5.8-5l241-282.1c0.7-0.7,13.2-15.5,13.2-24.1C559.4,13.6,549.9,1,534,1z M458.2,273
			c-8.3,104.8-96,187.2-202.9,187.2C143,460.1,51.9,369,51.9,256.6S143,53.1,255.4,53.1c24.6,0,48.2,4.4,70.1,12.4
			c0.8,0.3,2.5,0.9,2.5,0.9l26.2-44.3c0,0-1.2-0.5-1.7-0.7C322.5,9,289.7,2.2,255.4,2.2C114.9,2.2,1,116.1,1,256.6
			S114.9,511,255.4,511c135,0,245.5-105.2,253.9-238c0.1-1.1,0.2-3.2,0.2-3.2l-51,0.1C458.5,269.9,458.3,271.9,458.2,273z"/>
	</g>
</g>
</svg>
