<?xml version="1.0" encoding="utf-8"?>
<!-- Generator: Adobe Illustrator 21.1.0, SVG Export Plug-In . SVG Version: 6.00 Build 0)  -->
<svg version="1.1" id="Layer_1" xmlns="http://www.w3.org/2000/svg" xmlns:xlink="http://www.w3.org/1999/xlink" x="0px" y="0px"
	 viewBox="0 0 512 512" style="enable-background:new 0 0 512 512;" xml:space="preserve">
<g id="_x35_2">
	<path d="M256,0C114.6,0,0,114.6,0,256s114.6,256,256,256s256-114.6,256-256S397.4,0,256,0z M256,460c-112.7,0-204-91.3-204-204
		S143.3,52,256,52s204,91.3,204,204S368.7,460,256,460z"/>
	<path id="XMLID_354_" d="M256.7,110.3c-22.2,0-40.2,18-40.2,40.1c0,22.2,18,40.1,40.2,40.1c22.1,0,40.1-18,40.1-40.1
		C296.8,128.2,278.9,110.3,256.7,110.3z M223.8,235.1v140.5c0,5.8,4.7,10.4,10.5,10.4h45c5.8,0,10.5-4.7,10.5-10.4V235.1H223.8z"/>
</g>
</svg>
