<?xml version="1.0" encoding="utf-8"?>
<!-- Generator: Adobe Illustrator 22.0.1, SVG Export Plug-In . SVG Version: 6.00 Build 0)  -->
<svg version="1.1" id="Layer_1" xmlns="http://www.w3.org/2000/svg" xmlns:xlink="http://www.w3.org/1999/xlink" x="0px" y="0px"
	 viewBox="0 0 454 512" style="enable-background:new 0 0 454 512;" xml:space="preserve">
<g id="XMLID_22_">
	<g>
		<path d="M242.8,257.1l115,49.7l-36.3,27.1l71.6,95.3l-24.1,20l-71.6-95.3l-38.8,27.5L242.8,257.1 M190.2,178.5
			c-1.8,0-3.7,0.6-5.2,1.7c-2.5,1.9-3.8,4.9-3.4,8L216.3,462c0.4,3.1,2.4,5.7,5.2,6.9c1.1,0.5,2.2,0.7,3.4,0.7
			c1.8,0,3.7-0.6,5.2-1.7l63.4-47.6l66.4,88.4c1.7,2.3,4.3,3.5,6.9,3.5c1.8,0,3.6-0.6,5.2-1.7l77.9-58.5c1.8-1.4,3-3.4,3.4-5.7
			c0.3-2.3-0.3-4.6-1.6-6.4l-66.4-88.4l63.4-47.6c2.5-1.8,3.8-4.9,3.4-7.9c-0.4-3.1-2.3-5.7-5.1-6.9L193.7,179.2
			C192.6,178.7,191.4,178.5,190.2,178.5L190.2,178.5z"/>
	</g>
	<g>
		<path d="M136.5,138L136.5,138c-10.2,10.2-26.6,10.2-36.8,0L50.9,89.2c-10.2-10.2-10.2-26.6,0-36.8l0,0c10.2-10.2,26.6-10.2,36.8,0
			l48.8,48.8C146.6,111.4,146.6,127.8,136.5,138z"/>
	</g>
	<g>
		<path d="M135.8,213.7L135.8,213.7c10.2,10.2,10.2,26.6,0,36.8L87,299.2c-10.2,10.2-26.6,10.2-36.8,0l0,0
			c-10.2-10.2-10.2-26.6,0-36.8L99,213.7C109.2,203.5,125.6,203.5,135.8,213.7z"/>
	</g>
	<g>
		<path d="M212.9,138L212.9,138c-10.2-10.2-10.2-26.6,0-36.8l48.8-48.8c10.2-10.2,26.6-10.2,36.8,0l0,0c10.2,10.2,10.2,26.6,0,36.8
			L249.6,138C239.5,148.1,223,148.1,212.9,138z"/>
	</g>
	<g>
		<path d="M174.3,123.2L174.3,123.2c-14.4,0-26-11.6-26-26v-69c0-14.4,11.6-26,26-26h0c14.4,0,26,11.6,26,26v69
			C200.3,111.5,188.7,123.2,174.3,123.2z"/>
	</g>
	<g>
		<path d="M121,176.5L121,176.5c0,14.4-11.6,26-26,26H26c-14.4,0-26-11.6-26-26v0c0-14.4,11.6-26,26-26h69
			C109.3,150.5,121,162.2,121,176.5z"/>
	</g>
</g>
</svg>
