<?xml version="1.0" encoding="utf-8"?>
<!-- Generator: Adobe Illustrator 21.1.0, SVG Export Plug-In . SVG Version: 6.00 Build 0)  -->
<svg version="1.1" id="Layer_1" xmlns="http://www.w3.org/2000/svg" xmlns:xlink="http://www.w3.org/1999/xlink" x="0px" y="0px"
	 viewBox="0 0 524.3 512" style="enable-background:new 0 0 524.3 512;" xml:space="preserve">
<g>
	<polygon points="285.2,335.4 285.2,283.6 241.2,283.6 241.2,335.4 189.3,335.4 189.3,379.4 241.2,379.4 241.2,431.2 285.2,431.2 
		285.2,379.4 337,379.4 337,335.4 	"/>
	<path d="M287.3,12.2c-6.4-7.3-14.7-11-25-11c-9.6,0-17.8,3.7-24.4,11C219.8,30,0.7,228.6,0.7,228.6l36.8,36.7
		c0,0,215.7-196.8,217.3-198.2c8.1-7.9,8.1-7.8,15.9,0c1.6,1.6,216.2,196.2,216.2,196.2l38.1-34.7C525,228.6,337.2,61.3,287.3,12.2z
		 M287.3,132.6c-24.5-24.4-24.9-24.5-49.4,0.1L69.4,280.2v231.2h387.5V280.2L287.3,132.6z M405.2,469.6h-284V298.1l125.1-105.2
		c16.2-16.2,16.7-16.3,33,0l125.9,105.2V469.6z"/>
</g>
</svg>
