<?xml version="1.0" encoding="utf-8"?>
<!-- Generator: Adobe Illustrator 21.1.0, SVG Export Plug-In . SVG Version: 6.00 Build 0)  -->
<svg version="1.1" id="Layer_1" xmlns="http://www.w3.org/2000/svg" xmlns:xlink="http://www.w3.org/1999/xlink" x="0px" y="0px"
	 viewBox="0 0 408 512" style="enable-background:new 0 0 408 512;" xml:space="preserve">
<g>
	<path d="M277.3,69.4l-12.1-14.2c-3-31-29.1-55.2-60.9-55.2c-31.8,0-57.9,24.2-60.9,55.2l-12.2,14.3L0,69.7V512h408V69.3L277.3,69.4
		z M204.3,24.3c6.1,0,11.1,5,11.1,11.1s-5,11.1-11.1,11.1c-6.1,0-11.1-5-11.1-11.1S198.3,24.3,204.3,24.3z M356,461.5H52V120.1h36.1
		l-2.9,3.5c-6.7,8.1-1,20.4,9.6,20.4l219.7-0.1c10.9-0.1,16-13.3,8.4-21.2l-2.5-2.6H356V461.5z"/>
	<path d="M228.6,328.8v31.4h105.1v-31.4H228.6z M228.6,395.5v31.4h105.1v-31.4H228.6z M227.9,182.6v30.9H333v-30.9H227.9z
		 M227.9,249.1v31.4H333v-31.4H227.9z M199.4,186.1c-4.8-4.7-12.4-4.7-17.1,0L114.2,254L95,220.8c-3.3-5.7-10.7-7.7-16.5-4.4
		c-5.7,3.3-7.8,10.7-4.4,16.5l26.3,45.5c0.5,0.9,1.2,1.8,1.9,2.5c0.3,0.3,0.6,0.7,0.9,1c4.7,4.7,12.4,4.7,17.1,0l79.1-78.8
		C204.1,198.4,204.1,190.9,199.4,186.1z M199.3,327.5c-4.7-4.6-12.3-4.6-17,0.1l-68.1,67.9L95,362.3c-3.3-5.7-10.7-7.7-16.5-4.4
		c-5.7,3.3-7.8,10.7-4.4,16.4l26.3,45.5c0.5,0.9,1.2,1.8,1.9,2.5c0.3,0.3,0.6,0.7,0.9,1c4.7,4.7,12.4,4.7,17.1,0l79-78.8
		C203.9,339.9,203.9,332.3,199.3,327.5z M228.6,427h105.1v-31.4H228.6V427z M228.6,328.8v31.4h105.1v-31.4H228.6z M333,249.1H227.9
		v31.4H333V249.1z M333,182.6H227.9v30.9H333V182.6z M182.3,186.1L114.2,254L95,220.8c-3.3-5.7-10.7-7.7-16.5-4.4
		c-5.7,3.3-7.8,10.7-4.4,16.5l26.3,45.5c0.5,0.9,1.2,1.8,1.9,2.5c0.3,0.3,0.6,0.7,0.9,1c4.7,4.7,12.4,4.7,17.1,0l79.1-78.8
		c4.7-4.7,4.7-12.3,0-17C194.6,181.4,186.9,181.4,182.3,186.1z M182.3,327.6l-68.1,67.9L95,362.3c-3.3-5.7-10.7-7.7-16.5-4.4
		c-5.7,3.3-7.8,10.7-4.4,16.4l26.3,45.5c0.5,0.9,1.2,1.8,1.9,2.5c0.3,0.3,0.6,0.7,0.9,1c4.7,4.7,12.4,4.7,17.1,0l79-78.8
		c4.7-4.7,4.7-12.3,0-17C194.6,323,186.9,323,182.3,327.6z M228.6,427h105.1v-31.4H228.6V427z M228.6,360.1h105.1v-31.4H228.6V360.1
		z M333,249.1H227.9v31.4H333V249.1z M227.9,213.4H333v-30.9H227.9V213.4z M182.3,186.1L114.2,254L95,220.8
		c-3.3-5.7-10.7-7.7-16.5-4.4c-5.7,3.3-7.8,10.7-4.4,16.5l26.3,45.5c0.5,0.9,1.2,1.8,1.9,2.5c0.3,0.3,0.6,0.7,0.9,1
		c4.7,4.7,12.4,4.7,17.1,0l79.1-78.8c4.7-4.7,4.7-12.3,0-17C194.6,181.4,186.9,181.4,182.3,186.1z M182.3,327.6l-68.1,67.9L95,362.3
		c-3.3-5.7-10.7-7.7-16.5-4.4c-5.7,3.3-7.8,10.7-4.4,16.4l26.3,45.5c0.5,0.9,1.2,1.8,1.9,2.5c0.3,0.3,0.6,0.7,0.9,1
		c4.7,4.7,12.4,4.7,17.1,0l79-78.8c4.7-4.7,4.7-12.3,0-17C194.6,323,186.9,323,182.3,327.6z"/>
</g>
</svg>
