<?xml version="1.0" encoding="utf-8"?>
<!-- Generator: Adobe Illustrator 21.1.0, SVG Export Plug-In . SVG Version: 6.00 Build 0)  -->
<svg version="1.1" id="Layer_1" xmlns="http://www.w3.org/2000/svg" xmlns:xlink="http://www.w3.org/1999/xlink" x="0px" y="0px"
	 viewBox="0 0 408 512" style="enable-background:new 0 0 408 512;" xml:space="preserve">
<g>
	<path d="M277.3,69.4l-12.1-14.2c-3-31-29.1-55.2-60.9-55.2c-31.8,0-57.9,24.2-60.9,55.2l-12.2,14.3L0,69.7V512h408V69.3L277.3,69.4
		z M204.3,24.3c6.1,0,11.1,5,11.1,11.1s-5,11.1-11.1,11.1c-6.1,0-11.1-5-11.1-11.1S198.3,24.3,204.3,24.3z M356,461.5H52V120.1h36.1
		l-2.9,3.5c-6.7,8.1-1,20.4,9.6,20.4l219.7-0.1c10.9-0.1,16-13.3,8.4-21.2l-2.5-2.6H356V461.5z"/>
	<path d="M275.8,353.5l40.5-40.5l-28.4-28.4L247.4,325l-12.7-12.7c20.1-10.9,32.8-31.7,32.8-55c0-34.6-28.2-62.8-62.8-62.8h-84.2
		v200.3h40.2v-74.7h24.9l33.3,33.3l-15.6,15.6c-13.7,13.7-13.7,36,0,49.8l3.5,3.5l40.5-40.5l40.5,40.5l3.5-3.5
		c13.7-13.7,13.7-36,0-49.8L275.8,353.5z M204.7,280h-43.9v-45.2h43.9c12.5,0,22.6,10.1,22.6,22.6C227.3,269.8,217.2,280,204.7,280z
		"/>
</g>
</svg>
