<?xml version="1.0" encoding="utf-8"?>
<!-- Generator: Adobe Illustrator 21.1.0, SVG Export Plug-In . SVG Version: 6.00 Build 0)  -->
<svg version="1.1" id="Layer_1" xmlns="http://www.w3.org/2000/svg" xmlns:xlink="http://www.w3.org/1999/xlink" x="0px" y="0px"
	 viewBox="0 0 408 512" style="enable-background:new 0 0 408 512;" xml:space="preserve">
<g>
	<path d="M277.3,69.4l-12.1-14.2c-3-31-29.1-55.2-60.9-55.2c-31.8,0-57.9,24.2-60.9,55.2l-12.2,14.3L0,69.7V512h408V69.3L277.3,69.4
		z M204.3,24.3c6.1,0,11.1,5,11.1,11.1s-5,11.1-11.1,11.1c-6.1,0-11.1-5-11.1-11.1S198.3,24.3,204.3,24.3z M356,461.5H52V120.1h36.1
		l-2.9,3.5c-6.7,8.1-1,20.4,9.6,20.4l219.7-0.1c10.9-0.1,16-13.3,8.4-21.2l-2.5-2.6H356V461.5z"/>
	<path d="M288.7,207.9c-13,0-18.6,8.8-19.3,9.6l-94,133.4l-36.6-47.2c-6.5-11.2-20.9-15.2-32.1-9c-11.1,6.2-14.8,20.3-8.3,31.6
		l50.4,70.8c6.5,11.2,20.9,15.2,32.1,9c2-1.1,3.5-2.8,5.1-4.4l113.6-149.9c0.6-0.6,11.7-13.7,11.7-21.3
		C311.2,219,302.8,207.9,288.7,207.9z"/>
</g>
</svg>
