<?xml version="1.0" encoding="utf-8"?>
<!-- Generator: Adobe Illustrator 21.1.0, SVG Export Plug-In . SVG Version: 6.00 Build 0)  -->
<svg version="1.1" id="Layer_1" xmlns="http://www.w3.org/2000/svg" xmlns:xlink="http://www.w3.org/1999/xlink" x="0px" y="0px"
	 viewBox="0 0 408 512" style="enable-background:new 0 0 408 512;" xml:space="preserve">
<g>
	<path d="M277.3,69.4l-12.1-14.2c-3-31-29.1-55.2-60.9-55.2c-31.8,0-57.9,24.2-60.9,55.2l-12.2,14.3L0,69.7V512h408V69.3L277.3,69.4
		z M204.3,24.3c6.1,0,11.1,5,11.1,11.1s-5,11.1-11.1,11.1c-6.1,0-11.1-5-11.1-11.1S198.3,24.3,204.3,24.3z M356,461.5H52V120.1h36.1
		l-2.9,3.5c-6.7,8.1-1,20.4,9.6,20.4l219.7-0.1c10.9-0.1,16-13.3,8.4-21.2l-2.5-2.6H356V461.5z"/>
	<path d="M131.2,406.9h-45v-41.1h45.1L131.2,406.9L131.2,406.9z M131.2,322.4h-45v-41.1h45.1L131.2,322.4L131.2,322.4z M131.2,238
		h-45v-41.1h45.1L131.2,238L131.2,238z M321.8,406.9H158.5v-41.1h163.4v41.1H321.8z M321.8,322.4H158.5v-41.1h163.4v41.1H321.8z
		 M321.8,238H158.5v-41.1h163.4V238H321.8z"/>
</g>
</svg>
