<?xml version="1.0" encoding="utf-8"?>
<!-- Generator: Adobe Illustrator 22.0.1, SVG Export Plug-In . SVG Version: 6.00 Build 0)  -->
<svg version="1.1" id="Layer_2_1_" xmlns="http://www.w3.org/2000/svg" xmlns:xlink="http://www.w3.org/1999/xlink" x="0px" y="0px"
	 viewBox="0 0 453.4 512" style="enable-background:new 0 0 453.4 512;" xml:space="preserve">
<g id="_x35_2">
	<path d="M420.7,168l24.1-24.1c4.6-4.6,4.6-12.1,0-16.7l-24.1-24.1c-4.6-4.6-12.1-4.6-16.7,0l-19.5,19.5
		c-36.3-35.2-84.3-58.4-137.6-63.1V40.1h43.9V27.7c0-15.2-12.3-27.6-27.6-27.6h-72.9c-15.2,0-27.6,12.3-27.6,27.6v12.4h42v19.6
		C89.8,70.7,0,167.5,0,285.3C0,410.5,101.5,512,226.7,512s226.7-101.5,226.7-226.7C453.4,242.4,441.5,202.2,420.7,168z M226.7,460.9
		c-97,0-175.6-78.6-175.6-175.6s78.6-175.6,175.6-175.6s175.6,78.6,175.6,175.6S323.7,460.9,226.7,460.9z"/>
	<path d="M295.9,269.9h-49.8v-84.8c0-5.2-4.3-9.4-9.4-9.4h-30.8c-5.2,0-9.4,4.2-9.4,9.3l-0.2,121.1c-0.1,7.8,6.2,14.1,14,14.1h85.6
		c5.2,0,9.4-4.2,9.4-9.3v-31.6C305.3,274,301,269.9,295.9,269.9z"/>
</g>
</svg>
