<?xml version="1.0" encoding="utf-8"?>
<!-- Generator: Adobe Illustrator 21.1.0, SVG Export Plug-In . SVG Version: 6.00 Build 0)  -->
<svg version="1.1" id="Layer_4" xmlns="http://www.w3.org/2000/svg" xmlns:xlink="http://www.w3.org/1999/xlink" x="0px" y="0px"
	 viewBox="0 0 512 512" style="enable-background:new 0 0 512 512;" xml:space="preserve">
<g id="_x35_2">
	<path d="M256,0C114.6,0,0,114.6,0,256s114.6,256,256,256s256-114.6,256-256S397.4,0,256,0z M256,460c-112.7,0-204-91.3-204-204
		S143.3,52,256,52s204,91.3,204,204S368.7,460,256,460z"/>
	<path d="M259.9,137.7h-14.7c-7.2,0-13,5.8-13,13L232,263.5c0,8.8,7.1,16,16,16h82.7c7.2,0,13-5.8,13-13V251c0-7.2-5.8-13-13-13
		h-57.8v-87.3C272.9,143.5,267.1,137.7,259.9,137.7z"/>
	<path d="M240.5,98c0-1.2,0.6-1.9,1.9-1.9h2.5v-6.5c0-0.8,0.1-1.7,0.1-1.7h-0.1c0,0-0.3,0.4-0.5,0.6c-0.7,0.7-1.7,0.7-2.6-0.2
		l-0.9-1c-0.9-0.9-0.8-1.8,0.1-2.7l3.5-3.2c0.7-0.7,1.4-0.9,2.3-0.9h2c1.2,0,1.9,0.6,1.9,1.9v13.7h2.5c1.2,0,1.9,0.7,1.9,1.9v1.5
		c0,1.2-0.6,1.9-1.9,1.9h-11c-1.2,0-1.9-0.7-1.9-1.9V98z"/>
	<path d="M256.1,98.7c0-7.8,8.4-9.3,8.4-11.5c0-1.2-1-1.5-1.5-1.5c-0.5,0-1.1,0.2-1.6,0.6c-0.8,0.8-1.7,1.2-2.7,0.4l-1.4-1.1
		c-1-0.8-1.2-1.6-0.5-2.6c1.1-1.5,3.2-3.1,6.7-3.1c3.2,0,7.4,1.7,7.4,6.6c0,6.4-7.7,7.7-8.1,9.4h6.5c1.2,0,1.9,0.7,1.9,1.9v1.5
		c0,1.2-0.7,1.9-1.9,1.9h-11.3c-1.2,0-2-0.7-2-1.9V98.7z"/>
	<path d="M415.4,262.5l0.9-1.5c0.6-1.1,1.5-1.2,2.6-0.5c0.8,0.3,1.6,0.5,2.4,0.5c1.7,0,2.4-0.6,2.4-1.4c0-1.1-0.9-1.5-2.6-1.5h-0.8
		c-1,0-1.5-0.3-2-1.3l-0.2-0.3c-0.4-0.8-0.2-1.6,0.5-2.5l0.9-1.2c1.1-1.4,2-2.2,2-2.2v-0.1c0,0-0.7,0.2-2.1,0.2h-2.1
		c-1.2,0-1.9-0.7-1.9-1.9v-1.5c0-1.2,0.6-1.9,1.9-1.9h9.7c1.2,0,1.9,0.7,1.9,1.9v0.6c0,1-0.2,1.6-0.8,2.3l-2.9,3.3
		c3.2,0.8,4.8,3.4,4.8,5.8c0,3.5-2.4,7.3-8,7.3c-2.8,0-4.7-0.8-5.9-1.6C414.8,264.5,414.8,263.5,415.4,262.5z"/>
	<path d="M258.7,410c1,0,2.3,0.1,3,0.3c1.2,0.3,1.5,1.2,1.2,2.4l-0.5,1.7c-0.4,1.4-1.1,1.4-2.2,1.3c-0.5-0.1-0.7-0.1-1.1-0.1
		c-2.1,0-3.2,0.8-3.9,2.3h0.1c0,0,1-0.6,2.7-0.6c4.2,0,6.5,3.4,6.5,6.6c0,3.4-2.4,7.6-7.3,7.6c-4.1,0-8.8-2.9-8.8-9.8
		C248.3,415.6,252.1,410,258.7,410z M256.9,426.2c0.9,0,1.5-0.7,1.5-1.8c0-0.7-0.3-2.2-2.6-2.2c-0.8,0-1.2,0.1-1.2,1.1
		C254.6,424.9,255.8,426.2,256.9,426.2z"/>
	<path d="M89.6,244.5c4.1,0,8.8,2.9,8.8,9.8c0,6.2-3.8,11.7-10.3,11.7c-1,0-2.3-0.1-3-0.3c-1.2-0.3-1.5-1.2-1.2-2.4l0.5-1.7
		c0.4-1.4,1.1-1.5,2.2-1.3c0.5,0.1,0.7,0.1,1.1,0.1c2.1,0,3.2-0.8,3.9-2.3h-0.1c0,0-1,0.6-2.7,0.6c-4.2,0-6.5-3.4-6.5-6.6
		C82.3,248.7,84.7,244.5,89.6,244.5z M90.9,253.9c0.8,0,1.2-0.1,1.2-1.1c0-1.7-1.2-3-2.3-3c-0.9,0-1.5,0.7-1.5,1.8
		C88.3,252.4,88.5,253.9,90.9,253.9z"/>
</g>
</svg>
