<?xml version="1.0" encoding="utf-8"?>
<!-- Generator: Adobe Illustrator 21.1.0, SVG Export Plug-In . SVG Version: 6.00 Build 0)  -->
<svg version="1.1" id="Layer_4" xmlns="http://www.w3.org/2000/svg" xmlns:xlink="http://www.w3.org/1999/xlink" x="0px" y="0px"
	 viewBox="0 0 505.8 512" style="enable-background:new 0 0 505.8 512;" xml:space="preserve">
<path d="M505.8,170.7H341.9V0H0.5v341.3h164V512h341.3V170.7z M341.9,335.4v-40.2l110.8,80v40.2L341.9,335.4z M341.9,275.5V236
	l110.8,80v39.5L341.9,275.5z M352.5,223.9h55.3l44.9,32.4v40L352.5,223.9z M452.7,236.5l-9.7-6.9l-7.9-5.7h17.6V236.5z M53.7,288.1
	V53.2h234.9v234.9H53.7z M217.7,422.8v-38.8l103.4,74.7h-53.7L217.7,422.8z M217.7,364.4v-23.1h20.6L401,458.8h-52.5L217.7,364.4z
	 M217.7,442.6l22.5,16.2h-22.5V442.6z M428.2,458.7L265.6,341.3h57.1l130,93.9v23.5H428.2z"/>
</svg>
