<?xml version="1.0" encoding="utf-8"?>
<!-- Generator: Adobe Illustrator 22.0.1, SVG Export Plug-In . SVG Version: 6.00 Build 0)  -->
<svg version="1.1" id="Layer_1" focusable="false" xmlns="http://www.w3.org/2000/svg" xmlns:xlink="http://www.w3.org/1999/xlink"
	 x="0px" y="0px" viewBox="0 0 512 512" style="enable-background:new 0 0 512 512;" xml:space="preserve">
<g id="regular">
	<rect x="171.8" y="-0.7" width="47.3" height="68.7"/>
	<rect y="171.1" width="68.7" height="47.3"/>
	<path d="M391,171.1v7.3c-4.1-2.6-8.4-5-12.7-7.3H391z"/>
	<rect x="91.3" y="20.9" transform="matrix(0.866 -0.5 0.5 0.866 -12.2104 64.8845)" width="47.3" height="68.7"/>
	<rect x="32.2" y="79.8" transform="matrix(0.5 -0.866 0.866 0.5 -70.8985 105.4934)" width="47.3" height="68.7"/>
	<rect x="300.7" y="90.5" transform="matrix(0.866 -0.5 0.5 0.866 -12.1904 182.8113)" width="68.7" height="47.3"/>
	<path d="M79.3,247c-7.1,8.3-13.1,17.7-17.9,27.8c-12.4,4.2-24.2,10.3-34.9,18l-12-20.8l59.5-34.4L79.3,247z"/>
	<rect x="241.8" y="31.6" transform="matrix(0.5 -0.866 0.866 0.5 90.2296 266.7411)" width="68.7" height="47.3"/>
	<path d="M287.5,150.2c-24.1,0.6-47.4,5.8-69.4,15.4c-20.6,9-39.1,21.5-55.1,37.2l-14.9,3.1c-18.1,3.7-34.9,11.5-49.3,22.6
		c-3.6-10.5-5.6-21.8-5.6-33.5c0-56.5,45.8-102.3,102.3-102.3C236,92.6,270.9,116.1,287.5,150.2z"/>
	<path d="M444.8,301.3c-15.2-70.4-79-121.1-153.1-121.1c-44.6,0-87,18.6-116.8,51.1H174c-40.7,0-76.9,26-91,65
		C34.8,307.4,0,351.7,0,403.1c0.1,60.1,47.6,109.1,106.1,109.1H406c28.3,0,55-11.4,75-32.1c20-20.5,31-47.9,31-77.2
		C512,358.1,485,317.7,444.8,301.3z M446.3,446.3c-10.9,11-25.3,17-40.4,17H106.2c-32.1,0-58.3-27.1-58.3-60.4
		c0-29.1,20-54,47.5-59.3l10.6-2c4-0.4,7.6-0.6,11.2-0.6c25.4,0,43.8,9.1,61.5,30.5l10.6,12.8v-16.7c0-10.3-3.7-26.5-13.9-41
		c-7.1-10-19.5-22.2-39.8-27.4c9.6-10.6,31.7-23.1,56.3-19.6c48.3,6.8,66.9,56.2,66.9,56.2l-0.1-20.4c-0.1-17.4-9.4-47.2-34.2-64.3
		c19.1-14.3,42.6-22.1,67-22.1c13.3,0,26.2,2.2,38.4,6.7c11.8,4.3,22.7,10.4,32.2,18.2c14.8,12.1,26.2,28.2,32.5,45.8
		c-32.9,9.6-48.8,41.5-51.8,48.1l-8.6,19.1l17.4-11.6c23.1-15.4,44.9-18.3,72.9-9.7l0.8,0.3c11.2,4.1,20.8,11.6,27.8,21.7
		c7.1,10.3,10.9,22.4,10.9,35.2C464,419.5,457.8,434.8,446.3,446.3z"/>
</g>
</svg>
