<?xml version="1.0" encoding="utf-8"?>
<!-- Generator: Adobe Illustrator 21.1.0, SVG Export Plug-In . SVG Version: 6.00 Build 0)  -->
<svg version="1.1" id="Layer_1" focusable="false" xmlns="http://www.w3.org/2000/svg" xmlns:xlink="http://www.w3.org/1999/xlink"
	 x="0px" y="0px" viewBox="0 0 512 512" style="enable-background:new 0 0 512 512;" xml:space="preserve">
<g id="_x35_2">
	<path d="M444.8,121.1C429.6,50.7,365.8,0,291.7,0c-44.6,0-87,18.6-116.8,51.1h-0.8c-40.7,0-76.9,26-91,65
		c-48.3,11.1-83,55.4-83,106.8C0.2,283,47.7,332,106.2,332H406c28.3,0,55-11.4,75-32.1c20-20.5,31-47.9,31-77.2
		C512,177.9,485.1,137.5,444.8,121.1z M446.4,266.1c-10.9,11-25.3,17-40.4,17H106.2c-32.1,0-58.3-27.1-58.3-60.4
		c0-29.1,20-54,47.5-59.3l10.6-2c4-0.4,7.6-0.6,11.2-0.6c25.4,0,43.8,9.1,61.5,30.5l10.6,12.8v-16.7c0-10.3-3.7-26.5-13.9-41
		c-7.1-10-19.5-22.2-39.8-27.4c9.6-10.6,31.7-23.1,56.3-19.6c48.3,6.8,66.9,56.2,66.9,56.2l-0.1-20.4c-0.1-17.4-9.4-47.2-34.2-64.3
		c19.1-14.3,42.6-22.1,67-22.1c13.3,0,26.2,2.2,38.4,6.7c11.8,4.3,22.7,10.4,32.2,18.2c14.8,12.1,26.2,28.2,32.5,45.8
		c-32.9,9.6-48.8,41.5-51.8,48.1l-8.6,19.1l17.4-11.6c23.1-15.4,44.9-18.3,72.9-9.7l0.8,0.3c11.2,4.1,20.8,11.6,27.8,21.7
		c7.1,10.3,10.9,22.4,10.9,35.2C464.1,239.3,457.9,254.6,446.4,266.1z"/>
	<path d="M125.7,437.5H111l10.4,10.4c5.2,4.9,5.8,13,0.3,18.8c-5.2,4.9-13.6,4.9-18.5,0L92.5,456v14.7c0,7.8-5.2,13-13,13
		c-6.9,0-12.7-5.2-12.7-13V456c-3.8,3.5-7.2,7.2-10.7,10.7c-4.9,4.9-13.3,4.9-18.5,0c-5.5-5.8-4.9-13.9,0.3-18.8l10.4-10.4H33.5
		c-7.5,0-13.3-5.8-13.3-13c0-7.2,5.8-13,13.3-13h14.5l-10.1-10.1c-5.2-4.9-5.5-13.6-0.3-18.8c5.2-5.2,13.9-4.9,18.8,0.3
		c0.9,0.9,6.7,6.9,10.4,10.4v-14.7c0-7.5,5.8-13.3,12.7-13.3c7.8,0,13,5.8,13,13.3v14.7l10.4-10.4c4.9-5.2,13.6-5.5,18.8-0.3
		c5.2,5.2,4.9,13.9-0.3,18.8l-10.1,10.1h14.5c7.5,0,13.3,5.8,13.3,13C139,431.8,133.2,437.5,125.7,437.5z M302.7,465.7H288
		l10.4,10.4c5.2,4.9,5.8,13,0.3,18.8c-5.2,4.9-13.6,4.9-18.5,0l-10.7-10.7V499c0,7.8-5.2,13-13,13c-6.9,0-12.7-5.2-12.7-13v-14.8
		c-3.8,3.5-7.2,7.2-10.7,10.7c-4.9,4.9-13.3,4.9-18.5,0c-5.5-5.8-4.9-13.9,0.3-18.8l10.4-10.4h-14.8c-7.5,0-13.3-5.8-13.3-13
		c0-7.2,5.8-13,13.3-13h14.5l-10.1-10.1c-5.2-4.9-5.5-13.6-0.3-18.8c5.2-5.2,13.9-4.9,18.8,0.3c0.9,0.9,6.7,6.9,10.4,10.4v-14.7
		c0-7.5,5.8-13.3,12.7-13.3c7.8,0,13,5.8,13,13.3v14.7l10.4-10.4c4.9-5.2,13.6-5.5,18.8-0.3c5.2,5.2,4.9,13.9-0.3,18.8l-10.1,10.1
		h14.5c7.5,0,13.3,5.8,13.3,13C316,460,310.2,465.7,302.7,465.7z M478.9,437.5h-14.7l10.4,10.4c5.2,4.9,5.8,13,0.3,18.8
		c-5.2,4.9-13.6,4.9-18.5,0L445.6,456v14.7c0,7.8-5.2,13-13,13c-6.9,0-12.7-5.2-12.7-13V456c-3.8,3.5-7.2,7.2-10.7,10.7
		c-4.9,4.9-13.3,4.9-18.5,0c-5.5-5.8-4.9-13.9,0.3-18.8l10.4-10.4h-14.8c-7.5,0-13.3-5.8-13.3-13c0-7.2,5.8-13,13.3-13h14.5
		L391,401.4c-5.2-4.9-5.5-13.6-0.3-18.8c5.2-5.2,13.9-4.9,18.8,0.3c0.9,0.9,6.7,6.9,10.4,10.4v-14.7c0-7.5,5.8-13.3,12.7-13.3
		c7.8,0,13,5.8,13,13.3v14.7l10.4-10.4c4.9-5.2,13.6-5.5,18.8-0.3c5.2,5.2,4.9,13.9-0.3,18.8l-10.1,10.1h14.5
		c7.5,0,13.3,5.8,13.3,13C492.2,431.8,486.4,437.5,478.9,437.5z"/>
</g>
</svg>
