<?xml version="1.0" encoding="utf-8"?>
<!-- Generator: Adobe Illustrator 21.1.0, SVG Export Plug-In . SVG Version: 6.00 Build 0)  -->
<svg version="1.1" id="Layer_1" focusable="false" xmlns="http://www.w3.org/2000/svg" xmlns:xlink="http://www.w3.org/1999/xlink"
	 x="0px" y="0px" viewBox="0 0 640 512" style="enable-background:new 0 0 640 512;" xml:space="preserve">
<path d="M555,202.7C538.2,106.6,459.8,34,365.6,34c-58.5,0-110.8,28-146.2,72.2c-1.4-0.1-2.8-0.1-4.3-0.1
	c-51.5,0-95.2,38-110.6,90.5C45,209.3,0,268.7,0,340c0,80.4,57.3,145.7,128.1,145.7h65.6c42.1,0,318.3,0,318.3,0
	c35.4,0,67.3-16.3,90.5-42.8c23.2-26.3,37.5-62.8,37.5-103C640,276.7,604.6,222.9,555,202.7z M512,433.6H128.1
	c-45.4,0-82.3-42.1-82.3-93.7c0-45.1,28.3-83.8,67.1-92l13.9-2.9c5.4-0.6,10.5-0.9,15.4-0.9c39.1,0,63.6,18,84.7,46.1
	c0-28.5-19.2-82.4-73.8-90.5c19.4-34.8,44.1-42.5,72.5-42.5c31.3,0,69.8,21.4,90.1,59.5c-0.1-25-14.1-69.7-49.4-89.8
	c26.9-26,62.1-40.7,99.1-40.7c17.9,0,35.3,3.3,51.8,9.9c15.8,6.3,30.5,15.4,43.5,27.1c22.6,20.3,38.9,47.6,46.6,77.4
	c-38.8,7.9-61.5,46.5-69.2,65.3c27.6-20.3,57.2-29.3,100-14.7l1.3,0.5c15.8,6.4,29.4,18.1,39.3,33.8c10,15.9,15.3,34.8,15.3,54.5
	C594.2,391.6,557.3,433.6,512,433.6z"/>
</svg>
