<?xml version="1.0" encoding="utf-8"?>
<!-- Generator: Adobe Illustrator 21.1.0, SVG Export Plug-In . SVG Version: 6.00 Build 0)  -->
<svg version="1.1" id="Layer_1" focusable="false" xmlns="http://www.w3.org/2000/svg" xmlns:xlink="http://www.w3.org/1999/xlink"
	 x="0px" y="0px" viewBox="0 0 640 512" style="enable-background:new 0 0 640 512;" xml:space="preserve">
<g id="_x35_2">
	<path d="M555,217.7C538.2,121.6,459.8,49,365.6,49c-39.9,0-77,13.1-107.8,35.4c-12.8,9.3-24.5,20.2-34.9,32.4
		c-1.2,1.4-2.4,2.9-3.6,4.4c-1.4-0.1-2.8-0.1-4.3-0.1c-51.5,0-95.2,38-110.6,90.5c-7.8,1.6-15.3,4.1-22.4,7.2
		c-14.1,6.2-27,15.1-38.2,26.2C17,271.9,0,311.2,0,355c0,80.4,57.3,145.7,128.1,145.7h65.6c42.1,0,318.3,0,318.3,0
		c35.4,0,67.3-16.3,90.5-42.8c23.2-26.3,37.5-62.8,37.5-103C640,291.7,604.6,237.9,555,217.7z M512,448.6H128.1
		c-45.4,0-82.3-42.1-82.3-93.7c0-45.1,28.3-83.8,67.1-92l13.9-2.9c5.4-0.6,10.5-0.9,15.4-0.9c39.1,0,63.6,18,84.7,46.1
		c0-28.5-19.2-82.4-73.8-90.5c12.3-25.2,35.8-41.4,61.9-41.4c0.7,0,1.6,0,2.6,0.1l5.8,0.2l14.8,0.6c34,4.2,59.7,27.3,77.5,57.5
		c-0.1-25-14.1-69.7-49.4-89.8c26.9-26,62.1-40.7,99.1-40.7c17.9,0,35.3,3.3,51.8,9.9c15.8,6.3,30.5,15.4,43.5,27.1
		c22.6,20.3,38.9,47.6,46.6,77.4c-38.8,7.9-61.5,46.5-69.2,65.3c27.6-20.3,57.2-29.3,100-14.7l1.3,0.5c15.8,6.4,29.4,18.1,39.3,33.8
		c10,15.9,15.3,34.8,15.3,54.5C594.2,406.6,557.3,448.6,512,448.6z"/>
	<path d="M237.9,64.4c-12.8,9.3-24.5,20.2-34.9,32.4c-15.8-21.4-41.2-35.3-69.9-35.3c-48,0-87,39-87,87c0,18.8,5.9,36.1,16,50.3
		c-14.1,6.2-27,15.1-38.2,26.2c-18.2-26.3-26.5-58.5-23-90.7C8.8,61.1,75,7.8,148.4,15.8C184,19.7,215.9,37.3,237.9,64.4z"/>
</g>
</svg>
