<?xml version="1.0" encoding="utf-8"?>
<!-- Generator: Adobe Illustrator 21.1.0, SVG Export Plug-In . SVG Version: 6.00 Build 0)  -->
<svg version="1.1" id="Layer_5" xmlns="http://www.w3.org/2000/svg" xmlns:xlink="http://www.w3.org/1999/xlink" x="0px" y="0px"
	 viewBox="0 0 478 512" style="enable-background:new 0 0 478 512;" xml:space="preserve">
<g>
	<path d="M191.8,388.7h-59.2c-20.9,0-37.9-17-37.9-37.9V132.1c0.9-0.4,1.6-0.7,2.2-1.1c23.6-10.7,40.1-34.4,40.1-62
		c0-37.6-30.4-68-68-68S1,31.4,1,69c0,26.8,15.5,50,38.1,61.1c0.6,0.6,1.8,1.3,3.5,2v218.8c0,49.6,40.4,90,90,90h59.2v70.6
		l96.7-96.7L191.8,318V388.7z M29.1,69C29.1,46.9,47,29.1,69,29.1c22.1,0,39.9,17.9,39.9,39.9c0,22.1-17.9,39.9-39.9,39.9
		C46.9,108.9,29.1,91.1,29.1,69z"/>
	<path d="M439.3,353.6c-0.6-0.7-1.8-1.4-3.7-2.2l-0.3-219.2c2.4-1,3.7-1.9,4-2.7c22.3-11.2,37.5-34.2,37.5-60.8
		c0-37.6-30.4-68-68-68s-68,30.4-68,68c0,27.1,15.8,50.4,38.7,61.4c0.6,0.7,1.8,1.4,3.7,2.2l0.3,219.2c-2.4,1-3.7,1.9-4,2.7
		C357.3,365.4,342,388.4,342,415c0,37.6,30.4,68,68,68s68-30.4,68-68C478,387.9,462.2,364.6,439.3,353.6z M369.1,68.7
		c0-22.1,17.9-39.9,39.9-39.9c22.1,0,39.9,17.9,39.9,39.9c0,22.1-17.9,39.9-39.9,39.9C386.9,108.7,369.1,90.8,369.1,68.7z
		 M410,454.9c-22.1,0-39.9-17.9-39.9-39.9c0-22.1,17.9-39.9,39.9-39.9c22.1,0,39.9,17.9,39.9,39.9
		C449.9,437.1,432.1,454.9,410,454.9z"/>
	<circle cx="410" cy="415" r="13.2"/>
	<circle cx="409" cy="68.7" r="13.2"/>
</g>
</svg>
