<?xml version="1.0" encoding="utf-8"?>
<!-- Generator: Adobe Illustrator 21.1.0, SVG Export Plug-In . SVG Version: 6.00 Build 0)  -->
<svg version="1.1" id="Layer_5" xmlns="http://www.w3.org/2000/svg" xmlns:xlink="http://www.w3.org/1999/xlink" x="0px" y="0px"
	 viewBox="0 0 389 512" style="enable-background:new 0 0 389 512;" xml:space="preserve">
<g>
	<path d="M293.6,156.8c-2.8,23.6-10.9,40.2-24.8,51.6C250.9,223,224.5,228.6,194,235c-32.9,6.9-70.1,14.8-99.7,37.8V130.7
		C118.8,120.4,136,96.2,136,68c0-37.6-30.4-68-68-68S0,30.4,0,68c0,28.6,17.7,53.1,42.7,63.1v250.8C17.7,391.9,0,416.4,0,445
		c0,37.6,30.4,68,68,68s68-30.4,68-68c0-26.7-15.3-49.7-37.7-60.9c-0.6-0.6-1.6-1.2-3.2-1.9c2.9-34.1,13.8-56.7,34.1-71.2
		c19.4-13.8,45.3-19.3,75.4-25.6c31.9-6.7,68.2-14.3,96.2-36.5c26.2-20.8,40.9-51.1,44.5-92.1H293.6z M28.1,68
		c0-22.1,17.8-39.9,39.9-39.9S107.9,46,107.9,68c0,22.1-17.9,39.9-39.9,39.9C45.9,107.9,28.1,90,28.1,68z M107.9,445
		c0,22.1-17.8,39.9-39.9,39.9S28.1,467,28.1,445c0-22.1,17.9-39.9,39.9-39.9C90.1,405.1,107.9,423,107.9,445z"/>
	<path d="M68,81.2c-7.3,0-13.2-5.9-13.2-13.2S60.7,54.8,68,54.8S81.2,60.7,81.2,68S75.3,81.2,68,81.2z"/>
	<path d="M68,458.2c-7.3,0-13.2-5.9-13.2-13.2c0-7.3,5.9-13.2,13.2-13.2s13.2,5.9,13.2,13.2C81.2,452.3,75.3,458.2,68,458.2z"/>
	<path d="M367.2,50.2h-16.7v-19c0-17.2-13.9-31.1-31.1-31.1l0,0c-17.2,0-31.1,13.9-31.1,31.1v19h-16.5l-1.7,1.5v72.7h98.9V51.6
		L367.2,50.2z M300.8,31.1c0-10.2,8.3-18.5,18.5-18.5s18.5,8.3,18.5,18.5v19h-37.1V31.1z"/>
</g>
</svg>
