<?xml version="1.0" encoding="utf-8"?>
<!-- Generator: Adobe Illustrator 21.1.0, SVG Export Plug-In . SVG Version: 6.00 Build 0)  -->
<svg version="1.1" id="Layer_5" xmlns="http://www.w3.org/2000/svg" xmlns:xlink="http://www.w3.org/1999/xlink" x="0px" y="0px"
	 viewBox="0 0 381.4 512" style="enable-background:new 0 0 381.4 512;" xml:space="preserve">
<g>
	<path d="M294.5,145.3c-1.3,29.7-9.6,49.9-25.8,63.1C250.9,223,224.5,228.6,194,235c-32.9,6.9-70.1,14.8-99.7,37.8V130.7
		C118.8,120.4,136,96.2,136,68c0-37.6-30.4-68-68-68S0,30.4,0,68c0,28.6,17.7,53.1,42.7,63.1v250.8C17.7,391.9,0,416.4,0,445
		c0,37.6,30.4,68,68,68s68-30.4,68-68c0-26.7-15.3-49.7-37.7-60.9c-0.6-0.6-1.6-1.2-3.2-1.9c2.9-34.1,13.8-56.7,34.1-71.2
		c19.4-13.8,45.3-19.3,75.4-25.6c31.9-6.7,68.2-14.3,96.2-36.5c28.6-22.7,43.5-56.7,45.3-103.6H294.5z M28.1,68
		c0-22.1,17.8-39.9,39.9-39.9S107.9,46,107.9,68c0,22.1-17.9,39.9-39.9,39.9C45.9,107.9,28.1,90,28.1,68z M107.9,445
		c0,22.1-17.8,39.9-39.9,39.9S28.1,467,28.1,445c0-22.1,17.9-39.9,39.9-39.9C90.1,405.1,107.9,423,107.9,445z"/>
	<path d="M68,81.2c-7.3,0-13.2-5.9-13.2-13.2S60.7,54.8,68,54.8S81.2,60.7,81.2,68S75.3,81.2,68,81.2z"/>
	<path d="M68,458.2c-7.3,0-13.2-5.9-13.2-13.2c0-7.3,5.9-13.2,13.2-13.2s13.2,5.9,13.2,13.2C81.2,452.3,75.3,458.2,68,458.2z"/>
	<polygon points="351.3,4 321.2,34.1 291.2,4 261.1,34.1 291.2,64.2 261.1,94.2 291.2,124.3 321.2,94.2 351.3,124.3 381.4,94.2 
		351.3,64.2 381.4,34.1 	"/>
</g>
</svg>
