<?xml version="1.0" encoding="utf-8"?>
<!-- Generator: Adobe Illustrator 21.1.0, SVG Export Plug-In . SVG Version: 6.00 Build 0)  -->
<svg version="1.1" id="Layer_5" xmlns="http://www.w3.org/2000/svg" xmlns:xlink="http://www.w3.org/1999/xlink" x="0px" y="0px"
	 viewBox="0 0 478 512" style="enable-background:new 0 0 478 512;" xml:space="preserve">
<g>
	<path d="M287.2,123.5h59.2c20.9,0,37.9,17,37.9,37.9v218.7c-0.9,0.4-1.6,0.7-2.2,1.1c-23.6,10.7-40.1,34.4-40.1,62
		c0,37.6,30.4,68,68,68s68-30.4,68-68c0-26.8-15.5-50-38.1-61.1c-0.6-0.6-1.8-1.3-3.5-2V161.3c0-49.6-40.4-90-90-90h-59.2V0.7
		l-96.7,96.7l96.7,96.8V123.5z M449.9,443.2c0,22.1-17.9,39.9-39.9,39.9c-22.1,0-39.9-17.9-39.9-39.9c0-22.1,17.9-39.9,39.9-39.9
		C432.1,403.3,449.9,421.1,449.9,443.2z"/>
	<path d="M39.7,158.6c0.6,0.7,1.8,1.4,3.7,2.2L43.7,380c-2.4,1-3.7,1.9-4,2.7c-22.3,11.2-37.5,34.2-37.5,60.8c0,37.6,30.4,68,68,68
		s68-30.4,68-68c0-27.1-15.8-50.4-38.7-61.4c-0.6-0.7-1.8-1.4-3.7-2.2l-0.3-219.2c2.4-1,3.7-1.9,4-2.7
		c22.2-11.2,37.5-34.2,37.5-60.8c0-37.6-30.4-68-68-68S1,59.6,1,97.2C1,124.3,16.8,147.6,39.7,158.6z M109.9,443.5
		c0,22.1-17.9,39.9-39.9,39.9c-22.1,0-39.9-17.9-39.9-39.9c0-22.1,17.9-39.9,39.9-39.9C92.1,403.5,109.9,421.4,109.9,443.5z
		 M69,57.3c22.1,0,39.9,17.9,39.9,39.9c0,22.1-17.9,39.9-39.9,39.9c-22.1,0-39.9-17.9-39.9-39.9C29.1,75.1,46.9,57.3,69,57.3z"/>
	<circle cx="69" cy="97.2" r="13.2"/>
	<circle cx="70" cy="443.5" r="13.2"/>
</g>
</svg>
