<?xml version="1.0" encoding="utf-8"?>
<!-- Generator: Adobe Illustrator 21.1.0, SVG Export Plug-In . SVG Version: 6.00 Build 0)  -->
<svg version="1.1" id="Layer_5" xmlns="http://www.w3.org/2000/svg" xmlns:xlink="http://www.w3.org/1999/xlink" x="0px" y="0px"
	 viewBox="0 0 478 512" style="enable-background:new 0 0 478 512;" xml:space="preserve">
<g id="_x35_2">
	<path d="M191.8,388.7h-59.2c-20.9,0-37.9-17-37.9-37.9V161.1c0.9-0.4,1.6-0.7,2.2-1.1c23.6-10.7,40.1-34.4,40.1-62
		c0-37.6-30.4-68-68-68S1,60.4,1,98c0,26.8,15.5,50,38.1,61.1c0.6,0.6,1.8,1.3,3.5,2v189.8c0,49.6,40.4,90,90,90h59.2v70.6
		l96.7-96.7L191.8,318V388.7z M69,58.1c22.1,0,39.9,17.9,39.9,39.9c0,22.1-17.9,39.9-39.9,39.9c-22.1,0-39.9-17.9-39.9-39.9
		C29.1,75.9,46.9,58.1,69,58.1z"/>
	<path d="M439.3,353.6c-0.6-0.7-1.8-1.4-3.7-2.2V161.7c0-49.6-40.4-90-90-90h-59.2V1.1l-96.7,96.7l96.7,96.7v-70.6h59.2
		c20.9,0,37.9,17,37.9,37.9v189.8c-2.4,1-3.7,1.9-4,2.7C357.3,365.4,342,388.4,342,415c0,37.6,30.4,68,68,68s68-30.4,68-68
		C478,387.9,462.2,364.6,439.3,353.6z M410,454.9c-22.1,0-39.9-17.9-39.9-39.9c0-22.1,17.9-39.9,39.9-39.9
		c22.1,0,39.9,17.9,39.9,39.9C449.9,437.1,432.1,454.9,410,454.9z"/>
	<path d="M69,111.2c-7.3,0-13.2-5.9-13.2-13.2c0-7.3,5.9-13.2,13.2-13.2S82.2,90.7,82.2,98C82.2,105.3,76.3,111.2,69,111.2z"/>
	<path d="M410,428.2c-7.3,0-13.2-5.9-13.2-13.2c0-7.3,5.9-13.2,13.2-13.2s13.2,5.9,13.2,13.2C423.2,422.3,417.3,428.2,410,428.2z"/>
</g>
</svg>
