<?xml version="1.0" encoding="utf-8"?>
<!-- Generator: Adobe Illustrator 21.1.0, SVG Export Plug-In . SVG Version: 6.00 Build 0)  -->
<svg version="1.1" id="Layer_1" xmlns="http://www.w3.org/2000/svg" xmlns:xlink="http://www.w3.org/1999/xlink" x="0px" y="0px"
	 viewBox="0 0 512 512" style="enable-background:new 0 0 512 512;" xml:space="preserve">
<path d="M498.6,217.3l-33.8-7.3c-3.7-0.8-7.4-0.3-10.6,1.1c-5.3-22.9-14.4-44.3-26.7-63.4c3.4-1.2,6.5-3.5,8.7-6.8l18.8-29.1
	c4.3-6.7,3.4-15.6-2.3-21.2l-31.2-31.2c-5.7-5.6-14.5-6.6-21.2-2.3l-29.1,18.8c-3.6,2.3-5.9,5.6-7,9.3c-19.4-12.1-40.9-21-64-26
	c2-3.5,2.8-7.7,1.8-12l-7.3-33.8C293,5.6,286.1,0,278.1,0h-44.2c-8,0-14.9,5.6-16.6,13.4L210,47.2c-1,4.5-0.1,8.9,2.1,12.4
	c-23,5.2-44.6,14.4-63.9,26.8c-0.9-4.2-3.4-8-7.3-10.5l-29.1-18.8c-6.7-4.3-15.6-3.4-21.2,2.3L59.4,90.6c-5.7,5.7-6.6,14.5-2.3,21.2
	l18.8,29.1c2.6,4,6.5,6.5,10.7,7.4c-12.3,19.3-21.5,40.9-26.7,64c-3.6-2.3-8.1-3.2-12.6-2.2l-33.8,7.3C5.6,219,0,225.9,0,233.9v44.2
	c0,8,5.6,14.9,13.4,16.6l33.8,7.3c4.4,1,8.8,0.1,12.3-2c5,23.1,13.9,44.7,26.1,64c-3.8,1-7.4,3.4-9.8,7.1l-18.8,29.1
	c-4.3,6.7-3.4,15.6,2.3,21.2l31.2,31.2c5.6,5.7,14.5,6.6,21.2,2.3l29.1-18.8c3.5-2.3,5.8-5.5,7-9.1c19.2,12.3,40.6,21.5,63.5,26.8
	c-1.6,3.3-2.1,7.1-1.3,11l7.3,33.8c1.7,7.8,8.6,13.4,16.6,13.4h44.2c8,0,14.9-5.6,16.6-13.4l7.3-33.8c0.8-3.7,0.3-7.3-1.1-10.5
	c22.9-5.1,44.4-14,63.7-26.1c1.2,3.1,3.4,5.9,6.6,8l29.1,18.8c6.7,4.3,15.6,3.4,21.2-2.3l31.2-31.2c5.7-5.7,6.6-14.5,2.3-21.2
	l-18.8-29.1c-2-3.1-4.8-5.3-7.9-6.5c12.2-19.3,21.2-40.7,26.3-63.6c3.1,1.3,6.6,1.8,10.3,1l33.8-7.3c7.8-1.7,13.4-8.6,13.4-16.6
	v-44.2C512,225.9,506.4,219,498.6,217.3z M257.1,378.8c-67.4,0-122-54.6-122-122c0-67.3,54.6-122,122-122c67.3,0,122,54.6,122,122
	C379.1,324.2,324.5,378.8,257.1,378.8z"/>
</svg>
