<?xml version="1.0" encoding="utf-8"?>
<!-- Generator: Adobe Illustrator 21.1.0, SVG Export Plug-In . SVG Version: 6.00 Build 0)  -->
<svg version="1.1" id="Layer_2" xmlns="http://www.w3.org/2000/svg" xmlns:xlink="http://www.w3.org/1999/xlink" x="0px" y="0px"
	 viewBox="0 0 520 512" style="enable-background:new 0 0 520 512;" xml:space="preserve">
<path d="M260,0C116.4,0,0,102.5,0,228.9c0,62.4,28.4,119,74.4,160.3C97.5,409.9,54.3,512,54.3,512s153.5-57.5,182-55.2
	c7.8,0.6,15.7,0.9,23.7,0.9c143.6,0,260-102.5,260-228.9C520,102.5,403.6,0,260,0z M261,404.3c-6.5,0-12.8-0.3-19.1-0.7
	c-23-1.8-119.4,38.5-119.4,38.5s12-69.8-6.7-86C78.5,323.8,51,279.6,51,230.8C51,132,145,52,261,52s210,80,210,178.8
	C471,329.5,377,404.3,261,404.3z"/>
</svg>
