<?xml version="1.0" encoding="utf-8"?>
<!-- Generator: Adobe Illustrator 21.1.0, SVG Export Plug-In . SVG Version: 6.00 Build 0)  -->
<svg version="1.1" id="Layer_2" xmlns="http://www.w3.org/2000/svg" xmlns:xlink="http://www.w3.org/1999/xlink" x="0px" y="0px"
	 viewBox="0 0 520 512" style="enable-background:new 0 0 520 512;" xml:space="preserve">
<g>
	<path d="M260,0.5C116.4,0.5,0,103,0,229.4c0,62.4,28.4,119,74.4,160.3c23.1,20.7-20.1,122.8-20.1,122.8s153.5-57.5,182-55.2
		c7.8,0.6,15.7,0.9,23.7,0.9c143.6,0,260-102.5,260-228.9C520,103,403.6,0.5,260,0.5z M261,404.8c-6.5,0-12.8-0.3-19.1-0.7
		c-23-1.8-119.4,38.5-119.4,38.5s12-69.8-6.7-86C78.5,324.3,51,280.1,51,231.3c0-98.8,94-178.8,210-178.8s210,80,210,178.8
		C471,330,377,404.8,261,404.8z"/>
	<circle cx="151" cy="227.5" r="36"/>
	<circle cx="268" cy="227.5" r="36"/>
	<circle cx="385" cy="227.5" r="36"/>
</g>
</svg>
