<?xml version="1.0" encoding="utf-8"?>
<!-- Generator: Adobe Illustrator 21.1.0, SVG Export Plug-In . SVG Version: 6.00 Build 0)  -->
<svg version="1.1" id="Layer_2" xmlns="http://www.w3.org/2000/svg" xmlns:xlink="http://www.w3.org/1999/xlink" x="0px" y="0px"
	 viewBox="0 0 520 512" style="enable-background:new 0 0 520 512;" xml:space="preserve">
<g>
	<path d="M260,0C116.4,0,0,102.5,0,228.9c0,62.4,28.4,119,74.4,160.3C97.5,409.9,54.3,512,54.3,512s153.5-57.5,182-55.2
		c7.8,0.6,15.7,0.9,23.7,0.9c143.6,0,260-102.5,260-228.9C520,102.5,403.6,0,260,0z M261,404.3c-6.5,0-12.8-0.3-19.1-0.7
		c-23-1.8-119.4,38.5-119.4,38.5s12-69.8-6.7-86C78.5,323.8,51,279.6,51,230.8C51,132,145,52,261,52s210,80,210,178.8
		C471,329.5,377,404.3,261,404.3z"/>
	<path d="M271.8,336.4v11.8h-21.6v-11.7c-31-2.4-58.6-23.2-58.6-63h37.7c0,17.6,7.5,27.9,20.8,31.7v-64.8c-38-16.2-55-36.2-55-61.7
		c0-29.5,24.8-53.1,55-53.1v-9.1h21.6v9.2c26.4,1.7,58.1,16.5,58.1,56.3h-37.7c-1.7-16-8.5-24.7-20.3-25.9v50.9l20.8,9.2
		c33.8,16.2,46.5,35.7,46.5,61.5C339.2,311.9,310.5,336.4,271.8,336.4z M271.8,249.6v56.9c15.3,0,30.1-9.5,30.1-25.2
		C301.9,267.9,291.9,257.4,271.8,249.6z M233.1,174.2c0,8.5,5.7,16,17.3,23v-41C238.8,158.2,233.1,164.3,233.1,174.2z"/>
</g>
</svg>
