<?xml version="1.0" encoding="utf-8"?>
<!-- Generator: Adobe Illustrator 22.0.1, SVG Export Plug-In . SVG Version: 6.00 Build 0)  -->
<svg version="1.1" id="Layer_3" xmlns="http://www.w3.org/2000/svg" xmlns:xlink="http://www.w3.org/1999/xlink" x="0px" y="0px"
	 viewBox="0 0 512 512" style="enable-background:new 0 0 512 512;" xml:space="preserve">
<g id="_x35_2">
	<path d="M459.9,328.5H231.8l-101.5,97.7l11.7-97.7H52.1V51.3h407.8V328.5z M33.2-0.7C14.9-0.7,0.1,14.1,0.1,32.4v315
		c0,18.3,14.8,33.1,33.1,33.1h50.2L72,475.7c-2.5,20.9,14.3,35.9,32,35.9c7.6,0,15.4-2.8,21.9-9l126.8-122h226
		c18.3,0,33.1-14.8,33.1-33.1v-315c0-18.3-14.8-33.1-33.1-33.1H33.2V-0.7z"/>
	<path d="M259,242.1c-19.4,0-35.1,15.6-35.1,34.9s15.7,34.9,35.1,34.9s35.1-15.6,35.1-34.9C294,257.8,278.4,242.1,259,242.1z
		 M221.3,116.8l19.3,93.2c1.8,8.7,9.5,14.8,18.3,14.8h0c8.7-0.1,16.2-6.2,17.9-14.7l19.6-93.2c4.3-23.5-13.7-45.1-37.6-45.1h0
		C235.1,71.7,217.1,93.3,221.3,116.8z"/>
</g>
</svg>
