<?xml version="1.0" encoding="utf-8"?>
<!-- Generator: Adobe Illustrator 22.0.1, SVG Export Plug-In . SVG Version: 6.00 Build 0)  -->
<svg version="1.1" id="Layer_1" xmlns="http://www.w3.org/2000/svg" xmlns:xlink="http://www.w3.org/1999/xlink" x="0px" y="0px"
	 viewBox="0 0 637.4 512" style="enable-background:new 0 0 637.4 512;" xml:space="preserve">
<g id="_x35_2">
	<path d="M361.1,408c-13.9,2.4-28,3.7-42.2,3.7c-8.2,0-16.1-0.6-23.1-1.2c-6.1-0.5-11.2-0.8-16.2-0.8c-5.8,0-10.8,0.5-15.6,1.7
		c-7,1.7-17.9,4.5-30.6,7.8c-12.7,3.3-27.3,7-41.8,10.8c1.6-7.5,2.8-13.1,3.3-15.2l6.1-28.2l-22.4-18.3
		c-23.3-19-39.7-38.1-50.5-58.5c-10.4-19.7-15.5-40.7-15.5-64.5c0-10,1-19.7,2.9-29.2L75,184.4c-6.4,19-9.8,39.4-9.8,60.9
		c0,63.4,28.2,114.3,83.4,159.5c-2,9.2-19.4,90.3-19.4,90.3s114.4-29.9,146.1-37.7c1-0.3,2.4-0.4,4.3-0.4c7.9,0,22.5,2,39.4,2
		c30.8,0,61.1-4.9,89.5-14L361.1,408z"/>
	<path d="M625.1,455.5L520.9,374c31.2-34.8,50.3-78.7,50.3-128.8c0-126.7-119.5-213.7-253-213.7c-62.8,0-122.5,19.2-168.1,52.8
		L50.8,6.6C45,2.2,38.2,0.1,31.5,0.1c-9.4,0-18.8,4.2-25,12.3c-10.6,13.8-8.1,33.5,5.7,44.2l574.4,448.8
		c13.8,10.6,33.5,8.1,44.2-5.7C641.5,485.9,638.9,466.1,625.1,455.5z M237.6,91.9c25.7-8.7,52.9-13,80.7-13c27.9,0,55,4.4,80.8,13
		c25,8.4,47.3,20.5,66.2,35.8c18.7,15.1,33.2,32.7,43.3,52.2c10.3,20.2,15.6,42.2,15.6,65.4c-0.2,23-5.5,44.9-15.9,65.1
		c-6.4,12.3-14.6,23.9-24.6,34.5L442,312.3c16.3-19,26.2-42,26.2-67.3c-0.1-68.4-70.7-119.8-149.9-119.8c-31.8,0-62.3,8-87.3,22.1
		l-41.7-32.6C203.9,105.5,220.1,97.8,237.6,91.9z M318.3,172.6c28.2,0,55.8,8.9,75.7,24.3c12.3,9.5,26.9,25.6,26.9,48.2
		c0,16.1-7.9,29-16.2,38.2l-131.8-103C286.8,175.2,302.4,172.6,318.3,172.6z"/>
	<path d="M169.2,258C177,317,238,360.2,306,364.9L169.2,258z"/>
</g>
</svg>
