<?xml version="1.0" encoding="utf-8"?>
<!-- Generator: Adobe Illustrator 21.1.0, SVG Export Plug-In . SVG Version: 6.00 Build 0)  -->
<svg version="1.1" id="Layer_2" xmlns="http://www.w3.org/2000/svg" xmlns:xlink="http://www.w3.org/1999/xlink" x="0px" y="0px"
	 viewBox="0 0 520 512" style="enable-background:new 0 0 520 512;" xml:space="preserve">
<g>
	<path d="M260,0C116.4,0,0,102.5,0,228.9c0,62.4,28.4,119,74.4,160.3C97.5,409.9,54.3,512,54.3,512s153.5-57.5,182-55.2
		c7.8,0.6,15.7,0.9,23.7,0.9c143.6,0,260-102.5,260-228.9C520,102.5,403.6,0,260,0z M261,404.3c-6.5,0-12.8-0.3-19.1-0.7
		c-23-1.8-119.4,38.5-119.4,38.5s12-69.8-6.7-86C78.5,323.8,51,279.6,51,230.8C51,132,145,52,261,52s210,80,210,178.8
		C471,329.5,377,404.3,261,404.3z"/>
	<path d="M261.4,304c-19.4,0-35.1,15.6-35.1,34.9c0,19.3,15.7,34.9,35.1,34.9c19.4,0,35.1-15.6,35.1-34.9
		C296.4,319.7,280.8,304,261.4,304z M291.7,95.3c-6.7-7.8-16.5-11.7-29.1-11.7c-12.8,0-23,3.6-30.3,10.8c-7.3,7-11.1,15.9-11.1,26.1
		c0,1.5,0,5.7,9.9,69c11.4,68.6,13,84.7,13,88.3c0,6.4,0.5,9.1,2.2,11c2.2,2.6,5.9,3,8.8,3h12.3c2.7,0,6.5-0.4,8.9-3.1
		c1.7-2,2.2-4.9,2.2-12.2c0.1-5.1,3.3-25.9,9.3-61.7c13.9-83.2,13.9-90.5,13.9-92.9C301.7,111.8,298.3,103,291.7,95.3z"/>
</g>
</svg>
