<?xml version="1.0" encoding="utf-8"?>
<!-- Generator: Adobe Illustrator 21.1.0, SVG Export Plug-In . SVG Version: 6.00 Build 0)  -->
<svg version="1.1" id="Layer_2" xmlns="http://www.w3.org/2000/svg" xmlns:xlink="http://www.w3.org/1999/xlink" x="0px" y="0px"
	 viewBox="0 0 520 512" style="enable-background:new 0 0 520 512;" xml:space="preserve">
<g>
	<path d="M300.6,376.9c-12.8,2.3-26,3.5-39.8,3.5c-6.1,0-11.9-0.3-16.2-0.6c-17.6-1.3-77.6,22.3-98.7,30.9
		c2.4-17.2,6.3-58.6-8.2-71.1c-35.3-30.6-54.7-68-54.7-105.5c0-20.4,4.8-39.9,13.5-57.7L57.3,138c-17.3,28.8-26.5,61-26.5,94.6
		c0,53.4,23.3,103.7,65.8,141.8c13,11.7-4.4,68.6-18.4,101.8l-3.6,8.6l8.7-3.3c36.7-13.8,136.3-49.1,155.9-47.6
		c6.8,0.5,13.8,0.8,20.8,0.8c29.6,0,58.3-4.9,84.9-14.3L300.6,376.9z M76.3,111.7C76.3,111.7,76.3,111.7,76.3,111.7l27.7,27.3
		L76.3,111.7z"/>
	<path d="M512.1,467.6l-92-90.5c0.6-0.5,1.2-1,1.7-1.5c43.4-38.2,67.3-89,67.3-143.1C489.1,121,386.3,30.3,260,30.3
		c-53.7,0-104.6,16.2-145.5,46L44.7,7.6c-5.1-5-11.6-7.5-18.2-7.5c-6.7,0-13.3,2.5-18.4,7.6C-2.1,18-2.1,34.6,8.2,44.7l68.1,67
		l27.7,27.3l371.7,365.8c10.2,10,26.5,9.9,36.6-0.2C522.4,494.3,522.4,477.8,512.1,467.6z M260.9,83.4c98,0,177.8,67.7,177.8,150.8
		c0,42.6-21.1,80.4-55.3,106.8L153.1,114.3C183,94.9,220.4,83.4,260.9,83.4z"/>
</g>
</svg>
