<?xml version="1.0" encoding="utf-8"?>
<!-- Generator: Adobe Illustrator 22.0.1, SVG Export Plug-In . SVG Version: 6.00 Build 0)  -->
<svg version="1.1" id="Layer_1" xmlns="http://www.w3.org/2000/svg" xmlns:xlink="http://www.w3.org/1999/xlink" x="0px" y="0px"
	 viewBox="0 0 512 512" style="enable-background:new 0 0 512 512;" xml:space="preserve">
<style type="text/css">
	.st0{fill:#010101;}
</style>
<g id="_x35_2">
	<path class="st0" d="M256,100c-86.2,0-156,69.8-156,156s69.8,156,156,156s156-69.8,156-156S342.2,100,256,100z M256,360
		c-57.4,0-104-46.6-104-104s46.6-104,104-104s104,46.6,104,104S313.4,360,256,360z"/>
	<path class="st0" d="M256,219c-20.4,0-37,16.6-37,37s16.6,37,37,37s37-16.6,37-37S276.4,219,256,219z"/>
	<path class="st0" d="M256,0C114.6,0,0,114.6,0,256s114.6,256,256,256s256-114.6,256-256S397.4,0,256,0z M256,461
		c-113.2,0-205-91.8-205-205S142.8,51,256,51s205,91.8,205,205S369.2,461,256,461z"/>
	<path d="M111.4,364.7c4.7-2.6,6.1-8.7,3-13.2c-19.6-28.5-29.9-61.1-29.9-94.9c0-18,2.9-35.7,8.7-52.7c1.7-5-1.1-10.3-6.2-11.7
		l-0.6-0.2c-4.6-1.3-9.5,1.2-11.1,5.8c-6.6,18.9-9.9,38.7-9.9,58.8c0,37.7,11.7,74,34,105.3C102.2,365.8,107.3,367,111.4,364.7
		L111.4,364.7z"/>
</g>
</svg>
