<?xml version="1.0" encoding="utf-8"?>
<!-- Generator: Adobe Illustrator 21.1.0, SVG Export Plug-In . SVG Version: 6.00 Build 0)  -->
<svg version="1.1" id="Layer_1" xmlns="http://www.w3.org/2000/svg" xmlns:xlink="http://www.w3.org/1999/xlink" x="0px" y="0px"
	 viewBox="0 0 512 512" style="enable-background:new 0 0 512 512;" xml:space="preserve">
<g>
	<g>
		<path d="M394.7,89.7l-87.5,87.5l0.3-76h-41l1.1,145.2h145.7v-41h-76.4l86.7-86.8L394.7,89.7z M462,0.5H50c-27.6,0-50,22.4-50,50
			v412c0,27.6,22.4,50,50,50h412c27.6,0,50-22.4,50-50v-412C512,22.9,489.6,0.5,462,0.5z M460,448.5c0,9.9-2,12-12,12
			c-2.4,0-382.6,0-384,0c-10,0-12-2.1-12-12c0-0.6,0-380,0-384c0-10,2-12,12-12c6,0,377.4,0,384,0c10,0,12,2,12,12
			C460,65.8,460,446.5,460,448.5z M99.9,268.5l-0.1,41l76.3-0.1l-86.8,87l28.8,28.8l87.6-87.6l-0.5,76l41-0.1l-0.7-145.3L99.9,268.5
			z"/>
	</g>
</g>
</svg>
