<?xml version="1.0" encoding="utf-8"?>
<!-- Generator: Adobe Illustrator 21.1.0, SVG Export Plug-In . SVG Version: 6.00 Build 0)  -->
<svg version="1.1" id="Layer_1" xmlns="http://www.w3.org/2000/svg" xmlns:xlink="http://www.w3.org/1999/xlink" x="0px" y="0px"
	 viewBox="0 0 638.8 512" style="enable-background:new 0 0 638.8 512;" xml:space="preserve">
<style type="text/css">
	.st0{fill:#010101;}
</style>
<g id="_x35_2">
	<path class="st0" d="M420.5,428.6C389,448.5,351.7,460,311.7,460c-112.7,0-204-91.3-204-204c0-20.9,3.1-41,9-60l-43.5-33.3
		c-11.3,28.9-17.5,60.3-17.5,93.2c0,141.4,114.6,256,256,256c57,0,109.7-18.7,152.3-50.2L420.5,428.6z"/>
	<path class="st0" d="M224.9,278.9c-17.3,35.2-33.5,74.2-42.2,95.9c-2.6,6.5,3.8,12.9,10.3,10.3c24.2-9.7,69.8-28.7,107.8-48.2
		L224.9,278.9z"/>
	<path class="st0" d="M531.4,387.5c23-38.4,36.3-83.4,36.3-131.5c0-141.4-114.6-256-256-256c-71.2,0-135.6,29.1-182,76L31.6,0
		L0,41.3L607.2,512l31.6-41.3L531.4,387.5z M430.5,127c-33.1,13.3-106.5,44.1-145.4,69.5l-114-88.3C207.7,73.3,257.2,52,311.7,52
		c112.7,0,204,91.3,204,204c0,36.1-9.3,69.9-25.8,99.3l-110.6-85.7c23.5-40.6,49.5-102.6,61.4-132.3
		C443.3,130.8,436.9,124.4,430.5,127z"/>
</g>
</svg>
