<?xml version="1.0" encoding="utf-8"?>
<!-- Generator: Adobe Illustrator 21.1.0, SVG Export Plug-In . SVG Version: 6.00 Build 0)  -->
<svg version="1.1" id="Layer_2_1_" xmlns="http://www.w3.org/2000/svg" xmlns:xlink="http://www.w3.org/1999/xlink" x="0px" y="0px"
	 viewBox="0 0 550 512" style="enable-background:new 0 0 550 512;" xml:space="preserve">
<path d="M497.8,18.6H201.3l0.2,51.7h275.2c12.7,0,23,10.3,23,23v257.1c0,12.7-10.3,23-23,23H201.5v56.2h46.1l-41,41h-5l-1.1,25.2
	h171.8v-15.1c0-5.6-4.5-10.1-10.1-10.1h-31.1l-41.9-41h208.6c28.8,0,52.2-23.4,52.2-52.2V70.8C550,42,526.6,18.6,497.8,18.6z"/>
<path d="M134.6,119.5H58.4v31.3h76.2V119.5z M0.1,22.5v474h195v-474c0-3.3-2.6-5.9-5.9-5.9H6C2.7,16.6,0.1,19.2,0.1,22.5z
	 M167.1,485.6L28,486.4v-435c0-3.3,2.6-5.9,5.9-5.9l127.2-0.8c3.3,0,5.9,2.6,5.9,5.9L167.1,485.6L167.1,485.6z M134.6,171.7H58.4
	V203h76.2V171.7z M104.8,327.3c-2.4,2-4.9,3-7.6,3c-3,0-5.7-1-8.1-3c-2-2.3-3-4.8-3-7.5c0-3,1-5.5,3-7.5c2.3-2.3,5-3.5,8.1-3.5
	c2.7,0,5.2,1.2,7.6,3.5c2,2,3,4.5,3,7.5C107.8,322.5,106.8,324.9,104.8,327.3z M109.9,276c-3.7,3.3-7.9,5-12.6,5s-8.9-1.7-12.6-5
	c-3.4-3.3-5-7.5-5-12.4c0-4.6,1.7-8.6,5-11.9c3.7-3.7,7.9-5.5,12.6-5.5s8.9,1.8,12.6,5.5c3.3,3.3,5,7.3,5,11.9
	C114.9,268.6,113.2,272.7,109.9,276z M145.2,214.5H47.8V108.1h97.4V214.5z"/>
</svg>
