<?xml version="1.0" encoding="utf-8"?>
<!-- Generator: Adobe Illustrator 21.1.0, SVG Export Plug-In . SVG Version: 6.00 Build 0)  -->
<svg version="1.1" id="Layer_1" xmlns="http://www.w3.org/2000/svg" xmlns:xlink="http://www.w3.org/1999/xlink" x="0px" y="0px"
	 viewBox="0 0 511 512" style="enable-background:new 0 0 511 512;" xml:space="preserve">
<g>
	<path d="M37.2,0.6L0.5,37.4l133.6,133.7h-58l0.5,52.3l145.8-0.4V77.3h-41L170.1,77l0.7,57.3L37.2,0.6z M288.9,434.7h40.9l11.3,0.3
		l-0.7-57.2L474,511.4l36.7-36.7L377.1,341.1H435l-0.5-52.2l-145.7,0.3L288.9,434.7z"/>
	<path d="M0.2,474.4L37,511.1l133.7-133.6v58l52.3-0.5l-0.4-145.8H76.9v41l-0.3,11.3l57.3-0.7L0.2,474.4z M434.3,222.7v-40.9
		l0.3-11.3l-57.2,0.7L511,37.6L474.3,0.9L340.7,134.5V76.6l-52.2,0.5l0.3,145.7L434.3,222.7z"/>
</g>
</svg>
