<?xml version="1.0" encoding="utf-8"?>
<!-- Generator: Adobe Illustrator 22.0.1, SVG Export Plug-In . SVG Version: 6.00 Build 0)  -->
<svg version="1.1" id="Layer_1" xmlns="http://www.w3.org/2000/svg" xmlns:xlink="http://www.w3.org/1999/xlink" x="0px" y="0px"
	 viewBox="0 0 590 512" style="enable-background:new 0 0 590 512;" xml:space="preserve">
<style type="text/css">
	.st0{fill:#010101;}
</style>
<g>
	<polygon class="st0" points="502.1,129.1 502.1,38.4 454.9,38.4 454.9,129.1 367.7,129.1 367.7,177.8 454.9,177.8 454.9,268.4 
		502.1,268.4 502.1,177.8 589.3,177.8 589.3,129.1 	"/>
	<path class="st0" d="M350.4,437.9V127H146v301.8C89.5,392.6,52,329.2,52,257c0-112.7,91.3-204,204-204c25.2,0,49.3,4.5,71.5,12.9
		l7.4-18.6l11.8-29.8C318.5,6.8,287.9,1,256,1C114.6,1,0,115.6,0,257s114.6,256,256,256c118.6,0,218.3-80.6,247.4-190h-54.3
		C432.1,372.8,396.4,413.8,350.4,437.9z M281.4,182.8h37.8v39.8h-37.8V182.8z M281.4,241.4h37.8v39.8h-37.8V241.4z M281.4,300.1
		h37.8v39.8h-37.8V300.1z M229.3,182.8h37.8v39.8h-37.8V182.8z M229.3,241.4h37.8v39.8h-37.8V241.4z M229.3,300.1h37.8v39.8h-37.8
		V300.1z M176.6,182.8h37.8v39.8h-37.8V182.8z M176.6,241.4h37.8v39.8h-37.8V241.4z M176.6,300.1h37.8v39.8h-37.8V300.1z
		 M209.1,455.6v-19.1c-0.3-23.3,17.4-42.2,39.1-42.2c21.7,0,39.3,18.9,39.7,42.2v22c-10.4,1.6-21.1,2.5-31.9,2.5
		C239.9,461,224.2,459.1,209.1,455.6z"/>
</g>
</svg>
