<?xml version="1.0" encoding="utf-8"?>
<!-- Generator: Adobe Illustrator 22.0.1, SVG Export Plug-In . SVG Version: 6.00 Build 0)  -->
<svg version="1.1" id="Layer_1" xmlns="http://www.w3.org/2000/svg" xmlns:xlink="http://www.w3.org/1999/xlink" x="0px" y="0px"
	 viewBox="0 0 561.6 512" style="enable-background:new 0 0 561.6 512;" xml:space="preserve">
<g id="_x35_2">
	<g>
		<rect x="0.3" y="453.7" width="560.3" height="58.3"/>
	</g>
	<path d="M342.1,126.2V91.8c0,0,0,0,0,0s0,0,0,0v0h0c-0.1-2.3-18.3-4.2-43.5-4.9V49h43.5c0-28.5-27.8-49-62.1-49
		c-34.4,0-62.1,20.4-62.1,49h43.5v37.9c-25.2,0.7-43.4,2.6-43.5,4.9h0v34.5C106,158.9,22.2,273.6,22.2,416.3h516.6
		C538.8,273.6,453.9,158.9,342.1,126.2z M122.7,270.7c13.6-19.7,29.9-36.7,48.4-50.5c18.7-13.9,39.1-24.2,60.8-30.5l42.9-12.5v-19.9
		h10.3v19.9l42.9,12.5c43.2,12.6,82.2,41.4,109.8,81.2c16.7,24,28.8,51,36.1,80h-387C94.1,321.8,106.1,294.7,122.7,270.7z"/>
</g>
</svg>
