<?xml version="1.0" encoding="utf-8"?>
<!-- Generator: Adobe Illustrator 21.1.0, SVG Export Plug-In . SVG Version: 6.00 Build 0)  -->
<svg version="1.1" id="Layer_1" xmlns="http://www.w3.org/2000/svg" xmlns:xlink="http://www.w3.org/1999/xlink" x="0px" y="0px"
	 viewBox="0 0 512 512" style="enable-background:new 0 0 512 512;" xml:space="preserve">
<g>
	<path d="M256,0C114.6,0,0,114.6,0,256s114.6,256,256,256s256-114.6,256-256S397.4,0,256,0z M256,460.1c-112.6,0-204-91.4-204-204
		s91.4-204,204-204s204,91.4,204,204S368.6,460.1,256,460.1z"/>
	<path d="M332.8,237.4c16.7,0,30.2-16.7,30.2-37.2s-13.6-37.2-30.2-37.2c-16.7,0-30.2,16.7-30.2,37.2
		C302.5,220.8,316,237.4,332.8,237.4z"/>
	<path d="M179.2,237.4c16.7,0,30.2-16.7,30.2-37.2s-13.6-37.2-30.2-37.2c-16.7,0-30.2,16.7-30.2,37.2
		C148.9,220.8,162.4,237.4,179.2,237.4z"/>
	<path d="M261.8,360.9l-8.9,1.6c-17.4,3.1-31.6-12.5-45.4-27.5l0,0c-13.6-14.9-32.3-35.3-54.8-21.3l-7.6,4.8l18.6,29.7l4.7-2.9
		c3.5,2.7,9.4,9.2,13.2,13.4c15.2,16.6,35.9,39.4,66.5,39.4c0,0,0,0,0,0c3.6,0,7.3-0.3,10.8-1l8.8-1.6L261.8,360.9z"/>
</g>
</svg>
