<?xml version="1.0" encoding="utf-8"?>
<!-- Generator: Adobe Illustrator 22.0.1, SVG Export Plug-In . SVG Version: 6.00 Build 0)  -->
<svg version="1.1" id="Layer_2" xmlns="http://www.w3.org/2000/svg" xmlns:xlink="http://www.w3.org/1999/xlink" x="0px" y="0px"
	 viewBox="0 0 577.4 512" style="enable-background:new 0 0 577.4 512;" xml:space="preserve">
<g id="_x35_2_1_">
	<ellipse cx="300.4" cy="231.1" rx="23.7" ry="23.7"/>
	<path d="M576,496.5L297.2,5c-3.8-6.6-13.3-6.6-17.1,0L1.4,496.5c-1.8,3.2-1.8,7.1,0,10.3s5.2,5.2,8.8,5.2h557.1c3.6,0,7-2,8.8-5.2
		S577.8,499.7,576,496.5z M226.8,460c1-1,1.8-2.2,2.4-3.5c6-13.2,18.4-40.3,21.7-46.8c3.3-6.9,6.1-14.2,4.7-24.7
		c6.9,8.6,7.4,17.5,10,23.1c0.4,2.6-0.2,27.3-0.7,43c-0.1,3.5,1.3,6.7,3.5,9H226.8z M218,305.6c8.2-12,18.6-27.1,19.8-28.1
		c2.3-0.3,0.4-1.1,7.3-0.1c-4.8,5.4-10.3,23.2-13.9,35.5L218,305.6z M291,396.5c-1.6-3.6-8.9-22.8-22.5-38c0.2-0.6,1.7-4.9,4-10.9
		l26.6,14.7l3.2,1.8l42.6,23.6l-7.2,13.5c0,0.1-0.1,0.2-0.1,0.3c-0.6,1.5,0.5,3.6,2.6,4.7c5.1,2.9,10.2,5.3,15.1,7.2
		c-3.2,5.2-5.8,11-7.7,17.3c-17-2.4-30.3,11.4-34.4,29.3h-26.4c2.1-2.1,3.4-5.1,3.5-8.3C290.8,432.8,291.6,398,291,396.5z
		 M290.5,329.7c0.2,1.1,1.6,9.4,3,17.8l-17.5-9.7c5.4-14.5,12.3-32.2,15.1-37.3C291.2,303.1,289.9,325,290.5,329.7z M446.5,460
		c0-2,0-4.4,0-6c-0.5-36.4-23.3-65.8-51.3-65.8c-2.3,0-4.5,0.2-6.7,0.6c-7.5-8.1-17.1-15.7-28.1-22c-0.9-0.5-1.8-0.8-2.5-0.8
		c-0.9,0-1.6,0.3-2,1l-6.1,11.5l-34.4-19c1.4-2.3,1.9-5.2,1.4-8.5c-1.5-9.3-3.2-22.2-3.9-26c-0.3-1.3-0.6-13.2-0.3-16.5
		c1.3-13.9,2.1-31.4-15.9-42.4l-19.8-9.3c-22.2-9.3-30.6-8.6-40.5-5c-1.7,0.6-7.2,2.6-16.1,12.7c-1.9,2.1-16.4,22.4-24.8,34
		c-3.6,5-2.5,12.1,2.5,15.7c2,1.5,4.3,2.2,6.7,2.2c2.6,0,5.1-0.9,7.2-2.5l16.4,9.1c-0.2,0.7-0.4,1.2-0.6,1.6
		c-7.3,17.2-2.7,36.9,0,54.1c1,5.9,2,13.9,1.7,16.9c-2.6,5.2-14.5,32.5-22.4,50.9c-2.1,4.9-0.8,10.1,2.5,13.5H81.8L288.7,95.1
		L495.5,460H446.5z"/>
</g>
</svg>
