<?xml version="1.0" encoding="utf-8"?>
<!-- Generator: Adobe Illustrator 21.1.0, SVG Export Plug-In . SVG Version: 6.00 Build 0)  -->
<svg version="1.1" id="Layer_1" xmlns="http://www.w3.org/2000/svg" xmlns:xlink="http://www.w3.org/1999/xlink" x="0px" y="0px"
	 viewBox="0 0 512 512" style="enable-background:new 0 0 512 512;" xml:space="preserve">
<style type="text/css">
	.st0{fill:#000002;}
</style>
<g id="_x35_2">
	<path class="st0" d="M164.5,333.1c33.3,0,61.7-21.1,72.4-50.7H512v-52H237c-10.6-29.8-39.1-51.2-72.5-51.2s-61.9,21.4-72.5,51.2H0
		v52h92.1C102.8,311.9,131.2,333.1,164.5,333.1z M164.5,228c15.5,0,28.1,12.6,28.1,28.1s-12.6,28.1-28.1,28.1s-28.1-12.6-28.1-28.1
		S148.9,228,164.5,228z"/>
	<path class="st0" d="M351.5,153.9c33.4,0,61.8-21.3,72.5-51H512V51h-88.1c-10.7-29.7-39.1-51-72.5-51S289.7,21.3,279,51H0v52h279
		C289.7,132.7,318.1,153.9,351.5,153.9z M351.5,48.9c15.5,0,28.1,12.6,28.1,28.1c0,15.5-12.6,28.1-28.1,28.1S323.4,92.5,323.4,77
		C323.4,61.5,335.9,48.9,351.5,48.9z"/>
	<path class="st0" d="M279,461c10.7,29.7,39.1,51,72.5,51s61.8-21.3,72.5-51H512v-52h-88.1c-10.7-29.7-39.1-51-72.5-51
		s-61.8,21.3-72.5,51H0v52H279z M351.5,406.9c15.5,0,28.1,12.6,28.1,28.1c0,15.5-12.6,28.1-28.1,28.1s-28.1-12.6-28.1-28.1
		C323.4,419.5,335.9,406.9,351.5,406.9z"/>
</g>
</svg>
