<?xml version="1.0" encoding="utf-8"?>
<!-- Generator: Adobe Illustrator 21.1.0, SVG Export Plug-In . SVG Version: 6.00 Build 0)  -->
<svg version="1.1" id="Layer_2" xmlns="http://www.w3.org/2000/svg" xmlns:xlink="http://www.w3.org/1999/xlink" x="0px" y="0px"
	 viewBox="0 0 507.8 512" style="enable-background:new 0 0 507.8 512;" xml:space="preserve">
<g>
	<path d="M502.7,282.9l-0.3-0.4c-4.8-6-11.2-9.3-18.3-9.6c-7.7-0.7-14.2-6.1-16.3-13.6c-2.4-8.5-8.7-14.7-17.2-17.2
		c-8.6-2.5-18.3,0-24.5,6.3c-3.6,3.6-7.9,5.4-12.8,5.4c-7.6,0-14.9-5.6-17.3-13.4l-0.3-0.8c-3.7-10-13.3-16.6-23.9-16.6h-0.6
		c-7.9,0-15.2-4.8-17.7-12.3c-2.6-7.8,0.1-15.7,6.6-20.6l0.4-0.3c6-4.8,9.6-12.1,9.6-19.6s-3.6-14.8-9.6-19.6l-0.3-0.3
		c-4.8-3.6-7.6-9-7.6-14.7c0-4.3,1.7-8.8,4.7-12.1c3-3.2,6.5-8.7,6.5-17.7c0-7.1-3.6-14.3-9.2-18.6c-3.8-3-6.2-8.4-6.2-13.8
		s2.4-10.5,6.7-14.2l0.8-0.7c6-6,8.9-14.2,7.7-22.1c-1.2-8.6-7-15.9-15.4-19.5l-0.3-0.1c-21.1-8.4-45-13.9-70.9-16.4h-0.2
		c-74-5.6-146.9,21-200.1,73.1c-53.2,52.6-81,124.9-76.5,198.6C8.6,406.7,121,512.2,256,512.2c59.9,0,118.1-21.1,164-59.3
		c46-38.3,77-91.8,87.4-150.5v-0.1C508.5,295.5,506.8,288.3,502.7,282.9z M272.8,50.3h0.3c9.2,0.6,18.5,2,28.1,4.2
		c-1.7,6-2.6,12.3-2.6,18.8c0,12.5,3.6,24.9,10.3,35.7c-3.6,8.3-5.5,17.3-5.5,26.5c0,12,3.3,23.9,9.5,34.4
		c-6.2,10.2-9.5,22.2-9.5,34.7c0,32.3,22.3,59.5,52.9,66c12.6,20.3,34.2,32.6,57.9,32.6c7.5,0,14.5-1,21.2-3.2
		c5.3,6.1,11.7,11.1,18.8,14.9c-25.3,86.5-106.8,148-198.2,148c-108.7,0-199.3-84.9-206.3-193.4c-4-59.5,18.7-118,62.2-160.5
		c38.4-37.9,91.1-59.7,144.6-59.7C261.8,49.3,267.1,49.8,272.8,50.3z"/>
	<path d="M227.5,63l15.1,19.5L220.5,93l-13.1-10.6L227.5,63z M89.9,182.7l17.2-10.8l-5.8,34l-16.1,4.3l-8.9-15.6L89.9,182.7z
		 M82.5,335l-19-20.2l17.9-34.2l20.7-2.2l15.1,42L82.5,335z M126.2,121.2l-4.3,5.6l-13.9-3.3l-7-7.4l5.4-12.6l19.8,15.8V121.2z
		 M144.8,397.7l-11.3,1.2l-4.5-8.8l14.8-13.3l17,14.4L144.8,397.7z M185.4,270.3l-9.7,3.3l-9-9.4l9.7-8.2l10.8,7.6L185.4,270.3z
		 M185.7,164.5l-14.5-2.3l8.7-16.9l22.6,10.1L185.7,164.5z M206.9,450l27.8-15.7l9.6,27.9L206.9,450z M250.6,359.9h-21l7.2-19.6
		l22.3,10.4L250.6,359.9z M272.1,237h-22.6l-12.2-16.7l8.8-13.3l27.7,16.1L272.1,237z M277.2,153.6l-16.7-19.1l23.4-10.4l14.4,15.3
		L277.2,153.6z M330.2,397.8l-13.4-10.1l18.4-10l13.4,16.2L330.2,397.8z M359.2,328.8l-47.9-27l29.6-26.2l25.3,19.2L359.2,328.8z
		 M411,360.9l-9.2-16.4l23.1-1.6l0.5,18H411z"/>
	<path d="M442.9,158.2c-14.1,13.7-14.4,36.3-0.6,50.4c3.2,3.3,7,5.9,11.2,7.8c17.2-16.1,30.8-35.8,39.8-57.6
		C479.6,144.8,457,144.5,442.9,158.2z"/>
	<path d="M494.5,68.9c-9.8-1.4-18.8,5.4-20.1,15.2c-1.4,9.8,5.4,18.8,15.2,20.1c2.3,0.3,4.6,0.2,6.8-0.4
		C498.2,92.2,497.6,80.2,494.5,68.9z"/>
	<path d="M435.7,98.9c-3.6-8.4-13.7-11.1-20.9-6.2c-6.4,4.4-8.1,13.1-3.7,19.5c4.9,7.2,15.2,8.4,21.7,1.9
		C436.7,110.2,437.9,104.1,435.7,98.9z"/>
</g>
</svg>
