<?xml version="1.0" encoding="utf-8"?>
<!-- Generator: Adobe Illustrator 21.1.0, SVG Export Plug-In . SVG Version: 6.00 Build 0)  -->
<svg version="1.1" id="Layer_4" xmlns="http://www.w3.org/2000/svg" xmlns:xlink="http://www.w3.org/1999/xlink" x="0px" y="0px"
	 viewBox="0 0 512 512" style="enable-background:new 0 0 512 512;" xml:space="preserve">
<g>
	<g>
		<path d="M332.8,162.9c-16.7,0-30.2,16.7-30.2,37.2s13.6,37.2,30.2,37.2c16.7,0,30.2-16.7,30.2-37.2S349.5,162.9,332.8,162.9z
			 M179.2,237.4c16.7,0,30.2-16.7,30.2-37.2s-13.6-37.2-30.2-37.2S149,179.6,149,200.2C148.9,220.8,162.4,237.4,179.2,237.4z M256,0
			C114.6,0,0,114.6,0,256s114.6,256,256,256s256-114.6,256-256S397.4,0,256,0z M256,460.1c-112.6,0-204-91.4-204-204
			s91.4-204,204-204s204,91.4,204,204S368.6,460.1,256,460.1z M321.8,335.6c-55.5,23.4-107.9,0.5-139.5-28.2
			c-5.5-5.5-14.5-5.5-20-0.1c-5.6,5.5-5.6,14.7,0.2,20.2c25.6,38.6,104,55.8,167,35.2l0.3-0.1C347.8,357.5,339.9,330.4,321.8,335.6z
			"/>
	</g>
</g>
</svg>
