<?xml version="1.0" encoding="utf-8"?>
<!-- Generator: Adobe Illustrator 21.1.0, SVG Export Plug-In . SVG Version: 6.00 Build 0)  -->
<svg version="1.1" id="Layer_2" xmlns="http://www.w3.org/2000/svg" xmlns:xlink="http://www.w3.org/1999/xlink" x="0px" y="0px"
	 viewBox="0 0 512 512" style="enable-background:new 0 0 512 512;" xml:space="preserve">
<path d="M256,52c54.5,0,105.7,21.2,144.2,59.8C438.8,150.3,460,201.5,460,256s-21.2,105.7-59.8,144.2C361.7,438.8,310.5,460,256,460
	s-105.7-21.2-144.2-59.8C73.2,361.7,52,310.5,52,256s21.2-105.7,59.8-144.2C150.3,73.2,201.5,52,256,52 M256,0
	C114.6,0,0,114.6,0,256s114.6,256,256,256s256-114.6,256-256S397.4,0,256,0L256,0z"/>
<path d="M345.7,303c1.6,1.9,2.2,4.3,1.6,6.7c-4.9,23.4-15.9,41.7-32.5,54.5c-13.3,10.2-31.2,18.7-57.3,18.7
	c-52.6,0-90.5-39.2-90.5-85c0-8.6,0.1-82.1,0.1-86.6c0-22.8,13.4-50.7,39.4-67.5c14.1-9.2,30.8-14.8,50.9-14.8
	c24.1,0,44.4,7.6,60.2,22.5c15.8,14.8,25.8,32.6,29.6,52.9c0.7,2.5,0,5-1.8,6.8c-1.5,1.5-3.4,2.3-5.5,2.3h-37.6
	c-3.4,0-6.2-2-7.1-5.2c-5.1-14.4-17.9-28.6-37.9-28.6c-24.9,0-40.3,18.9-40.3,47.4c0,7.7,0.9,70.9,1.7,74.3
	c3.7,17.1,18.6,31.3,38.6,31.3c16.8,0,29.3-9.1,38.2-27.9c0,0,2.1-4.3,6.8-4.3h37.6C342.2,300.4,344.2,301.3,345.7,303z"/>
</svg>
