<?xml version="1.0" encoding="utf-8"?>
<!-- Generator: Adobe Illustrator 21.1.0, SVG Export Plug-In . SVG Version: 6.00 Build 0)  -->
<svg version="1.1" id="Layer_2" xmlns="http://www.w3.org/2000/svg" xmlns:xlink="http://www.w3.org/1999/xlink" x="0px" y="0px"
	 viewBox="0 0 660 512" style="enable-background:new 0 0 660 512;" xml:space="preserve">
<g>
	<g>
		<path d="M557.7,108.3v-5.4h-10l1.2-1.1l1.4-1.1c4.4-4.2,6.6-7.9,6.6-11.1c0-2.6-0.8-4.7-2.3-6c-1.7-1.7-4-2.6-6.9-2.6
			c-3.5,0-6.4,0.9-8.9,2.8l0.6,0.9l0.6,1.1l0.6,1.1c0,0.6,0.1,0.9,0.3,1.1l1.4-0.9l1.2-0.6c1.2-0.3,2.2-0.6,3.1-0.6
			c2.9,0,4.3,1.2,4.3,3.7c0,1.7-0.8,3.3-2.3,4.8l-0.9,1.1l-1.4,1.4c-1.4,1.4-2.7,2.6-4.3,3.7l-1.4,1.7c-0.9,0.9-1.6,1.5-2,1.7v3.4
			l9.8,0.6h9.3V108.3z M404.7,97.5l-5.2,10.3h6.3c1.7-2.8,5.4-10.3,11.2-22.2v-4.3h-19v5.4h12.3L404.7,97.5z M420.5,100.9
			c0,2,0.8,3.7,2.3,4.8c2,1.7,4.3,2.6,6.9,2.6c3.2,0,5.9-0.7,7.7-2c1.9-1.7,2.9-3.7,2.9-6c0-3.2-1.6-5.4-4.8-6.5v-0.3
			c2.5-1.1,3.8-3.1,4-5.7c0-1.7-0.8-3.3-2.3-4.8c-1.5-1.4-3.7-2-6.6-2s-5.2,0.7-6.9,2c-1.7,1.5-2.6,3.2-2.6,5.1c0,2.8,1.4,4.8,4,6
			C422,95.3,420.5,97.6,420.5,100.9z M427.9,86.6c0.6-0.8,1.4-1.1,2.6-1.1c1.9,0,2.9,1,2.9,3.1c0,0.9-0.3,1.8-0.9,2.6
			c-0.6,0.8-1.2,1.1-1.7,1.1c-0.8,0-1.5-0.3-2.3-1.1c-0.8-0.8-1.2-1.6-1.2-2.6C427.4,88,427.5,87.4,427.9,86.6z M427.6,98.3
			c0.8-1.1,1.5-1.7,2.3-1.7s1.6,0.6,2.6,1.7c0.8,0.8,1.1,1.7,1.1,2.8s-0.2,1.9-0.6,2.3c-0.8,0.9-1.6,1.4-2.6,1.4
			c-1.2,0-2.1-0.5-2.9-1.4c-0.6-0.6-0.9-1.4-0.9-2.6C426.8,100.1,427,99.3,427.6,98.3z M518.6,86.9v2.6c0.6-0.3,1.4-0.9,2.3-1.4
			l1.7-0.6l0.9-0.6h0.3v20.8h6V81.2h-5.1l-3.7,1.7l-0.6,0.6l-0.9,0.3l-1.7,0.9l0.3,1.1L518.6,86.9z M577.2,106.3
			c2.1-1.9,3.1-3.9,3.1-6c0-1.9-0.7-3.3-2-4.3c-1.1-1.4-2.5-2.1-4-2.3c3.2-1.1,4.9-3.1,4.9-6c0-1.5-0.7-3.1-2-4.8
			c-1.5-1.4-3.8-2-6.9-2c-3.4,0-6.1,0.7-8.1,2l0.6,1.7l0.3,1.4l0.3,1.4l2.3-0.9c1.2-0.6,2.3-0.9,3.5-0.9c2.6,0,4,0.9,4,2.8
			c0,0.9-0.6,1.7-1.7,2.3c-1.2,0.6-2.2,0.9-3.1,0.9h-2.6v4.3h2.6c1.7,0,2.9,0.3,3.5,0.9c1.2,0.8,1.7,1.9,1.7,3.4
			c0,0.9-0.3,1.7-1.2,2.3c-0.8,0.6-2,0.9-3.7,0.9l-3.4-0.6l-0.9-0.3h-0.6l-1.2-0.9l-0.6,2.6l-0.6,2.3c1.5,1.4,4.1,2,7.7,2
			C572.5,108.5,575.1,107.8,577.2,106.3z M501.1,98.9c2.3,0,4-0.7,5.2-2c-0.3,1.9-1.4,3.5-3.1,4.8c-1.5,1.1-3.2,1.7-5.2,1.7h-2.9
			v4.8h2.9c4-0.3,7.4-1.6,10-3.7c3.2-3.1,4.9-7.1,4.9-12c0-3.4-0.9-6.3-2.6-8.5c-1.9-2.1-4.4-3.1-7.5-3.1c-3.1,0-5.5,0.9-7.5,2.8
			c-1.7,1.7-2.6,4-2.6,6.8c0,2.5,0.8,4.5,2.3,6C496.9,98.2,498.8,98.9,501.1,98.9z M500,87.2c0.8-0.8,1.7-1.1,2.9-1.1
			c1.3,0,2.3,0.7,2.9,2l0.3,1.4l0.3,2v1.7c-0.6,1.4-1.7,2-3.4,2c-1.4,0-2.3-0.6-2.9-1.7c-0.6-0.8-0.9-1.7-0.9-2.8
			C499.2,89.3,499.4,88.1,500,87.2z M79.9,108.5c3.5,0,6-1.4,7.7-4c1.7-2.3,2.6-5.6,2.6-10c0-4.2-0.8-7.4-2.3-9.7
			c-2.1-2.6-4.7-4-7.7-4c-3.2,0-5.7,1.4-7.5,4c-1.7,2.5-2.6,5.8-2.6,10c0,4.2,0.9,7.4,2.6,9.7C74.2,107.3,76.6,108.5,79.9,108.5z
			 M80.2,86.3c2.5,0,3.7,3,3.7,8.8c0,6.1-1.3,9.1-3.7,9.1c-2.7,0-4-2.9-4-8.8C76.2,89.4,77.6,86.3,80.2,86.3z M125.9,108.5
			c3.1,0,5.5-1.4,7.5-4c1.5-2.5,2.3-5.8,2.3-10c0-3.8-0.8-7.1-2.3-9.7c-1.7-2.6-4.2-4-7.5-4c-3.2,0-5.9,1.4-7.7,4
			c-1.5,2.6-2.3,5.9-2.3,9.7c0,3.8,0.8,7.1,2.3,10C120,107.3,122.6,108.5,125.9,108.5z M125.9,86.3c2.5,0,3.7,3,3.7,8.8
			c0,6.1-1.3,9.1-3.7,9.1s-3.7-3.1-3.7-9.1C122.1,89.3,123.4,86.3,125.9,86.3z M140.7,104.3c1.9,2.8,4.4,4.2,7.5,4
			c3.5,0,6-1.2,7.5-3.7c1.9-2.3,2.9-5.6,2.9-10c0-3.8-0.8-7.1-2.3-9.7c-2.1-2.6-4.7-4-7.7-4c-3.2,0-5.9,1.4-7.7,4
			c-1.7,2.6-2.5,5.9-2.3,9.7C138.4,98.2,139.3,101.5,140.7,104.3z M148.6,86.3c2.5,0,3.7,3,3.7,8.8c0,6.1-1.3,9.1-3.7,9.1
			c-2.7,0-4-3.1-4-9.1C144.5,89.3,145.8,86.3,148.6,86.3z M102.9,108.5c3.1,0,5.6-1.4,7.7-4c1.5-2.5,2.3-5.8,2.3-10s-0.7-7.4-2-9.7
			c-2-2.6-4.5-4-7.7-4c-3.2,0-6,1.4-8.1,4c-1.5,2.6-2.3,5.9-2.3,9.7c0,3.8,0.8,7.1,2.3,10C97.2,107.3,99.8,108.5,102.9,108.5z
			 M102.9,86.3c2.6,0,4,3,4,8.8c0,6.1-1.4,9.1-4,9.1c-2.5,0-3.7-3.1-3.7-9.1C99.2,89.3,100.4,86.3,102.9,86.3z M206,89.5l0.6-0.6
			l0.9-0.3l1.4-0.6l0.6-0.6l1.7-0.6v20.8h6V81.2H212c-1.4,0.6-2.7,1.3-4,2l-2.9,1.4v1.1l0.3,1.1C205.8,88,206,88.9,206,89.5z
			 M282.6,107.7h5.7v-6.3h3.1v-4.5h-3.1V81.2h-7.7l-2.3,3.7l-1.1,2l-1.4,2.6l-1.2,2l-0.6,0.6l-0.6,0.9c-0.9,1.9-2,3.4-2.9,4.6v4
			h12.1L282.6,107.7L282.6,107.7z M276.6,97.5l0.6-0.6l0.3-0.9l0.9-1.7l1.2-1.4l0.9-1.4c0.3-0.8,0.8-1.5,1.2-2.3l0.3-1.1l0.9-1.4
			v10.8L276.6,97.5L276.6,97.5z M385.1,108.3c2.7,0,4.9-0.9,6.9-2.8c1.9-1.9,2.9-4.2,2.9-6.8c0-2.5-0.8-4.7-2.3-6.5
			c-2.1-1.4-4-2-5.7-2c-2.1,0-4,0.7-5.7,2h-0.3c1.2-3.6,4.1-5.7,8.9-6.3h2.3V81h-2.3c-4,0.2-7.6,1.5-10.6,4
			c-3.2,2.8-4.8,6.7-4.8,11.7c0,3.2,0.9,6,2.9,8.3C379,107.2,381.7,108.3,385.1,108.3z M380.9,97.5c0.9-1.5,2.3-2.3,4-2.3
			c1.2,0,2.1,0.4,2.9,1.1c0.8,0.8,1.2,1.8,1.2,3.1c0,1.5-0.3,2.8-1.2,3.7c-0.6,0.8-1.4,1.1-2.6,1.1c-1.2,0-2.2-0.4-3.1-1.4
			c-0.8-0.9-1.2-2.2-1.2-3.7V97.5z M244.7,102.6h-10l1.2-0.9l0.9-0.6l0.3-0.6c5-4.3,7.5-8.1,7.5-11.1c0-2.8-0.9-4.8-2.6-6
			c-1.7-1.7-4.1-2.6-7.1-2.6c-3.2,0-6.1,0.9-8.6,2.8c0.3,1.1,0.9,2.6,1.7,4.3c0.9-0.6,1.7-1,2.3-1.4c1.2-0.6,2.3-0.9,3.5-0.9
			c2.9,0,4.3,1.4,4.3,4c0,1.4-0.7,3-2,4.8l-1.2,1.1l-1.4,1.4c-1.4,1.4-2.8,2.6-4.3,3.7l-1.4,1.7l-0.9,0.9l-0.9,0.9v3.4h19
			L244.7,102.6L244.7,102.6z M367.9,105.5c2.1-1.5,3.1-3.7,3.1-6.5c0-3.1-1.1-5.4-3.1-6.8c-2.3-0.9-4.7-1.4-7.1-1.4h-1.7l0.3-0.9
			v-2.3l0.6-0.9h10v-5.4h-14.6c0,1.5-0.3,3.7-0.9,6.3l-0.6,3.7l-0.6,4.3l1.7-0.6h2c5.2,0,7.7,1.5,7.7,4.5c0,1.1-0.6,2.2-1.7,3.1
			c-1.2,0.6-2.4,0.9-3.7,0.9c-0.3,0-1.5-0.2-3.4-0.6c-1.4-0.3-2.2-0.6-2.6-0.6L353,103l-0.3,1.4v1.1l-0.6,0.9
			c1.9,1.1,4.5,1.7,7.7,1.7C362.9,108.3,365.6,107.3,367.9,105.5z M259.7,102.3c-1.2,0.8-2.4,1.1-3.7,1.1l-1.7-0.3l-1.7-0.3
			l-1.7-0.6l-0.6-0.3l-0.6-0.3c-0.4,1.7-0.8,3.3-1.2,4.8c2.1,1.1,4.8,1.7,8.1,1.7c2.7,0,5.4-0.7,8.1-2c1.9-1.9,2.9-3.9,2.9-6
			c0-1.7-0.6-3.2-1.7-4.6c-0.9-1.1-2.3-1.8-4-2c3.2-1.5,4.8-3.7,4.8-6.3c0-1.9-0.9-3.4-2.6-4.5c-1.4-1.4-3.4-2-6.3-2
			c-3.5,0-6.3,0.7-8.6,2c0.3,0.3,0.6,0.8,0.6,1.1l0.3,0.9l0.6,2.6l1.2-0.9l1.1-0.6l2-0.3h1.2c2.7,0,4,0.9,4,2.8
			c0,0.9-0.5,1.7-1.4,2.3l-3.1,0.9h-2.6v4.3h2.6c1.5,0,2.9,0.3,4,0.9c0.9,0.9,1.4,1.9,1.4,2.8C260.8,100.9,260.4,101.7,259.7,102.3z
			 M490.3,427.1c12.4,0,23.6-5.7,30.9-14.5c7.3,8.8,18.5,14.5,30.9,14.5c22.1,0,40.1-17.9,40.1-40.1c0-22.1-17.9-40.1-40.1-40.1
			c-12.4,0-23.6,5.7-30.9,14.5c-7.3-8.8-18.5-14.5-30.9-14.5c-22.1,0-40.1,17.9-40.1,40.1C450.2,409.2,468.1,427.1,490.3,427.1z
			 M358.8,366.2H223v44.3h135.8V366.2z M177.7,366.2H87.2v44.3h90.5V366.2z M-0.1-0.5V512H660V-0.5H-0.1z M615.8,467.1H44.1V218.4
			h571.6V467.1z M615.8,146.1l-571.6,1V43.8h571.6V146.1z"/>
	</g>
</g>
</svg>
