<?xml version="1.0" encoding="utf-8"?>
<!-- Generator: Adobe Illustrator 22.0.1, SVG Export Plug-In . SVG Version: 6.00 Build 0)  -->
<svg version="1.1" id="Layer_1" xmlns="http://www.w3.org/2000/svg" xmlns:xlink="http://www.w3.org/1999/xlink" x="0px" y="0px"
	 viewBox="0 0 483 512" style="enable-background:new 0 0 483 512;" xml:space="preserve">
<g id="_x35_2">
	<path d="M293.5,393.5c-22,8.5-37.5,29.9-37.5,54.9c0,5.9,0.9,11.7,2.5,17.1c-0.4-3-0.5-5.9-0.5-9
		C258,429.9,272.2,406.4,293.5,393.5z"/>
	<path d="M312.2,389.5c-2.8,0.1-5.6,0.5-8.3,1c-25.8,10.9-43.9,36.4-43.9,66.1c0,6.6,0.9,13,2.6,19c0.9,1.8,1.9,3.5,3,5.1
		c-2.1-6.8-3.2-14-3.2-21.5C262.5,427,283.3,399.5,312.2,389.5z"/>
	<path d="M324.7,390.3c-1.8-0.3-3.6-0.5-5.4-0.6c-31.4,7.6-54.7,35.9-54.7,69.6c0,9.6,1.9,18.8,5.3,27.2c3.2,3.8,6.9,7.2,10.9,10
		c-5.8-10.5-9.1-22.6-9.1-35.4C271.8,427.5,294.1,399.3,324.7,390.3z"/>
	<path d="M331.6,391.9c-0.8-0.2-1.6-0.5-2.4-0.6c-31.7,7.4-55.4,35.9-55.4,69.8c0,14,4,27,11,38c0.9,0.5,1.7,1,2.6,1.5
		c-6.5-11-10.2-23.8-10.2-37.5C277.2,429,300.2,400.4,331.6,391.9z"/>
	<path d="M335.3,393.1c-32,7.2-56,35.8-56,69.9c0,14.5,4.3,27.9,11.7,39.2c7.3,3.3,15.4,5.1,24,5.1c32.6,0,58.9-26.4,58.9-58.9
		C373.9,423,357.8,401.4,335.3,393.1z"/>
	<path d="M464.2,15c-12.8-11.7-22.7-15.3-30-15.3c-7.5,0-12.3,3.8-14.7,6.4c-10.5,11.4-75.9,91.7-108,114.9l-5.3-4.9
		c-11.6-11.6-32.5-12.2-46.7,1.9L13,385.2c-18.3,19.9-17.1,51,2.6,69.4l47.4,44.1c16.4,16.4,47.5,19.6,69.8-2.7l244.7-265.6
		c13.4-14.5,12.4-37.3-2.1-50.7l-3.1-2.9C389.9,146.5,467.2,71,477.7,59.6C482.6,54.4,490.9,39.5,464.2,15z M96.5,458.8l-43.3-40.3
		l226.6-245.6l43.4,39.9L96.5,458.8z M348.5,155.1l-13.3-12.2c29.7-22,94.2-99.9,102-108.7c3.6,2.7,8,6.7,10.9,10.2
		C440.1,52.9,360.6,132.2,348.5,155.1z"/>
</g>
</svg>
