<?xml version="1.0" encoding="utf-8"?>
<!-- Generator: Adobe Illustrator 22.0.1, SVG Export Plug-In . SVG Version: 6.00 Build 0)  -->
<svg version="1.1" id="Layer_1" xmlns="http://www.w3.org/2000/svg" xmlns:xlink="http://www.w3.org/1999/xlink" x="0px" y="0px"
	 viewBox="0 0 512 512" style="enable-background:new 0 0 512 512;" xml:space="preserve">
<polygon points="477.2,0 374.2,103 359,103 194,103 194,155 322.2,155 160,317.2 160,0 108,0 108,103 0,103 0,155 108,155 
	108,369.2 0,477.2 0,512 38.8,512 136.8,414 359,414 359,514 411,514 411,414 511,414 511,362 188.8,362 359,191.8 359,321 411,321 
	411,155 411,139.8 512,38.8 512,0 "/>
</svg>
