<?xml version="1.0" encoding="utf-8"?>
<!-- Generator: Adobe Illustrator 21.1.0, SVG Export Plug-In . SVG Version: 6.00 Build 0)  -->
<svg version="1.1" id="Layer_1" xmlns="http://www.w3.org/2000/svg" xmlns:xlink="http://www.w3.org/1999/xlink" x="0px" y="0px"
	 viewBox="0 0 550 512" style="enable-background:new 0 0 550 512;" xml:space="preserve">
<g>
	<g>
		<path d="M462.8,372.3H86.6l-15.1,58.8H478L462.8,372.3z M106.2,406.2c-3.3,0-5-1.6-5-3.3c0-3.3,1.6-5,5-5c1.6,0,3.3,1.6,3.3,5
			C109.5,404.5,107.9,406.2,106.2,406.2z M160.7,406.2c-1.6,0-5-1.6-5-3.3c0-3.3,3.3-5,5-5c1.6,0,5,1.6,5,5
			C165.7,404.5,162.4,406.2,160.7,406.2z M215.2,406.2c-1.6,0-3.3-1.6-3.3-3.3c0-3.3,1.6-5,3.3-5c3.3,0,5,1.6,5,5
			C220.2,404.5,218.5,406.2,215.2,406.2z M271.3,406.2c-3.3,0-5-1.6-5-3.3c0-3.3,1.6-5,5-5c1.6,0,3.3,1.6,3.3,5
			C274.7,404.5,273,406.2,271.3,406.2z M325.8,406.2c-1.6,0-5-1.6-5-3.3c0-3.3,3.3-5,5-5c1.6,0,5,1.6,5,5
			C330.8,404.5,327.5,406.2,325.8,406.2z M380.3,406.2c-1.6,0-3.3-1.6-3.3-3.3c0-3.3,1.6-5,3.3-5c3.3,0,5,1.6,5,5
			C385.3,404.5,383.6,406.2,380.3,406.2z M436.5,406.2c-3.3,0-5-1.6-5-3.3c0-3.3,1.6-5,5-5c1.6,0,3.3,1.6,3.3,5
			C439.8,404.5,438.1,406.2,436.5,406.2z M139.2,108.1c-2.3,20.3-6.8,50.6-13.5,70.9c15.7,18,26.9,40.6,35.9,60.9
			c4.5-20.3,11.3-42.8,22.4-63.1c-13.5-18-24.7-48.3-33.7-68.6c11.3-4.5,18-13.5,18-24.8c0-15.7-11.3-27.1-26.9-27.1
			c-13.5,0-24.7,11.3-24.7,27.1C116.8,96.9,125.8,108.1,139.2,108.1z M472.8,445.3H69.9c-5,0-9.9,5-9.9,10s5,10,9.9,10h402.9
			c5,0,9.9-5,9.9-10S477.8,445.3,472.8,445.3z M388.4,239.9c9-20.3,20.2-42.8,35.9-60.9c-6.8-20.3-11.3-50.6-13.5-70.9
			c13.5,0,22.4-11.3,22.4-24.8c0-15.7-11.3-27.1-24.7-27.1c-15.7,0-26.9,11.3-26.9,27.1c0,11.3,6.8,20.3,18,24.8
			c-9,20.3-20.2,50.6-33.7,68.6C377.1,197.1,383.9,219.6,388.4,239.9z M523.1,87.8c-13.5,0-24.7,13.5-24.7,27.1
			c0,4.5,0,6.8,2.3,11.3c-53.9,11.3-96.5,75.4-114.5,143c-6.8-78.9-47.2-154.3-101-174.6c9-4.5,15.7-13.5,15.7-24.8
			c0-15.8-11.3-27.1-24.7-27.1c-15.7,0-26.9,11.3-26.9,27.1c0,11.3,6.8,20.3,15.7,24.8c-53.9,20.3-94.3,95.6-101,174.6
			c-18-67.6-60.6-131.8-114.5-143c2.3-4.5,2.3-6.8,2.3-11.3c0-13.5-11.3-27.1-24.7-27.1C11.2,87.8,0,101.4,0,114.9
			C0,130.7,11.3,142,26.9,142c6.8,0,11.3-2.3,15.7-6.8c31.4,47.4,45.2,221.7,45.2,221.7s84.7,0,189,0c103,0,185.3,0,185.3,0
			s13.8-174.3,45.2-221.7c4.5,4.5,9,6.8,15.7,6.8c15.7,0,26.9-11.3,26.9-27.1C550,101.4,538.8,87.8,523.1,87.8z M121,299
			c-1.4-14.4-4.8-38.8-9.5-61.2c10.7,17.3,18.4,48.5,21.1,61.2H121z M199.7,299c1.4-14.5,0.6-34,7.5-62c9.7-39.8,35.1-91.4,68.3-106
			c32.1,16.2,55.3,60.4,66.3,102.5c6.1,23.4,7.3,41.8,8.8,65.5L199.7,299L199.7,299z M428.4,299h-10.2c2.4-13.1,10.7-46.7,19.7-60.4
			C436.6,248.7,429.9,285.6,428.4,299z M275.4,165.2c-5.6,0-10.2,4.6-10.2,10.2s4.6,10.2,10.2,10.2s10.2-4.6,10.2-10.2
			C285.6,169.7,281,165.2,275.4,165.2z"/>
	</g>
</g>
</svg>
