<?xml version="1.0" encoding="utf-8"?>
<!-- Generator: Adobe Illustrator 21.1.0, SVG Export Plug-In . SVG Version: 6.00 Build 0)  -->
<svg version="1.1" id="Layer_2" xmlns="http://www.w3.org/2000/svg" xmlns:xlink="http://www.w3.org/1999/xlink" x="0px" y="0px"
	 viewBox="0 0 524.6 512" style="enable-background:new 0 0 524.6 512;" xml:space="preserve">
<g>
	<path d="M523.7,344c0,26.8-17.3,48.1-41.4,56.8c-0.4,0.1-1.1,0.8-1.1,0.4c-8-94.3-52.9-177.2-106.3-236.5
		c5.2-16.1-0.5-37.3-0.5-37.3h59.2l0.4,0.4c0,0,44.5,29.2,69.7,98.7C528.8,296,524.9,324.2,523.7,344z M441.4,67.6
		c-2.9,3.3-5.6,6.9-8.9,9.6c-8.8,0.2-17.7,0-26.5,0.1c4-12,6.3-25.3,3.9-38c-1.4-8.1-4.4-15.8-8.6-22.5
		c12.1-6.4,24.4-13.3,37.7-15.3c7.7-1.2,16.5,0.4,21.8,7.4c5.1,6,4.6,15.6,2.2,22.9C458.5,45.5,450,56.9,441.4,67.6z M437.2,102.8
		c0,6.4-4.8,12.6-10.6,12.4c-13.5,0-27.1,0-40.6,0c5.6-8,10.6-16.6,14.9-25.5c8.6,0.1,17.1,0,25.7,0
		C432.5,89.7,437.5,96,437.2,102.8z M341.3,115.4c-1,1-2,2.5-3.5,2.2c-27.9,0-55.8,0-83.8,0c-22.6,0-45.2,0-67.8,0
		c-8.7-8.5-16.6-18-23.8-28c-6.8-9.7-13.3-20.4-15.9-32.6c-1.1-6.1-1.1-13,2-18.4c3.8-6.7,10.5-11,17.6-12.1
		c7.7-1.1,15.6,0,23.1,2.4c19.5,6,26.9,6.8,45.5,15.4c6.9,3,11.7-13.8,29.7-13.5c20,0.4,25,15.6,32.3,12.6
		c20.2-8.3,26.9-12,46.1-16.4c7.7-1.4,16-2,23.4,1.5c6.1,2.8,11.3,8.5,12.8,15.8c1.6,8.4-0.8,17.2-4.2,24.7
		C366.6,87,354.2,101.9,341.3,115.4z M340.5,57.2c-11.6-2.8-33.7,15.1-46.1,14.7c-13.5-0.6-16.4-13.5-30.6-13.7c-0.5,0-0.5,0-1,0
		c-14,0.1-16.8,13.1-30.2,13.7c-12.3,0.4-34.1-17.5-45.5-14.7c-4.2,1-6.4,3.5-4.7,10.9c1,4,5.7,9,8.1,11.2c6.6,6.1,11.9,8.5,18.1,11
		c0.7,0.3,1.4,0.8,2.5,0.7c28.7,0,65.4,0,105.3,0c1.1,0.1,1.8-0.4,2.5-0.7c6.2-2.5,11.6-4.9,18.3-11c2.5-2.3,7.2-7.2,8.2-11.2
		C347,60.7,344.8,58.2,340.5,57.2z M87.1,102.7c-0.3-6.7,4.7-13.1,10.6-13.1c8.5-0.1,17,0,25.6,0c4.3,8.9,9.3,17.5,14.8,25.5
		c-13.5,0-27,0-40.4,0C91.9,115.3,87.1,109.1,87.1,102.7z M118.2,77.2c-8.8-0.1-17.6,0.1-26.4-0.1c-3.3-2.7-5.9-6.3-8.8-9.6
		c-8.6-10.6-17-22-21.6-35.7c-2.4-7.3-2.9-16.9,2.2-22.9c5.3-7,14.1-8.6,21.7-7.4c13.3,2,25.5,8.8,37.5,15.3
		c-4.1,6.7-7.2,14.4-8.5,22.5C111.9,51.9,114.2,65.2,118.2,77.2z M90.5,127.7l0.4-0.4h58.9c0,0-5.7,21.2-0.5,37.2
		C96.1,223.8,51.4,306.7,43.4,400.9c0,0.4-0.7-0.3-1.1-0.4c-24-8.7-41.3-30-41.3-56.8c-1.2-19.9-5.1-48,20-117.5
		C46.1,156.9,90.5,127.7,90.5,127.7z M325.6,163.2c-12.9,0-25.9,0-38.8,0c-31,0-62,0-92.9,0c-5.6,0.2-10.9-4.1-12.8-10
		c-2.8-8,1.6-18,9.2-20.1c1.2-0.3,2.4-0.5,3.6-0.4c24.8,0,49.6,0,74.4,0c21.2,0,42.3,0,63.5,0c5.8-0.1,11.2,4.7,12.7,10.9
		c1.8,6.6-1,14.6-6.6,17.8C334.1,163.8,329.7,163.1,325.6,163.2z M186,178.7l0.5-0.5h77.1h75.2l0.5,0.5c0,0,55.2,42.6,87.2,126
		s28.4,109.8,26.8,133.7c0,42.5-38.3,73.4-84.2,73.4c-59.4,0-205.9,0.2-205.9,0.2c-74.3,0-92.9-46.4-92.9-80.5
		c0-89.1,42.3-159.9,56.7-182.7C161.4,194.6,185.5,178.7,186,178.7z M168.8,469.3c27.9,0,137,0.8,166.9,0.8
		c46.2,0,79.6-1.3,75.3-55.7c-4.1-63.5-38.3-136.2-72.2-173.1c0,0-13.2-15.9-18.6-19.7H204.5c0,0-64.5,49.3-87.7,169
		C107.1,440.2,111.8,469.3,168.8,469.3z"/>
</g>
</svg>
