<?xml version="1.0" encoding="utf-8"?>
<!-- Generator: Adobe Illustrator 21.1.0, SVG Export Plug-In . SVG Version: 6.00 Build 0)  -->
<svg version="1.1" id="Layer_2" xmlns="http://www.w3.org/2000/svg" xmlns:xlink="http://www.w3.org/1999/xlink" x="0px" y="0px"
	 viewBox="0 0 404.5 512" style="enable-background:new 0 0 404.5 512;" xml:space="preserve">
<g>
	<path d="M285.5,93.9c-1.1,1.1-2.1,2.6-3.7,2.3c-29.4,0-58.8,0-88.3,0c-23.8,0-47.6,0-71.4,0c-9.2-9-17.5-18.9-25.1-29.4
		c-7.2-10.2-14-21.4-16.7-34.2c-1.2-6.4-1.2-13.6,2.1-19.3c4-7.1,11.1-11.6,18.5-12.7c8.1-1.2,16.4,0,24.3,2.5
		c20.5,6.3,28.3,7.2,47.9,16.1c7.3,3.2,12.3-14.4,31.3-14.1c21.1,0.4,26.3,16.3,34,13.3C259.8,9.6,266.8,5.7,287,1.2
		c8.1-1.5,16.9-2.1,24.6,1.6c6.4,2.9,11.9,9,13.5,16.5c1.7,8.8-0.8,18-4.4,25.9C312.1,64,299.1,79.6,285.5,93.9z M284.6,32.8
		c-12.2-2.9-35.5,15.8-48.6,15.4c-14.2-0.6-17.3-14.1-32.2-14.3c-0.5,0-0.5,0-1.1,0c-14.7,0-17.6,13.6-31.7,14.2
		c-13,0.5-36-18.3-48-15.3c-4.4,1.1-6.7,3.7-5,11.5c1.1,4.2,6,9.5,8.5,11.8c7,6.4,12.5,9,19.1,11.6c0.7,0.3,1.5,0.8,2.6,0.7
		c30.2,0,68.9,0,110.9,0c1.2,0.1,1.9-0.4,2.6-0.7c6.5-2.6,12.2-5.2,19.3-11.6c2.6-2.4,7.6-7.6,8.6-11.8
		C291.5,36.5,289.2,33.8,284.6,32.8z M268.9,144c-13.6,0-27.3,0-40.9,0c-32.7,0-65.3,0-97.9,0c-5.9,0.2-11.5-4.3-13.5-10.5
		c-2.9-8.4,1.7-18.9,9.7-21.1c1.3-0.3,2.5-0.5,3.8-0.4c26.1,0,52.2,0,78.4,0c22.3,0,44.6,0,66.9,0c6.1-0.1,11.8,5,13.4,11.5
		c1.9,7-1.1,15.3-7,18.6C277.9,144.6,273.2,143.9,268.9,144z M121.9,160.2l0.5-0.5h81.2h79.2l0.5,0.5c0,0,58.1,44.7,91.9,132.2
		s29.9,115.2,28.2,140.3c0,44.6-40.3,77-88.7,77c-62.6,0-102,1.3-102,1.3l-114.9-1.1C19.6,509.9,0,461.3,0,425.5
		C0,332,44.6,257.7,59.7,233.8C96,176.9,121.3,160.2,121.9,160.2z M103.8,465.2c29.4,0,144.3,0.8,175.8,0.8
		c48.7,0,83.8-1.4,79.3-58.5c-4.3-66.7-40.3-142.9-76.1-181.6c0,0-13.9-16.6-19.6-20.6H141.4c0,0-67.9,51.7-92.4,177.3
		C38.8,434.6,43.7,465.2,103.8,465.2z"/>
</g>
</svg>
