<?xml version="1.0" encoding="utf-8"?>
<!-- Generator: Adobe Illustrator 21.1.0, SVG Export Plug-In . SVG Version: 6.00 Build 0)  -->
<svg version="1.1" id="_x35_2" xmlns="http://www.w3.org/2000/svg" xmlns:xlink="http://www.w3.org/1999/xlink" x="0px" y="0px"
	 viewBox="0 0 630.2 512" style="enable-background:new 0 0 630.2 512;" xml:space="preserve">
<rect x="333.6" y="114.1" width="59.2" height="52"/>
<rect x="452" y="114.1" width="59.2" height="52"/>
<rect x="333.6" y="460.5" width="59.2" height="52"/>
<rect x="333.6" y="460.5" width="59.2" height="52"/>
<rect x="215.3" y="460.5" width="59.2" height="52"/>
<rect x="452" y="460.5" width="59.2" height="52"/>
<rect x="570.3" y="460.5" width="59.2" height="52"/>
<rect x="92.7" y="358.9" transform="matrix(-1.836970e-16 1 -1 -1.836970e-16 507.1649 262.6789)" width="59.2" height="52"/>
<rect x="574.4" y="368.7" transform="matrix(-1.836970e-16 1 -1 -1.836970e-16 998.7037 -209.2634)" width="59.2" height="52"/>
<rect x="574.4" y="250.1" transform="matrix(-1.836970e-16 1 -1 -1.836970e-16 880.0598 -327.9072)" width="59.2" height="52"/>
<polygon points="148.2,460.5 148.2,452.7 96.2,452.7 96.2,460.5 96.2,511.8 96.2,512.5 155.4,512.5 155.4,460.5 "/>
<polygon points="577.5,166.2 577.5,174 629.5,174 629.5,166.2 629.5,114.8 629.5,114.2 570.3,114.2 570.3,166.2 "/>
<path d="M210.2,158.3L343,1.4c0,0-61.3,42-115.5,83.3c-23,17.5-51.7,50.5-61,61.4l-64-14.4c1-22.2-18.3-42.6-44.8-46.3
	c-27.8-4-53,11.9-56.2,35.3c-3.2,23.5,16.7,45.7,44.5,49.7c22,3.1,42.3-6.1,51.4-21.7l36.7,8.2l19.9,20.2l-3,22L121.1,235
	c-18.2-7.6-41.8,0.2-56.5,19.9c-16.9,22.8-15.5,52.8,3.1,67.1c18.6,14.3,47.4,7.4,64.3-15.4c14.8-19.9,15.6-45.5,3-61.1l42-50.2
	l1.5-1.3l0.5-0.9c14.5,3.7,55.7,13.7,83.8,14.6c67.8,2.3,141.7,1,141.7,1L210.2,158.3z M77.7,131.6c-1.7,12.1-14.6,20.2-28.9,18.2
	c-14.3-2-24.6-13.5-22.9-25.6c1.7-12.1,14.6-20.2,28.9-18.2C69.1,108.1,79.4,119.5,77.7,131.6z M115.7,294.1
	c-8.7,11.7-23.5,15.3-33.1,7.9c-9.6-7.3-10.3-22.8-1.6-34.5c8.7-11.7,23.5-15.3,33.1-7.9C123.7,266.9,124.4,282.4,115.7,294.1z
	 M186.6,175.3c-3.7,3.8-9.7,3.8-13.4,0c-3.7-3.8-3.7-9.9,0-13.6c3.7-3.8,9.7-3.8,13.4,0C190.3,165.4,190.3,171.5,186.6,175.3z"/>
</svg>
