<?xml version="1.0" encoding="utf-8"?>
<!-- Generator: Adobe Illustrator 22.0.1, SVG Export Plug-In . SVG Version: 6.00 Build 0)  -->
<svg version="1.1" id="Layer_1" xmlns="http://www.w3.org/2000/svg" xmlns:xlink="http://www.w3.org/1999/xlink" x="0px" y="0px"
	 viewBox="0 0 512 512" style="enable-background:new 0 0 512 512;" xml:space="preserve">
<g>
	<path d="M337,0l-35,21.6c-21.1,13-35.9,37.4-38.5,63.8l-15.6,121.8l40.3-7.3L337,0z"/>
	<path d="M152.6,255.1c-0.1-0.2-0.2-0.5-0.3-0.8c-5.4-17.2-16.7-31.9-32.9-42.4l-0.2-0.1c-14.5-9-30.8-12.7-46.6-11.6l-24.3-4.9
		c-5.9-1.2-11.4,3.3-11.4,9.3v6.9c-9.9,6.1-18.6,14.5-25.1,25C0.8,254.1-2.6,275,2,295.3c4.7,20.3,17,37.6,34.6,48.6
		c12.8,8,27.1,11.8,41.2,11.8c26,0,51.3-12.9,66.1-36.4c5.9-8.6,9.7-18.9,11.1-30.6l0-0.2c0.1-1.1,0.4-2.4,0.6-3.3l272.1-33.9
		c26-2.6,50.1-17.2,63-38l21.2-34.3l-355.1,75.5L152.6,255.1z M114.4,299.9c-0.3,0.5-0.6,1-0.9,1.4c-1.9,2.8-3.2,4.8-5.2,6.8
		c-5.6,5.6-12.8,9.7-20.8,11.7c-23.5,5-46.7-9.4-51.6-32.3l-0.1-0.4c-2.9-10.7-1.2-21.5,5-32c6-8.9,15.6-15.6,27-18.7
		c22.8-4.8,45.9,9.2,51.6,31.5l0,0.1C122.4,278.6,120.7,289.4,114.4,299.9z"/>
	<path d="M401.9,111c2.2,2.2,4.9,3.3,7.6,3.3c2.2,0,4.3-0.8,5.9-2.4l19-19c3.5-3.5,3.1-9.5-0.9-13.5c-4-4-10-4.4-13.5-0.9l-19,19
		c-1.8,1.8-2.6,4.3-2.3,6.9C398.9,106.8,400,109.2,401.9,111z"/>
	<path d="M439.7,73.1c1.8,1.8,4.2,3,6.6,3.2c0.3,0,0.7,0.1,1,0.1c2.3,0,4.4-0.8,5.9-2.4l19-19c1.8-1.8,2.6-4.3,2.3-6.9
		c-0.3-2.4-1.4-4.7-3.2-6.6c-4-4-10-4.4-13.5-0.9l-19,19c-1.8,1.8-2.6,4.3-2.3,6.9C436.8,69,437.9,71.3,439.7,73.1z"/>
	<path d="M484.2,38.5c0.3,0,0.7,0.1,1,0.1c2.3,0,4.4-0.8,5.9-2.4l19-19c1.8-1.8,2.6-4.3,2.3-6.9c-0.3-2.4-1.4-4.7-3.2-6.6
		c-4-4-10-4.4-13.5-0.9l-19,19c-3.5,3.5-3.1,9.5,0.9,13.5C479.4,37.1,481.8,38.2,484.2,38.5z"/>
	<path d="M312.3,427.2c-1.1-11.7-4.9-23.4-11.6-34.2c-8.8-15.5-24.4-27.6-42.9-33.3l-0.4-0.1l13.5-68.6l-35.8,3.4l-8.7,61.5
		c-0.8,0.4-1.9,0.9-2.9,1c-9.8,1.2-19.1,4.6-30.1,10.9l-0.3,0.2c-17.6,11-29.9,28.2-34.6,48.6c-4.7,20.3-1.2,41.2,9.8,58.9
		c14.7,23.6,40.2,36.6,66.2,36.6c14.1,0,28.3-3.8,41.2-11.8c11.5-6.9,21-17.2,27.5-29.5h6.2c6,0,10.5-5.5,9.3-11.4L312.3,427.2z
		 M276.6,443.7c-2,8-6.1,15.2-11.7,20.8c-10.6,10.6-25.9,15.1-39.9,11.7l-0.2,0c-22.9-5-37.4-28.2-32.3-51.8
		c4.3-19.8,22.2-33.3,42.2-33.3c3.1,0,6.3,0.3,9.4,1C266.9,397.7,281.4,420.8,276.6,443.7z"/>
</g>
</svg>
