<?xml version="1.0" encoding="utf-8"?>
<!-- Generator: Adobe Illustrator 21.1.0, SVG Export Plug-In . SVG Version: 6.00 Build 0)  -->
<svg version="1.1" id="Layer_2" xmlns="http://www.w3.org/2000/svg" xmlns:xlink="http://www.w3.org/1999/xlink" x="0px" y="0px"
	 viewBox="0 0 512 512" style="enable-background:new 0 0 512 512;" xml:space="preserve">
<style type="text/css">
	.st0{fill-rule:evenodd;clip-rule:evenodd;}
</style>
<g id="_x35_2">
	<g>
		<path class="st0" d="M281.1,103.1c28.4,0,51.4-23,51.4-51.4c0-28.4-23-51.4-51.4-51.4c-28.4,0-51.4,23-51.4,51.4
			C229.7,80.1,252.7,103.1,281.1,103.1z M258.4,265.7c-10.6-16.2-58.2-24.3-82.3-44.4c-4.3-3.5,27.2-33.7,51.2-63.2
			c4.9-6,18.3,22.5,50.2,35.9c21.1,4.3,54.8,7.8,77.9,9.9c13.8,1.3,26-8.9,27.4-22.7v0c1.3-13.8-8.7-26.1-22.5-27.5
			c-17.2-1.8-40.6-4.8-61.2-9.9c-8.8-2.2-48.5-37.2-50.2-38.3c-8.7-5.2-30.8-21-36-23.9c-23.5-13-39.4,7.4-42.9,11.9
			c-11.5,14.4-93.3,101.9-93.3,130.3c0,28.4,23.8,44.8,51.4,51.4c19.6,4.7,56.8,17.7,82.5,23.9c16,9.8,32.5,61.3,41.4,92.7
			c3.7,13.1,17.8,20.3,30.6,15.6c11.9-4.4,18.1-17.4,14.1-29.4C284.2,340.7,259.8,267.8,258.4,265.7z M44.3,184.4
			c35,2,73.6-73.7,108.9-112.4c4.9-5.4-16.2-13.6-35.9-19.1c-15.5-4.3-37.3-4-55,12c-25.9,23.3-55,63.1-55,82.5
			C7.2,167.8,23.8,183.2,44.3,184.4z M409.1,230c-56.8,0-102.9,46.1-102.9,102.9c0,56.8,46.1,102.9,102.9,102.9
			c56.8,0,102.9-46.1,102.9-102.9C512,276,465.9,230,409.1,230z M409.1,383.8c-28.1,0-50.9-22.8-50.9-50.9S381,282,409.1,282
			c28.1,0,50.9,22.8,50.9,50.9S437.2,383.8,409.1,383.8z M102.9,306.3C46.1,306.3,0,352.3,0,409.2C0,466,46.1,512.1,102.9,512.1
			c56.8,0,102.9-46.1,102.9-102.9C205.8,352.3,159.7,306.3,102.9,306.3z M102.9,460.1c-28.1,0-50.9-22.8-50.9-50.9
			s22.8-50.9,50.9-50.9c28.1,0,50.9,22.8,50.9,50.9S131,460.1,102.9,460.1z"/>
	</g>
</g>
</svg>
