<?xml version="1.0" encoding="utf-8"?>
<!-- Generator: Adobe Illustrator 21.1.0, SVG Export Plug-In . SVG Version: 6.00 Build 0)  -->
<svg version="1.1" id="Layer_3" xmlns="http://www.w3.org/2000/svg" xmlns:xlink="http://www.w3.org/1999/xlink" x="0px" y="0px"
	 viewBox="0 0 390.9 512" style="enable-background:new 0 0 390.9 512;" xml:space="preserve">
<g>
	<g>
		<path d="M194.2,47c1.8,0,3.5,0.1,5.1,0.4l0,0l0,0c29.9,5.1,51.5,16,60.9,30.5c2.1,3.3,3.7,7,4.8,11l-40.6,4.9l-6.9,3.6
			c-1.5,0.8-3,1.5-4.7,2.4c-4.7,2.3-10.6,5.2-16.8,9.5c-11.2-8.4-24.6-14-39.1-16.1l-32.7,1.2c1.2-8.2,4.1-12.6,5.5-14.7
			c5.9-9,16.6-16.8,31.9-23.4l0,0C171.4,52.1,183.4,47,194.2,47 M194.2,1c-20.1,0-37.9,7.6-50.6,13C101.8,32,67,65.6,81,129.2
			c2.1,10.6,4,21.2,6,31.8c0.3,1,0.7,2,1,3c2-1,4-2,6-3c-0.7,3-1.3,6-2,8.9c-2.1,3.1-5.4,3.6-8.9,5c-4.9,20.2,14.3,43.2,31.8,47.7
			c10,2.6,21.4,1.1,28.8,3c1.8,5,1.3,8.5,1,15.9c11.4,0.5,24,9.2,29.8,14.9c1.8-0.9,12-1.4,22-1.4c9.5,0,18.8,0.5,20.7,1.4
			c4.4-5.7,18.6-14.5,28.8-14.9c0.3-5,0.7-9.9,1-14.9c8-4,17.3-1.2,28.8-4c17.9-4.3,33.4-22.7,33.8-44.7c-3.1-3-3.1-4.2-8.9-5
			c-1.3-4-2.6-7.9-4-11.9c1.7,1,3.3,2,5,3h1c4.1-7.6,2.2-15.2,5-25.8C329.5,54.5,276.3,14,207.2,2.1C202.8,1.3,198.4,1,194.2,1
			L194.2,1z M128.5,196.6c-3.9,0-7.8-0.3-11.6-0.8c-9.9-13-12.1-31.4-5-48.7c8.8-5.9,19.9-4.5,31.8-8.9c0.1,0,0.2,0,0.3,0
			c16.6,0,28.9,8.8,34.5,19.9C178.8,185.3,153.8,196.6,128.5,196.6L128.5,196.6z M260.4,196.8c-23.6,0-46.9-13.7-48.2-36.8
			c5.4-13.1,14.8-15.5,26.8-21.8c11.1,0,26,0.6,33.8,5c17.5,8,12,39.1,3,51.6C270.8,196.2,265.6,196.8,260.4,196.8L260.4,196.8z
			 M207.2,230.5c-9-7.7-11.4-33.2-8.9-48.7C215.4,185.4,226.7,221.4,207.2,230.5L207.2,230.5z M184.3,230.5
			c-6.1-2.7-9.5-5.5-10.9-12.9c-4.4-13.9,9.8-28.1,15.9-35.8c1.3,0.4,2.7,0.7,4,1c0,18.7-2.7,31.8-6,45.7
			C186.3,229.2,185.3,229.8,184.3,230.5L184.3,230.5z M278.7,225.5c-6,0.3-11.9,0.7-17.9,1c1.6,5.2,1.2,14.3-1,18.9
			c-2.7,4.4-8.1,4.1-10.9,7.9c-7,9.3-10.1,20.6-19.9,26.8h-6c-1,2.6-2,5.3-3,7.9c-1.5,0.8-2.6,1.1-3.3,1.1c-1.2,0-1.8-0.6-2.5-0.6
			c-0.7,0-1.5,0.5-3,2.5c-2.3-1-4.6-2-7-3c-0.7,1.7-1.3,3.3-2,5c-2.1,0-4,0.1-5.6,0.1c-4.5,0-7.5-0.7-9.3-5.1c-2,1-4,2-6,3
			c-9-6.1-23.6-12.3-31.8-21.8c-7.8-9.1-6.1-16-17.9-21.8c-1.8-6.6-2.9-13.7-2-20.9c-5.7-0.3-11.7-0.6-17.6-1
			c-1.2,61.9,41.9,103.3,85,103.3c26.9,0,53.8-16.2,69.9-53.6c4.6-6.3,9.3-12.6,13.9-18.9C280,246,279.4,235.8,278.7,225.5
			L278.7,225.5z M339.8,276.7c-22.8,0-37.8,27.7-26.5,47.2c-39.7,16.2-79.5,32.4-119.2,48.7c-38.4-16.2-76.8-32.4-115.2-48.7
			c10.8-24.5-5-46.7-31.4-46.7c-0.1,0-0.2,0-0.4,0c-19,2.1-37.1,17-26.8,43.7c-15.8,10.3-30.6,38.1-8.9,54.6
			c6.1,4.6,13.2,6.7,20.2,6.7c14.3,0,28.1-8.9,31.4-22.6c27.1,11.6,54.3,23.2,81.4,34.8c-26.8,10.9-53.6,21.9-80.4,32.8
			c-8.4-11.7-22-22.4-35.5-22.4c-8.6,0-17.1,4.3-24.1,15.4c-11,17.4,0.3,42,15.9,45.7c-7,24.7,6.5,41,26.8,44.7
			c1.9,0.3,3.8,0.5,5.6,0.5c23.2,0,36-27.4,26.2-47.2c28.8-11.9,57.6-23.8,86.4-35.8c10.9-4.3,21.9-8.6,32.8-12.9
			c38.4,15.9,76.8,31.8,115.2,47.7c-9.9,20.5,2.6,48.2,26.4,48.2c1.8,0,3.6-0.2,5.4-0.5c22.3-3.8,30.5-20.3,26.8-44.7
			c23.5-7,24.8-42.8,6.1-55.6c-5.3-3.6-11.4-5.2-17.4-5.2c-14.6,0-28.9,9.3-31.3,22.1c-26.5-10.9-53-21.9-79.5-32.8h-2
			c8.7-8.4,67.4-32,81.4-33.8c2.6,13.2,16.6,21.8,30.8,21.8c6.6,0,13.2-1.8,18.9-5.9c18.2-13.1,15.5-48-7-54.6
			c3.8-24.7-4.6-40.6-26.8-44.7C343.3,276.9,341.5,276.7,339.8,276.7L339.8,276.7z"/>
	</g>
</g>
</svg>
