<?xml version="1.0" encoding="utf-8"?>
<!-- Generator: Adobe Illustrator 21.1.0, SVG Export Plug-In . SVG Version: 6.00 Build 0)  -->
<svg version="1.1" id="Layer_1" xmlns="http://www.w3.org/2000/svg" xmlns:xlink="http://www.w3.org/1999/xlink" x="0px" y="0px"
	 viewBox="0 0 512 512" style="enable-background:new 0 0 512 512;" xml:space="preserve">
<style type="text/css">
	.st0{fill:none;}
</style>
<g>
	<path d="M256,0C114.6,0,0,114.6,0,256s114.6,256,256,256s256-114.6,256-256S397.4,0,256,0z M256,460.1c-112.6,0-204-91.4-204-204
		s91.4-204,204-204s204,91.4,204,204S368.6,460.1,256,460.1z"/>
	<polygon points="204.4,200.4 233,171.8 208,146.4 179.4,175.3 150.8,146.4 125.4,171.8 154.3,200.4 125.4,229 150.9,253.9 
		179.4,225.4 208,254 233,228.9 	"/>
	<polygon points="360.9,200.4 389.5,171.8 364.5,146.4 335.9,175.3 307.3,146.4 281.9,171.8 310.8,200.4 281.9,229 307.3,253.9 
		335.9,225.4 364.4,254 389.5,228.9 	"/>
	<g>
		<path class="st0" d="M307.2,390.6c10,0,18.1-8.1,18.1-18.1v-18.1h-36.2v18.1C289.1,382.5,297.2,390.6,307.2,390.6z"/>
		<path d="M137.6,322.4v32.1H257v18.1c0,27.7,22.5,50.2,50.2,50.2s50.2-22.5,50.2-50.2v-18.1h17.1v-32.1H137.6z M325.3,354.4v18.1
			c0,10-8.1,18.1-18.1,18.1s-18.1-8.1-18.1-18.1v-18.1H325.3z"/>
	</g>
</g>
</svg>
