<?xml version="1.0" encoding="utf-8"?>
<!-- Generator: Adobe Illustrator 21.1.0, SVG Export Plug-In . SVG Version: 6.00 Build 0)  -->
<svg version="1.1" id="Layer_2" xmlns="http://www.w3.org/2000/svg" xmlns:xlink="http://www.w3.org/1999/xlink" x="0px" y="0px"
	 viewBox="0 0 509 512" style="enable-background:new 0 0 509 512;" xml:space="preserve">
<path d="M413,0v26c0,0-31.2,1.2-76.9,15.3H207V28.8c0-2.7-2.2-4.8-4.8-4.8h-35.3c-2.7,0-4.8,2.2-4.8,4.8v35.3c0,2.7,2.2,4.8,4.8,4.8
	h35.3c2.7,0,4.8-2.2,4.8-4.8V52.7h97C267.8,67,226.2,89.1,185,123h-64v64.7c-32.8,41.2-54.2,83.8-68.2,121V204h12.4
	c2.7,0,4.8-2.2,4.8-4.8v-35.3c0-2.7-2.2-4.8-4.8-4.8H29.8c-2.7,0-4.8,2.2-4.8,4.8v35.3c0,2.7,2.2,4.8,4.8,4.8h11.7v138.8
	c-11.4,39.3-14,67.7-14.4,73.2H0v96h96v-96H72c0.6-10.6,8.2-104.8,80.8-197h64.1v-64.8c99.5-80.6,196-82.2,196-82.2v24h96V0H413z
	 M35,169h25v25H35V169z M64,480H32v-32h32V480z M185,187h-32v-32h32V187z M197,59h-25V34h25V59z M477,63h-32V31h32V63z"/>
</svg>
