<?xml version="1.0" encoding="utf-8"?>
<!-- Generator: Adobe Illustrator 21.1.0, SVG Export Plug-In . SVG Version: 6.00 Build 0)  -->
<svg version="1.1" id="Layer_1" xmlns="http://www.w3.org/2000/svg" xmlns:xlink="http://www.w3.org/1999/xlink" x="0px" y="0px"
	 viewBox="0 0 550 512" style="enable-background:new 0 0 550 512;" xml:space="preserve">
<g>
	<path d="M479.5,107.4c-19.8,0-35.9-16.1-35.9-35.9s16.1-35.9,35.9-35.9s35.9,16.1,35.9,35.9S499.3,107.4,479.5,107.4z M479.5,64.4
		c-4,0-7.2,3.2-7.2,7.2s3.2,7.2,7.2,7.2s7.2-3.2,7.2-7.2C486.8,67.6,483.5,64.4,479.5,64.4z"/>
	<path d="M317.7,461.4v-9.2c0-10.4-8.4-18.8-18.8-18.8h-24.7c-10.4,0-18.8,8.4-18.8,18.8v9.2c0,10.4,8.4,18.8,18.8,18.8H299
		C309.4,480.2,317.7,471.7,317.7,461.4z M184.4,480.2h27c7.1,0,12.8-5.8,12.8-12.8v-21.1c0-7.1-5.8-12.8-12.8-12.8h-14.7
		c-4.6,0-8.8,2.4-11.1,6.3l-12.4,21.1C168.4,469.3,174.5,480.2,184.4,480.2z M364.3,222.6h29.4c12.7,0,21.8-12.4,18-24.6l-2.8-9
		c-2.5-7.9-9.7-13.2-18-13.2h-26.6c-2,0-4,0.1-6,0.3c-13.1,1.1-21.2,14.8-15.8,26.7l4,8.8c3.1,6.9,10.1,11.1,17.6,11
		C364.3,222.6,364.3,222.6,364.3,222.6z M331.9,230.7l-19.8-11.5c-6.7-3.8-15.2-0.7-17.7,6.5c-2.6,7.6-3.9,15.8-3.9,23.9
		c0,12.5,3.2,24.7,9.2,35.7c3.7,6.8,12.6,8.3,18.6,3.4l17.4-14.8c4-3.4,5.5-9,3.5-13.9c-1.2-2.8-2-6.3-2-10.4c0-2,0.2-4.1,0.6-6
		C338.8,238.6,336.3,233.3,331.9,230.7z M368.5,480.2h23.2c10.8,0,19.5-8.7,19.5-19.5V453c0-10.8-8.7-19.5-19.5-19.5h-23.2
		c-10.8,0-19.5,8.7-19.5,19.5v7.6C348.9,471.4,357.7,480.2,368.5,480.2z M458.7,325.2c5.2,1.4,10.2,3.4,14.8,6.2
		c7.1,4.3,16.1,3.2,22-2.6l7.8-7.7c8.2-8.1,6.9-21.6-2.7-28c-10.3-6.7-21.6-11.5-33.6-14.1c-11.2-2.5-21.8,6.1-21.8,17.6v10.9
		C445.1,315.9,450.7,323.1,458.7,325.2z M527.1,345.5L506,354c-5.4,2.2-8.4,8-7.3,13.7c0.7,3.5,1,7.1,1,10.8c0,4.3-0.5,8.6-1.5,12.7
		c-1.4,5.6,1.6,11.4,7,13.7l20.9,9.2c6.7,2.9,14.5-0.7,16.5-7.8c2.6-9,3.8-18.3,3.8-27.8c0-8.4-1-16.7-3-24.7
		C541.5,346.7,533.9,342.9,527.1,345.5z M442.4,442.7v26.4c0,6,5.2,10.6,11.2,9.9c8.5-1,19.9-2.7,26.2-4.9
		c9.6-3.5,18.7-8.4,26.9-14.8c4.8-3.7,5.4-10.5,1.3-14.9l-18.6-19.6c-3.4-3.6-9-4.1-13-1.3c-5.3,3.7-11.1,6.3-17.2,8
		c-1.8,0.5-4.8,0.8-7.7,1.2C446.3,433.2,442.4,437.5,442.4,442.7z M354.7,287.4l-4.5,17.5c-2.4,9.3,4.5,18.5,14.1,18.5
		c0.1,0,0.1,0,0.2,0H399c8.2,0,14.9-6.7,14.9-14.9v-17c0-8.2-6.6-14.9-14.8-14.9c-9.3-0.1-21.1-0.2-29.7-0.4
		C362.6,276,356.4,280.7,354.7,287.4z"/>
	<path d="M107.7,213.7c-16.9-2.4-38.4,11.2-45.2,25.2l0,0c-13.9,22.5-3,46.5,1.2,51.9c3.6,3.4,12-3.1,9.2-9.7
		c-6.1-11.7-5.8-25.6,0.5-36.2c13-19.3,24.8-16.4,32.2-18.8C111.6,224.1,112.3,214.7,107.7,213.7z M102,155.6
		C47.5,158.2,3.2,202.3,0.5,256.8c-2.6,51.5,31.4,95.4,78.2,108.4l0,0l27.8,144.9h2.5l26.6-144.9c22.6-6.2,78.5-35.3,78.5-102.9
		C213.9,201.6,163.3,152.7,102,155.6z M45,265.9c-0.1-1.1-0.1-2.2-0.1-3.3c0-21.4,10.8-40.3,27.2-51.6c10.1-6.9,22.2-11,35.4-11
		c34.5,0,62.6,28,62.6,62.5s-28,62.5-62.6,62.5C74,325.1,46.7,298.9,45,265.9z M97.2,248.9c-8.2,0-13.8,6.6-13.8,13.7
		c0,8.3,6.8,13.7,13.8,13.7c9,0,13.7-7.7,13.7-13.7C111,255.2,104.8,248.9,97.2,248.9z"/>
	<path d="M479.7,195.8c-29.2-35.1-70.5-92.8-70.5-125.4c0-29.7,23.2-70.4,70.3-70.4C525,0,550,37.6,550,70.3v0.1
		C550,103,507.1,161.6,479.7,195.8z M437.7,70.4c0,19.3,36.9,71.6,41.8,78.4c4.8-6.6,41.8-57.9,41.8-78.4
		c0-18.6-14.1-41.8-41.8-41.8C450.2,28.6,437.7,54.2,437.7,70.4z"/>
</g>
</svg>
