<?xml version="1.0" encoding="utf-8"?>
<!-- Generator: Adobe Illustrator 21.1.0, SVG Export Plug-In . SVG Version: 6.00 Build 0)  -->
<svg version="1.1" id="Layer_1" xmlns="http://www.w3.org/2000/svg" xmlns:xlink="http://www.w3.org/1999/xlink" x="0px" y="0px"
	 viewBox="0 0 550 512" style="enable-background:new 0 0 550 512;" xml:space="preserve">
<g>
	<path d="M114.3,512l-23.9-30.5c-7-9.3-25.4-33.6-43.3-61.6c-32.1-50-47-85.3-47-111.1c0-15.3,3-30.3,8.9-44.4l0.1-0.1
		c5.8-13.6,14-25.8,24.4-36.1c10.4-10.5,22.6-18.7,36.2-24.5c14.2-6,29.1-9,44.4-9s30.3,3,44.4,8.9c13.6,5.7,25.9,13.9,36.3,24.4
		c10.4,10.4,18.6,22.6,24.4,36.2c6,13.9,9,28.9,9,44.4v0.1c0,25.8-15,61.1-47,111.1c-20.9,32.5-41.6,59.5-43.9,62.4l0,0L114.3,512z
		 M89.9,480.9c0,0,0.1,0.1,0.2,0.3L89.9,480.9z M51.6,282.4c-3.5,8.4-5.3,17.2-5.3,26.3c0,7.3,3.8,30.2,39.7,86
		c10,15.6,20.1,30,28.1,41c7.8-10.7,18-25.2,28.1-41c35.8-55.7,39.7-78.7,39.7-86c-0.1-9.3-1.9-18.2-5.3-26.4v-0.1
		c-3.4-8-8.3-15.2-14.5-21.5c-6.2-6.2-13.5-11.1-21.5-14.4c-8.4-3.6-17.2-5.3-26.4-5.3s-18,1.8-26.4,5.3c-8,3.4-15.2,8.3-21.5,14.4
		C60,267.1,55.1,274.3,51.6,282.4z"/>
	<path d="M114,367.2c-32,0-58-26-58-58s26-58,58-58s58,26,58,58S146.1,367.2,114,367.2z M114,297.4c-6.4,0-11.7,5.3-11.7,11.7
		c0,6.4,5.3,11.7,11.7,11.7c6.4,0,11.7-5.3,11.7-11.7C125.7,302.6,120.5,297.4,114,297.4z"/>
	<path d="M491.4,0.3C463,1.6,440,24.6,438.5,53c-1.3,26.8,16.4,49.7,40.8,56.4l0,0l14.9,77.1h0.7l14.2-77.2
		c11.7-3.2,22-10.2,29.2-19.7c7.2-9.4,11.5-21.2,11.5-33.9C549.8,24.3,523.4-1.2,491.4,0.3z M494.3,88.6c-18,0-32.5-14.6-32.5-32.6
		c0-18,14.6-32.6,32.5-32.6s32.6,14.6,32.6,32.6C526.9,73.9,512.3,88.6,494.3,88.6z M492.5,49.8c-3.4-2-7.8-0.8-9.7,2.7
		c-1.9,3.4-0.8,7.8,2.6,9.7c3.4,1.9,7.8,0.8,9.7-2.6S496,51.8,492.5,49.8z M491.3,37.4c4.6,0,5.9-5.5,3-6.7
		c-7.4-0.5-17.9,3.1-23.6,13.1c-6.2,10.9-2.8,22,0.6,27c1.4,1.7,7-1,4.3-6c-2.9-6.6-2.3-12.5,0.7-17.8C479,42.4,484.4,38,491.3,37.4
		z"/>
	<path d="M321.4,461.3v-9.1c0-10.3-8.4-18.7-18.7-18.7H278c-10.3,0-18.7,8.4-18.7,18.7v9.1c0,10.3,8.4,18.7,18.7,18.7h24.6
		C313,480,321.4,471.6,321.4,461.3z M188.6,480h26.9c7,0,12.8-5.7,12.8-12.8v-21c0-7-5.7-12.8-12.8-12.8H201c-4.6,0-8.8,2.4-11,6.3
		l-12.3,21C172.6,469.2,178.7,480,188.6,480z M367.7,223.7H397c12.7,0,21.7-12.3,17.9-24.4l-2.8-8.9c-2.5-7.8-9.7-13.1-17.9-13.1
		h-26.5c-2,0-4,0.1-6,0.3c-13,1.1-21.1,14.7-15.7,26.5l4,8.8c3.1,6.8,10,11,17.5,10.9C367.6,223.7,367.6,223.7,367.7,223.7z
		 M335.3,231.7l-19.7-11.5c-6.7-3.8-15.1-0.7-17.6,6.5c-2.6,7.6-3.9,15.7-3.9,23.8c0,12.4,3.2,24.6,9.1,35.5
		c3.6,6.8,12.6,8.3,18.5,3.4l17.3-14.7c4-3.4,5.5-8.9,3.5-13.9c-1.2-2.8-2-6.3-2-10.3c0-2,0.2-4.1,0.6-6
		C342.2,239.5,339.8,234.3,335.3,231.7z M371.8,480h23.1c10.8,0,19.4-8.7,19.4-19.4V453c0-10.8-8.7-19.4-19.4-19.4h-23.1
		c-10.8,0-19.4,8.7-19.4,19.4v7.6C352.4,471.3,361,480,371.8,480z M461.7,325.7c5.2,1.4,10.1,3.4,14.8,6.2c7,4.3,16.1,3.2,21.9-2.6
		l7.8-7.7c8.1-8,6.8-21.5-2.7-27.8c-10.2-6.7-21.5-11.4-33.5-14c-11.1-2.5-21.7,6.1-21.7,17.5v10.9
		C448.1,316.5,453.6,323.7,461.7,325.7z M529.6,346l-21,8.4c-5.4,2.2-8.4,7.9-7.3,13.6c0.7,3.5,1,7.1,1,10.8c0,4.3-0.5,8.6-1.5,12.7
		c-1.4,5.6,1.6,11.3,6.9,13.7l20.8,9.1c6.7,2.9,14.4-0.7,16.4-7.8c2.6-8.9,3.8-18.2,3.8-27.6c0-8.4-1-16.6-3-24.6
		C544,347.2,536.4,343.4,529.6,346z M445.4,442.7V469c0,5.9,5.2,10.6,11.1,9.9c8.5-1,19.8-2.6,26.1-4.9c9.6-3.5,18.6-8.4,26.8-14.7
		c4.7-3.6,5.4-10.5,1.3-14.9L492.1,425c-3.4-3.6-8.9-4.1-13-1.3c-5.3,3.6-11,6.3-17.1,7.9c-1.8,0.5-4.7,0.8-7.7,1.2
		C449.2,433.3,445.4,437.6,445.4,442.7z M358.1,288.2l-4.5,17.4c-2.4,9.3,4.5,18.4,14,18.4c0.1,0,0.1,0,0.2,0h34.4
		c8.2,0,14.9-6.7,14.9-14.9v-16.9c0-8.2-6.6-14.9-14.8-14.9c-9.2-0.1-21-0.2-29.6-0.4C365.9,276.9,359.9,281.5,358.1,288.2z"/>
</g>
</svg>
