<?xml version="1.0" encoding="utf-8"?>
<!-- Generator: Adobe Illustrator 21.1.0, SVG Export Plug-In . SVG Version: 6.00 Build 0)  -->
<svg version="1.1" id="Layer_1" xmlns="http://www.w3.org/2000/svg" xmlns:xlink="http://www.w3.org/1999/xlink" x="0px" y="0px"
	 viewBox="0 0 550 512" style="enable-background:new 0 0 550 512;" xml:space="preserve">
<g>
	<path d="M465.9,102.8v55h-52.2v-30.3c0-5.6-4.5-10.1-10.1-10.1h-341c-5.6,0-10.1,4.5-10.1,10.1v211.6c0,5.6,4.5,10.1,10.1,10.1h261
		l-0.2,58.7H249l32.9,32.8h40.8c2.3,0,4.1,0.6,5.6,1.8c1.5,1.8,2.3,3.8,2.3,6.3v11.4H135.4v-11.4c0-2.7,0.6-4.8,1.8-6.3
		c1.5-1.2,3.6-1.8,6.4-1.8h40.4l32.5-32.8H37.7c-11.2,0-20.3-3.3-27.3-10C3.5,390.8,0,381.7,0,370.7v-268c0-11.3,3.5-20.4,10.5-27.3
		c7-6.8,16.1-10.3,27.3-10.3h390c11.4,0,20.7,3.5,27.6,10.3C462.3,82.3,465.9,91.4,465.9,102.8z"/>
	<path id="_x35_2" d="M544,185.1c-3.7-3.4-10.4-5.1-20.2-5.1H370.7c-9.7,0-16.4,1.7-20.2,5.1c-4,4.2-6,10.8-6,19.9v229.7
		c0,9.1,2.1,15.6,6,19.6c4,4,10.7,5.9,20.2,5.9h153.1c9.7,0,16.4-2,20.2-5.9c4-3.7,6-10.2,6-19.6V205C550,195.6,547.9,189,544,185.1
		z M447,451.4c-7.7,0-13.9-6.2-13.9-13.9c0-7.7,6.2-13.9,13.9-13.9s13.9,6.2,13.9,13.9C461,445.2,454.7,451.4,447,451.4z M514,407.2
		c0,1.9-0.7,3.7-1.9,5.1c-1.2,1.2-2.9,1.8-5.2,1.8H387.6c-2,0-3.7-0.6-5.2-1.8c-1.3-1.5-1.9-3.2-1.9-5.1V224.5
		c0-1.9,0.7-3.7,1.9-5.1c1.2-1.2,2.9-1.8,5.2-1.8h119.3c2.2,0,4,0.6,5.2,1.8c1.2,1.5,1.9,3.2,1.9,5.1L514,407.2L514,407.2z"/>
</g>
</svg>
