<?xml version="1.0" encoding="utf-8"?>
<!-- Generator: Adobe Illustrator 21.1.0, SVG Export Plug-In . SVG Version: 6.00 Build 0)  -->
<svg version="1.1" id="Layer_1" xmlns="http://www.w3.org/2000/svg" xmlns:xlink="http://www.w3.org/1999/xlink" x="0px" y="0px"
	 viewBox="0 0 512 512" style="enable-background:new 0 0 512 512;" xml:space="preserve">
<g id="_x35_2_1_">
	<path d="M492.2,232.7c-2.4,4.1-6.8,6.8-11.8,6.8c-5.2,0-9.7-2.9-12-7.1c-0.2,0-0.4,0-0.6,0c-4.5-41.2-20.7-78.8-45.3-109.5
		c0.1-0.1,0.2-0.2,0.3-0.3c-1.4-4.7-0.2-9.9,3.5-13.6c3.6-3.6,8.6-4.8,13.2-3.6c6.6-9.2,5.7-22.1-2.6-30.4
		c-8.3-8.3-21.2-9.1-30.4-2.6c1.2,4.6,0,9.6-3.6,13.2c-3.7,3.7-8.9,4.8-13.5,3.5c-0.1,0.1-0.2,0.2-0.3,0.3
		C358.3,64.8,320.7,48.5,279.5,44c0-0.1,0-0.3,0-0.4c-4.3-2.3-7.1-6.9-7.1-12.1c0-5.1,2.7-9.5,6.8-11.9C277.3,8.5,267.6,0,255.8,0
		c-11.7,0-21.4,8.5-23.3,19.7c4.1,2.4,6.8,6.8,6.8,11.8c0,5.2-2.9,9.7-7.1,12c0,0.1,0,0.3,0,0.4c-41.2,4.5-78.8,20.8-109.5,45.4
		c-0.1-0.1-0.2-0.2-0.3-0.3c-4.7,1.4-9.9,0.2-13.6-3.5c-3.6-3.6-4.8-8.6-3.6-13.2C96,65.8,83.1,66.7,74.8,75
		c-8.3,8.3-9.1,21.2-2.6,30.4c4.6-1.2,9.6,0,13.2,3.6c3.7,3.7,4.8,8.9,3.5,13.5c0.1,0.1,0.2,0.2,0.3,0.3
		C64.7,153.6,48.5,191.2,44,232.4c-0.2,0-0.4,0-0.5,0c-2.3,4.3-6.9,7.1-12.1,7.1c-5.1,0-9.5-2.7-11.9-6.8
		C8.3,234.6-0.2,244.3-0.2,256c0,11.7,8.5,21.4,19.7,23.3c2.4-4.1,6.8-6.8,11.8-6.8c5.2,0,9.7,2.9,12,7.1c0.2,0,0.4,0,0.6,0
		c4.6,41.1,20.8,78.7,45.4,109.4c-0.2,0.2-0.3,0.3-0.5,0.5c1.4,4.7,0.2,9.9-3.5,13.6c-3.6,3.6-8.6,4.8-13.2,3.6
		c-6.6,9.2-5.7,22.1,2.6,30.4c8.3,8.3,21.2,9.1,30.4,2.6c-1.2-4.6,0-9.6,3.6-13.2c3.7-3.7,8.9-4.8,13.5-3.5c0.2-0.2,0.3-0.3,0.5-0.5
		c30.7,24.5,68.2,40.7,109.4,45.3c0,0.2,0,0.5,0,0.7c4.3,2.3,7.1,6.9,7.1,12.1c0,5.1-2.7,9.5-6.8,11.9c1.9,11.2,11.6,19.7,23.3,19.7
		c11.7,0,21.4-8.5,23.3-19.7c-4.1-2.4-6.8-6.8-6.8-11.8c0-5.2,2.9-9.7,7.1-12c0-0.2,0-0.5,0-0.7c41.1-4.5,78.7-20.8,109.4-45.3
		c0.2,0.2,0.3,0.3,0.5,0.5c4.7-1.4,9.9-0.2,13.6,3.5c3.6,3.6,4.8,8.6,3.6,13.2c9.2,6.6,22.1,5.7,30.4-2.6c8.3-8.3,9.1-21.2,2.6-30.4
		c-4.6,1.2-9.6,0-13.2-3.6c-3.7-3.7-4.8-8.9-3.5-13.5c-0.2-0.2-0.3-0.3-0.5-0.5c24.6-30.7,40.8-68.2,45.4-109.4c0.2,0,0.4,0,0.6,0
		c2.3-4.3,6.9-7.1,12.1-7.1c5.1,0,9.5,2.7,11.9,6.8c11.2-1.9,19.7-11.6,19.7-23.3C511.8,244.3,503.3,234.6,492.2,232.7z
		 M255.8,416.7c-88.9,0-160.9-72-160.9-160.9S167,94.9,255.8,94.9s160.9,72,160.9,160.9S344.7,416.7,255.8,416.7z"/>
	<path d="M340,135c14.3,10,26.8,22.5,36.8,36.8L335,213.6c-8.3-15.6-21.2-28.4-36.7-36.8L340,135z M327.7,255.8
		c0,39.7-32.2,71.9-71.9,71.9S184,295.5,184,255.8s32.2-71.9,71.9-71.9S327.7,216.2,327.7,255.8z M230,110.8
		c8.4-1.5,17-2.3,25.8-2.3c8.9,0,17.7,0.8,26.2,2.3V170c-8.3-2.5-17.1-3.9-26.2-3.9c-9,0-17.7,1.3-25.8,3.8V110.8z M171.8,134.9
		l41.8,41.8c-15.6,8.3-28.5,21.1-36.8,36.7L135,171.6C145,157.3,157.5,144.8,171.8,134.9z M108.6,255.8c0-8.9,0.8-17.6,2.3-26H170
		c-2.5,8.2-3.8,17-3.8,26c0,9,1.3,17.7,3.8,26h-59.1C109.4,273.4,108.6,264.7,108.6,255.8z M171.8,376.8
		c-14.3-10-26.8-22.4-36.8-36.8l41.8-41.8c8.4,15.6,21.2,28.4,36.8,36.7L171.8,376.8z M282,400.8c-8.5,1.5-17.2,2.3-26.2,2.3
		c-8.8,0-17.5-0.8-25.8-2.3v-59c8.2,2.5,16.9,3.8,25.8,3.8c9.1,0,17.9-1.4,26.2-3.9V400.8z M340.1,376.6l-41.8-41.8
		c15.6-8.4,28.4-21.2,36.7-36.8l41.8,41.8C366.8,354.2,354.4,366.6,340.1,376.6z M400.8,281.8h-59.1c2.5-8.2,3.8-16.9,3.8-26
		c0-9.1-1.3-17.8-3.8-26h59.1c1.5,8.5,2.3,17.2,2.3,26C403.1,264.7,402.3,273.4,400.8,281.8z"/>
</g>
</svg>
