<?xml version="1.0" encoding="utf-8"?>
<!-- Generator: Adobe Illustrator 21.1.0, SVG Export Plug-In . SVG Version: 6.00 Build 0)  -->
<svg version="1.1" id="Layer_4" xmlns="http://www.w3.org/2000/svg" xmlns:xlink="http://www.w3.org/1999/xlink" x="0px" y="0px"
	 viewBox="0 0 512 512" style="enable-background:new 0 0 512 512;" xml:space="preserve">
<path d="M412,0.2H99.3L0,195.8l256.3,315.7L512,196.1L412,0.2z M391.5,45.2l-22.1,92.6l-27.9-92.6H391.5z M171.6,45.2l-28.1,93.1
	l-22.1-93.1H171.6z M94.9,89.8l14.7,62.4H60.5L94.9,89.8z M79.9,228.2h47.2L188,362.7L79.9,228.2z M257.5,438.8L186,228.2h141.4
	L257.5,438.8z M183.7,152.2l37.3-107h70.8l37.6,107H183.7z M325.8,362l60.8-133.8h46.7L325.8,362z M403.3,152.2l16.8-64.6l31.9,64.6
	H403.3z"/>
</svg>
