<?xml version="1.0" encoding="utf-8"?>
<!-- Generator: Adobe Illustrator 22.0.1, SVG Export Plug-In . SVG Version: 6.00 Build 0)  -->
<svg version="1.1" id="Layer_2" xmlns="http://www.w3.org/2000/svg" xmlns:xlink="http://www.w3.org/1999/xlink" x="0px" y="0px"
	 viewBox="0 0 512 512" style="enable-background:new 0 0 512 512;" xml:space="preserve">
<g id="_x35_2">
	<ellipse cx="216.8" cy="47.9" rx="47.9" ry="47.9"/>
	<path d="M512,492.4c-1.1-73.5-47-133-103.6-133c-4.6,0-9.1,0.4-13.5,1.1c-15.2-16.3-34.6-31.7-56.7-44.4c-1.8-1-3.6-1.5-5.2-1.5
		c-1.8,0-3.3,0.6-3.9,1.9l-12.4,23.3l-69.5-38.5c2.8-4.6,3.8-10.6,2.7-17.2c-3.1-18.8-6.5-44.8-8-52.5c-0.7-2.7-1.3-26.6-0.6-33.3
		c2.7-28.1,4.2-63.6-32.2-85.6L168.9,94C124.1,75.3,107,76.6,87,84c-3.5,1.3-14.5,5.4-32.5,25.6c-3.8,4.3-33.2,45.3-50.1,68.6
		c-7.4,10.2-5.1,24.4,5,31.8c4.1,3,8.8,4.4,13.5,4.4c5.2,0,10.3-1.8,14.5-5.1l33.2,18.4c-0.4,1.3-0.8,2.4-1.1,3.2
		c-14.7,34.8-5.4,74.6,0,109.3c2,12,4,28.1,3.3,34.1c-5.2,10.4-29.2,65.6-45.3,102.9c-7.1,16.5,4.9,34.8,22.9,34.8
		c4.9,0,9.5-1.4,13.5-4c3.9-2.5,7.2-6.2,9.2-10.6c12.1-26.6,37.3-81.5,43.9-94.5c6.7-14,12.3-28.6,9.6-50
		c14,17.4,14.9,35.3,20.3,46.7c0.8,5.2-0.5,55.3-1.3,86.8c-0.4,14,10.9,25.6,24.9,25.6h1.2c13.5,0,24.6-10.8,24.9-24.3
		c1-38.3,2.6-108.6,1.3-111.6c-3.3-7.3-18.1-46-45.5-76.8c0.4-1.2,3.5-9.8,8-22l53.8,29.8l6.5,3.6l86.2,47.7l-14.5,27.2
		c-0.1,0.2-0.2,0.3-0.3,0.5c-1.2,3.1,1.1,7.2,5.2,9.5c10.4,5.8,20.6,10.6,30.6,14.6c-6.4,10.5-11.7,22.3-15.5,35
		c-36.8-5.1-64.7,27.1-70.9,66.8H512C512,512,512.1,498.9,512,492.4z M76.7,207.1l-26.7-14.8c16.5-24.2,37.6-54.8,40-56.8
		c4.7-0.7,0.7-2.3,14.8-0.3C95.2,146.3,84.2,182.2,76.7,207.1z M167.5,257.4c11-29.4,24.8-65.1,30.5-75.4c0,5.4-2.7,49.7-1.3,59.1
		c0.4,2.3,3.3,19,6.1,35.9L167.5,257.4z"/>
</g>
</svg>
