<?xml version="1.0" encoding="utf-8"?>
<!-- Generator: Adobe Illustrator 21.1.0, SVG Export Plug-In . SVG Version: 6.00 Build 0)  -->
<svg version="1.1" id="Layer_6" xmlns="http://www.w3.org/2000/svg" xmlns:xlink="http://www.w3.org/1999/xlink" x="0px" y="0px"
	 viewBox="0 0 550 512" style="enable-background:new 0 0 550 512;" xml:space="preserve">
<g>
	<path d="M330.7,268.9c1.7-3.7,4.3-6.7,6.8-9.7c2.6-3.1,5.2-6.4,5.4-8.7s-2.2-5.8-4.5-9.2c-2.1-3.2-4.3-6.5-5.7-10.4
		c-1.3-3.7-1.7-7.6-2.1-11.3c-0.3-4.1-0.7-8.3-2.5-10.2c-1.8-1.9-5.9-2.7-10-3.5c-3.7-0.7-7.5-1.4-11.1-3.2
		c-3.7-1.7-6.8-4.2-9.8-6.7c-3.2-2.6-6.4-5.2-8.7-5.3c-2.3-0.1-5.9,2.2-9.3,4.5c-3.2,2.1-6.6,4.3-10.4,5.7
		c-3.7,1.3-7.6,1.7-11.3,2.1c-4.1,0.4-8.4,0.8-10.3,2.5c-1.9,1.7-2.8,5.9-3.6,10c-0.7,3.7-1.5,7.4-3.2,11c-1.7,3.7-4.3,6.7-6.8,9.7
		c-2.6,3.1-5.2,6.4-5.4,8.7c-0.1,2.3,2.2,5.8,4.5,9.2c0.1,0.2,0.2,0.3,0.3,0.5l0.1,0.1c2.2,3.3,4.1,6.3,5.3,9.7
		c1.3,3.7,1.7,7.6,2.1,11.3c0.3,4.1,0.7,8.3,2.5,10.2c1.8,1.9,5.9,2.7,10,3.5c3.7,0.7,7.5,1.4,11.1,3.2c1.8,0.8,3.5,2,5.2,3.1
		c0.1,0.1,0.2,0.1,0.3,0.2c1.3,0.9,2.5,1.9,3.8,2.9c0,0,0,0.1,0.1,0.1c0.1,0.2,0.3,0.2,0.5,0.4c3.2,2.6,6.4,5.2,8.7,5.3
		c2.3,0.1,5.9-2.2,9.3-4.5c3.2-2.1,6.6-4.3,10.4-5.7c3.7-1.3,7.6-1.7,11.3-2.1c4.1-0.4,8.4-0.8,10.3-2.5c1.9-1.7,2.8-5.9,3.6-10
		C328.2,276.3,329,272.5,330.7,268.9z"/>
	<path d="M546.4,106.7c-2.5-22.5-13.9-46-31.7-65.7c-18-19.8-40.3-33.3-62.8-38.2c-23.7-5.2-45.5-0.3-61.1,13.8
		c-1.7,1.5-3.1,3.2-4.3,5.1c-20.7,33.4-45.3,64.7-76.9,98c-4.9-2.4-10.9-4.5-18-4.8c-15.9-0.8-27.9,7.1-37.6,13.5l-0.1,0.1
		c-3.6,2.4-7.4,4.9-9.7,5.7l-0.1,0c-1.9,0.7-6.2,1.1-10,1.5l-0.4,0c-11.1,1.1-26.2,2.5-38.4,13.5c-12.2,11-15.2,25.8-17.4,36.7
		c-0.8,3.9-1.7,8.2-2.6,10.1c-1.2,2.3-4.2,6-6.8,9.2c-7.3,8.9-16.5,20-17.3,35.8c-0.5,7.8,1.4,14.5,3.8,20.2
		c-37.2,30.2-73.2,54.2-109.7,73.3c-0.1,0-0.1,0-0.2,0c-3.3,1.1-6.7,2.4-10.1,4.2c-4.4,2.3-8.2,4.9-11.5,7.8c-0.3,0.3-0.7,0.6-1,1
		c-15,14.1-21.7,34.7-19,58.3c2.6,22.7,14,45.9,31.8,65.7c18,19.8,40.3,33.3,62.7,38.2c23.7,5.2,45.5,0.3,61.1-13.8
		c0.4-0.4,0.8-0.7,1-1.1c2.8-2.7,5.5-5.8,7.7-9.2c2.4-3.4,4.1-7,5.4-9.8c22.8-34.4,50.6-67.6,84.6-101.3c5.3,2.9,12,5.3,19.8,5.8
		c7.3,0.3,13.6-1.2,19.1-3.3l66.7,107.4c4.3,6.9,12,11.1,20.3,11c1.6-0.1,3.1-0.2,4.6-0.6c6.4-1.5,12-5.5,15.2-11.3l36.7-64.5
		l68.3-29.8c2.3-1,4.4-2.3,6.3-4.1c4.2-3.8,6.8-8.9,7.5-14.4c1-8.1-2.4-16.2-8.8-21.2l-100.8-77c2.7-5,4.9-11.3,5.3-18.5
		c0.4-7.1-1.1-13.2-3.1-18.3c36.6-27.9,70.4-49,106-66.2c2-0.9,3.8-2.2,5.5-3.7C542.1,151.7,549.3,130.7,546.4,106.7z M131.5,455.2
		c-0.1,0.2-0.3,0.5-0.4,0.8c-1,2.4-2,4.1-3,5c-0.2,0.2-0.5,0.5-0.6,0.6c-10.4,8.5-36.9,1.2-57.5-21.5c-21-23.1-25.4-50.5-15.3-59.4
		c0.4-0.4,1.4-0.9,2.5-1.5c0.5-0.2,1-0.4,1.5-0.6c18.8,3,39.2,22.4,46.6,45.1c3.9,11.8,3.7,22.2,0.1,29.8
		c12.2-4.9,17-20.7,10.5-40.1c-1.8-5.4-4.3-10.6-7.4-15.4c-10.5-16.8-27.4-29.3-42.6-30c-1.7-0.1-3.4,0-4.9,0.2
		c1.6-0.3,3.4-0.3,5.2-0.2c15.2,0.9,32.1,13.3,42.6,30.1c1.2,1.2,2.6,2.5,3.7,3.9C130.5,421.5,135.6,443.4,131.5,455.2z
		 M169.2,403.3c-5.4-11.5-12.9-22.5-21.9-32.4c-9-9.9-19.3-18.4-30.1-24.8c18.5-11.9,36.8-25,55.6-39.7c1.2,9.7,3.9,21,12.6,30.5
		c8.6,9.5,19.7,13.3,29.2,15.6C198.2,369.2,183.1,386,169.2,403.3z M331.2,313.3c-6.6,0.5-14.1,1.3-21.7,3.9
		c-7.7,2.8-14.2,7-19.8,10.7l-0.2,0.1c-2.6,1.7-7.1,4.7-9.4,5.6c-2.2-1.1-6.2-4.5-8.9-6.6c-0.1-0.1-0.1-0.2-0.2-0.2
		c-0.3-0.2-0.6-0.5-0.8-0.8c-2.2-1.8-4.4-3.5-6.6-5l-0.7-0.5c-3.7-2.7-7-4.7-10.3-6.2c-7.2-3.4-14.6-4.8-21.1-6.1l-0.2,0
		c-3.5-0.6-9.1-1.8-11.2-2.9c-0.9-2.2-1.4-7.8-1.7-11.4l0-0.1c-0.6-6.6-1.4-14.1-4-21.5c-2.5-6.8-6.1-12.6-10-18.5
		c-0.2-0.3-0.4-0.7-0.7-1c0-0.1-0.1-0.2-0.2-0.3c-1.7-2.5-4.7-7.1-5.6-9.3c1.1-2.2,4.5-6.2,6.6-8.8c4.3-5.2,9.3-11.2,12.8-18.7
		c3.4-7.2,4.9-14.5,6.2-21l0.1-0.1c0.7-3.5,1.9-9.1,2.9-11.2c2.2-0.9,8-1.4,11.5-1.7l0.1,0c6.6-0.6,14.2-1.4,21.7-4
		c7.7-2.8,14.2-7,19.8-10.7l0.2-0.1c2.6-1.7,7.1-4.7,9.4-5.6c2.2,1.1,6.2,4.5,8.8,6.5c5.3,4.3,11.2,9.2,18.8,12.7
		c7.2,3.4,14.6,4.9,21.1,6.1l0.2,0c3.5,0.6,9.1,1.8,11.2,2.9c0.9,2.2,1.4,7.8,1.7,11.3l0,0.2c0.6,6.6,1.4,14.1,4,21.5
		c2.8,7.6,7,14,10.7,19.6l0.1,0.2c1.7,2.6,4.7,7.1,5.6,9.3c-1.1,2.1-4.5,6.2-6.6,8.8c-4.4,5.2-9.3,11.2-12.9,18.7
		c-3.4,7.2-4.9,14.5-6.2,21l0,0.2c-0.6,3.5-1.8,9-2.9,11.2C340.6,312.5,334.9,313,331.2,313.3L331.2,313.3z M454,362.4l-39.4,17.2
		c-2.3,1-4.4,2.4-6.3,4c-1.8,1.7-3.4,3.6-4.7,5.8l-21.2,37.2l-42.2-67.7c10.4-1.1,23.2-3.5,33.8-13c10.5-9.5,14.2-21.8,16.4-32
		L454,362.4z M497,129.8c-34.1,16.6-66.3,36.5-100.2,61.5c-1.2-10.2-3.6-22.7-12.9-32.8c-9.3-10.2-21.4-13.9-31.6-16.1
		c28.4-30.8,51.4-60.6,71.6-92.8c11.2-6.7,36,0.6,56,22.6C500,94,504.7,119.4,497,129.8z"/>
</g>
</svg>
