<?xml version="1.0" encoding="utf-8"?>
<!-- Generator: Adobe Illustrator 21.1.0, SVG Export Plug-In . SVG Version: 6.00 Build 0)  -->
<svg version="1.1" id="Layer_6" xmlns="http://www.w3.org/2000/svg" xmlns:xlink="http://www.w3.org/1999/xlink" x="0px" y="0px"
	 viewBox="0 0 550 512" style="enable-background:new 0 0 550 512;" xml:space="preserve">
<path d="M526.3,100.8c-16.4-25.5-39.3-45.2-64.7-55.4c-30.8-12.4-63.1-10.1-88.7,6.3c-4.8,3.1-9.2,6.9-13,11.3l-0.1,0.1l-0.1,0.1
	c-19.6,22.7-42.2,43.4-71.3,65.1c-8.5,6.3-16.2,12.1-23.3,17.2c-2.4,0.9-4.5,2.1-6.4,3.8l-74-91.6c-2.8-3.5-7.6-2.4-7.5,1.8
	l1.1,51.2c0.1,2.6-1.8,4.4-4.3,3.9l-47.4-9.4c-4-0.8-5.8,4-3,7.6l60.3,74.8c2.6,3.3,6.5,4.8,9.9,3.9c1.3-0.6,2.7-1,4.2-1.2
	c-9.9,6-20.8,12.1-33.1,19l-0.5,0.3l-0.5,0.3c-30.5,17.9-59.3,31.4-87.5,41.2c-6.6,1.1-13,3.1-19.3,5.7c-5.1,2-9.9,4.5-14.3,7.3
	c-1.1,0.7-2.1,1.4-3.1,2.1c-23.8,16.7-38.1,44.3-39.5,76.1c-1.1,27.2,7.2,56.1,23.6,81.6c16.5,25.5,39.4,45.2,64.7,55.4
	c30.8,12.4,63.1,10.1,88.7-6.3c0.2-0.1,0.3-0.2,0.4-0.3c0.3-0.2,0.5-0.3,0.7-0.4c10.6-6.8,19.2-15.5,25.9-25.6
	c20.4-21.3,44.2-41.4,72.6-61.3l1-0.7l1-0.7c15.1-11.7,31.7-23.5,49.4-34.9c0.1,2,2.4,3.7,3.9,2.5l61.9-37.4c1.7-1.6,3.1-3.4,4-5.7
	c1.2-0.7,2.6-1.3,3.8-2l0.5-0.3l0.5-0.3c31.8-17.4,60-29.4,88.9-37.8h0.1h0.1c5.5-1.7,10.7-4,15.6-7.1c25.6-16.5,41.1-44.9,42.6-78
	C551.1,155.4,542.7,126.3,526.3,100.8z M139.9,421.6c-2.3,8.1-7.7,12.9-15.8,13.8c-1.3,0.2-2.6,0.2-4.1,0.1c-8.4-1.3-17-4.8-25.2-10
	c-10.4-7.4-21.1-19-30.3-35.5l0,0c-7.7-13.8-12.1-28.3-13.5-41.2c-0.3-17.4,6.1-32.5,18.7-41c14.1-5.1,30.1-3.4,45.8,4.8l-39.7,21.9
	c-7.9,4.4-9.1,13-6.1,19.4c3,6.2,10.4,10.9,18.8,7.6c7.4-2.9,32.2,2.2,44.8,24.6C140.3,398.3,142.8,411.7,139.9,421.6z M167.9,391.7
	c0,0.2,0,0.4-0.1,0.5c0,0,0,0,0-0.1c0,0.1,0,0.1,0,0.2c-5.5-20.2-18.9-40.4-40.6-52.3l17.2-10.6c3.2,3.6,6.1,7.5,8.7,11.6
	C163.9,357.6,168.6,375.6,167.9,391.7z M302.5,304.4c-19.3,12.4-37.9,25.4-55.3,39c-8.5,6-18.2,13-28.4,21.1
	c-3.2-17.8-10-35.6-20.9-52.4c-10.8-16.8-24.4-30.6-39.3-40.9c11.7-6,22.1-11.9,31.1-17.2c22-12.1,39.9-22.7,57.5-34.1
	c2.5-1.6,4.9-3.2,7.4-4.8c14.1,10.6,27.9,23.8,38.7,37.3c11.1,13.9,19.4,28.2,25.2,41.9C313.3,297.7,307.9,301,302.5,304.4z
	 M479.6,217.6c-0.8,0.5-1.8,1-2.6,1.2c-29.1,8.5-57.5,20.2-87.6,36c-8.4-19.5-21-40.4-34.7-57.5c-9.6-12-20.3-22.5-31.2-31.1
	c29.7-22.5,53.9-44.8,75.1-69.5c0.6-0.7,1.4-1.4,2.2-1.9c24.4-15.7,60.8-1,82.9,33.4C505.7,162.6,503.9,201.9,479.6,217.6z"/>
</svg>
