<?xml version="1.0" encoding="utf-8"?>
<!-- Generator: Adobe Illustrator 22.0.1, SVG Export Plug-In . SVG Version: 6.00 Build 0)  -->
<svg version="1.1" id="Layer_1" xmlns="http://www.w3.org/2000/svg" xmlns:xlink="http://www.w3.org/1999/xlink" x="0px" y="0px"
	 viewBox="0 0 512 512" style="enable-background:new 0 0 512 512;" xml:space="preserve">
<g id="_x35_2_2_">
	<path d="M185.9,379.2h-42.6l89.1-146.4H275L185.9,379.2z"/>
	<ellipse cx="157.7" cy="271.4" rx="30.5" ry="34.4"/>
	<ellipse cx="264.3" cy="340.7" rx="30.5" ry="34.4"/>
	<path id="_x35_2_1_" d="M493.9,1.3c-19.5-3.2-35.3,14.6-44.2,24.9c-10.4,12.2-23.6,42.5-28.5,67.6c-4.7,21.8-30.5,60.7-51,70.3
		c-14.9,7-3.3,13.8,10.2,9.4c13.2-5.7,26.1-11.6,38-17.9c1.5,2.8,3,6.2,3.6,9.3c2.2,17.4-3.7,38.5-20.2,51.5
		c-21.4,16.7-53.4,13.3-70.6-8.8s-13.1-53.7,8.7-70.8c18.9-14.8,36.7-13.9,53.7-7.4c1.7,0.7,1.6,0.9,1.6,0.9s3.2-2.2,6.2-7.5
		c3.2-5.5,5.9-10.3,6-12.8c0,0-0.9-0.5-1.7-1c-17-10.6-139.1-50.3-171.1-25.2L14.1,255.9C-1.4,268-4.1,291.7,7.8,307l148.1,190.1
		c12.3,15.9,35.2,18.7,51.1,6.4l220.4-172.1c32.1-25.2,23.2-154.6,17.1-173.3c-1.5-6.2-3.5-10.9-5.3-14.4c8.3-5.1,16-10.5,22.6-16
		c25.4-21.7,42.4-44.2,47.5-70.4C516.2,22.5,509.7,4.4,493.9,1.3z M391.4,293.6l-204,159.2L58.6,287.3c0,0,203.5-159,203.9-159.3
		c7-1,17.6,0.5,18,0.2c-17.4,30.6-18.7,83.3,15.2,117.2c36,36,73.9,36.5,99.7,30.6C395.4,275.9,393.5,287.6,391.4,293.6z
		 M411.6,148.4c-17.2,9.9-20.1,10.4-20.1,10.4s10.1-5.7,18.7-15.3c1,1.2,2,2.6,3,3.9C412.7,147.8,412.1,148.1,411.6,148.4z
		 M446.5,122.3c-4.7,3.7-9.2,7.6-14,11.4c-2.8-3.8-6.1-8-8.2-10.6c5-9.3,8.8-19.5,10.9-30.4c5.3-23.3,17.6-45.7,28.9-59.2
		c12.1-14.4,22-19.8,27.8-13.6C505.7,34.6,497.4,82.1,446.5,122.3z"/>
</g>
</svg>
