<?xml version="1.0" encoding="utf-8"?>
<!-- Generator: Adobe Illustrator 21.1.0, SVG Export Plug-In . SVG Version: 6.00 Build 0)  -->
<svg version="1.1" id="Layer_1" focusable="false" xmlns="http://www.w3.org/2000/svg" xmlns:xlink="http://www.w3.org/1999/xlink"
	 x="0px" y="0px" viewBox="0 0 448 512" style="enable-background:new 0 0 448 512;" xml:space="preserve">
<path id="_x35_2" d="M223.5,31.9c-38.5,0-69.6,31.2-69.6,69.6c0,38.5,31.2,69.6,69.6,69.6c38.5,0,69.6-31.2,69.6-69.6
	C293.2,63,262,31.9,223.5,31.9z M223.5,119.1c-9.7,0-17.6-7.9-17.6-17.6c0-9.7,7.9-17.6,17.6-17.6c9.7,0,17.6,7.9,17.6,17.6
	C241.2,111.2,233.3,119.1,223.5,119.1z M223.5,340.7c-38.5,0-69.6,31.2-69.6,69.6c0,38.5,31.2,69.6,69.6,69.6
	c38.5,0,69.6-31.2,69.6-69.6C293.2,371.9,262,340.7,223.5,340.7z M223.5,428c-9.7,0-17.6-7.9-17.6-17.6c0-9.7,7.9-17.6,17.6-17.6
	c9.7,0,17.6,7.9,17.6,17.6C241.2,420.1,233.3,428,223.5,428z M428,229.6H0l20,52h428L428,229.6z"/>
</svg>
