<?xml version="1.0" encoding="utf-8"?>
<!-- Generator: Adobe Illustrator 21.1.0, SVG Export Plug-In . SVG Version: 6.00 Build 0)  -->
<svg version="1.1" id="Layer_2" xmlns="http://www.w3.org/2000/svg" xmlns:xlink="http://www.w3.org/1999/xlink" x="0px" y="0px"
	 viewBox="0 0 674.7 512" style="enable-background:new 0 0 674.7 512;" xml:space="preserve">
<path d="M619.8,51.9c-10.4-7.6-3.3-19.5-23.9-28.9c-8.7-2-17.3-4-26-6c-7.7-1.8-12.5-6.2-22.2-6.2c-1.2,0-2.4,0.1-3.7,0.2
	c-25.4,6.9-39.6,29.1-65.9,57.8c-22.1,24.2-50.3,50-68.8,57.9c-58.7,9.4-40.2,15.3-71.8,16c-49.3-0.4-83-8.4-141.6-11
	c-18.9-1.6-54.9,5.4-71.6,11c-0.1,0-0.2,0-0.2,0c-32.8-7.4-57.9-30.1-73.8-51.9c-11.4-16-18.1-34.4-26.9-52.9
	C17.7,26.1,6,13.5,4.4,3c-0.1-0.9-0.1-1.3,0-2c-12,15.3,4.2,35.6,8,47.9c10.8,35.1,8,48.8,27.9,74c13.5,17,51.3,36.6,54.9,54.9
	c3.1,15.8-12.8,17.7-18,52.9c-1.7,11.5,2.4,29.4,9,45.9c3.5,8.5,12.2,48.5,7,61.8c-4.4,7.4-6.7,10.7-11,18
	c-3.4,14.6-6.7,29.3-10,43.9c-2.1,6.1-9.9,7.6-10,23.9c-0.1,10,3.3,16.1,5,22.9c6.1,24.9,8.5,63.8,36.9,63.8c3.6,0,7.6-0.6,12-2
	c4-1.5,7.2-3.6,10-7c1.2-11.3-14.7-18.7-26.9-21.9c-2.5-3.6-3.6-3.6-4-10c1.4-0.2,8.1-0.2,9.9-0.2c6.6,0,13.4-0.7,17-7.8
	c1-2.2,1.4-4.5,1-7c-3.1-8.8-20.4-6.4-25.9-13c-6.7-17.4,12.9-37.6,19.9-46.9c26.6-35.4,53.2-71.7,67.8-119.7
	c28.1,3.5,56,5.7,63.2,7.4c35.9,8.4,67.4,19.1,96.4,30.5c22.5,5.8,47.9,8,71.8,12c4.2,18.2,3.6,58.7,6.9,97.2
	c2.4,38,3.8,41.1,7.3,47.6c6.3,24,16.8,41,35.2,41c6.7,0,14.5-2.3,23.4-7.3c16.2-11.1-23-24.6-25.9-34.9c0.4,0,14.1,0.7,22.9-4
	c3.1-1.8,2.6-1.4,4-5c1-2.9-0.1-7.3-2-10c-5.1-8.1-13.6-8.6-22.9-12c-4.3-3.1-9.4-13.7-8-23.9c2-14.4,4.6-51.8,8-69.8
	c6.1-32.3,20.6-36.5,33.9-53.9c5.8-7.5,9.3-20,14-28.9c3.9-7.5,9.2-11.3,12-19c1.8-8.3,2.2-16.1,0-24.9c0.4-0.5,1.3-1.3,2-2
	c7.3-9.6,14.6-19.3,21.9-28.9c7.9-13.4,9.1-33.4,19.9-43.9c0-0.1,0.5-0.3,1.2-0.7c2.7,13.1,14.1,25.9,27.7,27.6c2.9,1,4.4,0.5,7-1
	c12.4-5.9,12.8-27,12-45.9c12.4,0.2,14.8-5.8,21.1-5.9c1.8,0,4.5,2.4,9.8,2c6.6-0.4,16.6-13.6,22.4-28.9c0.7-1.7-0.5-5.5,0.6-7
	c0.8-1.1,1.9-0.6,2.2-1.8c0.9-3.5,1.5-6.9,1.8-10.2C670.6,58.8,628.8,58.5,619.8,51.9z M506.4,160.1c-2.7,3.6-35.3,47.6-35.3,47.6
	l4.8,19.1c-6.9,7.6-16.3,32.3-17.1,33.9c-1.7,2.1-13.3,13.7-17.1,18.1c0,0-70.4-10.5-82-13.3c-35.1-13.7-67-23.7-100.1-31.4
	c-6.9-1.6-56.8-6.9-68.5-8.4c0,0-28.6-4.5-36-0.4c-9.3,5.1-18.1,35.5-18.1,35.5c-0.5,1.8-1.1,3.5-1.7,5.2c-0.9-3-1.8-5.8-2.8-8.2
	c-4.1-10.2-5.6-18.1-5.7-21c1.2-7.6,2.8-10,5.7-14.8c3.9-6.3,10.9-17.5,12.6-33.1c27.2-8.4,40.9-10.6,115.1-1.8
	c42.4,5.2,78.3,5.4,78.3,5.4c20.6-0.5,30.6-3.1,42.8-8.1c13.2-5.7,41.9-9.4,41.9-9.4l5.7-2.4c47.4-19.4,116.3-104.5,121.7-109.3
	c2.3,0.8,15.7,4.1,19.5,4.9c2.3,4.5,5.5,9.8,10.2,15c-5.5,2.2-33.9,11.4-48.5,25.8C515.9,124.5,507.1,158.1,506.4,160.1z"/>
</svg>
