<?xml version="1.0" encoding="utf-8"?>
<!-- Generator: Adobe Illustrator 21.1.0, SVG Export Plug-In . SVG Version: 6.00 Build 0)  -->
<svg version="1.1" id="Layer_4" xmlns="http://www.w3.org/2000/svg" xmlns:xlink="http://www.w3.org/1999/xlink" x="0px" y="0px"
	 viewBox="0 0 512.7 512" style="enable-background:new 0 0 512.7 512;" xml:space="preserve">
<g>
	<path d="M486.5,481.3h-10.9c-3.4-7.5-10.9-12.7-19.6-12.7s-16.3,5.2-19.6,12.7H147.2l0.6-1.4c0.3-0.6,0.5-1.3,0.8-1.9
		c1.1-4.9,1.6-10.1,1.6-15.3c0-40-32.4-72.4-72.4-72.4c-4.5,0-8.9,0.4-13.2,1.2c-0.1,0-0.2,0-0.3,0.1V339l0,0V108.7
		c0-10.7-4.7-20.7-12.9-27.6L9.1,46c-4.8-4.1-7.7-9.6-8.7-15.4C-0.8,23.5,1,16,5.8,9.9C10.8,3.6,18.3,0,26.4,0c2.5,0,5,0.3,7.4,1
		C37,1.9,40,3.5,42.7,5.6l42.1,35.5c20.3,16.8,31.9,41.6,31.9,67.9v235.5c39.2,12.9,69.7,44.6,80.9,84.5h288.9
		c14.4,0,26.1,11.7,26.1,26.1v0C512.7,469.6,500.9,481.3,486.5,481.3z"/>
	<ellipse cx="73.3" cy="464.2" rx="47.8" ry="47.8"/>
	<circle cx="456" cy="490.2" r="16"/>
</g>
</svg>
