<?xml version="1.0" encoding="utf-8"?>
<!-- Generator: Adobe Illustrator 21.1.0, SVG Export Plug-In . SVG Version: 6.00 Build 0)  -->
<svg version="1.1" id="_x35_2" xmlns="http://www.w3.org/2000/svg" xmlns:xlink="http://www.w3.org/1999/xlink" x="0px" y="0px"
	 viewBox="0 0 512 512" style="enable-background:new 0 0 512 512;" xml:space="preserve">
<g>
	<path d="M256,0c-6.6,0-12,5.4-12,12v36.5c0,3.3,1.3,6.3,3.5,8.5c2.2,2.2,5.2,3.5,8.5,3.5c6.6,0,12-5.4,12-12V12
		C268,5.4,262.6,0,256,0L256,0z M333.9,32.3c-3.1,0-6.1,1.2-8.5,3.5l-25.8,25.8c-2.3,2.3-3.5,5.4-3.5,8.5s1.2,6.1,3.5,8.5
		c2.3,2.3,5.4,3.5,8.5,3.5s6.1-1.2,8.5-3.5l25.8-25.8c4.7-4.7,4.7-12.3,0-16.9C340.1,33.5,337,32.3,333.9,32.3L333.9,32.3z
		 M178,32.3c-3.1,0-6.1,1.2-8.5,3.5c-4.7,4.7-4.7,12.3,0,16.9l25.8,25.8c2.3,2.3,5.4,3.5,8.5,3.5c3.1,0,6.1-1.2,8.5-3.5
		c4.7-4.7,4.7-12.3,0-16.9l-25.8-25.8C184.2,33.5,181.1,32.3,178,32.3L178,32.3z M366.2,110.2h-36.5c-6.6,0-12,5.4-12,12
		c0,6.6,5.4,12,12,12h36.5c3.3,0,6.3-1.3,8.5-3.5c2.2-2.2,3.5-5.1,3.5-8.5C378.2,115.6,372.8,110.2,366.2,110.2L366.2,110.2z
		 M182.2,110.2h-36.5c-6.6,0-12,5.4-12,12c0,6.6,5.4,12,12,12h36.5c3.3,0,6.3-1.3,8.5-3.5c2.2-2.2,3.5-5.1,3.5-8.5
		C194.2,115.6,188.9,110.2,182.2,110.2L182.2,110.2z M308.1,162.4c-3.1,0-6.1,1.2-8.5,3.5c-4.7,4.7-4.7,12.3,0,16.9l25.8,25.8
		c2.3,2.3,5.4,3.5,8.5,3.5s6.1-1.2,8.5-3.5c4.7-4.7,4.7-12.3,0-16.9l-25.8-25.8C314.3,163.6,311.2,162.4,308.1,162.4L308.1,162.4z
		 M203.8,162.4c-3.1,0-6.1,1.2-8.5,3.5l-25.8,25.8c-2.3,2.3-3.5,5.4-3.5,8.5s1.2,6.1,3.5,8.5c2.3,2.3,5.4,3.5,8.5,3.5
		s6.1-1.2,8.5-3.5l25.8-25.8c4.7-4.7,4.7-12.3,0-16.9C210,163.6,206.9,162.4,203.8,162.4L203.8,162.4z"/>
</g>
<g>
	<path d="M256.1,122.1L256.1,122.1C256.1,122.1,256.1,122.1,256.1,122.1C256.1,122.1,256.1,122.1,256.1,122.1
		C256.1,122.2,256.1,122.2,256.1,122.1C256.1,122.2,256.1,122.2,256.1,122.1L256.1,122.1L256.1,122.1
		C256.1,122.2,256,122.2,256.1,122.1L256.1,122.1C256,122.1,256,122.1,256.1,122.1L256.1,122.1C256,122.1,256.1,122.1,256.1,122.1
		 M256.1,90.1c-17.7,0-32,14.3-32,32c0,11.8,6.4,22.2,16,27.7v120.4C106.1,274.1,0,326.7,0,391c0,66.8,114.6,121,256,121
		c141.4,0,256-54.2,256-121c0-64.3-106.1-116.9-240-120.8V150c9.6-5.5,16.1-15.9,16.1-27.8C288.1,104.5,273.8,90.1,256.1,90.1
		L256.1,90.1z M222.1,313.7l-18.2-20.1c11.7-1.2,23.7-2,36.1-2.4v20.9C233.9,312.4,227.9,313,222.1,313.7L222.1,313.7z M287.4,313.4
		c-5-0.6-10.1-1-15.4-1.3v-20.8c11.5,0.3,22.7,1.1,33.7,2.1L287.4,313.4L287.4,313.4z M379.6,350.8c-13.9-15.8-40.8-28.4-74.4-34.7
		l19.5-20.5c43.7,6,81.4,17.7,108.1,32.9L379.6,350.8L379.6,350.8z M131.9,351.3L78.4,329c26.3-15.2,63.4-26.9,106.6-33.1l19.5,20.6
		C171.6,323,145.4,335.6,131.9,351.3L131.9,351.3z M240,375.6h32v-54.1c55.7,3.5,98.6,24.6,98.6,50.3c0,28-51.3,50.8-114.6,50.8
		c-63.3,0-114.6-22.7-114.6-50.8c0-25.6,42.9-46.8,98.6-50.3V375.6L240,375.6z M455.3,421.1l-69.5-30c2.7-5,4.1-10.3,4.1-15.7
		c0-3-0.4-5.9-1.3-8.7l61.4-26.5c16.1,12.8,25.2,27.3,25.2,42.7C475.2,396.5,468.1,409.4,455.3,421.1L455.3,421.1z M56,420.5
		c-12.3-11.5-19.2-24.2-19.2-37.6c0-15.2,8.8-29.5,24.4-42.1l61.9,26.7c-0.7,2.6-1,5.2-1,7.9c0,5.2,1.3,10.2,3.7,15L56,420.5
		L56,420.5z M167.8,466.9c-38.2-7.1-70.8-18.5-93.8-32.9l63.7-28.9c13.7,12.3,35.5,22.1,62.1,28L167.8,466.9L167.8,466.9z
		 M342.1,467.3l-31.8-33.8c27-5.7,49.3-15.5,63.4-27.8l63.5,28.8C413.7,448.9,380.8,460.4,342.1,467.3L342.1,467.3z M256,474.6
		c-18.9,0-37.3-1-54.8-2.9l28.8-34c8.4,0.8,17.1,1.2,26,1.2c7.9,0,15.6-0.3,23.2-1l29.1,34C291.5,473.7,274,474.6,256,474.6
		L256,474.6z"/>
</g>
</svg>
