<?xml version="1.0" encoding="utf-8"?>
<!-- Generator: Adobe Illustrator 21.1.0, SVG Export Plug-In . SVG Version: 6.00 Build 0)  -->
<svg version="1.1" id="_x35_2" xmlns="http://www.w3.org/2000/svg" xmlns:xlink="http://www.w3.org/1999/xlink" x="0px" y="0px"
	 viewBox="0 0 512 512" style="enable-background:new 0 0 512 512;" xml:space="preserve">
<style type="text/css">
	.st0{display:none;}
</style>
<g>
	<path d="M256,272C114.6,272,0,324.2,0,391s114.6,121,256,121c141.4,0,256-54.2,256-121S397.4,272,256,272z M256,474.6
		c-121.1,0-219.2-41.1-219.2-91.8S134.9,288,256,288s219.2,44.1,219.2,94.8S377.1,474.6,256,474.6z"/>
	<path class="st0" d="M256,321c-81.4,0-147.5,27.7-147.5,61.8s66,61.8,147.5,61.8s147.5-27.7,147.5-61.8S337.4,321,256,321z
		 M256,429.4c-68,0-123.2-22.3-123.2-49.8c0-27.5,55.2-49.8,123.2-49.8s123.2,22.3,123.2,49.8C379.2,407.1,324,429.4,256,429.4z"/>
</g>
<circle cx="256.1" cy="122.2" r="32"/>
<path d="M317.8,122.2L317.8,122.2c0-6.6,5.4-12,12-12h36.5c6.6,0,12,5.4,12,12v0c0,6.6-5.4,12-12,12h-36.5
	C323.1,134.2,317.8,128.8,317.8,122.2z"/>
<path d="M133.8,122.2L133.8,122.2c0-6.6,5.4-12,12-12h36.5c6.6,0,12,5.4,12,12v0c0,6.6-5.4,12-12,12h-36.5
	C139.1,134.2,133.8,128.8,133.8,122.2z"/>
<path d="M256,184L256,184c6.6,0,12,5.4,12,12v36.5c0,6.6-5.4,12-12,12h0c-6.6,0-12-5.4-12-12V196C244,189.4,249.4,184,256,184z"/>
<path d="M256,0L256,0c6.6,0,12,5.4,12,12v36.5c0,6.6-5.4,12-12,12h0c-6.6,0-12-5.4-12-12V12C244,5.4,249.4,0,256,0z"/>
<path d="M212.3,165.9L212.3,165.9c4.7,4.7,4.7,12.3,0,16.9l-25.8,25.8c-4.7,4.7-12.3,4.7-16.9,0l0,0c-4.7-4.7-4.7-12.3,0-16.9
	l25.8-25.8C200.1,161.2,207.6,161.2,212.3,165.9z"/>
<path d="M342.4,35.8L342.4,35.8c4.7,4.7,4.7,12.3,0,16.9l-25.8,25.8c-4.7,4.7-12.3,4.7-16.9,0l0,0c-4.7-4.7-4.7-12.3,0-16.9
	l25.8-25.8C330.2,31.1,337.7,31.1,342.4,35.8z"/>
<path d="M212.3,78.5L212.3,78.5c-4.7,4.7-12.3,4.7-16.9,0l-25.8-25.8c-4.7-4.7-4.7-12.3,0-16.9l0,0c4.7-4.7,12.3-4.7,16.9,0
	l25.8,25.8C217,66.3,217,73.9,212.3,78.5z"/>
<path d="M342.4,208.6L342.4,208.6c-4.7,4.7-12.3,4.7-16.9,0l-25.8-25.8c-4.7-4.7-4.7-12.3,0-16.9l0,0c4.7-4.7,12.3-4.7,16.9,0
	l25.8,25.8C347.1,196.4,347.1,204,342.4,208.6z"/>
<g>
	<polygon points="272,135.6 240,135.6 240,375.6 272,375.6 272,135.6 	"/>
</g>
<g>
	<path d="M256,311.6c-73.9,0-133.9,28.5-133.9,63.7c0,35.2,59.9,63.7,133.9,63.7c74,0,133.9-28.5,133.9-63.7
		C389.9,340.1,330,311.6,256,311.6L256,311.6z M256,422.6c-63.3,0-114.6-22.7-114.6-50.8c0-28,51.3-50.8,114.6-50.8
		c63.3,0,114.6,22.7,114.6,50.8C370.6,399.9,319.3,422.6,256,422.6L256,422.6z"/>
</g>
</svg>
