<?xml version="1.0" encoding="utf-8"?>
<!-- Generator: Adobe Illustrator 21.1.0, SVG Export Plug-In . SVG Version: 6.00 Build 0)  -->
<svg version="1.1" id="Layer_1" xmlns="http://www.w3.org/2000/svg" xmlns:xlink="http://www.w3.org/1999/xlink" x="0px" y="0px"
	 viewBox="0 0 512 512" style="enable-background:new 0 0 512 512;" xml:space="preserve">
<g>
	<g>
		<path d="M255.6,220l-94.1-94l-28.9,28.9l123,122.9l123-122.9L349.7,126L255.6,220z M462,0.5H50c-27.6,0-50,22.4-50,50v412
			c0,27.6,22.4,50,50,50h412c27.6,0,50-22.4,50-50v-412C512,22.9,489.6,0.5,462,0.5z M460,448.5c0,10-2.1,12-12,12H64
			c-10,0-12-2-12-12v-384c0-10,2-12,12-12h384c9.9,0,12,2,12,12V448.5z M255.6,330l-94.1-94l-28.9,28.9l123,122.9l123-122.9
			L349.7,236L255.6,330z"/>
	</g>
</g>
</svg>
