<?xml version="1.0" encoding="utf-8"?>
<!-- Generator: Adobe Illustrator 19.0.0, SVG Export Plug-In . SVG Version: 6.00 Build 0)  -->
<svg version="1.1" id="Layer_2" xmlns="http://www.w3.org/2000/svg" xmlns:xlink="http://www.w3.org/1999/xlink" x="0px" y="0px"
	 viewBox="-76 0 378 512" style="enable-background:new -76 0 378 512;" xml:space="preserve">
<g>
	<path d="M113,452c-16.6,0-30,13.4-30,30s13.4,30,30,30s30-13.4,30-30S129.6,452,113,452z"/>
	<path d="M138.8,103H86.7v234L-26.5,234.7v58.4l0.5,6c0.6,4.3,2.3,7.7,5.1,10.2L112.8,430l132.1-121.7l4.7-6
		c1.3-2.8,1.9-5.2,1.9-7.4v-59.8L138.8,338V103z"/>
	<polygon points="-76,0 -76,104 -24,104 -24,52.3 250,52.3 250,104 302,104 302,0 	"/>
</g>
</svg>
