<?xml version="1.0" encoding="utf-8"?>
<!-- Generator: Adobe Illustrator 21.1.0, SVG Export Plug-In . SVG Version: 6.00 Build 0)  -->
<svg version="1.1" id="Layer_2" xmlns="http://www.w3.org/2000/svg" xmlns:xlink="http://www.w3.org/1999/xlink" x="0px" y="0px"
	 viewBox="0 0 762.6 512" style="enable-background:new 0 0 762.6 512;" xml:space="preserve">
<g>
	<path d="M72,185.5c-12.4,0-22.5,10.1-22.5,22.5s10.1,22.5,22.5,22.5s22.5-10.1,22.5-22.5S84.4,185.5,72,185.5z M72,215.8
		c-4.3,0-7.8-3.5-7.8-7.8s3.5-7.8,7.8-7.8s7.8,3.5,7.8,7.8S76.3,215.8,72,215.8z"/>
	<path d="M554.5,156.2c-19.6,1.2-31.5,6.7-41.9,12.5c-11.3,6.3-33.9,13.4-66.7,16.1C414.1,161.4,278.1,60.4,203.1,4.7L196.8,0H73.3
		l158.8,196.6l-42.3,0.4L85.5,117.7h-47c-24,0-36.5,15.1-38.3,30.2c0,0,0.2,120.1,0.2,133.5c-1.9,21.4,10.8,39.3,32,45l3.1,0.8
		l188.1-1.9l-147.4,187h154.9l236.7-193.2l202.2-5.3l1.1-0.1c61-7.3,91.5-43.9,91.5-72.3C762.6,172,612.4,152.7,554.5,156.2z
		 M666.5,266.7l-216.2,5.6L214.2,465.1h-46.9l156.5-188.4l-276.2,3.1c0-15.1-0.3-84.4-0.4-114.8h17.3l112.7,79.7l152.5-2.4
		l-157.5-195h8.8C198.5,60.2,420.2,224.6,422,226c9.4,7.8,18.2,6.7,18.2,6.7c50-2.8,80.6-14.3,95.5-22.7c8.4-4.7,11.5-6.4,19.1-6.5
		c37.8-0.3,65.2,2.8,80.7,6.3c50.9,11.4,66.3,19.6,74.5,25.9c3.2,2.4,4.5,4.1,5,5.4C712.4,250,696.5,262.9,666.5,266.7z"/>
</g>
</svg>
