<?xml version="1.0" encoding="utf-8"?>
<!-- Generator: Adobe Illustrator 21.1.0, SVG Export Plug-In . SVG Version: 6.00 Build 0)  -->
<svg version="1.1" id="Layer_2" xmlns="http://www.w3.org/2000/svg" xmlns:xlink="http://www.w3.org/1999/xlink" x="0px" y="0px"
	 viewBox="0 0 512 512" style="enable-background:new 0 0 512 512;" xml:space="preserve">
<path d="M488.7,23.5C473.5,8.3,453.4,0,432,0c-21.4,0-41.5,8.3-56.6,23.5l-41.4,41.4c-6.8-6.8-15.8-10.2-24.7-10.2
	s-17.9,3.4-24.7,10.2L245,104.5c-13.6,13.6-13.6,35.8,0,49.4l12.3,12.3L18.5,405c-24.4,24.4-24.4,64.2,0,88.6
	C30.3,505.5,46,512,62.8,512s32.5-6.5,44.3-18.3l238.8-238.8l12.3,12.3c6.8,6.8,15.7,10.2,24.6,10.2c8.9,0,17.8-3.4,24.6-10.2
	l39.9-39.9c13.6-13.6,13.6-35.6,0-49.2l41.4-41.4C519.9,105.5,519.9,54.7,488.7,23.5z M70.3,456.9c-2.1,2.1-4.6,3.1-7.5,3.1
	c-2.9,0-5.5-1-7.5-3.1c-4.1-4.2-4.1-10.9,0-15.1L272,225l15.1,15.1L70.3,456.9z M451.9,99.9l-78.1,78.1l24.6,24.6l-15.6,15.6l-89-89
	l15.6-15.6l24.7,24.7l78.1-78.1c5.4-5.4,12.3-8.2,19.9-8.2c7.6,0,14.5,2.8,19.8,8.2c5.3,5.3,8.2,12.3,8.2,19.9
	S457.2,94.6,451.9,99.9z"/>
</svg>
