<?xml version="1.0" encoding="utf-8"?>
<!-- Generator: Adobe Illustrator 22.0.1, SVG Export Plug-In . SVG Version: 6.00 Build 0)  -->
<svg version="1.1" id="Layer_2" xmlns="http://www.w3.org/2000/svg" xmlns:xlink="http://www.w3.org/1999/xlink" x="0px" y="0px"
	 viewBox="0 0 512 512" style="enable-background:new 0 0 512 512;" xml:space="preserve">
<g>
	<path d="M511.6,225.7C511.3,181.4,378.8,154,256,154C133.2,154,0.7,181.4,0.4,225.7c0,0,0,0,0,0v204.6
		c0,52.1,131.7,80.2,255.6,80.2s255.6-28.1,255.6-80.2L511.6,225.7C511.6,225.7,511.6,225.7,511.6,225.7z M411.9,313.7
		c-6.5,0-13-2.4-18.1-7.2l-18.4-17.3c30.4-4.5,58.1-10.7,80.5-18.5l-22.3,31.7C428.3,309.9,420.1,313.7,411.9,313.7z M258.2,334.4
		c-7.7,0-15.5-3.3-20.8-10l-21.9-27.6c13.5,0.6,27.1,1,40.5,1c14.9,0,30-0.4,45-1.2l-22.1,27.9C273.6,331.1,265.9,334.4,258.2,334.4
		z M84.1,302.5l-20.6-29.3c22.3,7,49,12.6,78.1,16.7L124,306.5c-5.2,4.8-11.7,7.2-18.1,7.2C97.5,313.7,89.3,309.9,84.1,302.5z
		 M117.5,218.6c40.9-8.1,90.1-12.6,138.5-12.6s97.6,4.5,138.5,12.6c11.9,2.4,22.1,4.8,30.7,7.3c-8.6,2.4-18.8,4.9-30.7,7.3
		c-40.9,8.1-90.1,12.6-138.5,12.6s-97.6-4.5-138.5-12.6c-11.9-2.4-22.1-4.8-30.7-7.3C95.4,223.4,105.6,220.9,117.5,218.6z
		 M52.4,344.7c9.4,8.7,20.8,15,33.1,18.3v73.2c0,0.2,0,0.4,0.1,0.6c-17.8-5.7-28.1-11.2-33.1-14.7V344.7z M102.8,441.7
		c0.7-0.6,1.3-1.3,1.7-2.1c0.6-1.1,1-2.2,1-3.5v-70.5c0.1,0,0.2,0,0.3,0c20.1,0,39.1-7.6,53.8-21.3l2.5-2.3
		c8.1,0.8,16.3,1.5,24.6,2.2l9.9,12.5c12.9,16.2,31.3,26.5,51.5,29.1v72.6c-47.1-0.5-93.4-5.2-131.3-13.4
		C111.8,444,107.1,442.9,102.8,441.7z M268.2,458.4v-72.6c20.2-2.6,38.6-12.8,51.5-29.1l10.1-12.7c8.6-0.7,17.2-1.4,25.5-2.3
		l2.8,2.7c13.8,13,31.6,20.4,50.4,21.2v70.5c0,2,0.9,3.8,2.3,5.2c-4.8,1.3-10,2.5-15.6,3.7C358.4,453,313.7,457.7,268.2,458.4z
		 M459.6,422c-4.8,3.4-14.6,8.6-31.2,14.1v-72.2c11.3-2.5,22-7.4,31.2-14.4V422z"/>
	<path d="M361.3,75.8c-6.3-1.6-12.7,0-18.3,2.4c-1.6,0.8-3.2,0.8-4,0l-38.1-19c-0.8-0.8-0.8-2.4,0-3.2L366,22.7
		c5.6-2.4,7.9-8.7,6.3-14.3c-2.4-7.1-10.3-10.3-16.7-7.1l-80.9,41.3c-1.6,0.8-4,0.8-5.6,0L188.3,2c-6.3-3.2-14.3,0-16.7,7.1
		c-1.6,5.6,0.8,11.1,6.3,14.3L243,56.8c0.8,0.8,0.8,2.4,0,3.2l-38.9,19.8c-0.8,0.8-1.6,0.8-3.2,0c-5.6-3.2-11.9-4-18.3-2.4
		c-10.3,2.4-18.3,11.1-19.8,21.4c-2.4,15.9,10.3,30.2,25.4,30.2c14.3,0,26.2-11.9,26.2-26.2V102v-0.8l54.8-27.8c1.6-0.8,4-0.8,5.6,0
		l54,27.8c0.8,0,0.8,0.8,0.8,1.6l0,0c0,14.3,11.9,26.2,26.2,26.2c15.9,0,27.8-13.5,25.4-30.2C379.5,87.7,370.8,78.2,361.3,75.8z"/>
</g>
</svg>
