<?xml version="1.0" encoding="utf-8"?>
<!-- Generator: Adobe Illustrator 21.1.0, SVG Export Plug-In . SVG Version: 6.00 Build 0)  -->
<svg version="1.1" id="Layer_1" xmlns="http://www.w3.org/2000/svg" xmlns:xlink="http://www.w3.org/1999/xlink" x="0px" y="0px"
	 viewBox="0 0 537 512" style="enable-background:new 0 0 537 512;" xml:space="preserve">
<path d="M483,163.6c-1.3-1-2.5-1.5-3.6-1.5c-12.5,0-16.8,57.9-97.5,67.7c-24.5,3-67.7,1.5-100.6-11.5c-0.9-0.4-1.2-2.1-0.3-2.8
	c30.2-21.4,50-56.9,50-97.1C331,53,278.8,0,214.4,0c-56.2,0-103.1,40.4-114.1,94.1c-6.9,44.9-41.5,53.7-67.9,53.7
	c-6.8,0-13.1-0.6-18.1-1.3c-3.2-0.4-5.6-0.6-7.5-0.6c-5.3,0-6.1,1.4-6.5,2.1c-3,15.5,24.7,31.2,60.1,31.2c14.7,0,30.8-2.7,46.6-9.3
	c0,0,0.1,0,0.1,0c0.1,0,0.1,0.1,0,0.2c-10.5,10.2-26.3,14.3-43.2,14.3c-17.6,0-36.4-4.5-51.8-11c-5.5,8.2,32.2,29.7,91.5,29.7
	c6.8,0,14-0.3,21.4-0.9h0.1c0.6,0,0.6,0.5-0.2,0.9c-53.9,25.5-91.3,81-91.3,145.3c0,88.5,71.1,151.1,157.8,160.3
	c20.5,2.2,41.7,3.4,62.9,3.4c106.3,0,215.3-30.5,261.3-124.2C555,307.4,537.3,205.4,483,163.6z M468.9,364.9
	c-12.4,25.6-40.1,55.9-81.3,72.2c-36.2,14.3-82,22.6-133.2,22.9c-46.7,0.3-99.8-2.4-138.1-39.1c-14.1-13.5-30.7-37.3-30.7-72.6
	c0-21.2,6-41.6,17.2-59.2c10.9-17.1,26.3-30.6,44.3-39.1c22.5-10.6,34.5-34.9,29.1-59c-2.6-11.7-9-21.8-17.7-28.9
	c-8-6.6-22.8-14.2-28-19.2c11-6,19.2-28.9,20.9-39.2C154.6,89.2,172,52,214.4,52C250,52,279,81.8,279,118.4
	c0,21.8-10.5,42.3-28,54.7c-16.5,11.7-24.9,31.5-21.9,51.7c3,20.1,16.8,36.5,35.9,42.9c2.2,0.7,4.4,1.4,6.5,2.1
	c-0.1,1.9-0.1,3.8-0.1,5.7c0,61.7,46.1,111.7,102.9,111.7c30.5,0,57.9-14.4,76.8-37.3c-15.8,12.1-35,19.2-55.8,19.2
	c-41.2,0-76.4-27.9-90.2-67.2c-3.8-10.8,5-22,16.4-20.6c23,2.9,48,2.6,66.5,0.2c41.6-5.2,69.8-20,89.2-36.4
	C485.6,272.6,492.1,316.7,468.9,364.9z"/>
</svg>
