<?xml version="1.0" encoding="utf-8"?>
<!-- Generator: Adobe Illustrator 21.1.0, SVG Export Plug-In . SVG Version: 6.00 Build 0)  -->
<svg version="1.1" id="Layer_4" xmlns="http://www.w3.org/2000/svg" xmlns:xlink="http://www.w3.org/1999/xlink" x="0px" y="0px"
	 viewBox="0 0 512 512" style="enable-background:new 0 0 512 512;" xml:space="preserve">
<g>
	<path d="M357,513.6l44.2-0.9l109.4-109.4l1.1-44.5l-65.4-65.4L291.5,448L357,513.6z M356.6,448l89.7-89.7l19,19l-0.2,6.4L381.7,467
		l-6.1,0.1L356.6,448z"/>
	<path d="M155.3,2.3l-44.2,0.9L1.7,112.6l-1.2,44.5L66,222.6L220.9,68L155.3,2.3z M155.9,68L66,157.6L47,138.5l0.2-6.4l83.4-83.4
		l6.1-0.1L155.9,68z"/>
	<path d="M354.1,316.4l-10.6-10.6l-4.7,4.7l-10.6-10.6l-3.4,3.4c-13.7-15.7-38-43.4-48.8-54.3c-15.6-15.6-65.7-58.7-65.7-58.7
		l4.2-4.2l-10.6-10.6l4.7-4.7L198,160.2l34.8-34.8l-4.7-50.3l-155,154.6l50,4.9l34.9-34.9l10.6,10.6l4.7-4.7l10.6,10.6l4.2-4.2
		c0,0,43.2,50.1,58.7,65.7c10.8,10.8,38.5,35.1,54.3,48.8l-3.4,3.4l10.6,10.6l-4.7,4.7l10.6,10.6l-34.4,34.9l4.7,50.3l154.7-154.7
		l-50-5L354.1,316.4z"/>
</g>
</svg>
