<?xml version="1.0" encoding="utf-8"?>
<!-- Generator: Adobe Illustrator 21.1.0, SVG Export Plug-In . SVG Version: 6.00 Build 0)  -->
<svg version="1.1" id="Layer_2" xmlns="http://www.w3.org/2000/svg" xmlns:xlink="http://www.w3.org/1999/xlink" x="0px" y="0px"
	 viewBox="0 0 487.4 512" style="enable-background:new 0 0 487.4 512;" xml:space="preserve">
<g id="_x35_2">
	<path d="M442.9,390.9c-20.2,15.9-42.3,29.4-66,40.1l-58.5-140.2h20.1c26.4,0,47.8-21.4,47.8-47.8v-4.4
		c0-82.5,16.2-161.1,45.2-233.1c1.1-2.6-0.9-5.5-3.7-5.5h-22.1c-7.1,0-13.6,4.3-16.2,11.1c-24,61.2-38.8,127.1-42.2,196.1
		c-0.5,10.5-4.7,26-22.5,31.5h-94.9c1.4-22.3,7.8-41.3,18.8-56.2c6,0.7,12.1,1.6,18.3,2.7c11.7,2.2,23.7-1,32.8-8.7
		c0.8-0.7,1.6-1.4,2.4-2.1c2.9-2.5,1.8-7.2-1.8-8.2c-60.9-17.4-116.2-15.1-162.4,5.3c-4.4,1.9-4.1,8.3,0.5,9.8l13.9,4.3
		c7.9,2.5,16.4,2.9,24.4,0.9c6.8-1.7,13.9-3,21-3.9c11,14.9,17.4,33.9,18.8,56.1h-68.9c-26.4,0-47.8,21.4-47.8,47.8v4.4h68.4
		l-58,139.4c-23.2-10.8-44.9-24.3-64.8-40c-10.4-8.2-25.3-7.4-34.7,2l0,0c-11,11-10,29.1,2.1,38.8C76.5,481.3,156.7,512,243.8,512
		c87.4,0,167.8-29.9,231.6-80.1c12.2-9.6,13.2-27.8,2.2-38.8l-0.1-0.1C468.1,383.6,453.3,382.8,442.9,390.9z M213,181.1
		c6.6-0.3,13.5-0.3,20.4,0.1c-4.1,6.7-7.5,14.1-10.2,22C220.7,195.3,217.3,187.8,213,181.1z M192.2,290.8l101.6-0.1L354.9,440
		c-34.6,12.7-72,19.6-111.1,19.6c-39,0-76.4-7.1-111-20.1L192.2,290.8z"/>
</g>
</svg>
