<?xml version="1.0" encoding="utf-8"?>
<!-- Generator: Adobe Illustrator 21.1.0, SVG Export Plug-In . SVG Version: 6.00 Build 0)  -->
<svg version="1.1" id="Layer_3" xmlns="http://www.w3.org/2000/svg" xmlns:xlink="http://www.w3.org/1999/xlink" x="0px" y="0px"
	 viewBox="0 0 550 512" style="enable-background:new 0 0 550 512;" xml:space="preserve">
<g id="_x35_2">
	<polygon points="550,512 130.6,512 166.3,460 550,460 	"/>
	<polygon points="550,142 385.1,142 420.9,90 550,90 	"/>
	<polygon points="550,322 261.4,322 297.1,270 550,270 	"/>
	<g>
		<path d="M310.4,7.9L27.9,419.6c-9.4-9.7-15.4-19.4-17.1-27.3c-0.2-0.3,0.2-1.1,0.8-2l0,0l1.3-1.8c0.1-0.1,0.2-0.3,0.3-0.4
			c0.3-0.4,0.5-0.8,0.8-1.1L270,14c4.1-6.1,10-9.8,17.6-11.2c6.9-1.6,14-0.2,21.1,4l0,0L310.4,7.9z"/>
	</g>
	<g>
		<path d="M370,79.4L113,452.5c-2.1,2.7-3.4,5-7.8,4.8c-0.9-0.1-2.1,0-3.3,0c-7.5-0.3-15.9-2.2-25-5.7L360.4,40l2.3,1.9
			c5.9,4.4,9.6,10.2,11.2,17.3C375.2,66.6,373.9,73.4,370,79.4z"/>
	</g>
	<g>
		<path d="M23.6,475.7c-0.1-3.3,2.8-34.8,2.8-34.8c-6.6-5.2-14-15.9-22.1-31.9L0,512l93.9-42.2c-16.7-1.4-28.9-4.7-36.4-9.8
			C57.5,460,34,472.6,23.6,475.7z"/>
	</g>
	<path d="M348.2,32.2L63.9,445.7c-3.5-1.8-7.1-3.8-10.8-6.1c-0.1,0-5.2-3.4-5.2-3.4c-3.1-2.1-6-4.3-8.8-6.5L323.7,16.4l9,5.8
		l0.8,0.5L348.2,32.2z"/>
</g>
</svg>
