<?xml version="1.0" encoding="utf-8"?>
<!-- Generator: Adobe Illustrator 21.1.0, SVG Export Plug-In . SVG Version: 6.00 Build 0)  -->
<svg version="1.1" id="Layer_1" focusable="false" xmlns="http://www.w3.org/2000/svg" xmlns:xlink="http://www.w3.org/1999/xlink"
	 x="0px" y="0px" viewBox="0 0 512 512" style="enable-background:new 0 0 512 512;" xml:space="preserve">
<path d="M510.4,31.9L480.1,1.6c-1.8-1.8-4.7-1.8-6.5,0L394.3,81c-38-30.1-86-48-138.3-48C132.8,32.9,32.9,132.8,32.9,256
	c0,52.2,18,100.3,48,138.3L1.4,473.8c-1.8,1.8-1.8,4.7,0,6.5l30.3,30.3c1.8,1.8,4.7,1.8,6.5,0l79.6-79.6c38,30.1,86.1,48,138.3,48
	c122.8,0,223.1-100.3,223.1-223.1c0-52.2-18-100.3-48-138.3l79.3-79.3C512.2,36.6,512.2,33.7,510.4,31.9z M84.9,256
	c0-45.7,17.8-88.7,50.1-121s75.3-50.1,121-50.1c36.9,0,72,11.6,101.2,33.1L118,357.2C96.5,328,84.9,292.9,84.9,256z M427.1,256
	c0,45.7-17.8,88.6-50.1,121s-75.3,50.1-121,50.1c-36.9,0-72-11.6-101.2-33.1L394,154.8C415.5,184,427.1,219.1,427.1,256z"/>
</svg>
