<?xml version="1.0" encoding="utf-8"?>
<!-- Generator: Adobe Illustrator 21.1.0, SVG Export Plug-In . SVG Version: 6.00 Build 0)  -->
<svg version="1.1" id="Layer_4" xmlns="http://www.w3.org/2000/svg" xmlns:xlink="http://www.w3.org/1999/xlink" x="0px" y="0px"
	 viewBox="0 0 512 512" style="enable-background:new 0 0 512 512;" xml:space="preserve">
<g id="_x35_2_1_">
	<g>
		<g>
			<path d="M256,57.6l204,164.9l0,237.5H52V222.5L256,57.6 M256,0.3c-8.4,0-16.8,3.1-23.4,9.3L5.3,193.4C2,196.1,0,200.2,0,204.6
				V512h512l0-307.5c0-4.3-2-8.4-5.3-11.2L279.4,9.6C272.8,3.4,264.4,0.3,256,0.3L256,0.3z"/>
		</g>
	</g>
	<g>
		<path d="M428.5,237.9l-156,89.8c-5.1,3.1-10.8,4.7-16.5,4.7c-5.7,0-11.4-1.5-16.5-4.6L84,238.7v54.8l155.6,89.1
			c5.1,3.1,10.8,4.6,16.5,4.6c5.7,0,11.5-1.6,16.5-4.7l155.9-89.7V237.9L428.5,237.9z"/>
	</g>
</g>
</svg>
