<?xml version="1.0" encoding="utf-8"?>
<!-- Generator: Adobe Illustrator 21.1.0, SVG Export Plug-In . SVG Version: 6.00 Build 0)  -->
<svg version="1.1" id="Layer_4" xmlns="http://www.w3.org/2000/svg" xmlns:xlink="http://www.w3.org/1999/xlink" x="0px" y="0px"
	 viewBox="0 0 512 512" style="enable-background:new 0 0 512 512;" xml:space="preserve">
<g id="_x35_2">
	<path d="M465,325.1V465H47V325.9l184.8,110.8l24.2,14.5l24.2-14.6L465,325.1 M512,241.9L256,396.3L0,242.9V512h512V241.9L512,241.9
		z"/>
	<path d="M362.7,291.2H152v-47h210.7V291.2z M362.7,197.5H152v-47h210.7V197.5z M505.7,216.6l-93.4,56.8V101.9H100.1v171.8l-93.8-57
		c-8.2-5.5-8.5-17.5-0.7-23.5l42.5-34.3V74.8C48.1,61,59.3,49.9,73,49.9h109.9l49.8-40.3c13.1-12.5,33.6-12.5,46.7,0l49.8,40.3
		h110.3c13.7,0,24.9,11.1,24.9,24.8v84.4l42.1,34C514.2,199.2,513.8,211.1,505.7,216.6z"/>
</g>
</svg>
