<?xml version="1.0" encoding="utf-8"?>
<!-- Generator: Adobe Illustrator 21.1.0, SVG Export Plug-In . SVG Version: 6.00 Build 0)  -->
<svg version="1.1" id="Layer_3" xmlns="http://www.w3.org/2000/svg" xmlns:xlink="http://www.w3.org/1999/xlink" x="0px" y="0px"
	 viewBox="0 0 512 512" style="enable-background:new 0 0 512 512;" xml:space="preserve">
<path d="M407.6,256.3L407.6,256.3 M423.4,297L423.4,297 M427.8,276.6L427.8,276.6 M407.6,256.3L407.6,256.3 M423.4,297L423.4,297
	 M427.8,276.6L427.8,276.6 M407.6,256.3L407.6,256.3 M423.4,297L423.4,297 M427.8,276.6L427.8,276.6 M423.4,297L423.4,297
	 M407.6,256.3L407.6,256.3 M407.6,256.3L407.6,256.3l20.3,20.3L407.5,297h0.1l20.3-20.3L407.6,256.3z M407.6,256.3L407.6,256.3
	l20.3,20.3L407.5,297h0.1l20.3-20.3L407.6,256.3z M407.6,256.3L407.6,256.3l20.3,20.3L407.5,297h0.1l20.3-20.3L407.6,256.3z
	 M407.6,256.3L407.6,256.3l20.3,20.3L407.5,297h0.1l20.3-20.3L407.6,256.3z M407.6,256.3L407.6,256.3l20.3,20.3L407.5,297h0.1
	l20.3-20.3L407.6,256.3z M407.6,256.3L407.6,256.3l20.3,20.3L407.5,297h0.1l20.3-20.3L407.6,256.3z M407.6,256.3L407.6,256.3
	l20.3,20.3L407.5,297h0.1l20.3-20.3L407.6,256.3z M407.6,256.3L407.6,256.3l20.3,20.3L407.5,297h0.1l20.3-20.3L407.6,256.3z
	 M407.6,256.3L407.6,256.3l20.3,20.3L407.5,297h0.1l20.3-20.3L407.6,256.3z M407.6,256.3L407.6,256.3l20.3,20.3L407.5,297h0.1
	l20.3-20.3L407.6,256.3z M407.6,256.3L407.6,256.3l20.3,20.3L407.5,297h0.1l20.3-20.3L407.6,256.3z M407.6,256.3L407.6,256.3
	l20.3,20.3L407.5,297h0.1l20.3-20.3L407.6,256.3z M407.6,256.3L407.6,256.3l20.3,20.3L407.5,297h0.1l20.3-20.3L407.6,256.3z
	 M407.6,256.3L407.6,256.3l20.3,20.3L407.5,297h0.1l20.3-20.3L407.6,256.3z M407.6,256.3L407.6,256.3l20.3,20.3L407.5,297h0.1
	l20.3-20.3L407.6,256.3z M407.6,256.3L407.6,256.3l20.3,20.3L407.5,297h0.1l20.3-20.3L407.6,256.3z M407.6,256.3L407.6,256.3
	l20.3,20.3L407.5,297h0.1l20.3-20.3L407.6,256.3z M407.6,256.3L407.6,256.3l20.3,20.3L407.5,297h0.1l20.3-20.3L407.6,256.3z
	 M407.6,256.3L407.6,256.3l20.3,20.3L407.5,297h0.1l20.3-20.3L407.6,256.3z M407.6,256.3L407.6,256.3l20.3,20.3L407.5,297h0.1
	l20.3-20.3L407.6,256.3z M407.6,256.3L407.6,256.3l20.3,20.3L407.5,297h0.1l20.3-20.3L407.6,256.3z M407.6,256.3L407.6,256.3
	l20.3,20.3L407.5,297h0.1l20.3-20.3L407.6,256.3z M407.6,256.3L407.6,256.3l20.3,20.3L407.5,297h0.1l20.3-20.3L407.6,256.3z
	 M407.6,256.3L407.6,256.3l20.3,20.3L407.5,297h0.1l20.3-20.3L407.6,256.3z M407.6,256.3L407.6,256.3l20.3,20.3L407.5,297h0.1
	l20.3-20.3L407.6,256.3z M407.6,256.3L407.6,256.3l20.3,20.3L407.5,297h0.1l20.3-20.3L407.6,256.3z M407.6,256.3L407.6,256.3
	l20.3,20.3L407.5,297h0.1l20.3-20.3L407.6,256.3z M407.6,256.3L407.6,256.3l20.3,20.3L407.5,297h0.1l20.3-20.3L407.6,256.3z
	 M407.6,297 M407.6,256.3L407.6,256.3l20.3,20.3L407.5,297h0.1l20.3-20.3L407.6,256.3z M407.6,256.3L407.6,256.3l20.3,20.3
	L407.5,297h0.1l20.3-20.3L407.6,256.3z M407.6,256.3L407.6,256.3l20.3,20.3L407.5,297h0.1l20.3-20.3L407.6,256.3z M0,55.5v400.6h512
	V55.5H0z M453.1,107.2L256,280.1L60,107.6L453.1,107.2z M52.1,415.4L52,172.1l204,167.8l204-168.3l0,84.7h-20.6l20.3,20.3L439.5,297
	h20.1v11.7H417l19.1,19.2l-21.5,21.5h45v12.5h-69.1l20.3,20.3l-20.3,20.3h69.1l0.4,12.8H52.1z M427.8,276.6L407.5,297h0.1
	L427.8,276.6l-20.3-20.3h-0.1L427.8,276.6z M407.6,256.3L407.6,256.3l20.3,20.3L407.5,297h0.1l20.3-20.3L407.6,256.3z M407.6,256.3
	L407.6,256.3l20.3,20.3L407.5,297h0.1l20.3-20.3L407.6,256.3z M407.6,256.3L407.6,256.3l20.3,20.3L407.5,297h0.1l20.3-20.3
	L407.6,256.3z M407.6,256.3L407.6,256.3l20.3,20.3L407.5,297h0.1l20.3-20.3L407.6,256.3z M407.6,256.3L407.6,256.3l20.3,20.3
	L407.5,297h0.1l20.3-20.3L407.6,256.3z M407.6,256.3L407.6,256.3l20.3,20.3L407.5,297h0.1l20.3-20.3L407.6,256.3z M407.6,256.3
	L407.6,256.3l20.3,20.3L407.5,297h0.1l20.3-20.3L407.6,256.3z M407.6,256.3L407.6,256.3l20.3,20.3L407.5,297h0.1l20.3-20.3
	L407.6,256.3z M342.6,361.9h-10.4v5.6l14.8,14.8L332.2,397v5.6h10.5l20.3-20.3L342.6,361.9z M407.6,256.3L407.6,256.3l20.3,20.3
	L407.5,297h0.1l20.3-20.3L407.6,256.3z M407.6,256.3L407.6,256.3l20.3,20.3L407.5,297h0.1l20.3-20.3L407.6,256.3z M407.6,256.3
	L407.6,256.3l20.3,20.3L407.5,297h0.1l20.3-20.3L407.6,256.3z M407.6,256.3L407.6,256.3l20.3,20.3L407.5,297h0.1l20.3-20.3
	L407.6,256.3z M407.6,256.3L407.6,256.3l20.3,20.3L407.5,297h0.1l20.3-20.3L407.6,256.3z M407.6,256.3L407.6,256.3l20.3,20.3
	L407.5,297h0.1l20.3-20.3L407.6,256.3z M407.6,256.3L407.6,256.3l20.3,20.3L407.5,297h0.1l20.3-20.3L407.6,256.3z M407.6,256.3
	L407.6,256.3l20.3,20.3L407.5,297h0.1l20.3-20.3L407.6,256.3z M407.6,256.3L407.6,256.3l20.3,20.3L407.5,297h0.1l20.3-20.3
	L407.6,256.3z M407.6,256.3L407.6,256.3l20.3,20.3L407.5,297h0.1l20.3-20.3L407.6,256.3z M369.1,308.7h-12.7v3.4l15.9,15.9
	l-15.9,15.8v5.6h10.3l21.5-21.5L369.1,308.7z M407.6,256.3L407.6,256.3l20.3,20.3L407.5,297h0.1l20.3-20.3L407.6,256.3z
	 M407.6,256.3L407.6,256.3l20.3,20.3L407.5,297h0.1l20.3-20.3L407.6,256.3z M407.6,256.3L407.6,256.3l20.3,20.3L407.5,297h0.1
	l20.3-20.3L407.6,256.3z M407.6,256.3L407.6,256.3l20.3,20.3L407.5,297h0.1l20.3-20.3L407.6,256.3z M407.6,256.3L407.6,256.3
	l20.3,20.3L407.5,297h0.1l20.3-20.3L407.6,256.3z M407.6,256.3L407.6,256.3l20.3,20.3L407.5,297h0.1l20.3-20.3L407.6,256.3z
	 M407.6,256.3L407.6,256.3l20.3,20.3L407.5,297h0.1l20.3-20.3L407.6,256.3z M407.6,256.3L407.6,256.3l20.3,20.3L407.5,297h0.1
	l20.3-20.3L407.6,256.3z M407.6,256.3L407.6,256.3l20.3,20.3L407.5,297h0.1l20.3-20.3L407.6,256.3z M407.6,256.3L407.6,256.3
	l20.3,20.3L407.5,297h0.1l20.3-20.3L407.6,256.3z M391.5,256.3h-11.6v4.3l16.1,16l-16.1,16.1v4.2h11.7l19.3-20.3L391.5,256.3z
	 M407.6,256.3L407.6,256.3l20.3,20.3L407.5,297h0.1l20.3-20.3L407.6,256.3z M407.6,256.3L407.6,256.3l20.3,20.3L407.5,297h0.1
	l20.3-20.3L407.6,256.3z M407.6,256.3L407.6,256.3l20.3,20.3L407.5,297h0.1l20.3-20.3L407.6,256.3z M407.6,256.3L407.6,256.3
	 M423.4,297L423.4,297 M427.8,276.6L427.8,276.6 M407.6,256.3L407.6,256.3 M423.4,297L423.4,297 M427.8,276.6L427.8,276.6
	 M407.6,256.3L407.6,256.3 M423.4,297L423.4,297 M407.6,256.3L407.6,256.3 M423.4,297L423.4,297"/>
<polygon points="394.8,382.2 374.5,402.6 358.6,402.6 378.9,382.2 358.6,361.9 374.5,361.9 "/>
<polygon points="420.2,327.9 398.7,349.4 382.7,349.4 404.2,327.9 385.1,308.7 401,308.7 "/>
<polygon points="443.8,276.6 423.4,297 407.6,297 427.9,276.6 407.6,256.3 423.4,256.3 "/>
</svg>
