<?xml version="1.0" encoding="utf-8"?>
<!-- Generator: Adobe Illustrator 22.0.1, SVG Export Plug-In . SVG Version: 6.00 Build 0)  -->
<svg version="1.1" id="Layer_1" xmlns="http://www.w3.org/2000/svg" xmlns:xlink="http://www.w3.org/1999/xlink" x="0px" y="0px"
	 viewBox="0 0 512 512" style="enable-background:new 0 0 512 512;" xml:space="preserve">
<style type="text/css">
	.st0{fill:#010101;}
</style>
<g>
	<path d="M159.2,286.4l60.5,60.6h-68.8l-26.4-25.9L159.2,286.4 M159.2,212.8L60,312.1c-5.2,5.2-5.2,13.6,0.1,18.7l65.6,64.4
		c2.5,2.5,5.8,3.8,9.2,3.8h111.3c3.5,0,6.8-1.3,9.4-3.8l42.9-42.8L159.2,212.8L159.2,212.8z"/>
	<path d="M377.5,68.1l66.3,66.4L330.7,247.1l-66-66L377.5,68.1 M377.6,0c-3.4,0-6.7,1.3-9.3,3.9L191.1,181l139.4,139.4L508.1,144
		c5.2-5.2,5.2-13.6,0-18.7L386.9,3.9C384.3,1.3,380.9,0,377.6,0L377.6,0z"/>
	<rect y="418.8" class="st0" width="69.4" height="23.3"/>
	<rect x="116" y="488.7" class="st0" width="396" height="23.3"/>
	<rect x="132" y="418.8" class="st0" width="310.1" height="23.3"/>
	<path class="st0" d="M432.2,299.7v7.1v28.3v7.1h7.1h28.3h7.1v-7.1v-28.3v-7.1h-7.1h-28.3H432.2z M446.3,313.9h14.1V328h-14.1V313.9
		z M389.8,356.3v7.1v28.3v7.1h7.1h28.3h7.1v-7.1v-28.3v-7.1h-7.1h-28.3H389.8z M403.9,370.4h14.1v14.1h-14.1V370.4z"/>
</g>
</svg>
