<?xml version="1.0" encoding="utf-8"?>
<!-- Generator: Adobe Illustrator 21.1.0, SVG Export Plug-In . SVG Version: 6.00 Build 0)  -->
<svg version="1.1" id="Layer_5" xmlns="http://www.w3.org/2000/svg" xmlns:xlink="http://www.w3.org/1999/xlink" x="0px" y="0px"
	 viewBox="0 0 298.8 512" style="enable-background:new 0 0 298.8 512;" xml:space="preserve">
<path d="M208.7,289.8h-117v-26.4h117V289.8z M229.8,248.1H70.6v-26.4h159.2V248.1z"/>
<path d="M276.3,131.3V0H20.5v131.3H-1v248.8h50V446h41v22.6H64.6v14.9H90v8.7H75.7v14.9H90v4.8h116.8v-4.8h16.9v-14.9h-16.9v-8.7h28
	v-14.9h-28V446h41v-65.9h50V131.3H276.3z M245.8,328.1h-50V394H101v-65.9H51V183.3h194.7V328.1z M249.9,131.3h-22V55.6h-26.4v75.7
	H183V55.6h-26.4v75.7h-17.3V55.6H113v75.7H97.3V55.6H70.9v75.7h-24v-105h203V131.3z"/>
</svg>
