<?xml version="1.0" encoding="utf-8"?>
<!-- Generator: Adobe Illustrator 21.1.0, SVG Export Plug-In . SVG Version: 6.00 Build 0)  -->
<svg version="1.1" id="Layer_1" xmlns="http://www.w3.org/2000/svg" xmlns:xlink="http://www.w3.org/1999/xlink" x="0px" y="0px"
	 viewBox="0 0 545.2 512" style="enable-background:new 0 0 545.2 512;" xml:space="preserve">
<style type="text/css">
	.st0{fill:#010101;}
</style>
<g>
	<path d="M368.6,77.2c16.1,15.9,32,32.2,48.4,49.1c20.9,21.4,42.2,43.3,64.4,64.7c-5.3,7.9-11.9,15.8-20.1,23.9
		c-25.1,25.1-60.3,48.5-101.1,75.5c-52.8,35.1-112.7,74.8-168.7,130.8c-4.8,4.8-9.5,9.6-14.1,14.5c-31.6-31.1-76.6-76.2-111.1-113.2
		c5.1-6.2,10.9-12.5,17.5-19c33.7-33.7,79.4-65.7,127.7-99.5c50.3-35.2,102.3-71.5,143-112.3C359.5,86.9,364.2,82.1,368.6,77.2
		 M362.5,0.3c-0.4,0-0.8,0.2-1.2,0.6c-0.4,0.4-0.8,0.9-1.2,1.6c-11,18.3-25.4,35.7-42.2,52.5c-74.8,74.8-196.7,137.7-270.7,211.8
		c-19.4,19.3-35.4,39.3-46.5,60.5c54.8,63.5,179.6,184.3,180.4,184.3l0,0c7.5-9.7,15.3-19,23.2-27.9s15.9-17.4,24.1-25.6
		c95.2-95.2,206-142.5,269.8-206.3c21.6-21.6,37.8-45,46.3-72.9C481.7,121.8,426.8,58.2,364.1,1.2l-0.6-0.4
		C363.1,0.5,362.8,0.3,362.5,0.3L362.5,0.3z"/>
	<path d="M347.8,240l20.7,20.7c31.9-21.3,59.9-40.6,81.4-60.9l-23.2-23.2C402.7,198.8,375.6,219.7,347.8,240z"/>
	<path d="M361.9,111.9c-24,22.2-51,43.1-78.9,63.4l20.7,20.7c31.9-21.3,59.9-40.6,81.4-60.9L361.9,111.9z"/>
	<path class="st0" d="M208.2,360.9c-5.6,4.8-13.2,6.3-21.1,4c-4.8-1.6-9.5-4.3-13.6-8l25.7-21.3l-6.6-12l-28.7,23.7
		c-1.3-1.8-2.5-3.3-3.9-4.9c-1.2-1.6-2.4-2.9-3.2-4l30.1-25l-6.6-12l-31.2,25.8c-2.5-4.8-4.1-10-4.5-15c-0.6-8.3,2.5-15.7,8.4-20.3
		c4.7-4.7,11.6-6.8,18.8-5.6l-12.5-21.9c-7.4,1.4-14.2,4.6-19.5,9.5c-11,8.2-17.1,21.8-16.6,37.2c0.3,10.3,3.4,21,9,30.6l-6.6,5.5
		l6.6,12l7.5-6.2c1.3,1.6,2.8,3.4,4.4,5.6c1,1.3,2,2.5,2.8,3.5l-5.5,4.7l6.6,12l8.4-7c8.3,7.6,18.1,13.1,28.2,15.4
		c14.3,3.3,28,0.3,37.9-8.6c5.9-4.9,10.4-11.3,13.1-18.9l-16.9-21.1C218.9,347.9,214.9,356,208.2,360.9z"/>
</g>
</svg>
