<?xml version="1.0" encoding="utf-8"?>
<!-- Generator: Adobe Illustrator 21.1.0, SVG Export Plug-In . SVG Version: 6.00 Build 0)  -->
<svg version="1.1" id="Layer_1" xmlns="http://www.w3.org/2000/svg" xmlns:xlink="http://www.w3.org/1999/xlink" x="0px" y="0px"
	 viewBox="0 0 127 512" style="enable-background:new 0 0 127 512;" xml:space="preserve">
<g>
	<g>
		<path d="M63.3,403.6c-29.8,0-54,24.1-54,53.7s24.2,53.7,54,53.7s54-24.1,54-53.7S93.1,403.6,63.3,403.6z M41.6,345.8
			c0,7.9,0.5,12.5,1.6,13.7c1,1.3,3.9,1.9,8.5,1.9h22.6c4.6,0,7.5-0.7,8.7-2.1s1.7-6.7,1.7-15.8c0.2-10,5.9-48.1,17-114.3
			C118.6,128.2,127,72.1,127,61c0-16-5.3-30-15.8-42S85.5,1,65.6,1c-20.8,0-37,5.6-48.4,16.8C5.7,28.9,0,42.4,0,58.2
			c0,6.4,6,47.9,18,124.5C33.8,279.7,41.6,334.1,41.6,345.8z"/>
	</g>
</g>
</svg>
