<?xml version="1.0" encoding="utf-8"?>
<!-- Generator: Adobe Illustrator 22.0.1, SVG Export Plug-In . SVG Version: 6.00 Build 0)  -->
<svg version="1.1" id="Layer_1" xmlns="http://www.w3.org/2000/svg" xmlns:xlink="http://www.w3.org/1999/xlink" x="0px" y="0px"
	 viewBox="0 0 512 512" style="enable-background:new 0 0 512 512;" xml:space="preserve">
<g>
	<path d="M462,0.5H50c-27.6,0-50,22.4-50,50v412c0,27.6,22.4,50,50,50h412c27.6,0,50-22.4,50-50v-412C512,22.9,489.6,0.5,462,0.5z
		 M460,448.5c0,9.9-2,12-12,12c-2.4,0-382.6,0-384,0c-10,0-12-2.1-12-12c0-0.6,0-380,0-384c0-10,2-12,12-12c6,0,377.4,0,384,0
		c10,0,12,2,12,12C460,65.8,460,446.5,460,448.5z"/>
	<circle cx="235" cy="374.4" r="33.5"/>
	<path d="M310.9,127.2c-1.4-5.2-4.9-17.2-14.4-17.2c-2.5,0-6.3,0.6-26.1,9c-19,8-24.8,12.4-24.8,19.1c0,1.2,0.1,2.7,1.9,11.3
		c1,5.2,1.5,11.6,1.5,19.1c0,9.4-1,18.2-3,26.1c-1.9,8.3-6.4,21.3-13.4,39.1c-7.5,19.2-11.2,34.6-11.2,47.1
		c0,15.3,4.3,29.9,12.6,43.3l3.2,5.2l5.8-1.9c5.4-1.8,13.7-4.5,13.7-11.9c0-0.8-0.1-1.9-0.9-7.4c-0.5-3.6-0.6-4.8-0.6-5.2
		c0-6.1,1.7-12.9,5-20c3.6-8,11-20.5,21.9-37.4c11.5-17.8,19.9-33.9,24.8-47.8c4.9-14.2,7.5-28.5,7.5-42.4
		C314.5,145,313.2,135.5,310.9,127.2z"/>
</g>
</svg>
