<?xml version="1.0" encoding="utf-8"?>
<!-- Generator: Adobe Illustrator 21.1.0, SVG Export Plug-In . SVG Version: 6.00 Build 0)  -->
<svg version="1.1" id="Layer_1" xmlns="http://www.w3.org/2000/svg" xmlns:xlink="http://www.w3.org/1999/xlink" x="0px" y="0px"
	 viewBox="0 0 512 512" style="enable-background:new 0 0 512 512;" xml:space="preserve">
<g id="_x35_2">
	<path d="M256,0C114.6,0,0,114.6,0,256s114.6,256,256,256s256-114.6,256-256S397.4,0,256,0z M256,460c-112.7,0-204-91.3-204-204
		S143.3,52,256,52s204,91.3,204,204S368.7,460,256,460z"/>
	<circle cx="247" cy="346" r="26"/>
	<path d="M305.8,154.3c-1.1-4-3.8-13.3-11.2-13.3c-1.9,0-4.9,0.5-20.2,7c-14.7,6.2-19.2,9.6-19.2,14.8c0,0.9,0.1,2.1,1.5,8.8
		c0.8,4,1.2,9,1.2,14.8c0,7.3-0.8,14.1-2.3,20.2c-1.5,6.4-5,16.5-10.4,30.3c-5.8,14.9-8.7,26.8-8.7,36.5c0,11.9,3.3,23.2,9.8,33.6
		l2.5,4l4.5-1.5c4.2-1.4,10.6-3.5,10.6-9.2c0-0.6-0.1-1.5-0.7-5.7c-0.4-2.8-0.5-3.7-0.5-4c0-4.7,1.3-10,3.9-15.5
		c2.8-6.2,8.5-15.9,17-29c8.9-13.8,15.4-26.3,19.2-37.1c3.8-11,5.8-22.1,5.8-32.9C308.6,168.1,307.6,160.7,305.8,154.3z"/>
</g>
</svg>
