<?xml version="1.0" encoding="utf-8"?>
<!-- Generator: Adobe Illustrator 22.0.1, SVG Export Plug-In . SVG Version: 6.00 Build 0)  -->
<svg version="1.1" id="Layer_1" xmlns="http://www.w3.org/2000/svg" xmlns:xlink="http://www.w3.org/1999/xlink" x="0px" y="0px"
	 viewBox="0 0 512 512" style="enable-background:new 0 0 512 512;" xml:space="preserve">
<g id="_x35_2">
	<path d="M256,0C114.6,0,0,114.6,0,256s114.6,256,256,256s256-114.6,256-256S397.4,0,256,0z M256,460c-112.7,0-204-91.3-204-204
		S143.3,52,256,52s204,91.3,204,204S368.7,460,256,460z"/>
	<path d="M239.5,307.6c0,6.4,0.5,9.1,2.2,11c2.2,2.6,5.9,3,8.8,3h12.3c2.7,0,6.5-0.4,8.9-3.1c1.7-2,2.2-4.9,2.2-12.2
		c0.1-5.1,3.3-25.9,9.3-61.7c13.9-83.2,13.9-90.5,13.9-92.9c0-10.1-3.4-19-10-26.6c-6.7-7.8-16.5-11.7-29.1-11.7
		c-12.8,0-23,3.6-30.3,10.8c-7.3,7-11.1,15.9-11.1,26.1c0,1.5,0,5.7,9.9,69C237.9,287.9,239.5,304,239.5,307.6z M256.8,333.7
		c-19.4,0-35.1,15.6-35.1,34.9c0,19.3,15.7,34.9,35.1,34.9c19.4,0,35.1-15.6,35.1-34.9C291.8,349.4,276.2,333.7,256.8,333.7z"/>
</g>
</svg>
