<?xml version="1.0" encoding="utf-8"?>
<!-- Generator: Adobe Illustrator 21.1.0, SVG Export Plug-In . SVG Version: 6.00 Build 0)  -->
<svg version="1.1" id="Layer_1" xmlns="http://www.w3.org/2000/svg" xmlns:xlink="http://www.w3.org/1999/xlink" x="0px" y="0px"
	 viewBox="0 0 177.2 512" style="enable-background:new 0 0 177.2 512;" xml:space="preserve">
<g>
	<circle cx="50.8" cy="452.8" r="50.8"/>
	<path d="M171.4,20.3C167.5,6.6,163.4,0,159.1,0c-3.6,0-17.3,5-40.7,14.8c-23.4,9.8-35.3,16.8-35.3,20.9c0,1.4,1.1,7.1,3.2,17.3
		c4.8,22.4,1.4,70.5-2.3,85.6c-5.8,29.2-43,106.3-43,148.8c0,24.6,6.8,47.6,20.3,69.2c9.6-3,14.6-5.7,14.6-7.7
		c0-1.1-0.5-4.8-1.4-10.9c-3.2-19.3,2-37.3,8.6-52.1c6.6-14.8,67.5-104,81.9-149.3C173.3,110.4,184.1,50.1,171.4,20.3z"/>
</g>
</svg>
