<?xml version="1.0" encoding="utf-8"?>
<!-- Generator: Adobe Illustrator 22.0.1, SVG Export Plug-In . SVG Version: 6.00 Build 0)  -->
<svg version="1.1" id="Layer_1" xmlns="http://www.w3.org/2000/svg" xmlns:xlink="http://www.w3.org/1999/xlink" x="0px" y="0px"
	 viewBox="0 0 512 512" style="enable-background:new 0 0 512 512;" xml:space="preserve">
<g>
	<path d="M462,0.5H50c-27.6,0-50,22.4-50,50v412c0,27.6,22.4,50,50,50h412c27.6,0,50-22.4,50-50v-412C512,22.9,489.6,0.5,462,0.5z
		 M460,448.5c0,9.9-2,12-12,12c-2.4,0-382.6,0-384,0c-10,0-12-2.1-12-12c0-0.6,0-380,0-384c0-10,2-12,12-12c6,0,377.4,0,384,0
		c10,0,12,2,12,12C460,65.8,460,446.5,460,448.5z"/>
	<path d="M257.9,338.4c-20.7,0-37.5,16.7-37.5,37.3s16.8,37.3,37.5,37.3s37.5-16.7,37.5-37.3C295.3,355.2,278.6,338.4,257.9,338.4z"
		/>
	<path d="M239.3,310.5c0,6.8,0.5,9.7,2.3,11.8c2.3,2.8,6.3,3.2,9.4,3.2h13.2c2.9,0,7-0.4,9.5-3.3c1.8-2.1,2.4-5.2,2.4-13
		c0.1-5.5,3.5-27.7,9.9-66c14.9-89,14.9-96.8,14.9-99.4c0-10.8-3.6-20.3-10.7-28.5c-7.2-8.3-17.7-12.5-31.1-12.5
		c-13.7,0-24.6,3.9-32.4,11.5c-7.8,7.5-11.9,17-11.9,27.9c0,1.6,0,6.1,10.6,73.8C237.6,289.4,239.3,306.7,239.3,310.5z"/>
</g>
</svg>
