<?xml version="1.0" encoding="utf-8"?>
<!-- Generator: Adobe Illustrator 21.1.0, SVG Export Plug-In . SVG Version: 6.00 Build 0)  -->
<svg version="1.1" id="Layer_1" xmlns="http://www.w3.org/2000/svg" xmlns:xlink="http://www.w3.org/1999/xlink" x="0px" y="0px"
	 viewBox="0 0 512 512" style="enable-background:new 0 0 512 512;" xml:space="preserve">
<g>
	<g>
		<path d="M229.8,252.9l-87.2,87.4l0.3-75.9l-39.9,0.1v145h145v-41h-75.8l86.4-86.7L229.8,252.9z M462,0.5H50c-27.6,0-50,22.4-50,50
			v412c0,27.6,22.4,50,50,50h412c27.6,0,50-22.4,50-50v-412C512,22.9,489.6,0.5,462,0.5z M460,448.5c0,9.9-2,12-12,12
			c-2.4,0-382.6,0-384,0c-10,0-12-2.1-12-12c0-0.6,0-380,0-384c0-10,2-12,12-12c6,0,377.4,0,384,0c10,0,12,2,12,12
			C460,65.8,460,446.5,460,448.5z M262.9,144.7l76.1-0.1l-86.5,86.8l28.8,28.8l87.4-87.5l-0.5,75.9l39.9-0.1v-145h-145L262.9,144.7z
			"/>
	</g>
</g>
</svg>
