<?xml version="1.0" encoding="utf-8"?>
<!-- Generator: Adobe Illustrator 21.1.0, SVG Export Plug-In . SVG Version: 6.00 Build 0)  -->
<svg version="1.1" id="Layer_6" xmlns="http://www.w3.org/2000/svg" xmlns:xlink="http://www.w3.org/1999/xlink" x="0px" y="0px"
	 viewBox="0 0 512 512" style="enable-background:new 0 0 512 512;" xml:space="preserve">
<g>
	<path d="M462,0H50C22.4,0,0,22.4,0,50v412c0,27.6,22.4,50,50,50h412c27.6,0,50-22.4,50-50V50C512,22.4,489.6,0,462,0z M460,448
		c0,9.9-2,12-12,12c-2.4,0-382.6,0-384,0c-10,0-12-2.1-12-12c0-0.6,0-380,0-384c0-10,2-12,12-12c6,0,377.4,0,384,0c10,0,12,2,12,12
		C460,65.3,460,446,460,448z"/>
	<path d="M239.9,115.7l60.4,60.7L108.9,367.8l36.8,36.8l191.4-191.4l60.2,59.9c3.8,3.8,10.2,1.1,10.2-4.3l0.1-163.4l-163.5,0.1
		C238.8,105.5,236.1,112,239.9,115.7z"/>
</g>
</svg>
