<?xml version="1.0" encoding="utf-8"?>
<!-- Generator: Adobe Illustrator 21.1.0, SVG Export Plug-In . SVG Version: 6.00 Build 0)  -->
<svg version="1.1" id="Layer_6" xmlns="http://www.w3.org/2000/svg" xmlns:xlink="http://www.w3.org/1999/xlink" x="0px" y="0px"
	 viewBox="0 0 543.9 512" style="enable-background:new 0 0 543.9 512;" xml:space="preserve">
<g>
	<path d="M411,460.5H52v-358h227.6l30.1-52H50c-27.6,0-50,22.4-50,50v362c0,27.6,22.4,50,50,50h363c27.6,0,50-22.4,50-50V213.9
		l-52,50.6V460.5z"/>
	<path d="M376.2,10.3L436.6,71L220.3,287.3l36.8,36.8l216.3-216.3l60.2,59.9c3.8,3.8,10.2,1.1,10.2-4.3L543.9,0L380.4,0.1
		C375.1,0.1,372.4,6.6,376.2,10.3z"/>
</g>
</svg>
