<?xml version="1.0" encoding="utf-8"?>
<!-- Generator: Adobe Illustrator 21.1.0, SVG Export Plug-In . SVG Version: 6.00 Build 0)  -->
<svg version="1.1" id="Layer_1" xmlns="http://www.w3.org/2000/svg" xmlns:xlink="http://www.w3.org/1999/xlink" x="0px" y="0px"
	 viewBox="0 0 578.9 512" style="enable-background:new 0 0 578.9 512;" xml:space="preserve">
<g id="_x35_2">
	<path d="M444.9,117.3L412.6,159c50.9,32.2,87.6,76.1,103.6,97.7c-38.3,52.5-116.6,136.2-226.5,136.2c-18.3,0-36.1-2.6-53.1-7.1
		l-34.2,44.1c26.8,9.4,56,15.1,87.3,15.1c179.8,0,285.2-181.9,289-188.6C576.2,252,528,171.6,444.9,117.3z M62.5,256
		C88.7,221,171.4,120.1,289.4,120.1c13.7,0,27,1.5,39.9,4.1l35-45c-23.3-7-48.3-11.1-74.8-11.1C106.5,68.1,0,256.1,0,256.1v0.4
		c0,0,44.6,76.8,123.7,132.3l32-41.2C114.7,319.7,82.3,284.1,62.5,256z M578.8,256.2c0,0-0.1,0.1-0.1,0.2c0.1,0.2,0.2,0.2,0.2,0.2
		L578.8,256.2C578.9,256.2,578.9,256.2,578.8,256.2z"/>
	<path d="M299.2,163L194.9,297.2c-3.9-10.7-6.1-22.3-6.1-34.5c0-55.4,44.9-100.3,100.3-100.3C292.5,162.4,295.8,162.6,299.2,163z"/>
	<path d="M389.3,262.7c0,13.1-2.5,25.6-7.1,37.1c-4.4-13.3-16.9-22.9-31.6-22.9c-18.4,0-33.3,14.9-33.3,33.3
		c0,17.7,13.8,32.2,31.1,33.3c-16.6,12.2-37.1,19.4-59.3,19.4c-10.8,0-21.3-1.7-31-4.9l115.7-149C383.6,224.6,389.3,243,389.3,262.7
		z"/>
	<path d="M514.1,0.9h-67.2L49,512.9h67.6L514.1,0.9z"/>
</g>
</svg>
