<?xml version="1.0" encoding="utf-8"?>
<!-- Generator: Adobe Illustrator 21.1.0, SVG Export Plug-In . SVG Version: 6.00 Build 0)  -->
<svg version="1.1" id="Layer_3" xmlns="http://www.w3.org/2000/svg" xmlns:xlink="http://www.w3.org/1999/xlink" x="0px" y="0px"
	 viewBox="0 0 512 512" style="enable-background:new 0 0 512 512;" xml:space="preserve">
<g>
	<path d="M492.6,161.1h-43.5l0-161.1H189.5l0,161.1h-18.6c-0.6-6.2-5.8-11-12.1-11H74.6c-6.3,0-11.5,4.8-12.1,11H19.4
		C8.7,161.1,0,169.8,0,180.5v287.3c0,10.7,8.7,19.4,19.4,19.4h43v12c0,6.7,5.4,12.2,12.2,12.2h84.2c6.7,0,12.2-5.4,12.2-12.2v-12
		h321.6c10.7,0,19.4-8.7,19.4-19.4V180.5C512,169.8,503.3,161.1,492.6,161.1z M221.7,32.2H417l0,128.9H221.7L221.7,32.2z
		 M48.2,439.1V209.2h14.3v229.8H48.2z M463.8,439.1H171V209.2h292.8V439.1z"/>
	<path d="M248.2,63.9h142.1v21.6H248.2V63.9z M248.2,106.8h142.1v21.6H248.2V106.8z M250.5,416.1c-4.6,4.6-11,7.5-18.1,7.5
		c-14.1,0-25.6-11.5-25.6-25.6c0-7.1,2.9-13.5,7.5-18.1c4.6-4.6,11-7.5,18.1-7.5c7.1,0,13.5,2.9,18.1,7.5s7.5,11,7.5,18.1
		C258,405.1,255.1,411.5,250.5,416.1z M250.5,345.8c-4.6,4.6-11,7.5-18.1,7.5c-14.1,0-25.6-11.5-25.6-25.6c0-7.1,2.9-13.5,7.5-18.1
		c4.6-4.6,11-7.5,18.1-7.5c7.1,0,13.5,2.9,18.1,7.5s7.5,11,7.5,18.1C258,334.8,255.1,341.2,250.5,345.8z M340.8,416.1
		c-4.6,4.6-11,7.5-18.1,7.5c-14.1,0-25.6-11.5-25.6-25.6c0-7.1,2.9-13.5,7.5-18.1c4.6-4.6,11-7.5,18.1-7.5c7.1,0,13.5,2.9,18.1,7.5
		c4.6,4.6,7.5,11,7.5,18.1C348.3,405.1,345.4,411.5,340.8,416.1z M340.8,345.8c-4.6,4.6-11,7.5-18.1,7.5
		c-14.1,0-25.6-11.5-25.6-25.6c0-7.1,2.9-13.5,7.5-18.1c4.6-4.6,11-7.5,18.1-7.5c7.1,0,13.5,2.9,18.1,7.5c4.6,4.6,7.5,11,7.5,18.1
		C348.3,334.8,345.4,341.2,340.8,345.8z M431.1,416.1c-4.6,4.6-11,7.5-18.1,7.5c-14.1,0-25.6-11.5-25.6-25.6
		c0-7.1,2.9-13.5,7.5-18.1c4.6-4.6,11-7.5,18.1-7.5c7.1,0,13.5,2.9,18.1,7.5c4.6,4.6,7.5,11,7.5,18.1
		C438.6,405.1,435.7,411.5,431.1,416.1z M431.1,345.8c-4.6,4.6-11,7.5-18.1,7.5c-14.1,0-25.6-11.5-25.6-25.6
		c0-7.1,2.9-13.5,7.5-18.1c4.6-4.6,11-7.5,18.1-7.5c7.1,0,13.5,2.9,18.1,7.5c4.6,4.6,7.5,11,7.5,18.1
		C438.6,334.8,435.7,341.2,431.1,345.8z M438.6,275H206.8v-44.3h231.8V275z"/>
</g>
</svg>
