<?xml version="1.0" encoding="utf-8"?>
<!-- Generator: Adobe Illustrator 21.1.0, SVG Export Plug-In . SVG Version: 6.00 Build 0)  -->
<svg version="1.1" id="Layer_2" xmlns="http://www.w3.org/2000/svg" xmlns:xlink="http://www.w3.org/1999/xlink" x="0px" y="0px"
	 viewBox="0 0 505 512" style="enable-background:new 0 0 505 512;" xml:space="preserve">
<path d="M504,2c-39,31-130.7,32.7-222,68c-21,10-42,43-42,43c10-35-2.8-24.2-11-20c-27.3,11-62.3,38.8-92,74c-14.3,17-10,43-19,71
	c-3-13,3.4-55.2-2-49c-8.7,9.9-30.9,35.5-35.1,41.6c-48.1,71.5-9.4,175.4-11.7,178.9C63.7,417.7,0.4,506.9,0,512h22
	c0,0,19.8-42,63.9-91.4c8.8-9.9,144-30,186.9-72.2c26-25.5,31.3-36.3,52.2-65.4c2.9-4,111.9-41,164.7-177.2C493.3,98.4,508,58,504,2
	z M442.7,83.7l-0.7,1.4l-0.7,1.9c-16.4,42.4-41,78.2-73.1,106.5c-25.6,22.6-48.7,34-59.8,39.5c-8.2,4.1-17.6,8.7-25.5,19.7
	c-4.8,6.6-8.8,12.3-12.3,17.3c-11.9,17-17.4,24.8-34.3,41.4c-2.5,2.5-13.3,11.5-47,23.6c-19.7,7.1-41.3,13.1-60.5,18.2
	c22.8-30.3,50.7-66.7,59.1-75.3C206.3,259,310,153,310,153c-17.9,0.7-90,71-111.7,89.8c-25.3,21.8-63.5,66.2-88.5,98.7
	c-0.5-5.4-0.9-11.1-1-16.8c-0.4-18.8,2-35.1,7-48.7c3.2-9,4.9,35.9,8.2,31c1.2-1.7,13-62,20-71c4.5-5.4,11.9-13.6,11.9-13.6
	c12.9-15.5,32.6-34.8,52.7-51.6c16-13.4,5.4,35.2,7.4,35.2c5-2.7,29-60,43-71l32.4-11.2c37-14.3,77.7-24,113.6-32.6
	c13.3-3.2,26.1-6.2,38.3-9.4C443.1,82.8,442.8,83.4,442.7,83.7z"/>
</svg>
