<?xml version="1.0" encoding="utf-8"?>
<!-- Generator: Adobe Illustrator 21.1.0, SVG Export Plug-In . SVG Version: 6.00 Build 0)  -->
<svg version="1.1" id="Layer_1" xmlns="http://www.w3.org/2000/svg" xmlns:xlink="http://www.w3.org/1999/xlink" x="0px" y="0px"
	 viewBox="0 0 463.9 512" style="enable-background:new 0 0 463.9 512;" xml:space="preserve">
<g>
	<path d="M329.6,310.8c1.4,0.1,2.6,0.1,3.5,0.2c0.3,0,0.7,0,1,0c12.6,0,6.2-21,4.9-56.9c-1.3-35.8,3-86.8,3-122.6
		C341.8,59.4,291.4,0.8,229.3,0.8s-112.5,58.6-112.5,131c0,26.8,3.3,82.7,2,123.6c-1.1,33.9-8.2,55.8,3,55.8c1.9,0,5.8,0,11.5-0.1
		C54.7,333.8,0,382.2,0,433.7c0,70.9,103.6,78.2,230.9,78.3h1c63.9-0.1,121.9-1.9,163.9-12.7c42.1-10.7,68-30.3,68-65.7
		C463.9,382,408.8,333.6,329.6,310.8z M308.2,191.2c-1.5,0-3.2-0.2-4.6-1.3c-9.2,45.3-40.7,87.6-78,87.6
		c-37.1,0-68.2-41.7-77.7-86.3c-0.3,0-0.7,0-1,0c-3.3,0-6.8-7.7-8.9-16.4l0,0c-1.3-5.2-2-10.7-2-15.2c0-8.8,4.2-15.8,9.4-15.8
		c0.8,0,1.5,0.2,2.1,0.5c0,0,0,0,0,0c0,0,0,0,0,0c20.1-21.3,15.1-22.7,16-60c18.4,50.2,88.3,30.5,106.9,30.7
		c12.9,0.1,32.8,1.2,35.1,29.5c0,0.3,0.1,0.7,0.1,1c0,0,0,0,0,0c0,0,0,0,0,0c1.2-1.1,2.5-1.7,4-1.7c5.2,0,9.3,7.1,9.4,15.8
		C319.2,171.7,313.4,191.2,308.2,191.2z M308.2,299.2c-17.6,24.6-45.3,40.4-76.3,40.4c-31.1,0-58.7-15.8-76.3-40.4l19.3-18.6
		c12.6,19,33.4,31.2,56.9,31.2c23.4,0,44.3-12.3,57.1-31.2L308.2,299.2z M411.3,436.1c-0.5,0.6-5.7,6.7-28.5,12.6
		c-37.5,9.6-94.7,11-151.1,11.1h-0.7c-47-0.1-95.5-1-132.4-7.2C60.8,446.1,53,437,52.4,436.3c-0.1-0.2-0.2-1-0.2-2.6
		c0-9.7,7.3-21.8,20-33.4c17.2-15.7,42.9-29.2,72.6-38.1c25.2,18.9,55.6,29.6,87,29.6c31.4,0,61.9-10.6,86.9-29.5
		c29.6,9,55.2,22.3,72.5,37.9c12.9,11.6,20.2,23.8,20.2,33.4C411.5,435,411.3,435.8,411.3,436.1z"/>
</g>
</svg>
