<?xml version="1.0" encoding="utf-8"?>
<!-- Generator: Adobe Illustrator 21.1.0, SVG Export Plug-In . SVG Version: 6.00 Build 0)  -->
<svg version="1.1" id="bold" xmlns="http://www.w3.org/2000/svg" xmlns:xlink="http://www.w3.org/1999/xlink" x="0px" y="0px"
	 viewBox="0 0 705.9 512" style="enable-background:new 0 0 705.9 512;" xml:space="preserve">
<g>
	<path d="M694,330.2c-24.2-40.4-82.8-60.3-102.4-66.1c0.2,0,8.5,2,9.8-5c2-10.2-1.5-18.9-1.8-42.9c-0.3-19.6,0.5-44.4,1.5-67.7h0
		c0.6-12.9,1.6-25.3,1.6-36.1C602.5,52,559.8,3,507.3,3c-20.6,0-39.7,7.5-55.2,20.3c23.9,17.6,41.7,45.5,48.9,78.2
		c17.2,0.4,33.7-3.1,41-3c11.1,0.1,28.2,1,29.8,25.5c1-0.9,2.1-1.4,3.4-1.4c4.4,0,7.9,5.8,8,13.1c0.2,5.4-3.1,26.7-9.3,27.1
		c-1.3,0.1-2.6-0.2-3.9-1.1c0,0,0,0-0.1,0c-14.8,60-47.7,73.3-63.5,74.3c0,6.3,0.5,25.5,0.7,29c0.8,0,1.5,0,2.3,0
		c19.9,0,37.6-10.5,48.3-26.5l16.4,15.8c0,0.1-0.1,0.1-0.1,0.2c-14.9,20.7-38.4,34.2-64.7,34.2h-0.4c0.4,6.2,0.5,11.3-0.1,14.9
		c33.7,3.6,84.5,8.3,129.9,42.2c0.1,0.1,0.2,0.2,0.3,0.2c3.2,3.3-3,16.2-9.3,28.9c-2.9,5.9-7.1,12-10.4,16.8
		c6.7,11.6,10.9,23.6,11.9,35.9c5.9-1,11.6-2.2,17-3.6c35-9,57.7-25.2,57.7-54.4C705.9,346.1,694.5,330.9,694,330.2z"/>
	<path d="M199.1,1c-19.8,0-28.1,3.4-30.3,4.1C128.7,18.5,99.2,61.7,99.2,113c0,4.7,2.6,84.5,1.9,105.4c-0.5,17.2-3,30.7-2.7,38.9
		c0.2,7.8,2.7,8.4,5.3,8.4c1.6,0,4.9,0,9.7,0C46.2,285.1-0.4,326.2-0.4,370c0,47.2,58.5,56.6,76,59.6c0.4-10.1,6.8-28.2,8-31.5
		c0.8-2.2,0.1-10.5-1-20.5c-1.6-14.6-3.8-32.8-2.3-40.4c0.3-1.8,0.9-3,1.8-3.4c5.4-2.2,10.6-4.3,16.1-6.6c0,0,0,0,0.1,0
		c22.7-9,48.6-17.6,93.6-23.3c-0.7-3.5-0.4-8.4,0.1-14.1c-5.9-0.4-11.5-1.4-17-3c-17.3-5.2-32.2-16.3-42.9-31.1l16.5-15.9
		c7.8,11.5,22.8,25.4,45.5,26.3c0.2-3.1,0.8-22.4,0.8-29.1c-7.6,0.6-14.9-1.5-15-1.5c-26.3-7.4-47.4-38.6-54.4-71.8
		c-0.2,0-1.3,0-1.5-0.1c-4.5-1.8-10.5-21.2-7.8-32.1c1.2-4.8,4.5-9.4,9.1-7.8c0,0,0,0,0,0c0,0,0,0,0,0c1.3-1.4,2.5-2.7,3.6-3.9h0
		c12.9-14.7,9.3-18,10-47.3c7.2,19.8,23.8,26.9,41.1,28.8c8.8-7.1,22-16.3,27.3-18.4c8.7-25.1,23.9-46.5,43.2-61.1
		C250.3,21.4,225.2,1,199.1,1z"/>
	<path d="M450.2,310.7c1.4,0.1,2.6,0.1,3.5,0.2c0.3,0,0.7,0,1,0c12.6,0,6.2-21,4.9-56.9c-1.3-35.8,3-87,3-122.7
		C462.7,58.8,412.2,0,350,0S237.3,58.7,237.3,131.2c0,26.8,3.3,82.9,2,123.8c-1.1,33.9-8.2,55.9,3,55.9c1.9,0,5.8,0,11.5-0.1
		c-78.7,22.8-133.5,71.2-133.5,122.7c0,71.1,103.8,78.3,231.3,78.4h1c64-0.1,122-1.9,164.1-12.7c42.1-10.7,68.2-30.3,68.2-65.9
		C584.7,381.9,529.5,333.3,450.2,310.7z M424.2,189.4c-9.2,45.3-40.7,87.8-78.1,87.8c-37.1,0-68.4-41.7-77.8-86.5c-0.3,0-0.7,0-1,0
		c-3.3,0-6.8-7.8-8.9-16.6l0.1,0c-1.3-5.1-2-10.6-2-15.1c0-8.7,4.2-15.7,9.4-15.7c0.8,0,1.5,0.2,2.1,0.5
		c20.2-21.2,15.1-22.6,16-59.6c18.4,49.9,88.4,30.3,107,30.5c13.1,0.1,33.4,1.2,35.3,30.3c0,0,0,0,0,0c0,0,0,0,0,0
		c0.5-0.5,1.1-0.9,1.7-1.1c0.7-0.4,1.5-0.6,2.4-0.6c0.8,0,1.6,0.2,2.3,0.5c4.1,1.7,7.1,7.9,7.1,15.3c0,0.3,0,0.7,0,1
		c0,0.1,0,0.1,0,0.2c0,0.3,0,0.6,0,0.9c0,0.3,0,0.7-0.1,1c0,0.1,0,0.3,0,0.4c-0.3,3.7-0.9,7.7-1.9,11.5h0
		c-2.1,8.8-5.7,16.6-8.9,16.6C427.3,190.7,425.6,190.5,424.2,189.4z M428.8,298.9c-17.6,24.6-45.3,40.4-76.4,40.4
		s-58.8-15.8-76.4-40.4l19.3-18.6c12.8,18.9,33.5,31.2,57.1,31.2c23.5,0,44.3-12.3,57.1-31.2L428.8,298.9z M532.2,436
		c-0.5,0.6-5.7,6.7-28.5,12.6c-37.6,9.6-94.9,11-151.3,11.1h-0.8c-47-0.1-95.7-1-132.6-7.2c-37.8-6.4-45.5-15.5-46.1-16.2
		c-0.1-0.2-0.2-1-0.2-2.6c0-9.7,7.4-21.9,20-33.4c17.2-15.7,43-29.2,72.6-38.2c25.2,18.9,55.7,29.6,87.2,29.6
		c31.5,0,62-10.6,87.1-29.5c29.6,9,55.3,22.4,72.6,38c12.9,11.6,20.2,23.9,20.2,33.4C532.4,434.9,532.3,435.8,532.2,436z"/>
</g>
</svg>
