<?xml version="1.0" encoding="utf-8"?>
<!-- Generator: Adobe Illustrator 22.0.1, SVG Export Plug-In . SVG Version: 6.00 Build 0)  -->
<svg version="1.1" xmlns="http://www.w3.org/2000/svg" xmlns:xlink="http://www.w3.org/1999/xlink" x="0px" y="0px"
	 viewBox="0 0 533.2 512" style="enable-background:new 0 0 533.2 512;" xml:space="preserve">
<style type="text/css">
	.st0{fill:#010101;}
</style>
<g id="Layer_3">
	<g>
		<circle class="st0" cx="266.7" cy="460.5" r="51.2"/>
	</g>
</g>
<g id="Layer_7">
	<path d="M497,10.1L497,10.1c-18.7-15.4-46.3-12.9-61.7,5.6l-0.2,0.2c-0.5,0.6-312.1,370.8-343.8,407c-1,0.8-1.8,1.1-2.4,1.2
		c-0.5-2.7-0.5-7.2,0-9.7c2.4-11.3,0.2-22.9-6.1-32.7c-6.4-9.8-16.1-16.5-27.5-19c-11.4-2.5-23-0.5-32.8,5.9
		c-9.9,6.4-16.8,16.3-19.2,27.8c-5.3,24.8-4,73.7,35.1,99.8c15.6,10.4,32.5,15.7,50.1,15.7c30.7,0,55.9-16.2,68.1-30.1l0,0
		c28.7-32.6,345.2-408.8,345.8-409.6l0.3-0.4C517.9,53.1,515.4,25.5,497,10.1z M420,96.7c4.3-5.1,8.4-10,12.2-14.5l4.7,4.7
		c-3.8,4.5-7.9,9.4-12.2,14.5L420,96.7z M411.7,116.8c-4,4.7-8.1,9.6-12.3,14.6l-4.7-4.7c4.2-5,8.3-9.9,12.3-14.6L411.7,116.8z
		 M126.1,454.9L126.1,454.9c-6.9,7.9-21.7,16.4-37.7,16.4c-9.4,0-18.7-3-27.6-8.9c-21-14.1-21-43.8-18-57.6l0-0.2
		c0.2-1.2,1-1.8,1.4-2.1c0.5-0.3,1-0.5,1.5-0.5c0.2,0,0.4,0,0.6,0.1l0.4,0.1c1,0.2,1.7,0.9,2,1.4c0.3,0.5,0.7,1.3,0.5,2.4l-0.1,0.5
		c-0.3,1.4-6.6,35.7,15.3,50.3c20.8,13.9,43.5,6.9,55.8-5.5l0.9-0.9c17.4-19.8,164.3-193.8,260.8-308.3l4.7,4.7
		C289.9,261.4,143.2,435.4,126.1,454.9z M471.4,45.9c0,0-8,9.5-21.6,25.6l-4.7-4.7c13.3-15.8,21.2-25.2,21.2-25.2
		c1.2-1.5,3.5-1.6,4.8-0.2C472.4,42.6,472.5,44.6,471.4,45.9z"/>
	<path d="M37.6,10.1L37.6,10.1C56.2-5.3,83.9-2.8,99.3,15.7l0.2,0.2c0.5,0.6,312,370.7,343.7,406.8c1,0.8,1.8,1.1,2.4,1.2
		c0.5-2.7,0.5-7.2,0-9.7c-2.4-11.3-0.2-22.9,6.1-32.7c6.4-9.8,16.1-16.5,27.5-19c11.3-2.5,23-0.5,32.8,5.9
		c9.9,6.4,16.8,16.3,19.2,27.8c5.3,24.8,4,73.7-35.1,99.7c-15.6,10.4-32.5,15.7-50.1,15.7c-30.7,0-55.9-16.2-68.1-30.1l0,0
		C349.3,449,32.9,72.8,32.2,72.1l-0.3-0.4C16.6,53.1,19.2,25.5,37.6,10.1z M114.5,96.7c-4.3-5.1-8.4-10-12.2-14.5l-4.7,4.7
		c3.8,4.5,7.9,9.4,12.2,14.5L114.5,96.7z M122.8,116.7c4,4.7,8.1,9.6,12.3,14.6l4.7-4.7c-4.2-5-8.3-9.9-12.3-14.6L122.8,116.7z
		 M408.4,454.8L408.4,454.8c6.9,7.9,21.7,16.4,37.7,16.4c9.4,0,18.7-3,27.6-8.9c21-14.1,21-43.8,18-57.6l0-0.2
		c-0.2-1.2-1-1.8-1.4-2.1c-0.5-0.3-1-0.5-1.5-0.5c-0.2,0-0.4,0-0.6,0.1l-0.4,0.1c-1,0.2-1.7,0.9-2,1.4c-0.3,0.5-0.7,1.3-0.5,2.4
		l0.1,0.5c0.3,1.4,6.6,35.6-15.3,50.3c-20.7,13.9-43.5,6.9-55.8-5.5l-0.9-0.9C396,430.4,249.2,256.5,152.7,142l-4.7,4.7
		C244.6,261.4,391.2,435.3,408.4,454.8z M63.1,45.9c0,0,8,9.5,21.6,25.6l4.7-4.7C76,51,68.2,41.6,68.2,41.6
		c-1.2-1.5-3.5-1.6-4.8-0.2C62.1,42.6,62,44.6,63.1,45.9z"/>
</g>
</svg>
