<?xml version="1.0" encoding="utf-8"?>
<!-- Generator: Adobe Illustrator 21.1.0, SVG Export Plug-In . SVG Version: 6.00 Build 0)  -->
<svg version="1.1" id="Layer_1" xmlns="http://www.w3.org/2000/svg" xmlns:xlink="http://www.w3.org/1999/xlink" x="0px" y="0px"
	 viewBox="0 0 516.5 512" style="enable-background:new 0 0 516.5 512;" xml:space="preserve">
<g>
	<g>
		<path d="M449.3,330.5l67.2,114.3V330.5H449.3z M348,330.5L438.3,512h70.2L387.1,330.5H348z M283.8,324.5V512h96.3l-93.3-187.5
			H283.8z M360.1,197.6c0-56.3-45.5-101.8-101.8-101.8s-101.8,45.5-101.8,101.8S202,299.4,258.3,299.4S360.1,253.8,360.1,197.6z
			 M0,330.5v114.3l67.2-114.3H0z M129.4,330.5L7,512h71.2l90.3-181.5H129.4z M136.4,512h96.3V324.5h-3L136.4,512z M284.8,1.5h-52.2
			v62.2h52.2V1.5z M455.3,172h-62.2v52.2h62.2V172z M125.4,172H63.2v52.2h62.2V172z M388.3,153.8l53.9-31.1L416,77.5l-53.9,31.1
			L388.3,153.8z M76.4,273.5l26.1,45.1l53.9-31.1l-26.1-45.1L76.4,273.5z M379.9,41.3l-45.1-26.1l-31.1,53.9l45.1,26.1L379.9,41.3z
			 M214.9,69.1l-31.1-53.9l-45.1,26.1l31.1,53.9L214.9,69.1z M156.4,108.5l-53.9-31.1l-26.1,45.1l53.9,31.1L156.4,108.5z
			 M362.2,287.6l53.9,31.1l26.1-45.1l-53.9-31.1L362.2,287.6z"/>
	</g>
</g>
</svg>
