<?xml version="1.0" encoding="utf-8"?>
<!-- Generator: Adobe Illustrator 21.1.0, SVG Export Plug-In . SVG Version: 6.00 Build 0)  -->
<svg version="1.1" id="Layer_2" xmlns="http://www.w3.org/2000/svg" xmlns:xlink="http://www.w3.org/1999/xlink" x="0px" y="0px"
	 viewBox="0 0 421.5 512" style="enable-background:new 0 0 421.5 512;" xml:space="preserve">
<style type="text/css">
	.st0{fill-rule:evenodd;clip-rule:evenodd;}
</style>
<g id="_x35_2">
	<g>
		<path class="st0" d="M421.5,122L299.5,0l-284,0c-8.3,0-15,6.7-15,15v482c0,8.3,6.7,15,15,15h391c8.3,0,15-6.7,15-15L421.5,122z
			 M369.5,445c0,8.3-6.7,15-15,15h-287c-8.3,0-15-6.7-15-15V67c0-8.3,6.7-15,15-15h180v112c0,5.5,4.5,10,10,10h112V445z
			 M262.2,362.9h-20.8c-4.6,0-6.9-2.3-6.9-6.8h-80.8V433c0,4.6,2.3,6.9,6.9,6.9h182.2c4.6,0,6.9-2.3,6.9-6.9v-76.9h-80.6
			C269.1,360.6,266.8,362.9,262.2,362.9z M258.6,356.1c2.4,0,3.5-1.2,3.5-3.5c0-2.3-1.2-3.5-3.5-3.5h-13.9c-2.3,0-3.4,1.2-3.4,3.5
			c0,2.3,1.1,3.5,3.4,3.5H258.6z M213.6,291.3l0.2,14.9h-53.2c-4.6,0-6.9,2.3-6.9,6.9v36h80.8c0-4.5,2.3-6.8,6.9-6.8h20.8
			c4.6,0,6.9,2.3,6.9,6.8h80.6v-36c0-4.6-2.3-6.9-6.9-6.9l-52.7,0v-15.1c-0.5-3.7-2.7-5.6-6.5-5.6h-63.5
			C216.2,285.6,214.1,287.5,213.6,291.3z M223.5,298.2c0.1-2.7,1.6-4.1,4.5-4.1h47.7c3.1,0,4.5,1.4,4.3,4.1v8h-56.5V298.2z"/>
	</g>
</g>
</svg>
