<?xml version="1.0" encoding="utf-8"?>
<!-- Generator: Adobe Illustrator 21.1.0, SVG Export Plug-In . SVG Version: 6.00 Build 0)  -->
<svg version="1.1" id="Layer_2" xmlns="http://www.w3.org/2000/svg" xmlns:xlink="http://www.w3.org/1999/xlink" x="0px" y="0px"
	 viewBox="0 0 421.5 512" style="enable-background:new 0 0 421.5 512;" xml:space="preserve">
<style type="text/css">
	.st0{fill-rule:evenodd;clip-rule:evenodd;}
</style>
<g id="_x35_2">
	<g>
		<path class="st0" d="M261.2,365.7c-48.8,0-88.3-11.3-88.3-25.2v25.4c0,13.9,39.5,25.2,88.3,25.2s88.3-11.3,88.3-25.2v-25.4
			C349.5,354.5,310,365.7,261.2,365.7z M261.2,316.7c-48.8,0-88.3-11.3-88.3-25.2v25.4c0,13.9,39.5,25.2,88.3,25.2
			s88.3-11.3,88.3-25.2v-25.4C349.5,305.4,310,316.7,261.2,316.7z M172.9,242.2c0,0,0,14,0,25.6c0,13.9,39.5,25.2,88.3,25.2
			s88.3-11.3,88.3-25.2c0-13.9,0-25.6,0-25.6c-0.4-13.8-39.8-25-88.3-25C212.7,217.2,173.3,228.4,172.9,242.2z M421.5,122L299.5,0
			l-284,0c-8.3,0-15,6.7-15,15v482c0,8.3,6.7,15,15,15h391c8.3,0,15-6.7,15-15L421.5,122z M369.5,445c0,8.3-6.7,15-15,15h-287
			c-8.3,0-15-6.7-15-15V67c0-8.3,6.7-15,15-15h180v112c0,5.5,4.5,10,10,10h112V445z M261.2,414.8c-48.8,0-88.3-11.3-88.3-25.2V415
			c0,14,39.5,25.2,88.3,25.2s88.3-11.3,88.3-25.2v-25.4C349.5,403.5,310,414.8,261.2,414.8z"/>
	</g>
</g>
</svg>
