<?xml version="1.0" encoding="utf-8"?>
<!-- Generator: Adobe Illustrator 21.1.0, SVG Export Plug-In . SVG Version: 6.00 Build 0)  -->
<svg version="1.1" id="Layer_2" xmlns="http://www.w3.org/2000/svg" xmlns:xlink="http://www.w3.org/1999/xlink" x="0px" y="0px"
	 viewBox="0 0 421.5 512" style="enable-background:new 0 0 421.5 512;" xml:space="preserve">
<style type="text/css">
	.st0{fill-rule:evenodd;clip-rule:evenodd;}
</style>
<g id="_x35_2">
	<g>
		<path class="st0" d="M421.5,122L299.5,0l-284,0c-8.3,0-15,6.7-15,15v482c0,8.3,6.7,15,15,15h391c8.3,0,15-6.7,15-15L421.5,122z
			 M369.5,445c0,8.3-6.7,15-15,15h-287c-8.3,0-15-6.7-15-15V67c0-8.3,6.7-15,15-15h180v112c0,5.5,4.5,10,10,10h112V445z
			 M124.6,440.4h224.1V260.8H124.6V440.4z M213.2,414.7l46.4-46.4l42.4,46.4H213.2z M153.5,292.8c0-1,0.3-1.8,0.8-2.3
			s1.3-0.8,2.3-0.8h160.1c0.6,0.1,1.3,0.3,2,0.8c0.7,0.5,1,1.3,1,2.3v74.5l-49.1-49l-61,61l-19-19l-37.1,37.1V292.8z"/>
	</g>
</g>
</svg>
