<?xml version="1.0" encoding="utf-8"?>
<!-- Generator: Adobe Illustrator 21.1.0, SVG Export Plug-In . SVG Version: 6.00 Build 0)  -->
<svg version="1.1" id="Layer_2" xmlns="http://www.w3.org/2000/svg" xmlns:xlink="http://www.w3.org/1999/xlink" x="0px" y="0px"
	 viewBox="0 0 421.5 512" style="enable-background:new 0 0 421.5 512;" xml:space="preserve">
<g id="_x35_2">
	<g>
		<path d="M421.5,122L299.5,0h-284c-8.3,0-15,6.7-15,15v482c0,8.3,6.7,15,15,15h391c8.3,0,15-6.7,15-15V122z M369.5,445
			c0,8.3-6.7,15-15,15h-287c-8.3,0-15-6.7-15-15V67c0-8.3,6.7-15,15-15h180v112c0,5.5,4.5,10,10,10h112V445z M217.5,250.2v62h-62
			v59.7h62v62h59.7v-62h62v-59.7h-62v-62L217.5,250.2L217.5,250.2z"/>
	</g>
</g>
</svg>
