<?xml version="1.0" encoding="utf-8"?>
<!-- Generator: Adobe Illustrator 21.1.0, SVG Export Plug-In . SVG Version: 6.00 Build 0)  -->
<svg version="1.1" id="Layer_2" xmlns="http://www.w3.org/2000/svg" xmlns:xlink="http://www.w3.org/1999/xlink" x="0px" y="0px"
	 viewBox="0 0 421.5 512" style="enable-background:new 0 0 421.5 512;" xml:space="preserve">
<style type="text/css">
	.st0{fill-rule:evenodd;clip-rule:evenodd;}
</style>
<g id="_x35_2">
	<g>
		<path class="st0" d="M421.5,122L299.5,0l-284,0c-8.3,0-15,6.7-15,15v482c0,8.3,6.7,15,15,15h391c8.3,0,15-6.7,15-15L421.5,122z
			 M369.5,445c0,8.3-6.7,15-15,15h-287c-8.3,0-15-6.7-15-15V67c0-8.3,6.7-15,15-15h180v112c0,5.5,4.5,10,10,10h112V445z
			 M188.1,440.3h29.3l33.4-199.7h-29.3L188.1,440.3z M172.9,418.8v-38.7l-39.7-39.7l39.7-38.7V262l-77.8,77.8L172.9,418.8z
			 M271.8,261.5v39.2l39.7,39.7l-39.7,38.7v39.7l77.8-78.4L271.8,261.5z"/>
	</g>
</g>
</svg>
