<?xml version="1.0" encoding="utf-8"?>
<!-- Generator: Adobe Illustrator 21.1.0, SVG Export Plug-In . SVG Version: 6.00 Build 0)  -->
<svg version="1.1" id="Shape_1_1_" xmlns="http://www.w3.org/2000/svg" xmlns:xlink="http://www.w3.org/1999/xlink" x="0px" y="0px"
	 viewBox="0 0 421.8 512" style="enable-background:new 0 0 421.8 512;" xml:space="preserve">
<g>
	<path d="M406.7,46H299.4L254.2,0.9H15.4c-8.3,0-15,6.7-15,15v432c0,8.3,6.7,15,15,15h31V498c0,8.3,6.7,15,15,15h345.4
		c8.3,0,15-6.7,15-15V61C421.7,52.7,415,46,406.7,46z M52.4,395.9v-328c0-8.3,6.7-15,15-15h155v92c0,5.5,4.5,10,10,10h92v241
		c0,8.3-6.7,15-15,15h-242C59.1,410.9,52.4,404.2,52.4,395.9z M389.8,466c0,8.3-6.7,15-15,15H93.3c-8.3,0-15-6.7-15-15v-3.1h283.1
		c8.3,0,15-6.7,15-15v-325l-45-44.9h43.4c8.3,0,15,6.7,15,15V466z"/>
	<path d="M70.3,91.3h103v-14h-103V91.3z M70.3,141.3h103v-14h-103V141.3z M70.3,191.3h103v-14h-103V191.3z M70.3,241.3h103v-14h-103
		V241.3z M70.3,291.3h103v-14h-103V291.3z M70.3,341.3h103v-14h-103V341.3z M70.3,391.3h103v-14h-103V391.3z M195.3,191.3h103v-14
		h-103V191.3z M195.3,241.3h103v-14h-103V241.3z M195.3,291.3h103v-14h-103V291.3z M195.3,341.3h103v-14h-103V341.3z M195.3,391.3
		h103v-14h-103V391.3z"/>
</g>
</svg>
