<?xml version="1.0" encoding="utf-8"?>
<!-- Generator: Adobe Illustrator 21.1.0, SVG Export Plug-In . SVG Version: 6.00 Build 0)  -->
<svg version="1.1" id="Layer_2" xmlns="http://www.w3.org/2000/svg" xmlns:xlink="http://www.w3.org/1999/xlink" x="0px" y="0px"
	 viewBox="0 0 421.5 512" style="enable-background:new 0 0 421.5 512;" xml:space="preserve">
<g id="_x35_2">
	<path d="M421.5,122L299.5,0h-284c-8.3,0-15,6.7-15,15v482c0,8.3,6.7,15,15,15h391c8.3,0,15-6.7,15-15V122z M369.5,445
		c0,8.3-6.7,15-15,15h-287c-8.3,0-15-6.7-15-15V67c0-8.3,6.7-15,15-15h180v112c0,5.5,4.5,10,10,10h112V445z"/>
	<path d="M312.2,375.7l40.5-40.5l-28.4-28.4l-40.5,40.4l-12.7-12.7c20.1-10.9,32.8-31.7,32.8-55c0-34.6-28.2-62.8-62.8-62.8h-84.2
		V417h40.2v-74.7H222l33.3,33.3l-15.6,15.6c-13.7,13.7-13.7,36,0,49.8l3.5,3.5l40.5-40.5l40.5,40.5l3.5-3.5
		c13.7-13.7,13.7-36,0-49.8L312.2,375.7z M241.1,302.2h-43.9V257h43.9c12.5,0,22.6,10.1,22.6,22.6
		C263.7,292,253.6,302.2,241.1,302.2z"/>
</g>
</svg>
