<?xml version="1.0" encoding="utf-8"?>
<!-- Generator: Adobe Illustrator 21.1.0, SVG Export Plug-In . SVG Version: 6.00 Build 0)  -->
<svg version="1.1" id="Layer_2" xmlns="http://www.w3.org/2000/svg" xmlns:xlink="http://www.w3.org/1999/xlink" x="0px" y="0px"
	 viewBox="0 0 421.5 512" style="enable-background:new 0 0 421.5 512;" xml:space="preserve">
<style type="text/css">
	.st0{fill-rule:evenodd;clip-rule:evenodd;}
</style>
<g id="_x35_2">
	<g>
		<path class="st0" d="M421.5,122L299.5,0l-284,0c-8.3,0-15,6.7-15,15v482c0,8.3,6.7,15,15,15h391c8.3,0,15-6.7,15-15L421.5,122z
			 M369.5,445c0,8.3-6.7,15-15,15h-287c-8.3,0-15-6.7-15-15V67c0-8.3,6.7-15,15-15h180v112c0,5.5,4.5,10,10,10h112V445z M214,265.8
			c0,13.1,9,27.4,16.6,36.4c-1.2,8.4-4,22.6-9.8,36.4c-6.5,15.4-16.3,30.7-22.3,39.6c-11.6,0.5-31,3.8-41.1,14
			c-14.8,14.8-13.3,30-3,40.3c10.3,10.3,25.5,11.8,40.3-3c9.3-9.3,13.1-26,14.1-37.7c9.8-4.4,26.7-11.7,34-13.6
			c8.1-2.2,28.6-4.6,39-5.7c7.8,8.8,21.1,20.4,34.3,22.2c20.8,2.8,31.9-7.7,33.8-22.1c1.9-14.4-6.1-27.4-26.9-30.2
			c-11.6-1.5-25.2,4-35,9.7c-4.9-4.6-13.3-12.9-21.1-23.4c-6.7-9-12.3-21.6-15.1-28.7c7.2-9,15.1-22.1,15.1-34.1
			c0-21-11.8-30.6-26.4-30.6C225.8,235.2,214,244.8,214,265.8z M181.7,413.8c-4.3,4.3-8.3,4.3-10.8,1.9c-2.5-2.5-2.5-6.5,1.9-10.8
			c4.3-4.3,13.5-5.3,13.8-4.9C187.1,400.5,186,409.5,181.7,413.8z M320.5,362.7c6,1.5,8,4.9,7.2,8.3c-0.8,3.4-4.3,5.5-10.2,4
			c-6-1.5-11.5-8.8-11.4-9.3C306.3,364.9,314.5,361.2,320.5,362.7z M262.7,354.7c0,0-14.6,3.2-19.4,4.6c-4.9,1.4-19.4,6.8-19.4,6.8
			s9.4-16.7,12-22.5c1.7-3.8,5.4-15.9,5.4-15.9s6.2,9.9,8.6,12.9C252.9,344.4,262.7,354.7,262.7,354.7z M246.7,267.9
			c0,6.1-5.8,13.3-6.3,13.3c-0.8,0-6.3-7.1-6.3-13.3c0-6.1,2.8-9,6.3-9C243.9,258.9,246.7,261.8,246.7,267.9z"/>
	</g>
</g>
</svg>
