<?xml version="1.0" encoding="utf-8"?>
<!-- Generator: Adobe Illustrator 21.1.0, SVG Export Plug-In . SVG Version: 6.00 Build 0)  -->
<svg version="1.1" id="Layer_2" xmlns="http://www.w3.org/2000/svg" xmlns:xlink="http://www.w3.org/1999/xlink" x="0px" y="0px"
	 viewBox="0 0 421.5 512" style="enable-background:new 0 0 421.5 512;" xml:space="preserve">
<style type="text/css">
	.st0{fill-rule:evenodd;clip-rule:evenodd;}
</style>
<g id="_x35_2">
	<g>
		<path class="st0" d="M421.5,122L299.5,0l-284,0c-8.3,0-15,6.7-15,15v482c0,8.3,6.7,15,15,15h391c8.3,0,15-6.7,15-15L421.5,122z
			 M369.5,445c0,8.3-6.7,15-15,15h-287c-8.3,0-15-6.7-15-15V67c0-8.3,6.7-15,15-15h180v112c0,5.5,4.5,10,10,10h112V445z
			 M300.6,395.7l-26.6,0c-3.5,0-6.3,2.8-6.3,6.3l0.1,25.6c0,3.5,2.8,6.3,6.3,6.3l26.4,0.1c3.5,0,6.3-2.8,6.3-6.3l0.1-25.7
			C306.9,398.5,304.1,395.7,300.6,395.7z M227.8,307.4c0,1.5,0.9,2.6,1.8,3.3c0.8,0.7,2,1.1,3.5,1.1c1.5,0.1,22.7,0.1,24.2,0.1
			c1.5,0,2.8-0.3,3.8-1c1.3-0.8,2.2-2,2.4-3.4c3.3-23.2,19.6-34,35.9-26.6c15.4,7,11.5,26.1,11.1,28c-3.2,14.9-20.6,17.7-31,34.2
			c-12.3,19.5-7.8,33.8-7.1,34.7c0.7,0.8,1.8,1.4,3.3,1.8c4.2,1.1,22.6,0.6,25.5-0.3c3.2-0.9,3.8-4.5,3.8-6.9
			c0-2.4-0.2-13.1,14.8-24.1c2.3-1.7,26.8-16.5,30.1-37.7c7.3-30.8-18.4-53.5-38.7-57.9C268.8,243.5,229.1,260.4,227.8,307.4z"/>
	</g>
</g>
</svg>
