<?xml version="1.0" encoding="utf-8"?>
<!-- Generator: Adobe Illustrator 21.1.0, SVG Export Plug-In . SVG Version: 6.00 Build 0)  -->
<svg version="1.1" id="Layer_2" xmlns="http://www.w3.org/2000/svg" xmlns:xlink="http://www.w3.org/1999/xlink" x="0px" y="0px"
	 viewBox="0 0 421.5 512" style="enable-background:new 0 0 421.5 512;" xml:space="preserve">
<style type="text/css">
	.st0{fill-rule:evenodd;clip-rule:evenodd;}
</style>
<g id="_x35_2">
	<g>
		<path class="st0" d="M421.5,122L299.5,0l-284,0c-8.3,0-15,6.7-15,15v482c0,8.3,6.7,15,15,15h391c8.3,0,15-6.7,15-15L421.5,122z
			 M369.5,445c0,8.3-6.7,15-15,15h-287c-8.3,0-15-6.7-15-15V67c0-8.3,6.7-15,15-15h180v112c0,5.5,4.5,10,10,10h112V445z
			 M137.6,386.1l98.9-97l0.3-28.2L177.7,319l-40-0.2c-1.6,0-2.9,1.2-2.9,2.9c0,1.7,0,55.8,0,55.8s0,4.1,0,5.7
			C134.7,384.8,136,386.1,137.6,386.1z M236.5,334.9l-55.2,54.6l55.4,54.2l-0.3-20.1V334.9z M131,428.4l156-152.9l-13-13.3
			L118,415.2L131,428.4z"/>
	</g>
</g>
</svg>
