<?xml version="1.0" encoding="utf-8"?>
<!-- Generator: Adobe Illustrator 21.1.0, SVG Export Plug-In . SVG Version: 6.00 Build 0)  -->
<svg version="1.1" id="Layer_2" xmlns="http://www.w3.org/2000/svg" xmlns:xlink="http://www.w3.org/1999/xlink" x="0px" y="0px"
	 viewBox="0 0 421.5 512" style="enable-background:new 0 0 421.5 512;" xml:space="preserve">
<style type="text/css">
	.st0{fill-rule:evenodd;clip-rule:evenodd;}
</style>
<g id="_x35_2">
	<g>
		<path class="st0" d="M421.5,122L299.5,0l-284,0c-8.3,0-15,6.7-15,15v482c0,8.3,6.7,15,15,15h391c8.3,0,15-6.7,15-15L421.5,122z
			 M369.5,445c0,8.3-6.7,15-15,15h-287c-8.3,0-15-6.7-15-15V67c0-8.3,6.7-15,15-15h180v112c0,5.5,4.5,10,10,10h112V445z M138,418.9
			l-3.7,1.7c-3.2,1.5-5.7,2.6-7.5,3.2c0-1.4,0.1-3.9,0.4-7.3l0.3-3.8l0.5-4.1c-2.9-2.3-6.1-6.9-9.6-13.9l-1.9,44.9l41-18.4
			c-7.3-0.6-12.6-2.1-15.9-4.3L138,418.9z M123.6,394.9c1.2,1.4,2.8,3,4.8,4.8l123.5-180l-0.7-0.5c-3.1-1.8-6.2-2.4-9.2-1.7
			c-3.3,0.6-5.9,2.2-7.7,4.9L122.6,385.1c-1.3,1.4-1.8,3-1.4,4.8C121.6,391.9,122.5,393.5,123.6,394.9z M170,439.7h179.5v-30.4
			H191.3L170,439.7z M137.4,406.7l124.9-181l-4.4-2.6L133.5,404L137.4,406.7z M156.5,416.1c1.7,0.7,3.4,0.8,5.2,0.4
			c1.8-0.4,3.2-1.3,4.1-2.8L278,250.9c1.7-2.6,2.3-5.6,1.7-8.8c-0.7-3.1-2.3-5.6-4.9-7.5l-1.3-0.4L150.3,413
			C152.8,414.4,154.9,415.4,156.5,416.1z M144.3,410.9l124.4-180.9l-4.1-3l-125,181L144.3,410.9z"/>
	</g>
</g>
</svg>
