<?xml version="1.0" encoding="utf-8"?>
<!-- Generator: Adobe Illustrator 21.1.0, SVG Export Plug-In . SVG Version: 6.00 Build 0)  -->
<svg version="1.1" id="import" xmlns="http://www.w3.org/2000/svg" xmlns:xlink="http://www.w3.org/1999/xlink" x="0px" y="0px"
	 viewBox="0 0 512 512" style="enable-background:new 0 0 512 512;" xml:space="preserve">
<g id="_x35_2">
	<g>
		<path d="M511,122L389,0L105,0c-8.3,0-15,6.7-15,15v208.1c1-0.1,2-0.1,3-0.1c19.3,0,35,15.7,35,35c0,19.3-15.7,35-35,35
			c-1,0-2,0-3-0.1V341h52V67c0-8.3,6.7-15,15-15h180v112c0,5.5,4.5,10,10,10h112v271c0,8.3-6.7,15-15,15H157c-8.3,0-15-6.7-15-15
			v-22H90v74c0,8.3,6.7,15,15,15h391c8.3,0,15-6.7,15-15L511,122z"/>
		<path d="M204.9,437.5l64.6-56.1l-64.6-55.3l1.3,36.7h-123C59.3,362.6,39,343.4,39,319.9c0-24.2,18.6-43.2,44.6-43.2
			c4.5,0,3.8,0,4.5,0c9.8,0,18.2-8.4,18.2-18.6c0-10.7-8.4-19-18.2-19c-0.8,0,0,0-4.5,0c-45.5,0-82.2,36.4-82.2,80.9
			c0,44.3,36.7,80.6,81.8,80.9h0h123L204.9,437.5z"/>
	</g>
</g>
</svg>
