<?xml version="1.0" encoding="utf-8"?>
<!-- Generator: Adobe Illustrator 21.1.0, SVG Export Plug-In . SVG Version: 6.00 Build 0)  -->
<svg version="1.1" id="Layer_2" xmlns="http://www.w3.org/2000/svg" xmlns:xlink="http://www.w3.org/1999/xlink" x="0px" y="0px"
	 viewBox="0 0 421.5 512" style="enable-background:new 0 0 421.5 512;" xml:space="preserve">
<g>
	<path d="M421.5,122L299.5,0h-284c-8.3,0-15,6.7-15,15v482c0,8.3,6.7,15,15,15h391c8.3,0,15-6.7,15-15V122z M369.5,445
		c0,8.3-6.7,15-15,15h-287c-8.3,0-15-6.7-15-15V67c0-8.3,6.7-15,15-15h180v112c0,5.5,4.5,10,10,10h112V445z"/>
	<path d="M65.4,124.4h133v-24h-133C65.4,100.4,65.4,124.4,65.4,124.4z M65.4,174.4h133v-24h-133C65.4,150.4,65.4,174.4,65.4,174.4z
		 M65.4,224.4h133v-24h-133C65.4,200.4,65.4,224.4,65.4,224.4z M65.4,274.4h133v-24h-133C65.4,250.4,65.4,274.4,65.4,274.4z
		 M65.4,324.4h133v-24h-133C65.4,300.4,65.4,324.4,65.4,324.4z M65.4,374.4h133v-24h-133C65.4,350.4,65.4,374.4,65.4,374.4z
		 M65.4,424.4h133v-24h-133C65.4,400.4,65.4,424.4,65.4,424.4z M225.4,224.4h133v-24h-133V224.4z M225.4,274.4h133v-24h-133V274.4z
		 M225.4,324.4h133v-24h-133V324.4z M225.4,374.4h133v-24h-133V374.4z M225.4,424.4h133v-24h-133V424.4z"/>
</g>
</svg>
