<?xml version="1.0" encoding="utf-8"?>
<!-- Generator: Adobe Illustrator 21.1.0, SVG Export Plug-In . SVG Version: 6.00 Build 0)  -->
<svg version="1.1" id="Layer_2" xmlns="http://www.w3.org/2000/svg" xmlns:xlink="http://www.w3.org/1999/xlink" x="0px" y="0px"
	 viewBox="0 0 421.5 512" style="enable-background:new 0 0 421.5 512;" xml:space="preserve">
<style type="text/css">
	.st0{fill-rule:evenodd;clip-rule:evenodd;}
</style>
<g id="_x35_2">
	<g>
		<path class="st0" d="M421.5,122L299.5,0l-284,0c-8.3,0-15,6.7-15,15v482c0,8.3,6.7,15,15,15h391c8.3,0,15-6.7,15-15L421.5,122z
			 M369.5,445c0,8.3-6.7,15-15,15h-287c-8.3,0-15-6.7-15-15V67c0-8.3,6.7-15,15-15h180v112c0,5.5,4.5,10,10,10h112V445z
			 M224.4,366.2l-15.6,15.6l-3.5-3.5l-33.4,33.4c-7.2,7.2-7.2,18.8,0,25.9c3.6,3.6,8.3,5.4,13,5.4c4.7,0,9.4-1.8,13-5.4l33.4-33.4
			l-3.5-3.5l15.6-15.6c26.3,17.5,62.3,14.7,85.5-8.6c26.5-26.5,26.5-69.5,0-95.9c-26.5-26.5-69.5-26.5-96,0
			C209.7,303.9,206.8,339.8,224.4,366.2z M252.7,300.5c15.6-15.6,40.8-15.6,56.4,0c15.6,15.6,15.6,40.8,0,56.4
			c-15.6,15.6-40.8,15.6-56.4,0C237.2,341.3,237.2,316,252.7,300.5z M273.1,353.2h15.8V337h16.2v-15.8h-16.2V305h-15.8v16.2h-16.2
			V337h16.2V353.2z"/>
	</g>
</g>
</svg>
