<?xml version="1.0" encoding="utf-8"?>
<!-- Generator: Adobe Illustrator 21.1.0, SVG Export Plug-In . SVG Version: 6.00 Build 0)  -->
<svg version="1.1" id="Layer_2" xmlns="http://www.w3.org/2000/svg" xmlns:xlink="http://www.w3.org/1999/xlink" x="0px" y="0px"
	 viewBox="0 0 421.5 512" style="enable-background:new 0 0 421.5 512;" xml:space="preserve">
<style type="text/css">
	.st0{fill-rule:evenodd;clip-rule:evenodd;}
</style>
<g id="_x35_2">
	<g>
		<path class="st0" d="M421.5,122L299.5,0l-284,0c-8.3,0-15,6.7-15,15v482c0,8.3,6.7,15,15,15h391c8.3,0,15-6.7,15-15L421.5,122z
			 M369.5,445c0,8.3-6.7,15-15,15h-287c-8.3,0-15-6.7-15-15V67c0-8.3,6.7-15,15-15h180v112c0,5.5,4.5,10,10,10h112V445z
			 M270.7,307.6c10.4,4.7,31.3,18.1,31.2,44.8c-1.2,28.8-19.2,38.7-29.9,44.1c-8.1,4.3-4.8,12.6-2.9,14.3c4,4,8.3,3.2,9.9,2.4
			c24.1-9.9,41.3-33,41.5-60.8c0.3-25.9-15.5-50.3-41.3-61c-2.5-0.9-6.5-1.8-10.6,2.5C266.8,295.6,263.8,303,270.7,307.6z
			 M177.8,318.6l-40.4,0.2c-1.6,0-2.9,1.2-2.9,2.9v61.5c0,1.6,1.3,2.9,2.9,2.9s40.4-0.5,40.4-0.5l58.7,58.1l0.1-20.5V281l-0.1-20.1
			L177.8,318.6z M255.5,335.5c3.7,4.7,13.3,4.7,13.3,16.8c0,12.3-10.2,12.2-13.3,17.1c-2,2.4-3.1,7.9,0.7,11.7
			c3.9,3.9,8.4,2.8,10.9,1.8c12.2-4.7,20.2-17.8,20.2-30.6s-8.1-26.3-20.9-31c-0.5-0.3-6-2.2-10.3,2.1
			C252.4,327.3,253.6,333,255.5,335.5z"/>
	</g>
</g>
</svg>
