<?xml version="1.0" encoding="utf-8"?>
<!-- Generator: Adobe Illustrator 21.1.0, SVG Export Plug-In . SVG Version: 6.00 Build 0)  -->
<svg version="1.1" id="Layer_2" xmlns="http://www.w3.org/2000/svg" xmlns:xlink="http://www.w3.org/1999/xlink" x="0px" y="0px"
	 viewBox="0 0 421.5 512" style="enable-background:new 0 0 421.5 512;" xml:space="preserve">
<style type="text/css">
	.st0{fill-rule:evenodd;clip-rule:evenodd;}
</style>
<g id="_x35_2">
	<g>
		<path class="st0" d="M421.5,122L299.5,0l-284,0c-8.3,0-15,6.7-15,15v482c0,8.3,6.7,15,15,15h391c8.3,0,15-6.7,15-15L421.5,122z
			 M369.5,445c0,8.3-6.7,15-15,15h-287c-8.3,0-15-6.7-15-15V67c0-8.3,6.7-15,15-15h180v112c0,5.5,4.5,10,10,10h112V445z
			 M174.6,243.1c-2,2-3,4.3-3,7v180.6c0,2.7,1,4.8,3,6.5c1.7,2,3.8,3,6.5,3h159.1c2.7,0,5-1,7-3c1.7-1.7,2.5-3.8,2.5-6.5V250.1
			c0-2.7-0.8-5-2.5-7c-2-1.7-4.3-2.5-7-2.5H181.1C178.4,240.6,176.3,241.4,174.6,243.1z M322.7,251.6h16.5v19h-16.5V251.6z
			 M322.7,283.6h16.5v19h-16.5V283.6z M322.7,315.6h16.5v18.5h-16.5V315.6z M322.7,347.1h16.5v19h-16.5V347.1z M322.7,379.1h16.5v19
			h-16.5V379.1z M322.7,410.6h16.5v19h-16.5V410.6z M207.1,253.1h107.6v81H207.1V253.1z M207.1,347.6h107.6v80.5H207.1V347.6z
			 M182.1,251.6h16.5v19h-16.5V251.6z M182.1,283.6h16.5v19h-16.5V283.6z M182.1,315.6h16.5v18.5h-16.5V315.6z M182.1,347.1h16.5v19
			h-16.5V347.1z M182.1,379.1h16.5v19h-16.5V379.1z M182.1,410.6h16.5v19h-16.5V410.6z"/>
	</g>
</g>
</svg>
