<?xml version="1.0" encoding="utf-8"?>
<!-- Generator: Adobe Illustrator 21.1.0, SVG Export Plug-In . SVG Version: 6.00 Build 0)  -->
<svg version="1.1" id="Layer_1" xmlns="http://www.w3.org/2000/svg" xmlns:xlink="http://www.w3.org/1999/xlink" x="0px" y="0px"
	 viewBox="0 0 510 512" style="enable-background:new 0 0 510 512;" xml:space="preserve">
<path d="M198.3,510.7L311.6,465V279.4H198.3V510.7z M250,331.7h10v102l-10,6V331.7z M197.7,254.1h114.5L500.5,55.4H9.4L197.7,254.1z
	 M292,201.7h-72l-88-94h247L292,201.7z M495.8,1.7H14.2C6.3,1.7,0,7.9,0,15.8C0,23.6,6.3,30,14.2,30h481.6c7.8,0,14.1-6.4,14.2-14.2
	C510,8,503.6,1.7,495.8,1.7z"/>
</svg>
