<?xml version="1.0" encoding="utf-8"?>
<!-- Generator: Adobe Illustrator 21.1.0, SVG Export Plug-In . SVG Version: 6.00 Build 0)  -->
<svg version="1.1" id="Layer_2" xmlns="http://www.w3.org/2000/svg" xmlns:xlink="http://www.w3.org/1999/xlink" x="0px" y="0px"
	 viewBox="0 0 489.1 512" style="enable-background:new 0 0 489.1 512;" xml:space="preserve">
<g>
	<path d="M244.9,0c-42.7,0-85.5,11.4-122.1,32.8c-7.6,4.6-9.9,13.7-5.3,21.4c3.8,7.6,13.7,9.9,20.6,5.3c32-19.1,69.4-29,106.8-29
		c117.5,0,213.6,95.4,213.6,213.6v74c0,8.4,6.9,15.3,15.3,15.3s15.3-6.9,15.3-15.3v-74C489.1,109.1,379.2,0,244.9,0z"/>
	<path d="M98.4,89.3c6.1-6.1,6.9-16,0.8-22.1c-3.1-3.1-6.9-4.6-11.4-4.6c-3.8,0-7.6,1.5-10.7,4.6C28.2,112.9,0,177.8,0,244.9v9.9
		c0.8,8.4,7.6,15.3,16,15.3s15.3-6.9,15.3-15.3v-10.7C31.3,186.2,55.7,129.7,98.4,89.3z"/>
	<path d="M248,56.5h-10.7c-49.6,0-96.1,19.8-131.2,56.5c-6.1,6.1-6.1,16,0.8,22.1s16.8,6.1,22.9-0.8c29-29.8,67.1-46.5,109.1-46.5
		h9.9c83.2,0,151.1,67.9,151.1,151.1v43.5c0,8.4,6.9,15.3,15.3,15.3s15.3-6.9,15.3-15.3v-43.5C430.4,138.1,348.7,56.5,248,56.5z"/>
	<path d="M95.4,153.4c-2.3-0.8-4.6-1.5-6.9-1.5c-6.1,0-11.4,3.1-13.7,9.2c-12.2,24.4-18.3,51.1-18.3,78.6v202.9
		c0,8.4,6.9,15.3,15.3,15.3s16-6.9,16-15.3V238.8c0-22.9,5.3-45,15.3-64.9C106.9,166.3,103.8,157.2,95.4,153.4z"/>
	<path d="M415.1,315.9c-8.4,0-15.3,6.9-15.3,15.3v90.3c0,8.4,6.9,15.3,15.3,15.3s15.3-6.9,15.3-15.3v-90.3
		C430.4,322.7,423.5,315.9,415.1,315.9z"/>
	<path d="M244.2,177c-40.4,0-72.5,32.8-72.5,72.5v67.6c0,8.4,6.9,15.3,15.3,15.3s15.3-6.9,15.3-15.3v-67.6c0-22.9,18.3-42,42-42
		c22.9,0,42,18.3,42,42v122.7c-0.8,8.4,6.9,15.3,15.3,15.3s15.3-6.9,15.3-15.3V249.5C316.7,209,283.9,177,244.2,177z"/>
	<path d="M258.7,436.4V249.5c0-8.4-6.9-15.3-15.3-15.3c-7.6-0.8-15.3,6.1-15.3,15.3v186.9c0,8.4,6.9,15.3,15.3,15.3
		C251.8,451.7,258.7,444.8,258.7,436.4z"/>
	<path d="M15.3,291.7C6.9,291.7,0,298.6,0,307v90.3c0,8.4,6.9,15.3,15.3,15.3s15.3-6.9,15.3-15.3V307
		C30.5,298.5,23.7,291.7,15.3,291.7z"/>
	<path d="M475.1,355.9c-8.4,0-15.3,6.9-15.3,15.3v20.3c0,8.4,6.9,15.3,15.3,15.3s15.3-6.9,15.3-15.3v-20.3
		C490.4,362.7,483.5,355.9,475.1,355.9z"/>
	<path d="M130.9,308c8.7,0,15.8,6.9,15.8,15.3v98.2c0,19.1,5.5,36.6,15.8,52.6c4.7,6.9,3.2,16.8-4.7,21.4c-2.4,1.5-5.5,2.3-8.7,2.3
		c-5.5,0-10.3-2.3-13.4-6.9c-13.4-21.4-20.5-45-20.5-69.4v-98.2C115.1,314.8,122.3,308,130.9,308z"/>
	<path d="M245,151.8c-53.8,0-98.6,44.3-98.6,99.2v21.4c0,8.4-6.8,15.3-15.2,15.3s-15.2-6.9-15.2-15.3v-22.9
		c0-71.7,57.6-129.7,128.9-129.7c41.7,0,81.2,20.6,105.4,54.9c5.3,6.9,3,16.8-3.8,22.1s-16.7,3.1-22-3.8
		C306.4,167.1,276.1,151.8,245,151.8z"/>
	<path d="M343.6,436.4V249.5c0-8.4,6.8-15.3,15.2-15.3s15.2,6.9,15.2,15.3v186.9c0,24.4-6.8,48.1-19.7,69.4c-3,4.6-7.6,6.9-12.9,6.9
		c-3,0-6.1-0.8-8.3-2.3c-7.6-4.6-9.1-14.5-4.6-21.4C338.3,473,343.6,455.5,343.6,436.4z"/>
	<path d="M244.4,502.2c40.4,0,72.5-32.8,72.5-72.5v-9.6c0-8.4-6.9-15.3-15.3-15.3c-8.4,0-15.3,6.9-15.3,15.3v9.6
		c0,22.9-18.3,42-42,42c-22.9,0-42-18.3-42-42V365c0.8-8.4-6.9-15.3-15.3-15.3s-15.3,6.9-15.3,15.3v64.7
		C171.9,470.2,204.7,502.2,244.4,502.2z"/>
</g>
</svg>
