<?xml version="1.0" encoding="utf-8"?>
<!-- Generator: Adobe Illustrator 21.1.0, SVG Export Plug-In . SVG Version: 6.00 Build 0)  -->
<svg version="1.1" id="Layer_2" xmlns="http://www.w3.org/2000/svg" xmlns:xlink="http://www.w3.org/1999/xlink" x="0px" y="0px"
	 viewBox="0 0 338.1 512" style="enable-background:new 0 0 338.1 512;" xml:space="preserve">
<path d="M217.9,132.5c5.7-9.4,16.2-15.3,19.9-23.6c3.1-8,4.5-14.4,4.1-19.2c7.8,8.4,11.1,16.8,9.9,25.5c-1.2,5.8-3.5,10.6-7,14.4
	c-6,6.7-22.1,11.5-19.3,35.6C214.4,152,215.2,138.3,217.9,132.5z M239.1,496.9c-0.8-0.7-21.6-11.9-21.6-11.9l2.5,14.1l-21,4.3
	l-20.5,3.8l-1.3-4.9c0,0-1.7-5.6-2.5-10.3l-2.5-14.6c-0.5,0-1.7,0.7-3.7,2.2l-1.3,0.5l-1.2,1.1c-0.8,0.4-1.3,0.7-1.3,1.1v9.2
	l-0.6,5.4c-0.5,9.7-0.8,14.8-1.2,15.1c-0.5,0-9.3-0.3-26.7-1.1l-4.1-9.2c-5.3,4.3-8.6,10.3-9.5,10.3c0,0-24.2-2.7-24.2-3.2v-6.7
	v-3.7l0.6-0.5l9.9-5.6l-8.5,3.7l-4.5-9.5c0.4-0.3,36.8-21.5,39.7-23.3c0.8-4.7,1.1-7.2,0.6-7.6l-1.9,1.6c0,0-66.2,42.9-66.6,42.9
	c-0.5-0.3,0.2,0.2-2.2-2.2c-0.8-1.1-7.8-8.2-7.8-8.2c-0.4-0.3-0.6-0.7-0.6-1.1c-0.5-0.3-1.1-1-1.9-1.6l-0.6-0.5c0-0.3-3.2-4-4-5.9
	v-3.3l1.3-1.1c1.3-0.7,48.7-33.6,50.8-34.7c2.1-1.6,18.9-14.6,27.1-20.9c-0.7-2.1-0.7-4.1-0.4-6.2c0.7-2.5,1.9-4.5,3.5-6.2
	c2.8-2.7,9.7-4.4,9.5-15.2c4.1,6.1,3.3,12.3,1.9,14.7c-0.1,0.2-0.2,0.3-0.4,0.5l0.9-0.8c4.5-20.2,7-30.4,7.4-30.9
	c0.5,0,19.2,3.4,20,3.4c0.8,0.3,9.9-1.1,9.9-1.1l2.4,3.1v0.5c0,0-2.7,2.9-3.1,3.3c0.8,0.4,1.3,0.7,1.3,1.1v0.6
	c1.8-0.8,3.3-1.7,4.4-2.7c2.8-3.1,4.4-5.7,4.6-7.8c3.7,4.5,4.7,8.7,3.1,12.3c-1.2,2.1-3,3.8-5.1,5c5.4,1.2,8.4,1.6,8.6,2.1
	c0.4,1.1,0.6,10.5,1.1,25.3l12.7-5.7l3.8,20.6l-8.9,7.2l5.6,0.5l-1.2,7.1l38.4,23.3L239.1,496.9z M332.3,330.5
	c1.1,7.9,1.2,29,0,40.5c-2.7,27-43.3,59.8-85.3,67.6c-1.3,0.2-24.2-33.5-32.9-46.2c-1.9-2.7-1.1-6.2,1.9-8.1
	c35.8-23.5,52.3-39.4,62.3-60.6c5.2-11,4-31.1,3.7-30.8c-5.9,22.9-45.8,67.2-53.7,67.6c4.3-6.4,15.3-32.3,12.7-44.8
	c-0.5,1.3-14,32.6-50.1,43.9c13.7-27.9,32.5-56.2,29.2-99.5c-1.1-13.8-4.1-24.4-15.7-35.5c4.4,34-1.4,53.4-6.7,72.2
	c-6.6,23.1-19.2,40.7-37.4,60.6c-0.2,0.2,20.1-75,13.8-105.3c-2.8-13.8-14.1-29-34.5-42.4c-0.4,0.3,9.7,37.3,9.7,47.2
	c0,23.3-7.9,28.4-12.9,42.6c-4.7,13.5-0.9,33.6,1.4,54.9c-21-8.5-29.3-44.2-25.1-69.5c0.2-1.3-12.4,17.9-9.5,36.4
	c7,42.4,19.6,44.1,19.3,44.4C86.1,363,76.2,306.5,77,298.2c-16.1,15.7-11.5,59.5,22.1,79.3c-14.8-2.3-47.9-19.9-58.7-30.4
	c10.1,22.6,28.9,33.8,48.6,41.5c12.5,5,16.9,17.8,9.3,27.4c-7,8.9-13.7,17.5-13.7,17.5C49.2,420.3,0,396.6,0,352.7
	c0-53.1,23.4-49.3,41.9-87.5c5.2-10.8,13.1-22.4,12.8-45.7c5.8,8.7,8.5,18.9,8.2,30.8c-0.4,8.4-4.6,18.7-12.8,31.2
	c-15,22-11.5,33.6-11.5,34.6c0-5.8,5.4-16.9,9.7-22.9c1.9-3.5,23.1-22.4,27.4-46.2c3.2-17.3,0.4-33.8-8.2-49.5
	c-4.3-7.7-17.3-33.8-2.4-53.8c-2,33.5,28,47.9,36.2,73.6c7.4,23.7,1.9,37.9-2.4,52.4c10.5-10.3,19.2-18.1,19.2-37.4
	c0-35.7-29.2-51.2-29.2-91.6c0-28,33.6-49.1,39.9-53.6c0,0,59.6-29.4,38-87c35.8,26.7,18.3,78.9,8.2,103.4
	c-4.8,11.8-19.3,24.7-19.3,47.6c0,7.7,0,29.3,22.7,53.8c-7.8-18.9-12.2-35.4-12.2-49.5c0-25.3,10.6-38.8,44.3-52.4
	c-7.9,8.8-23.2,21.4-23.2,36.8c0,27.1,26.8,39,29.6,41.5c18.7,17.3,29,40.3,30.9,68.7c0.7,13.4-2.1,38.5-6.4,54.2
	c14.8-13.4,23.2-37.3,22.7-50.8c-0.4-7.7-2.5-15.5-6.4-23.6l-2.4-4.8l-2.4-5.3c-1.5-3.8-3-7.7-4-11.5c-9-22.2,8.4-46,15.7-55.3
	c-6,33.1,7.8,62.4,12.9,70.2c4.3,6.4,24.5,32.3,27.4,51.9c2,13.3,3.5,27,1.2,41.3c-2.7,18.6-9.6,35.3-20.5,50
	c23.3-6.7,27.6-32.3,29.1-42.3c1.9-12.2,11.7-35.7,23.3-43.8C334.2,292.9,330,313.1,332.3,330.5z"/>
</svg>
