<?xml version="1.0" encoding="utf-8"?>
<!-- Generator: Adobe Illustrator 21.1.0, SVG Export Plug-In . SVG Version: 6.00 Build 0)  -->
<svg version="1.1" id="Layer_2" xmlns="http://www.w3.org/2000/svg" xmlns:xlink="http://www.w3.org/1999/xlink" x="0px" y="0px"
	 viewBox="0 0 550.5 512" style="enable-background:new 0 0 550.5 512;" xml:space="preserve">
<g>
	<polygon points="350.4,313.3 298.6,313.3 298.6,261.5 254.6,261.5 254.6,313.3 202.8,313.3 202.8,357.3 254.6,357.3 254.6,409.1 
		298.6,409.1 298.6,357.3 350.4,357.3 	"/>
	<path d="M530.9,98.3c13,0,19.5,6.5,19.5,19.5v61.1H0v-61.1c0-13,6.5-19.5,19.5-19.5h149.2l-0.4-41.8c1.4-10.7,7.5-16.1,18.2-16.1
		h178.4c10.7,0,16.7,5.3,18.2,15.6v42.3L530.9,98.3L530.9,98.3z M550.5,198.3v255.8c0,13-6.5,19.5-19.5,19.5H19.5
		c-13,0-19.5-6.5-19.5-19.5V198.3L550.5,198.3z M506.4,242.4H43.2v177.1c0,6.5,3.3,9.7,9.9,9.7h443.4c6.6,0,9.9-3.2,9.9-9.7
		L506.4,242.4L506.4,242.4z M356.3,74.3c0.6-7.6-3.5-11.4-12.1-11.4H207.1c-8.1,0-12.2,3.8-12.6,11.4v24.1h161.8V74.3L356.3,74.3z"
		/>
</g>
</svg>
