<?xml version="1.0" encoding="utf-8"?>
<!-- Generator: Adobe Illustrator 22.0.1, SVG Export Plug-In . SVG Version: 6.00 Build 0)  -->
<svg version="1.1" id="Layer_1" xmlns="http://www.w3.org/2000/svg" xmlns:xlink="http://www.w3.org/1999/xlink" x="0px" y="0px"
	 viewBox="0 0 512 512" style="enable-background:new 0 0 512 512;" xml:space="preserve">
<g id="_x35_2_2_">
	<path d="M265.7,110.1c2.9-12.7,4.8-24.3,5.8-37c-57.2-20.1-117.4,2.1-152.3,47.6C166.8,98.5,218.2,96.4,265.7,110.1z"/>
	<path d="M206.2,168.2c81.8,0,127.8,54.3,144.9,71.3c-16.3,16.5-62.9,70.1-141.9,70.1c-63,0.6-102.5-30.9-106.7-33.4
		c-14.3-10.6-27.5-23.3-39.1-37.5C113.8,176.6,175.2,168.2,206.2,168.2 M413,216.5c8.1,16.9,19.3,33.7,33.4,50
		c3.6,4.2,6.5,8.7,8.6,13.5c-11.2-7.9-21.9-14-30.4-18.9c-4.8-2.7-11.2-6.4-13.7-8.2l-11.2-11.6L413,216.5 M482.3,86.2
		c0,0-67.4,17.2-111.7,99.4c-47-46.6-105.9-69.4-164.4-69.4c-79.6,0-158.5,42-206.2,122.9c39.1,64.1,95.2,100.2,138.2,111.9
		c21.9,13.6,50.5,30.5,71.1,50.3l0.7-39.8c23.3-0.3,46.7-4.3,69.4-11.9c13.8,5.4,26.9,11.8,39.5,19.1c5.4-5.9,3.9-21.7,0.9-37
		c19.4-10.9,37.8-24.8,54.6-41.9c18.2,18.9,85,35.3,95.7,97.3c-0.6,5.1-1.7,9.3-3.2,11.9c0,0,20.3-20.3,35-51.2
		c18.1-38.2,11.6-83.3-16-115.4C476.3,221.5,410.6,147,482.3,86.2L482.3,86.2z"/>
	<path d="M97,221.2c-3.8,0-6.9,3-6.9,6.7c0,3.7,3.1,6.7,6.9,6.7c3.8,0,6.9-3,6.9-6.7C103.9,224.2,100.8,221.2,97,221.2z"/>
	<path d="M97.4,212.1c-8.8,0-15.9,7.1-15.9,15.9c0,8.8,7.1,15.9,15.9,15.9c8.8,0,15.9-7.1,15.9-15.9
		C113.3,219.2,106.2,212.1,97.4,212.1z M97,237.1c-5.2,0-9.4-4.1-9.4-9.2c0-5.1,4.2-9.2,9.4-9.2c5.2,0,9.4,4.1,9.4,9.2
		C106.5,232.9,102.2,237.1,97,237.1z"/>
</g>
</svg>
