<?xml version="1.0" encoding="utf-8"?>
<!-- Generator: Adobe Illustrator 21.1.0, SVG Export Plug-In . SVG Version: 6.00 Build 0)  -->
<svg version="1.1" id="Layer_2" xmlns="http://www.w3.org/2000/svg" xmlns:xlink="http://www.w3.org/1999/xlink" x="0px" y="0px"
	 viewBox="0 0 512 512" style="enable-background:new 0 0 512 512;" xml:space="preserve">
<style type="text/css">
	.st0{fill-rule:evenodd;clip-rule:evenodd;}
</style>
<g id="_x35_2">
	<g>
		<path class="st0" d="M424.7,440.8c-17.4,0-19.2,17-39.7,17c-19.6,0-40.3-17-61.5-17c-19.5,0-39.4,17-59.3,17
			c-18.8,0-40.9-17-59.3-17c-21.2,0-38.6,17-58.2,17c-22,0-42.6-17-60.9-17c-20.3,0-34.6,17-48.3,17c-20,0-37.6-8.5-37.6-8.5v55.2
			c0,0,16.1,8.5,33.8,8.5c14.4,0,30.5-17,53.2-17c18.1,0,38.3,17,59.8,17c18.9,0,38.8-17,59.3-17c18.7,0,37.9,17,57.1,17
			c19.9,0,39.8-17,59.3-17c21,0,41.5,17,60.9,17c19.1,0,19.9-17,36.4-17c26.1,0,48.2,17,64.2,17c17.7,0,28-8.5,28-8.5v-55.2
			c0,0-10.7,8.5-29.1,8.5C468,457.8,448.1,440.8,424.7,440.8z M132.2,104.5c24.8,0,44.9-20.2,44.9-45.2c0-25-20.1-45.2-44.9-45.2
			c-24.8,0-44.9,20.2-44.9,45.2C87.3,84.3,107.4,104.5,132.2,104.5z M482.9,327.5c-1.3,0-2.8-0.1-4.2-0.4L457.9,94.4
			c0-1.3,0.5-7.3,0-8.2c0,0,0,0,0,0c-0.2-1.5-8.7-59.3-101.4-32.4c-50.2,14.6-91.2,60.7-103.3,75.8c-4,5-6.1,12.9-6.1,12.9
			c-0.5,1.6-0.8,3.3-0.8,5.1c0,3.2,0.8,6.2,2.2,8.8c-2.7,3.7-5.3,7.4-7.7,11c-1.9-0.7-4.2-1.1-6.8-1.3c-20-1.3-54.1-6.7-57.1-8.2
			c-26.8-13.8-62.8-49-87.7-49.3c-19.1-0.3-31.8,10.8-38.7,28.8c-11.8,30.8-9.5,80-8.5,94.5L0,230.8l66.5,84.6
			c-10.9,5-20,12.2-28.9,12.2C17.6,327.5,0,319,0,319v55.2c0,0,16.1,8.5,33.8,8.5c14.4,0,30.5-17,53.2-17c18.1,0,38.3,17,59.8,17
			c18.9,0,38.8-17,59.3-17c18.7,0,37.9,17,57.1,17c19.9,0,39.8-17,59.3-17c21,0,41.5,17,60.9,17c19.1,0,19.9-17,36.4-17
			c26.1,0,48.2,17,64.2,17c17.7,0,28-8.5,28-8.5V319C512,319,501.3,327.5,482.9,327.5z M356.1,59.2c82.6-23.4,95.3,12.2,97.3,23.7
			c-2-0.7-3.7-0.8-3.7-0.8s-36.6-11.8-81.3-11.8c-36.5,0-71.2,27.9-98.7,59.6c-1.6-0.5-3.3-0.7-5-0.7c-3.1,0-6.1,0.8-8.7,2.2
			C264.2,121.2,304.4,73.8,356.1,59.2z M424.7,310.5c-17.3,0-19.2,16.9-39.6,17l36.3-85.9l-293.3-7.5c-1.2-5.4-8.4-20.7-8.3-35.1
			c0.1-14.3,10.6-27.8,12.2-28.8c2-1.1,17.2,11.4,40.8,16.4c17.4,3.7,38.2,4.7,52.5,4.8c-10.1,16.6-15.8,28.1-15.8,28.1h12.2
			c0,0,5.5-11.7,15.3-28.3c2.8-0.1,4.6-0.3,5.1-0.5c7.2-2.6,10.3-11.4,6.2-17.7c2.1-3.2,4.3-6.4,6.6-9.7c2.8,1.8,6.1,2.8,9.6,2.8
			c10.1,0,18.4-8.3,18.4-18.5c0-5.2-2.1-9.9-5.6-13.3c24.9-28.7,56.5-53.6,90.9-53.6c44.5,0,81.3,13.5,81.3,13.5s2.2,1.5,4.3,2.2
			l20.6,229.5C460.9,322,444,310.5,424.7,310.5z"/>
	</g>
</g>
</svg>
