<?xml version="1.0" encoding="utf-8"?>
<!-- Generator: Adobe Illustrator 21.1.0, SVG Export Plug-In . SVG Version: 6.00 Build 0)  -->
<svg version="1.1" id="Layer_2" xmlns="http://www.w3.org/2000/svg" xmlns:xlink="http://www.w3.org/1999/xlink" x="0px" y="0px"
	 viewBox="0 0 557.8 512" style="enable-background:new 0 0 557.8 512;" xml:space="preserve">
<path d="M551.8,97.2l-0.5-0.5l-0.9-0.6c-2.9-1.9-6.3-3.2-10.3-3.8h-0.4c-1.4-0.2-2.9-0.2-4.3-0.1c-3.2,0.1-6.3,0.8-9.1,2
	c-34.3,13.3-65.4,22.3-92.5,26.8c-3.8,0.6-7.6,1.2-11.3,1.6c-5.5,0.5-10.4,1.1-15.2,1.6c-9.2,1.1-17.2,2-24.6,2
	c-7.1,0-13.3-0.9-19.6-2.7c-15-4.4-38-17.4-52.4-29.8c-14.3-12-29.9-31.3-35.4-38.3l-13.7-15.8c-4.9-5.6-29.3-32.2-58.2-37
	c-1.3-0.2-2.6-0.4-3.9-0.6c-3.4-0.5-7-0.7-10.7-0.7c-14.7,0-30.5,3.4-46.9,10.1c-5.9,2.2-12.3,5-19.1,8.3
	c-20.4,9.9-44.4,24.4-68.6,41.6l-0.8,0.3c0,0-1-1.2-5.6-1.2c-4.4,0-12.2,1.1-25.5,5.4c-4.2,1.3-7.6,2.6-10.3,3.8
	c-2.1,0.9-3.8,1.7-5.2,2.4C-0.5,75.9,0,78.2,0,78.2l114.5,433.6H174l0,0h0.1L114.6,287c11.4-3.4,82.1-21.6,90.9-24
	c18-5,25.8-6.7,31-6.7c2.8,0,5.3,0.4,9.6,1.2h0.2c0.9,0.2,1.9,0.3,3,0.5c9.2,1.5,19.7,6.2,31.9,14.4l0.2,0.1
	c5.4,3.5,10.8,7.6,16.1,11.5c15.7,11.8,32,24.1,53.1,25.4c1.1,0.1,2.3,0.1,3.4,0.1c10.7,0,22.2-3.5,40.5-12.8
	c7.2-3.7,15.3-8.3,24.9-13.9l2.1-1.6c28.9-27.1,64.9-64.9,131.8-156.9l0.4-0.5c2.7-4.2,4.1-8.5,4.1-12.8
	C558,105.7,555.8,100.8,551.8,97.2z M38,68.5c-2.1,1.4-5.8,3-10.2,4.2c-7,2.1-13.1,2.6-13.5,1.2c-0.3-1.4,5-4.3,12-6.3
	c4.4-1.3,8.4-2,10.8-2c1.5,0,2.5,0.3,2.6,0.8C39.9,67,39.2,67.7,38,68.5z M354,154.1c1.6,0.5,3.1,0.9,4.7,1.2l-21,5.4l-1-0.6
	l-3.7-14.4C340.5,149.4,347.7,152.3,354,154.1z M312.5,134.4l-13.4,3.4l-0.8-0.5l-4-15.8C299.8,126,306,130.3,312.5,134.4z
	 M153.2,41.2l0.4-0.2h0.4c7.1-2.9,14-5,20.6-6.3l0.8,3.2l17.6-4.5c1.7,0.1,3.4,0.3,4.9,0.5h0.1h0.1c3.2,0.5,6.5,1.7,9.9,3.3l6,23.6
	l19.2-4.9c1.5,1.5,2.9,3,4.1,4.5l13.1,15.2l2.1,8.1l3.7-0.9c6.3,7.6,15.2,17.9,24.7,27l-20.2,5.2l-0.9-0.5L254,92.2l-2-7.8L221.9,92
	l-0.8-0.5l-7.7-30h0l-30,7.7l-0.9-0.5l-7.7-30l-30,7.7l-0.8-0.5l-0.2-0.8C147.2,43.6,150.3,42.3,153.2,41.2z M165.1,240.5
	c-1.3,0.3-2.6,0.7-3.8,1l-0.7-2.7l-30.1,7.7l0.7,2.8c-11.7,3.1-20.5,5.4-24.8,6.6l-1-3.7l24.2-6.2L122,216l-24.5,6.3L89.3,191
	l24.8-6.3l-0.1-0.5l0.9,0.6l-0.2,0.1l0,0.1l-0.1,0l7.7,30.2l30.2-7.7l0-0.1l0.1,0l0,0l0.7,0.4l-0.1,0l7.7,30.2l30.1-7.7l0,0l1,0.6
	l-0.1,0l0.6,2.4C186.5,234.9,176.1,237.6,165.1,240.5z M254.5,226.4l-0.9-0.2c-0.6-0.1-1.2-0.2-1.7-0.3l-0.5-0.1h-0.2
	c-4.7-0.8-9.2-1.6-14.6-1.6c-4.2,0-8.7,0.5-14,1.5l-0.6-2.5l-29.9,7.6l-1.2-0.7l-7.6-30l-29.9,7.6l-0.9-0.5l-7.6-30l-29.8,7.6
	l-1.2-0.7l-7.5-29.5l-25,6.4l-8.2-31.2l25.3-6.5l0-0.1l0.5,0.3l7.7,30.1l30.2-7.7l0.7,0.4l0,0l0,0l7.7,30.2l30.2-7.7l0-0.1l0.8,0.4
	l0,0l7.7,30.2l30.2-7.7l0-0.1l0.7,0.4l-0.1,0l7.7,30.1l30.1-7.7l0-0.1l0.8,0.5l0,0l0,0.1l0,0l3,11.6
	C255.6,226.6,255.1,226.5,254.5,226.4z M287.3,238.5l3.8-1l0-0.1l0,0l0,0l0.7,0.4l-0.1,0l1,3.9C290.9,240.6,289.1,239.5,287.3,238.5
	z M365.9,274.6l-5.4-21.5l-30.2,7.7l2.3,9c-3.5-2.2-7-4.7-10.7-7.4l7.7-2l-7.7-30.2l-30,7.6l-0.9-0.5l-7.7-30l-30,7.7l-1-0.6
	l-7.5-29.9l-0.1,0l0-0.1l-29.8,7.7l-0.9-0.6l-7.6-30l-30,7.6l-1-0.6l-7.6-30l-30,7.6l-0.9-0.5l-7.8-30l-30,7.7l-0.7-0.4L90.8,93
	l-25.6,6.5l-1.6-5.9l9.2-6.3c4.8-3.4,9.6-6.7,14.4-9.9L91,92.3l30-7.7l0.9,0.5l7.7,30l30-7.7l0.9,0.5l7.6,29.9l30-7.7l0.8,0.5
	l7.7,30l0.1,0l0,0l29.9-7.6l0.9,0.5l7.7,30.1l30.1-7.7l0,0l0.7,0.4l7.7,30.2l0.1,0l0,0L314,199l0.7,0.4l0,0l7.7,30.2l30.2-7.7l0,0
	l0.7,0.4l-0.1,0l7.7,30.1l0.1,0l0,0l30.1-7.7l0.6,0.3l3.8,14.7C382.7,267,373.1,271.8,365.9,274.6z M420.2,237.7l-28.5,7.3l-0.6-0.4
	l-7.7-30.1l-22.5,5.8l-7.6,1.9l-0.9-0.5l-7.7-30l-30,7.7l-0.8-0.5l-7.7-30l-0.1,0l0-0.1l-30,7.7l-0.9-0.5l-7.6-30l-0.1,0l0,0
	l-30,7.7l-0.8-0.5l0.1,0l-7.8-30.1l-30.1,7.7l-0.7-0.4l-7.7-30.1l-30.1,7.7l-0.8-0.5L152,77.3h0l-30.1,7.7l-0.7-0.4L115,60.1
	c8.7-5,16.9-9.4,24.5-13L144,46l0.7,0.4l7.7,30.1l30.2-7.6l0.7,0.4l7.7,30.2h0l30.2-7.7l0.7,0.4l7.7,30.2l30.2-7.7l0,0l0.7,0.4
	l-0.1,0l7.7,30.2l30.2-7.7l0-0.1l0.6,0.4l0,0l0,0.1l0,0l7.7,30.2l30.1-7.7l0-0.1l0.1,0l0-0.1l0.8,0.5l7.7,30.1h0l0,0l30.1-7.6l0-0.1
	l0.7,0.4l-0.1,0l7.7,30.2l0.1,0l0,0l30.2-7.7l0-0.1l0.7,0.4l-0.1,0l7.4,29.2C421.4,236.4,420.8,237,420.2,237.7z M472.2,178.1
	l-4.5-17.8l-30.2,7.6l0,0.1l0,0l7.7,30.2l13.3-3.4c-4,4.7-7.7,9.2-11.4,13.4l-2.4-9.4l-0.1,0l0,0l-29.8,7.6l-0.9-0.6l-7.6-30l-0.1,0
	l0,0l-29.9,7.6l-0.8-0.5l-6.7-25.9c4.5,0.6,9.1,0.9,13.8,0.9c6.4,0,12.8-0.5,19.4-1.2l4.7,18.5l30.2-7.7l-3.7-14.4
	c10.1-1.5,20.7-3.6,31.7-6.2l3.2,12.5h0l0,0l23.4-5.9C484.7,162.5,478.3,170.6,472.2,178.1z M496.9,146.5l-2-7.7
	c3.4-1,6.8-2.1,10.2-3.2C502.4,139.4,499.6,143,496.9,146.5z"/>
</svg>
