<?xml version="1.0" encoding="utf-8"?>
<!-- Generator: Adobe Illustrator 21.1.0, SVG Export Plug-In . SVG Version: 6.00 Build 0)  -->
<svg version="1.1" id="Layer_3" xmlns="http://www.w3.org/2000/svg" xmlns:xlink="http://www.w3.org/1999/xlink" x="0px" y="0px"
	 viewBox="0 0 421.5 512" style="enable-background:new 0 0 421.5 512;" xml:space="preserve">
<g>
	<path d="M301,110v58.7c42,28.8,69.5,77.1,69.5,131.8c0,88.2-71.5,159.7-159.7,159.7S51,388.7,51,300.5c0-54.7,27.5-103,69.5-131.8
		V110C49.3,143.8,0,216.4,0,300.5c0,116.4,94.4,210.8,210.8,210.8s210.7-94.4,210.7-210.8C421.5,216.4,372.2,143.8,301,110z"/>
	<path d="M193.6,66.2v146.4c0,0,14.3,8.7,17.3,11.3c3.1-2.5,17.3-11.3,17.3-11.3v-146l12.7,12.7l24.6-24.5L210.8,0.2l-54.5,54.4
		l24.5,24.5L193.6,66.2z"/>
	<path d="M83.2,235.4l-0.7,0.7l53.8,53.8l24.5-24.5l-11.9-11.9c13.2,2.3,27,7.2,38.7,15.7c-12.3,18.5-19.2,41.1-19.2,65.9
		c0,55.1,0,78.6,0,78.6H203c0,0,0-37.8,0-75.9c0-15.9,3-29.2,8-40.1c5,10.9,8,24.2,8,40.1c0,38.1,0,75.9,0,75.9h34.5
		c0,0,0-23.4,0-78.6c0-24.8-6.9-47.4-19.2-65.9c11.6-8.5,25.1-13.3,38.2-15.6l-11.7,11.7l24.6,24.6l54-54l-0.7-0.7l0.7-0.7
		l-53.8-53.8l-24.5,24.5l13.6,13.6c-25,2.7-46.7,11.5-63.8,25c-17.1-13.4-38.7-22.3-63.5-25l13.6-13.6l-24.6-24.6l-54,54L83.2,235.4
		z"/>
</g>
</svg>
