<?xml version="1.0" encoding="utf-8"?>
<!-- Generator: Adobe Illustrator 21.1.0, SVG Export Plug-In . SVG Version: 6.00 Build 0)  -->
<svg version="1.1" id="Layer_1" focusable="false" xmlns="http://www.w3.org/2000/svg" xmlns:xlink="http://www.w3.org/1999/xlink"
	 x="0px" y="0px" viewBox="0 0 512 512" style="enable-background:new 0 0 512 512;" xml:space="preserve">
<g id="_x35_2_1_">
	<path d="M444.8,121.1C429.6,50.7,365.8,0,291.7,0c-44.6,0-87,18.6-116.8,51.1h-0.8c-40.7,0-76.9,26-91,65
		c-48.3,11.1-83,55.4-83,106.8C0.2,283,47.7,332,106.2,332H406c28.3,0,55-11.4,75-32.1c20-20.5,31-47.9,31-77.2
		C512,177.9,485.1,137.5,444.8,121.1z M446.4,266.1c-10.9,11-25.3,17-40.4,17H106.2c-32.1,0-58.3-27.1-58.3-60.4
		c0-29.1,20-54,47.5-59.3l10.6-2c4-0.4,7.6-0.6,11.2-0.6c25.4,0,43.8,9.1,61.5,30.5l10.6,12.8v-16.7c0-10.3-3.7-26.5-13.9-41
		c-7.1-10-19.5-22.2-39.8-27.4c9.6-10.6,31.7-23.1,56.3-19.6c48.3,6.8,66.9,56.2,66.9,56.2l-0.1-20.4c-0.1-17.4-9.4-47.2-34.2-64.3
		c19.1-14.3,42.6-22.1,67-22.1c13.3,0,26.2,2.2,38.4,6.7c11.8,4.3,22.7,10.4,32.2,18.2c14.8,12.1,26.2,28.2,32.5,45.8
		c-32.9,9.6-48.8,41.5-51.8,48.1l-8.6,19.1l17.4-11.6c23.1-15.4,44.9-18.3,72.9-9.7l0.8,0.3c11.2,4.1,20.8,11.6,27.8,21.7
		c7.1,10.3,10.9,22.4,10.9,35.2C464.1,239.3,457.9,254.6,446.4,266.1z"/>
	<path d="M-0.2,370H276v52H-0.2V370z M443.3,512H36.1v-52h407.2V512z M512,422H346.9v-52H512V422z"/>
</g>
</svg>
