<?xml version="1.0" encoding="utf-8"?>
<!-- Generator: Adobe Illustrator 21.1.0, SVG Export Plug-In . SVG Version: 6.00 Build 0)  -->
<svg version="1.1" id="Layer_1" xmlns="http://www.w3.org/2000/svg" xmlns:xlink="http://www.w3.org/1999/xlink" x="0px" y="0px"
	 viewBox="0 0 521.5 512" style="enable-background:new 0 0 521.5 512;" xml:space="preserve">
<path d="M67.7,87.5h111.7c9.2,0,17.3,2.8,24.5,8.5c36,26.2,63,45.9,81,59.2c8.5,6.3,15.7,7,24.9,7c0,0,182.1,0,188.8,0
	c12.5,0,22.9,10.6,22.9,23.9c0,4.5,0,292,0,301.5s-6.6,23.9-21.9,23.9c-15.3,0-460.3,0-475.7,0S0,498.9,0,487.6
	c0-12.2,0-251.2,0-311.4c0-13.3,10.5-23.9,23.9-23.9c3.1,0,8,0,8,0v-28.9C31.8,105.4,44.6,87.5,67.7,87.5z M83.6,150.3v42.8
	c0,0-13.6,0-23,0c-4.8,0-8.9,2.9-8.9,9c0.1,15.6,0,38.8,0,38.8h417.9c0,0-0.2-15.4-0.2-16.9c0-6.8-4.4-10-11.8-10h-151
	c-15,0-28.3-3.5-41.2-13.4c-5.5-3.9-73-56.3-73-56.3s-7.3-6-13.8-6c-11.5,0-80.4,3-86.3,3C86.9,141.3,83.6,145,83.6,150.3z
	 M51.8,293.7c0,0,0,151.1,0,157.1c0,4.3,3.9,9,10,9s393.6,0,398,0s10-4.6,10-10c0-5.4,0-70,0-156.1L51.8,293.7L51.8,293.7z"/>
<polygon points="389.9,84.9 521.5,84.9 521.5,47.6 389.9,47.6 "/>
</svg>
