<?xml version="1.0" encoding="utf-8"?>
<!-- Generator: Adobe Illustrator 21.1.0, SVG Export Plug-In . SVG Version: 6.00 Build 0)  -->
<svg version="1.1" id="Layer_1" xmlns="http://www.w3.org/2000/svg" xmlns:xlink="http://www.w3.org/1999/xlink" x="0px" y="0px"
	 viewBox="0 0 521.5 512" style="enable-background:new 0 0 521.5 512;" xml:space="preserve">
<g>
	<polygon points="521.4,57.1 464.3,57.1 464.3,0 427,0 427,57.1 369.8,57.1 369.8,94.4 427,94.4 427,151.6 464.3,151.6 464.3,94.4 
		521.4,94.4 	"/>
	<path d="M60.2,106.9c20.7,0,99.8-0.1,99.8-0.1c3.9,0,7.7,0.6,11.4,1.8c3.9,1.5,7.3,3.2,10,5.4l72.5,52.6c3.3,2.1,6.8,3.9,10.5,5.4
		c3.9,1.2,7.7,1.8,11.4,1.8l163,0.1c11.2,0,20.5,9.5,20.5,20.5v58.9h28.6c26.9,0,36.7,20.3,32.1,40c-3.1,16.6-43,176.1-45.3,187.2
		c-2.3,11-21.9,31.6-53.8,31.6s-399.8,0-399.8,0c-13.8,0-21.5-11.3-21.5-21.4c0,0,0-302.3,0-304.3c0-11.9,9.4-21.4,21.4-21.4
		c1,0,7.2,0,7.2,0c0-3.9,0-9.8,0-25.9S39.5,106.9,60.2,106.9z M74.5,163.1c0,0.8,0,38.3,0,38.3s-12.4,0-20.5,0
		c-4.3,0-8.1,2.6-8.1,8.1c0,1.9,0,42.8,0,42.8l367,0.9c0,0,0-23.5,0-24.1c0-6.1-4.1-9-10.7-9c-0.5,0-130.5,0-130.5,0
		c-7.8,0-22.6-3.3-34.8-12.5c-7.7-5.8-66.4-51.3-66.4-51.3c-3.6-2.3-6.3-4.7-10.5-4l-77.5,2.8C77.4,155.1,74.5,158.4,74.5,163.1z
		 M46,299.6c0,0,0,154,0,158s3.5,8.1,9,8.1c5.4,0,334.4,0,354.4,0c20,0,24.6-14.9,26.8-25.9c2.2-10.9,29.7-113.6,32.1-125.8
		c0.5-4.7,1.2-15.7-13.3-14.2L46,299.6L46,299.6z"/>
</g>
</svg>
