<?xml version="1.0" encoding="utf-8"?>
<!-- Generator: Adobe Illustrator 22.0.1, SVG Export Plug-In . SVG Version: 6.00 Build 0)  -->
<svg version="1.1" id="Layer_2" xmlns="http://www.w3.org/2000/svg" xmlns:xlink="http://www.w3.org/1999/xlink" x="0px" y="0px"
	 viewBox="0 0 512 512" style="enable-background:new 0 0 512 512;" xml:space="preserve">
<style type="text/css">
	.st0{fill-rule:evenodd;clip-rule:evenodd;}
</style>
<g>
	<g>
		<path class="st0" d="M256,0C114.6,0,0,114.6,0,256s114.6,256,256,256s256-114.6,256-256S397.4,0,256,0z M321,26
			c41.8,11.6,72,34,72,34s-48,4.7-56,8c-19.9-12.7-49.9-25.3-81-28c-1.8-0.3-10-23-10-23S281.3,15,321,26z M406,255
			c-2.6,7.7-22.2,69.5-31,81c-39,18-116,22-116,22l-59-72c0,0,35-104.4,38-111c11.6-5.9,79.5-17.3,92-16
			C350.3,174.9,393.9,229.8,406,255z M233,18c1.5,3,9,21.2,10,24c-17.1,7.7-51.6,40.3-62,51c-34.9-0.7-80.3,11.6-98,21
			c-1.7-2.5-7.8-11-9-13C104.6,60.5,170.5,22,233,18z M83,129c27.6-20.6,95-23,95-23l47,65c0,0-34.9,102.4-37,111
			c-3.8,1.1-68.1,16.4-79,17c-26.2-21.6-53-63.4-62-83C47.4,214,58.4,154.2,83,129z M70,407c-39.8-48.6-56-110.4-53-169
			c2.2-0.8,20.2-9,22-10c16.8,30.8,43,64.8,62,81c-3.2,22.4,1.6,68.6,5,81C102,392.2,71.8,406.3,70,407z M79,417
			c1.6-0.8,33.8-16.4,35-17c12,12.6,70,36.2,85,37c17.7,30.7,44.8,52.7,51,58C175.4,492,126,464.6,79,417z M354,474
			c-36.9,14.3-76.4,17.6-88,17c-24-16.9-48.2-43.4-55-58c2.4-3.7,45-57.8,48-62c41.4-1.2,102.2-13.6,117-21c2.2,2,35.2,38.8,37,41
			C403.7,440.8,360.3,468.4,354,474z M403,444c3.6-4.9,17.3-23.6,22-49c28.4-11,47.5-39.3,49-41C464.7,383.2,423.5,433.4,403,444z
			 M471,240c-4.6,0-53.1,3-57,3c-14.2-24.8-49.4-72.5-75-93c0.2-3.2,5.8-67.3,6-70c11-4.2,55.5-8.9,65-7c22.4,15.6,56.8,63.4,67,91
			C479.9,181.1,477.3,224.2,471,240z M482,249c2.4-7,8.6-42.5,9-41c5,23.9,5.1,66.4,1,90C491.1,294.3,488.6,263.2,482,249z"/>
	</g>
</g>
</svg>
