<?xml version="1.0" encoding="utf-8"?>
<!-- Generator: Adobe Illustrator 21.1.0, SVG Export Plug-In . SVG Version: 6.00 Build 0)  -->
<svg version="1.1" id="Layer_4" xmlns="http://www.w3.org/2000/svg" xmlns:xlink="http://www.w3.org/1999/xlink" x="0px" y="0px"
	 viewBox="0 0 232 512" style="enable-background:new 0 0 232 512;" xml:space="preserve">
<path d="M125,445.6l0.9-114.8c0,0-3.9-35.4,15.1-47.8c35.8-23.4,91-54,91-144.7c0-6-0.4-66.7-21.4-110
	C198.7,3.7,142.1,1.5,122.5,1.5c-4.2,0-6.7,0.1-6.7,0.1s-2.6-0.1-6.9-0.1c-19.7,0-75.5,2.2-87.5,26.8C0.3,71.6,0,132.3,0,138.3
	c0,90.6,55.3,121.2,91,144.6c19,12.4,15.1,47.8,15.1,47.8l0.9,114.8c-48.1,1.8-85.6,16.2-85.6,33.9c0,18.8,42.7,34,95.5,34
	c52.7,0,95.4-15.2,95.4-34C212.3,461.7,173.9,447,125,445.6z M31.9,31.4c0-13.2,37.6-20.9,83.9-20.9s83.9,7.8,83.9,20.9
	c0,11.5-37.6,20.9-83.9,20.9C69.4,52.3,31.9,42.9,31.9,31.4z M116.1,237.2c-0.9-0.6-1.9-1.2-2.8-1.8c-15.6-10.1-31.7-20.5-43.1-35.2
	c-7.8-10-18.2-27.4-18.2-61.9c0-9.1,0.8-23.6,3.1-39.2c15.4,2.9,33.3,4.7,51.9,5.1l12.6,18l-46.4,29.4l66,62.8l-26.8-54.8l46.4-29.4
	l-13.5-27.1c11.2-0.9,21.9-2.3,31.6-4.1c2.3,15.7,3.1,30.3,3.1,39.3c0,34.7-10.4,52-18.2,62.1c-11.4,14.7-27.6,25.1-43.2,35.2
	C117.8,236.1,116.9,236.7,116.1,237.2z"/>
</svg>
