<?xml version="1.0" encoding="utf-8"?>
<!-- Generator: Adobe Illustrator 21.1.0, SVG Export Plug-In . SVG Version: 6.00 Build 0)  -->
<svg version="1.1" id="Layer_6" xmlns="http://www.w3.org/2000/svg" xmlns:xlink="http://www.w3.org/1999/xlink" x="0px" y="0px"
	 viewBox="0 0 571.4 512" style="enable-background:new 0 0 571.4 512;" xml:space="preserve">
<g>
	<g>
		<path d="M209,237.5c16.6,0,30.1-16.6,30.1-37.1c0-20.5-13.5-37.1-30.1-37.1c-16.6,0-30.1,16.6-30.1,37.1
			C178.8,220.9,192.3,237.5,209,237.5z M362,237.5c16.6,0,30.1-16.6,30.1-37.1c0-20.5-13.5-37.1-30.1-37.1
			c-16.6,0-30.1,16.6-30.1,37.1C331.8,220.9,345.3,237.5,362,237.5z M285.5,1c-140.8,0-255,114.2-255,255s114.2,255,255,255
			s255-114.2,255-255S426.3,1,285.5,1z M285.5,459.3c-112.2,0-203.2-91-203.2-203.2s91-203.2,203.2-203.2s203.2,91,203.2,203.2
			S397.7,459.3,285.5,459.3z M391.7,336c-43.7-24.6-157-24.1-200.2,1.4l-0.2,0.1c-16,9.7-1.5,33.7,14.5,24
			c34.6-20.4,137.2-20.8,172.1-1.1c6.7,3.9,15.3,1.6,19.2-5.1C401.1,348.5,398.6,339.7,391.7,336z"/>
	</g>
</g>
</svg>
