<?xml version="1.0" encoding="utf-8"?>
<!-- Generator: Adobe Illustrator 21.1.0, SVG Export Plug-In . SVG Version: 6.00 Build 0)  -->
<svg version="1.1" id="Layer_4" xmlns="http://www.w3.org/2000/svg" xmlns:xlink="http://www.w3.org/1999/xlink" x="0px" y="0px"
	 viewBox="0 0 454.6 512" style="enable-background:new 0 0 454.6 512;" xml:space="preserve">
<g id="_x35_2_1_">
	<path d="M215.8,73.3H74.1c-2.4,0-4.3,1.9-4.3,4.3v63c0,2.4,1.9,4.3,4.3,4.3h141.6c2.4,0,4.3-1.9,4.3-4.3v-63
		C220,75.2,218.1,73.3,215.8,73.3z"/>
	<path d="M454.6,471H0v41h454.6V471z"/>
	<path d="M448.9,173.8l-90.4-88.4c-4.8-4.6-12.4-4.6-17,0.2c-4.7,4.8-4.6,12.4,0.2,17L386,146v56.5c0,1.1,0.4,2.1,1.2,2.8l41.2,40.9
		v89.8c0,10.3-2.9,44.2-40.2,44.2s-40.2-33.8-40.2-44.2v-56.2c0-48.7-27.9-65.1-58.7-70.2l0-189.7c0-11-8.9-19.9-19.9-19.9H19.9
		C8.9,0,0,8.9,0,19.9v427.4h289.5l0-213.2c24.5,5.1,34.5,18.7,34.5,45.7v56.2c0,25.3,13.5,68.3,64.3,68.3
		c50.7,0,64.3-42.9,64.3-68.3V182.4C452.5,179.2,451.2,176.1,448.9,173.8z M231.1,395.3H58.4V52h172.7V395.3z"/>
	<path d="M173.4,235.6c-11.7-18.1-20-37.4-20-37.4s-6.3,13.6-17.4,33.4c-11.1,19.8,1.6,33.4,17.4,33.4
		C169.3,265.1,185.1,253.7,173.4,235.6z"/>
	<path d="M107.1,246.8c0,0-6.3,13.6-17.4,33.4c-11.1,19.8,1.6,33.4,17.4,33.4c15.9,0,31.7-11.3,20-29.5
		C115.4,266.1,107.1,246.8,107.1,246.8z"/>
	<path d="M168.3,280.2c0,0-8.3,19.3-20,37.4c-11.7,18.1,4.1,29.5,20,29.5c15.8,0,28.5-13.6,17.4-33.4
		C174.7,293.8,168.3,280.2,168.3,280.2z"/>
</g>
</svg>
