<?xml version="1.0" encoding="utf-8"?>
<!-- Generator: Adobe Illustrator 21.1.0, SVG Export Plug-In . SVG Version: 6.00 Build 0)  -->
<svg version="1.1" id="Layer_2" xmlns="http://www.w3.org/2000/svg" xmlns:xlink="http://www.w3.org/1999/xlink" x="0px" y="0px"
	 viewBox="0 0 640 512" style="enable-background:new 0 0 640 512;" xml:space="preserve">
<path id="_x35_2" d="M183.8,51.7c-33.7,3.9-59.8,31.1-62.1,64.8l0,0.3c0,0-0.2,17.9-0.4,43.8h70.8v52h-71.3
	c-0.4,56.3-0.8,118.9-0.7,132.4c0.5,33.4-8.9,65.3-29,89.3C74.4,454.3,49,472.6,0,479.6L0,427.1c43.5-6.1,69.2-33.3,69.2-76.9
	c0-14.6,0.3-80.3,0.6-137.7H0v-52H70c0.1-23.7,0.2-39.8,0.2-39.8c0.3-61.4,46.6-113,107.7-120c4.6-0.5,21.2-1.7,33.9,0.9l1.3,52.8
	C202.1,50.1,186.5,51.3,183.8,51.7z M320,512h-46.8c-23.9-34-50.4-92.8-50.4-178.1c0.4-85.8,26.5-144.1,50.4-178.6H320
	c-25.2,40.7-44.6,99.9-44.6,179C275.4,412.1,295.3,470.9,320,512z M433,384L360,457.1l-37.3-37.3l73.1-73.1l-73.1-73.1l37.3-37.3
	l73.1,73.1l73.1-73.1l37.3,37.3l-73.1,73.1l73.1,73.1l-37.3,37.3L433,384z M589.6,512h-46.8c24.3-40.7,44.6-100.3,44.6-178.6
	c0-78.2-19.9-137-44.6-178.1h46.8c23.4,34,50.4,91.9,50.4,178.1C639.6,419.6,613,477.5,589.6,512z"/>
</svg>
