<?xml version="1.0" encoding="utf-8"?>
<!-- Generator: Adobe Illustrator 21.1.0, SVG Export Plug-In . SVG Version: 6.00 Build 0)  -->
<svg version="1.1" id="Layer_1" xmlns="http://www.w3.org/2000/svg" xmlns:xlink="http://www.w3.org/1999/xlink" x="0px" y="0px"
	 viewBox="0 0 550 512" style="enable-background:new 0 0 550 512;" xml:space="preserve">
<g>
	<g>
		<path d="M83.7,97.1c19.6,0,35.6-16,35.6-35.6s-16-35.6-35.6-35.6S48,41.9,48,61.5S64,97.1,83.7,97.1z M498,351.8
			c-15.6,0-28.2,12.6-28.2,28.2c0,15.6,12.6,28.2,28.2,28.2c15.6,0,28.2-12.6,28.2-28.2C526.2,364.5,513.6,351.8,498,351.8z
			 M313.2,132.3c12,0,21.8-9.8,21.8-21.8s-9.7-21.9-21.8-21.9c-12,0-21.8,9.8-21.8,21.8C291.4,122.4,301.2,132.3,313.2,132.3z
			 M392.4,61c9.5,0,17.2-7.7,17.2-17.2s-7.7-17.2-17.2-17.2s-17.2,7.7-17.2,17.2S383,61,392.4,61z M205,284
			c6.2,0,11.3,5.1,11.3,11.3c0,6.2-5.1,11.3-11.3,11.3c-6.2,0-11.3-5.1-11.3-11.3C193.7,289.1,198.7,284,205,284z M52.6,258.9
			c0-14.6-11.8-26.3-26.3-26.3S0,244.4,0,258.9c0,14.6,11.8,26.3,26.3,26.3S52.6,273.5,52.6,258.9z"/>
	</g>
	<g>
		<path d="M213.6,454.5c-9.3,0-16.8,7.5-16.8,16.8c0,9.3,7.5,16.8,16.8,16.8c9.3,0,16.8-7.5,16.8-16.8
			C230.3,461.9,222.8,454.5,213.6,454.5z M226.2,400.4c15.4,5.1,31.6,7.8,47.9,7.8c25.4,0,51.2-6.5,74.8-20.1
			c43.2-24.9,69.3-68.1,74.1-114.3C369.1,319.3,284.2,375.4,226.2,400.4z M403.3,188.5c-15.8-27.2-38.8-47.6-65.2-59.9
			c-5.9,7.5-15.2,12.5-25.4,12.5c-15.8,0-29-11.3-31.8-26.3c-1.8-0.1-3.5-0.1-5.3-0.1c-25,0-50.5,6.3-73.7,19.8
			c-70.5,40.7-94.8,130.9-54,201.5c6.7,11.5,14.6,21.8,23.4,30.7c70.1-33.1,182.8-105,242.2-157
			C410.7,202.5,407.3,195.4,403.3,188.5z M222.2,295.1c0,9.5-7.7,17.3-17.3,17.3c-7.4,0-13.7-4.6-16.2-11.2c-0.7,0.3-1.3,0.8-2,1.1
			c-9.3-20.5-11.2-43.3-5.3-65.3c6.7-25.1,22.8-46.1,45.4-59.1c8.6-5,17.9-8.6,27.5-10.7c15.1,14.9,35.8,24,58.2,24
			c8.7,0,17.2-1.3,25.2-3.9c3.8,3.2,7.4,6.7,10.7,10.4c-37.1,28.3-85.2,60.2-130,86.6C220.8,287.3,222.2,291,222.2,295.1z"/>
	</g>
	<g>
		<path d="M543.4,86.8L543.4,86.8c-5.7-5.5-14.7-8.3-26.6-8.3c-28.5,0-77.6,16.2-138.2,45.5c-0.9,0.3-13.8,6.9-14.2,7l9.9,6.6
			c1.9,1.3,4.8,3.6,6.1,5.3l3.5,4.2l5-2.3c41.6-18.7,75.3-29,94.9-29c6.8,0,11.8,1.3,14.1,3.6c0.5,0.5,1.9,2,1.3,6.4
			c-3.9,30.2-84.3,109.5-212.3,189.9c-94.9,59.9-182.4,98.5-222.6,98.5c-9.4,0-14.5-2.1-15.2-6.2c-2.1-11.3,15.9-42.3,73.6-92.4
			l0.9-0.8l-6.5-23.7l-10.4,8.3C65.8,333.5-1.7,395.7,3.3,430.2c1.1,7.7,6.9,20.5,32.7,20.5c23.4,0,59.7-10.3,105-29.7
			c46.8-20.1,101.2-49.4,157-84.3c67.6-42.3,130.2-88.8,176.6-131c32.7-29.8,72.4-71.3,75.3-99.1C550.9,96.3,547,90.2,543.4,86.8z"
			/>
	</g>
</g>
</svg>
