<?xml version="1.0" encoding="utf-8"?>
<!-- Generator: Adobe Illustrator 21.1.0, SVG Export Plug-In . SVG Version: 6.00 Build 0)  -->
<svg version="1.1" id="Layer_1" xmlns="http://www.w3.org/2000/svg" xmlns:xlink="http://www.w3.org/1999/xlink" x="0px" y="0px"
	 viewBox="0 0 550 512" style="enable-background:new 0 0 550 512;" xml:space="preserve">
<g id="_x35_2">
	<ellipse cx="179.7" cy="253.4" rx="22" ry="22"/>
	<circle cx="377.2" cy="232.4" r="26.7"/>
	<ellipse transform="matrix(0.9871 -0.1602 0.1602 0.9871 -31.239 77.2733)" cx="463.6" cy="232.4" rx="26.7" ry="26.7"/>
	
		<ellipse transform="matrix(1.349460e-02 -0.9999 0.9999 1.349460e-02 231.5102 601.2195)" cx="420.4" cy="183.3" rx="26.7" ry="26.7"/>
	<circle cx="99" cy="210.4" r="44.2"/>
	<path d="M102.9,90.5l8.9,3.7c1,3.7,2.3,9.1,4,17c0.4,2.2,0.7,3.6,1.1,5.1l7.7,30.1h31.1h238.7h31.2l7.6-30.3c0.3-1.4,0.6-2.7,1-4.8
		c1.6-8,3-13.4,4-17.1l7.7-3.3l13.7,3.9c0.7,4.1,1.6,9.7,2.8,17.4l3.1,20.6l17.8,8.8c3.1,2,27,19.1,26.9,71.3v185.1
		c-0.5,13.4-11.7,24.2-25.1,24.2c-13.9,0-25.1-11.3-25.1-25.1c0-0.8,0.1-2.1,0.3-3.7l0.1-0.9l0.1-0.9c0.5-7,1.9-14.8,3.3-23.1
		c4.6-26,10.3-58.5-13-83.3L426.8,260c-8.5-9-23.4-6.4-28.3,4.9l-13.6,31.3c-3.4,7.8-10.3,13.6-18.6,15.1
		c-13.1,2.4-25.5-5.7-28.9-18l-0.6-2.1c-4.5-16.1-19.1-27.2-35.8-27.2h-69.3c-17.5,0-32.6,12.2-36.3,29.3l-0.5,2.3
		c-1.5,7.2-8,12.3-15.3,12.3c-6.4,0-12.1-3.8-14.5-9.8l-13.9-34.5c-4.8-11.9-20.5-14.6-29-4.9l-24.4,28
		c-21.6,24.8-16,56.2-11.5,81.5c1.5,8.3,2.9,16.2,3.3,23.2l0.1,1.5l0.2,1.5c0.1,0.4,0.1,1.2,0.1,2.6c0,13.9-11.2,25.1-25.1,25.1
		c-13.6,0-24.5-10.6-25.1-24.2V213.2c0-39.2,13.5-58.7,21.5-66.8h21.4l5-34.2c1.2-8,2.1-13.7,2.8-17.8L102.9,90.5 M448,49.2
		c-18.4,0-33.4,2.6-33.4,5.7c0,0.2-0.8,3.8-1.5,6.5c-1.5,0.6-2.9,1.5-4.3,2.4c-7.9,5.6-13.6,38.7-14.6,42.6H155.6
		c-1-3.8-6.7-37.1-14.6-42.6c-1.4-1-2.7-1.8-4.3-2.4c-0.6-2.7-1.5-6.3-1.5-6.5c0-3.1-14.9-5.7-33.3-5.7c-18.4,0-33.3,2.6-33.3,5.7
		c0,0.2-0.4,2.8-0.6,4.8c-2.7,0.9-5.1,2.2-7,4c-5.8,5.6-6.9,3.6-12.6,42.6h-0.1c0,0-48.3,24-48.3,106.8C0,277,0,398.9,0,398.9
		c0.9,35.3,29.6,63.5,65.1,63.5c35.9,0,65.1-29.2,65.1-65.1c0-2.8-0.2-5.7-0.6-8.4c-2-29.5-14.6-60.7-1.5-75.7
		c8.2,20.4,28.3,34.8,51.6,34.8c26.7,0,49-18.8,54.4-43.9h64.7c7.7,27.5,32.9,47.7,62.8,47.7c26.7,0,49.7-16.1,59.7-39.2
		c13.9,14.8,1,46.4-1,76.2c-0.3,2.7-0.6,5.6-0.6,8.4c0,36,29.1,65.1,65.1,65.1c35.4,0,64.3-28.3,65.1-63.6c0,0,0-122,0-185.7
		c0.1-82.7-48.2-106.6-48.2-106.6c-5.8-39-6.9-37-12.7-42.6c-2-1.9-4.3-3.2-7.1-4c-0.2-2-0.6-4.7-0.6-4.8
		C481.5,51.8,466.5,49.2,448,49.2L448,49.2z"/>
</g>
</svg>
