<?xml version="1.0" encoding="utf-8"?>
<!-- Generator: Adobe Illustrator 21.1.0, SVG Export Plug-In . SVG Version: 6.00 Build 0)  -->
<svg version="1.1" id="Layer_2" xmlns="http://www.w3.org/2000/svg" xmlns:xlink="http://www.w3.org/1999/xlink" x="0px" y="0px"
	 viewBox="0 0 512 512" style="enable-background:new 0 0 512 512;" xml:space="preserve">
<style type="text/css">
	.st0{fill-rule:evenodd;clip-rule:evenodd;}
</style>
<g id="_x35_2">
	<path d="M73.6,199.5c0,0,0,211.3,0,216.5c5.4-1.3,11.6-2.1,17.8-2.1c20.7,0,43.2,8.9,48.8,40.3c74,0,103.4,0,103.4,0V199.5H73.6z
		 M191.7,402.1h-17.8c-11.8-16.5-28.4-28.7-48.2-35.1v-80.9h52.2v-8.5h-52.2v-26.2h66.1V402.1z"/>
	<path d="M434.6,140V92.2H65.3v43.6H0V191h512V140H434.6z M394.6,151H105.3v-18.8h289.4V151z M476.3,182.5
		c-9.2,0-16.7-6.8-16.7-15.1H493C493,175.7,485.5,182.5,476.3,182.5z M459.6,163.6c0-8.3,7.5-15.1,16.7-15.1
		c9.2,0,16.7,6.8,16.7,15.1H459.6z"/>
	<path d="M430.7,505.1l-0.2-305.6H256.2v254.7h153.6v50.9H430.7z M376.9,402.1h-68.7V251.5H377l0,26.2h-54.9v8.5H377L376.9,402.1z"
		/>
	<path class="st0" d="M86.1,20h331.8c0,0,8.3,7.5,12.5,23.4c4.2,15.9,4.2,40.3,4.2,40.3H65.3c0,0,1-24.1,6.1-39.9
		C76.6,27.7,86.1,20,86.1,20z"/>
	<path class="st0" d="M92.4,424.4c-21.9,0-39.6,18-39.6,40.3s17.7,40.3,39.6,40.3c21.9,0,39.6-18,39.6-40.3S114.2,424.4,92.4,424.4z
		 M92.4,496.6c-17.3,0-31.3-14.3-31.3-31.8s14-31.8,31.3-31.8s31.3,14.3,31.3,31.8S109.6,496.6,92.4,496.6z M92.4,441.4
		c-12.7,0-22.9,10.4-22.9,23.3s10.3,23.3,22.9,23.3c12.7,0,22.9-10.5,22.9-23.3S105,441.4,92.4,441.4z"/>
</g>
</svg>
