<?xml version="1.0" encoding="utf-8"?>
<!-- Generator: Adobe Illustrator 21.1.0, SVG Export Plug-In . SVG Version: 6.00 Build 0)  -->
<svg version="1.1" id="Layer_1" xmlns="http://www.w3.org/2000/svg" xmlns:xlink="http://www.w3.org/1999/xlink" x="0px" y="0px"
	 viewBox="0 0 370 512" style="enable-background:new 0 0 370 512;" xml:space="preserve">
<g>
	<path d="M221.8,512l54.8-91.7c8-13.5,12-23.8,12.5-33.4v-0.3c1.4-17.3-7.2-33-14.7-43.1L274,343l-0.3-0.5
		c-2.2-3.5-4.5-6.9-6.9-10.6c-7.4-11.2-14.9-22.7-21.6-34.9c-4.2,10.1-6.9,21.5-8.3,33.9l-5.6,48.2L198.3,340
		c-9.9-11.7-18.7-24.4-26-37.7c-7-12.6-13.1-26.1-18.1-40.3c-4.9-14.3-9-29.5-12.2-46.1c-0.2,0.2-0.3,0.4-0.5,0.6
		c-26.4,30.8-40.3,69.8-42.4,119.4v0.3v0.3c-1.5,18,0.3,35.7,5.5,52.4v0.1c6.7,22.2,20.8,41.6,39.5,54.6l47.9,33h-66.2l-4.1-1.5
		c-1.1-0.4-2.3-0.8-3.4-1.3c-8.5-3.1-17.2-6.4-26-10.9c-40.3-20.1-70.9-53.5-84.3-91.8C2.6,356.2,0,339.9,0,322.7
		c0-15.2,2.2-31.1,6.5-47.4v-0.1c7.2-26.9,19.5-53.5,36.6-79c15.7-23.7,35.4-46.3,58.4-67.2l0.2-0.2c19.1-17,38.6-34.4,55.8-49.8
		l0.1-0.1c7.1-6.2,14.2-12.9,21-19.4c5.8-5.5,11.7-11.1,17.9-16.7l47.1-42.5L233,58.5c-5.4,29.6-6.7,58.8-4,86.9
		c1,9.3,2.4,17.9,4.3,26c2.3-4.5,4.1-9.3,5.1-14.2l9.3-46.2l29.6,39.3c1.2,1.6,3.7,5.3,9.6,13.6c12.5,17.9,35.7,51.2,49.4,68.8
		c9,11.3,15.5,21.3,20.5,31.3c5.5,10.9,9.3,23.1,11.4,36c1.8,11.2,2.2,23.3,1.3,35.9v0.1c-3.2,40.2-24.9,79-59.6,106.4L221.8,512z
		 M48.2,283.6C40.7,312.2,41,338,49,360.4v0.1c2.5,7.2,5.8,14.2,9.9,20.9c-3.1-15.4-3.8-31.2-2.5-47.3c0.5-12.6,1.9-24.9,3.8-36.5
		c2.2-12.6,5.2-24.7,9-36.1c4.1-12.2,9.2-23.9,15.4-34.7c6.4-11.5,14.1-22.5,22.6-32.5l0,0c11.4-13.2,22.4-23.3,35.5-34.3l32.5-27.6
		l3.7,39.3c4.1,43.5,13.1,78.3,28.2,107.8c16.7-34.9,54.8-53.1,54.8-53.1l9.3,30c4.9,22.1,19,36.6,32.7,57.3
		c2.2,3.4,4.6,6.9,6.8,10.4c5.8,7.9,10.4,16.1,13.9,24.4c1.1-4.8,1.9-9.7,2.2-14.6c1.4-21.4-1.6-39.9-9.2-54.9l-0.1-0.1
		c-3.8-7.8-9.1-15.7-16.6-25l-0.1-0.2c-10.4-13.3-25.6-34.6-38-52.3c-3.1,4-6.5,7.7-10.2,11.2c-4.9,4.6-10.4,8.8-16.2,12.3
		l-21.8,13.3l-10.2-21.3c-9.4-19.6-15.4-41.9-18-68v-0.1c-1.3-13.4-1.8-27.1-1.3-40.9c-16.4,14.7-34.7,31-52.6,47
		C89.5,193.6,60.4,238.2,48.2,283.6z"/>
	<path d="M268.6,404.4c-5.9,15.7-26.8,48.1-41.1,58.6c-21.8-14.1-68.5-54.7-75.3-77.8c-10.6-35.9,12.8-55.6,13.7-56.5
		c6.8,20,24.6,37.3,38.3,53.4c0,0,21.4,25.6,32.7,22.7c16.4-4.1,13.6-43.1,17.3-51.2c4.2,6.4,7.9,12.5,10.9,16.9
		C272.6,380.5,272.6,393.5,268.6,404.4z"/>
</g>
</svg>
