<?xml version="1.0" encoding="utf-8"?>
<!-- Generator: Adobe Illustrator 21.1.0, SVG Export Plug-In . SVG Version: 6.00 Build 0)  -->
<svg version="1.1" id="Layer_2" xmlns="http://www.w3.org/2000/svg" xmlns:xlink="http://www.w3.org/1999/xlink" x="0px" y="0px"
	 viewBox="0 0 576 512" style="enable-background:new 0 0 576 512;" xml:space="preserve">
<g id="_x35_2">
	<path d="M561.8,55H14.2C6.3,55,0,61.4,0,69.2v384.3c0,7.8,6.4,14.2,14.2,14.2h547.7c7.8,0,14.2-6.3,14.2-14.2V69.2
		C576,61.4,569.7,55,561.8,55z M52,107h72.1v59.1H52V107z M524,166.2H266.2c-0.3,9.5-4.4,18.5-11.9,26
		c-10.3,10.3-27.2,17.5-47.5,20.3c-5.4,0.8-10.9,1.1-16.3,1.1c-0.5,0-1,0-1.5,0c-1,2.4-2.2,4.7-3.6,6.9H524v195.2H178.4V228.3
		c-3.1,2.6-6.6,4.8-10.3,6.2c0.1,5.8-0.3,11.8-1.1,17.8c-2.8,20.3-10,37.2-20.3,47.5c-6.5,6.5-14.3,10.5-22.6,11.5v104.3H52V255.4
		c-6-4.3-10.6-10.3-13.3-17.9c-5.2-14.4-1.8-29.1,9.4-40.3c10.2-10.2,27-17.4,47.1-20.1c5.4-0.7,10.8-1.1,16.1-1.1
		c4.5,0,9,0.3,13.2,0.8c1-1.3,2-2.5,3.2-3.6s2.4-2.2,3.6-3.2c-1.2-9.1-1.1-19.2,0.3-29.3c2.8-20.2,9.9-36.9,20.1-47.1
		c7.7-7.7,17.1-11.8,27.2-11.8c4.4,0,8.8,0.8,13.1,2.4c11.1,4,19,12.1,22.7,22.9H524V166.2z"/>
	<path d="M152.8,229c-7-0.3-14-3.2-19.3-8.5c-7.6-7.7-10.1-18.5-7.6-28.3c-8.5-1.5-18.4-1.6-28.7-0.2c-16.7,2.3-30.8,8.1-38.6,15.9
		c-7,7-9.1,15.8-6,24.6c2.8,7.6,8.4,12.6,16.1,14.3c11.6,2.6,25.3,20,28,32.4c1.7,7.8,6.7,13.4,14.4,16.2c8.9,3.2,17.7,1.1,24.8-6
		c0,0,0,0,0,0c7.9-7.9,13.7-22.1,16-38.9C153.1,242.9,153.3,235.7,152.8,229z M121.4,209.1c-15.6,15.6-38.4,26.8-49.6,24.3
		c-3.1-0.7-5.1-2.4-6.2-5.6c-0.9-2.6-1.5-6.1,2.8-10.3c10.2-10.2,38.2-15.4,56.3-11.7C123.6,206.8,122.5,208,121.4,209.1z
		 M170.1,183.8c-8.8-8.8-23-8.8-31.8,0c-8.8,8.8-8.8,23,0,31.8c8.8,8.8,23,8.8,31.8,0C178.9,206.8,178.9,192.6,170.1,183.8z
		 M161.4,206.9c-4,4-10.5,4-14.5,0c-4-4-4-10.5,0-14.5c4-4,10.5-4,14.5,0C165.4,196.5,165.4,202.9,161.4,206.9z M249.7,156.8
		c-2.8-7.7-8.4-12.6-16.2-14.4c-12.4-2.8-29.8-16.4-32.4-28.1c-1.7-7.8-6.7-13.3-14.3-16.1c-8.8-3.2-17.5-1.1-24.6,5.9
		c-7.8,7.8-13.6,21.9-15.9,38.6c-1.4,10.2-1.3,20.2,0.2,28.7c9.8-2.6,20.6-0.1,28.3,7.6c5.4,5.4,8.2,12.3,8.5,19.3
		c6.7,0.5,14,0.3,21.4-0.7c16.9-2.3,31-8.2,38.9-16C250.8,174.5,253,165.7,249.7,156.8z M163.6,166.9c-1.1,1.1-2.3,2.2-3.4,3.2
		c-3.7-18.1,1.5-46,11.7-56.3c4.2-4.2,7.7-3.7,10.3-2.8c3.2,1.2,4.9,3.1,5.6,6.2C190.3,128.6,179.2,151.3,163.6,166.9z"/>
</g>
</svg>
