<?xml version="1.0" encoding="utf-8"?>
<!-- Generator: Adobe Illustrator 21.1.0, SVG Export Plug-In . SVG Version: 6.00 Build 0)  -->
<svg version="1.1" id="Layer_2" xmlns="http://www.w3.org/2000/svg" xmlns:xlink="http://www.w3.org/1999/xlink" x="0px" y="0px"
	 viewBox="0 0 550 512" style="enable-background:new 0 0 550 512;" xml:space="preserve">
<g id="_x35_2">
	<path d="M518.7,229.1L392.2,72l-0.8-1l-0.9-0.8c-6.9-5.8-15.7-8.2-24.4-6.6c-8.5,1.7-15.9,7.3-20.2,15.3l-6.5,10.9l-0.6,1.2
		c-2.6,5.6-2.2,12.1,1.1,17.4c3.3,5.2,8.9,8.4,15.1,8.5c6,0.1,11.5-2.7,15-7.6l2.1-3l59.9,75.1c-5.8-0.7-11.6-1.1-17.4-1.1
		c-27.2,0-53.3,8-75.7,23.1c-4.5,1.1-26.7,4.8-68.5,4.8c-39.5,0-54.4-3.3-58.9-4.7c-22.5-15.1-48.7-23.1-75.9-23.1
		c-5.8,0-11.7,0.4-17.5,1.1l59.9-75.1l2.1,3c3.4,4.8,8.9,7.6,14.9,7.6h0.1c6.2-0.1,11.8-3.3,15.1-8.5c3.3-5.2,3.7-11.6,1.2-17.2
		l-7.1-12.3c-4.3-8-11.7-13.6-20.2-15.3c-8.5-1.7-17.4,0.7-24.4,6.6l-0.9,0.8L32.7,227.4l-1,1.2c-1.5,1.8-3,3.6-4.4,5.5l-3.3,4.2
		h0.3C8.6,260.9,0,288,0,315.8c0,74.7,60.8,135.5,135.5,135.5s135.5-60.8,135.5-135.5c0-23.2-5.8-45.7-17-65.7h41.9
		c-11.2,20.1-17,42.6-17,65.7c0,74.7,60.8,135.5,135.5,135.5S550,390.5,550,315.8C550.1,284.3,539,253.5,518.7,229.1z M135.5,401
		c-22.8,0-44.2-8.9-60.2-25c-16-16-24.9-37.4-24.9-60.2c0-22.8,8.9-44.2,25-60.3c16.1-16.1,37.5-25,60.3-25s44.2,8.9,60.2,25
		c16.1,16.1,25,37.5,25,60.2c-0.1,22.8-9,44.2-25,60.3C179.7,392.1,158.3,401,135.5,401z M474.7,376c-16.1,16.1-37.5,25-60.2,25
		s-44.2-8.9-60.3-25c-16.1-16.1-25-37.5-25-60.2c0-22.8,8.9-44.2,25-60.3c16.1-16.1,37.5-25,60.3-25s44.2,8.9,60.2,25
		c16.1,16.1,25,37.5,25,60.3C499.7,338.6,490.8,359.9,474.7,376z"/>
</g>
</svg>
