<?xml version="1.0" encoding="utf-8"?>
<!-- Generator: Adobe Illustrator 21.1.0, SVG Export Plug-In . SVG Version: 6.00 Build 0)  -->
<svg version="1.1" id="Layer_3" xmlns="http://www.w3.org/2000/svg" xmlns:xlink="http://www.w3.org/1999/xlink" x="0px" y="0px"
	 viewBox="0 0 631.9 512" style="enable-background:new 0 0 631.9 512;" xml:space="preserve">
<g>
	<path d="M161.9,130.1c15.1,9.4,31.5,17.2,46.2,23.2c8.5,3.5,20.5,8,34,11.9L140.9,204c-1.4-10.6-0.8-25.5,7.7-46.5l0.1-0.3l0.1-0.3
		C150.9,151.8,155.5,141.5,161.9,130.1 M469.7,130.2c5.8,10.4,10.5,20.4,13.4,27.5c8.8,21.6,9.2,36.8,7.5,47.5l-103.4-39.3
		c14.4-4,27.3-8.9,36.2-12.6C438.2,147.3,454.7,139.6,469.7,130.2 M451.8,45.1c-28.2,0-65.3,17-65.3,17s-65.8,24-70.6,53.3
		c-4.7-29.4-70.6-53.3-70.6-53.3s-37.1-17-65.3-17c-9.4,0-17.9,1.9-23.6,7c-32.7,29.4-53.9,80.6-55.9,85.7
		c-31.2,76.7,4.9,121.6,27,153.8c11.8,17-3.7,45.6-3.7,45.6L85,434.8C63.8,427,43.8,423.1,28.6,423c-14.4,0-24.6,3.5-27.5,10.8
		c-6.5,15.9,24.3,43.5,68.9,61.8c24.2,9.9,47.5,15,64.7,15c14.4,0,24.5-3.5,27.5-10.7c6.1-14.9-21.2-40.7-62-58.8l40.3-96.9
		c0,0,8.9-31.3,29.2-35.2c38.3-7.4,95.4-14.2,126.6-91c1.7-4.3,16.7-41.6,19.6-79.5c2.9,37.9,17.9,75.3,19.6,79.5
		c31.2,76.7,88.4,83.6,126.6,91c20.3,3.9,29.2,35.2,29.2,35.2l40.3,96.9c-40.8,18-68.1,43.8-62,58.8c3,7.3,13.1,10.8,27.5,10.8
		c17.2,0,40.5-5.1,64.7-15c44.6-18.2,75.4-45.8,68.9-61.8c-3-7.3-13.2-10.8-27.6-10.8c-15.2,0-35.2,4-56.3,11.7L508,337.3
		c0,0-15.5-28.6-3.7-45.6c22.1-32.1,58.2-77.1,27-153.8c-2.1-5.1-23.2-56.3-55.9-85.7C469.7,47,461.2,45.1,451.8,45.1L451.8,45.1z
		 M291.8,121.4c-14.5,0-38.3-5.8-63.9-16.3c-39.2-16-67.6-36.9-63.6-46.6c1.5-3.9,6.6-5.7,14.2-5.7c14.5,0,38.1,6.5,63.8,17
		c39,15.9,68.1,35.5,63.6,46.6C304.5,119.8,299.4,121.4,291.8,121.4L291.8,121.4z M339.9,121.4c-7.6,0-12.7-1.6-14.1-5
		c-4.5-11.1,24.5-30.7,63.6-46.6c25.7-10.5,49.3-17,63.8-17c7.6,0,12.6,1.8,14.2,5.6c4,9.7-24.4,30.6-63.6,46.6
		C378.3,115.6,354.4,121.4,339.9,121.4L339.9,121.4z"/>
	<polygon points="362.7,30.1 331.3,60.9 338.1,67.7 368.7,36.8 362.7,30.1 	"/>
	<polygon points="270.1,30.1 264.1,36.8 294.7,67.7 301.4,60.9 270.1,30.1 	"/>
	<polygon points="320.1,0 311.9,0 311.9,57.2 320.1,57.2 320.1,0 	"/>
</g>
</svg>
