<?xml version="1.0" encoding="utf-8"?>
<!-- Generator: Adobe Illustrator 21.1.0, SVG Export Plug-In . SVG Version: 6.00 Build 0)  -->
<svg version="1.1" id="Layer_4" xmlns="http://www.w3.org/2000/svg" xmlns:xlink="http://www.w3.org/1999/xlink" x="0px" y="0px"
	 viewBox="0 0 232 512" style="enable-background:new 0 0 232 512;" xml:space="preserve">
<path d="M176.9,99c2.3,15.7,3.1,30.3,3.1,39.3c0,34.7-10.4,52-18.2,62.1c-11.4,14.7-27.6,25.1-43.2,35.2c-0.8,0.5-1.7,1.1-2.5,1.6
	c-0.9-0.6-1.9-1.2-2.8-1.8c-15.6-10.1-31.7-20.5-43.1-35.2c-7.8-10-18.2-27.4-18.2-61.9c0-9.1,0.8-23.6,3.1-39.2
	c17.8,3.4,39,5.2,60.7,5.2C137.7,104.3,159,102.4,176.9,99 M108.9,1.5c-19.7,0-75.5,2.2-87.5,26.8C0.3,71.6,0,132.3,0,138.3
	c0,90.6,55.3,121.2,91,144.6c19,12.4,15.1,47.8,15.1,47.8l0.9,114.8c-48.1,1.8-85.6,16.2-85.6,33.9c0,18.8,42.7,34,95.5,34
	c52.7,0,95.4-15.2,95.4-34c0-17.7-38.4-32.4-87.3-33.8l0.9-114.8c0,0-3.9-35.4,15.1-47.8c35.8-23.4,91-54,91-144.7
	c0-6-0.4-66.7-21.4-110C198.7,3.7,142.1,1.5,122.5,1.5c-4.2,0-6.7,0.1-6.7,0.1S113.2,1.5,108.9,1.5L108.9,1.5z M115.8,52.3
	c-46.4,0-83.9-9.4-83.9-20.9c0-13.2,37.6-20.9,83.9-20.9s83.9,7.8,83.9,20.9C199.7,42.9,162.1,52.3,115.8,52.3L115.8,52.3z"/>
</svg>
