<?xml version="1.0" encoding="utf-8"?>
<!-- Generator: Adobe Illustrator 21.1.0, SVG Export Plug-In . SVG Version: 6.00 Build 0)  -->
<svg version="1.1" id="Layer_1" xmlns="http://www.w3.org/2000/svg" xmlns:xlink="http://www.w3.org/1999/xlink" x="0px" y="0px"
	 viewBox="0 0 512 512" style="enable-background:new 0 0 512 512;" xml:space="preserve">
<style type="text/css">
	.st0{fill:#010101;}
</style>
<path class="st0" d="M256,0l-0.9,0C114.4,0.5,0,115.3,0,256c0,140.6,114.4,255.5,254.8,256l1.2,0c141.2,0,256-114.8,256-256
	C512,114.8,397.2,0,256,0z M148.6,405.1c4.8,13.4,10.2,25.7,16.2,36.9c-14.8-7.3-28.6-16.2-41.2-26.8
	C131.7,411.5,140.1,408.1,148.6,405.1z M231.6,387.5v63.7c-13.1-12.2-25.8-33.1-35.6-59C207.8,390,219.7,388.5,231.6,387.5z
	 M231.6,60.8v63.6c-11.9-0.9-23.8-2.5-35.6-4.7C205.9,93.8,218.5,73,231.6,60.8z M182.4,166.6c16.1,3.2,32.6,5.4,49.2,6.5v58.5
	h-57.4C175.3,208.9,178.1,187.1,182.4,166.6z M231.6,280.4v58.4c-16.5,1.1-33,3.3-49.2,6.5c-4.3-20.4-7.1-42.2-8.2-64.9H231.6z
	 M164.8,69.9c-6,11.2-11.4,23.5-16.2,36.9c-8.5-3-16.8-6.4-25-10.1C136.3,86.1,150.1,77.2,164.8,69.9z M88.6,134
	c15.2,7.7,30.8,14.3,46.6,19.8c-5.4,24.7-8.7,50.9-10,77.8H50.3C54.4,196.3,67.5,162.8,88.6,134z M50.3,280.4h74.9
	c1.3,27,4.6,53.1,10,77.8c-16,5.5-31.6,12.2-46.6,19.8C67.5,349.1,54.4,315.7,50.3,280.4z M461.8,231.6h-75.6
	c-1.3-27-4.6-53.1-10-77.7c16.1-5.5,31.9-12.2,47.2-19.9C444.5,162.8,457.6,196.3,461.8,231.6z M315.5,392.2
	c-9.7,25.5-22.2,46.1-35.1,58.4v-63C292.1,388.5,303.9,390,315.5,392.2z M388.5,415.2c-13,10.8-27,19.9-42.1,27.2
	c6.1-11.4,11.6-23.9,16.5-37.5C371.6,408,380.1,411.4,388.5,415.2z M388.4,96.7c-8.3,3.8-16.9,7.2-25.5,10.2
	c-4.9-13.6-10.4-26.1-16.5-37.5C361.4,76.9,375.5,85.9,388.4,96.7z M280.4,61.4c12.9,12.3,25.3,32.9,35,58.3
	c-11.6,2.2-23.3,3.7-35,4.6V61.4z M280.4,173.1c16.4-1.1,32.7-3.2,48.6-6.4c4.3,20.4,7.1,42.2,8.2,64.9h-56.8V173.1z M280.4,280.4
	h56.8c-1.2,22.7-3.9,44.4-8.2,64.8c-16-3.2-32.2-5.4-48.6-6.4V280.4z M423.5,378c-15.3-7.8-31.2-14.5-47.2-20
	c5.3-24.7,8.7-50.7,9.9-77.6h75.6C457.6,315.7,444.5,349.2,423.5,378z"/>
</svg>
