<?xml version="1.0" encoding="utf-8"?>
<!-- Generator: Adobe Illustrator 21.1.0, SVG Export Plug-In . SVG Version: 6.00 Build 0)  -->
<svg version="1.1" id="Layer_1" xmlns="http://www.w3.org/2000/svg" xmlns:xlink="http://www.w3.org/1999/xlink" x="0px" y="0px"
	 viewBox="0 0 511.4 512" style="enable-background:new 0 0 511.4 512;" xml:space="preserve">
<path d="M255.7,511.9C114.5,511.9,0,397.4,0,256.2S114.5,0.5,255.7,0.5S511.4,115,511.4,256.2S396.9,511.9,255.7,511.9z
	 M353.5,434.9h0.1c1.5-0.8,3-1.7,4.5-2.6c-2.5,0.2-7.7,0.4-10.4,0.4c-1.6-0.3-3.2-0.8-4.7-1.6c-1.5-0.8-3-2-4.7-3.5
	c-1.6-1.5-2.9-2.7-3.7-3.5c-0.3,1.4,0.1,3.4,1.2,6.1c0,1.1-2.2,2.3-6.5,3.7c-5.1,0.8-8.3,0.7-9.3-0.4c1.1,1.9,3.1,4.5,6.1,7.7
	l1.6-1.6c1.6,1.6,6,0.9,13-2c0.5,0,1.7-0.5,3.4-1.4c1.8-1,3.2-1.7,4.3-2.2C349.8,433.7,352.1,434.7,353.5,434.9z M255.7,52.4
	c-11.4,0-22.5,0.9-33.4,2.7c0.2,1.8,0.3,3.2,0.3,4.1c0.3,1.9-0.4,4.3-2,7.1c-1.6,2.9-2.4,5.1-2.4,6.7c3.2,0.5,4.5,3.3,3.7,8.1
	c-0.5,3.3-3.5,7.4-8.9,12.6c-4,3.5-5.4,8.5-4,15c0.8,3,1.4,7.1,1.8,12.4c0.4,5.3,0.7,9,1,11.2c0-0.8-1-1.5-3.1-2
	c-2-0.6-3.2-1.2-3.5-2c-0.3,0.5-0.7,1.6-1.4,3.2c-0.7,1.6-1.3,3-1.8,4.1c-0.5,0.5-1.5,1.3-2.8,2.2s-2.3,1.5-2.8,1.8
	c-0.6,0.3-1.6,1-3.1,2.2s-2.6,2.1-3.5,2.6c-0.8,0.5-2,1-3.6,1.4s-2.7-0.1-3.3-1.4c-1.1-1.4-0.9-3.4,0.6-6.1c1.5-2.7,1.4-4.6-0.2-5.7
	c-0.3,0.8-0.5,2.3-0.6,4.5s-0.8,3.8-1.8,4.9c-1.3,1.1-2.6,1.7-3.6,2c-1.1,0.3-2.1,0.1-3.1-0.4c-0.9-0.6-2.1-1.3-3.5-2.2
	c-1.3-1-2.6-1.6-3.6-1.8c-3.3-1.1-7-3.5-11.4-7.3c0.3,0.3,0.3,0.6,0.2,1s-0.5,0.7-1.2,1s-1.3,0.5-1.8,0.8s-1.2,0.5-2,0.8l-0.8,0.4
	c-1.6,0-2.7,0.1-3.3,0.4c-0.5,0.3-1.3,0.1-2.4-0.6c-1.1-0.7-1.8-1.2-2.2-1.6c-0.4-0.4-1.1-1-2.2-1.6c-1.1-0.7-1.9-1.3-2.4-1.8
	c-0.5-0.3-1.6-1-3.3-2c-1.6-1.1-3-2-4.1-2.6c-1.1-0.7-1.9-1.7-2.6-3c-0.7-1.4-0.9-2.7-0.6-4.1c-1.4-0.3-3.9-1.1-7.7-2.4
	c-0.5-0.3-1.8-0.6-3.8-1c-1.8-0.4-4.5-1.2-5.7-1.8C73.9,151,51.9,201,51.9,256.2c0,112.5,91.2,203.8,203.8,203.8
	c32.5,0,63.3-7.6,90.5-21.2c-8.2,3.2-16.9,5.4-24,7.8c-0.3-0.3-1.2-1.2-2.8-2.6c-1.6-1.5-2.8-2.5-3.7-3.1c0.8,0.3,1.2,0,1.2-0.8
	c1.1-2.4,1.1-4.5,0-6.1c-1.1-1.4-2.5-2.2-4.3-2.4c-1.7-0.3-3.8-0.2-6.3,0.2c-2.4,0.4-4.2,0.6-5.3,0.6l-3.2-0.4
	c-6.5-0.6-9.1,0.1-7.7,2c-0.6-0.8-1.3-2.6-2.2-5.3c-1-2.7-1.8-4.6-2.6-5.7c-1.1,0.8-1.3,2.3-0.8,4.5s0.5,3.7,0,4.5
	c-0.3,0.5-1,1-2,1.4c-1.1,0.4-2.2,0.9-3.4,1.4c-1.2,0.5-2.1,1-2.6,1.2c-1.3,0.8-0.5,2.2,2.4,4.1c0.3,0.3,1.1,0.6,2.6,1
	s2.7,0.8,3.7,1.2c1,0.4,2,1,3.2,1.8s1.8,1.7,1.6,2.6c-0.1,1-0.7,2.2-1.8,3.9c-1.1,1.1-3,1.5-5.9,1.2c-2.8-0.3-5.1-0.8-6.7-1.6
	c-5.7-3.3-6.5-6.2-2.4-8.9c-2.2,0-4.7-0.8-7.5-2.2c-2.8-1.5-4-3.1-3.5-4.7c-1.6,3-3.4,4.5-5.3,4.5c-1.1-0.3-2.1-1.7-3-4.3
	c-1-2.6-1.6-4-1.8-4.3c-1.6-2.2-3.2-2.6-4.9-1.4c-1.6,1.2-3.4,3.1-5.3,5.5s-3,3.5-3.2,3.3c2.2,0.8,2.4,1.6,0.8,2.4
	c-3.3,1.9-6.1,2.4-8.6,1.6c-0.5-0.3-1.3-1.2-2.4-2.8c-1.9-3.5-1.6-5.3,0.8-5.3c-1.9-1.6-2.7-3.7-2.2-6.3c0.4-2.6,2.1-3.7,5.1-3.5
	c1.1,0,2.6,0.5,4.5,1.6s3.4,1.6,4.5,1.6s2.6-0.6,4.5-1.6c0.8-1.1,1.9-2.9,3.3-5.5c1.3-2.6,2.6-4.4,3.7-5.5c3.3-3.3,8.5-4.3,15.8-3.3
	c-0.6,0-0.5-0.6,0.2-1.8c0.7-1.2,1.7-2.6,3-4.3c1.4-1.6,2.2-2.6,2.4-2.8c1.9-2.2,3.1-4.6,3.7-7.3c0-0.6,0.1-2,0.4-4.3
	s0.6-4.1,0.8-5.5c-2.2,0.6-4.1-0.8-5.7-4.1c-1.3-2.7-1.3-4.2,0-4.5c-7,1.1-13.1,0.7-18.3-1.2c-7.6-3-11.9-5.8-13-8.5
	c-1.3,1.9-4.5,2-9.3,0.4c-1.9-1.1-3.5-4.2-4.9-9.4c-1.1-3.3-2.7-6-4.7-8.3s-4.1-2.9-6.3-1.8l-0.8,0.8c-0.8,0.3-1.5,0.6-2,1
	s-1.1,0.8-1.8,1.2c-0.7,0.4-1.1,0.8-1.2,1.2c-0.1,0.4,0.1,0.9,0.6,1.4c1.4,1.1,2.4,2.8,3.3,5.1c0.8,2.3,0.7,4.4-0.4,6.3
	c-0.5,0.6-2.2,1.7-4.9,3.5s-4.5,3.5-5.3,5.1c-0.8,2.7,0.3,4.9,3.3,6.7c3,1.8,4.5,3.5,4.5,5.1c0,1.1-0.8,2.4-2.2,3.9
	c-1.5,1.5-2.1,2.9-1.8,4.3c0,0.3,0.4,1.4,1.2,3.5c0.8,2,1.2,3.6,1.2,4.7s-0.5,2.2-1.6,3.2c-1.3,1.1-4.7,1.1-10.2,0
	c-5.4-1.1-8.9-2.2-10.6-3.2c-0.8-0.3-2.3-0.9-4.5-1.8c-2.2-1-4-1.9-5.5-2.8c-1.5-1-2.4-1.8-2.6-2.6h1.2c-1.1-1.1-1.8-2.5-2.2-4.3
	s0.4-3.1,2.2-3.9c-1.1,0.3-2.7,0-4.9-0.8c-3.5-1.4-3.6-2.6-0.4-3.7c-0.8,0.3-1.8,0.5-2.8,0.6c-1.1,0.1-2,0.5-2.9,1
	c-0.3,0.3-0.7,0.7-1.4,1.2c-0.7,0.6-1.1,0.9-1.4,1c-0.3,0.1-0.7,0.2-1.2,0.2s-1.2-0.1-2-0.4c-0.3,0-0.7,0.6-1.4,1.6
	c-0.7,1.1-1.5,2.2-2.4,3.3c-0.9,1.1-1.7,1.6-2.2,1.6s-1.1-0.3-1.6-0.8s-1-1.2-1.4-1.8c-0.4-0.7-0.7-1.4-1-2.2
	c-0.3-0.8-0.5-1.4-0.8-1.6c-0.5-1.1-1.5-2.2-3.1-3.5c-1.5-1.2-2.4-2.2-2.6-3c-0.3-0.8-0.7-2.5-1.4-5.1s-1.6-4.3-2.7-5.3
	c-1.1-1-2.7-1.7-4.9-2.2c-0.3-0.3-1.2-0.2-2.6,0.2c-1.5,0.4-2.7,0.5-3.7,0.2c-0.9-0.3-1.4-1-1.4-2c-1.4,1.1-2,1.8-2,2
	c-0.3-2.4-0.9-4.5-2-6.3s-2.9-2.5-5.3-2.2l0.8-7.3c0.5-0.8,2-1.5,4.5-2c2.4-0.5,4.1-1.1,4.9-1.6c0.5,0,2-1.2,4.5-3.7
	c2.4-2.4,3.4-3.8,2.8-4.1c3.8,4.1,9.2,5.1,16.2,3.3c7.9-1.1,13.4-2.3,16.7-3.7c3.3-1.9,5.6-3.4,6.9-4.5c0.3-0.3,0.7-1.1,1.2-2.4
	c0.5-1.4,1-2.6,1.4-3.7c0.3-0.7,0.6-1.2,0.9-1.4c-1,0.4-2.2,1.4-3.5,3c-1.6,1.9-2.7,2.8-3.3,2.8c-5.7,3.5-10.2,4.7-13.4,3.7
	c-4.9-1.1-5.7-2.7-2.4-4.9c0.5-0.3,1.7-0.4,3.4-0.4c1.8,0,3,0,3.9,0c-2.2-0.6-3.9-1.2-5.1-2c-1.2-0.8-1.5-1.8-1-2.8
	c-3.5-2.2-4.2-4.3-2-6.5c3-2.7,6.2-3.8,9.7-3.3c-0.5,0-0.5-0.4,0-1.2l5.7-3.7c0.3-0.3,1.6-0.8,3.9-1.6c2.3-0.8,3.8-1.8,4.7-2.9
	c0.8-0.8,1.2-2.1,1.2-3.9s0.1-3.1,0.2-3.9c0.1-0.8,1-1,2.6-0.4c0.5-1.4,2.4-2.4,5.7-3.3c3.2-0.8,5.4-1.9,6.5-3.3
	c-1.3-1.6-1.2-3.3,0.4-4.9c2.7-2.2,5-2,6.9,0.4c1.1-0.3,1.9-1.3,2.4-3.1c0.5-1.8,1.2-2.9,2-3.5c-1.3-2.4-1.1-4.1,0.8-4.9
	c-0.3,0-0.7-0.3-1.4-0.8s-1.4-1.1-2.2-1.6s-1.3-0.8-1.6-0.8c0.8-1.9,2-2.8,3.6-2.8c-1.3-3.5,0.1-7.3,4.5-11.4
	c0.8-0.8,2.1-1.6,3.9-2.4c1.8-0.8,3.4-1.5,4.9-2s2.4-1,2.6-1.2c2.2-1.9,3.8-3.8,4.9-5.7s1.2-3.9,0.4-5.9c-0.8-2-2.8-3.3-6.1-3.9
	l-0.4-2.9c0-1.6,0-3.4,0-5.3v-2.8c-0.3-1.4-0.4-2.6-0.4-3.9c0-1.2,0-2.7,0-4.5s0.4-2.7,1.2-2.9c0.8-0.1,2,0.1,3.7,0.6
	c1.6,0.8,3.7,5.4,6.1,13.8c0.3,2.2,1.5,4.7,3.7,7.7c1.1-1.1,2-1.8,2.6-2.2c0.7-0.4,1.2-0.5,1.4-0.2c0.3,0.3,0.9,0.8,1.8,1.6
	c1,0.8,1.7,1.4,2.2,1.6c1.1,0.8,2.9,1.4,5.5,1.8c2.6,0.4,4.3,0.9,5.1,1.4c5.2-3.8,8.3-2.8,9.3,2.9c0.3-1.1,0.2-2.5-0.2-4.3
	c-0.4-1.8-0.6-2.8-0.6-3.1c1.4-2.7,3.5-3,6.5-0.8c1.4,1.4,4.3,1.6,8.9,0.6c4.3-0.9,7.2-1.1,8.7-0.7c-0.2-0.1-0.6-0.4-0.9-0.7
	c-0.5-0.5-1-0.8-1.2-0.8c0.3-0.8,0.6-1.4,1-1.8c0.4-0.4,0.8-0.5,1.2-0.4c0.4,0.1,0.9,0.1,1.4,0s1-0.4,1.2-0.6
	c1.1-0.6,2.2-1.6,3.3-3.3c1.1-1.6,2-2.7,2.8-3.3c-1.1-3.3-1.5-5.8-1.4-7.5c0.1-1.8,0.4-4.4,0.8-7.9c0.4-3.5,0.6-6.4,0.6-8.5
	c0-3.3-1-7.1-3-11.6s-4.4-7.7-7.1-9.6c-1.3-0.8-3.9-1.3-7.5-1.4c-3.6-0.1-6.2,0.1-7.5,0.6c-1.4,0.5-2.4,1.3-3.1,2.2
	s-1.2,2.2-1.6,3.9c-0.4,1.6-0.6,2.7-0.6,3.3c-1.6,4.1-4.5,6.1-8.5,6.1c-2.4,0.3-4.2,0.1-5.3-0.6c-1.1-0.7-1.5-1.6-1.4-2.9
	c0.1-1.2,0.5-2.6,1-4.1s1.3-3,2.2-4.7c1-1.6,1.6-3,1.8-4.1c0.6-1.6,1-3.9,1.2-6.9c0.3-3,0.5-4.9,0.8-5.7c-0.5,0-2.2,0-4.9,0
	c0,0.3-0.1,0.9-0.4,1.8c-0.3,1-0.4,1.6-0.4,1.8c-1.1-1.6-2.8-2.6-5.1-2.8c-2.3-0.3-4,0.5-5.1,2.4c-0.5-0.6-1.8-2-3.9-4.5
	c-2-2.4-3.2-4.6-3.5-6.5c0-0.8-0.3-2.2-1-4.1c-0.7-1.9-1-3.3-0.8-4.1c0.1-0.8,1.3-1.2,3.5-1.2c0.6,0,1-0.3,1.2-1
	c0.3-0.7,0.3-1.4,0-2.2s-0.5-1.6-0.8-2.4c-0.3-0.8-1-2.3-2-4.5c-3.8-7-8.9-9.1-15.4-6.1c0-6,1.4-9.2,4.1-9.8
	c1.9-0.5,3.9,0.5,6.1,3.1s2.8,4.7,2,6.3c0.3-1.1,1.1-2,2.4-2.8c1.1,1.4,3,3,5.7,4.9s4.6,3.4,5.7,4.5c0.3,0.8,0.8,1.8,1.6,3.1
	c0.8,1.2,1.8,2.7,2.8,4.5c1.1,1.8,1.9,3.3,2.4,4.7c0.6,1.4,0.6,2.2,0,2.4c4.3-1.6,10.2-0.4,17.5,3.7c1.6,0.8,3.9,3,6.9,6.7
	s6.1,5.2,9.3,4.7c1.1-0.3,2.5-0.7,4.3-1.2c1.8-0.6,3.3-0.8,4.5-0.8s2.9,0.4,5.1,1.2c1.6,0.8,3.9,2.1,6.7,3.9
	c2.8,1.7,4.8,2.9,5.9,3.5c0.6,0.5,1.9,1.3,4.1,2.2c2.2,1,3.9,1.7,5.3,2.2c1.4,0.5,2.6,1.5,3.9,3.1c1.2,1.5,2.1,2.9,2.6,4.3
	c0.5,1.4,1.1,3.9,1.6,7.7s1.3,6.5,2.4,8.1c1.3,2.2,3.2,4.4,5.5,6.5c2.3,2.2,4.4,3.3,6.3,3.3c-1.6,0-1.6,1.4,0,4.1
	c1.6,2.7,3.1,4.7,4.5,6.1c0.5,0.5,1.8,2,3.9,4.3c2,2.3,3.8,4.3,5.3,5.9c1.5,1.6,2.8,3.6,3.9,5.9c1.1,2.3,1.4,4.3,0.8,5.9
	c-0.3,0-0.1,0.3,0.6,0.8s1.5,1,2.4,1.4c1,0.4,1.8,0.8,2.4,1c0.7,0.3,1.3,0.4,1.8,0.4c-0.5-0.8-1-2.4-1.4-4.7c-0.4-2.3-0.9-4-1.4-5.1
	c-0.5-0.8-2.4-3.8-5.7-9c-5.4-9-8-15.6-7.7-19.9c1.3-0.3,2.2,0,2.6,0.8c0.4,0.8,0.7,2,1,3.5s0.5,2.6,0.8,3.5
	c0.5,1.1,2.2,2.4,4.9,3.9c2.7,1.5,4.3,2.9,4.9,4.3c-0.3,0-0.5,0.1-0.8,0.4c-0.3,0.3-0.5,0.4-0.8,0.4c-0.3,1.9,0.8,4.3,3.3,7.3
	c2.4,3,3.4,5,2.9,6.1c1.9,1.4,3.5,3.9,4.7,7.5c1.2,3.7,2.4,6,3.4,7.1c0.3,0.5-27.7,1.3-21.7,9.1c14.3,18.7-3.6,26.1-3.2,26.5
	c0.3,0.3,26-2.8,29.8-17.4c0.4-1.4,0.6-12.7,2.7-11.5c2,1.2,3.3,2,3.9,2.2c0.5,0.3,1.5,1.2,2.8,2.8c6.8,8.4,8.8,12.9,6.1,13.4
	c2.7-0.5,5,1.5,6.9,6.3c1.9,4.7,2.4,8.5,1.6,11.2h0.8c-0.3,1.1-0.4,3.7-0.4,7.7c0,4.1-0.3,7.8-0.8,11.2c-0.5,3.4-1.6,5.1-3.3,5.1
	c1.6,0,2.8,1.4,3.7,4.1c0.8,2.7,0.8,4.6,0,5.7c-0.3,0.8-1.2,0.5-2.8-1s-2.6-2.5-2.8-3c-2.7,1.6-3.8,3.5-3.3,5.7
	c0.5,1.1,2.8,3.3,6.9,6.5c8.9,6.2,13.6,9.2,13.8,9c-1.3,2.2-1.1,4.1,0.8,5.7c2.2-1.4,3.4-1.7,3.7-1c0.3,0.7,0.6,1.9,0.8,3.7
	c0.3,1.7,0.8,2.8,1.6,3c1.1,0.3,2.7,1.9,4,3.3c19.1-31,30.1-67.5,30.1-106.6C459.5,143.6,368.2,52.4,255.7,52.4z M146.4,214.7
	c-0.1,0.7,1.5,7.1-0.2,2.2c-1.7-4.9-3.2,1.9-4.8,2.9c0.2,0.9,0.5,1.8,0.7,2.7c-0.2,0.3-0.5,0.6-0.7,0.9c-3.9,4-11.4,5.5-11.4,5.5
	h-0.6c0,0-0.4-1.9-1.1-1.6c0-1.2-4-1.1-4-4.6c-1.6-1.6-3.2-3.2-4.8-4.8c0.8-2.3,1.7-4.5,2.5-6.8c1.5-0.3,3.1-0.6,4.6-0.9
	c1.2,0,0.1-0.4-0.5-1.1c0.7-0.1,1.5-0.2,2.2-0.4c0-0.4,0-0.9,0-1.3c1,0.5,1.9,1.1,2.9,1.6c0.4-0.1,0.8-0.1,1.2-0.2
	c0-5.4,2.2-6.1,3-7.1c0.9,0.1,1.9,0.2,2.8,0.4c0,0,0.9-0.3,0.9-1.3c0.4,0.1,0.8,0.1,1.2,0.2c0.1,1.3,1.6,2.8,1.5,4.5
	c-0.1,3.4-1.8,7-0.6,7c1.8-0.1,1.9-3.4,3.4-3.8c1.5-0.5,10.3,0,11.4,0.7c1.1,0.7,1.1,2.3,1.6,3.5c0,0.5,0,1,0,1.5
	c-0.5,0.5-1.1,1-1.6,1.5C152.8,216,149.9,211.1,146.4,214.7z M86.4,262.6c-5.9-0.9-7.5-2.3-7.5-8.1c2.6-1,5.2-2,7.8-3
	c-5.4,3.5,0.1-0.1,0.1,0h-0.1c0.1,0,0.1-0.1,0.2-0.1C100.4,242.8,89,262,89,262C88.2,262.1,87.3,262.3,86.4,262.6z"/>
</svg>
