<?xml version="1.0" encoding="utf-8"?>
<!-- Generator: Adobe Illustrator 21.1.0, SVG Export Plug-In . SVG Version: 6.00 Build 0)  -->
<svg version="1.1" id="Layer_1" xmlns="http://www.w3.org/2000/svg" xmlns:xlink="http://www.w3.org/1999/xlink" x="0px" y="0px"
	 viewBox="0 0 512 512" style="enable-background:new 0 0 512 512;" xml:space="preserve">
<path id="_x35_2" d="M485.8,204.4c0-8.4-5.5-15.3-12.9-16.5l-0.5-8.7l40.9-15.5L257.2,83.2L0,161.6l136.1,51.9l-3.9,21.7
	c-1.1,6.4-11.3,63.2-12.2,71.9l0,0.5c-1.3,16.9,15.3,29.3,20.9,33.5c13.3,10,77.2,39.9,113.1,39.9c15.1,0,37.8-5.6,67.4-16.8
	c21.6-8.1,43.7-18.1,52.7-23.8c9.3-5.8,24.8-15.3,23.9-30.6h0c-0.5-8-7.5-45.3-13.4-75.6l-4-20.3l88.7-33.5l-0.3,7.5
	c-7.6,0.9-13.3,8.1-13.3,16.5c0,7.4,4.4,13.5,10.4,15.8L456,382v0.9l4.2,40.8l3.4-17.2l6.8,24.4l15.7-49.2l-11.2-161.6
	C481.2,218.4,486,212.1,485.8,204.4z M348.4,307.8l-0.3,0.2c-12.7,8.1-74.5,33.2-94.2,33.2c-6.9,0-22.8-3.3-46.6-12.7
	c-20.5-8.1-35-15.8-37.5-17.7l-0.1-0.1c-2.1-1.6-3.6-2.9-4.5-3.8c1.2-8,4.1-24.8,7-41.3l81.3,27.3h8.8l82.7-28
	c3.1,16.6,5.9,31.9,7.3,40.4C351.3,306,350,306.8,348.4,307.8z M258.3,217.6l-135.6-51.8l134.4-41l134.7,42.3L258.3,217.6z"/>
</svg>
