<?xml version="1.0" encoding="utf-8"?>
<!-- Generator: Adobe Illustrator 21.1.0, SVG Export Plug-In . SVG Version: 6.00 Build 0)  -->
<svg version="1.1" id="Layer_5" xmlns="http://www.w3.org/2000/svg" xmlns:xlink="http://www.w3.org/1999/xlink" x="0px" y="0px"
	 viewBox="0 0 512 512" style="enable-background:new 0 0 512 512;" xml:space="preserve">
<g>
	<path d="M113,32v80.7H32V32H113 M145,0H0v144.7h145V0L145,0z"/>
	<path d="M480,32v80.7h-81V32H480 M512,0H367v144.7h145V0L512,0z"/>
	<path d="M113,399.3V480H32v-80.7H113 M145,367.3H0V512h145V367.3L145,367.3z"/>
	<path d="M480,399.3V480h-81v-80.7H480 M512,367.3H367V512h145V367.3L512,367.3z"/>
	<path d="M113,214.7v80.7H32v-80.7H113 M145,182.7H0v144.7h145V182.7L145,182.7z"/>
	<path d="M296.5,32v80.7h-81V32H296.5 M328.5,0h-145v144.7h145V0L328.5,0z"/>
	<path d="M296.5,399.3V480h-81v-80.7H296.5 M328.5,367.3h-145V512h145V367.3L328.5,367.3z"/>
	<path d="M296.5,214.7v80.7h-81v-80.7H296.5 M328.5,182.7h-145v144.7h145V182.7L328.5,182.7z"/>
	<path d="M480,214.7v80.7h-81v-80.7H480 M512,182.7H367v144.7h145V182.7L512,182.7z"/>
</g>
</svg>
