<?xml version="1.0" encoding="utf-8"?>
<!-- Generator: Adobe Illustrator 21.1.0, SVG Export Plug-In . SVG Version: 6.00 Build 0)  -->
<svg version="1.1" id="Layer_1" xmlns="http://www.w3.org/2000/svg" xmlns:xlink="http://www.w3.org/1999/xlink" x="0px" y="0px"
	 viewBox="0 0 454.1 512" style="enable-background:new 0 0 454.1 512;" xml:space="preserve">
<g>
	<g>
		<path d="M226,123.5c-72.7,0-131.7,58.9-131.7,131.5s59,131.5,131.7,131.5S357.7,327.6,357.7,255
			C357.7,182.3,298.7,123.5,226,123.5z M226,334.1c-44.2,0-80-35.6-80-79.5s35.8-79.5,80-79.5s80,35.6,80,79.5
			S270.2,334.1,226,334.1z M165.3,129.4c18.4-8.8,39-13.8,60.7-13.8c22.4,0,43.6,5.3,62.4,14.6c0.6-1.1,1-2.4,1.1-3.6
			c0.4-3.9,0.2-7.8-0.6-11.8c-1.5-3.4-5.1-7.1-10.7-11.3c-7.8-5.5-17.8-10.4-30.2-14.6c-0.7-0.2-1.5-0.5-2.2-1.2
			c-0.4-0.4-0.9-1.1-1.5-2c-0.6-0.7-1-1.6-1.1-2.7c-0.1-0.7-0.1-1.8,0-3.1l0.2-1.6l0.4-1.5c0.3-1.1,0.8-2,1.5-2.7
			c8-8.7,12.9-18.9,14.9-30.7c0.7-4.8,0.7-10.5-0.1-17.1l-0.2-0.4c-1.1-2.6-1.8-4.8-2-6.7c-3.4-8.5-10-14.3-19.8-17.4
			c-10.8-3.2-20.6-2.1-29.4,3.3c-6.3,3.9-10.7,9.4-13.1,16.6c-3,8.5-3,17.9-0.2,28.1c2.7,9.8,7.5,18.2,14.3,25.4
			c2.4,4.5,2,8.4-1.3,11.7c-0.8,0.7-1.9,1.4-3.3,2l-1.8,0.7l-1.8,0.6c-12,4.8-21.6,10.1-28.7,15.7c-3.8,3.3-6.3,6.4-7.6,9.4
			c-0.7,1.4-1.1,3.1-1.1,4.9v2.6l0.1,2.5C164.5,126.9,164.8,128.2,165.3,129.4z M365.3,246.1c1.8,0.2,3.6,0,5.3-0.7
			c3.6-1.6,6.9-3.7,9.9-6.4c2.2-3,3.7-8,4.5-14.9c0.9-9.5,0.1-20.6-2.4-33.4c-0.2-0.7-0.2-1.6,0-2.5c0.2-0.6,0.5-1.3,0.9-2.3
			c0.4-0.9,0.9-1.6,1.8-2.4c0.6-0.4,1.5-0.9,2.7-1.5l1.5-0.6l1.5-0.4c1.1-0.3,2.2-0.3,3.1,0c11.5,2.6,22.8,1.7,34.1-2.5
			c4.5-1.7,9.4-4.6,14.7-8.7l0.3-0.3c1.7-2.2,3.3-3.9,4.8-5.1c5.7-7.2,7.4-15.8,5.2-25.8c-2.6-10.9-8.5-18.8-17.6-23.8
			c-6.6-3.5-13.5-4.5-21-3c-8.8,1.7-17,6.4-24.5,13.9c-7.1,7.2-12,15.6-14.9,25.1c-2.6,4.4-6.2,5.9-10.7,4.7c-1-0.3-2.1-0.9-3.4-1.8
			l-1.5-1.2l-1.5-1.2c-10.1-8-19.5-13.6-28-16.9c-4.8-1.6-8.8-2.3-12-1.9c-1.6,0.1-3.2,0.6-4.9,1.5l-2.2,1.3l-2.1,1.3
			c-1.5,1-2.8,2.2-3.7,3.7C339.4,163.9,362.5,202.3,365.3,246.1z M445.8,346.1c-5.9-6.8-14-11.5-24.3-14.2
			c-9.8-2.5-19.5-2.6-29.2-0.3c-5.1-0.1-8.2-2.4-9.4-6.9c-0.3-1-0.3-2.3-0.1-3.8l0.2-1.9l0.4-1.8c1.8-12.8,2.1-23.7,0.7-32.7
			c-0.9-4.9-2.4-8.7-4.3-11.3c-0.9-1.3-2.1-2.4-3.7-3.5l-2.3-1.3l-2.2-1.1c-2.1-1-4.2-1.5-6.4-1.3c-3.4,43.4-26.6,81.2-60.6,104.3
			c0.7,1.9,1.9,3.5,3.5,4.7c3.1,2.3,6.6,4.1,10.5,5.3c3.7,0.4,8.7-0.8,15.1-3.6c8.7-4,17.9-10.2,27.8-18.8c0.6-0.6,1.3-1,2.2-1.3
			c0.6-0.2,1.4-0.2,2.5-0.3c0.9-0.2,1.9,0,2.9,0.4c0.7,0.3,1.6,0.8,2.7,1.5l1.3,1l1.1,1.1c0.8,0.9,1.4,1.8,1.6,2.7
			c3.5,11.2,9.9,20.6,19.2,28.2c3.8,3.1,8.7,5.8,14.9,8.4l0.4,0.1c2.8,0.3,5,0.9,6.8,1.6c9.1,1.3,17.4-1.5,24.9-8.4
			c8.2-7.7,12.1-16.7,11.8-27.1C453.5,358.3,450.9,351.8,445.8,346.1z M287.2,380.3c-18.5,9-39.3,14.1-61.3,14.1
			c-21.3,0-41.6-4.8-59.7-13.3c-0.9,1.4-1.5,2.9-1.7,4.6c-0.4,3.9-0.2,7.8,0.6,11.8c1.5,3.4,5.1,7.1,10.6,11.3
			c7.8,5.5,17.8,10.4,30.2,14.6c0.7,0.2,1.5,0.6,2.1,1.2c0.4,0.4,0.9,1.1,1.5,2c0.6,0.7,1,1.6,1.1,2.7c0.1,0.7,0.1,1.8,0,3.1
			l-0.3,1.6l-0.4,1.5c-0.4,1.1-0.9,2.1-1.5,2.7c-7.9,8.7-12.9,18.9-14.8,30.7c-0.7,4.8-0.7,10.5,0.2,17.1l0.1,0.4
			c1.1,2.6,1.8,4.8,2,6.7c3.4,8.5,10,14.3,19.8,17.3c10.7,3.2,20.5,2.1,29.4-3.3c6.3-3.9,10.7-9.4,13-16.6c3-8.5,3-17.9,0.2-28.1
			c-2.7-9.7-7.5-18.2-14.3-25.4c-2.4-4.5-2-8.4,1.3-11.7c0.7-0.7,1.8-1.4,3.3-2l1.8-0.7l1.8-0.6c12-4.8,21.5-10.1,28.6-15.7
			c3.8-3.3,6.3-6.4,7.6-9.4c0.7-1.4,1.1-3,1.1-4.9v-2.6l-0.1-2.5C289.2,384.3,288.5,382.1,287.2,380.3z M8.1,166
			c5.9,6.8,14,11.5,24.3,14.2c9.8,2.6,19.5,2.6,29.2,0.3c5.1,0.1,8.3,2.4,9.5,6.9c0.3,1,0.3,2.3,0.1,3.8l-0.2,1.9l-0.4,1.8
			c-1.8,12.8-2.1,23.7-0.7,32.7c1,4.9,2.4,8.7,4.4,11.3c0.9,1.3,2.1,2.4,3.7,3.5l2.2,1.3l2.2,1.1c1.4,0.7,2.8,1.1,4.2,1.3
			c2.8-44.4,26.4-83.2,61.3-106.7c-0.6-0.8-1.3-1.5-2-2c-3.2-2.3-6.7-4.1-10.5-5.3c-3.7-0.4-8.7,0.8-15.1,3.6
			c-8.7,4-17.9,10.2-27.8,18.8c-0.5,0.5-1.2,1-2.1,1.2c-0.6,0.2-1.4,0.3-2.5,0.3c-0.9,0.2-1.9,0-2.9-0.4c-0.7-0.3-1.6-0.8-2.7-1.6
			l-1.3-1l-1.1-1.1c-0.8-0.9-1.3-1.8-1.6-2.7C74.7,138,68.3,128.6,59,121c-3.8-3.1-8.7-5.8-14.9-8.4l-0.4-0.1
			c-2.8-0.3-5.1-0.9-6.8-1.6c-9-1.3-17.4,1.5-24.9,8.4C3.9,127-0.1,136,0.2,146.4C0.5,153.8,3.1,160.3,8.1,166z M86.8,266
			c-1.1,0.1-2.3,0.4-3.3,0.8c-3.6,1.6-6.9,3.7-9.9,6.4c-2.2,3-3.7,8-4.4,14.8c-0.9,9.5-0.1,20.6,2.4,33.4c0.2,0.7,0.2,1.6,0,2.5
			c-0.2,0.6-0.5,1.3-1,2.3c-0.4,0.9-0.9,1.6-1.8,2.4c-0.6,0.4-1.5,0.9-2.7,1.5l-1.5,0.6l-1.5,0.4c-1.2,0.3-2.2,0.3-3.1,0
			c-11.5-2.5-22.8-1.7-34.1,2.6c-4.5,1.7-9.4,4.6-14.7,8.7l-0.3,0.3c-1.7,2.2-3.3,3.9-4.8,5.1C0.4,355-1.3,363.5,1,373.6
			c2.6,10.9,8.4,18.8,17.6,23.7c6.5,3.5,13.5,4.6,20.9,3c8.9-1.7,17-6.4,24.5-13.9c7.1-7.2,12.1-15.6,14.9-25.1
			c2.6-4.4,6.2-5.9,10.7-4.7c1,0.3,2.1,0.9,3.3,1.8l1.5,1.2l1.4,1.2c10.1,8,19.5,13.6,28,16.9c4.8,1.6,8.8,2.2,12,1.8
			c1.5-0.1,3.1-0.6,4.8-1.5l2.3-1.3l2.1-1.4c1.7-1.1,3-2.5,4-4.1C114.1,348.1,90.3,309.9,86.8,266z"/>
	</g>
</g>
</svg>
