<?xml version="1.0" encoding="utf-8"?>
<!-- Generator: Adobe Illustrator 21.1.0, SVG Export Plug-In . SVG Version: 6.00 Build 0)  -->
<svg version="1.1" id="_x35_2" xmlns="http://www.w3.org/2000/svg" xmlns:xlink="http://www.w3.org/1999/xlink" x="0px" y="0px"
	 viewBox="0 0 640 512" style="enable-background:new 0 0 640 512;" xml:space="preserve">
<g id="h2_1_">
	<g>
		<path d="M620,375.8V416H422.4c-1.2-10.5-1.7-21-1.7-26.2c0-19.6,4.4-38.2,13-55.4c17.8-35.4,49.3-55.9,66.3-66.9l1.1-0.7
			c2.3-1.5,4.3-2.8,6.1-4.1c13.4-8.9,26.2-19.3,38.2-30.7c12.7-12.1,19.7-27.6,19.9-43.7c0.1-13.8-4.9-26.4-14.2-35.6l-0.1-0.1
			c-8.4-8.1-24.2-15.7-43.5-12.5c-12.7,2.1-28.7,9.6-45.2,32.4l-35.7-25.1c11.2-14.1,22.6-24.6,37-34c17.2-11.5,37.2-17.3,59.5-17.3
			c26.9,0,49.4,8.1,68.6,24.8c18.2,15.8,26.7,36.2,26.7,64.4c0,18.8-7.1,35.6-18.2,52c-22.8,33.6-70.3,62-85.5,74.7
			c-18,14.5-37.2,33.8-38.4,50.1l-0.3,13.9H620z"/>
	</g>
	<path d="M278.6,382.6c-1-4.4-1.5-12.6-1.5-24.6v-203H277c0-8.4,0.2-14.6,0.6-18.6s1.2-7.7,2.5-10.9c1.3-3.3,3.5-6,6.6-8
		c3.1-2.1,8.1-4.1,14.9-6V96H200.1v15.4c8.4,2.4,14.1,4.9,17.1,7.8c3,2.9,5,6.6,6.1,11.2c1,4.6,1.5,12.8,1.5,24.6v80.3H99.5v-80.4
		c0-12,0.6-20.2,1.9-24.8c1.2-4.6,3.4-8.3,6.4-11.1c3-2.8,8.6-5.3,16.9-7.7V96H22.4v15.4c5.9,1.6,10.5,3.3,13.9,5.2
		c3.4,1.9,5.8,4.5,7.5,7.6c1.6,3.1,2.6,7.1,3,12.1c0.4,5,0.6,11.1,0.6,18.4V358c0,7.5-0.2,13.6-0.7,18.5c-0.5,4.9-1.5,8.9-3.2,12.1
		c-1.6,3.2-4.1,5.7-7.5,7.5c-3.4,1.8-7.9,3.5-13.6,5v15.4h102.3v-15.4c-4.5-1.1-8.3-2.4-11.4-3.9c-3.1-1.5-5.5-3.2-7.3-5.2
		c-1.8-2-3.2-4.5-4.1-7.5c-0.9-2.9-1.6-6.8-1.9-11.4s-0.5-9.7-0.5-15.2v-93.4h125.4V358c0,13.2-0.6,21.9-1.6,26.2
		c-1.1,4.3-3,7.6-5.6,9.9c-2.7,2.4-8.4,4.7-17.5,7v15.4h101.5v-15.4c-8.3-2-13.9-4.5-17-7.5C281.6,390.7,279.6,387,278.6,382.6z"/>
</g>
</svg>
