<?xml version="1.0" encoding="utf-8"?>
<!-- Generator: Adobe Illustrator 21.1.0, SVG Export Plug-In . SVG Version: 6.00 Build 0)  -->
<svg version="1.1" id="_x35_2" xmlns="http://www.w3.org/2000/svg" xmlns:xlink="http://www.w3.org/1999/xlink" x="0px" y="0px"
	 viewBox="0 0 640 512" style="enable-background:new 0 0 640 512;" xml:space="preserve">
<g id="h3_2_">
	<path d="M278.6,382.6c-1-4.4-1.5-12.6-1.5-24.6v-203H277c0-8.4,0.2-14.6,0.6-18.6s1.2-7.7,2.5-10.9c1.3-3.3,3.5-6,6.6-8
		c3.1-2.1,8.1-4.1,14.9-6V96H200.1v15.4c8.4,2.4,14.1,4.9,17.1,7.8c3,2.9,5,6.6,6.1,11.2c1,4.6,1.5,12.8,1.5,24.6v80.3H99.5v-80.4
		c0-12,0.6-20.2,1.9-24.8c1.2-4.6,3.4-8.3,6.4-11.1c3-2.8,8.6-5.3,16.9-7.7V96H22.4v15.4c5.9,1.6,10.5,3.3,13.9,5.2
		c3.4,1.9,5.8,4.5,7.5,7.6c1.6,3.1,2.6,7.1,3,12.1c0.4,5,0.6,11.1,0.6,18.4V358c0,7.5-0.2,13.6-0.7,18.5c-0.5,4.9-1.5,8.9-3.2,12.1
		c-1.6,3.2-4.1,5.7-7.5,7.5c-3.4,1.8-7.9,3.5-13.6,5v15.4h102.3v-15.4c-4.5-1.1-8.3-2.4-11.4-3.9c-3.1-1.5-5.5-3.2-7.3-5.2
		c-1.8-2-3.2-4.5-4.1-7.5c-0.9-2.9-1.6-6.8-1.9-11.4s-0.5-9.7-0.5-15.2v-93.4h125.4V358c0,13.2-0.6,21.9-1.6,26.2
		c-1.1,4.3-3,7.6-5.6,9.9c-2.7,2.4-8.4,4.7-17.5,7v15.4h101.5v-15.4c-8.3-2-13.9-4.5-17-7.5C281.6,390.7,279.6,387,278.6,382.6z"/>
	<path d="M620,311.8c0,33.5-10.4,58.8-31.9,77.2c-21.7,18.6-49.4,27.9-82.2,27.5c-40.7,0-74.5-12.3-100.8-36.7l28.8-44.3
		c20.3,16.9,42.3,25.5,65.6,25.5c13.6,0,26-3.5,36.8-10.4l0.2-0.1c11.8-8.1,17.8-20,17.8-35.4c0-12.6-4-22.7-11.8-30.2
		c-11.7-11.2-31.2-15.6-59.5-13.6l-11.9-27.3c10.1-12.8,45.1-56.2,69.2-86l10.5-13H411.7V96h198.2v47.7l-66.9,83.8l11.8,2.9
		c20,4.9,36,14.8,47.5,29.3l0.1,0.1C614.3,274.3,620,291.3,620,311.8z"/>
</g>
</svg>
