<?xml version="1.0" encoding="utf-8"?>
<!-- Generator: Adobe Illustrator 21.1.0, SVG Export Plug-In . SVG Version: 6.00 Build 0)  -->
<svg version="1.1" id="_x35_2" xmlns="http://www.w3.org/2000/svg" xmlns:xlink="http://www.w3.org/1999/xlink" x="0px" y="0px"
	 viewBox="0 0 640 512" style="enable-background:new 0 0 640 512;" xml:space="preserve">
<g id="h5_2_">
	<path d="M620.1,306.7c0,89.8-55,109.8-98.2,109.8c-66.5,0-94.1-45.7-94.1-71.6h60.7c1.7,3.5,6.9,19.4,33.5,19.4
		c26.9,0,40.2-16.2,40.2-57.6c0-18.5-5.2-57.1-38.8-57.1c-30.5,0-36.3,19.6-38.4,25.9h-53.1V96H613v52.2H484.4v68.3
		c4.2-4.2,16.3-16.1,47.8-16.1C594.6,200.5,620.1,240.8,620.1,306.7z"/>
	<path d="M278.6,382.6c-1-4.4-1.5-12.6-1.5-24.6v-203H277c0-8.4,0.2-14.6,0.6-18.6s1.2-7.7,2.5-10.9c1.3-3.3,3.5-6,6.6-8
		c3.1-2.1,8.1-4.1,14.9-6V96H200.1v15.4c8.4,2.4,14.1,4.9,17.1,7.8c3,2.9,5,6.6,6.1,11.2c1,4.6,1.5,12.8,1.5,24.6v80.3H99.5v-80.4
		c0-12,0.6-20.2,1.9-24.8c1.2-4.6,3.4-8.3,6.4-11.1c3-2.8,8.6-5.3,16.9-7.7V96H22.4v15.4c5.9,1.6,10.5,3.3,13.9,5.2
		c3.4,1.9,5.8,4.5,7.5,7.6c1.6,3.1,2.6,7.1,3,12.1c0.4,5,0.6,11.1,0.6,18.4V358c0,7.5-0.2,13.6-0.7,18.5c-0.5,4.9-1.5,8.9-3.2,12.1
		c-1.6,3.2-4.1,5.7-7.5,7.5c-3.4,1.8-7.9,3.5-13.6,5v15.4h102.3v-15.4c-4.5-1.1-8.3-2.4-11.4-3.9c-3.1-1.5-5.5-3.2-7.3-5.2
		c-1.8-2-3.2-4.5-4.1-7.5c-0.9-2.9-1.6-6.8-1.9-11.4s-0.5-9.7-0.5-15.2v-93.4h125.4V358c0,13.2-0.6,21.9-1.6,26.2
		c-1.1,4.3-3,7.6-5.6,9.9c-2.7,2.4-8.4,4.7-17.5,7v15.4h101.5v-15.4c-8.3-2-13.9-4.5-17-7.5C281.6,390.7,279.6,387,278.6,382.6z"/>
</g>
</svg>
