<?xml version="1.0" encoding="utf-8"?>
<!-- Generator: Adobe Illustrator 21.1.0, SVG Export Plug-In . SVG Version: 6.00 Build 0)  -->
<svg version="1.1" id="Layer_1" xmlns="http://www.w3.org/2000/svg" xmlns:xlink="http://www.w3.org/1999/xlink" x="0px" y="0px"
	 viewBox="0 0 550.2 512.6" style="enable-background:new 0 0 550.2 512.6;" xml:space="preserve">
<g id="_x35_2_1_">
	<path d="M503.4,79.4c-15.1-8.3-27.7-14.2-69.6-14.2c-98.7,0-176.1,28.2-243.9,28.2c-11.7,0-23-0.9-34.2-2.8l0,0
		c-0.4,0-4.5-0.2-16.4-8.9v147.8c0,0,7.7-7.9,17.8-7.9c6.4-0.2,12.6-0.3,18.7-0.3c75.5,0,127.8,14.9,127.8,14.9
		c23.6,4.9,37.1,15.1,44,45.6c1.4,6.5,2.4,14,2.9,22.2c-4.8,1-8.3,5.2-8.3,10.3l0.1,33.4c0,4.6,2.9,8.5,7.1,9.9
		c-3,33.5-9.8,67.8-18,90.1c-6.1,16.9,56.9,24.6,86,24.6c12.6,0,22.6-1.4,25-4.1c16-32.7,17.9-107.9,11.2-158.4
		c-3.3-25.5-9.3-55.7,34.8-68.8c35.8-11.2,61.7-44.6,61.7-84C550,123.4,532.5,95.6,503.4,79.4z M499.6,185
		c-5.8,7.8-14.1,13.7-23.2,16.6c-63.3,18.9-64.7,64.5-64.4,102.2l3.3,53c-0.1-2,1,41.3-1.5,76.7c-0.4,5.2-39.3,0.5-39.3,0.5
		c22.6-70.8,16.7-138.6,13.4-161l0,0l0,0c-9.7-43.3-33.4-67.8-74.5-76.8c-9.6-2.6-61.2-15.5-132.7-16.1v-45.6c3,0.1,6.1,0.2,9.2,0.2
		c34.3,0,69.2-6.2,106.3-12.8c42.8-7.6,87.2-15.5,137.6-15.5c15.9,0,27.4,0.9,35.1,2.8c5.2,1.3,8.6,2.9,14.4,6.2
		c11.6,6.4,25.4,18.9,25.5,41.6C508.8,167.3,505.6,176.9,499.6,185z"/>
	<path d="M461,116c-22.3,0-40.6,18.1-40.6,40.6s18.1,40.6,40.6,40.6s40.7-18.1,40.6-40.6C501.6,134.1,483.4,116,461,116z
		 M443.2,133.2h35.4c2.2,0.2,4.1,1.9,4.1,4.1s-1.7,4.1-4.1,4.1h-35.4c-2.2,0-4.1-1.7-4.1-4.1C439.2,135,441,133.2,443.2,133.2z
		 M478.7,179.9h-35.4c-2.2,0-4.1-1.7-4.1-4.1c0-2.3,1.7-4.1,4.1-4.1h35.4c2.2,0.1,4.1,1.9,4.1,4.1
		C482.7,178.1,481,179.9,478.7,179.9z M484.5,160.3h-47.1c-2.2,0-4.1-1.7-4.1-4.1c0-2.2,1.7-4.1,4.1-4.1h47.1c2.1,0,4.1,1.8,4.1,4.1
		C488.5,158.5,486.8,160.3,484.5,160.3z"/>
	<path d="M81.1,200.7c-1.6-2.9-5.2-4.1-8.2-2.7c-3.8,1.7-8.9,3.7-12.8,3.7c-10.6,0-12.1-7.8-27-7.8c-7.8,0-17.8,4.5-22.7,7.3
		c-3.2,1.8-4.2,6-2.2,9.1l0.6,1c1.9,2.9,5.7,3.8,8.7,2c3.8-2.3,11.6-6.2,15.6-6.2c10.3,0,13.4,7.8,27,7.8c6.2,0,13.3-2.8,18.2-5.1
		C81.7,208,82.9,203.9,81.1,200.7L81.1,200.7z"/>
	<path d="M9.6,112.1c2,3.5,6.4,4.7,9.9,2.6c3.9-2.4,9.1-4.8,13.6-4.8c9.1,0,13.7,7.8,27,7.8c6,0,12.9-2.5,17.7-4.8
		c3.7-1.7,5.2-6,3.4-9.6l0,0c-1.7-3.4-5.7-4.9-9.2-3.4c-3.7,1.5-8.3,3.1-11.8,3.1c-10.5,0-13.4-7.8-27-7.8c-7.3,0-15.6,3.7-21.1,6.8
		c-3.5,1.9-4.7,6.3-2.8,9.8L9.6,112.1z"/>
	<path d="M91.5,151c-1.7-3.3-5.9-4.6-9.3-3c-4.6,2.2-11.1,4.8-16.4,4.8c-14.2,0.1-16.1-9.6-35.4-9.6c-10.2,0-21.5,5.2-26.9,8.3
		c-3.4,2.1-4.5,6.5-2.3,9.9l0,0c2.1,3.2,6.2,4.1,9.4,2.2c4.3-2.5,13.3-6.6,20.4-6.6c14.7,0,15.7,9.7,35.4,9.7
		c8.3,0,16.5-2.9,21.9-5.3c3.7-1.7,5.2-6.1,3.3-9.7L91.5,151z"/>
	<path d="M115.4,81.7L115.4,81.7c6.8,0,12.2,0,12.2,0v147.8c0,0-5.6,0-12.2,0l0,0c-6.8,0-12.2-5.6-12.2-12.2V94.1
		C103,87.2,108.6,81.7,115.4,81.7z"/>
</g>
</svg>
