<?xml version="1.0" encoding="utf-8"?>
<!-- Generator: Adobe Illustrator 21.1.0, SVG Export Plug-In . SVG Version: 6.00 Build 0)  -->
<svg version="1.1" id="Layer_1" xmlns="http://www.w3.org/2000/svg" xmlns:xlink="http://www.w3.org/1999/xlink" x="0px" y="0px"
	 viewBox="0 0 211.4 512.6" style="enable-background:new 0 0 211.4 512.6;" xml:space="preserve">
<g>
	<circle cx="85.9" cy="43.1" r="6.5"/>
	<circle cx="125.9" cy="43.1" r="6.5"/>
	<circle cx="85.9" cy="66.7" r="6.5"/>
	<circle cx="125.9" cy="66.7" r="6.5"/>
	<circle cx="85.9" cy="90.3" r="6.5"/>
	<circle cx="125.9" cy="90.3" r="6.5"/>
	<circle cx="85.9" cy="113.9" r="6.5"/>
	<circle cx="125.9" cy="113.9" r="6.5"/>
	<circle cx="85.9" cy="137.4" r="6.5"/>
	<circle cx="125.9" cy="137.4" r="6.5"/>
	<circle cx="85.9" cy="160" r="6.5"/>
	<circle cx="125.9" cy="160" r="6.5"/>
	<path d="M85.9,178.1c3.6,0,6.5,2.9,6.5,6.5s-2.9,5.5-6.5,5.5s-6.5-1.9-6.5-5.5S82.3,178.1,85.9,178.1z"/>
	<path d="M125.9,178.1c3.6,0,6.5,2.9,6.5,6.5s-2.9,5.5-6.5,5.5s-6.5-1.9-6.5-5.5S122.3,178.1,125.9,178.1z"/>
	<circle cx="85.9" cy="209.2" r="6.5"/>
	<circle cx="125.9" cy="209.2" r="6.5"/>
	<circle cx="85.9" cy="233.6" r="6.5"/>
	<circle cx="125.9" cy="233.6" r="6.5"/>
	<path d="M205.1,118.5c3.5,0,6.4-2.9,6.4-6.4s-2.9-6.4-6.4-6.4h-9.6V92.6h9.6c3.5,0,6.4-2.9,6.4-6.4s-2.9-6.4-6.4-6.4h-9.6V67h9.5
		c3.5,0,6.4-2.9,6.4-6.4s-2.9-6.4-6.4-6.4h-9.6l0-12.8h9.6c3.5,0,6.4-2.9,6.4-6.4s-2.9-6.4-6.4-6.4h-9.6l0-1.4
		c0-14.4-11.5-26.3-25.7-27.1c-0.5,0-0.9,0-1.4,0H43C28,0,15.9,12.2,15.9,27.1v1.4H6.4c-3.5,0-6.4,2.9-6.4,6.4s2.9,6.4,6.4,6.4h9.5
		v12.8H6.4C2.9,54.2,0,57,0,60.6C0,64.1,2.9,67,6.4,67h9.5v12.8H6.4c-3.5,0-6.4,2.9-6.4,6.4s2.9,6.4,6.4,6.4h9.5v12.8H6.4
		c-3.5,0-6.4,2.9-6.4,6.4s2.9,6.4,6.4,6.4h9.5V131H6.4c-3.5,0-6.4,2.9-6.4,6.4s2.9,6.4,6.4,6.4h9.5v12.8H6.4c-3.5,0-6.4,2.9-6.4,6.4
		s2.9,6.4,6.4,6.4h9.5v12.8H6.4c-3.5,0-6.4,2.9-6.4,6.4s2.9,6.4,6.4,6.4h9.5v13H6.4c-3.5,0-6.4,2.9-6.4,6.4s2.9,6.4,6.4,6.4h9.5
		v12.8H6.4c-3.5,0-6.4,2.9-6.4,6.4s2.9,6.4,6.4,6.4h9.5v1.4c0,14.6,11.4,26.4,25.7,27.2c0.5,0,0.9,0,1.4,0h26.2h0v26.3H68
		c-1,0-2,0.2-2.8,0.7c-0.1,0-0.2,0.1-0.2,0.1c0,0,0,0,0,0c-0.5,0.3-1,0.7-1.4,1.1c-1.2,1.2-1.9,2.8-1.9,4.5v160
		c0,22.7,18.3,43,40.8,44.7c0.3,0,0.5,0,0.8,0.1c0,0,0.1,0,0.1,0c0.5,0,1.1,0,1.6,0c0.2,0,0.5,0,0.7,0c0.5,0,1,0,1.5,0
		c1.7-0.1,3.4-0.2,5-0.4c0.1,0,0.2,0,0.3,0c0.6-0.1,1.2-0.2,1.8-0.3c0.1,0,0.3,0,0.4-0.1c0.6-0.1,1.2-0.3,1.7-0.4
		c0.1,0,0.3-0.1,0.4-0.1c0.6-0.1,1.1-0.3,1.7-0.5c0.1,0,0.3-0.1,0.4-0.1c0.6-0.2,1.1-0.4,1.7-0.6c0.1,0,0.3-0.1,0.4-0.1
		c0.6-0.2,1.1-0.4,1.7-0.7c0.1,0,0.2-0.1,0.4-0.1c0.6-0.2,1.1-0.5,1.6-0.7c0.1-0.1,0.2-0.1,0.3-0.2c0.5-0.3,1.1-0.5,1.6-0.8
		c0.1-0.1,0.2-0.1,0.3-0.2c0.5-0.3,1.1-0.6,1.6-0.9c0.1-0.1,0.2-0.1,0.3-0.2c0.5-0.3,1-0.7,1.6-1c0.1-0.1,0.2-0.1,0.2-0.2
		c0.5-0.4,1-0.7,1.5-1.1c0.1,0,0.1-0.1,0.2-0.1c0.5-0.4,1-0.8,1.5-1.2c0.1,0,0.1-0.1,0.2-0.1c0.5-0.4,1-0.8,1.5-1.3
		c0,0,0.1-0.1,0.1-0.1c0.5-0.4,0.9-0.9,1.4-1.3c0,0,0.1-0.1,0.1-0.1c0.5-0.5,0.9-0.9,1.4-1.4c0,0,0.1-0.1,0.1-0.1
		c0.5-0.5,0.9-1,1.3-1.5c0,0,0,0,0-0.1c0.4-0.5,0.9-1.1,1.3-1.6c0,0,0,0,0,0c5.5-7.4,8.8-16.5,8.8-26.3V307.8c0-3.5-2.9-6.4-6.4-6.4
		h0h-1.2v0V275h26.2c14.9,0,27.1-12.2,27.1-27.1l0-1.4h9.6c3.5,0,6.4-2.9,6.4-6.4s-2.9-6.4-6.4-6.4h-9.6l0-12.8h9.6
		c3.5,0,6.4-2.9,6.4-6.4s-2.9-6.4-6.4-6.4h-9.6v-12.8h9.6c3.5,0,6.4-2.9,6.4-6.4s-2.9-6.4-6.4-6.4h-9.6v-12.8h9.6
		c3.5,0,6.4-2.9,6.4-6.4s-2.9-6.4-6.4-6.4h-9.6v-12.8h9.6c3.5,0,6.4-2.9,6.4-6.4s-2.9-6.4-6.4-6.4h-9.6v-12.8H205.1z M105.6,480.8
		c-6.9,0-12.4-5.6-12.4-12.4V332.5H118l0,135.8C118,475.2,112.5,480.8,105.6,480.8z M119.3,301.3L119.3,301.3l-27.3,0v0V275h27.3
		V301.3z M163.4,54.1h-15.7V67h15.7v12.8h-15.7v12.8h15.7v12.8h-15.7v12.8h15.7V131h-15.7v12.8h15.7v12.8h-15.7v12.8h15.7v12.8
		h-15.7V195h15.7v13h-15.7v12.8h15.7v9.3c0,1.2-0.2,2.4-0.5,3.5h-15.2v8.5h-84v-8.5H48.4c-0.3-1.1-0.5-2.3-0.5-3.5v-9.3h15.7V208H48
		v-12.8h15.7v-12.8H48v-12.8h15.7v-12.8H48V144h15.7v-12.8H48v-12.8h15.7v-12.8H48V92.7h15.7V79.8H48V67h15.7V54.2H48v-9.4
		c0-1.2,0.2-2.3,0.4-3.4h15.3v-8.6h84v8.5h15.2c0.3,1.1,0.5,2.3,0.5,3.5V54.1z"/>
</g>
</svg>
