<?xml version="1.0" encoding="utf-8"?>
<!-- Generator: Adobe Illustrator 21.1.0, SVG Export Plug-In . SVG Version: 6.00 Build 0)  -->
<svg version="1.1" id="Layer_1" xmlns="http://www.w3.org/2000/svg" xmlns:xlink="http://www.w3.org/1999/xlink" x="0px" y="0px"
	 viewBox="0 0 269.9 512" style="enable-background:new 0 0 269.9 512;" xml:space="preserve">
<path d="M180.1,152.6l-44.5,38.3l-42.7-38.3H93H180.1 M250.9,0h-2.7v100.6h-0.8V0h-6v100.6h-0.8V0h-6v100.6h-0.8V0h-6v100.6H227V0
	h-6v100.6h-0.8V0h-6v100.6h-0.8V0h-6v100.6h-0.8V0h-6v100.6h-0.8V0h-6v100.6H193V0h-6v100.6h-1V0h-6v100.6h-0.8V0h-6v100.6h-0.8V0
	h-6v100.6h-0.8V0h-6v100.6h-0.8V0h-6v100.6H152V0h-6v100.6h-1V0h-6v100.6h-0.8V0h-6v100.6h-0.8V0h-6v100.6h-0.8V0h-6v100.6h-0.8V0
	h-6v100.6H111V0h-6v100.6h-1V0h-6v100.6h-0.8V0h-6v100.6h-0.8V0h-6v100.6h-0.8V0h-6v100.6h-0.8V0h-6v100.6H70V0h-6v100.6h-0.8V0h-6
	v100.6h-0.8V0h-6v100.6h-0.8V0h-6v100.6h-0.8V0h-6v100.6H36V0h-6v100.6h-1V0h-6v100.6h-0.8V0H19v102.4H0V131
	c0,13.7,7.2,26.3,19,33.3l16.1,9.6c7.1,4.2,13.8,9.1,20,14.7l48.6,43.5l7.3,256.6c0.3,13,10.9,23.3,23.9,23.3s23.6-10.3,23.9-23.3
	l7.3-255.5L221,186c4.5-3.8,9.2-7.4,14.1-10.5l17-11c11.1-7.1,17.8-19.4,17.8-32.6v-29.6h-19v0.1v-0.1V0L250.9,0z"/>
</svg>
