<?xml version="1.0" encoding="utf-8"?>
<!-- Generator: Adobe Illustrator 21.1.0, SVG Export Plug-In . SVG Version: 6.00 Build 0)  -->
<svg version="1.1" id="Layer_3" xmlns="http://www.w3.org/2000/svg" xmlns:xlink="http://www.w3.org/1999/xlink" x="0px" y="0px"
	 viewBox="0 0 445 512" style="enable-background:new 0 0 445 512;" xml:space="preserve">
<g>
	<path d="M222.3,53.3c57.1,0,101.7,20.1,132.4,59.7c28.3,36.5,38.3,81.1,38.3,110.6v184.8c-11.2-8.2-25.3-14-43.3-14
		c-31.8,0-51.4,17.9-63.8,35.6c-12.4-17.7-31.9-35.6-63.6-35.6c-31.3,0-50.8,17.5-63.3,35.1c-12.4-17.6-32-35.1-63.7-35.1
		c-18.1,0-32.2,5.7-43.3,13.8V223.6c0-29.7,10-74.3,38.2-110.8C120.7,73.3,165.2,53.3,222.3,53.3 M222.3,1.3C56.6,1.3,0,140,0,223.6
		s0,222.8,0,222.8c0,2.4-1,63.3,31.6,63.3c32.6,0,31.4-63.3,63.7-63.3s30.7,63.3,63.7,63.3c32,0,32-63.3,63.3-63.3
		c31.3,0,30.7,63.3,63.7,63.3c33,0,32-63.3,63.7-63.3s32.3,63.3,63.7,63.3c31.4,0,31.6-60.9,31.6-63.3c0,0,0-139.4,0-222.8
		S388,1.3,222.3,1.3L222.3,1.3z"/>
	<circle cx="135" cy="177" r="48"/>
	<circle cx="311" cy="177" r="48"/>
</g>
</svg>
