<?xml version="1.0" encoding="utf-8"?>
<!-- Generator: Adobe Illustrator 21.1.0, SVG Export Plug-In . SVG Version: 6.00 Build 0)  -->
<svg version="1.1" id="Layer_1" xmlns="http://www.w3.org/2000/svg" xmlns:xlink="http://www.w3.org/1999/xlink" x="0px" y="0px"
	 viewBox="0 0 535 512" style="enable-background:new 0 0 535 512;" xml:space="preserve">
<path d="M52.7,499.9l-0.4-0.4l-34.7-34.7C-12.2,435,3.8,408.6,12,400.4l126.8-126.7c13.2-13.2,29.6-15.4,43.9-6.7l15-14.8
	l136.1-133.2l-3-2.8c-8.3-8.3-13.4-18.9-14.3-29.8c-0.2-2.5-0.2-5.1,0-7.5c-25.9-44.4-54.5-57.2-54.9-57.4L244,12.9L255.6,1
	c2.8-0.1,68.5-2.7,144,47.8l1.3,0.9l66.4,66.4c12,12,11,23.7,9.3,29.7c-0.4,1.3-0.8,2.6-1.3,3.8c3.2-0.4,6.6-0.4,10,0l0.2,0
	c11,1.4,21.7,6.7,30.1,15.1l13.8,13.7c7.5,7.4,7.5,19.6,0.1,27.1l-40.1,40.1c-7.3,7.3-19.1,7.5-26.6,0.4l-17.9-17
	c-9-9.2-14.1-18.7-15.4-29.2c-0.5-3.5-0.5-7,0-10.4c-1,0.4-2,0.7-3,1c-5.9,1.6-17.7,2.6-29.8-9.5l-8-8l-129.2,142l-14.2,14.1
	c3.9,5.9,5.9,12.4,5.9,19.1c0,6.6-2,16.6-11.7,26.3L112.5,501.1l-0.2,0.2C103.2,509.9,74.1,521.3,52.7,499.9z M69.4,458.3
	c4.9,4.3,12.3,4.1,16.9-0.5l101.1-102.3c3.5-3.6,3.5-9.3,0-12.9l-0.7-0.7l49.7-49.4l151.5-165.6l34.2,34.2c0.5-0.4,0.9-0.9,1.1-1.1
	l8.4-8.4l33.6,33.5l-0.9,1.1c-4.6,5.4-4,13.5,1.2,18.2l6.4,5.8c3.9,3.5,9.9,3.3,13.4-0.6l9.2-9.8c3.7-4,3.4-10.2-0.7-13.7l-7.5-6.6
	c-5.4-4.7-13.6-4.3-18.4,1l-0.7,0.8l-32.7-32.7l8.2-8.2c0.7-0.7,1.3-1.3,1.8-1.8l-64.1-64.1c-14.3-9.5-28.2-16.8-41.2-22.6
	c2.5,2.9,3.8,4.8,4.1,5.3l-5.8-4.9c3.4,5,6.6,10.4,9.8,16.1l1.1,5.8l-1.9,6.3c-0.3,0.8-0.3,1.8-0.2,2.9l0,0.1c0.3,3.2,2,6.7,4.9,9.6
	l29.6,25.6L219.6,275.4l-49.9,49.5c0,0,0,0,0,0c-3.6-3.3-9.2-3.2-12.7,0.3C134,348.2,54.8,427.8,54.8,427.8c-5,5-4.8,13.1,0.5,17.9
	L69.4,458.3z"/>
</svg>
