<?xml version="1.0" encoding="utf-8"?>
<!-- Generator: Adobe Illustrator 21.1.0, SVG Export Plug-In . SVG Version: 6.00 Build 0)  -->
<svg version="1.1" id="_x35_2" xmlns="http://www.w3.org/2000/svg" xmlns:xlink="http://www.w3.org/1999/xlink" x="0px" y="0px"
	 viewBox="0 0 474 512" style="enable-background:new 0 0 474 512;" xml:space="preserve">
<path d="M464.1,150.1l-31.5-26.9c-9.9-8.5-24-8.9-34.3-2l-62.7-53.5c5.2-11.3,2.5-25.1-7.4-33.6L296.8,7.3c-12-10.2-30-8.8-40.2,3.2
	l-72.8,85.3c-10.2,12-8.8,30,3.2,40.2l31.5,26.9c9.9,8.5,24,8.9,34.3,2l8.9,7.6L140.8,313.8l-4.2-3.6c-12.1-10.3-23.2-7.2-31.5,2.5
	L7.2,427.4c-12.4,14.5-4.5,28,9,39.6l39.6,33.8c13.5,10.6,27.3,17.2,40.5,2.7l97.8-114.7c9.5-11.1,7.7-22.9-2.4-31.5l-5.7-4.9
	l120.8-141.5l8.7,7.5c-5.2,11.3-2.5,25.1,7.4,33.6l31.5,26.9c12,10.2,30,8.8,40.2-3.2l72.8-85.3
	C477.5,178.3,476.1,160.3,464.1,150.1z M284,123c-1.7-1.5-3.6-2.5-5.6-3.3l16.8-19.7c1.1,1.9,2.5,3.7,4.2,5.2l67.3,57.5
	c1.6,1.3,3.3,2.4,5.1,3.1l-16.6,19.4c-1-1.7-2.3-3.4-4-4.7L284,123z"/>
</svg>
