<?xml version="1.0" encoding="utf-8"?>
<!-- Generator: Adobe Illustrator 21.1.0, SVG Export Plug-In . SVG Version: 6.00 Build 0)  -->
<svg version="1.1" id="Layer_12" xmlns="http://www.w3.org/2000/svg" xmlns:xlink="http://www.w3.org/1999/xlink" x="0px" y="0px"
	 viewBox="0 0 564 512" style="enable-background:new 0 0 564 512;" xml:space="preserve">
<g>
	<path d="M22.9,315.5c3.3-1.4,6.9-2.1,10.5-2.1c3.4,0,6.8,0.6,10,2c28.8,11.8,74.7,30.7,112.2,46.8c10.6,2.1,21.7,4.2,33.3,6.1
		c9.9-3.7,19.3-7.2,27.9-10.6c-4.5-1.8-8.9-3.6-13.4-5.4C148,328.9,93,298.1,71.4,287c-20.6-11.4-51.4-15.4-54.7,15.3
		C15.7,308.2,19.3,312.6,22.9,315.5z"/>
	<path d="M233.3,344.5c8.4-3.5,16.1-6.7,23.2-9.7c-20.5-7.6-47.2-19.9-66.4-20.4c-5.7-0.1-5.7-0.1-8.6-1.8
		c-51.4-33.4-58.7-30.9-77.9-27.8c-0.8,0-2.1,0.7-3.5,1.6C89.4,298.9,173.3,329.8,233.3,344.5z"/>
	<path d="M205.6,309.9c24.9,3.9,46.9,16.6,67.3,21.6c7.2-2.9,13.7-5.7,19.8-8.3c-17.5-6.5-41.8-17.2-59-20.8c-4.8-1-4.9-0.1-7.5-1.5
		c-33-17.7-50.3-17.7-66.4-19c-0.7,0-1.8,0.6-3,1.3c-1.9,2.2-1.4,4.6,1.1,7C170.6,297.1,177.8,301.1,205.6,309.9z"/>
	<path d="M468.1,277.6c-9.3,89.7,9.4,148,23.8,183.3h72V278C536.8,274.5,487.9,275.9,468.1,277.6z M526.7,440.1
		c-9.3,0-17-7.6-17-17.1c0-9.4,7.6-17.1,17-17.1c9.3,0,17,7.6,17,17.1C543.7,432.5,536.2,440.1,526.7,440.1z"/>
	<path d="M379.4,299.6c-17.3-0.4-33.7,6.8-66.4,21c-23.6,10.2-56,24.3-103.5,41.8l-0.6,0.2c-2.8,1.4-5.3,3.1-7.4,5.2
		c-8.4,12.9-2.2,29.7-2,30.1c3.2,7.9,11.5,15.8,25.9,15.9c4.2,0,8.7-0.8,13.2-2.3l106-33.5c2.5-0.7,5.1,0.3,6.3,2.5l0.7,1.2v1.4
		c0,0.9-0.2,1.8-0.7,2.7c-0.7,1.3-1.8,2.2-3.1,2.6l-106,33.6c-5.7,1.8-11.2,2.7-16.5,2.7c-19-0.1-30.3-11.6-35-23
		c-0.3-0.7-0.5-1.4-0.8-2.1c-0.2-0.4-0.5-3.1-1-6.6c-28.9-12.9-75.7-32.6-142.8-60.1c-8.8-3.6-18.7-3.3-27.2,0.9
		S3.6,345.7,1.1,354.9c-4.1,14.5,2.2,30,15.2,37.8C77,428.8,222.3,512,267.5,512c0.2,0,0.4,0,0.6,0c0.5,0,1,0,1.5,0
		c25.2,0,49.3-12.5,77.1-26.9c24.3-12.6,51-26.5,82.4-33.4c9.4-2.1,19.3-3.6,29.6-4.2l-0.1-148L379.4,299.6z M423,421.6
		c-38.1,7.3-63.5,18.6-89.8,32.3c-24.4,12.7-45.5,23.6-63.7,23.6c-0.3,0-0.6,0-0.9,0h-0.9h-0.2c-5.4,0-29.5-3.3-110.6-45.1
		c-49.5-25.5-99.9-49.9-125.6-65.1c-1.5-0.9-2.3-2.7-1.8-4.4v-0.1v-0.1c0.6-2,2.3-2.9,3.7-2.9c0.5,0,1,0.1,1.5,0.3
		c62.7,25.7,107.4,44.5,136.4,57.3c10.6,19.5,30.9,31.6,54.3,31.7h0.1c7.8,0,15.8-1.3,23.9-3.9l105.8-33.6
		c7.5-2.3,13.8-7.5,17.5-14.5s4.6-15.3,2.3-22.9l-0.1-0.3l-0.1-0.3c-4.1-12.3-15.5-20.5-28.4-20.5c-2.9,0-5.8,0.4-8.6,1.3l-0.2,0.1
		l-0.2,0.1l-105.9,33.5l-0.2,0.1l-0.2,0.1c-2,0.7-3.8,1-5.5,1c-1.5,0-2.2-0.3-2.3-0.4c0,0-0.1-0.1-0.2-0.3
		c46.2-17.2,78-28,101.3-38.1c27.6-12,42.8-18.6,53.7-18.6h0.6h0.3h0.3l44.9-0.1C424.3,332,426.4,420.9,423,421.6z"/>
	<path d="M411.2,79.7c-15.9-8.3-30.7-11.9-43.6-11.9c-33.1,0-54.1,23.2-50.2,49.7c0,0,0,0,0,0c0,0.2,0.2,2.4,1,4.4
		c0.1,0.2,0,0.4,0,0.5c-5,7.9-7.7,15.2-9.2,21.1c-0.1,0.6-1,0.6-1.1,0c-0.9-4.4-2.3-9.4-4.4-14.9c0,0,0-0.1,0-0.2
		c-0.7-13.2-1.1-36.9,3.8-53.3c0.1-0.4,0.5-0.5,0.8-0.4c3.9,2,7.2,2.9,10.2,2.9c18.6,0,20.8-35.5,35-61c0.1-0.2,0.1-0.4,0-0.6
		C345,4.9,337.2,0,330.5,0l0,0c-17.1,0-28,31-26,66.3c0,0,0,0.7,0.1,1.8c3.2-9.7,13.9-37,32.6-43.9c-4,2.5-8.7,6.7-13.9,13.6
		c-7.6,10.1-14.2,23.1-18,36.6c0,0,0,0.1,0,0.2c-4.7,18.2-4.7,35.1-3.7,46.8c0,0.6-0.8,0.9-1.1,0.3c-1.8-3.7-3.9-7.5-6.4-11.4
		c-0.1-0.1-0.1-0.3,0-0.5c1.4-4.4,1.7-6.3,1.7-6.3c5.6-37.9-24.5-71.2-71.9-71.2c-18.6,0-40,5.2-62.9,17.3c-0.4,0.2-0.4,0.7,0,1
		c39,27.4,45.3,65.3,96.6,65.3c7.8,0,16.6-0.9,26.8-2.8c0.2,0,0.5,0.1,0.6,0.3c26.1,49.6,26.8,109.8,27.3,116.3
		c0,0.3,0.3,0.5,0.6,0.5h6.7c0.3,0,0.6-0.3,0.6-0.6c0-4.9-0.2-40.5-10.1-78.7c0-0.1,0-0.2,0-0.4c3.1-8.2,8.7-21.8,12.9-26.5
		c0.1-0.1,0.4-0.2,0.5-0.2c7.9,1.6,14.6,2.3,20.6,2.3c35.7,0,40.2-26.3,67.2-45.5C411.7,80.5,411.6,79.9,411.2,79.7z M230,88.4
		c-7.5-4.9-14.2-12.4-21.8-21c-3-3.4-6.2-6.9-9.6-10.6c-0.3-0.3-0.1-0.9,0.3-0.9l0,0c8.6-2.3,17-3.5,25-3.5c9.6,0,18.3,1.7,26,4.9
		c6.9,2.9,12.6,7.1,17.1,12.2c3.6,4.2,6.2,9,7.8,14.2c0.5,1.7,0.9,3.5,1.1,5.2c-13.7-12.4-36.1-27.1-69.2-32.5
		c10.8,2.9,23.1,7.6,36.5,15.4c12.4,7.1,22.3,14.7,30.4,22.5c-5.8,0.9-11.2,1.3-16,1.3C246.2,95.6,237.7,93.4,230,88.4z M377.2,89.4
		C367,100.9,358.1,106,344.1,106c-1.7,0-3.6-0.1-5.5-0.3l0,0c1.7-1.2,3.5-2.4,5.3-3.6c9.1-5.8,17.5-9.6,24.9-12
		c-12.4,2.7-22.5,7.1-30.6,12c1.1-2.4,2.6-5,3.9-6.5c5.5-6.3,14.5-9.8,25.4-9.8c1.8,0,9.7-0.4,12.5,0
		C380.5,85.9,377.5,89.1,377.2,89.4z"/>
</g>
</svg>
