<?xml version="1.0" encoding="utf-8"?>
<!-- Generator: Adobe Illustrator 21.1.0, SVG Export Plug-In . SVG Version: 6.00 Build 0)  -->
<svg version="1.1" id="Layer_12" xmlns="http://www.w3.org/2000/svg" xmlns:xlink="http://www.w3.org/1999/xlink" x="0px" y="0px"
	 viewBox="0 0 564 512" style="enable-background:new 0 0 564 512;" xml:space="preserve">
<g>
	<path d="M188.9,368.3c-11.6-1.9-22.7-4-33.3-6.1c-37.5-16.1-83.4-35-112.2-46.8c-3.2-1.4-6.6-2-10-2c-3.6,0-7.2,0.7-10.5,2.1
		c-3.6-2.9-7.2-7.3-6.2-13.2c3.3-30.7,34.1-26.7,54.7-15.3c21.6,11.1,76.6,41.9,132,65.3c4.5,1.8,8.9,3.6,13.4,5.4
		C208.2,361.1,198.8,364.6,188.9,368.3z M233.3,344.5c-60-14.7-143.9-45.6-133.2-58.1c1.4-0.9,2.7-1.6,3.5-1.6
		c19.2-3.1,26.5-5.6,77.9,27.8c2.9,1.7,2.9,1.7,8.6,1.8c19.2,0.5,45.9,12.8,66.4,20.4C249.4,337.8,241.7,341,233.3,344.5z
		 M272.9,331.5c-20.4-5-42.4-17.7-67.3-21.6c-27.8-8.8-35-12.8-47.7-19.7c-2.5-2.4-3-4.8-1.1-7c1-1,2.3-1.3,3-1.3
		c16.1,1.3,33.4,1.3,66.4,19c2.6,1.4,2.7,0.5,7.5,1.5c17.2,3.6,41.5,14.3,59,20.8C286.6,325.8,280.1,328.6,272.9,331.5z"/>
	<path d="M468.1,277.6c-9.3,89.7,9.4,148,23.8,183.3h72V278C536.8,274.5,487.9,275.9,468.1,277.6z M526.7,440.1
		c-9.3,0-17-7.6-17-17.1c0-9.4,7.6-17.1,17-17.1c9.3,0,17,7.6,17,17.1S536.2,440.1,526.7,440.1z"/>
	<path d="M379.4,299.6c-17.3-0.4-33.7,6.8-66.4,21c-23.6,10.2-56,24.3-103.5,41.8l-0.6,0.2c-2.8,1.4-5.3,3.1-7.4,5.2
		c-8.4,12.9-2.2,29.7-2,30.1c3.2,7.9,11.5,15.8,25.9,15.9c4.2,0,8.7-0.8,13.2-2.3l106-33.5c2.5-0.7,5.1,0.3,6.3,2.5l0.7,1.2v1.4
		c0,0.9-0.2,1.8-0.7,2.7c-0.7,1.3-1.8,2.2-3.1,2.6l-106,33.6c-5.7,1.8-11.2,2.7-16.5,2.7c-19-0.1-30.3-11.6-35-23
		c-0.3-0.7-0.5-1.4-0.8-2.1c-0.2-0.4-0.5-3.1-1-6.6c-28.9-12.9-75.7-32.6-142.8-60.1c-8.8-3.6-18.7-3.3-27.2,0.9
		S3.6,345.7,1.1,354.9c-4.1,14.5,2.2,30,15.2,37.8C77,428.8,222.3,512,267.5,512c0.2,0,0.4,0,0.6,0c0.5,0,1,0,1.5,0
		c25.2,0,49.3-12.5,77.1-26.9c24.3-12.6,51-26.5,82.4-33.4c9.4-2.1,19.3-3.6,29.6-4.2l-0.1-148L379.4,299.6z M423,421.6
		c-38.1,7.3-63.5,18.6-89.8,32.3c-24.4,12.7-45.5,23.6-63.7,23.6c-0.3,0-0.6,0-0.9,0h-0.9h-0.2c-5.4,0-29.5-3.3-110.6-45.1
		c-49.5-25.5-99.9-49.9-125.6-65.1c-1.5-0.9-2.3-2.7-1.8-4.4v-0.1v-0.1c0.6-2,2.3-2.9,3.7-2.9c0.5,0,1,0.1,1.5,0.3
		c62.7,25.7,107.4,44.5,136.4,57.3c10.6,19.5,30.9,31.6,54.3,31.7h0.1c7.8,0,15.8-1.3,23.9-3.9l105.8-33.6
		c7.5-2.3,13.8-7.5,17.5-14.5s4.6-15.3,2.3-22.9l-0.1-0.3l-0.1-0.3c-4.1-12.3-15.5-20.5-28.4-20.5c-2.9,0-5.8,0.4-8.6,1.3l-0.2,0.1
		l-0.2,0.1l-105.9,33.5l-0.2,0.1l-0.2,0.1c-2,0.7-3.8,1-5.5,1c-1.5,0-2.2-0.3-2.3-0.4c0,0-0.1-0.1-0.2-0.3
		c46.2-17.2,78-28,101.3-38.1c27.6-12,42.8-18.6,53.7-18.6h0.6h0.3h0.3l44.9-0.1C424.3,332,426.4,420.9,423,421.6z"/>
	<path d="M396.7,62.9L348,0.4h-0.3L289.8,0l10.6,63h0v33h-9v0.2l-6.1-3.7l-5,3.7c0,0-5.8,1.5-8,1.3l0,0.5h0l-6.7,1.2
		c0,0-7.1-6.2-10-6.2c-0.1,0-0.2,0-0.4,0c-1.1,0.2-3.2,3-3.2,3h-15.3V63l0.2,0l10.5-63l-57.9,0.5h-0.3l-47.7,62.5l-0.2,0v192.9
		h255.8L396.7,62.9L396.7,62.9z M310.8,13.2h22.4l32.1,49.7H327L310.8,13.2z M203.7,13.2h22.4L211,62.9h-38.4L203.7,13.2z
		 M369.8,229.8H166.9V88.9h43.5l0.5,7.2v25.8h41.2l6.9,6.3l13.9-4.3c0.5-0.1,1.1-0.3,1.7-0.4c1.8-0.1,8.5-1.1,8.5-1.1h44.2v-33h43.5
		L369.8,229.8z M282.8,0.4h-28.3l-8.6,58.6v28.8h6c0,0,2.1-2.9,3.2-3.2c2.6-0.6,10.4,6.1,10.4,6.1s5-1.5,6.7-1.5c2,0,8-1.5,8-1.5
		l5-3.7l6,3.7V60L282.8,0.4z"/>
</g>
</svg>
