<?xml version="1.0" encoding="utf-8"?>
<!-- Generator: Adobe Illustrator 21.1.0, SVG Export Plug-In . SVG Version: 6.00 Build 0)  -->
<svg version="1.1" id="Layer_5" xmlns="http://www.w3.org/2000/svg" xmlns:xlink="http://www.w3.org/1999/xlink" x="0px" y="0px"
	 viewBox="0 0 421.5 512" style="enable-background:new 0 0 421.5 512;" xml:space="preserve">
<g>
	<path d="M142.6,151c17.7,1.3,41.2,1.5,48.7,1.3c7.4,24.5,12.2,54.2,15,101.4c-19.1,2.2-59.5,2.8-79,0.5
		C129,220.4,136.3,172.6,142.6,151L142.6,151z M285.7,169.8c20.3,24.6,27.3,39.3,35.1,72.9c-7.5,3.1-9.1,3.5-17.8,6.2
		C299.3,209.6,293.4,195.5,285.7,169.8 M42.1,194.2c-4.3,19.2-8,24.1-10.4,48.9c-4.2-1.3-3.3-0.9-7.2-2.3
		C29.1,218.7,31.7,213.2,42.1,194.2L42.1,194.2z M269.6,0.7H85v64.2h16.6v27.6c23.6,3.3,53.3,5.1,80.7,5.1c17.2,0,34-0.7,50-2
		L277,95l0,0l1.3,0.1l2.6,0.2l0,0l3.9,0.3l19.1,1.4l1,0.4c21,8.8,39.4,22.5,53,39.6l3.7,4.6l0.5-0.2l3.2,4.2
		c16.6,22.2,29.8,50.2,39.2,83.2l0.2,0.7v0.6c0,0.1,0.1,0.4,0.2,0.6c0.2,0.7,0.4,1.5,0.5,2.5c10.1,36.5,13.5,70.1,14.6,87.4
		c6.3-68.7-8.1-136.7-42.8-192.2c-6-9.6-31.6-59.9-107.6-105.3L269.6,0.7z M86.4,112.4c-21.1,15.2-39.7,36.1-53.9,60.6
		c-14.6,25.2-24.4,53.4-29.1,83.8c14.1,6.1,30.1,11.4,47.9,15.7c5-81.2,25.1-135,36.6-159.9C87.4,112.5,86.9,112.4,86.4,112.4
		L86.4,112.4z M261.5,114.6c-5.2,0.6-10.5,1.2-16.1,1.7c12.4,27.9,30.2,79.9,34.9,156.5c23.2-5.5,43.8-12.7,60.4-20.9
		c-7.3-40.9-24.1-78.1-48.6-107.8l-6.3-7.6l-7.7-7.5c-1.2-1.2-2.5-2.3-3.7-3.5c-1.2-1.1-2.4-2.2-3.7-3.3l-0.1-0.1l-0.1-0.1
		c-1.1-0.9-2.4-2-3.7-3.1l-0.4-0.3l-0.1-0.1c-1-0.8-2-1.6-3.1-2.5l-0.1,0c-0.3-0.2-0.5-0.4-0.7-0.5l-0.1-0.1l-0.1-0.1
		C262.1,115.1,261.8,114.9,261.5,114.6L261.5,114.6z M114.5,115.8c-4.2,11.4-9.6,29.1-14.5,54c-6.5,32.7-10.4,69.7-11.8,109.9
		c25.2,3.8,51.5,5.8,78.5,5.8c26.2,0,52-1.9,76.8-5.6c-2.8-84.6-16.5-136.3-25.5-161.8c-11.6,0.5-23.6,0.8-35.6,0.8
		C158.6,118.9,135.8,117.9,114.5,115.8L114.5,115.8z"/>
	<path d="M326.1,315.6c-0.6,16.8-1.2,19-5.1,34.9c-7.2,3.1-6,3.1-14.5,5.7c2-16,1.5-18.4,1.6-35.4
		C317.6,318.3,317.5,318.5,326.1,315.6 M343.5,282.6c-18,8-38.8,14.7-62.1,19.8c0,3,0.1,5.9,0.1,8.8c0,26.8-2.3,52.4-6.9,76.3
		c23.1-5.2,43.8-12,60.4-20c6.1-22.3,9.2-45.6,9.2-69.5C344.2,292.8,343.9,287.7,343.5,282.6L343.5,282.6z"/>
	<path d="M186.2,460.6c-5.8,13.1-8.3,17.7-8.3,17.7l-25-0.5c0,0-2.3-5.5-7.5-17.6C145.4,460.2,173.4,461.4,186.2,460.6z
		 M102.1,424.2c12.9,45.8,31.3,73.2,40.1,84.5c9.9,2.2,20.1,3.3,30.3,3.3c5.1,0,10.1-0.3,15.1-0.8c8-9.8,28-37.5,41.9-86.3
		c-20.4,2.2-41.7,3.4-63.5,3.4l-0.1,0C144.2,428,122.8,426.6,102.1,424.2L102.1,424.2z"/>
	<path d="M25.2,409.3c10,20.4,22.5,38.4,37.5,53.7c11.1,11.3,23.1,20.8,35.8,28.3c-11.4-16.4-24.3-40.1-34-72.8
		C50.7,416,37.5,412.9,25.2,409.3L25.2,409.3z"/>
	<path d="M126.5,343.8c25.5,2.4,53.3,2.1,80.8,0.1c0,0-0.9,14.4-2.1,22.4c-24.6,2.1-56.7,2.2-76.7,0.1L126.5,343.8z M87.7,309.1
		c0,1,0,1.9,0,2.9c0,28.8,2.5,56.3,7.3,81.9c23,3.2,47.1,4.8,71.7,4.8c23.9,0,47.4-1.5,70-4.5c4.9-25.7,7.4-53.3,7.4-82.2
		c0-1,0-1.9,0-2.9c-24.8,3.5-50.7,5.2-77.3,5.2C139.3,314.4,112.7,312.6,87.7,309.1L87.7,309.1z"/>
	<path d="M18.9,320.1c4.7,1.4,4.7,1.3,9.6,2.6c0.2,11.2,1,21.1,2,30.4c-3.2-0.6-3.8-0.7-6.9-1.6C21.5,341.1,20,334.6,18.9,320.1
		 M0.1,287.4C0,290.9,0,294.4,0,298c0,25.8,3.8,51,11.2,75.1c13.6,5.5,29,10.2,45.8,14c-4.5-23.7-6.8-49.2-6.8-75.9
		c0-2.9,0-5.7,0.1-8.7C31.9,298.4,15.1,293.3,0.1,287.4L0.1,287.4z"/>
	<path d="M285.2,432.3c-2.3,3.2-4.6,6.2-7.1,9.2c1-2.7,2-5.5,2.9-8.3C282.4,433,283.8,432.6,285.2,432.3 M321.1,405.1
		c-16.4,5.8-34.6,10.5-54.2,14.2c-11.9,40.1-28.8,66.6-41.3,82.3c18.2-7.4,35.5-18.6,50.7-33C294.4,451.4,309.7,429.7,321.1,405.1
		L321.1,405.1z"/>
	<path d="M385,75.7c-14.8-26.5-50.3-36.8-79.4-22.9c-29.1,13.9-40.7,46.6-26,73.2c14.8,26.5,51.2,36.8,80.3,23
		C389,135.1,399.8,102.3,385,75.7z M355.8,140.1c-24.6,11.8-56.2,3.5-68.7-19C274.6,98.7,285,72,309.6,60.2
		c24.7-11.8,54.8-3.1,67.3,19.4C389.4,102.1,380.5,128.4,355.8,140.1z"/>
</g>
</svg>
