<?xml version="1.0" encoding="utf-8"?>
<!-- Generator: Adobe Illustrator 21.1.0, SVG Export Plug-In . SVG Version: 6.00 Build 0)  -->
<svg version="1.1" id="Layer_12" xmlns="http://www.w3.org/2000/svg" xmlns:xlink="http://www.w3.org/1999/xlink" x="0px" y="0px"
	 viewBox="0 0 564 512" style="enable-background:new 0 0 564 512;" xml:space="preserve">
<g>
	<path d="M22.9,315.5c3.3-1.4,6.9-2.1,10.5-2.1c3.4,0,6.8,0.6,10,2c28.8,11.8,74.7,30.7,112.2,46.8c10.6,2.1,21.7,4.2,33.3,6.1
		c9.9-3.7,19.3-7.2,27.9-10.6c-4.5-1.8-8.9-3.6-13.4-5.4C148,328.9,93,298.1,71.4,287c-20.6-11.4-51.4-15.4-54.7,15.3
		C15.7,308.2,19.3,312.6,22.9,315.5z"/>
	<path d="M233.3,344.5c8.4-3.5,16.1-6.7,23.2-9.7c-20.5-7.6-47.2-19.9-66.4-20.4c-5.7-0.1-5.7-0.1-8.6-1.8
		c-51.4-33.4-58.7-30.9-77.9-27.8c-0.8,0-2.1,0.7-3.5,1.6C89.4,298.9,173.3,329.8,233.3,344.5z"/>
	<path d="M205.6,309.9c24.9,3.9,46.9,16.6,67.3,21.6c7.2-2.9,13.7-5.7,19.8-8.3c-17.5-6.5-41.8-17.2-59-20.8c-4.8-1-4.9-0.1-7.5-1.5
		c-33-17.7-50.3-17.7-66.4-19c-0.7,0-1.8,0.6-3,1.3c-1.9,2.2-1.4,4.6,1.1,7C170.6,297.1,177.8,301.1,205.6,309.9z"/>
	<path d="M468.1,277.6c-9.3,89.7,9.4,148,23.8,183.3h72V278C536.8,274.5,487.9,275.9,468.1,277.6z M526.7,440.1
		c-9.3,0-17-7.6-17-17.1c0-9.4,7.6-17.1,17-17.1c9.3,0,17,7.6,17,17.1C543.7,432.5,536.2,440.1,526.7,440.1z"/>
	<path d="M379.4,299.6c-17.3-0.4-33.7,6.8-66.4,21c-23.6,10.2-56,24.3-103.5,41.8l-0.6,0.2c-2.8,1.4-5.3,3.1-7.4,5.2
		c-8.4,12.9-2.2,29.7-2,30.1c3.2,7.9,11.5,15.8,25.9,15.9c4.2,0,8.7-0.8,13.2-2.3l106-33.5c2.5-0.7,5.1,0.3,6.3,2.5l0.7,1.2v1.4
		c0,0.9-0.2,1.8-0.7,2.7c-0.7,1.3-1.8,2.2-3.1,2.6l-106,33.6c-5.7,1.8-11.2,2.7-16.5,2.7c-19-0.1-30.3-11.6-35-23
		c-0.3-0.7-0.5-1.4-0.8-2.1c-0.2-0.4-0.5-3.1-1-6.6c-28.9-12.9-75.7-32.6-142.8-60.1c-8.8-3.6-18.7-3.3-27.2,0.9
		S3.6,345.7,1.1,354.9c-4.1,14.5,2.2,30,15.2,37.8C77,428.8,222.3,512,267.5,512c0.2,0,0.4,0,0.6,0c0.5,0,1,0,1.5,0
		c25.2,0,49.3-12.5,77.1-26.9c24.3-12.6,51-26.5,82.4-33.4c9.4-2.1,19.3-3.6,29.6-4.2l-0.1-148L379.4,299.6z M423,421.6
		c-38.1,7.3-63.5,18.6-89.8,32.3c-24.4,12.7-45.5,23.6-63.7,23.6c-0.3,0-0.6,0-0.9,0h-0.9h-0.2c-5.4,0-29.5-3.3-110.6-45.1
		c-49.5-25.5-99.9-49.9-125.6-65.1c-1.5-0.9-2.3-2.7-1.8-4.4v-0.1v-0.1c0.6-2,2.3-2.9,3.7-2.9c0.5,0,1,0.1,1.5,0.3
		c62.7,25.7,107.4,44.5,136.4,57.3c10.6,19.5,30.9,31.6,54.3,31.7h0.1c7.8,0,15.8-1.3,23.9-3.9l105.8-33.6
		c7.5-2.3,13.8-7.5,17.5-14.5s4.6-15.3,2.3-22.9l-0.1-0.3l-0.1-0.3c-4.1-12.3-15.5-20.5-28.4-20.5c-2.9,0-5.8,0.4-8.6,1.3l-0.2,0.1
		l-0.2,0.1l-105.9,33.5l-0.2,0.1l-0.2,0.1c-2,0.7-3.8,1-5.5,1c-1.5,0-2.2-0.3-2.3-0.4c0,0-0.1-0.1-0.2-0.3
		c46.2-17.2,78-28,101.3-38.1c27.6-12,42.8-18.6,53.7-18.6h0.6h0.3h0.3l44.9-0.1C424.3,332,426.4,420.9,423,421.6z"/>
	<path d="M282.2,210v20.1c-8.7-0.2-17.5-1.3-26.2-3.3v-20.1C264.7,208.7,273.5,209.8,282.2,210z"/>
	<path d="M314.2,206.7v20.5c-8.7,2-17.5,2.7-26.2,2.9v-20.1C296.8,209.8,305.6,208.7,314.2,206.7z"/>
	<path d="M250.2,205.2v20.7c-9.3-2.6-18.1-5.4-26.2-9.9v-21.7C232.3,199,241.1,202.6,250.2,205.2z"/>
	<path d="M186.6,159.7v26.6c-9.5-14.4-14.4-30.4-14.4-46.5v-18.3c0,9.9,2.2,12.5,6.2,22.5C180.5,149.4,183.3,154.6,186.6,159.7z"/>
	<path d="M218.2,190.9v23.2c-10.2-6.5-19-12.7-26.2-21.7v-24.8C199.2,176.6,208.1,184.4,218.2,190.9z"/>
	<path d="M345.8,194.3v22c-8.1,4.5-16.9,6.9-26.2,9.5v-20.7C328.9,202.6,337.7,199,345.8,194.3z"/>
	<path d="M377.9,167.6v25.1c-7.2,8.9-16,14.2-26.2,20.7v-22.4C361.9,184.4,370.6,176.6,377.9,167.6z"/>
	<path d="M398.2,122.2v21.1l0,0c0,16-4.9,28.1-14.4,42.5v-26.1c3.3-5,6-10.2,8.1-15.5c2.2-5.6,3.9-11.2,4.9-16.7v0l0,0
		C397.3,125.5,398.2,122.2,398.2,122.2z"/>
	<path d="M278.1,75.7c-2,1.2-2.9,3.1-3.1,5.3c-0.3,2.8,2.4,4.7,8.1,6l0.5-13.2C281.5,74.2,279.6,74.9,278.1,75.7z M288.8,100.2
		l-0.9,14c2.6-0.2,4.7-0.9,6.4-2.1c2-1.2,2.9-3,3-5.5C297.4,104,294.7,101.8,288.8,100.2z M288.8,100.2l-0.9,14
		c2.6-0.2,4.7-0.9,6.4-2.1c2-1.2,2.9-3,3-5.5C297.4,104,294.7,101.8,288.8,100.2z M275,81c-0.3,2.8,2.4,4.7,8.1,6l0.5-13.2
		c-2.2,0.4-4.1,1.1-5.6,1.9C276.1,76.9,275.2,78.8,275,81z M285.1,36.5c-38.8,0-70.3,26.7-70.3,59.6s31.5,59.6,70.3,59.6
		s70.3-26.7,70.3-59.6S324,36.5,285.1,36.5z M309.7,104.9c-0.1,6-2.5,10.8-7,14.2c-3.6,2.6-8.3,4.6-14.9,5.1l-0.4,7.2l-6.4,0.2
		l0-7.3c-6-0.2-10.5-1.4-14.1-4.3c-4-3.3-5.8-7.8-5.9-14l12-0.5c0.1,3.2,1.5,5.7,3.7,6.9c1.5,1,3.1,1.6,5,1.7l0.6-15.6l-0.4-0.2
		l-0.4-0.2c-0.4-0.2-0.3,0-0.6-0.1c0.1,0.3-0.3,0-0.5,0.1c-5.6-0.8-9.6-2.2-11.8-3.6c-1.8-1-3.6-2.8-4.6-5.1c-0.9-2-1.1-4.4-0.9-7.7
		c0.2-5.8,2.4-10,6.5-13c3.3-2.6,8.1-4.3,14.4-5l0.4-7.2l0.4,0.2c1.8-0.1,3.1,0.4,4.4,1.6c1.3,1.3,1.8,2.7,1.7,4.3l0.1,1.3
		c5.5,0.5,9.8,1.9,13.3,4.7c3.6,3.1,5.3,7.4,5.4,13.1l-7,0.3c-2.6,0.2-4.4-0.8-5.5-3.3c-0.6-0.9-1.1-1.7-2.4-2.8
		c-1.4-0.8-2.4-1.2-3.7-1.4l-0.8,14.3c1.9,0.4,3.6,0.9,5.1,1.2c1.6,0.5,2.6,0.6,3.6,0.9c1.6,0.5,3.3,1,4.7,1.8
		c2.1,0.9,3.8,2.7,5,4.7C309.4,99.2,309.9,101.8,309.7,104.9z M288.8,100.2l-0.9,14c2.6-0.2,4.7-0.9,6.4-2.1c2-1.2,2.9-3,3-5.5
		C297.4,104,294.7,101.8,288.8,100.2z M275,81c-0.3,2.8,2.4,4.7,8.1,6l0.5-13.2c-2.2,0.4-4.1,1.1-5.6,1.9
		C276.1,76.9,275.2,78.8,275,81z"/>
	<path d="M285.1,0c-62.4,0-112.9,43-112.9,96s50.5,96,112.9,96S398,149,398,96S347.4,0,285.1,0z M366.9,96.2
		c0,38.3-36.6,69.3-81.7,69.3s-81.7-31-81.7-69.3s36.6-69.3,81.7-69.3S366.9,57.9,366.9,96.2z"/>
</g>
</svg>
