<?xml version="1.0" encoding="utf-8"?>
<!-- Generator: Adobe Illustrator 22.0.1, SVG Export Plug-In . SVG Version: 6.00 Build 0)  -->
<svg version="1.1" id="Layer_4" xmlns="http://www.w3.org/2000/svg" xmlns:xlink="http://www.w3.org/1999/xlink" x="0px" y="0px"
	 viewBox="0 0 510 512" style="enable-background:new 0 0 510 512;" xml:space="preserve">
<g id="_x35_2">
	<path d="M296.2,451.2c0.1,0,0.2-0.1,0.2-0.1c0.4-0.2,0.8-0.4,1.2-0.6c0.1,0,0.2-0.1,0.3-0.1c1.4-0.6,2.9-1.4,4.5-2.2
		c0.1,0,0.1-0.1,0.2-0.1c0.4-0.2,0.8-0.4,1.3-0.6c0.2-0.1,0.5-0.2,0.7-0.4c0.4-0.2,0.8-0.4,1.2-0.6c0.3-0.1,0.6-0.3,0.9-0.5
		c0.4-0.2,0.8-0.4,1.2-0.7c0.3-0.2,0.6-0.3,1-0.5c0.4-0.2,0.8-0.5,1.3-0.7c0.3-0.2,0.7-0.4,1-0.6c0.8-0.4,1.6-0.9,2.4-1.3
		c0.4-0.2,0.8-0.4,1.1-0.7c0.4-0.3,0.9-0.5,1.4-0.8c0.4-0.2,0.8-0.4,1.2-0.7c0.5-0.3,1-0.6,1.4-0.9c0.4-0.2,0.8-0.5,1.1-0.7
		c0.5-0.3,1-0.6,1.5-0.9c0.4-0.2,0.7-0.4,1.1-0.7c0.5-0.3,1.1-0.7,1.7-1c0.3-0.2,0.5-0.3,0.8-0.5c1.6-1,3.2-2.1,4.9-3.2l0,0
		c6.7-4.5,13.9-9.8,21.5-16l0,0c0.2-0.2,0.5-0.4,0.7-0.6c0.4-0.3,0.8-0.6,1.1-1c1.3-1.1,2.5-2.1,3.8-3.2c0.5-0.5,1.1-0.9,1.6-1.4
		c0.6-0.6,1.3-1.1,1.9-1.7c0.6-0.5,1.2-1.1,1.8-1.6c0.6-0.6,1.2-1.1,1.8-1.7c0.7-0.6,1.4-1.3,2.1-1.9c0.5-0.4,0.9-0.9,1.4-1.3l1-1
		c2.2-2.5,4.4-5.1,6.5-7.7c2.6-3.3,5.2-6.6,7.6-9.9c0.4-0.5,0.7-1,1.1-1.5c3.2-4.5,6.4-9,9.6-13.5c0.8-1.1,1.6-2.2,2.4-3.4
		c3.3-4.6,6.6-9.3,9.8-14c1.1-1.6,2.2-3.2,3.3-4.8c2.9-4.2,5.9-8.4,8.8-12.6c1.4-2,2.9-4.1,4.3-6.2c2.3-3.3,4.6-6.6,6.9-9.8
		c1.2-1.8,2.5-3.6,3.7-5.4c2.4-3.5,4.8-7,7.3-10.5l0,0c9.4-13.6,18.8-27.3,28.2-41.1c0,0,0,0,0,0c0.3-0.5,0.7-1,1.1-1.6
		c3.9-5.7,7.8-11.5,11.7-17.3c4.6-6.8,7.7-14.3,9.2-22.1c2.5-12.7,1-25.9-4.5-37.6c-2.1-4.4-4.7-8.6-7.9-12.4l0,0
		c-2.3-2.8-4.5-4.9-6.7-6.6c2.5-6,4.3-11.7,5.2-17.1c0-0.3,0.1-0.5,0.2-0.8c2.9-17-3.5-33.4-17.5-45c-4.5-3.7-9.4-6.6-14.3-8.5
		c-0.1-2.1-0.3-4.1-0.5-6c0-0.1,0-0.1,0-0.2c-0.3-1.7-0.6-3.4-1-5c-0.1-0.3-0.1-0.5-0.2-0.8c-0.3-1.3-0.8-2.5-1.2-3.8
		c-3.5-9.5-10-17.2-20-23.9c-18.4-12.4-36.7-13.4-52.5-3.2c-0.5-0.5-1-0.9-1.5-1.4c-2.9-2.6-6.2-5-9.8-6.9c-0.1,0-0.2-0.1-0.3-0.1
		c-0.8-0.4-1.6-0.8-2.3-1.2c-0.3-0.2-0.7-0.3-1-0.5c-0.5-0.2-1.1-0.5-1.6-0.7c-0.4-0.2-0.7-0.3-1.1-0.4c-0.5-0.2-1-0.4-1.6-0.6
		c-0.4-0.1-0.7-0.3-1.1-0.4c-0.6-0.2-1.1-0.4-1.7-0.5c-0.3-0.1-0.6-0.2-1-0.3c-0.8-0.2-1.7-0.4-2.5-0.6c-0.3-0.1-0.7-0.1-1-0.2
		c-0.5-0.1-1.1-0.2-1.6-0.3c-0.4-0.1-0.8-0.1-1.2-0.2c-0.5-0.1-1-0.1-1.4-0.2c-0.4,0-0.8-0.1-1.2-0.1c-0.5,0-1-0.1-1.5-0.1
		c-0.4,0-0.7,0-1.1-0.1c-0.6,0-1.2,0-1.8,0c-0.4,0-0.9,0-1.3,0c-0.6,0-1.2,0.1-1.9,0.1c-0.4,0-0.7,0.1-1.1,0.1
		c-0.5,0.1-1,0.1-1.4,0.2c-0.4,0.1-0.8,0.1-1.1,0.2c-0.5,0.1-0.9,0.2-1.4,0.3c-0.4,0.1-0.7,0.1-1.1,0.2c-0.5,0.1-1,0.3-1.6,0.4
		c-0.3,0.1-0.6,0.1-0.9,0.2c-0.8,0.2-1.6,0.5-2.4,0.7c-0.2,0.1-0.5,0.2-0.7,0.3c-0.6,0.2-1.1,0.4-1.7,0.7c-0.3,0.1-0.6,0.3-0.9,0.4
		c-0.5,0.2-1,0.5-1.6,0.7c-0.2,0.1-0.3,0.1-0.5,0.2c0,0,0,0,0,0c-8.3,4.1-16,10.8-22.8,20l0,0c-0.3,0.4-0.6,0.9-1,1.3
		c-0.1,0.1-0.1,0.2-0.2,0.3c-3,4.2-6,8.5-9,12.7c-1.3,1.9-2.7,3.8-4,5.7c0,0,0,0,0,0c-9.8,13.9-19.5,27.8-29.1,41.5
		c-1,1.4-2,2.8-3,4.2c0,0,0,0,0,0c-2,2.8-3.9,5.6-5.9,8.3l-0.1,0.1c-4.2,5.9-8.3,11.9-12.5,17.8c0,0,0,0,0,0c0,0,0,0.1-0.1,0.1
		c0-0.1-0.1-0.2-0.1-0.2c0-0.1,0-0.1-0.1-0.2c0-0.1,0-0.1-0.1-0.2c-0.3-0.8-0.6-1.5-0.9-2.2c-0.1-0.2-0.2-0.4-0.2-0.6
		c-0.3-0.8-0.7-1.6-1.1-2.3c-0.1-0.1-0.2-0.3-0.2-0.4c-0.3-0.6-0.6-1.2-0.9-1.8c-0.1-0.3-0.3-0.5-0.4-0.8c-0.3-0.5-0.6-1.1-0.9-1.6
		c-0.1-0.2-0.2-0.4-0.4-0.6c-0.4-0.7-0.8-1.3-1.3-2c-0.2-0.2-0.3-0.5-0.5-0.7c-0.3-0.5-0.7-1-1-1.4c-0.1-0.2-0.3-0.4-0.4-0.6
		c-0.5-0.6-1-1.3-1.5-1.9c-0.1-0.1-0.2-0.2-0.3-0.4c-0.5-0.6-1-1.1-1.5-1.6c-0.1-0.1-0.1-0.1-0.2-0.2c0,0,0,0,0,0
		c-6.5-6.9-14.8-11.9-24.1-14.3c0,0,0,0,0,0c-0.1,0-0.1,0-0.2,0c-0.8-0.2-1.5-0.4-2.3-0.5c-0.2,0-0.4-0.1-0.6-0.1
		c-0.8-0.2-1.7-0.3-2.6-0.5c-0.1,0-0.2,0-0.3,0c-0.8-0.1-1.6-0.2-2.4-0.3c-0.2,0-0.4,0-0.6-0.1c-0.9-0.1-1.8-0.1-2.7-0.2
		c-11.4-0.4-22,3-30.7,9.1c0,0,0,0,0,0c-0.1,0.1-0.2,0.2-0.3,0.2c-0.5,0.4-1,0.7-1.5,1.1c-0.2,0.2-0.4,0.3-0.6,0.5
		c-0.5,0.4-1,0.8-1.4,1.2c-0.2,0.2-0.4,0.3-0.6,0.5c-0.5,0.5-1,1-1.6,1.5c-0.1,0.1-0.2,0.2-0.3,0.3c-0.6,0.6-1.2,1.2-1.8,1.8
		c-0.2,0.2-0.4,0.4-0.6,0.7c-0.4,0.4-0.7,0.8-1.1,1.3c-0.2,0.3-0.5,0.6-0.7,0.9c-0.3,0.4-0.6,0.8-0.9,1.1c-0.2,0.3-0.5,0.7-0.7,1
		c-0.3,0.4-0.5,0.8-0.8,1.1c-0.2,0.3-0.5,0.7-0.7,1.1c-0.2,0.4-0.5,0.8-0.7,1.2c-0.2,0.4-0.4,0.7-0.7,1.1c-0.2,0.4-0.5,0.8-0.7,1.3
		c-0.2,0.4-0.4,0.7-0.6,1.1c-0.4,0.7-0.7,1.4-1,2.2c-0.2,0.4-0.4,0.8-0.5,1.2c-0.2,0.5-0.4,0.9-0.6,1.4c-0.2,0.4-0.3,0.8-0.5,1.2
		c-0.2,0.4-0.3,0.9-0.5,1.3c-0.1,0.4-0.3,0.9-0.4,1.3c-0.1,0.5-0.3,0.9-0.4,1.4c-0.1,0.4-0.3,0.9-0.4,1.3c-0.1,0.5-0.2,0.9-0.4,1.4
		c-0.1,0.4-0.2,0.9-0.3,1.3c-0.1,0.5-0.2,1-0.3,1.6c-0.1,0.4-0.2,0.8-0.2,1.2c-0.1,0.7-0.2,1.4-0.3,2.1c0,0.2-0.1,0.5-0.1,0.7
		c-3.6,29.2-7.7,63.7-10.7,98.2c-0.7,8.7-1.4,18-1.5,27.6c-0.2,14,0.9,28.7,4.6,43.4l-40.6,57.8l106.8,75l67.3,47.2l41.6-59.3
		c0.7-0.3,1.5-0.6,2.4-1c0,0,0,0,0.1,0C295.4,451.5,295.8,451.3,296.2,451.2z M171.3,336.9l-2.8-7.4c-0.3-0.9-0.6-1.8-0.9-2.7
		c-0.6-1.7-1.1-3.4-1.5-5.1c-0.1-0.2-0.1-0.4-0.2-0.6c-0.6-2.3-1.1-4.6-1.4-6.9c-0.1-0.4-0.1-0.9-0.2-1.3c-0.6-4-0.8-8-0.9-12
		c0-2.2,0-4.3,0.2-6.5c2.3-37.4,6-75.6,9.6-112.4l0.7-7.7l0.5-5.1c0.1-0.6,0.2-1.1,0.3-1.6c0.4-1.6,1.2-2.4,1.6-2.4c0,0,0,0,0,0
		c0.5,0,1.2,0,1.7,0.9c0.4,0.6,0.7,1.7,0.8,3.7c0.1,1.7,0.2,3.4,0.3,5.1c0.4,7.2,0.7,14.4,0.9,21.5c0,0.2,0,0.5,0,0.7
		c0.2,4.5,0.3,9.1,0.5,13.7c0.1,1.7,0.2,3.4,0.2,5c0,0.7,0,1.3,0.1,2l0,0.1l0,0.1c0,1.2,0.1,2.7,0.2,4.3c0.2,3.1,0.8,6.9,2.4,10.6
		l0,0c0,0,0,0,0,0c0,0.1,0.1,0.2,0.1,0.3c3.5,7.9,10.5,12.5,19.6,13.1c4.2,0.2,8.2-0.7,11.8-2.4c6.3-2.8,11.5-7.7,14.7-11.6
		c0.5-0.6,0.9-1.1,1.3-1.6c2.4-3.4,4.8-6.7,7.2-10.1c29.7-41.7,94.1-133.5,94.1-133.5c0.4-0.5,1.1-0.7,1.7-0.5h0
		c1,0.3,1.3,1.5,0.7,2.3c-1,1.4-40.6,57.8-62,88.1c-1.8,2.5-4.9,7-6.5,12.6c-0.2,0.6-0.3,1.1-0.4,1.7c-1.8,8.3,0.7,15.9,7,21.7
		c0.7,0.6,1.4,1.2,2.2,1.8c5.7,4.3,12.2,6.1,18.6,5c5.6-0.9,10-3.7,13.5-7c2.5-2.4,4.6-5,6.2-7.3c5.8-8.3,70.2-100,75.2-107.1
		c0.4-0.5,1-0.7,1.6-0.6h0c1,0.3,1.4,1.4,0.8,2.3c-6.3,8.9-68.3,97.3-73.3,104.5c-1.9,2.6-4.3,6.1-5.9,10.6
		c-1.8,5.1-2.4,11.4,0.2,19.2c3.4,10.2,12.8,15.9,23.5,14.9c0.2,0,0.3,0,0.5,0c0.1,0,0.2,0,0.3,0c1.5-0.2,2.9-0.5,4.4-0.9
		c7.6-2.2,12-6.5,15-10.4c0,0,0,0,0,0c0,0,0-0.1,0.1-0.1c1-1.3,1.8-2.5,2.5-3.5l0.1-0.1c0,0,60.6-87,64.2-92.1
		c0.3-0.4,0.9-0.6,1.4-0.5l0,0c0.8,0.2,1.1,1.2,0.7,1.9c-4.8,7.2-65.4,95.8-65.8,96.3l-0.1,0.1c-1.6,2.2-3.8,5-5.8,8.3
		c-0.1,0.1-0.1,0.2-0.2,0.3c-1.2,2-2.4,4.2-3.3,6.5c-1.8,4.4-2.5,8.7-2.3,12.7c0.4,6.7,3.5,12.6,9.2,16.9c2.1,1.6,4.3,2.7,6.6,3.5
		c3.6,1.3,7.5,1.6,11.3,0.9c3.3-0.6,6.3-1.8,8.9-3.5c6.6-4.2,51.3-67.9,57.2-76.3c0.4-0.5,1.1-0.8,1.7-0.6l0,0
		c1,0.3,1.3,1.5,0.8,2.3c-10.8,15.5-93.9,133.9-99.5,141.6c-0.8,1.2-1.7,2.3-2.5,3.5c-13.8,14.8-26.5,26-37.9,34.9
		c-14,10.9-26.2,18.2-36.3,24.3l0,0l-0.2,0.1c-0.9,0.5-1.7,1-2.6,1.6c-1.3,0.8-2.7,1.6-3.9,2.4l-1.8,1.1l-1,0.6l-7.9,11.3
		l-13.1,18.7l-13.2-9.3l-83.5-58.6l27.9-39.8l3.8-5.5L171.3,336.9z"/>
	<path d="M472.8,298.2c2.5-8.4,4.1-17.2,4.9-27c-9.4,13.8-18.8,27.5-28.2,41.1l24.3,35.4l-113.1,79.4l0.3-0.4
		c-7.6,6.2-14.8,11.5-21.5,16l-0.3,0.3l13.6,19.3l157.6-110.7L472.8,298.2z"/>
	<path d="M156.2,95.9c-1.4-4.7,0.3-7.8,5.5-10.8c4.4-2.6,9.4-4.2,17.4,7.2c3.5,4.9,7,9.9,10.4,14.9c7.2,1.9,13.8,5.3,19.4,9.9
		c1.7,1.4,3.2,2.8,4.7,4.4c1.8-2.6,3.6-5.2,5.5-7.8l0.1-0.1c1.9-2.8,3.9-5.6,5.9-8.4c-10.7-15.2-21.3-30.4-32-45.6
		c-3.2-4.6-4.5-9.1-3.6-12.6c0.8-2.9,3-5.3,6.6-7.1c2.3-1.1,8.4-4.1,16.5,7.4c8.9,12.6,17.8,25.2,26.6,37.8c6-8.5,12-17,18-25.6
		c-1-1.5-2.1-3-3.1-4.5c-2.5-3.5-4.7-6.9-5.9-10.3c-1-2.9-0.7-5.9,0.9-8.6c1.6-2.9,4.5-5,7.7-5.6c6.3-1.3,9.3,1.4,14.3,8.5l0.4,0.6
		c6.8-9.2,14.5-15.9,22.8-20c-15-19.7-34-24.8-53.8-14.4c-6.2,3.3-11.2,8.1-14.3,13.5C211.9,4.7,195.6,3.8,177.6,16
		c-13.6,9.2-19.2,20-18.5,36.6c-10.5,1.9-19.3,7.4-25.1,15.8c-7,10.2-9.1,23.7-5.8,36.6C136.2,99.3,145.8,96.1,156.2,95.9z"/>
	<path d="M69.3,38.6c-4.5-4.3-11.7-4-16,0.5C2.9,92.7,1.1,146,0.9,148.2c-0.1,6.1,4.3,10.9,10.3,11.6c0.5,0.1,0.5,0.1,1.1,0.1
		c6.6,0.2,11.5-4.8,11.6-10.9c0.1-0.5,2.3-47.2,45.9-94.4C74.2,50.1,73.8,42.9,69.3,38.6z"/>
	<path d="M89.6,81.5c-4.5-4.3-11.7-4-16,0.5c-25.5,27.1-26.8,55-26.4,56.2c-0.1,6.1,4.3,10.9,10.3,11.6c0.5,0.1,0.5,0.1,1.1,0.1
		c6.6,0.2,11.5-4.8,11.7-11.4c0,0,1.1-20.3,20.3-40.8C94.4,93.6,94.1,85.9,89.6,81.5z"/>
	<path d="M192,371.9c6.2-0.1,11.6-5.5,11.5-11.7c0-0.8-0.1-57,41.4-92.3c5-4.3,5.3-11.7,1.4-16.3c-0.4-0.4-0.4-0.4-0.8-0.8
		c-4.3-4.2-10.9-4.6-15.5-0.6c-50,42.3-49.4,107.5-49.4,109.8C180.7,366.9,185.8,371.9,192,371.9z"/>
</g>
</svg>
