<?xml version="1.0" encoding="utf-8"?>
<!-- Generator: Adobe Illustrator 21.1.0, SVG Export Plug-In . SVG Version: 6.00 Build 0)  -->
<svg version="1.1" id="Layer_1" xmlns="http://www.w3.org/2000/svg" xmlns:xlink="http://www.w3.org/1999/xlink" x="0px" y="0px"
	 viewBox="0 0 512.7 512.6" style="enable-background:new 0 0 512.7 512.6;" xml:space="preserve">
<g>
	<path d="M174.8,290.2l-18.7,25.2l41.5,41.5l25.2-18.7c-10.2-5.3-19.5-11.8-27.7-20C186.7,309.8,180.1,300.4,174.8,290.2z"/>
	<path d="M23.1,437.6l52.5,52.5l-9.8,10.7c-14.4,15.9-39.6,16.3-54.7,1.2c-15.1-15.1-14.7-39.9,1.2-54.6L23.1,437.6z"/>
	<polygon points="183.4,372.5 90,474.3 38.8,423.2 140.6,329.8 	"/>
	<path d="M317.7,147.6c-0.1-1.9,2.7-4.7,5.5-5.5l54.8-8.7c2.4-0.4,4.4,1.6,4,4s-3.1,5.1-5.5,5.5l-54.9,8.7
		C319.3,152,317.3,150,317.7,147.6z M375.6,180.6c-0.4,2.4-3.1,5.1-5.5,5.5l-54.9,8.7c-2.4,0.4-4.4-1.6-4-4s3.1-5.1,5.5-5.5
		l54.8-8.7C374,176.2,376,178.3,375.6,180.6z M394.6,156.3c-0.4,2.4-3.1,5.1-5.5,5.5l-86.8,14.6c-2.7,0-4.4-1.6-4.3-4.3
		c0.4-2.4,3.1-5.2,5.5-5.5l87.1-14.2C393,151.9,395,153.9,394.6,156.3z"/>
	<path d="M412.1,52c11.1,0,26.5,2.1,36.7,12.4c5.3,5.3,8.9,12.2,10.8,21c2.4,10.6,2.2,23.4-0.6,37.1c-6.6,32.9-27.1,68.5-56.3,97.7
		c-36.3,36.2-82.1,58.8-119.5,58.8c-11.1,0-26.5-2.1-36.7-12.4l-0.1-0.1l-0.1-0.1c-8.3-8.2-12.5-20.5-12.5-36.6
		c-0.1-37.1,22.4-82.7,58.7-119C328.9,74.5,374.6,52,412.1,52 M412.1,0c-49.5,0-108.2,26-156.2,74c-76.2,76.2-96.9,178.8-46,229.3
		c18.7,18.7,44.5,27.6,73.5,27.6c49.5,0,108.2-26,156.2-74c76.1-76.2,96.5-178.8,46-229.3C466.9,8.9,441.1,0,412.1,0L412.1,0z"/>
</g>
</svg>
