<?xml version="1.0" encoding="utf-8"?>
<!-- Generator: Adobe Illustrator 21.1.0, SVG Export Plug-In . SVG Version: 6.00 Build 0)  -->
<svg version="1.1" id="Layer_3" xmlns="http://www.w3.org/2000/svg" xmlns:xlink="http://www.w3.org/1999/xlink" x="0px" y="0px"
	 viewBox="0 0 512 512" style="enable-background:new 0 0 512 512;" xml:space="preserve">
<g id="_x35_2">
	<path d="M272.2,110.9l-14.1,83.3l0,0.3l0,0.3c-2.5,16,1.6,32.7,11.2,45.8c9.4,12.9,23.2,21.4,38.8,24.1l0.3,0.1l1.2,0.2l1.2,0.2
		c2.9,0.4,5.8,0.6,8.7,0.6c27.7,0,52.1-18.7,59.2-45.4l8.5-31.6c3.1,3.7,6.1,7.7,9,12c13.6,20,29.7,53.1,29.7,97.4v16.2H83.8v-16.2
		c0-43.9,18.2-78,33.4-98.8c2.3-3.2,4.6-6.1,6.9-8.9l8,29.9l0,0l0,0c7.2,26.8,31.5,45.4,59.2,45.4c3.3,0,6.6-0.3,9.8-0.8
		c33.1-5.3,55.8-36.6,50.8-69.9l0-0.2l0-0.2l-13.6-83.8H272.2 M285.7,65.9h-60.8c-20.5,0-33.1,14-36.3,20.5L207.4,202
		c1.4,9-4.7,17.3-13.4,18.7c-0.9,0.1-1.7,0.2-2.6,0.2c-7.2,0-13.8-5-15.7-12.1l-25.1-94.3c-32.9,9.2-111.7,80.3-111.7,183.8h-8
		c-17.2,0-31,13.8-30.8,30.8c0.2,17,13.8,30.4,30.6,30.4h450.6c17,0,30.8-13.8,30.8-30.6c0-17-13.8-30.6-30.8-30.6h-10.3
		c0-96.9-63.1-169-110.3-183.8l-25.3,94.3c-1.9,7.2-8.5,12.1-15.8,12.1c-0.8,0-1.6-0.1-2.3-0.2l-1-0.2c-9-1.4-15-9.9-13.6-18.7
		L322,86.4C318.7,80,303.7,65.9,285.7,65.9L285.7,65.9z"/>
	<g>
		<path d="M479.9,447H32.1C14.4,447,0,432.6,0,414.9v0c0-17.7,14.4-32.1,32.1-32.1h447.9c17.7,0,32.1,14.4,32.1,32.1v0
			C512,432.6,497.6,447,479.9,447z"/>
	</g>
</g>
</svg>
