<?xml version="1.0" encoding="utf-8"?>
<!-- Generator: Adobe Illustrator 21.1.0, SVG Export Plug-In . SVG Version: 6.00 Build 0)  -->
<svg version="1.1" id="Layer_1" xmlns="http://www.w3.org/2000/svg" xmlns:xlink="http://www.w3.org/1999/xlink" x="0px" y="0px"
	 viewBox="0 0 504.2 512" style="enable-background:new 0 0 504.2 512;" xml:space="preserve">
<style type="text/css">
	.st0{fill:#010101;}
</style>
<g>
	<path d="M467.3,359c-4.3-59.4-23.3-122.7-53.3-173c-39.9-66.5-95.8-106-161.7-106c-65.9,0-121.9,39.5-161.7,106
		c-30.1,50.3-49.1,113.5-53.4,173C17,359.9,1,376.5,1,396.9v89C1,500.4,12.7,512,27.1,512h450.7c14.4,0,26.1-11.7,26.1-26.1v-89
		C503.9,376.4,487.6,359.7,467.3,359z M135.1,212.7c22.1-36.8,60.3-80.7,117.1-80.7c56.8,0,95,43.9,117.1,80.7
		c7,11.8,13.6,24.8,19.3,38.5l-14.1,13.1L344,235.8l-30.6,28.5l-30.6-28.5l-30.6,28.5l-30.6-28.5l-30.6,28.5l-30.6-28.5L130,264.4
		l-14.2-13.2C121.6,237.5,128.1,224.5,135.1,212.7z M103.7,284.7l26.8,25l30.6-28.5l30.6,28.5l30.6-28.5l30.6,28.5l30.6-28.5
		l30.6,28.5l30.6-28.5l30.6,28.5l25.9-24.2c7.6,25,12.5,51.3,14.4,76.2H89.1C91,336.6,96,310,103.7,284.7z M451.9,460H53v-49.7
		l398.9,0.1V460z"/>
	<path class="st0" d="M252.2,80c-22.1,0-40-17.9-40-40s17.9-40,40-40s40,17.9,40,40S274.3,80,252.2,80z"/>
</g>
</svg>
