<?xml version="1.0" encoding="utf-8"?>
<!-- Generator: Adobe Illustrator 21.1.0, SVG Export Plug-In . SVG Version: 6.00 Build 0)  -->
<svg version="1.1" id="Layer_1" xmlns="http://www.w3.org/2000/svg" xmlns:xlink="http://www.w3.org/1999/xlink" x="0px" y="0px"
	 viewBox="0 0 550 512" style="enable-background:new 0 0 550 512;" xml:space="preserve">
<g>
	<path d="M498.2,211.8c0-108.1-83.7-200-222.1-200s-224,91.7-224,199.9c-6.7,3.3-11.6,8.4-13.5,14.7h-0.1V346h0.1
		c3.2,10.3,14.1,18.1,27.7,18.1c15.4,0,28-9.8,29-22.2c9.2-4.6,15.5-14.1,15.5-25.1v-58.4c0-11-6.3-20.4-15.4-25.1v-1.3
		c0-7.5-4.5-14-11.1-18.3c0.2-0.9-9.2-1.8-9-2.7c15.5-93.7,81.2-155.3,201-155.3s186.8,69.7,198.4,154.7c0.2,1.2-9,2.2-8.8,3.4
		c-7.1,4.7-10.3,9.3-11.5,20.3c-8.3,4.9-13.8,13.9-13.8,24.2v58.4c0,10.5,5.8,19.6,14.3,24.4c0.4,7.8,5.7,14.4,13.2,18.5v18.1
		c0,62.7-75.5,66.5-162.5,85.4c-19-16.8-52.5-5.7-52.5,16.8c0,28.3,49.5,34.9,59.2,6.5c90.1-19.5,185.1-26.9,185.1-108.6v-16.6
		c7.3-3.1,12.5-8.6,14.6-15.2V226.5C509.8,220.2,505,215,498.2,211.8z"/>
	<path d="M0.4,286.2c0,32.7-4.5,59.2,35.2,59.8V226.4C-4.2,227,0.4,253.5,0.4,286.2z"/>
	<path d="M514.7,226.5V346c39.8-0.7,35.2-27.1,35.2-59.8S554.5,227.2,514.7,226.5z"/>
</g>
</svg>
