<?xml version="1.0" encoding="utf-8"?>
<!-- Generator: Adobe Illustrator 21.1.0, SVG Export Plug-In . SVG Version: 6.00 Build 0)  -->
<svg version="1.1" id="Layer_2" xmlns="http://www.w3.org/2000/svg" xmlns:xlink="http://www.w3.org/1999/xlink" x="0px" y="0px"
	 viewBox="0 0 560.9 512" style="enable-background:new 0 0 560.9 512;" xml:space="preserve">
<path d="M513.1,48C482.1,17.2,441.1,0.1,397.4,0.1s-84.7,17-115.6,47.9l-1.4,1.4l-1.4-1.4C248.1,17.2,207.1,0.1,163.4,0.1
	S78.7,17.2,47.9,48C17,78.9,0,119.9,0,163.6s17,84.7,47.9,115.7L280.5,512l229.4-229.5l27.4-34.4l1-1.7
	C576,182.3,565.7,100.7,513.1,48z M280.8,438.7c0,0-70.8-70.2-138.8-138.6c-55.2-55.5-90.3-75.6-90.3-134.7
	c0-59.8,45.6-113.2,113.3-113.2c73.2,0,70.7,49.1,116.5,49.1c45.8,0,36.9-49.1,119.5-49.1c51.2,0,108.7,44.2,108.7,113.5
	c0,8.8-0.7,16.5-2,23.6H395.3l-39.1,42.7l-75-104.5l-63.9,90.8h-23.8l-1-1.7c-6.6-11.5-19.1-18.6-32.3-18.6
	c-20.7,0-37.5,16.8-37.5,37.5s16.8,37.5,37.5,37.5c13.3,0,25.7-7.2,32.4-18.6l1-1.7h47.3l34.7-51.1l71.2,93.8l69.6-71.8h76.1
	c-12.7,17.8-32.6,35.6-60.5,64.5C362.9,359.6,280.8,438.7,280.8,438.7z"/>
</svg>
