<?xml version="1.0" encoding="utf-8"?>
<!-- Generator: Adobe Illustrator 21.1.0, SVG Export Plug-In . SVG Version: 6.00 Build 0)  -->
<svg version="1.1" id="Shape_1_1_" xmlns="http://www.w3.org/2000/svg" xmlns:xlink="http://www.w3.org/1999/xlink" x="0px" y="0px"
	 viewBox="0 0 512 512" style="enable-background:new 0 0 512 512;" xml:space="preserve">
<g>
	<g>
		<path d="M256,0C114.6,0,0,114.6,0,256s114.6,256,256,256s256-114.6,256-256S397.4,0,256,0z M256,460.8
			c-113.1,0-204.8-91.7-204.8-204.8S142.9,51.2,256,51.2S460.8,142.9,460.8,256S369.1,460.8,256,460.8z"/>
		<path d="M316.9,195.1c8.3,0,15.9,3.1,21.8,9c9.4,9.4,11.6,23.7,5.7,35.5l-9.4,11.8l-77.4,77.4l-81.1-81.1c-5.9-5.9-9-13.5-9-21.8
			c0-8.4,3.1-15.9,9-21.8c5.9-5.9,13.4-9,21.8-9c8.3,0,15.9,3.1,21.9,9.1l0.7,0.7l36.8,36.8l36.8-36.8l0.7-0.7
			C301,198.2,308.5,195.1,316.9,195.1 M316.9,143.1c-22.1,0-42.9,8.6-58.5,24.3l-0.7,0.7l-0.7-0.7c-15.7-15.6-36.5-24.3-58.6-24.3
			c-22.1,0-42.9,8.6-58.5,24.3c-15.7,15.7-24.3,36.5-24.3,58.6c0,22.1,8.6,42.9,24.3,58.6l117.8,117.9l116.2-116.3l13.9-17.4
			l0.5-0.9c19.1-32.5,13.9-73.8-12.8-100.5C359.8,151.7,339,143.1,316.9,143.1L316.9,143.1z"/>
	</g>
</g>
</svg>
