<?xml version="1.0" encoding="utf-8"?>
<!-- Generator: Adobe Illustrator 21.1.0, SVG Export Plug-In . SVG Version: 6.00 Build 0)  -->
<svg version="1.1" id="Layer_2" xmlns="http://www.w3.org/2000/svg" xmlns:xlink="http://www.w3.org/1999/xlink" x="0px" y="0px"
	 viewBox="0 0 560.5 512" style="enable-background:new 0 0 560.5 512;" xml:space="preserve">
<path d="M512.7,48.3C481.8,17.6,440.8,0.5,397.1,0.5c-43.7,0-84.7,17.1-115.5,47.8l-1.4,1.4l-1.4-1.4C248,17.6,206.9,0.5,163.3,0.5
	c-43.6,0-84.7,17.1-115.5,47.8C17,79.2,0,120.3,0,163.9c0,43.6,17,84.7,47.8,115.6L280.3,512l229.2-229.3l27.4-34.3l1-1.7
	C575.6,182.6,565.3,101,512.7,48.3z M141.8,300.2c-55.2-55.5-90.3-75.5-90.3-134.6c0-59.9,45.5-113.2,113.3-113.2
	c58.9,0,68.7,31.8,94.2,44.2l0.6,58.9l77,63.8l-141.6,82.9c-5.8,3.4-5.7,15.8,0.2,19l111.4,60.9v31.4c-16,15.6-26,25.2-26,25.2
	S209.8,368.6,141.8,300.2z M431.5,288.2c-29.5,30.6-61.5,62.7-88.4,89.3v-28l-74-37.4l124.7-77.5c5.1-3.2,5.6-13.9,0.8-18.1
	l-96.3-86V98.6c28-10.5,31.9-46.2,102.2-46.2c51.2,0,108.5,44.1,108.5,113.5C509.2,218.7,484.9,232.8,431.5,288.2z"/>
</svg>
