<?xml version="1.0" encoding="utf-8"?>
<!-- Generator: Adobe Illustrator 21.1.0, SVG Export Plug-In . SVG Version: 6.00 Build 0)  -->
<svg version="1.1" id="Layer_2" xmlns="http://www.w3.org/2000/svg" xmlns:xlink="http://www.w3.org/1999/xlink" x="0px" y="0px"
	 viewBox="0 0 560.5 512" style="enable-background:new 0 0 560.5 512;" xml:space="preserve">
<path d="M512.7,48.3C481.8,17.6,440.8,0.5,397.1,0.5s-84.7,17.1-115.5,47.8l-1.4,1.4l-1.4-1.4C248,17.6,206.9,0.5,163.3,0.5
	S78.6,17.6,47.8,48.3C17,79.2,0,120.3,0,163.9s17,84.7,47.8,115.6L280.3,512l229.2-229.3l27.4-34.3l1-1.7
	C575.6,182.6,565.3,101,512.7,48.3z M431.5,288.2c-68.9,71.5-151,150.5-151,150.5s-70.7-70.1-138.7-138.5
	c-55.2-55.5-90.3-75.5-90.3-134.6c0-59.9,45.5-113.2,113.3-113.2c73.2,0,70.6,49.1,116.4,49.1s36.9-49.1,119.4-49.1
	c51.2,0,108.5,44.1,108.5,113.5C509.2,218.7,484.9,232.8,431.5,288.2z"/>
</svg>
