<?xml version="1.0" encoding="utf-8"?>
<!-- Generator: Adobe Illustrator 21.1.0, SVG Export Plug-In . SVG Version: 6.00 Build 0)  -->
<svg version="1.1" id="Layer_1" xmlns="http://www.w3.org/2000/svg" xmlns:xlink="http://www.w3.org/1999/xlink" x="0px" y="0px"
	 viewBox="0 0 776.5 512" style="enable-background:new 0 0 776.5 512;" xml:space="preserve">
<style type="text/css">
	.st0{fill:none;}
</style>
<g>
	<path d="M30.2,404.6C13.5,404.6,0,418.1,0,434.8S13.5,465,30.2,465s30.2-13.5,30.2-30.2C60.4,418.1,46.8,404.6,30.2,404.6
		L30.2,404.6z M39,415.4c-1.8,0-3.3-1.5-3.3-3.3s1.5-3.3,3.3-3.3s3.3,1.5,3.3,3.3C42.3,414,40.8,415.4,39,415.4L39,415.4z
		 M27.2,417.2c-1.8,0-3.3-1.5-3.3-3.3s1.5-3.3,3.3-3.3s3.3,1.5,3.3,3.3S29.1,417.2,27.2,417.2L27.2,417.2z M47.5,425.2
		c-1.8,0-3.3-1.5-3.3-3.3s1.5-3.3,3.3-3.3s3.3,1.5,3.3,3.3S49.3,425.2,47.5,425.2L47.5,425.2z M33.8,426c-1.8,0-3.3-1.5-3.3-3.3
		s1.5-3.3,3.3-3.3s3.3,1.5,3.3,3.3S35.7,426,33.8,426L33.8,426z M10.3,426c-1.8,0-3.3-1.5-3.3-3.3s1.5-3.3,3.3-3.3s3.3,1.5,3.3,3.3
		S12.1,426,10.3,426L10.3,426z M21.8,426.9c-1.8,0-3.3-1.5-3.3-3.3s1.5-3.3,3.3-3.3s3.3,1.5,3.3,3.3S23.6,426.9,21.8,426.9
		L21.8,426.9z M50.8,435.5c-1.8,0-3.3-1.5-3.3-3.3s1.5-3.3,3.3-3.3s3.3,1.5,3.3,3.3S52.6,435.5,50.8,435.5L50.8,435.5z M39.8,436.6
		c-1.8,0-3.3-1.5-3.3-3.3s1.5-3.3,3.3-3.3s3.3,1.5,3.3,3.3S41.6,436.6,39.8,436.6L39.8,436.6z M27.9,436.6c-1.8,0-3.3-1.5-3.3-3.3
		s1.5-3.3,3.3-3.3s3.3,1.5,3.3,3.3C31.2,435.1,29.7,436.6,27.9,436.6L27.9,436.6z M15.6,437.2c-1.8,0-3.3-1.5-3.3-3.3
		s1.5-3.3,3.3-3.3s3.3,1.5,3.3,3.3S17.4,437.2,15.6,437.2L15.6,437.2z M5.7,439.2c-1.8,0-3.3-1.5-3.3-3.3s1.5-3.3,3.3-3.3
		s3.3,1.5,3.3,3.3S7.6,439.2,5.7,439.2L5.7,439.2z M46.4,445.8c-1.8,0-3.3-1.5-3.3-3.3s1.5-3.3,3.3-3.3s3.3,1.5,3.3,3.3
		S48.2,445.8,46.4,445.8L46.4,445.8z M33.8,447.2c-1.8,0-3.3-1.5-3.3-3.3s1.5-3.3,3.3-3.3s3.3,1.5,3.3,3.3S35.7,447.2,33.8,447.2
		L33.8,447.2z M21.8,447.3c-1.8,0-3.3-1.5-3.3-3.3s1.5-3.3,3.3-3.3s3.3,1.5,3.3,3.3S23.6,447.3,21.8,447.3L21.8,447.3z M9.9,447.8
		c-1.8,0-3.3-1.5-3.3-3.3s1.5-3.3,3.3-3.3s3.3,1.5,3.3,3.3S11.7,447.8,9.9,447.8L9.9,447.8z M39.8,457.4c-1.8,0-3.3-1.5-3.3-3.3
		s1.5-3.3,3.3-3.3s3.3,1.5,3.3,3.3S41.6,457.4,39.8,457.4L39.8,457.4z M15.6,457.4c-1.8,0-3.3-1.5-3.3-3.3s1.5-3.3,3.3-3.3
		s3.3,1.5,3.3,3.3S17.4,457.4,15.6,457.4L15.6,457.4z M27.2,458c-1.8,0-3.3-1.5-3.3-3.3s1.5-3.3,3.3-3.3s3.3,1.5,3.3,3.3
		S29.1,458,27.2,458L27.2,458z"/>
	<path d="M746.8,404.6c-16.7,0-30.2,13.5-30.2,30.2s13.5,30.2,30.2,30.2s30.2-13.5,30.2-30.2S763.5,404.6,746.8,404.6L746.8,404.6z
		 M738,415.4c-1.8,0-3.3-1.5-3.3-3.3s1.5-3.3,3.3-3.3s3.3,1.5,3.3,3.3C741.3,414,739.8,415.4,738,415.4L738,415.4z M749.8,417.2
		c-1.8,0-3.3-1.5-3.3-3.3s1.5-3.3,3.3-3.3s3.3,1.5,3.3,3.3C753,415.7,751.6,417.2,749.8,417.2L749.8,417.2z M729.5,425.2
		c-1.8,0-3.3-1.5-3.3-3.3s1.5-3.3,3.3-3.3s3.3,1.5,3.3,3.3S731.3,425.2,729.5,425.2L729.5,425.2z M766.6,426c-1.8,0-3.3-1.5-3.3-3.3
		s1.5-3.3,3.3-3.3s3.3,1.5,3.3,3.3S768.5,426,766.6,426L766.6,426z M743.1,426c-1.8,0-3.3-1.5-3.3-3.3s1.5-3.3,3.3-3.3
		s3.3,1.5,3.3,3.3S745,426,743.1,426L743.1,426z M755.1,426.9c-1.8,0-3.3-1.5-3.3-3.3s1.5-3.3,3.3-3.3s3.3,1.5,3.3,3.3
		C758.5,425.4,757,426.9,755.1,426.9L755.1,426.9z M726.1,435.5c-1.8,0-3.3-1.5-3.3-3.3s1.5-3.3,3.3-3.3s3.3,1.5,3.3,3.3
		C729.5,434,728,435.5,726.1,435.5L726.1,435.5z M749.1,436.6c-1.8,0-3.3-1.5-3.3-3.3s1.5-3.3,3.3-3.3s3.3,1.5,3.3,3.3
		S750.9,436.6,749.1,436.6L749.1,436.6z M737.2,436.6c-1.8,0-3.3-1.5-3.3-3.3s1.5-3.3,3.3-3.3s3.3,1.5,3.3,3.3
		S739,436.6,737.2,436.6L737.2,436.6z M761.4,437.2c-1.8,0-3.3-1.5-3.3-3.3s1.5-3.3,3.3-3.3s3.3,1.5,3.3,3.3
		C764.6,435.7,763.2,437.2,761.4,437.2L761.4,437.2z M771.2,439.2c-1.8,0-3.3-1.5-3.3-3.3s1.5-3.3,3.3-3.3s3.3,1.5,3.3,3.3
		S773.1,439.2,771.2,439.2L771.2,439.2z M730.6,445.8c-1.8,0-3.3-1.5-3.3-3.3s1.5-3.3,3.3-3.3s3.3,1.5,3.3,3.3
		C733.8,444.3,732.4,445.8,730.6,445.8L730.6,445.8z M743.1,447.2c-1.8,0-3.3-1.5-3.3-3.3s1.5-3.3,3.3-3.3s3.3,1.5,3.3,3.3
		S745,447.2,743.1,447.2L743.1,447.2z M755.1,447.3c-1.8,0-3.3-1.5-3.3-3.3s1.5-3.3,3.3-3.3s3.3,1.5,3.3,3.3
		C758.5,445.8,757,447.3,755.1,447.3L755.1,447.3z M767.1,447.8c-1.8,0-3.3-1.5-3.3-3.3s1.5-3.3,3.3-3.3s3.3,1.5,3.3,3.3
		S768.9,447.8,767.1,447.8L767.1,447.8z M761.4,457.4c-1.8,0-3.3-1.5-3.3-3.3s1.5-3.3,3.3-3.3s3.3,1.5,3.3,3.3
		C764.6,455.9,763.2,457.4,761.4,457.4L761.4,457.4z M737.2,457.4c-1.8,0-3.3-1.5-3.3-3.3s1.5-3.3,3.3-3.3s3.3,1.5,3.3,3.3
		S739,457.4,737.2,457.4L737.2,457.4z M749.8,458c-1.8,0-3.3-1.5-3.3-3.3s1.5-3.3,3.3-3.3s3.3,1.5,3.3,3.3
		C753,456.5,751.6,458,749.8,458L749.8,458z"/>
	<path d="M548.2,439.2c-0.1,0-0.2,0-0.2,0c-6.2,0-11.2,5.2-11.1,11.4v15.6L494.5,445h-50.2l98.8,49.5c1.7,0.8,3.4,1.2,5,1.2
		c5.9,0,11.3-4.7,11.3-11.3v-33.8C559.5,444.3,554.4,439.2,548.2,439.2z"/>
	<line class="st0" x1="400.6" y1="445" x2="400.7" y2="445"/>
	<path d="M242.1,466.2v-15.6c0.1-6.3-5-11.4-11.3-11.4c-0.1,0-0.1,0-0.2,0c-6.2,0-11.2,5.2-11.1,11.4v33.8c0,6.5,5.3,11.3,11.2,11.3
		c1.7,0,3.4-0.4,5-1.2l98.8-49.5h-50.2L242.1,466.2z"/>
	<path d="M400.6,463.8V445h-22.4v19.1c-8.3,4.2-14,12.8-14,22.8c0,14.1,11.4,25.5,25.5,25.5s25.5-11.4,25.5-25.5
		C415.2,476.7,409.2,467.9,400.6,463.8z"/>
	<path d="M758.8,337.4v-17.6H512.4v-46.7v-13.9c0.1-79.9-39.3-134.6-88-134.6h-24.3V89.8h13.8l271.9,51.3c0.7,0.2,1.5,0.2,2.2,0.2
		c4.7,0,9-3.3,10-8.1c1.2-5.6-2.3-11-7.9-12.2c-0.2,0-0.3-0.1-0.5-0.1L524.8,89.8h163h0.1c5.6,0,10.2-4.5,10.3-10.1
		c0.1-5.7-4.5-10.3-10.1-10.4H688h-0.1H420.6V57.9c0-14.1-11.5-25.6-25.6-25.7V13.8h94.1c1.4,3.2,4.6,5.4,8.3,5.4h30
		c5,0,9.1-4.1,9.1-9.1S532.4,1,527.4,1h-30c-3.7,0-6.9,2.2-8.3,5.4H289.7c-1.4-3.2-4.6-5.4-8.3-5.4h-30c-5,0-9.1,4.1-9.1,9.1
		s4.1,9.1,9.1,9.1h30c3.7,0,6.9-2.2,8.3-5.4h94.2v18.4c-13.8,0.4-25,11.8-25,25.7v11.4H91.8h-0.1c-5.6,0-10.2,4.5-10.3,10.1
		c-0.1,5.7,4.5,10.3,10.1,10.4h0.1h0.1h162.8L90,120.9c-5.6,0.9-9.4,6.2-8.5,11.8c0.8,5.1,5.2,8.6,10.1,8.6c0.5,0,1.1,0,1.6-0.1
		c0.2,0,0.4-0.1,0.6-0.1l271.8-51.3h13.9v34.8h-13.3c-48.7,0-88.1,54.7-88.1,134.6v13.9v46.7h-260v17.5c0,0,2.3,0.3,6.6,0.8v48l0,0
		v0.1c0,1.2,5,2.3,11.8,2.6l1.2,13.5c-1,0.2-2.1,0.5-3.2,0.7c15.7,2.1,27.8,15.5,27.8,31.8c0,7.9-2.9,15.2-7.7,20.8
		c14-1.6,24.8-13.4,24.8-27.8c-0.1-15.5-12.6-28-28.1-28c-1,0-3.4,0.4-6.4,1l-1.1-11.9c7.4-0.2,13.1-1.3,13.1-2.7v-0.1l0,0v-44
		c15.3,1.8,34.3,4.1,55.6,6.5V368c-12.8,3.7-22.1,15.5-22.1,29.5c0,17,13.7,30.7,30.7,30.7s30.7-13.7,30.7-30.7
		c0-13.8-9-25.4-21.5-29.3v-17.6c18.7,2,38.7,4.1,59.1,6.1V368c-12.8,3.7-22.1,15.5-22.1,29.5c0,17,13.7,30.7,30.7,30.7
		s30.7-13.7,30.7-30.7c0-13.8-9-25.4-21.5-29.3v-9.8c25.6,2.4,51.4,4.6,75.7,6.3c9.4,36.5,31.4,62.2,57.1,62.2h110.5
		c25.9,0,48.1-26.1,57.3-63.1c21.3-1.5,43.3-3.4,65.2-5.5v9.7c-12.8,3.7-22.1,15.5-22.1,29.5c0,17,13.7,30.7,30.7,30.7
		s30.7-13.7,30.7-30.7c0-13.8-9.1-25.5-21.6-29.3v-11.6c20.5-2,40.5-4.1,59.2-6.2V368c-12.8,3.7-22.1,15.5-22.1,29.5
		c0,17,13.7,30.7,30.7,30.7s30.7-13.7,30.7-30.7c0-13.8-9.1-25.5-21.6-29.3v-19.7c20-2.3,37.9-4.4,52.5-6.2v43.8l0,0v0.1
		c0,1.3,5.6,2.4,13.1,2.7l-1.1,11.9c-3-0.6-5.4-1-6.4-1c-15.5,0-28,12.5-28,28c0,14.4,10.8,26.2,24.8,27.8
		c-4.8-5.6-7.7-12.9-7.7-20.8c0-16.3,12.1-29.7,27.8-31.8c-1.1-0.2-2.2-0.5-3.3-0.7l1.2-13.5c6.8-0.3,11.8-1.4,11.8-2.6
		c0-0.1,0-0.2-0.1-0.3v-47.6C756.5,337.7,758.8,337.4,758.8,337.4z M383.5,57.9c0-3,2.2-5.1,5.1-5.1h2.3c3,0,5.1,2.2,5.1,5.1v11.4
		h-12.5V57.9z M460.5,273.1v52.2c0,27.4-9.3,44.5-14,49.6H344.2c-4.8-5.2-14-22.2-14-49.6v-52.2v-13.9c0-27.4,6.2-52.2,16.9-68.2
		c2.9-4.3,10.6-14.4,19.2-14.4h58.1l0,0c8.6,0,16.3,10.1,19.2,14.4c10.8,16,16.9,40.8,16.9,68.2L460.5,273.1L460.5,273.1z"/>
	<path d="M336.6,242.5v68.7c0,0,22-12,59-12s59,12,59,12v-68.7c0,0-26-12-59-12S336.6,242.5,336.6,242.5z"/>
</g>
</svg>
