<?xml version="1.0" encoding="utf-8"?>
<!-- Generator: Adobe Illustrator 22.0.1, SVG Export Plug-In . SVG Version: 6.00 Build 0)  -->
<svg version="1.1" id="Layer_2" xmlns="http://www.w3.org/2000/svg" xmlns:xlink="http://www.w3.org/1999/xlink" x="0px" y="0px"
	 viewBox="0 0 512 512" style="enable-background:new 0 0 512 512;" xml:space="preserve">
<style type="text/css">
	.st0{fill:#010101;}
</style>
<path class="st0" d="M502.8,259.6l-20.4-0.1l-1.2-22c-3.1-57.3-21.9-106.9-55.9-147.5C375.1,30.1,314.8,0,245.5,0
	c-18.5,0-37.6,2.1-57.4,6.4C93.9,27,19.9,106.2,4,203.5c0,0-20.3,93.8,30.9,159.1c25.5,32.6,63.2,49.9,100.9,49.9
	c14.8,0,29.7-2.7,44-8.3l101,105c1.7,1.8,4.1,2.8,6.5,2.8h166.9c42.8,0,50.8-39.4,52.2-51.5c2.9-25,0.2-97.4,0-100.4
	c-0.2-4.9-4.2-8.8-9.1-8.8H245.7c9.2-14.1,16.3-30.4,21.3-48.9c1.9-7.1,4.4-23.7,4.6-24.6l231.2,0.1h0.1c5,0,9.1-4.1,9.1-9.1
	C512,263.7,507.9,259.6,502.8,259.6z M207.8,266.3c-8.4,0-15.1-6.7-15.1-15.1s6.7-15.1,15.1-15.1c8.4,0,15.1,6.7,15.1,15.1
	S216.2,266.3,207.8,266.3z M247.1,439.6l66.3,0c-1.7,24.7-6.9,41.7-17.6,50.9L247.1,439.6z M487.6,373.4c0.3,10.4,0.8,24.5,1,42.2
	h-51.9c-0.1-18.2-1.6-30.9-2.8-42.2H487.6z M436.4,441.7h51.9c-0.1,10-0.5,11-1.2,16.8c-1.5,13.3-8.1,35.5-34.4,35.5h-30.1
	C431.6,478.6,435.3,464.2,436.4,441.7z M412,373.4c1.7,14.6,2.7,26.6,2.7,42.2h-78.6c0.1-18.6-1.3-31.5-2.6-42.2H412z M335.8,439.7
	h78.4c-1.6,30.8-7.8,50.4-21.3,54.3h-72.7C330,478.2,334.4,461.9,335.8,439.7z M314.7,415.6h-90.8L202.5,393
	c10.3-6.4,18.7-13.3,25.4-19.7l84.2,0.1C313.8,387.4,314.8,399.5,314.7,415.6z M113.8,225c-6,0-10.8,4.9-10.9,10.9v30.2
	c0,6,4.8,10.9,10.9,10.9h106.4c-0.7,4.6-1.4,8.4-2.3,11.6c-3.5,13-8.5,24.4-14.7,33.8l-0.2,0.1l-0.7,1.3c-1.9,2.7-15.2,21-39.8,31.2
	c-8.3,3.3-17,5-26,5c-23.1,0-45.3-11.1-61-30.5c-13.3-16.4-28.7-47.9-24-92.3c6.9-64.9,27.2-97.9,53.5-126
	C131.1,83.5,177,51.5,247,51.5c114.2,0,184,115.2,184,173.7C412,225.2,113.8,225,113.8,225z M165.9,251.2c0,8.4-6.7,15.1-15.1,15.1
	c-8.4,0-15.1-6.7-15.1-15.1s6.7-15.1,15.1-15.1C159.1,236.1,165.9,242.9,165.9,251.2z"/>
</svg>
