<?xml version="1.0" encoding="utf-8"?>
<!-- Generator: Adobe Illustrator 21.1.0, SVG Export Plug-In . SVG Version: 6.00 Build 0)  -->
<svg version="1.1" id="Layer_2" xmlns="http://www.w3.org/2000/svg" xmlns:xlink="http://www.w3.org/1999/xlink" x="0px" y="0px"
	 viewBox="0 0 512 512" style="enable-background:new 0 0 512 512;" xml:space="preserve">
<path d="M256,0C114.6,0,0,114.6,0,256s114.6,256,256,256c141.4,0,256-114.6,256-256S397.4,0,256,0z M393.9,243.9l62.8-24.4
	c2.1,11.9,3.3,24.1,3.3,36.6c0,12.1-1.1,23.9-3.1,35.4l-62.9-24c0.3-3.8,0.5-7.6,0.5-11.4C394.5,251.9,394.3,247.9,393.9,243.9z
	 M441.3,170.7l-61.3,23.8c-13.5-27.2-35.7-49.3-62.9-62.8l23.5-61.4C385,90.6,420.9,126.3,441.3,170.7z M256,342.5
	c-47.8,0-86.5-38.7-86.5-86.5s38.7-86.5,86.5-86.5s86.5,38.7,86.5,86.5S303.8,342.5,256,342.5z M291.8,55.1l-24,62.9
	c-3.9-0.3-7.8-0.5-11.8-0.5c-3.8,0-7.6,0.2-11.4,0.5l-24.5-62.9c11.6-2.1,23.6-3.1,35.9-3.1C268.2,52,280.2,53.1,291.8,55.1z
	 M171.3,70.3l23.8,61.2c-27.3,13.4-49.5,35.5-63.1,62.6l-61.4-23.5C91,126.4,126.9,90.6,171.3,70.3z M52,256
	c0-12.5,1.1-24.7,3.3-36.5l62.8,24c-0.4,4.1-0.6,8.3-0.6,12.5c0,3.7,0.2,7.4,0.4,11.1l-62.9,24.5C53.1,280,52,268.1,52,256z
	 M70.2,340.4l61.2-23.8c13.4,27.5,35.7,49.9,63.1,63.5l-23.5,61.4C126.5,421.1,90.5,385.1,70.2,340.4z M219.9,456.8l24-62.9
	c4,0.3,8.1,0.5,12.1,0.5c4,0,7.9-0.2,11.8-0.5l24.4,62.8c-11.8,2.1-23.9,3.2-36.3,3.2C243.7,460,231.6,458.9,219.9,456.8z
	 M341.1,441.5l-23.8-61.3c27.4-13.5,49.7-35.9,63.2-63.4l61.4,23.4C421.5,384.9,385.6,421,341.1,441.5z"/>
</svg>
