<?xml version="1.0" encoding="utf-8"?>
<!-- Generator: Adobe Illustrator 21.1.0, SVG Export Plug-In . SVG Version: 6.00 Build 0)  -->
<svg version="1.1" id="Layer_2" xmlns="http://www.w3.org/2000/svg" xmlns:xlink="http://www.w3.org/1999/xlink" x="0px" y="0px"
	 viewBox="0 0 512 512" style="enable-background:new 0 0 512 512;" xml:space="preserve">
<g id="_x35_2">
	<g>
		<polygon points="40.5,446.2 0,489.8 103.1,512 108.9,505.5 40.5,446.2 		"/>
	</g>
	<path d="M503.7,69.4L432.3,7.7c-5.9-5.1-13-7.7-20-7.7c-8.2,0-16.4,3.5-22.5,10.4L66.1,325c-0.2,0.2-0.3,0.4-0.5,0.6
		c-10.3,11.9-15.1,28.5-14.7,45.1c0,1.1,0.1,2.2,0.1,3.3l3.7,56.8l-8.8,9.4l68.3,59.2l8.7-9.7l57.7-3.7c18.2-1.1,33-8.1,44.2-23.8
		l281.7-351C514.8,98.7,513.6,80.8,503.7,69.4z M184.2,429.7l-1,1.2l-0.9,1.3c-0.6,0.9-1,1.3-1.2,1.4c-0.4,0.1-1.7,0.5-3.9,0.6
		l-54.9,3.5l-16-13.9l-3.5-53.1c0-0.4,0-0.9-0.1-1.3c-0.1-4.6,1-7.9,1.7-9.2l19.1-18.6l72.8,72.8L184.2,429.7z M229.2,373.6
		L161,305.3L413.3,60l39.9,34.5L229.2,373.6z"/>
</g>
</svg>
