<?xml version="1.0" encoding="utf-8"?>
<!-- Generator: Adobe Illustrator 21.1.0, SVG Export Plug-In . SVG Version: 6.00 Build 0)  -->
<svg version="1.1" id="Layer_1" xmlns="http://www.w3.org/2000/svg" xmlns:xlink="http://www.w3.org/1999/xlink" x="0px" y="0px"
	 viewBox="0 0 344.9 512" style="enable-background:new 0 0 344.9 512;" xml:space="preserve">
<style type="text/css">
	.st0{fill-rule:evenodd;clip-rule:evenodd;}
</style>
<g id="_x35_2" transform="translate(0,-952.36216)">
	<path d="M188.6,952.4c-29,0-52.5,23.6-52.5,52.5c0,29.1,23.6,52.5,52.5,52.5c29.1,0,52.8-23.4,52.8-52.5
		C241.3,975.9,217.7,952.4,188.6,952.4z"/>
	<path d="M90.1,1263.4l-19.7,87.1l-57.8,67.3c-10.1,11.7-8.8,29.5,2.9,39.6c11.6,10.1,29.4,8.9,39.6-2.8l62.7-73
		c3.2-3.8,5.4-8.3,6.3-13l0.1-0.6l11.7-44.7L90.1,1263.4z"/>
	<path d="M334.8,1461.4c-6.1,0.4-11.4-4.5-11.8-10.9l-15.7-217.9c-14.7-2.6-36-7-46.3-10.8l-0.7-0.2c-27-8-45.6-18-58.5-31.5
		l-14.1-14.7l-17.5,72.9l4,4.4c0.3,0.3,30.5,33,48.2,54.3c5.8,7,12.7,18.7,19.4,52.9c2.3,11.8,6.2,38.3,11.1,76.4
		c0.9,7.1-1.3,14.4-6,19.8c-4.8,5.4-11.6,8.5-18.8,8.5c-12.6,0-23.3-9.4-24.9-22c-3.1-25.6-7.8-59.7-12.2-76.4
		c-0.1-0.2-0.1-0.5-0.2-0.8c-2-10.2-7.4-24-32.3-48.9c-35.1-35.1-52-65.1-52.2-65.4l-0.4-0.6c-6.3-9.8-7.8-18-5.5-29.2l14.6-67.7
		l0.2-1.5c6.9-69.3,23.5-79.9,33.1-79.9c0.1,0,0.3,0,0.4,0l0.9,0l0.9-0.1c5.1-0.6,9.4-1,12.9-1c11.7-0.1,20.6,2.3,27.4,7.5
		c4.1,3.1,7.6,7.3,10.4,12.4c8.5,15.9,33.4,58.3,39.3,68.3l1.9,3.2l61.6,25.4l-6.3-87.7c-0.5-6.4,4.1-11.9,10.2-12.3
		c6.1-0.4,11.3,4.5,11.8,10.9l25.3,350.6C345.4,1455.5,340.8,1461,334.8,1461.4z"/>
	<path class="st0" d="M78.1,1083.1c17.6-1.3,37.2-0.6,34.7,5.5c-17.5,43.5-27.1,119.5-56.2,128.4c-17,5.2-35-2.9-40.9-20.4
		c-5.6-16.5,6.7-59.2,21-86.7C46.6,1090.9,64.3,1084.1,78.1,1083.1z"/>
</g>
</svg>
