<?xml version="1.0" encoding="utf-8"?>
<!-- Generator: Adobe Illustrator 22.0.1, SVG Export Plug-In . SVG Version: 6.00 Build 0)  -->
<svg version="1.1" id="Layer_8" xmlns="http://www.w3.org/2000/svg" xmlns:xlink="http://www.w3.org/1999/xlink" x="0px" y="0px"
	 viewBox="0 0 546.7 512" style="enable-background:new 0 0 546.7 512;" xml:space="preserve">
<style type="text/css">
	.st0{fill:#010101;}
</style>
<g>
	<path class="st0" d="M119.3,3.3l0.6-0.3c18-7.8,38.6,0.1,46.7,17.9l0.3,0.7l0.3,0.7c0,0,186.3,325.5,208.3,369.4
		c9.3,17.9,52.4,10.2,81,5.2c14.5-2.5,27.1-4.8,37.3-4.5c13.4,0,26.1,9.6,38,28.5c4.3,6.9,14.5,24.9,15.8,42.9
		c1.7,24.5-13.6,37.4-29.9,39.5c-1.4,0.2-3,0.5-4.7,0.8c-18.1,3-48.3,8.1-79.3,8.1c0,0,0,0,0,0c-41.7,0-71.7-8.9-91.9-27.3
		c-31.3-28.4-240.2-435-240.2-435C93.8,32.2,101.7,11.4,119.3,3.3z M487.7,439.8c-6.1,0.6-14.7,2.1-23.1,3.6
		c-3.1,0.5-6.2,1.1-9.5,1.7l13.3,17.7c11.5-1.3,21.9-2.8,30.1-4.2C495.7,452,491.2,444.1,487.7,439.8z M373.1,449.8
		c14,12.7,40.3,15.8,66.7,15l-11.9-15.9c-9.8,1-19.7,1.5-29.4,1c-11.7-0.7-22.1-2.8-31.1-6.3C369.4,446,371.3,448.1,373.1,449.8z"/>
	<path class="st0" d="M431,3.3L430.4,3c-18.2-7.8-38.8,0.1-47.1,17.9l-0.3,0.7l-0.3,0.7c0,0-187.2,325.5-209.4,369.4
		c-9.3,17.9-52.8,10.2-81.6,5.2c-14.6-2.5-27.3-4.8-37.5-4.5c-13.5,0-26.3,9.6-38.3,28.5c-4.4,6.9-14.6,24.9-15.9,42.9
		c-1.7,24.5,13.7,37.4,30.1,39.5c1.5,0.2,3,0.5,4.7,0.8c18.2,3,48.7,8.1,79.9,8.1c0,0,0,0,0,0c42,0,72.3-8.9,92.6-27.3
		c31.5-28.4,241.5-435,241.5-435C456.6,32.2,448.7,11.4,431,3.3z M60.4,439.8c6.1,0.6,14.8,2.1,23.3,3.6c3.1,0.5,6.3,1.1,9.6,1.7
		l-13.3,17.7c-11.5-1.3-22.1-2.8-30.4-4.2C52.3,452,56.8,444.1,60.4,439.8z M175.8,449.8c-14.1,12.7-40.6,15.8-67.1,15l12-15.9
		c9.9,1,19.9,1.5,29.6,1c11.8-0.7,22.3-2.8,31.3-6.3C179.5,446,177.6,448.1,175.8,449.8z"/>
	<path class="st0" d="M74.7,269.8c-31.3,0-57,10.8-57,24.7c0,13.3,25.7,24.6,57,24.6c31.3,0,57-11.3,57-24.6
		C131.7,280.6,106,269.8,74.7,269.8z M74.4,314.9c-27.4,0-49.9-9.7-49.9-21.1c0-11.9,22.5-21.1,49.9-21.1c27.4,0,49.8,9.3,49.8,21.1
		C124.3,305.2,101.8,314.9,74.4,314.9z M74.4,274.7c-24.7,0-45,8.3-45,19.1c0,10.3,20.2,19.1,45,19.1c24.7,0,45-8.7,45-19.1
		C119.4,283.1,99.2,274.7,74.4,274.7z M74.7,320.7c-27.7,0-50.3-8.7-56-20c2,23.1,2,32.1,2.6,35.2c12.8,12.3,38,14.9,54.4,15.4
		c18,0,42.6-5.7,52.4-17.5c0.5-3.1,1-20.3,2.6-32.7C125,311.9,102.4,320.7,74.7,320.7z"/>
</g>
</svg>
