<?xml version="1.0" encoding="utf-8"?>
<!-- Generator: Adobe Illustrator 22.0.1, SVG Export Plug-In . SVG Version: 6.00 Build 0)  -->
<svg version="1.1" id="Layer_8" xmlns="http://www.w3.org/2000/svg" xmlns:xlink="http://www.w3.org/1999/xlink" x="0px" y="0px"
	 viewBox="0 0 430 512" style="enable-background:new 0 0 430 512;" xml:space="preserve">
<style type="text/css">
	.st0{fill:#010101;}
</style>
<g>
	<path class="st0" d="M381,3.3L380.4,3c-18.2-7.8-38.8,0.1-47.1,17.9l-0.3,0.7l-0.3,0.7c0,0-137.2,325.5-159.4,369.4
		c-9.3,17.9-52.8,10.2-81.6,5.2c-14.6-2.5-27.3-4.8-37.5-4.5c-13.5,0-26.3,9.6-38.3,28.5c-4.4,6.9-14.6,24.9-15.9,42.9
		c-1.7,24.5,13.7,37.4,30.1,39.5c1.5,0.2,3,0.5,4.7,0.8c18.2,3,48.7,8.1,79.9,8.1c0,0,0,0,0,0c42,0,72.3-8.9,92.6-27.3
		c31.5-28.4,191.5-435,191.5-435C406.6,32.2,398.7,11.4,381,3.3z M60.4,439.8c6.1,0.6,14.8,2.1,23.3,3.6c3.1,0.5,6.3,1.1,9.6,1.7
		l-13.3,17.7c-11.5-1.3-22.1-2.8-30.4-4.2C52.3,452,56.8,444.1,60.4,439.8z M175.8,449.8c-14.1,12.7-40.6,15.8-67.1,15l12-15.9
		c9.9,1,19.9,1.5,29.6,1c11.8-0.7,22.3-2.8,31.3-6.3C179.5,446,177.6,448.1,175.8,449.8z"/>
	<path class="st0" d="M371.6,424.5c-31.3,0-57,10.8-57,24.7c0,13.3,25.7,24.6,57,24.6c31.3,0,57-11.3,57-24.6
		C428.6,435.3,402.9,424.5,371.6,424.5z M371.4,469.6c-27.4,0-49.9-9.7-49.9-21.1c0-11.9,22.5-21.1,49.9-21.1
		c27.4,0,49.8,9.3,49.8,21.1C421.3,459.9,398.8,469.6,371.4,469.6z M371.4,429.4c-24.7,0-45,8.3-45,19.1c0,10.3,20.3,19.1,45,19.1
		c24.7,0,45-8.7,45-19.1C416.4,437.7,396.1,429.4,371.4,429.4z M371.6,475.3c-27.7,0-50.3-8.7-56-20c2,23.1,2,32.1,2.6,35.2
		c12.8,12.3,38,14.9,54.4,15.4c18,0,42.6-5.7,52.4-17.5c0.5-3.1,1-20.3,2.6-32.7C421.9,466.6,399.3,475.3,371.6,475.3z"/>
</g>
</svg>
