<?xml version="1.0" encoding="utf-8"?>
<!-- Generator: Adobe Illustrator 21.1.0, SVG Export Plug-In . SVG Version: 6.00 Build 0)  -->
<svg version="1.1" id="Layer_1" xmlns="http://www.w3.org/2000/svg" xmlns:xlink="http://www.w3.org/1999/xlink" x="0px" y="0px"
	 viewBox="0 0 524.3 512" style="enable-background:new 0 0 524.3 512;" xml:space="preserve">
<g>
	<path d="M525,248.6l-38.1,34.7c0,0-214.6-214.6-216.2-216.2c-7.8-7.8-7.8-7.9-15.9,0c-1.6,1.4-217.3,218.2-217.3,218.2L0.7,248.6
		c0,0,41.2-41.2,90-90V70.5l27.1-8.4l27.2,8.4v33.9c38.7-38.6,74.8-74.4,92.9-92.2c6.6-7.3,14.8-11,24.4-11c10.3,0,18.6,3.7,25,11
		C337.2,61.3,525,248.6,525,248.6z"/>
	<path d="M287.3,132.6c-24.5-24.4-24.9-24.5-49.4,0.1L69.4,300.2v211.2h155.4V372.9h73.8v138.5h158.3V300.2L287.3,132.6z
		 M405.2,469.6h-55.8c0,0,0-96.3,0-130.5c0-8.8-7.1-16-15.9-16H190c-8.9,0-16,7.2-16,13.9c0,33.2,0,133.1,0,133.1l-52.8-0.5V318.1
		l125.1-125.2c16.2-16.2,16.7-16.3,33,0l125.9,125.2V469.6z"/>
	<circle cx="260.6" cy="252.5" r="35.9"/>
</g>
</svg>
