<?xml version="1.0" encoding="utf-8"?>
<!-- Generator: Adobe Illustrator 21.1.0, SVG Export Plug-In . SVG Version: 6.00 Build 0)  -->
<svg version="1.1" id="Layer_1" xmlns="http://www.w3.org/2000/svg" xmlns:xlink="http://www.w3.org/1999/xlink" x="0px" y="0px"
	 viewBox="0 0 511.9 512" style="enable-background:new 0 0 511.9 512;" xml:space="preserve">
<g id="_x35_2">
	<g>
		<path d="M432.2,172c-8.6-32-37.7-55.5-72.4-55.5S295.9,140,287.3,172H267V0H0v512h313V406h94v106h105V172H432.2z M460,460h-21v-86
			H281v86H52V52h163v172h107.5v-23.5c0-20.7,16.8-37.4,37.4-37.4c20.7,0,37.4,16.7,37.4,37.4V224H460V460z"/>
		<path d="M68.6,92.2h51.2v49.7H68.6V92.2z"/>
		<path d="M147.7,92.2H199v49.7h-51.2V92.2H147.7z"/>
		<path d="M68.6,179.8h51.2v49.7H68.6V179.8z"/>
		<path d="M147.7,179.8H199v49.7h-51.2v-49.7H147.7z"/>
		<path d="M68.6,267.5h51.2v49.7H68.6V267.5z"/>
		<path d="M147.7,267.5H199v49.7h-51.2v-49.7H147.7z"/>
		<path d="M68.6,355.1h51.2v49.7H68.6V355.1z"/>
		<path d="M147.7,355.1H199v49.7h-51.2v-49.7H147.7z"/>
		<path d="M359.8,237c-34.5,0-62.5,28-62.5,62.5s28,62.5,62.5,62.5s62.5-28,62.5-62.5S394.3,237,359.8,237z M400.6,313.7h-26.7v26.7
			h-28.3v-26.7h-26.7v-28.3h26.7v-26.7h28.3v26.7h26.7V313.7z"/>
	</g>
</g>
</svg>
