<?xml version="1.0" encoding="utf-8"?>
<!-- Generator: Adobe Illustrator 21.1.0, SVG Export Plug-In . SVG Version: 6.00 Build 0)  -->
<svg version="1.1" id="Layer_3" xmlns="http://www.w3.org/2000/svg" xmlns:xlink="http://www.w3.org/1999/xlink" x="0px" y="0px"
	 viewBox="0 0 513.2 512" style="enable-background:new 0 0 513.2 512;" xml:space="preserve">
<g>
	<path d="M490,259.3l-268,0.1l-79.7-79.7c-4.3-4.3-10.1-6.7-16.1-6.7h-79c-10.3,0-18.6,8.3-18.6,18.6v67.8H24
		c-12.9,0.1-23,10.4-23,23.4C1,295.8,72.1,433,72.1,433c7,19.1,23.2,32.1,42.6,35.9l-4.3,11.4c-4.3,12,1.6,25.6,13.5,30
		c2.7,1.1,5.4,1.6,8.1,1.6c9.2,0,18.3-6,21.6-15.3L162,473l189.5,0.3l8.5,23.3c3.2,9.3,12.4,15.3,21.6,15.3c2.7,0,5.4-0.5,8.1-1.6
		c11.8-4.4,17.8-18,13.5-30l-4.3-11.4c18.9-3.8,35.6-16.9,42.6-35.9c0,0,71.7-137.3,71.7-150.3C513.2,269.5,503,259.3,490,259.3z
		 M80.6,224.8H115l34.5,34.5l-68.8,0V224.8z M427,346.8c-16.2,32.3-31.6,61.9-31.8,62.2l-1.5,3l-1.2,3.2c-0.6,1.6-2.5,2.6-4.1,2.9
		l-17,3.4h-19.8L162,421.2h-21.5l-15.8-3.1c-3-0.6-3.6-2.2-3.8-2.9l-1.1-3.1l-1.5-2.9c-0.2-0.3-15.5-29.9-31.6-62.2
		c-7.2-14.4-12.9-26.1-17.4-35.6h375.2C439.9,320.8,434.2,332.5,427,346.8z"/>
</g>
<path d="M81.7,148.1c-27.4,0-49.7-22.2-49.7-49.7s22.2-49.7,49.7-49.7s49.7,22.2,49.7,49.7S109.1,148.1,81.7,148.1z M365.6,187.1
	c-7.3,18.9-32.7,22.2-44.9,6.1c-5.3-7.1-6.8-16.4-3.6-24.7c1.7-4.4,3-10.1,3-17.4c0-7.5-7.1-17.8-14.7-28.6
	C294.1,106.3,280,86,280,59.9c0-17.5,3-31.8,7.2-43c6.9-18.8,31.9-22.6,44.4-6.9c3.7,4.7,5.7,10.5,5.7,16.3c0,2.9-0.5,5.7-1.5,8.5
	c-2.1,5.8-3.8,13.9-3.8,25c0,9.9,7.8,21.1,16.1,33c11.2,16.1,23.9,34.5,23.9,58.3C372,165.4,369.3,177.4,365.6,187.1z M470.4,187.1
	c-7.3,18.9-32.7,22.2-44.9,6.1c-5.3-7.1-6.8-16.4-3.6-24.7c1.7-4.4,3-10.1,3-17.4c0-7.5-7.1-17.8-14.6-28.6
	c-11.3-16.3-25.4-36.5-25.4-62.7c0-17.5,3-31.8,7.2-43C399-1.9,424-5.7,436.4,10c3.7,4.7,5.7,10.5,5.7,16.3c0,2.9-0.5,5.7-1.5,8.5
	c-2,5.8-3.8,13.9-3.8,25c0,9.9,7.8,21.1,16.1,33c11.2,16.1,23.9,34.5,23.9,58.3C476.9,165.4,474.2,177.4,470.4,187.1z"/>
</svg>
