<?xml version="1.0" encoding="utf-8"?>
<!-- Generator: Adobe Illustrator 21.1.0, SVG Export Plug-In . SVG Version: 6.00 Build 0)  -->
<svg version="1.1" id="Layer_1" xmlns="http://www.w3.org/2000/svg" xmlns:xlink="http://www.w3.org/1999/xlink" x="0px" y="0px"
	 viewBox="0 0 513.2 512" style="enable-background:new 0 0 513.2 512;" xml:space="preserve">
<g>
	<polygon points="85.4,186.5 65.6,196.7 65.3,260.6 85.1,252.7 	"/>
	<polygon points="84.9,288.2 65.1,294.9 64.8,359 84.6,354.7 	"/>
	<path d="M91.8,384.2c-8.1,0.7-14.7,16.6-14.9,35.6L76.4,460h29.9l0.3-41.8C106.7,398.6,100,383.5,91.8,384.2z"/>
	<polygon points="121.3,275.8 98.9,283.4 98.6,351.5 121,346.6 	"/>
	<polygon points="121.8,167.8 99.4,179.2 99.1,247.1 121.5,238.1 	"/>
	<polygon points="307.7,251.6 353.4,271.5 353.4,232.5 307.9,208.1 	"/>
	<polygon points="373.2,336 405.3,345.5 405.4,311.9 373.2,299 	"/>
	<polygon points="420.2,398.1 444.8,401.6 444.8,371.9 420.2,365.9 	"/>
	<polygon points="373.1,391.4 405.3,396 405.3,362.2 373.2,354.3 	"/>
	<polygon points="420.2,446.3 444.8,446 444.8,416.3 420.2,414 	"/>
	<polygon points="373.4,225.2 405.5,244.7 405.5,216.8 373.5,194.5 	"/>
	<polygon points="405.5,172.1 373.5,145.4 373.4,176.1 405.5,200 	"/>
	<polygon points="373.2,280.5 405.4,295 405.4,261.5 373.3,243.6 	"/>
	<polygon points="373,446.8 405.2,446.5 405.3,412.6 373.1,409.7 	"/>
	<polygon points="307.9,186.4 353.5,213.1 353.5,180.7 308,150.3 	"/>
	<polygon points="307.3,382.1 353.1,388.5 353.2,349.3 307.5,338.4 	"/>
	<polygon points="307.1,447.6 353,447.1 353.1,407.8 307.3,403.8 	"/>
	<polygon points="307.5,316.8 353.2,330 353.3,290.9 307.6,273.2 	"/>
	<polygon points="308.1,128.6 353.6,161.3 353.7,128.9 308.2,92.6 	"/>
	<polygon points="420.3,253.7 444.8,268.6 444.8,244 420.3,227 	"/>
	<polygon points="420.3,184.5 420.3,211.1 444.8,229.4 444.8,204.8 	"/>
	<polygon points="420.3,317.8 420.3,350 444.8,357.3 444.8,327.7 	"/>
	<polygon points="420.3,301.8 444.8,312.9 444.8,283.4 420.3,269.8 	"/>
	<path d="M508.7,166.5L307.1,0L167.4,44l-1,49.6l-30-14.4l-133,43.4L0,512h513.2L508.7,166.5z M55.1,160.4l77.6-25.3l0.7,0.3
		l1.8,324.6h-28.9H76.4h-24L55.1,160.4z M217.9,460V117.7l0.5-23.1l0.2-12.3l77.1-24.3L457,191.3l3.5,268.7H217.9z"/>
	<polygon points="229.3,446.6 257.5,446.9 257.7,405.1 229.5,406.1 	"/>
	<polygon points="266.9,446.9 293.8,447.2 294,403.6 267.1,404.7 	"/>
	<polygon points="229.6,386.2 294,382 294.2,338.6 229.8,345.8 	"/>
	<polygon points="229.8,325.8 294.2,317.1 294.3,273.7 230,285.6 	"/>
	<polygon points="230.1,265.4 294.3,252 294.5,208.8 230.2,225.3 	"/>
	<polygon points="230.3,202.2 294.5,187.2 294.6,151.3 230.4,168.8 	"/>
	<polygon points="230.5,146.7 294.6,129.7 294.7,93.8 230.6,113.4 	"/>
</g>
</svg>
