<?xml version="1.0" encoding="utf-8"?>
<!-- Generator: Adobe Illustrator 21.1.0, SVG Export Plug-In . SVG Version: 6.00 Build 0)  -->
<svg version="1.1" id="Layer_1" xmlns="http://www.w3.org/2000/svg" xmlns:xlink="http://www.w3.org/1999/xlink" x="0px" y="0px"
	 viewBox="0 0 458.9 512" style="enable-background:new 0 0 458.9 512;" xml:space="preserve">
<g>
	<path d="M227.8,330.6v24c0,2.1,1.7,3.8,3.8,3.8h0c2.1,0,3.8-1.7,3.8-3.8v-24H227.8z"/>
	<path id="_x35_2" d="M454.6,40.6c2.4,0,4.3-1.9,4.3-4.3v-32c0-2.4-1.9-4.3-4.3-4.3H4.3C1.9,0,0,1.9,0,4.2v32c0,2.4,1.9,4.3,4.3,4.3
		H32v430.3H4.3c-2.4,0-4.3,1.9-4.3,4.3v32c0,2.4,1.9,4.3,4.3,4.3h450.2c2.4,0,4.3-1.9,4.3-4.3v-32c0-2.4-1.9-4.3-4.3-4.3v0.1h-27.6
		V40.6H454.6z M170.2,101.2l27.1-32.9h66.1l27.2,33c0.3,0.4,7.6,9.3,7.6,20.2c0,8.6-13.3,22.1-26.1,35.1c-11.7,11.8-25.7,26-36,43.6
		c0.3-2.4,0.4-5.1,0.4-8.2c0-24.6,39.9-38,39.9-67.8c0-14.1-7.5-24.5-10.2-27.8l-71.7,0c-2.7,3.3-10.1,13.5-10.1,27.8
		c0,31.2,41.1,43.5,41.1,67.8c0,2.8,0.1,5.3,0.4,7.4c-10.4-16.9-24.4-30.5-36.1-41.8c-16.5-16-27.3-27.1-27.3-36.2
		C162.7,110.6,169.4,102.1,170.2,101.2z M112.9,385.6c0,26.9,9.5,47.6,15.1,57.5h-17.3c-8.4,0-8.5,6.1-8.5,8.5v19.2H70.3V40.5h31.9
		v19.1c0,2.3,0.5,8.5,8.5,8.5h19.4c-0.1,0.1-0.1,0.2-0.2,0.2c-5.3,6.5-19.2,26-19.2,53.1c0,59.9,78.8,83.4,78.8,130
		C189.5,300.8,112.9,317.4,112.9,385.6z M287.7,417.6l-5.4,9.5c-14.4-6.3-30.2-14.1-43.5-22.4c-5.1-3.2-11.2-2.6-16,1.4
		c-14,11.7-28.6,20-41.5,25.8l-8.1-14.4c-2.5-4.4-8.4-16.5-8.4-31.9c0-13.6,7.5-22.2,27.2-41.4c11.6-11.3,25.6-24.9,35.7-42.5v14.3
		h7.6v-13.5c9.9,17.7,23.5,31.8,34.8,43.5c18.1,18.7,26,28.2,26,39.7C296.2,401,290.3,413.1,287.7,417.6z M388.6,470.9h-31.9v-19.2
		c0-2.3-0.5-8.5-8.5-8.5H333c5.6-9.9,15.2-30.9,15.2-57.5c0-63.6-74.5-84.4-74.5-134.2c0-47.1,76.6-72.8,76.6-130
		c0-26.9-14.1-46.7-19.4-53.2c0,0-0.1-0.1-0.1-0.1h17.3c8.4,0,8.5-6.1,8.5-8.5V40.5h32V470.9z"/>
</g>
</svg>
