<?xml version="1.0" encoding="utf-8"?>
<!-- Generator: Adobe Illustrator 22.0.1, SVG Export Plug-In . SVG Version: 6.00 Build 0)  -->
<svg version="1.1" id="Layer_2" xmlns="http://www.w3.org/2000/svg" xmlns:xlink="http://www.w3.org/1999/xlink" x="0px" y="0px"
	 viewBox="0 0 512 512" style="enable-background:new 0 0 512 512;" xml:space="preserve">
<style type="text/css">
	.st0{fill:#070707;}
	.st1{fill:#010101;}
</style>
<g id="_x35_2">
	<path class="st0" d="M509.5,465.3l-70.8-74c5.6-2.5,9.7-9.8,9.7-18.6c0-10.6-6-19.2-13.5-19.5l-4.8,0.2l-5.4-297.1
		c-0.2-9-7.6-16.3-16.6-16.3h0c-9,0-16.4,7.2-16.6,16.3l-5.3,296.8h-5.9c-7.7,0-13.8,8.8-13.8,19.6c0,8.9,4.1,16.4,9.9,18.8
		l-71.9,71.9c-4.3,7.2-4.7,17.2-0.7,22.8c2.8,4,7.3,4.9,11.4,2.8c1.8,4.4,4.5,7.1,7.9,7.1c1.7,0,3.4-0.8,4.9-2
		c1.7,5.3,4.8,8.7,8.5,8.6c2.1,0,4.2-1.1,6.1-3c1.7,6.5,4.9,10.7,9,10.7c4.3-0.1,8.4,1.1,11.2-5.9c0.7-3.2,6.2-27.9,8.3-27.9
		c1.5,0,1,24.9,1.6,29.3c1.2,5.1,3.4,5.7,6.2,5.6c0.9,0,2-0.2,3-0.2c2.2,0,4.3-1.3,6.3-3.4c1.6,2.2,3.5,3.4,5.8,3.4
		c3.6-0.1,7.1-3.4,9.7-8.6c3.1,6.3,7.6,9.5,11.8,7.4c2.7-1.3,4.9-4.7,6.4-9.1c3,4.8,6.8,7,10.5,5.2c1.8-0.9,3.3-2.5,4.6-4.9
		c3,5.3,7.1,7.8,10.9,5.9c2.4-1.2,4.4-4,5.9-7.8c1.8,0.7,4.9,0.6,4.5-3.4c-0.3-4.3-21.9-69.3-20.7-70.6c0.3,0.4,26.1,72.1,26.4,72.4
		c2.9,3.4,6.7,4.9,10.2,3.6c2.9-1.1,5.2-4,6.6-7.8c2.2,1.5,4.5,2,6.8,1.2c3-1.1,5.3-4.3,6.6-8.4c5,4.9,11.2,5,14.9-0.2
		C512.9,481,512.9,472.3,509.5,465.3z"/>
	<path class="st1" d="M278,210.5l-264.4,0c-10.9,0-24.3,20-0.1,29.8l22.8,245.5c2.2,24.8,20,26.3,44.9,26.3h129.2
		c24.9,0,42.8-1.5,45-26.3l22.1-245.2C302.4,230.9,289,210.5,278,210.5z M205.5,460H86.2L67.8,262.5H111v19.4
		c0,6.3,5.1,11.5,11.5,11.5h1.2c2.2,0,4.2-0.6,5.9-1.6V320c0,6.3,5.1,11.5,11.5,11.5h1.2c6.3,0,11.5-5.1,11.5-11.5v-11.8
		c3.5,4.4,8.9,7.2,15,7.2h2.1c10.6,0,19.2-8.6,19.2-19.2v-33.6h33.3L205.5,460z"/>
	<path class="st0" d="M58.7,95.3c-6.7,0-12.1,5.4-12.1,12.1c0,1.7,1.4,3,3,3c1.7,0,3-1.3,3-3c0-3.4,2.8-6.1,6.1-6.1c1.7,0,3-1.3,3-3
		C61.7,96.6,60.4,95.3,58.7,95.3z M58.7,95.3c-6.7,0-12.1,5.4-12.1,12.1c0,1.7,1.4,3,3,3c1.7,0,3-1.3,3-3c0-3.4,2.8-6.1,6.1-6.1
		c1.7,0,3-1.3,3-3C61.7,96.6,60.4,95.3,58.7,95.3z M58.7,95.3c-6.7,0-12.1,5.4-12.1,12.1c0,1.7,1.4,3,3,3c1.7,0,3-1.3,3-3
		c0-3.4,2.8-6.1,6.1-6.1c1.7,0,3-1.3,3-3C61.7,96.6,60.4,95.3,58.7,95.3z M58.7,95.3c-6.7,0-12.1,5.4-12.1,12.1c0,1.7,1.4,3,3,3
		c1.7,0,3-1.3,3-3c0-3.4,2.8-6.1,6.1-6.1c1.7,0,3-1.3,3-3C61.7,96.6,60.4,95.3,58.7,95.3z M58.7,95.3c-6.7,0-12.1,5.4-12.1,12.1
		c0,1.7,1.4,3,3,3c1.7,0,3-1.3,3-3c0-3.4,2.8-6.1,6.1-6.1c1.7,0,3-1.3,3-3C61.7,96.6,60.4,95.3,58.7,95.3z M58.7,95.3
		c-6.7,0-12.1,5.4-12.1,12.1c0,1.7,1.4,3,3,3c1.7,0,3-1.3,3-3c0-3.4,2.8-6.1,6.1-6.1c1.7,0,3-1.3,3-3C61.7,96.6,60.4,95.3,58.7,95.3
		z M58.7,95.3c-6.7,0-12.1,5.4-12.1,12.1c0,1.7,1.4,3,3,3c1.7,0,3-1.3,3-3c0-3.4,2.8-6.1,6.1-6.1c1.7,0,3-1.3,3-3
		C61.7,96.6,60.4,95.3,58.7,95.3z M58.7,95.3c-6.7,0-12.1,5.4-12.1,12.1c0,1.7,1.4,3,3,3c1.7,0,3-1.3,3-3c0-3.4,2.8-6.1,6.1-6.1
		c1.7,0,3-1.3,3-3C61.7,96.6,60.4,95.3,58.7,95.3z M58.7,95.3c-6.7,0-12.1,5.4-12.1,12.1c0,1.7,1.4,3,3,3c1.7,0,3-1.3,3-3
		c0-3.4,2.8-6.1,6.1-6.1c1.7,0,3-1.3,3-3C61.7,96.6,60.4,95.3,58.7,95.3z M58.7,95.3c-6.7,0-12.1,5.4-12.1,12.1c0,1.7,1.4,3,3,3
		c1.7,0,3-1.3,3-3c0-3.4,2.8-6.1,6.1-6.1c1.7,0,3-1.3,3-3C61.7,96.6,60.4,95.3,58.7,95.3z M227.2,176.9c-4.6,0-8.3,3.7-8.3,8.3
		c0,1.1,0.9,2,2,2s2.1-0.9,2.1-2c0-2.3,1.9-4.2,4.2-4.2c1.1,0,2-0.9,2-2C229.3,177.8,228.3,176.9,227.2,176.9z M227.2,176.9
		c-4.6,0-8.3,3.7-8.3,8.3c0,1.1,0.9,2,2,2s2.1-0.9,2.1-2c0-2.3,1.9-4.2,4.2-4.2c1.1,0,2-0.9,2-2
		C229.3,177.8,228.3,176.9,227.2,176.9z M227.2,176.9c-4.6,0-8.3,3.7-8.3,8.3c0,1.1,0.9,2,2,2s2.1-0.9,2.1-2c0-2.3,1.9-4.2,4.2-4.2
		c1.1,0,2-0.9,2-2C229.3,177.8,228.3,176.9,227.2,176.9z M227.2,176.9c-4.6,0-8.3,3.7-8.3,8.3c0,1.1,0.9,2,2,2s2.1-0.9,2.1-2
		c0-2.3,1.9-4.2,4.2-4.2c1.1,0,2-0.9,2-2C229.3,177.8,228.3,176.9,227.2,176.9z M58.7,95.3c-6.7,0-12.1,5.4-12.1,12.1
		c0,1.7,1.4,3,3,3c1.7,0,3-1.3,3-3c0-3.4,2.8-6.1,6.1-6.1c1.7,0,3-1.3,3-3C61.7,96.6,60.4,95.3,58.7,95.3z M58.7,95.3
		c-6.7,0-12.1,5.4-12.1,12.1c0,1.7,1.4,3,3,3c1.7,0,3-1.3,3-3c0-3.4,2.8-6.1,6.1-6.1c1.7,0,3-1.3,3-3C61.7,96.6,60.4,95.3,58.7,95.3
		z M58.7,95.3c-6.7,0-12.1,5.4-12.1,12.1c0,1.7,1.4,3,3,3c1.7,0,3-1.3,3-3c0-3.4,2.8-6.1,6.1-6.1c1.7,0,3-1.3,3-3
		C61.7,96.6,60.4,95.3,58.7,95.3z M58.7,95.3c-6.7,0-12.1,5.4-12.1,12.1c0,1.7,1.4,3,3,3c1.7,0,3-1.3,3-3c0-3.4,2.8-6.1,6.1-6.1
		c1.7,0,3-1.3,3-3C61.7,96.6,60.4,95.3,58.7,95.3z M182.2,15.7c-8.3,0-15.1,6.8-15.1,15.1c0,1.3,1,2.3,2.3,2.3c1.3,0,2.3-1,2.3-2.3
		c0-5.8,4.7-10.5,10.5-10.5c1.3,0,2.3-1,2.3-2.3C184.5,16.8,183.5,15.7,182.2,15.7z M182.2,15.7c-8.3,0-15.1,6.8-15.1,15.1
		c0,1.3,1,2.3,2.3,2.3c1.3,0,2.3-1,2.3-2.3c0-5.8,4.7-10.5,10.5-10.5c1.3,0,2.3-1,2.3-2.3C184.5,16.8,183.5,15.7,182.2,15.7z
		 M227.2,176.9c-4.6,0-8.3,3.7-8.3,8.3c0,1.1,0.9,2,2,2s2.1-0.9,2.1-2c0-2.3,1.9-4.2,4.2-4.2c1.1,0,2-0.9,2-2
		C229.3,177.8,228.3,176.9,227.2,176.9z M227.2,176.9c-4.6,0-8.3,3.7-8.3,8.3c0,1.1,0.9,2,2,2s2.1-0.9,2.1-2c0-2.3,1.9-4.2,4.2-4.2
		c1.1,0,2-0.9,2-2C229.3,177.8,228.3,176.9,227.2,176.9z M227.2,176.9c-4.6,0-8.3,3.7-8.3,8.3c0,1.1,0.9,2,2,2s2.1-0.9,2.1-2
		c0-2.3,1.9-4.2,4.2-4.2c1.1,0,2-0.9,2-2C229.3,177.8,228.3,176.9,227.2,176.9z M227.2,176.9c-4.6,0-8.3,3.7-8.3,8.3
		c0,1.1,0.9,2,2,2s2.1-0.9,2.1-2c0-2.3,1.9-4.2,4.2-4.2c1.1,0,2-0.9,2-2C229.3,177.8,228.3,176.9,227.2,176.9z M58.7,95.3
		c-6.7,0-12.1,5.4-12.1,12.1c0,1.7,1.4,3,3,3c1.7,0,3-1.3,3-3c0-3.4,2.8-6.1,6.1-6.1c1.7,0,3-1.3,3-3C61.7,96.6,60.4,95.3,58.7,95.3
		z M58.7,95.3c-6.7,0-12.1,5.4-12.1,12.1c0,1.7,1.4,3,3,3c1.7,0,3-1.3,3-3c0-3.4,2.8-6.1,6.1-6.1c1.7,0,3-1.3,3-3
		C61.7,96.6,60.4,95.3,58.7,95.3z M182.2,15.7c-8.3,0-15.1,6.8-15.1,15.1c0,1.3,1,2.3,2.3,2.3c1.3,0,2.3-1,2.3-2.3
		c0-5.8,4.7-10.5,10.5-10.5c1.3,0,2.3-1,2.3-2.3C184.5,16.8,183.5,15.7,182.2,15.7z M182.2,15.7c-8.3,0-15.1,6.8-15.1,15.1
		c0,1.3,1,2.3,2.3,2.3c1.3,0,2.3-1,2.3-2.3c0-5.8,4.7-10.5,10.5-10.5c1.3,0,2.3-1,2.3-2.3C184.5,16.8,183.5,15.7,182.2,15.7z
		 M186.1,2c-18.1,0-32.9,14.7-32.9,32.8s14.7,32.8,32.9,32.8c18.1,0,32.8-14.7,32.8-32.8S204.2,2,186.1,2z M186.1,63
		c-15.6,0-28.2-12.7-28.2-28.2c0-15.6,12.7-28.2,28.2-28.2s28.2,12.7,28.2,28.2C214.3,50.3,201.7,63,186.1,63z M182.2,15.7
		c-8.3,0-15.1,6.8-15.1,15.1c0,1.3,1,2.3,2.3,2.3c1.3,0,2.3-1,2.3-2.3c0-5.8,4.7-10.5,10.5-10.5c1.3,0,2.3-1,2.3-2.3
		C184.5,16.8,183.5,15.7,182.2,15.7z M50.5,25.3L46.6,2l-3.9,23.3l-23.3,3.9L42.7,33l3.9,23.4L50.5,33l23.3-3.9L50.5,25.3z
		 M58.7,95.3c-6.7,0-12.1,5.4-12.1,12.1c0,1.7,1.4,3,3,3c1.7,0,3-1.3,3-3c0-3.4,2.8-6.1,6.1-6.1c1.7,0,3-1.3,3-3
		C61.7,96.6,60.4,95.3,58.7,95.3z M58.7,95.3c-6.7,0-12.1,5.4-12.1,12.1c0,1.7,1.4,3,3,3c1.7,0,3-1.3,3-3c0-3.4,2.8-6.1,6.1-6.1
		c1.7,0,3-1.3,3-3C61.7,96.6,60.4,95.3,58.7,95.3z M58.7,79.7C43.4,79.7,31,92.1,31,107.4c0,15.3,12.5,27.7,27.8,27.7
		c15.3,0,27.8-12.4,27.8-27.7C86.5,92.1,74,79.7,58.7,79.7z M58.7,129.2c-12,0-21.8-9.8-21.8-21.7c0-12,9.8-21.7,21.8-21.7
		c12,0,21.8,9.8,21.8,21.7C80.5,119.4,70.7,129.2,58.7,129.2z M58.7,95.3c-6.7,0-12.1,5.4-12.1,12.1c0,1.7,1.4,3,3,3
		c1.7,0,3-1.3,3-3c0-3.4,2.8-6.1,6.1-6.1c1.7,0,3-1.3,3-3C61.7,96.6,60.4,95.3,58.7,95.3z M130.7,166l-3.8-2.1c-3.4-1.8-6.2-4.6-8-8
		l-2.1-3.8c-0.8-1.5-3.2-1.5-4.1,0l-2.1,3.8c-1.9,3.4-4.6,6.2-8,8l-3.8,2.1c-0.7,0.4-1.2,1.2-1.2,2c0,0.8,0.5,1.6,1.2,2l3.8,2.1
		c3.4,1.9,6.2,4.6,8,8l2.1,3.8c0.4,0.7,1.2,1.2,2,1.2c0.8,0,1.6-0.5,2-1.2l2.1-3.8c1.9-3.4,4.6-6.2,8-8l3.8-2.1
		c0.7-0.4,1.2-1.2,1.2-2C131.9,167.2,131.4,166.4,130.7,166z M124.7,168.1c-4.2,2.3-7.6,5.7-9.9,9.9l0,0.1l0-0.1
		c-2.3-4.2-5.7-7.6-9.9-9.9l-0.1,0l0.1,0c4.2-2.3,7.6-5.7,9.9-9.9l0-0.1l0,0.1C117.1,162.3,120.5,165.7,124.7,168.1L124.7,168.1
		L124.7,168.1z M197.3,137l-7.4-4.1c-7-3.8-12.8-9.6-16.6-16.6l-4.1-7.4c-0.8-1.5-3.2-1.5-4,0l-4.1,7.4c-3.9,7-9.6,12.8-16.6,16.6
		l-7.4,4.1c-0.7,0.4-1.2,1.2-1.2,2c0,0.8,0.5,1.6,1.2,2l7.4,4.1c7,3.8,12.8,9.6,16.6,16.6l4.1,7.4c0.4,0.7,1.2,1.2,2,1.2
		c0.9,0,1.6-0.5,2-1.2l4.1-7.4c3.8-7,9.6-12.8,16.6-16.6l7.4-4.1c0.7-0.4,1.2-1.2,1.2-2C198.5,138.2,198,137.4,197.3,137z
		 M187.6,141c-7.8,4.3-14.2,10.7-18.5,18.5l-2.1,3.7l-2-3.7c-4.3-7.8-10.7-14.2-18.5-18.5l-3.7-2l3.7-2c7.8-4.3,14.2-10.6,18.5-18.5
		l2-3.7l2.1,3.7c4.3,7.8,10.6,14.2,18.5,18.5l3.7,2L187.6,141z M227.2,176.9c-4.6,0-8.3,3.7-8.3,8.3c0,1.1,0.9,2,2,2s2.1-0.9,2.1-2
		c0-2.3,1.9-4.2,4.2-4.2c1.1,0,2-0.9,2-2C229.3,177.8,228.3,176.9,227.2,176.9z M227.2,176.9c-4.6,0-8.3,3.7-8.3,8.3
		c0,1.1,0.9,2,2,2s2.1-0.9,2.1-2c0-2.3,1.9-4.2,4.2-4.2c1.1,0,2-0.9,2-2C229.3,177.8,228.3,176.9,227.2,176.9z M227.2,166.2
		c-10.4,0-18.9,8.5-18.9,18.9s8.5,18.9,18.9,18.9c10.5,0,19-8.5,19-18.9S237.7,166.2,227.2,166.2z M227.2,200
		c-8.2,0-14.8-6.7-14.8-14.8c0-8.2,6.7-14.8,14.8-14.8c8.2,0,14.8,6.7,14.8,14.8C242,193.3,235.4,200,227.2,200z M227.2,176.9
		c-4.6,0-8.3,3.7-8.3,8.3c0,1.1,0.9,2,2,2s2.1-0.9,2.1-2c0-2.3,1.9-4.2,4.2-4.2c1.1,0,2-0.9,2-2
		C229.3,177.8,228.3,176.9,227.2,176.9z M227.2,176.9c-4.6,0-8.3,3.7-8.3,8.3c0,1.1,0.9,2,2,2s2.1-0.9,2.1-2c0-2.3,1.9-4.2,4.2-4.2
		c1.1,0,2-0.9,2-2C229.3,177.8,228.3,176.9,227.2,176.9z M227.2,176.9c-4.6,0-8.3,3.7-8.3,8.3c0,1.1,0.9,2,2,2s2.1-0.9,2.1-2
		c0-2.3,1.9-4.2,4.2-4.2c1.1,0,2-0.9,2-2C229.3,177.8,228.3,176.9,227.2,176.9z M339.6,65l-4.7-2.6c-4.2-2.3-7.6-5.7-9.9-9.9
		l-2.6-4.7c-0.5-1-1.5-1.6-2.6-1.6c-1.1,0-2.1,0.6-2.6,1.6l-2.6,4.7c-2.3,4.2-5.7,7.6-9.9,9.9L300,65c-1,0.5-1.6,1.5-1.6,2.6
		c0,1.1,0.6,2.1,1.6,2.6l4.7,2.6c4.2,2.3,7.6,5.7,9.9,9.9l2.6,4.7c0.5,1,1.5,1.6,2.6,1.6c1.1,0,2.1-0.6,2.6-1.6l2.6-4.7
		c2.3-4.2,5.7-7.6,9.9-9.9l4.7-2.6c1-0.5,1.6-1.5,1.6-2.6C341.1,66.5,340.5,65.5,339.6,65z M319.8,79.7c-2.8-5.1-7-9.3-12.1-12.1
		c5.1-2.8,9.3-7,12.1-12.1c2.8,5.1,7,9.3,12.1,12.1C326.8,70.4,322.6,74.6,319.8,79.7z M227.2,176.9c-4.6,0-8.3,3.7-8.3,8.3
		c0,1.1,0.9,2,2,2s2.1-0.9,2.1-2c0-2.3,1.9-4.2,4.2-4.2c1.1,0,2-0.9,2-2C229.3,177.8,228.3,176.9,227.2,176.9z M227.2,176.9
		c-4.6,0-8.3,3.7-8.3,8.3c0,1.1,0.9,2,2,2s2.1-0.9,2.1-2c0-2.3,1.9-4.2,4.2-4.2c1.1,0,2-0.9,2-2
		C229.3,177.8,228.3,176.9,227.2,176.9z M182.2,15.7c-8.3,0-15.1,6.8-15.1,15.1c0,1.3,1,2.3,2.3,2.3c1.3,0,2.3-1,2.3-2.3
		c0-5.8,4.7-10.5,10.5-10.5c1.3,0,2.3-1,2.3-2.3C184.5,16.8,183.5,15.7,182.2,15.7z M182.2,15.7c-8.3,0-15.1,6.8-15.1,15.1
		c0,1.3,1,2.3,2.3,2.3c1.3,0,2.3-1,2.3-2.3c0-5.8,4.7-10.5,10.5-10.5c1.3,0,2.3-1,2.3-2.3C184.5,16.8,183.5,15.7,182.2,15.7z
		 M58.7,95.3c-6.7,0-12.1,5.4-12.1,12.1c0,1.7,1.4,3,3,3c1.7,0,3-1.3,3-3c0-3.4,2.8-6.1,6.1-6.1c1.7,0,3-1.3,3-3
		C61.7,96.6,60.4,95.3,58.7,95.3z M58.7,95.3c-6.7,0-12.1,5.4-12.1,12.1c0,1.7,1.4,3,3,3c1.7,0,3-1.3,3-3c0-3.4,2.8-6.1,6.1-6.1
		c1.7,0,3-1.3,3-3C61.7,96.6,60.4,95.3,58.7,95.3z M182.2,15.7c-8.3,0-15.1,6.8-15.1,15.1c0,1.3,1,2.3,2.3,2.3c1.3,0,2.3-1,2.3-2.3
		c0-5.8,4.7-10.5,10.5-10.5c1.3,0,2.3-1,2.3-2.3C184.5,16.8,183.5,15.7,182.2,15.7z M182.2,15.7c-8.3,0-15.1,6.8-15.1,15.1
		c0,1.3,1,2.3,2.3,2.3c1.3,0,2.3-1,2.3-2.3c0-5.8,4.7-10.5,10.5-10.5c1.3,0,2.3-1,2.3-2.3C184.5,16.8,183.5,15.7,182.2,15.7z
		 M58.7,95.3c-6.7,0-12.1,5.4-12.1,12.1c0,1.7,1.4,3,3,3c1.7,0,3-1.3,3-3c0-3.4,2.8-6.1,6.1-6.1c1.7,0,3-1.3,3-3
		C61.7,96.6,60.4,95.3,58.7,95.3z M58.7,95.3c-6.7,0-12.1,5.4-12.1,12.1c0,1.7,1.4,3,3,3c1.7,0,3-1.3,3-3c0-3.4,2.8-6.1,6.1-6.1
		c1.7,0,3-1.3,3-3C61.7,96.6,60.4,95.3,58.7,95.3z M227.2,176.9c-4.6,0-8.3,3.7-8.3,8.3c0,1.1,0.9,2,2,2s2.1-0.9,2.1-2
		c0-2.3,1.9-4.2,4.2-4.2c1.1,0,2-0.9,2-2C229.3,177.8,228.3,176.9,227.2,176.9z M227.2,176.9c-4.6,0-8.3,3.7-8.3,8.3
		c0,1.1,0.9,2,2,2s2.1-0.9,2.1-2c0-2.3,1.9-4.2,4.2-4.2c1.1,0,2-0.9,2-2C229.3,177.8,228.3,176.9,227.2,176.9z M227.2,176.9
		c-4.6,0-8.3,3.7-8.3,8.3c0,1.1,0.9,2,2,2s2.1-0.9,2.1-2c0-2.3,1.9-4.2,4.2-4.2c1.1,0,2-0.9,2-2
		C229.3,177.8,228.3,176.9,227.2,176.9z M227.2,176.9c-4.6,0-8.3,3.7-8.3,8.3c0,1.1,0.9,2,2,2s2.1-0.9,2.1-2c0-2.3,1.9-4.2,4.2-4.2
		c1.1,0,2-0.9,2-2C229.3,177.8,228.3,176.9,227.2,176.9z M182.2,15.7c-8.3,0-15.1,6.8-15.1,15.1c0,1.3,1,2.3,2.3,2.3
		c1.3,0,2.3-1,2.3-2.3c0-5.8,4.7-10.5,10.5-10.5c1.3,0,2.3-1,2.3-2.3C184.5,16.8,183.5,15.7,182.2,15.7z M182.2,15.7
		c-8.3,0-15.1,6.8-15.1,15.1c0,1.3,1,2.3,2.3,2.3c1.3,0,2.3-1,2.3-2.3c0-5.8,4.7-10.5,10.5-10.5c1.3,0,2.3-1,2.3-2.3
		C184.5,16.8,183.5,15.7,182.2,15.7z M58.7,95.3c-6.7,0-12.1,5.4-12.1,12.1c0,1.7,1.4,3,3,3c1.7,0,3-1.3,3-3c0-3.4,2.8-6.1,6.1-6.1
		c1.7,0,3-1.3,3-3C61.7,96.6,60.4,95.3,58.7,95.3z M58.7,95.3c-6.7,0-12.1,5.4-12.1,12.1c0,1.7,1.4,3,3,3c1.7,0,3-1.3,3-3
		c0-3.4,2.8-6.1,6.1-6.1c1.7,0,3-1.3,3-3C61.7,96.6,60.4,95.3,58.7,95.3z M58.7,95.3c-6.7,0-12.1,5.4-12.1,12.1c0,1.7,1.4,3,3,3
		c1.7,0,3-1.3,3-3c0-3.4,2.8-6.1,6.1-6.1c1.7,0,3-1.3,3-3C61.7,96.6,60.4,95.3,58.7,95.3z M58.7,95.3c-6.7,0-12.1,5.4-12.1,12.1
		c0,1.7,1.4,3,3,3c1.7,0,3-1.3,3-3c0-3.4,2.8-6.1,6.1-6.1c1.7,0,3-1.3,3-3C61.7,96.6,60.4,95.3,58.7,95.3z M227.2,176.9
		c-4.6,0-8.3,3.7-8.3,8.3c0,1.1,0.9,2,2,2s2.1-0.9,2.1-2c0-2.3,1.9-4.2,4.2-4.2c1.1,0,2-0.9,2-2
		C229.3,177.8,228.3,176.9,227.2,176.9z M227.2,176.9c-4.6,0-8.3,3.7-8.3,8.3c0,1.1,0.9,2,2,2s2.1-0.9,2.1-2c0-2.3,1.9-4.2,4.2-4.2
		c1.1,0,2-0.9,2-2C229.3,177.8,228.3,176.9,227.2,176.9z M227.2,176.9c-4.6,0-8.3,3.7-8.3,8.3c0,1.1,0.9,2,2,2s2.1-0.9,2.1-2
		c0-2.3,1.9-4.2,4.2-4.2c1.1,0,2-0.9,2-2C229.3,177.8,228.3,176.9,227.2,176.9z M227.2,176.9c-4.6,0-8.3,3.7-8.3,8.3
		c0,1.1,0.9,2,2,2s2.1-0.9,2.1-2c0-2.3,1.9-4.2,4.2-4.2c1.1,0,2-0.9,2-2C229.3,177.8,228.3,176.9,227.2,176.9z M58.7,95.3
		c-6.7,0-12.1,5.4-12.1,12.1c0,1.7,1.4,3,3,3c1.7,0,3-1.3,3-3c0-3.4,2.8-6.1,6.1-6.1c1.7,0,3-1.3,3-3C61.7,96.6,60.4,95.3,58.7,95.3
		z M58.7,95.3c-6.7,0-12.1,5.4-12.1,12.1c0,1.7,1.4,3,3,3c1.7,0,3-1.3,3-3c0-3.4,2.8-6.1,6.1-6.1c1.7,0,3-1.3,3-3
		C61.7,96.6,60.4,95.3,58.7,95.3z M58.7,95.3c-6.7,0-12.1,5.4-12.1,12.1c0,1.7,1.4,3,3,3c1.7,0,3-1.3,3-3c0-3.4,2.8-6.1,6.1-6.1
		c1.7,0,3-1.3,3-3C61.7,96.6,60.4,95.3,58.7,95.3z M58.7,95.3c-6.7,0-12.1,5.4-12.1,12.1c0,1.7,1.4,3,3,3c1.7,0,3-1.3,3-3
		c0-3.4,2.8-6.1,6.1-6.1c1.7,0,3-1.3,3-3C61.7,96.6,60.4,95.3,58.7,95.3z M58.7,95.3c-6.7,0-12.1,5.4-12.1,12.1c0,1.7,1.4,3,3,3
		c1.7,0,3-1.3,3-3c0-3.4,2.8-6.1,6.1-6.1c1.7,0,3-1.3,3-3C61.7,96.6,60.4,95.3,58.7,95.3z M58.7,95.3c-6.7,0-12.1,5.4-12.1,12.1
		c0,1.7,1.4,3,3,3c1.7,0,3-1.3,3-3c0-3.4,2.8-6.1,6.1-6.1c1.7,0,3-1.3,3-3C61.7,96.6,60.4,95.3,58.7,95.3z"/>
</g>
</svg>
