<?xml version="1.0" encoding="utf-8"?>
<!-- Generator: Adobe Illustrator 21.1.0, SVG Export Plug-In . SVG Version: 6.00 Build 0)  -->
<svg version="1.1" id="Layer_1" xmlns="http://www.w3.org/2000/svg" xmlns:xlink="http://www.w3.org/1999/xlink" x="0px" y="0px"
	 viewBox="0 0 512 512" style="enable-background:new 0 0 512 512;" xml:space="preserve">
<style type="text/css">
	.st0{fill-rule:evenodd;clip-rule:evenodd;}
</style>
<g id="_x35_2">
	<path class="st0" d="M132.6,257.8v3.7h7.4v-3.7H132.6z"/>
	<path class="st0" d="M154.7,257.8v3.7h-7.4v-3.7H154.7z"/>
	<path class="st0" d="M169.4,257.8v3.7h-7.4v-3.7H169.4z"/>
	<path class="st0" d="M184.2,257.8v3.7h-7.4v-3.7H184.2z"/>
	<path class="st0" d="M328.7,257.8l-3.6,3.7h6.4v-3.7H328.7z"/>
	<path class="st0" d="M346.2,257.8v3.7h-7.4v-3.7H346.2z"/>
	<path class="st0" d="M361,257.8v3.7h-7.4v-3.7H361z"/>
	<path class="st0" d="M375.7,257.8v3.7h-7.4v-3.7H375.7z"/>
	<path class="st0" d="M257.8,143.7h-3.7v-7.4h3.7V143.7z"/>
	<path class="st0" d="M257.8,158.4h-3.7V151h3.7V158.4z"/>
	<path class="st0" d="M254.2,165.8v0.9l3.7,5v-5.9H254.2z"/>
	<path class="st0" d="M254.2,226.2v5.8h3.7v-3.3L254.2,226.2z"/>
	<path class="st0" d="M257.8,349.9h-3.7v-7.4h3.7V349.9z"/>
	<rect x="254.2" y="357.3" width="3.7" height="7.4"/>
	<rect x="254.2" y="372" width="3.7" height="7.4"/>
	<path d="M509.1,217c-0.3-2-0.6-3.9-1-5.9c-0.6-3.6-1.3-7.1-2.1-10.6c-0.3-1.6-0.7-3.2-1.1-4.8c-3.8-15.7-9-30.8-15.5-45.2
		c-0.8-1.9-1.7-3.8-2.6-5.6c-8.1-16.8-18-32.6-29.4-47.1c-1.3-1.6-2.6-3.2-3.9-4.8c-10.4-12.6-22-24.3-34.7-34.7
		c-1.6-1.3-3.2-2.6-4.8-3.9c-14.5-11.4-30.3-21.3-47.1-29.4c-1.9-0.9-3.7-1.8-5.6-2.6c-14.4-6.5-29.5-11.7-45.2-15.5
		c-1.6-0.4-3.2-0.8-4.8-1.1c-3.5-0.8-7-1.5-10.6-2.1c-1.9-0.3-3.9-0.7-5.9-1c-12.7-1.9-25.7-3-39-3c-13.3,0-26.3,1-39,3
		c-2.1,0.3-4.2,0.7-6.3,1c-3.2,0.6-6.3,1.2-9.4,1.9c-2.1,0.5-4.1,0.9-6.2,1.4c-7.2,1.8-14.3,3.8-21.2,6.2c-1.5,0.5-3,1-4.4,1.5
		c-1.5,0.5-2.9,1.1-4.4,1.6c-3.9,1.5-7.8,3.1-11.6,4.7c-3.8,1.7-7.6,3.4-11.3,5.3c0,0,0,0,0,0c-1.4,0.7-2.8,1.4-4.1,2.1
		c-1.4,0.7-2.7,1.4-4.1,2.2c-1.8,1-3.6,2-5.4,3c-1.8,1-3.6,2.1-5.3,3.1c-7,4.3-13.9,8.9-20.4,13.8c-1.6,1.2-3.3,2.5-4.9,3.7
		c-1.6,1.3-3.2,2.6-4.8,3.9c-0.8,0.6-1.6,1.3-2.4,2c-1.6,1.3-3.1,2.7-4.6,4c-7.7,6.8-14.9,14-21.7,21.7c-1.4,1.5-2.7,3.1-4,4.6
		c-0.7,0.8-1.3,1.6-2,2.4c-1.3,1.6-2.6,3.2-3.9,4.8c-1.3,1.6-2.5,3.2-3.7,4.9c-4.9,6.6-9.5,13.4-13.8,20.4c-1.1,1.8-2.1,3.5-3.1,5.3
		c-1,1.8-2,3.6-3,5.4c-0.7,1.4-1.5,2.7-2.2,4.1c-0.7,1.4-1.4,2.8-2.1,4.1c0,0,0,0,0,0c-1.8,3.7-3.6,7.5-5.3,11.3
		c-1.7,3.8-3.2,7.7-4.7,11.6c-0.5,1.5-1.1,2.9-1.6,4.4c-0.5,1.5-1,3-1.5,4.4c-2.3,6.9-4.4,14-6.2,21.2c-0.5,2.1-1,4.1-1.4,6.2
		c-0.7,3.1-1.3,6.3-1.9,9.4c-0.4,2.1-0.7,4.2-1,6.3c-1.9,12.7-3,25.7-3,39s1,26.3,3,39c0.3,2.1,0.7,4.2,1,6.3
		c0.6,3.2,1.2,6.3,1.9,9.4c0.5,2.1,0.9,4.1,1.4,6.2c1.8,7.2,3.8,14.3,6.2,21.2c0.5,1.5,1,3,1.5,4.4c0.5,1.5,1.1,2.9,1.6,4.4
		c1.5,3.9,3.1,7.8,4.7,11.6c1.7,3.8,3.4,7.6,5.3,11.3c0,0,0,0,0,0c0.7,1.4,1.4,2.8,2.1,4.1c0.7,1.4,1.4,2.7,2.2,4.1
		c1,1.8,2,3.6,3,5.4c1,1.8,2.1,3.6,3.1,5.3c4.3,7,8.9,13.9,13.8,20.4c1.2,1.6,2.5,3.3,3.7,4.9c1.3,1.6,2.6,3.2,3.9,4.8
		c0.6,0.8,1.3,1.6,2,2.4c1.3,1.6,2.7,3.1,4,4.6c6.8,7.7,14,14.9,21.7,21.7c1.5,1.4,3.1,2.7,4.6,4c0.8,0.7,1.6,1.3,2.4,2
		c1.6,1.3,3.2,2.6,4.8,3.9c1.6,1.3,3.2,2.5,4.9,3.7c6.6,4.9,13.4,9.5,20.4,13.8c1.8,1.1,3.5,2.1,5.3,3.1c1.8,1,3.6,2,5.4,3
		c1.4,0.7,2.7,1.5,4.1,2.2c1.4,0.7,2.8,1.4,4.1,2.1c0,0,0,0,0,0c3.7,1.8,7.5,3.6,11.3,5.3c3.8,1.7,7.7,3.2,11.6,4.7
		c1.5,0.5,2.9,1.1,4.4,1.6c1.5,0.5,3,1,4.4,1.5c6.9,2.4,14,4.4,21.2,6.2c2.1,0.5,4.1,1,6.2,1.4c3.1,0.7,6.3,1.3,9.4,1.9
		c2.1,0.4,4.2,0.7,6.3,1c12.7,1.9,25.7,3,39,3c13.3,0,26.3-1,39-3c2-0.3,3.9-0.6,5.9-1c3.5-0.6,7.1-1.3,10.6-2.1
		c1.6-0.3,3.2-0.7,4.8-1.1c15.7-3.8,30.8-9,45.2-15.5c1.9-0.8,3.8-1.7,5.6-2.6c16.8-8.1,32.6-18,47.1-29.4c1.6-1.3,3.2-2.6,4.8-3.9
		c12.6-10.4,24.3-22.1,34.7-34.7c1.3-1.6,2.6-3.2,3.9-4.8c11.4-14.5,21.3-30.3,29.4-47.1c0.9-1.9,1.8-3.7,2.6-5.6
		c6.5-14.4,11.7-29.5,15.5-45.2c0.4-1.6,0.8-3.2,1.1-4.8c0.8-3.5,1.5-7,2.1-10.6c0.3-1.9,0.7-3.9,1-5.9c1.9-12.7,2.9-25.7,2.9-39
		S511,229.7,509.1,217z M431,265.2v7.4h28.4c-8.1,100.7-89.3,180.7-190.5,187v-24.9h-7.4v-55.3h-11.1v55.3h-7.4v24.9
		c-101.2-6.3-182.3-86.4-190.4-187h24.7v-7.4h55.2v-11.1H77.4v-7.4H52.2c4.6-104.1,87.3-187.9,190.9-194.4V81h7.4v51.6h11.1V81h7.4
		V52.4c103.6,6.5,186.3,90.3,190.9,194.4H431v7.4h-51.6v11.1H431z"/>
	<path d="M393.9,209.7c-4.5-7-12.5-12.1-20.2-11.4c-7.2,0.7-19.3,8.1-32.7,11.8c-16,4.4-36.9,5.7-53.5,11.8
		c-1.7,0.6-3.9-10.4-11.9-23.7c-5.2-8.6-11.8-18.3-17.8-26.7v1.4h-3.7v-6.4c-7.1-9.5-13-16.2-14.2-15.7
		c-1.7,0.7-28.3,21.4-23.8,35.5c5.2,16.1,26,31.3,38,39.7v-1.5h3.7v4.1c3.4,2.4,5.3,3.8,4.8,4.1c-3.3,1.6-6.2,3-8.7,4.2
		c-3.6,1.7-47.5-71.1-144.8-50.5c-9.8,2.1,12.2,28.4,38.6,47.3c15.5,11.1,33.5,14.5,44.8,24h6.4v3.7h-2.6c6.7,7.8,7.4,18.3,6.4,22.7
		c-0.9,4-49,43.5-49,47.3c0,7.8,7.3,11.9,17.9,13.7c8,1.4,20.2-7.9,29.7-4.8c3.4,1.1,13.5,6.2,20.8,5.9c9.8-0.4,18.7-2.1,23.8-3
		c54.8-9.7,53.6-53.1,79.3-81.8h-1v-3.7h4.6c12.4-12.3,23.3-20.3,30.2-18.1c1.8,0.6,16.9,2.9,23.8,0c6.1-2.6,10-6,12.3-9.7
		c2.2-3.6,32.8-7.2,32.3-11C426.9,215.8,395.7,212.5,393.9,209.7z M257.8,217.3h-3.7V210h3.7V217.3z M257.8,202.6h-3.7v-7.4h3.7
		V202.6z M257.8,187.9h-3.7v-7.4h3.7V187.9z M213.6,261.5h-7.4v-3.7h7.4V261.5z M228.4,261.5H221v-3.7h7.4V261.5z M243.1,261.5h-7.4
		v-3.7h7.4V261.5z M257.8,335.2h-3.7v-7.4h3.7V335.2z M257.8,320.5h-3.7v-7.4h3.7V320.5z M257.8,305.7h-3.7v-7.4h3.7V305.7z
		 M257.8,291h-3.7v-7.4h3.7V291z M257.8,276.3h-3.7v-7.4h3.7V276.3z M257.8,246.8h-3.7v-7.4h3.7V246.8z M272.6,261.5h-7.4v-3.7h7.4
		V261.5z M287.3,261.5h-7.4v-3.7h7.4V261.5z M302,261.5h-7.4v-3.7h7.4V261.5z M316.8,261.5h-7.4v-3.7h7.4V261.5z"/>
</g>
</svg>
