<?xml version="1.0" encoding="utf-8"?>
<!-- Generator: Adobe Illustrator 21.1.0, SVG Export Plug-In . SVG Version: 6.00 Build 0)  -->
<svg version="1.1" id="Layer_4" xmlns="http://www.w3.org/2000/svg" xmlns:xlink="http://www.w3.org/1999/xlink" x="0px" y="0px"
	 viewBox="0 0 574 512" style="enable-background:new 0 0 574 512;" xml:space="preserve">
<style type="text/css">
	.st0{fill-rule:evenodd;clip-rule:evenodd;}
</style>
<g>
	<path d="M393.9,66.8l113.3,185.6L180.1,445.3L66.8,259.7L393.9,66.8 M407,0c-2.2,0-4.5,0.6-6.5,1.8L6,235.8
		c-5.9,3.6-7.8,11.4-4.2,17.3L156.2,506c2.4,3.9,6.5,6,10.8,6c2.2,0,4.5-0.6,6.5-1.8l394.4-234c5.9-3.6,7.8-11.4,4.2-17.3L417.8,6
		C415.4,2.2,411.3,0,407,0L407,0z"/>
	<path d="M243.5,190.9l-67.5,94.9l8.1,13.4c1.1,1.9,3.5,2.5,5.4,1.3l9.9-6l3.9,6.5l156.2-94.5l-3.9-6.5l9.9-6
		c1.9-1.1,2.5-3.5,1.3-5.4l-8.1-13.4L243.5,190.9z M271,236.5c-5.6,3.4-12.8,1.6-16.2-4c-3.4-5.6-1.6-12.8,4-16.2s12.8-1.6,16.2,4
		C278.4,225.9,276.6,233.1,271,236.5z"/>
	<path class="st0" d="M415.6,236.6l0.9,1.4l-9.8,6l-1.3-1.9c-2.7-3.7-3.9-8.4-3.2-14.5c0.5-4.3,0.9-7.9-0.7-10.5
		c-1.7-2.6-4.5-3.4-8.3-1.2c-2.4,1.5-4.8,4.2-5.9,6.7l-7.7-6.7c1.6-3.2,5.1-7.4,10.4-10.6c9.7-6,17.7-3.1,21.7,3.1
		c3.6,5.8,2.6,11.7,1.8,16.5C412.6,229.6,413.4,233.2,415.6,236.6z M351.1,273.4c-6.4-3.6-13.8-8.2-20.1-12.7l-0.2,0.2
		c4.6,6.6,9.3,13.7,14.6,22l9.8,15.4l-10.3,6.3l-32.4-51l13.1-8l22.2,12.4c6.4,3.6,13.4,8.1,19.2,12.5l0.2-0.1
		c-5-6.3-9.6-13-14.5-20.7l-9.5-14.9l10.3-6.3l32.4,51l-11.8,7.2L351.1,273.4z M310.2,307.5l-14.3,8.7l4.8,15.3l-11.7,7.1
		l-17.2-60.3l14.8-9l47.8,41.6l-12.1,7.4L310.2,307.5z M293.2,291c-2.8-2.5-6.1-5.7-8.8-8.3l-0.1,0.1c1.2,3.5,2.9,7.8,4,11.2
		l3.9,12.6l11-6.7L293.2,291z M272.2,328.3c2.9,4.6,3.2,9.5,1.7,14c-1.7,5.2-6.7,10.5-16.6,16.6c-5.5,3.4-9.9,5.5-12.7,6.7
		l-31.8-50.1c2.6-2.4,8.3-6.5,13.9-9.9c6.9-4.2,11.5-6.1,16.5-6.1c4.7-0.2,9.4,1.7,12.3,6.3c2.9,4.5,3,10.4-1.3,15.9l0.1,0.2
		C261,319.9,268,321.7,272.2,328.3z M233.4,313c-2.4,1.5-3.7,2.5-4.6,3.2l7.5,11.9l3.7-2.3c5.9-3.6,7.5-8,5.1-11.8
		C242.7,310.2,238.5,309.9,233.4,313z M245.4,334l-3.8,2.3l9.1,14.4c1.2-0.5,2.5-1.3,4.5-2.5c5.1-3.1,8.4-7.8,4.9-13.2
		C256.8,329.9,251,330.6,245.4,334z M187.6,329.8l11.3-6.9l32.4,51l-11.3,6.9L187.6,329.8z M413.6,244.6c4-2.4,8.4-1.1,11,2.8
		c2.5,3.9,1.7,8.5-2.3,10.9c-3.9,2.4-8.4,1.1-10.9-2.9C408.8,251.5,409.7,247,413.6,244.6z"/>
</g>
</svg>
