<?xml version="1.0" encoding="utf-8"?>
<!-- Generator: Adobe Illustrator 21.1.0, SVG Export Plug-In . SVG Version: 6.00 Build 0)  -->
<svg version="1.1" id="Layer_1" xmlns="http://www.w3.org/2000/svg" xmlns:xlink="http://www.w3.org/1999/xlink" x="0px" y="0px"
	 viewBox="0 0 589 512" style="enable-background:new 0 0 589 512;" xml:space="preserve">
<g id="_x35_2">
	<path d="M0.1,22.6v466.8c0,12.5,10.1,22.6,22.6,22.6h543.6c12.5,0,22.6-10.1,22.6-22.6V22.6c0-12.5-10.1-22.6-22.6-22.6H22.7
		C10.2,0,0.1,10.1,0.1,22.6z M449.9,460.1H298.3l65.8-81.8L449.9,460.1z M519.3,460.1L363.8,304.6L228.9,460.1H84.7l74-104
		l51.9,51.9l153.7-173.7L537,407v53.1H519.3z M537,333.6L364.3,161l-0.4,0.4L210.6,334.6l-52-52L52,419.4V51.9h485V333.6z"/>
	<circle cx="204.6" cy="167.7" r="54.9"/>
</g>
</svg>
