<?xml version="1.0" encoding="utf-8"?>
<!-- Generator: Adobe Illustrator 21.1.0, SVG Export Plug-In . SVG Version: 6.00 Build 0)  -->
<svg version="1.1" id="Layer_1" xmlns="http://www.w3.org/2000/svg" xmlns:xlink="http://www.w3.org/1999/xlink" x="0px" y="0px"
	 viewBox="0 0 512 512" style="enable-background:new 0 0 512 512;" xml:space="preserve">
<g>
	<path d="M451.3,0H60.8C27.2,0,0,27.2,0,60.8v390.5C0,484.8,27.2,512,60.8,512h390.5c33.5,0,60.8-27.2,60.8-60.8V60.8
		C512,27.2,484.8,0,451.3,0z M52,60.8c0-4.8,3.9-8.8,8.8-8.8h390.5c4.8,0,8.8,3.9,8.8,8.8v286.4l-77.5-77.1l-93,92.9l-161.7-157
		L52,282.1V60.8z M460,451.3c0,4.8-3.9,8.8-8.8,8.8H60.8c-4.8,0-8.8-3.9-8.8-8.8v-95.6l76.4-76.6l124.8,121.2l36.7,35.7l36.2-36.2
		l56.4-56.3l77.5,77.2V451.3z"/>
	<circle cx="287.7" cy="156.7" r="61.2"/>
</g>
</svg>
