<?xml version="1.0" encoding="utf-8"?>
<!-- Generator: Adobe Illustrator 21.1.0, SVG Export Plug-In . SVG Version: 6.00 Build 0)  -->
<svg version="1.1" id="Layer_1" xmlns="http://www.w3.org/2000/svg" xmlns:xlink="http://www.w3.org/1999/xlink" x="0px" y="0px"
	 viewBox="0 0 512 512" style="enable-background:new 0 0 512 512;" xml:space="preserve">
<g id="_x35_2">
	<path d="M466,138.8h-60.9L372.8,33.2C366.7,13,348.1,0,328,0c-4.5,0-9.2,0.7-13.7,2.1l-281,86C8.6,95.6-5.3,121.8,2.2,146.6
		L84,413.7c5.7,18.7,22.1,31.3,40.5,33V466c0,25.4,20.6,46,46,46H466c25.4,0,46-20.6,46-46V184.8C512,159.4,491.4,138.8,466,138.8z
		 M124.4,184.8v183.4l-71-232l271.1-83l26.2,85.5H170.4C145,138.8,124.4,159.4,124.4,184.8z M460,453.4c0,3.7-3,6.6-6.6,6.6
		l-270.3,0c-3.7,0-6.6-3-6.6-6.6v-78l45.2-45.3l28.4,27.6l42.6,41.3l51.3,49.9l70.1-70l46,45.8V453.4z M445.4,344.5L414,313.3
		l-70.1,70l-0.3,0.3l-0.2-0.2L300.8,342l-79.6-77.3l-44.7,45V197.8c0-3.7,3-6.6,6.6-6.6h270.3c3.7,0,6.6,3,6.6,6.6l0,161.2
		L445.4,344.5z"/>
	<circle cx="342.2" cy="265.3" r="46.3"/>
</g>
</svg>
