<?xml version="1.0" encoding="utf-8"?>
<!-- Generator: Adobe Illustrator 21.1.0, SVG Export Plug-In . SVG Version: 6.00 Build 0)  -->
<svg version="1.1" id="Layer_1" xmlns="http://www.w3.org/2000/svg" xmlns:xlink="http://www.w3.org/1999/xlink" x="0px" y="0px"
	 viewBox="0 0 512 512" style="enable-background:new 0 0 512 512;" xml:space="preserve">
<g>
	<g>
		<rect x="283" y="362" width="33" height="33"/>
	</g>
	<g>
		<polygon points="283.2,439 316.1,439 316.2,406.1 283.2,406.1 		"/>
	</g>
	<g>
		<rect x="336.9" y="406.1" width="33" height="32.9"/>
	</g>
	<g>
		<polygon points="336.9,362 336.9,394.9 369.9,394.9 370,362 		"/>
	</g>
	<g>
		<rect x="74" y="387.8" width="44.2" height="44.2"/>
	</g>
	<g>
		<rect x="135.8" y="326" width="44.2" height="44.2"/>
	</g>
	<g>
		<rect x="135.8" y="387.8" width="44.2" height="44.2"/>
	</g>
	<g>
		<rect x="74" y="326" width="44.2" height="44.2"/>
	</g>
	<g>
		<path d="M354.2,0c-92.9,0-94.7,68.5-188.3,68.5c-31.1,0-55.4-2.6-93.9-35.5c0,36.8,20.1,98.5,93.9,98.5c98,0,93.6-68.5,188.3-68.5
			c31.5,0,57.2,2.1,93.4,35.5C447.6,76.5,435.6,0,354.2,0L354.2,0z M465.1,151c-31.3,0-47,4.5-47,13.5V296h-161v-47H0v263h512V164.5
			C512,155.5,496.4,151,465.1,151L465.1,151z M464.9,177.4c-20.5,0-37-3.8-37-8.4c0-4.6,16.6-8.4,37-8.4c20.5,0,37,3.8,37,8.4
			C502,173.6,485.4,177.4,464.9,177.4L464.9,177.4z M52,460V301h153.2v47h213v112H52L52,460z"/>
	</g>
</g>
</svg>
