<?xml version="1.0" encoding="utf-8"?>
<!-- Generator: Adobe Illustrator 21.1.0, SVG Export Plug-In . SVG Version: 6.00 Build 0)  -->
<svg version="1.1" id="Layer_1" focusable="false" xmlns="http://www.w3.org/2000/svg" xmlns:xlink="http://www.w3.org/1999/xlink"
	 x="0px" y="0px" viewBox="0 0 640 512" style="enable-background:new 0 0 640 512;" xml:space="preserve">
<path id="_x35_2" d="M495.2,96.6c-69.8,0-137.3,68.5-175.6,115.7c-37.9-47.2-105-115.7-174.9-115.7C64.8,96.6,0,168,0,256
	s64.8,159.4,144.8,159.4c70.8,0,137.3-68,174.9-115.2c37.9,47.2,104.8,115.2,175.6,115.2c79.9,0,144.7-71.4,144.7-159.4
	S575.1,96.6,495.2,96.6z M250,301c-38.8,40.3-76.2,62.4-105.2,62.4C93.6,363.4,52,315.2,52,256c0-59.2,41.6-107.4,92.8-107.4
	c28.4,0,65.6,22.2,104.7,62.6c15.3,15.7,28.3,31.7,38.2,44.6c0.1,0.2,0.2,0.3,0.3,0.4c-0.1,0.1-0.1,0.2-0.2,0.3
	C278.1,269.4,265.2,285.3,250,301z M495.2,363.4c-29.1,0-66.7-22.2-105.8-62.5c-15.3-15.7-28.3-31.7-38.1-44.6c0,0-0.1-0.1-0.1-0.1
	c0.1-0.1,0.1-0.2,0.2-0.3c9.7-12.6,22.5-28.1,37.3-43.4c39.9-41.2,77.7-63.9,106.5-63.9c51.1,0,92.7,48.2,92.7,107.4
	C587.9,315.2,546.3,363.4,495.2,363.4z"/>
</svg>
