<?xml version="1.0" encoding="utf-8"?>
<!-- Generator: Adobe Illustrator 22.0.1, SVG Export Plug-In . SVG Version: 6.00 Build 0)  -->
<svg version="1.1" id="Layer_1" xmlns="http://www.w3.org/2000/svg" xmlns:xlink="http://www.w3.org/1999/xlink" x="0px" y="0px"
	 viewBox="0 0 512 512" style="enable-background:new 0 0 512 512;" xml:space="preserve">
<g>
	<path d="M462,0.5H50c-27.6,0-50,22.4-50,50v412c0,27.6,22.4,50,50,50h412c27.6,0,50-22.4,50-50v-412C512,22.9,489.6,0.5,462,0.5z
		 M460,448.5c0,9.9-2,12-12,12c-2.4,0-382.6,0-384,0c-10,0-12-2.1-12-12c0-0.6,0-380,0-384c0-10,2-12,12-12c6,0,377.4,0,384,0
		c10,0,12,2,12,12C460,65.8,460,446.5,460,448.5z"/>
	<path id="XMLID_354_" d="M257.6,119.3c-22.2,0-40.2,18-40.2,40.1c0,22.2,18,40.1,40.2,40.1c22.1,0,40.1-18,40.1-40.1
		C297.6,137.2,279.8,119.3,257.6,119.3z M224.6,244.1v140.5c0,5.8,4.7,10.4,10.5,10.4h45c5.8,0,10.5-4.7,10.5-10.4V244.1H224.6z"/>
</g>
</svg>
