<?xml version="1.0" encoding="utf-8"?>
<!-- Generator: Adobe Illustrator 21.1.0, SVG Export Plug-In . SVG Version: 6.00 Build 0)  -->
<svg version="1.1" id="Layer_1" xmlns="http://www.w3.org/2000/svg" xmlns:xlink="http://www.w3.org/1999/xlink" x="0px" y="0px"
	 viewBox="0 0 149.4 512" style="enable-background:new 0 0 149.4 512;" xml:space="preserve">
<path id="XMLID_5_" d="M74.9,52c12.6,0,22.5,9.9,22.5,22.5c0,12.4-10.1,22.5-22.5,22.5c-12.5,0-22.7-10.1-22.7-22.5
	C52.3,62.1,62.4,52,74.9,52 M84.4,243.8V460H65.8V243.8H84.4 M74.9,0C33.7,0,0.3,33.4,0.3,74.5c0,41.2,33.4,74.5,74.7,74.5
	c41,0,74.5-33.4,74.5-74.5C149.4,33.2,116.1,0,74.9,0L74.9,0z M136.4,191.8H13.8v300.9c0,10.8,8.7,19.3,19.5,19.3h83.6
	c10.8,0,19.5-8.7,19.5-19.3V191.8L136.4,191.8z"/>
</svg>
