<?xml version="1.0" encoding="utf-8"?>
<!-- Generator: Adobe Illustrator 22.0.1, SVG Export Plug-In . SVG Version: 6.00 Build 0)  -->
<svg version="1.1" id="Layer_1" xmlns="http://www.w3.org/2000/svg" xmlns:xlink="http://www.w3.org/1999/xlink" x="0px" y="0px"
	 viewBox="0 0 254.3 512" style="enable-background:new 0 0 254.3 512;" xml:space="preserve">
<g>
	<path d="M193.5,379.5H62.6V246.3h130.9V379.5z M77.6,364.5h100.9V261.3H77.6V364.5z"/>
	<path d="M158.2,324.3h-18.8V343c0,6.3-5.1,11.4-11.9,11.4c-6.3,0-11.4-5.1-11.4-11.4v-18.8H97.3c-6.3,0-11.9-5.1-11.9-11.9
		c0-6.3,5.1-11.9,11.9-11.9h18.8v-18.8c0-6.3,5.1-11.9,11.4-11.9s11.9,5.1,11.9,11.9v19.3h18.8c6.3,0,11.9,5.1,11.9,11.9
		C170.1,319.1,165,324.3,158.2,324.3z"/>
	<path d="M235.3,145.9l-45.1-45.7c-3.4-3.4-5.3-8-5.3-12.8V60h25.2V12.9c0-7.1-5.8-12.9-12.9-12.9H56.8c-7.1,0-12.9,5.8-12.9,12.9
		V60h25.2v26.8c0,4.8-1.9,9.4-5.2,12.8l-45.1,45.7C7.1,157.5,0,173.7,0,190.5v295.7C0,500.4,11.6,512,25.8,512h202.4
		c14.2,0,25.8-11.6,25.8-25.8V191.1C254,174.3,247.6,158.2,235.3,145.9z M202,460H52V190.5c0-2.8,1.6-6.3,4.2-9.2l44.6-45.2
		c6.9-7,12.2-15.2,15.6-24.1V62h20.9v50c3.4,9.2,8.8,17.6,15.8,24.8l45.1,45.7l0.1,0.1l0.1,0.1c2.3,2.3,3.5,5.1,3.5,8.4V460z"/>
</g>
</svg>
