<?xml version="1.0" encoding="utf-8"?>
<!-- Generator: Adobe Illustrator 21.1.0, SVG Export Plug-In . SVG Version: 6.00 Build 0)  -->
<svg version="1.1" id="Layer_1" xmlns="http://www.w3.org/2000/svg" xmlns:xlink="http://www.w3.org/1999/xlink" x="0px" y="0px"
	 viewBox="0 0 545.2 512" style="enable-background:new 0 0 545.2 512;" xml:space="preserve">
<g>
	<path d="M368.6,77.2c16.1,15.9,32,32.2,48.4,49.1c20.9,21.4,42.2,43.3,64.4,64.7c-5.3,7.9-11.9,15.8-20.1,23.9
		c-25.1,25.1-60.3,48.5-101.1,75.5c-52.8,35.1-112.7,74.8-168.7,130.8c-4.8,4.8-9.5,9.6-14.1,14.5c-31.6-31.1-76.6-76.2-111.1-113.2
		c5.1-6.2,10.9-12.5,17.5-19c33.7-33.7,79.4-65.7,127.7-99.5c50.3-35.2,102.3-71.5,143-112.3C359.5,86.9,364.2,82.1,368.6,77.2
		 M362.5,0.3c-0.4,0-0.8,0.2-1.2,0.6c-0.4,0.4-0.8,0.9-1.2,1.6c-11,18.3-25.4,35.7-42.2,52.5c-74.8,74.8-196.7,137.7-270.7,211.8
		c-19.4,19.3-35.4,39.3-46.5,60.5c54.8,63.5,179.6,184.3,180.4,184.3l0,0c7.5-9.7,15.3-19,23.2-27.9s15.9-17.4,24.1-25.6
		c95.2-95.2,206-142.5,269.8-206.3c21.6-21.6,37.8-45,46.3-72.9C481.7,121.8,426.8,58.2,364.1,1.2l-0.6-0.4
		C363.1,0.5,362.8,0.3,362.5,0.3L362.5,0.3z"/>
	<path d="M347.8,240l20.7,20.7c31.9-21.3,59.9-40.6,81.4-60.9l-23.2-23.2C402.7,198.8,375.6,219.7,347.8,240z"/>
	<path d="M361.9,111.9c-24,22.2-51,43.1-78.9,63.4l20.7,20.7c31.9-21.3,59.9-40.6,81.4-60.9L361.9,111.9z"/>
	<path id="indian-rupee_2_" d="M190.9,301.5l10.4-8.6l-1.9-25.1l-21.2,17.5c-3.9-3.1-8.2-5.4-12.7-6.9l14.2-11.7l-1.9-25.1
		l-76.5,63.2l3,24.5l27.3-22.6c7-5.8,16.6-6.6,24.2-2.7l-23.6,19.5l2.9,24.4l32.8-27.1c0.2,1.8,0.3,3.5,0.1,5.3
		c-0.5,5.7-3.2,11.2-8,15.1l-14.6,12.1l13.3,16.2l0,0l0,0.1l74.7,2.9l24.1-19.9l-75.1-2.9C194.9,336.6,198.1,317.5,190.9,301.5z"/>
</g>
</svg>
