<?xml version="1.0" encoding="utf-8"?>
<!-- Generator: Adobe Illustrator 21.1.0, SVG Export Plug-In . SVG Version: 6.00 Build 0)  -->
<svg version="1.1" id="Layer_1" focusable="false" xmlns="http://www.w3.org/2000/svg" xmlns:xlink="http://www.w3.org/1999/xlink"
	 x="0px" y="0px" viewBox="0 0 384 512" style="enable-background:new 0 0 384 512;" xml:space="preserve">
<path id="_x35_2" d="M94.2,512.3c-35,0-64.8-19.3-83.8-54.4C6.8,451.4,4,445,1.7,439.1c-5.9-15.2,3.9-31.7,20.4-34.3l0.8-0.1
	c12.4-2,24.4,5,28.9,16.4c0.5,1.2,1,2.4,1.5,3.7c14.4,33.5,27,35.5,40.6,35.5c8.2,0,15-7.6,34.6-63.5
	c14.6-41.8,67.9-262.3,83.3-305.5c8.8-24.6,17.5-43.2,26.7-57c13.3-19.9,29-31.2,46.5-33.4c22.2-2.9,42.8,2.6,59.6,15.7
	c22,17.3,33.1,44.7,38.6,65.8c4,15.3-7.2,30.5-23.4,31.7l-1,0.1c-12.6,1-24.2-6.9-27.5-18.7c-1.6-5.6-3.6-11.7-6.3-18.4
	c-7.7-19.7-18.7-24.9-28.3-24.9c-6.8,0-18.6,9.5-36.8,62.7c-13.6,39.8-67.1,261.5-83.8,306.8c-9.6,26-19.2,45.4-29.5,59.5
	C131.6,501.8,113.9,512.3,94.2,512.3z"/>
</svg>
