<?xml version="1.0" encoding="utf-8"?>
<!-- Generator: Adobe Illustrator 21.1.0, SVG Export Plug-In . SVG Version: 6.00 Build 0)  -->
<svg version="1.1" id="share-square" xmlns="http://www.w3.org/2000/svg" xmlns:xlink="http://www.w3.org/1999/xlink" x="0px"
	 y="0px" viewBox="0 0 741.5 512" style="enable-background:new 0 0 741.5 512;" xml:space="preserve">
<g>
	<g>
		<path d="M647.5,229.9c-0.2,0-94.4-5.8-94.4-6.1c0-1.9-1.8-3.6-1.8-5.3c0-0.2-2.8-0.2-6.2-0.2c-5,0-11.3,0.1-11.3,0.1v-8.5
			c0-1.3-1-2.3-2.3-2.3l-9.4-0.1c0,0,0.1-6,0.1-7.1c0-10.1-144.4-16.4-145.3-16.4c-0.2-0.3-24.5-28.8-54.3-63.3h23.7l48.4-14.5
			l-48.3-15.1h-49c-10.4-12-20.8-24-30.4-35.2h44.1l29.4-8.7l-29.4-8.9h-59.3C241.2,26,232.3,15.8,226.5,9h59.7l14.7-4.4l-14.7-4.5
			H169.9v185.5h-36.4L48.1,89.2l-32.7,3.6l-3.7,118.3l16.4,14.6H5.7c-3,0-5.5,2.5-5.5,5.5v49c0,3,2.5,5.5,5.5,5.5h22.4l-14.8,13.6
			l2.1,119.1l32.7,3.6l87.2-96.4h34.5v185.5h116.4l14.7-4.5l-14.7-4.4h-59.7l25.5-29.3h59.1l29.4-8.9l-29.4-8.7h-43.8l30.6-35.2
			h48.5l48.4-14.8l-48.4-14.5h-23l55.3-63.6c0,0,141.7-8.7,141.7-17.8c0-0.9,0-4.9,0-4.9l11.2-0.4c1.2-0.1,2.2-1.1,2.2-2.3l0.1-8.5
			c0,0,1.9,0,4.5,0c5.2,0,12.9,0,12.9-0.3c0-2.2,1.8-2.9,1.8-5.3c0-0.3,94.1-7.9,94.4-8c26.8-3.9,93.7-22.9,93.7-24
			C741.3,254.7,674.3,233,647.5,229.9z M462.3,268.2c-8.3,0.9-18.3,1.9-30.4,2.9c-29.5,2.6-56.2,4.2-56.5,4.2l-21.8,1.3l-14.2,16.5
			l-55.3,63.6l-9.9,11.4L258.8,386l-30.7,35.2l-6.4,7.3V273.6H100.1l18.7-19l-21.5-17h124.5v-154l61.4,71.1
			c26,30.1,48.6,56.6,53.1,61.9l14.8,19.4h24.7c4.5,0.2,29.7,1.3,58.4,3.4c11,0.8,20.4,1.6,28.2,2.3V268.2z M576.5,272.3l-62.3-1.5
			v-30.4l62.3-1.4c0,0,2.9,4.5,2.9,16.4C579.4,268.1,576.5,272.3,576.5,272.3z M583.7,272.3c4.3-8.9,4.3-24.7,0-33.4
			c21.6,0,40.6,7.5,40.6,16.7C624.3,264.8,605.3,272.3,583.7,272.3z"/>
	</g>
</g>
</svg>
