<?xml version="1.0" encoding="utf-8"?>
<!-- Generator: Adobe Illustrator 21.1.0, SVG Export Plug-In . SVG Version: 6.00 Build 0)  -->
<svg version="1.1" id="share-square" xmlns="http://www.w3.org/2000/svg" xmlns:xlink="http://www.w3.org/1999/xlink" x="0px"
	 y="0px" viewBox="0 0 1090 512" style="enable-background:new 0 0 1090 512;" xml:space="preserve">
<path d="M94.3,108.2l97.3,152.5l83.9,37.9l330.6-6.4l0.2,25.5l108.2,19.5l45.7,6.8l98.3,11.2c0,0,6.5,1.8,9.3,2.5H678.9v19.9h-19.3
	v-20H548.7l0.2,10H492c-7.8-4.4-16.7-6.9-26.1-6.9c-14,0-27.7,5.7-37.5,15.7c-2.4,2.4-4.5,5-6.4,7.8l-3.8-0.2l-0.4-26.4l-253,0.1
	l-2.4,3.8l-62.8-19.9v-17.2H52v-5.9h3.2l83.8-15.4v-98.6H91.6L94.3,108.2 M86.9,0l-42,13.3l-5.6,199.8h-8.4l-28,16.7v6.7l25.2,20H87
	v3.3l-36.5,6.7H7.1c-3.9,0-7.1,3.2-7.1,7.1v95.7c0,3.9,3.2,7.1,7.1,7.1h40.6v3.3l76.2,24.1l-0.5,5.9l61.7,13.3l8.4-13.3h112.2
	c1.5,6.3-1.1,18.8-3.3,23.3c20.6-2.5,30.7-12.7,34-23.3h2.7V442c-13.3,1.9-23.6,13.4-23.6,27.2c0,15.3,12.3,27.6,27.5,27.6
	c0.6,0,1.3,0,1.9-0.1c13.5-0.9,24.4-11.7,25.6-25.1c1.2-14-8.1-26-20.9-29.1v-32.9h17c0.3,19.3,47.3,26.6,47.9,26.6H465
	c0.4,0,0.2-15.4,0.2-22.8c0-0.5,0.4-0.7,0.7-0.7c0.3,0,0.5,0.1,0.7,0.5l4,9.7l48.9-1.3l12.8,11.3h8.4v-13.3H602l-0.2-10h5.8v20h113
	v28.2c-14.3,2-25,14.9-23.5,30.1c1.3,12.8,11.5,23.1,24.2,24.5c1.1,0.1,2.2,0.2,3.2,0.2c15.2,0,27.5-12.4,27.5-27.6
	c0-12.9-8.9-23.8-21-26.7v-34.9h-0.1v-13.7c0,0,61.3,0,117.7,0c0.2,0,0,12.7,0,13.3c0,0,0,0,0,0c0,0,0,0,0,0c0,0,0,0,0,0
	c0,0,0,0,0,0c0,0,0,0,0,0c0,0,0,0,0,0c-0.5,0-5.7,2.9-5.7,5.5c0,2.7,5.6,4.5,5.7,4.5h16.8c7.1,0,6.7-10,0-10c-0.5,0-8.4,0-8.4,0
	c0.2,0-0.2-13.3,0-13.3h64.6c-0.1,0.5-0.1,1.1-0.1,1.7c0,6.4,4.4,11.7,9.8,11.7c5.4,0,9.8-5.2,9.8-11.7c0-0.6-0.1-1.1-0.1-1.7
	c0.1,0,0.1,0,0.1,0s150.3-8.6,148.6-30c-1-16.3-212.8-73.4-212.8-73.4s-38.9-28.5-71.4-50.4c-15.6-10.5-32.7-16.2-43.6-16.2
	c-21.4,0-475.9,6.6-475.9,6.6l-58.9-26.6L86.9,0L86.9,0z M770,294.4l-112-20.2l-0.2-22c0,0,97.7-0.9,99.6-0.9c7.7,0,18.6,3,26.2,6.7
	C779.5,269.2,770,294.4,770,294.4L770,294.4z M855.7,303.2l-72.5-4.7l12.5-36.1L855.7,303.2L855.7,303.2z M343.2,483.6
	c-8,0-14.4-6.5-14.4-14.4c0-8,6.5-14.4,14.4-14.4s14.4,6.4,14.4,14.4S351.1,483.6,343.2,483.6L343.2,483.6z M724.7,499.3
	c-8,0-14.4-6.5-14.4-14.4c0-8,6.5-14.4,14.4-14.4s14.4,6.5,14.4,14.4C739.1,492.9,732.6,499.3,724.7,499.3L724.7,499.3z"/>
</svg>
