<?xml version="1.0" encoding="utf-8"?>
<!-- Generator: Adobe Illustrator 22.0.1, SVG Export Plug-In . SVG Version: 6.00 Build 0)  -->
<svg version="1.1" id="Layer_2" xmlns="http://www.w3.org/2000/svg" xmlns:xlink="http://www.w3.org/1999/xlink" x="0px" y="0px"
	 viewBox="0 0 512 512" style="enable-background:new 0 0 512 512;" xml:space="preserve">
<g id="_x35_2">
	<path d="M256,0.7L0,46.7v419.4l256,46l256-46V218v-24v-26.4v-30.8V46.7L256,0.7z M460,422.6l-204,36.7L52,422.6V162.7l204-19.3
		l204,19.3V422.6z M256,104.6L52,130.2V90.1l204-36.7l204,36.7v40.1L256,104.6z"/>
	<polygon points="357,179.5 283,172.6 283,196.6 357,203.5 	"/>
	<polygon points="452,188.4 395,183.1 395,207.1 452,212.4 	"/>
	<polygon points="170,202 227,196.6 227,172.6 170,178 	"/>
	<polygon points="80,209.6 138,204.2 138,180.2 80,185.6 	"/>
</g>
</svg>
