<?xml version="1.0" encoding="utf-8"?>
<!-- Generator: Adobe Illustrator 21.1.0, SVG Export Plug-In . SVG Version: 6.00 Build 0)  -->
<svg version="1.1" id="Layer_1" xmlns="http://www.w3.org/2000/svg" xmlns:xlink="http://www.w3.org/1999/xlink" x="0px" y="0px"
	 viewBox="0 0 512 512" style="enable-background:new 0 0 512 512;" xml:space="preserve">
<path d="M502.4,458.8l-9.6-9.6l17.1-17.1l-38.5-38.5l-17.1,17.1l-16.6-16.6L470,362l-38.5-38.5l19.2-19.2l-38.5-38.5l-51.4,51.4
	l-76.5-76.5c54.5-70.2,61.3-158.4,12.2-207.5c-54.7-54.7-158-40-230.7,32.7c-72.7,72.7-87.4,176-32.7,230.7
	c49,49,137.2,42.3,207.3-12.1l218.2,218.2c12.1,12.1,31.7,12.1,43.8,0l0,0C514.5,490.6,514.5,470.9,502.4,458.8z M70.2,259.4
	C35.9,225,50.3,154.8,102.5,102.7C154.7,50.5,224.8,36,259.2,70.4c34.4,34.4,19.9,104.5-32.3,156.7
	C174.8,279.3,104.6,293.7,70.2,259.4z"/>
</svg>
