<?xml version="1.0" encoding="utf-8"?>
<!-- Generator: Adobe Illustrator 22.0.1, SVG Export Plug-In . SVG Version: 6.00 Build 0)  -->
<svg version="1.1" id="Layer_3" xmlns="http://www.w3.org/2000/svg" xmlns:xlink="http://www.w3.org/1999/xlink" x="0px" y="0px"
	 viewBox="0 0 576 512" style="enable-background:new 0 0 576 512;" xml:space="preserve">
<style type="text/css">
	.st0{fill:#070707;}
</style>
<g id="_x35_2">
	<path class="st0" d="M0,80v352.7c0,8.3,6.7,15,15,15H561c8.3,0,15-6.7,15-15V80c0-8.3-6.7-15-15-15H15C6.7,65,0,71.7,0,80z
		 M52.1,395.7V117h471.8v278.7H52.1z"/>
	<path class="st0" d="M461.4,377h52.1v-52h-52.1V377z M461.4,281.6h52.1v-52h-52.1V281.6z M461.4,133.7v52h52.1v-52H461.4z
		 M220.7,377h212.7v-52H220.7V377z M381.2,281.6h52.1v-52h-52.1V281.6z M381.2,185.7h52.1v-52h-52.1V185.7z M352.9,229.6h-52.1v52
		h52.1V229.6z M352.9,133.7h-52.1v52h52.1V133.7z M272.7,229.6h-52.1v52h52.1V229.6z M272.7,133.7h-52.1v52h52.1V133.7z M140.2,377
		h52.1v-52h-52.1V377z M140.2,281.6h52.1v-52h-52.1V281.6z M140.2,185.7h52.1v-52h-52.1V185.7z M59.9,377H112v-52H59.9V377z
		 M59.9,281.6H112v-52H59.9V281.6z M59.9,185.7H112v-52H59.9V185.7z"/>
</g>
</svg>
