<?xml version="1.0" encoding="utf-8"?>
<!-- Generator: Adobe Illustrator 21.1.0, SVG Export Plug-In . SVG Version: 6.00 Build 0)  -->
<svg version="1.1" id="Layer_1" xmlns="http://www.w3.org/2000/svg" xmlns:xlink="http://www.w3.org/1999/xlink" x="0px" y="0px"
	 viewBox="0 0 388 512" style="enable-background:new 0 0 388 512;" xml:space="preserve">
<g>
	<g>
		<g>
			<path d="M125.5,291.5c-3.3-9.6-5.1-20-5.1-30.7c0-26.3,10.8-50.2,28.3-67.2c-4.1-6.9-7.7-14.2-10.5-21.9c-0.7-1.7-1-3.5-1-5.3
				c0-6,3.5-11.6,9.4-13.9c7.9-3.2,16.7,0.8,19.7,8.8c1.9,5.1,4.2,10.1,7,14.9c12.5-6.1,26.6-9.6,41.4-9.6c0.8,0,1.7,0,2.5,0
				c-6.7-11.9-16.4-22.5-28.8-30.3c-39.7-25-92.2-13-117.2,26.7c-18.3,29.2-16.8,65.2,1.1,92.2L1.1,368l0.2,38.8
				c0.1,10.1,9.5,17.6,19.3,15.3l29.6-4.3c5.5-1,9.4-6,9.1-11.6l-2-6.9c-0.2-2.7,1.1-5.3,3.3-6.8l17.4-9.7c3-2,4.8-5.3,4.9-8.9
				l-1.3-12.4c0.1-2.6,1.5-5,3.7-6.3l13.8-6.2c3-1.8,5-4.9,5.3-8.4l-0.2-14.2c0.2-2,1.3-3.9,2.9-5.2l16.8-10.8
				c3-2.4,5.3-6.3,4.2-9.9C127.3,298.3,125.7,292.1,125.5,291.5z M8.6,416.3c-0.4,0.6-1.3,0.7-1.8,0.2c-0.4-0.4-0.5-1-0.2-1.5
				l93-145.3l5.9,3.7L8.6,416.3z"/>
		</g>
	</g>
	<g>
		<path d="M262.6,258.2c-28.8,0-55.5-9.2-77.3-24.9c-4.7-3.3-6.8-8.9-6-14.3c0.3-1.6,0.8-3.2,1.6-4.7c0.1-0.1,0.1-0.3,0.2-0.4
			c1.7-3.2,4.4-5.4,7.5-6.6c4.5-1.8,9.8-1.3,14.1,1.8c17.3,12.4,38.1,19.2,59.8,19.2c9.8,0,19.5-1.4,28.7-4
			c-13.7-28.7-42.9-48.5-76.8-48.5c-15.8,0-30.5,4.3-43.2,11.8c-5.2-7.6-9.3-15.7-12.5-24.2c-1.1-3-4-4.9-7-4.9
			c-1,0-2.1,0.2-3.1,0.7c-3.6,1.6-5.3,5.7-4,9.4c3.6,9.9,8.5,19.2,14.3,27.8c-18.7,16-30.3,39.9-29.7,66.6
			c0.8,33.5,21.3,62.4,50.3,75.5v133.5l20.8,32.7c5.4,8.5,17.4,9.8,24.5,2.7l22.8-19.4c4.1-3.8,4.8-10.1,1.5-14.7l-5.4-4.7
			c-1.6-2.2-1.8-5-0.8-7.5l9.6-17.5c1.4-3.3,1.2-7-0.6-10.1l-7.7-9.8c-1.3-2.3-1.4-5-0.2-7.3l8.3-12.6c1.6-3.1,1.6-6.8,0.1-9.9
			l-7.8-11.9c-0.9-1.8-1-4-0.3-5.9l8.4-18.1c1.3-3.6,1.2-8.1-1.7-10.6c-1.9-1.7-5.8-3.7-8.1-6.4c32.8-11.8,56.2-43.2,56.2-80
			c0-2.6-0.1-5.1-0.3-7.6C287.6,256.5,275.3,258.2,262.6,258.2z M214.9,507.8c0,1.1-0.9,2-2,2c-1.1,0-2-0.9-2-2V336.1h7L214.9,507.8
			z"/>
	</g>
	<g>
		<path d="M262.6,0c-66.8,0-121.3,52.2-125.2,118c1.5-0.1,3.1-0.1,4.6-0.1c3.5,0,7,0.2,10.4,0.6c1.6-26.9,12.9-51.9,32.1-71.1
			C205.4,26.5,233.1,15,262.6,15s57.2,11.5,78,32.3c20.9,20.8,32.3,48.6,32.3,78s-11.5,57.2-32.3,78c-11.9,11.9-26,20.7-41.4,26.1
			c-11.6,4.1-24,6.2-36.7,6.2c-23.1,0-45-7-63.5-20c-1.3-0.9-2.8-1.4-4.3-1.4c-2.2,0-4.3,0.9-5.8,2.7c-2.7,3.3-2.1,8.3,1.4,10.8
			c20.4,14.4,45.3,22.8,72.2,22.8c14.3,0,28.1-2.4,40.9-6.8c49.1-17,84.4-63.6,84.4-118.5C388,56.1,331.9,0,262.6,0z"/>
	</g>
</g>
</svg>
