<?xml version="1.0" encoding="utf-8"?>
<!-- Generator: Adobe Illustrator 21.1.0, SVG Export Plug-In . SVG Version: 6.00 Build 0)  -->
<svg version="1.1" id="Layer_3" xmlns="http://www.w3.org/2000/svg" xmlns:xlink="http://www.w3.org/1999/xlink" x="0px" y="0px"
	 viewBox="0 0 442.3 512" style="enable-background:new 0 0 442.3 512;" xml:space="preserve">
<g id="_x35_2">
	<path d="M271,125.5c5.9-15.1,14.8-28.9,26.6-40.7c12-12,25.9-20.8,40.7-26.5l-2.2-2.2L293.2,13c-17.1-17.1-44.7-17.3-62.1-0.8
		c-3.2-1.2-6.6-2.6-10.3-4.3c-10.6-4.7-27.1-4.9-38.4,6c-12.4,12-18.4,29.2-17.5,49.7c0.5,10.4,2.6,19,4,23.8l1.1,4.7l-10.7,30.1
		l-129,93.1c-2.4-0.9-5-1.3-7.7-1.3c-12.5,0-22.6,10.1-22.6,22.6c0,12.5,10.1,22.6,22.6,22.6c0.5,0,1,0,1.5-0.1l171.8,102.3
		c1.6,5.8,5,10.9,9.7,14.5v30.1l-0.1-0.1v4.7h-2.3V410c0-1.8-1.5-3.3-3.4-3.3c-1.8,0-3.3,1.5-3.3,3.3v13.7c0,1.9,1.5,3.3,3.3,3.3
		c1.9,0,3.4-1.5,3.4-3.3v-0.5h2.3v35.6l-28.8,5.3c-23.6,4-39.4,11.4-39.4,19.9c0,0,0,1.3,0,3.2c0,0,0,1.4,0,3.7V503c0,5,4.1,9,9,9
		h139.6c5,0,9-4,9-9v-12.3c0-2.2,0-3.7,0-3.7c0-1.9,0-3.2,0-3.2c0.1-5-5.4-9.6-14.8-13.4c0.4-0.5,0.7-1.1,0.9-1.8
		c0.6-2.1-0.1-4.2-1.5-4.6l-10.8-3.1c-1.5-0.4-3.1,0.9-3.7,3.1c-0.2,0.6-0.2,1.2-0.2,1.7c-8-1.8-17.3-3.2-27.4-4h0.8v-85.4
		c6.9-4.9,11.3-13,11.3-22.1c0-15-12.2-27.2-27.2-27.2c-3.4,0-6.6,0.6-9.5,1.7L45,228.8l129.7-93.6l54.9-11.4
		c7.7-1.6,9.7-7.7,4.3-13.4l-14.6-15.9c0.1-0.1,0.2-0.1,0.3-0.2c1.4-1,1.8-2.8,0.9-4.3l0.5-0.4l-0.1-0.2c1,1.5,3,1.8,4.5,0.8
		c1.4-1,1.8-2.9,0.9-4.3l2.6-2.4L271,125.5z M243.6,35.5l4-3.8c8.9-8.4,23.1-8.2,31.7,0.4l23.4,23.5c-7.2,4.4-13.9,9.6-19.9,15.7
		c-6.1,6-11.3,12.7-15.7,19.9l-26.4-26.4l0.3-0.2C234.7,55.5,235.7,43.3,243.6,35.5z M222.2,345.2c5.1,0,9.2,4.1,9.2,9.2
		c0,5.1-4.1,9.2-9.2,9.2c-5.1,0-9.2-4.1-9.2-9.2C213,349.3,217.1,345.2,222.2,345.2z M22.7,248.1c-6.4,0-11.6-5.2-11.6-11.6
		c0-6.4,5.2-11.6,11.6-11.6c6.4,0,11.6,5.2,11.6,11.6C34.2,242.9,29,248.1,22.7,248.1z M200.4,338.1c-1.5,2-2.7,4.3-3.6,6.7
		L39.7,251.3c1.6-1.9,2.9-4,3.9-6.3L200.4,338.1z M202.8,109.3c-0.6,0.7-1.2,1.3-1.9,1.8c-1.9,1.4-4.2,2.2-6.7,2.2
		c-4.1,0-7.8-2.2-9.7-5.5c-1-1.7-1.7-3.7-1.7-5.9c0-2.1,0.6-4.1,1.7-5.9c0.3-0.5,0.6-1,1-1.4c0.4-0.4,0.8-0.9,1.2-1.2
		c2-1.8,4.6-2.9,7.5-2.9c6.3,0,11.4,5.1,11.4,11.4C205.6,104.7,204.5,107.3,202.8,109.3z M225.8,17.3c-15.5,15.5-17.2,39.6-5,57
		l-0.1-0.1l-1.6,1.1l0.1,0.2c-1-1.5-3-1.8-4.5-0.8c-1.4,1-1.8,2.9-0.9,4.3l-0.5,0.4l0.1,0.2c-1-1.5-3-1.8-4.5-0.8
		c-1,0.7-1.5,1.8-1.4,2.9l-14.8-16.1c-5.3-5.8-11.9-4.5-14.5,3l-5.1,14.2c-3.2-13.5-8-44.8,13-65c9-8.7,23.1-9.1,32.4-5
		c2.3,1,5.2,2.3,8.3,3.5L225.8,17.3z"/>
	<path d="M438.1,94.1c-18.3-18.6-42.4-27.9-66.5-27.9c-23.7,0-47.3,8.9-65.5,26.9c-36.8,36.2-37.3,95.2-1.1,132
		c1.5,1.6,4.6,4.4,4.8,4.4c0,0,0,0,0,0L442.5,98.9C442.6,98.8,439.7,95.6,438.1,94.1z M313.8,180.6c-2.5-6.8-3.7-14-3.7-21.5
		c0.1-16.4,6.7-31.7,18.4-43.3c11.5-11.4,26.8-17.7,43-17.7c7.6,0,15,1.4,21.9,4L313.8,180.6z"/>
</g>
</svg>
