<?xml version="1.0" encoding="utf-8"?>
<!-- Generator: Adobe Illustrator 21.1.0, SVG Export Plug-In . SVG Version: 6.00 Build 0)  -->
<svg version="1.1" id="Layer_2" xmlns="http://www.w3.org/2000/svg" xmlns:xlink="http://www.w3.org/1999/xlink" x="0px" y="0px"
	 viewBox="0 0 509.1 512" style="enable-background:new 0 0 509.1 512;" xml:space="preserve">
<g id="_x35_2">
	<path d="M436,387L436,260H453v-52H56v52h17.1v14L73,387H37v52h435v-52H436z M125.1,260H176v126.8h-50.9V260z M228,260h52v126.8h-52
		V260z M332,260h52v126.8h-52V260z"/>
	<polygon points="0,460 0,512 509.1,512 509,460 	"/>
	<path d="M254.6,56.7L384.5,113v20H124.6v-20L254.6,56.7 M254.6,0L0,110.3l0,37.3c0,5.2,4.2,9.4,9.4,9.4h27.6v18h435v-18h27.6
		c5.2,0,9.4-4.2,9.4-9.4l0-37.3L254.6,0L254.6,0z"/>
	<circle cx="254.5" cy="98.7" r="28.1"/>
</g>
</svg>
