<?xml version="1.0" encoding="utf-8"?>
<!-- Generator: Adobe Illustrator 22.0.1, SVG Export Plug-In . SVG Version: 6.00 Build 0)  -->
<svg version="1.1" id="Layer_1" xmlns="http://www.w3.org/2000/svg" xmlns:xlink="http://www.w3.org/1999/xlink" x="0px" y="0px"
	 viewBox="0 0 640 512" style="enable-background:new 0 0 640 512;" xml:space="preserve">
<path d="M554.4,52v320.5H87.2V52H554.4 M571.4,0h-501C51,0,35.3,15.7,35.3,35.1v354.4c0,19.4,15.7,35.1,35.1,35.1h501
	c19.4,0,35.1-15.7,35.1-35.1V35.1C606.3,15.7,590.6,0,571.4,0L571.4,0z M640,455h-65.4H65.4H0v34.5c0,11,6.4,17.5,19.3,19.5
	c12.8,2,28.2,3,46.1,3h509.3c17.9,0,33.3-1,46.1-3c12.9-2,19.3-8.5,19.3-19.5L640,455L640,455z M286.9,489.5c-4,0-8.8-4-8.8-8.2
	c0-4.1,3.5-7.6,7.6-7.6h68.7c4.4,0,7.6,3.4,7.6,7.6c0,4.1-4.9,8.2-9.3,8.2H286.9L286.9,489.5z M101.3,490.7c-0.8,0-1.7-0.2-2.5-0.6
	c-1.3-0.6-2.3-1.7-3-3.2s-0.7-3.1,0-4.8c0.6-1.7,1.6-2.8,3-3.5c1.1-0.6,2.2-0.9,3.3-0.9c0.3,0,0.6,0,0.8,0.1c1.3,0.2,2.5,0.8,3.5,2
	c1,1.1,1.5,2.4,1.5,3.7c0.3,2.4-0.6,4.3-2.8,5.8C103.8,490.3,102.5,490.7,101.3,490.7L101.3,490.7z M81,490.7
	c-0.8,0-1.7-0.2-2.5-0.6c-1.3-0.6-2.3-1.7-3-3.2s-0.7-3.1,0-4.8c0.6-1.7,1.7-2.8,3-3.5c1.1-0.6,2.2-0.9,3.3-0.9c0.3,0,0.6,0,0.8,0.1
	c1.3,0.2,2.5,0.8,3.5,2c1,1.1,1.5,2.4,1.5,3.7c0.3,2.4-0.6,4.3-2.8,5.8C83.5,490.3,82.2,490.7,81,490.7L81,490.7z"/>
</svg>
