<?xml version="1.0" encoding="utf-8"?>
<!-- Generator: Adobe Illustrator 21.1.0, SVG Export Plug-In . SVG Version: 6.00 Build 0)  -->
<svg version="1.1" id="Layer_1" xmlns="http://www.w3.org/2000/svg" xmlns:xlink="http://www.w3.org/1999/xlink" x="0px" y="0px"
	 viewBox="0 0 512 512" style="enable-background:new 0 0 512 512;" xml:space="preserve">
<g>
	<path d="M118.4,290.3v19.2c0,31.2,15.4,62,42.3,84.4c26.5,22.1,61.1,34.3,97.2,34.3s70.7-12.2,97.2-34.3
		c26.9-22.4,42.3-53.2,42.3-84.4v-19.2H118.4z M326.9,366.5c-18.9,15.1-43.4,23.4-69,23.4s-50-8.3-69-23.4
		c-13.4-10.6-22.7-23.6-27.2-37.6H354C349.6,342.8,340.2,355.8,326.9,366.5z"/>
	<polygon points="383.3,232.9 342.4,192 383.3,151.1 357.1,124.9 290,192 357.1,259.1 	"/>
	<polygon points="154.5,259.1 221.6,192 154.5,124.9 128.3,151.1 169.2,192 128.3,232.9 	"/>
	<path d="M256,0C114.6,0,0,114.6,0,256s114.6,256,256,256s256-114.6,256-256S397.4,0,256,0z M256,460.1c-112.6,0-204-91.4-204-204
		s91.4-204,204-204s204,91.4,204,204S368.6,460.1,256,460.1z"/>
</g>
</svg>
