<?xml version="1.0" encoding="utf-8"?>
<!-- Generator: Adobe Illustrator 21.1.0, SVG Export Plug-In . SVG Version: 6.00 Build 0)  -->
<svg version="1.1" id="fill" xmlns="http://www.w3.org/2000/svg" xmlns:xlink="http://www.w3.org/1999/xlink" x="0px" y="0px"
	 viewBox="0 0 698 512" style="enable-background:new 0 0 698 512;" xml:space="preserve">
<style type="text/css">
	.st0{fill:#010101;}
</style>
<g id="_x35_2">
	<path d="M5.4,98.9c-6.2,4.2-6,13.5,0.4,17.4c19.8,12,57.8,32.8,83.9,32.8h69.9l0.7-86.5l-70.5-0.1C63.6,62.2,25.2,85.6,5.4,98.9z"
		/>
	<polygon points="670.8,21.4 660.4,21.5 625.2,56.6 688.8,56.6 	"/>
	<path d="M691.8,62.6c-0.1,0-0.2,0-0.2,0v0H246.9l2.8-15.4l-6.9,0.1l-37.2,15.4h-38.4v86.6h524.4v0c0.1,0,0.2,0,0.2,0
		c3.4,0,6.1-19.4,6.1-43.3C697.9,82,695.1,62.6,691.8,62.6z M691.5,141.7c-1.8,0-3.3-16-3.3-35.8c0-19.8,1.5-35.8,3.3-35.8
		c1.8,0,3.3,16,3.3,35.8C694.8,125.7,693.3,141.7,691.5,141.7z"/>
	<path d="M178.6,373.7c-38.2,0-69.1,30.9-69.1,69.1s31,69.2,69.1,69.2s69.1-31,69.1-69.2S216.8,373.7,178.6,373.7z M178.6,466.9
		c-13.3,0-24.1-10.8-24.1-24.1c0-13.3,10.8-24.1,24.1-24.1s24.1,10.8,24.1,24.1C202.7,456.2,191.9,466.9,178.6,466.9z"/>
	<path d="M560.2,373.7c-38.2,0-69.1,30.9-69.1,69.1s31,69.2,69.1,69.2s69.1-31,69.1-69.2S598.4,373.7,560.2,373.7z M560.2,466.9
		c-13.3,0-24.1-10.8-24.1-24.1c0-13.3,10.8-24.1,24.1-24.1s24.1,10.8,24.1,24.1C584.3,456.2,573.5,466.9,560.2,466.9z"/>
	<g>
		<path class="st0" d="M645.7,212.8l0.2,122.4c-23.9-19-53.9-30.1-85.7-30.1c-46.5,0-89.4,23.9-114.5,61.3H293.2
			c-25.1-37.4-68-61.4-114.5-61.4c-37.4,0-72.1,15-97.3,40.1l-28.1-42.1c-0.1-0.7-0.1-1.4-0.2-2.2c4.6,1,9.7,1.7,15.3,1.7
			c0.5,0,1.1,0,1.7,0c1.1,0,5.8-0.1,25.3-0.1c24.9,0,58.6,0.1,58.9,0.1l6.5,0l0,0h17.6l24.9,0.1l0-0.1h9.7h23.1h51.6l0.4-51.6
			l0.3-38.2H645.7 M695.6,160.8H236.8l-0.7,89.8H213l0.4-89.6H72.5l-14.6,24.8v-23.3h-2.2v27l-5.4,9.2v-20.4h-6.5v31.4l-37,62.7
			c-7.9,12.9-7.5,43.2,0.8,55.8l58,86.9l31.8,0.5c11.3-34.1,43.5-58.6,81.3-58.6c38.9,0,71.7,25.9,82.2,61.4l19,0.4v-0.4H478
			c10.5-35.4,43.3-61.3,82.2-61.3s71.7,25.9,82.2,61.4H698L697.6,180h0.1L695.6,160.8L695.6,160.8z M68.4,250.5
			c-8.9,0-8.4-4.7-8.4-4.7c0-10.1,31.6-51.9,31.6-51.9h66.3l-3.5,56.6c0,0-33.7-0.1-59-0.1c-12.7,0-23.2,0-26.4,0.1
			C68.8,250.5,68.6,250.5,68.4,250.5L68.4,250.5z"/>
	</g>
	<polygon points="688.8,45.2 691.5,0 680.5,0.8 665.8,16 673.2,16 	"/>
</g>
</svg>
