<?xml version="1.0" encoding="utf-8"?>
<!-- Generator: Adobe Illustrator 21.1.0, SVG Export Plug-In . SVG Version: 6.00 Build 0)  -->
<svg version="1.1" id="Layer_1" xmlns="http://www.w3.org/2000/svg" xmlns:xlink="http://www.w3.org/1999/xlink" x="0px" y="0px"
	 viewBox="0 0 467.2 512" style="enable-background:new 0 0 467.2 512;" xml:space="preserve">
<g id="_x35_2">
	<path d="M142.3,167.3H64.4v-33h77.9V167.3z M288.4,167.3c-9.4,0-17-7.4-17-16.5c0-9.1,7.6-16.5,17-16.5s17,7.4,17,16.5
		C305.4,159.9,297.8,167.3,288.4,167.3z M337.1,167.3c-9.4,0-17-7.4-17-16.5c0-9.1,7.6-16.5,17-16.5s17,7.4,17,16.5
		C354.1,159.9,346.5,167.3,337.1,167.3z M385.8,167.3c-9.4,0-17-7.4-17-16.5c-0.1-9.1,7.6-16.5,17-16.5c9.4,0,17,7.4,17,16.5
		C402.8,159.9,395.2,167.3,385.8,167.3z"/>
	<path d="M440.4,0H26.9C12.1,0,0.1,11.6,0.1,25.9c0,10.1,0,25.9,0,25.9h467.1c0,0,0-18.5,0-25.9C467.1,11.6,455.1,0,440.4,0L440.4,0
		z M65.8,42.3c-12.1,0-21.9-3.6-21.9-8.1c0-3.6,6.7-6.8,15.8-7.8c0.2-2.2,0.1-12.4,0.1-12.4h12c0,0-0.1,9.6-0.3,12.3
		c9.4,0.9,16.2,4.1,16.2,7.8C87.7,38.7,77.9,42.3,65.8,42.3L65.8,42.3z"/>
	<path d="M415.1,122.6v337.4H52V122.6H415.1 M467.1,70.6H0v47.1v347.3c0,26,21.8,47.1,48.7,47.1h369.7c26.9,0,48.7-21.1,48.7-47.1
		L467.1,70.6L467.1,70.6z"/>
	<path d="M274.9,259c5,0,9-3.9,9-8.8c0-4.9-4-8.8-9-8.8s-9,3.9-9,8.8C265.9,255.1,269.9,259,274.9,259z M274.8,243.1
		c4.1,0,7.4,3.2,7.4,7.2s-3.3,7.2-7.4,7.2s-7.4-3.2-7.4-7.2C267.5,246.3,270.8,243.1,274.8,243.1z M224.1,247.2
		c0.3-0.9,1.1-1.6,1.1-1.6l-1.1-0.5c0,0-1.1,1.3-1.1,2.2c0,0.9,0.5,1.9,0.5,1.9S223.8,248.1,224.1,247.2z M245.1,278.3
		c1.9,5,1.6,10.7,1.6,10.7h0.6c0,0,1.3-4.5,1.6-9.6c0.4-6.5-6.7-10.9-7.6-15.8c-0.8-4.1-0.5-6.7-0.5-6.7h-0.6c0,0-2.5,4.2-1.6,8.4
		C240.3,273.6,243.4,273.6,245.1,278.3z M255.3,268.3c3.7,9.2,3.2,19.7,3.2,19.7h1.1c0,0,2.5-8.2,3.2-17.6c0.9-12-12.9-20.1-14.8-29
		c-1.6-7.5-1.1-12.4-1.1-12.4h-1.1c0,0-4.9,7.7-3.2,15.5C245.9,259.7,251.9,259.8,255.3,268.3z M271.1,249.5
		c0.5-1.2,1.5-2.2,1.5-2.2l-1.5-0.7c0,0-1.5,1.9-1.5,3.1c0,1.3,0.7,2.8,0.7,2.8S270.7,250.8,271.1,249.5z M147.5,303.9
		c-0.9,4.7-1.4,9.6-1.4,14.6c0,44.8,37.4,81.1,83.5,81.1s83.5-36.3,83.5-81.1c0-7.9-1.2-15.4-3.3-22.6
		c-10.4,6.7-17.2,15.5-40.7,15.5C228.3,311.4,154.6,266.1,147.5,303.9z M231.5,176.1c-75.3,0-136.9,60.9-136.9,136.4
		c0,75.8,61.6,137.5,136.9,137.5c75.6,0,136.9-60.6,136.9-136.9S307.1,176.1,231.5,176.1z M231.5,417.9c-59,0-105-47.8-105-104.8
		c0-57.6,47.7-104.9,105-104.9c54.6,0,104.8,44.4,104.8,104.9C336.2,372.8,288.7,417.9,231.5,417.9z M440.4,0H26.8
		C12,0,0,11.6,0,25.9C0,36,0,51.8,0,51.8h467.2c0,0,0-18.5,0-25.9C467.2,11.6,455.2,0,440.4,0z M65.7,42.3
		c-12.1,0-21.9-3.6-21.9-8.1c0-3.6,6.7-6.7,15.8-7.8c0.2-2.2,0.1-12.4,0.1-12.4h11.9c0,0-0.1,9.6-0.2,12.3
		c9.4,0.9,16.2,4.1,16.2,7.8C87.6,38.7,77.8,42.3,65.7,42.3z M226.8,253.9c3.5,0,6.3-2.8,6.3-6.2c0-3.4-2.8-6.2-6.3-6.2
		s-6.3,2.8-6.3,6.2C220.5,251.1,223.3,253.9,226.8,253.9z M226.7,242.6c2.9,0,5.2,2.3,5.2,5.1s-2.3,5.1-5.2,5.1s-5.2-2.3-5.2-5.1
		S223.9,242.6,226.7,242.6z M215.1,283.8c0.6-1.8,2.1-3.1,2.1-3.1l-2.1-1c0,0-2.1,2.7-2.1,4.4c0,1.9,1.1,3.9,1.1,3.9
		S214.5,285.6,215.1,283.8z M220.4,297.2c7,0,12.7-5.6,12.7-12.4c0-6.8-5.7-12.4-12.7-12.4s-12.7,5.6-12.7,12.4
		C207.7,291.6,213.4,297.2,220.4,297.2z M220.4,274.6c5.7,0,10.4,4.6,10.4,10.2s-4.7,10.2-10.4,10.2s-10.4-4.6-10.4-10.2
		S214.6,274.6,220.4,274.6z"/>
</g>
</svg>
