<?xml version="1.0" encoding="utf-8"?>
<!-- Generator: Adobe Illustrator 21.1.0, SVG Export Plug-In . SVG Version: 6.00 Build 0)  -->
<svg version="1.1" id="Layer_1" xmlns="http://www.w3.org/2000/svg" xmlns:xlink="http://www.w3.org/1999/xlink" x="0px" y="0px"
	 viewBox="0 0 524.3 512" style="enable-background:new 0 0 524.3 512;" xml:space="preserve">
<g>
	<path d="M510,13.8c-13.5,9.7-47.3,25.1-108.9,30c-12.8,1-26.3,0.3-40.3-1.2c-15.2-1.7-31-4.5-47.3-7.3c-17.2-3-35-6.1-53.2-8.2
		c-52.8-5.9-109-2.8-164.2,38c-27.9,20.6-47,47.6-56.7,80.2c-7.7,25.9-9.6,55.4-5.6,87.6c5,40,20,78,28,96.2
		C35.1,365.5,20.2,402.3,12,430.2c-7.6,25.8-10.7,47.4-11.9,61c-0.5,5,1.2,10.1,4.6,13.8c3.4,3.8,8.3,5.9,13.4,5.9h12.3
		c5.8,0,10.6-4.5,11-10.3c0.7-10.6,3-32.5,11.1-59.7c6.7-22.5,18.5-51.7,38.7-81.2c12.6,8.6,29.7,18.2,50.4,24.8
		c11.1,3.6,22.2,6,33.4,7.2c15.9,1.8,31.9,1.2,47.7-1.7c33.5-6.2,66.6-23.1,98.1-50.1C446.4,232.8,483.3,118.3,503,56.8
		c5.3-16.3,9.4-29.2,13.6-36.8c0.9-1.6,7.5-17.1,7.7-17.5C523.9,2.8,512.7,11.8,510,13.8z M406.1,156.2
		c-13.6,24.6-29.4,48.4-47.1,70.6c-20.8,26.1-45,50.9-71.8,73.8c-24.5,21-49.4,33.9-73.8,38.5c-10.8,2-21.7,2.4-32.5,1.2
		c-7.7-0.9-15.5-2.6-23.3-5.1c-12.9-4.1-23.9-9.9-32.6-15.4c-9.5-6.1-23.4-28.7-24.9-34.5c-6-16.5-12.3-37.6-15-59.1
		c-3.2-25-1.9-47.3,3.8-66.2c6.5-21.9,18.9-39.3,37.8-53.3c19.2-14.2,39.3-23.1,61.7-27.2c19-3.5,39.9-3.8,65.9-0.9
		c16.6,1.9,33.6,4.9,50.1,7.7c16.6,2.9,33.7,5.9,50.5,7.8c18.8,2.1,35.2,2.6,50.2,1.4c10.9-0.9,21.1-2,30.6-3.4
		C428.2,111.8,418.6,133.4,406.1,156.2z"/>
	<path d="M265.4,127.2c-14.6,0-28.2,5.7-38.5,15.9l-0.5,0.5l-0.5-0.5c-10.3-10.2-24-15.9-38.5-15.9s-28.2,5.7-38.5,15.9
		c-10.3,10.3-15.9,24-15.9,38.5s5.7,28.2,15.9,38.5l77.5,77.5l76.4-76.4l9.1-11.4l0.3-0.6c12.6-21.4,9.1-48.5-8.4-66.1
		C293.6,132.9,279.9,127.2,265.4,127.2z"/>
</g>
</svg>
