<?xml version="1.0" encoding="utf-8"?>
<!-- Generator: Adobe Illustrator 22.0.1, SVG Export Plug-In . SVG Version: 6.00 Build 0)  -->
<svg version="1.1" id="Layer_2" xmlns="http://www.w3.org/2000/svg" xmlns:xlink="http://www.w3.org/1999/xlink" x="0px" y="0px"
	 viewBox="0 0 512 512" style="enable-background:new 0 0 512 512;" xml:space="preserve">
<style type="text/css">
	.st0{fill:#010101;}
</style>
<path class="st0" d="M497.7,169.6c-2.4-8.2-10-13.5-18-13.5c-2.1,0-4.3,0.4-6.4,1.1l0,0l0,0c0.3-0.1,0.7-0.2,1-0.3
	c-24-52.6-66.6-95-119.4-118.8c-0.1,0.2-0.1,0.4-0.2,0.5l0,0l0,0c3.7-10.2-2-21.3-12.3-24.4C322.1,8.2,288.5,0,256,0
	c-32.5,0-66.1,8.2-86.4,14.3c-10.4,3.1-16,14.3-12.3,24.4l0,0.1l0,0C105,62.8,62.9,105,39.1,157.4l0,0l-0.4-0.2
	c-2.1-0.8-4.3-1.1-6.4-1.1c-8.1,0-15.6,5.2-18,13.5C8.2,189.9,0,223.5,0,256c0,32.5,8.2,66.1,14.3,86.4c2.4,8.2,10,13.5,18,13.5
	c2.1,0,4.3-0.4,6.4-1.1l0.3-0.1l0,0c23.8,52.5,65.9,94.8,118.3,118.8c0,0,0,0,0,0c-3.6,10.2,2,21.3,12.4,24.3
	c20.2,6,53.9,14.2,86.3,14.2c32.5,0,66.1-8.2,86.4-14.3c10.4-3.1,16-14.3,12.3-24.4l0,0l0,0c0.1,0.3,0.2,0.5,0.3,0.8
	c52.8-23.8,95.4-66.3,119.4-119c-0.3-0.1-0.6-0.2-1-0.3c2.1,0.7,4.2,1.1,6.3,1.1c8.1,0,15.6-5.2,18-13.5c6-20.2,14.2-53.9,14.2-86.3
	C512,223.6,503.8,189.9,497.7,169.6z M434.8,226.5l21.4-7.7c2.2,11.9,3.8,24.8,3.8,37.2c0,12.4-1.6,25.3-3.8,37.2l-21.4-7.7V226.5z
	 M425.1,174.7l-35.7,12.9c-14.4-27.7-37.2-50.4-65.1-64.5l12.9-35.7l0,0C375.5,105.6,406.6,136.5,425.1,174.7z M256.8,355.3
	c-54.8,0-99.2-44.4-99.2-99.2c0-54.8,44.4-99.2,99.2-99.2c54.8,0,99.2,44.4,99.2,99.2C356,310.9,311.6,355.3,256.8,355.3z M256,52
	c12.4,0,25.3,1.6,37.2,3.8l-7.7,21.4h-59l-7.7-21.4C230.7,53.7,243.6,52,256,52z M88.3,175.2c18.3-37.9,48.9-68.8,86.8-87.2l0,0
	l12.9,35.7c-27.4,14.3-49.8,36.8-64,64.3L88.3,175.2L88.3,175.2z M77.2,285.5l-21.4,7.7C53.7,281.3,52,268.4,52,256
	c0-12.4,1.6-25.3,3.8-37.2l21.4,7.7V285.5z M88.2,336.9l35.7-12.9c14.1,27.6,36.6,50.2,64,64.5L175,424.3l0,0
	C137.1,405.8,106.4,374.9,88.2,336.9z M256,460c-12.4,0-25.3-1.6-37.2-3.8l7.7-21.4h59l7.7,21.4C281.3,458.3,268.4,460,256,460z
	 M337.3,424.9l-12.9-35.7c27.9-14.2,50.7-36.9,65.1-64.7l35.7,12.9l0,0C406.7,375.6,375.6,406.6,337.3,424.9z"/>
</svg>
