<?xml version="1.0" encoding="utf-8"?>
<!-- Generator: Adobe Illustrator 21.1.0, SVG Export Plug-In . SVG Version: 6.00 Build 0)  -->
<svg version="1.1" id="Layer_2" xmlns="http://www.w3.org/2000/svg" xmlns:xlink="http://www.w3.org/1999/xlink" x="0px" y="0px"
	 viewBox="0 0 640 512" style="enable-background:new 0 0 640 512;" xml:space="preserve">
<g id="_x35_2_1_">
	<path id="_x35_2" d="M291.8,485.2c0,14.8,12,26.8,26.8,26.8c14.8,0,26.8-12,26.8-26.8H291.8z M234.7,445.1
		c0,15.4,12.6,26.8,26.8,26.8H376c14.1,0,26.8-11.4,26.8-26.8H234.7z M397.1,415.3H234.7v21.9h167.9v-17.5L397.1,415.3z
		 M387.4,407.7l-66.4-52h-45.6c-3-7.9-6.9-16.3-12.1-24.9c-4.5-7.5-9.9-13.1-17.5-20.9c-8.9-9.2-21.7-22.3-33.4-39.1l-79.1-61.8
		c10.2,85.1,78.6,137.2,85.3,148.4c16.5,27.7,13.7,50.1,13.7,50.3H387.4z"/>
	<path d="M629.9,465.4L450.7,325.3c25.1-29,56.9-75.6,56.9-137.7C507.6,84,423.5,0,319.8,0c-70,0-131.1,38.3-163.4,95L41.9,5.4
		C37.2,1.8,31.6,0,26,0C18.2,0,10.6,3.5,5.4,10.1c-8.8,11.4-6.7,27.7,4.7,36.5l588,460c11.4,8.8,27.7,6.7,36.5-4.7
		C643.3,490.5,641.3,474.2,629.9,465.4z M223.8,91.7c25.6-25.6,59.8-39.7,96-39.7c36.3,0,70.4,14.1,96,39.7
		c25.7,25.6,39.8,59.7,39.8,95.9c0,25-7.1,48.9-21.6,73c-7.6,12.6-16.3,23.5-24.3,32.6L198,127.5
		C204.5,114.4,213.1,102.3,223.8,91.7z"/>
</g>
</svg>
