<?xml version="1.0" encoding="utf-8"?>
<!-- Generator: Adobe Illustrator 21.1.0, SVG Export Plug-In . SVG Version: 6.00 Build 0)  -->
<svg version="1.1" id="Layer_2" xmlns="http://www.w3.org/2000/svg" xmlns:xlink="http://www.w3.org/1999/xlink" x="0px" y="0px"
	 viewBox="0 0 376 512" style="enable-background:new 0 0 376 512;" xml:space="preserve">
<g id="_x35_2_1_">
	<path d="M200.1,304v11.8h-21.6v-11.7c-31-2.4-58.6-23.2-58.6-63h37.7c0,17.6,7.5,27.9,20.8,31.7V208c-38-16.2-55-36.2-55-61.7
		c0-29.5,24.8-53.1,55-53.1v-9.1h21.6v9.2c26.4,1.7,58.1,16.5,58.1,56.3h-37.7c-1.7-16-8.5-24.7-20.3-25.9v50.9l20.8,9.2
		c33.8,16.2,46.5,35.7,46.5,61.5C267.4,279.5,238.7,304,200.1,304z M200.1,217.2v56.9c15.3,0,30.1-9.5,30.1-25.2
		C230.1,235.5,220.1,225,200.1,217.2z M161.3,141.8c0,8.5,5.7,16,17.3,23v-41C167,125.8,161.3,131.9,161.3,141.8z"/>
	<path id="_x35_2" d="M187.8,51.9c36.3,0,70.4,14.1,96,39.7c25.7,25.6,39.8,59.7,39.8,95.9c0,25-7.1,48.9-21.6,73
		c-13,21.5-28.9,38-39.5,48.9c-7.8,8-13.4,13.8-17.9,21.5c-5.1,8.6-8.9,16.9-11.9,24.8h-89.4c-3-7.9-6.9-16.3-12.1-24.9
		c-4.5-7.5-9.9-13.1-17.5-20.9C103.1,299,87.1,282.6,74,261c-14.8-24.3-22-48.3-22-73.4c0-36.2,14.1-70.3,39.8-95.9
		C117.4,66.1,151.5,51.9,187.8,51.9 M187.8,0C84.1,0,0,84,0,187.6c0,97.7,79.3,157.5,86.6,169.7c16.5,27.7,13.7,50.1,13.7,50.3
		h175.6c0-0.2-2.8-22.6,13.6-50.3c7.5-12.7,86.2-72,86.2-169.7C375.6,84,291.6,0,187.8,0L187.8,0z M270.7,415.3H102.8v21.9h167.9
		V415.3L270.7,415.3z M270.9,445.1H102.8c0,15.4,12.6,26.8,26.8,26.8h114.5C258.2,471.8,270.9,460.5,270.9,445.1L270.9,445.1z
		 M213.5,485.2h-53.6c0,14.8,12,26.8,26.8,26.8S213.5,500,213.5,485.2L213.5,485.2z"/>
</g>
</svg>
