<?xml version="1.0" encoding="utf-8"?>
<!-- Generator: Adobe Illustrator 21.1.0, SVG Export Plug-In . SVG Version: 6.00 Build 0)  -->
<svg version="1.1" id="Layer_5" xmlns="http://www.w3.org/2000/svg" xmlns:xlink="http://www.w3.org/1999/xlink" x="0px" y="0px"
	 viewBox="0 0 335.1 512" style="enable-background:new 0 0 335.1 512;" xml:space="preserve">
<g>
	<path d="M335.1,167.4C335.1,75,260.2,0,167.7,0S0.3,75,0.3,167.4c0,61.8,33.5,115.8,83.4,144.8v26.4v45.1h168v-45.1v-26.4
		C301.5,283.3,335.1,229.3,335.1,167.4z M199.8,278.4v24.9l0,0v35.4h-64.2v-35.4l0,0v-24.9c-48.2-13.9-83.4-58.3-83.4-111
		c0-63.8,51.7-115.5,115.5-115.5s115.5,51.7,115.5,115.5C283.2,220.1,248,264.5,199.8,278.4z"/>
	<path d="M83.7,444.4c0,15.4,12.7,26.8,26.8,26.8H225c14.1,0,26.8-11.4,26.8-26.8H83.7z"/>
	<rect x="83.7" y="398.7" width="167.9" height="31.9"/>
	<path d="M140.8,484.6c0,14.8,12,26.8,26.8,26.8s26.8-12,26.8-26.8H140.8z"/>
</g>
</svg>
