<?xml version="1.0" encoding="utf-8"?>
<!-- Generator: Adobe Illustrator 21.1.0, SVG Export Plug-In . SVG Version: 6.00 Build 0)  -->
<svg version="1.1" id="Layer_6" xmlns="http://www.w3.org/2000/svg" xmlns:xlink="http://www.w3.org/1999/xlink" x="0px" y="0px"
	 viewBox="0 0 470.7 512" style="enable-background:new 0 0 470.7 512;" xml:space="preserve">
<g>
	<path d="M367.2,241.2c0-72.7-59-131.8-131.8-131.8s-131.8,59-131.8,131.8c0,48.6,26.4,91.1,65.6,114v20.8v35.5h132.2v-35.5v-20.8
		C340.8,332.4,367.2,289.9,367.2,241.2z M260.7,328.5v19.6l0,0V376h-50.5v-27.9l0,0v-19.6c-37.9-10.9-65.6-45.9-65.6-87.4
		c0-50.2,40.7-90.9,90.9-90.9s90.9,40.7,90.9,90.9C326.4,282.6,298.7,317.6,260.7,328.5z"/>
	<path d="M169.4,459.2c0,12.1,10,21.1,21.1,21.1h90.1c11.1,0,21.1-9,21.1-21.1H169.4z"/>
	<rect x="169.3" y="423.2" width="132.2" height="25.1"/>
	<path d="M214.3,490.8c0,11.6,9.4,21.1,21.1,21.1c11.6,0,21.1-9.4,21.1-21.1H214.3z"/>
	<rect x="407.4" y="198.8" transform="matrix(-1.836970e-16 1 -1 -1.836970e-16 669.4604 -198.7696)" width="53.5" height="73.2"/>
	<rect x="9.8" y="198.8" transform="matrix(-1.836970e-16 1 -1 -1.836970e-16 271.9213 198.7696)" width="53.5" height="73.2"/>
	<rect x="208.6" transform="matrix(-1 -1.224647e-16 1.224647e-16 -1 470.6909 73.1517)" width="53.5" height="73.2"/>
	<rect x="349.1" y="58.2" transform="matrix(0.7071 0.7071 -0.7071 0.7071 177.1272 -238.0346)" width="53.5" height="73.2"/>
	<rect x="68" y="58.2" transform="matrix(-0.7071 0.7071 -0.7071 -0.7071 228.8532 94.7941)" width="53.5" height="73.2"/>
</g>
</svg>
