<?xml version="1.0" encoding="utf-8"?>
<!-- Generator: Adobe Illustrator 21.1.0, SVG Export Plug-In . SVG Version: 6.00 Build 0)  -->
<svg version="1.1" id="Layer_6" xmlns="http://www.w3.org/2000/svg" xmlns:xlink="http://www.w3.org/1999/xlink" x="0px" y="0px"
	 viewBox="0 0 640 512" style="enable-background:new 0 0 640 512;" xml:space="preserve">
<g id="_x35_2">
	<path d="M507.8,187.5C507.8,83.8,423.7-0.3,320-0.3S132.2,83.8,132.2,187.5c0,97.8,79.3,157.7,86.6,169.9
		c16.5,27.7,13.7,50.2,13.7,50.4H408c0-0.2-2.8-22.7,13.6-50.4C429.1,344.7,507.8,285.3,507.8,187.5z M394.7,309.6
		c-7.8,8-13.3,13.8-17.9,21.5c-5.1,8.6-8.9,16.9-11.9,24.8h-89.4c-3-7.9-6.9-16.3-12.1-25c-4.5-7.5-9.9-13.1-17.5-20.9
		c-10.6-10.9-26.6-27.3-39.8-49c-14.8-24.3-22-48.3-22-73.4c0-36.3,14.1-70.4,39.8-96c25.7-25.7,59.8-39.8,96-39.8
		c36.3,0,70.4,14.1,96,39.8c25.7,25.7,39.8,59.8,39.8,96c0,25-7.1,49-21.7,73.1C421.2,282.1,405.2,298.7,394.7,309.6z M234.9,415.5
		v21.9h167.9v-21.9H234.9z M234.9,445.3c0,15.4,12.6,26.8,26.8,26.8h114.5c14.1,0,26.8-11.4,26.8-26.8H234.9z M292,485.5
		c0,14.8,12,26.8,26.8,26.8c14.8,0,26.8-12,26.8-26.8H292z"/>
	<path d="M40.7,30.3L40.7,30.3c2.5-4.3,6.5-7.4,11.2-8.6c4.8-1.3,9.8-0.6,14,1.8l60.7,35c4.3,2.5,7.3,6.5,8.6,11.2
		c1.3,4.8,0.6,9.8-1.8,14c-3.4,5.9-9.7,9.3-16,9.3c-3.1,0-6.3-0.8-9.2-2.5l-60.7-35C38.6,50.5,35.6,39.2,40.7,30.3z M0,191.5
		C0,181.3,8.3,173,18.5,173h67.6c10.2,0,18.5,8.3,18.5,18.5S96.3,210,86.1,210H18.5C8.3,210,0,201.7,0,191.5z M126.7,324.6
		l-60.6,35.1c-2.9,1.6-6,2.5-9.2,2.5c-1.6,0-3.2-0.2-4.8-0.6c-4.8-1.3-8.8-4.3-11.2-8.6c-1.7-2.9-2.5-6.1-2.5-9.2
		c0-6.4,3.3-12.6,9.2-16l60.7-35.1c4.3-2.5,9.3-3.1,14-1.8c4.8,1.3,8.8,4.3,11.2,8.6C138.6,308.1,135.6,319.5,126.7,324.6z
		 M513.3,58.4l60.7-35.1c4.3-2.5,9.3-3.1,14-1.9c4.8,1.3,8.8,4.3,11.2,8.6l0,0c5.1,8.8,2,20.1-6.8,25.2l-60.7,35.1
		c-2.9,1.7-6.1,2.5-9.2,2.5c-6.4,0-12.6-3.3-16-9.2C501.4,74.8,504.4,63.5,513.3,58.4z M599.3,352.7c-2.5,4.3-6.5,7.3-11.2,8.6
		c-1.6,0.4-3.2,0.6-4.8,0.6c-3.2,0-6.4-0.8-9.2-2.5l-60.7-35c-4.3-2.5-7.3-6.5-8.6-11.2c-1.3-4.8-0.6-9.8,1.8-14l0-0.1
		c5.1-8.8,16.4-11.8,25.2-6.7l60.7,35C601.4,332.5,604.4,343.8,599.3,352.7z M621.5,210h-67.6c-10.2,0-18.5-8.3-18.5-18.5
		s8.3-18.5,18.5-18.5h67.6c10.2,0,18.5,8.3,18.5,18.5S631.7,210,621.5,210z"/>
</g>
</svg>
