<?xml version="1.0" encoding="utf-8"?>
<!-- Generator: Adobe Illustrator 22.0.1, SVG Export Plug-In . SVG Version: 6.00 Build 0)  -->
<svg version="1.1" id="Layer_2_1_" xmlns="http://www.w3.org/2000/svg" xmlns:xlink="http://www.w3.org/1999/xlink" x="0px" y="0px"
	 viewBox="0 0 640 512" style="enable-background:new 0 0 640 512;" xml:space="preserve">
<style type="text/css">
	.st0{fill:#030202;}
</style>
<g id="_x35_2">
	<path d="M274,62.2h358c4.4,0,8,3.6,8,8v36c0,4.4-3.6,8-8,8H274c-4.4,0-8-3.6-8-8v-36C266,65.8,269.6,62.2,274,62.2z"/>
	<path d="M274,232.2h358c4.4,0,8,3.6,8,8v36c0,4.4-3.6,8-8,8H274c-4.4,0-8-3.6-8-8v-36C266,235.8,269.6,232.2,274,232.2z"/>
	<path d="M274,400.2h358c4.4,0,8,3.6,8,8v36c0,4.4-3.6,8-8,8H274c-4.4,0-8-3.6-8-8v-36C266,403.8,269.6,400.2,274,400.2z"/>
	<path class="st0" d="M206.5,376.4c-23,23.6-79.6,84.7-96,101.1c-3.4,3.4-8.8,3.4-12.1,0L2.6,376.4c-5.3-5.4-1.5-14.5,6-14.5
		l69.8-0.5l0.3-210h-70c-7.6,0-11.4-9.1-6.1-14.5c23-23.6,79.6-84.6,96-101.1c3.4-3.4,8.8-3.4,12.1,0l95.8,101.1
		c5.3,5.4,1.5,14.5-6,14.5l-69.8,0.5l-0.3,210h70C207.9,361.9,211.7,371.1,206.5,376.4z"/>
</g>
</svg>
