<?xml version="1.0" encoding="utf-8"?>
<!-- Generator: Adobe Illustrator 21.1.0, SVG Export Plug-In . SVG Version: 6.00 Build 0)  -->
<svg version="1.1" id="Layer_1" xmlns="http://www.w3.org/2000/svg" xmlns:xlink="http://www.w3.org/1999/xlink" x="0px" y="0px"
	 viewBox="0 0 500.2 512" style="enable-background:new 0 0 500.2 512;" xml:space="preserve">
<path d="M368.1,310.9l104.2-155c-1.3,0.1-2.7,0.2-4.1,0.2c-18.1,0-33.4-12-38.4-28.5L328.4,278.5h0.3
	C348.3,278.5,364.5,292.4,368.1,310.9z M329.1,290.3c-15.4,0-28,12.5-28,28s12.5,28,28,28c15.4,0,28-12.5,28-28
	S344.5,290.3,329.1,290.3z M329.1,330.9c-7,0-12.6-5.7-12.6-12.6s5.7-12.6,12.6-12.6s12.6,5.7,12.6,12.6S336,330.9,329.1,330.9z
	 M469.3,144.2c15.4,0,28-12.5,28-28c0-15.4-12.5-28-28-28c-15.4,0-28,12.5-28,28C441.4,131.7,453.9,144.2,469.3,144.2z M469.3,103.6
	c7,0,12.6,5.7,12.6,12.6s-5.7,12.6-12.6,12.6c-7,0-12.6-5.7-12.6-12.6S462.3,103.6,469.3,103.6z M217.7,279.6l71.7,46.6
	c-0.5-2.5-0.7-5-0.7-7.6c0-16.9,10.5-31.3,25.2-37.2l-72.2-46.9c0.5,2.6,0.8,5.3,0.8,8.1C242.6,259.3,232.3,273.6,217.7,279.6z
	 M28,454.1c-15.4,0-28,12.5-28,28c0,15.4,12.5,28,28,28c15.4,0,28-12.5,28-28C55.9,466.6,43.4,454.1,28,454.1z M28,494.7
	c-7,0-12.6-5.7-12.6-12.6s5.7-12.6,12.6-12.6c7,0,12.6,5.7,12.6,12.6S34.9,494.7,28,494.7z M81.4,461l120.8-178.4
	c-19.6-0.2-35.9-14.4-39.2-33.1l-111,164V1H1v453.1c7.2-6.8,16.8-10.9,27.5-10.9c22.1,0,40.1,17.9,40.1,40.1
	c0,11.2-4.6,21.4-12.1,28.7h443.7v-51H81.4z M202.5,270.7c15.4,0,28-12.5,28-28c0-15.4-12.5-28-28-28c-15.4,0-28,12.5-28,28
	C174.6,258.2,187.1,270.7,202.5,270.7z M202.5,230.1c7,0,12.6,5.7,12.6,12.6s-5.7,12.6-12.6,12.6s-12.6-5.7-12.6-12.6
	S195.6,230.1,202.5,230.1z"/>
</svg>
