<?xml version="1.0" encoding="utf-8"?>
<!-- Generator: Adobe Illustrator 21.1.0, SVG Export Plug-In . SVG Version: 6.00 Build 0)  -->
<svg version="1.1" id="Layer_1" xmlns="http://www.w3.org/2000/svg" xmlns:xlink="http://www.w3.org/1999/xlink" x="0px" y="0px"
	 viewBox="0 0 552 512" style="enable-background:new 0 0 552 512;" xml:space="preserve">
<style type="text/css">
	.st0{fill-rule:evenodd;clip-rule:evenodd;}
</style>
<g>
	<g>
		<path class="st0" d="M52,459V241h96c6.8,16.2,22.8,27.5,41.5,27.5c7.1,0,13.7-1.6,19.7-4.5l61.5,61.5c-2.7,5.8-4.2,12.2-4.2,19
			c0,24.9,20.1,45,45,45c24.9,0,45-20.1,45-45c0-4.4-0.6-8.6-1.8-12.6L485,201.5c5.6,2.5,11.9,4,18.5,4c24.9,0,45-20.1,45-45
			s-20.1-45-45-45c-24.9,0-45,20.1-45,45c0,6.6,1.4,12.8,3.9,18.4L335.1,306.2c-6.9-4.2-15-6.7-23.6-6.7c-6.3,0-12.4,1.3-17.9,3.7
			l-62.5-62.5c2.2-5.3,3.4-11.1,3.4-17.2c0-24.9-20.1-45-45-45c-19.8,0-36.6,12.8-42.6,30.5H52V0H0v512h551v-53H52z"/>
	</g>
</g>
</svg>
