<?xml version="1.0" encoding="utf-8"?>
<!-- Generator: Adobe Illustrator 21.1.0, SVG Export Plug-In . SVG Version: 6.00 Build 0)  -->
<svg version="1.1" id="Layer_2" xmlns="http://www.w3.org/2000/svg" xmlns:xlink="http://www.w3.org/1999/xlink" x="0px" y="0px"
	 viewBox="0 0 512.3 512" style="enable-background:new 0 0 512.3 512;" xml:space="preserve">
<path d="M158.2,41.4c0-7.8,6.4-14.2,14.2-14.2c7.8,0,14.2,6.3,14.2,14.2v68.5c0,7.8-6.4,14.2-14.2,14.2c-7.8,0-14.2-6.4-14.2-14.2
	V41.4z M75.9,66.1c5.5-5.5,14.6-5.5,20.1,0l48.5,48.5c2.6,2.6,4.1,6.2,4.1,10c0,3.9-1.4,7.4-4.1,10.1c-2.8,2.8-6.5,4.2-10.1,4.2
	c-1.9,0-3.7-0.4-5.4-1.1c-1.7-0.7-3.3-1.8-4.7-3.1L75.9,86.2c-2.6-2.6-4.1-6.2-4.1-10C71.8,72.3,73.2,68.8,75.9,66.1z M50.3,148.2
	h68.5c7.8,0,14.2,6.3,14.2,14.2c0,7.8-6.4,14.2-14.2,14.2H50.3c-7.8,0-14.2-6.4-14.2-14.2C36.1,154.6,42.5,148.2,50.3,148.2z
	 M291.2,413.5L224,480.7c-41.8,41.8-109.5,41.8-151.3,0l-41.4-41.4c-41.8-41.8-41.8-109.5,0-151.2l67.1-67.1
	c22.3-22.3,58.5-22.3,80.8,0l15.7,15.7c10,10,10.2,26.1,0.4,36.3c-10.1,10.5-27.2,10.3-37.5,0l-13.8-13.7c-2.9-2.9-7.6-2.9-10.6,0
	l-70.2,70.2c-18.9,18.9-18.9,49.6,0,68.5l50.8,50.9c18.9,18.9,49.7,18.9,68.6,0l70.2-70.4c2.9-2.9,2.9-7.7,0-10.6l-13.6-13.6
	c-10.3-10.3-10.5-27.4,0-37.5c10.2-9.7,26.3-9.6,36.3,0.3l15.7,15.7C313.5,355.1,313.5,391.2,291.2,413.5z M319.6,142.1
	c-6.2-6.1-6.2-16.2,0-22.4c6.2-6.2,16.3-6.2,22.4,0l23.3,23.3c0.7,0.5,1.4,1.1,2.1,1.8c0.7,0.7,1.4,1.4,1.9,2.2l22.6,22.6
	c6.2,6.1,6.2,16.2,0,22.4c-6.1,6.2-16.2,6.2-22.4,0l-13.5-13.5L180.4,354.3l13.5,13.5c6.2,6.1,6.2,16.2,0,22.4
	c-6.1,6.2-16.2,6.2-22.4,0l-50-50c-6.2-6.1-6.2-16.2,0-22.4c6.2-6.2,16.3-6.2,22.4,0l14.1,14l175.7-175.6L319.6,142.1z M363.1,460.9
	c0,7.8-6.4,14.2-14.2,14.2c-7.8,0-14.2-6.4-14.2-14.2v-68.5c0-7.8,6.4-14.2,14.2-14.2c7.8,0,14.2,6.3,14.2,14.2V460.9z M445.6,436.2
	c-2.7,2.6-6.3,4.1-10.1,4.1c-3.9,0-7.4-1.4-10.1-4.1L377,387.7c-5.5-5.5-5.5-14.6,0-20.1s14.3-5.6,20-0.1l48.6,48.6
	C451.1,421.6,451.1,430.7,445.6,436.2z M471.1,354.1h-68.5c-7.8,0-14.2-6.4-14.2-14.2c0-7.8,6.4-14.2,14.2-14.2h68.5
	c7.8,0,14.2,6.4,14.2,14.2C485.3,347.7,478.9,354.1,471.1,354.1z M481,224l-67.1,67.1c-22.3,22.3-58.5,22.3-80.8,0l-15.7-15.7
	c-9.7-9.7-10.1-25-1.4-35.2c10-11.7,27.7-11.8,38.6-1l13.5,13.5c2.9,2.9,7.7,2.9,10.6,0l70.4-70.2c18.9-18.9,18.9-49.6,0-68.5
	l-50.9-50.9c-18.9-18.9-49.6-18.9-68.6,0l-70.3,70.3c-2.9,2.9-2.9,7.6,0,10.6l14.1,14.1c10,10,10.1,26.1,0.4,36.3
	c-10.1,10.5-27.2,10.3-37.5,0L221,179.2c-22.3-22.3-22.3-58.5,0-80.8l67.1-67.1c41.7-41.7,109.5-41.7,151.3,0L481,72.8
	C522.7,114.5,522.7,182.3,481,224z"/>
</svg>
