<?xml version="1.0" encoding="utf-8"?>
<!-- Generator: Adobe Illustrator 21.1.0, SVG Export Plug-In . SVG Version: 6.00 Build 0)  -->
<svg version="1.1" id="Layer_6" xmlns="http://www.w3.org/2000/svg" xmlns:xlink="http://www.w3.org/1999/xlink" x="0px" y="0px"
	 viewBox="0 0 225.3 512" style="enable-background:new 0 0 225.3 512;" xml:space="preserve">
<g>
	<path d="M225.3,468.5V235.1c0-5.6-2-19.6-20.7-27.3c-0.1,0-0.1,0-0.2-0.1v-18.6c0-6-2.2-20.6-22.6-27.4l3.3-127.3
		c0-11-5.9-21.3-15.3-26.8c-9.5-5.6-21.3-5.8-30.9-0.5L61.4,50.3l-0.1,0c-11,6.1-17.8,17.7-17.8,30.2v81.3
		c-20.4,6.9-22.6,21.4-22.6,27.4v18.6c-0.1,0-0.1,0-0.2,0.1C2,215.6,0,229.6,0,235.2v238.7c0,7.5,3.1,21.3,23.8,28.4
		c6.2,2.2,14.3,3.9,24.5,5.4c18.8,2.7,43.5,4.2,69.6,4.2c26.1,0,40.7-1.5,59.5-4.3c10.2-1.5,18.2-3.3,24.5-5.4
		c20.7-7.2,23.8-20.9,23.8-28.4C225.8,472.1,225.6,470.3,225.3,468.5z M176.4,458.4c-12.6,2.3-25.5,4.7-58.4,4.7
		c-33.4,0-56.6-2.5-69.1-4.8V250.7c0.2,0,0.5-0.1,0.7-0.1l20.1-3.6v-41c0.5-0.1,1-0.1,1.5-0.2l21.1-2.9V89l43.8-24.6l-3.3,138.4
		l21.1,2.9c0.5,0.1,1,0.1,1.5,0.2v41l20.1,3.6c0.2,0,0.5,0.1,0.7,0.1V458.4z"/>
	<path d="M66.3,440.9c0,4.4,3.6,8,8,8s8-3.6,8-8v-41h-16V440.9z"/>
	<rect x="66.3" y="294.1" width="16" height="96"/>
	<path d="M74.3,263c-4.4,0-8,3.6-8,8v13.6h16V271c0-2.2-0.8-4.2-2.3-5.7C78.5,263.9,76.5,263,74.3,263z"/>
</g>
</svg>
