<?xml version="1.0" encoding="utf-8"?>
<!-- Generator: Adobe Illustrator 21.1.0, SVG Export Plug-In . SVG Version: 6.00 Build 0)  -->
<svg version="1.1" id="Layer_5" xmlns="http://www.w3.org/2000/svg" xmlns:xlink="http://www.w3.org/1999/xlink" x="0px" y="0px"
	 viewBox="0 0 512 512" style="enable-background:new 0 0 512 512;" xml:space="preserve">
<g>
	<g>
		<path d="M138.8,512H512v-52H138.8V512z M511,307H138.8v52H511V307z M138.8,206H512v-52H138.8V206z M139.8,0v52H512V0H139.8z M0,26
			L0,26c0,14.4,11.6,26,26,26l0,0c14.4,0,26-11.6,26-26l0,0C52,11.6,40.4,0,26,0l0,0C11.6,0,0,11.7,0,26z M0,180L0,180
			c0,14.4,11.6,26,26,26l0,0c14.4,0,26-11.6,26-26l0,0c0-14.4-11.6-26-26-26l0,0C11.6,154,0,165.7,0,180z M0,333.2L0,333.2
			c0,14.4,11.6,26,26,26l0,0c14.4,0,26-11.6,26-26l0,0c0-14.4-11.6-26-26-26l0,0C11.6,307.2,0,318.8,0,333.2z M0,486L0,486
			c0,14.4,11.6,26,26,26l0,0c14.4,0,26-11.6,26-26l0,0c0-14.4-11.6-26-26-26l0,0C11.6,460,0,471.6,0,486z"/>
	</g>
</g>
</svg>
