<?xml version="1.0" encoding="utf-8"?>
<!-- Generator: Adobe Illustrator 21.1.0, SVG Export Plug-In . SVG Version: 6.00 Build 0)  -->
<svg version="1.1" id="Layer_1" xmlns="http://www.w3.org/2000/svg" xmlns:xlink="http://www.w3.org/1999/xlink" x="0px" y="0px"
	 viewBox="0 0 512 512" style="enable-background:new 0 0 512 512;" xml:space="preserve">
<g>
	<g>
		<path d="M257.5,0c8.9,0,16.2,7.2,16.2,16.1s-7.2,16.1-16.2,16.1c-8.9,0-16.2-7.2-16.2-16.1S248.6,0,257.5,0z M257.5,479.9
			c8.9,0,16.2,7.2,16.2,16.1s-7.2,16.1-16.2,16.1c-8.9,0-16.2-7.2-16.2-16.1S248.6,479.9,257.5,479.9z M16.2,239.9
			c8.9,0,16.2,7.2,16.2,16.1c0,8.8-7.2,16.1-16.2,16.1S0,264.8,0,256C0,247.2,7.2,239.9,16.2,239.9z M190.8,8.7
			c8.5-2.3,17.5,2.8,19.8,11.3s-2.8,17.4-11.4,19.7c-8.5,2.3-17.5-2.8-19.8-11.3C177.1,19.8,182.2,11,190.8,8.7z M315.7,472.2
			c8.5-2.3,17.5,2.8,19.8,11.3c2.3,8.5-2.8,17.4-11.4,19.7c-8.5,2.3-17.5-2.8-19.8-11.3C302,483.4,307.1,474.6,315.7,472.2z
			 M20.2,302.6c8.5-2.3,17.5,2.8,19.8,11.3c2.3,8.5-2.8,17.4-11.4,19.7s-17.5-2.8-19.8-11.3S11.6,304.9,20.2,302.6z M128.7,34.3
			c7.7-4.4,17.6-1.8,22.1,5.9c4.4,7.7,1.8,17.5-5.9,22c-7.7,4.4-17.6,1.8-22.1-5.9S121,38.8,128.7,34.3z M370,449.9
			c7.7-4.4,17.6-1.8,22.1,5.9c4.4,7.7,1.8,17.5-5.9,22c-7.7,4.4-17.6,1.8-22.1-5.9C359.6,464.1,362.3,454.3,370,449.9z M40.4,362
			c7.7-4.4,17.6-1.8,22.1,5.9c4.4,7.7,1.8,17.5-5.9,22c-7.7,4.4-17.6,1.8-22.1-5.9S32.7,366.5,40.4,362z M98.3,75
			c6.2,6.2,6.2,16.5,0,22.7c-6.2,6.2-16.6,6.2-22.8,0s-6.2-16.5,0-22.7C81.7,68.8,92,68.7,98.3,75z M439.5,414.3
			c6.2,6.2,6.2,16.5,0,22.7s-16.6,6.2-22.8,0s-6.2-16.5,0-22.7C422.9,408.1,433.3,408,439.5,414.3z M98.3,414.3
			c6.2,6.2,6.2,16.5,0,22.7c-6.2,6.2-16.6,6.2-22.8,0s-6.2-16.5,0-22.7C81.7,408.1,92,408,98.3,414.3z M40.4,150
			c-7.7-4.4-10.4-14.3-5.9-22s14.4-10.3,22.1-5.9c7.7,4.4,10.4,14.3,5.9,22S48.2,154.4,40.4,150z M474.6,362
			c7.7,4.4,10.4,14.3,5.9,22c-4.4,7.7-14.4,10.3-22.1,5.9c-7.7-4.4-10.4-14.3-5.9-22C456.9,360.2,466.7,357.6,474.6,362z
			 M144.9,449.9c7.7,4.4,10.4,14.3,5.9,22c-4.4,7.7-14.4,10.3-22.1,5.9s-10.4-14.3-5.9-22C127.2,448.1,137.1,445.4,144.9,449.9z
			 M40,198.1c-2.3,8.5-11.2,13.7-19.8,11.3S6.4,198.3,8.7,189.7c2.3-8.5,11.2-13.7,19.8-11.3C37.1,180.7,42.3,189.4,40,198.1z
			 M199.2,472.2c8.5,2.3,13.8,11.1,11.4,19.7c-2.3,8.5-11.2,13.7-19.8,11.3c-8.5-2.3-13.8-11.1-11.4-19.7
			C181.7,475.1,190.5,469.9,199.2,472.2z M320.1,29.1c-2.8,0-5-2.2-5-5s2.2-5,5-5s5,2.2,5,5S322.9,29.1,320.1,29.1z M378.6,55.2
			c-3.9,0-7-3.1-7-7s3.1-7,7-7s7,3.1,7,7S382.6,55.2,378.6,55.2z M428.1,94.4c-4.4,0-8-3.6-8-8c0-4.4,3.6-8,8-8s8,3.6,8,8
			C436.2,90.8,432.5,94.4,428.1,94.4z M466.4,146.6c-5.5,0-10.1-4.5-10.1-10c0-5.5,4.5-10,10.1-10c5.5,0,10.1,4.5,10.1,10
			C476.5,142.1,472,146.6,466.4,146.6z M490.2,205.8c-6.4,0-11.6-5.1-11.6-11.5s5.1-11.5,11.6-11.5c6.4,0,11.6,5.1,11.6,11.5
			S496.6,205.8,490.2,205.8z M485.7,256c0-7.2,5.8-13.1,13.2-13.1c7.2,0,13.2,5.8,13.2,13.1c0,7.2-5.8,13.1-13.2,13.1
			S485.7,263.2,485.7,256z M475.6,318.2c0-8.3,6.7-15.1,15.2-15.1c8.3,0,15.2,6.7,15.2,15.1c0,8.3-6.7,15.1-15.2,15.1
			C482.3,333.3,475.6,326.6,475.6,318.2z"/>
	</g>
</g>
</svg>
