<?xml version="1.0" encoding="utf-8"?>
<!-- Generator: Adobe Illustrator 21.1.0, SVG Export Plug-In . SVG Version: 6.00 Build 0)  -->
<svg version="1.1" id="Layer_2" xmlns="http://www.w3.org/2000/svg" xmlns:xlink="http://www.w3.org/1999/xlink" x="0px" y="0px"
	 viewBox="0 0 512 512" style="enable-background:new 0 0 512 512;" xml:space="preserve">
<path d="M256,181.8c-41,0-74.2,33.2-74.2,74.2s33.2,74.2,74.2,74.2s74.2-33.2,74.2-74.2S297,181.8,256,181.8z M256,278.2
	c-12.2,0-22.2-9.9-22.2-22.2s9.9-22.2,22.2-22.2s22.2,9.9,22.2,22.2S268.2,278.2,256,278.2z"/>
<path d="M450.5,230.1C438.8,142.1,369,72.6,280.9,61.4V0H229v61.7c-87.1,12-155.9,81.1-167.5,168.4H0v51.9h61.5
	C73,369.2,141.9,438.4,229,450.4V512h51.9v-61.3c88.1-11.1,158-80.8,169.6-168.8H512v-51.9H450.5z M256,399.6
	c-79.3,0-143.6-64.3-143.6-143.6S176.7,112.5,256,112.5S399.6,176.8,399.6,256S335.3,399.6,256,399.6z"/>
</svg>
