<?xml version="1.0" encoding="utf-8"?>
<!-- Generator: Adobe Illustrator 21.1.0, SVG Export Plug-In . SVG Version: 6.00 Build 0)  -->
<svg version="1.1" id="Layer_1" xmlns="http://www.w3.org/2000/svg" xmlns:xlink="http://www.w3.org/1999/xlink" x="0px" y="0px"
	 viewBox="0 0 512 512" style="enable-background:new 0 0 512 512;" xml:space="preserve">
<path d="M233.9,275.8l15.5,137.8c0.4,4,5.8,4.9,7.4,1.2l120.7-282.5L94.7,252.7c-4.3,1.8-3.3,8.2,1.3,8.7L233.9,275.8z M271.3,288
	l-1.6-48l-48.4-1.8l86-35.7L271.3,288z M256,0C114.6,0,0,114.6,0,256s114.6,256,256,256s256-114.6,256-256S397.4,0,256,0z
	 M256,460.1c-112.6,0-204-91.4-204-204s91.4-204,204-204s204,91.4,204,204S368.6,460.1,256,460.1z"/>
</svg>
