<?xml version="1.0" encoding="utf-8"?>
<!-- Generator: Adobe Illustrator 21.1.0, SVG Export Plug-In . SVG Version: 6.00 Build 0)  -->
<svg version="1.1" id="Layer_1" xmlns="http://www.w3.org/2000/svg" xmlns:xlink="http://www.w3.org/1999/xlink" x="0px" y="0px"
	 viewBox="0 0 539 512" style="enable-background:new 0 0 539 512;" xml:space="preserve">
<g>
	<path d="M409,0c-71,0.2-128,58.9-128,129.9V207H8l-7,6v300h408V213l-7-6h-69v-77.5c0-42.1,33.6-77.1,75.7-77.5
		c42.5-0.4,77.3,34.1,77.3,76.5v84.9h23c0,0,2,8.6-7,15.6l-14.7,11.7c-0.4,0.4-0.8,0.7-1.2,0.9c1.3,13.1,12.4,23.4,25.9,23.4
		c7.2,0,13.7-2.9,18.4-7.6c4.7-4.7,7.6-11.2,7.6-18.4V128.5C538,57.4,480.2-0.2,409,0z M102,211c14.4,0,26,2,26,4.5
		s-11.6,4.5-26,4.5s-26-2-26-4.5S87.6,211,102,211z M357,265v196H53V265H357z"/>
	<path d="M189.7,390.5v35.6c0,8.5,6.9,15.4,15.4,15.4h0c8.5,0,15.4-6.9,15.4-15.4v-36.6c8.4-5.4,14-14.8,14-25.5
		c0-16.7-13.5-30.3-30.3-30.3S174,347.3,174,364C174,375.4,180.3,385.4,189.7,390.5z"/>
</g>
</svg>
