<?xml version="1.0" encoding="utf-8"?>
<!-- Generator: Adobe Illustrator 21.1.0, SVG Export Plug-In . SVG Version: 6.00 Build 0)  -->
<svg version="1.1" id="Layer_1" xmlns="http://www.w3.org/2000/svg" xmlns:xlink="http://www.w3.org/1999/xlink" x="0px" y="0px"
	 viewBox="0 0 513.4 512" style="enable-background:new 0 0 513.4 512;" xml:space="preserve">
<g id="_x35_2">
	<path d="M491.1,66.8H22.3c-11.9,0-21.6,9.7-21.6,21.6v349.8c0,11.9,9.7,21.6,21.6,21.6h468.8c11.9,0,21.6-9.7,21.6-21.6V88.4
		C512.7,76.5,503,66.8,491.1,66.8z M460.7,407.8h-408v-289h408v38.4h-31.5v51.3h31.5v107.7h-31.5v51.3h31.5V407.8z"/>
	<g>
		<path d="M158.9,175.2c-48.9,0-88.5,39.6-88.5,88.4s39.6,88.5,88.5,88.5s88.4-39.6,88.4-88.5S207.7,175.2,158.9,175.2L158.9,175.2z
			 M158.9,333.3c-38.5,0-69.7-31.2-69.7-69.7s31.2-69.7,69.7-69.7s69.7,31.2,69.7,69.7S197.3,333.3,158.9,333.3L158.9,333.3z"/>
	</g>
	<g>
		<path d="M158.1,211.3c-4.1,0-7.5,3.4-7.5,7.5v23c-6.8,2.2-12.1,7.5-14.5,14.3h-23.1c-4.1,0-7.5,3.4-7.5,7.5c0,4.1,3.4,7.5,7.5,7.5
			h23c2.3,6.7,7.6,12,14.3,14.3v23.2c0,4.1,3.4,7.5,7.5,7.5s7.5-3.4,7.5-7.5v-23.2c6.6-2.3,11.8-7.5,14.2-14h23.3
			c2.1,0,3.9-0.8,5.3-2.2c1.4-1.3,2.2-3.2,2.2-5.3c0-4.1-3.4-7.5-7.5-7.5h-23.2c-2.2-6.7-7.5-12-14.1-14.4v-23.2
			c0-2.1-0.8-3.9-2.2-5.3C162,212.2,160.2,211.3,158.1,211.3L158.1,211.3z M157.9,276.5c-7.1,0-12.9-5.8-12.9-12.9
			c0-7.1,5.8-12.9,12.9-12.9c7.1,0,12.9,5.8,12.9,12.9C170.7,270.8,165,276.5,157.9,276.5L157.9,276.5z"/>
	</g>
	<g>
		<polygon points="304.6,198.5 267.3,198.5 267.3,235.7 304.6,235.7 304.6,198.5 		"/>
	</g>
	<g>
		<polygon points="353.4,198.5 316.1,198.5 316.1,235.7 353.4,235.7 353.4,198.5 		"/>
	</g>
	<g>
		<polygon points="403.1,198.5 365.8,198.5 365.8,235.7 403.1,235.7 403.1,198.5 		"/>
	</g>
	<g>
		<polygon points="304.6,244 267.3,244 267.3,281.3 304.6,281.3 304.6,244 		"/>
	</g>
	<g>
		<polygon points="353.4,244 316.1,244 316.1,281.3 353.4,281.3 353.4,244 		"/>
	</g>
	<g>
		<polygon points="403.1,244 365.8,244 365.8,281.3 403.1,281.3 403.1,244 		"/>
	</g>
	<g>
		<polygon points="304.6,291.6 267.3,291.6 267.3,328.8 304.6,328.8 304.6,291.6 		"/>
	</g>
	<g>
		<polygon points="353.4,291.6 316.1,291.6 316.1,328.8 353.4,328.8 353.4,291.6 		"/>
	</g>
	<g>
		<polygon points="403.1,291.6 365.8,291.6 365.8,328.8 403.1,328.8 403.1,291.6 		"/>
	</g>
</g>
</svg>
