<?xml version="1.0" encoding="utf-8"?>
<!-- Generator: Adobe Illustrator 21.1.0, SVG Export Plug-In . SVG Version: 6.00 Build 0)  -->
<svg version="1.1" id="Layer_1" xmlns="http://www.w3.org/2000/svg" xmlns:xlink="http://www.w3.org/1999/xlink" x="0px" y="0px"
	 viewBox="0 0 409 512" style="enable-background:new 0 0 409 512;" xml:space="preserve">
<g>
	<path d="M402,207h-69v-78.5C333,57.5,275.5,0,204.5,0l0,0C133.5,0,76,57.5,76,128.5V207H8l-7,6v300h408V213L402,207z M128,128.5
		c0-42.2,34.3-76.5,76.5-76.5S281,86.3,281,128.5V207H128V128.5z M357,461H53V265h23h257h24V461z"/>
	<path d="M234.5,364c0-16.7-13.5-30.3-30.3-30.3S174,347.3,174,364c0,11.4,6.3,21.4,15.7,26.5v35.6c0,8.5,6.9,15.4,15.4,15.4h0
		c8.5,0,15.4-6.9,15.4-15.4v-36.6C228.9,384.2,234.5,374.7,234.5,364z"/>
</g>
</svg>
