<?xml version="1.0" encoding="utf-8"?>
<!-- Generator: Adobe Illustrator 21.1.0, SVG Export Plug-In . SVG Version: 6.00 Build 0)  -->
<svg version="1.1" id="Layer_5" xmlns="http://www.w3.org/2000/svg" xmlns:xlink="http://www.w3.org/1999/xlink" x="0px" y="0px"
	 viewBox="0 0 391.4 512" style="enable-background:new 0 0 391.4 512;" xml:space="preserve">
<g>
	<polygon points="114.4,164.6 82.9,164.6 140.4,224.8 82.9,284.9 114.4,284.9 171.9,224.8 	"/>
	<polygon points="132.3,224.8 74.8,285 62.1,285 103,242.2 0.1,242.2 0.1,203.5 99.3,203.5 62.1,164.6 74.8,164.6 	"/>
	<rect x="52.6" y="314.9" width="52" height="197.1"/>
	<path d="M269.2,256.4l-2.9,0.6c-3.6,0.7-6.2,3.9-6.2,7.5v39.2l18.2,1.1v-40.9C278.3,259.1,273.9,255.5,269.2,256.4z M270.5,279.7
		v8.1c0,1.5-0.9,2.7-2,2.7c-1,0-1.9-1.1-1.9-2.6v-8c-1.1-0.8-1.8-2.4-1.8-4.2c0-2.8,1.7-5.3,3.8-5.6c2.2-0.3,3.9,1.9,3.9,4.8
		C272.5,276.9,271.8,278.7,270.5,279.7z M269.2,256.4l-2.9,0.6c-3.6,0.7-6.2,3.9-6.2,7.5v39.2l18.2,1.1v-40.9
		C278.3,259.1,273.9,255.5,269.2,256.4z M270.5,279.7v8.1c0,1.5-0.9,2.7-2,2.7c-1,0-1.9-1.1-1.9-2.6v-8c-1.1-0.8-1.8-2.4-1.8-4.2
		c0-2.8,1.7-5.3,3.8-5.6c2.2-0.3,3.9,1.9,3.9,4.8C272.5,276.9,271.8,278.7,270.5,279.7z M52.6,0v135.6h52V52h191.7l-70.5,20.7v418.1
		L339.3,512l0,0h52V0H52.6z M339.3,481.9l-82.6-15.6V101.6l82.6-24.2V481.9z M278.3,263.9c0-4.8-4.4-8.4-9.1-7.5l-2.9,0.6
		c-3.6,0.7-6.2,3.9-6.2,7.5v39.2l18.2,1.1V263.9z M270.5,279.7v8.1c0,1.5-0.9,2.7-2,2.7c-1,0-1.9-1.1-1.9-2.6v-8
		c-1.1-0.8-1.8-2.4-1.8-4.2c0-2.8,1.7-5.3,3.8-5.6c2.2-0.3,3.9,1.9,3.9,4.8C272.5,276.9,271.8,278.7,270.5,279.7z"/>
</g>
</svg>
