<?xml version="1.0" encoding="utf-8"?>
<!-- Generator: Adobe Illustrator 21.1.0, SVG Export Plug-In . SVG Version: 6.00 Build 0)  -->
<svg version="1.1" id="Shape_1_1_" xmlns="http://www.w3.org/2000/svg" xmlns:xlink="http://www.w3.org/1999/xlink" x="0px" y="0px"
	 viewBox="0 0 512 512" style="enable-background:new 0 0 512 512;" xml:space="preserve">
<g>
	<path d="M512,256C512,114.6,397.4,0,256,0S0,114.6,0,256s114.6,256,256,256S512,397.4,512,256z M52,256c0-112.7,91.3-204,204-204
		s204,91.3,204,204s-91.3,204-204,204S52,368.7,52,256z"/>
	<path d="M252.4,117.1L252.4,117.1c10.2,10.1,10.2,26.6,0,36.8l-76.2,76.2H395c14.2,0,26.1,11.1,26.5,25.3
		c0.4,14.7-11.4,26.7-26,26.7H177.4l75,75c10.2,10.2,10.2,26.6,0,36.8l0,0c-10.1,10.2-26.6,10.2-36.8,0L98.2,276.6
		c-11.6-11.6-11.6-30.4,0-42l117.4-117.4C225.8,107,242.2,107,252.4,117.1z"/>
</g>
</svg>
