<?xml version="1.0" encoding="utf-8"?>
<!-- Generator: Adobe Illustrator 21.1.0, SVG Export Plug-In . SVG Version: 6.00 Build 0)  -->
<svg version="1.1" id="Shape_1_1_" xmlns="http://www.w3.org/2000/svg" xmlns:xlink="http://www.w3.org/1999/xlink" x="0px" y="0px"
	 viewBox="0 0 512 512" style="enable-background:new 0 0 512 512;" xml:space="preserve">
<g>
	<path d="M0,256c0,141.4,114.6,256,256,256s256-114.6,256-256S397.4,0,256,0S0,114.6,0,256z M460,256c0,112.7-91.3,204-204,204
		S52,368.7,52,256S143.3,52,256,52S460,143.3,460,256z"/>
	<path d="M259.6,394.9L259.6,394.9c-10.2-10.1-10.2-26.6,0-36.8l76.2-76.2H117c-14.2,0-26.1-11.1-26.5-25.3
		c-0.4-14.7,11.4-26.7,26-26.7h218.1l-75-75c-10.2-10.2-10.2-26.6,0-36.8l0,0c10.1-10.2,26.6-10.2,36.8,0l117.4,117.4
		c11.6,11.6,11.6,30.4,0,42L296.4,394.9C286.2,405,269.8,405,259.6,394.9z"/>
</g>
</svg>
