<?xml version="1.0" encoding="utf-8"?>
<!-- Generator: Adobe Illustrator 21.1.0, SVG Export Plug-In . SVG Version: 6.00 Build 0)  -->
<svg version="1.1" id="Shape_1_1_" xmlns="http://www.w3.org/2000/svg" xmlns:xlink="http://www.w3.org/1999/xlink" x="0px" y="0px"
	 viewBox="0 0 512 512" style="enable-background:new 0 0 512 512;" xml:space="preserve">
<g>
	<path d="M256,512c141.4,0,256-114.6,256-256S397.4,0,256,0S0,114.6,0,256S114.6,512,256,512z M256,52c112.7,0,204,91.3,204,204
		s-91.3,204-204,204S52,368.7,52,256S143.3,52,256,52z"/>
	<path d="M394.9,252.4L394.9,252.4c-10.1,10.2-26.6,10.2-36.8,0l-76.2-76.2V395c0,14.2-11.1,26.1-25.3,26.5
		c-14.7,0.4-26.7-11.4-26.7-26V177.4l-75,75c-10.2,10.2-26.6,10.2-36.8,0l0,0c-10.2-10.1-10.2-26.6,0-36.8L235.4,98.2
		c11.6-11.6,30.4-11.6,42,0l117.4,117.4C405,225.8,405,242.2,394.9,252.4z"/>
</g>
</svg>
