<?xml version="1.0" encoding="utf-8"?>
<!-- Generator: Adobe Illustrator 21.1.0, SVG Export Plug-In . SVG Version: 6.00 Build 0)  -->
<svg version="1.1" id="Layer_4" xmlns="http://www.w3.org/2000/svg" xmlns:xlink="http://www.w3.org/1999/xlink" x="0px" y="0px"
	 viewBox="0 0 559.1 512" style="enable-background:new 0 0 559.1 512;" xml:space="preserve">
<g>
	<path d="M559.8,455.1c0,5-1.4,9.6-3.8,13.5c0,0,0,0,0,0.1c-4.6,7.6-12.9,12.6-22.4,12.6h-10.8c-3.4-7.5-10.9-12.7-19.6-12.7
		s-16.3,5.2-19.6,12.7H147.4l0.6-1.4c0.3-0.6,0.5-1.3,0.8-1.9c1.1-4.9,1.6-10.1,1.6-15.3c0-40-32.4-72.4-72.4-72.4
		c-4.5,0-8.9,0.4-13.2,1.2c-0.1,0-0.2,0-0.3,0.1V339c0,0,0,0,0,0V108.7c0-10.7-4.7-20.7-12.9-27.6L9.3,46c-4.8-4.1-7.7-9.6-8.7-15.4
		C-0.6,23.5,1.2,16,6,9.9C11,3.6,18.5,0,26.6,0C29.1,0,31.6,0.3,34,1c3.2,0.9,6.2,2.5,8.9,4.6L85,41.1
		c20.3,16.8,31.9,41.6,31.9,67.9v235.5c39.2,12.9,69.7,44.6,80.9,84.5h337.3c8.9,0.6,16.6,5.6,20.9,12.8
		C558.4,445.7,559.8,450.3,559.8,455.1z"/>
	<ellipse cx="73.5" cy="464.2" rx="47.8" ry="47.8"/>
	<circle cx="503.1" cy="490.2" r="16"/>
	<path d="M525.2,79.7c8.8,0,13.2,4.4,13.2,13.2v68.4H385.2c0-8.6-4.4-12.9-13.2-12.9h-39.6c-8.8,0-13.2,4.3-13.2,12.9H165.8V92.9
		c0-8.8,4.4-13.2,13.2-13.2h101l-0.3-28.3c1-7.2,5.1-10.9,12.3-10.9h120.7c7.2,0,11.3,3.6,12.3,10.6v28.7L525.2,79.7L525.2,79.7z
		 M372,187.4c8.8,0,13.2-4.3,13.2-12.9h153.2v176c0,8.8-4.4,13.2-13.2,13.2H179c-8.8,0-13.2-4.4-13.2-13.2v-176h153.5
		c0,8.6,4.4,12.9,13.2,12.9H372z M508.5,204.3H398.1c0,0.4,0,1.3,0,1.7c0,4.7-4.4,9.7-9.1,9.7h-75c-3.3,0-9.1-4.1-9.1-9.1
		c0-1.2,0-0.7,0-2.3H195.1V327c0,4.4,2.2,6.6,6.7,6.6h300.1c4.5,0,6.7-2.2,6.7-6.6L508.5,204.3L508.5,204.3z M407,63.4
		c0.4-5.1-2.4-7.7-8.2-7.7H306c-5.5,0-8.3,2.6-8.5,7.7v16.3H407V63.4L407,63.4z M338.9,174.5c-4.3,0-6.4-2.2-6.4-6.6
		s2.1-6.6,6.4-6.6h26.4c4.5,0,6.7,2.2,6.7,6.6s-2.2,6.6-6.7,6.6H338.9z"/>
</g>
</svg>
