<?xml version="1.0" encoding="utf-8"?>
<!-- Generator: Adobe Illustrator 21.1.0, SVG Export Plug-In . SVG Version: 6.00 Build 0)  -->
<svg version="1.1" id="Layer_7" xmlns="http://www.w3.org/2000/svg" xmlns:xlink="http://www.w3.org/1999/xlink" x="0px" y="0px"
	 viewBox="0 0 512.4 512" style="enable-background:new 0 0 512.4 512;" xml:space="preserve">
<g>
	<path d="M260.1,274.3c18.2,0,32.9-14.7,32.9-32.9c0-5.2-1.2-10.2-3.4-14.6l32.8-32.8l-17.5-17.5l-33.8,33.8
		c-3.4-1.2-7.1-1.9-10.9-1.9c-18.2,0-32.9,14.7-32.9,32.9S242,274.3,260.1,274.3z"/>
	<path d="M256.2,1.2c-141.4,0-256,114.6-256,256s114.6,256,256,256c141.4,0,256-114.6,256-256S397.6,1.2,256.2,1.2z M256.5,51.5
		c103.7,0,189.3,77.2,202.6,177.2H305.1c0.7,3.3,1.1,6.6,1.1,10.1c0,27.2-22.5,49.2-49.9,48.4c-27.9-0.8-49.5-25.6-46.7-53.4
		c0.2-1.8,0.4-3.5,0.8-5.2H53.8C67.1,128.7,152.8,51.5,256.5,51.5z M256.5,460.5c-101.9,0-186.4-74.6-201.9-172.2h114
		c17.3,30.9,50.3,51.8,88.3,51.8c37.9,0,71-20.9,88.3-51.8h113.2C442.9,385.9,358.4,460.5,256.5,460.5z"/>
	<rect x="246.4" y="69.8" width="16.3" height="53.6"/>
	<polygon points="197,137.8 212.1,131.6 191,80.7 176,86.8 185.9,110.2 	"/>
	<polygon points="158.1,167.9 169.7,156.4 131.6,118.2 120,129.8 136.3,145.7 	"/>
	<polygon points="117.6,192.6 141,202.4 147.2,187.4 97.3,166.7 91.1,181.8 	"/>
	<polygon points="371.7,202.5 421.3,181.7 415.2,166.7 365.6,187 	"/>
	<polygon points="389.1,129.8 377.5,118.2 339.4,156.4 350.9,167.9 	"/>
	<polygon points="333.1,86.8 318.1,80.7 297.4,130.6 312.4,136.7 	"/>
	<polygon points="104.4,366.2 141.1,366.2 141.1,351.9 118.7,351.9 118.7,341.3 140.8,341.3 140.8,327 118.7,327 118.7,316.8 
		141.1,316.8 141.1,302.1 104.4,302.1 	"/>
	<polygon points="410.2,316.8 410.2,302.1 374.5,302.1 374.5,362 388.8,362 388.8,341.3 410.2,341.3 410.2,327 388.8,327 
		388.8,316.8 	"/>
</g>
</svg>
