<?xml version="1.0" encoding="utf-8"?>
<!-- Generator: Adobe Illustrator 22.0.1, SVG Export Plug-In . SVG Version: 6.00 Build 0)  -->
<svg version="1.1" id="Layer_1" xmlns="http://www.w3.org/2000/svg" xmlns:xlink="http://www.w3.org/1999/xlink" x="0px" y="0px"
	 viewBox="0 0 512 512" style="enable-background:new 0 0 512 512;" xml:space="preserve">
<g>
	<rect x="65.7" y="298.6" transform="matrix(0.7071 -0.7071 0.7071 0.7071 -174.6522 227.5794)" width="243.4" height="52"/>
	<path d="M7.6,467.6c-10.2,10.2-10.2,26.6,0,36.8c10.2,10.2,26.6,10.2,36.8,0l38.6-38.6l-36.8-36.8L7.6,467.6z"/>
	<path d="M277.4,123.1c-11.8,0-21.4,9.6-21.4,21.4c0,11.8,9.6,21.3,21.4,21.3c11.8,0,21.3-9.6,21.3-21.3
		C298.7,132.7,289.2,123.1,277.4,123.1z"/>
	<path d="M322.1,359.6c-12.2,0-22-9.9-22-22.1c0-12.2,9.9-22,22-22c12.2,0,22.1,9.9,22.1,22C344.2,349.7,334.3,359.6,322.1,359.6z
		 M322.1,324.5c-7.2,0-13,5.9-13,13c0,7.2,5.9,13.1,13,13.1c7.2,0,13.1-5.9,13.1-13.1C335.2,330.3,329.4,324.5,322.1,324.5z"/>
	<path d="M414.3,138.8c7.7,0,14,6.3,14,14c0,7.7-6.3,13.9-14,13.9c-7.7,0-14-6.3-14-13.9C400.3,145.1,406.6,138.8,414.3,138.8
		 M414.3,123.8c-16,0-29,13-29,29c0,16,13,28.9,29,28.9c16,0,29-13,29-28.9C443.2,136.8,430.2,123.8,414.3,123.8L414.3,123.8z"/>
	<path d="M286.2,57.7l18.7-19.3c1.5-1.6,2.2-3.8,1.8-6l-5.2-26.2c-0.6-3.1,2.6-5.6,5.4-4.2l24.1,11.8c2,1,4.3,0.9,6.3-0.2l23.3-13.1
		c2.8-1.5,6.1,0.7,5.6,3.9l-3.8,26.5c-0.3,2.2,0.5,4.4,2.1,5.9l19.6,18.1c2.3,2.1,1.2,6-1.9,6.6l-26.4,4.6c-2.2,0.4-4,1.8-5,3.9
		l-11.2,24.3c-1.3,2.9-5.4,3-6.9,0.2l-12.5-23.7c-1.1-2-3-3.3-5.2-3.6l-26.6-3C285.4,63.8,284,60,286.2,57.7z"/>
	<path d="M447.5,298.3l-12.3-13c-1-1.1-2.5-1.6-4-1.4l-17.6,2.7c-2.1,0.3-3.6-1.9-2.6-3.7l8.5-15.7c0.7-1.3,0.7-2.9,0.1-4.2l-8-15.9
		c-0.9-1.9,0.7-4,2.7-3.6l17.6,3.3c1.5,0.3,3-0.2,4-1.2l12.7-12.6c1.5-1.5,4-0.6,4.3,1.5l2.3,17.7c0.2,1.5,1.1,2.8,2.4,3.4l15.9,8.2
		c1.9,1,1.8,3.7-0.1,4.6l-16.2,7.6c-1.4,0.6-2.3,1.9-2.5,3.4l-2.8,17.6C451.6,299,449,299.8,447.5,298.3z"/>
	<path d="M207.9,122.1c2.6,0,4.1-2.9,2.5-5l-13-17.4c-1.1-1.4-1.4-3.3-0.8-5l6.9-20.6c0.4-1.2,0-2.4-0.7-3.2s-2-1.2-3.2-0.7l-20.5,7
		c-1.7,0.6-3.6,0.3-5.1-0.8l-17.4-13c-2.1-1.5-5-0.1-5,2.5l0.3,21.7c0,1.8-0.8,3.5-2.3,4.5l-17.7,12.6c-1.7,1.2-1.7,3.4-0.4,4.7
		c0.3,0.3,0.8,0.6,1.3,0.8l20.7,6.4c0.9,0.3,1.6,0.7,2.3,1.4s1.1,1.4,1.4,2.2l6.5,20.8c0.2,0.5,0.4,0.9,0.8,1.3
		c1.3,1.3,3.6,1.2,4.7-0.4l12.5-17.8c1-1.5,2.8-2.4,4.6-2.3L207.9,122.1z M186.2,117c-3.4,0-6.6,1.6-8.6,4.4l-10.4,14.9l-5.4-17.4
		c-0.5-1.6-1.4-3-2.6-4.2c-1.2-1.2-2.6-2.1-4.2-2.6l-17.3-5.4l14.8-10.5c2.8-2,4.4-5.2,4.4-8.6l-0.2-18.2l14.6,10.9
		c2.7,2,6.3,2.6,9.5,1.5l17.2-5.8L192,93.2c-1.1,3.2-0.5,6.8,1.5,9.5l10.9,14.5L186.2,117z"/>
	<path d="M509.9,68.6c1.7,0,2.8-2,1.7-3.4l-8.8-11.8c-0.7-1-0.9-2.3-0.6-3.4l4.7-14c0.3-0.8,0-1.6-0.5-2.2s-1.3-0.8-2.2-0.5l-14,4.7
		c-1.2,0.4-2.4,0.2-3.4-0.5L475,28.7c-1.4-1-3.4,0-3.4,1.7l0.2,14.8c0,1.2-0.6,2.4-1.6,3.1l-12,8.5c-1.1,0.8-1.1,2.3-0.3,3.2
		c0.2,0.2,0.5,0.4,0.9,0.5l14.1,4.4c0.6,0.2,1.1,0.5,1.5,0.9c0.4,0.4,0.7,0.9,0.9,1.5l4.4,14.1c0.1,0.3,0.3,0.6,0.5,0.9
		c0.9,0.9,2.4,0.8,3.2-0.3l8.5-12.1c0.7-1,1.9-1.6,3.1-1.6L509.9,68.6z M495.1,65.1c-2.3,0-4.5,1.1-5.9,3l-7.1,10.1l-3.7-11.8
		c-0.3-1.1-0.9-2.1-1.7-2.9c-0.8-0.8-1.8-1.4-2.9-1.7l-11.8-3.7l10.1-7.1c1.9-1.3,3-3.5,3-5.8L475,32.7l9.9,7.4
		c1.9,1.4,4.3,1.8,6.5,1l11.7-4l-3.9,11.7c-0.7,2.2-0.3,4.6,1,6.4l7.4,9.9L495.1,65.1z"/>
</g>
</svg>
