<?xml version="1.0" encoding="utf-8"?>
<!-- Generator: Adobe Illustrator 21.1.0, SVG Export Plug-In . SVG Version: 6.00 Build 0)  -->
<svg version="1.1" id="Layer_4" xmlns="http://www.w3.org/2000/svg" xmlns:xlink="http://www.w3.org/1999/xlink" x="0px" y="0px"
	 viewBox="0 0 456.2 512" style="enable-background:new 0 0 456.2 512;" xml:space="preserve">
<g>
	<path d="M47.5,72.2c2.7,0,4.9-2.2,4.9-4.9V21.4c0-2.7-2.2-4.9-4.8-4.8c-1.4,0-2.6,0.7-3.4,1.5s-1.5,2.1-1.5,3.4v45.9
		C42.7,70.1,44.9,72.3,47.5,72.2z"/>
	<path d="M26.2,72.3c2.7,0,4.9-2.2,4.9-4.9l0.1-62.5c0-2.7-2.2-4.9-4.8-4.8c-1.4,0-2.5,0.5-3.4,1.5c-1,1-1.5,2.1-1.5,3.4l-0.1,62.5
		C21.3,70.1,23.5,72.3,26.2,72.3z"/>
	<path d="M4.9,72.5c2.6-0.1,4.8-2.3,4.9-4.9v-46c0-2.7-2.2-4.9-4.8-4.8c-1.4,0-2.5,0.5-3.4,1.5c-0.8,0.8-1.5,2.1-1.5,3.4v45.9
		C0.1,70.4,2.3,72.6,4.9,72.5z"/>
	<path d="M451.4,16.5c-1.4,0-2.6,0.7-3.4,1.5s-1.5,2.1-1.5,3.4v45.9c0,2.7,2.2,4.9,4.8,4.8c2.7,0,4.9-2.2,4.9-4.9V21.4
		C456.2,18.6,454,16.4,451.4,16.5z"/>
	<path d="M429.9,72.3c2.7,0,4.9-2.2,4.9-4.9l0.1-62.5c0-2.7-2.2-4.9-4.8-4.8c-1.4,0-2.5,0.5-3.4,1.5s-1.5,2.1-1.5,3.4l-0.1,62.5
		C425,70.1,427.2,72.3,429.9,72.3z"/>
	<path d="M408.6,72.5c2.6-0.1,4.8-2.3,4.9-4.9v-46c0-2.7-2.2-4.9-4.8-4.8c-1.4,0-2.5,0.5-3.4,1.5c-0.8,0.8-1.5,2.1-1.5,3.4v45.9
		C403.8,70.4,406,72.6,408.6,72.5z"/>
	<g>
		<path d="M404,285.8c0,46.7-18.2,90.4-51.6,123.2s-77.6,51-124.4,51c-46.7,0-91-18.2-124.4-51S52,332.5,52,285.8V95.9H0v190.4
			C0,346.9,23.6,403.5,66.8,446s100.6,66.1,161.2,66.1c60.5,0,117.9-23.6,161.2-66.1c43.2-42.5,66.8-99.1,66.8-159.7V95.9h-52.1
			v189.9H404z"/>
	</g>
</g>
</svg>
