<?xml version="1.0" encoding="utf-8"?>
<!-- Generator: Adobe Illustrator 21.1.0, SVG Export Plug-In . SVG Version: 6.00 Build 0)  -->
<svg version="1.1" id="Layer_2" xmlns="http://www.w3.org/2000/svg" xmlns:xlink="http://www.w3.org/1999/xlink" x="0px" y="0px"
	 viewBox="0 0 456 512" style="enable-background:new 0 0 456 512;" xml:space="preserve">
<g id="_x35_2_5_">
	<g>
		<path d="M0.2,0v86.4h52V0H0.2z M404,0v86.4h52.1V0H404z M404,125.9v159.9c0,46.7-18.2,90.4-51.6,123.2s-77.6,51-124.4,51
			c-46.7,0-91-18.2-124.4-51S52,332.5,52,285.8V125.9H0v160.4C0,346.9,23.6,403.5,66.8,446s100.6,66.1,161.2,66.1
			c60.5,0,117.9-23.6,161.2-66.1c43.2-42.5,66.8-99.1,66.8-159.7V125.9H404z"/>
	</g>
</g>
</svg>
