<?xml version="1.0" encoding="utf-8"?>
<!-- Generator: Adobe Illustrator 21.1.0, SVG Export Plug-In . SVG Version: 6.00 Build 0)  -->
<svg version="1.1" id="Layer_1" xmlns="http://www.w3.org/2000/svg" xmlns:xlink="http://www.w3.org/1999/xlink" x="0px" y="0px"
	 viewBox="0 0 495.6 512" style="enable-background:new 0 0 495.6 512;" xml:space="preserve">
<g>
	<g>
		<path d="M273.1,217.7v-18.8l-51.9,0.2V218l-164.4-1L0,288.8l56.8,70.8h439.5V217.7H273.1z M443.3,307.8H87.8l-14.9-19.6l14.9-19.4
			h355.6L443.3,307.8L443.3,307.8z M495.4,106.9l-58.1-71.2H273V9.8c0-4.9-11.5-9-25.9-9c-14.3,0-25.9,4.1-25.9,9v25.9H0.1v142.6
			h436.3L495.4,106.9z M247.1,5.8c11.6,0,20.9,1.8,20.9,4s-9.4,4-20.9,4s-20.9-1.8-20.9-4S235.6,5.8,247.1,5.8z M406.5,126.4H52.9
			v-39h353.6l15,19.5C421.5,107,406.5,126.3,406.5,126.4z M221.2,510.9H273l0.1-129.5l-51.9,0.1L221.2,510.9L221.2,510.9z"/>
	</g>
</g>
</svg>
