<?xml version="1.0" encoding="utf-8"?>
<!-- Generator: Adobe Illustrator 21.1.0, SVG Export Plug-In . SVG Version: 6.00 Build 0)  -->
<svg version="1.1" id="Layer_1" xmlns="http://www.w3.org/2000/svg" xmlns:xlink="http://www.w3.org/1999/xlink" x="0px" y="0px"
	 viewBox="0 0 529 512" style="enable-background:new 0 0 529 512;" xml:space="preserve">
<g id="Layer_2">
	<path d="M186,54l160-41l183,57v442l-183-55l-160,43L0,440V0L186,54z M52,69v334l136,43l159-41l132,37l-2-334L344,67l-158,40L52,69z
		"/>
	<path d="M314.5,189.6c0.5-0.5,1-0.8,1.2-0.8l0.4,1.5h-0.8c-0.5,0.2-0.8,0.4-0.8,0.4s-0.1,0-0.4,0s-0.4-0.1-0.4-0.4
		C313.6,189.8,313.9,189.6,314.5,189.6z M313.9,197.5h0.9v-0.4c0.9-0.8,1.7-1.2,2.2-1.2h0.5l0.4-0.4h0.5l0.4,0.4h0.5
		c0.6,0,1.2-0.1,1.8-0.4c0.3,0,0.7-0.1,1.3-0.4l0.9-0.8h0.4c0.6-0.5,1.2-0.8,1.8-0.8l0.9,0.8c0.3,0,0.5,0.1,0.4,0.4
		c0,0.5-0.5,1-1.4,1.2l-0.9,0.4l-0.9,0.4c-0.3,0-0.6,0-0.9,0c-0.3,0.3-0.6,0.4-0.9,0.4s-0.6,0.1-0.9,0.4c-0.9,0-1.5,0.1-1.8,0.4
		l-0.5,0.4l-0.4,0.4c-0.3,0-0.6,0.1-0.9,0.4l-0.5,0.4l-0.4,0.4c-1.2,0.3-2.3,1-3.2,2c-1.2,1.4-1.8,2.6-1.8,3.7
		c0,0.5,0.3,1.1,0.9,1.6h0.5v0.4c0.3,0.3,0.6,0.4,0.9,0.4v0.4h-3.1c0-0.3-0.1-0.4-0.5-0.4h-0.4h-0.5v-0.4v-0.4
		c0-0.3-0.1-0.4-0.4-0.4c0,0-0.5,0-1.4,0c-0.3-0.3-0.4-0.5-0.4-0.8s0.1-0.5,0.4-0.8c0.6-0.3,0.9-0.5,0.9-0.8v-0.8
		c0-0.3,0.2-0.4,0.5-0.4l0.4-0.4h0.5h0.4v-0.4l-0.4-0.4c-0.3,0-0.5-0.1-0.5-0.4l1.4-0.8c0.3-0.3,0.4-0.5,0.4-0.8
		c0.3,0,0.5-0.3,0.5-0.8l-0.5-0.4v-0.4h0.5h0.4l0.4-0.4c0.3,0,0.6,0,0.9,0C313.7,197.9,313.9,197.8,313.9,197.5z M316.8,210.1
		c0,0.3-0.2,0.3-0.4,0c-0.3,0-0.6-0.1-0.9-0.4c-0.6,0-0.9,0-0.9,0s0-0.1,0-0.4c0-0.5,0.4-0.7,1.3-0.4l0.5,0.4
		C316.7,209.5,316.9,209.8,316.8,210.1z M310.8,190.7v-0.4h0.8h0.4h0.4c0.3,0,0.5,0,0.8,0v0.4v0.4c-0.3,0-0.6,0-0.8,0H312l0.4,0.8
		c-0.3,0-0.7,0-1.2,0h-0.8C310.3,191.4,310.5,191,310.8,190.7z M309.1,192.3h-0.4l-0.4,0.4h-0.4l-0.4-0.4c0,0.3-0.1,0.4-0.4,0.4
		h-0.4v-0.4c0-0.2,0.3-0.4,0.8-0.4l0.4-0.4c0.3,0,0.4,0,0.4,0c0.5,0,1,0.1,1.2,0.4C309.3,191.9,309.1,192,309.1,192.3z M305,190.3
		h0.4h1.6c-0.3-0.3-0.5-0.4-0.8-0.4v-0.4c0.3,0,0.5,0,0.8,0l0.4-0.4l0.4-0.4h0.4c0.3-0.5,0.5-0.8,0.8-0.8v0.4v0.4v0.4l-0.8,0.4h-0.4
		c-0.3,0.2-0.4,0.5-0.4,0.8c0.5,0,1.1,0.1,1.6,0.4h-0.4h-0.4c-0.3,0-0.6,0.1-0.8,0.4c-0.3,0-0.6,0-0.8,0h-0.8
		c-0.3-0.3-0.5-0.4-0.8-0.4L305,190.3L305,190.3z M302.9,211.3c0.3-0.3,0.5-0.4,0.5-0.4l0.4-0.4c0.3,0,0.6,0.1,0.9,0.4
		c0.3,0,0.5,0.1,0.5,0.4v0.4h-0.5v0.4h-0.9c-0.6,0-0.9-0.1-0.9-0.4V211.3z M295.6,190.7c0.3,0,0.7-0.1,1.2-0.4h0.4
		c0.3,0,0.7,0.1,1.2,0.4l0.4,0.4h0.4h0.4l0.4-0.4c0.3-0.2,0.6-0.4,0.8-0.4l0.4,0.4h0.4v0.4v0.4h-0.4h-0.4c0,0.3-0.1,0.3-0.4,0v0.4
		H300h-0.8v0.4l-0.4,0.4h-0.4H298c-0.6,0-0.8-0.3-0.8-0.8c0.1,0,0.3,0,0.4,0l-0.4-0.4h0.4v-0.4h-0.4c0,0-0.1,0-0.4,0H296
		c-0.3,0.2-0.6,0.4-0.8,0.4h-0.4l-0.4-0.4C294.6,190.9,295,190.7,295.6,190.7z M268,191.9c0,0.2,0.1,0.4,0.4,0.4v-0.4h0.8l-0.4-0.4
		h1.2c0,0.3,0.1,0.4,0.4,0.4l0.8,0.4c0.3,0,0.5-0.1,0.8-0.4v-0.4h0.8v0.4c0,0.1,0,0.3,0,0.4h0.4h0.4v-0.4h1.2c0.3,0,0.7,0.1,1.2,0.4
		c0.3,0.3,0.4,0.5,0.4,0.8l-0.4,0.4h-0.4c-0.3,0.5-0.6,0.8-0.8,0.8c-0.8,0.5-1.5,0.8-2.1,0.8c-0.6,0-1-0.2-1.2-0.8h-2
		c-0.3,0-0.4-0.1-0.4-0.4h0.4l0.4-0.4c-0.1,0-0.2,0-0.4,0h-0.4c0,0-0.1,0-0.4,0h-0.3H268c-0.3,0-0.3-0.1,0-0.4
		c-0.6-0.2-0.8-0.6-0.8-1.2L268,191.9L268,191.9z M259.8,193.8l0.4-0.4c0.3,0,0.5,0,0.8,0c0.4,0,0.8,0,1.2,0v0.4
		c0,0.3,0.1,0.4,0.4,0.4h0.4c0-0.5,0.1-0.8,0.4-0.8c0.5,0,0.9,0.2,1.2,0.8v0.4l0.4,0.4c-0.3-0.8-0.4-1.3-0.4-1.5
		c0-0.5,0.3-0.8,0.8-0.8c0.3,0,0.5,0.1,0.8,0.4l0.8,0.4v0.4l-0.4,0.4h0.4c0-0.2,0.1-0.4,0.4-0.4s0.4,0.1,0.4,0.4v0.4l0.4,0.4
		c0.3,0,0.8,0.1,1.6,0.4c0.5,0.5,1,0.9,1.2,1.2c0.1,0,0.3,0,0.4,0v0.4h1.2c0,0.5,0.1,0.9,0.4,1.2h0.4c0.3,0,0.4,0.1,0.4,0.4
		c-0.3,0-0.4,0.1-0.4,0.4h-0.8c-0.6,0.5-1,0.8-1.2,0.8c0-0.2,0.1-0.5,0.4-0.8c-0.3,0-0.6,0-0.8,0h-0.8h-0.4l0.4-0.4v-0.4
		c0.3,0,0.4-0.1,0.4-0.4c-0.3,0-0.4-0.1-0.4-0.4l-0.4-0.4v-0.4h0.4c-0.3,0-0.6-0.1-0.8-0.4c-0.6,0-1,0.3-1.2,0.8
		c-0.3,0.3-0.4,0.6-0.4,1.2v0.4l-0.4,0.4H267v0.4c-0.3,0-0.6,0.2-0.8,0.8v0.8c0,0.2-0.1,0.4-0.4,0.4l-0.8-0.4l-0.4-0.4h-0.4
		c-0.8-0.5-1.2-1-1.2-1.5c0.5,0,1.1,0,1.6,0l0.4-0.4h-0.4h-0.4h-0.4c-0.3,0-0.5,0-0.8,0s-0.4-0.3-0.4-0.8l0.4-0.4h0.4h0.4
		c0.3,0,0.5-0.1,0.8-0.4l0.8-0.4h-0.8h-0.4c0-0.2-0.1-0.4-0.4-0.4l-0.4,0.4c-0.3,0.5-0.6,0.8-0.8,0.8c-0.6,0-1-0.2-1.2-0.8h0.4
		c-0.8-0.5-1.2-1-1.2-1.5l-0.4-0.4l-0.4-0.4L259.8,193.8L259.8,193.8z M259.8,195.7l0.4,0.4c0.3,0.3,0.4,0.4,0.4,0.4
		s0.1,0.3,0.4,0.8c-0.6-0.2-1-0.5-1.2-0.8C259.5,196,259.5,195.7,259.8,195.7z M240.3,232.5v-0.4c0.3-0.3,0.6-0.4,0.9-0.4
		c0,0.3-0.2,0.5-0.4,0.8c0,0.3,0,0.4,0,0.4h0.4v0.4h0.5v-0.4v-0.4h0.4v-0.4v-0.4l0.5-0.4h0.4h0.9h0.4v0.4c0,0.3-0.2,0.4-0.4,0.4v0.4
		c-0.3,0-0.4,0.1-0.4,0.4h2.3c0.3,0.6,0.3,1.1,0,1.6h-0.5l-0.4,0.4v0.4l-0.5,0.4h0.5h0.4h0.5c0,0.3,0.2,0.5,0.4,0.8v0.4
		c0.3,0.3,0.5,0.6,0.5,0.8h0.4l0.5,0.8c0.6,0.3,0.9,0.5,0.9,0.8v0.4v0.4h0.4c0,0.3-0.2,0.4-0.4,0.4v0.4l0.4-0.4h0.5
		c0.6,0,0.9,0.3,0.9,0.8c0,0.3-0.2,0.6-0.5,0.8l-0.4,0.4c-0.3,0-0.5,0.1-0.5,0.4c0.3,0,0.6,0,0.9,0v0.4c-0.3,0.3-0.8,0.4-1.4,0.4
		H247c-0.3,0-0.4,0.1-0.4,0.4h-0.9c-0.3,0-0.6,0-0.9,0h-0.5h-0.4l-0.4,0.4H243c-0.3,0-0.6,0.1-0.9,0.4c0-0.3,0.3-0.6,0.9-0.8
		l0.5-0.8h0.4h0.4c0.3-0.3,0.5-0.5,0.5-0.8c-0.3,0.3-0.6,0.4-0.9,0.4l-0.4-0.4H243h-0.4h-0.5c0-0.3,0.3-0.5,0.9-0.8
		c0.3-0.3,0.5-0.5,0.5-0.8v-0.4l-0.5-0.4c1.2,0,1.8-0.3,1.8-0.8v-0.8h-0.5c-0.3,0-0.4-0.1-0.4-0.4v-0.4h-0.4H243h-0.9l0.5-0.4v-0.4
		v-0.4v-0.4l-0.5-0.4v0.4h-0.4v-0.4c0-0.3,0.1-0.4,0.4-0.4v-0.4h-0.4c-0.3,0-0.5-0.1-0.5-0.4l0.5-0.4v-0.4c-0.6,0-0.9-0.2-0.9-0.8
		c0,0-0.2,0-0.5,0V232.5z M242.6,238.9c0-0.3,0.1-0.4,0.4-0.4v0.4H242.6z M238.5,237.8c0-0.3,0.2-0.5,0.5-0.8h0.4h0.9
		c0.6,0,0.9,0.1,0.9,0.4c0.3,0.3,0.5,0.7,0.5,1.2l-0.5,0.4v1.6v0.4c0,0.3-0.2,0.5-0.4,0.8h-0.5h-0.4c-0.3,0-0.6,0.1-0.9,0.4
		l-0.5,0.4h-0.4c0,0.3,0,0.4,0,0.4s-0.2,0-0.5,0s-0.4-0.1-0.4-0.4c-0.3-0.3-0.5-0.5-0.5-0.8s0.2-0.5,0.5-0.8l0.4-0.4
		c0-0.3,0-0.5,0-0.8c-0.3-0.3-0.4-0.5-0.4-0.8v-0.4h0.4h0.5c0.3,0,0.4-0.1,0.4-0.4V237.8z M145.8,188c0.8-0.3,1.5-0.4,2-0.4h0.8h0.4
		v-0.4c0.3,0,0.5,0,0.8,0v-0.4l0.4-0.4c0.3,0,0.8,0.1,1.6,0.4l0.4,0.4h0.4c0.5-1,1.2-1.5,2-1.5h0.4h0.4c0-0.3,0.3-0.4,0.8-0.4h4
		c0-0.2,0.1-0.4,0.4-0.4c0.3,0,0.5,0,0.8,0l0.4,0.4c0.3,0,0.5-0.1,0.8-0.4h0.4h0.4h0.4h0.4h1.2h0.8c0.5,0,0.9,0,1.2,0
		c1.3,0,2.1,0.3,2.4,0.8c-0.1,0.1-0.2,0.2-0.4,0.2l2.3-0.6c0.3,0,0.5,0.1,0.8,0.4h0.4v0.4c0.3,0.3,0.5,0.4,0.8,0.4h0.4h0.4
		c0.5,0,0.8,0.3,0.8,0.8l-0.4,0.4h-0.5c-0.5,0.5-1.3,0.8-2.4,0.8h-0.8l-0.4,0.4c-0.5,0-1.1,0.1-1.6,0.4c0.3,0.3,0.7,0.3,1.2,0h0.8
		c0.3,0,0.5,0,0.8,0c-0.3,0.3-0.9,0.6-2,1.2c-0.3,0-0.7,0.1-1.2,0.4l-0.4,0.1H168c-0.5,0.2-1.2,0.6-2,1.1l-0.4,1.2
		c-0.5,0.2-0.8,0.5-0.8,0.7c-0.3,0-0.7,0-1.2,0h-0.4h-0.4H162h-0.4c-0.5,0.3-0.9,0.5-1.2,0.8h1.2c0,0.3-0.1,0.5-0.4,0.8h-0.8
		c0.5,0.3,0.9,0.5,1.2,0.8c-0.3,0.3-0.5,0.5-0.8,0.8l-0.4,0.8c-0.3,0-0.4,0.1-0.4,0.4h-1.6v0.4c0,0.5-0.3,0.8-0.8,0.8l-0.4,0.4
		c-0.3,0.2-0.4,0.5-0.4,0.8h1.2c0.3,0,0.4,0.1,0.4,0.4c0,0.3-0.4,0.5-1.2,0.8s-1.3,0.4-1.6,0.4h-0.4c-0.3,0-0.4-0.1-0.4-0.4h-0.4
		h-2.8h-0.2c-0.3,0-0.5,0-0.8,0c-0.5,0-1.6-0.2-3.2-0.8v0.4L147,202c-0.3,0-0.4-0.1-0.4-0.4c0-0.8,0.3-1.2,0.8-1.2h0.8h0.4l0.4-0.4
		v-0.4h-0.4c-0.3-0.2-0.4-0.5-0.4-0.8v-0.4h0.4h0.4c0.5,0,0.9,0.1,1.2,0.4l0.4,0.4l0.4,0.4h0.8c-0.3-0.2-0.4-0.5-0.4-0.8h-0.8
		c-0.3-0.5-0.4-0.9-0.4-1.1h-0.4h-0.4h-0.8v-0.4c0.3-0.5,0.7-0.9,1.2-1.1c0.3,0,0.5-0.1,0.8-0.4h0.4c0.5,0,0.8-0.2,0.8-0.8
		c0-0.5-0.4-0.9-1.2-1.1h-0.4l-0.4-0.4c-0.3,0-0.4-0.1-0.4-0.4l0.4-0.4h0.4c-0.3,0-0.4-0.1-0.4-0.4h0.4h0.4h0.4
		c0.5,0,0.9,0.1,1.2,0.4h0.4l0.4,0.4v0.4c0.5,0.2,0.9,0.4,1.2,0.4l-0.4-0.4v-0.4l-0.8-0.4v-0.4h0.4h1.6l0.4-0.4h0.8
		c0.3-0.3,0.4-0.5,0.4-0.8h-0.4c-0.5,0.5-1.5,0.8-2.8,0.8H153h-0.4h-0.4h-0.4h-0.4c-0.3,0-0.5,0-0.8,0c-0.5-0.3-0.7-0.5-0.4-0.8
		h-0.4l-0.8,0.8c-0.5,0-0.9-0.1-1.2-0.4c-0.5-0.2-0.8-0.5-0.8-0.8c0.3-0.2,0.5-0.4,0.8-0.4h-0.4H147c-0.3,0-0.5,0-0.8,0
		c0.3-0.3,0.5-0.5,0.8-0.8c-0.3,0.2-0.5,0.4-0.8,0.4l-0.4-0.4c0.3-0.3,0.5-0.5,0.8-0.8h-0.8c-0.3,0.3-0.5,0.4-0.8,0.4h-0.8
		C144.2,188.6,144.8,188.2,145.8,188z M166.1,213.2l0.8,0.4c0.3,0.3,0.7,0.4,1.2,0.4v0.8h0.4c0.5,0,0.9,0.3,1.2,0.8h-0.4h-0.4
		c-0.3,0-0.4,0.1-0.4,0.4c0.3,0.3,0.5,0.4,0.8,0.4h0.4h0.4c-0.8,0.5-1.2,0.9-1.2,1.2c0.3,0.3,0.5,0.4,0.8,0.4c0,0.3,0.3,0.5,0.8,0.8
		c0.3,0.3,0.7,0.4,1.2,0.4c0,0.8,0.3,1.1,0.8,1.1h0.4h0.4l0.4,0.4h0.4c0.8,0,1.2,0.4,1.2,1.1l-0.4,0.4c-0.3,0-0.5,0-0.8,0v0.4v0.4
		c-0.3,0.3-0.5,0.4-0.8,0.4c0,0.3,0,0.5,0,0.8h-0.4c-0.5,0-1.1-0.4-1.6-1.2l-0.8-0.4V222c-0.5-0.3-0.9-0.4-1.2-0.4h-0.4v0.4
		c0.1,0,0.3,0,0.4,0v0.4c-0.3,0.3-0.4,0.3-0.4,0v0.8h0.4c0,0.3,0.1,0.5,0.4,0.8c0,0.3,0.1,0.5,0.4,0.8h0.4h0.4v0.4h0.8
		c0,0.3,0,0.5,0,0.8l0.4,0.4v0.4c0,0.3,0,0.5,0,0.8v0.4l-0.4,0.4c-0.3,0-0.8-0.1-1.6-0.4c-0.8-0.5-1.3-0.9-1.6-1.2h-0.4
		c0,0.3,0.1,0.4,0.4,0.4l0.4,0.4l0.4,0.4c0.8,0.5,1.2,1,1.2,1.5v0.4h-0.4v-0.4h-0.4c-0.3,0-0.5-0.1-0.8-0.4h-0.5
		c-0.5-0.2-0.9-0.4-1.2-0.4c-0.3-0.3-0.5-0.4-0.8-0.4l-0.8-0.4h-0.4c-0.5-0.3-0.7-0.6-0.4-1.2c-0.5-0.2-1-0.5-1.6-0.8l-0.4-0.4
		l-0.8-0.8l-0.4,0.4c0,0.3-0.1,0.4-0.4,0.4h-0.4v-0.4c-0.3,0-0.5,0.1-0.8,0.4h-0.4c-0.3,0-0.5,0-0.8,0c-0.5-0.3-0.8-0.5-0.8-0.8
		s0.1-0.5,0.4-0.8c0.5-0.3,0.9-0.4,1.2-0.4h1.2c0.3,0,0.5,0,0.8,0l0.8-0.4v-0.4l-0.4-0.4c0-0.2,0.1-0.5,0.4-0.8h0.4h0.4v-0.4
		l0.4-0.4l0.4-0.8c0-0.5-0.4-1.1-1.2-1.9c-0.8-0.8-1.5-1.2-2-1.2l-0.4,0.4c-0.3,0.3-0.5,0.4-0.8,0.4v-0.4V217l0.4-0.4h0.4l-0.4-0.4
		c-0.5-0.2-0.8-0.5-0.8-0.8c-0.8-0.5-1.3-0.8-1.6-0.8l-0.8,0.4c-0.3,0.5-0.5,0.8-0.8,0.8s-0.4-0.1-0.4-0.4V215c-0.3,0-1,0-2.4,0
		h-0.8h-0.8c-0.5,0-0.9,0-1.2,0s-0.5-0.1-0.8-0.4l-0.4-0.4h-1.6c0-0.3-0.1-0.4-0.4-0.4c-0.3-0.2-0.4-0.5-0.4-0.8c0.3,0,0.5,0,0.8,0
		h0.4h0.4v-0.4c-0.3-0.2-0.9-0.4-2-0.4c-0.3-0.5-0.4-0.9-0.4-1.2c0-0.8,0.1-1.3,0.4-1.5l0.4-0.4V209v-0.4c0.8-1,1.7-1.5,2.8-1.5
		l1.2,0.8l-0.4,0.4l-0.4,0.4c-0.5,0.2-0.8,0.5-0.8,0.8c0,0.5,0.1,0.8,0.4,0.8v0.4v0.4c0,0.2,0.1,0.4,0.4,0.4l0.4-0.4
		c0.3,0,0.4-0.1,0.4-0.4l-0.4-0.4v-0.4v-0.4c0-0.5,0.4-1,1.2-1.5c0.8,0,1.6,0,2.4,0c0.5,0,0.9,0.3,1.2,0.8c0.3,0.2,0.4,0.6,0.4,1.1
		v0.4c-0.3,0.2-0.3,0.4,0,0.4l0.4-0.4h0.4h0.4v0.4h0.4c0.3,0,0.4-0.1,0.4-0.4l0.8-0.8c0.5,0,1,0.1,1.6,0.4c0.5,0.3,0.9,0.4,1.2,0.4
		s0.4,0.2,0.4,0.8h0.4v0.4c0.5,0.5,0.9,0.8,1.2,0.8h1.2h0.4c0.5,0.3,0.8,0.4,0.8,0.4s0,0.1,0,0.4L166.1,213.2z M158.9,227
		c-0.3,0.3-0.4,0.4-0.4,0.4s-0.1-0.1-0.4-0.4h0.4H158.9z M159.3,219.3c0-0.8,0.3-1,0.8-0.8c0.8,0,1.2,0.3,1.2,0.8
		c0,0.3-0.1,0.5-0.4,0.8c-0.3,0-0.5,0-0.8,0C159.6,220.1,159.3,219.8,159.3,219.3z M161.7,219v-0.4h0.4h0.4l0.4,0.4v0.4
		c-0.3,0-0.5,0-0.8,0C161.8,219.3,161.7,219.2,161.7,219z M157.7,216.3c0,0.5-0.3,0.8-0.8,0.8l0.4-0.4L157.7,216.3z M154.5,243.4
		c0.3,0,0.5,0,0.8,0l0.4,0.4h-0.4h-0.4h-0.4L154.5,243.4L154.5,243.4z M153.7,228.9c-0.5,0.3-0.9,0.4-1.2,0.4v-0.4l0.4-0.4v-0.4
		c0.3-0.2,0.4-0.4,0.4-0.4c0.3,0,0.6,0,1.2,0C154.3,228.3,154,228.6,153.7,228.9z M154.9,227h-0.8c-0.8-0.8-1.3-1.2-1.6-1.2
		c0,0.3-0.1,0.7-0.4,1.2c-0.5,0.3-0.9,0.4-1.2,0.4c0,0.3-0.1,0.4-0.4,0.4V227c-0.3-0.3-0.5-0.4-0.8-0.4l-0.3,0.4H149v-0.8h0.4
		c0.3-0.3,0.4-0.5,0.4-0.8V225c0-0.2,0-0.5,0-0.8c0-0.2,0.1-0.5,0.4-0.8c0.3-0.5,0.5-0.8,0.8-0.8c0,0.3,0.1,0.4,0.4,0.4v0.4v0.4
		l0.4-0.4c0.3,0.3,0.5,0.4,0.8,0.4l0.4,0.4c0.8,0.3,1.3,0.5,1.6,0.8v0.4l0.4,0.4l0.4,0.4h0.8C155.6,226.7,155.2,227,154.9,227z
		 M153,223.2c-0.3,0-0.5-0.1-0.8-0.4v-0.4h0.4v0.4L153,223.2z M156.1,228.9c0.5,0,0.8,0.1,0.8,0.4v0.4c-0.3,0.3-0.4,0.4-0.4,0.4
		c-0.3,0-0.5-0.3-0.8-0.8C155.7,229,155.9,228.9,156.1,228.9z M142.6,209.8c0,0.3-0.3,0.6-0.8,1.2H141c0-0.5,0-0.9,0-1.2
		c-0.3-0.2-0.4-0.5-0.4-0.8v-0.4v-0.4v-0.8h0.8c-0.3,0-0.4-0.1-0.4-0.4h0.4v-0.4c0.3-0.2,0.4-0.4,0.4-0.4s0.1,0,0.4,0
		c0.3,0,0.5,0.1,0.8,0.4h0.8c0.8,0.3,1.5,0.4,2,0.4v0.4l-0.8,0.4l-0.4,0.8l-0.4,0.4c-0.3,0.3-0.7,0.4-1.2,0.4h-0.4h-0.4v0.4
		L142.6,209.8L142.6,209.8z M139.1,211.7h-0.4h-0.4v0.4h-0.4v0.4c-0.3,0-0.5,0-0.8,0v-0.4v-0.4c-0.5-0.3-1.1-0.5-1.6-0.8l-0.8-0.4
		c-0.5-0.2-0.8-0.5-0.8-0.8V209l0.8,0.4c0.3,0,0.5,0,0.8,0h0.4v-0.8h-0.4h-0.4c-0.3,0-0.4-0.1-0.4-0.4v-0.4h0.4
		c0.3-0.3,0.5-0.4,0.8-0.4l0.8-0.4l0.4,0.4h1.6c0.3,0,0.4,0.1,0.4,0.4c0,0.3-0.1,0.5-0.4,0.8l-0.8,0.4h0.8h0.4v0.4c0,0,0,0.1,0,0.4
		h0.4h0.4c-0.3,1-0.4,1.7-0.4,1.9L139.1,211.7L139.1,211.7z M139.5,216.3c0.8,0.5,1.2,0.9,1.2,1.2h-0.4v0.4h-0.4
		c-0.3,0-0.9-0.1-2-0.4l-1.2-0.4c0-0.2,0.1-0.4,0.4-0.4c0.3,0,0.4,0,0.4,0l0.4-0.4v-0.4c0-0.3,0.3-0.4,0.8-0.4L139.5,216.3z
		 M133.9,216.3v0.4h0.4c-0.3,0.5-0.9,0.8-2,0.8c-0.3,0-0.5-0.1-0.8-0.4c-0.3,0-0.5,0-0.8,0c-0.5-0.5-0.9-0.8-1.2-0.8h-0.4l-0.4,0.4
		c0,0.3-0.1,0.4-0.4,0.4h-0.4l-0.8,0.4c-0.5,0-0.9,0.1-1.2,0.4h-3.2c-0.3,0-0.4-0.1-0.4-0.4V217l-0.4-0.4h-0.8h-0.4h-0.3
		c-0.5,0-0.9-0.1-1.2-0.4c-0.3-0.2-0.4-0.5-0.4-0.8l-0.4-0.4c0.8-0.5,2-0.8,3.6-0.8c0.3,0,0.5,0,0.8,0h0.4l-0.4-0.4h-0.4h-2H120
		h-0.4c-0.3,0-0.5,0-0.8,0c-0.8,0-1.2-0.2-1.2-0.8c0-0.2,0.1-0.5,0.4-0.7c-0.3,0-0.5-0.1-0.8-0.4l-0.4-0.4c0-1,0.5-1.8,1.6-2.3
		s2-0.8,2.8-0.8c0.3,0,0.4,0.1,0.4,0.4l0.4,0.4h0.4l0.4-0.4c0.8,0,1.3,0.4,1.6,1.2c0.5,0,0.9-0.1,1.2-0.4v-0.4h0.4
		c0.8,0,1.3,0.2,1.6,0.8c0,0.2,0,0.5,0,0.8v0.4c0,0.3,0.1,0.4,0.4,0.4h0.4v-0.4c0-0.2-0.1-0.6-0.4-1.1c-0.3-0.8-0.4-1.3-0.4-1.5h0.4
		c0-0.3,0.1-0.4,0.4-0.4h0.4v0.4c0.3,0,0.4-0.1,0.4-0.4v-0.4c0-0.5,0.4-0.8,1.2-0.8s1.2,0.4,1.2,1.1c0,0.3-0.1,0.4-0.4,0.4l-0.4,0.8
		c0,0.2,0,0.5,0,0.8c0.3,0.2,0.4,0.5,0.4,0.8c0.3,0.8,0.4,1.3,0.4,1.5c0,0.5,0.5,1,1.6,1.5l0.8,0.4l0.4,0.4c0.5,0.3,0.9,0.4,1.2,0.4
		c-0.5,0.3-0.8,0.4-0.8,0.4s-0.3,0-0.8,0c-0.3,0-0.4,0.1-0.4,0.4v0.4H133.9z M134.7,202.5c-0.3,0-0.5-0.1-0.8-0.4v-0.4
		c0.3,0,0.5,0.1,0.8,0.4c0.5,0.2,0.9,0.4,1.2,0.4v-0.8c-0.8,0-1.2-0.2-1.2-0.8h0.4h0.4h0.8c0.3,0.3,0.5,0.4,0.8,0.4l0.4-0.4
		c0.5,0,0.8,0.4,0.8,1.2v0.4v0.8c-0.3,0.5-0.4,0.9-0.4,1.1l-0.8,0.4h-0.4h-0.4h-0.4c-0.3,0-0.4-0.1-0.4-0.4V204v-0.4
		c0-0.2,0.3-0.4,0.8-0.4h0.4l-0.4-0.4c-0.3,0-0.8,0.1-1.6,0.4c-0.5,0-0.9,0-1.2,0h-0.4v-0.4h-0.4l-0.4-0.4h-0.4l-0.4-0.4v-0.4v-0.4
		c0-0.1,0-0.3,0-0.4h0.4c0.3,0,0.5,0.1,0.8,0.4l0.4,0.4v0.4C133.6,202.6,134.2,202.8,134.7,202.5z M133.1,198.3l0.4-0.4h0.4h0.4h0.4
		v0.4h-1.2H133.1z M131.9,203.6h0.4v0.4c0,0.3-0.1,0.4-0.4,0.4v0.4h-0.4c-0.3-0.3-0.4-0.4-0.4-0.4s-0.1,0-0.4,0
		C131,204.2,131.4,203.9,131.9,203.6z M139.5,204.8c0-0.3,0.1-0.5,0.4-0.8h0.4v-0.4l0.4-0.4h0.4c0.3,0,0.7,0.1,1.2,0.4
		c0.3,0.3,0.4,0.4,0.4,0.4s0,0.1,0,0.4c0,0.8-0.3,1.2-0.8,1.2L139.5,204.8z M144.6,205.2c-0.8-0.2-1.2-0.6-1.2-1.1l0.4-0.4h0.4
		c-0.3-0.2-0.5-0.6-0.8-1.1l-0.4-0.4l-0.4-0.4c-0.3,0-0.5,0-0.8,0s-0.8-0.1-1.6-0.4c-0.5-0.3-0.8-0.5-0.8-0.8s0.1-0.4,0.4-0.4h0.4
		c0.5,0,1.2,0.1,2,0.4l0.4,0.4c0.3,0.3,0.5,0.4,0.8,0.4c0.5,0,0.8-0.1,0.8-0.4h0.8c-0.3,0.5-0.1,0.8,0.4,0.8h0.4h0.4l0.4,0.4H145
		c0,0.5,0.3,0.8,0.8,0.8h0.4c0.3,0,0.4,0.1,0.4,0.4v0.4l0.4-0.4l0.4,0.4h0.8c0.5,0.3,0.9,0.4,1.2,0.4c0.8,0,1.6-0.2,2.4-0.8h0.4h0.4
		c0.5-0.2,0.9-0.4,1.2-0.4c1.6,0,2.5,0.4,2.8,1.1l-0.4,0.4h0.4c0,0.8-0.3,1.2-0.8,1.2c-0.3,0-0.7,0.1-1.2,0.4h-0.4h-0.4
		c-0.3,0-0.4-0.1-0.4-0.4c-0.3,0-0.4-0.1-0.4-0.4l-0.8,0.4h-2.8c-0.5,0.3-0.9,0.3-1.2,0c-0.5,0-0.8-0.1-0.8-0.4H147
		c0,0.3-0.1,0.4-0.4,0.4l-0.4,0.4C145.7,205.9,145.1,205.7,144.6,205.2z M139.9,198.7c0.3,0,0.7,0,1.2,0l0.8-0.4h0.4h0.4v0.8
		c0,0.2-0.1,0.4-0.4,0.4C142,199.4,141.2,199.2,139.9,198.7z M155.7,208.6v-0.4c-0.3,0-0.4-0.1-0.4-0.4l0.4-0.4h0.4h0.4h0.4
		c0.3,0.3,0.5,0.4,0.8,0.4c0.5,0,1,0.1,1.6,0.4l0.4,0.4h0.4c0,0.5-0.1,0.8-0.4,0.8c-0.3,0-0.5,0-0.8,0l-0.4-0.4l-0.8,0.4
		c-0.3,0-0.4,0-0.4,0c-1,0-1.5-0.3-1.2-0.8H155.7z M140.6,192.6c0.3,0,0.4,0.1,0.4,0.4c0.3,0,0.4,0,0.4,0s0.1,0,0.4,0v-0.4H141
		c-0.3-0.3-0.4-0.5-0.4-0.8v-0.4h0.4h0.4l0.4,0.4h0.4h0.4v-0.4h-0.4h-0.4c-0.3,0-0.4-0.1-0.4-0.4H141v-0.4c0.5-0.2,1-0.4,1.6-0.4
		c-0.3-0.3-0.4-0.5-0.4-0.8c0.8,0.2,1.5,0.5,2,0.8h0.4c0.3,0.2,0.4,0.5,0.4,0.8c0,0.5,0.1,0.8,0.4,0.8h0.4h0.4h0.4h0.4l0.4,0.4v0.4
		v0.4h0.4v-0.4v-0.4h0.4c0.3,0,0.4,0.1,0.4,0.4v0.4h0.4v0.4v0.4c-0.3,0-0.4,0.1-0.4,0.4h0.4h0.4h0.8h0.4l0.4,0.4v0.4l-0.4,0.4h-0.4
		h-0.4l-0.4,0.4c-0.3,0.5-0.5,0.8-0.8,0.8s-0.4-0.2-0.4-0.8l-0.4,0.4h-0.4l0.4,0.4c0,0.3,0.1,0.4,0.4,0.4h-0.8v0.8l-0.8-0.4
		l-0.4-0.4c0,0.5-0.3,0.8-0.8,0.8s-0.9,0-1.2,0c-0.3-0.3-0.4-0.5-0.4-0.8h0.4c-0.3,0-0.5-0.1-0.8-0.4c-0.5-0.2-0.8-0.5-0.8-0.8
		c0-0.2,0.4-0.5,1.2-0.8h-0.4H143h-0.4v-0.4h-0.4l-0.4,0.4c-0.3,0-0.4-0.1-0.4-0.4c0.3-0.2,0.5-0.4,0.8-0.4c-1.3,0-2-0.5-2-1.5
		L140.6,192.6L140.6,192.6z M138.7,195.6l0.4,0.4c0.3,0,0.5,0,0.8,0c0,0.5,0.3,0.8,0.8,0.8h0.4v0.4v0.4v0.4
		c-0.5,0.3-1.1,0.4-1.6,0.4s-0.8-0.1-0.8-0.4l0.4-0.4l-0.4-0.4h-0.4c-0.3-0.5-0.4-0.9-0.4-1.1l0.4-0.4L138.7,195.6L138.7,195.6z
		 M137.1,192.9h0.4h0.4v0.8h-0.8v-0.4c-0.3,0-0.4-0.1-0.4-0.4L137.1,192.9L137.1,192.9z M130.7,194.8c0.3,0,0.5,0,0.8,0h0.4h0.4
		l0.4,0.4h0.4l0.4-0.4c0.3,0,0.5,0.3,0.8,0.8c0,0.3,0.1,0.4,0.4,0.4v-0.4h0.4c0.3,0,0.5,0.1,0.8,0.4v0.4h0.4l-0.4,0.4l0.4,0.4
		c0.5,0.3,0.8,0.5,0.8,0.8l-0.4,0.4h-0.4c-0.3,0-0.5-0.1-0.8-0.4c-0.3-0.2-0.5-0.4-0.8-0.4l-0.4-0.4h-0.4c-0.3,0-0.5,0-0.8,0h-0.4
		h-0.4h-0.4c-0.5,0-0.9-0.1-1.2-0.4c0.3-0.3,0.5-0.4,0.8-0.4h0.4V196h-0.4h-0.4h-0.4c0-0.3,0-0.4,0-0.4c-0.3,0-0.4-0.2-0.4-0.8
		H130.7z M130.7,198.7l0.4,0.4l0.4,0.4c0,0.3,0,0.4,0,0.4s-0.1,0-0.4,0c-0.3,0-0.5-0.1-0.8-0.4c-0.3-0.5-0.4-0.9-0.4-1.1
		C130.2,198.3,130.5,198.4,130.7,198.7z M124,197.5c-0.3,0-0.4-0.1-0.4-0.4c-0.3,0-0.5,0-0.8,0h-0.2c-0.1,0.1-0.2,0.3-0.2,0.4v-0.4
		h0.2c0.2-0.2,0.5-0.5,1-0.8c0.5-0.2,0.9-0.4,1.2-0.4c0.8,0,1.3,0.4,1.6,1.1H126l-0.4,0.4h-0.4c0.3,0,0.5,0.1,0.8,0.4
		c-0.3,0.3-0.8,0.4-1.6,0.4h1.2c0,0.5-0.3,0.9-0.8,1.1c-0.3,0-0.7,0-1.2,0c-0.3,0-0.5-0.1-0.8-0.4l-0.4-0.4c0-0.5,0.4-0.8,1.2-0.8
		c0.3-0.2,0.5-0.4,0.8-0.4H124V197.5z M121.2,197.9l0.4,0.4h0.4c-0.3,0.3-0.4,0.4-0.4,0.4s-0.1,0-0.4,0l-0.4-0.4
		C120.8,197.8,120.9,197.7,121.2,197.9z M122,200.6v0.4h-0.8l-0.4-0.4H122z M121.2,201.4l0.4,0.4c0.3,0,0.4,0.1,0.4,0.4h0.8
		c0.3,0,0.6,0.2,1.2,0.8c0.3,0.2,0.5,0.4,0.8,0.4c0.5,0,0.9,0,1.2,0c0.5,0,0.8-0.1,0.8-0.4c-0.3,0-0.5,0-0.8,0l0.4-0.4v-0.4H126
		l-0.4-0.4c0-0.2,0.1-0.5,0.4-0.8l0.4-0.4c0.3,0,0.4-0.1,0.4-0.4c0.3,0.3,0.5,0.4,0.8,0.4v0.4c0,0.5,0.1,0.9,0.4,1.2
		c0.3,0.2,0.5,0.4,0.8,0.4h0.4c0.3-0.2,0.5-0.4,0.8-0.4l0.4,0.4c0.3,0.3,0.4,0.5,0.4,0.8l-0.8,0.8c-0.3,0.5-0.5,0.8-0.8,0.8h-0.8
		h-1.2l-1.2,0.4h-0.4h-0.4l-0.4,0.4c-0.8,0.3-1.6,0.4-2.4,0.4H122l-0.8-0.4c0-0.3,0.1-0.5,0.4-0.8h0.4c0-0.3,0-0.5,0-0.8
		c-0.5,0-0.8,0.3-0.8,0.8h-0.8H120h-0.4h-0.4h-0.4c-0.5,0-0.8-0.3-0.8-0.8v-0.8h0.4h0.4h0.4h0.4l-0.4-0.4v-0.4h0.4h0.4
		c-0.3,0-0.4-0.1-0.4-0.4c0-0.3,0.3-0.4,0.8-0.4c-0.3,0-0.4-0.1-0.4-0.4c0.3,0,0.5,0,0.8,0L121.2,201.4L121.2,201.4z M117.6,203.3
		l-0.4,0.4c-0.3,0-0.5,0-0.8,0c0-0.2,0-0.4,0-0.4c0-0.2,0.3-0.5,0.8-0.8h0.4h0.4C118,202.8,117.9,203,117.6,203.3z M113.3,201.7
		c0.3,0,0.4-0.1,0.4-0.4h0.4l0.4-0.4c0.3,0,0.5-0.1,0.8-0.4c0.3,0,0.4-0.1,0.4-0.4l0.4-0.4c0.3-0.3,0.7-0.4,1.2-0.4h0.4h0.4
		c1.3-0.5,2-0.5,2,0c0,0.3-0.1,0.5-0.4,0.8v0.4v0.4l-1.6,1.2l-0.4-0.4v-0.4c0-0.3-0.1-0.4-0.4-0.4c0,0.3-0.1,0.5-0.4,0.8
		c-0.3,0.3-0.5,0.4-0.8,0.4v0.4l-0.4,0.4c-0.3,0-0.5,0-0.8,0v-0.4h-0.5H114h-0.4h-0.4l-0.4-0.4L113.3,201.7z M110.1,210.2l0.4-0.4
		l0.4-0.4c0.5-1,0.8-1.7,0.8-1.9s0-0.5,0-0.8l-0.4-0.4v-0.4c0.3-0.2,0.7-0.2,1.2,0h0.4h0.4h0.4h0.4c0.3-0.2,0.5-0.4,0.8-0.4
		c0,0.3,0.1,0.4,0.4,0.4l0.4,0.4h0.8c0.3,0.3,0.5,0.4,0.8,0.4l0.4-0.4h0.4c0.3,0,0.7,0.3,1.2,0.8c0.8,0.3,1.2,0.5,1.2,0.8
		s-0.4,0.5-1.2,0.8h-0.4h-0.5H118c-0.5,0.2-1.1,0.8-1.6,1.5c-0.5,0.5-0.8,1-0.8,1.5l-1.6,0.8l-1.2,0.4h-0.4c0-0.2-0.1-0.4-0.4-0.4
		h-0.4v-0.4v-0.4h-0.4h-0.4v-0.4c-0.5,0-0.8-0.1-0.8-0.4C110.1,210.7,110.1,210.4,110.1,210.2z M69.6,233.1h-0.4l-0.4-0.4h0.8
		c0-0.2,0-0.4,0-0.4s0.1,0,0.4,0s0.4,0.3,0.4,0.8L69.6,233.1L69.6,233.1z M83.9,236.9c-0.5,0-1.1,0.4-1.6,1.2c0-0.3-0.1-0.4-0.4-0.4
		h-0.4v-0.8h0.4l0.4-0.4h0.8h0.8C83.9,236.5,83.9,236.9,83.9,236.9z M102.1,239.6c0-0.5,0.1-0.8,0.4-0.8c0-0.3,0.3-0.3,0.8,0
		c-0.3,0.2-0.1,0.6,0.4,1.1c0.3,0.3,0.4,0.5,0.4,0.8s0,0.4,0,0.4s-0.1,0-0.4,0l-0.4-0.4l-0.4-0.4V240v-0.4v-0.4h-0.4L102.1,239.6z
		 M104.5,244.6v0.4c-0.3,0-0.4-0.1-0.4-0.4l-0.4-0.4l0.4-0.4l-0.4-0.4V243h-0.4v-0.4l-0.4-0.4c0.3,0,0.5,0,0.8,0v0.4v0.4l0.4-0.4
		v0.4v0.4l0.4,0.4h-0.4v0.4L104.5,244.6z M110.1,249.2l-0.4-0.4v-0.4c-0.3,0-0.6,0-0.8,0c-0.3-0.3-0.5-0.5-0.8-0.8
		c0.3,0,0.4-0.1,0.4-0.4h-0.4h-0.4l0.4-0.4h0.4l0.4,0.4h0.4v0.4c1.1,0.2,2.1,1,3.2,2.3v0.4c-0.5,0-1.1-0.1-1.6-0.4
		C110.6,249.7,110.3,249.4,110.1,249.2z M201.4,317.6L201,318l-0.4,0.8c-0.3,0.3-0.5,0.5-0.8,0.8v0.4h-0.4c0,0.3-0.1,0.4-0.4,0.4
		c0,0.3-0.1,0.5-0.4,0.8h-0.4v0.4c-0.3,0.3-0.4,0.7-0.4,1.2l0.4,0.8v0.8c0,0.2,0,0.6,0,1.1l-0.4,0.4v0.4v0.4h-0.4v0.4v0.4
		c0,0.2,0,0.5,0,0.7L197,329l-0.4,0.4v0.4c-0.3,0.5-0.5,0.9-0.8,1.2v0.4v0.4c-0.3,0.3-0.5,0.5-0.8,0.8s-0.5,0.4-0.8,0.4
		c-1.1,0-1.7,0-2,0v0.4l-0.4,0.4l-0.4,0.4H191h-0.4c-0.5,0.2-0.9,0.5-1.2,0.8c0,0.2-0.1,0.4-0.4,0.4l-0.4,0.4
		c-0.3,0.2-0.4,0.9-0.4,1.9v1.5c-0.5,0.5-1.1,1.1-1.6,1.9v0.4v0.4l-0.4,0.4c0,0.3-0.1,0.5-0.4,0.8l-0.4,0.4
		c-0.5,0.5-0.9,0.9-1.2,1.2c0,0.2-0.1,0.5-0.4,0.8v0.8l-0.4,0.4c-0.5,0.8-1.1,1.1-1.6,1.1c-0.3,0-0.7-0.1-1.2-0.4h-0.4
		c-0.3,0-0.5-0.1-0.8-0.4H179h-0.4h-0.2c0,0.2,0.1,0.4,0.4,0.4l0.4,0.4v0.4l0.4,0.4v0.4v0.4h0.4v0.4c0,0.5,0,0.9,0,1.1
		c0,0.3-0.3,0.7-0.8,1.2c-0.3,0.3-0.7,0.4-1.2,0.4h-0.4c-0.3,0-0.5,0.1-0.8,0.4h-0.4H176c-0.5-0.3-0.9-0.3-1.2,0
		c-0.3,0.2-0.4,0.6-0.4,1.1v0.4c0,0.2,0,0.5,0,0.8v0.4c-0.3,0.3-0.5,0.4-0.8,0.4h-0.4l-0.4-0.4h-0.4H172c-0.3,0-0.4,0.1-0.4,0.4
		c0,0.2,0.1,0.5,0.4,0.8c0,0.2,0.1,0.4,0.4,0.4h0.4h0.4v0.4v0.4h-0.4h-0.4l-0.4-0.4v0.4l0.4,0.4c-0.3,0.3-0.5,1-0.8,2.3
		c0,0.3-0.1,0.4-0.4,0.4h-0.4h-0.4c-0.5,0.3-0.8,0.8-0.8,1.5c0,0.5,0.3,0.9,0.8,1.1l0.4,0.4c0.3,0,0.4,0.1,0.4,0.4
		c0,0.5-0.3,0.9-0.8,1.2l-0.4,0.4l-0.4,0.4v0.4v0.4l-0.4,0.4c0,0.3-0.1,0.4-0.4,0.4h-0.4l-0.4,0.4c-0.3,0.3-0.4,0.8-0.4,1.5
		c0,0.3,0.1,0.4,0.4,0.4v0.4c0.3,0.3,0.5,0.8,0.8,1.5v0.4v0.4l0.4,0.4c0.3,0.5,0.7,0.9,1.2,1.2l0.8,0.4l0.8,0.4h-0.4h-0.4h-0.4
		l-0.4,0.4H170l-0.4,0.4h-0.4h-0.4H168c-0.5,0-0.8-0.1-0.8-0.4v-0.4l-0.4-0.4h-0.4l-0.4-0.4c-0.3,0-0.4-0.1-0.4-0.4h-0.8l-0.4-0.4
		v-0.4c-0.5,0-0.9,0-1.2,0l-0.4-0.4l-0.4-0.4v-0.4v-0.4h0.4c0-0.2,0.1-0.4,0.4-0.4h-0.4V370v-0.4c0-0.3-0.1-0.5-0.4-0.8
		c-0.3-0.3-0.4-0.5-0.4-0.8v-0.4c0-0.5-0.1-1-0.4-1.5v-0.4v-0.4c0-0.3,0-0.5,0-0.8v-0.4l0.4-0.4v-0.4l0.4-0.4l-0.4-0.8
		c-0.3-0.3-0.4-0.5-0.4-0.8c0-0.5,0.1-0.8,0.4-0.8c0.3,0,0.4,0.1,0.4,0.4c0.3,0.3,0.5,0.4,0.8,0.4l0.8-5.4v-0.8h-0.4v0.4h-0.4v-0.4
		c-0.3-0.2-0.4-0.5-0.4-0.8c0-0.2,0.1-0.5,0.4-0.8v-0.8v-0.4h0.4c0-0.3-0.1-0.4-0.4-0.4v-0.8v-0.4v-0.4c0-0.2,0.1-0.6,0.4-1.1v-0.4
		c0.3-0.2,0.4-0.5,0.4-0.8v-0.4l0.4-0.4v-0.4h0.4c0-0.2,0-0.6,0-1.1l0.4-0.8v-0.8v-2.7c-0.3-0.2-0.3-0.6,0-1.1v-0.8
		c0-0.3,0.1-0.5,0.4-0.8c0-0.3,0-0.6,0-1.2l0.4-0.8c0-0.2,0-0.5,0-0.7v-0.4c0-0.2,0.1-0.5,0.4-0.8v-0.4V334v-1.5c0-0.2,0-0.6,0-1.1
		l0.4-0.4c0-0.2,0-0.5,0-0.8c0-0.2-0.1-0.8-0.4-1.5c0-0.8,0-1.3,0-1.5c-0.3-0.7-0.8-1.3-1.6-1.5l-0.4-0.4H164l-0.4-0.4
		c-0.3-0.5-0.7-0.8-1.2-0.8c-0.5-0.3-1.2-0.8-2-1.5c-0.3,0-0.4-0.3-0.4-0.8v-0.4c0-0.2,0-0.5,0-0.8l-0.4-0.4v-0.4
		c-0.3-0.2-0.4-0.5-0.4-0.8l-0.4-0.4c-0.3-0.5-0.4-0.9-0.4-1.2c-0.3-0.7-0.5-1.5-0.8-2.3h-0.4l-0.4-0.4v-0.4v-0.4
		c-0.3,0-0.4-0.1-0.4-0.4H156c-0.3-0.3-0.4-0.5-0.4-0.8c-0.3-0.5-0.4-0.9-0.4-1.2c0-0.2,0-0.5,0-0.8l0.4-0.4l0.4-0.4l0.8-0.8H156
		l-0.4-0.8v-0.8v-0.4l0.4-0.4c0.3-0.5,0.4-1,0.4-1.5c0.3,0,0.5-0.3,0.8-0.8c0.3,0,0.4-0.1,0.4-0.4v1c0.3-0.3,0.4-0.5,0.4-0.8h0.4
		c0.5-0.3,0.8-0.5,0.8-0.8V303c-0.3,0-0.4-0.1-0.4-0.4h0.4v-0.4v-0.4c-0.3,0-0.4-0.1-0.4-0.4c0-0.2,0.1-0.4,0.4-0.4v-0.4v-0.4
		l-0.4-0.4l-0.4-0.4V299v-0.4H158v-0.4h0.4l-0.4-0.4h-0.4c0-0.2-0.1-0.4-0.4-0.4l-0.4,0.4c-0.5,0.3-0.8,0.5-0.8,0.8h0.4
		c0,0.5-0.1,0.8-0.4,0.8c-0.3,0-0.5-0.1-0.8-0.4l-0.4-0.4l-0.4-0.4H154h-0.4v-0.4c-0.3,0-0.5,0-0.8,0v-0.4V297l-0.8-0.4
		c0-0.3-0.1-0.4-0.4-0.4h-0.2c-0.3,0-0.4-0.1-0.4-0.4v-0.4V295l-0.4-0.4v-0.4l-0.8-0.4v-0.4c-0.5-0.3-0.8-0.6-0.8-1.2h-0.4h-0.4v0.4
		c-0.3,0-0.5-0.1-0.8-0.4H147l-0.4-0.4l-0.4-0.4h-0.4c-0.5,0-0.9,0-1.2,0c-0.3-0.2-0.4-0.5-0.4-0.8l-0.8-0.4
		c-0.3-0.5-0.5-0.9-0.8-1.2h-0.4c-0.3,0-0.5,0-0.8,0H141v0.4l-0.4,0.4h-0.4l-0.4-0.4h-0.4c0-0.2-0.1-0.4-0.4-0.4v0.4h-0.4l-0.8-0.8
		h-0.4l-0.4-0.4h-0.4h-0.4h-0.4h-0.4c0-0.3-0.1-0.5-0.4-0.8c-0.3,0-0.4-0.1-0.4-0.4h-0.4h-0.4c0-0.2-0.1-0.4-0.4-0.4H133
		c0-0.3-0.1-0.4-0.4-0.4l-0.4-0.4c-0.5-0.3-0.8-0.5-0.8-0.8H131c-0.3-0.3-0.4-0.5-0.4-0.8l0.4-0.4v-0.4c0-0.3,0-0.5,0-0.8l-0.4-0.4
		c0-0.5-0.3-1.1-0.8-1.9c-0.3,0-0.5-0.3-0.8-0.8h-0.4l-0.4-0.4c0-0.2-0.1-0.4-0.4-0.4l-0.4-0.4l-0.4-0.4v-0.4v-0.4
		c-0.3-0.2-0.4-0.5-0.4-0.8h-0.2c-0.5-0.5-0.8-0.9-0.8-1.1h-0.4c0-0.3-0.1-0.5-0.4-0.8L124,274v-0.4l-0.4-0.4c0-0.2,0-0.5,0-0.8
		l-0.4-0.4v-0.4c0-0.2-0.1-0.4-0.4-0.4l-0.4-0.4H122c-0.3,0-0.5-0.1-0.8-0.4v0.4c0,0.3,0.1,0.7,0.4,1.2v0.4l0.4,0.4
		c0,0.3,0.1,0.4,0.4,0.4l0.4,0.4v0.4c0.5,0.3,0.8,0.8,0.8,1.5c0.3,0.3,0.5,0.5,0.8,0.8l0.4,0.8v0.4l0.4,0.8v0.7
		c0.3,0.3,0.5,0.5,0.8,0.8c0.3,0,0.4,0.1,0.4,0.4c0.3,0,0.4,0.1,0.4,0.4v0.4h-0.4l-0.4-0.8c-0.3,0-0.5-0.1-0.8-0.4l-0.4-0.4
		l-0.4-0.4v-0.4v0.4l-0.8-0.8l-0.4-0.4c0-0.3-0.1-0.4-0.4-0.4l-0.4-0.4c-0.3,0-0.5-0.1-0.8-0.4h0.4c0.3,0,0.4-0.1,0.4-0.4
		c-0.8-1-1.5-1.7-2-1.9c0-0.2,0-0.5,0-0.8l-0.4-0.8v-0.4l-0.4-0.4v-0.4c-0.3-0.3-0.4-0.6-0.4-1.2c-0.3-0.5-0.8-1-1.6-1.5
		c-0.3-0.3-0.7-0.5-1.2-0.8c-0.3,0-0.5-0.1-0.8-0.4c-0.3,0-0.4-0.1-0.4-0.4v-0.4c0-0.2-0.1-0.5-0.4-0.8l-0.4,0v-0.4
		c-0.3-0.5-0.4-1.1-0.4-1.9c-0.5,0-0.9-0.3-1.2-0.8l-0.4-1.2l-0.4-0.4l-0.4-0.4v-0.4l0.4-0.4c0-0.3,0-0.8,0-1.5V258
		c0-0.5-0.1-0.9-0.4-1.2c0-0.2,0.1-0.9,0.4-1.9v-0.4l0.4-0.8V253c0-0.2,0-0.5,0-0.8l-0.4-0.4l-0.4-0.4c0-0.2,0-0.5,0-0.7h0.4
		c0.5,0,0.9,0.1,1.2,0.4v-0.4c0.3-0.3,0.4-0.5,0.4-0.8l-0.4-0.4v-0.4h-0.4l-0.4-0.4l-0.4-0.4c-0.3,0-0.5,0-0.8,0
		c0-0.5-0.1-0.8-0.4-0.8h-0.4c-0.5-0.3-0.8-0.5-0.8-0.8c-0.5,0-0.9-0.3-1.2-0.8v-0.4l-0.4-0.8l-0.8-0.8c-0.3,0-0.4-0.1-0.4-0.4v-0.4
		V243h-0.4H106c-0.3-0.3-0.4-0.5-0.4-0.8v-0.8V241v-0.4h-0.4c-0.5,0-0.9-0.1-1.2-0.4c-0.3-0.3-0.4-0.5-0.4-0.8V239
		c0-0.5-0.4-0.8-1.2-0.8H102c0-0.2,0-0.5,0-0.8l0.4-0.4v-0.4H102l-0.4,0.4c-0.3,0-0.4-0.1-0.4-0.4c-0.3,0-0.4-0.1-0.4-0.4v0.8h0.4
		v0.4v0.4c0,0.2,0,0.5,0,0.8c-0.5-0.5-0.8-1-0.8-1.5c-0.5-0.3-0.8-0.6-0.8-1.2v-0.4h0.4h0.4h0.4v0.8c0-0.3,0.1-0.4,0.4-0.4v-0.4
		l-0.4-0.4h-0.4c-0.3,0-0.5-0.1-0.8-0.4v0.4h-0.2c0,0.3-0.1,0.4-0.4,0.4l-0.8-0.8l-0.4-0.4c0-0.2-0.1-0.4-0.4-0.4
		c-0.3-0.3-0.8-0.5-1.6-0.8l-0.8-0.4c-0.3,0-0.5,0-0.8,0h-1.6l-0.8-0.4h-0.4c-0.3-0.2-0.5-0.4-0.8-0.4c-0.8-0.2-1.3-0.6-1.6-1.1
		h-0.4h-0.4l-0.4,0.4c0,0.2,0,0.5,0,0.7c0,0.3-0.5,0.7-1.6,1.2c-0.8,0.5-1.3,0.8-1.6,0.8h-0.4c-0.3,0-0.4-0.1-0.4-0.4h0.4v-0.4v-0.4
		c0-0.8,0.5-1.3,1.6-1.5v-0.4h-0.4c-0.5,0-1.2,0.4-2,1.1c-0.8,0.8-1.2,1.4-1.2,1.9v0.8c0,0.5-0.5,1-1.6,1.5l-0.4,0.4h-0.4v0.4
		c-0.3,0.2-0.7,0.6-1.2,1.1l-0.4,0.4c-0.3,0-0.5,0.1-0.8,0.4c-0.5,0.5-1.5,0.9-2.8,1.2c-0.3,0-0.5,0.1-0.8,0.4h-0.4l-0.4,0.4
		c-0.8,0.5-1.5,0.6-2,0.4c0.3-0.2,0.5-0.4,0.8-0.4h0.8v-0.4H73l0.4-0.8c0.3-0.2,0.5-0.4,0.8-0.4v-0.4H75c0.3,0,0.5,0,0.8,0
		c0.3-0.5,0.7-1,1.2-1.5l0.8-0.4c0.3-0.3,0.5-0.4,0.8-0.4s0.4-0.1,0.4-0.4l0.4-0.8c0.3-0.5,0.5-0.9,0.8-1.2h-0.4h-0.4l-0.4,0.4
		c-0.3,0-0.5,0-0.8,0h-0.4h-0.4v0.4H77c-0.5,0-1-0.2-1.6-0.8v0.4H75l-0.4,0.4h-0.2v0.1c0-0.3,0-0.5,0-0.8v-0.8V233H74
		c-0.3,0-0.4,0.1-0.4,0.4l-0.4,0.4c-0.3,0-0.7-0.2-1.2-0.8c-0.5-0.5-0.9-0.9-1.2-1.1h0.4c0-0.2,0-0.5,0-0.8h-0.4l-0.4-0.4
		c-0.3-0.3-0.4-0.5-0.4-0.8c0-0.5,0.4-1,1.2-1.5c0.5-0.3,1.1-0.4,1.6-0.4l0.4-0.4c0.3,0,0.6,0,1.2,0c0.5-0.5,0.8-0.9,0.8-1.2V226
		l-0.4-0.4l0.4-0.4v-0.4h-0.4c-0.3,0-0.5,0.1-0.8,0.4h-0.4c0,0.3-0.1,0.4-0.4,0.4l-0.4-0.4h-0.4H72h-2l-0.4-0.4v-0.4V224v-0.4
		c-0.5,0-0.9-0.1-1.2-0.4c0.3-0.2,0.5-0.4,0.8-0.4L70,222c0.8-0.2,1.3-0.5,1.6-0.8h0.8c0,0.5,0.1,0.9,0.4,1.1h0.4h0.4H74h0.4
		c0-0.7-0.3-1.1-0.8-1.1c0-0.2-0.1-0.4-0.4-0.4l-0.4-0.4h-0.4l-0.4-0.8l-0.4-0.4c0-0.3-0.1-0.4-0.4-0.4l-0.4-0.4h-0.4l-0.8-0.4
		l0.4-1.1h2c1.3-1.8,2.9-2.9,4.8-3.5V213l0.4,0.4c0.3,0,0.5-0.1,0.8-0.4h0.4l0.4-0.4l0.4-0.7c0.3,0,0.5,0.1,0.8,0.4v0.4h0.4
		l-0.4,0.4c0.5,0.3,0.9,0.1,1.2-0.4h0.4c0,0.3,0.1,0.4,0.4,0.4h1.6l0.4,0.4c0.3,0,0.5,0.1,0.8,0.4h2.8c0.3,0.3,0.9,0.5,2,0.8
		c0.3,0,0.5,0,0.8,0c0.5,0.3,0.9,0.4,1.2,0.4l0.4-0.4h0.4c0.3,0,0.5,0,0.8,0s0.6,0.1,1.2,0.4h0.4c0.3,0,0.5,0.1,0.8,0.4H96l0.4,0.4
		c0.5,0.5,1.2,0.8,2,0.8c0.8,0.3,1.5,0.4,2,0.4V217H100c0-0.2,0.1-0.4,0.4-0.4c0-0.3,0.3-0.4,0.8-0.4h0.4v-0.4
		c0.3-0.3,0.5-0.1,0.8,0.4l0.8-0.4h0.4l0.4-0.4c0.5-0.2,1.3-0.5,2.4-0.8c0.3,0.5,0.5,0.8,0.8,0.8s0.4-0.1,0.4-0.4l0.4-0.4
		c0-0.2,0.1-0.4,0.4-0.4l0.8,0.8c0.3,0.3,0.4,0.5,0.4,0.8c0.3,0,0.5,0,0.8,0s0.5-0.1,0.8-0.4V215h0.4c0,0.3,0.1,0.4,0.4,0.4l0.4,0.8
		c0.3,0,0.5-0.1,0.8-0.4c0.3-0.3,0.5-0.4,0.8-0.4c0.5,0,1,0.1,1.6,0.4l0.4,0.4h0.8c1,0.8,2,1.2,2.8,1.2l1.6-0.4
		c0.3,0.3,0.7,0.7,1.2,1.2c0,0.2-0.1,0.4-0.4,0.4h-0.4h-1.2v0.4c0.3,0,0.4,0.1,0.4,0.4c0.3,0,0.7,0,1.2,0h0.4h0.4
		c0.5-0.2,0.9-0.4,1.2-0.4h2l0.8,0.4l0.4,0.4l0.4,0.4c0,0.3,0.3,0.4,0.8,0.4v-0.4l-0.4-0.4v-0.4c0-0.2,0.1-0.5,0.4-0.8h0.4
		c0.5,0,0.8-0.2,0.8-0.8c-0.3,0.3-0.5,0.4-0.8,0.4c-0.3,0.2-0.7,0.4-1.2,0.4c-0.3,0-0.4-0.1-0.4-0.4c0-0.5,0.4-0.8,1.2-0.8l0.4-0.4
		h0.4h0.8c0.3,0.8,0.9,1.3,2,1.5c0.8,0.5,1.7,0.8,2.8,0.8c0.3,0,0.7,0,1.2,0h0.4h0.4c0.3,0,0.5,0,0.8,0c0-0.8,0.4-1.1,1.2-1.1h0.8
		c0.3,0.2,0.5,0.4,0.8,0.4v0.4v0.4H140c0,0.5,0.3,0.6,0.8,0.4c0-0.3,0.1-0.5,0.4-0.8c0-0.3,0.1-0.4,0.4-0.4h0.4
		c0.5-0.5,0.8-1,0.8-1.5l-0.4,0.4l-0.4,0.4c0-0.8,0-1.3,0-1.5s-0.3-0.5-0.8-0.8h-0.8H140c-0.3-0.2-0.4-0.5-0.4-0.8v-0.4l0.4-0.4h0.4
		v-0.4l-0.4-0.4v-0.4c0-0.2,0.1-0.4,0.4-0.4h0.4V212v-0.4c0-0.3,0.1-0.4,0.4-0.4c1.6,0.3,2.4,0.9,2.4,1.9v0.4v0.4h0.4
		c0.3,0.3,0.4,0.5,0.4,0.8v0.4l-0.4,0.4h-0.6c0.3,0.3,0.5,0.4,0.8,0.4h0.8l0.4,0.4c-0.3,0-0.4,0.1-0.4,0.4c0.5,0.3,0.8,0.8,0.8,1.5
		c0.3,0,0.4-0.1,0.4-0.4l0.4-0.8c0-0.5,0.1-0.8,0.4-0.8c0.3,0,0.5,0.3,0.8,0.8c0.5,0.3,0.8,0.5,0.8,0.8s-0.1,0.4-0.4,0.4l-0.4,0.4
		c0,0.3,0.1,0.5,0.4,0.8c0,0.3,0.1,0.4,0.4,0.4c0.3,0.5,0.7,0.5,1.2,0c0-0.3,0.1-0.5,0.4-0.8v-0.4l0.4-0.8h0.4
		c0.3-0.2,0.4-0.5,0.4-0.8l-0.4-0.4v-0.4c0-0.2,0-0.5,0-0.8c0.3,0,0.5,0,0.8,0h0.4h0.4c0.3,0,0.5,0.1,0.8,0.4c0.3,0,0.4,0.1,0.4,0.4
		c0.5,0.3,0.9,0.4,1.2,0.4v0.4c0,0.3,0,0.5,0,0.8c-0.5,0-0.8,0.3-0.8,0.8v0.4l0.4,0.4c0.3,0.3,0.4,0.5,0.4,0.8s-0.3,0.6-0.8,1.2
		c-0.8,0.5-1.2,0.6-1.2,0.4h-0.4v0.4c-0.3,0-0.5,0-0.8,0l-0.4,0.4l-0.4-0.4h-0.4v-0.4c-0.3,0-0.5,0-0.8,0l0.4,0.4v0.4
		c0,0.3-0.1,0.5-0.4,0.8c-0.5,0.3-0.9,0.4-1.2,0.4s-0.5-0.1-0.8-0.4h-0.4L147,223h-0.8c0.3,0.5,0.7,0.8,1.2,0.8
		c0.3,0.3,0.5,0.4,0.8,0.4h1.2v0.8c-0.3,0-0.4,0.1-0.4,0.4l-0.8,0.4c-0.3,0.3-0.5,0.4-0.8,0.4h-0.8v0.4h-0.4c0,0.5-0.1,0.6-0.4,0.4
		c-0.5-0.2-1-0.4-1.6-0.4h-0.4c0,0.3,0.1,0.4,0.4,0.4h0.4l0.4,0.4c0.5,0,0.8,0.1,0.8,0.4c0,0.3-0.3,0.5-0.8,0.8h-0.4
		c-0.3,0-0.5,0-0.8,0l-0.4,0.8v0.4l-0.4,0.4c0,0.3-0.1,0.4-0.4,0.4c-0.8,1-1.2,2-1.2,3v1.9h0.4v-0.4c0.3,0,0.5,0,0.8,0
		s0.5,0.4,0.8,1.2s0.4,1.4,0.4,1.9c0.3,0,0.4-0.1,0.4-0.4h0.4l0.4-0.4c0.3,0,0.5,0.1,0.8,0.4l0.8,0.4c2.1,1,3.6,1.8,4.4,2.3h2.4
		c0.3,0.5,0.5,1,0.8,1.5v0.8v0.4v0.4c0,0.5,0.3,1,0.8,1.5c0.3,0.3,0.4,0.5,0.4,0.8c0.3,0.3,0.5,0.5,0.8,0.8c0.3,0,0.5,0,0.8,0v-0.4
		c0-0.2,0.1-0.4,0.4-0.4l0.4-0.4v-0.4v-0.8v-0.4V243c-0.3-1-0.7-1.7-1.2-1.9c0.5,0,1.2-0.4,2-1.2c0.5-0.5,0.8-0.9,0.8-1.1
		c0-1-0.1-1.9-0.4-2.7l-0.4-0.4l-0.4-0.4c-0.3-0.5-0.5-0.9-0.8-1.1h0.4c0.3-0.3,0.5-0.4,0.8-0.4c0.3-0.2,0.4-0.6,0.4-1.1
		c0-0.2-0.1-0.4-0.4-0.4V232l-0.4-0.4c-0.3-0.3-0.3-0.5,0-0.8c0.5-0.3,0.7-0.5,0.4-0.8v-0.4h-0.4v-0.4c0-0.3,0.1-0.5,0.4-0.8h0.4
		c0.3,0,0.7,0,1.2,0l0.8,0.4c0.3,0,0.5,0,0.8,0h0.4l0.4-0.4c0.5,0,0.9,0.2,1.2,0.8h0.4v0.4c0.3,0.3,0.5,0.4,0.8,0.4
		c0,0.5,0.3,0.8,0.8,0.8l0.4,0.4h0.4l0.4,0.4v0.4v0.4c0.3,0.5,0.4,0.9,0.4,1.2c0,0.5,0.3,0.8,0.8,0.8l0.4,0.4l0.4,0.8
		c0.5,0,1.1-0.2,1.6-0.8c0.5-0.5,0.8-1,0.8-1.5v-0.4l0.4-0.4h0.4l0.4,0.4c0,0.3,0.1,0.4,0.4,0.4v0.4l0.4,0.4
		c0.5,0.3,0.6,0.5,0.4,0.8c0,0.5,0.1,0.9,0.4,1.2l0.4,0.4h0.4c0,0.3,0,0.5,0,0.8h0.4v0.4c0,0.2-0.1,0.4-0.4,0.4v0.4h-0.6l0.4,0.4
		l0.4,0.4c0.5,0.2,0.9,0.4,1.2,0.4c0,0.5,0.3,0.9,0.8,1.2c0.5,0.2,1.1,0.4,1.6,0.4h0.4v0.4c0,0.2-0.4,0.5-1.2,0.7l-0.4,0.4h-0.4
		c-0.3,0-0.5,0.1-0.8,0.4h0.4c0.3,0,0.8-0.1,1.6-0.4c0.5-0.2,1-0.5,1.6-0.8v0.4c0,0.3,0.1,0.4,0.4,0.4v0.4c0.3,0.8,0.4,1.4,0.4,1.9
		s-0.4,0.9-1.2,1.1h-0.8l-0.4,0.4c-0.5,0-0.8,0.1-0.8,0.4c-0.5,0.8-1.1,1.2-1.6,1.2c-0.3,0-0.5,0-0.8,0l-0.8-0.4h-0.8h-0.8H172
		c-0.5,0-1.1,0.1-1.6,0.4c-0.3,0-0.5,0.1-0.8,0.4v0.4v0.4c-0.3,0.3-0.5,0.4-0.8,0.4h-0.4c-0.5,0.2-0.9,0.6-1.2,1.1l0.8-0.4h0.4
		l0.4-0.4c0.8-0.5,1.5-0.8,2-0.8h0.4c0.3,0,0.5,0,0.8,0c0.5,0.3,0.8,0.5,0.8,0.8s-0.3,0.5-0.8,0.8h-0.4l-0.4,0.4h0.4h0.4v0.4v0.4
		c-0.3,0-0.4,0.1-0.4,0.4c0,0.3,0.4,0.6,1.2,1.1c0.5,0.5,1,0.8,1.6,0.8h0.8c0.3,0,0.4,0.1,0.4,0.4c0,0.3-0.4,0.5-1.2,0.8
		c-0.5,0.3-0.9,0.4-1.2,0.4s-0.4,0.1-0.4,0.4h-0.4l-0.4,0.4l-0.8,0.8l-0.4-0.4c-0.3-0.3-0.4-0.5-0.4-0.8s0.3-0.5,0.8-0.8
		s1.1-0.4,1.6-0.4c-0.5,0-0.8-0.1-0.8-0.4v-0.4c-0.3,0-0.4,0.1-0.4,0.4h-0.4v0.4h-0.8H170h-0.4v0.4c-0.3,0.5-0.7,0.8-1.2,0.8h-0.8
		c0,0.3-0.1,0.4-0.4,0.4l-0.4,0.4l-0.4,0.4c-0.3,0.3-0.4,0.8-0.4,1.5c0,0.3,0,0.5,0,0.8h0.4l-0.4,0.4c-0.3,0-0.4-0.1-0.4-0.4
		c-0.3,0.3-0.7,0.5-1.2,0.8H164v0.4c-0.1,0-0.2,0-0.4,0l0.4-0.4h-0.4c-0.3,0-0.5,0.1-0.8,0.4h-0.4v0.4v0.4c0,0.3,0,0.5,0,0.8
		l-0.8,0.8v-0.4l-0.4,0.4v0.4h0.4v0.4l-0.4,0.8l-0.4,0.8l-0.4-0.4v-0.4v-0.4v-0.4l-0.4-0.4v0.4c0,0.3,0,0.5,0,0.8
		c0.3,0.3,0.4,0.5,0.4,0.8v0.4v0.4v0.4H160c0,0.2,0.3,0.4,0.8,0.4c-0.3,0.3-0.5,0.4-0.8,0.4v0.4l0.4,0.4l-0.4,0.4l-0.4,0.4h-0.4
		c-0.3,0-0.5,0.1-0.8,0.4v0.4H158l-0.8,0.8c-0.5,0-0.9,0.2-1.2,0.7c-0.8,0.5-1.2,1.4-1.2,2.7c0,0.5,0.1,1,0.4,1.5
		c0.5,0.5,0.8,1,0.8,1.5v0.4v0.4c0.3,0.2,0.4,0.5,0.4,0.8c0,1-0.3,1.5-0.8,1.5c-0.3,0-0.4-0.1-0.4-0.4l-0.4-0.4v-0.4h-0.4V279
		c-0.3-0.3-0.5-0.5-0.8-0.8c0-0.3,0-0.6,0-1.2l-0.4-0.4v-0.8c-0.3-0.8-0.7-1.2-1.2-1.2h-0.4l-0.2-0.6H151l-0.4-0.4l-0.4-0.4
		c-0.3,0-0.5,0-0.8,0H149l-0.4,0.4v-0.4h-0.4h-0.4h-0.4c-0.5,0-0.8,0.1-0.8,0.4h0.4l-0.4,0.4c0,0.3,0.1,0.5,0.4,0.8
		c-0.3,0.3-0.7,0.1-1.2-0.4h-0.4L145,274h-0.4h-0.4c0,0.3-0.1,0.4-0.4,0.4l-0.4-0.4l-0.4-0.4c-0.5,0-0.9,0.3-1.2,0.8
		c-0.3,0-0.4,0.1-0.4,0.4l-0.4,0.4h-0.4h-0.4v0.4c-1.1,0.2-1.6,1-1.6,2.3l0.4,0.4v0.8c0,0.3,0,0.5,0,0.8l-0.4,0.4v0.4v1.9v0.4
		l0.4,0.4v0.4v0.4v0.4l0.4,0.4l0.4,0.4v0.4c0.3,0,0.4,0.1,0.4,0.4l0.4,0.4c0.3,0.3,0.5,0.5,0.8,0.8h0.4v0.4h0.4h0.4l0.4-0.4h0.4
		c0.3,0,0.5,0,0.8,0h0.4h0.4V287l0.4-0.4l0.4-0.4v-0.8c0-0.5,0.3-0.9,0.8-1.2c0.5-0.2,1.1-0.4,1.6-0.4c0.3,0,0.5,0,0.8,0
		s0.5,0,0.8,0v0.4c0,0.3-0.1,0.7-0.4,1.2c-0.3,0.2-0.4,0.5-0.4,0.8c0,0.5-0.1,1-0.4,1.5V287h-0.4v1.9v0.4h-0.4v0.4v0.4h0.4
		c0.3,0,0.8,0,1.6,0h0.8c0.3,0,0.5,0,0.8,0s0.5,0.1,0.8,0.4h0.4c0.3,0,0.4,0.1,0.4,0.4v0.8v0.4v0.8v2.7c0,0.2,0.1,0.5,0.4,0.8
		c0,0.2,0.1,0.4,0.4,0.4h0.4l0.4,0.4v0.4c0.3,0.3,0.5,0.4,0.8,0.4l0.4-0.4h0.4l0.8-0.4h0.4c0.5,0,0.9,0.1,1.2,0.4l0.4,0.4l0.4,0.4
		h0.4l0.4-0.4v-0.4h0.4V297c0.3,0,0.4-0.1,0.4-0.4v-0.4c0-0.5,0.3-0.8,0.8-0.8c0.5-0.3,0.9-0.4,1.2-0.4l0.8-0.4h0.4l0.4-0.4h0.4
		c0-0.2,0.1-0.4,0.4-0.4h0.4v0.4l-0.4,0.4l-0.4,0.4v0.4v0.8c0,0.2,0,0.5,0,0.8c0.3,0.2,0.5,0.4,0.8,0.4c0-0.2,0-0.5,0-0.8v-0.4
		l-0.4-0.4c0-0.2,0.1-0.5,0.4-0.8h0.4h0.4h0.8c0-0.2-0.1-0.4-0.4-0.4h-0.6v-0.4h0.8c0,0.3,0.1,0.5,0.4,0.8h0.4h0.4
		c0,0.5,0.1,0.8,0.4,0.8h2c0,0.3,0.1,0.4,0.4,0.4h0.4c0.5,0,0.9-0.1,1.2-0.4l0.4-0.4h0.4c0.3,0,0.5,0.1,0.8,0.4H174
		c0,0.3,0.1,0.5,0.4,0.8h0.8c0-0.5,0.1-0.8,0.4-0.8v0.4c0,0.2-0.1,0.4-0.4,0.4l0.4,0.4c0.3,0,0.4,0.1,0.4,0.4v0.4v0.4h0.8
		c0.3,0,0.5,0.1,0.8,0.4v0.4c0.3,0,0.5,0.3,0.8,0.8h0.4c0.3,0.5,0.7,0.9,1.2,1.1c0.3,0,0.5,0,0.8,0h0.4l0.4,0.4h0.8h0.4h0.4h0.4v0.4
		h0.4c0.3,0,0.5,0.1,0.8,0.4l0.8,0.8h0.4c0,0.3,0,0.6,0,1.1l0.4,0.8v0.4h0.4v0.4c0.3,0,0.4,0.1,0.4,0.4l-0.4,0.4l-0.8,0.4
		c-0.3,0.5-0.4,1-0.4,1.5v0.4h0.4c0.3,0.3,0.5,0.5,0.8,0.8h0.8c-0.3,0-0.5-0.1-0.8-0.4c-0.5-0.2-0.8-0.5-0.8-0.7c0-0.5,0-0.8,0-0.8
		s0.3,0,0.8,0h0.4h0.4l0.4,0.4l0.4-0.4v0.4v0.4l-0.4,0.4c0,0.5-0.1,0.8-0.4,0.8v0.4h0.4v-0.4l0.4-0.4l0.4-0.4
		c0.3-0.2,0.5-0.4,0.8-0.4s0.7,0,1.2,0l0.4,0.4c0.3,0.3,0.5,0.4,0.8,0.4l0.4,0.4l0.4,0.4v0.4h0.4h0.4c0.3,0,0.5,0.1,0.8,0.4
		c0.3,0,0.5,0,0.8,0h1.2c0.3,0,0.7,0,1.2,0c0.3,0.3,0.5,0.4,0.8,0.4c0,0.3,0.3,0.6,0.8,1.1l0.8,0.8h0.4h0.4c0.3,0,0.4,0,0.4,0
		s0.1,0,0.4,0c0.5,0.3,0.8,0.9,0.8,1.9C202.2,315.8,201.9,316.9,201.4,317.6z M162.5,357.8v-0.4V357l0.4-1.1c0.3,0,0.4,0.1,0.4,0.4
		v0.4v0.4v1.1h-0.4L162.5,357.8z M181.5,248.4v0.4h0.4c0.5,0,0.9,0,1.2,0v0.4v0.4v0.4v0.4v0.4v0.4c0.3,0,0.5-0.1,0.8-0.4v0.4v0.4
		c0,0.5-0.1,0.8-0.4,0.8h-0.4V252h-0.4v-0.4l-0.4-0.4v0.4h-0.4l-0.4,0.4h-0.4c0-0.2,0.1-0.4,0.4-0.4h-0.4c-0.3,0-0.4-0.1-0.4-0.4
		l-0.8,0.4c-0.3,0-0.5-0.1-0.8-0.4h-0.4h-0.3c-0.3,0.3-0.5,0.4-0.8,0.4v-0.4v-0.4l0.4-0.4V250h-0.4c0.5-0.3,0.9-0.8,1.2-1.5l0.4-0.4
		v-0.4l0.4-0.8l0.4-0.8c0.3-0.5,0.5-0.8,0.8-0.8v0.4c0,0,0,0.1,0,0.4c0,0.3,0,0.5,0,0.8l-0.4,0.4l-0.4,0.4v0.4h0.4h0.4h0.4l-0.4,0.4
		L181.5,248.4L181.5,248.4z M176.8,253v0.4c0,0.3-0.1,0.4-0.4,0.4H176c-0.5,0-0.8-0.1-0.8-0.4l0.4-0.4l0.4-0.8h0.4v0.4v0.4
		L176.8,253L176.8,253z M173.2,248.8l-0.4-0.4h-0.4L172,248c0.5,0,1,0.1,1.6,0.4h0.8l0.4,0.8h-0.4
		C174.1,249.2,173.7,249,173.2,248.8z M174.4,253v0.4H174c-0.3,0-0.5-0.1-0.8-0.4c-0.5-0.2-0.8-0.5-0.8-0.8c0.3,0.3,0.5,0.5,0.8,0.8
		H174.4z M170.4,287c0.3,0,0.5,0.1,0.8,0.4h-0.4h-0.4c-0.3,0-0.5,0-0.8,0V287l0.4-0.4v0.4H170.4z M165.7,287.4l-0.4,0.4h-0.4v-0.4
		c-0.3,0-0.5,0-0.8,0h-0.4h-0.4h-0.4h-0.4c0-0.3,0-0.4,0-0.4v-0.4h1.6c-0.3,0-0.4-0.3-0.4-0.8c-0.3,0-0.4-0.1-0.4-0.4l0.4-0.4h0.4
		v0.4h0.4h0.4h0.4h0.4c0.5,0,0.9,0.1,1.2,0.4h0.4c0,0.2,0.1,0.4,0.4,0.4h-0.4l0.4,0.4h0.4l0.4,0.4h-1.6l-0.4,0.4h-0.4V287
		C165.8,287,165.7,287.2,165.7,287.4z M162.9,284.4V284c0.3,0,0.4-0.1,0.4-0.4v0.4C163.3,284.2,163.1,284.4,162.9,284.4z
		 M159.7,285.5l-0.4-0.4h-0.4c0.3,0,0.4-0.1,0.4-0.4l-0.4-0.4h-0.4c-0.3,0-0.4-0.1-0.4-0.4c-0.3,0-0.4-0.1-0.4-0.4h-0.4h-0.4h-0.4
		l-0.4-0.4l-0.4-0.4h-1.2v-0.4h-0.4c-0.3,0-0.7,0.1-1.2,0.4c-0.5,0-0.8,0.1-0.8,0.4h-0.4c0.5-1,1.4-1.5,2.8-1.5c0.5,0,1.2,0.1,2,0.4
		c0.8,0.5,1.3,0.8,1.6,0.8h0.4v0.4c0.8,0.5,1.6,0.8,2.4,0.8v0.4h0.4c0.3,0,0.4,0.1,0.4,0.4l0.4,0.4c0,0.2-0.1,0.4-0.4,0.4h-0.4h-0.4
		c-0.3,0-0.5,0-0.8,0L159.7,285.5L159.7,285.5z M160.1,287.4l-0.4,0.4c-0.3,0-0.5,0-0.8,0l-0.4-0.4c0,0,0-0.1,0-0.4h0.4h0.4h0.4
		L160.1,287.4z M158.1,277.9h-0.4v-0.4h0.4h0.4v0.4H158.1z M158.5,279.8v0.4v0.4c-0.3,0-0.4-0.1-0.4-0.4v-0.4H158.5z M190.7,216
		c0,0.3-0.3,0.5-1,0.8h-0.9h-1l-0.5-0.4c-0.3-0.5-0.5-0.9-0.5-1.2l0.5-0.4l0.5-0.4c0.6,0,1.1,0.3,1.4,0.8h0.5v0.4
		C190,215.8,190.4,216,190.7,216z M223.1,216.7c-0.6,0.5-1.1,0.8-1.4,0.8c-0.3,0.3-0.6,0.4-1,0.4h-1.4c-0.6,0.3-1.3,0.5-1.9,0.8
		h-1.9l-1,0.4l-1,0.8c-0.3,0.3-0.6,0.6-0.9,1.2l-0.5,0.4c0,0.3-0.2,0.4-0.5,0.4c0,0.2-0.5,0.5-1.4,0.8h-0.5l-1,0.4h-1v-0.8l-0.5,0.4
		v0.4v0.4c-0.3,0-0.6,0.2-1,0.4h-0.5h-0.5c-1,0.3-1.4,0.6-1.4,1.2v0.4v0.4v0.4c0.3,0.3,0.5,0.5,0.5,0.8s-0.2,0.4-0.5,0.4
		c0,0.3-0.3,0.4-1,0.4v0.4h-0.5c-0.3,0.3-0.5,0.5-0.5,0.8v0.4v0.8v0.8v0.8h-0.5v0.8c-0.3,0.5-0.6,0.8-0.9,0.8
		c-0.3,0-0.5-0.1-0.5-0.4c0,0.3-0.2,0.4-0.5,0.4h-0.5c-0.3,0-0.6-0.2-1-0.8c0-0.3-0.2-0.5-0.5-0.8h0c-0.3,0-0.6,0-1,0l-0.5,0.4h-0.5
		c0-0.2-0.2-0.5-0.5-0.8h-0.5c0-0.2-0.2-0.4-0.5-0.4v-0.4v-0.4c-0.7-0.3-1.1-0.8-1.4-1.6c-0.6-0.8-1-1.4-1-2V226l0.5-0.4
		c-0.3-0.2-0.6-0.2-1,0h-0.5c-0.3,0-0.5-0.1-0.5-0.4v-0.4v-0.4c-0.3-0.3-0.5-0.5-0.5-0.8l-0.5-0.4c-0.3-0.2-0.5-0.6-0.5-1.2v-0.4
		v-0.4h0.5c-0.3-0.2-0.7-0.2-1,0V220l0.5-0.4v-0.8c0.3-0.2,0.6-0.5,0.9-0.8c0.7-0.2,1.1-0.2,1.4,0c0-0.5,0.2-1,0.5-1.6l0.5-0.8
		l0.5-0.4c-0.3-0.3-0.8-0.4-1.4-0.4h-0.5l-1-0.4c-1.3-0.3-1.9-0.6-1.9-1.2h0.5h0.5l0.9,0.4c0.7,0.3,1.1,0.4,1.4,0.4h0.5v0v-0.4
		c-0.3,0-0.6-0.1-1-0.4l-0.5-0.4v-0.4c-0.7-0.5-1.3-0.8-1.9-0.8l-0.5,0.4h-0.5c-0.6,0-1-0.1-1-0.4v-0.4v-0.4h0.5
		c0.3-0.2,0.5-0.6,0.5-1.2l-0.5-0.4l0,0h-0.5V209c-0.6-2.1-1.6-3.6-2.9-4.7c-1.6-1.6-3.5-2.3-5.7-2.3h-1.4h-0.5v0.4
		c-0.3,0.2-0.6,0.4-1,0.4l-0.5-0.4h-0.5c-0.3,0-0.6,0-1,0v0.4c-0.6,0-1.3,0-1.9,0c-0.6-0.2-1-0.5-1-0.8l0.5-0.4l0.5-0.4h-1v-0.4
		l-1-0.4h-1.4l0.5-0.4h0.5c0-0.3,0.2-0.4,0.5-0.4h1h0.5h2.4c0.3-0.2,0.6-0.5,1-0.8h-1.9c0,0.3-0.2,0.4-0.5,0.4h-1.4l-1-0.4
		c-0.3,0-0.6-0.1-1-0.4c-1.6-0.5-2.4-0.9-2.4-1.2c0-0.5,0.3-0.8,1-0.8h0.5h1l0.5-0.4l0.5-0.4c0.7,0,1-0.1,1-0.4c0.3,0,0.7,0,1,0h1
		c1,0,1.6,0,1.9,0c0.6-0.5,1-1.2,1-1.9v-0.4h-0.5c-0.6,0-1.1,0-1.4,0c-0.6,0-1-0.1-1-0.4c0-0.3,0-0.5,0-0.8h0.5h0.5
		c1.6-0.5,2.9-1.3,3.8-2.3c0.3,0.2,0.8,0.4,1.4,0.4c0.3,0,0.5-0.2,0.5-0.8l0.5-0.4v-0.4c0-0.2,0.2-0.4,0.5-0.4s0.6,0,1,0h1
		c0.6-0.3,1.3-0.4,1.9-0.4c0.3,0,0.6-0.1,1-0.4h1c0.6-0.5,1.1-0.8,1.4-0.8c0.3,0,0.5,0.1,0.5,0.4v0.4h0.5l0.5,0.4
		c0,0.3,0.1,0.4,0.5,0.4c0-0.3,0-0.5,0-0.8h-0.5l0.5-0.8c0.3,0.5,0.6,0.8,1,0.8h0.5l1,0.4h0.5V187h-0.5v-0.4c0-0.2,0.2-0.4,0.5-0.4
		h0.5c1,0,1.7,0.1,2.4,0.4l1,0.4l0.5,0.4h1.9l-0.5-0.4c-0.3,0-0.6,0-1,0c-0.7-0.5-1-0.9-1-1.2c0-0.2,0.3-0.4,1-0.4h0.5V185
		c-0.3,0-0.5-0.1-0.5-0.4c1.3-0.5,2.5-0.8,3.8-0.8c1,0,1.7,0.1,2.4,0.4h1v-0.4c0.3,0,0.6,0,1,0h0.5h0.5c0.3,0,0.8,0,1.4,0l1.4-0.8
		c1.3-0.2,2.2-0.4,2.9-0.4h6.2c1,0,2.1,0.2,3.3,0.8l0.5,0.4l1,0.4c0.6,0.3,1.1,0.5,1.4,0.8c0.3,0.3,1,0.4,1.9,0.4h1c0.3,0,0.6,0,1,0
		c0,0.5-0.7,0.9-1.9,1.2h-0.5h-1c-0.3,0.3-0.7,0.4-1,0.4l-9.6,0.4c0.3,0.3,1.7,0.3,4.3,0h1.4c0.6,0,1.1,0,1.4,0h1.4v0.4l-0.5,0.4
		l-0.5,0.4l-0.5,0.8c0.3,0,0.6-0.1,1-0.4l1-0.4l0.5-0.4c0.6-0.2,1.1-0.5,1.4-0.8l1-0.4c1,0,1.4,0.4,1.4,1.2c0,0.3-0.5,0.9-1.4,2
		l-0.5,0.4l-0.5,0.4l-0.5,0.8c0.3,0,1-0.5,1.9-1.6l0.5-0.8l0.5-0.4c0.3-0.2,0.6-0.4,1-0.4h2.9c0.3,0,0.6,0,1,0c0.3,0,0.6-0.1,1-0.4
		V188h0.5h1.9c0.3-0.5,0.6-0.8,1-0.8c0.3,0,0.8,0.3,1.4,0.8c1,0.3,1.4,0.5,1.4,0.8s-0.2,0.5-0.5,0.8h-1.3c-0.6,0.2-1.1,0.4-1.4,0.4
		l-0.5,0.4l-0.5,0.4c-0.6,0.3-1.4,0.4-2.4,0.4c0.6,0.2,1,0.2,1,0c0,0.5-0.2,0.9-0.5,1.2h-0.5l-1,0.4v0.4c0,0.3-0.2,0.4-0.5,0.4
		l-0.5,0.4h-1v0.4v0.4c0,0.3-0.2,0.5-0.5,0.8l-0.5,0.4l-0.5,0.4c-0.3,0-0.5,0.3-0.5,0.8v0.4v0.4c0,0.3,0.2,0.3,0.5,0h0.5
		c0.3,0,0.6,0.1,1,0.4h0.5l0.5,0.4l-0.5,0.4v0.4h0.5c0.6,0.2,1,0.5,1,0.8c0,0.2-0.5,0.5-1.4,0.8c-0.3,0-0.6,0-1,0h-0.5v-0.4
		c-0.3,0-0.6,0.1-1,0.4v0.4c0,0.3,0.2,0.5,0.5,0.8h0.5h0.5v0.4v0.4c0.3,0.3,0.5,0.5,0.5,0.8v0.4v0.4c-1,0-1.4,0.3-1.4,0.8l0.5,0.4h1
		l0.5,0.4c-0.3,0.5-1,0.8-1.9,0.8c0,0.3,0.2,0.5,0.5,0.8c-0.3,0.3-0.8,0.5-1.4,0.8H227c-0.3,0.2-0.4,0.4-0.5,0.7
		c0.3,0.2,0.5,0.5,0.5,0.9c0,0.2-0.2,0.5-0.5,0.8H226c-0.3,0-0.7-0.1-1-0.4c-0.7-0.5-1.1-0.9-1.4-1.2h-0.5v0.4
		c0.3,0.3,0.8,0.6,1.4,1.2l0.5,0.4l1,0.4c1,0.8,1.4,1.6,1.4,2.3c0,0.3-0.2,0.4-0.5,0.4v0.4h-0.5c-0.6,0-1.1-0.1-1.4-0.4
		c0-0.2-0.2-0.5-0.5-0.8c-0.3-0.8-0.8-1.2-1.4-1.2l-0.5,0.4l-0.5-0.4v0.4l0.5,0.4v0.4c0,0.3-0.2,0.4-0.5,0.4h-0.5
		c0,0.5,0.8,0.9,2.4,1.2h0.5h0.9c0.7,0,1,0,1,0s0,0.1,0,0.4c-0.3,0-1,0.3-1.9,0.8H224C223.8,216.2,223.5,216.5,223.1,216.7z
		 M230.3,204.3l0.5-0.4h1v0.4h0.5l-0.5,0.4c-0.3,0.3-0.7,0.4-1,0.4v-0.4L230.3,204.3z M227.4,226l-0.5-0.4c-0.3,0-0.7,0-1,0v-0.4
		h0.5c0-0.3,0-0.5,0-0.8V224h-0.5h-0.5h-0.5l1-0.4c0.3,0,0.6,0,1,0v-0.4c-0.3,0-0.8-0.1-1.4-0.4c-0.6,0-0.9-0.1-0.9-0.4
		c0.3-0.3,0.6-0.3,0.9,0V222h0.5v-0.4h0.5c0,0.2,0.2,0.4,0.5,0.4v0.4v0.4l0.5,0.4c0.3,0,0.5-0.1,0.5-0.4h0.5c-0.3-0.2-0.3-0.4,0-0.4
		v0.4h0.5l1-0.4l0.5,0.4v-0.4c0.3,0,0.6,0,1,0h0.5h0.5h0.5c0.3-0.3,0.5-0.3,0.5,0c0-0.3,0.2-0.5,0.5-0.8c0,0.5,0.3,0.8,1,0.8
		l0.5-0.4h0.5v0.4c0,0.2,0,0.5,0,0.8l0.5,0.4c0.6,0,1,0.3,1,0.8c-0.3,0.3-0.7,0.5-1,0.8c-0.3,0.5-0.6,0.8-1,0.8h-1l-0.5,0.4
		c-0.6,0.3-1.3,0.4-1.9,0.4c-0.7,0-1.3,0-1.9,0l-1-0.4l-1-0.4L227.4,226L227.4,226z M300.3,325.4v0.4l-0.4-0.4h-0.5
		c0,1.3-0.2,2.6-0.5,3.9c0,0.5-0.2,1.1-0.5,1.6l-0.9,1.6v0.8v0.8c-0.3,0.5-0.6,1.1-0.9,1.6c-0.6,0.8-1.3,1.2-2.2,1.2
		c-0.6,0-1-0.1-1.3-0.4c-0.6-0.5-0.9-1-0.9-1.5l0.4-0.4v-0.4c-0.3-0.2-0.4-0.5-0.4-0.8v-0.8c0-0.2,0-0.5,0-0.8c0.3,0,0.6,0,0.9,0
		l0.4-2c0-0.2-0.1-0.5-0.4-0.8v-0.8v-0.4c0-0.8,0.3-1.3,0.9-1.6c0-0.3,0.3-0.4,0.9-0.4l0.4-0.4h0.4c0.3-0.3,0.7-0.8,1.4-1.6h0.4
		l0.5-0.8l0.4-0.4v-0.4v-0.4v-0.4c0.6,0,1,0.5,1.3,1.5v0.4l0.4,0.8C300.3,324.8,300.3,325.2,300.3,325.4z M309.1,291.9
		c-0.3,0-0.4,0-0.4,0s-0.2,0-0.5,0c0.3-0.3,0.6-0.4,0.9-0.4V291.9z M339,297.6c0,0.5-0.3,0.8-0.9,0.8c-0.6,0-0.9-0.4-0.9-1.2
		c0-0.2,0-0.5,0-0.8l0.4-0.8c0.3-0.5,0.5-1.1,0.5-1.6c0,0.3,0.1,0.5,0.4,0.8l0.4,0.4c0.3,0.5,0.4,1,0.4,1.6
		C339.4,297.1,339.3,297.4,339,297.6z M357.6,304.3l-0.4-0.4v-0.4v-0.4c0.3,0.3,0.4,0.5,0.4,0.8
		C357.9,304.2,357.9,304.3,357.6,304.3z M358.9,305.8c0,0.2,0,0.5,0,0.8v-0.4l-0.4-0.4v-0.4h0.4V305.8z M364.9,310.8l-0.4-0.4
		l-0.4-0.4v-0.4c-0.3,0-0.7-0.2-1.3-0.7l-0.4-0.4l-0.4-0.4c-0.6-0.5-1.1-1.3-1.7-2.3c0-0.3,0-0.5,0-0.8l-0.4-0.4v-0.4h-0.4h-0.4
		v-0.8l-0.4-0.4v-0.4c-0.3-0.3-0.6-0.5-0.9-0.8h-0.4v-0.4c-0.3-0.5-0.6-0.9-0.8-1.1h-0.4l-0.4-0.4l-0.4-0.4l-0.4-0.8v-0.4h0.4h0.4
		v0.4h1.3c0.6,0,1,0.4,1.3,1.1c0,0.3,0.1,0.4,0.4,0.4s0.6,0.1,0.9,0.4l0.4,0.4c0.8,1,1.6,1.5,2.1,1.5l0.4,0.4h0.4
		c0.3,0.3,0.4,0.5,0.4,0.8v0.4h0.4h0.4l-0.5,0.4c0,0.5,0.3,0.8,0.9,0.8c0,0.3,0.1,0.5,0.4,0.8v0.4l0.4,0.4h0.4v0.4
		c0.3,0,0.4,0.1,0.4,0.4v1.6c-0.3,0-0.4,0.1-0.5,0.4v0.4v0.4l-0.4,0.4L364.9,310.8z M366.7,306.8c0,0.3,0.1,0.4,0.4,0.4v0.4h-0.4
		v-0.4h-0.4v-0.4c0-0.2-0.1-0.4-0.4-0.4h-0.4c0-0.2,0.2-0.4,0.4-0.4c0-0.2,0.2-0.4,0.5-0.4v0.8L366.7,306.8z M370.9,313h-0.4
		c-0.9,0-1.6-0.1-2.2-0.3h-0.4h-0.4h-0.4l-0.4-0.4l-0.4-0.4l-0.4-0.4l0.5-0.4l0.4-0.4v0.4h0.4v-0.4h0.4c0.3,0,0.6,0.1,0.9,0.4
		l0.4,0.4c0.3,0,0.6,0.1,0.9,0.4c0.3,0,0.6,0,0.9,0h0.4l0.4-0.4h0.4h0.4l0.4,0.4c0.3,0,0.6,0,0.9,0h0.9h0.4l-0.9,0.4h-0.4
		c0.3,0.2,0.7,0.4,1.3,0.4h0.4v0.4h0.4h0.4l0.4,0.4h0.4h0.4h0.4v0.4c0,0.2-0.2,0.4-0.4,0.4l-0.4-0.4v-0.4l-0.5,0.4H376l-0.4-0.4
		c-0.3,0-0.4,0.1-0.4,0.4h0.4v0.4c-1.2-0.5-2.6-0.7-4.3-0.7L370.9,313z M368.4,307.6v-0.4h0.4v0.4
		C368.5,307.6,368.4,307.6,368.4,307.6z M370.7,302.9h0.4c0.3,0,0.6-0.1,0.9-0.4v-0.4v-0.4l0.5-0.4l0.4-0.4h0.4h0.4l0.5-0.4v-0.4
		h0.4c0-0.3,0-0.5,0-0.8h0.4h0.4v-0.4h0.4l0.4-0.4h0.4c0-0.3,0.2-0.5,0.5-0.8c0-0.3,0.2-0.4,0.4-0.4c0.3-0.8,0.6-1.2,0.9-1.2
		s0.4,0.4,0.4,1.2c0,0.3,0.1,0.4,0.4,0.4h0.4l0.4,0.4h0.4v0.4h-0.4l-0.4,0.4v0.4h0.4c-0.3,0-0.7,0.1-1.3,0.4v0.4
		c0,0.5,0.1,1,0.4,1.5c0.6,0.8,1,1.1,1.3,1.1c0,0.3-0.2,0.4-0.5,0.4h-0.4H379l-0.4,0.4v0.4v0.8c-0.3,0.3-0.5,0.5-0.5,0.8
		c-0.3,0-0.4,0.1-0.4,0.4l-0.4,0.4l0.4,0.4v0.4l-0.4,0.4c0,0.3,0,0.5,0,0.8H377l-0.5,0.4H376h-0.4v-0.4l-0.4-0.4h-0.4
		c-0.3-0.2-0.6-0.4-0.9-0.4l-0.5,0.4h-0.4h-0.4v-0.4v-0.4l-0.4,0.4h-0.4c-0.6,0-0.9-0.2-0.8-0.8v-0.4l-0.4-0.4v-0.4v-0.4l-0.4-0.4
		l-0.4-0.8c-0.3-0.3-0.4-0.5-0.4-0.8s0.3-0.4,0.9-0.4L370.7,302.9z M370.6,283.8c-0.6,0-0.9-0.3-0.9-0.8h-0.4c0-0.3,0.2-0.4,0.4-0.4
		v-0.4h0.4h0.4c0.6-0.5,0.9-0.8,0.9-0.8c0.3,0,0.4,0.1,0.4,0.4l0.4,0.4c0,0.2-0.3,0.7-0.9,1.2L370.6,283.8z M381.9,284.3
		c0-0.3,0.1-0.5,0.4-0.8h0.4c0,0.2,0.1,0.4,0.4,0.4h0.4v0.4l0.4,0.4v0.4v0.4v0.4l-0.4,0.4c0,0.3,0,0.5,0,0.8s0,0.6,0,1.2
		c0.3,0.3,0.6,0.4,0.9,0.4v-0.4h0.4l0.4,0.4v0.4h0.4v0.4h0.4v0.4l-0.9-0.4v-0.4h-0.4v0.4h-0.4v-0.4l-0.4-0.4h-0.4v0.4h-0.4l-0.4-0.4
		v-0.4h0.4v-0.4h-0.4h-0.4l-0.4-0.4v-0.4v-0.4v-0.4l0.4-0.4c0-0.3,0-0.5,0-0.8v-0.4L381.9,284.3z M382.5,277.7
		c0-0.2,0.2-0.8,0.5-1.6c0.3-0.5,0.6-0.8,0.9-0.8l0.4,0.4c0,0.5-0.2,1.1-0.5,1.6c0,1,0,1.6,0,1.6s-0.3,0-0.9,0
		C382.6,278.9,382.5,278.5,382.5,277.7z M386.9,292.8v-0.4V292v-0.4h-0.4v-0.4h0.4h0.4c0-0.2-0.1-0.5-0.4-0.8h-0.4V290h0.4l0.4,0.4
		h0.4c0,0.3,0,0.5,0,0.8v0.4v0.4h-0.4v0.4c0.3,0,0.4,0.1,0.4,0.4c0.3,0,0.4,0.1,0.4,0.4h0.4c0,0.2,0.1,0.8,0.4,1.6
		c0.3,0.5,0.4,0.9,0.4,1.1h-0.4v0.4c-0.3,0.3-0.5,0.5-0.5,0.8v-0.4v-0.4H388h-0.4v0.4h0.4v0.4c0,0.3-0.2,0.4-0.5,0.4h-0.4
		c-0.6,0-0.9-0.4-0.8-1.2c0-0.2,0.2-0.4,0.4-0.4l-0.4-0.4h-0.4v0.4l-0.4-0.4v0.4l-0.4-0.4v0.4v0.4c-0.3,0.3-0.6,0.4-0.9,0.4v-0.4
		c0.3,0,0.4-0.1,0.4-0.4h-0.4v-0.4l0.4-0.4c0.3,0,0.5-0.3,0.5-0.8h0.4h0.4l0.4,0.4h0.4v-0.4c0-0.2,0.1-0.4,0.4-0.4h0.4v-0.4v-0.4
		v-0.4h-0.4L386.9,292.8c0,0.5-0.2,0.8-0.5,0.8H386v-0.4h0.4v-0.4H386c-0.3,0.3-0.5,0.5-0.5,0.8c0.3,0,0.4,0.1,0.4,0.4h-0.4
		l-0.4-0.4l-0.4-0.4c0-0.3,0.2-0.4,0.5-0.4v-0.4c0.3-0.3,0.4-0.4,0.4-0.4h0.4h0.4c0,0.3,0,0.5,0,0.8H386.9z M382.7,305.3l0.4-0.4
		v0.4l0.9-0.4c0.6-0.3,1-0.4,1.3-0.4v0.4c-0.3,0-0.4,0.1-0.4,0.4h-0.4c-0.3,0.5-0.7,0.8-1.3,0.8l0.4,0.8l0.4,0.8c0,0.3,0,0.5,0,0.8
		h0.4v0.4H384l-0.4,0.4h-0.4v-0.4v-0.4c-0.3-0.2-0.4-0.5-0.4-0.8v-0.8h-0.4l-0.4,0.4v0.4l0.4,0.4c0,0.3,0,0.5,0,0.8v0.4v0.4
		c-0.3,0.5-0.6,0.8-0.9,0.8v-0.4c-0.3,0-0.4-0.1-0.4-0.4v-1.9h-0.4c-0.3,0-0.4-0.1-0.4-0.4s0.2-0.5,0.5-0.8v-0.4
		c0.3-0.3,0.4-0.5,0.4-0.8V305c0.3,0,0.4-0.1,0.5-0.4c0-0.5,0-0.9,0-1.2c0.6-0.5,1-0.8,1.3-0.8l2.6,0.3h0.4l0.4-0.4l0.4-0.4h0.4
		c0,0.5-0.2,0.9-0.5,1.2c0,0.3-0.3,0.4-0.9,0.4l-0.4-0.4c-0.3,0-0.6,0-0.9,0h-0.4h-0.9h-0.4c-0.3,0-0.4,0.1-0.4,0.4
		c-0.3,0-0.4,0.1-0.4,0.4s0,0.5,0,0.8C382.1,305.2,382.4,305.3,382.7,305.3z M381.2,315.1l-0.4-0.4h-0.4c0-0.2,0.2-0.4,0.4-0.4h0.4
		h0.4c0,0.2,0.1,0.4,0.4,0.4v0.4v0.4h-0.4v-0.4H381.2z M379.9,313.9l-0.4-0.4v0.4h-0.4h-0.4h-0.4h-0.4c0-0.5,0.3-0.8,0.9-0.8
		c0.3,0,0.6,0.1,0.9,0.4v-0.4h0.9v0.8H379.9z M381.6,313.9c-0.3,0-0.4-0.1-0.4-0.4s0.1-0.4,0.4-0.4h0.4h0.4h0.4v0.4
		c0.3,0,0.6,0,0.9,0l0.4-0.4h0.4c-0.3,0.3-0.6,0.5-0.9,0.8h-1.7H381.6z M382.7,289l0.4,0.4h0.4l0.4,0.4l-0.4,0.4c0,0.3,0,0.4,0,0.4
		L382.7,289z M385.5,315c0-0.3,0-0.5,0-0.8h0.4l0.4-0.4h0.4c0.3-0.2,0.7-0.4,1.3-0.4c0.6-0.3,0.9-0.3,0.9,0c0,0.2-0.3,0.4-0.9,0.4
		c-0.6,0.3-1,0.4-1.3,0.4v0.4c-0.3,0.3-0.4,0.5-0.4,0.8c-0.3,0-0.6,0-0.9,0L385.5,315z M388.2,307.9v-0.4v-0.4h0.4
		c0.3,0,0.4,0.1,0.4,0.4v0.4v0.4C388.8,308.3,388.5,308.2,388.2,307.9z M384.3,292.5c0-0.3,0-0.5,0-0.8v-0.4v-0.4l0.4,0.4h0.4v0.8
		l-0.5,0.4H384.3z M385.6,290.5h-0.4v-0.4h0.4l0.4,0.4v0.4c0,0,0-0.1,0-0.4H385.6z M382.2,292.1v0.4h-0.4c0,0.2-0.2,0.4-0.5,0.4
		c-0.3,0.5-0.4,0.9-0.4,1.2h-0.4l-0.4,0.4h-0.4c0.3-0.5,0.7-0.9,1.3-1.2l0.4-0.4c0.3-0.3,0.5-0.5,0.5-0.8H382.2z M398.4,344.6
		c0.6-0.3,1.1-0.3,1.7,0C399.6,344.8,399,344.8,398.4,344.6z M410.5,353c-0.3,0.8-0.7,1.2-1.3,1.2c-0.3,0-0.7-0.5-1.2-1.5
		c-0.6-0.7-0.8-1.4-0.8-1.9s0.3-0.6,0.9-0.4h0.4h0.4h0.4v0.4l0.9-0.4h0.4l0.4-0.4c-0.3-0.2-0.4-0.5-0.4-0.8h0.4v0.4v0.4v0.4v0.4
		c0.3,0.3,0.4,0.5,0.4,0.7C411.4,351.7,411.1,352.2,410.5,353z M417,336.4c0,0.5-0.2,0.9-0.5,1.2v0.8v0.4v0.4
		c-0.3,0.2-0.6,0.5-0.9,0.8l-0.4,0.8c-0.3,0.5-0.5,0.9-0.5,1.1c-0.3,0.3-0.4,0.5-0.4,0.8l-0.4,0.4v0.4c-0.3,0.8-0.5,1.4-0.5,1.9
		s-0.3,0.8-0.9,0.8c0,0.3-0.2,0.4-0.4,0.4l-0.9,0.4c-1.1,0.3-1.7,0.7-1.7,1.2l-0.8-0.4c-0.6-0.2-0.8-0.5-0.8-0.7
		c-0.3,0-0.6,0.1-0.8,0.4v0.4c-0.3,0-0.6,0-0.9,0c-0.9,0-1.7-0.1-2.5-0.3c-0.8-0.5-1.3-1.1-1.2-1.9c0-0.2-0.1-0.5-0.4-0.8v-0.4v-0.4
		c-0.3,0-0.6,0-0.9,0h-0.4v-0.4v-0.4v-0.4v-0.4h-0.4v0.4v0.4H400c0,0.2-0.2,0.4-0.4,0.4h-0.4v-0.4c0.3,0,0.6-0.4,0.9-1.2
		c0.3-0.2,0.4-0.5,0.5-0.8c0-0.2,0-0.5,0-0.8c-0.3,0.3-0.6,0.5-0.9,0.8v0.4l-0.4,0.4c-0.6,0.8-1,1.2-1.3,1.2s-0.4-0.3-0.4-0.8
		l-0.4-0.8l-0.4-0.8l-0.4-0.8c-0.3-0.3-0.8-0.5-1.7-0.7c-0.8-0.2-1.7-0.3-2.6-0.3c-0.6,0-1,0.2-1.3,0.4l-0.5,0.4
		c-0.3,0-0.4,0.1-0.4,0.4c-0.6,0-1.1,0-1.7,0h-0.9l-0.5,0.4c-1.1,0-1.7,0.4-1.7,1.2l-0.9,0.4h-0.4c-0.3,0-0.7,0-1.3,0h-0.4h-0.4
		c-0.6,0-1.2,0.3-1.7,0.8c-0.6,0.3-1.2,0.4-1.7,0.4c-0.6,0-1.1-0.1-1.7-0.3c-0.6-0.2-0.8-0.5-0.8-0.7v-0.4l0.4-0.4
		c0.3-0.3,0.5-0.6,0.5-1.2c0-0.3-0.1-0.6-0.4-1.2l-0.4-0.4v-0.8c-0.5-1.8-0.8-2.9-0.8-3.5l-0.4-0.4l-0.4-0.4c0-0.3,0-0.5,0-0.8v-0.4
		h0.4c0-0.2-0.1-0.5-0.4-0.8c0-0.2,0-0.5,0-0.8v-0.4l0.1-2.3v-0.4h0.4v0.4c0.3,0,0.7-0.3,1.3-0.8l0.4-0.4l0.5-0.4
		c0-0.3,0.3-0.4,0.9-0.4h0.9l0.4-0.4h0.4c0.3,0,0.7-0.1,1.3-0.4c0.3,0,0.7-0.1,1.3-0.4c1.1-0.5,1.7-1.2,1.8-2v-0.4
		c0-0.5,0.2-0.9,0.4-1.2c0.3,0.2,0.4,0.5,0.4,0.8h0.4v-0.4l0.5-0.4v-0.4l0.4,0.4h0.4c0-0.5,0-0.9,0-1.2l0.4-0.4
		c0.3-0.3,0.4-0.5,0.4-0.8c0.3,0,0.6,0,0.9,0c0.3-0.5,0.6-0.8,0.9-0.8s0.6,0.3,0.8,0.8c0.3,0.3,0.4,0.5,0.4,0.8
		c0.3-0.3,0.6-0.4,0.9-0.4l0.4,0.4v-0.4v-0.4c0-0.3,0.2-0.5,0.5-0.8l0.4-0.4v-0.4c0-0.3,0.3-0.5,0.9-0.8c0.6,0,1,0,1.3,0l0.4-0.4
		v-0.4l-0.4-0.4h0.4l0.4,0.4l0.8,0.4c0.6,0.3,1.1,0.4,1.7,0.4c0.3,0,0.4-0.1,0.5-0.4h0.4h0.4l0.4,0.4c0,0.3-0.2,0.5-0.4,0.8h-0.4
		l-0.5,2.3h0.4h0.4v0.4v0.4h0.4c0,0.2,0.1,0.4,0.4,0.4l0.8,0.4c0.3,0,0.7,0.1,1.3,0.3l0.4,0.4c0.3,0.5,0.5,0.8,0.8,0.8
		c0.6,0,1-0.6,1.3-1.6c0-0.3,0-0.5,0-0.8l0.5-0.8l0.1-3.9l0.4-0.4c0.3-0.2,0.5-0.5,0.5-0.8c0,0.5,0.1,0.9,0.4,1.2l0.4,0.8v0.8v0.8
		c0,0.3,0.1,0.5,0.4,0.8c0.3,0,0.6,0,0.9,0h0.4c0.3,0.3,0.4,0.6,0.4,1.1v0.8c0,0.3,0.1,0.4,0.4,0.4c0,0.2,0,0.5,0,0.8l0.4,0.4
		c0,0.5,0.1,0.9,0.4,1.2c0,0.5,0.3,0.9,0.8,1.1l0.8,0.4c0.3,0.3,0.6,0.5,0.8,0.7l0.4,0.8v0.4v0.4l0.4,0.4h0.9c0,0.8,0.2,1.4,0.8,1.9
		l0.4,0.4h0.4c0.3,0.2,0.4,0.5,0.4,0.8c0.3,0.2,0.5,0.9,0.8,1.9c0.2,0.8,0.4,1.5,0.3,2.3C417.4,335.6,417.2,335.9,417,336.4z
		 M393.4,307.8H393h-0.4v-0.4c-0.3,0-0.6,0-0.9,0h-0.9h-0.9c0-0.2,0.2-0.4,0.4-0.4h1.7h0.4h0.4v0.4
		C393.3,307.4,393.4,307.6,393.4,307.8z M402.4,260.6h0.4c0.3-0.3,0.7-0.8,1.3-1.6c0.6-0.5,0.9-1.2,0.9-2l-0.4-0.4
		c0-0.2,0.2-0.5,0.5-0.8c0-0.5,0.1-0.8,0.4-0.8l0.4,0.4V255h0.4v0.4v0.4c0,0.3,0.1,0.4,0.4,0.4v0.4c0,0.3,0,0.5,0,0.8v0.4v0.4
		c-0.3,0-0.4,0.1-0.5,0.4v0.4h-0.4v0.8v0.8v0.4h-0.4v0.4v0.4v0.4v0.4L405,263l-0.5,0.4V263v-0.4c-0.6,0.5-0.9,0.9-0.9,1.2v-0.4h-0.4
		l-0.5,0.4h-0.4h-0.4c-0.3,0-0.4-0.1-0.4-0.4s-0.1-0.4-0.4-0.4v0.4v0.4l0.4,0.4h-0.4c-0.3,0-0.4,0.1-0.4,0.4
		c-0.3,0.3-0.6,0.5-0.9,0.8V265h-0.4v-0.4l0.5-0.4v-0.4h-0.4h-0.4c0-0.3-0.1-0.4-0.4-0.4s-0.4,0.1-0.5,0.4c0.6,0,0.9,0.2,0.8,0.8
		c-0.3,0.5-0.6,0.8-0.9,0.8l-0.4-0.4v0.4l-0.5,0.4c0,0.3,0,0.4,0,0.4s-0.1,0-0.4,0l-0.4-0.4v-0.4V265l0.9-0.4l0.5-0.4h0.4v-0.4h-0.4
		h-0.4l-0.4,0.4h-0.4c-0.3,0.3-0.6,0.4-0.9,0.4h-0.4h-0.4l0.4,0.4h0.4v0.4l0.4,0.4v0.4h-0.4c0,0.2,0,0.5,0,0.8l-0.4,0.4
		c0,0.5-0.2,0.8-0.5,0.8s-0.4-0.1-0.4-0.4c-0.3,0-0.4-0.1-0.4-0.4l0.5-0.4l0.4-0.8h-0.4h-0.4h-0.4c0-0.3,0-0.4,0-0.4
		c0-0.2,0.1-0.4,0.4-0.4c0.3-0.5,0.6-0.8,0.9-0.8v-0.4h0.4l0.4-0.4l0.9-0.8c0.3-0.3,0.6-0.4,0.9-0.4h2.6l0.4-0.4l0.5-0.4v-0.4
		c0,0,0.1,0,0.4,0v-0.8h0.4v0.4C401.8,260.9,402.1,260.8,402.4,260.6z M407.3,240.1v-0.4c0-0.5,0-0.9,0-1.2c0-0.5,0.3-0.8,0.9-0.8
		v-0.4v-0.4v-0.8c0,0.5,0.1,0.9,0.4,1.2v0.4l0.4,0.4v0.4v0.4c0,0.3,0,0.5,0,0.8v0.8v0.4v0.4v0.4l0.4,0.8l0.4,0.4
		c0,0.5,0.1,0.9,0.4,1.2c-0.3-0.3-0.6-0.4-0.9-0.4c-0.6,0-0.9,0.3-0.9,0.8c-0.3,0.3-0.4,0.8-0.5,1.6c0,0.3,0.1,0.7,0.4,1.2l0.4,0.4
		l0.4,0.4h-0.4v-0.4h-0.4c-0.3,0-0.4,0.1-0.4,0.4l-0.5,0.4c-0.3,0-0.3-0.1,0-0.4v-0.4v-0.4v-0.8v-0.4v-0.4v-0.4v-0.4
		c-0.3,0-0.4-0.1-0.4-0.4l0.4-0.4c0-0.3,0-0.5,0-0.8l0.1-2.4L407.3,240.1z M407.9,249.9l0.4,0.4v0.4c0.6,0.3,1.1,0.4,1.7,0.4h0.4
		h0.4v0.4c0,0,0.2-0.1,0.4-0.4c0.3-0.3,0.6-0.4,0.9-0.4c0,0.3-0.2,0.4-0.4,0.4v0.4l-0.5,0.4c-0.3,0-0.4-0.1-0.4-0.4
		c-0.3,0-0.4,0.1-0.5,0.4h0.4c0,0.3,0.1,0.4,0.4,0.4c-0.6,0.3-1,0.4-1.3,0.4s-0.6,0.1-0.9,0.4l-0.4,0.4v0.4h-0.4l-0.4-0.4
		c-0.3,0-0.6-0.1-0.9-0.4l-0.5,0.4h-0.4c-0.6-0.2-0.9-0.2-0.9,0c0,0.3,0.1,0.4,0.4,0.4l0.4,0.4l-0.5,0.4h-0.4v-0.8l-0.4-0.4l0.5-0.4
		v-0.4h0.4v-0.4h0.4c0.3,0,0.6-0.3,0.9-0.8c0-0.3,0-0.5,0-0.8v-0.4v-0.4v-0.4C407.3,249.5,407.6,249.6,407.9,249.9z M413.9,309.3
		h0.4h0.4l0.9-0.4l0.4-0.4v-0.4l0.4-0.4l0.4,0.4v0.4c0,0.3-0.2,0.5-0.5,0.8c-0.3,0-0.4,0.1-0.4,0.4c-0.3,0-0.4,0.1-0.4,0.4h-0.4
		c-0.3,0.3-0.6,0.4-0.9,0.4s-0.4-0.1-0.4-0.4h-0.4l-0.4-0.4c-0.3,0-0.4-0.1-0.4-0.4H413.9z M413,250.2c0.3-0.5,0.5-0.8,0.5-0.8
		s0.2,0,0.4,0h0.4h0.4c-0.6,0-0.9,0.1-0.9,0.4C413.6,250.1,413.3,250.2,413,250.2z M412.9,313.2h0.4v0.4v0.4h0.4h0.4v0.4h0.4h0.4
		l-0.4,0.4v0.4c-0.3,0-0.6-0.1-0.8-0.4h-0.9c-0.6,0-1-0.1-1.3-0.3c-0.3-0.3-0.4-0.5-0.4-0.8h-0.4v-0.4l-0.4-0.4l-0.8-0.8
		c-0.3-0.3-0.7-0.4-1.3-0.4c-0.3,0-0.6,0.1-0.9,0.4l-0.4,0.4c0,0.3,0,0.5,0,0.8h-0.4h-1.3c-0.6,0-1-0.1-1.3-0.3l-0.4-0.4
		c-0.3,0-0.6,0-0.9,0h-0.4h-0.9h-0.4v-0.4c0-0.3,0.2-0.4,0.4-0.4h0.4v-0.4c-0.3-0.3-0.4-0.5-0.4-0.8v-0.4v-0.4
		c0-0.3-0.3-0.5-0.8-0.8h-0.4v-0.4h-0.4c-0.3,0-0.6,0-0.9,0c-0.3-0.2-0.7-0.4-1.3-0.4l-0.4-0.4c-0.3-0.2-0.6-0.4-0.8-0.4v0.4h-0.4
		h-0.4v-0.4c0-0.3-0.1-0.4-0.4-0.4v-0.4c-0.3,0-0.4-0.1-0.4-0.4h0.4h0.4c0.6,0,0.9-0.1,0.9-0.4c-0.3,0-0.7,0-1.3,0h-0.4l-0.4-0.4
		V305h-0.4l-0.4-0.4v-0.4h0.4l0.4-0.4h0.4l0.4-0.4c0.3,0,0.6,0.1,0.8,0.4l0.4,0.4h0.4v1.6c0,0.3,0.3,0.4,0.8,0.4v0.4
		c0.3,0.3,0.6,0.4,0.8,0.4v-0.4l0.4-0.4c0.3-0.2,0.6-0.4,0.9-0.4l0.4-0.4h0.4l0.5-0.8c0,0.2,0.1,0.4,0.4,0.4s0.6,0.1,0.8,0.4
		l0.4,0.4h0.9h0.4c0,0.3,0.1,0.4,0.4,0.4c0.6,0.5,1.4,0.7,2.6,0.7h0.4l0.4,0.4c0,0.3,0.1,0.4,0.4,0.4h0.4c0.3,0.3,0.6,0.5,0.8,0.8
		l0.4,0.4v0.4l0.4,0.4h0.4h0.4c0.3,0,0.4,0.3,0.4,0.8l-0.4,0.4v0.8h0.4c0.3,0.3,0.4,0.5,0.4,0.8v0.4l0.4,0.4L412.9,313.2z
		 M397.6,309.7v0.4c0,0.3-0.2,0.4-0.4,0.4v0.4v0.4h-0.4c0-0.2,0-0.5,0-0.8h0.4v-0.4C397.2,309.8,397.4,309.7,397.6,309.7z
		 M393.6,316.3v0.4h-0.4h-0.4c-0.3,0-0.4-0.1-0.4-0.4C392.9,316.3,393.3,316.3,393.6,316.3z M391,302.4v0.4v0.4l-0.4,0.4h-0.4
		l0.4,0.4v0.4c-0.3,0-0.4-0.1-0.4-0.4v-0.4v-0.4v-0.4v-0.4l-0.4-0.4c0-0.5,0.2-0.8,0.4-0.8c0,0.5,0.3,0.8,0.8,0.8V302.4z
		 M417.8,308.1h-0.4c-0.3,0-0.3-0.3,0-0.8c-0.3,0-0.6-0.1-0.8-0.4v-0.4h-0.4l-0.4-0.4c0.3,0,0.6,0.1,0.8,0.4l0.4,0.4l0.4,0.4
		l0.4,0.4V308.1z M415.6,248.6v-0.4h0.4l0.4-0.4c0,0.3,0,0.5,0,0.8c-0.3,0-0.4,0-0.4,0S415.9,248.6,415.6,248.6
		C415.7,248.6,415.7,248.6,415.6,248.6z M420.3,310.3v0.4l-0.4-0.4v-0.4c-0.3,0-0.4-0.2-0.4-0.8c0.3,0,0.4,0.1,0.4,0.4
		c0.6,0.2,0.8,0.5,0.8,0.8H420.3z M424,312.2l-0.8-0.4v-0.4h0.9c0,0.3,0.1,0.4,0.4,0.4L424,312.2z M425.2,314.1l-0.4-0.4
		c0.6,0,1,0.1,1.3,0.4C425.8,314.1,425.5,314.1,425.2,314.1z M425.3,312.1c0.6,0.2,1,0.6,1.2,1.1c-0.3,0-0.6-0.1-0.8-0.4
		L425.3,312.1z M426.9,314.4c-0.3,0-0.4-0.1-0.4-0.4c0.6,0.2,0.8,0.5,0.8,0.7C427.1,314.8,426.9,314.7,426.9,314.4z M438,351.9
		c-0.3,0.5-0.6,0.8-0.9,0.8v0.4v0.4v0.4h-0.8h-0.4c-0.3,0.5-0.8,1.4-1.4,2.7c-0.3,0.3-0.6,0.5-0.9,0.8l-0.4,0.4h-0.4l-0.4-0.4
		c-0.3,0-0.7-0.1-1.3-0.3c-0.3,0-0.4-0.1-0.4-0.4h-0.4c0-0.5,0.3-0.9,0.9-1.2l0.5-0.8c0.3,0,0.4-0.1,0.4-0.4c0-0.2,0.2-0.4,0.4-0.4
		c0.3,0,0.7-0.1,1.3-0.4l0.4-0.4l0.4-0.4c0.3-0.2,0.6-0.6,0.9-1.2c0-0.5,0.3-0.8,0.9-0.8c0-0.2,0-0.5,0-0.8c0.3-0.3,0.6-0.5,0.9-0.8
		v0.4v0.4c0,0.3,0.1,0.4,0.4,0.4l0.4-0.4c0,0,0.1,0,0.4,0c0,0.5,0.1,0.8,0.4,0.7C438.6,350.9,438.3,351.3,438,351.9z M443.2,345.6
		c0,0.3,0,0.5,0,0.8l-0.5,0.8v0.4h-0.4c-0.6,0-0.8,0.2-0.9,0.4v0.4h0.4l-0.4,0.4v0.4l-0.4,0.4l-0.4,0.4c-0.3,0.5-0.6,0.8-0.9,0.8
		s-0.4-0.2-0.4-0.7v-0.4l0.4-0.4v-0.4l-0.4-0.4h-0.4l-0.4-0.4c-0.3,0-0.4-0.1-0.4-0.4l0.4-0.4h0.4c0.3-0.3,0.4-0.8,0.5-1.5v-0.4V345
		H439v-0.4v-0.4v-0.4c-0.6,0-1-0.2-1.2-0.7c-0.3-0.5-0.4-1-0.4-1.5c0,0.2,0.3,0.5,0.8,0.7h0.4v0.4h0.4v0.4v0.4
		c0,0.3,0.1,0.5,0.4,0.7c0,0.3,0.1,0.4,0.4,0.4c0-0.2,0.2-0.4,0.4-0.4h0.4c0,1,0.4,1.5,1.2,1.5h0.4l0.4-0.4c0,0,0.1,0,0.4,0
		L443.2,345.6z M444,322.4h-0.4h-0.4h-0.4c0-0.3,0.2-0.5,0.5-0.8h0.4c0,0.2,0.1,0.4,0.4,0.4L444,322.4z M445.3,320.9h-0.4v0.4h-0.4
		c-0.3,0-0.4,0-0.4,0s0-0.1,0-0.4l0.9-0.4h0.4L445.3,320.9z M442.8,205.8c0.6-0.5,1-0.8,1.3-0.8s0.7,0.1,1.3,0.4
		c0.6,0.3,0.8,0.5,0.8,0.8s-0.6,0.4-1.7,0.4c-0.3,0-0.6,0.1-0.9,0.4c-0.3,0-0.6,0-0.9,0s-0.4-0.1-0.4-0.4S442.5,206,442.8,205.8z
		 M437.9,208.6l0.4,0.4c0,0.3,0,0.4,0,0.4s-0.2,0-0.4,0c-0.6,0-1-0.3-1.3-0.8L437.9,208.6z M414.8,197.2c0.6,0,1,0,1.3,0l0.9,0.4
		h0.4v0.4l-0.5,0.4c-0.6,0-0.9,0-0.9,0s-0.2,0-0.4,0c-0.6,0-1.2-0.1-1.7-0.4c-0.6-0.3-0.9-0.5-0.8-0.8l-0.4-0.4L414.8,197.2z
		 M402.7,195.6c0.3-0.3,0.7-0.4,1.3-0.4c0.3,0,0.6,0.1,0.9,0.4l0.4,0.4l0.4,0.4h0.4c0-0.5,0.3-0.8,0.9-0.8c0.3,0,0.9,0.1,1.7,0.4
		h0.4l0.9,0.4c0.3,0,0.6,0,0.8,0l-0.4,0.4v0.4c-0.3,0.3-0.4,0.5-0.4,0.8h-0.9c-0.3,0-0.6,0-0.9,0h-0.4h-0.4H407h-0.4h-0.4v0.4h-0.4
		c-0.3,0-0.6-0.1-0.9-0.4v0.4c-0.3,0.3-0.5,0.4-0.5,0.4s-0.1,0-0.4,0s-0.7-0.3-1.3-0.8c-0.3-0.3-0.4-0.7-0.4-1.2
		C402.2,196.3,402.4,195.9,402.7,195.6z M405.8,201.3c0.5-0.6,1-0.9,1.5-0.9c1.1,0,1.7,0.5,1.7,1.6h-0.9c-0.3-0.3-0.7-0.4-1.3-0.4
		h-0.4L405.8,201.3c-0.1,0.1-0.2,0.2-0.2,0.3v-0.4L405.8,201.3z M405.6,200c0-0.3,0.1-0.4,0.4-0.4s0.4,0,0.4,0s0,0.1,0,0.4v0.4H406
		C405.7,200.4,405.6,200.3,405.6,200z M400.5,196l0.4,0.4v0.4c-0.3,0.3-0.4,0.4-0.4,0.4c-0.3,0-0.4-0.1-0.4-0.4
		C400,196.6,400.2,196.3,400.5,196z M372,190.5h0.4v0.4c-0.3,0.3-0.5,0.4-0.5,0.4l-0.4-0.4h-0.4C371.4,190.6,371.7,190.5,372,190.5z
		 M365,188.9v-0.4c0.6-0.5,1.2-0.8,1.8-0.8h0.4v0.8h0.5v-0.4h0.4c0.3,0,0.7,0.1,1.3,0.4c0.6,0.6,0.8,0.9,0.8,1.2s-0.4,0.5-1.3,0.8
		c-0.3,0-0.6,0.1-0.9,0.4c-0.3,0-0.6-0.1-0.9-0.4l-1.3,0.4l-1.8,0.4c-0.6,0-0.9,0-0.9,0s0-0.1,0-0.4c0-0.3,0.2-0.5,0.4-0.8h0.5
		c0-0.3,0.1-0.5,0.4-0.8L365,188.9z M356.2,184.1l0.5-0.4c0.9-0.6,1.6-0.8,2.2-0.8c0.6,0,1,0.1,1.3,0.4l0.4,0.4l0.4,0.4
		c0,0.3-0.2,0.4-0.4,0.4v0.4v0.4c-0.3,0.3-0.6,0.4-0.9,0.4c0.3,0,0.6,0,0.9,0s0.6,0.1,0.9,0.4h0.4h0.9c0.3,0,0.7,0.3,1.3,0.8
		c-0.3,0.3-0.5,0.5-0.5,0.8s-0.2,0.4-0.4,0.4l-0.5,0.4h0.5v0.4v0.4h-0.5c-0.3,0-0.7,0-1.3,0c-0.3,0-0.6-0.1-0.9-0.4
		c-1.2-0.3-1.9-0.4-2.2-0.4s-0.8-0.1-1.3-0.4l-0.4-0.4l-0.4-0.4c0.3-0.3,0.6-0.4,0.9-0.4l0.9-0.4c0.3-0.3,0.5-0.4,0.5-0.4h-0.9
		c-0.9,0-1.9-0.4-3.1-1.2c0.6,0,1-0.1,1.3-0.4L356.2,184.1z M357.6,193.3c0,0.6,0,0.8,0,0.8s-0.2,0-0.5,0h-0.4v-0.4v-0.4h0.4
		L357.6,193.3z M355.8,186.9h-0.5h-0.4h-0.5H354c0-0.6,0-0.8,0-0.8c0-0.3,0.1-0.4,0.4-0.4h0.5l0.9,0.4h0.4
		C356.2,186.6,356,186.9,355.8,186.9z M354.5,182.9v0.4h-0.4h-0.5c-0.3,0-0.6-0.1-0.9-0.4H354.5z M344.2,201h0.4h0.5
		c0.3,0,0.6,0,0.9,0s0.6-0.3,0.9-0.8v-0.4v-0.4c0.3-0.3,0.6-0.4,0.9-0.4c1.2-1.1,3-2,5.4-2.8c0.3,0,0.7-0.1,1.3-0.4
		c0.3,0,0.7,0,1.3,0c0.9-0.3,1.5-0.4,1.8-0.4c-0.3,0.8,0.3,0.9,1.8,0.4c0.9,0,1.6-0.1,2.2-0.4c0.6-0.3,1-0.6,1.4-0.8
		c0-0.3,0.3-0.6,0.9-0.8v-0.4l0.4-0.4c0.9-0.5,1.6-0.8,2.2-0.8c1.7,0,2.8,0.7,3,2h5c4.1,1.1,4.9,2.4,2.6,4c-0.3,0.3-0.9,0.7-1.8,1.2
		l-0.9,0.4l-0.9,0.4c-1.2,0.8-1.9,1.2-2.2,1.2c-0.3,0.5-0.3,0.8,0,0.8c0.6,0.3,1.9-0.5,4-2.4c0.3,0.8,1.7,1.5,4.4,2l1.3,0.4h0.9h0.4
		l0.7,0.4h4.4c0-1.3,0.6-1.9,1.8-1.6c3.2,0.3,4.9,0.8,5.2,1.6c0,0.3,0,0.5,0,0.8l-0.4,0.4c0,0.8,0.1,1.5,0.4,2
		c0.6,0.8,1.1,1.2,1.7,1.2c0.3,0,0.6-0.1,0.9-0.4c0-0.3,0-0.5,0-0.8v-0.4c0.3,0,0.6,0,0.9,0s0.6,0.1,0.9,0.4
		c0.3,0.3,0.6,0.4,0.9,0.4h6.1c0.3-1.1,0.6-1.7,0.9-2c0.6-0.8,1.6-1.2,3.1-1.2c2.6,0,5.2,0.5,7.8,1.6c0.3,0,0.7,0.3,1.3,0.8v0.8
		c0.3,0,0.6,0.1,0.9,0.4c0.3,0.3,0.9,0.4,1.7,0.4h0.9h0.4c0.6-0.3,1-0.4,1.3-0.4c2.3,0,3.7,0.9,4.2,2.7l8.6,0.4
		c0.3,0,0.6,0.1,0.8,0.4l0.9,0.4c0,0.3,0.1,0.4,0.4,0.4c0.8,0.5,1,0.1,0.5-1.2c0-0.5,0.7-0.8,2.2-0.8c2,0,4,0.4,6,1.1
		c1.7,0.5,2.5,0.8,2.5,0.8s0.8,0.5,2.5,1.6c0.6,0.3,1.3,0.5,2.1,0.8l1.3,0.8l0.8,0.4c2,0.8,3.2,1.6,3.8,2.3
		c-1.2,0.5-1.9,0.9-2.2,1.2c-0.3,0-0.4,0.1-0.5,0.4v0.4c-0.3,0.5-0.6,0.8-0.9,0.8c-0.6,0-1.5-0.5-2.9-1.6c-0.6-0.5-1.1-0.8-1.7-0.8
		c-0.5-0.5-1.1-0.8-1.7-0.8c-0.3,0-0.4,0.3-0.4,0.8v0.4v0.4l-0.9,0.4l-0.9,0.4c-0.6,0.3-0.9,0.8-0.9,1.6l0.4,0.4l0.4,0.4
		c0.3,0.3,0.4,0.5,0.4,0.8c0.5,0.8-0.3,1.2-2.6,1.2c-0.6,0-1.3,0.3-2.2,0.8c-0.3,0.3-0.6,0.5-0.9,0.8l-1.3,0.8c-1.8,1.3-6.2,2-7.4,2
		c-0.3,0-0.7-0.1-1.3-0.4c-0.3,0-0.6-0.1-0.8-0.4c-0.3,0-0.6,0-0.9,0c-1.4,0-2.9,1.3-4.4,4c0,0.5,0,0.9,0,1.2v0.4v0.4v0.4h-0.4v0.4
		c-0.3,0.3-0.4,0.5-0.4,0.8c-0.3,0.3-0.5,0.5-0.5,0.8s-0.2,0.4-0.4,0.4v0.4h-0.4c-0.6,0.5-0.7,0.9-0.5,1.2c-0.9,0.3-1.5,0.8-1.8,1.6
		l-0.5,0.8l-0.4,0.4c-0.3,0.5-0.5,0.9-0.5,1.2c-0.6-0.5-1-1.7-1.2-3.5c0-0.5,0-1.2,0.1-2c-0.3-0.8-0.4-1.3-0.4-1.6
		c0-0.8,0.3-1.4,0.9-2c0.3-0.3,0.6-0.5,0.9-0.8s0.6-0.4,0.9-0.4c0.3-0.3,0.7-0.8,1.4-1.6l0.9-0.8l0.5-1.2c0.3-0.3,0.7-0.5,1.3-0.8
		h0.4c0.3-0.3,0.6-0.4,0.9-0.4c1.5-0.8,2-1.6,1.8-2.4c-0.3,0-0.4-0.1-0.4-0.4c-0.3,0-0.6,0-0.9,0c-0.9,1.3-1.7,2.1-2.2,2.4
		c-0.6,0.5-1,0.7-1.3,0.4v-0.8c0-0.3,0.1-0.5,0.4-0.8c-0.6,0-1,0-1.3,0h-0.4h-0.4c-2.3,0-3.9,0.5-4.9,3.4H416l-1.3-0.4
		c-0.6-0.2-1.1-0.4-1.7-0.4c-0.9,0-2.2,0.2-3.9,0.4c-1.7,0,0.1,1.2-0.5,1.4c-0.6,0.3-1.5,0.8-2.6,1.6c0,0.3-0.3,0.7-0.9,1.2
		l-0.5,0.4l-0.4,0.4c-0.3,0.3-0.6,0.5-0.9,0.8l-0.5,0.4l-0.4,0.4c-0.9,0.5-1.3,1.1-1.4,1.6v0.4l0.4,0.4c0,0.3,0.1,0.5,0.4,0.8
		c0.9,0.5,1.7,0.4,2.6-0.4c0.3-0.3,0.7,0,1.3,0.8c0.8,0.8,1.2,1.5,1.2,2c0,0.3-0.2,0.7-0.5,1.2v0.4l-0.5,0.4
		c-0.3,0.5-0.5,1.1-0.5,1.6v0.4v0.8c0,0.5-0.3,1.2-0.9,2c0,0.5-0.3,0.9-0.9,1.2c-0.3,0.3-0.7,0.8-1.4,1.6l-0.5,1.2l-0.9,0.8
		c-1.2,1.8-2.2,2.8-3.1,2.8c-0.6,0-1.2-0.1-1.7-0.4h-0.4h-0.4c-0.9,0.5-1.5,1.3-1.8,2.4l-0.5,0.4l-0.4,0.4l-0.5,0.4
		c-0.3,0.3-0.7,0.4-1.3,0.4c0,0.3,0.1,0.5,0.4,0.8v0.4h0.4c0.8,1,1.2,2.2,1.2,3.5c0,0.8-0.3,1.2-0.9,1.2v0.4h-0.4
		c-0.3,0-0.4,0.1-0.5,0.4c-0.6,0-0.9,0.1-0.9,0.4h-0.9c0-0.3,0.2-0.4,0.5-0.4v-0.4v-0.4v-0.4v-0.4v-0.4v-0.4h-0.4v-0.4
		c0.6,0,0.9-0.3,0.9-0.8c0-0.3-0.1-0.4-0.4-0.4s-0.6,0-0.9,0h-0.4l-0.4-0.4v-0.4l0.4-0.4v-0.4v-0.4v-0.4h-0.4h-0.4
		c0-0.3-0.2-0.4-0.4-0.4c-0.3,0-0.6,0-0.9,0c-0.3,0.3-0.6,0.4-0.9,0.4l-0.4,0.4l-0.9,0.4c0-0.3,0-0.5,0-0.8l0.4-0.4l0.5-0.4
		c0-0.2-0.1-0.4-0.4-0.4l-0.4-0.4h-0.4l-0.4,0.4c0,0.2-0.3,0.5-0.9,0.8v0.4h-0.4l-0.4,0.4h-0.4v0.4H381c-0.3,0-0.4,0.1-0.5,0.4
		c0,0.3,0.1,0.4,0.4,0.4v0.4c0.3,0,0.4,0.1,0.4,0.4c0.3,0.3,0.4,0.5,0.4,0.8c0.3,0,0.6,0,0.9,0h0.4v-0.4l0.5-0.4h0.4l0.4,0.4h0.4
		h0.4c0.3,0,0.4,0.1,0.4,0.4c-0.3,0-0.4,0.1-0.4,0.4h-0.9v0.4c-0.9,0.3-1.3,0.5-1.3,0.8l-0.4,0.4v0.4c-0.3,0-0.5,0.1-0.5,0.4
		s0.1,0.4,0.4,0.4c0,0.3,0.1,0.4,0.4,0.4c0,0.3,0,0.5,0,0.8h0.4v0.4v0.4v0.4c0.8,1,1.2,2.1,1.2,3.1c0,0.5-0.2,0.9-0.5,1.2v0.4
		c0,0.3,0,0.5,0,0.8c-0.3,0-0.7,0.3-1.3,0.8c0,0.3-0.2,0.5-0.4,0.8c0,0.3-0.2,0.5-0.5,0.8v0.4c-0.3,0.3-0.4,0.5-0.4,0.8
		c-0.3,0.5-0.6,0.8-0.9,0.8c0,0.2-0.3,0.5-0.9,0.8l-0.5,0.4l-0.4,0.4l-0.5,0.4c-0.6,0.3-1.2,0.4-1.7,0.4H376l-0.4-0.4
		c-0.3,0-0.5,0.3-0.5,0.8c-0.3,0.3-0.6,0.4-0.9,0.4l-0.9,0.4h-0.4h-0.4l-0.9,0.4v0.4v0.4c0,0.3-0.2,0.4-0.4,0.4
		c-0.3,0-0.4-0.3-0.4-0.8v-0.4c0-0.3-0.3-0.4-0.9-0.4h-0.4h-0.4c0,0.3-0.3,0.5-0.9,0.8v0.4l-0.9,0.4c-0.6,0.5-0.9,1-0.9,1.6v0.4
		l0.4,0.4c0.3,0,0.4,0.1,0.4,0.4l0.4,0.8c0.6,0.5,1,0.9,1.3,1.2c0.6,0.2,0.9,0.7,0.8,1.5c0.6,0.5,0.8,1.2,0.8,1.9
		c0,0.3-0.2,0.7-0.4,1.2v0.4l-0.5,0.4c-0.3,0-0.6,0.3-0.9,0.8h-0.9c0,0.3-0.2,0.4-0.4,0.4c0,0.2-0.2,0.4-0.5,0.4
		c0,0.5-0.2,0.8-0.4,0.8l-0.5,0.4l-0.4,0.4c-0.3,0-0.4-0.1-0.4-0.4v-0.4V294v-0.4v-0.4h-0.9c-0.3-0.3-0.4-0.5-0.4-0.8
		c-0.3,0-0.6-0.1-0.9-0.4c0-0.2-0.1-0.5-0.4-0.8l-0.4-0.4h-0.4l-0.4-0.4c-0.3,0-0.4-0.1-0.4-0.4s-0.1-0.4-0.4-0.4h-0.4h-0.4v0.4
		c0,0.3,0.1,0.4,0.4,0.4v0.4c0,0.3-0.2,0.5-0.5,0.8c0,0.3-0.2,0.4-0.4,0.4v0.4v0.4c-0.3,0-0.5,0.3-0.5,0.8l0.4,0.4
		c0,0.3,0.1,0.4,0.4,0.4c0.3,0.3,0.4,0.5,0.4,0.8v0.4v0.4l0.4,0.4c0.3,0.2,0.6,0.5,0.9,0.7l0.4,0.4l0.9,0.4c0.9,0.5,1.3,1.2,1.3,1.9
		h-0.4c0,0.3,0,0.5,0,0.8l0.4,0.8h0.4v0.4v0.4c0,0.2,0.1,0.5,0.4,0.8h-0.4h-0.4h-0.4c-1.5-0.5-2.5-1.5-3-3.1c0-0.3,0-0.5,0-0.8
		l-0.4-0.8c0-0.5-0.1-0.9-0.4-1.2v-0.4v-0.4l-0.4-0.4c0-0.5-0.1-0.8-0.4-0.8h-0.4c0-0.5,0-1,0-1.6v-0.8v-0.4v-0.4
		c0-0.5-0.1-1.3-0.4-2.3l-0.4-0.8c0-0.2,0-0.5,0-0.8v-0.8v-0.4c0-0.2,0-0.5,0-0.8h-0.4h-0.4v-0.4v-0.4c-0.3,0.3-0.5,0.5-0.5,0.8
		l-0.4,0.4c-0.6,0.5-1,0.8-1.3,0.8s-0.4-0.4-0.4-1.2v-0.4c0-0.3,0-0.5,0-0.8v-0.4c-0.3-0.2-0.6-0.6-0.9-1.2v-0.4l-0.4-0.4
		c-0.6-0.5-1-0.9-1.3-1.2c0-0.2,0-0.5,0-0.8l-0.4-0.4v-0.4c0-0.3-0.1-0.5-0.4-0.8c-0.3,0-0.6-0.1-0.9-0.4c0,0.5-0.3,0.9-0.9,1.2
		c-0.3,0.3-0.7,0.4-1.3,0.4c-0.3,0-0.6-0.1-0.9-0.4c0,0.3-0.2,0.4-0.5,0.4c-0.6,0.3-0.9,0.5-0.9,0.8v0.4c0,0.3-0.2,0.5-0.4,0.8
		c-0.3,0.3-0.7,0.6-1.3,0.8l-0.5,0.4c-0.3,0-0.4,0.1-0.4,0.4l-1.3,1.2l-1.3,0.8v0.4l-0.5,0.4l-0.4,0.4H339l-0.4,0.4
		c-0.3,0-0.5,0.3-0.5,0.8c0,0.3,0,0.5,0,0.8v0.4v0.4c0,0.3,0,0.5,0,0.8v0.4c-0.3,0.5-0.4,0.9-0.4,1.2l0.4,1.2h-0.4h-0.5l-0.4,0.8
		v0.4c-0.6,0.3-0.9,0.6-0.9,0.8v0.4l-0.5,0.4c-0.3,0-0.4-0.1-0.4-0.4c-0.3,0-0.4-0.1-0.4-0.4l-0.4-0.8v-0.8
		c-0.3-0.5-0.6-0.9-0.9-1.2V292l-0.4-0.4l-0.4-0.4v-0.4v-0.4v-0.8c-0.3-0.2-0.4-0.5-0.4-0.8h-0.5v-0.4V288v-0.8h-0.4
		c-0.3-0.8-0.4-1.3-0.4-1.5l-0.4-0.8v-0.4c-0.3-0.5-0.4-0.9-0.4-1.2v-0.4v-0.4v-0.4v-0.4c0-0.3,0-0.5,0-0.8v-0.4v-0.4v-0.4v-0.4
		c-0.3,0.3-0.4,0.5-0.4,0.8h-0.4v0.4c-0.3,0.5-0.6,0.8-0.9,0.8c-0.6,0-1-0.1-1.3-0.4l-0.4-0.4v-0.4l-0.4-0.4c0-0.3,0.2-0.4,0.4-0.4
		h0.5h0.4v-0.4c0-0.2-0.3-0.4-0.9-0.4c-0.3,0-0.7-0.1-1.3-0.4c-0.3-0.2-0.6-0.5-0.9-0.8l-0.4-0.4v-0.4c-0.3-0.5-0.6-0.8-0.9-0.8
		h-0.4h-0.4h-0.5l-0.4,0.4l-1.3-0.4v0.4h-0.4h-0.9h-0.5c-0.3,0-0.9-0.1-1.8-0.4h-0.9c-0.3,0-0.6,0-0.9,0l-0.9-0.4h-0.4l-0.4-0.4
		v-0.4c-0.3-0.5-0.6-0.8-0.9-0.8h-0.4v0.4l-0.4,0.4h-1.8c-0.3-0.2-0.6-0.5-0.9-0.8h-0.5v-0.4c-0.3-0.3-0.6-0.4-0.9-0.4h-0.4
		c0-0.2-0.1-0.4-0.4-0.4v-0.4v-0.4c-0.3-0.5-0.6-0.9-0.9-1.2c-0.6-0.5-1.2-0.8-1.8-0.8l-0.4,0.4c0,0.3,0,0.5,0,0.8s0,0.5,0,0.8
		c0,0.5,0.3,1.2,0.9,2c0.3,0.5,0.7,0.8,1.3,0.8c0,0.3,0,0.5,0,0.8v0.4c0.3,0,0.5-0.1,0.5-0.4h0.4c0,0.3,0,0.5,0,0.8v0.4
		c0,0.2,0.1,0.5,0.4,0.8c0.3,0,0.7,0,1.3,0c0.9,0,1.6-0.3,2.2-0.8l0.4-0.4l0.5-0.4c0.3-0.5,0.6-0.8,0.9-0.8v1.2
		c0.3,0.8,1,1.3,2.2,1.6c0.3,0.3,0.6,0.5,0.9,0.8v0.4h0.4v0.4h0.5c0,0.5-0.2,0.9-0.5,1.2l-0.4,0.4c-0.3,0.3-0.5,0.5-0.5,0.8
		c-0.6,0-0.9,0.3-0.9,0.8h-0.4v0.4v0.4c-0.3,0-0.6,0.3-0.9,0.8v0.4H312c-0.3,0-0.6,0.1-0.9,0.4s-0.5,0.5-0.5,0.8h-0.4h-0.5
		c-0.3,0.3-0.6,0.4-0.9,0.4c-1.2,0.3-1.8,0.7-1.8,1.2h0.5v0.4c-0.3,0.3-0.8,0.4-1.3,0.4l-0.9,0.4h-0.9c-0.3,0-0.7,0.3-1.3,0.8
		l-0.5,0.4l-0.9,0.4h-0.9c-0.9,0.5-1.5,0.8-1.8,0.8h-0.5l-0.4-0.4h-0.5h-0.4c0,0.3,0,0.5,0,0.8s0,0.5,0,0.8l0.4,0.4l0.5,0.4
		c0.3,0.5,0.6,0.8,0.9,0.8l0.4-0.4l0.5-0.4c0.3,0,0.6,0,0.9,0h0.5h0.4c0.6,0,1.3-0.2,2.2-0.4l0.9-0.4l1.3-0.4v0.4
		c0,1.1-0.3,2.4-0.9,4c-0.3,0.5-0.6,1.1-0.9,1.6s-0.6,0.9-0.9,1.2c-0.3,0.3-0.6,0.7-0.9,1.2v0.4l-0.4,0.4c-0.6,1.1-1.2,1.7-1.8,2
		c-0.6,0.6-1.3,1.1-2.2,1.6l-0.9,0.4l-0.9,0.8c-1.2,1.1-2.1,2.3-2.7,3.6v0.4l-0.5,0.4v0.4c-0.3,0.3-0.4,0.7-0.4,1.2
		c0,0.3,0,0.5,0,0.8v0.4c0,0.8,0,1.3,0,1.6c0,0.5,0.1,0.8,0.4,0.8c0,0.3,0.1,0.5,0.4,0.8c0.6,0.5,0.9,0.9,0.9,1.1
		c0,0.3-0.2,0.4-0.5,0.4v0.4v0.8c0,0.3,0,0.7,0,1.2v0.8v0.8c0.3,0,0.5,0.3,0.4,0.8c0,1-0.9,1.8-2.7,2.4l-1.3,0.8
		c-0.3,0-0.6,0.1-0.9,0.4c-0.6,0.5-0.9,1.1-0.9,1.6c-0.3,0-0.6,0.1-0.9,0.4s-0.5,0.5-0.5,0.8s0.1,0.7,0.4,1.2l0.4,0.4v0.8
		c0,0.5,0,1.1,0,1.6v0.8c0,0.3-0.3,0.4-0.9,0.4h-0.4c-0.9,0.5-1.5,1.2-1.8,2c0.3,0,0.4,0.3,0.4,0.8c0,0.3-0.2,0.7-0.4,1.2
		c-0.3,0.3-0.5,0.5-0.5,0.8h-0.4l-0.5,0.4c0,0.3-0.3,0.7-0.9,1.2v0.8c0,0.3-0.2,0.4-0.4,0.4l-0.5,0.4v0.4c-0.6,0.5-0.9,0.9-0.9,1.2
		c-0.6,0.5-1.2,0.9-1.8,1.2h-0.4l-0.5,0.4c-0.6,0-0.9,0.2-0.9,0.4h-0.5l-0.4,0.4c-0.3,0-0.6-0.1-0.9-0.4h-0.5c-0.3,0-0.7,0-1.3,0
		l-0.9,0.4l-0.5,0.4h-0.4c-0.3,0.3-0.6,0.4-0.9,0.4c-0.6,0-1-0.2-1.3-0.7h-0.4c0-0.2-0.1-0.6-0.4-1.2c0-0.3-0.1-0.5-0.4-0.8
		c0.6-0.3,0.9-0.6,0.9-0.8c0-0.5-0.3-1-0.9-1.5l-0.5-0.4c0-0.2-0.2-0.4-0.4-0.4l-0.5-0.8l-0.4-0.8c-0.6-0.8-0.9-1.4-0.9-1.9
		c-0.9-1.5-1.3-3-1.3-4.3V332c0-0.3-0.2-0.5-0.5-0.8v-0.4l-0.9-1.6c-0.6-0.5-0.9-0.9-0.9-1.1c-0.6-1-0.9-2.2-0.9-3.5
		c0-0.8,0.5-1.7,1.4-2.8l0.4-0.4l0.5-0.8c0.3-0.5,0.4-0.9,0.4-1.2c0-0.5-0.1-0.9-0.4-1.2v-0.8V317c-0.3-0.8-0.8-1.8-1.3-3.1v-0.8
		v-0.4c0-0.5-0.1-0.9-0.4-1.2c-0.3-0.3-0.6-0.6-0.9-1.2l-0.5-0.4l-0.9-0.4c-0.6-1-0.9-1.8-0.9-2.3c0-0.3,0-0.7,0-1.2
		c0.3-0.3,0.6-0.4,0.9-0.4c0-0.3,0-0.5,0-0.8v-0.4v-0.8c0-0.2,0-0.5,0-0.8c-0.3-1-1-1.6-2.2-1.5h-1.8c-0.3,0-0.7-0.4-1.3-1.2
		c-0.3-0.3-0.6-0.5-0.9-0.8c0-0.3-0.3-0.4-0.9-0.4s-1.5,0.2-2.7,0.5l-0.9,0.8h-1.4c0,0.3-0.2,0.4-0.4,0.4v0.4c-0.3,0-0.6,0-0.9,0
		h-0.5h-0.4l-0.9-0.4h-0.4c-0.3,0-0.8,0-1.4,0v0.4h-0.9h-0.9c0,0.3-0.3,0.4-0.9,0.4l-0.4-0.4h-0.5c-0.3,0-0.8-0.3-1.3-0.8l-0.5-0.4
		l-0.9-0.4c-0.9-0.5-1.5-1-1.8-1.6c0-0.5-0.2-0.9-0.4-1.2l-0.5-0.4c-0.3-0.5-0.6-1-0.9-1.6c-0.3,0-0.8-0.4-1.4-1.2l-1.4-0.8v-0.4
		c-0.3,0-0.5-0.1-0.5-0.4h0.5l-0.5-0.4V291v-0.4c0-0.3-0.2-0.5-0.4-0.8v-0.4c0.3-0.3,0.6-0.8,0.9-1.6c0.3-0.8,0.4-1.5,0.4-2
		s-0.2-1.3-0.4-2.4v-0.8c0-0.5,0-0.9,0-1.2c0-0.3,0.1-0.7,0.4-1.2l0.5-0.4v-0.4c0.6-1.6,1.5-3.2,2.7-4.9c0.3-0.5,0.6-0.8,0.9-0.8
		h0.9l0.5-0.4c0.3-0.3,0.8-0.5,1.4-0.8c0.3-0.3,0.5-0.7,0.5-1.2c0.3-0.3,0.4-0.5,0.4-0.8v-0.4v-0.4c0-0.5,0.2-0.9,0.5-1.2
		c0.3-0.5,0.8-1.2,1.4-2l0.9-0.8l0.9-1.2l0.5-0.4c0-0.3,0.1-0.4,0.4-0.4c0.9,0.5,2.1,0.8,3.6,0.8l0.4-0.4h0.5l0.4-0.4
		c0.9-0.3,2-0.7,3.2-1.2c1.2-0.3,2.3-0.4,3.2-0.5h0.5l0.4,0.4h0.5h0.4l0.4-0.4c0.3-0.3,0.6-0.4,0.9-0.4h0.5l0.4,0.4h0.5l0.4-0.4
		c0.3,0,0.6,0,0.9,0h0.5l0.4,0.4h0.5h0.4v-0.4c0,0.3,0,0.5,0,0.8H261c-0.3,0-0.5,0.1-0.5,0.4s0.2,0.4,0.5,0.4l0.4,0.4v0.4l-0.4,0.4
		c-0.3,0.3-0.5,0.6-0.5,0.8c0,0.5,0.3,0.9,0.9,1.2c0.3,0.5,0.6,0.8,0.9,0.8h1.4c0.9,0,1.9,0.5,3.1,1.5c1.2,1.1,2.2,1.6,3.1,1.6
		c0.3,0,0.5-0.1,0.5-0.4c0.3,0,0.4-0.1,0.4-0.4v-0.8c0-0.5,0.2-0.9,0.5-1.2c0.3,0,0.6,0,0.9,0l0.4-0.4h0.5h0.9
		c0,0.3,0.1,0.5,0.4,0.8h0.5c0,0.3,0.3,0.4,0.9,0.4h0.4c0.3,0,0.5,0.1,0.5,0.4c0.6,0.3,1.3,0.4,2.2,0.4c0.9,0.3,1.6,0.4,2.2,0.4
		c0.3,0,0.7,0,1.4,0l0.4-0.4h0.9c0.3,0,0.6,0,0.9,0c0.6,0.3,1,0.4,1.3,0.4h0.4h0.5c0-0.1,0-0.2,0.1-0.3l-0.1-0.1
		c0-0.3,0.1-0.4,0.4-0.4c0-0.5,0.3-1.3,0.9-2.4v-0.4l0.5-0.4c0.3-0.3,0.4-0.5,0.4-0.8v-0.8v-0.4l-0.4-0.4v-0.4h0.4v-0.4h-0.4h-0.5
		c-0.3,0-0.6-0.1-0.9-0.4v0.4l-0.4,0.4c-0.3,0.3-0.8,0.4-1.4,0.4h-0.4l-0.5-0.4l-0.4-0.4l-0.5-0.4c-0.3,0-0.6,0.1-0.9,0.4
		c-0.3,0.5-0.6,0.8-0.9,0.8l-0.4-0.4l-0.5-0.4c-0.3-0.3-0.6-0.3-0.9,0v-0.4h-0.4v-0.4h-0.5c-0.3-0.3-0.3-0.5,0-0.8
		c-0.3,0-0.6-0.1-0.9-0.4l-0.4-0.4l0.4-0.4v-0.4v-0.8h-0.4c0-0.5,0.4-0.8,1.3-0.8l0.9-0.4h0.5c0.3,0,0.6-0.1,0.9-0.4H281v-0.4
		l-0.4,0.4h-0.5h-0.4h-0.5l-0.4,0.4l-0.5,0.4c-0.3,0-0.4-0.1-0.4-0.4h-0.4c-0.3-0.3-0.6-0.4-0.9-0.4s-0.6,0-0.9,0v0.4h-0.5
		c0,0.3,0,0.5,0,0.8h-0.4v-0.4h-0.5h-0.4v0.4l0.9,0.8h-0.5v0.4l0.5,0.8l0.9,0.4v0.4h-0.5h-0.4c-0.3-0.3-0.6-0.4-0.9-0.4v0.4h0.4
		c0,0.3,0,0.5,0,0.8c-0.3,0.3-0.3,0.5,0,0.8h-0.4c-0.9,0-1.4-0.5-1.3-1.6h0.5v-0.4h-0.5c-0.3,0-0.4-0.1-0.4-0.4
		c0-0.5-0.3-0.9-0.9-1.2v-0.4l-0.5-0.4c-0.3-0.2-0.4-0.6-0.4-1.2v-0.8c0-0.3-0.1-0.5-0.5-0.8c-0.3-0.5-0.6-0.8-0.9-0.8l-0.4-0.4
		h-0.5l-0.4-0.4h-0.5c-0.6,0-1.1-0.2-1.3-0.8c-0.3-0.5-0.4-1.1-0.4-1.6h-1.4c-0.3,0-0.4-0.1-0.4-0.4v-0.4v-0.4l-0.5,0.4h-0.4
		c-0.3,0-0.5,0.1-0.5,0.4v0.4v0.4c0,0.5,0.3,0.9,0.9,1.2c0.3,0,0.5,0.1,0.5,0.4l0.4,0.4v0.4c0,0.3,0.2,0.5,0.5,0.8
		c0,0.3,0.1,0.4,0.4,0.4c0.3,0.3,0.6,0.4,0.9,0.4v-0.4h0.5v0.4c0,0.3,0.1,0.5,0.4,0.8h0.4h0.5l0.4,0.4c0.3,0,0.5,0.1,0.5,0.4
		c0.3,0.2,0.4,0.5,0.4,0.8h-0.4v-0.4c-0.3,0-0.6,0-0.9,0c-0.6,0-0.9,0.2-0.9,0.4c0,0.3,0.2,0.5,0.4,0.8l0.5,0.4
		c0,0.3-0.2,0.4-0.5,0.4s-0.4,0.1-0.4,0.4c0,0.5-0.2,0.8-0.4,0.8c-0.3,0-0.5-0.1-0.5-0.4c0.3,0,0.5-0.1,0.5-0.4
		c0.3-0.3,0.4-0.5,0.4-0.8s-0.2-0.4-0.4-0.4v-0.4h-0.5l-0.4-0.8c-0.3-0.2-0.5-0.5-0.5-0.8h-0.4h-0.5c-0.6-0.2-1.2-0.8-1.8-1.6h-0.4
		l-0.5-0.4l-0.4-0.4l-0.5-0.8l-0.4-0.8c-0.3-0.5-0.7-0.8-1.4-0.8c-0.3,0-0.6,0.1-0.9,0.4c0,0.3-0.2,0.4-0.4,0.4h-0.5l-0.4,0.8
		c-0.3,0-0.8,0-1.3,0h-0.5h-0.4l-0.9-0.4c-0.6,0-0.9,0.1-0.9,0.4c-0.3,0.3-0.5,0.6-0.5,0.8v0.8c0,0.3-0.2,0.6-0.4,0.8
		c-0.3,0.3-0.8,0.4-1.4,0.4c-0.3,0.3-0.8,0.7-1.4,1.2c-0.3,0.6-0.5,1.1-0.5,1.6v0.4h0.5c-0.6,0.8-1.2,1.4-1.8,1.6v0.4l-0.5,0.4
		c-0.3,0.3-0.6,0.4-0.9,0.4h-0.4h-0.5h-0.4c-0.3,0-0.6,0.1-0.9,0.4l-0.9,0.4h-0.4h-0.5v-0.4v-0.4c-0.3-0.5-0.6-0.8-0.9-0.8
		s-0.6,0.1-0.9,0.4h-0.9h-0.4v-0.4v-1.6c-0.3,0-0.5-0.1-0.5-0.4v-0.4l0.5-0.4v-0.8v-0.8v-0.8l0.4-0.8l-0.4-0.4v-0.4
		c-0.3-0.3-0.5-0.5-0.5-0.8l0.9-0.4l0.9-0.8v0.4h0.5h0.4h1.8v0.4h0.5h1.8c0.3-0.3,0.5-0.3,0.5,0h0.4h0.5h0.4h0.5c0-0.5,0-0.9,0-1.2
		c0.3-0.3,0.4-0.5,0.4-0.8v-0.4v-0.8v-0.4v-0.4c-0.6,0-0.9-0.2-0.9-0.8c-0.3,0-0.4-0.2-0.4-0.8l-0.5-0.4h-0.4
		c-0.3,0-0.6-0.1-0.9-0.4c-0.6,0-0.9-0.3-0.9-0.8l0.5-0.4h0.4l0.4-0.4c0,0.3,0.2,0.4,0.5,0.4c0.3,0.3,0.6,0.4,0.9,0.4l0.4-0.4h0.5
		v-0.4c-0.3,0-0.5-0.1-0.5-0.4v-0.4h0.5c0.3,0.3,0.8,0.4,1.4,0.4c0.3,0,0.5-0.3,0.5-0.8c0.9,0,1.5-0.5,1.8-1.6l0.9-0.4
		c0.3,0,0.6,0,0.9,0l0.9-0.8v-0.4v-0.4v-0.4l0.4-0.4l0.5-0.4l0.4-0.4c0.3-0.3,0.8-0.4,1.3-0.4h0.5h0.4v-0.4h0.5h0.4h0.5
		c0.3-0.3,0.4-0.5,0.4-0.8v-0.4l-0.4-0.4c0-0.3,0-0.5,0-0.8l-0.5-0.4c0-0.3,0-0.7,0-1.2s0.3-1.1,0.9-1.6l0.5-0.4
		c0.3-0.3,0.6-0.4,0.9-0.4v0.4c0,0.3,0,0.7,0,1.2v0.4h0.4v0.4l-0.4,0.4h-0.5v0.4c-0.3,0.3-0.4,0.6-0.4,0.8c0,0.6,0.2,0.8,0.4,0.8
		v0.4h0.5h0.4v0.4h0.5v0.4c0.3,0,0.6-0.1,0.9-0.4h0.4c0.6-0.3,1.1-0.4,1.4-0.4v0.4l0.4,0.4h0.5l0.4-0.4h0.9h0.5l0.4-0.4l0.4-0.4
		c0.3-0.3,0.6-0.4,0.9-0.4c0.6,0,1.1,0.1,1.4,0.4v0.4c0.3,0,0.8-0.1,1.3-0.4v-0.8h0.5v-0.4c0.6-0.3,0.9-0.7,0.9-1.2s0.1-1.2,0.5-2
		c0.3-0.5,0.6-0.8,0.9-0.8h0.5l0.4,0.4c0.3,0.3,0.6,0.4,0.9,0.4h0.5v-0.4c0.3-0.5,0-1.2-0.9-2c-0.3-0.3-0.1-0.7,0.5-1.2
		c0.6-0.3,1.2-0.4,1.8-0.4c0.3,0,0.6,0.1,0.9,0.4h0.4h0.9l0.9-0.4c0.3-0.3,0.6-0.4,0.9-0.4c0-0.3-0.1-0.5-0.4-0.8v-0.4l-0.5-0.4
		c0,0.5-0.4,0.8-1.4,0.8c-0.6,0.3-1.2,0.3-1.8,0l-0.4,0.4h-0.5c-0.6,0.3-1.1,0.4-1.3,0.4c-0.6,0-0.9-0.2-0.9-0.8c-0.3,0-0.6,0-0.9,0
		c-0.6-0.3-0.9-0.7-0.9-1.2c0-0.3,0.1-0.4,0.4-0.4v-0.4h0.5c-0.3,0-0.6-0.3-0.9-0.8c0-0.3,0-0.5,0-0.8v-0.4v-0.4
		c0.6,0,1.2-0.4,1.8-1.2l0.4-0.4l0.5-0.4c0.3-0.3,0.6-0.5,0.9-0.8h0.4l0.5-0.4c0.3-0.3,0.4-0.5,0.4-0.8s-0.2-0.5-0.4-0.8
		c-0.6-0.3-1.2-0.4-1.8-0.4c-1.5,0-2.3,0.6-2.3,1.6v0.4v0.4c0,0.5-0.5,1.1-1.4,1.6l-0.9,0.4v0.4H270l-0.4,0.4h-0.9
		c-0.3,0.3-0.5,0.6-0.5,0.8l-0.4,0.4v0.8v0.4v0.8c0,0.3,0,0.6,0,0.8c0.6,0,1.1,0.1,1.3,0.4c0.3,0.5,0.5,0.9,0.5,1.2
		s-0.2,0.7-0.5,1.2c-0.3,0.3-0.6,0.4-0.9,0.4s-0.6,0.1-0.9,0.4c-0.3,0.6-0.4,1.1-0.4,1.6c0,0.3,0.2,0.4,0.4,0.4l0.5,0.4
		c0,0.3-0.3,0.6-0.9,0.8v0.4l-0.4,0.4h-1.4l-0.4,0.8c-0.3,0-0.5,0.1-0.5,0.4c-0.3,0.3-0.6,0.4-0.9,0.4l-0.4-1.2
		c0-0.3-0.2-0.4-0.5-0.4v-0.4v-0.4c0-0.3-0.2-0.7-0.4-1.2v-0.4c0-0.3-0.2-0.5-0.5-0.8v-0.4c-0.3-0.3-0.4-0.5-0.4-0.8v-0.4
		c-0.3-0.3-0.5-0.5-0.5-0.8v-0.4c-0.6,0.8-1.2,1.5-1.8,2c-0.6,0.6-1.4,0.8-2.3,0.8c-0.3,0-0.6-0.3-0.9-0.8l-0.9-0.4
		c0-0.3,0.2-0.4,0.5-0.4v-0.8c-0.3,0-0.6,0-0.9,0l0.4-0.4v-0.4h0.5c-0.6-0.5-0.9-1.5-0.9-2.8c0-0.3,0.1-0.4,0.4-0.4l0.5-0.4
		c0.6-0.8,1.2-1.4,1.8-1.6l0.5-0.4h0.4c0.3-0.5,0.8-0.7,1.4-0.4l-0.5-0.4h-0.4c0.9-0.3,1.7-0.7,2.3-1.2l0.5-0.8
		c0.3-0.3,0.6-0.5,0.9-0.8c0.3,0,0.4-0.1,0.4-0.4v-0.4c0-0.5,0.2-0.8,0.5-0.8l0.4-0.8c0.3-0.8,0.9-1.4,1.8-1.6
		c0.3-0.3,0.8-0.7,1.4-1.2c0.3-0.5,0.5-0.9,0.8-1.4c-0.1,0-0.1-0.1-0.2-0.1c-0.2,0.1-0.4,0.2-0.6,0.3l-0.5,0.4c-0.6,0-1.1,0-1.4,0
		c0.3,0,0.4-0.1,0.4-0.4h0.5l-0.5-0.4c0-0.3,0.2-0.4,0.5-0.4h0.4c0-0.3,0.2-0.4,0.5-0.4c0,0.3,0,0.6,0,0.8h0.4c0,0,0.1,0,0.1,0.1
		c0.1,0,0.2-0.1,0.3-0.1c0,0.1-0.1,0.1-0.1,0.2c0.2,0.1,0.4,0.2,0.6,0.2l0.4-0.4v-0.4l0.5-0.4c-0.3,0-0.6,0-0.9,0
		c0-0.3,0.2-0.4,0.4-0.4l0.5-0.4h0.4c0.3-0.3,0.6-0.4,0.9-0.4l0.5-0.4h0.4v0.8c0-0.3,0.2-0.4,0.5-0.4v-0.4c0.3-0.3,0.6-0.4,0.9-0.4
		v0.4c0.3-0.3,0.6-0.5,0.9-0.8h0.4h0.5c-0.3-0.3-0.5-0.5-0.5-0.8h0.5h0.4v-0.4l0.5,0.4h0.4h0.5h0.4h0.5c0.6-0.5,0.9-0.7,0.9-0.4
		s-0.2,0.6-0.5,0.8l-0.4,0.4c0.3,0,0.6,0,0.9,0l0.4-0.8h0.4v0.4c0.3-0.3,0.9-0.7,1.8-1.2v1.2c0.3-0.5,0.6-0.8,0.9-0.8l0.5,0.4h0.4
		v0.4h0.5c-0.3,0.3-0.5,0.5-0.5,0.8h-0.4h-0.5h-0.4l0.9,0.8h0.4h0.9c0.3,0,0.6,0,0.9,0c0.6,0,1.8,0.4,3.6,1.2l0.9,0.4l1.3,0.4
		c0.9,0.5,1.5,0.8,1.8,0.8c3,1.1,4.2,2.1,3.6,3.2c-0.3,0.6-0.8,1-1.4,1.2c-0.9,0.3-1.7,0.3-2.3,0c-0.9-0.3-2.2-0.4-4-0.4
		c0,0.3,0.1,0.7,0.5,1.2v0.4l0.4,0.8c0.3,0.8,0.9,1.3,1.8,1.6v-1.6c1.8,0.5,3,0.4,3.6-0.4l0.4-0.4l0.5-0.8c0.3-0.5,0.6-0.8,0.9-0.8
		h0.9h0.4h0.5c0.6,0,0.9-0.3,0.9-0.8v-0.4v-0.4c-0.3,0-0.5-0.1-0.5-0.4c0.3-1.4,0.8-2.2,1.4-2.4l0.4-0.4c0.3,0.3,0.5,0.7,0.4,1.2
		c0,0.5,0,1.1,0,1.6c-0.3,0.3-0.3,0.4,0,0.4c0.3,0.3,0.6,0.4,0.9,0.4s0.9-0.3,1.8-0.8l0.5-0.4l0.9-0.4l1.3-0.8
		c2.1-1.4,3.3-1.6,3.6-0.8c0.9,0.3,1.9,0.3,3.1,0l0.9-0.4h0.5c0.6-0.3,1.1-0.4,1.3-0.4c0.3,0,0.5,0.1,0.5,0.4l0.4,0.4h0.5
		c0.6,0.3,0.9-0.1,0.9-1.2v-0.4c-0.3-0.3-0.3-0.5,0-0.8c0-0.3,1.2-0.1,3.6,0.4c0.6,0,1.2,0.3,1.8,0.8l1.3,0.8c0.3,0,0.6,0.1,0.9,0.4
		c1.5,0.8,1.9,0.4,1.3-1.2c-1.2-1.1-1.7-2.4-1.7-4c0-0.6,0.6-1.4,1.8-2.4c1.2-1.1,2.1-1.6,2.7-1.6c-0.6,0-0.9,0-0.9,0v-0.4v-0.4
		c0-0.3,0.2-0.4,0.5-0.4s0.4,0.1,0.4,0.4h0.5v0.4l-0.5,0.4c1.5,0.5,2.2,0.9,2.2,1.2l-0.5,0.4v0.4c-0.3,0.3-0.4,0.6-0.4,0.8
		c0,0.3,0.1,0.8,0.4,1.6c0,0.8,0,1.6,0,2.4c0.6,2.1,1.1,3.2,1.7,3.2c0.6,0,0.6-0.5,0-1.6l-0.4-0.8v-0.4c0-0.5,0-0.9,0-1.2
		c0.6-0.5,0.8-1.1,0.5-1.6l-0.4-0.4l-0.4-0.8c0-0.3,0-0.6,0-0.8c1.2-0.6,1.8-1.4,1.8-2.4c0,0.3,0.1,0.7,0.4,1.2v0.4
		c0,0.3,0.1,0.5,0.4,0.8c0.3,0.5,0.9,0.1,1.8-1.2c0.6,0,1.2,0.1,1.8,0.4h0.4h0.5c0.6,0,1-0.1,1.3-0.4v-0.4l-0.4-0.4v-0.4
		c0-1.1,0.9-1.8,2.7-2C343,201.1,343.6,201.1,344.2,201z M377,200.1c-0.6,0-0.9-0.1-0.9-0.4v-0.4c0.3-0.3,0.5-0.4,0.5-0.4
		s0.1,0,0.4,0c0.6,0,0.9,0.3,0.9,0.8l-0.4,0.4v-0.4L377,200.1z M251.2,259.8v-0.4h0.4h0.5c0,0,0,0.1,0,0.4h-0.5H251.2z M257.5,258.1
		v-0.4h0.5l0.4-0.4l0.5,0.4c0.3,0.3,0.4,0.8,0.4,1.6c0,0.3-0.2,0.5-0.4,0.8l-0.5,0.4c-0.3,0-0.4-0.1-0.4-0.4l-0.5-0.4v-0.4h0.5
		c0-0.3,0-0.5,0-0.8L257.5,258.1z M258,256.1v-0.4v-0.4h0.4h0.5v0.8v0.4c-0.3,0.3-0.5,0.4-0.5,0.4v-0.4L258,256.1z M262,262.1v-0.4
		c0.6-0.3,1.1-0.3,1.4,0h0.4h0.5h0.4c0.3-0.3,0.6-0.3,0.9,0l-0.4,0.4v0.4v0.4v0.4h-0.5c-0.3,0-0.6-0.3-0.9-0.8h-0.4l-0.5-0.4h-0.4
		H262z M275.1,264.7c0.6,0,1.1,0,1.4,0c0.6,0.2,0.9,0.4,0.9,0.4s0.1,0,0.4,0l-0.4,0.4l-0.5-0.4c-0.3,0-0.6,0-0.9,0
		C275.6,265.1,275.4,265,275.1,264.7z M284.9,265.4V265c0.3,0,0.6-0.1,0.9-0.4c0.6,0,0.9,0,0.9,0s0.1-0.1,0.4-0.4v0.4h-0.4v0.4
		l-0.5,0.4h-0.9H284.9z M260.3,236.3v0.4c0,0,0,0.1,0,0.4c-0.6,0-0.9-0.1-0.9-0.4v-0.4H260.3z M261.2,236.7l-0.4-0.4v-0.4l0.4-0.4
		c0-0.3,0.2-0.4,0.5-0.4s0.6,0.3,0.9,0.8c-0.3,0-0.5,0.1-0.5,0.4v0.4c-0.3,0.6-0.6,0.8-0.9,0.8h-0.4l0.4-0.4c0.3,0,0.5-0.1,0.5-0.4
		L261.2,236.7z M268.9,233.4V233v-0.4c0.3-0.5,0.5-0.8,0.5-0.8s0.2,0,0.4,0l-0.4,0.4v0.4v0.4L268.9,233.4z M273.5,230.1h0.5h0.4v0.4
		l-0.4,0.4v0.4v0.4c-0.3,0-0.5,0-0.5,0h-0.4v-0.4v-0.4h0.4h0.5v-0.4C273.6,230.6,273.5,230.4,273.5,230.1z M386,292.5v0.4
		c0-0.2,0-0.5,0-0.8V292.5z M148.6,189.1c-0.3,0-0.5,0-0.8,0s-0.5,0.1-0.8,0.4c0.3,0,0.5,0,0.8,0L148.6,189.1z M296.7,291
		c-0.3-0.8-0.4-1.4-0.4-2c-0.3,0-0.4-0.2-0.4-0.8l0.4-0.4c0-0.5-0.1-0.9-0.4-1.2v-0.4l-0.4-0.4c-0.3,0-0.4-0.1-0.4-0.4
		c-0.3-0.2-0.6-0.4-0.9-0.4c-0.3-0.8-0.4-1.3-0.4-1.6c-1.2-0.3-1.8-1.2-1.8-2.8c0-0.3,0-0.7,0-1.2h-0.4c0-0.3,0-0.5,0-0.8h-0.5v-0.4
		h-0.4h-0.5v-0.4c-0.3,0-0.4-0.1-0.4-0.4V277c0-0.3,0-0.5,0-0.8h-0.5l-0.4-0.8V275l-0.9-1.2l-0.4-0.4V273v-0.4v-0.4v-0.4
		c0,0.3-0.2,0.7-0.5,1.2v0.4v0.4c-0.6,0-1-0.4-1.3-1.2l-0.5-0.4v-0.4c-0.3-0.3-0.6-0.4-0.9-0.4v0.4l4,6.7c0,0.3,0.1,0.8,0.4,1.6
		c0.3,0.5,0.6,1.1,0.9,1.6v2c0.3,0.3,0.6,0.5,0.9,0.8l0.9,0.4c0,0.3,0,0.5,0,0.8c0.3,0,0.4,0.1,0.4,0.4l0.4,0.8
		c0,0.5,0.1,0.9,0.4,1.2c0.3,0.3,0.6,0.5,0.9,0.8h0.5c0,0.3,0.1,0.4,0.4,0.4c0,0.3,0.1,0.4,0.4,0.4v0.4l0.4,0.4
		c0.3,0.5,0.7,0.8,1.3,0.8C297,291.4,297,291.2,296.7,291z M281.8,257h1.4c0.3,0,0.6-0.1,0.9-0.4h0.4l0.5-0.4
		c0.3-0.3,0.6-0.4,0.9-0.4h0.9h0.4h0.5c0.3,0,0.4,0.1,0.4,0.4h0.5l0.4,0.4l0.9,0.4c0.3,0,0.6,0,0.9,0c0,0.3,0.1,0.4,0.4,0.4h2.3
		c0.3,0,0.6-0.1,0.9-0.4l0.4-0.4l0.5-0.4c0-1.1-0.9-2-2.7-2.8l-0.9-0.4c-0.3-0.3-0.6-0.4-0.9-0.4c-0.6-0.5-0.9-0.9-0.9-1.2
		c0.9-0.3,1.3-0.7,1.3-1.2c0-0.3-0.1-0.4-0.4-0.4v-0.4l0.4-0.4h-0.9c-0.3,0.3-0.7,0.4-1.3,0.4c-0.9,0.6-1.3,1-1.3,1.2
		c0,0.3,0.1,0.4,0.4,0.4h1.3c-0.3,0.3-0.7,0.6-1.3,0.8c-0.6,0.6-1.2,0.8-1.8,0.8l-0.4-0.8l-0.5-0.4L285,251l-1.3-1.6
		c-0.6,0-0.9,0.3-0.9,0.8h-0.4l-0.5,0.4v0.4v0.4c-0.3,0-0.6,0-0.9,0v0.4c0,0.3-0.2,0.6-0.4,0.8v0.8c0,0.3-0.2,0.4-0.5,0.4v0.4
		c-0.3,0.6-0.4,0.9-0.4,1.2s0.1,0.5,0.4,0.8v0.4h0.5l0.4,0.4h0.5H281.8z M291.3,248.9l0.5-0.4h-0.5V248.9z M225.1,208.2l0.5,0.4h0.5
		l-0.5-0.4c-0.3,0-0.5-0.1-0.5-0.4h-0.5C224.6,208.1,224.7,208.2,225.1,208.2z M358.9,186.1h-0.3c0.1,0,0.4,0,0.7,0H358.9z"/>
</g>
</svg>
