<?xml version="1.0" encoding="utf-8"?>
<!-- Generator: Adobe Illustrator 21.1.0, SVG Export Plug-In . SVG Version: 6.00 Build 0)  -->
<svg version="1.1" id="Layer_1" xmlns="http://www.w3.org/2000/svg" xmlns:xlink="http://www.w3.org/1999/xlink" x="0px" y="0px"
	 viewBox="0 0 495 512" style="enable-background:new 0 0 495 512;" xml:space="preserve">
<g>
	<g>
		<path d="M221.1,510.4h51.8v-248h-51.8L221.1,510.4L221.1,510.4z M435.3,88H272.9V9.4c0-4.9-11.5-9-25.9-9c-14.3,0-25.9,4.1-25.9,9
			V88H0v162.6h435.3l59.7-81.4L435.3,88z M247,5.4c11.6,0,20.9,1.8,20.9,4s-9.4,4-20.9,4s-20.9-1.8-20.9-4S235.4,5.4,247,5.4z
			 M404.3,198.8H52.8v-59h351.6l21,29.5C425.4,169.3,404.3,198.6,404.3,198.8z"/>
	</g>
</g>
</svg>
