<?xml version="1.0" encoding="utf-8"?>
<!-- Generator: Adobe Illustrator 21.1.0, SVG Export Plug-In . SVG Version: 6.00 Build 0)  -->
<svg version="1.1" id="Layer_2" xmlns="http://www.w3.org/2000/svg" xmlns:xlink="http://www.w3.org/1999/xlink" x="0px" y="0px"
	 viewBox="0 0 366.4 512" style="enable-background:new 0 0 366.4 512;" xml:space="preserve">
<g>
	<path d="M183.5,130.2c29.2,0,53,23.8,53,53s-23.8,53-53,53s-53-23.8-53-53S154.4,130.2,183.5,130.2 M183.5,78.2
		c-58,0-105,47-105,105s47,105,105,105s105-47,105-105S241.5,78.2,183.5,78.2L183.5,78.2z"/>
	<path d="M183.5,51.9c35,0,68,13.6,92.8,38.4s38.4,57.7,38.4,92.7c0,16.4-8,66.4-82.1,177c-17,25.4-34.2,48.9-48.8,68.2
		c-14.7-19.4-32-43.1-49.1-68.6C60.4,248.8,52.3,199.2,52.3,183c0-35,13.6-67.9,38.4-92.7S148.5,51.9,183.5,51.9 M183.5,0
		C82.4,0,0.3,81.9,0.3,183c0,111.7,183.5,329,183.5,329s182.9-216.3,182.9-329C366.8,81.9,284.7,0,183.5,0L183.5,0z"/>
</g>
</svg>
