<?xml version="1.0" encoding="utf-8"?>
<!-- Generator: Adobe Illustrator 21.1.0, SVG Export Plug-In . SVG Version: 6.00 Build 0)  -->
<svg version="1.1" id="Layer_2" xmlns="http://www.w3.org/2000/svg" xmlns:xlink="http://www.w3.org/1999/xlink" x="0px" y="0px"
	 viewBox="0 0 491.2 512" style="enable-background:new 0 0 491.2 512;" xml:space="preserve">
<g id="_x35_2">
	<path d="M491.2,426.7c0,25.9-26.2,47.9-75.8,63.5c-44.8,14.2-105.1,22-169.8,22s-124.9-7.8-169.8-22C26.2,474.5,0,452.6,0,426.8
		c0-12.1,6.2-30,35.6-46.6c17-9.6,40.3-17.9,67.9-24.3l40,40c-24.8,4.4-45.8,10.3-60.8,17.2c-16.5,7.6-18.8,13.2-19,13.7
		c0.6,2.5,10,13.5,48,23.8c35.9,9.8,83.5,15.2,133.9,15.2c50.6,0,98.2-5.4,134.1-15.3c38-10.4,47.3-21.3,47.8-23.8
		c-0.2-0.5-2.4-6.1-18.9-13.7c-14.9-6.9-35.9-12.8-60.7-17.2l40-40c27.5,6.4,50.7,14.7,67.7,24.3
		C484.8,396.8,491.1,414.6,491.2,426.7z"/>
	<path d="M245.6,52.3c58.1,0,105.4,47.3,105.4,105.4c0,8-2.5,26.8-19.4,62.4c-11.8,25.1-28.6,53.9-49.9,85.6
		c-12.3,18.4-24.8,35.7-35.9,50.6c-11-14.8-23.3-31.9-35.6-50.2c-21.5-32-38.4-61-50.4-86.1c-17-35.7-19.6-54.4-19.6-62.3
		C140.2,99.6,187.5,52.3,245.6,52.3 M245.6,0.3c-86.9,0-157.4,70.5-157.4,157.4c0,96,157.6,282.8,157.6,282.8S403,254.6,403,157.7
		C403,70.8,332.5,0.3,245.6,0.3L245.6,0.3z"/>
	<path d="M245.6,124.8c18.1,0,32.9,14.8,32.9,32.9s-14.8,32.9-32.9,32.9s-32.9-14.8-32.9-32.9S227.5,124.8,245.6,124.8 M245.6,77.8
		c-44.1,0-79.9,35.8-79.9,79.9s35.8,79.9,79.9,79.9s79.9-35.8,79.9-79.9S289.7,77.8,245.6,77.8L245.6,77.8z"/>
</g>
</svg>
