<?xml version="1.0" encoding="utf-8"?>
<!-- Generator: Adobe Illustrator 21.1.0, SVG Export Plug-In . SVG Version: 6.00 Build 0)  -->
<svg version="1.1" id="Layer_1" xmlns="http://www.w3.org/2000/svg" xmlns:xlink="http://www.w3.org/1999/xlink" x="0px" y="0px"
	 viewBox="0 0 426.1 512" style="enable-background:new 0 0 426.1 512;" xml:space="preserve">
<g>
	<g>
		<path d="M194.3,122.1c-10.3,6-13.9,19.2-7.9,29.5c6,10.3,19.2,13.9,29.5,7.9c10.3-6,13.9-19.2,7.9-29.5
			C217.9,119.7,204.7,116.1,194.3,122.1z M312.3,24.1C232.2-22.2,129.7,5.3,83.5,85.4c-38.4,66.5-26,148.4,25.2,200.8L30,510l1.7,1
			l154.3-179.8c71.2,18.7,148.9-11.4,187.5-78.3C419.9,172.8,392.4,70.3,312.3,24.1z M328.6,226.9c-31.9,55.2-102.5,74.2-157.8,42.3
			c-55.2-31.9-74.2-102.5-42.3-157.8c31.9-55.2,102.5-74.2,157.8-42.3C341.5,101,360.5,171.6,328.6,226.9z M176.5,81.2
			c-33,19.1-40.7,53-39.5,71.5c1,6.5,20,8,20.3-9.2c2.6-21.7,13.1-36.2,28.9-45.4c13.8-8,34.5-11.2,53.7-2.3c12.1,7,24-5.4,18.1-13
			C239.4,70.2,206.8,63.7,176.5,81.2z"/>
	</g>
</g>
</svg>
