<?xml version="1.0" encoding="utf-8"?>
<!-- Generator: Adobe Illustrator 21.1.0, SVG Export Plug-In . SVG Version: 6.00 Build 0)  -->
<svg version="1.1" id="Layer_7" xmlns="http://www.w3.org/2000/svg" xmlns:xlink="http://www.w3.org/1999/xlink" x="0px" y="0px"
	 viewBox="0 0 555 512" style="enable-background:new 0 0 555 512;" xml:space="preserve">
<g id="_x35_2_1_">
	<path d="M417.3,195.9l-1.4-3.1l-109.1-67L290,136.2c-8,19.7-20.5,42.5-37.6,69.2c-8.6,13.4-17.2,25.9-24.5,36.2l16.1-17.2
		l50.2-52.6l49.1,165.6c0,0,0,0,0,0l1.2-3.3l11.4,3.4l-1.5,3.2v0.1c-1.8,3.7-3.7,7.6-6.2,11l-0.5,0.6l0.3,2.2L203.3,446l1.1-102.6
		l-0.1,0.3c-3,3.2-6.7,6.1-10.2,8l-2.5,1.3l-6.1-9.8l2.8-1.5c2.6-1.4,4.8-3.4,7.7-5.9l2-1.8l6.4,5.9v-5.1l-6.8-4.1l1-2.5
		c0.2-0.4,1.9-4.5,2.6-5.7c0.7-1.2,3.1-5.3,3.2-5.5l-0.1-0.5v-43.3l-27.5,35.4l-2.1-2.6v38.2c1.1,0.1,5,0.5,5,0.5l3.5,11.6l-7.1-0.5
		l1.4,0.3c-0.9-0.1-1.9-0.3-2.8-0.4l-1.4,91L63.4,396.4L90.1,207l16.1,6.5c-1.7-2.6-3.5-5.3-5.2-8c-16.4-25.5-28.5-47.5-36.5-66.6
		L45,130.1L0.6,422.9l184.4,88.9l182.4-111.7l187.5,110L417.3,195.9z M357.5,331.6l-11.6-1v-4.2c0-2.8-0.5-5.1-1.1-7.6l-0.7-3
		l11.6-2.1l0.5,2.9c0.6,3.2,1.2,6.4,1.2,9.8V331.6z M358.1,300.4c-2,2.7-2.7,7.4-2.7,7.4l-11.6,1.4l0.5-2.9c0.6-3.7,1.2-8,4.1-12.5
		l1.6-2.6l9.9,6.6L358.1,300.4z M375.4,348.4l-16.9-57v0l-5.2-4.7l3.2-2.3l-30.4-101l64.1,39.9l19.1,43.3c1.1,0.1,2.1,0.3,3.2,0.4
		l4.6,0.6l-2.5,11.2l36.8,110.9L382,352.2L375.4,348.4z"/>
	<path d="M286.4,351.1l-1.9-3l-8.4,7.5l0.9,2c0.9,2.1,7.4,7.4,11.4,8.5l2.4,0.6l4.8-9.7l-2.9-1.3C290.7,354.8,287,351.9,286.4,351.1
		z"/>
	<path d="M374.7,285.1l-2.4,1.7c-2.8,2-5.7,4.1-8,6.1l-2,1.8l-3.7-3.3v0l-2.1-6.9c0.9-0.7,1.9-1.4,2.9-2.2c2-1.6,4.2-3.2,6.6-4.7
		l2.4-1.4L374.7,285.1z"/>
	<path d="M274.3,323.5c-0.2-0.4-0.2-0.4-0.2-1.2v0c0-2.4,0-5,0.5-6.7l0.9-3.2l-11.7-2.3l-0.7,2.9c-0.7,3-0.7,6.5-0.7,9.3l0,6.6
		l14.2-1.3L274.3,323.5z"/>
	<path d="M331.9,350c-1.6,0.8-3.4,1.5-5.4,2.3c-1.4,0.6-2.9,1.1-4.5,1.8l-2.5,1.1l3.5,10.5l2.7-0.7c3.5-0.9,8.4-2.5,12.2-5.2
		l2.3-1.6l-5.9-9.5L331.9,350z"/>
	<path d="M415.1,279.5L415.1,279.5l-2.9-0.4c-3.6-0.5-7-1-10.4-1c0,0,0,0,0,0h-3.1l0-11.6h3.1c0,0,0,0,0,0c2.8,0,5.3,0.2,7.8,0.5
		L415.1,279.5z"/>
	<path d="M347.6,352.5l-1.2,1.7l-10-6.7l2.3-2.6c1.8-2,3.4-4.5,4.5-7.3L347.6,352.5z"/>
	<path d="M388.3,267.5l-0.4,0.1c-3.7,1.1-7.5,2.2-11.3,3.9l-3.2,1.5l6.5,10.4l2.6-1.4c2.8-1.5,5.5-2.4,8.5-2.9h4.2l-2.6-11.6
		L388.3,267.5z"/>
	<path d="M155.1,333.8l-1.7-2.5l-9.8,6.6l1.9,2.5c2.3,3.1,5.2,5.9,9.4,9l2.6,1.9l6.2-9.9l-2.3-1.6
		C158.5,337.7,156.5,335.8,155.1,333.8z"/>
	<polygon points="206.1,341.5 204.4,343.4 204.4,339.9 	"/>
	<path d="M228.9,279.6c-3.2,2.8-5.7,6.2-8.1,9.4l-2.1,2.8l9.8,5.5l10.7-11.9l-8.4-7.5L228.9,279.6z"/>
	<path d="M174.8,344.3l0,11.5c-2.6-0.4-5.1-0.8-7.3-1.2l-3.1-0.6l2.5-11.1l2.8,0.5C171.4,343.8,173.1,344.1,174.8,344.3z"/>
	<path d="M252,267.5c-3.2,0-5.7,1.2-7.6,2c-0.3,0.1-0.6,0.3-0.9,0.4c-2.1,0.9-3.6,1.7-5.4,3l-2.8,1.9l7.9,9.4l2.4-2.1
		c0.9-0.8,2.5-1.8,3.4-2.2l0,0c0.8-0.5,1.7-0.8,2.6-0.8l3.4,0l0-11.6L252,267.5z"/>
	<path d="M268.8,294c0,2.3-0.5,4.9-1.5,7l-1.8,3.7l11.2,3l1.1-2.2c1.7-3.6,2.6-7.6,2.6-12l0-3.2l-11.6,1L268.8,294z"/>
	<path d="M279.5,342.8c-1.7-3-3.3-5.9-3.8-8.5l-0.6-3.3l-11.4,3.4l0.9,2.9c1,3,2.3,5.6,3.6,8.4c0.4,0.8,0.8,1.6,1.2,2.5l1.4,2.9
		l10.1-5.7L279.5,342.8z"/>
	<path d="M266.1,286.1l1.5,2.3l9.9-5.5l-1.7-2.7c-2.5-3.8-5.7-6.9-9.8-9.4l-2.5-1.5l-6.5,10.4l3.5,1.3
		C262.3,281.6,264.2,283.4,266.1,286.1z"/>
	<path d="M150.5,318.2l-11.6,0l0,3c0,1.7,0,4.1,0.7,6.6l0.7,2.7l10.2-2.1L150.5,318.2z"/>
	<path d="M311.6,355.7c-0.9,0.1-3.4,0.3-4.4,0.4c-1.6,0.1-6.8,0.1-6.9,0.1l-3.1,0l0,11.6l3.1,0c0.2,0,5.1-0.1,6.8-0.1
		c1.4-0.1,5.5-0.4,5.7-0.4l3.3-0.3l-1.7-11.6L311.6,355.7z"/>
	<path d="M216.7,319.3l-1.9,3c-0.1,0.1-1.3,2-2.2,3.5c-1.2,1.7-2.7,5-3.7,7.6l-1.3,3.2l-3.3-1.7l0.1-17.8l1.3-2.2L216.7,319.3z"/>
	<path d="M213.6,298c-0.4,0.6-2.4,3.8-3,5.2c-0.6,1.3-2.4,5.7-2.5,5.9l-1.1,2.6l10.2,4.9l1.2-3.1c0.7-1.9,1.7-4.3,2.1-4.9
		c1.4-2.4,3.6-5.6,3.7-5.7l2.2-3.4l-11.6-3.5L213.6,298z"/>
	<polygon points="122.8,325.5 125.2,298.5 153.4,302 154.8,286.4 126.7,282.9 129.2,256.4 112.2,254.6 109.6,281.1 81.4,277.6 
		80.2,293.8 108.1,296.7 105.6,323.2 	"/>
	<path d="M176.8,272.5l-25.2-32.2c-5.8-7.6-20.4-27-34.7-49.4c-26.3-41.1-38.6-70.5-38.6-92.5c0-13.2,2.6-26.1,7.7-38.3l0.1-0.1
		c5-11.7,12.1-22.2,21.1-31.1c9-9,19.5-16.1,31.2-21.1C150.6,2.6,163.5,0,176.7,0c13.2,0,26.1,2.6,38.3,7.7
		c11.7,4.9,22.3,12,31.3,21.1c9,9,16.1,19.5,21.1,31.2c5.1,12,7.7,24.9,7.8,38.2v0.1c0,22-12.3,51.4-38.6,92.5
		c-16.6,25.9-33.2,47.4-35.3,50.2l0,0L176.8,272.5z M151.5,239.6c0,0,0.1,0.1,0.2,0.3L151.5,239.6z M134.3,80.4
		c-2.4,5.7-3.6,11.8-3.6,18c0,2.8,1.5,19.3,30.4,64.4c5.5,8.5,11,16.6,16,23.7c4.9-7,10.5-15.1,16-23.7
		c28.8-44.9,30.4-61.4,30.4-64.4c0-6.4-1.3-12.4-3.6-18l0-0.1c-2.3-5.5-5.7-10.5-9.9-14.7c-4.3-4.3-9.2-7.6-14.7-9.9
		c-5.7-2.4-11.8-3.6-18.1-3.6s-12.3,1.2-18.1,3.6c-5.5,2.3-10.4,5.7-14.7,9.9C140.1,69.9,136.7,74.8,134.3,80.4z"/>
	<path d="M177,131.4c-18.1,0-32.8-14.7-32.8-32.8s14.7-32.8,32.8-32.8s32.8,14.7,32.8,32.8S195.1,131.4,177,131.4z M177,85.1
		c-7.5,0-13.6,6.1-13.6,13.6s6.1,13.6,13.6,13.6s13.6-6.1,13.6-13.6S184.5,85.1,177,85.1z"/>
</g>
</svg>
