<?xml version="1.0" encoding="utf-8"?>
<!-- Generator: Adobe Illustrator 21.1.0, SVG Export Plug-In . SVG Version: 6.00 Build 0)  -->
<svg version="1.1" id="Layer_2" xmlns="http://www.w3.org/2000/svg" xmlns:xlink="http://www.w3.org/1999/xlink" x="0px" y="0px"
	 viewBox="0 0 495.9 512" style="enable-background:new 0 0 495.9 512;" xml:space="preserve">
<path d="M475,128.5l19-50c4.5-12,1-25.5-8.7-33.8L443.5,9.5c-6.4-5.4-15.1-7.3-23.2-5.1L276.5,43.6V26.5c0-14.4-11.6-26-26-26l0,0
	c-14.4,0-26,11.6-26,26v33L81.6,59.3c-6.3,0-12.3,2.5-16.7,6.9L9.5,121.6c-11.8,11.8-11.8,30.9,0,42.7l56.6,56.6
	c4.4,4.4,10.4,6.9,16.7,6.9l141.7-0.3V352h-44c-18.5,0-33.5,15-33.5,33.5l0,0c0,18.5,15,33.5,33.5,33.5h44v93.5h52V419h45
	c18.5,0,33.5-15,33.5-33.5l0,0c0-18.5-15-33.5-33.5-33.5h-45v-77.8l129.7,45.2c8,2.8,16.8,1.4,23.5-3.6l47.8-35.4
	c12.9-9.9,15.7-28.2,6.3-41.5l-60.2-84.8l35.7-11.1C466.6,140.9,472.3,135.5,475,128.5z M94.2,175.5L61.7,143l31.5-31.5h131.3v64
	H94.2z M429.2,239.6L399.5,263l-123-41v-64.2l65.4,20.3v0.1h0.1l56.5,17.5L429.2,239.6z M432.4,97.7L341,124.6l-64.5-18.9v-10
	l153-36.8l14.9,11.2L432.4,97.7z"/>
</svg>
