<?xml version="1.0" encoding="utf-8"?>
<!-- Generator: Adobe Illustrator 21.1.0, SVG Export Plug-In . SVG Version: 6.00 Build 0)  -->
<svg version="1.1" id="Layer_1" xmlns="http://www.w3.org/2000/svg" xmlns:xlink="http://www.w3.org/1999/xlink" x="0px" y="0px"
	 viewBox="0 0 262 512" style="enable-background:new 0 0 262 512;" xml:space="preserve">
<path d="M156.2,252.4l0.1-17.4h84.5v-52h-84.3l0.5-83l43,42l36.5-36.7L131,0L26.4,105.4L63,142l42-42v83H21.2v52H105v17.6
	C45.1,264.7,0,317.6,0,381c0,72.3,58.7,131,131,131s131-58.7,131-131C262,317.3,216.5,264.2,156.2,252.4z M131,460
	c-43.6,0-79-35.4-79-79s35.4-79,79-79s79,35.4,79,79S174.6,460,131,460z"/>
</svg>
