<?xml version="1.0" encoding="utf-8"?>
<!-- Generator: Adobe Illustrator 21.1.0, SVG Export Plug-In . SVG Version: 6.00 Build 0)  -->
<svg version="1.1" id="Layer_1" xmlns="http://www.w3.org/2000/svg" xmlns:xlink="http://www.w3.org/1999/xlink" x="0px" y="0px"
	 viewBox="0 0 512 512" style="enable-background:new 0 0 512 512;" xml:space="preserve">
<path d="M406.6,143.9L370,180.5l42,42h-77v-83h-52v83h-23.6c-12.1-59.9-65-105-128.4-105c-72.3,0-131,58.7-131,131s58.7,131,131,131
	c63.7,0,116.8-45.5,128.6-105.8l23.4,0.1v84.7h52V274l77,0.5l-42,43l36.7,36.5L512,248.5L406.6,143.9z M131,327.5
	c-43.6,0-79-35.4-79-79s35.4-79,79-79s79,35.4,79,79S174.6,327.5,131,327.5z"/>
</svg>
