<?xml version="1.0" encoding="utf-8"?>
<!-- Generator: Adobe Illustrator 21.1.0, SVG Export Plug-In . SVG Version: 6.00 Build 0)  -->
<svg version="1.1" id="Layer_1" xmlns="http://www.w3.org/2000/svg" xmlns:xlink="http://www.w3.org/1999/xlink" x="0px" y="0px"
	 viewBox="0 0 640 512" style="enable-background:new 0 0 640 512;" xml:space="preserve">
<g id="_x35_2" transform="translate(0,-952.36218)">
	<path d="M465.4,1068.4c2.5,0,5.2,0,7.8,0c26.4,0.3,48.5,3.6,65.5,9.6c18,6.4,29.9,15.5,37.4,28.5c11.4,19.7,12.6,42.2,11.5,57.6
		c-1.5,22-8.4,44.4-19.3,63.1c-14.7,25-19.7,56.1-24.2,83.6c-0.8,4.7-1.7,10.6-2.8,16.5c-3.1-1.7-6.6-3.7-10.5-6
		c-16.8-10.1-36.7-24.2-57.8-40.7c-42.1-33.1-78.5-68.1-92.7-85.6l0-0.1l0-0.1c-15.7-19.2-33.8-30.1-53.8-32.6l-6.4-0.8l-6.4,0.8
		c-20,2.5-38.1,13.5-53.8,32.6l0,0.1l0,0.1c-14.2,17.5-50.7,52.5-92.7,85.6c-21,16.5-41,30.6-57.8,40.7c-3.9,2.3-7.4,4.3-10.5,6
		c-1.1-5.8-2-11.8-2.8-16.5c-4.5-27.5-9.6-58.6-24.2-83.6c-11-18.7-17.8-41.2-19.3-63.1c-1.1-15.4,0.1-37.9,11.5-57.6
		c7.6-13,19.5-22.1,37.4-28.5c17-6.1,39.1-9.3,65.5-9.6c2.6,0,5.2,0,7.8,0c35,0,64.3,3.1,89.5,9.6c17.3,4.4,35.4,6.7,54,6.7
		c0.7,0,1.3,0,2,0c0.7,0,1.3,0,2,0c18.6,0,36.7-2.2,54-6.7C401.2,1071.5,430.4,1068.4,465.4,1068.4 M465.4,1016.4
		c-34.4,0-69,2.7-102.4,11.2c-13.7,3.5-27.4,5-41.1,5c-0.7,0-1.3,0-2,0c-0.6,0-1.3,0-2,0c-13.7,0-27.4-1.5-41.1-5
		c-33.4-8.6-68-11.2-102.4-11.2c-2.8,0-5.6,0-8.4,0.1c-53.5,0.6-117,11.8-147.3,64.1c-30.3,52.2-21.5,122.8,7.9,173.1
		c24.4,41.6,13.3,135.4,52.8,135.4c1.5,0,3-0.1,4.7-0.4c54.8-9.2,179.5-116.2,215.8-160.7c7.3-8.9,13.7-13.2,20-14
		c6.3,0.8,12.7,5.1,20,14c36.3,44.5,160.9,151.6,215.8,160.7c1.6,0.3,3.2,0.4,4.7,0.4c39.5,0,28.4-93.8,52.8-135.4
		c29.4-50.3,38.2-120.9,7.9-173.1c-30.3-52.3-93.8-63.5-147.3-64.1C471.1,1016.4,468.3,1016.4,465.4,1016.4L465.4,1016.4z"/>
	<path d="M117.4,1151.7c20.9-20.4,42.9-29.7,64.6-30.8c31.8-1.5,63,14.7,89.4,39.7C227.3,1186.5,170.4,1204.2,117.4,1151.7z
		 M368.5,1160.6c26.4-25,57.6-41.2,89.4-39.7c21.7,1,43.7,10.4,64.6,30.8C469.6,1204.2,412.8,1186.5,368.5,1160.6z"/>
</g>
</svg>
