<?xml version="1.0" encoding="utf-8"?>
<!-- Generator: Adobe Illustrator 21.1.0, SVG Export Plug-In . SVG Version: 6.00 Build 0)  -->
<svg version="1.1" id="Layer_2" xmlns="http://www.w3.org/2000/svg" xmlns:xlink="http://www.w3.org/1999/xlink" x="0px" y="0px"
	 viewBox="0 0 576 512" style="enable-background:new 0 0 576 512;" xml:space="preserve">
<path id="_x35_2" d="M379.2,147V330c-27.7-25.3-56.9-40.7-87.1-45.9c-38.5-7-67.8-9.4-111.5-11.7l-54.7-2.8v54.7l-2.1-0.1
	c-8.1-24.1-26.9-45.8-54.1-52.3l-0.9-0.2l-0.9-0.2c-1.6-0.3-3.3-0.6-7-1.2c-3.2-0.5-6.2-1-8.9-1.5v-61.8h7.2h34l5.8-13.2h32.9
	l6,13.2l35.2-1.7c8.1-0.4,80.3-4.1,120.7-12.6C323.8,186.4,352.5,171.1,379.2,147 M413.4,32.6c-8.3,0-15.6,5.7-21.9,17.1
	c-6.6,11-25.2,36.4-33.5,45.2c-24.8,26.7-49.9,41.7-74.9,46.9c-37.5,7.9-112.6,11.5-112.6,11.5c-2.2-4.8-6.7-11.5-17.8-11.5H78.2
	c-8.8,0-15.2,4.4-19,13.2H22.3C10,155.1,0,165,0,177.3v115.9c0,9.9,6.6,18.7,16.2,21.4c11.6,3.3,38.6,7.3,41.4,7.9
	c13.5,3.3,20.5,21.8,18.6,32L57.2,462c-1.4,10.5-2.4,18.9,13.2,18.9l102.6,1.8c5,0,7.7-3,8.3-9l4.1-31.6c0.5-6,0.3-9-9.1-9
	c-12.9,0-17.1-17.5-14.5-26l8.3-24c1.4-0.9,7.9-4.9,7.9-16.2v-42.7c44.4,2.3,70.9,4.7,105.1,11c25.1,4.3,50.1,19.9,74.9,46.9
	c8.3,8.8,16,18.3,23.2,28.6c2.5,3.7,18.3,33.8,32.2,33.8c9.6,0,17.8-6.5,17.8-17.6c0,0,0-283,0-377.4
	C431.2,39.8,423,32.6,413.4,32.6L413.4,32.6z M509.7,72.5c-0.4,0-0.8,0.1-1.2,0.2c-1.9,0-3.6,0.4-5,1.3l-30.2,35
	c-0.8,1.1-1.2,2.6-1.2,4.3c0,1.7,0.4,3.1,1.2,4.3c1.1,1.2,2.5,1.8,4,1.8c0.3,0,0.6,0,0.9-0.1c1.7,0,3-0.6,4.1-1.7l30.2-34.1
	c1.4-1.4,2.1-3.1,2.1-5.1c0-1.4-0.7-2.8-2.1-4.3C511.7,73,510.7,72.5,509.7,72.5L509.7,72.5z M553.7,137.1c-0.8,0-1.7,0.1-2.5,0.4
	l-41.4,17.1c-2.8,1.1-4.1,3.1-4.1,6c0,0.9,0,1.6,0,2.1c1.1,1.7,2.3,2.8,3.7,3.4c1,0.5,1.9,0.8,2.8,0.8c0.6,0,1.2-0.1,1.7-0.3
	l42.2-17.5c1.4-0.6,2.5-1.7,3.3-3.4c0.5-1.4,0.5-3,0-4.7c-0.6-1.7-1.7-2.8-3.3-3.4C555.3,137.3,554.5,137.1,553.7,137.1L553.7,137.1
	z M452.7,185.8h-5.8c-2.5,0-4.6,0.9-6.2,2.6c-1.7,1.7-2.5,3.8-2.5,6.4v87.9c0,2.8,0.8,5,2.5,6.4c1.7,1.7,3.7,2.6,6.2,2.6h5.8
	c2.2,0,4.3-0.9,6.2-2.6c1.9-1.4,2.9-3.6,2.9-6.4v-87.9c0-2.6-1-4.7-2.9-6.4C457,186.6,454.9,185.8,452.7,185.8L452.7,185.8z
	 M569.8,213.1h-45.5c-1.4,0-2.8,0.6-4.1,1.7c-1.4,1.1-2.1,2.6-2.1,4.3c0,2,0.7,3.6,2.1,4.7c1.4,1.1,2.8,1.7,4.1,1.7h45.5
	c1.7,0,3-0.6,4.1-1.7c1.4-1.1,2.1-2.7,2.1-4.7c0-1.7-0.7-3.1-2.1-4.3C572.8,213.6,571.4,213.1,569.8,213.1L569.8,213.1z
	 M511.8,271.5c-0.8,0-1.6,0.1-2.4,0.4c-1.4,0.9-2.6,2.3-3.7,4.3c0,0.3,0,1,0,2.1c0,2.8,1.4,4.7,4.1,5.5l41.4,17.1
	c0.8,0.3,1.7,0.4,2.5,0.4c0.8,0,1.7-0.1,2.5-0.4c1.7-0.9,2.8-2,3.3-3.4c0.5-1.4,0.5-3.1,0-5.1c-0.8-1.4-1.9-2.4-3.3-3l-42.2-17.5
	C513.2,271.7,512.5,271.5,511.8,271.5L511.8,271.5z M478.3,318.9c-1.9,0-3.6,0.7-5,2.1c-0.8,1.4-1.2,2.8-1.2,4.3
	c0,1.7,0.4,3.1,1.2,4.3l30.2,34.1c1.4,1.7,3,2.6,5,2.6c1.4,0,2.8-0.6,4.1-1.7c1.4-1.1,2.1-2.6,2.1-4.3c0-2-0.7-3.7-2.1-5.1
	L482.5,321C481.4,319.9,480,319.2,478.3,318.9L478.3,318.9z"/>
</svg>
