<?xml version="1.0" encoding="utf-8"?>
<!-- Generator: Adobe Illustrator 21.1.0, SVG Export Plug-In . SVG Version: 6.00 Build 0)  -->
<svg version="1.1" id="Layer_5" xmlns="http://www.w3.org/2000/svg" xmlns:xlink="http://www.w3.org/1999/xlink" x="0px" y="0px"
	 viewBox="0 0 512 512" style="enable-background:new 0 0 512 512;" xml:space="preserve">
<g id="_x35_2_1_">
	<path d="M332.8,162.9c16.7,0,30.2,16.7,30.2,37.2s-13.6,37.2-30.2,37.2c-16.6,0-30.2-16.7-30.2-37.2
		C302.5,179.6,316,162.9,332.8,162.9z M179.2,162.9c16.7,0,30.2,16.7,30.2,37.2s-13.6,37.2-30.2,37.2c-16.6,0-30.2-16.5-30.2-37.1
		C148.9,179.6,162.4,162.9,179.2,162.9z M369.9,354.8c0,6.4-5.2,11.6-11.6,11.6H165.5c-6.4,0-11.6-5.2-11.6-11.6v-5
		c0-6.4,5.2-11.6,11.6-11.6h192.9c6.4,0,11.6,5.2,11.6,11.6V354.8z"/>
	<g id="_x35_2">
		<path d="M256,0C114.6,0,0,114.6,0,256s114.6,256,256,256s256-114.6,256-256S397.4,0,256,0z M256,460c-112.7,0-204-91.3-204-204
			S143.3,52,256,52s204,91.3,204,204S368.7,460,256,460z"/>
	</g>
</g>
</svg>
