<?xml version="1.0" encoding="utf-8"?>
<!-- Generator: Adobe Illustrator 22.0.1, SVG Export Plug-In . SVG Version: 6.00 Build 0)  -->
<svg version="1.1" id="Layer_1" xmlns="http://www.w3.org/2000/svg" xmlns:xlink="http://www.w3.org/1999/xlink" x="0px" y="0px"
	 viewBox="0 0 386.8 512" style="enable-background:new 0 0 386.8 512;" xml:space="preserve">
<style type="text/css">
	.st0{fill-rule:evenodd;clip-rule:evenodd;}
</style>
<g>
	<g>
		<path class="st0" d="M265.9,266.3c-14.2,0-25.7,11.3-25.7,25.2c0,13.9,11.5,25.2,25.7,25.2c14.2,0,25.7-11.3,25.7-25.2
			C291.6,277.6,280.1,266.3,265.9,266.3z M177.2,103.4H212c10,0,18.2-8.1,18.2-18.2v0c0-10-8.1-18.2-18.2-18.2h-34.8
			c-10,0-18.2,8.1-18.2,18.2v0C159,95.3,167.2,103.4,177.2,103.4z M123.3,266.3c-14.2,0-25.7,11.3-25.7,25.2
			c0,13.9,11.5,25.2,25.7,25.2c14.2,0,25.7-11.3,25.7-25.2C149,277.6,137.5,266.3,123.3,266.3z M269.2,115.4H119.3
			c-24.6,0-21.7,20-21.7,44.6c0,24.6-2.9,44.6,21.7,44.6h150.6c24.8,0,22-20.3,21.7-45.1C291.3,134.9,293.7,115.4,269.2,115.4z
			 M305.3,385.1c4.3,0,6.8,0,6.8,0c26.7,0,48.3-30.8,48.3-57.1V79.3C360.3,53,349.1,0,279.9,0H106.1c-61,0-80.4,53-80.4,79.3V328
			c0,26.3,21.6,57.1,48.3,57.1c0,0,3.7,0,10.2,0C85.3,385.1-1.4,512-0.1,512c7.9,0,24.4,0,46.3,0c1.2,0,65.1-88.8,66.3-88.8
			c72.8,0,86.5,0,164.1,0c1.1,0,60.3,88.8,61.4,88.8c23.7,0,41.9,0,51.2,0C391,512,304.1,385.1,305.3,385.1z M274,333.1l-14.7,27.6
			c-1.9,3.6-3.3,7.1-4.3,10.5H134.2c-1.3-4.5-2.9-8.1-4.2-10.5l-14.7-27.6H84.2h-4.3c-1.1-1.7-2-3.9-2.2-5.2V79.3
			c0-2.8,1.7-11.4,6.9-18.2c3.4-4.5,8.6-9.1,21.6-9.1h173.8c18.3,0,22.2,5.6,23.4,7.4c3.7,5.3,5,14.1,5,19.9v248.6
			c-0.1,1.3-1.1,3.5-2.2,5.2h-0.9L274,333.1z"/>
	</g>
</g>
</svg>
