<?xml version="1.0" encoding="utf-8"?>
<!-- Generator: Adobe Illustrator 22.0.1, SVG Export Plug-In . SVG Version: 6.00 Build 0)  -->
<svg version="1.1" id="Layer_2" xmlns="http://www.w3.org/2000/svg" xmlns:xlink="http://www.w3.org/1999/xlink" x="0px" y="0px"
	 viewBox="0 0 512 512" style="enable-background:new 0 0 512 512;" xml:space="preserve">
<style type="text/css">
	.st0{fill:#010101;}
</style>
<g>
	<path class="st0" d="M451.4,128.5c-3.8-4.5-5.6-10.1-2.8-15.8c8.5-24.8,1.9-56.3-22.6-61.9c-2.6-0.7-5.2-1-7.7-1
		c-14.6,0-26.8,10.9-30,29.1c-0.9,3.4-0.9,7.9-1.9,12.4c-26.1,0-82-51.4-166.1-51.4c-16.2,0-33.4,1.9-51.6,6.4
		C81.2,67.9,35.2,134.6,31.3,231.9C18.6,243.7,0,269.9,0,322c0,97,74.9,160.8,166.9,160.8c119.6,0,143.8-63.8,189.5-63.8
		c21.9,0,35,13.7,39.7,9.5c6.2-5.5-17.6-21.1-40.7-21.1c-32.2,0-76.9,56.1-185.2,56.1c-89,0-144.1-59.1-144.1-144.5
		c0-26.1,5.8-43.1,10.6-52.7c5.4,13.2,13.1,23.2,17,26.4c17.2,15,36.4,12.1,57.5,19c9.6,3.2,19.6,4.9,29.7,4.9c1.4,0,2.8,0,4.3-0.1
		c65.4-3.1,262.7-12.5,271.4-12.5c17.9,0,33.9,15.8,51.8,21.4c4,1.5,7.4,2.2,10.4,2.2c6.4,0,11.5-3.3,17.8-10.1
		c1.9,1,3.6,1.4,5.3,1.4c5.8,0,9.8-5.7,9.8-12.7C515.5,257.8,481.5,163.3,451.4,128.5z M416.5,252c-5.8,0-51,2-258.8,11.9l-15.1,0.7
		c-0.6,0-1.2,0-1.8,0c-4.4,0-8.9-0.8-13.5-2.3c-10.8-3.6-20.6-5.3-28.4-6.6c-3.6-0.6-8.3-1.5-10.7-2.2c-1.8-2.8-4.3-7.5-5.3-12.1
		c0.5-40.3,9.1-72.9,25.5-97.2c16.2-23.9,39.9-39.4,72.5-47.5l0.1,0l0.1,0c13.1-3.3,26.2-4.9,39.1-4.9c41.7,0,76,17.1,103.5,30.9
		c22,11,41,20.5,62.7,20.5h13.9c2.7,6.5,6.5,12.8,11.3,18.5l0.3,0.3l0.3,0.3c8.3,9.5,21.7,33.9,33.1,66.8c4,11.4,7,21.9,9.2,31.1
		C443.7,255.8,431.2,252,416.5,252z"/>
	
		<ellipse transform="matrix(0.9239 -0.3827 0.3827 0.9239 -48.4814 167.8878)" class="st0" cx="397.8" cy="205.8" rx="17.7" ry="17.7"/>
</g>
</svg>
