<?xml version="1.0" encoding="utf-8"?>
<!-- Generator: Adobe Illustrator 21.1.0, SVG Export Plug-In . SVG Version: 6.00 Build 0)  -->
<svg version="1.1" id="Layer_1" focusable="false" xmlns="http://www.w3.org/2000/svg" xmlns:xlink="http://www.w3.org/1999/xlink"
	 x="0px" y="0px" viewBox="0 0 512 512" style="enable-background:new 0 0 512 512;" xml:space="preserve">
<path d="M511.9,115V53.2h-60.1v15.6h-35.6V28.6c0-15.8-12.8-28.6-28.6-28.6H124.5c-15.8,0-28.6,12.8-28.6,28.6v40.1H60.1V53.2H-0.1
	V115h60.2V99.3h35.8v85.1H60.1v-15.6H-0.1v61.8h60.2V215h35.8v85.1H60.1v-14.8H-0.1v61.8h60.2v-16.5h35.8v86H60.1V401H-0.1v61.8
	h60.2v-15.6h35.8v36.2c0,15.8,12.8,28.6,28.6,28.6h263.1c15.8,0,28.6-12.8,28.6-28.6v-36.2h35.6v15.6h60.1V401h-60.1v15.6h-35.6
	v-85.1h35.6v15.6h60.1v-61.8h-60.1v15.6h-35.6v-85.1h35.6v14.8h60.1v-61.8h-60.1v16.5h-35.6V99.3h35.6V115H511.9z M364.2,460H147.8
	V52h216.3V460z"/>
</svg>
