<?xml version="1.0" encoding="utf-8"?>
<!-- Generator: Adobe Illustrator 21.1.0, SVG Export Plug-In . SVG Version: 6.00 Build 0)  -->
<svg version="1.1" id="_x35_2_1_" xmlns="http://www.w3.org/2000/svg" xmlns:xlink="http://www.w3.org/1999/xlink" x="0px" y="0px"
	 viewBox="0 0 550 512" style="enable-background:new 0 0 550 512;" xml:space="preserve">
<g id="_x35_2_2_">
	<path d="M433.7,343.7c33.1,0,61.1,22.1,70,52.3h46.5l-0.3-113.6h0.1l-0.1-29.6c0-2.1-1.8-3.9-3.9-3.9s-3.9,1.8-3.9,3.9l0.1,13.4
		h-68.3v-23.2h-8.2v-5.1l48.7,22.5l32.8-70.4L269.3,61.3l3.8,33.7l-4,8.5l-75.4-36.2l-13.7,26l76.7,37l-4.2,9l88.6,40.9v33.4h-3.3
		v27.1h-4.9V266h-43l-28.6-23.3V220l-31.5-26.4h-28.9l-0.6,64.3h-19.8l0.3-81.3h-120l-12.4,21.1v-57.3h-1.9v60.5l-4.6,7.8v-24.2
		h-5.5v33.6L4.9,271.5c-6.7,11-6.4,36.8,0.7,47.5L55,393l27.1,0.4c9.6-29,37.1-49.9,69.3-49.9c33.1,0,61.1,22.1,70,52.3h142.4
		C372.6,365.8,400.5,343.7,433.7,343.7z M354.5,186.6l97.7,45.1H452v11.2h-8.2v23.2h-81.1v-25.3h-4.9v-27.1h-3.3L354.5,186.6
		L354.5,186.6z M50.2,254c0-8.6,26.9-49.3,26.9-49.3h56.5l-3,53.2c0,0-73.1,0-73.2,0C49.7,258,50.2,254,50.2,254z M339.3,357.7
		h-93.7c-20-31.8-55.6-52.3-94.4-52.3c-32.8,0-62.9,14.2-83.6,37.8l-28.9-43.4c-0.3-1.9-0.5-4.7-0.4-7.2c5.2,2.1,11.5,3.6,19.1,3.6
		c0.3,0,180.8,0,180.8,0l0.3-22.7l37.8,30.8h235.4l0.1,33.1c-20.4-20-48.3-32.1-78-32.1C394.9,305.4,359.4,325.9,339.3,357.7z"/>
	<path d="M151.2,357.9c-32.5,0-58.9,26.3-58.9,58.9s26.4,58.9,58.9,58.9s58.9-26.4,58.9-58.9S183.7,357.9,151.2,357.9z M151.2,437.2
		c-11.3,0-20.5-9.2-20.5-20.5s9.2-20.5,20.5-20.5c11.3,0,20.5,9.2,20.5,20.5C171.7,428.1,162.5,437.2,151.2,437.2z"/>
	<path d="M433.7,357.9c-32.5,0-58.9,26.3-58.9,58.9s26.4,58.9,58.9,58.9s58.9-26.4,58.9-58.9S466.2,357.9,433.7,357.9z M433.7,437.2
		c-11.3,0-20.5-9.2-20.5-20.5s9.2-20.5,20.5-20.5c11.3,0,20.5,9.2,20.5,20.5C454.2,428.1,445,437.2,433.7,437.2z"/>
	<polygon points="259.1,450.5 262.5,450.5 262.5,434.1 267.4,434.1 267.4,397.6 237.4,397.6 237.4,434.1 242.3,434.1 242.3,450.5 
		245.7,450.5 245.7,468 227.6,468 227.6,475.7 245.7,475.7 259.1,475.7 277.2,475.7 277.2,468 259.1,468 	"/>
	<polygon points="531.9,450.5 535.2,450.5 535.2,434.1 540.1,434.1 540.1,397.6 510.2,397.6 510.2,434.1 515,434.1 515,450.5 
		518.3,450.5 518.3,468 500.3,468 500.3,475.7 518.3,475.7 531.9,475.7 549.9,475.7 549.9,468 531.9,468 	"/>
	<path d="M151,79.5l25.3,11.7l13.3-26.4l-25.4-12.5c-21.5-10.6-64.5-12.7-64.5-12.7S133,73.7,151,79.5z"/>
</g>
</svg>
