<?xml version="1.0" encoding="utf-8"?>
<!-- Generator: Adobe Illustrator 22.0.1, SVG Export Plug-In . SVG Version: 6.00 Build 0)  -->
<svg version="1.1" id="Layer_1" xmlns="http://www.w3.org/2000/svg" xmlns:xlink="http://www.w3.org/1999/xlink" x="0px" y="0px"
	 viewBox="0 0 303.7 512" style="enable-background:new 0 0 303.7 512;" xml:space="preserve">
<g id="_x35_2">
	<path d="M251.7,52v407.9H52V52H251.7L251.7,52z M0,31.3v449.5C0,498,14,512,31.2,512h241.4c17.2,0,31.2-14,31.2-31.2V31.3
		c0-17.2-14-31.2-31.2-31.2H31.2C14,0.1,0,14,0,31.3z"/>
	<circle cx="79.8" cy="74.9" r="6.4"/>
	<circle cx="151.7" cy="416" r="31.9"/>
	<path d="M184.6,81h-66c-3.5,0-6.3-2.8-6.3-6.3l0,0c0-3.5,2.8-6.3,6.3-6.3h66c3.5,0,6.3,2.8,6.3,6.3l0,0
		C190.9,78.2,188.1,81,184.6,81z"/>
</g>
</svg>
