<?xml version="1.0" encoding="utf-8"?>
<!-- Generator: Adobe Illustrator 22.0.1, SVG Export Plug-In . SVG Version: 6.00 Build 0)  -->
<svg version="1.1" id="Layer_1" xmlns="http://www.w3.org/2000/svg" xmlns:xlink="http://www.w3.org/1999/xlink" x="0px" y="0px"
	 viewBox="0 0 303.7 512" style="enable-background:new 0 0 303.7 512;" xml:space="preserve">
<path d="M286.8,0H16.9C7.6,0,0.1,7.6,0.1,16.9v478.2c0,9.3,7.5,16.8,16.8,16.8h269.9c9.3,0,16.8-7.5,16.8-16.8V16.9
	C303.6,7.6,296.1,0,286.8,0z M182.1,444.4h-61c-4.9,0-8.8-3.9-8.8-8.8l0,0c0-4.9,3.9-8.8,8.8-8.8h61c4.9,0,8.8,3.9,8.8,8.8l0,0
	C190.9,440.5,186.9,444.4,182.1,444.4z M251.7,460H52V52h199.7V460z"/>
<rect x="72" y="72" width="159.7" height="334.8"/>
</svg>
