<?xml version="1.0" encoding="utf-8"?>
<!-- Generator: Adobe Illustrator 21.1.0, SVG Export Plug-In . SVG Version: 6.00 Build 0)  -->
<svg version="1.1" id="Layer_1" xmlns="http://www.w3.org/2000/svg" xmlns:xlink="http://www.w3.org/1999/xlink" x="0px" y="0px"
	 viewBox="0 0 303.7 512" style="enable-background:new 0 0 303.7 512;" xml:space="preserve">
<path d="M274.1,2c-0.6-0.2-1.2-0.4-1.8-0.5c0,0,0,0,0,0c-0.6-0.2-1.3-0.3-1.9-0.5c-1.3-0.3-2.6-0.5-3.9-0.7h0
	c-0.4,0-0.7-0.1-1.1-0.1C263.9,0.1,262.5,0,261,0H42.7c-1.5,0-2.9,0.1-4.4,0.2c-1,0.1-2,0.2-3,0.4C15.2,4.1,0,21.6,0,42.7v426.6
	c0,21.1,15.3,38.6,35.4,42c1,0.2,2,0.3,3,0.4c1.4,0.1,2.9,0.2,4.4,0.2H261c1.8,0,3.7-0.1,5.4-0.3c1.3-0.2,2.6-0.4,3.9-0.7
	c0.6-0.1,1.3-0.3,1.9-0.5c0,0,0,0,0,0c0.6-0.2,1.2-0.4,1.8-0.5c17.2-5.5,29.6-21.6,29.6-40.6V42.7C303.7,23.7,291.2,7.6,274.1,2z
	 M114.5,30.3c1.1-1.1,2.7-1.8,4.5-1.8h65.6c3.5,0,6.3,2.8,6.3,6.3c0,1.7-0.7,3.3-1.8,4.5s-2.7,1.8-4.5,1.8H119
	c-3.5,0-6.3-2.8-6.3-6.3C112.7,33.1,113.4,31.5,114.5,30.3z M79.8,28.5c3.5,0,6.4,2.8,6.4,6.4s-2.8,6.4-6.4,6.4
	c-3.5,0-6.4-2.8-6.4-6.4S76.2,28.5,79.8,28.5z M160.7,501.6c-0.2,0.1-0.3,0.1-0.5,0.1c-0.3,0.1-0.7,0.2-1,0.3
	c-0.4,0.1-0.9,0.2-1.4,0.3c-0.5,0.1-0.9,0.2-1.4,0.2c-0.5,0.1-0.9,0.1-1.4,0.2h0c-0.3,0-0.5,0-0.8,0.1h0c-0.8,0.1-1.6,0.1-2.4,0.1
	c-0.8,0-1.7,0-2.5-0.1c-0.3,0-0.5,0-0.8-0.1h0c0,0,0,0,0,0c-16.1-1.6-28.7-15.2-28.7-31.8c0-16,11.8-29.3,27.2-31.6
	c0.5-0.1,1-0.1,1.5-0.2c1.1-0.1,2.2-0.2,3.3-0.2c1.1,0,2.2,0,3.2,0.2c0.5,0,0.9,0.1,1.4,0.2c0.5,0.1,0.9,0.1,1.4,0.2
	c0.5,0.1,0.9,0.2,1.4,0.3c0.5,0.1,0.9,0.2,1.3,0.3c0.6,0.2,1.3,0.4,1.9,0.6c0,0,0.1,0,0.1,0c4.5,1.6,8.5,4.2,11.8,7.5
	c0.9,0.9,1.8,1.9,2.5,2.9c0.3,0.4,0.6,0.8,0.9,1.2c3.7,5.2,5.9,11.6,5.9,18.5c0,6.9-2.2,13.3-5.9,18.5c-0.3,0.4-0.6,0.8-0.9,1.2
	c-0.2,0.3-0.4,0.5-0.6,0.8c-0.3,0.4-0.6,0.7-1,1.1c-0.3,0.3-0.7,0.7-1,1c-2.1,2.1-4.5,3.9-7.1,5.4c-0.1,0.1-0.2,0.1-0.4,0.2
	c-0.4,0.2-0.8,0.4-1.2,0.6c-0.3,0.1-0.6,0.3-0.9,0.4c-0.3,0.1-0.6,0.3-1,0.4c-0.7,0.3-1.3,0.5-2,0.7
	C161.5,501.3,161.1,501.5,160.7,501.6z M52.8,427.7V67.6h198v360.1H52.8z"/>
</svg>
