<?xml version="1.0" encoding="utf-8"?>
<!-- Generator: Adobe Illustrator 22.0.1, SVG Export Plug-In . SVG Version: 6.00 Build 0)  -->
<svg version="1.1" id="Layer_1" xmlns="http://www.w3.org/2000/svg" xmlns:xlink="http://www.w3.org/1999/xlink" x="0px" y="0px"
	 viewBox="0 0 303.7 512" style="enable-background:new 0 0 303.7 512;" xml:space="preserve">
<path id="_x35_2" d="M273.4,0h-243C13.6,0-0.1,13.6-0.1,30.4v451.3c0,16.7,13.6,30.3,30.4,30.3l242.7-0.1
	c16.8,0,30.3-13.6,30.4-30.3l0.3-451.2C303.8,13.6,290.1,0,273.4,0z M251.8,453.5c-0.1,3.6-3,6.5-6.6,6.5H58.4
	c-3.6,0-6.5-2.9-6.5-6.5v-395c0-3.6,2.9-6.5,6.5-6.5h17.8l6.3,19c3.2,9.6,11.6,16,21.1,16h94.2c9.5,0,17.9-6.4,21.1-16l6.3-19h20
	c3.6,0,6.5,2.9,6.5,6.5V453.5z"/>
</svg>
