<?xml version="1.0" encoding="utf-8"?>
<!-- Generator: Adobe Illustrator 22.0.1, SVG Export Plug-In . SVG Version: 6.00 Build 0)  -->
<svg version="1.1" id="Layer_2_1_" xmlns="http://www.w3.org/2000/svg" xmlns:xlink="http://www.w3.org/1999/xlink" x="0px" y="0px"
	 viewBox="0 0 550.2 512" style="enable-background:new 0 0 550.2 512;" xml:space="preserve">
<g>
	<path d="M0.2,45v422H550V45H0.2z M498,415H52.2V184.4H498V415z M498,132.4H52.2V97H498V132.4z"/>
	<g>
		<path d="M375.8,201.2c-54.9,0-99.3,44.5-99.3,99.3s44.5,99.3,99.3,99.3c54.8,0,99.3-44.5,99.3-99.3S430.7,201.2,375.8,201.2z
			 M415.9,362.3c-8.7,8-20.4,12.1-35.1,12.5v8.4h-15.4v-8.4c-11.4-1.6-21-5.6-28.7-12.1c-7.7-6.5-12.1-17.5-13.2-33h27
			c-0.1,0.8-0.1,1.4-0.1,1.8c0,5.1,1.3,9.5,3.9,13.4c2.6,3.8,6.3,6.3,11,7.5v-46.3c-15.5-7.1-25.9-14.2-31.3-21.2
			c-5.4-7-8.1-14.6-8.1-22.9c0-10.1,3.6-18.7,10.8-25.8c7.2-7.1,16.8-11.2,28.5-12.1v-6.6h15.4v6.6c12.7,1,22.8,5.1,30.3,12.3
			c7.5,7.1,11.3,16.5,11.3,28h-27c-1.2-11.4-6.1-17.6-14.5-18.6v36.4l14.9,6.7c8.4,3.8,15.1,8.1,20.1,13c5,4.8,8.4,9.9,10.4,15.1
			c1.9,5.2,2.9,10.5,2.9,15.9C429,344.5,424.6,354.4,415.9,362.3z M380.7,312.7v40.7c6.3,0.1,11.4-1.7,15.5-5.2
			c4.1-3.6,6.1-7.8,6-12.8C402.3,325.8,395.1,318.2,380.7,312.7z M353,258.7c0,6.1,4.1,11.5,12.3,16.4v-29.3
			C357.1,247.3,353,251.7,353,258.7z"/>
	</g>
	<path d="M76.3,249.5H198v40H76.3V249.5z M258.8,349.5H76.3v-40h182.5V349.5z"/>
</g>
</svg>
