<?xml version="1.0" encoding="utf-8"?>
<!-- Generator: Adobe Illustrator 21.1.0, SVG Export Plug-In . SVG Version: 6.00 Build 0)  -->
<svg version="1.1" id="Layer_2" xmlns="http://www.w3.org/2000/svg" xmlns:xlink="http://www.w3.org/1999/xlink" x="0px" y="0px"
	 viewBox="0 0 575.9 512" style="enable-background:new 0 0 575.9 512;" xml:space="preserve">
<path d="M-0.1,0v512h576V0H-0.1z M523.9,460h-472V319.4h114.5l37.6-89.8l68.2,162.6c2.3,5.4,7.3,8.9,13.3,9.1c0.3,0,0.5,0,0.8,0
	c5.7,0,10.8-3,13.4-7.9l66.4-124.8H437c13.9,0,25.2-11.3,25.2-25.2s-11.3-25.2-25.2-25.2H336.8L290,301.9l-71.8-181.8
	c-2.3-5.8-7.8-9.6-14.1-9.6h0c-6.3,0-11.8,3.8-14.1,9.7l-57.7,148.6H51.9V52h472V460z"/>
</svg>
