<?xml version="1.0" encoding="utf-8"?>
<!-- Generator: Adobe Illustrator 21.1.0, SVG Export Plug-In . SVG Version: 6.00 Build 0)  -->
<svg version="1.1" id="Layer_1" xmlns="http://www.w3.org/2000/svg" xmlns:xlink="http://www.w3.org/1999/xlink" x="0px" y="0px"
	 viewBox="0 0 546 512" style="enable-background:new 0 0 546 512;" xml:space="preserve">
<g>
	<path d="M325.3,486.1C199,486.1,96.2,382.6,96.2,255.4c0-77.6,38.4-149.6,102.7-192.3l53.3-32.4L216,80.4
		c-22.3,33.5-34.1,72.6-34.1,113.4c0,113.4,91.6,205.8,204.3,205.8c40.7,0,79.6-11.9,112.6-34.3l47.2-35.9l-29.9,53.1
		C473.8,447.4,402.4,486.1,325.3,486.1z M167.8,124.3c-29.9,36.3-46.8,82.4-46.8,131c0,113.4,91.6,205.8,204.3,205.8
		c48.2,0,94-17,129.9-47c-22,7-45.2,10.6-69,10.6c-126.4,0-229.2-103.5-229.2-230.8C157.2,170,160.8,146.6,167.8,124.3z"/>
	<path d="M51.5,354.6l-9.5-24.3l-14.8,22l-26.9,1.4L18,373.3L11.3,398l24.9-9.8l23.5,13.6l-2.4-25.6l21.1-15.9L51.5,354.6z
		 M416.5,216.1l30.2,32.1l9.1-41.5l42.7-16.3L459.1,169l-3.8-42.5l-34,28.5l-44.1-9.8l18.2,38.7l-23.9,36.4L416.5,216.1z M87.5,54.8
		l7.2-19.1l-20.6,6.5L56.8,30.1l0.4,20.1L39.1,61.7l20.6,6.1l6.7,19.5L78.9,71h22L87.5,54.8z"/>
</g>
</svg>
