<?xml version="1.0" encoding="utf-8"?>
<!-- Generator: Adobe Illustrator 21.1.0, SVG Export Plug-In . SVG Version: 6.00 Build 0)  -->
<svg version="1.1" id="Layer_1" xmlns="http://www.w3.org/2000/svg" xmlns:xlink="http://www.w3.org/1999/xlink" x="0px" y="0px"
	 viewBox="0 0 512 512" style="enable-background:new 0 0 512 512;" xml:space="preserve">
<path d="M258.2,512.5c-141.6,0-256.8-116-256.8-258.6c0-87,43-167.6,115.1-215.5L174.4,0l-38.6,57.9c-25,37.5-38.2,81.4-38.2,127.1
	c0,127.1,102.7,230.6,228.9,230.6c45.6,0,89.2-13.3,126.2-38.4l57.8-39.3l-38.4,58.6C424.6,469.2,344.6,512.5,258.2,512.5z
	 M81.7,107.1c-33.5,40.7-52.4,92.3-52.4,146.8C29.3,381,132,484.5,258.2,484.5c54,0,105.3-19,145.6-52.7
	c-24.7,7.8-50.7,11.9-77.3,11.9c-141.6,0-256.8-116-256.8-258.6C69.8,158.3,73.8,132,81.7,107.1z"/>
</svg>
