<?xml version="1.0" encoding="utf-8"?>
<!-- Generator: Adobe Illustrator 21.1.0, SVG Export Plug-In . SVG Version: 6.00 Build 0)  -->
<svg version="1.1" id="Layer_1" xmlns="http://www.w3.org/2000/svg" xmlns:xlink="http://www.w3.org/1999/xlink" x="0px" y="0px"
	 viewBox="0 0 512 512" style="enable-background:new 0 0 512 512;" xml:space="preserve">
<style type="text/css">
	.st0{fill:#010101;}
</style>
<g id="_x35_2">
	<path d="M89.7,468.3v43.1h63v-43.1C152.7,425.2,89.7,425.2,89.7,468.3z"/>
	<path d="M212.1,451.9V512h87.8v-60.1C299.9,391.9,212.1,391.9,212.1,451.9z"/>
	<path d="M359.3,468.6v43.1h63v-43.1C422.3,425.4,359.3,425.4,359.3,468.6z"/>
	<path class="st0" d="M490,346c0,0,0-87,0-114.9c0-1.8,8.2-11.9,11.4-17.6c0.5-0.9,0.7-1.8,0.7-2.8c0-5.1,0-13.7,0-13.7l-14.3,0
		c0,0,0-40.5,0-63.6c2.4-2.9,4.9-5.7,7.3-8.6c0-5.9,0-14.8,0-14.8h-6.7c0,0,0-37.4,0-60.4c0-3.2-1-6.3-2.2-9.2
		c-2.4-5.7-5.8-11-9.8-15.8c-1-1.3-2.3-2.6-2.2-4.4c0-1.5,0-18.2,0-18.2l-6,0c0,0,0,16.8,0,18.2c0.1,1.4-0.8,2.6-1.6,3.6
		c-3.9,4.6-7.3,9.7-9.8,15.3c-1.5,3.4-2.8,6.9-2.8,10.6c0,22.9,0,60.3,0,60.3h-9.7c0,0,0,7.6,0,12.8c0,0.9-0.1,1.9,0.6,2.6
		c2.3,2.6,4.7,5.2,7.1,7.8c0,22.9,0,63.9,0,63.9l-14.5,0c0,0,0,7.9,0,13.1c0,1.3,0.7,2.4,1.3,3.5c3.4,6.1,10.7,15.8,10.8,17.5
		c0,27.7,0,114.5,0,114.5l-13.7,0v-29.8c0-7.9-8.2-15.7-11-18.4c-14.7-14.3-30.7-18.7-33.2-22.5c0-3.2,0-9.5,0-9.5l-2.1,0l-2.1,0
		c0,0,0,6.3,0,9.5c-2.5,3.9-18.6,8.3-33.4,22.5c-2.8,2.7-11.1,10.5-11.1,18.4v30.1h-3.5v-71.7c0-14.5-15.2-28.9-20.4-33.9
		c-27.1-26.3-56.8-34.5-61.3-41.6c0-4.4,0-12.2,0-15.7c0.2,0,0.4,0,0.6,0c2.1-0.1,4.1-0.7,6-1.8c2.2-1.2,4-2.7,5.4-4.5
		c0.4-0.4,0.9-1.3,1.8-2.8l-4.4,3.4c-1.7,0.9-3.5,1.4-5.3,1.6c-1.8,0.1-3.5-0.1-5.2-0.6c-1.7-0.5-3.2-1.4-4.6-2.5
		c-1.4-1.2-2.5-2.6-3.4-4.3c-0.9-1.7-1.4-3.5-1.6-5.3c-0.2-1.8,0-3.6,0.5-5.3c0.5-1.7,1.4-3.3,2.5-4.7c1.2-1.4,2.6-2.6,4.4-3.6
		l5.1-1.4c-3.8-0.4-7.1,0.1-9.9,1.6c-2,1.1-3.6,2.4-5,4.1c-1.3,1.6-2.3,3.4-2.9,5.4c-0.6,1.9-0.8,4-0.6,6.1c0.2,2.1,0.8,4.2,1.8,6.2
		c1,1.9,2.3,3.6,3.9,4.9c1,0.8,2,1.4,3.1,1.9c0,1.6,0,12,0,17.4c-4.5,7.1-34.3,15.3-61.6,41.6c-5.2,5-20.5,19.4-20.5,33.9v71.7
		l-3.8,0v-30.5c0-7.9-8.2-15.6-11-18.4c-14.7-14.3-30.8-18.7-33.2-22.5c0-3.2,0-9.5,0-9.5l-2.1,0l-2.1,0c0,0,0,6.3,0,9.5
		c-2.5,3.9-18.6,8.3-33.4,22.5c-2.8,2.7-11.1,10.5-11.1,18.4v30.2h-4.7c0,0,0-86.9,0-114.5c0.1-1.7,7.7-11.4,11.3-17.5
		c0.6-1.1,1.4-2.2,1.4-3.5c0-5.2,0-13.1,0-13.1L64,197c0,0,0-40.9,0-63.9c2.3-2.6,4.8-5.2,7.1-7.8c0.7-0.7,0.6-1.7,0.6-2.6
		c0-5.2,0-12.8,0-12.8H62c0,0,0-37.4,0-60.3c0-3.7-1.3-7.3-2.8-10.6c-2.5-5.5-5.9-10.6-9.8-15.3c-0.8-1-1.7-2.2-1.6-3.6
		c0-1.4,0-18.2,0-18.2l-6,0c0,0,0,16.8,0,18.2c0.1,1.8-1.2,3.1-2.2,4.4c-4,4.8-7.4,10.1-9.8,15.8c-1.2,2.9-2.2,6-2.2,9.2
		c0,22.9,0,60.4,0,60.4h-9.4c0,0,0,9,0,14.8c2.6,2.9,5.2,5.7,7.7,8.6c0,23.1,0,63.6,0,63.6l-15.7,0c0,0,0,8.6,0,13.7
		c0,1,0.2,2,0.7,2.8c3.3,5.7,12,15.8,12,17.6C23,259,23,346,23,346l-23,0v166l52-1V388l148-0.2l107.5,0.1L460,388v123.8l52,0.2V346
		L490,346z M37,169l-5,0l0-10.8c0-0.7,0.3-1.3,0.7-1.8c0.5-0.5,1.1-0.7,1.8-0.7c0.2,0,0.3,0,0.5,0c1.2,0.2,2,1.3,2,2.5V169z M37,81
		l-5,0l0-10.8c0-0.7,0.3-1.3,0.7-1.7c0.5-0.5,1.1-0.7,1.8-0.7c0.2,0,0.3,0,0.5,0c1.2,0.2,2,1.4,2,2.5V81z M41,168v-10.6
		c0-1.3,1.1-2.4,2.4-2.4l2.2,0c1.3,0,2.4,1.1,2.4,2.4l0,10.6L41,168z M41,81V70.4c0-1.3,1.1-2.4,2.4-2.4l2.2,0
		c1.3,0,2.4,1.1,2.4,2.4L48,81L41,81z M58,168h-5v-10.5c0-1.4,1.1-2.5,2.5-2.5h0c1.4,0,2.5,1.1,2.5,2.5V168z M58,81l-5,0V70.5
		c0-1.4,1.1-2.5,2.5-2.5h0c1.4,0,2.5,1.1,2.5,2.5V81z M462,168h-5v-10.6c0-1.3,1.1-2.4,2.5-2.4h0c1.4,0,2.5,1.1,2.5,2.4V168z
		 M462,81l-5,0V70.4c0-1.3,1.1-2.4,2.5-2.4c0,0,0,0,0,0h0c1.4,0,2.5,1.1,2.5,2.4V81z M473,168l-7,0l0-10.6c0-1.3,1.1-2.4,2.4-2.4
		l2.2,0c1.3,0,2.4,1.1,2.4,2.4V168z M473,81l-7,0l0-10.6c0-1.3,1.1-2.4,2.4-2.4l2.2,0c1.3,0,2.4,1.1,2.4,2.4V81z M478,169v-10.8
		c0-1.4,1.1-2.5,2.5-2.5c0.7,0,1.3,0.3,1.8,0.7c0.5,0.5,0.7,1.1,0.7,1.8l0,10.8L478,169z M478,81V70.2c0-1.4,1.1-2.5,2.5-2.5
		c0.7,0,1.3,0.3,1.8,0.7c0.5,0.4,0.7,1.1,0.7,1.7l0,10.8L478,81z"/>
</g>
</svg>
