<?xml version="1.0" encoding="utf-8"?>
<!-- Generator: Adobe Illustrator 22.0.1, SVG Export Plug-In . SVG Version: 6.00 Build 0)  -->
<svg version="1.1" id="Layer_7" xmlns="http://www.w3.org/2000/svg" xmlns:xlink="http://www.w3.org/1999/xlink" x="0px" y="0px"
	 viewBox="0 0 511.9 512" style="enable-background:new 0 0 511.9 512;" xml:space="preserve">
<g id="_x35_2">
	<path d="M276.5,306.3c0-10.6-8.6-19.3-19.3-19.3s-19.3,8.6-19.3,19.3V337h38.5V306.3z"/>
	<path d="M223.4,311.2c0-8.9-7.2-16.2-16.2-16.2s-16.2,7.2-16.2,16.2V337h32.4V311.2z"/>
	<path d="M307.1,295L307.1,295c-8.9,0-16.2,7.2-16.2,16.2V337h32.4v-25.8C323.3,302.2,316.1,295,307.1,295z"/>
	<path d="M446.9,73.1l-1.3-15.5c3.1-1.1,5.4-4.1,5.4-7.5c0-3.5-2.3-6.5-5.5-7.6L444.3,28h-2.7l-1.2,14.4c-3.2,1.1-5.5,4.1-5.5,7.6
		c0,3.5,2.2,6.5,5.4,7.5L439,73.2c-35.8,2.3-64.1,32-64.1,68.3c0,4.2,0,55.5,0,55.5h-34c-0.8-44.5-34.7-80.9-78.2-85.5l-1.2-14.7
		c5.2-1.8,8.9-6.7,8.9-12.5c0-5.8-3.8-10.8-9-12.5l-2-23.8H255l-2,23.8c-5.3,1.8-9,6.7-9,12.5c0,5.8,3.7,10.7,8.9,12.5l-1.2,14.2
		c-47,1-84.9,39-85.6,86h-29c0,0,0-51.7,0-55.5c0-36.7-28.8-66.6-65.1-68.4l-1.3-15.5c3.1-1.1,5.4-4.1,5.4-7.5
		c0-3.5-2.3-6.5-5.5-7.6L69.3,28h-2.7l-1.2,14.4C62.3,43.5,60,46.5,60,50c0,3.5,2.2,6.5,5.4,7.5L64,73.2C28.3,75.4,0,105.2,0,141.5
		C0,145.3,0,512,0,512h512c0,0,0-366.3,0-370.5C512,104.8,483.1,74.9,446.9,73.1z M409.3,183.4c0-4.7,3.8-8.5,8.5-8.5
		c4.7,0,8.5,3.8,8.5,8.5V197h-17V183.4z M385,184.6c0-4.3,3.5-7.8,7.8-7.8s7.8,3.5,7.8,7.8V197H385V184.6z M111.7,184.6
		c0-4.3,3.5-7.8,7.8-7.8s7.8,3.5,7.8,7.8V197h-15.5V184.6z M85.9,183.4c0-4.7,3.8-8.5,8.5-8.5c4.7,0,8.5,3.8,8.5,8.5V197h-17V183.4z
		 M52,141.5c0-8.7,6.8-15.9,15.4-16.4l1.1-0.1l0.9,0c8.8,0.4,15.6,7.7,15.6,16.5c0,2.6,0,6.2,0,10H52C52,147,52,143.1,52,141.5z
		 M77.4,182.3V197H58.9v-14.8c0-5.1,4.1-9.3,9.2-9.3C73.2,173,77.4,177.1,77.4,182.3z M24.5,197H9v-12.4c0-4.3,3.5-7.8,7.8-7.8
		s7.8,3.5,7.8,7.8V197z M50.4,197h-17v-13.6c0-4.7,3.8-8.5,8.5-8.5c4.7,0,8.5,3.8,8.5,8.5V197z M460,503h-13.1v-55.5
		c0-22.3-18.1-40.5-40.5-40.5h0c-22.3,0-40.5,18.1-40.5,40.5V503h-62v-66c0-26-21-47-47-47l0,0c-26,0-47,21-47,47v66h-61.1v-55.5
		c0-22.3-18.1-40.5-40.5-40.5h0C86.1,407,68,425.1,68,447.5V503H51V249h409V503z M434.9,197v-14.8c0-5.1,4.1-9.3,9.3-9.3
		c5.1,0,9.2,4.1,9.2,9.3V197H434.9z M460,152.5h-33c0-4.9,0-9.3,0-11c0-8.7,6.8-15.9,15.4-16.4l1.1-0.1l0.9,0
		c8.8,0.4,15.6,7.7,15.6,16.5C460,144.4,460,148.4,460,152.5z M479,197h-17v-13.6c0-4.7,3.8-8.5,8.5-8.5c4.7,0,8.5,3.8,8.5,8.5V197z
		 M503.2,197h-15.5v-12.4c0-4.3,3.5-7.8,7.8-7.8s7.8,3.5,7.8,7.8V197z"/>
</g>
</svg>
