<?xml version="1.0" encoding="utf-8"?>
<!-- Generator: Adobe Illustrator 21.1.0, SVG Export Plug-In . SVG Version: 6.00 Build 0)  -->
<svg version="1.1" id="Layer_1" xmlns="http://www.w3.org/2000/svg" xmlns:xlink="http://www.w3.org/1999/xlink" x="0px" y="0px"
	 viewBox="0 0 729.2 512" style="enable-background:new 0 0 729.2 512;" xml:space="preserve">
<path d="M728.9,294.4c-1.4-6.5-9.2-35.3-12.2-46.3c-0.8-2.7-2.2-4.6-4.2-6c-4.1-2.3-17.7-13-17.7-13c0.7,0.1,1.4,0.2,2,0.2
	c10.2,0,11.7-11.5,9.1-16.7l-10.8-25.9c-1.3-3-3.8-6.5-10.4-6.5c-3.8,0-19.6,1.1-30.8,4c-1.3-1.9-4.4-3.6-6.2-3.6
	c-0.2,0-0.5,0-0.7,0.1c-5.3-17.5-16.1-34.1-30.7-38.4c-1-0.7-2-1.3-3.1-2c-0.8-1-2.2-2.5-4.2-3c-4.4-1-9.4-1.5-15-1.5
	c-50.3,0-76.2,0-76.2,0s-8.2,0.4-8.2,12.5c0,16.3-22.8,28.9-33.4,28.9c-5.7,0,0.8-1.8-12-5.5c-1-0.3-25-7.8-37.4-8.5
	c-0.4,0-0.9,0-1.3,0c-6.4,0-18.3,2.4-29.8,17c-3.6-6-34.4-54.9-63.9-76.1c-14.4-11.3-28.1-17.1-41.2-17.4
	c-19.6,0.6-31.1,4.5-36.2,6.5c-1-2-2.2-3.6-3.5-5l-10.1-7.4L253.6,37h9.7l32,23.7c1.3,1,2.8,1.5,4.3,1.5c3.1,0,6-2,7.6-5.7
	c2.4-5.4,0.8-12.1-3.5-15l-6.6-5L316.8,48c1.2,0.7,2.4,1,3.6,1c3.4,0,6.6-2.5,8-6.7c1.9-5.6-0.1-12-4.4-14.5L280.5,2.6
	c-1.3-0.7-2.6-1-3.8-1l-26.2,2c-3.6,0-6,2.9-7.7,7L239.3,24c-6.7,0.3-9.7,1.2-15.5,7c-7.8,7.8-11.5,26.8-22.4,30.5L191.2,53
	l-11.5,23.8c0,0-4.4-7.2-8.9-7.5c-0.5-0.1-1-0.1-1.5-0.1c-1.2,0-2.4,0.2-3.9,0.6c-3.8,0-6.4,2.9-7.7,8.7c-1.3,5.8-2.2,17.4-2.7,34.9
	c-0.5,17.4,0,26.6,1.6,27.4c1.6,0.8,2.8,2.1,3.8,3.7l5-0.5c-0.8,2.3-1.2,4.8-1.2,7.5v15.9c0,6.7,4.3,11,8.5,11h5.8l-15.4,38.3
	c-8.6,0.9-11.9,14-11.9,14c-13.6-7-27.7-10.5-42.4-10.5c-6.9,0-13.9,0.8-20.8,2.5c-3.1,0.7-9.9,3.7-12.3,14C35.1,250.7,0,308,0,371
	c0,80.4,50.7,141,108.9,141c57.9,0,100.8-57,107.7-118c2.6-2,8.9-7.9,8.9-18c0-29.4-3.7-49-11.1-69.2c5.3-30.1-0.9-62.1-2.4-70.7
	c-2.6-16.9-6-46.1-1.6-67.2l12.3,7c0.8,3,37,119.2,41.4,137.5c-3.5,71.4,25.8,124.5,82.2,124.5c4.1,0,9.5,0.1,16,0.1
	c25.4,0,68-2,117.8-21.1c12.9,51.9,52.7,95.1,103.1,95.1c60.2,0,108.9-63.1,108.9-141c0-80.7-50.7-141.4-108.9-141.4
	c-15.9,0-31.1,4.3-45.4,12.9l-3.5-6.5c2.6-2.3,5-4,7.3-5c13.3-12.3,31.5-17.8,51.1-17.8c50,0,109.1,35.9,119.3,87.3
	c0.9,4.9,4.6,8,8.3,8c0.6,0,1.2-0.1,1.8-0.2C727.2,307,730.3,300.6,728.9,294.4z M194.4,140.5l-3.1,6.5v-1.5c-0.2-0.7-0.5-1-0.8-1
	c-0.5-1-1.2-2-2-3L194.4,140.5z M156.6,290.9c9.3,9.3,16.7,20.7,22.3,34.4c2.9,7.3,5,14.9,6.4,22.7c-4.9,5.3-10.4,10.4-15.4,13.3
	c-7.6,4.4-15.2,8.5-21.5,11.8v-1.5c0-6.3-0.9-12.6-2.7-18.9c-1.8-6-4.4-11.3-7.7-15.9L156.6,290.9z M180.9,410.4
	c-16.9,43.7-41.7,61.7-76,61.7c-27.9,0-74.1-35.9-74.1-101c0-46.1,28.2-100.9,76.7-100.9c8,0,16.6,1.5,25.7,4.8l-18.8,46.3
	c-1.8-0.7-3.6-1-5.4-1c-5.1,0-10.3,1.3-15.4,4c-4.6,3-8.7,6.8-12.3,11.5c-3.6,4.3-6.4,9.6-8.5,15.9c-2.3,6.3-3.5,13-3.5,19.9
	c0,7,1.2,13.6,3.5,19.9c2,6,4.9,11.5,8.5,16.4c3.6,4.6,7.7,8.3,12.3,10.9c5.1,2.7,10.3,4,15.4,4c5.7,0,10.8-1.3,15.4-4
	c4.9-2.6,9.1-6.3,12.7-10.9c3.6-5,6.4-10.5,8.5-16.4c0.5-1.5,0.9-3.1,1.3-4.6c8.3-4.1,22-11.3,33.4-19c2.3-1.5,4.6-3.6,7-6
	C188.7,376.5,185.3,397.5,180.9,410.4z M96.6,375.5c1,4.7,3.1,8.1,6.2,10.5c2,1.3,4.1,2,6.2,2c2.3,0,4.6-0.8,6.9-2.5
	c2.3-1.7,4-3.8,5-6.5l7.7-19.4c1.8,4,2.7,8,2.7,12s-0.6,7.6-2,10.9c-1,3.3-2.7,6.3-5,9c-1.8,2.7-4.1,4.6-6.9,6
	c-2.6,1.7-5.4,2.5-8.5,2.5c-2.8,0-5.7-0.8-8.5-2.5c-2.3-1.3-4.6-3.3-6.9-6c-2-2.6-3.6-5.6-4.6-9c-1-3.3-1.6-7-1.6-10.9
	c0-6.6,1.6-12.6,5-17.9c3.3-5,7.6-8.1,12.7-9.5l-7.7,18.4C95.8,366.9,95.6,371.2,96.6,375.5z M207,290
	c-8.5-17.3-19.2-31.7-32.3-43.3l1.9-5c1.8-4,2-8.3,0.8-12.9l23.9-57.8c-4.9,29.9,2,67.8,2,67.8C206.3,255.9,208.7,277.6,207,290z
	 M220.9,132.6l-6.6,6l16.2-39.8l4.2,3.5L220.9,132.6z M225.1,72.8c-2.3,0.7-4.1,2.5-5.4,5.5l-8.9,21.9c-2.8-1-5.4-2.2-7.7-3.5
	l11.9-24.9l-5-3c10.3-4.8,12.4-27.7,25.2-31.5L225.1,72.8z M463.7,368.9c-42,15.3-77.8,17.2-101.3,17.2c-3.5,0-6.7,0-9.5-0.1
	c-2.4,0-4.6-0.1-6.6-0.1c-13.3,0-23.4-4.6-30-13.5c-8.6-11.6-12.6-31.4-11.5-55.8l0.5-9.4l-2.2-9c-3.1-13-16.2-55.9-36.3-121
	c-2.6-8.3-5-16.2-5.7-18.7l-1.8-7l3.3-7.2l3.8-1.5c6-2.4,14.4-3.8,24.1-4.2c5.4,0.4,12.2,3.7,19.9,9.6l0.7,0.6l0.7,0.5
	c18.4,13.2,43.1,48.4,51.5,62.4l28.2,46.9l32.9-41.6c0.9-1.1,1.5-1.6,1.8-1.9c4,0.5,13.3,2.4,26.8,6.5c6.7,4.9,14.4,7.4,23.1,7.4
	c1.6,0,3.4-0.1,5.1-0.3l22.7,42.3c0,0-0.2,0.5-0.5,1.3c-18,23.4-29.6,54.8-31.3,89.6c-0.6,2-0.9,3.3-1,3.7L463.7,368.9z
	 M505.8,359.6c0.5-5.6,1.3-11.3,2.3-16.9l13.5,7.5c-3.4,2-6.3,4.5-8.9,7.5L505.8,359.6z M510.4,407.9c3.1-1,5.4-1.8,6.9-2.5
	c0.8,0,1.6,0.2,2.7,0.5c1,0,7.8,0.4,10,0.4l-16.5,10C512.4,413.6,511.3,410.8,510.4,407.9z M538.9,453.7c-2.4-2.1-4.6-4.3-6.7-6.7
	l27-34.9c2.7,2.8,8.2,7.3,13.3,8.9l-12.9,46C552.2,464,545.4,459.6,538.9,453.7z M585.3,472.1c-0.6,0-1.2,0.1-1.9,0.1
	c-7.6-0.2-15-1.6-22-4.3l13-46.2c2.3,0.6,5.9,1.2,8.8,1.2c0.7,0,1.4,0,2-0.1L585.3,472.1L585.3,472.1z M619.5,460.5L603.5,416
	c0.3-0.2,0.5-0.4,0.9-0.6c2.6-2.2,4.9-4.7,7-7.4l26.9,34.8C632.6,449.8,626.4,455.7,619.5,460.5z M655.5,410.4
	c-3.8,11.1-8.9,21-15.5,29.8l-27-34.9c2-3,3.6-6.2,5.1-9.8c2.6-0.6,5.1-1.3,7.6-2l30.4,14.3C656,408.7,655.7,409.6,655.5,410.4z
	 M656.9,405.2l-27.2-12.8c1.5-0.5,11.1-3.4,11.1-3.4c2.3-0.7,4.1-2.3,5.4-5c1.3-2.6,1.6-5.5,0.8-8.5h14.1
	C660.8,385.7,659.4,395.6,656.9,405.2z M661.2,371.1v1h-14.8l-5-29.6l14.8-8.9C659.6,345.6,661.2,358,661.2,371.1z M655.2,330.7
	l-14.4,8.7l-0.5-2.7c-0.2-2.6-1.4-4.8-3.5-6.5c-1.5-1.4-3.1-2.1-4.8-2.1c-0.3,0-0.7,0-1,0.1l-8.6,1.7l19.6-25.4
	C647.6,312.4,651.9,321.1,655.2,330.7z M638.5,299.4c0.6,0.8,1.3,1.7,1.9,2.5L618,330.8l-9.5,1.9c-2.1-2.6-4.6-4.7-7.1-6.4
	l13.4-47.6C623.8,283.7,631.7,290.5,638.5,299.4z M588.2,269.5c7.5,0,15.6,2.7,24.6,7.9L599.4,325c-0.8-0.4-6.8-3.7-11.2-4.3V269.5z
	 M588.2,422.5c4.6-0.7,9-2.3,13.2-5l15.9,44.5c-1.3,0.8-2.4,1.5-3.7,2.2c-8.1,4.2-16.6,6.8-25.4,7.7L588.2,422.5L588.2,422.5z
	 M583.5,269.5h2v50.9c-0.7-0.1-1.3-0.1-1.9-0.1c-2.2,0-3.1,0.5-3.1,0.5L556.2,276C565.2,271.7,574.3,269.5,583.5,269.5z M557,409.8
	l-26.9,34.9c-2.9-3.5-5.7-7.3-8.2-11.4c-2.7-4.5-5.2-9.4-7.4-14.5l20.3-12.2c7.8,0.6,14.5,0.8,20.1,0.8
	C555.7,408.3,556.4,409.1,557,409.8z M520,311.8c2.4-4.3,4.9-8.2,7.8-11.9l22.3,28.8L520,311.8z M529.6,297.4c1.1-1.4,2.3-2.7,3.5-4
	l14.5,27.2L529.6,297.4z"/>
</svg>
