<?xml version="1.0" encoding="utf-8"?>
<!-- Generator: Adobe Illustrator 21.1.0, SVG Export Plug-In . SVG Version: 6.00 Build 0)  -->
<svg version="1.1" id="Layer_1" xmlns="http://www.w3.org/2000/svg" xmlns:xlink="http://www.w3.org/1999/xlink" x="0px" y="0px"
	 viewBox="0 0 550 512" style="enable-background:new 0 0 550 512;" xml:space="preserve">
<g>
	<path d="M49.1,266l209.6,0.6l22.2,0.1c5.9,25.7,27.3,45.4,53.7,48.7v43.8h0.1v41.7v44.4H49.1V266 M500.9,338v35l-10.1-5.3h-5.3
		l-16.1-7.7l-12.8,6.4l-2.4-12l0.8-3.4c3.4-0.6,6.7-1.3,9.9-2.4l5.3,2.5l15.6-7.7h5L500.9,338 M391.6,10.8c-0.8,0-1.7,0.3-2.7,0.9
		l-73.1,44.4c-6.9,4.2,3,10.1,3,10.1l25.7,15.6c0.8,1.4,2.1,2.5,3.3,3.3c0.1,1.5,0.6,3.1,1.4,4.5l7.6,12.4c1.9,3.2,5.4,4.9,8.9,4.9
		l25.3,41.7h-83.7v-23.6c0-13.3-10.9-24.2-24.2-24.2H107.2c-13.3,0-24.2,10.9-24.2,24.2c0,13.3,10.9,24.2,24.2,24.2h142l0.3,29.6
		c0.1,7.5,3.8,14.2,9.3,18.3v20.4L33,216.9c-0.1,0-0.1,0-0.2,0c-18.1,0-32.9,14.8-32.9,33v211.5c0,18.2,14.8,33,33,33h317.8
		c18.2,0,33-14.8,33-33V401h29.5c1.8,9.1,9.8,15.9,19.4,15.9H461c3.2,0,6.2-0.8,8.9-2.2c2.7,1.3,5.7,2.2,8.9,2.2l51.5,27
		c0,0,6.5,3.5,12.1,3.5c4.2,0,7.7-1.9,7.7-8.7V272.5c0-6.7-3.7-8.7-7.8-8.7c-5.6,0-12.1,3.5-12.1,3.5l-51.5,27
		c-3.2,0-6.2,0.8-8.9,2.2c-2.7-1.3-5.7-2.2-8.9-2.2h-28.1c-9.6,0-17.6,6.8-19.4,15.9h-29.5v-59.4c0-18.2-14.7-32.9-32.9-33
		l-43.6-0.1v-16h137.3c8,0,14.5-6.5,14.5-14.5v-23.9c0-0.2,0-0.3,0-0.5c0-2.6-0.7-5.2-2.1-7.6l-46-75.8c1.6-3.1,1.7-6.9-0.3-10.1
		l-7.6-12.4c-0.8-1.4-2.1-2.5-3.4-3.3c-0.1-1.5-0.6-3.1-1.4-4.5l-1.9-29.8C396.4,19.1,395.9,10.8,391.6,10.8L391.6,10.8z
		 M342.6,266.8c-7.8,0-14.2-6.3-14.2-14.2s6.3-14.2,14.2-14.2c7.8,0,14.2,6.3,14.2,14.2S350.4,266.8,342.6,266.8L342.6,266.8z
		 M445.8,302.6c-3.3,0-6-1.3-6-3c0-1.7,2.6-3,6-3c3.3,0,6,1.3,6,3C451.7,301.3,449.1,302.6,445.8,302.6L445.8,302.6z"/>
</g>
</svg>
