<?xml version="1.0" encoding="utf-8"?>
<!-- Generator: Adobe Illustrator 21.1.0, SVG Export Plug-In . SVG Version: 6.00 Build 0)  -->
<svg version="1.1" id="Layer_1" xmlns="http://www.w3.org/2000/svg" xmlns:xlink="http://www.w3.org/1999/xlink" x="0px" y="0px"
	 viewBox="0 0 384.7 512" style="enable-background:new 0 0 384.7 512;" xml:space="preserve">
<path d="M202,0.6c-1.4-0.2-2.7-0.3-4.1-0.3c-8.4,0-16.4,4.4-20.9,11.8c-2.4,4-2.2,8.9-2.2,18.3v268.7c-11-4.2-23-6.3-35.4-6.3
	c-29.9,0-62.6,12.1-89.9,35.8c-51.5,44.7-64.4,114.1-29,154.8c16.6,19.1,41,28.6,67.5,28.6c29.9,0,62.6-12.1,89.9-35.8
	c31.2-27.2,48.3-63.4,48.9-96.8v-315c45.1,3.4,116,15.2,125.5,54.7c3.2,13.1-4,38.4-4,38.4s36.4-28.3,36.4-64.6
	C384.7,42.7,236.5,6.5,202,0.6z M143.9,436.5c-29.7,25.8-67.4,31.8-83.8,13c-16.4-18.9-5.7-56.2,24-82
	c29.7-25.8,67.3-30.5,83.9-11.8C182.5,372.1,173.6,410.7,143.9,436.5z"/>
</svg>
