<?xml version="1.0" encoding="utf-8"?>
<!-- Generator: Adobe Illustrator 21.1.0, SVG Export Plug-In . SVG Version: 6.00 Build 0)  -->
<svg version="1.1" id="Layer_2" xmlns="http://www.w3.org/2000/svg" xmlns:xlink="http://www.w3.org/1999/xlink" x="0px" y="0px"
	 viewBox="0 0 550 512" style="enable-background:new 0 0 550 512;" xml:space="preserve">
<g>
	<g>
		<path d="M267.4,131.8H156.6V170h110.7V131.8z M479.2,139.1H307v165.6h172.1V139.1z M441,266.5h-95.8v-89.2h95.7L441,266.5
			L441,266.5z M71.5,43l-0.1,169H0v205.7c0,28.5,22.6,51.4,51.4,51.4h467c20.3,0,31.6-16.9,31.6-37.8L550,43.1L71.5,43z M54.7,430.9
			c-9.1,0-16.5-7.4-16.5-16.6c0-15.6,0-165.6,0-165.6h33c0,0,0,150.1,0,165.7C71.2,423.6,63.9,430.9,54.7,430.9z M497.9,404.6
			c0,7.1-4.7,12.5-11.7,12.5H122.2c0.7-1.8,2.4-7.4,2.4-16.9c0-1.8,0-305.2,0-305.2h373.3L497.9,404.6L497.9,404.6z M267.4,203.8
			H156.6V242h110.7V203.8z M267.4,275.8H156.6V314h110.7V275.8z M489.2,347.7H156.6v38.2h332.5V347.7z"/>
	</g>
</g>
</svg>
