<?xml version="1.0" encoding="utf-8"?>
<!-- Generator: Adobe Illustrator 21.1.0, SVG Export Plug-In . SVG Version: 6.00 Build 0)  -->
<svg version="1.1" id="Layer_1" focusable="false" xmlns="http://www.w3.org/2000/svg" xmlns:xlink="http://www.w3.org/1999/xlink"
	 x="0px" y="0px" viewBox="0 0 448 512" style="enable-background:new 0 0 448 512;" xml:space="preserve">
<path d="M448,1.9L374.3,112H435c7.2,0,13,5.8,13,13v32.5c0,7.2-5.8,13-13,13h-99.8l-114.5,171H435c7.2,0,13,5.8,13,13V387
	c0,7.2-5.8,13-13,13H181.5l-75.5,112.8H36.8L112.3,400H13c-7.2,0-13-5.8-13-13v-32.5c0-7.2,5.8-13,13-13h138.5l114.5-171H13
	c-7.2,0-13-5.8-13-13V125c0-7.2,5.8-13,13-13h292.1l75-112H448V1.9z"/>
</svg>
