<?xml version="1.0" encoding="utf-8"?>
<!-- Generator: Adobe Illustrator 21.1.0, SVG Export Plug-In . SVG Version: 6.00 Build 0)  -->
<svg version="1.1" id="Layer_2" xmlns="http://www.w3.org/2000/svg" xmlns:xlink="http://www.w3.org/1999/xlink" x="0px" y="0px"
	 viewBox="0 0 490.3 512" style="enable-background:new 0 0 490.3 512;" xml:space="preserve">
<g>
	<path d="M388.1,48.2c-36.3,0-65.6,29.4-65.6,65.6c0,36.3,29.4,65.6,65.6,65.6c36.3,0,65.6-29.4,65.6-65.6
		C453.7,77.6,424.3,48.2,388.1,48.2z M388.1,127.4c-7.5,0-13.6-6.1-13.6-13.6c0-7.5,6.1-13.6,13.6-13.6c7.5,0,13.6,6.1,13.6,13.6
		C401.7,121.3,395.6,127.4,388.1,127.4z"/>
	<path d="M69.2,100.2c7.5,0,13.6,6.1,13.6,13.6s-6.1,13.6-13.6,13.6s-13.6-6.1-13.6-13.6S61.7,100.2,69.2,100.2 M69.2,48.2
		C33,48.2,3.6,77.6,3.6,113.8s29.4,65.6,65.6,65.6s65.6-29.4,65.6-65.6S105.5,48.2,69.2,48.2L69.2,48.2z"/>
	<rect x="-1.4" y="351.7" transform="matrix(0.965 -0.2622 0.2622 0.965 -90.5777 77.5374)" width="493.4" height="52.9"/>
</g>
</svg>
