<?xml version="1.0" encoding="utf-8"?>
<!-- Generator: Adobe Illustrator 21.1.0, SVG Export Plug-In . SVG Version: 6.00 Build 0)  -->
<svg version="1.1" id="Layer_1" xmlns="http://www.w3.org/2000/svg" xmlns:xlink="http://www.w3.org/1999/xlink" x="0px" y="0px"
	 viewBox="0 0 482 512" style="enable-background:new 0 0 482 512;" xml:space="preserve">
<g id="_x35_2">
	<g>
		<path d="M402.2,437.8c-15.9,0-33.5,15.3-52.2,15.3c-17.9,0-36.8-15.3-56.2-15.3c-17.8,0-36,15.3-54.2,15.3
			c-17.2,0-37.4-15.3-54.2-15.3c-19.4,0-35.3,15.3-53.2,15.3c-20.1,0-38.9-15.3-55.7-15.3c-18.6,0-31.6,15.3-44.2,15.3
			c-18.3,0-32.1-7.7-32.1-7.7v59.8c0,0,12.4,7.7,28.6,7.7c13.2,0,27.9-15.3,48.7-15.3c16.5,0,35,15.3,54.7,15.3
			c17.3,0,35.5-15.3,54.2-15.3c17.1,0,34.7,15.3,52.2,15.3c18.2,0,36.4-15.3,54.2-15.3c19.2,0,38,15.3,55.7,15.3
			c17.5,0,34.1-15.3,49.2-15.3c23.8,0,44.1,15.3,58.7,15.3c16.2,0,25.6-7.7,25.6-7.7v-59.8c0,0-9.8,7.7-26.6,7.7
			C441.8,453.1,423.5,437.8,402.2,437.8z M455.4,348.9c-13.6,0-31.9-15.3-53.2-15.3c-2,0.3-7.5,1.9-9.5,2
			c-14.1,0.3-171-73.5-145.1-158.8c17.8-58.6,82-12.2,98.5,3.1c-12.9-20.2-52.9-101.5-129-66.4c-91.2,42.1-38.3,172.4,49,227.8
			c9.9,6.3-7.1-1.9-39.1,0c-4.8,0.3-81.8-77.7-94.9-160.7c-15.7-99.3,119.9-126,185-89c17.6,10,33.5,22.8,36.2,20.8
			c3.4-2.5-55.5-122.8-185-110.5C65.6,11.6,13,91.6,13,176.8c0,62.6,26.4,118.8,77.3,165.6c-7.9-3.2-6.9-8.8-14.1-8.8
			c-18.6,0-31.6,15.3-44.2,15.3c-18.3,0-32.1-7.7-32.1-7.7v59.8c0,0,12.4,7.7,28.6,7.7c13.2,0,27.9-15.3,48.7-15.3
			c16.5,0,35,15.3,54.7,15.3c17.3,0,35.5-15.3,54.2-15.3c17.1,0,34.7,15.3,52.2,15.3c18.2,0,36.4-15.3,54.2-15.3
			c19.2,0,38,15.3,55.7,15.3c17.5,0,34.1-15.3,49.2-15.3c23.8,0,44.1,15.3,58.7,15.3c16.2,0,25.6-7.7,25.6-7.7v-59.8
			C482,341.3,472.2,348.9,455.4,348.9z M349.8,184.3c0.6,0-0.9-1.7-3.8-4.4C347.8,182.6,349.1,184.3,349.8,184.3z"/>
	</g>
</g>
</svg>
