<?xml version="1.0" encoding="utf-8"?>
<!-- Generator: Adobe Illustrator 21.1.0, SVG Export Plug-In . SVG Version: 6.00 Build 0)  -->
<svg version="1.1" id="Layer_1" xmlns="http://www.w3.org/2000/svg" xmlns:xlink="http://www.w3.org/1999/xlink" x="0px" y="0px"
	 viewBox="0 0 462.4 512" style="enable-background:new 0 0 462.4 512;" xml:space="preserve">
<path d="M231.2,52c3.3,0,6.5,0.9,9.4,2.5L401,147.1c5.8,3.3,9.4,9.6,9.4,16.2v185.3c0,6.7-3.6,12.9-9.4,16.2l-160.4,92.6
	c-2.8,1.6-6.1,2.5-9.4,2.5s-6.5-0.9-9.4-2.5L61.4,364.9c-5.8-3.3-9.4-9.6-9.4-16.2V163.4c0-6.7,3.6-12.9,9.4-16.2l160.4-92.6
	C224.7,52.9,227.9,52,231.2,52 M231.2,0c-12.2,0-24.4,3.2-35.4,9.5L35.4,102.1C13.5,114.7,0,138.1,0,163.4v185.3
	c0,25.3,13.5,48.6,35.4,61.3l160.4,92.6c10.9,6.3,23.2,9.5,35.4,9.5s24.4-3.2,35.4-9.5L427,409.9c21.9-12.6,35.4-36,35.4-61.3V163.4
	c0-25.3-13.5-48.6-35.4-61.3L266.5,9.5C255.6,3.2,243.4,0,231.2,0L231.2,0z"/>
</svg>
