<?xml version="1.0" encoding="utf-8"?>
<!-- Generator: Adobe Illustrator 21.1.0, SVG Export Plug-In . SVG Version: 6.00 Build 0)  -->
<svg version="1.1" id="Layer_1" xmlns="http://www.w3.org/2000/svg" xmlns:xlink="http://www.w3.org/1999/xlink" x="0px" y="0px"
	 viewBox="0 0 512 512" style="enable-background:new 0 0 512 512;" xml:space="preserve">
<path id="_x35_2_1_" d="M435,439h77v73H320v-72.8c0.2-0.1,0.4-0.1,0.5-0.2C396,412.4,450,340.5,450,256c0-107.1-86.9-194-194-194
	S62,148.9,62,256c0,84.5,54,156.4,129.5,183c0.2,0.1,0.4,0.1,0.5,0.2V512H0v-73h77C29.5,392.5,0,327.7,0,256C0,114.6,114.6,0,256,0
	c141.4,0,256,114.6,256,256C512,327.7,482.5,392.5,435,439z"/>
</svg>
