<?xml version="1.0" encoding="utf-8"?>
<!-- Generator: Adobe Illustrator 21.1.0, SVG Export Plug-In . SVG Version: 6.00 Build 0)  -->
<svg version="1.1" id="Layer_2" xmlns="http://www.w3.org/2000/svg" xmlns:xlink="http://www.w3.org/1999/xlink" x="0px" y="0px"
	 viewBox="0 0 550 512" style="enable-background:new 0 0 550 512;" xml:space="preserve">
<g id="_x35_2_1_">
	<path id="_x35_2" d="M517.6,148.5l0.3,0.2l24.2-47.2l-15.4-8.6c15.9-13.8,19.8-37.4,8.3-55.8c-12.7-20.4-39.6-26.7-60-13.9
		c-11.2,7-18,18.1-19.9,30.2l-13.7-7.6L420,87.1c-10.2-2.1-20.8-3.1-31.6-3.1c-73.2,0-129.2,46.7-151.2,105.8v0c0,0-0.1-0.1-0.1-0.1
		c-22-11.7-47.5-18.6-75.5-18.6c-10.9,0-21.4,1.1-31.6,3.1L108.6,133l-13.7,7.6c-1.9-12.1-8.8-23.2-19.9-30.2
		c-20.4-12.8-47.3-6.5-60,13.9c-11.5,18.4-7.6,42,8.3,55.8l-15.4,8.6l24.2,47.2l0.3-0.1c-20.3,27-32.4,60.6-32.4,97
		C0,422,72.4,494.4,161.6,494.4c66.9,0,128.4-42.1,151.6-105.9c0,0,0-0.1,0-0.1c22.8,12,48.6,18.7,75.2,18.7
		c89.2,0,161.6-72.3,161.6-161.6C550,209.1,537.9,175.6,517.6,148.5z M36.3,172.4c-13.9-8.6-18.1-26.9-9.5-40.7
		c8.6-13.9,26.9-18.1,40.7-9.5c9.2,5.7,14.1,15.7,13.9,25.8l-44.6,24.8C36.6,172.7,36.5,172.5,36.3,172.4z M161.6,454.9
		c-67.4,0-122.1-54.6-122.1-122.1s54.7-122.1,122.1-122.1c24.9,0,47.5,7.5,66.3,20c-0.5,4.9-0.7,9.8-0.7,14.7
		c0,48.7,20.5,90.3,52.1,119.2C264.8,418.6,214.7,454.9,161.6,454.9z M388.4,367.7c-63,0-121.8-51-121.8-122.2
		c0-63,52.1-121.9,121.8-121.9c67.4,0,122.1,54.6,122.1,122.1S455.8,367.7,388.4,367.7z M513.2,85.5l-44.6-24.8
		c-0.2-10.1,4.7-20,13.9-25.8c13.8-8.6,32.1-4.4,40.7,9.5c8.6,13.8,4.4,32.1-9.5,40.7C513.5,85.3,513.4,85.5,513.2,85.5z"/>
	<path d="M64.2,326.8h16.1l-16-16l7.6-7.6l23.5,23.6h26.9l-17.6-17.6h23.8l-13-13H83.2v-10.7h22.5l-16.7-16.7l8.6-8.6h-1.1
		l17.2,17.1v-23.2h10.7v33l13.8,13.5v-24.1l16.8,16.7v-25.7l-23.5-23.4l7.6-7.5l15.9,15.9v-16h13v15.1l15.2-15.1l7.5,7.5l-22.6,22.6
		v27.4l17.6-17.5v24.6l15.3-15.6v-32.9h10.7v22.7l14.6-14.6l0,0l8.7,8.6L220.3,284H243v10.7h-32.5L195.3,310H219l-16.8,16.8h25.4
		l23.1-22.9l7.4,7.4l-15.7,15.5h15.7v13h-15.4l15.4,15.4l0.2,0.2l-7.5,7.5l-23.1-23.1h-26.4l17.6,17.6h-24.7l15.3,15.3h32.6v10.7
		h-22l14.4,14.6v0.1l-8.5,8.6l-14.4-14.6v22.6h-10.7v-33l-15.3-15.6l-0.1,24.1l-17.5-17.3v27l22.5,22.6l-7.6,7.5l-15-15.1V430h-13
		v-15.9L139.2,430l0,0l0,0l-7.5-7.5l23.4-23.4v-25.5l-16.8,16.8v-24.4l-13.8,13.5v32.9h-9.9v-22.6l-16.7,16.7l-8.6-8.6l-0.1-0.1
		l16.7-16.7H83.2v-10.7h33.3l13.8-13.8h-25.2l17.6-17.6H95l-23.3,23.3l-7.6-7.6l15.8-15.7H64.2V326.8z M183.4,346.7h9.8l-6.9-6.9
		h-9.8L183.4,346.7z M186.3,327.6l6.9-6.9h-9.9l-6.9,6.9H186.3z M168.1,357.9l6.9,6.9v-9.8l-6.9-6.9V357.9z M168.1,318.7l6.9-6.9
		v-9.7l-6.9,6.9V318.7z M149,364.7l6.1-6.1V349l-6.1,6.1V364.7z M149,311.9l6.1,6.1v-9.7l-6.1-6.1V311.9z M140.4,345.9l6.9-6.9h-9.9
		l-6.9,6.9H140.4z M137.1,326.8h9.8L140,320h-9.8L137.1,326.8z"/>
	<path d="M485.8,239.6h-16.1l16-16l-7.6-7.6l-23.5,23.6h-26.9l17.6-17.6h-23.8l13-13h32.2v-10.7h-22.5l16.7-16.7l-8.6-8.6h1.1
		l-17.2,17.1V167h-10.7v33l-13.8,13.5v-24.1l-16.8,16.7v-25.7l23.5-23.4l-7.6-7.5L395,165.4v-16h-13v15.1l-15.2-15.1l-7.5,7.5
		l22.6,22.6v27.4l-17.6-17.5V214l-15.3-15.6v-32.9h-10.7v22.7l-14.6-14.6l0,0l-8.7,8.6l14.6,14.6H307v10.7h32.5l15.3,15.3H331
		l16.8,16.8h-25.4l-23.1-22.9l-7.4,7.4l15.7,15.5h-15.7v13h15.4L291.8,268l-0.2,0.2l7.5,7.5l23.1-23.1h26.4L331,270.2h24.7
		l-15.3,15.3h-32.6v10.7h22l-14.4,14.6v0.1l8.5,8.6l14.4-14.6v22.6h10.7v-33l15.3-15.6l0.1,24.1l17.5-17.3v27l-22.5,22.6l7.6,7.5
		l15-15.1v15.2h13v-15.9l15.9,15.9l0,0l0,0l7.5-7.5l-23.4-23.4v-25.5l16.8,16.8v-24.4l13.8,13.5v32.9h9.9v-22.6l16.7,16.7l8.6-8.6
		l0.1-0.1l-16.7-16.7h22.7v-10.7h-33.3l-13.8-13.8h25.2l-17.6-17.6H455l23.3,23.3l7.6-7.6l-15.8-15.7h15.7V239.6z M366.6,259.5h-9.8
		l6.9-6.9h9.8L366.6,259.5z M363.7,240.4l-6.9-6.9h9.9l6.9,6.9H363.7z M381.9,270.6l-6.9,6.9v-9.8l6.9-6.9V270.6z M381.9,231.5
		l-6.9-6.9v-9.7l6.9,6.9V231.5z M401,277.5l-6.1-6.1v-9.6l6.1,6.1V277.5z M401,224.6l-6.1,6.1V221l6.1-6.1V224.6z M409.6,258.7
		l-6.9-6.9h9.9l6.9,6.9H409.6z M412.9,239.6h-9.8l6.9-6.9h9.8L412.9,239.6z"/>
</g>
</svg>
