<?xml version="1.0" encoding="utf-8"?>
<!-- Generator: Adobe Illustrator 21.1.0, SVG Export Plug-In . SVG Version: 6.00 Build 0)  -->
<svg version="1.1" id="Layer_2" xmlns="http://www.w3.org/2000/svg" xmlns:xlink="http://www.w3.org/1999/xlink" x="0px" y="0px"
	 viewBox="0 0 550 512" style="enable-background:new 0 0 550 512;" xml:space="preserve">
<path id="_x35_2" d="M517.6,148.5l0.3,0.2l24.2-47.2l-15.4-8.6c15.9-13.8,19.8-37.4,8.3-55.8c-12.7-20.4-39.6-26.7-60-13.9
	c-11.2,7-18,18.1-19.9,30.2l-13.7-7.6L420,87.1c-10.2-2.1-20.8-3.1-31.6-3.1c-73.2,0-129.2,46.7-151.2,105.8v0c0,0-0.1-0.1-0.1-0.1
	c-22-11.7-47.5-18.6-75.5-18.6c-10.9,0-21.4,1.1-31.6,3.1L108.6,133l-13.7,7.6c-1.9-12.1-8.8-23.2-19.9-30.2
	c-20.4-12.8-47.3-6.5-60,13.9c-11.5,18.4-7.6,42,8.3,55.8l-15.4,8.6l24.2,47.2l0.3-0.1c-20.3,27-32.4,60.6-32.4,97
	C0,422,72.4,494.4,161.6,494.4c66.9,0,128.4-42.1,151.6-105.9c0,0,0-0.1,0-0.1c22.8,12,48.6,18.7,75.2,18.7
	c89.2,0,161.6-72.3,161.6-161.6C550,209.1,537.9,175.6,517.6,148.5z M36.3,172.4c-13.9-8.6-18.1-26.9-9.5-40.7
	c8.6-13.9,26.9-18.1,40.7-9.5c9.2,5.7,14.1,15.7,13.9,25.8l-44.6,24.8C36.6,172.7,36.5,172.5,36.3,172.4z M161.6,454.9
	c-67.4,0-122.1-54.6-122.1-122.1s54.7-122.1,122.1-122.1c24.9,0,47.5,7.5,66.3,20c-0.5,4.9-0.7,9.8-0.7,14.7
	c0,48.7,20.5,90.3,52.1,119.2C264.8,418.6,214.7,454.9,161.6,454.9z M388.4,367.7c-63,0-121.8-51-121.8-122.2
	c0-63,52.1-121.9,121.8-121.9c67.4,0,122.1,54.6,122.1,122.1S455.8,367.7,388.4,367.7z M513.2,85.5l-44.6-24.8
	c-0.2-10.1,4.7-20,13.9-25.8c13.8-8.6,32.1-4.4,40.7,9.5c8.6,13.8,4.4,32.1-9.5,40.7C513.5,85.3,513.4,85.5,513.2,85.5z"/>
</svg>
