<?xml version="1.0" encoding="utf-8"?>
<!-- Generator: Adobe Illustrator 21.1.0, SVG Export Plug-In . SVG Version: 6.00 Build 0)  -->
<svg version="1.1" id="Layer_1" xmlns="http://www.w3.org/2000/svg" xmlns:xlink="http://www.w3.org/1999/xlink" x="0px" y="0px"
	 viewBox="0 0 512 512" style="enable-background:new 0 0 512 512;" xml:space="preserve">
<g id="_x35_2">
	<g>
		<path d="M497.6,15.5C488.2,6.2,475.8,1,462.5,1c-13.2,0-25.6,5.1-34.9,14.4L180,265l-0.2,0.2c-12.4,13.1-19.3,30.3-19.2,48.5
			c0.1,18.2,7.1,35.3,19.8,48.2c12.8,13.1,29.9,20.3,48,20.3c18.5,0,35.7-7.4,48.6-20.9l0.5-0.5L501.6,81l0.2-0.2
			C516.9,61.1,515.1,33.1,497.6,15.5z M243.9,330.9c-4.3,4.1-9.6,6.2-15.4,6.2c-6.1,0-11.6-2.3-15.9-6.8c-4.5-4.6-6.8-10.4-6.9-16.9
			c0-6.5,2.2-12.3,6.6-17l22.9-23.1l30.4,30.4L243.9,330.9z M466.2,53.2L293.4,269l-27.1-27.1L459.4,47.3c0.9-0.9,1.9-1.3,3.1-1.3
			c1.3,0,2.3,0.4,3.2,1.3C467.2,48.9,467.4,51.5,466.2,53.2z"/>
	</g>
	<g>
		<path d="M120.8,395.4c16.6,0,30.2,14.2,30.2,31.6c0,15.6-8,26.1-14.7,32.1c-8.8,7.9-20.3,12.8-30.2,12.8c-7.7,0-15.1-0.4-22.1-1.1
			c4.2-12.5,6.6-27.1,6.6-43.8C90.6,409.6,104.1,395.4,120.8,395.4 M120.8,355.4c-38.7,0-70.2,32.2-70.2,71.6
			c0,58.8-35.7,63.5-47.1,63.5c-2.2,0-3.5-0.2-3.5-0.2S45.7,512,106.1,512c38.7,0,84.9-33.3,84.9-85
			C191,387.6,159.6,355.4,120.8,355.4L120.8,355.4z"/>
	</g>
</g>
</svg>
