<?xml version="1.0" encoding="utf-8"?>
<!-- Generator: Adobe Illustrator 21.1.0, SVG Export Plug-In . SVG Version: 6.00 Build 0)  -->
<svg version="1.1" id="Layer_1" xmlns="http://www.w3.org/2000/svg" xmlns:xlink="http://www.w3.org/1999/xlink" x="0px" y="0px"
	 viewBox="0 0 326.3 512" style="enable-background:new 0 0 326.3 512;" xml:space="preserve">
<path d="M325.9,123.5c0-12.8-10.5-23.2-23.3-23.2c-12.7,0-23.2,10.5-23.2,23.3c0.3,132.5,0.4,205,0.4,225.4
	c0,64.4-51.5,116.3-116.1,116.4c-64.5,0.1-116.3-51.7-116.4-116.1c0-0.7-0.5-230.4-0.4-232.9C46.9,78,77.8,46.6,116.4,46.5
	c38.5-0.1,69.8,31.3,69.9,69.7c0,4.1,0.5,231.8,0.4,232.9c0.1,12.9-10.5,23.2-23.2,23.3c-12.7,0-23.2-10.3-23.3-23.2
	c0-0.7-0.3-152.2-0.3-160.1c0.1-12.7-10.7-23.2-23.3-23.2c-12.5,0-23.2,10.5-23.2,23.3c0.1,7.8,0.3,157.2,0.3,160.1
	c0.1,39,31.3,69.7,69.9,69.7c38.6,0,69.7-30.8,69.7-69.9c0-20-0.5-228-0.4-232.9c0-64.3-52-116.1-116.4-116.1
	C52,0.2,0.3,52.2,0.4,116.6c0,7.8,0.4,229.1,0.4,232.9C1,439.7,73.8,512.1,163.9,512c90.1-0.1,162.4-72.9,162.4-163.1
	C326.3,329.9,325.9,131.6,325.9,123.5z"/>
</svg>
