<?xml version="1.0" encoding="utf-8"?>
<!-- Generator: Adobe Illustrator 21.1.0, SVG Export Plug-In . SVG Version: 6.00 Build 0)  -->
<svg version="1.1" id="Layer_1" xmlns="http://www.w3.org/2000/svg" xmlns:xlink="http://www.w3.org/1999/xlink" x="0px" y="0px"
	 viewBox="0 0 486.3 512" style="enable-background:new 0 0 486.3 512;" xml:space="preserve">
<path d="M395.4,486.7c-87,50.2-197.7,20.6-248-66.5c-2.2-3.7-125.6-217.5-129.9-225C-18.4,133,2.7,54,64.9,18
	C127.2-17.9,206.2,3.3,242,65.5c2.7,4.8,128.8,223.1,129.9,225c21.8,37.7,8.8,84.8-28.5,106.3s-84.5,9.2-106.3-28.5
	c-1.6-2.8-84.9-147.1-89.3-154.6c-7.1-12.3-2.6-28.5,9.5-35.4c12.1-7,28.4-2.8,35.4,9.5c4.4,7.6,88.9,153.9,89.3,154.6
	c7.2,12.4,23.1,16.6,35.4,9.5s16.7-23,9.5-35.4c-0.6-1.1-127.6-221-129.9-225c-21.4-37.1-69.1-50-106.3-28.5S41,132.1,62.4,169.2
	c1.4,2.5,129.5,224.3,129.9,225c35.9,62.2,114.8,83.4,177.1,47.5c62.3-36,83.4-114.9,47.5-177.1c-2.2-3.8-51.8-89.7-125.7-217.7
	c-7.1-12.4-2.8-28.3,9.5-35.4S329,8.6,336.1,21c4.5,7.8,123.8,214.4,125.7,217.7C512.1,325.8,482.4,436.5,395.4,486.7z"/>
</svg>
