<?xml version="1.0" encoding="utf-8"?>
<!-- Generator: Adobe Illustrator 21.1.0, SVG Export Plug-In . SVG Version: 6.00 Build 0)  -->
<svg version="1.1" id="Layer_2" xmlns="http://www.w3.org/2000/svg" xmlns:xlink="http://www.w3.org/1999/xlink" x="0px" y="0px"
	 viewBox="0 0 418.3 512" style="enable-background:new 0 0 418.3 512;" xml:space="preserve">
<g>
	<path d="M186,386.2h-57.9v30.7l57.9-0.3V386.2L186,386.2z M286,421.9h-94.6V512l94.7-0.2L286,421.9L286,421.9z M186,421.9h-53.8
		l-0.1,89.9L186,512V421.9L186,421.9z"/>
	<path d="M208.7,52c45.6,0,86.9,13.5,116.5,38.1c24.1,20,38.4,45.8,40.7,73.4c-2.3-0.1-4.8-0.2-7.4-0.2c-32.7,0-63.7,8.8-89.3,24.9
		c-15.9-8.6-37-16.7-60.5-16.7c-19.2,0-42,4.7-61.9,14.7c-23.8-15.8-51.3-24.2-79.9-24.2c-4.8,0-9.7,0.2-14.6,0.7
		c2.1-27.5,16.1-53.1,40-73C121.7,65.4,163.1,52,208.7,52 M208.7,0C88,0,0,76.2,0,170.2c0,17.1,3.1,34.1,10.2,50.6l3.1,6.1
		l168.8,147l14.6,12.3h-5.3v30.7l98.7-0.3v-30.4h-68.5l13.9-11.7l168.7-147.6l3.9-6.1c6.3-16.5,10.2-33.6,10.2-50.6
		C417.5,76.8,329.5,0,208.7,0L208.7,0z M186.8,362.3L26.7,222c14.7-5.6,28.1-7.9,40.2-7.9c32.6,0,55.8,16.6,68.9,30.4L186.8,362.3
		L186.8,362.3z M226,365.9L276.2,250l1.6-1.8c18.8-20.7,48.6-32.9,80.8-32.9c14.1,0,18.2,2.4,31.6,7.3L226,365.9L226,365.9z
		 M207.2,374.5l-54.9-126.9c8.3-14.2,36.1-24,56.4-24c19.6,0,40.7,11.4,54.1,22.8L207.2,374.5L207.2,374.5z"/>
</g>
</svg>
