<?xml version="1.0" encoding="utf-8"?>
<!-- Generator: Adobe Illustrator 21.1.0, SVG Export Plug-In . SVG Version: 6.00 Build 0)  -->
<svg version="1.1" id="Layer_3" xmlns="http://www.w3.org/2000/svg" xmlns:xlink="http://www.w3.org/1999/xlink" x="0px" y="0px"
	 viewBox="0 0 460.5 512" style="enable-background:new 0 0 460.5 512;" xml:space="preserve">
<path d="M421.5,305h-78.2L298,203c7.3-12,11.5-26,11.5-41c0-34.5-22.2-63.8-53-74.6V0h-52v87.4c-30.8,10.8-53,40.1-53,74.6
	c0,14.9,4.1,28.8,11.3,40.7L120.9,305H39.5c-10.5,0-19,8.5-19,19s8.5,19,19,19h65.8L51.8,473.8l2.7,1.1l-12.1,29.4
	c-0.8,2,0.1,4.4,2.2,5.2l4.6,1.9c2,0.8,4.4-0.1,5.2-2.2l12-29.4l15.5,6.4l34.4-33.1L161.5,343h58v4c0,6.6,5.4,12,12,12s12-5.4,12-12
	v-4h59.8l49.5,111.4l35.4,32.1l7.6-3.4l11.5,25.9c0.9,2,3.3,2.9,5.3,2l4.6-2c2-0.9,2.9-3.3,2-5.3l-11.5-25.9l10.4-4.6L360.2,343
	h61.3c10.5,0,19-8.5,19-19S432,305,421.5,305z M230.5,135c14.9,0,27,12.1,27,27s-12.1,27-27,27s-27-12.1-27-27S215.6,135,230.5,135z
	 M243.5,305v-3c0-6.6-5.4-12-12-12s-12,5.4-12,12v3h-42.4l27.9-68.2c8,2.7,16.6,4.2,25.5,4.2c9,0,17.6-1.5,25.6-4.3l30.3,68.3H243.5
	z"/>
</svg>
