<?xml version="1.0" encoding="utf-8"?>
<!-- Generator: Adobe Illustrator 21.1.0, SVG Export Plug-In . SVG Version: 6.00 Build 0)  -->
<svg version="1.1" id="Layer_2" xmlns="http://www.w3.org/2000/svg" xmlns:xlink="http://www.w3.org/1999/xlink" x="0px" y="0px"
	 viewBox="0 0 512 512" style="enable-background:new 0 0 512 512;" xml:space="preserve">
<g id="_x35_2_1_">
	<path d="M409.6,324.1c16,7.9,37.4,13.2,54.7,17.5c-13,11.6-37.7,29.5-54.7,34.6V324.1z M159.8,476.2H56v-29h103.8V476.2z
		 M159.8,417.2H56v-29h103.8V417.2z M159.8,358.4H56v-29h103.8V358.4z M159.8,299.1H56v-29h103.8V299.1z M159.8,239.9H56v-29h103.8
		V239.9z M360.8,512.1c-33.3-4.8-77.5-19.1-98.3-30.9c-42.4-24.1-51.3-54-51.3-74.8c0-22.7,9.2-42.8,26.5-58.1
		c23.7-20.9,69.5-32.5,123.1-34.7v71.9c-32.6-2.9-42.3,13.3-41.6,23.5c0.9,13.5,15,28.2,41.9,31.9L360.8,512.1z M409.6,512v-57.4
		c27.5,22.9,77.2,43.2,80.8,57.4C490.4,512,432.9,512,409.6,512z M500,324.1c-6.4,10.3-20,16-32.8,14.6
		c-21.1-6.1-36.4-11.9-57.6-17.8v-80.3c33.1,10.9,67.1,20.2,102.4,23.6C510.3,278.5,507.3,310.7,500,324.1z"/>
	<path d="M512,178.3v2.8H399.2V512h-27.9V181.1h-173v20.4c20.1,4.7,142.8,27.2,162.6,32.5v77.3c-24.5-6.9-138.5-29.9-162.6-35.3v236
		h-27.9V181.1H45.6V512H17.7V181.1H0v-2.8C0,82.6,98,5.1,219,5.1h23.9c2.2-3,6.3-5.1,11-5.1h4.3c4.7,0,8.8,2,11,5.1H293
		C414,5.1,512,82.6,512,178.3z"/>
</g>
</svg>
