<?xml version="1.0" encoding="utf-8"?>
<!-- Generator: Adobe Illustrator 21.1.0, SVG Export Plug-In . SVG Version: 6.00 Build 0)  -->
<svg version="1.1" id="Layer_1" xmlns="http://www.w3.org/2000/svg" xmlns:xlink="http://www.w3.org/1999/xlink" x="0px" y="0px"
	 viewBox="0 0 339.2 512" style="enable-background:new 0 0 339.2 512;" xml:space="preserve">
<g>
	<g>
		<path d="M287.1,107.1V460H52.4V107.1H287.1 M321.6,55.1H17.9c-9.9,0-17.5,7.6-17.5,17.6v421.8c0,10,7.6,17.6,17.5,17.6h303.7
			c9.9,0,17.5-7.6,17.5-17.6V72.7C339.1,62.7,331.5,55.1,321.6,55.1L321.6,55.1z"/>
	</g>
	<g>
		<path d="M255.3,394.1H84.1c-4.3,0-7.9,3.5-7.9,7.9s3.5,7.9,7.9,7.9h171.2c4.3,0,7.9-3.5,7.9-7.9S259.7,394.1,255.3,394.1
			L255.3,394.1z"/>
	</g>
	<g>
		<path d="M255.3,360.8H84.1c-4.3,0-7.9,3.5-7.9,7.9s3.5,7.9,7.9,7.9h171.2c4.3,0,7.9-3.5,7.9-7.9S259.7,360.8,255.3,360.8
			L255.3,360.8z"/>
	</g>
	<path d="M169.7,144.8l-0.3,0C121.7,145,83,184,83,231.8c0,47.8,38.8,86.8,86.4,87l0.4,0c47.9,0,86.8-39,86.8-87
		C256.5,183.8,217.6,144.8,169.7,144.8z M133.3,282.5c1.6,4.5,3.5,8.7,5.5,12.5c-5-2.5-9.7-5.5-14-9.1
		C127.6,284.7,130.4,283.5,133.3,282.5z M161.5,276.5v21.7c-4.4-4.2-8.7-11.2-12.1-20C153.4,277.4,157.4,276.8,161.5,276.5z
		 M161.5,165.5v21.6c-4-0.3-8.1-0.8-12.1-1.6C152.7,176.7,157,169.6,161.5,165.5z M144.8,201.4c5.5,1.1,11,1.8,16.7,2.2v19.9H142
		C142.4,215.8,143.3,208.4,144.8,201.4z M161.5,240.1V260c-5.6,0.4-11.2,1.1-16.7,2.2c-1.5-7-2.4-14.3-2.8-22.1H161.5z M138.8,168.6
		c-2,3.8-3.9,8-5.5,12.5c-2.9-1-5.7-2.2-8.5-3.4C129.2,174.1,133.8,171,138.8,168.6z M113,190.4c5.2,2.6,10.5,4.9,15.8,6.7
		c-1.8,8.4-3,17.3-3.4,26.5H100C101.4,211.5,105.8,200.1,113,190.4z M100,240.1h25.4c0.4,9.2,1.6,18,3.4,26.4
		c-5.4,1.9-10.7,4.1-15.8,6.7C105.8,263.5,101.4,252.1,100,240.1z M239.5,223.5h-25.6c-0.4-9.2-1.6-18-3.4-26.4
		c5.5-1.9,10.8-4.2,16-6.8C233.6,200.1,238.1,211.5,239.5,223.5z M189.9,278.1c-3.3,8.7-7.5,15.7-11.9,19.9v-21.4
		C182,276.8,186,277.4,189.9,278.1z M214.6,285.9c-4.4,3.7-9.2,6.8-14.3,9.3c2.1-3.9,3.9-8.1,5.6-12.8
		C208.9,283.5,211.8,284.6,214.6,285.9z M214.6,177.7c-2.8,1.3-5.7,2.4-8.6,3.5c-1.7-4.6-3.5-8.9-5.6-12.7
		C205.5,170.9,210.2,174,214.6,177.7z M178,165.7c4.4,4.2,8.6,11.2,11.9,19.8c-3.9,0.7-7.9,1.3-11.9,1.6V165.7z M178,203.7
		c5.6-0.4,11.1-1.1,16.5-2.2c1.5,6.9,2.4,14.3,2.8,22.1H178V203.7z M178,240.1h19.3c-0.4,7.7-1.3,15.1-2.8,22
		c-5.4-1.1-10.9-1.8-16.5-2.2V240.1z M226.5,273.3c-5.2-2.6-10.6-4.9-16-6.8c1.8-8.4,2.9-17.2,3.4-26.4h25.6
		C238.1,252.1,233.6,263.5,226.5,273.3z"/>
	<g>
		<path d="M262.4,0.5c-0.7,0-1.4,0-2.1,0.1L123.6,28.7c-1.2,0.6-1.2,2.3,0.6,2.3L280.7,17C279.6,7.7,271.9,0.5,262.4,0.5L262.4,0.5z
			"/>
	</g>
	<g>
		<path d="M293.3,28c-0.7,0-1.3,0-2,0.1L149.3,41c-1.8,0-1.2,2.3,0,2.3h160.6C308.8,34.7,301.7,28,293.3,28L293.3,28z"/>
	</g>
</g>
</svg>
