<?xml version="1.0" encoding="utf-8"?>
<!-- Generator: Adobe Illustrator 21.1.0, SVG Export Plug-In . SVG Version: 6.00 Build 0)  -->
<svg version="1.1" id="Layer_2" xmlns="http://www.w3.org/2000/svg" xmlns:xlink="http://www.w3.org/1999/xlink" x="0px" y="0px"
	 viewBox="0 0 421.5 512" style="enable-background:new 0 0 421.5 512;" xml:space="preserve">
<g id="_x35_3">
	<path d="M341.7,497c0,8.3-6.7,15-15,15H15.5c-8.3,0-15-6.7-15-15V95c0-8.3,6.7-15,15-15H52v365c0,8.3,6.7,15,15,15h274.7L341.7,497
		z"/>
	<path id="fill-32_3_" d="M240.5,52v116.8c0,6.7,5.4,12.2,12.2,12.2h116.9l0.1,189H142.5V52H240.5 M324.5,0v86.9
		c0,5.6,4.5,10.1,10.1,10.1h86.9L324.5,0L324.5,0z M292.5,0h-187c-8.3,0-15,6.7-15,15v392c0,8.3,6.7,15,15,15h301.2
		c8,0,14.5-6.2,15-14c0-0.3,0-0.6,0-1l-0.2-278H302.6c-5.6,0-10.1-4.5-10.1-10.1V0L292.5,0z"/>
	<path id="fill_2_" d="M169.8,87h42.8v32h-42.8V87z M169.8,147h42.8v32h-42.8V147z M343,347H169.8v-32H343V347z M343,293H169.8v-32
		H343V293z M343,239H169.8v-32H343V239z"/>
</g>
</svg>
