<?xml version="1.0" encoding="utf-8"?>
<!-- Generator: Adobe Illustrator 22.0.1, SVG Export Plug-In . SVG Version: 6.00 Build 0)  -->
<svg version="1.1" id="Layer_1" xmlns="http://www.w3.org/2000/svg" xmlns:xlink="http://www.w3.org/1999/xlink" x="0px" y="0px"
	 viewBox="0 0 512 512" style="enable-background:new 0 0 512 512;" xml:space="preserve">
<g>
	<path d="M311.2,328.4c3,0,5.4-2.4,5.4-5.4c0-3-2.4-5.4-5.4-5.4H193.1c-3,0-5.4,2.4-5.4,5.4c0,3,2.4,5.4,5.4,5.4H311.2z"/>
	<path d="M59.8,313.6c0,0-8.2-5-16.4-5c-4.1,0-8.2,1.3-11.3,5c-1.2,1.4,18.8,100.6,18.8,100.6v19.5v78.4h27.8c0,0,0-48.9,0-78.4
		h46.3v78.4h27.8v-78.4v-8.6v-13.6H77.8C74.2,390.4,59.8,313.6,59.8,313.6z"/>
	<path d="M468.9,313.6c-3.1-3.8-7.2-5-11.3-5c-8.2,0-16.4,5-16.4,5s-14.5,76.8-18,97.9h-74.9v13.6v8.6v78.4H376v-78.4h46.3
		c0,29.5,0,78.4,0,78.4h27.8v-78.4h0v-19.5C450.1,414.2,470,315,468.9,313.6z"/>
	<path d="M510,145.8C470.3,61.4,371.6,1.6,256.2,1.6C140.4,1.6,41.5,61.7,2,146.4c-0.6,1.3-1.8,4-1.8,4l0,0C2,150,4,149.8,6,149.8
		c8.3,0,18,3.7,26.5,10.8c10.7,8.8,16.5,20.6,15.8,30.1c2.7-3.1,29.1-32.3,66.9-32.3c39.9,0,72.2,32.6,72.2,32.6
		s19.4-21.9,49.1-29.8v151h31.1V159c35.9,4.6,61.1,31.9,61.1,31.9s29-32.6,71-32.6c42,0,67.1,32.6,67.1,32.6l0.1-0.1
		c-0.7-9.5,5-21.4,15.7-30.3c8.4-7.1,18.1-10.7,26.3-10.7c1,0,2,0.1,2.9,0.2C511.4,148.9,510.5,146.9,510,145.8z M399.8,106.3
		c-28.6,0-52.8,9.1-71.2,19.6c-18.5-10.5-42.7-19.6-71-19.6c-28.5,0-52.7,9.3-71,19.9c-18.8-10.5-43.3-19.9-71.3-19.9
		c-6.2,0-12.3,0.5-18,1.3c9-7.5,18.8-14.3,29.4-20.4c37.9-22,82.7-33.6,129.6-33.6c46.8,0,91.5,11.6,129.3,33.4
		c10.5,6.1,20.2,12.8,29.1,20.1C409.8,106.6,404.9,106.3,399.8,106.3z"/>
	<path d="M405.1,333H96.8c-6.9,0-13,5.1-13.7,11.9c-0.9,8.1,5.4,15,13.4,15h99.3v152.2h52V409.4h8.7v102.7h52V359.9h96.2
		c6.9,0,13-5.1,13.7-11.9C419.4,339.9,413,333,405.1,333z"/>
</g>
</svg>
