<?xml version="1.0" encoding="utf-8"?>
<!-- Generator: Adobe Illustrator 21.1.0, SVG Export Plug-In . SVG Version: 6.00 Build 0)  -->
<svg version="1.1" id="Layer_1" xmlns="http://www.w3.org/2000/svg" xmlns:xlink="http://www.w3.org/1999/xlink" x="0px" y="0px"
	 viewBox="0 0 513.4 512" style="enable-background:new 0 0 513.4 512;" xml:space="preserve">
<path d="M177,55.5c6.3,6.5,15.6,21.1,19.3,44.4c3.7,23.2-0.6,39.9-4.5,48c-6.3-6.5-15.6-21.1-19.3-44.3
	C168.8,80.3,173.1,63.7,177,55.5 M359.6,64c2.9,8.6,5.1,25.6-1.3,48.2c-6.5,22.7-17.5,36-24.6,41.7c-2.9-8.6-5.2-25.6,1.3-48.2
	C341.5,83,352.5,69.7,359.6,64 M54.8,204.7c1.9,1,4.5,2.7,7.4,5.3c7,6.4,13.2,15.6,17.3,26.1c4.2,10.4,6.1,21.3,5.4,30.7
	c-0.3,3.9-1,6.8-1.7,8.9c-1.9-1-4.5-2.7-7.4-5.3c-7-6.4-13.2-15.6-17.3-26.1c-4.2-10.4-6.1-21.3-5.4-30.7
	C53.4,209.6,54.1,206.7,54.8,204.7 M459.2,219.2c2,6.6,3.1,21-4.8,39.5c-4.4,10.4-10.8,19.5-18,25.7c-3,2.6-5.6,4.2-7.6,5.2
	c-2-6.6-3.1-21,4.8-39.5c4.4-10.4,10.8-19.5,18-25.7C454.6,221.7,457.2,220.1,459.2,219.2 M253.3,298.9c0.2,0,0.4,0,0.7,0
	c2.6,0.4,12.4,4.3,27.7,17.8c14.9,13.1,31.1,32,45.6,53c14.2,20.7,26.5,42.9,34.5,62.6c2.9,7.2,5,13.3,6.4,18.3
	c-4.6-1.7-9.8-3.9-14.3-5.9c-19.4-8.3-43.5-18.7-73.4-18.7c-13.7,0-27.3,2.2-40.5,6.7c-4.2,1.4-9,3.1-14,4.9
	c-23.1,8.1-61.3,21.6-86,22.2c-0.7-13,1.8-28.6,7.4-45.1c7.6-22.7,20.7-46.3,36.8-66.6C211,314.3,238.9,298.9,253.3,298.9
	L253.3,298.9L253.3,298.9 M174.6,0c-2.1,0-4.3,0.2-6.4,0.5c-34.9,5.6-56,55.4-47.1,111.3c8.4,52.5,40.3,91.6,73,91.6
	c2.1,0,4.3-0.2,6.4-0.5c34.9-5.6,56-55.4,47.1-111.3C239.3,39.2,207.4,0,174.6,0L174.6,0z M363.6,8.8c-31.2,0-64.6,34.1-78.5,82.5
	c-15.6,54.4-0.7,106.4,33.3,116.1c3.7,1.1,7.5,1.6,11.3,1.6c31.2,0,64.6-34.1,78.5-82.5c15.6-54.4,0.7-106.4-33.3-116.1
	C371.2,9.3,367.4,8.8,363.6,8.8L363.6,8.8z M51.5,151.3c-5.7,0-11.3,1-16.7,3.1c-32.5,12.9-43.5,61.7-24.6,109
	C26,303,57.6,329,86.5,329c5.7,0,11.3-1,16.7-3.1c32.5-12.9,43.5-61.7,24.6-109C112,177.3,80.4,151.3,51.5,151.3L51.5,151.3z
	 M462.5,165.9c-28.6,0-60.2,25-76.7,63.6c-20.1,46.8-10.3,95.9,21.8,109.6c5.7,2.4,11.7,3.6,17.8,3.6c28.6,0,60.2-25,76.7-63.6
	c20.1-46.8,10.3-95.9-21.8-109.6C474.7,167.1,468.7,165.9,462.5,165.9L462.5,165.9z M253.3,246.9c-82.4,0-184.1,142.3-162.7,235.2
	c5.1,22.3,23.9,29.8,47.4,29.8c39.4,0,92.4-21.1,118.4-29.8c8.3-2.8,16.3-4,23.9-4c37,0,66.6,27.5,98.7,27.5
	c10.5,0,21.3-2.9,32.8-10.8c49.7-33.9-76.1-244.3-155.4-247.9C255.5,247,254.4,246.9,253.3,246.9L253.3,246.9z"/>
</svg>
