<?xml version="1.0" encoding="utf-8"?>
<!-- Generator: Adobe Illustrator 21.1.0, SVG Export Plug-In . SVG Version: 6.00 Build 0)  -->
<svg version="1.1" id="Layer_1" xmlns="http://www.w3.org/2000/svg" xmlns:xlink="http://www.w3.org/1999/xlink" x="0px" y="0px"
	 viewBox="0 0 512 512" style="enable-background:new 0 0 512 512;" xml:space="preserve">
<g>
	<path d="M432.8,395.8c-13.1-59-105-198.9-174.6-198.9c-39.6,0-89.7,46.6-120.1,86.3c-33.5,43.7-63.4,91.3-63.4,142
		c0,48.4,34.5,87.7,77,87.7c12.1,0,18.8-2.8,23.8-4.3c18.2-5.3,59.9-16.7,80.5-16.7c20,0,60.7,11,79.8,16.5c0,0,0,0,0.1,0
		c5.9,1.7,13.2,4.5,24.4,4.5c42.5,0,77-39.2,77-87.7C437.3,414.9,435.7,405,432.8,395.8z M375.7,453c-3.2,3.6-8.5,8-15.4,8
		c-0.7,0-1.3,0-1.9-0.1c-2-0.6-4.8-1.4-8.1-2.4l0,0c0,0,0,0,0,0l0,0C307.5,446.2,275.8,440,256,440c-20.1,0-52.1,6.3-94.9,18.7
		c-2.9,0.8-5.3,1.5-7,2.1c-0.8,0.1-1.6,0.2-2.4,0.2c-6.9,0-12.2-4.3-15.3-8c-6.1-7-9.6-17.1-9.6-27.7c0-3.4,0.4-6.8,1.1-10.1
		c0,0,5.2-25.4,16-45.4c10.5-19.4,24.6-40.4,39.6-59.2c16.2-20.1,32.8-36.7,47.9-48c18.3-13.7,26.9-13.8,27-13.8
		c4.7,0,30.1,9.8,67.6,57.5c29.5,37.5,59.4,91.1,59.4,118.8C385.3,435.9,381.8,446,375.7,453z"/>
	<path d="M462.6,166.5c0.8,0,1.3,0.2,1.7,0.3c5.1,2,10.4,17.5,3.2,36c-6.5,16.8-18.8,24.6-25,24.6c-0.8,0-1.3-0.2-1.7-0.3
		c-5.1-2-10.4-17.5-3.2-36C444.2,174.3,456.4,166.5,462.6,166.5L462.6,166.5 M462.6,125.5c-25.1,0-51.2,19.9-63.2,50.8
		c-14.7,37.8-2.8,77.6,26.6,89c5.4,2.1,10.9,3.1,16.5,3.1c25.1,0,51.2-19.9,63.2-50.8c14.7-37.8,2.8-77.6-26.6-89
		C473.8,126.5,468.2,125.5,462.6,125.5L462.6,125.5z"/>
	<path d="M166.4,38.2c11.6,0,26.5,14.8,30.1,36.9c2,12.2,0.1,24.4-5.1,33.5c-2.2,3.8-6.9,10.4-14.1,11.5c-0.8,0.1-1.5,0.2-2.3,0.2
		c-11.6,0-26.5-14.8-30.1-36.9c-2-12.2-0.1-24.5,5.1-33.5c2.2-3.8,6.9-10.4,14.1-11.5C164.8,38.3,165.6,38.2,166.4,38.2L166.4,38.2
		L166.4,38.2 M166.4,0.2c-2.8,0-5.5,0.2-8.3,0.7c-35,5.6-57.6,45.3-50.7,88.6c6.4,39.9,35.7,68.9,67.6,68.9c2.8,0,5.5-0.2,8.3-0.7
		c35-5.6,57.6-45.3,50.7-88.6C227.5,29.2,198.3,0.2,166.4,0.2L166.4,0.2z"/>
	<path d="M348.7,40.7c1.5,0,2.8,0.2,4.1,0.7c5.7,2.2,8.5,9.1,9.7,13.1c3.1,10.3,2.1,23.1-2.6,35.2c-7.7,19.8-23.2,31.6-33.8,31.6
		c-1.5,0-2.8-0.2-4.1-0.7c-5.7-2.2-8.5-9.1-9.7-13.1c-3.1-10.3-2.1-23.1,2.6-35.2C322.6,52.5,338.1,40.7,348.7,40.7L348.7,40.7
		 M348.7,0.7c-28.3,0-57.6,22.4-71,57.1c-16.5,42.5-3.1,87.3,29.9,100.1c6,2.3,12.3,3.4,18.6,3.4c28.3,0,57.6-22.4,71-57.1
		c16.5-42.5,3.1-87.3-29.9-100.1C361.3,1.8,355,0.7,348.7,0.7L348.7,0.7z"/>
	<path d="M48.3,160.8c8.2,0,20.7,5.7,30.3,18.4c12.8,17,12.2,35.1,6.1,39.7c-0.5,0.4-2.2,1.7-6.2,1.7c-8.2,0-20.7-5.7-30.3-18.4
		c-12.8-17-12.2-35.1-6.1-39.7C42.7,162.1,44.4,160.8,48.3,160.8L48.3,160.8L48.3,160.8 M48.3,122.8c-10.6,0-20.7,3-29,9.3
		c-25.1,19-25.7,60.6-1.3,92.9c16.3,21.5,39.5,33.5,60.7,33.5c10.6,0,20.7-3,29-9.3c25.1-19,25.7-60.6,1.3-92.9
		C92.7,134.8,69.4,122.8,48.3,122.8L48.3,122.8z"/>
</g>
</svg>
