<?xml version="1.0" encoding="utf-8"?>
<!-- Generator: Adobe Illustrator 21.1.0, SVG Export Plug-In . SVG Version: 6.00 Build 0)  -->
<svg version="1.1" id="Layer_1" xmlns="http://www.w3.org/2000/svg" xmlns:xlink="http://www.w3.org/1999/xlink" x="0px" y="0px"
	 viewBox="0 0 560 512" style="enable-background:new 0 0 560 512;" xml:space="preserve">
<style type="text/css">
	.st0{fill:#010101;}
</style>
<g>
	<path d="M388.2,198.8l-52,8.3c-2.6-6.6-5-11.2-7.1-13.8c-2.1-2.6-5.6-5.2-10.4-7.8V226c28.3,7.6,47.3,15.5,56.8,23.9
		c12.6,11.3,18.9,25.6,18.9,43c0,10.2-2.3,19.5-6.8,28c-4.5,8.5-10.3,15.6-17.3,21.3c-7,5.7-14.5,9.8-22.4,12.4
		c-7.9,2.6-17.6,4.1-29.1,4.5v26.4h-20.4v-26.4c-13.7-1.2-24.8-3.4-33.4-6.6c-8.5-3.2-15.9-7.7-22.1-13.4
		c-6.2-5.7-11-11.8-14.3-18.4c-3.4-6.6-5.9-14.5-7.6-23.8l56.5-6.6c1.7,9.2,3.9,15.9,6.8,20c2.8,4.1,7.5,7.7,14.1,10.9v-49.4
		c-18.8-5.2-32.2-9.8-40.1-13.6c-7.9-3.8-14.7-10-20.5-18.4c-5.8-8.4-8.7-18.7-8.7-30.9c0-16.6,5.8-30.5,17.4-41.6
		s28.9-17.3,51.8-18.5v-13.8h20.4v13.8c20.9,1.3,36.8,6.2,47.9,14.8C377.7,172.2,384.9,183.9,388.2,198.8z M298.3,184.8
		c-6,2-10.1,4.4-12.4,7.3c-2.3,2.9-3.5,6.3-3.5,10.3c0,4.1,1.2,7.7,3.5,10.8c2.4,3,6.5,5.6,12.4,7.6V184.8z M318.7,322.6
		c7.9-1.8,13.7-4.7,17.4-8.8c3.7-4.1,5.5-8.6,5.5-13.7c0-4.4-1.6-8.4-4.7-12.1c-3.1-3.7-9.2-7.1-18.3-10.3V322.6z"/>
	<path class="st0" d="M308.4,0.1c-14.5,0-26,11.6-26,26s11.5,26.1,26,26.1c110.5,2.2,199.4,92.6,199.4,203.8
		c0,112.6-91.1,203.8-203.5,203.7c-112.4,0-203.5-91.3-203.5-203.9H48.9C49.2,397,163.3,511.5,304.4,511.5S560,396.9,560,255.7
		C560,115.9,447.7,2.3,308.4,0.1z M74.9,157.9L0,255.8h149.7L74.9,157.9z"/>
</g>
</svg>
