<?xml version="1.0" encoding="utf-8"?>
<!-- Generator: Adobe Illustrator 22.0.1, SVG Export Plug-In . SVG Version: 6.00 Build 0)  -->
<svg version="1.1" id="Layer_2_1_" xmlns="http://www.w3.org/2000/svg" xmlns:xlink="http://www.w3.org/1999/xlink" x="0px" y="0px"
	 viewBox="0 0 512 512" style="enable-background:new 0 0 512 512;" xml:space="preserve">
<path d="M512,120.9l-112.2,63.4l-182.9-145L225.6,0h-52.2l-14.1,60.1l0,0c-1,0.2-21.4,4.1-43.2,11.3C83.8,82,65.7,94,60.6,108.1
	c-8.4,23.7-6.4,52.9-4,86.8c2.4,34.2,5.1,73-1.3,117.8C46.1,378,14.7,458.8,1.1,491.5c-0.8,1.8-1.1,3.8-1.1,5.6
	c0,4.5,2,8.8,5.7,11.7c2.7,2.1,5.9,3.1,9.1,3.1c3.1,0,6.2-1,8.8-2.9c25.8-19,101.6-73.4,154.5-96.1c41.6-17.8,79.8-25.3,113.4-31.9
	c33.3-6.5,62.1-12.2,82.8-26.5c12.3-8.5,19.2-29.2,21-63.2c1.2-23-0.3-43.8-0.4-44.6l117-66.2v-59.6H512z M343.4,288.7
	c-0.8,14.2-2.4,22.1-3.5,26c-13,6.5-35.1,10.8-58.4,15.4h-0.2c-34.3,6.8-77.1,15.2-123.7,35.1c-16.8,7.2-38.5,17.1-58.5,28
	l72.3-95.8c4.1,1.7,8.7,2.6,13.4,2.6c19.7,0,35.7-16,35.7-35.7s-16-35.7-35.7-35.7s-35.7,16-35.7,35.7c0,7.4,2.3,14.3,6.1,20
	l-66.4,99.8c7.1-21.5,15-43.4,17.9-64.1c7.1-50.1,4.1-93.6,1.7-128.5v-0.3c-1.6-23.6-3.2-46.1-0.3-60.4c3.5-2.1,10.7-5.7,24.2-10.2
	c5.5-1.8,60.8-18.5,75-22.6l136.5,108.2C343.8,221.8,343.8,282.5,343.4,288.7z"/>
</svg>
