<?xml version="1.0" encoding="utf-8"?>
<!-- Generator: Adobe Illustrator 21.1.0, SVG Export Plug-In . SVG Version: 6.00 Build 0)  -->
<svg version="1.1" id="Layer_2" xmlns="http://www.w3.org/2000/svg" xmlns:xlink="http://www.w3.org/1999/xlink" x="0px" y="0px"
	 viewBox="0 0 512 512" style="enable-background:new 0 0 512 512;" xml:space="preserve">
<g id="_x35_2">
	<path d="M349.4,145.4l17.6,17.6L88.1,442c-4.7,1.8-13.5,4.8-26,8.4c3.5-12.5,6.5-21.3,8.3-25.9l88.2-88.2L349.4,145.4L349.4,145.4z
		 M349.4,77.6C208.1,218.9,173.2,253.7,31.9,395C21.2,405.7-3.2,507.6,0.8,511.6c0.3,0.3,1.1,0.4,2.4,0.4
		c16.1,0,104.3-21.8,114.2-31.6C261.9,336,434.9,163,434.9,163L349.4,77.6L349.4,77.6z"/>
	<g>
		<polygon points="442.8,155.2 442.6,155 357.3,69.7 426.1,0.8 511.6,86.3 		"/>
	</g>
</g>
</svg>
