<?xml version="1.0" encoding="utf-8"?>
<!-- Generator: Adobe Illustrator 21.1.0, SVG Export Plug-In . SVG Version: 6.00 Build 0)  -->
<svg version="1.1" id="Layer_2" xmlns="http://www.w3.org/2000/svg" xmlns:xlink="http://www.w3.org/1999/xlink" x="0px" y="0px"
	 viewBox="0 0 512 512" style="enable-background:new 0 0 512 512;" xml:space="preserve">
<g id="_x35_2">
	<path d="M349.4,145.4l17.6,17.6L88.1,442c-4.7,1.8-13.5,4.8-26,8.4c3.5-12.5,6.5-21.3,8.3-25.9l88.2-88.2L349.4,145.4L349.4,145.4z
		 M349.4,77.6C208.1,218.9,173.2,253.7,31.9,395C21.2,405.7-3.2,507.6,0.8,511.6c0.3,0.3,1.1,0.4,2.4,0.4
		c16.1,0,104.3-21.8,114.2-31.6C261.9,336,434.9,163,434.9,163L349.4,77.6L349.4,77.6z"/>
	<g>
		<path d="M476.6,155.9c2.1,2.1,3.4,5,3.5,8l0,0c0,3.1-1.3,6.2-3.5,8.4L354.8,294.2c-4.3,4.5-12.3,4.6-16.7,0.2
			c-4.4-4.3-4.4-12.3,0-16.7l113.6-113.6l-8.9-8.9l-0.2-0.2l-85.3-85.3l68.8-68.8l85.5,85.5l-52.3,52.3
			C460.3,139.6,465.9,145.1,476.6,155.9z"/>
	</g>
</g>
</svg>
