<?xml version="1.0" encoding="utf-8"?>
<!-- Generator: Adobe Illustrator 21.1.0, SVG Export Plug-In . SVG Version: 6.00 Build 0)  -->
<svg version="1.1" id="Layer_1" xmlns="http://www.w3.org/2000/svg" xmlns:xlink="http://www.w3.org/1999/xlink" x="0px" y="0px"
	 viewBox="0 0 512 512" style="enable-background:new 0 0 512 512;" xml:space="preserve">
<g id="_x35_2">
	<g>
		<polygon points="92.2,482.3 144.2,482.3 419.8,29.3 367.8,29.3 		"/>
	</g>
	<path d="M83.2,92.2c9.6,0,16.6,6.3,19.9,10c7.2,8.1,11.3,19.7,11.3,31.9c0,22.7-14.3,41.9-31.2,41.9c-9.6,0-16.6-6.3-19.9-10
		c-7.2-8.1-11.3-19.7-11.3-31.9s4.1-23.8,11.3-31.9C66.6,98.5,73.6,92.2,83.2,92.2 M428.8,335.9c9.6,0,16.6,6.3,19.9,10
		c7.2,8.1,11.3,19.7,11.3,31.9c0,12.2-4.1,23.8-11.3,31.9c-3.3,3.7-10.3,10-19.9,10c-9.6,0-16.6-6.3-19.9-10
		c-7.2-8.1-11.3-19.7-11.3-31.9C397.5,355.1,411.8,335.9,428.8,335.9 M83.2,40.2C37.4,40.2,0,82.2,0,134.1C0,186,37.4,228,83.2,228
		c46.1,0,83.2-42,83.2-93.9C166.5,82.2,129.1,40.2,83.2,40.2L83.2,40.2z M428.8,283.9c-46.1,0-83.2,42-83.2,93.9
		c0,51.9,37.4,93.9,83.2,93.9c45.9,0,83.2-42,83.2-93.9C512,326,474.6,283.9,428.8,283.9L428.8,283.9z"/>
</g>
</svg>
