<?xml version="1.0" encoding="utf-8"?>
<!-- Generator: Adobe Illustrator 21.1.0, SVG Export Plug-In . SVG Version: 6.00 Build 0)  -->
<svg version="1.1" id="Layer_1" xmlns="http://www.w3.org/2000/svg" xmlns:xlink="http://www.w3.org/1999/xlink" x="0px" y="0px"
	 viewBox="0 0 545.2 512" style="enable-background:new 0 0 545.2 512;" xml:space="preserve">
<g>
	<path d="M368.6,77.2c16.1,15.9,32,32.2,48.4,49.1c20.9,21.4,42.2,43.3,64.4,64.7c-5.3,7.9-11.9,15.8-20.1,23.9
		c-25.1,25.1-60.3,48.5-101.1,75.5c-52.8,35.1-112.7,74.8-168.7,130.8c-4.8,4.8-9.5,9.6-14.1,14.5c-31.6-31.1-76.6-76.2-111.1-113.2
		c5.1-6.2,10.9-12.5,17.5-19c33.7-33.7,79.4-65.7,127.7-99.5c50.3-35.2,102.3-71.5,143-112.3C359.5,86.9,364.2,82.1,368.6,77.2
		 M362.5,0.3c-0.4,0-0.8,0.2-1.2,0.6c-0.4,0.4-0.8,0.9-1.2,1.6c-11,18.3-25.4,35.7-42.2,52.5c-74.8,74.8-196.7,137.7-270.7,211.8
		c-19.4,19.3-35.4,39.3-46.5,60.5c54.8,63.5,179.6,184.3,180.4,184.3l0,0c7.5-9.7,15.3-19,23.2-27.9s15.9-17.4,24.1-25.6
		c95.2-95.2,206-142.5,269.8-206.3c21.6-21.6,37.8-45,46.3-72.9C481.7,121.8,426.8,58.2,364.1,1.2l-0.6-0.4
		C363.1,0.5,362.8,0.3,362.5,0.3L362.5,0.3z"/>
	<path d="M347.8,240l20.7,20.7c31.9-21.3,59.9-40.6,81.4-60.9l-23.2-23.2C402.7,198.8,375.6,219.7,347.8,240z"/>
	<path d="M361.9,111.9c-24,22.2-51,43.1-78.9,63.4l20.7,20.7c31.9-21.3,59.9-40.6,81.4-60.9L361.9,111.9z"/>
	<path d="M182.9,270.5l-7.7,7.7c-19.5-13.2-34.4-2.8-47.9,10.7l-22.6,21.9l18.7,19.3l-8.1,8.1l5.9,5.9l8-8l4.7,4.8l-7.9,7.9l5.9,5.9
		l7.8-7.8l54.7,56.3l15.9-15.4L173,349.1c0,0,7.8-8,10.6-10.7c16.6-16.6,15.9-31.5,8.1-43.7l7.7-7.7l-5.9-5.9l-6.9,6.9
		c-0.6-0.7-1.2-1.3-1.9-2c-1-1-2-1.9-2.9-2.8l7-7L182.9,270.5z M133.4,309l12-12c3-3,8.6-5.1,14.7-3.8l-21.2,21.2L133.4,309z
		 M173.8,325.3l-12,12l-6.5-6.4l21.8-21.8C179.2,315.9,177,322.1,173.8,325.3z M171.1,299.6c0.7,0.7,1.3,1.3,1.8,2l-23.5,23.5
		l-4.8-4.7l23.4-23.4C169.1,297.7,170.1,298.6,171.1,299.6z"/>
</g>
</svg>
