<?xml version="1.0" encoding="utf-8"?>
<!-- Generator: Adobe Illustrator 22.0.1, SVG Export Plug-In . SVG Version: 6.00 Build 0)  -->
<svg version="1.1" id="Layer_3" xmlns="http://www.w3.org/2000/svg" xmlns:xlink="http://www.w3.org/1999/xlink" x="0px" y="0px"
	 viewBox="0 0 512 512" style="enable-background:new 0 0 512 512;" xml:space="preserve">
<style type="text/css">
	.st0{fill:#000100;}
</style>
<g>
	<polygon points="243.1,166.1 282.3,126.9 327.7,172.3 327.7,2 379.4,2 379.4,172.3 424.7,127.3 464.1,166.7 353.9,277 	"/>
	<path class="st0" d="M93.2,46.1c6.7,0.2,13.7,7,17.2,16.6l0.3,0.8l0.3,0.7c9.1,22.8,14.5,45.8,14.5,61.4c0,13.9-6.8,22.2-9.4,23.2
		l-22.6,7.7c-9.6,3.3-15.1,13.2-12.9,23l5.2,22.9c2.7,11.9,18.9,74.2,73.4,132.4c56.1,59.9,124.6,84.9,144.2,91.1l25.1,8
		c10.3,3.3,21.2-2.3,24.7-12.4l8.4-24.7c0.2-0.5,1.5-2.6,5.1-4.7c5-3,11.4-4.6,18.4-4.6c18.8,0,44.2,7.4,61.8,14.3l0.9,0.3l0.9,0.3
		c9.9,3.4,16.6,10.2,16.9,17c-0.6,4.3-6.8,16.9-19.4,29.3c-13.2,12.9-24.7,17.1-28.2,17.1c-1.5,0-3.2-0.1-5.5-0.3h-0.5h-0.5h-0.3
		c-6.9-0.5-43.5-3.7-92.7-20.4c-30-10.2-58.6-23.4-85.1-39.3c-32.6-19.5-62.1-43.3-87.7-70.6c-21.2-22.5-39.5-48.6-54.6-77.4
		c-12.2-23.3-22.3-48.6-30-75c-2.6-9-4.7-17.5-6.6-25.3l-7.8-58.3c-0.3-2.1-0.4-3.9-0.4-5.7c0-3.4,4.2-14.7,17.3-28
		C76.2,52.8,88.9,46.7,93.2,46.1 M92.9,0C56.5,0,0,51.2,0,93.3c0,4,4.5,158.9,111.7,273.2c125.7,134.2,290.9,144.6,296.4,145
		c3.2,0.3,6.5,0.5,9.8,0.5c42.4,0,94.1-56,94.1-92.2c-0.1-27.5-19.8-50.9-47.9-60.7c-11.4-4.5-47.1-17.6-79-17.6
		c-32.3,0-59.5,17.2-67.5,40.7c-16.8-5.3-76-27-124.3-78.6c-47-50.1-60.6-104.4-62.1-111.1c23.4-8,40.7-34.9,40.7-66.8
		c0-31.6-13.2-66.9-17.8-78.4C144.3,19.6,120.6,0,92.9,0L92.9,0z"/>
</g>
</svg>
