<?xml version="1.0" encoding="utf-8"?>
<!-- Generator: Adobe Illustrator 22.0.1, SVG Export Plug-In . SVG Version: 6.00 Build 0)  -->
<svg version="1.1" id="Layer_3" xmlns="http://www.w3.org/2000/svg" xmlns:xlink="http://www.w3.org/1999/xlink" x="0px" y="0px"
	 viewBox="0 0 512 512" style="enable-background:new 0 0 512 512;" xml:space="preserve">
<style type="text/css">
	.st0{fill:#000100;}
</style>
<g id="_x35_2">
	<path class="st0" d="M93.7,46.2c6.6,0.2,13.7,7,17.1,16.6l0.3,0.8l0.3,0.7c9.1,22.8,14.5,45.8,14.5,61.4c0,13.9-6.7,22.2-9.4,23.2
		L94,156.6c-9.5,3.3-15.1,13.2-12.9,23l5.2,22.9c2.7,11.9,18.8,74.2,73.2,132.4c55.9,59.9,124.2,84.9,143.7,91.1l25,8
		c10.2,3.3,21.2-2.3,24.6-12.4l8.4-24.7c0.2-0.5,1.5-2.6,5-4.7c4.9-3,11.4-4.6,18.3-4.6c18.7,0,44.1,7.4,61.6,14.3l0.9,0.3l0.9,0.3
		c9.9,3.4,16.5,10.2,16.8,17c-0.6,4.3-6.7,16.9-19.3,29.3c-13.2,12.9-24.6,17.1-28.1,17.1c-1.5,0-3.2-0.1-5.4-0.3h-0.5h-0.5h-0.3
		c-6.8-0.5-43.4-3.7-92.5-20.4c-29.9-10.2-58.4-23.4-84.8-39.3c-32.5-19.5-61.9-43.3-87.4-70.6c-21.2-22.5-39.4-48.6-54.4-77.4
		c-12.2-23.3-22.3-48.6-29.9-75c-2.6-9-4.7-17.5-6.5-25.3l-7.8-58.3c-0.3-2.1-0.4-3.9-0.4-5.7c0-3.4,4.2-14.7,17.2-28
		C76.7,52.9,89.4,46.8,93.7,46.2 M93.4,0.1C57.1,0.1,0.8,51.3,0.8,93.4c0,4,4.5,158.9,111.4,273.2c125.3,134.2,290,144.6,295.5,145
		c3.2,0.3,6.4,0.5,9.8,0.5c42.3,0,93.8-56,93.8-92.2c-0.1-27.5-19.7-50.9-47.7-60.7c-11.4-4.5-46.9-17.6-78.8-17.6
		c-32.2,0-59.3,17.2-67.3,40.7c-16.7-5.3-75.7-27-123.9-78.6c-46.8-50.1-60.4-104.4-61.9-111.1c23.4-8,40.6-34.9,40.6-66.8
		c0-31.6-13.2-66.9-17.7-78.4C144.6,19.7,121,0.1,93.4,0.1L93.4,0.1z"/>
	<path class="st0" d="M438.4,34.4L329,184l-36.5-47.1c-7.4-12.7-23.7-17.2-36.3-10.2c-12.6,7-16.8,23-9.4,35.7l57,80.1
		c7.4,12.7,23.7,17.2,36.3,10.2c2.3-1.3,4-3.2,5.8-5L479.2,64.2c8.1-11.1,5.8-26.6-5.2-35l0,0C462.8,20.7,446.8,23,438.4,34.4z"/>
</g>
</svg>
