<?xml version="1.0" encoding="utf-8"?>
<!-- Generator: Adobe Illustrator 22.0.1, SVG Export Plug-In . SVG Version: 6.00 Build 0)  -->
<svg version="1.1" id="Layer_3" xmlns="http://www.w3.org/2000/svg" xmlns:xlink="http://www.w3.org/1999/xlink" x="0px" y="0px"
	 viewBox="0 0 512 512" style="enable-background:new 0 0 512 512;" xml:space="preserve">
<style type="text/css">
	.st0{fill:#000100;}
</style>
<g>
	<path d="M381.5,4C310.5,4,253,61.5,253,132.5S310.5,261,381.5,261S510,203.5,510,132.5S452.5,4,381.5,4z M382,24.1
		c8.6,0,15.6,7,15.6,15.6s-7,15.6-15.6,15.6s-15.6-7-15.6-15.6S373.4,24.1,382,24.1z M289.1,148.1c-8.6,0-15.6-7-15.6-15.6
		s7-15.6,15.6-15.6s15.6,7,15.6,15.6S297.7,148.1,289.1,148.1z M382,240.9c-8.6,0-15.6-7-15.6-15.6s7-15.6,15.6-15.6
		s15.6,7,15.6,15.6S390.6,240.9,382,240.9z M426,152.3h-56l0.2-76.2h22.4v53.4H426V152.3z M474.9,148.1c-8.6,0-15.6-7-15.6-15.6
		s7-15.6,15.6-15.6s15.6,7,15.6,15.6S483.5,148.1,474.9,148.1z"/>
	<path d="M372.7,37.4c0.1,0.1,0.3,0.1,0.4,0.1s0.2,0,0.3-0.1c0.1,0,0.2-0.1,0.3-0.2l1.5-1.3c0,0.4,0,0.7,0,1v6.8h-2.6v2.1h7.6v-2.1
		H378V32.4h-2.4l-4.2,3.5l0.9,1.2C372.5,37.2,372.6,37.3,372.7,37.4z"/>
	<path d="M391,44.2c0-0.3-0.1-0.5-0.3-0.7c-0.2-0.2-0.4-0.3-0.7-0.3h-2.5c-0.3,0-0.6,0-0.9,0.1s-0.7,0.1-1,0.2l2.6-2.7
		c0.4-0.4,0.7-0.7,1-1.1c0.3-0.4,0.6-0.7,0.8-1.1c0.2-0.4,0.4-0.8,0.6-1.2c0.1-0.4,0.2-0.9,0.2-1.4c0-0.6-0.1-1.1-0.3-1.6
		c-0.2-0.5-0.5-0.9-0.9-1.2s-0.8-0.6-1.4-0.8c-0.5-0.2-1.1-0.3-1.8-0.3c-0.6,0-1.2,0.1-1.7,0.2c-0.5,0.2-1,0.4-1.4,0.7
		s-0.8,0.7-1,1.2c-0.3,0.5-0.5,1.1-0.6,1.7l1.5,0.3c0.1,0,0.1,0,0.2,0s0.1,0,0.2,0c0.3,0,0.5-0.1,0.6-0.2c0.2-0.1,0.3-0.3,0.4-0.6
		c0.1-0.2,0.1-0.3,0.2-0.5c0.1-0.1,0.2-0.3,0.4-0.4c0.1-0.1,0.3-0.2,0.5-0.2c0.2-0.1,0.4-0.1,0.6-0.1c0.5,0,0.9,0.1,1.2,0.4
		c0.3,0.3,0.4,0.7,0.4,1.2c0,0.3,0,0.6-0.1,0.9c-0.1,0.3-0.2,0.6-0.4,0.9c-0.2,0.3-0.4,0.6-0.6,0.9c-0.2,0.3-0.5,0.6-0.9,0.9
		l-3.9,3.9c-0.2,0.2-0.3,0.3-0.4,0.6c-0.1,0.2-0.1,0.4-0.1,0.6v0.9h9.4L391,44.2L391,44.2z"/>
	<path d="M477.3,132.1c0.3-0.1,0.6-0.2,0.9-0.4c0.2-0.2,0.5-0.4,0.6-0.6c0.2-0.2,0.3-0.5,0.4-0.8s0.1-0.7,0.1-1.1
		c0-0.5-0.1-0.9-0.3-1.3c-0.2-0.4-0.5-0.8-0.8-1.1c-0.4-0.3-0.8-0.6-1.3-0.8c-0.5-0.2-1.1-0.3-1.8-0.3c-0.6,0-1.2,0.1-1.7,0.2
		c-0.5,0.2-1,0.4-1.4,0.7c-0.4,0.3-0.8,0.7-1,1.2c-0.3,0.5-0.5,1.1-0.6,1.7l1.5,0.3c0.1,0,0.1,0,0.2,0s0.1,0,0.2,0
		c0.3,0,0.5-0.1,0.6-0.2c0.2-0.1,0.3-0.3,0.4-0.6c0.1-0.2,0.1-0.3,0.2-0.5c0.1-0.1,0.2-0.3,0.4-0.4c0.1-0.1,0.3-0.2,0.5-0.2
		c0.2-0.1,0.4-0.1,0.6-0.1c0.5,0,0.9,0.1,1.2,0.4c0.3,0.3,0.4,0.7,0.4,1.2c0,0.3,0,0.5-0.1,0.7s-0.2,0.4-0.4,0.5
		c-0.2,0.2-0.5,0.3-0.8,0.4c-0.3,0.1-0.8,0.1-1.4,0.1v2c0.7,0,1.2,0,1.5,0.1c0.4,0.1,0.6,0.2,0.8,0.4c0.2,0.2,0.3,0.4,0.3,0.6
		c0,0.2,0.1,0.5,0.1,0.8c0,0.2,0,0.4-0.1,0.7c-0.1,0.2-0.2,0.4-0.4,0.6c-0.2,0.2-0.4,0.3-0.6,0.4c-0.2,0.1-0.5,0.2-0.8,0.2
		c-0.4,0-0.8-0.1-1.1-0.3c-0.3-0.2-0.6-0.6-0.9-1.1c-0.1-0.1-0.2-0.3-0.4-0.3c-0.2-0.1-0.3-0.1-0.5-0.1c-0.1,0-0.2,0-0.3,0
		c-0.1,0-0.2,0.1-0.3,0.1l-1.3,0.5c0.2,0.6,0.5,1.2,0.8,1.6c0.3,0.5,0.6,0.8,1,1.1s0.8,0.5,1.3,0.6s1.1,0.2,1.7,0.2s1.2-0.1,1.8-0.3
		c0.6-0.2,1.1-0.4,1.5-0.8c0.4-0.3,0.8-0.8,1-1.3c0.3-0.5,0.4-1.1,0.4-1.9C479.5,133.6,478.7,132.6,477.3,132.1z"/>
	<path d="M384.9,225.2c-0.4-0.3-0.8-0.6-1.3-0.7c-0.5-0.2-1-0.2-1.4-0.2c-0.3,0-0.5,0-0.8,0.1c-0.2,0-0.5,0.1-0.7,0.2
		c0.1-0.1,0.1-0.1,0.2-0.2c0.1-0.1,0.1-0.1,0.2-0.2l4-4.7h-2.5c-0.3,0-0.6,0.1-0.9,0.2c-0.3,0.1-0.5,0.3-0.6,0.5l-3,4.1
		c-0.5,0.7-0.9,1.4-1.1,2c-0.3,0.7-0.4,1.3-0.4,2s0.1,1.4,0.3,1.9c0.2,0.6,0.5,1.1,0.9,1.5s0.9,0.8,1.5,1s1.3,0.4,2,0.4
		s1.4-0.1,2-0.4c0.6-0.2,1.1-0.6,1.5-1s0.8-0.9,1-1.5s0.3-1.2,0.3-1.8c0-0.7-0.1-1.3-0.3-1.8C385.6,226,385.3,225.6,384.9,225.2z
		 M383.1,229.3c-0.1,0.3-0.3,0.5-0.4,0.7c-0.2,0.2-0.4,0.3-0.7,0.5c-0.3,0.1-0.5,0.2-0.8,0.2s-0.6-0.1-0.9-0.2
		c-0.3-0.1-0.5-0.2-0.6-0.4c-0.2-0.2-0.3-0.4-0.4-0.7s-0.1-0.6-0.1-0.9c0-0.3,0-0.6,0.1-0.9c0.1-0.3,0.2-0.5,0.4-0.7
		c0.2-0.2,0.4-0.3,0.6-0.4c0.2-0.1,0.5-0.2,0.8-0.2s0.6,0,0.9,0.1s0.5,0.2,0.7,0.4s0.3,0.4,0.4,0.7s0.2,0.6,0.2,0.9
		C383.3,228.8,383.2,229.1,383.1,229.3z"/>
	<path d="M292.1,126.2c-0.4-0.4-0.9-0.7-1.4-0.9c-0.6-0.2-1.2-0.3-1.9-0.3c-0.7,0-1.4,0.1-1.9,0.4c-0.6,0.2-1.1,0.6-1.5,1
		s-0.7,0.9-1,1.4c-0.2,0.5-0.3,1.1-0.3,1.7c0,0.7,0.1,1.2,0.3,1.7c0.2,0.5,0.5,0.9,0.9,1.2s0.7,0.6,1.2,0.7c0.4,0.2,0.9,0.2,1.3,0.2
		s0.7,0,1-0.1s0.6-0.2,0.9-0.3c-0.1,0.1-0.1,0.2-0.2,0.3s-0.2,0.2-0.2,0.3l-4.2,5.1h2.6c0.3,0,0.6-0.1,0.9-0.2
		c0.3-0.1,0.5-0.3,0.6-0.5l2.9-4.1c0.2-0.3,0.4-0.6,0.6-1c0.2-0.3,0.3-0.7,0.5-1c0.1-0.4,0.2-0.7,0.3-1.1c0.1-0.4,0.1-0.8,0.1-1.2
		c0-0.7-0.1-1.3-0.3-1.8C292.8,127.1,292.5,126.6,292.1,126.2z M290.2,130.7c-0.3,0.4-0.8,0.5-1.4,0.5c-1.2,0-1.9-0.7-1.9-2
		c0-0.3,0-0.5,0.1-0.8c0.1-0.2,0.2-0.5,0.4-0.6c0.2-0.2,0.3-0.3,0.6-0.4c0.2-0.1,0.5-0.2,0.8-0.2s0.5,0,0.8,0.1
		c0.2,0.1,0.4,0.2,0.6,0.4c0.2,0.2,0.3,0.4,0.4,0.6c0.1,0.2,0.1,0.5,0.1,0.9C290.6,129.8,290.5,130.3,290.2,130.7z"/>
	<path class="st0" d="M93.2,46.1c6.7,0.2,13.7,7,17.2,16.6l0.3,0.8l0.3,0.7c9.1,22.8,14.5,45.8,14.5,61.4c0,13.9-6.8,22.2-9.4,23.2
		l-22.6,7.7c-9.6,3.3-15.1,13.2-12.9,23l5.2,22.9c2.7,11.9,18.9,74.2,73.4,132.4c56.1,59.9,124.6,84.9,144.2,91.1l25.1,8
		c10.3,3.3,21.2-2.3,24.7-12.4l8.4-24.7c0.2-0.5,1.5-2.6,5.1-4.7c5-3,11.4-4.6,18.4-4.6c18.8,0,44.2,7.4,61.8,14.3l0.9,0.3l0.9,0.3
		c9.9,3.4,16.6,10.2,16.9,17c-0.6,4.3-6.8,16.9-19.4,29.3c-13.2,12.9-24.7,17.1-28.2,17.1c-1.5,0-3.2-0.1-5.5-0.3h-0.5h-0.5h-0.3
		c-6.9-0.5-43.5-3.7-92.7-20.4c-30-10.2-58.6-23.4-85.1-39.3c-32.6-19.5-62.1-43.3-87.7-70.6c-21.2-22.5-39.5-48.6-54.6-77.4
		c-12.2-23.3-22.3-48.6-30-75c-2.6-9-4.7-17.5-6.6-25.3l-7.8-58.3c-0.3-2.1-0.4-3.9-0.4-5.7c0-3.4,4.2-14.7,17.3-28
		C76.2,52.8,88.9,46.7,93.2,46.1 M92.9,0C56.5,0,0,51.2,0,93.3c0,4,4.5,158.9,111.7,273.2c125.7,134.2,290.9,144.6,296.4,145
		c3.2,0.3,6.5,0.5,9.8,0.5c42.4,0,94.1-56,94.1-92.2c-0.1-27.5-19.8-50.9-47.9-60.7c-11.4-4.5-47.1-17.6-79-17.6
		c-32.3,0-59.5,17.2-67.5,40.7c-16.8-5.3-76-27-124.3-78.6c-47-50.1-60.6-104.4-62.1-111.1c23.4-8,40.7-34.9,40.7-66.8
		c0-31.6-13.2-66.9-17.8-78.4C144.3,19.6,120.6,0,92.9,0L92.9,0z"/>
</g>
</svg>
