<?xml version="1.0" encoding="utf-8"?>
<!-- Generator: Adobe Illustrator 21.1.0, SVG Export Plug-In . SVG Version: 6.00 Build 0)  -->
<svg version="1.1" id="Layer_3" xmlns="http://www.w3.org/2000/svg" xmlns:xlink="http://www.w3.org/1999/xlink" x="0px" y="0px"
	 viewBox="0 0 550 512" style="enable-background:new 0 0 550 512;" xml:space="preserve">
<g>
	<polygon points="321.6,388.8 413.7,511.3 229.5,511.3 	"/>
	<g>
		<path d="M156.8,163.6l32.9,90.2l-90.4,32.9l-32.9-90.4L156.8,163.6 M187.9,97L-0.3,165.2l68.6,188.2l188.2-68.6L187.9,97L187.9,97
			z"/>
	</g>
	<polygon points="538.2,208.8 550.3,241.5 49,422.3 37.2,389.7 	"/>
	<path d="M467.6,35v74.7v27.1l-6.6,6.6l-6.6-6.6v-27.1V35H467.6 M502.6,0h-83.2v109.7h-41.6L461,193l83.3-83.3h-41.6V0L502.6,0z"/>
</g>
</svg>
