<?xml version="1.0" encoding="utf-8"?>
<!-- Generator: Adobe Illustrator 21.1.0, SVG Export Plug-In . SVG Version: 6.00 Build 0)  -->
<svg version="1.1" id="Layer_1" focusable="false" xmlns="http://www.w3.org/2000/svg" xmlns:xlink="http://www.w3.org/1999/xlink"
	 x="0px" y="0px" viewBox="0 0 512 512" style="enable-background:new 0 0 512 512;" xml:space="preserve">
<path id="_x35_2" d="M350.2,305.8c-0.5,34.7,2,79.5,16.8,95.5c11.7,12.7,35.8,21.6,53,14.5c11.8-4.8,18.9-17.5,21-38.8
	c1.3-12.6,12.2-29.5,29.2-26.7c14.4,2.4,24.8,17.6,22.9,34.5c-6.6,60.5-40.1,95.1-86.5,95.1c0,0,0,0,0,0c-27,0-56.5-13.1-75.2-33.4
	c-30.6-33.2-40.3-100.3-29.6-205.1c4.2-41.7,17.5-115.4,17.5-115.4H165.4L165,134c-4.1,79-19.4,269.8-74.6,336.6
	c-9.6,11.7-25.8,12.8-36.6,1.3c-11-11.8-11.5-31.6-1.1-44.2c11.7-14.2,23.2-47.1,34.7-93.2c12.1-48.3,26-162.4,25.5-208.4L75.4,126
	c-15.5-0.6-21.3,0.1-25.9,10.4c-8.4,18.5-25.1,18.8-35,13.1c-13.3-7.6-18.4-26.6-11.4-42c20.4-45.1,56.5-43.2,74-43.2
	c98.5,0,416.7,0.1,416.7,0.1c14.5,0,18.3,13.8,18.3,30.9c0,16.7-3.3,30.3-17.4,30.8H373.2C363.9,156.5,350.9,255.4,350.2,305.8z"/>
</svg>
