<?xml version="1.0" encoding="utf-8"?>
<!-- Generator: Adobe Illustrator 21.1.0, SVG Export Plug-In . SVG Version: 6.00 Build 0)  -->
<svg version="1.1" id="Layer_2" xmlns="http://www.w3.org/2000/svg" xmlns:xlink="http://www.w3.org/1999/xlink" x="0px" y="0px"
	 viewBox="0 0 517 512" style="enable-background:new 0 0 517 512;" xml:space="preserve">
<g>
	<path d="M161.2,101.8v191.8v52h52h199.3c-10.3,24.4-25.8,46.5-45.8,64.8c-34.7,32-79.8,49.6-127.1,49.6c-50.1,0-97.2-19.5-132.7-55
		c-35.4-35.4-55-82.6-55-132.7c0-46.5,17.1-91.1,48.3-125.6C117.5,127.6,138.3,112.4,161.2,101.8 M213.2,34.1
		C93.3,47.3,0,148.9,0,272.4C0,404.7,107.3,512,239.7,512c125.2,0,228-96,238.7-218.4H213.2V34.1L213.2,34.1z"/>
	<path d="M302.8,53.8c40.4,5.5,77.8,23.9,107.1,53.2c28.1,28.1,46.2,63.5,52.5,101.9H302.8V53.8 M277.2,0.1
		c-8.9,0-17.8,0.5-26.4,1.4V261h265.2c0.6-7,0.9-14.1,0.9-21.3C516.8,107.3,409.5,0.1,277.2,0.1L277.2,0.1z"/>
</g>
</svg>
