<?xml version="1.0" encoding="utf-8"?>
<!-- Generator: Adobe Illustrator 21.1.0, SVG Export Plug-In . SVG Version: 6.00 Build 0)  -->
<svg version="1.1" id="Layer_1" xmlns="http://www.w3.org/2000/svg" xmlns:xlink="http://www.w3.org/1999/xlink" x="0px" y="0px"
	 viewBox="0 0 517 512" style="enable-background:new 0 0 517 512;" xml:space="preserve">
<g>
	<path d="M314.2,350.7h96.6c-2.8,6.6-6.1,13.2-9.9,19.6c-15.9,27.2-36.9,48.1-64.3,64.1c-7.3,4.2-14.8,7.9-22.4,11.1L314.2,350.7
		 M261.9,298.5V510c36.5-2.3,70.2-12.5,101-30.5c35-20.4,62.7-48,83.1-82.9c17.8-30.5,27.8-63.1,30.1-98.2H261.9L261.9,298.5z"/>
	<path d="M64.5,350.7h99v96.6c-8.1-3.2-16.1-7-23.9-11.6c-27.4-15.9-48.7-36.9-64.7-64.1C70.9,364.7,67.4,357.8,64.5,350.7
		 M-0.4,298.5c2.1,35.7,12.3,68.9,30.4,99.6c20.5,34.9,48.3,62.5,83.5,82.9c31.6,18.2,65.6,28.3,102.3,30.2V298.5H-0.4L-0.4,298.5z"
		/>
	<path d="M161.6,200.3H65c2.8-6.6,6.1-13.2,9.9-19.6c15.9-27.2,36.9-48.1,64.3-64.1c7.3-4.2,14.8-7.9,22.4-11.1L161.6,200.3
		 M213.9,252.6V41c-36.5,2.3-70.2,12.5-101,30.5c-35,20.4-62.7,48-83.1,82.9C12,184.8,1.9,217.5-0.3,252.6H213.9L213.9,252.6z"/>
	<path d="M443.6,182.9H331.7V73.7c9.2,3.6,18.2,8,27,13.1c31,17.9,55,41.7,73.2,72.5C436.3,167.1,440.3,174.9,443.6,182.9
		 M517,241.9c-2.4-40.3-13.9-77.8-34.3-112.6c-23.2-39.4-54.6-70.7-94.4-93.7c-35.7-20.6-74.2-32-115.6-34.1v240.4L517,241.9
		L517,241.9z"/>
</g>
</svg>
