<?xml version="1.0" encoding="utf-8"?>
<!-- Generator: Adobe Illustrator 21.1.0, SVG Export Plug-In . SVG Version: 6.00 Build 0)  -->
<svg version="1.1" id="Layer_5" xmlns="http://www.w3.org/2000/svg" xmlns:xlink="http://www.w3.org/1999/xlink" x="0px" y="0px"
	 viewBox="0 0 550 512" style="enable-background:new 0 0 550 512;" xml:space="preserve">
<g id="_x35_2">
	<polygon points="84.5,76.2 55.1,76.2 50.7,87.1 88.8,87.1 	"/>
	<polygon points="516.2,79.8 488.3,79.8 485,88.4 522,88.4 	"/>
	<rect x="542.7" y="103.5" width="4.9" height="40.7"/>
	<path d="M79.6,134.6l414.2,1.5l-0.1,1.4c-0.3,1.8-0.4,3.5-0.5,5.4l0,0.3c-0.1,1.9-0.1,3.9-0.2,5.8l-0.4,6.7l-86.9,3.1
		c-9.8,0.3-22.1,3.4-33.7,10.7c-9.6-5.9-20.7-9.3-32.2-9.3h-3.2l-3.2,0.5l-62.7,9.7c0,0-21.7,2-28.5,4.4
		c-25.6,8.8-36.5,29.7-36.5,29.7c-9,14.8-11.8,32-8.6,48.2c-10.6,9.5-15.8,21.4-19.7,30.5c-0.1,0.2-0.4,0.9-0.7,1.3
		c-5.4,9.9-7.9,19.1-7.8,29.6c-5.2,6-10.4,14-14.1,24.5l0,0l0,0c-3.3,9.6-4.8,17.8-5.1,24.9c-5.9,6.3-11.9,15.3-15.7,28.1
		c0,0.1-0.1,0.2-0.1,0.3c-1.4,3.6-2.4,7.1-3.1,10.7c-4.8,3.1-9,7.3-12.2,12.1l-66.8-10.8c-1-3.8-2.6-7.5-4.7-10.9
		c1.9-7,3.8-13.6,4.7-16.1c1.3-3.4,5.3-12.8,17.9-36.4l0,0l0,0c2.1-4,5.1-9.2,8.2-14.8c12.6-22.5,28.3-50.4,33.9-73.2
		c5.7-23.2,4.2-45.1,3.7-51.3l0,0c-1.6-15-12-38.6-36.1-53.2v-0.2V134.6 M46,92.4c0,0-3.5,0.1-5.6,1.8c-2.3,2-2.9,4.5-2.9,4.6v18
		l-7-5.3c-0.6-0.5-1.2-0.7-1.9-0.7c-1.3,0-2.6,0.9-3.4,2.4L9.8,139c-1.2,2.2-1.3,5.6,0.5,7.1c0.5,1.1,1.4,1.6,2.4,1.6
		c0.8,0,1.6-0.3,2.3-0.8c7.2-5.8,10.8-7,12.5-7c1.2,0,1.5,0.5,1.5,0.5l8.6,7.1v10.6h-0.1c0,0-9.5,7.7-8.3,15.2
		c1.1,6.7,16.8,4.8,23.7,7.8c17.9,7.9,20.9,23.6,20.9,23.6c0,0.1,2,18.8-2.6,37.5c-5.5,22.4-28.2,59.1-38.4,78.4
		c-5.6,10.4-16.1,30.4-20.2,41.4C9,371.7,1.3,402.3,1.3,402.7c-0.2,0.2-5.9,9.1,7.9,11.7c3,0.6,2.3,0.6,2,0.6c-0.1,0-0.1,0-0.1,0
		l-6.9,16.1c0,0.1-1.2,4,1.2,6.7c1.3,1.4,5.3,1.9,5.3,1.9l128.6,20.9c0.2,0,9.6-0.5,11.7-1.8c1.6-1,3.2-5.6,3.4-7.2
		c0.5-3.5-0.5-12.8-0.6-13.7c0,0,0-0.1,0.1-0.1c0.4,0,2.1,0.1,4.4,0.1c4.4,0,10.6-0.3,12.9-1.7c1.7-1,4.4-4.4,3.8-6.1
		c-5.5-18.9-2.4-20-0.6-26.3c4.7-16.5,15.8-15.7,19.1-22.2c3-6.2-6-8.4,1.2-29.1c6.6-18.9,21.3-17,19.2-24.2
		c-5.6-19.2-1.7-19.1,2.3-28.3c5.7-13.2,8-18.2,19.4-20.4c0.6-0.2,1.2-0.2,1.8-0.2c7.8,0,20.6,7.8,27.3,9.8c3.8,1.2,15.5,2,15.5,2
		l93.7-3.9c7.4-0.3,12.7-7.4,10.8-14.6c-3.9-15.2-8.2-47.7,1.4-60.1c9-11.6,21.2-11.9,21.2-11.9l101.9-3.7c0,0,12.9-0.3,16.1-2.9
		c4-3.2,5.5-8.1,6.2-11.2c1.6-6,2.6-14.5,3.2-24.5h0.2c0.2-4.8,0.4-9.7,0.5-14.5c0,0,0-0.1,0.1-0.1h5.1c0,0,0.1,0,0.1-0.1v-40.5
		c0,0,0-0.1-0.1-0.1H535v0.2v-0.2v-0.1c0,0,0.5-3.7-1.7-6.2c-1.5-1.9-5-2.7-5-2.7L46,92.4L46,92.4z M292.1,266.7
		c0.9,0,1.8-0.2,2.1-0.6c0.8-1.1-1.4-4.4-2.2-5.5c-3.2-5-11.3-17.9-13.1-23.6c-1.7-5.9-1.9-19.1-1.9-25.1l62.7-9.7
		c11,0,22.4,12,22.4,23l-0.5,22.4c0,11-13.2,24.2-24.2,24.2l-61.8,2c-0.4,0-0.7,0-1.1,0c-10.1,0-19.7-4.5-26.2-12.3l-4.7-5.6
		c-7.5-9-7.4-20.9-2.1-29.7c1.7,1.2,5.1,3.7,6.8,4.6c1.7,0.9,7.6,3.3,7.6,3.3s7.4,14.2,11.5,18.2c4.1,4,15.5,11.6,20.9,13.7
		C289.1,266.3,290.8,266.7,292.1,266.7L292.1,266.7z"/>
</g>
</svg>
