<?xml version="1.0" encoding="utf-8"?>
<!-- Generator: Adobe Illustrator 21.1.0, SVG Export Plug-In . SVG Version: 6.00 Build 0)  -->
<svg version="1.1" id="Layer_2" xmlns="http://www.w3.org/2000/svg" xmlns:xlink="http://www.w3.org/1999/xlink" x="0px" y="0px"
	 viewBox="0 0 444.4 512" style="enable-background:new 0 0 444.4 512;" xml:space="preserve">
<g>
	<path d="M2,99.8v177.6c1.6-1.2,3.4-1.6,5.4-1c4.6,1.4,7,6-1,33.3c-1,3.6,0,13.5-4.4,20.2v182l182.4-105.2c-0.8-2.4-1.2-4.8-1.2-7.3
		c0-12.7,10.3-23,23-23c7,0,13.1,3,17.3,7.7L356,307.8C281.1,188.3,151.2,106.8,2,99.8z M37.8,137.3c8.3-6.7,23.6-6.7,25.8-0.8
		c1.6,4.4-3.8,10.3-10.7,15.5c-8.7,6.5-21.5,4.4-24.2,1.6C25.6,150.6,26.4,146.5,37.8,137.3z M75.5,256c5.8-1.6,22.1-12.9,33.8-3.2
		c9.9,8.3-9.7,14.9-25.8,21.2c-12.1,4.8-37.7,11.9-39.9,0.8C42.1,267.9,44.1,264.3,75.5,256z M71.9,408.8c-24.8,0-44.9-20-44.9-44.8
		s20.1-44.8,44.9-44.8s44.9,20,44.9,44.8S96.6,408.8,71.9,408.8z M117,219.9c-16.7,0-30.2-13.5-30.2-30.2s13.5-30.2,30.2-30.2
		c16.7,0,30.2,13.5,30.2,30.2S133.7,219.9,117,219.9z M199.5,227c-8.7,6.5-19.5,5-22.3,2.2c-4.4-4.2-3-9.3,8.3-18.5
		c8.3-6.7,23-6.5,25.8-0.8C213.8,215.3,206.4,221.9,199.5,227z M276.6,313.5c-8.5,6.5-19.3,5.2-21.9,2.6c-4.2-4-2.8-8.9,8.5-18.1
		c8.3-6.7,22.6-6.7,25.2-1.2C290.9,301.8,283.5,308.4,276.6,313.5z"/>
	<path d="M443.3,256l-31.4,17.7C323.3,137.5,173.9,44.5,2,32.9V0C188,5.8,350.1,106.8,443.3,256z"/>
</g>
</svg>
