<?xml version="1.0" encoding="utf-8"?>
<!-- Generator: Adobe Illustrator 21.1.0, SVG Export Plug-In . SVG Version: 6.00 Build 0)  -->
<svg version="1.1" id="Layer_2" xmlns="http://www.w3.org/2000/svg" xmlns:xlink="http://www.w3.org/1999/xlink" x="0px" y="0px"
	 viewBox="0 0 470 512.6" style="enable-background:new 0 0 470 512.6;" xml:space="preserve">
<g>
	<path d="M127.9,342.3v0.2c0,6.4-5.2,11.6-11.6,11.6c-2.2,0-4.2-0.6-6-1.7l-40,23c32.4,53.2,90.8,89.7,156.7,92.6V285.1L127.9,342.3
		z M111,380.3c-4.1,2.8-9.5,2.3-10.2,1.2c-1.5-2.2,0.7-6.2,4.9-9c4.2-2.8,8.9-2.4,10.3-0.2C117.5,374.4,113.5,378.6,111,380.3z
		 M145.1,419.3c-4.1,2.8-9.4,2.2-10.1,1.2c-1.5-2.2,0.7-6.2,4.8-9c4.1-2.8,8.8-2.3,10.3-0.2C151.5,413.4,147.6,417.6,145.1,419.3z
		 M154.4,368.2c-1.7-2-0.4-5,4.9-8.5c3.9-2.6,9.1-2,10.6,0.1c1.5,2.2-1.9,6-5.1,8C160.8,370.3,155.5,369.5,154.4,368.2z
		 M176.8,441.6c-7.3,0-13.3-6-13.3-13.3s5.9-13.3,13.3-13.3c7.3,0,13.3,5.9,13.3,13.3S184.1,441.6,176.8,441.6z M179.8,400.5
		c-4.4-3.7,4.2-6.7,11.3-9.5c5.4-2.2,16.5-5.3,17.7-0.4c0.6,2.4-0.7,4.5-14.6,8.3C191.6,399.5,185,404.8,179.8,400.5z M210.9,452.5
		c-4.2,2.3-8.9,1.9-10,0.6c-1.5-2-0.6-4.9,5-8.3c4.1-2.5,8.4-2.3,9.7-0.1C217,446.8,214.2,450.7,210.9,452.5z M196.9,369.8
		c-11.1,0-20.1-9-20.1-20.1c0-11.1,9-20.1,20.1-20.1c11.1,0,20.1,9,20.1,20.1C217,360.8,208,369.8,196.9,369.8z"/>
	<path d="M230.1,156V90.2c-61.9,2.3-122.1,34.2-157.9,90.2l51.8,30c2.1-2.2,5.1-3.6,8.4-3.6c6.4,0,11.6,5.2,11.6,11.6
		c0,1.1-0.2,2.2-0.5,3.3l86.6,50.1v-89.1c-0.6,0.6-1.4,1-2.4,1.3c-5.5,1.9-3.6-7.1-2.3-14.6C226,165.6,227.7,159.3,230.1,156z
		 M185.1,127.8c7.3,0,13.3,5.9,13.3,13.3c0,7.3-5.9,13.3-13.3,13.3c-7.3,0-13.3-6-13.3-13.3C171.8,133.7,177.7,127.8,185.1,127.8z
		 M199.7,175.8c0,5-3.1,8.6-5.8,8.6c-2.7,0-3.9-5.6-3.9-8.6c0-5,3.5-9,4.8-9C197.5,166.8,199.7,170.8,199.7,175.8z M131.4,169.9
		c-7.3,0-13.3-5.9-13.3-13.3c0-7.3,6-13.3,13.3-13.3c7.3,0,13.3,5.9,13.3,13.3C144.7,164,138.7,169.9,131.4,169.9z M160,142
		c-2.6,0-4.7-3.8-4.7-8.4s2.9-8.8,5.5-8.8s3.9,4.2,3.9,8.8S162.6,142,160,142z M190,233.5c-11.1,0-20-9-20-20c0-11.1,9-20,20-20
		s20,9,20,20C210,224.6,201.1,233.5,190,233.5z M209.8,131.7c-2.7,0-3.9-5.6-3.9-8.6c0-5,3.5-9,4.8-9c2.7,0,4.9,4,4.9,9
		C215.6,128.1,212.5,131.7,209.8,131.7z"/>
	<path d="M308.6,329.5c0,3.3-0.5,7.2-4.4,9.1c-5.1,2.5-4.4-6.5-4.1-14l-40.8-23.2c-2,1.6-4.5,2.5-7.2,2.5c-6.4,0-11.6-5.2-11.6-11.6
		c0-0.5,0-1.1,0.1-1.6l-5.9-3.4v181.1c62.5-2.3,122.6-34.7,158.5-90.8L308.6,329.5z M246.6,316.2c5.8-4.4,14.4,4.4,22.1,8.8
		c6.2,3.5,14.2,11.4,19.4,18.5c8.5,11.5,5.2,14.1-0.6,18.9c-9.8,8-23.6,2.5-30.2-5.8C243.2,338.7,242,319.7,246.6,316.2z
		 M259.7,436.1c-0.2,4.9-3.2,8.9-4.9,9.1c-2.7,0.3-4.9-2.1-4.9-8.8c0-5,2.5-8.6,5.3-8.6C257.9,427.7,259.9,432.1,259.7,436.1z
		 M266,382.8c0.4-3.4,2.5-8.6,5.3-8.6c2.7,0,4.3,5.6,4.1,9.5c-0.2,4.9-2.7,7.7-4.5,7.9C268.2,391.9,265.5,387.3,266,382.8z
		 M280.4,431c-7.3,0-13.3-6-13.3-13.3s5.9-13.3,13.3-13.3c7.3,0,13.3,5.9,13.3,13.3S287.7,431,280.4,431z M309.5,426.3
		c-0.2,4.9-2.7,7.7-4.5,7.9c-2.7,0.3-5.4-4.3-4.9-8.8c0.4-3.4,2.5-8.6,5.3-8.6C308.1,416.7,309.7,422.3,309.5,426.3z M316.6,372
		c-0.7,2.6,0.7,11-5.7,13.3c-5.4,2-3.7-7-2.6-14.5c0.8-5.7,3.7-17,8.5-15.5C319.1,356,320.3,358.2,316.6,372z M333.2,415.5
		c-7.3,0-13.3-5.9-13.3-13.3c0-7.3,5.9-13.3,13.3-13.3c7.3,0,13.3,5.9,13.3,13.3C346.5,409.5,340.6,415.5,333.2,415.5z"/>
	<path d="M248.1,50.3v89.5c0.8-0.6,1.7-0.8,2.7-0.5c2.3,0.7,3.5,3-0.5,16.8c-0.5,1.8,0,6.8-2.2,10.2V258l91.8-53
		c-0.4-1.2-0.6-2.4-0.6-3.7c0-6.4,5.2-11.6,11.6-11.6c3.5,0,6.6,1.5,8.7,3.9l66.7-38.5C388.6,94.9,323.2,53.8,248.1,50.3z
		 M266.1,69.2c4.2-3.4,11.9-3.4,13-0.4c0.8,2.2-1.9,5.2-5.4,7.8c-4.4,3.3-10.8,2.2-12.2,0.8C260,75.9,260.4,73.8,266.1,69.2z
		 M285.1,129c2.9-0.8,11.1-6.5,17-1.6c5,4.2-4.9,7.5-13,10.7c-6.1,2.4-19,6-20.1,0.4C268.3,135,269.3,133.2,285.1,129z M283.3,206
		c-12.5,0-22.6-10.1-22.6-22.6c0-12.5,10.1-22.6,22.6-22.6c12.5,0,22.6,10.1,22.6,22.6C305.9,195.9,295.7,206,283.3,206z M306,110.8
		c-8.4,0-15.2-6.8-15.2-15.2s6.8-15.2,15.2-15.2c8.4,0,15.2,6.8,15.2,15.2S314.4,110.8,306,110.8z M347.5,114.4
		c-4.4,3.3-9.8,2.5-11.2,1.1c-2.2-2.1-1.5-4.7,4.2-9.3c4.2-3.4,11.6-3.3,13-0.4C354.7,108.5,351,111.8,347.5,114.4z M386.3,158
		c-4.3,3.3-9.7,2.6-11,1.3c-2.1-2-1.4-4.5,4.3-9.1c4.2-3.4,11.4-3.4,12.7-0.6C393.5,152.1,389.8,155.4,386.3,158z"/>
	<path d="M398.4,189.7l-48.7,28.2c0.7,1.5,1.2,3.2,1.2,5c0,6.4-5.2,11.6-11.6,11.6c-4,0-7.5-2-9.5-5l-89.3,51.7l4.1,2.4
		c2-1.7,4.6-2.7,7.4-2.7c6.4,0,11.6,5.2,11.6,11.6c0,0.7-0.1,1.4-0.2,2l37.6,21.8c1-4.6,2.8-8.6,5.8-8.1c2.2,0.4,3.5,2.1,2.2,12.7
		l88.2,51.1C426.7,317,429.1,248.7,398.4,189.7z M383.3,212.7c0.7-2.5,3-3.1,8.8-0.6c4.3,1.8,7.2,7.6,5.5,9.8c-1.6,2.1-5.6,0.6-9-1
		C384.4,218.9,382.8,214.4,383.3,212.7z M373.4,233.3c1.7-1.7,9.7-2.6,27.3,13.7c1.9,1.8,2,4.9,1,11.7c-0.8,5.7-14.5,11.2-19.6,5.6
		C371.1,252.2,369.9,236.9,373.4,233.3z M309.6,295.1c-14.2-2.8-17.2-13.6-17.2-21c0-12.5,10-18.6,18-17.6
		c17.4,2.2,36.8,14,36.8,21.9c0,7.2-12.5,9.1-18.8,11.7C323.4,292,316.3,296.4,309.6,295.1z M349.4,301.3c-0.8,2.6-2.8,4.5-8.9,1.8
		c-4.6-1.9-8-6.6-6.9-9c1.1-2.5,5.7-2,9.3-0.4C347.3,295.9,349.9,299.6,349.4,301.3z M363.3,264.3c-1,5.7-7.9-0.3-13.9-5
		c-4.5-3.6-12.9-11.7-9.2-15.2c1.8-1.7,4.3-1.6,14.4,8.6C356.5,254.6,364.5,257.6,363.3,264.3z M386.9,343.3c-1,2.5-4.7,2.4-8.8,0.3
		c-4.5-2.2-7.5-7.5-6.2-9.9c1.3-2.4,6.2-1.3,9.5,0.8C385.7,337.1,387.6,341.7,386.9,343.3z M376.7,320.3c-7.3,0-13.3-6-13.3-13.3
		c0-7.3,5.9-13.3,13.3-13.3c7.3,0,13.3,5.9,13.3,13.3C390,314.3,384,320.3,376.7,320.3z M391.8,293.2c-3.9-3-4.7-7.1-3.9-8.1
		c1.6-2.1,6.9-1.3,10.9,1.7c3.9,3,5.5,6.3,3.8,8.5C400.9,297.4,394.2,295,391.8,293.2z"/>
	<path d="M139.3,227.7c-1.9,1.4-4.3,2.3-6.9,2.3c-6.4,0-11.6-5.2-11.6-11.6c0-0.4,0-0.8,0.1-1.3l-52.8-30.4
		c-30,55-32.3,123.2-1.7,181.6l38.9-22.5c-0.3-1.1-0.5-2.3-0.5-3.5c0-6.4,5.2-11.6,11.6-11.6c3.4,0,6.4,1.4,8.5,3.8l100-57.8
		L139.3,227.7z M78.3,216.1c0.7-2.5,3-3.1,8.8-0.6c4.3,1.8,7.2,7.5,5.5,9.8c-1.6,2.1-5.6,0.6-9-1C79.4,222.3,77.8,217.8,78.3,216.1z
		 M81.3,347.6c-1,2.4-5.1,1.2-8.5-0.4c-4.3-2-6.9-7.4-6.4-9.1c0.7-2.5,3.4-2.3,9.3,0.2C79.9,340.2,82.3,345.2,81.3,347.6z
		 M75.6,318.2c-7.3,0-13.3-5.9-13.3-13.3c0-7.3,5.9-13.3,13.3-13.3c7.3,0,13.3,6,13.3,13.3C88.9,312.2,82.9,318.2,75.6,318.2z
		 M88.9,264.8c-7.3,0-13.3-5.9-13.3-13.3c0-7.3,5.9-13.3,13.3-13.3c7.3,0,13.3,6,13.3,13.3C102.1,258.9,96.2,264.8,88.9,264.8z
		 M124.8,313.9c-1.8,1.7-6.2,0.2-14.5-8.4c-1.9-1.9-10.4-5.2-9.3-11.9c0.9-5.7,8.5,0.6,14.5,5.3C120,302.3,128.4,310.3,124.8,313.9z
		 M153.3,303.8c-11.1,0-20.1-9-20.1-20.1s9-20.1,20.1-20.1s20.1,9,20.1,20.1S164.4,303.8,153.3,303.8z"/>
	<path d="M14.7,278.7c0,38.1,9.9,73.9,27.2,105l-13.6,7.9c-39.4-73.5-35.9-157.9,0.5-226.8l13.5,8C24.7,204.2,14.7,240.3,14.7,278.7
		z"/>
	<path d="M431.4,400.8c-43.4,70-118,109.9-195.5,112.2v-18.2c76-1.7,142.3-42.7,179.5-103.4L431.4,400.8z"/>
	<path d="M227.2,494.8v17.6C144.5,510.1,72.8,465,31.1,398.5l14.5-8.2C83,452,150.2,493.6,227.2,494.8z"/>
	<path d="M229.5,45.7v16.8c-77.4,0.5-145.2,41.7-183,103.2l-13.1-7.8C77.4,87.9,152,48,229.5,45.7z"/>
	<path d="M436,393.9l-16.4-9.6c17.5-31.2,27.5-67.2,27.5-105.6c0-37-9.3-71.8-25.6-102.2l15.7-9.4C475.9,240.6,473,325.6,436,393.9z
		"/>
	<path d="M470.2,129l-15.8,8.9C409.8,69.3,334.6,22.4,248.1,16.6V0C341.7,2.9,423.3,53.8,470.2,129z"/>
</g>
</svg>
