<?xml version="1.0" encoding="utf-8"?>
<!-- Generator: Adobe Illustrator 21.1.0, SVG Export Plug-In . SVG Version: 6.00 Build 0)  -->
<svg version="1.1" id="Layer_3" xmlns="http://www.w3.org/2000/svg" xmlns:xlink="http://www.w3.org/1999/xlink" x="0px" y="0px"
	 viewBox="0 0 572 512" style="enable-background:new 0 0 572 512;" xml:space="preserve">
<g id="_x35_2">
	<path d="M568.6,450.3c-4.2-7-19.4-63.3-85.6-79.2c-66.3-16-247.7-58.4-259.1-61.1c-11.4-2.7-41.8-17.3-55-53.9l-50.4-123.4
		c0,0-3.3-12.8-13.4-15.2c-6.7-1.6-37.4-9-37.4-9l7.6,180.2c0,0-39.3-2.9-44.1,0.1c0.2-0.2-3.2-1-7.8-2.2
		c-9.2-2.2-23.3-5.3-23.3-5.3l26.5,19l-3,12.3c-0.4,1.7,0.1,3.4,1.3,4.1L166,400.4c0,0,50.4,21,85.3,30.6c8.2,2.3,16.3,4.4,24.1,6.5
		l78.5,38.9c2.3,1.4,5.1,0.2,5.7-2.5l3.1-14.5l-1.7-0.9c95.6,21.6,146,26.1,146,26.1s58.7,6.9,64.2-15.8
		C572.4,462.9,572.8,457.3,568.6,450.3z M31.3,303.2c-1.5,5.1-3.2,9-3.8,8.9c-0.6-0.2,0.2-4.4,1.8-9.5c1.5-5.1,3.2-9,3.8-8.9
		C33.6,293.9,32.8,298.1,31.3,303.2z M341.5,405.7c-25.2-6.1-51.4-12.8-77.9-20.1c-27-7.5-65.7-23-76.7-27.5l-63.2-37.5l-1.4-33.8
		l-0.9-22.2l3.5,8.6c19.7,53.3,64.5,77.1,88,82.7c3.5,0.8,20.8,4.9,47,11c61.9,14.5,165.4,38.8,212.1,50.1
		c14.6,3.5,26.2,10.2,35.3,20.4C492.5,435.6,435.5,428.3,341.5,405.7z"/>
</g>
<g id="_x35_2_1_">
	<path d="M224.5,16l-14.9-0.1c-43.8,2.2-82.4,24.7-106.6,58.2c8.3,2.5,17.8,5.3,21.1,6.3c3.4,1,6.6,4.4,9.4,8.4
		C150,68.3,174,54,201.2,50c-0.2-0.9-0.3-1.8-0.3-2.7c0-8.9,7.2-16.1,16.1-16.1c8.9,0,16.1,7.2,16.1,16.1c0,0.9-0.1,1.9-0.3,2.7
		c46.4,7,83.1,43.5,90.1,89.8c0.8-0.1,1.6-0.2,2.4-0.2c8.9,0,16.1,7.2,16.1,16.1c0.1,8.9-7.2,16.1-16.1,16.1c-0.8,0-1.5-0.1-2.3-0.2
		c-6.8,46.7-43.6,83.7-90.1,90.7c-1.7,0.3-5.8,0.9-6.6,0.9c0.5,2.9,8.8,18.3,41.7,23.8c52.3-20.5,89.3-71.4,89.3-130.9
		C357.6,81.2,298.6,19.8,224.5,16z"/>
	<polygon points="229.4,95.4 204.6,95.4 204.5,179 266,179 266,153.6 229.4,153.6 	"/>
	<path d="M209.2,45.7c0.1,0.1,0.2,0.1,0.4,0.1c0.1,0,0.2,0,0.2-0.1c0.1-0.1,0.2-0.1,0.2-0.2l1.3-1.1c0,0.3,0,0.6,0,0.9v6h-1.9v1.9
		h6.8v-1.9h-2.5v-9.9h-2.1l-3.6,3l0.7,1.1C209,45.6,209.2,45.6,209.2,45.7z"/>
	<path d="M225.1,51.9c0.3-0.2,0.2-0.4,0.1-0.6c-0.2-0.2-0.6-0.7-0.6-0.7H222c-0.3,0-0.6,0-0.9,0.1c-0.2,0.1-0.4,0.1-0.6,0.2l2.1-2.2
		c0.3-0.3,0.6-0.6,0.8-0.9c0.2-0.3,0.5-0.6,0.7-0.9c0.1-0.2,0.2-0.4,0.4-0.7c0.1-0.4,0.2-0.9,0.2-1.3c0-0.5-0.1-0.9-0.2-1.3
		c-0.2-0.4-0.4-0.7-0.7-1c-0.3-0.2-0.7-0.5-1.1-0.7c-0.4-0.2-0.9-0.2-1.5-0.2s-1,0.1-1.4,0.2c-0.4,0.2-0.8,0.3-1.2,0.6
		c-0.3,0.2-0.6,0.6-0.8,1s-0.4,0.9-0.5,1.4l1.2,0.2c0.1,0,0.1,0,0.2,0c0.1,0,0.1,0,0.2,0c0.2,0,0.4-0.1,0.5-0.2
		c0.1-0.1,0.2-0.2,0.3-0.5c0.1-0.2,0.1-0.2,0.2-0.4c0.1-0.1,0.2-0.2,0.3-0.3s0.2-0.2,0.4-0.2c0.2-0.1,0.3-0.1,0.5-0.1
		c0.4,0,0.7,0.1,0.9,0.4c0.2,0.2,0.3,0.6,0.3,1c0,0.2-0.1,0.5-0.1,0.7c-0.1,0.2-0.2,0.5-0.3,0.7c-0.2,0.2-0.3,0.5-0.5,0.7
		s-0.4,0.5-0.7,0.8l-3.2,3.2c-0.2,0.2-0.2,0.2-0.3,0.5c-0.1,0.2-0.1,0.3-0.1,0.5V53h8.1L225.1,51.9L225.1,51.9z"/>
	<path d="M330.1,156.7c0.2-0.1,0.5-0.2,0.7-0.3c0.2-0.2,0.4-0.3,0.5-0.5c0.2-0.2,0.2-0.4,0.3-0.7s0.1-0.6,0.1-0.9
		c0-0.4-0.1-0.7-0.2-1.1c-0.1-0.4-0.4-0.6-0.7-0.9s-0.6-0.5-1.1-0.6c-0.4-0.2-0.9-0.2-1.5-0.2c-0.5,0-1,0.1-1.4,0.2
		c-0.4,0.2-0.8,0.3-1.2,0.6c-0.3,0.2-0.6,0.6-0.8,1c-0.2,0.4-0.4,0.9-0.5,1.4l1.2,0.2c0.1,0,0.1,0,0.2,0s0.1,0,0.2,0
		c0.2,0,0.4-0.1,0.5-0.2c0.1-0.1,0.2-0.2,0.3-0.5c0.1-0.2,0.1-0.2,0.2-0.4c0.1-0.1,0.2-0.2,0.3-0.3c0.1-0.1,0.2-0.2,0.4-0.2
		c0.2-0.1,0.3-0.1,0.5-0.1c0.4,0,0.7,0.1,0.9,0.4c0.2,0.2,0.3,0.6,0.3,1c0,0.2,0,0.4-0.1,0.6c-0.1,0.2-0.2,0.3-0.3,0.5
		c-0.2,0.1-0.4,0.2-0.6,0.3s-0.6,0.1-1.1,0.1v1.6c0.5,0,0.9,0.1,1.2,0.1c0.3,0.1,0.5,0.2,0.7,0.3c0.2,0.2,0.2,0.3,0.2,0.5
		c0.1,0.2,0.1,0.4,0.1,0.6s-0.1,0.4-0.1,0.5c-0.1,0.2-0.2,0.3-0.3,0.5c-0.1,0.2-0.3,0.2-0.5,0.3s-0.4,0.2-0.7,0.2
		c-0.4,0-0.6-0.1-0.9-0.2c-0.2-0.2-0.5-0.5-0.7-0.9c-0.1-0.1-0.2-0.2-0.3-0.2c-0.1-0.1-0.2-0.1-0.4-0.1c-0.1,0-0.2,0-0.2,0
		c-0.1,0-0.2,0.1-0.2,0.1l-1.1,0.4c0.2,0.5,0.4,0.9,0.6,1.3s0.5,0.7,0.8,0.9s0.7,0.4,1.1,0.5s0.9,0.2,1.4,0.2c0.6,0,1-0.1,1.5-0.2
		c0.5-0.2,0.9-0.4,1.2-0.6c0.4-0.2,0.6-0.6,0.8-1.1c0.2-0.4,0.3-0.9,0.3-1.5C331.8,157.9,331.3,157,330.1,156.7z"/>
</g>
</svg>
