<?xml version="1.0" encoding="utf-8"?>
<!-- Generator: Adobe Illustrator 21.1.0, SVG Export Plug-In . SVG Version: 6.00 Build 0)  -->
<svg version="1.1" id="Layer_1" xmlns="http://www.w3.org/2000/svg" xmlns:xlink="http://www.w3.org/1999/xlink" x="0px" y="0px"
	 viewBox="0 0 512 512" style="enable-background:new 0 0 512 512;" xml:space="preserve">
<g id="_x35_2">
	<path d="M256,0C114.6,0,0,114.6,0,256s114.6,256,256,256s256-114.6,256-256S397.4,0,256,0z M256,460c-112.7,0-204-91.3-204-204
		S143.3,52,256,52s204,91.3,204,204S368.7,460,256,460z"/>
	<path d="M342.3,269.6c5.1-2.7,7.7-6.9,7.7-12.8c0-5.8-2.6-10.2-7.7-13.2l-128-75.3c-4.9-2.9-9.8-3-15-0.4
		c-5.1,2.9-7.7,7.3-7.7,13.2v151.2c0,5.6,2.6,10,7.7,13.2c2.4,1.2,4.9,1.8,7.3,1.8c2.7,0,5.2-0.7,7.7-2.2L342.3,269.6z"/>
</g>
</svg>
