<?xml version="1.0" encoding="utf-8"?>
<!-- Generator: Adobe Illustrator 21.1.0, SVG Export Plug-In . SVG Version: 6.00 Build 0)  -->
<svg version="1.1" id="Layer_2" xmlns="http://www.w3.org/2000/svg" xmlns:xlink="http://www.w3.org/1999/xlink" x="0px" y="0px"
	 viewBox="0 0 467 512" style="enable-background:new 0 0 467 512;" xml:space="preserve">
<g id="_x35_2">
	<g>
		<path d="M444.8,80.6h-6.5V14.1c0-3.7-1.3-6.8-4-9.5c-2.3-2.7-5.3-4-9-4s-6.8,1.3-9.5,4s-4,5.8-4,9.5v66.5h-75.7V14.1
			c0-3.7-1.3-6.8-4-9.5s-5.8-4-9.5-4s-6.8,1.3-9.5,4c-2.3,2.7-3.5,5.8-3.5,9.5v66.5h-6.5c-12.6,0-22.4,9.8-22.4,22.5v72.5
			c0,42,27.6,77.9,66.3,89.4v132.5c0,32.4-25.8,61-61,61s-61-28.3-61-61v-21c0-62.7-50.3-113-113-113c-74.5,0-112,70.1-112,100h52
			c0-10,18-48,60-48c34.8,0,61,28.7,61,61v22c0,53.8,46.3,112,113,112s113-57.3,113-112V265.4c56.1-15.5,68-64.5,68-89.8
			c0-18.1,0-72.5,0-72.5C467.2,90.5,457.4,80.6,444.8,80.6z M311.8,14.1c0-3,1-5.5,3-7.5c2.3-2.3,5-3.5,8-3.5s5.6,1.2,8,3.5
			c2,2,3,4.5,3,7.5v15.5h-22V14.1z M415.4,175.8c0,11.5-5.6,34.2-32.3,40.4h-18.4c-18.6-4.2-32.1-20.8-32.1-40.4V133h82.8
			C415.4,133,415.4,167.8,415.4,175.8z M436.4,29.6h-22.5V14.1c0-3,1.1-5.5,3.5-7.5c2-2.3,4.6-3.5,8-3.5c3,0,5.7,1.2,8,3.5
			c2,2,3,4.5,3,7.5V29.6z"/>
	</g>
</g>
</svg>
