<?xml version="1.0" encoding="utf-8"?>
<!-- Generator: Adobe Illustrator 22.0.1, SVG Export Plug-In . SVG Version: 6.00 Build 0)  -->
<svg version="1.1" id="Layer_1" xmlns="http://www.w3.org/2000/svg" xmlns:xlink="http://www.w3.org/1999/xlink" x="0px" y="0px"
	 viewBox="0 0 394.4 512" style="enable-background:new 0 0 394.4 512;" xml:space="preserve">
<style type="text/css">
	.st0{fill:#010101;}
</style>
<g>
	<path class="st0" d="M282.4,63.5l42-42c-1.6-4.3-4-8.4-7.4-11.8c-12.8-12.8-33.7-12.8-46.5,0c-12.8,12.8-12.8,33.6,0,46.5
		C274.1,59.5,278.2,61.9,282.4,63.5z"/>
	<path d="M342.7,106.8l37.9,28l13.8-13.8l-66.6-90.3l-37.5,37.5l35.4,26.1v64.1h-257V94.3l35.4-26.1L66.6,30.7L0,121l13.8,13.8
		l37.9-28v51.6H9.3l16.2,84.7h42.3v268.6h258.7V243.1h42.3l16.2-84.7h-42.2V106.8z M274.4,459.7H119.8V243.1l154.7,0V459.7z"/>
	<path class="st0" d="M112.2,63.5l-42-42c1.6-4.3,4-8.4,7.4-11.8c12.8-12.8,33.7-12.8,46.5,0c12.8,12.8,12.8,33.6,0,46.5
		C120.6,59.5,116.5,61.9,112.2,63.5z"/>
</g>
</svg>
