<?xml version="1.0" encoding="utf-8"?>
<!-- Generator: Adobe Illustrator 21.1.0, SVG Export Plug-In . SVG Version: 6.00 Build 0)  -->
<svg version="1.1" id="Layer_2" xmlns="http://www.w3.org/2000/svg" xmlns:xlink="http://www.w3.org/1999/xlink" x="0px" y="0px"
	 viewBox="0 0 512 512" style="enable-background:new 0 0 512 512;" xml:space="preserve">
<g>
	<path d="M462,0H50C22.4,0,0,22.4,0,50v412c0,27.6,22.4,50,50,50h412c27.6,0,50-22.4,50-50V50C512,22.4,489.6,0,462,0z M460,448
		c0,9.9-2,12-12,12c-2.4,0-382.6,0-384,0c-10,0-12-2.1-12-12c0-0.6,0-380,0-384c0-10,2-12,12-12c6,0,377.4,0,384,0c10,0,12,2,12,12
		C460,65.3,460,446,460,448z"/>
	<path d="M304,136c14.4,0,26,11.6,26,26s-11.6,26-26,26s-26-11.6-26-26S289.6,136,304,136z M97,136h151v52H97V136z M184,380H97v-52
		h87V380z M240,380c-14.4,0-26-11.6-26-26s11.6-26,26-26s26,11.6,26,26S254.4,380,240,380z M344,284H97v-52h247V284z M400,284
		c-14.4,0-26-11.6-26-26s11.6-26,26-26s26,11.6,26,26S414.4,284,400,284z"/>
</g>
</svg>
