<?xml version="1.0" encoding="utf-8"?>
<!-- Generator: Adobe Illustrator 21.1.0, SVG Export Plug-In . SVG Version: 6.00 Build 0)  -->
<svg version="1.1" id="Layer_1" xmlns="http://www.w3.org/2000/svg" xmlns:xlink="http://www.w3.org/1999/xlink" x="0px" y="0px"
	 viewBox="0 0 436 512" style="enable-background:new 0 0 436 512;" xml:space="preserve">
<g id="_x35_2">
	<path d="M53.8,53.3h134.5c44.5,0,80.7,35.9,80.7,80s-36.2,80-80.7,80H53.8V53.3z M436,272.1l-38-37.7l-102,101.1l-74.3-73.6
		c58-14.8,101.2-66.6,101.2-128.6C322.8,59.8,262.5,0,188.3,0H53.8H0v53.3v159.9v53.3v186.6h53.8V266.6h96.5l107.6,106.6l-64,63.4
		c-21,20.8-21,54.6,0,75.4l0,0l102-101.1l102,101.1l0,0c21-20.8,21-54.6,0-75.4l-64-63.4L436,272.1z"/>
</g>
</svg>
