<?xml version="1.0" encoding="utf-8"?>
<!-- Generator: Adobe Illustrator 22.0.1, SVG Export Plug-In . SVG Version: 6.00 Build 0)  -->
<svg version="1.1" id="Layer_1" xmlns="http://www.w3.org/2000/svg" xmlns:xlink="http://www.w3.org/1999/xlink" x="0px" y="0px"
	 viewBox="0 0 512 512" style="enable-background:new 0 0 512 512;" xml:space="preserve">
<g>
	<polygon points="326.3,4.6 326.3,80.9 402.5,80.9 	"/>
	<path d="M180.8,420.3v21.4h148.5v-21.4H180.8z M180.8,382.1v21h148.5v-21H180.8z M180.8,441.7h148.5v-21.4H180.8V441.7z
		 M180.8,382.1v21h148.5v-21H180.8z M73.3,218.8v31.9h42.8v-31.9H73.3z M73.3,218.8v31.9h42.8v-31.9H73.3z M180.8,441.7h148.5v-21.4
		H180.8V441.7z M180.8,382.1v21h148.5v-21H180.8z M73.3,250.7h42.8v-31.9H73.3V250.7z"/>
	<path d="M512,163.4c0-9.9-8-17.9-17.9-17.9l-85.7,0V94.6h-97.1V0H102v145.4l-84.1,0c-9.9,0-17.9,8-17.9,17.9v264.5
		c0,9.9,8,17.9,17.9,17.9h89.6V512h296.4v-66.2h90.3c9.9,0,17.9-8,17.9-17.9L512,163.4z M151,49h111.4v94.6h97.1v1.9l-208.4,0V49z
		 M351.5,460.6H158.9v-98.9h192.6V460.6z M460,393.2h-56.1v-82.8H107.5v82.8H52V197.1h408V393.2z"/>
</g>
</svg>
