<?xml version="1.0" encoding="utf-8"?>
<!-- Generator: Adobe Illustrator 21.1.0, SVG Export Plug-In . SVG Version: 6.00 Build 0)  -->
<svg version="1.1" id="Layer_2" xmlns="http://www.w3.org/2000/svg" xmlns:xlink="http://www.w3.org/1999/xlink" x="0px" y="0px"
	 viewBox="0 0 232 512" style="enable-background:new 0 0 232 512;" xml:space="preserve">
<style type="text/css">
	.st0{fill:#010101;}
</style>
<path id="_x35_2" class="st0" d="M169.5,169.5l2.1,0.1c3.9,0.1,6.7,1.1,8.5,1.9v286.7c-1.9,0.9-5,1.9-9.2,1.9H61.2
	c-4.2,0-7.3-1-9.2-1.9V171.4c1.8-0.8,4.6-1.7,8.3-1.8l2.1-0.1h12.4h52h23.5H169.5 M213.2,0h-39.3c-2.2,4.4-5.2,7.1-14,7.1H73.1
	c-8.6,0-11.8-2.7-14-7.1H19.9C25,19.5,46.9,34.2,73.2,34.2h22.1l-36.7,83.4C26,118.7,0,139.8,0,165.7v298.1
	C0,490.4,27.4,512,61.2,512h109.5c33.8,0,61.2-21.6,61.2-48.2V165.7c-0.1-25.9-26.2-47-58.7-48.1l-36.7-83.4H160
	C186.1,34.2,208.1,19.5,213.2,0L213.2,0z M126.8,117.5V64.2l23.5,53.3H126.8L126.8,117.5z M81.7,117.5l23.5-53.3v53.3h-0.1H81.7
	L81.7,117.5z"/>
</svg>
