<?xml version="1.0" encoding="utf-8"?>
<!-- Generator: Adobe Illustrator 21.1.0, SVG Export Plug-In . SVG Version: 6.00 Build 0)  -->
<svg version="1.1" id="Layer_3" xmlns="http://www.w3.org/2000/svg" xmlns:xlink="http://www.w3.org/1999/xlink" x="0px" y="0px"
	 viewBox="0 0 512 512" style="enable-background:new 0 0 512 512;" xml:space="preserve">
<g>
	<path d="M512,311.7c0-3-2.4-4.8-4.8-4.8c-1.5,0-2.9,0.6-3.9,2.1c-2.1,3-4.6,5.8-7.3,8.4c-9.7,9.1-22.7,14.7-37,14.7
		c-0.3,0-0.6,0-0.9,0c-29.7-0.5-54-26-53.1-55.7c0.9-29,24.7-52.3,54-52.3c14.3,0,27.3,5.6,37,14.7c2.7,2.5,5.1,5.3,7.2,8.4
		c1,1.4,2.5,2.1,4,2.1c2.4,0,4.8-1.8,4.8-4.8V107h-71.6c11.9-11.7,19.1-28.2,18.6-46.3C458,27.4,430.7,0.5,397.4,0
		c-0.3,0-0.6,0-0.9,0C362,0,334,28,334,62.5c0,17.4,7.1,33.2,18.6,44.5H106v157.6C94.8,253.7,79.4,247,62.5,247c-0.8,0-1.7,0-2.5,0
		c-33,1.3-59.5,28.5-60,61.5c-0.5,35,27.7,63.5,62.5,63.5c16.9,0,32.3-6.7,43.5-17.6V512l138.2,0c4.7,0,6.7-6.1,2.8-8.8
		c-3-2.1-5.8-4.5-8.4-7.2c-9.3-9.9-14.9-23.2-14.7-37.9c0.5-29.2,25.1-53.1,54.1-53.1c0.5,0,1.1,0,1.6,0c29,0.9,52.3,24.7,52.3,54
		c0,14.3-5.6,27.3-14.7,37c-2.5,2.7-5.3,5.1-8.4,7.2c-3.8,2.7-1.8,8.8,2.9,8.8l200.2,0L512,311.7z M62.5,320
		c-5.8,0-10.5-4.7-10.5-10.5S56.7,299,62.5,299S73,303.7,73,309.5S68.3,320,62.5,320z M396.5,52c5.8,0,10.5,4.7,10.5,10.5
		S402.3,73,396.5,73S386,68.3,386,62.5S390.7,52,396.5,52z M384,460v-1c0-57.6-45.1-104.2-102.7-106c-1.1,0-2.2,0-3.2,0
		c-57.6,0-105.1,46.8-106.1,104.3c0,0.9,0,1.8,0,2.7h-14V159h302v13h-1c-57.7,0-104.2,45.1-106,102.7c-0.9,28.4,9.6,55.5,29.5,76.3
		c19.8,20.8,46.4,32.5,74.8,32.9c0.6,0,1.1,0,1.7,0h1l0,76L384,460z"/>
</g>
</svg>
