<?xml version="1.0" encoding="utf-8"?>
<!-- Generator: Adobe Illustrator 21.1.0, SVG Export Plug-In . SVG Version: 6.00 Build 0)  -->
<svg version="1.1" id="Layer_1" xmlns="http://www.w3.org/2000/svg" xmlns:xlink="http://www.w3.org/1999/xlink" x="0px" y="0px"
	 viewBox="0 0 512 512" style="enable-background:new 0 0 512 512;" xml:space="preserve">
<path d="M232.7,0v232.7H0V0H232.7z M232.7,279.3V512H0V279.3H232.7z M52.5,180.2h127.6V52.5H52.5V180.2z M52.5,459h127.6V331.8H52.5
	V459z M109.3,402.7v46.5H62.8v-46.5H109.3z M170,62.8v46.5h-46.5V62.8H170z M512,0v232.7H279.3V0H512z M512,279.3v139.6H372.4v-46.5
	h-46.5V512h-46.5V279.3H419v46.5h46.5v-46.5H512z M331.8,180.2h127.6V52.5H331.8V180.2z M418.9,465.5V512h-46.5v-46.5H418.9z
	 M439.2,72.8v46.5h-46.5V72.8H439.2z M464.6,418.1v46.5h-46.5v-46.5H464.6z M512,465.5V512h-46.5v-46.5H512z"/>
</svg>
