<?xml version="1.0" encoding="utf-8"?>
<!-- Generator: Adobe Illustrator 22.0.1, SVG Export Plug-In . SVG Version: 6.00 Build 0)  -->
<svg version="1.1" id="Layer_1" xmlns="http://www.w3.org/2000/svg" xmlns:xlink="http://www.w3.org/1999/xlink" x="0px" y="0px"
	 viewBox="0 0 512 512" style="enable-background:new 0 0 512 512;" xml:space="preserve">
<g>
	<path d="M462,0.5H50c-27.6,0-50,22.4-50,50v412c0,27.6,22.4,50,50,50h412c27.6,0,50-22.4,50-50v-412C512,22.9,489.6,0.5,462,0.5z
		 M460,448.5c0,9.9-2,12-12,12c-2.4,0-382.6,0-384,0c-10,0-12-2.1-12-12c0-0.6,0-380,0-384c0-10,2-12,12-12c6,0,377.4,0,384,0
		c10,0,12,2,12,12C460,65.8,460,446.5,460,448.5z"/>
	<path d="M230.2,364.4v0.7c0,14.9,12,26.9,26.9,26.9l0,0c14.9,0,26.9-12,26.9-26.9v-0.7c0-14.9-12-26.9-26.9-26.9l0,0
		C242.3,337.5,230.2,349.5,230.2,364.4z"/>
	<path d="M320.1,144.2c-16-15.4-38.3-23.9-62.6-23.9c-25.7,0-47.8,8.3-64,24.1c-17.2,16.7-26.2,40.7-26.2,69.4v15h52.5v-15
		c0-27.8,12.7-41.9,37.7-41.9c19.9,0,33.9,13.4,33.9,32.6c0,9.1-0.9,14.3-22.2,34c-27.8,26-37.8,46-38.2,76.4l-0.2,15.2h52.5
		l0.2-14.8c0.2-13.7,4.3-23.4,27.8-44.3c24.1-21.5,33.9-40.6,33.9-65.8C345.1,181.3,336.2,159.7,320.1,144.2z"/>
</g>
</svg>
