<?xml version="1.0" encoding="utf-8"?>
<!-- Generator: Adobe Illustrator 22.0.1, SVG Export Plug-In . SVG Version: 6.00 Build 0)  -->
<svg version="1.1" id="Layer_1" xmlns="http://www.w3.org/2000/svg" xmlns:xlink="http://www.w3.org/1999/xlink" x="0px" y="0px"
	 viewBox="0 0 324.2 512" style="enable-background:new 0 0 324.2 512;" xml:space="preserve">
<g id="_x35_2">
	<path d="M162.5,512.4c-18.9,0-34.3-15.4-34.3-34.3v-0.5c0-18.9,15.4-34.3,34.3-34.3c18.9,0,34.3,15.4,34.3,34.3v0.5
		C196.8,497.1,181.5,512.4,162.5,512.4z"/>
	<path d="M136.2,384l0-2.4c0.6-56.1,18.8-91.8,71.9-141.5c45-41.9,56.7-61.3,56.7-94.2c0-57.3-42.8-98.9-101.7-98.9
		C93.4,47,53.4,90.3,53.4,165.8v2.4H0.7v-2.4c0-52.9,16.2-96.6,46.9-126.5c28.8-28,68.8-42.8,115.6-42.8
		c44.2,0,84.3,15.2,112.9,42.7c28.5,27.5,44.3,66,44.3,108.5c0,44.8-17.5,78-62.4,118.2c-52.2,46.6-68.3,73.7-69,115.9l0,2.3H136.2z
		"/>
</g>
</svg>
