<?xml version="1.0" encoding="utf-8"?>
<!-- Generator: Adobe Illustrator 21.1.0, SVG Export Plug-In . SVG Version: 6.00 Build 0)  -->
<svg version="1.1" id="Layer_1" xmlns="http://www.w3.org/2000/svg" xmlns:xlink="http://www.w3.org/1999/xlink" x="0px" y="0px"
	 viewBox="0 0 512 512" style="enable-background:new 0 0 512 512;" xml:space="preserve">
<g>
	<path d="M234.2,364.4v0.7c0,14.9,12,26.9,26.9,26.9h0c14.9,0,26.9-12,26.9-26.9v-0.7c0-14.9-12-26.9-26.9-26.9h0
		C246.3,337.5,234.2,349.5,234.2,364.4z"/>
	<path d="M324.1,144.2c-16-15.4-38.3-23.9-62.6-23.9c-25.7,0-47.8,8.3-64,24.1c-17.2,16.7-26.2,40.7-26.2,69.4v15h52.5v-15
		c0-27.8,12.7-41.9,37.7-41.9c19.9,0,33.9,13.4,33.9,32.6c0,9.1-0.9,14.3-22.2,34c-27.8,26-37.8,46-38.2,76.4l-0.2,15.2h52.5
		l0.2-14.8c0.2-13.7,4.3-23.4,27.8-44.3c24.1-21.5,33.9-40.6,33.9-65.8C349.1,181.3,340.2,159.7,324.1,144.2z"/>
	<path d="M256,0C114.6,0,0,114.6,0,256s114.6,256,256,256s256-114.6,256-256S397.4,0,256,0z M256,460c-112.7,0-204-91.3-204-204
		S143.3,52,256,52s204,91.3,204,204S368.7,460,256,460z"/>
</g>
</svg>
