<?xml version="1.0" encoding="utf-8"?>
<!-- Generator: Adobe Illustrator 21.1.0, SVG Export Plug-In . SVG Version: 6.00 Build 0)  -->
<svg version="1.2" baseProfile="tiny" id="Layer_1" xmlns="http://www.w3.org/2000/svg" xmlns:xlink="http://www.w3.org/1999/xlink"
	 x="0px" y="0px" viewBox="0 0 554.7 512" xml:space="preserve">
<path d="M393.3,457.9l-2.6-4.1c26.8-18.1,48.1-40.8,63.6-68c19.2-33.6,30.7-77.3,35-133.7c1.4-18.2-4.9-36.3-17.3-49.7
	s-29.9-21-48.1-21h-43.5V42h132.3v134.4c0,45.2-2.7,84.5-8,116.6c-4.9,29.9-12.1,53.7-21.3,71l-0.1,0.1l-0.1,0.1
	c-12.6,24-29.1,45.4-49.1,63.5C422.1,438.8,408.4,448.9,393.3,457.9 M62,457.9l-2.6-4.1c26.8-18.1,48.1-40.8,63.6-68
	c19.2-33.6,30.7-77.3,35-133.7c1.4-18.2-4.9-36.3-17.3-49.7c-12.4-13.4-29.9-21-48.1-21H49.1V42h132.3v134.4
	c0,45.2-2.7,84.5-8,116.6c-4.9,29.9-12.1,53.7-21.3,71l-0.1,0.1l-0.1,0.1c-12.6,24-29.1,45.4-49.1,63.5
	C90.8,438.8,77.1,448.9,62,457.9 M47,513c64.8-29.2,112.2-72.3,142.2-129.3c22.8-42.8,34.2-111.9,34.2-207.4V26.6
	c0-14.7-11.9-26.6-26.6-26.6H33.7C19,0,7.1,11.9,7.1,26.6v170.3c0,14.7,11.9,26.6,26.6,26.6h59c13.8,0,24.6,11.8,23.5,25.5
	c-3.8,49.6-13.7,88.3-29.6,116.1C68.1,397.4,39.2,421.8,0,438.2L47,513L47,513z M378.4,513c64.8-29.2,112.2-72.3,142.2-129.3
	c22.8-42.8,34.2-111.9,34.2-207.4V26.6c0-14.7-11.9-26.6-26.6-26.6H365c-14.7,0-26.6,11.9-26.6,26.6v170.3
	c0,14.7,11.9,26.6,26.6,26.6h59c13.8,0,24.6,11.8,23.5,25.5c-3.8,49.6-13.7,88.3-29.6,116.1c-18.5,32.4-47.4,56.8-86.6,73.2
	L378.4,513L378.4,513z"/>
</svg>
