<?xml version="1.0" encoding="utf-8"?>
<!-- Generator: Adobe Illustrator 21.1.0, SVG Export Plug-In . SVG Version: 6.00 Build 0)  -->
<svg version="1.2" baseProfile="tiny" id="Layer_1" xmlns="http://www.w3.org/2000/svg" xmlns:xlink="http://www.w3.org/1999/xlink"
	 x="0px" y="0px" viewBox="0 0 554.7 512" xml:space="preserve">
<path d="M161.4,55.1l2.6,4.1c-26.8,18.1-48.1,40.8-63.6,68c-19.2,33.6-30.7,77.3-35,133.7c-1.4,18.2,4.9,36.3,17.3,49.7
	c12.4,13.4,29.9,21,48.1,21h43.5V471H42V336.7c0-45.2,2.7-84.5,8-116.6c4.9-29.9,12.1-53.7,21.3-71l0.1-0.1l0.1-0.1
	c12.6-24,29.1-45.4,49.1-63.5C132.6,74.3,146.3,64.2,161.4,55.1 M492.7,55.1l2.6,4.1c-26.8,18.1-48.1,40.8-63.6,68
	c-19.2,33.6-30.7,77.3-35,133.7c-1.4,18.2,4.9,36.3,17.3,49.7c12.4,13.4,29.9,21,48.1,21h43.5V471H373.3V336.7
	c0-45.2,2.7-84.5,8-116.6c4.9-29.9,12.1-53.7,21.3-71l0.1-0.1l0.1-0.1c12.6-24,29.1-45.4,49.1-63.5
	C463.9,74.3,477.6,64.2,492.7,55.1 M507.7,0c-64.8,29.2-112.2,72.3-142.2,129.3c-22.8,42.8-34.2,111.9-34.2,207.4v149.8
	c0,14.7,11.9,26.6,26.6,26.6h163.2c14.7,0,26.6-11.9,26.6-26.6V316.2c0-14.7-11.9-26.6-26.6-26.6h-59c-13.8,0-24.6-11.8-23.5-25.5
	c3.8-49.6,13.7-88.3,29.6-116.1c18.5-32.4,47.4-56.8,86.6-73.2L507.7,0L507.7,0z M176.4,0C111.5,29.2,64.1,72.3,34.2,129.3
	C11.4,172.1,0,241.2,0,336.7v149.8C0,501.1,11.9,513,26.6,513h163.2c14.7,0,26.6-11.9,26.6-26.6V316.2c0-14.7-11.9-26.6-26.6-26.6
	h-59c-13.8,0-24.6-11.8-23.5-25.5c3.8-49.6,13.7-88.3,29.6-116.1c18.5-32.4,47.4-56.8,86.6-73.2L176.4,0L176.4,0z"/>
</svg>
