<?xml version="1.0" encoding="utf-8"?>
<!-- Generator: Adobe Illustrator 21.1.0, SVG Export Plug-In . SVG Version: 6.00 Build 0)  -->
<svg version="1.1" id="Layer_1" xmlns="http://www.w3.org/2000/svg" xmlns:xlink="http://www.w3.org/1999/xlink" x="0px" y="0px"
	 viewBox="0 0 512 512" style="enable-background:new 0 0 512 512;" xml:space="preserve">
<g id="_x35_2">
	<circle cx="256" cy="256" r="46"/>
	<path d="M389,101.3c15.1,13,28.3,28.2,39.1,45.1c11.8,18.5,20.4,38.6,25.7,59.7l-82.7-0.9c-4.7-10.7-10.9-20.6-18.3-29.6L389,101.3
		 M122.1,102.1l36.4,73.9c-7.3,8.9-13.4,18.8-18,29.3l-82.4,0.9c5.2-20.9,13.8-40.9,25.4-59.3C94.2,130.1,107.3,115,122.1,102.1
		 M284.1,378.9l50,65.7c-24.5,10.2-50.8,15.4-78,15.4c-27.2,0-53.5-5.2-77.9-15.3l49.9-65.8c9.1,2.1,18.5,3.1,28,3.1
		C265.6,382,275,380.9,284.1,378.9 M368,25.7l-79.6,163.7c24.7,12,41.6,37.3,41.6,66.6c0,0.3,0,0.5,0,0.8l182,2c0-0.9,0-1.9,0-2.8
		C512,154.8,453.2,67.3,368,25.7L368,25.7z M142.8,26.3C58.2,68.1,0,155.3,0,256c0,0.9,0,1.9,0,2.8l182-2c0-0.3,0-0.5,0-0.8
		c0-29.1,16.8-54.3,41.3-66.4L142.8,26.3L142.8,26.3z M300.8,314.9c-12.4,9.5-27.9,15.1-44.8,15.1c-16.8,0-32.3-5.6-44.7-15.1
		l-110,145c43,32.7,96.6,52.1,154.8,52.1c58.2,0,111.9-19.4,154.9-52.2L300.8,314.9L300.8,314.9z"/>
</g>
</svg>
