<?xml version="1.0" encoding="utf-8"?>
<!-- Generator: Adobe Illustrator 21.1.0, SVG Export Plug-In . SVG Version: 6.00 Build 0)  -->
<svg version="1.1" id="Layer_1" xmlns="http://www.w3.org/2000/svg" xmlns:xlink="http://www.w3.org/1999/xlink" x="0px" y="0px"
	 viewBox="0 0 512 512" style="enable-background:new 0 0 512 512;" xml:space="preserve">
<g id="_x35_2">
	<circle cx="256" cy="259.9" r="32.2"/>
	<path d="M351.8,165.8c6.5,6.7,12.4,14,17.5,22c5.7,9,10.3,18.5,13.7,28.5l-40.9-0.4c-2.4-4.6-5.1-9.1-8.2-13.3L351.8,165.8
		 M159.7,166.3l18,36.5c-3,4.1-5.7,8.5-8,13l-40.7,0.4c3.4-9.8,7.9-19.3,13.5-28.2C147.5,180.2,153.3,172.9,159.7,166.3
		 M272.1,355.4l24.7,32.5c-13,4.1-26.7,6.3-40.8,6.3c-14,0-27.7-2.1-40.7-6.2l24.7-32.5c5.2,0.9,10.6,1.3,16,1.3
		C261.4,356.7,266.8,356.2,272.1,355.4 M334.4,98.6l-55.7,114.6c17.3,8.4,29.2,26.1,29.2,46.6c0,0.2,0,0.4,0,0.6l127.4,1.4
		c0-0.7,0-1.3,0-2C435.2,189,394.1,127.7,334.4,98.6L334.4,98.6z M176.7,99.1c-59.2,29.3-100,90.3-100,160.8c0,0.7,0,1.3,0,2
		l127.4-1.4c0-0.2,0-0.4,0-0.6c0-20.4,11.8-38,28.9-46.5L176.7,99.1L176.7,99.1z M287.4,301.1c-8.7,6.6-19.6,10.6-31.4,10.6
		c-11.8,0-22.6-3.9-31.3-10.5l-77,101.5c30.1,22.9,67.6,36.5,108.4,36.5c40.8,0,78.4-13.6,108.5-36.5L287.4,301.1L287.4,301.1z"/>
	<path d="M256,0C114.6,0,0,114.6,0,256s114.6,256,256,256s256-114.6,256-256S397.4,0,256,0z M256,459.9
		c-112.6,0-203.9-91.3-203.9-203.9S143.4,52.1,256,52.1S459.9,143.4,459.9,256S368.6,459.9,256,459.9z"/>
</g>
</svg>
