<?xml version="1.0" encoding="utf-8"?>
<!-- Generator: Adobe Illustrator 21.1.0, SVG Export Plug-In . SVG Version: 6.00 Build 0)  -->
<svg version="1.1" id="Layer_2" xmlns="http://www.w3.org/2000/svg" xmlns:xlink="http://www.w3.org/1999/xlink" x="0px" y="0px"
	 viewBox="0 0 512 512" style="enable-background:new 0 0 512 512;" xml:space="preserve">
<g>
	<path d="M483.3,28.7C451.2-3.4,380.8-6.3,308.1,8.9c-19.4,4-38.9,9.4-58,15.8l0,0c-53,17.9-102,44.2-132.2,74.3l-18.6,18.6
		c-29.6,29.6-55.6,77.2-73.6,129.1v0c0,0,0,0,0,0c-6.6,18.9-12,38.3-16.2,57.6C-6.5,377.9-3.9,449.8,29.1,482.9
		c33.7,33.7,107.7,35.7,182.7,18.6l0,0c2.5-0.6,4.9-1.1,7.4-1.7c4.9-1.2,9.9-2.5,14.8-3.8c4.9-1.4,9.8-2.8,14.7-4.3
		c7.3-2.3,14.6-4.7,21.8-7.3c49.8-17.9,95.3-43.2,123.9-71.8L413,394c29.2-29.2,54.7-76,72.6-127c6.8-19.3,12.4-39.2,16.7-59.1
		C518.4,133.8,516,61.4,483.3,28.7z M109.1,459.6c-30.3-2.4-40.9-10.8-43.4-13.3c-2.5-2.5-10.7-12.7-13.2-42.1
		c-1.4-15.9-0.8-34.2,1.6-53.8c8,8.2,16.1,16.3,24.2,24.5c28.4,28.4,57,56,85.7,82.7C144,460.3,125.4,461,109.1,459.6z M436.7,249.9
		c-16.1,46.1-38.1,85.3-60.3,107.5L357.8,376c-21.8,21.8-60,43.6-104.8,59.7c-9.1,3.3-18.3,6.2-27.5,8.9
		c-37.2-33.5-74.4-68.8-111.2-105.6C98,322.7,82,306.3,66.4,290c2.5-8.8,5.2-17.6,8.3-26.4c16.3-46.9,38.6-86.8,61.3-109.5
		l18.6-18.6c23.1-23.1,64-45.6,112.2-61.9c8.9-3,17.9-5.7,26.9-8.2c15.9,15.2,31.7,30.7,47.5,46.5c36.4,36.4,71.2,73,104.3,109.8
		C442.9,231.2,440,240.6,436.7,249.9z M458.1,159.7c-26.1-28-53.1-55.9-80.9-83.7c-7.5-7.5-15.1-15-22.6-22.4
		c18.8-2.1,36.3-2.5,51.5-1.1c28.5,2.6,38.3,10.4,40.6,12.7c4.9,4.9,10.9,18.5,12.9,41.9C460.9,122.8,460.4,140.5,458.1,159.7z"/>
	<path d="M318.7,146.4c-6.2,6.2-6.2,16.3,0,22.5l1,1l-20.6,20.6l-6.5-6.5c-6.2-6.2-16.3-6.2-22.5,0c-6.2,6.2-6.2,16.3,0,22.5
		l6.5,6.5l-20.4,20.4l-9.7-9.7c-6.2-6.2-16.3-6.2-22.5,0c-6.2,6.2-6.2,16.3,0,22.5l9.7,9.7l-20,20l-6.5-6.5
		c-6.2-6.2-16.3-6.2-22.5,0c-6.2,6.2-6.2,16.3,0,22.5l6.5,6.5l-21,21l-1-1c-6.2-6.2-16.3-6.2-22.5,0c-6.2,6.2-6.2,16.3,0,22.5
		l24.5,24.5c6.2,6.2,16.3,6.2,22.5,0c6.2-6.2,6.2-16.3,0-22.5l-1-1l21-21l6.5,6.5c6.2,6.2,16.3,6.2,22.5,0c6.2-6.2,6.2-16.3,0-22.5
		l-6.5-6.5l20-20l9.7,9.7c6.2,6.2,16.3,6.2,22.5,0c6.2-6.2,6.2-16.3,0-22.5l-9.7-9.7l20.4-20.4l6.5,6.5c6.2,6.2,16.3,6.2,22.5,0
		c6.2-6.2,6.2-16.3,0-22.5l-6.5-6.5l20.6-20.6l1,1c6.2,6.2,16.3,6.2,22.5,0c6.2-6.2,6.2-16.3,0-22.5l-24.5-24.5
		C335,140.1,324.9,140.1,318.7,146.4z"/>
</g>
</svg>
