<?xml version="1.0" encoding="utf-8"?>
<!-- Generator: Adobe Illustrator 21.1.0, SVG Export Plug-In . SVG Version: 6.00 Build 0)  -->
<svg version="1.1" id="_x33_2_2_" xmlns="http://www.w3.org/2000/svg" xmlns:xlink="http://www.w3.org/1999/xlink" x="0px" y="0px"
	 viewBox="0 0 550.1 512" style="enable-background:new 0 0 550.1 512;" xml:space="preserve">
<g id="_x35_2">
	<path d="M542.2,420l-82,82l-32.8-32.9l42.4-42.3c-88.4,1-137.1-66-190.2-136c-56.5-76.2-118.4-156.5-219.3-156.5H0V87.9h60.4
		c123.8,0,200.3,97.7,256.2,174.8c49.8,65.8,87.7,117.6,153.2,117.6l-42.1-42.2l32.8-32.9l81.7,81.9
		C551.2,396.2,551.2,410.9,542.2,420z"/>
	<path d="M470.1,138.4l-41.9,42.3l32.8,32.9l81.4-82c4.4-4.4,6.8-10.2,6.8-16.4c0-6.3-2.4-12-6.8-16.5l-81.7-81.9l-32.8,32.9
		L470,91.9c-70.1-1.4-121.5,46.1-173.3,113.8l30.3,36.7C353.6,208,402.4,135.9,470.1,138.4z"/>
	<path d="M268.2,317.1c-25.1,31.3-60.6,62.1-89,79.8c-37.5,23.3-76.4,34.7-118.7,34.7H0v-46.5h60.4c77.6,0,129.9-46.6,176.3-102.3
		L268.2,317.1z"/>
</g>
</svg>
