<?xml version="1.0" encoding="utf-8"?>
<!-- Generator: Adobe Illustrator 21.1.0, SVG Export Plug-In . SVG Version: 6.00 Build 0)  -->
<svg version="1.1" id="Layer_2" xmlns="http://www.w3.org/2000/svg" xmlns:xlink="http://www.w3.org/1999/xlink" x="0px" y="0px"
	 viewBox="0 0 465.4 512" style="enable-background:new 0 0 465.4 512;" xml:space="preserve">
<g id="_x35_2">
	<path d="M360.6,302.5c-53.8,0-98,40.5-104,92.6h-5.5v-87.7c31.1-4.3,57.6-18.4,78.9-42.1c22.2-24.7,33.3-54,33.3-87.1v-29.2h-36.8
		V178c0,25.6-9.3,48-27.5,66.3c-18.2,18.3-40.5,27.6-66.1,27.6c-25.7,0-48-9.3-66.3-27.6C148.2,226,139,203.7,139,178v-29.2h-36.6
		V178c0,33.1,11.3,62.5,33.3,87.1c21.2,23.7,47.8,37.8,78.9,42.1V395h-5.5c-6.1-52.1-50.3-92.5-104-92.5
		c-57.9,0-104.8,46.9-104.8,104.8S47.2,512,105.1,512h255.5c0.9,0,1.8,0,2.7,0c56.6-1.4,102-47.8,102-104.7
		C465.4,349.4,418.5,302.5,360.6,302.5z M37.3,407.3c0-37.4,30.4-67.8,67.8-67.8c37.3,0,67.8,30.4,67.8,67.8S142.4,475,105.1,475
		C67.7,475,37.3,444.6,37.3,407.3z M184.6,475.4c10.7-12.4,18.5-27.4,22.4-43.9h51.7c3.9,16.5,11.7,31.4,22.4,43.9H184.6z
		 M360.6,475c-37.4,0-67.8-30.4-67.8-67.8s30.4-67.8,67.8-67.8s67.8,30.4,67.8,67.8S398,475,360.6,475z"/>
	<path d="M232.8,250.6L232.8,250.6c42.1,0,76.3-34.1,76.3-76.3V143v-37.1V76.3c0-42.1-34.1-76.3-76.3-76.3l0,0
		c-42.1,0-76.3,34.1-76.3,76.3v29.6V143v31.4C156.6,216.4,190.7,250.6,232.8,250.6z M193.6,76.3c0-21.6,17.6-39.2,39.2-39.2
		S272,54.7,272,76.3v29.6h-78.4V76.3z M272,143v31.4c0,21.6-17.6,39.2-39.2,39.2s-39.2-17.6-39.2-39.2V143H272z"/>
	<path d="M208.9,172.9c-3.3,0-6.1-2.7-6.1-6c0-3.4,2.7-6.1,6.1-6.1c3.3,0,6,2.7,6,6.1C215,170.2,212.3,172.9,208.9,172.9z
		 M233.2,172.9c-3.3,0-6.1-2.7-6.1-6c0-3.4,2.7-6.1,6.1-6.1c3.3,0,6,2.7,6,6.1C239.2,170.2,236.5,172.9,233.2,172.9z M256.7,172.9
		c-3.3,0-6-2.7-6-6c0-3.4,2.7-6.1,6-6.1c3.4,0,6.1,2.7,6.1,6.1C262.7,170.2,260,172.9,256.7,172.9z"/>
</g>
</svg>
