<?xml version="1.0" encoding="utf-8"?>
<!-- Generator: Adobe Illustrator 21.1.0, SVG Export Plug-In . SVG Version: 6.00 Build 0)  -->
<svg version="1.1" id="Layer_1" xmlns="http://www.w3.org/2000/svg" xmlns:xlink="http://www.w3.org/1999/xlink" x="0px" y="0px"
	 viewBox="0 0 550 512" style="enable-background:new 0 0 550 512;" xml:space="preserve">
<g>
	<g>
		<polygon points="418.2,145.2 395.7,213.8 363.7,203.1 329.2,191.9 348,181.8 247.3,2.5 308.2,1.4 395.6,157.1 		"/>
	</g>
	<g>
		<polygon points="258.8,75.4 181.4,212.3 135.3,184.7 227.5,20.3 		"/>
	</g>
	<g>
		<polygon points="549.6,406.4 487.6,406.6 487,405.5 411.2,269.1 457.6,241.9 		"/>
	</g>
	<g>
		<polygon points="550,433 520.3,487.6 345.5,487.2 344.1,513.4 319.8,485 297.6,459 322.7,436 349.5,410.7 348.6,432.6 		"/>
	</g>
	<g>
		<polygon points="239.1,428 238.9,482.9 54,482.4 84.8,427.2 		"/>
	</g>
	<g>
		<polygon points="150.5,301.9 132.5,290.1 31.4,469.5 0,415.6 0.6,414.7 87.8,259.9 66.6,245.7 135.7,231.5 142.7,265.4 		"/>
	</g>
</g>
</svg>
