<?xml version="1.0" encoding="utf-8"?>
<!-- Generator: Adobe Illustrator 21.1.0, SVG Export Plug-In . SVG Version: 6.00 Build 0)  -->
<svg version="1.1" id="Layer_1" xmlns="http://www.w3.org/2000/svg" xmlns:xlink="http://www.w3.org/1999/xlink" x="0px" y="0px"
	 viewBox="0 0 549.9 512" style="enable-background:new 0 0 549.9 512;" xml:space="preserve">
<path d="M550.1,245.5c0-96.6-115.2-235.2-259.1-235.2c-39.4,0-79.4,3.4-112.9,35.7c13.7-1.3,44.7,0.4,55.3,2.5
	c71.3,14.1,168.7,84,154.9,230.2l27,0.1l-36.5,39l-37-39.7l25.1-0.5c12.2-126.1-85-215.6-187-215.6c-65.3,0-179.6,55.7-179.6,208.4
	c0,93.3,106.1,234,268.7,234c46.3,0,71.5-7,103.2-35.7c-81.6,11.9-221.1-51.6-211.5-233l-25.9-0.1l36.6-39l37,39.5l-25.4,0.5
	c-13.2,113.4,74,214.8,183,214.8C458.5,451.4,550.1,377,550.1,245.5z M289.3,277.8L173.5,140.4l-5,5.8L63.4,265.3L54,275.9l14.2,0.3
	c4.5,0.1,37.3,0.9,51.4,1.1c2.3,76.5,40.6,137.3,90.3,176.9C91.5,420.8,41.9,325,41.9,263.5c0.1-105.8,80.9-158.8,135.4-158.8
	c114.5,0,148.3,105.9,148.3,132c-17.1,0-64.5-0.1-64.5-0.1L376.8,374l120-135.5l-66.1-1.4c-1.8-86.6-54.7-152.5-90.5-177
	c34.9,10.8,69,29.2,96.3,52.2c32.6,27.6,71.5,76,71.5,149.3c0,81.9-72.5,147.9-131.1,147.9c-102,0-142.1-70.8-151.8-131.8
	C228.9,277.8,289.3,277.8,289.3,277.8z"/>
</svg>
