<?xml version="1.0" encoding="utf-8"?>
<!-- Generator: Adobe Illustrator 21.1.0, SVG Export Plug-In . SVG Version: 6.00 Build 0)  -->
<svg version="1.1" id="Layer_1" xmlns="http://www.w3.org/2000/svg" xmlns:xlink="http://www.w3.org/1999/xlink" x="0px" y="0px"
	 viewBox="0 0 550 512" style="enable-background:new 0 0 550 512;" xml:space="preserve">
<g>
	<g>
		<path d="M550,344.1c0,31.8-12.8,75.1-38.4,129.9c-0.8,1.9-7.4,17.1-11.4,21.7c-2.2,3.3-4.9,5-8.2,5c-8.9,0-8.2-17.6-8.2-24.5
			c0.8-12.9,1.2-24.7,1.2-35.3c0-134-93-161.8-151.6-161.8h-133v116L0,204L200.4,13.6v117.9h68.3C464.3,131.5,550,203.5,550,344.1z
			 M498.6,310.5c-10.8-72.3-57.3-129.7-226.9-129.7c-7.1,0-58.2,0-58.2,0h-54.3v-58.7l-87.2,82l87.2,83V230h54.3c0,0,103,0,110,0
			C401.6,229.9,460.4,256,498.6,310.5z"/>
	</g>
</g>
</svg>
