<?xml version="1.0" encoding="utf-8"?>
<!-- Generator: Adobe Illustrator 21.1.0, SVG Export Plug-In . SVG Version: 6.00 Build 0)  -->
<svg version="1.1" id="_x35_2" xmlns="http://www.w3.org/2000/svg" xmlns:xlink="http://www.w3.org/1999/xlink" x="0px" y="0px"
	 viewBox="0 0 550 512" style="enable-background:new 0 0 550 512;" xml:space="preserve">
<g>
	<g>
		<polygon points="289.7,356.6 258.7,356.6 268.2,308.3 280.1,308.3 		"/>
	</g>
	<g>
		<polygon points="302.6,422.1 245.8,422.1 258.6,357.3 289.8,357.3 		"/>
	</g>
	<g>
		<polygon points="312.1,469.2 236.4,469.2 244.1,431.2 304.4,431.2 		"/>
	</g>
	<g>
		<path d="M548.7,469.2h-83.5L322.7,285.6l77.5,56.8c19.6-26.8,30-58.4,30-91.7c0-85.7-69.8-155.5-155.5-155.5
			c-41.5,0-80.6,16.2-109.9,45.5c-29.4,29.4-45.5,68.4-45.5,109.9c0,33.2,10.2,64.7,29.6,91.3l77-56.3L83.6,469.2H0l110.2-95.6
			c-27.1-35.8-41.4-78.5-41.4-123.8c0-54.9,21.4-106.6,60.2-145.4c38.8-38.8,90.4-60.2,145.3-60.2s106.5,21.4,145.3,60.2
			c38.8,38.8,60.2,90.5,60.1,145.4c0,45.2-14.3,87.9-41.4,123.8L548.7,469.2z"/>
	</g>
</g>
</svg>
