<?xml version="1.0" encoding="utf-8"?>
<!-- Generator: Adobe Illustrator 21.1.0, SVG Export Plug-In . SVG Version: 6.00 Build 0)  -->
<svg version="1.1" id="Layer_2" xmlns="http://www.w3.org/2000/svg" xmlns:xlink="http://www.w3.org/1999/xlink" x="0px" y="0px"
	 viewBox="0 0 620.5 512" style="enable-background:new 0 0 620.5 512;" xml:space="preserve">
<g>
	<g>
		<path d="M335.6,97.4h-50l-22.4,187.5H358L335.6,97.4z M263.3,284.9L263.3,284.9L263.3,284.9L263.3,284.9z M241.4,512L241.4,512
			L241.4,512L241.4,512z M260.6,335.3L241.4,512h140.1l-20.7-176.7H260.6z M325.8,0h-30.2l-8.2,73.3h46.7L325.8,0z M287.3,73.3
			L287.3,73.3L287.3,73.3L287.3,73.3z M248.9,0L0,512h73.1L252.3,0H248.9z M255.6,0L94.2,512H121L258.8,0H255.6z M372.5,0H369
			l178.5,512h73L372.5,0z M362.5,0l137.2,512h26.8L365.7,0H362.5z"/>
	</g>
</g>
</svg>
