<?xml version="1.0" encoding="utf-8"?>
<!-- Generator: Adobe Illustrator 21.1.0, SVG Export Plug-In . SVG Version: 6.00 Build 0)  -->
<svg version="1.1" id="Layer_1" xmlns="http://www.w3.org/2000/svg" xmlns:xlink="http://www.w3.org/1999/xlink" x="0px" y="0px"
	 viewBox="0 0 383.8 512" style="enable-background:new 0 0 383.8 512;" xml:space="preserve">
<g>
	<path d="M235.7,372.8c37.3-27.6,76.6-68.9,106.9-121.5c26.5-46.1,37.5-96.6,40.6-140.9c-47-8-95.9-33.8-125.2-72.1
		c-36.9,25-74.9,59.8-101.5,105.9c-30.2,52.5-46.2,107.2-51.4,153.4C165.1,297.2,207,321.3,235.7,372.8z M209.9,174.3
		c25.3-42.3,43.3-53.9,43.3-53.9s8,6.3,30.1,18.6c22.2,12.4,31.8,15.6,31.8,15.6s-1.4,22.7-25.5,65.7c-25.8,46-47.6,63.8-47.6,63.8
		s-6.7-8-29.9-21.4c-23.4-13.5-33.5-15.2-33.5-15.2S183.1,219,209.9,174.3z M383.8,88.7c0,0-6.1-78-21.5-86.9s-85.6,24.9-86,24.7
		C287.6,45.6,304,58.6,323,69.7C342.6,81.3,362.1,89,383.8,88.7z M111.2,199.1C37.1,203,0,293,0,293l86.7,0.8
		C86.7,293.8,97.5,233.6,111.2,199.1z M173.9,329.1c-58.1-33.5-132.5-13.5-166,44.7c43.6-14.4,79.2-10.6,102.9-3.8
		c-4.5,4.4-32.1,32.3-32.1,32.3l51.7,2.5l28.1,43.4c0,0,11.2-41.3,11.9-44.1c17.5,16.9,38.7,45.7,48.3,91
		C252.1,436.9,232,362.5,173.9,329.1z M133.4,435.6c-2.5-7.2-7.3-13.4-14.2-18.2c-7.2-4.8-14.9-6.8-23-6.2
		c-8.3,0.2-15.4,3.3-21.6,9.4c-8.8,10.6-13.9,25.3-15.5,44c-0.5,6-0.6,14-0.3,24l0.1,11.9l0.6,11.8l10.2-5l10.2-5
		c7.8-4.2,14.4-8,19.6-11.6c14.2-9.2,24.9-19.6,32.2-31.3C135.9,451.6,136.4,443.6,133.4,435.6z M318.4,318.4
		c-22.9,29.3-69.3,69-69.3,69l43.3,73.9C292.5,461.4,351.6,384.1,318.4,318.4z"/>
	<path d="M262.4,140.7c-15.3,0-27.7,12.4-27.7,27.7s12.4,27.7,27.7,27.7s27.7-12.4,27.7-27.7S277.7,140.7,262.4,140.7z M262.4,183.4
		c-8.3,0-14.9-6.7-14.9-14.9c0-8.2,6.7-14.9,14.9-14.9c8.2,0,14.9,6.7,14.9,14.9C277.3,176.7,270.7,183.4,262.4,183.4z"/>
	<path d="M238.3,195c-8.4,0-15.3,6.8-15.3,15.3c0,8.4,6.8,15.3,15.3,15.3c8.4,0,15.3-6.8,15.3-15.3C253.6,201.8,246.7,195,238.3,195
		z M238.3,218.5c-4.5,0-8.2-3.7-8.2-8.2c0-4.5,3.7-8.2,8.2-8.2c4.5,0,8.2,3.7,8.2,8.2C246.5,214.8,242.8,218.5,238.3,218.5z"/>
	<path d="M220.6,225.8c-8.4,0-15.3,6.8-15.3,15.3s6.8,15.3,15.3,15.3c8.4,0,15.3-6.8,15.3-15.3S229,225.8,220.6,225.8z M220.6,249.3
		c-4.5,0-8.2-3.7-8.2-8.2c0-4.5,3.7-8.2,8.2-8.2c4.5,0,8.2,3.7,8.2,8.2C228.8,245.6,225.2,249.3,220.6,249.3z"/>
</g>
</svg>
