<?xml version="1.0" encoding="utf-8"?>
<!-- Generator: Adobe Illustrator 21.1.0, SVG Export Plug-In . SVG Version: 6.00 Build 0)  -->
<svg version="1.1" id="Layer_4" xmlns="http://www.w3.org/2000/svg" xmlns:xlink="http://www.w3.org/1999/xlink" x="0px" y="0px"
	 viewBox="0 0 512 512" style="enable-background:new 0 0 512 512;" xml:space="preserve">
<g>
	<path d="M512,256C512,114.6,397.4,0,256,0S0,114.6,0,256s114.6,256,256,256S512,397.4,512,256z M52,256c0-112.7,91.3-204,204-204
		s204,91.3,204,204s-91.3,204-204,204S52,368.7,52,256z"/>
	<path d="M428,257c0-95-77-172-172-172S84,162,84,257s77,172,172,172S428,352,428,257z M136,257c0-32.1,12.5-62.2,35.1-84.8
		c22.7-22.7,52.8-35.2,84.9-35.2s62.2,12.5,84.8,35.1c22.7,22.7,35.1,52.8,35.1,84.8s-12.5,62.2-35.1,84.8
		c-14.4,14.4-31.9,24.7-51,30.3v-76.7h51.8c6.3,0,9.5-7.6,5-12.1L255.4,192l-91.2,91.2c-4.5,4.5-1.3,12.1,5,12.1H221v76.4
		c-18.7-5.6-35.8-15.8-50-30C148.5,319.2,136,289.1,136,257z"/>
</g>
</svg>
