<?xml version="1.0" encoding="utf-8"?>
<!-- Generator: Adobe Illustrator 21.1.0, SVG Export Plug-In . SVG Version: 6.00 Build 0)  -->
<svg version="1.1" id="Layer_4" xmlns="http://www.w3.org/2000/svg" xmlns:xlink="http://www.w3.org/1999/xlink" x="0px" y="0px"
	 viewBox="0 0 512 512" style="enable-background:new 0 0 512 512;" xml:space="preserve">
<g>
	<path d="M256,512c141.4,0,256-114.6,256-256S397.4,0,256,0S0,114.6,0,256S114.6,512,256,512z M256,52c112.7,0,204,91.3,204,204
		s-91.3,204-204,204S52,368.7,52,256S143.3,52,256,52z"/>
	<path d="M255,428c95,0,172-77,172-172S350,84,255,84S83,161,83,256S160,428,255,428z M255,136c32.1,0,62.2,12.5,84.8,35.1
		c22.7,22.7,35.2,52.8,35.2,84.9s-12.5,62.2-35.1,84.8c-22.7,22.7-52.8,35.1-84.8,35.1s-62.2-12.5-84.8-35.1
		c-14.4-14.4-24.7-31.9-30.3-51h76.7v51.8c0,6.3,7.6,9.5,12.1,5l91.2-91.2l-91.2-91.2c-4.5-4.5-12.1-1.3-12.1,5V221h-76.4
		c5.6-18.7,15.8-35.8,30-50C192.8,148.5,222.9,136,255,136z"/>
</g>
</svg>
