<?xml version="1.0" encoding="utf-8"?>
<!-- Generator: Adobe Illustrator 21.1.0, SVG Export Plug-In . SVG Version: 6.00 Build 0)  -->
<svg version="1.1" id="Layer_4" xmlns="http://www.w3.org/2000/svg" xmlns:xlink="http://www.w3.org/1999/xlink" x="0px" y="0px"
	 viewBox="0 0 512 512" style="enable-background:new 0 0 512 512;" xml:space="preserve">
<g>
	<path d="M256,0C114.6,0,0,114.6,0,256s114.6,256,256,256s256-114.6,256-256S397.4,0,256,0z M256,460c-112.7,0-204-91.3-204-204
		S143.3,52,256,52s204,91.3,204,204S368.7,460,256,460z"/>
	<path d="M257,84c-95,0-172,77-172,172c0,95,77,172,172,172s172-77,172-172C429,161,352,84,257,84z M257,376
		c-32.1,0-62.2-12.5-84.8-35.1C149.5,318.2,137,288.1,137,256c0-32.1,12.5-62.2,35.1-84.8c22.7-22.7,52.8-35.1,84.8-35.1
		s62.2,12.5,84.8,35.1c14.4,14.4,24.7,31.9,30.3,51h-76.7v-51.8c0-6.3-7.6-9.5-12.1-5l-91.2,91.2l91.2,91.2c4.5,4.5,12.1,1.3,12.1-5
		v-51.8h76.4c-5.6,18.7-15.8,35.8-30,50C319.2,363.5,289.1,376,257,376z"/>
</g>
</svg>
