<?xml version="1.0" encoding="utf-8"?>
<!-- Generator: Adobe Illustrator 21.1.0, SVG Export Plug-In . SVG Version: 6.00 Build 0)  -->
<svg version="1.1" id="Layer_4" xmlns="http://www.w3.org/2000/svg" xmlns:xlink="http://www.w3.org/1999/xlink" x="0px" y="0px"
	 viewBox="0 0 512 512" style="enable-background:new 0 0 512 512;" xml:space="preserve">
<g>
	<path d="M0,256c0,141.4,114.6,256,256,256s256-114.6,256-256S397.4,0,256,0S0,114.6,0,256z M460,256c0,112.7-91.3,204-204,204
		S52,368.7,52,256S143.3,52,256,52S460,143.3,460,256z"/>
	<path d="M84,255c0,95,77,172,172,172s172-77,172-172S351,83,256,83S84,160,84,255z M376,255c0,32.1-12.5,62.2-35.1,84.8
		C318.2,362.5,288.1,375,256,375s-62.2-12.5-84.8-35.1c-22.7-22.7-35.1-52.8-35.1-84.8s12.5-62.2,35.1-84.8
		c14.4-14.4,31.9-24.7,51-30.3v76.7h-51.8c-6.3,0-9.5,7.6-5,12.1l91.2,91.2l91.2-91.2c4.5-4.5,1.3-12.1-5-12.1H291v-76.4
		c18.7,5.6,35.8,15.8,50,30C363.5,192.8,376,222.9,376,255z"/>
</g>
</svg>
