<?xml version="1.0" encoding="utf-8"?>
<!-- Generator: Adobe Illustrator 21.1.0, SVG Export Plug-In . SVG Version: 6.00 Build 0)  -->
<svg version="1.1" id="Layer_4" xmlns="http://www.w3.org/2000/svg" xmlns:xlink="http://www.w3.org/1999/xlink" x="0px" y="0px"
	 viewBox="0 0 512 512" style="enable-background:new 0 0 512 512;" xml:space="preserve">
<g>
	<g>
		<path d="M494,293.5H114v-170c0-5.7-2.6-10.4-7.2-14.1V11.2c0-3.1-1.3-5.9-3.3-7.9S98.7,0,95.6,0c-6.2,0-11.2,5-11.2,11.2v98.2
			c-4.3,3.7-6.4,8.4-6.4,14.1v170H18c-9.9,0-18,8.1-18,18v181h78V512h84v-19.5h187V512h85v-19.5h78v-181
			C512,301.6,503.9,293.5,494,293.5z M459.9,440.3H52v-94.9h408L459.9,440.3L459.9,440.3z M224.4,169.4c-20.3-20.6-45-31-74.3-31
			c-4.7,0-7,2.3-7,7c0,2,0.7,3.7,2,5s3,2,5,2c25.3,0,46.8,9,64.8,27c17.6,18,26.4,39.5,26.4,64.4c0,4.7,2.3,7,7,7s7-2.3,7-7
			C255.3,214.8,245,190,224.4,169.4z M202.9,191.3c-14.3-14.3-31.4-21.5-51.3-21.5c-4.7,0-7,2.3-7,7c0,2,0.7,3.7,2,5s3,2,5,2
			c15.9,0,29.7,5.8,41.3,17.5c11.3,11.3,17,25.1,17,41.5c0,4.7,2.3,7,7,7c4.6,0,7-2.3,7-7C223.9,222.8,216.9,205.7,202.9,191.3z
			 M180,212.3c-8-8-17.4-12-28.4-12c-4.7,0-7,2.3-7,7c0,2,0.7,3.7,2,5s3,2,5,2c7.3,0,13.5,2.5,18.4,7.5c5,5,7.5,11.2,7.5,18.5
			c0,4.7,2.3,7,7,7c4.6,0,7-2.3,7-7C191.5,229.3,187.7,220,180,212.3z"/>
	</g>
	<g>
		<circle cx="91.5" cy="393" r="27.5"/>
	</g>
	<g>
		<rect x="275.6" y="361.3" width="39" height="63"/>
	</g>
	<g>
		<rect x="334.6" y="361.3" width="39" height="63"/>
	</g>
	<g>
		<rect x="395.6" y="361.3" width="38" height="63"/>
	</g>
</g>
</svg>
