<?xml version="1.0" encoding="utf-8"?>
<!-- Generator: Adobe Illustrator 21.1.0, SVG Export Plug-In . SVG Version: 6.00 Build 0)  -->
<svg version="1.1" id="Layer_1" xmlns="http://www.w3.org/2000/svg" xmlns:xlink="http://www.w3.org/1999/xlink" x="0px" y="0px"
	 viewBox="0 0 545.2 512" style="enable-background:new 0 0 545.2 512;" xml:space="preserve">
<g>
	<path d="M368.6,77.2c16.1,15.9,32,32.2,48.4,49.1c20.9,21.4,42.2,43.3,64.4,64.7c-5.3,7.9-11.9,15.8-20.1,23.9
		c-25.1,25.1-60.3,48.5-101.1,75.5c-52.8,35.1-112.7,74.8-168.7,130.8c-4.8,4.8-9.5,9.6-14.1,14.5c-31.6-31.1-76.6-76.2-111.1-113.2
		c5.1-6.2,10.9-12.5,17.5-19c33.7-33.7,79.4-65.7,127.7-99.5c50.3-35.2,102.3-71.5,143-112.3C359.5,86.9,364.2,82.1,368.6,77.2
		 M362.5,0.3c-0.4,0-0.8,0.2-1.2,0.6c-0.4,0.4-0.8,0.9-1.2,1.6c-11,18.3-25.4,35.7-42.2,52.5c-74.8,74.8-196.7,137.7-270.7,211.8
		c-19.4,19.3-35.4,39.3-46.5,60.5c54.8,63.5,179.6,184.3,180.4,184.3l0,0c7.5-9.7,15.3-19,23.2-27.9s15.9-17.4,24.1-25.6
		c95.2-95.2,206-142.5,269.8-206.3c21.6-21.6,37.8-45,46.3-72.9C481.7,121.8,426.8,58.2,364.1,1.2l-0.6-0.4
		C363.1,0.5,362.8,0.3,362.5,0.3L362.5,0.3z"/>
	<path d="M347.8,240l20.7,20.7c31.9-21.3,59.9-40.6,81.4-60.9l-23.2-23.2C402.7,198.8,375.6,219.7,347.8,240z"/>
	<path d="M361.9,111.9c-24,22.2-51,43.1-78.9,63.4l20.7,20.7c31.9-21.3,59.9-40.6,81.4-60.9L361.9,111.9z"/>
	<path d="M185.3,307c-0.8,1.9-3.5,5.9-11.6,13.9l-6.7,6.7l-18.8-18.8l5.6-5.6c7.5-7.6,11-10.4,12.6-11.5c2.7-1.8,5.4-2.5,8.4-2.4
		c2.9,0.2,5.4,1.4,8,3.8c2.1,2.1,3.2,4.1,3.7,6.5C186.8,302,186.4,304.4,185.3,307z M241.6,335.8L225.5,320l-32.8,33.1l-5.3-5.3
		l8.6-8.6c8.1-8.1,13.9-14.7,17.4-19.9c2.7-4.1,4.5-9.1,5.6-14.5c1-5.6,0.6-11.6-1.3-17.7c-1.9-6.2-5.7-12.1-11.5-17.8
		c-7.5-7.5-15.6-11.8-24.1-12.9c-8.6-1.1-16.4,0.5-23.4,4.5c-4.5,2.5-11.9,9.1-22.8,20.1l-31.1,30.6l39.2,39.2l-8.6,8.8l20.4,20.2
		l8.4-8.8l5.3,5.3l-8.6,8.8l16.1,15.8l8.6-8.6l11.2,11.2l23.1-23.1l-11.3-11.3L241.6,335.8z"/>
</g>
</svg>
