<?xml version="1.0" encoding="utf-8"?>
<!-- Generator: Adobe Illustrator 21.1.0, SVG Export Plug-In . SVG Version: 6.00 Build 0)  -->
<svg version="1.1" id="Layer_6" xmlns="http://www.w3.org/2000/svg" xmlns:xlink="http://www.w3.org/1999/xlink" x="0px" y="0px"
	 viewBox="0 0 253 512" style="enable-background:new 0 0 253 512;" xml:space="preserve">
<g>
	<path d="M0,0v512h253V0H0z M201,462H52v-19h59v-23H52v-22h30v-23H52v-22h59v-23H52v-22h29v-23H52v-22h60v-23H52v-22h29v-23H52v-22
		h59v-23H52V52h149V462z"/>
	<path d="M162.8,118.6c16.6,0,30.1-13.5,30.1-30.1s-13.5-30.1-30.1-30.1s-30.1,13.5-30.1,30.1S146.2,118.6,162.8,118.6z M162.8,66.2
		c12.3,0,22.3,10,22.3,22.3c0,12.3-10,22.3-22.3,22.3c-12.3,0-22.3-10-22.3-22.3C140.5,76.2,150.5,66.2,162.8,66.2z"/>
</g>
</svg>
