<?xml version="1.0" encoding="utf-8"?>
<!-- Generator: Adobe Illustrator 22.0.1, SVG Export Plug-In . SVG Version: 6.00 Build 0)  -->
<svg version="1.1" id="Layer_1" xmlns="http://www.w3.org/2000/svg" xmlns:xlink="http://www.w3.org/1999/xlink" x="0px" y="0px"
	 viewBox="0 0 512 512" style="enable-background:new 0 0 512 512;" xml:space="preserve">
<path id="_x35_2_6_" d="M169,347V0h-32h-20H52H26H0v460v52h52h460v-16v-36v-61h1v-52H169z M460,460H52V52h65v14H88.5
	c-1.2,0-2.4,0.5-3.2,1.3c-0.8,0.8-1.3,1.9-1.3,3.2c0,2.5,2,4.5,4.5,4.5H117v26H88.5c-1.2,0-2.4,0.5-3.2,1.3
	c-0.8,0.8-1.3,1.9-1.3,3.2c0,2.5,2,4.5,4.5,4.5H117v27H88.5c-1.2,0-2.4,0.5-3.2,1.3c-0.8,0.8-1.3,1.9-1.3,3.2c0,2.5,2,4.5,4.5,4.5
	H117v26H72.5h-10c-1.2,0-2.4,0.5-3.2,1.3c-0.8,0.8-1.3,1.9-1.3,3.2c0,2.5,2,4.5,4.5,4.5h10H117v26H88.5c-1.2,0-2.4,0.5-3.2,1.3
	c-0.8,0.8-1.3,1.9-1.3,3.2c0,2.5,2,4.5,4.5,4.5H117v27H88.5c-1.2,0-2.4,0.5-3.2,1.3c-0.8,0.8-1.3,1.9-1.3,3.2c0,2.5,2,4.5,4.5,4.5
	H117v26H88.5c-1.2,0-2.4,0.5-3.2,1.3c-0.8,0.8-1.3,1.9-1.3,3.2c0,2.5,2,4.5,4.5,4.5H117v26H72.5h-10c-1.2,0-2.4,0.5-3.2,1.3
	c-0.8,0.8-1.3,1.9-1.3,3.2c0,2.5,2,4.5,4.5,4.5h10H117v25v1H88.5c-1.2,0-2.4,0.5-3.2,1.3c-0.8,0.8-1.3,1.9-1.3,3.2
	c0,2.5,2,4.5,4.5,4.5H117v32v10h48v27.5c0,1.2,0.5,2.4,1.3,3.2c0.8,0.8,1.9,1.3,3.2,1.3c2.5,0,4.5-2,4.5-4.5V399h27v27.5
	c0,1.2,0.5,2.4,1.3,3.2c0.8,0.8,1.9,1.3,3.2,1.3c2.5,0,4.5-2,4.5-4.5V399h26v52.5c0,1.2,0.5,2.4,1.3,3.2c0.8,0.8,1.9,1.3,3.2,1.3
	c2.5,0,4.5-2,4.5-4.5V399h26v27.5c0,1.2,0.5,2.4,1.3,3.2c0.8,0.8,1.9,1.3,3.2,1.3c2.5,0,4.5-2,4.5-4.5V399h27v27.5
	c0,1.2,0.5,2.4,1.3,3.2c0.8,0.8,1.9,1.3,3.2,1.3c2.5,0,4.5-2,4.5-4.5V399h26v27.5c0,1.2,0.5,2.4,1.3,3.2c0.8,0.8,1.9,1.3,3.2,1.3
	c2.5,0,4.5-2,4.5-4.5V399h28v52.5c0,1.2,0.5,2.4,1.3,3.2c0.8,0.8,1.9,1.3,3.2,1.3c2.5,0,4.5-2,4.5-4.5V399h25v27.5
	c0,1.2,0.5,2.4,1.3,3.2c0.8,0.8,1.9,1.3,3.2,1.3c2.5,0,4.5-2,4.5-4.5V399h27v27.5c0,1.2,0.5,2.4,1.3,3.2c0.8,0.8,1.9,1.3,3.2,1.3
	c2.5,0,4.5-2,4.5-4.5V399h2V460z"/>
</svg>
