<?xml version="1.0" encoding="utf-8"?>
<!-- Generator: Adobe Illustrator 21.1.0, SVG Export Plug-In . SVG Version: 6.00 Build 0)  -->
<svg version="1.1" id="Layer_1" xmlns="http://www.w3.org/2000/svg" xmlns:xlink="http://www.w3.org/1999/xlink" x="0px" y="0px"
	 viewBox="0 0 545.2 512" style="enable-background:new 0 0 545.2 512;" xml:space="preserve">
<g>
	<path d="M368.6,77.2c16.1,15.9,32,32.2,48.4,49.1c20.9,21.4,42.2,43.3,64.4,64.7c-5.3,7.9-11.9,15.8-20.1,23.9
		c-25.1,25.1-60.3,48.5-101.1,75.5c-52.8,35.1-112.7,74.8-168.7,130.8c-4.8,4.8-9.5,9.6-14.1,14.5c-31.6-31.1-76.6-76.2-111.1-113.2
		c5.1-6.2,10.9-12.5,17.5-19c33.7-33.7,79.4-65.7,127.7-99.5c50.3-35.2,102.3-71.5,143-112.3C359.5,86.9,364.2,82.1,368.6,77.2
		 M362.5,0.3c-0.4,0-0.8,0.2-1.2,0.6c-0.4,0.4-0.8,0.9-1.2,1.6c-11,18.3-25.4,35.7-42.2,52.5c-74.8,74.8-196.7,137.7-270.7,211.8
		c-19.4,19.3-35.4,39.3-46.5,60.5c54.8,63.5,179.6,184.3,180.4,184.3l0,0c7.5-9.7,15.3-19,23.2-27.9s15.9-17.4,24.1-25.6
		c95.2-95.2,206-142.5,269.8-206.3c21.6-21.6,37.8-45,46.3-72.9C481.7,121.8,426.8,58.2,364.1,1.2l-0.6-0.4
		C363.1,0.5,362.8,0.3,362.5,0.3L362.5,0.3z"/>
	<path d="M347.8,240l20.7,20.7c31.9-21.3,59.9-40.6,81.4-60.9l-23.2-23.2C402.7,198.8,375.6,219.7,347.8,240z"/>
	<path d="M361.9,111.9c-24,22.2-51,43.1-78.9,63.4l20.7,20.7c31.9-21.3,59.9-40.6,81.4-60.9L361.9,111.9z"/>
	<path d="M190,320.7l-0.4-0.4c4.8-10.1,5.1-25.5-5.9-36.4c-8-8-16.8-11.1-25.9-10c-11,1.3-22,8.3-34.7,21.2
		c-10.4,10.4-24.4,24.4-24.4,24.4l88.2,88.2l17.7-17.7l-35.3-35.3l5.9-5.9c8.1-7.8,14.7-8.7,27.7-0.2c13.1,8.1,23.8,14.6,27.6,15.6
		l20-20c-4.9-1.7-20.5-11.7-32.9-18.7C207.5,319.5,198.5,317.1,190,320.7z M162.8,332.9l-7.7,7.7l-23.8-23.8
		c1.2-1.7,3.5-4.7,8.2-9.5c9.2-8.9,18.5-10.4,26.4-2.4C173.5,312.4,172.5,323.1,162.8,332.9z M255.4,255.2
		c-16.4-16.4-29.7-6.2-41.9,6l-17.6,17.6l59.7,59.7l12.4-12.4l-24.4-24.4c0,0,6.2-6.4,8.3-8.6C263.5,281.5,268.1,267.9,255.4,255.2z
		 M241.8,284.3c-3.6,3.6-7.8,7.8-7.8,7.8l-15.4-15.4c0,0,9.9-9.5,10.4-10c3.3-3.3,9-3.7,13.8,1C246.3,271.2,248.3,277.7,241.8,284.3
		z"/>
</g>
</svg>
