<?xml version="1.0" encoding="utf-8"?>
<!-- Generator: Adobe Illustrator 21.1.0, SVG Export Plug-In . SVG Version: 6.00 Build 0)  -->
<svg version="1.1" id="Layer_1" xmlns="http://www.w3.org/2000/svg" xmlns:xlink="http://www.w3.org/1999/xlink" x="0px" y="0px"
	 viewBox="0 0 512 512" style="enable-background:new 0 0 512 512;" xml:space="preserve">
<g>
	<path d="M186.4,236.6l-105-105C62.8,113,32.6,113,14,131.6l0,0c-18.6,18.6-18.6,48.8,0,67.4l104.9,104.9L186.4,236.6z M42,159.6
		L42,159.6c3.1-3.1,8.2-3.1,11.3,0l76.9,76.9l-11.4,11.4L42,171C38.8,167.8,38.9,162.8,42,159.6z"/>
	<path d="M208.1,393.2l105,104.9c18.6,18.6,48.8,18.6,67.4,0l0,0c18.6-18.6,18.6-48.8,0-67.4l-105-105L208.1,393.2z M341.1,470
		l-76.9-76.8l11.4-11.4l76.9,76.8c3.1,3.1,3.1,8.2,0,11.4h0C349.4,473.2,344.3,473.2,341.1,470z"/>
	<path d="M377,155.3c3.5,1.5,7.4,2.3,11.4,2.3c17.3,0,31.4-14.8,31.4-33.1s-14.1-33.1-31.4-33.1c-17.3,0-31.4,14.8-31.4,33.1
		c0,4.8,0.9,9.4,2.7,13.5l-15.8,15.8l-62.4-62.4c-35.9,35.9-38.1,92.8-6.4,131.2l-15.8,15.8l-26.5-26.4L94.6,350
		c-0.1,0.1-0.2,0.1-0.2,0.2h-0.1c-0.1,0.1-0.1,0.1-0.1,0.1l0,0l-0.1,0.1l0.1,0.1c-6.8,7.5,2.4,28.2,20.8,46.5
		c14.3,14.3,30,23.1,39.8,23.1c2.8,0,5.1-0.7,6.8-2.3h0.1h-0.1l0.1,0.1l0.1-0.1c0-0.1,0.1-0.1,0.1-0.1l0,0l0.1-0.1
		c0,0-0.1,0-0.1,0.1l0,0c0,0,0.1,0,0.1-0.1l0,0l0.1-0.1l0,0l0,0l138.2-138.2l-23.6-23.7l16.3-16.3c17.1,12.6,37.5,18.9,57.8,18.9
		c25,0,50.1-9.5,69.2-28.6L361.2,171L377,155.3z M158.6,412.4c-1.3,1.3-3,1.9-5.3,1.9c-8.1,0-21.9-7.9-34.8-20.8
		c-16.3-16.3-24.7-34.1-18.9-40c1.3-1.3,3-1.9,5.3-1.9c8.1,0,21.9,7.9,34.8,20.8C155.9,388.6,164.5,406.5,158.6,412.4z M173.2,350.2
		c-1.8-2-3.7-3.9-5.5-5.8c-1.7-1.7-3.7-3.5-5.8-5.5l71-70.9l11.4,11.4L173.2,350.2z M350.7,218.6c-15.6,0-30.2-6.1-41.1-17
		c-11.8-11.8-17.5-27.5-17-43.1l60.1,60.1C352,218.6,351.3,218.6,350.7,218.6z"/>
	<path d="M456.7,170.5c-1.4,2.6-4.1,4.4-7.1,4.4h-0.1c-5.7,0-9.6-6.1-7-11.3c13-26.1,8.8-58.6-13.1-80.5
		c-22.4-22.4-56.4-26.4-82.8-11.8c-5.2,2.8-11.6-0.9-11.6-6.9c0-2.8,1.5-5.4,4-6.8c32.3-17.8,74-13,101.5,14.3
		C467.3,98.7,472.7,138.6,456.7,170.5z M492.4,109.9c-0.2,4.1-3.5,7.2-7.6,7.2h-0.3c-4.4,0-7.8-3.7-7.6-8c0.9-19-5.8-38.3-20.3-52.8
		c-15-15.1-35.3-21.8-55-20.1c-4.6,0.4-8.5-3.1-8.5-7.6v-0.4c0-4,3-7.3,6.9-7.6c24.2-2.1,49.3,6.2,67.6,24.6
		C485.3,62.8,493.6,86.5,492.4,109.9z M504.1,62.2c-3.3,0-6.3-2-7.4-5.1c-7.3-19.7-23.3-35.1-43.2-41.7c-3.2-1.1-5.4-4.1-5.4-7.5
		c0-5.4,5.3-9.2,10.4-7.4c24.5,8.1,44,27,53,51.1c0.3,0.9,0.5,1.9,0.5,2.8C512,58.5,508.7,62.2,504.1,62.2z"/>
</g>
</svg>
