<?xml version="1.0" encoding="utf-8"?>
<!-- Generator: Adobe Illustrator 21.1.0, SVG Export Plug-In . SVG Version: 6.00 Build 0)  -->
<svg version="1.1" id="Layer_1" xmlns="http://www.w3.org/2000/svg" xmlns:xlink="http://www.w3.org/1999/xlink" x="0px" y="0px"
	 viewBox="0 0 512 512" style="enable-background:new 0 0 512 512;" xml:space="preserve">
<g id="_x35_2">
	<path d="M245.1,308.1l-0.2-0.2c7.7,3.2,16.1,5,24.9,5c35.5,0,64.2-28.7,64.2-64.2c0-35.4-28.8-64.2-64.2-64.2
		c-35.5,0-64.2,28.8-64.2,64.2c0,9,1.8,17.5,5.2,25.3l-30.9,31L56.6,181.3c-70.9,71.2-75.3,183.9-12.6,260l35.1,33.3
		C113,499.5,153.2,512,193.3,512c49.5,0,98.9-18.9,136.6-56.8L214,339.3L245.1,308.1z M269.8,236.5c6.7,0,12.2,5.5,12.2,12.2
		c0,6.7-5.5,12.2-12.2,12.2c-6.7,0-12.2-5.5-12.2-12.2C257.7,242,263.1,236.5,269.8,236.5z M249.5,448.3C232,456,213,460,193.3,460
		c-29.3,0-57.2-8.8-80.9-25.5l-30-28.5c-21-26.6-31.7-60-30.2-94.2c0.8-17.3,4.7-34.2,11.5-49.8l77,77.3l-0.2,0.2l36.7,36.7
		L249.5,448.3z"/>
	<path d="M402.3,338.8c-2.5,5-7.8,8.2-13.4,8.2h-1c-11.2,0-18.6-11.8-13.6-21.9c26.2-51.8,17.7-116.7-25.5-160
		c-44.5-44.6-111.7-52.3-164.1-23.1c-10,5.6-22.4-1.8-22.4-13.3v-0.9c0-5.5,2.9-10.6,7.7-13.2c64-35.3,146.3-26,200.8,28.3
		C423.7,196.2,434.2,275.3,402.3,338.8z M473.3,218c-0.4,8-7.1,14.2-15.1,14.2h-0.7c-8.7,0-15.5-7.3-15.1-16
		c2-37.5-11.4-75.8-40.1-104.6c-29.8-29.9-69.8-43.1-108.8-39.8c-8.9,0.7-16.6-6.1-16.6-15.1v-0.8c0-7.8,5.9-14.4,13.7-15.1
		c47.9-4.2,97.3,12.1,133.6,48.7C459.3,124.7,475.6,171.7,473.3,218z M496.9,123.4h-1c-6.3,0-12-4-14.2-10
		c-14.4-39.1-46.1-69.8-85.7-83c-6.2-2.1-10.4-7.8-10.4-14.4v-0.9c0-10.4,10.1-17.6,20-14.4c48.9,16.1,87.8,53.8,105.5,102.1
		C514.7,112.8,507.4,123.4,496.9,123.4z"/>
</g>
</svg>
