<?xml version="1.0" encoding="utf-8"?>
<!-- Generator: Adobe Illustrator 21.1.0, SVG Export Plug-In . SVG Version: 6.00 Build 0)  -->
<svg version="1.1" id="_x35_2_1_" xmlns="http://www.w3.org/2000/svg" xmlns:xlink="http://www.w3.org/1999/xlink" x="0px" y="0px"
	 viewBox="0 0 512 512" style="enable-background:new 0 0 512 512;" xml:space="preserve">
<g>
	<path id="_x35_2" d="M456.2,311.7c-19.6,70.8-75.6,126.2-146.6,145.2V512c100.6-20.9,180.1-99.9,201.8-200.2h-55.2V311.7z
		 M55.8,311.7H0.6c21.6,100.1,100.6,178.7,200.8,200v-55.1C131,437.4,75.3,382,55.8,311.7z M309.6,0.1v55
		c72,19.2,128.6,76.1,147.4,148.3h55C491.3,101.6,411.3,21.2,309.6,0.1z M0,203.4h55c18.7-71.8,74.9-128.6,146.4-148V0.3
		C100.2,21.9,20.7,101.9,0,203.4z"/>
	<path d="M167.8,241.5c-4,0.1-7.9,0.3-11.8,0.7c-1.9,0.1-3.4,0.2-4.7,0.3c-1.4,13-1.7,25.9-0.8,38.8c0.8,10.3,2.3,20.4,4.7,30.1
		c0.9,3.8,1.9,7.5,3,11.1c0.9,2.9,1.8,5.7,2.8,8.3c1.1,3,2,5.3,2.8,7h37.5v-95.2c-5.2-0.7-11-1.1-17.4-1.3
		C178.8,241.2,173.4,241.3,167.8,241.5z M188.2,312c0.8,0.8,1.4,1.7,1.8,2.7c0.4,1.1,0.7,2.3,0.7,3.5c0,1.2-0.2,2.4-0.7,3.5
		c-0.4,1-1.1,1.9-1.8,2.7c-0.9,0.9-1.8,1.6-2.8,2c-1.1,0.4-2.3,0.7-3.5,0.7c-1.1,0-2.2-0.2-3.3-0.7c-1.1-0.4-2-1.1-2.8-2
		c-0.8-0.8-1.4-1.7-1.8-2.7c-0.5-1.1-0.8-2.3-0.8-3.5c0-1.2,0.3-2.4,0.8-3.5c0.4-1,1.1-1.9,1.8-2.7c0.8-0.9,1.7-1.5,2.8-2
		c1.1-0.4,2.2-0.7,3.3-0.7c1.2,0,2.4,0.2,3.5,0.7C186.4,310.4,187.3,311.1,188.2,312z M350.3,226.7c-5.1-5.1-11.3-7.7-18.3-7.7
		h-37.6c2.3-5.3,4.4-9.9,6.2-13.6c1.8-3.8,3.1-7.9,3.9-12.5c0.8-4.5,0.6-10.6-0.4-18.2c-1.1-7.6-3.8-14.1-8.1-19.5
		c-4.4-5.4-11.2-7.3-20.4-5.7c-2.3,0-4.4,0.8-6.2,2.5c-1.8,1.9-3.3,4.2-4.6,6.9c-1.3,2.7-2.2,5.1-2.7,7.1c-0.5,2-1.1,4.7-1.7,8.2
		c-0.8,3.9-1.4,6.7-1.7,8.3c-0.4,1.7-1.2,3.9-2.3,6.6c-1.2,2.7-2.6,4.8-4.2,6.4c-3,3-7.6,8.4-13.8,16.3c-4.3,5.8-8.8,11.2-13.5,16.4
		c-4.7,5.2-8,8.2-9.9,9.2c-2.8,1.7-5.7,3.6-8.8,5.8v88.7c0,2.3,0.8,4.3,2.6,6c1.7,1.7,3.8,2.6,6.2,2.7c3.1,0.1,10.2,2.1,21.3,6
		c7,2.3,12.4,4.1,16.4,5.3c3.9,1.2,9.4,2.6,16.5,4c7,1.4,13.5,2.2,19.5,2.2h2.3h10.3h4.8c12.1-0.2,21-3.8,26.7-10.7
		c5.2-6.2,7.4-14.4,6.6-24.6c3.5-3.3,6-7.5,7.3-12.6c1.5-5.5,1.5-10.9,0-16c4.2-5.4,6.1-11.6,5.8-18.5c0-3-0.7-6.4-2-10.3
		c5-5.8,7.5-12.5,7.5-20.3C358,237.9,355.4,231.8,350.3,226.7z M237.7,44l-0.3,1.8L233.6,69L254,58l1.5-0.8L257,58l20.5,11
		l-3.9-23.2l-0.3-1.8l1.3-1.2L291,26.3l-22.9-3.4l-1.7-0.2l-0.7-1.6L255.5,0l-10.2,21.2l-0.8,1.6l-1.7,0.2L220,26.3l16.5,16.4
		L237.7,44z M273.3,467.9l0.3-1.8l3.8-23.2l-20.4,11l-1.5,0.8l-1.5-0.8l-20.5-11l3.9,23.2l0.3,1.8l-1.3,1.2L220,485.6l22.9,3.4
		l1.7,0.2l0.7,1.6l10.2,21.2l10.2-21.2l0.8-1.6l1.7-0.2l22.8-3.4l-16.5-16.4L273.3,467.9z M490.8,246.3l-1.6-0.8l-0.2-1.7l-3.4-22.8
		l-16.4,16.5l-1.2,1.3l-1.8-0.3l-23.2-3.8l11,20.4l0.8,1.5l-0.8,1.4l-11,20.5l23.2-3.9l1.8-0.3l1.2,1.3l16.4,16.6l3.4-22.9l0.2-1.7
		l1.6-0.7l21.2-10.2L490.8,246.3z M69,234.6l-23.2,3.9l-1.8,0.3l-1.2-1.3L26.3,221l-3.4,22.9l-0.2,1.7l-1.6,0.7L0,256.4l21.2,10.2
		l1.6,0.8l0.2,1.7l3.4,22.8l16.4-16.5l1.2-1.3l1.8,0.3l23.2,3.8l-11-20.3l-0.8-1.5L58,255L69,234.6z"/>
</g>
</svg>
