<?xml version="1.0" encoding="utf-8"?>
<!-- Generator: Adobe Illustrator 22.0.1, SVG Export Plug-In . SVG Version: 6.00 Build 0)  -->
<svg version="1.1" id="Layer_4" xmlns="http://www.w3.org/2000/svg" xmlns:xlink="http://www.w3.org/1999/xlink" x="0px" y="0px"
	 viewBox="0 0 512 512" style="enable-background:new 0 0 512 512;" xml:space="preserve">
<g>
	<g>
		<path d="M326.8,155.9c0-26.9,0-53.9,0-80.8c10.8,0,21.7,0,32.5,0C324.9,50,290.5,25,256.2,0C221.8,25,187.4,50,153,75.1
			c10.8,0,21.7,0,32.5,0c0,26.9,0,53.9,0,80.8C124,202.3,62.4,248.7,0.9,295.1c7.9,0,15.7,0,23.5,0c15.7,0,31.4,0,47.1,0
			c0,60.8,0,121.6,0,182.4c47.1,0,94.2,0,141.2,0c0.1-41.2-0.1-62.4,0.1-103.6c-0.6-22.5,19.6-42.8,42.3-42.8c0.4,0,0.8,0,1.2,0
			c0.3,0,0.7,0,1,0c22.8,0,42.9,20.3,42.3,42.9c0.2,41.2,0,62.3,0.1,103.5c47.1,0,94.2,0,141.2,0c0-60.8,0-121.6,0-182.4
			c5.5,0,10.9,0,16.4,0c9.3,0,18.7,0,28.1,0c8.7,0,17.4,0,26.2,0C449.9,248.7,388.3,202.3,326.8,155.9z M207.3,107.3
			c-0.1-17.1,9.8-33.9,25-42.1c7.2-4.1,15.5-6.1,23.8-6.1c9,0,18,2.4,25.6,7.1c14.3,8.5,23.4,24.7,23.3,41.2
			c0.1,17.9-0.1,35.7,0,53.6c-32.6,0-65.2,0-97.8,0C207.4,143.1,207.1,125.2,207.3,107.3z M388.9,295.1v130.4h-37.2
			c0-23.3,0-27.3-0.1-51.1c0.4-24.2-9.4-48.3-26.9-66.3c-17.9-18.4-42.5-29-67.4-29c-0.3,0-0.6,0-0.9,0c-0.4,0-0.9,0-1.3,0
			c-25,0-49.5,10.6-67.5,29c-17.5,18-27.2,42-26.8,66.2c-0.1,23.7-0.1,27.8-0.1,51.1h-37.2V295.1v-27.3c4.4-3.3,8.8-6.7,13.2-10
			c19.9-15,39.7-29.9,59.6-44.9h11h97.8h11c24.3,18.3,48.5,36.6,72.8,54.9V295.1z M294.2,129.5c-3.4-1-7.8-0.6-10.4-3.4
			c-1.5-11.6,2.2-25.1-5.9-35c-4.3-6.3-11.8-8.9-18.7-11.3c1-1.3,2.8-4,3.7-5.4c-2.5-2.1-4.9-5.9-8.8-4.6c-4.8,1.8-2.3,6.9-1.8,10.4
			c-6.6,2.2-13.7,4.8-17.8,10.8c-8.1,9.9-4.2,23.2-5.9,34.7c-2.3,3.4-7,2.5-10.3,3.5c0,3.4,0,6.7,0,10c25.3,0,50.7,0,76.1,0
			C294.2,136.2,294.2,132.9,294.2,129.5z M244.1,145.1c2.5,4.7,5.5,11,12,10.6c6.4,0.4,9.5-5.8,12-10.6
			C260.2,144.8,252.2,144.8,244.1,145.1z M49.7,509.8c137.6,0,275.2,0,412.8,0c0-7.2,0-14.3,0-21.5c-137.6,0-275.2,0-412.8,0
			C49.7,495.5,49.7,502.6,49.7,509.8z M257.6,217.5c-15.8,0-28.6,12.8-28.6,28.6c0,15.8,12.8,28.6,28.6,28.6
			c15.8,0,28.6-12.8,28.6-28.6C286.2,230.3,273.4,217.5,257.6,217.5z M270.1,251.7h-15.4c-1.6,0-2.9-1.3-2.9-3c0-0.3,0-11.3,0-11.3
			c0-2.2,1.7-4,3.8-4c2.1,0,3.8,1.8,3.8,4v8.3h10.6c1.6,0,2.9,1.3,2.9,3C273,250.4,271.7,251.7,270.1,251.7z M128.5,387.8h28.2
			v-53.7h-28.2V387.8z M128.5,420h28.2v-21.5h-28.2V420z M384.9,334.1h-28.2v53.7h28.2V334.1z M384.9,398.5h-28.2V420h28.2V398.5z"
			/>
	</g>
</g>
</svg>
