<?xml version="1.0" encoding="utf-8"?>
<!-- Generator: Adobe Illustrator 22.0.1, SVG Export Plug-In . SVG Version: 6.00 Build 0)  -->
<svg version="1.1" id="Layer_2_1_" xmlns="http://www.w3.org/2000/svg" xmlns:xlink="http://www.w3.org/1999/xlink" x="0px" y="0px"
	 viewBox="0 0 512 512" style="enable-background:new 0 0 512 512;" xml:space="preserve">
<g id="_x35_2">
	<path d="M12.8,437.3l99.8-99.9l8.2,8.2l17.7-17.7C113.7,293.9,99,251.9,99,206.5C99,92.4,191.5,0,305.5,0S512,92.4,512,206.5
		s-92.4,206.5-206.5,206.5c-45.5,0-87.5-14.7-121.6-39.6L166.2,391l8.2,8.2l-99.8,99.9c-8.5,8.5-19.7,12.8-30.9,12.8
		c-11.2,0-22.3-4.3-30.9-12.8C-4.3,482-4.3,454.4,12.8,437.3z M305.5,360.9c85.3,0,154.5-69.2,154.5-154.5S390.8,52,305.5,52
		S151,121.2,151,206.5S220.2,360.9,305.5,360.9z"/>
</g>
</svg>
