<?xml version="1.0" encoding="utf-8"?>
<!-- Generator: Adobe Illustrator 22.0.1, SVG Export Plug-In . SVG Version: 6.00 Build 0)  -->
<svg version="1.1" id="Layer_2_1_" xmlns="http://www.w3.org/2000/svg" xmlns:xlink="http://www.w3.org/1999/xlink" x="0px" y="0px"
	 viewBox="0 0 512 512" style="enable-background:new 0 0 512 512;" xml:space="preserve">
<g>
	<g>
		<path d="M499.2,437.4l-99.8-99.9l-8.2,8.2L373.5,328c24.8-34.1,39.5-76.1,39.5-121.5C413,92.5,320.5,0,206.5,0S0,92.5,0,206.5
			S92.5,413,206.5,413c45.5,0,87.5-14.7,121.6-39.6l17.7,17.7l-8.2,8.2l99.8,99.9c8.5,8.5,19.7,12.8,30.9,12.8
			c11.2,0,22.4-4.3,30.9-12.8C516.3,482.1,516.3,454.5,499.2,437.4z M206.5,361C121.2,361,52,291.8,52,206.5S121.2,52,206.5,52
			S361,121.2,361,206.5S291.8,361,206.5,361z"/>
	</g>
	<path d="M269.7,150.5H80.9c-3,6.5-5.4,13.4-7.3,20.5h2.3c3.6,0,6.5,2.9,6.5,6.5s-2.9,6.5-6.5,6.5h-5.1c-1,6.1-1.6,12.3-1.8,18.5
		h97.1l-9.3-27.1l83.1,27.1h29.8c14.3,0,26.1-11.7,26.1-26.1C295.8,162.2,284.1,150.5,269.7,150.5z M262,190.4c-7.1,0-13-5.7-13-13
		c0-7.1,5.7-13,13-13c7.1,0,13,5.7,13,13C274.9,184.7,269.2,190.4,262,190.4z M206.6,69c-53,0-99.1,30-122.1,73.9h185.2
		c18.5,0,33.5,15,33.5,33.5c0,18.5-15,33.5-33.5,33.5h-7l10.7,3.6L249,230.9c-1.3,0.9-2.2,2.4-2.3,4c-0.1,1.6,0.5,3.2,1.6,4.4
		l29.8,29.8l-6.3,6.3l-19.9,19.9l-29.8-29.7c-0.5-0.5-0.9-0.8-1.6-1.1c-0.8-0.3-1.5-0.6-2.3-0.6h-0.6c-0.7,0.1-1.3,0.2-1.7,0.5
		c-0.9,0.5-1.7,1.1-2.2,2L196.4,291l-27.8-80.9H69c1.7,74.5,62.7,134.4,137.6,134.4c76,0,137.6-61.6,137.6-137.6S282.6,69,206.6,69z
		 M269.7,150.5H80.9c-3,6.5-5.4,13.4-7.3,20.5h2.3c3.6,0,6.5,2.9,6.5,6.5s-2.9,6.5-6.5,6.5h-5.1c-1,6.1-1.6,12.3-1.8,18.5h97.1
		l-9.3-27.1l83.1,27.1h29.8c14.3,0,26.1-11.7,26.1-26.1C295.8,162.2,284.1,150.5,269.7,150.5z M262,190.4c-7.1,0-13-5.7-13-13
		c0-7.1,5.7-13,13-13c7.1,0,13,5.7,13,13C274.9,184.7,269.2,190.4,262,190.4z M269.7,150.5H80.9c-3,6.5-5.4,13.4-7.3,20.5h2.3
		c3.6,0,6.5,2.9,6.5,6.5s-2.9,6.5-6.5,6.5h-5.1c-1,6.1-1.6,12.3-1.8,18.5h97.1l-9.3-27.1l83.1,27.1h29.8c14.3,0,26.1-11.7,26.1-26.1
		C295.8,162.2,284.1,150.5,269.7,150.5z M262,190.4c-7.1,0-13-5.7-13-13c0-7.1,5.7-13,13-13c7.1,0,13,5.7,13,13
		C274.9,184.7,269.2,190.4,262,190.4z"/>
</g>
</svg>
