<?xml version="1.0" encoding="utf-8"?>
<!-- Generator: Adobe Illustrator 21.1.0, SVG Export Plug-In . SVG Version: 6.00 Build 0)  -->
<svg version="1.1" id="Layer_3" xmlns="http://www.w3.org/2000/svg" xmlns:xlink="http://www.w3.org/1999/xlink" x="0px" y="0px"
	 viewBox="0 0 429.4 512" style="enable-background:new 0 0 429.4 512;" xml:space="preserve">
<g id="_x35_2">
	<path d="M227.7,243.3c4.5,0,8.3,3.4,8.8,7.9l2.5,53.5c-9.1-1.3-17.6-2.2-24-2.2s-14.9,0.9-24,2.2l2.5-53.5c0.5-4.5,4.3-7.9,8.8-7.9
		H227.7L227.7,243.3z M227.7,191.3h-25.6c-32,0-58.5,24.8-60.7,56.7l-4.8,105.2c-0.3,6.9,5.2,12.6,12,12.6c0,0,49.7-11.3,66.3-11.3
		c16.6,0,66.3,11.3,66.3,11.3c6.9,0,12.3-5.7,12-12.6L288.4,248C286.2,216.1,259.7,191.3,227.7,191.3L227.7,191.3z"/>
	<path d="M411.5,395.3h-26.6l-11.6-165.2c-4.2-61.4-50.2-110.6-109-120.5V89.8h17.9c13.7,0,24.8-11.1,24.8-24.8V53.8
		C307,24.1,283,0,253.3,0h-76.2c-29.7,0-53.8,24.1-53.8,53.8V65c0,13.7,11.1,24.8,24.8,24.8h18v19.7
		c-59.2,9.6-105.5,58.9-109.7,120.5L45,395.4c-1.3-0.1-2.5-0.1-3.8-0.1l-23.3,0c-9.8,0-17.9,8.1-17.9,18c0,1.2,0.2,2.4,0.7,3.5
		c2,52.7,44.7,95.3,97.7,95.3H331c53,0,96.4-42.4,98.4-95.2c0-1.3,0-2.4,0-3.6C429.4,403.4,421.3,395.3,411.5,395.3z M183.9,89.8
		h62.7v18c-1.3,0-2.7-0.1-4-0.1h-55.3c-1.1,0-2.3,0-3.4,0V89.8z M108.3,233.6c1.4-20.1,10.2-38.7,24.9-52.5
		c14.7-13.8,33.9-21.3,54-21.3h55.3c20.1,0,39.3,7.6,54,21.3c14.7,13.7,23.6,32.4,24.9,52.5L334,410.3c-3.7,0.1-7.5-0.2-11.2-1
		l-12.5-2.7c-63-13.6-128.2-13.6-191.2,0l-12.5,2.7c-3.5,0.8-7.1,1.1-10.6,1L108.3,233.6z"/>
</g>
</svg>
