<?xml version="1.0" encoding="utf-8"?>
<!-- Generator: Adobe Illustrator 21.1.0, SVG Export Plug-In . SVG Version: 6.00 Build 0)  -->
<svg version="1.1" id="Layer_1" xmlns="http://www.w3.org/2000/svg" xmlns:xlink="http://www.w3.org/1999/xlink" x="0px" y="0px"
	 viewBox="0 0 512 512" style="enable-background:new 0 0 512 512;" xml:space="preserve">
<g id="_x35_2">
	<path d="M512,130.5V19.6C512,8.8,503.2,0,492.4,0H19.6C8.8,0,0,8.8,0,19.6v110.9c0,10.8,8.8,19.6,19.6,19.6H230v81.5H19.6
		C8.8,231.6,0,240.3,0,251.1V362c0,10.8,8.8,19.6,19.6,19.6H230v53.3h-10.1c-2.8,0-5.1,2.3-5.1,5.1v7.5H114.2v52h100.7v7.4
		c0,2.8,2.3,5.1,5.1,5.1h72.4c2.8,0,5.1-2.3,5.1-5.1v-7.4h100.6v-52H297.5V440c0-2.8-2.3-5.1-5.1-5.1H282v-53.3h210.4
		c10.8,0,19.6-8.8,19.6-19.6V251.1c0-10.8-8.8-19.6-19.6-19.6H282v-81.5h210.4C503.2,150.1,512,141.3,512,130.5z M460,283.6v46H52
		v-46H460z M52,98.1V52h408v46H52z"/>
	<path d="M78.7,320.3c-7,0-12.8-5.7-12.8-12.8c0-7,5.7-12.8,12.8-12.8c7,0,12.8,5.7,12.8,12.8C91.4,314.6,85.7,320.3,78.7,320.3z
		 M78.7,88.8c-7,0-12.8-5.7-12.8-12.8c0-7,5.7-12.8,12.8-12.8c7,0,12.8,5.7,12.8,12.8C91.4,83,85.7,88.8,78.7,88.8z"/>
</g>
</svg>
