<?xml version="1.0" encoding="utf-8"?>
<!-- Generator: Adobe Illustrator 21.1.0, SVG Export Plug-In . SVG Version: 6.00 Build 0)  -->
<svg version="1.1" id="Layer_1" xmlns="http://www.w3.org/2000/svg" xmlns:xlink="http://www.w3.org/1999/xlink" x="0px" y="0px"
	 viewBox="0 0 512 512" style="enable-background:new 0 0 512 512;" xml:space="preserve">
<g>
	<path d="M476.9,179.6l-22-4.6l12.3-18.8c11.5-17.7,9.1-41.4-5.9-56.3l-47.5-47.5c-14.9-14.9-38.6-17.4-56.3-5.9l-18.8,12.3l-4.6-22
		C329.6,16,311.1,1,290,1h-67.2c-21.1,0-39.6,15-44,35.7l-4.6,22l-18.8-12.3c-17.7-11.5-41.4-9.1-56.3,5.9L51.4,99.8
		c-14.9,14.9-17.4,38.6-5.9,56.3L57.8,175l-22,4.6c-20.7,4.4-35.7,22.9-35.7,44v67.2c0,21.1,15,39.6,35.7,44l22,4.6l-12.3,18.8
		c-11.5,17.7-9.1,41.4,5.9,56.3L99,462.2c14.9,14.9,38.6,17.4,56.3,5.9l18.8-12.3l4.6,22c4.4,20.7,22.9,35.7,44,35.7H290
		c21.1,0,39.6-15,44-35.7l4.6-22l18.8,12.3c17.7,11.5,41.4,9.1,56.3-5.9l47.5-47.5c14.9-14.9,17.4-38.6,5.9-56.3l-12.3-18.8l22-4.6
		c20.7-4.4,35.7-22.9,35.7-44v-67.2C512.6,202.5,497.6,184,476.9,179.6z M465.3,289l-57.7,12.2l-4.6,12c-1.1,2.8-2.2,5.5-3.4,8.2
		l-5.3,11.7l32.2,49.4l-44.9,44.9l-49.5-32.3l-11.7,5.2c-2.6,1.2-5.3,2.3-8.1,3.3l-12,4.6l-12.2,57.9h-63.5l-12.2-58l-12-4.6
		c-2.7-1-5.3-2.1-7.9-3.3l-11.7-5.2L131,427.5l-44.9-44.9l32.4-49.8l-5.3-11.8c-1.1-2.4-2.1-5-3.2-7.8l-4.6-12L47.4,289v-63.5
		l58.1-12.3l4.6-12c1-2.7,2.1-5.3,3.2-7.8l5.2-11.7l-32.4-49.7L131,87l49.6,32.3l11.7-5.3c2.5-1.1,5.2-2.3,8-3.3l12-4.6l12.2-57.9
		h63.5l12.2,57.8l12,4.6c2.7,1,5.5,2.2,8.1,3.3l11.7,5.2L381.7,87l44.9,44.9l-32.2,49.4l5.3,11.8c1.2,2.6,2.3,5.4,3.4,8.2l4.6,12
		l57.7,12.2V289z"/>
	<path d="M256.4,128.9c-70.6,0-128,57.4-128,128s57.4,127.9,128,127.9c70.5,0,127.9-57.4,127.9-127.9S326.9,128.9,256.4,128.9z
		 M256.4,337.6c-44.6,0-80.7-36.1-80.7-80.7c0-44.6,36.1-80.7,80.7-80.7s80.7,36.1,80.7,80.7C337.1,301.4,300.9,337.6,256.4,337.6z"
		/>
</g>
</svg>
