<?xml version="1.0" encoding="utf-8"?>
<!-- Generator: Adobe Illustrator 21.1.0, SVG Export Plug-In . SVG Version: 6.00 Build 0)  -->
<svg version="1.1" id="Layer_2" xmlns="http://www.w3.org/2000/svg" xmlns:xlink="http://www.w3.org/1999/xlink" x="0px" y="0px"
	 viewBox="0 0 487.4 512" style="enable-background:new 0 0 487.4 512;" xml:space="preserve">
<path d="M253.9,123.7c16-10.4,20.6-31.8,10.2-47.8c-1.1-1.6-2.2-3.1-3.6-4.6l20.2-71h-32.8l-13.2,41.2L221.5,0.3h-32.6l20.1,71
	c-12.9,14-12,35.9,2,48.8c1.6,1.5,3.3,2.8,5.2,3.9L2.9,276.1c-1.4,1.1-2.4,2.7-2.9,4.4v226.2l174.1,5.2l313.2-5.2V278.5L253.9,123.7
	z M234.8,77.2c9.6,0,17.4,7.8,17.4,17.4c0,9.6-7.8,17.4-17.4,17.4c-9.6,0-17.4-7.8-17.4-17.4C217.4,85,225.1,77.2,234.8,77.2z
	 M41.5,474l-18.1,0.2V306.8l18.1-4.1V474z M98.4,473.3l-18.1,0.2V294l18.1-4.1V473.3z M150.7,472.7l-18.1,0.2V282.2l18.1-4.1V472.7z
	 M165.9,230.5c-0.5,1-0.8,2.2-0.8,3.3v-0.3L43.6,266.8l167.1-116.5L165.9,230.5z M257.6,473l-32-0.2v-194l32,4.1V473z M350,473.6
	l-32-0.2V290.6l32,4.1V473.6z M183.1,235l53.6-98.4l114.8,124.3L183.1,235z M450.6,474.2l-32-0.2V303.4l32,4.1V474.2z M377.7,264.9
	l-104.2-110l181.6,122L377.7,264.9z"/>
</svg>
