<?xml version="1.0" encoding="utf-8"?>
<!-- Generator: Adobe Illustrator 21.1.0, SVG Export Plug-In . SVG Version: 6.00 Build 0)  -->
<svg version="1.1" id="Layer_6" xmlns="http://www.w3.org/2000/svg" xmlns:xlink="http://www.w3.org/1999/xlink" x="0px" y="0px"
	 viewBox="0 0 567.9 512" style="enable-background:new 0 0 567.9 512;" xml:space="preserve">
<g id="_x35_2_1_">
	<path d="M411,342.1V460H52V102h76.8l68.8-52H50C22.4,50,0,72.4,0,100v362c0,27.6,22.4,50,50,50h363c27.6,0,50-22.4,50-50V304.5
		L411,342.1z"/>
	<path d="M139.1,246.4c0,24.8,10,58.5,29.9,101.2c0.6,1.5,5.8,13.3,8.9,16.9c1.7,2.6,3.8,3.9,6.4,3.9c6.9,0,6.4-13.7,6.4-19.1
		c-0.5-10-0.9-19.2-0.9-27.4c0-104.4,72.5-126.1,118.2-126.1h103.7v68.8c0,8.1,9.8,12.3,15.7,6.7l140.5-134.1L427.2,3.7
		c-5.9-5.6-15.6-1.4-15.6,6.7v70.3h-53.2C205.9,80.7,139.1,136.8,139.1,246.4z M179.2,220.2c8.4-56.4,44.7-101.1,176.8-101.1
		c5.5,0,45.4,0,45.4,0h42.3V73.4l68,63.9l-68,64.7v-44.5h-42.3c0,0-80.3,0-85.7,0C254.8,157.4,209,177.8,179.2,220.2z"/>
</g>
</svg>
