<?xml version="1.0" encoding="utf-8"?>
<!-- Generator: Adobe Illustrator 21.1.0, SVG Export Plug-In . SVG Version: 6.00 Build 0)  -->
<svg version="1.1" id="Layer_1" xmlns="http://www.w3.org/2000/svg" xmlns:xlink="http://www.w3.org/1999/xlink" x="0px" y="0px"
	 viewBox="0 0 305.1 512" style="enable-background:new 0 0 305.1 512;" xml:space="preserve">
<style type="text/css">
	.st0{fill:#010101;}
</style>
<g>
	<path d="M208.7,52.1c2.2,3.5,4.7,6.7,7.6,9.6c9.7,10,23,16.1,36.9,17.1v354.4c-18.8,1.3-35.1,11.7-44.6,26.8H96.6
		c-2.2-3.5-4.7-6.7-7.6-9.6c-9.8-10.1-23.2-16.2-37.1-17.2L52,79c18.9-1.2,35.3-11.7,44.8-27H208.7 M236.2,0.1h-167
		c-8.8,0.1-15.8,7.2-15.8,16v5.8c0,2.9-2.3,5.3-5.2,5.3c0,0-0.1,0-0.1,0H37.7c-3,0-5.4-2.4-5.3-5.3v-7.5c0-2.9-2.3-5.3-5.2-5.3
		c0,0-0.1,0-0.1,0L5.3,9c-3,0-5.4,2.4-5.3,5.3l-0.1,483.5c0,2.9,2.3,5.3,5.2,5.3c0,0,0.1,0,0.1,0l21.8,0.1c3,0,5.4-2.4,5.3-5.3v-7.5
		c0-2.9,2.3-5.3,5.2-5.3c0,0,0.1,0,0.1,0H48c3,0,5.4,2.4,5.3,5.3v5.8c0,8.8,7.1,15.8,15.8,15.8c0,0,0,0,0,0H236
		c8.8,0,15.8-7.1,15.8-15.8v-5.8c0-2.9,2.3-5.3,5.2-5.3c0,0,0.1,0,0.1,0h10.3c3,0,5.4,2.4,5.3,5.3v7.5c0,2.9,2.3,5.3,5.2,5.3
		c0,0,0.1,0,0.1,0h21.8c3,0,5.4-2.4,5.3-5.3V14.3c0.2-3-2.1-5.4-5-5.4c0,0-0.1,0-0.1,0h-21.8c-3,0-5.4,2.4-5.3,5.3v7.5
		c0,2.9-2.3,5.3-5.2,5.3c0,0-0.1,0-0.1,0l-10.3,0c-3,0-5.4-2.4-5.3-5.3v-5.8C252,7.1,244.9,0.1,236.2,0.1L236.2,0.1z"/>
	<path class="st0" d="M169.6,100.1h8.8c3.8,0,7-3.6,7-8.1v-0.1c0-4.5-3-8.1-6.9-8.1l-51.3-0.1c-3.8,0-7,3.6-7,8.1v0.1
		c0,4.5,3,8.1,7,8.1l8.6,0.2c1.8,0,3.3,1.8,3.3,3.9v37.4c-4.8,3-8.5,7.5-10.3,13l-1.7,0c-3.8,0-7,3.6-7,8.1v0.1c0,4.5,3,8.1,7,8.1h2
		c1.8,5.1,5.5,9.3,10,12.2v34c-11.5,5.1-19.3,16.5-19.3,29.8c0.1,13.2,8,24.7,19.3,29.8v50.8c-4.7,2.8-8.3,7.2-10.2,12.4H127
		c-3.8,0-7,3.6-7,8.1v0.1c0,4.5,3,8.1,7,8.1l1.8,0c1.9,5.3,5.5,9.8,10.3,12.7v37.8c0,2.1-1.5,3.9-3.3,3.9H127c-3.8,0-7,3.6-7,8.1
		v0.1c0,4.5,3,8.1,7,8.1l51.2,0c3.8,0,7-3.6,7-8.1v-0.1c0-4.5-3-8.1-7-8.1h-8.8c-1.8,0-3.3-1.8-3.3-3.9v-38.9
		c3.9-2.9,6.9-6.9,8.6-11.5h3.5c3.8,0,7-3.6,7-8.1v-0.1c0-4.5-3-8.1-7-8.1h-3.5c-1.6-4.6-4.6-8.6-8.5-11.3v-52.1
		c11.2-5.2,19.1-16.5,19.1-29.7s-7.8-24.5-19.1-29.7v-35.3c3.7-2.8,6.6-6.5,8.3-10.9h3.8c3.8,0,7-3.6,7-8.1v-0.1c0-4.5-3-8.1-7-8.1
		h-3.4c-1.6-4.9-4.7-9.1-8.7-12V104C166.2,101.9,167.7,100.1,169.6,100.1z"/>
</g>
</svg>
