<?xml version="1.0" encoding="utf-8"?>
<!-- Generator: Adobe Illustrator 21.1.0, SVG Export Plug-In . SVG Version: 6.00 Build 0)  -->
<svg version="1.1" id="Layer_1" xmlns="http://www.w3.org/2000/svg" xmlns:xlink="http://www.w3.org/1999/xlink" x="0px" y="0px"
	 viewBox="0 0 512.7 512.6" style="enable-background:new 0 0 512.7 512.6;" xml:space="preserve">
<g>
	<path d="M424.4,157.7c-7.4,14.8-4.8,31.6,4.3,42.1l-229,229c-8.3-8.3-27.6-12.8-42.5-4.3L87,354.2c7.1-13.3,5.6-29.9-3-40.5
		L313.6,84.3c12.2,8.8,26.2,10.1,40.5,3.1l62.2,62.2 M472.4,132.2C472.4,132.2,472.4,132.2,472.4,132.2L381.2,41
		c-6.3-6.1-16.3-6.1-22.5,0.1l-4.1,4.1c-2.1,2.1-5.4,2.1-7.4,0.1c0,0-0.1-0.1-0.1-0.1l-7.3-7.3c-2.1-2.1-2.1-5.5,0-7.5l5.3-5.3
		c2.1-2.1,2.1-5.4,0.1-7.4c0,0-0.1-0.1-0.1-0.1L329.7,2.1c-2.1-2.1-5.5-2.1-7.5,0L1.8,322.4c-2.1,2.1-2.1,5.4-0.1,7.4
		c0,0,0.1,0.1,0.1,0.1l15.4,15.5c2.1,2.1,5.5,2.1,7.5,0l5.3-5.3c2.1-2.1,5.4-2.1,7.4-0.1c0,0,0.1,0.1,0.1,0.1l7.3,7.3
		c2.1,2.1,2.1,5.5,0,7.5l-4.1,4.1c-6.2,6.2-6.2,16.2,0,22.4l91.1,91.1c6.2,6.2,16.2,6.2,22.4,0l4.1-4.1c2.1-2.1,5.4-2.1,7.4-0.1
		c0,0,0.1,0.1,0.1,0.1l7.3,7.3c2.1,2.1,2.1,5.5,0,7.5l-5.3,5.3c-2.1,2.1-2.1,5.4-0.1,7.4c0,0,0.1,0.1,0.1,0.1l15.4,15.4
		c2.1,2.1,5.5,2.1,7.5,0L511.1,191c2.3-2,2.3-5.3,0.3-7.3c0,0-0.1-0.1-0.1-0.1l-15.4-15.4c-2.1-2.1-5.5-2.1-7.5,0l-5.3,5.3
		c-2.1,2.1-5.4,2.1-7.4,0.1c0,0-0.1-0.1-0.1-0.1l-7.3-7.3c-2.1-2.1-2.1-5.5,0-7.5l4.1-4.1C478.6,148.4,478.6,138.4,472.4,132.2
		L472.4,132.2z"/>
	<path d="M391.1,160.2l-0.1,0.1c-3.2,3.2-8,3.5-10.7,0.8l-6.2-6.2c-1.3-1.3-3.6-1.1-5.1,0.4l-27.2,27.2c0.8,4.9,0,10-2.3,14.6
		l2.4,2.4c2.8,2.8,2.4,7.5-0.8,10.7l-0.1,0.1c-3.2,3.2-8,3.5-10.7,0.8l-2.7-2.7c-4.3,1.9-9,2.5-13.6,1.8l-24.9,24.9
		c4.3,11.6,1.8,25.2-7.5,34.5s-22.9,11.8-34.5,7.5L210.2,314c0.8,4.7,0.1,9.6-2,14l2.5,2.5c2.8,2.8,2.4,7.5-0.8,10.7l-0.1,0.1
		c-3.2,3.2-8,3.5-10.7,0.8l-2.5-2.5c-4.5,2.1-9.4,2.8-14.2,2.1l-27.5,27.5c-1.5,1.5-1.7,3.8-0.4,5.1l6.2,6.2
		c2.8,2.8,2.4,7.5-0.8,10.7l-0.1,0.1c-3.2,3.2-8,3.5-10.7,0.8l-36.2-36.2c-2.8-2.8-2.4-7.5,0.8-10.7l0.1-0.1c3.2-3.2,8-3.5,10.7-0.8
		l6.2,6.2c1.3,1.3,3.6,1.1,5.1-0.4l26.7-26.7c-1.3-5.4-0.7-11.1,1.7-16.2l-1.3-1.3c-2.8-2.8-2.4-7.5,0.8-10.7l0.1-0.1
		c3.2-3.2,8-3.5,10.7-0.8l1.3,1.3c5-2.4,10.7-2.9,16-1.6l35.9-35.9c-4.4-11.6-1.9-25.3,7.4-34.7c9.4-9.4,23-11.9,34.7-7.4l24-24
		c-1.2-5.2-0.8-10.8,1.5-15.7l-1.4-1.4c-2.8-2.8-2.4-7.5,0.8-10.7l0.1-0.1c3.2-3.2,8-3.5,10.7-0.8l1.2,1.2c5.2-2.6,11-3.2,16.5-1.9
		l26.4-26.4c1.5-1.5,1.7-3.8,0.4-5.1l-5.9-6.2c-2.8-2.8-2.4-7.5,0.8-10.7l0.1-0.1c3.2-3.2,8-3.5,10.7-0.8l8.6,8.6l-0.1,0.1
		l27.7,27.7C394.7,152.3,394.3,157,391.1,160.2z"/>
</g>
</svg>
