<?xml version="1.0" encoding="utf-8"?>
<!-- Generator: Adobe Illustrator 21.1.0, SVG Export Plug-In . SVG Version: 6.00 Build 0)  -->
<svg version="1.1" id="Layer_2" xmlns="http://www.w3.org/2000/svg" xmlns:xlink="http://www.w3.org/1999/xlink" x="0px" y="0px"
	 viewBox="0 0 417 512" style="enable-background:new 0 0 417 512;" xml:space="preserve">
<g>
	<path id="_x35_2_3_" d="M208.7,57.1L365,127.5V233c0,53.7-16.2,101.4-49.4,145.8l-0.1,0.1l-0.1,0.1c-29.6,40.1-64.6,66-106.7,79
		c-42.1-13-77.3-39-107.2-79.1l0-0.1l0-0.1C68.2,334.4,52,286.7,52,233V127.5L208.7,57.1 M208.7,0.1L0,93.9V233
		c0,64.7,19.9,123.7,59.8,177c39.9,53.6,89.5,87.6,148.9,102c59.4-14.4,108.9-48.4,148.5-102c39.9-53.3,59.8-112.3,59.8-177V93.9
		L208.7,0.1L208.7,0.1z"/>
	<path d="M305.2,142.3c-14.7,0-21,10-21.8,10.9L177,304.1l-41.4-53.4c-7.4-12.7-23.7-17.2-36.3-10.2s-16.8,23-9.4,35.7l57,80.1
		c7.4,12.7,23.7,17.2,36.3,10.2c2.3-1.3,4-3.2,5.8-5l128.5-169.6c0.7-0.7,13.2-15.5,13.2-24.1C330.6,154.9,321.1,142.3,305.2,142.3z
		"/>
</g>
</svg>
