<?xml version="1.0" encoding="utf-8"?>
<!-- Generator: Adobe Illustrator 21.1.0, SVG Export Plug-In . SVG Version: 6.00 Build 0)  -->
<svg version="1.1" id="Layer_2" xmlns="http://www.w3.org/2000/svg" xmlns:xlink="http://www.w3.org/1999/xlink" x="0px" y="0px"
	 viewBox="0 0 417 512" style="enable-background:new 0 0 417 512;" xml:space="preserve">
<g>
	<path id="_x35_2_3_" d="M208.7,57.1L365,127.5V233c0,53.7-16.2,101.4-49.4,145.8l-0.1,0.1l-0.1,0.1c-29.6,40.1-64.6,66-106.7,79
		c-42.1-13-77.3-39-107.2-79.1l0-0.1l0-0.1C68.2,334.4,52,286.7,52,233V127.5L208.7,57.1 M208.7,0.1L0,93.9V233
		c0,64.7,19.9,123.7,59.8,177c39.9,53.6,89.5,87.6,148.9,102c59.4-14.4,108.9-48.4,148.5-102c39.9-53.3,59.8-112.3,59.8-177V93.9
		L208.7,0.1L208.7,0.1z"/>
	<path d="M329.5,144.1c-27.3-1.7-75.9,30.8-121,81.1c-45.2-50.3-93.7-82.9-121-81.1l-4.1,0.3l3.3,2.4c39.8,29.1,75.2,62,105.2,97.9
		c-8.4,10.3-16.5,21.1-24.3,32.2l21.8,15.8c6-9.1,12.4-18.3,19.1-27.2c6.7,8.9,13.1,18,19.1,27.2l21.8-15.8
		c-7.8-11.1-15.9-21.9-24.3-32.2c30-35.8,65.4-68.8,105.2-97.9l3.3-2.4L329.5,144.1z M306.4,296.1c-10.8-19.4-26.8-18.3-39.3-14.3
		c-15.1,4.7-22.2,15-31.7,17.4c-14.2,3.5-15.2-5.8-15.3-8.3c0,2.9,0.2,14.8,6.2,16.8c7.1,2.3,17,1.6,17,1.6c1.5,1.3,2.5,4.1,3,6.4
		c0.3,1.2,1.1,2.1,2.3,2.4c2.4,0.6,6.3,4.4,6.9,8c0.4,2.4,3.4,4.1,5.9,4.5c1.9,0.3,3.5,1.7,3.8,3.6c0.8,4.3,2,11.7,7,10.1
		c4-2.5,5.8-6.4,5.4-11.6c-0.4-5.3-3-8.4-7.8-9.4c-0.7-7.1-8-9.7-10.2-10.7c-0.3-4-2.4-8.7-6-10.5c15.1-14.1,32-9,37.4-1.8
		c7.2,9.8,5.6,21.1,1.2,30.2c-1.9,4.3-18.3,24.5-19.7,26c2.3,1,4.7,2.4,10.5-3c0.9,1.5,2.1,16.6,11.1,18.6c2.3-2.4,3-5.7,3.6-9.6
		c2.1-12-11.5-10-3.4-20.4C296.8,338.4,317,315.2,306.4,296.1z M181,299.1c-9.5-2.4-16.6-12.6-31.7-17.4c-12.5-4-28.4-5.1-39.3,14.3
		c-10.6,19.1,9.6,42.3,12.1,46c8,10.4-5.5,8.4-3.4,20.4c0.7,3.9,1.3,7.2,3.6,9.6c9-2,10.3-17.1,11.1-18.6c5.8,5.4,8.2,4,10.4,3
		c-1.5-1.6-17.8-21.7-19.7-26c-4.3-9.2-6-20.4,1.2-30.2c5.3-7.2,22.2-12.3,37.3,1.8c-3.6,1.8-5.6,6.5-6,10.5
		c-2.1,1-9.4,3.6-10.1,10.7c-4.8,1-7.4,4.1-7.8,9.4c-0.4,5.2,1.5,9,5.4,11.6c5,1.5,6.2-5.9,6.9-10.1c0.4-1.9,1.9-3.3,3.8-3.6
		c2.5-0.4,5.5-2,5.9-4.5c0.6-3.5,4.5-7.4,6.8-8c1.1-0.3,2-1.2,2.3-2.4c0.5-2.3,1.5-5.1,3-6.4c0,0,9.9,0.7,17-1.6
		c6-2,6.3-13.9,6.2-16.8C196.2,293.4,195.2,302.7,181,299.1z"/>
</g>
</svg>
