<?xml version="1.0" encoding="utf-8"?>
<!-- Generator: Adobe Illustrator 21.1.0, SVG Export Plug-In . SVG Version: 6.00 Build 0)  -->
<svg version="1.1" id="Layer_1" xmlns="http://www.w3.org/2000/svg" xmlns:xlink="http://www.w3.org/1999/xlink" x="0px" y="0px"
	 viewBox="0 0 422 512" style="enable-background:new 0 0 422 512;" xml:space="preserve">
<path d="M352,52.5l-31-52H101l-31,52H0v230.3v228.7h422v-459H352z M119.7,32.5h186.7l18.2,37h0.3c0,0-42.3,54-44.4,56.5
	c-19.8-27.5-41.7-49-69.7-49s-51.2,21.5-66.8,49c-2.1-2.4-47-56.5-47-56.5L119.7,32.5z M369,459.5H52v-355h42
	c0,0,26.1,32.1,51.6,64.5c0,0,24.8-43.3,50.7-60.8c-5.1,41.5-27.3,190.4-27.3,199.3c0,17.8,41.6,82,41.6,82s41.4-64.2,41.4-82
	c0-6.1-20.1-156.3-26-198.9c19.5,11.4,35.9,31.6,55.4,60.4l49.6-64.5h38V459.5z"/>
</svg>
