<?xml version="1.0" encoding="utf-8"?>
<!-- Generator: Adobe Illustrator 22.0.1, SVG Export Plug-In . SVG Version: 6.00 Build 0)  -->
<svg version="1.1" id="Layer_1" xmlns="http://www.w3.org/2000/svg" xmlns:xlink="http://www.w3.org/1999/xlink" x="0px" y="0px"
	 viewBox="0 0 512 512" style="enable-background:new 0 0 512 512;" xml:space="preserve">
<style type="text/css">
	.st0{fill:#010101;}
</style>
<g id="_x35_2">
	<path class="st0" d="M472.2,28.3l-2.5-27H59.9L55.7,64H41.1h-6H35L3,512h19.2v0h427.7v0H469h1l42-50L472.2,28.3z M102,45.1
		c-0.1,7.4-13.8,13.3-28.5,16.7L74.4,29C87.8,31.9,102.2,37.7,102,45.1z M408,110l7.8,350H57.4l15.7-350H408z M387.7,64H122.3
		c3.6-4.8,5.4-9.9,5.4-15.2c0-7.1-3.5-13.9-9.7-19.8h273c-5.9,5.9-9.1,12.5-9.1,19.4C382,53.9,384,59.1,387.7,64z M468,470L448,64h0
		l0,0c-0.2,0-0.3,0-0.5,0h-1.6c-9.6-0.3-29.6-5-36.7-11.6c-1.5-1.4-2.2-2.8-2.2-4c0-10.7,15.6-16.7,35.3-19.4h11.4l26.1,429.8
		L468,470z"/>
	<path class="st0" d="M373.3,170.7c0-18.7-15.2-33.9-33.9-33.9s-33.9,15.2-33.9,33.9c0,14.4,9,26.8,21.8,31.7v20.3
		c0,48.4-35.6,87.8-79.4,87.8c-43.8,0-79.4-39.4-79.4-87.8v-20.3c12.7-4.9,21.8-17.2,21.8-31.7c0-18.7-15.2-33.9-33.9-33.9
		s-33.9,15.2-33.9,33.9c0,13.9,8.3,25.8,20.2,31v21c0,62.6,47.2,113.6,105.2,113.6c58,0,105.2-51,105.2-113.6v-20.9
		C364.9,196.4,373.3,184.5,373.3,170.7z"/>
</g>
</svg>
