<?xml version="1.0" encoding="utf-8"?>
<!-- Generator: Adobe Illustrator 21.1.0, SVG Export Plug-In . SVG Version: 6.00 Build 0)  -->
<svg version="1.1" id="Layer_2" xmlns="http://www.w3.org/2000/svg" xmlns:xlink="http://www.w3.org/1999/xlink" x="0px" y="0px"
	 viewBox="0 0 512 512" style="enable-background:new 0 0 512 512;" xml:space="preserve">
<g>
	<path d="M502.8,224.8H11.3V512h51.2V293.1h141.3V512h299V224.8L502.8,224.8z M239.1,495.3V293.1h211.3v202.2H239.1L239.1,495.3z"/>
	<polygon points="256.7,449 249.9,455.7 278.5,484.3 285.2,477.6 	"/>
	<polygon points="250.6,465.5 243.9,472.2 262,490.3 268.7,483.6 	"/>
	<path d="M402.7,51.9v11.2l5,10.6l22.4,47.3h-47h-39.9h-52h-8.1h-52h-52H171h-42H83.3L106,74.3l5.3-10.8V51.9H402.7 M425.3-0.1H88.7
		C72.4,0,59.3,13.2,59.3,29.4v22.1L0,172.9v15.9c0,5.3,4.3,9.6,9.6,9.6h23.9c5.3,0,9.6-4.3,9.6-9.6v-15.9h36v15.9
		c0,5.3,4.3,9.6,9.6,9.6h30.7c5.3,0,9.6-4.3,9.6-9.6v-15.9h42c0,0.1,0,8.7,0,15.9c0,5.3,4.3,9.6,9.6,9.6h40.9c5.3,0,9.6-4.3,9.6-9.6
		c0-7.2,0-15.8,0-15.9h52c0,0.1,0,8.7,0,15.9c0,5.3,4.3,9.6,9.6,9.6h40.9c5.3,0,9.6-4.3,9.6-9.6c0-7.2,0-15.8,0-15.9h42v15.9
		c0,5.3,4.3,9.6,9.6,9.6h30.7c5.3,0,9.6-4.3,9.6-9.6v-15.9h34v15.9c0,5.3,4.3,9.6,9.6,9.6h23.9c5.3,0,9.6-4.3,9.6-9.6v-15.9
		L454.7,51.4V29.3C454.7,13.1,441.5-0.1,425.3-0.1L425.3-0.1z"/>
	<polygon points="100.9,304.5 72.3,333.1 79,339.8 107.6,311.2 	"/>
	<polygon points="84.3,298.5 66.2,316.6 72.9,323.3 91,305.2 	"/>
</g>
</svg>
