<?xml version="1.0" encoding="utf-8"?>
<!-- Generator: Adobe Illustrator 22.0.1, SVG Export Plug-In . SVG Version: 6.00 Build 0)  -->
<svg version="1.1" id="Layer_1" xmlns="http://www.w3.org/2000/svg" xmlns:xlink="http://www.w3.org/1999/xlink" x="0px" y="0px"
	 viewBox="0 0 511 512" style="enable-background:new 0 0 511 512;" xml:space="preserve">
<style type="text/css">
	.st0{fill:#010101;}
</style>
<g>
	<path class="st0" d="M502.8,196.1h-6.4H369.5L317.1,25.4C313.7,14,304.6,5.1,293.2,1.9l-1.7-0.5c-13.1-3.8-27.2,0.5-36,10.9
		c-8.8-10.4-22.8-14.7-35.9-10.9l-1.7,0.5C206.4,5.1,197.4,14,194,25.3l-52.5,170.7H18.1H8.2c-4.7,0-8.5,3.8-8.5,8.5v48.7v2.5v11.1
		c0,4.6,3.7,8.4,8.4,8.4h21L71,477.6c4.1,19.8,21.6,33.9,41.7,34h285.5c20.2,0,37.6-14.2,41.8-34l41.9-202.4h21.2
		c4.5,0,8.2-3.7,8.2-8.2v-11.2v-2.5v-48.7C511.3,199.9,507.5,196.1,502.8,196.1z M25.8,227.1H133c-0.3,4,0.1,8,1.2,11.8
		c0.9,2.9,2.1,5.7,3.7,8.3H25.8V227.1z M308,239c0.9,2.9,2.1,5.7,3.7,8.3H199.2c1.6-2.6,2.8-5.3,3.7-8.2l3.7-11.9h97.8L308,239z
		 M373.1,247.2c1.6-2.6,2.9-5.4,3.7-8.3c1.1-3.9,1.5-7.8,1.2-11.8h107.1v20.1H373.1z M282.4,30.7c4.7-1.5,9.8,1.2,11.3,6l57,186.1
		c1.5,4.8-1.2,9.8-6,11.3c-4.8,1.5-9.8-1.2-11.3-6l-57-186.1C275,37.2,277.7,32.1,282.4,30.7z M255.5,68l39.3,128.1h-78.7L255.5,68z
		 M161,222.8l57-186.1c1.5-4.8,6.5-7.4,11.3-6c4.8,1.5,7.4,6.5,6,11.3l-57,186.1c-1.5,4.8-6.5,7.4-11.3,6
		C162.3,232.6,159.6,227.5,161,222.8z M417.4,449.7H93.2L64.1,309.1h382.5L417.4,449.7z"/>
	<path class="st0" d="M147.5,339.6c-3.1-8.1-12.3-12.2-20.4-9.1c-8.1,3.1-12.2,12.3-9.1,20.4l29.9,76.3c2.4,6.3,8.4,10.2,14.8,10.2
		c1.9,0,3.8-0.3,5.6-1c3.9-1.5,7.1-4.5,8.8-8.3c1.7-3.9,1.8-8.1,0.3-12.1L147.5,339.6z"/>
	<path class="st0" d="M255.5,329.4c-8.7,0-15.8,7.1-15.8,15.8v76.9c0,8.7,7.1,15.8,15.8,15.8c8.7,0,15.8-7.1,15.8-15.8v-76.9
		C271.3,336.5,264.2,329.4,255.5,329.4z"/>
	<path class="st0" d="M382.4,330.4c-8.1-3.1-17.3,1-20.4,9.1l-28.9,76.3c-3.1,8.1,1,17.3,9.1,20.4c1.8,0.7,3.7,1,5.6,1
		c6.4,0,12.4-3.9,14.8-10.2l28.9-76.3C394.6,342.7,390.5,333.5,382.4,330.4z"/>
	<circle class="st0" cx="170.2" cy="224.8" r="5.5"/>
	<circle class="st0" cx="341.7" cy="225.3" r="5.5"/>
</g>
</svg>
