<?xml version="1.0" encoding="utf-8"?>
<!-- Generator: Adobe Illustrator 21.1.0, SVG Export Plug-In . SVG Version: 6.00 Build 0)  -->
<svg version="1.1" id="Layer_1" xmlns="http://www.w3.org/2000/svg" xmlns:xlink="http://www.w3.org/1999/xlink" x="0px" y="0px"
	 viewBox="0 0 493.7 512" style="enable-background:new 0 0 493.7 512;" xml:space="preserve">
<g>
	<path d="M466.1,75.9c-5.7,20.2-18.1,40.9-37.2,62.3c-5.9,6.7-14.4,15.7-25.6,26.9l-6.7,6.9l-6.5,6.5c-4.8,5-9,9.4-12.8,13.3
		c-16.7,16.8-34.8,37-54.3,60.3c-7.3,9.1-15.7,19.7-25.2,31.8l-12.6,15.9l-12.6,15.9c-43.2,55.3-78.9,96.1-107,122.4
		c-18.8,17.2-42.1,31.7-70,43.5c-21.4,8.9-49.7,18.1-81.5,21.9c0,0,14.7,7.5,40.8,7.5c29,0,72.1-9.3,124.8-48.6
		c62.9-53.4,114-123.3,171.4-181.9c67.6-69,110.1-92.8,130.7-136.8C502.2,92.2,496.2,84.2,466.1,75.9z"/>
	<path d="M173.9,419.4c16.8-17.3,72.7-80.9,93.8-110.3c92.2-128.5,185.2-180.7,189.9-234.4C410.8,60.2,373.9,0.6,322.4,0.6
		c-7.2,0-13.7,1.6-19.4,5.1c-1.7,5.6,11.2,51-8.4,79.3c-13.8,23.3-16.7,27.3-42.7,37.1c-43.2,16.2-104.4,21.3-126.6,52.9
		c-10.8,23.6-20.5,172.1-116.1,263c-14.6,15-10.1,44.5,1.9,59.5C33.7,495.5,116.1,482.2,173.9,419.4z M171.5,202.3
		c27.5-14,85.6-23.5,109.5-35.9c-13,21.1-31.4,28.9-31.4,28.9s41.4-11,67.7-52.5c7.6-8,13.8-17.5,21.3-30
		c9.2-14,14.3-28.9,16.8-43.2c2.1,1.4,30.7,23.9,33,25.6c-30,30.9-83.7,84.5-109.8,117.4c-76.5,12.5-115.5,69.6-115.5,69.6
		s29.1-36.2,92.7-41.8c-5.3,6.6-69.4,89.2-89.6,110.4c3.5-19.4,9.3-35,11.3-39c0.1-0.1,0-0.3-0.1-0.2c-18.5,20-26.2,40.2-28.5,58.6
		c-2.9,3.1-5.6,6.1-8.4,8.9c3-23,11.5-44.5,24.9-68c-27.5,23.8-37.2,52.4-36.8,80.6c-0.1,0.1-12.5,12.8-34.2,24.4
		C142.6,346.9,165.5,237.3,171.5,202.3z"/>
</g>
</svg>
