<?xml version="1.0" encoding="utf-8"?>
<!-- Generator: Adobe Illustrator 21.1.0, SVG Export Plug-In . SVG Version: 6.00 Build 0)  -->
<svg version="1.1" id="Layer_2" xmlns="http://www.w3.org/2000/svg" xmlns:xlink="http://www.w3.org/1999/xlink" x="0px" y="0px"
	 viewBox="0 0 410.1 512" style="enable-background:new 0 0 410.1 512;" xml:space="preserve">
<g id="_x35_2">
	<path d="M405,412.9l-133,54.6c3.3,8.9,8.4,16.8,15.2,23.6c6.5,6.5,14,11.6,22.5,15.2c8.5,3.3,17.4,5,26.7,5.1
		c9.7,0.1,19-1.7,27.7-5.3c9.2-3.7,17.2-8.9,24-15.7c6.6-6.6,11.9-14.2,15.7-22.8c3.7-8.8,5.7-17.8,5.9-27.1
		C410,431.2,408.4,422,405,412.9z"/>
	<polygon points="380.3,352.1 248.2,406.4 269.1,458.6 400.9,404.6 	"/>
	<path d="M372.5,341.8l12.4-334c-0.1,0.1-0.3,0.3-0.4,0.4c0-0.6,0-1.1-0.2-1.6c-1-3.7-6.5-5.5-16.4-5.5c-0.8,0-1.5,0-2.3,0
		c-10.7,0.1-25.3,2.2-43.8,6.1c-39.1,8.1-85.1,21.7-137.9,40.7c-53.2,19-97.4,37.9-132.7,56.7c-17,8.7-29.6,16.5-38,23.3
		c-9,7-12.9,12.3-11.8,15.9c0.1,0.3,0.3,0.6,0.4,0.9c0,0.1,0.1,0.2,0.1,0.3L244,394.3h0l0.2,0.5l128.5-52.5L372.5,341.8z M293.2,90
		l32,237l-12.1,4.9l-53-227.5C271.7,99.7,282.7,94.9,293.2,90z M253.9,107.1l53,227.5l-11.4,4.7l-75.1-219.1
		C231.9,115.8,243.2,111.5,253.9,107.1z M213.7,122.7l74.6,219.5l-11.1,4.5l-95.2-212.8c5-1.7,10.2-3.5,15.4-5.4
		C202.8,126.6,208.3,124.6,213.7,122.7z M175.6,136.1L271.7,349l-11,4.5L141,147.2C152,143.9,163.5,140.2,175.6,136.1z M133.8,149.4
		l119.6,207.1l-1.1,0.5L199,302.1L95.9,159.5C107.6,156.8,120.3,153.4,133.8,149.4z M77.6,163.5L77.6,163.5L77.6,163.5
		c3.8-0.7,7.7-1.6,11.6-2.4l78.6,108.9L66.4,165.5C69.9,164.9,73.6,164.3,77.6,163.5z M332.3,324.2L300.4,86.7
		c5.6-2.6,11-5.3,16.3-7.9c4.8-2.4,9.3-4.7,13.6-7l11.4,240.9l-0.3,7.9L332.3,324.2z M344.5,234l-7.4-165.9
		c5.1-2.8,9.7-5.5,13.9-8.1L344.5,234z M302.3,50.2C269.6,66.6,231,82.7,186.6,98.4c-46.6,16.6-85,27.8-115.1,33.7
		c-13.7,2.7-24.2,4-31.4,4c-8.6,0-12.6-1.9-12-5.7c1.1-7,17.3-18.4,48.9-34.4c31.5-16,70.7-32.3,117.4-48.8
		c44.4-15.7,81.9-26.6,112.5-32.7c14.7-2.9,25.9-4.4,33.6-4.4c8.3,0,12.5,1.7,12.5,5.1C351.9,22.1,335,33.8,302.3,50.2z"/>
</g>
</svg>
