<?xml version="1.0" encoding="utf-8"?>
<!-- Generator: Adobe Illustrator 22.0.1, SVG Export Plug-In . SVG Version: 6.00 Build 0)  -->
<svg version="1.1" id="Layer_1" xmlns="http://www.w3.org/2000/svg" xmlns:xlink="http://www.w3.org/1999/xlink" x="0px" y="0px"
	 viewBox="0 0 512 512" style="enable-background:new 0 0 512 512;" xml:space="preserve">
<g id="_x35_2">
	<path d="M256,110L256,110c-85.6,0-155.1,69.4-155.1,155.1v167.6h310.1V265.1C411.1,179.5,341.6,110,256,110z M359.1,380.7H152.9
		V265.1c0-56.8,46.2-103.1,103.1-103.1c56.8,0,103.1,46.2,103.1,103.1V380.7z"/>
	<path d="M427.8,55.1c7.9-8,20.8-8,28.8,0c4,4,6,9.2,6,14.4c0,5.2-2,10.4-6,14.4l-36.4,36.4l-28.8-28.8L427.8,55.1z M235.7,20.3
		C235.7,9.1,244.8,0,256,0c5.6,0,10.7,2.3,14.4,6c3.7,3.7,6,8.8,6,14.4v51.5h-40.7V20.3z M206,211.1c0,0-13.5,3.7-13.5,74.5h-17.9
		C174.7,209.7,206,211.1,206,211.1z M192.9,291.4v18.2l-18.1,0v-18.2H192.9z M54.1,55.1c8-8,20.8-8,28.8,0l36.4,36.4l-28.8,28.8
		L54.1,83.9C46.2,75.9,46.2,63,54.1,55.1z M0,236.3C0,225.1,9.1,216,20.4,216h51.5v40.7H20.4C9.1,256.7,0,247.6,0,236.3z M467.4,512
		H44.7v-37.5h26.7l29.6-33.1h310.1l29.6,33.1h26.7V512z M506,250.7c-3.7,3.7-8.8,6-14.4,6h-51.5V216h51.5c11.2,0,20.4,9.1,20.4,20.3
		C512,242,509.7,247,506,250.7z"/>
</g>
</svg>
