<?xml version="1.0" encoding="utf-8"?>
<!-- Generator: Adobe Illustrator 21.1.0, SVG Export Plug-In . SVG Version: 6.00 Build 0)  -->
<svg version="1.1" id="Layer_1" xmlns="http://www.w3.org/2000/svg" xmlns:xlink="http://www.w3.org/1999/xlink" x="0px" y="0px"
	 viewBox="0 0 483 512" style="enable-background:new 0 0 483 512;" xml:space="preserve">
<g>
	<path d="M399.6,28.8V0H83.3v29L0,483.7c56.8,17.1,151,28.6,248.2,28.6c83.2,0,168.7-8.4,234.8-28.8L399.6,28.8z M204.5,459.5
		l5.5-233.1h-9.1l-27.3,231.5c-20.1-1.2-39.8-3-58.7-5.2c-2.8-0.3-5.5-0.7-8.2-1l22.1-225.4h-4.1L77.9,447.6c-6.2-1-12.1-2-17.9-3.1
		L132,52h15.2l2.9,60.2h32.3L179.5,52H303l-2.9,60.2h32.3l2.9-60.2H351l72.1,393c-6.1,1.2-12.3,2.4-18.7,3.4l-47-222h-4.1
		l22.2,226.3c-21.7,2.8-44.7,4.8-68.8,6.1l-27.3-232.4h-9.1l5.5,233.5c-9.1,0.2-18.3,0.3-27.6,0.3
		C233.7,460.3,219.1,460,204.5,459.5z"/>
	<circle cx="241.8" cy="85.8" r="16.7"/>
	<circle cx="241.8" cy="136.1" r="16.7"/>
	<circle cx="241.8" cy="186.5" r="16.7"/>
</g>
</svg>
