<?xml version="1.0" encoding="utf-8"?>
<!-- Generator: Adobe Illustrator 21.1.0, SVG Export Plug-In . SVG Version: 6.00 Build 0)  -->
<svg version="1.1" id="Layer_1" xmlns="http://www.w3.org/2000/svg" xmlns:xlink="http://www.w3.org/1999/xlink" x="0px" y="0px"
	 viewBox="0 0 512 512" style="enable-background:new 0 0 512 512;" xml:space="preserve">
<path d="M512,239h-42.1l41.9-41.9L492,177.3L430.4,239H360l46-46l-64.7-0.1l34.9-34.9H463v-28h-59.3l43.8-43.8l-22.6-22.6h-0.1
	L381,107.3V48h-28v87.3L317,171v-65.2l-44,44V81.7l61.5-61.8L314.7,0.1l-41.7,42V0h-35v40L198.4,0l-19.6,19.8L238,79.6V152l-46-46.3
	v65.7l-41-41.2V43h-28v59.3L84.8,64.1l0,0L62.1,86.7l38.2,38.3H41v28h86.9l41,41h-64l44.9,45H81.7l-61.8-61.3L0,197.5L42,239H0v34
	h40.3L0,313.3l-0.5,0.5l19.6,19.6L79.5,273h69.1l-45.9,46h66.2l-41,41H41v28h59.3l-38.2,38.3v0.1L84.7,449l38.3-38.3V470h28v-87.3
	l41-41.2l0.1,65.2l45.9-45.9v71.4L178.9,492l19.8,19.8l39.3-40V512h35v-42l41.6,42l0,0l0,0l19.6-19.8L273,430.4v-67.6l44,44.4
	l0.1-66.2l35.9,35.7V464h28v-59.3l43.8,43.8l22.6-22.6l0.1-0.1L403.7,382H463v-28h-87.1l-36-36l64.9-0.1L358.9,272h72.3l61,61
	l19.8-19.8L470.8,272H512V239z M197.5,291H172l18-18h25.5L197.5,291z M189.7,240l-18-18h26l18,18H189.7z M238,320.9l-18,18v-25.5
	l18-18V320.9z M238,217.1l-18-18v-25.4l18,18V217.1z M289,338.8l-16-16v-25.3l16,16V338.8z M289,199.1l-16,16v-25.3l16-16V199.1z
	 M311.4,290l-18-18h26.1l18,18H311.4z M320.1,239h-25.7l18-18h25.7L320.1,239z"/>
</svg>
