<?xml version="1.0" encoding="utf-8"?>
<!-- Generator: Adobe Illustrator 21.1.0, SVG Export Plug-In . SVG Version: 6.00 Build 0)  -->
<svg version="1.1" id="Layer_1" xmlns="http://www.w3.org/2000/svg" xmlns:xlink="http://www.w3.org/1999/xlink" x="0px" y="0px"
	 viewBox="0 0 550 512" style="enable-background:new 0 0 550 512;" xml:space="preserve">
<g id="_x35_2">
	<path d="M158.6,511.9l158.6-158.8L280,315.7l-97.1,96.6V0h-49.2v412.2l-96.4-96.5L0,353.1L158.6,511.9z"/>
	<path d="M548.8,314.8H341.2v47.2h128.3l0.2,0.2L341.2,463.9V512h207.6v-48.1H421.4l127.4-101.9V314.8z M423.3,163.6h39.8l21,50.7
		h66L466,0h-42.7l-82.9,214.3h63.4L423.3,163.6z M441.8,64.6h0.8c1.8,7.3,11.7,53.1,11.7,53.1h-22.2
		C432.1,117.8,440,71.9,441.8,64.6z"/>
</g>
</svg>
