<?xml version="1.0" encoding="utf-8"?>
<!-- Generator: Adobe Illustrator 21.1.0, SVG Export Plug-In . SVG Version: 6.00 Build 0)  -->
<svg version="1.1" id="_x35_2_2_" xmlns="http://www.w3.org/2000/svg" xmlns:xlink="http://www.w3.org/1999/xlink" x="0px" y="0px"
	 viewBox="0 0 512 512" style="enable-background:new 0 0 512 512;" xml:space="preserve">
<g id="_x35_2">
	<path d="M80.9,230.5c-1.4,9.7-2,19.3-1.8,28.8c0.3-4.1,0.7-8.3,1.3-12.5c3.5-24,12.3-45.8,25.2-64.5l-8.4-4.8
		C89.2,193.8,83.6,211.6,80.9,230.5z"/>
	<path d="M106.4,160.9l11,6.4c8.1-9,17.2-17,27.1-23.8L132.1,129C122.4,138.6,113.7,149.3,106.4,160.9z"/>
	<path d="M146.3,116.5l14.7,17.1c11.1-5.7,22.9-10.1,35.2-13l-10.1-28C171.8,98.7,158.4,106.8,146.3,116.5z"/>
	<path d="M215.2,117.4c10.1-1,20.5-1,31,0.1V78.1c-14.6,0.9-28.7,3.5-42.3,7.8L215.2,117.4z"/>
	<path d="M282.3,79.6c-5.8-0.8-11.5-1.4-17.2-1.6v42.6c11.5,2.7,22.5,6.7,32.8,11.7L316.4,88C305.6,84.2,294.1,81.3,282.3,79.6z"/>
	<path d="M334,95.3L314.5,142c8.7,5.8,16.8,12.4,24,19.8l37.9-37.9C363.9,112.4,349.6,102.8,334,95.3z"/>
	<path d="M389.8,137.3L351,176.1c5.8,7.6,10.9,15.7,15.2,24.2l51.1-21.9C410,163.5,400.8,149.6,389.8,137.3z"/>
	<path d="M424.6,195.9l-51,21.9c4.3,12.1,7.1,24.9,8.2,38H435C435,234.9,431.4,214.7,424.6,195.9z"/>
	<polygon points="249.5,429.1 253.6,429.1 253.6,429.3 260.4,429.3 260.4,429.1 264.4,429.1 264.4,405.9 249.5,405.9 	"/>
	<rect x="372.5" y="367.8" transform="matrix(0.7071 -0.7071 0.7071 0.7071 -154.2983 375.3448)" width="6.8" height="12.3"/>
	<rect x="132" y="370.5" transform="matrix(0.7071 -0.7071 0.7071 0.7071 -223.8982 207.1766)" width="12.3" height="6.8"/>
	<rect x="407.7" y="316.2" transform="matrix(0.4005 -0.9163 0.9163 0.4005 -48.888 569.9305)" width="6.8" height="12.3"/>
	<rect x="183.5" y="405.7" transform="matrix(0.4005 -0.9163 0.9163 0.4005 -261.1458 419.0626)" width="12.3" height="6.8"/>
	<rect x="327.5" y="399.9" transform="matrix(0.8983 -0.4395 0.4395 0.8983 -144.7759 186.7518)" width="6.8" height="12.3"/>
	<rect x="99.8" y="325.5" transform="matrix(0.8983 -0.4395 0.4395 0.8983 -133.7653 80.038)" width="12.3" height="6.8"/>
	<path d="M256,0C114.6,0,0,114.6,0,256s114.6,256,256,256s256-114.6,256-256S397.4,0,256,0z M256,460c-112.7,0-204-91.3-204-204
		S143.3,52,256,52s204,91.3,204,204S368.7,460,256,460z"/>
	<path d="M317.3,188.9l-53.7,48.8c-1.9-0.6-4.2-1.1-6.7-1.1c-12.7,0-22.8,11-21.4,24c1.1,9.9,9,17.8,18.9,18.9
		c13,1.4,24-8.7,24-21.4c0-2.5-0.5-4.8-1.1-6.7l48.8-53.7c2.2-2.5,2.2-6.2-0.2-8.6v0C323.6,186.7,319.8,186.6,317.3,188.9z"/>
</g>
</svg>
