<?xml version="1.0" encoding="utf-8"?>
<!-- Generator: Adobe Illustrator 22.0.1, SVG Export Plug-In . SVG Version: 6.00 Build 0)  -->
<svg version="1.1" id="Layer_1" xmlns="http://www.w3.org/2000/svg" xmlns:xlink="http://www.w3.org/1999/xlink" x="0px" y="0px"
	 viewBox="0 0 512 512" style="enable-background:new 0 0 512 512;" xml:space="preserve">
<g id="_x35_2">
	<path d="M297.3,491.3h-82.3v-74.2c0-0.5,0-1.1,0-1.6c0.8-22,18.9-39.6,41.1-39.6h0c22.2,0,40.3,17.6,41.1,39.6c0,0.5,0,1.1,0,1.6
		V491.3z"/>
	<path d="M481.8,169.5l-13.3-43.8l-6-1.2v0l-26.9-5.2c-0.1,0-0.1,0-0.2,0c-0.5,0-0.9,0.4-0.9,0.9c0,9.8,6.3,13.7,14,13.7
		c5.1,0,9.5-2.1,11.9-5.2l4.6,0.9l11.3,37.1c-44.6-23.2-126.6-38.8-220.4-38.8c-6.8,0-13.6,0.1-20.2,0.2l0.1-82.5l16.4,0
		c2.9-0.1,4.8,0,5.5,0.2c0.3,0.1,0.8,0.3,1.5,0.6l0.5,0.3c1.5,0.6,3.1,1.9,4.8,3.8l2.3,2.8c1.4,1.8,2.5,3.1,3.3,3.9
		c1.4,1.3,3,2.2,4.5,2.6l0.5,0.1c1.2,0.3,2.7,0.4,4.5,0.2c1.8-0.2,4.3-0.7,7.6-1.7l0.6-0.2c3.6-1.9,7.3-4.2,11-6.8
		c5.1-3.4,11.1-8.1,18.1-13.8l0.2,0c0.7-0.7,1.1-1.4,1.3-2.2c0.2-0.8,0.1-1.6-0.4-2.5l-0.2-0.1l-0.1-0.2c-0.4-0.5-0.9-0.8-1.5-1.1
		c-0.8-0.2-1.6-0.3-2.3-0.2c-7.4,0.8-13.8,0.9-19,0.2l-2.6-0.5c-1.9-0.3-3.2-0.5-4.1-0.7c-1.1-0.3-2.2-0.8-3.3-1.4
		c-1.1-0.6-2.4-1.7-3.9-3.1c-1.5-1.4-2.7-2.8-3.5-4.1c-1.4-1.9-2.9-4.7-4.3-8.2l-1.5-3.1c-0.7-1.5-1.5-2.9-2.5-4.1
		c-1.8-2.3-3.7-3.9-5.8-4.8c-0.6-0.4-1.4-0.7-2.3-1c-2.5-0.7-5.3-0.7-8.4-0.3c-4.5,0.4-10.2,1.8-17,4.3l-0.2,0.1l-0.3-0.3
		c-0.3-0.2-0.8-0.3-1.5-0.4C232.7,4,231.6,4,230.2,4c-1.3,0.1-2.3,0.2-3,0.4c-0.7,0.2-1.1,0.4-1.2,0.6l-0.2,0.1l0,123.2
		c-81,2.9-150.4,17.5-190.2,38.2l11.3-37.1l4.6-0.9c2.5,3.1,6.9,5.2,11.9,5.2c7.7,0,14-3.8,14-13.7c0-0.5-0.4-0.9-0.9-0.9
		c-0.1,0-0.1,0-0.2,0l-26.9,5.2v0l-6,1.2l-13.3,43.8C10.9,180.6,0,193.3,0,206.7V395c0,57.9,88.5,106.2,205.9,117v-96.1
		c0-0.7,0-1.3,0-1.9c1-26.8,23.1-48.3,50.1-48.3c13.5,0,25.8,5.4,34.8,14.1c9,8.7,14.8,20.8,15.3,34.2c0,0.6,0,1.3,0,1.9v96
		C423.6,501.1,512,452.8,512,395V206.7C512,193.3,501.1,180.6,481.8,169.5z M265.9,170c51.7,0.6,101.5,6.4,141.1,16.3
		c1.8,0.5,3.6,0.9,5.4,1.4l-12.3,31.3c-38.5-12.2-84.5-19.7-134.2-20.6V170z M345.4,238.3c-28.2,3.5-58.5,5.3-89.4,5.3
		c-30.9,0-61.4-1.8-89.5-5.3c28.4-5.3,58.4-8,89.4-8C286.9,230.3,317,233,345.4,238.3z M230.7,4.5c1.5,0,2.3,0.1,2.3,0.4
		c0,0.3-0.7,0.5-2.3,0.6c-1.6,0.1-2.4-0.1-2.3-0.4C228.4,4.7,229.2,4.5,230.7,4.5z M105,186.3c39.7-9.9,89.5-15.7,141.3-16.3v28.4
		c-48.5,0.8-93.6,7.9-131.6,19.6l-13.4-30.8C102.5,186.9,103.7,186.6,105,186.3z M57.3,202.7c7-3.5,15.4-6.8,24.9-9.9L96,224.3
		l0.3,0.6c-0.4-0.1-0.8-0.2-1.1-0.3c-14.8-4.2-27.8-8.9-37.8-13.9c-1.9-1-3.6-1.9-5.2-2.7c-0.8-0.4-1.5-0.9-2.2-1.3
		C52,205.5,54.4,204.2,57.3,202.7z M52.1,245.2v1.4h-2.3C50.5,246.1,51.3,245.7,52.1,245.2z M459.9,285.7c0,5.3-11,21.3-44.9,37.1
		c-30.8,14.3-71,24.1-114.6,28.1c15.8,11.5,27.1,28.9,30.4,49c52-7.4,96.9-22.3,129.1-42V395c0,5.3-11,21.3-44.9,37.1
		c-25.6,11.9-57.8,20.7-93,25.6v-43.8c0-18.2-7.4-34.7-19.3-46.7c-11.9-11.9-28.4-19.3-46.6-19.3c-36.4,0-66,29.5-66,66v43.9
		c-35.2-4.9-67.5-13.7-93.1-25.6c-33.9-15.8-44.9-31.8-44.9-37.1v-37.1c32.1,19.7,76.9,34.5,128.8,41.9c3.4-20.1,14.6-37.5,30.4-49
		c-43.5-4-83.7-13.7-114.4-28C63.1,307,52.1,291,52.1,285.7v-31.2c46.7,19,120.7,31.2,203.9,31.2s157.1-12.2,203.9-31.2V285.7z
		 M459.9,208c-1.5,0.9-3.3,1.8-5.2,2.7c-9.5,4.7-21.6,9.2-35.4,13.2l-0.6,1.5c-0.7-0.3-1.3-0.5-2-0.7c0.9-0.2,1.7-0.5,2.5-0.7
		l12-30.6c8.9,3,16.7,6.1,23.4,9.4c2.9,1.4,5.3,2.8,7.4,4C461.4,207.2,460.7,207.6,459.9,208z"/>
</g>
</svg>
