<?xml version="1.0" encoding="utf-8"?>
<!-- Generator: Adobe Illustrator 21.1.0, SVG Export Plug-In . SVG Version: 6.00 Build 0)  -->
<svg version="1.1" id="Layer_2" xmlns="http://www.w3.org/2000/svg" xmlns:xlink="http://www.w3.org/1999/xlink" x="0px" y="0px"
	 viewBox="0 0 713.9 512" style="enable-background:new 0 0 713.9 512;" xml:space="preserve">
<path d="M713.9,0.1H0.2V512h713.7V0.1z M50,178.8h1.5v0.3L50,178.8L50,178.8z M50,179.4l1.5,0.2v2.5l-0.7-0.1l-0.9-1.4V179.4z
	 M51.5,182.6v0.5l-0.3-0.5L51.5,182.6z M50,187.7h1.4l0.1,0.2v21.6L50,207V187.7z M50,211.8l1.5,2.5v23.1l-1.5-2.5V211.8z M50,239.6
	l1.5,2.5v26l-1.5-2.5V239.6z M50,270.4l1.5,2.5v24.2l-1.5-2.5V270.4z M50,299.3l1.5,2.5V323H50V299.3z M51.5,325v1.5l-0.9-1.4
	L51,325H51.5z M50,328.7l0.2,0.4H50V328.7z M50,331.9H115v0h0V176L50,176v-68.6c75.1,3.7,135.1,68.6,135.1,148s-60,144.3-135.1,148
	V331.9z M53.6,179.9v2.5l0,0L53.6,179.9L53.6,179.9z M53.5,179.4v-0.6h0L53.5,179.4L53.5,179.4z M53.6,183v2.7h0L53.6,183L53.6,183z
	 M62.9,206.5v21.6l-9.3-15.3v-21.6L62.9,206.5z M62.9,181.3v2.5l-3.3-0.5l-3.5-0.5v-2.5L62.9,181.3z M56,179.8v-1h6.9v2l-3.3-0.5
	L56,179.8z M59.6,183.8l3.3,0.5v1.3H56v-2.4L59.6,183.8z M62.9,187.7v14.1l-8.6-14.1H62.9z M62.9,232.9V256l-9.3-15.3v-23.1
	L62.9,232.9z M62.9,260.7v26l-9.3-15.3v-26L62.9,260.7z M62.9,291.5v24.2l-9.3-15.3v-24.2L62.9,291.5z M62.9,320.5v2.5h-9.3v-17.8
	L62.9,320.5z M56,328.9V327l3.5-0.4l3.3-0.4v1.9L56,328.9z M62.9,328.5v0.6H58l1.6-0.2L62.9,328.5z M59.6,326.2l-3.5,0.4V325h6.9
	v0.8L59.6,326.2z M53.6,325v1.9l0,0L53.6,325L53.6,325z M53.6,327.3v1.8h0L53.6,327.3L53.6,327.3z M65.7,181.7l1.4,2.3v0.4l0,0
	l-2.2-0.3v-2.5L65.7,181.7z M65,181.1v-0.6l0.4,0.7L65,181.1z M67,179.1l0.1,0v0.2L67,179.1z M67.1,185v0.7H65v-1L67.1,185z
	 M69.3,187.7l6.3,10.2v24.6L65,205.1v-17.4H69.3z M69.6,179.5L69.6,179.5l6,0.9v2.3l-6-0.9L69.6,179.5L69.6,179.5z M69.6,178.9v-0.2
	h6v1.1L69.6,178.9z M69.6,182.3L69.6,182.3l6,0.9v2.5h-0.2l-4.8-0.7l-1-1.7L69.6,182.3L69.6,182.3z M75.6,187.7v5.5l-3.3-5.5H75.6z
	 M71.9,185.7H71l-0.1-0.1L71.9,185.7z M75.6,227.3v21.6L65,231.5v-21.6L75.6,227.3z M75.6,253.7v23.1L65,259.3v-23.1L75.6,253.7z
	 M75.6,281.5v26L65,290.1v-26L75.6,281.5z M75.6,312.3V323h-8.3l-2.4-3.9v-24.2L75.6,312.3z M70,327.3l-0.4-0.7v-1.2l3.9-0.4h2.2
	v1.7L70,327.3z M75.6,327.1v1.8l-1.9,0.2h-2.6l-0.9-1.4L75.6,327.1z M69.6,325L69.6,325l0.4,0L69.6,325L69.6,325L69.6,325z
	 M65.6,325l0.3,0.5l-1,0.1V325H65.6z M66.1,325.8l1,1.6v0.2l-2.2,0.3V326L66.1,325.8z M67.1,328L67.1,328l0,1.1H65v-0.8L67.1,328z
	 M82.3,181.3v2.3l-4.6-0.7v-2.3L82.3,181.3z M77.7,180.1v-1.4h3.9l0.7,1.1v1L77.7,180.1z M82.3,184.2v1.5h-4.6v-2.2L82.3,184.2z
	 M87.1,187.7l1.1,1.7v24.2l-5.2-8.5l-5.2-8.5h0v-8.8H87.1z M86.1,181.4l-1.4-2.3v-0.3h1.7l1.7,0.3l0,2.7L86.1,181.4z M88.1,182.2
	l0,2.3l-0.1,0l-1.6-2.6L88.1,182.2z M84.9,184.1l-0.1,0v-0.2L84.9,184.1z M85.2,184.6l0.6,1h-1.1l0-1.1L85.2,184.6z M88.1,218.4V243
	l-10.5-17.1v-24.6L88.1,218.4z M77.7,230.7l0.1,0.2l10.3,16.9v21.6l-5.2-8.5l-5.2-8.5h0L77.7,230.7L77.7,230.7z M77.8,257.3l3.5,5.7
	l1.3,2.1l5.5,9v23.1l-10.5-17.1v-23.1L77.8,257.3z M77.7,284.9l0.1,0.1l10.4,17v21H85l-7.4-12L77.7,284.9L77.7,284.9z M87.8,327.5
	l-1-1.7l1.4-0.2v1.8L87.8,327.5z M88.1,327.8v0.2V327.8L88.1,327.8z M86.5,325.4l-0.3-0.4h1.9v0.2L86.5,325.4z M85.3,328.2l0.6,0.9
	h-1.2v-0.9L85.3,328.2z M84.7,327.8v-0.6l0.3,0.6L84.7,327.8z M82.1,323h-4.4v-7.3L82.1,323z M82.3,325v0.9l-4.6,0.5V325H82.3z
	 M82.3,326.3v1.8l-4.6,0.5v-1.8L82.3,326.3z M82.3,328.5v0.6h-4.6V329L82.3,328.5z M97.2,180.4v2.7l-4-0.6l-1.7-0.2l-1.4-0.2v-2.7
	L97.2,180.4z M90.2,178.8L90.2,178.8l7,0v1.1L90.2,178.8z M97.2,183.6v2.1h-1.5l-5.4-0.8v-2.3L97.2,183.6z M92.1,185.7h-2v-0.3
	L92.1,185.7z M100.8,187.7v17.7L90.2,188v-0.3H100.8z M100.8,180.9v2.7l-1.2-0.2v-2.7L100.8,180.9z M99.6,180.2v-1.4l0.9,1.5
	L99.6,180.2z M100.8,184.1v1.6h-1.2v-1.7L100.8,184.1z M100.8,210.2v24.2L90.2,217v-24.2L100.8,210.2z M100.8,239.2v24.6l-10.6-17.4
	v-24.6L100.8,239.2z M100.8,268.5v21.6l-10.6-17.4v-21.6L100.8,268.5z M95.5,286.2l2.5,4.1l2.9,4.7V318l-10.6-17.4v-23.1L95.5,286.2
	z M100.8,322.8v0.2H90.2v-17.6L100.8,322.8z M99.6,328.6v-2.1l1.2-0.1v2.1L99.6,328.6z M100.8,328.8v0.3h-1.2V329L100.8,328.8z
	 M99.6,326.1V325h1.2v1L99.6,326.1z M90.2,325L90.2,325L90.2,325L90.2,325z M93.7,325h3.5v1.4l-7,0.8v-1.8L93.7,325z M91.5,327.4
	l1.7-0.2l4-0.5v2.1l-2.1,0.2h-4.9v-1.5L91.5,327.4z M105.7,184l-1.6-2.6l1.4,0.2l0.2,0V184z M105.7,325.4l-0.3,0l-0.3-0.5h0.6V325.4
	z M105.7,325.8v0.2V325.8L105.7,325.8z M105.7,181.1l-1.9-0.3l-0.9-1.4v-0.7h2.8V181.1z M103,184.4l0.8,1.2h-0.9v-1.3L103,184.4z
	 M105,187.7l0.7,1.1v24.6l-2.8-4.6v-21.1H105z M105.7,218.2v24.2l-2.8-4.6v-24.2L105.7,218.2z M105.7,247.1v24.6l-2.8-4.6v-24.6
	L105.7,247.1z M105.7,276.5v21.6l-2.8-4.6v-21.6L105.7,276.5z M105.7,302.9V323h-1.8l-1-1.6v-23.1L105.7,302.9z M104.1,328.1
	l-1.2,0.1v-2.1L104.1,328.1z M104.3,328.4l0.4,0.7h-1.8v-0.5L104.3,328.4z M50,460v-11.7c98.9-3.7,178.2-88.9,178.2-193
	S148.8,66,50,62.3V52.1h282.2v133.8c-27.2,10.7-46.6,38.1-46.6,70.3c0,32.2,19.4,59.6,46.6,70.3V460H50z M664.1,176l-73.8,0v155.9
	l73.8,0v71.4c-74.7-4.1-134.3-68.9-134.3-147.9s59.6-143.8,134.3-147.9V176z M656.6,327.7l-1.2-1.9l6.7-0.8l0,0v2.1L656.6,327.7z
	 M662,327.5v1.6h-4.6l-0.6-1L662,327.5L662,327.5z M655.2,325.4l-0.3-0.5h4.3L655.2,325.4z M653.7,323l-1-1.6v-23.1l10.1,16.5v8.2
	H653.7z M654.1,328.4l0.4,0.7h-1.8v-0.5L654.1,328.4z M652.7,328.2v-2.1l1.2,1.9L652.7,328.2z M652.7,293.5v-21.6l10.1,16.5V310
	L652.7,293.5z M652.7,267.1v-24.6l5,8.2l2.4,3.9l0.6,1l2.1,3.5v24.6L652.7,267.1z M652.7,237.8v-24.2l10.1,16.5v24.2L652.7,237.8z
	 M652.7,208.8v-21.1h2.1l7.9,13v24.6L652.7,208.8z M662,179.5v2.6l0,0l-8.5-1.3l-0.9-1.4v-0.7h4.6L662,179.5z M660.7,178.8h1.3v0.2
	L660.7,178.8z M655.7,184.4l-1.8-2.9l1.4,0.2l6.8,1v2.7l0,0L655.7,184.4z M661.1,185.7h-4.6l-0.5-0.8L661.1,185.7z M652.8,184.4
	l0.8,1.2h-0.9v-1.3L652.8,184.4z M657.7,187.7h5l0,8.2L657.7,187.7z M649.4,328.6v-2.1l1.2-0.1v2.1L649.4,328.6z M650.6,328.8v0.3
	h-1.2V329L650.6,328.8z M649.4,326.1V325h1.2v1L649.4,326.1z M640,323v-17.6l10.6,17.4v0.2H640z M640,327.2v-1.8l3.5-0.4h3.5v1.4
	L640,327.2z M646.9,326.8v2.1l-2.1,0.2H640v-1.5l1.4-0.2l1.7-0.2L646.9,326.8z M640,325L640,325L640,325L640,325z M640,300.6v-23.1
	l5.3,8.6l2.5,4.1l2.9,4.7V318L640,300.6z M640,272.8v-21.6l10.6,17.4v21.6L640,272.8z M640,246.4v-24.6l10.6,17.4v24.6L640,246.4z
	 M640,217v-24.2l10.6,17.4v24.2L640,217z M640,188v-0.3h10.6v17.7L640,188z M646.9,180.4v2.7l-4-0.6l-1.7-0.2L640,182v-2.7
	L646.9,180.4z M640,178.8L640,178.8l7,0v1.1L640,178.8z M646.9,183.6v2.1h-1.5l-5.4-0.8v-2.3L646.9,183.6z M641.9,185.7h-2v-0.3
	L641.9,185.7z M649.4,185.7v-1.7l1.2,0.2v1.6H649.4z M649.4,183.4v-2.7l1.2,0.2v2.7L649.4,183.4z M649.4,180.2v-1.4l0.9,1.5
	L649.4,180.2z M637.6,327.5l-1-1.7l1.4-0.2v1.8L637.6,327.5z M637.9,327.8v0.2V327.8L637.9,327.8z M636.3,325.4L636,325h1.9v0.2
	L636.3,325.4z M634.8,323l-7.4-12v-26l0,0l0.1,0.1l10.4,17v21H634.8z M635.1,328.2l0.6,0.9h-1.2v-0.9L635.1,328.2z M634.5,327.8
	v-0.6l0.3,0.6L634.5,327.8z M627.4,328.6v-1.8l4.6-0.5v1.8L627.4,328.6z M632,328.5v0.6h-4.6V329L632,328.5z M627.4,326.4V325h4.6
	v0.9L627.4,326.4z M627.4,323v-7.3l4.4,7.3H627.4z M627.4,280.1v-23.1l0.1,0.2l3.5,5.7l1.3,2.1l5.5,9v23.1L627.4,280.1z
	 M632.7,260.8l-5.2-8.5h0v-21.6l0,0l0.1,0.2l10.3,16.9v21.6L632.7,260.8z M627.4,225.9v-24.6l10.5,17.1V243L627.4,225.9z
	 M632.7,205.1l-5.2-8.5h0v-8.8h9.4l1.1,1.7v24.2L632.7,205.1z M632,181.3v2.3l-4.6-0.7v-2.3L632,181.3z M627.4,180.1v-1.4h3.9
	l0.7,1.1v1L627.4,180.1z M632,184.2v1.5h-4.6v-2.2L632,184.2z M635,184.6l0.6,1h-1.1l0-1.1L635,184.6z M634.5,184.1v-0.2l0.1,0.2
	L634.5,184.1z M637.8,184.6l-1.6-2.6l1.6,0.2L637.8,184.6L637.8,184.6z M635.9,181.4l-1.4-2.3v-0.3h1.7l1.7,0.3l0,2.7L635.9,181.4z
	 M619.8,327.3l-0.4-0.7v-1.2l3.9-0.4h2.2v1.7L619.8,327.3z M625.4,327.1v1.8l-1.9,0.2h-2.6l-0.9-1.4L625.4,327.1z M619.4,325
	L619.4,325l0.4,0L619.4,325L619.4,325L619.4,325z M617.1,323l-2.4-3.9v-24.2l10.7,17.4V323H617.1z M614.7,327.9V326l1.2-0.1l1,1.6
	v0.2L614.7,327.9z M616.9,328v1.1h-2.2v-0.8L616.9,328L616.9,328z M614.7,325.5V325h0.7l0.3,0.5L614.7,325.5z M614.7,290.1v-26
	l10.7,17.4v26L614.7,290.1z M614.7,259.3v-23.1l10.7,17.4v23.1L614.7,259.3z M614.7,231.5v-21.6l10.7,17.4v21.6L614.7,231.5z
	 M614.7,205.1v-17.4h4.4l6.3,10.2v24.6L614.7,205.1z M615.5,181.7l1.4,2.3v0.4l0,0l-2.2-0.3v-2.5L615.5,181.7z M614.7,181.1v-0.6
	l0.4,0.7L614.7,181.1z M616.8,179.1l0.1,0v0.2L616.8,179.1z M616.9,185v0.7h-2.2v-1L616.9,185z M620.7,185.5l0.9,0.1h-0.8
	L620.7,185.5z M622.1,187.7h3.3v5.5L622.1,187.7z M625.1,185.7l-4.8-0.7l-1-1.7v-1l0,0l0,0l6,0.9v2.5H625.1z M619.4,181.8v-2.3l0,0
	l0,0l6,0.9v2.3L619.4,181.8z M619.4,178.9v-0.2h6v1.1L619.4,178.9z M605.8,328.9V327l3.5-0.4l3.3-0.4v1.9L605.8,328.9z M612.7,328.5
	v0.6h-4.9l1.6-0.2L612.7,328.5z M609.3,326.2l-3.5,0.4V325h6.9v0.8L609.3,326.2z M603.3,323v-17.8l9.3,15.3v2.5H603.3z M603.3,326.9
	V325h0L603.3,326.9L603.3,326.9z M603.4,327.3v1.8h0L603.4,327.3L603.4,327.3z M603.3,300.4v-24.2l9.3,15.3v24.2L603.3,300.4z
	 M603.3,271.5v-26l9.3,15.3v26L603.3,271.5z M603.3,240.7v-23.1l9.3,15.3V256L603.3,240.7z M603.3,212.8v-21.6l9.3,15.3v21.6
	L603.3,212.8z M603.4,179.9v2.5l0,0L603.4,179.9L603.4,179.9z M603.3,179.4v-0.6h0L603.3,179.4L603.3,179.4z M603.4,183v2.7h0
	L603.4,183L603.4,183z M604.1,187.7h8.6v14.1L604.1,187.7z M605.8,185.7v-2.4l3.5,0.5l3.3,0.5v1.3H605.8z M609.3,183.3l-3.5-0.5
	v-2.5l6.9,1v2.5L609.3,183.3z M609.3,180.3l-3.5-0.5v-1h6.9v2L609.3,180.3z M599.6,323v-23.8l1.6,2.7V323H599.6z M601.3,325v1.5
	l-0.9-1.4l0.4-0.1H601.3z M599.6,185.2L599.6,185.2L599.6,185.2L599.6,185.2z M599.6,328.6l0.3,0.5h-0.3V328.6z M599.6,294.4v-24.2
	l1.6,2.7v24.2L599.6,294.4z M599.6,265.4v-26l1.6,2.7v26L599.6,265.4z M599.6,234.7v-23.1l1.6,2.7v23.1L599.6,234.7z M599.6,206.8
	v-19.1h1.5l0.1,0.2v21.6L599.6,206.8z M601,182.6l0.3,0v0.5L601,182.6z M600.6,182l-1-1.6v-1.1l1.6,0.2v2.5L600.6,182z M599.6,178.9
	L599.6,178.9l1.6-0.1v0.3L599.6,178.9z M664.1,62.4c-98.5,4.1-177.4,89.1-177.4,193s78.9,188.8,177.4,193V460H381.9V326.7
	c27.6-10.5,47.4-38.1,47.4-70.6c0-32.5-19.8-60.1-47.4-70.6V52.1h282.1V62.4z"/>
</svg>
