<?xml version="1.0" encoding="utf-8"?>
<!-- Generator: Adobe Illustrator 21.1.0, SVG Export Plug-In . SVG Version: 6.00 Build 0)  -->
<svg version="1.1" id="Layer_1" xmlns="http://www.w3.org/2000/svg" xmlns:xlink="http://www.w3.org/1999/xlink" x="0px" y="0px"
	 viewBox="0 0 536.8 512" style="enable-background:new 0 0 536.8 512;" xml:space="preserve">
<path d="M268.3,91.6l35.3,71.2c12.9,26,37.7,43.9,66.4,48.1l78.3,11.3l-56.9,55.3c-20.9,20.4-30.4,49.7-25.4,78.5l13.7,77.8
	l-70.6-36.9c-12.6-6.6-26.7-10-40.9-10c-14.3,0-28.5,3.5-41.1,10.1l-70,36.8l13.3-78.3c4.9-28.6-4.6-57.7-25.4-78l-56.8-55.3
	l78.4-11.3c28.8-4.2,53.6-22.2,66.5-48.3L268.3,91.6 M268.2,0c-7.3,0-14.6,3.8-18.3,11.4l-63.3,128.2c-5.3,10.7-15.5,18.1-27.3,19.8
	L17.5,180c-16.8,2.4-23.5,23-11.3,34.9l102.6,100c8.5,8.3,12.4,20.3,10.4,32l-24,141.3c-2.2,13.2,8.2,23.9,20.1,23.9
	c3.1,0,6.4-0.7,9.5-2.4L251.4,443c5.3-2.8,11.1-4.2,16.9-4.2c5.8,0,11.5,1.4,16.8,4.1l127.4,66.6c3.1,1.6,6.3,2.4,9.5,2.4
	c11.9,0,22.4-10.8,20.1-24l-24.8-140.9c-2.1-11.8,1.8-23.9,10.4-32.2l102.8-100c12.2-11.8,5.5-32.4-11.3-34.9l-141.8-20.5
	c-11.8-1.7-22-9.1-27.3-19.7L286.5,11.4C282.8,3.8,275.5,0,268.2,0L268.2,0z"/>
</svg>
