<?xml version="1.0" encoding="utf-8"?>
<!-- Generator: Adobe Illustrator 21.1.0, SVG Export Plug-In . SVG Version: 6.00 Build 0)  -->
<svg version="1.1" id="Layer_1" xmlns="http://www.w3.org/2000/svg" xmlns:xlink="http://www.w3.org/1999/xlink" x="0px" y="0px"
	 viewBox="0 0 536.6 512" style="enable-background:new 0 0 536.6 512;" xml:space="preserve">
<g>
	<path d="M166.8,210.9l-78.4,11.4l56.8,55.3c20.8,20.2,30.3,49.4,25.4,78l-13.3,78.3l70-36.8c12.6-6.6,26.8-10.2,41.1-10.2l0,0v52
		l0,0c-5.8,0-11.6,1.4-16.9,4.2L125,509.7c-3.1,1.7-6.4,2.4-9.5,2.4c-11.9,0-22.4-10.7-20.1-23.9l24-141.3c2-11.7-1.9-23.7-10.4-32
		L6.2,214.8c-12.1-11.8-5.4-32.4,11.3-34.9l141.8-20.5c11.8-1.7,22-9.1,27.3-19.8l63.3-128.2C253.7,3.8,261,0,268.2,0l0,0v91.7
		l-35,71C220.4,188.7,195.5,206.7,166.8,210.9z"/>
	<path d="M239.6,269.3c5.8,10.4,9.5,21.9,11,33.8c5.8-1.1,11.8-1.7,17.7-1.7v52c-6.5,0-13,1.6-18.8,4.7l-62.7,33l11.9-70
		c2.2-13.1-2.1-26.5-11.6-35.7l-50.8-49.6l70.3-10.2c13.2-1.9,24.6-10.2,30.5-22.1l31.4-63.5v108.6
		C260.1,257.3,250.4,264.3,239.6,269.3z"/>
</g>
</svg>
