<?xml version="1.0" encoding="utf-8"?>
<!-- Generator: Adobe Illustrator 21.1.0, SVG Export Plug-In . SVG Version: 6.00 Build 0)  -->
<svg version="1.1" id="Layer_1" xmlns="http://www.w3.org/2000/svg" xmlns:xlink="http://www.w3.org/1999/xlink" x="0px" y="0px"
	 viewBox="0 0 369.6 512" style="enable-background:new 0 0 369.6 512;" xml:space="preserve">
<g>
	<path d="M362.6,83.4c-5-5-10.9-7.5-17.5-7.5c-6.7,0-12.6,2.5-17.5,7.5l-66,66.4c-4.6,4.6-7,10.3-7,17c0,7,2.3,12.9,6.9,17.5
		c4.7,5,10.4,7.5,17.1,7.5c7,0,12.9-2.5,17.6-7.5l66.4-66.3c4.6-4.6,7-10.4,7-17C369.6,93.9,367.3,88,362.6,83.4z"/>
	<path d="M202.1,7.5c-4.6-5-10.5-7.5-17.5-7.5c-6.4,0-12.1,2.5-17,7.5c-4.6,4.6-7,10.4-7,17v93.8c0,6.7,2.3,12.4,7,17
		c5,5,10.7,7.5,17,7.5c7,0,12.9-2.5,17.5-7.5c5-4.6,7.5-10.4,7.5-17V24.5C209.6,17.8,207.1,12.1,202.1,7.5z"/>
	<path d="M108,149.7L41.6,83.4c-4.7-5-10.4-7.5-17.1-7.5S11.9,78.4,7,83.4C2.3,88,0,93.9,0,100.9c0,6.7,2.3,12.4,7,17l66.5,66.4
		c5,5,10.9,7.5,17.5,7.5c6.7,0,12.4-2.5,17-7.5c5-4.6,7.5-10.5,7.5-17.5C115.5,160.1,113,154.4,108,149.7z"/>
	<path d="M185.6,276.8l7,14.1c11.1,22.3,32.4,37.7,57,41.3l15.2,2.2l-11.1,10.8c-18,17.5-26.1,42.7-21.8,67.4l2.6,15l-13.9-7.3
		c-10.8-5.6-22.9-8.6-35.1-8.6s-24.4,3-35.3,8.7l-13.7,7.2l2.6-15.5c4.2-24.5-4-49.6-21.8-66.9l-11.1-10.8l15.3-2.2
		c24.7-3.6,46-19.1,57-41.4L185.6,276.8 M185.5,176.3L185.5,176.3c-4.8,0-9.5,2.5-12,7.5l-41.5,84c-3.5,7-10.1,11.9-17.9,13
		l-92.8,13.4c-11,1.6-15.4,15.1-7.4,22.8l67.2,65.5c5.6,5.4,8.1,13.3,6.8,21L72.2,496c-1.5,8.6,5.4,15.7,13.2,15.7
		c2.1,0,4.2-0.5,6.2-1.6l82.9-43.6c3.5-1.8,7.2-2.7,11-2.7s7.5,0.9,11,2.7l83.4,43.6c2,1.1,4.2,1.6,6.2,1.6
		c7.8,0,14.7-7.1,13.2-15.7l-16.2-92.3c-1.4-7.7,1.2-15.6,6.8-21.1l67.3-65.5c8-7.7,3.6-21.2-7.4-22.8L257,280.7
		c-7.7-1.1-14.4-6-17.8-12.9l-41.7-84C195,178.8,190.3,176.3,185.5,176.3L185.5,176.3z"/>
</g>
</svg>
