<?xml version="1.0" encoding="utf-8"?>
<!-- Generator: Adobe Illustrator 21.1.0, SVG Export Plug-In . SVG Version: 6.00 Build 0)  -->
<svg version="1.1" id="Layer_1" xmlns="http://www.w3.org/2000/svg" xmlns:xlink="http://www.w3.org/1999/xlink" x="0px" y="0px"
	 viewBox="0 0 536.8 512" style="enable-background:new 0 0 536.8 512;" xml:space="preserve">
<g>
	<path d="M268.3,91.6l35.3,71.2c12.9,26,37.7,43.9,66.4,48.1l78.3,11.3l-56.9,55.3c-20.9,20.4-30.4,49.7-25.4,78.5l13.7,77.8
		l-70.6-36.9c-12.6-6.6-26.7-10-40.9-10c-14.3,0-28.5,3.5-41.1,10.1l-70,36.8l13.3-78.3c4.9-28.6-4.6-57.7-25.4-78l-56.8-55.3
		l78.4-11.3c28.8-4.2,53.6-22.2,66.5-48.3L268.3,91.6 M268.2,0C268.2,0,268.2,0,268.2,0c-7.3,0-14.6,3.8-18.3,11.4l-63.3,128.2
		c-5.3,10.7-15.5,18.1-27.3,19.8L17.5,180c-16.8,2.4-23.5,23-11.3,34.9l102.6,100c8.5,8.3,12.4,20.3,10.4,32l-24,141.3
		c-2.2,13.2,8.2,23.9,20.1,23.9c3.1,0,6.4-0.7,9.5-2.4L251.4,443c5.3-2.8,11.1-4.2,16.9-4.2c5.8,0,11.5,1.4,16.8,4.1l127.4,66.6
		c3.1,1.6,6.3,2.4,9.5,2.4c11.9,0,22.4-10.8,20.1-24l-24.8-140.9c-2.1-11.8,1.8-23.9,10.4-32.2l102.8-100
		c12.2-11.8,5.5-32.4-11.3-34.9l-141.8-20.5c-11.8-1.7-22-9.1-27.3-19.7L286.5,11.4C282.8,3.8,275.5,0,268.2,0L268.2,0z"/>
	<path d="M268.4,248.4c8.1,8.7,17.8,15.8,28.6,20.8c-5.8,10.5-9.6,22-11,33.8c-5.8-1.1-11.8-1.7-17.7-1.7c-5.9,0-11.9,0.6-17.7,1.7
		c-1.4-11.9-5.2-23.3-11-33.8C250.5,264.3,260.2,257.2,268.4,248.4 M268.3,139.9l-31.4,63.6c-5.9,11.9-17.3,20.2-30.5,22.1
		l-70.3,10.2l50.9,49.6c9.5,9.3,13.9,22.6,11.6,35.7l-11.9,70l62.7-33c5.8-3,12.3-4.7,18.8-4.7c6.5,0,13,1.6,18.7,4.6l63.2,33
		l-12.3-69.8c-2.3-13.2,2-26.6,11.6-36l51-49.6l-70.2-10.2c-13.1-1.9-24.5-10.1-30.4-22L268.3,139.9L268.3,139.9z"/>
</g>
</svg>
