<?xml version="1.0" encoding="utf-8"?>
<!-- Generator: Adobe Illustrator 21.1.0, SVG Export Plug-In . SVG Version: 6.00 Build 0)  -->
<svg version="1.1" id="Layer_6" xmlns="http://www.w3.org/2000/svg" xmlns:xlink="http://www.w3.org/1999/xlink" x="0px" y="0px"
	 viewBox="0 0 532.3 512" style="enable-background:new 0 0 532.3 512;" xml:space="preserve">
<g>
	<path d="M458.9,309.5c-13.7,0-26.5,3.8-37.4,10.3c-19-11-42.1-20-66.8-20c-57.9,0-100.4,44.3-151.2,87.2
		c-45,38-87.5,73.8-126.1,73.8c-11.3,0-19.2-2.3-22.3-6.5c-7.4-10.1,1-36.6,4.1-46.6l0.5-1.5l0.2-0.8
		c8.3-30.6,44.1-107.4,67.9-137.9c26.5-3.8,49.1-16.5,74.5-34.5c9-6.4,34.6-27.8,49.1-40c8.7-7.3,10.8-19.6,5.7-29.3
		c53.4-41.4,119.6-92.7,131.1-117.1c2.2-4.6,8.8-15.5,4-23.3c-6.5-10.3-19.2-11-34.4-11.1c-2.1-4.3-6.5-7.3-11.6-7.3h-16.5
		c-2.3-2.1-5.1-3.4-8.2-3.4c-7.4,0-13.4,7.2-13.4,16c0,8.8,6,16,13.4,16c2.9,0,5.5-1.1,7.7-3v0h17c6.1,0,11.2-4.3,12.5-10
		c8.7,0,23,1.1,25.5,6.6c1.9,3.7,0,9.8-5.6,18.3c-18,29.5-74.3,71.1-126.9,111.4c-8.6-7.6-21.8-8.1-30.9-0.6
		c-18.3,15.1-40.3,32.9-46.7,37.5c-8.6,6.1-34,24.3-53.7,26.3c0.2-3,1-8.1,3.3-16.5c0.8-2.5,5-14.1,12.8-35
		c2.4-6.4,1.9-13.4-1.2-19.5c-2.1-4.1-5.4-7.4-9.3-9.6c11.9-37.4,27.4-80.3,44.3-99.3c9.2-11,22-16.8,32.2-18.8
		c11.6-2.3,24.1-6.4,32.6-5.7c0.6,6.5,6.1,11.6,12.8,11.6h16.5c2.3,2.1,5.1,3.4,8.2,3.4c7.4,0,13.4-7.2,13.4-16s-6-16-13.4-16
		c-2.9,0-5.5,1.1-7.7,3v0h-17c-4.5,0-8.4,2.3-10.7,5.8c-7.9-0.8-18.4,2.2-34.2,5.1c-15.8,2.9-29,10.1-39.6,21.6
		c-17.5,24.4-33.7,57.1-47.4,102.2c-10.6-1-20.7,5.1-24.6,15.3c-6.5,17.3-14.6,39.8-16.4,48.6c-4.2,19.6-2.9,35.5,3.7,47.3
		C42.5,300.4,19.8,359,9.4,395c-12.4,39.8-11.3,69.2,3.5,89.7c12.8,17.7,33.7,26.7,64.1,27.3c0.8,0,1.6,0,2.4,0
		c56.9,0,107-42.8,155.4-84.2c43.8-37.5,79.1-76.2,123.2-76.2c9.4,0,20.1,3.9,30.8,9.8c-2.1,6.8-3.2,13.9-3.2,21.4
		c0,40.5,32.9,73.4,73.4,73.4c40.5,0,73.4-32.9,73.4-73.4C532.3,342.3,499.4,309.5,458.9,309.5z M280.4,6.1c2.1,0,3.7,4.1,3.7,9.2
		c0,5.1-1.7,9.2-3.7,9.2s-3.8-4.1-3.8-9.2C276.7,10.2,278.4,6.1,280.4,6.1z M458.9,423.4c-22.4,0-40.5-18.1-40.5-40.5
		c0-22.4,18.1-40.5,40.5-40.5c22.4,0,40.5,18.2,40.5,40.5C499.4,405.3,481.3,423.4,458.9,423.4z"/>
	<path d="M458.9,358.8c-13.1,0-23.8,10.6-23.8,23.8c0,13.1,10.6,23.8,23.8,23.8c13.1,0,23.8-10.6,23.8-23.8
		C482.6,369.4,472,358.8,458.9,358.8z M458.9,393.5c-6.1,0-11-4.9-11-11c0-6.1,4.9-11,11-11c6.1,0,11,4.9,11,11
		C469.9,388.6,465,393.5,458.9,393.5z"/>
</g>
</svg>
