<?xml version="1.0" encoding="utf-8"?>
<!-- Generator: Adobe Illustrator 21.1.0, SVG Export Plug-In . SVG Version: 6.00 Build 0)  -->
<svg version="1.1" id="Layer_1" xmlns="http://www.w3.org/2000/svg" xmlns:xlink="http://www.w3.org/1999/xlink" x="0px" y="0px"
	 viewBox="0 0 512 512" style="enable-background:new 0 0 512 512;" xml:space="preserve">
<g id="_x35_2_1_">
	<path d="M510.8,416.1l-78.5-309.7c-1.5-5.9-6.8-9.8-12.5-9.8c-1.1,0-2.1,0.1-3.2,0.4l-9.8,2.5l2.6-11.3c1.4-5.9-1.5-11.8-6.7-14.4
		c-0.9-0.5-2-0.9-3-1.1L88,0.3c-7-1.6-13.9,2.7-15.5,9.7L0.3,321.3c-1.4,5.9,1.5,11.8,6.7,14.5c0.9,0.5,2,0.9,3,1.1l131.6,30.5
		l33.9,133.7c1.5,5.9,6.8,9.8,12.5,9.8c1,0,2.1-0.1,3.2-0.4l310.1-78.6C508.4,430.1,512.6,423,510.8,416.1z M59.8,295l54.5-235.2
		l234.5,54.3l-242.4,61.5c-6.9,1.8-11.1,8.8-9.4,15.8l30.3,119.3L59.8,295z M216.4,450.5l-59.4-234L391.5,157l59.3,234L216.4,450.5z
		"/>
	<path d="M298.4,228.5c0,10.9-8.8,19.7-19.7,19.7c-10.9,0-19.7-8.8-19.7-19.7c0-10.9,8.8-19.7,19.7-19.7
		C289.6,208.8,298.4,217.6,298.4,228.5z"/>
</g>
</svg>
