<?xml version="1.0" encoding="utf-8"?>
<!-- Generator: Adobe Illustrator 21.1.0, SVG Export Plug-In . SVG Version: 6.00 Build 0)  -->
<svg version="1.1" id="Shape_1_1_" xmlns="http://www.w3.org/2000/svg" xmlns:xlink="http://www.w3.org/1999/xlink" x="0px" y="0px"
	 viewBox="0 0 512 512" style="enable-background:new 0 0 512 512;" xml:space="preserve">
<g>
	<g>
		<path d="M256,0C114.6,0,0,114.6,0,256s114.6,256,256,256s256-114.6,256-256S397.4,0,256,0z M256,460.8
			c-113.1,0-204.8-91.7-204.8-204.8S142.9,51.2,256,51.2S460.8,142.9,460.8,256S369.1,460.8,256,460.8z"/>
		<path d="M321.7,195v124.9H194.4c-0.1-93.6-0.1-32.8-0.1-124.9H321.7 M347.1,152c0,0-81.2,0-178.3,0c-4.7,0-8.9,1.7-12.3,5.2
			c-3.5,3.5-5.2,7.6-5.2,12.3c0,97.1,0,78.8,0.1,175.8c0,4.7,1.7,8.9,5.2,12.3s7.6,5.2,12.3,5.2c97.1,0,178.3,0,178.3,0
			c4.7,0,8.9-1.7,12.3-5.2c3.5-3.5,5.2-7.6,5.2-12.3V169.5c0-4.7-1.7-8.8-5.3-12.3C356,153.7,351.8,152,347.1,152L347.1,152z"/>
	</g>
</g>
</svg>
