<?xml version="1.0" encoding="utf-8"?>
<!-- Generator: Adobe Illustrator 21.1.0, SVG Export Plug-In . SVG Version: 6.00 Build 0)  -->
<svg version="1.1" id="Layer_1" xmlns="http://www.w3.org/2000/svg" xmlns:xlink="http://www.w3.org/1999/xlink" x="0px" y="0px"
	 viewBox="0 0 491.2 512" style="enable-background:new 0 0 491.2 512;" xml:space="preserve">
<g id="_x35_2">
	<path d="M491.2,426.5c0,25.9-26.2,47.9-75.8,63.5c-44.8,14.2-105.1,22-169.8,22s-124.9-7.8-169.8-22C26.2,474.3,0,452.4,0,426.6
		c0-12.1,6.2-30,35.6-46.6c17-9.6,40.3-17.9,67.9-24.3l40,40c-24.8,4.4-45.8,10.3-60.8,17.2c-16.5,7.6-18.8,13.2-19,13.7
		c0.6,2.5,10,13.5,48,23.8c35.9,9.8,83.5,15.2,133.9,15.2c50.6,0,98.2-5.4,134.1-15.3c38-10.4,47.3-21.3,47.8-23.8
		c-0.2-0.5-2.4-6.1-18.9-13.7c-14.9-6.9-35.9-12.8-60.7-17.2l40-40c27.5,6.4,50.7,14.7,67.7,24.3
		C484.8,396.6,491.1,414.4,491.2,426.5z"/>
	<path d="M293.7,241.3h-29c-4.6,0-8.3,3.7-8.3,8.3v130.9c0,5.6-4.2,10.6-9.8,11.1c-6.4,0.6-11.9-4.5-11.9-10.8V249.5
		c0-4.6-3.7-8.3-8.3-8.3h-29v-70.7c0-3.8,3-6.8,6.8-6.8h82.5c3.8,0,6.8,3,6.8,6.8V241.3z M301.4,118.8H189.8
		c-20.6,0-37.2,16.7-37.2,37.2v111.7c0,10.2,8.4,18.6,18.6,18.6h18.6v94.5c0,30.8,25,55.8,55.8,55.8h0c30.8,0,55.8-25,55.8-55.8
		v-94.5h18.6c10.2,0,18.6-8.4,18.6-18.6V156C338.7,135.4,322,118.8,301.4,118.8L301.4,118.8z"/>
	<path d="M245.7,41c7.7,0,14,6.3,14,14s-6.3,14-14,14s-14-6.3-14-14S238,41,245.7,41 M245.7,0c-30.4,0-55,24.6-55,55s24.6,55,55,55
		s55-24.6,55-55S276.1,0,245.7,0L245.7,0z"/>
</g>
</svg>
