<?xml version="1.0" encoding="utf-8"?>
<!-- Generator: Adobe Illustrator 21.1.0, SVG Export Plug-In . SVG Version: 6.00 Build 0)  -->
<svg version="1.1" id="Layer_1" xmlns="http://www.w3.org/2000/svg" xmlns:xlink="http://www.w3.org/1999/xlink" x="0px" y="0px"
	 viewBox="0 0 464 512" style="enable-background:new 0 0 464 512;" xml:space="preserve">
<path d="M319,361.5c29.6,9,55.3,22.4,72.6,38c12.9,11.7,20.4,23.9,20.4,33.6c0,1.7-0.2,2.4-0.3,2.6c-0.3,0.4-5.6,6.9-28.7,12.8
	l-0.1,0l-0.1,0c-37.2,9.6-94.6,11-151,11.1H231c-47.3,0-96.1-1-133.2-7.3c-38-6.5-45.2-15.7-45.6-16.2c-0.1-0.2-0.3-1-0.3-2.7
	c0-9.7,7.4-22,20.2-33.6c17.2-15.7,42.9-29.1,72.5-38.1c25,19.1,55.2,29.6,87.3,29.6C263.3,391.2,293.9,380.5,319,361.5L319,361.5z
	 M218.4,1.7c-1,0-2,0.3-3,1L72.8,62.3c-0.7,0.4-1,1.2-1,2.5c0,1.7,0.3,2.7,1,3l11,5.9l-1,9.4c-1.7,0.4-3.2,1.2-4.5,2.5
	c-1,1.7-1.5,3.3-1.5,5c0,1.7,0.5,3.3,1.5,5c0.7,1,1.8,1.8,3.5,2.5l-6,86.8v0.5l2.5,20.8l1.5-8.9l4.5,12.9l8.5-25.3l-6-86.8
	c1.3-0.7,2.5-1.5,3.5-2.5c1-1.7,1.5-3.3,1.5-5c0-1.7-0.5-3.3-1.5-5c-1.3-1.3-2.8-2.2-4.5-2.5l-1-8.4l15,8.4l0.5,0.5l12,6.9
	l-3.5,40.2l8,3c0.2,27.5,3.3,81.7,2,121.3c-1.1,33.9-8.1,55.8,3,55.8c1.9,0,5.8,0,11.5-0.1C54.6,333.4-0.1,381.8-0.1,433.3
	c0,71,103.7,78.2,231,78.3h1c64-0.1,121.9-1.9,163.9-12.7c42-10.7,68.1-30.3,68.1-65.8c-0.1-51.5-55.2-100-134.4-122.7
	c1.4,0.1,2.6,0.1,3.5,0.2h1c12.6,0,6.2-21,4.9-56.8s3-86.9,3-122.6c0-19.5-4-33.8-11-44.3l6.6-3.8l27-15.4c0.7-0.3,1-1.3,1-3
	c0-1.3-0.3-2.2-1-2.5L221.4,2.7C220.7,2,219.7,1.7,218.4,1.7L218.4,1.7z M218.4,169.9c2.3,0,5.2-0.5,8.5-1.5
	c2.3-0.7,78-27.9,78-27.9c0.2,1.5,0.4,3.1,0.5,4.8c0.1,0,0.2-0.1,0.2-0.1c1.2-1.1,2.4-1.7,3.9-1.7c12.5,1.7,9.5,23.2,7.6,31
	c-2.1,8.7-5.8,16.2-9,16.2c-1.5,0-3.2-0.2-4.6-1.3c-9.2,45.2-40.6,87.7-78,87.7c-37.1,0-68.3-41.6-77.7-86.4h-1
	c-3.3,0-6.8-7.7-8.9-16.4c-2.2-8.5-4.8-26.1,5.9-30.6c0,0,64.3,24,66.6,24.7C213.7,169.4,216.4,169.9,218.4,169.9L218.4,169.9z
	 M231.8,311.5c23.4,0,44.2-12.3,57-31.2l19.3,18.6c-17.6,24.5-45.3,40.3-76.3,40.3c-31.1,0-58.7-15.8-76.3-40.3l19.3-18.6
	C187.6,299.2,208.4,311.5,231.8,311.5L231.8,311.5z"/>
</svg>
