<?xml version="1.0" encoding="utf-8"?>
<!-- Generator: Adobe Illustrator 21.1.0, SVG Export Plug-In . SVG Version: 6.00 Build 0)  -->
<svg version="1.1" id="Layer_1" xmlns="http://www.w3.org/2000/svg" xmlns:xlink="http://www.w3.org/1999/xlink" x="0px" y="0px"
	 viewBox="0 0 439.1 512" style="enable-background:new 0 0 439.1 512;" xml:space="preserve">
<g id="_x35_2">
	<path d="M219.8,52.8c12.9,0.1,21.7,2.7,26.1,7.8c17,20.5,6.3,67.3-7.8,87.6c-6.1,10.2-18.4,24-18.4,24s-12.3-13.9-18.4-24.1
		c-15.5-27.6-24.5-56.9-7.8-87.6C198,55.5,206.9,52.9,219.8,52.8 M219.8,246.2c0,0,10,9.6,10.3,10c6.1,13.8,17.6,24,31.3,28.6
		c5.4,2,71,24.2,79.3,34.5c-30,19.6-107.4,47.3-120.9,52c-13.6-4.7-90-31.4-121.2-52c10.2-10.8,74-32.5,79.4-34.5
		c13.7-4.5,25.2-14.7,31.3-28.5C209.7,255.8,219.8,246.2,219.8,246.2 M219.8,0.8C117.6,1.2,133.7,109.6,134,111.6
		c2.8,24.9,13.1,47.3,22.8,63.4c9.7,16.1,18.7,26,18.7,26v15.5c-11.1,10.5-13.6,18.8-13.7,18.8c0,0,0,0,0,0c0,0-23.6,8.6-46.3,17.4
		c-22.7,8.8-75.1,27.3-75.1,77.9c0,37.6,173.6,93.6,179.4,95.4c5.8-1.8,179.2-57.8,179.2-95.4c0-50.5-52.3-69-75-77.9
		c-22.6-8.8-46.2-17.4-46.2-17.4c0,0,0,0,0,0c-0.1,0-2.6-8.3-13.7-18.8v-15.5c0,0,9-9.9,18.7-26c9.7-16.1,20-38.5,22.8-63.4
		C305.8,109.6,321.9,1.2,219.8,0.8L219.8,0.8z"/>
	<g>
		<path d="M411.9,379.8c-28.6,12.7-117,35-153,57.6c-18.5,10.9-31.6,24-39.4,39.2c-9.9-20.6-30.3-33.9-39.4-39.2
			c-19.2-15.8-115.2-43.6-122.6-46.2c-24.2-8.3-43.4-16.7-57.5-25.3v31.8c5,1.3,30.9,9.1,38.3,11.5c-5.6,3.1-4.4,19.7,24.2,28.8
			c19.7,6.2,36,0.9,36.4-7c21.1,9.9,89.1,38.6,96.8,81h47.7c5.1-28.6,39.5-55.8,94.3-80c5.8,12.8,27.9,8.7,36.3,6
			c8.7-2.7,33.5-14.2,24.8-28.4c7.7-2.6,35-10.3,40.3-12v-31.8C431.4,370.5,422.4,375.1,411.9,379.8z"/>
	</g>
</g>
</svg>
