<?xml version="1.0" encoding="utf-8"?>
<!-- Generator: Adobe Illustrator 21.1.0, SVG Export Plug-In . SVG Version: 6.00 Build 0)  -->
<svg version="1.1" id="_x35_2" xmlns="http://www.w3.org/2000/svg" xmlns:xlink="http://www.w3.org/1999/xlink" x="0px" y="0px"
	 viewBox="0 0 466.1 512" style="enable-background:new 0 0 466.1 512;" xml:space="preserve">
<g id="_x35_2_1_">
	<path d="M394.7,54.1c0,0-158.2-54.1-159.6-54.1c-1,0-156.6,54.3-156.6,54.3c-1.1,0.7-1.6,1.7-1.6,3.1c0,1.7,0.6,2.9,1.6,3.6
		l11.5,6.1l-1,10.2c-1.8,0.4-3.3,1.2-4.7,2.6c-1.4,2-2.1,3.9-2.1,5.6c0,1.7,0.7,3.2,2.1,4.6c0.7,1.7,1.9,2.9,3.7,3.6l-6.8,92.8v0.5
		l3.1,22.6l1.6-9.7l4.7,14.3l9.4-27.7l-6.8-92.8c1.4-0.7,2.8-1.9,4.2-3.6c1.1-1.4,1.6-2.9,1.6-4.6c0-1.7-0.6-3.6-1.6-5.6
		c-1.4-1.4-3-2.3-4.7-2.6l-1-9.2l15.8,9.2l1,0.5l13.1,6.6l-1.9,45.7l115.6,16.4l109.9-15.8L344.4,89l13.6-8.2l6.8-3.6l29.9-16.4
		c0.6-0.7,1-1.9,1-3.6C395.7,55.8,395.4,54.8,394.7,54.1z M235.3,93.9l-61.4-8.7l0.4-8.9l61.1-21.2l56.6,19.2l0.2,11.4L235.3,93.9z"
		/>
	<path d="M368.8,324.8c-29.4-11.4-60-22.6-60-22.6c-0.2-0.6-3-10.4-17.8-24.4v-20.1c0,0,36.7-40.4,49.9-94.5l-1.2,0.2l-55.9,7.7
		l-51.5,7.1l-49.3-6.8l-57.9-8c6.9,27.9,20,52.2,31,69.1c10.3,15.9,18.9,25.3,18.9,25.3v20.1c-14.7,13.9-17.6,23.8-17.8,24.4
		c0,0-30.6,11.1-60,22.6C67.9,336.2,0,360.2,0,425.7C0,507,178.9,512,223,512h20.1c44.1,0,223-5,223-86.3
		C466.1,360.2,398.2,336.2,368.8,324.8z M414,425.3c-1.1,1.3-26.9,34.5-181,34.5c-151.4,0-179.7-33.2-180.7-34.5
		c-8.3-43,145.5-82.3,145.5-82.3l8.1-21.8c0.7-0.9,2.2-2.8,5-5.5l16.4-15.4v-42.5l0.4-20.1c0,0-2.9-3.1-7.5-8.5l12.8,1.7l13.4-1.9
		c-4.7,5.5-7.8,8.7-7.8,8.7l0.4,20.1v42.5l16.4,15.4c2.8,2.7,4.4,4.6,5,5.5l8.1,21.8C268.6,343.1,419.9,382.2,414,425.3z"/>
</g>
</svg>
