<?xml version="1.0" encoding="utf-8"?>
<!-- Generator: Adobe Illustrator 21.1.0, SVG Export Plug-In . SVG Version: 6.00 Build 0)  -->
<svg version="1.1" id="Layer_1" xmlns="http://www.w3.org/2000/svg" xmlns:xlink="http://www.w3.org/1999/xlink" x="0px" y="0px"
	 viewBox="0 0 511.8 512" style="enable-background:new 0 0 511.8 512;" xml:space="preserve">
<path id="_x35_2" d="M460.6,75.9H359.3L320,19H191.9l-39.4,56.9H51.2C23.1,75.9,0,98.9,0,127v307c0,24.8,17.9,45.6,41.3,50.2
	c1,6.3,5.8,10.4,12.6,10.4h25.6c6.5,0,11.2-3.7,12.5-9.5h327.7c1.3,5.8,5.9,9.5,12.5,9.5h25.6c6.9,0,11.7-4.1,12.6-10.4
	c23.5-4.6,41.3-25.4,41.3-50.2V127C511.8,98.9,488.7,75.9,460.6,75.9z M210.2,54h91.5l15.2,21.9H195L210.2,54z M52,433.3V127.9h41.5
	v305.4H52z M365.3,433.3H145.5V127.9h219.8V433.3z M459.8,433.3h-42.5V127.9h42.5V433.3z"/>
</svg>
