<?xml version="1.0" encoding="utf-8"?>
<!-- Generator: Adobe Illustrator 21.1.0, SVG Export Plug-In . SVG Version: 6.00 Build 0)  -->
<svg version="1.1" id="Layer_1" xmlns="http://www.w3.org/2000/svg" xmlns:xlink="http://www.w3.org/1999/xlink" x="0px" y="0px"
	 viewBox="0 0 341.7 512" style="enable-background:new 0 0 341.7 512;" xml:space="preserve">
<path d="M290.6,123.1h-46.8V11.8c0-3.8-3-6.8-6.8-6.8h-27.5V0H132v5h-30.3c-3.8,0-6.8,3-6.8,6.8v111.3H51.2
	c-28.1,0-51.2,23-51.2,51.2v277c0,24.8,17.9,45.6,41.3,50.2c1,6.3,5.8,10.4,12.6,10.4h25.6c6.5,0,11.2-3.7,12.4-9.5h157.7
	c1.3,5.8,5.9,9.5,12.4,9.5h25.6c6.9,0,11.7-4.1,12.6-10.4c23.5-4.6,41.3-25.4,41.3-50.2v-277C341.8,146.2,318.8,123.1,290.6,123.1z
	 M103.5,450.5H52V175.1h51.5V450.5z M116.9,27H132v5h77.6v-5h12.2v96.1h-105V27z M195.3,450.5h-49.8V175.1h49.8V450.5z M289.8,450.5
	h-52.5V175.1h52.5V450.5z"/>
</svg>
