<?xml version="1.0" encoding="utf-8"?>
<!-- Generator: Adobe Illustrator 22.0.1, SVG Export Plug-In . SVG Version: 6.00 Build 0)  -->
<svg version="1.1" id="Layer_3" xmlns="http://www.w3.org/2000/svg" xmlns:xlink="http://www.w3.org/1999/xlink" x="0px" y="0px"
	 viewBox="0 0 512 512" style="enable-background:new 0 0 512 512;" xml:space="preserve">
<g>
	<path d="M392.5,291.7c-73.4-1.3-175.6,52.4-253.8,50C50.4,339.1,0,295,0,295s50.4,96.8,125.9,96.8c170,0,169.2-48.1,292.3-50.1
		c69.7-1.1,93.8,43.4,93.8,43.4S482.9,293.3,392.5,291.7z"/>
	<path d="M347.7,423.3c-65-1.1-155.5,46.4-224.8,44.3C44.7,465.3,0,426.3,0,426.3S44.7,512,111.5,512c150.6,0,149.9-42.6,259-44.3
		c61.7-1,83.1,38.4,83.1,38.4S427.8,424.7,347.7,423.3z"/>
	<path d="M150.9,306c-1.8,0-3.5,0-5.3-0.1c-29.4-0.9-57.8-6.8-84.2-17.5l-48-19.4L204.1,147L190,110.1l-105,56.7
		c-20.9,11.3-46.6,2.5-57-19.5l0,0c-10-21.2-2.1-46.9,18-58L196.3,6.2c11.5-6.5,24.8-7.9,37.4-4c12.8,4,23.2,13,29.4,25.3
		c5,9.1,70.6,118.2,114.8,193l21.9,37.2l-42.3,3.2c-25.6,1.9-55.9,11.1-87.9,20.7C229.9,293.6,188.8,306,150.9,306z M137.9,252.2
		c3.1,0.2,6.2,0.4,9.3,0.5c31.1,1,70.1-10.8,107.9-22.2c19.4-5.8,39.1-11.8,58.4-16.2C288.5,172,256,116.9,234.3,79.9l34,88.8
		L137.9,252.2z M263.2,27.7c0,0.1,0.1,0.1,0.1,0.2C263.2,27.8,263.2,27.7,263.2,27.7z"/>
	<path d="M435,76c13.8,0,25,12.9,25,28.7c0,15.8-11.2,28.7-25,28.7c-13.8,0-25-12.9-25-28.7C409.9,88.9,421.1,76,435,76 M435,24
		c-42.6,0-77,36.2-77,80.7c0,44.6,34.5,80.7,77,80.7c42.6,0,77-36.2,77-80.7C512,60.2,477.5,24,435,24L435,24z"/>
</g>
</svg>
