<?xml version="1.0" encoding="utf-8"?>
<!-- Generator: Adobe Illustrator 21.1.0, SVG Export Plug-In . SVG Version: 6.00 Build 0)  -->
<svg version="1.1" id="Layer_2" xmlns="http://www.w3.org/2000/svg" xmlns:xlink="http://www.w3.org/1999/xlink" x="0px" y="0px"
	 viewBox="0 0 558.1 512" style="enable-background:new 0 0 558.1 512;" xml:space="preserve">
<g id="_x35_2">
	<g>
		<path d="M127.8,389.2l-34.9,42.6c-27.9-12.2-50.1-26.8-66-43.4C9,369.7,0,349.5,0,328.3c0-21.5,9.3-42,27.7-60.9
			C43.6,251.2,65.4,237,92.6,225l27.9,26.5l-2.2,0.9c-43.9,17.9-69.1,42.2-69.1,66.6c0,25.8,27.7,51,76,69.3L127.8,389.2z"/>
	</g>
	<g>
		<path d="M439.4,441.8l-4.2,1.4c-46.1,15.2-100.1,23.2-156.2,23.2c-55.6,0-109.2-7.9-155-22.9l-4.4-1.4l36.2-44.1
			c36.5,9.7,78.3,14.9,121.5,14.9c43.1,0,84.9-5.1,121.3-14.8L439.4,441.8z"/>
	</g>
	<path d="M468.3,226.3l-13.1-5.9V106.9c0-15.2,12.4-27.9,27.6-27.7c14.7,0.3,26.5,12.3,26.5,27v18.5c0,7.8,6.4,14.2,14.2,14.2
		c3.9,0,7.5-1.6,10-4.2c2.6-2.6,4.2-6.1,4.2-10v-18.5c0-30.9-25.3-55.9-56.4-55.4c-30.4,0.5-54.5,26-54.5,56.4v23.9l-82.3-7.9v-22.2
		c0-16.6,13-30.5,29.5-31c6.4-0.2,12.4,1.7,17.4,4.9c3.5,2.3,7.7,2.9,11.7,1.8c12.2-3.3,14.8-19.6,4.1-26.4c-9.2-6-20.2-9.5-32-9.6
		c-33-0.2-60.1,27.5-60.1,60.6v90.1l-1.6-0.1c-11.2-0.7-22.8-1-34.3-1c-55.4,0-108.8,7.9-154.5,22.7l-3.8,1.2l28.9,27.5
		c37.9-10.8,81.8-16.5,127.6-16.5c11.7,0,23.4,0.3,34.8,1.1l2.9,0.2v66.2c0,4.1,1.7,7.7,4.3,10.4c2.7,2.7,6.3,4.3,10.4,4.3
		c8.1,0,14.7-6.6,14.7-14.7v-33.7l82.3,7.9v40.4c0,7.8,6.4,14.2,14.2,14.2c3.9,0,7.5-1.6,10-4.2c2.6-2.6,4.2-6.1,4.2-10v-46l3.9,2.1
		c29.9,16.3,46.3,36.2,46.3,55.7c0,25.7-27.5,50.8-75.3,69l-2.7,1l39.3,42.1c27.2-12.1,49-26.5,64.6-42.9
		c17.8-18.6,26.8-38.8,26.8-59.9C558.1,288.7,526.2,252.4,468.3,226.3z M426.8,159.5v28.1l-82.3-7.9v-28.1L426.8,159.5z
		 M344.5,230.4v-22.3l82.3,7.9v22.3L344.5,230.4z"/>
</g>
</svg>
