<?xml version="1.0" encoding="utf-8"?>
<!-- Generator: Adobe Illustrator 21.1.0, SVG Export Plug-In . SVG Version: 6.00 Build 0)  -->
<svg version="1.1" id="Layer_4" xmlns="http://www.w3.org/2000/svg" xmlns:xlink="http://www.w3.org/1999/xlink" x="0px" y="0px"
	 viewBox="0 0 512 512" style="enable-background:new 0 0 512 512;" xml:space="preserve">
<g id="_x35_2">
	<path d="M472.2,2.7c-34.4,2.4-66.8,17.1-91.2,41.5L118.3,307.6l87.3,85.7L468,130.1c24.3-24.3,39-56.5,41.3-90.7L512,0L472.2,2.7z
		 M434.6,97.9L205.3,328l-21-20.7L414.4,76.4c12.8-12.7,28.8-21.6,46.1-25.6C456.5,68.6,447.6,84.9,434.6,97.9z"/>
	<path d="M104.5,317.5C91,304,69.1,304.1,55.7,317.7l42.5,42.5l13.6,13.6L35.6,450c-9.4-1.3-19.2,1.5-26.4,8.7
		c-12.2,12.2-12.2,32,0,44.1c12.2,12.2,32,12.2,44.2,0c7.2-7.2,10-17,8.7-26.4l76.2-76.2l13.6,13.6l43.4,43.4l0.8-0.9
		c12.8-13.5,12.5-34.8-0.7-48L104.5,317.5z"/>
</g>
</svg>
