<?xml version="1.0" encoding="utf-8"?>
<!-- Generator: Adobe Illustrator 22.0.1, SVG Export Plug-In . SVG Version: 6.00 Build 0)  -->
<svg version="1.1" id="Layer_3" xmlns="http://www.w3.org/2000/svg" xmlns:xlink="http://www.w3.org/1999/xlink" x="0px" y="0px"
	 viewBox="0 0 530.7 512" style="enable-background:new 0 0 530.7 512;" xml:space="preserve">
<style type="text/css">
	.st0{fill:#010101;}
</style>
<g>
	<path class="st0" d="M473.2,384.9c-32.3,0-58.5,26.3-58.5,58.5c0,32.3,26.3,58.5,58.5,58.5c32.3,0,58.5-26.3,58.5-58.5
		C531.7,411.2,505.4,384.9,473.2,384.9z M473.2,471.1c-15.2,0-27.6-12.4-27.6-27.6c0-15.2,12.4-27.6,27.6-27.6
		c15.2,0,27.6,12.4,27.6,27.6C500.8,458.7,488.4,471.1,473.2,471.1z"/>
	<path class="st0" d="M458.7,52.9C425.1,19.3,374.1,0,318.7,0c-55,0-105.9,19.3-139.5,52.9C140.4,91.7,75.9,163.1,54,191.5
		c-16.6,21.5-14.6,52.2,4.6,71.4l43.4,43.4c2.9,2.9,2.9,7.7,0,10.6l-1.2,1.2c-3.9,3.9-3.9,10.2,0,14.1l0,0l-84.5,84.5
		c-21.7,21.7-21.7,56.8,0,78.5h0c10.8,10.8,25.1,16.3,39.3,16.3c14.2,0,28.4-5.4,39.3-16.3l84.5-84.5l0,0c3.9,3.9,10.2,3.9,14.1,0
		l1.2-1.2c1.4-1.4,3.4-2.1,5.3-2.1c2,0,3.9,0.7,5.3,2.1l43.1,43.1c10,10,23.4,16,37.5,16.3c0.4,0,0.8,0,1.3,0
		c12.1,0,23.5-3.9,33-11.3c28.4-21.9,99.8-86.5,138.6-125.3C534.5,256.6,534.5,128.6,458.7,52.9z M287.1,417L287.1,417
		c-0.4,0-1.3-0.3-2.2-1.2l-50-50c-11.2-11.2-26.1-17.3-42-17.3c-15.9,0-30.8,6.2-42,17.3l-92.8,92.8c-0.3,0.3-1.1,1.1-2.6,1.1
		c-1.5,0-2.3-0.8-2.6-1.1c-1.4-1.4-1.4-3.7,0-5.1l92.8-92.8c23.1-23.2,23.1-60.8,0-84l-50.5-50.5c-0.8-0.8-0.9-2.1-0.2-3
		c5.1-6.6,12.7-15.8,21.9-26.4l197.9,197.9c-10.7,9.2-19.8,16.9-26.4,21.9C287.9,417,287.6,417,287.1,417z M453.1,248.3
		c-7.2,18-17.6,34-31.1,47.4c-17.9,17.9-43.6,42-68.3,64.4L151.5,157.9c22.4-24.7,46.5-50.4,64.5-68.3
		c11.3-11.3,26.3-20.7,43.4-27.2c18.1-6.8,38.6-10.5,59.4-10.5c21,0,41.7,3.6,59.8,10.5c17.1,6.5,32.2,15.9,43.5,27.2
		c13.5,13.5,23.9,29.4,31.1,47.4c7,17.6,10.5,36.3,10.5,55.6C463.6,211.9,460.1,230.7,453.1,248.3z"/>
</g>
</svg>
