<?xml version="1.0" encoding="utf-8"?>
<!-- Generator: Adobe Illustrator 21.1.0, SVG Export Plug-In . SVG Version: 6.00 Build 0)  -->
<svg version="1.1" id="Layer_3" xmlns="http://www.w3.org/2000/svg" xmlns:xlink="http://www.w3.org/1999/xlink" x="0px" y="0px"
	 viewBox="0 0 512 512" style="enable-background:new 0 0 512 512;" xml:space="preserve">
<path d="M494.4,31.4H17.6C7.9,31.4,0,39.3,0,49v413.7c0,9.7,7.9,17.6,17.6,17.6h476.9c9.7,0,17.6-7.9,17.6-17.6V49
	C512,39.3,504.1,31.4,494.4,31.4z M460,197.3H282V135h178V197.3z M460,312.4H282v-63.1h178V312.4z M230,135v62.3H52V135H230z
	 M52,249.3h178v63.1H52V249.3z M52,364.4h178v63.9H52V364.4z M460,428.3H282v-63.9h178V428.3z"/>
</svg>
