<?xml version="1.0" encoding="utf-8"?>
<!-- Generator: Adobe Illustrator 22.0.1, SVG Export Plug-In . SVG Version: 6.00 Build 0)  -->
<svg version="1.1" id="Layer_2_1_" xmlns="http://www.w3.org/2000/svg" xmlns:xlink="http://www.w3.org/1999/xlink" x="0px" y="0px"
	 viewBox="0 0 571.3 512" style="enable-background:new 0 0 571.3 512;" xml:space="preserve">
<g>
	<path d="M285.7,74.4c32.1,0,63.2,6.1,92.4,18.3c28.3,11.7,53.7,28.4,75.5,49.7c21.8,21.3,38.9,46.1,50.9,73.7
		c12.3,28.6,18.7,59,18.7,90.3c0,28-5.1,55.4-15,81.3c-7.1,18.5-16.6,36-28.2,52.2c-13.7,20.3-35.5,46.8-35.5,46.8h58.8
		C545.6,438,571,375.1,571,306.4c0-154-127.8-278.8-285.4-278.8l0,0C128,27.6,0.2,152.4,0.2,306.4c0,68.8,25.5,131.7,67.7,180.3
		h59.8c0,0-18.2-21-36.4-46.9c-11.7-16.2-21.1-33.6-28.3-52.2c-9.9-25.9-14.9-53.2-14.9-81.3c0-31.4,6.3-61.7,18.7-90.3
		c12-27.6,29.1-52.4,50.9-73.7s47.2-38,75.5-49.7C222.5,80.5,253.6,74.4,285.7,74.4"/>
	<path d="M344.3,225.7c-5-2.1-52.3,84.6-58,84.6c-23,0-41.7,18.8-41.7,41.9s18.7,41.9,41.7,41.9c23,0,41.7-18.8,41.7-41.9
		c0-12.1-5.2-23-13.3-30.7C311.1,318.2,348.9,227.6,344.3,225.7z"/>
	<path d="M93.4,221.8c-9.7,20-16.5,41.7-19.8,64.8c-1.7,11.9-2.4,23.7-2.2,35.3c0.4-5,0.8-10.2,1.6-15.3c4.2-29.4,14.9-56,30.6-79
		L93.4,221.8z"/>
	<path d="M135.8,162.4c-11.8,11.8-22.4,24.8-31.2,39l13.4,7.8c9.9-11.1,20.9-20.8,33-29.1L135.8,162.4z"/>
	<path d="M201.3,117.9c-17.4,7.5-33.6,17.4-48.3,29.2l17.9,21c13.4-7,27.8-12.3,42.7-15.9L201.3,117.9z"/>
	<path d="M223,109.7l13.7,38.6c12.2-1.3,24.9-1.3,37.7,0.1v-48.3C256.7,101.3,239.5,104.4,223,109.7z"/>
	<path d="M318.2,102c-7.1-1-14-1.7-20.9-2v52.2c14,3.3,27.3,8.2,39.9,14.3l22.5-54.2C346.5,107.6,332.5,104,318.2,102z"/>
	<path d="M381,121.1l-23.7,57.2c10.6,7.1,20.4,15.2,29.2,24.3l46-46.4C417.4,142.1,399.9,130.4,381,121.1z"/>
	<path d="M448.7,172.6l-47.1,47.5c7,9.3,13.3,19.2,18.4,29.6l62.1-26.8C473.3,204.7,462.1,187.7,448.7,172.6z"/>
	<path d="M491,244.3l-62,26.8c5.2,14.8,8.7,30.5,9.9,46.5h64.6C503.6,292.1,499.3,267.4,491,244.3z"/>
	<path d="M491,244.3l-62,26.8c5.2,14.8,8.7,30.5,9.9,46.5h64.6C503.6,292.1,499.3,267.4,491,244.3z M448.7,172.6l-47.1,47.5
		c7,9.3,13.3,19.2,18.4,29.6l62.1-26.8C473.3,204.7,462.1,187.7,448.7,172.6z M381,121.1l-23.7,57.2c10.6,7.1,20.4,15.2,29.2,24.3
		l46-46.4C417.4,142.1,399.9,130.4,381,121.1z M359.6,112.2c-13.1-4.7-27.1-8.2-41.4-10.3c-7.1-1-14-1.7-20.9-2v52.2
		c14,3.3,27.3,8.2,39.9,14.3L359.6,112.2z M344.3,225.7c-5-2.1-52.3,84.6-58,84.6c-23,0-41.7,18.8-41.7,41.9s18.7,41.9,41.7,41.9
		c23,0,41.7-18.8,41.7-41.9c0-12.1-5.2-23-13.3-30.7C311.1,318.2,348.9,227.6,344.3,225.7z M274.4,148.4v-48.3
		c-17.8,1.1-34.9,4.3-51.4,9.5l13.7,38.6C248.9,147,261.6,147,274.4,148.4z M153,147.1l17.9,21c13.4-7,27.8-12.3,42.7-15.9
		l-12.2-34.3C184,125.4,167.7,135.3,153,147.1z M104.6,201.5l13.4,7.8c9.9-11.1,20.9-20.8,33-29.1l-15.1-17.7
		C124,174.2,113.4,187.3,104.6,201.5z M73.6,286.7c-1.7,11.9-2.4,23.7-2.2,35.3c0.4-5,0.8-10.2,1.6-15.3c4.2-29.4,14.9-56,30.6-79
		l-10.2-5.8C83.7,241.7,76.8,263.6,73.6,286.7z"/>
</g>
</svg>
