<?xml version="1.0" encoding="utf-8"?>
<!-- Generator: Adobe Illustrator 22.0.1, SVG Export Plug-In . SVG Version: 6.00 Build 0)  -->
<svg version="1.1" id="Layer_1" xmlns="http://www.w3.org/2000/svg" xmlns:xlink="http://www.w3.org/1999/xlink" x="0px" y="0px"
	 viewBox="0 0 512 512" style="enable-background:new 0 0 512 512;" xml:space="preserve">
<path id="_x35_2" d="M494,1.5c-19.5-3.2-35.3,14.6-44.2,24.9c-10.4,12.2-23.6,42.5-28.5,67.6c-4.7,21.8-30.5,60.7-51,70.3
	c-14.9,7-3.3,13.8,10.2,9.4c13.2-5.7,26.1-11.6,38-17.9c1.5,2.8,3,6.2,3.6,9.3c2.2,17.4-3.7,38.5-20.2,51.5
	c-21.4,16.7-53.4,13.3-70.6-8.8c-17.2-22.1-13.1-53.7,8.7-70.8c18.9-14.8,36.7-13.9,53.7-7.4c1.7,0.7,1.6,0.9,1.6,0.9
	s3.2-2.2,6.2-7.5c3.2-5.5,5.9-10.3,6-12.8c0,0-0.9-0.5-1.7-1C388.8,98.6,266.7,58.9,234.7,84L14.2,256.1
	C-1.3,268.2-4,291.9,7.9,307.2L156,497.3c12.3,15.9,35.2,18.7,51.1,6.4l220.4-172.1c32.1-25.2,23.2-154.6,17.1-173.3
	c-1.5-6.2-3.5-10.9-5.3-14.4c8.3-5.1,16-10.5,22.6-16c25.4-21.7,42.4-44.2,47.5-70.4C516.3,22.7,509.8,4.6,494,1.5z M391.5,293.8
	L187.5,453L58.7,287.5c0,0,203.5-159,203.9-159.3c7-1,17.6,0.5,18,0.2c-17.4,30.6-18.7,83.3,15.2,117.2c36,36,73.9,36.5,99.7,30.6
	C395.5,276.1,393.6,287.8,391.5,293.8z M411.7,148.6c-17.2,9.9-20.1,10.4-20.1,10.4s10.1-5.7,18.7-15.3c1,1.2,2,2.6,3,3.9
	C412.8,148,412.2,148.3,411.7,148.6z M446.6,122.5c-4.7,3.7-9.2,7.6-14,11.4c-2.8-3.8-6.1-8-8.2-10.6c5-9.3,8.8-19.5,10.9-30.4
	c5.3-23.3,17.6-45.7,28.9-59.2c12.1-14.4,22-19.8,27.8-13.6C505.8,34.8,497.5,82.3,446.6,122.5z"/>
</svg>
