<?xml version="1.0" encoding="utf-8"?>
<!-- Generator: Adobe Illustrator 22.0.1, SVG Export Plug-In . SVG Version: 6.00 Build 0)  -->
<svg version="1.1" id="Layer_1" xmlns="http://www.w3.org/2000/svg" xmlns:xlink="http://www.w3.org/1999/xlink" x="0px" y="0px"
	 viewBox="0 0 512 512" style="enable-background:new 0 0 512 512;" xml:space="preserve">
<style type="text/css">
	.st0{stroke:#000000;stroke-miterlimit:10;}
</style>
<g>
	<path d="M232.2,107.5C240,99.9,252.8,97,263.5,95c-20.5-1.5-54.4-1.3-68.2,12.3L9.8,290.9c-13,12.9-13.1,35.1-0.2,48l158.1,159.7
		c11.4,11.5,28.9,13.2,42,5c-0.9-0.9-160.6-161.9-163.2-164.5C23.5,316,33.3,304.4,46.7,291C60,277.8,192.3,147,232.2,107.5z"/>
	<path class="st0" d="M474.2,124.2c21.8-23.5,35.5-47,37.3-72.5c2.6-33.8-5.7-50.4-20.9-51.7c-18.9-0.9-32,17.9-39.4,28.7
		c-8.6,12.7-17.7,43.2-19.6,67.7c-2,21.2-22.1,61.3-40.7,72.8c-13.5,8.3-1.6,13.5,10.7,7.7c12-6.9,23.5-14,34.3-21.3
		c10.8,15.3,8.1,42.1-8,58.1c-18.5,18.4-49.7,19.5-69.6-1.4c-17.4-18.3-17.6-47.9,1.6-67.7c13.7-14.2,33.9-16.8,49.3-11.1
		c1.6,0.6,1.7,0.7,1.7,0.7c0,0,2.8-2.5,5-7.9c2.5-5.6,4.5-10.6,4.2-13c0,0-0.9-0.4-1.8-0.7c-17.2-8.2-134.8-31.3-162.5-3.9
		L70.4,292.1c-13.3,13.2-13.3,36-0.2,49.4l159,160.1c13.6,13.8,35.5,13.9,49.3,0.3l185.9-184.4c27.8-27.5,4.7-145.2-3.3-162.3
		c-2.1-5.8-4.5-10-6.7-13.2C461.9,136.1,468.6,130.2,474.2,124.2z M423.5,284.9L254.5,452.5L119.8,316.1l169.1-167.8
		c6.4-1.3,11.7-1.5,11.7-1.5s-21.1,55.1,24.5,101.2c43.2,43.7,100.1,24.6,100.1,24.6S424.9,277.6,423.5,284.9z M428.8,149.5
		c-15.3,11.3-18,12.2-18,12.2s10.3-7.5,17.6-18.8l3.7,4.1C430.9,147.9,429.8,148.7,428.8,149.5z M447,133.2
		c-1.4-1.4-2.8-2.8-3.6-3.6c-1.1-1.1-3.5-3.3-5.6-5.3c3.8-9.5,6.3-19.9,7.1-30.6c2.4-22.7,11.6-45.4,20.9-59.8
		c9.9-15.1,18.7-21.4,24.9-16.1c14.9,12.5,12.4,58.8-31.7,102.9C455.1,124.9,451.2,129.1,447,133.2z"/>
</g>
</svg>
