<?xml version="1.0" encoding="utf-8"?>
<!-- Generator: Adobe Illustrator 21.1.0, SVG Export Plug-In . SVG Version: 6.00 Build 0)  -->
<svg version="1.1" id="Layer_1" focusable="false" xmlns="http://www.w3.org/2000/svg" xmlns:xlink="http://www.w3.org/1999/xlink"
	 x="0px" y="0px" viewBox="0 0 640 512" style="enable-background:new 0 0 640 512;" xml:space="preserve">
<path id="_x35_2" d="M639.2,163.1l-6.2-19c-2.7-8.4-11.8-13-20.2-10.3l-77.2,25V48c0-8.8-7.2-16-16-16h-20c-8.8,0-16,7.2-16,16
	v127.6l-75,24.3V48c0-8.8-7.2-16-16-16h-20c-8.8,0-16,7.2-16,16v168.7l-75,24.3V48c0-8.8-7.2-16-16-16h-20c-8.8,0-16,7.2-16,16
	v209.8l-75,24.3V48c0-8.8-7.2-16-16-16h-20c-8.8,0-16,7.2-16,16v251l-91.6,29.7c-8.4,2.7-13,11.8-10.3,20.2l6.2,19
	c2.7,8.4,11.8,13,20.2,10.3l75.6-24.5V464c0,8.8,7.2,16,16,16h20c8.8,0,16-7.2,16-16V336.8l75-24.3V464c0,8.8,7.2,16,16,16h20
	c8.8,0,16-7.2,16-16V295.7l75-24.3V464c0,8.8,7.2,16,16,16h20c8.8,0,16-7.2,16-16V254.5l75-24.3V464c0,8.8,7.2,16,16,16h20
	c8.8,0,16-7.2,16-16V213.4l93.2-30.2C637.3,180.5,641.9,171.5,639.2,163.1z"/>
</svg>
