<?xml version="1.0" encoding="utf-8"?>
<!-- Generator: Adobe Illustrator 21.1.0, SVG Export Plug-In . SVG Version: 6.00 Build 0)  -->
<svg version="1.1" id="Layer_5" xmlns="http://www.w3.org/2000/svg" xmlns:xlink="http://www.w3.org/1999/xlink" x="0px" y="0px"
	 viewBox="0 0 513.8 512" style="enable-background:new 0 0 513.8 512;" xml:space="preserve">
<g id="_x35_2">
	<path d="M483.6,0.5H187L186.8,512h296.9c15.8,0,28.6-12.8,28.6-28.6V29.2C512.3,13.4,499.5,0.5,483.6,0.5z M460.3,460H238.9
		l0.1-247.5h221.4V460z M481,160.5H228.6V32.4H481V160.5z"/>
	<path d="M124.1,50v54.9l-8.6,3c-9.2,3.2-15.3,11.9-15.3,21.6v252.9c0,9.8,6.2,18.4,15.4,21.6l8.4,2.9v54.8H51.5v-56.5l5-1.7
		c9.2-3.2,15.4-11.9,15.4-21.7v-252c0-9.8-6.2-18.5-15.4-21.7l-5-1.7V50H124.1 M143.6,0H31.9C15.1,0,1.5,13.6,1.5,30.4v90.1
		c0,13.3,8.5,24.6,20.4,28.7v213.4C9.9,366.7,1.5,378,1.5,391.3v90.1c0,16.8,13.6,30.4,30.4,30.4h111.7c16.8,0,30.4-13.6,30.4-30.4
		v-90.1c0-14.5-10.2-26.7-23.8-29.7V150.3c13.7-3.1,23.9-15.2,23.9-29.7V30.4C174.1,13.6,160.4,0,143.6,0L143.6,0z"/>
	<g>
		<path d="M463.7,80.9c-1.6-2.7-4-4.1-7.2-4.1s-5.8,1.4-7.7,4.1c-1.6,2.7-2.4,6.2-2.4,10.6c0,4.3,0.8,7.7,2.4,10.2
			c1.9,2.7,4.3,4.1,7.2,4.1c3.2,0,5.8-1.2,7.6-3.7c1.7-2.7,2.5-6.4,2.5-11C466,87,465.3,83.6,463.7,80.9z M459.5,99.2
			c-0.8,1.6-1.9,2.4-3.2,2.4c-1.6,0-2.8-0.8-3.6-2.4c-0.8-1.9-1.2-4.4-1.2-7.7s0.4-5.9,1.2-7.8c0.8-1.9,2-2.9,3.6-2.9
			c1.3,0,2.4,1,3.2,2.9c0.8,1.6,1.2,4.2,1.2,7.8C460.8,94.7,460.3,97.3,459.5,99.2z M441,80.5c-1.9-2.4-4.4-3.7-7.6-3.7
			c-2.7,0-5.1,1.1-7.2,3.3c-1.6,1.9-2.4,4.2-2.4,6.9c0,2.4,0.8,4.5,2.4,6.1c1.4,1.6,3.2,2.5,5.6,2.5c2.7,0,4.7-0.8,6-2.5h0.4
			c-0.5,2.7-1.7,4.8-3.6,6.1c-1.6,1.4-3.5,2.2-5.6,2.4h-2.8v4.2h2.7c4-0.6,7.2-1.9,9.7-4.1c3.2-3,4.8-7.2,4.8-12.6
			C443.5,85.6,442.7,82.7,441,80.5z M437.8,89.5c-0.6,0.5-1.1,1.1-1.6,1.6c-0.8,0.5-1.8,0.8-2.8,0.8c-1.4,0-2.6-0.5-3.6-1.6
			c-0.8-0.8-1.2-2.1-1.2-3.7c0-1.6,0.5-3,1.6-4.1c0.8-1.1,1.9-1.6,3.2-1.6c1.6,0,2.8,0.7,3.6,2.1c0.8,1.3,1.2,3,1.2,4.9
			C438.3,88.7,438.2,89.3,437.8,89.5z M419.3,93.1c-1.1-1.1-2.4-1.9-4-2.4v-0.4c1.6-0.5,2.7-1.5,3.2-2.9c0.8-1.1,1.2-2.2,1.2-3.2
			c0-1.9-0.7-3.5-2-4.9c-1.6-1.6-3.9-2.4-6.8-2.4c-2.7,0-4.8,0.8-6.5,2.4c-1.9,1.4-2.8,3.1-2.8,5.3c0,1.4,0.4,2.6,1.2,3.7
			c0.8,1.1,1.9,1.9,3.2,2.4v0.4c-3.4,1.4-5.1,3.7-5.1,6.9c0,2.2,0.8,4,2.4,5.3c1.9,1.6,4.3,2.5,7.2,2.5c2.9,0,5.4-0.7,7.2-2.1
			c1.9-1.6,2.8-3.7,2.8-6.1C420.5,96,420,94.5,419.3,93.1z M407.7,81.6c0.8-0.8,1.9-1.2,3.2-1.2c1.3,0,2.3,0.4,2.8,1.2
			c0.5,0.8,0.8,1.8,0.8,2.9s-0.3,2.1-0.8,2.9c-0.8,0.8-1.6,1.2-2.4,1.2c-1.1,0-2-0.4-2.8-1.2c-1-0.8-1.6-1.7-1.6-2.9
			C406.8,83.4,407.2,82.5,407.7,81.6z M414.2,100.9c-0.8,0.8-1.9,1.2-3.2,1.2c-1.4,0-2.6-0.4-3.6-1.2c-0.8-1.1-1.2-2.2-1.2-3.3
			c0-1.1,0.5-2.2,1.6-3.2c0.8-1.1,1.6-1.6,2.4-1.6c1.4,0,2.6,0.5,3.6,1.6c1,1,1.6,2.3,1.6,3.6C415.3,99.1,415,100.1,414.2,100.9z
			 M379.2,77.7v4H392v0.4c-4.5,9.2-8.5,17-11.7,23.3h5.6c1.1-2.2,2-4.3,2.8-6.5c0.8-1.3,1.7-3.2,2.8-5.7l0.8-1.2l0.4-1.6
			c0.5-1.1,1.1-2,1.6-2.9c1.1-2.2,2.1-4.3,3.2-6.5v-3.3H379.2z M373.2,89c-1.6-1.6-3.6-2.4-6-2.4c-2.7,0-4.8,1-6.4,2.9
			c0.5-2.2,1.5-3.9,2.8-5.3c1.6-1.6,3.7-2.6,6.4-2.9h2.7v-4.1c-0.8-0.3-1.8-0.3-2.8,0c-4,0.3-7.2,1.6-9.6,4.1
			c-1.6,1.4-2.8,3.1-3.6,5.3c-0.8,2.2-1.2,4.6-1.2,7.3c0,3.5,0.9,6.4,2.8,8.6s4.4,3.3,7.7,3.3c2.7,0,5-1,6.8-2.9
			c1.9-1.9,2.8-4.2,2.8-7C375.5,93.2,374.8,90.9,373.2,89z M369,100.5c-0.8,1.1-1.9,1.6-3.2,1.6c-1.6,0-3-0.7-4-2
			c-0.8-1.4-1.2-3-1.2-4.9c0-0.5,0.1-1.1,0.4-1.6c0.3-0.8,0.8-1.5,1.6-2c0.8-0.6,1.7-0.8,2.8-0.8c1.3,0,2.5,0.6,3.6,1.6
			c0.8,0.7,1.2,2.1,1.2,4C370.3,98,369.8,99.4,369,100.5z M350.5,91.9c-0.8-1.1-1.8-2-2.8-2.9c-1.6-1.1-3.8-1.6-6.5-1.6h-2
			c0-0.8,0.1-1.8,0.4-2.9v-1.2c0.3-0.5,0.4-1.1,0.4-1.6h10.6v-4.1h-14.1c-0.3,1.9-0.7,4.2-1.2,6.9c0,1.4-0.1,2.5-0.4,3.3
			c0,1.4-0.2,2.6-0.4,3.7h4c2.4,0,4.3,0.4,5.6,1.2s2,2,2,3.7c0,1.6-0.7,3-2,4.1c-1.1,0.8-2.4,1.2-4,1.2c-1.1,0-2.3-0.1-3.6-0.4
			c-0.8-0.3-1.6-0.7-2.4-1.2c0,0.5-0.1,0.9-0.4,1.2v0.8c-0.3,0.8-0.4,1.5-0.4,2.1c1.9,1.1,4.3,1.6,7.2,1.6c3.2,0,5.9-1,8-2.9
			c1.9-1.6,2.8-3.8,2.8-6.5C351.3,94.8,351,93.3,350.5,91.9z M326.8,94.4V77.6h-6c-1.1,1.4-2.1,2.9-3.2,4.5
			c-0.5,1.1-1.4,2.4-2.4,4.1c-0.6,0.8-0.9,1.5-1.2,2.1c-0.6,0.5-1.1,1.2-1.6,2c-1.1,1.6-2,3.2-2.8,4.5v3.7h12.5v6.9h4.7v-6.9h3.6
			v-4.1H326.8z M322,94.4h-7.6c0.6-0.8,1.1-1.5,1.6-2.1v-0.4l0.4-0.8l0.4-0.8c1.1-1.3,2-2.6,2.8-3.7c0.8-1.4,1.6-3,2.4-4.9V94.4z
			 M304.2,92.7c-1.1-1.1-2.6-1.9-4.4-2.5c1.6-0.5,2.9-1.3,4-2.4c0.8-1.1,1.2-2.4,1.2-4.1c0-1.9-0.8-3.5-2.4-4.9
			c-1.3-1.3-3.5-2-6.5-2c-1.3,0-2.8,0.3-4.4,0.8c-1.3,0.3-2.4,0.8-3.2,1.6c0,0.6,0.1,1.1,0.4,1.6c0.3,0.8,0.6,1.5,0.8,2.1
			c0.5-0.6,1.3-1,2.4-1.2c1.1-0.3,2.1-0.4,3.2-0.4c1.3,0,2.4,0.3,3.2,0.8c0.8,0.8,1.2,1.6,1.2,2.4c0,1.4-0.7,2.5-2,3.3
			c-1.1,0.6-2.3,0.8-3.6,0.8h-2.4v3.7h2.4c1.9,0,3.3,0.4,4.4,1.2c1.3,0.8,2,2,2,3.7c0,1.1-0.4,2-1.2,2.9c-1.1,1.1-2.6,1.6-4.4,1.6
			c-1.1,0-2.3-0.3-3.6-0.8c-1.1-0.3-1.6-0.4-1.6-0.4s-0.3-0.2-1.1-0.4v0.8c-0.3,0.3-0.4,0.7-0.4,1.2c-0.3,0.8-0.5,1.4-0.8,1.6
			c2.1,1.4,4.8,2.1,8,2.1c3.2,0,5.8-0.8,7.6-2.5c1.9-1.6,2.8-3.7,2.8-6.1C305.8,95.6,305.3,94.1,304.2,92.7z M272.5,100.9
			c0-0.3,0.1-0.4,0.4-0.4l0.4-0.4h0.4c0-0.3,0.2-0.6,0.4-0.8c0.3,0,0.5-0.1,0.8-0.4c2.7-2.7,4.6-4.9,5.6-6.5
			c1.6-2.4,2.4-4.8,2.4-6.9c0-2.4-0.7-4.3-2-5.7c-1.9-1.9-4.2-2.9-6.8-2.9c-3.5,0-6.3,1-8.4,2.9c0,0.8,0.1,1.5,0.4,2l0.4,0.4v0.4
			c0.3,0.3,0.4,0.7,0.4,1.2c1.1-0.8,2-1.4,2.8-1.6c1.1-0.5,2.1-0.8,3.2-0.8c1.6,0,2.8,0.4,3.6,1.2c0.8,0.8,1.2,1.9,1.2,3.3
			c0,1.9-0.8,3.8-2.4,5.7c-1.1,1.6-3.5,4.2-7.2,7.7l-3.2,2.9v3.3h18.9v-4.6H272.5z M251.2,77.6c-0.5,0.3-1.2,0.6-2,0.8
			c-0.3,0-0.6,0.1-0.8,0.4l-0.8,0.4c-1.1,0.6-2.1,1.1-3.2,1.6c0,0.3,0.2,0.5,0.4,0.8v1.2c0.3,0.8,0.4,1.5,0.4,2
			c0.5-0.3,1.1-0.5,1.6-0.8l0.4-0.4l0.8-0.4c0.5-0.3,0.9-0.4,1.2-0.4c0.3-0.3,0.6-0.6,1.2-0.8v23.4h5.2V77.6H251.2z"/>
	</g>
	<g>
		<path d="M258.8,231.1v35.1h45.8v-35.1H258.8z M285.2,259.5h-3.5v-16.9c-0.4,0.1-0.8,0.4-1.2,0.6l-0.3,0.3l-0.6,0.3h-0.3
			c-0.2,0.2-0.4,0.3-0.6,0.3c-0.2,0.2-0.5,0.4-0.9,0.6c0-0.4-0.1-0.7-0.3-0.9v-0.6c-0.2-0.7-0.3-1.2-0.3-1.5c2-1,3.6-1.8,5-2.4h2.9
			V259.5z M282.2,303.7c-0.6,0.8-1.2,1.7-1.8,2.7l-0.6,0.6c0,0.4-0.1,0.7-0.3,0.9c-0.4,0.4-0.7,0.9-0.9,1.5h5.3v-9.3
			C283.4,301.5,282.8,302.8,282.2,303.7z M282.2,303.7c-0.6,0.8-1.2,1.7-1.8,2.7l-0.6,0.6c0,0.4-0.1,0.7-0.3,0.9
			c-0.4,0.4-0.7,0.9-0.9,1.5h5.3v-9.3C283.4,301.5,282.8,302.8,282.2,303.7z M282.2,303.7c-0.6,0.8-1.2,1.7-1.8,2.7l-0.6,0.6
			c0,0.4-0.1,0.7-0.3,0.9c-0.4,0.4-0.7,0.9-0.9,1.5h5.3v-9.3C283.4,301.5,282.8,302.8,282.2,303.7z M282.2,303.7
			c-0.6,0.8-1.2,1.7-1.8,2.7l-0.6,0.6c0,0.4-0.1,0.7-0.3,0.9c-0.4,0.4-0.7,0.9-0.9,1.5h5.3v-9.3
			C283.4,301.5,282.8,302.8,282.2,303.7z M282.2,303.7c-0.6,0.8-1.2,1.7-1.8,2.7l-0.6,0.6c0,0.4-0.1,0.7-0.3,0.9
			c-0.4,0.4-0.7,0.9-0.9,1.5h5.3v-9.3C283.4,301.5,282.8,302.8,282.2,303.7z M282.2,303.7c-0.6,0.8-1.2,1.7-1.8,2.7l-0.6,0.6
			c0,0.4-0.1,0.7-0.3,0.9c-0.4,0.4-0.7,0.9-0.9,1.5h5.3v-9.3C283.4,301.5,282.8,302.8,282.2,303.7z M258.8,289.5v35.1h45.8v-35.1
			H258.8z M290.1,312.4h-2.6v5.1h-3.4v-5H275v-2.7c0.8-1,1.5-2.1,2.3-3.3c0.2-0.4,0.5-0.9,0.9-1.5l0.3-0.9l0.6-0.6
			c1.5-2.4,2.9-4.5,4.1-6.3h4.4v12.2h2.6V312.4z M280.4,306.4l-0.6,0.6c0,0.4-0.1,0.7-0.3,0.9c-0.4,0.4-0.7,0.9-0.9,1.5h5.3v-9.3
			c-0.6,1.4-1.2,2.6-1.8,3.6C281.6,304.5,281,305.4,280.4,306.4z M282.2,303.7c-0.6,0.8-1.2,1.7-1.8,2.7l-0.6,0.6
			c0,0.4-0.1,0.7-0.3,0.9c-0.4,0.4-0.7,0.9-0.9,1.5h5.3v-9.3C283.4,301.5,282.8,302.8,282.2,303.7z M282.2,303.7
			c-0.6,0.8-1.2,1.7-1.8,2.7l-0.6,0.6c0,0.4-0.1,0.7-0.3,0.9c-0.4,0.4-0.7,0.9-0.9,1.5h5.3v-9.3
			C283.4,301.5,282.8,302.8,282.2,303.7z M282.2,303.7c-0.6,0.8-1.2,1.7-1.8,2.7l-0.6,0.6c0,0.4-0.1,0.7-0.3,0.9
			c-0.4,0.4-0.7,0.9-0.9,1.5h5.3v-9.3C283.4,301.5,282.8,302.8,282.2,303.7z M282.2,303.7c-0.6,0.8-1.2,1.7-1.8,2.7l-0.6,0.6
			c0,0.4-0.1,0.7-0.3,0.9c-0.4,0.4-0.7,0.9-0.9,1.5h5.3v-9.3C283.4,301.5,282.8,302.8,282.2,303.7z M282.2,303.7
			c-0.6,0.8-1.2,1.7-1.8,2.7l-0.6,0.6c0,0.4-0.1,0.7-0.3,0.9c-0.4,0.4-0.7,0.9-0.9,1.5h5.3v-9.3
			C283.4,301.5,282.8,302.8,282.2,303.7z M282.2,303.7c-0.6,0.8-1.2,1.7-1.8,2.7l-0.6,0.6c0,0.4-0.1,0.7-0.3,0.9
			c-0.4,0.4-0.7,0.9-0.9,1.5h5.3v-9.3C283.4,301.5,282.8,302.8,282.2,303.7z M258.8,347.8v35.1h45.8v-35.1H258.8z M289.6,357.6
			c-4.1,8.3-6.9,14.2-8.5,17.8H277c1.3-3,2.7-5.8,4.1-8.6c0.4-0.8,1-2,2-3.9c0.4-0.9,0.8-1.8,1.2-2.3c0.4-0.8,0.8-1.6,1.2-2.4h-9.4
			v-3.3h13.5V357.6z M258.8,406.2v35.1h45.8v-35.1H258.8z M290.2,425.2c-1-0.2-2.3-0.4-3.9-0.6l-0.6-0.3h-0.9
			c-0.8-0.2-1.5-0.3-2-0.3c0.4,0.6,0.7,1.2,1.2,1.8c0.2,0,0.4,0.2,0.6,0.6l0.6,0.6c0.8,1,1.5,2,2.3,3c-0.4,0.1-0.9,0.5-1.8,0.9
			l-0.3,0.3c-0.2,0-0.4,0.1-0.6,0.3c-0.2,0.2-0.5,0.4-0.9,0.6c-0.4-1.2-0.9-2.4-1.5-3.6l-0.3-0.9v-0.3L282,427
			c0-0.4-0.1-0.7-0.3-0.9c-0.2-0.4-0.3-0.8-0.3-1.2h-0.3c-0.2,0.7-0.4,1.3-0.6,2.1l-0.3,0.3v0.3l-0.3,0.9c-0.6,1.2-1.1,2.4-1.5,3.6
			c-0.4-0.1-0.7-0.4-0.9-0.6s-0.5-0.4-0.9-0.6c-0.6-0.4-1.2-0.7-1.8-0.9c0.6-0.6,1.1-1.2,1.5-1.8l0.6-0.6l0.3-0.6l0.6-0.6
			c0.2-0.2,0.4-0.4,0.6-0.9c0.4-0.4,0.8-0.9,1.2-1.5c-0.6,0-1.2,0.1-1.8,0.3H277l-0.9,0.3c-1.2,0.2-2.3,0.4-3.5,0.6v-4.2
			c0.9,0.2,2.1,0.4,3.5,0.6l0.9,0.3h0.9c0.6,0.2,1.2,0.3,1.8,0.3c-0.4-0.6-0.8-1.1-1.2-1.5c-0.2-0.2-0.4-0.5-0.6-0.9l-0.6-0.6
			c-0.8-1.2-1.5-2.2-2.3-3c0.4-0.2,0.8-0.4,1.2-0.6l0.3-0.3h0.3c0.8-0.4,1.4-0.8,1.8-1.2c0.4,0.6,0.7,1.2,0.9,1.8
			c0.1,0.4,0.4,1,0.6,1.8c0.6,1.4,1.1,2.5,1.5,3.3c0.2-0.4,0.5-0.9,0.9-1.8v-0.3l0.6-1.2c0.4-1.2,0.7-2.4,1.2-3.6
			c0.6,0.4,1.2,0.8,1.8,1.2h0.6c0,0.2,0.1,0.3,0.3,0.3c0.4,0.2,0.7,0.4,0.9,0.6c-0.6,0.8-0.9,1-0.9,1s-0.5,0.6-1.5,1.8l-0.6,0.6
			c-0.2,0.4-0.4,0.7-0.6,0.9c-0.4,0.4-0.8,0.9-1.2,1.5c3-0.4,5.4-0.7,7.4-1.2V425.2z M282.2,303.7c-0.6,0.8-1.2,1.7-1.8,2.7
			l-0.6,0.6c0,0.4-0.1,0.7-0.3,0.9c-0.4,0.4-0.7,0.9-0.9,1.5h5.3v-9.3C283.4,301.5,282.8,302.8,282.2,303.7z M282.2,303.7
			c-0.6,0.8-1.2,1.7-1.8,2.7l-0.6,0.6c0,0.4-0.1,0.7-0.3,0.9c-0.4,0.4-0.7,0.9-0.9,1.5h5.3v-9.3
			C283.4,301.5,282.8,302.8,282.2,303.7z M327.7,231.1v35.1h45.8v-35.1H327.7z M358.9,259.5H345V257c0.4-0.2,0.7-0.4,0.9-0.6
			l0.6-0.6l0.3-0.3c0.4-0.1,0.7-0.4,0.9-0.6c2.5-2.3,4.3-4.2,5.3-5.6c0.9-1.4,1.5-2.7,1.5-3.9c0-0.9-0.2-1.8-0.6-2.3
			c-0.8-0.8-1.8-1.2-2.9-1.2c-0.8,0-1.5,0.2-2.3,0.6c-0.6,0.1-1.2,0.6-1.8,1.2c-0.2-0.1-0.3-0.5-0.3-0.9l-0.3-0.3v-0.3
			c-0.2-0.4-0.4-0.8-0.6-1.2c1.6-1.5,3.6-2.1,6.2-2.1c2.1,0,3.8,0.6,5,1.8c0.9,1,1.5,2.4,1.5,4.2c0,1.8-0.5,3.4-1.5,5
			c-0.9,1.2-2.4,2.8-4.4,4.7c-0.2,0.1-0.5,0.4-0.9,0.9c-0.4,0.2-0.7,0.4-0.9,0.6h8.2V259.5z M327.7,289.5v35.1h45.8v-35.1H327.7z
			 M356.5,315.6c-1.5,1.4-3.6,2.1-6.1,2.1c-1.9,0-3.7-0.4-5.3-1.2c0.2-0.4,0.5-1.4,0.9-3c0.6,0.4,1.2,0.7,1.8,0.9
			c0.9,0.2,1.8,0.3,2.6,0.3c1.2,0,2.1-0.3,2.9-0.9c0.9-0.8,1.5-1.8,1.5-3s-0.5-2.1-1.5-2.7c-0.9-0.7-2.4-1.2-4.4-1.2
			c-0.9,0-1.8,0.1-2.6,0.3c0.1-0.8,0.3-1.7,0.3-2.7c0.1-0.4,0.3-0.8,0.3-1.2v-1.2c0.4-2,0.7-3.6,0.9-5h10.2v2.9h-7.7
			c-0.1,0.4-0.3,0.7-0.3,1.2v0.9c-0.2,0.8-0.3,1.5-0.3,2.1h1.5c1.8,0,3.4,0.4,4.7,1.2c0.7,0.7,1.5,1.3,2,2.1c0.4,1,0.6,2,0.6,3
			C358.5,312.6,357.8,314.2,356.5,315.6z M354.4,358.2c-0.6-0.6-1.3-0.9-2.3-0.9c-0.9,0-1.6,0.3-2,0.9c-0.6,0.6-0.9,1.2-0.9,1.8
			c0,1,0.4,1.8,1.2,2.5c0.8,0.6,1.5,0.9,2,0.9c0.6,0,1.2-0.3,1.8-0.9c0.6-0.6,0.9-1.3,0.9-2.1C355,359.5,354.8,358.8,354.4,358.2z
			 M354.2,367.4c-0.8-0.7-1.5-1.2-2.3-1.2c-0.8,0-1.5,0.4-2,1.2c-0.6,0.8-0.9,1.6-0.9,2.4c0,0.8,0.3,1.5,0.9,2.1
			c0.6,0.8,1.4,1.2,2.3,1.2c0.9,0,1.8-0.3,2.6-0.9c0.6-0.7,0.9-1.3,0.9-2.1C355.7,369.1,355.1,368.2,354.2,367.4z M354.2,367.4
			c-0.8-0.7-1.5-1.2-2.3-1.2c-0.8,0-1.5,0.4-2,1.2c-0.6,0.8-0.9,1.6-0.9,2.4c0,0.8,0.3,1.5,0.9,2.1c0.6,0.8,1.4,1.2,2.3,1.2
			c0.9,0,1.8-0.3,2.6-0.9c0.6-0.7,0.9-1.3,0.9-2.1C355.7,369.1,355.1,368.2,354.2,367.4z M354.4,358.2c-0.6-0.6-1.3-0.9-2.3-0.9
			c-0.9,0-1.6,0.3-2,0.9c-0.6,0.6-0.9,1.2-0.9,1.8c0,1,0.4,1.8,1.2,2.5c0.8,0.6,1.5,0.9,2,0.9c0.6,0,1.2-0.3,1.8-0.9
			c0.6-0.6,0.9-1.3,0.9-2.1C355,359.5,354.8,358.8,354.4,358.2z M354.4,358.2c-0.6-0.6-1.3-0.9-2.3-0.9c-0.9,0-1.6,0.3-2,0.9
			c-0.6,0.6-0.9,1.2-0.9,1.8c0,1,0.4,1.8,1.2,2.5c0.8,0.6,1.5,0.9,2,0.9c0.6,0,1.2-0.3,1.8-0.9c0.6-0.6,0.9-1.3,0.9-2.1
			C355,359.5,354.8,358.8,354.4,358.2z M354.2,367.4c-0.8-0.7-1.5-1.2-2.3-1.2c-0.8,0-1.5,0.4-2,1.2c-0.6,0.8-0.9,1.6-0.9,2.4
			c0,0.8,0.3,1.5,0.9,2.1c0.6,0.8,1.4,1.2,2.3,1.2c0.9,0,1.8-0.3,2.6-0.9c0.6-0.7,0.9-1.3,0.9-2.1
			C355.7,369.1,355.1,368.2,354.2,367.4z M354.2,367.4c-0.8-0.7-1.5-1.2-2.3-1.2c-0.8,0-1.5,0.4-2,1.2c-0.6,0.8-0.9,1.6-0.9,2.4
			c0,0.8,0.3,1.5,0.9,2.1c0.6,0.8,1.4,1.2,2.3,1.2c0.9,0,1.8-0.3,2.6-0.9c0.6-0.7,0.9-1.3,0.9-2.1
			C355.7,369.1,355.1,368.2,354.2,367.4z M350.3,362.5c0.8,0.6,1.5,0.9,2,0.9c0.6,0,1.2-0.3,1.8-0.9c0.6-0.6,0.9-1.3,0.9-2.1
			c0-0.8-0.2-1.5-0.6-2.1c-0.6-0.6-1.3-0.9-2.3-0.9c-0.9,0-1.6,0.3-2,0.9c-0.6,0.6-0.9,1.2-0.9,1.8
			C349.2,361,349.5,361.8,350.3,362.5z M327.7,347.8v35.1h45.8v-35.1H327.7z M357.3,374c-1.3,1.2-3.1,1.8-5.3,1.8
			c-2.3,0-4.1-0.6-5.3-1.8c-1.2-1-1.8-2.3-1.8-3.9c0-2.4-0.1-3.6-0.1-3.6s1.2-0.6,3.5-1.8c-0.9-0.4-1.8-1-2.3-1.8
			c-0.4-0.8-0.6-1.7-0.6-2.7c0-1.6,0.7-3,2-4.2c1.2-1,2.7-1.5,4.7-1.5c2,0,3.6,0.7,4.7,1.8c0.9,1,1.5,2.2,1.5,3.6
			c0,0.8-0.2,1.6-0.6,2.4c-0.6,0.8-1.4,1.5-2.3,2.1c1.2,0.6,2,1.3,2.6,2.1c0.8,0.8,1.2,1.9,1.2,3.3C359.4,371.6,358.7,373,357.3,374
			z M354.2,367.4c-0.8-0.7-1.5-1.2-2.3-1.2c-0.8,0-1.5,0.4-2,1.2c-0.6,0.8-0.9,1.6-0.9,2.4c0,0.8,0.3,1.5,0.9,2.1
			c0.6,0.8,1.4,1.2,2.3,1.2c0.9,0,1.8-0.3,2.6-0.9c0.6-0.7,0.9-1.3,0.9-2.1C355.7,369.1,355.1,368.2,354.2,367.4z M350.3,362.5
			c0.8,0.6,1.5,0.9,2,0.9c0.6,0,1.2-0.3,1.8-0.9c0.6-0.6,0.9-1.3,0.9-2.1c0-0.8-0.2-1.5-0.6-2.1c-0.6-0.6-1.3-0.9-2.3-0.9
			c-0.9,0-1.6,0.3-2,0.9c-0.6,0.6-0.9,1.2-0.9,1.8C349.2,361,349.5,361.8,350.3,362.5z M354.4,358.2c-0.6-0.6-1.3-0.9-2.3-0.9
			c-0.9,0-1.6,0.3-2,0.9c-0.6,0.6-0.9,1.2-0.9,1.8c0,1,0.4,1.8,1.2,2.5c0.8,0.6,1.5,0.9,2,0.9c0.6,0,1.2-0.3,1.8-0.9
			c0.6-0.6,0.9-1.3,0.9-2.1C355,359.5,354.8,358.8,354.4,358.2z M354.2,367.4c-0.8-0.7-1.5-1.2-2.3-1.2c-0.8,0-1.5,0.4-2,1.2
			c-0.6,0.8-0.9,1.6-0.9,2.4c0,0.8,0.3,1.5,0.9,2.1c0.6,0.8,1.4,1.2,2.3,1.2c0.9,0,1.8-0.3,2.6-0.9c0.6-0.7,0.9-1.3,0.9-2.1
			C355.7,369.1,355.1,368.2,354.2,367.4z M354.2,367.4c-0.8-0.7-1.5-1.2-2.3-1.2c-0.8,0-1.5,0.4-2,1.2c-0.6,0.8-0.9,1.6-0.9,2.4
			c0,0.8,0.3,1.5,0.9,2.1c0.6,0.8,1.4,1.2,2.3,1.2c0.9,0,1.8-0.3,2.6-0.9c0.6-0.7,0.9-1.3,0.9-2.1
			C355.7,369.1,355.1,368.2,354.2,367.4z M354.4,358.2c-0.6-0.6-1.3-0.9-2.3-0.9c-0.9,0-1.6,0.3-2,0.9c-0.6,0.6-0.9,1.2-0.9,1.8
			c0,1,0.4,1.8,1.2,2.5c0.8,0.6,1.5,0.9,2,0.9c0.6,0,1.2-0.3,1.8-0.9c0.6-0.6,0.9-1.3,0.9-2.1C355,359.5,354.8,358.8,354.4,358.2z
			 M354.4,358.2c-0.6-0.6-1.3-0.9-2.3-0.9c-0.9,0-1.6,0.3-2,0.9c-0.6,0.6-0.9,1.2-0.9,1.8c0,1,0.4,1.8,1.2,2.5
			c0.8,0.6,1.5,0.9,2,0.9c0.6,0,1.2-0.3,1.8-0.9c0.6-0.6,0.9-1.3,0.9-2.1C355,359.5,354.8,358.8,354.4,358.2z M354.2,367.4
			c-0.8-0.7-1.5-1.2-2.3-1.2c-0.8,0-1.5,0.4-2,1.2c-0.6,0.8-0.9,1.6-0.9,2.4c0,0.8,0.3,1.5,0.9,2.1c0.6,0.8,1.4,1.2,2.3,1.2
			c0.9,0,1.8-0.3,2.6-0.9c0.6-0.7,0.9-1.3,0.9-2.1C355.7,369.1,355.1,368.2,354.2,367.4z M354.2,367.4c-0.8-0.7-1.5-1.2-2.3-1.2
			c-0.8,0-1.5,0.4-2,1.2c-0.6,0.8-0.9,1.6-0.9,2.4c0,0.8,0.3,1.5,0.9,2.1c0.6,0.8,1.4,1.2,2.3,1.2c0.9,0,1.8-0.3,2.6-0.9
			c0.6-0.7,0.9-1.3,0.9-2.1C355.7,369.1,355.1,368.2,354.2,367.4z M354.4,358.2c-0.6-0.6-1.3-0.9-2.3-0.9c-0.9,0-1.6,0.3-2,0.9
			c-0.6,0.6-0.9,1.2-0.9,1.8c0,1,0.4,1.8,1.2,2.5c0.8,0.6,1.5,0.9,2,0.9c0.6,0,1.2-0.3,1.8-0.9c0.6-0.6,0.9-1.3,0.9-2.1
			C355,359.5,354.8,358.8,354.4,358.2z M327.7,406.2v35.1h45.8v-35.1H327.7z M353.2,433.5h-3.5v-17h-0.3c-0.4,0.1-0.9,0.5-1.8,0.9
			c-0.8,0.4-1.3,0.7-1.8,0.9c0-0.2-0.1-0.4-0.3-0.6v-0.9c-0.2-0.7-0.3-1.1-0.3-1.5c0.7-0.4,1.5-0.7,2.3-1.2l0.6-0.3h0.3l0.3-0.3
			c0.4-0.1,0.8-0.4,1.2-0.6h3.2V433.5z M354.2,367.4c-0.8-0.7-1.5-1.2-2.3-1.2c-0.8,0-1.5,0.4-2,1.2c-0.6,0.8-0.9,1.6-0.9,2.4
			c0,0.8,0.3,1.5,0.9,2.1c0.6,0.8,1.4,1.2,2.3,1.2c0.9,0,1.8-0.3,2.6-0.9c0.6-0.7,0.9-1.3,0.9-2.1
			C355.7,369.1,355.1,368.2,354.2,367.4z M354.4,358.2c-0.6-0.6-1.3-0.9-2.3-0.9c-0.9,0-1.6,0.3-2,0.9c-0.6,0.6-0.9,1.2-0.9,1.8
			c0,1,0.4,1.8,1.2,2.5c0.8,0.6,1.5,0.9,2,0.9c0.6,0,1.2-0.3,1.8-0.9c0.6-0.6,0.9-1.3,0.9-2.1C355,359.5,354.8,358.8,354.4,358.2z
			 M354.2,367.4c-0.8-0.7-1.5-1.2-2.3-1.2c-0.8,0-1.5,0.4-2,1.2c-0.6,0.8-0.9,1.6-0.9,2.4c0,0.8,0.3,1.5,0.9,2.1
			c0.6,0.8,1.4,1.2,2.3,1.2c0.9,0,1.8-0.3,2.6-0.9c0.6-0.7,0.9-1.3,0.9-2.1C355.7,369.1,355.1,368.2,354.2,367.4z M354.4,358.2
			c-0.6-0.6-1.3-0.9-2.3-0.9c-0.9,0-1.6,0.3-2,0.9c-0.6,0.6-0.9,1.2-0.9,1.8c0,1,0.4,1.8,1.2,2.5c0.8,0.6,1.5,0.9,2,0.9
			c0.6,0,1.2-0.3,1.8-0.9c0.6-0.6,0.9-1.3,0.9-2.1C355,359.5,354.8,358.8,354.4,358.2z M396.7,231.1v35.1h46.1v-35.1H396.7z
			 M424.6,257.8c-1.5,1.2-3.5,1.8-5.8,1.8c-2.4,0-4.2-0.4-5.6-1.2c0-0.4,0.1-0.7,0.3-0.9V257c0.2-0.6,0.4-1.1,0.6-1.5
			c0.4,0.2,0.7,0.2,0.7,0.2s0.4,0.1,1.2,0.3c0.9,0.4,1.8,0.6,2.6,0.6c1.3,0,2.4-0.4,3.2-1.2c0.6-0.7,0.9-1.3,0.9-2.1
			c0-1.2-0.4-2.1-1.5-2.7c-0.7-0.6-1.8-0.9-2.9-0.9h-1.8v-2.7h1.8c0.9,0,1.8-0.1,2.6-0.6c0.8-0.6,1.2-1.4,1.2-2.4
			c0-0.6-0.3-1.2-0.9-1.8c-0.4-0.4-1.2-0.6-2.3-0.6c-0.8,0-1.5,0.1-2.3,0.3c-0.6,0.1-1.2,0.4-1.8,0.9c0-0.4-0.1-0.9-0.3-1.5
			c-0.1-0.4-0.4-0.7-0.6-1.2c0.6-0.4,1.3-0.7,2.3-1.2c1.2-0.2,2.3-0.3,3.5-0.3c1.9,0,3.5,0.5,4.7,1.5c0.9,0.8,1.5,1.9,1.5,3.3
			c0,1.2-0.3,2.2-0.9,3c-0.6,0.8-1.5,1.4-2.6,1.8c1.2,0.4,2.1,1,2.9,1.8c0.9,1,1.5,2.2,1.5,3.6C426.6,255.5,426,256.9,424.6,257.8z
			 M422.8,308c-0.7-0.7-1.6-1.2-2.6-1.2c-0.8,0-1.5,0.2-2,0.6c-0.6,0.4-0.9,0.9-1.2,1.5c-0.2,0.4-0.3,0.8-0.3,1.2
			c0,1.4,0.3,2.6,0.9,3.6c0.7,0.8,1.8,1.2,2.9,1.2c0.9,0,1.8-0.3,2.3-0.9c0.6-0.8,0.9-1.9,0.9-3.3
			C423.7,309.4,423.4,308.6,422.8,308z M422.8,308c-0.7-0.7-1.6-1.2-2.6-1.2c-0.8,0-1.5,0.2-2,0.6c-0.6,0.4-0.9,0.9-1.2,1.5
			c-0.2,0.4-0.3,0.8-0.3,1.2c0,1.4,0.3,2.6,0.9,3.6c0.7,0.8,1.8,1.2,2.9,1.2c0.9,0,1.8-0.3,2.3-0.9c0.6-0.8,0.9-1.9,0.9-3.3
			C423.7,309.4,423.4,308.6,422.8,308z M422.8,308c-0.7-0.7-1.6-1.2-2.6-1.2c-0.8,0-1.5,0.2-2,0.6c-0.6,0.4-0.9,0.9-1.2,1.5
			c-0.2,0.4-0.3,0.8-0.3,1.2c0,1.4,0.3,2.6,0.9,3.6c0.7,0.8,1.8,1.2,2.9,1.2c0.9,0,1.8-0.3,2.3-0.9c0.6-0.8,0.9-1.9,0.9-3.3
			C423.7,309.4,423.4,308.6,422.8,308z M422.8,308c-0.7-0.7-1.6-1.2-2.6-1.2c-0.8,0-1.5,0.2-2,0.6c-0.6,0.4-0.9,0.9-1.2,1.5
			c-0.2,0.4-0.3,0.8-0.3,1.2c0,1.4,0.3,2.6,0.9,3.6c0.7,0.8,1.8,1.2,2.9,1.2c0.9,0,1.8-0.3,2.3-0.9c0.6-0.8,0.9-1.9,0.9-3.3
			C423.7,309.4,423.4,308.6,422.8,308z M422.8,308c-0.7-0.7-1.6-1.2-2.6-1.2c-0.8,0-1.5,0.2-2,0.6c-0.6,0.4-0.9,0.9-1.2,1.5
			c-0.2,0.4-0.3,0.8-0.3,1.2c0,1.4,0.3,2.6,0.9,3.6c0.7,0.8,1.8,1.2,2.9,1.2c0.9,0,1.8-0.3,2.3-0.9c0.6-0.8,0.9-1.9,0.9-3.3
			C423.7,309.4,423.4,308.6,422.8,308z M422.8,308c-0.7-0.7-1.6-1.2-2.6-1.2c-0.8,0-1.5,0.2-2,0.6c-0.6,0.4-0.9,0.9-1.2,1.5
			c-0.2,0.4-0.3,0.8-0.3,1.2c0,1.4,0.3,2.6,0.9,3.6c0.7,0.8,1.8,1.2,2.9,1.2c0.9,0,1.8-0.3,2.3-0.9c0.6-0.8,0.9-1.9,0.9-3.3
			C423.7,309.4,423.4,308.6,422.8,308z M422.8,308c-0.7-0.7-1.6-1.2-2.6-1.2c-0.8,0-1.5,0.2-2,0.6c-0.6,0.4-0.9,0.9-1.2,1.5
			c-0.2,0.4-0.3,0.8-0.3,1.2c0,1.4,0.3,2.6,0.9,3.6c0.7,0.8,1.8,1.2,2.9,1.2c0.9,0,1.8-0.3,2.3-0.9c0.6-0.8,0.9-1.9,0.9-3.3
			C423.7,309.4,423.4,308.6,422.8,308z M422.8,308c-0.7-0.7-1.6-1.2-2.6-1.2c-0.8,0-1.5,0.2-2,0.6c-0.6,0.4-0.9,0.9-1.2,1.5
			c-0.2,0.4-0.3,0.8-0.3,1.2c0,1.4,0.3,2.6,0.9,3.6c0.7,0.8,1.8,1.2,2.9,1.2c0.9,0,1.8-0.3,2.3-0.9c0.6-0.8,0.9-1.9,0.9-3.3
			C423.7,309.4,423.4,308.6,422.8,308z M396.7,289.5v35.1h46.1v-35.1H396.7z M425.5,315.8c-1.3,1.4-3,2.1-5,2.1
			c-2.4,0-4.2-0.8-5.6-2.4s-2-3.7-2-6.3c0-2,0.3-3.8,0.9-5.4c0.6-1.6,1.5-2.8,2.6-3.9c1.8-1.8,4.2-2.8,7.1-3c0.7-0.2,1.5-0.2,2,0
			v3.1h-2c-2,0.2-3.5,0.9-4.7,2.1c-0.9,1-1.7,2.3-2,3.9h0.3c0.9-1.4,2.4-2.1,4.4-2.1c1.8,0,3.2,0.7,4.4,1.8c1.2,1.4,1.8,3.1,1.8,5
			C427.5,312.7,426.9,314.4,425.5,315.8z M420.2,306.8c-0.8,0-1.5,0.2-2,0.6c-0.6,0.4-0.9,0.9-1.2,1.5c-0.2,0.4-0.3,0.8-0.3,1.2
			c0,1.4,0.3,2.6,0.9,3.6c0.7,0.8,1.8,1.2,2.9,1.2c0.9,0,1.8-0.3,2.3-0.9c0.6-0.8,0.9-1.9,0.9-3.3c0-1.2-0.3-2-0.9-2.6
			C422.1,307.2,421.2,306.8,420.2,306.8z M422.8,308c-0.7-0.7-1.6-1.2-2.6-1.2c-0.8,0-1.5,0.2-2,0.6c-0.6,0.4-0.9,0.9-1.2,1.5
			c-0.2,0.4-0.3,0.8-0.3,1.2c0,1.4,0.3,2.6,0.9,3.6c0.7,0.8,1.8,1.2,2.9,1.2c0.9,0,1.8-0.3,2.3-0.9c0.6-0.8,0.9-1.9,0.9-3.3
			C423.7,309.4,423.4,308.6,422.8,308z M422.8,308c-0.7-0.7-1.6-1.2-2.6-1.2c-0.8,0-1.5,0.2-2,0.6c-0.6,0.4-0.9,0.9-1.2,1.5
			c-0.2,0.4-0.3,0.8-0.3,1.2c0,1.4,0.3,2.6,0.9,3.6c0.7,0.8,1.8,1.2,2.9,1.2c0.9,0,1.8-0.3,2.3-0.9c0.6-0.8,0.9-1.9,0.9-3.3
			C423.7,309.4,423.4,308.6,422.8,308z M422.8,308c-0.7-0.7-1.6-1.2-2.6-1.2c-0.8,0-1.5,0.2-2,0.6c-0.6,0.4-0.9,0.9-1.2,1.5
			c-0.2,0.4-0.3,0.8-0.3,1.2c0,1.4,0.3,2.6,0.9,3.6c0.7,0.8,1.8,1.2,2.9,1.2c0.9,0,1.8-0.3,2.3-0.9c0.6-0.8,0.9-1.9,0.9-3.3
			C423.7,309.4,423.4,308.6,422.8,308z M422.8,308c-0.7-0.7-1.6-1.2-2.6-1.2c-0.8,0-1.5,0.2-2,0.6c-0.6,0.4-0.9,0.9-1.2,1.5
			c-0.2,0.4-0.3,0.8-0.3,1.2c0,1.4,0.3,2.6,0.9,3.6c0.7,0.8,1.8,1.2,2.9,1.2c0.9,0,1.8-0.3,2.3-0.9c0.6-0.8,0.9-1.9,0.9-3.3
			C423.7,309.4,423.4,308.6,422.8,308z M422.8,308c-0.7-0.7-1.6-1.2-2.6-1.2c-0.8,0-1.5,0.2-2,0.6c-0.6,0.4-0.9,0.9-1.2,1.5
			c-0.2,0.4-0.3,0.8-0.3,1.2c0,1.4,0.3,2.6,0.9,3.6c0.7,0.8,1.8,1.2,2.9,1.2c0.9,0,1.8-0.3,2.3-0.9c0.6-0.8,0.9-1.9,0.9-3.3
			C423.7,309.4,423.4,308.6,422.8,308z M422.8,308c-0.7-0.7-1.6-1.2-2.6-1.2c-0.8,0-1.5,0.2-2,0.6c-0.6,0.4-0.9,0.9-1.2,1.5
			c-0.2,0.4-0.3,0.8-0.3,1.2c0,1.4,0.3,2.6,0.9,3.6c0.7,0.8,1.8,1.2,2.9,1.2c0.9,0,1.8-0.3,2.3-0.9c0.6-0.8,0.9-1.9,0.9-3.3
			C423.7,309.4,423.4,308.6,422.8,308z M422.8,308c-0.7-0.7-1.6-1.2-2.6-1.2c-0.8,0-1.5,0.2-2,0.6c-0.6,0.4-0.9,0.9-1.2,1.5
			c-0.2,0.4-0.3,0.8-0.3,1.2c0,1.4,0.3,2.6,0.9,3.6c0.7,0.8,1.8,1.2,2.9,1.2c0.9,0,1.8-0.3,2.3-0.9c0.6-0.8,0.9-1.9,0.9-3.3
			C423.7,309.4,423.4,308.6,422.8,308z M422.8,308c-0.7-0.7-1.6-1.2-2.6-1.2c-0.8,0-1.5,0.2-2,0.6c-0.6,0.4-0.9,0.9-1.2,1.5
			c-0.2,0.4-0.3,0.8-0.3,1.2c0,1.4,0.3,2.6,0.9,3.6c0.7,0.8,1.8,1.2,2.9,1.2c0.9,0,1.8-0.3,2.3-0.9c0.6-0.8,0.9-1.9,0.9-3.3
			C423.7,309.4,423.4,308.6,422.8,308z M422.8,359.1c-0.7-0.9-1.8-1.5-2.9-1.5c-0.8,0-1.5,0.4-2.3,1.2c-0.6,0.8-0.9,1.8-0.9,3
			c0,0.9,0.3,1.9,0.9,2.6c0.6,0.6,1.4,0.9,2.3,0.9c0.8,0,1.5-0.1,2-0.3c0.6-0.4,1.1-0.8,1.5-1.2v-1.2
			C423.4,361.3,423.2,360.1,422.8,359.1z M422.8,359.1c-0.7-0.9-1.8-1.5-2.9-1.5c-0.8,0-1.5,0.4-2.3,1.2c-0.6,0.8-0.9,1.8-0.9,3
			c0,0.9,0.3,1.9,0.9,2.6c0.6,0.6,1.4,0.9,2.3,0.9c0.8,0,1.5-0.1,2-0.3c0.6-0.4,1.1-0.8,1.5-1.2v-1.2
			C423.4,361.3,423.2,360.1,422.8,359.1z M422.8,359.1c-0.7-0.9-1.8-1.5-2.9-1.5c-0.8,0-1.5,0.4-2.3,1.2c-0.6,0.8-0.9,1.8-0.9,3
			c0,0.9,0.3,1.9,0.9,2.6c0.6,0.6,1.4,0.9,2.3,0.9c0.8,0,1.5-0.1,2-0.3c0.6-0.4,1.1-0.8,1.5-1.2v-1.2
			C423.4,361.3,423.2,360.1,422.8,359.1z M422.8,359.1c-0.7-0.9-1.8-1.5-2.9-1.5c-0.8,0-1.5,0.4-2.3,1.2c-0.6,0.8-0.9,1.8-0.9,3
			c0,0.9,0.3,1.9,0.9,2.6c0.6,0.6,1.4,0.9,2.3,0.9c0.8,0,1.5-0.1,2-0.3c0.6-0.4,1.1-0.8,1.5-1.2v-1.2
			C423.4,361.3,423.2,360.1,422.8,359.1z M396.7,347.8v35.1h46.1v-35.1H396.7z M424.1,372.8c-1.8,1.6-4.2,2.6-7.1,3h-2.3v-3.1
			c0.6,0,1.3-0.1,2.3-0.3c1.5,0,2.9-0.4,4.1-1.5c1.2-0.9,2-2.5,2.3-4.5c-0.9,1.2-2.4,1.8-4.4,1.8c-1.8,0-3.2-0.6-4.4-1.8
			c-1.2-1.2-1.8-2.6-1.8-4.5c0-2,0.7-3.6,2-5c1.3-1.6,3.1-2.4,5.3-2.4c2.3,0,4.1,0.9,5.3,2.7c1.4,1.4,2,3.4,2,5.9
			C427.6,367.5,426.4,370.6,424.1,372.8z M419.9,357.6c-0.8,0-1.5,0.4-2.3,1.2c-0.6,0.8-0.9,1.8-0.9,3c0,0.9,0.3,1.9,0.9,2.6
			c0.6,0.6,1.4,0.9,2.3,0.9c0.8,0,1.5-0.1,2-0.3c0.6-0.4,1.1-0.8,1.5-1.2v-1.2c0-1.4-0.2-2.6-0.6-3.6
			C422.1,358.2,421.1,357.6,419.9,357.6z M422.8,359.1c-0.7-0.9-1.8-1.5-2.9-1.5c-0.8,0-1.5,0.4-2.3,1.2c-0.6,0.8-0.9,1.8-0.9,3
			c0,0.9,0.3,1.9,0.9,2.6c0.6,0.6,1.4,0.9,2.3,0.9c0.8,0,1.5-0.1,2-0.3c0.6-0.4,1.1-0.8,1.5-1.2v-1.2
			C423.4,361.3,423.2,360.1,422.8,359.1z M422.8,359.1c-0.7-0.9-1.8-1.5-2.9-1.5c-0.8,0-1.5,0.4-2.3,1.2c-0.6,0.8-0.9,1.8-0.9,3
			c0,0.9,0.3,1.9,0.9,2.6c0.6,0.6,1.4,0.9,2.3,0.9c0.8,0,1.5-0.1,2-0.3c0.6-0.4,1.1-0.8,1.5-1.2v-1.2
			C423.4,361.3,423.2,360.1,422.8,359.1z M419.6,421.6l-0.6,4.5h3.5l0.6-4.5H419.6z M419.6,421.6l-0.6,4.5h3.5l0.6-4.5H419.6z
			 M396.7,406.2v35.1h46.1v-35.1H396.7z M430.1,421.7h-3.5c-0.1,0.4-0.3,0.8-0.3,1.2v0.9c-0.2,1-0.4,1.8-0.6,2.4h3.2v3.6h-3.5
			c-0.2,0.7-0.3,1.2-0.3,1.8c-0.2,0.4-0.3,0.9-0.3,1.5l-0.3,0.9v0.9c0,0.6-0.1,1.2-0.3,1.8h-3.5c0.2-0.6,0.3-1.2,0.3-1.8
			c0.1-0.4,0.3-1,0.3-1.8c0.2-1.4,0.4-2.5,0.6-3.3h-3.5c-0.1,0.7-0.3,1.2-0.3,1.8c0,0.4-0.1,0.9-0.3,1.5c-0.2,1.6-0.4,2.8-0.6,3.6
			v0.1h-3.4c0-1,0.1-2.2,0.3-3.6l0.3-0.6v-0.9c0.2-0.7,0.3-1.2,0.3-1.8h-3.2v-3.6h3.9c0-0.4,0.1-0.8,0.3-1.2v-1.2
			c0.1-0.8,0.3-1.5,0.3-2.1h-3.2v-3.6h3.9c0.2-1,0.4-2.2,0.6-3.6s0.3-2.5,0.3-3.3h3.5c0,0.6-0.1,1.2-0.3,1.8c0,0.4-0.1,0.9-0.3,1.5
			c-0.2,1.4-0.3,2.6-0.3,3.6h3.5c0-0.7,0.1-1.3,0.3-2.1v-1.5c0.1-1.4,0.4-2.5,0.6-3.3h3.5c-0.2,0.6-0.3,1.2-0.3,1.8v0.9l-0.3,0.6
			c-0.2,1.4-0.4,2.6-0.6,3.6h3.2V421.7z M419,426.1h3.5l0.6-4.5h-3.5L419,426.1z M419.6,421.6l-0.6,4.5h3.5l0.6-4.5H419.6z
			 M419.6,421.6l-0.6,4.5h3.5l0.6-4.5H419.6z M419.6,421.6l-0.6,4.5h3.5l0.6-4.5H419.6z M422.8,308c-0.7-0.7-1.6-1.2-2.6-1.2
			c-0.8,0-1.5,0.2-2,0.6c-0.6,0.4-0.9,0.9-1.2,1.5c-0.2,0.4-0.3,0.8-0.3,1.2c0,1.4,0.3,2.6,0.9,3.6c0.7,0.8,1.8,1.2,2.9,1.2
			c0.9,0,1.8-0.3,2.3-0.9c0.6-0.8,0.9-1.9,0.9-3.3C423.7,309.4,423.4,308.6,422.8,308z M422.8,359.1c-0.7-0.9-1.8-1.5-2.9-1.5
			c-0.8,0-1.5,0.4-2.3,1.2c-0.6,0.8-0.9,1.8-0.9,3c0,0.9,0.3,1.9,0.9,2.6c0.6,0.6,1.4,0.9,2.3,0.9c0.8,0,1.5-0.1,2-0.3
			c0.6-0.4,1.1-0.8,1.5-1.2v-1.2C423.4,361.3,423.2,360.1,422.8,359.1z M422.8,308c-0.7-0.7-1.6-1.2-2.6-1.2c-0.8,0-1.5,0.2-2,0.6
			c-0.6,0.4-0.9,0.9-1.2,1.5c-0.2,0.4-0.3,0.8-0.3,1.2c0,1.4,0.3,2.6,0.9,3.6c0.7,0.8,1.8,1.2,2.9,1.2c0.9,0,1.8-0.3,2.3-0.9
			c0.6-0.8,0.9-1.9,0.9-3.3C423.7,309.4,423.4,308.6,422.8,308z M422.8,359.1c-0.7-0.9-1.8-1.5-2.9-1.5c-0.8,0-1.5,0.4-2.3,1.2
			c-0.6,0.8-0.9,1.8-0.9,3c0,0.9,0.3,1.9,0.9,2.6c0.6,0.6,1.4,0.9,2.3,0.9c0.8,0,1.5-0.1,2-0.3c0.6-0.4,1.1-0.8,1.5-1.2v-1.2
			C423.4,361.3,423.2,360.1,422.8,359.1z M419.6,421.6l-0.6,4.5h3.5l0.6-4.5H419.6z"/>
	</g>
</g>
</svg>
