<?xml version="1.0" encoding="utf-8"?>
<!-- Generator: Adobe Illustrator 21.1.0, SVG Export Plug-In . SVG Version: 6.00 Build 0)  -->
<svg version="1.1" id="Layer_1" xmlns="http://www.w3.org/2000/svg" xmlns:xlink="http://www.w3.org/1999/xlink" x="0px" y="0px"
	 viewBox="0 0 594.4 511.7" style="enable-background:new 0 0 594.4 511.7;" xml:space="preserve">
<g id="_x35_2">
	<path d="M587.2,401H296.7c-4,0-7.3,3.3-7.3,7.3v37.5c0,4,3.3,7.3,7.3,7.3h290.4c4,0,7.3-3.3,7.3-7.3v-37.5
		C594.4,404.2,591.2,401,587.2,401z"/>
	<path d="M40.8,29.2c-6.3-6.3-16.6-6.3-23,0l-13,13c-6.3,6.3-6.3,16.6,0,23l190.5,190.4L4.8,446.2c-6.3,6.3-6.3,16.6,0,23l13,13
		c6.3,6.3,16.6,6.3,23,0l214.9-214.9c6.4-6.4,6.4-16.8,0-23.2L40.8,29.2z"/>
</g>
</svg>
