<?xml version="1.0" encoding="utf-8"?>
<!-- Generator: Adobe Illustrator 22.0.1, SVG Export Plug-In . SVG Version: 6.00 Build 0)  -->
<svg version="1.1" id="Layer_2_1_" xmlns="http://www.w3.org/2000/svg" xmlns:xlink="http://www.w3.org/1999/xlink" x="0px" y="0px"
	 viewBox="0 0 512 512" style="enable-background:new 0 0 512 512;" xml:space="preserve">
<style type="text/css">
	.st0{fill:#070707;}
</style>
<g>
	<path id="_x36_2" class="st0" d="M76.4,91.6h27.8c7.3-38,24.3-47.4,49.1-48.2c4.5-0.1,72.8,0,77.7,0.3c0,0-0.5,179.2-0.5,183.7
		c0,18.4-15.4,20.4-20.2,21.4v26h94.4v-26c-4-0.7-20.2-2.9-20.2-21.4c0-3.7-0.5-183.7-0.5-183.7c4.6-0.1,72.9-0.4,77.7-0.4
		c20.1-0.2,40.5,4,49,48.3h27.8V0H76.4V91.6z"/>
	<polygon class="st0" points="459.3,336.3 400.9,394.7 427.2,421.1 512,336.3 427.2,251.4 400.9,277.8 	"/>
	<polygon class="st0" points="52.7,336.3 111.1,277.8 84.8,251.4 0,336.3 84.8,421.1 111.1,394.7 	"/>
	<polygon class="st0" points="255.9,459.3 197.5,400.9 171.1,427.2 255.9,512 340.7,427.2 314.4,400.9 	"/>
	<rect x="178.4" y="317.6" class="st0" width="155" height="37.3"/>
</g>
</svg>
