<?xml version="1.0" encoding="utf-8"?>
<!-- Generator: Adobe Illustrator 22.0.1, SVG Export Plug-In . SVG Version: 6.00 Build 0)  -->
<svg version="1.1" id="Layer_1" xmlns="http://www.w3.org/2000/svg" xmlns:xlink="http://www.w3.org/1999/xlink" x="0px" y="0px"
	 viewBox="0 0 512 512" style="enable-background:new 0 0 512 512;" xml:space="preserve">
<style type="text/css">
	.st0{fill:#070707;}
</style>
<g>
	<polygon points="512,393.1 393.6,511.5 356.9,474.7 412.5,419.1 99.6,419.1 155.2,474.7 118.4,511.5 0,393.1 118.4,274.7 
		155.2,311.5 99.6,367.1 412.5,367.1 356.9,311.5 393.6,274.7 	"/>
	<path id="_x36_2" class="st0" d="M74.4,91.6h27.8c7.3-38,24.3-47.4,49.1-48.2c4.5-0.1,72.8,0,77.7,0.3c0,0-0.5,200.2-0.5,204.7
		c0,18.4-15.4,20.4-20.2,21.4v26h94.4v-26c-4-0.7-20.2-2.9-20.2-21.4c0-3.7-0.5-204.7-0.5-204.7c4.6-0.1,72.9-0.4,77.7-0.4
		c20.1-0.2,40.5,4,49,48.3h27.8V0H74.4V91.6z"/>
</g>
</svg>
