<?xml version="1.0" encoding="utf-8"?>
<!-- Generator: Adobe Illustrator 22.0.1, SVG Export Plug-In . SVG Version: 6.00 Build 0)  -->
<svg version="1.1" id="Layer_2_1_" xmlns="http://www.w3.org/2000/svg" xmlns:xlink="http://www.w3.org/1999/xlink" x="0px" y="0px"
	 viewBox="0 0 512 512" style="enable-background:new 0 0 512 512;" xml:space="preserve">
<style type="text/css">
	.st0{fill:#070707;}
</style>
<g>
	<polygon points="440.5,393.1 358.9,474.7 395.6,511.5 514,393.1 395.6,274.7 358.9,311.5 	"/>
	<polygon points="75.6,393.1 157.2,311.5 120.4,274.7 2,393.1 120.4,511.5 157.2,474.7 	"/>
	<rect x="151.5" y="367.1" width="213.7" height="52"/>
	<path id="_x36_2" class="st0" d="M76.4,91.6h27.8c7.3-38,24.3-47.4,49.1-48.2c4.5-0.1,72.8,0,77.7,0.3c0,0-0.5,190.2-0.5,194.7
		c0,18.4-15.4,20.4-20.2,21.4v26h94.4v-26c-4-0.7-20.2-2.9-20.2-21.4c0-3.7-0.5-194.7-0.5-194.7c4.6-0.1,72.9-0.4,77.7-0.4
		c20.1-0.2,40.5,4,49,48.3h27.8V0H76.4V91.6z"/>
</g>
</svg>
