<?xml version="1.0" encoding="utf-8"?>
<!-- Generator: Adobe Illustrator 21.1.0, SVG Export Plug-In . SVG Version: 6.00 Build 0)  -->
<svg version="1.1" id="Layer_2" xmlns="http://www.w3.org/2000/svg" xmlns:xlink="http://www.w3.org/1999/xlink" x="0px" y="0px"
	 viewBox="0 0 417 512" style="enable-background:new 0 0 417 512;" xml:space="preserve">
<g>
	<path d="M216.7,389.5l185.6-262.6c25.6-36.3,17-86.4-19.3-112c-36.3-25.6-86.4-17-112,19.3L85.4,296.7
		c-25.6,5.6-49.2,20.4-65.5,43.4C-14.7,389.2-3,457.1,46,491.8s116.9,23,151.6-26C213.9,442.7,220,415.5,216.7,389.5z M73.4,453
		c-27.6-19.5-34.2-57.8-14.7-85.4c12.5-17.7,32.7-26.8,52.9-25.9l30-42.5l168-237.8c10.5-14.9,31.1-18.4,46-7.9s18.4,31.1,7.9,46
		l-19.3,27.3l-14.1-9.9c-4.1-2.9-9.9-1.9-12.8,2.2s-1.9,9.9,2.2,12.8l14.1,9.9l-12,17l-14.1-9.9c-4.1-2.9-9.9-1.9-12.8,2.2
		c-2.9,4.1-1.9,9.9,2.2,12.8l14.1,9.9l-12,17L285,181c-4.1-2.9-9.9-1.9-12.8,2.2c-2.9,4.1-1.9,9.9,2.2,12.8l14.1,9.9l-12,17
		l-14.1-9.9c-4.1-2.9-9.9-1.9-12.8,2.2c-2.9,4.1-1.9,9.9,2.2,12.8l14.1,9.9l-12,17l-14.1-9.9c-4.1-2.9-9.9-1.9-12.8,2.2
		c-2.9,4.1-1.9,9.9,2.2,12.8l14.1,9.9l-47.6,67.4l-30,42.5l0,0c7.6,18.7,5.8,40.8-6.7,58.5C139.3,465.9,101.1,472.5,73.4,453z"/>
	<path d="M141.4,383.9l65.8-93c5-7.1,3.3-16.9-3.8-21.9l0,0c-7.1-5-16.9-3.3-21.9,3.8l-65.8,93.1c-15.1-3.2-31.4,2.6-40.9,16
		c-12.7,18-8.4,42.9,9.6,55.6c18,12.7,42.9,8.4,55.6-9.6C149.6,414.4,149.5,397.1,141.4,383.9z"/>
</g>
</svg>
