<?xml version="1.0" encoding="utf-8"?>
<!-- Generator: Adobe Illustrator 21.1.0, SVG Export Plug-In . SVG Version: 6.00 Build 0)  -->
<svg version="1.1" id="Layer_1" xmlns="http://www.w3.org/2000/svg" xmlns:xlink="http://www.w3.org/1999/xlink" x="0px" y="0px"
	 viewBox="0 0 430.8 512" style="enable-background:new 0 0 430.8 512;" xml:space="preserve">
<path d="M419.5,126.3c-47-27.2-166.2-96-213.1-123c-10.7-6.2-24.4-2.5-30.6,8.2c-12.6,21.8-46.3,80.2-46.3,80.2l33.8,19.5l-60,103.9
	l-21.7-12.5c-16.2-9.3-37.1-3.8-46.4,12.4L0,276l106.5,61.5c-11.9,35.7-50.9,164.5-52,168c-1.3,4-0.3,4.6,1.4,5.6
	c1.8,1,2.8,1.7,5.6-1.5c2.4-2.8,94.5-100.9,119.5-128.9l105.6,61l35.2-61c9.4-16.2,3.7-37.1-12.4-46.4l-20.8-12l60-103.9l32.9,19
	c0,0,33.7-58.3,46.3-80.1C434,146.3,430.3,132.6,419.5,126.3z M135.5,213l45.4-77.7c3.3-5.7,10.7-7.6,16.4-4.3
	c3.8,2.2,5.9,6.2,5.9,10.4c0,2.1-0.5,4.1-1.6,6l-45.4,77.7c-3.3,5.7-10.6,7.7-16.4,4.3C134.2,226.1,132.3,218.7,135.5,213z
	 M238,168.6c3.3-5.7,10.7-7.6,16.4-4.3l2.6,1.5c5.7,3.3,7.6,10.7,4.3,16.4l-45.4,77.7c-3.3,5.7-10.7,7.6-16.4,4.3l-2.6-1.5
	c-5.7-3.3-7.6-10.7-4.3-16.4L238,168.6z M262.3,379.7L65.7,266.2l8.8-15.3c0.6-1.1,2.1-1.5,3.2-0.9l193,110.3
	c1.1,0.6,1.5,2.1,0.9,3.2L262.3,379.7z M318.3,215.5l-45.4,77.7c-3.3,5.7-10.7,7.7-16.4,4.3c-5.7-3.3-7.6-10.7-4.3-16.4l45.4-77.7
	c3.3-5.7,10.7-7.6,16.4-4.3c3.8,2.2,5.9,6.2,5.9,10.4C319.9,211.6,319.3,213.7,318.3,215.5z M360.9,168.8L199,75.3l5.8-10.1
	c0.7-1.1,2.1-1.5,3.2-0.9l157.8,91.1c1.1,0.7,1.5,2.1,0.9,3.2L360.9,168.8z"/>
</svg>
