<?xml version="1.0" encoding="utf-8"?>
<!-- Generator: Adobe Illustrator 21.1.0, SVG Export Plug-In . SVG Version: 6.00 Build 0)  -->
<svg version="1.1" id="Layer_2" xmlns="http://www.w3.org/2000/svg" xmlns:xlink="http://www.w3.org/1999/xlink" x="0px" y="0px"
	 viewBox="0 0 512 512" style="enable-background:new 0 0 512 512;" xml:space="preserve">
<g>
	<rect x="319" y="206.1" transform="matrix(0.7069 -0.7073 0.7073 0.7069 -60.3332 304.1733)" width="35.8" height="37.6"/>
	<path d="M444.4,139.9c-20.1,11.3-46.7,8.4-63.9-8.8c-17.2-17.2-20-43.7-8.7-63.8L303.6-0.7L0.4,302.7l68.5,68.5c0,0,0,0,0.1,0
		c20.1-11.2,46-8.3,63,8.8c17.1,17.1,20.4,43.1,9.1,63.2l-0.1-0.1l66.9,66.8l303.3-303.4L444.4,139.9z M393.8,256.6l-8.4-8.5
		l-25.3,25.3l8.4,8.5L207.9,442.6c0,0-12.6-12.6-13.6-13.6c5.6-32.1-9.8-64.3-29.8-84.3c-19.2-19.2-58.5-33.5-81.1-26.6
		c-0.6-0.6-15.6-15.6-15.6-15.6l160.7-160.7l8.5,8.5l25.3-25.3l-8.5-8.4l49.9-49.9c0,0,13,13,14.9,14.9
		c-5.5,20.3,3.7,58.1,27.9,82.3c28,28.1,63.8,33.1,83.6,29.1c2.1,2.1,13.6,13.6,13.6,13.6L393.8,256.6z"/>
	<rect x="268.3" y="155.5" transform="matrix(0.7072 -0.707 0.707 0.7072 -39.468 253.3643)" width="35.7" height="37.6"/>
</g>
</svg>
