<?xml version="1.0" encoding="utf-8"?>
<!-- Generator: Adobe Illustrator 21.1.0, SVG Export Plug-In . SVG Version: 6.00 Build 0)  -->
<svg version="1.1" id="Layer_5" xmlns="http://www.w3.org/2000/svg" xmlns:xlink="http://www.w3.org/1999/xlink" x="0px" y="0px"
	 viewBox="0 0 512 512" style="enable-background:new 0 0 512 512;" xml:space="preserve">
<path id="_x35_2" d="M369,365.1c-72.4,0-108.2-51.3-137.1-92.6c-29.2-41.8-49.1-67.4-89-67.4c-23.3,0-40.9,6.5-53.8,19.8
	c-8.4,8.7-14.2,19.6-18.1,30.3C60.6,284.5,33,304.1,2,305.1l-1,0c-0.1-3.1-2.1-76.1,43.6-123.3c24.8-25.7,57.9-38.8,98.4-38.8
	c74.2,0,110.6,52.1,139.8,93.9c28.6,41,48.1,66.1,86.2,66.1c33.7,0,55.7-14.2,69.3-44.8c0.7-1.6,1.4-3.3,2-4.9
	c11.5-29.5,39.5-49.4,71.1-49.6l0.5,0c0,3.1,0.1,76.6-46.5,123.5C440.7,352.4,408.2,365.1,369,365.1z"/>
</svg>
