<?xml version="1.0" encoding="utf-8"?>
<!-- Generator: Adobe Illustrator 21.1.0, SVG Export Plug-In . SVG Version: 6.00 Build 0)  -->
<svg version="1.1" id="Layer_1" xmlns="http://www.w3.org/2000/svg" xmlns:xlink="http://www.w3.org/1999/xlink" x="0px" y="0px"
	 viewBox="0 0 512 512" style="enable-background:new 0 0 512 512;" xml:space="preserve">
<path d="M462,0.5H50c-27.6,0-50,22.4-50,50v412c0,27.6,22.4,50,50,50h412c27.6,0,50-22.4,50-50v-412C512,22.9,489.6,0.5,462,0.5z
	 M460,448.5c0,9.9-2,12-12,12H64c-10,0-12-2.1-12-12v-384c0-10,2-12,12-12h384c10,0,12,2,12,12V448.5z M327.1,151.7l-70.1,70
	l-70.1-70l-36.7,36.7l70,70.1l-70,70.1l36.7,36.7l70.1-70l70.1,70l36.7-36.7l-70-70.1l70-70.1L327.1,151.7z"/>
</svg>
