<?xml version="1.0" encoding="utf-8"?>
<!-- Generator: Adobe Illustrator 21.1.0, SVG Export Plug-In . SVG Version: 6.00 Build 0)  -->
<svg version="1.1" id="Layer_3" xmlns="http://www.w3.org/2000/svg" xmlns:xlink="http://www.w3.org/1999/xlink" x="0px" y="0px"
	 viewBox="0 0 371.2 512" style="enable-background:new 0 0 371.2 512;" xml:space="preserve">
<g>
	<path d="M154.7,417.9c-3.4,5.9-9.7,9.4-16.2,9.4c-1.8,0-3.7-0.3-5.5-0.8l-0.1,0c-0.9-0.3-2.2-0.7-3.6-1.6
		c-9.5-5.2-17.9-11.2-25.6-18.5c-25.8-24.1-36.9-56.4-32.1-93.3c1.3-10.3,10.4-17.4,20.7-16.1c1.2,0.1,2.4,0.4,3.6,0.8
		c7.7,2.5,12.8,9.6,12.8,17.4c0,0.8-0.1,1.5-0.2,2.3c-3.1,25.4,3.8,45.8,21.1,62.2c5.2,4.9,11.4,9.3,18.3,13.2
		c4.2,2.3,7.3,6.1,8.6,10.8C157.9,408.5,157.2,413.6,154.7,417.9z"/>
	<path d="M179,102.4c9,19.5,20.2,38.1,33.2,55.1c8.5,11.1,17.5,22.3,27.1,34.1c20.5,25.3,41.6,51.4,57.3,77
		c14.6,23.9,22,43.6,22,58.6c0,22.8-3.8,43.2-11.2,60.8c-6.5,15.4-15.8,28.6-27.8,39.4c-23.3,21-56.5,32.6-93.6,32.6
		s-70.3-11.6-93.6-32.6c-11.9-10.8-21.3-24-27.8-39.4c-7.4-17.6-11.2-38-11.2-60.8c0-44.9,32-109.9,90.2-183.1
		C155.7,129.1,167.7,115,179,102.4 M205.8,0C205.8,0,1,186.3,1,327.2C1,450.4,88.9,512,186.1,512s185.1-61.6,185.1-184.8
		c0-68.2-72.3-142.5-117-201.1C206.5,63.7,205.8,0,205.8,0L205.8,0z"/>
</g>
</svg>
