<?xml version="1.0" encoding="utf-8"?>
<!-- Generator: Adobe Illustrator 21.1.0, SVG Export Plug-In . SVG Version: 6.00 Build 0)  -->
<svg version="1.1" id="Layer_1" focusable="false" xmlns="http://www.w3.org/2000/svg" xmlns:xlink="http://www.w3.org/1999/xlink"
	 x="0px" y="0px" viewBox="0 0 640 512" style="enable-background:new 0 0 640 512;" xml:space="preserve">
<path id="_x35_2_1_" d="M501.9,366.4c2.1-12.3,3.2-25.4,3.2-39.2c0-68.2-72.3-142.5-117-201.1C340.4,63.7,339.7,0,339.7,0
	s-67.4,61.3-124.9,140.3L39.3,2.9c-5.3-4.1-12.8-3.7-17.5,1L3.9,21.9C-1.7,27.5-1.2,36.8,5,41.7l180.8,141.5l41.4,32.6l215.1,169.5
	l42.5,33.5l115.8,90.4c5.3,4.1,12.8,3.7,17.5-1l17.9-17.9c5.6-5.6,5.1-14.8-1.2-19.7L501.9,366.4z M452.5,327.5L255.9,172.6
	c6.8-9.3,14-18.8,21.6-28.5c12.1-15,24.1-29.1,35.4-41.7c9,19.5,20.2,38.1,33.2,55.1c8.5,11.1,17.5,22.3,27.1,34.1
	c20.5,25.3,41.6,51.4,57.3,77c14.6,23.9,22,43.6,22,58.6V327.5z M290.4,403.7c-1.3-4.7-4.4-8.5-8.6-10.8
	c-6.9-3.9-13.1-8.3-18.3-13.2c-17.3-16.4-24.2-36.8-21.1-62.2c0.1-0.8,0.2-1.5,0.2-2.3c0-7.8-5.1-14.9-12.8-17.4
	c-1.2-0.4-2.4-0.7-3.6-0.8c-10.3-1.3-19.4,5.8-20.7,16.1c-4.8,36.9,6.3,69.2,32.1,93.3c7.7,7.3,16.1,13.3,25.6,18.5
	c1.4,0.9,2.7,1.3,3.6,1.6h0.1c1.8,0.5,3.7,0.8,5.5,0.8c6.5,0,12.8-3.5,16.2-9.4C291.1,413.6,291.8,408.5,290.4,403.7z M412.8,428
	c-23.3,20.6-56.2,32-92.9,32c-37.1,0-70.3-11.6-93.6-32.6c-11.9-10.8-21.3-24-27.8-39.4c-7.4-17.6-11.2-38-11.2-60.8
	c0-18.4,5.4-40.2,15.7-64.5l-42.4-33.4c-15.7,33.2-25.8,66.7-25.8,97.9C134.9,450.4,222.8,512,320,512c51.2,0,99.8-17.1,134.4-51.3
	L412.8,428z"/>
</svg>
