<?xml version="1.0" encoding="utf-8"?>
<!-- Generator: Adobe Illustrator 21.1.0, SVG Export Plug-In . SVG Version: 6.00 Build 0)  -->
<svg version="1.1" id="Layer_5" xmlns="http://www.w3.org/2000/svg" xmlns:xlink="http://www.w3.org/1999/xlink" x="0px" y="0px"
	 viewBox="0 0 512 512" style="enable-background:new 0 0 512 512;" xml:space="preserve">
<g id="_x33_2_1_">
	<path d="M503.5,263.3L503.5,263.3c1.4-0.9,3.2-2,5.8-3.6c0,0,2.6-1.6,2.7-4.6c0.2-14-1.4-31.2-4.4-45.5c0,0-0.6-3-3.5-4.1
		c-2.8-1.1-4.8-1.8-6.3-2.4c-0.7-0.3-1.3-0.9-1.5-1.8c-0.2-0.9,0.1-1.8,0.7-2.4l0,0c1.1-1.2,2.6-2.7,4.7-4.9c0,0,2.1-2.2,1.4-5.2
		c-3.4-13.6-9.5-29.8-16.1-42.8c0,0-1.4-2.7-4.4-3s-5.2-0.5-6.7-0.7c-0.8-0.1-1.5-0.6-1.9-1.3c-0.4-0.8-0.4-1.8,0.1-2.5l0,0
		c0.8-1.4,1.8-3.3,3.2-5.9c0,0,1.5-2.7,0-5.4c-6.8-12.2-16.9-26.3-26.6-37.2c0,0-2-2.3-5.1-1.8c-3,0.5-5.1,0.8-6.6,1.1
		c-0.8,0.1-1.6-0.1-2.2-0.8c-0.6-0.7-0.8-1.6-0.6-2.5l0,0c0.4-1.6,0.9-3.7,1.6-6.6c0,0,0.7-3-1.4-5.2c-9.7-10-23.1-21-35.3-29
		c0,0-2.6-1.7-5.4-0.4c-2.8,1.2-4.7,2.1-6.1,2.8c-0.7,0.3-1.6,0.3-2.3-0.2c-0.8-0.5-1.2-1.4-1.2-2.2l0,0c0-1.6-0.1-3.8-0.2-6.8
		c0,0-0.1-3.1-2.7-4.7c-12-7.2-27.7-14.3-41.6-18.9c0,0-2.9-0.9-5.3,1s-4,3.3-5.2,4.2c-0.6,0.5-1.5,0.7-2.3,0.4
		c-0.9-0.3-1.5-1-1.7-1.8l0,0c-0.5-1.5-1.1-3.6-1.9-6.5c0,0-0.9-2.9-3.8-3.8c-13.4-3.8-30.5-6.7-45.1-7.5c0,0-0.2,0-0.5,0
		c-0.8,0-3.1,0.3-4.5,2.3c-1.8,2.5-3,4.2-3.9,5.4c-0.5,0.6-1.2,1-2.1,1s-1.7-0.6-2.1-1.3l0,0c-0.8-1.4-2-3.2-3.5-5.8
		c0,0-1.6-2.6-4.7-2.7c-14-0.2-31.2,1.4-45.5,4.4c0,0-3,0.6-4.1,3.5c-1.1,2.8-1.8,4.8-2.4,6.3c-0.3,0.7-0.9,1.3-1.8,1.5
		c-0.9,0.2-1.8-0.1-2.4-0.7l0,0c-0.2-0.2-0.4-0.4-0.6-0.6c-0.3-0.3-0.6-0.6-0.9-0.9c-0.3-0.3-0.6-0.6-1-1c-0.3-0.3-0.6-0.5-0.9-0.8
		c-0.4-0.4-0.9-0.9-1.4-1.4c0,0-2.2-2.1-5.2-1.4C175.2,12,159,18.1,146,24.7c0,0-2.7,1.4-3,4.4s-0.5,5.1-0.7,6.7
		c-0.1,0.8-0.5,1.5-1.3,1.9c-0.6,0.3-1.2,0.3-1.8,0.2c-1.4-0.7-3.4-1.8-6.3-3.4c-0.7-0.4-1.3-0.6-2-0.6c-1-0.2-2.4-0.2-3.8,0.5
		c-8.4,4.6-17.6,10.8-26,17.4c-3.9,3-7.6,6-11,8.9c-0.7,0.6-1.1,1.3-1.4,1.9c-0.4,0.9-0.8,2-0.6,3.4c0.6,3.5,1,5.9,1.2,7.4
		c-0.1,0.5-0.3,1-0.7,1.4c-0.6,0.6-1.5,0.8-2.2,0.6c-1.5-0.4-3.6-0.9-6.5-1.6c-3-0.7-5.2,1.4-5.2,1.4c-10.5,10.1-21.6,23.4-29.3,35
		c-1.7,2.6-0.4,5.4-0.4,5.4c1.2,2.7,2.1,4.7,2.8,6.2l0,0c0.4,0.8,0.4,1.7-0.1,2.5c-0.4,0.7-1.2,1.1-2,1.2c-1.5,0-3.7,0.1-6.7,0.1
		c-3.1,0.1-4.7,2.7-4.7,2.7c-7.6,12.5-14.9,28.2-19.3,41.4c-1,2.9,1,5.3,1,5.3c1.9,2.3,3.3,4,4.3,5.2l0,0c0.6,0.6,0.8,1.6,0.5,2.5
		c-0.2,0.8-0.9,1.4-1.6,1.6c-1.5,0.4-3.5,1-6.5,1.9c-2.9,0.9-3.8,3.8-3.8,3.8c-4.1,14-7.1,31.1-7.9,45c-0.2,3.1,2.3,4.9,2.3,4.9
		c0.9,0.6,1.7,1.2,2.4,1.7c0.4,0.3,0.7,0.5,1.1,0.8c0.5,0.4,1,0.7,1.5,1.1c0.2,0.1,0.4,0.2,0.5,0.4l0,0c0.7,0.5,1.2,1.3,1.2,2.2
		s-0.5,1.6-1.2,2c-1.3,0.8-3.1,1.9-5.7,3.5s-2.7,4.7-2.7,4.7c-0.3,14.6,1.2,31.8,4,45.5c0.6,3,3.5,4.1,3.5,4.1
		c2.8,1,4.8,1.8,6.3,2.4l0,0c0.8,0.3,1.5,0.9,1.7,1.9c0.2,0.8-0.1,1.7-0.6,2.3c-1,1.1-2.5,2.7-4.6,4.8c-2.1,2.2-1.4,5.2-1.4,5.2
		c3.5,14.2,9.4,30.4,15.7,42.9c1.4,2.7,4.4,3,4.4,3c2.9,0.3,5.1,0.5,6.7,0.7l0,0c0.9,0,1.7,0.5,2.1,1.3c0.4,0.8,0.4,1.6,0,2.3
		c-0.7,1.4-1.8,3.2-3.2,5.9c-1.5,2.7,0,5.4,0,5.4c7,12.8,17,26.9,26.2,37.4c2,2.3,5.1,1.8,5.1,1.8c2.9-0.5,5.1-0.8,6.7-1.1l0,0
		c0.8-0.2,1.8,0.1,2.4,0.7s0.8,1.5,0.6,2.3c-0.4,1.5-0.9,3.6-1.6,6.5c-0.7,3,1.4,5.2,1.4,5.2c10.1,10.5,23.4,21.6,35,29.3
		c2.5,1.7,5.4,0.4,5.4,0.4c2.7-1.2,4.7-2.1,6.2-2.8l0,0c0.8-0.4,1.7-0.4,2.5,0.1c0.7,0.5,1.1,1.2,1.2,2c0,1.5,0.1,3.7,0.2,6.7
		c0.1,3.1,2.7,4.7,2.7,4.7c12.5,7.6,28.2,14.9,41.4,19.3c2.9,1,5.3-1,5.3-1c2.3-1.9,4-3.3,5.2-4.3l0,0c0.6-0.6,1.6-0.8,2.5-0.6
		c0.2,0.1,0.5,0.2,0.7,0.4c0,0,0.1,0,0.1,0.1c0.2,0.1,0.4,0.3,0.5,0.5c0.4,1.5,1.1,3.8,2.1,7.2c0.9,2.9,3.8,3.8,3.8,3.8
		c14,4.1,31.1,7.1,45,7.9c0.4,0,0.7,0,1.1-0.1c0.3,0,0.5-0.1,0.8-0.1h0.1c0.2-0.1,0.5-0.2,0.7-0.3c0,0,0.1,0,0.1-0.1
		c0.2-0.1,0.4-0.2,0.6-0.3l0.1-0.1c0.2-0.1,0.3-0.2,0.5-0.3c0,0,0.1,0,0.1-0.1c0.1-0.1,0.3-0.2,0.4-0.3c0,0,0,0,0-0.1
		c0.1-0.1,0.2-0.2,0.3-0.3l0,0c0.1-0.1,0.2-0.3,0.2-0.3c0.5-0.6,0.9-1.2,1.2-1.7c0.1-0.1,0.2-0.3,0.3-0.4c1.2-1.6,2.1-2.9,2.7-3.8
		l0.1-0.1c0.5-0.4,1-0.6,1.7-0.6c0.9,0,1.6,0.5,2,1.2c0.8,1.3,1.9,3.1,3.5,5.7s4.7,2.7,4.7,2.7c14.6,0.3,31.8-1.2,45.5-4
		c3-0.6,4.1-3.5,4.1-3.5c1.1-2.8,1.8-4.8,2.4-6.3l0,0c0.3-0.8,1-1.5,1.9-1.7c0.8-0.2,1.6,0.1,2.2,0.6c1.1,1.1,2.7,2.5,4.9,4.6
		c2.2,2.1,5.2,1.4,5.2,1.4c14.2-3.5,30.4-9.4,42.9-15.7c2.7-1.4,3-4.4,3-4.4c0.3-2.9,0.5-5.1,0.7-6.7l0,0c0-0.9,0.5-1.7,1.3-2.1
		s1.6-0.4,2.3,0c1.4,0.7,3.2,1.8,5.9,3.2c0.7,0.4,1.4,0.5,2,0.6c1,0.2,2.4,0.2,3.8-0.5c8.3-4.7,17.6-10.8,26-17.4
		c3.9-3,7.6-6,11-8.9c0.7-0.6,1.1-1.3,1.3-1.9c0.4-0.9,0.8-2,0.6-3.4c-0.5-3-0.8-5.1-1.1-6.6c-0.1-0.8,0.2-1.6,0.8-2.2
		c0.7-0.6,1.6-0.8,2.5-0.6l0,0c1.6,0.4,3.7,0.9,6.6,1.6c0,0,3,0.7,5.2-1.4c10-9.7,21-23.1,29-35.3c0,0,1.7-2.6,0.4-5.4
		c-1.2-2.8-2.1-4.7-2.8-6.1c-0.3-0.7-0.3-1.6,0.2-2.3c0.5-0.8,1.4-1.2,2.2-1.2l0,0c0.1,0,0.1,0,0.2,0s0.2,0,0.3,0c0.5,0,1.1,0,1.7,0
		c1.3,0,2.7-0.1,4.5-0.1c0,0,3.1-0.1,4.6-2.7c7.2-12,14.3-27.7,18.9-41.6c0,0,0.9-2.9-1-5.3c-1.9-2.3-3.3-4-4.3-5.2
		c-0.5-0.6-0.7-1.5-0.4-2.3c0.3-0.9,1-1.5,1.8-1.7l0,0c1.5-0.5,3.6-1.1,6.5-1.9c0,0,2.9-0.9,3.8-3.8c3.8-13.4,6.7-30.5,7.5-45.1
		c0,0,0.2-3.1-2.3-4.9s-4.2-3-5.4-3.9c-0.6-0.5-1-1.2-1-2.1C502.2,264.5,502.8,263.8,503.5,263.3z M435.9,263
		c-3.8,99.4-87.5,177-186.9,173.2S72.1,348.7,75.9,249.3c3.8-99.4,87.4-176.9,186.9-173.1C362.2,80,439.7,163.7,435.9,263z"/>
	<g>
		<circle cx="365.8" cy="255.9" r="11.9"/>
		<circle cx="144.1" cy="255.9" r="11.9"/>
		<ellipse transform="matrix(0.8576 -0.5144 0.5144 0.8576 -136.1078 210.4896)" cx="312" cy="351" rx="11.9" ry="11.9"/>
		<ellipse transform="matrix(0.8576 -0.5144 0.5144 0.8576 -54.5316 124.7141)" cx="197.9" cy="160.8" rx="11.9" ry="11.9"/>
		<ellipse transform="matrix(0.5142 -0.8577 0.8577 0.5142 -204.9141 340.272)" cx="197.9" cy="351" rx="11.9" ry="11.9"/>
		<ellipse transform="matrix(0.5142 -0.8577 0.8577 0.5142 13.5833 345.673)" cx="311.9" cy="160.8" rx="11.9" ry="11.9"/>
		<path d="M256.2,80.4c-96.9,0-175.5,78.6-175.5,175.5s78.6,175.5,175.5,175.5s175.5-78.6,175.5-175.5S353.1,80.4,256.2,80.4z
			 M372.8,333.2L302,292.3c3.4-4.4,6.3-9.3,8.4-14.5l70.8,40.9C378.7,323.6,375.9,328.5,372.8,333.2z M149.5,346.3l72.7-42
			c2.6,1.8,5.3,3.4,8.2,4.7v84.3C198.3,387.4,169.9,370.3,149.5,346.3z M116.3,255.9c0-16.4,2.8-32.1,8-46.7l72.7,42
			c-0.1,1.6-0.2,3.2-0.2,4.7s0.1,3.2,0.2,4.7l-72.7,42C119.1,288,116.3,272.3,116.3,255.9z M139.4,179l70.1,40.5
			c-3.4,4.4-6.3,9.3-8.4,14.5l-70.1-40.4C133.5,188.6,136.3,183.6,139.4,179z M256.2,116.1c2.7,0,5.3,0.1,8,0.2v81.4
			c-2.7-0.4-5.6-0.6-8.4-0.6c-2.9,0-5.7,0.2-8.4,0.6v-81.3C250.2,116.2,253.2,116.1,256.2,116.1z M362.5,165.1l-73.4,42.4
			c-2.6-1.8-5.3-3.4-8.2-4.7v-84.5C313.4,124,342,141,362.5,165.1z M381.2,193.2L310.3,234c-2.1-5.3-4.9-10.1-8.4-14.5l70.8-40.9
			C375.9,183.3,378.7,188.2,381.2,193.2z M230.5,118.5v84.2c-2.9,1.4-5.6,2.9-8.2,4.7l-72.7-41.9
			C169.9,141.4,198.3,124.4,230.5,118.5z M130.9,318.2l70.1-40.4c2.1,5.3,4.9,10.1,8.4,14.5l-70.1,40.5
			C136.3,328.2,133.5,323.2,130.9,318.2z M247.3,395.5v-81.3c2.7,0.4,5.6,0.6,8.4,0.6s5.7-0.2,8.4-0.6v81.4c-2.7,0.1-5.3,0.2-8,0.2
			C253.2,395.8,250.3,395.6,247.3,395.5z M280.9,393.6v-84.5c2.9-1.4,5.6-2.9,8.2-4.7l73.4,42.4C342,370.8,313.4,387.8,280.9,393.6z
			 M314.4,260.6c0.1-1.6,0.2-3.2,0.2-4.7c0-1.6-0.1-3.2-0.2-4.7l73.5-42.4c5.3,14.7,8.2,30.6,8.2,47.2c0,16.6-2.9,32.4-8.2,47.2
			L314.4,260.6z"/>
	</g>
</g>
</svg>
