<?xml version="1.0" encoding="utf-8"?>
<!-- Generator: Adobe Illustrator 21.1.0, SVG Export Plug-In . SVG Version: 6.00 Build 0)  -->
<svg version="1.1" id="Layer_5" xmlns="http://www.w3.org/2000/svg" xmlns:xlink="http://www.w3.org/1999/xlink" x="0px" y="0px"
	 viewBox="0 0 512 512" style="enable-background:new 0 0 512 512;" xml:space="preserve">
<g>
	<circle cx="415.9" cy="256" r="17.3"/>
	<circle cx="92.5" cy="256" r="17.3"/>
	<ellipse transform="matrix(0.8576 -0.5144 0.5144 0.8576 -154.9579 229.7814)" cx="337.4" cy="394.7" rx="17.3" ry="17.3"/>
	<ellipse transform="matrix(0.8576 -0.5144 0.5144 0.8576 -35.9798 104.6677)" cx="171" cy="117.3" rx="17.3" ry="17.3"/>
	<ellipse transform="matrix(0.5142 -0.8577 0.8577 0.5142 -255.4734 338.4474)" cx="171" cy="394.7" rx="17.3" ry="17.3"/>
	<ellipse transform="matrix(0.5142 -0.8577 0.8577 0.5142 63.2524 346.3244)" cx="337.3" cy="117.3" rx="17.3" ry="17.3"/>
	<path d="M256,0C114.6,0,0,114.6,0,256s114.6,256,256,256s256-114.6,256-256S397.4,0,256,0z M426.1,368.7l-103.3-59.6
		c5-6.4,9.2-13.5,12.3-21.2l103.3,59.6C434.7,354.8,430.6,361.9,426.1,368.7z M100.4,387.9l106.1-61.2c3.8,2.6,7.8,4.9,12,6.9v122.9
		C171.5,447.8,130.1,422.9,100.4,387.9z M52,256c0-23.9,4.1-46.8,11.7-68.1l106,61.2c-0.2,2.3-0.3,4.6-0.3,6.9s0.1,4.6,0.3,6.9
		l-106,61.2C56.1,302.8,52,279.9,52,256z M85.6,143.8l102.2,59.1c-5,6.4-9.2,13.5-12.3,21.2l-102.2-59
		C77,157.8,81.1,150.6,85.6,143.8z M256,52c3.9,0,7.8,0.1,11.6,0.3V171c-4-0.6-8.1-0.9-12.3-0.9c-4.2,0-8.3,0.3-12.3,0.9V52.4
		C247.3,52.2,251.6,52,256,52z M411.1,123.5l-107,61.8c-3.8-2.6-7.8-4.9-12-6.9V55.2C339.4,63.6,381.1,88.4,411.1,123.5z
		 M438.4,164.5L335,224.1c-3-7.7-7.1-14.8-12.2-21.2l103.3-59.6C430.6,150.1,434.7,157.2,438.4,164.5z M218.5,55.5v122.8
		c-4.2,2-8.2,4.3-12,6.9l-106.1-61.1C130.1,89,171.5,64.2,218.5,55.5z M73.3,346.9l102.2-59c3.1,7.7,7.2,14.8,12.3,21.2L85.6,368.2
		C81.1,361.4,77,354.2,73.3,346.9z M243.1,459.6V341c4,0.6,8.1,0.9,12.3,0.9s8.3-0.3,12.3-0.9v118.7c-3.9,0.2-7.8,0.3-11.7,0.3
		C251.7,460,247.4,459.8,243.1,459.6z M292.1,456.8V333.6c4.2-2,8.2-4.3,12-6.9l107,61.8C381.1,423.6,339.4,448.4,292.1,456.8z
		 M340.9,262.9c0.2-2.3,0.3-4.6,0.3-6.9s-0.1-4.6-0.3-6.9l107.2-61.9c7.7,21.5,11.9,44.6,11.9,68.8s-4.2,47.3-11.9,68.8L340.9,262.9
		z"/>
</g>
</svg>
