<?xml version="1.0" encoding="utf-8"?>
<!-- Generator: Adobe Illustrator 21.1.0, SVG Export Plug-In . SVG Version: 6.00 Build 0)  -->
<svg version="1.1" id="Layer_4" xmlns="http://www.w3.org/2000/svg" xmlns:xlink="http://www.w3.org/1999/xlink" x="0px" y="0px"
	 viewBox="0 0 512 512" style="enable-background:new 0 0 512 512;" xml:space="preserve">
<g id="_x35_2">
	<path d="M382,1c-0.6,0-1.3,0-1.9,0c0,0,0,0,0.1,0c0,0-281.3-1-281.7-1C44.1,0,0,83.3,0,186c0,1,0,326,0,326h304V335.8
		c21.7,23.3,48.7,37.2,78,37.2c71.8,0,130-83.3,130-186S453.8,1,382,1z M252.5,170.6c-0.3,5.4-0.5,10.9-0.5,16.4v273H52V186
		c0-40.8,8.3-79.8,22.8-107.2C86.5,56.8,96.8,52,98.5,52c4.1,0,117.4,0.3,193.6,0.6C270,82.9,255.3,124.3,252.5,170.6z M390.3,325.4
		c-47.1,0-85.4-62-85.4-138.4s38.2-138.4,85.4-138.4c47.2,0,85.4,62,85.4,138.4S437.5,325.4,390.3,325.4z"/>
	<ellipse cx="394.4" cy="187" rx="46.7" ry="75.7"/>
	<path d="M108.9,227.8H55.4v-31.4h53.5V227.8z M178.9,227.8h-53.5v-31.4h53.5V227.8z M248.9,227.8h-53.5v-31.4h53.5V227.8z"/>
</g>
</svg>
