<?xml version="1.0" encoding="utf-8"?>
<!-- Generator: Adobe Illustrator 22.0.1, SVG Export Plug-In . SVG Version: 6.00 Build 0)  -->
<svg version="1.1" id="Layer_1" xmlns="http://www.w3.org/2000/svg" xmlns:xlink="http://www.w3.org/1999/xlink" x="0px" y="0px"
	 viewBox="0 0 512 512" style="enable-background:new 0 0 512 512;" xml:space="preserve">
<g id="_x35_2">
	<path d="M186.1,310l15.9,15.9L70.6,457.2c-1.4,1.4-4.3,2.8-7.9,2.8c-5.8-0.1-10.7-5-10.7-10.7c0-3.6,1.4-6.6,2.8-8L186.1,310
		 M186.1,236.5L18,404.5C6.6,416,0,432.3,0,449.3c0,34.4,28.1,62.5,62.6,62.7h0.1c17,0,33.3-6.6,44.7-18l168.2-168.1L186.1,236.5
		L186.1,236.5z"/>
	<path d="M349.2,138.9c0.2,0.2,0.4,0.4,0.6,0.6l22.6,22.6l0.2,0.2l0.2,0.2c0.1,0.1,0.2,0.2,0.3,0.3l-7.5-1.3l-39.1,39.1l-15.2-15.2
		l39.2-39.1L349.2,138.9 M396.3,0H395l-0.9,0c-25.8,1.5-50.4,12.8-69.3,32c-24.8,25.4-36,61.7-30.1,96.5l-57,56.9l88.7,88.7
		l56.9-56.9c6.2,1,12.4,1.6,18.6,1.6c28.9,0,57.2-11.2,78-31.6c19.1-18.9,30.5-43.5,31.9-69.3l0-2.1c0-15.6-12.8-28.3-28.5-28.3
		c-7.3,0-14,2.7-19.6,7.7l-4.5,4.4l-25.9,25.7c-3.3,3.3-7.6,4.9-12,4.9c-4.4,0-8.9-1.7-12.3-5l-22.6-22.6
		c-6.7-6.7-6.8-17.6-0.1-24.2l29.8-29.8c5.2-5.2,8.2-12.6,8.2-20.2C424.5,12.8,411.9,0,396.3,0L396.3,0z"/>
	<path d="M401.2,319.3c-13.5-13.5-25.1-8.4-25.1-8.4s6-13.1-3.2-22.3L357.3,273c-4.2-4.2-10.2-4.2-14.4,0l-20.2,21.1L80,52
		c0,0,4-15.1-2.4-21.4C71.1,24.1,23.9,0,23.9,0h-2.5L0,21.3h0.8c0,0,26.2,46.3,32.7,52.9c6.5,6.5,22.5,1.6,22.5,1.6l240.4,243.6
		l-22,21.9c-4.2,4.2-4.2,11,0,15.2l15.6,15.6c8.5,8.4,22.4,3.2,22.4,3.2s-6.7,13.2,6.7,26.7l99.6,99.4c13.5,13.5,35.6,14.4,48.1,1.7
		l37.2-37.1c11.8-12.7,10.1-32.9-3.4-47.2L401.2,319.3z M438.9,472.3c-5,5-11,6.7-13.5,4.2l-84.8-84.6c-2.5-2.5-0.8-8.4,4.2-13.5
		s11-6.7,13.5-4.2l85.7,84.6C446.4,462.2,443.9,468.1,438.9,472.3z M471.8,439.4c-5,5-11,6.7-13.5,4.2L373.5,359
		c-2.5-2.5-0.8-8.4,4.2-13.5s11-6.7,13.5-4.2l85.7,85.5C479.4,429.4,476.8,435.2,471.8,439.4z"/>
</g>
</svg>
