<?xml version="1.0" encoding="utf-8"?>
<!-- Generator: Adobe Illustrator 21.1.0, SVG Export Plug-In . SVG Version: 6.00 Build 0)  -->
<svg version="1.1" id="Layer_3" xmlns="http://www.w3.org/2000/svg" xmlns:xlink="http://www.w3.org/1999/xlink" x="0px" y="0px"
	 viewBox="0 0 450.8 512" style="enable-background:new 0 0 450.8 512;" xml:space="preserve">
<g>
	<path d="M105.3,113.4c-18.4,25.6-15.7,43.9-19.6,41.8s-2.8-31.9,5.4-49.4c2.5-5.2,8-7.5,12-5.4C107,102.6,108.6,108.8,105.3,113.4z
		"/>
	<path d="M450.7,121.5c-0.8-43.8-21.5-76.6-50.2-95.4C371.8,7,336.6,0.1,303,0c-25,0-56,4.9-77.7,13.6l0,0c-0.1,0-0.1,0-0.2-0.1
		C193.5,0,153.9,0,147.8,0C114.2,0.1,79,7,50.4,26.1C21.7,45,1,77.8,0.1,121.5v0.2c0,2.7-0.1,5.4-0.1,8.3
		c-0.4,53.8,15.6,82.9,29.1,106.4C42.3,260.2,53.5,279,53.8,330c0.1,69.2,11.3,113.2,27.9,141.6C98,499.8,121.3,512,140.8,512h0.3
		c5.5,0,10.6-0.9,15.4-2.6c7.3-2.6,12.9-8.3,16-13.8c3.2-5.6,4.8-11.3,6-17.1c2.3-11.7,2.7-24.7,3-39c0.6-28.6,1-62.3,9.6-90.9
		c3.6-12.3,8.1-25.3,13.9-34c6-8.5,10.9-12.5,20.2-13.5c9.3,1,14.2,5,20.2,13.5c5.9,8.7,10.3,21.7,13.9,34
		c11.5,37.7,8.1,83.5,10.8,116.2c1.1,11.1,2.4,21,7.9,30.8c3.1,5.5,8.7,11.2,16.1,13.9c4.6,1.7,9.8,2.6,15.3,2.6c0.1,0,0.2,0,0.3,0
		c19.6,0,42.8-12.2,59.2-40.4c16.6-28.4,27.8-72.5,27.9-141.6c0.4-51,11.5-69.7,24.7-93.6c13.5-23.5,29.6-52.6,29.1-106.4
		C450.8,127.2,450.8,124.4,450.7,121.5z M376.4,210.4l-0.2,0.4l-0.2,0.4l-1.1,1.9c-14.2,25.2-30.3,53.7-30.8,116.4l1,0.2v0.2
		c-0.1,66.1-11.3,99.2-20.7,115.4v0.1v0.1c-0.9,1.5-1.8,2.9-2.6,4.1c-0.2-5.6-0.4-11.7-0.5-18c-0.7-28.8-1.5-64.6-11.6-97.9
		c-4.6-15.4-10.6-33.2-20.6-48.1l-0.3-0.5l-0.4-0.5c-9.5-13.4-25.7-31.6-56.8-35.1l-5.8-0.7l-5.8,0.7c-31.1,3.5-47.3,21.7-56.8,35.2
		l-0.3,0.4l-0.3,0.5c-10.1,14.9-16.1,32.7-20.7,48.2c-10.3,34.2-11.1,71.3-11.7,101.1l-0.1,3.3c-0.1,3.8-0.2,7.7-0.3,11.4
		c-0.9-1.2-1.8-2.6-2.6-4.1l-0.1-0.1l-0.1-0.1c-9.4-16.1-20.7-49.2-20.8-115.3v0.2V330C105.7,267,90,238.4,76,213.2l-1.1-1.9
		l-0.2-0.4l-0.3-0.4c-11.1-19.2-22.5-39.1-22.3-80.2v-1c0,0-0.3-4.3-0.3-6.3l0.3-0.6v-0.2C52.8,92.9,67,77.5,78.9,69.7l0.2-0.1
		l0.2-0.1C100.7,55.1,128.4,52,147.9,52c21.4,0.1,42.2,3.6,58.8,10.1l18.7,7.3c43.6,26.1,86.3,16.4,86.3,16.4S285.6,76.4,261,57
		c13.1-3.2,27.7-4.9,42.3-5c19.5,0,47.2,3.1,68.6,17.4l0.2,0.1l0.2,0.1c11.9,7.8,26.2,23.4,26.8,53v0.2v0.2c0.1,2.1,0.1,4.7,0.1,6.9
		v0.2v0.3C399.4,171.3,387.7,191.2,376.4,210.4z"/>
</g>
</svg>
