<?xml version="1.0" encoding="utf-8"?>
<!-- Generator: Adobe Illustrator 21.1.0, SVG Export Plug-In . SVG Version: 6.00 Build 0)  -->
<svg version="1.1" id="Layer_4" xmlns="http://www.w3.org/2000/svg" xmlns:xlink="http://www.w3.org/1999/xlink" x="0px" y="0px"
	 viewBox="0 0 512 512" style="enable-background:new 0 0 512 512;" xml:space="preserve">
<path id="_x35_2_1_" d="M512,63.4C514.1,14.7,350.2,0.6,261.8,0c-1.4,0-2.7,0-4.1,0C193.4,0,133,4.3,86.4,13.5
	C30.7,24.3,1.9,39.9,0.1,60.4C0,61.7,0,62.9,0.1,64.2H0c0,25.1,4.1,48.9,18,73.9c10.2,18.3,20.3,36.9,26.5,68.8
	c11,56,30.5,89.8,43.3,114.4c24.2,46.7,78,96.7,104.4,141.5c3.9,6.6,8.1,14.2,12.1,21.7c9,16.9,26.7,27.5,45.8,27.5h33.5
	c23.6,0,44.3-15.9,50.3-38.8c4.5-17.1,6.5-32.7,7.7-42c3.1-25.2-3.7-54.7-2.4-75.5c2.5-42.6,14.8-74,39.6-113
	c21.2-33.4,62.1-65,78.7-80C496.9,126.9,512,88.6,512,63.4L512,63.4z M257.8,52.6c1.3,0,2.5,0,3.8,0c20.1,0.1,72.4,1.3,125.3,8.8
	c3,0.4,5.9,0.9,8.7,1.3c-39.6,6.1-87.8,9.5-136.4,9.5c-3.2,0-6.5,0-9.7,0c-20-0.2-72.1-1.4-124.7-8.8c-3.5-0.5-6.8-1-10-1.5
	C153.8,55.8,202.6,52.6,257.8,52.6z M325.9,464.6c-32.7,1.7-57.3,1.7-72.8,1.4c-17.1-0.3-34.1-1.5-48.7-2.6
	c-4.9-8.3-10.5-17.3-17-26.6c33.4,1.7,66.5,3.1,81.4,3.5c10.4,0.3,37.9,0.5,61.6,0.7C329.2,449.5,327.6,457.4,325.9,464.6z
	 M270.7,388.1c-28.9-0.9-87-3.2-127.6-6c-8.5-10.3-16-20.1-22.9-29.6c45.3,4.9,98.3,9.6,131.7,10.6c11.8,0.4,48.2,1.4,77,2.1
	c0.1,7.4,1.7,23.1,1.7,23.6C307.4,388.7,280.6,388.5,270.7,388.1z M335.3,313.1c-27.7-0.6-65.8-1.7-81.5-2.1
	c-43-1.3-120.7-9-168.3-15.1c-4.6-9-8.4-17.7-11.7-25.9c57.1,8.9,138.7,14.6,214.2,14.6c0,0,43,0,56.7,0
	C340.8,294.1,337.7,303.6,335.3,313.1z M373.5,232.8c-25.8,0-121.6-0.5-147.8-1.3c-54.7-1.7-128-9.7-169.2-17.6
	c-0.7-3.1-5.2-22.5-6.8-28.7c47.4,11.3,134.8,19.4,187.6,23.1c37.2,2.6,109.4,0.7,162.2-6.6C389.8,211.7,381.2,222.1,373.5,232.8z
	 M467.1,138.7c-47.8,8.2-118.5,19.9-206.5,18.3c-72.8-1.3-154.7-12-237.6-30.8c-0.2-0.4-0.4-0.8-0.6-1.2c0.3,0.1,0.5,0.1,0.8,0.2
	c-6.6-14.7-10.3-28.6-11.9-42.4c38.1,31.6,165.1,41.4,238,42.1c3.4,0,6.8,0.1,10.2,0.1c54.9,0,106.8-4,149-10.9
	c6.1-1,11.2-1.8,17.3-2.8c34.3-6.6,58.4-15.1,72.3-25.5C491.3,107.6,469.4,136.9,467.1,138.7z"/>
</svg>
