<?xml version="1.0" encoding="utf-8"?>
<!-- Generator: Adobe Illustrator 21.1.0, SVG Export Plug-In . SVG Version: 6.00 Build 0)  -->
<svg version="1.1" id="Layer_1" xmlns="http://www.w3.org/2000/svg" xmlns:xlink="http://www.w3.org/1999/xlink" x="0px" y="0px"
	 viewBox="0 0 673 512" style="enable-background:new 0 0 673 512;" xml:space="preserve">
<g id="_x35_2">
	<path d="M149.4,365.6c-40.2,0-72.7,32.6-72.7,72.7s32.6,72.7,72.7,72.7s72.7-32.6,72.7-72.7S189.6,365.6,149.4,365.6z M149.4,473.9
		c-19.7,0-35.6-15.9-35.6-35.6s15.9-35.6,35.6-35.6s35.6,15.9,35.6,35.6S169.1,473.9,149.4,473.9z"/>
	<path d="M509.7,365.6c-40.2,0-72.7,32.6-72.7,72.7s32.6,72.7,72.7,72.7s72.7-32.6,72.7-72.7S549.8,365.6,509.7,365.6z M509.7,473.9
		c-19.7,0-35.6-15.9-35.6-35.6s15.9-35.6,35.6-35.6s35.6,15.9,35.6,35.6S529.3,473.9,509.7,473.9z"/>
	<path d="M653.4,390.8V229.4c0-6.6-2-13-5.6-18.5L563.4,85c-8-11.6-21.1-18.6-35.2-18.6h-66.1V43.1c0-12.8-10.4-23.1-23.1-23.1l0,0
		c-12.8,0-23.1,10.4-23.1,23.1v130.3H283l0,0h-0.1v0.2l-123.5-118c0.1-1.5,0.2-3,0.2-4.5c0-29.8-25.2-53.6-55.4-51.4
		C78.8,1.6,58.4,22.1,56.7,47.4C55.8,60.9,60,73.3,67.7,83c-4.5,31.1,22.9,48.6,27.6,59.7c5.8,13.3-6.7,20.7-16.2,18.6
		c-3.5-0.8-5.5-6.8-6.5-11.9c-0.8-3.9-4.4-6.5-8.3-5.9c-4.5,0.6-7.4,5.2-6.1,9.5c3.9,12.5,14.2,33.4,38.4,21.8
		c33.7-16.2,15.8-42.8-0.4-58.5C88.6,108.9,82.9,102,80,94.2c8.1,5.3,17.7,8.3,28.1,8.3c7.5,0,14.5-1.6,20.9-4.4l153.9,150.1v31.3H9
		v10H8.8C8.9,406.6,9,421.1,9,421.3c-5,0-9,3-9,7.9s4,9,9,9l0,0l43.2,0.1v-0.1h3.6c0-54.8,44.1-93.6,93.6-93.6
		c49.6,0,93.6,40.6,93.6,93.6c2.1,0,4.3,0,6.4,0v0.1h157.1v-0.2c6.1,0,9.5,0,9.5,0c0-41.1,31.6-93.5,93.6-93.5
		c59.3,0,93.4,50.4,93.4,93.5c0,0,34.6,0.1,47.1,0.1s22.9-12.6,22.9-24.9C673,402.1,664,392.5,653.4,390.8z M108.1,70.2
		C97.6,70.2,89,61.6,89,51.1S97.5,32,108.1,32s19.1,8.6,19.1,19.1S118.7,70.2,108.1,70.2z M524.7,120.4c0.1,0.9,0.4,1.5,0.9,1.9v6.6
		l-1.9-0.9l-1,1c-0.3,1-0.5,2.2-0.5,3.5s0.2,2.5,0.5,3.5l1,1l5.9,3.5c0.3,0,0.6-0.5,1-1.5c0.3-1,0.5-2,0.5-3c0-1.3-0.2-2.5-0.5-3.5
		c-0.3-0.7-1.1-1.5-2.4-2.5l-1.5-0.7v-5.8L598,230H462.1V118.4h61.2L524.7,120.4z M335.2,225.5h56.7v54h-56.7V225.5z M61.3,348.4
		v-16.9H83C75.3,336.2,68,341.9,61.3,348.4z M215,331.5h200.8v23.4c-7.7,9-14.3,19.5-19.6,31.4H263.5
		C253.4,363.1,236,344.3,215,331.5z M462.1,321.8V282h139.3v70.9C566.8,314.5,509.4,303.1,462.1,321.8z"/>
</g>
</svg>
