<?xml version="1.0" encoding="utf-8"?>
<!-- Generator: Adobe Illustrator 21.1.0, SVG Export Plug-In . SVG Version: 6.00 Build 0)  -->
<svg version="1.1" id="Layer_2" xmlns="http://www.w3.org/2000/svg" xmlns:xlink="http://www.w3.org/1999/xlink" x="0px" y="0px"
	 viewBox="0 0 696.2 512" style="enable-background:new 0 0 696.2 512;" xml:space="preserve">
<g>
	<path d="M183.1,415.5L183.1,415.5c0.5-0.3,1.2-0.8,2.1-1.4c0,0,0.9-0.6,0.9-1.8c-0.1-5.2-1-11.6-2.2-16.9c0,0-0.3-1.1-1.3-1.5
		s-1.8-0.6-2.3-0.8c-0.3-0.1-0.5-0.3-0.6-0.6c-0.1-0.3,0-0.7,0.2-0.9l0,0c0.4-0.5,0.9-1.1,1.6-1.9c0,0,0.7-0.9,0.4-2
		c-1.4-5-3.9-11-6.4-15.7c0,0-0.5-1-1.7-1.1c-1.1-0.1-1.9-0.1-2.4-0.2c-0.3,0-0.6-0.2-0.7-0.5c-0.2-0.3-0.2-0.7,0-0.9l0,0
		c0.3-0.5,0.6-1.3,1.1-2.3c0,0,0.5-1-0.1-2c-2.6-4.5-6.5-9.6-10.2-13.5c0,0-0.8-0.8-1.9-0.6c-1.1,0.2-1.8,0.4-2.4,0.5
		c-0.3,0-0.6,0-0.8-0.3c-0.2-0.2-0.3-0.6-0.2-0.9l0,0c0.1-0.6,0.3-1.4,0.5-2.5c0,0,0.2-1.1-0.6-1.9c-3.7-3.6-8.7-7.5-13.2-10.3
		c0,0-1-0.6-2-0.1s-1.7,0.9-2.2,1.1c-0.3,0.1-0.6,0.1-0.8,0c-0.3-0.2-0.5-0.5-0.5-0.8l0,0c0-0.6-0.1-1.4-0.2-2.5c0,0-0.1-1.1-1-1.7
		c-4.5-2.5-10.3-5-15.4-6.5c0,0-1.1-0.3-1.9,0.4c-0.8,0.8-1.4,1.3-1.8,1.7c-0.2,0.2-0.5,0.3-0.8,0.2c-0.3-0.1-0.6-0.3-0.7-0.7l0,0
		c-0.2-0.6-0.4-1.3-0.8-2.4c0,0-0.4-1.1-1.4-1.4c-4.9-1.2-11.2-2.1-16.5-2.1c0,0-0.1,0-0.2,0c-0.3,0-1.1,0.2-1.6,0.9
		c-0.6,0.9-1,1.6-1.4,2.1c-0.2,0.2-0.4,0.4-0.7,0.4c-0.3,0-0.6-0.2-0.8-0.5l0,0c-0.3-0.5-0.8-1.2-1.4-2.1c0,0-0.6-1-1.7-0.9
		c-5.1,0.1-11.3,1-16.5,2.3c0,0-1.1,0.3-1.4,1.4c-0.4,1.1-0.6,1.8-0.8,2.4c-0.1,0.3-0.3,0.5-0.6,0.6c-0.3,0.1-0.7,0-0.9-0.2l0,0
		c-0.1-0.1-0.2-0.1-0.2-0.2c-0.1-0.1-0.2-0.2-0.3-0.3c-0.1-0.1-0.2-0.2-0.4-0.3c-0.1-0.1-0.2-0.2-0.3-0.3c-0.2-0.2-0.3-0.3-0.5-0.5
		c0,0-0.8-0.8-1.9-0.4c-4.9,1.5-10.7,4-15.3,6.6c0,0-1,0.6-1,1.7c-0.1,1.1-0.1,1.9-0.2,2.5c0,0.3-0.2,0.6-0.5,0.7
		c-0.2,0.1-0.4,0.1-0.7,0.1c-0.5-0.3-1.2-0.6-2.3-1.2c-0.3-0.1-0.5-0.2-0.7-0.2c-0.4-0.1-0.9-0.1-1.4,0.3c-3,1.9-6.2,4.3-9.2,6.9
		c-1.4,1.2-2.7,2.3-3.9,3.5c-0.2,0.2-0.4,0.5-0.5,0.7c-0.2,0.3-0.3,0.8-0.2,1.3c0.3,1.3,0.4,2.2,0.5,2.7c0,0.2-0.1,0.4-0.3,0.5
		c-0.2,0.2-0.5,0.3-0.8,0.3c-0.6-0.1-1.3-0.3-2.4-0.5s-1.9,0.6-1.9,0.6c-3.7,3.9-7.5,9-10.2,13.5c-0.6,1-0.1,2-0.1,2
		c0.5,1,0.8,1.7,1.1,2.3l0,0c0.2,0.3,0.2,0.6,0,0.9s-0.4,0.4-0.7,0.5c-0.6,0-1.3,0.1-2.4,0.2s-1.7,1.1-1.7,1.1
		c-2.6,4.8-5,10.7-6.4,15.7c-0.3,1.1,0.4,2,0.4,2c0.7,0.8,1.2,1.4,1.6,1.9l0,0c0.2,0.2,0.3,0.6,0.2,0.9c-0.1,0.3-0.3,0.5-0.6,0.6
		c-0.5,0.2-1.3,0.4-2.3,0.8c-1.1,0.4-1.3,1.5-1.3,1.5c-1.3,5.3-2.1,11.7-2.2,16.9c0,1.1,0.9,1.8,0.9,1.8c0.3,0.2,0.6,0.4,0.9,0.6
		c0.1,0.1,0.3,0.2,0.4,0.3c0.2,0.1,0.4,0.3,0.5,0.4c0.1,0,0.1,0.1,0.2,0.1l0,0c0.3,0.2,0.5,0.5,0.5,0.8s-0.2,0.6-0.4,0.8
		c-0.5,0.3-1.1,0.8-2,1.4C0,419.1,0,420.2,0,420.2c0.1,5.4,0.9,11.9,2.1,16.9c0.3,1.1,1.3,1.5,1.3,1.5c1,0.4,1.8,0.6,2.3,0.8l0,0
		c0.3,0.1,0.6,0.3,0.6,0.7c0.1,0.3,0,0.6-0.2,0.9c-0.4,0.4-0.9,1-1.6,1.9s-0.4,2-0.4,2c1.5,5.2,3.8,11.2,6.3,15.8
		c0.5,1,1.7,1.1,1.7,1.1c1.1,0.1,1.9,0.1,2.5,0.2l0,0c0.3,0,0.6,0.2,0.8,0.5s0.2,0.6,0,0.9c-0.2,0.5-0.6,1.2-1.1,2.2s0.1,2,0.1,2
		c2.7,4.7,6.5,9.8,10.1,13.6c0.8,0.8,1.9,0.6,1.9,0.6c1.1-0.2,1.8-0.4,2.4-0.5l0,0c0.3-0.1,0.6,0,0.9,0.2c0.2,0.2,0.3,0.5,0.3,0.8
		c-0.1,0.6-0.3,1.3-0.5,2.5c-0.2,1.1,0.6,1.9,0.6,1.9c3.8,3.8,8.8,7.7,13.1,10.5c1,0.6,2,0.1,2,0.1c1-0.5,1.7-0.9,2.2-1.1l0,0
		c0.3-0.2,0.6-0.2,0.9,0c0.3,0.2,0.4,0.4,0.5,0.7c0,0.6,0.1,1.4,0.2,2.5c0.1,1.1,1,1.7,1,1.7c4.6,2.6,10.4,5.1,15.3,6.6
		c1.1,0.3,1.9-0.4,1.9-0.4c0.8-0.7,1.4-1.3,1.8-1.7l0,0c0.2-0.2,0.6-0.3,0.9-0.2c0.1,0,0.2,0.1,0.3,0.1l0,0c0.1,0.1,0.1,0.1,0.2,0.2
		c0.2,0.6,0.5,1.4,0.9,2.6c0.4,1.1,1.4,1.4,1.4,1.4c5.1,1.3,11.4,2.2,16.5,2.3c0.1,0,0.3,0,0.4,0s0.2,0,0.3-0.1l0,0
		c0.1,0,0.2-0.1,0.2-0.1l0,0c0.1,0,0.1-0.1,0.2-0.1l0,0c0.1,0,0.1-0.1,0.2-0.1l0,0l0.1-0.1l0,0l0.1-0.1l0,0c0-0.1,0.1-0.1,0.1-0.1
		c0.2-0.2,0.3-0.5,0.4-0.7c0-0.1,0.1-0.1,0.1-0.2c0.4-0.6,0.7-1.1,0.9-1.5l0,0c0.2-0.1,0.4-0.2,0.6-0.2c0.3,0,0.6,0.2,0.7,0.4
		c0.3,0.5,0.7,1.1,1.4,2.1c0.6,1,1.7,0.9,1.7,0.9c5.3-0.1,11.5-0.9,16.5-2.1c1.1-0.3,1.4-1.4,1.4-1.4c0.3-1.1,0.6-1.8,0.8-2.4l0,0
		c0.1-0.3,0.3-0.6,0.6-0.7c0.3-0.1,0.6,0,0.8,0.2c0.4,0.4,1,0.9,1.8,1.7c0.8,0.8,1.9,0.4,1.9,0.4c5.1-1.5,10.9-3.9,15.4-6.5
		c1-0.6,1-1.7,1-1.7c0.1-1.1,0.1-1.9,0.1-2.5l0,0c0-0.3,0.2-0.6,0.5-0.8c0.3-0.2,0.6-0.2,0.8,0c0.5,0.3,1.2,0.6,2.2,1.1
		c0.3,0.1,0.5,0.2,0.7,0.2c0.4,0.1,0.9,0.1,1.4-0.3c3-1.9,6.2-4.3,9.2-6.9c1.4-1.2,2.7-2.3,3.9-3.5c0.2-0.2,0.4-0.5,0.5-0.7
		c0.2-0.3,0.3-0.8,0.2-1.3c-0.2-1.1-0.4-1.9-0.5-2.5c0-0.3,0-0.6,0.3-0.8c0.2-0.2,0.6-0.3,0.9-0.2l0,0c0.6,0.1,1.4,0.3,2.4,0.5
		c0,0,1.1,0.2,1.9-0.6c3.5-3.8,7.3-8.9,10.1-13.6c0,0,0.6-1,0.1-2s-0.8-1.7-1.1-2.2c-0.1-0.3-0.1-0.6,0-0.9c0.2-0.3,0.5-0.5,0.8-0.5
		l0,0h0.1h0.1c0.2,0,0.4,0,0.6,0c0.5,0,1-0.1,1.6-0.1c0,0,1.1-0.1,1.7-1.1c2.4-4.6,4.8-10.6,6.3-15.8c0,0,0.3-1.1-0.4-2
		s-1.2-1.4-1.6-1.9c-0.2-0.2-0.3-0.5-0.2-0.9c0.1-0.3,0.3-0.6,0.6-0.7l0,0c0.6-0.2,1.3-0.5,2.3-0.8c0,0,1.1-0.4,1.3-1.5
		c1.2-5.1,2-11.5,2.1-16.9c0,0,0-1.1-0.9-1.8c-0.9-0.6-1.6-1.1-2-1.4c-0.2-0.2-0.4-0.4-0.4-0.8C182.7,415.9,182.8,415.6,183.1,415.5
		z M134.6,447c-16.5,23.6-48.5,29-71.5,12.1s-28.3-49.8-11.8-73.4s48.5-29,71.5-12.1C145.9,390.5,151.1,423.4,134.6,447z"/>
	<ellipse cx="92.8" cy="416.3" rx="17" ry="17.4"/>
	<ellipse cx="92.8" cy="386.4" rx="3.9" ry="4"/>
	<ellipse cx="92.8" cy="446.2" rx="3.9" ry="4"/>
	<ellipse cx="121.8" cy="416.3" rx="3.9" ry="4"/>
	<ellipse cx="63.7" cy="416.3" rx="3.9" ry="4"/>
	<path d="M690.8,244.7c-23.7-34.3-57.1-59.6-94.7-73.2l16-74.7c-58.2-8.4-83.3,29.9-99.3,64.3c-86.9,8.4-157.3,75.5-173.5,162.1h-20
		c3.6-41.5,19.7-79.3,44.4-109.4l-2.9-2.9l9.6-8c0.8,0.4,1.8,0.7,2.7,0.9c4.2,0.4,7.9-2.7,8.3-7s-2.6-8.1-6.8-8.5
		c-4.2-0.4-7.9,2.7-8.3,7c-0.1,1,0,2,0.3,3l-10,8.4l-21.5-22l19.4-19.9c18.3,16.7,38.7,23.4,46.3,15.1c7.9-8.7-1-30.2-19.7-48.2
		c-18.7-17.9-40.3-25.5-48.2-16.8c-7.3,8-0.2,27.1,15.7,44.1l-19.3,19.8l-17.1-17.6c-4-4.1-9.4-6.4-15.1-6.4h-33.4V66.7
		c0-6-4.8-11-10.8-11h-2.2V31.6c0-7.7,6-13.9,13.5-13.9c0.6,0,1.3,0,1.9,0.1v-15c-1-0.1-1.9-0.2-2.9-0.2c-14.5,0-26.2,12.1-26.2,27
		v26.2h-5.2c-6,0-10.8,4.9-10.8,11v87.7H82.1c-23.6,0-42.6,19.6-42.6,43.8l-0.1,107c3-1.2,6-2.3,9.1-3.2l0,0
		c13.6-5.5,28.5-8.5,44-8.5c51.6,0,95.5,33.4,112.5,80.3h116.1l0,0h44.2h1h5c0,0,0-1.7,0-3.8l0,0V370c0-3.5-0.1-8.1-0.1-8.8
		c0-90.7,71.9-164.6,160.2-164.6c47.2,0,91.8,21.3,122.4,58.3l1.9,2.3l2.9-0.7c9.3-2.2,18.9-3.5,28.6-3.9l9-0.4L690.8,244.7z
		 M341.3,120.9c4.3-4.8,19.5,2.6,34,16.4c14.4,13.8,22.6,28.9,18.3,33.7c-4.3,4.8-19.5-2.6-34-16.4
		C345.2,140.7,337,125.6,341.3,120.9z M268.5,321.8h-32.6c-31-49.2-84.9-80.3-143.4-80.3c-0.8,0-1.6,0-2.5,0v-35.1h195l13.3,13.6
		C281.4,251.3,271.2,286,268.5,321.8z"/>
	<path d="M666.1,361.1c0-12.2-1.5-24-4.4-35.3l7.5-4.3c-1.4-11.8-8.9-21.2-18.8-25.5c-6.2-11.9-14.1-22.8-23.3-32.3l5.2-6.5
		c-6.8-10.1-18.3-14.8-29.4-13.3c-10.5-6.8-21.9-12.1-34.1-15.7l0.2-8.7c-10.6-4.9-22.5-3.2-31.2,3.5c-2.1-0.1-4.2-0.2-6.3-0.2
		c-10.7,0-21.2,1.3-31.2,3.7l-3-7.2c-12.7,0-23.7,7.9-28.4,19.3c-10.6,5.7-20.4,12.9-29.1,21.2l-3.6-4.9
		c-13.5,5.4-21.3,19.5-19.4,33.7c-5.7,9.6-10.4,19.9-13.7,30.8l-4.7-1.8c-10.4,11.6-10.7,29-1.5,41c0,0.8,0,1.6,0,2.4
		c0,9.8,1,19.3,2.9,28.5l-4.4,0.6c-4.1,15.6,3.9,31.7,18.2,37.6c5.7,10.6,12.7,20.3,20.8,29l-4.5,3.6c5.4,13.8,19.2,21.6,33,19.6
		c9.6,5.8,19.9,10.5,30.7,13.7l-1.6,6.5c11.4,8.4,26.6,7.6,37-1c0.8,0,1.6,0,2.3,0c11.2,0,22.1-1.4,32.5-4.1l2.1,6.6
		c13.6,0.9,25.8-7.4,30.6-19.8c9.8-5.6,18.8-12.4,26.9-20.2l4.4,4.8c12.8-5.8,19.9-19.6,18.1-33.2c6.3-10.5,11.3-21.9,14.7-34.1
		l7.6,0.7c6-11.3,4.7-24.7-2.4-34.4C666.1,364.2,666.1,362.7,666.1,361.1z M531.5,445.8c-45.5,0-82.4-37.9-82.4-84.7
		s36.9-84.7,82.4-84.7s82.5,37.9,82.5,84.7C614,407.8,577,445.8,531.5,445.8z"/>
	<ellipse cx="531.5" cy="361.1" rx="33.2" ry="34.1"/>
</g>
</svg>
