<?xml version="1.0" encoding="utf-8"?>
<!-- Generator: Adobe Illustrator 21.1.0, SVG Export Plug-In . SVG Version: 6.00 Build 0)  -->
<svg version="1.1" id="Layer_2" xmlns="http://www.w3.org/2000/svg" xmlns:xlink="http://www.w3.org/1999/xlink" x="0px" y="0px"
	 viewBox="0 0 509.9 512" style="enable-background:new 0 0 509.9 512;" xml:space="preserve">
<path d="M484.1,459.2c-3.4,0-75.4-0.1-83.8-0.1L266.8,9.2c-1.6-5.2-6.4-8.8-11.8-8.8l0,0c-5.4,0-10.2,3.6-11.8,8.8l-133.4,450
	c-0.6,0-81.8,0-83.9,0C11.6,459.2,0,471,0,485.1C0,499.4,11.6,511,25.9,511c3.3,0,456.2,0,458.1,0c14.2,0,25.9-11.6,25.9-25.9
	C509.9,471,498.2,459.2,484.1,459.2z M255.2,156.7l18.3,61h-36.7L255.2,156.7z M199.6,341.2h111.1l18.4,61.2h-148L199.6,341.2z"/>
</svg>
