<?xml version="1.0" encoding="utf-8"?>
<!-- Generator: Adobe Illustrator 21.1.0, SVG Export Plug-In . SVG Version: 6.00 Build 0)  -->
<svg version="1.1" id="Layer_1" focusable="false" xmlns="http://www.w3.org/2000/svg" xmlns:xlink="http://www.w3.org/1999/xlink"
	 x="0px" y="0px" viewBox="0 0 392 512" style="enable-background:new 0 0 392 512;" xml:space="preserve">
<g id="_x35_2">
	<path d="M196,88.4c-26.3,0-47.9,21.6-47.3,47.3c0,26.3,21,47.3,47.3,47.3s47.3-21,47.3-47.3C243.3,109.4,222.3,88.4,196,88.4z"/>
	<path d="M263.4,52l0.5,408H128.6l-0.5-408H263.4 M290.7,0H100.8C87.2,0,76.1,11.1,76.1,24.7v26.8h-61c-10,0-16.8,8.9-14.7,18.4
		c8.4,38.9,31.5,70.5,76.2,83.6V206H15.1c-10,0-16.8,8.9-14.7,18.4c8.4,38.9,31.5,70.5,76.2,83.6v52.5H15.1
		c-10,0-16.8,8.9-14.7,18.4c8.4,38.9,31.5,70.5,76.2,83.6c0,27.3,22.1,49.4,49.4,49.4h140.4c27.3,0,49.4-22.1,49.4-49.4
		c44.2-13.1,67.8-44.7,75.7-83.6c2.1-9.5-5.3-18.4-14.7-18.4h-61.5v-52.5c44.2-13.1,67.8-44.7,75.7-83.6c2.1-9.5-5.3-18.4-14.7-18.4
		h-61v-52.5c44.2-13.1,67.8-44.7,75.7-83.6c2.1-9.5-5.3-18.4-14.7-18.4h-61V24.7C315.4,11.1,304.3,0,290.7,0L290.7,0z"/>
	<path d="M196,233c15.3,0,27.2,12,27.2,27.2s-12,27.2-27.2,27.2s-27.2-12-27.2-27.2V260l0-0.2c-0.1-6.8,2.5-13.4,7.5-18.5
		C181.5,235.9,188.5,233,196,233 M196,213c-26.2,0-47.7,21.5-47.2,47.2c0,26.2,21,47.2,47.2,47.2c26.2,0,47.2-21,47.2-47.2
		S222.2,213,196,213L196,213z"/>
	<path d="M196,357.5c15.3,0,27.2,12,27.2,27.2s-12,27.2-27.2,27.2s-27.2-12-27.2-27.2v-0.2l0-0.2c-0.1-6.8,2.5-13.4,7.5-18.5
		C181.5,360.4,188.5,357.5,196,357.5 M196,337.6c-26.2,0-47.7,21.5-47.2,47.2c0,26.2,21,47.2,47.2,47.2c26.2,0,47.2-21,47.2-47.2
		C243.2,358.5,222.2,337.6,196,337.6L196,337.6z"/>
</g>
</svg>
