<?xml version="1.0" encoding="utf-8"?>
<!-- Generator: Adobe Illustrator 21.1.0, SVG Export Plug-In . SVG Version: 6.00 Build 0)  -->
<svg version="1.1" id="Layer_1" focusable="false" xmlns="http://www.w3.org/2000/svg" xmlns:xlink="http://www.w3.org/1999/xlink"
	 x="0px" y="0px" viewBox="0 0 392 512" style="enable-background:new 0 0 392 512;" xml:space="preserve">
<g id="_x35_2">
	<path d="M196,183c26.3,0,47.3-21,47.3-47.3s-21-47.3-47.3-47.3s-47.3,21-47.3,47.3S169.7,183,196,183z"/>
	<path d="M196,212.9c-26.3,0-47.9,21-47.3,47.3c0,26.3,21,47.3,47.3,47.3s47.3-21,47.3-47.3C243.3,233.9,222.3,212.9,196,212.9z"/>
	<path d="M196,337.4c-26.3,0-47.9,21.6-47.3,47.3c0,26.3,21,47.3,47.3,47.3s47.3-21,47.3-47.3C243.3,358.4,222.3,337.4,196,337.4z"
		/>
	<path d="M263.4,52l0.5,408H128.6l-0.5-408H263.4 M290.7,0H100.8C87.2,0,76.1,11.1,76.1,24.7v26.8h-61c-10,0-16.8,8.9-14.7,18.4
		c8.4,38.9,31.5,70.5,76.2,83.6V206H15.1c-10,0-16.8,8.9-14.7,18.4c8.4,38.9,31.5,70.5,76.2,83.6v52.5H15.1
		c-10,0-16.8,8.9-14.7,18.4c8.4,38.9,31.5,70.5,76.2,83.6c0,27.3,22.1,49.4,49.4,49.4h140.4c27.3,0,49.4-22.1,49.4-49.4
		c44.2-13.1,67.8-44.7,75.7-83.6c2.1-9.5-5.3-18.4-14.7-18.4h-61.5v-52.5c44.2-13.1,67.8-44.7,75.7-83.6c2.1-9.5-5.3-18.4-14.7-18.4
		h-61v-52.5c44.2-13.1,67.8-44.7,75.7-83.6c2.1-9.5-5.3-18.4-14.7-18.4h-61V24.7C315.4,11.1,304.3,0,290.7,0L290.7,0z"/>
</g>
</svg>
