<?xml version="1.0" encoding="utf-8"?>
<!-- Generator: Adobe Illustrator 21.1.0, SVG Export Plug-In . SVG Version: 6.00 Build 0)  -->
<svg version="1.1" id="train-alt-2" xmlns="http://www.w3.org/2000/svg" xmlns:xlink="http://www.w3.org/1999/xlink" x="0px"
	 y="0px" viewBox="0 0 649 512" style="enable-background:new 0 0 649 512;" xml:space="preserve">
<path d="M345.8,3.5c-37.1,0-67.6,28.7-70.4,65.1C196.8,90.1,139,162.1,139.1,247.5c0,44.3,15.5,85,41.4,116.9l59.9-49.4L68.6,512H0
	l132.2-107.9C97.4,361.4,76.5,307,76.5,247.6C76.5,110.8,187.3,0,324,0c7.3,0,14.6,0.3,21.8,0.9V3.5z"/>
<path d="M648,512h-68.5L407.7,315l60.5,49.9c26.1-32,41.8-72.9,41.8-117.4c0-70.8-39.7-132.3-98-163.6h97.7
	c38.4,43.6,61.8,100.9,61.8,163.6c0,59.4-20.9,113.9-55.7,156.5L648,512z"/>
<path d="M404,69.8H289.5c1.3-30.6,26.4-54.9,57.3-54.9C377.6,14.9,402.8,39.3,404,69.8z"/>
<path d="M461.4,69.8h-88.8c1.5-23.2,20.8-41.5,44.4-41.5S459.9,46.6,461.4,69.8z"/>
<path d="M515.6,69.8h-64.9c1.4-16.7,15.4-29.8,32.5-29.8S514.2,53.1,515.6,69.8z"/>
<path d="M567.6,69.8h-45.3c1-11.7,10.7-20.8,22.6-20.8C556.9,49,566.7,58.1,567.6,69.8z"/>
<path d="M371.2,107.5v44.8c17.6,1.7,33,3.7,46.1,6V235c-2.6-4.3-6.4-9.3-11.3-14.9c-9.8-11.3-21.4-20-34.8-25.9v9
	c18.6,9,33.6,22.3,45.1,39.9c11.8,18.3,17.6,38.4,17.6,60.3c0,17.9-4.1,34.9-12.3,50.8c-7.8,15.6-18.8,28.6-32.8,38.9h42.6
	c1.3-0.3,2.6,0.2,3.9,1.5s2.3,3,2.9,5c1,3,1.5,6.5,1.5,10.5V427h-56.3v28.9l29.4,55.3H237.9l29-55.3V427H211v-16.9
	c0-7.3,1.5-12.3,4.4-15c1.3-1.7,2.6-2.3,3.9-2h42.1c-13.6-10.3-24.4-23.2-32.3-38.9c-8.2-16-12.3-32.9-12.3-50.8
	c0-20.9,5.4-40.4,16.2-58.3c10.4-17.3,24.5-30.6,42.1-39.9v-8.5c-11.8,6.3-22.2,14.6-31.4,24.9c-4.6,5-8,9.5-10.3,13.5v-76.7
	c11.8-2,25.7-3.8,41.7-5.5v-45.4c17-3,33.6-4.5,50-4.5C340.8,103.1,356.2,104.6,371.2,107.5z M237,401.1c-2.3,2.3-3.4,5.3-3.4,9
	c0,3.3,1.2,6.3,3.4,8.9c2.6,2.3,5.6,3.5,8.8,3.5c3.6,0,6.7-1.2,9.3-3.5c2.3-2.7,3.4-5.6,3.4-8.9c0-3.7-1.1-6.6-3.4-9
	c-2.6-2.7-5.7-4-9.3-4C242.5,397.1,239.6,398.4,237,401.1z M253.1,506.2h144.1l-5.4-10.9H259L253.1,506.2z M261.5,490.8h127.9
	l-6.9-12.5H267.8L261.5,490.8z M267.8,332.3c2.9,8,7.3,14.8,13.2,20.4c5.9,6,12.6,10.6,20.1,14c7.5,3.3,15.5,5,24,5s16.7-1.7,24.5-5
	c7.5-3.3,14.2-8,20.1-14c5.6-5.6,10-12.5,13.2-20.4c3.3-7.6,4.9-15.8,4.9-24.4c0-9-1.6-17.3-4.9-24.9s-7.7-14.5-13.2-20.4
	c-5.9-6-12.6-10.6-20.1-13.9c-7.8-3.3-16-5-24.5-5s-16.5,1.7-24,5s-14.2,8-20.1,13.9c-5.9,6-10.3,12.8-13.2,20.4
	c-3.3,7.6-4.9,16-4.9,24.9C262.9,316.5,264.6,324.7,267.8,332.3z M277.2,460.9l-6.9,12.9h110.3l-6.9-12.9H277.2z M366.8,448.4
	l-2-4.5H286l-2.4,4.5v4c0,0.7-0.2,1.5-0.5,2.5c-0.7,1.3-1.8,2-3.4,2h91.6c-2,0-3.3-0.7-3.9-2c-0.3-1-0.5-1.8-0.5-2.5v-4H366.8z
	 M295.3,114c-7.8,1.7-11.8,3.7-11.8,6s3.9,4.3,11.8,6c7.8,2,17.1,3,27.9,3c11.1,0,20.4-1,27.9-3c7.8-1.7,11.8-3.7,11.8-6
	s-3.9-4.3-11.8-6c-7.5-1.7-16.8-2.5-27.9-2.5C312.4,111.5,303.1,112.4,295.3,114z M354.6,338.8c-7.8,8.3-17.7,12.5-29.4,12.5
	c-11.4,0-21.2-4.2-29.4-12.5c-8.2-8.3-12.3-18.4-12.3-30.4c0-11.6,4.1-21.6,12.3-29.9c8.2-8.3,18-12.5,29.4-12.5
	c11.7,0,21.6,4.2,29.4,12.5c8.2,8.3,12.3,18.3,12.3,29.9C366.8,320.3,362.7,330.5,354.6,338.8z M362.4,439.9l-6.8-12.9h-60.8
	l-6.4,12.9H362.4z M413.4,419c2.6-2.7,3.9-5.6,3.9-8.9c0-3.7-1.3-6.6-3.9-9c-2.3-2.7-5.2-4-8.8-4c-3.6,0-6.6,1.3-8.8,4
	c-2.3,2.3-3.4,5.3-3.4,9c0,3.3,1.1,6.3,3.4,8.9c2.3,2.3,5.2,3.5,8.8,3.5C408.1,422.5,411.1,421.3,413.4,419z"/>
</svg>
