<?xml version="1.0" encoding="utf-8"?>
<!-- Generator: Adobe Illustrator 21.1.0, SVG Export Plug-In . SVG Version: 6.00 Build 0)  -->
<svg version="1.1" id="_x35_2_1_" xmlns="http://www.w3.org/2000/svg" xmlns:xlink="http://www.w3.org/1999/xlink" x="0px" y="0px"
	 viewBox="0 0 649 512" style="enable-background:new 0 0 649 512;" xml:space="preserve">
<g id="_x35_2">
	<path d="M353.6,278.5c-7.8-8.3-17.7-12.5-29.4-12.5c-11.4,0-21.2,4.2-29.4,12.5c-8.2,8.3-12.3,18.3-12.3,29.9
		c0,12,4.1,22.1,12.3,30.4c8.2,8.3,18,12.5,29.4,12.5c11.7,0,21.6-4.2,29.4-12.5c8.1-8.3,12.2-18.5,12.3-30.4
		C365.9,296.8,361.8,286.8,353.6,278.5z"/>
	<path d="M516.3,404c7.6-9.4,14.6-19.3,20.9-29.7c0.6-1.1,1.3-2.2,1.9-3.3c0.7-1.2,1.3-2.3,2-3.5c0.1-0.2,0.2-0.4,0.4-0.7
		c0.6-1,1.2-2.1,1.7-3.2c0.5-0.9,0.9-1.8,1.4-2.6c0.4-0.8,0.8-1.5,1.2-2.3c0.4-0.8,0.8-1.5,1.2-2.3c0.3-0.5,0.5-1.1,0.8-1.6
		c0.4-0.8,0.8-1.6,1.1-2.4c0.5-1.1,1-2.2,1.5-3.3c0.4-0.8,0.7-1.6,1.1-2.4c0.1-0.1,0.1-0.3,0.2-0.4c0.6-1.5,1.3-2.9,1.9-4.4
		c0.3-0.8,0.7-1.6,1-2.4c0.3-0.8,0.6-1.6,1-2.4c0.6-1.6,1.3-3.3,1.9-4.9c0.6-1.6,1.1-3.2,1.7-4.8c0-0.1,0-0.1,0.1-0.2
		c0.5-1.6,1-3.1,1.5-4.7c1-3.2,1.9-6.3,2.8-9.5c5.7-20.8,8.7-42.7,8.7-65.4c0-20.8-2.6-41-7.4-60.4c0,0,0,0,0,0c-0.5-2-1-4-1.6-6
		c-0.1-0.4-0.2-0.8-0.3-1.2c-0.3-1.3-0.7-2.5-1.1-3.8c-0.2-0.7-0.4-1.5-0.7-2.2c-0.3-1-0.6-2-1-3c-0.5-1.4-0.9-2.9-1.4-4.3
		c-0.5-1.4-1-2.8-1.5-4.2c-2.4-6.6-5.1-13.1-8.1-19.5c-1.7-3.6-3.4-7.1-5.3-10.6C511.3,70.9,453.8,24.7,384.9,7.4
		c-2.6-0.7-5.2-1.3-7.9-1.8c-2.6-0.6-5.3-1.1-7.9-1.6c-5.3-1-10.7-1.8-16.2-2.4C343.6,0.5,334.2,0,324.6,0c-7.5,0-14.9,0.3-22.2,1
		c-1,0.1-2,0.2-3,0.3c-2,0.2-3.9,0.4-5.9,0.7c-1.9,0.2-3.9,0.5-5.8,0.8h0C168.5,20.5,77,123.3,77,247.6
		c0,57.6,19.6,110.5,52.5,152.5c1,1.3,2.1,2.7,3.2,4L1.5,511.2l-1,0.8h648L516.3,404z M540.4,466.6H388.1l-5.7-10.7v-4h145.2
		L540.4,466.6z M365.9,452v0.5c0,0.7,0.2,1.5,0.5,2.5c0.6,1.3,1.9,2,3.9,2l3.8,9.7h-99.3l3.9-9.7c1.6,0,2.7-0.7,3.4-2
		c0.3-1,0.5-1.8,0.5-2.5V452H365.9z M283.5,446.6l1.5-2.7l2.4-4l3.9-7.9h65.9l4.2,7.9l2.4,4l1.2,2.7H283.5z M376.2,471.9l5.8,14.7
		H266.9l5.8-14.7H376.2z M381.9,332.3c-3.2,7.9-7.6,14.8-13.2,20.4c-5.9,6-12.6,10.7-20.1,14c-7.8,3.3-16,5-24.5,5s-16.5-1.7-24-5
		c-7.5-3.4-14.2-8-20.1-14c-5.9-5.6-10.3-12.4-13.2-20.4c-3.2-7.6-4.9-15.8-4.9-24.4c0-8.9,1.6-17.3,4.9-24.9
		c2.9-7.6,7.3-14.4,13.2-20.4c5.9-5.9,12.6-10.6,20.1-13.9s15.5-5,24-5s16.7,1.7,24.5,5c7.5,3.3,14.2,7.9,20.1,13.9
		c5.5,5.9,9.9,12.8,13.2,20.4c3.3,7.6,4.9,15.9,4.9,24.9C386.8,316.5,385.2,324.7,381.9,332.3z M282.5,120c0-2.3,4-4.3,11.8-6
		c7.8-1.6,17.1-2.5,27.9-2.5c11.1,0,20.4,0.8,27.9,2.5c7.9,1.7,11.8,3.7,11.8,6s-4,4.3-11.8,6c-7.5,2-16.8,3-27.9,3
		c-10.8,0-20.1-1-27.9-3C286.4,124.3,282.5,122.3,282.5,120z M523,446.6H382.4V432h127.8L523,446.6z M457.8,371.8l12.8,14.7h-74.6
		c5-4.5,9.6-9.4,13.7-14.7H457.8z M413.4,366.5c2.6-3.9,5-8,7.2-12.3c2.5-4.9,4.7-9.9,6.4-15c0.2-0.6,0.4-1.2,0.6-1.9l8,9.2l4.7,5.3
		l12.8,14.7H413.4z M475.2,391.8l12.8,14.7h-49.5c-0.2-2.6-0.6-4.9-1.3-7c-0.6-2-1.6-3.7-2.9-5c-1.3-1.3-2.6-1.8-3.9-1.5h-42.6
		c0.6-0.4,1.1-0.8,1.7-1.3H475.2z M492.7,411.9l12.8,14.7h-66.8v-14.7H492.7z M416.3,410.1c0,3.3-1.3,6.2-3.9,8.9
		c-2.3,2.3-5.3,3.5-8.8,3.5c-3.6,0-6.5-1.2-8.8-3.5c-2.3-2.6-3.4-5.6-3.4-8.9c0-3.7,1.1-6.7,3.4-9c2.2-2.7,5.2-4,8.8-4
		c3.6,0,6.5,1.3,8.8,4C415,403.5,416.3,406.4,416.3,410.1z M129.7,248.5C129.6,140.5,217.1,53,325.1,53s195.5,87.5,195.5,195.5
		c0,44.8-15.1,86.1-40.5,119.1l-8.5-6.3c-0.9,1.2-1.9,2.4-2.8,3.6l-39.6-32.6c0.2-0.5,0.3-1.1,0.4-1.7c2.2-8.8,3.3-17.9,3.3-27.2
		c0-21.9-5.8-42-17.6-60.3c-11.5-17.6-26.5-30.9-45.1-39.9v-9c13.4,5.9,25,14.6,34.8,25.9c4.9,5.6,8.7,10.6,11.3,14.9v-76.7
		c-13.1-2.3-28.5-4.3-46.1-6v-44.8c-15-2.9-30.4-4.4-46.1-4.5c-16.4,0-33,1.5-50,4.5v45.4c-16,1.7-29.9,3.5-41.7,5.5v76.7
		c2.3-4,5.7-8.5,10.3-13.5c9.2-10.3,19.6-18.6,31.4-24.9v8.5c-17.6,9.3-31.7,22.6-42.1,39.9c-10.8,17.9-16.2,37.4-16.2,58.3
		c0,9.4,1.2,18.6,3.4,27.5c0.1,0.5,0.3,1.1,0.4,1.6L181,364.4c-0.9-1.2-1.9-2.3-2.8-3.5l-8.5,6.2
		C144.6,334.2,129.7,293.1,129.7,248.5z M218.3,393.1c-1.3-0.3-2.6,0.3-3.9,2c-2.4,2.2-3.8,6.1-4.3,11.5H161l12.8-14.7h84.9
		c0.5,0.4,1.1,0.8,1.6,1.3H218.3z M257.5,410.1c0,3.3-1.1,6.2-3.4,8.9c-2.6,2.3-5.7,3.5-9.3,3.5c-3.2,0-6.2-1.2-8.8-3.5
		c-2.2-2.6-3.4-5.6-3.4-8.9c0-3.7,1.1-6.7,3.4-9c2.6-2.7,5.5-4,8.8-4c3.6,0,6.7,1.3,9.3,4C256.4,403.5,257.5,406.4,257.5,410.1z
		 M210,411.9v14.7h-66.5l12.8-14.7H210z M226.9,351.8c0.4,0.8,0.8,1.6,1.2,2.4c2.2,4.3,4.6,8.4,7.2,12.3H196l12.8-14.7H226.9z
		 M213.4,346.5l7.8-8.9c0.2,0.7,0.5,1.3,0.7,2c0.8,2.3,1.7,4.6,2.7,6.9H213.4z M239.1,371.8c4,5.3,8.5,10.2,13.4,14.7h-73.9
		l12.8-14.7H239.1z M138.9,432h127v14.7H126.1L138.9,432z M121.5,452h144.4v4l-5.6,10.7H108.7L121.5,452z M239.5,506.7H73.8
		L86.5,492h160.6L239.5,506.7z M249.9,486.7H91.2l12.8-14.7h153.5L249.9,486.7z M259,506.7l5.8-14.7h119.4l5.8,14.7H259z
		 M390.9,471.9h154.1l12.8,14.7H398.8L390.9,471.9z M401.6,492h161l12.8,14.7H409.4L401.6,492z"/>
</g>
</svg>
