<?xml version="1.0" encoding="utf-8"?>
<!-- Generator: Adobe Illustrator 21.1.0, SVG Export Plug-In . SVG Version: 6.00 Build 0)  -->
<svg version="1.1" id="Layer_2" xmlns="http://www.w3.org/2000/svg" xmlns:xlink="http://www.w3.org/1999/xlink" x="0px" y="0px"
	 viewBox="0 0 351.7 512" style="enable-background:new 0 0 351.7 512;" xml:space="preserve">
<g>
	<path d="M281.3,512.9l-20.6-39.2h11.8v-67.1c0-8.4-1.2-16.5-3.6-24c-1.3-4.3-3.1-8.4-5.3-12.4c3.3-11.7,5-23.9,5-36.3
		c0-19-3.8-36.9-11.2-53.7v-91.9l-31.1-5.5v-28.3l-44.5-8.7c-13.4-2.6-27.2-4-41.1-4.1h-0.3c-14.1,0-28.7,1.3-43.2,3.9l-45.4,8.1
		v29.5L23.5,188v92.1C16.1,297,12.3,315,12.3,333.9c0,12.5,1.7,24.7,5.1,36.4c-5.1,9-9,20.8-9,36.3v67.1h11.9L0,512.9H281.3z
		 M63.4,406.6c0-5,1-8.4,3-10.2c0.7-1,1.5-1.4,2.2-1.4c0.1,0,0.3,0,0.4,0.1h28.4c-9.2-7-16.4-15.8-21.8-26.5
		c-5.5-10.9-8.3-22.4-8.3-34.6c0-14.2,3.6-27.5,10.9-39.7c7-11.8,16.5-20.9,28.4-27.2v-5.8c-7.9,4.3-15,9.9-21.2,17
		c-3.1,3.4-5.4,6.5-6.9,9.2V235c7.9-1.4,17.3-2.6,28.1-3.7v-30.9c11.4-2,22.6-3.1,33.7-3.1c10.6,0.1,21,1.1,31.1,3.1v30.5
		c11.9,1.2,22.2,2.5,31.1,4.1v52.3c-1.8-2.9-4.3-6.3-7.6-10.2c-6.6-7.7-14.4-13.6-23.4-17.6v6.1c12.5,6.1,22.6,15.2,30.4,27.2
		c7.9,12.5,11.9,26.2,11.9,41.1c0,12.2-2.8,23.8-8.3,34.6c-5.3,10.6-12.7,19.5-22.1,26.5h28.7c0.2,0,0.3-0.1,0.5-0.1
		c0.7,0,1.4,0.4,2.1,1.1c0.9,0.9,1.5,2,1.9,3.4c0.7,2,1,4.4,1,7.2v11.5h-37.9v19.7l19.8,37.7H81.5l19.5-37.7v-19.7H63.4V406.6z
		 M193.8,415c2.4,0,4.4-0.8,5.9-2.4c1.8-1.8,2.6-3.8,2.6-6.1c0-2.5-0.9-4.5-2.6-6.1c-1.6-1.8-3.5-2.7-5.9-2.7
		c-2.4,0-4.4,0.9-5.9,2.7c-1.5,1.6-2.3,3.6-2.3,6.1c0,2.3,0.7,4.3,2.3,6.1C189.4,414.2,191.4,415,193.8,415z M91.7,472.1h97.1
		l-3.6-7.4H95.7L91.7,472.1z M101.6,453.1l-4.2,8.5h86.2l-4.7-8.5H101.6z M110.5,367.4c4,4.1,8.5,7.2,13.5,9.6
		c5.1,2.2,10.4,3.4,16.2,3.4c5.7,0,11.2-1.2,16.5-3.4c5.1-2.3,9.6-5.5,13.5-9.6c3.8-3.8,6.7-8.5,8.9-13.9c2.2-5.2,3.3-10.8,3.3-16.6
		c0-6.1-1.1-11.8-3.3-17c-2.2-5.2-5.2-9.9-8.9-13.9c-4-4.1-8.5-7.2-13.5-9.5c-5.3-2.3-10.8-3.4-16.5-3.4c-5.7,0-11.1,1.2-16.2,3.4
		c-5.1,2.2-9.6,5.5-13.5,9.5c-4,4.1-6.9,8.7-8.9,13.9c-2.2,5.2-3.3,10.9-3.3,17c0,5.9,1.1,11.5,3.3,16.6
		C103.6,359,106.6,363.6,110.5,367.4z M120.5,316.9c5.5-5.7,12.1-8.5,19.8-8.5c7.9,0,14.6,2.9,19.8,8.5c5.5,5.7,8.3,12.5,8.3,20.4
		c-0.1,8.1-2.8,15.1-8.3,20.7c-5.3,5.7-11.9,8.5-19.8,8.5c-7.7,0-14.3-2.9-19.8-8.5c-5.5-5.7-8.3-12.5-8.3-20.7
		C112.2,329.4,115,322.5,120.5,316.9z M103.3,450h74.3l-4.7-8.8h-65L103.3,450z M112.3,432.7v2.7c0,0.5-0.1,1-0.3,1.7
		c-0.5,0.9-1.2,1.4-2.3,1.4h61.7c-1.3,0-2.2-0.5-2.6-1.4c-0.2-0.7-0.3-1.2-0.3-1.7v-2.7h-0.1l-1.3-3.1h-53.1L112.3,432.7z
		 M119.8,418.1l-4.3,8.8h49.9l-4.6-8.8H119.8z M120.2,212.9c5.3,1.4,11.5,2.1,18.8,2.1c7.5,0,13.7-0.7,18.8-2.1
		c5.3-1.2,7.9-2.5,7.9-4.1c0-1.6-2.6-2.9-7.9-4.1c-5.1-1.2-11.3-1.7-18.8-1.7c-7.3,0-13.5,0.6-18.8,1.7c-5.3,1.2-7.9,2.5-7.9,4.1
		C112.2,210.4,114.8,211.8,120.2,212.9z M86.8,397.7c-2.2,0-4.2,0.9-5.9,2.7c-1.5,1.6-2.3,3.6-2.3,6.1c0,2.3,0.8,4.3,2.3,6.1
		c1.8,1.6,3.8,2.4,5.9,2.4c2.4,0,4.5-0.8,6.3-2.4c1.6-1.8,2.3-3.8,2.3-6.1c0-2.5-0.7-4.5-2.3-6.1C91.3,398.6,89.2,397.7,86.8,397.7z
		 M185.2,464.6H95.7l-4,7.4h97.1L185.2,464.6z M178.9,453.1h-77.3l-4.2,8.5h86.2L178.9,453.1z M173,441.2h-65l-4.6,8.8h74.3
		L173,441.2z M168.7,437.1c-0.2-0.7-0.3-1.2-0.3-1.7v-2.7h-0.1l-1.3-3.1h-53.1l-1.6,3.1v2.7c0,0.5-0.1,1-0.3,1.7
		c-0.5,0.9-1.2,1.4-2.3,1.4h61.7C170,438.5,169.1,438,168.7,437.1z M160.8,418.1h-41l-4.3,8.8h49.9L160.8,418.1z M93.1,400.4
		c-1.8-1.8-3.8-2.7-6.3-2.7c-2.2,0-4.2,0.9-5.9,2.7c-1.5,1.6-2.3,3.6-2.3,6.1c0,2.3,0.8,4.3,2.3,6.1c1.8,1.6,3.8,2.4,5.9,2.4
		c2.4,0,4.5-0.8,6.3-2.4c1.6-1.8,2.3-3.8,2.3-6.1C95.4,404.1,94.6,402.1,93.1,400.4z M199.7,400.4c-1.6-1.8-3.5-2.7-5.9-2.7
		c-2.4,0-4.4,0.9-5.9,2.7c-1.5,1.6-2.3,3.6-2.3,6.1c0,2.3,0.7,4.3,2.3,6.1c1.6,1.6,3.5,2.4,5.9,2.4c2.4,0,4.4-0.8,5.9-2.4
		c1.8-1.8,2.6-3.8,2.6-6.1C202.4,404.1,201.5,402.1,199.7,400.4z M179.2,320c-2.2-5.2-5.2-9.9-8.9-13.9c-4-4.1-8.5-7.2-13.5-9.5
		c-5.3-2.3-10.8-3.4-16.5-3.4c-5.7,0-11.1,1.2-16.2,3.4c-5.1,2.2-9.6,5.5-13.5,9.5c-4,4.1-6.9,8.7-8.9,13.9
		c-2.2,5.2-3.3,10.9-3.3,17c0,5.9,1.1,11.5,3.3,16.6c2,5.5,4.9,10.1,8.9,13.9c4,4.1,8.5,7.2,13.5,9.6c5.1,2.2,10.4,3.4,16.2,3.4
		c5.7,0,11.2-1.2,16.5-3.4c5.1-2.3,9.6-5.5,13.5-9.6c3.8-3.8,6.7-8.5,8.9-13.9c2.2-5.2,3.3-10.8,3.3-16.6
		C182.5,330.8,181.4,325.1,179.2,320z M160.1,358c-5.3,5.7-11.9,8.5-19.8,8.5c-7.7,0-14.3-2.9-19.8-8.5c-5.5-5.7-8.3-12.5-8.3-20.7
		c0-7.9,2.8-14.7,8.3-20.4c5.5-5.7,12.1-8.5,19.8-8.5c7.9,0,14.6,2.9,19.8,8.5c5.5,5.7,8.3,12.5,8.3,20.4
		C168.3,345.4,165.6,352.3,160.1,358z M157.8,204.8c-5.1-1.2-11.3-1.7-18.8-1.7c-7.3,0-13.5,0.6-18.8,1.7c-5.3,1.2-7.9,2.5-7.9,4.1
		c0,1.6,2.6,2.9,7.9,4.1c5.3,1.4,11.5,2.1,18.8,2.1c7.5,0,13.7-0.7,18.8-2.1c5.3-1.2,7.9-2.5,7.9-4.1
		C165.7,207.3,163.1,205.9,157.8,204.8z M199.7,400.4c-1.6-1.8-3.5-2.7-5.9-2.7c-2.4,0-4.4,0.9-5.9,2.7c-1.5,1.6-2.3,3.6-2.3,6.1
		c0,2.3,0.7,4.3,2.3,6.1c1.6,1.6,3.5,2.4,5.9,2.4c2.4,0,4.4-0.8,5.9-2.4c1.8-1.8,2.6-3.8,2.6-6.1
		C202.4,404.1,201.5,402.1,199.7,400.4z M95.7,464.6l-4,7.4h97.1l-3.6-7.4H95.7z M178.9,453.1h-77.3l-4.2,8.5h86.2L178.9,453.1z
		 M110.5,367.4c4,4.1,8.5,7.2,13.5,9.6c5.1,2.2,10.4,3.4,16.2,3.4c5.7,0,11.2-1.2,16.5-3.4c5.1-2.3,9.6-5.5,13.5-9.6
		c3.8-3.8,6.7-8.5,8.9-13.9c2.2-5.2,3.3-10.8,3.3-16.6c0-6.1-1.1-11.8-3.3-17c-2.2-5.2-5.2-9.9-8.9-13.9c-4-4.1-8.5-7.2-13.5-9.5
		c-5.3-2.3-10.8-3.4-16.5-3.4c-5.7,0-11.1,1.2-16.2,3.4c-5.1,2.2-9.6,5.5-13.5,9.5c-4,4.1-6.9,8.7-8.9,13.9
		c-2.2,5.2-3.3,10.9-3.3,17c0,5.9,1.1,11.5,3.3,16.6C103.6,359,106.6,363.6,110.5,367.4z M120.5,316.9c5.5-5.7,12.1-8.5,19.8-8.5
		c7.9,0,14.6,2.9,19.8,8.5c5.5,5.7,8.3,12.5,8.3,20.4c-0.1,8.1-2.8,15.1-8.3,20.7c-5.3,5.7-11.9,8.5-19.8,8.5
		c-7.7,0-14.3-2.9-19.8-8.5c-5.5-5.7-8.3-12.5-8.3-20.7C112.2,329.4,115,322.5,120.5,316.9z M103.3,450h74.3l-4.7-8.8h-65L103.3,450
		z M112.3,432.7v2.7c0,0.5-0.1,1-0.3,1.7c-0.5,0.9-1.2,1.4-2.3,1.4h61.7c-1.3,0-2.2-0.5-2.6-1.4c-0.2-0.7-0.3-1.2-0.3-1.7v-2.7h-0.1
		l-1.3-3.1h-53.1L112.3,432.7z M119.8,418.1l-4.3,8.8h49.9l-4.6-8.8H119.8z M120.2,212.9c5.3,1.4,11.5,2.1,18.8,2.1
		c7.5,0,13.7-0.7,18.8-2.1c5.3-1.2,7.9-2.5,7.9-4.1c0-1.6-2.6-2.9-7.9-4.1c-5.1-1.2-11.3-1.7-18.8-1.7c-7.3,0-13.5,0.6-18.8,1.7
		c-5.3,1.2-7.9,2.5-7.9,4.1C112.2,210.4,114.8,211.8,120.2,212.9z M95.4,406.6c0-2.5-0.7-4.5-2.3-6.1c-1.8-1.8-3.8-2.7-6.3-2.7
		c-2.2,0-4.2,0.9-5.9,2.7c-1.5,1.6-2.3,3.6-2.3,6.1c0,2.3,0.8,4.3,2.3,6.1c1.8,1.6,3.8,2.4,5.9,2.4c2.4,0,4.5-0.8,6.3-2.4
		C94.6,410.8,95.4,408.8,95.4,406.6z"/>
	<path d="M351.3,75.7c-1.9-12.3-7.6-23.4-16.5-32l-0.1-0.1l-0.1-0.1c-9.8-9.3-22-14.1-35.1-14.1c-6.7,0-13.2,1.3-19.1,3.7
		c-10.1-7.2-21.8-10.9-34.3-10.9c-5.1,0-10.1,0.6-14.9,1.9c-0.3-0.2-0.5-0.4-0.8-0.6c-11.1-7.7-24.2-11.7-37.9-11.7
		c-5.2,0-10.3,0.6-15.3,1.8c-2.3-1.5-4.8-2.9-7.3-4.1l-0.1,0l-0.1,0c-11.4-5.6-23.6-8.5-36.3-8.5c-10.3,0-20.4,1.9-30,5.5l-1.1,0.4
		l-1,0.5c-8.4,3.9-16.1,8.9-23,15.1l-0.4,0.4L77.3,23c-7.5,7.2-13.4,15.5-17.7,24.8l-0.1,0.3l-0.1,0.3c-4.3,9.9-6.5,20.4-6.5,31.2
		v35.5l33.5,0.1l93.5,0.4l33.8,0.2v-0.2h33.5v0.5l34-0.4l7.1-0.1h18.6v-0.2l11.6-0.1l33.2-0.4V78.2L351.3,75.7z M86.5,81.2v-1.7
		c0-6.1,1.2-12,3.6-17.5c2.4-5.3,5.8-10.1,10.2-14.3c4.3-3.9,9.2-7.1,14.7-9.6c6-2.3,12-3.4,18.2-3.4c7.5,0,14.8,1.7,21.6,5
		c6.2,3.1,11.6,7.6,16.3,13.4c6.2-5,13.3-7.5,21.1-7.5c7,0,13.4,1.9,19.1,5.9c5.7,3.9,10.2,9.1,13.4,15.4c2.4-3.4,5.6-6,9.4-8
		c3.6-1.9,7.5-2.9,11.8-2.9c2.7,0,5.4,0.4,7.8,1.2c3.7,1.1,7,3.1,10.1,6c4.9,4.7,8,10.6,9.4,17.5v0.8L86.5,81.2z M318.1,81.2
		l-11.3,0.1l-26.1,0.3v-0.8c0.8-5,3-9.1,6.5-12.5c3.5-3.4,7.5-5,12.2-5c1.3,0,2.6,0.1,3.9,0.4c3,0.7,5.8,2.2,8.3,4.6
		c3.5,3.4,5.7,7.5,6.5,12.5V81.2z"/>
</g>
</svg>
