<?xml version="1.0" encoding="utf-8"?>
<!-- Generator: Adobe Illustrator 21.1.0, SVG Export Plug-In . SVG Version: 6.00 Build 0)  -->
<svg version="1.1" id="Layer_1" xmlns="http://www.w3.org/2000/svg" xmlns:xlink="http://www.w3.org/1999/xlink" x="0px" y="0px"
	 viewBox="0 0 511 512" style="enable-background:new 0 0 511 512;" xml:space="preserve">
<path d="M362,0v53l59.2-0.4l-98,98c-40.9-18.7-89.5-15.2-127.6,10.5l-12.3-12.4l59.8-59.8l-36.8-36.8l-59.6,59.6l-58.4-59L149,52V0
	H0v149l51.7-0.1V89.5l58.7,58.7l-59.2,59.2L88,244.2l59.2-59.2l12.4,12.4c-25.7,38.7-28.7,88.2-8.8,129.3l-46.4,46L44.7,313
	L7.9,349.8l59.6,59.6l-67,66.4l36.8,36.8l66.7-66.7l59.2,59.2l36.8-36.8l-59.2-59.2l41.2-41.2c51.4,45.7,130.3,43.9,179.6-5.4
	c49.8-49.9,51.1-129.9,3.8-181.3l92.7-91.7L458,150h53V0H362z M324.6,325.6c-30.9,30.8-80.9,30.8-111.7,0
	c-30.9-30.9-30.9-80.9,0-111.7c30.8-30.9,80.9-30.9,111.7,0C355.5,244.8,355.5,294.8,324.6,325.6z"/>
</svg>
