<?xml version="1.0" encoding="utf-8"?>
<!-- Generator: Adobe Illustrator 21.1.0, SVG Export Plug-In . SVG Version: 6.00 Build 0)  -->
<svg version="1.1" id="Layer_1" xmlns="http://www.w3.org/2000/svg" xmlns:xlink="http://www.w3.org/1999/xlink" x="0px" y="0px"
	 viewBox="0 0 354 512" style="enable-background:new 0 0 354 512;" xml:space="preserve">
<path d="M354,161V0H194v62l62.7-3.9l-48.3,48.3C189.8,97.8,168.9,93,147,93C65.8,93,0,158.8,0,240c0,72.3,52.2,132.4,121,144.7V424
	H38v52h83v36h52v-36h83v-52h-83v-39.3c68.8-12.3,121-72.4,121-144.7c0-39.5-15.6-75.3-40.9-101.7c20.8-20.8,41.8-41.8,41.8-41.8
	L291,161H354z M147.1,335c-52.5,0-95-42.5-95-95s42.5-95,95-95s95,42.5,95,95C242,292.5,199.5,335,147.1,335z"/>
</svg>
