<?xml version="1.0" encoding="utf-8"?>
<!-- Generator: Adobe Illustrator 22.0.1, SVG Export Plug-In . SVG Version: 6.00 Build 0)  -->
<svg version="1.1" id="Layer_3" xmlns="http://www.w3.org/2000/svg" xmlns:xlink="http://www.w3.org/1999/xlink" x="0px" y="0px"
	 viewBox="0 0 361.3 512" style="enable-background:new 0 0 361.3 512;" xml:space="preserve">
<g>
	<path d="M309.2,199.5v250.9c0,5.3-4.3,9.6-9.6,9.6h-238c-5.3,0-9.6-4.3-9.6-9.6V199.5H309.2 M0,147.5v329
		C0,496.1,15.9,512,35.5,512h290.2c19.6,0,35.5-15.9,35.5-35.5v-329H0z"/>
	<path d="M335.2,64.5h-51.7V42.2c0-23.3-18.9-42.2-42.2-42.2H115.1C91.9,0,73,18.9,73,42.2v22.3H25c-14.4,0-26,11.6-26,26l0,0
		c0,14.4,11.6,26,26,26h310.2c14.4,0,26-11.6,26-26l0,0C361.2,76.1,349.6,64.5,335.2,64.5z M104.2,43c0-9,7.3-16.3,16.3-16.3h115.4
		c9,0,16.3,7.3,16.3,16.3v21.5h-148V43z"/>
	<polygon points="258.4,321.5 206.6,321.5 206.6,408.3 154.6,408.3 154.6,321.5 102.8,321.5 180.6,243.7 	"/>
</g>
</svg>
