<?xml version="1.0" encoding="utf-8"?>
<!-- Generator: Adobe Illustrator 21.1.0, SVG Export Plug-In . SVG Version: 6.00 Build 0)  -->
<svg version="1.1" id="Layer_1" xmlns="http://www.w3.org/2000/svg" xmlns:xlink="http://www.w3.org/1999/xlink" x="0px" y="0px"
	 viewBox="0 0 512 512" style="enable-background:new 0 0 512 512;" xml:space="preserve">
<path d="M182.6,83.8C204.5,97,229.7,104,256,104c25.8,0,50.5-6.8,72.1-19.5l42.1,17.7c10.5,4.4,20.1,10.7,28.2,18.6l41,39.8
	L414,188.3l-57.6-22.5c-7.6-3-15.9,2.6-15.9,10.8V438H173.7V176c0-8.2-8.2-13.8-15.8-10.8L99.1,188l-26.3-28.2l42.9-41.7
	c8.5-8.2,18.4-14.7,29.3-19.1L182.6,83.8 M190.8,24.4l-65.2,26.3c-17.2,6.9-32.8,17.1-46.1,30L0,158l90.9,97.6l30.8-20.2V490h270.8
	V236.5l29.7,19.7l89.8-97.6l-77.3-75c-12.8-12.4-27.9-22.4-44.3-29.3L320.7,25c-16.5,16.6-39.4,27-64.7,27
	C230.4,52,207.3,41.4,190.8,24.4L190.8,24.4z"/>
</svg>
