<?xml version="1.0" encoding="utf-8"?>
<!-- Generator: Adobe Illustrator 21.1.0, SVG Export Plug-In . SVG Version: 6.00 Build 0)  -->
<svg version="1.1" id="Layer_2" xmlns="http://www.w3.org/2000/svg" xmlns:xlink="http://www.w3.org/1999/xlink" x="0px" y="0px"
	 viewBox="0 0 640 512" style="enable-background:new 0 0 640 512;" xml:space="preserve">
<path id="_x35_2_1_" d="M633.1,300.5c-6-9.8-31.1-43.2-57.8-43.2c-6.3,0-12.2,1.3-17.2,4.4c-7.6,4.7-15.9,7.4-24.6,8.7
	c18.4-7.6,28.7-13.2,29.5-13.5C529.3,86,407.5,31.8,293.5,31.8c-112.1,0-232.8,52.6-267.9,216.7c0,0,0,0,0,0
	c-0.1,5.5-1.2,10.5-3,15.3C15.9,282,0,296,0,317.4c0,12.2,4.7,24.2,14.4,30.3c15.6,9.8,40.5,20.2,53.9,25
	c-11,8.1-45.8,36.2-45.8,66.6c0,17.5,16.3,37.6,54.2,37.6c3.4,0,6.9-0.2,10.6-0.5c30.6-2.7,80.3-19.7,104.2-44.9
	c16.9-17.8,31-29.9,47.3-35.9c19.1,1,38.4,1.6,57.5,1.8c24.8,10.8,39.9,33.8,65.3,53c22.9,17.4,54.7,31.7,89.8,31.7
	c3,0,6.1-0.1,9.2-0.3c30-2.1,35.8-25.2,35.8-35c0-23.9-18.9-48.3-31.8-62.1c-0.2-0.7-0.4-1.5-0.6-2.2c7.7-1.5,15.1-3.2,22.3-4.9
	c19.3,8.4,43.7,14.9,68,14.9c26.8,0,53.3-7.9,72.5-30C641.1,346.3,644.6,319.3,633.1,300.5z M156.8,123.9
	c45.4-33.1,99.4-40,136.7-40c36.6,0,89.7,6.7,134.6,38.8c33.6,24,58.2,59,73.4,104.6c-10.4,4-22.6,8.3-36.7,12.5
	C407.3,257.2,347.4,266,286.6,266c-68.7,0-136.7-11.5-202.9-34.3C98.3,184.8,122.8,148.7,156.8,123.9z M587.6,328.6
	c-2.9,3.3-11.1,11.8-33,11.8c-13.2,0-28.7-3.2-43-8.8c-3-1.2-6.1-1.9-9.4-2.2l-20.5-1.8c-4.9-0.4-9.9-0.1-14.8,1
	c-4.2,0.9-52,10.4-52,10.4c-8.6,1.7-14,10.3-11.7,18.8l9.9,37c2.6,9.7,7.5,18.6,14.2,26c2.9,3.2,5.5,6.1,6.2,7.1
	c-14.1-3.1-28.2-9.7-40.6-19.1c-7.4-5.6-14.2-12.2-21.4-19.1c-14.4-13.9-29.5-33.4-54.5-40.1c-25.7-6.9-75.7-4.5-94.4-0.8
	c-29.1,5.6-50.6,27.6-68.9,46.9c-4.3,4.6-14.8,11.8-31.2,18.4c-13.3,5.4-25.8,8.5-34.6,9.8c4.8-4.5,9.2-7.9,11.2-9.4l52.6-38.8
	c11-8.1,8.5-25.1-4.3-29.8L86,323.9c-8.6-3.1-19.7-7.7-29.3-12.3c0.2-0.3,9-15.6,16.5-28.4c77,25.7,149.3,34.9,213.4,34.9
	c53.1,0,100.6-6.3,140.7-14.9c29.2,10.3,61.2,20.3,93.2,20.3c16.5,0,31.8-2.7,45.8-8c5.7-2.2,12.2-0.6,16.2,4c2.2,2.5,4.1,5,5.6,7.1
	C588,327.2,587.8,328.1,587.6,328.6z"/>
</svg>
