<?xml version="1.0" encoding="utf-8"?>
<!-- Generator: Adobe Illustrator 21.1.0, SVG Export Plug-In . SVG Version: 6.00 Build 0)  -->
<svg version="1.1" id="Layer_4" xmlns="http://www.w3.org/2000/svg" xmlns:xlink="http://www.w3.org/1999/xlink" x="0px" y="0px"
	 viewBox="0 0 512 512" style="enable-background:new 0 0 512 512;" xml:space="preserve">
<g>
	<path d="M354.8,479.8l67.5-39.9l0.1,0c-5.3-4.8-12.1-10.5-19.8-16.8c-0.8-0.6-1.6-1.3-2.4-1.9l-66.5,36.3
		C341.8,465.7,349,473.5,354.8,479.8z"/>
	<path d="M270.5,404.3c3.1,1.7,6.3,3.8,9.6,6l61.8-29.5c-1.6-0.9-3.2-1.8-4.8-2.6c-11.8-6.3-22.9-9.1-33.6-10l-56.1,26.9
		C255.4,397.2,263.1,400.2,270.5,404.3z"/>
	<path d="M363.2,489.3l68.5-40.8l0.1-0.1c-1-0.9-2.2-2-3.5-3.3l-0.1,0.1l-68.1,40.5C361.3,487.1,362.3,488.3,363.2,489.3z"/>
	<path d="M327.5,451.2l67.3-34.4c-1.3-1-2.6-2.1-4-3.1l-66.7,34.1C325.2,449,326.4,450.1,327.5,451.2z"/>
	<path d="M276.3,369.1l-48.5,22.6c0.3,0,0.5,0.1,0.8,0.1c0.5,0.1,1.1,0.1,1.6,0.2c0.6,0.1,1.2,0.1,1.8,0.2c0.3,0,0.6,0.1,0.9,0.1
		l1.3,0.2c0.6,0.1,1.3,0.2,1.9,0.3c0.1,0,0.1,0,0.2,0c0,0,0,0,0,0l53.2-24.8C285,368.2,280.6,368.6,276.3,369.1z"/>
	<path d="M318.5,442.5l66.1-33.5c-7.8-5.8-16.1-11.7-24.7-17.3l-64,30.6C303.6,428.6,311.2,435.5,318.5,442.5z"/>
	<path d="M290.2,417.7l63.4-30c-1.6-1-3.1-1.9-4.7-2.9L286,414.6C287.4,415.6,288.8,416.6,290.2,417.7z"/>
	<path d="M132.4,247.3l-75.6,12.2c0.9,1.4,1.8,2.8,2.7,4.2l76-12.3C134.5,250,133.4,248.6,132.4,247.3z"/>
	<path d="M112.8,223c0,0-0.4-0.4-0.9-0.9l-76.6,9.5c4.8,5.4,11.6,13.3,18.2,22.7l75.9-11.3C120.6,231.8,112.9,223.1,112.8,223z"/>
	<path d="M159.6,295.3l-79.1,18.3c0.2,0.7,0.5,1.4,0.7,2.1c2.7,7.7,5.4,15.5,8.4,23.4l79.5-19.7c-0.9-2.1-1.7-4.3-2.6-6.6
		C164.6,307.5,162.4,301.7,159.6,295.3z"/>
	<path d="M146.5,268.5c-2.3-4-4.9-8.3-7.7-12.4l-76.7,12c2.4,4.2,4.6,8.6,6.4,13c1.7,4.2,3.4,8.4,4.9,12.6l78.5-14.9
		C150.3,275.5,148.5,272,146.5,268.5z"/>
	<path d="M154.9,284.8l-78.6,16.6c0.5,1.5,1,2.9,1.6,4.4l79.1-16.7C156.2,287.7,155.6,286.3,154.9,284.8z"/>
	<path d="M372.1,139.9c17.4,0,33.2,6.6,45.2,17.5c12.4-10.5,28.5-16.8,46.1-16.8c18.8,0,35.9,7.3,48.7,19.1
		C499.7,74.1,422.9,12.5,329,9.4c-0.1-2.5-1-4.7-2.8-6.5C324.3,1,322,0,319.2,0c-2.6,0-4.8,1-6.7,2.9c-1.9,1.9-2.8,4.1-2.9,6.6
		C217,14.3,141.9,76,130.5,161.1c12.8-12.3,30.3-19.9,49.5-19.9c17.4,0,33.4,6.2,45.7,16.5c11.9-11,27.9-17.8,45.5-17.8
		c14.7,0,28.4,4.8,39.5,12.9v207c-2.1-0.7-4.2-1.4-6.3-2c-0.2-0.1-0.6-0.2-1.5-0.4c-3.4-1-8.3-2.4-11.1-4.3
		c-8.2-6.2-16.9-11.9-26.1-16.9c-9.2-5-18.9-9.1-29-11.9c-10.9-3-21.7-4.4-31.3-4.6c-10-0.2-19,0.9-25.9,2.9
		c-0.6-1.4-1.3-3.3-2.1-5.2c-10.7-27-25.9-65.6-48.4-87.6c-6.3-6.1-10.4-10-14.3-12.3c-4.2-2.4-8.1-3-13.7-2.3
		c-2.2,0.2-5.4,0.5-9.3,0.9c-17.4,1.7-59.5,4.7-75.9,6.5c-0.1,0-0.1,0-0.2,0c-11,1.3-17.2,14.1-10.5,22.9
		c41.6,55.2,43.2,74.8,54.8,106.8c0,0-0.8,0.3-1,0.4c-8.8,3.2-16.8,8-23.9,13.8c-9.3,7.6-17.3,16.9-24.2,26.8
		c-0.3,0.4-0.6,0.8-0.9,1.3c-1.6,2.3-3.6,5.1-4.4,7.8c-1.2,3.9-0.4,7.3,5.2,9c8.3,2.5,10.7-1.3,14.3-6.9c0.5-0.9,1.1-1.8,1.7-2.6
		c6.2-9,12.5-16.5,19.9-22.3c4.4-3.5,9.2-6.4,14.7-8.6c2.7-1.1,4.1-1.9,6.2-2.7c18.9,28.4,34.6,42,54.7,48.9
		c20.1,6.9,44.8,7,81.8,8.5c6,7.1,12.8,16.1,19.3,25.5c9.4,13.6,18.2,27.8,22.6,38l0.4,0.9l0.9,0.3c0.7,0.3,1,0.4,1.1,0.4
		c0,0,0,0,0,0h0c0,0,0,0,0,0c0,0,0,0,0,0c0,0,0,0,0.1,0c4.1,1.5,7,2.6,10.6,2.5c1.6-0.1,4.3-0.8,6.5-2c2-1,3.7-2.4,4.3-4l0.4-1
		l-0.5-0.9c-5.5-10.6-13.6-23.1-21.9-34.8c-7-10-14.3-19.5-20.3-27.1c32.9-4.2,97.4,72.2,104,79.3c4.9,5.3,8.6,8.1,12.4,8.8
		c4,0.7,7.8-0.7,12.8-3.9l77.4-49.2c4.3-2.7,7-5.1,7.7-8c0.8-3.1-0.6-6.2-4.3-10.3c-14.9-16.7-36.4-34.1-60.6-49.1
		c-14.7-9.1-30.5-17.4-46.4-24.1v-213C342,145.3,356.4,139.9,372.1,139.9z M271.1,106.8c-16.3,0-32.2,4-46.4,11.4
		c-12.2-5.8-25.6-9.2-39.2-10c7.8-11.2,17.4-21.4,28.6-30.3c29-23,67-35.6,107.2-35.6c20.3,0,40.1,3.2,58.6,9.4
		c17.8,6,34,14.7,48.2,25.8c11.2,8.8,20.8,18.9,28.6,30c-13.5,0.9-26.7,4.4-38.8,10.2c-14-7.2-29.7-11-45.8-11
		c-17.9,0-35.3,4.8-50.5,13.6C306.4,111.6,289,106.8,271.1,106.8z M205.3,324.3c9.3,0.2,19.6,1.5,30.2,4.4c9.7,2.7,19.1,6.7,28,11.5
		c9,4.8,17.5,10.5,25.6,16.5l0.1,0.1c0.7,0.5,1.5,0.9,2.3,1.3c-5.8,0.1-11.1,0.9-16.2,1.9c-9.6-9.9-25.5-18.2-42.7-23
		c-16-4.4-33.3-5.7-47.9-2.3c-0.5-0.9-0.9-1.8-1.3-2.8c-0.7-1.6-1.4-3.3-2.1-5C187.7,325.1,195.9,324.2,205.3,324.3z M269.8,361.1
		c-0.8,0.2-1.6,0.4-2.4,0.5l-0.2,0c-16.9,3.5-33.4,2.6-47.2-1.2c-15.2-4.2-27.3-12-33-21.6c13.6-2.9,29.5-1.5,44.4,2.6
		C246.6,345.7,260.6,352.7,269.8,361.1z M162.5,401.5c-0.2,0-0.5,0-0.7,0c-34.9,0-61-16.5-68.8-32.9c-0.5-0.9-0.9-1.9-1.3-2.9h9.5
		c3,5.7,9,11.5,17.1,16.2l17.6-6.3c0.6,0.2,1.2,0.5,1.8,0.7c3.1,1.3,6.2,2.8,9.3,4.3l-16.6,6.8c2.2,0.8,4.5,1.5,6.8,2.2h0l15-6.2
		c2.9,1.6,5.7,3.2,8.5,5l-8.6,4c3.2,0.3,6.4,0.5,9.8,0.5c0.2,0,0.4,0,0.7,0c1.5,0,3-0.1,4.6-0.1h0l9.6,8
		C171.4,401.2,166.7,401.5,162.5,401.5z M244,453.5c7.9,11.2,15.5,22.9,20.9,33.1c-0.4,0.3-0.9,0.6-1.6,1c-1.6,0.8-3.5,1.4-4.6,1.5
		c-2.6,0.1-5.2-0.8-8.8-2.2l-0.3-0.1c-4.7-10.4-13.3-24.5-22.6-37.9c-10.4-15-21.8-29.2-29.2-36.4c-5.7-5.7-11.9-11.2-18.5-16.4
		l0-0.1l-0.1,0c-12.2-9.5-25.8-17.7-39.9-23.7c-21.6-9.3-44.5-13.5-65.5-9.5l0,0l-1.9,0.4c-0.5,0.1-1,0.2-1.5,0.3
		c-0.5,0.1-0.9,0.2-1.4,0.3v0c-10,2.6-18.2,6.8-25.4,12.5c-7.8,6.2-14.4,14-20.8,23.4c-0.7,1-1.3,1.9-1.8,2.7
		c-2.4,3.8-4.1,6.4-9.1,4.9c-2.2-0.7-2.6-1.9-2.2-3.3c0.6-2,2.3-4.5,3.8-6.5c0.3-0.5,0.6-0.9,1-1.4c6.6-9.6,14.3-18.6,23.3-25.9
		C45.6,364,54.3,359,64.1,356c0.6-0.2,1.2-0.3,1.8-0.5c1-0.3,1.9-0.5,2.6-0.7c1.2-0.3,2.5-0.6,3.7-0.8c1.2-0.2,2.4-0.5,3.7-0.7
		c1.5-0.2,3-0.5,4.6-0.6c1.6-0.2,3.1-0.3,4.6-0.5c23-1.8,46.5,3.8,68.9,15.1c23.4,11.8,45.5,29.9,64.2,52.3h0
		C224.9,427.7,234.6,440.2,244,453.5z M403.4,419.3c1.2,1,2.4,2,3.6,2.9c0.9,0.7,1.8,1.5,2.6,2.2c0,0,0,0,0,0
		c6.1,5,11.4,9.7,15.7,13.6l5.9,5.4c1.4,1.2,2.5,2.3,3.5,3.2c0.1,0.2,0.3,0.3,0.4,0.5c0,0,0,0,0,0c0.3,0.4,0.6,0.8,0.8,1.2
		c0.2,0.4,0.3,0.8,0.4,1.3c0,0.1,0,0.2,0,0.2c0,0.9-1.2,2.3-2.1,3.1c-1,0.8-1.1,0.9-2.7,1.9l-67.2,42.3c0,0,0,0,0,0c0,0,0,0-0.1,0.1
		c-1.8,1.5-4.5,1.3-6-0.4c-11.8-13.6-59.1-66.5-92-85c-17.9-10.1-38.9-12.5-58.3-12.4l-8.4-8.4c4.4-0.2,9-0.2,13.7-0.1c0,0,0,0,0,0
		c0,0,0,0,0,0l43.9-19.5c-15.9,1.6-31.4,1.6-47.9-6.4l-28.9,13.2c-2.2-1.6-4.4-3.1-6.6-4.5l29.2-12.1c-1.7-1-3.3-2-4.8-3l-29.2,12
		c-2.7-1.7-5.5-3.3-8.3-4.8l31.9-11.4c-0.2-0.1-0.3-0.3-0.5-0.4c-0.1-0.1-0.2-0.2-0.3-0.2c-7.5-6.3-12.3-13-16.2-20.8l-0.6,0.2
		l-57.6,16.6c-5.3-1-10.6-1.8-15.9-2.1l71.6-18.5c-0.6-1.4-1.3-2.8-1.9-4.3l-79.3,20.5c0.3,0.7,0.6,1.5,0.9,2.2h-9.2
		c-3.9-9.8-7.3-19.5-10.6-29c-3.9-11.3-8-22.9-12.7-34.2c-11.3-27.1-37.9-53.5-38.1-53.7c-0.3-0.3-0.4-0.7-0.4-1.1
		c0-0.8,0.6-1.6,1.5-1.7l1-0.1c0,0-0.1,0-0.1-0.1c0.8-0.1,1.7-0.2,2.7-0.4c16.8-1.9,47.8-4.8,65-6.5c3.9-0.4,7.1-0.7,9.3-0.9l0.1,0
		c3.3-0.4,5.8-0.7,8-0.7c1.1-0.2,2.2-0.1,3.1,0.2h0c1,0.3,1.9,0.8,2.5,1.2c0.5,0.3,0.9,0.7,1.1,0.9c0.1,0.1,0.2,0.2,0.2,0.2l0,0
		c0,0,0,0,0,0c0,0,0.1,0.1,0.1,0.1c0,0,0.1,0.1,0.1,0.1c0,0,0,0,0,0c0.1,0.1,0.2,0.2,0.3,0.4c0.2,0.2,0.3,0.4,0.6,0.6
		c0.2,0.2,0.4,0.4,0.6,0.7c0.4,0.5,0.9,1,1.4,1.6c0.2,0.2,0.3,0.4,0.5,0.6c0.2,0.3,0.5,0.6,0.8,0.9c0.2,0.2,0.4,0.4,0.5,0.6
		c1.5,1.7,3.2,3.8,5.1,6.2c0.5,0.6,0.9,1.2,1.4,1.7c1.8,2.2,3.7,4.6,5.6,7.2c0,0,5.7,6.2,9.4,13c2.8,4.1,5.5,8.3,7.7,12.4
		c10.1,18.2,15.8,32.9,20.3,44.7c6.5,16.8,11,28.5,23.4,38.8c0,0,0.1,0,0.1,0.1c3.4,2.7,7.4,5.3,12.2,7.9
		c20.5,11.2,39.6,8.9,59.9,6.4c21.9-2.7,44.6-5.5,71,8.5C361.5,387,385.1,404.4,403.4,419.3z"/>
</g>
</svg>
