<?xml version="1.0" encoding="utf-8"?>
<!-- Generator: Adobe Illustrator 21.1.0, SVG Export Plug-In . SVG Version: 6.00 Build 0)  -->
<svg version="1.1" id="Layer_1" xmlns="http://www.w3.org/2000/svg" xmlns:xlink="http://www.w3.org/1999/xlink" x="0px" y="0px"
	 viewBox="0 0 512 512" style="enable-background:new 0 0 512 512;" xml:space="preserve">
<g>
	<g>
		<path d="M462,0H50C22.4,0,0,22.4,0,50v412c0,27.6,22.4,50,50,50h412c27.6,0,50-22.4,50-50V50C512,22.4,489.6,0,462,0z M460,448
			c0,9.9-2,12-12,12H64c-10,0-12-2.1-12-12V64c0-10,2-12,12-12h384c10,0,12,2,12,12V448z"/>
	</g>
</g>
</svg>
