<?xml version="1.0" encoding="utf-8"?>
<!-- Generator: Adobe Illustrator 22.0.1, SVG Export Plug-In . SVG Version: 6.00 Build 0)  -->
<svg version="1.1" id="Layer_2" xmlns="http://www.w3.org/2000/svg" xmlns:xlink="http://www.w3.org/1999/xlink" x="0px" y="0px"
	 viewBox="0 0 448 512" style="enable-background:new 0 0 448 512;" xml:space="preserve">
<g id="_x35_2">
	<path d="M66.3,39.6c3.7,8.1,5.6,21.7,5.6,40.6v157.1c0,84.6,68.6,153.2,153.3,153.2s153.3-68.6,153.3-153.2l-0.1-157.1
		c0-17.3,1.3-29.2,3.8-35.9c3.4-9.6,8.8-16.8,16.2-21.5c7.5-4.8,14.8-7.2,26-7.2h0.3V0H278v15.6c16.1,0,18.6,2.4,27.5,7.2
		c5.7,3.1,10.4,8.8,14.1,16.9c3.7,8.1,5.6,21.7,5.6,40.6l0.1,157.1c0,55.3-44.8,100.2-100.2,100.2S125,292.6,125,237.3l0-157.1
		c0-17.3,1.3-29.2,3.8-35.9c3.4-9.6,8.8-16.8,16.2-21.5c7.5-4.8,14.8-7.2,26-7.2h0.3V0H24.7v15.6c16.1,0,18.6,2.4,27.5,7.2
		C57.9,25.8,62.5,31.5,66.3,39.6z"/>
	<rect y="460" width="448" height="52"/>
</g>
</svg>
