<?xml version="1.0" encoding="utf-8"?>
<!-- Generator: Adobe Illustrator 19.0.0, SVG Export Plug-In . SVG Version: 6.00 Build 0)  -->
<svg version="1.1" id="Layer_2" xmlns="http://www.w3.org/2000/svg" xmlns:xlink="http://www.w3.org/1999/xlink" x="0px" y="0px"
	 viewBox="-76 0 378.5 512" style="enable-background:new -76 0 378.5 512;" xml:space="preserve">
<g>
	<path d="M113,60c16.6,0,30-13.4,30-30S129.6,0,113,0S83,13.4,83,30S96.4,60,113,60z"/>
	<path d="M87.2,409h52.1V175l113.2,102.3v-58.4l-0.5-6c-0.6-4.3-2.3-7.7-5.1-10.2L113.2,82L-18.9,203.7l-4.7,6
		c-1.3,2.8-1.9,5.2-1.9,7.4v59.8L87.2,174V409z"/>
	<polygon points="250.5,409 250.5,460.7 -23.5,460.7 -23.5,409 -75.5,409 -75.5,513 302.5,513 302.5,409 	"/>
</g>
</svg>
