<?xml version="1.0" encoding="utf-8"?>
<!-- Generator: Adobe Illustrator 21.1.0, SVG Export Plug-In . SVG Version: 6.00 Build 0)  -->
<svg version="1.1" id="_x35_2" xmlns="http://www.w3.org/2000/svg" xmlns:xlink="http://www.w3.org/1999/xlink" x="0px" y="0px"
	 viewBox="0 0 640 512" style="enable-background:new 0 0 640 512;" xml:space="preserve">
<g>
	<path d="M227.9,39.7C216.2,46.9,206,56.5,198,68.4c-6.3-3.2-13.8-5.1-22.4-5.1c-62.9,0-59.1,105.9-2.6,137.8v48.2
		c0,0-10.2,13.6-12.9,18.1c-3.1,5.1-10.7,20.6-10.7,20.6C42.2,314,38.6,351.8,40,355.8c7.6,6.5,22.8,11.4,50.1,14.4
		c-7.7,9.5-13.1,19.3-16.3,29.4c-1,2.8-1.7,5.7-2.3,8.4c-39-6.2-66.1-18.9-70.8-45.1c-0.6-2.5-1.6-11.1,0.5-20.7c0,0,0,0,0-0.1
		c0.5-2,1-4,1.7-6.1c10.5-32.7,49.2-63,117.5-81.6c0,0,1.7-3.9,4.6-8.2c3.4-5.2,8-10.9,8-10.9v-14.6c0,0-0.9-0.7-2.5-2.1
		c0,0,0,0-0.1-0.1c-4.6-4.1-14.7-14.2-23.4-28.8c-6.7-11.2-12.5-25-14.1-40.8c-2.9-14.4-3.7-27.9-2.8-40.3c0-0.2,0-0.4,0-0.6
		c4.1-49.4,36.8-81.5,79.3-84.5c0.1,0,0.2,0,0.2,0h0.1c2.1-0.2,11.5-0.2,13.8,0c0.1,0,0.2,0,0.3,0C200.4,24.9,215.4,30.5,227.9,39.7
		z"/>
	<path d="M639.2,363c-0.2,0.7-0.3,1.5-0.5,2.2c-5.9,25.1-33.4,37.3-72.5,43.2c-0.6-2.9-1.3-5.9-2.3-8.8c-3.2-9.9-8.5-19.7-16.2-29.1
		c28.7-2.9,44.4-7.9,52.2-14.6c1.5-4-2.2-41.8-109.4-67.9c0,0-7.5-15.4-10.7-20.6c-2.8-4.5-12.9-18.1-12.9-18.1v-48.2
		c56.6-31.9,60.3-137.8-2.6-137.8c-9.5,0-17.4,2.1-24.1,6c-7.9-11.8-17.8-21.5-29.3-28.7c7.7-6,16.4-10.5,26-13.3
		c6.1-1.8,12.5-3,19.1-3.5c0.1,0,0.2,0,0.3,0c2.2-0.2,11.6-0.2,13.8,0h0.1c0.1,0,0.2,0,0.2,0c53.2,3.9,91.1,53.3,76.6,125.3
		c-1.7,15.8-7.5,29.7-14.1,40.8c-2.8,4.7-5.8,9-8.6,12.7c-6,7.8-11.7,13.3-14.8,16.2c0,0,0,0-0.1,0.1c-1.6,1.4-2.4,2.1-2.4,2.1v14.6
		c0,0,4.6,5.8,8,10.9c2.8,4.3,4.6,8.2,4.6,8.2c68.2,18.6,107.1,48.9,117.5,81.6C641.2,348,640,360,639.2,363z"/>
	<path d="M444.5,320.7c-26.9-10.5-54.9-20.7-54.9-20.7c-0.2-0.6-2.8-9.6-16.3-22.3v-18.4c0,0,42.7-47,49.2-106.2
		c0.3-2.3,19.4-131-101.8-131.4h-0.9c-121.2,0.5-102.1,129.1-101.8,131.4c6.5,59.1,49.2,106.2,49.2,106.2v18.4
		c-13.5,12.8-16.1,21.8-16.3,22.3c0,0-28,10.2-54.9,20.7c-26.9,10.5-89.1,32.4-89.1,92.4c0,74.4,163.7,79,204.1,79
		c4.9,0,13.5,0,18.4,0c40.4,0,204.1-4.6,204.1-79C533.5,353.2,471.4,331.2,444.5,320.7z M320.2,444.3
		c-138.6,0-164.5-30.4-165.4-31.6c-7.6-39.3,133.2-75.3,133.2-75.3l7.4-19.9c0.6-0.8,2-2.6,4.6-5.1l15-14.1v-38.9l0.4-18.4
		c0,0-25-26.1-40.7-60.4c-15.8-34.3-21.5-111,45.5-111c70.5,0,59.4,80,46.3,111S325.4,241,325.4,241l0.4,18.4v38.9l15,14.1
		c2.6,2.5,4,4.2,4.6,5.1l7.4,19.9c0,0,138.5,35.8,133.2,75.3C484.9,414,461.3,444.3,320.2,444.3z"/>
</g>
</svg>
