<?xml version="1.0" encoding="utf-8"?>
<!-- Generator: Adobe Illustrator 21.1.0, SVG Export Plug-In . SVG Version: 6.00 Build 0)  -->
<svg version="1.1" id="Layer_1" xmlns="http://www.w3.org/2000/svg" xmlns:xlink="http://www.w3.org/1999/xlink" x="0px" y="0px"
	 viewBox="0 0 487.5 512" style="enable-background:new 0 0 487.5 512;" xml:space="preserve">
<path d="M367.6,325.5c-29.3-11.4-59.8-22.5-59.8-22.5c-0.2-0.6-3-10.4-17.7-24.3v-20c0,0,46.5-51.2,53.6-115.6
	C344,140.6,364.8,0.5,232.8,0h-1c-132,0.5-111.2,140.6-110.9,143.1c7.1,64.4,53.6,115.6,53.6,115.6v20
	c-14.7,13.9-17.5,23.7-17.7,24.3c0,0-30.5,11.1-59.8,22.5S0,360.8,0,426.1c0,81,178.3,86,222.3,86c5.3,0,14.7,0,20,0
	c44,0,222.3-5,222.3-86C464.6,360.8,396.9,336.9,367.6,325.5z M242.4,460.2C76,460.2,53,427,52,425.7c0.1-8.1,2.1-17,15.6-27.7
	c18.4-14.9,90.9-40.6,129.4-54.3l8.1-21.7c0.7-0.9,21.3-20.9,21.3-20.9l0.4-62.4c-24.5-21.9-54.3-74.8-54.3-101.3
	c0-34.3-5.4-85.4,59.7-85.4c65.8,0,59.8,54.8,59.8,85.4c0,31.6-32,81.7-54.3,101.3l0.4,62.4c0,0,20.7,20,21.3,20.9l8.1,21.7
	c47.4,16.7,111.2,39.9,129.4,54.3c13.5,10.7,15.6,19.6,15.6,27.7C411.6,427,380,460.2,242.4,460.2z"/>
</svg>
