<?xml version="1.0" encoding="utf-8"?>
<!-- Generator: Adobe Illustrator 22.0.1, SVG Export Plug-In . SVG Version: 6.00 Build 0)  -->
<svg version="1.1" id="Layer_1" xmlns="http://www.w3.org/2000/svg" xmlns:xlink="http://www.w3.org/1999/xlink" x="0px" y="0px"
	 viewBox="0 0 590 512" style="enable-background:new 0 0 590 512;" xml:space="preserve">
<style type="text/css">
	.st0{fill-rule:evenodd;clip-rule:evenodd;}
	.st1{fill:#010101;}
</style>
<g id="_x35_2">
	<path d="M437.2,433.5c-46.3,46.4-110.4,75.1-181.1,75.1c-71.7,0-136.6-29.5-183.1-77c7.5-66.5,123.7-88.2,123.7-88.2
		s1.8-4.6,5.3-9.6c3.1-4.5,8-9.4,8-9.4v-15.8c0,0-0.2-0.2-0.5-0.5v-7.2c0,0-32.2-33.2-41.5-85.6c-0.7-5.8-1-11.9-1-18.1
		c0-33.1,10.1-56.6,26.1-71.7c16-15.2,38-22,61.9-22c47.7,0,88,27.5,88,93.8c0,12.8-1.6,24.7-4.1,35.7
		c-12.3,42.2-37.4,68.1-37.4,68.1v6c-1,1.1-1.6,1.7-1.6,1.7v15.8c0,0,4.9,4.9,8,9.4c3.5,5,5.3,9.6,5.3,9.6S431.5,365.6,437.2,433.5z
		"/>
	<path class="st0" d="M449.1,323C421.7,403.3,345.6,461,256,461c-112.7,0-204-91.3-204-204S143.3,53,256,53
		c25.2,0,49.3,4.5,71.5,12.9l19.2-48.4C318.5,6.8,287.9,1,256,1C114.6,1,0,115.6,0,257s114.6,256,256,256
		c118.6,0,218.3-80.6,247.4-190H449.1z"/>
	<path class="st1" d="M414.9,103.2v163.3c0,9.7,7.9,17.6,17.6,17.6h139c9.7,0,17.6-7.9,17.6-17.6V103.2H414.9z M473.2,228.8h-12.1
		v-68.1h12.1V228.8z M507.8,239.3h-12.1v-91.8h12.1V239.3z M542.7,228.8h-12.1v-68.1h12.1V228.8z"/>
	<path class="st1" d="M576.2,62h-25.7V50.9c0-11.6-9.4-20.9-20.9-20.9h-57.6c-11.5,0-20.9,9.4-20.9,20.9V62h-23.8
		c-7.1,0-12.9,5.8-12.9,12.9l0,0c0,7.1,5.8,12.9,12.9,12.9h148.9c7.1,0,12.9-5.8,12.9-12.9l0,0C589.1,67.8,583.4,62,576.2,62z
		 M466.6,51.3c0-4.5,3.6-8.1,8.1-8.1h52.2c4.5,0,8.1,3.6,8.1,8.1V62h-68.4V51.3z"/>
</g>
</svg>
