<?xml version="1.0" encoding="utf-8"?>
<!-- Generator: Adobe Illustrator 22.0.1, SVG Export Plug-In . SVG Version: 6.00 Build 0)  -->
<svg version="1.1" id="Layer_1" xmlns="http://www.w3.org/2000/svg" xmlns:xlink="http://www.w3.org/1999/xlink" x="0px" y="0px"
	 viewBox="0 0 590 512" style="enable-background:new 0 0 590 512;" xml:space="preserve">
<style type="text/css">
	.st0{fill-rule:evenodd;clip-rule:evenodd;}
</style>
<g id="_x35_2">
	<path d="M437.2,433.5c-46.3,46.4-110.4,75.1-181.1,75.1c-71.7,0-136.6-29.5-183.1-77c7.5-66.5,123.7-88.2,123.7-88.2
		s1.8-4.6,5.3-9.6c3.1-4.5,8-9.4,8-9.4v-15.8c0,0-0.2-0.2-0.5-0.5v-7.2c0,0-32.2-33.2-41.5-85.6c-0.7-5.8-1-11.9-1-18.1
		c0-33.1,10.1-56.6,26.1-71.7c16-15.2,38-22,61.9-22c47.7,0,88,27.5,88,93.8c0,12.8-1.6,24.7-4.1,35.7
		c-12.3,42.2-37.4,68.1-37.4,68.1v6c-1,1.1-1.6,1.7-1.6,1.7v15.8c0,0,4.9,4.9,8,9.4c3.5,5,5.3,9.6,5.3,9.6S431.5,365.6,437.2,433.5z
		"/>
	<path class="st0" d="M449.1,323C421.7,403.3,345.6,461,256,461c-112.7,0-204-91.3-204-204S143.3,53,256,53
		c25.2,0,49.3,4.5,71.5,12.9l19.2-48.4C318.5,6.8,287.9,1,256,1C114.6,1,0,115.6,0,257s114.6,256,256,256
		c118.6,0,218.3-80.6,247.4-190H449.1z"/>
	<path d="M469.4,267.9c45.3,0,82.4-37.5,82.7-83.7V91.8l39.6,1.4l-61.3-70.6l-60.5,70.6l39.5-1.4v92.4
		c-0.2,22.4-18.5,41.4-40.1,41.4c-23,0-40.4-17.9-40.4-41.7v-4.4c0-11.2-9.6-20.6-21-20.6c-11.8,0-21.4,9.2-21.4,20.6v4.4
		C386.7,230.2,423.8,267.9,469.4,267.9z"/>
</g>
</svg>
