<?xml version="1.0" encoding="utf-8"?>
<!-- Generator: Adobe Illustrator 21.1.0, SVG Export Plug-In . SVG Version: 6.00 Build 0)  -->
<svg version="1.1" id="Layer_1" xmlns="http://www.w3.org/2000/svg" xmlns:xlink="http://www.w3.org/1999/xlink" x="0px" y="0px"
	 viewBox="0 0 463.9 512" style="enable-background:new 0 0 463.9 512;" xml:space="preserve">
<path d="M229.4,52.8c12.7,0,22.9,5.2,30.3,10.9c-3.1,0.3-6.4,0.7-9.8,1.1c-7.8,0.9-16.6,2-24.9,2c-7.2,0-11.2-0.8-13.1-1.4l-2.9-7.9
	C214.8,54.7,221.7,52.8,229.4,52.8 M319,361.9c29.6,9,55.3,22.4,72.6,38c12.9,11.7,20.4,23.9,20.4,33.6c0,1.7-0.2,2.4-0.3,2.6
	c-0.3,0.4-5.6,6.9-28.7,12.8l-0.1,0l-0.1,0c-37.2,9.6-94.6,11-151,11.1H231c-47.3,0-96.1-1-133.2-7.3c-38-6.5-45.2-15.7-45.6-16.2
	c-0.1-0.2-0.3-1-0.3-2.7c0-9.7,7.4-22,20.2-33.6c17.2-15.7,42.9-29.1,72.5-38.1c25,19.1,55.2,29.6,87.3,29.6
	C263.4,391.6,293.9,380.9,319,361.9 M229.4,0.8c-62.1,0-112.5,58.6-112.5,131c0,26.7,3.3,82.8,2,123.6c-1.1,33.9-8.1,55.8,3,55.8
	c1.9,0,5.8,0,11.5-0.1C54.7,333.8,0,382.2,0,433.7c0,71,103.7,78.2,231,78.3h1c64-0.1,121.9-1.9,163.9-12.7
	c42-10.7,68.1-30.3,68.1-65.8c-0.1-51.5-55.2-100-134.4-122.7c1.4,0.1,2.6,0.1,3.5,0.2c0.3,0,0.7,0,1,0c12.6,0,6.2-21,4.9-56.8
	s3-86.9,3-122.6C341.9,59.4,291.5,0.8,229.4,0.8L229.4,0.8z M147.5,144.4c20.1-21.3,15.1-22.7,16-59.9
	c10.3,28.2,36.9,34.3,61.5,34.3c19,0,36.7-3.6,45-3.6c0.1,0,0.2,0,0.3,0c13.1,0.1,33.3,1.2,35.2,30.5c0.1-0.1,0.1-0.1,0.2-0.2v0.1
	c1.2-1.1,2.4-1.7,3.9-1.7c5.2,0,9.3,7.1,9.4,15.8c0,4.5-0.7,10-2,15.2h0.2c-2.3,8.6-5.8,16.2-9,16.2c-1.5,0-3.2-0.2-4.6-1.3
	c-9.2,45.2-40.6,87.7-78,87.7c-37.1,0-68.3-41.6-77.7-86.4c-0.3,0-0.7,0-1,0c-3.3,0-6.8-7.7-8.9-16.4c-0.1-0.6-0.3-1.2-0.4-1.8
	c0-0.1,0-0.2-0.1-0.3c-0.1-0.6-0.2-1.2-0.4-1.8c0-0.1,0-0.2,0-0.2c-0.1-0.5-0.2-1-0.3-1.4c0-0.2-0.1-0.4-0.1-0.6
	c-0.1-0.4-0.1-0.9-0.2-1.3c0-0.3-0.1-0.5-0.1-0.7c0-0.4-0.1-0.8-0.1-1.1c0-0.2,0-0.5-0.1-0.7c0-0.4-0.1-0.8-0.1-1.2
	c0-0.2,0-0.5,0-0.7c0-0.4,0-0.8-0.1-1.2c0-0.2,0-0.4,0-0.5c0-0.5,0-1,0-1.5c0-8.7,4.2-15.8,9.4-15.8
	C146.2,143.9,146.9,144.1,147.5,144.4L147.5,144.4z M231.9,311.9c23.4,0,44.2-12.3,57-31.2l19.3,18.6
	c-17.6,24.5-45.3,40.3-76.3,40.3c-31.1,0-58.7-15.8-76.3-40.3l19.3-18.6C187.7,299.6,208.5,311.9,231.9,311.9L231.9,311.9z"/>
</svg>
