<?xml version="1.0" encoding="utf-8"?>
<!-- Generator: Adobe Illustrator 22.0.1, SVG Export Plug-In . SVG Version: 6.00 Build 0)  -->
<svg version="1.1" id="Layer_1" xmlns="http://www.w3.org/2000/svg" xmlns:xlink="http://www.w3.org/1999/xlink" x="0px" y="0px"
	 viewBox="0 0 590 512" style="enable-background:new 0 0 590 512;" xml:space="preserve">
<style type="text/css">
	.st0{fill-rule:evenodd;clip-rule:evenodd;}
	.st1{fill:#010101;}
</style>
<g id="_x35_2">
	<path d="M437.2,433.5c-46.3,46.4-110.4,75.1-181.1,75.1c-71.7,0-136.6-29.5-183.1-77c7.5-66.5,123.7-88.2,123.7-88.2
		s1.8-4.6,5.3-9.6c3.1-4.5,8-9.4,8-9.4v-15.8c0,0-0.2-0.2-0.5-0.5v-7.2c0,0-32.2-33.2-41.5-85.6c-0.7-5.8-1-11.9-1-18.1
		c0-33.1,10.1-56.6,26.1-71.7c16-15.2,38-22,61.9-22c47.7,0,88,27.5,88,93.8c0,12.8-1.6,24.7-4.1,35.7
		c-12.3,42.2-37.4,68.1-37.4,68.1v6c-1,1.1-1.6,1.7-1.6,1.7v15.8c0,0,4.9,4.9,8,9.4c3.5,5,5.3,9.6,5.3,9.6S431.5,365.6,437.2,433.5z
		"/>
	<path class="st0" d="M449.1,323C421.7,403.3,345.6,461,256,461c-112.7,0-204-91.3-204-204S143.3,53,256,53
		c25.2,0,49.3,4.5,71.5,12.9l19.2-48.4C318.5,6.8,287.9,1,256,1C114.6,1,0,115.6,0,257s114.6,256,256,256
		c118.6,0,218.3-80.6,247.4-190H449.1z"/>
	<path class="st1" d="M555.8,245.1H381.7c-2.1,0-4.3,2.2-4.3,4.3c0,2.2,2.1,4.3,4.3,4.3h174.1c2.1,0,4.3-2.2,4.3-4.3
		S557.9,245.1,555.8,245.1z M411.7,115.7c-1,8.8-2.9,17.5-5.8,26.3c6.8,7.8,11.6,17.5,15.5,26.3c1.9-8.8,4.8-18.5,9.7-27.3
		c-5.8-7.8-10.7-16.6-14.6-25.3c4.8-1.9,7.8-5.8,7.8-10.7c0-6.8-4.8-11.7-11.6-11.7c-5.8,0-10.7,4.9-10.7,11.7
		C401.9,110.8,405.8,115.7,411.7,115.7z M519.3,168.3c3.9-8.8,8.7-18.5,15.5-26.3c-2.9-8.8-4.8-17.5-5.8-26.3
		c5.8,0,9.7-4.9,9.7-10.7c0-6.8-4.8-11.7-10.7-11.7c-6.8,0-11.6,4.9-11.6,11.7c0,4.9,2.9,8.8,7.8,10.7c-3.9,8.8-8.7,17.5-14.6,25.3
		C514.5,149.8,517.4,159.5,519.3,168.3z M577.5,106.9c-5.8,0-10.7,5.8-10.7,11.7c0,1.9,0,2.9,1,4.9c-23.3,4.9-41.7,28.2-49.5,57.4
		c-2.9-34.1-20.4-62.3-43.6-71.1c3.9-1.9,6.8-5.8,6.8-10.7c0-6.8-4.8-11.7-10.7-11.7c-6.8,0-11.6,4.9-11.6,11.7
		c0,4.9,2.9,8.8,6.8,10.7c-23.3,8.8-40.7,37-43.6,71.1c-7.7-29.2-26.2-52.6-49.4-57.4c1-1.9,1-2.9,1-4.9c0-5.8-4.8-11.7-10.7-11.7
		c-6.8,0-11.6,5.8-11.6,11.7c0,6.8,4.8,11.7,11.6,11.7c2.9,0,4.8-1,6.8-2.9c13.6,20.5,19.5,85.8,19.5,85.8s36.6,0,81.7,0
		c44.5,0,80.1,0,80.1,0s6-65.3,19.5-85.8c1.9,1.9,3.9,2.9,6.8,2.9c6.8,0,11.6-4.9,11.6-11.7C589.2,112.8,584.3,106.9,577.5,106.9z
		 M470.3,144.8c-2.4,0-4.4-1.9-4.4-4.4c0-2.4,1.9-4.4,4.4-4.4c2.4,0,4.4,1.9,4.4,4.4C474.7,142.8,472.7,144.8,470.3,144.8z
		 M551.5,215.5H388.9l-6.5,23.2H558L551.5,215.5z M397.4,229.2c-1.4,0-2.1-0.7-2.1-1.4c0-1.4,0.7-2.2,2.1-2.2c0.7,0,1.4,0.7,1.4,2.2
		C398.8,228.5,398.1,229.2,397.4,229.2z M420.9,229.2c-0.7,0-2.1-0.7-2.1-1.4c0-1.4,1.4-2.2,2.1-2.2c0.7,0,2.1,0.7,2.1,2.2
		C423.1,228.5,421.7,229.2,420.9,229.2z M444.5,229.2c-0.7,0-1.4-0.7-1.4-1.4c0-1.4,0.7-2.2,1.4-2.2c1.4,0,2.1,0.7,2.1,2.2
		C446.6,228.5,445.9,229.2,444.5,229.2z M468.7,229.2c-1.4,0-2.1-0.7-2.1-1.4c0-1.4,0.7-2.2,2.1-2.2c0.7,0,1.4,0.7,1.4,2.2
		C470.2,228.5,469.5,229.2,468.7,229.2z M492.3,229.2c-0.7,0-2.1-0.7-2.1-1.4c0-1.4,1.4-2.2,2.1-2.2c0.7,0,2.1,0.7,2.1,2.2
		C494.4,228.5,493,229.2,492.3,229.2z M515.8,229.2c-0.7,0-1.4-0.7-1.4-1.4c0-1.4,0.7-2.2,1.4-2.2c1.4,0,2.1,0.7,2.1,2.2
		C518,228.5,517.3,229.2,515.8,229.2z M540.1,229.2c-1.4,0-2.1-0.7-2.1-1.4c0-1.4,0.7-2.2,2.1-2.2c0.7,0,1.4,0.7,1.4,2.2
		C541.5,228.5,540.8,229.2,540.1,229.2z"/>
</g>
</svg>
