<?xml version="1.0" encoding="utf-8"?>
<!-- Generator: Adobe Illustrator 21.1.0, SVG Export Plug-In . SVG Version: 6.00 Build 0)  -->
<svg version="1.1" id="Layer_1" xmlns="http://www.w3.org/2000/svg" xmlns:xlink="http://www.w3.org/1999/xlink" x="0px" y="0px"
	 viewBox="0 0 590 512" style="enable-background:new 0 0 590 512;" xml:space="preserve">
<g id="_x35_2">
	<path d="M503.4,323C474.3,432.4,374.6,513,256,513C114.6,513,0,398.4,0,257S114.6,1,256,1c31.9,0,62.5,5.8,90.7,16.5l-19.2,48.4
		C305.3,57.5,281.2,53,256,53C143.3,53,52,144.3,52,257c0,49.3,17.5,94.6,46.7,129.9c36.4-32,98-43.5,98-43.5s1.8-4.6,5.3-9.6
		c3.1-4.5,8-9.4,8-9.4v-15.8c0,0-0.2-0.2-0.5-0.5v-7.2c0,0-32.2-33.2-41.5-85.6c-0.7-5.8-1-11.9-1-18.1c0-33.1,10.1-56.6,26.1-71.7
		c16-15.2,38-22,61.9-22c47.7,0,88,27.5,88,93.8c0,12.8-1.6,24.7-4.1,35.7c-12.3,42.2-37.4,68.1-37.4,68.1v6c-1,1.1-1.6,1.7-1.6,1.7
		v15.8c0,0,4.9,4.9,8,9.4c3.5,5,5.3,9.6,5.3,9.6s63,11.7,99.2,44.4c16-19,28.5-41,36.7-65H503.4z"/>
	<path d="M373.9,233.9h202.4c7.6,0,13.8-6.2,13.8-13.7l0,0c0-7.6-6.2-13.8-13.8-13.8h-4.6c0-43.5-28.4-75.9-49.5-82.5l-11.4,42.4
		c-1,3.6-4.5,5.9-8.1,5.3l-0.4-0.1c-4-0.6-6.7-4.5-6.1-8.4l8.8-51.8c-1.5-2.9-8.2-9.2-16.3-9.2h-27.3c-9.2,0-14.9,6.3-16.3,9.2
		l8.4,51.9c0.6,4-2.1,7.8-6,8.4c-3.7,0.6-7.3-1.8-8.2-5.3l-11.3-42.4c-14.8,4.1-50.2,36.1-50.2,82.5h-3.7c-7.6,0-13.8,6.2-13.7,13.9
		C360.1,227.7,366.2,233.9,373.9,233.9z"/>
</g>
</svg>
