<?xml version="1.0" encoding="utf-8"?>
<!-- Generator: Adobe Illustrator 21.1.0, SVG Export Plug-In . SVG Version: 6.00 Build 0)  -->
<svg version="1.1" id="Layer_1" xmlns="http://www.w3.org/2000/svg" xmlns:xlink="http://www.w3.org/1999/xlink" x="0px" y="0px"
	 viewBox="0 0 487.5 512" style="enable-background:new 0 0 487.5 512;" xml:space="preserve">
<g>
	<path d="M367.6,325.5c-29.3-11.4-59.8-22.5-59.8-22.5c-0.2-0.6-3-10.4-17.7-24.3v-20c0,0,46.5-51.2,53.6-115.6
		C344,140.6,364.8,0.5,232.8,0h-1c-132,0.5-111.2,140.6-110.9,143.1c7.1,64.4,53.6,115.6,53.6,115.6v20
		c-14.7,13.9-17.5,23.7-17.7,24.3c0,0-30.5,11.1-59.8,22.5S0,360.8,0,426.1c0,81,178.3,86,222.3,86c5.3,0,14.7,0,20,0
		c44,0,222.3-5,222.3-86C464.6,360.8,396.9,336.9,367.6,325.5z M232.3,460.1c-150.9,0-179.1-33.1-180.1-34.4
		c-8.3-42.8,145-82,145-82l8.1-21.7c0.7-0.9,2.2-2.8,5-5.5l16.3-15.4v-42.4l0.4-20c0,0-27.2-28.4-44.3-65.8S159.3,52,232.3,52
		c76.8,0,64.7,87.1,50.4,120.9c-14.3,33.8-44.8,65.8-44.8,65.8l0.4,20v42.4l16.3,15.4c2.8,2.7,4.4,4.6,5,5.5l8.1,21.7
		c0,0,150.8,39,145,82C411.6,427,385.9,460.1,232.3,460.1z"/>
	<path d="M461.4,201.3l-59.2,59l-13-22.1c-4.2-7.3-13.6-9.8-20.9-5.6c-7.3,4.2-9.8,13.6-5.6,20.9l22,37.8c0.6,1.2,3.2,4.1,3.6,4.5
		c6,6,15.7,6,21.7,0l73.1-72.9c6-6,6-15.6,0-21.6C477,195.4,467.4,195.4,461.4,201.3z"/>
</g>
</svg>
