<?xml version="1.0" encoding="utf-8"?>
<!-- Generator: Adobe Illustrator 21.1.0, SVG Export Plug-In . SVG Version: 6.00 Build 0)  -->
<svg version="1.1" id="Layer_3" xmlns="http://www.w3.org/2000/svg" xmlns:xlink="http://www.w3.org/1999/xlink" x="0px" y="0px"
	 viewBox="0 0 464.6 512" style="enable-background:new 0 0 464.6 512;" xml:space="preserve">
<g>
	<path d="M459.9,397.4c-5.6-15.7-15.6-28.1-27.3-38c-21.6-18.3-49-28.3-65-34.5c-29.3-11.4-59.8-22.5-59.8-22.5
		c-0.1-0.3-0.6-2.2-2.4-5.4c-2.3-4.3-6.9-11-15.3-18.9v-20c0,0,35.5-39.1,49.2-91.9h-0.5h-53.9c-11.5,31.5-31.9,55.3-33.4,57
		l-13.8,14.9l0.4,20v42.4l16.3,15.4c2.8,2.7,4.4,4.6,5,5.5l8.1,21.7l22.5,8.2c0.3,0.1,30.3,11,58.7,22.1c1,0.4,2.1,0.8,3.2,1.2
		c13.3,5.1,31.5,12.2,45,22.8c13.5,10.7,15.6,19.6,15.6,27.7c-1,1.3-5.1,5.8-17.3,11.3c-13,5.9-30.3,10.9-51.4,14.7
		c-41.5,7.5-84.8,8.4-101.5,8.4h-20c-16.7,0-60-0.8-101.5-8.4c-21.1-3.8-38.4-8.8-51.4-14.7c-12.2-5.5-16.3-10-17.3-11.3
		c0.1-8.1,2.1-17,15.6-27.7c13.5-10.6,31.7-17.7,45-22.8c1.1-0.4,2.2-0.8,3.2-1.2c28.4-11,58.4-22,58.7-22.1l22.5-8.2l8.1-21.7
		c0.7-0.9,2.2-2.8,5-5.5l16.3-15.4v-42.4l0.4-20l-13.8-14.9c-1.5-1.7-21.9-25.5-33.4-57h-53.9h-0.5c13.7,52.8,49.2,91.9,49.2,91.9
		v20c-14.7,13.9-17.5,23.7-17.7,24.3c0,0-30.5,11.1-59.8,22.5C67.7,336.3,0,360.2,0,425.5c0,81,178.3,86,222.3,86h20
		c37.3,0,171.1-3.6,211-54.1c7.1-9,11.3-19.6,11.3-31.9C464.6,415.2,462.9,405.8,459.9,397.4z"/>
	<path d="M117,151.2h231.2c8.7,0,15.8-7.1,15.8-15.7v0c0-8.7-7.1-15.8-15.8-15.8h-5.3c0-49.7-32.4-86.7-56.6-94.3l-13,48.4
		c-1.1,4.1-5.1,6.7-9.3,6.1l-0.5-0.1c-4.6-0.7-7.7-5.1-7-9.6l10-59.2c-1.7-3.3-9.4-10.5-18.6-10.5h-31.2c-10.5,0-17,7.2-18.6,10.5
		l9.6,59.3c0.7,4.6-2.4,8.9-6.9,9.6c-4.2,0.7-8.3-2-9.4-6.1l-12.9-48.4c-16.9,4.7-57.3,41.2-57.3,94.3H117
		c-8.7,0-15.8,7.1-15.7,15.9C101.3,144.2,108.3,151.2,117,151.2z"/>
</g>
</svg>
