<?xml version="1.0" encoding="utf-8"?>
<!-- Generator: Adobe Illustrator 22.0.1, SVG Export Plug-In . SVG Version: 6.00 Build 0)  -->
<svg version="1.1" id="Layer_1" xmlns="http://www.w3.org/2000/svg" xmlns:xlink="http://www.w3.org/1999/xlink" x="0px" y="0px"
	 viewBox="0 0 590 512" style="enable-background:new 0 0 590 512;" xml:space="preserve">
<style type="text/css">
	.st0{fill-rule:evenodd;clip-rule:evenodd;}
	.st1{fill:#010101;}
</style>
<g id="_x35_2">
	<path d="M437.2,433.5c-46.3,46.4-110.4,75.1-181.1,75.1c-71.7,0-136.6-29.5-183.1-77c7.5-66.5,123.7-88.2,123.7-88.2
		s1.8-4.6,5.3-9.6c3.1-4.5,8-9.4,8-9.4v-15.8c0,0-0.2-0.2-0.5-0.5v-7.2c0,0-32.2-33.2-41.5-85.6c-0.7-5.8-1-11.9-1-18.1
		c0-33.1,10.1-56.6,26.1-71.7c16-15.2,38-22,61.9-22c47.7,0,88,27.5,88,93.8c0,12.8-1.6,24.7-4.1,35.7
		c-12.3,42.2-37.4,68.1-37.4,68.1v6c-1,1.1-1.6,1.7-1.6,1.7v15.8c0,0,4.9,4.9,8,9.4c3.5,5,5.3,9.6,5.3,9.6S431.5,365.6,437.2,433.5z
		"/>
	<path class="st0" d="M449.1,323C421.7,403.3,345.6,461,256,461c-112.7,0-204-91.3-204-204S143.3,53,256,53
		c25.2,0,49.3,4.5,71.5,12.9l19.2-48.4C318.5,6.8,287.9,1,256,1C114.6,1,0,115.6,0,257s114.6,256,256,256
		c118.6,0,218.3-80.6,247.4-190H449.1z"/>
	<path class="st1" d="M585.5,174.8c-2.8-7.5-7.7-14.7-14.9-21.7c-7.2-6.9-16.7-13.1-28.8-18.6l-21.3-9.5V72.9
		c12.1,1.3,19.1,10.2,20.8,26.6h38.7c0-16.5-5.4-29.9-16.1-40.1c-10.7-10.2-25.2-16.1-43.4-17.5v-9.5h-22.1v9.5
		c-16.9,1.3-30.6,7.2-40.9,17.4c-10.3,10.2-15.5,22.5-15.5,37c0,11.9,3.8,22.8,11.6,32.8c7.7,10,22.6,20.1,44.8,30.3v66.4
		c-6.8-1.8-12-5.4-15.8-10.8c-3.7-5.5-5.6-11.9-5.6-19.2c0-0.5,0-1.3,0.1-2.5h-38.7c1.6,22.1,7.9,37.9,18.9,47.2
		c11,9.4,24.7,15.1,41.1,17.3v12h22.1v-12.1c21.1-0.5,37.9-6.5,50.3-17.9c12.5-11.4,18.7-25.5,18.7-42.3
		C589.6,189.9,588.2,182.3,585.5,174.8z M498.5,115c-11.8-7-17.7-14.8-17.7-23.5c0-10.1,5.9-16.3,17.7-18.5V115z M542.7,219.6
		c-5.8,5.1-13.2,7.6-22.2,7.5v-58.2c20.6,7.9,30.8,18.8,30.8,32.4C551.4,208.4,548.5,214.4,542.7,219.6z"/>
</g>
</svg>
