<?xml version="1.0" encoding="utf-8"?>
<!-- Generator: Adobe Illustrator 21.1.0, SVG Export Plug-In . SVG Version: 6.00 Build 0)  -->
<svg version="1.1" id="_x33_2" xmlns="http://www.w3.org/2000/svg" xmlns:xlink="http://www.w3.org/1999/xlink" x="0px" y="0px"
	 viewBox="0 0 578 512" style="enable-background:new 0 0 578 512;" xml:space="preserve">
<g id="_x35_2">
	<g>
		<path d="M342.5,0.9H235.6V159h106.9V0.9z M289,81.4c-18.2,0-33-14.8-33-32.9c0-18.2,14.8-32.9,33-32.9c18.2,0,33,14.8,33,32.9
			C322,66.6,307.2,81.4,289,81.4z"/>
	</g>
	<path d="M556.4,103.6H357.2l0,71.1H219.9v-71.1H21.7C10.6,103.6,0,114.2,0,127.2v361.1c0,13,10.6,23.7,23.7,23.7h530.7
		c13,0,23.6-10.6,23.6-23.7V127.2C578,114.2,567.4,103.6,556.4,103.6z M526,460H52V155.6h153.8v33.9h165.4v-33.9H526V460z"/>
	<path d="M289,29.5c-10.5,0-19,8.5-19,18.9c0,10.4,8.5,18.9,19,18.9c10.5,0,19-8.5,19-18.9S299.5,29.5,289,29.5z"/>
	<rect x="296.3" y="381.2" width="199.9" height="43.2"/>
	<rect x="296.3" y="303.8" width="199.9" height="43.2"/>
	<rect x="296.3" y="226.4" width="199.9" height="43.2"/>
	<path d="M231,361.1c-11.9-5.7-26.6-10.8-26.6-10.8c0.6-3-4.8-8.4-6.8-10.3v-7.9c0,0,19.1-21,22-47.3c0.2-0.9,8.9-58.6-45.2-58.6
		c-54.3,0-45.7,57.6-45.6,58.6c1.4,13.2,7,25,12.1,33.5c5.1,8.6,9.9,13.8,9.9,13.8v8.2c-6,5.7-7.2,10.2-7.2,10
		c0,0-12.5,4.5-24.5,9.2c-12,4.7-39.7,14.5-39.7,41.2c0,37.8,95,35.2,95,35.2s94.8,3.2,94.8-35C269.1,372.6,242.9,366.9,231,361.1z"
		/>
</g>
</svg>
