<?xml version="1.0" encoding="utf-8"?>
<!-- Generator: Adobe Illustrator 21.1.0, SVG Export Plug-In . SVG Version: 6.00 Build 0)  -->
<svg version="1.1" id="Layer_5" xmlns="http://www.w3.org/2000/svg" xmlns:xlink="http://www.w3.org/1999/xlink" x="0px" y="0px"
	 viewBox="0 0 453.6 512" style="enable-background:new 0 0 453.6 512;" xml:space="preserve">
<g>
	<path d="M422.1,339.6c-16.6-14.8-36.6-23.1-51.3-29.2c-2.9-1.2-5.6-2.3-8.1-3.4l9.7-42.3c3.2-13.9,0.2-28.9-7.8-39
		c-5.6-7.1-13.3-11.5-21.7-12.3c2.9-10,4.8-20.3,5.8-30.8c2.2-1.2,4-2.5,5.6-3.8c15.4-3.3,28.1-7.3,37.8-11.8
		c23.6-11,28.5-25.6,28.5-35.9c0-6.6-2-16.3-11.8-25.3c-4.7-4.3-10.8-8.1-18.6-11.6c-9.6-4.2-21.9-8-36.7-11.1
		c-9.8-26.8-24.3-51-35.7-64.6C302.8,0.3,277.3-5.2,255.9,5l-12.5,6c-5.2-0.5-10.6-0.8-16.2-0.8c-4.6,0-9.1,0.2-13.4,0.5l-12-5.8
		c-21.4-10.3-46.9-4.8-62.1,13.5c-11.4,13.7-25.9,38-35.6,64.6C89.3,86.3,77,90,67.5,94.2c-7.8,3.5-13.9,7.2-18.6,11.6
		c-9.8,9-11.8,18.7-11.8,25.2c0,10.3,5,25,28.5,35.9c9.7,4.5,22.4,8.5,37.8,11.8c0.5,0.4,1.1,0.9,1.7,1.3c0.8,11.5,2.8,22.7,6,33.4
		c-8,1-15.5,5.4-20.9,12.2c-8,10.2-11,25.1-7.8,39l9.1,40c-14.1,5.6-34.1,14.4-51.6,28.2C13.8,353.7,0,381.2,0,412.4
		c0,19,7.6,36.6,21.9,50.7c23.3,22.9,65.5,38,125.6,44.9c39.8,4.6,74,4.1,79.4,3.9c1.6,0,5.6,0.1,11.5,0.1c14.3,0,39.5-0.5,67.5-3.7
		c59.9-6.7,102-21.6,125.4-44.4c14.5-14.2,22.2-31.9,22.2-51.2C453.6,383,443,358.3,422.1,339.6z M102.4,131c6.1-1.6,13.6-3.3,23-5
		l14-2.5l4-13.8c7-24.1,21.1-49.2,31.3-61.5c1.7-2,4.9-2.6,7.4-1.4l23.7,11.4l6.6-0.8c4.6-0.6,9.6-0.9,14.7-0.9
		c5.9,0,11.5,0.4,16.8,1.1l6.8,1l24.6-11.8c2.6-1.2,5.8-0.6,7.5,1.4c10.2,12.2,24.2,37.2,31.3,61.5l4,13.8l14,2.5
		c9.4,1.7,17,3.4,23.1,5c-3.1,0.8-18.7,7.3-27,9.1c-12.9,2.7-47.8,7.5-101.8,7.5c-47,0-79.6-3.5-95.7-6.3
		C120.3,137.5,106.2,132,102.4,131z M191.9,214.1c17.5,0,25.8-10.8,26.2-24.4c2.8,0,5.6,0,8.4,0c3.4,0,6.8,0,10.1,0
		c0.4,13.6,8.7,24.4,26.3,24.4c14.5,0,30.9-9.9,36.9-19c-9.7,38.6-38.8,66.8-73.1,66.8c-34.2,0-63.2-27.9-73-66.3
		c-0.7-2.9-1.3-5.9-1.8-8.9c0.4,0,0.8,0.1,1.2,0.1c-0.1,0.6-0.2,1.2-0.2,1.8C152.8,198.7,173.9,214.1,191.9,214.1z M407.8,412.8
		c0,6.8-2.5,12.4-8.3,18c-15.4,15-50.2,26.3-98.1,31.7c-39.2,4.4-73.5,3.3-73.8,3.3h-0.7h-0.7c-0.3,0-34.3,0.9-73.6-3.6
		c-48.4-5.6-83.5-17-98.9-32.1c-5.6-5.5-8.1-10.9-8.1-17.5c0-37.2,35.1-54,68-66.9l2.8-1.1c3-1.2,6-2.4,9-3.5l19.5-7.6L128,259.6
		h8.3c1.2,1.6,2.5,3.2,3.8,4.7c22.9,27.2,53.6,42.1,86.5,42.1s63.6-15,86.5-42.1c1.3-1.5,2.6-3.1,3.8-4.7h9.7l-17,74.3l17.4,7.7
		c4.2,1.9,8.3,3.7,11.9,5.5c4.4,2.2,9.3,4.2,14.5,6.3C385.4,366.4,407.9,378.4,407.8,412.8L407.8,412.8z"/>
	<path d="M279.4,316.1v30.7c0,4.2-3.9,7.2-7.9,6.2l-30.7-7.8c-2.9,4.8-8.2,8-14.2,8s-11.2-3.2-14.2-7.9L182,353c-4,1-7.9-2-7.9-6.2
		v-30.7c0-4.2,3.9-7.2,7.9-6.2l40,10.1c1.5-0.5,3-0.7,4.7-0.7s3.3,0.2,4.8,0.7l40.1-10.2C275.5,308.9,279.4,311.9,279.4,316.1z"/>
</g>
</svg>
