<?xml version="1.0" encoding="utf-8"?>
<!-- Generator: Adobe Illustrator 21.1.0, SVG Export Plug-In . SVG Version: 6.00 Build 0)  -->
<svg version="1.1" id="Layer_1" xmlns="http://www.w3.org/2000/svg" xmlns:xlink="http://www.w3.org/1999/xlink" x="0px" y="0px"
	 viewBox="0 0 590 512" style="enable-background:new 0 0 590 512;" xml:space="preserve">
<style type="text/css">
	.st0{display:none;}
	.st1{display:inline;}
</style>
<g id="_x35_2">
	<path d="M437.2,433.5c-46.3,46.4-110.4,75.1-181.1,75.1c-71.7,0-136.6-29.5-183.1-77c7.5-66.5,123.7-88.2,123.7-88.2
		s1.8-4.6,5.3-9.6c3.1-4.5,8-9.4,8-9.4v-15.8c0,0-0.2-0.2-0.5-0.5v-7.2c0,0-32.2-33.2-41.5-85.6c-0.7-5.8-1-11.9-1-18.1
		c0-33.1,10.1-56.6,26.1-71.7c16-15.2,38-22,61.9-22c47.7,0,88,27.5,88,93.8c0,12.8-1.6,24.7-4.1,35.7
		c-12.3,42.2-37.4,68.1-37.4,68.1v6c-1,1.1-1.6,1.7-1.6,1.7v15.8c0,0,4.9,4.9,8,9.4c3.5,5,5.3,9.6,5.3,9.6S431.5,365.6,437.2,433.5z
		"/>
	<path d="M449.1,323C421.7,403.3,345.6,461,256,461c-112.7,0-204-91.3-204-204S143.3,53,256,53c25.2,0,49.3,4.5,71.5,12.9l19.2-48.4
		C318.5,6.8,287.9,1,256,1C114.6,1,0,115.6,0,257s114.6,256,256,256c118.6,0,218.3-80.6,247.4-190H449.1z"/>
</g>
<g class="st0">
	<path class="st1" d="M590.2,141.5l-10.3,3.9l-100.7,34.3l-112.5-39.1l111.8-31.1L590.2,141.5z M479.2,188.1l52.9-18.4l2.7,11.9
		c0.1,0.4,0.2,0.9,0.3,1.3v0.3l0.1,0.3c0,0.2,0,0.3,0,0.4c0.2,0.5,0.3,1.2,0.4,2.1c0.1,0.8,0.2,1.4,0.3,1.9c0,1.7-2.5,4-7.3,6.9
		c-4.3,2.9-9.9,5.8-17,8.8c-6.9,2.9-13.4,5.4-19.6,7.3c-6.8,2.1-11.7,3.1-14.8,3.1c-3.2,0-7.8-0.9-13.8-2.8
		c-6-1.8-11.9-4.1-17.9-6.8c-6.3-2.9-11.4-5.8-15.4-8.7c-4.4-3.3-6.5-6.1-6.5-8.5v-0.4v-0.4c0-0.4,0-0.8,0-1.2
		c0-0.9,0.1-1.6,0.4-2.1l2.7-13l52.4,18H479.2z M582,143.7l0.4,6.4c1.2,0.2,2.4,0.8,3.3,1.7c1,1.3,1.5,2.6,1.5,3.7
		c0,1.2-0.4,2.4-1.1,3.5c-0.8,1-1.8,1.7-3.1,2.1l4.9,65.3l-6.8,19.6l-2.9-9.8l-1.5,6.8l-1.9-16.3v-0.4l4.4-65.3
		c-1-0.4-1.8-1.2-2.5-2.1c-0.8-1.1-1.2-2.2-1.2-3.5c0-1.2,0.4-2.4,1.2-3.7c1-1,2.2-1.6,3.7-1.7l0.3-7.2L582,143.7z"/>
</g>
<g>
	<path d="M527.4,163.5l-57.2,19.9H470l-56.6-19.5c0,0-6.2,35.1-6.6,39.8c-0.2,2.6,2.4,5.9,7.1,9.5c5.8,4.5,38.4,19.8,54.1,19.8
		c14.9,0,51.3-15.9,58.8-20.8c5.2-3.3,8-5.7,7.9-7.5C534.5,200.9,527.4,163.5,527.4,163.5z"/>
	<path d="M582.5,155.3l5.3,69.6l-7.4,21.2l-3.2-10.5l-1.6,7.4l-2-17.6V225l4.7-69.8c-2.8-1-4.8-3.6-4.8-6.7c0-3.6,2.7-6.6,6.2-7.1
		l0.2-4.5l-0.8,0.3l-108.9,37.1L348.7,132l120.9-33.6L590.2,133l-8.9,3.4l0.3,5c3.5,0.4,6.2,3.5,6.2,7.1
		C587.9,151.8,585.6,154.5,582.5,155.3z"/>
</g>
</svg>
