<?xml version="1.0" encoding="utf-8"?>
<!-- Generator: Adobe Illustrator 22.0.1, SVG Export Plug-In . SVG Version: 6.00 Build 0)  -->
<svg version="1.1" id="Layer_1" xmlns="http://www.w3.org/2000/svg" xmlns:xlink="http://www.w3.org/1999/xlink" x="0px" y="0px"
	 viewBox="0 0 590 512" style="enable-background:new 0 0 590 512;" xml:space="preserve">
<style type="text/css">
	.st0{fill-rule:evenodd;clip-rule:evenodd;}
	.st1{fill:#010101;}
</style>
<g id="_x35_2">
	<path d="M437.2,433.5c-46.3,46.4-110.4,75.1-181.1,75.1c-71.7,0-136.6-29.5-183.1-77c7.5-66.5,123.7-88.2,123.7-88.2
		s1.8-4.6,5.3-9.6c3.1-4.5,8-9.4,8-9.4v-15.8c0,0-0.2-0.2-0.5-0.5v-7.2c0,0-32.2-33.2-41.5-85.6c-0.7-5.8-1-11.9-1-18.1
		c0-33.1,10.1-56.6,26.1-71.7c16-15.2,38-22,61.9-22c47.7,0,88,27.5,88,93.8c0,12.8-1.6,24.7-4.1,35.7
		c-12.3,42.2-37.4,68.1-37.4,68.1v6c-1,1.1-1.6,1.7-1.6,1.7v15.8c0,0,4.9,4.9,8,9.4c3.5,5,5.3,9.6,5.3,9.6S431.5,365.6,437.2,433.5z
		"/>
	<path class="st0" d="M449.1,323C421.7,403.3,345.6,461,256,461c-112.7,0-204-91.3-204-204S143.3,53,256,53
		c25.2,0,49.3,4.5,71.5,12.9l19.2-48.4C318.5,6.8,287.9,1,256,1C114.6,1,0,115.6,0,257s114.6,256,256,256
		c118.6,0,218.3-80.6,247.4-190H449.1z"/>
	<path class="st1" d="M581.8,139.2l-23.4-4.9c-0.6-1.6-1.3-3.2-1.9-4.7l13-20c2.8-4.2,2.2-9.8-1.4-13.3l-23.7-23.7
		c-3.6-3.5-9.1-4.1-13.4-1.4l-20,13c-1.5-0.7-3.1-1.3-4.7-1.9l-4.9-23.4c-1-4.9-5.4-8.4-10.4-8.4h-33.5c-5,0-9.4,3.5-10.4,8.4
		l-4.9,23.5c-1.5,0.6-3.1,1.2-4.6,1.9l-20.2-13.1c-4.2-2.8-9.8-2.2-13.3,1.4l-23.7,23.7c-3.5,3.6-4.1,9.1-1.4,13.3l13.1,20.2
		c-0.7,1.5-1.3,3-1.9,4.5l-23.6,5c-4.9,1-8.4,5.4-8.4,10.4v33.5c0,5,3.5,9.4,8.4,10.4l23.6,5c0.6,1.5,1.2,3,1.9,4.4L379,223.2
		c-2.8,4.2-2.2,9.8,1.4,13.3l23.7,23.7c3.6,3.5,9.1,4.1,13.4,1.4l20.2-13.1c1.5,0.7,3,1.3,4.5,1.9l5,23.6c1,4.9,5.4,8.4,10.4,8.4
		H491c5,0,9.4-3.5,10.4-8.4l4.9-23.5c1.5-0.6,3.1-1.2,4.6-1.9l20.1,13.1c4.2,2.8,9.8,2.2,13.4-1.4l23.7-23.7
		c3.5-3.5,4.1-9.1,1.4-13.3l-13-20c0.7-1.5,1.3-3.1,1.9-4.7l23.4-4.9c4.9-1,8.4-5.4,8.4-10.4v-33.5
		C590.2,144.6,586.7,140.3,581.8,139.2z M474.3,226.9c-33.4,0-60.5-27.1-60.5-60.5s27.1-60.5,60.5-60.5s60.5,27.1,60.5,60.5
		S507.7,226.9,474.3,226.9z"/>
	<circle class="st1" cx="474.3" cy="166.3" r="36.3"/>
</g>
</svg>
