<?xml version="1.0" encoding="utf-8"?>
<!-- Generator: Adobe Illustrator 21.1.0, SVG Export Plug-In . SVG Version: 6.00 Build 0)  -->
<svg version="1.1" id="_x35_2" xmlns="http://www.w3.org/2000/svg" xmlns:xlink="http://www.w3.org/1999/xlink" x="0px" y="0px"
	 viewBox="0 0 464.6 512" style="enable-background:new 0 0 464.6 512;" xml:space="preserve">
<g>
	<path d="M390.5,334.6c0.4,1.5,0.8,3.1,1.2,4.7l0.2,0.7l0,0.7c-0.2,7.1-1.8,15-4.9,23.5c13.9,6.8,22.9,20.9,22.9,36.6
		c0,3.4-0.4,6.6-1.2,9.8v0c3.2,5.4,3.9,10.3,3.9,15c-1,1.3-31.3,34.4-180.3,34.4c-13,0-25.2-0.2-36.4-0.7c-0.7,0.4-1.5,1-2.1,1.4
		c0.4,3,0.7,8.3-2.7,12.3c-2.4,2.8-5.9,4.3-10.6,4.5c-4.3,0.2-8.7-1.6-11.5-4.8c-2.6-2.8-3.7-6.5-3.1-10.4c0.3-1.9,0.7-3.4,1.3-4.8
		c-31.9-2.5-55.2-6.8-72.2-11.5c0.3,0.3,0.5,0.6,0.8,0.8c0.7,0.7,1.4,1.5,2.1,2.3c5.1-0.5,9.2,0.4,12.2,2.9c2.1,1.7,4.6,5,4.6,11
		c0,5.6-2.2,8.9-4.1,10.7c-3.5,3.4-7.9,3.7-9.2,3.8c-0.2,0-0.3,0-0.5,0c-4.2,0-8.9-2.6-11.6-6.5c-1.5-2.2-3.6-6.6-2-12.7
		c-0.6-0.5-1.2-1-1.7-1.4c-1.6-1.3-3.3-2.7-4.7-4l-1.5-1.4l-0.1-2c-0.1-2-0.1-4.2-0.1-8.4c-20.8-7.7-26.6-14.9-27.1-15.5
		c0.1-8.1,2.1-17,15.6-27.7c4.2-3.3,16-9,30.3-15.2c10.8-14.2,23.1-20.4,29.2-22.3c0.7-11.8-6.6-19.1-12.6-25.1
		c-3-3-5.6-5.6-6.9-8.6c-0.5-1.1-1.1-2.7-1.6-4.8c-3,1.2-6.1,2.3-9.1,3.5C67.7,336.8,0,360.7,0,426c0,81,178.3,86,222.3,86h20
		c44,0,222.3-5,222.3-86C464.6,374.6,422.6,348.8,390.5,334.6z M174.5,258.6v20c-14.7,13.9-17.5,23.7-17.7,24.3
		c0,0-11.3,4.1-26.8,9.9c-0.8,1.3-1.6,2.8-2.5,4.4l-0.3,0.4c-0.1,0.1-0.1,0.2-0.2,0.3c0.5,0.9,2.6,2.7,4.1,4.1
		c6.7,5.9,17.7,15.5,19,37.3c0.9,0.2,1.8,0.5,2.6,0.8c12.7-5,21.7-8.4,21.8-8.4l22.5-8.2l8.1-21.7c0.7-0.9,21.3-20.9,21.3-20.9
		l0.4-62.4c-25.3-23.4-54.5-74-54.5-102.7c0-32.8-4.7-84,59.4-84h1c64.2,0,59.4,49.2,59.4,84c0,25.2-24,73.4-54.5,102.7l0.4,62.4
		c0,0,20.6,20,21.3,20.9l8.1,21.7l22.5,8.2c0.1,0.1,24.6,9.4,50.3,19.9c6.8-6.7,15.9-11,26-11.6c3.4-10.7,4.2-19.3,2.3-25.1
		c-1.3-3-2.2-6.4-2.9-10.2c-28.7-11.2-58-21.8-58-21.8c-0.2-0.6-3-10.4-17.7-24.3v-20c0,0,46.5-51.2,53.6-115.6
		C344,140.6,364.8,0.5,232.8,0h-1c-132,0.5-111.2,140.6-110.9,143.1C128,207.4,174.5,258.6,174.5,258.6z"/>
	<path d="M397,397.9c-6.6-5.2-32.1-16.3-56.6-26.3c-7.6,7.4-12.3,17.8-12.3,29.2c0,22.5,18.3,40.9,40.9,40.9
		c19.2,0,35.3-13.3,39.7-31.1v0C406.4,406.6,402.7,402.4,397,397.9z M369,416.4c-8.6,0-15.6-7-15.6-15.6c0-8.6,7-15.6,15.6-15.6
		c8.6,0,15.6,7,15.6,15.6C384.6,409.4,377.6,416.4,369,416.4z"/>
	<path d="M204.2,449.4c-0.1,4.6-4.4,7.3-8.1,9.7c-0.1,0-0.1,0.1-0.2,0.1c-10.3-0.4-19.9-1-28.8-1.7c1.8-4.1,4.8-6.1,6.7-7
		c3.5-1.6,7.4-1.5,10.5-0.7c1.7-1.6,3.9-3.7,4.7-4.8c0.4-16.5-6.9-42-21.8-57.5c-8.1-8.4-17.2-12.7-27-12.7
		c-23.9,0-43.3,29.2-46.6,69.7c0.4,0.4,0.9,1,1.4,1.5c-6-1.6-11.2-3.3-15.7-5c0-1.8,0-4,0.1-6.6l0-0.6l0.1-0.7
		C80.8,421.3,83,403.3,97,384c0.3-0.4,0.6-0.9,1-1.3c17.6-7.7,39.1-16.3,54.8-22.5C194.8,373.5,204.9,421.9,204.2,449.4z"/>
	<polygon points="300.8,358.6 272.9,358.6 272.9,381.9 249.7,381.9 249.7,409.9 273,409.9 273,433.2 300.9,433.2 300.9,409.9 
		324,409.9 324,381.9 300.8,381.9 	"/>
</g>
</svg>
