<?xml version="1.0" encoding="utf-8"?>
<!-- Generator: Adobe Illustrator 21.1.0, SVG Export Plug-In . SVG Version: 6.00 Build 0)  -->
<svg version="1.1" id="Layer_1" xmlns="http://www.w3.org/2000/svg" xmlns:xlink="http://www.w3.org/1999/xlink" x="0px" y="0px"
	 viewBox="0 0 463.6 512" style="enable-background:new 0 0 463.6 512;" xml:space="preserve">
<path d="M367.1,325.5C337.8,314,307.3,303,307.3,303c-0.2-0.6-3-10.4-17.7-24.3v-20c0,0,46.5-51.2,53.6-115.6
	c0.1-1.2,4.8-32.7-4-65.9L415.8,55l1.5-0.4l-0.2,6.5c-6.1,0.4-10.6,4.9-10.6,10c0,4.6,3.7,8.2,8.4,9.7l-7.9,99.1v0.6l3.4,25.1
	l2.7-10.4l5.1,15l12.5-30.2l-8.8-99.1c5.4-1.1,8.8-4.9,8.4-9.7c0-5.1-4.4-9.5-10.3-10l-0.5-7l15-4.9L231.8,0L28.9,47.6l95.8,28.2
	c-9.3,33.6-4.5,66-4.3,67.2c7.1,64.4,53.6,115.6,53.6,115.6v20c-14.7,13.9-17.5,23.7-17.7,24.3c0,0-30.5,11.1-59.8,22.5
	c-29.3,11.4-97,35.3-97,100.6c0,81,178.3,86,222.3,86h20c44,0,222.3-5,222.3-86C464.1,360.8,396.4,336.8,367.1,325.5z M412.2,425.7
	c-1.1,1.3-26.8,34.4-180.4,34.4C80.9,460,52.7,427,51.7,425.7c-6.3-32.7,81.5-63.3,123.4-75.9c13.7-4.1,24.7-14.4,29.7-27.8
	c0.4-0.5,0.9-1.2,1.7-2.1c0.8-0.9,1.9-2.1,3.3-3.4l16.3-15.4l0.3-51.8c0-6.6-2.3-13-6.5-18.1c-9.1-10.8-25.8-32.4-37.7-58.3
	c-5.1-11.1-9.2-26.4-10.6-42.3c18.8,5,43.8,10.4,58.6,10.4c14.1,0,41.1-5.6,62.1-10.9c-1.4,16.6-5.6,32.2-10.1,42.7
	c-10.1,23.9-28.3,46.8-38.1,58.3c-4.3,5.1-6.7,11.5-6.7,18.2l0.3,51.8l16.3,15.4c2.8,2.7,4.4,4.6,5,5.5l0,0.1
	c5,13.4,15.9,23.6,29.5,27.8C330.1,362.4,416.6,392.9,412.2,425.7z"/>
</svg>
