<?xml version="1.0" encoding="utf-8"?>
<!-- Generator: Adobe Illustrator 22.0.1, SVG Export Plug-In . SVG Version: 6.00 Build 0)  -->
<svg version="1.1" id="Layer_1" xmlns="http://www.w3.org/2000/svg" xmlns:xlink="http://www.w3.org/1999/xlink" x="0px" y="0px"
	 viewBox="0 0 590 512" style="enable-background:new 0 0 590 512;" xml:space="preserve">
<style type="text/css">
	.st0{fill-rule:evenodd;clip-rule:evenodd;}
	.st1{fill:#010101;}
</style>
<g id="_x35_2">
	<path d="M437.2,433.5c-46.3,46.4-110.4,75.1-181.1,75.1c-71.7,0-136.6-29.5-183.1-77c7.5-66.5,123.7-88.2,123.7-88.2
		s1.8-4.6,5.3-9.6c3.1-4.5,8-9.4,8-9.4v-15.8c0,0-0.2-0.2-0.5-0.5v-7.2c0,0-32.2-33.2-41.5-85.6c-0.7-5.8-1-11.9-1-18.1
		c0-33.1,10.1-56.6,26.1-71.7c16-15.2,38-22,61.9-22c47.7,0,88,27.5,88,93.8c0,12.8-1.6,24.7-4.1,35.7
		c-12.3,42.2-37.4,68.1-37.4,68.1v6c-1,1.1-1.6,1.7-1.6,1.7v15.8c0,0,4.9,4.9,8,9.4c3.5,5,5.3,9.6,5.3,9.6S431.5,365.6,437.2,433.5z
		"/>
	<path class="st0" d="M449.1,323C421.7,403.3,345.6,461,256,461c-112.7,0-204-91.3-204-204S143.3,53,256,53
		c25.2,0,49.3,4.5,71.5,12.9l19.2-48.4C318.5,6.8,287.9,1,256,1C114.6,1,0,115.6,0,257s114.6,256,256,256
		c118.6,0,218.3-80.6,247.4-190H449.1z"/>
	<path class="st1" d="M582.1,111.3c0,0-4.9-20.6-16.9-34.9c-1.4-1.4-3-2.7-4.6-3.9c2.4-3,4.5-6.1,6.2-9.3c7.1-13.6,11-28.8,8.6-40.9
		c-3.1-16-9-22.6-16.3-21.2c-8.8,2-12.5,12.3-14.5,18.2c-2.3,6.9-2.7,22.2-0.5,33.7c1.4,8.3,2.9,13.2,0.6,20.3
		c-1.8,6.2-5.1,12.9-10.3,18.4c-5.2,5.5,1,6.4,6,2.2c4.8-4.9,9.4-9.4,13.5-13.7c1.1,0.9,2.1,1.9,2.8,2.9c3.9,7,5.1,17,0.3,25.4
		c-6.2,10.8-20.5,14.9-31.6,8.4c-11.1-6.4-14.9-20.6-8.5-31.7c5.5-9.5,13.7-12.3,22.1-12.4c0.9,0,2.5,0.1,2.5,0.1s0.9-1.5,1.3-4.3
		c0.4-2.4,0.4-6.1,0.4-6.1s-2.1-0.5-2.6-0.6c-18.4-3.3-38.7,2.7-38.7,2.7s-31.9,3.8-39,16l-64.2,111.4c-4.5,7.8-1.6,18.3,6.1,22.9
		l95.8,55.4c8,4.6,18.2,1.9,22.8-6.1l64.2-111.3C594.7,140.9,582.1,111.3,582.1,111.3z M539.3,91.5c-4.2,4.2-3.6,2-1-0.3
		c5-6.1,7.7-10.3,9.6-16.6c2.3-7.2,1.5-15.9-0.2-24.4c-1.8-10.8-0.4-23.5,2.1-31.3c2.7-8.2,8.1-15.4,11.6-13.8
		c8.4,3.9,16.8,29.8,2.1,55.7c-1.8,3.2-3.8,6.4-6,9.6c-3.3-2.1-6.1-3.5-6.1-3.5c0,2.1-0.1,6.6-1.8,10.3c-0.1,0.1,0.7,0.5,1.9,1.2
		C547.9,83.3,544.3,86.3,539.3,91.5z"/>
</g>
</svg>
