<?xml version="1.0" encoding="utf-8"?>
<!-- Generator: Adobe Illustrator 22.0.1, SVG Export Plug-In . SVG Version: 6.00 Build 0)  -->
<svg version="1.1" id="Layer_1" xmlns="http://www.w3.org/2000/svg" xmlns:xlink="http://www.w3.org/1999/xlink" x="0px" y="0px"
	 viewBox="0 0 590 512" style="enable-background:new 0 0 590 512;" xml:space="preserve">
<style type="text/css">
	.st0{fill-rule:evenodd;clip-rule:evenodd;}
	.st1{fill:#010101;}
</style>
<g id="_x35_2">
	<path d="M437.2,433.5c-46.3,46.4-110.4,75.1-181.1,75.1c-71.7,0-136.6-29.5-183.1-77c7.5-66.5,123.7-88.2,123.7-88.2
		s1.8-4.6,5.3-9.6c3.1-4.5,8-9.4,8-9.4v-15.8c0,0-0.2-0.2-0.5-0.5v-7.2c0,0-32.2-33.2-41.5-85.6c-0.7-5.8-1-11.9-1-18.1
		c0-33.1,10.1-56.6,26.1-71.7c16-15.2,38-22,61.9-22c47.7,0,88,27.5,88,93.8c0,12.8-1.6,24.7-4.1,35.7
		c-12.3,42.2-37.4,68.1-37.4,68.1v6c-1,1.1-1.6,1.7-1.6,1.7v15.8c0,0,4.9,4.9,8,9.4c3.5,5,5.3,9.6,5.3,9.6S431.5,365.6,437.2,433.5z
		"/>
	<path class="st0" d="M449.1,323C421.7,403.3,345.6,461,256,461c-112.7,0-204-91.3-204-204S143.3,53,256,53
		c25.2,0,49.3,4.5,71.5,12.9l19.2-48.4C318.5,6.8,287.9,1,256,1C114.6,1,0,115.6,0,257s114.6,256,256,256
		c118.6,0,218.3-80.6,247.4-190H449.1z"/>
	<path class="st1" d="M436.2,50c3.8,5.3,7.9,10.2,12.5,14.6c11.8,0,65.2,0,79.8,0c0.8,0.1,14.5-16,18.8-25.2c1.8-3.9,3-8.5,2.2-12.9
		c-3.1-11.6-14.9-9.7-18.9-9c-10,2.3-13.6,4.2-24.1,8.5c-3.8,1.5-6.4-6.5-16.9-6.6c-9.4-0.1-12,8.6-15.5,7
		C464.2,22,446.8,16,438,17.2c-3.7,0.6-12.4,4-10.3,15.9C429.2,39.4,432.6,45,436.2,50z M588.3,211.8c-0.9-30.1-26.1-88-59.6-115.6
		c-7.1,0-60.6,0-80.1,0c-33,26.3-51.7,75.2-56.9,99.7c-2.2,9.9-3.7,20.1-3.5,30.3c0.2,7.4,1.3,15.1,4.5,21.7
		c3.9,8.3,11.2,14,19,17.1c12.9,5,26.9,5.5,40.4,5.9c11.2,0,72.3,0.7,91-0.9c9.8-1,19.9-2.8,28.6-7.9c6.6-3.9,11.9-10.3,14.4-18
		C589.7,233.7,589.5,222.5,588.3,211.8z M523.8,72.5h-70.3c-4.4,0-7.9,3.6-7.9,7.9l0,0c0,4.4,3.6,7.9,7.9,7.9h70.3
		c4.4,0,7.9-3.6,7.9-7.9l0,0C531.7,76,528.1,72.5,523.8,72.5z"/>
</g>
</svg>
