<?xml version="1.0" encoding="utf-8"?>
<!-- Generator: Adobe Illustrator 21.1.0, SVG Export Plug-In . SVG Version: 6.00 Build 0)  -->
<svg version="1.1" id="Layer_1" xmlns="http://www.w3.org/2000/svg" xmlns:xlink="http://www.w3.org/1999/xlink" x="0px" y="0px"
	 viewBox="0 0 590 512" style="enable-background:new 0 0 590 512;" xml:space="preserve">
<style type="text/css">
	.st0{fill:#010101;}
</style>
<g id="_x35_2">
	<path d="M503.4,323C474.3,432.4,374.6,513,256,513C114.6,513,0,398.4,0,257S114.6,1,256,1c31.9,0,62.5,5.8,90.7,16.5l-19.2,48.4
		C305.3,57.5,281.2,53,256,53C143.3,53,52,144.3,52,257c0,49.3,17.5,94.6,46.7,129.9c36.4-32,98-43.5,98-43.5s1.8-4.6,5.3-9.6
		c3.1-4.5,8-9.4,8-9.4v-15.8c0,0-0.2-0.2-0.5-0.5v-7.2c0,0-32.2-33.2-41.5-85.6c-0.7-5.8-1-11.9-1-18.1c0-33.1,10.1-56.6,26.1-71.7
		c16-15.2,38-22,61.9-22c47.7,0,88,27.5,88,93.8c0,12.8-1.6,24.7-4.1,35.7c-12.3,42.2-37.4,68.1-37.4,68.1v6c-1,1.1-1.6,1.7-1.6,1.7
		v15.8c0,0,4.9,4.9,8,9.4c3.5,5,5.3,9.6,5.3,9.6s63,11.7,99.2,44.4c16-19,28.5-41,36.7-65H503.4z"/>
	<polygon class="st0" points="590,119.1 513.5,119.1 513.5,42.7 444.9,42.7 444.9,119.1 368.4,119.1 368.4,187.8 444.9,187.8 
		444.9,264.3 513.5,264.3 513.5,187.8 590,187.8 	"/>
</g>
</svg>
