<?xml version="1.0" encoding="utf-8"?>
<!-- Generator: Adobe Illustrator 21.1.0, SVG Export Plug-In . SVG Version: 6.00 Build 0)  -->
<svg version="1.1" id="Layer_1" xmlns="http://www.w3.org/2000/svg" xmlns:xlink="http://www.w3.org/1999/xlink" x="0px" y="0px"
	 viewBox="0 0 462.1 512" style="enable-background:new 0 0 462.1 512;" xml:space="preserve">
<path d="M457.6,410.3c-13.8-42.6-64.3-82.1-153.3-106.5c0,0-2.3-5.1-6-10.7c-4.5-6.8-10.5-14.3-10.5-14.3v-19c0,0,1.2-0.9,3.2-2.8
	c0,0,0,0,0.1-0.1c6-5.4,19.2-18.6,30.5-37.5c8.7-14.6,16.2-32.6,18.5-53.2c1.2-6.1,2.2-12.1,2.8-17.9c0.1,0,0.2-0.1,0.3-0.1
	c12.2-4.7,6.4,10.7,6.6,20.4c0,0,1.3,36.3,24.3,71c3.9,5.8,19.2,14.7,17.2,3.1c-4.3-7.4-3.5-21,0-27c0.2-3.8,0.2-7.7,0.3-11.5
	c-0.2-5.4-1.4-15.8,4.5-8.3c3.8,4.3,29.7,36.5,46.9,21.5c-14.6-21.5-20-73.7-55.4-92.6c-3.3-1.8-7.6-3.2-12.6-4
	c-3.2-0.5-7.4-0.2-9.5-3.1c-1.7-2-2.9-4.2-4.6-6c-3.5-0.5-15.5,0.8-16.9-3.4c-0.3-2.3-1.1-6.8-1.5-9.1h-0.2c-0.1,0-0.3,0-0.4,0
	c-10-56.4-50.3-92.5-101.5-96.3c-0.1,0-0.2,0-0.3,0h-0.1c-2.8-0.2-15-0.2-17.9,0c-0.1,0-0.3,0-0.4,0c-49.7,3.6-89.2,37.8-100.6,91.6
	c-0.1,0-0.3,0-0.4,0c-3.6,17.3-4.3,36.6-1.5,57.6c0.1,0,0.2,0,0.3,0c0.6,4.7,1.4,9.4,2.4,14.2c2.2,20.6,9.8,38.6,18.5,53.2
	c11.4,17.9,24.4,31.5,30.4,37.4c2.1,2.1,3.4,3.2,3.4,3.2v18.8c0,0-6.2,7.5-11,14.3c-4,5.7-6.6,10.9-6.6,10.9
	C71.8,326.3,21.7,364.6,6.1,405.8c-7.8,21.3-5.1,36-4.4,39.4c9.9,55,96.2,64.7,200.9,65.9c9.3,0.1,18.7,0.1,28.3,0.1
	c9.7,0,19.3,0,28.7-0.1c104.8-1.2,191-10.8,200.8-65.9C461.3,441.2,462.9,425.6,457.6,410.3z M232.5,54.5c30.5,0,49,19.1,56.4,45.3
	c-37.4-0.4-80.3-2-114.3-3.4C182.9,71.8,202,54.5,232.5,54.5z M409.1,435.8c-17.6,15.1-65.8,23.3-178.3,23.3
	c-74.7,0-157.5-3.3-177.9-23.2c-2-8.2,8.5-58.4,139.8-87.1c0,0,11.3-21.2,15.9-28.2c3.7-5.7,17.5-22.9,17.5-22.9l0.4-60.9
	c-28.9-20.7-46.9-52.1-53.6-83c39.9,0.1,84-1.5,117.7-3c-5.9,33.2-24.5,66.4-54.7,83.4v62.8c0,0,13.2,17.7,16.8,23.6
	c4.1,6.7,13.9,26.8,13.9,26.8C406.2,381.4,410.9,430.6,409.1,435.8z"/>
</svg>
