<?xml version="1.0" encoding="utf-8"?>
<!-- Generator: Adobe Illustrator 21.1.0, SVG Export Plug-In . SVG Version: 6.00 Build 0)  -->
<svg version="1.1" id="Shape_1_1_" xmlns="http://www.w3.org/2000/svg" xmlns:xlink="http://www.w3.org/1999/xlink" x="0px" y="0px"
	 viewBox="0 0 512 512" style="enable-background:new 0 0 512 512;" xml:space="preserve">
<g id="_x35_2">
	<path d="M13.2,482H52V30H13.2C5.9,30,0,35.9,0,43.2v425.5C0,476.1,5.9,482,13.2,482z"/>
	<path d="M460,30v452h38.8c7.3,0,13.2-5.9,13.2-13.2V43.2c0-7.3-5.9-13.2-13.2-13.2H460z"/>
	<polygon points="122.2,84.9 84.9,122.2 218.8,255.9 84.9,389.8 122.2,427.1 256.1,293.3 389.8,427.1 427.1,389.8 293.3,255.9 
		427.1,122.2 389.8,84.9 256.1,218.8 	"/>
</g>
</svg>
