<?xml version="1.0" encoding="utf-8"?>
<!-- Generator: Adobe Illustrator 21.1.0, SVG Export Plug-In . SVG Version: 6.00 Build 0)  -->
<svg version="1.1" id="Layer_1" xmlns="http://www.w3.org/2000/svg" xmlns:xlink="http://www.w3.org/1999/xlink" x="0px" y="0px"
	 viewBox="0 0 673 512" style="enable-background:new 0 0 673 512;" xml:space="preserve">
<style type="text/css">
	.st0{fill:#0F0E0E;}
</style>
<g>
	<path class="st0" d="M509.7,365.6c-40.2,0-72.7,32.6-72.7,72.7s32.6,72.7,72.7,72.7s72.7-32.6,72.7-72.7S549.8,365.6,509.7,365.6z
		 M509.7,473.9c-19.7,0-35.6-15.9-35.6-35.6s15.9-35.6,35.6-35.6s35.6,15.9,35.6,35.6S529.3,473.9,509.7,473.9z"/>
	<path class="st0" d="M149.4,365.6c-40.2,0-72.7,32.6-72.7,72.7s32.6,72.7,72.7,72.7s72.7-32.6,72.7-72.7
		C222.1,398.2,189.6,365.6,149.4,365.6z M149.4,473.9c-19.7,0-35.6-15.9-35.6-35.6s15.9-35.6,35.6-35.6s35.6,15.9,35.6,35.6
		S169.1,473.9,149.4,473.9z"/>
	<path class="st0" d="M650.1,390.5c0-0.7,0.8-143.2,0.6-146s-0.5-7.2-1-13.2s-1.3-10.6-2.5-13.9c-1.2-3.3-2.9-7-5.1-11.2
		c-2.3-4.1-5.1-7.8-8.3-11.2l-72.4-73.4c-4.9-5-11.2-9.1-18.9-12.4s-14.8-5-21.3-5H462V24.8c0-6.3-2.3-11.8-6.8-16.6
		S445.1,1,438.6,1H32.3c-6.5,0-12.1,2.4-16.7,7.2S8.8,18.5,8.8,24.8L9,421.4c-5,0-9,3-9,7.9s4,9,9,9h46.8
		c0-54.8,44.1-93.6,93.6-93.6c49.6,0,93.6,40.6,93.6,93.6c131.9,0,173-0.1,173-0.1c0-41.1,31.6-93.5,93.6-93.5
		c59.3,0,93.4,50.4,93.4,93.5c0,0,34.6,0.1,47.1,0.1s22.9-12.6,22.9-24.9S662.1,390.5,650.1,390.5z M374.2,386.5
		c-4.4,0-86.5,0.1-89.3,0c-19.8-50.7-69.6-93.6-135.5-93.6c-18.6,0-64.9,7.2-88.7,30.9c0-10.5,0-270.9,0-270.9H410
		c0,0,1,183.3,1,200.2c0,17,15.9,45.8,48.8,45.8h9C458.1,303.1,401.9,315.7,374.2,386.5z M599.3,324.7c-2.7-2.4-24.4-21-52.8-25.9
		c0.6-0.1,52.8,0,52.8,0S599.3,323.7,599.3,324.7z M620.2,247.7H462.1V135.6h58.3c7.2,0,12.3,0.9,15.2,2.7v6.6l-1.9-0.9l-1,1
		c-0.3,1-0.5,2.2-0.5,3.5s0.2,2.5,0.5,3.5l1,1l5.9,3.5c0.3,0,0.6-0.5,1-1.5c0.3-1,0.5-2,0.5-3c0-1.3-0.2-2.5-0.5-3.5
		c-0.3-0.7-1.1-1.5-2.4-2.5l-1.5-0.7V139l79.8,89.3c2.6,2.3,3.9,5.1,3.9,8.4v11H620.2z"/>
	<path class="st0" d="M226.2,63c11.2,15.8,17.8,35.1,17.8,56c0,53.6-43.4,97-97,97c-30.8,0-58.3-14.4-76.1-36.8c0,2.7,0,62.9,0,66.8
		c22.2,13.4,48.3,21,76.1,21c81.7,0,148-66.3,148-148c0-19.8-3.9-38.7-11-56C283.5,63,227.1,63,226.2,63z"/>
	<polygon class="st0" points="172.1,126.9 204.2,158.9 181.7,181.4 149.7,149.4 117.6,181.4 95.1,158.9 127.2,126.9 95.1,94.9 
		117.6,72.4 149.7,104.4 181.7,72.4 204.2,94.9 	"/>
</g>
</svg>
