<?xml version="1.0" encoding="utf-8"?>
<!-- Generator: Adobe Illustrator 21.1.0, SVG Export Plug-In . SVG Version: 6.00 Build 0)  -->
<svg version="1.1" id="Layer_1" xmlns="http://www.w3.org/2000/svg" xmlns:xlink="http://www.w3.org/1999/xlink" x="0px" y="0px"
	 viewBox="0 0 328 512" style="enable-background:new 0 0 328 512;" xml:space="preserve">
<path d="M328,164C328,73.4,254.5,0,164,0C73.4,0,0,73.4,0,164c0,81.7,59.8,149.5,138,162v62H46v52h92v72h52v-72h92v-52h-92v-62
	C268.3,313.5,328.1,245.8,328,164z M52,164c0-61.9,50.1-112,112-112s112,50.2,112,112c0,61.9-50.1,112-112,112
	C102.2,276,52,225.8,52,164z"/>
</svg>
