<?xml version="1.0" encoding="utf-8"?>
<!-- Generator: Adobe Illustrator 21.1.0, SVG Export Plug-In . SVG Version: 6.00 Build 0)  -->
<svg version="1.1" id="Layer_1" xmlns="http://www.w3.org/2000/svg" xmlns:xlink="http://www.w3.org/1999/xlink" x="0px" y="0px"
	 viewBox="0 0 550 512" style="enable-background:new 0 0 550 512;" xml:space="preserve">
<g>
	<path d="M220,352c-40,0-72.5-32.5-72.5-72.5c0-26.5,14.2-49.8,35.5-62.3c2.5-20.2,10-45.8,16.2-56.1
		c-56.5,9.8-99.4,59.1-99.4,118.4c0,22.6,6.2,43.8,17.2,61.9l-21.7,21.4l-54.9-54.9L6.6,341.6l54.7,54.7l-61.5,60.9l33.8,33.8
		l61.2-61.2l54.3,54.3l33.8-33.8l-54.3-54.3l19.9-19.9c20,14.9,44.8,23.6,71.6,23.6c24,0,46.4-7.1,65.3-19.2
		c-16.8-4.4-44.4-23.5-50.9-29.9C229.7,351.5,224.9,352,220,352z"/>
	<path d="M550,20.2l-136.4,0.1v47.9h54.5l-64,64c-18.7-12-40.9-18.9-64.8-18.9c-66.4,0-120.2,53.9-120.2,120.2
		s53.8,120.2,120.2,120.2s120.2-53.9,120.2-120.2c0-25.5-8-49.2-21.6-68.8l63.9-62.8l0.6,56H550V20.2z M339.3,306.1
		c-40,0-72.5-32.5-72.5-72.5s32.5-72.5,72.5-72.5s72.5,32.5,72.5,72.5S379.4,306.1,339.3,306.1z"/>
</g>
</svg>
