<?xml version="1.0" encoding="utf-8"?>
<!-- Generator: Adobe Illustrator 21.1.0, SVG Export Plug-In . SVG Version: 6.00 Build 0)  -->
<svg version="1.1" id="Layer_4" xmlns="http://www.w3.org/2000/svg" xmlns:xlink="http://www.w3.org/1999/xlink" x="0px" y="0px"
	 viewBox="0 0 574 512" style="enable-background:new 0 0 574 512;" xml:space="preserve">
<g>
	<path d="M574,136.1c-0.9-21.7-19.2-36.7-38.9-36.7c-6.5,0-13.2,1.6-19.4,5.2l-88,61.7h-25.4v-56.5c0-24.3-19.7-43.9-44-43.9H43.9
		C19.7,65.9,0,85.6,0,109.8v293.7c0,24.3,19.7,43.9,43.9,43.9h314.3c24.3,0,44-19.7,44-43.9v-51h25.4l89.8,55.8
		c5.7,2.9,11.8,4.2,17.7,4.2c16,0,31.2-9.8,36.7-26c1.4-4.2,2.2-8.8,2.2-13.5V137.9C574,137.3,574,136.7,574,136.1z M350.2,395.5H52
		V117.9h298.2V395.5z M522,349.9l-66.9-41.6l-9.9-6.1v-84.7l12.3-8.7l64.5-45.2V349.9z"/>
	<polygon points="306.9,230.7 306.9,282.7 227,282.7 227,362.7 175,362.7 175,282.7 95,282.7 95,230.7 175,230.7 175,150.7 
		227,150.7 227,230.7 	"/>
</g>
</svg>
