<?xml version="1.0" encoding="utf-8"?>
<!-- Generator: Adobe Illustrator 21.1.0, SVG Export Plug-In . SVG Version: 6.00 Build 0)  -->
<svg version="1.1" id="Layer_4" xmlns="http://www.w3.org/2000/svg" xmlns:xlink="http://www.w3.org/1999/xlink" x="0px" y="0px"
	 viewBox="0 0 574 512" style="enable-background:new 0 0 574 512;" xml:space="preserve">
<g>
	<path d="M350.2,389.8v5.1H52V125.1L7.1,85.3c-4.5,6.9-7.1,15.1-7.1,24V403c0,24.3,19.7,43.9,43.9,43.9h314.3
		c14.7,0,27.7-7.2,35.7-18.3L350.2,389.8z M34.5,66.3c-0.2,0-0.3,0.1-0.5,0.1l57.3,50.9h0.5L34.5,66.3z"/>
	<path d="M574,135.5c-0.9-21.7-19.2-36.7-38.9-36.7c-6.5,0-13.2,1.6-19.4,5.2l-88,61.7h-25.4v-56.5c0-24.3-19.7-43.9-44-43.9H111.5
		l-66-58.7c-4.9-4.4-11.1-6.5-17.2-6.5C21.7,0.1,15,2.7,10,7.7c-10.6,10.6-10,27.9,1.1,37.8l23.4,20.8l57.3,51l436.5,388.3
		c10.3,9.1,25.8,8.6,35.5-1.1c10.6-10.6,10-27.9-1.1-37.8L447.5,364.3l69.9,43.4c5.7,2.9,11.8,4.2,17.7,4.2c16,0,31.2-9.8,36.7-26
		c1.4-4.2,2.2-8.8,2.2-13.5V137.3C574,136.7,574,136.1,574,135.5z M169.9,117.3h180.3v160.4L169.9,117.3z M522,349.3l-66.9-41.6
		l-9.9-6.1V217l12.3-8.6l64.5-45.2V349.3z"/>
</g>
</svg>
