<?xml version="1.0" encoding="utf-8"?>
<!-- Generator: Adobe Illustrator 21.1.0, SVG Export Plug-In . SVG Version: 6.00 Build 0)  -->
<svg version="1.1" id="Layer_6" xmlns="http://www.w3.org/2000/svg" xmlns:xlink="http://www.w3.org/1999/xlink" x="0px" y="0px"
	 viewBox="0 0 624 512" style="enable-background:new 0 0 624 512;" xml:space="preserve">
<g id="_x35_2_1_">
	<path d="M529.1,148.1l-31.9,41.1c8.7,6.8,17.3,14.5,25.7,22.9c16.9,16.9,30.3,33.9,39.7,47.2c-27,39-88,110.7-171,110.7
		c-10.6,0-21.3-1.2-31.9-3.7l-34.3,44.1c20.4,7.2,42.5,11.5,66.1,11.5c144.7,0,229.4-157.3,232.5-163.1
		C622.1,255.3,588.1,194.4,529.1,148.1z M317.2,167.4c24.2-12.8,49.1-19.3,74.1-19.3c11,0,22.1,1.3,33.2,4l34.2-44
		c-20.8-7.5-43.3-12-67.3-12c-147.1,0-232.8,162.6-232.8,162.6v0.3c0,0,34.5,64,96,111.7l31.9-41.1c-9.1-7.1-18.2-15.1-27-23.9
		c-16.8-16.8-30.2-33.9-39.6-47.2c8.8-12.6,21.3-28.8,37-44.8C276.2,194,296.5,178.4,317.2,167.4z"/>
	<path d="M399.5,184.2l-60.3,77.6C339.4,224.4,364.9,193.1,399.5,184.2z"/>
	<path d="M500.4,262.1c0,10.6-2,20.6-5.7,29.8c-3.5-10.7-13.6-18.4-25.4-18.4c-14.8,0-26.8,12-26.8,26.8c0,14.2,11.1,25.9,25.1,26.8
		c-13.4,9.8-29.9,15.6-47.7,15.6c-12.8,0-24.8-3-35.5-8.2l96.9-124.8C493.2,223.9,500.4,242.2,500.4,262.1z"/>
	<rect x="0" y="0.1" width="267.1" height="52"/>
	<rect x="0" y="460" width="267.1" height="52"/>
	<rect x="0" y="232" width="130.1" height="52"/>
	<polygon points="624,-0.2 261.5,466.8 199.8,466.8 562.7,-0.2 	"/>
</g>
</svg>
