<?xml version="1.0" encoding="utf-8"?>
<!-- Generator: Adobe Illustrator 21.1.0, SVG Export Plug-In . SVG Version: 6.00 Build 0)  -->
<svg version="1.1" id="Layer_6" xmlns="http://www.w3.org/2000/svg" xmlns:xlink="http://www.w3.org/1999/xlink" x="0px" y="0px"
	 viewBox="0 0 624 512" style="enable-background:new 0 0 624 512;" xml:space="preserve">
<g id="_x35_2_1_">
	<path d="M391.3,148.3c23.9,0,48,6.3,71.6,18.6c20.4,10.7,40.6,25.9,60,45.3c16.9,16.9,30.3,33.9,39.7,47.2
		c-27,39-88,110.7-171,110.7c-24.1,0-48.3-6.3-72-18.7c-20.5-10.7-40.7-26-60.1-45.5c-16.8-16.8-30.2-33.9-39.5-47.2
		c8.8-12.6,21.3-28.8,37-44.8c19.4-19.8,39.7-35.4,60.3-46.3C341.4,154.8,366.3,148.3,391.3,148.3 M391.3,96.3
		c-147.1,0-232.8,162.6-232.8,162.6v0.3c0,0,88,162.9,233,162.9c144.7,0,229.4-157.3,232.5-163.1C620.8,253.4,533.3,96.3,391.3,96.3
		L391.3,96.3z"/>
	<path d="M500.4,262.4c0,10.6-2,20.6-5.7,29.8c-3.5-10.7-13.6-18.4-25.4-18.4c-14.8,0-26.8,12-26.8,26.8c0,14.2,11.1,25.9,25.1,26.8
		c-13.4,9.8-29.9,15.6-47.7,15.6c-44.5,0-80.6-36.1-80.6-80.6s36.1-80.6,80.6-80.6C464.4,181.7,500.4,217.8,500.4,262.4z"/>
	<rect y="0.3" width="267.1" height="52"/>
	<rect y="460.2" width="267.1" height="52"/>
	<rect y="232.2" width="130.1" height="52"/>
</g>
</svg>
