<?xml version="1.0" encoding="utf-8"?>
<!-- Generator: Adobe Illustrator 21.1.0, SVG Export Plug-In . SVG Version: 6.00 Build 0)  -->
<svg version="1.1" id="Layer_1" xmlns="http://www.w3.org/2000/svg" xmlns:xlink="http://www.w3.org/1999/xlink" x="0px" y="0px"
	 viewBox="0 0 512 512" style="enable-background:new 0 0 512 512;" xml:space="preserve">
<style type="text/css">
	.st0{fill:#0C0506;}
</style>
<g id="_x35_2">
	<path class="st0" d="M137.9,368.6c-24.4,0-44.3,19.8-44.3,44.3v63.7H110v-63.7c0-15.3,12.5-27.8,27.8-27.8s27.8,12.5,27.8,27.8
		v63.7H182v-63.7C182.2,388.4,162.4,368.6,137.9,368.6z"/>
	<path class="st0" d="M374.2,368.6c-24.4,0-44.3,19.8-44.3,44.3v63.7h16.4v-63.7c0-15.3,12.5-27.8,27.8-27.8s27.8,12.5,27.8,27.8
		v63.7h16.4v-63.7C418.5,388.4,398.7,368.6,374.2,368.6z"/>
	<path class="st0" d="M255.7,337.9c-32.7,0-59.3,26.5-59.3,59.3v79.4h16.4v-79.4c0-23.6,19.2-42.8,42.8-42.8s42.8,19.2,42.8,42.8
		v79.4H315v-79.4C315,364.4,288.4,337.9,255.7,337.9z"/>
	<g>
		<path class="st0" d="M511.7,310.3h-27.3v166.3h-52V310.2c-3.7-1.8-12.1-5.1-24-7.9s-27-5.2-44-5.2l0.1-132.8L255.9,69.8
			l-109.1,94.7l0.1,132.8c-43.6,0-55.5,5.6-67.9,13v166.3H27V310.3H-0.3c21.4-27.6,66.1-57.7,95.6-62.4c0.2-0.2,0.1-66.2-0.4-77.9
			H61L255.9,0.9l194.6,169.2h-34c-0.3,13.9-0.3,80.9,0,80.9C445.7,254.5,490.9,278.1,511.7,310.3z"/>
	</g>
	<g>
		<rect x="225.4" y="173.5" class="st0" width="23.8" height="23.4"/>
	</g>
	<g>
		<rect x="225.4" y="205.9" class="st0" width="23.8" height="23.4"/>
	</g>
	<g>
		<rect x="262.6" y="173.5" class="st0" width="23.8" height="23.4"/>
	</g>
	<g>
		<rect x="262.6" y="205.9" class="st0" width="23.8" height="23.4"/>
	</g>
	<g>
		<rect x="124.3" y="427.8" class="st0" width="9" height="8.6"/>
	</g>
	<g>
		<rect x="142.2" y="427.8" class="st0" width="9.3" height="8.6"/>
	</g>
	<g>
		<rect x="235" y="409.9" class="st0" width="13.4" height="13.8"/>
	</g>
	<g>
		<rect x="262.3" y="409.9" class="st0" width="13.8" height="13.8"/>
	</g>
	<g>
		<rect x="360.7" y="427.8" class="st0" width="9.3" height="8.6"/>
	</g>
	<g>
		<rect x="379" y="427.8" class="st0" width="9" height="8.6"/>
	</g>
	<rect y="486.6" class="st0" width="512" height="27.1"/>
	<g>
		<polygon class="st0" points="218.3,162.3 210.5,154.5 257.2,112.7 303.9,154.5 296.1,162.3 257.2,127.5 		"/>
	</g>
</g>
</svg>
