<?xml version="1.0" encoding="utf-8"?>
<!-- Generator: Adobe Illustrator 21.1.0, SVG Export Plug-In . SVG Version: 6.00 Build 0)  -->
<svg version="1.1" id="Layer_1" xmlns="http://www.w3.org/2000/svg" xmlns:xlink="http://www.w3.org/1999/xlink" x="0px" y="0px"
	 viewBox="0 0 612 512" style="enable-background:new 0 0 612 512;" xml:space="preserve">
<g>
	<path d="M120.9,162L8,162.5c-4.6,0-8,3.3-8,8c0,71.9,0,167.6,0,172c0,4.4,3.6,8,8,8s112.9-1.5,112.9-1.5L285,511.5l0.3-57.3V56.8
		L285,0.5L120.9,162z M233,386.5c0,0-40.2-39.2-77-76c-12.7-12.7-30-13-30-13H52v-84h69c0,0,21.4,2.6,34-10c36.8-36.8,78-80,78-80
		V386.5z"/>
	<polygon points="612,172 575.2,135.2 490.7,219.7 406.2,135.2 369.5,172 454,256.5 369.5,341 406.2,377.8 490.7,293.3 575.2,377.8 
		612,341 527.5,256.5 	"/>
</g>
</svg>
