<?xml version="1.0" encoding="utf-8"?>
<!-- Generator: Adobe Illustrator 21.1.0, SVG Export Plug-In . SVG Version: 6.00 Build 0)  -->
<svg version="1.1" id="Layer_1" xmlns="http://www.w3.org/2000/svg" xmlns:xlink="http://www.w3.org/1999/xlink" x="0px" y="0px"
	 viewBox="0 0 612 512" style="enable-background:new 0 0 612 512;" xml:space="preserve">
<g>
	<g>
		<path d="M442,2.4c-6.4-2.3-19.1-4.9-29.7,6.9c-5.4,6.1-13.8,27.2,6.9,38.6c98.7,44,141.6,131.6,141.3,208.1
			c-0.4,120.7-90.5,184.7-130.4,202.1c-7.3,3.1-24.7,8.6-24.7,27.7c0,11.8,12.2,32,37.6,23.7c101.5-44,169.4-144.3,169-253.5
			C611.6,140.2,543.5,46.4,442,2.4z M120.9,162L8,162.5c-4.6,0-8,3.3-8,8c0,71.9,0,167.6,0,172s3.6,8,8,8s112.9-1.5,112.9-1.5
			L285,511.5l0.3-57.3V56.8L285,0.5L120.9,162z M233,386.5c0,0-40.2-39.2-77-76c-12.7-12.7-30-13-30-13H52v-84h69
			c0,0,21.4,2.6,34-10c36.8-36.8,78-80,78-80V386.5z M427.3,256c0-35.7-22.7-73.4-58.4-86.5c-1.3-0.7-16.7-6.2-28.7,5.9
			c-10.6,10.7-7.5,26.7-2,33.6c10.4,13.1,37.1,13.1,37.1,47c0,34.4-28.5,34.2-37.1,47.9c-5.5,6.6-8.8,22,2,32.6
			c11,10.8,23.6,7.9,30.6,4.9C404.8,328.4,427.3,291.7,427.3,256z M519.9,256c0.7-72.4-43.4-140.5-115.5-170.5
			c-6.9-2.4-18.2-5.1-29.7,6.9c-4.9,5.2-13.4,25.9,5.9,38.6c29.2,13.2,87.5,50.6,87.2,125.1c-3.3,80.5-53.6,108.2-83.6,123.2
			c-22.7,11.9-13.3,35.1-8.2,40.1c11.3,11.1,23.3,9,27.8,6.6C471.2,398.4,519.2,333.8,519.9,256z"/>
	</g>
</g>
</svg>
