<?xml version="1.0" encoding="utf-8"?>
<!-- Generator: Adobe Illustrator 21.1.0, SVG Export Plug-In . SVG Version: 6.00 Build 0)  -->
<svg version="1.1" id="Layer_1" xmlns="http://www.w3.org/2000/svg" xmlns:xlink="http://www.w3.org/1999/xlink" x="0px" y="0px"
	 viewBox="0 0 473.1 512" style="enable-background:new 0 0 473.1 512;" xml:space="preserve">
<path d="M436.7,4.5L0.7,431.7l36.4,37.1l436-427.2L436.7,4.5z M55.5,350.5l54.3-53H99.5v-84h69c0,0,21.4,2.6,34-10
	c36.8-36.8,78-80,78-80v6.5l52-51.5v-78L168.4,162l-112.9,0.5c-4.6,0-8,3.3-8,8c0,71.9,0,167.6,0,172S51.1,350.5,55.5,350.5z
	 M280.5,257.7v128.8l-65-64l-37.2,36.4l154.2,152.6l0.3-57.3l-0.2-247.6L280.5,257.7z"/>
</svg>
