<?xml version="1.0" encoding="utf-8"?>
<!-- Generator: Adobe Illustrator 21.1.0, SVG Export Plug-In . SVG Version: 6.00 Build 0)  -->
<svg version="1.1" id="Layer_1" xmlns="http://www.w3.org/2000/svg" xmlns:xlink="http://www.w3.org/1999/xlink" x="0px" y="0px"
	 viewBox="0 0 427.2 512" style="enable-background:new 0 0 427.2 512;" xml:space="preserve">
<g>
	<g>
		<path d="M120.9,162L8,162.5c-4.6,0-8,3.3-8,8c0,71.9,0,167.6,0,172s3.6,8,8,8s112.9-1.5,112.9-1.5L285,511.5V0.5L120.9,162z
			 M233,386.5c0,0-40.2-39.2-77-76c-12.7-12.7-30-13-30-13H52v-84h69c0,0,21.4,2.6,34-10c36.8-36.8,78-80,78-80V386.5z M368.8,169.5
			c-1.3-0.7-16.7-6.2-28.7,5.9c-10.6,10.7-7.5,26.7-2,33.6c10.4,13.1,37.1,13.1,37.1,47c0,34.4-28.5,34.2-37.1,47.9
			c-5.5,6.6-8.8,22,2,32.6c11,10.8,23.6,7.9,30.6,4.9c34.1-13.1,56.5-49.8,56.5-85.5C427.3,220.3,404.6,182.6,368.8,169.5z"/>
	</g>
</g>
</svg>
