<?xml version="1.0" encoding="utf-8"?>
<!-- Generator: Adobe Illustrator 21.1.0, SVG Export Plug-In . SVG Version: 6.00 Build 0)  -->
<svg version="1.1" id="Shape_1_1_" xmlns="http://www.w3.org/2000/svg" xmlns:xlink="http://www.w3.org/1999/xlink" x="0px" y="0px"
	 viewBox="0 0 545.2 512" style="enable-background:new 0 0 545.2 512;" xml:space="preserve">
<g>
	<g>
		<path d="M526,226h19v-87.6l-19,0.4V226z M526,512h19V384h-19V512z M488.7,275C488.8,275,488.8,275,488.7,275c0.1,0,0.1,0,0.2,0
			c0,0,0.1,0,0.1,0c12,0,22.3,6.9,27.4,17H545l0-45h-99.5c-8.6,0-15.5,6.9-15.5,15.5l-0.1,86c0,8.6,6.9,15.5,15.5,15.5H545v-47
			h-27.6c-4.6,10.6-15.2,17.8-27.3,17.8c-17.2,0-31-14.5-29.9-31.9C461.1,287.8,473.6,275.6,488.7,275z M526.3,0H77.5
			C34.7,0,0,34.2,0,76.4v373.2C0,484,28,512,62.4,512H505l0.2-128h-80.8c-8.6,0-15.4-7-15.4-15.5l0.2-126.1c0-8.6,7-15.5,15.4-15.5
			H505v-89H81.5c-30.3,0-54.9-24.8-54.5-55.2C27.4,52.8,52.4,29,82.3,29H545V18.5C545,8.3,536.6,0,526.3,0z M52,185.1
			c10.2,3.2,20.9,4.9,31.9,4.9h297.7c-15,12.4-24.6,31.1-24.6,52l-0.2,126.4c0,18.1,7,35,19.7,47.8c12.8,12.8,29.7,19.8,47.8,19.8
			H453v24H62.5c-5.8,0-10.5-4.7-10.5-10.5V185.1z M529,55H92.2C77.1,55.1,65,67.1,65,82.2c0,7.5,3,14.3,8,19.2
			c4.9,4.9,11.7,8,19.2,7.6H528v-5H92.9c-5.9-0.4-11.3-2.8-15.1-6.7c-3.9-3.9-6.3-9.2-6.3-15.1c0-11.8,9.6-21.4,21.4-21.2H529V55z
			 M529,66H94.4c-8.9-0.1-16.2,7.2-16.2,16.2c0,4.5,1.8,8.5,4.8,11.5c2.9,2.9,7,4.8,11.5,5.3H528v-5H95.5c-3.1-0.3-6-1.6-8.1-3.6
			c-2.1-2.1-3.3-4.9-3.3-8.1c0-6.3,5.1-11.4,11.4-11.3H529V66z M529,74H98.6c-4.6-0.2-8.4,3.6-8.4,8.2c0,2.3,0.9,4.4,2.4,5.9
			c1.5,1.5,3.6,2.4,5.9,2.9H528v-4H99.5c-1.3-0.1-2.5-0.6-3.4-1.5c-0.9-0.9-1.4-2-1.4-3.4c0-2.6,2.1-4.8,4.8-5.1H529V74z
			 M100.1,82.2c0,0.3,0.1,0.7,0.4,0.9c0.2,0.2,0.5,0.4,0.9,0.9H529v-3H101.3C100.6,80.9,100.1,81.5,100.1,82.2z M529,45H90v0.1
			c-10.4,0-19.8,4.2-26.6,11c-6.8,6.8-11,16.1-11,26.5c0,20.7,16.9,37.5,37.6,37.5h439v-5H93c-9,0-17.1-3.6-23-9.6
			c-5.4-5.4-8.9-12.8-9.4-21C59.5,65.5,74.8,50,93.8,50H529V45z"/>
	</g>
</g>
</svg>
