<?xml version="1.0" encoding="utf-8"?>
<!-- Generator: Adobe Illustrator 21.1.0, SVG Export Plug-In . SVG Version: 6.00 Build 0)  -->
<svg version="1.1" id="Layer_2" xmlns="http://www.w3.org/2000/svg" xmlns:xlink="http://www.w3.org/1999/xlink" x="0px" y="0px"
	 viewBox="0 0 354.6 512" style="enable-background:new 0 0 354.6 512;" xml:space="preserve">
<g>
	<path d="M308.8,294.4v-76h23.9c-10.9-46.4-41.1-85.5-81.9-108.3V0h-165v109.8c-51.3,28.9-86,83.7-86,146.7s34.7,117.9,86,146.7V512
		h165V402.9c40.8-22.8,71.1-61.9,82-108.5H308.8z M169.4,373.5c-64.5,0-116.8-52.3-116.8-116.8s52.3-116.8,116.8-116.8
		s116.8,52.3,116.8,116.8C286.2,321.3,233.9,373.5,169.4,373.5z"/>
	<path d="M341.8,229.6v-0.2h-1.2c-0.7,0.4-1.3,0.4-2,1h-0.8v-1h-28v54h28.8h0.2h3v-0.3c7.4-1.4,13-7.9,13-15.7v-22.2
		C354.8,237.5,349.2,231,341.8,229.6z M317.8,235.4h21v3h-21V235.4z M317.8,245.4h21v3h-21V245.4z M317.8,255.4h21v3h-21V255.4z
		 M317.8,265.4h21v3h-21V265.4z M317.8,278.4v-3h21v3H317.8z"/>
	<path d="M265.7,267.7c-2.2-1.7-4.9-2.8-7.7-3.1l-71.4-7.3c-0.8-4.6-3.3-8.8-6.9-11.7l4.4-6.4l-2.2-1.5l-4.3,6.4
		c-1.3-0.8-2.6-1.5-4.1-2l-2.5-0.7c-0.6-0.1-1.2-0.2-1.7-0.3l-8.6-39.1c-1.2-5.6-4.6-10.5-9.4-13.6l-13.7-8.8l-4.3,14.2
		c-2,6.4-1.3,13.3,1.8,19.2l17.9,34c-2.3,2.4-4.1,5.3-5,8.7c-2.2,8.1,1,16.5,7.4,21.2l-23.2,33.4c-4.9-2.5-11-1.1-14.2,3.6
		s-2.3,10.9,1.9,14.5l-5.6,8.2l2.2,1.5l5.6-8.2c4.9,2.5,11,1.1,14.2-3.6c3.2-4.7,2.3-10.9-1.9-14.5l23-33.6c1,0.6,2.1,1,3.2,1.4
		l2.5,0.7c9.1,1.8,18.2-2.9,22-11.1l69.9,14.9c2.8,0.6,5.6,0.4,8.3-0.6l15.6-5.7L265.7,267.7z M178.6,264c-1.6,6-7.6,9.8-13.6,8.8
		c-0.4-0.1-0.9-0.2-1.3-0.3c-0.4-0.1-0.8-0.3-1.2-0.4c-5.7-2.2-8.9-8.5-7.3-14.5c1.6-6,7.6-9.8,13.6-8.8c0.4,0.1,0.9,0.2,1.3,0.3
		c0.4,0.1,0.8,0.3,1.2,0.4C177.1,251.7,180.3,257.9,178.6,264z"/>
</g>
</svg>
