<?xml version="1.0" encoding="utf-8"?>
<!-- Generator: Adobe Illustrator 22.0.1, SVG Export Plug-In . SVG Version: 6.00 Build 0)  -->
<svg version="1.1" id="Layer_2" xmlns="http://www.w3.org/2000/svg" xmlns:xlink="http://www.w3.org/1999/xlink" x="0px" y="0px"
	 viewBox="0 0 512 512" style="enable-background:new 0 0 512 512;" xml:space="preserve">
<style type="text/css">
	.st0{fill:#010101;}
</style>
<path id="_x35_2" class="st0" d="M466.7,171.1v19.8h-35.4v-19.8H466.7 M229.6,171.1v19.9h-68.2c-34.6,0-63.5,23.5-70.8,56.2H70.4
	c3.3-18.8,12.3-36,26.2-49.6c17.4-17.1,40.4-26.5,64.8-26.5H229.6 M78.4,451.5c3.5,5.8,4.9,9.4,5.5,11.1c-0.6,2.5-2.9,4.4-5.5,4.4
	c-2.6,0-4.9-1.9-5.5-4.4C73.4,460.9,74.9,457.3,78.4,451.5 M277,0H153.3c-13.2,0-21.5,14.1-15.1,25.7L170,64.5h17.5v46.1h55.3V64.5
	h17.5l31.8-38.8C298.5,14.2,290.1,0,277,0L277,0z M362.7,89.8h-63.3c-5.8,0-10.6,4.7-10.6,10.6v168.9c0,5.8,4.7,10.6,10.6,10.6h63.3
	c5.8,0,10.6-4.7,10.6-10.6V100.4C373.2,94.5,368.5,89.8,362.7,89.8L362.7,89.8z M511.7,126.1H386.3v109.8h125.4V126.1L511.7,126.1z
	 M274.6,126.1H161.4c-74.9,0-136.1,59.9-137.4,134.9v31.2h109.9v-31.2c1.3-15,13.7-25,27.5-25h113.2V126.1L274.6,126.1z
	 M140.8,312.9H15.9c-4.3,0-8.2,1.7-11,4.6c-2.8,2.8-4.6,6.7-4.6,11c0,8.6,7,15.6,15.6,15.6h124.9c4.3,0,8.2-1.7,11-4.6
	c2.8-2.8,4.6-6.7,4.6-11C156.4,319.9,149.4,312.9,140.8,312.9L140.8,312.9z M78.4,379l-9.4,10.5c-6.9,7.7-41.2,47.2-41.2,71.8
	c0,27.9,22.7,50.7,50.7,50.7c27.9,0,50.7-22.7,50.7-50.7c0-24.6-34.4-64.1-41.2-71.8L78.4,379L78.4,379z"/>
</svg>
