<?xml version="1.0" encoding="utf-8"?>
<!-- Generator: Adobe Illustrator 22.0.1, SVG Export Plug-In . SVG Version: 6.00 Build 0)  -->
<svg version="1.1" id="Layer_1" xmlns="http://www.w3.org/2000/svg" xmlns:xlink="http://www.w3.org/1999/xlink" x="0px" y="0px"
	 viewBox="0 0 512 512" style="enable-background:new 0 0 512 512;" xml:space="preserve">
<g id="_x35_2">
	<polygon points="103.8,372.7 146,334.1 152.6,295.5 105.1,242.1 	"/>
	<rect x="-0.2" y="397.7" width="20.6" height="52.1"/>
	<rect x="-0.2" y="470.6" width="20.6" height="41.4"/>
	<rect x="30.6" y="470.6" width="20.6" height="41.4"/>
	<rect x="61.5" y="470.6" width="20.6" height="41.4"/>
	<rect x="30.6" y="418.5" width="20.6" height="41.7"/>
	<rect x="61.5" y="408.1" width="20.6" height="41.8"/>
	<rect x="30.6" y="366" width="20.6" height="42.1"/>
	<rect x="61.7" y="383.2" width="20.6" height="14.4"/>
	<rect x="-0.2" y="345.6" width="20.6" height="31.4"/>
	<rect x="73.4" y="261.7" width="20.6" height="20.7"/>
	<rect x="73.8" y="294.5" width="20.6" height="20.7"/>
	<path d="M63,282.1l0.1-20.4c0,0-14.1,0.9-35,20C5,302.7,0.7,330.7,0.7,330.7h19.7c0,0,4-20.8,16.7-33.2
		C52.5,282.5,63,282.1,63,282.1z"/>
	<path d="M61.7,298.8c-1.4,1.2-2.8,2.4-4.3,3.7c-23.1,21-26.1,49.1-26.1,49.1h19.8c0,0,1.8-16.3,11.3-28.6c0.3-0.3,0.8-1,0.8-1
		l-0.2-24.2C63.1,297.7,62.2,298.4,61.7,298.8z"/>
	<path d="M82.3,367.9l-0.3-40.8c0,0-0.8,1-1.2,1.5c-15.2,19-18.3,39.3-18.3,39.3H82.3z"/>
	<path d="M464.1,251.5c54.6-48.5,64.4-132,20.5-192.5C438.2-5.1,349.2-19.1,285.9,27.6c-48.6,35.9-68,97.2-53.4,152.8l-18.2,13.5
		c-17.3,12.8-21,37.3-8.3,54.7l38.2,52.7L171.9,290l-8.3,54.7l134.1,30.5l38.2,52.7l166.8-123.2l-22.9-31.6L464.1,251.5z
		 M315.6,69.8c40.8-30.2,98.2-21.1,128.2,20.2c27.2,37.5,22.4,88.8-9.3,120.5l-61.7-85.1c-7.6-10.5-19.4-16.1-31.4-16.1
		c-7.9,0-15.9,2.5-22.8,7.5l-40.4,29.8C277.5,117.5,290.5,88.4,315.6,69.8z M347.2,354.9l-60.9-84.1l-30.9-42.6l83.2-61.4
		l91.9,126.7L347.2,354.9z"/>
</g>
</svg>
