<?xml version="1.0" encoding="utf-8"?>
<!-- Generator: Adobe Illustrator 22.0.1, SVG Export Plug-In . SVG Version: 6.00 Build 0)  -->
<svg version="1.1" id="Layer_1" xmlns="http://www.w3.org/2000/svg" xmlns:xlink="http://www.w3.org/1999/xlink" x="0px" y="0px"
	 viewBox="0 0 512 512" style="enable-background:new 0 0 512 512;" xml:space="preserve">
<g>
	<path d="M161.9,216.4c17.4-80.9-50.4-145.8-80.3-215.3C58.1,68.8-4.6,126.6-0.1,201.3c6,44.1,45.3,67.6,84.1,67.6
		C117.1,268.8,149.9,251.9,161.9,216.4z M83.3,110.6c8.9,15.2,16.7,29.8,22.1,44.2c3.4,9.1,5.6,17.6,6.6,25.6
		C97.6,178.2,81.8,168,63,148.7C68.4,136.5,75.5,123.8,83.3,110.6z M79.1,255.5c-7.8,0-15.6-1.7-23.5-6
		C20.2,237.6,13.8,195.8,6.7,164c29.5,34.9,65.5,68.8,111.5,68.8c10.2,0,20.8-1.7,32-5.3C128.1,237.7,104,255.5,79.1,255.5z"/>
	<path d="M424.7,1.2c-24.8,71.3-90.8,132.2-86.1,210.9c6.4,46.5,47.7,71.2,88.7,71.2c34.8,0,69.3-17.8,82-55.3
		C527.6,142.7,456.2,74.3,424.7,1.2z M426.5,111c10.4,17.6,19.7,34.5,25.9,51.1c4.2,11.2,6.7,21.4,7.5,31.2
		c-10.3-0.7-20.6-4.9-32.2-13c-9.3-6.5-18.2-14.8-26.1-22.9C408.2,142.4,417,127.1,426.5,111z M422.1,269.2
		c-8.2,0-16.4-1.8-24.8-6.3c-37.4-12.6-44.1-56.6-51.5-90.1c31.1,36.8,69,72.5,117.5,72.5c10.7,0,22-1.7,33.8-5.6
		C473.7,250.4,448.4,269.2,422.1,269.2z"/>
	<path d="M252.3,132.3c-31.1,78.3-82.4,146.6-112,225.3c-26.4,69.6,30.4,153.7,104.4,153.7c0.1,0,0.3,0,0.4,0
		c3.8,0.4,7.5,0.7,11.2,0.7c68.4,0,127.8-72.8,109.9-141.4C342.9,284.6,283.3,215.2,252.3,132.3z M243.2,266.4
		c3-5.4,6-10.8,9.1-16.3c2.4,4.2,4.7,8.4,7.1,12.6c23.3,41,45.2,79.8,56.5,121.2c1.3,4.9,1.7,10.1,1.4,15.3
		c-3.8,0.3-7.5,0.6-11.3,0.8c-9.7,0.8-18.9,1.5-27.2,1.5c-11.6,0-19.5-1.4-25.8-4.5l-1.9-0.9l-1.9-0.8c-14.1-5.6-24.7-24.8-37-47
		c-2.1-3.8-4.2-7.6-6.4-11.4C217,313.6,229.9,290.4,243.2,266.4z M249.4,493.5c-9.6,0-19.5-2-29.4-6.6
		c-55.2-18.2-73.8-81.4-65.4-134.3c20.5,33.6,36.1,75.6,75.3,91.1c15.6,7.7,32.1,9.8,48.8,9.8c20.1,0,40.6-3.1,60.5-3.3
		C313.5,470.3,282.5,493.5,249.4,493.5z"/>
</g>
</svg>
