<?xml version="1.0" encoding="utf-8"?>
<!-- Generator: Adobe Illustrator 21.1.0, SVG Export Plug-In . SVG Version: 6.00 Build 0)  -->
<svg version="1.1" id="Layer_1" focusable="false" xmlns="http://www.w3.org/2000/svg" xmlns:xlink="http://www.w3.org/1999/xlink"
	 x="0px" y="0px" viewBox="0 0 576 512" style="enable-background:new 0 0 576 512;" xml:space="preserve">
<g id="_x35_2">
	<path d="M477.8,424.6c-19.6,0-21.6,17-44.7,17c-22,0-45.3-17-69.2-17c-21.9,0-44.3,17-66.7,17c-21.1,0-46-17-66.7-17
		c-23.8,0-43.4,17-65.5,17c-24.7,0-47.9-17-68.5-17c-22.8,0-38.9,17-54.3,17c-22.5,0-42.3-8.5-42.3-8.5v55.2c0,0,18.1,8.5,38,8.5
		c16.2,0,34.3-17,59.8-17c20.4,0,43.1,17,67.3,17c21.3,0,43.6-17,66.7-17c21,0,42.6,17,64.2,17c22.4,0,44.8-17,66.7-17
		c23.6,0,46.7,17,68.5,17c21.5,0,22.4-17,40.9-17c29.4,0,54.2,17,72.2,17c19.9,0,31.5-8.5,31.5-8.5v-55.2c0,0-12,8.5-32.7,8.5
		C526.5,441.6,504.1,424.6,477.8,424.6z"/>
	<path d="M477.8,303.3c-19.6,0-21.6,17-44.7,17c-22,0-45.3-17-69.2-17c-21.9,0-44.3,17-66.7,17c-21.1,0-46-17-66.7-17
		c-23.8,0-43.4,17-65.5,17c-24.7,0-47.9-17-68.5-17c-22.8,0-38.9,17-54.3,17c-22.5,0-42.3-8.5-42.3-8.5V367c0,0,18.1,8.5,38,8.5
		c16.2,0,34.3-17,59.8-17c20.4,0,43.1,17,67.3,17c21.3,0,43.6-17,66.7-17c21,0,42.6,17,64.2,17c22.4,0,44.8-17,66.7-17
		c23.6,0,46.7,17,68.5,17c21.5,0,22.4-17,40.9-17c29.4,0,54.2,17,72.2,17c19.9,0,31.5-8.5,31.5-8.5v-55.2c0,0-12,8.5-32.7,8.5
		C526.5,320.3,504.1,303.3,477.8,303.3z"/>
	<path d="M297,286.7L184.4,185.9c-2.8-2.5-4.5-5.9-5.1-10.2l-0.5-6v-58.4l92.1,82.5V0H323v194.7l91.6-82.6V172
		c0,2.2-0.6,4.6-1.9,7.4l-4.7,6L297,286.7z"/>
</g>
</svg>
