<?xml version="1.0" encoding="utf-8"?>
<!-- Generator: Adobe Illustrator 21.1.0, SVG Export Plug-In . SVG Version: 6.00 Build 0)  -->
<svg version="1.1" id="Layer_2" xmlns="http://www.w3.org/2000/svg" xmlns:xlink="http://www.w3.org/1999/xlink" x="0px" y="0px"
	 viewBox="0 0 404.7 512" style="enable-background:new 0 0 404.7 512;" xml:space="preserve">
<g id="_x35_2_1_">
	<path d="M334.3,357.4c43.7-37.2,71.5-92.6,71.5-154.6C405.8,90.8,314.9,0,202.9,0S0,90.8,0,202.9c0,61.9,27.7,117.3,71.5,154.5
		C27.7,394.6,0,450.1,0,512h405.8C405.8,450.1,378,394.7,334.3,357.4z M202.6,17c4.4,0,7.9,3.5,7.9,7.9s-3.5,7.9-7.9,7.9
		c-4.4,0-7.9-3.5-7.9-7.9S198.3,17,202.6,17z M52,202.9C52,119.6,119.6,52,202.9,52s150.9,67.6,150.9,150.9s-67.5,150.9-150.9,150.9
		S52,286.2,52,202.9z M202.9,405.8c30.3,0,59-6.6,84.8-18.5c25.8,17.6,45.9,43,56.8,72.8H61.2c10.9-29.8,31-55.2,56.8-72.8
		C143.9,399.1,172.6,405.8,202.9,405.8z"/>
	<path d="M202.3,278.6c42.3,0,76.5-34.3,76.5-76.6c0-42.3-34.3-76.5-76.5-76.5c-42.3,0-76.5,34.3-76.5,76.5
		C125.8,244.3,160.1,278.5,202.3,278.6z M170.9,163v-0.2c4.1-3.4,10.2-2.9,13.6,1.2c0.1,0.1,0.1,0.2,0.2,0.3
		c3.4,4.1,2.9,10.2-1.2,13.6c-0.2,0.1-0.3,0.3-0.5,0.4c-7.2,5.8-11.5,14.6-11.5,23.8c0,5.4-4.3,9.7-9.7,9.7c-5.3,0-9.7-4.3-9.7-9.7
		C152.2,186.8,159,172.4,170.9,163z"/>
	<circle cx="202.6" cy="24.9" r="3.7"/>
</g>
</svg>
