<?xml version="1.0" encoding="utf-8"?>
<!-- Generator: Adobe Illustrator 21.1.0, SVG Export Plug-In . SVG Version: 6.00 Build 0)  -->
<svg version="1.1" id="Layer_3" xmlns="http://www.w3.org/2000/svg" xmlns:xlink="http://www.w3.org/1999/xlink" x="0px" y="0px"
	 viewBox="0 0 512 512" style="enable-background:new 0 0 512 512;" xml:space="preserve">
<g>
	<path d="M465.7,98.9h-91.6C363,43.7,314.8,0,257,0c-57.8,0-106,43.7-117.1,98.9H46.3C20.7,98.9,0,119.6,0,145.1v320.6
		C0,491.3,20.7,512,46.3,512h419.5c25.5,0,46.2-20.7,46.3-46.3V145.1C512,119.6,491.3,98.9,465.7,98.9z M257,52.4
		c37.5,0,67.9,32.3,67.9,69.8c0,37.5-30.4,67.9-67.9,67.9c-37.5,0-67.9-30.4-67.9-67.9C189.2,84.7,219.5,52.4,257,52.4z
		 M140.8,150.9c12.6,52.6,59.8,91.6,116.2,91.6c56.4,0,103.7-39.1,116.2-91.6h20c-5.3,26.5-18.3,50.8-37.8,70.3
		c-26.2,26.2-61,40.6-98.1,40.6c-37,0-71.9-14.4-98.1-40.6c-19.5-19.5-32.5-43.8-37.9-70.3H140.8z M460,460H52V150.9h20.6
		c13,90.2,90.6,159.4,184.4,159.4c54.1,0,102.8-23,136.8-59.9c0.5-0.6,1.1-1.2,1.6-1.8c0.5-0.6,1-1.1,1.5-1.7
		c23.3-26.5,39.1-59.5,44.4-96.1H460V460z"/>
	<path d="M281,121.2c0,13-10.5,23.5-23.5,23.5S234,134.2,234,121.2c0-3.4,0.7-6.6,2-9.4l-20.4-20.4l12.1-12.1l20.4,20.4
		c2.9-1.3,6.1-2,9.4-2C270.5,97.7,281,108.2,281,121.2z"/>
	<rect x="110.2" y="374.7" width="293" height="52"/>
</g>
</svg>
