<?xml version="1.0" encoding="utf-8"?>
<!-- Generator: Adobe Illustrator 21.1.0, SVG Export Plug-In . SVG Version: 6.00 Build 0)  -->
<svg version="1.1" id="Layer_5" xmlns="http://www.w3.org/2000/svg" xmlns:xlink="http://www.w3.org/1999/xlink" x="0px" y="0px"
	 viewBox="0 0 640 512" style="enable-background:new 0 0 640 512;" xml:space="preserve">
<g>
	<circle cx="534" cy="200" r="16"/>
	<path d="M468.5,84.1c-71.3,0-148.2,39.7-187.6,119.2c-15.7,31.7-46.1,44.6-73.6,45.5c-58.9,1.8-67.6-62.8-67.6-62.8
		c118-49.6,92.8-86.1,89.5-86c-11,10.3-60.2,14.2-75,20.1c-14.8-5.2-34.9,13-41.3,9.9c-4.4-4.3-13.7-1.7-23.6,2.1
		c-33.8,17.5-61.2,14.7-82.8,17.2c-22.7,4.2,19.3,24.6,41.9,37.7c14.3,4.5,18.7,16.7,27.5,38.3c11.4,45.1,36.2,68.3,47.1,78.8
		c27.2,26.5,72,58.8,157.4,72.2c-2.6,16.8-12.7,56.6-50.3,84.2c104.6,28.6,125.5-57.4,128.9-78c23.9,1.6,52.3-3.1,72.8-8.5
		c2.3,9.9,6.9,37.3-4.1,64.8c49.4-14.3,56.8-67,57.8-85.1c93-46,154.6-133.9,154.6-166C640,146.7,558.5,84.1,468.5,84.1z
		 M449.8,312.7c-83.6,36.6-202,7.8-242.2-11.9c51.2-0.2,97.1-28.6,119.8-74.4c14-28.3,56.6-90.3,141-90.3h0
		c71.2,0,114.2,46.7,118.2,52.5C580.9,202.2,533.8,275.9,449.8,312.7z"/>
</g>
</svg>
