<?xml version="1.0" encoding="utf-8"?>
<!-- Generator: Adobe Illustrator 21.1.0, SVG Export Plug-In . SVG Version: 6.00 Build 0)  -->
<svg version="1.1" id="_x33_2" xmlns="http://www.w3.org/2000/svg" xmlns:xlink="http://www.w3.org/1999/xlink" x="0px" y="0px"
	 viewBox="0 0 640 512" style="enable-background:new 0 0 640 512;" xml:space="preserve">
<g id="_x35_2">
	<path d="M320,320.1c-44.2,0-80,35.8-80,80c0,44.2,35.8,80,80,80c44.2,0,80-35.8,80-80C400,355.9,364.2,320.1,320,320.1z M320,428
		c-15.4,0-28-12.5-28-28s12.5-28,28-28s28,12.5,28,28S335.5,428,320,428z"/>
	<path d="M631.7,152.5C550.8,76.7,442,30.4,322.4,30.4C200.3,30.4,89.5,78.7,8,157.3c-5.1,4.9-8,11.7-8,18.8v0
		c0,22.9,27.5,34.7,44,18.8c72.1-69.7,170.3-112.6,278.5-112.6c105.9,0,202.3,41.1,273.9,108.2c16.6,15.5,43.7,3.6,43.7-19.1v0
		C640,164.3,637,157.4,631.7,152.5z"/>
	<path d="M519.5,256.1c-56.3-38-124.1-60.1-197.1-60.1c-75.2,0-145,23.5-202.2,63.6c-6.9,4.8-11,12.8-11,21.2v0
		c0,21.1,23.7,33.3,41,21.2C199,268,258.4,248,322.4,248c62.3,0,120.2,19,168.3,51.4c17.2,11.6,40.4-0.9,40.4-21.6v0
		C531.1,269,526.7,261,519.5,256.1z"/>
</g>
</svg>
