<?xml version="1.0" encoding="utf-8"?>
<!-- Generator: Adobe Illustrator 21.1.0, SVG Export Plug-In . SVG Version: 6.00 Build 0)  -->
<svg version="1.1" id="Layer_5" xmlns="http://www.w3.org/2000/svg" xmlns:xlink="http://www.w3.org/1999/xlink" x="0px" y="0px"
	 viewBox="0 0 512 512" style="enable-background:new 0 0 512 512;" xml:space="preserve">
<path id="_x35_2" d="M270.7,180.7h103.8c27.1,0,49.7-21.4,50.3-48.5c0.5-27.7-21.8-50.4-49.4-50.4c-18.1,0-35.8,10-44.8,28.6
	c-2.1,4.4-6.5,7.3-11.4,7.3h-26.8c-8.7,0-14.7-8.5-11.9-16.7c6.3-18.5,18.8-35.9,32.2-46.8c17.6-14.4,39.9-22.3,62.7-22.3
	c54.8,0,99.4,44.6,99.4,99.4c0,54.8-44.6,99.4-99.4,99.4H213.8C242.6,230.6,269.8,195.1,270.7,180.7z M0,206.1
	c-0.2-14,11.6-25.4,25.5-25.4H163c13.5,0,24.2-12.5,21-26.5c-2.4-10.5-12.3-17.2-23.1-16.4c-6.1,0.5-11.4,3.1-16.3,10.9
	c-3,4.7-8.8,7-14.2,5.3l-24.1-7.5c-6.9-2.1-10.7-9.7-8-16.4c11-28.1,39.6-42.3,64.7-42.3c39.4,0,71.5,32.1,71.5,71.5
	c0,7.5-1.2,14.7-3.3,21.5c-9.2,28.9-36.3,50-68.2,50H25C11.3,230.6,0.2,219.7,0,206.1z M219.2,397h-125c-6.8,0-13.2-2.7-18-7.6
	c-4.8-4.9-7.2-11.4-7-18.3c0.5-13.3,11.9-24.1,25.4-24.1h124.5c13.8,0,25,11.2,25,25C244.2,385.8,233,397,219.2,397z M394,479.8
	c-26,0-50.7-8.3-71.3-24c-16-12.1-30.5-29.9-39.1-51.6c-3.2-8.3,2.8-17.2,11.7-17.2h27.3c4.6,0,8.9,2.5,11.1,6.6
	c12,22.5,36.3,36.2,60.3,36.2c37.9,0,68.6-31.1,68-69.1c-0.6-37.3-31.7-67-69.1-67H41.1c-14,0-25.8-11.4-25.5-25.4
	c0.2-13.6,11.3-24.5,25-24.5h352.2c65.1,0,118.9,52.2,119.3,117.3C512.4,426.5,459.3,479.8,394,479.8z"/>
</svg>
