<?xml version="1.0" encoding="utf-8"?>
<!-- Generator: Adobe Illustrator 21.1.0, SVG Export Plug-In . SVG Version: 6.00 Build 0)  -->
<svg version="1.1" id="Layer_5" xmlns="http://www.w3.org/2000/svg" xmlns:xlink="http://www.w3.org/1999/xlink" x="0px" y="0px"
	 viewBox="0 0 512 512" style="enable-background:new 0 0 512 512;" xml:space="preserve">
<g>
	<g>
		<path d="M212.9,216c8.2,0,8.1-6.2,5.4-9.3c-2.7-3.1-14.9-18.7-37.9-18.7c-22.8,0-34.7,15-37.8,18.6c0,0,2.6-3-0.1,0.1
			c-2.7,3.1-2.6,9.3,5.4,9.3s13.8-7.7,32.5-7.7C199.7,208.2,204.7,216,212.9,216z M332.8,162.9c-16.7,0-30.2,16.7-30.2,37.2
			s13.6,37.2,30.2,37.2c16.7,0,30.2-16.7,30.2-37.2S349.5,162.9,332.8,162.9z M256,0C114.6,0,0,114.6,0,256s114.6,256,256,256
			s256-114.6,256-256S397.4,0,256,0z M256,460.1c-112.6,0-204-91.4-204-204s91.4-204,204-204s204,91.4,204,204
			S368.6,460.1,256,460.1z M291.8,335.6c-39,10.7-80.6,0-109.5-28.2c-5.5-5.5-14.5-5.5-20-0.1c-5.6,5.5-5.6,14.7,0.2,20.2
			c36.1,35.2,88.3,48.7,136.9,35.2l0.3-0.1C317.7,357.5,309.9,330.4,291.8,335.6z"/>
	</g>
</g>
</svg>
