<?xml version="1.0" encoding="utf-8"?>
<!-- Generator: Adobe Illustrator 21.1.0, SVG Export Plug-In . SVG Version: 6.00 Build 0)  -->
<svg version="1.1" id="Layer_1" xmlns="http://www.w3.org/2000/svg" xmlns:xlink="http://www.w3.org/1999/xlink" x="0px" y="0px"
	 viewBox="0 0 512 512" style="enable-background:new 0 0 512 512;" xml:space="preserve">
<g>
	<path d="M256,0C114.6,0,0,114.6,0,256s114.6,256,256,256s256-114.6,256-256S397.4,0,256,0z M256,460.1c-112.6,0-204-91.4-204-204
		s91.4-204,204-204s204,91.4,204,204S368.6,460.1,256,460.1z"/>
	<path d="M332.8,237.4c16.7,0,30.2-16.7,30.2-37.2s-13.6-37.2-30.2-37.2c-16.7,0-30.2,16.7-30.2,37.2
		C302.5,220.8,316,237.4,332.8,237.4z"/>
	<path d="M179.2,237.4c16.7,0,30.2-16.7,30.2-37.2s-13.6-37.2-30.2-37.2c-16.7,0-30.2,16.7-30.2,37.2
		C148.9,220.8,162.4,237.4,179.2,237.4z"/>
	<polygon points="355.4,300.4 330.3,339.6 290.8,287.9 250.8,347.6 205.3,289.5 141.5,371 166.7,390.6 205.3,341.3 252.7,402.2 
		292.5,342.9 332.8,395.2 382.2,317.8 	"/>
</g>
</svg>
