<?xml version="1.0" encoding="utf-8"?>
<!-- Generator: Adobe Illustrator 21.1.0, SVG Export Plug-In . SVG Version: 6.00 Build 0)  -->
<svg version="1.1" id="Layer_1" xmlns="http://www.w3.org/2000/svg" xmlns:xlink="http://www.w3.org/1999/xlink" x="0px" y="0px"
	 viewBox="0 0 512 512" style="enable-background:new 0 0 512 512;" xml:space="preserve">
<path id="_x35_2" d="M341.7,46.6L292.2,96c-9.8,9.8-13,24.5-8.2,37.5l22.3,60.1c2.1,5.7,6.6,10.2,12.4,12.3l59.6,21.6
	c13,4.7,27.5,1.5,37.3-8.3l50.6-50.6c-0.1,0.7-0.3,1.5-0.5,2.2c-4.2,19.8-14,37.8-28.4,52.2c-19.8,19.8-46.1,30.7-74.1,30.7
	c-10.3,0-20.5-1.5-30.3-4.5l-17.4-5.2c-5-1.5-10.4-0.1-14,3.6C271.8,278,142.5,414.2,98.4,458.8c-6,6.1-14,9.4-22.4,9.4
	c-8.3,0-16.2-3.2-22.2-9.1c-12.4-12.2-12.5-32.2-0.3-44.6c47.9-48.5,179-186,207.4-214.8c3.3-3.3,4.7-8.1,3.7-12.7l-3.3-15.8
	c-3.6-16.9-3-34.7,1.7-51.3c4.8-17,13.9-32.5,26.3-44.9C303.8,60.4,322,50.7,341.7,46.6 M363.3,0.3c-38.1,0-76.1,14.5-105.2,43.6
	c-36.7,36.7-50,88.7-39.9,136.4C194,204.9,76.9,328.2,22.2,383.6c-29.3,29.7-29,77.5,0.7,106.8c14.7,14.5,33.9,21.8,53.1,21.8
	c19.5,0,39-7.5,53.8-22.5c52.4-53.1,160.4-167.6,190.6-198.3c14,4.2,28.5,6.3,43,6.3c38.1,0,76.1-14.5,105.2-43.6
	C510.7,212,522.2,150.7,503,98.1c-2.2-6-7.7-9.4-13.3-9.4c-3.5,0-7.1,1.3-9.9,4.1L393.6,179c-3.3,3.3-8.2,4.4-12.6,2.8l-32-11.6
	c-3.3-1.2-5.9-3.8-7.2-7.1l-12.1-32.5c-1.6-4.4-0.6-9.4,2.8-12.7l85.7-85.7c7.4-7.4,4.5-19.8-5.3-23.3
	C396.9,3.2,380.1,0.3,363.3,0.3L363.3,0.3z"/>
</svg>
