<?xml version="1.0" encoding="utf-8"?>
<!-- Generator: Adobe Illustrator 22.0.1, SVG Export Plug-In . SVG Version: 6.00 Build 0)  -->
<svg version="1.1" id="Layer_3" xmlns="http://www.w3.org/2000/svg" xmlns:xlink="http://www.w3.org/1999/xlink" x="0px" y="0px"
	 viewBox="0 0 512 512" style="enable-background:new 0 0 512 512;" xml:space="preserve">
<path d="M414,0H298.3l19.9,108h184.4L414,0z M283.8,1h-56.6L210,118.3V176h91v-55.8L283.8,1z M96.7,0L7.9,108h184.4L212.4,0H96.7z
	 M319,126v66H192v-66H0v386h512V126H319z M367.3,337.3c11.1-11.3,38.3-40.7,46.2-48.6c1.6-1.6,4.2-1.6,5.8,0l46.1,48.6
	c2.5,2.6,0.7,7-2.9,7l-26.7,0.2v100.5H397V344.3h-26.8C366.6,344.3,364.8,339.9,367.3,337.3z M250.2,337.3
	c11.1-11.3,38.3-40.7,46.2-48.6c1.6-1.6,4.2-1.6,5.8,0l46.1,48.6c2.6,2.6,0.7,7-2.9,7l-26.7,0.2v100.5h-38.9V344.3h-26.8
	C249.5,344.3,247.7,339.9,250.2,337.3z M466.6,486.5H249v-21.2h217.6V486.5z"/>
</svg>
