<?xml version="1.0" encoding="utf-8"?>
<!-- Generator: Adobe Illustrator 16.0.0, SVG Export Plug-In . SVG Version: 6.00 Build 0)  -->
<!DOCTYPE svg PUBLIC "-//W3C//DTD SVG 1.1//EN" "http://www.w3.org/Graphics/SVG/1.1/DTD/svg11.dtd">
<svg version="1.1" id="Layer_1" xmlns="http://www.w3.org/2000/svg" xmlns:xlink="http://www.w3.org/1999/xlink" x="0px" y="0px"
	 width="247px" height="183.691px" viewBox="0 0 247 183.691" enable-background="new 0 0 247 183.691" xml:space="preserve">
<path fill="#4BCD97" d="M0.007,89.632c-0.464-18.255,22.861-33.695,41.339-24.61c6.501,3.196,10.968,8.149,15.831,12.907
	c10.072,9.854,19.992,19.864,29.926,29.859c4.827,4.855,4.969,5.099,9.66,0.418c17.34-17.304,34.494-34.792,51.811-52.12
	c11.817-11.826,23.771-23.517,35.695-35.234c4.941-4.854,9.723-9.914,15-14.379C214.865-6.72,241.552,0.9,246.303,23.484
	c2.342,11.134-1.394,19.869-8.736,27.277c-32.212,32.503-64.663,64.768-97.004,97.144c-8.735,8.744-17.379,17.58-26.077,26.362
	c-12.8,12.924-32.579,12.405-45.037-0.612c-19.343-20.211-39.357-39.782-59.227-59.484C3.855,107.852-0.19,100.73,0.007,89.632z"/>
</svg>
