<?xml version="1.0" encoding="utf-8"?>
<!-- Generator: Adobe Illustrator 21.1.0, SVG Export Plug-In . SVG Version: 6.00 Build 0)  -->
<svg version="1.1" id="Layer_1" xmlns="http://www.w3.org/2000/svg" xmlns:xlink="http://www.w3.org/1999/xlink" x="0px" y="0px"
	 viewBox="0 0 398.7 512.4" style="enable-background:new 0 0 398.7 512.4;" xml:space="preserve">
<path d="M69.6,336.4c0.1,0.3,2.8,7.6,4.3,11.3c8.4,19.9,20.5,37.9,35.9,53.3c15.4,15.4,33.3,27.5,53.3,35.9
	c20.7,8.7,42.6,13.2,65.2,13.2c22.6,0,44.6-4.4,65.2-13.2c20-8.4,37.9-20.5,53.3-35.9c15.4-15.4,27.5-33.3,35.9-53.3
	c8.7-20.7,13.2-42.6,13.2-65.2c0-22.6-4.4-44.6-13.2-65.2c-8.4-20-20.5-37.9-35.9-53.3c-15.4-15.4-33.3-27.5-53.3-35.9
	c-20.7-8.7-42.6-13.2-65.2-13.2c-22.9,0-45.8,4.6-66.1,13.2c-16.3,6.9-43.9,24.6-60,41.3l-0.1,0.1V31.5l231.7,0
	c8.4-0.1,8.4-11.9,8.4-15.7c0-3.9,0-15.6-8.5-15.7L83.3,0c-6.8,0-11,5.7-11,10.9v194.1c0,6.3,7.8,10.8,15.1,12.3
	c14.2,3,17.4-1.5,20.9-6.3l0.5-0.6c5.3-7.9,21.8-24.5,22-24.7c25.8-25.8,60.3-40,97.2-40c36.7,0,71.1,14.2,96.9,40
	c25.9,25.9,40.2,60.2,40.2,96.6c0,36.5-14.2,70.9-40,96.6c-25.4,25.4-61,40-97.5,40c-24.7,0-48.6-6.6-69.1-19.1l0.1-118
	c0-15.7,6.8-32.9,18.3-45.8c13.1-14.8,31.1-22.9,50.8-22.9c19,0,36.8,7.2,50.1,20.3c13.1,13,20.4,30.4,20.4,48.9
	c0,39.4-31,70.3-70.6,70.3c-7.6,0-21.5-3.4-22.1-3.5c-8-2.4-11.4,8.7-12.5,12.4c-4.3,14.1,2.2,16.9,3.5,17.3
	c12.7,4,21.1,4.7,32.1,4.7c55.9,0,101.4-45.5,101.4-101.4c0-55.5-45.5-100.6-101.3-100.6c-27.4,0-53.1,10.5-72.4,29.4
	c-18.4,18.1-28.9,42.2-28.9,66.2l0,0.6c-0.1,3-0.1,73.8-0.2,97l-0.1-0.1c-10.5-11.6-20.9-29.4-27.8-47.6c-2.7-7.1-8.8-5.9-17.1-3.3
	C78.2,324.9,67.2,328.3,69.6,336.4L69.6,336.4z M188.7,308.7c0,3.4,3.1,6.4,5,8.1l0.6,0.6c3.2,3.1,6.2,4.7,9,4.7
	c2.3,0,3.7-1.1,4.2-1.6c1.4-1.3,17.2-17.4,18.8-18.9l17.7,17.6c1.6,1.8,3.4,2.8,5.5,2.8c2.8,0,5.9-1.7,9.1-5c7.6-7.8,3.8-12,2-14
	l-17.9-17.9l18.7-18.8c4.1-4.4,0.5-9.1-3.1-12.7c-5.2-5.2-10.3-6.6-13.5-3.6l-18.6,18.6l-18.8-18.8c-1-1-2.3-1.5-3.6-1.5
	c-2.5,0-5.5,1.7-8.8,5c-5.8,5.8-7,9.8-4,13l18.8,18.7L191,303.8C189.5,305.3,188.7,307,188.7,308.7z M229.6,54.9
	c-30,0-62,6.1-85.4,16.2c-2.5,1-4,3-4.3,5.8c-0.3,2.7,0.4,6.2,2.2,10.8c1.5,3.7,5.3,13.6,12.8,10.7c24-9.2,50.6-14.2,74.7-14.2
	c27.4,0,54,5.4,79,15.9c19.9,8.4,38.6,20.6,59,38.2c1.5,1.3,3.1,1.9,4.7,1.9c4,0,7.8-3.9,11.1-7.6c5.4-6.1,9.2-11.2,3.8-16.3
	c-19.5-18.4-40.8-32.2-67.2-43.4C291.4,61,261,54.9,229.6,54.9z M391.4,425.6L391.4,425.6c-3.6-3.6-6.7-5.7-9.4-6.5
	c-2.7-0.8-5.2-0.2-7.1,1.7l-1.8,1.8c-18.6,18.6-40.3,33.2-64.4,43.4c-25,10.6-51.5,15.9-78.8,15.9c-27.4,0-53.9-5.4-78.8-15.9
	c-24.1-10.2-45.8-24.8-64.4-43.4c-19.4-19.4-34-41.1-43.4-64.4c-9.2-22.8-12.2-39.9-13.2-45.5c-0.1-0.5-0.2-0.9-0.2-1.2
	c-1.3-6.6-7.4-7.1-16.1-5.7c-3.6,0.6-14.7,2.3-13.7,10.2l0,0.2c2.9,18.5,8.1,36.6,15.4,53.8c11.7,27.7,28.5,52.6,49.9,74
	c21.4,21.4,46.3,38.1,74,49.9c28.7,12.1,59.2,18.3,90.6,18.3c31.4,0,61.9-6.2,90.6-18.3c27.7-11.7,52.6-28.5,74-49.9
	c0,0,1.2-1.2,1.9-1.9C398.7,439.4,400.7,434.9,391.4,425.6z"/>
</svg>
