<?xml version="1.0" encoding="utf-8"?>
<!-- Generator: Adobe Illustrator 16.0.0, SVG Export Plug-In . SVG Version: 6.00 Build 0)  -->
<!DOCTYPE svg PUBLIC "-//W3C//DTD SVG 1.1 Tiny//EN" "http://www.w3.org/Graphics/SVG/1.1/DTD/svg11-tiny.dtd">
<svg version="1.1" baseProfile="tiny" id="Layer_1" xmlns="http://www.w3.org/2000/svg" xmlns:xlink="http://www.w3.org/1999/xlink"
	 x="0px" y="0px" width="512px" height="512px" viewBox="0 0 512 512" xml:space="preserve">
<path fill="#010101" d="M503.492,327.809c-15.146-16.214-46.164-25.536-90.111-25.536c-23.467,0-50.666,2.347-80.213,7.894
	c-16.684-16.427-33.323-35.626-49.216-58.026c-11.307-15.787-21.184-32.427-30.293-48.854
	c17.344-54.187,25.728-98.347,25.728-130.133c0-35.669-12.864-72.875-49.92-72.875c-11.371,0-22.741,6.934-28.8,17.067
	c-16.704,30.037-9.173,95.851,19.563,160.854c-10.731,32.426-22.08,63.424-36.267,98.24c-12.331,29.354-26.539,59.605-41.024,87.381
	C59.653,397.611,5.765,437.078,0.709,468.012c-2.219,11.669,1.579,22.399,9.749,30.933c2.837,2.347,13.568,11.627,31.574,11.627
	c55.253,0,113.493-91.307,143.083-146.347c22.72-7.68,45.44-14.655,68.117-21.653c24.917-6.891,49.919-12.438,72.639-16.32
	c58.348,53.419,109.781,61.867,135.639,61.867c31.828,0,43.178-13.162,46.996-23.936c5.975-13.867,1.494-29.227-5.375-37.121
	l0.426,0.854L503.492,327.809z M473.945,350.294c-2.219,11.605-13.609,19.328-29.566,19.328c-4.48,0-8.32-0.789-12.865-1.536
	c-29.014-6.933-56.17-21.675-83.264-44.928c26.666-4.565,49.279-5.333,63.574-5.333c15.785,0,29.439,0.682,38.613,3.071
	c10.453,2.262,27.092,9.28,23.359,29.44h0.426L473.945,350.294z M313.455,313.878c-19.626,4.053-40.831,8.832-62.804,14.784
	c-17.408,4.757-35.542,10.112-53.76,16.427c9.877-19.242,18.219-37.846,25.771-55.531c9.131-21.76,16.64-44.16,24.213-64.98
	c7.467,13.013,15.787,26.24,24.107,37.973c13.653,18.561,27.947,36.268,42.239,51.627v-0.427L313.455,313.878z M214.255,26.198
	c3.093-6.187,9.173-9.302,14.464-9.302c15.893,0,18.922,18.518,18.922,33.28c0,24.917-7.552,62.763-20.48,105.962
	c-22.656-60.16-24.213-110.506-12.864-129.92L214.255,26.198z M131.013,386.667c-38.613,64.918-75.69,105.237-98.411,105.237
	c-4.48,0-8.256-1.6-11.307-3.903c-4.565-4.608-6.827-10.069-5.291-16.214c4.544-23.253,47.701-55.744,115.029-85.12H131.013z"/>
</svg>
