<?xml version="1.0" encoding="utf-8"?>
<!-- Generator: Adobe Illustrator 19.0.0, SVG Export Plug-In . SVG Version: 6.00 Build 0)  -->
<svg version="1.1" id="Layer_1" focusable="false" xmlns="http://www.w3.org/2000/svg" xmlns:xlink="http://www.w3.org/1999/xlink"
	 x="0px" y="0px" viewBox="-31 0 448 512" style="enable-background:new -31 0 448 512;" xml:space="preserve">
<path d="M346.7,32H39.3C0.4,32-31,63.4-31,102.3v307.5c0,38.8,31.4,70.3,70.3,70.3h307.5c38.5,0,69.8-31.1,70.3-69.6
	c-46-25.6-110.6-60.3-171.6-88.4c-32.1,44-84.1,81-148.6,81c-70.6,0-93.7-45.3-97-76.4c-4-39,14.9-81.5,99.5-81.5
	c35.4,0,79.3,10.3,127.1,25c16.5-30.1,26.5-60.3,26.5-60.3H74.6V193h92.1v-31.2H57.3v-19h109.4V92.3h50.9v50.4h109.4v19H217.6V193
	h88.8c0,0-15.2,46.6-38.4,90.9c48.9,16.7,100,36,148.6,52.7V102.3C416.8,63.6,385.4,32,346.7,32z M16.3,323
	c1,20.2,10.3,53.7,69.9,53.7c52.1,0,92.6-39.7,117.9-72.9c-44.6-18.7-84.5-31.4-109.4-31.4C27.2,272.4,15.3,305.4,16.3,323z"/>
</svg>
