<?xml version="1.0" encoding="utf-8"?>
<!-- Generator: Adobe Illustrator 16.0.0, SVG Export Plug-In . SVG Version: 6.00 Build 0)  -->
<!DOCTYPE svg PUBLIC "-//W3C//DTD SVG 1.1//EN" "http://www.w3.org/Graphics/SVG/1.1/DTD/svg11.dtd">
<svg version="1.1" id="Layer_2" xmlns="http://www.w3.org/2000/svg" xmlns:xlink="http://www.w3.org/1999/xlink" x="0px" y="0px"
	 width="512px" height="512px" viewBox="0 0 512 512" enable-background="new 0 0 512 512" xml:space="preserve">
<path d="M8.057,311.979c8.714,4.693,119.445,65.855,221.111,65.855c57.001,0,106.667,7.333,224.834-37.867
	c10.478-4.562,16.912,4.541,11.061,10.642c-47.895,39.892-150.561,70.226-229.844,64.771C137.501,409.5,56.168,367.5,3.616,320.526
	C-3.79,313.449,1.674,308.397,8.057,311.979z M90.928,113.725c-0.178-0.369-0.291-0.765-0.335-1.172
	c-0.334-2.263-0.67-4.609-1.089-6.872c-0.586-3.855-2.514-5.531-6.368-5.531h-9.636c-5.781,0-6.871,1.09-6.871,6.872
	c0,0,0,177.054,0.083,177.892c0.168,2.514,1.677,4.106,4.106,4.189c5.866,0.084,11.814,0.084,17.68,0c2.43,0,3.938-1.676,4.19-4.189
	c0.083-0.838,0.083-63.18,0.083-63.18c0.922,0.754,1.425,1.173,1.843,1.592c14.999,12.485,32.261,16.591,51.114,12.904
	c17.094-3.352,28.992-13.826,36.702-29.244c5.865-11.647,8.295-24.048,8.63-36.952c0.419-14.329-1.005-28.407-6.788-41.729
	c-7.122-16.423-22.514-31.095-44.996-32.176C121.008,95.25,104.35,102.435,90.928,113.725z M92.604,131.154
	c-0.098-1.12,0.457-2.194,1.425-2.765c11.479-7.96,24.132-12.149,38.209-11.061c12.485,0.921,22.708,7.039,28.07,21.702
	c6.438,13.853,3.992,41.032,0.754,53.292c-5.698,17.848-18.77,24.635-35.695,23.881c-11.731-0.502-21.954-5.027-31.338-11.647
	c-0.955-0.583-1.504-1.649-1.425-2.765c0.084-11.814,0-23.545,0-35.36C92.604,154.617,92.688,142.969,92.604,131.154L92.604,131.154
	z M223.32,104.676c-3.016,1.005-4.524,3.184-4.44,6.452c0.083,2.765-0.084,5.53,0,8.296c0.083,4.021,1.759,5.111,5.698,4.105
	c6.536-1.676,13.071-3.52,19.691-4.776c10.306-1.927,20.696-2.765,31.171-1.173c5.446,0.838,10.558,2.43,14.077,7.039
	c3.101,4.022,4.273,8.799,4.441,13.742c0.251,6.955,0.627,22.042,0.535,22.428c-0.419-0.084-32.467-9.591-56.258-1.313
	c-13.61,3.399-31.61,18.649-27.903,46.589c2.417,23.31,26.792,35.185,49.689,31.087c15.229-2.152,26.729-9.027,35.109-16.34
	c0.503,3.184,0.922,6.201,1.508,9.217c0.504,2.598,2.095,4.273,4.525,4.357c4.523,0.083,9.133,0.083,13.658,0
	c2.183-0.017,3.959-1.757,4.022-3.938c0.07-0.78,0.083-91.167,0.083-91.167c0-12.032-1.928-27.532-16.675-36.282
	c-5.614-3.352-17.378-7.039-27.316-7.039C255.991,95.961,236.375,99.5,223.32,104.676z M294.293,203.049
	c0.064,1.003-0.416,1.963-1.258,2.513c-9.385,6.788-19.69,11.313-31.338,12.486c-12.114,1.536-21.947-3.714-24.467-12.653
	c-4.48-14.895,2.603-26.561,13.658-29.327c14.862-4.651,34.69,0.083,41.729,1.006c1.341,0.167,1.759,0.837,1.759,2.178
	C294.293,183.273,294.209,199.11,294.293,203.049z M512.07,311.477c-0.839-4.19-4.022-5.782-7.626-6.955
	c-23.708-7.764-61.329-3.749-83.96,11.396c-5.934,3.903-4.589,8.709,1.342,7.708c18.537-3.008,48.129-4.957,60.329-0.586
	c4.274,1.173,6.201,4.357,6.368,8.714c1.274,13.181-11.312,44.912-16.172,57.314c-2.281,4.385,0.471,8.743,6.62,3.855
	c21.493-18.513,30.898-50.745,33.099-66.951V311.477L512.07,311.477z M363.673,104.256c-0.921-2.43-2.682-4.022-5.362-4.022
	c-6.368-0.084-12.736-0.167-19.188-0.084c-3.589-0.075-3.287,3.613-1.09,8.882c16.423,40.64,32.931,81.279,49.521,121.919
	c1.425,3.435,1.76,6.368,0.168,9.887c-2.765,6.117-4.944,12.569-7.794,18.686c-2.513,5.447-6.702,9.553-12.736,11.145
	c-4.207,1.1-11.48,1.782-19.188,0.084c-2.849-0.168-4.273,1.09-4.356,4.022c-0.084,2.793-0.084,5.558,0,8.295
	c0.083,4.608,1.675,6.703,6.2,7.458c4.669,0.93,9.403,1.489,14.16,1.676c14.328,0.335,25.726-5.447,33.099-17.933
	c2.967-4.93,5.546-10.084,7.709-15.417c19.858-50.108,39.578-100.272,59.158-150.492c1.919-5.622,2.121-8.296-1.761-8.296
	c-5.53-0.083-11.145,0-16.675,0c-2.896-0.203-5.558,1.595-6.452,4.357c-0.418,1.173-36.952,105.831-36.952,105.831
	S365.433,108.949,363.673,104.256z"/>
</svg>
