<?xml version="1.0" encoding="utf-8"?>
<!-- Generator: Adobe Illustrator 21.1.0, SVG Export Plug-In . SVG Version: 6.00 Build 0)  -->
<svg version="1.1" id="Layer_1" xmlns="http://www.w3.org/2000/svg" xmlns:xlink="http://www.w3.org/1999/xlink" x="0px" y="0px"
	 viewBox="0 0 510.9 512" style="enable-background:new 0 0 510.9 512;" xml:space="preserve">
<g>
	<path d="M256.4,460c-54.5,0-105.7-21.2-144.3-59.7C73.6,361.7,52.4,310.5,52.4,256s21.2-105.7,59.7-144.3
		C150.6,73.2,201.9,52,256.4,52s105.7,21.2,144.3,59.7c38.5,38.5,59.7,89.8,59.7,144.3s-21.2,105.7-59.7,144.3
		C362.1,438.8,310.9,460,256.4,460 M256.4,512c141.4,0,256-114.6,256-256S397.8,0,256.4,0S0.4,114.6,0.4,256S115,512,256.4,512
		L256.4,512z"/>
	<path d="M140.9,326.1l-14.1,24.3c-5.4,9.4-2.3,21.5,7.2,26.9c9.4,5.4,21.5,2.3,26.9-7.2l19-32.8C169.7,325,156.7,321.3,140.9,326.1
		z M275.3,277.6h-61.2l84.5-146.4c5.4-9.4,2.3-21.5-7.2-26.9c-9.4-5.4-21.5-2.3-26.9,7.2l-8.8,15.2l-8.8-15.2
		c-5.4-9.4-17.4-12.6-26.9-7.2c-9.4,5.4-12.6,17.4-7.2,26.9l20.2,34.9l-64.4,111.5h-50.2c-10.8,0-19.7,8.9-19.7,19.7
		c0,10.8,8.9,19.7,19.7,19.7h179.2C306.3,301,295.2,277.6,275.3,277.6z M394.3,277.6h-51.2c-25.8-44.6-45.1-78.1-58-100.5
		c-11.7,9.7-23.4,38.2-7,66.8c16.3,28,40.5,70.1,72.9,126.2c5.4,9.4,17.4,12.6,26.9,7.2c9.4-5.4,12.6-17.4,7.2-26.9L365.7,317h28.6
		c10.8,0,19.7-8.8,19.7-19.7C414,286.5,405.1,277.6,394.3,277.6z"/>
</g>
</svg>
