<?xml version="1.0" encoding="utf-8"?>
<!-- Generator: Adobe Illustrator 21.1.0, SVG Export Plug-In . SVG Version: 6.00 Build 0)  -->
<svg version="1.1" id="Layer_1" xmlns="http://www.w3.org/2000/svg" xmlns:xlink="http://www.w3.org/1999/xlink" x="0px" y="0px"
	 viewBox="0 0 512 512" style="enable-background:new 0 0 512 512;" xml:space="preserve">
<g>
	<path d="M256,0C114.6,0,0,114.6,0,256s114.6,256,256,256s256-114.6,256-256S397.3,0,256,0z M145.1,386.9
		c-6.3,11-20.3,14.6-31.2,8.3c-11-6.3-14.6-20.3-8.3-31.2l16.3-28.2c18.4-5.6,33.5-1.3,45.3,13L145.1,386.9z M303.9,325.3H96
		c-12.6,0-22.9-10.3-22.9-22.9c0-12.6,10.3-22.9,22.9-22.9h58.3L229,150.2l-23.4-40.5c-6.3-11-2.5-24.9,8.3-31.2
		c11-6.3,24.9-2.5,31.2,8.3l10.2,17.6l10.2-17.6c6.3-11,20.3-14.6,31.2-8.3c11,6.3,14.6,20.3,8.3,31.2L207,279.5h71
		C301,279.5,313.9,306.6,303.9,325.3z M416,325.3h-33.1l22.4,38.7c6.3,11,2.5,24.9-8.4,31.2c-11,6.3-24.9,2.5-31.2-8.3
		c-37.6-65-65.7-114-84.6-146.4c-19.1-33.2-5.5-66.3,8.1-77.5c15,25.9,37.4,64.8,67.3,116.6H416c12.6,0,22.9,10.3,22.9,22.9
		C438.9,315.1,428.6,325.3,416,325.3z"/>
</g>
</svg>
