<?xml version="1.0" encoding="utf-8"?>
<!-- Generator: Adobe Illustrator 21.1.0, SVG Export Plug-In . SVG Version: 6.00 Build 0)  -->
<svg version="1.1" id="Layer_1" xmlns="http://www.w3.org/2000/svg" xmlns:xlink="http://www.w3.org/1999/xlink" x="0px" y="0px"
	 viewBox="0 0 640 512" style="enable-background:new 0 0 640 512;" xml:space="preserve">
<path d="M609.2,193L573,308.1L537.4,193h-31.6L557,334.9l-2.8,8.6c-4.6,14.6-12.1,20.3-25.5,20.3c-2.4,0-7-0.3-8.9-0.5v23.4
	c1.8,0.4,11.6,0.7,11.6,0.7c29.5,0,43.4-11.3,55.5-45.4L640,193H609.2z M436.8,191.1c-32.1,0-55.9,18.4-56.8,43.6h27.3
	c2.3-12,13.4-19.9,28.6-19.9c18.5,0,28.9,8.6,28.9,24.5v10.8l-37.8,2.3c-35.1,2.1-54.1,16.5-54.1,41.5c0.1,25.2,19.7,42,47.8,42
	c19,0,36.6-9.6,44.6-24.9h0.6v23.4h28v-97C493.9,209.3,471.4,191.1,436.8,191.1z M464.9,281.6c0,18.2-15.5,31.2-36,31.2
	c-16.1,0-26.4-7.8-26.4-19.6c0-12.3,9.9-19.4,28.8-20.5l33.6-2.1V281.6z M304.5,139.5h-76.3v194.9h30.3v-66.5h46
	c33.5,0,60.7-27.2,60.7-60.7v-7C365.2,166.7,338,139.5,304.5,139.5z M335,205.8c0,20.2-16.4,36.6-36.6,36.6h-39.6V165h39.6
	c20.2,0,36.6,16.4,36.6,36.6V205.8z M143.7,237.1c-0.3-26.8,21.9-39.5,22.9-40.3c-12.5-18.6-32-20.6-38.8-21.1
	c-17.4-1-32.3,9.9-40.5,9.9c-8.4,0-21-9.4-34.8-9.1C34.6,176.8,18,186.9,8.9,203C-9.9,235.3,4,283,22.2,309.3
	c8.9,13,19.5,27.3,33.5,26.8c13.3-0.5,18.5-8.6,34.5-8.6c16.1,0,20.8,8.6,34.8,8.4c14.5-0.3,23.6-13,32.5-26
	c10.1-14.8,14.3-29.1,14.5-29.9C171.7,279.7,144,269.1,143.7,237.1z M116.9,158.5c7.4-9.1,12.3-21.4,11.1-33.8
	c-10.7,0.5-23.8,7-31.3,16.1c-6.9,7.8-12.8,20.6-11.3,32.6C97.4,174.4,109.4,167.4,116.9,158.5z"/>
</svg>
