<?xml version="1.0" encoding="utf-8"?>
<!-- Generator: Adobe Illustrator 21.1.0, SVG Export Plug-In . SVG Version: 6.00 Build 0)  -->
<svg version="1.1" id="Layer_1" xmlns="http://www.w3.org/2000/svg" xmlns:xlink="http://www.w3.org/1999/xlink" x="0px" y="0px"
	 viewBox="0 0 415.5 512" style="enable-background:new 0 0 415.5 512;" xml:space="preserve">
<g>
	<path d="M346.7,271.5c0-41.4,22.4-77.6,55.6-97.2c-24.2-32.8-59.6-50.3-95.7-50.3c-36.3,0-64.1,23.1-90.2,23.1
		c-27.7,0-53.7-23.1-90-23.1C62.2,124,0,179.9,0,278.5C0,377.1,69.2,511,133.5,511c34.5,0,48.8-20.2,83-20.2
		c37,0,48.5,20.2,83.1,20.2c44.5,0,91.3-63.7,116-135.6C375.1,358.3,346.7,318.2,346.7,271.5z"/>
	<path d="M285.1,81.6c19.7-23.5,27.4-53.2,23.5-81.6C280,1.1,252,13.7,232.3,37.2c-19.7,23.5-27.3,53.2-23.5,81.6
		C237.4,117.7,265.4,105.1,285.1,81.6z"/>
</g>
</svg>
