<?xml version="1.0" encoding="utf-8"?>
<!-- Generator: Adobe Illustrator 21.1.0, SVG Export Plug-In . SVG Version: 6.00 Build 0)  -->
<svg version="1.1" id="Layer_1" xmlns="http://www.w3.org/2000/svg" xmlns:xlink="http://www.w3.org/1999/xlink" x="0px" y="0px"
	 viewBox="0 0 576 512" style="enable-background:new 0 0 576 512;" xml:space="preserve">
<path d="M232.9,243.1c0,0,54-3.7,54-70s-45-97.6-100.8-97.6H0.7v364.8h187.2c0,0,113.4,3.7,113.4-108.7
	C299.5,335.3,304.8,243.1,232.9,243.1z M83.5,141.8h90h12.6c0,0,25.2,0,25.2,38.7s-14.4,44.3-32.4,44.3H83.5V141.8z M182.5,377.7
	h-99V280h104.4c0,0,37.8,0,37.8,49.7C223.9,372.1,196.9,377.7,182.5,377.7z"/>
<path d="M450.6,167.2c-136.8,0-136.8,136.8-136.8,136.8s-9,136.8,136.8,136.8c0,0,122.4,7.2,122.4-95.4h-63c0,0,1.8,37.8-57.6,37.8
	c0,0-63,3.6-63-63h185.4C574.8,322,596.4,167.2,450.6,167.2z M506.4,275.3H389.5c0,0,7.2-55.8,63-55.8
	C508.3,219.5,506.4,275.3,506.4,275.3z"/>
<rect x="375" y="97" width="147.6" height="36"/>
</svg>
