<?xml version="1.0" encoding="utf-8"?>
<!-- Generator: Adobe Illustrator 21.1.0, SVG Export Plug-In . SVG Version: 6.00 Build 0)  -->
<svg version="1.1" xmlns="http://www.w3.org/2000/svg" xmlns:xlink="http://www.w3.org/1999/xlink" x="0px" y="0px"
	 viewBox="0 0 512 512" style="enable-background:new 0 0 512 512;" xml:space="preserve">
<g>
	<path d="M211.2,262.4h-46.4v43.2H208c6.4,0,19.2-1.6,19.2-20.8C227.2,262.4,211.2,262.4,211.2,262.4z"/>
	<path d="M329.6,238.4c-24,0-27.2,24-27.2,24h52.8C353.6,262.4,353.6,238.4,329.6,238.4z"/>
	<path d="M222.4,219.2c0-16-11.2-16-11.2-16h-6.4h-40v35.2H208C216,238.4,222.4,236.8,222.4,219.2z"/>
	<path d="M256,0C115.2,0,0,115.2,0,256s115.2,256,256,256s256-115.2,256-256S396.8,0,256,0z M294.4,184H360v19.2h-65.6V184z
		 M260.8,286.4c0,48-51.2,46.4-51.2,46.4H128V174.4h83.2c25.6,0,44.8,14.4,44.8,41.6s-24,30.4-24,30.4
		C264,248,260.8,286.4,260.8,286.4z M384,284.8h-81.6c0,28.8,27.2,27.2,27.2,27.2c25.6,0,25.6-17.6,25.6-17.6h27.2
		c0,44.8-54.4,41.6-54.4,41.6c-65.6,0-60.8-60.8-60.8-60.8s0-60.8,60.8-60.8C392,216,384,284.8,384,284.8z"/>
</g>
</svg>
