<?xml version="1.0" encoding="utf-8"?>
<!-- Generator: Adobe Illustrator 19.0.0, SVG Export Plug-In . SVG Version: 6.00 Build 0)  -->
<svg version="1.1" id="Layer_1" focusable="false" xmlns="http://www.w3.org/2000/svg" xmlns:xlink="http://www.w3.org/1999/xlink"
	 x="0px" y="0px" viewBox="0 0 512 512" style="enable-background:new 0 0 512 512;" xml:space="preserve">
<path d="M166,116.9c0,23.4-16.4,49.1-72.5,49.1H23.4l21-88.8h67.8C154.3,77.2,166,100.5,166,116.9z M292.2,77.2h-67.8L205.7,166
	h70.1c53.8,0,70.1-25.7,70.1-49.1C346,100.5,334.3,77.2,292.2,77.2L292.2,77.2z M88.8,208.1H21L0,296.9h70.1
	c56.1,0,72.5-23.4,72.5-49.1C142.6,231.5,130.9,208.1,88.8,208.1L88.8,208.1z M268.9,208.1h-67.8l-18.7,88.8h70.1
	c53.8,0,70.1-23.4,70.1-49.1C322.6,231.5,310.9,208.1,268.9,208.1L268.9,208.1z M458.2,154.3h-67.8l-18.7,88.8h70.1
	c53.8,0,70.1-23.4,70.1-49.1C512,177.7,500.3,154.3,458.2,154.3z M430.2,292.2h-67.8L343.7,381h70.1c56.1,0,70.1-23.4,70.1-49.1
	C483.9,315.6,472.3,292.2,430.2,292.2L430.2,292.2z M240.8,346H173l-18.7,88.8h70.1c56.1,0,70.1-25.7,70.1-49.1
	C294.6,369.4,282.9,346,240.8,346L240.8,346z"/>
</svg>
