<?xml version="1.0" encoding="utf-8"?>
<!-- Generator: Adobe Illustrator 21.1.0, SVG Export Plug-In . SVG Version: 6.00 Build 0)  -->
<svg version="1.1" id="Layer_1" xmlns="http://www.w3.org/2000/svg" xmlns:xlink="http://www.w3.org/1999/xlink" x="0px" y="0px"
	 viewBox="0 0 558.3 512" style="enable-background:new 0 0 558.3 512;" xml:space="preserve">
<g>
	<g>
		<path d="M131.4,40.8h-77L30.8,148.6l88.2-0.7c28.3-1.6,62.9-28.6,62.9-56.5S159.7,40.8,131.4,40.8z M330.3,40.8h-77l-23.6,107.8
			l88.2-0.7c28.3-1.6,62.9-28.6,62.9-56.5S358.6,40.8,330.3,40.8z M507.7,137.5h-77l-23.6,107.8l88.2-0.7
			c28.3-1.6,62.9-28.6,62.9-56.5C558.2,160.2,535.9,137.5,507.7,137.5z M476.9,306h-77l-23.6,107.8l88.2-0.7
			c28.3-1.6,62.9-28.6,62.9-56.5S505.1,306,476.9,306z M299.5,203.1h-77l-23.6,107.8l88.2-0.7c28.3-1.6,62.9-28.6,62.9-56.5
			C350.1,225.7,327.8,203.1,299.5,203.1z M100.6,203.1h-77L0,310.8l88.2-0.7c28.3-1.6,62.9-28.6,62.9-56.5
			C151.2,225.7,128.9,203.1,100.6,203.1z M271.8,365.3h-77l-23.6,107.8l88.2-0.7c28.3-1.6,62.9-28.6,62.9-56.5
			C322.3,388,300.1,365.3,271.8,365.3z"/>
	</g>
</g>
</svg>
