<?xml version="1.0" encoding="utf-8"?>
<!-- Generator: Adobe Illustrator 21.1.0, SVG Export Plug-In . SVG Version: 6.00 Build 0)  -->
<svg version="1.1" xmlns="http://www.w3.org/2000/svg" xmlns:xlink="http://www.w3.org/1999/xlink" x="0px" y="0px"
	 viewBox="0 0 512 512" style="enable-background:new 0 0 512 512;" xml:space="preserve">
<path d="M497.5,197.4c-11.2-4.8-57.8,0-70.6-11.2c-9.6-8-9.6-24.1-12.8-43.3c-6.4-33.7-8-41.7-14.4-54.6C377.1,40.1,322.6,0,274.4,0
	H160.5C72.2-1.6,0,72.2,0,160.5v189.4C0,439.4,72.6,512,162.2,512h186c89.9,0,162.1-72.2,162.1-162.1l1.6-131.6
	C512,215,510.3,202.2,497.5,197.4z M163.7,132h89.9c17.7,0,30.5,14.4,30.5,30.5c0,17.7-14.4,30.5-30.5,30.5h-89.9
	c-17.7,0-30.5-14.4-30.5-30.5C133.2,144.8,146,132,163.7,132z M346.7,379h-183c-17.7,0-30.5-14.4-30.5-30.5
	c0-17.7,14.4-30.5,30.5-30.5h183c17.7,0,30.5,14.4,30.5,30.5C377.2,364.6,362.7,379,346.7,379z"/>
</svg>
