<?xml version="1.0" encoding="utf-8"?>
<!-- Generator: Adobe Illustrator 21.1.0, SVG Export Plug-In . SVG Version: 6.00 Build 0)  -->
<svg version="1.1" id="Layer_1" xmlns="http://www.w3.org/2000/svg" xmlns:xlink="http://www.w3.org/1999/xlink" x="0px" y="0px"
	 viewBox="0 0 512 512" style="enable-background:new 0 0 512 512;" xml:space="preserve">
<path d="M441,0H71C31.8,0,0,31.8,0,71v370c0,39.2,31.8,71,71,71h370c39.2,0,71-31.8,71-71V71C512,31.8,480.2,0,441,0z M382.7,304.4
	c0,44.7-36.7,79.8-81.4,79.8h-92.6c-43.1,0-79.8-36.7-79.8-79.8v-94.2c0-44.7,36.7-81.4,81.4-81.4h55.9c24,0,51.1,20.8,62.3,44.7
	c3.2,6.4,4.8,11.2,8,27.2c1.6,9.6,1.6,17.6,6.4,22.4c6.4,6.4,28.7,3.2,35.1,4.8c6.4,3.2,6.4,11.2,6.4,11.2L382.7,304.4z
	 M301.2,286.8h-91c-8,0-16,6.4-16,16c0,8,6.4,16,16,16h91c8,0,16-6.4,16-16S310.8,286.8,301.2,286.8z M210.2,226.2h44.7
	c8,0,16-6.4,16-16c0-8-6.4-16-16-16h-44.7c-8,0-16,6.4-16,16C195.8,218.2,202.2,226.2,210.2,226.2z"/>
</svg>
