<?xml version="1.0" encoding="utf-8"?>
<!-- Generator: Adobe Illustrator 21.1.0, SVG Export Plug-In . SVG Version: 6.00 Build 0)  -->
<svg version="1.1" xmlns="http://www.w3.org/2000/svg" xmlns:xlink="http://www.w3.org/1999/xlink" x="0px" y="0px"
	 viewBox="0 0 512 512" style="enable-background:new 0 0 512 512;" xml:space="preserve">
<path d="M256,0C115.2,0,0,115.2,0,256s115.2,256,256,256s256-115.2,256-256S396.8,0,256,0z M362.8,300.4c0,37.8-30.3,68.1-68.1,68.1
	h-78.1c-37.6,0-68.1-30.5-68.1-68.1v-79.5c0-37.1,30.3-68.1,67.4-67.4h47.8c20.2,0,43.1,16.8,52.6,37.1c2.7,5.4,3.4,8.8,6,22.9
	c1.3,8.1,1.3,14.8,5.4,18.2c5.4,4.7,24.9,2.7,29.7,4.7c5.4,2,6.1,7.4,6,8.8L362.8,300.4z M294.1,287h-76.9
	c-6.8,0-12.8,5.4-12.8,12.8c0,6.8,5.4,12.8,12.8,12.8h76.9c6.7,0,12.8-6,12.8-12.8S301.5,287,294.1,287z M217.3,234.5H255
	c6.8,0,12.8-5.4,12.8-12.8c0-6.8-5.4-12.8-12.8-12.8h-37.8c-7.4,0-12.8,5.4-12.8,12.8C204.5,228.5,209.8,234.5,217.3,234.5z"/>
</svg>
