<?xml version="1.0" encoding="utf-8"?>
<!-- Generator: Adobe Illustrator 21.1.0, SVG Export Plug-In . SVG Version: 6.00 Build 0)  -->
<svg version="1.1" id="social-rss-circle.svg" xmlns="http://www.w3.org/2000/svg" xmlns:xlink="http://www.w3.org/1999/xlink"
	 x="0px" y="0px" viewBox="0 0 512 512" style="enable-background:new 0 0 512 512;" xml:space="preserve">
<path d="M256,0C115.2,0,0,115.2,0,256s115.2,256,256,256s256-115.2,256-256S396.8,0,256,0z M377.6,329.6l-116.8,52.8
	c-3.2,1.6-8,1.6-11.2,0l-116.8-52.8c-3.2-1.6-3.2-6.4,0-8l24-11.2c3.2-1.6,8-1.6,11.2,0l81.6,36.8c3.2,1.6,8,1.6,11.2,0l81.6-36.8
	c3.2-1.6,8-1.6,11.2,0l24,11.2C380.8,323.2,380.8,328,377.6,329.6z M377.6,260.8l-116.8,52.8c-3.2,1.6-8,1.6-11.2,0l-116.8-52.8
	c-3.2-1.6-3.2-6.4,0-8l24-11.2c3.2-1.6,8-1.6,11.2,0l81.6,36.8c3.2,1.6,8,1.6,11.2,0l81.6-36.8c3.2-1.6,8-1.6,11.2,0l24,11.2
	C380.8,254.4,380.8,259.2,377.6,260.8z M377.6,192l-116.8,52.8c-3.2,1.6-8,1.6-11.2,0L134.4,192c-3.2-1.6-3.2-6.4,0-8l115.2-54.4
	c4.8-1.6,8-1.6,12.8,0L377.6,184C380.8,185.6,380.8,190.4,377.6,192z"/>
</svg>
