<?xml version="1.0" encoding="utf-8"?>
<!-- Generator: Adobe Illustrator 21.1.0, SVG Export Plug-In . SVG Version: 6.00 Build 0)  -->
<svg version="1.1" xmlns="http://www.w3.org/2000/svg" xmlns:xlink="http://www.w3.org/1999/xlink" x="0px" y="0px"
	 viewBox="0 0 499 512" style="enable-background:new 0 0 499 512;" xml:space="preserve">
<g>
	<path d="M4.8,126.9l233.4,107.3c6.4,3.2,14.5,3.2,22.5,0l233.4-107.3c6.4-3.2,6.4-12.8,0-16L262.4,3.6c-8-4.8-17.7-4.8-25.8,0
		L4.8,110.9C-1.6,114.1-1.6,123.7,4.8,126.9z"/>
	<path d="M493.2,250.2l-48-22.4c-6.4-3.2-14.4-3.2-22.4,0L259.4,303c-6.4,3.2-14.4,3.2-22.4,0L75.3,227.8c-6.4-3.2-14.4-3.2-22.4,0
		l-48,22.4c-6.4,3.2-6.4,12.8,0,16L237,373.5c6.4,3.2,14.4,3.2,22.4,0l232.2-107.3C501.2,263,501.2,253.4,493.2,250.2z"/>
	<path d="M493.2,386.3l-48-22.4c-6.4-3.2-14.4-3.2-22.4,0l-163.3,75.3c-6.4,3.2-14.4,3.2-22.4,0L75.3,363.9
		c-6.4-3.2-14.4-3.2-22.4,0l-48,22.4c-6.4,3.2-6.4,12.8,0,16L237,509.6c6.4,3.2,14.4,3.2,22.4,0l232.2-107.3
		C501.2,400.7,501.2,389.5,493.2,386.3z"/>
</g>
</svg>
