<?xml version="1.0" encoding="utf-8"?>
<!-- Generator: Adobe Illustrator 16.0.0, SVG Export Plug-In . SVG Version: 6.00 Build 0)  -->
<!DOCTYPE svg PUBLIC "-//W3C//DTD SVG 1.1 Tiny//EN" "http://www.w3.org/Graphics/SVG/1.1/DTD/svg11-tiny.dtd">
<svg version="1.1" baseProfile="tiny" id="Layer_1" xmlns="http://www.w3.org/2000/svg" xmlns:xlink="http://www.w3.org/1999/xlink"
	 x="0px" y="0px" width="512px" height="512px" viewBox="0 0 512 512" xml:space="preserve">
<path fill="#010101" d="M1.14,308.712v79.703c0,43.992,114.288,79.661,255.392,79.661v-79.661
	c-141.104,0-255.392-35.755-255.392-79.661V308.712L1.14,308.712z M456.246,358.364l-199.715-49.652v79.703l199.715,49.651
	c34.819-13.619,55.676-30.859,55.676-49.651v-79.703C511.922,327.483,491.065,344.722,456.246,358.364z M256.531,229.072v79.64
	c-141.04,0-255.392-35.691-255.392-79.682v-79.832c0-43.927,114.288-79.661,255.392-79.661c140.997,0,255.391,35.755,255.391,79.682
	v79.811c0,18.792-20.856,35.968-55.676,49.673l-199.715-49.695V229.072z"/>
</svg>
