<?xml version="1.0" encoding="utf-8"?>
<!-- Generator: Adobe Illustrator 19.0.0, SVG Export Plug-In . SVG Version: 6.00 Build 0)  -->
<svg version="1.1" id="Layer_1" focusable="false" xmlns="http://www.w3.org/2000/svg" xmlns:xlink="http://www.w3.org/1999/xlink"
	 x="0px" y="0px" viewBox="-7 0 496 512" style="enable-background:new -7 0 496 512;" xml:space="preserve">
<path d="M124.5,217.5L48.1,100.1c47.6-59.2,119-91.8,192-92.1c42.3-0.3,85.5,10.5,124.8,33.2c43.4,25.2,76.4,61.4,97.4,103
	L257,133.4C198.9,130,143.6,162.7,124.5,217.5z M157.4,256c0,46.2,37.4,83.6,83.6,83.6s83.6-37.4,83.6-83.6s-37.4-83.6-83.6-83.6
	S157.4,209.7,157.4,256z M472.3,166.8L332.6,174c37.9,44.3,38.5,108.2,6.6,157.2L227.1,503.6c46.5,2.5,94.4-7.7,137.8-32.9
	C472.3,408.7,515.8,278.7,472.3,166.8L472.3,166.8z M126.7,303.6L33.4,120.1C7.9,159.1-7,205.9-7,256c0,124,90.8,226.7,209.5,244.9
	l63.7-124.8C208.6,386.9,153,355.3,126.7,303.6L126.7,303.6z"/>
</svg>
