<?xml version="1.0" encoding="utf-8"?>
<!-- Generator: Adobe Illustrator 21.1.0, SVG Export Plug-In . SVG Version: 6.00 Build 0)  -->
<svg version="1.1" id="Layer_1" xmlns="http://www.w3.org/2000/svg" xmlns:xlink="http://www.w3.org/1999/xlink" x="0px" y="0px"
	 viewBox="0 0 550 512" style="enable-background:new 0 0 550 512;" xml:space="preserve">
<g>
	<path d="M17.3,191.2c-9.5,0-17.3,7.7-17.3,17.2V233v0.2c0.1,4.6,2,8.9,5.4,12.1c3.2,3.1,7.4,4.8,11.9,4.8c0.2,0,0.3,0,0.5,0
		c9.2-0.3,16.6-7.7,16.8-16.9v-24.8C34.6,198.9,26.8,191.2,17.3,191.2z"/>
	<path d="M351.4,164c-3.3-3.2-7.7-4.8-12.3-4.8c-9.2,0.2-16.6,7.6-16.8,16.8v56.9c-0.1,4.6,1.7,8.9,5,12.2c3.2,3.3,7.6,5.1,12.2,5.1
		c9.5,0,17.3-7.8,17.3-17.3v-56.8V176C356.6,171.4,354.7,167.1,351.4,164z"/>
	<path d="M468.3,158.9c-9.5,0-17.3,7.8-17.3,17.3v56.9c0.1,9.5,7.8,17.2,17.3,17.2c9.6,0,17.4-7.8,17.4-17.3v-56.9
		C485.6,166.7,477.8,158.9,468.3,158.9z"/>
	<path d="M81.7,158.9c-9.5,0-17.3,7.8-17.3,17.3V233c0,9.6,7.8,17.3,17.3,17.3S99,242.6,99,233.1v-56.9
		C99,166.7,91.2,158.9,81.7,158.9z"/>
	<path d="M210.6,158.9c-9.5,0-17.3,7.8-17.3,17.3V233c0,9.5,7.8,17.3,17.2,17.3c0.1,0,0.1,0,0.2,0c4.5,0,8.8-1.8,12.1-5
		c3.3-3.3,5.1-7.6,5.1-12.3v-56.8C227.9,166.7,220.1,158.9,210.6,158.9z"/>
	<path d="M146.2,114.8c-9.5,0-17.3,7.8-17.3,17.3v124.4v0.2c0.1,4.6,2,8.9,5.4,12.1c3.2,3.1,7.4,4.8,11.9,4.8c0.2,0,0.3,0,0.5,0
		c9.2-0.2,16.6-7.6,16.8-16.8v-0.1V132.1C163.4,122.5,155.7,114.8,146.2,114.8z"/>
	<path d="M532.7,191.1c-9.5,0-17.3,7.8-17.3,17.3V233c0,9.5,7.8,17.3,17.3,17.3S550,242.5,550,233v-24.6
		C550,198.9,542.2,191.1,532.7,191.1z"/>
	<path d="M403.9,114.7c-9.5,0-17.3,7.8-17.3,17.3v124.3c-0.3,9.5,7,17.4,16.4,17.8c0.3,0,0.6,0,0.9,0c4.3,0,8.4-1.6,11.6-4.5
		c3.4-3.1,5.4-7.4,5.6-12v-0.1V132C421.2,122.5,413.4,114.7,403.9,114.7z"/>
	<path d="M275.1,191.2c-9.5,0-17.3,7.7-17.3,17.2V233c0,9.5,7.8,17.3,17.3,17.3c9.5,0,17.3-7.8,17.3-17.3v-24.6
		C292.2,198.9,284.5,191.2,275.1,191.2z"/>
	<path d="M155.5,403.6h24.1V308h-24.1V403.6z M301.2,355.8c0,30.8,23.8,49.5,50.9,49.5c10.7,0,19-2.5,22-3.4v-25.7
		c-1.1,0.6-8.9,5.1-20.3,5.1c-16,0-26.4-11.3-26.4-25.5c0-14.7,10.8-25.5,26.4-25.5c11.6,0,19.3,4.6,20.3,5.1v-25.7
		c-2.3-0.7-10.6-3.5-22-3.5C322.7,306.3,301.2,327.3,301.2,355.8z M255.1,345.9l-6.6-2.1c-4-1.2-11-3.3-11-9.1
		c0-4.6,5.3-7.8,14.9-7.8c8.3,0,18.5,2.8,18.9,2.9v-20.4c-0.7-0.2-11.8-3.1-23.5-3.1c-22.2,0-35.6,12-35.6,29.9
		c0,15.8,11.2,23.7,24.6,28c1.5,0.5,3.7,1.2,5.2,1.6c6,1.9,10.8,4.7,10.8,9.5c0,5.4-5.5,8.9-17.5,8.9c-10.5,0-20.7-3-22.8-3.6v22
		c1.2,0.2,13.2,2.6,26,2.6c18.5,0,39.6-8,39.6-32.1C277.8,361.6,270.7,350.9,255.1,345.9z M450,306.3c-29.4,0-50.5,22.2-50.5,49.5
		c0,27.4,21.1,49.5,50.5,49.5s50.5-22.1,50.5-49.5C500.5,328.5,479.4,306.3,450,306.3z M450,381c-14.3,0-24.9-11.3-24.9-25.1
		s10.6-25.1,24.9-25.1s24.9,11.3,24.9,25.1C474.9,369.7,464.3,381,450,381z M49.5,355.8c0,30.8,23.8,49.5,50.9,49.5
		c10.8,0,19-2.5,22-3.4v-25.7c-1,0.6-8.9,5.1-20.3,5.1c-16.1,0-26.5-11.3-26.5-25.5c0-14.7,10.8-25.5,26.5-25.5
		c11.6,0,19.3,4.6,20.3,5.1v-25.7c-2.3-0.7-10.6-3.5-22-3.5C71.1,306.3,49.5,327.3,49.5,355.8z"/>
</g>
</svg>
