<?xml version="1.0" encoding="utf-8"?>
<!-- Generator: Adobe Illustrator 21.1.0, SVG Export Plug-In . SVG Version: 6.00 Build 0)  -->
<svg version="1.1" xmlns="http://www.w3.org/2000/svg" xmlns:xlink="http://www.w3.org/1999/xlink" x="0px" y="0px"
	 viewBox="0 0 501 512" style="enable-background:new 0 0 501 512;" xml:space="preserve">
<path d="M270,5.4c-11.8-7.6-27-7.5-38.7,0.4l-215,144.5C6.1,157.1,0,168.7,0,181.1v150.7c0,12.5,6.1,24.1,16.3,30.9l214.2,143.5
	c12.1,8.1,27.9,7.9,39.8-0.4l215.1-151.1c9.8-6.9,15.6-18.3,15.6-30.5V175c0-12.7-6.3-24.5-16.8-31.2L270,5.4z M273,56.6l170,116.5
	l-75.6,51.8L273,160.2C273,160.2,273,56.6,273,56.6z M229,56.6v103.6l-94.5,64.7L59,173.1L229,56.6z M43,215.2l53.5,37.2L43,289.6
	C43,289.6,43,215.2,43,215.2z M228.4,448L60,331.5l75.6-51.8l94.5,64.7V448H228.4z M250.7,305.8l-77.1-53.4l77.1-53.4l77.1,53.4
	L250.7,305.8z M273,448.2V344.7l94.5-64.7l75.6,51.8L273,448.2z M458,289.6l-53.5-37.2l53.5-37.2C458,215.2,458,289.6,458,289.6z"/>
</svg>
