<?xml version="1.0" encoding="utf-8"?>
<!-- Generator: Adobe Illustrator 16.0.0, SVG Export Plug-In . SVG Version: 6.00 Build 0)  -->
<!DOCTYPE svg PUBLIC "-//W3C//DTD SVG 1.1 Tiny//EN" "http://www.w3.org/Graphics/SVG/1.1/DTD/svg11-tiny.dtd">
<svg version="1.1" baseProfile="tiny" id="Layer_1" xmlns="http://www.w3.org/2000/svg" xmlns:xlink="http://www.w3.org/1999/xlink"
	 x="0px" y="0px" width="415.826px" height="512px" viewBox="0 0 415.826 512" xml:space="preserve">
<path fill="#010101" d="M132.924,511.808c-32.854-14.507-55.168-45.781-58.091-81.579c1.92-36.843,21.376-70.507,52.267-90.581
	c-5.077,12.373-3.84,26.453,3.2,37.76c8.021,11.2,21.803,16.576,35.307,13.781c19.243-5.418,30.507-25.387,25.088-44.629
	c-1.92-6.741-5.76-12.843-11.008-17.451c-21.76-17.706-32.683-45.504-28.8-73.301c3.733-14.72,11.883-28.031,23.381-38.08
	c-8.64,23.04,15.723,45.781,32.085,56.96c29.013,17.408,56.96,36.544,83.712,57.302c29.227,23.039,45.163,59.094,42.667,96
	c-6.57,39.253-34.346,71.68-72.213,83.84c75.734-16.854,153.814-77.014,155.307-162.347c-1.492-68.267-42.24-129.536-104.533-157.44
	h-2.773c1.387,3.35,2.049,6.955,1.92,10.582c0.213-2.348,0.213-4.693,0-7.041c0.342,2.773,0.342,5.547,0,8.32
	c-4.737,19.414-24.321,31.36-43.776,26.625c-7.765-1.92-14.72-6.294-19.712-12.588c-24.96-32,0-68.416,4.182-103.615
	c2.561-45.014-18.006-88.043-54.485-114.347c18.261,30.442-6.059,70.4-23.744,93.141c-17.707,22.741-43.307,39.68-64.17,59.52
	c-22.485,20.907-43.094,43.904-61.589,68.48C7.164,269.974-8.537,334.399,4.476,396.159C22.311,455.68,71.783,500.395,132.796,512
	h0.341L132.924,511.808z"/>
</svg>
