<?xml version="1.0" encoding="utf-8"?>
<!-- Generator: Adobe Illustrator 21.1.0, SVG Export Plug-In . SVG Version: 6.00 Build 0)  -->
<svg version="1.1" id="social-rss-circle.svg" xmlns="http://www.w3.org/2000/svg" xmlns:xlink="http://www.w3.org/1999/xlink"
	 x="0px" y="0px" viewBox="0 0 512 512" style="enable-background:new 0 0 512 512;" xml:space="preserve">
<path d="M256,0C115.2,0,0,115.2,0,256s115.2,256,256,256s256-115.2,256-256S396.8,0,256,0z M400.4,305c0,7.2-3.4,14-9.2,18
	l-127.3,89.4c-7,4.9-16.4,5-23.5,0.2l-126.7-84.9c-6-4-9.6-10.9-9.6-18.3v-89.2c0-7.3,3.6-14.2,9.6-18.2l127.2-85.5
	c6.9-4.7,15.9-4.7,22.9-0.2l126.7,81.9c6.2,4,9.9,10.9,9.9,18.5V305z M375,284.5v-44l-31.7,22L375,284.5z M366.1,215.5l-100.6-68.9
	v61.3l55.8,38.3L366.1,215.5z M265.5,317.1v61.2l100.6-68.9l-44.7-30.7L265.5,317.1z M252.3,230.9l-45.6,31.6l45.6,31.6l45.6-31.6
	L252.3,230.9z M139.5,309.3l99.6,68.9h1v-61.3l-55.9-38.3L139.5,309.3z M239.5,207.9v-61.3l-100.6,68.9l44.7,30.7L239.5,207.9z
	 M129.4,240.5v44l31.7-22L129.4,240.5z"/>
</svg>
