<?xml version="1.0" encoding="utf-8"?>
<!-- Generator: Adobe Illustrator 21.1.0, SVG Export Plug-In . SVG Version: 6.00 Build 0)  -->
<svg version="1.1" id="Layer_1" xmlns="http://www.w3.org/2000/svg" xmlns:xlink="http://www.w3.org/1999/xlink" x="0px" y="0px"
	 viewBox="0 0 512 512" style="enable-background:new 0 0 512 512;" xml:space="preserve">
<path d="M441,0H71C31.8,0,0,31.8,0,71v370c0,39.2,31.8,71,71,71h370c39.2,0,71-31.8,71-71V71C512,31.8,480.2,0,441,0z M404.4,310
	c0,7.2-3.4,14-9.2,18l-127.3,89.4c-7,4.9-16.4,5-23.5,0.2l-126.7-84.9c-6-4-9.6-10.9-9.6-18.3v-89.2c0-7.3,3.6-14.2,9.6-18.2
	l127.2-85.5c6.9-4.7,15.9-4.7,22.9-0.2l126.7,81.9c6.2,4,9.9,10.9,9.9,18.5V310z M379,289.5v-44l-31.7,22L379,289.5z M269.5,322.1
	v61.2l100.6-68.9l-44.7-30.7L269.5,322.1z M370.1,220.5l-100.6-68.9v61.3l55.8,38.3L370.1,220.5z M256.3,235.9l-45.6,31.6l45.6,31.6
	l45.6-31.6L256.3,235.9z M143.5,314.3l99.6,68.9h1v-61.3l-55.9-38.3L143.5,314.3z M243.5,212.9v-61.3l-100.6,68.9l44.7,30.7
	L243.5,212.9z M133.4,245.5v44l31.7-22L133.4,245.5z"/>
</svg>
