<?xml version="1.0" encoding="utf-8"?>
<!-- Generator: Adobe Illustrator 16.0.0, SVG Export Plug-In . SVG Version: 6.00 Build 0)  -->
<!DOCTYPE svg PUBLIC "-//W3C//DTD SVG 1.1 Tiny//EN" "http://www.w3.org/Graphics/SVG/1.1/DTD/svg11-tiny.dtd">
<svg version="1.1" baseProfile="tiny" id="Layer_1" xmlns="http://www.w3.org/2000/svg" xmlns:xlink="http://www.w3.org/1999/xlink"
	 x="0px" y="0px" width="512.128px" height="512px" viewBox="0 0 512.128 512" xml:space="preserve">
<path fill="#010101" d="M200.002,106.208c48.144-4.628,62.141-38.411,118.554-43.964c27.783-2.314,45.387,3.703,47.295,14.346
	c1.698,9.95-12.089,16.66-28.843,18.048c-23.118,2.545-32.661-6.479-34.569-15.041c-17.179,2.083-19.936,9.95-19.088,15.503
	c1.909,10.644,22.693,21.288,58.322,17.585c40.296-3.471,53.871-20.825,50.478-38.179c-4.241-22.676-35.208-41.65-90.772-35.865
	c-71.26,6.941-70.836,43.038-119.403,47.434c-19.936,2.083-30.964-3.008-32.873-11.569c-1.272-8.561,8.484-12.727,19.936-13.652
	c10.604-1.157,23.541,0.925,29.691,4.628c4.454-2.545,5.939-5.091,5.514-8.099c-2.121-8.099-16.754-11.569-35.206-10.181
	c-36.055,3.471-36.055,21.057-34.782,28.924C137.862,96.258,165.645,109.679,200.002,106.208L200.002,106.208z M442.203,195.062
	c-44.538,11.338-101.377,18.743-169.879,18.743c-69.988,0-127.039-7.868-171.364-18.512c-39.872-11.106-61.08-23.37-68.502-36.097
	c3.817,28.461,10.392,55.996,18.875,82.144c-10.18,6.941-19.299,15.502-27.571,27.071C8.614,288.549,0.899,314.126,2.128,340.142
	c1.542,24.005,12.522,46.11,30.116,60.624c18.452,15.734,38.387,20.362,61.08,15.734c8.695-1.619,18.451-6.479,27.359-9.718
	c-18.664,0-34.358-6.479-50.052-20.132c-17.221-13.05-28.673-33.344-31.601-55.996c-4.241-21.75,0-41.881,11.241-59.697
	c2.544-3.473,5.302-6.479,8.271-9.256c6.363,16.891,13.149,33.551,20.785,49.055c17.179,28.46,34.357,53.219,51.537,80.06
	c7.423,15.734,12.3,31.238,15.693,46.741c11.499,17.316,28.259,29.617,47.295,34.708c24.39,9.255,49.84,13.42,75.925,11.801h2.757
	c26.543,1.267,53.072-2.813,78.259-12.033c18.266-5.828,34.328-17.917,45.811-34.476h1.483c2.757-15.503,7.423-31.007,14.211-46.741
	c16.967-27.071,34.356-51.6,51.323-80.06c23.39-47.233,39.443-98.369,47.507-151.329
	C502.008,173.311,480.589,185.574,442.203,195.062z"/>
</svg>
