<?xml version="1.0" encoding="utf-8"?>
<!-- Generator: Adobe Illustrator 21.1.0, SVG Export Plug-In . SVG Version: 6.00 Build 0)  -->
<svg version="1.1" id="Layer_1" xmlns="http://www.w3.org/2000/svg" xmlns:xlink="http://www.w3.org/1999/xlink" x="0px" y="0px"
	 viewBox="0 0 512 512" style="enable-background:new 0 0 512 512;" xml:space="preserve">
<path d="M441,0H71C31.8,0,0,31.8,0,71v370c0,39.2,31.8,71,71,71h370c39.2,0,71-31.8,71-71V71C512,31.8,480.2,0,441,0z M336,174.4
	l-48,91.2l3.2,3.2H336v64h-80l-4.8,3.2l-22.4,41.6L224,384h-48v-48l46.4-89.6l-3.2-3.2H176v-64h80l4.8-3.2l22.4-41.6l6.4-6.4H336
	V174.4z"/>
</svg>
