<?xml version="1.0" encoding="utf-8"?>
<!-- Generator: Adobe Illustrator 21.1.0, SVG Export Plug-In . SVG Version: 6.00 Build 0)  -->
<svg version="1.1" id="_x33_2" xmlns="http://www.w3.org/2000/svg" xmlns:xlink="http://www.w3.org/1999/xlink" x="0px" y="0px"
	 viewBox="0 0 580 512" style="enable-background:new 0 0 580 512;" xml:space="preserve">
<path d="M485.9,268.9C455.3,391,317.5,451.7,204.8,451.7c-98.3,0-183.5-43.2-202.2-200.4c71.4,0,411.1-3.1,411.1-3.1
	s21.2-7.4,19.2-10.6c-24.6-40.3,3.1-98,18.8-102.9c21.5-6.7,45.5,54.5,51.9,59.5c4.9,3.8,85.4-1.7,75.6,24.2
	C556.3,278.3,503.1,265.7,485.9,268.9z"/>
<rect x="53.5" y="183.2" width="58.8" height="50.6"/>
<rect x="328.1" y="183.2" width="58.8" height="50.6"/>
<rect x="121.9" y="183.2" width="58.8" height="50.6"/>
<rect x="190.2" y="183.2" width="58.8" height="50.6"/>
<rect x="259.7" y="183.2" width="58.8" height="50.6"/>
<rect x="121.9" y="124.2" width="58.8" height="50.6"/>
<rect x="190.2" y="124.2" width="58.8" height="50.6"/>
<rect x="259.7" y="124.2" width="58.8" height="50.6"/>
<rect x="259.7" y="65.2" width="58.8" height="50.6"/>
</svg>
