<?xml version="1.0" encoding="utf-8"?>
<!-- Generator: Adobe Illustrator 22.0.1, SVG Export Plug-In . SVG Version: 6.00 Build 0)  -->
<svg version="1.1" id="Layer_1" xmlns="http://www.w3.org/2000/svg" xmlns:xlink="http://www.w3.org/1999/xlink" x="0px" y="0px"
	 viewBox="0 0 512 512" style="enable-background:new 0 0 512 512;" xml:space="preserve">
<g>
	<path d="M142.4,16.3l-4.3-3.8c0,0-37.9,12.7-70.1,94C24.8,215.9,2.2,366.1,2.2,366.1h27.6c0,0,8.7-135.9,40.4-229.5
		C109.9,19.4,142.4,16.3,142.4,16.3z"/>
	<path d="M201.9,125.4c-11.8-55.5-24.6-90.6-25.5-90.3c-5.5,1.8-33.4,42.6-48.9,86.5c-26.7,75.7-46.7,180.6-46.7,180.6
		s4.2-93,40.4-191.8c20.8-56.9,48.9-82.8,48.9-82.8s-3.7-7.5-8.5-11.3c-4.8-3.8-10.6-3.8-10.6-3.8s-35.1,24.9-65.9,116.6
		C50.2,233.3,44.7,362.4,44.7,362.4s40.3,12.6,65.9-48.9c14.3-34.3,22.6-103.9,36.1-154.2c13.1-48.8,31.6-78.7,34-82.8
		c0.1-0.2,7.5,42.5,14.9,94c6.3,44.2,11.7,94.8,23.4,131.7c18.2,57.4,51.2,56.8,51,52.7c-0.2-3.5-21.3-15.7-34-60.2
		C222.8,248.7,213,177.5,201.9,125.4z"/>
	<polygon points="178.5,23.8 201.9,8.8 161.6,8.8 176.4,23.8 	"/>
	<path d="M310.3,321c0,0-15-35.8-25.5-86.5c-9.9-47.5-14.9-108.8-25.5-150.5c-9.2-36.3-23.4-56.4-23.4-56.4s-11-15-23.4-15
		c-14.1,0-29.7,15-29.7,15v7.5c0,0,12.1,12.7,21.2,41.4c21.3,67.1,28.9,178.2,61.6,244.5C296.4,383.3,310.3,321,310.3,321z"/>
	<path d="M374,208.2c10.5-45.3,20.1-109.2,34-146.7c20.4-55.1,55.2-60.2,55.2-60.2H459c0,0-61.6-1-78.6,48.9
		c-12.9,38-20.5,91.4-27.6,135.4c-8.2,51.1-14.9,90.3-14.9,90.3l8.5,33.9C346.4,309.7,359.5,270.3,374,208.2z"/>
	<path d="M495.1,5c0,0-85.5,253.7-85,252c11.6-35.9,21.1-77.7,31.9-116.6C462.1,68,480.2,5,480.2,5S450.9-5,425,61.5
		c-17.4,44.6-27,118.3-40.4,173c-14.4,59.2-31.9,97.8-31.9,97.8l14.9,22.6c0,0,35.4-21.2,59.5-86.5C453.4,197,514.2,5,514.2,5H495.1
		z"/>
	<path d="M331.5,294.7c0.1-0.2-8.5,26.3-8.5,26.3l6.4,18.8h2.1L340,321C340,321,331.4,294.9,331.5,294.7z"/>
	<path d="M316.6,336.1c0,0-2.6,4.6-6.4,7.5c-5.5,4.3-12.7,7.5-12.7,7.5v3.8h19.1c0,0,6.4-3.3,6.4-7.5
		C323,342.2,316.6,336.1,316.6,336.1z"/>
	<path d="M348.5,347.3c-2.3-3.5-4.2-7.5-4.2-7.5s-6.3,2.9-6.4,7.5c-0.1,6.9,6.4,11.3,6.4,11.3H357l2.1-3.8
		C359.1,354.9,353.2,354.5,348.5,347.3z"/>
	<path d="M265.7,65.2c16.3,51.6,23.5,132.2,36.1,180.6c8.2,31.5,14.9,56.4,14.9,56.4l10.6-33.9c0,0-12-130.2-34-206.9
		c-12-42-42.5-52.7-42.5-52.7h-23.4C227.4,8.8,253.3,26.3,265.7,65.2z"/>
	<path d="M48.5,490.2h11.8l-2.9-53.4H41.6l-5.7,17.8c-1.7,5.9-3.6,13-5.1,19.2h-0.2c-1.2-6.3-2.9-12.9-4.5-19.1l-5.2-17.8H4.8
		l-3.4,53.4h11.2l1-20.3c0.4-6.7,0.6-14.9,1-22.1h0.2c1.3,7,3.1,14.6,4.8,20.8l5.7,20.7h9.4l6.5-20.8c2.1-6.3,4.3-13.9,5.9-20.7h0.2
		c0,7.8,0.2,15.5,0.5,22L48.5,490.2z"/>
	<path d="M81.7,490.2v-38.8h-12v38.8H81.7z M75.7,434.5c-3.9,0-6.4,2.6-6.3,6.1c-0.1,3.3,2.5,6,6.3,6c4,0,6.5-2.7,6.5-6
		C82,437.2,79.6,434.5,75.7,434.5z"/>
	<path d="M119.1,480.3c-1.8,0.7-4,1.2-6.9,1.2c-5.9,0-10.6-3.7-10.6-10.9c-0.1-6.3,4-10.9,10.4-10.9c3.2,0,5.3,0.6,6.7,1.2l1.9-9
		c-2.5-1-6-1.5-9.2-1.5c-14.4,0-22.2,9.3-22.2,20.6c0,12.2,8,19.8,20.5,19.8c4.6,0,8.6-0.8,10.8-1.7L119.1,480.3z"/>
	<path d="M127.1,490.2h12v-19.7c0-1,0.1-1.9,0.2-2.7c0.8-3.7,3.8-6.1,8.2-6.1c1.3,0,2.4,0.2,3.2,0.3v-11.3c-0.9-0.2-1.4-0.2-2.5-0.2
		c-3.7,0-8.5,2.4-10.5,8h-0.3l-0.4-7.1h-10.4c0.2,3.3,0.3,7.1,0.3,12.8V490.2z"/>
	<path d="M175.1,450.5c-12.4,0-20.7,8-20.7,20.5c0,12.5,8.7,20,20.1,20c10.4,0,20.4-6.5,20.4-20.7
		C194.9,458.7,187,450.5,175.1,450.5z M174.8,459.1c5.5,0,7.7,5.9,7.7,11.7c0,7-3,11.7-7.7,11.7c-5.2,0-7.9-5-7.9-11.7
		C166.8,465.1,169,459.1,174.8,459.1z"/>
	<path d="M200.1,488.3c2.9,1.6,7.4,2.7,12.5,2.7c11.1,0,16.8-5.3,16.8-12.5c-0.1-5.7-3.2-9.4-10.5-12c-4.8-1.7-6.3-2.6-6.3-4.4
		c0-2,1.7-3.2,4.6-3.2c3.3,0,6.7,1.3,8.4,2.2l2.1-8.3c-2.4-1.2-6.4-2.2-10.9-2.2c-9.6,0-15.8,5.5-15.8,12.7c-0.1,4.6,3,9,11,11.7
		c4.5,1.5,5.7,2.5,5.7,4.4c0,2-1.5,3.2-5.2,3.2c-3.6,0-8.2-1.6-10.4-2.9L200.1,488.3z"/>
	<path d="M255.2,450.5c-12.4,0-20.7,8-20.7,20.5c0,12.5,8.7,20,20.1,20c10.4,0,20.4-6.5,20.4-20.7
		C275,458.7,267.1,450.5,255.2,450.5z M254.9,459.1c5.5,0,7.7,5.9,7.7,11.7c0,7-3,11.7-7.7,11.7c-5.2,0-7.9-5-7.9-11.7
		C247,465.1,249.1,459.1,254.9,459.1z"/>
	<path d="M295.9,490.2v-29.9h7.7v-8.9h-7.8v-2c0-3.8,1.7-6.9,5.6-6.9c1.6,0,2.9,0.2,3.9,0.6l0.5-9.3c-1.7-0.5-3.7-0.8-6.4-0.8
		c-3.5,0-7.7,1-10.7,3.9c-3.5,3.2-4.9,8.3-4.9,13v1.5h-5.1v8.9h5.1v29.9H295.9z"/>
	<path d="M312.3,443v8.4h-5.2v8.9h5.2v15.9c0,5.5,1.1,9.2,3.3,11.5c1.9,2,5.2,3.3,9,3.3c3.4,0,6.3-0.4,7.8-1l-0.1-9.1
		c-0.9,0.2-2.1,0.3-3.6,0.3c-3.6,0-4.8-2.1-4.8-6.8v-14h8.6v-8.9h-8.6v-11.1L312.3,443z"/>
	<path d="M362,491c4.3,0,7.1-3.1,7.1-7.3c0-4.4-2.9-7.4-7.1-7.4c-4.2,0-7.1,3.1-7.1,7.4C354.9,488,357.8,491,362,491z"/>
	<path d="M387.9,490.2v-16.1c0-8.7-0.2-16.2-0.5-23.3l0.2-0.1c2.6,6.3,6.1,13.2,9.3,18.9l11.4,20.6H421v-53.4h-11.1v15.6
		c0,8,0.2,15.2,1,22.3h-0.2c-2.4-6-5.5-12.7-8.7-18.3l-11.1-19.6h-14.1v53.4H387.9z"/>
	<path d="M463.2,457.8h-19.7v-11.1h20.8v-9.9h-33v53.4h34.1v-9.9h-22v-12.7h19.7V457.8z"/>
	<path d="M484.5,490.2h12.1v-43.3h14.6v-10.1h-41.1v10.1h14.3V490.2z"/>
</g>
</svg>
