<?xml version="1.0" encoding="utf-8"?>
<!-- Generator: Adobe Illustrator 21.1.0, SVG Export Plug-In . SVG Version: 6.00 Build 0)  -->
<svg version="1.1" xmlns="http://www.w3.org/2000/svg" xmlns:xlink="http://www.w3.org/1999/xlink" x="0px" y="0px"
	 viewBox="0 0 512 512" style="enable-background:new 0 0 512 512;" xml:space="preserve">
<path d="M256,512C115.2,512,0,396.8,0,256S115.2,0,256,0s256,115.2,256,256S396.8,512,256,512z M472,291.2c-8-3.2-67.2-20.8-136-9.6
	c28.8,78.4,40,142.4,43.2,155.2C427.2,404.8,462.4,352,472,291.2z M340.8,458c-3.2-19.2-16-86.4-46.4-166.4h-1.6
	c-123.2,43.2-168,128-171.2,136C158.4,456.4,204.8,474,256,474C286.4,475.6,315.2,469.2,340.8,458z M93.1,403.2
	c4.8-8,65.6-107.2,177.6-144c3.2-1.6,6.4-1.6,8-3.2c-4.8-12.8-11.2-25.6-17.6-36.8c-108.8,32-214.4,32-224,30.4c0,1.6,0,4.8,0,6.4
	C37.1,312,59.5,363.2,93.1,403.2z M41.6,211.2c9.6,0,99.2,0,201.6-27.2C206.4,120,168,65.6,161.6,57.6C102.4,88,56,144,41.6,211.2z
	 M204.8,43.2c6.4,8,46.4,62.4,81.6,128c78.4-28.8,110.4-73.6,115.2-78.4C363.2,59.2,312,38.4,256,38.4
	C238.4,38.4,220.8,40,204.8,43.2z M425.6,118.4c-4.8,6.4-41.6,52.8-121.6,86.4c4.8,11.2,9.6,20.8,14.4,32c1.6,3.2,3.2,8,4.8,11.2
	c72-9.6,145.6,4.8,152,6.4C473.6,203.2,456,155.2,425.6,118.4z"/>
</svg>
