<?xml version="1.0" encoding="utf-8"?>
<!-- Generator: Adobe Illustrator 21.1.0, SVG Export Plug-In . SVG Version: 6.00 Build 0)  -->
<svg version="1.1" xmlns="http://www.w3.org/2000/svg" xmlns:xlink="http://www.w3.org/1999/xlink" x="0px" y="0px"
	 viewBox="0 0 512 512" style="enable-background:new 0 0 512 512;" xml:space="preserve">
<g>
	<path d="M209.6,156.8c-30.4,14.4-52.8,43.2-60.8,76.8c4.8,0,49.6,0,100.8-12.8C232,188.8,211.2,161.6,209.6,156.8z"/>
	<path d="M263.7,257.6c1.6,0,3.2-1.6,4.8-1.6c-3.2-6.4-6.4-12.8-9.6-19.2c-54.4,16-107.2,16-112,16c0,1.6,0,1.6,0,3.2
		c0,28.8,11.2,54.4,28.8,73.6C177.3,324.8,207.7,275.2,263.7,257.6z"/>
	<path d="M328,174.4c-19.2-17.6-44.8-27.2-72-27.2c-9.6,0-17.6,1.6-25.6,3.2c3.2,4.8,22.4,30.4,40,64
		C310.4,200,326.4,177.6,328,174.4z"/>
	<path d="M188.8,342.4c19.2,14.4,41.6,22.4,67.2,22.4c14.4,0,28.8-3.2,43.2-8c-1.6-9.6-8-43.2-24-83.2
		C212.8,294.4,192,337.6,188.8,342.4z"/>
	<path d="M256,0C115.2,0,0,115.2,0,256s115.2,256,256,256s256-115.2,256-256S396.8,0,256,0z M256,384c-70.4,0-128-57.6-128-128
		c0-70.4,57.6-128,128-128c70.4,0,128,57.6,128,128C384,326.4,326.4,384,256,384z"/>
	<path d="M280,230.4c3.2,4.8,4.8,11.2,8,16c1.6,1.6,1.6,3.2,1.6,6.4c36.8-4.8,72,3.2,76.8,3.2c0-25.6-9.6-49.6-24-68.8
		C337.6,190.4,320,214.4,280,230.4z"/>
	<path d="M296,268.8c14.4,40,20.8,72,20.8,78.4c24-16,41.6-43.2,46.4-73.6C360,272,329.6,264,296,268.8z"/>
</g>
</svg>
