<?xml version="1.0" encoding="utf-8"?>
<!-- Generator: Adobe Illustrator 21.1.0, SVG Export Plug-In . SVG Version: 6.00 Build 0)  -->
<svg version="1.1" xmlns="http://www.w3.org/2000/svg" xmlns:xlink="http://www.w3.org/1999/xlink" x="0px" y="0px"
	 viewBox="0 0 512 512" style="enable-background:new 0 0 512 512;" xml:space="preserve">
<path d="M256,0C115.2,0,0,115.2,0,256s115.2,256,256,256s256-115.2,256-256S396.8,0,256,0z M331.2,329.6L256,374.4l-75.2-44.8v-16
	l22.4,14.4l52.8-43.2l52.8,43.2l22.4-14.4C331.2,313.6,331.2,329.6,331.2,329.6z M384,268.8l-75.2,49.6L256,275.2l-52.8,43.2
	L128,268.8l52.8-41.6L128,185.6l75.2-49.6l52.8,43.2l52.8-43.2l75.2,49.6l-52.8,41.6L384,268.8z"/>
<polygon points="180.8,227.2 256,275.2 331.2,227.2 256,180.8 "/>
</svg>
