<?xml version="1.0" encoding="utf-8"?>
<!-- Generator: Adobe Illustrator 21.1.0, SVG Export Plug-In . SVG Version: 6.00 Build 0)  -->
<svg version="1.1" id="Layer_1" xmlns="http://www.w3.org/2000/svg" xmlns:xlink="http://www.w3.org/1999/xlink" x="0px" y="0px"
	 viewBox="0 0 453.4 512" style="enable-background:new 0 0 453.4 512;" xml:space="preserve">
<path d="M342.3,465.9c-1.4,1.4-21.4,16.1-52.9,20.4c-58.8,6.7-78.5-9.2-85.1-15.5c-7.4-9.6,7.1-17.5,11.6-13
	c12.7,9.5,31.7,14.3,57,14.3c37,0,58.2-12,64-16.3C345.2,449.6,346.8,463.2,342.3,465.9L342.3,465.9z M328.7,433.6
	c-1.9,0.8-3.2,1-3.7,0.4c-6-8-8.1-18.8-27.7-18.8c-24.5,0-32.5,16.8-40.9,19.8c-1.7,0.6-3.3,0.2-5-1.4c-2.8-3.8-1.7-8,3.3-12.7
	c9.6-8.7,21-19.6,44.2-19.6c22,0,27,6.6,33.9,22.5C334.6,427.8,333.1,431.2,328.7,433.6L328.7,433.6z M433,372.8
	c-4.3,11.3-16.7,51.9-46,51.9c-20.8,0-49.9-57.6-76.8-57.6c-6.1-0.3-15.1,2.7-27.3,9c-12.1,6.3-77.3,50.6-114,50.6
	c-40.5,0-70.6-11.7-70.6-58.8c0-34.9,34.1-74.7,83-74.7c60.4,0,94.5,56.3,128,56.3c26.7,0,72.8-48.6,96.2-48.6
	C439.3,300.9,442.3,348,433,372.8z M301.2,76.1c-16.9-7.5-49.9-17.4-93.1-76.1c-4.5,46-27.6,65-58,79.2C119.2,93.6,0,148,0,291.1
	C0,427,119.4,512,228.6,512C345,512,453,427,453,295.2C453,138,318.2,83.6,301.2,76.1z"/>
</svg>
