<?xml version="1.0" encoding="utf-8"?>
<!-- Generator: Adobe Illustrator 19.0.0, SVG Export Plug-In . SVG Version: 6.00 Build 0)  -->
<svg version="1.1" id="Layer_1" focusable="false" xmlns="http://www.w3.org/2000/svg" xmlns:xlink="http://www.w3.org/1999/xlink"
	 x="0px" y="0px" viewBox="64 0 640 512" style="enable-background:new 64 0 640 512;" xml:space="preserve">
<path d="M670,189.5l-54.8,109.9l-54.9-109.9h-37.5l10.9,20.6c-11.5-19-35.9-26-63.3-26c-31.8,0-67.9,8.7-71.5,43.1h33.7
	c1.4-13.8,15.7-21.8,35-21.8c26,0,41,9.6,41,33v3.4c-12.7,0-28,0.1-41.7,0.4c-42.4,0.9-69.6,10-76.7,34.4c1-5.2,1.5-10.6,1.5-16.2
	c0-52.1-39.7-76.2-75.4-76.2c-21.3,0-43,5.5-58.7,24.2v-80.6h-32.1v169.5c0,10.3-0.6,22.9-1.1,33.1h31.5c0.7-6.3,1.1-12.9,1.1-19.5
	c13.6,16.6,35.4,24.9,58.7,24.9c36.9,0,64.9-21.9,73.3-54.2c-0.5,2.8-0.7,5.8-0.7,9c0,24.1,21.1,45,60.6,45
	c26.6,0,45.8-5.7,61.9-25.5c0,6.6,0.3,13.3,1.1,20.2h29.8c-0.7-8.2-1-17.5-1-26.8v-65.6c0-9.3-1.7-17.2-4.8-23.8l61.5,116.1
	l-28.5,54.1h35.9L704,189.5H670z M307.7,313.8c-29.6,0-50.2-21.5-50.2-53.8c0-32.4,20.6-53.8,50.2-53.8c29.8,0,50.2,21.4,50.2,53.8
	C357.9,292.3,337.5,313.8,307.7,313.8z M508.6,266.5c0,30-17.9,48.4-51.6,48.4c-25.1,0-35-13.4-35-25.8c0-19.1,18.1-24.4,47.2-25.3
	c13.1-0.5,27.6-0.6,39.4-0.6V266.5z M96.7,268.1h128.8v-8.5c0-51.7-33.1-75.4-78.4-75.4c-56.8,0-83,30.8-83,77.6
	c0,42.5,25.3,74,82.5,74c31.4,0,68-11.7,74.4-46.1h-33.1C175.9,325.5,100.2,326.4,96.7,268.1z M191.7,246.7H97.3
	C104.2,190.1,189.4,192,191.7,246.7L191.7,246.7z"/>
</svg>
