<?xml version="1.0" encoding="utf-8"?>
<!-- Generator: Adobe Illustrator 21.1.0, SVG Export Plug-In . SVG Version: 6.00 Build 0)  -->
<svg version="1.1" id="Layer_1" xmlns="http://www.w3.org/2000/svg" xmlns:xlink="http://www.w3.org/1999/xlink" x="0px" y="0px"
	 viewBox="0 0 512 512" style="enable-background:new 0 0 512 512;" xml:space="preserve">
<path d="M312,233.6c-9.6,0-12.8,8-14.4,16h9.6c6.4,0,12.8,1.6,17.6,3.2C326.4,244.8,324.8,235.2,312,233.6z M312,233.6
	c-9.6,0-12.8,8-14.4,16h9.6c6.4,0,12.8,1.6,17.6,3.2C326.4,244.8,324.8,235.2,312,233.6z M441,0H71C31.8,0,0,31.8,0,71v370
	c0,39.2,31.8,71,71,71h370c39.2,0,71-31.8,71-71V71C512,31.8,480.2,0,441,0z M198.4,136c-1.6,3.2-3.2,8-3.2,12.8V164
	c0,5.6,0,10.4,0,10.4c0,1.6-1.6,3.2-3.2,3.2h-24c-3.2,0-6,0.4-8.4,1c-2.4,0.6-4.4,1.4-6,2.2L198.4,136z M363.2,281.6
	c-3.2,36.8-9.6,57.6-11.2,65.6c-11.2,35.2-20.8,36.8-49.6,36.8c-35.2,0-46.4-4.8-46.4-33.6c0-32,14.4-32,40-32c3.2,0,0,3.2,0,9.6
	c0,6.4,1.6,8-1.6,8c-8,0-17.6-1.6-17.6,9.6c0,12.8,6.4,11.2,20.8,11.2c19.2,0,22.4-1.6,22.4-19.2c0-28.8-8-33.6-19.2-33.6
	c-12.8-1.6-24-3.2-30.4-4.8c-14.4-4.8-14.4-25.6-14.4-30.4c0-1.6-1.6,0-1.6,0c0,8,0,19.2-4.8,30.4c-1.6,3.2-1.6,6.4-1.6,6.4
	c-4.8,9.6-12.8,6.4-25.6,4.8c-12.8-1.6-38.4-6.4-51.2-12.8c-4.8-3.2-6.4-4.8-9.6-9.6c-6.4-14.4-14.4-60.8-14.4-67.2
	c-1.6-8-1.6-12.8-1.6-12.8c0-4.8,0-11.2,3.2-14.4c1.6-1.6,3.2-4.8,6.4-4.8c3.2-1.6,6.4-1.6,12.8-1.6h24c4.8,0,9.6-4.8,9.6-9.6
	c0,0,0-4.8,0-11.2v-16c0-4.8,1.6-8,3.2-11.2c3.2-4.8,8-6.4,12.8-8c6.4-1.6,28.8-3.2,43.2,3.2c4.8,1.6,11.2,8,11.2,16
	c8,0,22.4,0,35.2,1.6c14.4,1.6,27.2,3.2,33.6,6.4c4.8,1.6,11.2,6.4,12.8,17.6C360,190.4,364.8,259.2,363.2,281.6z M312,233.6
	c-9.6,0-12.8,8-14.4,16h9.6c6.4,0,12.8,1.6,17.6,3.2C326.4,244.8,324.8,235.2,312,233.6z"/>
</svg>
