<?xml version="1.0" encoding="utf-8"?>
<!-- Generator: Adobe Illustrator 21.1.0, SVG Export Plug-In . SVG Version: 6.00 Build 0)  -->
<svg version="1.1" xmlns="http://www.w3.org/2000/svg" xmlns:xlink="http://www.w3.org/1999/xlink" x="0px" y="0px"
	 viewBox="0 0 426.7 512" style="enable-background:new 0 0 426.7 512;" xml:space="preserve">
<path d="M43.4,101L43.4,101h47.8c2.6,0,4.8-2.1,4.8-4.8V43.6l0,0c0-9.6,1.6-17.5,4.8-23.9l1.6-3.2l0,0L8.3,109l0,0
	c1.6-1.6,4.8-1.6,4.8-3.2C21.1,102.6,32.2,101,43.4,101z M416.4,91.1c-3.2-20.7-15.9-30.3-27.1-35.1c-11.2-4.8-35.1-8-65.3-12.8
	c-23.9-3.2-52.6-3.2-70.1-1.6c-1.6-14.3-12.8-27.1-22.3-31.9c-30.3-11.2-74.9-9.6-86.1-6.4c-9.6,3.2-19.1,8-25.5,15.9
	c-6.4,6.4-8,14.3-8,23.9c0,4.8,0,19.1,0,30.3v22.3c0,10.6-8.6,19.1-19.1,19.1H45.1c-9.6,0-17.5,1.6-23.9,4.8
	c-6.4,1.6-9.6,4.8-12.8,9.6c-6.4,9.6-8,19.1-8,30.3c0,0,0,9.6,1.6,25.5C3.6,197.9,18,290.3,32.3,319c4.8,11.2,9.6,15.9,19.1,20.7
	c23.9,9.6,76.5,20.7,100.4,23.9c25.5,3.2,39.8,9.6,49.4-9.6c0,0,1.6-4.8,4.8-11.2c8-23.9,9.6-46.2,9.6-62.2c0-1.6,1.6-1.6,1.6,0
	c0,11.2-1.6,49.4,27.1,60.6c11.2,4.8,35.1,8,60.6,11.2c22.3,3.2,38.3,11.2,38.3,68.5c0,35.1-8,39.8-44.6,39.8
	c-30.3,0-43,1.6-43-23.9c0-19.1,19.1-17.5,33.5-17.5c6.4,0,1.6-4.8,1.6-17.5c0-12.8,8-19.1,0-19.1c-49.4-1.6-79.7,0-79.7,62.2
	c0,57.4,22.3,66.9,92.4,66.9c55.8,0,74.9-1.6,98.8-73.3c4.8-14.3,15.9-57.4,22.3-129.1C430.8,263.2,422.8,126.2,416.4,91.1z
	 M318.8,242.6c-6.4,0-12.8,0-19.1,1.6c1.6-14.3,8-31.9,28.7-30.3c22.3,0,25.5,22.3,25.5,36.7C342.7,245.8,331.5,244.2,318.8,242.6z"
	/>
</svg>
