<?xml version="1.0" encoding="utf-8"?>
<!-- Generator: Adobe Illustrator 21.1.0, SVG Export Plug-In . SVG Version: 6.00 Build 0)  -->
<svg version="1.1" id="Layer_1" xmlns="http://www.w3.org/2000/svg" xmlns:xlink="http://www.w3.org/1999/xlink" x="0px" y="0px"
	 viewBox="0 0 512 512" style="enable-background:new 0 0 512 512;" xml:space="preserve">
<path d="M441,0H71C31.8,0,0,31.8,0,71v370c0,39.2,31.8,71,71,71h370c39.2,0,71-31.8,71-71V71C512,31.8,480.2,0,441,0z M375.7,289
	c-12.4,12.4-48.3,48.2-69.1,69c-6.4,6.4-13,8.9-21.9,8.9H227c-7.2,0-15.7-2.5-20.5-8.1c-23.3-23.2-59-59.1-70.3-70.5
	c-11-11.1-10.9-29.1,0.3-40.1c8.9-8.6,94.5-93.6,100.4-99.3c11.1-10.8,28.9-10.6,39.7,0.5c4.9,5,91.5,91.8,99.3,99.8
	C386.8,260.4,386.7,278.1,375.7,289z M273.8,206.5l-14.9-14.6c-1.5-1.5-4.1-1.5-5.6,0l-74.1,74.1c-1.5,1.5-1.6,4,0,5.6l7.6,8
	c5.1,5.3,13.5,5.4,18.7,0.3l68.4-67.8C275.4,210.6,275.3,208,273.8,206.5z M260.9,313.1c-1.9-2-5.1-2-7.1,0l-14,14
	c-1.3,1.3-1.4,3.5,0,4.9l7.2,7.5c5.1,5.3,13.6,5.6,19.1,0.5l7.4-7c2.1-1.9,2.1-5.2,0.1-7.2L260.9,313.1z M273.2,265.7l-14.4-13.8
	c-1.7-1.7-4.5-1.6-6.2,0.1l-43.5,43.5c-1.8,1.8-1.8,4.7,0.1,6.4l8.3,7.9c5.2,4.9,13.4,4.8,18.5-0.3l37.3-37.3
	C275,270.3,275,267.4,273.2,265.7z"/>
</svg>
