<?xml version="1.0" encoding="utf-8"?>
<!-- Generator: Adobe Illustrator 21.1.0, SVG Export Plug-In . SVG Version: 6.00 Build 0)  -->
<svg version="1.1" xmlns="http://www.w3.org/2000/svg" xmlns:xlink="http://www.w3.org/1999/xlink" x="0px" y="0px"
	 viewBox="0 0 579.9 512" style="enable-background:new 0 0 579.9 512;" xml:space="preserve">
<path d="M336.7,19.2C312.2-6,271.9-6.5,246.7,18c-13.3,13-207.4,205.4-227.5,225c-25.4,24.8-25.7,65.6-0.7,90.8
	C44.1,359.7,125.1,441,177.8,493.6c10.9,12.7,30.2,18.4,46.5,18.4h130.7c20.2,0,35.1-5.7,49.6-20.2
	c47.2-47.2,128.4-128.3,156.5-156.4c24.9-24.8,25.2-65,0.6-90.1C544,227.1,347.8,30.5,336.7,19.2z M132.9,314.2l-17.3-18.1
	c-3.4-3.6-3.3-9.2,0.1-12.7l168-168c3.5-3.5,9.2-3.5,12.7-0.1l33.8,33c3.6,3.5,3.7,9.4,0.1,12.9L175.3,314.8
	C163.5,326.5,144.4,326.2,132.9,314.2z M329.5,435l-16.8,15.8c-12.3,11.5-31.6,11-43.2-1.1l-16.3-17c-3-3.1-2.9-8,0.1-11L285,390
	c4.5-4.5,11.7-4.5,16.1,0l28.6,28.6C334.3,423.2,334.2,430.6,329.5,435z M202.7,382.2l-18.9-17.8c-4.2-3.9-4.3-10.5-0.2-14.5
	l98.5-98.5c3.9-3.9,10.2-4,14.1-0.2l32.7,31.2c4.1,3.9,4.2,10.5,0.2,14.5l-84.6,84.6C233,393,214.5,393.3,202.7,382.2z"/>
</svg>
