<?xml version="1.0" encoding="utf-8"?>
<!-- Generator: Adobe Illustrator 16.0.0, SVG Export Plug-In . SVG Version: 6.00 Build 0)  -->
<!DOCTYPE svg PUBLIC "-//W3C//DTD SVG 1.1 Tiny//EN" "http://www.w3.org/Graphics/SVG/1.1/DTD/svg11-tiny.dtd">
<svg version="1.1" baseProfile="tiny" id="Layer_1" xmlns="http://www.w3.org/2000/svg" xmlns:xlink="http://www.w3.org/1999/xlink"
	 x="0px" y="0px" width="370.56px" height="512px" viewBox="0 0 370.56 512" xml:space="preserve">
<path fill="#010101" d="M12.267,334.358L62.72,9.835c0.958-6.313,6.854-10.654,13.167-9.696c3.624,0.55,6.772,2.786,8.486,6.027
	l54.25,101.781L12.267,334.358z M370.56,413.1l-48.043-298.646c-1.064-6.308-7.041-10.56-13.35-9.495
	c-2.359,0.398-4.537,1.517-6.234,3.202L0,413.1l167.616,94.464c10.513,5.906,23.344,5.906,33.855,0L370.56,413.1L370.56,413.1z
	 M234.346,152.492L195.52,78.209c-2.966-5.655-9.955-7.836-15.61-4.87c-2.08,1.091-3.779,2.79-4.87,4.87L4.586,383.659
	L234.346,152.492z"/>
</svg>
