<?xml version="1.0" encoding="utf-8"?>
<!-- Generator: Adobe Illustrator 21.1.0, SVG Export Plug-In . SVG Version: 6.00 Build 0)  -->
<svg version="1.1" xmlns="http://www.w3.org/2000/svg" xmlns:xlink="http://www.w3.org/1999/xlink" x="0px" y="0px"
	 viewBox="0 0 509.1 512" style="enable-background:new 0 0 509.1 512;" xml:space="preserve">
<path d="M482.9,0H26.2C12.1,0,0.7,11.4,0.7,25.5v461c0,14.1,11.4,25.5,25.5,25.5H483c14.1,0,25.5-11.4,25.5-25.5v-461
	C508.4,11.4,497,0,482.9,0z M148.3,340.8c-46.4,0-84.8-38.4-84.8-84.8c0-46.4,38.4-84.8,84.8-84.8c46.4,0,84.8,38.4,84.8,84.8
	C234.7,302.4,196.3,340.8,148.3,340.8z M362.7,340.8c-46.4,0-84.8-38.4-84.8-84.8c0-46.4,38.4-84.8,84.8-84.8
	c46.4,0,84.8,38.4,84.8,84.8C447.5,302.4,409.1,340.8,362.7,340.8z"/>
</svg>
