<?xml version="1.0" encoding="utf-8"?>
<!-- Generator: Adobe Illustrator 21.1.0, SVG Export Plug-In . SVG Version: 6.00 Build 0)  -->
<svg version="1.1" id="social-rss-circle.svg" xmlns="http://www.w3.org/2000/svg" xmlns:xlink="http://www.w3.org/1999/xlink"
	 x="0px" y="0px" viewBox="0 0 512 512" style="enable-background:new 0 0 512 512;" xml:space="preserve">
<path d="M256,0C115.2,0,0,115.2,0,256s115.2,256,256,256s256-115.2,256-256S396.8,0,256,0z M185.6,313.6c-32,0-57.6-25.6-57.6-57.6
	s25.6-57.6,57.6-57.6s57.6,25.6,57.6,57.6C241.6,288,216,313.6,185.6,313.6z M326.4,313.6c-32,0-57.6-25.6-57.6-57.6
	s25.6-57.6,57.6-57.6S384,224,384,256S358.4,313.6,326.4,313.6z"/>
</svg>
