<?xml version="1.0" encoding="utf-8"?>
<!-- Generator: Adobe Illustrator 16.0.0, SVG Export Plug-In . SVG Version: 6.00 Build 0)  -->
<!DOCTYPE svg PUBLIC "-//W3C//DTD SVG 1.1 Tiny//EN" "http://www.w3.org/Graphics/SVG/1.1/DTD/svg11-tiny.dtd">
<svg version="1.1" baseProfile="tiny" id="Layer_1" xmlns="http://www.w3.org/2000/svg" xmlns:xlink="http://www.w3.org/1999/xlink"
	 x="0px" y="0px" width="370.56px" height="512px" viewBox="0 0 370.56 512" xml:space="preserve">
<path fill="#010101" d="M308.27,73.918l-11.413,59.712c-1.365,6.464-9.494,13.291-17.088,13.291H173.507
	c-11.989,0-20.544,8.341-20.544,20.159v13.1c0,12.139,8.64,20.479,20.608,20.479h90.241c8.426,0,16.746,9.302,14.869,18.24
	l-11.414,58.88c-1.088,5.12-6.699,13.439-16.746,13.439h-73.75c-13.44,0-17.451,1.941-26.432,12.822
	c-8.96,11.178-89.728,108.139-89.728,108.139c-0.79,0.96-1.579,0.618-1.579-0.32V72.958c0-7.659,6.635-16.64,16.555-16.64h219.178
	c8,0,15.575,7.595,13.504,17.515V73.918L308.27,73.918z M317.891,308.158c3.094-12.331,37.248-187.392,48.662-242.88 M324.463-0.002
	H51.332c-37.653,0-48.704,28.331-48.704,46.166v433.919c0,20.054,10.752,27.542,16.832,29.974
	c6.059,2.496,22.806,4.565,32.875-6.997c0,0,128.938-149.632,131.114-151.829c3.521-3.35,3.521-3.35,6.72-3.35h83.5
	c35.2,0,40.661-24.96,44.5-39.68c3.201-12.139,37.42-187.179,48.619-242.88c8.641-42.283-2.24-65.323-42.24-65.323H324.463z"/>
</svg>
