<?xml version="1.0" encoding="utf-8"?>
<!-- Generator: Adobe Illustrator 21.1.0, SVG Export Plug-In . SVG Version: 6.00 Build 0)  -->
<svg version="1.1" id="social-rss-circle.svg" xmlns="http://www.w3.org/2000/svg" xmlns:xlink="http://www.w3.org/1999/xlink"
	 x="0px" y="0px" viewBox="0 0 512 512" style="enable-background:new 0 0 512 512;" xml:space="preserve">
<path d="M256,0C115.2,0,0,115.2,0,256s115.2,256,256,256s256-115.2,256-256S396.8,0,256,0z M375.3,132
	c-7.4,36.7-29.9,151.9-32,159.9c-2.5,9.7-6.1,26.1-29.3,26.1h-55c-2.1,0-2.1,0-4.4,2.2c-1.4,1.5-86.3,99.9-86.3,99.9
	c-6.6,7.6-17.7,6.3-21.6,4.6c-4-1.6-11.1-6.5-11.1-19.7V119.4c0-11.7,7.3-30.4,32-30.4h179.8C373.8,89,381,104.2,375.3,132z
	 M374.6,134.9c-2.4,11.6-5.9,29.3-9.8,48.7L374.6,134.9z M363.3,191.1l-20.2,100.7C344.5,286.5,354.5,235.9,363.3,191.1z
	 M323.9,130.1H187.7c-6.5,0-10.9,5.9-10.9,11l-4,215.1c0,0.6,0.5,0.8,1,0.2c0,0,49.2-59.8,55.1-67.2c5.9-7.2,8.5-8.4,17.4-8.4h48.5
	c6.6,0,10.3-5.5,11-8.8l7.5-36.8c1.2-5.9-4.2-12-9.8-12h-55.4c-7.9,0-13.6-5.5-13.6-13.5V197c0-7.8,5.6-13.3,13.5-13.3H314
	c5,0,10.4-4.5,11.3-8.8l7.5-33.3v-0.1C334.2,135.1,329.2,130.1,323.9,130.1z"/>
</svg>
