<?xml version="1.0" encoding="utf-8"?>
<!-- Generator: Adobe Illustrator 21.1.0, SVG Export Plug-In . SVG Version: 6.00 Build 0)  -->
<svg version="1.1" id="Layer_1" xmlns="http://www.w3.org/2000/svg" xmlns:xlink="http://www.w3.org/1999/xlink" x="0px" y="0px"
	 viewBox="0 0 474.9 512" style="enable-background:new 0 0 474.9 512;" xml:space="preserve">
<path d="M207.5,130.2V187c-6.8,2.4-14.2,4.5-22.4,6.1c3,8.2,4.5,16.1,4.5,23.7c0,24-6.8,44.3-20.3,61c-13.6,16.7-32,27.3-55.4,31.6
	c-7.3,1.4-12.8,3.8-16.5,7.4c-3.7,3.5-5.5,9-5.5,16.3c0,6,2.1,10.9,6.3,14.7c4.2,3.8,9.6,6.8,16.3,9c6.6,2.2,14,4.2,22,6.1
	c8,1.9,16,4.3,24,7.1c8,2.9,15.3,6.4,22,10.6c6.6,4.2,12.1,10.2,16.3,18c4.2,7.8,6.3,16.9,6.3,27.6c0,57.2-33.9,85.7-101.7,85.7
	c-12.8,0-24.8-1.2-36.2-3.7c-11.4-2.4-22.3-6.3-32.6-11.6c-10.3-5.3-18.5-13-24.6-23.1c-6.1-10.1-9.2-22-9.2-35.9
	c0-30.8,17-51.7,50.9-62.9v-1.2c-12.5-7.6-18.7-19.5-18.7-35.5c0-20.4,6-33.2,17.9-38.4v-1.2c-13.6-4.6-24.8-14.8-33.6-30.6
	C8.4,252.1,4,236.5,4,221.3c0-25.9,8.8-47.5,26.5-64.9C48.1,139,70,130.2,96.4,130.2c17.9,0,34.5,4.5,49.6,13.5
	C164.5,143.7,184.9,139.2,207.5,130.2z M162.3,438.9c0-27.8-20.3-41.6-61-41.6c-39.1,0-58.6,14.4-58.6,43.3
	c0,28.3,21.3,42.5,63.9,42.5C143.7,483,162.3,468.3,162.3,438.9z M145.2,220.5c0-15.2-4.1-28-12.4-38.2
	c-8.3-10.2-20.7-15.3-37.2-15.3c-34.5,0-51.7,18.1-51.7,54.3c0,33.8,17.2,50.6,51.7,50.6C128.6,271.9,145.2,254.8,145.2,220.5z
	 M281.1,12.9c8.1,8.6,12.2,18.5,12.2,29.8s-4.1,21.2-12.2,29.6c-8.1,8.4-18.3,12.7-30.5,12.7c-12.2,0-22.4-4.2-30.7-12.7
	c-8.3-8.4-12.4-18.2-12.4-29.4c0-11.4,4.1-21.4,12.4-30C228.2,4.3,238.4,0,250.6,0C262.8,0,273,4.3,281.1,12.9z M235.5,395.2V134.7
	h48.8v260.5H235.5z M456.1,338.9l18.7,42.9c-14.9,8.2-33.2,12.2-54.9,12.2c-13,0-24.2-2.1-33.6-6.3c-9.4-4.2-16.7-9.5-22-15.7
	c-5.3-6.3-9.4-14.5-12.4-24.7c-3-10.2-5-19.9-5.9-29.2c-1-9.2-1.4-20-1.4-32.2v-92.3h0.8v-1.2c-1.6,0-3.7-0.1-6.1-0.4
	c-2.4-0.3-4.3-0.4-5.7-0.4c-4.3,0-10.6,0.7-18.7,2v-60h30.5v-24.1c0-11.4-0.7-20.8-2-28.2h52.9c-1.4,8.7-2,26.1-2,52.3H448v60
	c-3,0-7.5-0.2-13.4-0.6c-6-0.4-10.4-0.6-13.4-0.6h-26.9v115.6c0,27.5,9.1,41.2,27.3,41.2C434.6,349.1,446.1,345.7,456.1,338.9z"/>
</svg>
