<?xml version="1.0" encoding="utf-8"?>
<!-- Generator: Adobe Illustrator 21.1.0, SVG Export Plug-In . SVG Version: 6.00 Build 0)  -->
<svg version="1.1" xmlns="http://www.w3.org/2000/svg" xmlns:xlink="http://www.w3.org/1999/xlink" x="0px" y="0px"
	 viewBox="0 0 524.6 512" style="enable-background:new 0 0 524.6 512;" xml:space="preserve">
<path d="M262.3,0.2C118,0.2-0.1,118.2-0.1,262.5c0,116.4,75.4,214.8,178.7,249.2c13.1,1.6,18-4.9,18-13.1c0-6.6,0-23,0-44.3
	c-73.8,16.4-88.5-34.4-88.5-34.4c-11.5-29.5-29.5-37.7-29.5-37.7c-24.6-16.4,1.6-16.4,1.6-16.4c26.2,1.6,41,26.2,41,26.2
	c23,39.4,60.7,27.9,77.1,21.3c1.6-16.4,9.8-27.9,16.4-34.4C155.7,372.4,95,349.4,95,249.4c0-27.9,9.8-52.5,26.2-70.5
	c-3.3-6.6-11.5-32.8,3.3-68.9c0,0,21.3-6.6,72.1,26.2c21.3-6.6,42.6-8.2,65.6-8.2s44.3,3.3,65.6,8.2c50.8-34.4,72.1-27.9,72.1-27.9
	c14.8,36.1,4.9,62.3,3.3,68.9c16.4,18,26.2,41,26.2,70.5c0,100-60.7,123-119.7,129.5c9.8,8.2,18,24.6,18,49.2c0,34.4,0,63.9,0,72.1
	c0,6.6,4.9,14.8,18,13.1c103.3-34.4,178.7-132.8,178.7-249.2C524.6,118.2,406.6,0.2,262.3,0.2z"/>
</svg>
