<?xml version="1.0" encoding="utf-8"?>
<!-- Generator: Adobe Illustrator 21.1.0, SVG Export Plug-In . SVG Version: 6.00 Build 0)  -->
<svg version="1.1" xmlns="http://www.w3.org/2000/svg" xmlns:xlink="http://www.w3.org/1999/xlink" x="0px" y="0px"
	 viewBox="0 0 512 512" style="enable-background:new 0 0 512 512;" xml:space="preserve">
<path d="M256,0C115.2,0,0,115.2,0,256s115.2,256,256,256s256-115.2,256-256S396.8,0,256,0z M292.8,358.4c0,0-17.6,1.6-36.8,1.6
	s-36.8-1.6-36.8-1.6c-44.8-4.8-91.2-22.4-91.2-99.2c0-22.4,8-40,20.8-54.4c-1.6-4.8-9.6-25.6,1.6-52.8c0,0,17.6-4.8,54.4,20.8
	c16-4.8,33.6-6.4,49.6-6.4c17.6,0,33.6,1.6,49.6,6.4c38.4-25.6,54.4-20.8,54.4-20.8c11.2,27.2,4.8,48,1.6,52.8
	c12.8,14.4,20.8,32,20.8,54.4C384,336,337.6,353.6,292.8,358.4z"/>
</svg>
