<?xml version="1.0" encoding="utf-8"?>
<!-- Generator: Adobe Illustrator 21.1.0, SVG Export Plug-In . SVG Version: 6.00 Build 0)  -->
<svg version="1.1" xmlns="http://www.w3.org/2000/svg" xmlns:xlink="http://www.w3.org/1999/xlink" x="0px" y="0px"
	 viewBox="0 0 512 512" style="enable-background:new 0 0 512 512;" xml:space="preserve">
<g>
	<path d="M250.2,179.3c-7.2-26.5-25.7-44.4-46.4-39c-21.7,5.7-27.6,30.5-20.4,57c7.1,26.5,25,44.8,46.4,39.5
		C255.6,230.4,257.3,205.8,250.2,179.3z M235.7,293.2c-48-0.5-68.2,14.4-71.8,37.7c-3.8,24.5,20.3,40.4,44,44.1
		c31.4,5,59.3-5.2,63.5-29C277,314.4,240.4,299.9,235.7,293.2z M235.7,293.2c-48-0.5-68.2,14.4-71.8,37.7
		c-3.8,24.5,20.3,40.4,44,44.1c31.4,5,59.3-5.2,63.5-29C277,314.4,240.4,299.9,235.7,293.2z M229.7,236.8
		c25.9-6.5,27.6-31,20.4-57.5c-7.2-26.5-25.7-44.4-46.4-39c-21.7,5.7-27.6,30.5-20.4,57C190.5,223.8,208.4,242.1,229.7,236.8z
		 M255.7,0C114.9,0-0.3,115.2-0.3,256s115.2,256,256,256s256-115.2,256-256S396.5,0,255.7,0z M206.4,391.4
		c-44.6,0-72.2-20.7-72.2-49.5c0-35.9,36.9-55.6,89.9-58.1c-3.4-4.5-15.7-18.2-6.5-37c-38.2,5.8-66.5-20-66.5-53.6
		c0-40.9,36.6-58,50.4-61.7c11.3-3,22.7-5.1,34.4-5.1h66.3l-21.9,13.9h-20.8c7.8,6.8,23.8,20.2,23.8,46.7
		c0,41.8-37.5,44.9-37.5,66.1c0,21.2,48.8,27.5,48.8,72.9C294.6,363,259.1,391.4,206.4,391.4z M384.9,254h-34.1v35.1h-16.5v-34.6
		h-33.5V237h33.5v-34.1h16.5V237h34.1V254z M235.7,293.2c-48-0.5-68.2,14.4-71.8,37.7c-3.8,24.5,20.3,40.4,44,44.1
		c31.4,5,59.3-5.2,63.5-29C277,314.4,240.4,299.9,235.7,293.2z M250.2,179.3c-7.2-26.5-25.7-44.4-46.4-39
		c-21.7,5.7-27.6,30.5-20.4,57c7.1,26.5,25,44.8,46.4,39.5C255.6,230.4,257.3,205.8,250.2,179.3z"/>
</g>
</svg>
