<?xml version="1.0" encoding="utf-8"?>
<!-- Generator: Adobe Illustrator 21.1.0, SVG Export Plug-In . SVG Version: 6.00 Build 0)  -->
<svg version="1.1" xmlns="http://www.w3.org/2000/svg" xmlns:xlink="http://www.w3.org/1999/xlink" x="0px" y="0px"
	 viewBox="0 0 485 512" style="enable-background:new 0 0 485 512;" xml:space="preserve">
<path d="M215.5,245.5c0-41.1,72.6-47.1,72.6-128.1c0-51.3-30.9-77.3-46.1-90.4h40.4l42.4-27H196.3c-22.8,0-44.9,3.9-66.7,9.8
	C102.9,17,31.9,50.1,31.9,129.3c0,65.1,54.9,115.2,128.9,103.9c-17.9,36.4,6.1,62.9,12.6,71.6C70.8,309.7-0.7,347.8-0.7,417.4
	c0,55.7,53.5,95.8,139.9,95.8c102,0,170.9-55.1,170.9-126.4C310.1,298.7,215.5,286.6,215.5,245.5z M94.5,137.3
	C80.6,86,92,38,134.1,26.9c40-10.6,75.9,24.1,89.8,75.5c13.8,51.3,10.5,98.9-39.6,111.4C143,224,108.3,188.6,94.5,137.3z
	 M265.1,425.3c-8.2,46.1-62.1,65.7-123,56.1c-46-7.2-92.6-38.1-85.3-85.5c7-45.1,46.1-74,139.1-73C205,336,276,364,265.1,425.3z
	 M419,214v-66h-32v66h-65v34h65v67h32v-68h66v-33H419z"/>
</svg>
