<?xml version="1.0" encoding="utf-8"?>
<!-- Generator: Adobe Illustrator 21.1.0, SVG Export Plug-In . SVG Version: 6.00 Build 0)  -->
<svg version="1.1" id="Shape_1_1_" xmlns="http://www.w3.org/2000/svg" xmlns:xlink="http://www.w3.org/1999/xlink" x="0px" y="0px"
	 viewBox="0 0 461.6 512" style="enable-background:new 0 0 461.6 512;" xml:space="preserve">
<path d="M144.5,180.7c16.8,50.8,23.3,127.5-8.6,175C113.5,265.5,29.2,219.3,21.9,214.1C1.4,199.3-6.2,169.7,5.6,147.3l0,0
	c14.5-27.5,48.6-35.8,74.1-18C106.3,147.9,134.5,171,144.5,180.7z M171.3,69.4c26-13.4,58-1.9,69.5,25.1
	c9.3,21.7,36.2,96.8,37.4,171.4c1.2,74.6-30.4,135.5-42,158.7c-13.9,28-49.7,36.7-74.9,18.2l0,0c-19.4-14.3-25.9-40.3-15.7-62
	c12.1-25.7,35.1-58.2,32.9-115.7c-2.2-57.5-22-111.2-30.4-130.9C137.6,109.8,147.8,81.5,171.3,69.4L171.3,69.4z M313.3,393.7
	c-3.4-26.7-9.6-51.8-18.7-75.5c4.9-35.6,8.1-120.5-29.3-216.2c22.3,18.5,43.2,40.1,62.4,64.9C351.8,255.9,323.9,362.7,313.3,393.7z
	 M342.8,6.4c28.5-15.5,64-1.6,74.4,29.1c13.5,40,49.9,132.5,43.8,237c-6.1,104.5-31.9,168.1-43.6,202.8
	c-10.3,30.6-45.1,45.2-74.1,31.3l0,0c-23.5-11.3-35.5-37.8-28.5-62.9c19.5-49.1,39.1-89.3,41.6-182c2.5-92.7-26.4-158.2-38-192.9
	C310.3,44.8,320.6,18.5,342.8,6.4L342.8,6.4z"/>
</svg>
