<?xml version="1.0" encoding="utf-8"?>
<!-- Generator: Adobe Illustrator 22.0.1, SVG Export Plug-In . SVG Version: 6.00 Build 0)  -->
<svg version="1.1" id="Layer_1" xmlns="http://www.w3.org/2000/svg" xmlns:xlink="http://www.w3.org/1999/xlink" x="0px" y="0px"
	 viewBox="0 0 463.7 512" style="enable-background:new 0 0 463.7 512;" xml:space="preserve">
<g>
	<path d="M463.7,0H0l42,460l189.9,52l189.9-52L463.7,0z M384,431l-152.7,41.9L78.6,431c0,0-25.9-288.1-35.4-393.2
		c-0.1-1.2,111.2-1,170.2-0.9V37c0,0,6.8,0,17.9-0.1c11.1,0,17.9,0.1,17.9,0.1v-0.1c59-0.2,170.3-0.3,170.2,0.9
		C410,142.9,384,431,384,431z"/>
	<polygon points="101.1,265 301.3,265 295.2,339 228.8,355 165.5,338 161.4,293 105.2,293 112.3,381 229.8,414 348.3,381 364.6,209 
		154.2,209 149.1,151 369.7,151 374.8,94 85.8,94 	"/>
</g>
</svg>
