<?xml version="1.0" encoding="utf-8"?>
<!-- Generator: Adobe Illustrator 21.1.0, SVG Export Plug-In . SVG Version: 6.00 Build 0)  -->
<svg version="1.1" id="Layer_1" xmlns="http://www.w3.org/2000/svg" xmlns:xlink="http://www.w3.org/1999/xlink" x="0px" y="0px"
	 viewBox="0 0 512 512" style="enable-background:new 0 0 512 512;" xml:space="preserve">
<path d="M441,0H71C31.8,0,0,31.8,0,71v370c0,39.2,31.8,71,71,71h370c39.2,0,71-31.8,71-71V71C512,31.8,480.2,0,441,0z M384,353.6
	c0,16-14.4,30.4-30.4,30.4H158.4c-16,0-30.4-12.8-30.4-30.4V158.4c0-17.6,14.4-30.4,30.4-30.4h195.2c16,0,30.4,12.8,30.4,30.4V353.6
	z"/>
<path d="M348.8,158.4h-35.2c-3.2,0-6.4,3.2-6.4,6.4V200c-1.6,3.2,1.6,6.4,6.4,6.4h35.2c3.2,0,6.4-3.2,6.4-6.4v-35.2
	C355.2,161.6,352,158.4,348.8,158.4z M334.4,256c0,43.2-35.2,78.4-78.4,78.4s-78.4-35.2-78.4-78.4c0-6.4,1.6-14.4,3.2-20.8h-24v112
	c0,3.2,3.2,6.4,6.4,6.4h184c3.2,0,6.4-3.2,6.4-6.4v-112h-24C332.8,241.6,334.4,249.6,334.4,256z M256,305.6
	c27.4,0,49.6-22.2,49.6-49.6s-22.2-49.6-49.6-49.6s-49.6,22.2-49.6,49.6S228.6,305.6,256,305.6z"/>
</svg>
