<?xml version="1.0" encoding="utf-8"?>
<!-- Generator: Adobe Illustrator 21.1.0, SVG Export Plug-In . SVG Version: 6.00 Build 0)  -->
<svg version="1.1" xmlns="http://www.w3.org/2000/svg" xmlns:xlink="http://www.w3.org/1999/xlink" x="0px" y="0px"
	 viewBox="0 0 512 512" style="enable-background:new 0 0 512 512;" xml:space="preserve">
<g>
	<circle cx="256" cy="256" r="49.6"/>
	<path d="M348.8,158.4h-35.2c-3.2,0-6.4,3.2-6.4,6.4V200c-1.6,3.2,1.6,6.4,6.4,6.4h35.2c3.2,0,6.4-3.2,6.4-6.4v-35.2
		C355.2,161.6,352,158.4,348.8,158.4z"/>
	<path d="M256,0C115.2,0,0,115.2,0,256s115.2,256,256,256s256-115.2,256-256S396.8,0,256,0z M384,353.6c0,16-14.4,30.4-30.4,30.4
		H158.4c-16,0-30.4-12.8-30.4-30.4V158.4c0-17.6,14.4-30.4,30.4-30.4h195.2c16,0,30.4,12.8,30.4,30.4V353.6z"/>
	<path d="M334.4,256c0,43.2-35.2,78.4-78.4,78.4s-78.4-35.2-78.4-78.4c0-6.4,1.6-14.4,3.2-20.8h-24v112c0,3.2,3.2,6.4,6.4,6.4h184
		c3.2,0,6.4-3.2,6.4-6.4v-112h-24C332.8,241.6,334.4,249.6,334.4,256z"/>
</g>
</svg>
