<?xml version="1.0" encoding="utf-8"?>
<!-- Generator: Adobe Illustrator 16.0.0, SVG Export Plug-In . SVG Version: 6.00 Build 0)  -->
<!DOCTYPE svg PUBLIC "-//W3C//DTD SVG 1.1 Tiny//EN" "http://www.w3.org/Graphics/SVG/1.1/DTD/svg11-tiny.dtd">
<svg version="1.1" baseProfile="tiny" id="Layer_1" xmlns="http://www.w3.org/2000/svg" xmlns:xlink="http://www.w3.org/1999/xlink"
	 x="0px" y="0px" width="511.039px" height="512px" viewBox="0 0 511.039 512" xml:space="preserve">
<path fill="#010101" d="M-0.48,0h512v512h-512V0z M469.578,389.889c-3.732-23.361-18.943-42.987-64.063-61.291
	c-15.703-7.36-33.152-12.48-38.338-24.32c-1.939-7.04-2.238-10.88-0.98-15.04c3.199-13.781,19.52-17.92,32.32-14.08
	c8.32,2.56,16,8.96,20.82,19.2c22.059-14.422,22.059-14.422,37.441-24c-5.76-8.96-8.619-12.821-12.502-16.641
	c-13.439-15.039-31.338-22.72-60.459-22.059l-15.039,1.898c-14.422,3.521-28.16,11.201-36.48,21.44
	c-24.32,27.542-17.301,75.542,12.139,95.382c29.119,21.76,71.701,26.539,77.141,47.04c5.121,24.96-18.559,32.96-41.941,30.08
	c-17.301-3.841-26.879-12.502-37.439-28.502l-39.041,22.422c4.48,10.239,9.601,14.698,17.281,23.658
	c37.119,37.462,129.92,35.541,146.582-21.419c0.617-1.92,5.119-15.04,1.578-35.199L469.578,389.889L469.578,389.889z
	 M277.941,235.328h-47.958c0,41.344-0.192,82.432-0.192,123.84c0,26.283,1.344,50.41-2.944,57.835
	c-7.04,14.698-25.173,12.821-33.408,10.239c-8.448-4.181-12.736-9.94-17.707-18.239c-1.344-2.24-2.347-4.182-2.709-4.182l-38.933,24
	c6.506,13.44,16,25.003,28.245,32.362c18.24,10.881,42.752,14.4,68.416,8.641c16.704-4.821,31.104-14.741,38.635-30.102
	c10.879-19.84,8.576-44.16,8.469-71.381c0.256-43.819,0-87.659,0-131.819L277.941,235.328L277.941,235.328z"/>
</svg>
