<?xml version="1.0" encoding="utf-8"?>
<!-- Generator: Adobe Illustrator 22.0.1, SVG Export Plug-In . SVG Version: 6.00 Build 0)  -->
<svg version="1.1" id="Layer_1" xmlns="http://www.w3.org/2000/svg" xmlns:xlink="http://www.w3.org/1999/xlink" x="0px" y="0px"
	 viewBox="0 0 391.9 512" style="enable-background:new 0 0 391.9 512;" xml:space="preserve">
<g>
	<path d="M198.2,283.2c-3.6-8.2-11.2-19.8-14.7-26.2c-7.7-14.4-11.6-19.9-18.9-34.6c-5.2-10.2-6.6-22.2-4-33.4
		c2.8-10.5,9.5-19.5,16.7-27.5c22.6-24.4,51.5-42.8,72.1-69c10.4-13.1,18.2-29.1,18-45.9c0.2-16.4-6.8-32-15.9-45.5
		c2.2,38.9-23.3,73.6-38.2,86.6c-22.1,19.6-48.5,34.2-69.5,55.1c-11.4,11.3-20.6,25.5-22.1,41.6c-2,19.7,6.6,39,19.5,53.8
		C157.1,256.5,176.7,271.7,198.2,283.2z"/>
	<path d="M194.8,171.2c-7.1,17-6.5,37.2,3.5,53c7.9,14,22.5,24.8,25,41.3c1.8,13.3-5.6,22.6-13.1,34.5c18.6-2.4,36.4-13.1,44.8-29.8
		c6.3-12.3,7.5-27.6,0.9-39.9c-6.5-12.9-19-22.1-24.1-35.8c-4.2-11.9,1.3-25.1,10.1-33.6c17.1-16.9,41-24.8,59.7-39.7
		c5.3-4.3,16.4-13.1,20.4-19.1c-4,1-15.6,3.4-19.3,4.7c-25.4,7.7-51.2,15.2-74.1,28.8C214.3,144.1,201.2,155.8,194.8,171.2z"/>
	<path d="M330.4,272c-9,1.9-17.3,7.6-20.4,16c10.3-0.8,22,0.1,32,3.3c6.5,2,12.4,6.4,15,12.6c3.7,9.2,1.5,20-4.5,27.8
		c-7.4,10-18.5,16.4-28.8,23.2c-7.9,5.2-17.6,12.1-26.6,18.1c0,0-1.1,4.5-2,6c28.3,2.7,59.7-12.1,79.7-31.1c8.8-8.9,17-20,17.4-32.6
		C393.2,270,349,268,330.4,272z"/>
	<path d="M50.7,320.7c13.1,5.9,27.8,7,42,8.5c19.5,1.3,39,2.4,58.6,2.2c42,0.5,84-3.9,125-12.8c3.6-7.6,17.6-18.6,21.6-23.6
		c-50.2,4-109.1,15.7-159.3,13.4c-14.8-0.8-42.3-2.4-43.8-6.6c-1.5-7.8,30.4-18.3,43.7-19.8c-13-5-24.6-4.5-36.9-2.8
		c-15.9,2.6-31.7,6.9-45.8,14.4c-5.6,3.3-12.1,7.1-14.1,13.5C39.9,313.3,45.5,318.4,50.7,320.7z"/>
	<path d="M262.8,345c-20.1,4-41,9-61.9,10.4c-29,2-58.5,0.9-86.7-6.2c-6.8-3.2-4.9-5.9,2.2-12.2c-10,0-19.6,0.7-27.9,6.7
		c-6,4.2-8,12.3-5.7,19c2.2,5.4,7.6,8.6,12.8,11c9.5,4.2,19.9,6.3,30.1,7.9c28.2,4.2,56.9,4.3,85.3,2.3c16.2-1.3,32.4-3.3,48.2-7.3
		c11.2-3,22.7-6.8,31.5-14.5C280.8,358,270.8,352,262.8,345z"/>
	<path d="M179.8,405.8c-16.8,1.3-34.1,1.1-50.1-4.3c-7.3-3.5-8.3-7.5-3.3-11.5c-10,1-16.4,2.5-21.4,6.9c-4.1,3.9-8.6,8.9-7.9,14.9
		c0.7,7,6.7,12.1,12.7,15.3c12.4,6.5,26.4,9.3,40.3,11.2c21.1,2.4,42.5,2.4,63.7,0.6c16.8-1.6,40-3.9,65.1-18.9l-34.1-21
		C220.7,403,202.2,404.4,179.8,405.8z"/>
	<path d="M281.7,481.7c26.4-4,53.5-9,76.4-23.2c5.6-3.6,12.7-10,9.1-17.1c-3.5-5.4-9.9-9.6-16.3-10.5c-2.4,4-0.6,8.9-1.9,13.2
		c-20,6.5-40.8,10.4-61.6,13.7c-38.9,5.8-78.4,8-117.7,7.6c-41.6-1-123.5-9.4-123.6-16C46.1,445,69.2,434,91.3,435
		c-7.6-6.6-18.3-8-28.1-8c-17.6,0.7-35.2,3.4-50,13c-7.2,4.8-14.2,12.3-13.1,21.4c-0.1,5,4.2,8.6,8.5,10.5c8.7,4,18.3,5.3,27.7,6.8
		c26.9,3.6,53.9,6.4,81,7.9C172.1,489.7,227.3,489.3,281.7,481.7z"/>
	<path d="M330.3,478.6c-35.4,8.8-71.9,12.5-108.3,14.6c-23.6,1.1-47.1,1.9-70.7,1.1c-15.2-0.5-32.9,0.6-49.9-1.4
		c-13-1-23.1-2-37.1-3c9.9,8,29.2,15.2,41.7,17.5c19.6,3.5,39.6,3.9,59.5,4.8c40.2,1.8,80.5,0.2,120.6-3.3
		c25.1-2.7,50.8-6.2,73.8-17c14.1-6.6,25-24.2,27.3-39.9C374.1,465,347.6,474.1,330.3,478.6z"/>
</g>
</svg>
