<?xml version="1.0" encoding="utf-8"?>
<!-- Generator: Adobe Illustrator 21.1.0, SVG Export Plug-In . SVG Version: 6.00 Build 0)  -->
<svg version="1.1" id="Layer_1" xmlns="http://www.w3.org/2000/svg" xmlns:xlink="http://www.w3.org/1999/xlink" x="0px" y="0px"
	 viewBox="0 0 510.4 512" style="enable-background:new 0 0 510.4 512;" xml:space="preserve">
<g>
	<path d="M58.9,135.7c-10.9,37.7-1.5,80,28.2,109.7l111.8,111.8l49.3-49.3L136.6,196.4c-16.2-16.2-16.2-42.6,0-58.8
		c16.2-16.2,42.6-16.2,58.8,0l4,4l49.3-49.3l-4.2-4.2C214.9,58.4,172.7,49,135,59.7c-1.9-14.3-8.3-28.2-19.3-39.2
		c-26.5-26.5-69.4-26.5-95.9,0c-26.5,26.5-26.5,69.4,0,95.9C30.8,127.4,44.6,133.8,58.9,135.7z"/>
	<path d="M307.3,263.8L195.7,375.4c-16.2,16.2-42.6,16.2-58.8,0c-16.2-16.2-16.2-42.6,0-58.8l4-4l-49.3-49.3l-4.2,4.2
		C57.7,297.1,48.3,339.3,59.1,377c-14.3,1.9-28.2,8.3-39.2,19.3c-26.5,26.5-26.5,69.4,0,95.9c26.5,26.5,69.4,26.5,95.9,0
		c11-11,17.4-24.7,19.3-39c37.7,10.9,80,1.5,109.7-28.2l111.8-111.8L307.3,263.8z"/>
	<path d="M490.6,395.5c-11-11-24.7-17.4-39-19.3c10.9-37.7,1.5-80-28.2-109.7L311.6,154.7L262.3,204l111.6,111.6
		c16.2,16.2,16.2,42.6,0,58.8c-16.2,16.2-42.6,16.2-58.8,0l-4-4l-49.3,49.3l4.2,4.2c29.6,29.6,71.8,39.1,109.5,28.3
		c1.9,14.3,8.3,28.2,19.3,39.2c26.5,26.5,69.4,26.5,95.9,0C517.1,464.9,517.1,422,490.6,395.5z"/>
	<path d="M202.6,249.2l111.6-111.6c16.2-16.2,42.6-16.2,58.8,0c16.2,16.2,16.2,42.6,0,58.8l-4,4l49.3,49.3l4.2-4.2
		c29.6-29.6,39.1-71.8,28.3-109.5c14.3-1.9,28.2-8.3,39.2-19.3c26.5-26.5,26.5-69.4,0-95.9c-26.5-26.5-69.4-26.5-95.9,0
		c-11,11-17.4,24.7-19.3,39c-37.7-10.9-80-1.5-109.7,28.2L153.3,199.9L202.6,249.2z"/>
</g>
</svg>
