<?xml version="1.0" encoding="utf-8"?>
<!-- Generator: Adobe Illustrator 16.0.0, SVG Export Plug-In . SVG Version: 6.00 Build 0)  -->
<!DOCTYPE svg PUBLIC "-//W3C//DTD SVG 1.1 Tiny//EN" "http://www.w3.org/Graphics/SVG/1.1/DTD/svg11-tiny.dtd">
<svg version="1.1" baseProfile="tiny" id="Layer_1" xmlns="http://www.w3.org/2000/svg" xmlns:xlink="http://www.w3.org/1999/xlink"
	 x="0px" y="0px" width="511.996px" height="512px" viewBox="0 0 511.996 512" xml:space="preserve">
<path fill="#010101" d="M137.829,283.008l292.267-70.017c-16.17-22.976-89.707-127.21-96.789-137.109
	c-8-11.179,0.17-16.405,13.162-18.56c12.971-2.219,124.801-20.992,134.357-22.378c8.043-1.173,14.721-3.776,25.855,6.549
	C496.444,17.13,472.272,0,444.112,0H68.176C35.045,0,7.504,23.658,1.552,55.083L137.829,283.008z"/>
<path fill="#010101" d="M485.03,61.312c-4.395,0.939-101.654,18.539-107.627,19.35c-5.973,0.789-4.01,4.139-1.578,7.573
	l85.568,117.376l50.58-12.438V83.712c-7.039-8.96-12.139-15.552-13.354-17.302C493.178,59.072,489.403,60.288,485.03,61.312
	 M511.973,322.581c-24.854-34.091-51.967-71.168-54.549-74.838c-3.541-5.119-5.439-6.08-13.824-3.392l-284.928,74.177
	c0,0,87.467,151.552,94.166,161.151c6.719,9.729,10.836,8.917,16.063,6.698c3.861-1.706,166.315-56.618,243.051-82.603v-81.13
	L511.973,322.581z M511.973,272.448V229.61l-26.666,7.125L511.973,272.448 M337.061,511.658h107.072
	c35.734,0,65.004-27.605,67.648-62.635c-54.678,19.776-125.504,45.099-174.742,62.635 M118.309,329.003L-0.027,359.829v83.968
	c0.363,37.483,30.741,67.883,68.16,67.883h153.472c-20.075-32.789-74.73-131.264-103.104-182.677 M94.608,284.864L0.336,122.048
	v194.091l92.331-22.038c7.531-1.749,5.739-2.73,2.027-9.215"/>
<path fill="#010101" d="M483.067,233.621l28.906-7.851v13.439l-19.818,6.635L483.067,233.621L483.067,233.621z"/>
</svg>
