<?xml version="1.0" encoding="utf-8"?>
<!-- Generator: Adobe Illustrator 21.1.0, SVG Export Plug-In . SVG Version: 6.00 Build 0)  -->
<svg version="1.1" id="Layer_1" xmlns="http://www.w3.org/2000/svg" xmlns:xlink="http://www.w3.org/1999/xlink" x="0px" y="0px"
	 viewBox="0 0 512 512" style="enable-background:new 0 0 512 512;" xml:space="preserve">
<path d="M441,0H71C31.8,0,0,31.8,0,71v370c0,39.2,31.8,71,71,71h370c39.2,0,71-31.8,71-71V71C512,31.8,480.2,0,441,0z M326.4,241.6
	l19.2,4.8C371.2,252.8,384,264,384,288c0,27.2-24,38.4-60.8,38.4c-51.2,0-68.8-22.4-78.4-51.2l-9.6-28.8
	c-6.4-20.8-16-38.4-41.6-38.4c-17.6,0-36.8,12.8-36.8,49.6c0,28.8,14.4,46.4,35.2,46.4c22.4,0,38.4-17.6,38.4-17.6L240,312
	c0,0-16,16-49.6,16c-41.6,0-64-24-64-68.8c0-46.4,22.4-73.6,65.6-73.6c38.4,0,59.2,14.4,70.4,52.8l9.6,28.8
	c6.4,20.8,19.2,36.8,49.6,36.8c19.2,0,30.4-4.8,30.4-16c0-8-4.8-14.4-19.2-17.6l-19.2-4.8c-24-6.4-33.6-19.2-33.6-38.4
	c0-32,25.6-41.6,52.8-41.6c30.4,0,48,11.2,51.2,36.8l-28.8,3.2c-3.2-12.8-11.2-17.6-24-17.6s-20.8,6.4-20.8,16
	C310.4,232,313.6,238.4,326.4,241.6z"/>
</svg>
