<?xml version="1.0" encoding="utf-8"?>
<!-- Generator: Adobe Illustrator 21.1.0, SVG Export Plug-In . SVG Version: 6.00 Build 0)  -->
<svg version="1.1" id="Layer_1" xmlns="http://www.w3.org/2000/svg" xmlns:xlink="http://www.w3.org/1999/xlink" x="0px" y="0px"
	 viewBox="0 0 550 512" style="enable-background:new 0 0 550 512;" xml:space="preserve">
<path d="M243.1,375.5l-20.7-55.1c0,0-32.8,36.2-82.8,36.2c-43.1,0-74.1-37.9-74.1-98.3c0-77.6,39.7-105.2,77.6-105.2
	c55.2,0,74.1,36.2,87.9,82.8l20.7,63.8c20.7,62,58.6,110.3,167.2,110.3c77.6,0,131.1-24.2,131.1-87.9c0-51.7-29.3-77.6-82.8-89.6
	l-39.7-8.6c-27.5-6.9-36.2-17.3-36.2-36.2c0-20.7,17.3-34.5,44.8-34.5c31,0,46.5,12.1,50,37.9l63.8-6.9c-5.2-56.9-44.8-81-108.6-81
	c-56.9,0-112.1,20.7-112.1,89.6c0,43.1,20.7,70.7,74.1,82.8l43.1,10.3c32.8,6.9,43.1,20.7,43.1,39.7c0,24.2-22.4,32.8-65.5,32.8
	c-63.8,0-89.6-32.8-105.2-79.3l-20.7-63.8c-25.8-82.8-69-112.1-153.4-112.1C50,103.1,0,161.7,0,261.7C0,358.3,50,410,137.9,410
	C208.6,410,243.1,375.5,243.1,375.5L243.1,375.5z"/>
</svg>
