<?xml version="1.0" encoding="utf-8"?>
<!-- Generator: Adobe Illustrator 21.1.0, SVG Export Plug-In . SVG Version: 6.00 Build 0)  -->
<svg version="1.1" xmlns="http://www.w3.org/2000/svg" xmlns:xlink="http://www.w3.org/1999/xlink" x="0px" y="0px"
	 viewBox="0 0 512 512" style="enable-background:new 0 0 512 512;" xml:space="preserve">
<path d="M115.2,512H9.6V169.6h105.6V512z M60.8,124.8C28.8,124.8,0,96,0,60.8C0,28.8,28.8,0,60.8,0c35.2,0,60.8,28.8,60.8,60.8
	C121.6,96,96,124.8,60.8,124.8z M512,512H406.4V345.6c0-38.4,0-89.6-54.4-89.6s-64,41.6-64,86.4V512H182.4V169.6h102.4v48l0,0
	c12.8-25.6,48-54.4,99.2-54.4c108.8,0,128,70.4,128,163.2V512z"/>
</svg>
