<?xml version="1.0" encoding="utf-8"?>
<!-- Generator: Adobe Illustrator 21.1.0, SVG Export Plug-In . SVG Version: 6.00 Build 0)  -->
<svg version="1.1" xmlns="http://www.w3.org/2000/svg" xmlns:xlink="http://www.w3.org/1999/xlink" x="0px" y="0px"
	 viewBox="0 0 512 512" style="enable-background:new 0 0 512 512;" xml:space="preserve">
<path d="M256,0C115.2,0,0,115.2,0,256s115.2,256,256,256s256-115.2,256-256S396.8,0,256,0z M185.6,384h-52.8V212.8h52.8V384z
	 M158.4,190.4c-16,0-30.4-14.4-30.4-32c0-16,14.4-30.4,30.4-30.4c17.6,0,30.4,14.4,30.4,30.4C188.8,176,176,190.4,158.4,190.4z
	 M384,384h-52.8v-83.2c0-19.2,0-44.8-27.2-44.8s-32,20.8-32,43.2V384h-52.8V212.8h51.2v24l0,0c6.4-12.8,24-27.2,49.6-27.2
	c54.4,0,64,35.2,64,81.6V384z"/>
</svg>
