<?xml version="1.0" encoding="utf-8"?>
<!-- Generator: Adobe Illustrator 21.1.0, SVG Export Plug-In . SVG Version: 6.00 Build 0)  -->
<svg version="1.1" id="Layer_6" xmlns="http://www.w3.org/2000/svg" xmlns:xlink="http://www.w3.org/1999/xlink" x="0px" y="0px"
	 viewBox="0 0 434.6 512" style="enable-background:new 0 0 434.6 512;" xml:space="preserve">
<g>
	<path d="M178.9,121.6c0,1.1,0.5,1.6,1.4,1.4c0.8,0,1.6-0.9,2.4-2.7c0.9-1.8,2.3-2.8,4.4-3c-1,0-1.9,0-2.9,0
		C180.8,117.9,178.9,119.3,178.9,121.6z"/>
	<path d="M212.9,118.7c-1.5-2.5-4.6-2.7-9.1-0.6c1.9-0.6,3.6-0.1,5,1.3c1.4,1.4,2.5,2.1,3.3,1.9
		C213.2,120.7,213.5,119.9,212.9,118.7z"/>
	<path d="M422.2,421.3c-7.3-4.7-28-11-29.1-47.7c-2.7,2.3-4.1,6.8-4.4,13.6c-0.6,13.5,5.8,30.2,18.4,34.4
		c31,10.7,21.8,20.7,16.6,24.7c-7.8,6.8-40.3,15.7-51.5,22.6c-5.8,3.3-14.3,9.6-25.5,19c-7.6,6.3-15.7,9.7-24.3,10.1
		c-8.6,0.5-15.5-2.7-20.8-9.4c-5.3-6.8-7-16.3-5.1-28.7c3.6-23.8,3.5-42.3-0.3-55.6c-6.1-20.9-1.2-39,6-41.7
		c3.6-1.3,7.5,1.5,11.7,8.6c1.4,3.4,5.9,20.1,25.1,21.1c12.9,0.4,23.8-6.5,29-13.6c5.1-7,10.6-14.8,14.4-15.5c2.1-0.4,4-2.5,5.7-6.3
		c3.4-7.6,5-21.3,2-40c-5.7-33.2-24.4-78.5-45.4-101c-18.8-20-31.5-40.7-38-62.2c-6.7-22.7-9.5-43-8.6-61.1c1-12.9-1.9-27-8.4-42.1
		c-6.6-15.1-15.3-26.7-26.1-34.7c-6.8-5.1-15.3-9.1-25.4-11.9c-10.1-2.8-20.2-4-30.3-3.8c-12.4,0-22.3,2-29.7,6
		c-15.2,8.2-25.3,18.1-30.3,29.8c-4.9,11.7-7.2,26.1-6.9,43.2c0.8,37.7,2.3,67.2,4.6,88.5c-2.7,9.9-14.5,28.5-35.4,55.7
		c-15.6,15.6-27.6,53.6-28.1,55.1c-4.3,11.9-12.1,29.7-13.9,32.5C54.6,332.6,59,350.2,59,350c0.8,4.5,2.2,5.9,4.3,4.2
		c8.6-6.5,19.3-2.7,32.3,11.4c26.7,32.3,42.7,61.2,54,79.5c3.8,7.4,8.1,21.6,7.6,31.5c-0.1,1.2-3.8,28.5-40.8,20.5
		c-24.9-9.2-89.3-21.6-97.2-24c-6.5-1.7-10-4.2-10.6-7.4c-1.4-6.8,10.5-22.9,8.6-34c-0.8-4.5-12.7-25.3-7.4-31.4
		c1.7-2.5,5.8-3.4,12.3-2.9c9.7,0.9,42.5-0.9,32.8-34.5c0,3.1-0.8,26.1-32.5,28C4.4,391.8,3.1,397,3,402.7
		c-0.9,10,11.1,29.1,0.1,49.5c-3.2,8.3-3.9,14.6-2,19c1.2,2.6,3.1,7.9,24.5,12.2c-3-0.8,36.4,4.9,71.7,17.8
		c15.6,5.7,26.2,8.7,31.7,8.8c10.7,0.4,20.8-5.3,27.7-11.4c6.8-6.1,21.2-12.5,38-12.8c3.5-0.2,61.1-1.1,69.9-0.9
		c11.4,0.4,17.8,4.1,19.7,8.3c7.9,19.1,39.3,24.3,58,12.5c5.3-5.1,33.8-30,46-34.3c10.6-6.1,42.8-17.7,45.5-30
		C433.8,441.1,439.3,431.6,422.2,421.3z M278.5,152.4c1.8-1.3,6.9,9,12,8.9c3.2-0.1,5.8,2.6,5.8,5.8c0,3.2-1.7,6.9-4.9,6.7
		C287.2,173.6,270.9,157.8,278.5,152.4z M244.6,33.3c0-2.2,1.6-4,3.6-4c2,0,12.2,6.7,12.5,8.9c0.4,2.6-6,1.6-10.7,3.6
		c-4,1.7-5.5,5.9-8,4.5C239,44.8,245.8,39.7,244.6,33.3z M104.4,255.2c3.4-3.9,5.7-10.9,5.7-11.1c0,0,0,0,0,0
		c0.9-1.8,2.4-0.5,2.6-0.3c1,1-0.2,3.8-0.3,4.1c0,0,0,0,0-0.1c-0.2,0.5-2.7,7-4.7,8.8c-1.6,1.5-2.8,2.2-3.6,2
		C103,258.2,103.1,257.1,104.4,255.2z M291.1,431.3c-0.4,7-7.6,44.9-8,47.7c-4-0.2-6.3-1.7-6.9-4.4c-0.6-2.8,0-6.3,1.7-10.7
		c4.2-12.8,6.4-21.5,6.6-26.3c0.4-8.8-0.6-13.7-2.8-14.8c-2.1-1.5-5.3,1.3-9.7,8.6c-18.7,30.5-85.3,31.4-97.9,14.6
		c-5.9-4.2-11.2,0.5-8.8,3.7c0.4,0.5,4.8,6.2,5.7,8c7.4,12.9,6.8,21.7-2,26.3c0-25-10.5-36.5-18.3-48.2c5.7-0.6,10-2.8,13-6.6
		c3-3.8,4.3-7.9,4-12.3c-0.3-4.4-2-8-5-10.9c-1.7-1.7-10.6-9-26.5-21.8c-16-12.8-25.9-21.5-29.7-25.8c-1.5-1.5-12.1-9.2-14-13.7
		c-8.8-19.2-9.7-35-2.8-47.4c0,0,2.6-1.8,1.4,3.7c-0.1,0.2-6,28.1,9.1,42.8c4,4,6.8,3.7,8.3-0.9c1.1-1.5,1.7-7.1,1.6-16.8
		c-3.1-36.6,23.2-83.1,31.8-85.6c-3.4-5.5-4.5-11.5-3.3-18c2.5-13.3,19.8-35.3,19-51.4c4.5-2.1,11.8,18.9,25.1,27.1
		c8.4,4.6,17.9-1.1,33-12.6c9.8-7.4,29.4-17.8,29.8-18c3.5-2.3,4.6-5.9,0.7-7.1c-8.8-1.6-34.8,20.6-50.7,20c-18,0.5-24-12.4-24-11.8
		c-0.1-0.7,0.8-0.8,2.6-0.5c29.9,3.5,26-0.6,71.6-17.7c2.3-0.6,3.9-1.5,4.7-2.7c0.9-1.2,1.2-2.4,0.9-3.4c-0.3-1-0.9-1.9-1.8-2.4
		c-2.1-1.1-4-0.4-5.7,2.3c-11.2,12.2-51.1,18.4-59.9,18c-8.4-0.4-13.5-2.7-15.4-5.6c-1.9-2.9-6.3-7.9-11.7-11
		c-1.9-1-2.6-2.7-2.1-5.1c1.4-7.5,6.9-9.3,10.3-11.3c5.7-2.8,9.5-10.6,16.7-15c0.2-0.8,0.3-2.9,0.4-6.3c0.2-6.9-4-17.1-10.4-17.1
		c-9.1-0.4-12.7,6.2-12.3,14.6c0.4,7.2,4.5,13.7,7.1,13.7c2.1-0.2,2.8,0.6,2,2.3c-3,5.4-6.2,5.2-9,0.1c-3.2-5.9-5.1-15.6-4.7-21.3
		c0.8-11.8,6.3-25.2,16.5-24.8c10.7,0.4,17.8,13.7,17.4,35.4c0.6,1.3,2,1.8,4.4,1.4c4.8-0.8,14.4-0.6,17.8,2.8
		c0.2,0,0.3-1.4,0.3-4.3c-3.4-24,5-36.7,25.4-38.3c22.6,4.2,23.8,26.3,24.3,29.4c0,1.9,2.6,19.2-3.7,20.8c-8,2.7-12.2-0.5-8-7.7
		c3.8-9.5-1.6-26.3-15.7-25.1c-9.5,0.4-13.7,12.7-12.6,22.3c0.6,4.8,1.6,7.2,3.1,7.4c0.5,0.1,19.3,9,22.8,9.7
		c14.9,3,15.2,8.9,11.4,21.3c-1.9,6.2-2.5,11.3-1.7,15.3c0.7,3.9,2,7.4,3.8,10.7c-1-2.3,17.1,23.1,24.4,55.6
		c9.7,10,24.3,34.5,24.7,76.5c0.1,11.6,1.5,19.4,2.3,23.8c1.4,8.4,20.9,9.3,25.3-6.7c6.3-22.1,1.1-48.5-15.4-79.3
		c-6.3-12-11.7-19.9-16.3-23.7c21,16,49.4,53.8,34.8,111c10.5,4.6,15.7,8.6,15.7,12c-27.4-15.7-48.2-0.8-47.7,11.7
		c-11.1,0-20.7,5.3-21.1,25.3C286.9,392.8,291.4,428.9,291.1,431.3z M170.1,98.8c0-1.7,0.9-2.4,2.6-2c1.2,0.4,2.2,1.8,3.3,4.3
		c1,2.5,1.3,5.3,0.7,8.6c0,0.6-0.3,0.9-0.8,0.9c-2.1,0-2.9-1.9-2.3-5.7C173.7,102.4,172.1,100.7,170.1,98.8z M236.3,97
		c-1.3-0.7-1.2-0.8-0.5-0.5c-0.6-0.9,0.2-1.4,2.5-1.5c1.2-0.4,3.8,1.2,5.7,4.4c0.9,1.6,1.4,3.5,1.4,5.6c0,0-2.2,3.9-2.9,1.4
		c-0.9-6-5.2-9.1-6.7-9.9C236,96.7,236.1,96.9,236.3,97z"/>
</g>
</svg>
