<?xml version="1.0" encoding="utf-8"?>
<!-- Generator: Adobe Illustrator 19.0.0, SVG Export Plug-In . SVG Version: 6.00 Build 0)  -->
<svg version="1.1" id="Layer_1" focusable="false" xmlns="http://www.w3.org/2000/svg" xmlns:xlink="http://www.w3.org/1999/xlink"
	 x="0px" y="0px" viewBox="-31 0 448 512" style="enable-background:new -31 0 448 512;" xml:space="preserve">
<path d="M299.6,243.5c3.1-0.4,6.2-0.4,9.3,0c1.7-3.8,2-10.4,0.5-17.6c-2.2-10.7-5.3-17.1-11.5-16.1s-6.5,8.7-4.2,19.4
	C294.9,235.2,297.1,240.3,299.6,243.5L299.6,243.5z M246,252c4.5,2,7.2,3.3,8.3,2.1c1.9-1.9-3.5-9.4-12.1-13.1
	c-10.1-4.2-21.7-2.8-30.6,3.7c-3,2.2-5.8,5.2-5.4,7.1c0.9,3.7,10-2.7,22.6-3.5C235.8,247.9,241.6,250.1,246,252L246,252z M237,257.1
	c-9.1,1.4-15,6.5-13.5,10.1c0.9,0.3,1.2,0.8,5.2-0.8c6-2.3,12.4-2.9,18.7-2c2.9,0.3,4.3,0.5,4.9-0.5
	C253.9,261.8,246.7,256,237,257.1L237,257.1z M291.2,274.2c3.4-6.9-10.9-13.9-14.3-7S287.8,281.1,291.2,274.2L291.2,274.2z
	 M306.9,253.8c-7.7-0.1-8,15.8-0.3,15.9S314.6,253.9,306.9,253.8L306.9,253.8z M88.1,332.7c-1.3,0.3-6,1.5-8.5-2.4
	c-5.2-8,11.1-20.4,3-35.8c-9.1-17.5-27.8-13.5-35.1-5.5c-8.7,9.6-8.7,23.5-5,24.1c4.3,0.6,4.1-6.5,7.4-11.6
	c3.9-5.9,11.8-7.6,17.7-3.8c0,0,0.1,0,0.1,0.1c11.6,7.6,1.4,17.8,2.3,28.6c1.4,16.7,18.4,16.4,21.6,9c0.4-0.7,0.3-1.7-0.2-2.3
	C91.5,333.9,92.1,331.7,88.1,332.7L88.1,332.7z M387.8,315.6c-3.4-11.7-2.6-9.2-6.8-20.5c2.5-3.7,15.3-24-3.1-43.3
	c-10.4-10.9-33.9-16.5-41.1-18.5c-1.5-11.4,4.6-58.7-21.5-83c20.8-21.6,33.8-45.3,33.7-65.7c-0.1-39.2-48.1-51-107.4-26.5l-12.5,5.3
	c-0.1,0-22.7-22.3-23.1-22.6C138.5-18-72.8,216.8-5.2,273.9l14.8,12.5c-4,10.7-5.4,22.2-4.1,33.5c3.4,33.4,36,60.4,67.5,60.4
	c57.7,133.1,267.9,133.3,322.3,3c1.7-4.5,9.1-24.6,9.1-42.4S394.3,315.6,387.8,315.6L387.8,315.6z M71.8,363.8
	c-22.8-0.6-47.5-21.1-49.9-45.5c-6.2-61.3,74.3-75.3,84-12.3C110.4,335.5,101.2,364.4,71.8,363.8L71.8,363.8z M53.3,249.6
	c-15.2,2.9-28.5,11.5-36.7,23.4c-4.9-4.1-14-12-15.6-15c-13-24.9,14.2-73,33.3-100.2C81.4,90.6,155.2,39.7,189.4,48.9
	c5.6,1.6,23.9,22.9,23.9,22.9s-34.2,18.9-65.8,45.3C104.8,150,72.6,197.7,53.3,249.6L53.3,249.6z M292.2,350.7
	c0,0-35.7,5.3-69.5-7.1c6.2-20.2,27,6.1,96.4-13.8c15.3-4.4,35.4-13,51-25.4c3.4,7.8,5.8,15.9,7.1,24.3c3.7-0.7,14.3-0.5,11.4,18.1
	c-3.3,19.9-11.7,36-25.9,50.8c-8.9,9.6-19.4,17.5-31.1,23.3c-6.5,3.4-13.3,6.3-20.3,8.6c-53.5,17.5-108.3-1.7-126-43
	c-1.4-3.1-2.6-6.4-3.6-9.7c-7.5-27.2-1.1-59.8,18.8-80.4c1.2-1.3,2.5-2.9,2.5-4.8c-0.2-1.7-0.8-3.3-1.9-4.5
	c-7-10.1-31.2-27.4-26.3-60.8c3.5-24,24.5-40.9,44.1-39.9l5,0.3c8.5,0.5,15.9,1.6,22.9,1.9c11.7,0.5,22.2-1.2,34.6-11.6
	c4.2-3.5,7.6-6.5,13.3-7.5c4.6-1.2,9.6-0.3,13.6,2.2c10,6.6,11.4,22.7,11.9,34.5c0.3,6.7,1.1,23,1.4,27.6c0.6,10.7,3.4,12.2,9.1,14
	c3.2,1.1,6.1,1.8,10.5,3.1c13.2,3.7,21,7.5,26,12.3c2.5,2.5,4.2,5.8,4.7,9.3c1.6,11.4-8.8,25.4-36.3,38.2
	c-46.7,21.7-93.7,14.5-100.5,13.7c-20.1-2.7-31.6,23.3-19.6,41.1c22.6,33.4,122.4,20,151.4-21.4c0.7-1,0.1-1.6-0.7-1
	c-41.8,28.6-97.1,38.2-128.5,26c-4.8-1.9-14.7-6.4-15.9-16.7c43.6,13.5,71,0.7,71,0.7S294.8,350.4,292.2,350.7L292.2,350.7z
	 M140.3,157.5c16.7-19.4,37.4-36.2,55.8-45.6c0.3-0.2,0.8-0.1,1,0.3c0.1,0.2,0.1,0.5,0,0.7c-1.5,2.7-4.3,8.3-5.2,12.7
	c-0.1,0.4,0.2,0.8,0.6,0.9c0.2,0.1,0.4,0,0.6-0.1c11.5-7.8,31.5-16.2,49-17.3c0.4,0,0.8,0.3,0.8,0.7c0,0.3-0.1,0.5-0.3,0.7
	c-2.9,2.2-5.5,4.8-7.7,7.7c-0.2,0.3-0.2,0.8,0.2,1c0.1,0.1,0.3,0.1,0.4,0.1c12.3,0.1,29.7,4.4,41,10.7c0.8,0.4,0.2,1.9-0.6,1.7
	c-69.6-15.9-123.1,18.5-134.5,26.8c-0.4,0.2-0.8,0.1-1.1-0.2C140.1,158.1,140.2,157.7,140.3,157.5L140.3,157.5z"/>
</svg>
