<?xml version="1.0" encoding="utf-8"?>
<!-- Generator: Adobe Illustrator 22.0.1, SVG Export Plug-In . SVG Version: 6.00 Build 0)  -->
<svg version="1.1" id="Layer_1" xmlns="http://www.w3.org/2000/svg" xmlns:xlink="http://www.w3.org/1999/xlink" x="0px" y="0px"
	 viewBox="0 0 262.7 512" style="enable-background:new 0 0 262.7 512;" xml:space="preserve">
<style type="text/css">
	.st0{fill-rule:evenodd;clip-rule:evenodd;}
</style>
<path class="st0" d="M162.4,40.9C142.4,22,130.5,0,127.1,0c0,0-13.8,18.5-36.2,43.6C53.7,85.2,0,151.8,0,231.5
	c0,130.1,78.7,197,112.6,217.2c7.6,4.6,17.2,63.2,18.9,63.2c6,0,10.1-59,19.5-63.8c43.3-22.4,111.9-96.3,111.9-224.2
	C262.8,138.8,202.6,78.9,162.4,40.9z M123.6,433.2c-7.9,0-111.9-58-111.9-201.5c0-71.8,47.3-131.7,80-169.1
	c19.7-22.5,31.8-39.1,31.9-39.1c2.6,0,3.1,409.5,3.1,409.5S124.6,433.2,123.6,433.2z"/>
</svg>
