<?xml version="1.0" encoding="utf-8"?>
<!-- Generator: Adobe Illustrator 21.1.0, SVG Export Plug-In . SVG Version: 6.00 Build 0)  -->
<svg version="1.1" id="Layer_1" xmlns="http://www.w3.org/2000/svg" xmlns:xlink="http://www.w3.org/1999/xlink" x="0px" y="0px"
	 viewBox="0 0 512 512" style="enable-background:new 0 0 512 512;" xml:space="preserve">
<path d="M441,0H71C31.8,0,0,31.8,0,71v370c0,39.2,31.8,71,71,71h370c39.2,0,71-31.8,71-71V71C512,31.8,480.2,0,441,0z M358.7,149.2
	c27.6,0,49.4,21.7,49.4,49.4c0,27.7-21.7,49.4-49.4,49.4c-27.7,0-49.4-21.7-49.4-49.4C309.3,172.9,331,149.2,358.7,149.2z
	 M246.1,169c25.7,0,45.4,19.8,45.4,45.4c0,25.7-19.8,45.4-45.4,45.4c-25.7,0-45.4-19.8-45.4-45.4C200.7,188.7,220.5,169,246.1,169z
	 M143.4,186.8c21.7,0,41.5,17.8,41.5,41.5c0,21.7-17.8,41.5-41.5,41.5c-21.7,0-41.5-17.8-41.5-41.5
	C102,204.5,119.7,186.8,143.4,186.8z M188.8,338.8h-2c0,2-2,4-4,4h-81c-1,0-2-0.5-2.7-1.2s-1.2-1.7-1.2-2.7V323
	c0-23.7,19.8-45.4,45.4-45.4c25.7,0,45.4,21.7,45.4,45.4V338.8z M295.5,338.8c0,2-2,4-4,4h-90.8c-2,0-4-2-4-4V321
	c0-25.7,21.7-51.3,49.4-51.3s49.4,25.7,49.4,51.3V338.8z M408.1,342.8H307.3c-2,0-5.9-2-5.9-5.9v-19.8c0-29.6,23.7-57.3,55.3-57.3
	c31.6,0,55.3,27.7,55.3,57.3v19.8h2C414,338.8,412,342.8,408.1,342.8z"/>
</svg>
