<?xml version="1.0" encoding="utf-8"?>
<!-- Generator: Adobe Illustrator 21.1.0, SVG Export Plug-In . SVG Version: 6.00 Build 0)  -->
<svg version="1.1" id="social-rss-circle.svg" xmlns="http://www.w3.org/2000/svg" xmlns:xlink="http://www.w3.org/1999/xlink"
	 x="0px" y="0px" viewBox="0 0 512 512" style="enable-background:new 0 0 512 512;" xml:space="preserve">
<path d="M256,0C115.2,0,0,115.2,0,256s115.2,256,256,256s256-115.2,256-256S396.8,0,256,0z M352.2,144.6c26.9,0,48.7,21.8,48.7,48.6
	c0,26.9-21.8,48.7-48.7,48.7s-48.6-21.8-48.6-48.7C303.6,166.4,325.3,144.6,352.2,144.6z M242.5,162.7c24.3,0,43.9,19.7,43.9,43.9
	c0,24.3-19.7,43.9-43.9,43.9s-43.9-19.7-43.9-43.9C198.5,182.4,218.2,162.7,242.5,162.7z M143.2,181.8c21.6,0,39.1,17.5,39.1,39.1
	s-17.5,39.1-39.1,39.1c-21.6,0-39.2-17.5-39.2-39.1S121.6,181.8,143.2,181.8z M185.2,313.5v15.3c0,1.9-1.9,3.8-3.8,3.8h-77.3
	c-1.9,0-3.8-1.9-3.8-3.8v-15.3c0-22.9,18.1-44.8,43-44.8C168,268.7,187.1,290.6,185.2,313.5z M292.1,327.8c0,2.9-1.9,4.8-4.8,4.8
	h-87.8c-2.9,0-4.8-1.9-4.8-4.8v-17.2c0-24.8,20-49.6,47.7-49.6s48.7,23.9,49.6,49.6V327.8z M405.7,327.8c0,2.9-1.9,4.8-4.8,4.8
	h-97.3c-2.9,0-4.8-1.9-4.8-4.8v-20c0-28.6,22.9-55.3,53.4-55.3s53.5,27.7,53.5,55.3V327.8z"/>
</svg>
