<?xml version="1.0" encoding="utf-8"?>
<!-- Generator: Adobe Illustrator 22.0.1, SVG Export Plug-In . SVG Version: 6.00 Build 0)  -->
<svg version="1.1" id="Layer_1" xmlns="http://www.w3.org/2000/svg" xmlns:xlink="http://www.w3.org/1999/xlink" x="0px" y="0px"
	 viewBox="0 0 503 512" style="enable-background:new 0 0 503 512;" xml:space="preserve">
<style type="text/css">
	.st0{fill:none;}
</style>
<g>
	<path class="st0" d="M347.7,427h-24.3c-7.1,0-11.6,3-11.6,7.8v36h0c0,0.6,0.1,1.1,0.2,1.7c1,4.4,5.2,6.8,11.4,6.8H338l-13.4-12
		h18.7l11.6,10.4c2.1-1.1,3.6-2.8,4-5c0.1-0.6,0.1-1.1,0.1-1.6v-36.4c0-0.4,0-0.8-0.1-1.3C358,429.3,353.9,427,347.7,427z"/>
	<path d="M103.7,416.2c-12.1-3.8-20.4-0.5-24.1,7.7L55.3,478l-23.6-54.1c-3.6-8.2-11.9-11.5-24.1-7.7c-5.1,1.6-7.6,4.5-7.6,10.7
		v62.9h16.1v-63l24.8,55c3,6.6,6.9,8.9,14.8,8.9c7.8,0,11.8-2.3,14.8-8.9l24.8-55v63h15.9v-62.9
		C111.2,420.8,108.7,417.8,103.7,416.2z"/>
	<path d="M184.6,438.4v41.3c-0.2,0-30.3,0.1-34.7,0c-8.9-0.1-9.6-4.5-9.5-6.5v-34.7h-15.9c0.3,0.3,0,35,0,35.8
		c0.1,8,10.2,14.8,26,15h34v4.2c0,1.7,1.2,6.8-9.1,7.8c-0.1,0.1-50.6,0-50.6,0V512h50.6c8-0.2,25.5-3.1,25.3-17.1
		c0-0.2,0.1-56.6,0-56.6H184.6z"/>
	<path d="M498.4,434.2c-3.1-3.1-6.2-6.2-9.4-9.3c-9-11.8-20.4-22.2-32.5-30.8c-9.6-6.8-31.3-16.3-35.4-27.5
		c-0.3-0.2-0.6-0.2-0.6-0.6c6.9-0.9,14.8-3.3,21.1-5c10.6-2.7,20.2-2.1,31-5c5-1.6,10-2.7,14.8-4.3c0-0.9,0-1.9,0-2.7
		c-5.6-5.6-9.3-13.2-15.5-18.2c-15.8-13.5-33.2-26.7-50.9-37.9c-10-6.4-22.1-10.5-32.5-15.7c-3.4-1.5-9.6-2.5-12.1-5.6
		c-5.6-6.8-8.3-15.7-12.7-23.8c-9-17.2-17.7-35.8-25.4-53.6c-5.2-12-9-24-15.5-35.2C290.6,106.7,256.2,75,202.6,44
		c-11.5-6.4-25.1-9.3-39.6-12.6c-7.7-0.6-15.5-0.9-23.3-1.5c-4.6-1.9-9.6-7.7-14.2-10.5C107.8,8.2,62.2-16.1,49.2,16
		C40.8,36,61.7,55.7,69,65.9C74.3,72.9,80.9,81,84.5,89c2.5,5.2,2.7,10.5,5,16c5.2,13.9,9.6,29,16.1,41.6
		c3.4,6.4,7.1,13.2,11.5,19.1c2.5,3.3,7.1,5,7.7,10.5c-4.4,6.2-4.6,15.4-7.1,23.2c-10.8,34.8-6.9,77.6,9.3,103.5
		c5,7.7,16.5,24.6,32.5,18.2c14-5.8,10.8-23.1,14.8-38.8c0.9-3.3,0.2-5.8,2.1-8.3c0,0.2,0,0.6,0,0.6c4,8.7,8.3,17,12.7,25.3
		c9.3,15.1,26,31.1,40.3,41.6c7.1,5.6,13.1,15.1,22.7,18.2c0,0,0-0.4,0-0.6c-0.3,0-0.6,0-0.9,0c-1.9-2.7-4.6-4-6.9-6.2
		c-5.6-5.6-11.8-12.3-16.4-18.4c-12.7-17.2-24.2-36.4-34.8-56.1c-5-9.5-9.3-20.1-13.3-29.6c-1.5-3.7-1.5-9.3-5-11.4
		c-4.6,7.1-11.2,13-14.8,21.3c-5.6,13.2-6.5,29.6-8.3,46.2c-1.2,0.6-0.9,0.4-1.5,0.9c-10-2.5-13.3-12.6-17.1-21.3
		c-9-21.9-10.8-57-2.7-82.2c2.1-6.4,11.8-26.7,7.7-32.9c-1.9-5.8-7.7-9.5-11.2-14.1c-4.4-5.6-8.4-13-11.5-19.4
		c-7.5-17.2-10.8-36.4-18.9-53.6c-4-8.3-10.2-16.6-15.5-23.8c-5.9-8.3-12.3-14.1-17.1-24c-1.5-3.3-3.7-8.9-1.5-12.6
		c0.9-2.5,1.9-3.3,4.4-4.3c4-3.1,15.5,1.2,19.8,2.7c11.2,5,20.8,9.3,30.4,15.7c4.6,3.1,9.3,8.9,14.8,10.5c2.1,0,4.4,0,6.2,0
		c10,2.1,21.1,0.6,30.4,3.3c16.5,5,31.3,12.6,44.6,21.3c40.9,25.5,74.2,61.9,97.1,105.4c3.7,7.1,5.2,13.5,8.3,20.9
		c6.5,15.1,14.8,30.5,21.4,44.9c6.2,14.7,12.7,29.6,21.7,41.6c5,6.4,23.6,9.9,31.9,13.2c5.9,2.5,15.5,5.2,21.1,8.7
		c10.8,6.2,21.1,13.9,31.3,20.9c5,3.5,20.4,11.1,21.1,17.7c-24.8-0.6-43.7,1.5-60.2,8.7c-4.6,1.9-11.8,1.9-12.7,7.7
		c2.5,2.5,3.1,6.4,5,9.9c4,6.2,10.6,14.5,16.5,18.8c6.2,5,12.7,9.9,19.6,14.1c12.5,7.4,26.1,11.4,37.5,18.8
		c7.1,4.3,14,9.9,20.8,14.7c3.1,2.5,5.6,6.2,9.6,7.7c0,0,0-0.2,0-0.6C500.9,441.4,500.3,437.3,498.4,434.2z"/>
	<path d="M150.6,76.5c-5,0-8.7,0.6-12.7,1.5c0,0,0,0.2,0,0.6c0.4,0,0.6,0,0.9,0c2.5,5,6.8,8.3,10,12.6c2.1,5,4.6,9.9,6.8,14.7
		c0.2-0.2,0.6-0.6,0.9-0.9c4.4-2.7,6.2-7.7,6.2-15.4c-1.5-1.9-1.9-4-3.4-6.2C157.1,80.6,153.4,79,150.6,76.5z"/>
	<path d="M227,417.4c-9.6,3-13.8,7.7-13.8,15.9v9.3c0,7.2,8.2,13.3,21.9,14.8c1.6,0,3.1,0.1,4.7,0.1h16.6c0.6,0,1.2,0,1.7,0.1
		c5.1,0.5,7.3,1.3,8.8,3.2c0.8,1,1.2,1.8,1.2,2.9v9.3c0,1.1-0.7,2.6-2.3,3.8c-1.3,1.2-3.7,2-6.8,2.2c-0.6,0-1.1,0.1-1.7,0.1h-44.2
		v10.7h46c5.4,0,10.7-1.1,14.9-3c6.9-3.2,10.3-7.5,10.3-13.1v-11.7c0-4.5-3.9-8.9-11.4-11.7c-4-1.6-9-2.3-13.8-2.3h-19.4
		c-6.5,0-9.6-2-10.3-6.2c-0.1-0.5-0.1-1-0.1-1.5V433c0-0.5,0-0.8,0.1-1.3c0.7-3.3,2.5-4.3,8.1-4.8c0.5,0,1.1-0.1,1.6-0.1h45.8v-10.7
		h-45C233.3,416.1,230,416.6,227,417.4z"/>
	<path d="M400.1,471.2v-55.1h-15.9v55.1c0,11,8.1,17.1,24.7,18.3c1.5,0.1,3.1,0.2,4.5,0.2h41.7v-10.6h-42
		C403.7,479.2,400.1,476.9,400.1,471.2z"/>
	<path d="M374.2,471.8v-37.8c0-9.6-6.9-15.5-20.3-17.3c-1.6-0.2-3-0.2-4.4-0.2h-30.4c-1.3,0-3,0-4.3,0.2
		c-13.5,1.8-20.3,7.7-20.3,17.3v37.8c0,8.8,4.9,14.2,15.1,16.9c3.5,1,6.5,1.3,9.5,1.3h17.1l12.9-0.7l12.8,11.3h18.7l-15.8-14.2
		C371.3,483.8,374.2,479.6,374.2,471.8z M359.1,471.2c0,0.5,0,1-0.1,1.6c-0.5,2.2-2,3.9-4,5l-11.6-10.4h-18.7l13.4,12h-14.6
		c-6.2,0-10.4-2.4-11.4-6.8c-0.1-0.6-0.2-1.1-0.2-1.7h0v-36c0-4.8,4.5-7.8,11.6-7.8h24.3c6.2,0,10.3,2.3,11.3,6.5
		c0.1,0.5,0.1,0.9,0.1,1.3V471.2z"/>
</g>
</svg>
