<?xml version="1.0" encoding="utf-8"?>
<!-- Generator: Adobe Illustrator 21.1.0, SVG Export Plug-In . SVG Version: 6.00 Build 0)  -->
<svg version="1.1" id="Layer_1" xmlns="http://www.w3.org/2000/svg" xmlns:xlink="http://www.w3.org/1999/xlink" x="0px" y="0px"
	 viewBox="0 0 443.2 512" style="enable-background:new 0 0 443.2 512;" xml:space="preserve">
<g>
	<g>
		<path d="M423.6,113.1c-53.4-33.2-141.2-83.2-182.9-108c-11.9-7.1-28.2-6.3-37.3-0.8C157.5,31.8,67.3,84.7,20.9,111.6
			C3.4,121.7,0.1,140,0.1,145.1C0.1,216.8,0,358.7,0,360.5c0,7.4,0.9,23.6,8.8,29.9c12.9,10.2,66.8,47.9,100.4,47.9
			c32.8,0,53.7-23.2,53.7-50.5c0-83.5,0-228.2,0-228.2h-32.9c0,0,0,134.1,0,218.6c0,11.9-9.5,26.4-24.2,26.4
			c-17.3,0-52-24.5-69.2-35.5c-5.2-3.3-3.5-2.7-3.5-23.1V148.9c0-5.3,4.2-8.6,13.8-14.2c49.2-28.9,173.1-103,173.1-103
			s151.3,88.9,186.6,109.4c4.5,2.6,3.8,9.3,3.8,13.1c0,0.8,0,212.2,0,213c0.1,1.2-154.9,92.5-186.9,111.8
			c-3.7,2.2-53.7-30.2-53.7-30.2l-34.6,16c0,0,67.9,41.4,69.2,42.6c10,8.9,32.9,1.8,32.9,1.8S405.4,408.5,419,401
			c13-7.2,24.2-16.4,24.2-40.8V163.1C443.2,135.7,439.9,123.3,423.6,113.1z M267.7,328.2c-35.7,0-52.9-15.8-52.9-40.8h-32.9
			c-3.1,57.4,46.5,75.1,83.7,75.1c54,0,103.3-11.2,103.3-64.5c0-89.9-145.4-40.1-145.4-87c0-14.5,22.7-23.2,45.2-23.2
			c39.3,0,53,6.4,60.4,37.4c0,0,29.9-0.1,33-2.6c-3.8-53.1-35.8-68.2-91.2-68.2c-55.5,0-83.7,25.5-83.7,60.1
			c0,85.1,147.1,33.9,147.1,88.8C334.2,326.5,296,328.2,267.7,328.2z"/>
	</g>
</g>
</svg>
