<?xml version="1.0" encoding="utf-8"?>
<!-- Generator: Adobe Illustrator 22.0.1, SVG Export Plug-In . SVG Version: 6.00 Build 0)  -->
<svg version="1.1" id="Layer_1" xmlns="http://www.w3.org/2000/svg" xmlns:xlink="http://www.w3.org/1999/xlink" x="0px" y="0px"
	 viewBox="0 0 512 512" style="enable-background:new 0 0 512 512;" xml:space="preserve">
<g>
	<path d="M450.3,347.2c-34.5,1.9-63.1,39.6-64,84.5c-0.8,45.2,26.8,80.4,61.7,78.3c34.9-2.1,63.6-40.5,64-85.5
		C512.4,379.8,484.8,345.3,450.3,347.2z"/>
	<path d="M448.5,302.1c30.6-2.3,57.5-34.3,59.5-72.2c2.1-38.6-22.3-67.5-54-64c-31.1,3.4-56.7,37-57.7,74.3
		C395.2,276.9,418.4,304.4,448.5,302.1z"/>
	<path d="M452.8,119.4c28.6-3.8,53.4-33.9,55.2-67c1.8-32.7-19.5-55.8-47.5-51.9c-27.8,3.9-52.2,33.2-54.6,65.8
		C403.5,99.2,424.4,123.1,452.8,119.4z"/>
	<path d="M321.9,31.7c-25.5,5.7-47.8,34.8-50.1,65.3c-2.3,30.5,16.1,51.6,41.7,46.9c26.1-4.8,49.5-34.4,51.8-65.9
		C367.7,46.5,348,25.9,321.9,31.7z"/>
	<path d="M305,184.1c-27.5,6.4-50.5,40.8-52,76.9c-1.4,35.8,19,60.6,46.1,55.5c27.7-5.2,52.1-39.3,53.9-76.4
		C354.9,202.8,333.2,177.6,305,184.1z"/>
	<path d="M287.3,360.1c-30.8,5.5-55.9,45.3-56,87.5c-0.1,40.7,23.4,68.3,52.3,62.7c29-5.5,53.9-42.1,55.8-82.8
		C341.4,385.4,318.1,354.6,287.3,360.1z"/>
	<path d="M198.8,169.6c22.5-4.9,44.4-31.5,48.8-61.4c4.8-32.4-12.6-55.3-38.7-48.7c-25.6,6.5-47,38.3-48.1,69
		C159.8,156.8,176.7,174.4,198.8,169.6z"/>
	<path d="M187.6,208.2c-25.6,6.4-46.7,40.5-47.5,73.7c-0.7,30.7,16.4,50.3,38.6,45.6c22.5-4.8,44.2-33.2,48.3-65.5
		C231.3,226.9,213.7,201.7,187.6,208.2z"/>
	<path d="M160.4,372.5c-27.9,8.1-50,48.1-49.8,86.6c0.1,35.6,19.5,57.9,43.6,51.9c24.5-6.1,47.4-39.5,50.9-77.1
		C208.9,393.2,188.8,364.3,160.4,372.5z"/>
	<path d="M97.2,185.9c20.2-5.1,39.8-30.3,43.7-57.4c4.1-28.6-10.6-47.7-32.9-41.2c-22,6.3-41.3,34.5-43.3,61.8
		C62.7,174.9,77.2,190.9,97.2,185.9z"/>
	<path d="M79.9,224.1c-21.9,6.7-41.5,36.9-44.5,67.3c-2.9,29.9,11.2,50.6,32.3,46.3c21.9-4.4,43.3-34,47.1-66.4
		C118.7,238.4,102.7,217.1,79.9,224.1z"/>
	<path d="M45.7,383.3c-22,7.1-41.5,38.4-45.1,70.8c-3.6,32.7,10,58,31.9,55.9c23.8-2.3,47.7-35.5,51.4-73.5
		C87.5,399,69.6,375.7,45.7,383.3z"/>
</g>
</svg>
