<?xml version="1.0" encoding="utf-8"?>
<!-- Generator: Adobe Illustrator 21.1.0, SVG Export Plug-In . SVG Version: 6.00 Build 0)  -->
<svg version="1.1" id="Layer_1" xmlns="http://www.w3.org/2000/svg" xmlns:xlink="http://www.w3.org/1999/xlink" x="0px" y="0px"
	 viewBox="0 0 512 512" style="enable-background:new 0 0 512 512;" xml:space="preserve">
<path d="M441,0H71C31.8,0,0,31.8,0,71v370c0,39.2,31.8,71,71,71h370c39.2,0,71-31.8,71-71V71C512,31.8,480.2,0,441,0z M351.4,369.8
	c-27.3,27.2-65,44-106.5,44C161.5,413.7,94,346.2,94,262.9C94,179.5,161.5,112,244.9,112c40.7,0,77.6,16.1,104.7,42.3
	c0.5,0.6,1.7,1.6,1.7,1.6c-14.2,11.7-18.3,16.8-39.1,38.1c-0.1,0.1-0.1,0.4-0.2,0.3c-66.6-56.1-147.8-17.5-160.4,50.2H190
	c7.2-24.4,29.8-42.3,56.6-42.3c32.6,0,59,26.5,59,59.1c0,32.6-26.5,59-59,59c-26.8,0-49.4-17.9-56.6-42.3h-39
	c11.6,74,107.2,110.3,162,51.3c0.2-0.3,0.5,0.5,0.8,0.8c11.8,12.9,23.2,26,38.3,39C352.3,369.3,351.6,369.5,351.4,369.8z
	 M373.2,355.6l-40-40c10.3-14.9,16.5-33.1,16.5-53.5c0-20.3-6-38.8-16.1-54l39.5-39.6c20.3,25.7,32.5,58.2,32.5,93.6
	C405.6,297.4,393.5,329.9,373.2,355.6z"/>
</svg>
