<?xml version="1.0" encoding="utf-8"?>
<!-- Generator: Adobe Illustrator 22.0.1, SVG Export Plug-In . SVG Version: 6.00 Build 0)  -->
<svg version="1.1" id="Layer_1" xmlns="http://www.w3.org/2000/svg" xmlns:xlink="http://www.w3.org/1999/xlink" x="0px" y="0px"
	 viewBox="0 0 640 512" style="enable-background:new 0 0 640 512;" xml:space="preserve">
<path d="M423.3,440.7c0,25.3-20.3,45.6-45.6,45.6s-45.8-20.3-45.8-45.6s20.6-45.8,45.8-45.8C403.1,394.9,423.3,415.4,423.3,440.7z
	 M169.4,394.9c-25.3,0-45.6,20.6-45.6,45.8s20.3,45.6,45.6,45.6s45.8-20.3,45.8-45.6S194.7,394.9,169.4,394.9z M461.1,124.9
	C158.9,124.9,81.9,112.1,0,25.7c34.4,51.7,53.3,148.9,373.1,144.2c333.3-5,130,86.1,70.8,188.9C630.6,192.1,763.3,124.9,461.1,124.9
	L461.1,124.9z"/>
</svg>
