<?xml version="1.0" encoding="utf-8"?>
<!-- Generator: Adobe Illustrator 21.1.0, SVG Export Plug-In . SVG Version: 6.00 Build 0)  -->
<svg version="1.1" id="Layer_1" xmlns="http://www.w3.org/2000/svg" xmlns:xlink="http://www.w3.org/1999/xlink" x="0px" y="0px"
	 viewBox="0 0 512 512" style="enable-background:new 0 0 512 512;" xml:space="preserve">
<path d="M441,0H71C31.8,0,0,31.8,0,71v370c0,39.2,31.8,71,71,71h370c39.2,0,71-31.8,71-71V71C512,31.8,480.2,0,441,0z M202.9,281.9
	V278l-15.4,94.3h-57.8c-5.8,0-9.6-3.8-7.7-9.6l40.4-252.2c1.9-5.8,5.8-11.5,13.5-11.5h96.3c32.7,0,59.7,7.7,73.2,23.1
	c13.5,15.4,17.3,30.8,13.5,55.8c0,0-0.3,4.9-1.3,7.7c-13.5,65.5-56.5,84.7-112.3,84.7h-28.9C208.7,270.3,204.8,276.1,202.9,281.9z
	 M391.9,255.3c-11.6,55.8-48.1,77-96.3,77H288c-5.8,0-11.5,3.8-11.5,9.6v3.8l-9.6,59.7v1.9c0,5.8-5.8,9.6-11.6,9.6h-40.4L234,297.7
	h25c69.3,0,113.6-34.6,127-98.2C393.8,213,395.8,232.2,391.9,255.3z"/>
</svg>
