<?xml version="1.0" encoding="utf-8"?>
<!-- Generator: Adobe Illustrator 19.0.0, SVG Export Plug-In . SVG Version: 6.00 Build 0)  -->
<svg version="1.1" id="Layer_1" focusable="false" xmlns="http://www.w3.org/2000/svg" xmlns:xlink="http://www.w3.org/1999/xlink"
	 x="0px" y="0px" viewBox="64 0 640 512" style="enable-background:new 64 0 640 512;" xml:space="preserve">
<path d="M281.1,214.8c-8-9.5-24.4-9.4-45.3-9.2c-3.2,0-6.6,0.1-10,0.1h-2.1l-14.7,75.6h3c3,0,5.9,0,8.8,0.1c2.7,0,5.4,0.1,8,0.1
	c26.6,0,48.8-3,55.7-38.4v0C287.2,229.7,286.1,220.8,281.1,214.8z M567.9,214.8c-7.9-9.5-24.4-9.3-45.2-9.1c-3.3,0-6.6,0.1-10.1,0.1
	h-2.1l-14.7,75.6h3c3.2,0,6.4,0,9.5,0.1c3,0,6,0.1,8.9,0.1c25.9,0,47.3-3.3,54.2-38.5l0,0C574,229.7,572.9,220.7,567.9,214.8z
	 M446.2,268.5c-2,10-4.3,21.3-6.9,34.3h-31.9c2.7-13.7,5-25.4,6.9-34.8c9.1-45.8,10.1-50.6,4.6-56.4c-5.3-5.7-15-5.6-36.3-5.5
	c-3.9,0-8.2,0.1-13,0.1h-2.1l-18.8,96.6h-31.4l31.7-163.6h31.4l-8.7,44.8h3c4.2,0,8.3,0,12.4-0.1c26.4-0.3,49.2-0.5,60.7,10.1
	C459.3,204.4,456.5,218,446.2,268.5z M295.3,284.6c-20.3,19-42.2,18.8-75.3,18.5c-4.2,0-8.6-0.1-13.2-0.1h-2.1l-8.7,44.8h-31.6
	l31.7-163.7h68.6c20.5,0,35.5,5.3,44.6,15.8C327.2,220.4,320.3,261.5,295.3,284.6z M582.2,284.6c-20.1,18.8-41.3,18.7-76.3,18.5
	c-3.9,0-7.9,0-12.2,0h-2.1l-8.7,44.8h-31.7l31.8-163.7h68.6c20.5,0,35.5,5.3,44.6,15.8C614.1,220.4,607.3,261.5,582.2,284.6z
	 M439.3,302.8h-31.9c2.7-13.7,5-25.4,6.9-34.8c9.1-45.8,10.1-50.6,4.6-56.4c-5.3-5.7-15-5.6-36.3-5.5c-3.9,0-8.2,0.1-13,0.1h-2.1
	l-18.8,96.6h-31.4l31.7-163.6h31.4l-8.7,44.8h3c4.2,0,8.3,0,12.4-0.1c26.4-0.3,49.2-0.5,60.7,10.1c11.3,10.4,8.5,24-1.8,74.5
	C444.2,278.5,441.9,289.8,439.3,302.8z M439.3,302.8h-31.9c2.7-13.7,5-25.4,6.9-34.8c9.1-45.8,10.1-50.6,4.6-56.4
	c-5.3-5.7-15-5.6-36.3-5.5c-3.9,0-8.2,0.1-13,0.1h-2.1l-18.8,96.6h-31.4l31.7-163.6h31.4l-8.7,44.8h3c4.2,0,8.3,0,12.4-0.1
	c26.4-0.3,49.2-0.5,60.7,10.1c11.3,10.4,8.5,24-1.8,74.5C444.2,278.5,441.9,289.8,439.3,302.8z M439.3,302.8h-31.9
	c2.7-13.7,5-25.4,6.9-34.8c9.1-45.8,10.1-50.6,4.6-56.4c-5.3-5.7-15-5.6-36.3-5.5c-3.9,0-8.2,0.1-13,0.1h-2.1l-18.8,96.6h-31.4
	l31.7-163.6h31.4l-8.7,44.8h3c4.2,0,8.3,0,12.4-0.1c26.4-0.3,49.2-0.5,60.7,10.1c11.3,10.4,8.5,24-1.8,74.5
	C444.2,278.5,441.9,289.8,439.3,302.8z M439.3,302.8h-31.9c2.7-13.7,5-25.4,6.9-34.8c9.1-45.8,10.1-50.6,4.6-56.4
	c-5.3-5.7-15-5.6-36.3-5.5c-3.9,0-8.2,0.1-13,0.1h-2.1l-18.8,96.6h-31.4l31.7-163.6h31.4l-8.7,44.8h3c4.2,0,8.3,0,12.4-0.1
	c26.4-0.3,49.2-0.5,60.7,10.1c11.3,10.4,8.5,24-1.8,74.5C444.2,278.5,441.9,289.8,439.3,302.8z"/>
<path d="M609.7,134.8c-60.3-32-140.5-49.6-225.7-49.6s-165.3,17.6-225.7,49.6C97.5,167,64,210,64,256s33.5,89,94.3,121.2
	c60.3,32,140.5,49.6,225.7,49.6s165.3-17.6,225.7-49.6C670.5,345,704,302,704,256S670.5,167,609.7,134.8z M384,107
	c80.5,0,156.2,16.2,213.1,45.7c54.2,28.1,85.3,65.7,85.3,103.3c0,80.8-136.6,149-298.4,149c-80.5,0-156.2-16.2-213.1-45.7
	c-54.2-28.1-85.3-65.7-85.3-103.3C85.6,175.2,222.3,107,384,107z"/>
</svg>
