<?xml version="1.0" encoding="utf-8"?>
<!-- Generator: Adobe Illustrator 21.1.0, SVG Export Plug-In . SVG Version: 6.00 Build 0)  -->
<svg version="1.1" xmlns="http://www.w3.org/2000/svg" xmlns:xlink="http://www.w3.org/1999/xlink" x="0px" y="0px"
	 viewBox="0 0 512 512" style="enable-background:new 0 0 512 512;" xml:space="preserve">
<path d="M256,0C115.2,0,0,115.2,0,256c0,108.8,67.2,201.6,163.2,238.4c-1.6-20.8-4.8-51.2,1.6-73.6c4.8-19.2,30.4-128,30.4-128
	s-8-16-8-38.4c0-35.2,20.8-62.4,46.4-62.4c22.4,0,32,16,32,36.8c0,22.4-14.4,54.4-20.8,84.8c-6.4,25.6,12.8,46.4,38.4,46.4
	c44.8,0,80-48,80-116.8c0-60.8-44.8-104-107.2-104c-73.6,0-115.2,54.4-115.2,110.4c0,22.4,8,44.8,19.2,59.2c1.6,3.2,1.6,4.8,1.6,8
	c-1.6,8-6.4,25.6-6.4,28.8c-3.2,4.8-6.4,6.4-11.2,3.2c-32-14.4-51.2-62.4-51.2-99.2c0-80,59.2-155.2,169.6-155.2
	c89.6,0,158.4,64,158.4,147.2c0,88-56,160-132.8,160c-25.6,0-49.6-12.8-59.2-28.8c0,0-12.8,49.6-16,60.8
	c-6.4,22.4-20.8,49.6-32,67.2c24,8,49.6,11.2,75.2,11.2c140.8,0,256-115.2,256-256S396.8,0,256,0z"/>
</svg>
