<?xml version="1.0" encoding="utf-8"?>
<!-- Generator: Adobe Illustrator 21.1.0, SVG Export Plug-In . SVG Version: 6.00 Build 0)  -->
<svg version="1.1" xmlns="http://www.w3.org/2000/svg" xmlns:xlink="http://www.w3.org/1999/xlink" x="0px" y="0px"
	 viewBox="0 0 512 512" style="enable-background:new 0 0 512 512;" xml:space="preserve">
<path d="M256,0C115.2,0,0,115.2,0,256s115.2,256,256,256s256-115.2,256-256S396.8,0,256,0z M275.2,313.6c-16,0-30.4-8-35.2-17.6
	c0,0-8,33.6-9.6,40c-6.4,22.4-25.6,46.4-27.2,48c-1.6,1.6-3.2,1.6-3.2-1.6s-4.8-32,0-56c3.2-11.2,19.2-80,19.2-80s-4.8-9.6-4.8-24
	c0-22.4,12.8-38.4,28.8-38.4c12.8,0,19.2,9.6,19.2,22.4c0,12.8-8,33.6-12.8,52.8c-3.2,16,8,28.8,24,28.8c27.2,0,46.4-35.2,46.4-78.4
	c0-32-22.4-56-60.8-56c-44.8,0-72,33.6-72,70.4c0,12.8,3.2,22.4,9.6,28.8c3.2,3.2,3.2,4.8,1.6,8c0,3.2-1.6,9.6-3.2,11.2
	c-1.6,3.2-3.2,4.8-8,3.2c-20.8-8-30.4-30.4-30.4-56c0-41.6,35.2-91.2,105.6-91.2c56,0,92.8,40,92.8,84.8
	C355.2,270.4,323.2,313.6,275.2,313.6z"/>
</svg>
