<?xml version="1.0" encoding="utf-8"?>
<!-- Generator: Adobe Illustrator 21.1.0, SVG Export Plug-In . SVG Version: 6.00 Build 0)  -->
<svg version="1.1" id="Layer_1" xmlns="http://www.w3.org/2000/svg" xmlns:xlink="http://www.w3.org/1999/xlink" x="0px" y="0px"
	 viewBox="0 0 512 512" style="enable-background:new 0 0 512 512;" xml:space="preserve">
<path d="M441,0H71C31.8,0,0,31.8,0,71v370c0,39.2,31.8,71,71,71h370c39.2,0,71-31.8,71-71V71C512,31.8,480.2,0,441,0z M273.6,307.2
	h-72V384h-52.8V128H272c24.8,0,47.2,10,63.4,26.2c16.2,16.2,26.2,38.6,26.2,63.4C361.6,267.2,323.2,307.2,273.6,307.2z M273.6,179.2
	h-72V256h72c10.4,0,20-4.4,27-11.4s11.4-16.6,11.4-27C312,196.8,294.4,179.2,273.6,179.2z"/>
</svg>
