<?xml version="1.0" encoding="utf-8"?>
<!-- Generator: Adobe Illustrator 21.1.0, SVG Export Plug-In . SVG Version: 6.00 Build 0)  -->
<svg version="1.1" id="Layer_1" xmlns="http://www.w3.org/2000/svg" xmlns:xlink="http://www.w3.org/1999/xlink" x="0px" y="0px"
	 viewBox="0 0 550 512" style="enable-background:new 0 0 550 512;" xml:space="preserve">
<g>
	<g>
		<g>
			<path d="M450.6,166.1c-4.1-1.4-8.4-2.8-13.2-4.2c0.6-2.4,1.1-4.9,1.7-7.4c6.7-32.2,7.9-61.6,3.6-85.3
				c-4.5-24.9-15.2-42.8-30.8-51.7c-29.6-17-76.8-1.5-126.5,41.6c-2.9,2.6-6.5,5.7-10.2,9.2c-1.7-1.6-3.6-3.3-5.7-5.2
				c-24.6-21.8-49.7-37.6-72.4-45.7c-23.9-8.5-44.8-8.2-60.4,0.7c-29.6,17-39.7,65.6-27,129.9c1,4.8,1.9,9.2,2.9,13.4
				c-5.6,1.7-10.8,3.3-15.7,5c-60.7,21.1-97,53.9-97,87.9c0,35.1,39.1,70.2,102.1,91.7l0.1,0c3.3,1.1,6.7,2.2,10.2,3.3
				c-1.2,5-2.2,9.9-3.2,14.9c-12,62.8-1.6,110.6,27.9,127.6c8.1,4.7,17.7,7,28.2,7c29,0,65.8-17.3,102.5-49.3c2.7-2.3,5.4-4.8,8-7.3
				c3.5,3.3,7.3,6.7,11.4,10.2c35.4,30.4,69.8,46.5,97.2,46.5c10.3,0,19.7-2.3,27.7-6.9c30.5-17.6,41.4-68.9,28.5-133.9
				c-0.7-3.4-1.5-6.9-2.2-10.1c1.9-0.6,3.8-1.2,5.7-1.8c31.4-10.3,57.7-24,76.2-39.5c19.4-16.4,29.6-34.5,29.6-52.4
				C550,220.4,512.9,187.4,450.6,166.1z M307,83.8c40.4-35,75.1-45.6,88.5-37.9c14.4,8.3,22.9,46,11.4,101.9
				c-0.4,1.9-0.8,3.9-1.3,5.8c-20.7-4.5-42.8-8-65.8-10.2c-13.5-18.9-27.4-36.3-41.6-51.8C301.2,89,304.1,86.4,307,83.8z M165,293.5
				c3.3,6.1,6.8,12.3,10.6,18.8c3.8,6.6,7.6,12.9,11.5,19c-12-1.5-23.3-3.4-33.8-5.5C156.7,315,160.7,304.2,165,293.5z M153.5,185.1
				c10.6-2.3,21.7-4.2,32.9-5.8c-3.6,5.8-7.2,11.8-11.1,18.4c-3.8,6.6-7.3,12.8-10.5,18.7C160.6,205.9,156.8,195.4,153.5,185.1z
				 M182.1,254.9c6.8-13.8,14.1-27.6,21.7-40.9c8-13.7,16.3-26.9,24.7-39.2c15.5-1.1,31.2-1.7,46.4-1.7c15.4,0,31.1,0.6,46.5,1.7
				c8.9,13.1,17.1,26.3,24.5,39.1c7.6,13.1,15.1,26.8,22.1,40.7c-6.7,13.6-14.1,27.4-22,41.1c-7.3,12.6-15.3,25.5-24.4,39.4
				c-15.1,1-30.8,1.5-46.7,1.5c-15.1,0-30.2-0.4-46.2-1.4c-8.8-12.9-17.2-26.2-24.8-39.3C195.9,282.1,188.8,268.6,182.1,254.9z
				 M363.7,179.4c11.3,1.6,22.4,3.6,33.2,6c-3.4,10.2-7.2,20.6-11.5,31.2c-3.7-6.8-7.4-13.3-10.7-19
				C371.2,191.7,367.6,185.7,363.7,179.4z M374.6,312.1c3.7-6.4,7.4-13,10.9-19.6c4.6,11.1,8.8,21.9,12.3,32.3
				c-11,2.4-22.6,4.4-34.3,6C367.4,324.5,371.1,318.3,374.6,312.1z M275.3,115.1c7.2,7.9,14.4,16.5,21.5,25.6
				c-7.2-0.2-14.4-0.3-21.6-0.3s-14.4,0.1-21.6,0.3C260.5,131.9,267.8,123.3,275.3,115.1z M153.3,46.5c14.5-8.3,51.6,3.1,94.5,41.1
				c1.4,1.2,2.9,2.5,4.4,4c-14.1,15.3-28.1,32.7-41.8,51.8c-23.1,2.2-45.2,5.6-65.8,10c-0.9-3.6-1.7-7.5-2.6-11.7
				C131.8,89.4,139.9,54.2,153.3,46.5z M121.2,317.8c-2.8-0.8-5.6-1.7-8.5-2.7c-25.6-8.8-46.8-20-61.4-32.4
				c-11.7-10-18.4-20.3-18.4-28.3c0-14.9,23.5-39,75-56.9c4.2-1.5,8.6-2.9,13.8-4.4c6.3,19.8,14.4,40.5,24.2,61.9
				C136.1,276,127.9,297,121.2,317.8z M246.3,424.9c-20.2,17.6-40.6,30.3-58.9,36.8c-14.6,5.1-26.9,5.7-33.8,1.8
				c-13-7.5-22.3-39.8-12-93c0.8-4.4,1.7-8.7,2.7-13c20.6,4.3,42.9,7.5,66.5,9.4c13.6,18.8,27.7,36.3,42.1,52.1
				C250.8,420.9,248.6,422.9,246.3,424.9z M275.9,395.3c-7.5-8.3-14.9-17.1-22.2-26.2c7,0.2,14.2,0.3,21.4,0.3
				c7.3,0,14.7-0.1,22.5-0.4C290.5,378.2,283.2,387,275.9,395.3z M411.2,433.7L411.2,433.7c-2.8,15.1-8.4,26-15.3,30.1
				c-13,7.5-45.7-0.6-87-36.1c-3.6-3.1-6.9-6-9.9-8.8c13.5-15,27.4-32.6,41.2-52.3c23.9-2.2,46.3-5.6,66.8-10.1
				c0.7,3,1.3,5.8,1.7,8.1C413.8,391,414.7,414.9,411.2,433.7z M434.1,315.2l-0.3,0.1c-1.4,0.4-2.7,0.9-4.1,1.3
				c-6.4-19.4-14.8-40.2-25.1-62.1c9.8-21.2,17.9-41.7,24.1-61c3.7,1.1,7.5,2.3,11.3,3.6c50.7,17.4,77.2,42,77.2,57.3
				C517.2,271,488.6,297.2,434.1,315.2z"/>
			<path d="M328.1,254.4c0,29.2-23.8,52.9-53.1,52.9s-53.1-23.7-53.1-52.9c0-29.2,23.8-52.9,53.1-52.9S328.1,225.2,328.1,254.4z"/>
		</g>
	</g>
</g>
</svg>
