<?xml version="1.0" encoding="utf-8"?>
<!-- Generator: Adobe Illustrator 21.1.0, SVG Export Plug-In . SVG Version: 6.00 Build 0)  -->
<svg version="1.1" id="Layer_1" xmlns="http://www.w3.org/2000/svg" xmlns:xlink="http://www.w3.org/1999/xlink" x="0px" y="0px"
	 viewBox="0 0 550 512" style="enable-background:new 0 0 550 512;" xml:space="preserve">
<path d="M550,251.9c0-36.1-29.3-65.3-65.3-65.3c-15.5,0-31,5.1-41.2,15.5c-39.5-25.7-91.1-41.2-146.1-42.9L326.6,68L404,85.2
	c1.7,29.3,25.7,51.6,55,51.6c31,0,55-24,55-55s-24.1-55.1-55.1-55.1c-20.6,0-39.5,12.1-49.9,29.3l-91-22.4
	c-6.8-1.7-15.5,3.4-17.2,10.4l-36.1,111.7c-58.4,1.7-115.1,17.2-158.1,42.9c-12.1-8.6-25.7-13.8-41.2-13.8
	C29.3,184.8,0,214.1,0,250.2c0,22.3,12.1,42.9,29.3,55c0,5.1-1.7,10.4-1.7,15.5c0,46.4,25.7,87.7,73.9,118.6
	c46.4,31,106.6,46.4,171.9,46.4s125.5-17.2,171.9-46.4c48.2-31,73.9-73.9,73.9-118.6c0-5.1,0-10.4-1.7-13.8
	C537.9,296.5,550,275.9,550,251.9z M458.9,55.9c13.8,0,25.7,12.1,25.7,25.7s-12,25.8-25.7,25.8s-25.7-12.1-25.7-25.7
	S445.1,55.9,458.9,55.9z M156.4,293.1c0-20.6,17.2-37.8,37.8-37.8s37.8,17.2,37.8,37.8s-17.2,37.8-37.8,37.8
	S156.4,313.7,156.4,293.1z M366.1,403.1c-18.9,18.9-48.2,29.3-91.1,29.3l0,0l0,0c-41.2,0-70.5-8.6-91.1-29.3
	c-5.1-5.1-5.1-15.5,0-20.6c5.1-5.1,15.5-5.1,20.6,0c13.8,13.8,36.1,18.9,68.8,18.9l0,0l0,0c32.7,0,55-6.8,68.8-18.9
	c5.1-5.1,15.5-5.1,20.6,0C371.3,387.6,371.3,396.2,366.1,403.1z M357.5,330.9c-20.6,0-37.8-17.2-37.8-37.8s17.2-37.8,37.8-37.8
	c20.6,0,37.8,17.2,37.8,37.8S378.1,330.9,357.5,330.9z"/>
</svg>
