<?xml version="1.0" encoding="utf-8"?>
<!-- Generator: Adobe Illustrator 21.1.0, SVG Export Plug-In . SVG Version: 6.00 Build 0)  -->
<svg version="1.1" id="Layer_1" xmlns="http://www.w3.org/2000/svg" xmlns:xlink="http://www.w3.org/1999/xlink" x="0px" y="0px"
	 viewBox="0 0 512 512" style="enable-background:new 0 0 512 512;" xml:space="preserve">
<path d="M441,0H71C31.8,0,0,31.8,0,71v370c0,39.2,31.8,71,71,71h370c39.2,0,71-31.8,71-71V71C512,31.8,480.2,0,441,0z M369.6,280
	v6.4c0,20.8-12.8,41.6-35.2,56c-20.8,14.4-49.6,22.4-80,22.4c-30.4,0-59.2-8-80-22.4c-22.4-14.4-35.2-33.6-35.2-56v-8
	c-6.4-4.8-11.2-14.4-11.2-24c0-17.6,14.4-30.4,30.4-30.4c6.4,0,14.4,3.2,19.2,6.4c20.8-12.8,46.4-19.2,73.6-20.8l16-52.8
	c1.6-3.2,4.8-4.8,8-4.8l43.2,9.6c4.8-8,12.8-14.4,22.4-14.4c14.4,0,25.6,11.2,25.6,25.6s-11.2,25.6-25.6,25.6
	c-12.8,0-24-11.2-25.6-24l-36.8-8L265.6,208c25.6,1.6,49.6,8,68.8,20.8c4.8-4.8,12.8-6.4,19.2-6.4c17.6,0,30.4,14.4,30.4,30.4
	C384,264,377.6,273.6,369.6,280z M294.4,254.4c-9.6,0-17.6,8-17.6,17.6c0,9.6,8,17.6,17.6,17.6c9.6,0,17.6-8,17.6-17.6
	C312,262.4,304,254.4,294.4,254.4z M288,313.6c-6.4,6.4-16,9.6-32,9.6c-8,0-14.4-0.8-19.6-2.4c-5.2-1.6-9.2-4-12.4-7.2
	s-6.4-3.2-9.6,0c-3.2,3.2-3.2,6.4,0,9.6c9.6,9.6,22.4,12.8,41.6,12.8c9.6,0,18-1.2,25-3.4s12.6-5.4,16.6-9.4c3.2-3.2,3.2-6.4,0-9.6
	C296,310.4,291.2,310.4,288,313.6z M235.2,272c0-9.6-8-17.6-17.6-17.6c-9.6,0-17.6,8-17.6,17.6c0,9.6,8,17.6,17.6,17.6
	C227.2,289.6,235.2,281.6,235.2,272z"/>
</svg>
