<?xml version="1.0" encoding="utf-8"?>
<!-- Generator: Adobe Illustrator 21.1.0, SVG Export Plug-In . SVG Version: 6.00 Build 0)  -->
<svg version="1.1" xmlns="http://www.w3.org/2000/svg" xmlns:xlink="http://www.w3.org/1999/xlink" x="0px" y="0px"
	 viewBox="0 0 512 512" style="enable-background:new 0 0 512 512;" xml:space="preserve">
<path d="M256,0C115.2,0,0,115.2,0,256s115.2,256,256,256s256-115.2,256-256S396.8,0,256,0z M369.6,282v6.4c0,20.8-12.8,41.6-35.2,56
	c-20.8,14.4-49.6,22.4-80,22.4s-59.2-8-80-22.4c-22.4-14.4-35.2-33.6-35.2-56v-8c-6.4-4.8-11.2-14.4-11.2-24
	c0-17.6,14.4-30.4,30.4-30.4c6.4,0,14.4,3.2,19.2,6.4c20.8-12.8,46.4-19.2,73.6-20.8l16-52.8c1.6-3.2,4.8-4.8,8-4.8l43.2,9.6
	c4.8-8,12.8-14.4,22.4-14.4c14.4,0,25.6,11.2,25.6,25.6s-11.2,25.6-25.6,25.6c-12.8,0-24-11.2-25.6-24l-36.8-8L265.6,210
	c25.6,1.6,49.6,8,68.8,20.8c4.8-4.8,12.8-6.4,19.2-6.4c17.6,0,30.4,14.4,30.4,30.4C384,266,377.6,275.6,369.6,282z M294.4,256.4
	c-9.6,0-17.6,8-17.6,17.6c0,9.6,8,17.6,17.6,17.6s17.6-8,17.6-17.6C312,264.4,304,256.4,294.4,256.4z M288,315.6
	c-6.4,6.4-16,9.6-32,9.6c-8,0-14.4-0.8-19.6-2.4s-9.2-4-12.4-7.2c-3.2-3.2-6.4-3.2-9.6,0s-3.2,6.4,0,9.6
	c9.6,9.6,22.4,12.8,41.6,12.8c9.6,0,18-1.2,25-3.4s12.6-5.4,16.6-9.4c3.2-3.2,3.2-6.4,0-9.6C296,312.4,291.2,312.4,288,315.6z
	 M235.2,274c0-9.6-8-17.6-17.6-17.6c-9.6,0-17.6,8-17.6,17.6c0,9.6,8,17.6,17.6,17.6C227.2,291.6,235.2,283.6,235.2,274z"/>
</svg>
