<?xml version="1.0" encoding="utf-8"?>
<!-- Generator: Adobe Illustrator 21.1.0, SVG Export Plug-In . SVG Version: 6.00 Build 0)  -->
<svg version="1.1" id="Layer_1" xmlns="http://www.w3.org/2000/svg" xmlns:xlink="http://www.w3.org/1999/xlink" x="0px" y="0px"
	 viewBox="0 0 511.5 512" style="enable-background:new 0 0 511.5 512;" xml:space="preserve">
<g>
	<g>
		<path d="M255.8,0.5C114.5,0.5,0,115,0,256.3c0,28.6,4.7,56.1,13.4,81.8h17.8c15.8,0,30.4-3.8,42.7-10.2c3.1-1.6,6.6-2.6,10.4-2.6
			c7.8,0,14.6,3.1,18.9,10.1c3.7,6.4,7.1,10.1,11.4,12.8c3.6,2.3,8.6,4.3,15.8,3.9c3.4-0.2,8.5-1,9.7-4.5c1.5-4-0.4-7-5.3-9.1
			c-6.9-2.9-8.8-7.1-12.5-13.6c-3.7-6.5-11.6-10-12.9-22.3c-1.2-12.1,8.2-27.3,27-22.5c13.5,3.5,22.3,20.2,25.5,25.9
			c1.7,3,7.8,6.5,12.7,2.1c4.9-4.5,9.4-4.5,13.1,1.2c3.1,4.9,26.1,35.5,51,36.3c25.3,0.8,38.8-5.7,49.8-5.3
			c7.8,0.3,11.5,4.2,15.9,4.9c7.8,1.2,13.3-5.8,21.9-5.4c6.9,0.3,14.5,5,22.3,5s24.1-9.4,23.9-5.5c-0.4,6.8-5.7,18.9-6.9,24.5
			c-0.9,3.9-0.1,13.3-2.4,20.7c-2.1,7.7-9.2,17.4-11,20.1c-6.3,9.4-10.8,12.2-15.9,22.1c-5.7,11-15.1,21.2-17.6,24.5
			c-3.1,4.2,17.7-0.1,25.1-7.2c6.3-6,17.3-23.9,34.7-27.8c11.7-2.6,14.1-7.1,12.7-11.3c-0.2-0.5-0.4-1.1-0.4-1.7
			c0-1.5,0.9-3,2.3-3.6c12.2-5.1,28.6-8.2,46.7-8.2c10.6,0,21,1.4,30.9,3.7c26-40,41-87.8,41-139C511.5,115,397,0.5,255.8,0.5z
			 M463.7,251.2c-12.2,67.3-122.4,90-229.5,57.5C132.2,277.8,42.5,216.3,52.9,180.2c6-21,39.3-30,83.7-25.2
			c-6.7,13.7-6.2,29.9,23.2,47.8c35.9,20.4,96.6,37.8,113,36.1c6.1-0.6,11.6-3.7,6.1-7.3c-5.5-3.7-10.4-11-13.5-23.9
			c-1.7-7.2-3.7-17.1-42.2-24.5c-82.8-15.8-79.6-39.2-77.1-52.6c0,0,7.3-33.1,10.4-44.7c3.1-11.6,11-38.3,64.3-26.3
			c30.8,6.9,47.4-1.7,55.9-3.9c23.1-5.9,48.6-1.8,62.6,12.6c14.6,15,34.6,61.3,44.3,95.9c4.9,17.6,3.6,26,1.1,31.9
			c-1.8,4.1-2.8,6.6-8.9,16.9c-1.1,1.8-0.2,3.8,2.1,2.6c16-8.2,19.6-19.1,22.1-27.6C443.5,198,469.3,220.6,463.7,251.2z
			 M310.9,371.9c-3.3,3.8-4.8,5.1-7.1,7c-5.8,4.6-12.4-0.6-16.6-3.1c-9.4-5.5-17-2-18.8,2.2c-1.8,4.3,0.2,9.5,5.3,8.8
			c7.2-0.9,7.5,0.2,12.7,3.5c9.6,6.1,16.7,2.8,20.3-0.1c3-2.4,4.7-4.4,6.2-7.3c2.8-5.5,0.5-9.8-0.8-11.1
			C311.7,371.5,311.3,371.6,310.9,371.9z M229.3,105.8c-12.5,0-21.4,1.6-29.2,1.8c-7.8,0.2-13.7-5.5-16.5-9
			c-2.3-2.9-9.6-5.6-13.6,3.6c-4,9.3,3.4,19.2,9.6,20.5c0,0,10.3,19.1,18.1,10.8c5.5-5.9,8.6-9.1,38.1-11.2
			c14.1-1,15.5-4.3,15.1-7.7C250.5,110.5,242,105.8,229.3,105.8z M300.5,65.1c-0.5,0-1,0-1.5,0c-2.9,0-5.7,0.2-8.6,0.5
			c-9.8,1-18.3,3.4-24.1,6.4c-0.3,0.1-0.5,0.4-0.5,0.7c0,0.4,0.4,0.8,0.8,0.8c0,0,0.1,0,0.1,0c1.6-0.3,3.3-0.5,5.1-0.7
			c15.9-1.6,29.2,1,29.9,5.9c0.5,3.7-6.4,7.5-16.6,9.9c-0.5,0.1-0.9,0.5-0.9,1.1c0,0.5,0.4,1,0.9,1.1c4.3,1.2,9.3,2,14.6,2.1
			c16.4,0.4,29.8-5.5,30-13.2C330,72,316.9,65.5,300.5,65.1z"/>
	</g>
</g>
<path d="M470.5,395.3L470.5,395.3L470.5,395.3z"/>
</svg>
