<?xml version="1.0" encoding="utf-8"?>
<!-- Generator: Adobe Illustrator 21.1.0, SVG Export Plug-In . SVG Version: 6.00 Build 0)  -->
<svg version="1.1" xmlns="http://www.w3.org/2000/svg" xmlns:xlink="http://www.w3.org/1999/xlink" x="0px" y="0px"
	 viewBox="0 0 512 512" style="enable-background:new 0 0 512 512;" xml:space="preserve">
<path d="M256,0C115.2,0,0,115.2,0,256s115.2,256,256,256s256-115.2,256-256S396.8,0,256,0z M164.8,386c-20.8,0-36.8-16-36.8-36.8
	c0-20.8,16-36.8,36.8-36.8s36.8,16,36.8,36.8C201.6,370,185.6,386,164.8,386z M257.6,386c0-72-57.6-129.6-129.6-129.6v-40
	c92.8,0,169.6,75.2,169.6,169.6H257.6z M344,386c0-120-97.6-216-216-216v-40c140.8,0,256,115.2,256,256H344z"/>
</svg>
