<?xml version="1.0" encoding="utf-8"?>
<!-- Generator: Adobe Illustrator 19.0.0, SVG Export Plug-In . SVG Version: 6.00 Build 0)  -->
<svg version="1.1" id="Layer_1" focusable="false" xmlns="http://www.w3.org/2000/svg" xmlns:xlink="http://www.w3.org/1999/xlink"
	 x="0px" y="0px" viewBox="0 0 512 512" style="enable-background:new 0 0 512 512;" xml:space="preserve">
<path d="M236.9,256.8c0-9.1,6.6-17.7,16.3-17.7c8.9,0,17.4,6.4,17.4,16.1c0,9.1-6.4,17.7-16.1,17.7
	C245.5,272.9,236.9,266.2,236.9,256.8z M504,256c0,137-111,248-248,248S8,393,8,256S119,8,256,8S504,119,504,256z M477.4,256
	c0-122.3-99.1-221.4-221.4-221.4S34.6,133.7,34.6,256S133.7,477.4,256,477.4S477.4,378.3,477.4,256z M404.9,352.6
	c0,3.6,13,10.2,16.3,12.2c-27.4,41.5-69.8,71.4-117.9,83.3l-4.4-18.5c-0.3-2.5-1.9-2.8-4.2-2.8c-1.9,0-3,2.8-2.8,4.2l4.4,18.8
	c-13.3,2.8-26.8,4.2-40.4,4.2c-36.3,0-72-10.2-103-29.1c1.7-2.8,12.2-18,12.2-20.2c0-1.9-1.7-3.6-3.6-3.6
	c-3.9,0-12.2,16.6-14.7,19.9c-41.8-27.7-72-70.6-83.6-119.6l19.1-4.2c2.2-0.6,2.8-2.2,2.8-4.2c0-1.9-2.8-3-4.4-2.8L62,294.5
	c-2.5-12.7-3.9-25.5-3.9-38.5c0-37.1,10.5-73.6,30.2-104.9c2.8,1.7,16.1,10.8,18.3,10.8c1.9,0,3.6-1.4,3.6-3.3
	c0-3.9-14.7-11.3-18-13.6c28.2-41.2,71.1-70.9,119.8-81.9l4.2,18.5c0.6,2.2,2.2,2.8,4.2,2.8s3-2.8,2.8-4.4L219,61.7
	c12.2-2.2,24.6-3.6,37.1-3.6c37.1,0,73.3,10.5,104.9,30.2c-1.9,2.8-10.8,15.8-10.8,18c0,1.9,1.4,3.6,3.3,3.6
	c3.9,0,11.3-14.4,13.3-17.7c41,27.7,70.3,70,81.7,118.2l-15.5,3.3c-2.5,0.6-2.8,2.2-2.8,4.4c0,1.9,2.8,3,4.2,2.8l15.8-3.6
	c2.5,12.7,3.9,25.7,3.9,38.7c0,36.3-10,72-28.8,102.7c-2.8-1.4-14.4-9.7-16.6-9.7C406.6,349,404.9,350.7,404.9,352.6L404.9,352.6z
	 M371.7,110.4c-13,12.2-134.2,123.7-137.6,129.5l-96.6,160.5c12.7-11.9,134.2-124,137.3-129.3L371.7,110.4L371.7,110.4z"/>
</svg>
