<?xml version="1.0" encoding="utf-8"?>
<!-- Generator: Adobe Illustrator 16.0.0, SVG Export Plug-In . SVG Version: 6.00 Build 0)  -->
<!DOCTYPE svg PUBLIC "-//W3C//DTD SVG 1.1 Tiny//EN" "http://www.w3.org/Graphics/SVG/1.1/DTD/svg11-tiny.dtd">
<svg version="1.1" baseProfile="tiny" id="Layer_1" xmlns="http://www.w3.org/2000/svg" xmlns:xlink="http://www.w3.org/1999/xlink"
	 x="0px" y="0px" width="512px" height="512px" viewBox="0 0 512 512" xml:space="preserve">
<path fill="#010101" d="M256,0c141.377,0,256,114.624,256,256S397.376,512,256,512C114.624,512,0,397.376,0,256S114.624,0,256,0z
	 M205.121,341.291c3.732,13.76,3.328,26.623-0.513,38.229l-1.387,3.84c-0.512,1.302-1.109,2.561-1.664,3.756
	c-2.986,6.186-6.954,11.946-11.84,17.279c-14.891,16.192-35.669,22.336-44.586,17.174c-9.6-5.59-4.821-28.48,12.458-46.721
	c18.582-19.584,45.227-32.191,45.227-32.191v-0.064L205.121,341.291z M416.554,109.589c-11.563-45.504-86.975-60.458-158.336-35.093
	c-42.432,15.083-88.405,38.784-121.45,69.695c-39.317,36.715-45.568,68.715-42.987,82.092
	c9.109,47.168,73.75,78.016,100.331,100.906v0.128c-7.829,3.84-65.194,32.618-78.634,62.399c-14.4,31.36,2.24,53.782,13.12,56.641
	c33.6,9.301,68.16-7.68,86.721-35.179c17.92-26.901,16.341-61.462,8.618-78.421c10.581-2.881,23.04-4.16,39.04-2.219
	c44.82,5.119,53.781,33.279,51.84,44.8c-1.92,11.499-11.158,18.218-14.379,20.139c-3.199,1.941-4.16,2.56-3.861,3.861
	c0.32,1.92,1.941,1.92,4.48,1.6c3.52-0.64,23.381-9.6,24.342-31.382c0.959-27.52-25.303-58.218-72-57.6
	c-19.201,0.342-31.382,1.941-40,5.461c-0.641-0.959-1.302-1.6-2.24-2.239c-28.8-31.04-82.24-52.8-80-94.08
	c0.64-15.04,6.08-54.698,102.401-102.699c79.039-39.381,142.1-28.48,152.98-4.48c15.637,34.219-33.621,97.92-115.861,107.179
	c-31.359,3.521-47.68-8.618-51.861-13.12c-4.459-4.8-5.099-5.119-6.699-4.139c-2.559,1.28-0.959,5.44,0,8
	c2.561,6.4,12.48,17.6,29.782,23.36c15.019,4.8,51.839,7.659,95.999-9.601c49.58-19.178,88.299-72.64,77.1-117.439L416.554,109.589z
	"/>
</svg>
