<?xml version="1.0" encoding="utf-8"?>
<!-- Generator: Adobe Illustrator 21.1.0, SVG Export Plug-In . SVG Version: 6.00 Build 0)  -->
<svg version="1.1" xmlns="http://www.w3.org/2000/svg" xmlns:xlink="http://www.w3.org/1999/xlink" x="0px" y="0px"
	 viewBox="0 0 449.6 512" style="enable-background:new 0 0 449.6 512;" xml:space="preserve">
<path d="M393.6,99.2c0-3.2-3.2-4.8-4.8-4.8c-1.6,0-41.6-3.2-41.6-3.2S320,65.6,316.8,62.4c-3.2-3.2-9.6-1.6-11.2-1.6
	c0,0-6.4,1.6-16,4.8c-8-25.6-24-49.6-52.8-49.6h-1.6c-8-11.2-17.6-16-27.2-16c-65.6,0-97.6,83.2-107.2,124.8
	c-25.6,8-44.8,12.8-46.4,14.4C40,144,40,144,38.4,156.8C36.8,166.4,0,457.6,0,457.6L291.2,512l158.4-33.6
	C449.6,478.4,393.6,102.4,393.6,99.2z M232,80c0,1.6,0,1.6,0,3.2c-16,4.8-33.6,9.6-51.2,16c9.6-38.4,28.8-56,44.8-62.4
	C230.4,46.4,232,60.8,232,80z M206.4,17.6c3.2,0,6.4,1.6,8,3.2c-20.8,9.6-43.2,35.2-52.8,84.8c-14.4,4.8-27.2,8-40,12.8
	C132.8,80,158.4,17.6,206.4,17.6z M217.6,241.6c0,0-17.6-9.6-38.4-9.6c-30.4,0-32,19.2-32,24c0,27.2,68.8,36.8,68.8,99.2
	c0,49.6-30.4,80-72,80c-49.6,0-75.2-30.4-75.2-30.4L81.6,360c0,0,25.6,22.4,48,22.4c14.4,0,20.8-11.2,20.8-19.2
	c0-35.2-56-36.8-56-92.8c0-48,33.6-94.4,104-94.4c27.2,0,40,8,40,8L217.6,241.6z M249.6,78.4c0-1.6,0-3.2,0-4.8
	c0-16-1.6-28.8-6.4-40c14.4,1.6,24,19.2,30.4,36.8C267.2,73.6,259.2,75.2,249.6,78.4z"/>
</svg>
