<?xml version="1.0" encoding="utf-8"?>
<!-- Generator: Adobe Illustrator 19.0.0, SVG Export Plug-In . SVG Version: 6.00 Build 0)  -->
<svg version="1.1" id="Layer_1" xmlns="http://www.w3.org/2000/svg" xmlns:xlink="http://www.w3.org/1999/xlink" x="0px" y="0px"
	 viewBox="0 0 496 512" style="enable-background:new 0 0 496 512;" xml:space="preserve">
<style type="text/css">
	.st0{fill:#010101;}
</style>
<path id="XMLID_19_" class="st0" d="M395.5,456c-42.6,31.7-94.4,48.7-147.5,48.6c-137.2,0-248-111-248-248c0-137.2,111-248,248-248
	C309.2,8.5,368.2,31.1,413.7,72c1.5,1.3,1.6,3.6,0.2,5c-0.8,0.9-1.9,1.3-3.1,1.1c-18.8-2.5-37.7-3.7-56.7-3.7
	c-129.4,0-222.4,53.5-222.4,155.4c0,109,92.1,145.9,176.8,178.7c33.6,13,65.4,25.4,87,41.6c1.6,1.2,1.9,3.4,0.7,5
	C396.1,455.5,395.8,455.7,395.5,456L395.5,456z M495,233.6c-0.1-0.9-0.5-1.8-1.3-2.4c-51.8-43-93.6-60.5-144.5-60.5
	c-84.1,0-80.3,52.2-80.3,53.6c0,42.6,52.1,62,112.3,84.5c31.1,11.6,63.2,23.6,92.7,39.9c1.7,0.9,3.9,0.3,4.8-1.5
	c0.1-0.1,0.1-0.2,0.2-0.4C493.1,310.9,498.5,272.1,495,233.6z"/>
</svg>
