<?xml version="1.0" encoding="utf-8"?>
<!-- Generator: Adobe Illustrator 21.1.0, SVG Export Plug-In . SVG Version: 6.00 Build 0)  -->
<svg version="1.1" xmlns="http://www.w3.org/2000/svg" xmlns:xlink="http://www.w3.org/1999/xlink" x="0px" y="0px"
	 viewBox="0 0 512 512" style="enable-background:new 0 0 512 512;" xml:space="preserve">
<path d="M256-3C115.2-3,0,112.2,0,253s115.2,256,256,256s256-115.2,256-256S396.8-3,256-3z M296.6,381L151,353.8
	c0,0,19.2-145.6,19.2-150.4c1.6-6.4,1.6-6.4,8-9.6c1.6,0,9.6-3.2,22.4-6.4c4.8-20.8,20.8-62.4,54.4-62.4c4.8,0,9.6,1.6,12.8,8h1.6
	c14.4,0,22.4,12.8,27.2,25.6c4.8-1.6,8-1.6,8-1.6c1.6,0,4.8,0,4.8,0c1.6,1.6,14.4,14.4,14.4,14.4s19.2,1.6,20.8,1.6
	c1.6,0,1.6,0,1.6,1.6c0,1.6,27.2,188.8,27.2,188.8L296.6,381z M272.6,141c1.6,4.8,3.2,11.2,3.2,19.2c0,1.6,0,1.6,0,3.2
	c4.8-1.6,8-3.2,12.8-3.2C285.4,150.6,280.6,142.6,272.6,141z M197.4,259.4c0,28.8,28.8,28.8,28.8,46.4c0,4.8-3.2,9.6-9.6,9.6
	c-11.2,0-24-11.2-24-11.2l-6.4,22.4c0,0,12.8,16,38.4,16c20.8,0,36.8-16,36.8-40c0-30.4-35.2-36.8-35.2-49.6c0-3.2,0-12.8,16-12.8
	c11.2,0,19.2,4.8,19.2,4.8l9.6-28.8c0,0-6.4-3.2-19.2-3.2C215,213,197.4,235.4,197.4,259.4z M242.2,174.6c8-3.2,17.6-4.8,25.6-8V165
	c0-9.6-1.6-17.6-3.2-22.4C256.6,145.8,247,155.4,242.2,174.6z M258.2,134.6c-1.6-1.6-3.2-1.6-4.8-1.6c-24,0-36.8,30.4-43.2,49.6
	c6.4-1.6,12.8-4.8,20.8-6.4C235.8,152.2,248.6,141,258.2,134.6z"/>
</svg>
