<?xml version="1.0" encoding="utf-8"?>
<!-- Generator: Adobe Illustrator 21.1.0, SVG Export Plug-In . SVG Version: 6.00 Build 0)  -->
<svg version="1.1" id="social-rss-circle.svg" xmlns="http://www.w3.org/2000/svg" xmlns:xlink="http://www.w3.org/1999/xlink"
	 x="0px" y="0px" viewBox="0 0 512 512" style="enable-background:new 0 0 512 512;" xml:space="preserve">
<path d="M256,0C115.2,0,0,115.2,0,256s115.2,256,256,256s256-115.2,256-256S396.8,0,256,0z M367.2,373.2
	C354.4,386,335.2,394,316,394c-12.8,0-24-3.2-35.2-9.6c-6.4,1.6-14.4,1.6-20.8,1.6c-16,0-32-3.2-46.4-9.6
	c-14.4-6.4-27.2-14.4-38.4-25.6s-20.8-24-27.2-38.4c-6.4-14.4-9.6-30.4-9.6-46.4c0-6.4,0-14.4,1.6-20.8c-4.8-11.2-8-22.4-8-35.2
	c0-19.2,8-36.8,20.8-51.2c12.8-12.8,32-20.8,51.2-20.8c11.2,0,24,3.2,33.6,8c3.2,0,6.8-0.4,10.6-0.8c3.8-0.4,7.8-0.8,11.8-0.8
	c16,0,32,3.2,46.4,9.6c14.4,6.4,27.2,14.4,38.4,25.6c11.2,11.2,19.2,24,25.6,38.4c6.4,14.4,9.6,30.4,9.6,46.4c0,8,0,14.4-1.6,22.4
	c6.4,11.2,9.6,22.4,9.6,35.2C388,341.2,380,358.8,367.2,373.2z M282.4,251.6l-28.8-6.4c-11.2-3.2-22.4-6.4-22.4-16
	c0-9.6,8-17.6,24-17.6c32,0,28.8,22.4,44.8,22.4c8,0,16-4.8,16-12.8c0-19.2-30.4-33.6-57.6-33.6c-28.8,0-59.2,12.8-59.2,44.8
	c0,16,4.8,32,36.8,40l38.4,9.6c11.2,3.2,14.4,9.6,14.4,16c0,9.6-9.6,19.2-27.2,19.2c-33.6,0-28.8-25.6-48-25.6
	c-8,0-14.4,6.4-14.4,14.4c0,16,19.2,36.8,62.4,36.8c41.6,0,60.8-19.2,60.8-46.4C322.4,275.6,314.4,258,282.4,251.6z"/>
</svg>
