<?xml version="1.0" encoding="utf-8"?>
<!-- Generator: Adobe Illustrator 21.1.0, SVG Export Plug-In . SVG Version: 6.00 Build 0)  -->
<svg version="1.1" id="Layer_1" xmlns="http://www.w3.org/2000/svg" xmlns:xlink="http://www.w3.org/1999/xlink" x="0px" y="0px"
	 viewBox="0 0 510.4 512" style="enable-background:new 0 0 510.4 512;" xml:space="preserve">
<path d="M510.4,383.8c0,35.7-12.4,65.9-37.2,90.8S418.3,512,383,512c-29,0-55.1-8.8-78.1-26.5c-16.8,3.5-33.4,5.3-49.6,5.3
	c-31.7,0-62.1-6.2-91-18.6c-28.9-12.4-53.8-29.1-74.7-50c-20.9-21-37.5-45.9-49.9-74.9c-12.4-29-18.5-59.4-18.5-91.3
	c0-16.3,1.8-32.9,5.3-49.8C8.9,183.1,0.1,156.9,0.1,127.8c0-35.4,12.4-65.5,37.2-90.4C62.1,12.4,92.3,0,127.9,0
	c28.8,0,54.7,8.8,77.7,26.5c16.8-3.5,33.4-5.3,49.6-5.3c31.7,0,62.1,6.2,91,18.6c28.9,12.4,53.8,29.1,74.7,50
	c20.9,21,37.5,45.9,49.9,74.9c12.3,29,18.5,59.4,18.5,91.3c0,16.3-1.8,32.9-5.3,49.8C501.6,328.9,510.4,354.9,510.4,383.8z
	 M390,311.5c0-60-66.1-78.1-74.5-80.8c-8.4-2.7-75.1-18.5-78.1-19.2c-28.5-6.5-29.7-22.3-29.7-26.1c0-17.1,16-25.2,48-25.7
	c41.1-0.6,54.3,27.3,69.2,34.5c18.3,8.9,35,0.5,41.1-6.7c11.8-14,15.3-39.8-9.2-59C321,100.4,270.6,98,249.1,98
	c-63.5,0-124.5,30.6-124.5,93.1c0,57.2,42.5,72.9,52.1,76.8c30.4,12.2,82.6,22.9,82.6,22.9c39,10.4,47.6,13.2,47.6,31.8
	c0,25.1-33.6,29.8-48,29.8c-64.9,0-63.2-51-100.1-51c-21.3,0-34.2,13.7-34.2,34.7c0,36.7,55.2,74.7,137.6,74.7
	C311.6,410.7,390,387,390,311.5z"/>
</svg>
