<?xml version="1.0" encoding="utf-8"?>
<!-- Generator: Adobe Illustrator 21.1.0, SVG Export Plug-In . SVG Version: 6.00 Build 0)  -->
<svg version="1.1" xmlns="http://www.w3.org/2000/svg" xmlns:xlink="http://www.w3.org/1999/xlink" x="0px" y="0px"
	 viewBox="0 0 512 512" style="enable-background:new 0 0 512 512;" xml:space="preserve">
<rect x="227.2" y="229.1" transform="matrix(0.9482 -0.3176 0.3176 0.9482 -68.174 94.3314)" width="56" height="54.4"/>
<path d="M256,0C115.2,0,0,115.2,0,256s115.2,256,256,256s256-115.2,256-256S396.8,0,256,0z M369.6,289.6l-25.6,8l9.6,27.2
	c3.2,11.2-1.6,22.4-12.8,25.6c-1.6,0-4.8,1.6-6.4,1.6c-8,0-16-6.4-19.2-14.4L304,312l-52.8,17.6l9.6,27.2
	c3.2,11.2-1.6,22.4-12.8,25.6c-3.2,1.6-6.4,1.6-8,1.6c-8,0-16-6.4-19.2-14.4l-9.6-27.2l-25.6,9.6c-1.6,0-4.8,1.6-6.4,1.6
	c-8,0-16-6.4-19.2-14.4c-3.2-11.2,1.6-22.4,12.8-25.6l25.6-8l-17.6-51.2l-25.6,8c-1.6,0-4.8,1.6-6.4,1.6c-8,0-16-6.4-19.2-14.4
	c-3.2-11.2,1.6-22.4,12.8-25.6l25.6-8l-8-30.4c-3.2-11.2,1.6-22.4,12.8-25.6c11.2-3.2,22.4,1.6,25.6,12.8L208,200l52.8-17.6
	l-9.6-27.2c-3.2-11.2,1.6-22.4,12.8-25.6c11.2-3.2,22.4,1.6,25.6,12.8l9.6,27.2l25.6-8c11.2-3.2,22.4,1.6,25.6,12.8
	s-1.6,22.4-12.8,25.6l-24,8l17.6,51.2l25.6-8c11.2-3.2,22.4,1.6,25.6,12.8C385.6,275.2,380.8,286.4,369.6,289.6z"/>
</svg>
