<?xml version="1.0" encoding="utf-8"?>
<!-- Generator: Adobe Illustrator 21.1.0, SVG Export Plug-In . SVG Version: 6.00 Build 0)  -->
<svg version="1.1" id="Layer_1" xmlns="http://www.w3.org/2000/svg" xmlns:xlink="http://www.w3.org/1999/xlink" x="0px" y="0px"
	 viewBox="0 0 531.2 512" style="enable-background:new 0 0 531.2 512;" xml:space="preserve">
<style type="text/css">
	.st0{fill:#050505;}
</style>
<path class="st0" d="M265.4,0.6L265.4,0.6L265.4,0.6c-21.3,0-42,4.3-61.6,12.7c-18.8,8.1-35.7,19.6-50.3,34.3
	c-14.6,14.6-26,31.6-34.1,50.5c-8.4,19.6-12.6,40.4-12.6,61.7c0,10.5-0.2,20.6-0.6,30.3l-8.3-1.9c-3-0.7-6.2-1.1-9.3-1.1
	c-9,0-18,3.1-25.1,8.6c-7.5,5.8-12.7,14-14.7,23.2c-4.9,21.9,7.2,43.9,28.1,51.7l24.9,10c-16.5,50.6-46.9,60.3-67.3,66.8
	c-5.4,1.7-10.1,3.2-14.6,5.4C1.9,361.7,0,376.6,0,382.6c0,11.5,5.5,22.1,15.4,29.6c4.9,3.8,11,6.9,18.7,9.5
	c10.4,3.6,22.5,5.9,32.3,7.7c0.5,3.6,1.2,7.5,2.3,11.5c4.9,16.3,15.1,23.7,22.9,26.9c7.4,3.1,15,3.5,20,3.5c5,0,10.2-0.4,15.8-0.8
	c6-0.4,12.1-0.9,18.2-0.9c9.4,0,16.4,1.1,21.5,3.4c6.9,3.2,14.2,7.5,21.9,12c21.5,12.6,45.9,26.9,76.6,26.9s55.1-14.3,76.6-26.9
	c7.7-4.5,15-8.8,21.9-12c5-2.3,12-3.4,21.5-3.4c6.1,0,12.3,0.5,18.2,0.9c5.6,0.4,10.8,0.8,15.8,0.8c5.1,0,12.7-0.4,20-3.5
	c7.8-3.3,18-10.6,22.9-26.9c1.2-3.9,1.9-7.8,2.3-11.5c9.8-1.8,21.9-4.1,32.3-7.7c7.6-2.6,13.8-5.7,18.7-9.5
	c9.9-7.6,15.4-18.1,15.4-29.6c0-6-1.9-21-19.7-29.8c-4.5-2.2-9.2-3.7-14.6-5.4c-20.5-6.5-50.8-16.2-67.3-66.8l24.9-10
	c20.9-7.8,33-29.8,28.1-51.7c-2-9.2-7.3-17.4-14.7-23.2c-7.2-5.5-16.1-8.6-25.1-8.6c-3.1,0-6.3,0.4-9.3,1.1l-8.3,1.9
	c-0.4-9.7-0.6-19.9-0.6-30.3c0-21.3-4.3-42.1-12.7-61.7c-8.1-18.9-19.6-35.9-34.2-50.5c-14.6-14.6-31.6-26.2-50.5-34.2
	C307.4,4.9,286.6,0.6,265.4,0.6L265.4,0.6z"/>
</svg>
