<?xml version="1.0" encoding="utf-8"?>
<!-- Generator: Adobe Illustrator 21.1.0, SVG Export Plug-In . SVG Version: 6.00 Build 0)  -->
<svg version="1.1" id="social-rss-circle.svg" xmlns="http://www.w3.org/2000/svg" xmlns:xlink="http://www.w3.org/1999/xlink"
	 x="0px" y="0px" viewBox="0 0 512 512" style="enable-background:new 0 0 512 512;" xml:space="preserve">
<path d="M256,0C115.2,0,0,115.2,0,256s115.2,256,256,256s256-115.2,256-256S396.8,0,256,0z M388.6,344.3c-2.6,2-5.8,3.6-9.8,5
	c-5.5,1.9-11.8,3.1-17,4c-0.3,1.9-0.6,4-1.2,6c-2.6,8.6-8,12.5-12.1,14.2c-3.9,1.6-7.9,1.8-10.6,1.8c-2.6,0-5.4-0.2-8.3-0.4
	c-3.2-0.2-6.4-0.5-9.6-0.5c-5,0-8.7,0.6-11.3,1.8c-3.6,1.7-7.5,3.9-11.5,6.3c-11.3,6.7-24.2,14.2-40.4,14.2
	c-16.2,0-29-7.5-40.4-14.2c-4.1-2.4-7.9-4.6-11.5-6.3c-2.6-1.2-6.3-1.8-11.3-1.8c-3.2,0-6.5,0.2-9.6,0.5c-2.9,0.2-5.7,0.4-8.3,0.4
	c-2.7,0-6.7-0.2-10.6-1.8c-4.1-1.7-9.5-5.6-12.1-14.2c-0.6-2.1-1-4.1-1.2-6c-5.2-1-11.5-2.2-17-4c-4-1.4-7.3-3-9.9-5
	c-5.2-4-8.1-9.5-8.1-15.6c0-3.2,1-11,10.4-15.7c2.3-1.2,4.8-2,7.7-2.9c10.8-3.4,26.8-8.5,35.5-35.2l-13.1-5.3
	c-11-4.1-17.4-15.7-14.8-27.2c1.1-4.8,3.8-9.2,7.8-12.2c3.8-2.9,8.5-4.5,13.2-4.5c1.7,0,3.3,0.2,4.9,0.6l4.4,1
	c0.2-5.1,0.3-10.5,0.3-16c0-11.2,2.3-22.2,6.6-32.5c4.2-10,10.3-18.9,18-26.6c7.7-7.7,16.6-13.8,26.5-18.1
	c10.3-4.4,21.3-6.7,32.5-6.7h0c11.2,0,22.2,2.3,32.5,6.7c9.9,4.3,18.9,10.3,26.6,18c7.7,7.7,13.8,16.7,18,26.6
	c4.4,10.4,6.7,21.3,6.7,32.5c0,5.5,0.1,10.9,0.3,16l4.4-1c1.6-0.4,3.3-0.6,4.9-0.6c4.8,0,9.5,1.6,13.2,4.5c3.9,3.1,6.7,7.4,7.8,12.2
	c2.6,11.5-3.8,23.1-14.8,27.2l-13.1,5.3c8.7,26.7,24.7,31.8,35.5,35.2c2.9,0.9,5.3,1.7,7.7,2.9c9.4,4.7,10.4,12.5,10.4,15.7
	C396.7,334.8,393.8,340.3,388.6,344.3z"/>
</svg>
