<?xml version="1.0" encoding="utf-8"?>
<!-- Generator: Adobe Illustrator 21.1.0, SVG Export Plug-In . SVG Version: 6.00 Build 0)  -->
<svg version="1.1" xmlns="http://www.w3.org/2000/svg" xmlns:xlink="http://www.w3.org/1999/xlink" x="0px" y="0px"
	 viewBox="0 0 512 512" style="enable-background:new 0 0 512 512;" xml:space="preserve">
<path d="M256,512C115.2,512,0,396.8,0,256S115.2,0,256,0s256,115.2,256,256S396.8,512,256,512z M428.8,188.8
	C336,131.2,185.6,128,96,153.6c-12.8,3.2-19.2,16-16,28.8c3.2,12.8,16,19.2,28.8,16c76.8-25.6,214.4-19.2,297.6,28.8
	c12.8,6.4,25.6,3.2,32-6.4C444.8,208,441.6,195.2,428.8,188.8z M400,275.2c-80-48-195.2-64-288-35.2c-9.6,3.2-16,12.8-12.8,25.6
	c3.2,9.6,12.8,16,25.6,12.8c80-25.6,185.6-12.8,256,28.8c9.6,6.4,19.2,3.2,25.6-6.4C409.6,291.2,406.4,278.4,400,275.2z M368,348.8
	c-67.2-41.6-150.4-51.2-249.6-28.8c-6.4,3.2-12.8,9.6-12.8,19.2c3.2,6.4,9.6,12.8,19.2,12.8c89.6-19.2,166.4-12.8,224,25.6
	c6.4,6.4,16,3.2,22.4-6.4C377.6,361.6,377.6,352,368,348.8z"/>
</svg>
