<?xml version="1.0" encoding="utf-8"?>
<!-- Generator: Adobe Illustrator 21.1.0, SVG Export Plug-In . SVG Version: 6.00 Build 0)  -->
<svg version="1.1" xmlns="http://www.w3.org/2000/svg" xmlns:xlink="http://www.w3.org/1999/xlink" x="0px" y="0px"
	 viewBox="0 0 512 512" style="enable-background:new 0 0 512 512;" xml:space="preserve">
<g>
	<path d="M312,300.6c-33.6-20.7-75.2-25.5-124.8-14.3c-3.2,1.6-6.4,4.8-6.4,9.5c1.6,3.2,4.8,6.4,9.6,6.4c44.8-9.5,83.2-6.4,112,12.7
		c3.2,3.2,8,1.6,11.2-3.2C316.8,307,316.8,302.2,312,300.6z"/>
	<path d="M328,264c-40-23.9-97.6-31.8-144-17.5c-4.8,1.6-8,6.4-6.4,12.7c1.6,4.8,6.4,8,12.8,6.4c40-12.7,92.8-6.4,128,14.3
		c4.8,3.2,9.6,1.6,12.8-3.2C332.8,272,331.2,265.6,328,264z"/>
	<path d="M256,0C115.2,0,0,114.5,0,254.5S115.2,509,256,509s256-114.5,256-254.5S396.8,0,256,0z M256,381.8
		c-70.4,0-128-57.3-128-127.3s57.6-127.3,128-127.3s128,57.3,128,127.3S326.4,381.8,256,381.8z"/>
	<path d="M342.4,221.1C296,192.5,220.8,190.9,176,203.6c-6.4,1.6-9.6,8-8,14.3c1.6,6.4,8,9.5,14.4,8c38.4-12.7,107.2-9.5,148.8,14.3
		c6.4,3.2,12.8,1.6,16-3.2C350.4,230.6,348.8,224.3,342.4,221.1z"/>
</g>
</svg>
