<?xml version="1.0" encoding="utf-8"?>
<!-- Generator: Adobe Illustrator 21.1.0, SVG Export Plug-In . SVG Version: 6.00 Build 0)  -->
<svg version="1.1" xmlns="http://www.w3.org/2000/svg" xmlns:xlink="http://www.w3.org/1999/xlink" x="0px" y="0px"
	 viewBox="0 0 512 512" style="enable-background:new 0 0 512 512;" xml:space="preserve">
<path d="M441,0H71C31.8,0,0,31.8,0,71v370c0,39.2,31.8,71,71,71h370c39.2,0,71-31.8,71-71V71C512,31.8,480.2,0,441,0z M256,384
	c-70.4,0-128-57.6-128-128s57.6-128,128-128s128,57.6,128,128S326.4,384,256,384z M342.4,222.4C296,193.6,220.8,192,176,204.8
	c-6.4,1.6-9.6,8-8,14.4c1.6,6.4,8,9.6,14.4,8c38.4-12.8,107.2-9.6,148.8,14.4c6.4,3.2,12.8,1.6,16-3.2
	C350.4,232,348.8,225.6,342.4,222.4z M328,265.6c-40-24-97.6-32-144-17.6c-4.8,1.6-8,6.4-6.4,12.8c1.6,4.8,6.4,8,12.8,6.4
	c40-12.8,92.8-6.4,128,14.4c4.8,3.2,9.6,1.6,12.8-3.2C332.8,273.6,331.2,267.2,328,265.6z M312,302.4
	c-33.6-20.8-75.2-25.6-124.8-14.4c-3.2,1.6-6.4,4.8-6.4,9.6c1.6,3.2,4.8,6.4,9.6,6.4c44.8-9.6,83.2-6.4,112,12.8
	c3.2,3.2,8,1.6,11.2-3.2C316.8,308.8,316.8,304,312,302.4z"/>
</svg>
