<?xml version="1.0" encoding="utf-8"?>
<!-- Generator: Adobe Illustrator 21.1.0, SVG Export Plug-In . SVG Version: 6.00 Build 0)  -->
<svg version="1.1" id="Layer_1" xmlns="http://www.w3.org/2000/svg" xmlns:xlink="http://www.w3.org/1999/xlink" x="0px" y="0px"
	 viewBox="0 0 400.1 512" style="enable-background:new 0 0 400.1 512;" xml:space="preserve">
<path d="M332.6,301.1v200.3l-0.4,9.8v0.4H10.2l-9.8-0.4H0V301.1h34.6v176.6h263.9V301.1H332.6z M263.9,399.8V443L63,443.5v-43.2
	L263.9,399.8z M68.7,326.4l200.1,18.4l-3.7,42.8L64.7,369.2L68.7,326.4z M87.8,236.2l194.4,52.2l-11,41.6L76.9,277.8L87.8,236.2z
	 M134.2,136.3l173.2,102.8l-21.6,37.1L112.2,173.4L134.2,136.3z M236.7,42l113.5,166.9l-35.4,24.5L201.3,66.5L236.7,42z M365.6,0
	l34.6,199.1l-42.3,7.3L323.3,7.3L365.6,0z"/>
</svg>
