<?xml version="1.0" encoding="utf-8"?>
<!-- Generator: Adobe Illustrator 21.1.0, SVG Export Plug-In . SVG Version: 6.00 Build 0)  -->
<svg version="1.1" id="Layer_1" xmlns="http://www.w3.org/2000/svg" xmlns:xlink="http://www.w3.org/1999/xlink" x="0px" y="0px"
	 viewBox="0 0 550 512" style="enable-background:new 0 0 550 512;" xml:space="preserve">
<style type="text/css">
	.st0{fill:#010101;}
</style>
<path class="st0" d="M503.8,360.2c1.3-2.7,1.3-5.4,2.6-8.1C537.2,225.8,463.9,78,338,0c55.3,78,77.1,170.7,57.8,254
	c-1.3,6.7-3.8,14.8-6.4,21.5c-3.5-2.1-7-4.3-10.3-6.7c0,0-124.6-80.7-258.3-221.8c-3.9-4,72,112.9,156.8,205.6
	C237.8,228.5,124.7,143.8,54,75.3c7.7,14.8,19.3,29.6,30.8,44.4c59.1,79.3,136.2,176.1,228.8,250c-65.5,41.7-156.8,44.4-249.3,0
	C41.1,358.9,21.9,345.4,0,329.3c38.5,63.2,99,121,170.9,151.9c86.1,39,173.5,36.3,236.5,0h1.3c2.6-1.3,5.1-2.7,7.7-5.4
	c30.8-16.1,91.3-33.6,124.7,33.6C550.1,528.2,566.8,440.9,503.8,360.2L503.8,360.2L503.8,360.2z"/>
</svg>
