<?xml version="1.0" encoding="utf-8"?>
<!-- Generator: Adobe Illustrator 16.0.0, SVG Export Plug-In . SVG Version: 6.00 Build 0)  -->
<!DOCTYPE svg PUBLIC "-//W3C//DTD SVG 1.1 Tiny//EN" "http://www.w3.org/Graphics/SVG/1.1/DTD/svg11-tiny.dtd">
<svg version="1.1" baseProfile="tiny" id="Layer_1" xmlns="http://www.w3.org/2000/svg" xmlns:xlink="http://www.w3.org/1999/xlink"
	 x="0px" y="0px" width="512px" height="512px" viewBox="0 0 512 512" xml:space="preserve">
<path fill="#010101" d="M512,256c0,141.397-114.602,256-256,256C114.603,512,0,397.397,0,256C0,114.603,114.603,0,256,0
	C397.398,0,512,114.603,512,256z M367.935,94.699c-26.025,0.896-48.701,15.253-65.6,35.072
	c-18.73,21.76-31.167,47.552-40.127,73.834c-16.064-13.099-28.416-30.166-54.166-37.567c-20.608-6.336-42.986-2.24-60.01,10.966
	c-8.747,6.805-15.147,16.149-18.368,26.752c-7.68,25.088,8.128,47.467,15.339,55.467l15.723,16.854
	c3.2,3.285,11.072,11.947,7.232,24.277c-4.118,13.461-20.288,22.123-36.95,17.045c-7.424-2.26-18.09-7.808-15.659-15.572
	c0.96-3.2,3.243-5.611,4.48-8.342c1.109-2.346,1.643-4.14,2.026-5.162c3.008-9.92-1.13-22.827-11.754-26.092
	c-9.92-3.051-20.032-0.64-24,12.076c-4.459,14.506,2.496,40.811,39.68,52.243c43.52,13.398,80.32-10.323,85.525-41.215
	c3.264-19.351-5.44-33.75-21.461-52.203l-13.056-14.442c-7.915-7.894-10.603-21.376-2.432-31.681
	c6.912-8.725,16.747-12.458,32.832-8.085c23.531,6.4,34.005,22.678,51.456,35.84c-7.21,23.68-11.946,47.424-16.191,68.735
	l-2.624,15.916c-12.48,65.492-22.037,101.481-46.805,122.154c-4.992,3.541-12.16,8.874-22.891,9.259
	c-5.675,0.105-7.509-3.755-7.573-5.483c-0.128-3.925,3.2-5.78,5.44-7.529c3.285-1.771,8.32-4.778,7.936-14.38
	c-0.341-11.349-9.728-21.205-23.339-20.756c-10.176,0.361-25.664,9.92-25.088,27.435c0.597,18.133,17.472,31.68,42.923,30.805
	c13.61-0.447,43.989-5.994,73.898-41.578c34.837-40.769,44.587-87.487,51.925-121.728l8.17-45.143
	c4.545,0.512,9.408,0.896,14.721,1.024c43.35,0.938,65.047-21.546,65.365-37.888c0.213-9.899-6.484-19.648-15.873-19.414
	c-8.232,0.192-15.316,5.931-17.193,13.952c-2.004,9.13,13.781,17.343,1.451,25.365c-8.746,5.676-24.447,9.643-46.594,6.4
	l4.012-22.229c8.234-42.156,18.324-94.017,56.77-95.297c2.814-0.149,13.055,0.128,13.289,6.891c0.064,2.24-0.469,2.858-3.135,8
	c-2.453,3.307-3.713,7.36-3.584,11.456c0.361,10.752,8.531,17.835,20.416,17.408c15.85-0.491,20.373-15.957,20.158-23.872
	C413.546,105.622,393.919,93.888,367.935,94.699L367.935,94.699z"/>
</svg>
