<?xml version="1.0" encoding="utf-8"?>
<!-- Generator: Adobe Illustrator 21.1.0, SVG Export Plug-In . SVG Version: 6.00 Build 0)  -->
<svg version="1.1" xmlns="http://www.w3.org/2000/svg" xmlns:xlink="http://www.w3.org/1999/xlink" x="0px" y="0px"
	 viewBox="0 0 512 512" style="enable-background:new 0 0 512 512;" xml:space="preserve">
<path d="M441,0H71C31.8,0,0,31.8,0,71v370c0,39.2,31.8,71,71,71h370c39.2,0,71-31.8,71-71V71C512,31.8,480.2,0,441,0z M284.8,384
	c-56,1.6-76.8-40-76.8-68.8V232h-25.6v-33.6c38.4-14.4,48-49.6,49.6-68.8c1.6-1.6,1.6-1.6,3.2-1.6H272v65.6h51.2V232H272v80
	c0,11.2,4.8,25.6,24,25.6c6.4,0,16-1.6,20.8-4.8l12.8,36.8C324.8,376,304,384,284.8,384z"/>
</svg>
