<?xml version="1.0" encoding="utf-8"?>
<!-- Generator: Adobe Illustrator 21.1.0, SVG Export Plug-In . SVG Version: 6.00 Build 0)  -->
<svg version="1.1" xmlns="http://www.w3.org/2000/svg" xmlns:xlink="http://www.w3.org/1999/xlink" x="0px" y="0px"
	 viewBox="0 0 512 512" style="enable-background:new 0 0 512 512;" xml:space="preserve">
<path d="M256,0C115.2,0,0,115.2,0,256s115.2,256,256,256s256-115.2,256-256S396.8,0,256,0z M284.8,384c-56,1.6-76.8-40-76.8-68.8
	V232h-25.6v-33.6c38.4-14.4,48-49.6,49.6-68.8c1.6-1.6,1.6-1.6,3.2-1.6H272v65.6h51.2V232H272v80c0,11.2,4.8,25.6,24,25.6
	c6.4,0,16-1.6,20.8-4.8l12.8,36.8C324.8,376,304,384,284.8,384z"/>
</svg>
