<?xml version="1.0" encoding="utf-8"?>
<!-- Generator: Adobe Illustrator 21.1.0, SVG Export Plug-In . SVG Version: 6.00 Build 0)  -->
<svg version="1.1" id="Layer_1" xmlns="http://www.w3.org/2000/svg" xmlns:xlink="http://www.w3.org/1999/xlink" x="0px" y="0px"
	 viewBox="0 0 550 512" style="enable-background:new 0 0 550 512;" xml:space="preserve">
<path d="M550,87.6c-20.5,8.6-41.1,15.5-65.1,17.1c24-13.7,41.1-36,49.7-61.6c-22.3,13.7-46.3,22.3-71.9,27.4
	c-20.5-22.3-49.7-36-80.5-36C320.4,34.5,269,84.2,269,147.6c0,8.6,1.7,17.1,3.4,25.7C178.2,168.1,96,123.6,39.4,55
	C29.2,72.2,24,91.1,24,111.6c0,39.4,20.5,73.7,49.7,94.2c-18.9,0-36-5.2-51.4-13.7v1.7c0,54.8,39.4,99.4,90.8,109.7
	c-10.3,1.7-18.9,3.4-29.2,3.4c-6.8,0-13.7,0-20.5-1.7c13.7,44.5,56.6,77.1,104.5,78.8C130.2,414.9,80.5,432,27.4,432
	c-8.6,0-18.9,0-27.4-1.7C51.4,461.1,111.4,480,174.8,480c207.3,0,320.4-171.3,320.4-320.4c0-5.2,0-10.3,0-13.7
	C515.8,128.7,534.5,109.9,550,87.6z"/>
</svg>
