<?xml version="1.0" encoding="utf-8"?>
<!-- Generator: Adobe Illustrator 21.1.0, SVG Export Plug-In . SVG Version: 6.00 Build 0)  -->
<svg version="1.1" xmlns="http://www.w3.org/2000/svg" xmlns:xlink="http://www.w3.org/1999/xlink" x="0px" y="0px"
	 viewBox="0 0 512 512" style="enable-background:new 0 0 512 512;" xml:space="preserve">
<path d="M256,0C115.2,0,0,115.2,0,256s115.2,256,256,256s256-115.2,256-256S396.8,0,256,0z M358.4,203.2c0,1.6,0,4.8,0,6.4
	c0,68.8-52.8,148.8-148.8,148.8c-30.4,0-57.6-8-80-24c4.8,0,8,0,12.8,0c24,0,48-8,65.6-22.4c-22.4,0-41.6-16-49.6-36.8
	c3.2,0,6.4,1.6,9.6,1.6c4.8,0,9.6,0,14.4-1.6c-24-4.8-41.6-25.6-41.6-51.2l0,0c6.4,3.2,14.4,6.4,24,6.4c-14.4-9.6-24-25.6-24-43.2
	c0-9.6,3.2-19.2,6.4-27.2c25.6,32,64,52.8,108.8,54.4c-1.6-3.2-1.6-8-1.6-11.2c0-28.8,24-52.8,52.8-52.8c14.4,0,28.8,6.4,38.4,16
	c11.2-1.6,24-6.4,33.6-12.8c-3.2,12.8-12.8,22.4-22.4,28.8c11.2-1.6,20.8-4.8,30.4-8C377.6,187.2,368,196.8,358.4,203.2z"/>
</svg>
