<?xml version="1.0" encoding="utf-8"?>
<!-- Generator: Adobe Illustrator 21.1.0, SVG Export Plug-In . SVG Version: 6.00 Build 0)  -->
<svg version="1.1" xmlns="http://www.w3.org/2000/svg" xmlns:xlink="http://www.w3.org/1999/xlink" x="0px" y="0px"
	 viewBox="0 0 512 512" style="enable-background:new 0 0 512 512;" xml:space="preserve">
<path d="M441,0H71C31.8,0,0,31.8,0,71v370c0,39.2,31.8,71,71,71h370c39.2,0,71-31.8,71-71V71C512,31.8,480.2,0,441,0z M358.4,203.2
	v6.4c0,68.8-52.8,148.8-148.8,148.8c-30.4,0-57.6-8-80-24h12.8c24,0,48-8,65.6-22.4c-22.4,0-41.6-16-49.6-36.8
	c3.2,0,6.4,1.6,9.6,1.6c4.8,0,9.6,0,14.4-1.6c-24-4.8-41.6-25.6-41.6-51.2c3.2,1.6,6.8,3.2,10.8,4.4c4,1.2,8.4,2,13.2,2
	c-14.4-9.6-24-25.6-24-43.2c0-9.6,3.2-19.2,6.4-27.2c25.6,32,64,52.8,108.8,54.4c-1.6-3.2-1.6-8-1.6-11.2c0-28.8,24-52.8,52.8-52.8
	c14.4,0,28.8,6.4,38.4,16c11.2-1.6,24-6.4,33.6-12.8c-3.2,12.8-12.8,22.4-22.4,28.8c11.2-1.6,20.8-4.8,30.4-8
	C377.6,187.2,368,196.8,358.4,203.2z"/>
</svg>
