<?xml version="1.0" encoding="utf-8"?>
<!-- Generator: Adobe Illustrator 16.0.0, SVG Export Plug-In . SVG Version: 6.00 Build 0)  -->
<!DOCTYPE svg PUBLIC "-//W3C//DTD SVG 1.1 Tiny//EN" "http://www.w3.org/Graphics/SVG/1.1/DTD/svg11-tiny.dtd">
<svg version="1.1" baseProfile="tiny" id="Layer_1" xmlns="http://www.w3.org/2000/svg" xmlns:xlink="http://www.w3.org/1999/xlink"
	 x="0px" y="0px" width="512px" height="512px" viewBox="0 0 512 512" xml:space="preserve">
<path fill="#010101" d="M256,0c141.291,0,256,114.709,256,256c0,141.291-114.709,256-256,256S0,397.291,0,256
	C0,114.709,114.709,0,256,0z M325.953,377.174c-16.342,9.408-21.953,30.336-12.502,46.698c9.408,16.32,30.336,21.931,46.678,12.459
	c16.342-9.408,21.951-30.337,12.48-46.699C363.201,373.313,342.292,367.701,325.953,377.174L325.953,377.174z M256,355.84
	c-15.04,0-29.291-3.35-42.048-9.279l-23.744,42.56c19.84,9.792,42.197,15.381,65.792,15.381c13.781,0,27.051-1.941,39.68-5.461
	c2.219-13.718,10.347-26.325,23.361-33.856c12.992-7.488,28.01-8.234,40.959-3.328c25.303-24.811,41.75-58.645,44.16-96.319
	l-48.746-0.704C350.933,315.84,308.16,355.84,256,355.84z M156.16,256c0-33.771,16.789-63.595,42.453-81.707l-24.96-41.835
	c-29.952,19.84-52.16,50.539-61.461,86.081c10.795,8.618,17.707,22.059,17.707,37.119c0,15.02-6.912,28.139-17.707,37.1
	c9.301,35.52,31.509,66.219,61.461,86.059l24.96-41.92C172.949,319.359,156.16,289.578,156.16,256z M81.92,221.824
	c-18.88,0-34.176,15.296-34.176,34.176s15.296,34.176,34.176,34.176S116.075,274.88,116.075,256S100.8,221.824,81.92,221.824z
	 M256,156.16c52.16,0,94.933,40,99.414,90.986l48.746-0.725c-2.41-37.654-18.879-71.467-44.16-96.342
	c-12.992,4.949-28.01,4.139-40.959-3.285c-12.993-7.51-21.121-20.16-23.361-33.941c-12.672-3.414-25.898-5.333-39.68-5.333
	c-23.68,0-45.973,5.546-65.792,15.36l23.744,42.56C226.752,159.488,241.002,156.16,256,156.16z M325.953,134.805
	c16.32,9.43,37.248,3.861,46.697-12.48c9.408-16.32,3.861-37.248-12.543-46.72c-16.32-9.387-37.248-3.819-46.699,12.565
	C304,104.469,309.568,125.376,325.953,134.805z"/>
</svg>
