<?xml version="1.0" encoding="utf-8"?>
<!-- Generator: Adobe Illustrator 21.1.0, SVG Export Plug-In . SVG Version: 6.00 Build 0)  -->
<svg version="1.1" xmlns="http://www.w3.org/2000/svg" xmlns:xlink="http://www.w3.org/1999/xlink" x="0px" y="0px"
	 viewBox="0 0 512 512" style="enable-background:new 0 0 512 512;" xml:space="preserve">
<path d="M441,0H71C31.8,0,0,31.8,0,71v370c0,39.2,31.8,71,71,71h370c39.2,0,71-31.8,71-71V71C512,31.8,480.2,0,441,0z M331.2,299.2
	c-35.2,44.8-64,67.2-88,67.2c-14.4,0-27.2-14.4-38.4-41.6c-6.4-25.6-14.4-51.2-20.8-75.2c-8-27.2-16-41.6-24-41.6
	c-1.6,0-8,4.8-20.8,12.8l-12.8-16c12.8-11.2,25.6-22.4,36.8-33.6c17.6-14.4,28.8-22.4,38.4-22.4c19.2-1.6,32,11.2,36.8,41.6
	c4.8,32,8,51.2,9.6,59.2c6.4,25.6,12.8,38.4,19.2,38.4c4.8,0,12.8-8,24-25.6c11.2-17.6,16-30.4,17.6-38.4
	c1.6-14.4-4.8-22.4-17.6-22.4c-6.4,0-12.8,1.6-19.2,4.8c12.8-41.6,36.8-60.8,72-60.8c25.6,0,38.4,17.6,36.8,51.2
	C382.4,220.8,364.8,256,331.2,299.2z"/>
</svg>
