<?xml version="1.0" encoding="utf-8"?>
<!-- Generator: Adobe Illustrator 21.1.0, SVG Export Plug-In . SVG Version: 6.00 Build 0)  -->
<svg version="1.1" xmlns="http://www.w3.org/2000/svg" xmlns:xlink="http://www.w3.org/1999/xlink" x="0px" y="0px"
	 viewBox="0 0 448 512" style="enable-background:new 0 0 448 512;" xml:space="preserve">
<path d="M448,254.4c-12.8,3.2-25.6,4.8-36.8,4.8c-64,0-113.6-44.8-113.6-123.2c0-38.4,14.4-59.2,35.2-59.2
	c20.8,0,33.6,17.6,33.6,54.4c0,20.8-4.8,43.2-9.6,57.6c0,0,19.2,35.2,73.6,24c11.2-25.6,17.6-59.2,17.6-88C448,46.4,408,0,334.4,0
	c-75.2,0-120,57.6-120,134.4c0,75.2,35.2,140.8,94.4,169.6c-24,49.6-56,92.8-88,124.8c-59.2-72-112-166.4-134.4-352H0
	c40,308.8,160,408,192,427.2c17.6,11.2,33.6,9.6,49.6,1.6c25.6-14.4,102.4-91.2,145.6-182.4c17.6,0,40-1.6,60.8-6.4V254.4z"/>
</svg>
