<?xml version="1.0" encoding="utf-8"?>
<!-- Generator: Adobe Illustrator 21.1.0, SVG Export Plug-In . SVG Version: 6.00 Build 0)  -->
<svg version="1.1" id="Layer_1" xmlns="http://www.w3.org/2000/svg" xmlns:xlink="http://www.w3.org/1999/xlink" x="0px" y="0px"
	 viewBox="0 0 512 512" style="enable-background:new 0 0 512 512;" xml:space="preserve">
<path d="M441,0H71C31.8,0,0,31.8,0,71v370c0,39.2,31.8,71,71,71h370c39.2,0,71-31.8,71-71V71C512,31.8,480.2,0,441,0z M397.8,301.6
	c28.5,30.4,34.3,45.2,35.2,47c11.8,22.5-13.2,24.3-13.2,24.3l-47.7,0.8c0,0-10.2,2.3-23.8-8.4c-17.8-14-34.5-50.5-47.7-45.7
	c-13.4,4.8-12.9,37.6-12.9,37.6s0,7-3.1,10.7c-3.3,4-10,5.2-10,5.2l-20.3,0.5c0,0-47,3.2-88.4-46.3c-45.2-53.9-85.1-161-85.1-161
	s-2.2-7.2,0.2-10.5c2.7-3.8,10.2-4.1,10.2-4.1l51-0.5c0,0,4.9,1,8.3,3.8c2.9,2.6,4.4,6.9,4.4,6.9s8.3,24,19.2,45.5
	c21.4,42.2,31.2,51.4,38.5,46.9c10.5-6.6,7.3-59.7,7.3-59.7s0.2-19.3-5.3-27.9c-4.2-6.7-12.2-8.6-15.8-9.1c-2.7-0.4,2-8,8-11.5
	c9.2-5.1,25.3-5.5,44.5-5.3c14.9,0.3,19.2,1.3,25,2.8c17.6,4.9,11.6,23.8,11.6,68.7c0,14.5-2.3,34.8,6.7,41.4
	c3.8,3.1,13.4,0.5,37.5-46c11.3-22,19.8-48,19.8-48s1.8-4.6,4.7-6.7c2.9-2.1,6.9-1.5,6.9-1.5l53.5-0.5c0,0,16.3-2,18.7,6.2
	c2.9,8.7-6,29.1-27.8,62.6C371.9,275,367.9,269.9,397.8,301.6z"/>
</svg>
