<?xml version="1.0" encoding="utf-8"?>
<!-- Generator: Adobe Illustrator 21.1.0, SVG Export Plug-In . SVG Version: 6.00 Build 0)  -->
<svg version="1.1" id="Layer_1" xmlns="http://www.w3.org/2000/svg" xmlns:xlink="http://www.w3.org/1999/xlink" x="0px" y="0px"
	 viewBox="0 0 512 512" style="enable-background:new 0 0 512 512;" xml:space="preserve">
<style type="text/css">
	.st0{fill:#010101;}
</style>
<path class="st0" d="M279.8,439.7c0,0,9.7-1.9,14.4-8.2c4.5-5.9,4.5-16.9,4.5-16.9s-0.7-51.7,18.5-59.3c18.9-7.5,42.9,49.9,68.5,72
	c19.5,16.9,34.2,13.3,34.2,13.3l68.5-1.2c0,0,35.9-2.8,18.9-38.3c-1.3-2.8-9.6-26.2-50.6-74.1c-42.9-49.9-37.2-41.9,14.4-128.4
	c31.3-52.7,44.2-85,40-98.6c-3.5-12.9-26.9-9.7-26.9-9.7l-76.8,0.8c0,0-5.8-0.8-9.9,2.4c-4.2,3.2-6.7,10.5-6.7,10.5
	s-12.2,41-28.5,75.7c-34.6,73.2-48.4,77.3-53.8,72.4c-12.9-10.5-9.6-42.4-9.6-65.3c0-70.9,8.6-100.6-16.7-108.3
	c-8.3-2.4-14.5-4-35.9-4.5c-27.5-0.4-50.7,0.3-63.9,8.3c-8.6,5.4-15.4,17.5-11.5,18.1c5.1,0.8,16.6,3.9,22.7,14.4
	c8,13.6,7.7,43.9,7.7,43.9s4.5,83.6-10.5,94c-10.6,7-24.6-7.5-55.4-74c-15.7-33.8-27.5-71.6-27.5-71.6s-2.2-6.9-6.4-10.9
	c-4.8-4.4-11.9-6-11.9-6l-73.3,0.8c0,0-10.9,0.4-14.7,6.4c-3.5,5.2-0.3,16.5-0.3,16.5s57.3,168.7,122.3,253.7
	c59.5,77.9,127.1,72.9,127.1,72.9L279.8,439.7z"/>
</svg>
