<?xml version="1.0" encoding="utf-8"?>
<!-- Generator: Adobe Illustrator 21.1.0, SVG Export Plug-In . SVG Version: 6.00 Build 0)  -->
<svg version="1.1" id="Layer_1" xmlns="http://www.w3.org/2000/svg" xmlns:xlink="http://www.w3.org/1999/xlink" x="0px" y="0px"
	 viewBox="0 0 550 512" style="enable-background:new 0 0 550 512;" xml:space="preserve">
<style type="text/css">
	.st0{fill:#010101;}
</style>
<path class="st0" d="M539.5,272.9c-14-31.6-40.3-56.7-70.9-72.2c-53.9-27.3-121-27.2-174.8,0.7c-37.4,19.2-68.6,53.6-77.4,95.4
	c-7.3,30.8-0.8,64,15.6,90.8c24.3,40.4,68.3,66.2,113.9,74.4c33.1,6.7,67.3,2.7,99.4-6.5c19.3,7.5,36.5,19.6,55.2,28.6
	c-4.8-16.2-10-32.2-15.5-48.2c21-14.9,40-33.5,51.4-56.8C553.4,346.6,554.5,306.3,539.5,272.9z M312.1,56
	c-57.2-32.2-128.4-37-189.9-14.8c-40.4,14.6-77,41.6-99.6,78.4C2.1,152.8-5.6,194.2,4.3,232.3c9.9,42.2,39.2,77.5,74.8,101.1
	c-6.9,19.5-13.4,38.9-19.6,58.5c22.3-11.7,44.7-23.9,67.1-35.8c26.8,8.6,55.3,12.8,83.9,11.9c-7.6-21.6-9.3-45-5.8-67.6
	c5.2-31.4,22.3-60.2,45.7-81.4c39.6-37,95.6-52.6,148.9-48.8c-10-48.9-44.4-90.3-87.6-114.1L312.1,56L312.1,56z M351.8,284.9
	c-4.8,14.9-26.5,19.4-37,8.1c-11.6-10.5-7.1-32.5,8.1-37.2C339.7,248.7,359.2,268.1,351.8,284.9z M461.7,287
	c-5.9,13.4-26.1,16.6-36.1,6.2c-4.8-4.4-6.2-11-7.9-16.7c2.4-10.5,9.6-21.4,21.3-21.9c16.2-2.2,30.6,17.7,22.3,32.4L461.7,287
	L461.7,287z M297.7,139.1c0.2,22-29.2,35.8-45.7,20.8c-17.1-12.3-12.3-42.1,7.8-48.3c18-7.2,39.3,7.9,37.8,27.2L297.7,139.1z
	 M158.8,144.7c-3.9,19.1-29.6,28.4-44.6,15.5c-17.4-12.3-12.5-42.6,7.9-48.8C142.2,103.7,164.9,124,158.8,144.7z"/>
</svg>
