<?xml version="1.0" encoding="utf-8"?>
<!-- Generator: Adobe Illustrator 21.1.0, SVG Export Plug-In . SVG Version: 6.00 Build 0)  -->
<svg version="1.1" id="Layer_1" xmlns="http://www.w3.org/2000/svg" xmlns:xlink="http://www.w3.org/1999/xlink" x="0px" y="0px"
	 viewBox="0 0 512 512" style="enable-background:new 0 0 512 512;" xml:space="preserve">
<path d="M138.1,136.1c-15.7,4.8-19.5,28.1-6.1,37.6c11.6,9.9,31.4,2.8,34.4-12C171.1,145.8,153.6,130.1,138.1,136.1z M273.4,157.2
	c1.2-14.9-15.3-26.5-29.1-21c-15.5,4.8-19.2,27.8-6,37.2c12.7,11.6,35.4,0.9,35.2-16L273.4,157.2z M273.4,157.2
	c1.2-14.9-15.3-26.5-29.1-21c-15.5,4.8-19.2,27.8-6,37.2c12.7,11.6,35.4,0.9,35.2-16L273.4,157.2z M138.1,136.1
	c-15.7,4.8-19.5,28.1-6.1,37.6c11.6,9.9,31.4,2.8,34.4-12C171.1,145.8,153.6,130.1,138.1,136.1z M441,0H71C31.8,0,0,31.8,0,71v370
	c0,39.2,31.8,71,71,71h370c39.2,0,71-31.8,71-71V71C512,31.8,480.2,0,441,0z M141.6,324.7c-17.3,9.2-34.5,18.6-51.7,27.6
	c4.8-15.1,9.8-30.1,15.1-45.1c-27.4-18.2-50-45.4-57.7-77.9c-7.6-29.4-1.7-61.3,14.1-86.9C78.8,114,107.1,93.2,138.2,82
	c47.4-17.1,102.3-13.4,146.4,11.4l-0.3,0.1c33.3,18.3,59.8,50.3,67.5,88c-41.1-2.9-84.3,9.1-114.8,37.6
	c-18,16.3-31.2,38.5-35.2,62.8c-2.7,17.4-1.4,35.5,4.5,52.1C184.2,334.6,162.3,331.3,141.6,324.7z M457.5,342.4
	c-8.8,18-23.4,32.3-39.6,43.8c4.2,12.3,8.2,24.7,11.9,37.2c-14.4-6.9-27.7-16.3-42.5-22c-24.8,7.1-51.1,10.2-76.6,5
	c-35.2-6.3-69.1-26.2-87.8-57.4c-12.6-20.7-17.7-46.3-12-70c6.8-32.2,30.8-58.7,59.7-73.5c41.5-21.5,93.2-21.6,134.8-0.5
	c23.6,12,43.9,31.3,54.7,55.7C471.5,286.3,470.6,317.4,457.5,342.4z M382.4,246.5c-9,0.4-14.6,8.8-16.4,16.9
	c1.3,4.4,2.4,9.5,6.1,12.9c7.7,8,23.3,5.6,27.8-4.8h-0.3C406,260.1,394.9,244.8,382.4,246.5z M292.9,247.4
	c-11.7,3.6-15.2,20.6-6.2,28.7c8.1,8.7,24.8,5.2,28.5-6.3C320.9,256.9,305.9,241.9,292.9,247.4z M238.3,173.5
	c12.7,11.6,35.4,0.9,35.2-16l-0.1-0.2c1.2-14.9-15.3-26.5-29.1-21C228.8,141,225.1,164,238.3,173.5z M138.1,136.1
	c-15.7,4.8-19.5,28.1-6.1,37.6c11.6,9.9,31.4,2.8,34.4-12C171.1,145.8,153.6,130.1,138.1,136.1z"/>
</svg>
