<?xml version="1.0" encoding="utf-8"?>
<!-- Generator: Adobe Illustrator 21.1.0, SVG Export Plug-In . SVG Version: 6.00 Build 0)  -->
<svg version="1.1" id="social-rss-circle.svg" xmlns="http://www.w3.org/2000/svg" xmlns:xlink="http://www.w3.org/1999/xlink"
	 x="0px" y="0px" viewBox="0 0 512 512" style="enable-background:new 0 0 512 512;" xml:space="preserve">
<path d="M256,0C115.2,0,0,115.2,0,256s115.2,256,256,256s256-115.2,256-256S396.8,0,256,0z M258.3,415.8c-27.2,0-53.4-7.1-76.7-19.2
	L98,417.7l23.2-82.6c-14.1-24.1-21.1-51.5-21.1-79.8C99,166.6,170.6,95,259.3,95c42.3,0,82.6,17.2,113,47.5
	c30.3,30.3,46.4,70.5,46.4,113C418.8,343.1,347.1,415.8,258.3,415.8z M259.3,121.2c-72,1-130.4,57.9-133,129.1
	c-0.1,1.6-0.1,3.3-0.1,5.1c0,1.5,0,3.2,0.1,4.7c0,0.7,0.1,1.4,0.1,2.2c0.1,1.4,0.2,2.9,0.3,4.3c0.1,1.4,0.3,2.9,0.5,4.3
	c0.1,0.6,0.2,1.3,0.3,1.8c2.5,18.9,9,37,19.1,53.2l3,5.1l-13.1,49.4v0.2l50.4-14.1l5.1,3.1c20.3,12.1,43.4,18.2,67.5,18.2
	c68.1,0,124-50.8,132.1-116.7c0.2-1.1,0.3-2.2,0.4-3.2c0.1-1.1,0.2-2.2,0.3-3.3c0-0.6,0.1-1.1,0.1-1.6c0.1-1.1,0.1-2.2,0.2-3.4
	c0.1-1.7,0.1-3.4,0.1-5.1c0-35.4-14.1-68.5-39.3-93.9C328,135.3,294.7,121.2,259.3,121.2z M338,311.8c-4.1,9-19.2,18.2-27.2,19.2
	c-7.2,1-16.1,1-25.1-2.1c-6.2-1-14.1-4.1-23.2-8c-40.3-17.2-66.5-57.5-68.5-60.5c-2.1-3.1-16.2-21.1-16.2-41.3
	c-0.1-19.2,10-29.2,13-33.3c4.1-4.1,8.1-5.1,11-5.1h8c3.1,0,6.1-1,9,7c2.9,8,11,28.2,12.1,30.3c1,2.1,1,4.1,0,7
	c-1,3.1-2.1,5.1-4.1,7.1s-4.1,5.1-6.1,7.1c-2.1,2.1-4.1,4.1-2.1,8c2.1,4.1,10,16.2,22.3,27.2c15.1,14.1,28.2,18.2,32.3,20.3
	c4.1,2.1,7,2.1,9-1c3.1-3.1,10-12.1,13.1-16.2c3.1-4.1,5.1-3.1,9-2.1c4.1,1,23.1,11,27.2,12.1c4.1,2.1,7.1,3.1,8,5.1
	C341,294.8,341,302.9,338,311.8z"/>
</svg>
