<?xml version="1.0" encoding="utf-8"?>
<!-- Generator: Adobe Illustrator 21.1.0, SVG Export Plug-In . SVG Version: 6.00 Build 0)  -->
<svg version="1.1" xmlns="http://www.w3.org/2000/svg" xmlns:xlink="http://www.w3.org/1999/xlink" x="0px" y="0px"
	 viewBox="0 0 508.8 512" style="enable-background:new 0 0 508.8 512;" xml:space="preserve">
<g>
	<path d="M435.2,75.2C387.2,27.2,323.2,0,256,0C115.2,0,1.6,113.6,3.2,254.4c0,44.8,11.2,88,33.6,126.4L0,512l132.8-33.6
		c36.8,19.2,78.4,30.4,121.6,30.4c140.8,0,254.4-115.2,254.4-254.4C508.8,187.2,483.2,123.2,435.2,75.2z M256,464
		c-38.4,0-75.2-9.6-107.2-28.8l-8-4.8l-80,22.4l20.8-78.4l-4.8-8c-20.8-33.6-32-72-32-112c0-116.8,94.4-211.2,211.2-212.8
		c56,0,108.8,22.4,148.8,62.4s62.4,92.8,62.4,148.8C467.2,369.6,372.8,464,256,464z"/>
	<path d="M371.2,305.6c-6.4-1.6-36.8-17.6-43.2-19.2c-6.4-1.6-9.6-3.2-14.4,3.2c-4.8,6.4-16,20.8-20.8,25.6c-3.2,4.8-8,4.8-14.4,1.6
		s-27.2-9.6-51.2-32c-19.2-17.6-32-36.8-35.2-43.2c-3.2-6.4,0-9.6,3.2-12.8s6.4-8,9.6-11.2c3.2-3.2,4.8-6.4,6.4-11.2
		c1.6-4.8,1.6-8,0-11.2c-1.6-3.2-14.4-35.2-19.2-48c-4.8-12.8-9.6-11.2-14.4-11.2c-3.2,0-8,0-12.8,0c-4.8,0-11.2,1.6-17.6,8
		c-4.8,6.4-20.8,22.4-20.8,52.8c0,32,22.4,60.8,25.6,65.6c3.2,4.8,44.8,68.8,108.8,96c14.4,6.4,27.2,11.2,36.8,12.8
		c14.4,4.8,28.8,4.8,40,3.2c12.8-1.6,36.8-16,43.2-30.4c4.8-14.4,4.8-27.2,3.2-30.4C382.4,310.4,377.6,308.8,371.2,305.6z"/>
</g>
</svg>
