<?xml version="1.0" encoding="utf-8"?>
<!-- Generator: Adobe Illustrator 21.1.0, SVG Export Plug-In . SVG Version: 6.00 Build 0)  -->
<svg version="1.1" id="Layer_1" xmlns="http://www.w3.org/2000/svg" xmlns:xlink="http://www.w3.org/1999/xlink" x="0px" y="0px"
	 viewBox="0 0 512 512" style="enable-background:new 0 0 512 512;" xml:space="preserve">
<path d="M441,0H71C31.8,0,0,31.8,0,71v370c0,39.2,31.8,71,71,71h370c39.2,0,71-31.8,71-71V71C512,31.8,480.2,0,441,0z M246.3,430.8
	c-30.1,0-59.1-7.9-84.8-21.2L69,432.9l25.6-91.4c-15.6-26.7-23.3-57-23.3-88.2C70.1,155.2,149.3,76,247.4,76
	c46.8,0,91.4,19,125,52.5c33.5,33.5,51.3,78,51.3,125C423.8,350.4,344.5,430.8,246.3,430.8z M247.4,105
	c-79.6,1.1-144.2,64-147.1,142.8c-0.1,1.8-0.1,3.7-0.1,5.6c0,1.7,0,3.5,0.1,5.2c0,0.8,0.1,1.6,0.1,2.4c0.1,1.6,0.2,3.2,0.3,4.8
	c0.1,1.6,0.3,3.2,0.5,4.8c0.1,0.7,0.2,1.4,0.3,2c2.7,20.9,9.9,40.9,21.1,58.8l3.3,5.6l-14.5,54.6l0,0l0,0.2l55.8-15.6l5.6,3.4
	c22.4,13.4,48,20.1,74.7,20.1c75.3,0,137.2-56.2,146.1-129.1v0c0.2-1.2,0.3-2.4,0.4-3.5c0.1-1.2,0.2-2.4,0.3-3.6c0,0,0,0,0,0
	c0-0.6,0.1-1.2,0.1-1.8c0.1-1.2,0.1-2.4,0.2-3.7c0.1-1.9,0.1-3.8,0.1-5.7c0-39.1-15.6-75.8-43.5-103.8
	C323.4,120.6,286.5,105,247.4,105z M171.6,176.4c4.5-4.5,9-5.6,12.2-5.6h8.9c3.4,0,6.8-1.1,10,7.7c3.2,8.9,12.2,31.2,13.4,33.5
	c1.1,2.3,1.1,4.5,0,7.7c-1.1,3.4-2.3,5.6-4.5,7.9s-4.5,5.6-6.8,7.9s-4.5,4.5-2.3,8.9c2.3,4.5,11.1,17.9,24.6,30.1
	c16.7,15.6,31.2,20.1,35.7,22.4s7.7,2.3,10-1.1c3.4-3.4,11.1-13.4,14.5-17.9c3.4-4.5,5.6-3.4,10-2.3c4.5,1.1,25.6,12.2,30.1,13.4
	c4.5,2.3,7.9,3.4,8.9,5.6c1.5,2.4,1.5,11.3-1.8,21.2c-4.5,10-21.2,20.1-30.1,21.2c-7.9,1.1-17.8,1.1-27.8-2.3
	c-6.8-1.1-15.6-4.5-25.7-8.9c-44.6-19-73.5-63.6-75.8-66.9c-2.3-3.4-17.9-23.3-17.9-45.7C157.1,192,168.3,180.9,171.6,176.4z"/>
<path d="M247.6,399.6c-26.7,0-52.3-6.8-74.7-20.1l-5.6-3.4l-55.8,15.6l0,0.2l55.8-15.6l5.6,3.4c22.4,13.4,48,20.1,74.7,20.1
	c75.3,0,137.2-56.2,146.1-129.1C384.7,343.4,322.8,399.6,247.6,399.6z M125.9,337.1L125.9,337.1l-3.3-5.7
	c-11.2-17.9-18.4-37.8-21.1-58.7c2.7,20.9,9.9,40.9,21.1,58.8L125.9,337.1z M247.6,399.6c-26.7,0-52.3-6.8-74.7-20.1l-5.6-3.4
	l-55.8,15.6l0,0.2l55.8-15.6l5.6,3.4c22.4,13.4,48,20.1,74.7,20.1c75.3,0,137.2-56.2,146.1-129.1
	C384.7,343.4,322.8,399.6,247.6,399.6z M122.5,331.4c-11.2-17.9-18.4-37.8-21.1-58.7c2.7,20.9,9.9,40.9,21.1,58.8l3.3,5.6l0-0.1
	L122.5,331.4z M247.6,399.6c-26.7,0-52.3-6.8-74.7-20.1l-5.6-3.4l-55.8,15.6l0,0.2l55.8-15.6l5.6,3.4c22.4,13.4,48,20.1,74.7,20.1
	c75.3,0,137.2-56.2,146.1-129.1C384.7,343.4,322.8,399.6,247.6,399.6z M122.5,331.4c-11.2-17.9-18.4-37.8-21.1-58.7
	c2.7,20.9,9.9,40.9,21.1,58.8l3.3,5.6l0-0.1L122.5,331.4z"/>
</svg>
