<?xml version="1.0" encoding="utf-8"?>
<!-- Generator: Adobe Illustrator 16.0.0, SVG Export Plug-In . SVG Version: 6.00 Build 0)  -->
<!DOCTYPE svg PUBLIC "-//W3C//DTD SVG 1.1 Tiny//EN" "http://www.w3.org/Graphics/SVG/1.1/DTD/svg11-tiny.dtd">
<svg version="1.1" baseProfile="tiny" id="Layer_1" xmlns="http://www.w3.org/2000/svg" xmlns:xlink="http://www.w3.org/1999/xlink"
	 x="0px" y="0px" width="512px" height="512px" viewBox="0 0 512 512" xml:space="preserve">
<path fill="#010101" d="M257.928,303.872c-19.968,41.216-47.296,97.024-60.864,122.197c-13.142,22.912-24.043,19.861-32.683,0.618
	C134.387,355.84,72.797,231.616,43.827,161.963c-5.355-12.822-9.408-21.056-13.206-24.299c-3.861-3.2-11.819-5.12-23.936-5.781
	c-4.48-0.512-6.677-1.6-6.677-3.392v-9.707l1.109-0.96c19.712-0.107,115.221,0,115.221,0l1.088,0.96v9.258
	c0,2.539-1.6,3.755-4.8,3.755l-12.032,0.661c-10.347,0.619-15.51,3.499-15.51,9.301c0,2.88,1.131,7.04,3.542,12.821
	c23.083,56.448,102.784,224.448,102.784,224.448l2.901,0.981l51.435-102.613l-10.283-22.763l-35.371-69.632
	c0,0-6.784-13.952-9.131-18.603c-15.531-30.784-15.189-32.384-30.869-34.496c-4.416-0.491-6.677-1.066-6.677-3.178v-9.984l1.28-0.96
	h91.563l2.411,0.79v9.621c0,2.24-1.621,3.2-4.842,3.2l-6.571,1.002c-16.896,1.301-14.102,8.128-2.901,30.336l33.749,69.376
	l37.504-74.752c6.251-13.653,4.971-17.088,2.368-20.203c-1.493-1.792-6.507-4.693-17.322-5.12l-4.288-0.448
	c-1.109,0-2.091-0.32-3.094-1.088c-0.959-0.662-1.43-1.622-1.43-2.752v-9.109l1.302-0.96c26.603-0.171,86.251,0,86.251,0l1.259,0.96
	v9.301c0,2.582-1.259,3.797-4.117,3.797c-13.781,0.64-16.683,2.026-21.824,9.365c-2.561,3.968-8,12.565-13.781,22.166
	l-49.089,91.158l-1.387,2.879l59.563,121.856l3.627,1.024l93.781-222.678c3.285-9.002,2.752-15.402-1.365-19.093
	c-4.203-3.669-7.382-5.824-18.283-6.293l-8.96-0.341c-1.302,0-2.24-0.298-3.242-0.96c-0.918-0.619-1.536-1.6-1.536-2.539v-9.301
	l1.259-0.96h105.834l0.875,0.96v9.323c0,2.539-1.579,3.84-4.459,3.84c-13.824,0.64-24.042,3.84-30.784,8.981
	c-6.698,5.44-11.882,13.141-15.701,22.763c0,0-86.25,197.504-115.755,263.231c-11.199,21.483-22.464,19.563-32.063-0.661
	c-12.182-24.98-37.824-80.768-56.448-121.813L257.928,303.872L257.928,303.872z"/>
</svg>
