<?xml version="1.0" encoding="utf-8"?>
<!-- Generator: Adobe Illustrator 21.1.0, SVG Export Plug-In . SVG Version: 6.00 Build 0)  -->
<svg version="1.1" id="Layer_1" xmlns="http://www.w3.org/2000/svg" xmlns:xlink="http://www.w3.org/1999/xlink" x="0px" y="0px"
	 viewBox="0 0 512 512" style="enable-background:new 0 0 512 512;" xml:space="preserve">
<g>
	<path d="M491.7,156.6C478.2,125,460,97.7,437.1,74.9c-22.9-22.9-50.1-41-81.7-54.6C323.8,6.8,290.7,0,256,0s-67.8,6.8-99.4,20.3
		S97.7,52,74.9,74.9C52,97.7,33.8,125,20.3,156.6S0,221.3,0,256s6.8,67.8,20.3,99.4s31.7,58.9,54.6,81.7
		c22.9,22.9,50.1,41,81.7,54.6c31.6,13.5,64.8,20.3,99.4,20.3c34.7,0,67.8-6.8,99.4-20.3s58.9-31.7,81.7-54.6
		c22.9-22.9,41-50.1,54.6-81.7c13.5-31.6,20.3-64.8,20.3-99.4C512,221.3,505.2,188.2,491.7,156.6z M480.9,350.7
		c-13,30.2-30.3,56.2-52.1,78c-21.8,21.8-47.8,39.2-78,52.1c-30.2,13-61.8,19.4-94.7,19.4c-33,0-64.5-6.5-94.7-19.4
		c-30.2-13-56.2-30.3-78-52.1c-21.8-21.8-39.2-47.8-52.1-78c-13-30.2-19.4-61.8-19.4-94.7c0-33,6.5-64.5,19.4-94.7
		c13-30.2,30.3-56.2,52.1-78s47.8-39.2,78-52.1c30.1-13,61.6-19.5,94.6-19.5s64.5,6.5,94.7,19.4c30.2,13,56.2,30.3,78,52.1
		s39.2,47.8,52.1,78s19.4,61.8,19.4,94.7C500.3,289,493.8,320.5,480.9,350.7z"/>
	<path d="M36.3,256c0,42.9,11.3,82,34,117.4s52.7,62.2,90,80.3L55.4,166.6C42.7,195.1,36.3,225,36.3,256z"/>
	<path d="M450.3,173.1c0,20.4-5.6,46.7-16.9,78.9l-67.1,193.7c33.3-19.4,59.9-45.9,79.7-79.6c19.8-33.6,29.7-70.3,29.7-110.1
		c0-37.1-9-72.3-27.1-105.4C449.7,157.6,450.3,165.1,450.3,173.1z"/>
	<path d="M259.7,275.1L194,466.6c41.7,13.5,95.7,11.1,134.9-3.5C328.5,462.1,259.7,275.1,259.7,275.1z"/>
	<path d="M400.7,269.9c2.6-10.1,3.6-21.5,3.6-25.1c0-56.9-39.7-75.6-39.7-112.1c0-19.9,13.8-38.9,36.9-38.9h2.9
		C384.4,75.5,335,36.3,256,36.3c-86.3,0-148.4,48.4-183.4,99.1c6.1,1.1,72.6-2.7,72.6-2.7c11.2-1.3,14.1,16.8,1.4,18.1
		c-8,1-16.4,1.7-25.1,2.3l80,237.7l48-144l-34.3-93.7l-22.9-2.3c-13-1.2-9.8-19.5,1.4-18c24.2,1.7,43.4,2.7,57.7,2.9l58.6-2.9
		c11.6-1.1,13.4,16.8,1.4,18.1c-8,1-16.4,1.7-25.1,2.3l79.4,236C365.7,389.2,399.2,275.6,400.7,269.9z"/>
</g>
</svg>
