<?xml version="1.0" encoding="utf-8"?>
<!-- Generator: Adobe Illustrator 21.1.0, SVG Export Plug-In . SVG Version: 6.00 Build 0)  -->
<svg version="1.1" xmlns="http://www.w3.org/2000/svg" xmlns:xlink="http://www.w3.org/1999/xlink" x="0px" y="0px"
	 viewBox="0 0 512 512" style="enable-background:new 0 0 512 512;" xml:space="preserve">
<path d="M256,0C115.2,0,0,115.2,0,256s115.2,256,256,256s256-115.2,256-256S396.8,0,256,0z M256,384c-70.4,0-128-57.6-128-128
	s57.6-128,128-128s128,57.6,128,128S326.4,384,256,384z"/>
<path d="M334.4,249.6c0-14.4-4.8-24-9.6-32c-6.4-9.6-11.2-17.6-11.2-27.2c0-11.2,8-20.8,19.2-20.8h1.6c-20.8-19.2-48-30.4-78.4-30.4
	c-40,0-75.2,20.8-96,51.2c3.2,0,4.8,0,8,0c12.8,0,30.4-1.6,30.4-1.6c6.4,0,6.4,8,0,9.6c0,0-6.4,0-12.8,1.6l41.6,124.8l25.6-75.2
	L235.2,200c-6.4,0-12.8-1.6-12.8-1.6c-6.4,0-4.8-9.6,0-9.6c0,0,19.2,1.6,30.4,1.6c12.8,0,30.4-1.6,30.4-1.6c6.4,0,6.4,8,0,9.6
	c0,0-6.4,0-12.8,1.6L312,323.2l11.2-38.4C329.6,272,334.4,260.8,334.4,249.6z"/>
<path d="M140.8,256c0,44.8,27.2,84.8,65.6,104L152,209.6C144,224,140.8,240,140.8,256z"/>
<path d="M257.6,265.6L224,366.4c9.6,3.2,20.8,4.8,32,4.8c12.8,0,25.6-1.6,38.4-6.4c0,0,0-1.6-1.6-1.6L257.6,265.6z"/>
<path d="M313.6,355.2c33.6-19.2,57.6-57.6,57.6-99.2c0-20.8-4.8-38.4-14.4-56c0,3.2,0,8,0,11.2c0,11.2-1.6,25.6-8,41.6L313.6,355.2z
	"/>
</svg>
