<?xml version="1.0" encoding="utf-8"?>
<!-- Generator: Adobe Illustrator 21.1.0, SVG Export Plug-In . SVG Version: 6.00 Build 0)  -->
<svg version="1.1" id="Layer_1" xmlns="http://www.w3.org/2000/svg" xmlns:xlink="http://www.w3.org/1999/xlink" x="0px" y="0px"
	 viewBox="0 0 512 512" style="enable-background:new 0 0 512 512;" xml:space="preserve">
<path d="M256,0C114.6,0,0,114.6,0,256s114.6,256,256,256s256-114.6,256-256S397.4,0,256,0z M256,26c59.7,0,114.1,22.8,155,60.1
	c-22.9,1.3-41,20.2-41,43.4c0,10,3.4,19.2,9,26.5l0,0c0,0,45,57,28.4,119c-6.8,25.4-22.6,76-36.5,119.7L288.3,148
	c13.5-1,25.2-2,25.2-2c5.2,0,9.5-4.3,9.5-9.5s-4.3-9.5-9.5-9.5c0,0-46.1,2-61.5,2s-61.5-2-61.5-2c-5.2,0-9.5,4.3-9.5,9.5
	s4.3,9.5,9.5,9.5c0,0,10.4,0.9,22.9,1.8l35.5,97.5l-50.7,150.5l-82.7-247.4c12.4-1.1,25-2.5,25-2.5c5.2,0,9.5-4.3,9.5-9.5
	s-4.3-9.5-9.5-9.5c0,0-34.1,1.7-45.5,2c-6.4,0.1-20.1,0.1-30.8,0.1C105.4,67,175.9,26,256,26z M26,256c0-33.3,7.1-64.9,19.8-93.4
	l109.3,300.1C78.6,425.3,26,346.8,26,256z M191.7,476.9l68-201.9l72.2,198.2c-23.8,8.3-49.3,12.8-75.9,12.8
	C233.7,486,212.1,482.8,191.7,476.9z M372.9,454.1c18.5-53.4,60.9-176.2,77.1-224.6c8.1-24.2,9.6-58.4,9.5-80.6
	c16.9,32,26.4,68.4,26.4,107.1C486,340.3,440.6,414,372.9,454.1z"/>
</svg>
