<?xml version="1.0" encoding="utf-8"?>
<!-- Generator: Adobe Illustrator 21.1.0, SVG Export Plug-In . SVG Version: 6.00 Build 0)  -->
<svg version="1.1" id="Layer_1" xmlns="http://www.w3.org/2000/svg" xmlns:xlink="http://www.w3.org/1999/xlink" x="0px" y="0px"
	 viewBox="0 0 574.5 512" style="enable-background:new 0 0 574.5 512;" xml:space="preserve">
<path d="M555.4,193.2c-26.4-42.5-52-85.3-76.9-128.6C453.7,21.2,415.7,0,364.5,0.9S262,1.8,210.8,0.9C159.5,0,121.5,21.2,96.6,64.5
	c-24.8,43.3-50.5,86.2-76.8,128.6c-26.4,42.5-26.4,84.9,0,127.3c26.4,42.5,52,85.3,76.8,128.6s62.9,64.5,114.1,63.7
	s102.5-0.8,153.7,0c51.2,0.9,89.3-20.4,114.1-63.7s50.5-86.2,76.9-128.6C581.8,278.1,581.8,235.6,555.4,193.2z M397.2,371.3
	c0,1.9-1.6,3.4-3.5,3.4h-41.5c-1.9,0-3.5-1.5-3.5-3.4L287.5,260l-61.2,111.3c0,1.9-1.5,3.4-3.5,3.4h-41.5c-1.9,0-3.5-1.5-3.5-3.4
	L240,258.5l-62-112.8c0-1.9,1.5-3.4,3.5-3.4H223c1.9,0,3.5,1.5,3.5,3.4l61.2,110.7l61.2-110.7c0-1.9,1.5-3.4,3.5-3.4h41.5
	c1.9,0,3.5,1.5,3.5,3.4L335,258.5L397.2,371.3z"/>
</svg>
