<?xml version="1.0" encoding="utf-8"?>
<!-- Generator: Adobe Illustrator 21.1.0, SVG Export Plug-In . SVG Version: 6.00 Build 0)  -->
<svg version="1.1" id="Layer_1" xmlns="http://www.w3.org/2000/svg" xmlns:xlink="http://www.w3.org/1999/xlink" x="0px" y="0px"
	 viewBox="0 0 512 512" style="enable-background:new 0 0 512 512;" xml:space="preserve">
<path d="M441,0H71C31.8,0,0,31.8,0,71v370c0,39.2,31.8,71,71,71h370c39.2,0,71-31.8,71-71V71C512,31.8,480.2,0,441,0z M412.9,163.5
	l-38.7,12.9c-5.8,2.5-21.3,20.7-48.5,55.6c-28.7,36.2-43.6,59.4-46.1,71l0.9,100.8l51,1.3l-0.9,27.1L173.8,431l2.5-23.2l23.9-1.3
	c12.3-1.3,19.7-3.9,22.2-7.8c1.6-2.5,1.6-95.7,1.6-95.7c-1.6-7.8-83.8-165.4-92-175.9L84.3,117V94.9c2.5-2.5,138.8-2.5,161,0
	l-1.6,18.2l-50.1,7.8c15.6,36.2,39.4,86.6,71.4,150c41.9-50.5,64.1-82.7,64.9-96.9l-42.7-10.4l-3.3-23.2l138.8,1.3L412.9,163.5z"/>
</svg>
