<?xml version="1.0" encoding="utf-8"?>
<!-- Generator: Adobe Illustrator 21.1.0, SVG Export Plug-In . SVG Version: 6.00 Build 0)  -->
<svg version="1.1" id="social-rss-circle.svg" xmlns="http://www.w3.org/2000/svg" xmlns:xlink="http://www.w3.org/1999/xlink"
	 x="0px" y="0px" viewBox="0 0 512 512" style="enable-background:new 0 0 512 512;" xml:space="preserve">
<path d="M499.4,106.7l-58.5,19.6c-8.7,3.9-32.4,31.3-73.4,84.2c-43.6,54.8-66,90-69.7,107.7l1.3,152.7l77.1,2l-1.2,39.2L137.3,512
	l3.7-35.2l36.1-2c18.7-1.9,29.9-5.9,33.6-11.7c2.5-3.8,2.5-144.8,2.5-144.8C210.7,306.4,86.2,67.6,73.8,51.9L1.6,36.2V2.9
	C5.4-1,211.9-1,245.5,2.9L243,30.4l-75.9,11.8c23.6,54.8,59.7,131.1,108.2,227.1c63.5-76.4,97.1-125.3,98.3-146.8L309,106.7l-5-35.3
	l208.3,2L499.4,106.7z"/>
</svg>
