<?xml version="1.0" encoding="utf-8"?>
<!-- Generator: Adobe Illustrator 21.1.0, SVG Export Plug-In . SVG Version: 6.00 Build 0)  -->
<svg version="1.1" id="social-rss-circle.svg" xmlns="http://www.w3.org/2000/svg" xmlns:xlink="http://www.w3.org/1999/xlink"
	 x="0px" y="0px" viewBox="0 0 512 512" style="enable-background:new 0 0 512 512;" xml:space="preserve">
<path d="M256,0C115.2,0,0,115.2,0,256s115.2,256,256,256s256-115.2,256-256S396.8,0,256,0z M378.6,183.7L347.8,194
	c-4.6,2-17,16.5-38.6,44.3c-22.9,28.8-34.7,47.3-36.7,56.6l0.7,80.3l40.6,1l-0.7,21.6l-125-1l2-18.5l19-1.1c9.8-1,15.7-3.1,17.7-6.2
	c1.3-2,1.3-76.2,1.3-76.2c-1.3-6.2-66.8-131.8-73.3-140.1l-38-8.2V129c2-2,110.6-2,128.3,0l-1.3,14.5l-39.9,6.2
	c12.4,28.8,31.4,69,56.9,119.5c33.4-40.2,51.1-65.9,51.7-77.2l-34-8.3l-2.6-18.5l110.6,1L378.6,183.7z"/>
</svg>
