<?xml version="1.0" encoding="utf-8"?>
<!-- Generator: Adobe Illustrator 21.1.0, SVG Export Plug-In . SVG Version: 6.00 Build 0)  -->
<svg version="1.1" xmlns="http://www.w3.org/2000/svg" xmlns:xlink="http://www.w3.org/1999/xlink" x="0px" y="0px"
	 viewBox="0 0 381.4 512" style="enable-background:new 0 0 381.4 512;" xml:space="preserve">
<g>
	<path d="M135.3,321.8c8-1.6,14.4-9.6,14.4-20.7c0-9.6-4.8-19.1-12.8-22.3l-23.9-9.6C33.1,235.6,28.4,234,25.2,234
		c-6.4,1.6-12.8,4.8-16,11.2c-8,12.8-11.2,55.9-8,83c1.6,9.6,3.2,17.6,4.8,20.7c3.2,6.4,8,9.6,14.4,9.6c3.2,0,6.4,0,81.4-25.5
		L135.3,321.8z"/>
	<path d="M176.8,353.7c-9.6-3.2-19.1-1.6-25.5,6.4l-16,20.7c-55.9,67-59,70.2-60.6,75c-1.6,1.6-1.6,4.8-1.6,8
		c0,3.2,1.6,6.4,4.8,11.2c12.8,16,76.6,39.9,95.7,36.7c8-3.2,12.8-8,16-12.8c1.6-3.2,1.6-6.4,1.6-87.8c0,0,0-35.1,0-36.7
		C191.1,366.5,186.3,358.5,176.8,353.7z"/>
	<path d="M374.6,371.3c-3.2-3.2-6.4-3.2-79.8-28.7l-33.5-11.2c-8-3.2-17.6,0-22.3,8c-6.4,8-8,17.6-1.6,25.5l12.8,22.3
		c44.7,73.4,47.9,79.8,51.1,81.4c1.6,3.2,8,4.8,16,1.6c19.1-8,60.6-60.6,63.8-81.4C382.6,380.9,379.4,376.1,374.6,371.3z"/>
	<path d="M253.4,285.1c3.2,0,11.2-1.6,23.9-4.8c84.6-20.7,87.8-22.3,91-23.9c4.8-3.2,8-9.6,8-16c-1.6-20.7-38.3-76.6-57.4-86.2
		c-6.4-3.2-12.8-3.2-17.6,0c-3.2,1.6-6.4,4.8-51.1,68.6l-20.7,28.7c-4.8,6.4-4.8,16,0,23.9C234.2,283.5,243.8,288.3,253.4,285.1z"/>
	<path d="M165.6,1.1C143.2-5.3,60.3,18.6,45.9,34.6c-4.8,4.8-6.4,12.8-6.4,17.6c3.2,4.8,105.3,170.7,105.3,170.7
		c16,25.5,27.1,20.7,31.9,20.7c4.8-1.6,17.6-6.4,16-35.1c-1.6-35.1-11.2-188.3-12.8-194.7C178.4,7.4,173.6,2.7,165.6,1.1z"/>
</g>
</svg>
