<?xml version="1.0" encoding="utf-8"?>
<!-- Generator: Adobe Illustrator 21.1.0, SVG Export Plug-In . SVG Version: 6.00 Build 0)  -->
<svg version="1.1" id="social-rss-circle.svg" xmlns="http://www.w3.org/2000/svg" xmlns:xlink="http://www.w3.org/1999/xlink"
	 x="0px" y="0px" viewBox="0 0 512 512" style="enable-background:new 0 0 512 512;" xml:space="preserve">
<path d="M256,0C115.2,0,0,115.2,0,256s115.2,256,256,256s256-115.2,256-256S396.8,0,256,0z M132.8,319.2c-2.1-2.1-2.1-8.5-4.3-14.8
	c-2.1-19.1,0-46.7,6.4-55.2c2.1-4.2,6.4-6.4,10.6-6.4c2.1,0,4.3,0,59.4,23.3l14.9,6.4c6.4,2.1,8.5,8.5,8.5,14.9
	c0,6.4-4.3,12.7-10.6,12.7l-21.2,6.4c-48.8,17-50.9,17-55.2,17C139.2,325.5,134.9,323.4,132.8,319.2z M255.9,338.3v21.2
	c0,53.1,0,55.2-2.1,57.3c-2.1,4.2-4.3,6.4-8.5,8.5c-12.7,2.1-55.2-12.7-63.7-23.3c-2.1-2.1-2.1-4.3-2.1-6.4s0-4.2,0-4.2
	c0-2.1,2.1-4.3,40.3-48.8l10.6-12.7c4.2-4.3,10.6-6.4,17-4.3C253.8,327.7,258,334,255.9,338.3z M247.4,247
	c-2.1,0-10.6,4.2-21.2-12.7c0,0-67.9-110.4-70-112.5c0-4.3,0-8.5,4.3-10.6C171,98.4,226.2,83.6,241,85.7c4.3,2.1,8.5,4.3,8.5,8.5
	c0,4.3,8.5,106.1,8.5,129.5C258,244.9,249.5,247,247.4,247z M340.8,399.8c-4.3,2.1-8.5,2.1-12.7-2.1c-2.1-2.1-4.2-4.2-34-55.2
	l-8.5-14.9c-4.2-4.2-2.1-12.7,2.1-17c4.3-4.2,10.6-6.4,14.9-4.2l21.2,8.5c48.8,17,50.9,17,53.1,19.1c4.2,2.1,4.2,6.4,4.2,10.6
	C381.1,357.4,353.5,393.5,340.8,399.8z M381.9,251c-0.8,1.9-1.9,3.5-2.9,4.5c-2.1,2.1-4.2,2.1-61.5,17c-12.7,2.1-17,4.2-19.1,4.2
	c-1.2,0.4-2.4,0.5-3.4,0.5c-5,0-9.7-3.4-11.4-6.9c-4.3-6.4-4.3-12.7,0-17l14.9-19.1c29.7-42.5,31.8-44.6,34-46.7
	c4.2-2.1,8.5-2.1,12.7,0c12.7,6.4,36.1,42.5,38.2,57.3C383.2,247,382.7,249.1,381.9,251z"/>
</svg>
