<?xml version="1.0" encoding="utf-8"?>
<!-- Generator: Adobe Illustrator 21.1.0, SVG Export Plug-In . SVG Version: 6.00 Build 0)  -->
<svg version="1.1" id="Layer_1" xmlns="http://www.w3.org/2000/svg" xmlns:xlink="http://www.w3.org/1999/xlink" x="0px" y="0px"
	 viewBox="0 0 426.7 512" style="enable-background:new 0 0 426.7 512;" xml:space="preserve">
<path d="M56.6,0h30.7l21.1,79l19.5-79h31l-35.5,117.4v80.2H92.9v-80.2L56.6,0z M197.3,50.6c-23.9,0-39.7,15.8-39.7,39.1v71.4
	c0,25.7,13.4,39.1,39.7,39.1c21.8,0,39-14.6,39-39.1V89.8C236.2,67,219.2,50.6,197.3,50.6z M208.6,160c0,7.9-4.1,13.8-11.3,13.8
	c-7.5,0-11.8-6.1-11.8-13.8V92.2c0-8,3.7-13.9,11.3-13.9c8.3,0,11.9,5.7,11.9,13.9C208.6,92.2,208.6,160,208.6,160z M309.5,51.8
	v110.6c-3.3,4.1-10.7,10.9-15.9,10.9c-5.8,0-7.2-4-7.2-9.8V51.8h-27.1v121.8c0,14.4,4.4,26,18.9,26c8.2,0,19.6-4.3,31.3-18.2v16.1
	h27.1V51.8H309.5z M356.5,347.5c-9.6,0-11.5,6.7-11.5,16.3v14.1h22.8v-14.1C367.7,354.4,365.8,347.5,356.5,347.5z M256.1,348.3
	c-1.8,0.9-3.6,2.3-5.3,4.2v86.5c2.1,2.3,4.1,3.9,6.1,4.9c4.2,2.1,10.3,2.3,13.2-1.4c1.5-2,2.2-5.1,2.2-9.6v-71.7
	c0-4.7-0.9-8.2-2.8-10.7C266.5,346.5,260.7,346.1,256.1,348.3z M359.1,237.5c-55.6-3.8-236.1-3.8-291.5,0
	C7.5,241.6,0.4,277.9,0,373.3c0.4,95.3,7.5,131.7,67.6,135.8c55.5,3.8,236,3.8,291.5,0c60-4.1,67.1-40.4,67.6-135.8
	C426.2,278,419.2,241.6,359.1,237.5z M96.2,465.5H67.1V304.6H37v-27.3h89.2v27.3H96.2L96.2,465.5L96.2,465.5z M199.6,465.5h-25.8
	v-15.3c-4.8,5.7-9.7,10-14.8,12.9c-13.9,8-33,7.8-33-20.4v-116h25.8v106.4c0,5.6,1.3,9.3,6.9,9.3c5,0,12-6.5,15.2-10.4V326.7h25.8
	L199.6,465.5L199.6,465.5z M298.9,436.7c0,17.2-6.4,30.5-23.6,30.5c-9.5,0-17.3-3.5-24.5-12.4v10.7h-26V277.3h26v60.6
	c5.8-7.1,13.7-13,23-13c18.9,0,25.2,16,25.2,34.8L298.9,436.7L298.9,436.7z M394.3,399.3h-49.4v26.2c0,10.4,0.9,19.4,11.3,19.4
	c10.9,0,11.5-7.3,11.5-19.4v-9.6h26.6v10.4c0,26.7-11.5,42.9-38.7,42.9c-24.6,0-37.2-18-37.2-42.9V364c0-24.1,15.9-40.8,39.2-40.8
	c24.8,0,36.7,15.7,36.7,40.8L394.3,399.3L394.3,399.3z"/>
</svg>
