<?xml version="1.0" encoding="utf-8"?>
<!-- Generator: Adobe Illustrator 21.1.0, SVG Export Plug-In . SVG Version: 6.00 Build 0)  -->
<svg version="1.1" id="Layer_1" xmlns="http://www.w3.org/2000/svg" xmlns:xlink="http://www.w3.org/1999/xlink" x="0px" y="0px"
	 viewBox="0 0 512 512" style="enable-background:new 0 0 512 512;" xml:space="preserve">
<path d="M441,0H71C31.8,0,0,31.8,0,71v370c0,39.2,31.8,71,71,71h370c39.2,0,71-31.8,71-71V71C512,31.8,480.2,0,441,0z M426,285.8
	c0,28.6-3.3,57.2-3.3,57.2s-3.3,24.2-14.3,35.2c-13.2,14.3-28.6,14.3-35.2,15.4c-49.5,3.3-123.2,3.3-123.2,3.3s-91.3-1.1-119.9-3.3
	c-7.8-2.2-25.3-1.1-38.5-15.4c-11-11-14.3-35.2-14.3-35.2S74,314.4,74,285.8v-47.3c0-28.6,3.3-57.2,3.3-57.2s3.3-24.2,14.3-35.1
	c13.2-14.3,28.6-14.3,35.2-15.4c24.8-1.7,55.6-2.5,80.2-2.9c24.6-0.4,43-0.4,43-0.4s73.7,0,123.2,3.3c6.6,1.1,22,1.1,35.2,15.4
	c11,11,14.3,35.2,14.3,35.2s3.3,28.6,3.4,57.2V285.8z M213.7,308.3l94.6-49.5l-94.6-49.5V308.3z"/>
</svg>
