<?xml version="1.0" encoding="utf-8"?>
<!-- Generator: Adobe Illustrator 21.1.0, SVG Export Plug-In . SVG Version: 6.00 Build 0)  -->
<svg version="1.1" xmlns="http://www.w3.org/2000/svg" xmlns:xlink="http://www.w3.org/1999/xlink" x="0px" y="0px"
	 viewBox="0 0 512 512" style="enable-background:new 0 0 512 512;" xml:space="preserve">
<path d="M256,0C115.2,0,0,115.2,0,256s115.2,256,256,256s256-115.2,256-256S396.8,0,256,0z M384,265.6c0,20.8-3.2,41.6-3.2,41.6
	s-3.2,17.6-9.6,25.6c-9.6,9.6-20.8,9.6-25.6,11.2c-35.2,3.2-89.6,3.2-89.6,3.2s-67.2,0-86.4-3.2c-6.4-1.6-19.2,0-28.8-11.2
	c-8-8-9.6-25.6-9.6-25.6s-3.2-20.8-3.2-41.6v-19.2c0-20.8,3.2-41.6,3.2-41.6s3.2-17.6,9.6-25.6c9.6-9.6,20.8-9.6,25.6-11.2
	c35.2-3.2,89.6-3.2,89.6-3.2l0,0c0,0,54.4,0,89.6,3.2c4.8,0,16,0,25.6,11.2c8,8,9.6,25.6,9.6,25.6s3.2,20.8,3.2,41.6
	C384,246.4,384,265.6,384,265.6z"/>
<polygon points="228.8,289.6 299.2,252.8 228.8,217.6 "/>
</svg>
