<?xml version="1.0" encoding="utf-8"?>
<!-- Generator: Adobe Illustrator 21.1.0, SVG Export Plug-In . SVG Version: 6.00 Build 0)  -->
<svg version="1.1" id="Layer_1" xmlns="http://www.w3.org/2000/svg" xmlns:xlink="http://www.w3.org/1999/xlink" x="0px" y="0px"
	 viewBox="0 0 588 512" style="enable-background:new 0 0 588 512;" xml:space="preserve">
<path d="M581.6,102.8c0,0-6.3-45.9-27.1-66.8c-25-27.1-54.3-27.1-66.8-29.2C393.8,0.6,294,0.6,294,0.6l0,0c0,0-99.8,0-193.8,6.3
	c-12.5,2-41.8,2-66.8,29.2C12.5,56.9,6.3,102.8,6.3,102.8S0,157.1,0,211.4v89.8c0,54.3,6.3,108.5,6.3,108.5s6.3,45.9,27.1,66.8
	c25,27.1,58.4,25,73.1,29.2C160.7,509.9,294,512,294,512s99.8,0,193.8-6.3c12.5-2.1,41.7-2.1,66.8-29.2
	c20.9-20.9,27.1-66.8,27.1-66.8s6.3-54.3,6.3-108.5v-89.8C587.9,157.1,581.6,102.8,581.6,102.8z M225.1,343.9V156.1L404.6,250
	L225.1,343.9z"/>
</svg>
