<?xml version="1.0" encoding="utf-8"?>
<!-- Generator: Adobe Illustrator 21.1.0, SVG Export Plug-In . SVG Version: 6.00 Build 0)  -->
<svg version="1.1" id="Layer_1" xmlns="http://www.w3.org/2000/svg" xmlns:xlink="http://www.w3.org/1999/xlink" x="0px" y="0px"
	 viewBox="0 0 374 37" style="enable-background:new 0 0 374 37;" xml:space="preserve">
<style type="text/css">
	.st0{fill:#1BC1A1;}
	.st1{fill:#09091A;}
</style>
<polygon class="st0" points="35.8,13.8 26.9,13.8 13.8,35.8 1,35.8 23,1 35.8,1 "/>
<polygon class="st1" points="28.5,23 37.3,23 50.5,1 63.3,1 41.3,35.8 28.5,35.8 "/>
<g>
	<g>
		<path class="st1" d="M305.6,25.2L287.5,1h-5.6v33.6h6.7V12.3l16.8,22.4h5.6V1h-5.6L305.6,25.2z M316.6,34.7h21.3v-5.6h-14.6v-9
			h13.5v-5.6h-13.5V6.7h14.6V1h-21.3V34.7z M368.5,6.2c-3.1-3.5-6.9-5.2-11.5-5.2c-4.5,0-8.4,1.7-11.4,5.2c-3,3.3-4.5,7.3-4.5,11.9
			c0,4.7,1.5,8.6,4.4,12c3.1,3.4,6.9,5.2,11.5,5.2c4.6,0,8.4-1.7,11.5-5.2c3-3.3,4.4-7.3,4.4-11.9C373,13.5,371.5,9.5,368.5,6.2z
			 M364.5,26.1c-2,2.4-4.5,3.6-7.5,3.6c-3,0-5.4-1.2-7.4-3.6c-1.9-2.3-2.8-4.9-2.8-8c0-3.1,0.9-5.7,2.8-8c2-2.4,4.5-3.6,7.4-3.6
			c3,0,5.5,1.2,7.5,3.6c1.9,2.3,2.8,4.9,2.8,8C367.4,21.1,366.4,23.8,364.5,26.1z"/>
	</g>
</g>
<g>
	<g>
		<path class="st0" d="M119.5,25.8c-0.1,0-11-24.7-11-24.7h-5.6v33.6h5.6V15.6l8.7,18.9l4.1,0.1l8.5-19l-1.1,19.1h6.7V1h-5.6
			C129.8,1,119.6,25.8,119.5,25.8z M151.1,1l-13.5,33.6h6.7l2.8-7.3h12.6l2.6,7.3h6.7L156.7,1H151.1z M148.6,21.3
			c0,0,1.6-4.7,4.8-12.9c0.6,1.1,5,12.9,5,12.9L148.6,21.3z M170.2,6.7h14.6l-14.6,22.4v5.6h22.4v-5.6H178l14.6-23.5V1h-22.4V6.7z
			 M196,34.7h6.7V1H196V34.7z M230.7,25.7L212.8,1h-5.6v33.6h5.6V11.1l17.9,23.5h5.6V1h-5.6V25.7z M264.3,19v7.8
			c0,0-0.1,0.7-0.1,0.7c-2.4,1.6-5,2.3-7.8,2.3c-2.9,0-5.3-1.2-7.2-3.7c-1.8-2.3-2.6-4.9-2.6-7.9c0-3,0.9-5.7,2.6-7.9
			c1.9-2.5,4.3-3.7,7.2-3.7c1.5,0,3,0.5,4.4,1.4c0.9,0.6,1.9,1.5,2.8,2.6c0.8,0.9,1.4,1.4,1.4,1.4l3.6-4c0,0-0.1-0.4-0.3-0.7
			c-1.3-2-3.1-3.5-5.3-4.6c-2.2-1.1-4.5-1.7-6.9-1.7c-4.7,0-8.5,1.7-11.4,5.1c-2.8,3.2-4.1,7.2-4.1,12c0,4.7,1.4,8.6,4.2,11.8
			c3,3.4,6.7,5.1,11.3,5.1c3.9,0,7.3-1,10.2-2.9c0.2,0.2,0.8,0.5,1.7,0.9c0.9,0.4,2,0.7,2,0.3V19H264.3z M82.1,1L68.7,34.7h6.7
			l2.8-7.3h12.6l2.6,7.3h6.7L87.7,1H82.1z M79.6,21.3c0,0,1.6-4.7,4.8-12.9c0.6,1.1,5,12.9,5,12.9L79.6,21.3z"/>
	</g>
</g>
</svg>
