<?xml version="1.0" encoding="utf-8"?>
<!-- Generator: Adobe Illustrator 21.1.0, SVG Export Plug-In . SVG Version: 6.00 Build 0)  -->
<svg version="1.1" id="Layer_3" xmlns="http://www.w3.org/2000/svg" xmlns:xlink="http://www.w3.org/1999/xlink" x="0px" y="0px"
	 viewBox="0 0 401.5 512" style="enable-background:new 0 0 401.5 512;" xml:space="preserve">
<g id="_x33_2">
	<path d="M390.3,452.6L390.3,452.6L390.3,452.6c0-0.1-0.1-0.1-0.1-0.1l-73.1-127c-2.6-5.3-8.1-9-14.4-9H188.3v-60.4h111.9v0
		c0.1,0,0.3,0,0.4,0c7.3,0,13.3-6,13.3-13.3s-6-13.3-13.3-13.3c-0.1,0-0.3,0-0.4,0v0H188.3V129.1c0-8.8-7.2-16-16-16
		c-8.8,0-16,7.2-16,16v203.3c0,8.8,7.2,16,16,16c0,0,0,0,0.1,0v0h120.9l68.9,119.3c0,0,0,0.1,0,0.1l0.2,0.3l0,0
		c2.8,4.8,7.9,8,13.8,8c8.8,0,16-7.2,16-16C392.2,457.4,391.5,454.8,390.3,452.6z"/>
	<path d="M169.2,479.7c-75.6,0-136.8-61.3-136.8-136.8c0-56,33.7-104.2,81.9-125.4v-34.6C47.8,205.7,0.1,268.7,0.1,342.9
		C0.1,436.3,75.8,512,169.2,512c53,0,100.4-24.4,131.4-62.6L283,418.9C258.4,455.6,216.6,479.7,169.2,479.7z"/>
	<circle cx="172.3" cy="37.6" r="37.6"/>
	<path d="M311.2,512.1l-55-0.1c0,0,7.5-3.2,23.7-10.9c13.5-6.4,31.4-21.2,31.4-21.2V512.1z"/>
</g>
</svg>
