<?xml version="1.0" encoding="utf-8"?>
<!-- Generator: Adobe Illustrator 21.1.0, SVG Export Plug-In . SVG Version: 6.00 Build 0)  -->
<svg version="1.1" id="Layer_1" xmlns="http://www.w3.org/2000/svg" xmlns:xlink="http://www.w3.org/1999/xlink" x="0px" y="0px"
	 viewBox="0 0 512 512" style="enable-background:new 0 0 512 512;" xml:space="preserve">
<style type="text/css">
	.st0{fill:#010101;}
</style>
<g>
	<path class="st0" d="M1.3,170v342h252.5V170H1.3z M43.4,487.3c-9.6,0-17.4-7.8-17.4-17.4s7.8-17.4,17.4-17.4
		c9.6,0,17.4,7.8,17.4,17.4S53,487.3,43.4,487.3z M43.4,424.5c-9.6,0-17.4-7.8-17.4-17.4s7.8-17.4,17.4-17.4
		c9.6,0,17.4,7.8,17.4,17.4S53,424.5,43.4,424.5z M43.4,361.7c-9.6,0-17.4-7.8-17.4-17.4S33.8,327,43.4,327
		c9.6,0,17.4,7.8,17.4,17.4S53,361.7,43.4,361.7z M59.4,307.6H28c-2.9,0-5.3-2.4-5.3-5.3s2.4-5.4,5.3-5.4h31.4
		c2.9,0,5.3,2.4,5.3,5.4S62.4,307.6,59.4,307.6z M99.5,487.3c-9.6,0-17.4-7.8-17.4-17.4s7.8-17.4,17.4-17.4s17.4,7.8,17.4,17.4
		S109.1,487.3,99.5,487.3z M99.5,424.5c-9.6,0-17.4-7.8-17.4-17.4s7.8-17.4,17.4-17.4s17.4,7.8,17.4,17.4S109.1,424.5,99.5,424.5z
		 M99.5,361.7c-9.6,0-17.4-7.8-17.4-17.4S89.9,327,99.5,327s17.4,7.8,17.4,17.4S109.1,361.7,99.5,361.7z M115.5,307.6H84.2
		c-2.9,0-5.3-2.4-5.3-5.3s2.4-5.4,5.3-5.4h31.4c2.9,0,5.3,2.4,5.3,5.4S118.5,307.6,115.5,307.6z M134.9,302.3c0-2.9,2.4-5.4,5.4-5.4
		h31.4c2.9,0,5.3,2.4,5.3,5.4s-2.4,5.3-5.3,5.3h-31.4C137.3,307.6,134.9,305.2,134.9,302.3z M155.6,361.7c-9.6,0-17.4-7.8-17.4-17.4
		S146,327,155.6,327s17.4,7.8,17.4,17.4S165.3,361.7,155.6,361.7z M173,407.1c0,9.6-7.8,17.4-17.4,17.4s-17.4-7.8-17.4-17.4
		s7.8-17.4,17.4-17.4S173,397.5,173,407.1z M211.4,488H156c-9.8,0-17.7-8-17.7-17.7s8-17.7,17.7-17.7h55.4c9.8,0,17.7,8,17.7,17.7
		S221.2,488,211.4,488z M211.7,424.5c-9.6,0-17.4-7.8-17.4-17.4s7.8-17.4,17.4-17.4s17.4,7.8,17.4,17.4S221.4,424.5,211.7,424.5z
		 M211.7,361.7c-9.6,0-17.4-7.8-17.4-17.4s7.8-17.4,17.4-17.4s17.4,7.8,17.4,17.4S221.4,361.7,211.7,361.7z M227.1,307.6h-31.4
		c-2.9,0-5.4-2.4-5.4-5.3s2.4-5.4,5.4-5.4h31.4c2.9,0,5.4,2.4,5.4,5.4S230,307.6,227.1,307.6z M233.1,280.9H22v-90.2h211.1V280.9z"
		/>
	<path d="M406.6,113c-14.2,0-25.8,11.5-25.8,25.8c0,3.8,0.8,7.3,2.3,10.5l-39.2,39.2c-3.2-1.5-6.8-2.3-10.5-2.3
		c-2,0-3.9,0.2-5.7,0.6l-43-70.1c3.2-4.3,5-9.6,5-15.3c0-14.2-11.5-25.8-25.8-25.8c-14.2,0-25.8,11.5-25.8,25.8
		c0,1.6,0.2,3.2,0.4,4.8l-43.9,43.9h25.1l28.3-28.3c4.4,3.4,9.8,5.4,15.8,5.4c2,0,4-0.2,5.9-0.7l42.9,69.9
		c-3.2,4.3-5.2,9.7-5.2,15.5c0,14.2,11.5,25.8,25.8,25.8c14.2,0,25.8-11.5,25.8-25.8c0-4-0.9-7.8-2.5-11.2l38.9-38.9
		c3.4,1.6,7.1,2.5,11.1,2.5c14.2,0,25.8-11.5,25.8-25.8C432.3,124.5,420.8,113,406.6,113z M263.9,110.6c-5,0-9-4-9-9c0-5,4-9,9-9
		c5,0,9,4,9,9C272.9,106.6,268.9,110.6,263.9,110.6z M333.3,221c-5,0-9-4-9-9c0-5,4-9,9-9c5,0,9,4,9,9
		C342.3,217,338.3,221,333.3,221z M406.2,147.7c-5,0-9-4-9-9c0-5,4-9,9-9c5,0,9,4,9,9C415.2,143.7,411.1,147.7,406.2,147.7z"/>
	<path class="st0" d="M512,329.4c0,4-1.6,7.5-4.2,10.1c-2.6,2.6-6.2,4.2-10.1,4.2h-12.3V341H339.8l84.3,154.1
		c3.2,5.9,1.1,13.3-4.8,16.5c-5.9,3.2-13.3,1.1-16.5-4.8L330.1,374v74.2c0,6.7-5.5,12.2-12.2,12.2c-6.7,0-12.2-5.4-12.2-12.2v-73
		L254.8,459l-0.2-46.6l43.4-71.3h-25.2v-32h174.7V53.9H174v96.3h-32V45h-4.8v2.8h-12.3c-7.9,0-14.4-6.4-14.4-14.4
		c0-4,1.6-7.5,4.2-10.2c2.6-2.6,6.2-4.2,10.1-4.2h12.3v2.8h168.6v-8.5c0-3.4,1.4-6.4,3.6-8.6c2.2-2.2,5.3-3.6,8.6-3.6
		c6.7,0,12.2,5.5,12.2,12.2v8.5h155.2v-2.8h12.3c7.9,0,14.3,6.4,14.3,14.4c0,4-1.6,7.5-4.2,10.1c-2.6,2.6-6.2,4.2-10.1,4.2h-12.3V45
		h-5.7v272.8h5.7v-2.8h12.3C505.6,315.1,512,321.5,512,329.4z"/>
</g>
</svg>
