<?xml version="1.0" encoding="utf-8"?>
<!-- Generator: Adobe Illustrator 21.1.0, SVG Export Plug-In . SVG Version: 6.00 Build 0)  -->
<svg version="1.1" id="Layer_1" xmlns="http://www.w3.org/2000/svg" xmlns:xlink="http://www.w3.org/1999/xlink" x="0px" y="0px"
	 viewBox="0 0 412.1 512" style="enable-background:new 0 0 412.1 512;" xml:space="preserve">
<g>
	<path d="M206.1,237.4c42.1,0,83.1,1.4,115.5,3.8c19.1,1.4,32.7,3.1,42.2,4.5c-3.9,38.1-16.1,90-37.8,135.4
		c-14.4,30-31.1,53.7-49.8,70.4c-20.1,18-41.6,27.2-65.6,28.3l-3.2,0.1c-0.4,0-0.7,0-0.9,0c-0.6,0-1.8,0-2.9-0.1l-2.2-0.1
		c-24-1.1-45.5-10.3-65.6-28.3c-18.7-16.7-35.5-40.4-49.8-70.4c-21.7-45.4-33.9-97.2-37.8-135.4c9.5-1.5,23.1-3.1,42.2-4.5
		C123,238.8,164,237.4,206.1,237.4 M206.1,205.4c-83.6,0-167.2,5.2-191.1,15.6c0,81.9,51,284.9,185.2,290.8c0,0,4.6,0.2,6.5,0.2
		c0.1,0,0.2,0,0.3,0c1.3,0,5.2-0.1,5.2-0.2c134.1-5.9,185.2-208.9,185.2-290.8C373.3,210.6,289.7,205.4,206.1,205.4L206.1,205.4z"/>
	<path d="M203.2,87.9l10.3,0.2c55.9,1.3,93.9,17.1,116,30.1c24.2,14.3,42.3,33.1,48.6,50.5c0.7,1.8,1.2,3.6,1.5,5.3
		c-61.6-9.2-172.7-9.5-187.4-9.5c-53,0-117.6,1.7-159.5,8.6c0.3-1.3,0.7-2.6,1.2-3.9c5.9-16.9,23.4-35.5,46.8-49.7
		c21.3-13,58.1-28.9,112.4-31.1L203.2,87.9 M215.3,0c-27.2,11.8-26.6,39.7-23.5,56.4C38.5,62.7-32.4,170.3,14.1,210.6
		c22.7-9.8,98.9-14.1,178.1-14.1c88.4,0,180.5,5.3,205.8,14.1c47.2-40.9-26.2-150.7-183.7-154.4c-3.1-13.4,13.7-26.9,24.8-34.3
		C226.8,16.5,215.3,0,215.3,0L215.3,0z"/>
</g>
</svg>
