<?xml version="1.0" encoding="utf-8"?>
<!-- Generator: Adobe Illustrator 21.1.0, SVG Export Plug-In . SVG Version: 6.00 Build 0)  -->
<svg version="1.1" id="Layer_1" xmlns="http://www.w3.org/2000/svg" xmlns:xlink="http://www.w3.org/1999/xlink" x="0px" y="0px"
	 viewBox="0 0 416 512" style="enable-background:new 0 0 416 512;" xml:space="preserve">
<path d="M160.9,15.5C160.9,15.5,160.9,15.5,160.9,15.5 M160.9,54.1c-0.1,18-0.1,39.1-0.2,54h0v0.7l-0.1,32.2l0.1,0V181v32v31v32v22
	v32v22v19l-1.3,5c-0.6,2.4-1.2,3.5-1.5,4l-37.7,26h-1l-8.1,5.5c-18,12.2-36.9,25-49.1,33.2V125.2L160.9,54.1 M184.5,0.3
	c-2.4,0-5.2,1.2-8.4,3.4L30,108.8V512c0,0,276.9,0,281.2,0c17.9,0,31.8-13.8,31.8-31c0-4.7,0-212,0-212s21,0,27,0c8.8,0,16-7,16-16
	c0-6.9-0.1-129,0-129c0-9.1-7.2-16-16-16l-177.3,0.9c0,0,0.3-89.8,0.3-90.9C193,6,189.9,0.3,184.5,0.3L184.5,0.3z M192.7,181
	c0-24.3,0-40.9,0-40.9h118.4V480H67c0,0,32.3-21.9,62-42h137v-32h-89.4c7.4-5.1,11.5-13.1,13.8-22H267v-32h-74.3v-22H266v-32h-73.3
	v-22H266v-32h-73.3v-31H237v-32H192.7L192.7,181z M342.5,157.7v-12.5h26.8v12.5H342.5L342.5,157.7z M342.5,184.7v-12.5h26.8v12.5
	H342.5L342.5,184.7z M342.5,210.8v-12.5h26.8v12.5H342.5L342.5,210.8z M342.5,237.3v-12.5h26.8v12.5H342.5L342.5,237.3z"/>
</svg>
