<?xml version="1.0" encoding="utf-8"?>
<!-- Generator: Adobe Illustrator 21.1.0, SVG Export Plug-In . SVG Version: 6.00 Build 0)  -->
<svg version="1.1" id="_x33_2" xmlns="http://www.w3.org/2000/svg" xmlns:xlink="http://www.w3.org/1999/xlink" x="0px" y="0px"
	 viewBox="0 0 578 512" style="enable-background:new 0 0 578 512;" xml:space="preserve">
<g id="_x33_2_1_">
	<path d="M556.4,22.1H21.7C10.6,22.1,0,32.7,0,45.8v420.1c0,13,10.6,23.7,23.7,23.7h530.7c13,0,23.6-10.6,23.6-23.7V45.7
		C578,32.7,567.4,22.1,556.4,22.1z M546,457.5H32V54.1h514V457.5L546,457.5z"/>
	<path d="M213.7,289.8c-11.7-5.6-26.3-10.6-26.3-10.6c0.6-2.9-4.7-8.2-6.7-10.1v-7.8c0,0,18.8-20.8,21.7-46.6
		c0.1-0.9,8.8-57.7-44.5-57.7c-53.6,0-45.1,56.7-45,57.7c1.5,13,6.9,24.7,12,33c5.1,8.5,9.7,13.6,9.7,13.6v8.1
		c-6,5.6-7.1,10-7.1,9.8c0,0-12.3,4.5-24.1,9.1C91.5,293,64.2,302.6,64.2,329c0,37.3,93.7,34.7,93.7,34.7s93.5,3.2,93.5-34.5
		C251.3,301.2,225.5,295.5,213.7,289.8z"/>
	<rect x="312.1" y="173.5" width="196.9" height="32"/>
	<rect x="312.1" y="245.2" width="196.9" height="32"/>
	<rect x="312.1" y="316.9" width="196.9" height="32"/>
</g>
</svg>
