<?xml version="1.0" encoding="utf-8"?>
<!-- Generator: Adobe Illustrator 21.1.0, SVG Export Plug-In . SVG Version: 6.00 Build 0)  -->
<svg version="1.1" id="Layer_5" xmlns="http://www.w3.org/2000/svg" xmlns:xlink="http://www.w3.org/1999/xlink" x="0px" y="0px"
	 viewBox="0 0 512 512" style="enable-background:new 0 0 512 512;" xml:space="preserve">
<g>
	<g>
		<path d="M288,99.1c30.5,6.2,58.6,21.1,81.1,43.7c30.2,30.2,46.8,70.4,46.8,113.1s-16.6,82.9-46.8,113.1
			c-22.5,22.5-50.6,37.5-81.1,43.7V99.1 M256,63.9v383.9c106,0,191.9-85.9,191.9-191.9C447.9,149.8,362,63.9,256,63.9L256,63.9z"/>
	</g>
	<g>
		<path d="M256,0C114.6,0,0,114.6,0,256c0,141.4,114.6,256,256,256s256-114.6,256-256C512,114.6,397.4,0,256,0z M256,480.3
			C132.1,480.3,31.7,379.9,31.7,256C31.7,132.1,132.1,31.7,256,31.7S480.3,132.1,480.3,256C480.3,379.9,379.9,480.3,256,480.3z"/>
	</g>
</g>
</svg>
