<?xml version="1.0" encoding="utf-8"?>
<!-- Generator: Adobe Illustrator 21.1.0, SVG Export Plug-In . SVG Version: 6.00 Build 0)  -->
<svg version="1.1" id="Layer_2" xmlns="http://www.w3.org/2000/svg" xmlns:xlink="http://www.w3.org/1999/xlink" x="0px" y="0px"
	 viewBox="0 0 512 512" style="enable-background:new 0 0 512 512;" xml:space="preserve">
<style type="text/css">
	.st0{fill:#040202;}
</style>
<g id="_x33_2">
	<path d="M89.2,32c3.7,0,7.3,0.3,10.9,1l-67,67c-3.5-18,1.8-37.3,15.7-51.3C59.5,37.9,73.9,32,89.2,32L89.2,32L89.2,32z M89.2,0
		c-22.8,0-45.6,8.7-63,26.1c-34.8,34.8-34.8,91.3,0,126.1l126-126.1C134.8,8.7,112,0,89.2,0L89.2,0z"/>
	<path d="M422.8,32c15.3,0,29.6,5.9,40.4,16.7c13.9,13.9,19.1,33.3,15.7,51.3l-67-67C415.5,32.3,419.2,32,422.8,32L422.8,32z
		 M422.8,0c-22.8,0-45.6,8.7-63,26.1l126.1,126.1c34.8-34.8,34.8-91.3,0-126.1C468.5,8.7,445.7,0,422.8,0L422.8,0z"/>
	<path d="M255.9,63.3c-123.7,0-224,100.3-224,224c0,48.8,15.6,93.9,42.1,130.7l-57.8,57.8c-13.3,13.3-3.9,36.1,15,36.2h0.1
		c8,0,15.6-3.2,21.2-8.8l51.4-51.4c39.9,36.9,93.4,59.5,152.1,59.5c59.8,0,114.2-23.4,154.4-61.7l53.6,53.5c5.6,5.6,13.1,8.7,21,8.8
		h0.1c0.1,0,0.1,0,0.2,0c18.8,0,28.3-22.8,15-36.2l-60.4-60.4c25.4-36.3,40.2-80.5,40.2-128.1C479.9,163.6,379.6,63.3,255.9,63.3
		L255.9,63.3z M255.9,479C150,479,64.1,393.2,64.1,287.3S149.9,95.6,255.9,95.6s191.7,85.8,191.7,191.7
		C447.6,393.2,361.8,479,255.9,479L255.9,479z"/>
	<path class="st0" d="M349.1,361.2l-1.9,53H164.3v-18.8l139.5-204.8h-81.2c-13.6,0-32.7,6.4-38.5,21.2h-11.4l2.5-44.7h170.3v20.6
		L203.7,392.6h86.9c31.3,0,43.8-28.4,44.9-31.4H349.1z"/>
</g>
</svg>
