<?xml version="1.0" encoding="utf-8"?>
<!-- Generator: Adobe Illustrator 21.1.0, SVG Export Plug-In . SVG Version: 6.00 Build 0)  -->
<svg version="1.1" id="Layer_2" xmlns="http://www.w3.org/2000/svg" xmlns:xlink="http://www.w3.org/1999/xlink" x="0px" y="0px"
	 viewBox="0 0 512 512" style="enable-background:new 0 0 512 512;" xml:space="preserve">
<g id="_x33_2">
	<path d="M255.9,63.3c-123.7,0-224,100.3-224,224c0,48.8,15.6,93.9,42.1,130.7l-57.8,57.8c-13.3,13.3-3.9,36.1,15,36.2h0.1
		c8,0,15.6-3.2,21.2-8.8l51.4-51.4c39.9,36.9,93.4,59.5,152.1,59.5c59.8,0,114.2-23.4,154.4-61.7l53.6,53.5c5.6,5.6,13.1,8.7,21,8.8
		h0.1c0.1,0,0.1,0,0.2,0c18.8,0,28.3-22.8,15-36.2l-60.4-60.4c25.4-36.3,40.2-80.5,40.2-128.1C479.9,163.6,379.6,63.3,255.9,63.3
		L255.9,63.3z M255.9,479C150,479,64.1,393.2,64.1,287.3S149.9,95.6,255.9,95.6s191.7,85.8,191.7,191.7
		C447.6,393.2,361.8,479,255.9,479L255.9,479z"/>
	<path d="M89.2,0c-22.8,0-45.6,8.7-63,26.1c-34.8,34.8-34.8,91.3,0,126.1l126-126.1C134.8,8.7,112,0,89.2,0z M48.8,48.7
		C59.5,37.9,73.9,32,89.2,32c3.7,0,7.3,0.3,10.9,1l-67,67C29.6,82,34.9,62.7,48.8,48.7z M255,367.6c-16.1,0-29.1,13-29.1,28.9
		c0,16,13.1,28.9,29.1,28.9s29.1-13,29.1-28.9S271.1,367.6,255,367.6z M278.9,160.2c-5.4-7.7-13.1-11.6-23-11.6
		c-10.1,0-18.2,3.6-23.9,10.7c-5.8,7-8.7,15.8-8.7,25.9c0,1.5,17.7,152.9,17.7,156.5c0,6.3,0.4,9,1.7,11c1.7,2.6,4.6,3,7,3h9.8
		c2.1,0,5.2-0.4,7.1-3.1c1.4-2,1.8-4.8,1.8-12.1c0.1-5.1,18.4-151.4,18.4-153.8C286.8,176.7,284.1,167.8,278.9,160.2z M485.9,26.1
		C468.5,8.7,445.7,0,422.8,0c-22.8,0-45.6,8.7-63,26.1l126.1,126.1C520.7,117.4,520.7,60.9,485.9,26.1z M478.9,100l-67-67
		c3.6-0.7,7.3-1,10.9-1c15.3,0,29.6,5.9,40.4,16.7C477.1,62.6,482.3,82,478.9,100z"/>
</g>
</svg>
