<?xml version="1.0" encoding="utf-8"?>
<!-- Generator: Adobe Illustrator 19.0.0, SVG Export Plug-In . SVG Version: 6.00 Build 0)  -->
<svg version="1.1" id="Layer_1" focusable="false" xmlns="http://www.w3.org/2000/svg" xmlns:xlink="http://www.w3.org/1999/xlink"
	 x="0px" y="0px" viewBox="64 0 640 512" style="enable-background:new 64 0 640 512;" xml:space="preserve">
<g id="_x33_2">
	<path d="M202.1,172.5h-41.6v32h82L202.1,172.5z M372.5,307.5h-212v32h252.3L372.5,307.5z M549.1,447.5H160.5v32h428.9L549.1,447.5z
		"/>
	<path d="M701.7,498.4l-11.2,11.2c-2.9,2.9-7.4,3.1-10.6,0.6L67,25.5c-3.7-3-4.1-8.5-0.7-11.9L77.6,2.3c2.9-2.9,7.4-3.1,10.6-0.6
		l72.3,56.8V32.5h448.7v32H168l136.3,108h305v32H344.6l130,103h134.7v32h-94.3l186,147C704.7,489.4,705,495,701.7,498.4z"/>
</g>
</svg>
