<?xml version="1.0" encoding="utf-8"?>
<!-- Generator: Adobe Illustrator 21.1.0, SVG Export Plug-In . SVG Version: 6.00 Build 0)  -->
<svg version="1.1" id="Layer_1" xmlns="http://www.w3.org/2000/svg" xmlns:xlink="http://www.w3.org/1999/xlink" x="0px" y="0px"
	 viewBox="0 0 703 512" style="enable-background:new 0 0 703 512;" xml:space="preserve">
<g>
	<path d="M274.5,42.5c-0.9,0-38.7,0-39.4,0c17.7,20.4,28.4,46.9,28.4,76c0,64.1-51.9,116-116,116c-40,0-75.2-20.2-96.1-50.9
		c0,0.8,0,47.3,0,47.6c25.8,22.1,59.4,35.4,96,35.4c81.7,0,148-66.3,148-148C295.5,90.7,287.9,64.7,274.5,42.5z"/>
	<polygon points="204,104.8 161.3,104.8 161.3,62.2 125.6,62.2 125.6,104.8 83,104.8 83,140.6 125.6,140.6 125.6,183.2 161.3,183.2 
		161.3,140.6 204,140.6 	"/>
	<path d="M149.4,366.6c-40.2,0-72.7,32.6-72.7,72.7s32.6,72.7,72.7,72.7s72.7-32.6,72.7-72.7S189.6,366.6,149.4,366.6z M149.4,474.9
		c-19.7,0-35.6-15.9-35.6-35.6s15.9-35.6,35.6-35.6s35.6,15.9,35.6,35.6S169.1,474.9,149.4,474.9z M539.7,366.6
		c-40.2,0-72.7,32.6-72.7,72.7s32.6,72.7,72.7,72.7s72.7-32.6,72.7-72.7S579.8,366.6,539.7,366.6z M539.7,474.9
		c-19.7,0-35.6-15.9-35.6-35.6s15.9-35.6,35.6-35.6s35.6,15.9,35.6,35.6S559.3,474.9,539.7,474.9z"/>
	<path d="M460,33l0.1,211.7h188.5c-0.1,33.2-0.4,98.4-0.5,132.3c-20.4-35.8-58.2-63.3-108.5-63.3c-63.9,0-107.8,44.2-121.2,93.5
		c-41,0-62.5,0.1-147.5,0.1c-14.2-53.8-63.3-93.6-121.5-93.6C102.6,313.7,62.6,338,41,375L40.8,33H460 M468.6,1H32.3
		c-6.5,0-12.1,2.4-16.7,7.2S8.8,18.5,8.8,24.8L9,422.4c-5,0-9,3-9,7.9s4,9,9,9h46.8c0-54.8,44.1-93.6,93.6-93.6
		c49.6,0,93.6,40.6,93.6,93.6c131.9,0,203-0.1,203-0.1c0-41.1,31.6-93.5,93.6-93.5c59.3,0,93.4,50.4,93.4,93.5
		c0,0,34.6,0.1,47.1,0.1s22.9-12.6,22.9-24.9s-10.9-22.9-22.9-22.9c0-0.7,0.5-153.3,0.6-159.9c0-27.5-1.2-47.9-16.9-63.6l-72.4-81.4
		c-4.9-5-11.2-9.1-18.9-12.4c-6.8-2.9-13.2-4.6-19.1-4.9V54.8c0-5.8-4.7-10.5-10.4-10.5h-8.8c-5.8,0-10.4,4.7-10.4,10.5v14.3H492
		V24.8c0-6.3-2.3-11.8-6.8-16.6S475.1,1,468.6,1L468.6,1z M492.1,212.6v-112h58.3c7.2,0,12.3,0.9,15.2,2.7v6.6l-1.9-0.9l-1,1
		c-0.3,1-0.5,2.2-0.5,3.5s0.2,2.5,0.5,3.5l1,1l5.9,3.5c0.3,0,0.6-0.5,1-1.5c0.3-1,0.5-2,0.5-3c0-1.3-0.2-2.5-0.5-3.5
		c-0.3-0.7-1.1-1.5-2.4-2.5l-1.5-0.7V104l79.8,89.3c2.6,2.3,3.9,5.1,3.9,8.4v11L492.1,212.6L492.1,212.6z"/>
	<rect x="536.4" y="20" width="4.5" height="14.2"/>
	<rect x="553.5" y="38.4" transform="matrix(0.7071 -0.7071 0.7071 0.7071 135.6607 408.8929)" width="15.8" height="4.5"/>
	<rect x="513.7" y="32.8" transform="matrix(0.7071 -0.7071 0.7071 0.7071 122.3615 376.765)" width="4.5" height="15.8"/>
</g>
</svg>
