<?xml version="1.0" encoding="utf-8"?>
<!-- Generator: Adobe Illustrator 21.1.0, SVG Export Plug-In . SVG Version: 6.00 Build 0)  -->
<svg version="1.1" id="Layer_1" xmlns="http://www.w3.org/2000/svg" xmlns:xlink="http://www.w3.org/1999/xlink" x="0px" y="0px"
	 viewBox="0 0 560.5 512" style="enable-background:new 0 0 560.5 512;" xml:space="preserve">
<g id="_x33_2">
	<path d="M504.2,78.4c4.7,1.9,9.9,3,15.3,3c22.5,0,40.7-18.2,40.7-40.7C560.2,18.2,542,0,519.5,0s-40.7,18.2-40.7,40.7
		c0,7.5,2,14.5,5.6,20.5L381.3,164.3c-5.2-2.4-11-3.8-17.1-3.8c-8.9,0-17.1,2.9-23.8,7.7L239.9,97.8c0.8-3.3,1.3-6.7,1.3-10.2
		c0-22.5-18.2-40.7-40.7-40.7c-22.5,0-40.7,18.2-40.7,40.7c0,4.7,0.8,9.3,2.3,13.5L58.2,211.7c-5.2-2.4-10.9-3.7-17-3.7
		c-22.5,0-40.7,18.2-40.7,40.7c0,22.5,18.2,40.7,40.7,40.7c22.5,0,40.7-18.2,40.7-40.7c0-6.9-1.7-13.3-4.7-19l101.3-107.9
		c6.3,4.1,13.9,6.5,22,6.5c9.5,0,18.2-3.2,25.1-8.6l99.7,69.9c-1.1,3.7-1.7,7.6-1.7,11.7c0,22.5,18.2,40.7,40.7,40.7
		c22.5,0,40.7-18.2,40.7-40.7c0-6.8-1.7-13.2-4.7-18.9L504.2,78.4z M519.5,32c4.8,0,8.7,3.9,8.7,8.7c0,4.8-3.9,8.7-8.7,8.7
		c-4.8,0-8.7-3.9-8.7-8.7C510.9,35.9,514.8,32,519.5,32z M41.2,257.3c-4.8,0-8.7-3.9-8.7-8.7c0-4.8,3.9-8.7,8.7-8.7
		c4.8,0,8.7,3.9,8.7,8.7C49.8,253.4,45.9,257.3,41.2,257.3z M200.5,96.3c-4.8,0-8.7-3.9-8.7-8.7c0-4.8,3.9-8.7,8.7-8.7
		c4.8,0,8.7,3.9,8.7,8.7C209.2,92.4,205.3,96.3,200.5,96.3z M364.2,209.9c-4.8,0-8.7-3.9-8.7-8.7c0-4.8,3.9-8.7,8.7-8.7
		c4.8,0,8.7,3.9,8.7,8.7C372.9,206,369,209.9,364.2,209.9z"/>
	<path d="M478.3,148.3V512h82V148.3H478.3z M528.3,480h-18V180.3h18V480z"/>
	<path d="M318.2,512h82V296.5h-82V512z M350.2,328.5h18V480h-18V328.5z"/>
	<path d="M159.2,512h82V197.9h-82V512z M191.2,229.9h18V480h-18V229.9z"/>
	<path d="M0.1,512h82V351.1h-82V512z M32.1,383.1h18V480h-18V383.1z"/>
</g>
</svg>
