<?xml version="1.0" encoding="utf-8"?>
<!-- Generator: Adobe Illustrator 21.1.0, SVG Export Plug-In . SVG Version: 6.00 Build 0)  -->
<svg version="1.1" id="_x33_2" xmlns="http://www.w3.org/2000/svg" xmlns:xlink="http://www.w3.org/1999/xlink" x="0px" y="0px"
	 viewBox="0 0 512 512" style="enable-background:new 0 0 512 512;" xml:space="preserve">
<g>
	<path d="M413.1,352.1l40.6,41.6c-33.9,45.4-111.8,70.1-165.9,74.6c-9.1,0.7-16.8-6.6-16.8-16V239h80.1v-32H271v-50.6
		c34.4-7.3,60.4-38.6,60.9-76.3C332.5,37,299.1,1,257.4,0c-43-1-78.2,34.7-78.2,79c0,38.1,26.1,70,60.9,77.4V207h-78.2v32h78.2
		v212.6c0,9.5-7.9,16.9-17,16c-49.4-4.9-127.1-20.5-167-75.4L93,352H0v98.6l30.8-38.2c0,0,61.4,85.8,217.8,88.4l4.1,11.2h5.8
		l4.1-11.2c154.4-2.5,217-88.3,217-88.3l32.5,38.8v-99.2L413.1,352.1L413.1,352.1z M210.1,79c0-26,20.3-47,45.4-47S301,53,301,79
		s-20.3,47-45.4,47S210.1,105,210.1,79z"/>
	<ellipse cx="255.6" cy="79" rx="20.3" ry="21"/>
</g>
</svg>
