<?xml version="1.0" encoding="utf-8"?>
<!-- Generator: Adobe Illustrator 21.1.0, SVG Export Plug-In . SVG Version: 6.00 Build 0)  -->
<svg version="1.1" id="Shape_1_1_" xmlns="http://www.w3.org/2000/svg" xmlns:xlink="http://www.w3.org/1999/xlink" x="0px" y="0px"
	 viewBox="0 0 512 512" style="enable-background:new 0 0 512 512;" xml:space="preserve">
<g>
	<g>
		<path d="M256.5,0.5c-141.4,0-256,114.6-256,256s114.6,256,256,256s256-114.6,256-256S397.9,0.5,256.5,0.5z M256.5,482.5
			c-124.8,0-226-101.2-226-226c0-124.8,101.2-226,226-226s226,101.2,226,226C482.5,381.3,381.3,482.5,256.5,482.5z M279.2,165.9
			l-90.6,90.6l90.6,90.6l45.3,0.6l-93.6-91.1l93.6-91.1L279.2,165.9z"/>
	</g>
</g>
</svg>
