<?xml version="1.0" encoding="utf-8"?>
<!-- Generator: Adobe Illustrator 21.1.0, SVG Export Plug-In . SVG Version: 6.00 Build 0)  -->
<svg version="1.1" id="Shape_1_1_" xmlns="http://www.w3.org/2000/svg" xmlns:xlink="http://www.w3.org/1999/xlink" x="0px" y="0px"
	 viewBox="0 0 512 512" style="enable-background:new 0 0 512 512;" xml:space="preserve">
<g>
	<polygon points="195.4,421.6 353.8,261.8 195.4,101 195.4,145.7 311.6,261.8 195.4,375.6 	"/>
	<polygon points="195.4,217.7 195.4,251.4 205.5,261.5 195.4,270.6 195.4,304.8 238.2,261.5 	"/>
	<path d="M512.1,256c0-141.4-114.6-256-256-256S0.1,114.6,0.1,256s114.6,256,256,256S512.1,397.4,512.1,256z M32.6,256
		c0-123.4,100.1-223.5,223.5-223.5S479.6,132.6,479.6,256S379.5,479.5,256.1,479.5S32.6,379.4,32.6,256z"/>
</g>
</svg>
