<?xml version="1.0" encoding="utf-8"?>
<!-- Generator: Adobe Illustrator 21.1.0, SVG Export Plug-In . SVG Version: 6.00 Build 0)  -->
<svg version="1.1" id="Shape_1_1_" xmlns="http://www.w3.org/2000/svg" xmlns:xlink="http://www.w3.org/1999/xlink" x="0px" y="0px"
	 viewBox="0 0 512 512" style="enable-background:new 0 0 512 512;" xml:space="preserve">
<g>
	<polygon points="316.7,90.4 158.3,250.2 316.7,411 316.7,366.3 200.6,250.2 316.7,136.4 	"/>
	<polygon points="316.7,294.3 316.7,260.6 306.6,250.5 316.7,241.4 316.7,207.2 273.9,250.5 	"/>
	<path d="M0.1,256c0,141.4,114.6,256,256,256s256-114.6,256-256S397.4,0,256.1,0S0.1,114.6,0.1,256z M479.6,256
		c0,123.4-100.1,223.5-223.5,223.5S32.6,379.4,32.6,256S132.6,32.5,256.1,32.5S479.6,132.6,479.6,256z"/>
</g>
</svg>
