<?xml version="1.0" encoding="utf-8"?>
<!-- Generator: Adobe Illustrator 21.1.0, SVG Export Plug-In . SVG Version: 6.00 Build 0)  -->
<svg version="1.1" id="Layer_5" xmlns="http://www.w3.org/2000/svg" xmlns:xlink="http://www.w3.org/1999/xlink" x="0px" y="0px"
	 viewBox="0 0 512 512" style="enable-background:new 0 0 512 512;" xml:space="preserve">
<path d="M0,0v153.5h25.7V300H5.8v32h19.9v148H0v32h185.7V332h19.8v-32h-19.8v-76c0-19.5,7.9-37.1,20.6-49.8s30.4-20.6,49.8-20.6
	c38.9,0,70.5,31.5,70.5,70.5v76h-19.9v32h19.9v180H512v-32h-25.4V332h19.8v-32h-19.8V153.5H512V0H0z M153.7,480h-96V332h96V480z
	 M57.7,300V153.5h124.1c-13.7,13.7-28.1,39.7-28.1,70.5V300H57.7z M454.6,480h-96V332h96V480z M454.6,300h-96v-76.1
	c0-30.1-13.6-55.9-28.1-70.5h124.1V300z M480,121.5H32V32h448V121.5z"/>
</svg>
