<?xml version="1.0" encoding="utf-8"?>
<!-- Generator: Adobe Illustrator 21.1.0, SVG Export Plug-In . SVG Version: 6.00 Build 0)  -->
<svg version="1.1" id="Layer_1" xmlns="http://www.w3.org/2000/svg" xmlns:xlink="http://www.w3.org/1999/xlink" x="0px" y="0px"
	 viewBox="0 0 416.6 512" style="enable-background:new 0 0 416.6 512;" xml:space="preserve">
<path id="_x33_2" d="M414,401.1L312.2,265.5l97.1-73c3.8-2.8,5.8-7.5,5.2-12.1c-0.6-4.8-3.5-8.7-7.8-10.6L18.7,1.1
	C17,0.3,15.1,0,13.3,0c-2.8,0-5.7,0.9-8,2.6c-3.8,2.9-5.8,7.5-5.2,12.3L53.3,435c0.6,4.8,3.7,8.7,8,10.6c1.7,0.8,3.4,1.1,5.2,1.1
	c2.8,0,5.7-0.9,8-2.6l97.1-73l101.7,135.6c2.6,3.5,6.6,5.4,10.6,5.4c2.8,0,5.5-0.9,8-2.6l119.4-89.8c2.8-2.1,4.6-5.2,5.2-8.7
	C416.9,407.4,416,403.8,414,401.1z M294.8,481.3L178.5,328.5l-97.9,70.5L36.5,43.9l329.1,142l-100.6,73.5l116.4,152.8L294.8,481.3z"
	/>
</svg>
