<?xml version="1.0" encoding="utf-8"?>
<!-- Generator: Adobe Illustrator 19.0.0, SVG Export Plug-In . SVG Version: 6.00 Build 0)  -->
<svg version="1.1" id="Layer_1" xmlns="http://www.w3.org/2000/svg" xmlns:xlink="http://www.w3.org/1999/xlink" x="0px" y="0px"
	 viewBox="52 0 482 512" style="enable-background:new 52 0 482 512;" xml:space="preserve">
<g id="_x33_2">
	<path d="M339.8,322.6l0.8,90.8c0.1,8.4,6.9,13.9,14.1,13.9c3.4,0,6.9-1.3,9.7-4.1l165.5-156.8c5.5-5.4,5.5-14.3,0-19.8
		c-26.9-26.8-126.8-119.3-165.4-157c-2.8-2.8-6.3-4-9.7-4c-7.2,0-14.1,5.6-14.1,14v91h-175v132.1H339.8z M197.9,222.5h143h32v-32
		v-48.7c16.5,15.7,35.8,33.8,54.6,51.5c25.6,24.1,50.2,47.3,66.6,63L372.2,371.7l-0.4-49.3l-0.3-31.7h-31.7h-142V222.5z"/>
	<rect x="52" y="67.3" width="32" height="378"/>
</g>
</svg>
