<?xml version="1.0" encoding="utf-8"?>
<!-- Generator: Adobe Illustrator 19.0.0, SVG Export Plug-In . SVG Version: 6.00 Build 0)  -->
<svg version="1.1" id="Layer_1" xmlns="http://www.w3.org/2000/svg" xmlns:xlink="http://www.w3.org/1999/xlink" x="0px" y="0px"
	 viewBox="104 0 378 512" style="enable-background:new 104 0 378 512;" xml:space="preserve">
<g id="_x33_2">
	<path d="M359.3,209.5l90.8-0.8c8.4-0.1,13.9-6.9,13.9-14.1c0-3.4-1.3-6.9-4.1-9.7L303.1,19.5c-5.4-5.5-14.3-5.5-19.8,0
		c-26.8,26.9-119.3,126.8-157,165.4c-2.8,2.8-4,6.3-4,9.7c0,7.2,5.6,14.1,14,14.1h91v175h132.1V209.5z M259.2,351.4v-143v-32h-32
		h-48.7c15.7-16.5,33.8-35.8,51.5-54.6c24.1-25.6,47.3-50.2,63-66.6l115.4,121.8l-49.3,0.4l-31.7,0.3v31.7v142H259.2z"/>
	<rect x="104" y="465.3" width="378" height="32"/>
</g>
</svg>
