<?xml version="1.0" encoding="utf-8"?>
<!-- Generator: Adobe Illustrator 19.0.0, SVG Export Plug-In . SVG Version: 6.00 Build 0)  -->
<svg version="1.1" id="Layer_1" xmlns="http://www.w3.org/2000/svg" xmlns:xlink="http://www.w3.org/1999/xlink" x="0px" y="0px"
	 viewBox="101.6 0 399 512" style="enable-background:new 101.6 0 399 512;" xml:space="preserve">
<path id="_x33_2" d="M301,71.4l146.9,155.7l-101.5,0.2v223.1h-90.2V227H154.7L301,71.4 M301.2,32.4c-4.2,0-8.4,1.6-11.5,4.8
	c-31.3,31.4-139.3,149-183.4,194.1c-3.2,3.3-4.7,7.3-4.7,11.3c0,8.4,6.5,16.4,16.3,16.4h106.2v223.3h154.2V259.2l106-0.2
	c9.8-0.1,16.2-8.1,16.2-16.4c0-4-1.5-8-4.7-11.3l-183.1-194C309.6,34.1,305.4,32.4,301.2,32.4L301.2,32.4z"/>
</svg>
