<?xml version="1.0" encoding="utf-8"?>
<!-- Generator: Adobe Illustrator 19.0.0, SVG Export Plug-In . SVG Version: 6.00 Build 0)  -->
<svg version="1.1" id="Layer_2" xmlns="http://www.w3.org/2000/svg" xmlns:xlink="http://www.w3.org/1999/xlink" x="0px" y="0px"
	 viewBox="78 141 256 512" style="enable-background:new 78 141 256 512;" xml:space="preserve">
<path id="_x33_2_1_" d="M222.1,199.4l92.6,92.6l17-17c3.1-3.1,3.1-8.2,0-11.3L211.8,143.8c-3.1-3.1-8.2-3.1-11.3,0L80.3,264.1
	c-3.1,3.1-3.1,8.2,0,11.3l17,17l92.9-92.9l0,396.4L97.3,503l-17,17c-3.1,3.1-3.1,8.2,0,11.3l119.9,119.9c3.1,3.1,8.2,3.1,11.3,0
	L331.7,531c3.1-3.1,3.1-8.2,0-11.3l-17-17l-92.6,92.6L222.1,199.4z"/>
</svg>
