<?xml version="1.0" encoding="utf-8"?>
<!-- Generator: Adobe Illustrator 19.0.0, SVG Export Plug-In . SVG Version: 6.00 Build 0)  -->
<svg version="1.1" id="Layer_2" xmlns="http://www.w3.org/2000/svg" xmlns:xlink="http://www.w3.org/1999/xlink" x="0px" y="0px"
	 viewBox="78 141 256 512" style="enable-background:new 78 141 256 512;" xml:space="preserve">
<path id="_x33_2" d="M212.1,650.5l103-111.4c1.5-1.6,2.1-3.5,2.1-5.3c0-4.1-3.2-7.9-7.9-7.9h-87.2V268.2h87.2c4.7,0,7.9-3.9,7.9-7.9
	c0-1.8-0.7-3.7-2.1-5.3L211.8,143.5c-3.1-3.4-8.5-3.4-11.6,0L97.2,255c-1.5,1.6-2.1,3.5-2.1,5.3c0,4.1,3.2,7.9,7.9,7.9h87.2v257.6
	H103c-4.7,0-7.9,3.9-7.9,7.9c0,1.8,0.7,3.7,2.1,5.3l103.3,111.4C203.6,653.8,209,653.8,212.1,650.5z M158.1,236.2l47.9-51.8l48,51.8
	H158.1z M158.2,557.8h95.9l-47.9,51.8L158.2,557.8z"/>
</svg>
