<?xml version="1.0" encoding="utf-8"?>
<!-- Generator: Adobe Illustrator 19.0.0, SVG Export Plug-In . SVG Version: 6.00 Build 0)  -->
<svg version="1.1" id="Layer_1" xmlns="http://www.w3.org/2000/svg" xmlns:xlink="http://www.w3.org/1999/xlink" x="0px" y="0px"
	 viewBox="52 0 482 512" style="enable-background:new 52 0 482 512;" xml:space="preserve">
<g id="_x33_2">
	<path d="M360,190l-0.8-90.8c-0.1-8.4-6.9-13.9-14.1-13.9c-3.4,0-6.9,1.3-9.7,4.1L170,246.2c-5.5,5.4-5.5,14.3,0,19.8
		c26.9,26.8,126.8,119.3,165.4,157c2.8,2.8,6.3,4,9.7,4c7.2,0,14.1-5.6,14.1-14v-91h175V190H360z M502,290.1H359h-32v32v48.7
		c-16.5-15.7-35.8-33.8-54.6-51.5c-25.6-24.1-50.2-47.3-66.6-63l121.8-115.4l0.4,49.3l0.3,31.7H360h142V290.1z"/>
	<rect x="52" y="67.3" width="32" height="378"/>
</g>
</svg>
