<?xml version="1.0" encoding="utf-8"?>
<!-- Generator: Adobe Illustrator 19.0.0, SVG Export Plug-In . SVG Version: 6.00 Build 0)  -->
<svg version="1.1" id="Layer_2" xmlns="http://www.w3.org/2000/svg" xmlns:xlink="http://www.w3.org/1999/xlink" x="0px" y="0px"
	 viewBox="-50 141 512 512" style="enable-background:new -50 141 512 512;" xml:space="preserve">
<path id="_x33_2" d="M459.5,390.8L348,287.7c-1.6-1.5-3.5-2.1-5.3-2.1c-4.1,0-7.9,3.2-7.9,7.9v87.2H77.2v-87.2
	c0-4.7-3.9-7.9-7.9-7.9c-1.8,0-3.7,0.7-5.3,2.1L-47.5,391.1c-3.4,3.1-3.4,8.5,0,11.6L64,505.6c1.6,1.5,3.5,2.1,5.3,2.1
	c4.1,0,7.9-3.2,7.9-7.9v-87.2h257.6v87.2c0,4.7,3.9,7.9,7.9,7.9c1.8,0,3.7-0.7,5.3-2.1l111.4-103.3
	C462.8,399.2,462.8,393.9,459.5,390.8z M45.2,444.7l-51.8-47.9l51.8-48V444.7z M366.8,444.6v-95.9l51.8,47.9L366.8,444.6z"/>
</svg>
