<?xml version="1.0" encoding="utf-8"?>
<!-- Generator: Adobe Illustrator 19.0.0, SVG Export Plug-In . SVG Version: 6.00 Build 0)  -->
<svg version="1.1" id="Layer_3" xmlns="http://www.w3.org/2000/svg" xmlns:xlink="http://www.w3.org/1999/xlink" x="0px" y="0px"
	 viewBox="0 0 512 512" style="enable-background:new 0 0 512 512;" xml:space="preserve">
<g id="_x33_2_1_">
	<path id="XMLID_9_" d="M208.9,493.4L208.9,493.4c1.2-7.3,7.2-12.9,14.5-13.4c12.9-1,33.7-5.5,52.7-22.8
		c13.9-12.7,18.4-68.1,38.1-92c23.4-28.5,38.1-56.8,48.1-81.7c23.5-59-10.7-136-79.6-148.4c-94.3-16.9-161.7,22.3-178.1,137
		c-1.1,8-8,13.9-16.1,13.8l-0.7,0c-9.4-0.1-16.7-8.3-15.7-17.7c12-117.6,97-188.7,216.1-164.7c97.4,19.6,131.4,118,104.1,190.8
		c-10.6,28.3-28.1,58.9-53,90.6c-13.8,17.6-19.1,74.2-40.9,95.1c-22.5,21.7-48.8,30.5-72.9,31.9
		C215.4,512.6,207.3,503.5,208.9,493.4z"/>
	<path id="XMLID_53_" d="M25,511.8c-13.8,0-25-11.2-25-25s11.2-25,25-25s25,11.2,25,25S38.8,511.8,25,511.8z M124.6,461.8
		l-75.2-75.2L72.1,364l75.2,75.2L124.6,461.8z M169,368c-13.8,0-25-11.2-25-25c0-13.8,11.2-25,25-25c13.8,0,25,11.2,25,25
		C194,356.8,182.8,368,169,368z M204.3,219.9c-6.1,6.5-16.4,6.5-22.6,0.2c-3.1-3.1-4.7-7.2-4.7-11.2c0-3.9,1.4-7.8,4.3-10.9
		c14.8-15.6,35.8-25.3,59.1-25c43.3,0.5,78.7,35.9,79.1,79.2c0.2,23.3-9.4,44.3-25,59c-6.2,5.9-16,5.7-22.1-0.4
		c-3.1-3.1-4.7-7.2-4.7-11.3c0-4.2,1.6-8.3,4.9-11.3c9.9-9.3,15.8-22.7,15.1-37.5c-1.1-24.7-21.2-44.8-46-46
		C227,204.1,213.6,210,204.3,219.9z M498,143c-8.9,3.3-18.8-1.8-20.9-11c-11.8-50.2-52.7-89.2-104-98.2c-9.3-1.6-15.2-11-12.4-20.1
		l0-0.1c2.3-7.5,9.8-12.2,17.5-10.9C442.1,13.9,493,62.4,507.7,124.9C509.5,132.5,505.3,140.3,498,143z"/>
</g>
</svg>
