<?xml version="1.0" encoding="utf-8"?>
<!-- Generator: Adobe Illustrator 19.0.0, SVG Export Plug-In . SVG Version: 6.00 Build 0)  -->
<svg version="1.1" id="Layer_1" xmlns="http://www.w3.org/2000/svg" xmlns:xlink="http://www.w3.org/1999/xlink" x="0px" y="0px"
	 viewBox="0 0 493.5 512" style="enable-background:new 0 0 493.5 512;" xml:space="preserve">
<path id="_x33_2" d="M268.3,291.9h-1.4l15.9,211.5c0.4,4.6-3.3,8.6-8,8.6h-56.9c-4.7,0-8.4-3.9-8-8.5l19.8-211.6h-1.4l-183,124.5
	c-3.9,2.9-9.4,1.8-11.8-2.4L2,359.9c-2.3-4-0.7-9.1,3.5-11.1l205.4-86.5v0.9L4.4,151.9c-4.2-2.1-5.7-7.4-3.1-11.3l30.1-46.9
	c2.5-3.9,7.8-4.9,11.6-2.2l186.9,141.8h1.5L210,8.6C209.6,4,213.3,0,218,0h56.8c4.7,0,8.4,4,8,8.6l-14.4,223.2h1.5L449,92
	c3.9-2.8,9.3-1.6,11.7,2.5l30.2,51.8c2.3,4,0.8,9-3.4,11.1L290.4,264.6v-0.9l198.7,88c4.2,2,5.8,7.1,3.5,11L463.7,413
	c-2.4,4.1-7.8,5.3-11.7,2.5L268.3,291.9z"/>
</svg>
