<?xml version="1.0" encoding="utf-8"?>
<!-- Generator: Adobe Illustrator 21.1.0, SVG Export Plug-In . SVG Version: 6.00 Build 0)  -->
<svg version="1.1" id="Layer_1" focusable="false" xmlns="http://www.w3.org/2000/svg" xmlns:xlink="http://www.w3.org/1999/xlink"
	 x="0px" y="0px" viewBox="0 0 485.7 512" style="enable-background:new 0 0 485.7 512;" xml:space="preserve">
<path id="_x33_2" d="M315.3,371.7c9.6,10,23.4,15.5,39,15.5c65.3,0,131.3-60,131.3-174.8C485.7,87.4,397.1,0,270.3,0
	C116.2,0,0,121.5,0,282.6C0,415.5,94.3,512,224.2,512c52,0,92.5-9,131.1-29l-11.2-29.8c-30.3,16.6-68.9,25.4-111.7,25.4
	c-27.4,0-53.2-4.7-76.6-13.9c-23.3-9.1-43.8-22.6-60.9-39.9C59.2,388.7,40.4,338,40.4,278.2c0-36.5,6-70.8,17.9-101.9
	c11.3-29.6,27.6-55.7,48.5-77.6c41-43,97-66.7,157.7-66.7c55.6,0,101.9,18,133.9,52.1c30.8,32.8,47,78.7,47,132.8
	c0,49.9-14.5,92.7-39.9,117.4c-12.7,12.4-27.4,19-41.4,18.8c-8.3-0.3-14.8-3.3-19.5-9.1c-9.9-12.4-11.2-37.6-3.8-74.8l25.1-132.9
	c0,0,0,0,0,0l2.5-13.3l-42.4-7.9l-1.7,9.2c-11.8-2-24.3-3-36.7-3c-96.6,0-175.2,78.1-175.2,174c0,60.4,39.9,92,79.3,92
	c44,0,78-21.1,103.9-64.5l0.3-0.5h4.6l-0.1,1.1C299.3,343.6,304.5,360.4,315.3,371.7z M268.6,315.9c-18.1,21.5-39.1,33.4-59.2,33.4
	c-15.9,0-28.9-5.6-37.6-16.2c-8.2-10-12.5-24.1-12.5-40.9c0-35.1,12.4-68.5,34.8-94c22.7-25.8,52.6-39.9,84.4-39.9
	c13.2,0,25.8,1.8,37.5,5.2l0.7,0.2l-9.4,49.8l0.2,0l-6.5,34.5C296.9,271.3,284.8,296.6,268.6,315.9z"/>
</svg>
