<?xml version="1.0" encoding="utf-8"?>
<!-- Generator: Adobe Illustrator 21.1.0, SVG Export Plug-In . SVG Version: 6.00 Build 0)  -->
<svg version="1.1" id="Layer_1" xmlns="http://www.w3.org/2000/svg" xmlns:xlink="http://www.w3.org/1999/xlink" x="0px" y="0px"
	 viewBox="0 0 783 512" style="enable-background:new 0 0 783 512;" xml:space="preserve">
<g>
	<g>
		<path d="M167.3,452.2c-1.3,3.2-3.2,6-5.7,8.6c-2.5,2.6-5.5,4.5-9,5.7c-3.2,1.6-6.6,2.4-10.4,2.4c-3.5,0-6.9-0.8-10.4-2.4
			c-3.2-1.3-6-3.2-8.5-5.7c-2.5-2.6-4.6-5.4-6.2-8.6c-1.3-3.5-1.9-5.7-1.9-6.7H65.5c1.9,9,5.4,17.6,10.4,25.9c4.7,8,10.7,15,18,21.1
			c7.3,6.1,15.3,10.5,24.2,13.4c9.2,3.5,18.6,5.3,28.4,5.3c9.8,0,19.2-1.8,28.4-5.3c8.8-2.9,16.9-7.3,24.2-13.4
			c7.3-6.1,13.2-13.1,18-21.1c5-8.3,8.7-16.9,10.9-25.9h-58.2C169.7,446.4,168.9,448.7,167.3,452.2z M726,367.4
			c-7.6-8-16.4-14-26.5-18.2c-10.1-4.2-20.8-6.2-32.2-6.2c-11.4,0-22.3,2.1-32.7,6.2c-9.8,4.1-18.6,10.2-26.5,18.2
			c-7.6,7.7-13.4,16.6-17.5,26.8c-4.4,10.2-6.6,21.1-6.6,32.6c0,11.5,2.2,22.5,6.6,33c4.1,9.9,9.9,18.8,17.5,26.8
			c7.9,7.6,16.7,13.6,26.5,17.7c10.4,4.5,21.3,6.7,32.7,6.7c11.4,0,22.1-2.2,32.2-6.7c10.1-4.1,18.9-10,26.5-17.7
			c7.6-8,13.6-16.9,18-26.8c4.1-10.5,6.2-21.5,6.2-33c0-11.5-2.1-22.3-6.2-32.6C739.6,384,733.6,375.1,726,367.4z M692.4,437.3
			c-1.6,3.5-3.5,6.4-5.7,8.6c-2.8,2.5-5.8,4.6-9,6.2c-3.5,1.3-6.9,1.9-10.4,1.9c-3.8,0-7.3-0.6-10.4-1.9c-3.5-1.6-6.3-3.7-8.5-6.2
			c-2.8-2.2-4.9-5.1-6.1-8.6c-1.6-3.2-2.4-6.7-2.4-10.5c0-3.8,0.8-7.5,2.4-11c1.2-2.9,3.3-5.7,6.1-8.6c2.2-2.5,5.1-4.5,8.5-5.7
			c3.1-1.3,6.6-1.9,10.4-1.9c3.5,0,6.9,0.7,10.4,1.9c3.1,1.3,6.1,3.2,9,5.7c2.2,2.9,4.1,5.7,5.7,8.6c1.2,3.5,1.9,7.2,1.9,11
			C694.3,430.6,693.6,434.1,692.4,437.3z M669.2,204.8c-0.1,0-0.1,0.1-0.2,0.1C669.2,205.6,669.2,205.6,669.2,204.8z M666.7,324.2
			c27.1,0,51.9,11.7,67.4,25.5h16.1c-0.6-7-3.5-14-8.5-21.1c-5.1-6.4-11.5-12.3-19.4-17.7c-8.2-5.4-17.2-9.6-27-12.4
			c-10.4-2.9-21-4.1-31.7-3.8l-10.9,2.4c1.6-3.2,3.1-7,4.7-11.5c5.9-0.5,27.9-5.3,27.9-5.3s0.8-0.6,1.4-2.4c0,0.3,0.8-10.9,0.9-17.2
			c0.3-11.8-2.4-15.3-2.4-15.3s-15.6-5.1-24.2-1c-19.7,6-104.4,11-100.8,11l-164.8-1.9v115.8c0,6.4-0.9,11.8-2.8,16.3
			c-2.5,5.7-6,8.6-10.4,8.6h-72.5c-2.5,0-4.9-0.6-7.1-1.9c-2.5-1.6-4.6-3.3-6.1-5.3c-1.9-2.2-3.5-4.6-4.7-7.2
			c-1-2.5-1.4-4.9-1.4-7.2c0-2.9-0.2-6.5-0.5-11c-0.6-9.3-1.7-17.9-3.3-25.8c-1.9-11.5-4.4-21.2-7.6-29.2
			c-4.4-10.2-9.8-17.6-16.1-22c-4.7-3.8-8.4-8.9-10.9-15.3c-0.9-2.6-1.6-5.1-1.9-7.7c-0.3-2.2-0.5-4.5-0.5-6.7H40.4V287l-11.8,2.4
			v34.9l11.8,2.4v103.9H564c0.6-14.3,2.8-27.5,7.5-40.7C584.8,350.8,627.3,324.2,666.7,324.2z M72.5,399.2l-1-111.8
			c0,0,151.8,0,153.7,0c10.1,19.7,21.1,20.6,25,32.9c11.2,28.7,3.6,65.1,16,78.8C264.4,399.2,72.5,399.2,72.5,399.2z M564.5,338.4
			c-20.5,23.7-27.9,59.9-27.9,59.9H421.8c0,0,6-21.1,6-30.9c0-3.4,0-80.8,0-80.8s71.3,1,127.8,1c24.5,0,67.9-5,67.9-5s-1.5,5.5-2,10
			c-0.5,4.5,0,8,0,8S586.4,313.2,564.5,338.4z M250.6,242v-9.8H41.4v9.8H250.6z M650.7,222.6c-4.4,1-8.9,1.8-13.3,2.4
			c-11.7,2.2-23.4,3.8-35,4.8c-14.5,1.6-28.4,2.4-41.7,2.4H395.5v9.8h164.8c12.6,0,26-0.6,40.2-1.9c11.7-1.3,23.3-2.9,35-4.8
			c8.8-1.6,17.4-3.2,25.6-4.8c3.8-0.6,4.8-1.3,7-1.9l-0.5-10.3c-1.9,0.6-2.8,1.3-6.6,1.9C658,221.2,654.5,222,650.7,222.6z
			 M250.6,57.9c0-4.5,1.4-8,4.3-10.5c2.8-2.2,6.8-3.4,11.8-3.4h110.3c5.4,0,9.6,1.1,12.8,3.4c3.8,2.5,5.7,6,5.7,10.5v160.9
			l165.2-0.1c13.2,0,27.1-0.6,41.7-1.9c11.4-1.3,22.9-2.8,34.6-4.8c4.4-0.7,8.8-1.6,13.2-2.9c3.5-0.3,6.8-1,9.9-1.9
			c3.7-0.6,6.6-1.4,8.8-2.3c-0.8-2.9-3.9-17.4-9.7-32.6c-6-16.6-14.7-35.1-26-55.5c-22.1-38.6-44.3-70.8-66.8-96.7
			c-6-7-12.1-12-18.5-14.8C540.4,1.8,530.5,0,518.1,0h-374c-25.6,0-46.7,4.3-63.4,12.9C67.1,19.6,57,29.1,50.4,41.2
			c-5,8.3-8.2,17.7-9.5,28.3c-0.3,4.8-0.5,8.9-0.5,12.4v137.8h210.2V57.9z M558.4,51.7c2.2-3.2,5.2-5.1,9-5.7l6.2-1.4
			c12.6,17.2,25.1,36.1,37.4,56.5c13.6,23.3,24.6,44.7,33.2,64.1l-53,9.6v0.5h-1.9c-3.5,0-6.5-1-9-2.9c-2.5-2.2-4.1-5-4.7-8.1
			l-18.9-102C555.6,58.4,556.2,54.9,558.4,51.7z M424.4,57.4c0-4.5,1.7-7.8,5.2-10c2.8-2.2,6.6-3.4,11.4-3.4h75.8
			c4.4,0,8.2,1.4,11.3,4.3c3.5,2.9,5.2,6.4,5.2,10.5l11.8,113.9c0,2.6-0.3,4.8-1,6.7c-1.3,2.2-2.5,4.2-3.8,5.8
			c-1.6,1.6-3.3,2.9-5.2,3.8c-2.2,1-4.4,1.4-6.6,1.4H441c-2.2,0-4.4-0.6-6.6-1.9c-1.6-1-3.1-2.5-4.7-4.8c-1.6-1.9-2.8-4-3.8-6.2
			c-0.9-2.2-1.4-4.6-1.4-7.2V57.4z M218.2,64.9c0,46.1,0,122.8,0,122.8H72.5c0,0,0.1-89.6,0.1-115.3s33.3-40.4,59.8-40.4
			c26.5,0,93.8,0,93.8,0S218.2,41.5,218.2,64.9z"/>
	</g>
</g>
</svg>
