<?xml version="1.0" encoding="utf-8"?>
<!-- Generator: Adobe Illustrator 21.1.0, SVG Export Plug-In . SVG Version: 6.00 Build 0)  -->
<svg version="1.1" id="Layer_2" xmlns="http://www.w3.org/2000/svg" xmlns:xlink="http://www.w3.org/1999/xlink" x="0px" y="0px"
	 viewBox="0 0 512.4 512" style="enable-background:new 0 0 512.4 512;" xml:space="preserve">
<g id="_x33_2">
	<path d="M129.7,399.4L129.7,399.4c-4.8-4.7-10.6-7-17.2-7c-6.6,0-12.4,2.4-17.2,7c-4.8,4.7-7.3,10.5-7.3,17.3
		c0,6.8,2.5,12.6,7.3,17.3c4.8,4.7,10.5,7,17,7c6.7,0,12.6-2.4,17.4-7c4.8-4.7,7.3-10.5,7.3-17.3S134.5,404.1,129.7,399.4z
		 M121.5,416.6c0,2.5-0.9,4.5-2.7,6.2l0,0c-1.9,1.7-3.9,2.6-6.3,2.6c-2.4,0-4.5-0.8-6.3-2.6c-1.8-1.7-2.7-3.8-2.7-6.2
		c0-2.5,0.9-4.5,2.7-6.2c1.9-1.7,3.9-2.6,6.1-2.6c2.6,0,4.7,0.8,6.6,2.6C120.6,412.1,121.5,414.2,121.5,416.6z"/>
	<path d="M83.9,410.1c0-4.7-1.7-8.9-5-12.4c-3.4-3.6-8-5.4-13.8-5.4c-5.7,0-10.7,1.8-14.9,5.4l-1.9,1.6L58,411l1.9-1.6
		c1.3-1.1,3.1-1.6,5.4-1.6c3.1,0,3.2,1.1,3.2,2.2c-0.1,0.3-1,2.3-7.8,7.7l-11.8,10.9V440h32.9v-15.4h-5.2c1.4-1.4,2.6-2.7,3.4-3.8
		C82.6,417.5,83.9,413.9,83.9,410.1z"/>
	<path d="M444.7,80.5L444.7,80.5c-4.8-4.8-10.6-7.3-17.2-7.3c-6.6,0-12.4,2.4-17.2,7.3c-4.8,4.8-7.3,10.6-7.3,17.2
		c0,6.6,2.4,12.4,7.3,17.2c4.8,4.8,10.5,7.3,17,7.3c6.7,0,12.6-2.4,17.4-7.3c4.8-4.8,7.3-10.6,7.3-17.2
		C452,91.2,449.5,85.4,444.7,80.5z M436.5,97.8c0,2.4-0.9,4.3-2.7,6l0,0c-1.9,1.7-3.9,2.6-6.3,2.6c-2.4,0-4.5-0.8-6.3-2.6
		c-1.8-1.7-2.7-3.7-2.7-6c0-2.4,0.9-4.4,2.8-6.3c1.9-1.8,3.8-2.7,6.1-2.7c2.5,0,4.6,0.9,6.5,2.8C435.6,93.3,436.5,95.4,436.5,97.8z"
		/>
	<polygon points="379.1,89.6 382.6,89.6 382.6,120.5 398,120.5 398,74.1 379.1,74.1 	"/>
	<path d="M444.7,277.1L444.7,277.1c-4.8-4.8-10.6-7.3-17.2-7.3c-6.6,0-12.4,2.4-17.2,7.3c-4.8,4.8-7.3,10.6-7.3,17.2
		c0,6.6,2.4,12.4,7.3,17.2c4.8,4.8,10.5,7.3,17,7.3c6.7,0,12.6-2.4,17.4-7.3c4.8-4.8,7.3-10.6,7.3-17.2
		C452,287.7,449.5,281.9,444.7,277.1z M436.5,294.3c0,2.4-0.9,4.3-2.7,6l0,0c-1.9,1.7-3.9,2.6-6.3,2.6c-2.4,0-4.5-0.8-6.3-2.6
		c-1.8-1.7-2.7-3.7-2.7-6c0-2.4,0.9-4.4,2.8-6.3c1.9-1.8,3.8-2.7,6.1-2.7c2.5,0,4.6,0.9,6.5,2.8
		C435.6,289.9,436.5,291.9,436.5,294.3z"/>
	<polygon points="379.1,286.1 382.6,286.1 382.6,317.1 398,317.1 398,270.7 379.1,270.7 	"/>
	<path d="M447.7,399.4L447.7,399.4c-4.8-4.7-10.6-7-17.2-7c-6.6,0-12.4,2.4-17.2,7c-4.8,4.7-7.3,10.5-7.3,17.3
		c0,6.8,2.5,12.6,7.3,17.3c4.8,4.7,10.5,7,17,7c6.7,0,12.6-2.4,17.4-7c4.8-4.7,7.3-10.5,7.3-17.3S452.5,404.1,447.7,399.4z
		 M439.5,416.6c0,2.5-0.9,4.5-2.7,6.2l0,0c-1.9,1.7-3.9,2.6-6.3,2.6c-2.4,0-4.5-0.8-6.3-2.6c-1.8-1.7-2.7-3.8-2.7-6.2
		c0-2.5,0.9-4.5,2.7-6.2c1.9-1.7,3.9-2.6,6.1-2.6c2.6,0,4.7,0.8,6.6,2.6C438.6,412.1,439.5,414.2,439.5,416.6z"/>
	<path d="M401.9,410.1c0-4.7-1.7-8.9-5-12.4c-3.4-3.6-8-5.4-13.8-5.4c-5.7,0-10.7,1.8-14.9,5.4l-1.9,1.6L376,411l1.9-1.6
		c1.3-1.1,3.1-1.6,5.4-1.6c3.1,0,3.2,1.1,3.2,2.2c-0.1,0.3-1,2.3-7.8,7.7l-11.8,10.9V440h32.9v-15.4h-5.2c1.4-1.4,2.6-2.7,3.4-3.8
		C400.6,417.5,401.9,413.9,401.9,410.1z"/>
	<path d="M126.7,80.5L126.7,80.5c-4.8-4.8-10.6-7.3-17.2-7.3c-6.6,0-12.4,2.4-17.2,7.3C87.4,85.3,85,91.1,85,97.8
		c0,6.6,2.4,12.4,7.3,17.2c4.8,4.8,10.5,7.3,17,7.3c6.7,0,12.6-2.4,17.4-7.3c4.8-4.8,7.3-10.6,7.3-17.2
		C134,91.2,131.5,85.4,126.7,80.5z M118.5,97.8c0,2.4-0.9,4.3-2.7,6l0,0c-1.9,1.7-3.9,2.6-6.3,2.6c-2.4,0-4.5-0.8-6.3-2.6
		c-1.8-1.7-2.7-3.7-2.7-6c0-2.4,0.9-4.4,2.8-6.3c1.9-1.8,3.8-2.7,6.1-2.7c2.5,0,4.6,0.9,6.5,2.8C117.6,93.3,118.5,95.4,118.5,97.8z"
		/>
	<polygon points="61.1,89.6 64.6,89.6 64.6,120.5 80,120.5 80,74.1 61.1,74.1 	"/>
	<path d="M126.7,277.1L126.7,277.1c-4.8-4.8-10.6-7.3-17.2-7.3c-6.6,0-12.4,2.4-17.2,7.3c-4.8,4.8-7.3,10.6-7.3,17.2
		c0,6.6,2.4,12.4,7.3,17.2c4.8,4.8,10.5,7.3,17,7.3c6.7,0,12.6-2.4,17.4-7.3c4.8-4.8,7.3-10.6,7.3-17.2
		C134,287.7,131.5,281.9,126.7,277.1z M118.5,294.3c0,2.4-0.9,4.3-2.7,6l0,0c-1.9,1.7-3.9,2.6-6.3,2.6c-2.4,0-4.5-0.8-6.3-2.6
		c-1.8-1.7-2.7-3.7-2.7-6c0-2.4,0.9-4.4,2.8-6.3c1.9-1.8,3.8-2.7,6.1-2.7c2.5,0,4.6,0.9,6.5,2.8
		C117.6,289.9,118.5,291.9,118.5,294.3z"/>
	<polygon points="61.1,286.1 64.6,286.1 64.6,317.1 80,317.1 80,270.7 61.1,270.7 	"/>
	<path d="M480,442.7c0,20.6-16.7,37.3-37.3,37.3H69.3C48.8,480,32,463.3,32,442.7V238.6H0v204.1C0,481,31,512,69.3,512h373.3
		c38.3,0,69.3-31,69.3-69.3V238.6h-32V442.7z M442.7,0H69.3C31,0,0,31,0,69.3v90.5h32V69.3C32,48.7,48.8,32,69.3,32h373.3
		c20.6,0,37.3,16.7,37.3,37.3v90.5h32V69.3C512,31,481,0,442.7,0z"/>
	<rect x="183.6" y="81.5" width="142.8" height="32"/>
	<rect x="183.6" y="278.1" width="142.8" height="32"/>
	<rect x="183.6" y="400.2" width="142.8" height="32"/>
	<rect x="229.3" y="144" width="51.4" height="32"/>
	<rect x="229.3" y="212.4" width="51.4" height="32"/>
	<rect x="229.3" y="339.2" width="51.4" height="32"/>
	<polygon points="512.4,186.6 262.8,186.6 262.8,2.4 248.4,2.4 248.4,186.6 -1.3,186.6 -1.3,201 248.4,201 248.4,355.2 262.8,355.2 
		262.8,201 512.4,201 	"/>
</g>
</svg>
