<?xml version="1.0" encoding="utf-8"?>
<!-- Generator: Adobe Illustrator 21.1.0, SVG Export Plug-In . SVG Version: 6.00 Build 0)  -->
<svg version="1.1" id="Layer_1" xmlns="http://www.w3.org/2000/svg" xmlns:xlink="http://www.w3.org/1999/xlink" x="0px" y="0px"
	 viewBox="0 0 512 512" style="enable-background:new 0 0 512 512;" xml:space="preserve">
<g>
	<path d="M103.3,0l18.9,32.3h268L408.4,0H103.3z M86.4,7.6L62.7,33.4l109.9,193.7c0.9-0.3,1.7-0.5,2.6-0.7
		c8.6-5.1,17.7-9.4,27.3-12.9L86.4,7.6z M257.1,226.6c-78.7,0-142.7,63.9-142.7,142.7S178.4,512,257.1,512
		c78.8,0,142.7-64,142.7-142.7S335.9,226.6,257.1,226.6z M390.7,338.7l-21.2,5.7l-2.6-9.6l21.2-5.7L390.7,338.7z M373.4,296.6
		l4.9,8.6l-19,11l-4.9-8.6L373.4,296.6z M350.7,269l7,7l-15.5,15.4l-7-7L350.7,269z M320.7,247.5l8.6,4.9l-11,19l-8.6-4.9
		L320.7,247.5z M287.2,235.2l9.6,2.6l-5.7,21.2l-9.6-2.6L287.2,235.2z M251.5,231.9h9.9v21.9h-9.9V231.9z M225.7,235.4l5.7,21.2
		l-9.6,2.6l-5.6-21.2L225.7,235.4z M192.3,248.1l11,19l-8.6,4.9l-11-19L192.3,248.1z M163.2,269l15.5,15.5l-7,7L156.2,276L163.2,269
		z M140.5,296.6l19,11l-4.9,8.6l-19-11L140.5,296.6z M125.8,329.2l21.2,5.7l-2.6,9.6l-21.2-5.7L125.8,329.2z M120,364.4h21.9v9.9
		H120V364.4z M123.6,400.1l21.2-5.7l2.6,9.6l-21.2,5.7L123.6,400.1z M141.1,442.1l-4.9-8.6l19-11l4.9,8.6L141.1,442.1z M164.1,469.6
		l-7-7l15.5-15.5l7,7L164.1,469.6z M192.3,489.7l-8.6-4.9l11-19l8.6,4.9L192.3,489.7z M225.7,502.4l-9.6-2.6l5.7-21.2l9.6,2.6
		L225.7,502.4z M261.4,505.8h-9.9v-21.9h9.9V505.8z M287.2,502.6l-5.7-21.2l9.6-2.6l5.7,21.2L287.2,502.6z M320.7,490.2l-11-19
		l8.6-4.9l11,19L320.7,490.2z M256.6,476.2c-59.8,0-108.4-48.6-108.4-108.4s48.5-108.4,108.4-108.4c59.8,0,108.4,48.5,108.4,108.4
		C365,427.6,316.4,476.2,256.6,476.2z M350,469.6l-15.5-15.5l7-7l15.5,15.5L350,469.6z M372.9,442.1l-19-11l4.9-8.6l19,11
		L372.9,442.1z M387.8,409.7l-21.2-5.7l2.6-9.6l21.2,5.7L387.8,409.7z M372,374.3v-9.9h21.9v9.9H372z M425.4,7.6l23.9,25.8
		L338.7,227.1c-0.9-0.3-1.7-0.5-2.6-0.7c-8.7-5.1-17.8-9.4-27.4-12.9L425.4,7.6z"/>
	<path d="M307.8,410.1H202c-1.3,0-2.6,1.3-2.6,2.6s1.3,2.6,2.6,2.6h105.9c1.3,0,2.6-1.3,2.6-2.6
		C310.4,411.4,309.1,410.1,307.8,410.1z M220.2,337c-0.6,5.3-1.8,10.7-3.5,16c4.1,4.7,7.1,10.7,9.4,16c1.2-5.3,3-11.2,5.9-16.6
		c-3.5-4.7-6.5-10.1-8.9-15.4c3-1.2,4.7-3.6,4.7-6.5c0-4.1-3-7.1-7.1-7.1c-3.5,0-6.5,3-6.5,7.1C214.3,334,216.7,337,220.2,337z
		 M321,331.6c-3.5,0-6.5,3.6-6.5,7.1c0,1.2,0,1.8,0.6,3c-14.2,3-25.4,17.2-30.1,34.9c-1.8-20.7-12.4-37.9-26.5-43.2
		c2.4-1.2,4.1-3.6,4.1-6.5c0-4.2-3-7.1-6.5-7.1c-4.1,0-7.1,3-7.1,7.1c0,3,1.8,5.3,4.1,6.5c-14.2,5.3-24.8,22.5-26.5,43.2
		c-4.7-17.8-15.9-32-30.1-34.9c0.6-1.2,0.6-1.8,0.6-3c0-3.6-3-7.1-6.5-7.1c-4.1,0-7.1,3.6-7.1,7.1c0,4.1,3,7.1,7.1,7.1
		c1.8,0,3-0.6,4.1-1.8c8.3,12.4,11.9,50.4,11.9,50.4s22.3,0,49.6,0c27.1,0,48.7,0,48.7,0s3.6-37.9,11.9-50.4
		c1.2,1.2,2.4,1.8,4.1,1.8c4.1,0,7.1-3,7.1-7.1C328.1,335.2,325.2,331.6,321,331.6z M212.1,388.3c-0.1-4.3-4.2-28.2-7-35.9
		c6.8,5.2,11.2,13.1,14,20.4c2.5,6.4,3.8,13.8,4.2,15.5C222.8,388.3,212.5,388.3,212.1,388.3z M231.9,388.3
		c0.4-3.8,0.6-12.9,2.3-20.3c2.9-12,9.8-24.6,21.8-29.1c10.9,4.7,17.7,14.3,21.2,28.3c1.5,6.2,2.3,14.8,2.7,21
		C278.7,388.3,233.7,388.3,231.9,388.3z M299.8,388.3c-0.6,0-11,0-11.5,0c0.6-2.5,1.9-7.1,3.6-13c2.5-8.4,7.8-17.9,14.5-22.8
		c0,0,0,0,0.1,0C303.7,360.7,299.7,382.7,299.8,388.3z M305.2,395.9h-98.8l-4,10.5h106.8L305.2,395.9z M211.5,402.4
		c-0.9,0-1.3-0.4-1.3-0.9c0-0.9,0.4-1.3,1.3-1.3c0.4,0,0.9,0.4,0.9,1.3C212.4,402,212,402.4,211.5,402.4z M225.8,402.4
		c-0.4,0-1.3-0.4-1.3-0.9c0-0.9,0.9-1.3,1.3-1.3c0.4,0,1.3,0.4,1.3,1.3C227.1,402,226.3,402.4,225.8,402.4z M240.1,402.4
		c-0.4,0-0.9-0.4-0.9-0.9c0-0.9,0.4-1.3,0.9-1.3c0.9,0,1.3,0.4,1.3,1.3C241.5,402,241,402.4,240.1,402.4z M254.9,402.4
		c-0.9,0-1.3-0.4-1.3-0.9c0-0.9,0.4-1.3,1.3-1.3c0.4,0,0.9,0.4,0.9,1.3C255.8,402,255.3,402.4,254.9,402.4z M269.2,402.4
		c-0.4,0-1.3-0.4-1.3-0.9c0-0.9,0.9-1.3,1.3-1.3c0.4,0,1.3,0.4,1.3,1.3C270.5,402,269.6,402.4,269.2,402.4z M283.5,402.4
		c-0.4,0-0.9-0.4-0.9-0.9c0-0.9,0.4-1.3,0.9-1.3c0.9,0,1.3,0.4,1.3,1.3C284.8,402,284.4,402.4,283.5,402.4z M298.3,402.4
		c-0.9,0-1.3-0.4-1.3-0.9c0-0.9,0.4-1.3,1.3-1.3c0.4,0,0.9,0.4,0.9,1.3C299.1,402,298.7,402.4,298.3,402.4z M285.7,369
		c2.4-5.3,5.3-11.2,9.4-16c-1.8-5.3-3-10.7-3.5-16c3.5,0,5.9-3,5.9-6.5c0-4.1-3-7.1-6.5-7.1c-4.1,0-7.1,3-7.1,7.1
		c0,3,1.8,5.3,4.7,6.5c-2.4,5.3-5.3,10.7-8.9,15.4C282.7,357.7,284.5,363.6,285.7,369z M256,349.3c-1.5,0-2.7,1.2-2.7,2.7
		s1.2,2.7,2.7,2.7s2.7-1.2,2.7-2.7C258.6,350.5,257.4,349.3,256,349.3z"/>
</g>
</svg>
