<?xml version="1.0" encoding="utf-8"?>
<!-- Generator: Adobe Illustrator 21.1.0, SVG Export Plug-In . SVG Version: 6.00 Build 0)  -->
<svg version="1.1" id="Layer_1" xmlns="http://www.w3.org/2000/svg" xmlns:xlink="http://www.w3.org/1999/xlink" x="0px" y="0px"
	 viewBox="0 0 512 512" style="enable-background:new 0 0 512 512;" xml:space="preserve">
<g>
	<path d="M103.3,0l18.9,32.3h268L408.4,0H103.3z M86.4,7.6L62.7,33.4l109.9,193.7c0.9-0.3,1.7-0.5,2.6-0.7
		c8.6-5.1,17.7-9.4,27.3-12.9L86.4,7.6z M257.1,226.6c-78.7,0-142.7,63.9-142.7,142.7S178.4,512,257.1,512
		c78.8,0,142.7-64,142.7-142.7S335.9,226.6,257.1,226.6z M390.7,338.7l-21.2,5.7l-2.6-9.6l21.2-5.7L390.7,338.7z M373.4,296.6
		l4.9,8.6l-19,11l-4.9-8.6L373.4,296.6z M350.7,269l7,7l-15.5,15.4l-7-7L350.7,269z M320.7,247.5l8.6,4.9l-11,19l-8.6-4.9
		L320.7,247.5z M287.2,235.2l9.6,2.6l-5.7,21.2l-9.6-2.6L287.2,235.2z M251.5,231.9h9.9v21.9h-9.9V231.9z M225.7,235.4l5.7,21.2
		l-9.6,2.6l-5.6-21.2L225.7,235.4z M192.3,248.1l11,19l-8.6,4.9l-11-19L192.3,248.1z M163.2,269l15.5,15.5l-7,7L156.2,276L163.2,269
		z M140.5,296.6l19,11l-4.9,8.6l-19-11L140.5,296.6z M125.8,329.2l21.2,5.7l-2.6,9.6l-21.2-5.7L125.8,329.2z M120,364.4h21.9v9.9
		H120V364.4z M123.6,400.1l21.2-5.7l2.6,9.6l-21.2,5.7L123.6,400.1z M141.1,442.1l-4.9-8.6l19-11l4.9,8.6L141.1,442.1z M164.1,469.6
		l-7-7l15.5-15.5l7,7L164.1,469.6z M192.3,489.7l-8.6-4.9l11-19l8.6,4.9L192.3,489.7z M225.7,502.4l-9.6-2.6l5.7-21.2l9.6,2.6
		L225.7,502.4z M261.4,505.8h-9.9v-21.9h9.9V505.8z M287.2,502.6l-5.7-21.2l9.6-2.6l5.7,21.2L287.2,502.6z M320.7,490.2l-11-19
		l8.6-4.9l11,19L320.7,490.2z M256.6,476.2c-59.8,0-108.4-48.6-108.4-108.4s48.5-108.4,108.4-108.4c59.8,0,108.4,48.5,108.4,108.4
		C365,427.6,316.4,476.2,256.6,476.2z M350,469.6l-15.5-15.5l7-7l15.5,15.5L350,469.6z M372.9,442.1l-19-11l4.9-8.6l19,11
		L372.9,442.1z M387.8,409.7l-21.2-5.7l2.6-9.6l21.2,5.7L387.8,409.7z M372,374.3v-9.9h21.9v9.9H372z M425.4,7.6l23.9,25.8
		L338.7,227.1c-0.9-0.3-1.7-0.5-2.6-0.7c-8.7-5.1-17.8-9.4-27.4-12.9L425.4,7.6z"/>
	<path d="M326.3,355.9c3.3-3.2,1.5-8.7-3-9.3l-38-5.5c-3.2-0.5-5.9-2.4-7.3-5.3l-17.1-34.5c-1-2-3-3-4.9-3l0,0c-2,0-3.9,1-4.9,3.1
		l-17,34.4c-1.4,2.9-4.1,4.8-7.3,5.3l-38,5.5c-4.5,0.7-6.3,6.2-3,9.3l27.5,26.8c2.3,2.2,3.3,5.4,2.8,8.6l-6.4,37.8
		c-0.6,3.5,2.2,6.4,5.4,6.4c0.8,0,1.7-0.2,2.6-0.6l33.9-17.8c1.4-0.7,3-1.1,4.5-1.1c1.5,0,3.1,0.4,4.5,1.1l34.1,17.9
		c0.8,0.4,1.7,0.6,2.5,0.6c3.2,0,6-2.9,5.4-6.4l-6.6-37.8c-0.6-3.2,0.5-6.4,2.8-8.6L326.3,355.9z M289.5,373.3
		c-5.4,5.3-7.9,12.8-6.6,20.3l4,22.5l-20.4-10.7c-3.2-1.7-6.9-2.6-10.6-2.6c-3.7,0-7.4,0.9-10.6,2.6L225,416.1l3.9-22.6
		c1.3-7.4-1.2-14.9-6.6-20.1l-16.4-16l22.7-3.3c7.4-1.1,13.9-5.7,17.2-12.5l10.1-20.6l10.2,20.6c3.3,6.7,9.7,11.4,17.2,12.4
		l22.7,3.3L289.5,373.3z"/>
</g>
</svg>
