<?xml version="1.0" encoding="utf-8"?>
<!-- Generator: Adobe Illustrator 21.1.0, SVG Export Plug-In . SVG Version: 6.00 Build 0)  -->
<svg version="1.1" id="Layer_2" xmlns="http://www.w3.org/2000/svg" xmlns:xlink="http://www.w3.org/1999/xlink" x="0px" y="0px"
	 viewBox="0 0 512 512" style="enable-background:new 0 0 512 512;" xml:space="preserve">
<g id="_x33_2">
	<path d="M66.3,47c34.2,28.2,74.7,47.7,118,56.8v110.4c-43.5,9.4-84,28.9-118,56.7C44,237.8,32,198.9,32,158.7
		C32,118.7,44,80,66.3,47 M63,0C23.9,41.9,0,98,0,158.7C0,219.9,23.9,276,63,317.9c39.1-41.9,92.7-69.7,153.4-76.5V76.5
		C155.7,70.3,102.1,41.9,63,0L63,0z"/>
	<path d="M445.7,47C468,80,480,118.7,480,158.7c0,40.3-12,79.2-34.4,112.3c-34-27.8-74.4-47.3-118-56.7V103.8
		C370.9,94.7,411.4,75.2,445.7,47 M449,0c-39.1,41.9-92.7,70.3-153.4,76.5v164.9c60.6,6.8,114.3,34.6,153.4,76.5
		c39.1-41.9,63-98,63-159.2C512,98,488.1,41.9,449,0L449,0z"/>
	<path d="M229.2,49.3l26.8-48l26.8,48v6.3h-53.7V49.3z M286.8,492c0,1.3-0.5,2.4-1.4,3.3c-0.7,0.7-1.6,1.2-2.6,1.3v10.9
		c0,2.5-2,4.5-4.5,4.5h-44.6c-2.5,0-4.5-2-4.5-4.5v-10.9c-2.3-0.3-4-2.2-4-4.6c0-1.3,0.5-2.4,1.3-3.3c0.7-0.7,1.6-1.2,2.7-1.3v-4.9
		c-2.3-0.3-4-2.2-4-4.6c0-1.3,0.5-2.4,1.3-3.3c0.7-0.7,1.6-1.2,2.7-1.3V74.8h53.7v398.5c2.3,0.3,4,2.2,4,4.6c0,1.3-0.5,2.4-1.4,3.3
		c-0.7,0.7-1.6,1.2-2.6,1.3v4.9C285.1,487.7,286.8,489.6,286.8,492z M285.5,68.5c-0.8,0.8-2,1.4-3.3,1.4h-52.4
		c-2.5,0-4.6-2.1-4.6-4.6c0-1.3,0.5-2.4,1.3-3.3c0.8-0.8,2-1.3,3.3-1.3h52.4c2.5,0,4.6,2.1,4.6,4.6
		C286.8,66.5,286.3,67.7,285.5,68.5z"/>
</g>
</svg>
