<?xml version="1.0" encoding="utf-8"?>
<!-- Generator: Adobe Illustrator 22.0.1, SVG Export Plug-In . SVG Version: 6.00 Build 0)  -->
<svg version="1.1" id="Layer_1" xmlns="http://www.w3.org/2000/svg" xmlns:xlink="http://www.w3.org/1999/xlink" x="0px" y="0px"
	 viewBox="0 0 512 512" style="enable-background:new 0 0 512 512;" xml:space="preserve">
<path id="_x33_2" d="M302.9,41.5l17,10.7l-21.1,33.7c65.2,31.7,130.2,48.5,179,56.7c-6,41.8-52.7,131.9-103.1,164.2
	c-28.8-40.3-85.4-105.1-128.5-136L50.6,475.1c-2.9,4.7-9.1,6.1-13.8,3.2l0,0c-4.7-2.9-6.1-9.1-3.2-13.8L231.1,157l-30.4-17.9
	l50.5-80.5L280,77.7L302.9,41.5 M289.1,3.3l-18.6,29.6L248.1,18c-3-2-7.6-1.9-10.5,2.3l-77.2,123c-2.3,3.6-1.1,8.3,2.6,10.5l23.7,14
	L6.4,447.6c-12.3,19.6-6.4,45.5,13.2,57.9l0,0c19.7,12.4,45.7,6.5,58-13.2l176-273.2c36.3,30.9,81.9,85,107.2,124.2
	c2.2,2.6,5.5,5.9,10.1,3.5C453,303,512,186,512,121.9c0.2-3.7-2.4-7.1-6.2-7.6C459,108.6,396,93,345.7,71.3L360.2,48
	c2.1-3.3,1.1-7.6-2.2-9.7L298.7,1.1C295.8-0.9,291.3,0,289.1,3.3z"/>
</svg>
