<?xml version="1.0" encoding="utf-8"?>
<!-- Generator: Adobe Illustrator 19.0.0, SVG Export Plug-In . SVG Version: 6.00 Build 0)  -->
<svg version="1.1" id="Layer_4" xmlns="http://www.w3.org/2000/svg" xmlns:xlink="http://www.w3.org/1999/xlink" x="0px" y="0px"
	 viewBox="0 0 386.6 512" style="enable-background:new 0 0 386.6 512;" xml:space="preserve">
<g id="_x33_2">
	<path id="XMLID_11_" d="M308.3,302c9,9.3,20.7,13.9,32.4,13.9c11.8,0,23.7-4.7,32.7-14.2c17.7-18.6,17.6-48.5-0.1-67l-96.6-100.9
		c-3.1,7.4-11.2,19.8-17,25.8l92.6,96.3c3.2,3.3,4.8,7.6,4.8,12c0,4.3-1.6,8.6-4.7,11.9c-6.3,6.7-16.7,6.8-23.1,0.2l-46.5-47.6
		c-5.7-5.8-14.3-7.2-21.5-3.4c-6.3,3.3-10,10.2-10,17.5V273H134.8v-26.6c0-7.8-4.5-14.7-11.3-17.7c-6.9-3-14.8-1.4-20.1,4L57.9,279
		c-3.2,3.3-7.4,4.9-11.6,4.9c-4.3,0-8.5-1.7-11.8-5.1c-6.3-6.7-6.3-17.4,0.1-24.1l91.6-95.3c-5.4-5.5-13.2-17.4-16.9-25.8
		l-95.9,99.5C4.5,242.5,0,254.7,0,266.9c0,12.1,4.4,24.3,13.3,33.6c17.9,18.9,47.1,19,65.3,0.4l26.8-27.2v12.7
		c0,0-54.2,56.5-54.7,57.1l0,0c-10.4,10.7-15.4,25.7-14.1,42.2c1.1,14.3,7,28.3,16.2,38.4l49.6,67.9c9.8,13.1,24.5,20,39.4,20
		c10.3,0,20.7-3.3,29.6-10.1c23.3-17.9,27-52.5,8.1-75.3l-24.7-29.3l8-10.8c12.5-2.2,49.9-4.2,63.6-3.4l8.4,12.3l-27.9,30.4
		c-8.5,9.9-12.6,22.2-12.6,34.3c0,16.7,7.8,33.3,22.5,43.3c21.7,14.8,50.6,9.9,66.6-11.3l52-68c9.3-10.1,15.2-24.1,16.4-38.5
		c1.3-16.5-3.6-31.5-13.9-42.2c0,0-38-39.4-56.7-58.9v-11.2L308.3,302z M157.2,447.4c3.2,3.8,4.8,8.6,4.8,13.3c0,6-2.6,12-7.5,16
		c-8.5,6.9-20.8,5.4-27.5-3.5l-52.5-69.8c-9.1-9.7-12.4-28.5-3.1-38.2l27-28.1l36,37.3l-7,9.5c-6.5,7.9-6.6,19.5,0,27.5L157.2,447.4
		z M212.3,352.4c-12,0.2-26.2,0.9-38.3,2c-7.2,0.6-12.6,1.3-16.7,2l-38.8-40.3l12-12.5h126.9c3.1,3.2,7.1,7.4,11.6,12l-36,37.4
		C228.3,352.4,221.8,352.3,212.3,352.4z M313.4,403.3l-53.6,70.3c-3.9,5.1-9.6,7.7-15.4,7.7c-4.1,0-8.3-1.4-11.8-4.1
		c-9.1-7.1-10.4-20.7-2.9-29.6l31.8-37.7c6.7-7.9,6.7-19.7,0.2-27.6l-6.9-10.1l34.3-35.6c13.5,14,25.8,26.7,27.5,28.4l-0.1,0.1
		C326,374.9,322.6,393.6,313.4,403.3z"/>
	<path id="XMLID_19_" d="M193.2,0.4c-45.2,0-81.8,36.6-81.8,81.8c0,45.2,36.6,81.8,81.8,81.8c45.2,0,81.8-36.6,81.8-81.8
		C275,37,238.4,0.4,193.2,0.4z M193.2,134.5c-28.9,0-52.3-23.4-52.3-52.3c0-28.9,23.4-52.3,52.3-52.3c28.9,0,52.3,23.4,52.3,52.3
		C245.5,111.1,222.1,134.5,193.2,134.5z"/>
</g>
</svg>
