<?xml version="1.0" encoding="utf-8"?>
<!-- Generator: Adobe Illustrator 21.1.0, SVG Export Plug-In . SVG Version: 6.00 Build 0)  -->
<svg version="1.1" id="_x33_2_1_" xmlns="http://www.w3.org/2000/svg" xmlns:xlink="http://www.w3.org/1999/xlink" x="0px" y="0px"
	 viewBox="0 0 482.7 512" style="enable-background:new 0 0 482.7 512;" xml:space="preserve">
<g>
	<path id="_x33_2" d="M449.4,394.6v29.9c0,0-5.7,28.3-16.8,39.3c-11.3,10.8-24,15.8-39.9,15.4l-309.1,1h0.7l0,0
		c-15.8,0-27.8-4.7-37.7-14.8C36.9,455,32.2,442.2,32.2,425v-30.4H449.4 M481.6,362.4H0v62.3c0,25.3,7.8,46,23.3,62.3
		c15.9,16.4,36,24.5,60.4,24.5l309.1,0.5c24.4,0,45.1-8.4,62.5-25.1c17.3-17.1,26.1-37.8,26.5-62.3v-62.2H481.6z"/>
	<path d="M481.5,223c0-1.6-0.2-3.2-1.4-4.9c-0.4-0.7-19.1-24.8-26.6-39.4c-10.8-19.7-26.3-49.7-44.9-66.3l-8.8-8.2
		c-1-0.9-3.8-2.2-7.4-2.8c-52.2-7.3-95.7-55-124.9-67.4l-1.8,6.2l-9-2.4l1.5-4.8h-2.9c-26.9,0.6-45.3,14.3-113.6-2.1
		c-0.7-0.2-3-0.5-3-0.5c-7.1-1.2,8.3,20,11.3,25.6c3,5.7,26.8,39.4,38.5,77.8c8.3,27.3,16.1,78.9,21.1,88.2
		c6.8-10.6,18.8-17.7,32.5-17.3c19,0.5,34.7,15.5,36.1,34.5c0.9,12.3-4.2,23.4-12.6,30.7h215.8c0,0,0.7-27.9,0.7-37.9L481.5,223z
		 M217.7,204.9c0.1-1.8,0.2-3.7,0.3-5.5l7.1,1.9C222.5,202.2,220,203.4,217.7,204.9z M228.7,195.5l-10.3-2.8
		c0.3-2.9,0.5-5.8,0.9-8.7l10.3,2.8C229.4,189.6,229,192.6,228.7,195.5z M230.6,180.2l-10.3-2.8c0.4-3.2,0.9-6.4,1.4-9.7l10.3,2.8
		C231.5,173.7,231,176.9,230.6,180.2z M233.1,163.9l-10.3-2.8c0.9-4.7,1.8-9.5,2.8-14.2l10.3,2.8C234.9,154.5,234,159.2,233.1,163.9
		z M237.3,143.3l-10.3-2.8c1-4.3,2-8.6,3.1-12.9l10.2,2.8C239.3,134.6,238.3,139,237.3,143.3z M242,123.9l-10.1-2.8
		c1.1-4,2.1-8.1,3.3-12l10,2.7C244.1,115.9,243.1,119.9,242,123.9z M246.9,105.5l-9.9-2.7c1.1-3.6,2.1-7.4,3.2-11l9.7,2.6
		C248.9,98.1,247.9,101.9,246.9,105.5z M253,83.2c-0.4,1.6-0.9,3.2-1.3,4.8l-9.6-2.6c0.5-1.8,1.1-3.5,1.6-5.3l1.6-5.2l9.4,2.6
		L253,83.2z M256.6,71.2l-9.4-2.5l2.8-9.3l9.3,2.5L256.6,71.2z M261.1,55.5l-9.2-2.5l2.7-9.1l9.1,2.5L261.1,55.5z M369.2,116
		c0.9-0.6,1.7-1.2,2.6-1.8l8.1,6.2c-1.1,0.7-2.2,1.5-3.5,2.4c-1.7,1.1-3.4,2.3-4.9,3.6l-8.1-6.2C365.2,118.6,367.1,117.2,369.2,116z
		 M358.1,124.5l8.2,6.3c-2.7,2.6-5.1,5.4-7.6,8.4l-8.4-6.4C352.8,130,355.4,127.2,358.1,124.5z M339.8,146.2
		c2.1-2.7,4.1-5.4,6.3-8.2l8.5,6.6c-1.8,2.3-3.6,4.7-5.4,7.2c-0.6,0.7-1.2,1.4-1.8,2.1l-8.5-6.6
		C339.2,146.9,339.5,146.5,339.8,146.2z M322.2,167.6l8.5,6.6c-3,3.3-6.2,6.7-9.5,9.9l-8.5-6.6C315.9,174.2,319,171,322.2,167.6z
		 M290.9,196.5l8.5,6.6c-3.4,2.6-6.9,5.2-10.4,7.8l-8.6-6.6C284,201.7,287.5,199.1,290.9,196.5z M280.2,216.7
		c-2-2.8-4.3-5.3-7.1-7.7c0.5-0.3,0.9-0.6,1.4-0.9l8.6,6.7C282.2,215.4,281.2,216.1,280.2,216.7z M287.7,236.3
		c-0.3-3-0.9-5.8-1.8-8.7c1.3-0.3,2.6-0.7,3.8-1l0.8,8.9C289.6,235.8,288.6,236.1,287.7,236.3z M297.4,233.6l-0.8-9.2
		c5-1.8,9.9-3.3,14.7-4.6l0.8,9.4C307.4,230.3,302.6,231.9,297.4,233.6z M304.8,198.6l-8.5-6.6c3.9-3.2,7.7-6.6,11.4-10l8.5,6.6
		C312.5,192.1,308.7,195.4,304.8,198.6z M319,227.3l-0.8-9.3c5.6-1.3,11.6-2.2,18-2.9l0.8,9.2C330.6,224.9,324.8,226,319,227.3z
		 M342.7,159.8c-2.4,3.1-5,6.2-7.7,9.3l-8.5-6.6c2.3-2.7,4.5-5.4,6.8-8.3c0.4-0.5,0.9-1,1.3-1.6l8.5,6.6
		C343,159.4,342.8,159.6,342.7,159.8z M347.8,223.4c-1.2,0.1-2.4,0.2-3.5,0.2l-0.8-9.2c1.6-0.1,3.3-0.2,5-0.3
		c3.5-0.2,7-0.3,10.4-0.4l0.8,9.4C355.7,223.1,351.7,223.2,347.8,223.4z M366.7,222.9l-0.8-9.5c4.8-0.1,9.6-0.2,14.2-0.1l0.8,9.6
		C376.3,222.8,371.4,222.8,366.7,222.9z M378.2,110.5c3.4-1.7,7-2.9,10.7-4l7.9,6c-4,0.6-7.2,1.8-10.8,3.9L378.2,110.5z M388.1,223
		l-0.9-9.7c4.5,0.1,9,0.2,13.4,0.4l0.8,9.7C397,223.3,392.6,223.1,388.1,223z M408.6,223.8l-0.9-9.7c4.1,0.2,8.3,0.5,12.4,0.9
		l0.8,9.6C416.9,224.3,412.8,224,408.6,223.8z M428.2,225.1l-0.8-9.5c3.9,0.4,8,0.8,11.9,1.3l0.8,9.3
		C436.1,225.8,432.2,225.5,428.2,225.1z M447.2,227l-0.8-9.1c3.5,0.5,7,1,10.6,1.5l0.8,8.8C454.3,227.8,450.7,227.4,447.2,227z
		 M465,229.2l-0.8-8.6c3.4,0.6,6.9,1.2,10.4,1.9l0.7,8.3C471.8,230.2,468.4,229.7,465,229.2z"/>
	<path d="M482.5,284.8H1v42.3l0,0c0,0.2,0,0.4,0,0.7c0,11.3,9,20.6,20.2,20.6s20.2-9.2,20.2-20.6c0-0.2,0-0.5,0-0.7h0
		c0,0.2,0,0.4,0,0.7c0,11.4,9,20.7,20.2,20.7s20.2-9.3,20.2-20.7c0-0.2,0-0.5,0-0.7h0c0,0.2,0,0.4,0,0.7c0,11.4,9,20.7,20.2,20.7
		s20.2-9.3,20.2-20.7c0-0.2,0-0.5,0-0.7l0,0c0,0.2,0,0.4,0,0.7c0,11.4,9,20.7,20.2,20.7c11.1,0,20.2-9.3,20.2-20.7
		c0-0.2,0-0.5,0-0.7l0,0c0,0.2,0,0.4,0,0.7c0,11.4,9,20.7,20.2,20.7c11.1,0,20.2-9.3,20.2-20.7c0-0.2,0-0.5,0-0.7l0,0
		c0,0.2,0,0.4,0,0.7c0,11.4,8.8,20.7,19.7,20.7c10.9,0,19.7-9.3,19.7-20.7c0-0.2,0-0.4,0-0.6l0,0c0,0.2,0,0.4,0,0.6v0.1
		c0,11.4,9,20.8,20.2,20.8s20.2-9.3,20.2-20.8c0-0.2,0-0.5,0-0.7l0,0c0,0.2,0,0.3,0,0.5c0,0.1,0,0.1,0,0.2c0,11.4,9,20.8,20.2,20.8
		s20.2-9.3,20.2-20.8c0-0.2,0-0.5,0-0.7l0,0c0,0.1,0,0.3,0,0.5c0,0.1,0,0.1,0,0.2c0,11.4,9,20.8,20.2,20.8s20.2-9.3,20.2-20.8
		c0-0.2,0-0.5,0-0.7l0,0c0,0.1,0,0.3,0,0.4s0,0.2,0,0.3c0,11.4,9,20.8,20.2,20.8s20.2-9.3,20.2-20.8c0-0.2,0-0.2,0-0.4l0,0
		c0,0.1,0,0.3,0,0.4s0,0.2,0,0.3c0,11.2,8.8,20.2,19.7,20.2s19.7-9.1,19.7-20.2c0-0.2,0-0.7,0-0.9l0,0c0,0.1,0,0.2,0,0.3
		c0,0.1,0,0.2,0,0.4c0,11.4,9,20.7,20.1,20.7c11.1,0,20.2-9.3,20.2-20.7c0-0.2,0-0.5,0-0.7l0,0v-42.5H482.5z"/>
	<path d="M241,215.2h-0.2L64.3,6.2C58-1.1,46.9-2,39.4,4.2c-7.4,6.2-8.3,17.4-2,24.9l177.3,209.7c-0.1,1-0.2,2.1-0.2,3.1
		c0,14.7,12,26.7,26.7,26.7s26.7-11.9,26.7-26.7C267.7,227.2,255.9,215.2,241,215.2z M241,254.8c-7.2,0-12.9-5.7-12.9-12.9
		S233.9,229,241,229c7.2,0,12.9,5.7,12.9,12.9S248.2,254.8,241,254.8z"/>
</g>
</svg>
