<?xml version="1.0" encoding="utf-8"?>
<!-- Generator: Adobe Illustrator 19.0.0, SVG Export Plug-In . SVG Version: 6.00 Build 0)  -->
<svg version="1.1" id="Layer_6" xmlns="http://www.w3.org/2000/svg" xmlns:xlink="http://www.w3.org/1999/xlink" x="0px" y="0px"
	 viewBox="0 0 507.3 512" style="enable-background:new 0 0 507.3 512;" xml:space="preserve">
<style type="text/css">
	.st0{fill:#010101;}
</style>
<g id="_x33_2">
	<path id="XMLID_85_" d="M404.4,105.4c-29.4-29.4-70-47.7-114.7-47.7h-72.4c-22.3,0-43.6,4.6-63.1,12.8
		c-19.4,8.3-36.9,20.2-51.6,34.9c-29.4,29.4-47.7,70-47.7,114.7v268.3c0,13,10.6,23.6,23.6,23.6h349.9c13,0,23.6-10.6,23.6-23.6
		V220.1C452.1,175.4,433.8,134.8,404.4,105.4z M217.3,89.7h72.4c31.5,0,61.3,11.2,85,31.7v74.1c-8.3-6-18.4-9.5-29.3-9.5H161.6
		c-10.9,0-21,3.5-29.3,9.5v-74C156,100.9,185.8,89.7,217.3,89.7z M244.9,223.2c-5,1.5-9.5,4.2-13.1,7.8c-5.5,5.5-9,13.2-9,21.7
		c0,8.4,3.4,16.1,9,21.6c5.5,5.5,13.2,9,21.6,9c8.5,0,16.1-3.4,21.6-9c5.5-5.5,9-13.2,9-21.6c0-8.5-3.4-16.1-9-21.7
		c-3.5-3.5-7.9-6.2-12.8-7.7V218h83c4.5,0,8.9,1.7,12.3,4.8c3,2.7,5,6.3,5.7,10.2c-1.6,16.2-9,31.3-21.1,42.6
		c-12.6,11.8-29,18.3-46.1,18.3h-85.4c-17.1,0-33.5-6.5-46.1-18.3c-12.1-11.3-19.5-26.4-21.1-42.6c0.7-3.9,2.7-7.5,5.7-10.2
		c3.4-3.1,7.8-4.8,12.3-4.8h83.3V223.2z M420.1,480H86.9V220.1c0-27.6,8.6-53.9,24.6-75.9v88.7c1.7,26,13.4,49.3,31.3,66.2
		c17.8,16.7,41.8,27,68,27h85.4c13.1,0,25.6-2.6,37.1-7.2c11.5-4.7,21.9-11.4,30.9-19.8c17.9-16.8,29.7-40.2,31.4-66.2l0-0.4h0
		v-88.3c16,22,24.6,48.4,24.6,75.9V480z"/>
	<path id="XMLID_1_" class="st0" d="M46.9,475.4H34.7C15.5,475.4,0,459.8,0,440.6v-87.7c0-17.3,7.1-33,18.5-44.4
		c7.8-7.8,17.5-13.5,28.4-16.4V475.4z M307.5,50.6c-2.9-5.2-7-9.7-11.8-13.4C283.8,28.1,268.3,24,253.5,24
		c-14.8,0-30.3,4.1-42.2,13.3c-4.8,3.7-9,8.2-11.8,13.4c-9.2,1-18.2,2.7-27,5.1c2.8-15,11.9-28,24.3-37.5C212.8,5.9,233.4,0,253.5,0
		c20.1,0,40.7,5.9,56.7,18.2c12.4,9.5,21.5,22.5,24.3,37.5C325.7,53.3,316.7,51.6,307.5,50.6z M507.1,440.6
		c0,19.2-15.5,34.7-34.7,34.7h-12.2V292.1c10.9,2.9,20.7,8.6,28.4,16.4c11.4,11.4,18.5,27.1,18.5,44.4V440.6z"/>
</g>
</svg>
