<?xml version="1.0" encoding="utf-8"?>
<!-- Generator: Adobe Illustrator 21.1.0, SVG Export Plug-In . SVG Version: 6.00 Build 0)  -->
<svg version="1.1" id="Layer_1" xmlns="http://www.w3.org/2000/svg" xmlns:xlink="http://www.w3.org/1999/xlink" x="0px" y="0px"
	 viewBox="0 0 560.7 512" style="enable-background:new 0 0 560.7 512;" xml:space="preserve">
<g>
	<path d="M137.3,178.2c0-0.5,0-1,0-1.6c0-78.9,63.9-142.8,142.8-142.8c78.8,0,142.8,63.9,142.8,142.8c0,0.5,0,1,0,1.6h32.7
		c0-0.7,0-1.3,0-2C455.6,79,376.7,0.1,279.4,0.1S103.2,79,103.2,176.3c0,0.7,0,1.3,0,2H137.3z"/>
	<path d="M559,433.6l-24.8-179c-2.2-21.7-20.5-38.3-42.3-38.3H374.6c-25.2,22.3-58.3,35.8-94.6,35.8c-36.3,0-69.4-13.5-94.6-35.8
		H68.8c-21.8,0-40.1,16.6-42.3,38.3l-24.8,179C-3.9,474.5,27.9,511,69.2,511h422.4C532.9,511,564.7,474.5,559,433.6z M519.2,467
		c-7.1,8.1-16.9,12.6-27.6,12.6H69.2c-10.7,0-20.6-4.5-27.6-12.6c-7.1-8.1-10.1-18.4-8.7-29.1l24.8-179l0.1-0.6l0.1-0.6
		c0.6-5.7,5.3-10,11-10h105.4c30.3,23.2,67.4,35.8,105.8,35.8c38.4,0,75.6-12.6,105.8-35.8h106c5.7,0,10.5,4.3,11,10l0.1,0.6
		l0.1,0.6l24.8,179C529.3,448.6,526.3,458.9,519.2,467z"/>
	<rect x="209.2" y="319.1" width="141.6" height="41.1"/>
</g>
</svg>
