<?xml version="1.0" encoding="utf-8"?>
<!-- Generator: Adobe Illustrator 21.1.0, SVG Export Plug-In . SVG Version: 6.00 Build 0)  -->
<svg version="1.1" id="_x33_2_1_" xmlns="http://www.w3.org/2000/svg" xmlns:xlink="http://www.w3.org/1999/xlink" x="0px" y="0px"
	 viewBox="0 0 564.3 512" style="enable-background:new 0 0 564.3 512;" xml:space="preserve">
<path d="M486.3,162.5c7.1-2.1,12.2-8.6,12.2-16.4c0-6.8-4-12.7-9.8-15.4c0,0-0.1,0-0.1-0.1c-0.4-0.2-0.8-0.4-1.3-0.5
	c-0.1,0-0.2-0.1-0.3-0.1c-0.4-0.1-0.8-0.3-1.2-0.4c-0.2,0-0.3-0.1-0.5-0.1c-0.4-0.1-0.7-0.2-1.1-0.2c-0.1,0-0.2,0-0.3-0.1
	c-0.2,0-0.4,0-0.5-0.1c-0.1,0-0.2,0-0.3,0c-0.5-0.1-1.1-0.1-1.6-0.1c0,0,0,0-0.1,0l0,0c-0.6,0-1.1,0-1.7,0.1h-0.1
	c-0.5,0.1-1,0.1-1.5,0.2c-0.2,0-0.3,0.1-0.4,0.1c-0.3,0.1-0.7,0.2-1,0.3s-0.6,0.2-0.9,0.3c-0.1,0-0.3,0.1-0.4,0.2
	c-6.5,2.4-11.1,8.7-11.1,16c0,0.3,0,0.6,0,0.9c0,9.6-7.8,17.4-17.3,17.4c-6.2,0-11.6-3.5-14.6-8.5c-3.5-5.7-9.5-9.4-16.2-9.4h-99.4
	c-3.8-7.9-10.3-14.3-18.4-17.8v-49c8.6-1.8,15-9.4,15-18.6c0-9.8-7.4-17.9-17-18.9l-4.2-14c1.4-1.9,2.2-4.1,2.2-6.6
	c0-4.7-3-8.8-7.3-10.6L284,0h-2.9l-3.3,10.9c-4.3,1.8-7.3,5.8-7.3,10.6c0,2.4,0.8,4.7,2.2,6.6l-4.2,14c-9.5,1-17,9.1-17,18.9
	c0,9.1,6.4,16.7,15,18.6v50c-7.1,3.7-12.9,9.6-16.4,16.9H149c-6.7,0-12.7,3.7-16.2,9.4c-3.1,5.1-8.5,8.5-14.6,8.5
	c-9.5,0-17.2-7.8-17.3-17.4c0-0.3,0-0.6,0-0.9c0-7.3-4.6-13.5-11.1-16c-0.1-0.1-0.3-0.1-0.4-0.2c-0.3-0.1-0.6-0.2-0.9-0.3
	s-0.7-0.2-1-0.3c-0.1,0-0.3-0.1-0.4-0.1c-0.5-0.1-1-0.2-1.5-0.2h-0.1c-0.5-0.1-1.1-0.1-1.7-0.1l0,0h-0.1c-0.5,0-1.1,0-1.6,0.1
	c-0.1,0-0.2,0-0.3,0c-0.2,0-0.4,0-0.5,0.1c-0.1,0-0.2,0-0.3,0.1c-0.4,0.1-0.7,0.1-1.1,0.2c-0.2,0-0.3,0.1-0.5,0.1
	c-0.4,0.1-0.8,0.2-1.2,0.4c-0.1,0-0.2,0.1-0.3,0.1c-0.4,0.2-0.9,0.3-1.3,0.5c0,0-0.1,0-0.1,0.1c-5.8,2.7-9.8,8.6-9.8,15.4
	c0,8.6,6.3,15.6,14.5,16.9C66.5,195.1,1.3,337.4,0,339.7c2.8,44.2,39.3,79.2,84,79.2s81.2-35,84-79.2c0.1-1.6-66.2-145-81-176.9
	c0.2,0,0.5-0.1,0.7-0.1c4.4,7.7,11.5,15.7,21.6,15.7h140.8c3.5,7.2,9.2,13.2,16.4,16.8V446h-28c-14.6,0-26.4,11.6-27,26H200
	c-16.8,0-30.5,13.7-30.5,30.5c0,3.2,0,9.5,0,9.5h223c0,0,0-6.2,0-9.5c0-16.8-13.7-30.5-30.5-30.5h-17.5c-0.5-14.4-12.4-26-27-26h-19
	V196.2c8-3.6,14.6-9.9,18.4-17.8h138.9c10.1,0,17.2-8,21.6-15.7c1,0.2,2.1,0.4,3.2,0.5c-14.6,32.8-77.8,175-77.7,176.5
	c2.7,44.2,37.8,79.2,80.7,79.2s78-35,80.7-79.2C563.2,337.4,500.1,193.8,486.3,162.5z M156.9,339.8H11.5l72.8-160.5L156.9,339.8z
	 M83.9,153.3c-4,0-7.2-3.2-7.2-7.2s3.2-7.2,7.2-7.2s7.2,3.2,7.2,7.2S87.9,153.3,83.9,153.3z M283.6,180c-9.7,0-17.5-7.9-17.5-17.5
	c0-7.6,4.9-14.1,11.7-16.5l4.8,18.5l4.9-19.1c7.8,1.8,13.6,8.7,13.6,17.1C301.1,172.1,293.3,180,283.6,180z M474.2,146.1
	c0-4,3.2-7.2,7.2-7.2s7.2,3.2,7.2,7.2s-3.2,7.2-7.2,7.2C477.5,153.3,474.2,150.1,474.2,146.1z M413.8,339.7l69.8-160.5l70,160.5
	H413.8z"/>
</svg>
