<?xml version="1.0" encoding="utf-8"?>
<!-- Generator: Adobe Illustrator 22.0.1, SVG Export Plug-In . SVG Version: 6.00 Build 0)  -->
<svg version="1.1" id="Layer_3" xmlns="http://www.w3.org/2000/svg" xmlns:xlink="http://www.w3.org/1999/xlink" x="0px" y="0px"
	 viewBox="0 0 512 512" style="enable-background:new 0 0 512 512;" xml:space="preserve">
<g>
	<path d="M229,1H120v110h109V1z M209,91h-69V21h69V91z"/>
	<path d="M381,1H272v110h109V1z M361,91h-69V21h69V91z"/>
	<path d="M229,155H120v110h109V155z M209,245h-69v-70h69V245z"/>
	<path d="M381,155H272v110h109V155z M361,245h-69v-70h69V245z"/>
	<path d="M512,299h-15c0-0.2,0-0.4,0-0.6c0-8.1-6.5-14.6-14.5-14.6c-8,0-14.5,6.5-14.5,14.6c0,0.2,0,0.4,0,0.6h-60
		c0-0.2,0-0.4,0-0.6c0-8.1-6.5-14.6-14.5-14.6c-8,0-14.5,6.5-14.5,14.6c0,0.2,0,0.4,0,0.6h-62c0-0.2,0-0.4,0-0.6
		c0-8.1-6.5-14.6-14.5-14.6c-8,0-14.5,6.5-14.5,14.6c0,0.2,0,0.4,0,0.6h-62c0-0.2,0-0.4,0-0.6c0-8.1-6.5-14.6-14.5-14.6
		c-8,0-14.5,6.5-14.5,14.6c0,0.2,0,0.4,0,0.6h-62c0-0.2,0-0.4,0-0.6c0-8.1-6.5-14.6-14.5-14.6c-8,0-14.5,6.5-14.5,14.6
		c0,0.2,0,0.4,0,0.6h-62c0-0.2,0-0.4,0-0.6c0-8.1-6.5-14.6-14.5-14.6c-8,0-14.5,6.5-14.5,14.6c0,0.2,0,0.4,0,0.6H0v29h16v155h-1v29
		h482v-11v-18V328h15V299z M226,328h62v155h-62V328z M198,483h-62V328h62V483z M317,328h62v155h-62V328z M45,328h62v155H45V328z
		 M468,483h-60V328h60V483z"/>
</g>
</svg>
