<?xml version="1.0" encoding="utf-8"?>
<!-- Generator: Adobe Illustrator 21.1.0, SVG Export Plug-In . SVG Version: 6.00 Build 0)  -->
<svg version="1.1" id="Layer_1" xmlns="http://www.w3.org/2000/svg" xmlns:xlink="http://www.w3.org/1999/xlink" x="0px" y="0px"
	 viewBox="0 0 640 512" style="enable-background:new 0 0 640 512;" xml:space="preserve">
<g id="_x33_2">
	<path d="M620.9,96H19.1C8.6,96,0,104.6,0,115.1v282.6c0,10.5,8.6,19.1,19.1,19.1h601.8c10.5,0,19.1-8.6,19.1-19.1V115.1
		C640,104.6,631.4,96,620.9,96z M166,384.8H32V128h134V384.8z M198,384.8V128h244v256.8H198z M608,384.8H474V128h134V384.8z"/>
	<path d="M272,355c-14.4,0-26-11.6-26-26s11.6-26,26-26s26,11.6,26,26S286.4,355,272,355z M272,283c-14.4,0-26-11.6-26-26
		s11.6-26,26-26s26,11.6,26,26S286.4,283,272,283z M272,211c-14.4,0-26-11.6-26-26s11.6-26,26-26s26,11.6,26,26S286.4,211,272,211z
		 M368,355c-14.4,0-26-11.6-26-26s11.6-26,26-26s26,11.6,26,26S382.4,355,368,355z M368,283c-14.4,0-26-11.6-26-26s11.6-26,26-26
		s26,11.6,26,26S382.4,283,368,283z M368,211c-14.4,0-26-11.6-26-26s11.6-26,26-26s26,11.6,26,26S382.4,211,368,211z"/>
</g>
</svg>
