<?xml version="1.0" encoding="utf-8"?>
<!-- Generator: Adobe Illustrator 21.1.0, SVG Export Plug-In . SVG Version: 6.00 Build 0)  -->
<svg version="1.1" id="Layer_2" xmlns="http://www.w3.org/2000/svg" xmlns:xlink="http://www.w3.org/1999/xlink" x="0px" y="0px"
	 viewBox="0 0 550 512" style="enable-background:new 0 0 550 512;" xml:space="preserve">
<g>
	<path d="M129.8,135.4h22.4l0.1,106.4h-0.1v31.5l0.1,109.1h-22.5V135.4 M420.2,135.5v247.1h-22.4l-0.1-103.4h0.1v-31.5l-0.1-112.2
		H420.2 M111.3,103.9c-7.1,0-13,5-13,11.2v287.7c0,6.2,5.8,11.2,13,11.2h59.6c7.2,0,13-5,13-11.2l-0.1-129.5l182.3,0.1l0.1,129.5
		c0,6.2,5.8,11.2,13,11.2l59.6,0.1c7.1,0,13-5,13-11.2V115.2c0-6.2-5.8-11.2-13-11.2h-59.6c-7.2,0-13,5-13,11.2l0.1,132.5
		l-182.3-0.1l-0.1-132.5c0-6.2-5.8-11.2-12.9-11.2L111.3,103.9L111.3,103.9z"/>
	<path d="M60.8,153.4l-0.1,211.2H38.2l-0.1-96v-19.4v-95.8H60.8 M79.4,121.9H19.1c-7,0-12.6,5-12.5,11.2v116.1
		c-3.7,0-6.6,3.1-6.6,6.9v5.6c0,3.8,3,6.8,6.6,6.9l0.1,116.3c0,6.2,5.8,11.2,13,11.2l59.6,0.1c7.1,0,13-5,13-11.2l0.1-251.8
		C92.3,126.9,86.5,121.9,79.4,121.9L79.4,121.9z"/>
	<path d="M489.3,153.5h22.4l0.1,95.9v19.4v95.8h-22.4L489.3,153.5 M470.8,122c-7.1,0-13,5-13,11.2l0.1,251.7c0,6.2,5.8,11.2,13,11.2
		h60.1c6.8-0.1,12.4-5,12.4-11.2V268.8c3.7,0,6.6-3.1,6.6-6.9v-5.6c0-3.8-3-6.8-6.6-6.9l-0.1-116.2c0-6.2-5.8-11.2-13-11.2
		L470.8,122L470.8,122z"/>
</g>
</svg>
