<?xml version="1.0" encoding="utf-8"?>
<!-- Generator: Adobe Illustrator 22.0.1, SVG Export Plug-In . SVG Version: 6.00 Build 0)  -->
<svg version="1.1" id="Layer_1" xmlns="http://www.w3.org/2000/svg" xmlns:xlink="http://www.w3.org/1999/xlink" x="0px" y="0px"
	 viewBox="0 0 512 512" style="enable-background:new 0 0 512 512;" xml:space="preserve">
<g>
	<polygon points="15.1,436.1 29.5,450.5 7.3,472.7 10.2,475.5 0.3,485.4 21.4,506.5 31.3,496.6 33.8,499.1 55.8,477.1 66.9,488.3 
		77.8,477.4 25.8,425.4 	"/>
	<polygon points="335.4,115.9 349.7,130.3 327.4,152.5 330.1,155.2 153.4,331.9 150.8,329.2 128.5,351.5 114.3,337.3 103.3,348.4 
		155.6,400.7 166.5,389.8 154.8,378.1 177.2,355.7 174.5,353 351.2,176.3 353.9,179 376,156.9 387.1,168.1 398.2,157 346.2,105 	"/>
	<polygon points="488.1,67.1 476.9,56 499.3,33.6 496.8,31.1 506.3,21.6 485.1,0.5 475.7,9.9 472.9,7.1 450.6,29.3 436.3,15 
		425.2,26.1 477.2,78 	"/>
	<path d="M52.3,310.4c-5-5-13.2-5-18.3,0l-4.3,4.3c-5,5-5,13.2,0,18.3l149.1,149.1c5,5,13.2,5,18.3,0l4.3-4.3c5-5,5-13.2,0-18.3
		L52.3,310.4z"/>
	<path d="M333,29.8c-5-5-13.2-5-18.3,0l-4.3,4.3c-5,5-5,13.2,0,18.3l149.1,149.1c5,5,13.2,5,18.3,0l4.3-4.3c5-5,5-13.2,0-18.3
		L333,29.8z"/>
	<path d="M32.6,366.9c-5-5-13.2-5-18.3,0l-4.3,4.3c-5,5-5,13.2,0,18.3l118.7,118.7c5,5,13.2,5,18.3,0l4.3-4.3c5-5,5-13.2,0-18.3
		L32.6,366.9z"/>
	<path d="M508.2,128.8L389.5,10c-5-5-13.2-5-18.3,0l-4.3,4.3c-5,5-5,13.2,0,18.3l118.7,118.7c5,5,13.2,5,18.3,0l4.3-4.3
		C513.3,142,513.3,133.8,508.2,128.8z"/>
</g>
</svg>
