<?xml version="1.0" encoding="utf-8"?>
<!-- Generator: Adobe Illustrator 21.1.0, SVG Export Plug-In . SVG Version: 6.00 Build 0)  -->
<svg version="1.1" id="fill" xmlns="http://www.w3.org/2000/svg" xmlns:xlink="http://www.w3.org/1999/xlink" x="0px" y="0px"
	 viewBox="0 0 524.3 512" style="enable-background:new 0 0 524.3 512;" xml:space="preserve">
<g id="_x33_2_1_">
	<rect x="169.1" y="122.8" transform="matrix(0.6825 -0.7309 0.7309 0.6825 -35.0241 169.3138)" width="16.6" height="4.3"/>
	<rect x="168.3" y="129.5" transform="matrix(0.6825 -0.7309 0.7309 0.6825 -37.6467 176.6948)" width="32.4" height="4.3"/>
	<rect y="260.6" width="147.5" height="38.1"/>
	<rect y="309.7" width="147.5" height="22.2"/>
	<rect y="348.5" width="147.5" height="32.7"/>
	<rect y="392.2" width="147.5" height="19.3"/>
	<rect y="422.7" width="147.5" height="46.6"/>
	<rect y="480.4" width="147.5" height="26.3"/>
	<rect y="233.8" width="147.5" height="11.3"/>
	<path d="M522.9,372.7l0-0.2c-3.7-28.8-11-57.1-18.1-84.4c-11.8-45.8-23-89.2-17.8-133c7.4-5.9,16.3-14.4,21-25.7
		c3.5-8.7,5.3-17.7,5.3-26.3v-33c0-13-2.8-23-8.6-30.8c-6.7-8.9-15.7-13.1-24.4-16.3l-0.9-0.3l-0.9-0.2
		c-34.2-5.8-69.2-11.3-103-16.6c-12.2-1.9-24.4-3.8-36.6-5.7L338.1,0h-0.8c-2,0-2.6,0.1-5.2,0.4l-0.6,0.1L134.2,53.8
		c-13.3,3.6-21.6,17-18.9,30.5l18.7,91.6c1.7,8.3,7.8,15.2,15.8,17.9l189.8,64.4c2.1,0.7,4.3,1.1,6.6,1.1c3.2,0,6.4-0.7,9.2-2.1
		c1,6.5,2.1,13.9,3.3,21.8l-0.6,0.1c-6.4,1.6-10.4,8.1-8.8,14.5l5.7,23.5c1.2,5.1,5.6,8.6,10.5,9.1c2.9,20.8,5.3,38.7,5.8,45.9
		c-1.4,1.3-3,2-5.6,3.3c-5.4,2.5-12.7,6-20.9,16.2c-9.8,12.3-6.3,35.3-0.4,51.3l0.2,0.4c22.1,51.7,44.7,69.1,89.5,69.1
		c8.7,0,18.9-0.6,33-1.9l0.9-0.1l0.9-0.2c24.4-6.8,42.4-28,50.4-59.9l0.1-0.6C524.3,424.3,525.5,397,522.9,372.7z M171.1,160
		l-10.7-54.8l152.8,46.6l8.4,58.9L171.1,160z M344.9,147.2l-2.9-20.1l-19.5-5.9l-148-45.1L337,32.2c11,1.7,22.1,3.5,33.1,5.2
		l0.4,0.1c33,5.2,67.2,10.5,100.5,16.2c5.2,2,7,3.4,8.1,4.9c1.4,1.9,2.2,6.1,2.2,11.5v33c0,4.3-1.1,9.4-3,14.1
		c-1.6,3.8-5.4,8.1-11.3,12.8l-10.3,8.2l0,0.1l-101.4,82.2l-2.1-14.4L344.9,147.2z M488.1,442.9c-3,11.4-10.2,30.3-26.2,35.8
		c-12,1.1-20.6,1.6-27.8,1.6c-20,0-28.2-4.3-33.7-8.5c-8.8-6.8-17.2-19.8-26.2-40.7c-3.2-8.8-4-17.4-3.4-20.8c2.9-3.4,4.9-4.3,8.5-6
		c3.8-1.8,8.6-4.1,13.6-8.6l11.5-10.5l-1.1-15.5c-0.2-2.7-0.8-10.7-6-48l-2.6-18.6l0,0l-0.4-2.6l-0.5-3.7l0,0l-3.4-22.6
		c-1.1-7.5-2.3-15.1-3.3-21.9l-2.2-14.5l68.9-55.9c0.7,39,10.5,77.1,20.1,114.1c6.8,26.3,13.8,53.5,17.3,80.3
		C493.4,397.3,492.3,420.9,488.1,442.9z"/>
</g>
</svg>
