<?xml version="1.0" encoding="utf-8"?>
<!-- Generator: Adobe Illustrator 22.0.1, SVG Export Plug-In . SVG Version: 6.00 Build 0)  -->
<svg version="1.1" id="Layer_1" xmlns="http://www.w3.org/2000/svg" xmlns:xlink="http://www.w3.org/1999/xlink" x="0px" y="0px"
	 viewBox="0 0 512 512" style="enable-background:new 0 0 512 512;" xml:space="preserve">
<g>
	<polygon points="480,0 366,0 366,32 480,32 480,146 512,146 512,32 512,0 	"/>
	<polygon points="480,480 366,480 366,512 480,512 512,512 512,480 512,366 480,366 	"/>
	<polygon points="32,366 0,366 0,480 0,512 32,512 146,512 146,480 32,480 	"/>
	<polygon points="32,32 146,32 146,0 32,0 0,0 0,32 0,146 32,146 	"/>
	<rect x="75.6" y="109" width="79.4" height="295"/>
	<rect x="378.8" y="109" width="57.8" height="295"/>
	<rect x="328.3" y="109" width="36.1" height="295"/>
	<rect x="191.1" y="109" width="50.5" height="295"/>
	<rect x="270.5" y="109" width="28.9" height="295"/>
</g>
</svg>
