<?xml version="1.0" encoding="utf-8"?>
<!-- Generator: Adobe Illustrator 21.1.0, SVG Export Plug-In . SVG Version: 6.00 Build 0)  -->
<svg version="1.1" id="Layer_6" xmlns="http://www.w3.org/2000/svg" xmlns:xlink="http://www.w3.org/1999/xlink" x="0px" y="0px"
	 viewBox="0 0 512 512" style="enable-background:new 0 0 512 512;" xml:space="preserve">
<path d="M445.4,83.8c-7.2-7.9-14.9-15.4-23.1-22.4C377.6,23.1,319.5,0,256,0C192.3,0,134.1,23.2,89.3,61.7
	c-8.1,7-15.8,14.5-23.1,22.4C25.1,129.5,0,189.8,0,256s25.1,126.5,66.3,171.9c7.2,7.9,14.9,15.4,23.1,22.4
	c44.8,38.5,103,61.7,166.7,61.7c63.5,0,121.6-23.1,166.3-61.4c8.2-7,15.9-14.5,23.1-22.4C486.8,382.8,512,322.3,512,256
	S486.8,129.2,445.4,83.8z M32,256c0-57.5,21.7-110,57.3-149.7c14,15.6,25.8,33.1,35,52.1l-11.1,3.1c-6.7,1.8-10.6,8.7-8.7,15.4
	c1.8,6.6,8.7,10.5,15.4,8.7l14-3.9c6.9,19.7,11.1,40.6,12.3,62.3h-15.8c-6.9,0-12.5,5.6-12.5,12.5c0,6.9,5.6,12.5,12.5,12.5h15.8
	c-1.3,22-5.7,43.2-12.9,63l-15.2-3.6c-6.7-1.6-13.4,2.6-15,9.3c-1.6,6.7,2.5,13.4,9.2,14.9l11.1,2.6c-9.1,18.4-20.6,35.3-34.2,50.4
	C53.7,366,32,313.5,32,256z M256,480c-54.7,0-104.7-19.6-143.6-52.1c17.4-19.2,32-41.2,43-65.1l15.4,3.7c6.7,1.6,13.4-2.5,15-9.2
	c1.6-6.7-2.5-13.4-9.2-15l-11.9-2.8c7.7-22.3,12.4-45.9,13.6-70.5h12.2c6.9,0,12.5-5.6,12.5-12.5c0-6.9-5.6-12.5-12.5-12.5h-12.1
	c-1.1-24.7-5.8-48.5-13.4-70.8l12.9-3.6c6.7-1.9,10.5-8.8,8.7-15.4c-1.9-6.7-8.8-10.5-15.4-8.7l-15.5,4.3
	c-11-24.1-25.7-46.3-43.3-65.7C151.3,51.6,201.3,32,256,32c54.5,0,104.4,19.4,143.2,51.8c-17.8,19.6-32.6,41.9-43.7,66.4l-16.6-4.6
	c-6.6-1.8-13.5,2-15.4,8.7c-1.8,6.6,2.1,13.5,8.7,15.4l14,3.9c-7.6,22.3-12.2,45.9-13.3,70.5h-13.5c-6.9,0-12.5,5.6-12.5,12.5
	c0,6.9,5.6,12.5,12.5,12.5h13.5c1.2,24.5,5.9,48,13.5,70.2l-13.1,3.1c-6.7,1.6-10.8,8.3-9.2,15c1.6,6.7,8.3,10.9,15,9.3l16.7-4
	c11.1,24.1,25.8,46.2,43.4,65.6C360.4,460.6,310.5,480,256,480z M422.3,406.1c-13.8-15.3-25.5-32.4-34.7-51.1l9.7-2.3
	c6.7-1.6,10.8-8.3,9.3-15c-1.6-6.7-8.3-10.9-15.1-9.3l-13.8,3.3c-7.1-19.8-11.5-40.8-12.7-62.7h14.2c7,0,12.5-5.6,12.5-12.5
	c0-6.9-5.6-12.5-12.5-12.5h-14.3c1.1-21.6,5.3-42.4,12.2-61.9l12.7,3.5c6.6,1.8,13.5-2.1,15.4-8.7c1.8-6.7-2-13.5-8.7-15.4l-9.8-2.7
	c9.3-19.3,21.3-37.1,35.6-52.9C458.2,145.6,480,198.3,480,256S458.2,366.4,422.3,406.1z"/>
</svg>
