<?xml version="1.0" encoding="utf-8"?>
<!-- Generator: Adobe Illustrator 21.1.0, SVG Export Plug-In . SVG Version: 6.00 Build 0)  -->
<svg version="1.1" id="Layer_4" xmlns="http://www.w3.org/2000/svg" xmlns:xlink="http://www.w3.org/1999/xlink" x="0px" y="0px"
	 viewBox="0 0 512 512" style="enable-background:new 0 0 512 512;" xml:space="preserve">
<path d="M363.9,58.3c-4.8-2.6-9.8-5.1-14.9-7.4c-32-14.4-65.6-20.8-98.5-19.9c18.8,28.1,35.1,75.6,48.4,136.1
	c7.2-1.1,14.3-2.1,21.2-3C314.9,121.5,330.1,89.7,363.9,58.3 M391,75.7c-31.3,27.1-44.2,51.3-40,85.5c45.4-3.5,84.4-1.1,112.8,7.8
	C448.6,132.5,423.8,100.1,391,75.7 M438.7,388c5.5-26.4-5.3-47-39.3-85.3c-2.3-2.6-10.7-11.9-12-13.4c-4.9-5.5-8.7-9.8-12.4-14.2
	c-24-28.1-39.5-52.5-48.2-80.2c-7.1,0.8-14.3,1.8-21.6,2.9c2.6,13.6,5.1,27.7,7.4,42.3c15,94.6,19.4,182.3,10.3,230.9
	C368.5,456.8,409.6,428.2,438.7,388 M464.5,341.7c17.8-43.3,21.2-89.1,12.1-132c-16.5-15.7-60.5-21.6-118-17.8
	c7.7,20.7,20.5,40.2,40,63.1c3.5,4.1,7.2,8.3,11.9,13.6c1.3,1.4,9.6,10.7,12,13.4C443.1,305.1,456.9,323.8,464.5,341.7 M213.6,35.1
	C172,43.2,133.1,63,101.9,92.4c17.9,0.3,37.7,3.1,55.7,8.5c42.4,12.7,73.9,38.2,86.9,76.4c7.9-1.7,15.8-3.3,23.5-4.8
	C251.4,98.5,230.5,45.3,213.6,35.1 M289.3,478.6c11.8-30.8,9.1-129.7-7.4-233.7c-2.3-14.4-4.8-28.5-7.4-42
	c-7.8,1.5-15.8,3.1-23.8,4.8c1.6,23.4-3.5,47.2-14.6,72.7c-9.8,22.5-19.9,39.3-46.2,79.5c-5.9,9-9,13.8-12.5,19.2
	c-18,28.1-29.6,49.3-37,69.6c7.5,4.5,15.4,8.7,23.6,12.4C204.7,479.5,248.1,484.7,289.3,478.6 M72.7,126.1
	c-8.2,11.5-15.3,24-21.4,37.4c-14.6,32.3-20.9,66.3-19.9,99.5c34.8-30.5,101.4-58.2,182.6-78.5c-10.2-26.3-33.1-44.1-65.4-53.8
	C121.5,122.4,89.1,121.6,72.7,126.1 M114.1,430.3c8.3-20.3,20.1-41.4,37-67.9c3.5-5.5,6.7-10.3,12.6-19.5
	c41.7-63.6,57.5-95.5,56.3-128c-99.3,25.3-176.2,63.6-183.2,90.4C47.8,353.7,74.6,398.1,114.1,430.3 M361.7,22.7
	c128.9,58.2,186.2,209.8,128.1,338.6C431.6,490.2,280,547.5,151.1,489.3C22.3,431.2-35.1,279.6,23.1,150.7
	C81.2,21.8,232.8-35.5,361.7,22.7"/>
</svg>
