<?xml version="1.0" encoding="utf-8"?>
<!-- Generator: Adobe Illustrator 21.1.0, SVG Export Plug-In . SVG Version: 6.00 Build 0)  -->
<svg version="1.1" id="Layer_1" xmlns="http://www.w3.org/2000/svg" xmlns:xlink="http://www.w3.org/1999/xlink" x="0px" y="0px"
	 viewBox="0 0 512 512" style="enable-background:new 0 0 512 512;" xml:space="preserve">
<g>
	<g>
		<path d="M380.5,496c-2.4,0-5.5-1.7-6.5-4.5l-12.4-34l12.2,0l2.2-0.4l10.9,28.9c1.3,3.8-0.5,8.2-4,9.4l-0.2,0.1l-0.2,0.1
			C381.8,495.8,381.1,496,380.5,496z M131,496c-0.6,0-1.3-0.2-2.1-0.5l-0.2-0.1l-0.2-0.1c-3.4-1.3-5.3-5.7-4-9.4l10.9-29l12.6,2.5
			l1-2.3h0.7l-12.2,34.3C136.4,494.3,133.3,496,131,496z M160.9,457.1l121.3,0.2L160.9,457.1z M116.5,453.2L116.5,453.2z
			 M116.5,453.2c-8.6-1.7-16.1-5.9-21.8-11.9C100.5,447.3,108,451.5,116.5,453.2z M415.1,442.8c4.5-4.2,8.1-9.4,10.2-15.3l0.4-1
			l0.6-1.1c2.8-5.4,17.6-33.9,32.9-64.3c5-9.9,9.5-19,13.5-27.3c-13.2,27-30.1,60.5-46.5,91.8l-0.5,0.9l-0.4,1
			C423.2,433.3,419.6,438.5,415.1,442.8z M83.6,422.4C57.5,371.8,30.1,316.3,19.9,292l2.5,5.7c6.4,14.5,16.6,35.9,30.3,63.5
			C66.1,388.3,79,413.3,83.6,422.4z M480.9,316.6c3.4-7.2,6.3-13.5,8.7-18.9l2.3-5.3C489.2,298.7,485.4,307,480.9,316.6z
			 M23.1,275.3c0,0,15.9-0.1,15.9-0.1V52.3C39,32.3,55.3,16,75.3,16c9.8,0,18.9,3.8,25.7,10.6l28.8,28.7l10.6-6
			c6.4-3.6,13.8-5.5,21.3-5.5c4.9,0,9.7,0.8,14.3,2.4c-14.8,15.7-40.6,41.4-56.2,56.2c-3.9-11.5-2.9-24.6,3.3-35.9l5.8-10.5
			l-28.3-28.3c-6.3-7-15.5-11-25.3-11c-19.6,0-35.6,16-35.6,35.6v223h449.1H23.1z"/>
		<path d="M75.3,0C46.4,0,23,23.4,23,52.3v207c-12.9,0.1-23,10.4-23,23.4C0,295.8,71.1,433,71.1,433c7,19.1,23.2,32.1,42.6,35.9
			l-4.3,11.4c-4.3,12,1.6,25.6,13.5,30c2.7,1.1,5.4,1.6,8.1,1.6c9.2,0,18.3-6,21.6-15.3l8.4-23.7l189.5,0.3l8.5,23.3
			c3.2,9.3,12.4,15.3,21.6,15.3c2.7,0,5.4-0.5,8.1-1.6c11.9-4.4,17.8-18,13.5-30l-4.3-11.4c18.9-3.8,35.6-16.9,42.6-35.9
			c0,0,71.7-137.3,71.7-150.3c0-13.1-10.2-23.4-23.2-23.4H55.7v-207c0-10.9,8.7-19.6,19.6-19.6c5.4,0,10.3,2.2,13.6,6l20.1,20.1
			c-12,21.8-9.8,49,6.5,68.1c0,0,0.1,0,0.1,0c3.7,0,86.5-82.9,84.9-85c-11.3-9.4-25.2-14.1-38.9-14.1c-10.1,0-20.2,2.5-29.1,7.6
			l-20.2-20.1C102.5,5.5,89.5,0,75.3,0L75.3,0z M138.4,441.2l-18.5-3.6c-8.9-1.8-15.7-7.4-18.7-15.6l-0.7-1.9l-0.9-1.8
			c-0.2-0.3-16.1-31-32.6-64.2c-16.3-32.7-25.1-51.8-29.9-62.8h437.9c-4.9,11-13.8,30.1-30.1,62.7c-16.6,33.2-32.7,64-32.8,64.3
			l-1,1.8l-0.7,1.9c-2.9,7.9-10.1,13.9-18.9,15.6l-19.1,3.9l-21.8,0L161,441.1l-22.6,0L138.4,441.2L138.4,441.2z"/>
	</g>
	<path d="M352.2,238.4c-14.2,0-25.7-11.5-25.7-25.7c0-14.2,11.5-25.7,25.7-25.7c14.2,0,25.7,11.5,25.7,25.7
		C377.9,226.9,366.4,238.4,352.2,238.4z M352.2,197c-8.7,0-15.7,7-15.7,15.7c0,8.7,7,15.7,15.7,15.7c8.7,0,15.7-7,15.7-15.7
		C367.9,204.1,360.9,197,352.2,197z M402.3,197c-15.7,0-28.4-12.7-28.4-28.4s12.7-28.4,28.4-28.4c15.7,0,28.4,12.7,28.4,28.4
		S418,197,402.3,197z M402.3,150.2c-10.2,0-18.4,8.3-18.4,18.4c0,10.2,8.3,18.4,18.4,18.4c10.2,0,18.4-8.3,18.4-18.4
		C420.8,158.4,412.5,150.2,402.3,150.2z M338.1,167.1c-20.5,0-37.1-16.7-37.1-37.1c0-20.5,16.7-37.1,37.1-37.1
		c20.5,0,37.1,16.7,37.1,37.1C375.2,150.4,358.5,167.1,338.1,167.1z M338.1,102.8c-15,0-27.1,12.2-27.1,27.1
		c0,15,12.2,27.1,27.1,27.1c15,0,27.1-12.2,27.1-27.1C365.2,115,353,102.8,338.1,102.8z"/>
</g>
</svg>
