<?xml version="1.0" encoding="utf-8"?>
<!-- Generator: Adobe Illustrator 21.1.0, SVG Export Plug-In . SVG Version: 6.00 Build 0)  -->
<svg version="1.1" id="Layer_1" xmlns="http://www.w3.org/2000/svg" xmlns:xlink="http://www.w3.org/1999/xlink" x="0px" y="0px"
	 viewBox="0 0 549.3 512" style="enable-background:new 0 0 549.3 512;" xml:space="preserve">
<g>
	<path d="M424,330.9c-2.9,20.9-10.1,39.2-20.8,52.7c-14.3,18-34.4,27.1-59.7,27.1H115.9c-25.3,0-45.4-9.1-59.7-27.1
		c-10.8-13.5-17.9-31.8-20.8-52.7H424 M457.5,298.9H1.9v9.9c0,74,40.1,133.9,114,133.9h227.6c73.9,0,114-59.9,114-133.9
		C457.5,306.8,457.5,298.9,457.5,298.9L457.5,298.9z"/>
	<path d="M460.4,287v-15.8c0-1.1-0.9-2-2-2H29.2c3.1-12.4,14.3-21.6,27.7-21.6c5.6,0,10.8,1.6,15.2,4.4c0.1,0.3,9.8-11.5,9-12.1
		c-6.7-4.6-14.9-7.3-23.6-7.3c-21.4,0-39,16-41.6,36.6H2c-1.1,0-2,0.9-2,2V287c0,1.1,0.9,2,2,2h456.4
		C459.5,289,460.4,288.1,460.4,287z"/>
	<path d="M44.4,229.5h19c2.8,0,5-2.2,5-5v-11c0-2.8-2.2-5-5-5h-19c-2.8,0-5,2.2-5,5v11C39.4,227.3,41.6,229.5,44.4,229.5z"/>
	<path d="M339.4,0.5c-8.8,0-16,7.2-16,16v63.6c-7.1,2-12.2,8.6-12,16.3c0.3,9,7.9,16,16.9,16h22.1c9,0,16.7-7,16.9-16
		c0.2-7.8-4.9-14.3-12-16.3V32.5h162v448h-484c-14.4,0-26,11.6-26,26v6h510h16c8.8,0,16-7.2,16-16V0.5H339.4z"/>
	<path d="M369.4,167.9c0-16.4-29.5-47.4-29.5-47.4s-29.5,31-29.5,47.4s13.2,29.6,29.5,29.6S369.4,184.2,369.4,167.9z"/>
</g>
</svg>
