<?xml version="1.0" encoding="utf-8"?>
<!-- Generator: Adobe Illustrator 21.1.0, SVG Export Plug-In . SVG Version: 6.00 Build 0)  -->
<svg version="1.1" id="Layer_2" xmlns="http://www.w3.org/2000/svg" xmlns:xlink="http://www.w3.org/1999/xlink" x="0px" y="0px"
	 viewBox="0 0 606.7 512" style="enable-background:new 0 0 606.7 512;" xml:space="preserve">
<g id="_x33_2">
	<path d="M573.6,245.2c-5,0-10.3,0-15.9,0l48.9-58.3c0,0,0.1,0,0.1,0c0.4-0.5-0.9-3.4-3-6.6c-2.1-3.2-4.1-5.4-4.6-4.9l-72.4,70.1
		c-8.1,0.1-16.3,0.3-24.1,0.5l48.8-59.5c0,0,0.1,0,0.1,0c0.4-0.5-1-3.4-3.1-6.6c-2.1-3.1-4.2-5.3-4.6-4.9l-72.9,72.2
		c-5.6,0.3-10.7,0.7-14.7,1.2c-4.9,0.6-10.3,1.4-15.9,2.4l51-66.9c0,0,0.1,0,0.1,0c0.4-0.5-1-3.3-3.2-6.4c-2.2-3-4.3-5.1-4.7-4.6
		l-77.6,83.3c-0.7,0.7-1.2,1.6-1.5,2.6c-32.4,8.3-69.8,20.1-104.5,31.9c-57.4,19.5-117.1,31.1-177.4,34.6V209.6l-57.6,29.6v14.1
		c0,16.4-8.2,31.8-21.8,41L0.4,322.7l0.5,0l-0.2,4.7c-2,39.5,8.6,78.6,30.2,111.7l6.6,10.1c0,0,59.6,4,129.4,17.4
		c73.7,14.1,158.7,37.7,196.6,43.4c10,1.5,23.3,2,36.4,2c24.1,0,47.4-1.7,47.4-1.7l9-28.5c17.8-56.6,46.2-109.2,83.9-155l66.9-81.5
		C606.8,245.4,593,245.2,573.6,245.2z M599.7,177.4c0.3-0.3,1.8,1.3,3.3,3.6c1.5,2.3,2.5,4.4,2.2,4.8c-0.3,0.3-1.8-1.3-3.3-3.6
		C600.3,179.9,599.4,177.8,599.7,177.4z M544.4,177.1c0.3-0.3,1.8,1.2,3.3,3.5c1.5,2.3,2.6,4.4,2.2,4.7s-1.8-1.2-3.3-3.5
		C545.1,179.6,544.1,177.4,544.4,177.1z M483.9,175c0.3-0.4,1.8,1.1,3.4,3.3c1.6,2.2,2.7,4.2,2.3,4.6c-0.3,0.4-1.8-1.1-3.4-3.3
		C484.7,177.4,483.6,175.4,483.9,175z M515.1,306.5c-40.4,49.2-70.6,105-89.6,165.7l-2.3,7.3c-7.1,0.3-15.3,0.5-23.5,0.5
		c-17.1,0-26.6-0.9-31.6-1.6c-17.5-2.6-47.2-9.7-81.7-17.9c-35.6-8.5-75.9-18.1-113.6-25.3c-49.9-9.5-94.3-14.4-117.1-16.5
		c-14.8-23.9-22.8-50.9-23.3-78.9l28.3-19c13.3-9,23.5-21.4,29.6-35.8v40.4v33.9l33.8-1.9c63.2-3.6,125.8-15.8,185.8-36.2
		c68.8-23.4,120.6-37.5,149.8-40.9c13.5-1.5,41.1-2.6,79.3-2.9L515.1,306.5z"/>
	<path d="M410.3,181.5l-91.9,1.6v-0.8H284l-1.1-34.6l35.6-8.7l1.4-13.4h27.9v-6.1h-27.7l0.2-3.8c0.2-4.9,2.6-9.7,6.8-13.5l2.4-2.2
		h31.8v-6.1h-25.1l1-0.9V66.8l-37,0.4l-0.5,8.3L291,78l-12.5-0.4V66.4l-5.4-5.1l0-23.5h37.3V25.7h-37.3l0-9.5V7.6
		c0-4.2-4.5-7.6-10.1-7.6h-36.1C221.5,0,217,3.4,217,7.6l0.1,15.7h-42.6v12.1h35.7l-4.3,40l-15.3,2.2c-9.1,1.3-16.7,5.9-20.3,12.3
		h-43.9v8.4h39.8l-4.8,10c-0.9,1.9-1.2,4-0.8,5.9h-26v8.4H167l15.1,12c4.1,3.2,3,8.5-2.1,10.7l-12,2.2c-6.4,1.2-11,5.4-11.2,10.4
		l-0.9,28l-13.5,8.1v107.1h44.3l225.6-59.8L410.3,181.5z M182.5,269.2h-8.1v-57.1l12.9-7.8l0.5-17.4l0.3-10.6h63.3l0.5,8.3l1,31.5
		l31.5-0.5l94.7-1.6l0.1,2.9L182.5,269.2z"/>
</g>
</svg>
