<?xml version="1.0" encoding="utf-8"?>
<!-- Generator: Adobe Illustrator 21.1.0, SVG Export Plug-In . SVG Version: 6.00 Build 0)  -->
<svg version="1.1" id="Layer_2" xmlns="http://www.w3.org/2000/svg" xmlns:xlink="http://www.w3.org/1999/xlink" x="0px" y="0px"
	 viewBox="0 0 628.2 512" style="enable-background:new 0 0 628.2 512;" xml:space="preserve">
<path d="M628.2,17.2L615.5,1.1C550.3,8,525.4,24,515.2,48.9c-6.1-2.5-11.8-0.8-15.3,1.8l-18.1,13.9c-3.9,0.1-7.7,1.3-11,3.6
	l-0.2,0.1L453,81.8c-3.5,2.6-5.8,6.2-7,10.1l-89.9,68.7c-4.2,0-8.4,1.3-12,4l-17.4,13.2c-3.6,2.7-6,6.4-7,10.5L287,213.5
	c-11.7-12.3-23.4,10.2-31.6-13c0.1-6.7,14.6-11.5,14.5-18.1c-8.2-16.4-7.9-32.3-26.9-40c-12-4.4-16.8,34.7-33,50.1
	c2.6,7.1,7.5,14.5,5.2,21c-9,6.8-17.9,13.7-27.1,20.6c7.8,6.2,14.3,15.4,18.8,24.7c7.5-5.7,15.1-11.5,22.4-17.1
	c-2.6,4.4,0.8,9.2,3.8,13l-88.6,67.7c-4.4-0.2-8.9,1.1-12.6,3.9l-17.4,13.2c-3.8,2.9-6.2,6.9-7.2,11.3l-52,39.7
	c-17-5.2-33.4-3.9-43.5,3.8c-6.3,4.8-10.2,12-11.4,20.8c-2.2,16.8,5.6,38.7,20.9,58.7l0.1,0.1c10.3,13.1,22.5,23.7,34.6,29.8
	c20.8,10.5,33.9,4.5,39.8,0c9.8-7.5,15.4-22.6,15.2-39.8l54.6-42.1c3.3-0.4,6.5-1.7,9.3-3.8l17.4-13.2c2.9-2.2,5-5.1,6.3-8.3
	l45.9-35.3c1.8,0.5,3.6,0.7,5.5,0.7c0.2,0.3,22.3,32,23.4,33.2c7.5,8.3,17.2,6.1,19.4,5.1c6.1-2.7,24.2-15.7,24.2-15.7
	c7.2-5.5,10.6-18.1,2.1-26.4c-13.8-13.6-26.1-30.1-27.7-32.7l17.3-13.2c3.3,2.5,6.8,3.6,10.2,3.8c2.7,6.2,12.6,30,12.6,30
	c5.2,12,14.8,15.1,22,14c0,0,22.3-4.4,34.6-13.8c4.9-3.7,8.1-7.9,9.1-12.6c2.5-12.1-6.3-17.8-6.3-17.8c-1-1-7.3-10.8-8.9-16.2
	c0.2-0.6,2.3-5.4,2.3-5.4c0.3-5.3-0.7-9.4-3.3-13.7l8-6.7c6.9-5.3,7-15.8,3.3-21.2l12-9.1c3.4-2.6,5.8-6.2,6.9-10.1l90.4-68.9
	c4.1,0,8.1-1.4,11.5-4l17.4-13.4c3.4-2.6,5.8-6.2,6.9-10.1l13.1-10l0.1,0l4.8-3.7c4.4-3.3,6.6-8.8,5.8-14.5
	C577.4,108.1,605.4,94.9,628.2,17.2z M556.5,80.2c-7.1,1.3-16,2.9-23.4,7.9L521,97.3l7.5,9.9l-24,18.4l1.8,3.5l-4.8,3.7l-3-2.5
	l-119.9,91.3l1.7,3.5l-6.8,5.2l-2.8-1l-6.4,5.3c-4.4,3.3-10.3,13.3-3.8,25.1l-1,0.9c-1.7,0.3-5.2,1.1-8.9,3.9
	c-3.5,2.7-9.8,13.3-9.8,13.3l12.9,14.6c-2.4,11.1,0,19.1,9.3,34.4l-7.2,2.5L342.7,298c-3.9-9-12.1-13.1-19.5-12.5
	c-9.7-7.8-21.3-4.9-26.1-1.3l-127.8,97.9l0.5,3.1l-8.1,6.1l-2.7-1.3l-78.8,60.7c0,0,4.6,24.7-2.1,29.7c-8.2,4-27-15.7-33.9-24.4
	c-6.7-8.7-21.1-31.6-14.7-38.7c7.1-5.5,30.2,6.3,30.2,6.3L142,361l-2.6-3.8l2.8-2.2l3,3.5L353,199.7l-1.9-3.6l4.3-3.3l3,2.9
	L479,103.4l-1.8-3.4l4.8-3.6l3.1,2.5c0,0,19.6-15.1,23.4-17.9c0.3,0.3,8.8,11.5,8.8,11.5l13.4-10.3c5.1-5.4,7.7-12.2,9.9-18.2
	c1.3-3.6,0.7-20.2,51.6-30.4C571.6,84.4,558.7,79.8,556.5,80.2z"/>
</svg>
