<?xml version="1.0" encoding="utf-8"?>
<!-- Generator: Adobe Illustrator 21.1.0, SVG Export Plug-In . SVG Version: 6.00 Build 0)  -->
<svg version="1.1" id="Layer_4" xmlns="http://www.w3.org/2000/svg" xmlns:xlink="http://www.w3.org/1999/xlink" x="0px" y="0px"
	 viewBox="0 0 512 512" style="enable-background:new 0 0 512 512;" xml:space="preserve">
<path id="_x33_2" d="M511.1,199.4c-4.9-45.1-82.3-70.3-82.3-70.3s12.9-10.9,29-16c18.6-5.9,40.8-6,40.8-6S481.8,82.9,463.2,77
	c-19.4-6.2-40.8,6-40.8,6s-6.3-23.3-26.6-43.2c-21.6-21.1-57.2-38.7-57.2-38.7s10.7,24.6,16.5,44.7c3.1,10.8,3.1,23.1,3.1,23.1
	s-32.8-21.3-65.9-25.7c-30.3-4-61.2,8.9-61.2,8.9l99.7,44.3c0,0-62.5,9.9-76.9,46.5c-10.1,25.6,3.3,62.7,8.8,75.9
	c-26.6-21-61-33.8-98.9-35c0-3.1-2.6-7.8-8.1-7.8c-3.9,0-7.9,3.5-7.9,7.8c-76.4,4-138.3,54.8-147.7,125
	c28.3-25.9,64.4-16.2,78.5-2.8c13.8-13.4,44.5-22.9,70.1-4v210h16.6V302.9c22.1-16.9,51.8-15.2,71.3,2.9
	c16.5-12.7,36-17.5,54.9-11.5C268.7,369,242.7,512,242.7,512h46c0,0,17.8-186.5,34.8-238.1c19.6-59.2,57.3-114.3,57.3-114.3
	s18.4,22.7,18,56.2c-0.4,37.1-19.6,85.2-19.6,85.2s44.7-7,56.5-43.6c10-30.9-12.5-92.3-12.5-92.3s25,8.6,45.4,28.6
	c21.4,20.9,38.5,53.2,38.5,53.2S514.6,232.8,511.1,199.4z M236.8,285.1c-23.8-14.5-56.7-13.5-79.3,2.6
	c-22.6-15.6-53.3-18.6-79.7-2.4c-13.9-8.2-35.8-12.1-51.5-8.5c5.5-14,40.9-76.5,130.9-76.5c82.4,0,123.5,55.4,130.6,76
	C276.6,273.5,252.7,275.6,236.8,285.1z M301.7,265.3c-0.1,0.2-0.2,0.4-0.3,0.6c-8.7-17.2-21-32.3-35.9-44.7
	c3.1-9.2,14.8-41.6,32.2-61.2c14.7-16.6,39.3-17.5,39.3-17.5l29,11.3C356,167.5,324.3,212.9,301.7,265.3z"/>
</svg>
