<?xml version="1.0" encoding="utf-8"?>
<!-- Generator: Adobe Illustrator 21.1.0, SVG Export Plug-In . SVG Version: 6.00 Build 0)  -->
<svg version="1.1" id="Layer_4" xmlns="http://www.w3.org/2000/svg" xmlns:xlink="http://www.w3.org/1999/xlink" x="0px" y="0px"
	 viewBox="0 0 512 512" style="enable-background:new 0 0 512 512;" xml:space="preserve">
<path d="M129,175.1c0,0-0.5-0.5-1.1-1l-89.2,11.1c3.8,4.2,8.5,9.6,13.5,16.1l88.4-12.5C134,180.7,129.1,175.2,129,175.1z M129,175.1
	c0,0-0.5-0.5-1.1-1l-89.2,11.1c3.8,4.2,8.5,9.6,13.5,16.1l88.4-12.5C134,180.7,129.1,175.2,129,175.1z M129,175.1c0,0-0.5-0.5-1.1-1
	l-89.2,11.1c3.8,4.2,8.5,9.6,13.5,16.1l88.4-12.5C134,180.7,129.1,175.2,129,175.1z M144.7,193.9L56.6,207
	c3.6,4.9,7.2,10.2,10.6,15.8l88.5-14.3C152,203.3,148.2,198.4,144.7,193.9z M168.3,228c-2.6-4.6-5.6-9.4-8.8-14.1l-89.3,14
	c2.7,4.8,5.2,9.8,7.3,14.8c0.2,0.4,0.4,0.9,0.5,1.4l91.1-14.6C168.8,229,168.6,228.5,168.3,228z M172.2,235.3l-90.9,17.2
	c2.5,6.4,4.8,12.9,7.1,19.3l92.1-19.5C178.1,247,175.4,241.3,172.2,235.3z M183.7,259.6l-92.1,21.3c0.2,0.7,0.5,1.4,0.7,2.1
	c1.8,5.1,3.6,10.2,5.4,15.4l92.6-22.1C188.5,271.2,186.3,265.6,183.7,259.6z M308.6,345.2c-7.9,1-15.6,1.9-23.3,2.3l-51.9,23.1
	c12.7-0.3,26.3,0.1,39.8,2.3l64.1-29.8C327.5,343,318,344,308.6,345.2z M352.2,343.9l-66.1,31.7c8.2,2.2,16.4,5.2,24.1,9.3
	l69.9-33.3C370.5,347.3,361.2,345,352.2,343.9z M389.6,356.1l-70.8,33.8c5.5,3.5,11.2,7.6,17,12.1l73.6-34.9
	C403.2,363.5,396.6,359.8,389.6,356.1z M417.1,371.6l-74.6,35.7c5.1,4.2,10.2,8.6,15.3,13.2l77.2-37.7
	C429.5,379.2,423.6,375.5,417.1,371.6z M442.1,387.6l-77.5,39.3c5,4.7,9.9,9.4,14.6,14.1l80.2-41C454.2,396,448.5,391.9,442.1,387.6
	z M465.6,404.8l-79.3,43.3c5,5.1,9.8,10.1,14.1,14.8l80.2-45.3C476.4,413.7,471.4,409.4,465.6,404.8z M486.6,423.2l-79.4,47
	c5.6,6.2,10.3,11.4,13.5,15.1l79.9-47.6C497.6,434.4,493.2,429.5,486.6,423.2z M486.6,423.2l-79.4,47c5.6,6.2,10.3,11.4,13.5,15.1
	l79.9-47.6C497.6,434.4,493.2,429.5,486.6,423.2z M465.6,404.8l-79.3,43.3c5,5.1,9.8,10.1,14.1,14.8l80.2-45.3
	C476.4,413.7,471.4,409.4,465.6,404.8z M442.1,387.6l-77.5,39.3c5,4.7,9.9,9.4,14.6,14.1l80.2-41C454.2,396,448.5,391.9,442.1,387.6
	z M417.1,371.6l-74.6,35.7c5.1,4.2,10.2,8.6,15.3,13.2l77.2-37.7C429.5,379.2,423.6,375.5,417.1,371.6z M389.6,356.1l-70.8,33.8
	c5.5,3.5,11.2,7.6,17,12.1l73.6-34.9C403.2,363.5,396.6,359.8,389.6,356.1z M352.2,343.9l-66.1,31.7c8.2,2.2,16.4,5.2,24.1,9.3
	l69.9-33.3C370.5,347.3,361.2,345,352.2,343.9z M308.6,345.2c-7.9,1-15.6,1.9-23.3,2.3l-51.9,23.1c12.7-0.3,26.3,0.1,39.8,2.3
	l64.1-29.8C327.5,343,318,344,308.6,345.2z M91.7,280.9c0.2,0.7,0.5,1.4,0.7,2.1c1.8,5.1,3.6,10.2,5.4,15.4l92.6-22.1
	c-2-5.1-4.2-10.7-6.7-16.7L91.7,280.9z M172.2,235.3l-90.9,17.2c2.5,6.4,4.8,12.9,7.1,19.3l92.1-19.5
	C178.1,247,175.4,241.3,172.2,235.3z M168.3,228c-2.6-4.6-5.6-9.4-8.8-14.1l-89.3,14c2.7,4.8,5.2,9.8,7.3,14.8
	c0.2,0.4,0.4,0.9,0.5,1.4l91.1-14.6C168.8,229,168.6,228.5,168.3,228z M144.7,193.9L56.6,207c3.6,4.9,7.2,10.2,10.6,15.8l88.5-14.3
	C152,203.3,148.2,198.4,144.7,193.9z M129,175.1c0,0-0.5-0.5-1.1-1l-89.2,11.1c3.8,4.2,8.5,9.6,13.5,16.1l88.4-12.5
	C134,180.7,129.1,175.2,129,175.1z M506.8,428.7c-17.4-19.4-42.3-39.6-70.6-57.1c-17.9-11.1-37.1-21.1-56.5-29.1
	c-4.9-2.2-9.5-4-13.8-5.3c-4.7-1.7-9.5-3.3-14.2-4.7c-0.2-0.1-0.7-0.2-1.7-0.5c-3.9-1.2-9.7-2.8-12.9-5
	c-9.6-7.2-19.7-13.9-30.3-19.6c-10.7-5.8-22-10.6-33.8-13.8c-12.7-3.5-25.2-5.1-36.5-5.4c-11.7-0.2-22.1,1.1-30.1,3.3
	c-0.7-1.6-1.5-3.8-2.4-6.1c-12.4-31.4-30.2-76.4-56.4-102c-7.3-7.1-12.1-11.6-16.7-14.3c-4.9-2.8-9.4-3.4-15.9-2.6
	c-2.5,0.2-6.3,0.6-10.8,1c-20.3,1.9-69.2,5.4-88.4,7.6c-0.1,0-0.1,0-0.2,0c-12.8,1.5-20,16.4-12.3,26.7
	c48.4,64.3,50.3,87.1,63.9,124.4c0,0-0.9,0.4-1.2,0.5c-10.3,3.8-19.5,9.3-27.9,16.1c-10.9,8.8-20.2,19.7-28.1,31.3
	c-0.3,0.4-0.7,1-1.1,1.5c-1.9,2.7-4.2,5.9-5.2,9.1c-1.4,4.5-0.4,8.5,6.1,10.5c9.7,2.9,12.5-1.5,16.6-8c0.6-1,1.3-2.1,2-3
	c7.2-10.5,14.5-19.2,23.1-26c5.1-4.1,10.8-7.4,17.1-10c3.2-1.3,4.7-2.2,7.2-3.1c44.1,66,72.8,63.4,159,66.7h0
	c6.9,8.3,14.9,18.8,22.4,29.7c11,15.8,21.1,32.4,26.3,44.2l0.5,1.1l1.1,0.4c0.9,0.3,1.2,0.4,1.3,0.5h0c0,0,0,0,0,0h0l0,0
	c0,0,0,0,0.1,0c4.8,1.8,8.2,3.1,12.3,2.9c1.9-0.1,5.1-1,7.6-2.3c2.3-1.2,4.3-2.8,5-4.7l0.4-1.1l-0.6-1.1
	c-6.4-12.4-15.8-26.9-25.5-40.6c-8.2-11.6-16.6-22.7-23.6-31.5c38.3-4.9,113.4,84,121.1,92.3c5.7,6.2,10,9.4,14.5,10.2
	c4.7,0.9,9-0.9,14.9-4.6l90.1-57.3c5.1-3.2,8.1-5.9,9-9.3C512.7,437.1,511.1,433.4,506.8,428.7z M236.3,293.5
	c10.8,0.2,22.9,1.8,35.1,5.2c11.3,3.1,22.2,7.8,32.7,13.4c10.5,5.6,20.4,12.2,29.8,19.2l0.1,0.1c0.8,0.5,1.7,1,2.7,1.5
	c-6.7,0.2-12.9,1.1-18.8,2.2c-11.2-11.5-29.7-21.2-49.7-26.7c-18.7-5.1-38.8-6.7-55.8-2.7c-0.5-1-1-2.1-1.6-3.3
	c-0.9-1.9-1.7-3.8-2.4-5.8C215.7,294.4,225.4,293.3,236.3,293.5z M311.4,336.3c-0.9,0.2-1.8,0.4-2.8,0.6l-0.2,0
	c-19.7,4-38.9,3.1-55-1.4c-17.7-4.9-31.7-13.9-38.4-25.1c15.8-3.3,34.4-1.8,51.7,3C284.4,318.3,300.7,326.5,311.4,336.3z M187,383
	c-0.3,0-0.6,0-0.8,0c-40.6,0-71-19.2-80.2-38.3c-0.5-1.1-1.1-2.2-1.6-3.3h11c1.2,2.3,2.9,4.7,4.9,7l9.7-3.2
	c5.9,1.4,11.8,3.1,17.6,5.2l-17.8,6.4c7.4,5.2,16.8,9.7,27.8,12.6c0,0,0,0,0,0l16.7-6.9c3.3,1.8,6.6,3.8,9.9,5.8l-9.2,4.2
	c3.6,0.3,7.3,0.5,11.1,0.5c0.3,0,0.5,0,0.8,0c1.7,0,3.5-0.1,5.4-0.1h0l11.2,9.3C197.3,382.6,191.9,382.9,187,383z M281.4,443.9
	c9.2,13,18.1,26.7,24.3,38.5c-0.4,0.4-1.1,0.7-1.8,1.1c-1.9,1-4.1,1.6-5.4,1.7c-3,0.1-6-1-10.2-2.6l-0.4-0.1
	c-5.4-12.1-15.5-28.5-26.3-44.1c-12.2-17.5-25.3-34.1-34-42.4c-6.6-6.7-13.8-13.1-21.5-19l0-0.1l-0.1,0c-14.2-11-30-20.6-46.5-27.6
	c-25.2-10.8-51.8-15.7-76.3-11l0,0l-2.2,0.5c-0.6,0.1-1.1,0.3-1.7,0.4c-0.5,0.1-1.1,0.3-1.6,0.4v0c-11.7,3-21.2,7.9-29.6,14.5
	c-9.1,7.2-16.8,16.3-24.2,27.2c-0.8,1.2-1.5,2.2-2.1,3.2c-2.9,4.5-4.8,7.5-10.6,5.7c-2.6-0.8-3-2.2-2.5-3.8c0.7-2.4,2.7-5.2,4.4-7.5
	c0.4-0.5,0.7-1.1,1.1-1.6c7.7-11.2,16.7-21.7,27.1-30.1c9-7.3,19.1-13.1,30.5-16.6c0.7-0.2,1.4-0.4,2.1-0.6c1.2-0.3,2.2-0.6,3.1-0.8
	c1.4-0.3,2.9-0.7,4.3-1c1.4-0.3,2.8-0.5,4.4-0.8c1.7-0.3,3.5-0.5,5.3-0.8c1.8-0.2,3.6-0.4,5.4-0.5c26.8-2,54.2,4.5,80.2,17.6
	c27.2,13.8,52.9,34.8,74.8,60.9h0C259.1,413.8,270.4,428.4,281.4,443.9z M506,440.5c-1,1.4-3,3-6.1,4.9l-78.5,49.5l0,0
	c-2,1.2-4.7,0.9-6.3-1c-13.8-15.8-68.8-77.4-107.2-99c-20.9-11.8-45.3-14.5-67.8-14.5l-8.8-8.9l-3,1.3c-1.7-1.5-3.4-3-5.2-4.5
	l46.1-21.1c-8.8-0.8-17.8-2.9-26.9-7l-34.8,15.9c-2.5-1.8-5.1-3.6-7.6-5.3l35.1-14.5c-7-3.9-12.5-7.9-17.2-12.2l-39.6,14.1
	c-4.1-2-8.1-3.9-12.2-5.6l46.1-14.3c-4.1-4.6-7.2-9.6-10-14.9l-67.7,19.5c-6.2-1.2-12.3-2.1-18.5-2.5l83.9-21.6
	c-2.4-5.1-4.5-10.5-6.8-16.4l-92.5,22.9c1.8,4.9,3.7,9.7,5.6,14.6H95.4c-4.5-11.4-8.5-22.7-12.3-33.8c-4.6-13.1-9.3-26.7-14.8-39.8
	c-13.1-31.6-44.1-62.3-44.4-62.6c-0.3-0.4-0.4-0.8-0.4-1.2c0-0.9,0.7-1.8,1.7-2l2.2-0.3c0,0,0,0,0,0c1-0.2,2-0.3,3.1-0.4
	c0.6-0.1,1.1-0.1,1.7-0.2c19.9-2.2,54.5-5.5,74-7.4c4.6-0.4,13.8-1.4,18.5-1.8c1.2-0.1,2.5-0.2,4.7,0.3c1.6,0.3,2.7,1.5,2.7,1.5
	c0.1,0.1,7.3,8.2,16.1,19.3c0.4,0.5,0.9,1,1.3,1.5l-0.1,0c7.7,9.9,16.4,21.9,22.5,32.9c11.8,21.2,18.4,38.3,23.7,52
	c9.8,25.4,15.7,40.7,42.9,55.7c23.9,13.1,46.1,10.3,69.7,7.5c25.6-3.1,52-5.4,82.7,10.9c86.3,46,105.2,75.7,115.3,85.3
	C506.9,438.3,506.9,439.7,506,440.5z M486.6,423.2l-79.4,47c5.6,6.2,10.3,11.4,13.5,15.1l79.9-47.6
	C497.6,434.4,493.2,429.5,486.6,423.2z M465.6,404.8l-79.3,43.3c5,5.1,9.8,10.1,14.1,14.8l80.2-45.3
	C476.4,413.7,471.4,409.4,465.6,404.8z M442.1,387.6l-77.5,39.3c5,4.7,9.9,9.4,14.6,14.1l80.2-41C454.2,396,448.5,391.9,442.1,387.6
	z M417.1,371.6l-74.6,35.7c5.1,4.2,10.2,8.6,15.3,13.2l77.2-37.7C429.5,379.2,423.6,375.5,417.1,371.6z M389.6,356.1l-70.8,33.8
	c5.5,3.5,11.2,7.6,17,12.1l73.6-34.9C403.2,363.5,396.6,359.8,389.6,356.1z M352.2,343.9l-66.1,31.7c8.2,2.2,16.4,5.2,24.1,9.3
	l69.9-33.3C370.5,347.3,361.2,345,352.2,343.9z M308.6,345.2c-7.9,1-15.6,1.9-23.3,2.3l-51.9,23.1c12.7-0.3,26.3,0.1,39.8,2.3
	l64.1-29.8C327.5,343,318,344,308.6,345.2z M91.7,280.9c0.2,0.7,0.5,1.4,0.7,2.1c1.8,5.1,3.6,10.2,5.4,15.4l92.6-22.1
	c-2-5.1-4.2-10.7-6.7-16.7L91.7,280.9z M172.2,235.3l-90.9,17.2c2.5,6.4,4.8,12.9,7.1,19.3l92.1-19.5
	C178.1,247,175.4,241.3,172.2,235.3z M168.3,228c-2.6-4.6-5.6-9.4-8.8-14.1l-89.3,14c2.7,4.8,5.2,9.8,7.3,14.8
	c0.2,0.4,0.4,0.9,0.5,1.4l91.1-14.6C168.8,229,168.6,228.5,168.3,228z M144.7,193.9L56.6,207c3.6,4.9,7.2,10.2,10.6,15.8l88.5-14.3
	C152,203.3,148.2,198.4,144.7,193.9z M129,175.1c0,0-0.5-0.5-1.1-1l-89.2,11.1c3.8,4.2,8.5,9.6,13.5,16.1l88.4-12.5
	C134,180.7,129.1,175.2,129,175.1z M129,175.1c0,0-0.5-0.5-1.1-1l-89.2,11.1c3.8,4.2,8.5,9.6,13.5,16.1l88.4-12.5
	C134,180.7,129.1,175.2,129,175.1z M144.7,193.9L56.6,207c3.6,4.9,7.2,10.2,10.6,15.8l88.5-14.3C152,203.3,148.2,198.4,144.7,193.9z
	 M168.3,228c-2.6-4.6-5.6-9.4-8.8-14.1l-89.3,14c2.7,4.8,5.2,9.8,7.3,14.8c0.2,0.4,0.4,0.9,0.5,1.4l91.1-14.6
	C168.8,229,168.6,228.5,168.3,228z M172.2,235.3l-90.9,17.2c2.5,6.4,4.8,12.9,7.1,19.3l92.1-19.5C178.1,247,175.4,241.3,172.2,235.3
	z M183.7,259.6l-92.1,21.3c0.2,0.7,0.5,1.4,0.7,2.1c1.8,5.1,3.6,10.2,5.4,15.4l92.6-22.1C188.5,271.2,186.3,265.6,183.7,259.6z
	 M308.6,345.2c-7.9,1-15.6,1.9-23.3,2.3l-51.9,23.1c12.7-0.3,26.3,0.1,39.8,2.3l64.1-29.8C327.5,343,318,344,308.6,345.2z
	 M183.7,259.6l-92.1,21.3c0.2,0.7,0.5,1.4,0.7,2.1c1.8,5.1,3.6,10.2,5.4,15.4l92.6-22.1C188.5,271.2,186.3,265.6,183.7,259.6z
	 M172.2,235.3l-90.9,17.2c2.5,6.4,4.8,12.9,7.1,19.3l92.1-19.5C178.1,247,175.4,241.3,172.2,235.3z M168.3,228
	c-2.6-4.6-5.6-9.4-8.8-14.1l-89.3,14c2.7,4.8,5.2,9.8,7.3,14.8c0.2,0.4,0.4,0.9,0.5,1.4l91.1-14.6C168.8,229,168.6,228.5,168.3,228z
	 M144.7,193.9L56.6,207c3.6,4.9,7.2,10.2,10.6,15.8l88.5-14.3C152,203.3,148.2,198.4,144.7,193.9z M129,175.1c0,0-0.5-0.5-1.1-1
	l-89.2,11.1c3.8,4.2,8.5,9.6,13.5,16.1l88.4-12.5C134,180.7,129.1,175.2,129,175.1z"/>
<path d="M511.4,100c-1.4-9-5.2-17.9-11.4-26.7c-4.3-5.8-9.4-10.7-15.7-14.8c-5.6-4.1-12.1-7.3-19.4-9.4c-6.8-2.2-13.9-3.3-21.5-3.3
	c-7.3,0-14.5,1-21.5,2.9v-1.2l-0.4-0.4v-0.4c4.8-1.1,10.8-2.1,18.2-2.9c1.2,0,2.5-0.2,4.2-0.4l4.7-0.4c3.9-0.3,6.9-0.6,8.8-0.8
	c-5.7-4.4-11.4-7.5-17.3-9.4c-7-1.9-13.6-2.1-19.8-0.4c-6.5,0.6-12.8,3.5-19,9c-2,1.7-4.7,4.1-8,7.4l-1.7,2.1l-2.1,1.7
	c-1.4,1.7-2.7,2.9-3.8,3.7c0.3-0.6,0.6-1.4,0.8-2.5l0.8-2.5c0.8-2.2,1.6-4,2.1-5.4c2-3.6,4.8-5.5,8.4-5.8l-1.7-3.7
	c0.6,0,1.4-0.2,2.5-0.4c0.3,0,0.8-0.2,1.3-0.4h1.7c2.5-0.6,4.2-1,5.1-1.2c-0.6-0.3-1.4-0.8-2.5-1.6c-0.3-0.3-0.7-0.6-1.3-0.8
	l-1.3-1.2c-2.5-1.7-4.3-2.7-5.1-3.3c2.8,0.3,6.3,0.7,10.6,1.2l5.5,0.4c2.3,0.2,4.1,0.4,5.5,0.4c-0.8-0.3-1.8-0.8-2.9-1.6
	c-0.3-0.3-0.7-0.7-1.3-1.3l-1.7-1.2c-2.8-1.9-4.8-3.3-5.9-4.1c4.8-0.3,9.8-0.4,15.2-0.4c-0.6-0.6-1.6-1.7-2.9-3.7l-0.4-0.8l-0.8-0.8
	c-0.6-0.8-1-1.4-1.3-1.6c1.7-0.3,4.1-0.4,7.2-0.4c2.8-0.3,5.1-0.4,6.7-0.4c-0.8-0.6-2.4-1.5-4.7-2.9L423.9,9l-0.4-0.4l-0.8-0.4
	c-0.8-0.6-1.5-1-2.1-1.2c1.7-0.3,4.1-0.6,7.2-0.8c2.8-0.6,5.1-1,6.7-1.2c-2.3-2.2-5.5-3.4-9.7-3.7h-5.5l-1.3,0.4h-3.8
	c-10.4,1.1-20.1,5.2-29.1,12.3c-8.2,6.3-15.1,14.4-20.6,24.3c-0.6-2.2-1.3-4.6-2.1-7.4l-2.1-7.5c-0.6,1.4-1.2,3.1-1.7,5
	c-0.6,2.2-1,3.8-1.3,5c-0.8-1.1-2-3-3.4-5.8l-0.8-1.7c-0.3-0.6-0.6-1-0.8-1.2c-0.6-1.1-1-2.1-1.3-2.9c-1.1-0.3-2.3-0.7-3.3-1.2
	l-3.4-1.7c-2.5-1.4-4.7-2.3-6.3-2.9c-5.3-2.2-10.2-3.3-14.3-3.3c1.2,0.8,3.3,2.5,6.3,5l0.8,0.8l0.8,0.4c0.6,0.6,1,1,1.3,1.2
	c1.4,1.1,2.4,1.9,2.9,2.5c-1.1,0-2.5,0.2-4.3,0.4h-5c-4.8,0.3-8,0.4-9.7,0.4c2.3,0.8,4.9,1.7,8,2.5c3.4,0.8,5.9,1.5,7.6,2.1
	c-0.8,0.6-2.3,1.2-4.3,2.1c-0.8,0.3-1.7,0.6-2.5,0.8c-0.6,0.3-1.2,0.6-1.7,0.8c4.3,2.2,9,4.4,14.3,6.6c-0.8,0.3-2.1,0.4-3.8,0.4
	c-0.6,0.3-1.1,0.4-1.7,0.4h-1.3l-0.4,0.4c0,0.3,0.3,1,0.8,2.1c0,0.3,0.2,0.7,0.4,1.2l0.8,1.2c0.8,2.2,1.6,3.7,2.1,4.5
	c-14.3-5.2-28.8-7.3-43.5-6.2c-15.7,1.1-29.5,5.6-41.3,13.6l-2.5,1.7l-2.1,1.7c-2,1.4-3.7,2.6-5.1,3.7c-3.3,2.5-6.3,5-8.8,7.4
	c-6.5,5.8-9.7,8.6-9.7,8.6s-0.6,3.7-2.5,10.6c-5.3,16.5-6.6,32.7-3.8,48.5c3.3-10.2,6.5-18.7,9.2-25.5c1.2,3.3,2.8,8.1,5.1,14.4
	c1.2-10.7,2.9-19.4,5.5-26.3l3.4,8.6l3.3,8.2l0.4-2.9l0.4-2.9c0.3-2.5,0.6-4.5,0.8-6.2c0.8-4.4,1.7-8.3,2.5-11.9
	c0.8,1.9,1.6,4.1,2.1,6.6l0.8,3.3l0.8,3.3c1.4,5.5,2.7,9.8,3.8,12.7c1.2-3.6,2-9,2.5-16.5l0.4-4.1c0-1.7,0.2-3.2,0.4-4.5
	c0.3-3,0.8-5.8,1.7-8.2c0.3,1.4,0.8,4.1,1.7,8.2l0.4,2.5c0.3,0.8,0.4,1.5,0.4,2.1c0.6,1.7,0.8,2.9,0.8,3.7c0.8-1.4,1.6-2.9,2.1-4.5
	l2.1-5c2-4.1,3.3-7.3,4.2-9.4l0.4,2.9v7.5c0.3,3.9,0.8,7.3,1.3,10.3c1.2-2.7,2.1-6.2,2.9-10.3c0.3-1.3,0.8-3.1,1.3-5.4l0.4-2.9
	l0.8-2.5c0.6,2.2,1.6,5.8,2.9,10.7l1.3,5.4c0.6,2.2,1.2,4.1,1.7,5.8c0.6-1.9,1.2-4.2,1.7-7l2.1-7.4c1.4-5.5,2.7-10.2,3.8-14
	c0,1.7,0.2,3.6,0.4,5.8l0.4,5.8c0.3,4.6,0.6,8.5,0.8,11.5c2-0.8,3.3-1.9,3.8-3.3c0.3-1.1,0.4-2.7,0.4-5V89c0-0.8,0.2-1.7,0.4-2.5
	c0.3-1.3,1.2-2.5,2.5-3.3c0.3,0.6,0.6,1.4,0.8,2.5l0.4,0.8l0.4,0.4c0,0.6,0.2,1,0.4,1.2l8.4-1.7c-4.8,5.2-9.8,10-15.2,14.4
	c-7,9.6-11.8,19.6-14.3,30c-2.8,11.5-2.7,22.7,0.4,33.3c1.2,3.9,2.3,6.9,3.3,9c1.2,3.6,2.5,6.6,4.2,9c3.9,6.6,8.8,10.8,14.7,12.7
	c-2.5-5-6.1-11-10.6-18.1c6.5,3.5,11.5,6.2,15.2,7.9c-2.8-4.1-5.9-8.6-9.2-13.6l7.6,1.7c-1.1-2.5-2.5-5.4-4.3-8.6l-2.1-4.1l-1.7-4.5
	c1.1,0.3,3.1,0.8,5.9,1.6c0.8,0.3,1.8,0.6,2.9,0.8h1.7c0.3,0.3,0.8,0.4,1.3,0.4l-6.7-7.8l10.2-9.4l-3,13.1c1.4-1.1,3-2.1,4.7-3.3
	l4.3-2.9c3.7-2.7,6.5-5,8.4-6.6c-1.7,4.1-4.7,9.6-8.8,16.5l-2.1,3.7c-0.8,1.6-1.7,3.1-2.5,4.1c-1.7,3.1-3.1,5.8-4.2,8.2
	c1.2-0.8,2.5-1.9,4.2-3.3l2.1-1.6l1.7-1.7c3.3-2.5,6.2-4.5,8.4-6.2c-1.4,3.8-3.3,8.8-5.5,14.8l-2.9,7.4c-1.4,2.7-2.4,5.2-2.9,7.4
	c0.6-0.6,1.2-1.4,2.1-2.5c0.6-0.3,1.2-0.7,1.7-1.2l0.8-0.8l0.4-0.8c1.4-1.4,2.4-2.3,3-2.9c1.2-0.8,2-1.5,2.5-2.1
	c-2,10.7-3.3,21.5-3.8,32.5c1.2-2.5,2.8-6.3,5.1-11.5c0.6-1.1,1.2-2.2,1.7-3.3c0-0.6,0.2-1.1,0.4-1.7l0.4-0.8l0.4-0.8
	c1.1-2.5,1.8-4.2,2.1-5.4c2,10.7,4.3,20.8,7.2,30.4c1.4-1.7,2.5-3.8,3.4-6.6c0.6-1.9,0.8-4.4,0.8-7.4l0.4-1.7v-2.1
	c0-1.6,0.2-3,0.4-4.1c0.3-2.7,0.8-5.2,1.3-7.4c0.8,1.7,1.8,3.8,2.9,6.6l1.3,2.9l1.3,3.3c2,5,3.8,9,5.5,12.3c0.3-4.6,0.3-11.1,0-19.4
	l-0.4-4.5c-0.3-1.9-0.4-3.6-0.4-5v-9.5l2.1,4.5l2.1,4.6c2,3.8,3.5,6.9,4.7,9c0.3-3.3,0.2-7.9-0.4-14v-3.3l-0.4-3.7v-6.6
	c1.7,6.3,4.1,14.4,7.2,24.3c1.4,3.8,2.9,8.4,4.7,13.6c0.8,1.9,1.7,4.2,2.5,7l1.3,3.3l1.3,3.7c4.2,12.3,7.5,21.8,9.7,28.4
	c3.4,10.2,5.9,18.8,7.6,25.9c5,25.1,8.3,53.4,10,84.8l26.5,15.9c-1.6-26.1-5.1-54.9-10.4-86.3c-3.9-19.8-9.7-40.8-17.3-63.3
	c-1.4-4.1-2.9-8.9-4.7-14.4l-2.5-7l-2.5-7.4c-4.3-12.3-7.4-22.3-9.7-29.6c-1.4-7.4-0.3-16.9,3.4-28.4c0.6,1.4,1.4,3.2,2.5,5.4
	c1.1,2.2,2.1,4,2.9,5.4c0-4.6,0.2-9.4,0.4-14.4c1.7,6.3,3.3,12.7,5.1,18.9c0.6-1.6,1.2-3.8,1.7-6.6c0.8-2.7,1.6-5,2.1-6.6
	c2,10.2,3.4,19.6,4.3,28.4c2.3-4.4,4.5-8.8,6.7-13.1c0.8,4.6,1.3,8.6,1.3,11.9c0.3,4.1-0.2,7.9-1.3,11.5c1.2-1.6,2.4-3.3,3.8-5
	c1.7-2.2,2.9-3.8,3.8-5v12.8c0,5.8,0.2,10,0.4,12.7c1.2-2.2,2.5-5.2,4.3-9l0.8-2.1l1.3-2.5c0.8-1.9,1.6-3.4,2.1-4.5
	c2,5,3.1,10.6,3.4,16.9c0,4.4-0.7,10-2.1,16.9c2.8-2.2,4.8-4.8,5.9-7.9c1.2-2.7,2-6,2.5-9.8v-10.3c0-4.4,0.2-7.7,0.4-9.8
	c0.6,1.1,1.2,2.3,1.7,3.7c0.3,1.1,0.8,2.7,1.7,4.6l0.4,1.2l0.8,0.8c0.3,0.8,0.6,1.7,0.8,2.5c0.6,1.4,1.2,2.5,1.7,3.3
	c2-4.1,2.1-9.3,0.4-15.6c-0.2-1.1-0.6-2.5-0.8-4.1l-0.8-2.1l-0.8-1.6c-1.1-3.6-1.8-6.2-2.1-7.9c1.2,1.1,3.3,3.6,6.7,7.4l0.8,0.8
	l1.3,1.2c0.6,0.8,1.2,1.5,1.7,2.1c1.4,1.4,2.4,2.5,2.9,3.3c-3.4-9.8-7.4-19.4-12.2-28.4c2.3,1.7,4.8,3.5,7.6,5.4l4.3,2.5l3.8,2.9
	c-0.3-1.6-1.3-3.7-2.9-6.2l-0.8-1.2l-1.3-1.7c-0.8-1.1-1.4-2.1-1.7-2.9c-1.7-2.2-2.7-4.2-2.9-6.2c-0.6-2.1-0.4-4.4,0.4-6.6l-7.2,3.7
	c0.8-0.6,2-1.5,3.4-2.9c1.2-1.1,2.1-2.1,2.9-2.9c-0.8-0.8-2-1.9-3.4-3.3l-1.3-0.8l-0.8-0.4c-0.6-0.8-1.2-1.3-1.7-1.7
	c-2.8-2.7-4.3-5.5-4.7-8.2c-0.3-2.5-1.1-4.8-2.5-7c-1.4-1.7-3.3-3.3-5.9-5c-0.8-0.6-2-1.1-3.3-1.6l-1.7-1.2l-1.7-0.8
	c-3.1-1.7-5.3-2.9-6.8-3.7c1.2,0.3,2.8,0.8,5.1,1.7l2.5,0.4c0.8,0.6,1.7,1,2.5,1.3c3.9,1.1,6.9,2.7,8.8,5c0.3,0,0.6,0.2,0.8,0.4v0.4
	l0.4,0.4c0.6,0.6,1,0.7,1.3,0.4v-2.5c-0.3-1.4-0.3-2.1,0-2.5c0-0.3,0.6,1,1.7,3.7l0.4,0.8v0.8c0.3,0.8,0.6,1.4,0.8,1.6
	c0.3,1.1,0.6,1.8,0.8,2.1V107c0.3,0,0.4-0.2,0.4-0.4v-0.8c0.3-1.6,0.6-2.3,0.8-2.1v2.9c0.3,1.1,0.4,1.8,0.4,2.1v1.2l1.2,0.8v-1.2
	l0.4-0.4c0-1.4,0.2-1.9,0.4-1.7l0.8,3.3c0.3,1.1,0.4,1.8,0.4,2.1l0.4,1.2c0.3,0.3,0.4,0.2,0.4-0.4c0.3-0.3,0.4-0.7,0.4-1.2v-1.3
	c0.6-1.9,0.8-2.7,0.8-2.5c0.3,0,0.6,0.6,0.8,1.7v1.6l0.4,0.8v0.8c0.6,3.1,1,4.6,1.3,5c0,0.3,0.2-0.4,0.4-2.1
	c0.3-0.8,0.4-1.4,0.4-1.6l0.4-0.4c0.3,0.3,0.4,0.8,0.4,1.7c0.3,0.3,0.4,0.7,0.4,1.2v0.8l0.4,0.4c0.3,2.7,0.6,4.1,0.8,4.1
	c0.6,0.6,1.2,1.2,1.7,2.1v-5.4c0.3,0.2,0.6,0.8,0.8,1.7c0.3,0.6,0.4,1.1,0.4,1.6l0.4,0.8l0.4,0.4c0.8,3.1,1.4,4.6,1.7,5
	c0.3,0,0.6-0.6,0.8-1.7V126c0-0.6,0.2-0.7,0.4-0.4l0.4,1.2c0.3,0.3,0.4,0.6,0.4,0.8l0.4,0.8v0.4l1.3,3.3c0.3,0.3,0.6-0.2,0.8-1.2
	v-1.2c0-0.2,0.2-0.4,0.4-0.4l0.4,0.8c0,0.2,0.2,0.6,0.4,0.8l0.4,0.8c0.3,1.6,0.6,2.6,0.8,2.9c0.6,0.2,1.2,0.6,1.7,0.8
	c0.6-6.6-2.1-15.2-8-25.9c-2.5-4.1-5.3-8.5-8.4-13.1c-2.5-3.6-5.3-7-8-10.3c0-1.3-0.2-3.3-0.4-5.8v-5.8c1.7,3.8,4.1,9.4,7.2,16.9
	c0-0.2,0.2-0.6,0.4-0.8c0-0.3,0.2-0.7,0.4-1.2c0.3-1.1,0.8-2.1,1.3-2.9c0.8-2.5,1.6-4.4,2.1-5.8c1.7,5,3.5,9.8,5.5,14.8v-2.5
	c0-0.3-0.2-0.7-0.4-1.2v-6.6c0.3,0.3,0.6,0.4,0.8,0.4c0.2,0.3,0.6,0.6,0.8,0.8c0.8,0.3,1.6,0.6,2.1,0.8c1.7,1.1,2.9,1.8,3.8,2.1
	c1.4-1.9,3.3-4.8,5.9-8.6c-0.3,7.1-0.8,14.8-1.7,23.1l2.5-4.1l2.5-3.7c2-2.7,3.7-5.2,5.1-7.4c0.6,6.9,1,13.3,1.3,19.3
	c1.2-1.1,2.5-2.5,4.3-4.1c1.4-1.9,2.7-3.4,3.8-4.5v4.5c0,0.6,0.2,1.4,0.4,2.5v2.9c0,4.6,0.2,7.9,0.4,9.4c0.3-0.6,0.8-1.5,1.7-2.9
	c0.3-0.6,0.6-1.1,0.8-1.7l0.8-1.2l0.4-0.8c2-3.3,3.3-5.5,3.8-6.6c0.3,1.7,0.4,3.4,0.4,5.4l-0.4,5.4c0,4.4,0.2,7.8,0.4,10.3
	c3.3-3.5,5.7-7.7,7.2-12.3C512.2,109.6,512.3,105,511.4,100z M320.1,127.7c-2.3-5.5-0.4-8.3,5.5-8.6
	C328.1,124.6,326.3,127.5,320.1,127.7z M477.4,413.5l2.3,2.6C480.5,415.5,479.8,414.6,477.4,413.5z"/>
</svg>
