<?xml version="1.0" encoding="utf-8"?>
<!-- Generator: Adobe Illustrator 21.1.0, SVG Export Plug-In . SVG Version: 6.00 Build 0)  -->
<svg version="1.1" id="Layer_1" xmlns="http://www.w3.org/2000/svg" xmlns:xlink="http://www.w3.org/1999/xlink" x="0px" y="0px"
	 viewBox="0 0 668 512" style="enable-background:new 0 0 668 512;" xml:space="preserve">
<g>
	<g>
		<path d="M86.2,254.3L86.2,254.3c-0.1,19.4,15.6,35.2,35,35.2l150.8-0.4c11.9,0,21.5-9.6,21.5-21.5V139.3
			c0-17.9-14.5-32.4-32.4-32.4s-32.4,14.5-32.4,32.3c-0.1,32-0.2,76.7-0.4,80.3H121.1C101.9,219.6,86.3,235.1,86.2,254.3z
			 M152.5,208.5c36.7,0,66.5-29.8,66.5-66.5s-29.8-66.5-66.5-66.5S86,105.3,86,142S115.8,208.5,152.5,208.5z M572.8,155.5
			c0.3-32.5-26-59-58.5-59H314v193h257.7L572.8,155.5z M16,0.5c-8.8,0-16,7.2-16,16v496h32v-496C32,7.7,24.9,0.5,16,0.5z M59,361.5
			h550v-32H59V361.5z M652,137.5L652,137.5c-8.8,0-16,7.2-16,16v359h32v-359C668,144.7,660.9,137.5,652,137.5z"/>
	</g>
</g>
</svg>
