<?xml version="1.0" encoding="utf-8"?>
<!-- Generator: Adobe Illustrator 21.1.0, SVG Export Plug-In . SVG Version: 6.00 Build 0)  -->
<svg version="1.1" id="Layer_1" xmlns="http://www.w3.org/2000/svg" xmlns:xlink="http://www.w3.org/1999/xlink" x="0px" y="0px"
	 viewBox="0 0 736 512" style="enable-background:new 0 0 736 512;" xml:space="preserve">
<style type="text/css">
	.st0{fill-rule:evenodd;clip-rule:evenodd;}
</style>
<g>
	<g>
		<path class="st0" d="M565,0L368,0L171.1,0C87.7,0,20,66.4,20,148.4v139.5c0,0,33.1-78.6,135-88.9c0-0.2,0-0.7,0-1
			c1.8-37.5,32.9-67.4,71.6-67.4h47.8c37.3,0,67.8,27.8,71.6,63.4c0.1,0.8,0,2,0,2l22-0.1l22,0.1c0,0-0.1-1.2,0-2
			c3.8-35.6,34.3-63.4,71.6-63.4h47.8c38.7,0,69.7,29.9,71.6,67.4c0,0.3,0,0.8,0,1c101.8,10.3,135,88.9,135,88.9V148.4
			C716,66.4,648.4,0,565,0z M684,204c0,0-29-25-75-32c-11-36.7-45.8-74-106-74c-6.8,0-23.3,0-33,0c-46.2-0.1-81.7,19.5-102,58
			c-20.4-40-59.2-58-100-58c-4.2,0-36.2,0-39,0c-40.8,0.3-88.2,24.3-101,74c-47.1,7.3-76,32-76,32s0-54.1,0-55
			c0-64.9,54.3-117,117-117c5.9,0,392.4,0,398,0c64.9,0,117,52.1,117,117C684,151.9,684,204,684,204z M565,226.2L369,226v0l-1,0
			l-1,0v0l-196,0.2C87.7,226.2,20,292.6,20,374.6V512h30.2c0,0,18.1-59,317.8-59c302.5,0,317.8,59,317.8,59H716V374.6
			C716,292.6,648.4,226.2,565,226.2z M96.6,334.6c0-39,55.6-70.7,124.1-70.7L367,264v0l1,0l1,0v0l146.3-0.1
			c68.5,0,124.1,31.6,124.1,70.7v4.7h-19.8c0,0,14.1-25.6-213.8-28.1c0,0,0-0.1,0-0.2c-0.1-6-4.9-10.8-10.9-10.8l-53.2,0
			c-6,0-10.8,4.8-10.9,10.8c0,0.1,0,0.2,0,0.2c-228.7,2.4-214.4,28.1-214.4,28.1H96.6V334.6z M684,468c0,0-53.3-47-316-47
			c-263.9,0-316,47-316,47s0-50.6,0-91c0-38.1,15-60,15-60s-15.6,55.5,37,55c32.7-0.3,33.5-11.5,40-15c10.9-5.8,106-12.1,168-13
			c21.8,0,36.1-3,42-12c9.4,0,18.6,0.1,28,0c3.6,6.3,15.9,12,39,12c70.1,0,143.9,5.8,173,14c11.7,15,28.5,13,42,13
			c47.4,0,33-54,33-54s15,27.4,15,52C684,409.6,684,468,684,468z"/>
	</g>
</g>
</svg>
