<?xml version="1.0" encoding="utf-8"?>
<!-- Generator: Adobe Illustrator 21.1.0, SVG Export Plug-In . SVG Version: 6.00 Build 0)  -->
<svg version="1.1" id="Layer_1" xmlns="http://www.w3.org/2000/svg" xmlns:xlink="http://www.w3.org/1999/xlink" x="0px" y="0px"
	 viewBox="0 0 655 512" style="enable-background:new 0 0 655 512;" xml:space="preserve">
<g>
	<g>
		<path d="M483.5,217h-311c-83.9,0-152,66.8-152,149v146h31c0,0,11-53.4,276.5-58.6c265.5,5.2,276.5,58.6,276.5,58.6h31V366
			C635.5,283.8,567.4,217,483.5,217z M101.5,310.6c0-34.3,42.9-62.2,95.9-62.2l130.6-0.3l130.6,0.3c53,0,95.9,27.8,95.9,62.2v4.2
			h-19.2c0,0-0.7-18.9-169.8-23.7v0c0-6.1-4.9-11-11-11h-52.9c-6.1,0-11,4.9-11,11v0c-169.1,4.7-169.8,23.7-169.8,23.7h-19.2V310.6z
			 M603.5,467c0,0-73.1-45-276-45c-207.9,0-275,45-275,45s0-58.8,0-104c0-35.4,17-57,17-57c0,31.7,16.8,41,40,41
			c31.9,0,24.5-9.1,46-13c39.6-7.1,95.2-10.7,124-10c19,0.5,35-12,35-12h28c0,0,6.9,10.4,25,11c27.9,0.9,87.9,3.8,129,10
			c25.2,3.8,19.5,14,49,14c45.9,0,41-42,41-42s17,27.5,17,54C603.5,407.4,603.5,467,603.5,467z M483.4,0H172.6
			C88.6,0,20.5,66,20.5,148v124c0,0,24.8-85,127-85c13.4,0,50,0,50,0s0-1.8,0-3c0-49.7,41.2-90,92-90c0-5.5,4.5-10,10-10h57
			c5.5,0,10,4.5,10,10c50.8,0,92,40.3,92,90c0,1.2,0,3,0,3s36.6,0,50,0c102.2,0,127,85,127,85V148C635.5,66,567.4,0,483.4,0z
			 M603.5,182c-21.5-17.8-70-27-85-27h-32c-8.2-41.8-47.3-83.1-97-90c-2.8-8.5-11.3-12.9-20-13c-3.3-0.1-80.5,0-84,0
			c-9.4,0-16.4,5.5-19,13c-22.5,0-84.2,28.7-97,90h-30c-17.1,0-63.8,8.6-87,27v-40c0-51.6,51-110,117-110h314c75,0,120,62.8,120,113
			V182z"/>
	</g>
</g>
</svg>
