<?xml version="1.0" encoding="utf-8"?>
<!-- Generator: Adobe Illustrator 21.1.0, SVG Export Plug-In . SVG Version: 6.00 Build 0)  -->
<svg version="1.1" id="bell-rotate-slash" xmlns="http://www.w3.org/2000/svg" xmlns:xlink="http://www.w3.org/1999/xlink" x="0px"
	 y="0px" viewBox="0 0 471.7 512" style="enable-background:new 0 0 471.7 512;" xml:space="preserve">
<g>
	<path d="M456,195.5c-19.7-19.7-50.2-15.7-50.2-15.7s-67.4,2.3-105.6-35.2c-7.4-7.3-14.2-14.5-20.6-21.3v41.3
		c21,19.1,40.6,30.5,71.6,37.6c-19.4,11.3-46.3,28.8-71.6,49.3v111c12.4-0.8,25.1-6.2,36.7-17.7c29.4-29.4,17.7-64.2-0.5-82.3
		C339.4,248,410.2,183.7,436,215c20.6,25.4-6.8,105-75.6,173.9c-26.6,26.6-54.7,47.2-80.8,61.3v32.6c32.9-15.5,68.2-40.4,100.8-73.1
		C460.4,329.8,494.3,233.8,456,195.5z"/>
	<path d="M187.9,41.8c-13.8-5.8-29.3-9-48.1-8.9c-18.9,0-36.5,6.2-51.2,14C65.8,22.2,33.7,24.9,15,43.7
		c-18.6,18.6-21.7,50.9,3.2,73.5c-7.8,14.7-14.1,32.4-14.1,51.2c0,72.9,47.5,96,111.9,160.5c40.4,35,34.6,106.1,34.6,106.1
		s-4.2,30.4,15.7,50.2c5.9,5.9,13.2,10.1,21.6,12.7V512h36.4V0h-36.4V41.8z M35.2,63.2c8.3-8.3,21.8-8.3,30.1,0
		c8.4,8.3,8.3,21.8,0,30.2c-8.3,8.4-21.8,8.3-30.1,0C26.8,85,26.9,71.5,35.2,63.2z M75.2,250.8c-52.5-43.9-48.1-95.2-29.4-122.7
		c11.4,2.4,28.8-3.2,39.6-14.1s16.7-29.1,14.7-40.3c21-13.9,53.9-18.6,87.8,1.1v279.6c-5.7,8.8-10.2,16.7-12.9,23.1
		C162.1,325.9,139.8,309,75.2,250.8z M186.4,464.3c-17-15.1-12.4-36.5,1.5-60.1v61.3C187.4,465.1,186.9,464.8,186.4,464.3z"/>
</g>
</svg>
