<?xml version="1.0" encoding="utf-8"?>
<!-- Generator: Adobe Illustrator 21.1.0, SVG Export Plug-In . SVG Version: 6.00 Build 0)  -->
<svg version="1.1" id="bell-slash" xmlns="http://www.w3.org/2000/svg" xmlns:xlink="http://www.w3.org/1999/xlink" x="0px" y="0px"
	 viewBox="0 0 448.2 512" style="enable-background:new 0 0 448.2 512;" xml:space="preserve">
<style type="text/css">
	.st0{display:none;}
	.st1{display:inline;}
	.st2{fill:none;}
</style>
<g id="bell-slash_1_" class="st0">
	<g class="st1">
		<path d="M157.4,269.6c0.6-21-1.2-46.6-3.1-82.4c-6-67.3,32.9-100.1,65.2-106.3c6.3,9.7,22.4,17.9,37.5,17.9
			c15.1,0,32-8.6,38.4-17.9c11.4,2.3,23.3,7.8,33.7,16.9c0.1,0.1,0.2,0.2,0.2,0.2l20.2-20.1c0,0-0.1-0.1-0.2-0.2
			C336.7,65.9,321,58.5,306.2,54c1.5-33.2-23-53.6-49.1-53.6S206.4,20.8,207.9,54c-15.7,4.8-32.4,12.8-45.6,25.9
			c-50.9,50.9-34,100.2-34,190.3c0.8,11.5-1.1,22.6-4.6,32.9c-0.1,0.2-0.2,0.7-0.2,0.7l33.8-33.5
			C157.4,270.3,157.4,269.8,157.4,269.6z M257.5,28.1c11.6,0,21,9.4,21,21s-9.4,21-21,21s-21-9.4-21-21S245.9,28.1,257.5,28.1z
			 M434.9,368.5c0,0-48.7-45.5-49.1-98.3c0-11,0.3-21.5,0.6-31.4c0-0.2,0-0.6,0-0.6l-29,29.1c0,0,0,0.2,0,0.4
			c1.1,29,6.8,51.1,23.9,78.4c-21.6-5.7-53-12.3-85.4-15.7c-0.5,0-1.4-0.1-1.4-0.1l-76.8,76.4c0,0,0.5,0.4,0.7,0.7
			c9.3,8.4,22.2,13.9,38.6,13.9c41.1,0,57.2-32.4,57.2-57.9c26.6,6.3,121,10.7,117.1,50.8c-3.2,32.2-78,68.8-174.2,68.8
			c-37.4,0-71.8-5.3-99.9-13.8c-0.3-0.1-0.9-0.3-0.9-0.3L133,491.3c0,0,0.6,0.2,0.8,0.3c34.1,12.5,76.6,19.9,122.8,19.9
			c111.8,0,202.4-43.4,202.4-96.9C459,386.9,434.9,368.5,434.9,368.5z M452.7,40.9L26.3,467.2l32.9,32.9L485.5,73.7L452.7,40.9z"/>
	</g>
</g>
<g>
	<path class="st2" d="M225.6,70c11.7-0.1,21.2-9.4,21.1-21.1c-0.1-11.7-9.5-21.1-21.1-21.1c-11.6,0-21.2,9.4-21.1,21.1
		C204.6,60.5,213.9,70,225.6,70z"/>
	<path class="st2" d="M50.7,414.4c0,0.6,0.1,1.2,0.2,1.9l42.9-42.9C67.6,380.1,49.4,391.9,50.7,414.4z"/>
	<path class="st2" d="M263.7,80.5c-6.4,9.2-23.2,17.9-38.5,17.9s-31.3-8.2-37.6-17.9c-32.4,6.2-71.3,39-65.3,106.5
		c4.5,85.9,8.3,113.3-18.8,158.5c6.4-2.5,15-5,25.2-7.1l195.7-195.7C314.5,105.2,288.1,85.5,263.7,80.5z"/>
	<path d="M403.4,368.8c0,0-48.8-45.6-49.2-98.5c0-10.3,0.2-20.1,0.5-29.4l-28.9,28.9c1.3,28.1,7.1,49.8,23.8,76.5
		c-21.5-5.6-52.6-12.2-84.6-15.6l-77.7,77.7c9.3,8.1,21.9,13.3,38,13.3c41.2,0,57.3-32.5,57.3-57.9c26.6,6.3,121.2,10.8,117.3,50.8
		c-3.4,32.1-78.3,68.7-174.6,68.8c-37.2,0-71.4-5.2-99.4-13.6L103,492.5c33.9,12.2,76.1,19.5,121.7,19.5
		c111.9,0,202.8-43.5,202.8-97.1C427.6,387.3,403.4,368.8,403.4,368.8z"/>
	<path d="M422.7,44.4l-75.2,75.2c-5.6-13.7-14.2-26.8-27.4-39.9c-13.2-13.2-29.9-21.2-45.6-26c1.3-33.2-23-53.8-49.3-53.7
		c-26.1,0-50.8,20.5-49.2,53.7c-15.7,4.8-32.5,12.8-45.7,25.9c-51,51-33.9,100.4-34,190.7c3.7,52.8-50.1,98.5-50.1,98.5
		S22,387.2,22,414.9c0,8.3,2.2,16.3,6.2,24L0,467.1l25.5,25.5L448.2,69.9L422.7,44.4z M50.9,416.2c-0.1-0.6-0.2-1.2-0.2-1.9
		c-1.3-22.4,16.9-34.2,43.1-41.1L50.9,416.2z M225.6,27.7c11.6,0,21,9.4,21.1,21.1c0.1,11.7-9.4,21-21.1,21.1
		c-11.7,0.1-21-9.4-21.1-21.1C204.5,37.2,214,27.7,225.6,27.7z M128.7,338.4c-10.1,2.2-18.8,4.6-25.2,7.1
		c27.1-45.2,23.3-72.6,18.8-158.5c-6-67.4,32.9-100.3,65.3-106.5c6.3,9.7,22.4,17.9,37.6,17.9s32.1-8.7,38.5-17.9
		c24.4,4.9,50.8,24.7,60.7,62.2L128.7,338.4z"/>
</g>
</svg>
