<?xml version="1.0" encoding="utf-8"?>
<!-- Generator: Adobe Illustrator 21.1.0, SVG Export Plug-In . SVG Version: 6.00 Build 0)  -->
<svg version="1.1" id="bell-rotate" xmlns="http://www.w3.org/2000/svg" xmlns:xlink="http://www.w3.org/1999/xlink" x="0px"
	 y="0px" viewBox="0 0 512 512" style="enable-background:new 0 0 512 512;" xml:space="preserve">
<g>
	<g>
		<path d="M494.9,180.6c-21.4-21.4-54.4-17-54.4-17s-73.1,2.5-114.5-38.2C256,55.6,231,4.1,151.9,4.2c-20.5,0-39.6,6.7-55.5,15.2
			C71.7-7.4,36.9-4.4,16.6,16C-3.6,36.2-6.9,71.2,20.1,95.7c-8.5,15.9-15.3,35.1-15.3,55.5c0,79.1,51.5,104.1,121.4,174.1
			c43.8,38,37.5,115.1,37.5,115.1s-4.5,33,17,54.4c41.6,41.6,145.6,4.9,232.3-81.8S536.4,222.2,494.9,180.6z M38.5,37.1
			c9-9,23.6-9,32.7,0s9,23.6,0,32.7s-23.6,9-32.7,0S29.5,46.1,38.5,37.1z M81.9,240.6C25,193,29.7,137.4,50,107.5
			c12.4,2.6,31.2-3.5,43-15.3c11.8-11.8,18.1-31.6,15.9-43.7c30.3-20.1,83.6-22.5,131.7,31.9c59.8,65.3,80.6,93.6,140.7,107.5
			c-29.7,17.4-75.8,48.1-110.2,82.5C237.7,304,201,352.6,190.1,378C176.1,322,151.9,303.7,81.9,240.6z M391.2,390.4
			c-74.7,74.7-161,106.4-188.7,81.8c-33.4-29.7,10.2-82.2,51.4-130.3c22,22,59.5,30.6,89.5,0.7c31.9-31.9,19.2-69.6-0.5-89.3
			c25.5-15.7,102.3-85.5,130.3-51.5C495.5,229.3,465.8,315.7,391.2,390.4z"/>
	</g>
</g>
</svg>
