<?xml version="1.0" encoding="utf-8"?>
<!-- Generator: Adobe Illustrator 21.1.0, SVG Export Plug-In . SVG Version: 6.00 Build 0)  -->
<svg version="1.1" id="bell" xmlns="http://www.w3.org/2000/svg" xmlns:xlink="http://www.w3.org/1999/xlink" x="0px" y="0px"
	 viewBox="0 0 404.8 512" style="enable-background:new 0 0 404.8 512;" xml:space="preserve">
<g id="bell_1_">
	<g>
		<path d="M380.7,368.5c0,0-48.7-45.5-49.1-98.3c0-90.1,17-139.4-34-190.3c-13.1-13.1-29.9-21.2-45.6-26c1.5-33.2-23-53.6-49.1-53.6
			S152.2,20.8,153.7,54c-15.7,4.8-32.4,12.8-45.6,25.9c-50.9,50.9-34,100.2-34,190.3c3.7,52.7-50,98.3-50,98.3S0,386.9,0,414.5
			c0,53.5,90.6,96.9,202.4,96.9s202.4-43.3,202.4-96.9C404.8,386.9,380.7,368.5,380.7,368.5z M203.3,28.1c11.6,0,21,9.4,21,21
			s-9.4,21-21,21s-21-9.4-21-21S191.7,28.1,203.3,28.1z M100.1,187.1C94.1,119.8,133,87,165.3,80.8c6.3,9.7,22.4,17.9,37.5,17.9
			s32-8.6,38.4-17.9c32.5,6.6,68.4,39.3,64.3,105.4c-3.6,80.6-8.4,112.3,21.4,159.9c-30.3-7.9-79.8-17.9-124.1-17.9
			c-43.2,0-98.1,7.7-121.6,17C108.4,300.2,104.6,272.9,100.1,187.1z M377.1,414.1c-3.2,32.2-78,68.8-174.2,68.8
			S30.6,447.8,28.6,414.1c-2.3-40.7,59.6-46.4,117-50.9c0,28.3,18.6,58,57.2,58c41.1,0,57.2-32.4,57.2-57.9
			C286.6,369.6,381,374.1,377.1,414.1z"/>
	</g>
</g>
</svg>
