<?xml version="1.0" encoding="utf-8"?>
<!-- Generator: Adobe Illustrator 21.1.0, SVG Export Plug-In . SVG Version: 6.00 Build 0)  -->
<svg version="1.1" id="Layer_1" xmlns="http://www.w3.org/2000/svg" xmlns:xlink="http://www.w3.org/1999/xlink" x="0px" y="0px"
	 viewBox="0 0 550 512" style="enable-background:new 0 0 550 512;" xml:space="preserve">
<path d="M491.4,72.7c-27.9,0-51.1,19.4-57.2,45.5h-98.3v-36c0-6.1-5.6-12.5-12.5-12.5h-97.5c-6.1,0-12.5,6.4-12.5,12.5v36h-97.6
	c-6-26-29.3-45.5-57.2-45.5C26.2,72.7,0,99,0,131.4s26.3,58.7,58.7,58.7c29.1,0,53.3-21.3,57.9-49.2h96.9l0.6,1.8
	c-64.3,24.9-107.1,86.9-107.1,156.4l-0.5,25.9h-33c-7,0-12.5,6.4-12.5,12.5v95.3c0,6.1,6.4,12.5,12.5,12.5h96
	c6.1,0,12.5-6.4,12.5-12.5v-95.5c0-6.9-5.6-12.5-12.5-12.5H129L129,299c0-57.5,33-108.9,84.5-132.4v11c0,6.1,6.4,12.5,12.5,12.5h39
	l-0.1,20.5h-30.1c-6.9,0-12.5,5.6-12.5,12.5v73.3c0,6.9,5.6,12.5,12.5,12.5h81.4c6.9,0,12.5-5.6,12.5-12.5V223
	c0-6.8-5.6-12.5-12.5-12.5h-28.6l-0.4-20.5h36.3c6.2,0,12.5-6.3,12.5-12.5v-11.7c51.4,23.4,85.2,74.7,85.2,132.5L421,325
	c0,0-39.3,0-40.4,0c-6.9,0-12.5,5.6-12.5,12.5v95.3c0,6.9,5.6,12.5,12.5,12.5h96c7,0,12.5-5.6,12.5-12.5v-95.4
	c0-6.9-5.5-12.5-12.5-12.5h-33l-0.5-26.6c0-36.2-11.4-70.7-32.8-99.8c-19.1-25.8-44.8-45.5-74.5-56.9v-0.7h97.6
	c4.5,27.9,28.8,49.2,57.9,49.2c32.4,0,58.7-26.3,58.7-58.7S523.8,72.7,491.4,72.7z M58.7,151.9c-11.4,0-20.5-9.2-20.5-20.5
	s9.2-20.5,20.5-20.5s20.5,9.2,20.5,20.5S70,151.9,58.7,151.9z M143.1,363.1v44H99v-44H143.1z M290.5,246.5v27.1h-30.8v-27.1H290.5z
	 M297.8,151.9h-46.2v-44.8h46.2V151.9z M450.3,363.1v44h-44v-44H450.3z M491.4,151.9c-11.4,0-20.5-9.2-20.5-20.5s9.2-20.5,20.5-20.5
	c11.4,0,20.5,9.2,20.5,20.5S502.7,151.9,491.4,151.9z"/>
</svg>
