<?xml version="1.0" encoding="utf-8"?>
<!-- Generator: Adobe Illustrator 21.1.0, SVG Export Plug-In . SVG Version: 6.00 Build 0)  -->
<svg version="1.1" id="Layer_2" xmlns="http://www.w3.org/2000/svg" xmlns:xlink="http://www.w3.org/1999/xlink" x="0px" y="0px"
	 viewBox="0 0 512 512" style="enable-background:new 0 0 512 512;" xml:space="preserve">
<g>
	<path d="M111.3,241.3c-45.7,0-82.7,37-82.7,82.7s37,82.7,82.7,82.7s82.7-37,82.7-82.7S156.9,241.3,111.3,241.3z M154,366.6
		c-11.4,11.4-26.5,17.6-42.7,17.6S80,378,68.6,366.6C57.2,355.2,51,340.1,51,324c0-16.1,6.3-31.3,17.6-42.7
		c11.4-11.4,26.5-17.6,42.7-17.6c33.2,0,60.3,27.1,60.3,60.3C171.6,340,165.3,355.2,154,366.6z"/>
	<path d="M400.1,241.3c-45.7,0-82.7,37-82.7,82.7s37,82.7,82.7,82.7c45.7,0,82.7-37,82.7-82.7S445.7,241.3,400.1,241.3z
		 M442.7,366.6c-11.4,11.4-26.5,17.6-42.7,17.6s-31.3-6.3-42.7-17.6c-11.4-11.4-17.6-26.5-17.6-42.7c0-16.1,6.3-31.3,17.6-42.7
		c11.4-11.4,26.5-17.6,42.7-17.6c33.2,0,60.3,27.1,60.3,60.3C460.4,340,454.1,355.2,442.7,366.6z"/>
	<path d="M495.7,265.2c-30.5-53.8-114-142-119-146.7c-16.4-15.5-27.5-39.7-53.7-39.7c-23.3,0-40.4,18.9-42.5,33.5
		c0,19.5,0,28.6,0,28.6s-10-7-22.6-7c-0.6,0-1.2,0-1.8,0.1l0,0c-0.6,0-1.2-0.1-1.8-0.1c-12.6,0-22.6,7-22.6,7s0-9.2,0-28.6
		c-2.1-14.6-19.2-33.5-42.5-33.5c-26.2,0-37.4,24.3-53.7,39.7c-5,4.8-88.9,93.5-119.2,147.2C5.9,282.6,0,302.4,0,323.6
		c0,62.1,50.3,112.3,112.3,112.3c62.1,0,112.3-50.3,112.3-112.3c0-3-0.1-5.9-0.3-8.9c12.9,8.8,26.2,9.6,30.4,9.6c0.9,0,1.4,0,1.4,0
		v0.1c0,0,0.5,0,1.4,0c4.2,0,17.4-0.8,30.4-9.6c-0.2,2.9-0.3,5.9-0.3,8.8c0,62.1,50.3,112.3,112.3,112.3
		c62.1,0,112.3-50.3,112.3-112.3C512.1,302.2,506.1,282.2,495.7,265.2z M209.3,140.8l-0.2,14.6l0,0l-10.7,114.7l3.6,46.4
		c0.2,2.4,0.3,4.8,0.3,7.1c0,24-9.4,46.6-26.4,63.6s-39.6,26.4-63.6,26.4s-46.6-9.4-63.6-26.4c-17-17-26.3-39.6-26.3-63.6
		c0-16.4,4.5-32.4,12.9-46.4l0.1-0.3l0.1-0.3c28.4-50.2,108.5-135.4,115.2-142c5.2-4.9,9.5-10.1,13.8-15.1
		c11.1-13.1,16.4-18.5,24.5-18.5c11.1,0,18.7,9.2,20.1,13.4L209.3,140.8C209.2,140.8,209.3,140.8,209.3,140.8z M256.8,273.4
		c-17.7,0-32.1-14.3-32.1-32.1s14.3-32.1,32.1-32.1c17.8,0,32.1,14.3,32.1,32.1S274.5,273.4,256.8,273.4z M463.4,387.2
		c-17,17-39.6,26.4-63.6,26.4c-24,0-46.6-9.4-63.6-26.4c-17-17-26.4-39.6-26.4-63.6c0-2.4,0.1-4.8,0.3-7.1l3.6-46.4l-10.8-114.7
		v-40.9c1.5-4.3,9-13.4,20.1-13.4c8.1,0,13.4,5.3,24.5,18.5c4.3,5,8.6,10.2,13.8,15.1c6.6,6.5,86.3,91.2,115,141.5l0.1,0.3l0.2,0.3
		c8.5,14.1,13.1,30.2,13.1,46.7C489.7,347.6,480.4,370.2,463.4,387.2z"/>
</g>
</svg>
