<?xml version="1.0" encoding="utf-8"?>
<!-- Generator: Adobe Illustrator 21.1.0, SVG Export Plug-In . SVG Version: 6.00 Build 0)  -->
<svg version="1.1" id="Layer_2" xmlns="http://www.w3.org/2000/svg" xmlns:xlink="http://www.w3.org/1999/xlink" x="0px" y="0px"
	 viewBox="0 0 492 512" style="enable-background:new 0 0 492 512;" xml:space="preserve">
<g id="_x33_2">
	<path d="M330.8,37.7c-0.1-0.4-0.2-0.9-0.3-1.4c6.9-1.1,12.3-8.4,9.8-16.6C336.6,7.5,323.9,0,323.9,0s-4.4,11.5-6.3,20.7
		c-1.6,8.1,2.3,14.4,8.7,15.6c0,0.5-0.1,1-0.1,1.5c-13.6,0.4-24.1,2.9-24.1,5.9c0,3.3,12.5,6,28,6s28-2.7,28-6
		C358,40.5,345.9,37.8,330.8,37.7z M327.5,28.4c0,0-0.8,2.5-1.2,7.8c-3.6-1.2-5.8-6.1-4.8-12.3c1.1-7.3,3.8-16.4,3.8-16.4
		s7.7,5.9,10,15.7c1.4,5.9-1.2,11.2-4.7,12.8c-0.6-2.5-1.1-5.4-1.2-7.6C328.4,26.5,327.5,28.4,327.5,28.4z"/>
	<path d="M162.8,37.7c-0.1-0.4-0.2-0.9-0.3-1.4c6.9-1.1,12.3-8.4,9.8-16.6C168.6,7.5,155.9,0,155.9,0s-4.4,11.5-6.3,20.7
		c-1.6,8.1,2.3,14.4,8.7,15.6c0,0.5-0.1,1-0.1,1.5c-13.6,0.4-24.1,2.9-24.1,5.9c0,3.3,12.5,6,28,6c15.5,0,28-2.7,28-6
		C190,40.5,177.9,37.8,162.8,37.7z M159.5,28.4c0,0-0.8,2.5-1.2,7.8c-3.6-1.2-5.8-6.1-4.8-12.3c1.1-7.3,3.8-16.4,3.8-16.4
		s7.7,5.9,10,15.7c1.4,5.9-1.2,11.2-4.7,12.8c-0.6-2.5-1.1-5.4-1.2-7.6C160.4,26.5,159.5,28.4,159.5,28.4z"/>
	<path d="M246.8,37.7c-0.1-0.4-0.2-0.9-0.3-1.4c6.9-1.1,12.3-8.4,9.8-16.6C252.6,7.5,239.9,0,239.9,0s-4.4,11.5-6.3,20.7
		c-1.6,8.1,2.3,14.4,8.7,15.6c0,0.5-0.1,1-0.1,1.5c-13.6,0.4-24.1,2.9-24.1,5.9c0,3.3,12.5,6,28,6s28-2.7,28-6
		C274,40.5,261.9,37.8,246.8,37.7z M243.5,28.4c0,0-0.8,2.5-1.2,7.8c-3.6-1.2-5.8-6.1-4.8-12.3c1.1-7.3,3.8-16.4,3.8-16.4
		s7.7,5.9,10,15.7c1.4,5.9-1.2,11.2-4.7,12.8c-0.6-2.5-1.1-5.4-1.2-7.6C244.4,26.5,243.5,28.4,243.5,28.4z"/>
	<path d="M394.8,132H358V48.2c0,3.3-12.5,6-28,6c-15.5,0-28-2.7-28-6V132h-28V48.2c0,3.3-12.5,6-28,6c-15.5,0-28-2.7-28-6V132h-28
		V48.2c0,3.3-12.5,6-28,6c-15.5,0-28-2.7-28-6V132H97.2C83.3,132,72,143.3,72,157.2v22.9v5.8v1v32.2v39.4c0,7.5,6,13.5,13.5,13.5
		h321c7.5,0,13.5-6,13.5-13.5v-39.4v-32.2v-1v-5.8v-22.9C420,143.3,408.7,132,394.8,132z M97.2,157h297.5c0.1,0,0.2,0.1,0.2,0.2
		v54.2c-7.1,3.6-15.1,5.6-23.6,5.6c-25.5,0-46.8-18.3-52.9-43.1c-1.1-4.6-5.1-7.9-9.7-7.9c0,0-0.1,0-0.2,0c0,0-0.1,0-0.1,0
		c-4.6,0-8.5,3.3-9.7,7.9c-6.1,24.8-27.5,43.1-52.9,43.1s-46.8-18.3-52.9-43.1c-1.1-4.6-5.1-7.9-9.7-7.9c0,0-0.1,0-0.1,0
		c-0.1,0-0.1,0-0.2,0c-2.3,0-4.4,0.8-6.1,2.2c-1.7,1.4-3,3.4-3.6,5.7c-6.1,24.8-27.4,43.1-52.9,43.1c-8.4,0-16.4-2-23.6-5.6v-54.2
		C97,157.1,97.1,157,97.2,157z M395,247H97v-13c7.4,2.6,15.3,4,23.6,4c26.3,0,49.4-14.4,62.7-36c13.3,21.7,36.4,36,62.7,36
		s49.4-14.4,62.7-36c13.3,21.7,36.4,36,62.7,36c8.2,0,16.2-1.4,23.6-4V247z"/>
	<path d="M472.9,292H19.1C8.5,292,0,300.5,0,311.1v79.2v1.2v30.8v70.7C0,503.5,8.5,512,19.1,512h453.9c10.5,0,19.1-8.5,19.1-19.1
		v-70.7v-30.8v-1.2v-79.2C492,300.5,483.5,292,472.9,292z M32,390.2V324h428v66.2v1.2v24.2c-5.2,1.6-10.8,2.4-16.5,2.4
		c-26.8,0-49.3-18.3-55.7-43.1c-1.2-4.6-5.4-7.9-10.2-7.9c-0.1,0-0.1,0-0.2,0s-0.1,0-0.2,0c-2.4,0-4.6,0.8-6.4,2.2
		c-1.8,1.4-3.1,3.4-3.7,5.7c-6.4,24.8-28.9,43.1-55.7,43.1s-49.3-18.3-55.7-43.1c-1.2-4.6-5.4-7.9-10.2-7.9c-0.1,0-0.1,0-0.2,0
		s-0.1,0-0.2,0c-2.4,0-4.6,0.8-6.4,2.2c-1.8,1.4-3.1,3.4-3.7,5.7c-6.4,24.8-28.9,43.1-55.7,43.1c-25.6,0-47.2-16.7-54.7-39.8
		c0.4-5.9-4.3-11.2-10.5-11.2c-0.1,0-0.2,0-0.3,0s-0.2,0-0.3,0c-6,0-10.5,4.9-10.5,10.5c0,0.2,0,0.5,0,0.7
		C95.7,401.3,74.1,418,48.5,418c-5.7,0-11.3-0.8-16.5-2.4v-24.2V390.2z M460,480H32v-42.7c5.3,1.1,10.8,1.7,16.5,1.7
		c27.4,0,51.5-14,65.5-35.2c14,21.2,38.1,35.2,65.5,35.2c27.7,0,52-14.4,66-36c14,21.7,38.3,36,66,36s52-14.4,66-36
		c14,21.7,38.3,36,66,36c5.7,0,11.2-0.6,16.5-1.7V480z"/>
</g>
</svg>
