<?xml version="1.0" encoding="utf-8"?>
<!-- Generator: Adobe Illustrator 21.1.0, SVG Export Plug-In . SVG Version: 6.00 Build 0)  -->
<svg version="1.1" id="Layer_1" xmlns="http://www.w3.org/2000/svg" xmlns:xlink="http://www.w3.org/1999/xlink" x="0px" y="0px"
	 viewBox="0 0 545.2 512" style="enable-background:new 0 0 545.2 512;" xml:space="preserve">
<g>
	<path d="M367.4,47.8c21.9,21.1,43.3,43,64.1,64.3c24.3,24.9,49.2,50.5,75.3,75.1c-7,14.1-17.2,27.7-31.1,41.6
		c-26.5,26.5-62.5,50.4-104.2,78.1c-52.1,34.5-111.1,73.7-165.6,128.3c-8.8,8.8-17.4,17.9-25.4,27c-0.7,0.7-1.3,1.5-2,2.2
		c-34-33.2-96.9-95.7-138-140.9c7.8-11.1,17.6-22.5,29.4-34.3c35-35,83.5-68.9,130.4-101.7c49.6-34.7,100.8-70.5,140.3-110
		C350.7,67.5,359.6,57.6,367.4,47.8 M362.7,0.1c-0.4,0-0.8,0.2-1.2,0.6c-0.4,0.4-0.8,0.9-1.2,1.6c-11,18.3-25.4,35.7-42.2,52.5
		c-74.8,74.8-196.7,137.7-270.7,211.8C28,285.9,12,305.9,0.9,327.1c54.8,63.5,179.6,184.3,180.4,184.3c0,0,0,0,0,0
		c7.5-9.7,15.3-19,23.2-27.9c7.9-8.9,15.9-17.4,24.1-25.6c95.2-95.2,206-142.5,269.8-206.3c21.6-21.6,37.8-45,46.3-72.9
		C481.9,121.6,427,58,364.3,1l-0.6-0.4C363.3,0.3,363,0.1,362.7,0.1L362.7,0.1z"/>
	<path d="M347.3,239.1l20.7,20.7c31.9-21.3,59.9-40.6,81.4-60.9l-23.2-23.2C402.2,197.9,375.1,218.9,347.3,239.1z"/>
	<path d="M359.4,108.9c-24,22.2-51,43.1-78.9,63.4l20.7,20.7c31.9-21.3,59.9-40.6,81.4-60.9L359.4,108.9z"/>
	<path d="M191.8,293.3c-9.6-9.7-25.1-9.6-34.6,0.1l-1,1.1l-10.3-10.3l-9.2,9.3l10.2,10.3l-7.1,7.3l-10.4-10.4l-9.2,9.4l10.4,10.4
		l-6.6,6.8l22.8,22.9l12.1,12.1l22.8,22.9l6.6-6.8l7.4,7.4l9.2-9.4l-7.4-7.4l7.1-7.3l7.4,7.4l9.2-9.4l-7.4-7.4l1-1.1
		c9.5-9.7,9.4-25.5-0.3-35.2c-4.4-4.4-10-6.8-15.6-7.1C198.6,303.2,196.1,297.6,191.8,293.3z M199.3,331.1c1.4,1.5,2.1,3.3,2.1,5.1
		c0,1.9-0.7,3.7-2,5.1l-14,14.4l-10-10.1l15.1-15.6C193.2,328.3,196.8,328.6,199.3,331.1z M177.4,309c2.3,2.4,2.8,6.1,1.1,8.9
		l-15.1,15.6l-10.1-10l14-14.4c1.4-1.4,3.2-2.1,5.1-2.1C174.1,306.9,175.9,307.6,177.4,309z"/>
</g>
</svg>
