<?xml version="1.0" encoding="utf-8"?>
<!-- Generator: Adobe Illustrator 21.1.0, SVG Export Plug-In . SVG Version: 6.00 Build 0)  -->
<svg version="1.1" id="Layer_2" xmlns="http://www.w3.org/2000/svg" xmlns:xlink="http://www.w3.org/1999/xlink" x="0px" y="0px"
	 viewBox="0 0 502.3 512" style="enable-background:new 0 0 502.3 512;" xml:space="preserve">
<g id="_x33_2">
	<path d="M251.2,90.7c-83.3,0-151.1,62.1-151.1,138.5c0,76.4,67.8,138.5,151.1,138.5s151.1-62.1,151.1-138.5
		C402.3,152.8,334.5,90.7,251.2,90.7z M251.2,363.6c-80.9,0-146.6-60.3-146.6-134.4c0-74.1,65.8-134.4,146.6-134.4
		c80.9,0,146.6,60.3,146.6,134.4C397.8,303.3,332,363.6,251.2,363.6z"/>
	<polygon points="238.6,79.2 251.2,73.1 263.7,79.2 261.3,66.4 271.4,57.3 257.4,55.5 251.2,43.9 244.9,55.5 230.9,57.3 241,66.4 	
		"/>
	<polygon points="153.6,92.8 158.5,105 166,94 180.1,93.5 171.1,83.6 174.9,71.1 161.8,75.9 150.1,68.7 151,81.6 139.9,89.7 	"/>
	<polygon points="78.7,159.4 92.3,155.8 103.1,164.1 103.7,151.2 115.6,144.3 102.4,139.8 98.9,127.2 90.1,137.4 76,136.5 
		83.9,147.3 	"/>
	<polygon points="80.9,229.2 87.4,217.8 73.5,220 63.7,210.7 61.6,223.5 48.9,229.2 61.6,235 63.7,247.8 73.5,238.5 87.4,240.7 	"/>
	<polygon points="103.1,294.3 92.3,302.6 78.7,299.1 83.9,311.1 76,321.9 90.1,321.1 98.9,331.2 102.4,318.7 115.6,314.2 
		103.7,307.3 	"/>
	<polygon points="166,364.4 158.5,353.5 153.6,365.6 139.9,368.8 151,376.8 150.1,389.8 161.8,382.6 174.9,387.4 171.1,374.9 
		180.1,364.9 	"/>
	<polygon points="263.7,379.3 251.2,385.3 238.6,379.3 241,392.1 230.9,401.1 244.9,403 251.2,414.6 257.4,403 271.4,401.1 
		261.3,392.1 	"/>
	<polygon points="348.7,365.6 343.8,353.5 336.3,364.4 322.2,364.9 331.2,374.9 327.4,387.4 340.5,382.6 352.3,389.8 351.3,376.8 
		362.4,368.8 	"/>
	<polygon points="423.7,299.1 410.1,302.6 399.2,294.3 398.6,307.3 386.7,314.2 399.9,318.7 403.4,331.2 412.2,321.1 426.3,321.9 
		418.4,311.1 	"/>
	<polygon points="440.7,223.5 438.7,210.7 428.8,220 414.9,217.8 421.4,229.2 414.9,240.7 428.8,238.5 438.7,247.8 440.7,235 
		453.4,229.2 	"/>
	<polygon points="399.2,164.1 410.1,155.8 423.7,159.4 418.4,147.3 426.3,136.5 412.2,137.4 403.4,127.2 399.9,139.8 386.7,144.3 
		398.6,151.2 	"/>
	<polygon points="336.3,94 343.8,105 348.7,92.8 362.4,89.7 351.3,81.6 352.3,68.7 340.5,75.9 327.4,71.1 331.2,83.6 322.2,93.5 	
		"/>
	<path d="M288.5,224.6c13.9-4.9,26.4-13.9,26.4-30.7c0-19.5-14.8-27.9-31.8-32.2c0-7.9,0-15.8,0-23.8c-8,0-16,0-23.9,0
		c0,7.4,0,14.9,0,22.3c-5.1-0.2-11.1,0.4-15.8-0.3c0-7.3,0-14.7,0-22c-8,0-16,0-23.9,0c0,7.4,0,14.9,0,22.3c-12.2,0-24.4,0-36.7,0
		c-0.7,5.7-0.1,12.6-0.3,18.8c4.6,0.7,12.4-0.6,15.2,2.3c3,3.1,1.8,15.4,1.8,22.6c0,16.3,0,31.9,0,48.4c0,7.1,1.2,18.6-1.5,22.6
		c-2.4,3.6-9.8,3-15.2,2.9c-0.7,5.7-0.1,12.7-0.3,18.8c11.7,0.7,24.7,0.1,37,0.3c0,7.4,0,14.9,0,22.3c8,0,16,0,23.9,0
		c0-7.4,0-14.9,0-22.3c5.2,0.2,11.1-0.4,15.8,0.3c0,7.3,0,14.7,0,22c8,0,16,0,23.9,0c0-8.1,0-16.2,0-24.3
		c18.9-3.8,36.6-15.3,37-35.6C320.3,238.7,306.3,229.3,288.5,224.6z M234.5,183.1c0-0.5,0.2-0.8,0.6-0.9c16.5,0.5,38-2.3,43.6,9
		c2.3,4.7,2.1,11.9-1.2,16.5c-7,9.7-25.6,7.6-43,7.8C234.5,204.8,234.5,193.9,234.5,183.1z M273.6,271.5c-6.3,3.8-16.6,3.5-28.2,3.5
		c-3.3,0-7.9,0.4-9.4-0.9c-2.8-2.3-1.5-13.1-1.5-18.3c0-7.2,0-13.1,0-19.4c0-0.5,0.2-0.7,0.6-0.9c20.2,0.2,42.2-2,47,12.5
		C285.3,257.8,280.5,267.4,273.6,271.5z"/>
	<path d="M501.1,235.9c0-0.6,0-1.1,0-1.7c0-1.6,0.1-3.3,0.1-4.9c0-4-0.1-7.9-0.3-11.8C494.2,96.3,385,0,251.2,0
		C117.1,0,7.7,96.7,1.4,218.1c-0.2,3.7-0.3,7.4-0.3,11.1c0,1.7,0,3.4,0.1,5c0,0.5,0,1,0,1.4c0,0.1,0,0.2,0,0.3H1.1v52.1h0.1
		c0.7,27.4,6.6,53.5,17,77.7c1.3,3,2.6,5.9,4,8.8c2.8,5.8,5.8,11.4,9,16.9c1.3,2.2,2.7,4.5,4.1,6.7c18.6,29.1,43.9,54.1,74,73.2
		c1.5,1,3.1,1.9,4.7,2.9c2.7,1.7,5.5,3.3,8.3,4.8c1.6,0.9,3.2,1.7,4.8,2.6c2.7,1.4,5.5,2.8,8.2,4.2c1.6,0.8,3.2,1.5,4.9,2.3
		c2.7,1.2,5.4,2.4,8.2,3.5c1.6,0.7,3.3,1.3,5,2c2.7,1,5.3,2.1,8.1,3c1.7,0.6,3.4,1.2,5.1,1.7c2.6,0.9,5.3,1.7,8,2.5
		c1.7,0.5,3.4,1,5.2,1.5c2.6,0.7,5.2,1.4,7.9,2c1.7,0.4,3.5,0.8,5.3,1.2c2.6,0.6,5.2,1.1,7.8,1.6c1.8,0.3,3.6,0.7,5.4,1
		c2.5,0.4,5.1,0.8,7.7,1.2c1.8,0.3,3.6,0.5,5.5,0.7c2.5,0.3,5,0.6,7.6,0.8c1.8,0.2,3.7,0.3,5.6,0.4c2.5,0.2,5,0.3,7.5,0.4
		c1.9,0.1,3.8,0.1,5.7,0.2c2,0,4,0.1,6,0.1c1.5,0,3.1,0,4.6-0.1c1.9,0,3.8-0.1,5.6-0.2c2.5-0.1,5-0.2,7.5-0.4
		c1.9-0.1,3.7-0.3,5.6-0.4c2.5-0.2,5.1-0.5,7.6-0.7c1.8-0.2,3.6-0.4,5.5-0.7c2.6-0.3,5.1-0.7,7.7-1.1c1.8-0.3,3.6-0.6,5.4-0.9
		c2.6-0.5,5.2-1,7.8-1.6c1.8-0.4,3.5-0.8,5.3-1.2c2.6-0.6,5.3-1.3,7.9-2c1.7-0.5,3.4-0.9,5.2-1.4c2.7-0.8,5.3-1.6,8-2.4
		c1.7-0.6,3.4-1.1,5.1-1.7c2.7-0.9,5.4-1.9,8.1-2.9c1.7-0.6,3.3-1.3,5-2c2.7-1.1,5.5-2.3,8.2-3.5c1.6-0.7,3.3-1.5,4.9-2.2
		c2.8-1.3,5.5-2.7,8.2-4.1c1.6-0.8,3.2-1.7,4.8-2.5c2.9-1.6,5.7-3.2,8.5-4.9c1.5-0.9,3-1.8,4.5-2.8c30.7-19.2,56.5-44.5,75.4-73.9
		c0.9-1.5,1.8-2.9,2.7-4.4c3.2-5.3,6.2-10.8,9-16.4c1.4-2.8,2.7-5.6,4-8.5c11.2-25.1,17.7-52.4,18.4-81h0.1v-5.4V236h-0.1
		C501.1,236,501.1,235.9,501.1,235.9z M251.2,426.3C132.3,426.3,36,338.1,36,229.2C36,120.3,132.3,32,251.2,32
		s215.1,88.3,215.1,197.2C466.3,338.1,370,426.3,251.2,426.3z M16.7,309c0.5,1.1,0.9,2.3,1.4,3.4v5.6C17.6,315.1,17.1,312,16.7,309z
		 M22.1,335.6v-14.4c2.8,5.8,5.8,11.4,9,16.9v23.3C27.6,353.1,24.5,344.5,22.1,335.6z M35.2,370.4v-25.6c2.8,4.4,5.8,8.8,8.9,13
		v29.1C40.9,381.5,38,376.1,35.2,370.4z M48.4,393.6v-30.3c2.8,3.6,5.8,7.1,8.8,10.5v32.3C54.1,402,51.1,397.9,48.4,393.6z
		 M61.5,411.6v-33.1c2.8,3,5.7,6,8.7,8.9v34.3C67.2,418.4,64.3,415,61.5,411.6z M74.6,426.4v-34.9c2.8,2.6,5.7,5.1,8.6,7.5v35.8
		C80.3,432.1,77.4,429.3,74.6,426.4z M87.7,438.9v-36.2c2.8,2.2,5.6,4.4,8.5,6.5V446C93.3,443.7,90.5,441.3,87.7,438.9z
		 M100.8,449.6v-37.2c2.8,1.9,5.6,3.8,8.4,5.6v37.8C106.4,453.7,103.6,451.7,100.8,449.6z M113.9,458.9v-38.1
		c2.7,1.7,5.5,3.3,8.3,4.8v38.5C119.5,462.4,116.7,460.7,113.9,458.9z M127.1,466.9v-38.7c2.7,1.4,5.5,2.8,8.2,4.1v39
		C132.5,469.9,129.8,468.4,127.1,466.9z M140.2,473.8v-39.2c1.3,0.6,2.6,1.2,3.9,1.7c0.4,0.2,0.8,0.3,1.2,0.5c1,0.4,2,0.9,3,1.3
		v39.5C145.6,476.4,142.9,475.1,140.2,473.8z M153.3,479.8v-39.6c2.7,1,5.3,2,8.1,3V483C158.7,482,156,480.9,153.3,479.8z
		 M174.4,487.5c-2.7-0.8-5.3-1.7-8-2.7v-39.9c2.6,0.9,5.3,1.7,8,2.5V487.5z M187.4,491.2c-2.6-0.7-5.3-1.4-7.9-2.2v-40.2
		c2.6,0.7,5.2,1.4,7.9,2V491.2z M200.4,494.2c-2.6-0.5-5.2-1.1-7.8-1.7v-40.4c2.6,0.6,5.2,1.1,7.8,1.6V494.2z M213.4,496.5
		c-2.6-0.4-5.1-0.8-7.7-1.3v-40.6c2.5,0.4,5.1,0.8,7.7,1.2V496.5z M226.5,498.1c-2.5-0.2-5.1-0.5-7.6-0.8v-40.7
		c2.5,0.3,5,0.5,7.6,0.8V498.1z M239.5,499c-2.5-0.1-5-0.3-7.5-0.5v-40.7c2.5,0.2,5,0.3,7.5,0.4V499z M255.8,499.2
		c-1.5,0-3.1,0-4.6,0c-2,0-4,0-6-0.1v-40.8c2,0,4,0.1,6,0.1c1.5,0,3.1-0.1,4.6-0.1V499.2z M268.9,498.6c-2.5,0.2-5,0.3-7.5,0.4
		v-40.8c2.5-0.1,5-0.2,7.5-0.4V498.6z M282,497.4c-2.5,0.3-5,0.6-7.6,0.8v-40.8c2.5-0.2,5.1-0.4,7.6-0.7V497.4z M295.1,495.5
		c-2.5,0.4-5.1,0.8-7.7,1.2V456c2.6-0.3,5.1-0.7,7.7-1.1V495.5z M308.2,492.8c-2.6,0.6-5.2,1.1-7.8,1.7V454c2.6-0.5,5.2-1,7.8-1.6
		V492.8z M321.3,489.5c-2.6,0.7-5.2,1.4-7.9,2.1v-40.4c2.6-0.6,5.3-1.3,7.9-2V489.5z M334.5,485.3c-2.6,0.9-5.3,1.8-8,2.6v-40.1
		c1.6-0.5,3.2-1,4.8-1.5c0,0,0.1,0,0.1,0c1-0.3,2-0.6,3-1V485.3z M347.6,480.4c-2.7,1.1-5.3,2.1-8.1,3.1v-39.9
		c0.5-0.2,1.1-0.4,1.6-0.6c0.8-0.3,1.6-0.6,2.4-0.9c1.3-0.5,2.7-1,4-1.5V480.4z M352.6,478.2v-39.5c2.7-1.1,5.5-2.3,8.2-3.5v39.3
		C358,475.8,355.3,477,352.6,478.2z M365.6,472.1V433c2.8-1.3,5.5-2.7,8.2-4.1v38.8C371.1,469.2,368.4,470.7,365.6,472.1z
		 M378.6,464.9v-38.5c2.8-1.5,5.6-3.1,8.3-4.7v38.1C384.2,461.6,381.4,463.3,378.6,464.9z M391.6,456.7v-37.9
		c2.9-1.8,5.7-3.6,8.4-5.5v37.4C397.3,452.7,394.5,454.7,391.6,456.7z M404.6,447.2v-37c2.9-2.1,5.7-4.2,8.5-6.4v36.4
		C410.4,442.5,407.6,444.9,404.6,447.2z M417.7,436.1v-36c2.9-2.4,5.8-4.9,8.6-7.4v35.1C423.5,430.7,420.6,433.4,417.7,436.1z
		 M430.7,423.3v-34.6c3-2.8,5.9-5.7,8.7-8.7v33.3C436.6,416.7,433.7,420,430.7,423.3z M443.7,408v-32.6c3.1-3.4,6-6.8,8.8-10.4v30.7
		C449.7,399.9,446.8,404,443.7,408z M456.7,389.2v-29.6c3.1-4.1,6.1-8.3,8.9-12.7v26.3C462.9,378.7,459.9,384.1,456.7,389.2z
		 M469.8,364.7v-24.2c3.2-5.3,6.3-10.8,9-16.3v16.4C476.3,348.8,473.3,356.9,469.8,364.7z M482.8,315.7c1-2.2,1.9-4.4,2.8-6.7
		c-0.7,5.5-1.7,10.8-2.8,16.2V315.7z"/>
</g>
</svg>
