<?xml version="1.0" encoding="utf-8"?>
<!-- Generator: Adobe Illustrator 21.1.0, SVG Export Plug-In . SVG Version: 6.00 Build 0)  -->
<svg version="1.1" id="Layer_1" xmlns="http://www.w3.org/2000/svg" xmlns:xlink="http://www.w3.org/1999/xlink" x="0px" y="0px"
	 viewBox="0 0 342 512" style="enable-background:new 0 0 342 512;" xml:space="preserve">
<style type="text/css">
	.st0{fill-rule:evenodd;clip-rule:evenodd;}
</style>
<g id="_x33_2">
	<path d="M258.5,33.8c6.4,0,11.6-5,11.6-11.3c0-6.2-5.2-11.3-11.6-11.3h-61.7C196.8,5,191.7,0,185.3,0H88.9c-6.4,0-11.6,5-11.6,11.3
		H11.8c-6.4,0-11.6,5-11.6,11.3c0,6.2,5.2,11.3,11.6,11.3H258.5z"/>
	<path d="M323.1,68h-64.7V41.3H4.1c0,0,11.6,22.1,11.6,52.4v157.2c0,7.8,2,15.4,5.8,22.1l55.8,98.6h119.5l55.8-98.6
		c3.8-6.7,5.8-14.3,5.8-22.1V236h64.7c10.4,0,18.9-8.4,18.9-18.9V86.9C342,76.4,333.6,68,323.1,68z M226.5,242.4
		c0,7.8-2,15.4-5.8,22.1l-42.5,75H96l-42.5-75c-3.8-6.7-5.8-14.4-5.8-22.1V93.7c0-7.2-0.5-14-1.3-20.4h180.2V242.4z M322,208.1
		c0,4.4-3.6,7.9-7.9,7.9h-55.6V88h55.6c4.4,0,7.9,3.6,7.9,7.9V208.1z"/>
	<path class="st0" d="M201.6,379h-129L7,512h26.4l8.3-11.3h190.8l8,11.3h26.7L201.6,379z M105.2,481.1H73.4v-12.3h31.8V481.1z
		 M152.9,481.1h-31.8v-12.3h31.8V481.1z M138.6,453.4c-16.7,0-30.2-13.1-30.2-29.3c0-16.2,13.5-29.3,30.2-29.3s30.2,13.1,30.2,29.3
		C168.8,440.3,155.3,453.4,138.6,453.4z M200.6,481.1h-31.8v-12.3h31.8V481.1z"/>
</g>
</svg>
