<?xml version="1.0" encoding="utf-8"?>
<!-- Generator: Adobe Illustrator 21.1.0, SVG Export Plug-In . SVG Version: 6.00 Build 0)  -->
<svg version="1.1" id="Layer_1" xmlns="http://www.w3.org/2000/svg" xmlns:xlink="http://www.w3.org/1999/xlink" x="0px" y="0px"
	 viewBox="0 0 449.3 512" style="enable-background:new 0 0 449.3 512;" xml:space="preserve">
<style type="text/css">
	.st0{fill:#020202;}
</style>
<g id="_x33_2">
	<path class="st0" d="M129,355.8l-12.6,55.9c-0.8,3.8-2.5,7.4-5,10.3l-72.2,82.2c-8,9.3-22.1,10.4-31.4,2.3l0,0
		c-9.3-8-10.4-22.1-2.3-31.4l68.4-77.8l21.1-94.5L129,355.8z"/>
	<path class="st0" d="M443.4,510.4c-1.9,1.1-3.9,1.6-5.9,1.6c-4.1,0-8-2.1-10.2-5.9c-2.4-4.1-2-9.2,0.8-13l-91.9-188.8
		c-3.3,0-6.4-1.8-8-4.7L310,267.9c-1.7,0.4-3.1,0.6-4.5,0.6c-3.1,0-7-0.9-12.9-3.7c-12.7-0.8-15.4,10-15.4,10
		c-1.1,1.9-2.1,2.7-2.8,2.7c-2,0-2.6-5.3-2.5-7.6c0.4-4.1,5-8.2,8-9.2c-30.7-6.3-68.7-20.2-85-49.6l-9.5-17.2l-23,96l120.3,187.8
		c6.6,10.3,3.7,24.1-6.7,30.8l0,0c-10.4,6.7-24.2,3.7-30.9-6.7L108.5,288.6c-5.5-8.5-6.7-15.3-4.7-25.1l23-109.9
		c0,0-50.8,47.3-56.8,54.8c-6.8,8.5-32,57.8-39.6,73.3c-4.4,8.9-15.6,11.7-23.6,6l0,0C0.2,283-1.9,274.1,1.9,267
		c9.2-17.2,39.5-74.8,46.9-84.5c13.5-17.5,34.3-42.3,59.1-54.6c12.8-6.4,25.2-12.9,53.8-12.9c21.2,0,28.6,8.6,33.1,17
		c9.9,18.4,43.3,75,43.3,75l74.6,30.8c4.1,1.7,7.3,4.9,9,9c0.9,2.2,1.3,4.6,1.2,7c0.4,0.7,21.1,36.7,21.1,36.7
		c1.7,2.9,1.7,6.4,0.1,9.3l91.9,188.8c0.5-0.1,1-0.1,1.5-0.1c4.2,0,8.1,2.2,10.2,5.9C451,500,449.1,507.2,443.4,510.4z"/>
	<path class="st0" d="M184.7,0c-25.8,0-46.8,21-46.8,46.8c0,26,21,46.8,46.8,46.8c26,0,47-20.8,47-46.8C231.7,21,210.6,0,184.7,0z"
		/>
</g>
</svg>
