<?xml version="1.0" encoding="utf-8"?>
<!-- Generator: Adobe Illustrator 22.0.1, SVG Export Plug-In . SVG Version: 6.00 Build 0)  -->
<svg version="1.1" id="Layer_1" xmlns="http://www.w3.org/2000/svg" xmlns:xlink="http://www.w3.org/1999/xlink" x="0px" y="0px"
	 viewBox="0 0 512 512" style="enable-background:new 0 0 512 512;" xml:space="preserve">
<style type="text/css">
	.st0{fill:#010101;}
</style>
<g>
	<path class="st0" d="M111.8,32v51.7H32V32H111.8 M143.8,0H0v115.7h143.8V0L143.8,0z"/>
	<path class="st0" d="M295.9,32v51.7h-79.8V32H295.9 M327.9,0H184.1v115.7h143.8L327.9,0L327.9,0z"/>
	<path class="st0" d="M480,32v51.7h-79.8V32H480 M512,0H368.2v115.7H512V0L512,0z"/>
	<path class="st0" d="M162.5,428.3V480H32v-51.7H162.5 M194.5,396.3H0V512h194.5V396.3L194.5,396.3z"/>
	<path class="st0" d="M0,198.2v115.7h344.7V198.2H0z M312.7,281.8H32v-51.7h280.7V281.8z"/>
	<path class="st0" d="M480,230.2v51.7h-63v-51.7H480 M512,198.2H385v115.7h127V198.2L512,198.2z"/>
	<path class="st0" d="M480,428.3V480H266.8v-51.7H480 M512,396.3H234.8V512H512V396.3L512,396.3z"/>
</g>
</svg>
