<?xml version="1.0" encoding="utf-8"?>
<!-- Generator: Adobe Illustrator 21.1.0, SVG Export Plug-In . SVG Version: 6.00 Build 0)  -->
<svg version="1.1" id="Layer_2" xmlns="http://www.w3.org/2000/svg" xmlns:xlink="http://www.w3.org/1999/xlink" x="0px" y="0px"
	 viewBox="0 0 434 512" style="enable-background:new 0 0 434 512;" xml:space="preserve">
<g id="_x33_2">
	<path d="M356,43v-8.1C356,15.6,340.4,0,321.1,0H110.9C91.6,0,76,15.6,76,34.9V43H24.5C11,43,0,54,0,67.5v420C0,501,11,512,24.5,512
		h382c13.5,0,24.5-11,24.5-24.5v-420C431,54,420,43,406.5,43H356z M119.7,32h192.7c6.4,0,11.7,5.2,11.7,11.7v17.7
		c0,6.4-5.2,11.7-11.7,11.7H119.7c-6.4,0-11.7-5.2-11.7-11.7V43.7C108,37.2,113.2,32,119.7,32z M399,481H32V95h367V481z"/>
	<rect x="225" y="145" width="131" height="32"/>
	<rect x="225" y="223" width="131" height="32"/>
	<rect x="225" y="320" width="131" height="32"/>
	<rect x="225" y="398" width="131" height="32"/>
	<path d="M118.1,261.1c4.6,5.4,12.7,6.3,18.2,2c1-0.8,1.7-1.8,2.4-2.8l62.9-102.1c4.2-6.9,2-15.9-4.9-20c-6.8-4.1-15.6-1.9-19.8,4.9
		l-52.5,85.8l-25-25.7c-6.1-6.2-16.2-5.6-21.5,1.2c-4.4,5.7-3.9,13.9,1.3,18.9L118.1,261.1z"/>
	<path d="M118.1,435c4.6,5.4,12.7,6.3,18.2,2c1-0.8,1.7-1.8,2.4-2.8l62.9-102.1c4.2-6.9,2-15.9-4.9-20c-6.8-4.1-15.6-1.9-19.8,4.9
		l-52.5,85.8l-25-25.7c-6.1-6.2-16.2-5.6-21.5,1.2c-4.4,5.7-3.9,13.9,1.3,18.9L118.1,435z"/>
</g>
</svg>
