<?xml version="1.0" encoding="utf-8"?>
<!-- Generator: Adobe Illustrator 21.1.0, SVG Export Plug-In . SVG Version: 6.00 Build 0)  -->
<svg version="1.1" id="Layer_2" xmlns="http://www.w3.org/2000/svg" xmlns:xlink="http://www.w3.org/1999/xlink" x="0px" y="0px"
	 viewBox="0 0 512 512" style="enable-background:new 0 0 512 512;" xml:space="preserve">
<style type="text/css">
	.st0{fill-rule:evenodd;clip-rule:evenodd;}
</style>
<g id="_x33_2">
	<g>
		<path class="st0" d="M511.7,413.4c-11.1-3.6-23.6-7.8-36.7-7.8c-8,0-17,3-26.5,6.2c-11.4,3.8-23.2,7.8-36,7.8
			c-11.5,0-23.1-3.6-34.3-7.1c-10.9-3.4-22.2-6.9-33-6.9c-9.5,0-19.5,3.2-30,6.6c-11.2,3.6-22.9,7.4-34.9,7.4
			c-11.4,0-23.3-3.8-34.8-7.4c-10.8-3.4-21-6.6-30-6.6c-10.8,0-20.6,3.3-31,6.8c-10.3,3.6-21.1,7.2-32.7,7.2
			c-13.6,0-26.2-4-38.4-7.8c-10.2-3.2-19.8-6.2-28.3-6.2c-10.8,0-20.1,3.8-29,7.5c-8,3.3-15.7,6.5-23.8,6.5
			c-13.1,0-24.4-2.3-31.8-4.4v32c5.3,1.9,15.5,4.9,27.6,4.9c5.8,0,12.5-2.5,20.2-5.4c10.8-4,23-8.6,38.1-8.6c10.6,0,21,3.4,32,6.9
			c10.9,3.5,22.3,7.1,33.5,7.1c9.1,0,18.8-3.2,29.1-6.5c11.5-3.7,23.3-7.5,35.8-7.5c11.3,0,22.3,3.7,33,7.3
			c10.2,3.4,20,6.7,29.4,6.7c9.9,0,20-3.3,30.7-6.7c11.1-3.6,22.5-7.3,34.2-7.3c12.8,0,24.9,3.8,36.7,7.5c10.6,3.3,20.6,6.5,30,6.5
			c9.7,0,19.6-3.6,29.3-7c9.7-3.4,19.7-7,29.6-7c15.9,0,30,4,42.7,7.8v-32.3C512.2,413.6,511.9,413.5,511.7,413.4z M512.5,385.1
			c0,0-0.1,0-0.1,0v0H512.5z M511.7,473.3c-11.1-3.6-23.6-7.8-36.7-7.8c-8,0-17,3-26.5,6.2c-11.4,3.8-23.2,7.8-36,7.8
			c-11.5,0-23.1-3.6-34.3-7.1c-10.9-3.4-22.2-6.9-33-6.9c-9.5,0-19.5,3.2-30,6.6c-11.2,3.6-22.9,7.4-34.9,7.4
			c-11.4,0-23.3-3.8-34.8-7.4c-10.8-3.4-21-6.6-30-6.6c-10.8,0-20.6,3.3-31,6.8c-10.3,3.6-21.1,7.2-32.7,7.2
			c-13.6,0-26.2-4-38.4-7.8c-10.2-3.2-19.8-6.2-28.3-6.2c-10.8,0-20.1,3.8-29,7.5c-8,3.3-15.7,6.5-23.8,6.5
			c-13.1,0-24.4-2.3-31.8-4.4v32C5.8,509,16,512,28.1,512c5.8,0,12.5-2.5,20.2-5.4c10.8-4,23-8.6,38.1-8.6c10.6,0,21,3.4,32,6.9
			c10.9,3.5,22.3,7.1,33.5,7.1c9.1,0,18.8-3.2,29.1-6.5c11.5-3.7,23.3-7.5,35.8-7.5c11.3,0,22.3,3.7,33,7.3
			c10.2,3.4,20,6.7,29.4,6.7c9.9,0,20-3.3,30.7-6.7c11.1-3.6,22.5-7.3,34.2-7.3c12.8,0,24.9,3.8,36.7,7.5c10.6,3.3,20.6,6.5,30,6.5
			c9.7,0,19.6-3.6,29.3-7c9.7-3.4,19.7-7,29.6-7c15.9,0,30,4,42.7,7.8v-32.3C512.2,473.5,511.9,473.4,511.7,473.3z M512.4,445.9h0.1
			C512.5,445.9,512.5,445.9,512.4,445.9L512.4,445.9z M56.1,352.3c-8,3.3-15.7,6.5-23.8,6.5c-13.1,0-24.4-2.3-31.8-4.4v32
			c5.3,1.9,15.5,4.9,27.6,4.9c5.8,0,12.5-2.5,20.2-5.4c10.8-4,23-8.6,38.1-8.6c10.6,0,21,3.4,32,6.9c10.9,3.5,22.3,7.1,33.5,7.1
			c9.1,0,18.8-3.2,29.1-6.5c11.5-3.7,23.3-7.5,35.8-7.5c11.3,0,22.3,3.7,33,7.3c10.2,3.4,20,6.7,29.4,6.7c9.9,0,20-3.3,30.7-6.7
			c11.1-3.6,22.5-7.3,34.2-7.3c12.8,0,24.9,3.8,36.7,7.5c10.6,3.3,20.6,6.5,30,6.5c9.7,0,19.6-3.6,29.3-7c9.7-3.4,19.7-7,29.6-7
			c15.9,0,30,4,42.7,7.8v-32.3c-0.2,0-0.5-0.1-0.7-0.2c-11.1-3.6-23.6-7.8-36.7-7.8c-8,0-17,3-26.5,6.2c-11.4,3.8-23.2,7.8-36,7.8
			c-8.7,0-17.4-2-26-4.6l34.9-82.6l-99.5-2.5c-5.7-7.9-14.3-16.8-27.1-25.7c-0.4-0.3-0.5-1-0.7-1.5c-19.5-43-47.4-110.5-68.6-159.9
			c-0.3-0.7-1.1-1.4-0.9-2.2C232.9,48.9,205.9,0,205.9,0l-47.1,22.5c0,0,8.6,43.8,47,62.1c-10.7,2.2-39.7,10.8-56.8,32.2
			c-17.3,21.6-24.4,57.9-25.5,59.4c-4.7,6.6-10.1,15.3-14.3,26.6c-6.5,17.6-7.9,42.1-7.9,60.5L0,260.8l68.3,86.8
			C64.1,349,60.1,350.6,56.1,352.3z M276.2,237.7c1.4,3.5,2.8,6.9,4.2,10.3c0.1,0.3,0.4,0.6,0.4,1c-1.1,6.8-1.5,13.1-1.4,19
			l-110.9-2.8c-0.4-2.6-0.7-5.3-0.7-8c0.1-12.6,9-24.5,10.3-25.3c1.6-1,14.5,10.1,34.4,14.5c24.4,5.4,58.6-5.9,60.5-6.6
			C274.3,239.2,275.3,238.5,276.2,237.7z M159.2,153.1c-0.2,1.5-0.3,3.1-0.3,4.7c0,17,13.2,30.7,29.4,30.7s29.4-13.8,29.4-30.7
			c0-17-13.2-30.7-29.4-30.7c-9.6,0-18.1,4.8-23.5,12.2c10.1-17.5,40.9-28.4,50.9-38.9c0.5-0.5,0.8-1,1.1-1.5
			c16.8,36.8,35.3,80.6,51.3,119.2c-0.6-0.1-1.3-0.2-1.9-0.2c-16.9-1.2-47.7,4.4-50.2,3c-17.2-9.2-38.8-29.2-57.4-38.5
			C156.9,181.5,155.3,167.7,159.2,153.1z M512.4,505.8h0.1C512.5,505.8,512.5,505.8,512.4,505.8L512.4,505.8z"/>
	</g>
</g>
</svg>
