<?xml version="1.0" encoding="utf-8"?>
<!-- Generator: Adobe Illustrator 21.1.0, SVG Export Plug-In . SVG Version: 6.00 Build 0)  -->
<svg version="1.1" id="Layer_1" focusable="false" xmlns="http://www.w3.org/2000/svg" xmlns:xlink="http://www.w3.org/1999/xlink"
	 x="0px" y="0px" viewBox="0 0 384 512" style="enable-background:new 0 0 384 512;" xml:space="preserve">
<path id="_x33_2" d="M304.9,259.8c-10.8-6.2-36.5-12.7-36.5-12.7s17.2-4.3,30.8-12.1c35.9-20.4,55.7-49.8,55.7-90.4
	c0-37.5-12.1-65.3-37.1-84.8c-11.5-9-35.5-27.8-116.5-27.8H13v21.8c8.2,1.9,17,6.1,21.1,8.4c16.2,9,13.9,37.6,13.9,46.7
	c0,61.6,0.1,168.4,0.2,241c0,25.7,0,50.2,0,50.2c0.1,12.9,2,38.5-10.9,49.4c-4.6,3.9-15.7,8.7-24.2,10.7V482h191.5
	c83.4,0,112.3-22.5,124.7-32c28-22,41.6-52,41.6-91.4C370.8,309.7,344.1,282.1,304.9,259.8z M81.2,64h155.9
	c46.7,0,84.5,36.9,84.5,82.4c0,22.8-9.1,43.7-24.8,58.3c-18.8,17.6-52.4,24.1-75.8,24.1H81.2V64z M310.7,423.6
	c-16.7,16.7-39.8,27.1-65.3,27.1H81.2V265.9h134.1c68.8,0,122.4,41.4,122.4,92.4C337.8,383.8,327.4,406.9,310.7,423.6z"/>
</svg>
