<?xml version="1.0" encoding="utf-8"?>
<!-- Generator: Adobe Illustrator 21.1.0, SVG Export Plug-In . SVG Version: 6.00 Build 0)  -->
<svg version="1.1" id="Layer_2" xmlns="http://www.w3.org/2000/svg" xmlns:xlink="http://www.w3.org/1999/xlink" x="0px" y="0px"
	 viewBox="0 0 512 512" style="enable-background:new 0 0 512 512;" xml:space="preserve">
<g id="_x33_2">
	<g>
		<path d="M480.9,74.8L511.7,44h-44.4l0.5-44.5l-31.4,31l-30.9-31V44h-44.4L390,72.5c-4.4,1.3-12.4,2.2-14.3,2.5
			c-16.1-0.3-29.3-22.6-39.1-31.9c-9.9-9.4-23.2-31-78.3-31c-21.4-0.9-55.9,14-67.3,62.4l-11,0.2c-9.1,0.4-15,5.3-17,7.3
			c-2.3,2-7,7-7,16v13.5C80.5,129.7,0.2,197,0.2,308.7s89.9,202.8,202.6,202.8s202.6-91.9,202.6-202.8S320,127.9,249.3,111.4V97.9
			c0-8.1-3-12.7-6.5-16c-2.3-2-7.6-7.5-19.3-7c3.9-10.3,9.1-31,41.4-31c67.1,4.2,53.1,61.9,109.3,61.9h31.4v44.5l30.9-31l30.9,31
			v-44.5h44.4L480.9,74.8z M372.9,308.4c0,93.7-75.9,169.6-169.6,169.6S33.7,402.1,33.7,308.4s76-169.6,169.6-169.6
			S372.9,214.7,372.9,308.4z M238.2,80.8c0,2-3.1,3.7-9.4,5c-6.7,1.3-14.5,2-23.4,2c-9.3,0-17.3-0.7-23.9-2c-6.3-1.3-9.4-3-9.4-5
			s3.1-3.7,9.4-5c2.8-0.4,5.9-0.8,9.4-0.9c-0.3,1.5-0.8,5.6-0.8,5.6h32.5c0,0-0.2-2.7,0.7-5.2C233.5,75.8,238.2,78.8,238.2,80.8z
			 M456.7,94.9v29l-20.5-20l-22.4,21.5v-31l-28.4-6.5l21-15l-19-18.5h28.9V26l20,20l20-20v29.5h27.9l-19,19.5l19,19.9H456.7z"/>
	</g>
	<g>
		<path d="M121.7,228c-34.8,44.9-25.8,86.8-25.8,86.8l0.2-0.1c0,0,2.3-43.1,39.4-75.9L121.7,228L121.7,228z"/>
	</g>
	<g>
		<polygon points="142.7,208.3 126,222.9 140.2,234.2 155.6,221.8 142.7,208.3 		"/>
	</g>
</g>
</svg>
