<?xml version="1.0" encoding="utf-8"?>
<!-- Generator: Adobe Illustrator 21.1.0, SVG Export Plug-In . SVG Version: 6.00 Build 0)  -->
<svg version="1.1" id="Layer_1" xmlns="http://www.w3.org/2000/svg" xmlns:xlink="http://www.w3.org/1999/xlink" x="0px" y="0px"
	 viewBox="0 0 240 512" style="enable-background:new 0 0 240 512;" xml:space="preserve">
<g>
	<path d="M121.1,105.2c3.8,6.8,38.4,82.8,39.8,85.8H80.3C84.5,180.1,117.2,112.4,121.1,105.2 M241.1,0H0v110.4l66.5,32.3
		c-11.8,24.7-20.9,51.7-31.5,79.9h173.1c-9.3-27.9-23.7-54.4-34.3-79l67-32.5L241.1,0L241.1,0z M79.5,117.7L28.3,93.5V28.4h185v64.5
		l-50.8,24.4C151,93,142.1,77.6,131.8,62.5c1.3-1,1-1.4,1-2.4V37.2c0-1.4-6.1-2.1-12.3-2.1s-12.3,0.7-12.3,2.1v22.9c0,1,1,3,1,3.9
		C100,78.2,91,92.9,79.5,117.7L79.5,117.7z M120.5,39.5c-5.4,0-9.6-0.6-9.6-1.4c0-0.8,4.4-1.4,9.6-1.4c5.4,0,9.7,0.6,9.7,1.4
		C130.2,38.8,125.9,39.5,120.5,39.5L120.5,39.5z"/>
	<path d="M188,267.6c5.1,16.8,10.2,35.8,13.6,54.6l0,0.3l0.1,0.3c9.7,48.1,8.9,88.1-2.2,115.6c-0.3,0.5-1.1,2.1-3.4,6.1
		c-6.2,10.8-16.5,19.8-29.8,26.2c-13.6,6.5-29.7,9.9-46.5,9.9c-16.7,0-32.7-3.4-46.3-9.8c-13.3-6.2-23.7-15.2-30-25.9l0-0.1l0-0.1
		c-2.3-3.9-3.6-6.3-4-7.2c-10.5-27.1-10.3-67.9,0.8-118.1l0.1-0.4l0.1-0.4c3.2-16.4,8.5-33.7,14.2-50.9H188 M210.6,236H32.4
		c-0.3,0-0.5,0.2-0.6,0.4c-8.6,25.1-17.5,50.9-22.4,76.1c-11.1,50.7-13.8,100,1,137.3c0.9,2.1,2.9,5.9,6,11
		C36.7,495,78.3,512,119.8,512c41.9,0,83.7-17.3,103.6-51.9c2.6-4.4,4.4-7.7,5.1-9.6c14.9-36.3,14.1-84.4,4.1-134.1
		c-4.9-26.6-12.7-53.3-21.4-80.1C211.2,236.2,210.9,236,210.6,236L210.6,236z"/>
</g>
</svg>
