<?xml version="1.0" encoding="utf-8"?>
<!-- Generator: Adobe Illustrator 21.1.0, SVG Export Plug-In . SVG Version: 6.00 Build 0)  -->
<svg version="1.1" id="Layer_3" xmlns="http://www.w3.org/2000/svg" xmlns:xlink="http://www.w3.org/1999/xlink" x="0px" y="0px"
	 viewBox="0 0 512.7 512" style="enable-background:new 0 0 512.7 512;" xml:space="preserve">
<path d="M491.8,68.1c-8.2-8.5-17.9-14.6-28.3-18.3C453.2,20.7,425.5-0.1,392.9,0c-20.7,0-39.4,8.4-53,22c-13.6,13.6-22,32.3-22,53
	c0,8,1.3,15.7,3.6,22.9l-223,223c-25.8-8.3-55.3-2.1-75.9,18.5c-0.1,0.1-0.2,0.2-0.3,0.3c-28.5,28.8-28.8,75.7-0.7,104.7
	c8.2,8.5,17.9,14.6,28.3,18.3c10.2,29.1,37.9,49.9,70.6,49.8c20.7,0,39.4-8.4,53-22c13.6-13.6,22-32.3,22-53
	c0-8.3-1.3-16.2-3.8-23.6l222.5-222.5c26,8.6,55.9,2.5,76.6-18.2c0.1-0.1,0.2-0.2,0.3-0.3C519.6,144,519.9,97.1,491.8,68.1z
	 M470.3,149.1c-0.6,0.6-1.1,1.2-1.7,1.8c-16.3,16.3-42.4,17-59.4,2l-0.4,0.4l-0.5-0.5L163,398.1l0.7,0.7L153.4,409
	c6.6,7.6,10.6,17.6,10.6,28.5c0,12-4.9,22.9-12.8,30.7c-7.9,7.9-18.7,12.7-30.7,12.8c-13.1,0-24.9-5.8-32.9-15c0,0,0.1,0,0.1,0
	c3.3-0.6,6.2-2.1,8.4-4.3c4.2-4.2,5.9-10.7,3.6-16.8c-2.6-7-9.8-11.1-17.2-9.9c-14.1,2.4-29.1-2.2-39.5-13.7
	c-14.7-16.3-14.7-41.5,0-58c0.6-0.6,1.1-1.2,1.7-1.8c16.3-16.3,42.4-17,59.4-2l10.1-10.1l0,0l245.3-245.3l-0.2-0.2l0.6-0.6
	c-6.6-7.6-10.6-17.6-10.6-28.5c0-12,4.9-22.9,12.8-30.7c7.9-7.9,18.7-12.7,30.7-12.8c13.1,0,24.9,5.8,32.9,15c0,0-0.1,0-0.1,0
	c-3.3,0.6-6.2,2.1-8.4,4.3c-4.2,4.2-5.9,10.7-3.6,16.8c2.6,7,9.8,11.1,17.2,9.9c14.1-2.4,29.1,2.2,39.5,13.7
	C485,107.5,485,132.7,470.3,149.1z"/>
</svg>
