<?xml version="1.0" encoding="utf-8"?>
<!-- Generator: Adobe Illustrator 21.1.0, SVG Export Plug-In . SVG Version: 6.00 Build 0)  -->
<svg version="1.1" id="Layer_4" xmlns="http://www.w3.org/2000/svg" xmlns:xlink="http://www.w3.org/1999/xlink" x="0px" y="0px"
	 viewBox="0 0 512.7 512" style="enable-background:new 0 0 512.7 512;" xml:space="preserve">
<path d="M491.8,68.1c-8.2-8.5-17.9-14.5-28.3-18.3c-10.3-29.1-38-49.9-70.6-49.8c-1.6,0-3.2,0-4.8,0.2c-18.8,1.2-35.7,9.3-48.2,21.8
	c-13.6,13.6-22,32.3-22,53c0,8,1.3,15.7,3.6,22.9l-85,85l36.3,36.9l16.7,51.8l0,0l8.6,35.9l116.2-116.2c26,8.6,55.9,2.5,76.6-18.2
	c0.1-0.1,0.2-0.2,0.3-0.3c10.3-10.5,17-23.3,19.9-36.8C516.1,112.3,509.7,86.6,491.8,68.1z M470.3,149.1c-0.6,0.6-1.1,1.2-1.7,1.8
	c-11.9,11.9-29,15.5-43.9,10.7c-5.6-1.8-10.9-4.7-15.5-8.8l-0.4,0.4l-0.5-0.5l-96.8,96.8l-14.2-52.4l-15.4-15.2l76.4-76.4l1.3-1.3
	l-0.2-0.2l0.6-0.6c-5.1-5.8-8.6-13-10-21c-0.4-2.4-0.6-4.9-0.6-7.5c0-12,4.9-22.9,12.8-30.7c7.9-7.9,18.7-12.7,30.7-12.8
	c13.2,0,24.9,5.8,32.9,15c0,0-0.1,0-0.1,0c-3.3,0.6-6.2,2.1-8.4,4.3c-4.2,4.2-5.9,10.7-3.6,16.8c2.6,7,9.8,11.1,17.2,9.9
	c14.1-2.4,29.1,2.2,39.5,13.8C485,107.5,485,132.7,470.3,149.1z"/>
<path d="M244.4,316.6l-12.1-49.8l-19.1-16.2l0,0l-24-20.5l-90.7,90.7c-25.8-8.3-55.3-2.1-75.9,18.5c-0.1,0.1-0.2,0.2-0.3,0.3
	C7.1,355-0.1,375.5,0.8,395.7c0.8,17.7,7.7,35.1,20.8,48.6c8.2,8.5,17.9,14.6,28.3,18.3c10.3,29.1,37.9,49.9,70.5,49.8
	c2.7,0,5.4-0.2,8-0.4c17.5-1.9,33.2-9.8,44.9-21.6c13.6-13.6,22-32.3,22-53c0-8.3-1.3-16.2-3.8-23.6l61.1-61.2L244.4,316.6z
	 M163,398l0.7,0.7l-9.4,9.4l-0.8,0.8c2.6,3,4.9,6.5,6.6,10.2c2.6,5.6,4,11.8,4,18.3c0,12-4.9,22.9-12.8,30.7
	c-7.9,7.9-18.7,12.8-30.7,12.8c-13.2,0-24.9-5.8-32.9-15c0,0,0.1,0,0.1,0c3.3-0.6,6.2-2.1,8.4-4.3c4.2-4.2,5.9-10.7,3.6-16.8
	c-2.6-7-9.8-11.1-17.2-9.9c-14.1,2.4-29.1-2.2-39.5-13.8c-14.7-16.3-14.7-41.5,0-58c0.5-0.6,1.1-1.2,1.7-1.8
	c11.7-11.7,28.5-15.4,43.3-10.9c5.8,1.8,11.3,4.7,16.1,9l0.6-0.6l9.4-9.4l76.2-76.2l19.1,16.2l11.9,50L163,398z"/>
<polygon points="138.5,188.1 122.3,203.9 45.6,182.9 92.2,153.6 67.9,96.7 126.8,114.3 126,53 171.9,85.7 199.8,44.8 220.4,105.8 
	204.4,121.8 193.3,89.2 175.1,114.2 147.4,95.8 148,138.3 103,127.6 118.5,161.8 99.2,173.5 "/>
</svg>
