<?xml version="1.0" encoding="utf-8"?>
<!-- Generator: Adobe Illustrator 22.0.1, SVG Export Plug-In . SVG Version: 6.00 Build 0)  -->
<svg version="1.1" id="Layer_2" xmlns="http://www.w3.org/2000/svg" xmlns:xlink="http://www.w3.org/1999/xlink" x="0px" y="0px"
	 viewBox="0 0 620 512" style="enable-background:new 0 0 620 512;" xml:space="preserve">
<path d="M620.4,257c-0.5-6.1-1.8-22.9-1.8-47.8c0-24.2,1-51.7,1-51.7c0-8.4,0-12.5-2.5-14.4l0.2-0.2c2.3-2.1,3.5-5.2,3.3-8.3
	c-0.6-7.5-1.6-23.2-1.6-45.5c0-24.2,1-51.7,1-51.7c0.1-15.9-10.5-26.6-26.5-26.6l-370.1-10c-18.1,0-35.5,7.2-48.3,20L32.5,145.3
	c-5.1,3.4-9.7,7.4-13.7,12l-0.9,0.8l0,0.2C7.4,170.5,1,186.4,0.8,203.8c-0.3,25.2,12.8,47.5,32.6,60.5l-1.3,1.1
	c-5.1,3.4-9.7,7.4-13.7,12l-0.9,0.8l0,0.2C7,290.6,0.6,306.5,0.4,323.8c-0.3,23.8,11.5,45.1,29.5,58.3c-4.6,3.2-8.8,6.9-12.5,11.1
	l-0.9,0.8l0,0.2C6,406.6-0.4,422.4-0.6,439.8c-0.5,39.8,32.7,72.4,72.5,72.4h395.5c0.7,0,1.4,0,2.2,0l0,0l0,0c0.2,0,0.3,0,0.5,0
	v-0.4L616.9,378c1.7-1.6,2.6-3.8,2.4-6.1c-0.6-6.8-1.7-23.1-1.7-46.8c0-24.2,1-51.7,1-51.7c0-5.4,0-9-0.7-11.4l0.8-0.7
	C619.9,260.2,620.5,258.6,620.4,257z M437.3,480.2H70.8c-21.8,0-39.5-17.7-39.5-39.5c0-7.9,2.3-15.2,6.3-21.3l15.7-14
	c5.3-2.6,11.2-4.1,17.5-4.1h44.6v49.3c0,1.8,2.3,2.7,3.5,1.4l14.1-15.4l14.1,15.4c1.3,1.4,3.5,0.5,3.5-1.4v-49.3h292.1
	c-5.3,15.7-8.1,32.5-8.1,50C434.6,461.1,435.5,470.8,437.3,480.2z M435.6,335.3c0,9.9,0.9,19.6,2.7,29H71.8
	c-21.8,0-39.5-17.7-39.5-39.5c0-7.9,2.3-15.2,6.3-21.3l15.7-14c5.3-2.6,11.2-4.1,17.5-4.1h371.9C438.5,301,435.6,317.8,435.6,335.3z
	 M436,215.2c0,9.9,0.9,19.6,2.7,29H72.2c-21.8,0-39.5-17.7-39.5-39.5c0-7.9,2.3-15.2,6.3-21.3l15.7-14c5.3-2.6,11.2-4.1,17.5-4.1
	h43.2V216c0,1.8,2.3,2.7,3.5,1.4L133,202l14.1,15.4c1.3,1.4,3.5,0.5,3.5-1.4v-50.8h293.5C438.9,180.9,436,197.7,436,215.2z
	 M95.1,133.2l115.2-103l357.6,7.2l-106.4,95.9H95.1z M589.7,325.8c-0.1,9.3-0.5,29.6-0.9,44.8L470.2,480c-2.2-9.3-3.4-18.9-3.4-28.8
	c0-20.6,5-40,13.8-57l109.9-101.5C590.2,304.6,589.8,319,589.7,325.8z M590.7,209.8c-0.1,9.3-0.5,29.6-0.9,44.8L471.2,364.1
	c-2.2-9.3-3.4-18.9-3.4-28.8c0-20.6,5-40,13.8-57l109.9-101.5C591.2,188.6,590.8,203.1,590.7,209.8z M591.1,89.8
	c-0.1,9.3-0.5,29.6-0.9,44.8L471.6,244c-2.2-9.3-3.4-18.9-3.4-28.8c0-20.6,5-40,13.8-57L591.9,56.6C591.6,68.6,591.2,83,591.1,89.8z
	"/>
</svg>
