<?xml version="1.0" encoding="utf-8"?>
<!-- Generator: Adobe Illustrator 21.1.0, SVG Export Plug-In . SVG Version: 6.00 Build 0)  -->
<svg version="1.1" id="_x33_2" xmlns="http://www.w3.org/2000/svg" xmlns:xlink="http://www.w3.org/1999/xlink" x="0px" y="0px"
	 viewBox="0 0 587.3 512" style="enable-background:new 0 0 587.3 512;" xml:space="preserve">
<g id="_x33_2_1_">
	<path d="M539.9,2c-15.5-0.7-30.6-2.1-48.7-2.1c-20.1,0-43.9,1.7-76.3,7.9c-68.2,13-112.8,48.8-112.8,107.6v364.4v29.1v3.1
		c0,0,76.5-31.2,121.5-41.2c86.5-19.3,163.6-15.3,163.6-15.3V443v-19.7V49.4C587.3,49.4,540.6,2,539.9,2z M555.3,63.1v303.6
		c-3.5-1.9-7.9-3.4-13.3-3.7l-0.1,0l-0.1,0c-0.5,0-1,0-1.4-0.1v-315C545,52.6,550.1,57.8,555.3,63.1z M335.2,115.7
		c0-19.2,6.6-34.6,20.3-47c14.6-13.3,37.5-23.3,66.2-28.8c26-5,48.3-7.3,70-7.3c5.8,0,11.2,0.2,16.6,0.4v328.2
		c-5.3-0.2-10.7-0.3-16.6-0.3c-25.9,0-52,2.7-82.1,8.4c-29,5.5-54,14.8-74.4,27.2V115.7z M419.7,439.4c-53.8,10.8-98.4,31-112.7,38
		c13.3-40.2,53-65.6,108-76.1c32.4-6.2,56.2-7.9,76.3-7.9c18.1,0,33.1,1.4,48.7,2.1c0.4,0,15.4,15.2,28.5,28.3
		C537,425.1,472.1,428.9,419.7,439.4z"/>
	<path d="M172.3,7.8C139.9,1.6,116.1-0.1,96-0.1C77.9-0.1,62.9,1.3,47.4,2C46.7,2,0,49.4,0,49.4v373.8V443v12.5
		c0,0,77.1-3.9,163.6,15.3c45,10,121.5,41.2,121.5,41.2v-3.1v-29.1V115.4C285.1,56.6,240.5,20.8,172.3,7.8z M80,32.4
		c5.3-0.2,10.8-0.4,16.6-0.4h0c21.7,0,44,2.3,70,7.3c28.7,5.5,51.5,15.5,66.2,28.8c13.6,12.4,20.3,27.9,20.3,47.1v281.3
		c-20.4-12.4-45.3-21.7-74.4-27.2c-30.1-5.8-56.2-8.5-82.1-8.5c-5.8,0-11.3,0.1-16.6,0.3V32.4z M33,62.5c5.2-5.3,10.3-10.4,15-15.2
		V363c-0.5,0-1,0-1.4,0.1l-0.1,0l-0.1,0c-5.4,0.3-9.8,1.8-13.3,3.7V62.5z M167.5,439.4c-52.4-10.5-117.2-14.2-148.7-15.5
		c13-13.2,28.1-28.3,28.5-28.3c15.5-0.7,30.6-2.1,48.7-2.1c20.1,0,43.9,1.7,76.3,7.9c55,10.5,94.7,35.8,108,76.1
		C265.9,470.4,221.3,450.1,167.5,439.4z"/>
</g>
</svg>
