<?xml version="1.0" encoding="utf-8"?>
<!-- Generator: Adobe Illustrator 21.1.0, SVG Export Plug-In . SVG Version: 6.00 Build 0)  -->
<svg version="1.1" id="Layer_1" xmlns="http://www.w3.org/2000/svg" xmlns:xlink="http://www.w3.org/1999/xlink" x="0px" y="0px"
	 viewBox="0 0 188.2 512" style="enable-background:new 0 0 188.2 512;" xml:space="preserve">
<g>
	<path d="M187.9,0h-5.6h-12.7H20H7.3H1.7h0v18.3h0v82.5c0,0,0,0,0,0v4.3l0,0.1l0,0l0.2,0.1l50.5,32.5c-9.2,25-16.2,52.1-24.4,80.6
		h135.2c-7.3-28.4-18.6-55.5-27-80.5l51.6-32.6h0.2v-87h0.1V0H187.9z M71.3,186.4l23.9-70l25.3,70H71.3z M87.2,31.3
		c0-0.8,3.4-1.4,7.5-1.4c4.2,0,7.6,0.6,7.6,1.4c0,0.8-3.4,1.4-7.6,1.4C90.5,32.7,87.2,32,87.2,31.3z M169.7,95.3l-39.1,24.4
		c-9.4-26-18.6-47.8-27-63.7c1-1,0.8-1.4,0.8-2.4V30.4c0-1.5-4.8-2.2-9.6-2.2c-4.8,0-9.6,0.7-9.6,2.2v23.2c0,1,0.8,3,0.8,4
		C78.4,72.7,69,93.8,59.6,120.7L20,95.4V18.3h149.7V95.3z"/>
	<path d="M165.5,232h-140c-6.7,25.7-13.8,51.9-17.6,77.6C-0.8,361-2.9,411,8.7,448.8c5.8,18.4,15.9,34,30.4,45.6
		c12.6,9.7,30,14.9,50.4,16.8v0.8h12v-0.8c19.4-1,36.2-7.1,48.8-16.8c13.6-10.7,23-26.4,28.8-44.8c11.6-36.8,11-85.6,3.2-136
		C178.4,286.5,172.3,259.1,165.5,232z M148.6,440c-4.2,13.2-10.2,23.1-17.9,29.2c-7.9,6-18.5,9.5-30.8,10.1l-5.5,0.3l-1.8-0.2
		c-15.2-1.4-26.8-4.9-33.7-10.1c-9-7.3-15.6-17.4-19.6-29.9c-8.8-28.7-8.7-71.7,0.2-124.3l0.1-0.3l0-0.3C42,298.1,46,281,50.3,264
		h90c3.8,16.7,7.7,35.4,10.3,54.1l0,0.2l0,0.2C158.5,369,157.7,411,148.6,440z"/>
</g>
</svg>
