<?xml version="1.0" encoding="utf-8"?>
<!-- Generator: Adobe Illustrator 21.1.0, SVG Export Plug-In . SVG Version: 6.00 Build 0)  -->
<svg version="1.1" id="Layer_4" xmlns="http://www.w3.org/2000/svg" xmlns:xlink="http://www.w3.org/1999/xlink" x="0px" y="0px"
	 viewBox="0 0 512 512" style="enable-background:new 0 0 512 512;" xml:space="preserve">
<path id="_x33_2" d="M0,105V87c0-3.9,3.1-7,7-7h18c3.9,0,7,3.1,7,7v18c0,3.9-3.1,7-7,7H7C3.1,112,0,108.8,0,105z M512,480v32H0v-32
	H512z M512,406v18c0,3.9-3.1,7-7,7h-18c-3.9,0-7-3.1-7-7v-18c0-3.9,3.1-7,7-7h18C508.8,399,512,402.1,512,406z M272,406v18
	c0,3.9-3.1,7-7,7h-18c-3.9,0-7-3.1-7-7v-18c0-3.9,3.1-7,7-7h18C268.8,399,272,402.1,272,406z M32,406v18c0,3.9-3.1,7-7,7H7
	c-3.9,0-7-3.1-7-7v-18c0-3.9,3.1-7,7-7h18C28.8,399,32,402.1,32,406z M512,326v18c0,3.9-3.1,7-7,7h-18c-3.9,0-7-3.1-7-7v-18
	c0-3.9,3.1-7,7-7h18C508.8,319,512,322.1,512,326z M272,326v18c0,3.9-3.1,7-7,7h-18c-3.9,0-7-3.1-7-7v-18c0-3.9,3.1-7,7-7h18
	C268.8,319,272,322.1,272,326z M32,326v18c0,3.9-3.1,7-7,7H7c-3.9,0-7-3.1-7-7v-18c0-3.9,3.1-7,7-7h18C28.8,319,32,322.1,32,326z
	 M512,246v18c0,3.9-3.1,7-7,7h-18c-3.9,0-7-3.1-7-7v-18c0-3.9,3.1-7,7-7h18C508.8,239,512,242.1,512,246z M432,246v18
	c0,3.9-3.1,7-7,7h-18c-3.9,0-7-3.1-7-7v-18c0-3.9,3.1-7,7-7h18C428.8,239,432,242.1,432,246z M352,246v18c0,3.9-3.1,7-7,7h-18
	c-3.9,0-7-3.1-7-7v-18c0-3.9,3.1-7,7-7h18C348.8,239,352,242.1,352,246z M272,246v18c0,3.9-3.1,7-7,7h-18c-3.9,0-7-3.1-7-7v-18
	c0-3.9,3.1-7,7-7h18C268.8,239,272,242.1,272,246z M192,246v18c0,3.9-3.1,7-7,7h-18c-3.9,0-7-3.1-7-7v-18c0-3.9,3.1-7,7-7h18
	C188.8,239,192,242.1,192,246z M112,246v18c0,3.9-3.1,7-7,7H87c-3.9,0-7-3.1-7-7v-18c0-3.9,3.1-7,7-7h18
	C108.8,239,112,242.1,112,246z M32,246v18c0,3.9-3.1,7-7,7H7c-3.9,0-7-3.1-7-7v-18c0-3.9,3.1-7,7-7h18C28.8,239,32,242.1,32,246z
	 M512,166v18c0,3.9-3.1,7-7,7h-18c-3.9,0-7-3.1-7-7v-18c0-3.9,3.1-7,7-7h18C508.8,159,512,162.1,512,166z M272,166v18
	c0,3.9-3.1,7-7,7h-18c-3.9,0-7-3.1-7-7v-18c0-3.9,3.1-7,7-7h18C268.8,159,272,162.1,272,166z M32,166v18c0,3.9-3.1,7-7,7H7
	c-3.9,0-7-3.1-7-7v-18c0-3.9,3.1-7,7-7h18C28.8,159,32,162.1,32,166z M512,87v18c0,3.9-3.1,7-7,7h-18c-3.9,0-7-3.1-7-7V87
	c0-3.9,3.1-7,7-7h18C508.8,80,512,83.1,512,87z M272,86v18c0,3.9-3.1,7-7,7h-18c-3.9,0-7-3.1-7-7V86c0-3.9,3.1-7,7-7h18
	C268.8,79,272,82.1,272,86z M512,7v18c0,3.9-3.1,7-7,7h-18c-3.9,0-7-3.1-7-7V7c0-3.9,3.1-7,7-7h18C508.8,0,512,3.1,512,7z M432,7v18
	c0,3.9-3.1,7-7,7h-18c-3.9,0-7-3.1-7-7V7c0-3.9,3.1-7,7-7h18C428.8,0,432,3.1,432,7z M352,7v18c0,3.9-3.1,7-7,7h-18
	c-3.9,0-7-3.1-7-7V7c0-3.9,3.1-7,7-7h18C348.8,0,352,3.1,352,7z M272,7v18c0,3.9-3.1,7-7,7h-18c-3.9,0-7-3.1-7-7V7c0-3.9,3.1-7,7-7
	h18C268.8,0,272,3.1,272,7z M192,7v18c0,3.9-3.1,7-7,7h-18c-3.9,0-7-3.1-7-7V7c0-3.9,3.1-7,7-7h18C188.8,0,192,3.1,192,7z M112,7v18
	c0,3.9-3.1,7-7,7H87c-3.9,0-7-3.1-7-7V7c0-3.9,3.1-7,7-7h18C108.8,0,112,3.1,112,7z M32,7v18c0,3.9-3.1,7-7,7H7c-3.9,0-7-3.1-7-7V7
	c0-3.9,3.1-7,7-7h18C28.8,0,32,3.1,32,7z"/>
</svg>
