<?xml version="1.0" encoding="utf-8"?>
<!-- Generator: Adobe Illustrator 21.1.0, SVG Export Plug-In . SVG Version: 6.00 Build 0)  -->
<svg version="1.1" id="Layer_4" xmlns="http://www.w3.org/2000/svg" xmlns:xlink="http://www.w3.org/1999/xlink" x="0px" y="0px"
	 viewBox="0 0 512 512" style="enable-background:new 0 0 512 512;" xml:space="preserve">
<path d="M400,7c0-3.9,3.1-7,7-7h18c3.9,0,7,3.1,7,7v18c0,3.9-3.1,7-7,7h-18c-3.9,0-7-3.1-7-7V7z M320,7c0-3.9,3.1-7,7-7h18
	c3.9,0,7,3.1,7,7v18c0,3.9-3.1,7-7,7h-18c-3.9,0-7-3.1-7-7V7z M160,7c0-3.9,3.1-7,7-7h18c3.9,0,7,3.1,7,7v18c0,3.9-3.1,7-7,7h-18
	c-3.9,0-7-3.1-7-7V7z M80,7c0-3.9,3.1-7,7-7h18c3.9,0,7,3.1,7,7v18c0,3.9-3.1,7-7,7H87c-3.9,0-7-3.1-7-7V7z M0,7c0-3.9,3.1-7,7-7h18
	c3.9,0,7,3.1,7,7v18c0,3.9-3.1,7-7,7H7c-3.9,0-7-3.1-7-7V7z M0,88c0-3.9,3.1-7,7-7h18c3.9,0,7,3.1,7,7v18c0,3.9-3.1,7-7,7H7
	c-3.9,0-7-3.1-7-7V88z M0,168c0-3.9,3.1-7,7-7h18c3.9,0,7,3.1,7,7v18c0,3.9-3.1,7-7,7H7c-3.9,0-7-3.1-7-7V168z M32,505
	c0,3.9-3.1,7-7,7H7c-3.9,0-7-3.1-7-7v-18c0-3.9,3.1-7,7-7h18c3.9,0,7,3.1,7,7V505z M32,425c0,3.9-3.1,7-7,7H7c-3.9,0-7-3.1-7-7v-18
	c0-3.9,3.1-7,7-7h18c3.9,0,7,3.1,7,7V425z M32,346c0,3.9-3.1,7-7,7H7c-3.9,0-7-3.1-7-7v-18c0-3.9,3.1-7,7-7h18c3.9,0,7,3.1,7,7V346z
	 M112,505c0,3.9-3.1,7-7,7H87c-3.9,0-7-3.1-7-7v-18c0-3.9,3.1-7,7-7h18c3.9,0,7,3.1,7,7V505z M192,505c0,3.9-3.1,7-7,7h-18
	c-3.9,0-7-3.1-7-7v-18c0-3.9,3.1-7,7-7h18c3.9,0,7,3.1,7,7V505z M352,505c0,3.9-3.1,7-7,7h-18c-3.9,0-7-3.1-7-7v-18c0-3.9,3.1-7,7-7
	h18c3.9,0,7,3.1,7,7V505z M432,505c0,3.9-3.1,7-7,7h-18c-3.9,0-7-3.1-7-7v-18c0-3.9,3.1-7,7-7h18c3.9,0,7,3.1,7,7V505z M512,505
	c0,3.9-3.1,7-7,7h-18c-3.9,0-7-3.1-7-7v-18c0-3.9,3.1-7,7-7h18c3.9,0,7,3.1,7,7V505z M512,425c0,3.9-3.1,7-7,7h-18c-3.9,0-7-3.1-7-7
	v-18c0-3.9,3.1-7,7-7h18c3.8,0,7,3.2,7,7V425z M512,346c0,3.9-3.1,7-7,7h-18c-3.9,0-7-3.1-7-7v-18c0-3.9,3.1-7,7-7h18
	c3.9,0,7,3.1,7,7V346z M512,273H272v239h-32V273H0v-32h240V0h32v241h240V273z M512,186c0,3.9-3.1,7-7,7h-18c-3.9,0-7-3.1-7-7v-18
	c0-3.9,3.1-7,7-7h18c3.9,0,7,3.1,7,7V186z M512,106c0,3.9-3.1,7-7,7h-18c-3.9,0-7-3.1-7-7V88c0-3.9,3.1-7,7-7h18c3.9,0,7,3.1,7,7
	V106z M512,25c0,3.9-3.1,7-7,7h-18c-3.9,0-7-3.1-7-7V7c0-3.9,3.1-7,7-7h18c3.9,0,7,3.1,7,7V25z"/>
</svg>
