<?xml version="1.0" encoding="utf-8"?>
<!-- Generator: Adobe Illustrator 21.1.0, SVG Export Plug-In . SVG Version: 6.00 Build 0)  -->
<svg version="1.1" id="Layer_4" xmlns="http://www.w3.org/2000/svg" xmlns:xlink="http://www.w3.org/1999/xlink" x="0px" y="0px"
	 viewBox="0 0 512 512" style="enable-background:new 0 0 512 512;" xml:space="preserve">
<path id="_x33_2" d="M104.9,512h-18c-3.9,0-7-3.1-7-7v-18c0-3.9,3.1-7,7-7h18c3.9,0,7,3.1,7,7v18C111.9,508.9,108.8,512,104.9,512z
	 M479.9,0h32v512h-32V0z M405.9,0h18c3.9,0,7,3.1,7,7v18c0,3.9-3.1,7-7,7h-18c-3.9,0-7-3.1-7-7V7C398.9,3.1,402.1,0,405.9,0z
	 M405.9,240h18c3.9,0,7,3.1,7,7v18c0,3.9-3.1,7-7,7h-18c-3.9,0-7-3.1-7-7v-18C398.9,243.1,402.1,240,405.9,240z M405.9,480h18
	c3.9,0,7,3.1,7,7v18c0,3.9-3.1,7-7,7h-18c-3.9,0-7-3.1-7-7v-18C398.9,483.1,402.1,480,405.9,480z M325.9,0h18c3.9,0,7,3.1,7,7v18
	c0,3.9-3.1,7-7,7h-18c-3.9,0-7-3.1-7-7V7C318.9,3.1,322.1,0,325.9,0z M325.9,240h18c3.9,0,7,3.1,7,7v18c0,3.9-3.1,7-7,7h-18
	c-3.9,0-7-3.1-7-7v-18C318.9,243.1,322.1,240,325.9,240z M325.9,480h18c3.9,0,7,3.1,7,7v18c0,3.9-3.1,7-7,7h-18c-3.9,0-7-3.1-7-7
	v-18C318.9,483.1,322.1,480,325.9,480z M245.9,0h18c3.9,0,7,3.1,7,7v18c0,3.9-3.1,7-7,7h-18c-3.9,0-7-3.1-7-7V7
	C238.9,3.1,242.1,0,245.9,0z M245.9,80h18c3.9,0,7,3.1,7,7v18c0,3.9-3.1,7-7,7h-18c-3.9,0-7-3.1-7-7V87
	C238.9,83.1,242.1,80,245.9,80z M245.9,160h18c3.9,0,7,3.1,7,7v18c0,3.9-3.1,7-7,7h-18c-3.9,0-7-3.1-7-7v-18
	C238.9,163.1,242.1,160,245.9,160z M245.9,240h18c3.9,0,7,3.1,7,7v18c0,3.9-3.1,7-7,7h-18c-3.9,0-7-3.1-7-7v-18
	C238.9,243.1,242.1,240,245.9,240z M245.9,320h18c3.9,0,7,3.1,7,7v18c0,3.9-3.1,7-7,7h-18c-3.9,0-7-3.1-7-7v-18
	C238.9,323.1,242.1,320,245.9,320z M245.9,400h18c3.9,0,7,3.1,7,7v18c0,3.9-3.1,7-7,7h-18c-3.9,0-7-3.1-7-7v-18
	C238.9,403.1,242.1,400,245.9,400z M245.9,480h18c3.9,0,7,3.1,7,7v18c0,3.9-3.1,7-7,7h-18c-3.9,0-7-3.1-7-7v-18
	C238.9,483.1,242.1,480,245.9,480z M165.9,0h18c3.9,0,7,3.1,7,7v18c0,3.9-3.1,7-7,7h-18c-3.9,0-7-3.1-7-7V7
	C158.9,3.1,162.1,0,165.9,0z M165.9,240h18c3.9,0,7,3.1,7,7v18c0,3.9-3.1,7-7,7h-18c-3.9,0-7-3.1-7-7v-18
	C158.9,243.1,162.1,240,165.9,240z M165.9,480h18c3.9,0,7,3.1,7,7v18c0,3.9-3.1,7-7,7h-18c-3.9,0-7-3.1-7-7v-18
	C158.9,483.1,162.1,480,165.9,480z M86.9,0h18c3.9,0,7,3.1,7,7v18c0,3.9-3.1,7-7,7h-18c-3.9,0-7-3.1-7-7V7C79.9,3.1,83.1,0,86.9,0z
	 M85.9,240h18c3.9,0,7,3.1,7,7v18c0,3.9-3.1,7-7,7h-18c-3.9,0-7-3.1-7-7v-18C78.9,243.1,82.1,240,85.9,240z M6.9,0h18
	c3.9,0,7,3.1,7,7v18c0,3.9-3.1,7-7,7h-18c-3.9,0-7-3.1-7-7V7C-0.1,3.1,3.1,0,6.9,0z M6.9,80h18c3.9,0,7,3.1,7,7v18c0,3.9-3.1,7-7,7
	h-18c-3.9,0-7-3.1-7-7V87C-0.1,83.1,3.1,80,6.9,80z M6.9,160h18c3.9,0,7,3.1,7,7v18c0,3.9-3.1,7-7,7h-18c-3.9,0-7-3.1-7-7v-18
	C-0.1,163.1,3.1,160,6.9,160z M6.9,240h18c3.9,0,7,3.1,7,7v18c0,3.9-3.1,7-7,7h-18c-3.9,0-7-3.1-7-7v-18C-0.1,243.1,3.1,240,6.9,240
	z M6.9,320h18c3.9,0,7,3.1,7,7v18c0,3.9-3.1,7-7,7h-18c-3.9,0-7-3.1-7-7v-18C-0.1,323.1,3.1,320,6.9,320z M6.9,400h18
	c3.9,0,7,3.1,7,7v18c0,3.9-3.1,7-7,7h-18c-3.9,0-7-3.1-7-7v-18C-0.1,403.1,3.1,400,6.9,400z M6.9,480h18c3.9,0,7,3.1,7,7v18
	c0,3.9-3.1,7-7,7h-18c-3.9,0-7-3.1-7-7v-18C-0.1,483.1,3.1,480,6.9,480z"/>
</svg>
