<?xml version="1.0" encoding="utf-8"?>
<!-- Generator: Adobe Illustrator 21.1.0, SVG Export Plug-In . SVG Version: 6.00 Build 0)  -->
<svg version="1.1" id="Layer_4" xmlns="http://www.w3.org/2000/svg" xmlns:xlink="http://www.w3.org/1999/xlink" x="0px" y="0px"
	 viewBox="0 0 512 512" style="enable-background:new 0 0 512 512;" xml:space="preserve">
<g>
	<path d="M425,241h-18c-3.9,0-7,3.1-7,7v18c0,3.9,3.1,7,7,7h18c3.9,0,7-3.1,7-7v-18C432,244.2,428.9,241,425,241z M345,241h-18
		c-3.9,0-7,3.1-7,7v18c0,3.9,3.1,7,7,7h18c3.9,0,7-3.1,7-7v-18C352,244.2,348.9,241,345,241z M265,401h-18c-3.9,0-7,3.1-7,7v18
		c0,3.9,3.1,7,7,7h18c3.9,0,7-3.1,7-7v-18C272,404.2,268.9,401,265,401z M265,321h-18c-3.9,0-7,3.1-7,7v18c0,3.9,3.1,7,7,7h18
		c3.9,0,7-3.1,7-7v-18C272,324.2,268.9,321,265,321z M265,241h-18c-3.9,0-7,3.1-7,7v18c0,3.9,3.1,7,7,7h18c3.9,0,7-3.1,7-7v-18
		C272,244.2,268.9,241,265,241z M265,161h-18c-3.9,0-7,3.1-7,7v18c0,3.9,3.1,7,7,7h18c3.9,0,7-3.1,7-7v-18
		C272,164.2,268.9,161,265,161z M265,81h-18c-3.9,0-7,3.1-7,7v18c0,3.9,3.1,7,7,7h18c3.9,0,7-3.1,7-7V88C272,84.2,268.9,81,265,81z
		 M185,241h-18c-3.9,0-7,3.1-7,7v18c0,3.9,3.1,7,7,7h18c3.9,0,7-3.1,7-7v-18C192,244.2,188.9,241,185,241z M105,241H87
		c-3.9,0-7,3.1-7,7v18c0,3.9,3.1,7,7,7h18c3.9,0,7-3.1,7-7v-18C112,244.2,108.9,241,105,241z M425,241h-18c-3.9,0-7,3.1-7,7v18
		c0,3.9,3.1,7,7,7h18c3.9,0,7-3.1,7-7v-18C432,244.2,428.9,241,425,241z M345,241h-18c-3.9,0-7,3.1-7,7v18c0,3.9,3.1,7,7,7h18
		c3.9,0,7-3.1,7-7v-18C352,244.2,348.9,241,345,241z M265,81h-18c-3.9,0-7,3.1-7,7v18c0,3.9,3.1,7,7,7h18c3.9,0,7-3.1,7-7V88
		C272,84.2,268.9,81,265,81z M265,161h-18c-3.9,0-7,3.1-7,7v18c0,3.9,3.1,7,7,7h18c3.9,0,7-3.1,7-7v-18C272,164.2,268.9,161,265,161
		z M265,241h-18c-3.9,0-7,3.1-7,7v18c0,3.9,3.1,7,7,7h18c3.9,0,7-3.1,7-7v-18C272,244.2,268.9,241,265,241z M265,321h-18
		c-3.9,0-7,3.1-7,7v18c0,3.9,3.1,7,7,7h18c3.9,0,7-3.1,7-7v-18C272,324.2,268.9,321,265,321z M265,401h-18c-3.9,0-7,3.1-7,7v18
		c0,3.9,3.1,7,7,7h18c3.9,0,7-3.1,7-7v-18C272,404.2,268.9,401,265,401z M185,241h-18c-3.9,0-7,3.1-7,7v18c0,3.9,3.1,7,7,7h18
		c3.9,0,7-3.1,7-7v-18C192,244.2,188.9,241,185,241z M105,241H87c-3.9,0-7,3.1-7,7v18c0,3.9,3.1,7,7,7h18c3.9,0,7-3.1,7-7v-18
		C112,244.2,108.9,241,105,241z"/>
	<path d="M0,0v512h512V0H0z M480,480H32V32h448V480z"/>
</g>
</svg>
