<?xml version="1.0" encoding="utf-8"?>
<!-- Generator: Adobe Illustrator 21.1.0, SVG Export Plug-In . SVG Version: 6.00 Build 0)  -->
<svg version="1.1" id="Layer_4" xmlns="http://www.w3.org/2000/svg" xmlns:xlink="http://www.w3.org/1999/xlink" x="0px" y="0px"
	 viewBox="0 0 512 512" style="enable-background:new 0 0 512 512;" xml:space="preserve">
<path id="_x33_2" d="M407,0h18c3.9,0,7,3.1,7,7v18c0,3.9-3.1,7-7,7h-18c-3.9,0-7-3.1-7-7V7C400,3.1,403.1,0,407,0z M32,512H0V0h32
	V512z M106,512H88c-3.9,0-7-3.1-7-7v-18c0-3.9,3.1-7,7-7h18c3.9,0,7,3.1,7,7v18C113,508.9,109.9,512,106,512z M106,272H88
	c-3.9,0-7-3.1-7-7v-18c0-3.9,3.1-7,7-7h18c3.9,0,7,3.1,7,7v18C113,268.9,109.9,272,106,272z M106,32H88c-3.9,0-7-3.1-7-7V7
	c0-3.9,3.1-7,7-7h18c3.9,0,7,3.1,7,7v18C113,28.9,109.9,32,106,32z M186,512h-18c-3.9,0-7-3.1-7-7v-18c0-3.9,3.1-7,7-7h18
	c3.9,0,7,3.1,7,7v18C193,508.9,189.9,512,186,512z M186,272h-18c-3.9,0-7-3.1-7-7v-18c0-3.9,3.1-7,7-7h18c3.9,0,7,3.1,7,7v18
	C193,268.9,189.9,272,186,272z M186,32h-18c-3.9,0-7-3.1-7-7V7c0-3.9,3.1-7,7-7h18c3.9,0,7,3.1,7,7v18C193,28.9,189.9,32,186,32z
	 M266,512h-18c-3.9,0-7-3.1-7-7v-18c0-3.9,3.1-7,7-7h18c3.9,0,7,3.1,7,7v18C273,508.9,269.9,512,266,512z M266,432h-18
	c-3.9,0-7-3.1-7-7v-18c0-3.9,3.1-7,7-7h18c3.9,0,7,3.1,7,7v18C273,428.9,269.9,432,266,432z M266,352h-18c-3.9,0-7-3.1-7-7v-18
	c0-3.9,3.1-7,7-7h18c3.9,0,7,3.1,7,7v18C273,348.9,269.9,352,266,352z M266,272h-18c-3.9,0-7-3.1-7-7v-18c0-3.9,3.1-7,7-7h18
	c3.9,0,7,3.1,7,7v18C273,268.9,269.9,272,266,272z M266,192h-18c-3.9,0-7-3.1-7-7v-18c0-3.9,3.1-7,7-7h18c3.9,0,7,3.1,7,7v18
	C273,188.9,269.9,192,266,192z M266,112h-18c-3.9,0-7-3.1-7-7V87c0-3.9,3.1-7,7-7h18c3.9,0,7,3.1,7,7v18
	C273,108.9,269.9,112,266,112z M266,32h-18c-3.9,0-7-3.1-7-7V7c0-3.9,3.1-7,7-7h18c3.9,0,7,3.1,7,7v18C273,28.9,269.9,32,266,32z
	 M346,512h-18c-3.9,0-7-3.1-7-7v-18c0-3.9,3.1-7,7-7h18c3.9,0,7,3.1,7,7v18C353,508.9,349.9,512,346,512z M346,272h-18
	c-3.9,0-7-3.1-7-7v-18c0-3.9,3.1-7,7-7h18c3.9,0,7,3.1,7,7v18C353,268.9,349.9,272,346,272z M346,32h-18c-3.9,0-7-3.1-7-7V7
	c0-3.9,3.1-7,7-7h18c3.9,0,7,3.1,7,7v18C353,28.9,349.9,32,346,32z M425,512h-18c-3.9,0-7-3.1-7-7v-18c0-3.9,3.1-7,7-7h18
	c3.9,0,7,3.1,7,7v18C432,508.9,428.9,512,425,512z M426,272h-18c-3.9,0-7-3.1-7-7v-18c0-3.9,3.1-7,7-7h18c3.9,0,7,3.1,7,7v18
	C433,268.9,429.9,272,426,272z M505,512h-18c-3.9,0-7-3.1-7-7v-18c0-3.9,3.1-7,7-7h18c3.9,0,7,3.1,7,7v18
	C512,508.9,508.9,512,505,512z M505,432h-18c-3.9,0-7-3.1-7-7v-18c0-3.9,3.1-7,7-7h18c3.9,0,7,3.1,7,7v18
	C512,428.9,508.9,432,505,432z M505,352h-18c-3.9,0-7-3.1-7-7v-18c0-3.9,3.1-7,7-7h18c3.9,0,7,3.1,7,7v18
	C512,348.9,508.9,352,505,352z M505,272h-18c-3.9,0-7-3.1-7-7v-18c0-3.9,3.1-7,7-7h18c3.9,0,7,3.1,7,7v18
	C512,268.9,508.9,272,505,272z M505,192h-18c-3.9,0-7-3.1-7-7v-18c0-3.9,3.1-7,7-7h18c3.9,0,7,3.1,7,7v18
	C512,188.9,508.9,192,505,192z M505,112h-18c-3.9,0-7-3.1-7-7V87c0-3.9,3.1-7,7-7h18c3.9,0,7,3.1,7,7v18
	C512,108.9,508.9,112,505,112z M505,32h-18c-3.9,0-7-3.1-7-7V7c0-3.9,3.1-7,7-7h18c3.9,0,7,3.1,7,7v18C512,28.9,508.9,32,505,32z"/>
</svg>
