<?xml version="1.0" encoding="utf-8"?>
<!-- Generator: Adobe Illustrator 21.1.0, SVG Export Plug-In . SVG Version: 6.00 Build 0)  -->
<svg version="1.1" id="Layer_4" xmlns="http://www.w3.org/2000/svg" xmlns:xlink="http://www.w3.org/1999/xlink" x="0px" y="0px"
	 viewBox="0 0 512 512" style="enable-background:new 0 0 512 512;" xml:space="preserve">
<path id="_x33_2" d="M512,407v18c0,3.9-3.1,7-7,7h-18c-3.9,0-7-3.1-7-7v-18c0-3.9,3.1-7,7-7h18C508.8,400,512,403.2,512,407z M0,32
	V0h512v32H0z M0,106V88c0-3.9,3.1-7,7-7h18c3.9,0,7,3.1,7,7v18c0,3.9-3.1,7-7,7H7C3.1,113,0,109.9,0,106z M480,106V88
	c0-3.9,3.1-7,7-7h18c3.9,0,7,3.1,7,7v18c0,3.9-3.1,7-7,7h-18C483.1,113,480,109.9,480,106z M0,186v-18c0-3.9,3.1-7,7-7h18
	c3.9,0,7,3.1,7,7v18c0,3.9-3.1,7-7,7H7C3.1,193,0,189.9,0,186z M480,186v-18c0-3.9,3.1-7,7-7h18c3.9,0,7,3.1,7,7v18c0,3.9-3.1,7-7,7
	h-18C483.1,193,480,189.9,480,186z M0,266v-18c0-3.9,3.1-7,7-7h18c3.9,0,7,3.1,7,7v18c0,3.9-3.1,7-7,7H7C3.1,273,0,269.9,0,266z
	 M480,266v-18c0-3.9,3.1-7,7-7h18c3.9,0,7,3.1,7,7v18c0,3.9-3.1,7-7,7h-18C483.1,273,480,269.9,480,266z M0,346v-18c0-3.9,3.1-7,7-7
	h18c3.9,0,7,3.1,7,7v18c0,3.9-3.1,7-7,7H7C3.1,353,0,349.9,0,346z M480,346v-18c0-3.9,3.1-7,7-7h18c3.9,0,7,3.1,7,7v18
	c0,3.9-3.1,7-7,7h-18C483.1,353,480,349.9,480,346z M0,425v-18c0-3.9,3.1-7,7-7h18c3.9,0,7,3.1,7,7v18c0,3.9-3.1,7-7,7H7
	C3.1,432,0,428.9,0,425z M0,480h512v32H0V480z"/>
</svg>
