<?xml version="1.0" encoding="utf-8"?>
<!-- Generator: Adobe Illustrator 21.1.0, SVG Export Plug-In . SVG Version: 6.00 Build 0)  -->
<svg version="1.1" id="Layer_1" focusable="false" xmlns="http://www.w3.org/2000/svg" xmlns:xlink="http://www.w3.org/1999/xlink"
	 x="0px" y="0px" viewBox="0 0 512 512" style="enable-background:new 0 0 512 512;" xml:space="preserve">
<path d="M506.2,0.3c-1.5-0.4-3-0.4-4.4,0.1l-73.9,19.8h-0.2c-4.1,1.1-6.6,5.4-5.5,9.6c0.4,1.4,1.2,2.6,2.2,3.6l18.8,18.8
	c-9.8,9.8-29.4,29.4-54.3,54.3c-27.2-25.4-54.2-43.5-82.3-55.2C274,37.8,240.2,31.8,206,33.3C170.3,34.9,134.1,45,98.9,64.1
	C73.4,77.9,48.6,85.4,38.7,78.3c-3.4-2.4-5.5-7.9-5.1-11.8c0.9-9-5.4-17.1-14.3-18.4C10.2,46.9,0,53.3,0,66.9
	c0,16.9,5.2,26.4,11.1,32.6c4.8,5.1,11,8.6,18.3,10.6l62.7,306.9l310,63.2c2.7,12.9,13,31.7,42.6,31.7c15.6,0,21.5-10.2,20.3-19.2
	c-1.2-8.9-9.3-15.2-18.5-14.3c-1.1,0.1-8.5-0.4-11.8-5.1c-5.2-7.4-2-21.5,1.6-32c2.8-8.3,9-21.3,12.6-28.1
	c18.7-35.6,29.3-71.4,30.8-106.9c1.5-34.3-4.6-68.1-18.1-100.3c-11.9-28.5-30.3-55.8-56.2-83.1l54.4-54.2l18.7,18.7
	c3.1,3.1,8,3.1,11.2,0c1.1-1.1,1.8-2.5,2.1-3.9l19.8-73.7C512.9,5.7,510.4,1.4,506.2,0.3z M55.7,111.6c13.6-0.5,48.9-12.4,59.1-18.5
	C156.7,68,204.3,59.8,252.1,69c41.3,7.9,81.8,28.7,115.2,59.1c-23.6,23.6-86.3,86.3-146.6,146.6c0,0,0,0,0,0l-35,0.1l-0.1-0.2
	c-2.2,0-4.2,0.9-5.6,2.3l-66.7,66.6c-3.1,3.1-3.1,8,0,11.1c1.2,1.2,2.8,2,4.4,2.2l21.4-0.5c-10.5,10.5-19.8,19.8-27.7,27.7
	L55.7,111.6z M443.6,260.1c9.2,47.8,0.8,95.1-24.1,137c-2.6,4.3-17,39.7-17.9,57.5l-272.3-55.5l24.7-24.7l0.4,19.7
	c1,4.2,5.2,6.8,9.5,5.9c1.5-0.4,2.9-1.1,3.9-2.2l66.6-66.5c1.7-1.7,2.5-4,2.3-6.2l0.1-33.4l147.1-146.9
	C414.6,178,435.7,218.7,443.6,260.1z"/>
</svg>
