<?xml version="1.0" encoding="utf-8"?>
<!-- Generator: Adobe Illustrator 22.0.1, SVG Export Plug-In . SVG Version: 6.00 Build 0)  -->
<svg version="1.1" id="Layer_3" xmlns="http://www.w3.org/2000/svg" xmlns:xlink="http://www.w3.org/1999/xlink" x="0px" y="0px"
	 viewBox="0 0 562.2 512" style="enable-background:new 0 0 562.2 512;" xml:space="preserve">
<g>
	<path d="M282.1,32.2c18.1,0,33.5,20.7,33.5,45.1c0,12.1-3.6,23.5-10.2,32.2l-2.5,3.2l-1.6,3.7c-5.8,13.7-8.7,28.5-8.7,44.1
		c0,16.6,6,39.1,18.3,68.8c7.7,18.6,15.4,33.8,16.8,36.6c14.9,31.2,23.1,68.6,23.1,105.5c0,39.6-7,77.7-19.4,107.6h-98.4
		c-12.5-29.9-19.4-68.1-19.4-107.6c0-40,9.9-80.5,27.9-114.1l0.5-1l0.4-1c18.9-41.9,28.5-73.8,28.5-94.9c0-17.3-3.8-34.1-10.9-48.8
		l-1-2.1l-1.3-2c-2.1-3-8.9-14.2-8.9-30.3C248.7,52.8,264,32.2,282.1,32.2 M282.1,0.2c-36.2,0-65.5,34.5-65.5,77.1
		c0,27.3,12.5,45.5,14.5,48.4c3.7,7.7,7.7,19.4,7.7,34.8c0,22.1-17.3,63.2-25.7,81.7c-18.3,34.2-31.7,79.5-31.7,129.2
		c0,55,12,104.5,31.3,139.6h138.6c19.3-35.1,31.3-84.7,31.3-139.6c0-45.2-10.6-86.8-26.4-119.7c0,0-31.8-62-31.8-91.2
		c0-13.4,3-24,6.2-31.6c10.5-13.7,16.8-31.8,16.8-51.6C347.6,34.7,318.3,0.2,282.1,0.2L282.1,0.2z"/>
	<path d="M101.2,32.2c18.1,0,33.5,20.7,33.5,45.1c0,12.1-3.6,23.5-10.2,32.2l-2.5,3.2l-1.6,3.7c-5.8,13.7-8.7,28.5-8.7,44.1
		c0,16.6,6,39.1,18.4,68.8c7.7,18.5,15.3,33.7,16.7,36.5c0.8,1.6,1.5,3.4,2.3,5.2c-10.8,32.1-16.5,66.5-16.5,100.4
		c0,38.1,5.3,74.9,15.5,107.6H52c-12.5-29.9-19.4-68.1-19.4-107.6c0-40,9.9-80.5,27.9-114.1l0.5-1l0.4-1
		c18.9-41.9,28.5-73.8,28.5-94.9c0-17.3-3.8-34.1-10.9-48.8l-1-2.1l-1.3-1.9l0,0c-2.1-3.1-8.9-14.3-8.9-30.3
		C67.8,52.8,83.1,32.2,101.2,32.2 M101.2,0.2c-36.2,0-65.5,34.5-65.5,77.1c0,27.2,12.5,45.5,14.5,48.4c3.7,7.7,7.7,19.4,7.7,34.8
		c0,22.1-17.3,63.2-25.7,81.7C14,276.3,0.6,321.7,0.6,371.4c0,54.9,12,104.5,31.3,139.6h138.6c4.7-8.5,8.9-17.8,12.7-27.8
		c-11.8-31.5-18.7-70.1-18.7-111.8c0-36.2,7.1-70.1,18-99l0.7-1.7c-2.6-6.6-4.8-12.9-7.7-19c0,0-31.8-62-31.8-91.2
		c0-13.4,3-24,6.2-31.6c10.5-13.7,16.8-31.8,16.8-51.6C166.7,34.7,137.4,0.2,101.2,0.2L101.2,0.2z"/>
	<path d="M461.8,32.2c18.1,0,33.5,20.7,33.5,45.1c0,12.1-3.6,23.5-10.2,32.2l-2.5,3.2l-1.6,3.7c-5.8,13.7-8.7,28.5-8.7,44.1
		c0,16.5,5.9,39,18,68.6c7.7,18.8,15.3,34.2,16.6,36.6c15.2,31.8,23.6,69.3,23.6,105.6c0,39.6-7,77.7-19.4,107.6h-94.7
		c10.2-32.7,15.5-69.5,15.5-107.6c0-34.3-5.8-69.1-16.9-101.5c2-4.3,4-8.5,6.2-12.6l0.5-0.9l0.4-1c18.9-41.9,28.5-73.8,28.5-94.9
		c0-17.3-3.8-34.1-10.9-48.8l-1-2.1l-1.3-1.9l0,0c-2.1-3.1-8.9-14.3-8.9-30.3C428.3,52.8,443.7,32.2,461.8,32.2 M461.8,0.2
		c-36.1,0-65.5,34.5-65.5,77.1c0,27.2,12.5,45.5,14.5,48.4c3.7,7.7,7.7,19.4,7.7,34.8c0,22.1-17.3,63.2-25.7,81.7
		c-4.4,8.3-8.6,17.3-12.3,26.8c11.6,29.6,19.3,64.8,19.3,102.4c0,42.4-7.2,81.6-19.3,113.4c3.6,9.4,7.6,18.2,12,26.2h138.6
		c19.3-35.1,31.3-84.7,31.3-139.6c0-45.2-11.1-86.8-26.9-119.7c0,0-31.3-62-31.3-91.2c0-13.4,3-24,6.2-31.6
		c10.5-13.7,16.8-31.8,16.8-51.6C527.3,34.7,498,0.2,461.8,0.2L461.8,0.2z"/>
</g>
</svg>
