<?xml version="1.0" encoding="utf-8"?>
<!-- Generator: Adobe Illustrator 22.0.1, SVG Export Plug-In . SVG Version: 6.00 Build 0)  -->
<svg version="1.1" id="Layer_3" xmlns="http://www.w3.org/2000/svg" xmlns:xlink="http://www.w3.org/1999/xlink" x="0px" y="0px"
	 viewBox="0 0 420.9 512" style="enable-background:new 0 0 420.9 512;" xml:space="preserve">
<style type="text/css">
	.st0{fill:none;}
	.st1{fill:#010101;}
</style>
<g>
	<path class="st0" d="M272.6,450.9c1.3,1.3,1.3,3.5,0,4.8c-0.6,0.7-1.5,1-2.3,1c-0.8,0-1.7-0.3-2.3-1
		c-11.3-11.8-17.5-27.5-17.5-44.2s6.2-32.4,17.5-44.2c1.3-1.3,3.3-1.3,4.6,0s1.3,3.5,0,4.8c-10,10.5-15.6,24.5-15.6,39.4
		C257,426.4,262.5,440.4,272.6,450.9z M295.8,471.9c-0.8,0-1.6-0.1-2.4-0.4c-3.6-1.1-7.2-2.6-10.5-4.4c-1.6-0.9-2.2-2.9-1.4-4.6
		c0.8-1.7,2.8-2.3,4.4-1.5c3,1.6,6.2,2.9,9.4,3.9c0.2,0.1,0.4,0.1,0.6,0.1c1.8,0,3.2,1.5,3.2,3.4S297.6,471.9,295.8,471.9z"/>
	<path class="st1" d="M272.6,367.3c-1.3-1.3-3.3-1.3-4.6,0c-11.3,11.8-17.5,27.5-17.5,44.2s6.2,32.4,17.5,44.2c0.6,0.7,1.5,1,2.3,1
		c0.8,0,1.7-0.3,2.3-1c1.3-1.3,1.3-3.5,0-4.8c-10-10.5-15.6-24.5-15.6-39.4c0-14.9,5.5-28.9,15.6-39.4
		C273.8,370.8,273.8,368.6,272.6,367.3z"/>
	<path class="st1" d="M295.8,465.1c-0.2,0-0.4,0-0.6-0.1c-3.2-1-6.4-2.3-9.4-3.9c-1.6-0.9-3.5-0.2-4.4,1.5c-0.8,1.7-0.2,3.7,1.4,4.6
		c3.4,1.8,6.9,3.3,10.5,4.4c0.8,0.2,1.6,0.4,2.4,0.4c1.8,0,3.2-1.5,3.2-3.4C299,466.6,297.6,465.1,295.8,465.1z"/>
	<path class="st1" d="M317.2,306c-56.9,0-103,46.1-103,103c0,56.9,46.1,103,103,103s103-46.1,103-103
		C420.2,352.1,374.1,306,317.2,306z M317.2,489.6c-44.5,0-80.6-36.1-80.6-80.6c0-44.5,36.1-80.5,80.6-80.5
		c44.5,0,80.5,36.1,80.5,80.5C397.8,453.5,361.7,489.6,317.2,489.6z"/>
	<path class="st1" d="M330.1,372.2c4.7,0.8,8.6,3.3,11.2,6.9c2.6,3.6,3.8,8.1,3,12.8c-0.8,4.7-3.3,8.6-6.9,11.2
		c-3.6,2.6-8.1,3.8-12.8,3c-4.7-0.8-8.6-3.3-11.2-6.9c-2.6-3.6-3.8-8.1-3-12.8c0.8-4.7,3.3-8.6,6.9-11.2
		C320.9,372.6,325.4,371.4,330.1,372.2z M334.9,383.6c-1.4-1.9-3.5-3.3-6.1-3.7c-2.5-0.4-5,0.2-6.9,1.6c-1.9,1.4-3.3,3.5-3.7,6.1
		c-0.4,2.5,0.2,5,1.6,6.9c1.4,1.9,3.5,3.3,6.1,3.7c2.5,0.4,5-0.3,6.9-1.6c1.9-1.4,3.3-3.5,3.7-6.1C337,388,336.3,385.6,334.9,383.6z
		"/>
	<path class="st1" d="M369.1,357.4c4.7,0.8,8.6,3.3,11.2,6.9c2.6,3.6,3.8,8.1,3,12.8c-0.8,4.7-3.3,8.6-6.9,11.2
		c-3.6,2.6-8.1,3.8-12.8,3s-8.6-3.3-11.2-6.9c-2.6-3.6-3.8-8.1-3-12.8c0.8-4.7,3.3-8.6,6.9-11.2
		C359.9,357.9,364.5,356.7,369.1,357.4z M374,368.9c-1.4-1.9-3.5-3.3-6.1-3.7c-2.5-0.4-5,0.3-6.9,1.6c-1.9,1.4-3.3,3.5-3.7,6.1
		c-0.4,2.5,0.3,5,1.6,6.9c1.4,1.9,3.5,3.3,6.1,3.7c2.5,0.4,5-0.3,6.9-1.6c1.9-1.4,3.3-3.5,3.7-6.1C376,373.3,375.4,370.8,374,368.9z
		"/>
	<path class="st1" d="M362.8,398.4c4.7,0.8,8.6,3.3,11.2,6.9c2.6,3.6,3.8,8.1,3,12.8c-0.8,4.7-3.3,8.6-6.9,11.2
		c-3.6,2.6-8.1,3.8-12.8,3c-4.7-0.8-8.6-3.3-11.2-6.9c-2.6-3.6-3.8-8.1-3-12.8c0.8-4.7,3.3-8.6,6.9-11.2
		C353.6,398.9,358.1,397.7,362.8,398.4z M367.6,409.9c-1.4-1.9-3.5-3.3-6.1-3.7c-2.5-0.4-5,0.2-6.9,1.6c-1.9,1.4-3.3,3.5-3.7,6.1
		c-0.4,2.5,0.2,5,1.6,6.9c1.4,1.9,3.5,3.3,6.1,3.7c2.5,0.4,5-0.3,6.9-1.6c1.9-1.4,3.3-3.5,3.7-6.1
		C369.7,414.3,369,411.9,367.6,409.9z"/>
	<path d="M100.8,32.2c18.1,0,33.5,20.7,33.5,45.1c0,12.1-3.6,23.5-10.2,32.2l-2.5,3.2l-1.6,3.7c-5.8,13.7-8.7,28.5-8.7,44.1
		c0,16.6,6,39.1,18.3,68.8c7.7,18.6,15.4,33.8,16.8,36.6c14.9,31.2,23.1,68.6,23.1,105.5c0,39.6-7,77.7-19.4,107.6H51.6
		c-12.5-29.9-19.4-68.1-19.4-107.6c0-40,9.9-80.5,27.9-114.1l0.5-1l0.4-1c18.9-41.9,28.5-73.8,28.5-94.9c0-17.3-3.8-34.1-10.9-48.8
		l-1-2.1l-1.3-2c-2.1-3-8.9-14.2-8.9-30.3C67.4,52.8,82.7,32.2,100.8,32.2 M100.8,0.2c-36.2,0-65.5,34.5-65.5,77.1
		c0,27.3,12.5,45.5,14.5,48.4c3.7,7.7,7.7,19.4,7.7,34.8c0,22.1-17.3,63.2-25.7,81.7C13.6,276.3,0.2,321.7,0.2,371.4
		c0,55,12,104.5,31.3,139.6h138.6c19.3-35.1,31.3-84.7,31.3-139.6c0-45.2-10.6-86.8-26.4-119.7c0,0-31.8-62-31.8-91.2
		c0-13.4,3-24,6.2-31.6c10.5-13.7,16.8-31.8,16.8-51.6C166.3,34.7,137,0.2,100.8,0.2L100.8,0.2z"/>
</g>
</svg>
