<?xml version="1.0" encoding="utf-8"?>
<!-- Generator: Adobe Illustrator 21.1.0, SVG Export Plug-In . SVG Version: 6.00 Build 0)  -->
<svg version="1.1" id="Layer_3" xmlns="http://www.w3.org/2000/svg" xmlns:xlink="http://www.w3.org/1999/xlink" x="0px" y="0px"
	 viewBox="0 0 512 512" style="enable-background:new 0 0 512 512;" xml:space="preserve">
<g id="_x33_2_1_">
	<path d="M414.1,1h-0.6L297.6,0L319,126v66h-18v0.4l-12.7-7.4l-10,7.4c0,0-11.7,3-16,2.6l-0.1,1h-0.1l-13.4,2.4
		c0,0-14.2-12.4-20.1-12.4c-0.3,0-0.5,0-0.8,0.1c-2.2,0.5-6.5,6-6.5,6H191v-66L212.2,0L96.3,1h-0.6L0,126v386h512V126L414.1,1z
		 M399,22h-0.4l70.9,104H352.8l-26-105L399,22z M111.3,22l71.7-1l-23.8,105H42.5L111.3,22z M478,480H32V158h127l1,34.4V224h70
		l11,10.2l17-5.2c2-0.6,4.8-1.3,6.3-1.7c4.5-0.2,17.7-2.3,17.7-2.3h71v-66h127L478,480z M282.8,1h-56.6L209,118.3V176h12
		c0,0,4.3-5.8,6.5-6.4c5.3-1.3,20.9,12.3,20.9,12.3s10-3.1,13.5-3c4.1,0.1,16.1-3,16.1-3l10-7.4l12,7.5v-55.8L282.8,1z"/>
</g>
<g>
	<path d="M338.5,288L338.5,288c-11.4-11.3-26.5-17.5-42.5-17.5c-14.9,0-29,5.4-40.1,15.3c-11-9.9-25.1-15.3-40.1-15.3
		c-16,0-31,6.2-42.4,17.6c-11.3,11.3-17.5,26.4-17.5,42.4c0,16,6.2,31.1,17.6,42.4l82.5,82.5l81.4-81.4l9.7-12.1l0.7-1
		C361.6,337.3,357.8,307.3,338.5,288z M305,370.3c-19,19.7-41.1,41.3-48.8,48.8c-7-7-26.3-26.1-44.7-44.7c-3.5-3.6-6.9-6.7-9.8-9.5
		c-12.9-12.2-20-19-20-33.8c0-16.9,12.2-34.8,34.8-34.8c12.5,0,17.6,4.5,22.5,8.9c4.4,3.9,9,8,17.4,8c8.3,0,12.5-3.9,16.5-7.7
		c4.8-4.5,9.8-9.2,24.4-9.2c16,0,33.2,14,33.2,34.9c0,13.5-4.7,18.2-17.3,30.8C310.7,364.4,307.9,367.2,305,370.3L305,370.3z"/>
</g>
</svg>
