<?xml version="1.0" encoding="utf-8"?>
<!-- Generator: Adobe Illustrator 21.1.0, SVG Export Plug-In . SVG Version: 6.00 Build 0)  -->
<svg version="1.1" id="Layer_3" xmlns="http://www.w3.org/2000/svg" xmlns:xlink="http://www.w3.org/1999/xlink" x="0px" y="0px"
	 viewBox="0 0 512 512" style="enable-background:new 0 0 512 512;" xml:space="preserve">
<g id="_x33_2_2_">
	<path d="M257.8,272.6l-82,81.9l24.3,24.2l41.9-41.5V448h32V337.3l41.5,41.4l24.3-24.2L257.8,272.6z"/>
	<path d="M414.1,1h-0.6L297.6,0L319,126v66h-18v0.4l-12.7-7.4l-10,7.4c0,0-11.7,3-16,2.6l-0.1,1h-0.1l-13.4,2.4
		c0,0-14.2-12.4-20.1-12.4c-0.3,0-0.5,0-0.8,0.1c-2.2,0.5-6.5,6-6.5,6H191v-66L212.2,0L96.3,1h-0.6L0,126v386h512V126L414.1,1z
		 M399,22h-0.4l70.9,104H352.8l-26-105L399,22z M111.3,22l71.7-1L159.2,126H42.5L111.3,22z M478,480H32V158h127l1,34.4V224h70
		l11,10.2l17-5.2c2-0.6,4.8-1.3,6.3-1.7c4.5-0.2,17.7-2.3,17.7-2.3h71v-66h127L478,480z M282.8,1h-56.6L209,118.3V176h12
		c0,0,4.3-5.8,6.5-6.4c5.3-1.3,20.9,12.3,20.9,12.3s10-3.1,13.5-3c4.1,0.1,16.1-3,16.1-3l10-7.4l12,7.5v-55.8L282.8,1z"/>
</g>
</svg>
