<?xml version="1.0" encoding="utf-8"?>
<!-- Generator: Adobe Illustrator 21.1.0, SVG Export Plug-In . SVG Version: 6.00 Build 0)  -->
<svg version="1.1" id="Layer_3" xmlns="http://www.w3.org/2000/svg" xmlns:xlink="http://www.w3.org/1999/xlink" x="0px" y="0px"
	 viewBox="0 0 512 512" style="enable-background:new 0 0 512 512;" xml:space="preserve">
<g id="_x33_2_1_">
	<path d="M414.1,1h-0.6L297.6,0L319,126v66h-18v0.4l-12.7-7.4l-10,7.4c0,0-11.7,3-16,2.6l-0.1,1h-0.1l-13.4,2.4
		c0,0-14.2-12.4-20.1-12.4c-0.3,0-0.5,0-0.8,0.1c-2.2,0.5-6.5,6-6.5,6H191v-66L212.2,0L96.3,1h-0.6L0,126v386h512V126L414.1,1z
		 M399,22h-0.4l70.9,104H352.8l-26-105L399,22z M111.3,22l71.7-1L159.2,126H42.5L111.3,22z M478,480H32V158h127l1,34.4V224h70
		l11,10.2l17-5.2c2-0.6,4.8-1.3,6.3-1.7c4.5-0.2,17.7-2.3,17.7-2.3h71v-66h127L478,480z M282.8,1h-56.6L209,118.3V176h12
		c0,0,4.3-5.8,6.5-6.4c5.3-1.3,20.9,12.3,20.9,12.3s10-3.1,13.5-3c4.1,0.1,16.1-3,16.1-3l10-7.4l12,7.5v-55.8L282.8,1z"/>
	<path d="M358.8,362.7c-3.1-21.9-14.6-41.9-32.3-56.3c-16.6-13.6-38.2-21.7-60.9-23.1c-0.4-0.7-0.9-1.4-1.5-2
		c-1.8-1.9-4.2-2.9-6.9-2.9c-2.5,0-4.8,1-6.7,2.8c-0.7,0.7-1.2,1.4-1.7,2.2c-22.5,1.8-43.6,10.2-59.9,23.9
		c-17.3,14.5-28.4,34.5-31.4,56.2l-1.8,13.3l9.7-9.3c5.8-5.6,13.5-8.7,21.7-8.7c7.3,0,14.4,2.6,20,7.2l3.2,2.6l3-2.8
		c5.4-5,12.4-7.7,19.7-7.7c5.4,0,10.6,1.5,14.9,4.3v64.8c0.2,1.4-0.3,2.6-1.4,3.8c-1.5,1.4-2.7,1.6-3.6,1.6c-1.4,0-2.5-0.5-3.6-1.6
		c-1.6-1.6-1.7-2.9-1.7-3.9c0-5.3-4.3-9.6-9.6-10.1h-0.4c-5.3,0.5-9.6,4.8-9.6,10.2c0,6.7,2.5,12.6,7.5,17.4
		c4.9,4.9,10.7,7.4,17.4,7.4c6.5,0,12.3-2.5,17.3-7.4c4.9-4.9,7.4-10.8,6.8-17.5V363c5.4-3.2,11-4.9,16.8-4.9
		c7.2,0,14.2,2.7,19.6,7.6l3,2.8l3.1-2.7c5.6-4.7,12.8-7.4,20.1-7.4c7.9,0,15.5,3,21.3,8.4l9.7,9L358.8,362.7z M306.9,337.2
		c-7.2-3.3-15.1-5.1-23.1-5.1c-8.8,0-17.5,2.1-25.4,6.2c-7.8-4-16.6-6.2-25.4-6.2c-8.1,0-16.1,1.8-23.5,5.2
		c-3.5-1.5-7.1-2.6-10.9-3.4c2.6-2.9,5.4-5.6,8.5-8c13.7-10.9,31.9-16.9,51-16.9c9.7,0,19.1,1.5,28,4.5c8.5,2.9,16.1,7,22.8,12.2
		c3.1,2.5,6,5.1,8.5,8C313.9,334.5,310.3,335.7,306.9,337.2z"/>
</g>
</svg>
