<?xml version="1.0" encoding="utf-8"?>
<!-- Generator: Adobe Illustrator 21.1.0, SVG Export Plug-In . SVG Version: 6.00 Build 0)  -->
<svg version="1.1" id="Layer_3" xmlns="http://www.w3.org/2000/svg" xmlns:xlink="http://www.w3.org/1999/xlink" x="0px" y="0px"
	 viewBox="0 0 512 512" style="enable-background:new 0 0 512 512;" xml:space="preserve">
<g id="_x33_2_3_">
	<path d="M414.1,1h-0.6L297.6,0L319,126v66h-18v0.4l-12.7-7.4l-10,7.4c0,0-11.7,3-16,2.6l-0.1,1h-0.1l-13.4,2.4
		c0,0-14.2-12.4-20.1-12.4c-0.3,0-0.5,0-0.8,0.1c-2.2,0.5-6.5,6-6.5,6H191v-66L212.2,0L96.3,1h-0.6L0,126v386h512V126L414.1,1z
		 M399,22h-0.4l70.9,104H352.8l-26-105L399,22z M111.3,22l71.7-1L159.2,126H42.5L111.3,22z M478,480H32V158h127l1,34.4V224h70
		l11,10.2l17-5.2c2-0.6,4.8-1.3,6.3-1.7c4.5-0.2,17.7-2.3,17.7-2.3h71v-66h127L478,480z M282.8,1h-56.6L209,118.3V176h12
		c0,0,4.3-5.8,6.5-6.4c5.3-1.3,20.9,12.3,20.9,12.3s10-3.1,13.5-3c4.1,0.1,16.1-3,16.1-3l10-7.4l12,7.5v-55.8L282.8,1z"/>
	<path d="M217.8,345.2L217.8,345.2c0.1,0.1,0.1,0.2,0.2,0.4l1.4,2.4l18.1-17l21.1-3.4l15.7-18.5l21.1-3.4l8.6-6.7l-0.2-1.5
		c-0.3-2.2-0.7-4.3-1.1-6.2c0-0.1,0-0.2,0-0.3c0-0.1,0-0.2-0.1-0.3c-1.4-6.4-3.2-12.1-5.5-16.8c-5.4-11.3-26.9-12.5-35.9-12.5
		c-1.3,0-2.3,0-2.9,0c-2.3-0.1-10-0.2-18.1,1.1c-10.9,1.9-17.8,5.6-20.5,11.3c-1.4,2.8-2.6,5.9-3.6,9.2c-4.5,14.4-4.7,30-4.7,33
		c0,10.6,2,20.1,6,28.1L217.8,345.2z M281.5,277.1c-2.3,0.8-5.9,1.6-10.5,2.2c-3.6,0.4-7.9,0.7-12.8,0.7c-11.3,0-19.3-1.5-23.4-3
		c3.7-1.3,11.2-2.7,23.4-2.7c3.8,0,7.2,0.1,10.1,0.4C274.6,275.2,279,276.2,281.5,277.1z M229.2,292.5c4,0.9,16.7,3.6,29.1,3.6
		c12.5,0,25.1-2.7,29.1-3.6c0.2,1,0.5,2.5,0.8,4.4l-23.1,2.3l-13.4,16.9l-24.6,5.8c-0.3-2.1-0.2-2.2-0.3-4.3c0-1.2-0.1-2.5-0.1-3.7
		C226.8,304.3,228.5,295.7,229.2,292.5z"/>
	<path d="M305,334.8L305,334.8c0-0.2,0-0.2,0-0.3c0-0.2,0-0.4,0-0.6l0,0c0-1-0.1-1.9-0.1-2.8c-0.3-4.2-0.7-8.3-1.3-12.1l-0.9-6.3
		l-10.5,8.1l-21.9,3.4l-15.4,18.5l-20.4,3.3l-18.3,17c0.6,1.2,2.5,4.7,3.3,6l0.1,0.1c0,0.1,0.1,0.1,0.1,0.2c0.3,0.4,0.5,0.8,0.7,1.2
		c0.3,0.5,0.5,0.8,0.8,1.2c0.2,0.3,0.5,0.7,0.8,1.1c6.7,9.3,15.4,14.9,22.5,19.4l0.5,0.3c0.6,0.4,1.1,0.7,1.7,1.1
		c0.3,0.2,0.6,0.5,0.9,0.8c2.4,2.7,2.8,8.8,2.4,12v0.3l0.3,14.2c-15.2,1.3-30.9,6.3-30.9,16.8c0,8.2,10.4,14.3,27.8,16.4
		c3.7,0.4,7.6,0.7,11.5,0.7s7.7-0.2,11.4-0.7c17.5-2.1,27.9-8.2,27.9-16.4c0-10.6-16.7-15.6-31.5-16.8l0.3-14.2v-0.3
		c-0.3-2.7-0.1-9,2.4-11.9c0.3-0.3,0.6-0.6,1-0.9s0.8-0.5,1.2-0.8c0.3-0.2,0.6-0.4,0.9-0.6c9.8-6.3,23.2-15,29.5-32.9
		c0-0.1,0.1-0.2,0.1-0.2c0-0.1,0.1-0.3,0.1-0.4c2.2-6.4,3.3-13.6,3.3-21.4C305,337.1,305,336.2,305,334.8z M289.8,337.3
		c-0.1,7.6-1.3,14.1-3.4,19.3c-0.2,0.5-0.4,1-0.7,1.5c-7.1,15.3-24.2,24.1-27.5,25.7c-2.9-1.5-17-9-25-21.5l7.3-6.7l19.2-2.4
		l17.1-20l12.8-1.4c0.1,1.3,0.1,2.5,0.1,3.7C289.8,336.1,289.8,336.7,289.8,337.3z"/>
</g>
</svg>
