<?xml version="1.0" encoding="utf-8"?>
<!-- Generator: Adobe Illustrator 21.1.0, SVG Export Plug-In . SVG Version: 6.00 Build 0)  -->
<svg version="1.1" id="Layer_3" xmlns="http://www.w3.org/2000/svg" xmlns:xlink="http://www.w3.org/1999/xlink" x="0px" y="0px"
	 viewBox="0 0 512 512" style="enable-background:new 0 0 512 512;" xml:space="preserve">
<g id="_x33_2_1_">
	<path d="M321.5,378.9c-2.3-6.3-6.5-12.4-12.6-18.3c-6.1-5.9-14.1-11.1-24.3-15.7l-18-8.1v-44.1c10.2,1.1,16.1,8.6,17.6,22.5h32.7
		c0-13.9-4.5-25.2-13.6-33.9c-9.1-8.6-21.3-13.6-36.6-14.8v-8H248v8c-14.3,1.1-25.8,6.1-34.5,14.7c-8.7,8.6-13.1,19-13.1,31.2
		c0,10,3.2,19.3,9.8,27.7c6.5,8.4,19.1,17,37.8,25.6v56.1c-5.7-1.5-10.2-4.5-13.4-9.1c-3.1-4.7-4.7-10-4.7-16.2c0-0.4,0-1.1,0.1-2.1
		h-32.7c1.3,18.7,6.6,32,16,39.9c9.3,7.9,20.9,12.7,34.7,14.6v10.2h18.7V449c17.8-0.4,32-5.5,42.5-15.1
		c10.6-9.6,15.8-21.5,15.8-35.7C325,391.7,323.8,385.3,321.5,378.9z M248,328.4c-10-5.9-14.9-12.5-14.9-19.8c0-8.6,5-13.8,14.9-15.6
		V328.4z M285.4,416.7c-4.9,4.3-11.1,6.5-18.7,6.3v-49.2c17.4,6.7,26,15.8,26,27.4C292.7,407.3,290.3,412.4,285.4,416.7z"/>
	<path d="M414.1,1h-0.6L297.6,0L319,126v66h-18v0.4l-12.7-7.4l-10,7.4c0,0-11.7,3-16,2.6l-0.1,1h-0.1l-13.4,2.4
		c0,0-14.2-12.4-20.1-12.4c-0.3,0-0.5,0-0.8,0.1c-2.2,0.5-6.5,6-6.5,6H191v-66L212.2,0L96.3,1h-0.6L0,126.1v386h512V126L414.1,1z
		 M399,22h-0.4l70.9,104H352.8l-26-105L399,22z M111.3,22l71.7-1l-23.8,105.1H42.5L111.3,22z M478,480H32V158h127l1,34.4V224h70
		l11,10.2l17-5.2c2-0.6,4.8-1.3,6.3-1.7c4.5-0.2,17.7-2.3,17.7-2.3h71v-66h127L478,480z M282.8,1h-56.6L209,118.3V176h12
		c0,0,4.3-5.8,6.5-6.4c5.3-1.3,20.9,12.3,20.9,12.3s10-3.1,13.5-3c4.1,0.1,16.1-3,16.1-3l10-7.4l12,7.5v-55.8L282.8,1z"/>
</g>
</svg>
