<?xml version="1.0" encoding="utf-8"?>
<!-- Generator: Adobe Illustrator 21.1.0, SVG Export Plug-In . SVG Version: 6.00 Build 0)  -->
<svg version="1.1" id="Layer_3" xmlns="http://www.w3.org/2000/svg" xmlns:xlink="http://www.w3.org/1999/xlink" x="0px" y="0px"
	 viewBox="0 0 512 512" style="enable-background:new 0 0 512 512;" xml:space="preserve">
<g id="_x33_2_1_">
	<path d="M414.1,1h-0.6L297.6,0L319,126v66l-128,0.1v-66L212.2,0L96.3,1h-0.6L0,126v386h512V126L414.1,1z M399,22h-0.4l70.9,104
		H352.8l-26-105L399,22z M111.3,22l71.7-1l-23.8,105H42.5L111.3,22z M478,480H32V158h127l1,34.4V224l193,1v-66h127L478,480z
		 M282.8,1h-56.6L209,118.3V176l91,0v-55.8L282.8,1z"/>
</g>
</svg>
