<?xml version="1.0" encoding="utf-8"?>
<!-- Generator: Adobe Illustrator 21.1.0, SVG Export Plug-In . SVG Version: 6.00 Build 0)  -->
<svg version="1.1" id="Layer_3" xmlns="http://www.w3.org/2000/svg" xmlns:xlink="http://www.w3.org/1999/xlink" x="0px" y="0px"
	 viewBox="0 0 512 512" style="enable-background:new 0 0 512 512;" xml:space="preserve">
<g id="_x33_2">
	<path d="M337.9,0.5h-0.3l-57-0.5l10.5,61.4v32.2l-63,0V61.5L238.6,0l-57,0.5h-0.3l-47.1,60.9v188.1h251.9V61.4L337.9,0.5z
		 M330.5,10.7h-0.2l34.9,50.7h-57.4l-12.8-51.2L330.5,10.7z M188.9,10.7l35.3-0.5l-11.7,51.2h-57.4L188.9,10.7z M369.3,233.9H149.9
		V77h62.5l0.5,16.8v15.4l95,0.5V77.5h62.5L369.3,233.9z M273.3,0.5h-27.8L237,57.7v28.1l44.8,0V58.6L273.3,0.5z"/>
	<path d="M463.8,263h-0.3l-57-0.5l10.5,61.4v32.2l-63,0v-32.2l10.4-61.5l-57,0.5h-0.3l-47.1,60.9V512H512V323.9L463.8,263z
		 M456.4,273.2h-0.2l34.9,50.7h-57.4l-12.8-51.2L456.4,273.2z M314.9,273.2l35.3-0.5l-11.7,51.2H281L314.9,273.2z M495.3,496.4
		H275.8V339.5h62.5l0.5,16.8v15.4l95,0.5V340h62.5L495.3,496.4z M399.2,263h-27.8l-8.5,57.2v28.1l44.8,0v-27.2L399.2,263z"/>
	<path d="M203.7,263h-0.3l-57-0.5l10.5,61.4v32.2l-63,0V324l10.4-61.5l-57,0.5h-0.3L0,323.9V512h251.9V323.9L203.7,263z
		 M196.3,273.2h-0.2l34.9,50.7h-57.4l-12.8-51.2L196.3,273.2z M54.8,273.2l35.3-0.5l-11.7,51.2H20.9L54.8,273.2z M235.2,496.4H15.7
		V339.5h62.5l0.5,16.8v15.4l95,0.5V340h62.5L235.2,496.4z M139.1,263h-27.8l-8.5,57.2v28.1h44.8v-27.2L139.1,263z"/>
</g>
</svg>
