<?xml version="1.0" encoding="utf-8"?>
<!-- Generator: Adobe Illustrator 22.0.1, SVG Export Plug-In . SVG Version: 6.00 Build 0)  -->
<svg version="1.1" id="Layer_2" xmlns="http://www.w3.org/2000/svg" xmlns:xlink="http://www.w3.org/1999/xlink" x="0px" y="0px"
	 viewBox="0 0 400.9 512" style="enable-background:new 0 0 400.9 512;" xml:space="preserve">
<style type="text/css">
	.st0{fill:#010101;}
</style>
<g>
	<path class="st0" d="M263,310.3l-16.8-6.6l16.9-6.3c3.7-1.4,5.6-5.5,4.2-9.2c-1.4-3.7-5.5-5.6-9.2-4.2l-32,11.8l-31.8-12.4
		c-3.7-1.4-7.9,0.4-9.3,4.1c-1.4,3.7,0.4,7.9,4.1,9.3l16.8,6.6l-16.9,6.2c-3.7,1.4-5.6,5.5-4.2,9.2c1.1,3,4,4.8,7.1,4.7
		c0.7,0,1.4-0.2,2.1-0.4l32-11.8l31.8,12.4c1,0.4,2,0.5,3,0.5c2.7-0.1,5.3-1.8,6.3-4.5C268.5,315.9,266.7,311.8,263,310.3z"/>
	<path class="st0" d="M266.4,390c-1.4-3.7-5.5-5.6-9.2-4.2l-32,11.9l-31.8-12.4c-3.7-1.4-7.9,0.4-9.3,4.1c-1.4,3.7,0.4,7.9,4.1,9.3
		l16.8,6.6l-16.9,6.3c-3.7,1.4-5.6,5.5-4.2,9.2c1.1,3,4,4.8,7.1,4.7c0.7,0,1.4-0.2,2.1-0.4l32-11.8l31.8,12.4c1,0.4,2,0.5,3,0.5
		c2.7-0.1,5.3-1.8,6.3-4.5c1.4-3.7-0.4-7.9-4.1-9.3l-16.8-6.6l16.9-6.3C265.9,397.8,267.8,393.7,266.4,390z"/>
	<path d="M354.4,346.4c55.5-108.7,47.5-182.7,35.3-243.9v0c-7.3-36.7-25.4-62.4-55.3-78.5C304.8,8,263.4,0.5,204,0.5
		c-62.6,0-104.6,13.2-128.3,40.4C57.2,62.2,53.2,88.3,54,112.5c-24.5-0.7-37.3,10.3-43.9,21.1c-12.5,20.3-9.4,52.4,8.9,92.7
		c15.7,34.6,41.2,71.6,76.2,113.7c-2.2,1.2-4.2,2.7-6,4.5c-5.2,5.2-7.1,12.1-7.1,19.2l-1.8,119.8l0,0.3l0.2,2.2l0.1,0.5
		c1.3,7.9,14.4,26,28.2,25.5l229.9,0.4c7.4,0,14.3-2.9,19.5-8.1c5.2-5.2,8.1-12.1,8.1-19.5l0-115.8
		C366.3,359.6,361.6,351.4,354.4,346.4z M89.2,280.7c-21.9-30.7-34.5-54.5-41.7-71c-14.1-32.4-14.2-51.8-9.7-59.1l0,0
		c3.5-5.6,12.1-6.2,20.4-5.2L89.2,280.7z M136.2,339.7L136.2,339.7L88.4,131.6c-3.2-23.9-4.3-50.7,11.9-69.3
		c17-19.4,51.9-29.3,103.8-29.3c55,0,93.5,7,117.7,21.3c19.7,11.7,30.8,28.5,36.1,54.5c12,60.1,18.9,127.6-37.4,232.4L136.2,339.7z
		 M114.6,479.3l1.4-104.8l217.5,1.3l0.7,104.7L114.6,479.3z"/>
</g>
</svg>
