<?xml version="1.0" encoding="utf-8"?>
<!-- Generator: Adobe Illustrator 21.1.0, SVG Export Plug-In . SVG Version: 6.00 Build 0)  -->
<svg version="1.1" id="Layer_1" xmlns="http://www.w3.org/2000/svg" xmlns:xlink="http://www.w3.org/1999/xlink" x="0px" y="0px"
	 viewBox="0 0 448.9 512" style="enable-background:new 0 0 448.9 512;" xml:space="preserve">
<path id="_x33_2_1_" d="M125.6,57.9c0,4-3.2,7.2-7.2,7.2H31.8V449h86.6c4,0,7.2,3.2,7.2,7.2v17.6c0,4-3.2,7.2-7.2,7.2H7.2
	c-4,0-7.2-3.2-7.2-7.2V40.2c0-4,3.2-7.2,7.2-7.2h111.2c4,0,7.2,3.2,7.2,7.2C125.6,40.2,125.6,57.9,125.6,57.9z M448,473.8
	c0,4-3.2,7.2-7.2,7.2H329.6c-4,0-7.2-3.2-7.2-7.2v-17.6c0-4,3.2-7.2,7.2-7.2h86.6V64.6h-86.6c-4,0-7.2-3.2-7.2-7.2V39.8
	c0-4,3.2-7.2,7.2-7.2h111.2c4,0,7.2,3.2,7.2,7.2V473.8z"/>
</svg>
