<?xml version="1.0" encoding="utf-8"?>
<!-- Generator: Adobe Illustrator 21.1.0, SVG Export Plug-In . SVG Version: 6.00 Build 0)  -->
<svg version="1.1" id="Layer_3" xmlns="http://www.w3.org/2000/svg" xmlns:xlink="http://www.w3.org/1999/xlink" x="0px" y="0px"
	 viewBox="0 0 512 512" style="enable-background:new 0 0 512 512;" xml:space="preserve">
<path id="_x33_2" d="M472.5,214.5c0-29.7-13.3-57-36.6-75.4c0.1-1,0.1-2,0.1-3c0-38.8-27.9-72-65.6-79.2c-4.1-32.3-31.6-57-64.7-57
	c-19.3,0-37.3,8.5-49.6,22.9C243.7,8.4,225.7,0,206.4,0c-33,0-60.6,24.7-64.7,57c-37.7,7.1-65.6,40.4-65.6,79.2c0,1,0,2,0.1,3
	c-23.3,18.3-36.6,45.6-36.6,75.3c0,17.9,4.9,35.3,14.3,50.4C44.5,281.4,39.6,300,39.6,319c0,29.5,11.6,57,32.6,77.8
	c3.5,22.3,14.6,42.7,31.5,57.5c17.2,15.1,39.3,23.5,62.4,23.7c8.4,20.5,28.2,34,50.7,34c15,0,28.9-6,39.2-16.6
	c10.3,10.6,24.2,16.6,39.2,16.6c22.5,0,42.3-13.5,50.7-34c23.1-0.3,45.2-8.7,62.4-23.7c16.9-14.8,28-35.1,31.5-57.5
	c21-20.8,32.6-48.3,32.6-77.8c0-19-4.9-37.7-14.3-54.1C467.5,249.8,472.5,232.4,472.5,214.5z M370.3,396.1
	c-5.8,0.9-10.8,4.9-12.7,10.5c-2.1,6.3-0.1,12.8,4.6,16.9c3.5,3,8,4.3,12.5,3.6c7.8-1.2,14.4-2.4,19.9-3.8
	c-12.1,14.6-30.5,23.5-50.1,23.5c-11.1,0-22.1-2.9-31.8-8.3c-3.7-2.1-7.9-2.6-11.9-1.4c-4,1.1-7.4,3.8-9.4,7.4
	c-2.4,4.3-2.7,9.5-0.6,14.2c1.4,3.2,4,5.7,7,7.3c4.7,2.6,9.6,4.8,14.7,6.6c-4.5,5.2-11,8.2-18,8.1c-12.8-0.2-23.2-11-23.2-24.2V66
	c0-18.7,14.9-34.3,33.1-34.7c0.3,0,0.6,0,0.8,0c8.9,0,17.3,3.4,23.7,9.7c6.6,6.5,10.3,15.1,10.3,24.3c0,4.2-0.7,8.3-2.2,12.1
	c-1.1,3-1.6,6.2-0.8,9.3c1.8,7.5,8.2,12.3,15.3,12.3c6.5,0,12.2-3.9,14.6-10c0.1-0.2,0.2-0.5,0.3-0.7c21.9,5.2,37.8,25,37.8,47.9
	c0,19.1-11.2,36.7-28.6,44.8c-5,2.3-8.4,7.1-8.9,12.6v0.5c-0.4,5.1,1.5,10.3,5.5,13.5c4.6,3.7,10.7,4.5,16,2.1
	c16.2-7.4,29.7-20.2,38-36c9.5,11.5,14.6,25.8,14.6,40.9c0,35.7-29.1,64.9-64.8,65c-8.5,0-15.6,6.9-15.8,15.2
	c-0.1,5,2.1,9.8,6.2,12.9c2.8,2.2,6.3,3.2,9.9,3.2c21.5-0.1,42.2-7.4,59-20.7c3.7,9.2,5.5,18.9,5.5,28.9c0,29.8-16.6,56.6-43.3,70
	C392.8,391.5,383,394,370.3,396.1z M214.1,465.8c4.8-2.7,7.8-7.6,8-13.4c0-1.5-0.1-2.9-0.5-4.3c-1.6-5.5-5.7-9.5-10.9-11
	c-4-1.1-8.3-0.6-11.9,1.4c-9.6,5.4-20.6,8.3-31.8,8.3c-19.8,0-37.9-8.6-50-23.3c5.2,1.3,11.7,2.5,19.6,3.6c2.7,0.4,5.5,0.2,8.1-0.8
	c6.2-2.5,10-8.3,10-14.7c0-7.7-5.5-14.2-13.2-15.4c-12.5-2-22-4.4-26.9-6.8c-26.7-13.1-44-40.7-44-70.3c0-10,1.9-19.7,5.5-28.9
	c16.8,13.3,37.5,20.6,59,20.7c3.5,0,7.1-1,9.9-3.1c4.1-3.2,6.4-7.9,6.2-12.9c-0.2-8.4-7.3-15.2-15.8-15.2
	c-35.7-0.1-64.8-29.3-64.8-65c0-15.1,5.1-29.4,14.6-40.9c11.5,21.7,32.5,37.4,56.8,41.9c5.3,1,10.7-0.9,14.3-5
	c2.8-3.2,4-7.5,3.7-11.7v-0.5c-0.6-6.8-5.7-12.4-12.5-13.7c-23.3-4.4-40.2-24.8-40.2-48.5c0-22.9,16-42.7,37.8-47.9
	c0.1,0.2,0.2,0.5,0.3,0.7c2.8,7.2,10.2,11.4,18.1,9.7c2-0.4,3.9-1.3,5.6-2.5c6-4.4,8-12,5.5-18.5c-1.7-4.5-2.5-9.3-2.2-14.2
	c0.9-16.9,14.8-30.9,31.6-32c9.5-0.6,18.5,2.6,25.5,9.1c6.9,6.5,10.8,15.3,10.8,24.8v391.9c0,13-10.6,23.5-23.5,23.5
	c-6.9,0-13.3-3-17.7-8.1C204.2,470.8,209.2,468.5,214.1,465.8z"/>
</svg>
