<?xml version="1.0" encoding="utf-8"?>
<!-- Generator: Adobe Illustrator 21.1.0, SVG Export Plug-In . SVG Version: 6.00 Build 0)  -->
<svg version="1.1" id="Layer_2" xmlns="http://www.w3.org/2000/svg" xmlns:xlink="http://www.w3.org/1999/xlink" x="0px" y="0px"
	 viewBox="0 0 550 512" style="enable-background:new 0 0 550 512;" xml:space="preserve">
<g>
	<path d="M255.5,217.6c-6.4,0-9.5,3.2-9.5,9.7s3.1,9.7,9.5,9.7h39c6.6,0,9.9-3.2,9.9-9.7c0-6.5-3.3-9.7-9.9-9.7H255.5z"/>
	<path d="M246,198.5h58.4c13,0,19.5,6.4,19.5,19h226v-101c0-13-6.5-19.5-19.5-19.5v0.1H382.7V54.9c-1.4-10.4-7.5-15.6-18.2-15.6
		H186.3c-10.7,0-16.7,5.4-18.2,16.1l0.4,41.8H19.5c-13,0-19.5,6.5-19.5,19.5v101h226.5C226.5,204.9,233,198.5,246,198.5z
		 M191.8,70.5c0.3-7.6,4.5-11.4,12.6-11.4h142.1c8.6,0,12.7,3.8,12.1,11.4v26.6H191.8V70.5z M207,190.4H27.2v-66.1h141.3H196h159.5
		v0.1h27.2h140.1v66H343.4c-8-12-21.7-19-39-19H246C228.7,171.4,215,178.4,207,190.4z"/>
	<path d="M549.9,237L549.9,237H323.4c0,12.7-6.5,19-19.5,19h-58.4c-13,0-19.5-6.4-19.5-19H0l0,0l0,0v215.6c0,13,6.5,19.5,19.5,19.5
		h511.1c13,0,19.5-6.5,19.5-19.5L549.9,237L549.9,237z M513,446.2H37c-6.6,0-9.9-3.1-9.9-9.7V264.1l0.1,0.1h179.3
		c8,12,21.7,19,39,19h58.4c17.2,0,31-7.1,39-19h179.8l0.2-0.2v172.5C522.9,443,519.6,446.2,513,446.2z"/>
</g>
</svg>
