<?xml version="1.0" encoding="utf-8"?>
<!-- Generator: Adobe Illustrator 21.1.0, SVG Export Plug-In . SVG Version: 6.00 Build 0)  -->
<svg version="1.1" id="Layer_3" xmlns="http://www.w3.org/2000/svg" xmlns:xlink="http://www.w3.org/1999/xlink" x="0px" y="0px"
	 viewBox="0 0 512 512" style="enable-background:new 0 0 512 512;" xml:space="preserve">
<g>
	<path d="M0,318.8V34.7C0,15.5,15.6,0,34.7,0h284.1c19.2,0,34.7,15.5,34.7,34.7v91.7h-32V34.7c0-1.5-1.2-2.7-2.7-2.7H34.7
		c-1.5,0-2.7,1.2-2.7,2.7v284.1c0,1.5,1.2,2.7,2.7,2.7h91.7v32H34.7C15.6,353.5,0,338,0,318.8z"/>
	<path d="M193.1,480c-1.5,0-2.7-1.2-2.7-2.7V193.1c0-1.5,1.2-2.7,2.7-2.7h284.1c1.5,0,2.7,1.2,2.7,2.7v284.1c0,1.5-1.2,2.7-2.7,2.7
		H193.1 M193.1,512h284.1c19.2,0,34.7-15.5,34.7-34.7V193.1c0-19.2-15.5-34.7-34.7-34.7H193.1c-19.2,0-34.7,15.5-34.7,34.7v284.1
		C158.4,496.4,174,512,193.1,512L193.1,512z"/>
</g>
</svg>
