<?xml version="1.0" encoding="utf-8"?>
<!-- Generator: Adobe Illustrator 21.1.0, SVG Export Plug-In . SVG Version: 6.00 Build 0)  -->
<svg version="1.1" id="Layer_3" xmlns="http://www.w3.org/2000/svg" xmlns:xlink="http://www.w3.org/1999/xlink" x="0px" y="0px"
	 viewBox="0 0 512 512" style="enable-background:new 0 0 512 512;" xml:space="preserve">
<g>
	<path d="M512,193.1v284.1c0,19.2-15.5,34.7-34.7,34.7H193.1c-19.2,0-34.7-15.5-34.7-34.7v-91.7h32v91.7c0,1.5,1.2,2.7,2.7,2.7
		h284.1c1.5,0,2.7-1.2,2.7-2.7V193.1c0-1.5-1.2-2.7-2.7-2.7h-91.7v-32h91.7C496.4,158.4,512,174,512,193.1z"/>
	<path d="M318.8,32c1.5,0,2.7,1.2,2.7,2.7v284.1c0,1.5-1.2,2.7-2.7,2.7H34.7c-1.5,0-2.7-1.2-2.7-2.7V34.7c0-1.5,1.2-2.7,2.7-2.7
		H318.8 M318.8,0H34.7C15.5,0,0,15.5,0,34.7v284.1c0,19.2,15.5,34.7,34.7,34.7h284.1c19.2,0,34.7-15.5,34.7-34.7V34.7
		C353.6,15.5,338,0,318.8,0L318.8,0z"/>
</g>
</svg>
