<?xml version="1.0" encoding="utf-8"?>
<!-- Generator: Adobe Illustrator 21.1.0, SVG Export Plug-In . SVG Version: 6.00 Build 0)  -->
<svg version="1.1" id="Layer_3" xmlns="http://www.w3.org/2000/svg" xmlns:xlink="http://www.w3.org/1999/xlink" x="0px" y="0px"
	 viewBox="0 0 639.7 512" style="enable-background:new 0 0 639.7 512;" xml:space="preserve">
<g id="_x33_2">
	<path d="M0,228.8V34.7C0,15.5,15.6,0,34.7,0h194.1c19.2,0,34.7,15.5,34.7,34.7v31.6h-32V34.7c0-1.5-1.2-2.7-2.7-2.7H34.7
		c-1.5,0-2.7,1.2-2.7,2.7v194.1c0,1.5,1.2,2.7,2.7,2.7h97.1v32H34.7C15.6,263.5,0,248,0,228.8z"/>
	<path d="M198.1,380c-1.5,0-2.7-1.2-2.7-2.7V133.1c0-1.5,1.2-2.7,2.7-2.7h244.1c1.5,0,2.7,1.2,2.7,2.7v244.1c0,1.5-1.2,2.7-2.7,2.7
		H198.1 M198.1,412h244.1c19.2,0,34.7-15.5,34.7-34.7V133.1c0-19.2-15.5-34.7-34.7-34.7H198.1c-19.2,0-34.7,15.5-34.7,34.7v244.1
		C163.4,396.4,179,412,198.1,412L198.1,412z"/>
	<path d="M639.7,283.2v194.1c0,19.2-15.5,34.7-34.7,34.7H410.9c-19.2,0-34.7-15.5-34.7-34.7v-31.6h32v31.6c0,1.5,1.2,2.7,2.7,2.7
		H605c1.5,0,2.7-1.2,2.7-2.7V283.2c0-1.5-1.2-2.7-2.7-2.7H508v-32H605C624.2,248.5,639.7,264,639.7,283.2z"/>
</g>
</svg>
