<?xml version="1.0" encoding="utf-8"?>
<!-- Generator: Adobe Illustrator 22.0.1, SVG Export Plug-In . SVG Version: 6.00 Build 0)  -->
<svg version="1.1" id="Layer_2" xmlns="http://www.w3.org/2000/svg" xmlns:xlink="http://www.w3.org/1999/xlink" x="0px" y="0px"
	 viewBox="0 0 258.1 300" style="enable-background:new 0 0 258.1 300;" xml:space="preserve">
<g id="_x33_2" transform="translate(0,-952.36218)">
	<path d="M226.9,952.7c-6,0.1-11.7,3.2-15,8.7c0,0,0,0,0,0l-45.9,78.4c-24.1-7.5-49.4-2.7-62.4,15.1c0,0.1-0.1,0.1-0.1,0.2
		c-24.5,36.2-39.6,50.7-99.9,80.5c-3.4,1.7-4.8,5.7-3.1,9.1c0.5,1,1.2,1.9,2.2,2.5l33.1,23.4c1.4,1,3.2,1.4,5,1.2
		c4.9-0.8,9.9-1.9,14.6-3.6c-1.1,1.9-2.3,3.6-3.5,5.3c-2.2,3-17.6,30.6-15.8,33.1c6.5,9.2,39.1,0.6,48.6-7
		c4.9-3.6,9.6-7.8,15.8-16.7c-0.5,5.3-3.6,13.4-7.8,20.3c-1.8,3.1-1,7,1.9,9.1l18.5,13.1c2.7,1.9,6.3,1.6,8.6-0.6
		c1.9-1.8,3.9-4.1,6-7c0.2,0.9,0.2,1.7,0.2,2.5c0,0,0,0,0,0c0,3.2,0.3,4.7-0.9,9.5c-0.7,2.8,0.3,5.7,2.7,7.3l19.7,13.9
		c3.1,2.2,7.3,1.4,9.5-1.6c0.8-1.1,1.2-2.4,1.2-3.8c0.4-18,7.9-46.2,27-79.5c0,0,0,0,0,0c3.8-6.7,8.8-15.7,13.2-23c0,0,0,0,0,0
		l12.3-21.1c0,0,0,0,0,0c0.8-1.4,1.6-3.1,1.6-3.1c0.1-0.2,0.2-0.4,0.3-0.6c9-20,0.7-44-17.9-61l45.8-78.3l0,0
		c4.9-8.4,1.9-19.3-6.5-24.1c0,0,0,0,0,0C233.2,953.4,230,952.6,226.9,952.7L226.9,952.7z M227.4,966.3c0.7,0,1.4,0.2,2,0.6
		c2,1.1,2.6,3.5,1.5,5.4c0,0,0,0,0,0l-48.7,83.3c-1.7,2.9-1,6.7,1.7,8.8c15.5,12.1,22.7,28.7,20.4,42.1l-84.8-48.3
		c10.7-8.6,28.9-10.8,47.2-3.6c3.1,1.2,6.7,0,8.4-2.9l48.7-83.2c0,0,0,0,0,0C224.5,967,225.9,966.2,227.4,966.3L227.4,966.3z
		 M110.7,1068.7l88.1,50.2l-10.1,17.2l0,0c-4.5,7.6-9.5,16.7-13.3,23.1c0,0,0,0,0,0c-16.4,28.6-25,53.7-27.8,73.7l-6.4-4.5
		c0.6-3.9,0.4-6.7,0.4-8.5c0,0,0,0,0,0c-0.1-4.4-1.3-10.8-6.8-20.3c-1.9-3.3-6-4.4-9.3-2.5c-1.1,0.6-1.9,1.5-2.5,2.6
		c-2.7,4.9-5,8.4-7,10.9l-8.5-6c3.8-7.3,6.6-15.2,6.7-22.8l0,0c0.3-13.4,0.4-9.4-0.5-22.8c-0.3-3.8-3.5-6.6-7.3-6.3
		c-2.3,0.2-4.3,1.4-5.5,3.4c-10.6,18.6-15.4,25.2-20.5,29.4c-9.5,7.8-26.6,12-26.6,12c4.6-7.6,20.8-38,23.2-47.5
		c0.9-3.6-1.2-7.4-4.9-8.3c-2.9-0.8-6,0.5-7.5,3.1c-4.1,6.9-12.6,10.9-23.5,12.9l-21.5-15.2C69.9,1117.1,88.9,1099.8,110.7,1068.7
		L110.7,1068.7z"/>
	<g>
		<path d="M230,1123.3c6.1,2.2,12.7,5.8,16.7,11.6c4,6.6,2.9,14.7-3,23.9l-0.1,0.1l-0.1,0.1c-2.2,3.7-1.8,8.6,1,11.8
			c7.1,8.2,7.4,12,7.4,13c-0.2,1.9-2.5,4.5-6.9,7.6c-4.3,3.1-5.4,9.2-2.5,13.6c7,10.8,6.1,15.2,5.6,16.3c-0.3,0.6-1.2,2.2-4.8,3.9
			c-0.8-1.7-1.8-3.4-2.9-5.1c2.1-7.1,2.2-12.8,0.4-18c-1.5-4.4-4.3-7.8-7.4-10.4c1.9-6,2-12.1,0.3-17.8c-1.3-4.3-3.6-8.5-6.8-12.9
			c2.4-7.6-0.9-14.4-3.3-19.7c-0.6-1.3-1.2-2.6-1.7-3.8l7-11.9C229.3,1124.8,229.7,1124,230,1123.3 M226.1,1114.8
			c-0.4,1.2-0.9,2.4-1.4,3.5c-0.1,0.2-0.2,0.4-0.3,0.6c0,0-0.8,1.6-1.6,3l-8.6,14.8c2.8,9.2,10.1,16.5,4.6,25.2
			c3.5,4.1,6.7,8.7,8.3,13.9c1.7,5.5,1,11.8-2.1,18c4.3,3,7.7,6.1,9.2,10.5c1.6,4.6,0.9,10.2-1.5,16.8c3.2,4.4,5.4,8.7,6.6,12.8
			c8.4-2.2,13.5-5.7,15.3-10c2-4.8,0.8-12-6.2-22.8c-0.9-1.3-0.5-3.2,0.8-4.1c6.3-4.5,9.4-8.4,9.8-12.7c0.3-4.3-2.1-10.1-9.1-18.2
			c-0.8-1-0.9-2.5-0.3-3.6c7.8-12.1,8.3-22.8,3-31.5C246.5,1122.1,235.8,1117.3,226.1,1114.8L226.1,1114.8z"/>
	</g>
	<g>
		<path d="M205.8,1169.4L205.8,1169.4l4.4,6.1c1.2,1.7,2,3.4,2.5,5c0.8,2.5,0.8,4.8-1.3,8.1c-1.7,2.6-2.3,5.9-1.6,9.1
			c0.7,3.1,2.6,5.9,5.2,7.6c4.4,2.8,5,4,5,4.3c0,0.1,0.6,1.8-1.8,7.9l0,0l0,0c-1.6,4.1-0.8,8.6,1.9,12c5.4,6.7,5.7,11.6,4.6,13
			c-0.5,0.6-1.5,1-3,1c-1.3,0-3.6-0.3-6.9-1.9c-1.6-0.8-3.4-1.2-5.2-1.2c-2.1,0-4.2,0.6-6,1.6c-1.5,0.6-3.2,1-5,1
			c-6,0-12.9-3.4-18.2-8.8c2-12.3,7.9-34.2,24.6-63.4C205.3,1170.2,205.5,1169.8,205.8,1169.4 M210.6,1142.9l-0.1,0.2c0,0,0,0,0,0
			c-2.2,3.7-4.5,7.8-6.8,11.8c-2.3,4-4.5,7.9-6.4,11.3c-16.3,28.3-24.1,52.9-26.3,70.7c6.7,8.6,17.5,15,27.7,15c3.2,0,6.3-0.6,9.3-2
			c0.5-0.4,1.1-0.6,1.8-0.6c0.5,0,0.9,0.1,1.3,0.3c4,1.9,7.7,2.8,10.8,2.8c4.7,0,8.2-1.9,10.3-4.7c3.4-4.8,3.4-13.4-5-24
			c-0.7-0.8-0.9-2-0.5-3c2.7-6.9,3.1-11.1,2-14.2c-1.1-3.1-3.8-5.7-8.7-8.9c-1.3-0.9-1.8-2.8-0.9-4.2c3.7-5.7,3.9-10.7,2.3-15.6
			c-0.8-2.5-2.1-5-3.7-7.5l-4.5-6.1C216.2,1159.3,213.8,1149.5,210.6,1142.9L210.6,1142.9z"/>
	</g>
</g>
</svg>
