<?xml version="1.0" encoding="utf-8"?>
<!-- Generator: Adobe Illustrator 21.1.0, SVG Export Plug-In . SVG Version: 6.00 Build 0)  -->
<svg version="1.1" id="Layer_1" focusable="false" xmlns="http://www.w3.org/2000/svg" xmlns:xlink="http://www.w3.org/1999/xlink"
	 x="0px" y="0px" viewBox="0 0 512 512" style="enable-background:new 0 0 512 512;" xml:space="preserve">
<g id="_x33_2">
	<path d="M0,32v448h512V32H0z M32,64h448v65.8H32V64z M480,448H32V161.8h448V448z"/>
	<path d="M66.7,116.3c-11.1,0-20.2-9-20.2-20.2c0-11.2,9-20.2,20.2-20.2c11.2,0,20.2,9,20.2,20.2C86.9,107.3,77.9,116.3,66.7,116.3z
		 M123.3,116.3c-11.2,0-20.2-9-20.2-20.2c0-11.2,9-20.2,20.2-20.2c11.2,0,20.2,9,20.2,20.2C143.5,107.3,134.4,116.3,123.3,116.3z
		 M179.7,116.3c-11.2,0-20.2-9-20.2-20.2c0-11.2,9-20.2,20.2-20.2c11.2,0,20.2,9,20.2,20.2C199.9,107.3,190.9,116.3,179.7,116.3z"/>
</g>
</svg>
