<?xml version="1.0" encoding="utf-8"?>
<!-- Generator: Adobe Illustrator 21.1.0, SVG Export Plug-In . SVG Version: 6.00 Build 0)  -->
<svg version="1.1" id="Layer_1" xmlns="http://www.w3.org/2000/svg" xmlns:xlink="http://www.w3.org/1999/xlink" x="0px" y="0px"
	 viewBox="0 0 512 512" style="enable-background:new 0 0 512 512;" xml:space="preserve">
<g>
	<path d="M477.6,148.4v-24.3H439V99.8h-48.1v24.1H361V0H0v512h120v-81.9c0-32.5,25.3-59.9,57.8-61.3c34.7-1.5,63.2,26.1,63.2,60.5
		V512h271V148.4H477.6z M329,480h-59v-50.8c0-49.6-40.3-89.9-90-89.9s-90,40.2-90,89.9V480H32V32h297V480z M487.7,471.8H361v-42.5
		h126.7V471.8z M487.8,403H361v-24.3h126.8V403z M487.8,350.4H361v-24.3h126.8V350.4z M487.8,297.8H361v-24.1h126.8V297.8z
		 M487.8,246.4H361v-24.3h126.8V246.4z M487.8,196.8H361v-24.3h126.8V196.8z"/>
	<rect x="150" y="65" width="64" height="64"/>
	<rect x="55" y="65" width="64" height="64"/>
	<rect x="243" y="65" width="63" height="64"/>
	<rect x="150" y="158" width="64" height="64"/>
	<rect x="55" y="158" width="64" height="64"/>
	<rect x="243" y="158" width="63" height="64"/>
	<rect x="150" y="250" width="64" height="64"/>
	<rect x="55" y="250" width="64" height="64"/>
	<rect x="243" y="250" width="63" height="64"/>
</g>
</svg>
