<?xml version="1.0" encoding="utf-8"?>
<!-- Generator: Adobe Illustrator 21.1.0, SVG Export Plug-In . SVG Version: 6.00 Build 0)  -->
<svg version="1.1" id="Layer_4" xmlns="http://www.w3.org/2000/svg" xmlns:xlink="http://www.w3.org/1999/xlink" x="0px" y="0px"
	 viewBox="0 0 536.7 512" style="enable-background:new 0 0 536.7 512;" xml:space="preserve">
<style type="text/css">
	.st0{display:none;opacity:0.49;}
	.st1{display:inline;fill:#73C058;}
</style>
<g>
	<path d="M226.7,0v512h94v-81.9c0-32.5,25.3-59.9,57.8-61.3c34.7-1.5,63.2,26.1,63.2,60.5V512h95V0H226.7z M504.7,480h-34v-50.8
		c0-49.6-40.3-89.9-90-89.9s-90,40.2-90,89.9V480h-32V32h246V480z"/>
	<path d="M356.1,87v52.7h52.7V87H356.1z"/>
	<path d="M277.9,87v52.7h52.7V87H277.9z"/>
	<path d="M432.6,87v52.7h51.8V87H432.6z"/>
	<path d="M356.1,163.6v52.7h52.7v-52.7H356.1z"/>
	<path d="M277.9,163.6v52.7h52.7v-52.7H277.9z"/>
	<path d="M432.6,163.6v52.7h51.8v-52.7H432.6z"/>
	<path d="M356.1,239.3V292h52.7v-52.7H356.1z"/>
	<path d="M277.9,239.3V292h52.7v-52.7H277.9z"/>
	<path d="M432.6,239.3V292h51.8v-52.7H432.6z"/>
	<path d="M220.2,370.8c0,0.2-0.3-0.2-0.4-0.3c-18.4-13.9-36.4-29.9-53.7-47.2L91.3,402c25.4,23.1,55.3,38,86.5,44.4
		c11.5-24.3,41.7-72.2,41.7-72.2v50.4c0,0,0.7,0.3,0.7,0.3c-4.7,8.3-9.2,16.6-13.3,24.8h13.3c0.1,3.4,0,26.3,0.3,26.1
		c-9.9,3.7-23.8,1.9-32.1,0.8c-0.5-0.1-1-0.1-1.6-0.2c-45.4-6.1-89.2-27.4-124.1-64.1C-20.5,324.7-21,183.5,61.5,96.6
		C105.1,50.7,163.1,29.2,220.4,32v79.7c0,0-11.3,17.4-17.4,26.1c5.8,4.4,16.6,13.6,16.6,13.6v36.2c0,0-21.5-19-33.1-27.4
		c-9.6,12-19.7,23.8-30.7,35.3c-10.9,11.4-22.2,22.2-33.7,32.3c12.8,19.4,27.7,38.2,43.8,56.1c0,0,31.1-34.1,52.8-57.1v39.6
		c-17.8,18.8-33.8,37.3-33.8,37.3c11.5,11.3,23.3,22.2,35.5,32.2C220.3,351.5,220.2,361.8,220.2,370.8z M52.4,154.4
		c-18.3,32.5-26.9,69.5-25.6,106.3c20.1-10.9,40-23.9,59.2-39C72.8,199.4,61.3,176.9,52.4,154.4z M217.8,60
		c-35-1.3-70.1,7.7-101.2,27c21.4,9.3,42.8,21.2,64,35.3C195.1,101.9,207.5,81.1,217.8,60z M137.2,176c9.5-10,18.4-20.4,26.9-31.1
		c-24.4-15.7-49.5-28.5-74.1-37.7c-3.2,3-6.5,5.8-9.5,9.1c-3.1,3.2-5.8,6.6-8.6,10c8.7,25.9,20.8,52.2,35.9,77.9
		C117.7,195.3,127.7,186,137.2,176z M100.9,245c-23.1,18.2-46.9,33.8-70.7,46.2c6.1,32.7,20.1,64.1,42.2,90.9l74.8-78.6
		C130.2,284.6,114.5,265.1,100.9,245z"/>
</g>
<g class="st0">
	<path class="st1" d="M242.9-0.2v511.1h94.6v-72.1c-0.3-29.1,23.3-52.6,52.3-52.6s52.6,23.6,53.2,52.6v73h93.7v-512H242.9z
		 M364.4,81.5h50.5v49.7h-50.5V81.5z M364.4,169.7h50.5v49.7h-50.5V169.7z M364.4,257.9h50.5v49.7h-50.5V257.9z M288.9,81.5h50.5
		v49.7h-50.5V81.5z M288.9,169.7h50.5v49.7h-50.5V169.7z M288.9,307.6v-49.7h50.5v49.7H288.9z M489.7,307.6h-50.5v-49.7h50.5V307.6z
		 M489.7,219.4h-50.5v-49.7h50.5V219.4z M489.7,131.2h-50.5V81.5h50.5V131.2z"/>
	<path class="st1" d="M227.6,462.5c0-3.5,0-7.8,0.9-11.5v-14.9h-9.3c0,0,4.4-7.9,6.9-12.2l1.6-2.9v-3.3c0.1-14.2,0.9-29.7,0.9-29.7
		l-1.7-17.8v-14.3l0.9-20.2v-5.9l-4.6-3.7c-8.7-7.2-17.6-15.2-27-24.3c5.7-6.4,15.8-17.6,26.8-29.2l4-3.7v-59.4l-22.8,23.4
		c-13.6,14.6-28.5,30.8-36.4,39.4c-12.3-14.1-23.4-28.3-32.9-42.3c9.8-8.9,19.3-18,28.3-27.4c8.7-9.1,17.2-18.6,25.7-29.2
		c5.8,4.4,12.5,10.1,17.8,14.5l20.9,17.4v-27.1v-20.6v-6l-4.7-3.8c-3.1-2.5-6.3-5.1-9.5-7.6c4.5-6.6,9.8-14.6,12.2-18.4l2.8-3.1
		V32.1l-13.2-0.2c-1.5,0-2.9-0.1-4.4-0.1c-56.4,0-109.4,23-149.3,64.8C21.7,138.7-0.2,194.6,0,254.2c0.3,59.5,22.5,115.6,62.7,158
		c33.9,35.6,76.9,57.8,124.3,64.2h0.1c0.3,0.1,0.8,0.1,1,0.1c0.1,0,0.2,0,0.2,0h0.3c5.4,0.8,11.2,1.5,17.4,1.5c4.2,0,7.9-0.3,11.3-1
		l10.1-2.1L227.6,462.5L227.6,462.5z M175.2,431.9c-25.2-6.1-49-18.1-69.4-35.2l62.2-65.4c13.3,13,26.1,24.3,38.9,34.5l4.8,3.8
		l-7.4,11.4C193.4,397.9,183.6,414.9,175.2,431.9z M134.8,173.6c-6.4,6.8-13.4,13.7-21.6,21.1c-11.7-21.1-21.2-42.1-28.4-62.6
		c1.7-2.2,3.6-4.3,5.5-6.3c1.7-1.8,3.7-3.7,5.6-5.4c19.7,7.7,39.7,17.7,59.5,29.9C148.4,158.7,141.7,166.3,134.8,173.6z M40.3,248.3
		c0.7-25.7,6.5-50.7,17.1-73.5c6.7,15.2,14.6,30.7,23.7,46.4C67.8,231.1,54.1,240.2,40.3,248.3z M103.3,255.7
		c10.5,15.1,22.8,30.5,36.6,46.1l-62.1,65.3c-16.1-21.3-27.4-46.4-33.3-73.2C64.5,283.2,84.2,270.3,103.3,255.7z M135.8,91.7
		c21.9-11.2,46-17.5,70.5-18.3l-2.5,4.6c-7.1,13-15,26-23.7,38.7C165.4,107.2,150.5,98.8,135.8,91.7z"/>
</g>
</svg>
