<?xml version="1.0" encoding="utf-8"?>
<!-- Generator: Adobe Illustrator 21.1.0, SVG Export Plug-In . SVG Version: 6.00 Build 0)  -->
<svg version="1.1" id="Layer_4" xmlns="http://www.w3.org/2000/svg" xmlns:xlink="http://www.w3.org/1999/xlink" x="0px" y="0px"
	 viewBox="0 0 361.1 512" style="enable-background:new 0 0 361.1 512;" xml:space="preserve">
<g>
	<path d="M0,0v512h120v-81.9c0-32.5,25.3-59.9,57.8-61.3c34.7-1.5,63.2,26.1,63.2,60.5V512h120V0H0z M329,480h-59v-50.8
		c0-49.6-40.3-89.9-90-89.9s-90,40.2-90,89.9V480H32V32h297V480z"/>
	<path d="M150,65v64h64V65H150z"/>
	<path d="M55,65v64h64V65H55z"/>
	<path d="M243,65v64h63V65H243z"/>
	<path d="M150,158v64h64v-64H150z"/>
	<path d="M55,158v64h64v-64H55z"/>
	<path d="M243,158v64h63v-64H243z"/>
	<path d="M150,250v64h64v-64H150z"/>
	<path d="M55,250v64h64v-64H55z"/>
	<path d="M243,250v64h63v-64H243z"/>
</g>
</svg>
