<?xml version="1.0" encoding="utf-8"?>
<!-- Generator: Adobe Illustrator 21.1.0, SVG Export Plug-In . SVG Version: 6.00 Build 0)  -->
<svg version="1.1" id="Layer_3" xmlns="http://www.w3.org/2000/svg" xmlns:xlink="http://www.w3.org/1999/xlink" x="0px" y="0px"
	 viewBox="0 0 425.5 512" style="enable-background:new 0 0 425.5 512;" xml:space="preserve">
<g>
	<g>
		<path d="M271,0H0v512h32V331h239V0z M239,299H32V32h207V299z"/>
	</g>
	<g>
		<rect x="64" y="64.1" width="55.5" height="46.1"/>
	</g>
	<g>
		<rect x="151.5" y="64.1" width="55.5" height="46.1"/>
	</g>
	<g>
		<rect x="64" y="142.2" width="55.5" height="46.1"/>
	</g>
	<g>
		<rect x="151.5" y="142.2" width="55.5" height="46.1"/>
	</g>
	<g>
		<rect x="64" y="221" width="55.5" height="46.1"/>
	</g>
	<g>
		<rect x="151.5" y="221" width="55.5" height="46.1"/>
	</g>
	<g>
		<polygon points="139.8,513 171.8,513 171.8,459.4 235.2,459.4 235.2,513 267.2,513 267.2,459.4 329.5,459.4 329.5,513 361.5,513 
			361.5,427.4 139.8,427.4 		"/>
	</g>
	<g>
		<polygon points="75.8,363.4 75.8,513 107.8,513 107.8,395.4 393.5,395.4 393.5,513 425.5,513 425.5,395.4 425.5,363.4 		"/>
	</g>
	<path d="M358.4,107.5v193.7H333V107.5H358.4 M388.4,77.5H303v253.7h85.4V77.5L388.4,77.5z"/>
</g>
</svg>
