<?xml version="1.0" encoding="utf-8"?>
<!-- Generator: Adobe Illustrator 21.1.0, SVG Export Plug-In . SVG Version: 6.00 Build 0)  -->
<svg version="1.1" id="Layer_3" xmlns="http://www.w3.org/2000/svg" xmlns:xlink="http://www.w3.org/1999/xlink" x="0px" y="0px"
	 viewBox="0 0 367 512" style="enable-background:new 0 0 367 512;" xml:space="preserve">
<g>
	<path d="M183.7,235.7c28.8,0,52.3-23.5,52.3-52.3s-23.5-52.3-52.3-52.3c-28.8,0-52.3,23.5-52.3,52.3S154.8,235.7,183.7,235.7z
		 M183.7,163.1c11.2,0,20.3,9.1,20.3,20.3s-9.1,20.3-20.3,20.3c-11.2,0-20.3-9.1-20.3-20.3S172.5,163.1,183.7,163.1z"/>
	<path d="M183.7,296.2c62.2,0,112.9-50.6,112.9-112.8S245.9,70.5,183.7,70.5S70.8,121.2,70.8,183.4S121.4,296.2,183.7,296.2z
		 M183.7,102.5c44.6,0,80.9,36.3,80.9,80.8s-36.3,80.8-80.9,80.8c-44.6,0-80.8-36.3-80.8-80.8S139.1,102.5,183.7,102.5z"/>
	<path d="M183.7,366.8c101.1,0,183.4-82.3,183.4-183.4C367,82.3,284.8,0,183.7,0C82.5,0,0.3,82.3,0.3,183.4
		C0.3,284.5,82.5,366.8,183.7,366.8z M183.7,33.5c82.6,0,149.8,67.2,149.8,149.8s-67.2,149.8-149.8,149.8S33.8,266,33.8,183.4
		S101,33.5,183.7,33.5z"/>
	<path d="M189.1,382.4c-1.3,0-2,0.1-3.5,0.1c-3.6,0-6.2-0.1-10.5-0.4l-7.1-0.4V473c0,9.2,6.9,16.4,15.7,16.4s15.7-7.2,15.7-16.4
		v-90.8l-5.6,0.1C191.5,382.4,190.2,382.4,189.1,382.4z"/>
	<path d="M112.4,368c-6.3-2.7-12.6-5.8-19.2-9.5l-5.2-2.9l-62,133.1c-3.8,8.2-0.4,18,7.7,21.8c2.2,1,4.4,1.5,6.8,1.5
		c5.5,0,12.8-3,15.9-9.5l61.8-132.1l-5.3-2.2C112.8,368.1,112.6,368.1,112.4,368z"/>
	<path d="M337,488.7l-60.8-130.4l-5.1,2.7c-5,2.7-9.8,5-14.7,7c-0.9,0.4-1.8,0.7-2.8,1.1c-0.5,0.2-1,0.4-1.5,0.6l-5.4,2.1
		l60.9,130.8c2.7,5.8,8.4,9.5,14.7,9.5c2.4,0,4.6-0.5,6.8-1.5C337.3,506.7,340.9,496.9,337,488.7z"/>
</g>
</svg>
