<?xml version="1.0" encoding="utf-8"?>
<!-- Generator: Adobe Illustrator 21.1.0, SVG Export Plug-In . SVG Version: 6.00 Build 0)  -->
<svg version="1.1" id="Layer_1" xmlns="http://www.w3.org/2000/svg" xmlns:xlink="http://www.w3.org/1999/xlink" x="0px" y="0px"
	 viewBox="0 0 512 512" style="enable-background:new 0 0 512 512;" xml:space="preserve">
<path d="M366.3,0l-71.4,71.4l0.1,0.3l14,65l22.2,22.1l-19.4,19.4l-5.8-2.9c-24.2-10.9-54.7-6.9-73.9,12.3L65.3,354.4
	c-20,20-24,49.9-12.5,74.1L0,512l83.4-52.7c8.7,4.1,18.1,6.5,28,6.5c17.5,0,33.9-6.8,46.1-19.1l166.8-166.8c20-20,24-49.8,12.6-74.1
	l-2.9-5.8l19.3-19.2l21.2,21.1l65.7,14.8l0.2,0.2l71.7-71.3L366.3,0z M301.3,256.9L134.4,423.7c-6.1,6.1-14.3,9.5-23,9.5
	c-4.6,0-9.3-1.1-14-3.3l-10.3-4.9l-4.9-10.4c-5.9-12.5-3.5-27.4,6.1-37l166.8-166.8c9-9,24.7-11.3,37.4-5.6l10,4.5l4.9,10.3
	C313.4,232.4,310.9,247.2,301.3,256.9z M350.3,139.6l-15.8-15.3l-10.6-42.6l42.4-42.4l42.2,42.2L350.3,139.6z M430.2,188l-41.3-11
	l-16.1-15.6l57.8-57.8l41.9,41.9L430.2,188z"/>
</svg>
