<?xml version="1.0" encoding="utf-8"?>
<!-- Generator: Adobe Illustrator 21.1.0, SVG Export Plug-In . SVG Version: 6.00 Build 0)  -->
<svg version="1.1" id="Layer_1" xmlns="http://www.w3.org/2000/svg" xmlns:xlink="http://www.w3.org/1999/xlink" x="0px" y="0px"
	 viewBox="0 0 518.4 512" style="enable-background:new 0 0 518.4 512;" xml:space="preserve">
<g>
	<path d="M22,153h7.8c5.5,0,10-4.5,10-10V73.5c0-5.5-4.5-10-10-10H10c-5.5,0-10,4.5-10,10V143c0,5.5,4.5,10,10,10h8v24.5h33.7v-4.1
		H22V153z"/>
	<path d="M508.4,63.6h-19.8c-5.5,0-10,4.5-10,10V143c0,5.5,4.5,10,10,10h8v20.5h-29.9v4.1h33.9V153h7.8c5.5,0,10-4.5,10-10V73.5
		C518.3,68,513.9,63.6,508.4,63.6z"/>
	<path id="_x33_2" d="M106.8,389.1c-9.4,0-17.1,7.7-17.1,17.1s7.7,17.1,17.1,17.1s17-7.7,17.1-17.1
		C124,396.8,116.3,389.1,106.8,389.1z M142.7,401.5c-6,0-10.9,4.9-10.9,10.9c0,6,4.9,10.9,10.9,10.9c6,0,10.9-4.9,10.9-10.9
		C153.7,406.4,148.7,401.5,142.7,401.5z M373.4,401.4c-6.2,0-11.1,4.8-11.1,10.9c0,6,5,10.9,11.1,10.9c6.2,0,11.1-4.9,11.1-10.9
		S379.6,401.4,373.4,401.4z M410.7,389.1c-9.5,0-17.3,7.7-17.3,17.1s7.8,17.1,17.3,17.1c9.5,0,17.3-7.7,17.3-17.1
		S420.3,389.1,410.7,389.1z M407.6,99.1H111.7c-10.5,0-19.1,8.5-19.1,19.1v133.1h334.1V118.2C426.7,107.7,418.2,99.1,407.6,99.1z
		 M251.2,142.3h-18.9c-7.1,0-12.9,5.8-12.9,12.9c0,7.1,5.8,12.9,12.9,12.9h18.9v51.2H124.6v-88.2h126.6V142.3z M394.7,219.3H267.1
		v-51.2H284c7.1,0,12.9-5.8,12.9-12.9c0-7.1-5.8-12.9-12.9-12.9h-16.9v-11.2h127.6V219.3z M426.7,118.2c0-10.5-8.5-19.1-19.1-19.1
		H111.7c-10.5,0-19.1,8.5-19.1,19.1v133.1h334.1V118.2z M251.2,142.3h-18.9c-7.1,0-12.9,5.8-12.9,12.9c0,7.1,5.8,12.9,12.9,12.9
		h18.9v51.2H124.6v-88.2h126.6V142.3z M394.7,219.3H267.1v-51.2H284c7.1,0,12.9-5.8,12.9-12.9c0-7.1-5.8-12.9-12.9-12.9h-16.9v-11.2
		h127.6V219.3z M410.7,389.1c-9.5,0-17.3,7.7-17.3,17.1s7.8,17.1,17.3,17.1c9.5,0,17.3-7.7,17.3-17.1S420.3,389.1,410.7,389.1z
		 M373.4,401.4c-6.2,0-11.1,4.8-11.1,10.9c0,6,5,10.9,11.1,10.9c6.2,0,11.1-4.9,11.1-10.9S379.6,401.4,373.4,401.4z M142.7,401.5
		c-6,0-10.9,4.9-10.9,10.9c0,6,4.9,10.9,10.9,10.9c6,0,10.9-4.9,10.9-10.9C153.7,406.4,148.7,401.5,142.7,401.5z M106.8,389.1
		c-9.4,0-17.1,7.7-17.1,17.1s7.7,17.1,17.1,17.1s17-7.7,17.1-17.1C124,396.8,116.3,389.1,106.8,389.1z M468.6,247V40.7
		c1.5-28-14.3-32.5-41.2-33.7c-10.3-0.8-97.8-7-174.5-7C176.2,0,100.7,6.1,90.5,6.9c-31.6,1.6-41.2,7.2-41.2,35.7v204.3
		c-2.3,4.6-3.5,9.7-3.5,15.2l0.1,172.6c0,11.4,5.1,21.6,13.1,28.6v9.1c0,21.9,17.8,39.7,39.7,39.7h29.7c21.8,0,39.6-17.7,39.7-39.5
		h182c0.1,21.8,17.9,39.4,39.7,39.4h29.7c21.9,0,39.7-17.8,39.7-39.7v-9c0.8-0.6,1.5-1.3,2.2-2c7-7.1,10.9-16.6,10.9-26.7V262.2
		C472.1,256.8,470.9,251.6,468.6,247z M441.3,320.5c-3,1.2-6.2,2.3-9.3,3.4c-15.4,4.9-30.8,6.9-30.8,6.9c-5.5,0-9.9,4.4-9.9,9.9v6
		c0,5.5,4.4,9.9,9.9,9.9l40.2-2v79.8c0,4.1-3.1,7.1-7,7.1c0,0-2.2,0-6.1,0v30.6c0,4.9-4,8.8-8.8,8.8h-29.7c-4.9,0-8.8-4-8.8-8.8
		v-30.6H137.1v30.7c0,4.9-4,8.8-8.8,8.8H98.5c-4.8,0-8.8-4-8.8-8.8v-30.7h-6.1c-3.9,0-7-3.1-7-7l0-80.1l40.7,2
		c5.5,0,9.9-4.4,9.9-9.9v-6c0-5.5-4.4-9.9-9.9-9.9c0,0-15.4-1.9-30.8-6.9c-3.3-1.1-6.7-2.3-9.9-3.6l0-58.1c0-1.9,1.6-3.5,3.5-3.5
		V59.6c0-12,9.8-21.9,21.9-21.9c0,0,70.7-6.9,150.9-6.9c80.3,0,162.9,7,162.9,7c12.2,0,22.9,9.9,21.9,21.9c0,4.5,0,199,0,199
		c2,0,3.5,1.5,3.5,3.5V320.5z M407.6,99.1H111.7c-10.5,0-19.1,8.5-19.1,19.1v133.1h334.1V118.2C426.7,107.7,418.2,99.1,407.6,99.1z
		 M251.2,142.3h-18.9c-7.1,0-12.9,5.8-12.9,12.9c0,7.1,5.8,12.9,12.9,12.9h18.9v51.2H124.6v-88.2h126.6V142.3z M394.7,219.3H267.1
		v-51.2H284c7.1,0,12.9-5.8,12.9-12.9c0-7.1-5.8-12.9-12.9-12.9h-16.9v-11.2h127.6V219.3z M410.7,423.3c9.5,0,17.3-7.7,17.3-17.1
		s-7.8-17.1-17.3-17.1c-9.5,0-17.3,7.7-17.3,17.1S401.2,423.3,410.7,423.3z M373.4,401.4c-6.2,0-11.1,4.8-11.1,10.9
		c0,6,5,10.9,11.1,10.9c6.2,0,11.1-4.9,11.1-10.9S379.6,401.4,373.4,401.4z M142.7,401.5c-6,0-10.9,4.9-10.9,10.9
		c0,6,4.9,10.9,10.9,10.9c6,0,10.9-4.9,10.9-10.9C153.7,406.4,148.7,401.5,142.7,401.5z M106.8,389.1c-9.4,0-17.1,7.7-17.1,17.1
		s7.7,17.1,17.1,17.1s17-7.7,17.1-17.1C124,396.8,116.3,389.1,106.8,389.1z M106.8,389.1c-9.4,0-17.1,7.7-17.1,17.1
		s7.7,17.1,17.1,17.1s17-7.7,17.1-17.1C124,396.8,116.3,389.1,106.8,389.1z M142.7,401.5c-6,0-10.9,4.9-10.9,10.9
		c0,6,4.9,10.9,10.9,10.9c6,0,10.9-4.9,10.9-10.9C153.7,406.4,148.7,401.5,142.7,401.5z M373.4,401.4c-6.2,0-11.1,4.8-11.1,10.9
		c0,6,5,10.9,11.1,10.9c6.2,0,11.1-4.9,11.1-10.9S379.6,401.4,373.4,401.4z M410.7,389.1c-9.5,0-17.3,7.7-17.3,17.1
		s7.8,17.1,17.3,17.1c9.5,0,17.3-7.7,17.3-17.1S420.3,389.1,410.7,389.1z M407.6,99.1H111.7c-10.5,0-19.1,8.5-19.1,19.1v133.1h334.1
		V118.2C426.7,107.7,418.2,99.1,407.6,99.1z M251.2,142.3h-18.9c-7.1,0-12.9,5.8-12.9,12.9c0,7.1,5.8,12.9,12.9,12.9h18.9v51.2
		H124.6v-88.2h126.6V142.3z M394.7,219.3H267.1v-51.2H284c7.1,0,12.9-5.8,12.9-12.9c0-7.1-5.8-12.9-12.9-12.9h-16.9v-11.2h127.6
		V219.3z M407.6,99.1H111.7c-10.5,0-19.1,8.5-19.1,19.1v133.1h334.1V118.2C426.7,107.7,418.2,99.1,407.6,99.1z M251.2,142.3h-18.9
		c-7.1,0-12.9,5.8-12.9,12.9c0,7.1,5.8,12.9,12.9,12.9h18.9v51.2H124.6v-88.2h126.6V142.3z M394.7,219.3H267.1v-51.2H284
		c7.1,0,12.9-5.8,12.9-12.9c0-7.1-5.8-12.9-12.9-12.9h-16.9v-11.2h127.6V219.3z M410.7,389.1c-9.5,0-17.3,7.7-17.3,17.1
		s7.8,17.1,17.3,17.1c9.5,0,17.3-7.7,17.3-17.1S420.3,389.1,410.7,389.1z M373.4,401.4c-6.2,0-11.1,4.8-11.1,10.9
		c0,6,5,10.9,11.1,10.9c6.2,0,11.1-4.9,11.1-10.9S379.6,401.4,373.4,401.4z M142.7,401.5c-6,0-10.9,4.9-10.9,10.9
		c0,6,4.9,10.9,10.9,10.9c6,0,10.9-4.9,10.9-10.9C153.7,406.4,148.7,401.5,142.7,401.5z M106.8,389.1c-9.4,0-17.1,7.7-17.1,17.1
		s7.7,17.1,17.1,17.1s17-7.7,17.1-17.1C124,396.8,116.3,389.1,106.8,389.1z"/>
</g>
</svg>
