<?xml version="1.0" encoding="utf-8"?>
<!-- Generator: Adobe Illustrator 21.1.0, SVG Export Plug-In . SVG Version: 6.00 Build 0)  -->
<svg version="1.1" id="Layer_3" xmlns="http://www.w3.org/2000/svg" xmlns:xlink="http://www.w3.org/1999/xlink" x="0px" y="0px"
	 viewBox="0 0 376.7 512" style="enable-background:new 0 0 376.7 512;" xml:space="preserve">
<g>
	<path d="M294.6,237.6c-14.5,0-26.4,11.8-26.4,26.4c0,14.5,11.8,26.4,26.4,26.4c14.5,0,26.4-11.8,26.4-26.4
		C320.9,249.4,309.1,237.6,294.6,237.6z"/>
	<path d="M223.1,290.3c14.5,0,26.4-11.8,26.4-26.4c0-14.5-11.8-26.4-26.4-26.4c-14.5,0-26.4,11.8-26.4,26.4
		C196.8,278.5,208.6,290.3,223.1,290.3z"/>
	<path d="M151.7,237.6c-14.5,0-26.4,11.8-26.4,26.4c0,14.5,11.8,26.4,26.4,26.4s26.4-11.8,26.4-26.4
		C178.1,249.4,166.2,237.6,151.7,237.6z"/>
	<path d="M80.3,237.6c-14.5,0-26.4,11.8-26.4,26.4c0,14.5,11.8,26.4,26.4,26.4s26.4-11.8,26.4-26.4
		C106.6,249.4,94.8,237.6,80.3,237.6z"/>
	<path d="M294.6,318.7c-14.5,0-26.4,11.8-26.4,26.4s11.8,26.4,26.4,26.4c14.5,0,26.4-11.8,26.4-26.4S309.1,318.7,294.6,318.7z"/>
	<path d="M223.1,371.4c14.5,0,26.4-11.8,26.4-26.4s-11.8-26.4-26.4-26.4c-14.5,0-26.4,11.8-26.4,26.4S208.6,371.4,223.1,371.4z"/>
	<path d="M151.7,318.7c-14.5,0-26.4,11.8-26.4,26.4s11.8,26.4,26.4,26.4s26.4-11.8,26.4-26.4S166.2,318.7,151.7,318.7z"/>
	<path d="M80.3,318.7c-14.5,0-26.4,11.8-26.4,26.4s11.8,26.4,26.4,26.4s26.4-11.8,26.4-26.4S94.8,318.7,80.3,318.7z"/>
	<path d="M294.1,398.8h-70.6c-14.8,0-26.8,12-26.8,26.8s12,26.8,26.8,26.8h70.6c14.8,0,26.8-12,26.8-26.8S308.9,398.8,294.1,398.8z"
		/>
	<path d="M151.7,398.8c-14.5,0-26.4,11.8-26.4,26.4c0,14.5,11.8,26.4,26.4,26.4s26.4-11.8,26.4-26.4
		C178.1,410.7,166.2,398.8,151.7,398.8z"/>
	<path d="M80.3,398.8c-14.5,0-26.4,11.8-26.4,26.4c0,14.5,11.8,26.4,26.4,26.4s26.4-11.8,26.4-26.4
		C106.6,410.7,94.8,398.8,80.3,398.8z"/>
	<path d="M376.4,0.5V0H-1.7v0.5v31.8v100.1v32.3v315.6v32.3h32.3h313.8h32h0.3V0.5H376.4z M344.4,480.2H30.6V164.6h313.8V480.2z
		 M344.4,132.3H30.6V32.3h313.8V132.3z"/>
	<path d="M277.6,208.1H315c7,0,12.8-5.7,12.8-12.8c0-7-5.7-12.8-12.8-12.8h-37.4c-7,0-12.8,5.7-12.8,12.8
		C264.8,202.4,270.6,208.1,277.6,208.1z"/>
	<path d="M205.6,208.1H243c7,0,12.8-5.7,12.8-12.8c0-7-5.7-12.8-12.8-12.8h-37.4c-7,0-12.8,5.7-12.8,12.8
		C192.8,202.4,198.5,208.1,205.6,208.1z"/>
	<path d="M132.7,208.1h37.4c7,0,12.8-5.7,12.8-12.8c0-7-5.7-12.8-12.8-12.8h-37.4c-7,0-12.8,5.7-12.8,12.8
		C119.9,202.4,125.6,208.1,132.7,208.1z"/>
	<path d="M59.8,208.1h37.4c7,0,12.8-5.7,12.8-12.8c0-7-5.7-12.8-12.8-12.8H59.8c-7,0-12.8,5.7-12.8,12.8
		C47,202.4,52.8,208.1,59.8,208.1z"/>
</g>
</svg>
