<?xml version="1.0" encoding="utf-8"?>
<!-- Generator: Adobe Illustrator 19.0.0, SVG Export Plug-In . SVG Version: 6.00 Build 0)  -->
<svg version="1.1" id="Layer_5" xmlns="http://www.w3.org/2000/svg" xmlns:xlink="http://www.w3.org/1999/xlink" x="0px" y="0px"
	 viewBox="-137 0 449.1 512" style="enable-background:new -137 0 449.1 512;" xml:space="preserve">
<g id="_x33_2">
	<g>
		<path d="M245.5,263.2v42.6c0,5.9-4.8,10.7-10.7,10.7h-42.6c-5.9,0-10.7-4.8-10.7-10.7v-42.6c0-5.9,4.8-10.7,10.7-10.7h42.6
			C240.8,252.5,245.5,257.3,245.5,263.2z M-71.5,263.2c0-5.9,4.8-10.7,10.7-10.7h42.6c5.9,0,10.7,4.8,10.7,10.7v42.6
			c0,5.9-4.8,10.7-10.7,10.7h-42.6c-5.9,0-10.7-4.8-10.7-10.7V263.2z M-7.1,420.5c0,5.9-4.8,10.7-10.7,10.7h-42.6
			c-5.9,0-10.7-4.8-10.7-10.7v-42.6c0-5.9,4.8-10.7,10.7-10.7h42.6c5.9,0,10.7,4.8,10.7,10.7V420.5z M54.5,263.2
			c0-5.9,4.8-10.7,10.7-10.7h42.6c5.9,0,10.7,4.8,10.7,10.7v42.6c0,5.9-4.8,10.7-10.7,10.7H65.2c-5.9,0-10.7-4.8-10.7-10.7V263.2z
			 M245.9,420.5c0,5.9-4.8,10.7-10.7,10.7H65.6c-5.9,0-10.7-4.8-10.7-10.7v-42.6c0-5.9,4.8-10.7,10.7-10.7h169.6
			c5.9,0,10.7,4.8,10.7,10.7V420.5z"/>
	</g>
	<path d="M280,480h-385V32h385V480z M-137,8v496c0,4.4,3.6,8,8,8h433c4.4,0,8-3.6,8-8V8c0-4.4-3.6-8-8-8h-433
		C-133.4,0-137,3.6-137,8z"/>
	<path d="M213.8,169.5h-253v-71h253V169.5z M-71.2,66.5v135h317v-135H-71.2z"/>
</g>
</svg>
