<?xml version="1.0" encoding="utf-8"?>
<!-- Generator: Adobe Illustrator 22.0.1, SVG Export Plug-In . SVG Version: 6.00 Build 0)  -->
<svg version="1.1" id="Layer_2_1_" xmlns="http://www.w3.org/2000/svg" xmlns:xlink="http://www.w3.org/1999/xlink" x="0px" y="0px"
	 viewBox="0 0 512 512" style="enable-background:new 0 0 512 512;" xml:space="preserve">
<g>
	<path d="M279.3,370h-46c-3.3,0-6,2.7-6,6v44c0,3.3,2.7,6,6,6h46c3.3,0,6-2.7,6-6v-44C285.3,372.7,282.6,370,279.3,370z M150.3,370
		h-46c-3.3,0-6,2.7-6,6v44c0,3.3,2.7,6,6,6h46c3.3,0,6-2.7,6-6v-44C156.3,372.7,153.6,370,150.3,370z M407.7,243H104.3
		c-3.3,0-6,2.7-6,6v44c0,3.3,2.7,6,6,6h303.4c3.3,0,6-2.7,6-6v-44C413.7,245.7,411,243,407.7,243z"/>
	<path d="M427.9,52.9V28c0-15.4-12.5-28-28-28s-28,12.5-28,28v24.9h-235V28c0-15.4-12.5-28-28-28C93.5,0,81,12.5,81,28v24.9L0,53
		v459.1h452.4l59.7-59.4l0.1-399.8C512.2,52.9,427.9,52.9,427.9,52.9z M438.8,480.2l0.1-40.8l40.7,0.2L438.8,480.2z M479.7,407.2
		l-72.9,0.1v72.6L32,480.3V189h448L479.7,407.2z M31.9,157V84.9h49V102c0,15.5,12.5,28,28,28s28-12.5,28-28V84.9h235V102
		c0,15.5,12.5,28,28,28s28-12.5,28-28V84.9h51.7L480,157H31.9z"/>
</g>
</svg>
