<?xml version="1.0" encoding="utf-8"?>
<!-- Generator: Adobe Illustrator 22.0.1, SVG Export Plug-In . SVG Version: 6.00 Build 0)  -->
<svg version="1.1" id="Layer_2_1_" xmlns="http://www.w3.org/2000/svg" xmlns:xlink="http://www.w3.org/1999/xlink" x="0px" y="0px"
	 viewBox="0 0 512 512" style="enable-background:new 0 0 512 512;" xml:space="preserve">
<g>
	<path d="M417.5,52.9V15.9c0-8.8-7.2-16-16-16h0c-8.8,0-16,7.2-16,16v36.9l-258.9,0.1v-37c0-8.8-7.2-16-16-16h0c-8.8,0-16,7.2-16,16
		v37l-95,0V512h452.4l59.7-59.4l0.1-399.8L417.5,52.9z M438.5,480.2l0.1-40.8l40.7,0.2L438.5,480.2z M479.4,407.2l-72.9,0.1v72.6
		l-374.8,0.4V189h448L479.4,407.2z M31.6,157V84.9h63V114c0,8.8,7.2,16,16,16c8.8,0,16-7.2,16-16V84.9h258.9V114c0,8.8,7.2,16,16,16
		c8.8,0,16-7.2,16-16V84.9h61.8l0.4,72.1H31.6z"/>
	<path d="M289,269.7c1.1,0.8,2.3,1.6,3.4,2.4s2.1,1.5,3.1,2.1l-72.9,105.3c-1-0.6-2.1-1.2-3.2-1.9c-1.2-0.8-2.3-1.5-3.3-2.3
		L289,269.7 M284.5,229.7l-98.9,143.6c-0.8,1-1.8,2.4-1.6,2.7c1.5,6.9,9.4,16.6,21.5,24.1c9.1,5.7,17.8,8.7,24.8,9
		c0.2,0,0.3,0,0.5,0s0.4,0,0.6,0c0.2,0,0.4,0,0.6,0c0.1,0,0.2,0,0.3,0c2,0,2.7-1.1,3.7-2.5l98.3-142.1h-0.1c-3.7,0-14.7-5.7-26.8-14
		C294.2,241.4,284.5,232.5,284.5,229.7L284.5,229.7z"/>
	<path d="M190.5,418.4c-0.1-1.7,1.4-17.7,1.4-17.7c-3.3-2.6-7.1-8.1-11.2-16.2l-2.2,52.4l47.8-21.5c-8.5-0.7-14.7-2.4-18.5-5
		C207.7,410.5,195.8,416.9,190.5,418.4z"/>
	<path d="M313,241.8c-13.7-9.5-26-15.5-27.5-13.5l0,0l0,0c-1.4,2.1,8.6,11.5,22.3,21c13.8,9.5,26.1,15.5,27.5,13.5
		C336.8,260.7,326.8,251.3,313,241.8z M314.9,248.7c-0.3,0.4-2.5-0.7-5-2.4s-4.3-3.4-4.1-3.8c0.3-0.4,2.5,0.7,5,2.4
		C313.4,246.7,315.2,248.3,314.9,248.7z"/>
</g>
</svg>
