<?xml version="1.0" encoding="utf-8"?>
<!-- Generator: Adobe Illustrator 22.0.1, SVG Export Plug-In . SVG Version: 6.00 Build 0)  -->
<svg version="1.1" id="Layer_2_1_" xmlns="http://www.w3.org/2000/svg" xmlns:xlink="http://www.w3.org/1999/xlink" x="0px" y="0px"
	 viewBox="0 0 512 512" style="enable-background:new 0 0 512 512;" xml:space="preserve">
<g id="_x33_2">
	<path d="M418.1,52.9V15.9c0-8.8-7.2-16-16-16h0c-8.8,0-16,7.2-16,16v36.9l-258.9,0.1v-37c0-8.8-7.2-16-16-16h0c-8.8,0-16,7.2-16,16
		v37l-95,0V512h452.4l59.7-59.4l0.1-399.8L418.1,52.9z M439,480.2l0.1-40.8l40.7,0.2L439,480.2z M479.9,407.2l-72.9,0.1v72.6
		l-374.8,0.4V189h448L479.9,407.2z M32.1,157V84.9h63V114c0,8.8,7.2,16,16,16c8.8,0,16-7.2,16-16V84.9h258.9V114c0,8.8,7.2,16,16,16
		c8.8,0,16-7.2,16-16V84.9h61.8l0.4,72.1H32.1z"/>
	<path d="M256.4,272.5l9.5,19.1c7.1,14.4,20.9,24.4,36.8,26.6l20.9,3L308.4,336l0,0l0,0c-11.6,11.3-16.8,27.6-14,43.5l3.6,20.7
		l-18.9-9.9c-7-3.7-14.8-5.6-22.7-5.6c-7.8,0-15.7,1.9-22.6,5.5h-0.1h-0.1l-18.8,9.9l3.6-21.1c2.7-15.8-2.6-32-14.1-43.2L189.1,321
		l21-3c15.9-2.3,29.7-12.3,36.9-26.7L256.4,272.5 M256.3,212.3c-3.4,0-6.8,1.8-8.5,5.3l-29.5,59.8c-2.5,5-7.2,8.4-12.7,9.2
		l-66.1,9.6c-7.8,1.1-10.9,10.7-5.3,16.2L182,359c4,3.9,5.8,9.5,4.9,14.9l-11.2,65.9c-1,6.2,3.8,11.1,9.4,11.1c1.5,0,3-0.4,4.5-1.1
		l59-31c2.5-1.3,5.2-1.9,7.9-1.9c2.7,0,5.4,0.6,7.8,1.9l59.4,31c1.5,0.8,3,1.1,4.5,1.1c5.6,0,10.5-5,9.3-11.2L326,374
		c-1-5.5,0.8-11.1,4.9-15l47.9-46.6c5.7-5.5,2.6-15.2-5.3-16.3l-66.1-9.6c-5.5-0.8-10.3-4.2-12.7-9.2L265,217.5
		C263.1,214.1,259.7,212.3,256.3,212.3L256.3,212.3z"/>
</g>
</svg>
