<?xml version="1.0" encoding="utf-8"?>
<!-- Generator: Adobe Illustrator 22.0.1, SVG Export Plug-In . SVG Version: 6.00 Build 0)  -->
<svg version="1.1" id="Layer_2_1_" xmlns="http://www.w3.org/2000/svg" xmlns:xlink="http://www.w3.org/1999/xlink" x="0px" y="0px"
	 viewBox="0 0 512 512" style="enable-background:new 0 0 512 512;" xml:space="preserve">
<g>
	<path d="M407.7,243h-46c-3.3,0-6,2.7-6,6v44c0,3.3,2.7,6,6,6h46c3.3,0,6-2.7,6-6v-44C413.7,245.7,411,243,407.7,243z M279.3,370
		h-46c-3.3,0-6,2.7-6,6v44c0,3.3,2.7,6,6,6h46c3.3,0,6-2.7,6-6v-44C285.3,372.7,282.6,370,279.3,370z M279.3,243h-46
		c-3.3,0-6,2.7-6,6v44c0,3.3,2.7,6,6,6h46c3.3,0,6-2.7,6-6v-44C285.3,245.7,282.6,243,279.3,243z M150.3,370h-46c-3.3,0-6,2.7-6,6
		v44c0,3.3,2.7,6,6,6h46c3.3,0,6-2.7,6-6v-44C156.3,372.7,153.6,370,150.3,370z M150.3,243h-46c-3.3,0-6,2.7-6,6v44c0,3.3,2.7,6,6,6
		h46c3.3,0,6-2.7,6-6v-44C156.3,245.7,153.6,243,150.3,243z"/>
	<path d="M418,52.9V16c0-8.8-7.2-16-16-16h0c-8.8,0-16,7.2-16,16v36.9L127.1,53V16c0-8.8-7.2-16-16-16h0c-8.8,0-16,7.2-16,16v37
		l-95,0v459.1h452.4l59.7-59.4l0.1-399.8L418,52.9z M439,480.2l0.1-40.8l40.7,0.2L439,480.2z M479.9,407.2l-72.9,0.1v72.6
		l-374.8,0.4V189h448L479.9,407.2z M32.1,157V84.9h63V114c0,8.8,7.2,16,16,16c8.8,0,16-7.2,16-16V84.9H386V114c0,8.8,7.2,16,16,16
		c8.8,0,16-7.2,16-16V84.9h61.8l0.4,72.1H32.1z"/>
</g>
</svg>
