<?xml version="1.0" encoding="utf-8"?>
<!-- Generator: Adobe Illustrator 22.0.1, SVG Export Plug-In . SVG Version: 6.00 Build 0)  -->
<svg version="1.1" id="Layer_2_1_" xmlns="http://www.w3.org/2000/svg" xmlns:xlink="http://www.w3.org/1999/xlink" x="0px" y="0px"
	 viewBox="0 0 512 512" style="enable-background:new 0 0 512 512;" xml:space="preserve">
<g>
	<path d="M417.8,52.9V15.9c0-8.8-7.2-16-16-16h0c-8.8,0-16,7.2-16,16v36.9l-258.9,0.1v-37c0-8.8-7.2-16-16-16h0c-8.8,0-16,7.2-16,16
		v37L0,53V512h452.4l59.7-59.4l0.1-399.8L417.8,52.9z M438.8,480.2l0.1-40.8l40.7,0.2L438.8,480.2z M479.7,407.2l-72.9,0.1v72.6
		L32,480.3V189h448L479.7,407.2z M31.9,157V84.9h63V114c0,8.8,7.2,16,16,16c8.8,0,16-7.2,16-16V84.9h258.9V114c0,8.8,7.2,16,16,16
		c8.8,0,16-7.2,16-16V84.9h61.8L480,157H31.9z"/>
	<path d="M363.3,318.4h-91.9v-90.8h-33v90.8h-89.8v30.9h89.8v93h33v-93h91.9V318.4z"/>
</g>
</svg>
