<?xml version="1.0" encoding="utf-8"?>
<!-- Generator: Adobe Illustrator 22.0.1, SVG Export Plug-In . SVG Version: 6.00 Build 0)  -->
<svg version="1.1" id="Layer_2_1_" xmlns="http://www.w3.org/2000/svg" xmlns:xlink="http://www.w3.org/1999/xlink" x="0px" y="0px"
	 viewBox="0 0 512 512" style="enable-background:new 0 0 512 512;" xml:space="preserve">
<g>
	<path d="M418.1,52.9V16c0-8.8-7.2-16-16-16h0c-8.8,0-16,7.2-16,16v36.9L127.3,53V16c0-8.8-7.2-16-16-16h0c-8.8,0-16,7.2-16,16v37
		l-95,0v459.1h452.4l59.7-59.4l0.1-399.8L418.1,52.9z M439.1,480.2l0.1-40.8l40.7,0.2L439.1,480.2z M480,407.2l-72.9,0.1v72.6
		l-374.8,0.4V189h448L480,407.2z M32.2,157V84.9h63V114c0,8.8,7.2,16,16,16c8.8,0,16-7.2,16-16V84.9h258.9V114c0,8.8,7.2,16,16,16
		c8.8,0,16-7.2,16-16V84.9h61.8l0.4,72.1H32.2z"/>
	<path d="M256.4,434.5c-13.5,0-24.5-11-24.5-24.5s11-24.5,24.5-24.5s24.5,11,24.5,24.5C280.8,423.5,269.9,434.5,256.4,434.5z"/>
	<path d="M263,371.7h-13L230.9,257c-2.6-15.5,9.4-29.7,25.2-29.7l0,0c15.7,0,27.7,14,25.2,29.5L263,371.7z"/>
</g>
</svg>
