<?xml version="1.0" encoding="utf-8"?>
<!-- Generator: Adobe Illustrator 22.0.1, SVG Export Plug-In . SVG Version: 6.00 Build 0)  -->
<svg version="1.1" id="Layer_2_1_" xmlns="http://www.w3.org/2000/svg" xmlns:xlink="http://www.w3.org/1999/xlink" x="0px" y="0px"
	 viewBox="0 0 512 512" style="enable-background:new 0 0 512 512;" xml:space="preserve">
<g>
	<path d="M417.7,52.9V15.9c0-8.8-7.2-16-16-16h0c-8.8,0-16,7.2-16,16v36.9l-258.9,0.1v-37c0-8.8-7.2-16-16-16h0c-8.8,0-16,7.2-16,16
		v37l-95,0V512h452.4l59.7-59.4L512,52.9L417.7,52.9z M438.6,480.2l0.1-40.8l40.7,0.2L438.6,480.2z M479.6,407.2l-72.9,0.1v72.6
		l-374.8,0.4V189h448L479.6,407.2z M31.8,157V84.9h63V114c0,8.8,7.2,16,16,16c8.8,0,16-7.2,16-16V84.9h258.9V114c0,8.8,7.2,16,16,16
		c8.8,0,16-7.2,16-16V84.9h61.8l0.4,72.1H31.8z"/>
	<rect x="141.9" y="303.5" width="231.1" height="32"/>
</g>
</svg>
