<?xml version="1.0" encoding="utf-8"?>
<!-- Generator: Adobe Illustrator 21.1.0, SVG Export Plug-In . SVG Version: 6.00 Build 0)  -->
<svg version="1.1" id="Layer_1" xmlns="http://www.w3.org/2000/svg" xmlns:xlink="http://www.w3.org/1999/xlink" x="0px" y="0px"
	 viewBox="0 0 441 512" style="enable-background:new 0 0 441 512;" xml:space="preserve">
<style type="text/css">
	.st0{fill:none;}
</style>
<g>
	<path class="st0" d="M325.1,364.1c-31.8-12.4-64.7-21.2-65-41c-1.2-1.9-17-11.7-17-38c0-4.7,0.2-8.7,0.5-12
		c-10,4.6-25.1-0.4-25.1-12.1c0-12.5,18.7-18.7,29.3-9.3c2.1-0.5,4.2-0.9,6.3-1.3c13.6-16.4,41-55.6,41-105.2
		c0-66-30.6-84.9-74.5-84.9s-74.5,18.8-74.5,84.9c0,66,49,113.5,49,113.5s3,6.4,3,26.5c0,26.1-15,36.9-16,38
		c-3.3,21.9-35.2,28-69,41c-40.5,15.6-81,34.9-81,65c0,55.2,178.5,54,188,54s189,1.4,189-54C409.1,397.8,366.5,380.2,325.1,364.1z"
		/>
	<path d="M352.7,341c-27.5-13.3-61.8-25-61.8-25c1.3-7-11.3-19.5-15.8-24v-18.3c0,0,5.6-6.2,13.1-16.8c36.2-7.9,66.2-18.7,66.2-53
		v-9.2c4.1-1.7,7-4.8,8.1-8.5c22.2-0.4,20-15.1,20-33.3s2.2-32.9-20-33.3c-1.1-3.5-3.8-6.4-7.6-8.2C355,51.3,297.7,0.1,220.7,0.1
		S85.2,51.1,85.2,111.5c-3.8,1.8-6.4,4.7-7.5,8.2c-22.2,0.4-20,15.1-20,33.3s-2.2,33,20,33.3c1.8,5.8,7.8,10.1,15.4,10.1
		c9,0,16.2-5.9,16.2-13.3v-60.3c0-4.2-2.5-7.7-6.2-10.2c0.1-0.5-10.4-1-10.3-1.5c7.6-59.2,61.2-97.8,127.9-97.8
		S340,51.5,347.2,110.7c0.1,0.6-10.4,1.2-10.3,1.9c-9.6,6.4-6.1,11.8-6.1,70.4c0,4.6,3,8.4,7.3,10.8v10.1c0,21.5-16,30.6-39.5,36.8
		c11.7-19.7,24.1-46.8,27.4-76.8c0.3-2.1,20.8-136-105-136c-126.3,0-106.3,133.9-106,136c6.8,61.3,51,110,51,110v19
		c-14,13.2-16.8,23.7-16.8,23.2c0,0-29,10.6-56.9,21.4S0,371.1,0,433.1c0,87.9,220.7,81.7,220.7,81.7S441,522.3,441,433.6
		C441.1,367.6,380.3,354.3,352.7,341z M220.1,483.1c-9.5,0-188,1.2-188-54c0-30.1,40.5-49.4,81-65c33.8-13,65.7-19.1,69-41
		c1-1.1,16-11.9,16-38c0-20.1-3-26.5-3-26.5s-49-47.5-49-113.5c0-66.1,30.6-84.9,74.5-84.9s74.5,19,74.5,84.9
		c0,49.6-27.4,88.8-41,105.2c-2.1,0.4-4.2,0.9-6.3,1.3c-10.6-9.4-29.3-3.2-29.3,9.3c0,11.7,15.1,16.7,25.1,12.1
		c-0.3,3.3-0.5,7.3-0.5,12c0,26.3,15.8,36.1,17,38c0.3,19.8,33.2,28.6,65,41c41.4,16.1,84,33.7,84,65
		C409.1,484.4,229.6,483.1,220.1,483.1z"/>
</g>
</svg>
