<?xml version="1.0" encoding="utf-8"?>
<!-- Generator: Adobe Illustrator 21.1.0, SVG Export Plug-In . SVG Version: 6.00 Build 0)  -->
<svg version="1.1" id="_x33_2" xmlns="http://www.w3.org/2000/svg" xmlns:xlink="http://www.w3.org/1999/xlink" x="0px" y="0px"
	 viewBox="0 0 670.6 512" style="enable-background:new 0 0 670.6 512;" xml:space="preserve">
<g id="_x33_2_1_">
	<path d="M250.6,361.9c-52.2-12.4-98-31.7-151.3-84.2C60.8,237.2,47.6,120.9,164.4,59V23C-30.2,101.8-0.9,251.1,5.1,273.3
		c6,22.2,25.7,155.2,238,200.3l-2.9,37.9l87.6-96.3l-77.1-95.5L250.6,361.9L250.6,361.9z M245.8,435.8c0,0-0.2,0-0.2,0
		c-71.7-15.4-123.2-42.6-169-81.1c-15.2-13.3-101-116.9-13.7-223.5C7.4,282.5,121.2,370.4,247.5,400.1c0.1,0,0.2,0,0.2,0
		L245.8,435.8z"/>
	<path d="M669.7,220.7c-2-26.9-5-101.9-96.2-166.9L580.9,0l-85.2,39.8l63.7,88.5l4.5-32.8c56.4,69.2,61.9,217-144.5,272.5v120.7
		C650.9,434.1,676.4,281.4,669.7,220.7z M617.8,328.4l-0.1,0.1l-0.1,0.1c-9.3,12.8-56.1,78.5-177.2,113.4v-39.5
		c56.1-18.3,99.1-44.9,131.5-80.9c11.1-12.5,46.2-56.8,46.2-130.3c0-18.1-2.2-38.1-7.3-59.6C685.6,230.3,628.9,313.4,617.8,328.4z"
		/>
	<path d="M354.1,164.8c-1.2-1.4-3.2-1.6-4.6-0.4v0.1c-4.1,3.2-6.4,8.2-6.4,13.4c0,1.8,1.5,3.2,3.2,3.2c1.8,0,3.2-1.5,3.2-3.2
		c0-3.2,1.4-6.1,3.9-8.1c0.1-0.1,0.1-0.1,0.2-0.2C355,168.3,355.2,166.3,354.1,164.8C354.1,164.8,354.1,164.8,354.1,164.8z
		 M403.6,176.5c0-25.8-20.9-46.7-46.6-46.7s-46.6,20.9-46.6,46.7s20.9,46.7,46.6,46.7S403.6,202.3,403.6,176.5z M334.7,176.2
		c0-12.3,10-22.2,22.2-22.2s22.2,10,22.2,22.2s-10,22.2-22.2,22.2S334.7,188.5,334.7,176.2z M254.9,44c0-4.6-3.7-8.3-8.3-8.3h-19.9
		c-4.6,0-8.3,3.7-8.3,8.3s0,5.4,0,5.4h36.5C254.9,49.3,254.9,48.6,254.9,44z M431.2,35.7h-19.9c-4.6,0-8.3,13.7-8.3,13.7h36.5
		C439.5,49.3,435.8,35.7,431.2,35.7z M212.4,296.7h238.9c14.4,0,25.9-11.6,25.9-26V79.5c0-14.3-11.6-26-25.9-26H212.4
		c-14.4,0-25.9,11.6-25.9,26v88.5h96.8c3.8-36.8,34.8-65.5,72.6-65.5c40.2,0,72.9,32.7,72.9,73s-32.7,73-72.9,73
		c-37.9,0-69-29-72.6-66h-96.8v88.2C186.6,285.1,198.2,296.7,212.4,296.7z M202.9,198.9h66.9c10.3,38.5,45.1,66,86.2,66
		c49.2,0,89.3-40.2,89.3-89.4c0-49.3-40.1-89.4-89.3-89.4c-40.8,0-75.6,27.3-86,65.5h-67V79.5c0-5.3,4.3-9.6,9.6-9.6h238.9
		c5.3,0,9.6,4.3,9.6,9.6v191.3c0,5.3-4.3,9.6-9.6,9.6h-239c-5.3,0-9.6-4.3-9.6-9.6L202.9,198.9L202.9,198.9z M234.3,88.5
		c-4.6,0-8.2,3.7-8.2,8.2s3.7,8.2,8.2,8.2c4.6,0,8.2-3.7,8.2-8.2S238.8,88.5,234.3,88.5z M273.8,88.5H254c-4.6,0-8.2,3.7-8.2,8.2
		s3.7,8.2,8.2,8.2h19.7c4.6,0,8.2-3.7,8.2-8.2S278.2,88.5,273.8,88.5z"/>
</g>
</svg>
