<?xml version="1.0" encoding="utf-8"?>
<!-- Generator: Adobe Illustrator 21.1.0, SVG Export Plug-In . SVG Version: 6.00 Build 0)  -->
<svg version="1.1" id="_x33_2" xmlns="http://www.w3.org/2000/svg" xmlns:xlink="http://www.w3.org/1999/xlink" x="0px" y="0px"
	 viewBox="0 0 494.9 512" style="enable-background:new 0 0 494.9 512;" xml:space="preserve">
<g>
	<path d="M457.4,195.8H310.5l8.2-81.8c0-0.2-0.2-0.3-0.2-0.5H340c4.6,0,8.3-3.7,8.3-8.3V9.3c0-4.6-3.8-8.3-8.3-8.3H151.9
		c-4.6,0-8.3,3.7-8.3,8.3v95.8c0,4.6,3.8,8.3,8.3,8.3h21.7c0,0.2-0.2,0.3-0.2,0.5l8,80.8H38.8C17.3,194.8,0,212.1,0,233.5l0,110.8
		h243.9c5-48.9,46.9-86.9,97.5-85.7c51,1.2,92.3,43,93.3,94c0.9,53.5-42.3,97.2-95.6,97.2c-49.8,0-90.5-37.9-95.2-86.4H0l0.1,109.8
		C0.1,494.7,17.6,512,39,512h417.6c21.2,0,38.4-17.2,38.4-38.4V233.3C495,212.5,478.2,195.8,457.4,195.8z M191.5,117.5h109.6
		l-7,73.3h-95.7L191.5,117.5z M159.6,104.4L159.6,104.4c-3.9,0.1-7-3.1-7-7V16.1c0-3.8,3.1-7.1,7-7.1h173.7c3.9,0,7,3.2,7,7.1v81.3
		c0,3.9-3.1,7-7,7H159.6z M473.9,478.4c0,6.9-5.6,12.5-12.5,12.5H33.6c-6.9,0-12.5-5.6-12.5-12.5v-93.9h203.5
		c13.4,50.5,58.7,86.6,112.4,86.6c64.2,0,116.5-52.7,116.5-117.6c-0.1-63.8-51.2-116.4-115-117.2c-53.8-0.7-99.9,35.4-113.7,85.9
		H21.1v-92.9c0-6.9,5.6-12.5,12.5-12.5h427.7c6.9,0,12.5,5.6,12.5,12.5L473.9,478.4L473.9,478.4z"/>
	<path d="M335.3,340c-1.5-1.8-4.2-2.1-6-0.5v0.1c-5.2,4.2-8.3,10.6-8.3,17.4c0,2.4,1.9,4.2,4.2,4.2c2.4,0,4.2-1.9,4.2-4.2
		c0-4.1,1.9-8,5.1-10.5c0.1-0.1,0.1-0.1,0.2-0.2C336.5,344.5,336.8,341.9,335.3,340L335.3,340z"/>
	<path d="M399.4,355.2c0-33.6-27.2-60.8-60.8-60.8s-60.8,27.2-60.8,60.8s27.2,60.8,60.8,60.8S399.4,388.8,399.4,355.2z M309.5,354.8
		c0-16,13-28.9,28.9-28.9s28.9,13,28.9,28.9s-13,28.9-28.9,28.9C322.6,383.8,309.5,370.8,309.5,354.8z"/>
	<path d="M90.1,168.7l-29.5,0c-6.8,0-12.3,5.5-12.3,12.3v7.7h54.2c0,0,0-1.2,0-7.7C102.4,174.2,96.9,168.7,90.1,168.7z"/>
	<path d="M426.7,168.7h-29.3c-6.7,0-12.2,20.1-12.2,20.1h53.7C438.9,188.7,433.5,168.7,426.7,168.7z"/>
	<path d="M61.9,263.8c-6.8,0-12.2-5.5-12.2-12.2c0-6.7,5.5-12.2,12.2-12.2c6.8,0,12.2,5.5,12.2,12.2
		C74.2,258.3,68.8,263.8,61.9,263.8z"/>
	<path d="M132.7,252.3c-0.2,6.6-5.9,11.8-12.5,11.8H91.7c-6.8,0-12.2-5.6-12-12.3c0.2-6.6,5.9-11.8,12.5-11.8h28.5
		C127.4,239.9,132.8,245.5,132.7,252.3z"/>
	<path d="M160.6,23.1l171.2,0c1.8,0,3.8-1.4,4.3-3.2c0.8-3.1-1.3-5.9-4.1-5.9l-171.2,0c-1.8,0-3.8,1.4-4.3,3.2
		C155.7,20.3,157.8,23.1,160.6,23.1z"/>
	<path d="M160.6,36.1l171.2,0c1.8,0,3.8-1.4,4.3-3.2c0.8-3.1-1.3-5.9-4.1-5.9l-171.1,0c-1.7,0-3.3,0.9-4,2.4
		C155.3,32.7,157.5,36.1,160.6,36.1z"/>
	<path d="M160.6,49.2l171.2,0c1.8,0,3.8-1.4,4.3-3.2c0.8-3.1-1.3-5.9-4.1-5.9l-171.2,0c-1.8,0-3.8,1.4-4.3,3.2
		C155.7,46.4,157.8,49.2,160.6,49.2z"/>
	<path d="M160.6,63.2L332,62.2c2.8,0,4.9-2.6,4.2-5.7c-0.3-1.4-1.6-2.3-3-2.3l-172.7,0c-1.5,0-3.2,1.1-3.7,2.5
		C155.4,60.1,157.6,63.2,160.6,63.2z"/>
	<path d="M160.6,76.3l171.4-1c2.4,0,4.3-2,4.3-4.5c0-2.5-1.9-4.5-4.3-4.5l-171.4,1c-2.4,0-4.3,2-4.3,4.5
		C156.3,74.3,158.2,76.3,160.6,76.3z"/>
	<path d="M160.6,89.3l171.4-1c2.4,0,4.3-2,4.3-4.5c0-2.5-1.9-4.5-4.3-4.5l-171.4,1c-2.4,0-4.3,2-4.3,4.5
		C156.3,87.4,158.2,89.3,160.6,89.3z"/>
	<path d="M336.3,96.9c0-2.5-1.9-4.5-4.3-4.5l-171.4,1c-2.4,0-4.3,2-4.3,4.5c0,2.5,1.9,4.5,4.3,4.5l171.4-1
		C334.4,101.2,336.3,99.3,336.3,96.9z"/>
</g>
</svg>
