<?xml version="1.0" encoding="utf-8"?>
<!-- Generator: Adobe Illustrator 21.1.0, SVG Export Plug-In . SVG Version: 6.00 Build 0)  -->
<svg version="1.1" id="Layer_1" xmlns="http://www.w3.org/2000/svg" xmlns:xlink="http://www.w3.org/1999/xlink" x="0px" y="0px"
	 viewBox="0 0 651.6 512" style="enable-background:new 0 0 651.6 512;" xml:space="preserve">
<g>
	<path d="M323,115.2L197.5,92.8c-2.9-0.5-5.3,2.1-5.3,5.9c0,3.8,2.3,7.3,5.2,7.8l125.5,22.4c2.9,0.5,5.3-2.1,5.3-5.9
		C328.2,119.2,325.9,115.8,323,115.2z"/>
	<path d="M267.2,158.1l-59.9-10.7c-2.9-0.5-5.3,2.1-5.3,5.9c0,3.8,2.3,7.3,5.2,7.8l59.9,10.7c2.9,0.5,5.3-2.1,5.3-5.9
		C272.5,162.1,270.1,158.6,267.2,158.1z"/>
	<path d="M648.3,325.9c-31.2-44.1-152-217.7-195.7-313.3c-4-10.9-12.6-11-18.7-9c-38.2,11.4-74.8,17.1-111.4,17.1
		c-39,0-77.9-6.4-118.7-18.8c-6-1.9-6-1.9-6-1.9L0,325l36.1,15.5v61.1c0,6.8,3.7,13.5,8.9,15.9l194.9,93.4c2,0.9,4.2,1.3,6.3,1.1
		l368.9-42.5c6.8-0.8,12.5-8.4,12.6-16.7l0.7-104.6c2.7,3.4,6.2,5,9.7,5c4,0,8-2.1,10.7-6.4c1.9-3,2.8-6.6,2.8-10.1
		C651.6,332.8,650.5,329,648.3,325.9z M217.8,466L62.3,391.5v-41.8l155.5,65.6V466z M199.7,373.6L44.6,308.1L209,37.9
		c70.5,20,136.4,21.2,206,4.5C366.6,169.6,300,261.7,199.7,373.6z M258.9,476.6V353.2c71.4-83.7,125.4-161.6,167-258v248.3
		c-2.1,48.1-34.5,101.7-45.7,119L258.9,476.6z M410.7,460.1c12.6-19.7,23.2-41.5,31.9-64.8c8.6,20.8,18.7,40.4,29.8,57.6
		L410.7,460.1z M599.9,437.1l-100.7,11.7c-12.6-19.6-40.6-60-45.5-111.5V81.1c41.2,79.5,89.3,150.3,147,230.4L599.9,437.1z"/>
</g>
</svg>
