<?xml version="1.0" encoding="utf-8"?>
<!-- Generator: Adobe Illustrator 19.0.0, SVG Export Plug-In . SVG Version: 6.00 Build 0)  -->
<svg version="1.1" id="Layer_3" xmlns="http://www.w3.org/2000/svg" xmlns:xlink="http://www.w3.org/1999/xlink" x="0px" y="0px"
	 viewBox="-213.5 0 278.6 512" style="enable-background:new -213.5 0 278.6 512;" xml:space="preserve">
<g id="_x33_2">
	<path d="M33.1,226.5v241.3C14.5,474.7-32.6,480-74.2,480c-28.4,0-77.1-2.7-107.3-12.2V226.5c16.5,5.4,68,9.9,107.3,9.9
		C-34.8,236.5-0.4,233,33.1,226.5L33.1,226.5z M-74.2,204.5c-76.9,0-139.3-13.4-139.3-29.8c0,8.2,0,307.5,0,307.5
		c0,16.4,62.4,29.8,139.3,29.8c76.9,0,139.3-13.4,139.3-29.8V174.7C64.7,190.4,2.7,204.5-74.2,204.5z"/>
	<path d="M-70.2,122.5c-0.1-0.3-0.3-1.5-0.7-3.2c20.7-5.8,35.9-28.5,28.1-54C-55.1,24.7-97.1,0-97.1,0s-14.6,38-20.8,68.3
		c-5.1,25.2,6,45,24.8,50.7c-0.3,2-0.5,3.4-0.5,3.8c-67.8,1.9-120,14.5-120,29.5c0,16.4,62.4,29.8,139.3,29.8s139.3-13.4,139.3-29.8
		C65.2,136.1,5,123-70.2,122.5z M-105.3,79.1c3.8-24.1,12.7-54.3,12.7-54.3s25.4,19.6,33,51.9c4,17.2-2.1,32.8-11.6,39.9
		c-2.1-10.6-6.2-32.2-6.4-40.3c-1.5-3.3-3.1-4.4-4.4-4.4c-2.7,0-4.7,4.4-4.7,4.4s-4.2,27.9-5.9,40.5
		C-102.6,111.3-108.2,97.5-105.3,79.1z M-74.2,159.1c-29.7,0-59.2-2.2-86.5-6.8c18-3.3,39.6-5.5,63.1-6.3l-1.3,7.1l33.8-0.8
		l-1.1-6.7c27.8,0.3,66.2,3.6,78.7,6.7C-9.5,156.3-44.5,159.1-74.2,159.1z"/>
</g>
</svg>
