<?xml version="1.0" encoding="utf-8"?>
<!-- Generator: Adobe Illustrator 21.1.0, SVG Export Plug-In . SVG Version: 6.00 Build 0)  -->
<svg version="1.1" id="Layer_1" xmlns="http://www.w3.org/2000/svg" xmlns:xlink="http://www.w3.org/1999/xlink" x="0px" y="0px"
	 viewBox="0 0 541.8 512" style="enable-background:new 0 0 541.8 512;" xml:space="preserve">
<g id="_x33_2">
	<path d="M0,266l0,124.2c0,66.5,54.4,120.9,120.9,119.4c64-1.5,115.1-53.7,115.1-118.1V266H0z M30,328c0-4.7,3.9-8.6,8.5-8.6
		c2.5,0,4.5,1,6,2.5c1.5,1.5,2.5,3.7,2.5,6v19.3c-0.1,5.1-4.1,9.1-9.1,9.1s-8.9-4.1-8.9-9.1l1-19.3V328z M99,471.6
		c-0.6,4-4.1,6.7-7.8,6.7c-1.3,0-2.6-0.3-3.8-1c-30.6-17-57.7-49-57.7-97.6c0-5.6,5.6-9.9,11.4-7.8c3.3,1.2,5.3,4.5,5.3,8
		c0,38.9,26.7,69.6,48.9,83.7C98,465.3,99.5,468.4,99,471.6z"/>
	<path d="M118,31L118,31c23.1,0.1,44.7,9,60.8,25.3c16.3,16.3,25.3,38,25.2,60.9v0.1v0.1V241H32V117.3c0-23.1,9-44.7,25.2-61
		C73.5,39.9,94.9,31,117.7,31l0,0 M117.7,0C86.3,0,56.7,12.3,34.6,34.6C12.2,56.8,0,86.5,0,117.9V273l236-1V117.9
		c0.1-31.5-12.2-61.1-34.6-83.4C179.2,12.3,149.5,0.1,118,0C117.9,0,117.8,0,117.7,0L117.7,0z"/>
	<path d="M496.5,413c-6.5,11.2-15,21.4-25,29.9c-20.6,17.5-46.9,27.1-74,27.1s-53.4-9.6-74-27.1c-10.1-8.5-18.5-18.7-25-29.9h197.6
		 M541.8,381H253.2c12.1,68.8,72.1,121,144.3,121S529.7,449.8,541.8,381L541.8,381z"/>
	<path d="M396.3,241c28.3,0,55.5,10.4,76.6,29.4c11.5,10.4,20.7,22.9,27.2,36.6H292.6c6.4-13.8,15.6-26.3,27.2-36.6
		C340.8,251.4,368,241,396.3,241 M396.3,209c-75.3,0-137.4,56.9-145.6,130h291.1C533.7,265.9,471.6,209,396.3,209L396.3,209z"/>
</g>
</svg>
