<?xml version="1.0" encoding="utf-8"?>
<!-- Generator: Adobe Illustrator 22.0.1, SVG Export Plug-In . SVG Version: 6.00 Build 0)  -->
<svg version="1.1" id="Layer_1" xmlns="http://www.w3.org/2000/svg" xmlns:xlink="http://www.w3.org/1999/xlink" x="0px" y="0px"
	 viewBox="0 0 510 512" style="enable-background:new 0 0 510 512;" xml:space="preserve">
<g>
	<g>
		<path d="M104,0L104,0C47.7,0,2,45.7,2,102v134v3v7v25v139c0,56.3,45.7,102,102,102h0c56.3,0,102-45.7,102-102V271v-25v-7v-3V102
			C206,45.7,160.3,0,104,0z M174,410c0,38.6-31.4,70-70,70c-38.6,0-70-31.4-70-70V271h140V410z M174,236v3H34v-3V102
			c0-38.6,31.4-70,70-70c38.6,0,70,31.4,70,70V236z"/>
	</g>
	<path d="M463.5,425c-6.5,11.2-15,21.4-25,29.9c-20.6,17.5-46.9,27.1-74,27.1s-53.4-9.6-74-27.1c-10.1-8.5-18.5-18.7-25-29.9H463.5
		 M508.8,393H220.2c12.1,68.8,72.1,121,144.3,121S496.7,461.8,508.8,393L508.8,393z"/>
	<path d="M364.5,253c28.3,0,55.5,10.4,76.6,29.4c11.5,10.4,20.7,22.9,27.2,36.6H260.8c6.4-13.8,15.6-26.3,27.2-36.6
		C309,263.4,336.2,253,364.5,253 M364.5,221c-75.3,0-137.4,56.9-145.6,130h291.1C501.9,277.9,439.8,221,364.5,221L364.5,221z"/>
</g>
</svg>
