<?xml version="1.0" encoding="utf-8"?>
<!-- Generator: Adobe Illustrator 22.0.1, SVG Export Plug-In . SVG Version: 6.00 Build 0)  -->
<svg version="1.1" id="Layer_1" xmlns="http://www.w3.org/2000/svg" xmlns:xlink="http://www.w3.org/1999/xlink" x="0px" y="0px"
	 viewBox="0 0 236.4 512" style="enable-background:new 0 0 236.4 512;" xml:space="preserve">
<style type="text/css">
	.st0{fill:#010101;}
</style>
<g id="_x33_2">
	<path class="st0" d="M0.1,266.4v125.5C0.1,457.2,52.9,510,118.2,510c65.4,0,118.1-52.8,118.1-118.1V266.4H0.1z M30,328.5
		c0-4.6,3.8-8.4,8.3-8.4c2.4,0,4.4,1,5.9,2.4c1.5,1.5,2.4,3.6,2.4,5.9v19.7c-0.1,4.7-3.8,8.4-8.4,8.4s-8.3-3.8-8.3-8.4L30,328.5
		L30,328.5z M99.1,472.2c-0.6,4-4.1,6.7-7.8,6.7c-1.3,0-2.6-0.3-3.8-1c-30.6-17-57.7-49-57.7-97.6c0-5.6,5.6-9.9,11.4-7.8
		c3.3,1.2,5.3,4.5,5.3,8c0,38.9,26.7,69.6,48.9,83.7C98.1,465.9,99.6,469,99.1,472.2z"/>
	<path d="M117.8,32h0.2c23.2,0.1,44.9,9,61,25.2c16.3,16.3,25.3,37.9,25.2,60.8v0.1v0.1v123.3H32V118.1c0-23,9-44.6,25.2-60.9
		C73.5,40.9,95,32,117.8,32L117.8,32 M117.8,0c-31.4,0-61,12.3-83.2,34.6C12.2,56.9,0,86.6,0,118.1v155.3l236.3-1V118.1
		c0.1-31.5-12.2-61.2-34.6-83.5c-22.3-22.3-52-34.5-83.6-34.6C118,0,117.9,0,117.8,0L117.8,0z"/>
</g>
</svg>
