<?xml version="1.0" encoding="utf-8"?>
<!-- Generator: Adobe Illustrator 21.1.0, SVG Export Plug-In . SVG Version: 6.00 Build 0)  -->
<svg version="1.1" id="Layer_4" xmlns="http://www.w3.org/2000/svg" xmlns:xlink="http://www.w3.org/1999/xlink" x="0px" y="0px"
	 viewBox="0 0 645 512" style="enable-background:new 0 0 645 512;" xml:space="preserve">
<g>
	<path d="M575.9,140h50.3c10.9,0,10-41-2-41H570v18h-5.9C556.2,67.8,511.2,0,449,0H195C133.5,0,87.8,67.8,79.9,117H74V99H19.7
		c-12.8,0-12.9,41-2,41h51.3C36.5,157.6,11.8,184.9,0,225.9c0,0,0,232,0,253.6C0,496.3,13.8,512,31.5,512h60
		c17.7,0,32.5-15.7,32.5-32.5V450h396v29.5c0,16.7,14.8,32.5,32.5,32.5h60c17.7,0,32.5-15.7,32.5-32.5V225.9
		C631.2,184.9,608.5,157.6,575.9,140z M197.1,32.4c39.6-1.8,82.5-2.7,125.4-2.7s85.9,0.9,125.4,2.7c39.5,3.6,73.7,60.2,78.2,98
		c-65.9,12.5-134,18.5-202.2,18.5c-69.4,0-138.8-6.3-206-18.5C123.4,92.6,156.6,36,197.1,32.4z M84.3,168l15.3-8.3l12.6,2.3
		c69.4,12.7,140.6,19.1,211.8,19.1c71.1,0,141.2-6.4,208.2-19.1l13-2.5l15.6,8.5c24.6,13.4,41.3,33.8,52.2,64v186H32V231.3
		C41.1,203,58.2,182.3,84.3,168z M91.1,480H32.3c-0.1-0.2-0.3-0.4-0.3-0.6V450h60v29.1C91.8,479.4,91.4,479.8,91.1,480z M612.1,480
		h-59.2c-0.3-0.2-0.7-0.6-0.9-0.9v-28.9V450h61v29.1C612.8,479.4,612.4,479.8,612.1,480z"/>
	<rect x="216" y="273" width="15" height="83"/>
	<rect x="257" y="273" width="15" height="83"/>
	<rect x="296" y="273" width="15" height="83"/>
	<rect x="334" y="273" width="15" height="83"/>
	<rect x="373" y="273" width="15" height="83"/>
	<rect x="414" y="273" width="15" height="83"/>
	<path d="M66.1,316h95.3c5.2-13.8,6-23.9-1.5-29.4c-8.2-6.4-75.2-43.2-97.5-43.2c-8.9,0-16.4,8.3-16.4,20.2V293
		C46,305.9,55.7,316,66.1,316z"/>
	<path d="M576.9,316c10.4,0,20.1-10.1,20.1-23v-29.4c0-12-7.4-20.2-16.4-20.2c-22.3,0-89.3,36.7-97.5,43.2
		c-7.4,5.5-6.7,15.6-1.5,29.4H576.9z"/>
	<path d="M57.1,404h52.5c2.9-7.6,3.3-13.2-0.8-16.2C104.2,384.3,67.3,364,55,364c-4.9,0-9,4.6-9,11.1v16.2
		C46,398.4,51.3,404,57.1,404z"/>
	<path d="M589,364c-12.3,0-49.2,20.2-53.7,23.8c-4.1,3-3.7,8.6-0.8,16.2h52.5c5.7,0,11.1-5.6,11.1-12.7v-16.2
		C598,368.6,593.9,364,589,364z"/>
	<path d="M150,375.3v3.4c0,0.7,0.6,1.3,1.3,1.3h343.4c0.7,0,1.3-0.6,1.3-1.3v-3.4c0-0.7-0.6-1.3-1.3-1.3H151.3
		C150.6,374,150,374.6,150,375.3z"/>
	<path d="M150.3,392h343.4c0.7,0,1.3-0.6,1.3-1.3v-3.4c0-0.7-0.6-1.3-1.3-1.3H150.3c-0.7,0-1.3,0.6-1.3,1.3v3.4
		C149,391.4,149.6,392,150.3,392z"/>
	<path d="M494.7,398H151.3c-0.7,0-1.3,0.6-1.3,1.3v3.4c0,0.7,0.6,1.3,1.3,1.3h343.4c0.7,0,1.3-0.6,1.3-1.3v-3.4
		C496,398.6,495.4,398,494.7,398z"/>
</g>
</svg>
