<?xml version="1.0" encoding="utf-8"?>
<!-- Generator: Adobe Illustrator 21.1.0, SVG Export Plug-In . SVG Version: 6.00 Build 0)  -->
<svg version="1.1" id="Layer_4" xmlns="http://www.w3.org/2000/svg" xmlns:xlink="http://www.w3.org/1999/xlink" x="0px" y="0px"
	 viewBox="0 0 559.1 512" style="enable-background:new 0 0 559.1 512;" xml:space="preserve">
<g>
	<path d="M38.8,487.2l-0.1-193.8c10.5-31.4,27.9-52.2,52.7-65.7l-38.5,0c-8.3,0-7.6-31.3,1.5-31.3l41.5,0l0,13.8l4.5,0
		c6-37.6,40.4-89.5,87.9-89.5l194.2-0.1c47,0,82,51.8,88,89.4l4.5,0l0-13.8l41.5,0c9.8,0,9.9,31.3,1.5,31.3l-39.2,0
		c24.9,13.4,43.8,34.3,52.8,65.6c0,0,0.1,177.3,0.1,193.8c0,12.8-10.5,24.8-24.1,24.8l-45.9,0c-13.5,0-24.8-12-24.8-24.8l0-22.6
		l-302.7,0.2l0,22.6c0,12.8-11.3,24.8-24.8,24.8l-45.9,0C50.1,512,38.8,500,38.8,487.2z M380.9,145.2c-30.2-1.4-63-2-95.9-2
		c-32.8,0-65.6,0.7-95.9,2.1c-30.2,2.8-56.3,46.1-59.7,74.9c50.4,9.5,102.5,14.1,154.5,14.1c53.1,0,106.1-4.9,157.4-14.3
		C437.3,191.2,411.9,147.9,380.9,145.2z M462.1,487.3l44.9,0c0.1-0.1,0.2-0.3,0.2-0.4l0-22.5l-45.9,0l0,22.2
		C461.6,486.8,461.9,487.1,462.1,487.3z M507.3,439.9l-0.1-142.7c-6.9-21.6-20-37.5-40-48.3l-11.7-6.4l-9.6,1.8
		c-53,9.7-107.5,14.6-161.8,14.7c-54.4,0-107.9-4.8-159.1-14.5l-10-1.9l-12,6.5c-18.8,10.3-31.5,25.9-39.9,48.9l0.1,142.2
		L507.3,439.9z M63.9,487.5l45.3,0c0.2-0.1,0.5-0.5,0.7-0.7l0-22.1l0-0.1l-46.6,0l0,22.2C63.4,487.1,63.7,487.4,63.9,487.5z"/>
	<rect x="355.1" y="329.1" width="11.5" height="63.4"/>
	<rect x="323.8" y="329.2" width="11.5" height="63.4"/>
	<rect x="294" y="329.2" width="11.5" height="63.4"/>
	<rect x="265" y="329.2" width="11.5" height="63.4"/>
	<rect x="235.1" y="329.2" width="11.5" height="63.4"/>
	<rect x="203.8" y="329.2" width="11.5" height="63.4"/>
	<path d="M409.5,339.5c6.3-4.9,57.4-33,74.5-33.1c6.8,0,12.5,6.3,12.5,15.4l0,22.5c0,9.8-7.4,17.6-15.4,17.6l-72.8,0
		C404.4,351.4,403.8,343.7,409.5,339.5z"/>
	<path d="M75.4,322.2c0-9.1,5.7-15.5,12.5-15.5c17.1,0,68.3,28,74.6,33c5.7,4.2,5.1,11.9,1.1,22.5l-72.8,0c-8,0-15.4-7.7-15.4-17.5
		L75.4,322.2z"/>
	<path d="M448.6,416.8c3.4-2.7,31.6-18.2,41.1-18.2c3.8,0,6.9,3.5,6.9,8.5l0,12.4c0,5.4-4.1,9.7-8.5,9.7l-40.1,0
		C445.8,423.4,445.5,419.2,448.6,416.8z"/>
	<path d="M74.7,419.8l0-12.4c0-5,3.1-8.5,6.9-8.5c9.4,0,37.6,15.5,41.1,18.2c3.1,2.3,2.8,6.6,0.6,12.4l-40.1,0
		C78.7,429.4,74.7,425.2,74.7,419.8z"/>
	<path d="M152.6,410l0-2.6c0-0.6,0.5-1,1-1l262.4-0.2c0.6,0,1,0.4,1,1l0,2.6c0,0.6-0.5,1-1,1l-262.4,0.2
		C153.1,411.1,152.6,410.6,152.6,410z"/>
	<path d="M153.4,419.2l0-2.6c0-0.6,0.5-1,1-1l262.4-0.2c0.6,0,1,0.4,1,1l0,2.6c0,0.6-0.4,1-1,1l-262.4,0.2
		C153.9,420.2,153.4,419.8,153.4,419.2z"/>
	<path d="M152.6,425.8c0-0.6,0.4-1,1-1l262.4-0.2c0.6,0,1,0.4,1,1l0,2.6c0,0.6-0.4,1-1,1l-262.4,0.2c-0.6,0-1-0.5-1-1L152.6,425.8z"
		/>
	<path d="M295.7,0L295.7,0L295.7,0h-31.8v0L1.9,108.1c-3,1.3-2.2,5.8,1.1,5.8l70.8,0.3l206-81.8l205.7,81.8l70.6-0.3
		c3.3,0,4.2-4.5,1.1-5.8L295.7,0z"/>
</g>
</svg>
