<?xml version="1.0" encoding="utf-8"?>
<!-- Generator: Adobe Illustrator 21.1.0, SVG Export Plug-In . SVG Version: 6.00 Build 0)  -->
<svg version="1.1" id="Layer_4" xmlns="http://www.w3.org/2000/svg" xmlns:xlink="http://www.w3.org/1999/xlink" x="0px" y="0px"
	 viewBox="0 0 444.6 512" style="enable-background:new 0 0 444.6 512;" xml:space="preserve">
<g>
	<path d="M397,255.6h34.7c7.5,0,6.9-28.3-1.4-28.3h-37.4v12.4h-4.1c-5.4-33.9-36.5-80.7-79.3-80.7H134.4
		c-42.4,0-73.9,46.8-79.3,80.7H51v-12.4H13.6c-8.8,0-8.9,28.3-1.4,28.3h35.4c-22.4,12.1-39.4,31-47.6,59.2c0,0,0,159.9,0,174.8
		C0,501.2,9.5,512,21.7,512h41.4c12.2,0,22.4-10.8,22.4-22.4v-20.4h273v20.4c0,11.5,10.2,22.4,22.4,22.4h41.4
		c12.2,0,22.4-10.8,22.4-22.4V314.8C435.1,286.5,419.5,267.7,397,255.6z M135.9,181.4c27.3-1.2,56.9-1.9,86.4-1.9s59.2,0.6,86.4,1.9
		c27.3,2.5,50.8,41.5,53.9,67.5c-45.4,8.6-92.4,12.8-139.4,12.8c-47.9,0-95.7-4.3-142-12.8C85,222.9,108,183.9,135.9,181.4z
		 M58.1,274.9l10.5-5.7l8.7,1.6c47.8,8.7,96.9,13.1,146,13.1c49,0,97.3-4.4,143.5-13.2l9-1.7l10.8,5.9c17,9.3,28.5,23.3,36,44.1
		v128.2H22.1V318.5C28.3,299,40.1,284.7,58.1,274.9z M62.8,489.9H22.3c-0.1-0.1-0.2-0.3-0.2-0.4v-20.3h41.4v20
		C63.3,489.5,63,489.8,62.8,489.9z M422,489.9h-40.8c-0.2-0.1-0.5-0.4-0.6-0.7v-20v-0.1h42v20C422.4,489.5,422.2,489.8,422,489.9z"
		/>
	<rect x="148.9" y="347.2" width="10.3" height="57.2"/>
	<rect x="177.2" y="347.2" width="10.3" height="57.2"/>
	<rect x="204" y="347.2" width="10.3" height="57.2"/>
	<rect x="230.2" y="347.2" width="10.3" height="57.2"/>
	<rect x="257.1" y="347.2" width="10.3" height="57.2"/>
	<rect x="285.4" y="347.2" width="10.3" height="57.2"/>
	<path d="M45.6,376.9h65.7c3.6-9.5,4.1-16.5-1-20.3c-5.7-4.4-51.8-29.8-67.2-29.8c-6.2,0-11.3,5.7-11.3,13.9v20.3
		C31.7,369.9,38.4,376.9,45.6,376.9z"/>
	<path d="M397.7,376.9c7.2,0,13.8-7,13.8-15.8v-20.3c0-8.2-5.1-13.9-11.3-13.9c-15.4,0-61.6,25.3-67.2,29.8
		c-5.1,3.8-4.6,10.8-1,20.3H397.7z"/>
	<path d="M39.3,437.6h36.2c2-5.2,2.3-9.1-0.6-11.2c-3.1-2.4-28.5-16.4-37-16.4c-3.4,0-6.2,3.1-6.2,7.7v11.2
		C31.7,433.7,35.4,437.6,39.3,437.6z"/>
	<path d="M406,410c-8.5,0-33.9,14-37,16.4c-2.8,2.1-2.5,5.9-0.6,11.2h36.2c4,0,7.6-3.8,7.6-8.7v-11.2C412.2,413.1,409.4,410,406,410
		z"/>
	<path d="M103.4,417.8v2.3c0,0.5,0.4,0.9,0.9,0.9H341c0.5,0,0.9-0.4,0.9-0.9v-2.3c0-0.5-0.4-0.9-0.9-0.9H104.3
		C103.8,416.9,103.4,417.3,103.4,417.8z"/>
	<path d="M103.6,429.3h236.7c0.5,0,0.9-0.4,0.9-0.9v-2.3c0-0.5-0.4-0.9-0.9-0.9H103.6c-0.5,0-0.9,0.4-0.9,0.9v2.3
		C102.7,428.9,103.1,429.3,103.6,429.3z"/>
	<path d="M341,433.4H104.3c-0.5,0-0.9,0.4-0.9,0.9v2.3c0,0.5,0.4,0.9,0.9,0.9H341c0.5,0,0.9-0.4,0.9-0.9v-2.3
		C341.9,433.8,341.5,433.4,341,433.4z"/>
	<g>
		<path d="M198.9,110.7c0,15.4-12.5,27.9-27.9,27.9s-27.9-12.5-27.9-27.9s28.6-46.5,28.6-46.5S198.9,95.3,198.9,110.7z"/>
	</g>
	<g>
		<path d="M304.4,110.7c0,15.4-12.5,27.9-27.9,27.9s-27.9-12.5-27.9-27.9s28.6-46.5,28.6-46.5S304.4,95.3,304.4,110.7z"/>
	</g>
	<g>
		<path d="M251.7,46.7c0,15.4-12.5,27.9-27.9,27.9s-27.9-12.5-27.9-27.9s28.6-46.5,28.6-46.5S251.7,31.3,251.7,46.7z"/>
	</g>
</g>
</svg>
