<?xml version="1.0" encoding="utf-8"?>
<!-- Generator: Adobe Illustrator 21.1.0, SVG Export Plug-In . SVG Version: 6.00 Build 0)  -->
<svg version="1.1" id="Layer_4" xmlns="http://www.w3.org/2000/svg" xmlns:xlink="http://www.w3.org/1999/xlink" x="0px" y="0px"
	 viewBox="0 0 559.1 512" style="enable-background:new 0 0 559.1 512;" xml:space="preserve">
<g>
	<path d="M1.8,285.1l75.9-178.4C99.7,82,123.9,69.6,152,67l-35.4-15.1c-7.7-3.3,5.3-31.8,13.7-28.2l38.2,16.3l-5.4,12.7l4.1,1.8
		c20.3-32.2,72.2-66.4,116-47.8l178.7,76c43.2,18.4,55.1,79.8,45.9,116.7l4.1,1.8l5.4-12.7l38.2,16.2c9,3.8-3.2,32.7-10.9,29.4
		l-36.1-15.4c17.6,22.1,26.8,48.7,22.9,81.1c0,0-69.4,163.1-75.9,178.4c-5,11.8-19.4,18.7-31.9,13.4l-42.2-18
		c-12.5-5.3-18.1-20.8-13.1-32.6l8.8-20.8L98.6,301.7l-8.8,20.8c-5,11.8-20.1,18.4-32.6,13.1l-42.2-18
		C2.5,312.3-3.2,296.9,1.8,285.1z M450.7,104.7c-27.3-13.1-57.2-26.6-87.4-39.4c-30.2-12.8-60.6-25.1-89-35.6
		c-28.9-9.3-69.9,20.3-84.3,45.5c42.6,28.5,88.7,53.2,136.6,73.6c48.8,20.8,99.5,37.1,150.4,48.6
		C484.5,169.1,478.1,119.3,450.7,104.7z M391.2,451.2l41.4,17.6c0.2-0.1,0.3-0.2,0.4-0.3l8.8-20.7l-42.2-18l-8.7,20.4
		C390.9,450.6,391.1,451,391.2,451.2z M451.4,425.3L507.2,294c2.1-22.6-3.7-42.3-17.8-60.1l-8.3-10.4l-9.6-2.2
		C419,209.4,367,192.6,317,171.3c-50-21.3-97.4-46.8-140.7-75.7l-8.4-5.6l-13.6,1.3c-21.3,2.1-39.2,11.4-55.9,29.3L42.8,251.4
		L451.4,425.3z M24.8,295.3L66.5,313c0.3,0,0.7-0.2,0.9-0.4l8.7-20.4l0-0.1l-42.9-18.3l-8.7,20.4C24.5,294.6,24.6,295,24.8,295.3z"
		/>
	<rect x="315.9" y="289.5" transform="matrix(0.3916 -0.9201 0.9201 0.3916 -60.1043 499.4735)" width="63.4" height="11.5"/>
	<rect x="287.1" y="277.2" transform="matrix(0.3916 -0.9201 0.9201 0.3916 -66.354 465.4759)" width="63.4" height="11.5"/>
	<rect x="259.7" y="265.5" transform="matrix(0.3916 -0.9201 0.9201 0.3916 -72.2988 433.1366)" width="63.4" height="11.5"/>
	<rect x="233" y="254.1" transform="matrix(0.3916 -0.9201 0.9201 0.3916 -78.0912 401.6266)" width="63.4" height="11.5"/>
	<rect x="205.5" y="242.5" transform="matrix(0.3916 -0.9201 0.9201 0.3916 -84.036 369.2873)" width="63.4" height="11.5"/>
	<rect x="176.7" y="230.2" transform="matrix(0.3916 -0.9201 0.9201 0.3916 -90.2856 335.2897)" width="63.4" height="11.5"/>
	<path d="M400.8,294.6c7.7-2.1,65.8-7.9,81.5-1.2c6.3,2.7,9,10.7,5.5,19.1l-8.8,20.7c-3.8,9-13.7,13.3-21,10.1l-67-28.5
		C391.4,303.6,393.9,296.2,400.8,294.6z"/>
	<path d="M100.2,147.6c3.6-8.4,11.3-12,17.6-9.3c15.7,6.7,51.8,52.6,55.7,59.6c3.6,6.1,0,13-7.8,21.1l-67-28.5
		c-7.3-3.1-11.1-13.1-7.3-22.2L100.2,147.6z"/>
	<path d="M406.4,381.1c4.2-1.1,36.2-4.3,44.9-0.7c3.5,1.5,5,5.9,3,10.5l-4.8,11.4c-2.1,5-7.5,7.3-11.6,5.6L401,392.2
		C401.3,386,402.6,382,406.4,381.1z"/>
	<path d="M61.3,237.1l4.8-11.4c2-4.6,6.2-6.6,9.7-5.1c8.6,3.7,28.5,29,30.7,32.8c2,3.4,0,7.2-4.3,11.6l-36.9-15.7
		C61.2,247.6,59.2,242.1,61.3,237.1z"/>
	<path d="M136.8,258.8l1-2.4c0.2-0.5,0.8-0.8,1.3-0.5l241.5,102.8c0.5,0.2,0.7,0.8,0.5,1.3l-1,2.4c-0.2,0.5-0.8,0.8-1.3,0.5
		L137.3,260.1C136.8,259.9,136.6,259.3,136.8,258.8z"/>
	<path d="M133.9,267.5l1-2.4c0.2-0.5,0.8-0.8,1.3-0.5l241.5,102.8c0.5,0.2,0.7,0.8,0.5,1.3l-1,2.4c-0.2,0.5-0.8,0.7-1.3,0.5
		L134.5,268.8C133.9,268.6,133.7,268,133.9,267.5z"/>
	<path d="M130.6,273.3c0.2-0.5,0.8-0.7,1.3-0.5l241.5,102.8c0.5,0.2,0.7,0.8,0.5,1.3l-1,2.4c-0.2,0.5-0.8,0.7-1.3,0.5L130.2,277
		c-0.5-0.2-0.8-0.8-0.5-1.3L130.6,273.3z"/>
	<polygon points="0,473.2 0,474.2 0,474.2 0,512 559.1,512 559.1,473.2 	"/>
	<path d="M0.3,69.6c0.3-2.6,2.1-4.9,4.5-5.8l19.4-7.5L7,29.9c-1.7-2.6-1.5-6,0.4-8.4c1.9-2.4,5.2-3.3,8.1-2.3L41,28.4l7.4-22.2
		c0.9-2.8,3.5-4.8,6.4-4.9c3-0.2,5.7,1.5,6.9,4.2L72.2,28l13.3-7.9c2-1.2,4.5-1.3,6.7-0.4c2.1,1,3.7,2.9,4.1,5.2l3.9,20.8
		c0.5,2.4-0.4,4.8-2,6.4c-1,1-2.3,1.7-3.8,2c-3.9,0.7-7.7-1.8-8.4-5.8l-2-10.6l-11.3,6.7c-1.8,1-3.9,1.3-5.8,0.7
		c-1.9-0.6-3.6-2-4.4-3.9L56.3,28l-4,12c-0.6,1.8-1.9,3.4-3.7,4.2c-1.7,0.8-3.8,0.9-5.6,0.3l-12.1-4.4l10.3,15.8
		c1.2,1.8,1.5,4.1,0.8,6.1c-0.7,2.1-2.2,3.7-4.3,4.5l-15.2,5.9l14,9.9c1.7,1.2,3,3.1,3.2,5.3c0.3,3.3-1.7,6.4-4.7,7.5l-5.1,1.9
		l5.8,2.7c3.7,1.7,5.3,6.1,3.6,9.8l0,0c-1.7,3.7-6.1,5.3-9.8,3.6L7.3,102.8l0,0c-1.6-0.8-2.9-2.2-3.6-4c-1.4-3.7,0.5-7.9,4.3-9.3
		l9.1-3.3L3.2,76.4C1.1,74.9-0.1,72.3,0.3,69.6z"/>
</g>
</svg>
