<?xml version="1.0" encoding="utf-8"?>
<!-- Generator: Adobe Illustrator 21.1.0, SVG Export Plug-In . SVG Version: 6.00 Build 0)  -->
<svg version="1.1" id="Layer_4" xmlns="http://www.w3.org/2000/svg" xmlns:xlink="http://www.w3.org/1999/xlink" x="0px" y="0px"
	 viewBox="0 0 496.1 512" style="enable-background:new 0 0 496.1 512;" xml:space="preserve">
<g>
	<path d="M557.3,285.1l-75.9-178.4c-22-24.7-46.1-37.1-74.3-39.7l35.4-15.1c7.7-3.3-5.3-31.8-13.7-28.2l-38.2,16.3l5.4,12.7
		l-4.1,1.8c-20.3-32.2-72.2-66.4-116-47.8l-178.7,76C54,100.9,42.2,162.4,51.3,199.3l-4.1,1.8l-5.4-12.7L3.6,204.6
		c-9,3.8,3.2,32.7,10.9,29.4l36.1-15.4c-17.6,22.1-26.8,48.7-22.9,81.1c0,0,69.4,163.1,75.9,178.4c5,11.8,19.4,18.7,31.9,13.4
		l42.2-18c12.5-5.3,18.1-20.8,13.1-32.6l-8.8-20.8l278.5-118.5l8.8,20.8c5,11.8,20.1,18.4,32.6,13.1l42.2-18
		C556.6,312.3,562.3,296.9,557.3,285.1z M108.4,104.7c27.3-13.1,57.2-26.6,87.4-39.4c30.2-12.8,60.6-25.1,89-35.6
		c28.9-9.3,69.9,20.3,84.3,45.5c-42.6,28.5-88.7,53.2-136.6,73.6c-48.8,20.8-99.5,37.1-150.4,48.6
		C74.6,169.1,81.1,119.3,108.4,104.7z M167.9,451.2l-41.4,17.6c-0.2-0.1-0.3-0.2-0.4-0.3l-8.8-20.7l42.2-18l8.7,20.4
		C168.2,450.6,168.1,451,167.9,451.2z M107.8,425.3L51.9,294c-2.1-22.6,3.7-42.3,17.8-60.1l8.3-10.4l9.6-2.2
		c52.6-11.9,104.6-28.7,154.6-50c50-21.3,97.4-46.8,140.7-75.7l8.4-5.6l13.6,1.3c21.3,2.1,39.2,11.4,55.9,29.3l55.7,130.8
		L107.8,425.3z M534.3,295.3L492.6,313c-0.3,0-0.7-0.2-0.9-0.4l-8.7-20.4l0-0.1l42.9-18.3l8.7,20.4
		C534.6,294.6,534.5,295,534.3,295.3z"/>
	<rect x="205.7" y="263.5" transform="matrix(0.9201 -0.3916 0.3916 0.9201 -98.7145 106.3897)" width="11.5" height="63.4"/>
	<rect x="234.6" y="251.2" transform="matrix(0.9201 -0.3916 0.3916 0.9201 -91.605 116.7018)" width="11.5" height="63.4"/>
	<rect x="262" y="239.5" transform="matrix(0.9201 -0.3916 0.3916 0.9201 -84.8422 126.5108)" width="11.5" height="63.4"/>
	<rect x="288.7" y="228.1" transform="matrix(0.9201 -0.3916 0.3916 0.9201 -78.2529 136.0684)" width="11.5" height="63.4"/>
	<rect x="316.1" y="216.5" transform="matrix(0.9201 -0.3916 0.3916 0.9201 -71.4901 145.8775)" width="11.5" height="63.4"/>
	<rect x="345" y="204.2" transform="matrix(0.9201 -0.3916 0.3916 0.9201 -64.3806 156.1895)" width="11.5" height="63.4"/>
	<path d="M158.4,294.6c-7.7-2.1-65.8-7.9-81.5-1.2c-6.3,2.7-9,10.7-5.5,19.1l8.8,20.7c3.8,9,13.7,13.3,21,10.1l67-28.5
		C167.7,303.6,165.2,296.2,158.4,294.6z"/>
	<path d="M458.9,147.6c-3.6-8.4-11.3-12-17.6-9.3c-15.7,6.7-51.8,52.6-55.7,59.6c-3.6,6.1,0,13,7.8,21.1l67-28.5
		c7.3-3.1,11.1-13.1,7.3-22.2L458.9,147.6z"/>
	<path d="M152.7,381.1c-4.2-1.1-36.2-4.3-44.9-0.7c-3.5,1.5-5,5.9-3,10.5l4.8,11.4c2.1,5,7.5,7.3,11.6,5.6l36.9-15.7
		C157.9,386,156.5,382,152.7,381.1z"/>
	<path d="M497.8,237.1l-4.8-11.4c-2-4.6-6.2-6.6-9.7-5.1c-8.6,3.7-28.5,29-30.7,32.8c-2,3.4,0,7.2,4.3,11.6l36.9-15.7
		C497.9,247.6,500,242.1,497.8,237.1z"/>
	<path d="M422.3,258.8l-1-2.4c-0.2-0.5-0.8-0.8-1.3-0.5L178.5,358.6c-0.5,0.2-0.7,0.8-0.5,1.3l1,2.4c0.2,0.5,0.8,0.8,1.3,0.5
		l241.5-102.8C422.3,259.9,422.5,259.3,422.3,258.8z"/>
	<path d="M425.2,267.5l-1-2.4c-0.2-0.5-0.8-0.8-1.3-0.5L181.4,367.4c-0.5,0.2-0.7,0.8-0.5,1.3l1,2.4c0.2,0.5,0.8,0.7,1.3,0.5
		l241.5-102.8C425.2,268.6,425.4,268,425.2,267.5z"/>
	<path d="M428.5,273.3c-0.2-0.5-0.8-0.7-1.3-0.5L185.7,375.5c-0.5,0.2-0.7,0.8-0.5,1.3l1,2.4c0.2,0.5,0.8,0.7,1.3,0.5L429,277
		c0.5-0.2,0.8-0.8,0.5-1.3L428.5,273.3z"/>
	<path d="M559.1,444.7c0-28.8-22.7-52.1-50.7-52.1c-22.1,0-41.6,14.6-48.3,36.2c-24.3-14.3-55.3-5.6-69.2,19.4
		c-4.2,7.6-6.5,16.2-6.6,25H0V512h559.1v-37.8h0V444.7z"/>
</g>
</svg>
