<?xml version="1.0" encoding="utf-8"?>
<!-- Generator: Adobe Illustrator 21.1.0, SVG Export Plug-In . SVG Version: 6.00 Build 0)  -->
<svg version="1.1" id="Layer_4" xmlns="http://www.w3.org/2000/svg" xmlns:xlink="http://www.w3.org/1999/xlink" x="0px" y="0px"
	 viewBox="0 0 550 512" style="enable-background:new 0 0 550 512;" xml:space="preserve">
<g id="_x33_2">
	<path d="M256.9,438.8c10.6,0,20.6,10,20.6,20.6c0,13.4-10.6,20.6-20.6,20.6s-20.6-7.2-20.6-20.6
		C236.3,448.8,246.3,438.8,256.9,438.8 M256.9,406.8c-28.3,0-52.6,24.3-52.6,52.6c0,30.4,24.3,52.6,52.6,52.6s52.6-22.3,52.6-52.6
		C309.5,431.1,285.3,406.8,256.9,406.8L256.9,406.8z"/>
	<path d="M377.9,438.8c10.6,0,20.6,10,20.6,20.6c0,13.4-10.6,20.6-20.6,20.6s-20.6-7.2-20.6-20.6
		C357.3,448.8,367.3,438.8,377.9,438.8 M377.9,406.8c-28.3,0-52.6,24.3-52.6,52.6c0,30.4,24.3,52.6,52.6,52.6s52.6-22.3,52.6-52.6
		C430.6,431.1,406.3,406.8,377.9,406.8L377.9,406.8z"/>
	<path d="M549.3,57.5l-0.1,0.5c-2.1,7.1-8.6,12-16.1,12h-298c-7.4,0-14-4.9-16.1-12l-0.1-0.5C215.7,46.8,223.8,36,235,36h298.3
		C544.5,36,552.5,46.8,549.3,57.5z"/>
	<path d="M264.3,151H506c11.2,0,19.2,10.8,16.1,21.5L522,173c-2.1,7.1-8.6,12-16.1,12H264.4c-7.4,0-14-4.9-16.1-12l-0.1-0.5
		C245,161.8,253.1,151,264.3,151z"/>
	<path d="M294,251h183.2c11.2,0,19.2,10.8,16.1,21.5l-0.1,0.5c-2.1,7.1-8.6,12-16.1,12H294.2c-7.4,0-14-4.9-16.1-12l-0.1-0.5
		C274.8,261.8,282.8,251,294,251z"/>
	<path d="M216.6,349H454c11.2,0,19.2,10.8,16.1,21.5L470,371c-2.1,7.1-8.6,12-16.1,12H216.8c-7.4,0-14-4.9-16.1-12l-0.1-0.5
		C197.4,359.8,205.4,349,216.6,349z"/>
	<path d="M228.4,283.4L148.7,13.6c-0.1-0.5-0.3-1-0.5-1.5c-2-6.8-8.3-12-16.1-12.1H16.8C5.5,0.1-2.5,10.9,0.7,21.6
		c2.1,7.1,8.6,11.9,16,12.4h103l76.8,258.8c2.1,7.1,8.6,12,16,12C223.5,305,231.6,294.2,228.4,283.4z"/>
</g>
</svg>
