<?xml version="1.0" encoding="utf-8"?>
<!-- Generator: Adobe Illustrator 21.1.0, SVG Export Plug-In . SVG Version: 6.00 Build 0)  -->
<svg version="1.1" id="Layer_4" xmlns="http://www.w3.org/2000/svg" xmlns:xlink="http://www.w3.org/1999/xlink" x="0px" y="0px"
	 viewBox="0 0 605.4 512" style="enable-background:new 0 0 605.4 512;" xml:space="preserve">
<g id="_x33_2">
	<path d="M261.7,440.5c10.5,0,20.4,9.9,20.4,20.4c0,13.3-10.5,20.4-20.4,20.4s-20.4-7.1-20.4-20.4
		C241.3,450.4,251.2,440.5,261.7,440.5 M261.7,408.7c-28.1,0-52.2,24.1-52.2,52.2c0,30.1,24.1,52.2,52.2,52.2s52.2-22.1,52.2-52.2
		C313.9,432.8,289.9,408.7,261.7,408.7L261.7,408.7z"/>
	<path d="M434.7,440.5c10.5,0,20.4,9.9,20.4,20.4c0,13.3-10.5,20.4-20.4,20.4s-20.4-7.1-20.4-20.4
		C414.3,450.4,424.2,440.5,434.7,440.5 M434.7,408.7c-28.1,0-52.2,24.1-52.2,52.2c0,30.1,24.1,52.2,52.2,52.2s52.2-22.1,52.2-52.2
		C487,432.8,462.9,408.7,434.7,408.7L434.7,408.7z"/>
	<path d="M267.7,158H563c11.2,0,19.2,10.8,16.1,21.5L579,180c-2.1,7.1-8.6,12-16.1,12H267.8c-7.4,0-14-4.9-16.1-12l-0.1-0.5
		C248.4,168.8,256.5,158,267.7,158z"/>
	<path d="M297.5,253h236.8c11.2,0,19.2,10.8,16.1,21.5l-0.1,0.5c-2.1,7.1-8.6,12-16.1,12H297.7c-7.4,0-14-4.9-16.1-12l-0.1-0.5
		C278.2,263.8,286.3,253,297.5,253z"/>
	<path d="M220.4,351h291c11.2,0,19.2,10.8,16.1,21.5l-0.1,0.5c-2.1,7.1-8.6,12-16.1,12H220.6c-7.4,0-14-4.9-16.1-12l-0.1-0.5
		C201.2,361.8,209.2,351,220.4,351z"/>
	<path d="M234.5,295.5L154.7,18.6c-0.1-0.5-0.3-1-0.5-1.5c-2-6.7-8.2-12-16.1-12.1H16.8C5.5,5.1-2.5,15.9,0.7,26.6
		c2.1,7,8.6,11.9,16,12.4h109l76.8,265.9c2.1,7,8.6,12,16,12C229.7,317,237.7,306.3,234.5,295.5z"/>
	<path d="M588.8,58h-53.4L526,5.9l0,0L412.2,0.1L378.3,10h-63.7l0,0l-19.2-0.2L278.2,58H240c-11.1,0-19.1,10.8-16,21.5l0.1,0.5
		c2.1,7.1,8.6,12,16,12h348.5c7.4,0,13.9-4.9,16-12l0.1-0.5C607.8,68.8,599.9,58,588.8,58z M412.2,19.9l97.1,4.9l5.9,33.2H387.8
		l-5.3-29.4L412.2,19.9z M308.3,30h54.1l5,28H299L308.3,30z"/>
</g>
</svg>
