<?xml version="1.0" encoding="utf-8"?>
<!-- Generator: Adobe Illustrator 21.1.0, SVG Export Plug-In . SVG Version: 6.00 Build 0)  -->
<svg version="1.1" id="Layer_4" xmlns="http://www.w3.org/2000/svg" xmlns:xlink="http://www.w3.org/1999/xlink" x="0px" y="0px"
	 viewBox="0 0 610.8 512" style="enable-background:new 0 0 610.8 512;" xml:space="preserve">
<g id="_x33_2">
	<path d="M263.2,438.8c10.6,0,20.6,10,20.6,20.6c0,13.4-10.6,20.6-20.6,20.6s-20.6-7.2-20.6-20.6
		C242.6,448.8,252.6,438.8,263.2,438.8L263.2,438.8z M263.2,406.8c-28.3,0-52.6,24.3-52.6,52.6c0,30.4,24.3,52.6,52.6,52.6
		s52.6-22.3,52.6-52.6C315.8,431.1,291.6,406.8,263.2,406.8L263.2,406.8z"/>
	<path d="M437.7,438.8c10.6,0,20.6,10,20.6,20.6c0,13.4-10.6,20.6-20.6,20.6s-20.6-7.2-20.6-20.6
		C417.1,448.8,427.1,438.8,437.7,438.8L437.7,438.8z M437.7,406.8c-28.3,0-52.6,24.3-52.6,52.6c0,30.4,24.3,52.6,52.6,52.6
		s52.6-22.3,52.6-52.6C490.4,431.1,466.1,406.8,437.7,406.8L437.7,406.8z"/>
	<path d="M397.8,53c-3.3,10.8-5.3,22.2-5.7,34H241.4c-7,0-13.1-4.3-15.6-10.7c0,0,0,0,0-0.1c-0.2-0.4-0.3-0.8-0.4-1.2l-0.1-0.5
		c-0.2-0.6-0.3-1.2-0.4-1.8l0,0c-0.5-2.9-0.3-5.7,0.6-8.3l0,0c0.1-0.4,0.3-0.8,0.5-1.2l0,0c2.5-5.8,8.3-10.1,15.4-10.1L397.8,53
		L397.8,53z"/>
	<path d="M436,188H270.7c-5.3,0-10.1-2.5-13.2-6.4l0,0c-1.3-1.6-2.3-3.5-2.9-5.5l-0.1-0.5c-1.4-4.8-0.6-9.7,1.8-13.5
		c2.9-4.7,8.1-8,14.3-8h137.9C415.6,166.9,425,178.3,436,188z"/>
	<path d="M300.3,250H537c11.2,0,19.2,10.8,16.1,21.5L553,272c-2.1,7.1-8.6,12-16.1,12H300.5c-7.4,0-14-4.9-16.1-12l-0.1-0.5
		C281.1,260.8,289.1,250,300.3,250z"/>
	<path d="M222.9,349h290.9c11.2,0,19.2,10.8,16.1,21.5l-0.1,0.5c-2.1,7.1-8.6,12-16.1,12H223.1c-7.4,0-14-4.9-16.1-12l-0.1-0.5
		C203.7,359.8,211.7,349,222.9,349z"/>
	<path d="M235.1,291.2l-80-277.7c-0.1-0.5-0.3-1-0.5-1.5c-2-6.8-8.3-12-16.1-12.1H16.8C5.5,0-2.5,10.8,0.7,21.6
		c2.1,7.1,8.6,11.9,16,12.4H126l77,266.6c2.1,7.1,8.6,12,16,12C230.2,312.8,238.3,302,235.1,291.2z"/>
	<polygon points="570.7,81.1 530.9,81.1 530.9,41.3 510.8,41.3 510.8,81.1 471,81.1 471,101.3 510.8,101.3 510.8,141.1 530.9,141.1 
		530.9,101.3 570.7,101.3 	"/>
	<path d="M521.8,0.1c-49.2,0-89,39.9-89,89s39.9,89,89,89c49.2,0,89-39.9,89-89S571,0.1,521.8,0.1z M521.8,158.3
		c-38.2,0-69.1-30.9-69.1-69.1s30.9-69.1,69.1-69.1s69.1,30.9,69.1,69.1C590.9,127.3,559.9,158.3,521.8,158.3z"/>
</g>
</svg>
