<?xml version="1.0" encoding="utf-8"?>
<!-- Generator: Adobe Illustrator 21.1.0, SVG Export Plug-In . SVG Version: 6.00 Build 0)  -->
<svg version="1.1" id="Layer_2" xmlns="http://www.w3.org/2000/svg" xmlns:xlink="http://www.w3.org/1999/xlink" x="0px" y="0px"
	 viewBox="0 0 550 512" style="enable-background:new 0 0 550 512;" xml:space="preserve">
<g id="a_32">
	<path d="M226.9,438.8c10.6,0,20.6,10,20.6,20.6c0,13.4-10.6,20.6-20.6,20.6s-20.6-7.2-20.6-20.6
		C206.3,448.8,216.3,438.8,226.9,438.8L226.9,438.8z M226.9,406.8c-28.3,0-52.6,24.3-52.6,52.6c0,30.4,24.3,52.6,52.6,52.6
		s52.6-22.3,52.6-52.6C279.5,431.1,255.3,406.8,226.9,406.8L226.9,406.8z"/>
	<path d="M377.9,438.8c10.6,0,20.6,10,20.6,20.6c0,13.4-10.6,20.6-20.6,20.6s-20.6-7.2-20.6-20.6
		C357.3,448.8,367.3,438.8,377.9,438.8L377.9,438.8z M377.9,406.8c-28.3,0-52.6,24.3-52.6,52.6c0,30.4,24.3,52.6,52.6,52.6
		s52.6-22.3,52.6-52.6C430.6,431.1,406.3,406.8,377.9,406.8L377.9,406.8z"/>
	<path d="M463.9,379.7c-2.8,2.1-6.3,3.3-10,3.3H451C455.6,383,460,381.8,463.9,379.7z"/>
	<path d="M521.7,34.6H172.8c-18.7,0-32.2,18-26.8,36c2.3,7.6,67.5,225.4,67.5,225.4h-31L98.7,13.6c-0.1-0.5-0.3-1-0.5-1.5
		c-2-6.8-8.3-12-16.1-12.1H16.8C5.5,0.1-2.5,10.9,0.7,21.6c2.1,7.1,8.6,11.9,16,12.4h53l88.5,296h65.6l5.7,19H164l10.3,34H451
		c4.6,0,9-1.2,12.9-3.3c6.4-3.4,11.3-9.4,13.2-16.8c16.9-63.5,68.4-282.5,71.3-292.3C553.8,52.6,540.3,34.6,521.7,34.6z M262.8,349
		l-5.7-19h195.4l-4.9,19H262.8z M461,296H247c0,0-60.7-202.5-68.7-229.4h338.2C514.1,75.6,461,296,461,296z"/>
</g>
</svg>
