<?xml version="1.0" encoding="utf-8"?>
<!-- Generator: Adobe Illustrator 21.1.0, SVG Export Plug-In . SVG Version: 6.00 Build 0)  -->
<svg version="1.1" id="Layer_4" xmlns="http://www.w3.org/2000/svg" xmlns:xlink="http://www.w3.org/1999/xlink" x="0px" y="0px"
	 viewBox="0 0 610.8 512" style="enable-background:new 0 0 610.8 512;" xml:space="preserve">
<g id="_x33_2">
	<path d="M263.2,438.8c10.6,0,20.6,10,20.6,20.6c0,13.4-10.6,20.6-20.6,20.6s-20.6-7.2-20.6-20.6
		C242.6,448.8,252.6,438.8,263.2,438.8L263.2,438.8z M263.2,406.8c-28.3,0-52.6,24.3-52.6,52.6c0,30.4,24.3,52.6,52.6,52.6
		s52.6-22.3,52.6-52.6C315.8,431.1,291.6,406.8,263.2,406.8L263.2,406.8z"/>
	<path d="M437.7,438.8c10.6,0,20.6,10,20.6,20.6c0,13.4-10.6,20.6-20.6,20.6s-20.6-7.2-20.6-20.6
		C417.1,448.8,427.1,438.8,437.7,438.8L437.7,438.8z M437.7,406.8c-28.3,0-52.6,24.3-52.6,52.6c0,30.4,24.3,52.6,52.6,52.6
		s52.6-22.3,52.6-52.6C490.4,431.1,466.1,406.8,437.7,406.8L437.7,406.8z"/>
	<path d="M398,52.9c-3.3,10.8-5.3,22.3-5.7,34.1H241.6c-7,0-13.1-4.3-15.6-10.7c0,0,0,0,0-0.1c-0.2-0.4-0.3-0.8-0.4-1.2l-0.1-0.5
		c-0.2-0.6-0.3-1.2-0.4-1.8l0,0c-0.5-2.9-0.3-5.7,0.6-8.3l0,0c0.1-0.4,0.3-0.8,0.5-1.2l0,0c2.5-5.8,8.3-10.1,15.4-10.1H398V52.9z"/>
	<path d="M436.3,188H270.5c-5.3,0-10.1-2.5-13.2-6.4l0,0c-1.3-1.6-2.3-3.5-2.9-5.5l-0.1-0.5c-1.4-4.8-0.6-9.7,1.8-13.5
		c2.9-4.7,8.1-8,14.3-8h138.3C415.8,166.8,425.2,178.3,436.3,188z"/>
	<path d="M300.3,250H537c11.2,0,19.2,10.8,16.1,21.5L553,272c-2.1,7.1-8.6,12-16.1,12H300.5c-7.4,0-14-4.9-16.1-12l-0.1-0.5
		C281.1,260.8,289.1,250,300.3,250z"/>
	<path d="M222.9,349h290.9c11.2,0,19.2,10.8,16.1,21.5l-0.1,0.5c-2.1,7.1-8.6,12-16.1,12H223.1c-7.4,0-14-4.9-16.1-12l-0.1-0.5
		C203.7,359.8,211.7,349,222.9,349z"/>
	<path d="M234.8,290.4L155,13.6c-0.1-0.5-0.3-1-0.5-1.5c-2-6.8-8.3-12-16.1-12.1H17.1C5.8,0.1-2.1,10.9,1,21.6
		C3.1,28.7,9.6,33.5,17,34h109l76.8,265.8c2.1,7.1,8.6,12,16,12C229.9,312,237.9,301.2,234.8,290.4z"/>
	<path d="M521.8,0.1c-49.2,0-89,39.9-89,89s39.9,89,89,89c49.2,0,89-39.9,89-89S571,0.1,521.8,0.1z M521.8,158.3
		c-38.2,0-69.1-30.9-69.1-69.1s30.9-69.1,69.1-69.1s69.1,30.9,69.1,69.1C590.9,127.3,559.9,158.3,521.8,158.3z"/>
	<path d="M479,102l86-0.3V77l-86,0.3V102z"/>
</g>
</svg>
