<?xml version="1.0" encoding="utf-8"?>
<!-- Generator: Adobe Illustrator 21.1.0, SVG Export Plug-In . SVG Version: 6.00 Build 0)  -->
<svg version="1.1" id="Layer_1" xmlns="http://www.w3.org/2000/svg" xmlns:xlink="http://www.w3.org/1999/xlink" x="0px" y="0px"
	 viewBox="0 0 394.8 512" style="enable-background:new 0 0 394.8 512;" xml:space="preserve">
<path d="M393.5,95.4c-19.3-5.8-37-36.9-66.3-44c-2.5-1.1,1.9-48.9-8.7-51.2c-0.3-0.1-0.6-0.1-0.9-0.1c-10.2,0-18.1,34-19.6,34l0,0
	c-0.9-0.3,0.3-24.9-7.6-24.9c-0.5,0-1,0.1-1.6,0.3c-7.6,2.6-7.1,38.1-9.2,39c-73.5,43.3-26,74.5-59.5,108.8
	c-39,49.8-63,10.1-115.9,87.2c-51,70.8-29.8,133-23.6,209.3c0.9,19.7-40.8,15.8-46.2-52.3C31.1,360,68.3,252.2,59,200.4
	c-6.2-35.3-48.2-36-48.2-36s18.8,34.4,12.4,83.1c-8.7,65.8-40,156.7-7.2,214.5c14.6,25.5,40.1,37.5,68.6,43.1c0.1,0,0.2,0,0.2,0.1
	c0.3,0.1,0.5,0.1,0.8,0.1c0.8,0.1,1.6,0.3,2.3,0.4c0.4,0.1,0.8,0.1,1.2,0.2c0.8,0.1,1.6,0.3,2.4,0.4c0.4,0.1,0.7,0.1,1.1,0.2
	c1,0.2,2.1,0.3,3.1,0.5c0.1,0,0.2,0,0.4,0.1c0,0,0,0,0.1,0l0,0c36.9,5.1,76.6,1.6,103.5,4.2c5.9,0.6,11.8,0.8,17.4,0.8
	c32.9,0,60.6-8,60.6-8s7-12.7-5.1-21.6c-6.4-4.7-17.4-5.7-28.7-6.1c-8.1-0.3-13.3-15.1-13.4-21.6c-0.9-41.4,44.1-99.5,44.1-99.5l0,0
	c0,0,8.5,14.4,8.2,41.1c-0.3,33-6.1,81.8-2,89.3c11.6,20.7,69.8,28.2,69.8,0c0-26.7-32.8-0.8-32.8-18.5c0-44.6-6.6-115.3-1-134.4
	c13-56.3,61.6-33.6,33.9-180.6c30.4-23.1,38.1-32.4,43.1-44.1C396.3,101.2,393.7,95.6,393.5,95.4z M319.5,138.8
	c-3,7.8-0.3,19.5-0.3,19.5c7.6,40.4,9.7,70.4,6.1,89.2c-2.4,12.9-6.8,18.6-14.3,28c-8,10.3-17.9,23-23.9,44
	c-3.7,1.6-24.6,6.6-28.5,8c-7.9,3-22.2,24.8-34.3,46.3c-17.7,31.2-26.3,58.8-25.8,81.8c0.1,7.3,2,15.9,5.6,24
	c-0.4,0-0.7-0.1-1.1-0.1c-12.7-1.2-26.9-1.2-42.1-1.3c-16.4,0-34.5-0.1-51.4-1.7c2.2-7,3.9-15.1,3.5-23.8v-0.6v-0.6
	c-1.2-14.8-2.9-28.8-4.6-42.5c-3.3-27.4-6.5-53.3-4.1-77.3c2.4-24.9,10.8-46.5,26.4-68.1l0.2-0.3l0.2-0.3c11-16,21-27,30.4-33.6
	c7.3-5,13.9-7.1,22.2-9.8c17.1-5.4,38.2-12.3,61.1-40.9c20.9-22.3,21.6-45.5,22.1-61c0.3-8.9,0.5-13.8,2.8-18.3
	c3.4-6.7,12.4-14.5,25.7-22.5c2.8-1.5,5.1-3.2,7-5.1c3.7,4.6,8.2,7.5,12.3,9.3l5.3,1.8c8.6,2.1,17.9,10.5,26.9,18.7
	c2.4,2.1,4.7,4.3,7.2,6.4C349.4,112.6,321.3,134.2,319.5,138.8z"/>
</svg>
