<?xml version="1.0" encoding="utf-8"?>
<!-- Generator: Adobe Illustrator 21.1.0, SVG Export Plug-In . SVG Version: 6.00 Build 0)  -->
<svg version="1.1" id="Layer_2" xmlns="http://www.w3.org/2000/svg" xmlns:xlink="http://www.w3.org/1999/xlink" x="0px" y="0px"
	 viewBox="0 0 512 512" style="enable-background:new 0 0 512 512;" xml:space="preserve">
<style type="text/css">
	.st0{fill-rule:evenodd;clip-rule:evenodd;}
</style>
<g id="_x33_2">
	<g>
		<path class="st0" d="M256,0C114.6,0,0,114.6,0,256s114.6,256,256,256c141.4,0,256-114.6,256-256S397.4,0,256,0z M256,479.9
			C132.3,479.9,32.1,379.7,32.1,256S132.3,32.1,256,32.1c73.9,0,139.4,35.8,180.2,90.9v69.2c0,4.8-1.2,9.5-3.5,13.7l-40.3,74.8
			l-11.1-6l-48.5,90l11,6l7.1,3.8l-13.9,25.9l14.5,7.8l13.9-25.9l7.1,3.8l11,6l48.5-90l-11.1-6l44.2-82c2.3-4.2,3.5-8.9,3.5-13.7
			v-14.5c7.3,22.1,11.2,45.6,11.2,70.1C479.9,379.7,379.7,479.9,256,479.9z"/>
	</g>
	<g>
		<path class="st0" d="M257.1,230.6c-14,0-25.4,11.4-25.4,25.4s11.4,25.4,25.4,25.4c14.1,0,25.4-11.4,25.4-25.4
			S271.2,230.6,257.1,230.6z M257.1,230.6c-14,0-25.4,11.4-25.4,25.4s11.4,25.4,25.4,25.4c14.1,0,25.4-11.4,25.4-25.4
			S271.2,230.6,257.1,230.6z M257.1,230.6c-14,0-25.4,11.4-25.4,25.4s11.4,25.4,25.4,25.4c14.1,0,25.4-11.4,25.4-25.4
			S271.2,230.6,257.1,230.6z M257.1,230.6c-14,0-25.4,11.4-25.4,25.4s11.4,25.4,25.4,25.4c14.1,0,25.4-11.4,25.4-25.4
			S271.2,230.6,257.1,230.6z M257.1,230.6c-14,0-25.4,11.4-25.4,25.4s11.4,25.4,25.4,25.4c14.1,0,25.4-11.4,25.4-25.4
			S271.2,230.6,257.1,230.6z M257.1,230.6c-14,0-25.4,11.4-25.4,25.4s11.4,25.4,25.4,25.4c14.1,0,25.4-11.4,25.4-25.4
			S271.2,230.6,257.1,230.6z M257.1,230.6c-14,0-25.4,11.4-25.4,25.4s11.4,25.4,25.4,25.4c14.1,0,25.4-11.4,25.4-25.4
			S271.2,230.6,257.1,230.6z M257.1,230.6c-14,0-25.4,11.4-25.4,25.4s11.4,25.4,25.4,25.4c14.1,0,25.4-11.4,25.4-25.4
			S271.2,230.6,257.1,230.6z M257.1,161.7c-52.1,0-94.3,42.2-94.3,94.3s42.2,94.3,94.3,94.3c52.1,0,94.3-42.2,94.3-94.3
			S309.2,161.7,257.1,161.7z M257.1,318.3c-34.4,0-62.3-28-62.3-62.3s28-62.3,62.3-62.3c34.4,0,62.3,28,62.3,62.3
			S291.5,318.3,257.1,318.3z M257.1,230.6c-14,0-25.4,11.4-25.4,25.4s11.4,25.4,25.4,25.4c14.1,0,25.4-11.4,25.4-25.4
			S271.2,230.6,257.1,230.6z M257.1,230.6c-14,0-25.4,11.4-25.4,25.4s11.4,25.4,25.4,25.4c14.1,0,25.4-11.4,25.4-25.4
			S271.2,230.6,257.1,230.6z M257.1,230.6c-14,0-25.4,11.4-25.4,25.4s11.4,25.4,25.4,25.4c14.1,0,25.4-11.4,25.4-25.4
			S271.2,230.6,257.1,230.6z M276,367.9c-6.1,1-12.4,1.5-18.9,1.5c-6.5,0-12.9-0.5-19.1-1.6l-32.1,87.3c16.6,3.9,33.7,5.8,51.1,5.8
			c17.4,0,34.5-2,51.1-5.8L276,367.9z M257,51c-17.4,0-34.5,2-51.1,5.8l32.1,87.3c6.2-1,12.6-1.6,19.1-1.6c6.4,0,12.7,0.5,18.9,1.5
			l32.1-87.3C291.5,53,274.4,51,257,51z M257.1,230.6c-14,0-25.4,11.4-25.4,25.4s11.4,25.4,25.4,25.4c14.1,0,25.4-11.4,25.4-25.4
			S271.2,230.6,257.1,230.6z M257.1,230.6c-14,0-25.4,11.4-25.4,25.4s11.4,25.4,25.4,25.4c14.1,0,25.4-11.4,25.4-25.4
			S271.2,230.6,257.1,230.6z M257.1,230.6c-14,0-25.4,11.4-25.4,25.4s11.4,25.4,25.4,25.4c14.1,0,25.4-11.4,25.4-25.4
			S271.2,230.6,257.1,230.6z M257.1,230.6c-14,0-25.4,11.4-25.4,25.4s11.4,25.4,25.4,25.4c14.1,0,25.4-11.4,25.4-25.4
			S271.2,230.6,257.1,230.6z M257.1,230.6c-14,0-25.4,11.4-25.4,25.4s11.4,25.4,25.4,25.4c14.1,0,25.4-11.4,25.4-25.4
			S271.2,230.6,257.1,230.6z M257.1,230.6c-14,0-25.4,11.4-25.4,25.4s11.4,25.4,25.4,25.4c14.1,0,25.4-11.4,25.4-25.4
			S271.2,230.6,257.1,230.6z M257.1,230.6c-14,0-25.4,11.4-25.4,25.4s11.4,25.4,25.4,25.4c14.1,0,25.4-11.4,25.4-25.4
			S271.2,230.6,257.1,230.6z M257.1,230.6c-14,0-25.4,11.4-25.4,25.4s11.4,25.4,25.4,25.4c14.1,0,25.4-11.4,25.4-25.4
			S271.2,230.6,257.1,230.6z"/>
	</g>
</g>
</svg>
