<?xml version="1.0" encoding="utf-8"?>
<!-- Generator: Adobe Illustrator 21.1.0, SVG Export Plug-In . SVG Version: 6.00 Build 0)  -->
<svg version="1.1" id="Layer_2" xmlns="http://www.w3.org/2000/svg" xmlns:xlink="http://www.w3.org/1999/xlink" x="0px" y="0px"
	 viewBox="0 0 497 512" style="enable-background:new 0 0 497 512;" xml:space="preserve">
<g>
	<path d="M374.7,0H90.9c-8.3,0-15,6.7-15,15v126.8h32V47c0-8.3,6.7-15,15-15h220v112c0,5.5,4.5,10,10,10h111.8v311
		c0,8.3-6.7,15-15,15H212.2v32h269.5c8.3,0,15-6.7,15-15V122L374.7,0z"/>
	<path d="M156,73.5h99v32h-99V73.5z M156.1,137.6l99-0.1v32h-99V137.6z M221,280.5h177v32H221V280.5z M221,344.5h177v33H221V344.5z
		 M221,216.5h179v32H221V216.5z M398,408.5v32h-62v-32H398z"/>
	<polygon points="119.4,227.7 160.4,218.2 151.3,263.2 189.7,284.2 154.8,313.7 162.9,351.2 115.9,347.7 96.7,379.7 68.4,346.2 
		29.5,354.2 33.5,310.7 0,288.3 32.9,260.8 26.3,221.3 71.3,232.3 92,193.8 	"/>
	<path d="M104.2,392.4c16.2-1.3,34.9-7.2,56.1-17.5V498l-62.2-58l-58.7,57.5l-0.5-122.6C63.6,387.9,85.3,393.7,104.2,392.4z"/>
</g>
</svg>
