<?xml version="1.0" encoding="utf-8"?>
<!-- Generator: Adobe Illustrator 21.1.0, SVG Export Plug-In . SVG Version: 6.00 Build 0)  -->
<svg version="1.1" id="Layer_2" xmlns="http://www.w3.org/2000/svg" xmlns:xlink="http://www.w3.org/1999/xlink" x="0px" y="0px"
	 viewBox="0 0 410 512" style="enable-background:new 0 0 410 512;" xml:space="preserve">
<g>
	<path d="M0,0v473h93v38.8l66.2-41.6l66.8,41.6V432v-48c0,0-18,28.8-67.1,28.8C111.4,412.8,93,384,93,384v58H32L31.8,33L378,32.6
		V441h-85v32h117V0H0z M117,429.6c11.8,4.3,25.8,7.2,41.9,7.2c17.3,0,31.7-3.1,43.1-7.2v2.4v36.6l-30.1-18.8l-12.7-7.9l-12.7,8
		L117,468.4V429.6z"/>
	<polygon points="174.8,295.6 173.8,293.6 160.1,265.7 146.4,293.6 145.4,295.6 143.1,296 112.4,300.5 134.6,322.1 136.3,323.7 
		135.8,326 130.6,356.5 158.1,342.1 160.2,341.1 162.2,342.1 189.8,356.5 184.5,326 183.9,323.7 185.5,322.1 207.8,300.5 177.1,296 
			"/>
	<path d="M226.8,294.2L218,293l-37.2-5.3L164.2,254l-3.9-7.9l-4,8l-16.7,33.7l-37.2,5.3l-8.8,1.2l6.4,6.3l27,26.2l-6.4,37l-1.5,8.8
		l7.9-4.2l33.3-17.4l33.2,17.3l7.8,4.2l-1.5-8.8l-6.3-37l27-26.2L226.8,294.2z M188.9,325.3l6.8,39.3l-35.4-18.5l-35.4,18.5
		l6.8-39.3L103,297.4l39.6-5.7l17.7-35.8l17.7,35.8l39.5,5.7L188.9,325.3z"/>
	<rect x="93" y="95" width="224" height="32"/>
	<rect x="93" y="183" width="224" height="32"/>
</g>
</svg>
