<?xml version="1.0" encoding="utf-8"?>
<!-- Generator: Adobe Illustrator 21.1.0, SVG Export Plug-In . SVG Version: 6.00 Build 0)  -->
<svg version="1.1" id="Layer_4" xmlns="http://www.w3.org/2000/svg" xmlns:xlink="http://www.w3.org/1999/xlink" x="0px" y="0px"
	 viewBox="0 0 454.6 512" style="enable-background:new 0 0 454.6 512;" xml:space="preserve">
<g id="_x33_2">
	<path d="M442.7,213.7H440v-27.6c0-1.5-0.5-2.8-1.7-3.9c-1-1.1-2.2-1.7-3.7-1.7s-2.8,0.5-3.9,1.7c-1.1,1.1-1.7,2.4-1.7,3.9v27.6
		h-31.4v-27.6c0-1.5-0.5-2.8-1.7-3.9c-1.1-1.1-2.4-1.7-3.9-1.7c-1.5,0-2.8,0.5-3.9,1.7c-1,1.1-1.5,2.4-1.5,3.9v27.6h-2.7
		c-5.2,0-9.3,4.1-9.3,9.3v30.1c0,18.3,12.6,33.8,30,37.7h2.1v58.4c0,16.3-14.1,29.5-31.5,29.5s-31.5-13.2-31.5-29.5v-12.9
		c0-26-16.7-46.9-42.7-46.9c-4.1,0-7.9,0.5-11.4,1.4V19.9c0-11-8.9-19.9-19.9-19.9H19.9C8.9,0,0,8.9,0,19.9v427.4h289.5V304.4
		c3.1-1,6.3-1.5,9.7-1.5c17,0,31.1,13.1,31.1,29.9v12.9c0,22.3,15.1,46.5,42.7,46.5c27.7,0,46.9-23.8,46.9-46.5v-54.7h1.8
		c25-5.8,30.2-27,30.2-37.7c0-7.5,0-30.1,0-30.1C452,217.8,447.9,213.7,442.7,213.7z M396.7,192.5L396.7,192.5h-9.1v-6.4
		c0-2.5,2-4.6,4.6-4.6c2.5,0,4.6,2,4.6,4.6V192.5z M253.5,415.3H35.9V32h217.6V415.3z M439.2,192.5h-9.3v-6.4c0-2.5,2-4.6,4.5-4.6
		h0.2c2.5,0,4.6,2,4.6,4.6V192.5z"/>
	<path d="M215.8,76.3H74.1c-2.4,0-4.3,1.9-4.3,4.3v49c0,2.4,1.9,4.3,4.3,4.3h141.6c2.4,0,4.3-1.9,4.3-4.3v-49
		C220,78.2,218.1,76.3,215.8,76.3z M106.1,125H84.4V83.2h21.7V125z M139.1,125h-22.7V83.2h22.7V125z M172.1,125h-22.7V83.2h22.7V125
		z M205.1,125h-22.7V83.2h22.7V125z M197.5,275h-55.1l54.2-63.3h-60.9l-43.4,90.1h42.1l-31.1,60.1L197.5,275z"/>
	<path d="M454.6,471H0v41h454.6V471z"/>
</g>
</svg>
