<?xml version="1.0" encoding="utf-8"?>
<!-- Generator: Adobe Illustrator 21.1.0, SVG Export Plug-In . SVG Version: 6.00 Build 0)  -->
<svg version="1.1" id="Layer_1" xmlns="http://www.w3.org/2000/svg" xmlns:xlink="http://www.w3.org/1999/xlink" x="0px" y="0px"
	 viewBox="0 0 559.1 512" style="enable-background:new 0 0 559.1 512;" xml:space="preserve">
<g id="_x33_2">
	<path d="M279.6,32.2c33,0,65.2,5.2,95.6,15.5c29.8,10.1,56.5,24.5,79.3,42.9c22.9,18.5,40.7,40.1,53.1,64.2
		c12.9,25.2,19.4,52.5,19.4,81.3c0,28.6-6.6,55.9-19.7,81.1c-12.5,24.1-30.6,45.8-53.7,64.3C407.1,418.7,344,440,280.3,440
		c-9.8,0-19-0.7-27-1.3c-6.3-0.5-11.7-0.9-16.4-0.9c-4.8,0-8.7,0.4-12.4,1.3c-20.6,5.1-71.9,18.4-111.3,28.6
		c4.7-22.1,9.4-43.9,10.5-48.7l4.1-19.2l-15.2-12.5c-27.8-22.7-47.7-45.9-60.8-70.7c-13.1-24.7-19.4-51-19.4-80.6
		c0-28.8,6.5-56.1,19.4-81.3C64,130.6,81.8,109,104.7,90.6c22.8-18.4,49.4-32.8,79.3-42.9C214.4,37.4,246.6,32.2,279.6,32.2
		 M279.6,0C132,0,0,96.1,0,236.1c0,70,31.1,126.3,92.1,176.2C89.9,422.5,70.7,512,70.7,512s126.4-33,161.4-41.6
		c1.1-0.3,2.7-0.4,4.7-0.4c8.7,0,24.9,2.2,43.5,2.2c143.7,0,278.8-96.1,278.8-236.1S427.1,0,279.6,0L279.6,0z"/>
	<path d="M279.6,95.7c48.3,0,96,15.5,130.8,42.5c33.9,26.3,52.6,61,52.6,97.6c0,36.5-18.9,71.3-53.3,98
		c-35.1,27.2-82.4,42.9-129.8,42.9c-47.7,0-95.2-15.5-130.3-42.4c-17-13.1-30.3-28.2-39.5-44.8c-9.3-16.9-14-34.8-14-53.4
		c0-19.2,4.6-37.6,13.8-54.5c9-16.6,22-31.5,38.7-44.3c16.9-13,36.8-23.2,59.1-30.4C230.6,99.4,254.8,95.7,279.6,95.7 M279.6,63.5
		C165.7,63.5,64,134.5,64,236.1c0,99.4,104.1,172.8,215.9,172.8s215.3-74.7,215.3-173.1S393.5,63.5,279.6,63.5L279.6,63.5z"/>
</g>
</svg>
