<?xml version="1.0" encoding="utf-8"?>
<!-- Generator: Adobe Illustrator 21.1.0, SVG Export Plug-In . SVG Version: 6.00 Build 0)  -->
<svg version="1.1" id="Shape_1_1_" xmlns="http://www.w3.org/2000/svg" xmlns:xlink="http://www.w3.org/1999/xlink" x="0px" y="0px"
	 viewBox="0 0 512 512" style="enable-background:new 0 0 512 512;" xml:space="preserve">
<g>
	<path d="M512.1,256c0-141.4-114.6-256-256-256S0.1,114.6,0.1,256s114.6,256,256,256S512.1,397.4,512.1,256z M32.6,256
		c0-123.4,100.1-223.5,223.5-223.5S479.6,132.6,479.6,256S379.5,479.5,256.1,479.5S32.6,379.4,32.6,256z"/>
	<path d="M351.2,150.9c-8.8,0-12.7,6-13.1,6.6l-125,170.4l-49.8-71.7c-4.5-7.6-14.3-10.4-21.9-6.1c-7.6,4.2-10.1,13.9-5.7,21.5
		l54.4,76.9c16.6,16.6,29.8,15.9,47.3-1.6c1.4-1.4,68.7-93.6,108.3-147.4c14.8-19.9,20.9-25.8,20.9-33.2
		C366.6,158.9,360.8,150.9,351.2,150.9z"/>
</g>
</svg>
