<?xml version="1.0" encoding="utf-8"?>
<!-- Generator: Adobe Illustrator 21.1.0, SVG Export Plug-In . SVG Version: 6.00 Build 0)  -->
<svg version="1.1" id="Layer_5" xmlns="http://www.w3.org/2000/svg" xmlns:xlink="http://www.w3.org/1999/xlink" x="0px" y="0px"
	 viewBox="0 0 580.4 512" style="enable-background:new 0 0 580.4 512;" xml:space="preserve">
<g>
	<path d="M434,461.9c0,10-8.2,18.1-18.1,18.1H50.1c-10,0-18.1-8.2-18.1-18.1V97.1c0-10,8.2-18.1,18.1-18.1h361.2l25.8-25.8
		c-7.2-4-15.4-6.2-24.1-6.2H50.4C22.5,47,0,69.5,0,97.4v364.3C0,489.5,22.5,512,50.4,512h365.3c27.8,0,50.4-22.5,50.4-50.4V210.5
		l-32,32V461.9z"/>
	<path d="M552.9,7.3L239.4,315.7L171,195.4c-14.4-14.1-35.8,0.9-25.7,19.8l78.2,133.5c3.4,7.2,12,10.4,19,7.3
		c1.3-0.6,2.4-1.5,3.3-2.4L575.5,30.3C590.7,12.3,567.2-6.9,552.9,7.3z"/>
</g>
</svg>
