<?xml version="1.0" encoding="utf-8"?>
<!-- Generator: Adobe Illustrator 21.1.0, SVG Export Plug-In . SVG Version: 6.00 Build 0)  -->
<svg version="1.1" id="Layer_3" xmlns="http://www.w3.org/2000/svg" xmlns:xlink="http://www.w3.org/1999/xlink" x="0px" y="0px"
	 viewBox="0 0 548.4 512" style="enable-background:new 0 0 548.4 512;" xml:space="preserve">
<g>
	<path d="M42.5,272.7l192.9-29c-0.5-1.7-0.8-3.5-1-5.3L42.5,272.7z"/>
	<path d="M404.4,208.1l-119.4,21.3c0.7,2.1,1.1,4.4,1.2,6.7l122.1-18.3C405.9,215,404.4,211.7,404.4,208.1L404.4,208.1z"/>
	<path d="M545.7,183.3C542.8,177.7,308.5,47.6,244.7,10c-10-5.9-20.7-8.8-31.3-8.8c-21.5,0-42.5,11.7-56.3,33.3
		c0,0-144.4,218.4-148.1,223.2c-3.7,4.8-6.1,9.3-7.6,14.3c-2.7,10-1.2,20.8,1.7,39.4l29.2,174.9c2.6,15.3,13.7,25.9,26.3,25.9
		c1.2,0,2.4-0.1,3.6-0.3c98.1-15.8,452.9-73.1,458.2-76.5c8.1-4.9,8.5-11.4,9.7-24.9c0.1-1.1,17.4-197.2,17.4-197.2
		C548.6,197.5,549.2,189.8,545.7,183.3z M515.8,210.1l0,0.9c-6.3,70.8-16.6,187.6-17.4,196.6c-47,8.7-209.5,35.6-434.7,71.8
		l-28.9-173c-1.8-11.2-3.4-21.7-2.5-25.7c0.2-0.5,0.6-1.5,2.1-3.4c1.4-1.9,10.8-15.8,28-41.6c0,0,0,0,0,0c1.3,6.6,9,11.7,18.4,11.7
		c10.3,0,18.6-6.1,18.6-13.6s-8.3-13.6-18.6-13.6c-3.4,0-6.5,0.7-9.2,1.8c0,0,0,0,0,0c1-1.5,2-3,3-4.5c11.7-17.6,25.9-39,42.6-64.2
		c-6.3-3.7-10.3-9.6-10.3-16.2c0-11.3,11.6-20.4,26-20.4c2.7,0,5.4,0.3,7.9,1c13.2-19.9,27.6-41.7,43.2-65.3L184,52l0.1-0.2
		c7.6-11.8,18.3-18.6,29.4-18.6c5.1,0,10.2,1.4,15,4.3c14.7,8.7,38.2,22.1,65.8,37.8c2.3-1.6,5-2.8,7.9-3.6
		c10-2.6,19.3,1.2,20.6,8.6c0.6,3.2-0.5,6.6-2.7,9.6c11.8,6.7,24,13.5,36.3,20.5c47.4,26.8,107.2,60.7,141.8,80.8l-47,8.4
		c1.8,2.5,2.8,5.4,2.8,8.4c0,1-0.1,1.9-0.3,2.8l62-9.3c0.2,0.1,0.4,0.2,0.6,0.4C516.1,204.5,515.9,207.4,515.8,210.1z"/>
	<ellipse cx="228" cy="122.2" rx="18.6" ry="13.6"/>
	<path d="M286.4,89.8c1.3,7.4,10.5,11.2,20.6,8.6c5.6-1.5,10.3-4.7,13.1-8.5c-8.9-5-17.6-10-25.8-14.7
		C288.7,79.1,285.5,84.6,286.4,89.8z"/>
	<ellipse cx="202.2" cy="67.2" rx="24.4" ry="17.9"/>
	<path d="M175.9,224.1c18.5,0,33.5-11.7,33.5-26.2s-15-26.2-33.5-26.2c-18.5,0-33.5,11.7-33.5,26.2S157.5,224.1,175.9,224.1z
		 M168.1,180.8c0.4-0.5,1.5-1,2.3-1c2.9,0,9.3,0.2,11.7,2.4c2.7,2.5,1.5,5.6,0.6,7.2c-0.3,0.5-1.4,1-2.3,1.1c-0.7,0-1.1-0.3-0.8-0.7
		c0.8-1.3,1.9-4.1-0.5-6.3c-2-1.8-7.8-2-10.4-2C168,181.6,167.8,181.3,168.1,180.8z"/>
	<path d="M339.5,179.4c19.7,0,35.7-12.5,35.7-28c0-15.5-16-28-35.7-28c-19.7,0-35.7,12.5-35.7,28
		C303.8,166.9,319.8,179.4,339.5,179.4z M341.4,135.9c3.5-0.2,11.3-0.2,16.9,3.1c6.3,3.8,8.7,8.9,9.5,11.5c0.3,0.9-0.3,1.7-1.3,1.9
		c-0.8,0.1-1.6-0.3-1.8-1c-0.7-2.1-2.8-6.7-8.2-9.9c-4.7-2.8-11.7-2.8-14.8-2.6c-0.9,0-1.6-0.5-1.7-1.3c0-0.1,0-0.1,0-0.2
		C339.8,136.6,340.5,136,341.4,135.9z"/>
	<path d="M158.8,136.9c0-9.1-7.6-16.8-18.1-19.4c-8.4,12.6-16.2,24.5-23.6,35.6c4.4,2.6,9.8,4.2,15.7,4.2
		C147.1,157.3,158.8,148.2,158.8,136.9z"/>
	<path d="M424.3,276.5c-4.1-22.7-28.9-35.5-55.5-28.6c-26.6,6.9-44.8,30.9-40.7,53.6c4.1,22.7,28.9,35.5,55.5,28.5
		C410.2,323.1,428.4,299.2,424.3,276.5z M376,268.1c-1,0.2-2-0.6-2.2-1.8c0-0.2,0-0.3,0-0.5c0-1.1,0.7-2.1,1.6-2.3
		c4-0.8,13.2-1.8,20.1,2.8c7.8,5.2,11.2,13,12.5,17c0.4,1.3-0.2,2.8-1.4,3.1h0c-0.9,0.3-1.9-0.3-2.2-1.4c-1.1-3.3-4-10.2-10.8-14.7
		C387.8,266.5,379.6,267.4,376,268.1z"/>
	<path d="M461.8,318.7c-10.3,5.1-16.1,17-12.8,26.6s14.3,13.2,24.6,8.2c10.3-5.1,16.1-17,12.8-26.6
		C483.1,317.3,472.1,313.6,461.8,318.7z"/>
	<path d="M473.8,234.2c-13.2,6.5-20.8,20.9-16.9,32.2c3.8,11.3,17.6,15.2,30.8,8.8c13.2-6.5,20.8-20.9,16.9-32.2
		C500.8,231.6,487,227.7,473.8,234.2z"/>
	<path d="M300.8,384.8c-12.3,2.7-21,13.7-19.4,24.6c1.6,10.9,13,17.5,25.3,14.8c12.3-2.7,21-13.7,19.4-24.6S313.1,382.1,300.8,384.8
		z"/>
	<path d="M398.5,367c-17.2,3.8-29.2,19.1-27,34.3c2.3,15.2,18.1,24.4,35.3,20.6s29.3-19.1,27-34.3
		C431.5,372.5,415.7,363.2,398.5,367z M424.9,391.1L424.9,391.1c-0.8,0.1-1.6-0.3-1.8-1c-0.7-2.1-2.8-6.7-8.2-9.9
		c-4.7-2.8-11.7-2.8-14.8-2.6c-0.9,0-1.6-0.5-1.7-1.3c0-0.1,0-0.1,0-0.2c0-0.8,0.7-1.4,1.5-1.5c3.5-0.2,11.3-0.2,16.9,3.1
		c6.3,3.8,8.7,8.9,9.6,11.5C426.5,390.1,425.8,390.9,424.9,391.1z"/>
	<path d="M183.5,350c-19.9,4.4-33.8,22.1-31.2,39.6c2.7,17.5,20.9,28.2,40.8,23.8s33.8-22.1,31.2-39.6
		C221.6,356.3,203.3,345.7,183.5,350z M210.1,380.4c-1.2,0.8-2.6,0.6-3.6-0.5c-1.8-2.3-5.5-6-12-8.4c-1.5-0.6-5.3-0.9-8.5-1.1
		c-1.6-0.1-2.8-1.6-2.8-3.5v0c0-2,1.4-3.5,3-3.4c3.1,0.2,7.7,0.5,10,1.4c7.5,2.8,12,7.2,14.4,10.2
		C212,376.6,211.7,379.2,210.1,380.4z"/>
	<path d="M117.8,327.8c-2.3-15.3-17.9-24.8-34.8-21.1c-16.9,3.7-28.8,19.2-26.4,34.5c2.3,15.3,17.9,24.8,34.8,21.1
		C108.3,358.6,120.2,343.1,117.8,327.8z"/>
	<path d="M203.7,313.2c10.7-2.3,18.1-12.1,16.7-21.7c-1.5-9.7-11.3-15.6-22-13.3s-18.1,12.1-16.7,21.7S193.1,315.5,203.7,313.2z"/>
	<path d="M103.6,422.1c-9.7,2.1-16.4,10.8-15.1,19.3c1.3,8.6,10.2,13.8,19.8,11.7c9.7-2.1,16.4-10.8,15.1-19.3
		C122.2,425.2,113.3,420,103.6,422.1z"/>
	<path d="M260.3,211.9c-14.3,0-25.9,11.2-25.9,24.9c0,0.5,0,1.1,0,1.6l50.6-9C281.8,219.3,271.9,211.9,260.3,211.9z"/>
	<path d="M260.3,261.8c14.3,0,25.9-11.2,25.9-24.9c0-0.3,0-0.5,0-0.8l-50.8,7.6C238.5,254.1,248.5,261.8,260.3,261.8z"/>
	<path d="M429.2,190.1c-13.7,0-24.7,8-24.8,18l46.7-8.3C447,194,438.7,190.1,429.2,190.1z"/>
	<path d="M429.2,226.2c12.3,0,22.6-6.6,24.5-15.2l-45.4,6.8C412.7,222.8,420.4,226.2,429.2,226.2z"/>
</g>
</svg>
