<?xml version="1.0" encoding="utf-8"?>
<!-- Generator: Adobe Illustrator 21.1.0, SVG Export Plug-In . SVG Version: 6.00 Build 0)  -->
<svg version="1.1" id="Layer_4" xmlns="http://www.w3.org/2000/svg" xmlns:xlink="http://www.w3.org/1999/xlink" x="0px" y="0px"
	 viewBox="0 0 450.2 512" style="enable-background:new 0 0 450.2 512;" xml:space="preserve">
<g>
	<path d="M224.9,122.4l98.1,92.9h-38.1l84.8,101.9h-62.8l79.6,106.8H63.7l79.4-106.8H80.5l84.6-101.9h-38L224.9,122.4 M225.1,73.3
		c-2.8,0-5.1,2.3-5.1,5.1c0,1.3,0.5,2.4,1.2,3.3L46.9,247.2h50L12.3,349.1h67.1L0,455.9h194.5V512h61.3v-56.1h194.5l-79.6-106.8
		h67.3l-84.8-101.9h50.2L228.8,82c0.9-0.9,1.4-2.2,1.4-3.6C230.2,75.6,227.9,73.3,225.1,73.3L225.1,73.3z"/>
	<path d="M255.1,27.9h-5l4.9-4.9l-2.3-2.3l-7.3,7.3h-8.3l5.4-5.4l-7.4,0l4-4h10v-3.3h-7l5.2-5.1l-2.7-2.7h0l-5.2,5.1V5.7h-3.1v10.1
		l-4.3,4.2v-7.6l-5.2,5.1v-8l7.3-7.2L232,0L227,4.9V0h-4v4.7L218.3,0L216,2.3l7,7v8.5l-5.4-5.4V20l-4.7-4.8V5h-3.3v7L205,7.5
		l-2.7,2.7l4.5,4.5h-7V18h10l4.7,4.7h-7.4l5.2,5.2h-7.9l-7.1-7.1l-2.3,2.3l4.9,4.8h-4.9v4h4.8l-4.8,4.8l2.3,2.3l7.1-7.1h8.2
		l-5.4,5.4h7.6l-4.7,4.7h-10v3.3h6.6l-4.2,4.4l2.6,2.6l4.5-4.5v6.9h3.3V44.6l4.7-4.8l0,7.7l5.4-5.4v8.3l-7,7l2.3,2.3l4.7-4.7v4.7h4
		v-4.9l4.9,4.9l2.3-2.3l-7.2-7.2v-7.9l5.2,5.2l0-7.6l4.3,4.2v10.2h3.1v-7l5.2,5.2l2.7-2.7l-5.2-5.2h7v-3.3H239l-4.2-4.2l7.7,0
		l-5.4-5.4h8.6l7.2,7.2l2.3-2.3l-4.9-4.9h4.9V27.9z M218.3,34h-3l2.1-2.1h3L218.3,34z M217.4,28.1l-2.1-2.1h3.1l2.1,2.1H217.4z
		 M223,37.5l-2.1,2.1v-3l2.1-2.1V37.5z M223,25.4l-2.1-2.1v-3l2.1,2.1V25.4z M228.9,39.6l-1.9-1.9v-3l1.9,1.9V39.6z M228.9,23.2
		l-1.9,1.9v-3l1.9-1.9V23.2z M231.6,33.8l-2.1-2.1h3.1l2.1,2.1H231.6z M232.6,27.9h-3l2.1-2.1h3L232.6,27.9z"/>
</g>
</svg>
