<?xml version="1.0" encoding="utf-8"?>
<!-- Generator: Adobe Illustrator 21.1.0, SVG Export Plug-In . SVG Version: 6.00 Build 0)  -->
<svg version="1.1" id="Layer_1" xmlns="http://www.w3.org/2000/svg" xmlns:xlink="http://www.w3.org/1999/xlink" x="0px" y="0px"
	 viewBox="0 0 554.1 512" style="enable-background:new 0 0 554.1 512;" xml:space="preserve">
<g>
	<g>
		<path d="M538.7,3.4c-8.8,0-12.7,6-13.1,6.6L288.1,292.9l-82-103.9c-4.5-7.6-14.3-10.4-21.9-6.1c-7.6,4.2-10.1,13.9-5.7,21.5
			l86.6,109.1c16.6,16.6,29.8,15.9,47.3-1.6c1.4-1.4,14.7-15.9,15.8-17c0,0,161.1-191.9,204-242.9c15.6-18.6,21.9-25.8,21.9-33.2
			S548.3,3.4,538.7,3.4z M479.6,269.4c-6.9,117.8-104.7,211.3-224.3,211.3C131.3,480.6,30.7,380.1,30.7,256S131.3,31.4,255.3,31.4
			c29.1,0,56.9,5.5,82.5,15.6c0.3,0.1,1,0.4,1,0.4l16.1-26.2c0,0-0.6-0.3-0.9-0.4C323.7,8.1,290.3,1,255.3,1
			C114.5,1,0.3,115.2,0.3,256s114.2,255,255,255C391.7,511,503,404,510,269.4c0-0.4,0.1-1.3,0.1-1.3h-30.4
			C479.7,268.1,479.6,269,479.6,269.4z"/>
	</g>
</g>
</svg>
