<?xml version="1.0" encoding="utf-8"?>
<!-- Generator: Adobe Illustrator 21.1.0, SVG Export Plug-In . SVG Version: 6.00 Build 0)  -->
<svg version="1.1" id="Layer_1" xmlns="http://www.w3.org/2000/svg" xmlns:xlink="http://www.w3.org/1999/xlink" x="0px" y="0px"
	 viewBox="0 0 512 512" style="enable-background:new 0 0 512 512;" xml:space="preserve">
<g id="_x33_2">
	<path d="M256,0C114.6,0,0,114.6,0,256s114.6,256,256,256s256-114.6,256-256S397.4,0,256,0z M256,480C132.3,480,32,379.7,32,256
		S132.3,32,256,32s224,100.3,224,224S379.7,480,256,480z"/>
</g>
<g id="XMLID_1_">
	<path id="XMLID_2_" d="M273.5,380.7c0,2.9-2.3,5.2-5.2,5.2h-22.5c-2.9,0-5.2-2.3-5.2-5.2V200.4h32.9V380.7z"/>
</g>
<circle cx="257" cy="148.1" r="26.4"/>
</svg>
