<?xml version="1.0" encoding="utf-8"?>
<!-- Generator: Adobe Illustrator 22.0.1, SVG Export Plug-In . SVG Version: 6.00 Build 0)  -->
<svg version="1.1" id="Layer_1" xmlns="http://www.w3.org/2000/svg" xmlns:xlink="http://www.w3.org/1999/xlink" x="0px" y="0px"
	 viewBox="0 0 454 512" style="enable-background:new 0 0 454 512;" xml:space="preserve">
<g id="XMLID_23_">
	<path d="M218.5,224.8l178.8,77.3L366,325.7l-25.6,19.2l19.2,25.6l52.4,69.7l-40.6,30.5l-52.4-69.7l-19.2-25.6l-25.6,19.2L243,418.1
		L218.5,224.8 M190.2,178.5c-1.8,0-3.7,0.6-5.2,1.7c-2.5,1.9-3.8,4.9-3.4,8L216.3,462c0.4,3.1,2.4,5.7,5.2,6.9
		c1.1,0.5,2.2,0.7,3.4,0.7c1.8,0,3.7-0.6,5.2-1.7l63.4-47.6l66.4,88.4c1.7,2.3,4.3,3.5,6.9,3.5c1.8,0,3.6-0.6,5.2-1.7l77.9-58.5
		c1.8-1.4,3-3.4,3.4-5.7c0.3-2.3-0.3-4.6-1.6-6.4l-66.4-88.4l63.4-47.6c2.5-1.8,3.8-4.9,3.4-7.9c-0.4-3.1-2.3-5.7-5.1-6.9
		L193.7,179.2C192.6,178.7,191.4,178.5,190.2,178.5L190.2,178.5z"/>
	<path d="M140,136.5L140,136.5c-6.2,6.2-16.4,6.2-22.6,0L54.5,73.6c-6.2-6.2-6.2-16.4,0-22.6l0,0c6.2-6.2,16.4-6.2,22.6,0l62.9,62.9
		C146.3,120.2,146.3,130.3,140,136.5z"/>
	<path d="M215.7,137.2L215.7,137.2c-6.2-6.2-6.2-16.4,0-22.6l62.9-62.9c6.2-6.2,16.4-6.2,22.6,0l0,0c6.2,6.2,6.2,16.4,0,22.6
		l-62.9,62.9C232.1,143.5,221.9,143.5,215.7,137.2z"/>
	<path d="M140.7,212.2L140.7,212.2c6.2,6.2,6.2,16.4,0,22.6l-62.9,62.9c-6.2,6.2-16.4,6.2-22.6,0l0,0c-6.2-6.2-6.2-16.4,0-22.6
		l62.9-62.9C124.4,205.9,134.5,205.9,140.7,212.2z"/>
	<path d="M177.9,121.7L177.9,121.7c-8.8,0-16-7.2-16-16v-89c0-8.8,7.2-16,16-16h0c8.8,0,16,7.2,16,16v89
		C193.9,114.6,186.7,121.7,177.9,121.7z"/>
	<path d="M124.5,175.1L124.5,175.1c0,8.8-7.2,16-16,16h-89c-8.8,0-16-7.2-16-16v0c0-8.8,7.2-16,16-16h89
		C117.4,159.1,124.5,166.2,124.5,175.1z"/>
</g>
</svg>
