<?xml version="1.0" encoding="utf-8"?>
<!-- Generator: Adobe Illustrator 21.1.0, SVG Export Plug-In . SVG Version: 6.00 Build 0)  -->
<svg version="1.1" id="Layer_1" xmlns="http://www.w3.org/2000/svg" xmlns:xlink="http://www.w3.org/1999/xlink" x="0px" y="0px"
	 viewBox="0 0 524.3 512" style="enable-background:new 0 0 524.3 512;" xml:space="preserve">
<g>
	<path d="M455.6,511.1H68V250l168.5-147.5c24.5-24.6,24.9-24.5,49.4,0L455.6,250V511.1z M501.4,249c0,0-230.5-206.5-232.1-208.2
		c-7.8-7.8-7.8-7.9-15.9,0C251.8,42.3,22.1,250,22.1,250l-22.8-21.7c0,0,217.8-197.4,237.2-216.4c6.6-7.3,14.8-11,24.4-11
		c10.3,0,18.6,3.7,25,11C335.8,61,523.6,228.3,523.6,228.3L501.4,249z M244.9,138.8L100.8,263l-0.2,216.8l322.1-0.5V263L277.9,138.8
		C261.6,122.5,261.1,122.6,244.9,138.8z"/>
</g>
<polygon points="334.4,329.6 276.6,329.6 276.6,271.8 244.6,271.8 244.6,329.6 186.8,329.6 186.8,361.6 244.6,361.6 244.6,419.4 
	276.6,419.4 276.6,361.6 334.4,361.6 "/>
</svg>
