<?xml version="1.0" encoding="utf-8"?>
<!-- Generator: Adobe Illustrator 21.1.0, SVG Export Plug-In . SVG Version: 6.00 Build 0)  -->
<svg version="1.1" id="Layer_1" xmlns="http://www.w3.org/2000/svg" xmlns:xlink="http://www.w3.org/1999/xlink" x="0px" y="0px"
	 viewBox="0 0 408 512" style="enable-background:new 0 0 408 512;" xml:space="preserve">
<g>
	<path d="M277.3,70.4l-12.1-14.2c-3-31-29.1-55.2-60.9-55.2c-31.8,0-57.9,24.2-60.9,55.2l-12.2,14.3L0,70.7V513h408V70.3L277.3,70.4
		z M204.3,25.3c6.1,0,11.1,5,11.1,11.1s-5,11.1-11.1,11.1c-6.1,0-11.1-5-11.1-11.1S198.2,25.3,204.3,25.3z M376,481H32V107
		c0,0,48.4,0,67.8,0l-14.6,17.6c-6.7,8.1-1,20.4,9.6,20.4l219.7-0.1c10.9-0.1,16-13.3,8.4-21.2L307,107c16.7,0,69,0,69,0V481z"/>
	<path d="M122.1,415.3H87.2v-32h34.9V415.3z M122.1,326.4H87.2v-32h34.9V326.4z M122.1,237.4H87.2v-32h34.9V237.4z M322.8,415.3
		H155.6v-32h167.3v32H322.8z M322.8,326.4H155.6v-32h167.3v32H322.8z M322.8,237.4H155.6v-32h167.3v32H322.8z"/>
</g>
</svg>
