<?xml version="1.0" encoding="utf-8"?>
<!-- Generator: Adobe Illustrator 21.1.0, SVG Export Plug-In . SVG Version: 6.00 Build 0)  -->
<svg version="1.1" id="Layer_1" xmlns="http://www.w3.org/2000/svg" xmlns:xlink="http://www.w3.org/1999/xlink" x="0px" y="0px"
	 viewBox="0 0 408 512" style="enable-background:new 0 0 408 512;" xml:space="preserve">
<g>
	<path d="M305,329.6l-21.4-21.4l-40.5,40.5l-21.3-21.3c21.7-8.7,36.4-29.7,36.4-53.5c0-31.8-25.9-57.8-57.8-57.8h-79.2v190.3h30.2
		v-74.7h32l38.3,38.3l-19.2,19.2c-11.8,11.8-11.8,30.9,0,42.7l0,0l40.5-40.5l40.5,40.5l0,0c11.8-11.8,11.8-30.9,0-42.7L264.3,370
		L305,329.6z M200.5,301.6h-49v-55.2h49c15.2,0,27.6,12.4,27.6,27.6S215.7,301.6,200.5,301.6z"/>
	<path d="M277.3,70.4l-12.1-14.2c-3-31-29.1-55.2-60.9-55.2s-57.9,24.2-60.9,55.2l-12.2,14.3L0,70.7V513h408V70.3L277.3,70.4z
		 M204.3,25.3c6.1,0,11.1,5,11.1,11.1s-5,11.1-11.1,11.1s-11.1-5-11.1-11.1S198.2,25.3,204.3,25.3z M376,481H32V107
		c0,0,48.4,0,67.8,0l-14.6,17.6c-6.7,8.1-1,20.4,9.6,20.4l219.7-0.1c10.9-0.1,16-13.3,8.4-21.2L307,107c16.7,0,69,0,69,0V481z"/>
</g>
</svg>
