<?xml version="1.0" encoding="utf-8"?>
<!-- Generator: Adobe Illustrator 21.1.0, SVG Export Plug-In . SVG Version: 6.00 Build 0)  -->
<svg version="1.1" id="Layer_1" xmlns="http://www.w3.org/2000/svg" xmlns:xlink="http://www.w3.org/1999/xlink" x="0px" y="0px"
	 viewBox="0 0 408 512" style="enable-background:new 0 0 408 512;" xml:space="preserve">
<g>
	<path d="M277.3,70.4l-12.1-14.2c-3-31-29.1-55.2-60.9-55.2c-31.8,0-57.9,24.2-60.9,55.2l-12.2,14.3L0,70.7V513h408V70.3L277.3,70.4
		z M204.3,25.3c6.1,0,11.1,5,11.1,11.1s-5,11.1-11.1,11.1c-6.1,0-11.1-5-11.1-11.1S198.2,25.3,204.3,25.3z M376,481H32V107
		c0,0,48.4,0,67.8,0l-14.6,17.6c-6.7,8.1-1,20.4,9.6,20.4l219.7-0.1c10.9-0.1,16-13.3,8.4-21.2L307,107c16.7,0,69,0,69,0V481z"/>
	<path d="M264.5,348.4c-13.1-5.1-26.8-10.1-26.8-10.1c-0.1-0.3-1.3-4.7-7.9-10.9v-9c0,0,20.8-22.9,24-51.8
		c0.1-1.1,9.4-63.8-49.6-64.1h-0.4c-59.1,0.2-49.8,62.9-49.6,64.1c3.2,28.8,24,51.8,24,51.8v9c-6.6,6.2-7.8,10.6-7.9,10.9
		c0,0-13.7,5-26.8,10.1c-13.1,5.1-43.4,15.8-43.4,45c0,36.3,79.8,38.5,99.5,38.5c2.4,0,6.6,0,9,0c19.7,0,99.5-2.2,99.5-38.5
		C307.9,364.2,277.6,353.5,264.5,348.4z M203.9,408.7c-67.6,0-80.2-14.8-80.6-15.4c-3.7-19.2,64.9-36.7,64.9-36.7l3.6-9.7
		c0.3-0.4,1-1.3,2.2-2.5l7.3-6.9v-19l0.2-9c0,0-12.2-12.7-19.8-29.5S171.2,226,203.9,226c34.4,0,29,39,22.6,54.1
		c-6.4,15.1-20.1,29.5-20.1,29.5l0.2,9v19l7.3,6.9c1.3,1.2,2,2.1,2.2,2.5l3.6,9.7c0,0,67.5,17.5,64.9,36.7
		C284.2,393.8,272.7,408.7,203.9,408.7z"/>
</g>
</svg>
