<?xml version="1.0" encoding="utf-8"?>
<!-- Generator: Adobe Illustrator 21.1.0, SVG Export Plug-In . SVG Version: 6.00 Build 0)  -->
<svg version="1.1" id="Layer_2" xmlns="http://www.w3.org/2000/svg" xmlns:xlink="http://www.w3.org/1999/xlink" x="0px" y="0px"
	 viewBox="0 0 512 512" style="enable-background:new 0 0 512 512;" xml:space="preserve">
<g>
	<path d="M256,0C114.6,0,0,114.6,0,256s114.6,256,256,256s256-114.6,256-256S397.4,0,256,0z M256,480C132.3,480,32,379.7,32,256
		S132.3,32,256,32s224,100.3,224,224S379.7,480,256,480z"/>
	<path d="M406.3,268.6c-3.3-2.6-7.4-4.3-11.7-4.7l-108.5-11.1c-1.2-7-5-13.4-10.5-17.8l6.7-9.7l-3.3-2.3l-6.5,9.7
		c-2-1.2-4-2.3-6.2-3l-3.8-1.1c-0.9-0.2-1.8-0.3-2.6-0.5l-13.1-59.4c-1.8-8.5-7-16-14.3-20.7l-20.8-13.4l-6.5,21.6
		c-3,9.7-2,20.2,2.7,29.2l27.2,51.7c-3.5,3.6-6.2,8.1-7.6,13.2c-3.3,12.3,1.5,25.1,11.3,32.2l-35.3,50.8c-7.4-3.8-16.7-1.7-21.6,5.5
		c-4.9,7.1-3.5,16.6,2.9,22l-8.5,12.5l3.3,2.3l8.5-12.5c7.4,3.8,16.7,1.7,21.6-5.5c4.9-7.1,3.5-16.6-2.9-22l35-51.1
		c1.5,0.9,3.2,1.5,4.9,2.1l3.8,1.1c13.8,2.7,27.7-4.4,33.4-16.9L390,293.5c4.3,0.9,8.5,0.6,12.6-0.9l23.7-8.7L406.3,268.6z
		 M273.9,263c-2.4,9.1-11.6,14.9-20.7,13.4c-0.6-0.2-1.4-0.3-2-0.5c-0.6-0.2-1.2-0.5-1.8-0.6c-8.7-3.3-13.5-12.9-11.1-22
		c2.4-9.1,11.6-14.9,20.7-13.4c0.6,0.2,1.4,0.3,2,0.5s1.2,0.5,1.8,0.6C271.6,244.3,276.5,253.7,273.9,263z"/>
</g>
</svg>
