<?xml version="1.0" encoding="utf-8"?>
<!-- Generator: Adobe Illustrator 21.1.0, SVG Export Plug-In . SVG Version: 6.00 Build 0)  -->
<svg version="1.1" id="Layer_4" xmlns="http://www.w3.org/2000/svg" xmlns:xlink="http://www.w3.org/1999/xlink" x="0px" y="0px"
	 viewBox="0 0 505.8 512" style="enable-background:new 0 0 505.8 512;" xml:space="preserve">
<path id="_x33_2" d="M341.9,170.7V0H0.5v341.3h164V512h341.3V170.7H341.9z M473.1,251.1l-66.8-47.6h66.8V251.1z M385.9,203.4
	l87.2,62.2v47L341.9,219v-15.6H385.9z M341.9,293.3l131.2,93.5v44.8l-131.2-93.5V293.3z M341.9,278.7v-45.1l131.2,93.5v45.1
	L341.9,278.7z M33.3,32.7h275.9v275.9H33.3V32.7z M241.7,341.3l193.5,137.9h-60.3L197.3,352.6v-11.3H241.7z M197.3,367.2
	l157.3,112.1h-64.1l-93.2-66.4V367.2z M197.3,427.4l72.8,51.9h-72.8V427.4z M455.6,479.3L262.1,341.3h64l147.1,104.8v33.1H455.6z"/>
</svg>
