<?xml version="1.0" encoding="utf-8"?>
<!-- Generator: Adobe Illustrator 21.1.0, SVG Export Plug-In . SVG Version: 6.00 Build 0)  -->
<svg version="1.1" id="Layer_1" focusable="false" xmlns="http://www.w3.org/2000/svg" xmlns:xlink="http://www.w3.org/1999/xlink"
	 x="0px" y="0px" viewBox="0 0 512 512" style="enable-background:new 0 0 512 512;" xml:space="preserve">
<g id="_x33_2_1_">
	<path d="M444.4,121.8C429.5,51.1,365.6,0,291.5,0c-44.7,0-87.2,18.8-116.9,51.6c-0.5,0-1,0-1.4,0c-40.6,0-76.6,26.1-90.4,65.3
		c-48.4,10.7-83.2,55-83.2,106.4c0,59.9,47.2,108.7,105.2,108.7h301.9c28.1,0,54.5-11.4,74.3-32c19.8-20.5,30.8-47.7,30.8-76.8
		C511.7,178.3,484.7,137.9,444.4,121.8z M104.8,300c-19.8,0-38.4-8-52.3-22.5c-14-14.5-21.7-33.8-21.7-54.3
		c0-37,25.4-68.7,60.4-75.5l10.5-2c3.1-0.3,6.2-0.5,9.5-0.5c21.4,0,37,7.7,52,25.8l10.7,12.9l-2.8-16.5c-1.2-7.2-4.7-21.1-14.5-32.8
		c-9.4-11.3-22.1-18-38-20.1c11.9-19.3,32.8-32.1,59-32.1c26.4,0,47.4,16,59.6,39.4l7.1,13.6l1.4-15.3c1.5-16.4-6.7-45.8-33.7-60.3
		C234.4,41.8,262.4,32,291.6,32c15.1,0,29.9,2.6,43.8,7.6c13.5,4.8,25.9,11.9,36.9,20.9c18.3,15,32,35.2,38.9,57.3
		c-38.2,0.4-51.5,29.5-54.7,38.8l-5.1,14.6l12.1-9.6c19-14.9,37.6-18.8,62.3-12.9l5.7,2.1c14.3,5.3,26.4,14.8,35.3,27.6
		c9.1,13.2,13.9,28.6,13.9,44.7c0,20.5-7.7,39.8-21.7,54.3c-14,14.5-32.5,22.5-52.3,22.5H104.8z"/>
	<path d="M93.8,384.3L40.6,502.6c-2.7,6-8.6,9.4-14.8,9.4c-2.2,0-4.6-0.4-6.7-1.3c-8.1-3.7-11.4-13.4-7.7-21.5l53.2-118.3
		c2.3-5.1,7-8.5,12.1-9.4c3.1-0.5,6.4,0,9.4,1.3C94.2,366.4,97.5,376.2,93.8,384.3z M133.3,512c-10.6,0-19.2-8.6-19.2-19.2
		c0-10.6,8.6-19.2,19.2-19.2c10.6,0,19.2,8.6,19.2,19.2C152.5,503.4,143.9,512,133.3,512z M195.7,384.3L165.6,450
		c-2.7,6-8.6,9.4-14.8,9.4c-2.2,0-4.2-0.4-6.4-1.3c-8.1-3.7-11.8-13.4-8.1-21.5l29.8-65.8c2.3-5.1,7-8.5,12.1-9.4
		c3.1-0.5,6.4,0,9.4,1.3C195.8,366.4,199.4,376.2,195.7,384.3z M297.2,384.3l-53.6,118.3c-2.7,6-8.7,9.4-14.8,9.4
		c-2.2,0-4.2-0.4-6.4-1.3c-8.1-3.7-11.7-13.4-8.1-21.5l53.2-118.3c2.3-5.1,7-8.5,12.1-9.4c3.1-0.5,6.4,0,9.4,1.3
		C297.3,366.4,300.9,376.2,297.2,384.3z M332.9,512c-10.6,0-19.2-8.6-19.2-19.2c0-10.6,8.6-19.2,19.2-19.2s19.2,8.6,19.2,19.2
		C352.1,503.4,343.5,512,332.9,512z M398.7,384.3L368.6,450c-2.7,6-8.6,9.4-14.8,9.4c-2.2,0-4.2-0.4-6.4-1.3
		c-8.1-3.7-11.8-13.4-8.1-21.5l29.8-65.8c2.3-5.1,7-8.5,12.1-9.4c3.1-0.5,6.4,0,9.4,1.3C398.8,366.4,402.4,376.2,398.7,384.3z
		 M500.8,384.3l-53.6,118.3c-2.7,6-8.6,9.4-14.8,9.4c-2.2,0-4.2-0.4-6.4-1.3c-8.1-3.7-11.8-13.4-8.1-21.5l53.2-118.3
		c2.3-5.1,7-8.5,12.1-9.4c3.1-0.5,6.4,0,9.4,1.3C500.9,366.4,504.5,376.2,500.8,384.3z"/>
</g>
</svg>
