<?xml version="1.0" encoding="utf-8"?>
<!-- Generator: Adobe Illustrator 22.0.1, SVG Export Plug-In . SVG Version: 6.00 Build 0)  -->
<svg version="1.1" id="Layer_4" xmlns="http://www.w3.org/2000/svg" xmlns:xlink="http://www.w3.org/1999/xlink" x="0px" y="0px"
	 viewBox="0 0 512 512" style="enable-background:new 0 0 512 512;" xml:space="preserve">
<g id="_x33_2">
	<path d="M444.7,302c-14.9-70.7-78.8-121.8-152.9-121.8c-44.7,0-87.2,18.8-116.9,51.6c-0.5,0-1,0-1.4,0c-40.6,0-76.6,26.1-90.4,65.3
		c-48.4,10.7-83.2,55-83.2,106.4c0,59.9,47.2,108.7,105.2,108.7H407c28.1,0,54.5-11.4,74.3-32c19.8-20.5,30.8-47.7,30.8-76.8
		C512,358.5,485,318.1,444.7,302z M459.3,457.6c-14,14.5-32.5,22.5-52.3,22.5H105.1v0.1c-19.8,0-38.4-8-52.3-22.5
		c-14-14.5-21.7-33.8-21.7-54.3c0-37,25.4-68.7,60.4-75.5l10.5-2c3.1-0.3,6.2-0.5,9.5-0.5c21.4,0,37,7.7,52,25.8l10.7,12.9
		l-2.8-16.5c-1.2-7.2-4.7-21.1-14.5-32.8c-9.4-11.3-22.1-18-38-20.1c11.9-19.3,32.8-32.1,59-32.1c26.4,0,47.4,16,59.6,39.4l7.1,13.6
		l1.4-15.3c1.5-16.4-6.7-45.8-33.7-60.3c22.4-18,50.4-27.8,79.6-27.8c15.1,0,29.9,2.6,43.8,7.6c13.5,4.8,25.9,11.9,36.9,20.9
		c18.3,15,32,35.2,38.9,57.3c-38.2,0.4-51.5,29.5-54.7,38.8l-5.1,14.6l12.1-9.6c19-14.9,37.6-18.8,62.3-12.9l5.7,2.1
		c14.3,5.3,26.4,14.8,35.3,27.6c9.1,13.2,13.9,28.6,13.9,44.7C481,423.8,473.3,443.1,459.3,457.6z"/>
	<path d="M143.8,0c48.9,20.1,77.6,59.3,77.6,108.3c0,62.4-51.1,113.1-114.2,113.1C58,221.4,16.9,190,0,145l23.3,18.2
		C39.6,174,57.7,179,77.5,179c55.3,0,101.4-45.7,101.4-98.6C178.9,60.6,176.4,35,143.8,0z"/>
</g>
</svg>
