<?xml version="1.0" encoding="utf-8"?>
<!-- Generator: Adobe Illustrator 21.1.0, SVG Export Plug-In . SVG Version: 6.00 Build 0)  -->
<svg version="1.1" id="Layer_1" focusable="false" xmlns="http://www.w3.org/2000/svg" xmlns:xlink="http://www.w3.org/1999/xlink"
	 x="0px" y="0px" viewBox="0 0 512 512" style="enable-background:new 0 0 512 512;" xml:space="preserve">
<g id="_x33_2_1_">
	<path d="M444.4,121.8C429.5,51.1,365.6,0,291.5,0c-44.7,0-87.2,18.8-116.9,51.6c-0.5,0-1,0-1.4,0c-40.6,0-76.6,26.1-90.4,65.3
		c-48.4,10.7-83.2,55-83.2,106.4c0,59.9,47.2,108.7,105.2,108.7h301.9c28.1,0,54.5-11.4,74.3-32c19.8-20.5,30.8-47.7,30.8-76.8
		C511.7,178.3,484.7,137.9,444.4,121.8z M104.8,300c-19.8,0-38.4-8-52.3-22.5c-14-14.5-21.7-33.8-21.7-54.3
		c0-37,25.4-68.7,60.4-75.5l10.5-2c3.1-0.3,6.2-0.5,9.5-0.5c21.4,0,37,7.7,52,25.8l10.7,12.9l-2.8-16.5c-1.2-7.2-4.7-21.1-14.5-32.8
		c-9.4-11.3-22.1-18-38-20.1c11.9-19.3,32.8-32.1,59-32.1c26.4,0,47.4,16,59.6,39.4l7.1,13.6l1.4-15.3c1.5-16.4-6.7-45.8-33.7-60.3
		C234.4,41.8,262.4,32,291.6,32c15.1,0,29.9,2.6,43.8,7.6c13.5,4.8,25.9,11.9,36.9,20.9c18.3,15,32,35.2,38.9,57.3
		c-38.2,0.4-51.5,29.5-54.7,38.8l-5.1,14.6l12.1-9.6c19-14.9,37.6-18.8,62.3-12.9l5.7,2.1c14.3,5.3,26.4,14.8,35.3,27.6
		c9.1,13.2,13.9,28.6,13.9,44.7c0,20.5-7.7,39.8-21.7,54.3c-14,14.5-32.5,22.5-52.3,22.5H104.8z"/>
	<path d="M67,388.8c0-15.3,12.4-27.6,27.6-27.6s27.6,12.4,27.6,27.6s-12.4,27.6-27.6,27.6S67,404.1,67,388.8z M141,512
		c-15.3,0-27.6-12.4-27.6-27.6s12.4-27.6,27.6-27.6s27.6,12.4,27.6,27.6S156.2,512,141,512z M168.9,388.8
		c0-15.3,12.4-27.6,27.6-27.6s27.6,12.4,27.6,27.6s-12.4,27.6-27.6,27.6S168.9,404.1,168.9,388.8z M242.9,512
		c-15.3,0-27.6-12.4-27.6-27.6s12.4-27.6,27.6-27.6s27.6,12.4,27.6,27.6S258.1,512,242.9,512z M270.5,388.8
		c0-15.3,12.4-27.6,27.6-27.6s27.6,12.4,27.6,27.6s-12.4,27.6-27.6,27.6S270.5,404.1,270.5,388.8z M344.5,512
		c-15.3,0-27.6-12.4-27.6-27.6s12.4-27.6,27.6-27.6s27.6,12.4,27.6,27.6S359.7,512,344.5,512z M399.7,416.4
		c-15.3,0-27.6-12.4-27.6-27.6s12.4-27.6,27.6-27.6c15.2,0,27.6,12.4,27.6,27.6S414.9,416.4,399.7,416.4z"/>
</g>
</svg>
