<?xml version="1.0" encoding="utf-8"?>
<!-- Generator: Adobe Illustrator 22.0.1, SVG Export Plug-In . SVG Version: 6.00 Build 0)  -->
<svg version="1.1" id="Layer_1" focusable="false" xmlns="http://www.w3.org/2000/svg" xmlns:xlink="http://www.w3.org/1999/xlink"
	 x="0px" y="0px" viewBox="0 0 512 512" style="enable-background:new 0 0 512 512;" xml:space="preserve">
<g id="light">
	<rect x="171.8" y="-0.7" width="47.3" height="68.7"/>
	<rect y="171.1" width="68.7" height="47.3"/>
	<path d="M391,171.1v7.3c-4.1-2.6-8.4-5-12.7-7.3H391z"/>
	<rect x="91.3" y="20.9" transform="matrix(0.866 -0.5 0.5 0.866 -12.2104 64.8845)" width="47.3" height="68.7"/>
	<rect x="32.2" y="79.8" transform="matrix(0.5 -0.866 0.866 0.5 -70.8985 105.4934)" width="47.3" height="68.7"/>
	<rect x="300.7" y="90.5" transform="matrix(0.866 -0.5 0.5 0.866 -12.1904 182.8113)" width="68.7" height="47.3"/>
	<path d="M79.3,247c-7.1,8.3-13.1,17.7-17.9,27.8c-12.4,4.2-24.2,10.3-34.9,18l-12-20.8l59.5-34.4L79.3,247z"/>
	<rect x="241.8" y="31.6" transform="matrix(0.5 -0.866 0.866 0.5 90.2296 266.7411)" width="68.7" height="47.3"/>
	<path d="M287.5,150.2c-24.1,0.6-47.4,5.8-69.4,15.4c-20.6,9-39.1,21.5-55.1,37.2l-14.9,3.1c-18.1,3.7-34.9,11.5-49.3,22.6
		c-3.6-10.5-5.6-21.8-5.6-33.5c0-56.5,45.8-102.3,102.3-102.3C236,92.6,270.9,116.1,287.5,150.2z"/>
	<path d="M444.7,302c-14.9-70.7-78.8-121.8-152.9-121.8c-44.7,0-87.2,18.8-116.9,51.6c-0.5,0-1,0-1.4,0c-40.6,0-76.6,26.1-90.4,65.3
		c-48.4,10.7-83.2,55-83.2,106.4c0,59.9,47.2,108.7,105.2,108.7H407c28.1,0,54.5-11.4,74.3-32c19.8-20.5,30.8-47.7,30.8-76.8
		C512,358.5,485,318.1,444.7,302z M459.3,457.6c-14,14.5-32.5,22.5-52.3,22.5H105.1v0.1c-19.8,0-38.4-8-52.3-22.5
		c-14-14.5-21.7-33.8-21.7-54.3c0-37,25.4-68.7,60.4-75.5l10.5-2c3.1-0.3,6.2-0.5,9.5-0.5c21.4,0,37,7.7,52,25.8l10.7,12.9
		l-2.8-16.5c-1.2-7.2-4.7-21.1-14.5-32.8c-9.4-11.3-22.1-18-38-20.1c11.9-19.3,32.8-32.1,59-32.1c26.4,0,47.4,16,59.6,39.4l7.1,13.6
		l1.4-15.3c1.5-16.4-6.7-45.8-33.7-60.3c22.4-18,50.4-27.8,79.6-27.8c15.1,0,29.9,2.6,43.8,7.6c13.5,4.8,25.9,11.9,36.9,20.9
		c18.3,15,32,35.2,38.9,57.3c-38.2,0.4-51.5,29.5-54.7,38.8l-5.1,14.6l12.1-9.6c19-14.9,37.6-18.8,62.3-12.9l5.7,2.1
		c14.3,5.3,26.4,14.8,35.3,27.6c9.1,13.2,13.9,28.6,13.9,44.7C481,423.8,473.3,443.1,459.3,457.6z"/>
</g>
</svg>
