<?xml version="1.0" encoding="utf-8"?>
<!-- Generator: Adobe Illustrator 21.1.0, SVG Export Plug-In . SVG Version: 6.00 Build 0)  -->
<svg version="1.1" id="Layer_1" focusable="false" xmlns="http://www.w3.org/2000/svg" xmlns:xlink="http://www.w3.org/1999/xlink"
	 x="0px" y="0px" viewBox="0 0 640 512" style="enable-background:new 0 0 640 512;" xml:space="preserve">
<g id="_x33_2">
	<path d="M555.1,202.7C538.2,106.6,459.8,34,365.6,34c-58.4,0-110.8,28-146.2,72.2c-1.4-0.1-2.8-0.1-4.3-0.1
		c-51.5,0-95.2,38-110.6,90.5C45,209.3,0,268.7,0,340c0,80.4,57.3,145.7,128.1,145.7h302.2v-32.1H128.1c-26.7,0-51.8-11.8-70.7-33.4
		c-18.8-21.4-29.2-50.1-29.2-80.4c0-54.8,34.2-101.8,81.5-111.8l13.6-2.9c4.5-0.5,8.8-0.7,12.9-0.7c32.5,0,52.9,15,70.5,38.3
		c-3.7-24-18.7-67.2-70.4-69.5c14.9-33.6,45.2-55.3,79-55.3c1,0,1.9,0,3.3,0.1l8.4,0.3c40.1,5.3,60.2,26.2,74.6,56.6
		c1.9-23.4-10.5-65.8-47.8-82.2c30.2-29.7,70.1-46.7,111.9-46.7c19.9,0,39.3,3.7,57.7,11c17.7,7,34.1,17.2,48.6,30.3
		c26.5,23.9,45.3,56.2,53.6,91.7c-46.7-3.5-65.6,30-71.9,49.8c22.3-19.3,46.8-29.1,84.5-19.2l7.5,3.1c19.2,7.8,35.7,22,47.6,41
		c12.1,19.3,18.7,42.3,18.7,66.1c0,30.3-10.4,58.9-29.2,80.4c-18.8,21.5-43.9,33.4-70.6,33.4h-84.7v32.1c49.3,0,84.7,0,84.7,0
		c35.4,0,67.3-16.3,90.5-42.8c23.2-26.3,37.5-62.8,37.5-103C640,276.7,604.6,222.9,555.1,202.7z"/>
	<path d="M364,438.1L364,438.1c8.8,0,16-7.2,16-16v-196l85.4,86.4v-33.4l-0.5-6c-0.6-4.3-2.3-7.7-5.1-10.2l-95.6-93.8L270,262.8
		l-4.7,6c-1.2,2.8-1.9,5.3-1.9,7.4V313l84.6-86.9v196C348,430.9,355.2,438.1,364,438.1z"/>
</g>
</svg>
