<?xml version="1.0" encoding="utf-8"?>
<!-- Generator: Adobe Illustrator 21.1.0, SVG Export Plug-In . SVG Version: 6.00 Build 0)  -->
<svg version="1.1" id="Layer_1" focusable="false" xmlns="http://www.w3.org/2000/svg" xmlns:xlink="http://www.w3.org/1999/xlink"
	 x="0px" y="0px" viewBox="0 0 640 512" style="enable-background:new 0 0 640 512;" xml:space="preserve">
<g id="_x33_2">
	<path d="M555,217.7C538.2,121.6,459.8,49,365.6,49c-39.9,0-77,13.1-107.7,35.4c-7.8,5.7-15.3,12-22.2,18.8
		c-5.8,5.6-11.2,11.7-16.3,18c-1.4-0.1-2.8-0.1-4.3-0.1c-51.5,0-95.2,38-110.6,90.5c-13.5,2.9-26.2,8.1-37.9,15.4
		c-8.2,5.1-15.8,11.2-22.8,18.1C17,271.9,0,311.2,0,355c0,80.4,57.3,145.7,128.1,145.7h302.2c47.7,0,81.7,0,81.7,0
		c35.4,0,67.3-16.3,90.5-42.8c23.2-26.3,37.5-62.8,37.5-103C640,291.7,604.6,237.9,555,217.7z M582.6,435.3
		c-18.8,21.5-43.9,33.3-70.6,33.3H128.1c-26.7,0-51.8-11.8-70.7-33.3c-18.8-21.4-29.2-50.1-29.2-80.4c0-54.8,34.2-101.8,81.5-111.8
		l13.6-2.9c4.5-0.5,8.8-0.7,12.9-0.7c32.5,0,52.9,15,70.5,38.3c-3.7-24-18.8-67.2-70.4-69.5c14.9-33.5,45.2-55.3,79-55.3
		c1,0,1.9,0,3.3,0.1l8.4,0.3c40,5.3,60.2,26.2,74.6,56.6c1.9-23.4-10.5-65.8-47.8-82.2C283.9,98,323.8,81,365.6,81
		c19.9,0,39.3,3.7,57.7,11c17.7,7,34.1,17.2,48.6,30.3c26.5,23.9,45.3,56.2,53.6,91.7c-46.7-3.5-65.6,30.1-71.9,49.8
		c22.3-19.3,46.8-29.2,84.5-19.2l7.5,3.1c19.2,7.8,35.7,22,47.6,41c12.2,19.3,18.7,42.3,18.7,66.1
		C611.8,385.2,601.4,413.8,582.6,435.3z"/>
	<path d="M237.9,64.4c-7.8,5.7-15.3,12-22.2,18.8c-17.3-21.5-42.3-35.4-70.4-38.4C87.8,38.6,36,80.2,29.8,137.7
		c-2.7,24.6,3.4,49.1,16.9,69.4c-8.2,5.1-15.8,11.2-22.8,18.1c-18.2-26.3-26.5-58.5-23-90.7C8.9,61.1,75.1,7.8,148.5,15.8
		C184,19.7,215.9,37.3,237.9,64.4z"/>
</g>
</svg>
