<?xml version="1.0" encoding="utf-8"?>
<!-- Generator: Adobe Illustrator 21.1.0, SVG Export Plug-In . SVG Version: 6.00 Build 0)  -->
<svg version="1.1" id="Layer_1" focusable="false" xmlns="http://www.w3.org/2000/svg" xmlns:xlink="http://www.w3.org/1999/xlink"
	 x="0px" y="0px" viewBox="0 0 512 512" style="enable-background:new 0 0 512 512;" xml:space="preserve">
<g id="_x33_2_1_">
	<path d="M444.4,121.8C429.5,51.1,365.6,0,291.5,0c-44.7,0-87.2,18.8-116.9,51.6c-0.5,0-1,0-1.4,0c-40.6,0-76.6,26.1-90.4,65.3
		c-48.4,10.7-83.2,55-83.2,106.4c0,59.9,47.2,108.7,105.2,108.7h301.9c28.1,0,54.5-11.4,74.3-32c19.8-20.5,30.8-47.7,30.8-76.8
		C511.7,178.3,484.7,137.9,444.4,121.8z M104.8,300c-19.8,0-38.4-8-52.3-22.5c-14-14.5-21.7-33.8-21.7-54.3
		c0-37,25.4-68.7,60.4-75.5l10.5-2c3.1-0.3,6.2-0.5,9.5-0.5c21.4,0,37,7.7,52,25.8l10.7,12.9l-2.8-16.5c-1.2-7.2-4.7-21.1-14.5-32.8
		c-9.4-11.3-22.1-18-38-20.1c11.9-19.3,32.8-32.1,59-32.1c26.4,0,47.4,16,59.6,39.4l7.1,13.6l1.4-15.3c1.5-16.4-6.7-45.8-33.7-60.3
		C234.4,41.8,262.4,32,291.6,32c15.1,0,29.9,2.6,43.8,7.6c13.5,4.8,25.9,11.9,36.9,20.9c18.3,15,32,35.2,38.9,57.3
		c-38.2,0.4-51.5,29.5-54.7,38.8l-5.1,14.6l12.1-9.6c19-14.9,37.6-18.8,62.3-12.9l5.7,2.1c14.3,5.3,26.4,14.8,35.3,27.6
		c9.1,13.2,13.9,28.6,13.9,44.7c0,20.5-7.7,39.8-21.7,54.3c-14,14.5-32.5,22.5-52.3,22.5H104.8z"/>
	<path d="M125.7,437.5H111l10.4,10.4c5.2,4.9,5.8,13,0.3,18.8c-5.2,4.9-13.6,4.9-18.5,0L92.5,456v14.7c0,7.8-5.2,13-13,13
		c-6.9,0-12.7-5.2-12.7-13V456c-3.8,3.5-7.2,7.2-10.7,10.7c-4.9,4.9-13.3,4.9-18.5,0c-5.5-5.8-4.9-13.9,0.3-18.8l10.4-10.4H33.5
		c-7.5,0-13.3-5.8-13.3-13c0-7.2,5.8-13,13.3-13h14.5l-10.1-10.1c-5.2-4.9-5.5-13.6-0.3-18.8c5.2-5.2,13.9-4.9,18.8,0.3
		c0.9,0.9,6.7,6.9,10.4,10.4v-14.7c0-7.5,5.8-13.3,12.7-13.3c7.8,0,13,5.8,13,13.3v14.7l10.4-10.4c4.9-5.2,13.6-5.5,18.8-0.3
		c5.2,5.2,4.9,13.9-0.3,18.8l-10.1,10.1h14.5c7.5,0,13.3,5.8,13.3,13C139,431.8,133.2,437.5,125.7,437.5z M302.7,465.7H288
		l10.4,10.4c5.2,4.9,5.8,13,0.3,18.8c-5.2,4.9-13.6,4.9-18.5,0l-10.7-10.7V499c0,7.8-5.2,13-13,13c-6.9,0-12.7-5.2-12.7-13v-14.8
		c-3.8,3.5-7.2,7.2-10.7,10.7c-4.9,4.9-13.3,4.9-18.5,0c-5.5-5.8-4.9-13.9,0.3-18.8l10.4-10.4h-14.8c-7.5,0-13.3-5.8-13.3-13
		c0-7.2,5.8-13,13.3-13h14.5l-10.1-10.1c-5.2-4.9-5.5-13.6-0.3-18.8c5.2-5.2,13.9-4.9,18.8,0.3c0.9,0.9,6.7,6.9,10.4,10.4v-14.7
		c0-7.5,5.8-13.3,12.7-13.3c7.8,0,13,5.8,13,13.3v14.7l10.4-10.4c4.9-5.2,13.6-5.5,18.8-0.3c5.2,5.2,4.9,13.9-0.3,18.8l-10.1,10.1
		h14.5c7.5,0,13.3,5.8,13.3,13C316,460,310.2,465.7,302.7,465.7z M478.9,437.5h-14.7l10.4,10.4c5.2,4.9,5.8,13,0.3,18.8
		c-5.2,4.9-13.6,4.9-18.5,0L445.6,456v14.7c0,7.8-5.2,13-13,13c-6.9,0-12.7-5.2-12.7-13V456c-3.8,3.5-7.2,7.2-10.7,10.7
		c-4.9,4.9-13.3,4.9-18.5,0c-5.5-5.8-4.9-13.9,0.3-18.8l10.4-10.4h-14.8c-7.5,0-13.3-5.8-13.3-13c0-7.2,5.8-13,13.3-13h14.5
		L391,401.4c-5.2-4.9-5.5-13.6-0.3-18.8c5.2-5.2,13.9-4.9,18.8,0.3c0.9,0.9,6.7,6.9,10.4,10.4v-14.7c0-7.5,5.8-13.3,12.7-13.3
		c7.8,0,13,5.8,13,13.3v14.7l10.4-10.4c4.9-5.2,13.6-5.5,18.8-0.3c5.2,5.2,4.9,13.9-0.3,18.8l-10.1,10.1h14.5
		c7.5,0,13.3,5.8,13.3,13C492.2,431.8,486.4,437.5,478.9,437.5z"/>
</g>
</svg>
