<?xml version="1.0" encoding="utf-8"?>
<!-- Generator: Adobe Illustrator 22.0.1, SVG Export Plug-In . SVG Version: 6.00 Build 0)  -->
<svg version="1.1" id="Layer_1" focusable="false" xmlns="http://www.w3.org/2000/svg" xmlns:xlink="http://www.w3.org/1999/xlink"
	 x="0px" y="0px" viewBox="0 0 576 512" style="enable-background:new 0 0 576 512;" xml:space="preserve">
<g id="_x33_2">
	<path d="M409.1,165.8c13.8-14.1,3.8-37.8-15.9-37.8H22.9C3.2,128-6.7,151.7,7,165.8l185,202.7V480h-76.3
		c-12.6,0-22.8,10.2-22.8,22.8v9.2h230.1v-9.2c0-12.6-10.2-22.8-22.8-22.8h-76.3V368.4L409.1,165.8z M45.1,160H371L210,336.4h-3.8
		L45.1,160z"/>
	<path d="M440.7,0c-61,0-112.6,40.4-129.5,96h34c15.5-37.5,52.5-64,95.5-64C497.7,32,544,78.3,544,135.3s-46.3,103.3-103.3,103.3
		c-16.3,0-31.6-3.8-45.3-10.5l-22.2,24.4c19.9,11.5,43,18.1,67.6,18.1c74.7,0,135.3-60.6,135.3-135.3S515.4,0,440.7,0z"/>
</g>
</svg>
