<?xml version="1.0" encoding="utf-8"?>
<!-- Generator: Adobe Illustrator 21.1.0, SVG Export Plug-In . SVG Version: 6.00 Build 0)  -->
<svg version="1.1" id="Layer_5" xmlns="http://www.w3.org/2000/svg" xmlns:xlink="http://www.w3.org/1999/xlink" x="0px" y="0px"
	 viewBox="0 0 459 512" style="enable-background:new 0 0 459 512;" xml:space="preserve">
<g>
	<path d="M267.4,90.2h68.9c26.3,0,47.6,21.4,47.6,47.6v253v3c-25.4,7-44,30.2-44,57.8c0,33.1,26.9,60,60,60s60-26.9,60-60
		c0-27.4-18.3-50.4-43.3-57.6v-3.2v-253c0-44.2-36-80.2-80.2-80.2h-68.9V0.7l-73.2,73.2l73.2,73.2V90.2H267.4z M399.9,408.6
		c23.8,0,43,19.3,43,43c0,23.7-19.3,43-43,43c-23.7,0-43-19.3-43-43C356.9,427.9,376.1,408.6,399.9,408.6z"/>
	<path d="M44,131.2L44.3,394C18.8,400.9,0,424.2,0,451.9c0,33.1,26.9,60,60,60s60-26.9,60-60c0-27.3-18.2-50.2-43.1-57.6l-0.3-262.8
		c25.5-6.9,44.3-30.2,44.3-57.9c0-33.1-26.9-60-60-60s-60,26.9-60,60C0.9,100.9,19.1,123.8,44,131.2z M102.9,451.9
		c0,23.8-19.3,43-43,43s-43-19.3-43-43c0-23.7,19.3-43,43-43S102.9,428.1,102.9,451.9z M60.9,30.6c23.8,0,43,19.3,43,43
		s-19.3,43-43,43s-43-19.3-43-43S37.1,30.6,60.9,30.6z"/>
	<circle cx="60.9" cy="73.6" r="16"/>
	<circle cx="59.9" cy="451.9" r="16"/>
</g>
</svg>
