<?xml version="1.0" encoding="utf-8"?>
<!-- Generator: Adobe Illustrator 21.1.0, SVG Export Plug-In . SVG Version: 6.00 Build 0)  -->
<svg version="1.1" id="Layer_2" xmlns="http://www.w3.org/2000/svg" xmlns:xlink="http://www.w3.org/1999/xlink" x="0px" y="0px"
	 viewBox="0 0 389 512" style="enable-background:new 0 0 389 512;" xml:space="preserve">
<g>
	<path d="M306.6,147c-2.4,30.8-12.3,52.5-30.3,67.2C255.7,231,227.1,237,194,244c-36.3,7.7-77.5,16.3-107.4,44l-9,8.3V117.6
		c25-7.2,43.3-30.3,43.3-57.6c0-33.1-26.9-60-60-60C27.8,0,1,26.9,1,60c0,27.5,18.6,50.7,43.9,57.8v275.4C19.6,400.3,1,423.5,1,451
		c0,33.1,26.9,60,60,60s60-26.9,60-60c0-27.2-18.1-50.2-42.9-57.5l0.2-3.4c6.2-89.4,60.1-100.8,122.5-113.9
		c32.1-6.8,68.5-14.4,95.7-36c25.9-20.5,40-51.1,42.8-93.2H306.6z M18,60c0-23.8,19.3-43,43-43s43,19.3,43,43s-19.3,43-43,43
		S18,83.8,18,60z M104,451c0,23.8-19.3,43-43,43s-43-19.3-43-43s19.3-43,43-43S104,427.3,104,451z"/>
	<path d="M61,76c-8.8,0-16-7.2-16-16s7.2-16,16-16s16,7.2,16,16S69.8,76,61,76z"/>
	<path d="M61,467c-8.8,0-16-7.2-16-16s7.2-16,16-16s16,7.2,16,16S69.8,467,61,467z"/>
	<path d="M369.2,50.2H354l0.8-0.1v-19c0-17.2-13.9-31.1-31.1-31.1s-31.1,13.9-31.1,31.1v19l0.6,0.1h-17.2l-3.2,2.7v71.8h99.7V53
		L369.2,50.2z M305.1,31.1c0-10.2,8.3-18.5,18.5-18.5s18.5,8.3,18.5,18.5v19h-37.1V31.1z M348.8,101.2h-52.6V76.5h10.4H338h10.9
		V101.2z"/>
</g>
</svg>
