<?xml version="1.0" encoding="utf-8"?>
<!-- Generator: Adobe Illustrator 21.1.0, SVG Export Plug-In . SVG Version: 6.00 Build 0)  -->
<svg version="1.1" id="Layer_2" xmlns="http://www.w3.org/2000/svg" xmlns:xlink="http://www.w3.org/1999/xlink" x="0px" y="0px"
	 viewBox="0 0 120 512" style="enable-background:new 0 0 120 512;" xml:space="preserve">
<g>
	<path d="M60,196c-33.1,0-60,26.9-60,60s26.9,60,60,60s60-26.9,60-60S93.1,196,60,196z M60,299c-23.8,0-43-19.3-43-43s19.3-43,43-43
		s43,19.3,43,43S83.8,299,60,299z"/>
	<circle cx="60" cy="256" r="16"/>
	<path d="M77.2,0h-35v160.7h35.8C77.7,104.9,77.5,50.6,77.2,0z"/>
	<path d="M42.1,350.4v160.7h35.8c-0.2-55.7-0.4-110-0.7-160.7H42.1z"/>
</g>
</svg>
