<?xml version="1.0" encoding="utf-8"?>
<!-- Generator: Adobe Illustrator 21.1.0, SVG Export Plug-In . SVG Version: 6.00 Build 0)  -->
<svg version="1.1" id="Layer_2" xmlns="http://www.w3.org/2000/svg" xmlns:xlink="http://www.w3.org/1999/xlink" x="0px" y="0px"
	 viewBox="0 0 389 512" style="enable-background:new 0 0 389 512;" xml:space="preserve">
<g>
	<path d="M382,60c0-33.1-26.9-60-60-60s-60,26.9-60,60c0,27.9,19.1,51.4,44.9,58.1l0.1,3.2c1.8,44.9-8,74.4-30.7,92.9
		C255.7,231,227.1,237,194,244c-36.3,7.7-77.5,16.3-107.4,44l-9,8.3V117.6c25-7.2,43.3-30.3,43.3-57.6c0-33.1-26.9-60-60-60
		S1,26.9,1,60c0,27.5,18.6,50.7,43.9,57.8v275.4C19.6,400.3,1,423.5,1,451c0,33.1,26.9,60,60,60s60-26.9,60-60
		c0-27.2-18.1-50.2-42.9-57.5l0.2-3.4c6.2-89.4,60.1-100.8,122.5-113.9c32.1-6.8,68.5-14.4,95.7-36c30.9-24.5,45-63.4,43.2-119.1
		l-0.1-3.7C364.1,109.9,382,87,382,60z M18,60c0-23.8,19.3-43,43-43s43,19.3,43,43s-19.3,43-43,43S18,83.8,18,60z M104,451
		c0,23.8-19.3,43-43,43s-43-19.3-43-43s19.3-43,43-43S104,427.3,104,451z M322,103c-23.8,0-43-19.3-43-43s19.3-43,43-43
		s43,19.3,43,43S345.8,103,322,103z"/>
	<path d="M61,76c-8.8,0-16-7.2-16-16s7.2-16,16-16s16,7.2,16,16S69.8,76,61,76z"/>
	<path d="M61,467c-8.8,0-16-7.2-16-16s7.2-16,16-16s16,7.2,16,16S69.8,467,61,467z"/>
</g>
</svg>
