<?xml version="1.0" encoding="utf-8"?>
<!-- Generator: Adobe Illustrator 21.1.0, SVG Export Plug-In . SVG Version: 6.00 Build 0)  -->
<svg version="1.1" id="Layer_5" xmlns="http://www.w3.org/2000/svg" xmlns:xlink="http://www.w3.org/1999/xlink" x="0px" y="0px"
	 viewBox="0 0 459 512" style="enable-background:new 0 0 459 512;" xml:space="preserve">
<g>
	<path d="M192.5,422.4h-68.9c-26.3,0-47.6-21.4-47.6-47.6v-253v-3c25.4-7,44-30.2,44-57.8c0-33.1-26.9-60-60-60S0,27.9,0,61
		c0,27.4,18.3,50.4,43.3,57.6v3.2v253c0,44.2,36,80.2,80.2,80.2h68.9v56.9l73.2-73.2l-73.2-73.2V422.4z M60,104
		c-23.8,0-43-19.3-43-43s19.3-43,43-43s43,19.3,43,43S83.8,104,60,104z"/>
	<path d="M415.9,381.4l-0.3-262.8c25.5-6.9,44.3-30.2,44.3-57.9c0-33.1-26.9-60-60-60s-60,26.9-60,60c0,27.3,18.2,50.2,43.1,57.6
		l0.3,262.8C357.8,388,339,411.3,339,439c0,33.1,26.9,60,60,60s60-26.9,60-60C459,411.7,440.8,388.8,415.9,381.4z M357,60.7
		c0-23.8,19.3-43,43-43s43,19.3,43,43s-19.3,43-43,43S357,84.5,357,60.7z M399,482c-23.8,0-43-19.3-43-43s19.3-43,43-43
		s43,19.3,43,43S422.8,482,399,482z"/>
	<circle cx="399" cy="439" r="16"/>
	<circle cx="400" cy="60.7" r="16"/>
</g>
</svg>
