<?xml version="1.0" encoding="utf-8"?>
<!-- Generator: Adobe Illustrator 21.1.0, SVG Export Plug-In . SVG Version: 6.00 Build 0)  -->
<svg version="1.1" id="Layer_1" xmlns="http://www.w3.org/2000/svg" xmlns:xlink="http://www.w3.org/1999/xlink" x="0px" y="0px"
	 viewBox="0 0 512 512" style="enable-background:new 0 0 512 512;" xml:space="preserve">
<g id="_x33_2">
	<path d="M341,310.5l-23.1-5c-2.6-0.6-5.1-0.2-7.2,0.8c-3.6-15.6-9.9-30.3-18.3-43.4c2.3-0.8,4.5-2.4,5.9-4.7l12.8-19.9
		c3-4.6,2.3-10.6-1.5-14.5l-21.4-21.4c-3.9-3.9-9.9-4.5-14.5-1.5l-19.9,12.8c-2.4,1.6-4,3.9-4.8,6.4c-13.2-8.3-28-14.4-43.7-17.8
		c1.4-2.4,1.9-5.2,1.3-8.2l-5-23.1c-1.1-5.3-5.9-9.2-11.3-9.2H160c-5.5,0-10.2,3.8-11.4,9.2l-5,23.1c-0.7,3.1,0,6.1,1.4,8.5
		c-15.8,3.6-30.5,9.9-43.7,18.3c-0.6-2.8-2.3-5.5-5-7.2l-19.9-12.8c-4.6-3-10.6-2.3-14.5,1.5l-21.4,21.4c-3.9,3.9-4.5,9.9-1.5,14.5
		l12.8,19.9c1.8,2.7,4.4,4.4,7.3,5c-8.4,13.2-14.7,28-18.2,43.8c-2.5-1.6-5.5-2.2-8.6-1.5l-23.1,5c-5.3,1.2-9.2,5.9-9.2,11.4V352
		c0,5.5,3.8,10.2,9.2,11.4l23.1,5c3,0.7,6,0.1,8.4-1.4c3.4,15.8,9.5,30.5,17.8,43.8c-2.6,0.7-5,2.4-6.7,4.9l-12.8,19.9
		c-3,4.6-2.3,10.6,1.5,14.5L62,471.4c3.9,3.9,9.9,4.5,14.5,1.5l19.9-12.8c2.4-1.5,4-3.8,4.8-6.3c13.1,8.4,27.7,14.7,43.4,18.3
		c-1.1,2.2-1.5,4.8-0.9,7.5l5,23.1c1.2,5.3,5.9,9.2,11.4,9.2h30.2c5.5,0,10.2-3.8,11.3-9.2l5-23.1c0.5-2.5,0.2-5-0.7-7.2
		c15.7-3.5,30.4-9.6,43.5-17.9c0.8,2.1,2.4,4.1,4.5,5.4l19.9,12.8c4.6,3,10.6,2.3,14.5-1.5l21.4-21.4c3.9-3.9,4.5-9.9,1.5-14.5
		l-12.8-19.9c-1.4-2.1-3.3-3.6-5.4-4.5c8.3-13.2,14.5-27.8,18-43.5c2.1,0.9,4.5,1.2,7,0.7l23.1-5c5.3-1.1,9.2-5.9,9.2-11.4v-30.2
		C350.1,316.3,346.3,311.6,341,310.5z M175.9,440.1c-56.7,0-102.6-45.9-102.6-102.6s45.9-102.6,102.6-102.6s102.6,45.9,102.6,102.6
		S232.5,440.1,175.9,440.1z"/>
	<path d="M508.3,151.4l-14.3-9.8c-1.5-1-3.2-1.5-4.9-1.5c1.9-11.2,1.9-22.8-0.2-34.4c1.7,0,3.4-0.5,4.9-1.5l14.2-9.9
		c3.3-2.3,4.5-6.6,3-10.2l-8.5-20.3c-1.5-3.7-5.5-5.8-9.4-5.1l-17,3.2c-1.9,0.3-3.5,1.3-4.7,2.6c-6.9-9.5-15.2-17.6-24.6-24.1
		c1.4-1.2,2.3-2.9,2.7-4.8l3-17c0.7-3.9-1.4-7.8-5.1-9.3L427,0.8c-3.7-1.5-8-0.2-10.2,3.1l-9.8,14.3c-1.2,1.7-1.6,3.7-1.4,5.6
		c-11.3-1.8-22.9-1.8-34.5,0.4c0.2-2-0.2-4.1-1.5-5.9l-9.9-14.2c-2.3-3.3-6.6-4.5-10.2-3l-20.4,8.5c-3.7,1.5-5.8,5.5-5.1,9.4l3.2,17
		c0.4,2.3,1.7,4.1,3.4,5.3c-9.6,6.9-17.8,15.3-24.3,24.7c-1.2-1.7-3.1-3-5.4-3.4l-17-3c-3.9-0.7-7.8,1.4-9.3,5.1l-8.3,20.4
		c-1.5,3.7-0.2,8,3.1,10.2l14.3,9.8c2,1.3,4.2,1.7,6.3,1.3c-1.9,11.3-2,23,0.1,34.6c-2.1-0.4-4.3,0.1-6.3,1.4l-14.2,9.9
		c-3.3,2.3-4.5,6.6-3,10.2l8.5,20.3c1.5,3.7,5.5,5.8,9.4,5.1l17-3.2c2.2-0.4,4.1-1.7,5.3-3.3c6.8,9.7,15.1,17.9,24.4,24.5
		c-1.6,1.2-2.7,3-3.1,5.2l-3,17c-0.7,3.9,1.4,7.8,5.1,9.3l20.4,8.4c3.7,1.5,8,0.2,10.2-3.1l9.8-14.3c1.2-1.7,1.6-3.7,1.4-5.6
		c11.2,2,22.9,2.1,34.4,0.1c-0.1,1.8,0.4,3.7,1.5,5.3l9.9,14.2c2.3,3.3,6.6,4.5,10.2,3l20.4-8.5c3.7-1.5,5.8-5.5,5.1-9.4l-3.2-17
		c-0.3-1.9-1.3-3.4-2.5-4.6c9.6-6.8,17.8-15,24.3-24.3c1.2,1.2,2.7,2.1,4.6,2.4l17,3c3.9,0.7,7.8-1.4,9.3-5.1l8.4-20.4
		C512.9,157.9,511.6,153.7,508.3,151.4z M418.5,192.7c-38.2,16-82.1-2-98.1-40.1c-16-38.2,2-82.1,40.1-98.1
		c38.2-16,82.1,2,98.1,40.1C474.7,132.7,456.7,176.7,418.5,192.7z"/>
</g>
</svg>
