<?xml version="1.0" encoding="utf-8"?>
<!-- Generator: Adobe Illustrator 21.1.0, SVG Export Plug-In . SVG Version: 6.00 Build 0)  -->
<svg version="1.1" id="_x33_2" xmlns="http://www.w3.org/2000/svg" xmlns:xlink="http://www.w3.org/1999/xlink" x="0px" y="0px"
	 viewBox="0 0 556.4 512" style="enable-background:new 0 0 556.4 512;" xml:space="preserve">
<g id="_x33_2_1_">
	<path d="M540.4,175.7c-1.8-29.8-25.1-56.9-65.6-76.6c-20.2-9.8-43.9-17.4-70.5-22.5c-11.2-13.2-27.1-24.9-47.4-34.7
		c-39.1-19-90.8-29.5-145.6-29.5l0,0c-54.5,0-106.1,10.5-145.2,29.5C25.8,61.4,2.6,88.5,0.6,118.1c-0.4,1.3-0.6,2.6-0.6,4v73.1
		c0,26.1,16.5,50.7,46.9,70c-14.2,14.3-22.2,30.4-23.4,47.2c-0.4,1.4-0.7,2.9-0.6,4.4v72.9c0,31.2,23.4,59.8,66,80.4
		c39.2,19,90.9,29.5,145.6,29.5c54.6,0,106.2-10.5,145.4-29.5c42.5-20.6,65.8-49.2,65.8-80.4v-45.2c11.1-3.7,20.8-7.5,29.3-11.7
		c42.5-20.6,65.8-49.2,65.8-80.4v-72.8C540.8,178.4,540.7,177,540.4,175.7z M462.3,125.1c31.3,15.2,49.3,35.1,49.3,54.4
		c0,19.5-18,39.4-49.3,54.6c-20.4,9.9-45.5,17.3-73.1,21.7c3.7-3,7.1-6.1,10.2-9.2c22.7-3.6,42.9-9.6,59.2-17.5
		c26.8-13,42.2-30.5,42.2-48.8s-15.4-35.6-42.2-48.6c-10.6-5.1-22.8-9.6-36.3-13c0-0.1-0.1-0.3-0.1-0.4c-0.2-2.8-0.6-5.6-1.1-8.3
		C436.1,114,450.1,119.2,462.3,125.1z M78.7,67.9c34.9-16.9,83.2-26.7,132.6-26.7c49.6,0,98,9.7,132.9,26.7
		c31.5,15.3,49.5,35.1,49.5,54.4c0,19.4-18,39.3-49.5,54.6c-34.7,16.8-83.1,26.5-132.9,26.5c-50.3,0-97.4-9.4-132.6-26.5
		c-31.5-15.3-49.5-35.2-49.5-54.6C29.2,103,47.2,83.1,78.7,67.9z M29,195.3v-16.4c9.9,8.8,22.3,16.8,37,24
		c39.1,19,90.7,29.5,145.2,29.5c54.7,0,106.4-10.5,145.6-29.5c14.7-7.2,27.1-15.2,37-24v16.4c0,19.4-18,39.3-49.5,54.6
		c-35.2,17.1-82.3,26.5-132.7,26.5c-49.7,0-98.2-9.7-132.9-26.5C47.1,234.5,29,214.6,29,195.3z M113.4,365.2
		c30.2,13.1,72.5,21.4,119.2,21.4c46.9,0,89.3-8.2,119.5-21.4c3-1.3,5.8-2.6,8.5-4c9.8-0.8,19.6-1.9,29.1-3.3
		c-6.5,4.8-14.2,9.3-22.8,13.5c-34.7,16.8-83.1,26.5-132.9,26.5c-50.3,0-97.4-9.4-132.6-26.5C70.1,356.1,52,336.2,52,316.8
		c0-15.5,11.1-28.4,22-37.4c3.4,1.5,6.9,2.9,10.4,4.3c-12.2,9.9-18.9,21-18.9,32.3C65.5,334.4,83.2,352,113.4,365.2z M416.7,389.8
		c0,19.3-18,39.1-49.5,54.4c-34.9,16.9-83.3,26.7-132.7,26.7c-49.5,0-97.9-9.7-132.9-26.7c-31.6-15.3-49.7-35.1-49.7-54.4v-16.4
		c9.9,8.8,22.3,16.8,37,24c38.9,18.9,90.5,29.3,145.2,29.3c55,0,106.7-10.4,145.6-29.3c14.7-7.2,27.1-15.2,37-24V389.8z M512,252.5
		c0,19.4-18,39.3-49.5,54.6c-8.1,4-17.1,7.5-26.6,10.6l-2.4,0.8c-30.5,9.7-66.8,15.1-103.9,15.1c-49.7,0-98.2-9.7-132.9-26.5
		c-1.6-0.8-3.2-1.6-4.7-2.4c6.5,0.3,13.1,0.5,19.7,0.5c14.7,0,29.5-0.8,45.2-2.5l9.7-1.1h0.2c19.8-2.7,38.7-6.8,56.1-12.3
		c0.4,0,0.7,0,1.1,0c1.8,0.1,3.6,0.1,5.5,0.1c54.9,0,106.5-10.4,145.4-29.3c14.8-7.2,27.2-15.3,37.2-24.2v16.6H512z"/>
	<path d="M249.2,123.4c-2.4-1.9-5.9-3.7-10-4.7c-2.8-0.8-6.1-1.3-9.3-1.8c-2-0.3-3.8-0.4-7-0.9c-3.1-0.3-6.3-0.8-10.1-1.2l1.5-14.4
		c2.5,0.2,4.5,0.6,7.3,1.4c2.5,1.1,3.5,1.8,4.7,2.8c2.1,2.5,5.7,3.5,10.8,3.3l13.8-0.3c-0.1-5.7-3.4-10-10.6-13.1
		c-7-2.8-15.4-4.2-26.3-4.7l-0.3-1.3c0.1-1.6-0.7-2.9-3.3-4.3c-2.5-1.1-5.1-1.7-8.6-1.6l-0.7-0.2l-0.8,7.2
		c-12.4,0.8-21.8,2.5-28.4,5.1c-8.1,3-12.4,7.2-12.9,13c-0.3,3.3,0.1,5.7,1.9,7.7c2,2.3,5.4,4.1,9,5.1c4.4,1.5,12.3,2.9,23.3,3.7
		c0.5,0,1.3,0.2,1.1-0.1c0.7,0.2,0.6-0.1,1.3,0.1l0.7,0.2l0.7,0.2l-1.3,15.7c-3.7-0.1-6.9-0.6-9.9-1.7c-4.3-1.2-7-3.7-7.3-6.9
		l-23.7,0.5c0.4,6.2,3.9,10.8,11.8,14.1c7,2.8,16,4.1,27.8,4.3l-0.1,7.4l12.7-0.2l0.8-7.2c13.1-0.5,22.4-2.6,29.5-5.2
		c9-3.3,13.6-8.2,13.9-14.2C251.6,128.1,250.6,125.5,249.2,123.4z M199.1,113.2c-11.4-1.3-16.7-3.2-16.1-6c0.3-2.2,2.1-4,6.1-5.3
		c3-0.8,6.7-1.5,11.1-1.9L199.1,113.2z M221.3,138.6c-3.3,1.2-7.6,1.9-12.7,2.1l1.7-14.1c11.5,1.5,17,3.7,16.9,6.5
		C227,135.6,225.2,137.4,221.3,138.6z"/>
	<path d="M327.4,72.3c-29.5-13.4-70.9-21.9-116.7-21.9c-45.6,0-86.9,8.5-116.4,21.9c-29.5,13.4-46.7,31.2-46.7,50
		s17.2,36.8,46.7,50.1c29.5,13.3,70.7,21.8,116.4,21.8c45.8,0,87.1-8.4,116.7-21.8c29.5-13.4,46.7-31.4,46.7-50.1
		C374.2,103.5,357,85.6,327.4,72.3z M315.1,163.7c-26.3,11.1-63.1,18-103.8,18c-40.6,0-77.3-7-103.5-18
		c-26.3-11-41.5-25.8-41.5-41.4c0-15.5,15.3-30.2,41.5-41.3C134,70,170.7,63,211.3,63c40.8,0,77.6,7,103.8,18.1
		c26.3,11,41.6,25.8,41.5,41.3C356.7,137.7,341.4,152.6,315.1,163.7z"/>
</g>
</svg>
