<?xml version="1.0" encoding="utf-8"?>
<!-- Generator: Adobe Illustrator 21.1.0, SVG Export Plug-In . SVG Version: 6.00 Build 0)  -->
<svg version="1.1" id="Layer_4" xmlns="http://www.w3.org/2000/svg" xmlns:xlink="http://www.w3.org/1999/xlink" x="0px" y="0px"
	 viewBox="0 0 502.3 512" style="enable-background:new 0 0 502.3 512;" xml:space="preserve">
<g>
	<path d="M244.6,467.2V512c-19.4-0.5-38.9-2.9-58.2-7.4v-44.8C205.7,464.3,225.2,466.7,244.6,467.2z"/>
	<path d="M315.8,459.8v45.7c-19.3,4.5-38.8,5.9-58.2,6.4v-44.8C277.1,466.8,296.5,464.3,315.8,459.8z"/>
	<path d="M173.5,456.5v46.2c-20.6-5.8-40.2-12-58.2-22v-48.3C133.6,442.7,153.2,450.8,173.5,456.5z"/>
	<path d="M32.1,355.2v59.3C11,382.4,0,346.8,0,310.9v-40.7c0.1,22.2,4.8,27.7,13.8,50.1C18.5,332.3,24.7,343.9,32.1,355.2z"/>
	<path d="M102.3,424.8v51.7c-22.6-14.5-42.2-28.4-58.2-48.3v-55.4C60.2,392.9,79.8,410.3,102.3,424.8z"/>
	<path d="M386,432.4v49.1c-18,10-37.6,15.4-58.2,21.2v-46.1C348.4,450.7,367.9,442.7,386,432.4z"/>
	<path d="M457.2,372.8v55.9c-16,19.9-35.6,31.6-58.2,46v-49.9C421.6,410.3,441.1,392.9,457.2,372.8z"/>
	<path d="M502.3,271.7v46.9l0,0c0,35.7-11,62.6-32.1,94.7v-58.1c7.3-11.2,13.3-22.8,18.1-34.5c5-12.4,8.6-24.9,10.9-37.3v-0.1l0,0
		C500.3,279,502.3,271.7,502.3,271.7z"/>
	<path d="M251,43.5c-110.4,0-199.8,76.1-199.8,170s89.5,170,199.8,170s199.8-76.1,199.8-170S361.3,43.5,251,43.5z M251,355
		c-91.8,0-166.3-63.4-166.3-141.5S159.1,72,251,72s166.3,63.4,166.3,141.5S342.8,355,251,355z"/>
	<path d="M251,0C112.4,0,0,95.6,0,213.5s112.4,213.5,251,213.5s251-95.6,251-213.5S389.6,0,251,0z M251,398.5
		c-120,0-217.3-82.8-217.3-184.9c0-102.1,97.3-184.9,217.3-184.9s217.3,82.8,217.3,184.9C468.3,315.7,371,398.5,251,398.5z"/>
	<path d="M311.5,222.7c-3.5-5.7-8.6-11-14.6-13.7c-4.2-2.3-8.9-3.7-13.7-5.2c-2.9-1-5.6-1.3-10.3-2.7c-4.5-0.7-9.3-2.1-14.8-3.4
		l2.3-41.6c3.7,0.8,6.6,1.9,10.8,4.2c3.6,3.2,5.1,5.3,6.9,8.1c3.2,7.3,8.4,10.2,15.9,9.5l20.3-0.9c-0.1-16.6-4.9-29.1-15.5-38
		c-10.3-8.2-22.7-12.1-38.7-13.7l-0.4-3.9c0.2-4.8-1-8.5-4.8-12.5c-3.6-3.2-7.5-4.8-12.6-4.6l-1-0.6l-1.1,20.8
		c-18.2,2-32.1,7.2-41.7,14.6c-11.8,8.7-18.2,21.1-18.9,37.8c-0.4,9.6,0.1,16.6,2.8,22.4c2.9,6.5,8.1,11.8,13.3,14.8
		c6.5,4.2,18.1,8.3,34.3,10.6c0.8-0.1,1.8,0.4,1.6-0.3c1,0.6,0.8-0.1,1.9,0.4l1,0.6l1,0.6l-1.9,45.5c-5.3-0.5-10.1-2-14.5-5
		c-6.3-3.5-10.2-10.6-10.7-20l-34.8,1.4c0.6,18.1,5.6,31.3,17.3,40.8c10.3,8.2,23.5,11.9,40.9,12.5l-0.1,21.4l18.7-0.6l1.1-20.8
		c19.3-1.5,32.9-7.3,43.3-14.9c13.2-9.8,20-23.8,20.4-41.3C315.8,236.1,314.2,228.5,311.5,222.7z M238.7,192.9
		c-16.7-3.8-24.5-9.4-23.6-17.5c0.5-6.4,3.2-11.7,8.9-15.2c4.4-2.4,9.8-4.3,16.3-5.6L238.7,192.9z M271.4,266.3
		c-5,3.4-11.2,5.4-18.7,6.1l2.5-40.8c16.9,4.5,24.9,10.9,24.8,18.8C279.8,257.6,277.2,262.8,271.4,266.3z"/>
</g>
</svg>
