<?xml version="1.0" encoding="utf-8"?>
<!-- Generator: Adobe Illustrator 21.1.0, SVG Export Plug-In . SVG Version: 6.00 Build 0)  -->
<svg version="1.1" id="Layer_2" xmlns="http://www.w3.org/2000/svg" xmlns:xlink="http://www.w3.org/1999/xlink" x="0px" y="0px"
	 viewBox="0 0 521 512" style="enable-background:new 0 0 521 512;" xml:space="preserve">
<g>
	<path d="M261,0C117.4,0,1,102.5,1,228.9c0,62.4,28.4,119,74.4,160.3C98.5,409.9,55.3,512,55.3,512s153.5-57.5,182-55.2
		c7.8,0.6,15.7,0.9,23.7,0.9c143.6,0,260-102.5,260-228.9C521,102.5,404.6,0,261,0z M261,426.4c-7,0-13.9-0.3-20.8-0.8
		c-24.9-2-140.6,42.4-140.6,42.4s23.9-77.6,3.6-95.7C62.9,336.1,33,286.4,33,231.7C33,120.9,135.1,31,261,31s228,89.9,228,200.7
		S386.9,426.4,261,426.4z"/>
	<path d="M261.5,309.3c-16.1,0-29.1,13-29.1,28.9c0,16,13.1,28.9,29.1,28.9s29.1-13,29.1-28.9C290.6,322.3,277.6,309.3,261.5,309.3z
		"/>
	<path d="M247.5,283.4c0,6.3,0.4,9,1.7,11c1.7,2.6,4.6,3,7,3h9.8c2.1,0,5.2-0.4,7.1-3.1c1.4-2,1.8-4.8,1.8-12.1
		c0.1-5.1,2.6-25.8,7.3-61.4c11.1-82.8,11.1-90,11.1-92.4c0-10-2.7-18.9-7.9-26.5c-5.4-7.7-13.1-11.6-23-11.6
		c-10.1,0-18.2,3.6-23.9,10.7c-5.8,7-8.7,15.8-8.7,25.9c0,1.5,0,5.7,7.8,68.6C246.2,263.8,247.5,279.8,247.5,283.4z"/>
</g>
</svg>
