<?xml version="1.0" encoding="utf-8"?>
<!-- Generator: Adobe Illustrator 21.1.0, SVG Export Plug-In . SVG Version: 6.00 Build 0)  -->
<svg version="1.1" id="Layer_2" xmlns="http://www.w3.org/2000/svg" xmlns:xlink="http://www.w3.org/1999/xlink" x="0px" y="0px"
	 viewBox="0 0 521 512" style="enable-background:new 0 0 521 512;" xml:space="preserve">
<g>
	<path d="M261,0C117.4,0,1,102.5,1,228.9c0,62.4,28.4,119,74.4,160.3C98.5,409.9,55.3,512,55.3,512s153.5-57.5,182-55.2
		c7.8,0.6,15.7,0.9,23.7,0.9c143.6,0,260-102.5,260-228.9C521,102.5,404.6,0,261,0z M261,426.4c-7,0-13.9-0.3-20.8-0.8
		c-24.9-2-140.6,42.4-140.6,42.4s23.9-77.6,3.6-95.7C62.9,336.1,33,286.4,33,231.7C33,120.9,135.1,31,261,31s228,89.9,228,200.7
		S386.9,426.4,261,426.4z"/>
	<path d="M271.2,336v11.8h-21.6v-11.7c-31-2.4-58.6-23.2-58.6-63h37.7c0,17.6,7.5,27.9,20.8,31.7v-64.8c-38-16.2-55-36.2-55-61.7
		c0-29.5,24.8-53.1,55-53.1v-9.1h21.6v9.2c26.4,1.7,58.1,16.5,58.1,56.3h-37.7c-1.7-16-8.5-24.7-20.3-25.9v50.9l20.8,9.2
		c33.8,16.2,46.5,35.7,46.5,61.5C338.5,311.4,309.9,336,271.2,336z M271.2,249.2V306c15.3,0,30.1-9.5,30.1-25.2
		C301.2,267.4,291.3,256.9,271.2,249.2z M232.4,173.7c0,8.5,5.7,16,17.3,23v-41C238.1,157.8,232.4,163.8,232.4,173.7z"/>
</g>
</svg>
