<?xml version="1.0" encoding="utf-8"?>
<!-- Generator: Adobe Illustrator 22.0.1, SVG Export Plug-In . SVG Version: 6.00 Build 0)  -->
<svg version="1.1" id="Layer_3" xmlns="http://www.w3.org/2000/svg" xmlns:xlink="http://www.w3.org/1999/xlink" x="0px" y="0px"
	 viewBox="0 0 512 512" style="enable-background:new 0 0 512 512;" xml:space="preserve">
<g id="_x33_2">
	<path d="M479.8,32.4v315l-240.1,1.1l-136.1,131l15.7-131H32V32.4H479.8z M33.1-0.7C14.8-0.7,0,14.1,0,32.4v315
		c0,18.3,14.8,33.1,33.1,33.1h50.2l-11.4,95.2c-2.5,20.9,14.3,35.9,32,35.9c7.6,0,15.4-2.8,21.9-9l126.8-122h226
		c18.3,0,33.1-14.8,33.1-33.1v-315c0-18.3-14.8-33.1-33.1-33.1H33.1V-0.7z"/>
	<polygon points="120,174.3 120,206.3 392,206.3 392,174.3 	"/>
</g>
</svg>
