<?xml version="1.0" encoding="utf-8"?>
<!-- Generator: Adobe Illustrator 22.0.1, SVG Export Plug-In . SVG Version: 6.00 Build 0)  -->
<svg version="1.1" id="Layer_3" xmlns="http://www.w3.org/2000/svg" xmlns:xlink="http://www.w3.org/1999/xlink" x="0px" y="0px"
	 viewBox="0 0 512 512" style="enable-background:new 0 0 512 512;" xml:space="preserve">
<g id="_x33_2">
	<path d="M479.8,32.4v315l-240.1,1.1l-136.1,131l15.7-131H32V32.4H479.8z M33.1-0.7C14.8-0.7,0,14.1,0,32.4v315
		c0,18.3,14.8,33.1,33.1,33.1h50.2l-11.4,95.2c-2.5,20.9,14.3,35.9,32,35.9c7.6,0,15.4-2.8,21.9-9l126.8-122h226
		c18.3,0,33.1-14.8,33.1-33.1v-315c0-18.3-14.8-33.1-33.1-33.1H33.1V-0.7z"/>
	<path d="M368,106.4c-0.1,4.5-7.8,15.1-10.9,18.6l-0.2,0.2L235.4,285.6l-0.3,0.3c-1.3,1.3-2.5,2.5-3.6,3.2c-9.1,5-20.8,1.6-26.1-7.5
		l-0.1-0.2l-53.9-75.8c-2.5-4.5-3.2-9.6-1.8-14.4c1.3-4.7,4.3-8.5,8.6-10.9c9.2-5.1,20.9-1.8,26.2,7.4l0.2,0.4l44.4,57.3L334.2,96.3
		c0.1-0.1,0.1-0.2,0.2-0.3c4.7-6.3,11.1-7.6,15.6-7.6C361.6,88.3,367.9,97.4,368,106.4z"/>
</g>
</svg>
