<?xml version="1.0" encoding="utf-8"?>
<!-- Generator: Adobe Illustrator 21.1.0, SVG Export Plug-In . SVG Version: 6.00 Build 0)  -->
<svg version="1.1" id="Layer_2" xmlns="http://www.w3.org/2000/svg" xmlns:xlink="http://www.w3.org/1999/xlink" x="0px" y="0px"
	 viewBox="0 0 521 512" style="enable-background:new 0 0 521 512;" xml:space="preserve">
<g>
	<path d="M260,0C116.4,0,0,102.5,0,228.9c0,62.4,28.4,119,74.4,160.3C97.5,409.9,54.3,512,54.3,512s153.5-57.5,182-55.2
		c7.8,0.6,15.7,0.9,23.7,0.9c143.6,0,260-102.5,260-228.9C520,102.5,403.6,0,260,0z M260,426.4c-7,0-13.9-0.3-20.8-0.8
		c-24.9-2-140.6,42.4-140.6,42.4s23.9-77.6,3.6-95.7C61.9,336.1,32,286.4,32,231.7C32,120.9,134.1,31,260,31s228,89.9,228,200.7
		S385.9,426.4,260,426.4z"/>
	<path d="M339.5,113.1c-10.2-7.1-19.3-11.5-20.4-10c-0.1,0.1-0.1,0.2-0.1,0.3c0,2.1,7.1,8.6,16.7,15.2c10.2,7.1,19.3,11.5,20.4,10
		C357.1,127.1,349.7,120.1,339.5,113.1z M340.9,118.2c-0.2,0.3-1.8-0.5-3.7-1.8c-1.8-1.3-3.2-2.6-3-2.8c0.2-0.3,1.8,0.5,3.7,1.8
		C339.7,116.7,341.1,117.9,340.9,118.2z M335.3,119.5c-9.7-6.6-16.8-13.2-16.9-15.3L172.6,316.4c-0.6,0.8-1.3,1.8-1.2,2
		c1.1,5.1,7,12.3,16,17.8c6.8,4.2,13.2,6.4,18.4,6.7c0.4,0,0.9,0,1.2,0c1.7,0.1,2.1-0.8,2.9-1.8l145.2-211.2
		C352.4,129.9,344.2,125.7,335.3,119.5z M168.9,324.7l-1.6,38.8l36.2-15.9C185.4,344.1,178.1,339.1,168.9,324.7z"/>
</g>
</svg>
