<?xml version="1.0" encoding="utf-8"?>
<!-- Generator: Adobe Illustrator 21.1.0, SVG Export Plug-In . SVG Version: 6.00 Build 0)  -->
<svg version="1.1" id="Layer_1" xmlns="http://www.w3.org/2000/svg" xmlns:xlink="http://www.w3.org/1999/xlink" x="0px" y="0px"
	 viewBox="0 0 565.1 512" style="enable-background:new 0 0 565.1 512;" xml:space="preserve">
<g id="_x33_2">
	<path d="M227.1,64.7c-85.2,0-160.5,55.1-160.5,128.2c0,73.1,77.2,129.3,160.8,129.3c83.6,0,160.3-55.8,160.3-129.4
		S312.3,64.7,227.1,64.7z M227.3,290.2c-62.8,0-120.8-42.2-120.8-97.1s56.6-96.4,120.6-96.4s120.6,40.9,120.6,96.2
		C347.7,248.2,290.2,290.2,227.3,290.2z"/>
	<path id="_x33_2_1_" d="M542.2,358.3c15.3-26.1,22.9-54.1,22.9-83.9c0-30.9-8.1-59.6-24.4-86.2c-16.3-26.6-49.7-57.6-77.2-75.4
		c44.2,86.2,24.2,177.3-45.9,240.3c-50.3,41.2-128.2,62.3-203.6,58.7c-6.5,0-16-0.5-28.4-1.5c43.2,32.9,94,55.5,152.3,55.5
		c18.6,0,37.6-2.1,56.8-6.2c25.1,29.3,124.7,51.4,124.7,51.4s-27-42.7-32.7-56.1c-5.7-13.5-5.9-26-7.7-30.4
		C505.9,406.3,527,384.2,542.2,358.3z M227.3,1C107.4,1,0,79.1,0,192.8c0,56.9,27.7,104.9,70,138.6c1.5,1.2,3.2,3,4.8,4.7
		c-1.8,8.3-17.4,81-17.4,81s102.8-26.8,131.2-33.8c5-1.2,10.2-0.1,13.4,0.2c8.6,0.9,17.2,1.3,25.9,1.3
		c116.9,0,226.7-78.1,226.7-191.9S347.3,1,227.3,1z M227.7,353.6c-14.4,0-28.7-1.3-42.8-4c-10.2,2.7-83.3,22.5-83.3,22.5
		s10.9-43.8,12.1-49c-47.4-27.9-80.8-73.4-80.8-130.5c0-97.2,93.8-159.9,194.8-159.9s194.8,65.5,194.8,159.9
		S325.4,353.6,227.7,353.6z"/>
</g>
</svg>
