<?xml version="1.0" encoding="utf-8"?>
<!-- Generator: Adobe Illustrator 22.0.1, SVG Export Plug-In . SVG Version: 6.00 Build 0)  -->
<svg version="1.1" id="Layer_3" xmlns="http://www.w3.org/2000/svg" xmlns:xlink="http://www.w3.org/1999/xlink" x="0px" y="0px"
	 viewBox="0 0 512 512" style="enable-background:new 0 0 512 512;" xml:space="preserve">
<g id="_x33_2">
	<path d="M479.8,32.4v315l-240.1,1.1l-136.1,131l15.7-131H32V32.4H479.8z M33.1-0.7C14.8-0.7,0,14.1,0,32.4v315
		c0,18.3,14.8,33.1,33.1,33.1h50.2l-11.4,95.2c-2.5,20.9,14.3,35.9,32,35.9c7.6,0,15.4-2.8,21.9-9l126.8-122h226
		c18.3,0,33.1-14.8,33.1-33.1v-315c0-18.3-14.8-33.1-33.1-33.1H33.1V-0.7z"/>
	<path d="M333.3,71.8c-10.2-7.1-19.3-11.5-20.4-10c-0.1,0.1-0.1,0.2-0.1,0.3c0,2.1,7.1,8.6,16.7,15.2c10.2,7.1,19.3,11.5,20.4,10
		C350.9,85.8,343.5,78.8,333.3,71.8z M334.7,76.9c-0.2,0.3-1.8-0.5-3.7-1.8c-1.8-1.3-3.2-2.6-3-2.8c0.2-0.3,1.8,0.5,3.7,1.8
		C333.5,75.4,334.9,76.6,334.7,76.9z M329.1,78.2c-9.7-6.6-16.8-13.2-16.9-15.3L166.4,275.1c-0.6,0.8-1.3,1.8-1.2,2
		c1.1,5.1,7,12.3,16,17.8c6.8,4.2,13.2,6.4,18.4,6.7c0.4,0,0.9,0,1.2,0c1.7,0.1,2.1-0.8,2.9-1.8L348.9,88.6
		C346.2,88.6,338,84.4,329.1,78.2z M162.7,283.4l-1.6,38.8l36.2-15.9C179.2,302.8,171.9,297.8,162.7,283.4z"/>
</g>
</svg>
