<?xml version="1.0" encoding="utf-8"?>
<!-- Generator: Adobe Illustrator 21.1.0, SVG Export Plug-In . SVG Version: 6.00 Build 0)  -->
<svg version="1.1" id="Layer_2" xmlns="http://www.w3.org/2000/svg" xmlns:xlink="http://www.w3.org/1999/xlink" x="0px" y="0px"
	 viewBox="0 0 521 512" style="enable-background:new 0 0 521 512;" xml:space="preserve">
<path d="M261,0C117.4,0,1,102.5,1,228.9c0,62.4,28.4,119,74.4,160.3C98.5,409.9,55.3,512,55.3,512s153.5-57.5,182-55.2
	c7.8,0.6,15.7,0.9,23.7,0.9c143.6,0,260-102.5,260-228.9C521,102.5,404.6,0,261,0z M261,426.4c-7,0-13.9-0.3-20.8-0.8
	c-24.9-2-140.6,42.4-140.6,42.4s23.9-77.6,3.6-95.7C62.9,336.1,33,286.4,33,231.7C33,120.9,135.1,31,261,31s228,89.9,228,200.7
	S386.9,426.4,261,426.4z"/>
</svg>
