<?xml version="1.0" encoding="utf-8"?>
<!-- Generator: Adobe Illustrator 21.1.0, SVG Export Plug-In . SVG Version: 6.00 Build 0)  -->
<svg version="1.1" id="Layer_1" xmlns="http://www.w3.org/2000/svg" xmlns:xlink="http://www.w3.org/1999/xlink" x="0px" y="0px"
	 viewBox="0 0 638.8 512" style="enable-background:new 0 0 638.8 512;" xml:space="preserve">
<style type="text/css">
	.st0{fill:#010101;}
</style>
<g id="_x33_2">
	<path d="M457.8,425.8c-39.2,33.8-90.3,54.2-146.1,54.2c-123.7,0-224-100.3-224-224c0-36.7,8.8-71.3,24.4-101.8l-25.6-20.1
		C66.9,170.4,55.7,211.9,55.7,256c0,141.4,114.6,256,256,256c66.1,0,126.3-25,171.7-66.1L457.8,425.8z"/>
	<path class="st0" d="M525.2,397.4c26.9-40.5,42.5-89.1,42.5-141.3c0-141.4-114.6-256-256-256c-74.2,0-141.1,31.6-187.8,82L19.5,0
		L0,25.4L619.4,512l19.5-25.4L525.2,397.4z M348.9,258.9l-16.7-13.1c-3-6.1-8.7-10.6-15.5-12.2l-13.4-10.5
		c26.8-17.1,77.4-40.1,85.6-43.8C385.6,187,365.5,231.2,348.9,258.9z M499.9,377.5L374,278.6c24.8-39.8,53.9-109.3,66.8-141.2
		c2.5-6.5-3.9-12.9-10.3-10.3c-35.6,14.4-117.8,48.9-153.7,75.2L149.2,101.9C190,58.9,247.7,32,311.7,32c123.7,0,224,100.3,224,224
		C535.7,300.8,522.6,342.5,499.9,377.5z"/>
	<path d="M299.8,301.7c-26.4,14.3-57.2,27.6-63.6,30.5c2.7-6,14.7-33.4,27.9-58.5l-26-20.4c-21.8,40.1-44.5,94.4-55.4,121.6
		c-2.6,6.5,3.8,12.9,10.3,10.3c30-12.1,93.2-38.5,133.8-62.3L299.8,301.7z"/>
</g>
</svg>
