<?xml version="1.0" encoding="utf-8"?>
<!-- Generator: Adobe Illustrator 21.1.0, SVG Export Plug-In . SVG Version: 6.00 Build 0)  -->
<svg version="1.1" id="Layer_1" xmlns="http://www.w3.org/2000/svg" xmlns:xlink="http://www.w3.org/1999/xlink" x="0px" y="0px"
	 viewBox="0 0 512 512" style="enable-background:new 0 0 512 512;" xml:space="preserve">
<style type="text/css">
	.st0{fill:#010101;}
</style>
<g id="_x33_2">
	<g>
		<path d="M256,0C114.6,0,0,114.6,0,256s114.6,256,256,256s256-114.6,256-256S397.4,0,256,0z M256,480C132.3,480,32,379.7,32,256
			S132.3,32,256,32s224,100.3,224,224S379.7,480,256,480z"/>
	</g>
	<circle class="st0" cx="256" cy="256" r="23"/>
	<g>
		<path d="M374.8,127c-39.7,16-137.2,57-164,83.8C183.9,237.6,143,335,127,374.8c-2.6,6.5,3.8,12.9,10.3,10.3
			c39.7-16,137.2-57,164-83.8c26.8-26.8,67.8-124.3,83.8-164C387.6,130.8,381.2,124.4,374.8,127z M279.5,278.3
			c-19.1,19.1-89,49.3-99,53.8c4.5-10,35.4-80.7,53.8-99c16.3-16.3,89-49.3,99-53.8C328.8,189.3,295.7,262,279.5,278.3z"/>
	</g>
</g>
</svg>
