<?xml version="1.0" encoding="utf-8"?>
<!-- Generator: Adobe Illustrator 22.0.1, SVG Export Plug-In . SVG Version: 6.00 Build 0)  -->
<svg version="1.1" id="Layer_1" xmlns="http://www.w3.org/2000/svg" xmlns:xlink="http://www.w3.org/1999/xlink" x="0px" y="0px"
	 viewBox="0 0 590 512" style="enable-background:new 0 0 590 512;" xml:space="preserve">
<style type="text/css">
	.st0{fill:#010101;}
</style>
<g>
	<polygon class="st0" points="495.1,136.1 495.1,38.4 461.9,38.4 461.9,136.1 367.7,136.1 367.7,169.8 461.9,169.8 461.9,268.4 
		495.1,268.4 495.1,169.8 589.3,169.8 589.3,136.1 	"/>
	<path class="st0" d="M350.4,460.2V127H146v325.2C77.9,413.7,32,340.7,32,257C32,133.3,132.3,33,256,33c27.8,0,54.3,5,78.9,14.3
		l11.8-29.8C318.5,6.8,287.9,1,256,1C114.6,1,0,115.6,0,257s114.6,256,256,256c118.6,0,218.3-80.6,247.4-190h-33.3
		C451.4,383.9,407.4,433.7,350.4,460.2z M281.4,182.8h37.8v39.8h-37.8V182.8z M281.4,241.4h37.8v39.8h-37.8V241.4z M281.4,300.1
		h37.8v39.8h-37.8V300.1z M229.3,182.8h37.8v39.8h-37.8V182.8z M229.3,241.4h37.8v39.8h-37.8V241.4z M229.3,300.1h37.8v39.8h-37.8
		V300.1z M176.6,182.8h37.8v39.8h-37.8V182.8z M176.6,241.4h37.8v39.8h-37.8V241.4z M176.6,300.1h37.8v39.8h-37.8V300.1z
		 M209.1,476.1v-39.6c-0.3-23.3,17.4-42.2,39.1-42.2c21.7,0,39.3,18.9,39.7,42.2v42.2c-10.4,1.5-21.1,2.3-31.9,2.3
		C239.9,481,224.2,479.3,209.1,476.1z"/>
</g>
</svg>
