<?xml version="1.0" encoding="utf-8"?>
<!-- Generator: Adobe Illustrator 22.0.1, SVG Export Plug-In . SVG Version: 6.00 Build 0)  -->
<svg version="1.1" id="Layer_1" xmlns="http://www.w3.org/2000/svg" xmlns:xlink="http://www.w3.org/1999/xlink" x="0px" y="0px"
	 viewBox="0 0 561.6 512" style="enable-background:new 0 0 561.6 512;" xml:space="preserve">
<g id="_x33_2">
	<g>
		<rect x="0.7" y="453.7" width="560.3" height="58.3"/>
	</g>
	<path d="M342.4,126.2V91.8h0c-0.1-2.3-18.3-4.2-43.5-4.9V49h43.5c0-28.5-27.8-49-62.1-49c-34.4,0-62.1,20.4-62.1,49h43.5v37.9
		c-25.2,0.7-43.4,2.6-43.5,4.9h0v34.5C106.3,158.9,22.5,273.6,22.5,416.3h516.6C539.2,273.6,454.3,158.9,342.4,126.2z M105.9,255
		c15.1-21.9,33.1-40.7,53.6-56c20.7-15.4,43.3-26.8,67.3-33.8l26.4-7.7v-25.5h8.4h35.1h2.2h8.4v25.5l26.4,7.7
		c24,7,46.7,18.4,67.5,33.8c20.6,15.3,38.8,34.1,54,56c24.6,35.3,40.2,76.6,46.1,120.9H60.2C66,331.6,81.5,290.3,105.9,255z"/>
</g>
</svg>
