<?xml version="1.0" encoding="utf-8"?>
<!-- Generator: Adobe Illustrator 21.1.0, SVG Export Plug-In . SVG Version: 6.00 Build 0)  -->
<svg version="1.1" id="smile" xmlns="http://www.w3.org/2000/svg" xmlns:xlink="http://www.w3.org/1999/xlink" x="0px" y="0px"
	 viewBox="0 0 512 512" style="enable-background:new 0 0 512 512;" xml:space="preserve">
<g>
	<path d="M256,0C114.6,0,0,114.6,0,256s114.6,256,256,256s256-114.6,256-256S397.4,0,256,0z M256,480.1c-123.7,0-224-100.3-224-224
		S132.2,32,256,32s224,100.3,224,224S379.7,480.1,256,480.1z"/>
	<path d="M179.2,237.4c16.7,0,30.2-16.7,30.2-37.2s-13.6-37.2-30.2-37.2S149,179.6,149,200.2C148.9,220.8,162.4,237.4,179.2,237.4z"
		/>
	<path d="M332.8,237.4c16.7,0,30.2-16.7,30.2-37.2s-13.6-37.2-30.2-37.2c-16.7,0-30.2,16.7-30.2,37.2
		C302.5,220.8,316,237.4,332.8,237.4z"/>
	<path d="M261.8,361.3l-8.9,1.6c-17.5,3.1-31.7-12.5-45.6-27.6l0,0c-13.7-15-32.4-35.4-55-21.4l-7.6,4.8l18.7,29.8l4.7-2.9
		c3.5,2.7,9.4,9.2,13.3,13.5c15.3,16.7,36,39.6,66.8,39.6l0,0c3.6,0,7.3-0.3,10.8-1l8.8-1.6L261.8,361.3z"/>
</g>
</svg>
