<?xml version="1.0" encoding="utf-8"?>
<!-- Generator: Adobe Illustrator 22.0.1, SVG Export Plug-In . SVG Version: 6.00 Build 0)  -->
<svg version="1.1" id="Layer_2" xmlns="http://www.w3.org/2000/svg" xmlns:xlink="http://www.w3.org/1999/xlink" x="0px" y="0px"
	 viewBox="0 0 577.4 512" style="enable-background:new 0 0 577.4 512;" xml:space="preserve">
<style type="text/css">
	.st0{fill:#020000;}
</style>
<g id="_x33_2_1_">
	<path class="st0" d="M576,496.5L297.5,5.1c-3.9-6.8-13.7-6.8-17.6,0L1.4,496.5c-1.8,3.2-1.8,7.1,0,10.3c1.8,3.2,5.2,5.2,8.8,5.2
		h557.1c3.6,0,7-2,8.8-5.2C577.8,503.7,577.8,499.7,576,496.5z M220.2,470.8c0.9-0.8,1.6-1.8,2.1-3c5-11.8,16.9-39.7,21.7-49.3
		c3.2-7,7-21.2,5.7-31.9c6.7,8.7,13.4,24.6,16,30.3c0.7,4.6-1.4,32-2.6,46.9c-0.2,2.8,0.8,5.3,2.7,7.1H220.2z M233.4,332l-16.5-9.1
		c10.7-13.4,25.4-31.5,27.2-33.1c2.3-2.4,3.6-4.5,7.5-2.3C245.4,295,235.1,327,233.4,332z M281.8,405c-1.6-3.7-6.2-25.6-19.2-41
		c0.1-0.3,0.4-1.5,1-3.5l26.3,14.5c1.6,4.2,5.8,6.8,10.3,6c0.2,0,0.3-0.1,0.5-0.1l36.5,20.2l-7.2,13.5c0,0.1-0.1,0.2-0.1,0.3
		c-0.6,1.5,0.5,3.6,2.5,4.7c5.9,3.3,11.7,6,17.3,8.1c-2,3.9-3.6,8-5,12.4c-17.4-2.4-30.9,12.1-34.6,30.6H278c1.6-1.5,2.6-3.7,2.7-6
		C281.4,447,282.7,407.4,281.8,405z M284.7,345.4c0.2,1.1,1.4,8.5,2.7,16.5l-20.8-11.5c4.2-13,11.5-32.1,20.5-41.6
		c0,2.7-1.9,18.2-2.2,20.9C284.3,335.7,284,340.7,284.7,345.4z M357,416.1c-3.7-1.2-7.3-2.7-10.6-4.2l8.6-18.3
		c3.5,2.3,8.8,6.6,13.9,11.4C364.5,408,360.5,411.7,357,416.1z M443.5,470.8c0-2.2,0-5.3,0-7.2c-0.5-36.4-23.3-65.8-51.3-65.8
		c-4.7,0-9.3,0.8-13.7,2.4c-7.2-7.3-16-14.1-26-19.8c-0.9-0.5-1.8-0.8-2.6-0.8c-0.9,0-1.6,0.3-1.9,1l-6.1,11.5l-34.2-18.9
		c0.2-1.1,0.2-2.2,0-3.3c-1.6-9.9-3.9-24.4-4.8-29.1c-0.3-1.3,0.3-5.4,0.6-8.7c1.3-14.1,8.5-37.9-11.3-50.9l-19.1-9.4
		c-21.3-9.4-25.4-8.1-34.6-3.4c-5.6,2.9-35.5,39.9-46.1,52.6c-3.7,4.4-2.9,11.2,1.7,14.6l1,0.7c4,3,9.5,2.2,12.6-1.8
		c0.7-0.9,1.6-2,2.6-3.2l19.3,10.7c-4.1,11.4-6.3,23.1-2.8,46.8c1,6,1.9,14.1,1.6,17.1c-4.6,9.8-17,38.4-24,55.1
		c-1.6,3.6-0.5,7.5,2.1,9.9H62.7L288.7,72.2l225.9,398.6H443.5z"/>
	<g>
		<path class="st0" d="M294.8,219.9c-13.8,0-25,11.2-25,25s11.2,25,25,25s25-11.2,25-25S308.6,219.9,294.8,219.9z"/>
	</g>
</g>
</svg>
