<?xml version="1.0" encoding="utf-8"?>
<!-- Generator: Adobe Illustrator 21.1.0, SVG Export Plug-In . SVG Version: 6.00 Build 0)  -->
<svg version="1.1" id="Layer_1" xmlns="http://www.w3.org/2000/svg" xmlns:xlink="http://www.w3.org/1999/xlink" x="0px" y="0px"
	 viewBox="0 0 512 512" style="enable-background:new 0 0 512 512;" xml:space="preserve">
<style type="text/css">
	.st0{fill:#000002;}
</style>
<g id="_x33_2">
	<path class="st0" d="M285.7,462c7.7,28.8,34.3,50.1,65.8,50.1c31.5,0,58.1-21.3,65.8-50.1H512v-34.1h-94.7
		c-7.7-28.8-34.3-50.1-65.8-50.1c-31.5,0-58.1,21.3-65.8,50.1H0V462H285.7z M351.5,411.7c18.4,0,33.4,15,33.4,33.4
		s-15,33.4-33.4,33.4s-33.4-15-33.4-33.4S333,411.7,351.5,411.7z"/>
	<path class="st0" d="M118,273.2c7.7,28.8,34.3,50.1,65.8,50.1s58.1-21.3,65.8-50.1H512V239H249.5c-7.7-28.8-34.3-50.1-65.8-50.1
		s-58.1,21.3-65.8,50.1H0v34.2H118z M183.8,222.8c18.4,0,33.4,15,33.4,33.4s-15,33.4-33.4,33.4s-33.5-15-33.5-33.4
		S165.3,222.8,183.8,222.8z"/>
	<path class="st0" d="M285.7,84.3c7.7,28.8,34.3,50.1,65.8,50.1c31.5,0,58.1-21.3,65.8-50.1H512V50.2h-94.7
		C409.6,21.4,383,0.1,351.5,0.1c-31.5,0-58.1,21.3-65.8,50.1H0v34.1H285.7z M351.5,33.8c18.4,0,33.4,15,33.4,33.5
		s-15,33.4-33.4,33.4S318,85.7,318,67.3S333,33.8,351.5,33.8z"/>
</g>
</svg>
