<?xml version="1.0" encoding="utf-8"?>
<!-- Generator: Adobe Illustrator 21.1.0, SVG Export Plug-In . SVG Version: 6.00 Build 0)  -->
<svg version="1.1" id="Layer_2" xmlns="http://www.w3.org/2000/svg" xmlns:xlink="http://www.w3.org/1999/xlink" x="0px" y="0px"
	 viewBox="0 0 507.8 512" style="enable-background:new 0 0 507.8 512;" xml:space="preserve">
<g>
	<path d="M504.1,290.2l-0.1-0.1c-3.2-4-7.3-6.2-11.9-6.2c-12.2-1-22.5-9.5-25.8-21.2c-1.6-5.5-5.6-9.5-11.1-11.1
		c-5.6-1.6-11.8,0-15.8,4c-5.6,5.5-12.5,8.5-20.2,8.5c-12.3,0-23.5-8.5-27.3-20.8l-0.1-0.3c-2.4-6.5-8.7-10.9-15.6-10.9h-0.5
		c-13.9,0-26.2-9.7-28.8-23.3c-2.1-11,2.3-21.7,11.3-28.5l0.1-0.1c3.9-3.1,6.2-7.9,6.2-12.6c0-4.8-2.3-9.5-6.2-12.6l-0.1-0.1
		c-7.5-5.6-11.8-14-11.8-23.1c0-7,2.7-14,7.5-19.2c2.7-2.7,4.1-6.8,4.1-11.6c0-4.3-2.4-9-5.8-11.6c-6.3-5-10.2-13.4-10.2-22
		c0-8.4,3.8-16.5,10.4-22.2l0.3-0.3c4-4,6-9.5,5.2-14.6c-0.8-5.5-4.6-10.3-10.1-12.6h-0.1c-21-8.4-44.8-13.9-70.9-16.3
		c-73.9-5.6-146.8,21-200,73C23.8,126.6-4,198.9,0.5,272.5C8.9,407,121.2,512.4,256.1,512.4c59.8,0,118-21.1,163.9-59.3
		c45.9-38.3,76.9-91.7,87.3-150.4C508,298.4,506.8,293.7,504.1,290.2z M315.1,130.7c0,12.7,4.2,25.2,11.8,35.7
		c-7.7,10-11.8,22.6-11.8,35.9c0,30.3,21.9,55.4,51.3,59.7c10.9,20.3,31.3,32.9,53.9,32.9c9.1,0,17.4-1.7,25.2-5.2
		c6.9,9.9,16.6,17.4,27.9,21.7C448.4,411,359.7,480.2,256,480.2c-117.9,0-216.2-92.1-223.8-209.8C28,205.8,52.6,142.3,99.7,96.2
		c41.7-41.1,98.9-64.7,156.9-64.7c5.8,0,11.9,0.5,17.7,1.1h0.1c13.5,0.9,27.1,3.3,41.5,7.4c-3.8,7.8-5.8,16.9-5.8,26.3
		c0,12.9,4.3,25.6,12.2,36.2C317.6,111.2,315.1,120.9,315.1,130.7z"/>
	<path d="M441.6,158.2c-14.1,13.7-14.4,36.3-0.6,50.4c3.2,3.3,7,5.9,11.2,7.8c17.2-16.1,30.8-35.8,39.8-57.6
		C478.3,144.8,455.7,144.5,441.6,158.2z"/>
	<path d="M493.2,68.9c-9.8-1.4-18.8,5.4-20.1,15.2c-1.4,9.8,5.4,18.8,15.2,20.1c2.3,0.3,4.6,0.2,6.8-0.4
		C496.9,92.2,496.3,80.2,493.2,68.9z"/>
	<path d="M434.4,98.9c-3.6-8.4-13.7-11.1-20.9-6.2c-6.4,4.4-8.1,13.1-3.7,19.5c4.9,7.2,15.2,8.4,21.7,1.9
		C435.4,110.2,436.6,104.1,434.4,98.9z"/>
	<path d="M227.4,63.1l15.1,19.5l-22.1,10.5l-13.1-10.6L227.4,63.1z M89.9,182.8L107,172l-5.8,34l-16.1,4.3l-8.9-15.6L89.9,182.8z
		 M82.4,335.1l-19-20.2l17.9-34.2l20.7-2.2l15.1,42L82.4,335.1z M126.1,121.3l-4.3,5.6l-13.9-3.3l-7-7.4l5.4-12.6l19.8,15.8V121.3z
		 M144.7,397.8l-11.3,1.2l-4.5-8.8l14.8-13.3l17,14.4L144.7,397.8z M185.4,270.4l-9.7,3.3l-9-9.4l9.7-8.2l10.8,7.6L185.4,270.4z
		 M185.6,164.6l-14.5-2.3l8.7-16.9l22.6,10.1L185.6,164.6z M206.9,450.1l27.8-15.7l9.6,27.9L206.9,450.1z M250.5,360h-21l7.2-19.6
		l22.3,10.4L250.5,360z M272,237.1h-22.6l-12.2-16.7l8.8-13.3l27.7,16.1L272,237.1z M277.1,153.6l-16.7-19.1l23.4-10.4l14.4,15.3
		L277.1,153.6z M330.1,397.9l-13.4-10.1l18.4-10l13.4,16.2L330.1,397.9z M359.1,328.9l-47.9-27l29.6-26.2l25.3,19.2L359.1,328.9z
		 M410.9,361l-9.2-16.4l23.1-1.6l0.5,18H410.9z"/>
</g>
</svg>
