<?xml version="1.0" encoding="utf-8"?>
<!-- Generator: Adobe Illustrator 21.1.0, SVG Export Plug-In . SVG Version: 6.00 Build 0)  -->
<svg version="1.1" id="_x33_2" xmlns="http://www.w3.org/2000/svg" xmlns:xlink="http://www.w3.org/1999/xlink" x="0px" y="0px"
	 viewBox="0 0 512 512" style="enable-background:new 0 0 512 512;" xml:space="preserve">
<path d="M256,0C114.6,0,0,114.6,0,256s114.6,256,256,256s256-114.6,256-256S397.4,0,256,0z M256,480.1
	C132.3,480.1,31.9,379.8,31.9,256S132.3,31.9,256,31.9S480.1,132.3,480.1,256S379.8,480.1,256,480.1z"/>
<path d="M303.6,310.9h33.8c-4.6,20.1-14.2,35.8-28.5,46.8c-7.3,5.5-15.3,9.7-23.8,12.5c-8.5,2.8-17.9,4.2-27.8,4.2
	c-43,0-72.3-29.2-79.7-63c-2.3-10.6-1.6-88.4-1.6-97.4c0-19,11.2-45.1,35.9-61.6c12.3-8.2,27.3-13,45.4-13
	c21.6,0,39.7,6.7,53.7,19.9c13.8,12.9,22.6,28.2,26.4,45.6h-33.6c-3.6-10.3-18-33.8-46.5-33.8c-32.4,0-49.8,27.7-49.8,54
	c0,7.8,0,53.7,0,61.4c0,31.5,19.4,56.4,49.8,56.4C277.6,343.1,293.1,332.2,303.6,310.9z"/>
</svg>
