<?xml version="1.0" encoding="utf-8"?>
<!-- Generator: Adobe Illustrator 21.1.0, SVG Export Plug-In . SVG Version: 6.00 Build 0)  -->
<svg version="1.1" id="Layer_1" xmlns="http://www.w3.org/2000/svg" xmlns:xlink="http://www.w3.org/1999/xlink" x="0px" y="0px"
	 viewBox="0 0 550 512" style="enable-background:new 0 0 550 512;" xml:space="preserve">
<g>
	<g>
		<path d="M119.1,321l311,0.1V160.9h78L507.9,65c0-17.7-6.3-33-19-46C476.3,6.4,461.1,0.1,443.1,0.1H110.9c-17.9,0-33.2,6.3-45.8,19
			c-12.7,13-19,28.3-19,46V161h73C119.1,161,119.1,321,119.1,321z M78.1,128.9c0,0-1-47-1-63c0-19,14.9-34,33-34h332
			c19.1,0,34,15.1,34,34v62c0,0.5-43.1,0-45,0c-18.2,0-33,15-33,33c0,57.9,0,128,0,128h-246c0,0,0-71.5,0-127c0-18.8-15-34-33-34
			C118.6,128,78.1,128.9,78.1,128.9z M520.8,176.9h-74.7v160h-343v-160H29.3C13.1,176.9,0,190,0,206.2V471h44.7v41h50.6v-41h360.5
			v41h50.6v-41H550V206.2C550.1,190.1,536.9,176.9,520.8,176.9z M518.1,438h-486V209h40c0,0,0,125.5,0,127c0,18,15,33,33.3,33h340.1
			c18.7,0,33.7-15,33.7-33c0-0.5,0-127,0-127h39v229H518.1z"/>
	</g>
</g>
</svg>
