<?xml version="1.0" encoding="utf-8"?>
<!-- Generator: Adobe Illustrator 21.1.0, SVG Export Plug-In . SVG Version: 6.00 Build 0)  -->
<svg version="1.1" id="Layer_2" xmlns="http://www.w3.org/2000/svg" xmlns:xlink="http://www.w3.org/1999/xlink" x="0px" y="0px"
	 viewBox="0 0 600.5 512" style="enable-background:new 0 0 600.5 512;" xml:space="preserve">
<g>
	<g>
		<path d="M488.6,268.2c1.6,0,2.8-0.5,3.7-1.4c-0.2,1.3-1,2.5-2.2,3.4c-1.1,0.8-2.3,1.2-3.7,1.2h-2v3.4h2c2.8-0.2,5.2-1.1,7.1-2.6
			c2.3-2.2,3.5-5,3.5-8.4c0-2.4-0.6-4.4-1.9-6c-1.3-1.5-3.1-2.2-5.3-2.2c-2.2,0-3.9,0.7-5.3,2c-1.2,1.2-1.8,2.8-1.8,4.8
			c0,1.7,0.5,3.2,1.6,4.2C485.6,267.6,487,268.2,488.6,268.2z M487.8,259.9c0.5-0.5,1.2-0.8,2-0.8c0.9,0,1.6,0.5,2,1.4l0.2,1
			l0.2,1.4v1.2c-0.4,1-1.2,1.4-2.4,1.4c-1,0-1.6-0.4-2-1.2c-0.4-0.5-0.6-1.2-0.6-2C487.2,261.4,487.4,260.5,487.8,259.9z
			 M191.8,274.9c2.5,0,4.3-1,5.5-2.8c1.2-1.6,1.8-4,1.8-7c0-2.9-0.5-5.2-1.6-6.8c-1.5-1.9-3.3-2.8-5.5-2.8c-2.3,0-4,1-5.3,2.8
			c-1.2,1.7-1.9,4.1-1.9,7s0.6,5.2,1.9,6.8C187.8,274,189.5,274.9,191.8,274.9z M192,259.3c1.7,0,2.6,2.1,2.6,6.2
			c0,4.3-0.9,6.4-2.6,6.4c-1.9,0-2.8-2-2.8-6.2C189.2,261.4,190.2,259.3,192,259.3z M500.9,259.7v1.8c0.4-0.2,1-0.6,1.6-1l1.2-0.4
			l0.6-0.4h0.2v14.7h4.3v-18.6h-3.6l-2.6,1.2l-0.4,0.4l-0.6,0.2l-1.2,0.6l0.2,0.8L500.9,259.7z M542.2,273.4
			c1.5-1.3,2.2-2.8,2.2-4.2c0-1.3-0.5-2.3-1.4-3c-0.8-1-1.7-1.5-2.8-1.6c2.3-0.8,3.5-2.2,3.5-4.2c0-1.1-0.5-2.2-1.4-3.4
			c-1.1-1-2.7-1.4-4.9-1.4c-2.4,0-4.3,0.5-5.7,1.4l0.4,1.2l0.2,1l0.2,1l1.6-0.6c0.8-0.4,1.6-0.6,2.5-0.6c1.9,0,2.8,0.7,2.8,2
			c0,0.7-0.4,1.2-1.2,1.6c-0.8,0.4-1.6,0.6-2.2,0.6h-1.8v3h1.8c1.2,0,2,0.2,2.5,0.6c0.8,0.5,1.2,1.3,1.2,2.4c0,0.7-0.2,1.2-0.8,1.6
			c-0.5,0.4-1.4,0.6-2.6,0.6l-2.4-0.4l-0.6-0.2h-0.4l-0.8-0.6l-0.4,1.8l-0.4,1.6c1.1,1,2.9,1.4,5.5,1.4
			C538.9,274.9,540.7,274.4,542.2,273.4z M224.2,274.9c2.2,0,3.9-1,5.3-2.8c1.1-1.7,1.6-4.1,1.6-7c0-2.7-0.5-5-1.6-6.8
			c-1.2-1.9-2.9-2.8-5.3-2.8c-2.3,0-4.1,1-5.5,2.8c-1.1,1.9-1.6,4.1-1.6,6.8s0.5,5,1.6,7C220.1,274,221.9,274.9,224.2,274.9z
			 M224.2,259.3c1.7,0,2.6,2.1,2.6,6.2c0,4.3-0.9,6.4-2.6,6.4s-2.6-2.2-2.6-6.4C221.6,261.4,222.5,259.3,224.2,259.3z M431.8,269.5
			c0,1.4,0.5,2.6,1.6,3.4c1.4,1.2,3,1.8,4.9,1.8c2.3,0,4.1-0.5,5.5-1.4c1.3-1.2,2-2.6,2-4.2c0-2.3-1.1-3.8-3.4-4.6v-0.2
			c1.7-0.8,2.7-2.2,2.8-4c0-1.2-0.5-2.3-1.6-3.4c-1.1-1-2.6-1.4-4.7-1.4c-2,0-3.7,0.5-4.9,1.4c-1.2,1.1-1.8,2.3-1.8,3.6
			c0,2,1,3.4,2.8,4.2C432.9,265.6,431.8,267.3,431.8,269.5z M437,259.5c0.4-0.5,1-0.8,1.9-0.8c1.3,0,2,0.7,2,2.2
			c0,0.7-0.2,1.3-0.6,1.8s-0.8,0.8-1.2,0.8c-0.5,0-1.1-0.2-1.6-0.8c-0.5-0.5-0.8-1.1-0.8-1.8C436.6,260.5,436.8,260,437,259.5z
			 M436.8,267.7c0.5-0.8,1.1-1.2,1.6-1.2c0.5,0,1.1,0.4,1.9,1.2c0.5,0.5,0.8,1.2,0.8,2c0,0.8-0.1,1.3-0.4,1.6c-0.5,0.7-1.1,1-1.8,1
			c-0.8,0-1.5-0.4-2-1c-0.4-0.4-0.6-1-0.6-1.8C436.2,269,436.4,268.4,436.8,267.7z M528.5,274.7v-3.8h-7.1l0.8-0.8l1-0.8
			c3.1-2.9,4.7-5.6,4.7-7.9c0-1.9-0.5-3.3-1.6-4.2c-1.2-1.2-2.8-1.8-4.9-1.8c-2.5,0-4.5,0.7-6.3,2l0.4,0.6l0.4,0.8l0.4,0.8
			c0,0.4,0.1,0.7,0.2,0.8l1-0.6l0.8-0.4c0.8-0.2,1.6-0.4,2.2-0.4c2,0,3.1,0.8,3.1,2.6c0,1.2-0.5,2.3-1.6,3.4l-0.6,0.8l-1,1
			c-1,1-1.9,1.8-3,2.6l-1,1.2c-0.7,0.7-1.1,1.1-1.4,1.2v2.4l6.9,0.4h6.5V274.7z M406.9,274.7c1.9,0,3.5-0.7,4.9-2
			c1.3-1.3,2-2.9,2-4.8c0-1.7-0.5-3.3-1.6-4.6c-1.5-1-2.8-1.4-4-1.4c-1.5,0-2.8,0.5-4,1.4h-0.2c0.8-2.5,2.9-4,6.3-4.4h1.6v-3.4h-1.6
			c-2.8,0.1-5.3,1.1-7.5,2.8c-2.3,2-3.4,4.7-3.4,8.2c0,2.3,0.7,4.2,2,5.8C402.5,274,404.5,274.7,406.9,274.7z M403.9,267.1
			c0.7-1.1,1.6-1.6,2.8-1.6c0.8,0,1.5,0.3,2,0.8c0.5,0.5,0.8,1.3,0.8,2.2c0,1.1-0.2,2-0.8,2.6c-0.4,0.5-1,0.8-1.8,0.8
			c-0.8,0-1.6-0.3-2.2-1c-0.5-0.7-0.8-1.6-0.8-2.6V267.1z M334.6,274.3h4v-4.4h2.2v-3.2h-2.2v-11h-5.5l-1.6,2.6l-0.8,1.4l-1,1.8
			l-0.8,1.4l-0.4,0.4l-0.4,0.6c-0.7,1.3-1.4,2.4-2,3.2v2.8h8.5L334.6,274.3L334.6,274.3z M330.4,267.1l0.4-0.4l0.2-0.6l0.6-1.2
			l0.8-1l0.6-1c0.2-0.5,0.5-1.1,0.8-1.6l0.2-0.8l0.6-1v7.6L330.4,267.1L330.4,267.1z M318.5,270.6c-0.8,0.5-1.7,0.8-2.6,0.8
			l-1.2-0.2l-1.2-0.2l-1.2-0.4l-0.4-0.2l-0.4-0.2c-0.3,1.2-0.5,2.3-0.8,3.4c1.5,0.8,3.4,1.2,5.7,1.2c1.9,0,3.8-0.5,5.7-1.4
			c1.3-1.3,2-2.8,2-4.2c0-1.2-0.4-2.3-1.2-3.2c-0.7-0.8-1.6-1.3-2.8-1.4c2.3-1.1,3.4-2.6,3.4-4.4c0-1.3-0.6-2.4-1.9-3.2
			c-1-1-2.4-1.4-4.4-1.4c-2.5,0-4.4,0.5-6.1,1.4c0.2,0.2,0.4,0.5,0.4,0.8l0.2,0.6l0.4,1.8l0.8-0.6l0.8-0.4l1.4-0.2h0.8
			c1.9,0,2.8,0.7,2.8,2c0,0.7-0.4,1.2-1,1.6l-2.2,0.6h-1.9v3h1.9c1.1,0,2,0.2,2.8,0.6c0.7,0.7,1,1.3,1,2
			C319.3,269.5,319,270.1,318.5,270.6z M307.9,270.7h-7.1l0.8-0.6l0.6-0.4l0.2-0.4c3.5-3.1,5.3-5.7,5.3-7.9c0-2-0.6-3.4-1.9-4.2
			c-1.2-1.2-2.9-1.8-5-1.8c-2.3,0-4.3,0.7-6.1,2c0.2,0.8,0.7,1.8,1.2,3c0.7-0.4,1.2-0.7,1.6-1c0.8-0.4,1.6-0.6,2.5-0.6
			c2,0,3,1,3,2.8c0,1-0.5,2.1-1.4,3.4l-0.8,0.8l-1,1c-1,1-2,1.8-3.1,2.6l-1,1.2l-0.6,0.6l-0.6,0.6v2.4h13.4L307.9,270.7L307.9,270.7
			z M420.6,267.1l-3.7,7.3h4.4c1.2-2,3.8-7.3,7.9-15.6v-3H416v3.8h8.7L420.6,267.1z M280.7,261.5l0.4-0.4l0.6-0.2l1-0.4l0.4-0.4
			l1.2-0.4v14.7h4.3v-18.6h-3.7c-1,0.4-1.9,0.9-2.8,1.4l-2,1v0.8l0.2,0.8C280.5,260.5,280.7,261.1,280.7,261.5z M234.7,271.9
			c1.3,2,3.1,2.9,5.3,2.8c2.5,0,4.2-0.8,5.3-2.6c1.3-1.6,2-4,2-7c0-2.7-0.5-5-1.6-6.8c-1.5-1.9-3.3-2.8-5.5-2.8
			c-2.3,0-4.1,1-5.5,2.8c-1.2,1.9-1.7,4.1-1.6,6.8C233.1,267.7,233.7,270,234.7,271.9z M240.2,259.3c1.7,0,2.6,2.1,2.6,6.2
			c0,4.3-0.9,6.4-2.6,6.4c-1.9,0-2.8-2.2-2.8-6.4C237.3,261.4,238.3,259.3,240.2,259.3z M394.8,272.8c1.5-1.1,2.2-2.6,2.2-4.6
			c0-2.2-0.8-3.8-2.2-4.8c-1.6-0.7-3.3-1-5-1h-1.2l0.2-0.6v-1.6l0.4-0.6h7v-3.8h-10.3c0,1.1-0.2,2.6-0.6,4.4l-0.4,2.6l-0.4,3
			l1.2-0.4h1.4c3.7,0,5.5,1.1,5.5,3.2c0,0.8-0.4,1.6-1.2,2.2c-0.8,0.4-1.7,0.6-2.6,0.6c-0.2,0-1.1-0.1-2.4-0.4
			c-1-0.2-1.6-0.4-1.9-0.4l-0.2,0.6l-0.2,1v0.8l-0.4,0.6c1.3,0.8,3.2,1.2,5.5,1.2C391.2,274.7,393.1,274.1,394.8,272.8z M208,274.9
			c2.2,0,4-1,5.5-2.8c1.1-1.7,1.6-4.1,1.6-7s-0.5-5.2-1.4-6.8c-1.4-1.9-3.2-2.8-5.5-2.8c-2.3,0-4.2,1-5.7,2.8
			c-1.1,1.9-1.6,4.1-1.6,6.8s0.5,5,1.6,7C204,274,205.9,274.9,208,274.9z M208,259.3c1.9,0,2.8,2.1,2.8,6.2c0,4.3-1,6.4-2.8,6.4
			c-1.7,0-2.6-2.2-2.6-6.4C205.4,261.4,206.3,259.3,208,259.3z M481,466.3c8.7,0,16.6-4,21.8-10.2c5.2,6.2,13,10.2,21.8,10.2
			c15.6,0,28.3-12.6,28.3-28.3c0-15.6-12.6-28.3-28.3-28.3c-8.7,0-16.6,4-21.8,10.2c-5.2-6.2-13-10.2-21.8-10.2
			c-15.6,0-28.3,12.6-28.3,28.3C452.7,453.6,465.3,466.3,481,466.3z M388.3,423.4h-95.7v31.2h95.7V423.4z M260.7,423.4h-63.8v31.2
			h63.8V423.4z M135.4,205.2V512h0.1l0,0h465l0,0l0,0V205.2H135.4z M581.4,492.8H154.7V345.3h426.7V492.8z M581.4,294.3H154.7v-70
			h426.7V294.3z"/>
	</g>
</g>
<g>
	<g>
		<path d="M355.3,94.7c-0.9-2.2-2.3-3.8-4.1-4.8c-1.8-0.9-3.7-0.8-5.7,0c-2,0.9-3.3,2.1-4.1,3.9c-0.6,1.6-0.5,3.3,0.2,5.1
			c0.7,1.6,1.7,2.7,3.1,3.2c1.6,0.5,3.1,0.4,4.5-0.2c1.5-0.6,2.4-1.6,2.8-2.7c0.3,1.3,0,2.7-0.7,4c-0.7,1.1-1.6,2-2.9,2.5l-1.9,0.8
			l1.3,3.1l1.9-0.8c2.5-1.3,4.3-3.1,5.5-5.2C356.7,101,356.6,97.9,355.3,94.7z M349.4,99.1c-0.9,0.4-1.7,0.3-2.3-0.3
			c-0.6-0.3-1-0.9-1.3-1.6c-0.4-0.8-0.5-1.7-0.4-2.4c0.3-0.7,0.8-1.2,1.6-1.5c0.8-0.4,1.7-0.2,2.4,0.5l0.6,0.9l0.7,1.2l0.5,1.1
			C351.1,97.9,350.5,98.6,349.4,99.1z M82.1,213.5c-1.2-2.7-2.6-4.6-4.2-5.6c-2.1-1.1-4.1-1.3-6.1-0.4c-2.1,0.9-3.3,2.5-3.7,4.7
			c-0.4,2.1-0.1,4.5,1.1,7.2c1.2,2.7,2.6,4.6,4.4,5.5c1.7,1.3,3.6,1.5,5.8,0.6c2.3-1,3.5-2.6,3.9-4.7
			C83.7,218.7,83.3,216.3,82.1,213.5z M78.3,222.6c-1.8,0.8-3.4-0.8-5.1-4.6c-1.7-3.9-1.6-6.3,0.1-7c1.6-0.7,3.2,0.9,4.9,4.7
			C79.9,219.6,79.9,221.9,78.3,222.6z M363,82.6l-3.3,1.4l-2,2.1l-0.2,0.6l-0.5,0.4l-0.9,1l0.5,0.6l0.7,0.6l0.7,1.6
			c0.3-0.4,0.6-0.9,1.1-1.6l0.9-0.9l0.4-0.6l0.2-0.1l5.8,13.5l3.9-1.7L363,82.6z M401.1,80.9c-0.5-1.2-1.4-2-2.5-2.2
			c-1.1-0.6-2.2-0.7-3.2-0.4c1.8-1.6,2.3-3.4,1.5-5.2c-0.4-1-1.3-1.9-2.7-2.6c-1.4-0.5-3-0.2-5,0.6c-2.2,0.9-3.8,2.1-4.7,3.5
			l0.9,0.9l0.6,0.9l0.6,0.9l1.3-1.2c0.6-0.7,1.3-1.2,2-1.5c1.7-0.7,2.9-0.5,3.4,0.7c0.3,0.6,0.1,1.3-0.5,2c-0.6,0.7-1.2,1.2-1.8,1.4
			l-1.7,0.7l1.2,2.8l1.7-0.7c1.1-0.5,1.9-0.6,2.5-0.4c1,0.2,1.6,0.7,2,1.7c0.3,0.6,0.3,1.2-0.1,1.8c-0.3,0.6-1.1,1.1-2.2,1.6
			l-2.4,0.6l-0.6,0.1l-0.4,0.2l-1-0.2l0.3,1.8l0.3,1.7c1.4,0.5,3.2,0.1,5.6-0.9c2.2-1,3.7-2.2,4.6-3.8
			C401.5,83.9,401.6,82.3,401.1,80.9z M107.3,195.2c-1.8-1.2-3.8-1.4-6-0.5c-2.1,0.9-3.4,2.5-3.9,4.7c-0.3,2.1,0.1,4.4,1.2,6.9
			c1.1,2.5,2.5,4.4,4.2,5.8c2,1.2,4,1.3,6.1,0.4c0.7-0.3,1.3-0.7,1.8-1.2v-12C109.9,197.7,108.7,196.3,107.3,195.2z M107.9,209.9
			c-1.6,0.7-3.3-0.9-5-4.9c-1.6-3.8-1.6-6.1,0-6.8c1.6-0.7,3.2,0.9,4.9,4.7C109.5,206.9,109.5,209.2,107.9,209.9z M310.4,119.9
			c-0.9-2.1-2.6-3.1-5-2.9l-0.1-0.2c1.3-1.4,1.6-3,1-4.8c-0.5-1.1-1.4-1.9-2.8-2.5c-1.4-0.5-3-0.2-4.8,0.6c-1.9,0.8-3.2,1.9-3.9,3.2
			c-0.7,1.5-0.8,2.8-0.2,4c0.8,1.8,2.2,2.8,4.2,2.7c-1.6,1.7-2,3.6-1.1,5.7c0.6,1.3,1.5,2.2,2.8,2.5c1.7,0.6,3.5,0.5,5.2-0.3
			c2.1-0.9,3.6-2.1,4.5-3.4C310.9,122.9,311,121.4,310.4,119.9z M300.2,117.2c-0.7-0.3-1.2-0.7-1.5-1.3c-0.2-0.4-0.2-0.9-0.2-1.5
			c0.2-0.7,0.6-1.1,1.4-1.5c1.2-0.5,2.2-0.1,2.7,1.2c0.3,0.6,0.3,1.2,0.2,1.9c-0.2,0.7-0.5,1-0.8,1.2
			C301.5,117.5,300.9,117.5,300.2,117.2z M306.5,123.9c-0.2,0.8-0.6,1.4-1.2,1.6c-0.8,0.3-1.5,0.3-2.3-0.1c-0.6-0.2-1-0.7-1.3-1.4
			c-0.2-0.5-0.3-1.1-0.2-1.9c0.2-0.9,0.5-1.5,1-1.7c0.5-0.2,1.2-0.1,2.2,0.4c0.7,0.3,1.2,0.8,1.5,1.5
			C306.6,123,306.7,123.5,306.5,123.9z M387,88.9l-6.5,2.8l0.5-1l0.6-1.1c1.7-3.9,2.1-7,1.2-9.1c-0.7-1.7-1.8-2.8-3.1-3.2
			c-1.6-0.6-3.3-0.5-5.2,0.3c-2.3,1-3.9,2.4-5,4.3l0.6,0.4l0.7,0.5l0.7,0.6c0.2,0.4,0.3,0.6,0.5,0.6l0.7-1l0.6-0.7
			c0.7-0.6,1.3-1,1.9-1.3c1.9-0.8,3.1-0.4,3.8,1.2c0.5,1.1,0.4,2.4-0.1,3.8l-0.2,1l-0.5,1.3c-0.5,1.3-1.1,2.4-1.7,3.6l-0.5,1.5
			c-0.3,0.9-0.6,1.4-0.9,1.7l0.9,2.2l6.5-2.3l6-2.6L387,88.9z M280.5,131.4c-0.7-1.6-1.8-2.8-3.3-3.6c-1.8-0.3-3.1-0.2-4.2,0.3
			c-1.4,0.6-2.4,1.6-3.1,2.9l-0.2,0.1c-0.2-2.6,1.1-4.8,4-6.6l1.5-0.6l-1.3-3.1l-1.5,0.6c-2.5,1.2-4.5,3.1-5.8,5.5
			c-1.3,2.7-1.3,5.7,0.1,8.9c0.9,2.1,2.3,3.6,4.2,4.5c1.7,1,3.8,1,6,0c1.8-0.8,2.9-2,3.7-3.7C281.2,134.9,281.2,133.1,280.5,131.4z
			 M277.1,136.3c-0.2,0.7-0.6,1.1-1.3,1.4c-0.8,0.3-1.6,0.3-2.4-0.1c-0.8-0.4-1.4-1.1-1.8-2.1l-0.4-1c0.2-1.3,0.9-2.1,2-2.6
			c0.8-0.3,1.5-0.3,2.2-0.1c0.7,0.3,1.3,0.8,1.6,1.7C277.3,134.6,277.4,135.5,277.1,136.3z M214.3,161.9L213,159l-2,0.9l-4.4-10.1
			l-5,2.2l-0.4,3.1l-0.2,1.6l-0.2,2.1l-0.2,1.6l-0.2,0.6l-0.1,0.7c-0.1,1.5-0.3,2.7-0.6,3.8l1.1,2.6l7.8-3.4l1.7,4l0.1,0l3.7-1.6
			l-1.7-4.1L214.3,161.9z M203.6,163.5L203.6,163.5L203.6,163.5L203.6,163.5l0.2-0.5l-0.1-0.6l0.1-1.3l0.4-1.3l0.1-1.2
			c0-0.6,0.1-1.2,0.1-1.8l-0.1-0.8l0.1-1.2l3,7L203.6,163.5z M198.5,168c-0.5-1.1-1.3-1.9-2.4-2.5c-0.9-0.5-2-0.5-3.1-0.2
			c1.7-1.9,2.1-3.7,1.4-5.4c-0.5-1.2-1.5-2-3-2.2c-1.3-0.5-2.8-0.3-4.6,0.5c-2.3,1-3.9,2.2-5,3.7c0.3,0.1,0.6,0.3,0.7,0.6l0.4,0.5
			l1.1,1.5l0.5-0.9l0.6-0.7l1.3-0.7l0.8-0.3c1.8-0.8,2.9-0.5,3.4,0.7c0.3,0.6,0.1,1.2-0.3,1.9l-1.8,1.4l-1.7,0.7l1.2,2.8l1.7-0.7
			c1-0.4,1.9-0.6,2.8-0.6c0.9,0.3,1.5,0.8,1.7,1.4c0.3,0.7,0.2,1.4-0.1,2c-0.6,0.8-1.2,1.4-2.1,1.8l-1.2,0.3l-1.2,0.3l-1.3,0.1h-0.9
			c0.2,1.2,0.4,2.4,0.6,3.5c1.7,0.1,3.6-0.2,5.7-1.1c1.8-0.8,3.3-1.9,4.7-3.5C199,170.9,199.1,169.3,198.5,168z M184.3,175.8
			l-6.4,2.8l0.5-0.9l0.4-0.6v-0.5c2-4.2,2.6-7.3,1.7-9.3c-0.8-1.8-1.9-2.9-3.4-3.1c-1.6-0.6-3.3-0.5-5.3,0.3
			c-2.1,0.9-3.7,2.3-4.8,4.2c0.5,0.6,1.3,1.4,2.3,2.3c0.4-0.6,0.8-1.1,1.1-1.6c0.6-0.7,1.3-1.2,2-1.5c1.9-0.8,3.1-0.3,3.9,1.4
			c0.4,0.9,0.4,2.1,0,3.7l-0.5,1l-0.5,1.3c-0.5,1.3-1.1,2.4-1.8,3.6l-0.5,1.5l-0.3,0.7h7.7l5.1-2.2L184.3,175.8z M290,114l-12.3,5.3
			l1.5,3.5l8-3.4l-0.7,8.5L286,136l4.1-1.7c0.3-2.3,0.7-8.2,1.1-17.5L290,114z M160.6,169.5l-3.4,1.4c-0.7,0.8-1.4,1.6-2,2.4
			l-1.5,1.7l0.3,0.7l0.5,0.6c0.6,0.7,1,1.2,1.1,1.5l0.2-0.6l0.5-0.4l0.8-0.8l0.2-0.6l0.9-0.9l2.7,6.3h4.6L160.6,169.5z M265.2,138.2
			c-0.9-2-2.2-3.2-3.9-3.5c-1.7,0-3.4,0.4-5,1l-1.1,0.5l-0.1-0.6l-0.6-1.5l0.1-0.7l6.4-2.8l-1.5-3.5l-9.5,4.1c0.4,1,0.9,2.4,1.2,4.3
			l0.6,2.5l0.8,2.9l0.9-0.9l1.3-0.6c3.4-1.4,5.4-1.2,6.3,0.8c0.3,0.7,0.2,1.6-0.2,2.5c-0.6,0.7-1.3,1.2-2.2,1.6
			c-0.2,0.1-1,0.3-2.4,0.6c-1,0.2-1.6,0.2-1.9,0.3l0.1,0.6l0.2,1l0.3,0.7l-0.1,0.7c1.5,0.2,3.4-0.1,5.5-1c2-0.7,3.5-2.1,4.5-4
			C265.9,141.7,266,140.1,265.2,138.2z M96.8,207.2c-1.2-2.7-2.5-4.6-4-5.7c-2-1.2-4-1.3-6.1-0.4c-2.1,0.9-3.5,2.5-4.1,4.8
			c-0.3,2.1,0.1,4.4,1.2,6.9c1.1,2.5,2.5,4.4,4.2,5.8c2.1,1.2,4.2,1.3,6.2,0.4c2-0.9,3.3-2.4,3.9-4.7
			C98.4,212.2,98,209.9,96.8,207.2z M93,216.3c-1.6,0.7-3.3-0.9-5-4.9c-1.6-3.8-1.6-6.1,0-6.8c1.7-0.7,3.4,0.8,5,4.6
			C94.8,213.2,94.7,215.5,93,216.3z M82.1,213.5c-1.2-2.7-2.6-4.6-4.2-5.6c-2.1-1.1-4.1-1.3-6.1-0.4c-2.1,0.9-3.3,2.5-3.7,4.7
			c-0.4,2.1-0.1,4.5,1.1,7.2c1.2,2.7,2.6,4.6,4.4,5.5c1.7,1.3,3.6,1.5,5.8,0.6c2.3-1,3.5-2.6,3.9-4.7
			C83.7,218.7,83.3,216.3,82.1,213.5z M78.3,222.6c-1.8,0.8-3.4-0.8-5.1-4.6c-1.7-3.9-1.6-6.3,0.1-7c1.6-0.7,3.2,0.9,4.9,4.7
			C79.9,219.6,79.9,221.9,78.3,222.6z M96.8,207.2c-1.2-2.7-2.5-4.6-4-5.7c-2-1.2-4-1.3-6.1-0.4c-2.1,0.9-3.5,2.5-4.1,4.8
			c-0.3,2.1,0.1,4.4,1.2,6.9c1.1,2.5,2.5,4.4,4.2,5.8c2.1,1.2,4.2,1.3,6.2,0.4c2-0.9,3.3-2.4,3.9-4.7
			C98.4,212.2,98,209.9,96.8,207.2z M93,216.3c-1.6,0.7-3.3-0.9-5-4.9c-1.6-3.8-1.6-6.1,0-6.8c1.7-0.7,3.4,0.8,5,4.6
			C94.8,213.2,94.7,215.5,93,216.3z M107.3,195.2c-1.8-1.2-3.8-1.4-6-0.5c-2.1,0.9-3.4,2.5-3.9,4.7c-0.3,2.1,0.1,4.4,1.2,6.9
			c1.1,2.5,2.5,4.4,4.2,5.8c2,1.2,4,1.3,6.1,0.4c0.7-0.3,1.3-0.7,1.8-1.2v-12C109.9,197.7,108.7,196.3,107.3,195.2z M107.9,209.9
			c-1.6,0.7-3.3-0.9-5-4.9c-1.6-3.8-1.6-6.1,0-6.8c1.6-0.7,3.2,0.9,4.9,4.7C109.5,206.9,109.5,209.2,107.9,209.9z M160.6,169.5
			l-3.4,1.4c-0.7,0.8-1.4,1.6-2,2.4l-1.5,1.7l0.3,0.7l0.5,0.6c0.6,0.7,1,1.2,1.1,1.5l0.2-0.6l0.5-0.4l0.8-0.8l0.2-0.6l0.9-0.9
			l2.7,6.3h4.6L160.6,169.5z M184.3,175.8l-6.4,2.8l0.5-0.9l0.4-0.6v-0.5c2-4.2,2.6-7.3,1.7-9.3c-0.8-1.8-1.9-2.9-3.4-3.1
			c-1.6-0.6-3.3-0.5-5.3,0.3c-2.1,0.9-3.7,2.3-4.8,4.2c0.5,0.6,1.3,1.4,2.3,2.3c0.4-0.6,0.8-1.1,1.1-1.6c0.6-0.7,1.3-1.2,2-1.5
			c1.9-0.8,3.1-0.3,3.9,1.4c0.4,0.9,0.4,2.1,0,3.7l-0.5,1l-0.5,1.3c-0.5,1.3-1.1,2.4-1.8,3.6l-0.5,1.5l-0.3,0.7h7.7l5.1-2.2
			L184.3,175.8z M198.5,168c-0.5-1.1-1.3-1.9-2.4-2.5c-0.9-0.5-2-0.5-3.1-0.2c1.7-1.9,2.1-3.7,1.4-5.4c-0.5-1.2-1.5-2-3-2.2
			c-1.3-0.5-2.8-0.3-4.6,0.5c-2.3,1-3.9,2.2-5,3.7c0.3,0.1,0.6,0.3,0.7,0.6l0.4,0.5l1.1,1.5l0.5-0.9l0.6-0.7l1.3-0.7l0.8-0.3
			c1.8-0.8,2.9-0.5,3.4,0.7c0.3,0.6,0.1,1.2-0.3,1.9l-1.8,1.4l-1.7,0.7l1.2,2.8l1.7-0.7c1-0.4,1.9-0.6,2.8-0.6
			c0.9,0.3,1.5,0.8,1.7,1.4c0.3,0.7,0.2,1.4-0.1,2c-0.6,0.8-1.2,1.4-2.1,1.8l-1.2,0.3l-1.2,0.3l-1.3,0.1h-0.9
			c0.2,1.2,0.4,2.4,0.6,3.5c1.7,0.1,3.6-0.2,5.7-1.1c1.8-0.8,3.3-1.9,4.7-3.5C199,170.9,199.1,169.3,198.5,168z M214.3,161.9
			L213,159l-2,0.9l-4.4-10.1l-5,2.2l-0.4,3.1l-0.2,1.6l-0.2,2.1l-0.2,1.6l-0.2,0.6l-0.1,0.7c-0.1,1.5-0.3,2.7-0.6,3.8l1.1,2.6
			l7.8-3.4l1.7,4l0.1,0l3.7-1.6l-1.7-4.1L214.3,161.9z M203.6,163.5L203.6,163.5L203.6,163.5L203.6,163.5l0.2-0.5l-0.1-0.6l0.1-1.3
			l0.4-1.3l0.1-1.2c0-0.6,0.1-1.2,0.1-1.8l-0.1-0.8l0.1-1.2l3,7L203.6,163.5z M265.2,138.2c-0.9-2-2.2-3.2-3.9-3.5
			c-1.7,0-3.4,0.4-5,1l-1.1,0.5l-0.1-0.6l-0.6-1.5l0.1-0.7l6.4-2.8l-1.5-3.5l-9.5,4.1c0.4,1,0.9,2.4,1.2,4.3l0.6,2.5l0.8,2.9
			l0.9-0.9l1.3-0.6c3.4-1.4,5.4-1.2,6.3,0.8c0.3,0.7,0.2,1.6-0.2,2.5c-0.6,0.7-1.3,1.2-2.2,1.6c-0.2,0.1-1,0.3-2.4,0.6
			c-1,0.2-1.6,0.2-1.9,0.3l0.1,0.6l0.2,1l0.3,0.7l-0.1,0.7c1.5,0.2,3.4-0.1,5.5-1c2-0.7,3.5-2.1,4.5-4
			C265.9,141.7,266,140.1,265.2,138.2z M280.5,131.4c-0.7-1.6-1.8-2.8-3.3-3.6c-1.8-0.3-3.1-0.2-4.2,0.3c-1.4,0.6-2.4,1.6-3.1,2.9
			l-0.2,0.1c-0.2-2.6,1.1-4.8,4-6.6l1.5-0.6l-1.3-3.1l-1.5,0.6c-2.5,1.2-4.5,3.1-5.8,5.5c-1.3,2.7-1.3,5.7,0.1,8.9
			c0.9,2.1,2.3,3.6,4.2,4.5c1.7,1,3.8,1,6,0c1.8-0.8,2.9-2,3.7-3.7C281.2,134.9,281.2,133.1,280.5,131.4z M277.1,136.3
			c-0.2,0.7-0.6,1.1-1.3,1.4c-0.8,0.3-1.6,0.3-2.4-0.1c-0.8-0.4-1.4-1.1-1.8-2.1l-0.4-1c0.2-1.3,0.9-2.1,2-2.6
			c0.8-0.3,1.5-0.3,2.2-0.1c0.7,0.3,1.3,0.8,1.6,1.7C277.3,134.6,277.4,135.5,277.1,136.3z M290,114l-12.3,5.3l1.5,3.5l8-3.4
			l-0.7,8.5L286,136l4.1-1.7c0.3-2.3,0.7-8.2,1.1-17.5L290,114z M310.4,119.9c-0.9-2.1-2.6-3.1-5-2.9l-0.1-0.2c1.3-1.4,1.6-3,1-4.8
			c-0.5-1.1-1.4-1.9-2.8-2.5c-1.4-0.5-3-0.2-4.8,0.6c-1.9,0.8-3.2,1.9-3.9,3.2c-0.7,1.5-0.8,2.8-0.2,4c0.8,1.8,2.2,2.8,4.2,2.7
			c-1.6,1.7-2,3.6-1.1,5.7c0.6,1.3,1.5,2.2,2.8,2.5c1.7,0.6,3.5,0.5,5.2-0.3c2.1-0.9,3.6-2.1,4.5-3.4
			C310.9,122.9,311,121.4,310.4,119.9z M300.2,117.2c-0.7-0.3-1.2-0.7-1.5-1.3c-0.2-0.4-0.2-0.9-0.2-1.5c0.2-0.7,0.6-1.1,1.4-1.5
			c1.2-0.5,2.2-0.1,2.7,1.2c0.3,0.6,0.3,1.2,0.2,1.9c-0.2,0.7-0.5,1-0.8,1.2C301.5,117.5,300.9,117.5,300.2,117.2z M306.5,123.9
			c-0.2,0.8-0.6,1.4-1.2,1.6c-0.8,0.3-1.5,0.3-2.3-0.1c-0.6-0.2-1-0.7-1.3-1.4c-0.2-0.5-0.3-1.1-0.2-1.9c0.2-0.9,0.5-1.5,1-1.7
			c0.5-0.2,1.2-0.1,2.2,0.4c0.7,0.3,1.2,0.8,1.5,1.5C306.6,123,306.7,123.5,306.5,123.9z M355.3,94.7c-0.9-2.2-2.3-3.8-4.1-4.8
			c-1.8-0.9-3.7-0.8-5.7,0c-2,0.9-3.3,2.1-4.1,3.9c-0.6,1.6-0.5,3.3,0.2,5.1c0.7,1.6,1.7,2.7,3.1,3.2c1.6,0.5,3.1,0.4,4.5-0.2
			c1.5-0.6,2.4-1.6,2.8-2.7c0.3,1.3,0,2.7-0.7,4c-0.7,1.1-1.6,2-2.9,2.5l-1.9,0.8l1.3,3.1l1.9-0.8c2.5-1.3,4.3-3.1,5.5-5.2
			C356.7,101,356.6,97.9,355.3,94.7z M349.4,99.1c-0.9,0.4-1.7,0.3-2.3-0.3c-0.6-0.3-1-0.9-1.3-1.6c-0.4-0.8-0.5-1.7-0.4-2.4
			c0.3-0.7,0.8-1.2,1.6-1.5c0.8-0.4,1.7-0.2,2.4,0.5l0.6,0.9l0.7,1.2l0.5,1.1C351.1,97.9,350.5,98.6,349.4,99.1z M363,82.6l-3.3,1.4
			l-2,2.1l-0.2,0.6l-0.5,0.4l-0.9,1l0.5,0.6l0.7,0.6l0.7,1.6c0.3-0.4,0.6-0.9,1.1-1.6l0.9-0.9l0.4-0.6l0.2-0.1l5.8,13.5l3.9-1.7
			L363,82.6z M387,88.9l-6.5,2.8l0.5-1l0.6-1.1c1.7-3.9,2.1-7,1.2-9.1c-0.7-1.7-1.8-2.8-3.1-3.2c-1.6-0.6-3.3-0.5-5.2,0.3
			c-2.3,1-3.9,2.4-5,4.3l0.6,0.4l0.7,0.5l0.7,0.6c0.2,0.4,0.3,0.6,0.5,0.6l0.7-1l0.6-0.7c0.7-0.6,1.3-1,1.9-1.3
			c1.9-0.8,3.1-0.4,3.8,1.2c0.5,1.1,0.4,2.4-0.1,3.8l-0.2,1l-0.5,1.3c-0.5,1.3-1.1,2.4-1.7,3.6l-0.5,1.5c-0.3,0.9-0.6,1.4-0.9,1.7
			l0.9,2.2l6.5-2.3l6-2.6L387,88.9z M401.1,80.9c-0.5-1.2-1.4-2-2.5-2.2c-1.1-0.6-2.2-0.7-3.2-0.4c1.8-1.6,2.3-3.4,1.5-5.2
			c-0.4-1-1.3-1.9-2.7-2.6c-1.4-0.5-3-0.2-5,0.6c-2.2,0.9-3.8,2.1-4.7,3.5l0.9,0.9l0.6,0.9l0.6,0.9l1.3-1.2c0.6-0.7,1.3-1.2,2-1.5
			c1.7-0.7,2.9-0.5,3.4,0.7c0.3,0.6,0.1,1.3-0.5,2c-0.6,0.7-1.2,1.2-1.8,1.4l-1.7,0.7l1.2,2.8l1.7-0.7c1.1-0.5,1.9-0.6,2.5-0.4
			c1,0.2,1.6,0.7,2,1.7c0.3,0.6,0.3,1.2-0.1,1.8c-0.3,0.6-1.1,1.1-2.2,1.6l-2.4,0.6l-0.6,0.1l-0.4,0.2l-1-0.2l0.3,1.8l0.3,1.7
			c1.4,0.5,3.2,0.1,5.6-0.9c2.2-1,3.7-2.2,4.6-3.8C401.5,83.9,401.6,82.3,401.1,80.9z M401.1,80.9c-0.5-1.2-1.4-2-2.5-2.2
			c-1.1-0.6-2.2-0.7-3.2-0.4c1.8-1.6,2.3-3.4,1.5-5.2c-0.4-1-1.3-1.9-2.7-2.6c-1.4-0.5-3-0.2-5,0.6c-2.2,0.9-3.8,2.1-4.7,3.5
			l0.9,0.9l0.6,0.9l0.6,0.9l1.3-1.2c0.6-0.7,1.3-1.2,2-1.5c1.7-0.7,2.9-0.5,3.4,0.7c0.3,0.6,0.1,1.3-0.5,2c-0.6,0.7-1.2,1.2-1.8,1.4
			l-1.7,0.7l1.2,2.8l1.7-0.7c1.1-0.5,1.9-0.6,2.5-0.4c1,0.2,1.6,0.7,2,1.7c0.3,0.6,0.3,1.2-0.1,1.8c-0.3,0.6-1.1,1.1-2.2,1.6
			l-2.4,0.6l-0.6,0.1l-0.4,0.2l-1-0.2l0.3,1.8l0.3,1.7c1.4,0.5,3.2,0.1,5.6-0.9c2.2-1,3.7-2.2,4.6-3.8
			C401.5,83.9,401.6,82.3,401.1,80.9z M387,88.9l-6.5,2.8l0.5-1l0.6-1.1c1.7-3.9,2.1-7,1.2-9.1c-0.7-1.7-1.8-2.8-3.1-3.2
			c-1.6-0.6-3.3-0.5-5.2,0.3c-2.3,1-3.9,2.4-5,4.3l0.6,0.4l0.7,0.5l0.7,0.6c0.2,0.4,0.3,0.6,0.5,0.6l0.7-1l0.6-0.7
			c0.7-0.6,1.3-1,1.9-1.3c1.9-0.8,3.1-0.4,3.8,1.2c0.5,1.1,0.4,2.4-0.1,3.8l-0.2,1l-0.5,1.3c-0.5,1.3-1.1,2.4-1.7,3.6l-0.5,1.5
			c-0.3,0.9-0.6,1.4-0.9,1.7l0.9,2.2l6.5-2.3l6-2.6L387,88.9z M363,82.6l-3.3,1.4l-2,2.1l-0.2,0.6l-0.5,0.4l-0.9,1l0.5,0.6l0.7,0.6
			l0.7,1.6c0.3-0.4,0.6-0.9,1.1-1.6l0.9-0.9l0.4-0.6l0.2-0.1l5.8,13.5l3.9-1.7L363,82.6z M355.3,94.7c-0.9-2.2-2.3-3.8-4.1-4.8
			c-1.8-0.9-3.7-0.8-5.7,0c-2,0.9-3.3,2.1-4.1,3.9c-0.6,1.6-0.5,3.3,0.2,5.1c0.7,1.6,1.7,2.7,3.1,3.2c1.6,0.5,3.1,0.4,4.5-0.2
			c1.5-0.6,2.4-1.6,2.8-2.7c0.3,1.3,0,2.7-0.7,4c-0.7,1.1-1.6,2-2.9,2.5l-1.9,0.8l1.3,3.1l1.9-0.8c2.5-1.3,4.3-3.1,5.5-5.2
			C356.7,101,356.6,97.9,355.3,94.7z M349.4,99.1c-0.9,0.4-1.7,0.3-2.3-0.3c-0.6-0.3-1-0.9-1.3-1.6c-0.4-0.8-0.5-1.7-0.4-2.4
			c0.3-0.7,0.8-1.2,1.6-1.5c0.8-0.4,1.7-0.2,2.4,0.5l0.6,0.9l0.7,1.2l0.5,1.1C351.1,97.9,350.5,98.6,349.4,99.1z M310.4,119.9
			c-0.9-2.1-2.6-3.1-5-2.9l-0.1-0.2c1.3-1.4,1.6-3,1-4.8c-0.5-1.1-1.4-1.9-2.8-2.5c-1.4-0.5-3-0.2-4.8,0.6c-1.9,0.8-3.2,1.9-3.9,3.2
			c-0.7,1.5-0.8,2.8-0.2,4c0.8,1.8,2.2,2.8,4.2,2.7c-1.6,1.7-2,3.6-1.1,5.7c0.6,1.3,1.5,2.2,2.8,2.5c1.7,0.6,3.5,0.5,5.2-0.3
			c2.1-0.9,3.6-2.1,4.5-3.4C310.9,122.9,311,121.4,310.4,119.9z M300.2,117.2c-0.7-0.3-1.2-0.7-1.5-1.3c-0.2-0.4-0.2-0.9-0.2-1.5
			c0.2-0.7,0.6-1.1,1.4-1.5c1.2-0.5,2.2-0.1,2.7,1.2c0.3,0.6,0.3,1.2,0.2,1.9c-0.2,0.7-0.5,1-0.8,1.2
			C301.5,117.5,300.9,117.5,300.2,117.2z M306.5,123.9c-0.2,0.8-0.6,1.4-1.2,1.6c-0.8,0.3-1.5,0.3-2.3-0.1c-0.6-0.2-1-0.7-1.3-1.4
			c-0.2-0.5-0.3-1.1-0.2-1.9c0.2-0.9,0.5-1.5,1-1.7c0.5-0.2,1.2-0.1,2.2,0.4c0.7,0.3,1.2,0.8,1.5,1.5
			C306.6,123,306.7,123.5,306.5,123.9z M290,114l-12.3,5.3l1.5,3.5l8-3.4l-0.7,8.5L286,136l4.1-1.7c0.3-2.3,0.7-8.2,1.1-17.5
			L290,114z M280.5,131.4c-0.7-1.6-1.8-2.8-3.3-3.6c-1.8-0.3-3.1-0.2-4.2,0.3c-1.4,0.6-2.4,1.6-3.1,2.9l-0.2,0.1
			c-0.2-2.6,1.1-4.8,4-6.6l1.5-0.6l-1.3-3.1l-1.5,0.6c-2.5,1.2-4.5,3.1-5.8,5.5c-1.3,2.7-1.3,5.7,0.1,8.9c0.9,2.1,2.3,3.6,4.2,4.5
			c1.7,1,3.8,1,6,0c1.8-0.8,2.9-2,3.7-3.7C281.2,134.9,281.2,133.1,280.5,131.4z M277.1,136.3c-0.2,0.7-0.6,1.1-1.3,1.4
			c-0.8,0.3-1.6,0.3-2.4-0.1c-0.8-0.4-1.4-1.1-1.8-2.1l-0.4-1c0.2-1.3,0.9-2.1,2-2.6c0.8-0.3,1.5-0.3,2.2-0.1
			c0.7,0.3,1.3,0.8,1.6,1.7C277.3,134.6,277.4,135.5,277.1,136.3z M265.2,138.2c-0.9-2-2.2-3.2-3.9-3.5c-1.7,0-3.4,0.4-5,1l-1.1,0.5
			l-0.1-0.6l-0.6-1.5l0.1-0.7l6.4-2.8l-1.5-3.5l-9.5,4.1c0.4,1,0.9,2.4,1.2,4.3l0.6,2.5l0.8,2.9l0.9-0.9l1.3-0.6
			c3.4-1.4,5.4-1.2,6.3,0.8c0.3,0.7,0.2,1.6-0.2,2.5c-0.6,0.7-1.3,1.2-2.2,1.6c-0.2,0.1-1,0.3-2.4,0.6c-1,0.2-1.6,0.2-1.9,0.3
			l0.1,0.6l0.2,1l0.3,0.7l-0.1,0.7c1.5,0.2,3.4-0.1,5.5-1c2-0.7,3.5-2.1,4.5-4C265.9,141.7,266,140.1,265.2,138.2z M214.3,161.9
			L213,159l-2,0.9l-4.4-10.1l-5,2.2l-0.4,3.1l-0.2,1.6l-0.2,2.1l-0.2,1.6l-0.2,0.6l-0.1,0.7c-0.1,1.5-0.3,2.7-0.6,3.8l1.1,2.6
			l7.8-3.4l1.7,4l0.1,0l3.7-1.6l-1.7-4.1L214.3,161.9z M203.6,163.5L203.6,163.5L203.6,163.5L203.6,163.5l0.2-0.5l-0.1-0.6l0.1-1.3
			l0.4-1.3l0.1-1.2c0-0.6,0.1-1.2,0.1-1.8l-0.1-0.8l0.1-1.2l3,7L203.6,163.5z M198.5,168c-0.5-1.1-1.3-1.9-2.4-2.5
			c-0.9-0.5-2-0.5-3.1-0.2c1.7-1.9,2.1-3.7,1.4-5.4c-0.5-1.2-1.5-2-3-2.2c-1.3-0.5-2.8-0.3-4.6,0.5c-2.3,1-3.9,2.2-5,3.7
			c0.3,0.1,0.6,0.3,0.7,0.6l0.4,0.5l1.1,1.5l0.5-0.9l0.6-0.7l1.3-0.7l0.8-0.3c1.8-0.8,2.9-0.5,3.4,0.7c0.3,0.6,0.1,1.2-0.3,1.9
			l-1.8,1.4l-1.7,0.7l1.2,2.8l1.7-0.7c1-0.4,1.9-0.6,2.8-0.6c0.9,0.3,1.5,0.8,1.7,1.4c0.3,0.7,0.2,1.4-0.1,2
			c-0.6,0.8-1.2,1.4-2.1,1.8l-1.2,0.3l-1.2,0.3l-1.3,0.1h-0.9c0.2,1.2,0.4,2.4,0.6,3.5c1.7,0.1,3.6-0.2,5.7-1.1
			c1.8-0.8,3.3-1.9,4.7-3.5C199,170.9,199.1,169.3,198.5,168z M184.3,175.8l-6.4,2.8l0.5-0.9l0.4-0.6v-0.5c2-4.2,2.6-7.3,1.7-9.3
			c-0.8-1.8-1.9-2.9-3.4-3.1c-1.6-0.6-3.3-0.5-5.3,0.3c-2.1,0.9-3.7,2.3-4.8,4.2c0.5,0.6,1.3,1.4,2.3,2.3c0.4-0.6,0.8-1.1,1.1-1.6
			c0.6-0.7,1.3-1.2,2-1.5c1.9-0.8,3.1-0.3,3.9,1.4c0.4,0.9,0.4,2.1,0,3.7l-0.5,1l-0.5,1.3c-0.5,1.3-1.1,2.4-1.8,3.6l-0.5,1.5
			l-0.3,0.7h7.7l5.1-2.2L184.3,175.8z M160.6,169.5l-3.4,1.4c-0.7,0.8-1.4,1.6-2,2.4l-1.5,1.7l0.3,0.7l0.5,0.6
			c0.6,0.7,1,1.2,1.1,1.5l0.2-0.6l0.5-0.4l0.8-0.8l0.2-0.6l0.9-0.9l2.7,6.3h4.6L160.6,169.5z M107.3,195.2c-1.8-1.2-3.8-1.4-6-0.5
			c-2.1,0.9-3.4,2.5-3.9,4.7c-0.3,2.1,0.1,4.4,1.2,6.9c1.1,2.5,2.5,4.4,4.2,5.8c2,1.2,4,1.3,6.1,0.4c0.7-0.3,1.3-0.7,1.8-1.2v-12
			C109.9,197.7,108.7,196.3,107.3,195.2z M107.9,209.9c-1.6,0.7-3.3-0.9-5-4.9c-1.6-3.8-1.6-6.1,0-6.8c1.6-0.7,3.2,0.9,4.9,4.7
			C109.5,206.9,109.5,209.2,107.9,209.9z M96.8,207.2c-1.2-2.7-2.5-4.6-4-5.7c-2-1.2-4-1.3-6.1-0.4c-2.1,0.9-3.5,2.5-4.1,4.8
			c-0.3,2.1,0.1,4.4,1.2,6.9c1.1,2.5,2.5,4.4,4.2,5.8c2.1,1.2,4.2,1.3,6.2,0.4c2-0.9,3.3-2.4,3.9-4.7
			C98.4,212.2,98,209.9,96.8,207.2z M93,216.3c-1.6,0.7-3.3-0.9-5-4.9c-1.6-3.8-1.6-6.1,0-6.8c1.7-0.7,3.4,0.8,5,4.6
			C94.8,213.2,94.7,215.5,93,216.3z M82.1,213.5c-1.2-2.7-2.6-4.6-4.2-5.6c-2.1-1.1-4.1-1.3-6.1-0.4c-2.1,0.9-3.3,2.5-3.7,4.7
			c-0.4,2.1-0.1,4.5,1.1,7.2c1.2,2.7,2.6,4.6,4.4,5.5c1.7,1.3,3.6,1.5,5.8,0.6c2.3-1,3.5-2.6,3.9-4.7
			C83.7,218.7,83.3,216.3,82.1,213.5z M78.3,222.6c-1.8,0.8-3.4-0.8-5.1-4.6c-1.7-3.9-1.6-6.3,0.1-7c1.6-0.7,3.2,0.9,4.9,4.7
			C79.9,219.6,79.9,221.9,78.3,222.6z M82.1,213.5c-1.2-2.7-2.6-4.6-4.2-5.6c-2.1-1.1-4.1-1.3-6.1-0.4c-2.1,0.9-3.3,2.5-3.7,4.7
			c-0.4,2.1-0.1,4.5,1.1,7.2c1.2,2.7,2.6,4.6,4.4,5.5c1.7,1.3,3.6,1.5,5.8,0.6c2.3-1,3.5-2.6,3.9-4.7
			C83.7,218.7,83.3,216.3,82.1,213.5z M78.3,222.6c-1.8,0.8-3.4-0.8-5.1-4.6c-1.7-3.9-1.6-6.3,0.1-7c1.6-0.7,3.2,0.9,4.9,4.7
			C79.9,219.6,79.9,221.9,78.3,222.6z M96.8,207.2c-1.2-2.7-2.5-4.6-4-5.7c-2-1.2-4-1.3-6.1-0.4c-2.1,0.9-3.5,2.5-4.1,4.8
			c-0.3,2.1,0.1,4.4,1.2,6.9c1.1,2.5,2.5,4.4,4.2,5.8c2.1,1.2,4.2,1.3,6.2,0.4c2-0.9,3.3-2.4,3.9-4.7
			C98.4,212.2,98,209.9,96.8,207.2z M93,216.3c-1.6,0.7-3.3-0.9-5-4.9c-1.6-3.8-1.6-6.1,0-6.8c1.7-0.7,3.4,0.8,5,4.6
			C94.8,213.2,94.7,215.5,93,216.3z M107.3,195.2c-1.8-1.2-3.8-1.4-6-0.5c-2.1,0.9-3.4,2.5-3.9,4.7c-0.3,2.1,0.1,4.4,1.2,6.9
			c1.1,2.5,2.5,4.4,4.2,5.8c2,1.2,4,1.3,6.1,0.4c0.7-0.3,1.3-0.7,1.8-1.2v-12C109.9,197.7,108.7,196.3,107.3,195.2z M107.9,209.9
			c-1.6,0.7-3.3-0.9-5-4.9c-1.6-3.8-1.6-6.1,0-6.8c1.6-0.7,3.2,0.9,4.9,4.7C109.5,206.9,109.5,209.2,107.9,209.9z M160.6,169.5
			l-3.4,1.4c-0.7,0.8-1.4,1.6-2,2.4l-1.5,1.7l0.3,0.7l0.5,0.6c0.6,0.7,1,1.2,1.1,1.5l0.2-0.6l0.5-0.4l0.8-0.8l0.2-0.6l0.9-0.9
			l2.7,6.3h4.6L160.6,169.5z M184.3,175.8l-6.4,2.8l0.5-0.9l0.4-0.6v-0.5c2-4.2,2.6-7.3,1.7-9.3c-0.8-1.8-1.9-2.9-3.4-3.1
			c-1.6-0.6-3.3-0.5-5.3,0.3c-2.1,0.9-3.7,2.3-4.8,4.2c0.5,0.6,1.3,1.4,2.3,2.3c0.4-0.6,0.8-1.1,1.1-1.6c0.6-0.7,1.3-1.2,2-1.5
			c1.9-0.8,3.1-0.3,3.9,1.4c0.4,0.9,0.4,2.1,0,3.7l-0.5,1l-0.5,1.3c-0.5,1.3-1.1,2.4-1.8,3.6l-0.5,1.5l-0.3,0.7h7.7l5.1-2.2
			L184.3,175.8z M198.5,168c-0.5-1.1-1.3-1.9-2.4-2.5c-0.9-0.5-2-0.5-3.1-0.2c1.7-1.9,2.1-3.7,1.4-5.4c-0.5-1.2-1.5-2-3-2.2
			c-1.3-0.5-2.8-0.3-4.6,0.5c-2.3,1-3.9,2.2-5,3.7c0.3,0.1,0.6,0.3,0.7,0.6l0.4,0.5l1.1,1.5l0.5-0.9l0.6-0.7l1.3-0.7l0.8-0.3
			c1.8-0.8,2.9-0.5,3.4,0.7c0.3,0.6,0.1,1.2-0.3,1.9l-1.8,1.4l-1.7,0.7l1.2,2.8l1.7-0.7c1-0.4,1.9-0.6,2.8-0.6
			c0.9,0.3,1.5,0.8,1.7,1.4c0.3,0.7,0.2,1.4-0.1,2c-0.6,0.8-1.2,1.4-2.1,1.8l-1.2,0.3l-1.2,0.3l-1.3,0.1h-0.9
			c0.2,1.2,0.4,2.4,0.6,3.5c1.7,0.1,3.6-0.2,5.7-1.1c1.8-0.8,3.3-1.9,4.7-3.5C199,170.9,199.1,169.3,198.5,168z M214.3,161.9
			L213,159l-2,0.9l-4.4-10.1l-5,2.2l-0.4,3.1l-0.2,1.6l-0.2,2.1l-0.2,1.6l-0.2,0.6l-0.1,0.7c-0.1,1.5-0.3,2.7-0.6,3.8l1.1,2.6
			l7.8-3.4l1.7,4l0.1,0l3.7-1.6l-1.7-4.1L214.3,161.9z M203.6,163.5L203.6,163.5L203.6,163.5L203.6,163.5l0.2-0.5l-0.1-0.6l0.1-1.3
			l0.4-1.3l0.1-1.2c0-0.6,0.1-1.2,0.1-1.8l-0.1-0.8l0.1-1.2l3,7L203.6,163.5z M265.2,138.2c-0.9-2-2.2-3.2-3.9-3.5
			c-1.7,0-3.4,0.4-5,1l-1.1,0.5l-0.1-0.6l-0.6-1.5l0.1-0.7l6.4-2.8l-1.5-3.5l-9.5,4.1c0.4,1,0.9,2.4,1.2,4.3l0.6,2.5l0.8,2.9
			l0.9-0.9l1.3-0.6c3.4-1.4,5.4-1.2,6.3,0.8c0.3,0.7,0.2,1.6-0.2,2.5c-0.6,0.7-1.3,1.2-2.2,1.6c-0.2,0.1-1,0.3-2.4,0.6
			c-1,0.2-1.6,0.2-1.9,0.3l0.1,0.6l0.2,1l0.3,0.7l-0.1,0.7c1.5,0.2,3.4-0.1,5.5-1c2-0.7,3.5-2.1,4.5-4
			C265.9,141.7,266,140.1,265.2,138.2z M280.5,131.4c-0.7-1.6-1.8-2.8-3.3-3.6c-1.8-0.3-3.1-0.2-4.2,0.3c-1.4,0.6-2.4,1.6-3.1,2.9
			l-0.2,0.1c-0.2-2.6,1.1-4.8,4-6.6l1.5-0.6l-1.3-3.1l-1.5,0.6c-2.5,1.2-4.5,3.1-5.8,5.5c-1.3,2.7-1.3,5.7,0.1,8.9
			c0.9,2.1,2.3,3.6,4.2,4.5c1.7,1,3.8,1,6,0c1.8-0.8,2.9-2,3.7-3.7C281.2,134.9,281.2,133.1,280.5,131.4z M277.1,136.3
			c-0.2,0.7-0.6,1.1-1.3,1.4c-0.8,0.3-1.6,0.3-2.4-0.1c-0.8-0.4-1.4-1.1-1.8-2.1l-0.4-1c0.2-1.3,0.9-2.1,2-2.6
			c0.8-0.3,1.5-0.3,2.2-0.1c0.7,0.3,1.3,0.8,1.6,1.7C277.3,134.6,277.4,135.5,277.1,136.3z M290,114l-12.3,5.3l1.5,3.5l8-3.4
			l-0.7,8.5L286,136l4.1-1.7c0.3-2.3,0.7-8.2,1.1-17.5L290,114z M310.4,119.9c-0.9-2.1-2.6-3.1-5-2.9l-0.1-0.2c1.3-1.4,1.6-3,1-4.8
			c-0.5-1.1-1.4-1.9-2.8-2.5c-1.4-0.5-3-0.2-4.8,0.6c-1.9,0.8-3.2,1.9-3.9,3.2c-0.7,1.5-0.8,2.8-0.2,4c0.8,1.8,2.2,2.8,4.2,2.7
			c-1.6,1.7-2,3.6-1.1,5.7c0.6,1.3,1.5,2.2,2.8,2.5c1.7,0.6,3.5,0.5,5.2-0.3c2.1-0.9,3.6-2.1,4.5-3.4
			C310.9,122.9,311,121.4,310.4,119.9z M300.2,117.2c-0.7-0.3-1.2-0.7-1.5-1.3c-0.2-0.4-0.2-0.9-0.2-1.5c0.2-0.7,0.6-1.1,1.4-1.5
			c1.2-0.5,2.2-0.1,2.7,1.2c0.3,0.6,0.3,1.2,0.2,1.9c-0.2,0.7-0.5,1-0.8,1.2C301.5,117.5,300.9,117.5,300.2,117.2z M306.5,123.9
			c-0.2,0.8-0.6,1.4-1.2,1.6c-0.8,0.3-1.5,0.3-2.3-0.1c-0.6-0.2-1-0.7-1.3-1.4c-0.2-0.5-0.3-1.1-0.2-1.9c0.2-0.9,0.5-1.5,1-1.7
			c0.5-0.2,1.2-0.1,2.2,0.4c0.7,0.3,1.2,0.8,1.5,1.5C306.6,123,306.7,123.5,306.5,123.9z M355.3,94.7c-0.9-2.2-2.3-3.8-4.1-4.8
			c-1.8-0.9-3.7-0.8-5.7,0c-2,0.9-3.3,2.1-4.1,3.9c-0.6,1.6-0.5,3.3,0.2,5.1c0.7,1.6,1.7,2.7,3.1,3.2c1.6,0.5,3.1,0.4,4.5-0.2
			c1.5-0.6,2.4-1.6,2.8-2.7c0.3,1.3,0,2.7-0.7,4c-0.7,1.1-1.6,2-2.9,2.5l-1.9,0.8l1.3,3.1l1.9-0.8c2.5-1.3,4.3-3.1,5.5-5.2
			C356.7,101,356.6,97.9,355.3,94.7z M349.4,99.1c-0.9,0.4-1.7,0.3-2.3-0.3c-0.6-0.3-1-0.9-1.3-1.6c-0.4-0.8-0.5-1.7-0.4-2.4
			c0.3-0.7,0.8-1.2,1.6-1.5c0.8-0.4,1.7-0.2,2.4,0.5l0.6,0.9l0.7,1.2l0.5,1.1C351.1,97.9,350.5,98.6,349.4,99.1z M363,82.6l-3.3,1.4
			l-2,2.1l-0.2,0.6l-0.5,0.4l-0.9,1l0.5,0.6l0.7,0.6l0.7,1.6c0.3-0.4,0.6-0.9,1.1-1.6l0.9-0.9l0.4-0.6l0.2-0.1l5.8,13.5l3.9-1.7
			L363,82.6z M387,88.9l-6.5,2.8l0.5-1l0.6-1.1c1.7-3.9,2.1-7,1.2-9.1c-0.7-1.7-1.8-2.8-3.1-3.2c-1.6-0.6-3.3-0.5-5.2,0.3
			c-2.3,1-3.9,2.4-5,4.3l0.6,0.4l0.7,0.5l0.7,0.6c0.2,0.4,0.3,0.6,0.5,0.6l0.7-1l0.6-0.7c0.7-0.6,1.3-1,1.9-1.3
			c1.9-0.8,3.1-0.4,3.8,1.2c0.5,1.1,0.4,2.4-0.1,3.8l-0.2,1l-0.5,1.3c-0.5,1.3-1.1,2.4-1.7,3.6l-0.5,1.5c-0.3,0.9-0.6,1.4-0.9,1.7
			l0.9,2.2l6.5-2.3l6-2.6L387,88.9z M401.1,80.9c-0.5-1.2-1.4-2-2.5-2.2c-1.1-0.6-2.2-0.7-3.2-0.4c1.8-1.6,2.3-3.4,1.5-5.2
			c-0.4-1-1.3-1.9-2.7-2.6c-1.4-0.5-3-0.2-5,0.6c-2.2,0.9-3.8,2.1-4.7,3.5l0.9,0.9l0.6,0.9l0.6,0.9l1.3-1.2c0.6-0.7,1.3-1.2,2-1.5
			c1.7-0.7,2.9-0.5,3.4,0.7c0.3,0.6,0.1,1.3-0.5,2c-0.6,0.7-1.2,1.2-1.8,1.4l-1.7,0.7l1.2,2.8l1.7-0.7c1.1-0.5,1.9-0.6,2.5-0.4
			c1,0.2,1.6,0.7,2,1.7c0.3,0.6,0.3,1.2-0.1,1.8c-0.3,0.6-1.1,1.1-2.2,1.6l-2.4,0.6l-0.6,0.1l-0.4,0.2l-1-0.2l0.3,1.8l0.3,1.7
			c1.4,0.5,3.2,0.1,5.6-0.9c2.2-1,3.7-2.2,4.6-3.8C401.5,83.9,401.6,82.3,401.1,80.9z M82.1,213.5c-1.2-2.7-2.6-4.6-4.2-5.6
			c-2.1-1.1-4.1-1.3-6.1-0.4c-2.1,0.9-3.3,2.5-3.7,4.7c-0.4,2.1-0.1,4.5,1.1,7.2c1.2,2.7,2.6,4.6,4.4,5.5c1.7,1.3,3.6,1.5,5.8,0.6
			c2.3-1,3.5-2.6,3.9-4.7C83.7,218.7,83.3,216.3,82.1,213.5z M78.3,222.6c-1.8,0.8-3.4-0.8-5.1-4.6c-1.7-3.9-1.6-6.3,0.1-7
			c1.6-0.7,3.2,0.9,4.9,4.7C79.9,219.6,79.9,221.9,78.3,222.6z M96.8,207.2c-1.2-2.7-2.5-4.6-4-5.7c-2-1.2-4-1.3-6.1-0.4
			c-2.1,0.9-3.5,2.5-4.1,4.8c-0.3,2.1,0.1,4.4,1.2,6.9c1.1,2.5,2.5,4.4,4.2,5.8c2.1,1.2,4.2,1.3,6.2,0.4c2-0.9,3.3-2.4,3.9-4.7
			C98.4,212.2,98,209.9,96.8,207.2z M93,216.3c-1.6,0.7-3.3-0.9-5-4.9c-1.6-3.8-1.6-6.1,0-6.8c1.7-0.7,3.4,0.8,5,4.6
			C94.8,213.2,94.7,215.5,93,216.3z M107.3,195.2c-1.8-1.2-3.8-1.4-6-0.5c-2.1,0.9-3.4,2.5-3.9,4.7c-0.3,2.1,0.1,4.4,1.2,6.9
			c1.1,2.5,2.5,4.4,4.2,5.8c2,1.2,4,1.3,6.1,0.4c0.7-0.3,1.3-0.7,1.8-1.2v-12C109.9,197.7,108.7,196.3,107.3,195.2z M107.9,209.9
			c-1.6,0.7-3.3-0.9-5-4.9c-1.6-3.8-1.6-6.1,0-6.8c1.6-0.7,3.2,0.9,4.9,4.7C109.5,206.9,109.5,209.2,107.9,209.9z M160.6,169.5
			l-3.4,1.4c-0.7,0.8-1.4,1.6-2,2.4l-1.5,1.7l0.3,0.7l0.5,0.6c0.6,0.7,1,1.2,1.1,1.5l0.2-0.6l0.5-0.4l0.8-0.8l0.2-0.6l0.9-0.9
			l2.7,6.3h4.6L160.6,169.5z M184.3,175.8l-6.4,2.8l0.5-0.9l0.4-0.6v-0.5c2-4.2,2.6-7.3,1.7-9.3c-0.8-1.8-1.9-2.9-3.4-3.1
			c-1.6-0.6-3.3-0.5-5.3,0.3c-2.1,0.9-3.7,2.3-4.8,4.2c0.5,0.6,1.3,1.4,2.3,2.3c0.4-0.6,0.8-1.1,1.1-1.6c0.6-0.7,1.3-1.2,2-1.5
			c1.9-0.8,3.1-0.3,3.9,1.4c0.4,0.9,0.4,2.1,0,3.7l-0.5,1l-0.5,1.3c-0.5,1.3-1.1,2.4-1.8,3.6l-0.5,1.5l-0.3,0.7h7.7l5.1-2.2
			L184.3,175.8z M198.5,168c-0.5-1.1-1.3-1.9-2.4-2.5c-0.9-0.5-2-0.5-3.1-0.2c1.7-1.9,2.1-3.7,1.4-5.4c-0.5-1.2-1.5-2-3-2.2
			c-1.3-0.5-2.8-0.3-4.6,0.5c-2.3,1-3.9,2.2-5,3.7c0.3,0.1,0.6,0.3,0.7,0.6l0.4,0.5l1.1,1.5l0.5-0.9l0.6-0.7l1.3-0.7l0.8-0.3
			c1.8-0.8,2.9-0.5,3.4,0.7c0.3,0.6,0.1,1.2-0.3,1.9l-1.8,1.4l-1.7,0.7l1.2,2.8l1.7-0.7c1-0.4,1.9-0.6,2.8-0.6
			c0.9,0.3,1.5,0.8,1.7,1.4c0.3,0.7,0.2,1.4-0.1,2c-0.6,0.8-1.2,1.4-2.1,1.8l-1.2,0.3l-1.2,0.3l-1.3,0.1h-0.9
			c0.2,1.2,0.4,2.4,0.6,3.5c1.7,0.1,3.6-0.2,5.7-1.1c1.8-0.8,3.3-1.9,4.7-3.5C199,170.9,199.1,169.3,198.5,168z M214.3,161.9
			L213,159l-2,0.9l-4.4-10.1l-5,2.2l-0.4,3.1l-0.2,1.6l-0.2,2.1l-0.2,1.6l-0.2,0.6l-0.1,0.7c-0.1,1.5-0.3,2.7-0.6,3.8l1.1,2.6
			l7.8-3.4l1.7,4l0.1,0l3.7-1.6l-1.7-4.1L214.3,161.9z M203.6,163.5L203.6,163.5L203.6,163.5L203.6,163.5l0.2-0.5l-0.1-0.6l0.1-1.3
			l0.4-1.3l0.1-1.2c0-0.6,0.1-1.2,0.1-1.8l-0.1-0.8l0.1-1.2l3,7L203.6,163.5z M265.2,138.2c-0.9-2-2.2-3.2-3.9-3.5
			c-1.7,0-3.4,0.4-5,1l-1.1,0.5l-0.1-0.6l-0.6-1.5l0.1-0.7l6.4-2.8l-1.5-3.5l-9.5,4.1c0.4,1,0.9,2.4,1.2,4.3l0.6,2.5l0.8,2.9
			l0.9-0.9l1.3-0.6c3.4-1.4,5.4-1.2,6.3,0.8c0.3,0.7,0.2,1.6-0.2,2.5c-0.6,0.7-1.3,1.2-2.2,1.6c-0.2,0.1-1,0.3-2.4,0.6
			c-1,0.2-1.6,0.2-1.9,0.3l0.1,0.6l0.2,1l0.3,0.7l-0.1,0.7c1.5,0.2,3.4-0.1,5.5-1c2-0.7,3.5-2.1,4.5-4
			C265.9,141.7,266,140.1,265.2,138.2z M280.5,131.4c-0.7-1.6-1.8-2.8-3.3-3.6c-1.8-0.3-3.1-0.2-4.2,0.3c-1.4,0.6-2.4,1.6-3.1,2.9
			l-0.2,0.1c-0.2-2.6,1.1-4.8,4-6.6l1.5-0.6l-1.3-3.1l-1.5,0.6c-2.5,1.2-4.5,3.1-5.8,5.5c-1.3,2.7-1.3,5.7,0.1,8.9
			c0.9,2.1,2.3,3.6,4.2,4.5c1.7,1,3.8,1,6,0c1.8-0.8,2.9-2,3.7-3.7C281.2,134.9,281.2,133.1,280.5,131.4z M277.1,136.3
			c-0.2,0.7-0.6,1.1-1.3,1.4c-0.8,0.3-1.6,0.3-2.4-0.1c-0.8-0.4-1.4-1.1-1.8-2.1l-0.4-1c0.2-1.3,0.9-2.1,2-2.6
			c0.8-0.3,1.5-0.3,2.2-0.1c0.7,0.3,1.3,0.8,1.6,1.7C277.3,134.6,277.4,135.5,277.1,136.3z M290,114l-12.3,5.3l1.5,3.5l8-3.4
			l-0.7,8.5L286,136l4.1-1.7c0.3-2.3,0.7-8.2,1.1-17.5L290,114z M310.4,119.9c-0.9-2.1-2.6-3.1-5-2.9l-0.1-0.2c1.3-1.4,1.6-3,1-4.8
			c-0.5-1.1-1.4-1.9-2.8-2.5c-1.4-0.5-3-0.2-4.8,0.6c-1.9,0.8-3.2,1.9-3.9,3.2c-0.7,1.5-0.8,2.8-0.2,4c0.8,1.8,2.2,2.8,4.2,2.7
			c-1.6,1.7-2,3.6-1.1,5.7c0.6,1.3,1.5,2.2,2.8,2.5c1.7,0.6,3.5,0.5,5.2-0.3c2.1-0.9,3.6-2.1,4.5-3.4
			C310.9,122.9,311,121.4,310.4,119.9z M300.2,117.2c-0.7-0.3-1.2-0.7-1.5-1.3c-0.2-0.4-0.2-0.9-0.2-1.5c0.2-0.7,0.6-1.1,1.4-1.5
			c1.2-0.5,2.2-0.1,2.7,1.2c0.3,0.6,0.3,1.2,0.2,1.9c-0.2,0.7-0.5,1-0.8,1.2C301.5,117.5,300.9,117.5,300.2,117.2z M306.5,123.9
			c-0.2,0.8-0.6,1.4-1.2,1.6c-0.8,0.3-1.5,0.3-2.3-0.1c-0.6-0.2-1-0.7-1.3-1.4c-0.2-0.5-0.3-1.1-0.2-1.9c0.2-0.9,0.5-1.5,1-1.7
			c0.5-0.2,1.2-0.1,2.2,0.4c0.7,0.3,1.2,0.8,1.5,1.5C306.6,123,306.7,123.5,306.5,123.9z M355.3,94.7c-0.9-2.2-2.3-3.8-4.1-4.8
			c-1.8-0.9-3.7-0.8-5.7,0c-2,0.9-3.3,2.1-4.1,3.9c-0.6,1.6-0.5,3.3,0.2,5.1c0.7,1.6,1.7,2.7,3.1,3.2c1.6,0.5,3.1,0.4,4.5-0.2
			c1.5-0.6,2.4-1.6,2.8-2.7c0.3,1.3,0,2.7-0.7,4c-0.7,1.1-1.6,2-2.9,2.5l-1.9,0.8l1.3,3.1l1.9-0.8c2.5-1.3,4.3-3.1,5.5-5.2
			C356.7,101,356.6,97.9,355.3,94.7z M349.4,99.1c-0.9,0.4-1.7,0.3-2.3-0.3c-0.6-0.3-1-0.9-1.3-1.6c-0.4-0.8-0.5-1.7-0.4-2.4
			c0.3-0.7,0.8-1.2,1.6-1.5c0.8-0.4,1.7-0.2,2.4,0.5l0.6,0.9l0.7,1.2l0.5,1.1C351.1,97.9,350.5,98.6,349.4,99.1z M363,82.6l-3.3,1.4
			l-2,2.1l-0.2,0.6l-0.5,0.4l-0.9,1l0.5,0.6l0.7,0.6l0.7,1.6c0.3-0.4,0.6-0.9,1.1-1.6l0.9-0.9l0.4-0.6l0.2-0.1l5.8,13.5l3.9-1.7
			L363,82.6z M387,88.9l-6.5,2.8l0.5-1l0.6-1.1c1.7-3.9,2.1-7,1.2-9.1c-0.7-1.7-1.8-2.8-3.1-3.2c-1.6-0.6-3.3-0.5-5.2,0.3
			c-2.3,1-3.9,2.4-5,4.3l0.6,0.4l0.7,0.5l0.7,0.6c0.2,0.4,0.3,0.6,0.5,0.6l0.7-1l0.6-0.7c0.7-0.6,1.3-1,1.9-1.3
			c1.9-0.8,3.1-0.4,3.8,1.2c0.5,1.1,0.4,2.4-0.1,3.8l-0.2,1l-0.5,1.3c-0.5,1.3-1.1,2.4-1.7,3.6l-0.5,1.5c-0.3,0.9-0.6,1.4-0.9,1.7
			l0.9,2.2l6.5-2.3l6-2.6L387,88.9z M401.1,80.9c-0.5-1.2-1.4-2-2.5-2.2c-1.1-0.6-2.2-0.7-3.2-0.4c1.8-1.6,2.3-3.4,1.5-5.2
			c-0.4-1-1.3-1.9-2.7-2.6c-1.4-0.5-3-0.2-5,0.6c-2.2,0.9-3.8,2.1-4.7,3.5l0.9,0.9l0.6,0.9l0.6,0.9l1.3-1.2c0.6-0.7,1.3-1.2,2-1.5
			c1.7-0.7,2.9-0.5,3.4,0.7c0.3,0.6,0.1,1.3-0.5,2c-0.6,0.7-1.2,1.2-1.8,1.4l-1.7,0.7l1.2,2.8l1.7-0.7c1.1-0.5,1.9-0.6,2.5-0.4
			c1,0.2,1.6,0.7,2,1.7c0.3,0.6,0.3,1.2-0.1,1.8c-0.3,0.6-1.1,1.1-2.2,1.6l-2.4,0.6l-0.6,0.1l-0.4,0.2l-1-0.2l0.3,1.8l0.3,1.7
			c1.4,0.5,3.2,0.1,5.6-0.9c2.2-1,3.7-2.2,4.6-3.8C401.5,83.9,401.6,82.3,401.1,80.9z M82.1,213.5c-1.2-2.7-2.6-4.6-4.2-5.6
			c-2.1-1.1-4.1-1.3-6.1-0.4c-2.1,0.9-3.3,2.5-3.7,4.7c-0.4,2.1-0.1,4.5,1.1,7.2c1.2,2.7,2.6,4.6,4.4,5.5c1.7,1.3,3.6,1.5,5.8,0.6
			c2.3-1,3.5-2.6,3.9-4.7C83.7,218.7,83.3,216.3,82.1,213.5z M78.3,222.6c-1.8,0.8-3.4-0.8-5.1-4.6c-1.7-3.9-1.6-6.3,0.1-7
			c1.6-0.7,3.2,0.9,4.9,4.7C79.9,219.6,79.9,221.9,78.3,222.6z M96.8,207.2c-1.2-2.7-2.5-4.6-4-5.7c-2-1.2-4-1.3-6.1-0.4
			c-2.1,0.9-3.5,2.5-4.1,4.8c-0.3,2.1,0.1,4.4,1.2,6.9c1.1,2.5,2.5,4.4,4.2,5.8c2.1,1.2,4.2,1.3,6.2,0.4c2-0.9,3.3-2.4,3.9-4.7
			C98.4,212.2,98,209.9,96.8,207.2z M93,216.3c-1.6,0.7-3.3-0.9-5-4.9c-1.6-3.8-1.6-6.1,0-6.8c1.7-0.7,3.4,0.8,5,4.6
			C94.8,213.2,94.7,215.5,93,216.3z M107.3,195.2c-1.8-1.2-3.8-1.4-6-0.5c-2.1,0.9-3.4,2.5-3.9,4.7c-0.3,2.1,0.1,4.4,1.2,6.9
			c1.1,2.5,2.5,4.4,4.2,5.8c2,1.2,4,1.3,6.1,0.4c0.7-0.3,1.3-0.7,1.8-1.2v-12C109.9,197.7,108.7,196.3,107.3,195.2z M107.9,209.9
			c-1.6,0.7-3.3-0.9-5-4.9c-1.6-3.8-1.6-6.1,0-6.8c1.6-0.7,3.2,0.9,4.9,4.7C109.5,206.9,109.5,209.2,107.9,209.9z M160.6,169.5
			l-3.4,1.4c-0.7,0.8-1.4,1.6-2,2.4l-1.5,1.7l0.3,0.7l0.5,0.6c0.6,0.7,1,1.2,1.1,1.5l0.2-0.6l0.5-0.4l0.8-0.8l0.2-0.6l0.9-0.9
			l2.7,6.3h4.6L160.6,169.5z M184.3,175.8l-6.4,2.8l0.5-0.9l0.4-0.6v-0.5c2-4.2,2.6-7.3,1.7-9.3c-0.8-1.8-1.9-2.9-3.4-3.1
			c-1.6-0.6-3.3-0.5-5.3,0.3c-2.1,0.9-3.7,2.3-4.8,4.2c0.5,0.6,1.3,1.4,2.3,2.3c0.4-0.6,0.8-1.1,1.1-1.6c0.6-0.7,1.3-1.2,2-1.5
			c1.9-0.8,3.1-0.3,3.9,1.4c0.4,0.9,0.4,2.1,0,3.7l-0.5,1l-0.5,1.3c-0.5,1.3-1.1,2.4-1.8,3.6l-0.5,1.5l-0.3,0.7h7.7l5.1-2.2
			L184.3,175.8z M198.5,168c-0.5-1.1-1.3-1.9-2.4-2.5c-0.9-0.5-2-0.5-3.1-0.2c1.7-1.9,2.1-3.7,1.4-5.4c-0.5-1.2-1.5-2-3-2.2
			c-1.3-0.5-2.8-0.3-4.6,0.5c-2.3,1-3.9,2.2-5,3.7c0.3,0.1,0.6,0.3,0.7,0.6l0.4,0.5l1.1,1.5l0.5-0.9l0.6-0.7l1.3-0.7l0.8-0.3
			c1.8-0.8,2.9-0.5,3.4,0.7c0.3,0.6,0.1,1.2-0.3,1.9l-1.8,1.4l-1.7,0.7l1.2,2.8l1.7-0.7c1-0.4,1.9-0.6,2.8-0.6
			c0.9,0.3,1.5,0.8,1.7,1.4c0.3,0.7,0.2,1.4-0.1,2c-0.6,0.8-1.2,1.4-2.1,1.8l-1.2,0.3l-1.2,0.3l-1.3,0.1h-0.9
			c0.2,1.2,0.4,2.4,0.6,3.5c1.7,0.1,3.6-0.2,5.7-1.1c1.8-0.8,3.3-1.9,4.7-3.5C199,170.9,199.1,169.3,198.5,168z M214.3,161.9
			L213,159l-2,0.9l-4.4-10.1l-5,2.2l-0.4,3.1l-0.2,1.6l-0.2,2.1l-0.2,1.6l-0.2,0.6l-0.1,0.7c-0.1,1.5-0.3,2.7-0.6,3.8l1.1,2.6
			l7.8-3.4l1.7,4l0.1,0l3.7-1.6l-1.7-4.1L214.3,161.9z M203.6,163.5L203.6,163.5L203.6,163.5L203.6,163.5l0.2-0.5l-0.1-0.6l0.1-1.3
			l0.4-1.3l0.1-1.2c0-0.6,0.1-1.2,0.1-1.8l-0.1-0.8l0.1-1.2l3,7L203.6,163.5z M265.2,138.2c-0.9-2-2.2-3.2-3.9-3.5
			c-1.7,0-3.4,0.4-5,1l-1.1,0.5l-0.1-0.6l-0.6-1.5l0.1-0.7l6.4-2.8l-1.5-3.5l-9.5,4.1c0.4,1,0.9,2.4,1.2,4.3l0.6,2.5l0.8,2.9
			l0.9-0.9l1.3-0.6c3.4-1.4,5.4-1.2,6.3,0.8c0.3,0.7,0.2,1.6-0.2,2.5c-0.6,0.7-1.3,1.2-2.2,1.6c-0.2,0.1-1,0.3-2.4,0.6
			c-1,0.2-1.6,0.2-1.9,0.3l0.1,0.6l0.2,1l0.3,0.7l-0.1,0.7c1.5,0.2,3.4-0.1,5.5-1c2-0.7,3.5-2.1,4.5-4
			C265.9,141.7,266,140.1,265.2,138.2z M280.5,131.4c-0.7-1.6-1.8-2.8-3.3-3.6c-1.8-0.3-3.1-0.2-4.2,0.3c-1.4,0.6-2.4,1.6-3.1,2.9
			l-0.2,0.1c-0.2-2.6,1.1-4.8,4-6.6l1.5-0.6l-1.3-3.1l-1.5,0.6c-2.5,1.2-4.5,3.1-5.8,5.5c-1.3,2.7-1.3,5.7,0.1,8.9
			c0.9,2.1,2.3,3.6,4.2,4.5c1.7,1,3.8,1,6,0c1.8-0.8,2.9-2,3.7-3.7C281.2,134.9,281.2,133.1,280.5,131.4z M277.1,136.3
			c-0.2,0.7-0.6,1.1-1.3,1.4c-0.8,0.3-1.6,0.3-2.4-0.1c-0.8-0.4-1.4-1.1-1.8-2.1l-0.4-1c0.2-1.3,0.9-2.1,2-2.6
			c0.8-0.3,1.5-0.3,2.2-0.1c0.7,0.3,1.3,0.8,1.6,1.7C277.3,134.6,277.4,135.5,277.1,136.3z M290,114l-12.3,5.3l1.5,3.5l8-3.4
			l-0.7,8.5L286,136l4.1-1.7c0.3-2.3,0.7-8.2,1.1-17.5L290,114z M310.4,119.9c-0.9-2.1-2.6-3.1-5-2.9l-0.1-0.2c1.3-1.4,1.6-3,1-4.8
			c-0.5-1.1-1.4-1.9-2.8-2.5c-1.4-0.5-3-0.2-4.8,0.6c-1.9,0.8-3.2,1.9-3.9,3.2c-0.7,1.5-0.8,2.8-0.2,4c0.8,1.8,2.2,2.8,4.2,2.7
			c-1.6,1.7-2,3.6-1.1,5.7c0.6,1.3,1.5,2.2,2.8,2.5c1.7,0.6,3.5,0.5,5.2-0.3c2.1-0.9,3.6-2.1,4.5-3.4
			C310.9,122.9,311,121.4,310.4,119.9z M300.2,117.2c-0.7-0.3-1.2-0.7-1.5-1.3c-0.2-0.4-0.2-0.9-0.2-1.5c0.2-0.7,0.6-1.1,1.4-1.5
			c1.2-0.5,2.2-0.1,2.7,1.2c0.3,0.6,0.3,1.2,0.2,1.9c-0.2,0.7-0.5,1-0.8,1.2C301.5,117.5,300.9,117.5,300.2,117.2z M306.5,123.9
			c-0.2,0.8-0.6,1.4-1.2,1.6c-0.8,0.3-1.5,0.3-2.3-0.1c-0.6-0.2-1-0.7-1.3-1.4c-0.2-0.5-0.3-1.1-0.2-1.9c0.2-0.9,0.5-1.5,1-1.7
			c0.5-0.2,1.2-0.1,2.2,0.4c0.7,0.3,1.2,0.8,1.5,1.5C306.6,123,306.7,123.5,306.5,123.9z M355.3,94.7c-0.9-2.2-2.3-3.8-4.1-4.8
			c-1.8-0.9-3.7-0.8-5.7,0c-2,0.9-3.3,2.1-4.1,3.9c-0.6,1.6-0.5,3.3,0.2,5.1c0.7,1.6,1.7,2.7,3.1,3.2c1.6,0.5,3.1,0.4,4.5-0.2
			c1.5-0.6,2.4-1.6,2.8-2.7c0.3,1.3,0,2.7-0.7,4c-0.7,1.1-1.6,2-2.9,2.5l-1.9,0.8l1.3,3.1l1.9-0.8c2.5-1.3,4.3-3.1,5.5-5.2
			C356.7,101,356.6,97.9,355.3,94.7z M349.4,99.1c-0.9,0.4-1.7,0.3-2.3-0.3c-0.6-0.3-1-0.9-1.3-1.6c-0.4-0.8-0.5-1.7-0.4-2.4
			c0.3-0.7,0.8-1.2,1.6-1.5c0.8-0.4,1.7-0.2,2.4,0.5l0.6,0.9l0.7,1.2l0.5,1.1C351.1,97.9,350.5,98.6,349.4,99.1z M363,82.6l-3.3,1.4
			l-2,2.1l-0.2,0.6l-0.5,0.4l-0.9,1l0.5,0.6l0.7,0.6l0.7,1.6c0.3-0.4,0.6-0.9,1.1-1.6l0.9-0.9l0.4-0.6l0.2-0.1l5.8,13.5l3.9-1.7
			L363,82.6z M387,88.9l-6.5,2.8l0.5-1l0.6-1.1c1.7-3.9,2.1-7,1.2-9.1c-0.7-1.7-1.8-2.8-3.1-3.2c-1.6-0.6-3.3-0.5-5.2,0.3
			c-2.3,1-3.9,2.4-5,4.3l0.6,0.4l0.7,0.5l0.7,0.6c0.2,0.4,0.3,0.6,0.5,0.6l0.7-1l0.6-0.7c0.7-0.6,1.3-1,1.9-1.3
			c1.9-0.8,3.1-0.4,3.8,1.2c0.5,1.1,0.4,2.4-0.1,3.8l-0.2,1l-0.5,1.3c-0.5,1.3-1.1,2.4-1.7,3.6l-0.5,1.5c-0.3,0.9-0.6,1.4-0.9,1.7
			l0.9,2.2l6.5-2.3l6-2.6L387,88.9z M401.1,80.9c-0.5-1.2-1.4-2-2.5-2.2c-1.1-0.6-2.2-0.7-3.2-0.4c1.8-1.6,2.3-3.4,1.5-5.2
			c-0.4-1-1.3-1.9-2.7-2.6c-1.4-0.5-3-0.2-5,0.6c-2.2,0.9-3.8,2.1-4.7,3.5l0.9,0.9l0.6,0.9l0.6,0.9l1.3-1.2c0.6-0.7,1.3-1.2,2-1.5
			c1.7-0.7,2.9-0.5,3.4,0.7c0.3,0.6,0.1,1.3-0.5,2c-0.6,0.7-1.2,1.2-1.8,1.4l-1.7,0.7l1.2,2.8l1.7-0.7c1.1-0.5,1.9-0.6,2.5-0.4
			c1,0.2,1.6,0.7,2,1.7c0.3,0.6,0.3,1.2-0.1,1.8c-0.3,0.6-1.1,1.1-2.2,1.6l-2.4,0.6l-0.6,0.1l-0.4,0.2l-1-0.2l0.3,1.8l0.3,1.7
			c1.4,0.5,3.2,0.1,5.6-0.9c2.2-1,3.7-2.2,4.6-3.8C401.5,83.9,401.6,82.3,401.1,80.9z M427.3,0L0,183.6l110.9,258.1v-48.8L73,304.7
			l37.9-16.3V233l-58,24.9l-27.6-64.3l392-168.4l27.6,64.3l-213.5,91.7h129.1L465,136.3l19.3,44.9h20.9L427.3,0z M396.9,73.2
			c-0.4-1-1.3-1.9-2.7-2.6c-1.4-0.5-3-0.2-5,0.6c-2.2,0.9-3.8,2.1-4.7,3.5l0.9,0.9l0.6,0.9l0.6,0.9l1.3-1.2c0.6-0.7,1.3-1.2,2-1.5
			c1.7-0.7,2.9-0.5,3.4,0.7c0.3,0.6,0.1,1.3-0.5,2c-0.6,0.7-1.2,1.2-1.8,1.4l-1.7,0.7l1.2,2.8l1.7-0.7c1.1-0.5,1.9-0.6,2.5-0.4
			c1,0.2,1.6,0.7,2,1.7c0.3,0.6,0.3,1.2-0.1,1.8c-0.3,0.6-1.1,1.1-2.2,1.6l-2.4,0.6l-0.6,0.1l-0.4,0.2l-1-0.2l0.3,1.8l0.3,1.7
			c1.4,0.5,3.2,0.1,5.6-0.9c2.2-1,3.7-2.2,4.6-3.8c0.9-1.8,1-3.4,0.4-4.7c-0.5-1.2-1.4-2-2.5-2.2c-1.1-0.6-2.2-0.7-3.2-0.4
			C397.1,76.8,397.7,75,396.9,73.2z M381.6,89.5c1.7-3.9,2.1-7,1.2-9.1c-0.7-1.7-1.8-2.8-3.1-3.2c-1.6-0.6-3.3-0.5-5.2,0.3
			c-2.3,1-3.9,2.4-5,4.3l0.6,0.4l0.7,0.5l0.7,0.6c0.2,0.4,0.3,0.6,0.5,0.6l0.7-1l0.6-0.7c0.7-0.6,1.3-1,1.9-1.3
			c1.9-0.8,3.1-0.4,3.8,1.2c0.5,1.1,0.4,2.4-0.1,3.8l-0.2,1l-0.5,1.3c-0.5,1.3-1.1,2.4-1.7,3.6l-0.5,1.5c-0.3,0.9-0.6,1.4-0.9,1.7
			l0.9,2.2l6.5-2.3l6-2.6l-1.5-3.4l-6.5,2.8l0.5-1L381.6,89.5z M359.7,84l-2,2.1l-0.2,0.6l-0.5,0.4l-0.9,1l0.5,0.6l0.7,0.6l0.7,1.6
			c0.3-0.4,0.6-0.9,1.1-1.6l0.9-0.9l0.4-0.6l0.2-0.1l5.8,13.5l3.9-1.7L363,82.6L359.7,84z M351.2,90c-1.8-0.9-3.7-0.8-5.7,0
			c-2,0.9-3.3,2.1-4.1,3.9c-0.6,1.6-0.5,3.3,0.2,5.1c0.7,1.6,1.7,2.7,3.1,3.2c1.6,0.5,3.1,0.4,4.5-0.2c1.5-0.6,2.4-1.6,2.8-2.7
			c0.3,1.3,0,2.7-0.7,4c-0.7,1.1-1.6,2-2.9,2.5l-1.9,0.8l1.3,3.1l1.9-0.8c2.5-1.3,4.3-3.1,5.5-5.2c1.2-2.9,1.2-5.9-0.1-9.1
			C354.3,92.5,353,90.9,351.2,90z M349.4,99.1c-0.9,0.4-1.7,0.3-2.3-0.3c-0.6-0.3-1-0.9-1.3-1.6c-0.4-0.8-0.5-1.7-0.4-2.4
			c0.3-0.7,0.8-1.2,1.6-1.5c0.8-0.4,1.7-0.2,2.4,0.5l0.6,0.9l0.7,1.2l0.5,1.1C351.1,97.9,350.5,98.6,349.4,99.1z M306.3,112
			c-0.5-1.1-1.4-1.9-2.8-2.5c-1.4-0.5-3-0.2-4.8,0.6c-1.9,0.8-3.2,1.9-3.9,3.2c-0.7,1.5-0.8,2.8-0.2,4c0.8,1.8,2.2,2.8,4.2,2.7
			c-1.6,1.7-2,3.6-1.1,5.7c0.6,1.3,1.5,2.2,2.8,2.5c1.7,0.6,3.5,0.5,5.2-0.3c2.1-0.9,3.6-2.1,4.5-3.4c0.7-1.6,0.9-3.2,0.2-4.7
			c-0.9-2.1-2.6-3.1-5-2.9l-0.1-0.2C306.6,115.4,307,113.8,306.3,112z M300.2,117.2c-0.7-0.3-1.2-0.7-1.5-1.3
			c-0.2-0.4-0.2-0.9-0.2-1.5c0.2-0.7,0.6-1.1,1.4-1.5c1.2-0.5,2.2-0.1,2.7,1.2c0.3,0.6,0.3,1.2,0.2,1.9c-0.2,0.7-0.5,1-0.8,1.2
			C301.5,117.5,300.9,117.5,300.2,117.2z M306.3,122.2c0.3,0.7,0.4,1.3,0.3,1.7c-0.2,0.8-0.6,1.4-1.2,1.6c-0.8,0.3-1.5,0.3-2.3-0.1
			c-0.6-0.2-1-0.7-1.3-1.4c-0.2-0.5-0.3-1.1-0.2-1.9c0.2-0.9,0.5-1.5,1-1.7c0.5-0.2,1.2-0.1,2.2,0.4
			C305.5,121,306,121.5,306.3,122.2z M286,136l4.1-1.7c0.3-2.3,0.7-8.2,1.1-17.5L290,114l-12.3,5.3l1.5,3.5l8-3.4l-0.7,8.5L286,136z
			 M273.7,124.5l1.5-0.6l-1.3-3.1l-1.5,0.6c-2.5,1.2-4.5,3.1-5.8,5.5c-1.3,2.7-1.3,5.7,0.1,8.9c0.9,2.1,2.3,3.6,4.2,4.5
			c1.7,1,3.8,1,6,0c1.8-0.8,2.9-2,3.7-3.7c0.7-1.7,0.7-3.5,0-5.2c-0.7-1.6-1.8-2.8-3.3-3.6c-1.8-0.3-3.1-0.2-4.2,0.3
			c-1.4,0.6-2.4,1.6-3.1,2.9l-0.2,0.1C269.4,128.4,270.7,126.2,273.7,124.5z M273,132c0.8-0.3,1.5-0.3,2.2-0.1
			c0.7,0.3,1.3,0.8,1.6,1.7c0.4,1,0.6,1.9,0.3,2.8c-0.2,0.7-0.6,1.1-1.3,1.4c-0.8,0.3-1.6,0.3-2.4-0.1c-0.8-0.4-1.4-1.1-1.8-2.1
			l-0.4-1C271.3,133.3,271.9,132.4,273,132z M261,130.6l-1.5-3.5l-9.5,4.1c0.4,1,0.9,2.4,1.2,4.3l0.6,2.5l0.8,2.9l0.9-0.9l1.3-0.6
			c3.4-1.4,5.4-1.2,6.3,0.8c0.3,0.7,0.2,1.6-0.2,2.5c-0.6,0.7-1.3,1.2-2.2,1.6c-0.2,0.1-1,0.3-2.4,0.6c-1,0.2-1.6,0.2-1.9,0.3
			l0.1,0.6l0.2,1l0.3,0.7l-0.1,0.7c1.5,0.2,3.4-0.1,5.5-1c2-0.7,3.5-2.1,4.5-4c0.9-1.6,1-3.2,0.2-5.1c-0.9-2-2.2-3.2-3.9-3.5
			c-1.7,0-3.4,0.4-5,1l-1.1,0.5l-0.1-0.6l-0.6-1.5l0.1-0.7L261,130.6z M213,159l-2,0.9l-4.4-10.1l-5,2.2l-0.4,3.1l-0.2,1.6l-0.2,2.1
			l-0.2,1.6l-0.2,0.6l-0.1,0.7c-0.1,1.5-0.3,2.7-0.6,3.8l1.1,2.6l7.8-3.4l1.7,4l0.1,0l3.7-1.6l-1.7-4.1l2-0.9L213,159z M203.6,163.5
			L203.6,163.5L203.6,163.5L203.6,163.5l0.2-0.5l-0.1-0.6l0.1-1.3l0.4-1.3l0.1-1.2c0-0.6,0.1-1.2,0.1-1.8l-0.1-0.8l0.1-1.2l3,7
			L203.6,163.5z M196.1,165.5c-0.9-0.5-2-0.5-3.1-0.2c1.7-1.9,2.1-3.7,1.4-5.4c-0.5-1.2-1.5-2-3-2.2c-1.3-0.5-2.8-0.3-4.6,0.5
			c-2.3,1-3.9,2.2-5,3.7c0.3,0.1,0.6,0.3,0.7,0.6l0.4,0.5l1.1,1.5l0.5-0.9l0.6-0.7l1.3-0.7l0.8-0.3c1.8-0.8,2.9-0.5,3.4,0.7
			c0.3,0.6,0.1,1.2-0.3,1.9l-1.8,1.4l-1.7,0.7l1.2,2.8l1.7-0.7c1-0.4,1.9-0.6,2.8-0.6c0.9,0.3,1.5,0.8,1.7,1.4
			c0.3,0.7,0.2,1.4-0.1,2c-0.6,0.8-1.2,1.4-2.1,1.8l-1.2,0.3l-1.2,0.3l-1.3,0.1h-0.9c0.2,1.2,0.4,2.4,0.6,3.5
			c1.7,0.1,3.6-0.2,5.7-1.1c1.8-0.8,3.3-1.9,4.7-3.5c0.7-1.7,0.8-3.3,0.2-4.7C198,166.9,197.2,166.1,196.1,165.5z M177.9,178.5
			l0.5-0.9l0.4-0.6v-0.5c2-4.2,2.6-7.3,1.7-9.3c-0.8-1.8-1.9-2.9-3.4-3.1c-1.6-0.6-3.3-0.5-5.3,0.3c-2.1,0.9-3.7,2.3-4.8,4.2
			c0.5,0.6,1.3,1.4,2.3,2.3c0.4-0.6,0.8-1.1,1.1-1.6c0.6-0.7,1.3-1.2,2-1.5c1.9-0.8,3.1-0.3,3.9,1.4c0.4,0.9,0.4,2.1,0,3.7l-0.5,1
			l-0.5,1.3c-0.5,1.3-1.1,2.4-1.8,3.6l-0.5,1.5l-0.3,0.7h7.7l5.1-2.2l-1.4-3.2L177.9,178.5z M157.3,171c-0.7,0.8-1.4,1.6-2,2.4
			l-1.5,1.7l0.3,0.7l0.5,0.6c0.6,0.7,1,1.2,1.1,1.5l0.2-0.6l0.5-0.4l0.8-0.8l0.2-0.6l0.9-0.9l2.7,6.3h4.6l-5-11.7L157.3,171z
			 M107.3,195.2c-1.8-1.2-3.8-1.4-6-0.5c-2.1,0.9-3.4,2.5-3.9,4.7c-0.3,2.1,0.1,4.4,1.2,6.9c1.1,2.5,2.5,4.4,4.2,5.8
			c2,1.2,4,1.3,6.1,0.4c0.7-0.3,1.3-0.7,1.8-1.2v-12C109.9,197.7,108.7,196.3,107.3,195.2z M107.9,209.9c-1.6,0.7-3.3-0.9-5-4.9
			c-1.6-3.8-1.6-6.1,0-6.8c1.6-0.7,3.2,0.9,4.9,4.7C109.5,206.9,109.5,209.2,107.9,209.9z M88,218.6c2.1,1.2,4.2,1.3,6.2,0.4
			c2-0.9,3.3-2.4,3.9-4.7c0.3-2-0.1-4.4-1.3-7.1c-1.2-2.7-2.5-4.6-4-5.7c-2-1.2-4-1.3-6.1-0.4c-2.1,0.9-3.5,2.5-4.1,4.8
			c-0.3,2.1,0.1,4.4,1.2,6.9C84.8,215.3,86.3,217.2,88,218.6z M88,204.6c1.7-0.7,3.4,0.8,5,4.6c1.7,4,1.7,6.3-0.1,7
			c-1.6,0.7-3.3-0.9-5-4.9C86.4,207.6,86.4,205.3,88,204.6z M77.9,207.9c-2.1-1.1-4.1-1.3-6.1-0.4c-2.1,0.9-3.3,2.5-3.7,4.7
			c-0.4,2.1-0.1,4.5,1.1,7.2c1.2,2.7,2.6,4.6,4.4,5.5c1.7,1.3,3.6,1.5,5.8,0.6c2.3-1,3.5-2.6,3.9-4.7c0.5-2,0.1-4.3-1.1-7.2
			C81,210.8,79.6,208.9,77.9,207.9z M78.3,222.6c-1.8,0.8-3.4-0.8-5.1-4.6c-1.7-3.9-1.6-6.3,0.1-7c1.6-0.7,3.2,0.9,4.9,4.7
			C79.9,219.6,79.9,221.9,78.3,222.6z M401.1,80.9c-0.5-1.2-1.4-2-2.5-2.2c-1.1-0.6-2.2-0.7-3.2-0.4c1.8-1.6,2.3-3.4,1.5-5.2
			c-0.4-1-1.3-1.9-2.7-2.6c-1.4-0.5-3-0.2-5,0.6c-2.2,0.9-3.8,2.1-4.7,3.5l0.9,0.9l0.6,0.9l0.6,0.9l1.3-1.2c0.6-0.7,1.3-1.2,2-1.5
			c1.7-0.7,2.9-0.5,3.4,0.7c0.3,0.6,0.1,1.3-0.5,2c-0.6,0.7-1.2,1.2-1.8,1.4l-1.7,0.7l1.2,2.8l1.7-0.7c1.1-0.5,1.9-0.6,2.5-0.4
			c1,0.2,1.6,0.7,2,1.7c0.3,0.6,0.3,1.2-0.1,1.8c-0.3,0.6-1.1,1.1-2.2,1.6l-2.4,0.6l-0.6,0.1l-0.4,0.2l-1-0.2l0.3,1.8l0.3,1.7
			c1.4,0.5,3.2,0.1,5.6-0.9c2.2-1,3.7-2.2,4.6-3.8C401.5,83.9,401.6,82.3,401.1,80.9z M387,88.9l-6.5,2.8l0.5-1l0.6-1.1
			c1.7-3.9,2.1-7,1.2-9.1c-0.7-1.7-1.8-2.8-3.1-3.2c-1.6-0.6-3.3-0.5-5.2,0.3c-2.3,1-3.9,2.4-5,4.3l0.6,0.4l0.7,0.5l0.7,0.6
			c0.2,0.4,0.3,0.6,0.5,0.6l0.7-1l0.6-0.7c0.7-0.6,1.3-1,1.9-1.3c1.9-0.8,3.1-0.4,3.8,1.2c0.5,1.1,0.4,2.4-0.1,3.8l-0.2,1l-0.5,1.3
			c-0.5,1.3-1.1,2.4-1.7,3.6l-0.5,1.5c-0.3,0.9-0.6,1.4-0.9,1.7l0.9,2.2l6.5-2.3l6-2.6L387,88.9z M363,82.6l-3.3,1.4l-2,2.1
			l-0.2,0.6l-0.5,0.4l-0.9,1l0.5,0.6l0.7,0.6l0.7,1.6c0.3-0.4,0.6-0.9,1.1-1.6l0.9-0.9l0.4-0.6l0.2-0.1l5.8,13.5l3.9-1.7L363,82.6z
			 M355.3,94.7c-0.9-2.2-2.3-3.8-4.1-4.8c-1.8-0.9-3.7-0.8-5.7,0c-2,0.9-3.3,2.1-4.1,3.9c-0.6,1.6-0.5,3.3,0.2,5.1
			c0.7,1.6,1.7,2.7,3.1,3.2c1.6,0.5,3.1,0.4,4.5-0.2c1.5-0.6,2.4-1.6,2.8-2.7c0.3,1.3,0,2.7-0.7,4c-0.7,1.1-1.6,2-2.9,2.5l-1.9,0.8
			l1.3,3.1l1.9-0.8c2.5-1.3,4.3-3.1,5.5-5.2C356.7,101,356.6,97.9,355.3,94.7z M349.4,99.1c-0.9,0.4-1.7,0.3-2.3-0.3
			c-0.6-0.3-1-0.9-1.3-1.6c-0.4-0.8-0.5-1.7-0.4-2.4c0.3-0.7,0.8-1.2,1.6-1.5c0.8-0.4,1.7-0.2,2.4,0.5l0.6,0.9l0.7,1.2l0.5,1.1
			C351.1,97.9,350.5,98.6,349.4,99.1z M310.4,119.9c-0.9-2.1-2.6-3.1-5-2.9l-0.1-0.2c1.3-1.4,1.6-3,1-4.8c-0.5-1.1-1.4-1.9-2.8-2.5
			c-1.4-0.5-3-0.2-4.8,0.6c-1.9,0.8-3.2,1.9-3.9,3.2c-0.7,1.5-0.8,2.8-0.2,4c0.8,1.8,2.2,2.8,4.2,2.7c-1.6,1.7-2,3.6-1.1,5.7
			c0.6,1.3,1.5,2.2,2.8,2.5c1.7,0.6,3.5,0.5,5.2-0.3c2.1-0.9,3.6-2.1,4.5-3.4C310.9,122.9,311,121.4,310.4,119.9z M300.2,117.2
			c-0.7-0.3-1.2-0.7-1.5-1.3c-0.2-0.4-0.2-0.9-0.2-1.5c0.2-0.7,0.6-1.1,1.4-1.5c1.2-0.5,2.2-0.1,2.7,1.2c0.3,0.6,0.3,1.2,0.2,1.9
			c-0.2,0.7-0.5,1-0.8,1.2C301.5,117.5,300.9,117.5,300.2,117.2z M306.5,123.9c-0.2,0.8-0.6,1.4-1.2,1.6c-0.8,0.3-1.5,0.3-2.3-0.1
			c-0.6-0.2-1-0.7-1.3-1.4c-0.2-0.5-0.3-1.1-0.2-1.9c0.2-0.9,0.5-1.5,1-1.7c0.5-0.2,1.2-0.1,2.2,0.4c0.7,0.3,1.2,0.8,1.5,1.5
			C306.6,123,306.7,123.5,306.5,123.9z M290,114l-12.3,5.3l1.5,3.5l8-3.4l-0.7,8.5L286,136l4.1-1.7c0.3-2.3,0.7-8.2,1.1-17.5
			L290,114z M280.5,131.4c-0.7-1.6-1.8-2.8-3.3-3.6c-1.8-0.3-3.1-0.2-4.2,0.3c-1.4,0.6-2.4,1.6-3.1,2.9l-0.2,0.1
			c-0.2-2.6,1.1-4.8,4-6.6l1.5-0.6l-1.3-3.1l-1.5,0.6c-2.5,1.2-4.5,3.1-5.8,5.5c-1.3,2.7-1.3,5.7,0.1,8.9c0.9,2.1,2.3,3.6,4.2,4.5
			c1.7,1,3.8,1,6,0c1.8-0.8,2.9-2,3.7-3.7C281.2,134.9,281.2,133.1,280.5,131.4z M277.1,136.3c-0.2,0.7-0.6,1.1-1.3,1.4
			c-0.8,0.3-1.6,0.3-2.4-0.1c-0.8-0.4-1.4-1.1-1.8-2.1l-0.4-1c0.2-1.3,0.9-2.1,2-2.6c0.8-0.3,1.5-0.3,2.2-0.1
			c0.7,0.3,1.3,0.8,1.6,1.7C277.3,134.6,277.4,135.5,277.1,136.3z M265.2,138.2c-0.9-2-2.2-3.2-3.9-3.5c-1.7,0-3.4,0.4-5,1l-1.1,0.5
			l-0.1-0.6l-0.6-1.5l0.1-0.7l6.4-2.8l-1.5-3.5l-9.5,4.1c0.4,1,0.9,2.4,1.2,4.3l0.6,2.5l0.8,2.9l0.9-0.9l1.3-0.6
			c3.4-1.4,5.4-1.2,6.3,0.8c0.3,0.7,0.2,1.6-0.2,2.5c-0.6,0.7-1.3,1.2-2.2,1.6c-0.2,0.1-1,0.3-2.4,0.6c-1,0.2-1.6,0.2-1.9,0.3
			l0.1,0.6l0.2,1l0.3,0.7l-0.1,0.7c1.5,0.2,3.4-0.1,5.5-1c2-0.7,3.5-2.1,4.5-4C265.9,141.7,266,140.1,265.2,138.2z M214.3,161.9
			L213,159l-2,0.9l-4.4-10.1l-5,2.2l-0.4,3.1l-0.2,1.6l-0.2,2.1l-0.2,1.6l-0.2,0.6l-0.1,0.7c-0.1,1.5-0.3,2.7-0.6,3.8l1.1,2.6
			l7.8-3.4l1.7,4l0.1,0l3.7-1.6l-1.7-4.1L214.3,161.9z M203.6,163.5L203.6,163.5L203.6,163.5L203.6,163.5l0.2-0.5l-0.1-0.6l0.1-1.3
			l0.4-1.3l0.1-1.2c0-0.6,0.1-1.2,0.1-1.8l-0.1-0.8l0.1-1.2l3,7L203.6,163.5z M198.5,168c-0.5-1.1-1.3-1.9-2.4-2.5
			c-0.9-0.5-2-0.5-3.1-0.2c1.7-1.9,2.1-3.7,1.4-5.4c-0.5-1.2-1.5-2-3-2.2c-1.3-0.5-2.8-0.3-4.6,0.5c-2.3,1-3.9,2.2-5,3.7
			c0.3,0.1,0.6,0.3,0.7,0.6l0.4,0.5l1.1,1.5l0.5-0.9l0.6-0.7l1.3-0.7l0.8-0.3c1.8-0.8,2.9-0.5,3.4,0.7c0.3,0.6,0.1,1.2-0.3,1.9
			l-1.8,1.4l-1.7,0.7l1.2,2.8l1.7-0.7c1-0.4,1.9-0.6,2.8-0.6c0.9,0.3,1.5,0.8,1.7,1.4c0.3,0.7,0.2,1.4-0.1,2
			c-0.6,0.8-1.2,1.4-2.1,1.8l-1.2,0.3l-1.2,0.3l-1.3,0.1h-0.9c0.2,1.2,0.4,2.4,0.6,3.5c1.7,0.1,3.6-0.2,5.7-1.1
			c1.8-0.8,3.3-1.9,4.7-3.5C199,170.9,199.1,169.3,198.5,168z M184.3,175.8l-6.4,2.8l0.5-0.9l0.4-0.6v-0.5c2-4.2,2.6-7.3,1.7-9.3
			c-0.8-1.8-1.9-2.9-3.4-3.1c-1.6-0.6-3.3-0.5-5.3,0.3c-2.1,0.9-3.7,2.3-4.8,4.2c0.5,0.6,1.3,1.4,2.3,2.3c0.4-0.6,0.8-1.1,1.1-1.6
			c0.6-0.7,1.3-1.2,2-1.5c1.9-0.8,3.1-0.3,3.9,1.4c0.4,0.9,0.4,2.1,0,3.7l-0.5,1l-0.5,1.3c-0.5,1.3-1.1,2.4-1.8,3.6l-0.5,1.5
			l-0.3,0.7h7.7l5.1-2.2L184.3,175.8z M160.6,169.5l-3.4,1.4c-0.7,0.8-1.4,1.6-2,2.4l-1.5,1.7l0.3,0.7l0.5,0.6
			c0.6,0.7,1,1.2,1.1,1.5l0.2-0.6l0.5-0.4l0.8-0.8l0.2-0.6l0.9-0.9l2.7,6.3h4.6L160.6,169.5z M107.3,195.2c-1.8-1.2-3.8-1.4-6-0.5
			c-2.1,0.9-3.4,2.5-3.9,4.7c-0.3,2.1,0.1,4.4,1.2,6.9c1.1,2.5,2.5,4.4,4.2,5.8c2,1.2,4,1.3,6.1,0.4c0.7-0.3,1.3-0.7,1.8-1.2v-12
			C109.9,197.7,108.7,196.3,107.3,195.2z M107.9,209.9c-1.6,0.7-3.3-0.9-5-4.9c-1.6-3.8-1.6-6.1,0-6.8c1.6-0.7,3.2,0.9,4.9,4.7
			C109.5,206.9,109.5,209.2,107.9,209.9z M96.8,207.2c-1.2-2.7-2.5-4.6-4-5.7c-2-1.2-4-1.3-6.1-0.4c-2.1,0.9-3.5,2.5-4.1,4.8
			c-0.3,2.1,0.1,4.4,1.2,6.9c1.1,2.5,2.5,4.4,4.2,5.8c2.1,1.2,4.2,1.3,6.2,0.4c2-0.9,3.3-2.4,3.9-4.7
			C98.4,212.2,98,209.9,96.8,207.2z M93,216.3c-1.6,0.7-3.3-0.9-5-4.9c-1.6-3.8-1.6-6.1,0-6.8c1.7-0.7,3.4,0.8,5,4.6
			C94.8,213.2,94.7,215.5,93,216.3z M82.1,213.5c-1.2-2.7-2.6-4.6-4.2-5.6c-2.1-1.1-4.1-1.3-6.1-0.4c-2.1,0.9-3.3,2.5-3.7,4.7
			c-0.4,2.1-0.1,4.5,1.1,7.2c1.2,2.7,2.6,4.6,4.4,5.5c1.7,1.3,3.6,1.5,5.8,0.6c2.3-1,3.5-2.6,3.9-4.7
			C83.7,218.7,83.3,216.3,82.1,213.5z M78.3,222.6c-1.8,0.8-3.4-0.8-5.1-4.6c-1.7-3.9-1.6-6.3,0.1-7c1.6-0.7,3.2,0.9,4.9,4.7
			C79.9,219.6,79.9,221.9,78.3,222.6z M401.1,80.9c-0.5-1.2-1.4-2-2.5-2.2c-1.1-0.6-2.2-0.7-3.2-0.4c1.8-1.6,2.3-3.4,1.5-5.2
			c-0.4-1-1.3-1.9-2.7-2.6c-1.4-0.5-3-0.2-5,0.6c-2.2,0.9-3.8,2.1-4.7,3.5l0.9,0.9l0.6,0.9l0.6,0.9l1.3-1.2c0.6-0.7,1.3-1.2,2-1.5
			c1.7-0.7,2.9-0.5,3.4,0.7c0.3,0.6,0.1,1.3-0.5,2c-0.6,0.7-1.2,1.2-1.8,1.4l-1.7,0.7l1.2,2.8l1.7-0.7c1.1-0.5,1.9-0.6,2.5-0.4
			c1,0.2,1.6,0.7,2,1.7c0.3,0.6,0.3,1.2-0.1,1.8c-0.3,0.6-1.1,1.1-2.2,1.6l-2.4,0.6l-0.6,0.1l-0.4,0.2l-1-0.2l0.3,1.8l0.3,1.7
			c1.4,0.5,3.2,0.1,5.6-0.9c2.2-1,3.7-2.2,4.6-3.8C401.5,83.9,401.6,82.3,401.1,80.9z M387,88.9l-6.5,2.8l0.5-1l0.6-1.1
			c1.7-3.9,2.1-7,1.2-9.1c-0.7-1.7-1.8-2.8-3.1-3.2c-1.6-0.6-3.3-0.5-5.2,0.3c-2.3,1-3.9,2.4-5,4.3l0.6,0.4l0.7,0.5l0.7,0.6
			c0.2,0.4,0.3,0.6,0.5,0.6l0.7-1l0.6-0.7c0.7-0.6,1.3-1,1.9-1.3c1.9-0.8,3.1-0.4,3.8,1.2c0.5,1.1,0.4,2.4-0.1,3.8l-0.2,1l-0.5,1.3
			c-0.5,1.3-1.1,2.4-1.7,3.6l-0.5,1.5c-0.3,0.9-0.6,1.4-0.9,1.7l0.9,2.2l6.5-2.3l6-2.6L387,88.9z M363,82.6l-3.3,1.4l-2,2.1
			l-0.2,0.6l-0.5,0.4l-0.9,1l0.5,0.6l0.7,0.6l0.7,1.6c0.3-0.4,0.6-0.9,1.1-1.6l0.9-0.9l0.4-0.6l0.2-0.1l5.8,13.5l3.9-1.7L363,82.6z
			 M355.3,94.7c-0.9-2.2-2.3-3.8-4.1-4.8c-1.8-0.9-3.7-0.8-5.7,0c-2,0.9-3.3,2.1-4.1,3.9c-0.6,1.6-0.5,3.3,0.2,5.1
			c0.7,1.6,1.7,2.7,3.1,3.2c1.6,0.5,3.1,0.4,4.5-0.2c1.5-0.6,2.4-1.6,2.8-2.7c0.3,1.3,0,2.7-0.7,4c-0.7,1.1-1.6,2-2.9,2.5l-1.9,0.8
			l1.3,3.1l1.9-0.8c2.5-1.3,4.3-3.1,5.5-5.2C356.7,101,356.6,97.9,355.3,94.7z M349.4,99.1c-0.9,0.4-1.7,0.3-2.3-0.3
			c-0.6-0.3-1-0.9-1.3-1.6c-0.4-0.8-0.5-1.7-0.4-2.4c0.3-0.7,0.8-1.2,1.6-1.5c0.8-0.4,1.7-0.2,2.4,0.5l0.6,0.9l0.7,1.2l0.5,1.1
			C351.1,97.9,350.5,98.6,349.4,99.1z M310.4,119.9c-0.9-2.1-2.6-3.1-5-2.9l-0.1-0.2c1.3-1.4,1.6-3,1-4.8c-0.5-1.1-1.4-1.9-2.8-2.5
			c-1.4-0.5-3-0.2-4.8,0.6c-1.9,0.8-3.2,1.9-3.9,3.2c-0.7,1.5-0.8,2.8-0.2,4c0.8,1.8,2.2,2.8,4.2,2.7c-1.6,1.7-2,3.6-1.1,5.7
			c0.6,1.3,1.5,2.2,2.8,2.5c1.7,0.6,3.5,0.5,5.2-0.3c2.1-0.9,3.6-2.1,4.5-3.4C310.9,122.9,311,121.4,310.4,119.9z M300.2,117.2
			c-0.7-0.3-1.2-0.7-1.5-1.3c-0.2-0.4-0.2-0.9-0.2-1.5c0.2-0.7,0.6-1.1,1.4-1.5c1.2-0.5,2.2-0.1,2.7,1.2c0.3,0.6,0.3,1.2,0.2,1.9
			c-0.2,0.7-0.5,1-0.8,1.2C301.5,117.5,300.9,117.5,300.2,117.2z M306.5,123.9c-0.2,0.8-0.6,1.4-1.2,1.6c-0.8,0.3-1.5,0.3-2.3-0.1
			c-0.6-0.2-1-0.7-1.3-1.4c-0.2-0.5-0.3-1.1-0.2-1.9c0.2-0.9,0.5-1.5,1-1.7c0.5-0.2,1.2-0.1,2.2,0.4c0.7,0.3,1.2,0.8,1.5,1.5
			C306.6,123,306.7,123.5,306.5,123.9z M290,114l-12.3,5.3l1.5,3.5l8-3.4l-0.7,8.5L286,136l4.1-1.7c0.3-2.3,0.7-8.2,1.1-17.5
			L290,114z M280.5,131.4c-0.7-1.6-1.8-2.8-3.3-3.6c-1.8-0.3-3.1-0.2-4.2,0.3c-1.4,0.6-2.4,1.6-3.1,2.9l-0.2,0.1
			c-0.2-2.6,1.1-4.8,4-6.6l1.5-0.6l-1.3-3.1l-1.5,0.6c-2.5,1.2-4.5,3.1-5.8,5.5c-1.3,2.7-1.3,5.7,0.1,8.9c0.9,2.1,2.3,3.6,4.2,4.5
			c1.7,1,3.8,1,6,0c1.8-0.8,2.9-2,3.7-3.7C281.2,134.9,281.2,133.1,280.5,131.4z M277.1,136.3c-0.2,0.7-0.6,1.1-1.3,1.4
			c-0.8,0.3-1.6,0.3-2.4-0.1c-0.8-0.4-1.4-1.1-1.8-2.1l-0.4-1c0.2-1.3,0.9-2.1,2-2.6c0.8-0.3,1.5-0.3,2.2-0.1
			c0.7,0.3,1.3,0.8,1.6,1.7C277.3,134.6,277.4,135.5,277.1,136.3z M265.2,138.2c-0.9-2-2.2-3.2-3.9-3.5c-1.7,0-3.4,0.4-5,1l-1.1,0.5
			l-0.1-0.6l-0.6-1.5l0.1-0.7l6.4-2.8l-1.5-3.5l-9.5,4.1c0.4,1,0.9,2.4,1.2,4.3l0.6,2.5l0.8,2.9l0.9-0.9l1.3-0.6
			c3.4-1.4,5.4-1.2,6.3,0.8c0.3,0.7,0.2,1.6-0.2,2.5c-0.6,0.7-1.3,1.2-2.2,1.6c-0.2,0.1-1,0.3-2.4,0.6c-1,0.2-1.6,0.2-1.9,0.3
			l0.1,0.6l0.2,1l0.3,0.7l-0.1,0.7c1.5,0.2,3.4-0.1,5.5-1c2-0.7,3.5-2.1,4.5-4C265.9,141.7,266,140.1,265.2,138.2z M214.3,161.9
			L213,159l-2,0.9l-4.4-10.1l-5,2.2l-0.4,3.1l-0.2,1.6l-0.2,2.1l-0.2,1.6l-0.2,0.6l-0.1,0.7c-0.1,1.5-0.3,2.7-0.6,3.8l1.1,2.6
			l7.8-3.4l1.7,4l0.1,0l3.7-1.6l-1.7-4.1L214.3,161.9z M203.6,163.5L203.6,163.5L203.6,163.5L203.6,163.5l0.2-0.5l-0.1-0.6l0.1-1.3
			l0.4-1.3l0.1-1.2c0-0.6,0.1-1.2,0.1-1.8l-0.1-0.8l0.1-1.2l3,7L203.6,163.5z M198.5,168c-0.5-1.1-1.3-1.9-2.4-2.5
			c-0.9-0.5-2-0.5-3.1-0.2c1.7-1.9,2.1-3.7,1.4-5.4c-0.5-1.2-1.5-2-3-2.2c-1.3-0.5-2.8-0.3-4.6,0.5c-2.3,1-3.9,2.2-5,3.7
			c0.3,0.1,0.6,0.3,0.7,0.6l0.4,0.5l1.1,1.5l0.5-0.9l0.6-0.7l1.3-0.7l0.8-0.3c1.8-0.8,2.9-0.5,3.4,0.7c0.3,0.6,0.1,1.2-0.3,1.9
			l-1.8,1.4l-1.7,0.7l1.2,2.8l1.7-0.7c1-0.4,1.9-0.6,2.8-0.6c0.9,0.3,1.5,0.8,1.7,1.4c0.3,0.7,0.2,1.4-0.1,2
			c-0.6,0.8-1.2,1.4-2.1,1.8l-1.2,0.3l-1.2,0.3l-1.3,0.1h-0.9c0.2,1.2,0.4,2.4,0.6,3.5c1.7,0.1,3.6-0.2,5.7-1.1
			c1.8-0.8,3.3-1.9,4.7-3.5C199,170.9,199.1,169.3,198.5,168z M184.3,175.8l-6.4,2.8l0.5-0.9l0.4-0.6v-0.5c2-4.2,2.6-7.3,1.7-9.3
			c-0.8-1.8-1.9-2.9-3.4-3.1c-1.6-0.6-3.3-0.5-5.3,0.3c-2.1,0.9-3.7,2.3-4.8,4.2c0.5,0.6,1.3,1.4,2.3,2.3c0.4-0.6,0.8-1.1,1.1-1.6
			c0.6-0.7,1.3-1.2,2-1.5c1.9-0.8,3.1-0.3,3.9,1.4c0.4,0.9,0.4,2.1,0,3.7l-0.5,1l-0.5,1.3c-0.5,1.3-1.1,2.4-1.8,3.6l-0.5,1.5
			l-0.3,0.7h7.7l5.1-2.2L184.3,175.8z M160.6,169.5l-3.4,1.4c-0.7,0.8-1.4,1.6-2,2.4l-1.5,1.7l0.3,0.7l0.5,0.6
			c0.6,0.7,1,1.2,1.1,1.5l0.2-0.6l0.5-0.4l0.8-0.8l0.2-0.6l0.9-0.9l2.7,6.3h4.6L160.6,169.5z M107.3,195.2c-1.8-1.2-3.8-1.4-6-0.5
			c-2.1,0.9-3.4,2.5-3.9,4.7c-0.3,2.1,0.1,4.4,1.2,6.9c1.1,2.5,2.5,4.4,4.2,5.8c2,1.2,4,1.3,6.1,0.4c0.7-0.3,1.3-0.7,1.8-1.2v-12
			C109.9,197.7,108.7,196.3,107.3,195.2z M107.9,209.9c-1.6,0.7-3.3-0.9-5-4.9c-1.6-3.8-1.6-6.1,0-6.8c1.6-0.7,3.2,0.9,4.9,4.7
			C109.5,206.9,109.5,209.2,107.9,209.9z M96.8,207.2c-1.2-2.7-2.5-4.6-4-5.7c-2-1.2-4-1.3-6.1-0.4c-2.1,0.9-3.5,2.5-4.1,4.8
			c-0.3,2.1,0.1,4.4,1.2,6.9c1.1,2.5,2.5,4.4,4.2,5.8c2.1,1.2,4.2,1.3,6.2,0.4c2-0.9,3.3-2.4,3.9-4.7
			C98.4,212.2,98,209.9,96.8,207.2z M93,216.3c-1.6,0.7-3.3-0.9-5-4.9c-1.6-3.8-1.6-6.1,0-6.8c1.7-0.7,3.4,0.8,5,4.6
			C94.8,213.2,94.7,215.5,93,216.3z M82.1,213.5c-1.2-2.7-2.6-4.6-4.2-5.6c-2.1-1.1-4.1-1.3-6.1-0.4c-2.1,0.9-3.3,2.5-3.7,4.7
			c-0.4,2.1-0.1,4.5,1.1,7.2c1.2,2.7,2.6,4.6,4.4,5.5c1.7,1.3,3.6,1.5,5.8,0.6c2.3-1,3.5-2.6,3.9-4.7
			C83.7,218.7,83.3,216.3,82.1,213.5z M78.3,222.6c-1.8,0.8-3.4-0.8-5.1-4.6c-1.7-3.9-1.6-6.3,0.1-7c1.6-0.7,3.2,0.9,4.9,4.7
			C79.9,219.6,79.9,221.9,78.3,222.6z M401.1,80.9c-0.5-1.2-1.4-2-2.5-2.2c-1.1-0.6-2.2-0.7-3.2-0.4c1.8-1.6,2.3-3.4,1.5-5.2
			c-0.4-1-1.3-1.9-2.7-2.6c-1.4-0.5-3-0.2-5,0.6c-2.2,0.9-3.8,2.1-4.7,3.5l0.9,0.9l0.6,0.9l0.6,0.9l1.3-1.2c0.6-0.7,1.3-1.2,2-1.5
			c1.7-0.7,2.9-0.5,3.4,0.7c0.3,0.6,0.1,1.3-0.5,2c-0.6,0.7-1.2,1.2-1.8,1.4l-1.7,0.7l1.2,2.8l1.7-0.7c1.1-0.5,1.9-0.6,2.5-0.4
			c1,0.2,1.6,0.7,2,1.7c0.3,0.6,0.3,1.2-0.1,1.8c-0.3,0.6-1.1,1.1-2.2,1.6l-2.4,0.6l-0.6,0.1l-0.4,0.2l-1-0.2l0.3,1.8l0.3,1.7
			c1.4,0.5,3.2,0.1,5.6-0.9c2.2-1,3.7-2.2,4.6-3.8C401.5,83.9,401.6,82.3,401.1,80.9z M387,88.9l-6.5,2.8l0.5-1l0.6-1.1
			c1.7-3.9,2.1-7,1.2-9.1c-0.7-1.7-1.8-2.8-3.1-3.2c-1.6-0.6-3.3-0.5-5.2,0.3c-2.3,1-3.9,2.4-5,4.3l0.6,0.4l0.7,0.5l0.7,0.6
			c0.2,0.4,0.3,0.6,0.5,0.6l0.7-1l0.6-0.7c0.7-0.6,1.3-1,1.9-1.3c1.9-0.8,3.1-0.4,3.8,1.2c0.5,1.1,0.4,2.4-0.1,3.8l-0.2,1l-0.5,1.3
			c-0.5,1.3-1.1,2.4-1.7,3.6l-0.5,1.5c-0.3,0.9-0.6,1.4-0.9,1.7l0.9,2.2l6.5-2.3l6-2.6L387,88.9z M363,82.6l-3.3,1.4l-2,2.1
			l-0.2,0.6l-0.5,0.4l-0.9,1l0.5,0.6l0.7,0.6l0.7,1.6c0.3-0.4,0.6-0.9,1.1-1.6l0.9-0.9l0.4-0.6l0.2-0.1l5.8,13.5l3.9-1.7L363,82.6z
			 M355.3,94.7c-0.9-2.2-2.3-3.8-4.1-4.8c-1.8-0.9-3.7-0.8-5.7,0c-2,0.9-3.3,2.1-4.1,3.9c-0.6,1.6-0.5,3.3,0.2,5.1
			c0.7,1.6,1.7,2.7,3.1,3.2c1.6,0.5,3.1,0.4,4.5-0.2c1.5-0.6,2.4-1.6,2.8-2.7c0.3,1.3,0,2.7-0.7,4c-0.7,1.1-1.6,2-2.9,2.5l-1.9,0.8
			l1.3,3.1l1.9-0.8c2.5-1.3,4.3-3.1,5.5-5.2C356.7,101,356.6,97.9,355.3,94.7z M349.4,99.1c-0.9,0.4-1.7,0.3-2.3-0.3
			c-0.6-0.3-1-0.9-1.3-1.6c-0.4-0.8-0.5-1.7-0.4-2.4c0.3-0.7,0.8-1.2,1.6-1.5c0.8-0.4,1.7-0.2,2.4,0.5l0.6,0.9l0.7,1.2l0.5,1.1
			C351.1,97.9,350.5,98.6,349.4,99.1z M310.4,119.9c-0.9-2.1-2.6-3.1-5-2.9l-0.1-0.2c1.3-1.4,1.6-3,1-4.8c-0.5-1.1-1.4-1.9-2.8-2.5
			c-1.4-0.5-3-0.2-4.8,0.6c-1.9,0.8-3.2,1.9-3.9,3.2c-0.7,1.5-0.8,2.8-0.2,4c0.8,1.8,2.2,2.8,4.2,2.7c-1.6,1.7-2,3.6-1.1,5.7
			c0.6,1.3,1.5,2.2,2.8,2.5c1.7,0.6,3.5,0.5,5.2-0.3c2.1-0.9,3.6-2.1,4.5-3.4C310.9,122.9,311,121.4,310.4,119.9z M300.2,117.2
			c-0.7-0.3-1.2-0.7-1.5-1.3c-0.2-0.4-0.2-0.9-0.2-1.5c0.2-0.7,0.6-1.1,1.4-1.5c1.2-0.5,2.2-0.1,2.7,1.2c0.3,0.6,0.3,1.2,0.2,1.9
			c-0.2,0.7-0.5,1-0.8,1.2C301.5,117.5,300.9,117.5,300.2,117.2z M306.5,123.9c-0.2,0.8-0.6,1.4-1.2,1.6c-0.8,0.3-1.5,0.3-2.3-0.1
			c-0.6-0.2-1-0.7-1.3-1.4c-0.2-0.5-0.3-1.1-0.2-1.9c0.2-0.9,0.5-1.5,1-1.7c0.5-0.2,1.2-0.1,2.2,0.4c0.7,0.3,1.2,0.8,1.5,1.5
			C306.6,123,306.7,123.5,306.5,123.9z M290,114l-12.3,5.3l1.5,3.5l8-3.4l-0.7,8.5L286,136l4.1-1.7c0.3-2.3,0.7-8.2,1.1-17.5
			L290,114z M280.5,131.4c-0.7-1.6-1.8-2.8-3.3-3.6c-1.8-0.3-3.1-0.2-4.2,0.3c-1.4,0.6-2.4,1.6-3.1,2.9l-0.2,0.1
			c-0.2-2.6,1.1-4.8,4-6.6l1.5-0.6l-1.3-3.1l-1.5,0.6c-2.5,1.2-4.5,3.1-5.8,5.5c-1.3,2.7-1.3,5.7,0.1,8.9c0.9,2.1,2.3,3.6,4.2,4.5
			c1.7,1,3.8,1,6,0c1.8-0.8,2.9-2,3.7-3.7C281.2,134.9,281.2,133.1,280.5,131.4z M277.1,136.3c-0.2,0.7-0.6,1.1-1.3,1.4
			c-0.8,0.3-1.6,0.3-2.4-0.1c-0.8-0.4-1.4-1.1-1.8-2.1l-0.4-1c0.2-1.3,0.9-2.1,2-2.6c0.8-0.3,1.5-0.3,2.2-0.1
			c0.7,0.3,1.3,0.8,1.6,1.7C277.3,134.6,277.4,135.5,277.1,136.3z M265.2,138.2c-0.9-2-2.2-3.2-3.9-3.5c-1.7,0-3.4,0.4-5,1l-1.1,0.5
			l-0.1-0.6l-0.6-1.5l0.1-0.7l6.4-2.8l-1.5-3.5l-9.5,4.1c0.4,1,0.9,2.4,1.2,4.3l0.6,2.5l0.8,2.9l0.9-0.9l1.3-0.6
			c3.4-1.4,5.4-1.2,6.3,0.8c0.3,0.7,0.2,1.6-0.2,2.5c-0.6,0.7-1.3,1.2-2.2,1.6c-0.2,0.1-1,0.3-2.4,0.6c-1,0.2-1.6,0.2-1.9,0.3
			l0.1,0.6l0.2,1l0.3,0.7l-0.1,0.7c1.5,0.2,3.4-0.1,5.5-1c2-0.7,3.5-2.1,4.5-4C265.9,141.7,266,140.1,265.2,138.2z M214.3,161.9
			L213,159l-2,0.9l-4.4-10.1l-5,2.2l-0.4,3.1l-0.2,1.6l-0.2,2.1l-0.2,1.6l-0.2,0.6l-0.1,0.7c-0.1,1.5-0.3,2.7-0.6,3.8l1.1,2.6
			l7.8-3.4l1.7,4l0.1,0l3.7-1.6l-1.7-4.1L214.3,161.9z M203.6,163.5L203.6,163.5L203.6,163.5L203.6,163.5l0.2-0.5l-0.1-0.6l0.1-1.3
			l0.4-1.3l0.1-1.2c0-0.6,0.1-1.2,0.1-1.8l-0.1-0.8l0.1-1.2l3,7L203.6,163.5z M198.5,168c-0.5-1.1-1.3-1.9-2.4-2.5
			c-0.9-0.5-2-0.5-3.1-0.2c1.7-1.9,2.1-3.7,1.4-5.4c-0.5-1.2-1.5-2-3-2.2c-1.3-0.5-2.8-0.3-4.6,0.5c-2.3,1-3.9,2.2-5,3.7
			c0.3,0.1,0.6,0.3,0.7,0.6l0.4,0.5l1.1,1.5l0.5-0.9l0.6-0.7l1.3-0.7l0.8-0.3c1.8-0.8,2.9-0.5,3.4,0.7c0.3,0.6,0.1,1.2-0.3,1.9
			l-1.8,1.4l-1.7,0.7l1.2,2.8l1.7-0.7c1-0.4,1.9-0.6,2.8-0.6c0.9,0.3,1.5,0.8,1.7,1.4c0.3,0.7,0.2,1.4-0.1,2
			c-0.6,0.8-1.2,1.4-2.1,1.8l-1.2,0.3l-1.2,0.3l-1.3,0.1h-0.9c0.2,1.2,0.4,2.4,0.6,3.5c1.7,0.1,3.6-0.2,5.7-1.1
			c1.8-0.8,3.3-1.9,4.7-3.5C199,170.9,199.1,169.3,198.5,168z M184.3,175.8l-6.4,2.8l0.5-0.9l0.4-0.6v-0.5c2-4.2,2.6-7.3,1.7-9.3
			c-0.8-1.8-1.9-2.9-3.4-3.1c-1.6-0.6-3.3-0.5-5.3,0.3c-2.1,0.9-3.7,2.3-4.8,4.2c0.5,0.6,1.3,1.4,2.3,2.3c0.4-0.6,0.8-1.1,1.1-1.6
			c0.6-0.7,1.3-1.2,2-1.5c1.9-0.8,3.1-0.3,3.9,1.4c0.4,0.9,0.4,2.1,0,3.7l-0.5,1l-0.5,1.3c-0.5,1.3-1.1,2.4-1.8,3.6l-0.5,1.5
			l-0.3,0.7h7.7l5.1-2.2L184.3,175.8z M160.6,169.5l-3.4,1.4c-0.7,0.8-1.4,1.6-2,2.4l-1.5,1.7l0.3,0.7l0.5,0.6
			c0.6,0.7,1,1.2,1.1,1.5l0.2-0.6l0.5-0.4l0.8-0.8l0.2-0.6l0.9-0.9l2.7,6.3h4.6L160.6,169.5z M107.3,195.2c-1.8-1.2-3.8-1.4-6-0.5
			c-2.1,0.9-3.4,2.5-3.9,4.7c-0.3,2.1,0.1,4.4,1.2,6.9c1.1,2.5,2.5,4.4,4.2,5.8c2,1.2,4,1.3,6.1,0.4c0.7-0.3,1.3-0.7,1.8-1.2v-12
			C109.9,197.7,108.7,196.3,107.3,195.2z M107.9,209.9c-1.6,0.7-3.3-0.9-5-4.9c-1.6-3.8-1.6-6.1,0-6.8c1.6-0.7,3.2,0.9,4.9,4.7
			C109.5,206.9,109.5,209.2,107.9,209.9z M96.8,207.2c-1.2-2.7-2.5-4.6-4-5.7c-2-1.2-4-1.3-6.1-0.4c-2.1,0.9-3.5,2.5-4.1,4.8
			c-0.3,2.1,0.1,4.4,1.2,6.9c1.1,2.5,2.5,4.4,4.2,5.8c2.1,1.2,4.2,1.3,6.2,0.4c2-0.9,3.3-2.4,3.9-4.7
			C98.4,212.2,98,209.9,96.8,207.2z M93,216.3c-1.6,0.7-3.3-0.9-5-4.9c-1.6-3.8-1.6-6.1,0-6.8c1.7-0.7,3.4,0.8,5,4.6
			C94.8,213.2,94.7,215.5,93,216.3z M82.1,213.5c-1.2-2.7-2.6-4.6-4.2-5.6c-2.1-1.1-4.1-1.3-6.1-0.4c-2.1,0.9-3.3,2.5-3.7,4.7
			c-0.4,2.1-0.1,4.5,1.1,7.2c1.2,2.7,2.6,4.6,4.4,5.5c1.7,1.3,3.6,1.5,5.8,0.6c2.3-1,3.5-2.6,3.9-4.7
			C83.7,218.7,83.3,216.3,82.1,213.5z M78.3,222.6c-1.8,0.8-3.4-0.8-5.1-4.6c-1.7-3.9-1.6-6.3,0.1-7c1.6-0.7,3.2,0.9,4.9,4.7
			C79.9,219.6,79.9,221.9,78.3,222.6z M82.1,213.5c-1.2-2.7-2.6-4.6-4.2-5.6c-2.1-1.1-4.1-1.3-6.1-0.4c-2.1,0.9-3.3,2.5-3.7,4.7
			c-0.4,2.1-0.1,4.5,1.1,7.2c1.2,2.7,2.6,4.6,4.4,5.5c1.7,1.3,3.6,1.5,5.8,0.6c2.3-1,3.5-2.6,3.9-4.7
			C83.7,218.7,83.3,216.3,82.1,213.5z M78.3,222.6c-1.8,0.8-3.4-0.8-5.1-4.6c-1.7-3.9-1.6-6.3,0.1-7c1.6-0.7,3.2,0.9,4.9,4.7
			C79.9,219.6,79.9,221.9,78.3,222.6z M96.8,207.2c-1.2-2.7-2.5-4.6-4-5.7c-2-1.2-4-1.3-6.1-0.4c-2.1,0.9-3.5,2.5-4.1,4.8
			c-0.3,2.1,0.1,4.4,1.2,6.9c1.1,2.5,2.5,4.4,4.2,5.8c2.1,1.2,4.2,1.3,6.2,0.4c2-0.9,3.3-2.4,3.9-4.7
			C98.4,212.2,98,209.9,96.8,207.2z M93,216.3c-1.6,0.7-3.3-0.9-5-4.9c-1.6-3.8-1.6-6.1,0-6.8c1.7-0.7,3.4,0.8,5,4.6
			C94.8,213.2,94.7,215.5,93,216.3z M107.3,195.2c-1.8-1.2-3.8-1.4-6-0.5c-2.1,0.9-3.4,2.5-3.9,4.7c-0.3,2.1,0.1,4.4,1.2,6.9
			c1.1,2.5,2.5,4.4,4.2,5.8c2,1.2,4,1.3,6.1,0.4c0.7-0.3,1.3-0.7,1.8-1.2v-12C109.9,197.7,108.7,196.3,107.3,195.2z M107.9,209.9
			c-1.6,0.7-3.3-0.9-5-4.9c-1.6-3.8-1.6-6.1,0-6.8c1.6-0.7,3.2,0.9,4.9,4.7C109.5,206.9,109.5,209.2,107.9,209.9z M160.6,169.5
			l-3.4,1.4c-0.7,0.8-1.4,1.6-2,2.4l-1.5,1.7l0.3,0.7l0.5,0.6c0.6,0.7,1,1.2,1.1,1.5l0.2-0.6l0.5-0.4l0.8-0.8l0.2-0.6l0.9-0.9
			l2.7,6.3h4.6L160.6,169.5z M184.3,175.8l-6.4,2.8l0.5-0.9l0.4-0.6v-0.5c2-4.2,2.6-7.3,1.7-9.3c-0.8-1.8-1.9-2.9-3.4-3.1
			c-1.6-0.6-3.3-0.5-5.3,0.3c-2.1,0.9-3.7,2.3-4.8,4.2c0.5,0.6,1.3,1.4,2.3,2.3c0.4-0.6,0.8-1.1,1.1-1.6c0.6-0.7,1.3-1.2,2-1.5
			c1.9-0.8,3.1-0.3,3.9,1.4c0.4,0.9,0.4,2.1,0,3.7l-0.5,1l-0.5,1.3c-0.5,1.3-1.1,2.4-1.8,3.6l-0.5,1.5l-0.3,0.7h7.7l5.1-2.2
			L184.3,175.8z M198.5,168c-0.5-1.1-1.3-1.9-2.4-2.5c-0.9-0.5-2-0.5-3.1-0.2c1.7-1.9,2.1-3.7,1.4-5.4c-0.5-1.2-1.5-2-3-2.2
			c-1.3-0.5-2.8-0.3-4.6,0.5c-2.3,1-3.9,2.2-5,3.7c0.3,0.1,0.6,0.3,0.7,0.6l0.4,0.5l1.1,1.5l0.5-0.9l0.6-0.7l1.3-0.7l0.8-0.3
			c1.8-0.8,2.9-0.5,3.4,0.7c0.3,0.6,0.1,1.2-0.3,1.9l-1.8,1.4l-1.7,0.7l1.2,2.8l1.7-0.7c1-0.4,1.9-0.6,2.8-0.6
			c0.9,0.3,1.5,0.8,1.7,1.4c0.3,0.7,0.2,1.4-0.1,2c-0.6,0.8-1.2,1.4-2.1,1.8l-1.2,0.3l-1.2,0.3l-1.3,0.1h-0.9
			c0.2,1.2,0.4,2.4,0.6,3.5c1.7,0.1,3.6-0.2,5.7-1.1c1.8-0.8,3.3-1.9,4.7-3.5C199,170.9,199.1,169.3,198.5,168z M214.3,161.9
			L213,159l-2,0.9l-4.4-10.1l-5,2.2l-0.4,3.1l-0.2,1.6l-0.2,2.1l-0.2,1.6l-0.2,0.6l-0.1,0.7c-0.1,1.5-0.3,2.7-0.6,3.8l1.1,2.6
			l7.8-3.4l1.7,4l0.1,0l3.7-1.6l-1.7-4.1L214.3,161.9z M203.6,163.5L203.6,163.5L203.6,163.5L203.6,163.5l0.2-0.5l-0.1-0.6l0.1-1.3
			l0.4-1.3l0.1-1.2c0-0.6,0.1-1.2,0.1-1.8l-0.1-0.8l0.1-1.2l3,7L203.6,163.5z M265.2,138.2c-0.9-2-2.2-3.2-3.9-3.5
			c-1.7,0-3.4,0.4-5,1l-1.1,0.5l-0.1-0.6l-0.6-1.5l0.1-0.7l6.4-2.8l-1.5-3.5l-9.5,4.1c0.4,1,0.9,2.4,1.2,4.3l0.6,2.5l0.8,2.9
			l0.9-0.9l1.3-0.6c3.4-1.4,5.4-1.2,6.3,0.8c0.3,0.7,0.2,1.6-0.2,2.5c-0.6,0.7-1.3,1.2-2.2,1.6c-0.2,0.1-1,0.3-2.4,0.6
			c-1,0.2-1.6,0.2-1.9,0.3l0.1,0.6l0.2,1l0.3,0.7l-0.1,0.7c1.5,0.2,3.4-0.1,5.5-1c2-0.7,3.5-2.1,4.5-4
			C265.9,141.7,266,140.1,265.2,138.2z M280.5,131.4c-0.7-1.6-1.8-2.8-3.3-3.6c-1.8-0.3-3.1-0.2-4.2,0.3c-1.4,0.6-2.4,1.6-3.1,2.9
			l-0.2,0.1c-0.2-2.6,1.1-4.8,4-6.6l1.5-0.6l-1.3-3.1l-1.5,0.6c-2.5,1.2-4.5,3.1-5.8,5.5c-1.3,2.7-1.3,5.7,0.1,8.9
			c0.9,2.1,2.3,3.6,4.2,4.5c1.7,1,3.8,1,6,0c1.8-0.8,2.9-2,3.7-3.7C281.2,134.9,281.2,133.1,280.5,131.4z M277.1,136.3
			c-0.2,0.7-0.6,1.1-1.3,1.4c-0.8,0.3-1.6,0.3-2.4-0.1c-0.8-0.4-1.4-1.1-1.8-2.1l-0.4-1c0.2-1.3,0.9-2.1,2-2.6
			c0.8-0.3,1.5-0.3,2.2-0.1c0.7,0.3,1.3,0.8,1.6,1.7C277.3,134.6,277.4,135.5,277.1,136.3z M290,114l-12.3,5.3l1.5,3.5l8-3.4
			l-0.7,8.5L286,136l4.1-1.7c0.3-2.3,0.7-8.2,1.1-17.5L290,114z M310.4,119.9c-0.9-2.1-2.6-3.1-5-2.9l-0.1-0.2c1.3-1.4,1.6-3,1-4.8
			c-0.5-1.1-1.4-1.9-2.8-2.5c-1.4-0.5-3-0.2-4.8,0.6c-1.9,0.8-3.2,1.9-3.9,3.2c-0.7,1.5-0.8,2.8-0.2,4c0.8,1.8,2.2,2.8,4.2,2.7
			c-1.6,1.7-2,3.6-1.1,5.7c0.6,1.3,1.5,2.2,2.8,2.5c1.7,0.6,3.5,0.5,5.2-0.3c2.1-0.9,3.6-2.1,4.5-3.4
			C310.9,122.9,311,121.4,310.4,119.9z M300.2,117.2c-0.7-0.3-1.2-0.7-1.5-1.3c-0.2-0.4-0.2-0.9-0.2-1.5c0.2-0.7,0.6-1.1,1.4-1.5
			c1.2-0.5,2.2-0.1,2.7,1.2c0.3,0.6,0.3,1.2,0.2,1.9c-0.2,0.7-0.5,1-0.8,1.2C301.5,117.5,300.9,117.5,300.2,117.2z M306.5,123.9
			c-0.2,0.8-0.6,1.4-1.2,1.6c-0.8,0.3-1.5,0.3-2.3-0.1c-0.6-0.2-1-0.7-1.3-1.4c-0.2-0.5-0.3-1.1-0.2-1.9c0.2-0.9,0.5-1.5,1-1.7
			c0.5-0.2,1.2-0.1,2.2,0.4c0.7,0.3,1.2,0.8,1.5,1.5C306.6,123,306.7,123.5,306.5,123.9z M355.3,94.7c-0.9-2.2-2.3-3.8-4.1-4.8
			c-1.8-0.9-3.7-0.8-5.7,0c-2,0.9-3.3,2.1-4.1,3.9c-0.6,1.6-0.5,3.3,0.2,5.1c0.7,1.6,1.7,2.7,3.1,3.2c1.6,0.5,3.1,0.4,4.5-0.2
			c1.5-0.6,2.4-1.6,2.8-2.7c0.3,1.3,0,2.7-0.7,4c-0.7,1.1-1.6,2-2.9,2.5l-1.9,0.8l1.3,3.1l1.9-0.8c2.5-1.3,4.3-3.1,5.5-5.2
			C356.7,101,356.6,97.9,355.3,94.7z M349.4,99.1c-0.9,0.4-1.7,0.3-2.3-0.3c-0.6-0.3-1-0.9-1.3-1.6c-0.4-0.8-0.5-1.7-0.4-2.4
			c0.3-0.7,0.8-1.2,1.6-1.5c0.8-0.4,1.7-0.2,2.4,0.5l0.6,0.9l0.7,1.2l0.5,1.1C351.1,97.9,350.5,98.6,349.4,99.1z M363,82.6l-3.3,1.4
			l-2,2.1l-0.2,0.6l-0.5,0.4l-0.9,1l0.5,0.6l0.7,0.6l0.7,1.6c0.3-0.4,0.6-0.9,1.1-1.6l0.9-0.9l0.4-0.6l0.2-0.1l5.8,13.5l3.9-1.7
			L363,82.6z M387,88.9l-6.5,2.8l0.5-1l0.6-1.1c1.7-3.9,2.1-7,1.2-9.1c-0.7-1.7-1.8-2.8-3.1-3.2c-1.6-0.6-3.3-0.5-5.2,0.3
			c-2.3,1-3.9,2.4-5,4.3l0.6,0.4l0.7,0.5l0.7,0.6c0.2,0.4,0.3,0.6,0.5,0.6l0.7-1l0.6-0.7c0.7-0.6,1.3-1,1.9-1.3
			c1.9-0.8,3.1-0.4,3.8,1.2c0.5,1.1,0.4,2.4-0.1,3.8l-0.2,1l-0.5,1.3c-0.5,1.3-1.1,2.4-1.7,3.6l-0.5,1.5c-0.3,0.9-0.6,1.4-0.9,1.7
			l0.9,2.2l6.5-2.3l6-2.6L387,88.9z M401.1,80.9c-0.5-1.2-1.4-2-2.5-2.2c-1.1-0.6-2.2-0.7-3.2-0.4c1.8-1.6,2.3-3.4,1.5-5.2
			c-0.4-1-1.3-1.9-2.7-2.6c-1.4-0.5-3-0.2-5,0.6c-2.2,0.9-3.8,2.1-4.7,3.5l0.9,0.9l0.6,0.9l0.6,0.9l1.3-1.2c0.6-0.7,1.3-1.2,2-1.5
			c1.7-0.7,2.9-0.5,3.4,0.7c0.3,0.6,0.1,1.3-0.5,2c-0.6,0.7-1.2,1.2-1.8,1.4l-1.7,0.7l1.2,2.8l1.7-0.7c1.1-0.5,1.9-0.6,2.5-0.4
			c1,0.2,1.6,0.7,2,1.7c0.3,0.6,0.3,1.2-0.1,1.8c-0.3,0.6-1.1,1.1-2.2,1.6l-2.4,0.6l-0.6,0.1l-0.4,0.2l-1-0.2l0.3,1.8l0.3,1.7
			c1.4,0.5,3.2,0.1,5.6-0.9c2.2-1,3.7-2.2,4.6-3.8C401.5,83.9,401.6,82.3,401.1,80.9z"/>
	</g>
</g>
</svg>
