<?xml version="1.0" encoding="utf-8"?>
<!-- Generator: Adobe Illustrator 21.1.0, SVG Export Plug-In . SVG Version: 6.00 Build 0)  -->
<svg version="1.1" id="Layer_2" xmlns="http://www.w3.org/2000/svg" xmlns:xlink="http://www.w3.org/1999/xlink" x="0px" y="0px"
	 viewBox="0 0 660 512" style="enable-background:new 0 0 660 512;" xml:space="preserve">
<g>
	<g>
		<path d="M501.1,89.4c2.3,0,4-0.7,5.2-2c-0.3,1.9-1.4,3.5-3.1,4.8c-1.5,1.1-3.2,1.7-5.2,1.7h-2.9v4.8h2.9c4-0.3,7.4-1.6,10-3.7
			c3.2-3.1,4.9-7.1,4.9-12c0-3.4-0.9-6.3-2.6-8.5c-1.9-2.1-4.4-3.1-7.5-3.1c-3.1,0-5.5,0.9-7.5,2.8c-1.7,1.7-2.6,4-2.6,6.8
			c0,2.5,0.8,4.5,2.3,6C496.9,88.6,498.8,89.4,501.1,89.4z M500,77.7c0.8-0.8,1.7-1.1,2.9-1.1c1.3,0,2.3,0.7,2.9,2L506,80l0.3,2v1.7
			c-0.6,1.4-1.7,2-3.4,2c-1.4,0-2.3-0.6-2.9-1.7c-0.6-0.8-0.9-1.7-0.9-2.8C499.2,79.8,499.4,78.6,500,77.7z M79.9,99
			c3.5,0,6-1.4,7.7-4c1.7-2.3,2.6-5.6,2.6-10c0-4.2-0.8-7.4-2.3-9.7c-2.1-2.6-4.7-4-7.7-4c-3.2,0-5.7,1.4-7.5,4
			c-1.7,2.5-2.6,5.8-2.6,10c0,4.2,0.9,7.4,2.6,9.7C74.2,97.7,76.6,99,79.9,99z M80.2,76.8c2.5,0,3.7,3,3.7,8.8
			c0,6.1-1.3,9.1-3.7,9.1c-2.7,0-4-2.9-4-8.8C76.2,79.9,77.5,76.8,80.2,76.8z M518.6,77.4V80c0.6-0.3,1.4-0.9,2.3-1.4l1.7-0.6
			l0.9-0.6h0.3v20.8h6V71.7h-5.1l-3.7,1.7l-0.6,0.6l-0.9,0.3l-1.7,0.9l0.3,1.1L518.6,77.4z M577.2,96.8c2.1-1.9,3.1-3.9,3.1-6
			c0-1.9-0.7-3.3-2-4.3c-1.1-1.4-2.5-2.1-4-2.3c3.2-1.1,4.9-3.1,4.9-6c0-1.5-0.7-3.1-2-4.8c-1.5-1.4-3.8-2-6.9-2
			c-3.4,0-6.1,0.7-8.1,2l0.6,1.7l0.3,1.4l0.3,1.4l2.3-0.9c1.2-0.6,2.3-0.9,3.5-0.9c2.6,0,4,0.9,4,2.8c0,0.9-0.6,1.7-1.7,2.3
			c-1.2,0.6-2.2,0.9-3.1,0.9h-2.6v4.3h2.6c1.7,0,2.9,0.3,3.5,0.9c1.2,0.8,1.7,1.9,1.7,3.4c0,0.9-0.3,1.7-1.2,2.3
			c-0.8,0.6-2,0.9-3.7,0.9l-3.4-0.6l-0.9-0.3h-0.6l-1.2-0.9l-0.6,2.6l-0.6,2.3c1.5,1.4,4.1,2,7.7,2C572.5,99,575.1,98.3,577.2,96.8z
			 M125.9,99c3.1,0,5.5-1.4,7.5-4c1.5-2.5,2.3-5.8,2.3-10c0-3.8-0.8-7.1-2.3-9.7c-1.7-2.6-4.2-4-7.5-4c-3.2,0-5.9,1.4-7.7,4
			c-1.5,2.6-2.3,5.9-2.3,9.7c0,3.8,0.8,7.1,2.3,10C120,97.7,122.6,99,125.9,99z M125.9,76.8c2.5,0,3.7,3,3.7,8.8
			c0,6.1-1.3,9.1-3.7,9.1s-3.7-3.1-3.7-9.1C122.1,79.8,123.4,76.8,125.9,76.8z M420.5,91.3c0,2,0.8,3.7,2.3,4.8
			c2,1.7,4.3,2.6,6.9,2.6c3.2,0,5.9-0.7,7.7-2c1.9-1.7,2.9-3.7,2.9-6c0-3.2-1.6-5.4-4.8-6.5V84c2.5-1.1,3.8-3.1,4-5.7
			c0-1.7-0.8-3.3-2.3-4.8c-1.5-1.4-3.7-2-6.6-2s-5.2,0.7-6.9,2c-1.7,1.5-2.6,3.2-2.6,5.1c0,2.8,1.4,4.8,4,6
			C422,85.8,420.5,88.1,420.5,91.3z M427.9,77.1c0.6-0.8,1.4-1.1,2.6-1.1c1.9,0,2.9,1,2.9,3.1c0,0.9-0.3,1.8-0.9,2.6
			c-0.6,0.8-1.2,1.1-1.7,1.1c-0.8,0-1.5-0.3-2.3-1.1c-0.8-0.8-1.2-1.6-1.2-2.6C427.4,78.5,427.5,77.8,427.9,77.1z M427.6,88.8
			c0.8-1.1,1.5-1.7,2.3-1.7s1.6,0.6,2.6,1.7c0.8,0.8,1.1,1.7,1.1,2.8s-0.2,1.9-0.6,2.3c-0.8,0.9-1.6,1.4-2.6,1.4
			c-1.2,0-2.1-0.5-2.9-1.4c-0.6-0.6-0.9-1.4-0.9-2.6C426.8,90.6,427,89.7,427.6,88.8z M557.7,98.7v-5.4h-10l1.2-1.1l1.4-1.1
			c4.4-4.2,6.6-7.9,6.6-11.1c0-2.6-0.8-4.7-2.3-6c-1.7-1.7-4-2.6-6.9-2.6c-3.5,0-6.4,0.9-8.9,2.8l0.6,0.9l0.6,1.1l0.6,1.1
			c0,0.6,0.1,0.9,0.3,1.1l1.4-0.9l1.2-0.6c1.2-0.3,2.2-0.6,3.1-0.6c2.9,0,4.3,1.2,4.3,3.7c0,1.7-0.8,3.3-2.3,4.8l-0.9,1.1l-1.4,1.4
			c-1.4,1.4-2.7,2.6-4.3,3.7l-1.4,1.7c-0.9,0.9-1.6,1.5-2,1.7V98l9.8,0.6h9.3V98.7z M385.1,98.7c2.7,0,4.9-0.9,6.9-2.8
			c1.9-1.9,2.9-4.2,2.9-6.8c0-2.5-0.8-4.7-2.3-6.5c-2.1-1.4-4-2-5.7-2c-2.1,0-4,0.7-5.7,2h-0.3c1.2-3.6,4.1-5.7,8.9-6.3h2.3v-4.8
			h-2.3c-4,0.2-7.6,1.5-10.6,4c-3.2,2.8-4.8,6.7-4.8,11.7c0,3.2,0.9,6,2.9,8.3C379,97.6,381.7,98.7,385.1,98.7z M380.9,87.9
			c0.9-1.5,2.3-2.3,4-2.3c1.2,0,2.1,0.4,2.9,1.1c0.8,0.8,1.2,1.8,1.2,3.1c0,1.5-0.3,2.8-1.2,3.7c-0.6,0.8-1.4,1.1-2.6,1.1
			c-1.2,0-2.2-0.4-3.1-1.4c-0.8-0.9-1.2-2.2-1.2-3.7V87.9z M282.6,98.2h5.7v-6.3h3.1v-4.5h-3.1V71.7h-7.7l-2.3,3.7l-1.1,2l-1.4,2.6
			l-1.2,2l-0.6,0.6l-0.6,0.9c-0.9,1.9-2,3.4-2.9,4.6v4h12.1L282.6,98.2L282.6,98.2z M276.6,87.9l0.6-0.6l0.3-0.9l0.9-1.7l1.2-1.4
			l0.9-1.4c0.3-0.8,0.8-1.5,1.2-2.3l0.3-1.1l0.9-1.4v10.8L276.6,87.9L276.6,87.9z M259.6,92.8c-1.2,0.8-2.4,1.1-3.7,1.1l-1.7-0.3
			l-1.7-0.3l-1.7-0.6l-0.6-0.3l-0.6-0.3c-0.4,1.7-0.8,3.3-1.2,4.8c2.1,1.1,4.8,1.7,8.1,1.7c2.7,0,5.4-0.7,8.1-2
			c1.9-1.9,2.9-3.9,2.9-6c0-1.7-0.6-3.2-1.7-4.6c-0.9-1.1-2.3-1.8-4-2c3.2-1.5,4.8-3.7,4.8-6.3c0-1.9-0.9-3.4-2.6-4.5
			c-1.4-1.4-3.4-2-6.3-2c-3.5,0-6.3,0.7-8.6,2c0.3,0.3,0.6,0.8,0.6,1.1l0.3,0.9l0.6,2.6l1.2-0.9l1.1-0.6l2-0.3h1.2
			c2.7,0,4,0.9,4,2.8c0,0.9-0.5,1.7-1.4,2.3l-3.1,0.9h-2.6v4.3h2.6c1.5,0,2.9,0.3,4,0.9c0.9,0.9,1.4,1.9,1.4,2.8
			C260.8,91.3,260.4,92.2,259.6,92.8z M244.7,93h-10l1.2-0.9l0.9-0.6l0.3-0.6c5-4.3,7.5-8.1,7.5-11.1c0-2.8-0.9-4.8-2.6-6
			c-1.7-1.7-4.1-2.6-7.1-2.6c-3.2,0-6.1,0.9-8.6,2.8c0.3,1.1,0.9,2.6,1.7,4.3c0.9-0.6,1.7-1,2.3-1.4c1.2-0.6,2.3-0.9,3.5-0.9
			c2.9,0,4.3,1.4,4.3,4c0,1.4-0.7,3-2,4.8l-1.2,1.1l-1.4,1.4c-1.4,1.4-2.8,2.6-4.3,3.7l-1.4,1.7l-0.9,0.9l-0.9,0.9v3.4h19L244.7,93
			L244.7,93z M404.7,87.9l-5.2,10.3h6.3c1.7-2.8,5.4-10.3,11.2-22.2v-4.3h-19v5.4h12.3L404.7,87.9z M206,80l0.6-0.6l0.9-0.3l1.4-0.6
			l0.6-0.6l1.7-0.6v20.8h6V71.7H212c-1.4,0.6-2.7,1.3-4,2l-2.9,1.4v1.1l0.3,1.1C205.8,78.5,206,79.4,206,80z M140.7,94.7
			c1.9,2.8,4.4,4.2,7.5,4c3.5,0,6-1.2,7.5-3.7c1.9-2.3,2.9-5.6,2.9-10c0-3.8-0.8-7.1-2.3-9.7c-2.1-2.6-4.7-4-7.7-4
			c-3.2,0-5.9,1.4-7.7,4c-1.7,2.6-2.5,5.9-2.3,9.7C138.4,88.7,139.3,91.9,140.7,94.7z M148.6,76.8c2.5,0,3.7,3,3.7,8.8
			c0,6.1-1.3,9.1-3.7,9.1c-2.7,0-4-3.1-4-9.1C144.5,79.8,145.8,76.8,148.6,76.8z M367.9,95.9c2.1-1.5,3.1-3.7,3.1-6.5
			c0-3.1-1.1-5.4-3.1-6.8c-2.3-0.9-4.7-1.4-7.1-1.4h-1.7l0.3-0.9V78l0.6-0.9h10v-5.4h-14.6c0,1.5-0.3,3.7-0.9,6.3l-0.6,3.7l-0.6,4.3
			l1.7-0.6h2c5.2,0,7.7,1.5,7.7,4.5c0,1.1-0.6,2.2-1.7,3.1c-1.2,0.6-2.4,0.9-3.7,0.9c-0.3,0-1.5-0.2-3.4-0.6
			c-1.4-0.3-2.2-0.6-2.6-0.6l-0.3,0.9l-0.3,1.4V96l-0.6,0.9c1.9,1.1,4.5,1.7,7.7,1.7C362.9,98.7,365.6,97.8,367.9,95.9z M102.9,99
			c3.1,0,5.6-1.4,7.7-4c1.5-2.5,2.3-5.8,2.3-10c0-4.2-0.7-7.4-2-9.7c-2-2.6-4.5-4-7.7-4s-6,1.4-8.1,4c-1.5,2.6-2.3,5.9-2.3,9.7
			c0,3.8,0.8,7.1,2.3,10C97.2,97.7,99.8,99,102.9,99z M102.9,76.8c2.6,0,4,3,4,8.8c0,6.1-1.4,9.1-4,9.1c-2.5,0-3.7-3.1-3.7-9.1
			C99.2,79.8,100.4,76.8,102.9,76.8z M490.3,420.6c12.4,0,23.6-5.7,30.9-14.5c7.3,8.8,18.5,14.5,30.9,14.5
			c22.1,0,40.1-17.9,40.1-40.1c0-22.1-17.9-40.1-40.1-40.1c-12.4,0-23.6,5.7-30.9,14.5c-7.3-8.8-18.5-14.5-30.9-14.5
			c-22.1,0-40.1,17.9-40.1,40.1C450.2,402.6,468.1,420.6,490.3,420.6z M358.8,359.7H223V404h135.8V359.7z M177.7,359.7H87.2V404
			h90.5V359.7z M-0.1,0v511.5H0l0,0h660l0,0l0,0V0H-0.1z M632.8,484.3H27.2V208.9h605.6V484.3z M632.8,136.6H27.2V27.2h605.6V136.6z
			"/>
	</g>
</g>
</svg>
