<?xml version="1.0" encoding="utf-8"?>
<!-- Generator: Adobe Illustrator 22.0.1, SVG Export Plug-In . SVG Version: 6.00 Build 0)  -->
<svg version="1.1" id="Layer_1" xmlns="http://www.w3.org/2000/svg" xmlns:xlink="http://www.w3.org/1999/xlink" x="0px" y="0px"
	 viewBox="0 0 512 512" style="enable-background:new 0 0 512 512;" xml:space="preserve">
<g id="_x33_2">
	<path d="M162.8,17.3C67.5,54.5,0,147.3,0,255.9c0,25.8,3.8,50.8,11,74.4c-1.5-12.8-2.3-25.8-2.3-38.9
		C8.7,175.2,70.4,73.5,162.8,17.3z"/>
	<path d="M244.2,0c-12.3,0.5-24.2,2-35.9,4.2C96.4,51.6,17.7,162.4,17.7,291.3c0,28.6,3.9,56.4,11.2,82.8c4,7.7,8.4,15.2,13.1,22.3
		c-9-29.5-13.8-60.9-13.8-93.3C28.2,162.7,118.5,43.3,244.2,0z"/>
	<path d="M298.4,3.3c-7.8-1.3-15.6-2.3-23.7-2.8C138.5,33.7,37.2,156.8,37.2,303.1c0,41.7,8.2,81.6,23.2,118
		c13.9,16.5,29.9,31.2,47.5,43.6c-25.1-45.7-39.4-98.1-39.4-154C68.5,165.2,165.5,42.4,298.4,3.3z"/>
	<path d="M328.4,10.3c-3.4-1-6.9-2-10.3-2.8C180.5,39.6,77.6,163.4,77.6,310.8c0,60.7,17.4,117.4,47.6,165.3
		c3.7,2.2,7.5,4.3,11.3,6.3C108.2,434.6,92,379,92,319.5C92,171.7,192.2,47.2,328.4,10.3z"/>
	<path d="M344.3,15.6c-139,31.2-243.2,155.6-243.2,303.9c0,62.8,18.7,121.4,50.8,170.3c31.8,14.3,67,22.1,104,22.1
		c141.4,0,256-114.7,256-256.1C512,145.4,442.2,51.4,344.3,15.6z"/>
</g>
</svg>
