<?xml version="1.0" encoding="utf-8"?>
<!-- Generator: Adobe Illustrator 22.0.1, SVG Export Plug-In . SVG Version: 6.00 Build 0)  -->
<svg version="1.1" id="Layer_1" xmlns="http://www.w3.org/2000/svg" xmlns:xlink="http://www.w3.org/1999/xlink" x="0px" y="0px"
	 viewBox="0 0 512 512" style="enable-background:new 0 0 512 512;" xml:space="preserve">
<polygon points="369,318 369,166.6 165.6,370 512,370 512,402 401,402 401,512 369,512 369,402 133.6,402 23.6,512 0,512 0,490.4 
	117,373.4 117,142 0,142 0,110 117,110 117,0 149,0 149,341.4 348.4,142 194,142 194,110 380.4,110 490.4,0 512,0 512,23.6 
	401,134.6 401,318 "/>
</svg>
