<?xml version="1.0" encoding="utf-8"?>
<!-- Generator: Adobe Illustrator 21.1.0, SVG Export Plug-In . SVG Version: 6.00 Build 0)  -->
<svg version="1.1" id="Layer_2" xmlns="http://www.w3.org/2000/svg" xmlns:xlink="http://www.w3.org/1999/xlink" x="0px" y="0px"
	 viewBox="0 0 512 512" style="enable-background:new 0 0 512 512;" xml:space="preserve">
<path d="M239.7,0v60.8c-95.1,7.9-171,83.8-178.9,178.9H0v32.7h60.8c7.9,95.1,83.8,171.2,178.9,179.1V512h32.7v-60.6
	c95.1-7.9,171-84,178.9-179.1H512v-32.7h-60.7c-7.9-95.1-83.8-171-178.9-178.9V0H239.7z M239.3,93.4c0.1,0,0.2,0,0.3,0v59.1h32.7
	V93.4c77.3,7.7,138.6,68.9,146.2,146.2h-59v32.7h59.1c-7.6,77.4-68.9,138.6-146.2,146.2v-59.1h-32.7v59.1
	c-77.4-7.7-138.6-68.8-146.2-146.2h59v-32.7H93.4C101.1,162.5,162.2,101.2,239.3,93.4L239.3,93.4z M256,223.3
	c18.2,0,32.7,14.4,32.7,32.7c0,18.2-14.4,32.7-32.7,32.7s-32.7-14.4-32.7-32.7C223.3,237.8,237.8,223.3,256,223.3z"/>
</svg>
