<?xml version="1.0" encoding="utf-8"?>
<!-- Generator: Adobe Illustrator 21.1.0, SVG Export Plug-In . SVG Version: 6.00 Build 0)  -->
<svg version="1.1" id="Layer_1" xmlns="http://www.w3.org/2000/svg" xmlns:xlink="http://www.w3.org/1999/xlink" x="0px" y="0px"
	 viewBox="0 0 550 512" style="enable-background:new 0 0 550 512;" xml:space="preserve">
<g>
	<g>
		<path d="M472.8,447.6H69.9c-5,0-9.9,5-9.9,10s5,10,9.9,10h402.9c5,0,9.9-5,9.9-10S477.8,447.6,472.8,447.6z M139.2,110.4
			c-2.3,20.3-6.8,50.6-13.5,70.9c15.7,18,26.9,40.6,35.9,60.9c4.5-20.3,11.3-42.8,22.4-63.1c-13.5-18-24.7-48.3-33.7-68.6
			c11.3-4.5,18-13.5,18-24.8c0-15.7-11.3-27.1-26.9-27.1c-13.5,0-24.7,11.3-24.7,27.1C116.8,99.2,125.8,110.4,139.2,110.4z
			 M523.1,90.1c-13.5,0-24.7,13.5-24.7,27.1c0,4.5,0,6.8,2.3,11.3c-53.9,11.3-96.5,75.4-114.5,143c-6.8-78.9-47.2-154.3-101-174.6
			c9-4.5,15.7-13.5,15.7-24.8c0-15.8-11.3-27.1-24.7-27.1c-15.7,0-26.9,11.3-26.9,27.1c0,11.3,6.8,20.3,15.7,24.8
			c-53.9,20.3-94.3,95.6-101,174.6c-18-67.6-60.6-131.8-114.5-143c2.3-4.5,2.3-6.8,2.3-11.3c0-13.5-11.3-27.1-24.7-27.1
			C11.2,90.1,0,103.6,0,117.2c0,15.7,11.3,27.1,26.9,27.1c6.8,0,11.3-2.3,15.7-6.8c31.4,47.4,45.2,221.7,45.2,221.7s84.7,0,189,0
			c103,0,185.3,0,185.3,0s13.8-174.3,45.2-221.7c4.5,4.5,9,6.8,15.7,6.8c15.7,0,26.9-11.3,26.9-27.1
			C550,103.6,538.8,90.1,523.1,90.1z M108.6,315.8c-0.3-16.5-16-107.4-26.8-136.7c26,19.8,42.6,50,53.2,77.8
			c9.3,24.4,14.3,52.7,15.9,58.9C149.1,315.8,110.1,315.8,108.6,315.8z M183.6,315.8c1.4-14.5,2.2-49.2,8.9-77.3
			c10.9-45.5,37.1-103.6,82.9-120.7c41.3,17.7,67.5,64.4,80.9,117.9c5.8,23.5,8.7,56.3,10.2,80.1C362,315.8,190.5,315.8,183.6,315.8
			z M442.2,315.8c-2.1,0-42,0-43.7,0c2.3-9.5,7.3-27.1,13.8-49.3c9.3-31.9,29.6-68.1,55.2-86.8c0.1,0,0.1,0,0.2,0
			C457,210.8,441.8,294.6,442.2,315.8z M462.8,374.6H86.6l-15.1,58.8H478L462.8,374.6z M106.2,408.4c-3.3,0-5-1.6-5-3.3
			c0-3.3,1.6-5,5-5c1.6,0,3.3,1.6,3.3,5C109.5,406.8,107.9,408.4,106.2,408.4z M160.7,408.4c-1.6,0-5-1.6-5-3.3c0-3.3,3.3-5,5-5
			c1.6,0,5,1.6,5,5C165.7,406.8,162.4,408.4,160.7,408.4z M215.2,408.4c-1.6,0-3.3-1.6-3.3-3.3c0-3.3,1.6-5,3.3-5c3.3,0,5,1.6,5,5
			C220.2,406.8,218.5,408.4,215.2,408.4z M271.3,408.4c-3.3,0-5-1.6-5-3.3c0-3.3,1.6-5,5-5c1.6,0,3.3,1.6,3.3,5
			C274.7,406.8,273,408.4,271.3,408.4z M325.8,408.4c-1.6,0-5-1.6-5-3.3c0-3.3,3.3-5,5-5c1.6,0,5,1.6,5,5
			C330.8,406.8,327.5,408.4,325.8,408.4z M380.3,408.4c-1.6,0-3.3-1.6-3.3-3.3c0-3.3,1.6-5,3.3-5c3.3,0,5,1.6,5,5
			C385.3,406.8,383.6,408.4,380.3,408.4z M436.5,408.4c-3.3,0-5-1.6-5-3.3c0-3.3,1.6-5,5-5c1.6,0,3.3,1.6,3.3,5
			C439.8,406.8,438.1,408.4,436.5,408.4z M388.4,242.2c9-20.3,20.2-42.8,35.9-60.9c-6.8-20.3-11.3-50.6-13.5-70.9
			c13.5,0,22.4-11.3,22.4-24.8c0-15.7-11.3-27.1-24.7-27.1c-15.7,0-26.9,11.3-26.9,27.1c0,11.3,6.8,20.3,18,24.8
			c-9,20.3-20.2,50.6-33.7,68.6C377.1,199.4,383.9,221.9,388.4,242.2z M275.4,167.4c-5.6,0-10.2,4.6-10.2,10.2
			c0,5.6,4.6,10.2,10.2,10.2s10.2-4.6,10.2-10.2C285.6,172,281,167.4,275.4,167.4z"/>
	</g>
</g>
</svg>
