<?xml version="1.0" encoding="utf-8"?>
<!-- Generator: Adobe Illustrator 21.1.0, SVG Export Plug-In . SVG Version: 6.00 Build 0)  -->
<svg version="1.1" id="Layer_2" xmlns="http://www.w3.org/2000/svg" xmlns:xlink="http://www.w3.org/1999/xlink" x="0px" y="0px"
	 viewBox="0 0 524.6 512" style="enable-background:new 0 0 524.6 512;" xml:space="preserve">
<g>
	<path d="M523.7,344.2c0,26.8-17.3,48.1-41.4,56.8c-0.4,0.1-1.1,0.8-1.1,0.4c-8-94.3-52.9-177.3-106.3-236.6
		c5.2-16.1-0.5-37.4-0.5-37.4h59.2l0.4,0.4c0,0,44.5,29.2,69.7,98.7C528.8,296.1,524.9,324.3,523.7,344.2z M502.5,338.1
		c-6.9-96.2-42.6-154.5-77.2-186.9c0,0-0.3,0-0.3-0.3c0,0-18.2,0.4-22.3,0.4c0.5,2.1,0.4,7.5,0,9.3c43.6,39.6,92.6,139,97,195.7
		c0.1,0,1.4-1,1.4-1.5C502.3,350.4,503,345.4,502.5,338.1z M441.4,67.6c-2.9,3.3-5.6,6.9-8.9,9.6c-8.8,0.2-17.7,0-26.5,0.1
		c4-12.1,6.3-25.3,3.9-38.1c-1.4-8.1-4.4-15.8-8.6-22.5c12.1-6.4,24.4-13.3,37.7-15.3c7.7-1.2,16.5,0.4,21.8,7.4
		c5.1,6,4.6,15.6,2.2,22.9C458.5,45.5,450,56.9,441.4,67.6z M438.6,23.3c-2.3-0.6-7.1,1.8-10.2,2.6c0,2.3,1,7.4,1.1,12.6
		c0,5.8-1,11.8-1,13.2c1.5-1.1,3-2.3,4.6-3.8c2.5-2.3,9.3-9.3,10.3-13.4C445.1,26.8,442.9,24.4,438.6,23.3z M437.2,102.8
		c0,6.4-4.8,12.7-10.6,12.5c-13.5,0-27.1,0-40.6,0c5.6-8,10.6-16.6,14.9-25.5c8.6,0.1,17.1,0,25.7,0
		C432.5,89.8,437.5,96.1,437.2,102.8z M341.4,116.2c-1,1-2,2.5-3.5,2.3c-27.9,0-55.8,0-83.8,0c-22.6,0-45.2,0-67.8,0
		c-8.7-8.5-16.6-18-23.8-28.1c-6.8-9.8-13.3-20.5-15.9-32.7c-1.1-6.1-1.1-13,2-18.5c3.8-6.8,10.5-11,17.6-12.2
		c7.7-1.1,15.6,0,23.1,2.4c19.5,6,26.9,6.8,45.5,15.5c6.9,3,11.7-13.8,29.7-13.5c20,0.4,25,15.7,32.3,12.8
		c20.2-8.3,26.9-12.1,46.1-16.5c7.7-1.4,16-2,23.4,1.5c6.1,2.9,11.3,8.5,12.8,15.9c1.6,8.5-0.8,17.3-4.2,24.8
		C366.6,87.7,354.2,102.5,341.4,116.2z M340.6,57.6c-11.6-2.8-33.7,15.2-46.1,14.7c-13.6-0.6-16.5-13.6-30.6-13.7c-0.5,0-0.5,0-1,0
		c-14,0.1-16.8,13.2-30.2,13.7c-12.3,0.4-34.1-17.6-45.5-14.7c-4.2,1-6.4,3.5-4.7,10.9c1,4,5.7,9,8.1,11.3c6.6,6.1,11.9,8.5,18.1,11
		c0.7,0.3,1.4,0.8,2.5,0.7c28.7,0,65.4,0,105.3,0c1.1,0.1,1.8-0.4,2.5-0.7c6.2-2.5,11.6-4.9,18.3-11c2.5-2.3,7.2-7.2,8.2-11.3
		C347,61.3,344.8,58.7,340.6,57.6z M87.1,102.7c-0.3-6.7,4.7-13,10.6-13.1c8.5-0.1,17,0,25.6,0c4.3,8.9,9.3,17.5,14.8,25.5
		c-13.5,0-27,0-40.4,0C91.9,115.4,87.1,109.2,87.1,102.7z M118.2,77.2c-8.8-0.1-17.6,0.1-26.4-0.1c-3.3-2.7-5.9-6.3-8.8-9.6
		c-8.6-10.6-17-22-21.6-35.8c-2.4-7.3-2.9-16.9,2.2-22.9c5.3-7,14.1-8.6,21.7-7.4c13.3,2,25.4,8.8,37.5,15.3
		c-4.1,6.7-7.1,14.4-8.5,22.5C111.9,51.9,114.2,65.2,118.2,77.2z M85.8,23.3c-4.2,1-6.4,3.5-4.8,10.9c1,4,7.7,11.1,10.2,13.4
		c1.6,1.5,3.1,2.7,4.6,3.8c0-1.4-1-7.2-1-13.2c0-5.1,1-10.2,1-12.5C92.9,25.1,88.1,22.7,85.8,23.3z M90.5,127.7l0.4-0.4h58.9
		c0,0-5.7,21.2-0.5,37.3C96.1,223.9,51.4,306.8,43.4,401c0,0.4-0.7-0.3-1.1-0.4c-24-8.7-41.3-30-41.3-56.8
		c-1.2-19.9-5.1-48,20-117.5C46.2,157,90.5,127.7,90.5,127.7z M23.6,354.3c0,0.5,1.3,1.5,1.4,1.5c4.4-56.6,53.2-156,96.6-195.5
		c-0.4-1.8-0.5-7.2,0-9.3c-4.1,0-22.2-0.4-22.2-0.4c0,0.3-0.3,0.3-0.3,0.3C64.6,183.3,29,241.4,22.2,337.6
		C21.7,345.1,22.4,350,23.6,354.3z M325.7,162.9c-12.9,0-25.9,0-38.8,0c-31,0-62,0-92.9,0c-5.6,0.2-10.9-4.1-12.8-10
		c-2.8-8,1.6-18.1,9.2-20.2c1.2-0.3,2.4-0.5,3.6-0.4c24.8,0,49.6,0,74.4,0c21.2,0,42.3,0,63.5,0c5.8-0.1,11.2,4.7,12.7,10.9
		c1.8,6.7-1,14.7-6.6,17.9C334.1,163.5,329.7,162.8,325.7,162.9z M186,178.8l0.5-0.5h77.1h75.1l0.5,0.5c0,0,55.2,42.6,87.2,125.9
		c32,83.5,28.4,109.9,26.8,133.7c0,42.5-38.3,73.4-84.2,73.4c-59.3,0-199.6,0.2-199.6,0.2c-75.7,0-99-43.3-99-80.5
		c0-89.2,42.3-159.9,56.7-182.7C161.4,194.6,185.5,178.8,186,178.8z M166.1,487C163.1,486.8,167,487.1,166.1,487
		c7.4,0.5,189.1,0,186,0c46.2-5.9,77.2-13.1,74.2-55.9c-8.7-115.5-54-185.5-98-224.5c0,0-0.4,0-0.4-0.4h-64.4h-54.9
		c0,0-12,0-12.4,0.4c-50.4,46.2-89.9,120.3-99.1,215.1C93.9,456,100.4,480.4,166.1,487z"/>
</g>
</svg>
