<?xml version="1.0" encoding="utf-8"?>
<!-- Generator: Adobe Illustrator 21.1.0, SVG Export Plug-In . SVG Version: 6.00 Build 0)  -->
<svg version="1.1" id="Layer_2" xmlns="http://www.w3.org/2000/svg" xmlns:xlink="http://www.w3.org/1999/xlink" x="0px" y="0px"
	 viewBox="0 0 404 512" style="enable-background:new 0 0 404 512;" xml:space="preserve">
<g>
	<path d="M285.4,94.7c-1.1,1.1-2.1,2.6-3.7,2.4c-29.4,0-58.8,0-88.3,0c-23.8,0-47.6,0-71.4,0c-9.2-9-17.5-18.9-25.1-29.5
		c-7.2-10.3-14-21.5-16.7-34.3C79,26.9,79,19.7,82.3,13.9c4-7.2,11.1-11.6,18.5-12.7c8.1-1.2,16.4,0,24.3,2.5
		c20.5,6.3,28.3,7.2,47.9,16.2c7.3,3.2,12.3-14.4,31.3-14.1c21.1,0.4,26.3,16.4,34,13.4c21.3-8.7,28.3-12.6,48.6-17.3
		c8.1-1.5,16.9-2.1,24.6,1.6c6.4,3.1,11.9,9,13.5,16.6c1.7,9-0.8,18.1-4.4,26C311.9,64.8,298.9,80.4,285.4,94.7z M284.6,33.3
		c-12.2-2.9-35.5,15.9-48.6,15.4c-14.3-0.6-17.4-14.2-32.2-14.3c-0.5,0-0.5,0-1.1,0C188,34.5,185,48.1,170.9,48.7
		C158,49.1,135,30.2,123,33.3c-4.4,1.1-6.7,3.7-4.9,11.5c1.1,4.2,6,9.5,8.5,11.9c7,6.4,12.5,9,19.1,11.6c0.7,0.3,1.5,0.8,2.6,0.7
		c30.2,0,68.9,0,110.9,0c1.2,0.1,1.9-0.4,2.6-0.7c6.5-2.6,12.2-5.2,19.3-11.6c2.6-2.4,7.6-7.6,8.6-11.9
		C291.3,37.1,289,34.5,284.6,33.3z M268.9,143.7c-13.6,0-27.3,0-40.9,0c-32.6,0-65.3,0-97.8,0c-5.9,0.2-11.5-4.3-13.5-10.5
		c-2.9-8.4,1.7-19,9.7-21.2c1.3-0.3,2.5-0.5,3.8-0.4c26.1,0,52.2,0,78.4,0c22.3,0,44.5,0,66.9,0c6.1-0.1,11.8,4.9,13.4,11.5
		c1.9,7.1-1.1,15.4-7,18.7C277.7,144.3,273.1,143.6,268.9,143.7z M121.7,160.3l0.5-0.5h81.2h79.1l0.5,0.5c0,0,58.1,44.7,91.8,132.1
		c33.7,87.5,29.9,115.2,28.2,140.2c0,44.5-40.3,77-88.7,77c-62.5,0-101.9,1.3-101.9,1.3l-108.3-1.1C24.5,509.7,0,464.4,0,425.3
		c0-93.5,44.5-167.7,59.7-191.6C95.8,176.9,121.2,160.3,121.7,160.3z M100.8,483.5c-3.2-0.2-2.4-0.2,2.8,0.3
		C102.7,483.7,101.7,483.6,100.8,483.5c7.8,0.5,39.4,2.5,85.4,2.5c-7.5,0,53.6-0.7,77-1.3c13-0.5,36.8-1.3,33.5-1.3
		c48.7-6.2,81.3-13.7,78.1-58.7c-9.2-121.1-56.9-194.5-103.2-235.4c0,0-0.4,0-0.4-0.4h-67.8h-57.8c0,0-12.6,0-13.1,0.4
		C79.4,237.9,37.8,315.6,28.1,415.1C24.7,451,31.6,476.6,100.8,483.5z"/>
</g>
</svg>
