<?xml version="1.0" encoding="utf-8"?>
<!-- Generator: Adobe Illustrator 21.1.0, SVG Export Plug-In . SVG Version: 6.00 Build 0)  -->
<svg version="1.1" id="_x33_2" xmlns="http://www.w3.org/2000/svg" xmlns:xlink="http://www.w3.org/1999/xlink" x="0px" y="0px"
	 viewBox="0 0 630.2 512" style="enable-background:new 0 0 630.2 512;" xml:space="preserve">
<g>
	<rect x="333.6" y="124.1" width="59.2" height="32"/>
	<rect x="452" y="124.1" width="59.2" height="32"/>
	<rect x="333.6" y="479.8" width="59.2" height="32"/>
	<rect x="215.3" y="479.8" width="59.2" height="32"/>
	<rect x="452" y="479.8" width="59.2" height="32"/>
	<rect x="570.3" y="479.8" width="59.2" height="32"/>
	<polygon points="570.3,124.1 570.3,156.1 597.5,156.1 597.5,187 629.5,187 629.5,156.1 629.5,156.1 629.5,124.1 	"/>
	<rect x="597.5" y="246.5" width="32" height="59.2"/>
	<rect x="597.5" y="365.1" width="32" height="59.2"/>
	<rect x="96.2" y="355.1" width="32" height="59.2"/>
	<polygon points="128.3,449.1 96.3,449.1 96.3,480 96.2,480 96.2,512 155.4,512 155.4,480 128.3,480 	"/>
	<path d="M343.3-0.1c0,0-58.8,44.8-111.5,88.1c-23.1,19-53.8,53.3-62.2,62.7l-24.3-5.3l-43-9.7c0.1-0.4,0.2-1,0.3-1.4
		c3.3-23.5-16.7-45.8-44.7-49.7C30,80.6,4.7,96.4,1.5,119.9s16.7,45.8,44.7,49.7c23.8,3.4,45.6-7.6,53.6-25.4l46.5,10.4l13.3,19.3
		l-4.9,27.6l-29.2,34.8c-18.7-11.7-45.7-4.4-61.8,17.2c-17,22.8-15.6,52.9,3.1,67.1c18.7,14.3,47.6,7.4,64.6-15.4
		c15.6-21,15.7-48.1,1-63.4l19.3-23l26.5-30.8c11.2,2.6,56.8,12.8,87.1,14.7c67,4.3,139.8,6.3,141.2,6.3l-206.4-47.2L343.3-0.1z
		 M86.1,131.9c-2.2,15.8-19.2,26.5-38,23.8C29.3,153,15.8,138,18,122.2c2.2-15.8,19.2-26.5,38-23.8
		C74.9,101.1,88.3,116.1,86.1,131.9z M120.4,296.9c-11.4,15.4-31,20-43.5,10.4c-12.6-9.6-13.5-29.9-2.1-45.2
		c11.5-15.4,31-20,43.6-10.4C130.9,261.3,131.8,281.6,120.4,296.9z M187.1,174.8c-3.7,3.8-9.7,3.8-13.5,0c-3.7-3.8-3.7-9.9,0-13.7
		c3.7-3.8,9.7-3.8,13.5,0C190.9,165,190.9,171,187.1,174.8z"/>
</g>
</svg>
