<?xml version="1.0" encoding="utf-8"?>
<!-- Generator: Adobe Illustrator 21.1.0, SVG Export Plug-In . SVG Version: 6.00 Build 0)  -->
<svg version="1.1" id="Layer_2" xmlns="http://www.w3.org/2000/svg" xmlns:xlink="http://www.w3.org/1999/xlink" x="0px" y="0px"
	 viewBox="0 0 512 512" style="enable-background:new 0 0 512 512;" xml:space="preserve">
<style type="text/css">
	.st0{fill-rule:evenodd;clip-rule:evenodd;}
</style>
<g id="_x33_2">
	<g>
		<path class="st0" d="M408.9,229.5c-56.9,0-103,46.1-103,103c0,56.9,46.1,103,103,103s103-46.1,103-103
			C511.9,275.6,465.7,229.5,408.9,229.5z M408.9,403.4c-39.2,0-70.9-31.8-70.9-70.9c0-39.2,31.8-70.9,70.9-70.9
			c39.2,0,70.9,31.8,70.9,70.9C479.8,371.6,448,403.4,408.9,403.4z M103.1,306.2c-56.9,0-103,46.1-103,103c0,56.9,46.1,103,103,103
			s103-46.1,103-103C206.2,352.3,160,306.2,103.1,306.2z M103.1,480.1c-39.2,0-70.9-31.8-70.9-70.9c0-39.2,31.8-70.9,70.9-70.9
			c39.2,0,70.9,31.8,70.9,70.9C174.1,448.3,142.3,480.1,103.1,480.1z M281.4,103.1c28.4,0,51.4-23,51.4-51.4
			c0-28.4-23-51.4-51.4-51.4s-51.4,23-51.4,51.4C229.9,80.1,253,103.1,281.4,103.1z M44.5,184.4c35,2,73.6-73.7,108.9-112.4
			c4.9-5.4-16.2-13.6-35.9-19.1c-15.5-4.3-37.3-4-55,12c-25.9,23.3-55,63.1-55,82.5C7.4,167.8,24.1,183.2,44.5,184.4z M252.5,276.2
			c-3.5-12.4-21.7-17.7-35.2-23.1c-16-6.5-34.2-13.8-47-24.5c-2.2-1.9-3.6-4.5-3.8-7.4c-0.5-7.4,5.5-14.4,26.4-37.6
			c8.7-9.7,17.3-18,26-28.8c2.1-2.6,5.1-4.2,8.4-4.3c6.5-0.3,10.9,4.2,17.5,11.1c7.4,7.6,19.8,16.4,35.8,23.3
			c16.9,3.3,54,7.2,75.4,9.2c8.9,0.9,16.8-5.7,17.6-14.6v0c0.8-8.8-5.7-16.7-14.5-17.6c-18-1.8-46.6-5-62.1-8.8
			c-6.6-1.6-17.5-12.8-46.4-37.2c-2.1-1.8-30.7-28.2-42-35.4c-10.6-6.7-20.8-3.1-30.8,9.3l-0.2,0.2c-2.1,2.6-44.9,60.8-62,83.2
			c-26.6,34.8-29.4,47-29.4,50.7c0,27.5,27.7,38.2,44.2,42.2c9.5,2.3,57.3,22.3,77.6,31.4c8.1,3.6,17.9,15.8,35,68.1
			c1.5,4.7,6.9,20.3,11.3,33c3.4,9.8,14,15,23.8,11.7v0c9.8-3.3,15.1-14,11.8-23.8C278.5,352.4,254.4,281.1,252.5,276.2z"/>
	</g>
</g>
</svg>
