<?xml version="1.0" encoding="utf-8"?>
<!-- Generator: Adobe Illustrator 21.1.0, SVG Export Plug-In . SVG Version: 6.00 Build 0)  -->
<svg version="1.1" id="smile" xmlns="http://www.w3.org/2000/svg" xmlns:xlink="http://www.w3.org/1999/xlink" x="0px" y="0px"
	 viewBox="0 0 512 512" style="enable-background:new 0 0 512 512;" xml:space="preserve">
<style type="text/css">
	.st0{stroke:#000000;stroke-width:15;stroke-miterlimit:10;}
</style>
<g>
	<path d="M256,0C114.6,0,0,114.6,0,256s114.6,256,256,256s256-114.6,256-256S397.4,0,256,0z M256,480.1c-123.7,0-224-100.3-224-224
		S132.2,32,256,32s224,100.3,224,224S379.7,480.1,256,480.1z"/>
	<polygon points="204.2,200.2 232.9,171.5 207.8,146 179.1,175 150.4,146 124.9,171.5 153.9,200.2 124.9,228.9 150.5,253.9 
		179.1,225.3 207.8,254 232.9,228.8 	"/>
	<polygon points="361.3,200.2 390,171.5 364.9,146 336.2,175 307.5,146 282,171.5 311,200.2 282,228.9 307.5,253.9 336.2,225.3 
		364.8,254 390,228.8 	"/>
	<path class="st0" d="M144.7,347.3h120V373c0,23.6,19.2,42.9,42.9,42.9c23.7,0,42.9-19.2,42.9-42.9v-25.7h17.2v-17.2H144.7V347.3z
		 M333.1,373c0,14.2-11.5,25.7-25.7,25.7s-25.7-11.5-25.7-25.7v-25.7h51.4V373z"/>
</g>
</svg>
