<?xml version="1.0" encoding="utf-8"?>
<!-- Generator: Adobe Illustrator 21.1.0, SVG Export Plug-In . SVG Version: 6.00 Build 0)  -->
<svg version="1.1" id="Layer_2" xmlns="http://www.w3.org/2000/svg" xmlns:xlink="http://www.w3.org/1999/xlink" x="0px" y="0px"
	 viewBox="0 0 509 512" style="enable-background:new 0 0 509 512;" xml:space="preserve">
<path d="M413,0v27.6c-21.1,2.6-42.4,7.2-63.7,13.7H207V28.8c0-2.7-2.2-4.8-4.8-4.8h-35.3c-2.7,0-4.8,2.2-4.8,4.8v35.3
	c0,2.7,2.2,4.8,4.8,4.8h35.3c2.7,0,4.8-2.2,4.8-4.8V52.7h110.1C276,69,235.7,92.5,198.3,123H121v79c-29.8,38.2-52.5,79.3-67.9,121
	V204h12c2.7,0,4.8-2.2,4.8-4.8v-35.3c0-2.7-2.2-4.8-4.8-4.8H29.8c-2.7,0-4.8,2.2-4.8,4.8v35.3c0,2.7,2.2,4.8,4.8,4.8h12v145.1H44
	v1.9c-6.3,21.8-10.5,43.6-12.7,65.1H0v96h96v-96H64.1c7.6-67.5,35.8-136.6,83.7-197H217v-69.6c60-48.1,128.8-76.8,196-85V96h96V0
	H413z M38,172h19v19H38V172z M64,480H32v-32h32V480z M185,187h-32v-32h32V187z M194,56h-19V37h19V56z M477,63h-32V31h32V63z"/>
</svg>
