<?xml version="1.0" encoding="utf-8"?>
<!-- Generator: Adobe Illustrator 21.1.0, SVG Export Plug-In . SVG Version: 6.00 Build 0)  -->
<svg version="1.1" id="Layer_1" xmlns="http://www.w3.org/2000/svg" xmlns:xlink="http://www.w3.org/1999/xlink" x="0px" y="0px"
	 viewBox="0 0 550 512" style="enable-background:new 0 0 550 512;" xml:space="preserve">
<g>
	<path d="M329.2,213.5l-10.1-6.3c-4.6-2.9-10.6-0.9-12.6,4.5c-3.5,9.1-5.3,18.9-5.3,28.9c0,14.5,3.9,28.6,11.2,40.8
		c2.9,4.7,8.9,5.8,13,2.2l9-7.9c3.4-2.9,4.2-8.1,1.9-12.1c-3-5.3-6.3-13-6.3-21.9c0-6,1.4-12.1,3-17
		C334.4,220.5,332.8,215.8,329.2,213.5z M370.6,501.6h36.2c6.8,0,12.2-5.9,12.2-13v-3.3c0-7.2-5.5-13-12.2-13h-36.2
		c-6.8,0-12.2,5.9-12.2,13v3.3C358.3,495.7,363.8,501.6,370.6,501.6z M186.1,501.6h40.6c5.5,0,10.1-4.8,10.1-10.7v-8
		c0-5.9-4.6-10.7-10.1-10.7h-40.6c-5.5,0-10.1,4.7-10.1,10.7v8C176,496.7,180.6,501.6,186.1,501.6z M317.9,501.6
		c5.5,0,10.1-4.8,10.1-10.7v-8c0-5.9-4.6-10.7-10.1-10.7h-40.6c-5.5,0-10.1,4.8-10.1,10.7v8.4c0,5.7,4.3,10.2,9.6,10.2H317.9z
		 M415.8,178.8l-8.1-10.6c-1.9-2.5-4.7-3.9-7.8-3.9h-26.6c-6.5,0-13,0.9-19.2,2.7c-6,1.7-9.1,8.6-6.6,14.6l3.6,8.4
		c2,4.5,6.7,7.2,11.3,6.1c1.3-0.3,2.5-0.5,3.8-0.5l41.8,0.6C416.3,196.2,421.1,185.8,415.8,178.8z M449.4,476.5v14.4
		c0,4.7,3.8,8.4,8.3,7.9c8.7-1,22.1-2.9,29.1-5.8c9.8-3.9,19-9.5,27.3-16.6c3.5-2.9,3.8-8.4,0.7-11.7l-9.6-10.4
		c-2.7-2.9-7.1-3.1-10.1-0.6c-5.4,4.5-11.4,7.9-17.6,10.3c-5.7,2.3-15.2,3.8-21.6,4.5C452.2,469.1,449.4,472.5,449.4,476.5z
		 M459.4,320.2c13.4,1.5,25.6,6.9,35.8,15.9c3.6,3.1,8.8,2.8,12.1-0.6l7.1-7.3c4-4.1,3.8-10.9-0.5-14.7
		c-15-13.3-33.1-21.4-52.6-23.6c-5.4-0.6-10.3,3.9-10.3,9.8v10.5C451.2,315.3,454.7,319.6,459.4,320.2z M534.4,359.3l-9.6,3.9
		c-4.5,1.8-7,6.9-5.7,11.8c1.6,6.7,2.9,14.6,2.9,19.6c0,5.6-1.3,14-3,21c-1.2,4.6,0.9,9.5,4.9,11.7l8.9,4.6
		c5.2,2.7,11.4-0.2,13.1-6.1c2.9-10.1,4.5-20.6,4.5-31.3c0-9.8-1.3-19.4-3.8-28.7C545.3,360.2,539.6,357.2,534.4,359.3z
		 M369.3,285.7C369.2,285.7,369.2,285.7,369.3,285.7c-4.1-0.1-7.7,2.7-8.8,6.7l-3.3,12.3c-1.4,5.4,2,11,7.2,11.6
		c2.8,0.4,5.5,0.5,8.2,0.5h0.1H412c4.8,0,8.7-4.2,8.7-9.3l-0.1-11.7c0-4.9-3.8-9-8.5-9.1L369.3,285.7z"/>
	<path d="M114.3,511.9l-17.3-22c-7.6-9.9-27.5-36.2-47-66.4c-33.6-51.8-49.8-89.4-49.8-115c0-15.2,3-30.1,9-44
		c5.8-13.5,14.1-25.6,24.5-35.9c10.5-10.4,22.7-18.5,36.2-24.2c14.2-5.9,29-8.9,44.5-8.9c15.3,0,30.3,3,44.4,8.9
		c13.6,5.7,25.8,13.9,36.3,24.2c10.5,10.4,18.6,22.5,24.4,35.9c5.9,13.8,9,28.6,9.1,44c0,25.6-16.3,63.2-49.8,115
		c-22.6,34.9-45.6,64.6-47.6,67.1l0,0L114.3,511.9z M114.1,223.9c-11.5,0-22.7,2.2-33.2,6.7c-10.1,4.3-19.3,10.4-27.1,18.1
		c-7.8,7.7-14,16.8-18.4,26.9c-4.4,10.4-6.7,21.5-6.7,32.9c0,13.5,7.9,41.7,45.3,99.7c15.3,23.6,30.8,44.9,40.1,57.3
		c8.3-11,24.3-32.7,40.1-57.3c37.5-57.9,45.3-86.1,45.3-99.7c-0.1-11.6-2.3-22.7-6.7-33l0,0c-4.3-10-10.5-19.1-18.3-26.9
		c-7.8-7.7-16.9-13.9-27.2-18.1C136.9,226.2,125.7,223.9,114.1,223.9z"/>
	<path d="M114,371.2c-34.2,0-62-27.6-62-61.5c0-34,27.9-61.5,62-61.5c34.2,0,62,27.6,62,61.5C176.1,343.5,148.2,371.2,114,371.2z
		 M114,276.5c-18.4,0-33.3,14.8-33.3,33.1s15,33.1,33.3,33.1s33.3-14.8,33.3-33.1S132.5,276.5,114,276.5z"/>
	<path d="M483.2,51.7c-1.9,3.4-0.8,7.8,2.7,9.7c3.5,1.9,7.8,0.8,9.7-2.7c1.9-3.4,0.8-7.8-2.7-9.7C489.5,47.1,485.2,48.3,483.2,51.7z
		 M494.5,0c-30.5,0.1-55.1,25-54.9,55.4c0.1,25.3,17.2,46.5,40.4,52.9l14.8,76.8h0.7l14.1-76.8c23.4-6.5,40.4-28,40.3-53.4
		C549.7,24.5,524.9-0.1,494.5,0z M532.7,55.2c0.1,21-16.9,38.2-37.9,38.3c-21,0.1-38.2-16.9-38.3-37.9s16.9-38.2,37.9-38.3
		C515.5,17.3,532.6,34.2,532.7,55.2z M471.3,43c-6.2,10.9-2.8,21.9,0.6,26.9c1.4,1.7,7-1,4.3-6c-2.9-6.6-2.3-12.5,0.7-17.7
		c2.6-4.6,8-8.9,14.9-9.6c4.6,0,5.9-5.5,3-6.7C487.4,29.6,477.1,33.1,471.3,43z"/>
</g>
</svg>
