<?xml version="1.0" encoding="utf-8"?>
<!-- Generator: Adobe Illustrator 21.1.0, SVG Export Plug-In . SVG Version: 6.00 Build 0)  -->
<svg version="1.1" id="Layer_1" xmlns="http://www.w3.org/2000/svg" xmlns:xlink="http://www.w3.org/1999/xlink" x="0px" y="0px"
	 viewBox="0 0 550 512" style="enable-background:new 0 0 550 512;" xml:space="preserve">
<g>
	<path d="M480,195.9l-10.6-13.6c-4.7-6.1-16.9-22.4-28.9-41.1c-20.6-32.1-30.6-55.4-30.6-71.2c0-9.4,1.9-18.6,5.5-27.3
		c3.6-8.4,8.6-15.9,15-22.2c6.4-6.4,13.9-11.5,22.2-15c8.7-3.7,17.8-5.5,27.3-5.5c9.4,0,18.6,1.9,27.3,5.5c8.4,3.5,15.9,8.6,22.3,15
		c6.4,6.4,11.5,13.9,15,22.2c3.6,8.5,5.5,17.7,5.5,27.2c0,15.8-10,39.1-30.6,71.2c-13.9,21.6-28,40-29.2,41.5l0,0L480,195.9z
		 M479.9,17.6c-7.1,0-13.9,1.4-20.4,4.1c-6.2,2.6-11.8,6.4-16.6,11.2s-8.6,10.4-11.3,16.7c-2.7,6.4-4.1,13.3-4.1,20.4
		c0,8.4,4.8,25.8,27.8,61.7c9.4,14.7,18.9,27.8,24.7,35.4c5.1-6.8,14.9-20.2,24.6-35.4c23-35.8,27.8-53.3,27.8-61.7
		c0-7.1-1.4-14-4.1-20.4l0,0c-2.6-6.2-6.4-11.8-11.2-16.6s-10.4-8.6-16.7-11.2C493.9,19,487,17.6,479.9,17.6z"/>
	<path d="M479.9,108.7c-21,0-38.1-17.1-38.1-38.1s17.1-38.1,38.1-38.1S518,49.6,518,70.6S500.9,108.7,479.9,108.7z M479.9,50.2
		c-11.3,0-20.5,9.2-20.5,20.5s9.2,20.5,20.5,20.5s20.5-9.2,20.5-20.5S491.2,50.2,479.9,50.2z"/>
	<path d="M317.7,462.1V453c0-10.4-8.4-18.8-18.8-18.8h-24.7c-10.4,0-18.8,8.4-18.8,18.8v9.2c0,10.4,8.4,18.8,18.8,18.8H299
		C309.4,480.9,317.7,472.5,317.7,462.1z M184.4,480.9h27c7.1,0,12.8-5.8,12.8-12.8V447c0-7.1-5.8-12.8-12.8-12.8h-14.7
		c-4.6,0-8.8,2.4-11.1,6.3l-12.4,21.1C168.4,470.1,174.5,480.9,184.4,480.9z M364.3,223.4h29.4c12.7,0,21.8-12.4,18-24.6l-2.8-9
		c-2.5-7.9-9.7-13.2-18-13.2h-26.6c-2,0-4,0.1-6,0.3c-13.1,1.1-21.2,14.8-15.8,26.7l4,8.8c3.1,6.9,10.1,11.1,17.6,11
		C364.3,223.4,364.3,223.4,364.3,223.4z M331.9,231.4l-19.8-11.5c-6.7-3.8-15.2-0.7-17.7,6.5c-2.6,7.6-3.9,15.8-3.9,23.9
		c0,12.5,3.2,24.7,9.2,35.7c3.7,6.8,12.6,8.3,18.6,3.4l17.4-14.8c4-3.4,5.5-9,3.5-13.9c-1.2-2.8-2-6.3-2-10.4c0-2,0.2-4.1,0.6-6
		C338.8,239.3,336.3,234.1,331.9,231.4z M368.5,480.9h23.2c10.8,0,19.5-8.7,19.5-19.5v-7.6c0-10.8-8.7-19.5-19.5-19.5h-23.2
		c-10.8,0-19.5,8.7-19.5,19.5v7.6C348.9,472.2,357.7,480.9,368.5,480.9z M458.7,325.9c5.2,1.4,10.2,3.4,14.8,6.2
		c7.1,4.3,16.1,3.2,22-2.6l7.8-7.7c8.2-8.1,6.9-21.6-2.7-28c-10.3-6.7-21.6-11.5-33.6-14.1c-11.2-2.5-21.8,6.1-21.8,17.6v10.9
		C445.1,316.7,450.7,323.8,458.7,325.9z M527.1,346.3l-21.1,8.4c-5.4,2.2-8.4,8-7.3,13.7c0.7,3.5,1,7.1,1,10.8
		c0,4.3-0.5,8.6-1.5,12.7c-1.4,5.6,1.6,11.4,7,13.7l20.9,9.2c6.7,2.9,14.5-0.7,16.5-7.8c2.6-9,3.8-18.3,3.8-27.8
		c0-8.4-1-16.7-3-24.7C541.5,347.5,533.9,343.6,527.1,346.3z M442.4,443.4v26.4c0,6,5.2,10.6,11.2,9.9c8.5-1,19.9-2.7,26.2-4.9
		c9.6-3.5,18.7-8.4,26.9-14.8c4.8-3.7,5.4-10.5,1.3-14.9l-18.6-19.6c-3.4-3.6-9-4.1-13-1.3c-5.3,3.7-11.1,6.3-17.2,8
		c-1.8,0.5-4.8,0.8-7.7,1.2C446.3,434,442.4,438.3,442.4,443.4z M354.7,288.2l-4.5,17.5c-2.4,9.3,4.5,18.5,14.1,18.5
		c0.1,0,0.1,0,0.2,0H399c8.2,0,14.9-6.7,14.9-14.9v-17c0-8.2-6.6-14.9-14.8-14.9c-9.3-0.1-21.1-0.2-29.7-0.4
		C362.6,276.8,356.4,281.5,354.7,288.2z"/>
	<path d="M96.9,249c-8.2,0-13.7,7-13.7,13.7c0,8,6.8,13.7,13.7,13.7c8,0,13.7-6.7,13.7-13.7C110.6,255.5,105.2,249,96.9,249z
		 M105.4,226.2c3.6-0.8,8.4-9.1,2.1-12.5c-13-1.5-34.9,6.5-45.2,25.2l0,0c-8.7,15-8.8,33.5,0.1,50.3c2.2,5.1,12.8,1,10.5-7.5
		c-0.1-0.2-10.4-17.4,0.2-36.8C86.2,226.5,96.3,228.3,105.4,226.2z M106.7,156.1C47.9,156.3,0.4,204.2,0.7,263
		c0.2,48.8,33.2,89.8,78.1,102.2l27.9,144.9h2.5l26.6-145c33.2-9.2,59.9-34.2,71.6-66.3c0-0.1,0-0.1,0.1-0.2c0.5-1.5,1-2.9,1.5-4.4
		l0,0c0.3-0.8,0.5-1.6,0.8-2.5s0.5-1.8,0.8-2.8c0.4-1.3,0.7-2.7,1-4c1.6-7.3,2.4-15,2.3-22.8C213.4,203.3,165.5,155.8,106.7,156.1z
		 M107.5,336.3c-40.5,0.2-73.6-32.5-73.8-73.1c-0.2-40.5,32.5-73.6,73.1-73.8c40.5-0.2,73.6,32.5,73.8,73.1
		C180.8,303.1,148.1,336.1,107.5,336.3z"/>
</g>
</svg>
