<?xml version="1.0" encoding="utf-8"?>
<!-- Generator: Adobe Illustrator 21.1.0, SVG Export Plug-In . SVG Version: 6.00 Build 0)  -->
<svg version="1.1" id="Layer_1" xmlns="http://www.w3.org/2000/svg" xmlns:xlink="http://www.w3.org/1999/xlink" x="0px" y="0px"
	 viewBox="0 0 550 512" style="enable-background:new 0 0 550 512;" xml:space="preserve">
<style type="text/css">
	.st0{fill:#070707;}
</style>
<path class="st0" d="M541.8,185.9c-5.1-4.7-14.2-7-27.5-7H385.4c-13.2,0-22.4,2.3-27.5,7c-5.5,5.7-8.2,14.8-8.2,27.2v223.5
	c0,12.4,2.8,21.3,8.2,26.7c5.4,5.4,14.6,8.1,27.5,8.1h128.9c13.2,0,22.4-2.7,27.5-8.1c5.5-5.1,8.2-13.9,8.2-26.7V213.1
	C550,200.3,547.2,191.3,541.8,185.9z M449.5,469.4c-10.5,0-19-8.5-19-19s8.5-19,19-19s19,8.5,19,19S460,469.4,449.5,469.4z
	 M520.9,419c0,2.6-0.9,5-2.6,7c-1.7,1.7-4,2.5-7.1,2.5H388.4c-2.7,0-5.1-0.8-7.1-2.5c-1.8-2-2.6-4.3-2.6-7V219.7c0-2.6,0.9-5,2.6-7
	c1.7-1.7,4-2.5,7.1-2.5h122.8c3,0,5.4,0.8,7.1,2.5c1.7,2,2.6,4.3,2.6,7L520.9,419L520.9,419z M430.2,64.1H35.6
	C16,64.1,0,80.1,0,99.7v271.5c0,19.7,16,35.6,35.6,35.6h180.8L184,439.7H142c-3.6,0-6.5,2.9-6.5,6.5l-0.1,13.1h195.3l-0.1-13.1
	c0-3.6-2.9-6.5-6.5-6.5H282l-33.1-32.8h74.5v-38.3h-280c-3.1,0-5.8-1.1-8.2-3.5c-2.4-2.3-3.6-5-3.6-8V109.9c0-3.4,1.2-6.2,3.6-8.6
	c2.8-2,5.5-3,8.2-3h377.6c3.4,0,6.3,1,8.7,3c2.4,2.4,3.6,5.2,3.6,8.6v46.4h32.6l0.1-56.5C465.9,80.1,449.9,64.1,430.2,64.1z"/>
</svg>
