<?xml version="1.0" encoding="utf-8"?>
<!-- Generator: Adobe Illustrator 21.1.0, SVG Export Plug-In . SVG Version: 6.00 Build 0)  -->
<svg version="1.1" id="Layer_1" xmlns="http://www.w3.org/2000/svg" xmlns:xlink="http://www.w3.org/1999/xlink" x="0px" y="0px"
	 viewBox="0 0 512 512" style="enable-background:new 0 0 512 512;" xml:space="preserve">
<g id="_x33_2">
	<path d="M417.1,240.3h-71.7c0.9,5.1,1.3,10.3,1.3,15.6c0,5.6-0.5,11.1-1.5,16.4H417c0.6-5.4,0.8-10.9,0.8-16.4
		C417.8,250.6,417.6,245.4,417.1,240.3z M330.2,308.2c-2.9,4.2-6.3,8.2-10.1,11.9c-4,4-8.2,7.5-12.7,10.6l50.7,50.7
		c4.2-3.4,8.3-7.1,12.2-11c3.7-3.7,7.2-7.5,10.5-11.5L330.2,308.2z M255.8,184c-39.7,0-71.9,32.2-71.9,71.9s32.2,71.9,71.9,71.9
		s71.9-32.2,71.9-71.9S295.5,184,255.8,184z M255.8,295.8c-22.1,0-40-17.9-40-40c0-22.1,17.9-40,40-40c22.1,0,40,17.9,40,40
		C295.8,277.9,277.9,295.8,255.8,295.8z M255.8,346.7c-5.4,0-10.7-0.5-15.8-1.4V417c5.2,0.5,10.5,0.8,15.8,0.8
		c5.4,0,10.8-0.3,16.2-0.8v-71.7C266.8,346.2,261.4,346.7,255.8,346.7z M191.6,320.1c-3.8-3.8-7.2-7.9-10.2-12.2l-50.7,50.7
		c3.3,4,6.9,8,10.7,11.7c3.8,3.8,7.9,7.5,12,10.9l50.7-50.7C199.7,327.5,195.5,324,191.6,320.1z M165,255.8c0-5.3,0.4-10.5,1.3-15.6
		H94.6c-0.5,5.1-0.7,10.3-0.7,15.6c0,5.5,0.3,11,0.8,16.4h71.8C165.5,267,165,261.5,165,255.8z M152.8,130.8
		c-4,3.3-7.8,6.8-11.5,10.5c-3.9,3.9-7.6,8-11,12.2l50.7,50.7c3.1-4.5,6.6-8.7,10.6-12.7c3.8-3.8,7.7-7.1,11.9-10.1L152.8,130.8z
		 M255.8,93.9c-5.3,0-10.6,0.3-15.8,0.8v71.7c5.1-0.9,10.4-1.4,15.8-1.4c5.5,0,10.9,0.5,16.2,1.4V94.7
		C266.7,94.1,261.3,93.9,255.8,93.9z M370.4,141.3c-3.8-3.8-7.7-7.3-11.7-10.7l-50.7,50.7c4.3,3,8.4,6.4,12.2,10.2
		c3.9,3.9,7.4,8.1,10.4,12.4l50.7-50.7C377.8,149.2,374.2,145.2,370.4,141.3z"/>
	<path d="M492.2,232.7c-2.4,4.1-6.8,6.8-11.8,6.8c-5.2,0-9.7-2.9-12-7.1c-0.2,0-0.4,0-0.6,0c-4.5-41.2-20.7-78.8-45.3-109.5
		c0.1-0.1,0.2-0.2,0.3-0.3c-1.4-4.7-0.2-9.9,3.5-13.6c3.6-3.6,8.6-4.8,13.2-3.6c6.6-9.2,5.7-22.1-2.6-30.4
		c-8.3-8.3-21.2-9.1-30.4-2.6c1.2,4.6,0,9.6-3.6,13.2c-3.7,3.7-8.9,4.8-13.5,3.5c-0.1,0.1-0.2,0.2-0.3,0.3
		C358.3,64.8,320.7,48.5,279.5,44c0-0.1,0-0.3,0-0.4c-4.3-2.3-7.1-6.9-7.1-12.1c0-5.1,2.7-9.5,6.8-11.9C277.3,8.5,267.6,0,255.8,0
		c-11.7,0-21.4,8.5-23.3,19.7c4.1,2.4,6.8,6.8,6.8,11.8c0,5.2-2.9,9.7-7.1,12c0,0.1,0,0.3,0,0.4c-41.2,4.5-78.8,20.8-109.5,45.4
		c-0.1-0.1-0.2-0.2-0.3-0.3c-4.7,1.4-9.9,0.2-13.6-3.5c-3.6-3.6-4.8-8.6-3.6-13.2C96,65.8,83.1,66.7,74.8,75
		c-8.3,8.3-9.1,21.2-2.6,30.4c4.6-1.2,9.6,0,13.2,3.6c3.7,3.7,4.8,8.9,3.5,13.5c0.1,0.1,0.2,0.2,0.3,0.3
		C64.7,153.6,48.5,191.2,44,232.4c-0.2,0-0.4,0-0.5,0c-2.3,4.3-6.9,7.1-12.1,7.1c-5.1,0-9.5-2.7-11.9-6.8
		C8.3,234.6-0.2,244.3-0.2,256c0,11.7,8.5,21.4,19.7,23.3c2.4-4.1,6.8-6.8,11.8-6.8c5.2,0,9.7,2.9,12,7.1c0.2,0,0.4,0,0.6,0
		c4.6,41.1,20.8,78.7,45.4,109.4c-0.2,0.2-0.3,0.3-0.5,0.5c1.4,4.7,0.2,9.9-3.5,13.6c-3.6,3.6-8.6,4.8-13.2,3.6
		c-6.6,9.2-5.7,22.1,2.6,30.4c8.3,8.3,21.2,9.1,30.4,2.6c-1.2-4.6,0-9.6,3.6-13.2c3.7-3.7,8.9-4.8,13.5-3.5c0.2-0.2,0.3-0.3,0.5-0.5
		c30.7,24.5,68.2,40.7,109.4,45.3c0,0.2,0,0.5,0,0.7c4.3,2.3,7.1,6.9,7.1,12.1c0,5.1-2.7,9.5-6.8,11.9c1.9,11.2,11.6,19.7,23.3,19.7
		c11.7,0,21.4-8.5,23.3-19.7c-4.1-2.4-6.8-6.8-6.8-11.8c0-5.2,2.9-9.7,7.1-12c0-0.2,0-0.5,0-0.7c41.1-4.5,78.7-20.8,109.4-45.3
		c0.2,0.2,0.3,0.3,0.5,0.5c4.7-1.4,9.9-0.2,13.6,3.5c3.6,3.6,4.8,8.6,3.6,13.2c9.2,6.6,22.1,5.7,30.4-2.6c8.3-8.3,9.1-21.2,2.6-30.4
		c-4.6,1.2-9.6,0-13.2-3.6c-3.7-3.7-4.8-8.9-3.5-13.5c-0.2-0.2-0.3-0.3-0.5-0.5c24.6-30.7,40.8-68.2,45.4-109.4c0.2,0,0.4,0,0.6,0
		c2.3-4.3,6.9-7.1,12.1-7.1c5.1,0,9.5,2.7,11.9,6.8c11.2-1.9,19.7-11.6,19.7-23.3C511.8,244.3,503.3,234.6,492.2,232.7z
		 M255.8,436.8c-99.9,0-180.9-81-180.9-180.9s81-180.9,180.9-180.9s180.9,81,180.9,180.9S355.8,436.8,255.8,436.8z"/>
</g>
</svg>
