<?xml version="1.0" encoding="utf-8"?>
<!-- Generator: Adobe Illustrator 21.1.0, SVG Export Plug-In . SVG Version: 6.00 Build 0)  -->
<svg version="1.1" id="Layer_4" xmlns="http://www.w3.org/2000/svg" xmlns:xlink="http://www.w3.org/1999/xlink" x="0px" y="0px"
	 viewBox="0 0 512 512" style="enable-background:new 0 0 512 512;" xml:space="preserve">
<path id="_x33_2_1_" d="M512,196.4L412,0.5H99.3L0,196.1l256.3,315.7L512,196.4L512,196.4z M101.6,58.5l19.9,106H47.8L101.6,58.5z
	 M463.5,164.5h-71.9l19.2-103.9L463.5,164.5z M164.5,196.5h182.4l0,0l-89.8,276.4L164.5,196.5L164.5,196.5z M166.8,164.5l67-132
	h44.5l67,132H166.8z M256.4,497.2l121.7-300.7l97.5-0.3L256.4,497.2L256.4,497.2z M388.9,32.5l-21.1,114.2l-58-114.2H388.9z
	 M145.4,144.7L124.2,32.5h78.1L145.4,144.7z M36.5,196.5L36.5,196.5h0.6l96.1,0.3l123,300.4L37.1,196.5H36.5z"/>
</svg>
