<?xml version="1.0" encoding="utf-8"?>
<!-- Generator: Adobe Illustrator 21.1.0, SVG Export Plug-In . SVG Version: 6.00 Build 0)  -->
<svg version="1.1" id="_x33_2" xmlns="http://www.w3.org/2000/svg" xmlns:xlink="http://www.w3.org/1999/xlink" x="0px" y="0px"
	 viewBox="0 0 512 512" style="enable-background:new 0 0 512 512;" xml:space="preserve">
<g>
	<path d="M32,153.1l189.3,78.4v236L32,360.9V153.1 M13.9,112C6.7,112,0,117.7,0,125.6v246.1c0,4.8,2.6,9.3,6.8,11.7l223.3,125.8
		c3.2,1.8,6.2,2.7,8.9,2.7c8.4,0,14.3-7.9,14.3-19V222.5c0-6.7-3.6-12.9-9.4-16.3L21,113.9C18.7,112.6,16.3,112,13.9,112L13.9,112z"
		/>
</g>
<g>
	<path d="M480,153.1v208L290.7,467.7V231.5L480,153.1 M498,112c-2.4,0-4.8,0.6-7,1.9l-222.8,92.3c-5.9,3.4-9.5,9.6-9.5,16.3v270.6
		c0,11,5.9,18.9,14.3,18.9c2.7,0,5.7-0.8,8.9-2.6l223.3-125.8c4.2-2.5,6.8-6.9,6.8-11.7V125.6C512,117.7,505.3,112,498,112L498,112z
		"/>
</g>
<g>
	<path d="M253.7,33l172.7,68.6L256,172.8L85.1,101.3L253.7,33 M253.7,0c-2.4,0-4.9,0.4-7.1,1.4L21.4,92.6
		c-9.2,3.7-9.3,12.9-0.2,16.7l224.8,94c3.1,1.3,6.5,2,9.9,2s6.9-0.6,9.9-2l224.9-93.9c9.1-3.8,9-13.1-0.3-16.8l-230-91.3
		C258.4,0.5,256,0,253.7,0L253.7,0z"/>
</g>
<ellipse transform="matrix(0.8354 -0.5496 0.5496 0.8354 -115.389 86.9074)" cx="87.4" cy="236.1" rx="23.5" ry="34.4"/>
<ellipse transform="matrix(0.8354 -0.5496 0.5496 0.8354 -145.8648 119.6309)" cx="126.8" cy="303.4" rx="23.5" ry="34.4"/>
<ellipse transform="matrix(0.8354 -0.5496 0.5496 0.8354 -175.7441 152.5953)" cx="166.9" cy="369.8" rx="23.5" ry="34.4"/>
<ellipse transform="matrix(0.5 -0.866 0.866 0.5 -130.5265 482.7374)" cx="352.8" cy="354.4" rx="34.4" ry="23.5"/>
<ellipse transform="matrix(0.5 -0.866 0.866 0.5 -12.1152 483.8723)" cx="413" cy="252.4" rx="34.4" ry="23.5"/>
<ellipse cx="255" cy="97.4" rx="33.1" ry="15.4"/>
</svg>
