<?xml version="1.0" encoding="utf-8"?>
<!-- Generator: Adobe Illustrator 22.0.1, SVG Export Plug-In . SVG Version: 6.00 Build 0)  -->
<svg version="1.1" id="Layer_2" xmlns="http://www.w3.org/2000/svg" xmlns:xlink="http://www.w3.org/1999/xlink" x="0px" y="0px"
	 viewBox="0 0 512 512" style="enable-background:new 0 0 512 512;" xml:space="preserve">
<style type="text/css">
	.st0{fill:#020000;}
</style>
<g id="_x33_2">
	<path d="M512,492.4c-1.1-73.5-47-133-103.6-133c-9.6,0-18.8,1.7-27.6,4.9c-14.5-14.7-32.4-28.4-52.5-40.1c-1.8-1-3.6-1.5-5.2-1.5
		c-1.8,0-3.3,0.6-3.9,1.9L306.7,348l-69.1-38.2c0.4-2.2,0.4-4.4,0-6.7c-3.2-20-8-49.4-9.7-58.8c-0.6-2.7,0.6-10.8,1.3-17.6
		c2.6-28.4,17.1-76.5-22.8-102.9l-38.6-19c-43.1-19-51.4-16.3-69.9-6.9c-11.3,5.8-71.7,80.6-93.2,106.3c-7.4,8.9-5.9,22.6,3.3,29.5
		l1.9,1.4c8.1,6,19.1,4.4,25.4-3.6c1.5-1.8,3.2-4,5.2-6.5l39,21.6c-8.3,23.1-12.7,46.6-5.7,94.6c1.9,12.2,3.9,28.4,3.2,34.5
		C67.9,395.3,43,453.3,28.6,487c-5.1,11.9,3.6,25,16.5,25h3.2c7.2,0,13.7-4.3,16.5-10.9c10.2-23.9,34.3-80.2,43.8-99.7
		c6.4-14.2,14.1-42.9,11.5-64.6c13.5,17.6,27.1,49.7,32.3,61.2c1.4,9.3-2.8,64.6-5.2,94.8c-0.9,10.5,7.5,19.5,18.1,19.4
		c4.8,0,9.1-2,12.3-5.1c3.2-3.1,5.2-7.4,5.4-12.2c1.3-35.8,4.1-115.9,2.1-120.6c-3.2-7.5-12.5-51.8-38.8-82.9c0.2-0.6,0.9-3.1,2-7
		l53.1,29.4c3.3,8.5,11.8,13.8,20.7,12.2c0.3-0.1,0.6-0.1,0.9-0.2l73.7,40.8l-14.5,27.2c-0.1,0.2-0.2,0.3-0.3,0.5
		c-1.2,3.1,1.1,7.2,5.2,9.5c11.9,6.6,23.7,12.1,35,16.3c-4,7.8-7.4,16.3-10,25.1c-36.8-5.1-64.7,27.1-70.9,66.8H512
		C512,512,512.1,498.9,512,492.4z M54,208.2c21.7-27.1,51.4-63.6,55.1-66.8c4.6-4.8,7.2-9,15.1-4.6c-12.5,15.1-33.3,79.6-36.8,89.9
		L54,208.2z M154.5,263.8c8.5-26.4,23.2-64.8,41.5-84.1c0,5.4-3.8,36.8-4.4,42.2c-1.3,12.2-1.9,22.3-0.6,31.8
		c0.4,2.3,2.9,17.3,5.5,33.3L154.5,263.8z M337.2,396.6c-7.5-2.5-14.7-5.4-21.3-8.5l17.4-37c7.1,4.6,17.9,13.3,28.1,23.1
		C352.4,380.2,344.3,387.7,337.2,396.6z"/>
	<g>
		<path class="st0" d="M211.5,0C183.6,0,161,22.6,161,50.5s22.6,50.5,50.5,50.5S262,78.4,262,50.5S239.4,0,211.5,0z M211.5,71.5
			c-11.6,0-21-9.4-21-21c0-11.6,9.4-21,21-21c11.6,0,21,9.4,21,21C232.5,62.1,223.1,71.5,211.5,71.5z"/>
	</g>
</g>
</svg>
