<?xml version="1.0" encoding="utf-8"?>
<!-- Generator: Adobe Illustrator 21.1.0, SVG Export Plug-In . SVG Version: 6.00 Build 0)  -->
<svg version="1.1" id="Layer_6" xmlns="http://www.w3.org/2000/svg" xmlns:xlink="http://www.w3.org/1999/xlink" x="0px" y="0px"
	 viewBox="0 0 550 512" style="enable-background:new 0 0 550 512;" xml:space="preserve">
<path id="_x33_2" d="M526.1,100.4c-37-57.5-105.5-79.5-152.9-49.1c-1.9,1.2-3.9,2.6-5.7,4c-0.4,0.3-0.8,0.6-1.1,0.9
	c-2.1,2.4-7.4,8.2-16,16.7c-16.5,16.3-45,42.3-86,72.2c-2.1,0.9-4,2-5.6,3.5l-74.2-91.6c-2.8-3.5-7.6-2.4-7.5,1.8l1.1,51.2
	c0.1,2.6-1.8,4.4-4.3,3.9l-47.4-9.4c-4-0.8-5.8,4-3,7.6l60.3,74.8c2.5,3.1,6.1,4.7,9.2,4c-36.1,19.2-93.6,46.6-127.1,62.5
	c-1.3,0.6-2.6,1.2-3.7,1.8c-7.1,2.3-14,5.5-20.4,9.6l0,0c-0.8,0.4-1.4,0.7-1.8,0.9l0,0c-0.1,0.1-0.3,0.2-0.4,0.3
	c-7.1,5-13.3,11-18.5,17.7c-11.2,14.1-18,31.9-20,52.1c-0.8,8-0.7,16.1,0.1,24.2v0.1c0.1,0.6,0.1,1.1,0.2,1.8
	c0.1,0.6,0.1,1.1,0.2,1.8c0,0.1,0,0.1,0,0.2c2.6,20.1,9.8,40.7,22.1,59.8c7.2,11.3,15.7,21.1,25,29.6c0,0,0,0,0.1,0.1
	c0.3,0.3,0.6,0.5,0.9,0.8c13.4,12.1,28.6,21.2,44.8,26.8c29.2,10,58.1,7.3,81.4-7.7c7.3-4.8,13.8-10.5,19.3-17.1
	c0.5-0.4,1-0.9,1.5-1.3c36.1-30.9,104.7-89,131.2-106.3c0.2,2,2.5,3.6,3.9,2.4l61.9-37.4c1.6-1.5,2.9-3.3,3.9-5.4
	c30.3-15.7,57-27.5,76.5-35.5c20.8-8.5,33.4-12.7,33.4-12.7C554.8,229.4,563.2,158.1,526.1,100.4z M142.6,427.3
	c-2.4,8.6-8.2,13.6-16.8,14.6c-17.2,1.9-45-13.1-65.8-50.6l0,0c-20.1-36.2-21.2-77.2-2.5-87.5c16.5-9.1,36.4-8.7,56,0.8L71,328.1
	c-9.7,5.3-11.1,15.8-7.5,23.5c3.6,7.7,12.7,13.3,22.9,9.2c8.4-3.3,35.6,3.6,48.9,27.2C142.9,401.7,145.7,416.4,142.6,427.3z
	 M182.7,412.9l-2.9,1.1c-1.3-28.2-17-60.7-47.5-78.5l18.5-10.8c9.1,4.6,20.9,19.7,31.1,38.3C186.8,380.7,187,398.1,182.7,412.9z
	 M311.6,321.4c-18.8,12.1-57,43.1-94.8,74.9c1.2-27.6-6.9-56.4-23.2-81.8c-16.5-25.8-39.8-45.3-65.9-55.4
	c44.9-21.6,89.2-43.9,107.3-55.6c0.4-0.3,1-0.6,1.4-0.9c19.7,11.8,41.2,30.2,56.7,49.4c16.5,20.7,26.8,42.4,31.9,61
	C320.6,315.7,316.1,318.5,311.6,321.4z M517.3,186.4c-2.3,19.4-10.8,35.3-24.3,45.1c-5.6,1.9-16.5,5.9-31.1,11.9
	c-17.9,7.3-40.6,17.2-65.9,30c-7.1-24.2-23.4-53.8-41.7-76.5c-14.8-18.4-32.4-33.7-49-43.1c31.6-24.5,54-45.3,67-58.2
	c7.1-7,12.2-12.5,15.4-15.9c0.9-0.6,1.7-1.2,2.6-1.8c15-9.6,34.1-11.4,54-5.1c21.9,7,41.7,22.9,55.6,44.5
	C513.8,139,520,163.6,517.3,186.4z"/>
</svg>
