<?xml version="1.0" encoding="utf-8"?>
<!-- Generator: Adobe Illustrator 21.1.0, SVG Export Plug-In . SVG Version: 6.00 Build 0)  -->
<svg version="1.1" id="Layer_6" xmlns="http://www.w3.org/2000/svg" xmlns:xlink="http://www.w3.org/1999/xlink" x="0px" y="0px"
	 viewBox="0 0 550 512" style="enable-background:new 0 0 550 512;" xml:space="preserve">
<g>
	<g>
		<path d="M516.8,39.3c-35.6-39.2-85.6-50-113.8-24.6c-1,0.9-1.8,1.8-2.5,2.9C377,55.4,348.9,90.7,313,127.6
			c-6.1-4.1-12.9-7.5-21.1-7.9c-13.1-0.7-23.5,6.2-32.7,12.3c-4.6,3-8.8,5.9-12.5,7.2c-3.5,1.3-8.3,1.7-13.6,2.2
			c-10.6,1-23.8,2.2-33.9,11.3c-10.1,9.1-12.7,22-14.7,32.4c-1.1,5.1-2,9.9-3.6,13.1c-1.7,3.5-5,7.5-8.5,11.7
			c-7,8.5-15,18.2-15.7,31.1c-0.5,8.8,2.6,16.4,6.6,23.3c-29.1,24-71,56-123.4,83.3c-0.3,0.1-0.5,0.2-0.8,0.3
			c-3.2,1-6.4,2.2-9.3,3.8c-3.6,1.9-6.9,4-9.8,6.7c-0.1,0.1-0.1,0.2-0.2,0.3c-28,25.4-22.1,75.7,13.4,114.9
			c35.6,39.2,85.7,50,113.8,24.6c0.2-0.1,0.2-0.3,0.4-0.5c2.6-2.4,5-5.2,7-8.3c2-2.8,3.6-6,5-9.2c0.1-0.1,0.1-0.1,0.1-0.2
			c32.7-49.1,69-87.4,96.1-113.8c6.5,4.5,13.8,8.5,22.6,8.9c8.8,0.5,16.4-2.7,23.3-6.6l74.7,120.1c2.5,4.1,7,6.4,11.8,6.4
			c4.8-0.1,9.2-2.7,11.6-6.9l40.1-70.3l74.5-32.5c1.4-0.6,2.6-1.3,3.7-2.3c2.4-2.2,3.9-5.1,4.4-8.3c0.6-4.7-1.3-9.4-5.2-12.3
			l-112.6-86.1c4.6-6.4,8.5-13.6,8.9-22.4c0.4-8.3-2.3-15.3-5.8-21.8c40.6-31.6,78.8-56,119.1-75.3c1.1-0.5,2.2-1.3,3.2-2.1
			C558.2,129,552.4,78.4,516.8,39.3z M135.3,468c-0.1,0.2-0.2,0.4-0.3,0.6c-1.7,4.1-3.6,7.1-5.9,9.2c-0.1,0.1-0.1,0.2-0.3,0.4
			c-16.3,14.6-50.9,4.1-75.5-22.8c-24.5-27.1-31.5-62.3-15.1-77c1.5-1.4,3.3-2.3,5.1-3.2c1.6-0.7,3.2-1.4,5.2-1.9
			c0.2,0,0.3-0.2,0.5-0.2c0.1,0,0.1,0,0.2,0c2.4-0.4,4.9-0.5,7.7-0.2c20.7,2.5,40.7,27.9,44.7,56.8c1.9,14.1-0.4,26.5-5.6,35.2
			c14.1-5.1,22.2-23.5,19.1-46.6c-1.1-7.7-3.2-15.2-6.3-22c1.7,1.6,3.4,3.3,5,5.1C133.9,423.2,141.9,450.6,135.3,468z M161.5,431.2
			c-4.6-16.3-13.8-33.1-27.5-48.1c-13.6-15-29.3-25.8-45.2-32c35.6-21.7,65.3-44.2,87.9-62.7c0.1,0.6,0.3,1.3,0.4,1.9
			c0.5,2.5,0.8,5.2,1.1,8.1c0,0.4,0.1,0.7,0.1,1c0.9,10.5,2.2,23.6,11.3,33.6c9.1,10,22.1,12.5,32.5,14.5c0.3,0,0.6,0.1,1,0.2
			c3,0.6,5.6,1.2,8.1,1.9c0.7,0.2,1.3,0.4,2,0.6C205.4,377.8,182,404.2,161.5,431.2z M296.1,340.1c-6,4-12.2,8.1-16.4,7.9
			c-4.2-0.2-9.9-4.9-15.4-9.4c-0.2-0.2-0.6-0.4-0.8-0.7c0-0.1,0-0.1-0.1-0.2c-2.2-1.8-4.4-3.5-6.7-5.1c-0.2-0.1-0.4-0.3-0.6-0.4
			c-2.9-2.1-5.9-4-9.1-5.5c-6.3-3-13.1-4.3-19.6-5.6c-7.2-1.4-14.6-2.8-17.7-6.2c-3.1-3.4-3.8-10.8-4.5-18.1
			c-0.6-6.6-1.2-13.4-3.5-20c-2.2-6.1-5.5-11.4-9.3-17.2c0-0.1-0.1-0.2-0.2-0.1c-0.2-0.3-0.3-0.6-0.6-0.9c-4-5.9-8.1-12.1-7.9-16.3
			c0.2-4.1,5-9.9,9.6-15.4c4.4-5.3,8.8-10.7,12-17.2c3-6.3,4.3-13,5.7-19.5c1.5-7.2,3-14.5,6.3-17.6c3.4-3.1,10.9-3.8,18.2-4.5
			c6.6-0.6,13.5-1.2,20.1-3.6c6.8-2.4,12.7-6.3,18.4-10c6-4,12.2-8.1,16.4-7.9c4.2,0.2,9.9,4.9,15.4,9.4c5.3,4.3,10.8,8.7,17.3,11.9
			c6.3,3,13.1,4.3,19.6,5.6c7.2,1.4,14.6,2.8,17.7,6.2c3.1,3.4,3.8,10.8,4.5,18.1c0.6,6.6,1.2,13.4,3.5,20c2.4,6.8,6.3,12.6,10,18.3
			c4,5.9,8.1,12.1,7.9,16.3c-0.2,4.1-5,9.9-9.6,15.4c-4.4,5.3-8.8,10.7-12,17.2c-3,6.3-4.3,13-5.7,19.5c-1.5,7.2-2.9,14.5-6.3,17.6
			s-10.9,3.8-18.2,4.5c-6.6,0.6-13.5,1.2-20.1,3.6S301.8,336.3,296.1,340.1z M482.4,369.5l-57.6,25.1c-2.7,1.2-4.9,3.2-6.4,5.7
			l-31,54.4l-62.1-99.8c3.2-0.9,7.4-1.4,11.8-1.8c10.6-1,23.9-2.2,33.9-11.3c10.1-9,12.7-22,14.7-32.4c0.9-4.4,1.8-8.4,3-11.5
			L482.4,369.5z M513.1,133.3c-40.4,19.6-78.6,43.6-119.2,75c-0.5-1.3-0.8-3-1-4.6c-0.1-0.4-0.1-0.6-0.2-1.1
			c-0.3-2.2-0.6-4.7-0.8-7.2c-0.9-10.5-2.2-23.6-11.3-33.6c-9.1-10-22.1-12.5-32.5-14.5c-2.5-0.5-4.9-1-7.1-1.5
			c-0.4-0.1-0.6-0.2-1-0.3c-1.7-0.5-3.3-0.9-4.5-1.4c35.5-36.9,63.4-72.3,87.1-110.2c17-13.1,50.3-2.5,74.3,23.8
			C520.6,83.7,527.8,117.9,513.1,133.3z"/>
		<path d="M349.9,239.6c-2.6-4-5.3-8-7-12.7c-1.6-4.6-2.1-9.3-2.5-13.9c-0.5-5-1-10.2-3.1-12.6c-2.2-2.4-7.3-3.3-12.3-4.3
			c-4.5-0.9-9.2-1.8-13.6-3.9c-4.6-2.1-8.4-5.2-12-8.2c-3.9-3.1-7.9-6.4-10.7-6.5c-2.9-0.1-7.2,2.7-11.4,5.4c-4,2.6-8.1,5.3-12.8,7
			c-4.6,1.6-9.4,2.1-14,2.5c-5.1,0.5-10.3,1-12.7,3.1c-2.3,2.1-3.4,7.2-4.3,12.2c-0.9,4.5-1.9,9.2-3.9,13.5
			c-2.1,4.6-5.3,8.3-8.3,11.9c-3.2,3.8-6.5,7.8-6.6,10.7c-0.1,2.9,2.6,7.1,5.4,11.2c0.2,0.3,0.3,0.4,0.4,0.6c0,0.1,0.1,0.1,0.1,0.2
			c2.6,4,5,7.7,6.5,11.9c1.6,4.6,2.1,9.3,2.5,13.9c0.5,5,1,10.2,3.1,12.5c2.2,2.4,7.3,3.3,12.3,4.3c4.5,0.9,9.2,1.8,13.6,3.9
			c2.2,1,4.4,2.3,6.3,3.8c0.1,0.1,0.2,0.2,0.4,0.3c1.6,1.2,3.1,2.3,4.6,3.6c0,0,0,0.1,0.1,0.1c0.1,0.2,0.4,0.3,0.6,0.4
			c3.9,3.1,7.9,6.4,10.7,6.5c2.9,0.2,7.2-2.7,11.4-5.4c4-2.6,8.1-5.3,12.8-7c4.6-1.6,9.4-2.1,14-2.5c5.1-0.5,10.3-1,12.6-3
			c2.4-2.2,3.4-7.2,4.3-12.2c0.9-4.5,1.9-9.2,3.9-13.5c2.1-4.6,5.3-8.3,8.3-11.9c3.2-3.8,6.5-7.8,6.6-10.7
			C355.4,247.9,352.7,243.7,349.9,239.6z M316,253.9c-1.5,1.8-3,3.6-4,5.8c-1.1,2.1-1.5,4.4-1.9,6.6c-0.6,2.6-1.1,5.1-2.2,6.1
			c-1.1,1-3.7,1.3-6.2,1.5c-2.2,0.2-4.6,0.5-6.8,1.2c-2.3,0.8-4.3,2.1-6.2,3.4c-2,1.3-4.1,2.7-5.5,2.7c-1.4-0.1-3.3-1.6-5.2-3.2
			c-0.1-0.1-0.2-0.1-0.2-0.2c0,0,0,0,0-0.1c-0.7-0.6-1.5-1.2-2.3-1.8c-0.1-0.1-0.1-0.1-0.1-0.2c-1-0.7-2-1.3-3.1-1.9
			c-2.1-1-4.4-1.5-6.6-1.8c-2.4-0.5-4.9-1-5.9-2.1s-1.3-3.7-1.5-6.1c-0.2-2.2-0.4-4.6-1.2-6.8c-0.7-2-1.8-3.9-3.1-5.8
			c0,0,0,0-0.1-0.1c0-0.1-0.1-0.2-0.2-0.3c-1.3-2-2.7-4-2.7-5.5c0.1-1.3,1.6-3.3,3.2-5.2c1.4-1.7,3-3.6,4-5.8
			c1.1-2.1,1.5-4.4,1.9-6.6c0.5-2.4,1-4.9,2.1-6c1.1-1,3.6-1.3,6.2-1.5c2.2-0.2,4.6-0.5,6.8-1.2c2.3-0.8,4.3-2.1,6.2-3.4
			c2-1.3,4.1-2.7,5.5-2.7c1.4,0.1,3.3,1.6,5.2,3.2c1.8,1.4,3.6,3,5.9,4c2.1,1,4.4,1.5,6.6,1.8c2.4,0.5,4.9,1,5.9,2.1
			s1.3,3.6,1.5,6.1c0.2,2.2,0.4,4.6,1.2,6.8c0.8,2.3,2.1,4.3,3.4,6.2c1.3,2,2.7,4.1,2.7,5.5C319.2,250.1,317.6,252.1,316,253.9z"/>
	</g>
</g>
</svg>
