<?xml version="1.0" encoding="utf-8"?>
<!-- Generator: Adobe Illustrator 22.0.1, SVG Export Plug-In . SVG Version: 6.00 Build 0)  -->
<svg version="1.1" id="Layer_1" xmlns="http://www.w3.org/2000/svg" xmlns:xlink="http://www.w3.org/1999/xlink" x="0px" y="0px"
	 viewBox="0 0 512 512" style="enable-background:new 0 0 512 512;" xml:space="preserve">
<g id="_x33_2">
	<path d="M493.9,1.1c-19.5-3.3-35.3,14.6-44.2,24.9c-10.4,12.2-23.6,42.5-28.5,67.7c-3.9,17.8-7.9,30.2-18.3,42.8
		c-8.7,11.1-18.6,18.8-32.8,27.6c-5,3.1,1.4,12.8,10.2,9.4c14.1-6.1,27.1-11.4,39-17c1.1,2.6,2,5.6,2.5,8.5
		c2.2,17.4-3.6,38.6-20.2,51.5c-21.4,16.7-53.4,13.3-70.8-8.8c-17.2-22.1-13.1-53.7,8.7-70.8c18.9-14.8,37.7-13.5,54.8-6.9
		c1.7,0.7,3.8,1.8,3.8,1.8s3-2.3,6.2-7.5c2.8-4.5,6.1-12.3,6.1-12.3s-3.1-1.8-4-2.4c-16.8-10.6-140-50.7-172.1-25.7L13.8,256
		c-15.5,12.1-18.2,35.8-6.3,51.1l148.1,190.1c12.3,15.9,35.2,18.8,51.1,6.4l220.4-172.2c32.3-25.2,23.6-154.6,17.4-173.3
		c-1.1-4.6-2.8-8.8-4.6-12.5c6.7-3.9,12.9-8.2,18.6-13c25.4-21.7,45.7-49.2,50.8-75.4C516.1,22.5,509.6,4.3,493.9,1.1z M405.8,306.3
		L187.7,477.1c-2.2,1.7-5.4,1.3-7.1-0.9L33.4,287.4c-1.7-2.2-1.3-5.4,0.9-7.1l217.5-170c16.7-7.4,64.9,3,64.9,3
		c-18.8,13-47.4,66.5-12.2,112.5c27.4,35.8,76.7,42.3,113.6,18C418.2,246.3,417.5,297.7,405.8,306.3z M389.9,159.4
		c0,0,12.4-5.9,21.3-15.6c0.7,1,1.5,2,2.3,3C389.5,160.6,389.9,159.4,389.9,159.4z M449.7,123.5c-5.2,4.1-10.5,7.8-16.3,11.4l0,0
		c-2.2-3.1-8-9.6-9.5-11.2c4.3-9.7,7.1-20.5,9.3-31.6c5.3-23.3,16.7-46.2,27.9-59.7c12.1-14.4,26.7-23.2,32.4-17
		C507.4,30.2,503.4,84.1,449.7,123.5z"/>
	<polygon points="176.7,389 144.7,389 245.7,223 277.7,223 	"/>
	<ellipse cx="154.5" cy="264.1" rx="25.3" ry="28.5"/>
	<ellipse cx="268.4" cy="348.1" rx="25.3" ry="28.5"/>
</g>
</svg>
