<?xml version="1.0" encoding="utf-8"?>
<!-- Generator: Adobe Illustrator 21.1.0, SVG Export Plug-In . SVG Version: 6.00 Build 0)  -->
<svg version="1.1" id="Layer_1" focusable="false" xmlns="http://www.w3.org/2000/svg" xmlns:xlink="http://www.w3.org/1999/xlink"
	 x="0px" y="0px" viewBox="0 0 448 512" style="enable-background:new 0 0 448 512;" xml:space="preserve">
<path id="_x33_2_1_" d="M223.5,31.9c-38.5,0-69.6,31.2-69.6,69.6c0,38.5,31.2,69.6,69.6,69.6c38.5,0,69.6-31.2,69.6-69.6
	C293.2,63,262,31.9,223.5,31.9z M223.5,139.1c-20.8,0-37.6-16.9-37.6-37.6c0-20.7,16.9-37.6,37.6-37.6s37.6,16.9,37.6,37.6
	C261.2,122.2,244.3,139.1,223.5,139.1z M223.5,340.7c-38.5,0-69.6,31.2-69.6,69.6c0,38.5,31.2,69.6,69.6,69.6
	c38.5,0,69.6-31.2,69.6-69.6C293.2,371.9,262,340.7,223.5,340.7z M223.5,448c-20.8,0-37.6-16.9-37.6-37.6s16.9-37.6,37.6-37.6
	s37.6,16.9,37.6,37.6S244.3,448,223.5,448z M428,239.6H0l20,47.6h428L428,239.6z"/>
</svg>
