<?xml version="1.0" encoding="utf-8"?>
<!-- Generator: Adobe Illustrator 21.1.0, SVG Export Plug-In . SVG Version: 6.00 Build 0)  -->
<svg version="1.1" id="Layer_2" xmlns="http://www.w3.org/2000/svg" xmlns:xlink="http://www.w3.org/1999/xlink" x="0px" y="0px"
	 viewBox="0 0 674.7 512" style="enable-background:new 0 0 674.7 512;" xml:space="preserve">
<path d="M619.8,51.9c-10.4-7.6-3.3-19.5-23.9-28.9c-8.7-2-17.3-4-26-6c-7.7-1.8-12.5-6.2-22.2-6.2c-1.2,0-2.4,0.1-3.7,0.2
	c-25.4,6.9-39.6,29.1-65.9,57.8c-22.1,24.2-50.3,50-68.8,57.9c-58.7,9.4-40.2,15.3-71.8,16c-49.3-0.4-83-8.6-141.6-11
	c-34.2-1.4-48.2,5.5-71.6,11c-0.1,0-0.2,0-0.2,0c-2.3-0.3-18.6-5.1-28.9-11c-17.8-10.2-32.5-23.6-44.9-40.9
	c-11.4-16-18.1-34.4-26.9-52.9C17.7,26.1,4.6,11.7,4.4,1c-12,15.3,4.2,35.6,8,47.9c10.8,35.1,8,48.8,27.9,74
	c13.5,17,51.3,36.6,54.9,54.9c3.1,15.8-12.8,17.7-18,52.9c-1.7,11.5,2.4,29.4,9,45.9c3.5,8.5,12.2,48.5,7,61.8
	c-4.4,7.4-6.7,10.7-11,18c-3.4,14.6-6.7,29.3-10,43.9c-2.1,6.1-9.9,7.6-10,23.9c-0.1,10,3.3,16.1,5,22.9
	c6.1,24.9,8.5,63.8,36.9,63.8c3.6,0,7.6-0.6,12-2c4-1.5,7.2-3.6,10-7c1.2-11.3-14.7-18.7-26.9-21.9c-2.5-3.6-3.6-3.6-4-10
	c1.4-0.2,8.1-0.2,9.9-0.2c6.6,0,13.4-0.7,17-7.8c1-2.2,1.4-4.5,1-7c-3.1-8.8-20.4-6.4-25.9-13c-6.7-17.4,12.9-37.6,19.9-46.9
	c26.6-35.4,53.2-71.7,67.8-119.7c28.1,3.5,56,5.7,63.2,7.4c35.9,8.4,67.4,19.1,96.4,30.5c22.5,5.8,47.9,8,71.8,12
	c4.2,18.2,3.6,58.7,6.9,97.2c2.4,38,3.8,41.1,7.3,47.6c6.3,24,16.8,41,35.2,41c6.7,0,14.5-2.3,23.4-7.3c16.2-11.1-23-24.6-25.9-34.9
	c9.1,0.1,16.6-1,22.9-4c3.1-1.8,2.6-1.4,4-5c1-2.9-0.1-7.3-2-10c-5.1-8.1-13.6-8.6-22.9-12c-4.3-3.1-9.4-13.7-8-23.9
	c2-14.4,4.6-51.8,8-69.8c6.1-32.3,20.6-36.5,33.9-53.9c5.8-7.5,9.3-20,14-28.9c3.9-7.5,9.2-11.3,12-19c1.8-8.3,2.2-16.1,0-24.9
	c2.9-2.7,16.6-21.3,23.9-30.9c7.3-12.4,8.9-30.5,17.7-41.4c0.8-0.4,2.6-2.4,3-2.9c0.2-0.1,0.3-0.2,0.5-0.3
	c2.4,13.3,14,26.6,27.8,28.3c2.9,1,4.4,0.5,7-1c12.4-5.9,12.8-27,12-45.9c8.5,0.3,12.2-3.1,16-5.3c1.5-0.7,2.9-1.3,4.7-1.4
	c2.3-0.1,4.3,2.4,10,2c6.6-0.4,16.6-13.6,22.4-28.9c0.7-1.7-0.5-5.5,0.6-7c0.8-1.1,1.9-0.6,2.2-1.8c0.9-3.5,1.5-6.9,1.8-10.2
	C670.6,58.8,628.8,58.5,619.8,51.9z M545.5,120.8c-15.5,15.8-19.4,39.9-23.5,48.3c-3.2,4.2-15.8,20.8-18.9,24.9
	c-1.2,1.2-9.4,13.2-10,16.8c-0.6,3.6,1.7,18.3,1.3,21.2c-12.1,14.1-17.3,33.5-20.7,38.7l0,0l-0.1,0.1c-2.5,3.2-5.3,6.1-8.6,9.4
	c-6.3,6.3-13.9,13.9-20.4,25.9c0,0-1.7-5.8-3.5-7.2c-2.7-2.2-19.6-5.2-19.6-5.2c-8.4-1.4-52.9-6.7-67.3-11
	c-34.8-13.6-66.2-23.5-98.9-31.1v0c-5.8-1.4-54.7-6.5-66.5-8c0,0-19.1-3-24.7,0.6c-5.6,3.7-9.9,21.8-9.9,21.8
	c-6.7,21.9-16.5,41.5-27.5,59.5c0-6.6-0.7-14.7-2.2-24.7c-1.8-11.9-5.2-27.6-8.7-36.2c-6.2-15.5-7.4-26.4-7-29.3
	c1.8-12.1,4.9-17.1,8.4-22.8c4.7-7.5,12.4-19.9,9.8-38c10.6,0,32.3-11.7,67.4-10.9c26.3,0.6,47.3,3.5,67.7,5.7
	c24.2,2.6,55.3,5.8,76,5.3c18-0.4,25.8-2.4,36.3-6.8c5.1-2.1,29.5-9.1,43.7-10.2c32.9-13,69.2-51.7,83.5-67.3h0
	c5.7-6.3,36.9-44.4,46.8-47.1c8.1,4.3,32.1,9,34.5,9.6c4.8,12.6,14.1,29,41.4,34.3c-3.4,1.2-6.1,2.5-8,3.5l-4.8-0.2
	c0,0-46.6,18.7-50.2,20.3C556.4,113.1,550.5,115.8,545.5,120.8z"/>
</svg>
