<?xml version="1.0" encoding="utf-8"?>
<!-- Generator: Adobe Illustrator 21.1.0, SVG Export Plug-In . SVG Version: 6.00 Build 0)  -->
<svg version="1.1" id="Layer_4" xmlns="http://www.w3.org/2000/svg" xmlns:xlink="http://www.w3.org/1999/xlink" x="0px" y="0px"
	 viewBox="0 0 512.7 512" style="enable-background:new 0 0 512.7 512;" xml:space="preserve">
<g>
	<path d="M512.7,455.2c0,8.9-7.2,16.1-16.1,16.1h-19.9c-0.1-0.2-0.2-0.4-0.3-0.7c-3.4-7.5-10.9-12.7-19.6-12.7s-16.3,5.2-19.6,12.7
		c-0.1,0.2-0.2,0.4-0.3,0.7H150.9c0,0,0,0,0,0c0.3-49.4-38.2-89.9-86.8-92.6v-32.4h0.1V98.7c0-13.7-6-26.5-16.6-35.3l-42.1-35
		c-6.5-5.7-7.4-15.5-2-22.3C6.6,2.2,11.2,0,16.2,0c3.7,0,7.1,1.2,10,3.5l42,35.3C86.3,53.7,96.6,75.6,96.5,99v253.1
		c40.3,12.9,71.7,45.7,82.6,86.9h317.4C505.4,439,512.7,446.2,512.7,455.2L512.7,455.2z"/>
	<ellipse cx="64" cy="464.2" rx="47.8" ry="47.8"/>
	<circle cx="457.2" cy="481" r="16"/>
</g>
</svg>
