<?xml version="1.0" encoding="utf-8"?>
<!-- Generator: Adobe Illustrator 21.1.0, SVG Export Plug-In . SVG Version: 6.00 Build 0)  -->
<svg version="1.1" id="_x33_2_1_" xmlns="http://www.w3.org/2000/svg" xmlns:xlink="http://www.w3.org/1999/xlink" x="0px" y="0px"
	 viewBox="0 0 512 512" style="enable-background:new 0 0 512 512;" xml:space="preserve">
<g>
	<path d="M366.2,110.2h-36.5c-6.6,0-12,5.4-12,12c0,6.6,5.4,12,12,12h36.5c3.3,0,6.3-1.3,8.5-3.5c2.2-2.2,3.5-5.1,3.5-8.5
		C378.2,115.6,372.8,110.2,366.2,110.2z M342.4,191.7l-25.8-25.8c-2.3-2.3-5.4-3.5-8.5-3.5c-3.1,0-6.1,1.2-8.5,3.5
		c-4.7,4.7-4.7,12.3,0,16.9l25.8,25.8c4.7,4.7,12.3,4.7,16.9,0C347.1,204,347.1,196.4,342.4,191.7z M212.3,61.6l-25.8-25.8
		c-2.3-2.3-5.4-3.5-8.5-3.5c-3.1,0-6.1,1.2-8.5,3.5c-4.7,4.7-4.7,12.3,0,16.9l25.8,25.8c4.7,4.7,12.3,4.7,16.9,0
		C217,73.8,217,66.3,212.3,61.6z M212.3,165.9c-4.7-4.7-12.3-4.7-16.9,0l-25.8,25.8c-2.3,2.3-3.5,5.4-3.5,8.5s1.2,6.1,3.5,8.5
		c4.7,4.7,12.3,4.7,16.9,0l25.8-25.8C217,178.2,217,170.6,212.3,165.9z M182.3,110.2h-36.5c-6.6,0-12,5.4-12,12c0,6.6,5.4,12,12,12
		h36.5c3.3,0,6.3-1.3,8.5-3.5c2.2-2.2,3.5-5.1,3.5-8.5C194.2,115.6,188.9,110.2,182.3,110.2z M256,0c-6.6,0-12,5.4-12,12v36.5
		c0,3.3,1.3,6.3,3.5,8.5c2.2,2.2,5.2,3.5,8.5,3.5c6.6,0,12-5.4,12-12V12C268,5.4,262.6,0,256,0z M342.4,35.8
		c-4.7-4.7-12.3-4.7-16.9,0l-25.8,25.8c-2.3,2.3-3.5,5.4-3.5,8.5s1.2,6.1,3.5,8.5c4.7,4.7,12.3,4.7,16.9,0l25.8-25.8
		C347.1,48,347.1,40.5,342.4,35.8z"/>
</g>
<g>
	<path d="M272,269.8V150c9.6-5.5,16.1-15.9,16.1-27.8c0-17.7-14.3-32-32-32c-17.7,0-32,14.3-32,32c0,11.8,6.4,22.2,16,27.7v119.9
		c-133.9,3.9-240,56.6-240,121C0,457.7,114.6,512,256,512c141.4,0,256-54.3,256-121.2C512,326.4,405.9,273.7,272,269.8z
		 M439.1,326.4l-59.2,24.8c-13.7-15.8-40.4-28.5-73.8-34.9l24.7-25.9C374.6,297.2,412.2,309.9,439.1,326.4z M272,375.6v-54.1
		c55.7,3.5,98.6,24.7,98.6,50.3c0,28-51.3,50.8-114.6,50.8c-63.3,0-114.6-22.7-114.6-50.8c0-25.6,42.9-46.8,98.6-50.3v54.1H272z
		 M314.9,288.2l-25.8,25.4c-5.6-0.7-11.3-1.2-17.1-1.5V285C286.7,285.4,301.1,286.5,314.9,288.2z M240,285v27.1
		c-5.9,0.3-11.7,0.8-17.3,1.5l-25.5-25.5C211,286.5,225.3,285.4,240,285z M180.9,290.4l24.7,25.9c-33.2,6.4-59.7,19-73.4,34.7
		L73,326.3C99.8,309.9,137.3,297.3,180.9,290.4z M29.2,386.5c0-17.5,9.9-34,27.2-48.4l66.8,28.9c-0.8,2.7-1.2,5.5-1.2,8.3
		c0,5.3,1.4,10.5,3.9,15.4l-79.9,34.5C35.2,413.3,29.2,400.2,29.2,386.5z M62.6,439.6l75.5-34.2c13.8,12.2,35.8,22,62.5,27.8
		l-42.4,45C118.5,469.8,85.3,456.3,62.6,439.6z M256,488.2c-22.3,0-43.8-1.4-64.1-4.1l39.6-46.2c8,0.7,16.2,1.1,24.5,1.1
		c8.3,0,16.4-0.4,24.2-1l39.6,46.2C299.6,486.8,278.2,488.2,256,488.2z M353.7,478.3l-42.5-45c26.8-5.8,49-15.7,62.8-27.9l75.5,34.2
		C426.7,456.3,393.3,469.8,353.7,478.3z M465.9,425.1L386,390.6c2.5-4.9,3.9-10,3.9-15.3c0-2.8-0.4-5.6-1.1-8.3l66.9-28.9
		c17.3,14.4,27.2,30.8,27.2,48.3C482.8,400.2,476.8,413.2,465.9,425.1z"/>
</g>
</svg>
