<?xml version="1.0" encoding="utf-8"?>
<!-- Generator: Adobe Illustrator 21.1.0, SVG Export Plug-In . SVG Version: 6.00 Build 0)  -->
<svg version="1.1" id="_x33_2" xmlns="http://www.w3.org/2000/svg" xmlns:xlink="http://www.w3.org/1999/xlink" x="0px" y="0px"
	 viewBox="0 0 512 512" style="enable-background:new 0 0 512 512;" xml:space="preserve">
<path d="M272,269.8V160.1c14.8-6.2,25.2-20.8,25.2-37.9c0-22.7-18.4-41.1-41.1-41.1c-22.7,0-41.1,18.4-41.1,41.1
	c0,17,10.3,31.6,25,37.8v109.8c-133.9,3.9-240,56.6-240,121C0,457.7,114.6,512,256,512c141.4,0,256-54.3,256-121.2
	C512,326.4,405.9,273.7,272,269.8z M256.1,113c5,0,9.1,4.1,9.1,9.1c0,5-4.1,9.1-9.1,9.1c-5,0-9.1-4.1-9.1-9.1
	C247,117.1,251,113,256.1,113z M272,375.6v-54.1c55.7,3.5,98.6,24.7,98.6,50.3c0,28-51.3,50.8-114.6,50.8
	c-63.3,0-114.6-22.7-114.6-50.8c0-25.6,42.9-46.8,98.6-50.3v54.1H272z M256,488.2c-125.3,0-226.8-45.6-226.8-101.8
	c0-53.8,93-97.8,210.8-101.5v27.1c-66.4,3.8-117.9,30.6-117.9,63.2c0,35.2,60,63.7,133.9,63.7c74,0,133.9-28.5,133.9-63.7
	c0-32.6-51.5-59.5-117.9-63.2V285c117.8,3.7,210.8,47.7,210.8,101.5C482.8,442.7,381.3,488.2,256,488.2z"/>
<path d="M299.7,61.6l25.8-25.8c4.7-4.7,12.3-4.7,16.9,0c4.7,4.7,4.7,12.3,0,16.9l-25.8,25.8c-4.7,4.7-12.3,4.7-16.9,0
	c-2.3-2.3-3.5-5.4-3.5-8.5S297.3,63.9,299.7,61.6z M133.8,122.2c0-6.6,5.4-12,12-12h36.5c6.6,0,12,5.4,12,12c0,3.3-1.3,6.3-3.5,8.5
	c-2.2,2.2-5.2,3.5-8.5,3.5h-36.5C139.2,134.2,133.8,128.8,133.8,122.2z M212.3,182.8l-25.8,25.8c-4.7,4.7-12.3,4.7-16.9,0
	c-2.3-2.3-3.5-5.4-3.5-8.5s1.2-6.1,3.5-8.5l25.8-25.8c4.7-4.7,12.3-4.7,16.9,0C217,170.6,217,178.2,212.3,182.8z M212.3,78.5
	c-4.7,4.7-12.3,4.7-16.9,0l-25.8-25.8c-4.7-4.7-4.7-12.3,0-16.9c2.3-2.3,5.4-3.5,8.5-3.5c3.1,0,6.1,1.2,8.5,3.5l25.8,25.8
	C217,66.3,217,73.8,212.3,78.5z M268,48.5c0,6.6-5.4,12-12,12c-3.3,0-6.3-1.3-8.5-3.5c-2.2-2.2-3.5-5.2-3.5-8.5V12
	c0-6.6,5.4-12,12-12s12,5.4,12,12V48.5z M342.4,208.6c-4.7,4.7-12.3,4.7-16.9,0l-25.8-25.8c-4.7-4.7-4.7-12.3,0-16.9
	c2.3-2.3,5.4-3.5,8.5-3.5c3.1,0,6.1,1.2,8.5,3.5l25.8,25.8C347.1,196.4,347.1,204,342.4,208.6z M374.7,130.7
	c-2.2,2.2-5.2,3.5-8.5,3.5h-36.5c-6.6,0-12-5.4-12-12c0-6.6,5.4-12,12-12h36.5c6.6,0,12,5.4,12,12
	C378.2,125.5,376.9,128.5,374.7,130.7z"/>
</svg>
