<?xml version="1.0" encoding="utf-8"?>
<!-- Generator: Adobe Illustrator 21.1.0, SVG Export Plug-In . SVG Version: 6.00 Build 0)  -->
<svg version="1.1" id="Layer_1" xmlns="http://www.w3.org/2000/svg" xmlns:xlink="http://www.w3.org/1999/xlink" x="0px" y="0px"
	 viewBox="0 0 542.4 512" style="enable-background:new 0 0 542.4 512;" xml:space="preserve">
<style type="text/css">
	.st0{fill:#0C0706;}
</style>
<g>
	<g>
		<path class="st0" d="M285.7,474.4c-7.7,0-14.7-3.2-19.7-9.1L150.6,330c-6.9-8.1-6-20.4,2.2-27.3c4.5-3.8,9.3-4.6,12.6-4.6
			c5.7,0,11.1,2.5,14.8,6.8l103.5,121.3L506.2,14.1c3.4-6.2,9.9-10.1,17-10.1c3.2,0,6.3,0.8,9.1,2.3c4.5,2.4,7.8,6.5,9.3,11.4
			s0.9,10.1-1.5,14.7L308.6,460.8C304,469.3,295.5,474.4,285.7,474.4C285.7,474.4,285.7,474.4,285.7,474.4z"/>
		<path class="st0" d="M139.7,510.2c-7.7,0-14.7-3.2-19.7-9.1L4.6,365.8c-6.9-8.1-6-20.4,2.2-27.3c4.5-3.8,9.3-4.6,12.6-4.6
			c5.7,0,11.1,2.5,14.8,6.8L137.6,462l19.6-36.3l26.2,32.5l-20.7,38.4C158,505.1,149.5,510.2,139.7,510.2z"/>
		<path class="st0" d="M237.2,277.7L360.3,49.9c3.4-6.2,9.9-10.1,17-10.1c3.2,0,6.3,0.8,9.1,2.3c6.2,3.4,10.1,9.9,10.1,17
			c0,3.2-0.8,6.3-2.3,9.1L263.6,309.7L237.2,277.7z"/>
	</g>
</g>
</svg>
