<?xml version="1.0" encoding="utf-8"?>
<!-- Generator: Adobe Illustrator 21.1.0, SVG Export Plug-In . SVG Version: 6.00 Build 0)  -->
<svg version="1.1" id="Layer_1" xmlns="http://www.w3.org/2000/svg" xmlns:xlink="http://www.w3.org/1999/xlink" x="0px" y="0px"
	 viewBox="0 0 512 512" style="enable-background:new 0 0 512 512;" xml:space="preserve">
<g>
	<g>
		<path d="M133.4,358.1l28.9,28.9l94.1-94l94.1,94l28.9-28.9l-123-122.9L133.4,358.1z M462,0.5H50c-27.6,0-50,22.4-50,50v412
			c0,27.6,22.4,50,50,50h412c27.6,0,50-22.4,50-50v-412C512,22.9,489.6,0.5,462,0.5z M480,462.5c0,10-8,18-18,18H50
			c-9.9,0-18-8-18-18v-412c0-10,8.1-18,18-18h412c10,0,18,8,18,18v43C480.7,101.4,480,461.1,480,462.5z M133.4,248.1l28.9,28.9
			l94.1-94l94.1,94l28.9-28.9l-123-122.9L133.4,248.1z"/>
	</g>
</g>
</svg>
