<?xml version="1.0" encoding="utf-8"?>
<!-- Generator: Adobe Illustrator 19.0.0, SVG Export Plug-In . SVG Version: 6.00 Build 0)  -->
<svg version="1.1" id="Layer_2" xmlns="http://www.w3.org/2000/svg" xmlns:xlink="http://www.w3.org/1999/xlink" x="0px" y="0px"
	 viewBox="-76 0 378 512" style="enable-background:new -76 0 378 512;" xml:space="preserve">
<g>
	<path d="M113,452c-16.6,0-30,13.4-30,30s13.4,30,30,30s30-13.4,30-30S129.6,452,113,452z"/>
	<path d="M129,64H97v310L-26.4,260.6V294l0.5,6c0.6,4.3,2.3,7.7,5.1,10.2L113,431.9l132-122.7l4.6-6c1.2-2.8,1.9-5.3,1.9-7.4V259
		L129,374V64z"/>
	<polygon points="-76,0 -76,64.1 -44,64.1 -44,32 270,32 270,64.1 302,64.1 302,0 	"/>
</g>
</svg>
