<?xml version="1.0" encoding="utf-8"?>
<!-- Generator: Adobe Illustrator 21.1.0, SVG Export Plug-In . SVG Version: 6.00 Build 0)  -->
<svg version="1.1" id="Layer_2" xmlns="http://www.w3.org/2000/svg" xmlns:xlink="http://www.w3.org/1999/xlink" x="0px" y="0px"
	 viewBox="0 0 762.6 512" style="enable-background:new 0 0 762.6 512;" xml:space="preserve">
<g>
	<path d="M72,185.5c-12.4,0-22.5,10.1-22.5,22.5s10.1,22.5,22.5,22.5s22.5-10.1,22.5-22.5S84.4,185.5,72,185.5z M72,215.8
		c-4.3,0-7.8-3.5-7.8-7.8s3.5-7.8,7.8-7.8s7.8,3.5,7.8,7.8S76.3,215.8,72,215.8z"/>
	<path d="M186.2,32C260.3,87,395,187.1,426.9,210.6l9.7,7.1l11.9-1c33.1-2.7,61.4-9.8,79.7-20c7.5-4.2,14.7-7.7,28.2-8.5
		c3.7-0.2,7.8-0.3,12.2-0.3c27.6,0,73.2,4.5,111.3,17.1c17.8,5.9,31.9,13,40.9,20.5c9.8,8.2,9.8,13.9,9.8,16
		c0,4.6-3.8,12.7-12.2,20.2c-8.3,7.4-23.8,16.9-50.4,20.3l-201,5.3l-10.9,0.3l-8.5,6.9l-227.9,186h-77.5l106.6-135.2l41.4-52.5
		l-66.8,0.7l-183.7,1.9c-8-2.7-7.5-8.8-7.3-10.9l0.1-1.4v-1.4c0-12-0.2-110.7-0.2-130.2c0.8-1,3.7-1.5,6.3-1.5h36.2l95.7,72.8
		l8.7,6.6l11-0.1l42.3-0.4l66.2-0.6L257,176.5L140.3,32H186.2 M196.8,0H73.3l158.8,196.6l-42.3,0.4L85.5,117.7h-47
		c-24,0-36.5,15.1-38.3,30.2c0,0,0.2,120.1,0.2,133.5c-1.9,21.4,10.8,39.3,32,45l3.1,0.8l188.1-1.9l-147.4,187h154.9l236.7-193.2
		l202.2-5.3l1.1-0.1c61-7.3,91.5-43.9,91.5-72.3c0-64.3-128.9-85.6-193.9-85.6c-5.2,0-9.9,0.1-14.2,0.4
		c-19.6,1.2-31.5,6.7-41.9,12.5c-11.3,6.3-33.9,13.4-66.7,16.1C414.1,161.4,278.1,60.4,203.1,4.7L196.8,0L196.8,0z"/>
</g>
</svg>
