<?xml version="1.0" encoding="utf-8"?>
<!-- Generator: Adobe Illustrator 21.1.0, SVG Export Plug-In . SVG Version: 6.00 Build 0)  -->
<svg version="1.1" id="Layer_1" xmlns="http://www.w3.org/2000/svg" xmlns:xlink="http://www.w3.org/1999/xlink" x="0px" y="0px"
	 viewBox="0 0 550 512" style="enable-background:new 0 0 550 512;" xml:space="preserve">
<g>
	<path d="M275.2,252.2c-26.7,0-48.4,21.7-48.4,48.4s21.7,48.4,48.4,48.4s48.4-21.7,48.4-48.4S302,252.2,275.2,252.2L275.2,252.2z
		 M275.2,340.9c-22.3,0-40.3-18.1-40.3-40.3c0-22.3,18.1-40.3,40.3-40.3s40.3,18.1,40.3,40.3C315.5,322.9,297.5,340.9,275.2,340.9
		L275.2,340.9z"/>
	<path d="M275.2,278.8c-12,0-21.8,9.8-21.8,21.8c0,12,9.8,21.8,21.8,21.8c12,0,21.8-9.8,21.8-21.8
		C297,288.6,287.3,278.8,275.2,278.8L275.2,278.8z M267.2,303.8c-1.4,0-2.5-1.1-2.5-2.5c0-3.9,1.7-7.6,4.8-10.1v-0.1
		c0.5-0.4,1-0.6,1.6-0.6c0.7,0,1.4,0.3,1.9,0.9c0,0,0,0.1,0.1,0.1c0.8,1.1,0.6,2.7-0.4,3.5c-0.1,0-0.1,0.1-0.1,0.1
		c-1.9,1.5-2.9,3.7-2.9,6.2C269.7,302.7,268.5,303.8,267.2,303.8L267.2,303.8z"/>
	<path d="M274.5,84.8c-5.2,0-9.6,3.6-10.7,8.4c-15.6-3.3-44.9-5.5-48.7-5.5c-5.3,0-9.6,4.3-9.6,9.6c0,5.2,4.3,9.6,9.6,9.6
		c3.8,0,32.7-2.3,48.4-5.5v9.2h22.1v-9.4c15.5,3.3,45.5,5.7,49.4,5.7c5.3,0,9.6-4.3,9.6-9.6c0-5.3-4.3-9.6-9.6-9.6
		c-3.9,0-34.3,2.3-49.7,5.7C284.2,88.5,279.8,84.8,274.5,84.8L274.5,84.8z"/>
	<path d="M275.5,134.8v10.5c0,0.1,0,0.2-0.2,0.4l-0.5,0.5l-0.4-0.5c-0.2-0.2-0.2-0.3-0.2-0.4v-10.6H275.5 M467,160.2V179
		c0,3-2.5,5.5-5.5,5.5c-0.6,0-1.1-0.1-1.6-0.3l-3.9-1.3v-5.7v-17L467,160.2 M94.1,160.2v17.1v5.7l-3.6,1.1c-0.7,0.2-1.4,0.3-1.9,0.3
		c-3.1,0-5.5-2.5-5.5-5.5v-18.7H94.1 M275,186.8l1.3,11.8l1.8,15.9l16,0.7c21,0.9,41.8,3,61.8,6.3l4.5,0.7l4.3-1.5l63.1-20.7
		l-45.5,40.6l-14,12.4l12.4,14c11,12.4,24.4,31.2,27.2,51.6c-4.3-9.9-12.6-20.5-25.5-32.6l-17.2-16.1l-11.8,20.4c0,0,0,0.1-0.1,0.1
		H351c-4.9-37.6-37.2-66.7-76.1-66.7s-71.2,29.1-76.1,66.7h-2.2c0-0.1-0.1-0.1-0.1-0.1L185,268.8l-17.7,16.7
		c-12.8,12.1-21.1,22.8-25.3,32.6c2.6-20.3,15.9-39,26.9-51.5l12.2-14l-13.8-12.4L122.1,200l63,20.7l4.4,1.5l4.5-0.7
		c19.9-3.3,40.7-5.5,61.6-6.3l16-0.7l1.8-15.9L275,186.8 M294.2,116h-38.6v29.3c0,4.7,1.7,9,4.4,12.3h-0.5l-4.5,38.8
		c-21.4,0.9-42.8,3-64,6.6l-78.2-25.7v-35.8H64.3V179c0,13.4,10.9,24.3,24.3,24.3c2.7,0,5.2-0.5,7.6-1.2l58.6,52.3
		c-14,15.9-29.7,39.2-31.8,65.4c-3.3,42.4-1.7,100.2-1.7,100.2c0,1,0.1,7.2,0.1,7.2h23.5c0,0,9.4-89,13.9-100.6
		c3.3-8.7,12-18.5,21.4-27.4c3.1,5.8,9,10,15.8,10c2.6,0,5.1,0,7.8,0c4.2,35.7,34.6,63.3,71.4,63.3s67.1-27.7,71.3-63.3
		c2.6,0,5.1,0,7.8,0c6.6,0,12.3-3.9,15.5-9.4c9.6,9,18.3,18.9,21.7,27.7c4.5,11.6,12,96.4,12.6,99.7l24.8-0.1c0,0,0-3.1,0-6.4
		c0,0,1.5-57.8-1.7-100.2c-2.1-26.5-18.1-50.1-32.2-66l59.1-52.5c2.4,0.8,4.9,1.2,7.6,1.2c13.4,0,24.3-10.9,24.3-24.3v-37.4h-48.5
		v35.8L359.1,203c-21.3-3.5-42.7-5.7-64.2-6.6l-4.5-38.8h-0.6c2.7-3.3,4.4-7.6,4.4-12.3V116L294.2,116z M275,358.5
		c-32,0-58-25.9-58-58c0-32,25.9-58,58-58s58,25.9,58,58C333,332.5,307.1,358.5,275,358.5L275,358.5z"/>
	<path d="M88.6,101.5c-6.6,0-12.2,4.6-13.7,10.8c-20.1-4.2-57.6-7.2-62.5-7.2c-0.1,0-0.1,0-0.1,0c-6.8,0-12.2,5.5-12.2,12.3
		c0,6.8,5.5,12.3,12.3,12.3c4.9,0,41.9-2.9,62-7v11.8h28.3v-12c19.9,4.3,58.3,7.3,63.3,7.3c6.8,0,12.3-5.5,12.3-12.3
		s-5.5-12.3-12.3-12.3c-5.1,0-43.9,3-63.6,7.4C100.9,106.3,95.3,101.5,88.6,101.5L88.6,101.5z"/>
	<path d="M461.5,101.5c-6.8,0-12.4,4.7-13.8,11c-19.7-4.3-58.6-7.4-63.6-7.4c-6.8,0-12.3,5.5-12.3,12.3c0,6.8,5.5,12.3,12.3,12.3
		c5,0,43.5-3,63.3-7.3v12.1h28.3v-11.8c20.2,4.1,57.2,7,62,7c6.8,0,12.3-5.5,12.3-12.3c0-6.8-5.5-12.4-12.3-12.4
		c-4.9,0-42.5,2.9-62.5,7.2C473.6,106,468.1,101.5,461.5,101.5L461.5,101.5z"/>
</g>
</svg>
