<?xml version="1.0" encoding="utf-8"?>
<!-- Generator: Adobe Illustrator 21.1.0, SVG Export Plug-In . SVG Version: 6.00 Build 0)  -->
<svg version="1.1" id="Layer_2" xmlns="http://www.w3.org/2000/svg" xmlns:xlink="http://www.w3.org/1999/xlink" x="0px" y="0px"
	 viewBox="0 0 512 512" style="enable-background:new 0 0 512 512;" xml:space="preserve">
<path d="M488.5,23.5C473.4,8.3,453.3,0,431.9,0s-41.5,8.3-56.6,23.5l-66.5,66.5l-0.1-0.1c-6.8-6.8-15.7-10.2-24.6-10.2
	c-8.9,0-17.8,3.4-24.6,10.2l-14.8,14.8c-13.6,13.6-13.6,35.6,0,49.2l12.4,12.4L18.3,405c-24.4,24.4-24.4,64.2,0,88.6
	C30.2,505.5,45.9,512,62.6,512s32.5-6.5,44.3-18.3l238.8-238.8l12.3,12.3c6.8,6.8,15.7,10.2,24.6,10.2c8.9,0,17.8-3.4,24.6-10.2
	l14.8-14.8c13.6-13.6,13.6-35.6,0-49.2l66.5-66.5C519.7,105.5,519.7,54.7,488.5,23.5z M84.3,471c-5.9,5.9-13.4,9-21.7,9
	s-15.8-3.1-21.7-9c-12-12-12-31.4,0-43.4l230.9-230.9l43.4,43.4L84.3,471z M465.9,114.1l-89.1,89.1l22.6,22.6c1.1,1.1,1.1,2.9,0,4
	l-14.8,14.8c-0.5,0.6-1.2,0.8-2,0.8c-1.2,0-1.8-0.6-2-0.8L267.3,131.2c-0.5-0.5-0.8-1.2-0.8-2c0-0.8,0.3-1.4,0.8-2l14.8-14.8
	c0.5-0.6,1.2-0.8,2-0.8c0.8,0,1.4,0.3,2,0.8l0.1,0.1l22.6,22.7l89.1-89.1C407,37,419.1,32,431.9,32c12.8,0,24.9,5,34,14.1
	C484.6,64.8,484.6,95.3,465.9,114.1z"/>
</svg>
