<?xml version="1.0" encoding="utf-8"?>
<!-- Generator: Adobe Illustrator 22.0.1, SVG Export Plug-In . SVG Version: 6.00 Build 0)  -->
<svg version="1.1" id="Layer_2" xmlns="http://www.w3.org/2000/svg" xmlns:xlink="http://www.w3.org/1999/xlink" x="0px" y="0px"
	 viewBox="0 0 512 512" style="enable-background:new 0 0 512 512;" xml:space="preserve">
<g>
	<path d="M511.6,225.9c0-44.4-132.7-71.9-255.6-71.9C133.2,154,0.7,181.4,0.4,225.7c0,0,0,0,0,0v204.6c0,52.1,131.7,80.2,255.6,80.2
		s255.6-28.1,255.6-80.2V226.8c0,0,0,0,0,0C511.6,226.5,511.6,226.2,511.6,225.9z M101.5,462V345.5c1.4,0.1,2.9,0.2,4.3,0.2
		c14.9,0,29.2-5.6,40.1-15.9l9.2-8.6c13.5,1.5,27.5,2.8,41.8,3.7l15.4,19.5c9.1,11.4,21.8,18.9,35.8,21.3v112.9
		C195,477.9,142.2,472,101.5,462z M258.2,334.4c-7.7,0-15.5-3.3-20.8-10l-21.9-27.6c13.5,0.6,27.1,1,40.5,1c14.9,0,30-0.4,45-1.2
		l-22.1,27.9C273.6,331.1,265.9,334.4,258.2,334.4z M84.1,302.5l-20.6-29.3c22.3,7,49,12.6,78.1,16.7L124,306.5
		c-5.2,4.8-11.7,7.2-18.1,7.2C97.5,313.7,89.3,309.9,84.1,302.5z M268.2,365.6c14.1-2.4,26.7-9.9,35.8-21.3l15.6-19.6
		c14.6-1,28.9-2.3,42.7-3.9l9.6,9c10.1,9.5,23,15,36.6,15.8v116.9c-39.3,9.4-89.5,15.1-140.3,15.9V365.6z M411.9,313.7
		c-6.5,0-13-2.4-18.1-7.2l-18.4-17.3c30.4-4.5,58.1-10.7,80.5-18.5l-22.3,31.7C428.3,309.9,420.1,313.7,411.9,313.7z M51.1,217.3
		c13.4-6,31.9-11.7,53.3-16.4c43.3-9.5,98.6-14.9,151.6-14.9s108.3,5.4,151.6,14.9c21.4,4.7,39.8,10.3,53.3,16.4
		c7.6,3.4,12.4,6.4,15.4,8.6c-2.9,2.2-7.7,5.2-15.4,8.6c-13.4,6-31.9,11.7-53.3,16.4c-43.3,9.5-98.6,14.9-151.6,14.9
		s-108.3-5.4-151.6-14.9c-21.4-4.7-39.8-10.3-53.3-16.4c-7.6-3.4-12.4-6.4-15.4-8.6C38.7,223.7,43.5,220.7,51.1,217.3z M32.4,430.1
		V291.6c2.9,1.7,5.6,3.3,8.2,4.6L58,320.9c6,8.6,14.2,15.2,23.5,19.5v116.1c-13.7-4.3-25.4-9.1-34.2-14.1
		C35.4,435.6,32.7,430.9,32.4,430.1z M479.6,430.1c-0.4,0.8-3,5.6-14.9,12.3c-9.2,5.3-21.6,10.3-36.2,14.7V343.3
		c12.5-3.7,23.6-11.5,31.2-22.4l18.4-26.2c0.5-0.3,1-0.5,1.5-0.8V430.1z"/>
	<path d="M361.3,75.8c-6.3-1.6-12.7,0-18.3,2.4c-1.6,0.8-3.2,0.8-4,0l-38.1-19c-0.8-0.8-0.8-2.4,0-3.2L366,22.7
		c5.6-2.4,7.9-8.7,6.3-14.3c-2.4-7.1-10.3-10.3-16.7-7.1l-80.9,41.3c-1.6,0.8-4,0.8-5.6,0L188.3,2c-6.3-3.2-14.3,0-16.7,7.1
		c-1.6,5.6,0.8,11.1,6.3,14.3L243,56.8c0.8,0.8,0.8,2.4,0,3.2l-38.9,19.8c-0.8,0.8-1.6,0.8-3.2,0c-5.6-3.2-11.9-4-18.3-2.4
		c-10.3,2.4-18.3,11.1-19.8,21.4c-2.4,15.9,10.3,30.2,25.4,30.2c14.3,0,26.2-11.9,26.2-26.2V102v-0.8l54.8-27.8c1.6-0.8,4-0.8,5.6,0
		l54,27.8c0.8,0,0.8,0.8,0.8,1.6l0,0c0,14.3,11.9,26.2,26.2,26.2c15.9,0,27.8-13.5,25.4-30.2C379.5,87.7,370.8,78.2,361.3,75.8z"/>
</g>
</svg>
