<?xml version="1.0" encoding="utf-8"?>
<!-- Generator: Adobe Illustrator 21.1.0, SVG Export Plug-In . SVG Version: 6.00 Build 0)  -->
<svg version="1.1" id="Layer_1" xmlns="http://www.w3.org/2000/svg" xmlns:xlink="http://www.w3.org/1999/xlink" x="0px" y="0px"
	 viewBox="0 0 537 512" style="enable-background:new 0 0 537 512;" xml:space="preserve">
<path d="M483,163.6c-1.3-1-2.5-1.5-3.6-1.5c-12.5,0-16.8,57.7-97.5,67.7c-41,5.1-78.6-4.2-100.6-11.5c-1-0.3-1.2-2.1-0.3-2.8
	c30.2-21.4,50-56.9,50-97.1C331,53,278.8,0,214.4,0c-56.2,0-103.1,40.4-114.1,94.1c-6.9,44.9-41.5,53.7-67.9,53.7
	c-6.8,0-23.8-1.9-25.6-1.9c-5.3,0-6.1,1.4-6.5,2.1c-3,15.5,24.7,31.2,60.1,31.2c14.7,0,30.8-2.7,46.6-9.3c0,0,0.1,0,0.1,0
	c0.1,0,0.1,0.1,0,0.2c-10.5,10.2-26.3,14.3-43.2,14.3c-17.6,0-36.4-4.5-51.8-11c-5.5,8.2,32.2,29.7,91.5,29.7c6.8,0,14-0.3,21.4-0.9
	h0.1c0.6,0,0.6,0.5-0.2,0.9c-53.9,25.5-91.3,81-91.3,145.3c0,88.5,71.1,151.1,157.8,160.3c20.5,2.2,41.7,3.4,62.9,3.4
	c106.3,0,215.3-30.5,261.3-124.2C555,307.4,537.3,205.4,483,163.6z M503.1,320.3c-2.7,19-8.3,36.9-16.2,53.5
	C446.8,458.2,333.4,481.4,254.4,480c-19.4-0.3-98.1,6.5-152-44.7c-24.3-23.1-36.7-53.4-36.7-87c0-25,7-49.2,20.4-70
	c13-20.2,31.2-36.3,52.6-46.4c14-6.6,21.5-21.7,18.1-36.6c-2.3-10-8.9-18-17.7-22.1c0.5-5.1-0.2-10.3-2.2-15.3
	c-3.6-9-11-15.6-19.9-18.5c7.4-11.2,12.5-24.4,14.9-39.5c4-18.9,14.4-36.1,29.1-48.4C176.2,38.7,194.7,32,214.4,32
	C261,32,299,70.8,299,118.4c0,28.3-13.6,54.8-36.5,71c-10.3,7.3-15.6,19.7-13.7,32.4c1.9,12.6,10.5,22.9,22.4,26.8
	c1,0.3,1.9,0.6,2.9,0.9c-1.8,8.3-2.8,17-2.8,25.9c0,61.7,46.1,111.7,102.9,111.7c30.5,0,57.9-14.4,76.8-37.3
	c-15.8,12.1-35,19.2-55.8,19.2c-48.6,0-91.3-38.6-95.9-95.6c-0.7-8.3,6.8-15,15-13.5c33.2,6,63,2.7,71.3,1.7
	c52.9-6.3,81.3-31,97.1-51.2C509.4,251.9,505.7,302.1,503.1,320.3z"/>
</svg>
