<?xml version="1.0" encoding="utf-8"?>
<!-- Generator: Adobe Illustrator 21.1.0, SVG Export Plug-In . SVG Version: 6.00 Build 0)  -->
<svg version="1.1" id="Layer_4" xmlns="http://www.w3.org/2000/svg" xmlns:xlink="http://www.w3.org/1999/xlink" x="0px" y="0px"
	 viewBox="0 0 512 512" style="enable-background:new 0 0 512 512;" xml:space="preserve">
<path d="M173.7,31.7l69.1,69.1l3.2,34.5l-31.2,31.2l-22.4,22.4l12.8,12.8l-3.2,3.2l-12.8-12.8L167,214.4l-31.7,31.7l-34.2-3.4
	L32,173.7l0.7-27.5L146.6,32.3L173.7,31.7 M376.7,265.6l34.2,3.4l69.1,69.1l-0.7,27.5L365.4,479.5l-27.1,0.5l-69.1-69.1l-3.2-34.5
	l31.5-31.5l22.4-22.4L307,309.7l3.2-3.2l12.8,12.8l22.4-22.4L376.7,265.6 M186.5-0.1l-53.3,1L1.4,132.7L0,186.4l86.7,86.7l0.3,0.3
	l0.2-0.2l59.8,5.9l42.3-42.3l12.8,12.8l5.7-5.7l12.8,12.8l4.1-4.1l35.3,33.4l-5.1,5.1l12.8,12.8l-5.7,5.7l12.8,12.8l-42,42l5.6,60.2
	l-0.2,0.2l87,87l53.3-1L510.6,379l1.4-53.7l-87-87l-0.2,0.2l-59.8-5.9l-42,42l-12.8-12.8l-5.7,5.7l-12.8-12.8l-5.1,5.1l-33.4-35.3
	l4.1-4.1l-12.8-12.8l5.7-5.7l-12.8-12.8l41.7-41.7l-5.5-60.2l0.2-0.2l-0.3-0.3L186.5-0.1L186.5-0.1z"/>
</svg>
