<?xml version="1.0" encoding="utf-8"?>
<!-- Generator: Adobe Illustrator 21.1.0, SVG Export Plug-In . SVG Version: 6.00 Build 0)  -->
<svg version="1.1" id="Layer_2" xmlns="http://www.w3.org/2000/svg" xmlns:xlink="http://www.w3.org/1999/xlink" x="0px" y="0px"
	 viewBox="0 0 487.4 512" style="enable-background:new 0 0 487.4 512;" xml:space="preserve">
<path d="M460.8,397.8c-22.9,20.3-48.6,37.4-76.5,50.7l-67-160.7h22c26.3,0,47.8-21.5,47.8-47.9c0-82.4,16.2-160.9,45.2-232.9
	c1.1-2.6-0.9-5.5-3.7-5.5h-22.1c-7.1,0-13.6,4.3-16.2,11.1c-24,61.2-38.8,127.1-42.2,196.1c-0.5,10.5-4.7,26-22.5,31.5h-94.9
	c1.4-22.3,7.8-41.3,18.8-56.2c6,0.7,12.1,1.6,18.3,2.7c11.7,2.2,23.7-1,32.8-8.7c0.8-0.7,1.6-1.4,2.4-2.1c2.9-2.5,1.8-7.2-1.8-8.2
	c-60.9-17.4-116.2-15.1-162.4,5.3c-4.4,1.9-4.1,8.3,0.5,9.8l13.9,4.3c7.9,2.5,16.4,2.9,24.4,0.9c6.8-1.7,13.9-3,21-3.9
	c11,14.9,17.4,33.9,18.8,56.1h-68.9c-26.3,0-47.8,21.3-47.8,47.7H171l-66.3,160.6c-28.2-13.4-54.2-30.8-77.2-51.5
	c-6.3-5.7-16-5.4-22,0.6L5,397.9c-6.5,6.5-6.2,17.1,0.7,23.3C69.1,477.7,152.6,512,244.2,512c91.2,0,174.5-34.1,237.8-90.2
	c6.9-6.1,7.2-16.8,0.7-23.3l0,0C476.7,392.5,467.1,392.2,460.8,397.8z M213.8,182.7c6.6-0.3,13.5-0.3,20.4,0.1
	c-4.1,6.7-7.5,14.1-10.2,22C221.4,196.8,218,189.4,213.8,182.7z M187.3,287.8h113.9l69.5,166.7c-38.8,16.3-81.3,25.3-126,25.3
	c-44.8,0-87.5-9.1-126.4-25.4L187.3,287.8z"/>
</svg>
