<?xml version="1.0" encoding="utf-8"?>
<!-- Generator: Adobe Illustrator 21.1.0, SVG Export Plug-In . SVG Version: 6.00 Build 0)  -->
<svg version="1.1" id="Layer_1" xmlns="http://www.w3.org/2000/svg" xmlns:xlink="http://www.w3.org/1999/xlink" x="0px" y="0px"
	 viewBox="0 0 585 512" style="enable-background:new 0 0 585 512;" xml:space="preserve">
<g>
	<path d="M477.5,170c-1-1.5-2-2.9-3-4.4c-5.5-8-11.6-15.6-18.1-22.7c0,0,0-0.1-0.1-0.1l-0.1-0.1l-35.3,9.9l-127,35.7l-126.8-35.8
		l-35.3-10l-0.1,0.1c-0.1,0.1-0.2,0.2-0.2,0.3c-6.5,7.2-12.6,14.7-18.1,22.7c-1,1.4-1.9,2.7-2.8,4.1C87.5,204.7,74,246.6,74,291.6
		c0,46.8,14.6,90.2,39.4,125.9c5.5,8,11.6,15.6,18.1,22.7c34.7,38.1,82.6,63.9,136.5,70.3c2.9,0.4,5.9,0.6,8.8,0.9
		c5.7,0.4,11.4,0.7,17.2,0.7s11.5-0.2,17.2-0.7c3-0.2,5.9-0.5,8.8-0.9c53.8-6.4,101.7-32.2,136.5-70.3c6.5-7.2,12.6-14.7,18.1-22.7
		c24.8-35.7,39.4-79.1,39.4-125.9C514,246.6,500.6,204.9,477.5,170z M444.9,179.2c1,1.3,1.9,2.6,2.8,3.9
		c21.6,30.7,34.3,68.1,34.3,108.5c0,28.1-6.1,54.8-17.2,78.7c-5.4-3.6-11.1-7.1-17.1-10.3c-18-9.7-39-17.6-62.2-23.5
		c1.6-14.5,2.5-29.6,2.5-45c0-29.5-3.2-57.7-8.9-83.5c-0.7-3.3-1.5-6.6-2.4-9.8L444.9,179.2z M294,473.9
		c-19.6-13.7-36.5-41.7-48.2-76.1c-3.1-9-5.8-18.4-8.1-28.1c-0.8-3.4-1.6-6.8-2.3-10.3c3.4-0.6,6.9-1.2,10.3-1.7
		c15.9-2.3,32.1-3.6,48.2-3.6s32.3,1.2,48.2,3.6c3.5,0.5,6.9,1.1,10.3,1.7c-0.7,3.5-1.5,6.9-2.3,10.3c-2.3,9.7-5,19.1-8.1,28.1
		C330.5,432.2,313.6,460.2,294,473.9z M348.5,206.2c0.6,2.4,1.2,4.8,1.8,7.3c5.9,24.9,9.3,51.7,9.3,78.1c0,13-0.8,26.2-2.3,39.1
		c-2.3-0.4-4.6-0.7-6.9-1.1c-18-2.6-36.8-4-56.3-4s-38.3,1.4-56.3,4c-2.3,0.3-4.6,0.7-6.9,1.1c-1.5-13-2.3-26.1-2.3-39.1
		c0-26.4,3.3-53.2,9.3-78.1c0.6-2.5,1.2-4.9,1.8-7.3l54.4,15.3L348.5,206.2z M106,291.6c0-40.4,12.7-77.8,34.3-108.5
		c1-1.4,2-2.7,3-4.1l68.1,19.2c-0.8,3.3-1.6,6.6-2.4,9.9c-5.8,25.8-8.9,53.9-8.9,83.5c0,15.4,0.9,30.4,2.5,45
		c-23.2,5.8-44.2,13.8-62.2,23.5c-6.1,3.3-11.8,6.7-17.1,10.3C112.1,346.3,106,319.7,106,291.6z M159.5,423.2
		c-7-7.2-13.4-14.9-19.2-23.2c-1-1.4-1.9-2.8-2.9-4.2c6.6-4.5,14.1-8.8,22.1-12.7c14.1-6.9,30.2-12.8,47.5-17.4
		c0.6,3.1,1.3,6.3,1.9,9.3c2.2,9.8,4.8,19.3,7.7,28.3c9.4,29,22.3,53.8,37.6,72.4C217.6,467.8,184.8,449.2,159.5,423.2z
		 M447.7,400.1c-5.8,8.2-12.2,16-19.2,23.2c-25.3,25.9-58,44.6-94.7,52.5c15.4-18.5,28.3-43.3,37.6-72.4c2.9-9,5.5-18.5,7.7-28.3
		c0.7-3.1,1.3-6.2,1.9-9.3c17.2,4.6,33.3,10.5,47.5,17.4c8.1,3.9,15.5,8.2,22.1,12.7C449.6,397.3,448.7,398.7,447.7,400.1z"/>
	<path d="M296,33l166.7,42l-168.2,47.1L134.1,77.4l-6.9-1.9L296,33 M296,0L2.3,73.9l90.5,25.2c-4.1,6.3-36.5,42.2-43.3,79.6
		c-14.3,77.8-3.7,182.5,0,183.4c0,0,0,0,0,0c0.3,0,3.2-50.1,7.7-50.1c0.1,0,0.1,0,0.2,0c1.5,0.4,3.2,53.2,4.9,53.6c0,0,0,0,0,0
		c1.5,0,3-77.6,4.6-77.6c0,0,0,0,0,0c1.6,0.3,3.3,79.3,5,79.5c0,0,0,0,0,0c2.1,0,4.3-51.5,6.4-51.5c0,0,0,0,0,0
		c2.2,0.2,4.4,52.8,6.6,52.8c3.3,0,6.3-26.4,8.9-27.1c0.1,0,0.1,0,0.2,0c3.3,0,5.7,20.6,6.8,20.6c0.1,0,0.1-0.1,0.2-0.3
		c11.9-38.3-3.4-122.1,0-183.4c1.9-35.5,18.8-63.9,24.5-70.4l169,47.1l292.7-81.9L296,0L296,0z"/>
</g>
</svg>
