<?xml version="1.0" encoding="utf-8"?>
<!-- Generator: Adobe Illustrator 22.0.1, SVG Export Plug-In . SVG Version: 6.00 Build 0)  -->
<svg version="1.1" id="Layer_1" xmlns="http://www.w3.org/2000/svg" xmlns:xlink="http://www.w3.org/1999/xlink" x="0px" y="0px"
	 viewBox="0 0 511 512" style="enable-background:new 0 0 511 512;" xml:space="preserve">
<path d="M511,77.9c0-36.2-29.3-65.5-65.5-65.5c-31.5,0-57.7,22.2-64.1,51.7h-59.2l0,0l0,0l-41.4,71.7L251,0.3L220.4,7l0,0l-47.9,57
	h-42.9C123.3,34.5,97,12.3,65.5,12.3C29.3,12.3,0,41.7,0,77.9c0,22.4,11.3,42.2,28.4,54L1.7,512.6h127.6l-26.8-380.6
	c12.6-8.6,22-21.5,26.1-36.6h58.5l20.1-24.1l21.6-25.7L257.6,176l0,0l0,0l27.1,15.7l55.6-96.3h42c4.2,15,13.5,27.9,26,36.5
	l-26.7,380.7h127.6l-26.8-380.6C499.7,120.1,511,100.3,511,77.9z M65.5,42.2c19.6,0,35.6,16,35.6,35.6s-16,35.6-35.6,35.6
	c-19.6,0-35.6-16-35.6-35.6S45.9,42.2,65.5,42.2z M98,482.7H33.1l24.8-339.7c2.5,0.3,5.1,0.5,7.7,0.5c2.6,0,5.1-0.2,7.7-0.5
	L98,482.7z M445.5,42.2c19.6,0,35.6,16,35.6,35.6s-16,35.6-35.6,35.6s-35.6-16-35.6-35.6S425.8,42.2,445.5,42.2z M477.9,482.7H413
	l24.8-339.7c2.5,0.3,5.1,0.5,7.7,0.5c2.6,0,5.1-0.2,7.7-0.5L477.9,482.7z"/>
</svg>
