<?xml version="1.0" encoding="utf-8"?>
<!-- Generator: Adobe Illustrator 21.1.0, SVG Export Plug-In . SVG Version: 6.00 Build 0)  -->
<svg version="1.1" id="Layer_1" xmlns="http://www.w3.org/2000/svg" xmlns:xlink="http://www.w3.org/1999/xlink" x="0px" y="0px"
	 viewBox="0 0 64 512" style="enable-background:new 0 0 64 512;" xml:space="preserve">
<path d="M32,288c-17.7,0-32-14.3-32-32s14.3-32,32-32s32,14.3,32,32S49.7,288,32,288z M64,376c0-17.7-14.3-32-32-32S0,358.3,0,376
	s14.3,32,32,32S64,393.7,64,376z M64,136c0-17.7-14.3-32-32-32S0,118.3,0,136s14.3,32,32,32S64,153.7,64,136z"/>
</svg>
