<?xml version="1.0" encoding="utf-8"?>
<!-- Generator: Adobe Illustrator 21.1.0, SVG Export Plug-In . SVG Version: 6.00 Build 0)  -->
<svg version="1.1" id="Layer_4" xmlns="http://www.w3.org/2000/svg" xmlns:xlink="http://www.w3.org/1999/xlink" x="0px" y="0px"
	 viewBox="0 0 512 512" style="enable-background:new 0 0 512 512;" xml:space="preserve">
<g id="_x33_2">
	<path d="M480,298.6V480H32V299.4l224.1,134.3L480,298.6 M512,241.9L256,396.3L0,242.9V512h512V241.9L512,241.9z"/>
	<path d="M362.7,256.2H152v-32h210.7V256.2z M362.7,177.5H152v-32h210.7V177.5z M505.7,216.6l-73.4,44.6V81.9H80.1v179.6L6.3,216.6
		c-8.2-5.5-8.5-17.5-0.7-23.5l42.5-34.3V74.8C48.1,61,59.3,49.9,73,49.9h109.9l49.8-40.3c13.1-12.5,33.6-12.5,46.7,0l49.8,40.3
		h110.3c13.7,0,24.9,11.1,24.9,24.8v84.4l42.1,34C514.2,199.2,513.8,211.1,505.7,216.6z"/>
</g>
</svg>
