<?xml version="1.0" encoding="utf-8"?>
<!-- Generator: Adobe Illustrator 21.1.0, SVG Export Plug-In . SVG Version: 6.00 Build 0)  -->
<svg version="1.1" id="Layer_4" xmlns="http://www.w3.org/2000/svg" xmlns:xlink="http://www.w3.org/1999/xlink" x="0px" y="0px"
	 viewBox="0 0 512 512" style="enable-background:new 0 0 512 512;" xml:space="preserve">
<g id="_x33_2">
	<g>
		<path d="M256,32.3c0.7,0,1.2,0.4,1.3,0.5l0.9,0.9l1,0.8L480,212.9l0,267.1H32V213L252.8,34.5l1-0.8l0.9-0.9
			C254.8,32.7,255.3,32.3,256,32.3 M256,0.3c-8.4,0-16.8,3.1-23.4,9.3L5.3,193.4C2,196.1,0,200.2,0,204.6V512h512l0-307.5
			c0-4.3-2-8.4-5.3-11.2L279.4,9.6C272.8,3.4,264.4,0.3,256,0.3L256,0.3z"/>
	</g>
	<polygon points="427.5,236.9 427.5,274.2 256.1,377.6 84,274.5 84,237.2 256,340.3 	"/>
</g>
</svg>
