<?xml version="1.0" encoding="utf-8"?>
<!-- Generator: Adobe Illustrator 21.1.0, SVG Export Plug-In . SVG Version: 6.00 Build 0)  -->
<svg version="1.1" id="Layer_3" xmlns="http://www.w3.org/2000/svg" xmlns:xlink="http://www.w3.org/1999/xlink" x="0px" y="0px"
	 viewBox="0 0 512 512" style="enable-background:new 0 0 512 512;" xml:space="preserve">
<path d="M0,56.7v399.5h512V56.7H0z M475.6,88.7L256,281.3L36.4,88.6L475.6,88.7z M480.1,268.5h-32.9l12.5,12.5l-12.4,12.6h32.8V321
	h-55.3l11.3,12.5L422.4,346h57.6v28.2h-81.8l12.5,12.5l-8,8l-4.5,4.5h81.8v25H32V128l224,190.7l224-190.8V268.5z M366.4,374.1
	l12.5,12.5l-12.5,12.5h15.9l12.5-12.5l-12.5-12.5H366.4z M350.4,374.1h-15.9l12.5,12.5l-12.5,12.5h15.9l12.5-12.5L350.4,374.1z
	 M408.8,320.9h-15.9l11.3,12.5L390.5,346h15.9l13.7-12.6L408.8,320.9z M376.9,320.9H361l11.3,12.5L358.6,346h15.9l13.7-12.6
	L376.9,320.9z M431.3,268.5h-15.9l12.5,12.5l-12.5,12.5h15.9l12.5-12.5L431.3,268.5z M399.4,268.5h-15.9L396,281l-12.5,12.5h15.9
	l12.5-12.5L399.4,268.5z"/>
</svg>
