<?xml version="1.0" encoding="utf-8"?>
<!-- Generator: Adobe Illustrator 21.1.0, SVG Export Plug-In . SVG Version: 6.00 Build 0)  -->
<svg version="1.1" id="Layer_4" xmlns="http://www.w3.org/2000/svg" xmlns:xlink="http://www.w3.org/1999/xlink" x="0px" y="0px"
	 viewBox="0 0 512 512" style="enable-background:new 0 0 512 512;" xml:space="preserve">
<g id="_x33_2">
	<path d="M480,298.6V480H32V299.4l224.1,134.3L480,298.6 M512,241.9L256,396.3L0,242.9V512h512V241.9L512,241.9z"/>
	<path d="M505.7,216.6l-73.4,44.6V81.9H80.1v179.6L6.3,216.6c-8.2-5.5-8.5-17.5-0.7-23.5l42.5-34.3V74.8C48.1,61,59.3,49.9,73,49.9
		h109.9l49.8-40.3c13.1-12.5,33.6-12.5,46.7,0l49.8,40.3h110.3c13.7,0,24.9,11.1,24.9,24.8v84.4l42.1,34
		C514.2,199.2,513.8,211.1,505.7,216.6z"/>
	<path d="M267.5,326.7v11.1h-20.3v-11c-29.2-2.3-55.1-21.8-55.1-59.3h35.5c0,16.6,7.1,26.3,19.6,29.8v-61
		c-35.8-15.2-51.8-34.1-51.8-58.1c0-27.8,23.3-50,51.8-50v-8.6h20.3v8.7c24.8,1.6,54.7,15.5,54.7,53h-35.5
		c-1.6-15.1-8-23.2-19.1-24.4v47.9l19.6,8.7c31.8,15.2,43.8,33.6,43.8,57.9C330.9,303.6,303.9,326.7,267.5,326.7z M267.5,245v53.5
		c14.4,0,28.3-8.9,28.3-23.7C295.8,262.2,286.4,252.3,267.5,245z M231,174c0,8,5.4,15.1,16.3,21.6V157C236.4,159,231,164.7,231,174z
		"/>
</g>
</svg>
