<?xml version="1.0" encoding="utf-8"?>
<!-- Generator: Adobe Illustrator 21.1.0, SVG Export Plug-In . SVG Version: 6.00 Build 0)  -->
<svg version="1.1" id="_x33_2" xmlns="http://www.w3.org/2000/svg" xmlns:xlink="http://www.w3.org/1999/xlink" x="0px" y="0px"
	 viewBox="0 0 298.8 512" style="enable-background:new 0 0 298.8 512;" xml:space="preserve">
<path d="M223.7,289.8h-147v-26.4h147V289.8z M244.8,248.1H55.6v-26.4h189.2V248.1z"/>
<path d="M277.5,131.4V0H21.7v131.4H0.4v248.8h49.9V446h41v22.6H64.6v14.9h26.7v8.7H75.7v14.9h15.6v4.8h116.8v-4.8h15.6v-14.9h-15.6
	v-8.7h26.7v-14.9h-26.7V446h41v-65.9h49.9V131.4H277.5z M48.1,26.4h203v105h-22V55.6h-26.4v75.7h-18.5V55.6h-26.4v75.7h-17.3V55.6
	h-26.4v75.7H98.4V55.6H72.1v75.7h-24V26.4z M267.1,348.1h-49.9V414h-41V480h-52.8V414h-41v-65.9H32.4V163.4h234.7V348.1z"/>
</svg>
