<?xml version="1.0" encoding="utf-8"?>
<!-- Generator: Adobe Illustrator 21.1.0, SVG Export Plug-In . SVG Version: 6.00 Build 0)  -->
<svg version="1.1" id="Layer_1" xmlns="http://www.w3.org/2000/svg" xmlns:xlink="http://www.w3.org/1999/xlink" x="0px" y="0px"
	 viewBox="0 0 545.2 512" style="enable-background:new 0 0 545.2 512;" xml:space="preserve">
<style type="text/css">
	.st0{fill:#010101;}
</style>
<g id="_x33_2">
	<path d="M367.2,48c21.9,21.1,43.3,43,64.1,64.3c24.3,24.9,49.2,50.5,75.3,75.1c-7,14.1-17.2,27.7-31.1,41.6
		c-26.5,26.5-62.5,50.4-104.2,78.1c-52.1,34.5-111.1,73.7-165.6,128.3c-8.8,8.8-17.4,17.9-25.4,27c-0.7,0.7-1.3,1.5-2,2.2
		c-34-33.2-96.9-95.7-138-140.9c7.8-11.1,17.6-22.5,29.4-34.3c35-35,83.5-68.9,130.4-101.7c49.6-34.7,100.8-70.5,140.3-110
		C350.5,67.7,359.4,57.8,367.2,48 M362.5,0.3c-0.4,0-0.8,0.2-1.2,0.6c-0.4,0.4-0.8,0.9-1.2,1.6c-11,18.3-25.4,35.7-42.2,52.5
		c-74.8,74.8-196.7,137.7-270.7,211.8c-19.4,19.3-35.4,39.3-46.5,60.5c54.8,63.5,179.6,184.3,180.4,184.3l0,0
		c7.5-9.7,15.3-19,23.2-27.9s15.9-17.4,24.1-25.6c95.2-95.2,206-142.5,269.8-206.3c21.6-21.6,37.8-45,46.3-72.9
		C481.7,121.8,426.8,58.2,364.1,1.2l-0.6-0.4C363.1,0.5,362.8,0.3,362.5,0.3L362.5,0.3z"/>
	<path d="M347.1,239.3l20.7,20.7c31.9-21.3,59.9-40.6,81.4-60.9L426,176C402,198.1,374.9,219.1,347.1,239.3z"/>
	<path d="M359.2,109.1c-24,22.2-51,43.1-78.9,63.4l20.7,20.7c31.9-21.3,59.9-40.6,81.4-60.9L359.2,109.1z"/>
	<path class="st0" d="M209.5,364.6c-5.7,5.6-13.9,7.8-22.5,5.8c-5.3-1.4-10.6-4-15.3-7.6l26.3-24.9l-8-12.6l-29.4,27.7
		c-1.6-1.8-3-3.4-4.5-5.1c-1.4-1.7-2.8-3-3.8-4.1l30.8-29.3l-8-12.6l-31.9,30.2c-3.1-5.1-5.2-10.5-6-15.9
		c-1.3-8.9,1.6-17.2,7.6-22.5c4.8-5.4,12-8.2,19.9-7.4l-15.2-22.8c-7.9,2.1-15,6-20.5,11.7c-11.3,9.7-17,24.9-15.3,41.4
		c1,11.1,5.2,22.5,11.9,32.5l-6.7,6.5l8,12.6l7.6-7.3c1.6,1.7,3.2,3.5,5.2,5.7c1.2,1.3,2.3,2.6,3.2,3.6l-5.6,5.4l8,12.6l8.5-8.2
		c9.6,7.6,20.6,12.8,31.6,14.6c15.7,2.6,30.3-1.7,40.4-12c6.1-5.7,10.5-13,12.8-21.4l-19.8-21.6
		C220.1,349.7,216.4,358.8,209.5,364.6z"/>
</g>
</svg>
