<?xml version="1.0" encoding="utf-8"?>
<!-- Generator: Adobe Illustrator 21.1.0, SVG Export Plug-In . SVG Version: 6.00 Build 0)  -->
<svg version="1.1" id="Layer_1" xmlns="http://www.w3.org/2000/svg" xmlns:xlink="http://www.w3.org/1999/xlink" x="0px" y="0px"
	 viewBox="0 0 152.9 512" style="enable-background:new 0 0 152.9 512;" xml:space="preserve">
<g>
	<circle cx="38.5" cy="473.5" r="38.5"/>
	<path d="M146.9,22.4C143,7.3,138.9,0,134.6,0c-3.6,0-17.3,5.5-40.7,16.4C70.4,27.2,79.4,35.2,80.6,39.5c11,40.4,4.6,97.2,0.9,113.8
		C77,179.6,32.3,296.3,28.5,318c-4.6,26.7-5.2,52.6,8.3,76.5c9.6-3.3,14.6-6.3,14.6-8.6c0-1.3-0.5-5.3-1.4-12.1
		c-3.5-23.1,2.1-41.3,8.6-57.7c11.6-28.9,72.6-124.8,81.9-165.2C148.7,124.9,160,60.8,146.9,22.4z"/>
</g>
</svg>
