<?xml version="1.0" encoding="utf-8"?>
<!-- Generator: Adobe Illustrator 22.0.1, SVG Export Plug-In . SVG Version: 6.00 Build 0)  -->
<svg version="1.1" id="Layer_1" xmlns="http://www.w3.org/2000/svg" xmlns:xlink="http://www.w3.org/1999/xlink" x="0px" y="0px"
	 viewBox="0 0 512 512" style="enable-background:new 0 0 512 512;" xml:space="preserve">
<g>
	<path d="M462,0.5H50c-27.6,0-50,22.4-50,50v412c0,27.6,22.4,50,50,50h412c27.6,0,50-22.4,50-50v-412C512,22.9,489.6,0.5,462,0.5z
		 M480,462.5c0,9.9-8,18-18,18c-2.4,0-410.6,0-412,0c-10,0-18-8.1-18-18c0-0.6,0-389,0-412c0-10,8-18,18-18c0.1,0,42.9,0,43,0
		c7.9-0.7,367.6,0,369,0c10,0,18,8,18,18C480,51.8,480,460.5,480,462.5z"/>
	<circle cx="235.9" cy="371.3" r="34.4"/>
	<path d="M250.5,310.8c0-0.7-0.3-2.8-0.8-6.4c-0.5-3.6-0.8-5.7-0.8-6.2c0-7.5,2-15.5,5.8-24.1c3.8-8.6,11.5-21.7,23.2-39.5
		c11.5-17.7,19.7-33.6,24.5-47.4c4.8-13.8,7.1-27.5,7.1-41c0-9.9-1.2-18.8-3.4-26.6c-2.3-7.9-4.6-11.8-7.1-11.8
		c-2.1,0-10.1,2.9-23.7,8.6c-13.6,5.7-20.5,9.8-20.5,12.2c0,0.8,0.7,4.1,1.9,10.1c1.2,5.8,1.9,13,1.9,21.2c0,10.3-1.1,19.9-3.2,28.6
		c-2.1,8.9-6.9,22.5-14.2,41c-7.3,18.5-10.9,33.8-10.9,45.5c0,14.3,4,27.7,11.8,40.3C247.6,313.6,250.5,312,250.5,310.8L250.5,310.8
		z"/>
</g>
</svg>
