<?xml version="1.0" encoding="utf-8"?>
<!-- Generator: Adobe Illustrator 22.0.1, SVG Export Plug-In . SVG Version: 6.00 Build 0)  -->
<svg version="1.1" id="Layer_1" xmlns="http://www.w3.org/2000/svg" xmlns:xlink="http://www.w3.org/1999/xlink" x="0px" y="0px"
	 viewBox="0 0 512 512" style="enable-background:new 0 0 512 512;" xml:space="preserve">
<g>
	<path d="M462,0.5H50c-27.6,0-50,22.4-50,50v412c0,27.6,22.4,50,50,50h412c27.6,0,50-22.4,50-50v-412C512,22.9,489.6,0.5,462,0.5z
		 M480,462.5c0,9.9-8,18-18,18c-2.4,0-410.6,0-412,0c-10,0-18-8.1-18-18c0-0.6,0-389,0-412c0-10,8-18,18-18c0.1,0,42.9,0,43,0
		c7.9-0.7,367.6,0,369,0c10,0,18,8,18,18C480,51.8,480,460.5,480,462.5z"/>
	<path d="M258,343.4c-17.3,0-31.3,14-31.3,31.1c0,17.2,14.1,31.1,31.3,31.1s31.3-14,31.3-31.1S275.3,343.4,258,343.4z"/>
	<path d="M242.9,315.5c0,6.8,0.4,9.7,1.8,11.8c1.8,2.8,5,3.2,7.5,3.2h10.5c2.3,0,5.6-0.4,7.6-3.3c1.5-2.1,1.9-5.2,1.9-13
		c0.1-5.5,2.8-27.7,7.8-66c11.9-89,11.9-96.8,11.9-99.4c0-10.8-2.9-20.3-8.5-28.5c-5.8-8.3-14.1-12.5-24.7-12.5
		c-10.9,0-19.6,3.9-25.7,11.5c-6.2,7.5-9.4,17-9.4,27.9c0,1.6,0,6.1,8.4,73.8C241.5,294.4,242.9,311.7,242.9,315.5z"/>
</g>
</svg>
