<?xml version="1.0" encoding="utf-8"?>
<!-- Generator: Adobe Illustrator 21.1.0, SVG Export Plug-In . SVG Version: 6.00 Build 0)  -->
<svg version="1.1" id="Layer_1" xmlns="http://www.w3.org/2000/svg" xmlns:xlink="http://www.w3.org/1999/xlink" x="0px" y="0px"
	 viewBox="0 0 512 512" style="enable-background:new 0 0 512 512;" xml:space="preserve">
<g id="_x33_2">
	<path d="M256,0C114.6,0,0,114.6,0,256s114.6,256,256,256s256-114.6,256-256S397.4,0,256,0z M256,480C132.3,480,32,379.7,32,256
		S132.3,32,256,32s224,100.3,224,224S379.7,480,256,480z"/>
	<circle cx="247" cy="346" r="26"/>
	<path d="M258,300.3c0-0.5-0.2-2.1-0.6-4.8c-0.4-2.7-0.6-4.3-0.6-4.7c0-5.7,1.5-11.7,4.4-18.2c2.9-6.5,8.7-16.4,17.5-29.8
		c8.7-13.4,14.9-25.4,18.5-35.8c3.6-10.4,5.4-20.8,5.4-31c0-7.5-0.9-14.2-2.6-20.1c-1.7-6-3.5-8.9-5.4-8.9c-1.6,0-7.6,2.2-17.9,6.5
		c-10.3,4.3-15.5,7.4-15.5,9.2c0,0.6,0.5,3.1,1.4,7.6c0.9,4.4,1.4,9.8,1.4,16c0,7.8-0.8,15-2.4,21.6c-1.6,6.7-5.2,17-10.7,31
		c-5.5,14-8.2,25.5-8.2,34.4c0,10.8,3,20.9,8.9,30.4C255.8,302.4,258,301.2,258,300.3L258,300.3z"/>
</g>
</svg>
