<?xml version="1.0" encoding="utf-8"?>
<!-- Generator: Adobe Illustrator 21.1.0, SVG Export Plug-In . SVG Version: 6.00 Build 0)  -->
<svg version="1.1" id="Layer_1" xmlns="http://www.w3.org/2000/svg" xmlns:xlink="http://www.w3.org/1999/xlink" x="0px" y="0px"
	 viewBox="0 0 90.1 512" style="enable-background:new 0 0 90.1 512;" xml:space="preserve">
<g>
	<g>
		<path d="M83.7,20.6C76.2,7.6,60.7,1,46.6,1c-14.8,0-30.9,6.1-39,18.3s-7.4,26.8-7.4,44c0,7,4.3,52.2,12.8,135.6
			C24.1,304.6,29.6,340,29.6,352.8c0,8.6,0.4,20.2,1.1,21.5c0.7,1.4,2.7,2.1,6,2.1h16c3.3,0,5.3-0.8,6.1-2.3
			c0.8-1.5,1.2-13.8,1.2-23.8c0.2-10.9,4.2-28.6,12.1-100.7c12-110.1,18-171.2,18-183.3C90.1,49,91.1,33.7,83.7,20.6z M44.7,437.4
			c-20.2,0-36.6,16.4-36.6,36.7c0,20.3,16.4,36.7,36.6,36.7s36.6-16.4,36.6-36.7C81.3,453.8,65,437.4,44.7,437.4z"/>
	</g>
</g>
</svg>
