<?xml version="1.0" encoding="utf-8"?>
<!-- Generator: Adobe Illustrator 22.0.1, SVG Export Plug-In . SVG Version: 6.00 Build 0)  -->
<svg version="1.1" id="Layer_1" xmlns="http://www.w3.org/2000/svg" xmlns:xlink="http://www.w3.org/1999/xlink" x="0px" y="0px"
	 viewBox="0 0 512 512" style="enable-background:new 0 0 512 512;" xml:space="preserve">
<g id="_x33_2">
	<path d="M256,0C114.6,0,0,114.6,0,256s114.6,256,256,256s256-114.6,256-256S397.4,0,256,0z M256,480C132.3,480,32,379.7,32,256
		S132.3,32,256,32s224,100.3,224,224S379.7,480,256,480z"/>
</g>
<path d="M256.8,336.6c-16.1,0-29.1,13-29.1,28.9c0,16,13.1,28.9,29.1,28.9s29.1-13,29.1-28.9S272.9,336.6,256.8,336.6z"/>
<path d="M242.8,310.7c0,6.3,0.4,9,1.7,11c1.7,2.6,4.6,3,7,3h9.8c2.1,0,5.2-0.4,7.1-3.1c1.4-2,1.8-4.8,1.8-12.1
	c0.1-5.1,2.6-25.8,7.3-61.4c11.1-82.8,11.1-90,11.1-92.4c0-10-2.7-18.9-7.9-26.5c-5.4-7.7-13.1-11.6-23-11.6
	c-10.1,0-18.2,3.6-23.9,10.7c-5.8,7-8.7,15.8-8.7,25.9c0,1.5,0,5.7,7.8,68.6C241.5,291.1,242.8,307.1,242.8,310.7z"/>
</svg>
