<?xml version="1.0" encoding="utf-8"?>
<!-- Generator: Adobe Illustrator 21.1.0, SVG Export Plug-In . SVG Version: 6.00 Build 0)  -->
<svg version="1.1" id="Layer_1" xmlns="http://www.w3.org/2000/svg" xmlns:xlink="http://www.w3.org/1999/xlink" x="0px" y="0px"
	 viewBox="0 0 511 512" style="enable-background:new 0 0 511 512;" xml:space="preserve">
<polygon points="511.5,346.1 478.9,346.1 478.9,456.6 278.2,255.9 478.8,55.3 478.3,165.8 511,165.7 511.2,0 345.7,0.1 345.7,32.7 
	456.2,32.7 255.6,233.3 54.9,32.8 165.4,33.1 165.3,0.4 -0.4,0.4 -0.3,165.9 32.3,165.9 32.3,55.4 233,255.9 32.4,456.7 32.7,346.2 
	0,346.3 0,512 165.5,511.9 165.5,479.3 55,479.3 255.6,278.5 456.3,479.2 345.8,478.7 345.9,511.4 511.6,511.6 "/>
</svg>
