<?xml version="1.0" encoding="utf-8"?>
<!-- Generator: Adobe Illustrator 21.1.0, SVG Export Plug-In . SVG Version: 6.00 Build 0)  -->
<svg version="1.1" id="Layer_6" xmlns="http://www.w3.org/2000/svg" xmlns:xlink="http://www.w3.org/1999/xlink" x="0px" y="0px"
	 viewBox="0 0 543.9 512" style="enable-background:new 0 0 543.9 512;" xml:space="preserve">
<g>
	<path d="M431,462.5c0,9.9-8.1,18-18,18H50c-9.9,0-18-8.1-18-18v-362c0-9.9,8.1-18,18-18h240.8l18.5-32H50c-27.6,0-50,22.4-50,50
		v362c0,27.6,22.4,50,50,50h363c27.6,0,50-22.4,50-50V205l-32,23.2V462.5z"/>
	<g>
		<path d="M511.9,32.3l0,70.7l-25.8-24.6l-7.8-7.5l-12.1-12.6l-25.1-26H511.9 M543.9,0.3H377.8c-4.5,0-6.8,5.4-3.7,8.6l69,71.6
			L228.5,295.7l20.9,21L464,101.5l71.2,68c1,1,2.3,1.4,3.5,1.4c2.6,0,5.1-2,5.1-5.1L543.9,0.3L543.9,0.3z"/>
	</g>
</g>
</svg>
