<?xml version="1.0" encoding="utf-8"?>
<!-- Generator: Adobe Illustrator 21.1.0, SVG Export Plug-In . SVG Version: 6.00 Build 0)  -->
<svg version="1.1" id="Layer_6" xmlns="http://www.w3.org/2000/svg" xmlns:xlink="http://www.w3.org/1999/xlink" x="0px" y="0px"
	 viewBox="0 0 543.9 512" style="enable-background:new 0 0 543.9 512;" xml:space="preserve">
<g>
	<path d="M431,462.5c0,9.9-8.1,18-18,18H50c-9.9,0-18-8.1-18-18v-362c0-9.9,8.1-18,18-18h240.8l18.5-32H50c-27.6,0-50,22.4-50,50
		v362c0,27.6,22.4,50,50,50h363c27.6,0,50-22.4,50-50V205l-32,23.2V462.5z"/>
	<path d="M543.9,0.3L365.8,0.3l-0.1,31.9l125.5,0.2L228.5,295.7l20.9,21L512.1,53.4v124.4l31.7-0.1L543.9,0.3z"/>
</g>
</svg>
