<?xml version="1.0" encoding="utf-8"?>
<!-- Generator: Adobe Illustrator 21.1.0, SVG Export Plug-In . SVG Version: 6.00 Build 0)  -->
<svg version="1.1" id="Layer_6" xmlns="http://www.w3.org/2000/svg" xmlns:xlink="http://www.w3.org/1999/xlink" x="0px" y="0px"
	 viewBox="0 0 512 512" style="enable-background:new 0 0 512 512;" xml:space="preserve">
<g>
	<path d="M462,0H50C22.4,0,0,22.4,0,50v412c0,27.6,22.4,50,50,50h412c27.6,0,50-22.4,50-50V50C512,22.4,489.6,0,462,0z M480,462
		c0,9.9-8,18-18,18c-2.4,0-410.6,0-412,0c-10,0-18-8.1-18-18c0-0.6,0-389,0-412c0-10,8-18,18-18c0.1,0,42.9,0,43,0
		c7.9-0.7,367.6,0,369,0c10,0,18,8,18,18C480,51.3,480,460,480,462z"/>
	<path d="M375.6,137.9v70.7L349.8,184l-7.8-7.5l-12.1-12.6l-25.1-26H375.6 M407.6,105.9H241.5c-4.5,0-6.8,5.4-3.7,8.6l69,71.6
		L117.1,376.5l20.9,21l189.7-190.3l71.2,68c1,1,2.3,1.4,3.5,1.4c2.6,0,5.1-2,5.1-5.1L407.6,105.9L407.6,105.9z"/>
</g>
</svg>
