<?xml version="1.0" encoding="utf-8"?>
<!-- Generator: Adobe Illustrator 21.1.0, SVG Export Plug-In . SVG Version: 6.00 Build 0)  -->
<svg version="1.1" id="Layer_1" xmlns="http://www.w3.org/2000/svg" xmlns:xlink="http://www.w3.org/1999/xlink" x="0px" y="0px"
	 viewBox="0 0 578.9 512" style="enable-background:new 0 0 578.9 512;" xml:space="preserve">
<g id="_x33_2">
	<path d="M389.8,263.2c0,13.1-2.5,25.6-7.1,37.1c-4.4-13.3-16.9-22.9-31.6-22.9c-18.4,0-33.3,14.9-33.3,33.3
		c0,17.7,13.8,32.2,31.1,33.3c-16.6,12.2-37.1,19.4-59.3,19.4c-55.4,0-100.3-44.9-100.3-100.2c0-55.4,44.9-100.3,100.3-100.3
		C344.9,162.9,389.8,207.8,389.8,263.2z"/>
	<path d="M289.4,99.8c108.3,0,196.9,79.1,251.3,156.4c-36.5,57.9-130.1,156.3-251,156.3c-117.7,0-207-94.1-251.8-156.7
		C66.9,213.3,156.7,99.8,289.4,99.8 M289.4,67.8C106.5,67.8,0,255.8,0,255.8v0.4c0,0,109.4,188.4,289.7,188.4
		c179.8,0,285.2-181.9,289-188.6C574.9,249.5,466,67.8,289.4,67.8L289.4,67.8z M578.9,255.8c0,0-0.1,0.1-0.1,0.2
		c0.1,0.1,0.1,0.2,0.1,0.2L578.9,255.8C578.9,255.9,578.9,255.8,578.9,255.8L578.9,255.8z"/>
</g>
</svg>
