<?xml version="1.0" encoding="utf-8"?>
<!-- Generator: Adobe Illustrator 21.1.0, SVG Export Plug-In . SVG Version: 6.00 Build 0)  -->
<svg version="1.1" id="Layer_3" xmlns="http://www.w3.org/2000/svg" xmlns:xlink="http://www.w3.org/1999/xlink" x="0px" y="0px"
	 viewBox="0 0 512 512" style="enable-background:new 0 0 512 512;" xml:space="preserve">
<g>
	<path d="M248.3,63.9h142.1v21.6H248.3V63.9z M248.3,106.8h142.1v21.6H248.3V106.8z M254.5,423.1c-4.6,4.6-11,7.5-18.1,7.5
		c-14.1,0-25.6-11.5-25.6-25.6c0-7.1,2.9-13.5,7.5-18.1c4.6-4.6,11-7.5,18.1-7.5c7.1,0,13.5,2.9,18.1,7.5c4.6,4.6,7.5,11,7.5,18.1
		C262,412.1,259.2,418.5,254.5,423.1z M254.5,342.8c-4.6,4.6-11,7.5-18.1,7.5c-14.1,0-25.6-11.5-25.6-25.6c0-7.1,2.9-13.5,7.5-18.1
		c4.6-4.6,11-7.5,18.1-7.5c7.1,0,13.5,2.9,18.1,7.5c4.6,4.6,7.5,11,7.5,18.1C262,331.8,259.2,338.2,254.5,342.8z M344.8,423.1
		c-4.6,4.6-11,7.5-18.1,7.5c-14.1,0-25.6-11.5-25.6-25.6c0-7.1,2.9-13.5,7.5-18.1c4.6-4.6,11-7.5,18.1-7.5c7.1,0,13.5,2.9,18.1,7.5
		c4.6,4.6,7.5,11,7.5,18.1C352.3,412.1,349.5,418.5,344.8,423.1z M344.8,342.8c-4.6,4.6-11,7.5-18.1,7.5
		c-14.1,0-25.6-11.5-25.6-25.6c0-7.1,2.9-13.5,7.5-18.1s11-7.5,18.1-7.5c7.1,0,13.5,2.9,18.1,7.5c4.6,4.6,7.5,11,7.5,18.1
		C352.3,331.8,349.5,338.2,344.8,342.8z M435.2,423.1c-4.6,4.6-11,7.5-18.1,7.5c-14.1,0-25.6-11.5-25.6-25.6
		c0-7.1,2.9-13.5,7.5-18.1c4.6-4.6,11-7.5,18.1-7.5c7.1,0,13.5,2.9,18.1,7.5c4.6,4.6,7.5,11,7.5,18.1
		C442.7,412.1,439.8,418.5,435.2,423.1z M435.2,342.8c-4.6,4.6-11,7.5-18.1,7.5c-14.1,0-25.6-11.5-25.6-25.6
		c0-7.1,2.9-13.5,7.5-18.1s11-7.5,18.1-7.5c7.1,0,13.5,2.9,18.1,7.5c4.6,4.6,7.5,11,7.5,18.1C442.7,331.8,439.8,338.2,435.2,342.8z
		 M442.7,269H210.8v-44.3h231.8V269z"/>
	<path d="M492.6,161.1h-43.5l0-161.1H189.6l0,161.1h-32.6c-0.6-6.2-5.8-11-12.1-11H60.6c-6.3,0-11.5,4.8-12.1,11h-29
		C8.7,161.1,0,169.8,0,180.5v287.3c0,10.7,8.7,19.4,19.4,19.4h29v12c0,6.7,5.4,12.2,12.2,12.2h84.2c6.7,0,12.2-5.4,12.2-12.2v-12
		h335.6c10.7,0,19.4-8.7,19.4-19.4V180.5C512,169.8,503.3,161.1,492.6,161.1z M221.7,32.2H417l0,128.9H221.7L221.7,32.2z
		 M32.1,455.1V193.2h16.3v261.9H32.1z M479.9,455.1H157V193.2h322.9V455.1z"/>
</g>
</svg>
