<?xml version="1.0" encoding="utf-8"?>
<!-- Generator: Adobe Illustrator 21.1.0, SVG Export Plug-In . SVG Version: 6.00 Build 0)  -->
<svg version="1.1" id="Layer_2" xmlns="http://www.w3.org/2000/svg" xmlns:xlink="http://www.w3.org/1999/xlink" x="0px" y="0px"
	 viewBox="0 0 505 512" style="enable-background:new 0 0 505 512;" xml:space="preserve">
<path d="M504,2c-39,31-143,41-214,65c-34,7-50.6,50.3-50,47c5-29,3-26,0-25c-38,11-69.4,41.1-101,75c-14,15-17,61-21,72
	c-1-30,1.7-52.3-3-47c-8.6,9.8-29.9,35.5-34.1,41.6c-48.1,71.5-9.4,175.4-11.7,178.9C63.7,417.7,0.4,506.9,0,512h22
	c0,0,19.8-42,63.9-91.4c8.8-9.9,144-30,186.9-72.2c26-25.5,31.3-36.3,52.2-65.4c1.1-1.5,17.2-7.7,39.7-22.1
	c13.3-8.5,28.8-19.9,44.8-34.9c28.8-27,59-65.7,80.2-120.3C493.3,98.4,508,58,504,2z M460.9,91.9l-0.5,1.1l-0.5,1.2
	c-17.6,45.4-44,83.8-78.5,114.2c-27.6,24.3-53.2,37-64.2,42.4c-7.3,3.6-13.1,6.5-18.1,13.4c-4.7,6.5-8.6,12.1-12.1,17.1
	c-11.9,17-18.4,26.3-36.6,44.2c-6.3,6.2-20.9,16.1-54.3,28.1c-25.5,9.2-53.5,16.5-76,22.4c-3.7,1-7.2,1.9-10.4,2.7
	c22.4-30.2,67.4-89.8,78.4-101.1C206.3,259,310,153,310,153c-17.9,0.7-90,71-111.7,89.8c-32.2,27.8-85.5,92.2-105.5,122
	c-2-11.7-3.8-25.3-4.1-39.7c-0.7-31.4,5.6-57.2,18.7-76.7c2.4-3.6-2.5,27.5,8.5,43.5c6-41,17.4-74.6,23.4-81.1l0.6-0.6l0.5-0.6
	c23-27.7,59.6-60.9,85.8-78.1c6.5-4.3-9.3,60.5-0.3,59.5c12-3,33-80,53.1-83.4l0.6-0.2l0.6-0.2c38.3-14.8,83.7-26.7,120.2-35.4
	c25.5-6.1,49.2-11.8,70.1-18.6C467.2,77,461.2,91.4,460.9,91.9z"/>
</svg>
