<?xml version="1.0" encoding="utf-8"?>
<!-- Generator: Adobe Illustrator 21.1.0, SVG Export Plug-In . SVG Version: 6.00 Build 0)  -->
<svg version="1.1" id="Layer_4" xmlns="http://www.w3.org/2000/svg" xmlns:xlink="http://www.w3.org/1999/xlink" x="0px" y="0px"
	 viewBox="0 0 705 512" style="enable-background:new 0 0 705 512;" xml:space="preserve">
<g>
	<path d="M240.4,13.6c-13.5-8.6-29-13.4-45.5-13.4c-23.1,0-44.2,9.6-60.7,25.4l-0.1,0.1c-21.1,20.4-34.6,51.2-34.6,85.7
		c0,9.1,0.4,22.1,0.9,36.6c0.7,22,1.5,47.5,0.8,68.3c-0.9,28.8-6.9,47.3,2.5,47.3h9.8C47.8,282.6,2,322.2,0.1,364.9
		C0,365.8,0,366.7,0,367.7c0,34.8,29.4,51.6,75.1,59.5c0.6-7.3,2.3-14.4,4.9-21.3c1.3-3.5,2.9-7,4.7-10.5
		c-7.4-1.1-14.3-2.5-20.6-4.1C47.7,387,40,382,36.3,378.6c-3-2.7-4.8-5.7-4.8-11.9c0.1-11.8,7.5-25.1,20.8-37.5
		c16.2-15,40.4-27.7,67.9-35.8l43.3-12.7c-13.7-5.8-25.5-15.7-34.3-28.2l16-15.8c0.6,0.9,1.2,1.7,1.8,2.6l1.6-1.6
		c8.1,11.9,19.8,20.7,33.5,24.5c3.7,1,7.6,1.6,11.5,1.9c0.2-2.9,0.3-6,0.5-9.3c0.2-6.1,0.3-12.6,0.3-19.2v-0.7
		c-0.9,0.1-1.9,0.1-2.8,0.1c-8.6,0-16.8-2.6-24.4-7.3c-13-7.9-24.2-21.6-32-37.8c-4.3-8.9-7.7-18.5-9.7-28.3h-0.8
		c-3.8,0-8-12.5-9-22.5c-0.1-0.4-0.1-0.8-0.1-1.2c-0.1-1.1-0.1-2.1-0.1-3.1c0-6.3,2.5-11.5,5.9-13c0.1-0.1,0.3-0.1,0.4-0.2
		c0.5-0.2,1.1-0.3,1.6-0.3c0.5,0,0.9,0.1,1.3,0.2c0.1,0,0.3,0.1,0.4,0.1c0.1,0,0.1,0,0.1,0.1h0c1-1,1.9-2,2.7-2.9
		c0.3-0.3,0.6-0.7,0.9-1h0c12.9-14.6,9.3-17.9,10-47.2c7.2,19.8,23.8,26.8,41,28.7c6.9-5.6,13.3-10.1,19.1-13.7
		c1.5-4.8,3.2-9.4,5.2-13.9c8.9-23.3,23.6-41.7,42.3-54.1C244.4,16.3,242.4,14.9,240.4,13.6z"/>
	<path d="M590.9,263.5c1.2,0,2.2,0.1,3,0.2c6.7,0.5,7.8-5,7.3-15.7c0-0.6-2-28.1-2.2-32.5c-0.7-19.6,0.5-44.5,1.5-67.9h0.2
		c0.6-12.9,1-25.3,1-36.1c0-11.2-1.5-21.9-4.2-32.1C585.6,33.6,549.1,0.3,506,0.3c-33.9,0-55,20.2-56.2,21c0,0,0.5,0.5,1.2,1.1
		c23.9,17.6,41.7,45.5,48.9,78.2c17.2,0.4,33.7-3.1,41-3c11.1,0.1,28.2,1,29.8,25.5c0.5-0.5,2-1.7,4.2-1.4c5.3,0.8,7.2,9.2,7.1,13.3
		c0,6.6-1.6,12.5-1.6,12.5c-1.8,7.5-4.8,14.3-7.7,14.3c-1.3,0-2.7-0.2-3.9-1.1c-0.4,2.1-0.9,4.2-1.4,6.3
		c-6.7,26.2-22.2,50.3-41.6,61.5c-6,3.4-12.4,5.6-19,6.3c0,0,0,0,0,0c0,6.7,0,13,0.2,19c0.1,3.6,0.3,7,0.5,10.4c0.2,0,0.4,0,0.5,0
		c19.9,0,37.6-10.5,48.3-26.5l16.4,15.8c-9,12.6-21.1,22.5-35.1,28.2l44.3,12.7c28.2,8.1,52.9,20.7,69.5,35.8
		c13.7,12.4,21.1,25.6,21.1,37.4c0,6.2-1.9,9.2-4.9,11.9c-3.7,3.4-11.8,8.4-28.6,12.7c-5.2,1.3-11,2.5-16.9,3.5
		c5.2,10.1,8.6,20.4,9.5,31c0,0,0,0,0,0c1.3-0.2,13.6-2.8,15.5-3.4c35.6-9.1,57.8-25.7,57.8-55.8C705,323.9,658.2,282.8,590.9,263.5
		z"/>
</g>
<path d="M451.2,310.7c1.4,0.1,2.6,0.1,3.5,0.2c0.3,0,0.7,0,1,0c12.6,0,6.2-21,4.9-56.9c-1.3-35.8,3-87,3-122.7
	C463.7,58.8,413.3,0,351,0S238.3,58.7,238.3,131.2c0,26.8,3.3,82.9,2,123.8c-1.1,33.9-8.2,55.9,3,55.9c1.9,0,5.8,0,11.5-0.1
	c-78.7,22.8-133.5,71.2-133.5,122.7c0,71.1,103.8,78.3,231.3,78.4h1c64-0.1,122-1.9,164.1-12.7c42.1-10.7,68.2-30.3,68.2-65.9
	C585.8,381.8,530.6,333.3,451.2,310.7z M425.2,189.3c-9.2,45.3-40.7,87.8-78.1,87.8c-37.2,0-68.4-41.7-77.8-86.5c-0.3,0-0.7,0-1,0
	c-3.3,0-6.8-7.8-8.9-16.6l0.1,0c-1.3-5.1-2-10.6-2-15.1c0-0.6,0-1.1,0.1-1.7c0.1-1.1,0.3-2.5,0.6-4.2c1.4-5.8,4.8-9.8,8.7-9.8
	c0.8,0,1.5,0.2,2.1,0.5c20.2-21.2,15.1-22.6,16-59.6c18.4,49.9,88.4,30.3,107.1,30.5c12.7,0.1,32,1.1,35,27.5
	c0.1,0.9,0.1,1.9,0.2,2.8c0,0,0,0,0,0c0,0,0,0,0,0c1.2-1.1,2.5-1.7,4-1.7c5.2,0,9.3,7.1,9.4,15.8c0.1,12.1-5.7,31.6-10.9,31.6
	C428.4,190.6,426.7,190.4,425.2,189.3z M429.9,298.9c-17.6,24.6-45.3,40.4-76.4,40.4s-58.8-15.8-76.4-40.4l19.3-18.6
	c12.8,18.9,33.5,31.2,57.1,31.2c23.5,0,44.3-12.3,57.1-31.2L429.9,298.9z M545.9,451.8c-4.9,4.4-15.2,10.9-36.2,16.2
	c-39.7,10.1-98.6,11.6-156.2,11.7h-0.9c-57.4-0.1-116-1.5-155.5-11.7c-20.8-5.3-31-11.8-35.9-16.2c-5.4-4.9-7.7-10.3-7.7-18.4
	c0-19.9,14.5-37.3,26.7-48.3c20-18.2,49.7-33.7,83.6-43.5l6.9-2c23,20.4,52,31.7,82.9,31.7c30.8,0,59.8-11.3,82.7-31.6l6.1,1.7
	c34.1,9.8,64,25.2,84.3,43.5c12.3,11.1,26.9,28.5,26.9,48.4C553.5,441.6,551.3,446.9,545.9,451.8z"/>
</svg>
