<?xml version="1.0" encoding="utf-8"?>
<!-- Generator: Adobe Illustrator 21.1.0, SVG Export Plug-In . SVG Version: 6.00 Build 0)  -->
<svg version="1.1" id="Layer_1" xmlns="http://www.w3.org/2000/svg" xmlns:xlink="http://www.w3.org/1999/xlink" x="0px" y="0px"
	 viewBox="0 0 463.9 512" style="enable-background:new 0 0 463.9 512;" xml:space="preserve">
<g>
	<path d="M329.5,310.9c1.4,0.1,2.6,0.1,3.5,0.2c0.3,0,0.7,0,1,0c12.6,0,6.2-21,4.9-56.8c-1.3-35.8,3-86.9,3-122.6
		c0-72.3-50.4-131-112.5-131s-112.5,58.6-112.5,131c0,26.7,3.3,82.8,2,123.6c-1.1,33.9-8.1,55.8,3,55.8c1.9,0,5.8,0,11.5-0.1
		C54.6,333.8,0,382.1,0,433.7c0,71,103.7,78.2,231,78.3h1c64-0.1,121.9-1.9,163.9-12.7c42-10.7,68.1-30.3,68.1-65.8
		C463.8,382,408.7,333.6,329.5,310.9z M303.6,189.8c-9.2,45.2-40.6,87.7-78,87.7c-37.1,0-68.3-41.6-77.7-86.4c-0.3,0-0.7,0-1,0
		c-5.2,0-11-19.5-10.9-31.6c-0.1-6,1.9-11.2,4.8-13.9c1.3-1.2,2.8-1.9,4.4-1.9c0.8,0,1.5,0.2,2.1,0.5c20.1-21.3,15.1-22.7,16-59.9
		c18.4,50.2,88.2,30.5,106.8,30.7c13.1,0.1,33.3,1.2,35.2,30.5c0.1-0.1,0.2-0.1,0.3-0.2c0,0.1,0,0.1,0,0.2c1.2-1.1,2.4-1.7,3.9-1.7
		c5.2,0.1,9.2,7.1,9.3,15.8c0,4.5-0.7,10-2,15.2h0.3c-2.1,8.7-5.6,16.4-8.8,16.4C306.7,191.1,305,190.9,303.6,189.8z M308.2,299.1
		c-17.6,24.5-45.2,40.3-76.3,40.3c-31.1,0-58.7-15.8-76.3-40.3l19.3-18.6c12.8,18.9,33.5,31.2,57,31.2c23.4,0,44.2-12.3,57-31.2
		L308.2,299.1z M424,452c-4.9,4.4-15.2,10.9-36.1,16.2c-39.6,10.1-98.4,11.6-156,11.7h-0.9c-57.3-0.1-115.8-1.5-155.3-11.7
		c-20.8-5.3-31-11.8-35.9-16.2c-5.4-4.9-7.6-10.3-7.6-18.4c0-19.9,14.5-37.2,26.6-48.3c20-18.2,49.7-33.7,83.5-43.4l6.9-2
		c22.9,20.4,51.9,31.7,82.8,31.7c30.8,0,59.7-11.3,82.6-31.6l6.1,1.7c34.1,9.8,64,25.1,84.2,43.4c12.3,11.1,26.8,28.5,26.8,48.4
		C431.7,441.7,429.5,447,424,452z"/>
</g>
</svg>
