<?xml version="1.0" encoding="utf-8"?>
<!-- Generator: Adobe Illustrator 22.0.1, SVG Export Plug-In . SVG Version: 6.00 Build 0)  -->
<svg version="1.1" xmlns="http://www.w3.org/2000/svg" xmlns:xlink="http://www.w3.org/1999/xlink" x="0px" y="0px"
	 viewBox="0 0 512.7 512" style="enable-background:new 0 0 512.7 512;" xml:space="preserve">
<style type="text/css">
	.st0{fill:#010101;}
</style>
<g id="Layer_3">
	<g>
		<circle class="st0" cx="394.8" cy="460.5" r="51.2"/>
	</g>
</g>
<g id="Layer_5">
	<path class="st0" d="M498.6,9C482-4.7,457.3-2.5,443.5,14l-0.1,0.2C442.9,14.7,123,394.9,91.5,430.7c-2.5,2.3-6.4,4.2-11.1,1.3
		c-1.4-2.6-1.8-10.8-0.9-15.2c2.2-10.2,0.2-20.6-5.4-29.3c-5.7-8.8-14.4-14.8-24.6-16.9c-10.1-2.3-20.5-0.4-29.3,5.2
		c-8.9,5.7-15,14.5-17.1,24.9c-5.2,24-3.9,71.1,33.5,96.1c15,10,31.2,15.1,48.1,15.1c29.5,0,53.7-15.6,65.4-28.9
		c29.3-33.3,353-418,353.5-418.7l0.2-0.3C517.4,47.5,515.1,22.8,498.6,9z M419.5,89.4c4.7-5.6,9.1-10.8,13.2-15.7l12.8,12.8
		c-4.1,4.9-8.5,10.1-13.2,15.7L419.5,89.4z M419.7,117.2c-4.3,5.1-8.7,10.4-13.3,15.8l-12.8-12.8c4.6-5.5,9-10.7,13.3-15.8
		L419.7,117.2z M127.3,463.2L127.3,463.2c-8.2,9.3-24.6,18.7-42.8,18.7c-10.8,0-21.3-3.4-31.3-10.1c-24-16.1-24.1-49.4-20.8-64.8
		l0-0.1c0.5-2.4,1.9-4.4,4-5.7c0.9-0.6,2.5-1.4,4.6-1.4c0.6,0,1.2,0.1,1.9,0.2l0.3,0.1c2.3,0.5,4.3,1.9,5.6,3.9
		c1.3,2,1.7,4.4,1.2,6.7l-0.1,0.4c-0.3,1.3-6.1,32.8,13.2,45.7c18.6,12.5,38.9,6.2,49.9-5l0.6-0.7
		c17.9-20.3,168.5-198.9,267.2-315.9l12.8,12.8C294.9,265.3,144.9,443.2,127.3,463.2z M480.5,44.9c0,0-8.3,9.9-22.4,26.6l-12.8-12.8
		c13.5-16,21.4-25.4,21.4-25.4c3.4-4,9.5-4.3,13.3-0.6C483.3,36,483.5,41.3,480.5,44.9z"/>
</g>
</svg>
