<?xml version="1.0" encoding="utf-8"?>
<!-- Generator: Adobe Illustrator 21.1.0, SVG Export Plug-In . SVG Version: 6.00 Build 0)  -->
<svg version="1.1" id="Layer_2" xmlns="http://www.w3.org/2000/svg" xmlns:xlink="http://www.w3.org/1999/xlink" x="0px" y="0px"
	 viewBox="0 0 421.5 512" style="enable-background:new 0 0 421.5 512;" xml:space="preserve">
<style type="text/css">
	.st0{fill-rule:evenodd;clip-rule:evenodd;}
</style>
<g id="_x33_2">
	<g>
		<path class="st0" d="M421.5,122L299.3,0H15.5c-8.3,0-15,6.7-15,15v482c0,8.3,6.7,15,15,15h391c8.3,0,15-6.7,15-15L421.5,122z
			 M389.5,465c0,8.3-6.7,15-15,15h-327c-8.3,0-15-6.7-15-15V47c0-8.3,6.7-15,15-15h220l0,112c0,5.5,4.5,10,10,10h112V465z
			 M177,295.5c0-1.7-1.4-3-3-3h-7.3c-1.7,0-3,1.4-3,3s0,1.9,0,1.9H177C177,297.5,177,297.2,177,295.5z M298.6,339.9
			c4.7,2.4,8.6,5.4,11.6,8.9c3.4,4,5.1,8.4,5.4,13c0.9,5.1-0.3,9.9-3.8,14.6c-2.8,3.9-6.8,7.4-12,10.4c-15,8.8-36.5,15.2-64.5,19.4
			V435c31.1-3.7,57.1-10.4,78-19.9c7.1-3.4,13-6.9,17.8-10.3c6.1-4.3,10.8-9.2,14.2-14.5c3.6-5.5,4.8-11.9,3.8-19
			c-0.9-6.7-3.7-12.6-8.2-17.9c-4.6-5.5-10.7-10.4-18.4-14.5c-5.8-3.1-13.2-6.2-22.2-9.2l1.6-6.8l1.7-6.8l-12.9,6.1
			c-5.1,2.3-9.4,4.3-12.9,6.1c8.6,9.9,15.5,17.7,20.8,23.4V339.9z M256.2,292.5h-7.3c-1.7,0-3,5-3,5h13.3
			C259.2,297.5,257.9,292.5,256.2,292.5z M245.4,343.7c0-9.4-7.6-17-17-17c-9.4,0-17,7.6-17,17s7.6,17,17,17
			C237.8,360.6,245.4,353.1,245.4,343.7z M220.4,343.6c0-4.5,3.6-8.1,8.1-8.1c4.4,0,8.1,3.6,8.1,8.1c0,4.4-3.6,8.1-8.1,8.1
			C224,351.7,220.4,348,220.4,343.6z M228.1,316.7c14.6,0,26.5,11.9,26.5,26.5c0,14.7-11.9,26.5-26.5,26.5
			c-13.8,0-25.1-10.5-26.4-24h-49.5v32.1c0,5.3,4.2,9.5,9.4,9.5h102c5.2,0,9.4-4.2,9.4-9.4v-69.5c0-5.2-4.2-9.4-9.4-9.4h-102
			c-5.2,0-9.4,4.2-9.4,9.4v32.1h49.6C203.1,327.1,214.4,316.7,228.1,316.7z M169.5,317.7c-1.7,0-3-1.3-3-3s1.3-3,3-3s3,1.3,3,3
			C172.5,316.3,171.1,317.7,169.5,317.7z M183.9,317.7h-7.2c-1.7,0-3-1.3-3-3s1.3-3,3-3h7.2c1.7,0,3,1.3,3,3
			C186.8,316.3,185.5,317.7,183.9,317.7z M199.6,396.8c-3.4-3-6.3-5.4-8.5-7.3c0.1,5.1,0.1,10.8,0,17.2
			c-22.9-3.1-41.6-7.8-56.1-14.1c-5.7-2.5-10.2-4.9-13.7-7.3c-4.7-3.2-8.4-6.7-10.9-10.7c-2.4-3.7-3.2-8-2.4-12.9
			c0.8-4.4,2.9-8.4,6.1-12c3.8-4.1,8.7-7.7,14.8-10.7c4.4-2.1,10.2-4.3,17.3-6.5v-9.1c-13.4,3.2-24.4,6.7-33,10.3
			c-11.7,5.1-21.3,11.2-28.6,18.5c-4.7,4.7-7.9,10.2-9.4,16.3c-1.8,6.6-1.4,12.6,1.3,18.3s6.9,10.8,12.9,15.6
			c4.4,3.6,10.3,7.3,17.6,11c21.2,10.3,48.1,17.4,80.9,21.5c-1.6,4-3,8.1-4.4,12.3c5.4-3.6,12.4-8.4,20.8-14.2l5.2-3.6l5.2-3.6
			c4-2.8,7.4-5.2,10.4-7.1c-4.4-4.1-10-9.1-16.8-14.8L199.6,396.8z M227.4,339.4c-0.4-0.5-1.2-0.6-1.7-0.2v0c-1.5,1.2-2.3,3-2.3,4.8
			c0,0.7,0.5,1.2,1.2,1.2c0.7,0,1.2-0.5,1.2-1.2c0-1.1,0.5-2.2,1.4-3c0,0,0,0,0.1-0.1C227.8,340.7,227.9,339.9,227.4,339.4
			C227.4,339.4,227.4,339.4,227.4,339.4z"/>
	</g>
</g>
</svg>
