<?xml version="1.0" encoding="utf-8"?>
<!-- Generator: Adobe Illustrator 21.1.0, SVG Export Plug-In . SVG Version: 6.00 Build 0)  -->
<svg version="1.1" id="Layer_2" xmlns="http://www.w3.org/2000/svg" xmlns:xlink="http://www.w3.org/1999/xlink" x="0px" y="0px"
	 viewBox="0 0 421.5 512" style="enable-background:new 0 0 421.5 512;" xml:space="preserve">
<style type="text/css">
	.st0{fill-rule:evenodd;clip-rule:evenodd;}
</style>
<g id="_x33_2">
	<g>
		<path class="st0" d="M421.5,122L299.3,0H15.5c-8.3,0-15,6.7-15,15v482c0,8.3,6.7,15,15,15h391c8.3,0,15-6.7,15-15L421.5,122z
			 M389.5,465c0,8.3-6.7,15-15,15h-327c-8.3,0-15-6.7-15-15V47c0-8.3,6.7-15,15-15h220l0,112c0,5.5,4.5,10,10,10h112V465z
			 M222.4,440.3h32.7v-63.7h32.2c11.6,0,20.8-1.2,27.3-3.6c10.7-3.6,19.1-10.3,25.1-20.2c6-9.9,9-21.2,9-34c0-12.5-2.9-23.6-8.5-33
			s-13.4-16.2-23.3-20.4c-7.4-3-17.6-4.5-30.5-4.5h-64V440.3z M255.1,287.4h28.2c8.3,0,14.8,1.5,19.3,4.5c8.7,5,13,14.1,13,26.9
			c0,13.7-4.7,23-14.3,27.8c-4.7,2.4-10.9,3.6-18.4,3.6h-27.8V287.4z"/>
	</g>
</g>
</svg>
