<?xml version="1.0" encoding="utf-8"?>
<!-- Generator: Adobe Illustrator 21.1.0, SVG Export Plug-In . SVG Version: 6.00 Build 0)  -->
<svg version="1.1" id="Layer_2" xmlns="http://www.w3.org/2000/svg" xmlns:xlink="http://www.w3.org/1999/xlink" x="0px" y="0px"
	 viewBox="0 0 421.5 512" style="enable-background:new 0 0 421.5 512;" xml:space="preserve">
<g>
	<rect x="64.5" y="98.2" width="92.8" height="32"/>
	<rect x="64.5" y="158.2" width="92.8" height="32"/>
	<rect x="64.6" y="218.2" width="146.1" height="32"/>
	<rect x="64.6" y="278.2" width="146.1" height="32"/>
	<rect x="64.6" y="338.2" width="146.1" height="32"/>
	<rect x="64.6" y="398.2" width="293.1" height="32"/>
	<path d="M354,293.8c-2.2-6-6.2-11.8-12-17.4c-5.8-5.6-13.4-10.6-23.1-14.9l-17.1-7.7v-42c9.8,1.1,15.3,8.2,16.8,21.4h31.1
		c0-13.3-4.3-24-13-32.2c-8.6-8.2-20.3-12.9-34.9-14.1v-7.6H284v7.6c-13.6,1.1-24.6,5.8-32.9,14c-8.3,8.2-12.5,18.1-12.5,29.7
		c0,9.6,3.1,18.4,9.3,26.4c6.2,8,18.2,16.2,36,24.4v53.4c-5.5-1.4-9.7-4.3-12.7-8.7c-3-4.4-4.5-9.5-4.5-15.4c0-0.4,0-1.1,0.1-2
		h-31.1c1.3,17.8,6.3,30.5,15.2,38c8.9,7.5,19.9,12.1,33.1,13.9v9.7h17.8v-9.7c16.9-0.4,30.5-5.2,40.5-14.4c10.1-9.2,15-20.5,15-34
		C357.3,305.9,356.2,299.8,354,293.8z M284,245.7c-9.5-5.6-14.2-11.9-14.2-18.9c0-8.2,4.7-13.1,14.2-14.9V245.7z M319.6,329.8
		c-4.7,4.1-10.6,6.1-17.8,6V289c16.5,6.4,24.8,15.1,24.8,26.1C326.6,320.8,324.3,325.6,319.6,329.8z"/>
	<path d="M421.5,122L299.3,0H15.5c-8.3,0-15,6.7-15,15v482c0,8.3,6.7,15,15,15h391c8.3,0,15-6.7,15-15V122z M389.5,465
		c0,8.3-6.7,15-15,15h-327c-8.3,0-15-6.7-15-15V47c0-8.3,6.7-15,15-15h220v112c0,5.5,4.5,10,10,10h112V465z"/>
</g>
</svg>
