<?xml version="1.0" encoding="utf-8"?>
<!-- Generator: Adobe Illustrator 16.0.0, SVG Export Plug-In . SVG Version: 6.00 Build 0)  -->
<!DOCTYPE svg PUBLIC "-//W3C//DTD SVG 1.1//EN" "http://www.w3.org/Graphics/SVG/1.1/DTD/svg11.dtd">
<svg version="1.1" id="Layer_6" xmlns="http://www.w3.org/2000/svg" xmlns:xlink="http://www.w3.org/1999/xlink" x="0px" y="0px"
	 width="421.199px" height="512px" viewBox="0 0 421.199 512" enable-background="new 0 0 421.199 512" xml:space="preserve">
<g>
	<rect x="64.2" y="97.9" width="92.8" height="32"/>
	<rect x="64.2" y="157.9" width="92.8" height="32"/>
	<rect x="64.2" y="217.9" width="228.1" height="32"/>
	<rect x="64.2" y="277.9" width="228.1" height="32"/>
	<rect x="64.2" y="337.9" width="228.1" height="32"/>
	<path d="M283.899,44.7L239,0H0v446h44v66h377l0.199-467.3H283.899z M32,414.2l0.6-382.3l174.6-0.1v116.3h116.2v266.2L32,414.2z
		 M389,480H75.899v-33.8l279.601,0.2L355,116l-40.301-39.3h74.5L389,480z"/>
</g>
</svg>
