<?xml version="1.0" encoding="utf-8"?>
<!-- Generator: Adobe Illustrator 21.1.0, SVG Export Plug-In . SVG Version: 6.00 Build 0)  -->
<svg version="1.1" id="Layer_2" xmlns="http://www.w3.org/2000/svg" xmlns:xlink="http://www.w3.org/1999/xlink" x="0px" y="0px"
	 viewBox="0 0 421.5 512" style="enable-background:new 0 0 421.5 512;" xml:space="preserve">
<g>
	<path d="M421.5,122L299.3,0H15.5c-8.3,0-15,6.7-15,15v482c0,8.3,6.7,15,15,15h391c8.3,0,15-6.7,15-15V122z M389.5,465
		c0,8.3-6.7,15-15,15h-327c-8.3,0-15-6.7-15-15V47c0-8.3,6.7-15,15-15h220v112c0,5.5,4.5,10,10,10h112V465z"/>
	<path d="M177.8,445.4h-32V256.1h32V445.4z M259.9,445.4h-32V216.1h32V445.4z M341.9,445.4h-32V336.1h32V445.4z"/>
</g>
</svg>
