<?xml version="1.0" encoding="utf-8"?>
<!-- Generator: Adobe Illustrator 21.1.0, SVG Export Plug-In . SVG Version: 6.00 Build 0)  -->
<svg version="1.1" id="Layer_2" xmlns="http://www.w3.org/2000/svg" xmlns:xlink="http://www.w3.org/1999/xlink" x="0px" y="0px"
	 viewBox="0 0 421.5 512" style="enable-background:new 0 0 421.5 512;" xml:space="preserve">
<g>
	<path d="M421.5,122L299.3,0H15.5c-8.3,0-15,6.7-15,15v482c0,8.3,6.7,15,15,15h391c8.3,0,15-6.7,15-15V122z M389.5,465
		c0,8.3-6.7,15-15,15h-327c-8.3,0-15-6.7-15-15V47c0-8.3,6.7-15,15-15h220v112c0,5.5,4.5,10,10,10h112V465z"/>
	<path d="M354.6,341.6l-21.4-21.4l-40.5,40.5l-21.3-21.3c21.7-8.7,36.4-29.7,36.4-53.5c0-31.8-25.9-57.8-57.8-57.8h-79.2v190.3H201
		v-74.7h32l38.3,38.3l-19.2,19.2c-11.8,11.8-11.8,30.9,0,42.7l0,0l40.5-40.5l40.5,40.5l0,0c11.8-11.8,11.8-30.9,0-42.7L313.9,382
		L354.6,341.6z M250.1,313.6h-49v-55.2h49c15.2,0,27.6,12.4,27.6,27.6S265.3,313.6,250.1,313.6z"/>
</g>
</svg>
