<?xml version="1.0" encoding="utf-8"?>
<!-- Generator: Adobe Illustrator 21.1.0, SVG Export Plug-In . SVG Version: 6.00 Build 0)  -->
<svg version="1.1" id="Layer_2" xmlns="http://www.w3.org/2000/svg" xmlns:xlink="http://www.w3.org/1999/xlink" x="0px" y="0px"
	 viewBox="0 0 421.5 512" style="enable-background:new 0 0 421.5 512;" xml:space="preserve">
<style type="text/css">
	.st0{fill-rule:evenodd;clip-rule:evenodd;}
</style>
<g id="_x33_2">
	<g>
		<path class="st0" d="M421.5,122L299.3,0H15.5c-8.3,0-15,6.7-15,15v482c0,8.3,6.7,15,15,15h391c8.3,0,15-6.7,15-15L421.5,122z
			 M389.5,465c0,8.3-6.7,15-15,15h-327c-8.3,0-15-6.7-15-15V47c0-8.3,6.7-15,15-15h220l0,112c0,5.5,4.5,10,10,10h112V465z
			 M187.2,442.7H330v-42.9H187.2V442.7z M202.2,258.4l-2.8,3.6c-0.7,1.7-1.1,3.1-1.1,4.4v53l38.9-39.1l0.2,98h42.7l-0.2-98
			l39.4,39.4v-52.2l-0.3-3.6c-0.4-2.5-1.4-4.6-3-6l-57.3-49.7L202.2,258.4z"/>
	</g>
</g>
</svg>
