<?xml version="1.0" encoding="utf-8"?>
<!-- Generator: Adobe Illustrator 21.1.0, SVG Export Plug-In . SVG Version: 6.00 Build 0)  -->
<svg version="1.1" id="Layer_2" xmlns="http://www.w3.org/2000/svg" xmlns:xlink="http://www.w3.org/1999/xlink" x="0px" y="0px"
	 viewBox="0 0 421.5 512" style="enable-background:new 0 0 421.5 512;" xml:space="preserve">
<path d="M299.3,0H15.5c-8.3,0-15,6.7-15,15v482c0,8.3,6.7,15,15,15h391c8.3,0,15-6.7,15-15V122L299.3,0z M389.5,465
	c0,8.3-6.7,15-15,15h-327c-8.3,0-15-6.7-15-15V47c0-8.3,6.7-15,15-15h220v112c0,5.5,4.5,10,10,10h112v135.9h-46.7l-39.1,42.7
	l-75-104.5l-63.9,90.8H141l-1-1.7c-6.6-11.5-19.1-18.6-32.3-18.6c-20.7,0-37.5,16.8-37.5,37.5c0,20.7,16.8,37.5,37.5,37.5
	c13.3,0,25.7-7.2,32.4-18.6l1-1.7h47.3l34.7-51.1l71.2,93.8l69.6-71.8h25.6V465z"/>
</svg>
