<?xml version="1.0" encoding="utf-8"?>
<!-- Generator: Adobe Illustrator 21.1.0, SVG Export Plug-In . SVG Version: 6.00 Build 0)  -->
<svg version="1.1" id="Layer_2" xmlns="http://www.w3.org/2000/svg" xmlns:xlink="http://www.w3.org/1999/xlink" x="0px" y="0px"
	 viewBox="0 0 421.5 512" style="enable-background:new 0 0 421.5 512;" xml:space="preserve">
<style type="text/css">
	.st0{fill-rule:evenodd;clip-rule:evenodd;}
</style>
<g id="_x33_2">
	<g>
		<path class="st0" d="M421.5,122L299.3,0H15.5c-8.3,0-15,6.7-15,15v482c0,8.3,6.7,15,15,15h391c8.3,0,15-6.7,15-15L421.5,122z
			 M389.5,465c0,8.3-6.7,15-15,15h-327c-8.3,0-15-6.7-15-15V47c0-8.3,6.7-15,15-15h220l0,112c0,5.5,4.5,10,10,10h112V465z
			 M209.2,261l-29,120.6c-0.7-2.3-1.2-4.2-1.5-5.5c-1-3.3-1.5-5.3-1.5-6L152.6,261h-43l46,179.1h41l28.5-118.6l29.5,118.6h41
			l53-179.1h-42.4l-25.5,109.1c-1,5.3-1.8,9.2-2.5,11.5l-30-120.6H209.2z"/>
	</g>
</g>
</svg>
