<?xml version="1.0" encoding="utf-8"?>
<!-- Generator: Adobe Illustrator 21.1.0, SVG Export Plug-In . SVG Version: 6.00 Build 0)  -->
<svg version="1.1" id="Shape_1_1_" xmlns="http://www.w3.org/2000/svg" xmlns:xlink="http://www.w3.org/1999/xlink" x="0px" y="0px"
	 viewBox="0 0 421.8 512" style="enable-background:new 0 0 421.8 512;" xml:space="preserve">
<g id="_x33_2">
	<path d="M406.7,46H299.4L254.2,0.9H15.4c-8.3,0-15,6.7-15,15v432c0,8.3,6.7,15,15,15h31V498c0,8.3,6.7,15,15,15h345.4
		c8.3,0,15-6.7,15-15V61C421.7,52.7,415,46,406.7,46z M32.4,415.9v-368c0-8.3,6.7-15,15-15h175v112c0,5.5,4.5,10,10,10h112v261
		c0,8.3-6.7,15-15,15h-282C39.1,430.9,32.4,424.2,32.4,415.9z M389.8,466c0,8.3-6.7,15-15,15H93.3c-8.3,0-15-6.7-15-15v-3.1h283.1
		c8.3,0,15-6.7,15-15v-325l-45-44.9h43.4c8.3,0,15,6.7,15,15V466z"/>
	<path d="M60.3,95.3h103v-14h-103V95.3z M60.3,145.3h103v-14h-103V145.3z M60.3,195.3h103v-14h-103V195.3z M60.3,245.3h103v-14h-103
		V245.3z M60.3,295.3h103v-14h-103V295.3z M60.3,345.3h103v-14h-103V345.3z M60.3,395.3h103v-14h-103V395.3z M185.3,195.3h133v-14
		h-133V195.3z M185.3,245.3h133v-14h-133V245.3z M185.3,295.3h133v-14h-133V295.3z M185.3,345.3h133v-14h-133V345.3z M185.3,395.3
		h133v-14h-133V395.3z"/>
</g>
</svg>
