<?xml version="1.0" encoding="utf-8"?>
<!-- Generator: Adobe Illustrator 21.1.0, SVG Export Plug-In . SVG Version: 6.00 Build 0)  -->
<svg version="1.1" id="Layer_4" xmlns="http://www.w3.org/2000/svg" xmlns:xlink="http://www.w3.org/1999/xlink" x="0px" y="0px"
	 viewBox="0 0 512 512" style="enable-background:new 0 0 512 512;" xml:space="preserve">
<g>
	<path d="M511,122L388.8,0H105c-8.3,0-15,6.7-15,15v238l32-0.1V47c0-8.3,6.7-15,15-15h220l0,112c0,5.5,4.5,10,10,10h112v311
		c0,8.3-6.7,15-15,15H137c-8.3,0-15-6.7-15-15V335H90v162c0,8.3,6.7,15,15,15h391c8.3,0,15-6.7,15-15L511,122z"/>
	<path d="M187.6,313.7c23.9,0.2,44.2,19.5,44.2,42.9c0,24.2-18.6,43.2-44.6,43.2c-4.5,0-3.8,0-4.5,0c-9.8,0-18.2,8.4-18.2,18.6
		c0,10.7,8.4,19,18.2,19c0.8,0,0,0,4.5,0c45.5,0,82.2-36.4,82.2-80.9c0-44.3-36.7-80.6-81.8-80.9h0h-123l1.3-36.7L1.3,295.1
		l64.6,55.3l-1.3-36.7H187.6z"/>
</g>
</svg>
