<?xml version="1.0" encoding="utf-8"?>
<!-- Generator: Adobe Illustrator 21.1.0, SVG Export Plug-In . SVG Version: 6.00 Build 0)  -->
<svg version="1.1" id="Layer_2" xmlns="http://www.w3.org/2000/svg" xmlns:xlink="http://www.w3.org/1999/xlink" x="0px" y="0px"
	 viewBox="0 0 421.5 512" style="enable-background:new 0 0 421.5 512;" xml:space="preserve">
<g>
	<path d="M421.5,122L299.3,0H15.5c-8.3,0-15,6.7-15,15v482c0,8.3,6.7,15,15,15h391c8.3,0,15-6.7,15-15V122z M389.5,465
		c0,8.3-6.7,15-15,15h-327c-8.3,0-15-6.7-15-15V47c0-8.3,6.7-15,15-15h220v112c0,5.5,4.5,10,10,10h112V465z"/>
	<path d="M181.9,436.5c14.5,8.4,30.1,13,47,13.9v-97.7h-99.3c1,16.4,5.7,31.7,14,45.8C153,414.4,165.8,427.1,181.9,436.5z"/>
	<path d="M181.5,248.3c-16.1,9.4-28.8,22.1-38.2,38.1c-8.2,14-12.8,29-13.8,45.1h98.4v-97.2C211.2,235.4,195.7,240.1,181.5,248.3z"
		/>
	<path d="M296.6,435.8c16.1-9.4,28.8-22.1,38.2-38.1c8.2-14,12.8-29,13.8-45.1h-98.4v97.2C266.9,448.8,282.4,444.1,296.6,435.8z"/>
	<path d="M308.1,231.8c-16.4-9.5-34.1-14.7-53.1-15.7v110.5h112.3c-1.1-18.5-6.4-35.7-15.8-51.7
		C340.8,256.8,326.3,242.4,308.1,231.8z"/>
</g>
</svg>
