<?xml version="1.0" encoding="utf-8"?>
<!-- Generator: Adobe Illustrator 21.1.0, SVG Export Plug-In . SVG Version: 6.00 Build 0)  -->
<svg version="1.1" id="Layer_2" xmlns="http://www.w3.org/2000/svg" xmlns:xlink="http://www.w3.org/1999/xlink" x="0px" y="0px"
	 viewBox="0 0 421.5 512" style="enable-background:new 0 0 421.5 512;" xml:space="preserve">
<style type="text/css">
	.st0{fill-rule:evenodd;clip-rule:evenodd;}
</style>
<g id="_x33_2">
	<g>
		<path class="st0" d="M421.5,122L299.3,0H15.5c-8.3,0-15,6.7-15,15v482c0,8.3,6.7,15,15,15h391c8.3,0,15-6.7,15-15L421.5,122z
			 M389.5,465c0,8.3-6.7,15-15,15h-327c-8.3,0-15-6.7-15-15V47c0-8.3,6.7-15,15-15h220l0,112c0,5.5,4.5,10,10,10h112V465z
			 M268.6,293.7c-1.8,1.9-4.8,9.3,2.1,13.8c10.4,4.7,31.3,18.1,31.2,44.8c-1.2,28.8-19.2,38.7-29.9,44.1c-8.1,4.3-4.8,12.6-2.9,14.3
			c4,4,8.3,3.2,9.9,2.4c24.1-9.9,41.3-33,41.5-60.8c0.3-25.9-15.5-50.3-41.3-61C276.7,290.4,272.7,289.4,268.6,293.7z M177.8,318.6
			l-40.4,0.2c-1.6,0-2.9,1.2-2.9,2.9v61.5c0,1.6,1.3,2.9,2.9,2.9s40.4-0.5,40.4-0.5l58.7,58.1l0.1-20.5V281l-0.1-20.1L177.8,318.6z
			 M287.4,352.3c0-12.8-8.1-26.3-20.9-31c-0.5-0.3-6-2.2-10.3,2.1c-3.8,3.8-2.7,9.6-0.7,12c3.7,4.7,13.3,4.7,13.3,16.8
			c0,12.3-10.2,12.2-13.3,17.1c-2,2.4-3.1,7.9,0.7,11.7c3.9,3.9,8.4,2.8,10.9,1.8C279.4,378.2,287.4,365.1,287.4,352.3z"/>
	</g>
</g>
</svg>
