<?xml version="1.0" encoding="utf-8"?>
<!-- Generator: Adobe Illustrator 21.1.0, SVG Export Plug-In . SVG Version: 6.00 Build 0)  -->
<svg version="1.1" id="Layer_1" xmlns="http://www.w3.org/2000/svg" xmlns:xlink="http://www.w3.org/1999/xlink" x="0px" y="0px"
	 viewBox="0 0 467 512" style="enable-background:new 0 0 467 512;" xml:space="preserve">
<path d="M435,33h-52v49h52V33z M435,113h-52v49h52V113z M435,194h-52v47h52V194z M435,272h-52v49h52V272z M435,352h-52v49h52V352z
	 M435,431h-52v49h52V431z M350.7,37H116v204h235V37H350.7z M350.7,274H116v202h235V274H350.7z M84,33H32v49h52V33z M84,113H32v49h52
	V113z M84,194H32v47h52V194z M84,272H32v49h52V272z M84,352H32v49h52V352z M84,431H32v49h52V431z M467,23.9v464.2
	c0,13.2-10.7,23.9-23.9,23.9H23.9C10.7,512,0,501.3,0,488.1V23.9C0,10.7,10.7,0,23.9,0h419.2C456.3,0,467,10.7,467,23.9z"/>
</svg>
