<?xml version="1.0" encoding="utf-8"?>
<!-- Generator: Adobe Illustrator 21.1.0, SVG Export Plug-In . SVG Version: 6.00 Build 0)  -->
<svg version="1.1" id="Layer_2" xmlns="http://www.w3.org/2000/svg" xmlns:xlink="http://www.w3.org/1999/xlink" x="0px" y="0px"
	 viewBox="0 0 489.1 512" style="enable-background:new 0 0 489.1 512;" xml:space="preserve">
<g>
	<path d="M465.6,338.5c-12.2,0-22.1-9.9-22.1-22.2v-71.9c0-110.4-89.4-200.2-199.4-200.2c-35.5,0-69.9,9.4-99.5,27.1
		c-5,3.3-11.2,4.2-17,2.7c-5.7-1.5-10.5-5.3-13.1-10.5c-6.3-10.9-3-24,7.7-30.5l0.1-0.1C159,11.4,201.1,0,244.2,0
		c134.3,0,243.5,109.7,243.5,244.4v71.9C487.7,328.6,477.8,338.5,465.6,338.5z M244.2,29.6c117.9,0,213.9,96.4,213.9,214.8v71.9
		c0,4.1,3.5,7.6,7.5,7.6c4.1,0,7.5-3.5,7.5-7.6v-71.9c0-126.8-102.7-229.9-229-229.9c-39.9,0-80.5,11-114.4,30.8
		c-4,2.4-5,6.8-2.6,10.8l0.3,0.5c1.1,2.1,3,2.9,4,3.2c1.9,0.5,3.9,0.2,5.4-0.8l0.3-0.2C169,39.7,206,29.6,244.2,29.6z"/>
	<path d="M22.7,277c-11.6,0-21.6-9.4-22.7-21.5l0-0.7v-9.6c0-67.2,28-132,76.8-177.9c4.2-4.2,9.7-6.5,15.4-6.5
		c6.4,0,11.8,2.2,16.2,6.6c4.3,4.3,6.5,10.1,6.2,16.3c-0.3,5.8-2.8,11.3-6.9,15.5l-0.1,0.1c-39.8,37.8-62.6,90.7-62.6,145.1v10.4
		C44.8,267.1,34.9,277,22.7,277z M14.5,254.5c0.6,4.5,4.1,8,8.2,8c4.1,0,7.5-3.5,7.5-7.6v-10.4c0-58.3,24.5-115,67.1-155.6
		c1.6-1.6,2.5-3.7,2.6-5.9c0.1-1.4-0.2-3.5-1.9-5.2c-1.6-1.6-3.4-2.3-5.9-2.3c-1.9,0-3.7,0.8-5.2,2.3l-0.2,0.2
		C40.9,121,14.5,182,14.5,245.2V254.5z"/>
	<path d="M408.9,303.8c-12.2,0-22.1-9.9-22.1-22.2v-42.3c0-76.9-62.3-139.5-138.9-139.5h-9.6c-38.4,0-73,14.8-100.2,42.9
		c-4.2,4.6-9.8,7.3-15.9,7.4c-5.9,0.2-11.7-2-16.3-6.2c-4.7-4.2-7.4-9.8-7.5-15.9c-0.2-6,2.1-11.8,6.4-16.1
		c35.1-36.8,82-57.1,132.1-57.1h10.4c49.1,0,95.2,19.2,129.9,54c34.7,34.8,53.9,81.2,53.9,130.5v42.3
		C431,293.9,421.1,303.8,408.9,303.8z M238.4,85.3h9.6c84.6,0,153.4,69.1,153.4,154.1v42.3c0,4.1,3.5,7.6,7.5,7.6
		c4.1,0,7.5-3.5,7.5-7.6v-42.3c-0.1-93.7-76-169.9-169.3-169.9h-10.4c-46.1,0-89.3,18.7-121.7,52.6l-0.1,0.1
		c-1.5,1.5-2.3,3.4-2.2,5.4c0,1.4,0.5,3.5,2.7,5.4c1.9,1.7,4.2,2.6,6.4,2.5c2.1-0.1,4-1,5.5-2.7l0.2-0.3
		C157.2,102.1,196.6,85.3,238.4,85.3z"/>
	<path d="M76.7,459.5c-12.2,0-22.1-9.9-22.1-22.2V240.2c0-28.1,6.2-54.8,18.3-79.3c3.2-8.2,10.8-13.3,19.9-13.3
		c3.3,0,6.3,0.9,9.1,1.9l0.6,0.2c5.7,2.6,10,7.2,12,12.9c2,5.6,1.6,11.6-1.1,16.9c-9.3,18.6-14,38.7-14,59.8v198
		C99.4,449.3,89,459.5,76.7,459.5z M92.9,162.2c-3.2,0-5.4,1.4-6.5,4.2l-0.3,0.7c-11.2,22.6-16.9,47.2-16.9,73.1v197.1
		c0,4.1,3.5,7.6,7.5,7.6c4.3,0,8.2-3.6,8.2-7.6v-198c0-23.4,5.2-45.7,15.6-66.3c0.9-1.8,1-3.7,0.4-5.5c-0.7-1.9-2.1-3.4-4.1-4.4
		C95.4,162.6,93.9,162.2,92.9,162.2z"/>
	<path d="M408.8,439c-12.2,0-22.1-9.9-22.1-22.2v-87.7c0-12.2,9.9-22.2,22.1-22.2c12.2,0,22.1,9.9,22.1,22.2v87.7
		C430.9,429,421,439,408.8,439z M408.8,321.5c-4.1,0-7.5,3.5-7.5,7.6v87.7c0,4.1,3.5,7.6,7.5,7.6c4.1,0,7.5-3.5,7.5-7.6v-87.7
		C416.4,324.9,413,321.5,408.8,321.5z"/>
	<path d="M242.7,453.4c-12.2,0-22.1-9.9-22.1-22.2V249.7c0-6.4,2.7-12.6,7.4-16.8c4.2-3.8,9.7-5.7,15-5.3
		c12,0.2,21.7,10.1,21.7,22.1v181.6C264.8,443.5,254.9,453.4,242.7,453.4z M241.5,242.1c-1.2,0-2.6,0.6-3.8,1.6
		c-1.7,1.5-2.6,3.7-2.6,6v181.6c0,4.1,3.5,7.6,7.5,7.6s7.5-3.5,7.5-7.6V249.7c0-4.1-3.5-7.6-7.5-7.6l-0.8,0
		C241.8,242.1,241.7,242.1,241.5,242.1z"/>
	<path d="M299,391.1c-6.4,0-12.5-2.7-16.8-7.4c-3.8-4.2-5.7-9.5-5.3-15V249.7c0-18.5-15-33.5-33.4-33.5s-33.4,15-33.4,33.5v65.7
		c0,12.2-9.9,22.2-22.1,22.2s-22.1-9.9-22.1-22.2v-65.7c0-42.9,34.7-77.7,77.4-77.7c42.6,0,77.4,34.9,77.6,77.7v119.2
		C321.1,381.1,311.2,391.1,299,391.1z M243.6,201.6c26.4,0,47.9,21.6,47.9,48.1v119.6l0,0.3c-0.2,1.9,0.7,3.3,1.5,4.2
		c1.5,1.7,3.8,2.7,6,2.7c4.1,0,7.5-3.5,7.5-7.6V249.7c-0.2-34.8-28.5-63.2-63.1-63.2c-34.7,0-62.9,28.3-62.9,63.2v65.7
		c0,4.1,3.5,7.6,7.5,7.6s7.5-3.5,7.5-7.6v-65.7C195.7,223.2,217.2,201.6,243.6,201.6z"/>
	<path d="M22.1,415.4C9.9,415.4,0,405.5,0,393.3v-87.7c0-12.2,9.9-22.2,22.1-22.2c12,0,21.9,9.9,22.1,22.1l0,87.8
		C44.1,405.5,34.2,415.4,22.1,415.4z M22.1,298c-4.1,0-7.5,3.5-7.5,7.6v87.7c0,4.1,3.5,7.6,7.5,7.6s7.5-3.5,7.5-7.6v-87.7
		C29.6,301.3,26.2,298,22.1,298z"/>
	<path d="M151.5,498.2c-7.9,0-14.7-3.5-19-9.9l-0.1-0.2c-13.9-22.3-20.9-46.3-20.9-71.3v-95.4c-0.1-5.7,2.2-11.2,6.3-15.4
		c4.2-4.3,10.1-6.8,16.2-6.8c12.4,0,22.5,9.9,22.5,22.2v95.4c0,16.6,4.7,32.5,14.1,47.1c3.4,5.1,4.6,11.3,3.2,17.2
		c-1.3,5.8-4.9,10.7-10.1,13.8C160.2,497.1,155.9,498.2,151.5,498.2z M144.6,480.2c1.6,2.3,3.9,3.4,6.9,3.4c1.8,0,3.4-0.4,4.6-1.1
		l0.2-0.1c2.2-1.3,3-3.2,3.3-4.5c0.5-2,0-4.2-1.1-5.9l-0.1-0.2c-10.9-17-16.4-35.5-16.4-55v-95.4c0-4.2-3.6-7.6-8-7.6
		c-2.2,0-4.3,0.9-5.8,2.4c-1.4,1.4-2.1,3.2-2.1,5.1l0,95.5C126,439,132.2,460.4,144.6,480.2z"/>
	<path d="M134.2,294.1c-12.1,0-22-9.9-22-22.2v-22.2c0-35.6,13.7-69.1,38.6-94.3c24.9-25.2,58.1-39,93.4-39
		c42.7,0,83,21.1,107.8,56.3c7.2,9.6,5,23.7-5.1,31.5c-4.4,3.5-10,5-15.7,4.2c-6.2-0.8-12-4.2-15.8-9.2l-0.2-0.3
		c-15.8-22.8-43-36.9-71-36.9c-48.6,0-88.1,40-88.1,89.1v20.8C156.1,284.2,146.3,294.1,134.2,294.1z M244.2,131
		c-64.8,0-117.4,53.3-117.4,118.7v22.2c0,4.2,3.3,7.6,7.4,7.6c4.1,0,7.4-3.4,7.4-7.6v-20.8c0-57.2,46-103.7,102.6-103.7
		c32.5,0,64.2,16.5,82.7,43c1.5,1.9,3.8,3.2,6.1,3.5c1.3,0.2,3.2,0.1,4.9-1.3c3.3-2.6,5.1-7.8,2.4-11.3l-0.2-0.2
		C318.1,149.8,282.2,131,244.2,131z"/>
	<path d="M337.5,512.7c-4.4,0-8.7-1.2-11.9-3.4c-4.9-3.1-8.4-7.9-9.7-13.6c-1.3-5.9-0.2-12.2,3-17.2c9-14.7,13.5-30.6,13.5-47.2
		V249.7c0-12.2,9.9-22.2,22-22.2c12.1,0,22,9.9,22,22.2v181.6c0,24.8-7,49.4-20.1,71.2l-0.1,0.2
		C351.9,509.1,345.3,512.7,337.5,512.7z M354.4,242.1c-4.1,0-7.4,3.4-7.4,7.6v181.6c0,19.4-5.3,37.9-15.7,54.9l-0.1,0.2
		c-1.2,1.8-1.5,4-1.1,6.1c0.3,1.3,1.1,3.2,3.2,4.5l0.3,0.2c0.7,0.5,2.2,1,3.9,1c2.8,0,4.9-1.1,6.3-3.3
		c11.7-19.5,17.9-41.5,17.9-63.5V249.7C361.8,245.5,358.5,242.1,354.4,242.1z"/>
	<path d="M243.7,502.5c-42.6,0-77.4-34.9-77.6-77.7v-62.9c0-12.2,9.9-22.2,22.1-22.2c6.4,0,12.5,2.7,16.8,7.4
		c3.8,4.2,5.7,9.5,5.3,15v62.6c0,18.5,15,33.5,33.4,33.5s33.4-15,33.4-33.5v-9.3c0-12.2,9.9-22.2,22.1-22.2
		c12.2,0,22.1,9.9,22.1,22.2v9.3C321.1,467.6,286.4,502.5,243.7,502.5z M188.2,354.3c-4.1,0-7.5,3.5-7.5,7.6v62.9
		c0.2,34.8,28.5,63.2,63.1,63.2c34.7,0,62.9-28.3,62.9-63.2v-9.3c0-4.1-3.5-7.6-7.5-7.6c-4.1,0-7.5,3.5-7.5,7.6v9.3
		c0,26.5-21.5,48.1-47.9,48.1s-47.9-21.6-47.9-48.1v-63.2l0-0.3c0.2-1.9-0.7-3.3-1.5-4.2C192.7,355.4,190.4,354.3,188.2,354.3z"/>
	<path d="M466.9,409.8c-12.2,0-22.1-9.9-22.1-22.2v-19.7c0-12.2,9.9-22.2,22.1-22.2c12.2,0,22.1,9.9,22.1,22.2v19.7
		C488.9,399.9,479,409.8,466.9,409.8z M466.9,360.4c-4.1,0-7.5,3.5-7.5,7.6v19.7c0,4.1,3.5,7.6,7.5,7.6c4.1,0,7.5-3.5,7.5-7.6v-19.7
		C474.4,363.8,471,360.4,466.9,360.4z"/>
</g>
</svg>
