<?xml version="1.0" encoding="utf-8"?>
<!-- Generator: Adobe Illustrator 21.1.0, SVG Export Plug-In . SVG Version: 6.00 Build 0)  -->
<svg version="1.1" id="Layer_2" xmlns="http://www.w3.org/2000/svg" xmlns:xlink="http://www.w3.org/1999/xlink" x="0px" y="0px"
	 viewBox="0 0 550.5 512" style="enable-background:new 0 0 550.5 512;" xml:space="preserve">
<g>
	<path d="M550.4,198.9v-81.1c0-13-6.5-19.5-19.5-19.5v0.1H383V56.1c-1.4-10.4-7.5-15.6-18.2-15.6H186.4c-10.7,0-16.7,5.4-18.2,16.1
		l0.4,41.8H19.5c-13,0-19.5,6.5-19.5,19.5v81.1H550.4z M192,71.7c0.3-7.6,4.5-11.4,12.6-11.4h142.2c8.6,0,12.7,3.8,12.1,11.4v26.6
		H192V71.7z M27.2,171.7v-46.1h141.5h27.5h159.7v0.1H383h140.2v46.1H27.2z"/>
	<path d="M550.4,218.3L550.4,218.3L0,218.3l0,0l0,0v235.8c0,13,6.5,19.5,19.5,19.5H531c13,0,19.5-6.5,19.5-19.5L550.4,218.3
		L550.4,218.3z M513.4,447.7H37.1c-6.6,0-9.9-3.1-9.9-9.7V245.5l0.1,0.1h496l0.2-0.2V438C523.4,444.5,520.1,447.7,513.4,447.7z"/>
	<polygon points="350.4,331.1 292.6,331.1 292.6,273.3 260.6,273.3 260.6,331.1 202.8,331.1 202.8,363.1 260.6,363.1 260.6,420.9 
		292.6,420.9 292.6,363.1 350.4,363.1 	"/>
</g>
</svg>
