<?xml version="1.0" encoding="utf-8"?>
<!-- Generator: Adobe Illustrator 21.1.0, SVG Export Plug-In . SVG Version: 6.00 Build 0)  -->
<svg version="1.1" id="Layer_2" xmlns="http://www.w3.org/2000/svg" xmlns:xlink="http://www.w3.org/1999/xlink" x="0px" y="0px"
	 viewBox="0 0 512 512" style="enable-background:new 0 0 512 512;" xml:space="preserve">
<style type="text/css">
	.st0{fill-rule:evenodd;clip-rule:evenodd;}
</style>
<g id="_x33_2">
	<g>
		<path class="st0" d="M132.2,104.5c24.8,0,44.9-20.2,44.9-45.2c0-25-20.1-45.2-44.9-45.2c-24.8,0-44.9,20.2-44.9,45.2
			C87.3,84.3,107.4,104.5,132.2,104.5z M512.4,505.8h0.1C512.5,505.8,512.5,505.8,512.4,505.8L512.4,505.8z M512.4,430.9h0.1
			C512.5,430.9,512.5,430.9,512.4,430.9L512.4,430.9z M512.5,355.1c0,0-0.1,0-0.1,0v0H512.5z M511.7,398.4
			c-11.1-3.6-23.6-7.8-36.7-7.8c-8,0-17,3-26.5,6.2c-11.4,3.8-23.2,7.8-36,7.8c-11.5,0-23.1-3.6-34.3-7.1c-10.9-3.4-22.2-6.9-33-6.9
			c-9.5,0-19.5,3.2-30,6.6c-11.2,3.6-22.9,7.4-34.9,7.4c-11.4,0-23.3-3.8-34.8-7.4c-10.8-3.4-21-6.6-30-6.6c-10.8,0-20.6,3.3-31,6.8
			c-10.3,3.6-21.1,7.2-32.7,7.2c-13.6,0-26.2-4-38.4-7.8c-10.2-3.2-19.8-6.2-28.3-6.2c-10.8,0-20.1,3.8-29,7.5
			c-8,3.3-15.7,6.5-23.8,6.5c-13.1,0-24.4-2.3-31.8-4.4v32c5.3,1.9,15.5,4.9,27.6,4.9c5.8,0,12.5-2.5,20.2-5.4
			c10.8-4,23-8.6,38.1-8.6c10.6,0,21,3.4,32,6.9c10.9,3.5,22.3,7.1,33.5,7.1c9.1,0,18.8-3.2,29.1-6.5c11.5-3.7,23.3-7.5,35.8-7.5
			c11.3,0,22.3,3.7,33,7.3c10.2,3.4,20,6.7,29.4,6.7c9.9,0,20-3.3,30.7-6.7c11.1-3.6,22.5-7.3,34.2-7.3c12.8,0,24.9,3.8,36.7,7.5
			c10.6,3.3,20.6,6.5,30,6.5c9.7,0,19.6-3.6,29.3-7c9.7-3.4,19.7-7,29.6-7c15.9,0,30,4,42.7,7.8v-32.3
			C512.2,398.6,511.9,398.5,511.7,398.4z M511.7,473.3c-11.1-3.6-23.6-7.8-36.7-7.8c-8,0-17,3-26.5,6.2c-11.4,3.8-23.2,7.8-36,7.8
			c-11.5,0-23.1-3.6-34.3-7.1c-10.9-3.4-22.2-6.9-33-6.9c-9.5,0-19.5,3.2-30,6.6c-11.2,3.6-22.9,7.4-34.9,7.4
			c-11.4,0-23.3-3.8-34.8-7.4c-10.8-3.4-21-6.6-30-6.6c-10.8,0-20.6,3.3-31,6.8c-10.3,3.6-21.1,7.2-32.7,7.2
			c-13.6,0-26.2-4-38.4-7.8c-10.2-3.2-19.8-6.2-28.3-6.2c-10.8,0-20.1,3.8-29,7.5c-8,3.3-15.7,6.5-23.8,6.5
			c-13.1,0-24.4-2.3-31.8-4.4v32C5.8,509,16,512,28.1,512c5.8,0,12.5-2.5,20.2-5.4c10.8-4,23-8.6,38.1-8.6c10.6,0,21,3.4,32,6.9
			c10.9,3.5,22.3,7.1,33.5,7.1c9.1,0,18.8-3.2,29.1-6.5c11.5-3.7,23.3-7.5,35.8-7.5c11.3,0,22.3,3.7,33,7.3
			c10.2,3.4,20,6.7,29.4,6.7c9.9,0,20-3.3,30.7-6.7c11.1-3.6,22.5-7.3,34.2-7.3c12.8,0,24.9,3.8,36.7,7.5c10.6,3.3,20.6,6.5,30,6.5
			c9.7,0,19.6-3.6,29.3-7c9.7-3.4,19.7-7,29.6-7c15.9,0,30,4,42.7,7.8v-32.3C512.2,473.5,511.9,473.4,511.7,473.3z M68.3,317.6
			c-4.2,1.3-8.2,3-12.2,4.6c-8,3.3-15.7,6.5-23.8,6.5c-13.1,0-24.4-2.3-31.8-4.4v32c5.3,1.9,15.5,4.9,27.6,4.9
			c5.8,0,12.5-2.5,20.2-5.4c10.8-4,23-8.6,38.1-8.6c10.6,0,21,3.4,32,6.9c10.9,3.5,22.3,7.1,33.5,7.1c9.1,0,18.8-3.2,29.1-6.5
			c11.5-3.7,23.3-7.5,35.8-7.5c11.3,0,22.3,3.7,33,7.3c10.2,3.4,20,6.7,29.4,6.7c9.9,0,20-3.3,30.7-6.7c11.1-3.6,22.5-7.3,34.2-7.3
			c12.8,0,24.9,3.8,36.7,7.5c10.6,3.3,20.6,6.5,30,6.5c9.7,0,19.6-3.6,29.3-7c9.7-3.4,19.7-7,29.6-7c15.9,0,30,4,42.7,7.8v-32.3
			c-0.2,0-0.5-0.1-0.7-0.2c-10.4-3.4-21.9-7.2-34.1-7.7L457.9,94.4c0-1.3,0.5-7.3,0-8.2c0,0,0,0,0,0c-0.2-1.5-8.7-59.3-101.4-32.4
			c-50.2,14.6-91.2,60.7-103.3,75.8c-4,5-6.1,12.9-6.1,12.9c-0.5,1.6-0.8,3.3-0.8,5.1c0,3.2,0.8,6.2,2.2,8.8
			c-2.7,3.7-5.3,7.4-7.7,11c-1.9-0.7-4.2-1.1-6.8-1.3c-20-1.3-54.1-6.7-57.1-8.2c-26.8-13.8-62.8-49-87.7-49.3
			c-19.1-0.3-31.8,10.8-38.7,28.8c-11.8,30.8-9.5,80-8.5,94.5L0,230.8L68.3,317.6z M356.1,59.2c82.6-23.4,95.3,12.2,97.3,23.7
			c-2-0.7-3.7-0.8-3.7-0.8s-36.6-11.8-81.3-11.8c-36.5,0-71.2,27.9-98.7,59.6c-1.6-0.5-3.3-0.7-5-0.7c-3.1,0-6.1,0.8-8.7,2.2
			C264.2,121.2,304.4,73.8,356.1,59.2z M132.2,170.3c2-1.1,17.2,11.4,40.8,16.4c17.4,3.7,38.2,4.7,52.5,4.8
			c-10.1,16.6-15.8,28.1-15.8,28.1h12.2c0,0,5.5-11.7,15.3-28.3c2.8-0.1,4.6-0.3,5.1-0.5c7.2-2.6,10.3-11.4,6.2-17.7
			c2.1-3.2,4.3-6.4,6.6-9.7c2.8,1.8,6.1,2.8,9.6,2.8c10.1,0,18.4-8.3,18.4-18.5c0-5.2-2.1-9.9-5.6-13.3
			c24.9-28.7,56.5-53.6,90.9-53.6c44.5,0,81.3,13.5,81.3,13.5s2.2,1.5,4.3,2.2l19.6,218.2c-7.6,0.3-16.1,3.2-25,6.2
			c-11.4,3.8-23.2,7.8-36,7.8c-8.7,0-17.4-2-26-4.6l34.9-82.6l-293.3-7.5c-1.2-5.4-8.4-20.7-8.3-35.1
			C120.1,184.7,130.6,171.2,132.2,170.3z"/>
	</g>
</g>
</svg>
