<?xml version="1.0" encoding="utf-8"?>
<!-- Generator: Adobe Illustrator 22.0.1, SVG Export Plug-In . SVG Version: 6.00 Build 0)  -->
<svg version="1.1" id="Layer_1" xmlns="http://www.w3.org/2000/svg" xmlns:xlink="http://www.w3.org/1999/xlink" x="0px" y="0px"
	 viewBox="0 0 512 512" style="enable-background:new 0 0 512 512;" xml:space="preserve">
<g id="_x33_2_1_">
	<path d="M265.7,110.1c2.9-12.7,4.8-24.3,5.8-37c-57.2-20.1-117.4,2.1-152.3,47.6C166.8,98.5,218.2,96.4,265.7,110.1z"/>
	<path d="M206.2,148.2c52.5,0,102.9,21.3,141.9,60.1l30.4,30.2l20.3-37.7c6-11.1,12.6-21.3,20-30.5c8,38.2,29.3,67.4,42.8,83.2
		c17.5,20.4,22.9,48.1,14.6,72.7c-19-23.3-43.9-37.5-61.5-47.6c-16.3-8-40.1-34.3-40.1-34.3l-23,23.3
		c-14.3,14.5-64.5,62.1-142.1,62.1c-65,0-114.3-34.5-118.2-36.8c-20-14.7-38.1-33.1-53.1-54c24.2-35,53.2-54.8,68.9-63.8
		C137.5,157.5,171.7,148.2,206.2,148.2 M482.3,86.2c0,0-67.4,17.2-111.7,99.4c-47-46.6-105.9-69.4-164.4-69.4
		c-79.6,0-158.5,42-206.2,122.9c19.4,31.7,61.2,87.1,138.2,111.9c21.9,13.6,50.5,30.5,71.1,50.3l0.7-39.8
		c23.3-0.3,46.7-4.3,69.4-11.9c13.8,5.4,26.9,11.8,39.5,19.1c5.4-5.9,3.9-21.7,0.9-37c19.4-10.9,37.8-24.8,54.6-41.9
		c18.2,18.9,85,35.3,95.7,97.3c-0.6,5.1-1.7,9.3-3.2,11.9c0,0,20.3-20.3,35-51.2c18.1-38.2,11.6-83.3-16-115.4
		C476.3,221.5,411.6,148.2,482.3,86.2L482.3,86.2z"/>
	<path d="M77,221.2c-3.8,0-6.9,3-6.9,6.7c0,3.7,3.1,6.7,6.9,6.7c3.8,0,6.9-3,6.9-6.7C83.9,224.2,80.8,221.2,77,221.2z"/>
	<path d="M77.4,212.1c-8.8,0-15.9,7.1-15.9,15.9c0,8.8,7.1,15.9,15.9,15.9c8.8,0,15.9-7.1,15.9-15.9
		C93.3,219.2,86.2,212.1,77.4,212.1z M77,237.1c-5.2,0-9.4-4.1-9.4-9.2c0-5.1,4.2-9.2,9.4-9.2c5.2,0,9.4,4.1,9.4,9.2
		C86.5,232.9,82.2,237.1,77,237.1z"/>
</g>
</svg>
