<?xml version="1.0" encoding="utf-8"?>
<!-- Generator: Adobe Illustrator 21.1.0, SVG Export Plug-In . SVG Version: 6.00 Build 0)  -->
<svg version="1.1" id="Layer_2" xmlns="http://www.w3.org/2000/svg" xmlns:xlink="http://www.w3.org/1999/xlink" x="0px" y="0px"
	 viewBox="0 0 557.7 512" style="enable-background:new 0 0 557.7 512;" xml:space="preserve">
<path d="M113.4,54.4l-30.2,7.7l7.7,30.2l30.2-7.7L113.4,54.4z M129,115.8l-30.1,7.7l7.7,30.2l30.2-7.7L129,115.8z M144.7,177.3
	l-30.2,7.7l7.7,30.2l30.2-7.7L144.7,177.3z M151.9,77.3L121.8,85l7.7,30.2l30.1-7.7L151.9,77.3z M167.6,138.7l-30.2,7.7l7.7,30.2
	l30.2-7.7L167.6,138.7z M174.8,38.7l-30.2,7.7l7.7,30.1l30.2-7.7L174.8,38.7z M183.3,200.1l-30.2,7.7l7.7,30.2l30.1-7.7L183.3,200.1
	z M190.5,100.2l-30.1,7.7L168,138l30.2-7.7L190.5,100.2z M206.2,161.6l-30.2,7.7l7.7,30.2l30.2-7.7L206.2,161.6z M213.4,61.6
	l-30.2,7.7l7.7,30.2l30.1-7.7L213.4,61.6z M229,123l-30.2,7.7l7.7,30.1l30.2-7.7L229,123z M244.7,184.5l-30.2,7.7l7.7,30.1l30.1-7.7
	L244.7,184.5z M251.9,84.5l-30.1,7.7l7.7,30.2l30.2-7.7L251.9,84.5z M267.6,145.9l-30.2,7.7l7.7,30.2l30.1-7.7L267.6,145.9z
	 M283.2,207.4l-30.1,7.7l7.7,30.2l30.2-7.7L283.2,207.4z M290.5,107.4l-30.2,7.7l7.7,30.2l30.2-7.7L290.5,107.4z M306.1,168.8
	l-30.2,7.7l7.7,30.2l30.2-7.7L306.1,168.8z M321.8,230.2l-30.2,7.7l7.7,30.2l30.2-7.7L321.8,230.2z M329,130.3l-30.2,7.7l7.7,30.2
	l30.1-7.7L329,130.3z M344.7,191.7l-30.2,7.7l7.7,30.2l30.2-7.7L344.7,191.7z M360.4,253.1l-30.2,7.7l7.7,30.2l30.1-7.7L360.4,253.1
	z M367.6,153.1l-30.1,7.7l7.7,30.1l30.2-7.7L367.6,153.1z M383.2,214.6l-30.2,7.7l7.7,30.1l30.2-7.7L383.2,214.6z M406.1,176
	l-30.2,7.7l7.7,30.2l30.2-7.7L406.1,176z M429,137.5l-30.1,7.7l7.7,30.2l30.2-7.7L429,137.5z M444.7,198.9l-30.2,7.7l7.7,30.2
	l30.1-7.7L444.7,198.9z M467.6,160.4l-30.2,7.7l7.7,30.2l30.2-7.7L467.6,160.4z M490.4,121.8l-30.1,7.7l7.7,30.1l30.2-7.7
	L490.4,121.8z M498.1,152l-7.7-30.2l-30.1,7.7l7.7,30.1L498.1,152z M437.4,168l7.7,30.2l30.2-7.7l-7.7-30.1L437.4,168z M414.5,206.6
	l7.7,30.2l30.1-7.7l-7.7-30.2L414.5,206.6z M436.7,167.6l-7.7-30.1l-30.1,7.7l7.7,30.2L436.7,167.6z M376,183.7l7.7,30.2l30.2-7.7
	l-7.7-30.2L376,183.7z M353.1,222.3l7.7,30.1l30.2-7.7l-7.7-30.2L353.1,222.3z M375.3,183.3l-7.7-30.2l-30.1,7.7l7.7,30.1
	L375.3,183.3z M330.2,260.8l7.7,30.2l30.1-7.7l-7.7-30.1L330.2,260.8z M314.5,199.4l7.7,30.2l30.2-7.7l-7.7-30.1L314.5,199.4z
	 M336.7,160.4l-7.7-30.2l-30.2,7.7l7.7,30.2L336.7,160.4z M291.6,237.9l7.7,30.2l30.2-7.7l-7.7-30.2L291.6,237.9z M276,176.5
	l7.7,30.2l30.2-7.7l-7.7-30.1L276,176.5z M298.2,137.5l-7.7-30.1l-30.2,7.7l7.7,30.2L298.2,137.5z M253.1,215l7.7,30.2l30.2-7.7
	l-7.7-30.2L253.1,215z M237.4,153.6l7.7,30.2l30.1-7.7l-7.7-30.2L237.4,153.6z M259.6,114.6l-7.7-30.2l-30.1,7.7l7.7,30.2
	L259.6,114.6z M214.5,192.2l7.7,30.1l30.1-7.7l-7.7-30.2L214.5,192.2z M198.9,130.7l7.7,30.1l30.2-7.7L229,123L198.9,130.7z
	 M221.1,91.8l-7.7-30.2l-30.2,7.7l7.7,30.2L221.1,91.8z M176,169.3l7.7,30.2l30.2-7.7l-7.7-30.2L176,169.3z M190.5,100.2l-30.1,7.7
	L168,138l30.2-7.7L190.5,100.2z M153.1,207.8l7.7,30.2l30.1-7.7l-7.7-30.1L153.1,207.8z M182.5,68.9l-7.7-30.2l-30.2,7.7l7.7,30.1
	L182.5,68.9z M137.4,146.4l7.7,30.2l30.2-7.7l-7.7-30.1L137.4,146.4z M159.6,107.4l-7.7-30.1L121.8,85l7.7,30.2L159.6,107.4z
	 M114.6,184.9l7.7,30.2l30.2-7.7l-7.7-30.2L114.6,184.9z M129,115.8l-30.1,7.7l7.7,30.2l30.2-7.7L129,115.8z M113.4,54.4l-30.2,7.7
	l7.7,30.2l30.2-7.7L113.4,54.4z M551.7,97.2l-0.5-0.5l-0.9-0.6c-2.9-1.9-6.3-3.2-10.3-3.8h-0.4c-4.6-0.5-9.1,0.1-13.1,1.8
	c-39.3,15.2-74.4,24.8-104.1,28.5c-5.5,0.5-10.4,1.1-15.2,1.6c-9.2,1.1-17.2,2-24.6,2c-7.1,0-13.3-0.9-19.6-2.7
	c-15-4.4-38-17.4-52.4-29.8c-14.3-12-29.9-31.3-35.4-38.3l-13.7-15.8c-4.9-5.6-29.3-32.2-58.2-37c-4.6-0.8-9.6-1.2-14.7-1.2
	c-14.7,0-30.5,3.4-46.9,10.1c-23.4,8.8-55.3,27-87.6,49.9l-0.9,0.3c0,0-3.9-4.6-31.1,4.2C-1.1,73.3,0,78.2,0,78.2l114.5,433.6H174
	L114.5,287c11.1-3.3,82.2-21.6,91-24c18-5,25.8-6.7,31-6.7c2.8,0,5.3,0.4,9.6,1.2h0.2c0.9,0.2,1.9,0.3,3,0.5
	c9.2,1.5,19.7,6.2,31.9,14.4l0.2,0.1c5.4,3.5,10.8,7.6,16.1,11.5c15.7,11.8,32,24.1,53.1,25.4c1.1,0.1,2.3,0.1,3.4,0.1
	c14.9,0,31.3-6.7,65.3-26.7l2.1-1.6c28.9-27.1,64.9-64.9,131.8-156.9l0.4-0.5c2.7-4.2,4.1-8.5,4.1-12.8
	C557.9,105.7,555.7,100.8,551.7,97.2z M27.7,72.8c-7,2.1-13.1,2.6-13.5,1.2c-0.4-1.4,4.9-4.3,12-6.3c7-2.1,13.1-2.6,13.5-1.2
	S34.7,70.8,27.7,72.8z M529.4,144l0.7-0.2c-0.3,0.4-0.7,0.9-1,1.3l-0.1-0.4l-30.2,7.7l6.2,24.3c-2.3,2.9-4.5,5.8-6.7,8.5l-22.4,5.7
	l4.3,16.7c-5.7,6.9-11.1,13.2-16.2,19l-11,2.8l1.9,7.4c-9.9,11-18.6,19.9-26.3,27.5l-6.9-27l-30.2,7.7l7.7,30.1L424,269
	c-2.5,2.4-5,4.7-7.3,7l-0.4,0.4l-0.5,0.3c-5.3,3.1-10.1,5.9-14.6,8.4l-2.3-9l-30.1,7.7l3.8,15c-7.2,2.6-13,3.7-18.5,3.7
	c-1,0-2,0-3-0.1c-4-0.3-7.8-1-11.5-2l-2.2-8.6l-11.4,2.9c-8.5-4.5-16.4-10.5-24.1-16.3c-0.2-0.2-0.4-0.3-0.7-0.5l-2.3-9l-7.3,1.9
	c-2.1-1.5-4.2-2.9-6.3-4.2l0,0l0,0c-8.3-5.5-15.8-9.6-22.8-12.3l-2.1-8.2L245,250c-3.2-0.5-5.7-0.9-8.4-0.9c-2.2,0-4.7,0.2-7.9,0.8
	l-6.8-26.7l-30.1,7.7l6.8,26.6c-8.4,2.2-19.2,5-30.6,7.8c-0.2,0.1-0.4,0.1-0.7,0.2l-6.8-26.6l-30.1,7.7l6.9,27
	c-8.7,2.4-16.3,4.6-20.3,5.9l0,0l-4.1,1.2l-7.5-28.3l24.2-6.2l-7.7-30.2l-24.5,6.3l-8.2-31.2l24.8-6.3l-7.7-30.2l-25,6.4l-8.2-31.2
	l25.3-6.5l-7.7-30.2l-25.6,6.5l-8.2-30.9l25.7-6.9l-2.4-9.2C90.1,46,99.8,40.1,109,35l4.8,18.7L144,46l-6.4-25.1
	c2.4-1,4.7-1.9,6.9-2.8c8.1-3.3,16.1-5.8,23.8-7.4l7,27.3l30.2-7.7l-5.4-21c0.7,0.1,1.5,0.2,2.2,0.3c11.5,1.9,22.4,7.7,31.3,14.1
	l-27.4,7l7.7,30.2l30.1-7.7l-6.8-26.8c10.2,7.9,17.3,15.9,19.3,18.2c0.3,0.2,0.5,0.5,0.8,0.7c1.3,1.2,2.8,2.5,4.3,4l-16.9,4.3
	l7.7,30.2l30.2-7.7l-0.2-0.9c0.4,0.4,0.8,0.9,1.1,1.3h-0.2l7.7,30.1l18.5-4.7c4.8,3.8,10.2,7.6,15.9,11.2l4.2,16.4l17.7-4.5
	c5,2.3,9.8,4.2,13.9,5.4c0.5,0.1,1,0.3,1.4,0.4l5.5,21.6l30.1-7.7l-3-12c4.1-0.4,8.4-0.9,13-1.4c4.8-0.5,9.7-1.1,15.1-1.6
	c1.4-0.2,2.8-0.4,4.3-0.6l1.9,7.6l30.2-7.7l-1.5-5.7c10-2.4,20.3-5.2,31.1-8.6l1.6,6.3l30.2-7.7l-2.2-8.7c3.4-1.3,6.9-2.6,10.4-3.9
	c2.2-1,4.6-1.4,7.1-1.4c0.8,0,1.6,0.1,2.4,0.2h0.1h0.1c2.9,0.4,5.3,1.3,7.4,2.6l0.3,0.2l0.3,0.2c1.3,1.2,2.3,2.5,2.9,4.1l-28.1,7.2
	L529.4,144z M460.3,129.5l7.7,30.1l30.2-7.7l-7.7-30.2L460.3,129.5z M437.4,168l7.7,30.2l30.2-7.7l-7.7-30.1L437.4,168z
	 M414.5,206.6l7.7,30.2l30.1-7.7l-7.7-30.2L414.5,206.6z M436.7,167.6l-7.7-30.1l-30.1,7.7l7.7,30.2L436.7,167.6z M376,183.7
	l7.7,30.2l30.2-7.7l-7.7-30.2L376,183.7z M353.1,222.3l7.7,30.1l30.2-7.7l-7.7-30.2L353.1,222.3z M375.3,183.3l-7.7-30.2l-30.1,7.7
	l7.7,30.1L375.3,183.3z M330.2,260.8l7.7,30.2l30.1-7.7l-7.7-30.1L330.2,260.8z M314.5,199.4l7.7,30.2l30.2-7.7l-7.7-30.1
	L314.5,199.4z M336.7,160.4l-7.7-30.2l-30.2,7.7l7.7,30.2L336.7,160.4z M291.6,237.9l7.7,30.2l30.2-7.7l-7.7-30.2L291.6,237.9z
	 M306.1,168.8l-30.2,7.7l7.7,30.2l30.2-7.7L306.1,168.8z M298.2,137.5l-7.7-30.1l-30.2,7.7l7.7,30.2L298.2,137.5z M253.1,215
	l7.7,30.2l30.2-7.7l-7.7-30.2L253.1,215z M237.4,153.6l7.7,30.2l30.1-7.7l-7.7-30.2L237.4,153.6z M259.6,114.6l-7.7-30.2l-30.1,7.7
	l7.7,30.2L259.6,114.6z M214.5,192.2l7.7,30.1l30.1-7.7l-7.7-30.2L214.5,192.2z M198.9,130.7l7.7,30.1l30.2-7.7L229,123L198.9,130.7
	z M221.1,91.8l-7.7-30.2l-30.2,7.7l7.7,30.2L221.1,91.8z M176,169.3l7.7,30.2l30.2-7.7l-7.7-30.2L176,169.3z M190.5,100.2l-30.1,7.7
	L168,138l30.2-7.7L190.5,100.2z M153.1,207.8l7.7,30.2l30.1-7.7l-7.7-30.1L153.1,207.8z M182.5,68.9l-7.7-30.2l-30.2,7.7l7.7,30.1
	L182.5,68.9z M137.4,146.4l7.7,30.2l30.2-7.7l-7.7-30.1L137.4,146.4z M159.6,107.4l-7.7-30.1L121.8,85l7.7,30.2L159.6,107.4z
	 M114.6,184.9l7.7,30.2l30.2-7.7l-7.7-30.2L114.6,184.9z M129,115.8l-30.1,7.7l7.7,30.2l30.2-7.7L129,115.8z M113.4,54.4l-30.2,7.7
	l7.7,30.2l30.2-7.7L113.4,54.4z"/>
</svg>
