<?xml version="1.0" encoding="utf-8"?>
<!-- Generator: Adobe Illustrator 21.1.0, SVG Export Plug-In . SVG Version: 6.00 Build 0)  -->
<svg version="1.1" id="_x33_2_1_" xmlns="http://www.w3.org/2000/svg" xmlns:xlink="http://www.w3.org/1999/xlink" x="0px" y="0px"
	 viewBox="0 0 397.9 512" style="enable-background:new 0 0 397.9 512;" xml:space="preserve">
<g>
	<path d="M390.5,430.5L278.6,236.6c-0.1-0.2-0.2-0.5-0.2-0.8l0-145.8h2c7.7,0,14-6.3,14-14s-6.3-14-14-14h-164c-7.7,0-14,6.3-14,14
		s6.3,14,14,14h2.7v145.8c0,0.3-0.1,0.5-0.2,0.8L7.3,430.5c-20.8,36.2,5.3,81.5,47.1,81.5h289C385.2,512,411.4,466.7,390.5,430.5z
		 M146.9,252.2l4.1-7.1c0.1-0.2,0.2-0.5,0.2-0.8V96.8c0-0.8,0.7-1.5,1.5-1.5h93.7v149.1c0,0.3,0.1,0.5,0.2,0.8l4.1,7.1l25.8,44.7
		h-73.3c-3.2,8.5-11.4,14.7-21.1,14.7c-9.7,0-17.9-6.1-21.1-14.7h-39.8L146.9,252.2z M343.1,480l-288.4,0
		c-17.3,0-28.2-18.7-19.5-33.7l70.9-123.2h185.5l71,123.2C371.2,461.3,360.4,480,343.1,480z"/>
	<path d="M232.2,371.8c-17.2,0-31.1,14-31.1,31.1c0,17.2,14,31.1,31.1,31.1s31.1-14,31.1-31.1C263.4,385.8,249.4,371.8,232.2,371.8z
		 M222.3,390.5c-0.1,0.1-0.1,0.1-0.2,0.1c-2.1,1.8-3.4,4.4-3.4,7.2c0,1.6-1.3,2.9-2.9,2.9c-1.6,0-2.9-1.3-2.9-2.9
		c0-4.6,2.1-8.9,5.6-11.7V386c1.2-1,3.1-0.9,4.1,0.3C223.7,387.7,223.5,389.5,222.3,390.5z M227.5,402.3c-2.3,0-4.2-1.9-4.2-4.2
		c0-2.3,1.9-4.2,4.2-4.2s4.2,1.9,4.2,4.2C231.7,400.4,229.8,402.3,227.5,402.3z"/>
	<path d="M182,266.5c-12.4,0-22.5,10.1-22.5,22.5c0,2.8,0.5,5.4,1.4,7.9h42.2c0.9-2.5,1.4-5.1,1.4-7.9
		C204.5,276.6,194.4,266.5,182,266.5z M174.8,280.1c0,0-0.1,0-0.1,0.1c-1.5,1.3-2.5,3.2-2.5,5.2c0,1.2-1,2.1-2.1,2.1
		c-1.2,0-2.1-0.9-2.1-2.1c0-3.3,1.5-6.4,4.1-8.5v0c0.9-0.7,2.2-0.7,3,0.3C175.8,278,175.7,279.3,174.8,280.1z M178.6,288.6
		c-1.7,0-3-1.4-3-3c0-1.7,1.4-3,3-3c1.7,0,3,1.3,3,3C181.6,287.2,180.3,288.6,178.6,288.6z"/>
	<path d="M206.7,233.4c-6.4,0-11.7,5.2-11.7,11.7c0,6.4,5.2,11.7,11.7,11.7s11.7-5.2,11.7-11.7C218.4,238.6,213.1,233.4,206.7,233.4
		z M203,240.4C202.9,240.5,202.9,240.5,203,240.4c-0.9,0.7-1.4,1.7-1.4,2.7c0,0.6-0.5,1.1-1.1,1.1c-0.6,0-1.1-0.5-1.1-1.1
		c0-1.7,0.8-3.3,2.1-4.4v0c0.5-0.4,1.2-0.3,1.5,0.1C203.5,239.4,203.4,240.1,203,240.4z M204.9,244.8c-0.9,0-1.6-0.7-1.6-1.6
		c0-0.9,0.7-1.6,1.6-1.6s1.6,0.7,1.6,1.6C206.5,244.1,205.8,244.8,204.9,244.8z"/>
	<path d="M195.1,161.9c-9.4,0-17.1,7.7-17.1,17.1c0,9.4,7.7,17.1,17.1,17.1c9.4,0,17.1-7.7,17.1-17.1
		C212.2,169.6,204.5,161.9,195.1,161.9z M189.6,172.2C189.6,172.2,189.6,172.2,189.6,172.2c-1.3,1-2,2.5-2,4c0,0.9-0.7,1.6-1.6,1.6
		c-0.9,0-1.6-0.7-1.6-1.6c0-2.5,1.1-4.9,3.1-6.4v0c0.7-0.6,1.7-0.5,2.2,0.2C190.4,170.6,190.3,171.6,189.6,172.2z M192.5,178.6
		c-1.3,0-2.3-1-2.3-2.3c0-1.3,1-2.3,2.3-2.3c1.3,0,2.3,1,2.3,2.3C194.8,177.6,193.8,178.6,192.5,178.6z"/>
	<path d="M198.8,0C189,0,181,8,181,17.9c0,9.9,8,17.9,17.9,17.9s17.9-8,17.9-17.9C216.7,8,208.7,0,198.8,0z M193.1,10.8
		c0,0-0.1,0-0.1,0.1c-1.2,1-2,2.5-2,4.1c0,0.9-0.8,1.7-1.7,1.7c-0.9,0-1.7-0.7-1.7-1.7c0-2.6,1.2-5.1,3.2-6.7v0
		c0.7-0.6,1.8-0.5,2.3,0.2C193.9,9.1,193.8,10.2,193.1,10.8z M196.1,17.5c-1.3,0-2.4-1.1-2.4-2.4c0-1.3,1.1-2.4,2.4-2.4
		c1.3,0,2.4,1.1,2.4,2.4C198.5,16.5,197.4,17.5,196.1,17.5z"/>
	<path d="M161.8,35.5c-5.9,0-10.7,4.8-10.7,10.7c0,5.9,4.8,10.7,10.7,10.7c5.9,0,10.7-4.8,10.7-10.7
		C172.5,40.3,167.7,35.5,161.8,35.5z M158.4,41.9C158.4,42,158.3,42,158.4,41.9c-0.8,0.6-1.2,1.5-1.2,2.5c0,0.5-0.4,1-1,1
		c-0.5,0-1-0.4-1-1c0-1.6,0.7-3,1.9-4v0c0.4-0.3,1.1-0.3,1.4,0.1C158.9,41,158.8,41.6,158.4,41.9z M160.2,46c-0.8,0-1.4-0.6-1.4-1.4
		c0-0.8,0.6-1.4,1.4-1.4s1.4,0.6,1.4,1.4C161.6,45.3,161,46,160.2,46z"/>
</g>
</svg>
