<?xml version="1.0" encoding="utf-8"?>
<!-- Generator: Adobe Illustrator 21.1.0, SVG Export Plug-In . SVG Version: 6.00 Build 0)  -->
<svg version="1.1" id="Layer_3" xmlns="http://www.w3.org/2000/svg" xmlns:xlink="http://www.w3.org/1999/xlink" x="0px" y="0px"
	 viewBox="0 0 421.5 512" style="enable-background:new 0 0 421.5 512;" xml:space="preserve">
<g>
	<path d="M96.9,209.6l-0.3,0.3l40,41.2l14.6-13.7l-17.7-18.1c25.1,2.5,48,13.2,63.6,31.6c-10.2,16.7-15.9,36.6-15.9,58.4
		c0,51.7,0,105,0,105h20.1c0,0,0-66.8,0-102.5c0-15.6,2.9-29.3,8.2-41c5.2,11.7,8.2,25.4,8.2,41c0,35.7,0,102.5,0,102.5h20.1
		c0,0,0-53.3,0-105c0-21.8-5.6-41.7-15.8-58.3c15.5-18.4,38.4-29.1,63.6-31.6L268,237.6l14.6,13.7l40-41.2l-0.3-0.3l0.3-0.3
		l-40-41.2L268,182l17.4,17.9c-31.4,2.5-57.5,15.2-75.8,34.8c-18.2-19.6-44.4-32.3-75.8-34.8l17.4-17.9l-14.6-13.7l-40,41.2
		L96.9,209.6z"/>
	<polygon points="199.5,38.1 199.5,206.2 209.5,215.6 219.5,206.2 219.5,36.3 238.4,54.8 252.2,40.3 210.8,0 168.7,40.3 182.5,54.8 
			"/>
	<path d="M301,110v35.9c53.1,31.1,88.8,88.7,88.8,154.6c0,98.9-80.1,179-179,179s-179-80.1-179-179c0-66,35.7-123.6,88.8-154.6V110
		C49.3,143.8,0,216.4,0,300.5c0,116.4,94.4,210.8,210.8,210.8s210.7-94.4,210.7-210.8C421.5,216.4,372.2,143.8,301,110z"/>
</g>
</svg>
