<?xml version="1.0" encoding="utf-8"?>
<!-- Generator: Adobe Illustrator 21.1.0, SVG Export Plug-In . SVG Version: 6.00 Build 0)  -->
<svg version="1.1" id="Layer_1" xmlns="http://www.w3.org/2000/svg" xmlns:xlink="http://www.w3.org/1999/xlink" x="0px" y="0px"
	 viewBox="0 0 361 512" style="enable-background:new 0 0 361 512;" xml:space="preserve">
<g>
	<path d="M361,229.5l-63.9-66l-23.3,22l27.8,28.7c-50.2,4-92,24.4-121.1,55.7c-29.1-31.3-70.9-51.7-121.1-55.7l27.8-28.7l-23.3-22
		L0,229.5l0.5,0.5L0,230.5l63.9,66l23.3-22L59,245.4c40.2,4,76.8,21.1,101.7,50.6c-16.3,26.7-25.4,58.6-25.4,93.5
		c0,82.8,0,123,0,123h32.2c0,0,0-61.8,0-119c0-25,4.7-46.9,13-65.7c8.3,18.8,13,40.7,13,65.7c0,57.2,0,119,0,119h32.1
		c0,0,0-40.2,0-123c0-34.9-9-66.7-25.3-93.5c24.8-29.5,61.5-46.5,101.6-50.6l-28.2,29.1l23.3,22l63.9-66l-0.4-0.5L361,229.5z"/>
	<polygon points="162.5,61.4 162.5,224.5 178.5,239.5 194.5,224.5 194.5,58.5 224.6,87.5 246.7,64.3 180.5,0.5 180,0 179.5,0.5 
		113.3,64.3 135.4,87.5 	"/>
</g>
</svg>
