<?xml version="1.0" encoding="utf-8"?>
<!-- Generator: Adobe Illustrator 21.1.0, SVG Export Plug-In . SVG Version: 6.00 Build 0)  -->
<svg version="1.1" id="Layer_1" xmlns="http://www.w3.org/2000/svg" xmlns:xlink="http://www.w3.org/1999/xlink" x="0px" y="0px"
	 viewBox="0 0 545.2 512" style="enable-background:new 0 0 545.2 512;" xml:space="preserve">
<style type="text/css">
	.st0{fill:#010101;}
</style>
<g id="_x33_2">
	<path d="M367.2,48c21.9,21.1,43.3,43,64.1,64.3c24.3,24.9,49.2,50.5,75.3,75.1c-7,14.1-17.2,27.7-31.1,41.6
		c-26.5,26.5-62.5,50.4-104.2,78.1c-52.1,34.5-111.1,73.7-165.6,128.3c-8.8,8.8-17.4,17.9-25.4,27c-0.7,0.7-1.3,1.5-2,2.2
		c-34-33.2-96.9-95.7-138-140.9c7.8-11.1,17.6-22.5,29.4-34.3c35-35,83.5-68.9,130.4-101.7c49.6-34.7,100.8-70.5,140.3-110
		C350.5,67.7,359.4,57.8,367.2,48 M362.5,0.3c-0.4,0-0.8,0.2-1.2,0.6c-0.4,0.4-0.8,0.9-1.2,1.6c-11,18.3-25.4,35.7-42.2,52.5
		c-74.8,74.8-196.7,137.7-270.7,211.8c-19.4,19.3-35.4,39.3-46.5,60.5c54.8,63.5,179.6,184.3,180.4,184.3l0,0
		c7.5-9.7,15.3-19,23.2-27.9s15.9-17.4,24.1-25.6c95.2-95.2,206-142.5,269.8-206.3c21.6-21.6,37.8-45,46.3-72.9
		C481.7,121.8,426.8,58.2,364.1,1.2l-0.6-0.4C363.1,0.5,362.8,0.3,362.5,0.3L362.5,0.3z"/>
	<path d="M347.1,239.3l20.7,20.7c31.9-21.3,59.9-40.6,81.4-60.9L426,176C402,198.1,374.9,219.1,347.1,239.3z"/>
	<path d="M359.2,109.1c-24,22.2-51,43.1-78.9,63.4l20.7,20.7c31.9-21.3,59.9-40.6,81.4-60.9L359.2,109.1z"/>
	<path id="netherland_guilder_2_" class="st0" d="M168.1,274.8c1.6-1.6,3.5-2.9,5.4-3.8l-15.1-17.3c-3.7,1.8-9.1,6.3-12.2,9.4
		c-13.6,13.6-11.7,38.1-0.1,52.9l8.1,10.3l-12.6,12.6l12.5,13.2l11.4-11.4c6.5,8.4,17.2,21,21.1,26c6.5,7.8,6.7,18.2-0.4,25.4
		c-2.8,2.8-6.2,4.4-9.7,5l16.3,18.9c3.7-1.8,7-4.3,10.1-7.2c0.3-0.3,5.7-5.7,6-6.2c13.8-14.7,10.1-39.2-3.1-54.5l-21.4-26.5
		l16.6-16.6l-12.5-13.3l-15.4,15.4l-7.3-9.2l0,0C161.1,290.8,161.8,281,168.1,274.8z"/>
</g>
</svg>
