<?xml version="1.0" encoding="utf-8"?>
<!-- Generator: Adobe Illustrator 21.1.0, SVG Export Plug-In . SVG Version: 6.00 Build 0)  -->
<svg version="1.1" id="Layer_1" xmlns="http://www.w3.org/2000/svg" xmlns:xlink="http://www.w3.org/1999/xlink" x="0px" y="0px"
	 viewBox="0 0 521.5 512" style="enable-background:new 0 0 521.5 512;" xml:space="preserve">
<path d="M60.7,55.9c20.7,0,99.8-0.1,99.8-0.1c3.9,0,7.7,0.6,11.4,1.8c3.9,1.5,7.3,3.2,10,5.4l72.5,52.6c3.3,2.1,6.8,3.9,10.5,5.4
	c3.9,1.2,7.7,1.8,11.4,1.8l163,0.1c11.2,0,20.5,9.5,20.5,20.5v50l28.2,0.3c26.9,0,37,20.1,32.3,39.7c-3.1,16.6-43,185-45.3,196
	S453.1,461,421.2,461s-399.8,0-399.8,0c-13.7,0-21.4-11.3-21.4-21.4c0,0,0-293.4,0-295.3c0-11.9,9.4-21.4,21.4-21.4c1,0,7.2,0,7.2,0
	c0-3.9,0-18.7,0-34.8S40,55.9,60.7,55.9z M57.1,93.4c0,0.8,0,57.1,0,57.1s-12.4,0-20.5,0c-4.8,0-8.1,6.3-8.1,9c0,25.5,0,33.9,0,33.9
	h402.6c0,0,0-32.3,0-33c0-6.1-4.1-9-10.7-9c-0.5,0-148.4,0-148.4,0c-7.8,0-22.6-3.3-34.8-12.5c-7.7-5.8-66.4-49.6-66.4-49.6
	c-3.6-2.3-6.3-4.7-10.5-4l-95.3,0.1C60,85.3,57.1,88.6,57.1,93.4z M28.6,221.9c0,0,0,198.6,0,202.6c0,3.9,3.5,8.1,9,8.1
	s366.6,0,386.6,0c20,0,24.6-14.9,26.8-25.9c2.2-10.9,37.7-158.2,40.1-170.4c0.5-4.7,1.2-15.7-13.3-14.2L28.6,221.9L28.6,221.9z"/>
</svg>
