<?xml version="1.0" encoding="utf-8"?>
<!-- Generator: Adobe Illustrator 21.1.0, SVG Export Plug-In . SVG Version: 6.00 Build 0)  -->
<svg version="1.1" id="Layer_1" xmlns="http://www.w3.org/2000/svg" xmlns:xlink="http://www.w3.org/1999/xlink" x="0px" y="0px"
	 viewBox="0 0 521.5 512" style="enable-background:new 0 0 521.5 512;" xml:space="preserve">
<path d="M67.7,44.5h111.7c9.2,0,17.3,2.8,24.5,8.5c36,26.2,63,45.9,81,59.2c8.5,6.3,15.7,7,24.9,7c0,0,182.1,0,188.8,0
	c12.5,0,22.9,10.6,22.9,23.9c0,4.5,0,292,0,301.5s-6.6,23.9-21.9,23.9c-15.3,0-460.3,0-475.7,0S0,455.9,0,444.6
	c0-12.2,0-241.3,0-301.5c0-13.3,10.5-23.9,23.9-23.9c3.1,0,8,0,8,0V80.4C31.8,62.4,44.6,44.5,67.7,44.5z M63.7,86.3v63.8
	c0,0-13.6,0-23,0c-4.8,0-8.9,2.9-8.9,9c0.1,15.6,0,38.8,0,38.8h457.8c0,0,0-22.6,0-36.9c0-6.8-4.6-10-12-10H306.8
	c-15,0-28.3-3.5-41.2-13.4c-5.5-3.9-73-54.3-73-54.3s-7.3-6-13.8-6c-11.5,0-100.3,0-106.2,0C66.9,77.4,63.7,81.1,63.7,86.3z
	 M31.8,229.8c0,0,0,191.9,0,197.9c0,4.3,3.9,9,10,9s433.5,0,437.9,0s10-4.6,10-10c0-5.4,0-110.8,0-196.9L31.8,229.8L31.8,229.8z"/>
</svg>
