<?xml version="1.0" encoding="utf-8"?>
<!-- Generator: Adobe Illustrator 21.1.0, SVG Export Plug-In . SVG Version: 6.00 Build 0)  -->
<svg version="1.1" id="Layer_1" xmlns="http://www.w3.org/2000/svg" xmlns:xlink="http://www.w3.org/1999/xlink" x="0px" y="0px"
	 viewBox="0 0 512 512" style="enable-background:new 0 0 512 512;" xml:space="preserve">
<style type="text/css">
	.st0{fill:#010101;}
</style>
<g id="_x33_2">
	<g>
		<rect x="0.3" y="485.6" width="511.3" height="26.4"/>
	</g>
	<path class="st0" d="M157.6,162.7c0,0-31-10.6-28.3-45.5c2.7-35.9,32.8-48.3,45.5-75.6c9.7-20.7-1.8-41.6-1.8-41.6s22,8.1,16.8,41
		c-8.4,52.8-43.5,47.9-42.4,89C147.9,145.5,157.6,162.7,157.6,162.7z"/>
	<path class="st0" d="M96.1,162.7c0,0-26.1-21.3-16.1-56.7c9.1-32.2,28.7-38.7,41.4-63.1c9.7-18.5,3.3-25.6,3.3-25.6
		s8.9,5.5,5.7,22.5c-4.6,25.2-44,41.6-44.5,93.7C85.8,147.3,96.1,162.7,96.1,162.7z"/>
	<path class="st0" d="M378.1,218.5c0,0,26.5-10.6,24.2-45.5c-2.3-35.9-28-48.3-38.9-75.6c-8.3-20.7,3.7-51.5,3.7-51.5
		s-23.2,18-18.7,50.9c7.1,52.8,41.4,40.4,38.4,89C385.9,201.2,378.1,218.5,378.1,218.5z"/>
	<path class="st0" d="M430.7,218.5c0,0,23.2-12.6,21.1-49.3C450,137,420.4,120.4,409.5,96c-8.3-18.5-3.1-27.6-3.1-27.6
		s-7.9,10.4-7.9,27.2c0,25.6,40.8,36.3,40.8,93.7C439.3,203.1,430.7,218.5,430.7,218.5z"/>
	<path d="M256,250.2c53.5,0,104.3,21.3,142.9,59.9c31,31,51.7,70.6,59.8,113.8H53.2c8.1-43.2,28.8-82.8,59.8-113.8
		C151.7,271.5,202.5,250.2,256,250.2 M256,218.2C127.4,218.2,22.6,323.8,17.5,456h477C489.4,323.8,384.6,218.2,256,218.2L256,218.2z
		"/>
	<path class="st0" d="M0.7,512v-26.4H512V512H0.7z"/>
	<g>
		<path d="M251.1,176.3c-16.1,0-29.2,13.1-29.2,29.2h58.4C280.3,189.4,267.2,176.3,251.1,176.3L251.1,176.3z"/>
	</g>
</g>
</svg>
