<?xml version="1.0" encoding="utf-8"?>
<!-- Generator: Adobe Illustrator 22.0.1, SVG Export Plug-In . SVG Version: 6.00 Build 0)  -->
<svg version="1.1" id="Layer_1" xmlns="http://www.w3.org/2000/svg" xmlns:xlink="http://www.w3.org/1999/xlink" x="0px" y="0px"
	 viewBox="0 0 512 512" style="enable-background:new 0 0 512 512;" xml:space="preserve">
<g>
	<path d="M256,0C114.6,0,0,114.6,0,256s114.6,256,256,256s256-114.6,256-256S397.4,0,256,0z M463.4,167.7
		c1.7,12.8,0.4,40.4-2.8,57.1c-4.8,0.3-11.2,0.6-19.2,1.1c-5.7,0.3-12.1,0.7-17.2,1c-15.9-25.4-43.9-62.6-67.8-84.1
		c0.7-8.6,1.9-22.5,2.9-33.7c0.6-7.2,1.1-12.9,1.5-17.2c12.1-2.1,31.9-4.3,43.7-4.3c0.3,0,0.6,0,0.9,0
		C424.7,102.9,453.8,143,463.4,167.7z M372.4,46.1c-12.1,1.3-31.3,3.4-32,3.6C322,38,292,29,269,26l-4.4-9.8
		C303.6,17.6,340.3,28.2,372.4,46.1z M97.4,75.9c6.9-5.7,15.7-12.6,24.9-19.2c27.7-18.6,59.4-31.6,93.6-37.3
		c1.9,4.8,6.2,15.5,6.2,15.6c-18,12.4-38.6,31.9-48.1,41.1c-21.3,0.5-66.4,10.2-87,16l-3.2-3.2C88.2,84.3,92.7,80,97.4,75.9z
		 M87,382.3c-3.5,1.7-18.9,9.3-26.5,13C32.5,356,16,307.9,16,256c0-0.3,0-0.6,0-0.9c4.3-2,10.1-4.6,15-6.3
		c15.4,25.3,35.4,51.1,52.3,67.4C82.1,336,84.3,364.3,87,382.3z M90.2,429.5c5-2.2,10.9-4.7,15.3-6.7c2.1-1,4-1.9,5.6-2.7
		c10.6,7.1,25.4,14,37.4,19.1c6.6,2.8,25.9,10.7,40.3,14c5.2,8.2,10.8,15.6,16.5,22.3c6,6.4,12.7,13.3,17.4,18.2
		C171.7,486.6,125.8,463.5,90.2,429.5z M426.5,396.4c-4.1,22.3-15.1,39.4-20.3,46.8C365.1,476.2,312.9,496,256,496
		c-2.5,0-4.9,0-7.3-0.1c-8.3-7-33.2-28.3-49.9-57.2c-15.1-0.8-73.6-24.6-85.7-37.3C112,402,84.9,415.1,78.9,418
		c-3-3.3-5.9-6.7-8.8-10.2c6.4-2.9,31.3-14.5,34.9-16.5c-3.4-12.5-8.3-59.1-5-81.6c-19.1-16.3-45.6-50.6-62.5-81.6
		c-1.6,0.9-16,7.5-20.8,9.5c4-52.1,24.5-99.5,56.4-137c1.7,2.7,7.2,10.2,8.7,12.6C99.3,104,143,92,177.8,92c0.9,0,1.9,0,2.8,0
		c10.5-10.8,45.3-43.6,62.5-51.4c-1-2.7-7.7-19.2-9.8-23.6c4.3-0.4,8.7-0.7,13.1-0.9c1.5,4,8.1,22.1,9.8,22.4
		c31.3,2.7,61.6,15.4,81.6,28.2c7.3-3,47.2-7.1,55.1-7.9c5.7,4,11.3,8.3,16.7,12.7c-1.4-0.1-3.1-0.2-5-0.2c-16,0-49.3,3.9-58.7,7.5
		c-0.2,2.7-5.9,67.3-6,70.5c25.8,20.7,61.2,68.8,75.6,93.7c3.9,0,52.8-3,57.4-3c5.8-14.5,8.5-52.1,6.7-71.6
		c5.4,13.9,9.6,28.4,12.4,43.4c-2,9.3-6.1,31.9-8,37.3c5.2,11.2,7.9,32.8,9.2,43.5c-3.6,23.5-10.6,45.8-20.5,66.5
		C466,367.9,449.2,387.6,426.5,396.4z"/>
	<path d="M372.7,369.8c7.1,7.8,17.9,19.8,24.3,27c-9.4,34.1-37.3,55.3-48.2,63.7c-0.7,0.5-1.4,1-1.9,1.5
		c-31.1,11.6-62.7,14.8-75.4,15.2c-17.5-13.1-33.3-30-41.4-41.4c6-7.8,15.2-19.5,22-28.3c7-9,12-15.3,15.2-19.5
		C302.9,385.9,348.7,377.4,372.7,369.8 M377.1,351c-14.9,7.5-76.2,20-117.9,21.2c-3,4.2-45.9,58.7-48.4,62.5
		c6.8,14.7,31.2,41.4,55.4,58.5c0.8,0,1.7,0.1,2.8,0.1c14.4,0,51.3-3.8,85.9-17.2c6.4-5.6,50.1-33.5,59.5-83.6
		C412.6,390.1,379.4,353,377.1,351L377.1,351z"/>
	<path d="M169.8,121.6l37.4,51.7c-7.6,22.5-25.1,73.8-32.1,95.8c-15.7,3.8-47.8,11.1-61.9,13.6c-20-18.6-41-49.8-50.8-68.9
		c5.4-25.6,16.1-58.2,30.1-73.4c9.4-6.5,27-12,49.9-15.6C153.2,123.1,163.1,122.1,169.8,121.6 M177.6,105.1c0,0-67.9,2.4-95.7,23.2
		C57.1,153.7,46,214,45.6,216c9.1,19.8,36.1,61.9,62.5,83.6c10.9-0.6,75.8-16.1,79.6-17.1c2.1-8.7,37.3-111.9,37.3-111.9
		L177.6,105.1L177.6,105.1z"/>
	<path d="M325,174.6c18.6,16.8,52,58.9,65.1,82.1c-2.9,8.9-8.1,24.4-13.4,39.2c-6.1,16.7-9.7,24.7-11.5,28.4
		c-29.7,12-79.4,16.8-98.7,18.3l-48.6-59.3c11.3-33.5,26.7-79.2,32.7-96c6.2-1.7,17.4-4.3,33.9-7.2
		C300.7,177.2,316.5,175.1,325,174.6 M328.4,158.4c-17.2,0-79.2,10.6-90.3,16.2c-3,6.6-38.3,111.9-38.3,111.9l59.5,72.6
		c0,0,77.6-4,116.9-22.2c8.8-11.6,28.6-73.9,31.2-81.6c-12.2-25.4-56.1-80.7-76.6-96.7C330.1,158.5,329.3,158.4,328.4,158.4
		L328.4,158.4z"/>
</g>
</svg>
