<?xml version="1.0" encoding="utf-8"?>
<!-- Generator: Adobe Illustrator 21.1.0, SVG Export Plug-In . SVG Version: 6.00 Build 0)  -->
<svg version="1.1" id="Layer_1" xmlns="http://www.w3.org/2000/svg" xmlns:xlink="http://www.w3.org/1999/xlink" x="0px" y="0px"
	 viewBox="0 0 550 512" style="enable-background:new 0 0 550 512;" xml:space="preserve">
<g>
	<g>
		<path d="M0,344.5c0,31.8,12.8,75.1,38.4,129.9c0.8,1.9,7.4,17.1,11.4,21.7c2.2,3.3,4.9,5,8.2,5c8.9,0,8.2-17.6,8.2-24.5
			C65.5,463.8,65,452,65,441.4c0-134,93-161.8,151.6-161.8h133v116L550,204.4L349.6,14.1V132h-68.3C85.7,132,0,203.9,0,344.5z
			 M38.1,394.7C3.2,226.4,104,162,278.2,162c7.1,0,58.2,0,58.2,0h44.8V86.5l124.1,118l-124,118.4v-73.3h-44.8c0,0-103,0-110,0
			C122.8,249.6,58.1,296.3,38.1,394.7z"/>
	</g>
</g>
</svg>
