<?xml version="1.0" encoding="utf-8"?>
<!-- Generator: Adobe Illustrator 21.1.0, SVG Export Plug-In . SVG Version: 6.00 Build 0)  -->
<svg version="1.1" id="Layer_1" xmlns="http://www.w3.org/2000/svg" xmlns:xlink="http://www.w3.org/1999/xlink" x="0px" y="0px"
	 viewBox="0 0 550 512" style="enable-background:new 0 0 550 512;" xml:space="preserve">
<g>
	<g>
		<path d="M265,144.1c10.8,15.6,28.8,25.6,48.7,25.6c10,0,19.6-2.4,28.1-7.1c15.9,10.3,29.1,24.2,38.7,40.8c0.1,0.1,0.1,0.2,0.2,0.3
			c-25.9,21-59.9,45.3-97.9,69.8c-36.4,23.5-72.8,44.8-103,60.2c-2.4-3.4-4.7-6.9-6.8-10.5l0,0l0,0c-16-27.7-20.2-59.9-12-90.8
			c8.3-30.9,28.1-56.7,55.8-72.7C231.7,151.1,248.2,145.8,265,144.1 M523.5,86.9c-29,0-79,17.3-137.1,45.6c0,0-2.6,1.1-3.3,1.3
			c2.3,1.5,5.9,4.4,7.8,6.9c41.9-18.9,77.4-30.1,99.1-30.1c9,0,15.7,1.9,19.4,6C533,141.5,435,238.7,294.4,327.4
			C190.7,392.8,104.4,428.5,65,428.5c-13.2,0-21-4-22.6-12.2c-3.5-19.1,26.7-56.9,76.9-100.8c-0.8-2-2.8-8.2-3.2-8.8
			c-0.8,0.6-2.5,2.2-3.6,3.3C47.5,364.6,6.9,412.6,10.3,436.6c1.4,9.9,10.6,14.7,26,14.7c45,0,143.6-40.8,261.7-114.9
			c163-102.5,276.2-215,247.5-243C541,89,533.6,86.9,523.5,86.9L523.5,86.9z M313.3,89.5c-12,0-21.7,9.7-21.7,21.7
			c0,11.9,9.7,21.7,21.7,21.7c12,0,21.7-9.7,21.7-21.7S325.4,89.5,313.3,89.5L313.3,89.5z M276.8,116.6c-24.9,0-50.2,6.3-73.2,19.7
			c-70.1,40.5-94.2,130.2-53.7,200.4c6.7,11.5,14.5,21.7,23.3,30.5c69.6-32.9,181.7-104.4,240.8-156.1c-2.7-7.1-6.1-14.2-10-21
			c-15.7-27-38.6-47.3-64.8-59.6c-5.9,7.5-15.1,12.4-25.3,12.4c-15.7,0-28.8-11.2-31.7-26.1C280.3,116.6,278.5,116.6,276.8,116.6
			L276.8,116.6z M422.7,278.5c-52.8,44.5-135.8,99.4-192.6,123.8c15.1,5.1,30.9,7.7,46.9,7.7c24.9,0,50.1-6.3,73.2-19.7
			C392.5,366.1,418,323.7,422.7,278.5L422.7,278.5z M214.8,454.9c-9.2,0-16.7,7.5-16.7,16.7s7.5,16.7,16.7,16.7s16.7-7.5,16.7-16.7
			C231.4,462.3,223.9,454.9,214.8,454.9L214.8,454.9z"/>
	</g>
	<g>
		<path d="M85.7,97.6c19.7,0,35.7-16,35.7-35.7s-16-35.7-35.7-35.7S50,42.2,50,61.9S66,97.6,85.7,97.6z M499.3,351.7
			c-15.8,0-28.7,12.9-28.7,28.7s12.9,28.7,28.7,28.7c15.8,0,28.7-12.9,28.7-28.7C527.9,364.5,515.1,351.7,499.3,351.7z M313.3,132.9
			c12,0,21.7-9.7,21.7-21.7s-9.7-21.7-21.7-21.7c-12,0-21.7,9.7-21.7,21.7C291.6,123.1,301.4,132.9,313.3,132.9z M394.1,61.5
			c9.7,0,17.4-7.7,17.4-17.4s-7.7-17.4-17.4-17.4c-9.7,0-17.4,7.7-17.4,17.4S384.5,61.5,394.1,61.5z M206.7,285
			c6.2,0,11.2,5.1,11.2,11.2c0,6.2-5.1,11.2-11.2,11.2c-6.2,0-11.2-5.1-11.2-11.2C195.4,290,200.4,285,206.7,285z M214.8,454.9
			c-9.2,0-16.7,7.5-16.7,16.7s7.5,16.7,16.7,16.7s16.7-7.5,16.7-16.7C231.4,462.3,223.9,454.9,214.8,454.9z M53.7,258.6
			c0-14.6-11.8-26.4-26.4-26.4S1,244,1,258.6s11.8,26.4,26.4,26.4S53.7,273.1,53.7,258.6z M545.5,93.4
			c-17.6-17.1-80.9,1.3-159.1,39.2c0,0-2.6,1.1-3.3,1.3c2.3,1.5,5.9,4.4,7.8,6.9c59.4-26.8,105.6-38.1,118.7-24.2
			c23.5,24.9-74.5,122.2-215.1,210.8C156,414.7,48.5,449,42.5,416.3c-3.5-19.1,26.7-56.9,76.9-100.8c-0.8-2-2.8-8.2-3.2-8.8
			c-0.8,0.6-2.5,2.2-3.6,3.3C47.5,364.6,6.9,412.6,10.3,436.6c5.6,38.7,129.2-0.7,287.7-100.3C461,233.8,574.2,121.3,545.5,93.4z"/>
	</g>
</g>
</svg>
