<?xml version="1.0" encoding="utf-8"?>
<!-- Generator: Adobe Illustrator 21.1.0, SVG Export Plug-In . SVG Version: 6.00 Build 0)  -->
<svg version="1.1" id="Layer_1" xmlns="http://www.w3.org/2000/svg" xmlns:xlink="http://www.w3.org/1999/xlink" x="0px" y="0px"
	 viewBox="0 0 550 512" style="enable-background:new 0 0 550 512;" xml:space="preserve">
<g id="_x33_2">
	<ellipse cx="179.7" cy="274.6" rx="22" ry="22"/>
	<circle cx="377.2" cy="245.6" r="26.7"/>
	<ellipse transform="matrix(0.9871 -0.1602 0.1602 0.9871 -33.3619 77.4444)" cx="463.6" cy="245.6" rx="26.7" ry="26.7"/>
	
		<ellipse transform="matrix(1.349460e-02 -0.9999 0.9999 1.349460e-02 235.2586 597.5214)" cx="420.4" cy="179.5" rx="26.7" ry="26.7"/>
	<circle cx="99" cy="211.6" r="44.2"/>
	<path d="M501.8,106.4L501.8,106.4c-5.8-39-6.9-37-12.7-42.6c-2-1.9-4.3-3.2-7.1-4c-0.2-2-0.6-4.7-0.6-4.8c0-3.1-14.9-5.7-33.4-5.7
		c-18.4,0-33.4,2.6-33.4,5.7c0,0.2-0.8,3.8-1.5,6.5c-1.5,0.6-2.9,1.5-4.3,2.4c-7.9,5.6-13.6,38.7-14.6,42.6H155.6
		c-1-3.8-6.7-37.1-14.6-42.6c-1.4-1-2.7-1.8-4.3-2.4c-0.6-2.7-1.5-6.3-1.5-6.5c0-3.1-14.9-5.7-33.3-5.7s-33.3,2.6-33.3,5.7
		c0,0.2-0.4,2.8-0.6,4.8c-2.7,0.9-5.1,2.2-7,4c-5.8,5.6-6.9,3.6-12.6,42.6h-0.1c0,0-48.3,24-48.3,106.8C0,277,0,398.9,0,398.9l0,0
		c0.9,35.3,29.6,63.5,65.1,63.5c35.9,0,65.1-29.2,65.1-65.1c0-2.8-0.2-5.7-0.6-8.4c-2-29.5-14.6-60.7-1.5-75.7
		c8.2,20.4,28.3,34.8,51.6,34.8c26.7,0,49-18.8,54.4-43.9h64.7c7.7,27.5,32.9,47.7,62.8,47.7c26.7,0,49.7-16.1,59.7-39.2
		c13.9,14.8,1,46.4-1,76.2c-0.3,2.7-0.6,5.6-0.6,8.4c0,36,29.1,65.1,65.1,65.1c35.4,0,64.3-28.3,65.1-63.6l0,0c0,0,0-122,0-185.7
		C550.1,130.4,501.8,106.4,501.8,106.4z M517.1,398L517.1,398c0,38.5-61.4,44.8-63.6,1.1c-0.9-17.3,7.3-49.2,7.7-66.2
		c0.4-18.7-10.4-51.5-36.9-51.5c-40.9,0-28.7,37.5-62.3,37.5c-40.9,0-19.8-47.8-68.1-47.7c-10.3,0-21.6,0-21.6,0v-0.1
		c-8.9,0-25.7,0-33.1,0c-48.3-0.1-25.8,43.8-59.7,43.8c-28.4,0-13.6-33.7-53.4-33.7c-26.5,0-37.3,32.8-36.9,51.5
		c0.4,17,8.5,48.8,7.6,66.1c-2.1,43.6-63.5,37.3-63.5-1.2l0,0c0,0,0-163,0-187.7c0-32.1,9.7-62.4,38.1-80.2
		c10.5-7.1,11.9-39.5,14.1-42.6c0.8-0.7,1.7-1.2,2.7-1.6c0.1-0.8,0.2-1.8,0.2-1.9c0-1.2,5.8-2.3,12.9-2.3c7.2,0,12.9,1,12.9,2.3
		c0,0.1,0.3,1.5,0.6,2.5c0.6,0.2,1.1,0.6,1.7,1c3.1,2.2,4.4,11.7,5.7,16.5c5.4,33.7,25.1,36.3,57.9,36.3c37.1,0,77.5-0.4,92.2-0.6
		l0,0c0,0,0.4,0,1.3,0c2.8,0,4.4-0.1,4.4-0.1v0.1c14.7,0.2,55.2,0.6,92.2,0.6c32.8,0,52.5-2.6,57.9-36.3c1.3-4.8,2.6-14.4,5.7-16.5
		c0.6-0.4,1-0.6,1.7-1c0.2-1,0.6-2.4,0.6-2.5c0-1.2,5.8-2.3,12.9-2.3c7.2,0,12.9,1,12.9,2.3c0,0.1,0.2,1.1,0.2,1.9
		c1,0.3,1.9,0.8,2.7,1.6c2.2,3.2,3.6,35.5,14.1,42.7c28.4,17.8,38.2,48,38.2,80.2C517.1,234.9,517.1,398,517.1,398z"/>
</g>
</svg>
