<?xml version="1.0" encoding="utf-8"?>
<!-- Generator: Adobe Illustrator 21.1.0, SVG Export Plug-In . SVG Version: 6.00 Build 0)  -->
<svg version="1.1" id="Layer_2" xmlns="http://www.w3.org/2000/svg" xmlns:xlink="http://www.w3.org/1999/xlink" x="0px" y="0px"
	 viewBox="0 0 512 512" style="enable-background:new 0 0 512 512;" xml:space="preserve">
<style type="text/css">
	.st0{fill-rule:evenodd;clip-rule:evenodd;}
</style>
<g id="_x33_2">
	<path d="M73.6,199.5c0,0,0,211.3,0,216.5c5.4-1.3,11.5-2.1,17.9-2.1c20.6,0,43.2,8.9,48.8,40.3c74,0,103.4,0,103.4,0V199.5H73.6z
		 M211.7,422.1h-48.9c-11.5-21.5-31.7-35.5-57.2-39.3V266.2h52.2v-8.5h-52.2v-26.2h106.1V422.1z"/>
	<path d="M256.2,199.5v254.7h153.4v50.9h20.9V199.5H256.2z M398.5,422.1H288.2V231.5h110.3v26.2H342v8.5h56.4V422.1z"/>
	<path d="M434.6,140V92.2H65.3v43.6H0V191h512V140H434.6z M402.6,159H97.3v-34.8h305.3V159z M476.3,182.5c-9.2,0-16.7-6.8-16.7-15.1
		H493C493,175.7,485.5,182.5,476.3,182.5z M459.6,163.6c0-8.3,7.5-15.1,16.7-15.1c9.2,0,16.7,6.8,16.7,15.1H459.6z"/>
	<path class="st0" d="M86.1,20h331.8c0,0,8.3,7.5,12.5,23.4c4.2,15.9,4.2,40.3,4.2,40.3H65.3c0,0,1-24.1,6.1-39.9
		C76.6,27.7,86.1,20,86.1,20z"/>
	<path class="st0" d="M92.3,424.4c-21.9,0-39.6,18-39.6,40.3s17.7,40.3,39.6,40.3c21.9,0,39.6-18,39.6-40.3S114.2,424.4,92.3,424.4z
		 M92.3,496.6c-17.3,0-31.3-14.3-31.3-31.8s14-31.8,31.3-31.8c17.3,0,31.3,14.3,31.3,31.8S109.6,496.6,92.3,496.6z M92.3,441.4
		c-12.7,0-22.9,10.4-22.9,23.3s10.3,23.3,22.9,23.3c12.7,0,22.9-10.5,22.9-23.3S105,441.4,92.3,441.4z"/>
</g>
</svg>
