<?xml version="1.0" encoding="utf-8"?>
<!-- Generator: Adobe Illustrator 21.1.0, SVG Export Plug-In . SVG Version: 6.00 Build 0)  -->
<svg version="1.1" id="Layer_1" xmlns="http://www.w3.org/2000/svg" xmlns:xlink="http://www.w3.org/1999/xlink" x="0px" y="0px"
	 viewBox="0 0 370 512" style="enable-background:new 0 0 370 512;" xml:space="preserve">
<g>
	<path d="M273.3,418.2c-8.6,23.8-38.8,72.9-59.4,88.8c-31.5-21.4-69-71.2-78.8-106.2c-15.4-54.5,18.6-84.2,19.9-85.5
		c9.9,30.3,29,58,48.8,82.4c0,0,15.9,23.1,26.1,21.2c24.2-4.5,17.5-65.3,22.9-77.5c5.9,9.6,11.4,18.9,15.7,25.6
		C279,382,279.1,401.6,273.3,418.2z"/>
	<path d="M356.7,270.5c-5.1-10.5-11.7-21-21-33c-14.3-19-37.2-53.1-50.9-73.6c-5.9-8.8-9-13.4-10.4-15.3l-22.2-30.9l-6.9,36.4
		c-2.1,10.8-6.7,20.9-13.5,29.4c-4-12.8-6.6-26.9-8.2-42.6c-3-30.8-1.8-62.9,3.7-95.4L234.8,0l-34.9,33.3c-6.3,6-12.4,12.1-18.3,18
		c-7,7.1-14.4,14.4-21.7,21.2l-0.1,0.1c-17.7,16.7-37.8,35.7-57.4,54.2l-0.1,0.1C53.5,173.8,20.3,227.8,6.4,283v0.1
		C-2.7,320-2.1,353.9,8.3,384c13.5,40,44.4,74.9,84.8,95.8c8.7,4.7,17.6,8.1,26.2,11.3c1.2,0.5,2.3,0.9,3.5,1.4l3.1,1.2l49.5-0.2
		l-35.8-25.6c-20.6-14.9-36-36.9-43.4-62v-0.1c-5.6-18.7-7.7-38.4-6-58.5v-0.5c1.8-46.2,11.4-93.4,43.5-132.8
		c1.9-2.3,3.7-4.5,5.6-6.6c1.4,18.8,9.4,37.4,15,55.6c0.2,0.8,0.4,1.5,0.8,2.3c9.9,30.3,29,58,48.8,82.4l24.7,30.5l4.1-37.7
		c1.4-13.6,3.8-26.9,9.3-39.1c2-4.3,4.3-8.5,7.1-12.5c1.8,5.8,4,11.7,6.4,17.7c5.6,13.4,16.4,27.5,26.8,44.2l0.2,0.4l0.2,0.4
		c8.2,11.6,17.9,29.7,16.4,50v0.2c-0.7,11.3-4.7,23.1-13.4,38.5L245,512.1l65.6-54.5c34.6-28.8,56.2-69.5,59.1-111.6v-0.1
		C371.4,317.1,367.1,291.7,356.7,270.5z M337.8,344.1c-0.9,12.5-3.7,24.8-8.3,36.5c-3.5-18.1-12.1-33.5-19.8-44.5
		c-14.5-23.4-36.2-51.3-38.4-81.3l-3.3-30.1l-23.4,20.4c-9.9,8.2-16.6,17.6-22.1,27.9c-4.8,9-8.6,18.7-12.7,28.7
		c-8.2-14.4-16.1-29.7-22.7-45.6c-11.1-27.2-18.2-56.1-16.1-84.8l2.5-35.2l-29,23.4c-12.2,9.9-23.8,21.7-36.3,37.1l0,0
		C90.5,218.3,80.9,241.9,71,267c-10.4,25.8-11.6,52.2-12.7,78.5c-1.8,23.3,0.7,46.1,7.1,67.8c1.2,4,2.5,8,4.1,11.9
		c-13.8-14.5-24.5-31.5-30.6-49.8v-0.1c-8.7-25.1-9.1-54-1.2-86c12.6-50.1,43-99.4,87.8-142.5c19.7-18.5,39.7-37.4,57.4-54.1
		c2.6-2.5,5.3-5,7.9-7.5c-1.2,19.7-0.8,39.2,1,58.2v0.1c2.9,27.7,8.9,51.2,18.4,71.9l7.7,16.6l16.3-10.4
		c12.6-8.2,23.2-19.1,30.7-31.7c13.8,20.5,32.2,47.6,44.6,64l0.1,0.1c8,10.4,13.7,19.3,17.9,28v0.1
		C335.8,299.2,339.3,320,337.8,344.1z"/>
</g>
</svg>
