<?xml version="1.0" encoding="utf-8"?>
<!-- Generator: Adobe Illustrator 21.1.0, SVG Export Plug-In . SVG Version: 6.00 Build 0)  -->
<svg version="1.1" id="_x33_2" xmlns="http://www.w3.org/2000/svg" xmlns:xlink="http://www.w3.org/1999/xlink" x="0px" y="0px"
	 viewBox="0 0 474 512" style="enable-background:new 0 0 474 512;" xml:space="preserve">
<path d="M464,150.9L447.8,137c-9.9-8.5-24-8.9-34.3-2l-93-79.4c5.2-11.3,2.5-25.1-7.4-33.6L296.8,8.2c-12-10.2-29.9-8.8-40.1,3.2
	l-72.8,85.3c-10.2,12-8.8,29.9,3.2,40.2l16.2,13.9c9.9,8.5,24,8.9,34.3,2l30.3,25.8L146.9,320l-2.9-2.5c-8.5-7.2-16.2-5-22,1.8
	l-106.7,125c-8.7,10.2-3.2,19.6,6.3,27.7l27.7,23.6c9.4,7.4,19.1,12.1,28.3,1.9l106.7-125.1c6.6-7.7,5.4-16-1.7-22l-4-3.4
	l120.8-141.6l31.3,26.7c-5.2,11.3-2.5,25.1,7.4,33.6l16.2,13.9c12,10.2,29.9,8.8,40.1-3.2l72.8-85.3
	C477.4,179.1,475.9,161.1,464,150.9z M226.5,128.6l-8.6-7.3c-4.2-3.6-4.7-9.9-1.1-14.1L272,42.5c3.6-4.2,9.9-4.7,14.1-1.1l8.5,7.3
	c1,0.8,1.1,2.3,0.3,3.3c-0.4,0.5-0.8,1-1.2,1.6l-62.1,72.9c-0.6,0.6-1.2,1.1-1.8,1.8C229,129.3,227.5,129.4,226.5,128.6z
	 M266.2,135.2l41.2-48.4l76.8,65.6l-41.2,48.4L266.2,135.2z M433.9,180.6l-55.1,64.7c-3.6,4.2-9.9,4.7-14.1,1.1l-8.9-7.6
	c-1-0.8-1.1-2.3-0.3-3.3c0.1-0.2,0.2-0.3,0.4-0.5l0,0l63.6-74.7c0.4-0.4,0.7-0.8,1.1-1.2c0.8-1,2.3-1.1,3.3-0.3l8.9,7.6
	C437,170.1,437.5,176.4,433.9,180.6z"/>
</svg>
