<?xml version="1.0" encoding="utf-8"?>
<!-- Generator: Adobe Illustrator 21.1.0, SVG Export Plug-In . SVG Version: 6.00 Build 0)  -->
<svg version="1.1" id="Layer_1" xmlns="http://www.w3.org/2000/svg" xmlns:xlink="http://www.w3.org/1999/xlink" x="0px" y="0px"
	 viewBox="0 0 543 512" style="enable-background:new 0 0 543 512;" xml:space="preserve">
<path d="M33,159.8h24.4v-37.4H33V159.8z M39.8,498.5h31.4V192.6H39.8V498.5z M140.6,159.8h54.2v-37.4h-54.2V159.8z M291.5,90.3
	h251.9v102h-14l0.4,319.5H14.9l0.5-320.5h-15v-101h248l-0.1-5c0,0-16.6,0.8-18.9,0.8c-7.5,0.3-37.8,0.2-44.4-0.4
	c-10.1-0.8-21.5-3-29.3-14.7c-6.9-10.4-5.1-21.7-5.3-33.7c0-27.6,20.6-36.6,35.9-36.6c32.2,0,55.7,62.9,73.1,62.9h21.5
	c14.7-0.9,42.4-63.3,73-63.3c38.9,0,35.8,39.8,35.8,32.7s0.7,11.7,0.7,22.3s-12.8,24-20.1,26.7c-14,5.3-66.5,3.5-59.9,3.7
	c-1.9-0.2-18.9-1.3-18.9-1.3V90.3z M220.8,66.1c6.3,0,9.5-2.5,9.5-5.3c2.6-4.8-5.7-13.5-14.6-22.8c-8.5-8.9-18.8-16.8-29.3-16.8
	c-37.1,0.9-49.9,40.6,5.2,44.9C199.5,66.3,209.3,66.3,220.8,66.1z M154.4,498.5h40.4V192.6h-40.4V498.5z M212.4,159.8h122.5v-37.4
	H212.4V159.8z M212.4,498.5h108.8V192.6H212.4V498.5z M386.3,38.6c-1-1.8-10.1-18-32.3-18c-11.8-2.5-47.4,29.2-44.4,39.6
	c-0.2,10.8,54.7,4.1,54.7,4.1S392.6,52.8,386.3,38.6z M404.4,498.5h100.8V192.6H404.4V498.5z M418.1,159.8h93.2v-37.4h-93.2V159.8z"
	/>
</svg>
