<?xml version="1.0" encoding="utf-8"?>
<!-- Generator: Adobe Illustrator 21.1.0, SVG Export Plug-In . SVG Version: 6.00 Build 0)  -->
<svg version="1.1" id="Layer_3" xmlns="http://www.w3.org/2000/svg" xmlns:xlink="http://www.w3.org/1999/xlink" x="0px" y="0px"
	 viewBox="0 0 347 512" style="enable-background:new 0 0 347 512;" xml:space="preserve">
<path d="M109.8,435L154,329.1c0,0,9.8-34.2,32-38.5c42-8.1,104.7-15.6,138.9-99.6c2.3-5.6,24.8-61.9,21.8-109.9
	c-2-33.2-77.6-60.6-77.6-60.6s-72.6-33.2-97.5-11c-35.9,32.1-59.1,88.2-61.4,93.8c-34.2,83.9,5.4,133.1,29.6,168.3
	c12.9,18.7-4.1,50-4.1,50L93.1,428.2c-45.2-16.5-85.4-17.4-92.1-1c-7.1,17.4,26.7,47.6,75.6,67.6c48.8,19.9,94.1,22,101.2,4.6
	C184.6,482.9,154.6,454.8,109.8,435z M265.7,28.7c42.9,17.5,74.7,38.9,69.8,51.1c-4.3,10.6-42.7,5.1-85.6-12.4
	c-43-17.5-74.1-40.4-69.8-51.1C185.1,4,222.8,11.2,265.7,28.7z M171.1,261.2c0,0-41.7-44.7-41.8-95.9C129,115.4,170.4,59,170.4,59
	s31.9,23.8,67.5,38.4s75.1,19.8,75.1,19.8s-10.3,70.2-45.3,105.7C231.7,259.4,171.1,261.2,171.1,261.2z"/>
</svg>
