<?xml version="1.0" encoding="utf-8"?>
<!-- Generator: Adobe Illustrator 21.1.0, SVG Export Plug-In . SVG Version: 6.00 Build 0)  -->
<svg version="1.1" id="Layer_1" xmlns="http://www.w3.org/2000/svg" xmlns:xlink="http://www.w3.org/1999/xlink" x="0px" y="0px"
	 viewBox="0 0 511.4 512" style="enable-background:new 0 0 511.4 512;" xml:space="preserve">
<path d="M255.7,511.9C114.5,511.9,0,397.4,0,256.2S114.5,0.5,255.7,0.5S511.4,115,511.4,256.2S396.9,511.9,255.7,511.9z
	 M364.1,451.9c1.1-0.6,3.1-1.8,3.5-2c0.5-0.3,1.1-0.6,1.6-1c-2.1,0.3-9,0.6-12.3,0.6c-1.8-0.3-3.5-0.9-5.1-1.8
	c-1.6-0.9-3.3-2.2-5.1-3.8c-1.8-1.7-3.1-2.9-4-3.8c-0.3,1.5,0.2,3.7,1.3,6.7c0,1.2-2.4,2.5-7.1,4c-5.6,0.9-9.1,0.7-10.3-0.4
	c1.2,2.1,3.4,4.9,6.7,8.5l1.8-1.8c1.8,1.8,6.6,1,14.3-2.2c0.6,0,1.8-0.5,3.8-1.5c1.9-1,3.5-1.9,4.7-2.5c1.3-0.3,3.8,0.8,5.4,1
	C363.2,451.9,363.7,451.9,364.1,451.9z M255.7,32.4c-12.5,0-24.7,1-36.6,3c0.3,2.2,0.4,3.8,0.4,4.9c0.3,2.1-0.5,4.7-2.2,7.8
	c-1.8,3.1-2.7,5.6-2.7,7.4c3.5,0.6,4.9,3.6,4,8.9c-0.6,3.6-3.9,8.2-9.8,13.8c-4.4,3.9-5.9,9.4-4.4,16.5c0.9,3.3,1.5,7.8,2,13.6
	c0.4,5.8,0.8,9.9,1.1,12.3c0-0.9-1.1-1.6-3.4-2.2c-2.2-0.6-3.5-1.3-3.8-2.2c-0.3,0.6-0.8,1.8-1.5,3.5c-0.7,1.8-1.4,3.3-2,4.5
	c-0.6,0.6-1.6,1.4-3.1,2.5c-1.5,1-2.5,1.7-3.1,2s-1.7,1.1-3.4,2.5c-1.6,1.3-2.9,2.3-3.8,2.9c-0.9,0.6-2.2,1.1-4,1.5
	c-1.8,0.5-3-0.1-3.6-1.5c-1.2-1.5-1-3.7,0.7-6.7c1.6-3,1.5-5.1-0.2-6.2c-0.3,0.9-0.5,2.5-0.7,4.9s-0.8,4.2-2,5.4
	c-1.5,1.2-2.8,1.9-4,2.2s-2.3,0.2-3.4-0.4c-1-0.6-2.3-1.4-3.8-2.5c-1.5-1-2.8-1.7-4-2c-3.6-1.2-7.7-3.9-12.5-8
	c0.3,0.3,0.4,0.7,0.2,1.1s-0.6,0.8-1.4,1.1c-0.7,0.3-1.4,0.6-2,0.9s-1.3,0.6-2.2,0.9l-0.9,0.4c-1.8,0-3,0.2-3.6,0.5
	s-1.5,0.1-2.7-0.7c-1.2-0.7-2-1.4-2.4-1.8c-0.5-0.5-1.3-1-2.5-1.8c-1.2-0.7-2.1-1.4-2.7-2c-0.6-0.3-1.8-1-3.6-2.2s-3.3-2.2-4.5-2.9
	c-1.2-0.7-2.1-1.8-2.9-3.3c-0.7-1.5-1-3-0.7-4.5c-1.5-0.3-4.3-1.2-8.5-2.7c-0.6-0.3-2-0.7-4.2-1.1c-2.1-0.4-5.5-1.5-6.6-2.1
	c-39.1,40.3-63.1,95.2-63.1,155.7C31.6,379.9,131.8,480,255.3,480c37.6,0,73.1-9.3,104.2-25.7c-10.3,4.6-21.9,7.5-31.2,10.6
	c-0.3-0.3-1.3-1.3-3.1-2.9c-1.8-1.6-3.1-2.8-4-3.4c0.9,0.3,1.3,0,1.3-0.9c1.2-2.7,1.2-4.9,0-6.7c-1.2-1.5-2.7-2.4-4.7-2.7
	c-1.9-0.3-4.2-0.2-6.9,0.2c-2.7,0.5-4.6,0.7-5.8,0.7l-3.5-0.4c-7.1-0.6-10,0.1-8.5,2.2c-0.6-0.9-1.4-2.8-2.5-5.8c-1-3-2-5.1-2.9-6.2
	c-1.2,0.9-1.5,2.5-0.9,4.9c0.6,2.4,0.6,4,0,4.9c-0.3,0.6-1,1.1-2.2,1.5c-1.2,0.5-2.4,1-3.8,1.6c-1.3,0.6-2.3,1-2.9,1.3
	c-1.5,0.9-0.6,2.4,2.7,4.5c0.3,0.3,1.3,0.7,2.9,1.1c1.6,0.5,3,0.9,4,1.4c1,0.4,2.2,1.1,3.5,2c1.4,0.9,1.9,1.8,1.8,2.9
	c-0.1,1-0.8,2.5-2,4.2c-1.2,1.2-3.3,1.6-6.5,1.3c-3.1-0.3-5.6-0.9-7.4-1.8c-6.2-3.6-7.1-6.8-2.7-9.8c-2.4,0-5.1-0.8-8.2-2.5
	c-3.1-1.6-4.4-3.4-3.8-5.1c-1.8,3.3-3.7,4.9-5.8,4.9c-1.2-0.3-2.3-1.9-3.3-4.7c-1-2.8-1.7-4.4-2-4.7c-1.8-2.4-3.5-2.9-5.3-1.6
	s-3.7,3.4-5.8,6c-2.1,2.7-3.3,3.9-3.5,3.6c2.4,0.9,2.7,1.8,0.9,2.7c-3.6,2.1-6.7,2.7-9.4,1.8c-0.6-0.3-1.5-1.3-2.7-3.1
	c-2.1-3.9-1.8-5.8,0.9-5.8c-2.1-1.8-2.9-4.1-2.5-6.9s2.3-4.1,5.6-3.8c1.2,0,2.8,0.6,4.9,1.8c2.1,1.2,3.7,1.8,4.9,1.8
	c1.2,0,2.8-0.6,4.9-1.8c0.9-1.2,2.1-3.2,3.6-6s2.8-4.8,4-6c3.6-3.6,9.4-4.8,17.4-3.6c-0.6,0-0.5-0.7,0.2-2s1.8-2.9,3.3-4.7
	c1.5-1.8,2.4-2.8,2.7-3.1c2.1-2.4,3.4-5.1,4-8c0-0.6,0.2-2.2,0.4-4.7c0.3-2.5,0.6-4.5,0.9-6c-2.4,0.6-4.5-0.9-6.2-4.4
	c-1.5-3-1.5-4.6,0-4.9c-7.7,1.2-14.4,0.7-20-1.3c-8.3-3.3-13.1-6.4-14.3-9.4c-1.5,2.1-4.9,2.2-10.3,0.4c-2.1-1.2-3.9-4.6-5.3-10.3
	c-1.2-3.6-2.9-6.6-5.1-9.1c-2.2-2.5-4.5-3.2-6.9-2l-0.9,0.9c-0.9,0.3-1.6,0.7-2.2,1.1c-0.6,0.5-1.3,0.9-2,1.4
	c-0.7,0.4-1.2,0.9-1.3,1.3c-0.2,0.5,0.1,1,0.7,1.6c1.5,1.2,2.7,3,3.6,5.6c0.9,2.5,0.7,4.8-0.4,6.9c-0.6,0.6-2.4,1.9-5.4,3.8
	s-4.9,3.8-5.8,5.6c-0.9,3,0.3,5.4,3.6,7.4c3.3,1.9,4.9,3.8,4.9,5.6c0,1.2-0.8,2.6-2.5,4.2c-1.6,1.6-2.3,3.2-2,4.7
	c0,0.3,0.5,1.6,1.4,3.8c0.9,2.2,1.3,3.9,1.3,5.1s-0.6,2.4-1.8,3.5c-1.5,1.2-5.2,1.2-11.1,0c-5.9-1.2-9.8-2.4-11.6-3.5
	c-0.9-0.3-2.5-1-4.9-2s-4.4-2.1-6-3.1s-2.6-2-2.9-2.9h1.3c-1.2-1.2-2-2.7-2.5-4.7c-0.4-1.9,0.4-3.4,2.5-4.2c-1.2,0.3-3,0-5.4-0.9
	c-3.9-1.5-4-2.8-0.4-4c-0.9,0.3-1.9,0.5-3.1,0.7c-1.2,0.2-2.2,0.5-3.1,1.1c-0.3,0.3-0.8,0.7-1.6,1.3c-0.7,0.6-1.2,1-1.5,1.1
	s-0.7,0.2-1.4,0.2c-0.6,0-1.3-0.2-2.2-0.5c-0.3,0-0.8,0.6-1.6,1.8c-0.7,1.2-1.6,2.4-2.7,3.6c-1,1.2-1.8,1.8-2.4,1.8
	c-0.6,0-1.2-0.3-1.8-0.9s-1.1-1.3-1.6-2c-0.4-0.7-0.8-1.6-1.1-2.5s-0.6-1.5-0.9-1.8c-0.6-1.2-1.7-2.4-3.4-3.8
	c-1.6-1.3-2.6-2.4-2.9-3.3c-0.3-0.9-0.8-2.8-1.5-5.6c-0.7-2.8-1.7-4.8-2.9-5.8s-3-1.8-5.3-2.4c-0.3-0.3-1.3-0.2-2.9,0.2
	c-1.6,0.5-3,0.5-4,0.2s-1.5-1-1.5-2.2c-1.5,1.2-2.2,1.9-2.2,2.2c-0.3-2.7-1-5-2.2-6.9s-3.1-2.8-5.8-2.5l0.9-8
	c0.6-0.9,2.2-1.7,4.9-2.2c2.7-0.6,4.5-1.2,5.4-1.8c0.6,0,2.2-1.3,4.9-4s3.7-4.2,3.1-4.5c4.2,4.5,10.1,5.6,17.8,3.6
	c8.6-1.2,14.7-2.5,18.3-4c3.6-2.1,6.1-3.7,7.6-4.9c0.3-0.3,0.7-1.2,1.4-2.7c0.6-1.5,1.1-2.8,1.5-4c0.3-0.8,0.7-1.3,1-1.6
	c-1.1,0.5-2.4,1.6-3.9,3.4c-1.8,2.1-3,3.1-3.6,3.1c-6.2,3.9-11.1,5.2-14.7,4c-5.4-1.2-6.2-3-2.7-5.4c0.6-0.3,1.8-0.4,3.8-0.4
	c1.9,0,3.3,0,4.2,0c-2.4-0.6-4.2-1.4-5.6-2.2c-1.3-0.9-1.7-1.9-1.1-3.1c-3.9-2.4-4.6-4.8-2.2-7.1c3.3-3,6.8-4.2,10.7-3.6
	c-0.6,0-0.6-0.4,0-1.3l6.2-4c0.3-0.3,1.7-0.9,4.2-1.8s4.2-1.9,5.1-3.1c0.9-0.9,1.3-2.3,1.3-4.2c0-1.9,0.1-3.4,0.2-4.2
	c0.2-0.9,1.1-1,2.9-0.4c0.6-1.5,2.7-2.7,6.2-3.6s5.9-2.1,7.1-3.6c-1.5-1.8-1.3-3.6,0.5-5.4c3-2.4,5.5-2.2,7.6,0.5
	c1.2-0.3,2.1-1.4,2.7-3.4c0.6-1.9,1.3-3.2,2.2-3.8c-1.5-2.7-1.2-4.5,0.9-5.4c-0.3,0-0.8-0.3-1.6-0.9c-0.7-0.6-1.5-1.2-2.4-1.8
	c-0.9-0.6-1.5-0.9-1.8-0.9c0.9-2.1,2.2-3.1,4-3.1c-1.5-3.9,0.2-8,4.9-12.5c0.9-0.9,2.3-1.8,4.2-2.7c1.9-0.9,3.7-1.6,5.4-2.2
	c1.6-0.6,2.6-1,2.9-1.3c2.4-2.1,4.2-4.2,5.4-6.2c1.2-2.1,1.3-4.2,0.4-6.5c-0.9-2.2-3.1-3.6-6.7-4.2l-0.5-3.1c0-1.8,0-3.7,0-5.8V224
	c-0.3-1.5-0.4-2.9-0.4-4.2s0-3,0-4.9s0.4-3,1.3-3.1c0.9-0.2,2.2,0.1,4,0.7c1.8,0.9,4,5.9,6.7,15.2c0.3,2.4,1.6,5.2,4,8.5
	c1.2-1.2,2.2-2,2.9-2.5c0.8-0.4,1.3-0.5,1.6-0.2c0.3,0.3,1,0.9,2,1.8c1,0.9,1.9,1.5,2.5,1.8c1.2,0.9,3.2,1.5,6,2
	c2.8,0.4,4.7,1,5.6,1.5c5.7-4.2,9.1-3.1,10.3,3.1c0.3-1.2,0.2-2.8-0.2-4.7c-0.4-1.9-0.7-3-0.7-3.4c1.5-3,3.9-3.3,7.1-0.9
	c1.5,1.5,4.8,1.7,9.8,0.7c4.8-1,7.9-1.2,9.5-0.8c-0.3-0.1-0.6-0.4-1-0.8c-0.6-0.6-1-0.9-1.4-0.9c0.3-0.9,0.7-1.5,1.1-2
	c0.4-0.4,0.9-0.6,1.3-0.4c0.4,0.1,1,0.1,1.6,0c0.6-0.2,1-0.4,1.3-0.7c1.2-0.6,2.4-1.8,3.6-3.6s2.2-3,3.1-3.6
	c-1.2-3.6-1.7-6.3-1.5-8.3c0.2-1.9,0.4-4.8,0.9-8.7c0.4-3.9,0.7-7,0.7-9.4c0-3.6-1.1-7.8-3.3-12.7c-2.2-4.9-4.8-8.4-7.8-10.5
	c-1.5-0.9-4.2-1.4-8.3-1.6c-4-0.2-6.7,0.1-8.2,0.7c-1.5,0.6-2.6,1.4-3.4,2.5c-0.7,1-1.3,2.4-1.8,4.2c-0.4,1.8-0.7,3-0.7,3.6
	c-1.8,4.5-4.9,6.7-9.4,6.7c-2.7,0.3-4.6,0.1-5.8-0.7c-1.2-0.8-1.7-1.8-1.6-3.1c0.2-1.3,0.5-2.8,1.1-4.5c0.6-1.6,1.4-3.3,2.4-5.1
	s1.7-3.3,2-4.5c0.6-1.8,1-4.3,1.3-7.6s0.6-5.4,0.9-6.2c-0.6,0-2.4,0-5.4,0c0,0.3-0.2,1-0.5,2s-0.4,1.7-0.4,2c-1.2-1.8-3-2.8-5.6-3.1
	c-2.5-0.3-4.4,0.6-5.6,2.7c-0.6-0.6-2-2.2-4.2-4.9s-3.5-5.1-3.8-7.1c0-0.9-0.4-2.4-1.1-4.5s-1-3.6-0.9-4.5c0.2-0.9,1.4-1.3,3.8-1.3
	c0.6,0,1-0.4,1.4-1.1c0.3-0.7,0.3-1.6,0-2.5s-0.6-1.8-0.9-2.7s-1-2.5-2.2-4.9c-4.2-7.7-9.8-10-16.9-6.7c0-6.6,1.5-10.1,4.5-10.7
	c2.1-0.6,4.3,0.5,6.7,3.4c2.4,2.8,3.1,5.1,2.2,6.9c0.3-1.2,1.2-2.2,2.7-3.1c1.2,1.5,3.3,3.3,6.2,5.4c3,2.1,5,3.7,6.2,4.9
	c0.3,0.9,0.9,2,1.8,3.4c0.9,1.3,1.9,3,3.1,4.9s2.1,3.6,2.7,5.1s0.6,2.4,0,2.7c4.8-1.8,11.1-0.4,19.2,4c1.8,0.9,4.3,3.3,7.6,7.4
	c3.3,4,6.7,5.7,10.3,5.1c1.2-0.3,2.7-0.7,4.7-1.3c1.9-0.6,3.6-0.9,4.9-0.9c1.4,0,3.2,0.4,5.6,1.3c1.8,0.9,4.2,2.3,7.4,4.2
	c3.1,1.9,5.3,3.2,6.5,3.8c0.6,0.6,2.1,1.4,4.5,2.4c2.4,1,4.3,1.8,5.8,2.5c1.5,0.6,2.9,1.7,4.2,3.4c1.3,1.6,2.3,3.2,2.9,4.7
	c0.6,1.5,1.2,4.3,1.8,8.5s1.5,7.1,2.7,8.9c1.5,2.4,3.5,4.8,6,7.1s4.8,3.6,6.9,3.6c-1.8,0-1.8,1.5,0,4.5s3.4,5.2,4.9,6.7
	c0.6,0.6,2,2.2,4.2,4.7s4.2,4.7,5.8,6.5s3,3.9,4.2,6.5c1.2,2.5,1.5,4.7,0.9,6.5c-0.3,0-0.1,0.3,0.7,0.9c0.7,0.6,1.6,1.1,2.7,1.5
	c1,0.5,1.9,0.8,2.7,1.1c0.7,0.3,1.4,0.4,2,0.4c-0.6-0.9-1.1-2.6-1.6-5.1c-0.4-2.5-1-4.4-1.6-5.6c-0.6-0.9-2.7-4.2-6.2-9.8
	c-5.9-9.8-8.8-17.1-8.5-21.8c1.5-0.3,2.4,0,2.9,0.9c0.4,0.9,0.8,2.2,1.1,3.8s0.6,2.9,0.9,3.8c0.6,1.2,2.4,2.6,5.4,4.2
	c3,1.6,4.7,3.2,5.3,4.7c-0.3,0-0.6,0.2-0.9,0.5s-0.6,0.4-0.9,0.4c-0.3,2.1,0.9,4.7,3.6,8s3.7,5.5,3.1,6.7c2.1,1.5,3.8,4.2,5.1,8.2
	c1.3,4,2.6,6.6,3.8,7.8c0.3,0.5-30.4,1.4-23.8,10c15.7,20.4-4,28.6-3.5,29c0.3,0.3,28.5-3,32.7-19.1c0.4-1.5,0.7-13.9,2.9-12.6
	c2.2,1.4,3.6,2.2,4.2,2.5c0.6,0.3,1.6,1.3,3.1,3.1c7.4,9.2,9.7,14.1,6.7,14.7c3-0.6,5.5,1.7,7.6,6.9c2.1,5.2,2.7,9.3,1.8,12.3h0.9
	c-0.3,1.2-0.4,4-0.4,8.5s-0.3,8.5-0.9,12.3c-0.6,3.7-1.8,5.6-3.6,5.6c1.8,0,3.1,1.5,4,4.5c0.9,3,0.9,5.1,0,6.2
	c-0.3,0.9-1.3,0.5-3.1-1.1s-2.8-2.7-3.1-3.3c-3,1.8-4.2,3.9-3.6,6.2c0.6,1.2,3.1,3.6,7.6,7.1c9.8,6.8,14.9,10.1,15.1,9.8
	c-1.5,2.4-1.2,4.5,0.9,6.2c2.4-1.5,3.7-1.8,4-1.1c0.3,0.7,0.6,2.1,0.9,4s0.9,3,1.8,3.3c1.2,0.3,3,2.2,4.5,3.7
	c-0.1,0.2-0.2,0.3-0.3,0.5c21.1-34.1,33.2-74.3,33.2-117.3C479.4,132.6,379.3,32.4,255.7,32.4z M135.9,210.6
	c-0.1,0.8,1.6,7.8-0.2,2.4c-1.8-5.4-3.5,2.1-5.3,3.2c0.3,1,0.5,2,0.8,3c-0.3,0.3-0.5,0.7-0.8,1c-4.2,4.4-12.5,6-12.5,6l-0.6-0.1
	c0,0-0.5-2.1-1.2-1.7c0-1.3-4.4-1.2-4.4-5c-1.8-1.7-3.5-3.5-5.3-5.2c0.9-2.5,1.8-4.9,2.7-7.4c1.7-0.3,3.4-0.7,5.1-1
	c1.3,0,0.1-0.5-0.6-1.2c0.8-0.1,1.6-0.3,2.4-0.4c0-0.5,0-0.9,0-1.4c1.1,0.6,2.1,1.2,3.2,1.8c0.5-0.1,0.9-0.1,1.4-0.2
	c0-5.9,2.4-6.6,3.3-7.8c1,0.1,2.1,0.3,3.1,0.4c0,0,1-0.3,1-1.4c0.5,0.1,0.9,0.1,1.4,0.2c0.1,1.5,1.7,3,1.7,5c-0.1,3.7-2,7.7-0.7,7.7
	c1.9-0.1,2-3.7,3.7-4.2s11.3,0,12.5,0.8s1.2,2.5,1.8,3.8c0,0.5,0,1.1,0,1.6c-0.6,0.5-1.2,1.1-1.8,1.6
	C142.9,212,139.7,206.7,135.9,210.6z M70.1,263.1c-6.5-1-8.2-2.6-8.2-8.8c2.9-1.1,5.7-2.2,8.6-3.3c-6,3.8,0.1-0.1,0.1,0h-0.1
	c0.1,0,0.1-0.1,0.2-0.1c14.9-9.4,2.4,11.6,2.4,11.6C72,262.6,71,262.9,70.1,263.1z"/>
</svg>
