<?xml version="1.0" encoding="utf-8"?>
<!-- Generator: Adobe Illustrator 21.1.0, SVG Export Plug-In . SVG Version: 6.00 Build 0)  -->
<svg version="1.1" id="Layer_1" xmlns="http://www.w3.org/2000/svg" xmlns:xlink="http://www.w3.org/1999/xlink" x="0px" y="0px"
	 viewBox="0 0 512 512" style="enable-background:new 0 0 512 512;" xml:space="preserve">
<style type="text/css">
	.st0{fill:#010101;}
</style>
<path class="st0" d="M437,75C388.7,26.6,324.4,0,256,0h-0.3c-0.1,0-0.2,0-0.3,0c0,0-0.1,0-0.1,0C187,0.2,122.9,26.9,74.8,75.2
	C26.6,123.5,0,187.7,0,256s26.6,132.5,74.8,180.8c48.2,48.3,112.3,75,180.5,75.2c0.2,0,0.3,0,0.5,0h0.2c68.4,0,132.7-26.6,181-75
	c48.4-48.4,75-112.6,75-181C512,187.6,485.4,123.3,437,75z M242,242h-83.4c0.9-33,4.9-64.2,11.8-92.9c23.4,5.4,47.4,8.7,71.5,9.6
	V242z M242,270v83.3c-24.2,0.9-48.2,4.1-71.6,9.6c-6.9-28.6-10.9-59.8-11.8-92.8H242z M150.9,397.3c10,31.1,23.3,57.3,38.7,76.8
	c-34.6-10.5-66.2-29.2-92.4-54.6C114.4,410.6,132.5,403.2,150.9,397.3z M242,381.3v99.8c-24.2-9.7-48.2-43.8-63.8-91.2
	C199,385.1,220.4,382.2,242,381.3z M242,30.9v99.6c-21.5-0.9-43-3.7-63.8-8.5C193.8,74.6,217.8,40.6,242,30.9z M189.7,37.9
	C174.2,57.4,161,83.5,151,114.6c-18.4-5.8-36.4-13.2-53.6-22.1C123.5,67.2,155.1,48.5,189.7,37.9z M77.8,114
	c20.9,11.3,42.9,20.6,65.5,27.7c-7.6,31.4-12,65.1-12.9,100.3H28.5C31.4,195,48.4,150.9,77.8,114z M28.5,270h101.9
	c0.9,35.2,5.3,68.9,12.9,100.3c-22.6,7.1-44.6,16.4-65.5,27.7C48.4,361.1,31.4,317,28.5,270z M483.5,242H381
	c-0.9-35.2-5.2-68.8-12.9-100.2c22.8-7.1,44.9-16.5,66-27.9C463.6,150.8,480.6,194.9,483.5,242z M414.6,92.5
	c-17.4,8.9-35.5,16.4-54.1,22.3c-10.1-31.3-23.4-57.6-39-77.1C356.4,48.2,388.3,67,414.6,92.5z M270,31.2c24,10,47.7,44,63.2,90.9
	c-20.6,4.7-41.9,7.5-63.2,8.4V31.2z M270,158.6c23.9-0.9,47.7-4.1,70.9-9.4c7,28.6,10.9,59.7,11.8,92.8H270V158.6z M270,270h82.7
	c-0.9,33-4.8,64.1-11.8,92.7c-23.2-5.4-47-8.5-71-9.4V270z M270,480.8v-99.4c21.3,0.9,42.6,3.7,63.3,8.4
	C317.8,436.7,294.1,470.7,270,480.8z M321.5,474.3c15.6-19.5,28.9-45.8,39-77.2c18.6,5.9,36.8,13.4,54.2,22.3
	C388.3,445,356.4,463.8,321.5,474.3z M434.2,398c-21.2-11.4-43.3-20.8-66.1-27.9c7.6-31.4,11.9-65,12.9-100.1h102.5
	C480.6,317,463.7,361.1,434.2,398z"/>
</svg>
