<?xml version="1.0" encoding="utf-8"?>
<!-- Generator: Adobe Illustrator 21.1.0, SVG Export Plug-In . SVG Version: 6.00 Build 0)  -->
<svg version="1.1" id="Shape_1_1_" xmlns="http://www.w3.org/2000/svg" xmlns:xlink="http://www.w3.org/1999/xlink" x="0px" y="0px"
	 viewBox="0 0 525.1 512" style="enable-background:new 0 0 525.1 512;" xml:space="preserve">
<g>
	<path d="M525,302.8c0,0,0-231.3-18.4-285.8c-11.8-24.3-26.2-11.7-36.7-5.6c-14.4,8.4-24.9,14.8-28,18c-7,7.1-1.8,22.7,5.2,16.5
		c1.6-1.5,28.1-20.1,37.1-21.6c9.7-1.7,14.2,44.4,17.1,87.1c2.4,35.4,2.9,83.8,2.7,126.5c-14.5-20.2-36-34.3-62.6-38.2
		c-63.7-9.4-221.6-41.2-244.4-41.5c-15.3-0.2-71.9-27.2-125.9-45.9C116,102.4,190.9,86.2,245,76.2c12.1-2.3,59.5-10,87.2,11.8
		c36.7,29,68,59.6,70.8,62.2c13.2,11.6,34.3-4.3,21.3-16.6c-5.7-5.4-30-27.5-53.3-45.2c-30-22.7-63-40.7-101.6-34.8
		C190.5,65.7,37.6,99,31.4,100.3c-0.3-0.1-0.7-0.2-1-0.2c-2.2-0.5-4.2-0.8-6.1-0.8c-33.8,0-22.2,80-22.2,83.8
		C5.9,289,36.4,382.7,72.9,394.7c4.4,1.8,8.9,2.6,13.5,2.6c34.7,0,71-49.3,78.5-111.3c1.6-13.3,4.1-24.1,6.2-38.7
		c0-1,0.7-1.4,1.8-1.4c6.3,0,27.2,14.3,27.5,18.6c2.4,36.1,9.5,76.2,28.4,113.6c34.9,68.8,109.5,99.6,152.3,99.6
		c64.6,0,114.8-46.4,138.1-128.6c4.5-15.7,6.3-31.3,5.8-46.1L525,302.8z M451.9,429.5c-20.1,18.7-44,28.1-70.9,28.1
		c-20.1,0-46-8-69.2-21.3c-20.1-11.5-47.7-32.6-65.3-67.3c-15-29.5-23.6-64.2-26.3-105.8c-0.6-9.2-6.4-16.8-20.2-26.2
		c-16.4-11.2-24.6-11.2-27.2-11.2c-11.4,0-20.5,8.1-21.6,19.1c-0.9,5.9-1.8,11.3-2.7,16.5c-1.3,7.3-2.5,14.2-3.5,22.2
		c-3.2,26.4-12.2,51.2-25.5,69.7c-10.8,15-23.2,24-33.2,24c-2.1,0-4.1-0.4-6-1.2l-0.6-0.2l-0.6-0.2c-2.1-0.7-7.7-3.5-15.5-15.3
		C56.7,350,50,335.2,44.2,317.8C31.7,280.2,23.9,232.2,22,182.6c0-1.3-0.1-2.6-0.4-4.9c-0.6-6.1-2-20.2-1.3-34.1
		c0.7-15.8,3.6-22.2,4.9-24.2c0.1,0,0.3,0.1,0.5,0.1c32.2,7.8,71.8,23.7,103.6,36.5c36.9,14.8,55.2,22,67.3,22.2
		c11.3,0.2,73.8,11.6,124.1,20.8c44.1,8.1,89.8,16.4,117.7,20.5c21.7,3.2,39.5,14.8,51.6,33.5c6.6,10.2,11,21.9,13.3,34.5
		c-0.4,24.1-0.9,41.8-1.1,47c-0.6,3-1.4,6.1-2.3,9.1C489.5,380.3,472.9,410,451.9,429.5z"/>
</g>
</svg>
