<?xml version="1.0" encoding="utf-8"?>
<!-- Generator: Adobe Illustrator 21.1.0, SVG Export Plug-In . SVG Version: 6.00 Build 0)  -->
<svg version="1.1" id="Layer_1" xmlns="http://www.w3.org/2000/svg" xmlns:xlink="http://www.w3.org/1999/xlink" x="0px" y="0px"
	 viewBox="0 0 512 512" style="enable-background:new 0 0 512 512;" xml:space="preserve">
<path id="_x33_2" d="M467.5,226.9c0-6.9-4.5-12.6-10.6-13.5l-0.5-9.1L512,183l-255.2-81.3L0.7,180.7l146.1,56.5l-2.1,13.5
	c-1.1,6.9-10.6,67.7-11.4,76.8l0,0.4c-0.7,10.4,5.1,20.7,17.7,31.5c11.7,10.1,70.9,41.5,103,41.5c30,0,95.5-32.2,109.9-42.6
	c10.3-7.3,20.3-15.3,20.3-27.1c0-0.4,0-0.7,0-1.1c-0.5-8.9-8.9-59.1-12.6-80.5l-2.1-12.3l84.5-32.3l-0.3,8.2
	c-6.3,0.8-10.9,6.7-10.9,13.5c0,6.1,3.6,11.1,8.5,13L443,372.8v0.8l3.5,33.6l2.8-14.1l5.6,20l12.9-40.4l-9.2-132.7
	C463.7,238.3,467.7,233.2,467.5,226.9z M345.8,332.2l-0.2,0.1c-13,9.4-71.4,36.7-91.6,36.7c-21.8,0-74-26.6-82.6-33.9l-0.1-0.1
	c-3.8-3.2-5.6-5.4-6.3-6.6c1-8.2,4.6-31.7,7.9-53.3l81.6,31.3h6.3l82.9-32c3.8,22.5,7.2,43.8,8.4,53
	C350.8,328.5,348.8,330.1,345.8,332.2z M257.9,246L98,184.1l158.6-49l158.8,50.6L257.9,246z"/>
</svg>
