<?xml version="1.0" encoding="utf-8"?>
<!-- Generator: Adobe Illustrator 21.1.0, SVG Export Plug-In . SVG Version: 6.00 Build 0)  -->
<svg version="1.1" id="Layer_4" xmlns="http://www.w3.org/2000/svg" xmlns:xlink="http://www.w3.org/1999/xlink" x="0px" y="0px"
	 viewBox="0 0 550 512" style="enable-background:new 0 0 550 512;" xml:space="preserve">
<path d="M529,19.5c-0.1,0-0.1,0.1-0.2,0.1l-8.6,5.5l-5.6-8.7l-17.4,11.2l5.7,8.7c0,0-83.9,53.9-174.3,112.3
	c-40.2,26-81.8,53-117.7,76.5l-13-20l1.5-1l-1.1-1.7l18.9-12.2c3,3.9,5.5,6.5,7,7.2l0.3,0.5l78.3-50.7c1.4-0.9-2.4-9.5-8.7-19.1
	c-6.2-9.6-12.4-16.7-13.8-15.8l-78.3,50.7l0.3,0.5c0,1.6,1.4,5,3.7,9.3L187,185.1l-2.6-4l-7.4,4.8l2.6,4L164,200l-4.1-6.4
	c-0.8-1.3-2.5-1.6-3.8-0.9l-12.8,8.2c-1.3,0.8-1.6,2.5-0.9,3.8l4.1,6.4l-17.2,11.3c-1.4,0.9,0,5.6,3,10.4c3.1,4.8,6.8,7.9,8.2,7
	l17.2-11.1l4.1,6.4c0.8,1.3,2.5,1.7,3.8,0.9l12.8-8.2c1.3-0.8,1.6-2.5,0.9-3.8l-4.1-6.4l15.6-10.1l1.1,1.7l1.7-1.1l13,20
	c-20.2,13.2-38.6,25.3-53.7,35.4c-2.3,1.8-4.8,3.6-6.7,5.8l-14.4,16.5c-2.8,3.2-5.9,5.9-9.4,8.2c-1.8,1.2-3.9,2.3-5.9,3.2L3.2,372.4
	c-2.1,1.4-2.7,4.2-1.3,6.3l74.4,115c1.5,2.3,4.4,2.7,6.4,1.4c0.8-0.5,1.5-1.3,1.8-2.5l59.3-120.9c2.2-4.5,5.5-8.4,9.7-11.1
	l21.5-13.9l2.7,84.6c0.1,3.6,3.3,6.5,6.9,6.2l31.7-2.8c1.1-0.1,2-0.4,2.9-1c1.8-1.1,2.9-3.2,2.9-5.4l-0.3-62.4l-1.3-14
	c5.5,5.4,11,10.1,12.2,8.9c0.1-0.2,0.3-0.3,0.4-0.4c2.1-1.3,6.8-1.4,9-2c1.2-0.3,4.5-2.1,4.5-2.1l24.2-17.1c1.9-1.3,2.1-4.2,0.4-5.7
	c-3.7-3.4-10.4-11.2-9.9-16.2c0.1-0.8,0.1-1.6,0.1-2.5c4.4-2.2,7.6-3.9,8.6-4.7l26.2-27.5c8.1,6.4,20.3,14.5,37.1,21.8
	c26.8,11.6,64.6,20.8,78.7,24c1.4,0.3,2.7,0,3.7-0.6c1.2-0.8,2.1-2.2,2.3-3.8l3.5-52.9c0.2-2.5-1.6-4.7-4-5.1
	c-10.3-1.7-36.2-6.7-53.1-14.5c-19.4-9-30-25.7-30-25.7l23.5-25.8l56.8-36.7c2.4-1.5-0.7-11.2-1-14.1l0.6-20.6L544.6,44
	c0.1,0,0.1-0.1,0.2-0.1C556.3,36.3,540.6,12,529,19.5z M138.7,236.6c-0.9,0.6-3.2-1.4-5.2-4.5c-2-3.1-2.8-6-2-6.6
	c0.9-0.6,3.2,1.4,5.2,4.5C138.7,233.1,139.5,236,138.7,236.6z M258.5,341.2l-16.1,11.1c-0.1,0.1-0.2,0.1-0.3,0.2
	c-2.7,1.7-6,2.2-9.1,1.2l-2.2-0.7c-3.5-1.1-5.6-4.3-5.7-7.5c0.7,0,2,0.1,2.6,0.1c0.6-0.1,2.6-0.4,2.6-0.4s4.4,2.5,6.2,2.9
	c1.8,0.4,6.1,0.4,7.9,0c0.4-0.1,1.5-0.6,1.5-1c0-0.4-1.1-0.9-1.5-1.1c-1.8-0.8-6.1-2.8-7.6-4s-3.8-4.8-4.8-6.4l18.8-15.6
	c0.5-0.2,0.9-0.4,1.4-0.8c2.1-0.3,3.1,2.8,4.7,5.3l3.8,6.1C262.7,333.5,261.4,339.3,258.5,341.2z M387.2,148.3l0,1.2l-43.7,28.3
	l-2.9,1.9l-2.3,2.5L314.8,208l-7.6,8.3c-3.5,3.8-3.9,9.5-1.2,13.9l6,9.4c1.5,2.4,15.5,23.4,41.1,35.3c12.2,5.7,27.6,9.9,40.8,12.8
	l-0.6,8.8c-15.5-4.2-34.9-10-49.7-16.5c-14.7-6.4-25.2-13.5-31.3-18.4L299,251.2c-3-2.4-7.3-2.1-9.9,0.8l-11.8,12.4l-23.4,24.7
	c-4.6,2.4-13.7,7-20.7,10.7c-19,9.7-25,12.8-28,14.7l-4.6,3c-0.2-7.9-9-12.5-15.6-8.2l-23.9,15.5l-21.5,13.9
	c-8.2,5.3-14.8,12.8-19.1,21.7l-42.7,87l-42-65l93.9-62.4c2.5-1.2,4.9-2.6,7.2-4.1c5.5-3.6,10.5-7.9,14.9-12.9l14.4-16.4
	c0.4-0.4,1.4-1.1,2.2-1.7c36.8-24.5,95.6-62.8,174.8-114.1c15.1-9.8,30.2-19.5,44.6-28.8L387.2,148.3z"/>
</svg>
