<?xml version="1.0" encoding="utf-8"?>
<!-- Generator: Adobe Illustrator 21.1.0, SVG Export Plug-In . SVG Version: 6.00 Build 0)  -->
<svg version="1.1" id="_x33_2" xmlns="http://www.w3.org/2000/svg" xmlns:xlink="http://www.w3.org/1999/xlink" x="0px" y="0px"
	 viewBox="0 0 640 512" style="enable-background:new 0 0 640 512;" xml:space="preserve">
<g id="h2_2_">
	<path d="M258.6,382.6c-1-4.4-1.5-12.6-1.5-24.6v-203H257c0-8.4,0.2-14.6,0.6-18.6s1.2-7.7,2.5-10.9c1.3-3.3,3.5-6,6.6-8
		c3.1-2.1,8.1-4.1,14.9-6V96h-81.5v15.4c8.4,2.4,14.1,4.9,17.1,7.8c3,2.9,5,6.6,6.1,11.2c1,4.6,1.5,12.8,1.5,24.6v80.3H79.5v-80.4
		c0-12,0.6-20.2,1.9-24.8c1.2-4.6,3.4-8.3,6.4-11.1c3-2.8,8.6-5.3,16.9-7.7V96H22.4v15.4c5.9,1.6,10.5,3.3,13.9,5.2
		c3.4,1.9,5.8,4.5,7.5,7.6c1.6,3.1,2.6,7.1,3,12.1c0.4,5,0.6,11.1,0.6,18.4V358c0,7.5-0.2,13.6-0.7,18.5c-0.5,4.9-1.5,8.9-3.2,12.1
		c-1.6,3.2-4.1,5.7-7.5,7.5c-3.4,1.8-7.9,3.5-13.6,5v15.4h82.3v-15.4c-4.5-1.1-8.3-2.4-11.4-3.9c-3.1-1.5-5.5-3.2-7.3-5.2
		c-1.8-2-3.2-4.5-4.1-7.5c-0.9-2.9-1.6-6.8-1.9-11.4s-0.5-9.7-0.5-15.2v-93.4h145.4V358c0,13.2-0.6,21.9-1.6,26.2
		c-1.1,4.3-3,7.6-5.6,9.9c-2.7,2.4-8.4,4.7-17.5,7v15.4h81.5v-15.4c-8.3-2-13.9-4.5-17-7.5C261.6,390.7,259.6,387,258.6,382.6z"/>
	<path d="M620,383.4v33H429.9c-0.9-9.4-1.3-18.2-1.3-22.8c0-19.5,4.2-38,12.6-55.1c17.3-35.4,48.3-56,64.9-67.1l1.7-1.2
		c2.1-1.4,4-2.7,5.6-3.8c13.5-9.3,37.2-26.4,49.1-38.6c8.6-8.9,17.1-20.4,17.2-38c0.1-15.3-3.8-30.2-18.9-43.9l0,0
		c-9.1-9-27.7-17.2-48.4-13.7c-12.5,2.1-32.1,10.2-48.9,32.4l-27-17.3c8.1-13,20.4-25.7,33.4-34.3c16.5-11.3,35.8-17.1,57.3-17.1
		c25.9,0,47.5,8,66,24.5c17.3,15.4,25.3,35.4,25.3,63c0,18.4-5.8,35.5-17.4,50.9c-13.2,17.6-26.9,30.7-42.1,40.2
		c-18,11.2-34.9,23.5-50.2,36.6c-18.9,15.6-36.6,32.6-37.9,50.5l-1.6,21.8H620z"/>
</g>
</svg>
