<?xml version="1.0" encoding="utf-8"?>
<!-- Generator: Adobe Illustrator 21.1.0, SVG Export Plug-In . SVG Version: 6.00 Build 0)  -->
<svg version="1.1" id="_x33_2" xmlns="http://www.w3.org/2000/svg" xmlns:xlink="http://www.w3.org/1999/xlink" x="0px" y="0px"
	 viewBox="0 0 640 512" style="enable-background:new 0 0 640 512;" xml:space="preserve">
<g id="h6_1_">
	<path d="M548.1,246.2c-11.3,0-21.8-0.2-33.1,3.3c-9.3,2.9-11.2,4.5-11.2,4.5l3.5-6.6L588.2,96h-37.4l-80.4,154.1
		c-0.8,1.6-1.7,3.4-2.8,5.5c-8,15.7-22.8,45-22.8,74.2c0,52.7,34.4,86.7,87.6,86.7c64.6,0,87.6-47.2,87.6-87.6
		C620,275.2,583,246.2,548.1,246.2z M569.4,372.6c-9.3,9.5-22.4,14.7-36.9,14.7c-17.1,0-31.1-6.5-40.5-18.8c-7.8-10.1-12-24-12-39.2
		c0-35.2,20.6-57.9,52.6-57.9c22.6,0,35.1,10.8,41.6,19.8c9.1,12.7,11,27.7,11,38.1C585,347.3,579.6,362.3,569.4,372.6z"/>
	<path d="M258.6,382.6c-1-4.4-1.5-12.6-1.5-24.6v-203H257c0-8.4,0.2-14.6,0.6-18.6s1.2-7.7,2.5-10.9c1.3-3.3,3.5-6,6.6-8
		c3.1-2.1,8.1-4.1,14.9-6V96h-81.5v15.4c8.4,2.4,14.1,4.9,17.1,7.8c3,2.9,5,6.6,6.1,11.2c1,4.6,1.5,12.8,1.5,24.6v80.3H79.5v-80.4
		c0-12,0.6-20.2,1.9-24.8c1.2-4.6,3.4-8.3,6.4-11.1c3-2.8,8.6-5.3,16.9-7.7V96H22.4v15.4c5.9,1.6,10.5,3.3,13.9,5.2
		c3.4,1.9,5.8,4.5,7.5,7.6c1.6,3.1,2.6,7.1,3,12.1c0.4,5,0.6,11.1,0.6,18.4V358c0,7.5-0.2,13.6-0.7,18.5c-0.5,4.9-1.5,8.9-3.2,12.1
		c-1.6,3.2-4.1,5.7-7.5,7.5c-3.4,1.8-7.9,3.5-13.6,5v15.4h82.3v-15.4c-4.5-1.1-8.3-2.4-11.4-3.9c-3.1-1.5-5.5-3.2-7.3-5.2
		c-1.8-2-3.2-4.5-4.1-7.5c-0.9-2.9-1.6-6.8-1.9-11.4s-0.5-9.7-0.5-15.2v-93.4h145.4V358c0,13.2-0.6,21.9-1.6,26.2
		c-1.1,4.3-3,7.6-5.6,9.9c-2.7,2.4-8.4,4.7-17.5,7v15.4h81.5v-15.4c-8.3-2-13.9-4.5-17-7.5C261.6,390.7,259.6,387,258.6,382.6z"/>
</g>
</svg>
