<?xml version="1.0" encoding="utf-8"?>
<!-- Generator: Adobe Illustrator 21.1.0, SVG Export Plug-In . SVG Version: 6.00 Build 0)  -->
<svg version="1.1" id="Layer_1" xmlns="http://www.w3.org/2000/svg" xmlns:xlink="http://www.w3.org/1999/xlink" x="0px" y="0px"
	 viewBox="0 0 550 512.6" style="enable-background:new 0 0 550 512.6;" xml:space="preserve">
<g id="_x33_2_1_">
	<path d="M503.3,79.2C488.2,70.9,475.6,65,433.7,65C335,65,257.6,93.2,189.8,93.2c-11.7,0-23-0.8-34.2-2.8l0,0
		c-0.4,0-4.5-0.2-16.4-8.9v147.8c0,0,7.7-7.9,17.8-7.9c6.4-0.2,12.6-0.3,18.7-0.3c75.5,0,127.8,14.9,127.8,14.9
		c23.6,4.9,37.1,15.1,44,45.6c1.4,6.5,2.4,14,2.9,22.2c-4.8,1-8.3,5.2-8.3,10.3l0.1,33.4c0,4.6,2.9,8.5,7.1,9.9
		c-3,33.5-9.8,67.8-18,90.1c-6.1,16.9,56.9,24.6,86,24.6c12.6,0,22.6-1.4,25-4.1c16-32.7,17.9-107.9,11.2-158.4
		c-3.3-25.5-9.3-55.6,34.8-68.8c35.8-11.2,61.7-44.6,61.7-84C550,123.3,532.4,95.4,503.3,79.2z M512.2,194.3
		c-7.8,10.5-18.9,18.4-31.2,22.3c-60.5,18-56.9,63.2-52.5,96.4c3.3,24.6,4.2,54.1,2.7,81.2c-1.2,21.4-3.9,39.7-7.7,52.5
		c-1.7,0.1-3.7,0.2-6,0.2c-9.5,0-40.1-1-49-2.6c-3.4-0.6-6.3-1.3-8.5-1.9c14.1-47.8,22-123.1,12.5-166.1l0,0l0,0
		c-8.4-37.7-27.3-57.1-62.7-64.8c-7.8-2.1-60.3-15.7-133.8-15.7c-3.7,0-7.3,0-11,0.1v-78.4c8,0.9,16.4,1.3,25.1,1.3
		c32.9,0,67.2-6,103.5-12.6C337,98.4,382,90.4,433.8,90.4c37.5,0,46.2,4.8,57.2,11c21.6,12.1,33.6,31.8,33.7,55.6
		C524.6,170.6,520.3,183.5,512.2,194.3z"/>
	<path d="M459.4,102.4c-29.7,0-54,24.2-54,54s24.2,54,54,54s54.1-24.2,54-54C513.3,126.6,489.3,102.4,459.4,102.4z M435.8,125.3
		h47.2c2.9,0.2,5.3,2.5,5.3,5.5c0,3-2.4,5.3-5.3,5.3h-47.2c-3,0-5.3-2.4-5.3-5.3C430.5,127.8,432.8,125.3,435.8,125.3z M483.1,187.5
		h-47.2c-3,0-5.3-2.4-5.3-5.3c0-3,2.4-5.5,5.3-5.5h47.2c2.9,0.2,5.3,2.5,5.3,5.5C488.4,185.1,486.1,187.5,483.1,187.5z M490.8,161.4
		h-62.6c-3,0-5.3-2.4-5.3-5.3c0-3,2.4-5.3,5.3-5.3h62.6c2.9,0,5.3,2.4,5.3,5.3C496.1,159,493.8,161.4,490.8,161.4z"/>
	<path d="M115.4,81.5L115.4,81.5c6.8,0,12.2,0,12.2,0v147.8c0,0-5.6,0-12.2,0l0,0c-6.8,0-12.2-5.6-12.2-12.2V93.9
		C103,87.1,108.5,81.5,115.4,81.5z"/>
	<path d="M81,200.6c-1.6-2.9-5.2-4.1-8.2-2.7c-3.8,1.7-8.9,3.7-12.8,3.7c-10.6,0-12.1-7.8-27-7.8c-7.8,0-17.8,4.5-22.7,7.3
		c-3.2,1.8-4.2,6-2.2,9.1l0.6,1c1.9,2.9,5.7,3.8,8.7,2c3.8-2.3,11.6-6.2,15.6-6.2c10.3,0,13.4,7.8,27,7.8c6.2,0,13.3-2.8,18.2-5.1
		C81.6,207.9,82.9,203.8,81,200.6L81,200.6z"/>
	<path d="M9.6,112c2,3.5,6.4,4.7,9.9,2.6c3.9-2.4,9.1-4.8,13.6-4.8c9.1,0,13.7,7.8,27,7.8c6,0,12.9-2.5,17.7-4.8
		c3.7-1.7,5.2-6,3.4-9.6l0,0c-1.7-3.4-5.7-4.9-9.2-3.4c-3.7,1.5-8.3,3.1-11.8,3.1c-10.5,0-13.4-7.8-27-7.8c-7.3,0-15.6,3.7-21.1,6.8
		c-3.5,1.9-4.7,6.3-2.8,9.8L9.6,112z"/>
	<path d="M91.4,150.9c-1.7-3.3-5.9-4.6-9.3-3c-4.6,2.2-11.1,4.8-16.4,4.8c-14.2,0.1-16.1-9.6-35.4-9.6c-10.2,0-21.5,5.2-26.9,8.3
		C0,153.5-1,158,1.2,161.3l0,0c2.1,3.2,6.2,4.1,9.4,2.2C14.8,161,23.8,157,31,157c14.7,0,15.7,9.7,35.4,9.7c8.3,0,16.5-2.9,21.9-5.3
		c3.7-1.7,5.2-6.1,3.3-9.7L91.4,150.9z"/>
</g>
</svg>
