<?xml version="1.0" encoding="utf-8"?>
<!-- Generator: Adobe Illustrator 21.1.0, SVG Export Plug-In . SVG Version: 6.00 Build 0)  -->
<svg version="1.1" id="Layer_1" xmlns="http://www.w3.org/2000/svg" xmlns:xlink="http://www.w3.org/1999/xlink" x="0px" y="0px"
	 viewBox="0 0 211.4 512.6" style="enable-background:new 0 0 211.4 512.6;" xml:space="preserve">
<g>
	<path d="M205,67c3.5,0,6.4-2.9,6.4-6.4s-2.9-6.4-6.4-6.4h-9.6V41.4h9.6c3.5,0,6.4-2.9,6.4-6.4s-2.9-6.4-6.4-6.4h-9.6v-1.4
		c0-14.9-12.2-27.1-27.1-27.1H43C28,0,15.9,12.2,15.9,27.1v1.4H6.4c-3.5,0-6.4,2.9-6.4,6.4s2.9,6.4,6.4,6.4h9.5v12.8H6.4
		C2.9,54.2,0,57,0,60.6C0,64.1,2.9,67,6.4,67h9.5v12.8H6.4c-3.5,0-6.4,2.9-6.4,6.4s2.9,6.4,6.4,6.4h9.5v12.8H6.4
		c-3.5,0-6.4,2.9-6.4,6.4s2.9,6.4,6.4,6.4h9.5V131H6.4c-3.5,0-6.4,2.9-6.4,6.4s2.9,6.4,6.4,6.4h9.5v12.8H6.4c-3.5,0-6.4,2.9-6.4,6.4
		s2.9,6.4,6.4,6.4h9.5v12.8H6.4c-3.5,0-6.4,2.9-6.4,6.4s2.9,6.4,6.4,6.4h9.5v13H6.4c-3.5,0-6.4,2.9-6.4,6.4s2.9,6.4,6.4,6.4h9.5
		v12.8H6.4l0,0c-3.5,0-6.4,2.9-6.4,6.4s2.9,6.4,6.4,6.4h9.5v1.4C15.9,262.9,28,275,43,275h26.2v26.3H68c-3.5,0-6.4,2.9-6.4,6.4
		v160.7c0,24.3,19.8,44.1,44.1,44.1s44.1-19.8,44.1-44.1V307.8c0-3.5-2.9-6.4-6.4-6.4h-1.2V275h26.2c14.9,0,27.1-12.2,27.1-27.1
		v-1.4h9.6c3.5,0,6.4-2.9,6.4-6.4s-2.9-6.4-6.4-6.4h-9.6v-12.8h9.6c3.5,0,6.4-2.9,6.4-6.4s-2.9-6.4-6.4-6.4h-9.6v-12.8h9.6
		c3.5,0,6.4-2.9,6.4-6.4s-2.9-6.4-6.4-6.4h-9.6v-12.8h9.6c3.5,0,6.4-2.9,6.4-6.4s-2.9-6.4-6.4-6.4h-9.6v-12.8h9.6
		c3.5,0,6.4-2.9,6.4-6.4s-2.9-6.4-6.4-6.4h-9.6v-12.8h9.6c3.5,0,6.4-2.9,6.4-6.4s-2.9-6.4-6.4-6.4h-9.6V92.6h9.6
		c3.5,0,6.4-2.9,6.4-6.4s-2.9-6.4-6.4-6.4h-9.6V67H205z M136.9,468.5c0,17.2-14,31.3-31.3,31.3c-17.2,0-31.3-14-31.3-31.3V314.2
		h62.5v154.3H136.9z M82,301.4V275h47.3v26.3H82V301.4z M182.6,28.5h-14.9v12.8h14.9v12.8h-14.9V67h14.9v12.8h-14.9v12.8h14.9v12.8
		h-14.9v12.8h14.9V131h-14.9v12.8h14.9v12.8h-14.9v12.8h14.9v12.8h-14.9V195h14.9v13h-14.9v12.8h14.9v12.8h-14.9v12.8h14.9v1.4
		c0,7.9-6.4,14.3-14.3,14.3H43c-7.9,0-14.3-6.4-14.3-14.3v-1.4h15v-12.8h-15v-12.8h15V208h-15v-12.8h15v-12.8h-15v-12.8h15v-12.8
		h-15V144h15v-12.8h-15v-12.8h15v-12.8h-15V92.7h15V79.8h-15V67h15V54.2h-15V41.4h15V28.5h-15v-1.4c0-7.9,6.4-14.3,14.3-14.3h125.3
		c7.9,0,14.3,6.4,14.3,14.3V28.5z"/>
	<circle cx="85.9" cy="35.1" r="6.5"/>
	<circle cx="125.9" cy="35.1" r="6.5"/>
	<circle cx="85.9" cy="60.7" r="6.5"/>
	<circle cx="125.9" cy="60.7" r="6.5"/>
	<circle cx="85.9" cy="86.3" r="6.5"/>
	<circle cx="125.9" cy="86.3" r="6.5"/>
	<circle cx="85.9" cy="111.9" r="6.5"/>
	<circle cx="125.9" cy="111.9" r="6.5"/>
	<circle cx="85.9" cy="137.4" r="6.5"/>
	<circle cx="125.9" cy="137.4" r="6.5"/>
	<circle cx="85.9" cy="162" r="6.5"/>
	<circle cx="125.9" cy="162" r="6.5"/>
	<circle cx="85.9" cy="188.6" r="6.5"/>
	<circle cx="125.9" cy="188.6" r="6.5"/>
	<circle cx="85.9" cy="215.2" r="6.5"/>
	<circle cx="125.9" cy="215.2" r="6.5"/>
	<circle cx="85.9" cy="241.6" r="6.5"/>
	<circle cx="125.9" cy="241.6" r="6.5"/>
</g>
</svg>
