<?xml version="1.0" encoding="utf-8"?>
<!-- Generator: Adobe Illustrator 21.1.0, SVG Export Plug-In . SVG Version: 6.00 Build 0)  -->
<svg version="1.1" id="Layer_3" xmlns="http://www.w3.org/2000/svg" xmlns:xlink="http://www.w3.org/1999/xlink" x="0px" y="0px"
	 viewBox="0 0 445 512" style="enable-background:new 0 0 445 512;" xml:space="preserve">
<g>
	<path d="M222.3,33.3c33.9,0,64.3,6.6,90.4,19.6c22.5,11.2,41.9,27.3,57.8,47.9c31.3,40.5,42.5,90,42.5,122.9v222.8
		c0,0.1,0,7.7-1.4,16.6c-0.1,0.8-0.3,1.7-0.4,2.4c-0.3-0.6-0.6-1.2-0.9-1.8c-9.4-18.4-25-49.3-60.5-49.3c-35.5,0-50.7,30.7-59.8,49
		c-1.1,2.2-2.5,5.1-4,7.8c-1.5-2.8-2.9-5.7-4.1-8c-9.1-18.2-24.3-48.8-59.6-48.8c-35.3,0-50.7,30.7-59.9,49.1c-1,2-2.2,4.5-3.5,6.9
		c-1.2-2.4-2.4-4.8-3.4-6.7c-9-18.4-24.2-49.3-60.2-49.3c-36,0-51.3,30.9-60.4,49.4c-0.4,0.8-0.8,1.7-1.3,2.7
		c-1-5.6-1.7-12.3-1.6-19.7l0-0.4V223.6c0-33,11.1-82.6,42.3-123c15.8-20.5,35.2-36.6,57.6-47.8C158,39.8,188.4,33.3,222.3,33.3
		 M222.3,1.3C56.6,1.3,0,140,0,223.6s0,222.8,0,222.8c0,2.4-1,63.3,31.6,63.3c32.6,0,31.4-63.3,63.7-63.3s30.7,63.3,63.7,63.3
		c32,0,32-63.3,63.3-63.3c31.3,0,30.7,63.3,63.7,63.3c33,0,32-63.3,63.7-63.3s32.3,63.3,63.7,63.3c31.4,0,31.6-60.9,31.6-63.3
		c0,0,0-139.4,0-222.8S388,1.3,222.3,1.3L222.3,1.3z"/>
	<path d="M311,161c8.8,0,16,7.2,16,16s-7.2,16-16,16s-16-7.2-16-16S302.2,161,311,161 M311,129c-26.5,0-48,21.5-48,48s21.5,48,48,48
		s48-21.5,48-48S337.5,129,311,129L311,129z"/>
	<path d="M135,161c8.8,0,16,7.2,16,16s-7.2,16-16,16s-16-7.2-16-16S126.2,161,135,161 M135,129c-26.5,0-48,21.5-48,48s21.5,48,48,48
		s48-21.5,48-48S161.5,129,135,129L135,129z"/>
</g>
</svg>
