<?xml version="1.0" encoding="utf-8"?>
<!-- Generator: Adobe Illustrator 21.1.0, SVG Export Plug-In . SVG Version: 6.00 Build 0)  -->
<svg version="1.1" id="Layer_1" xmlns="http://www.w3.org/2000/svg" xmlns:xlink="http://www.w3.org/1999/xlink" x="0px" y="0px"
	 viewBox="0 0 520.5 512" style="enable-background:new 0 0 520.5 512;" xml:space="preserve">
<path d="M516.2,130.9l-4.2-4c-4.1-4.1-9.3-6.7-14.5-7.4c-3.5-0.4-6.7,0.1-9.4,1.5l-11-11c3.9-3.9,8.8-9.4,1.3-17l-56-56
	C372.3,3.4,312,0.8,312,0.8s-3,3-3.4,3.4c0,0,27.8,5.7,43.4,14.9c15.4,9,28.1,20.5,28.1,20.5s-13.9-10.5-29.6-19.3
	c-15.8-8.9-42.8-15.2-42.8-15.2c-1.4,1.4-3.4,3.4-3.4,3.4s47.9,13.9,68.4,51.9c-0.6,1.9-0.8,4.1-0.6,6.2c0.4,4.7,2.7,9.8,6.7,13.8
	l15.9,15.1L224.3,259.3l27.6,27.3l164.3-169.5l19,19c7.8,7.8,13.2,2.6,16.5-0.8l11,11c-1.4,2.8-1.9,6-1.5,9.5
	c0.6,5.3,3.5,9.7,7.6,13.9c1.8,1.8,6.9,6.9,6.9,6.9c4.8,4.8,12.8,2.7,17.2-1.7l24.1-24.1C522.2,145.6,521.3,136,516.2,130.9z
	 M224.3,259.3l-35.5,35.4l-2.6-2.6c-7.4-7.4-14.8-5.9-20.7,0L5.3,452.3c-8.8,8.8-4.3,18,3.9,26.3l24.1,24.1
	c8.2,7.7,16.9,12.7,26.3,3.9l160.1-160.3c6.7-6.7,6.2-14.5,0-20.7l-3.4-3.4l35.6-35.6L224.3,259.3z"/>
</svg>
