<?xml version="1.0" encoding="utf-8"?>
<!-- Generator: Adobe Illustrator 21.1.0, SVG Export Plug-In . SVG Version: 6.00 Build 0)  -->
<svg version="1.1" id="Layer_12" xmlns="http://www.w3.org/2000/svg" xmlns:xlink="http://www.w3.org/1999/xlink" x="0px" y="0px"
	 viewBox="0 0 564 512" style="enable-background:new 0 0 564 512;" xml:space="preserve">
<g>
	<path d="M515,305.3c8.4,0,16.1,0.1,23,0.4V392c-4.5-1.8-9.4-2.7-14.5-2.7c-12.4,0-23.6,5.7-30.9,14.6c-5.7-26.3-9.2-58.6-6.8-98.1
		C494.5,305.6,504.6,305.3,515,305.3 M515,282.3c-20,0-39.6,0.8-50.5,1.8c-9.4,89.7,9.5,148,24,183.3H561V284.5
		C548.6,282.9,531.6,282.3,515,282.3L515,282.3z M523.5,446.6c-9.4,0-17.1-7.6-17.1-17.1c0-9.4,7.6-17.1,17.1-17.1
		c9.4,0,17.1,7.6,17.1,17.1S533,446.6,523.5,446.6L523.5,446.6z"/>
	<path d="M435.4,335.5v90.8c-43,6.2-77.8,24.2-106.7,39c-24.6,12.7-45.8,23.6-64.1,23.6c-0.3,0-0.6,0-0.9,0h-0.5h-0.5h-0.2
		c-5.5,0-29.7-3.2-111.3-45.1C101.4,418.3,50.6,389,24.8,373.7c-1.5-0.9-2.3-2.7-1.9-4.4v-0.1v-0.1c0.6-2,2.3-2.9,3.8-2.9
		c0.5,0,1,0.1,1.5,0.3c63.1,25.7,108.1,44.5,137.2,57.3c10.7,19.5,31.1,31.6,54.6,31.7h0.1h0.1c7.8,0,15.9-1.3,24-3.9L350.7,418
		c7.6-2.3,13.8-7.5,17.6-14.5c3.8-7,4.6-15.3,2.3-22.9l-0.1-0.3l-0.1-0.3c-4.1-12.3-15.6-20.5-28.6-20.5c-2.9,0-5.8,0.4-8.6,1.3
		l-0.2,0.1l0,0.4l-106.6,33.5l-0.2,0.1L226,395c-2,0.7-3.8,1-5.5,1c-1.5,0-2.2-0.3-2.3-0.4c0,0-0.1-0.1-0.2-0.3
		c46.5-17.2,78.5-31,102-41.1c27.8-12,43.1-18.6,54-18.6c0.2,0,0.4,0,0.6,0h0.3h0.3L435.4,335.5 M458.4,312.5l-83.2,0.1
		c-0.4,0-0.8,0-1.1,0c-27.6,0-56.7,21.6-167.6,62.4c-7.9,3.8-11.6,11.2-11.7,19.3c0.3,12.3,8.7,24.4,25.6,24.6
		c3.8,0,8.1-0.6,12.9-2.2l106.6-33.5c0.7-0.2,1.4-0.3,2.1-0.3c3,0,5.8,1.9,6.7,4.8c1.1,3.6-1,7.6-4.7,8.7L237.4,430
		c-6,1.9-11.7,2.8-17.1,2.8c-19.4-0.1-32.6-12-37.4-26.2C143.7,389.1,75.3,361.1,37,345.5c-3.3-1.4-6.8-2-10.2-2
		c-11.7,0-22.6,7.7-25.9,19.8c-3.3,11.7,1.8,24.2,12.3,30.4C65.5,424.5,217.9,512,262.5,512c0.2,0,0.4,0,0.7,0c0.5,0,0.9,0,1.4,0
		c53.2,0,106.4-61.1,193.8-64.7L458.4,312.5L458.4,312.5z"/>
	<path d="M16.4,322c3.3-1.4,6.9-2.1,10.6-2.1c3.4,0,6.8,0.6,10.1,2c29,11.8,75.2,30.7,112.9,46.8c10.7,2.1,21.8,4.2,33.5,6.1
		c10-3.7,19.4-7.2,28.1-10.6c-4.5-1.8-9-3.6-13.5-5.4C142.3,335.4,87,304.6,65.3,293.5c-20.7-11.4-51.7-15.4-55,15.3
		C9.2,314.7,12.8,319.1,16.4,322z"/>
	<path d="M228.2,351c8.5-3.5,16.2-6.7,23.3-9.7c-20.6-7.6-47.5-19.9-66.8-20.4c-5.7-0.1-5.7-0.1-8.7-1.8
		c-51.7-33.4-59.1-30.9-78.4-27.8c-0.8,0-2.1,0.7-3.5,1.6C83.4,305.4,167.8,336.3,228.2,351z"/>
	<path d="M200.3,316.4c25.1,3.9,47.2,16.6,67.7,21.6c7.2-2.9,13.8-5.7,19.9-8.3c-17.6-6.5-42.1-17.2-59.4-20.8
		c-4.8-1-4.9-0.1-7.5-1.5c-33.2-17.7-50.6-17.7-66.8-19c-0.7,0-1.8,0.6-3,1.3c-1.9,2.2-1.4,4.6,1.1,7
		C165.1,303.6,172.3,307.6,200.3,316.4z"/>
	<path d="M386.6,21.4C372.7,7.7,354.3,0,334.7,0s-38,7.7-51.8,21.4l-0.6,0.6l-0.6-0.6C267.9,7.7,249.4,0,229.9,0s-38,7.7-51.8,21.4
		c-13.8,13.9-21.4,32.3-21.4,51.8s7.6,38,21.4,51.8l104.3,104.3l102.8-102.8l12.3-15.4l0.4-0.8C414.8,81.7,410.2,45.1,386.6,21.4z
		 M358.7,132.2c-30.9,32.1-76.2,76.9-76.2,76.9s-41.6-41.3-72.1-72c-24.7-24.9-39.6-36.6-39.6-63c0-35.9,26.9-59.7,59.7-59.7
		s38.7,22,52.2,22s16.5-22,53.5-22c30,0,57.7,25.8,57.7,59.8C394,97.9,382.6,107.3,358.7,132.2z"/>
</g>
</svg>
