<?xml version="1.0" encoding="utf-8"?>
<!-- Generator: Adobe Illustrator 21.1.0, SVG Export Plug-In . SVG Version: 6.00 Build 0)  -->
<svg version="1.1" id="Layer_12" xmlns="http://www.w3.org/2000/svg" xmlns:xlink="http://www.w3.org/1999/xlink" x="0px" y="0px"
	 viewBox="0 0 564 512" style="enable-background:new 0 0 564 512;" xml:space="preserve">
<g>
	<path d="M515,305.3c8.4,0,16.1,0.1,23,0.4V392c-4.5-1.8-9.4-2.7-14.5-2.7c-12.4,0-23.6,5.7-30.9,14.6c-5.7-26.3-9.2-58.6-6.8-98.1
		C494.5,305.6,504.6,305.3,515,305.3 M515,282.3c-20,0-39.6,0.8-50.5,1.8c-9.4,89.7,9.5,148,24,183.3H561V284.5
		C548.6,282.9,531.6,282.3,515,282.3L515,282.3z M523.5,446.6c-9.4,0-17.1-7.6-17.1-17.1c0-9.4,7.6-17.1,17.1-17.1
		c9.4,0,17.1,7.6,17.1,17.1S533,446.6,523.5,446.6L523.5,446.6z"/>
	<path d="M435.4,335.5v90.8c-43,6.2-77.8,24.2-106.7,39c-24.6,12.7-45.8,23.6-64.1,23.6c-0.3,0-0.6,0-0.9,0h-0.5h-0.5h-0.2
		c-5.5,0-29.7-3.2-111.3-45.1C101.4,418.3,50.6,389,24.8,373.7c-1.5-0.9-2.3-2.7-1.9-4.4v-0.1v-0.1c0.6-2,2.3-2.9,3.8-2.9
		c0.5,0,1,0.1,1.5,0.3c63.1,25.7,108.1,44.5,137.2,57.3c10.7,19.5,31.1,31.6,54.6,31.7h0.1h0.1c7.8,0,15.9-1.3,24-3.9L350.7,418
		c7.6-2.3,13.8-7.5,17.6-14.5c3.8-7,4.6-15.3,2.3-22.9l-0.1-0.3l-0.1-0.3c-4.1-12.3-15.6-20.5-28.6-20.5c-2.9,0-5.8,0.4-8.6,1.3
		l-0.2,0.1l0,0.4l-106.6,33.5l-0.2,0.1L226,395c-2,0.7-3.8,1-5.5,1c-1.5,0-2.2-0.3-2.3-0.4c0,0-0.1-0.1-0.2-0.3
		c46.5-17.2,78.5-31,102-41.1c27.8-12,43.1-18.6,54-18.6c0.2,0,0.4,0,0.6,0h0.3h0.3L435.4,335.5 M458.4,312.5l-83.2,0.1
		c-0.4,0-0.8,0-1.1,0c-27.6,0-56.7,21.6-167.6,62.4c-7.9,3.8-11.6,11.2-11.7,19.3c0.3,12.3,8.7,24.4,25.6,24.6
		c3.8,0,8.1-0.6,12.9-2.2l106.6-33.5c0.7-0.2,1.4-0.3,2.1-0.3c3,0,5.8,1.9,6.7,4.8c1.1,3.6-1,7.6-4.7,8.7L237.4,430
		c-6,1.9-11.7,2.8-17.1,2.8c-19.4-0.1-32.6-12-37.4-26.2C143.7,389.1,75.3,361.1,37,345.5c-3.3-1.4-6.8-2-10.2-2
		c-11.7,0-22.6,7.7-25.9,19.8c-3.3,11.7,1.8,24.2,12.3,30.4C65.5,424.5,217.9,512,262.5,512c0.2,0,0.4,0,0.7,0c0.5,0,0.9,0,1.4,0
		c53.2,0,106.4-61.1,193.8-64.7L458.4,312.5L458.4,312.5z"/>
	<path d="M16.4,322c3.3-1.4,6.9-2.1,10.6-2.1c3.4,0,6.8,0.6,10.1,2c29,11.8,75.2,30.7,112.9,46.8c10.7,2.1,21.8,4.2,33.5,6.1
		c10-3.7,19.4-7.2,28.1-10.6c-4.5-1.8-9-3.6-13.5-5.4C142.3,335.4,87,304.6,65.3,293.5c-20.7-11.4-51.7-15.4-55,15.3
		C9.2,314.7,12.8,319.1,16.4,322z"/>
	<path d="M228.2,351c8.5-3.5,16.2-6.7,23.3-9.7c-20.6-7.6-47.5-19.9-66.8-20.4c-5.7-0.1-5.7-0.1-8.7-1.8
		c-51.7-33.4-59.1-30.9-78.4-27.8c-0.8,0-2.1,0.7-3.5,1.6C83.4,305.4,167.8,336.3,228.2,351z"/>
	<path d="M200.3,316.4c25.1,3.9,47.2,16.6,67.7,21.6c7.2-2.9,13.8-5.7,19.9-8.3c-17.6-6.5-42.1-17.2-59.4-20.8
		c-4.8-1-4.9-0.1-7.5-1.5c-33.2-17.7-50.6-17.7-66.8-19c-0.7,0-1.8,0.6-3,1.3c-1.9,2.2-1.4,4.6,1.1,7
		C165.1,303.6,172.3,307.6,200.3,316.4z"/>
	<path d="M362.6,67.9c-33.1,0-54.1,23.2-50.2,49.7c0,0,0.2,2.5,1.2,4.7c-6,9.3-8.7,17.8-9.9,24.1c-0.9-4.9-2.4-11-5-17.8
		c-0.7-13.3-1.1-37.6,4-54c4.1,2.2,7.7,3.2,10.8,3.2c18.6,0,20.9-35.8,35.1-61.3C340.2,5,332.4,0,325.6,0c-17.1,0-28,31-26,66.3
		c0,0,0.3,5.4,0.9,8.1c-5.3,20-4.7,38.5-3.4,50.4c-2.1-4.7-4.7-9.7-8-14.8c1.5-4.6,1.8-6.6,1.8-6.6c5.6-37.9-24.5-71.2-71.9-71.2
		c-18.9,0-40.5,5.3-63.7,17.7c39.7,27.4,45.7,65.9,97.4,65.9c7.9,0,16.9-0.9,27.2-2.9c27.4,51.8,27,115.3,27.6,117.2h7.8
		c0,0,0.6-38.2-10.1-79.4c3.1-8.3,8.9-22.4,13.2-26.9c8,1.7,14.9,2.4,20.9,2.4c36.1,0,40.3-26.8,68-46
		C390.9,71.6,375.8,67.9,362.6,67.9z M314.6,27.6c3.6-8.3,10.1-13,11.1-13.4c2,0.1,4,0.9,5.9,4.1c-3.4,7.5-6,15.1-8.4,22.2
		c-2.2,6.4-4.3,12.4-6.5,17c-1.2,2.5-3.6,5.8-6.6,5.3c1.7-10.5,4.8-20.7,8.8-29.4c3.6-7.9,7.3-12.9,10.7-16.2
		c-13.3,8.3-19.1,28-21.4,41C306.6,49.4,310.8,35.4,314.6,27.6z M252.6,101.2c-27,0-37.6-12-53.7-30.1c-5-5.7-10.4-11.7-16.7-17.8
		c3.5-1.3,6.9-2.3,10.3-3.2c9.1-2.5,18.1-3.7,26.5-3.7c10.3,0,19.9,1.8,28.3,5.4c7.7,3.3,14.2,7.9,19.2,13.8
		c6.5,7.5,10.1,16.6,10.6,26.3c-12.6-13.3-36.7-32.2-75.4-38.5c10.8,2.9,23.1,7.6,36.5,15.4c16.4,9.4,28.6,19.8,37.7,30.1
		C267.3,100.4,259.5,101.2,252.6,101.2z M373.4,92.1c-5.3,6-9.9,11.2-15.2,14.6c-5.3,3.4-11.2,4.9-19.1,4.9c-3.2,0-6.7-0.3-10.6-0.8
		c4.9-4.2,10.6-8.3,17.4-12.2c9.3-5.4,17.9-8.7,25.5-10.7c-20.5,3.4-35.1,11.7-44.8,19.6c0.7-5,2.8-9.7,6.2-13.6
		C339.4,86.2,350,82,362.6,82c5.6,0,11.5,0.9,17.6,2.5C377.7,87.1,375.5,89.7,373.4,92.1z"/>
</g>
</svg>
