<?xml version="1.0" encoding="utf-8"?>
<!-- Generator: Adobe Illustrator 21.1.0, SVG Export Plug-In . SVG Version: 6.00 Build 0)  -->
<svg version="1.1" id="Layer_1" xmlns="http://www.w3.org/2000/svg" xmlns:xlink="http://www.w3.org/1999/xlink" x="0px" y="0px"
	 viewBox="0 0 550 512" style="enable-background:new 0 0 550 512;" xml:space="preserve">
<g id="_x33_2">
	<path d="M125.5,143.2c-31.8,0-57.7,25.9-57.7,57.7s25.9,57.7,57.7,57.7s57.7-25.9,57.7-57.7S157.4,143.2,125.5,143.2z M170.6,200.9
		c0,24.8-20.2,45-45,45s-45-20.2-45-45s20.2-45,45-45C150.3,155.9,170.6,176.1,170.6,200.9z"/>
	<path d="M125.8,126.7c-41.1,0-74.5,33.4-74.5,74.5s33.4,74.5,74.5,74.5s74.5-33.4,74.5-74.5S166.9,126.7,125.8,126.7z M187.8,201.2
		c0,34.1-27.9,62-62.1,62c-34.1,0-62-27.8-62-62s27.8-62,62-62C160.1,139.2,187.8,167,187.8,201.2z"/>
	<path d="M125.5,169.9c-17,0-30.9,13.8-30.9,30.9s13.8,30.9,30.9,30.9s30.9-13.8,30.9-30.9S142.5,169.9,125.5,169.9z M120.9,191.5
		c-0.1,0.1-0.2,0.1-0.2,0.2c-3.4,2.8-5.4,6.9-5.5,11.3c0,2.5-2,4.6-4.6,4.6c-2.5,0-4.6-2-4.6-4.6c0-7.2,3.3-14,8.8-18.5v-0.1
		c2-1.6,4.8-1.4,6.5,0.6l0.1,0.1C123.2,187,123,189.9,120.9,191.5z"/>
	<path d="M219.7,80.2v354.3H32V80.2H219.7 M518,134v158.5H318.9V134H518 M21.8,48.2C9.7,48.2,0,58,0,70v396.5h251.6V242h34.9v69.9
		c0,3.4,1.4,6.5,3.7,8.7c2.3,2.3,5.4,3.7,8.7,3.7h238.6c3.4,0,6.5-1.4,8.7-3.7c2.3-2.3,3.7-5.4,3.7-8.7V114.1c0-3.4-1.4-6.5-3.7-8.7
		c-2.3-2.3-5.4-3.7-8.7-3.7H299c-3.4,0-6.5,1.4-8.7,3.7c-2.3,2.3-3.7,5.4-3.7,8.7v69.9h-35v-114c0-12.2-9.8-21.9-21.8-21.9H21.9
		C21.8,48.2,21.8,48.2,21.8,48.2L21.8,48.2z"/>
	<path d="M483.3,191.9c-8.3,0-14.9,6.7-14.9,14.9c0,8.3,6.7,14.9,14.9,14.9c8.3,0,14.9-6.7,14.9-14.9S491.5,191.9,483.3,191.9z"/>
	<path d="M357.3,150.3c-7.4,0-13.5,6-13.5,13.5v27.4c0,7.4,6,13.5,13.5,13.5s13.5-6,13.5-13.5v-27.4
		C370.8,156.4,364.7,150.3,357.3,150.3z"/>
	<path d="M64.8,103.1c-7.4,0-13.5,6-13.5,13.5s6,13.5,13.5,13.5c7.4,0,13.4-6,13.5-13.6C78.2,109.2,72.2,103.1,64.8,103.1z"/>
	<rect x="92.9" y="311.7" width="59.5" height="87.7"/>
	<path d="M483.3,179.7c8.3,0,14.9-6.7,14.9-14.9s-6.7-14.9-14.9-14.9c-8.3,0-14.9,6.7-14.9,14.9S475.1,179.7,483.3,179.7z"/>
</g>
</svg>
