<?xml version="1.0" encoding="utf-8"?>
<!-- Generator: Adobe Illustrator 21.1.0, SVG Export Plug-In . SVG Version: 6.00 Build 0)  -->
<svg version="1.1" id="Layer_1" xmlns="http://www.w3.org/2000/svg" xmlns:xlink="http://www.w3.org/1999/xlink" x="0px" y="0px"
	 viewBox="0 0 512.7 512.6" style="enable-background:new 0 0 512.7 512.6;" xml:space="preserve">
<g>
	<path d="M174.7,290.2L156,315.4l41.5,41.5l25.2-18.7c-10.2-5.3-19.5-11.8-27.7-20C186.6,309.8,180,300.4,174.7,290.2z"/>
	<path d="M23,437.6l52.5,52.5l-9.8,10.7C51.3,516.7,26.1,517.1,11,502c-15.1-15.1-14.7-39.9,1.2-54.6L23,437.6z"/>
	<polygon points="183.3,372.5 89.9,474.3 38.7,423.2 140.5,329.8 	"/>
	<path d="M317.6,147.6c-0.1-1.9,2.7-4.7,5.5-5.5l54.8-8.7c2.4-0.4,4.4,1.6,4,4s-3.1,5.1-5.5,5.5l-54.9,8.7
		C319.2,152,317.2,150,317.6,147.6z M375.5,180.6c-0.4,2.4-3.1,5.1-5.5,5.5l-54.9,8.7c-2.4,0.4-4.4-1.6-4-4s3.1-5.1,5.5-5.5
		l54.8-8.7C373.9,176.2,375.9,178.3,375.5,180.6z M394.5,156.3c-0.4,2.4-3.1,5.1-5.5,5.5l-86.8,14.6c-2.7,0-4.4-1.6-4.3-4.3
		c0.4-2.4,3.1-5.2,5.5-5.5l87.1-14.2C392.9,151.9,394.9,153.9,394.5,156.3z"/>
	<path d="M485.5,27.6C435-22.9,331.9-2.1,255.8,74c-76.2,76.2-96.9,178.8-46,229.3c50.5,50.5,153.5,29.7,229.7-46.4
		C515.6,180.7,536,78.1,485.5,27.6z M415,233.2c-39.9,39.9-88.4,63.9-129.1,63.9c-20.8,0-38.7-6.5-51.3-19.1
		c-18.7-18.7-24-48.5-14.6-83.5c8.9-33,30.1-67.2,59.4-96.9c40.3-40.3,88.4-63.9,129.1-63.9c20.8,0,38.7,6.5,51.3,19.1
		C498.1,90.7,478.5,170.1,415,233.2z"/>
</g>
</svg>
