<?xml version="1.0" encoding="utf-8"?>
<!-- Generator: Adobe Illustrator 21.1.0, SVG Export Plug-In . SVG Version: 6.00 Build 0)  -->
<svg version="1.1" id="Layer_12" xmlns="http://www.w3.org/2000/svg" xmlns:xlink="http://www.w3.org/1999/xlink" x="0px" y="0px"
	 viewBox="0 0 564 512" style="enable-background:new 0 0 564 512;" xml:space="preserve">
<g>
	<path d="M515,200c8.4,0,16.1,0.1,23,0.4v86.3c-4.5-1.8-9.4-2.7-14.5-2.7c-12.4,0-23.6,5.7-30.9,14.6c-5.7-26.3-9.2-58.6-6.8-98.1
		C494.5,200.3,504.6,200,515,200 M515,177c-20,0-39.6,0.8-50.5,1.8c-9.4,89.7,9.5,148,24,183.3H561V179.2
		C548.6,177.6,531.6,177,515,177L515,177z M523.5,341.3c-9.4,0-17.1-7.6-17.1-17.1c0-9.4,7.6-17.1,17.1-17.1
		c9.4,0,17.1,7.6,17.1,17.1S533,341.3,523.5,341.3L523.5,341.3z"/>
	<path d="M435.4,230.2v90.8c-43,6.2-77.8,24.2-106.7,39c-24.6,12.7-45.8,23.6-64.1,23.6c-0.3,0-0.6,0-0.9,0l-0.5,0l-0.5,0l-0.2,0
		c-5.5,0-29.7-3.2-111.3-45.1c-49.8-25.5-100.6-54.8-126.4-70.1c-1.5-0.9-2.3-2.7-1.9-4.4l0-0.1l0-0.1c0.6-2,2.3-2.9,3.8-2.9
		c0.5,0,1,0.1,1.5,0.3c63.1,25.7,108.1,44.5,137.2,57.3c10.7,19.5,31.1,31.6,54.6,31.7l0.1,0h0.1c7.8,0,15.9-1.3,24-3.9l106.5-33.6
		c7.6-2.3,13.8-7.5,17.6-14.5c3.8-7,4.6-15.3,2.3-22.9l-0.1-0.3l-0.1-0.3c-4.1-12.3-15.6-20.5-28.6-20.5c-2.9,0-5.8,0.4-8.6,1.3
		l-0.2,0.1L333,256l-106.6,33.5l-0.2,0.1l-0.2,0.1c-2,0.7-3.8,1-5.5,1c-1.5,0-2.2-0.3-2.3-0.4c0,0-0.1-0.1-0.2-0.3
		c46.5-17.2,78.5-31,102-41.1c27.8-12,43.1-18.6,54-18.6c0.2,0,0.4,0,0.6,0l0.3,0l0.3,0L435.4,230.2 M458.4,207.2l-83.2,0.1
		c-0.4,0-0.8,0-1.1,0c-27.6,0-56.7,21.6-167.6,62.4c-7.9,3.8-11.6,11.2-11.7,19.3c0.3,12.3,8.7,24.4,25.6,24.6
		c3.8,0,8.1-0.6,12.9-2.2l106.6-33.5c0.7-0.2,1.4-0.3,2.1-0.3c3,0,5.8,1.9,6.7,4.8c1.1,3.6-1,7.6-4.7,8.7l-106.6,33.6
		c-6,1.9-11.7,2.8-17.1,2.8c-19.4-0.1-32.6-12-37.4-26.2C143.7,283.8,75.3,255.8,37,240.2c-3.3-1.4-6.8-2-10.2-2
		c-11.7,0-22.6,7.7-25.9,19.8c-3.3,11.7,1.8,24.2,12.3,30.4c52.3,30.8,204.7,118.3,249.3,118.3c0.2,0,0.4,0,0.7,0c0.5,0,0.9,0,1.4,0
		c53.2,0,106.4-61.1,193.8-64.7V207.2L458.4,207.2z"/>
	<g>
		<path d="M16.4,216.7c3.3-1.4,6.9-2.1,10.6-2.1c3.4,0,6.8,0.6,10.1,2c29,11.8,75.2,30.7,112.9,46.8c10.7,2.1,21.8,4.2,33.5,6.1
			c10-3.7,19.4-7.2,28.1-10.6c-4.5-1.8-9-3.6-13.5-5.4C142.3,230.1,87,199.3,65.3,188.2c-20.7-11.4-51.7-15.4-55,15.3
			C9.2,209.4,12.8,213.8,16.4,216.7z"/>
	</g>
	<path d="M228.2,245.7c8.5-3.5,16.2-6.7,23.3-9.7c-20.6-7.6-47.5-19.9-66.8-20.4c-5.7-0.1-5.7-0.1-8.7-1.8
		c-51.7-33.4-59.1-30.9-78.4-27.8c-0.8,0-2.1,0.7-3.5,1.6C83.4,200.1,167.8,231,228.2,245.7z"/>
	<path d="M200.3,211.1c25.1,3.9,47.2,16.6,67.7,21.6c7.2-2.9,13.8-5.7,19.9-8.3c-17.6-6.5-42.1-17.2-59.4-20.8
		c-4.8-1-4.9-0.1-7.5-1.5c-33.2-17.7-50.6-17.7-66.8-19c-0.7,0-1.8,0.6-3,1.3c-1.9,2.2-1.4,4.6,1.1,7
		C165.1,198.3,172.3,202.3,200.3,211.1z"/>
</g>
</svg>
