<?xml version="1.0" encoding="utf-8"?>
<!-- Generator: Adobe Illustrator 21.1.0, SVG Export Plug-In . SVG Version: 6.00 Build 0)  -->
<svg version="1.1" id="Layer_12" xmlns="http://www.w3.org/2000/svg" xmlns:xlink="http://www.w3.org/1999/xlink" x="0px" y="0px"
	 viewBox="0 0 564 512" style="enable-background:new 0 0 564 512;" xml:space="preserve">
<g>
	<path d="M518,305.3c8.4,0,16.1,0.1,23,0.4V392c-4.5-1.8-9.4-2.7-14.5-2.7c-12.4,0-23.6,5.7-30.9,14.6c-5.7-26.3-9.2-58.6-6.8-98.1
		C497.5,305.6,507.6,305.3,518,305.3 M518,282.3c-20,0-39.6,0.8-50.5,1.8c-9.4,89.7,9.5,148,24,183.3H564V284.5
		C551.6,282.9,534.6,282.3,518,282.3L518,282.3z M526.5,446.6c-9.4,0-17.1-7.6-17.1-17.1c0-9.4,7.6-17.1,17.1-17.1
		c9.4,0,17.1,7.6,17.1,17.1S536,446.6,526.5,446.6L526.5,446.6z"/>
	<path d="M435.4,335.5v90.8c-43,6.2-77.8,24.2-106.7,39c-24.6,12.7-45.8,23.6-64.1,23.6c-0.3,0-0.6,0-0.9,0h-0.5h-0.5h-0.2
		c-5.5,0-29.7-3.2-111.3-45.1C101.4,418.3,50.6,389,24.8,373.7c-1.5-0.9-2.3-2.7-1.9-4.4v-0.1v-0.1c0.6-2,2.3-2.9,3.8-2.9
		c0.5,0,1,0.1,1.5,0.3c63.1,25.7,108.1,44.5,137.2,57.3c10.7,19.5,31.1,31.6,54.6,31.7h0.1h0.1c7.8,0,15.9-1.3,24-3.9L350.7,418
		c7.6-2.3,13.8-7.5,17.6-14.5c3.8-7,4.6-15.3,2.3-22.9l-0.1-0.3l-0.1-0.3c-4.1-12.3-15.6-20.5-28.6-20.5c-2.9,0-5.8,0.4-8.6,1.3
		l-0.2,0.1v0.4l-106.6,33.5l-0.2,0.1L226,395c-2,0.7-3.8,1-5.5,1c-1.5,0-2.2-0.3-2.3-0.4c0,0-0.1-0.1-0.2-0.3
		c46.5-17.2,78.5-31,102-41.1c27.8-12,43.1-18.6,54-18.6c0.2,0,0.4,0,0.6,0h0.3h0.3L435.4,335.5 M458.4,312.5l-83.2,0.1
		c-0.4,0-0.8,0-1.1,0c-27.6,0-56.7,21.6-167.6,62.4c-7.9,3.8-11.6,11.2-11.7,19.3c0.3,12.3,8.7,24.4,25.6,24.6
		c3.8,0,8.1-0.6,12.9-2.2l106.6-33.5c0.7-0.2,1.4-0.3,2.1-0.3c3,0,5.8,1.9,6.7,4.8c1.1,3.6-1,7.6-4.7,8.7L237.4,430
		c-6,1.9-11.7,2.8-17.1,2.8c-19.4-0.1-32.6-12-37.4-26.2C143.7,389.1,75.3,361.1,37,345.5c-3.3-1.4-6.8-2-10.2-2
		c-11.7,0-22.6,7.7-25.9,19.8c-3.3,11.7,1.8,24.2,12.3,30.4C65.5,424.5,217.9,512,262.5,512c0.2,0,0.4,0,0.7,0c0.5,0,0.9,0,1.4,0
		c53.2,0,106.4-61.1,193.8-64.7L458.4,312.5L458.4,312.5z"/>
	<path d="M183.5,374.8c-11.7-1.9-22.8-4-33.5-6.1c-37.7-16.1-83.9-35-112.9-46.8c-3.3-1.4-6.7-2-10.1-2c-3.7,0-7.3,0.7-10.6,2.1
		c-3.6-2.9-7.2-7.3-6.1-13.2c3.3-30.7,34.3-26.7,55-15.3c21.7,11.1,77,41.9,132.8,65.3c4.5,1.8,9,3.6,13.5,5.4
		C202.9,367.6,193.5,371.1,183.5,374.8z M228.2,351c-60.4-14.7-144.8-45.6-134.1-58.1c1.4-0.9,2.7-1.6,3.5-1.6
		c19.3-3.1,26.7-5.6,78.4,27.8c3,1.7,3,1.7,8.7,1.8c19.3,0.5,46.2,12.8,66.8,20.4C244.4,344.3,236.7,347.5,228.2,351z M268,338
		c-20.5-5-42.6-17.7-67.7-21.6c-28-8.8-35.2-12.8-48-19.7c-2.5-2.4-3-4.8-1.1-7c1.2-0.7,2.3-1.3,3-1.3c16.2,1.3,33.6,1.3,66.8,19
		c2.6,1.4,2.7,0.5,7.5,1.5c17.3,3.6,41.8,14.3,59.4,20.8C281.8,332.3,275.2,335.1,268,338z"/>
	<path d="M348.3,0.4H348L290.1,0l10.7,63v33h-9v0.2l-6.3-3.7l-5,3.7c0,0-5.8,1.5-8,1.3l0,0.5h0l-6.7,1.2c0,0-7.1-6.2-10-6.2
		c-0.1,0-0.2,0-0.4,0c-1.1,0.2-3.2,3-3.2,3h-15.1V63l10.6-63l-57.9,0.5h-0.3L141.4,63v192.9h255.8V62.9L348.3,0.4z M340.7,10.9h-0.2
		l35.4,52h-58.3l-13-52.5L340.7,10.9z M197,10.9l35.8-0.5L220.9,63h-58.3L197,10.9z M380.2,239.8H157.4V78.9h63.5l0.5,17.2v15.8h35
		l5.5,5.1l8.5-2.6c1-0.3,2.4-0.6,3.1-0.8c2.2-0.1,8.8-1.1,8.8-1.1h35.5v-33h63.5L380.2,239.8z M282.7,0.4h-28.3l-8.6,58.6v28.8h6
		c0,0,2.1-2.9,3.2-3.2c2.6-0.6,10.4,6.1,10.4,6.1s5-1.5,6.7-1.5c2,0,8-1.5,8-1.5l5-3.7l6,3.7V60L282.7,0.4z"/>
</g>
</svg>
