<?xml version="1.0" encoding="utf-8"?>
<!-- Generator: Adobe Illustrator 21.1.0, SVG Export Plug-In . SVG Version: 6.00 Build 0)  -->
<svg version="1.1" id="Layer_5" xmlns="http://www.w3.org/2000/svg" xmlns:xlink="http://www.w3.org/1999/xlink" x="0px" y="0px"
	 viewBox="0 0 421.5 512" style="enable-background:new 0 0 421.5 512;" xml:space="preserve">
<g>
	<path d="M128,130.3c17.8,1.3,36.4,2,55.5,2c7.6,0,15.3-0.1,22.8-0.3c7.5,24.7,17.1,67.7,20.3,131.9c-19.2,2.2-38.9,3.4-58.9,3.4
		c-20.6,0-41-1.2-60.6-3.5c1.7-34.1,5.4-65.5,11-93.7C121.5,153.4,125,140.2,128,130.3 M279.8,151.1L279.8,151.1
		c20.5,24.9,35.3,55.6,43.1,89.5c-7.5,3.1-11.6,4.8-20.3,7.5C298.8,208.4,287.6,177,279.8,151.1 M49.7,167.2
		c-4.3,19.3-11.8,56.7-14.2,81.7c-4.2-1.3-13.5-4.4-17.4-5.8C22.7,219.9,39.3,179.4,49.7,167.2L49.7,167.2z M87,109.1
		c-21.2,15.4-40,36.4-54.2,61.1c-14.7,25.4-24.5,53.8-29.3,84.5c14.2,6.1,30.3,11.5,48.2,15.8c5.1-81.8,25.3-136.1,36.8-161.2
		C88,109.3,87.5,109.2,87,109.1L87,109.1z M263.2,111.4c-5.2,0.6-10.6,1.2-16.2,1.7c12.5,28.1,30.4,80.6,35.1,157.8
		c23.3-5.6,44.1-12.8,60.8-21.1C333.1,184.1,295.7,135.9,263.2,111.4L263.2,111.4z M115.3,112.6c-4.2,11.5-9.7,29.4-14.6,54.4
		c-6.5,33-10.5,70.2-11.9,110.8c25.3,3.9,51.9,5.8,79,5.8c26.3,0,52.3-1.9,77.3-5.7c-2.9-85.3-16.6-137.4-25.7-163.1
		c-11.7,0.6-23.7,0.8-35.9,0.8C159.7,115.8,136.7,114.7,115.3,112.6L115.3,112.6z"/>
	<path d="M332.3,305.4c-0.6,16.9-2.8,35.3-6.7,51.3c-7.2,3.1-20.9,6-29.4,8.7c2-16.2,3-34.7,3.2-51.9
		C308.8,311.1,323.6,308.3,332.3,305.4 M345.8,280.8c-18.1,8.1-39.1,14.8-62.5,20c0,3,0.1,6,0.1,8.8c0,27-2.3,52.9-6.9,76.9
		c23.3-5.2,44.1-12.1,60.8-20.2C343.4,343.9,348.3,306.1,345.8,280.8L345.8,280.8z"/>
	<path d="M127.5,442.4c12.9,0.9,26.1,1.5,39.3,1.6l0.1,0l0.1,0l0.1,0l0,0h0c13.2,0,26.3-0.4,39.2-1.2c-9.6,25.8-20.2,42.9-27.2,52.6
		c-1.8,0.1-3.6,0.1-5.4,0.1c-6.6,0-13.3-0.5-19.8-1.6C147.2,484.5,136.8,467.5,127.5,442.4 M102.8,423.5
		c13,46.2,31.5,73.8,40.4,85.1c10,2.2,20.2,3.3,30.5,3.3c5.1,0,10.2-0.3,15.2-0.8c8.1-9.8,28.2-37.8,42.2-87
		c-20.5,2.2-42,3.4-63.9,3.4l-0.1,0C145.2,427.3,123.6,426,102.8,423.5L102.8,423.5z"/>
	<path d="M65,417.8c-14-2.7-27.3-5.8-39.6-9.3c10,20.5,22.7,38.7,37.8,54.2c11.1,11.4,23.2,21,36.1,28.6
		C87.7,474.8,74.7,450.8,65,417.8z M46.4,428.8c2.2,0.6,4.6,1.2,7.1,1.7c1.7,5.9,17.7,31.7,19.8,34.7
		C70.9,463.8,48.2,432.5,46.4,428.8z"/>
	<path d="M106.3,326.3c19.9,2,40.5,3,61.5,3c20.3,0,40.3-1,59.8-2.9c-0.6,18-2.2,35.5-4.8,52.2c-17.9,1.9-36.3,2.9-54.9,2.9
		c-19.3,0-38.3-1-56.7-3C108.5,361.7,106.9,344.3,106.3,326.3 M88.2,307.5c0,1,0,2,0,3c0,29,2.5,56.8,7.4,82.6
		c23.2,3.2,47.4,4.8,72.2,4.8c24,0,47.7-1.5,70.4-4.6c4.9-25.9,7.4-53.7,7.4-82.8c0-1,0-2,0-2.9c-24.9,3.5-51.1,5.2-77.9,5.2
		C140.2,312.8,113.5,311,88.2,307.5L88.2,307.5z"/>
	<path d="M12.7,307.5c4.7,1.4,15,4.7,19.9,6c0.1,17,1.2,33.6,3.1,49.6c-3.3-1-13.3-3.6-16.4-4.7C14.9,342.1,13.6,324.7,12.7,307.5
		 M0.1,285.6c-0.1,3.5-0.1,7-0.1,10.7c0,26,3.8,51.5,11.2,75.7c13.7,5.5,29.1,10.3,46.1,14.2c-4.5-23.9-6.9-49.6-6.9-76.5
		c0-2.9,0-5.8,0.1-8.8C32.1,296.6,15.2,291.6,0.1,285.6L0.1,285.6z"/>
	<path d="M268.7,418.6c-12,40.4-29,67.2-41.6,82.9c18.3-7.4,35.7-18.7,51.1-33.3c18.2-17.3,33.6-39.2,45.1-64
		C306.7,410.1,288.4,414.9,268.7,418.6z M260.6,472.6c8.7-12.6,21.3-37.1,22.3-40c1.4-0.3,8.4-2.3,9.9-2.7
		C291,434,273.7,463,260.6,472.6z"/>
	<path d="M269.6,0.7H85v63.7h16.6v27.4c23.6,3.3,53.3,5,80.7,5c17.2,0,34-0.7,50-2l44.6-0.6l0,0l1.3,0.1l2.6,0.2l0,0l3.9,0.3
		l19.1,1.4l1,0.4c21,8.7,39.4,22.3,53,39.3l3.7,4.6l0.5-0.2l3.2,4.2c16.6,22,29.8,49.8,39.2,82.5l0.2,0.7v0.6c0,0.1,0.1,0.4,0.2,0.6
		c0.2,0.7,0.4,1.5,0.5,2.5c10.1,36.2,13.5,69.5,14.6,86.7c6.3-68.2-8.1-135.6-42.8-190.7c-6-9.6-31.6-59.5-107.6-104.4L269.6,0.7z"
		/>
	<path d="M385,75.1c-14.8-26.3-50.3-36.5-79.4-22.7c-29.1,13.8-40.7,46.3-26,72.6c14.8,26.3,51.2,36.5,80.3,22.8
		C389,134,399.8,101.4,385,75.1z M355.8,139c-24.6,11.7-56.2,3.4-68.7-18.8c-12.5-22.3-2.1-48.8,22.5-60.4
		c24.7-11.7,54.8-3,67.3,19.2C389.4,101.2,380.5,127.3,355.8,139z"/>
</g>
</svg>
