<?xml version="1.0" encoding="utf-8"?>
<!-- Generator: Adobe Illustrator 21.1.0, SVG Export Plug-In . SVG Version: 6.00 Build 0)  -->
<svg version="1.1" id="Layer_3" xmlns="http://www.w3.org/2000/svg" xmlns:xlink="http://www.w3.org/1999/xlink" x="0px" y="0px"
	 viewBox="0 0 512 512" style="enable-background:new 0 0 512 512;" xml:space="preserve">
<g id="_x33_2">
	<path d="M285.7,97.9c0.5,0,1.1,0.1,1.8,0.3l-16.6,98.2l0,0.2l0,0.2c-2,12.6,1.3,25.7,8.8,36.1c7.5,10.2,18.3,16.9,30.7,19l0.4,0.1
		l0.9,0.2l0.9,0.1c2.3,0.3,4.6,0.5,6.9,0.5c21.8,0,41-14.7,46.7-35.8l14.4-53.8c8.7,7.6,17.8,17.6,26.3,30.2
		c14.6,21.5,32,57.1,32,104.7v29.2v0H70.8v0v-29.2c0-48.3,20.2-85.4,37.1-108.1c7.7-10.4,15.6-18.8,22.8-25.5l14,52.4l0,0l0,0
		c5.7,21.1,24.8,35.8,46.6,35.8c2.6,0,5.1-0.2,7.7-0.6c26.1-4.1,44-28.8,40-55.1l0-0.1l0-0.1l-16-98.8c0.6-0.1,1.3-0.2,1.9-0.2
		H285.7 M285.7,65.9h-60.8c-20.5,0-33.1,14-36.3,20.5L207.4,202c1.4,9-4.7,17.3-13.4,18.7c-0.9,0.1-1.7,0.2-2.6,0.2
		c-7.2,0-13.8-5-15.7-12.1l-25.1-94.3c-32.9,9.2-111.7,80.3-111.7,183.8v29.2c-7.5,0-15.8,0-22.8,0c-8.8,0-16,7.2-16,16
		c0,8.8,7.2,16,16,16h480c8.8,0,16-7.2,16-16c0-8.8-7.2-16-16-16h-25.1v-29.2c0-96.9-63.1-169-110.3-183.8l-25.3,94.3
		c-1.9,7.2-8.5,12.1-15.8,12.1c-0.8,0-1.6-0.1-2.3-0.2l-1-0.2c-9-1.4-15-9.9-13.6-18.7L322,86.4C318.7,80,303.7,65.9,285.7,65.9
		L285.7,65.9z"/>
	<path d="M474.9,399.9c5.6,0,10.1,4.5,10.1,10.1c0,5.6-4.5,10.1-10.1,10.1H37.1c-5.6,0-10.1-4.5-10.1-10.1c0-5.6,4.5-10.1,10.1-10.1
		H474.9 M474.9,372.9H37.1C16.6,372.9,0,389.5,0,409.9C0,430.4,16.6,447,37.1,447h437.9c20.5,0,37.1-16.6,37.1-37.1
		C512,389.5,495.4,372.9,474.9,372.9L474.9,372.9z"/>
</g>
</svg>
