<?xml version="1.0" encoding="utf-8"?>
<!-- Generator: Adobe Illustrator 21.1.0, SVG Export Plug-In . SVG Version: 6.00 Build 0)  -->
<svg version="1.1" id="Layer_1" xmlns="http://www.w3.org/2000/svg" xmlns:xlink="http://www.w3.org/1999/xlink" x="0px" y="0px"
	 viewBox="0 0 550 512" style="enable-background:new 0 0 550 512;" xml:space="preserve">
<g>
	<path d="M498,210.7C498,102.3,414.2,10,275.9,10s-224,92-224,200.7c-6.4,3-11,7.7-13.1,13.6v122.1c3.5,9.9,14.2,17.3,27.4,17.3
		c16.1,0,29.1-10.6,29.1-23.9c9.1-4.6,15.2-14.1,15.2-25v-58.6c0-10.9-6.2-20.4-15.2-25c0-7.5-4.5-13.9-11.1-18.3
		c0.2-0.9-18.8-1.8-18.6-2.7C79.2,103.6,156.4,34,276.2,34s195,68.9,207.9,175.6c0.2,1.2-18.6,2.2-18.4,3.4c-6.8,4.5-10,8.9-11.3,19
		c-8.4,4.8-14.1,13.9-14.1,24.4v58.6c0,10.5,5.8,19.7,14.3,24.6c0,0.2,0,0.4,0,0.5c0,8.3,5.4,15.3,13.2,19.5v18.2
		c0,62.8-75.5,66.8-162.5,85.8c-19-16.8-52.5-5.7-52.5,16.8c0,28.4,49.5,35,59.2,6.5c90.1-19.5,185.1-27,185.1-109.1V361
		c7.3-3.2,12.5-8.6,14.6-15.4c0.1,0,0.3,0,0.5,0V225.5c-0.2,0-0.3,0-0.5,0C509.7,219.1,504.8,213.9,498,210.7z"/>
	<path d="M0.2,285.6c0,32.9-4.6,59.5,35.4,60c0.1,0.3,0.2,0.6,0.3,0.9V224.4c-0.1,0.4-0.3,0.8-0.4,1.2
		C-4.4,226.2,0.2,252.7,0.2,285.6z"/>
	<path d="M515,225.5v120.1c39.3-0.9,34.7-27.4,34.7-60C549.7,253,554.3,226.4,515,225.5z"/>
</g>
</svg>
