<?xml version="1.0" encoding="utf-8"?>
<!-- Generator: Adobe Illustrator 21.1.0, SVG Export Plug-In . SVG Version: 6.00 Build 0)  -->
<svg version="1.1" id="Layer_2" xmlns="http://www.w3.org/2000/svg" xmlns:xlink="http://www.w3.org/1999/xlink" x="0px" y="0px"
	 viewBox="0 0 561 512" style="enable-background:new 0 0 561 512;" xml:space="preserve">
<path d="M513.2,47.9C482.3,17,441.2,0,397.5,0s-84.7,17-115.6,47.9l-1.4,1.4l-1.4-1.4C248.2,17,207.2,0,163.4,0S78.7,17,47.9,47.9
	C17,78.8,0,119.8,0,163.6s17,84.7,47.9,115.7L280.5,512L510,282.5l27.4-34.4l1-1.7C576.2,182.2,565.8,100.6,513.2,47.9z M451,295.1
	c-69,71.5-170.2,171.6-170.2,171.6S188,374.5,120,306c-55.2-55.5-88.4-81.6-88.4-140.8C31.6,85.3,91.7,32,165,32S251.2,81,281.4,81
	C311.8,81,318.3,32,400.9,32c66.9,0,128.8,57.5,128.8,133.6c0,8.6-0.7,16.3-2,23.6H395.4l-39.1,42.7l-75-104.5l-63.9,90.8h-23.8
	l-1-1.7c-6.7-11.5-19.1-18.6-32.3-18.6c-20.7,0-37.5,16.8-37.5,37.5s16.8,37.5,37.5,37.5c13.3,0,25.7-7.2,32.4-18.6l1-1.7h47.4
	l34.7-51.1l71.2,93.8l69.6-71.8h97.6C501.3,244.3,480.4,264.4,451,295.1z"/>
</svg>
