<?xml version="1.0" encoding="utf-8"?>
<!-- Generator: Adobe Illustrator 21.1.0, SVG Export Plug-In . SVG Version: 6.00 Build 0)  -->
<svg version="1.1" id="Layer_2" xmlns="http://www.w3.org/2000/svg" xmlns:xlink="http://www.w3.org/1999/xlink" x="0px" y="0px"
	 viewBox="0 0 560.5 512" style="enable-background:new 0 0 560.5 512;" xml:space="preserve">
<path d="M512.7,48.3C481.8,17.6,440.8,0.5,397.1,0.5s-84.7,17.1-115.5,47.8l-1.4,1.4l-1.4-1.4C248,17.6,206.9,0.5,163.3,0.5
	S78.6,17.6,47.8,48.3C17,79.2,0,120.3,0,163.9s17,84.7,47.8,115.6L280.3,512l229.2-229.3l27.4-34.3l1-1.7
	C575.6,182.6,565.3,101,512.7,48.3z M450.5,295.2c-68.9,71.5-170,171.4-170,171.4s-92.8-92.1-160.7-160.5
	c-55.1-55.5-88.2-81.5-88.2-140.5c0-80,60-133.1,133.2-133.1S251,81.6,281.2,81.6s36.9-49.1,119.4-49.1
	c66.8,0,128.6,57.5,128.6,133.4C529.2,218.7,503.9,239.8,450.5,295.2z"/>
</svg>
