<?xml version="1.0" encoding="utf-8"?>
<!-- Generator: Adobe Illustrator 21.1.0, SVG Export Plug-In . SVG Version: 6.00 Build 0)  -->
<svg version="1.1" id="Shape_1_1_" xmlns="http://www.w3.org/2000/svg" xmlns:xlink="http://www.w3.org/1999/xlink" x="0px" y="0px"
	 viewBox="0 0 512 512" style="enable-background:new 0 0 512 512;" xml:space="preserve">
<g>
	<path d="M512.1,256c0-141.4-114.6-256-256-256S0.1,114.6,0.1,256s114.6,256,256,256S512.1,397.4,512.1,256z M32.6,256
		c0-123.4,100.1-223.5,223.5-223.5S479.6,132.6,479.6,256S379.5,479.5,256.1,479.5S32.6,379.4,32.6,256z"/>
	<path d="M379.9,162.4L379.9,162.4c-17-17-39.6-26.3-63.5-26.3c-22,0-42.9,7.9-59.3,22.3c-16.4-14.4-37.3-22.3-59.3-22.3
		c-24,0-46.5,9.3-63.5,26.3c-17,17-26.3,39.5-26.3,63.5c0,24,9.3,46.6,26.3,63.5l122.8,122.8l121.2-121.2l14.7-18.4l0.8-1.3
		C414.5,236.2,408.8,191.3,379.9,162.4z M376.3,226.9c0,21.7-9.2,31.1-31.4,53.9c-2.1,2.1-4.3,4.4-6.6,6.8h0
		c-28.2,29.3-67.5,68.3-81.2,81.9c-13-12.9-49-48.7-76.5-76.4c-2.9-2.9-5.7-5.7-8.4-8.4c-22.1-21.9-34.3-34-34.3-57.9
		c0-35,25.5-60.5,60.5-60.5c20.1,0,29.8,7.9,38.3,14.9c6.3,5.2,12.2,10,20.7,10c8.4,0,14-4.9,19.5-9.6c7.8-6.8,17.6-15.2,41-15.2
		C349.6,166.3,376.3,194.1,376.3,226.9z"/>
</g>
</svg>
