<?xml version="1.0" encoding="utf-8"?>
<!-- Generator: Adobe Illustrator 21.1.0, SVG Export Plug-In . SVG Version: 6.00 Build 0)  -->
<svg version="1.1" id="Layer_2" xmlns="http://www.w3.org/2000/svg" xmlns:xlink="http://www.w3.org/1999/xlink" x="0px" y="0px"
	 viewBox="0 0 560.5 512" style="enable-background:new 0 0 560.5 512;" xml:space="preserve">
<path d="M512.7,48.3C481.8,17.6,440.8,0.5,397.1,0.5c-43.7,0-84.7,17.1-115.5,47.8l-1.4,1.4l-1.4-1.4C248,17.6,206.9,0.5,163.3,0.5
	c-43.6,0-84.7,17.1-115.5,47.8C17,79.2,0,120.3,0,163.9c0,43.6,17,84.7,47.8,115.6L280.3,512l229.2-229.3l27.4-34.3l1-1.7
	C575.6,182.6,565.3,101,512.7,48.3z M119.8,306.1c-55.1-55.5-88.2-81.5-88.2-140.5c0-80,60-133.1,133.2-133.1
	c60.7,0,80,33.8,102,45.3v99.1l82.6,58.3L176.8,321c-4.7,2.3-4.6,11.3,0.1,13.6l134.1,65.5v36.3c-18.5,18.4-30.4,30.2-30.4,30.2
	S187.7,374.5,119.8,306.1z M450.5,295.2c-34.3,35.6-76.5,78.2-110.4,112v-32l-90-47.4L408,244.5c4.3-2.3,4.6-10.5,0.4-13.3
	l-112.6-75.3V77.3c20.4-11.9,37.2-44.8,104.7-44.8c66.8,0,128.6,57.5,128.6,133.4C529.2,218.7,503.9,239.8,450.5,295.2z"/>
</svg>
