<?xml version="1.0" encoding="utf-8"?>
<!-- Generator: Adobe Illustrator 22.0.1, SVG Export Plug-In . SVG Version: 6.00 Build 0)  -->
<svg version="1.1" id="Layer_2" xmlns="http://www.w3.org/2000/svg" xmlns:xlink="http://www.w3.org/1999/xlink" x="0px" y="0px"
	 viewBox="0 0 512 512" style="enable-background:new 0 0 512 512;" xml:space="preserve">
<style type="text/css">
	.st0{fill:#010101;}
</style>
<path class="st0" d="M272.1,280.5c0.1-0.9,0.3-1.8,0.4-2.7c0,0,176.3,0,230.3,0.1h0.1c5,0,9.1-4.1,9.1-9.1c0-5.1-4.1-9.2-9.1-9.2
	l-19.5-0.1l-1.2-22C482.1,133.6,389,0,246.4,0c-18.5,0-37.6,2.1-57.4,6.4C94.8,27,20.8,106.2,4.9,203.5c0,0-23.1,93.3,30.9,159.1
	c26.2,32,63.1,49.9,100.9,49.9c15.3,0,30.7-2.9,45.5-8.9c2-0.8,3.9-1.7,5.8-2.6L292,509.1c1.7,1.8,4.1,2.8,6.5,2.8h154.9
	c42.8,0,50.8-39.4,52.2-51.5c2.9-25,0.2-97.4,0-100.4c-0.2-4.9-4.2-8.8-9.1-8.8H246.6c9.2-14.1,16.3-30.4,21.3-48.8
	C269.8,295.3,271,288,272.1,280.5z M137.3,380.4c-29.2,0-57.1-13.9-76.6-38c-36.6-45.1-28.6-101.2-25.4-125.8
	C42,147.2,104.3,31.7,247.9,31.7c118.9,0,205.7,110.8,205.7,214.1H124.8c-5.5-0.4-10,4.1-10.4,9.6v27.8c0.3,5.5,4.8,10,10.4,9.8
	h113.5C221.8,362.1,164.6,380.4,137.3,380.4z M225.4,269.3c0,7.7-6.2,13.9-13.9,13.9c-7.7,0-13.9-6.2-13.9-13.9
	c0-7.7,6.2-13.9,13.9-13.9C219.2,255.4,225.4,261.6,225.4,269.3z M172.9,269.3c0,7.7-6.2,13.9-13.9,13.9s-13.9-6.2-13.9-13.9
	c0-7.7,6.2-13.9,13.9-13.9C166.7,255.4,172.9,261.6,172.9,269.3z M303.7,493l-57.6-59.4h78.6C322.9,460.8,316.8,484.7,303.7,493z
	 M490.9,369.3c0.3,10.4,0.8,28.5,1,46.2H436c-0.1-18.2-1.6-34.9-2.8-46.2H490.9z M435.7,433.6h55.9c-0.1,10-0.5,19-1.2,24.8
	c-1.5,13.3-8.1,35.5-34.4,35.5h-34.1C430.9,478.6,434.6,456.1,435.7,433.6z M415.4,369.3c1.7,14.6,2.7,30.6,2.7,46.2h-74.6
	c0.1-18.6-1.3-35.5-2.6-46.2H415.4z M343.1,433.6h74.3c-1.6,30.8-7.8,56.4-21.3,60.3h-68.7C337.4,478.1,341.7,455.8,343.1,433.6z
	 M326.1,415.5h-95.8c-0.7,0-1.3,0.3-1.9,0.4l-23.3-24.1c10.3-6.4,19.5-13.9,27.6-22.5h90.8C325.2,383.3,326.2,399.5,326.1,415.5z"/>
</svg>
