<?xml version="1.0" encoding="utf-8"?>
<!-- Generator: Adobe Illustrator 21.1.0, SVG Export Plug-In . SVG Version: 6.00 Build 0)  -->
<svg version="1.1" id="Layer_2" xmlns="http://www.w3.org/2000/svg" xmlns:xlink="http://www.w3.org/1999/xlink" x="0px" y="0px"
	 viewBox="0 0 512 512" style="enable-background:new 0 0 512 512;" xml:space="preserve">
<path d="M256,0C114.6,0,0,114.6,0,256s114.6,256,256,256c141.4,0,256-114.6,256-256S397.4,0,256,0z M339,47.9
	c56.7,22.6,101.9,67.7,124.8,124.3l-79.7,31c-14.1-34.1-41.4-61.3-75.6-75.3L339,47.9z M362.5,256c0,58.8-47.7,106.5-106.5,106.5
	c-58.8,0-106.5-47.7-106.5-106.5S197.2,149.5,256,149.5C314.8,149.5,362.5,197.2,362.5,256z M256,32c18.1,0,35.6,2.1,52.4,6.2
	l-30.9,81c-7-1.1-14.2-1.7-21.5-1.7c-7.2,0-14.3,0.6-21.1,1.6l-31.5-80.9C220.2,34.2,237.9,32,256,32z M172.8,48l31,79.7
	c-34.2,13.9-61.6,41.1-75.8,75.2l-79.9-30.5C70.9,115.8,116.2,70.6,172.8,48z M32,256c0-18.3,2.2-36.1,6.3-53.1l81,30.9
	c-1.2,7.2-1.8,14.7-1.8,22.2c0,7.1,0.5,14,1.5,20.8l-80.9,31.5C34.1,291.5,32,274,32,256z M172.7,464
	c-56.8-22.8-102.2-68.2-124.8-125.1l79.7-31c13.9,34.4,41.3,62,75.6,76.2L172.7,464z M256,480c-18.2,0-35.9-2.2-52.8-6.3l30.9-81
	c7.1,1.1,14.4,1.7,21.9,1.7c7.3,0,14.5-0.6,21.6-1.7l31.5,80.9C292,477.8,274.3,480,256,480z M339.6,463.9l-31-79.7
	c34.3-14.1,61.8-41.6,75.8-76l79.9,30.5C441.6,395.6,396.4,441,339.6,463.9z M392.8,277.2c1.1-6.9,1.6-14,1.6-21.2
	c0-7.5-0.6-14.8-1.7-21.9l80.9-31.5c4.2,17.1,6.4,35,6.4,53.3c0,17.9-2.1,35.4-6.1,52.1L392.8,277.2z"/>
</svg>
