<?xml version="1.0" encoding="utf-8"?>
<!-- Generator: Adobe Illustrator 21.1.0, SVG Export Plug-In . SVG Version: 6.00 Build 0)  -->
<svg version="1.1" id="Layer_1" xmlns="http://www.w3.org/2000/svg" xmlns:xlink="http://www.w3.org/1999/xlink" x="0px" y="0px"
	 viewBox="0 0 344.9 512" style="enable-background:new 0 0 344.9 512;" xml:space="preserve">
<style type="text/css">
	.st0{fill:#020202;}
	.st1{fill-rule:evenodd;clip-rule:evenodd;}
</style>
<g>
	<path class="st0" d="M334.8,509c-6.1,0.4-11.4-4.5-11.8-10.9l-16.6-229.6c-13.9-2.6-32.9-6.6-42.5-10.1l-1.2-0.4
		c-27-8-45.5-17.9-58.2-31.2l-23.4-24.4L159,294.3l6.7,7.3c0.3,0.3,31.9,34.5,50.2,56.6c5.2,6.3,12.1,17.9,18.9,52.3
		c2.4,12.3,6.4,39.8,11.5,79.6c0.7,5.5-1,11.1-4.7,15.3s-9,6.6-14.6,6.6c-9.8,0-18.1-7.3-19.3-17c-3.3-26.9-8.2-62.7-12.9-80.7
		l-0.1-0.6c-2.3-11.7-8.3-27.3-35.6-54.7c-35.8-35.8-53.3-66.7-53.5-67l-0.6-1.1c-5.5-8.6-6.9-15.5-4.8-25.4l15.4-71.3l0.2-1.9
		c5.7-57.3,18.6-77.6,27.9-77.6l1.6,0l1.5-0.2c5-0.6,9.3-1,12.7-1c10.6,0,18.7,2,24.6,6.5c3.5,2.6,6.5,6.2,9,10.8
		c9,16.8,35.1,61.3,41.3,71.7l3.1,5.3l66.5,27.5l-6.3-87.8c-0.5-6.4,4.1-11.9,10.2-12.3c6.1-0.4,11.3,4.5,11.8,10.9l25.3,350.6
		C345.4,503.2,340.8,508.7,334.8,509z"/>
	<path d="M125,343.4l-18.5,65.9c-0.6,2.9-2,5.8-4,8.2l-68.7,88.3c-3.6,4.1-8.6,6.2-13.6,6.2c-4.1,0-8.3-1.4-11.6-4.3
		c-7.5-6.5-8.3-17.9-1.9-25.3l65.6-84.7l23.4-92.6L125,343.4z"/>
	<path class="st0" d="M187.5,0c-25.8,0-46.8,21-46.8,46.8c0,26,21,46.8,46.8,46.8c26,0,47-20.8,47-46.8C234.5,21,213.4,0,187.5,0z"
		/>
	<path class="st1" d="M87.2,118.6c17.6-1.3,37.2-0.6,34.7,5.5c-17.5,43.5-27.1,119.5-56.2,128.4c-17,5.2-35-2.9-40.9-20.4
		c-5.6-16.5,6.7-59.2,21-86.7C55.7,126.4,73.4,119.6,87.2,118.6z"/>
</g>
</svg>
