<?xml version="1.0" encoding="utf-8"?>
<!-- Generator: Adobe Illustrator 21.1.0, SVG Export Plug-In . SVG Version: 6.00 Build 0)  -->
<svg version="1.1" id="Layer_1" xmlns="http://www.w3.org/2000/svg" xmlns:xlink="http://www.w3.org/1999/xlink" x="0px" y="0px"
	 viewBox="0 0 512 512" style="enable-background:new 0 0 512 512;" xml:space="preserve">
<style type="text/css">
	.st0{fill:#010101;}
</style>
<g>
	<path class="st0" d="M392.8,41.4C271.5-35.7,109.1-2.2,30,116.3c-0.3-0.2-7.1-4.5-7.1-4.5L0,97.2l6.3,85.1l82.2-28.9l-23-14.6
		c0,0-7.7-4.9-8-5.1C126.7,30,269,0.8,375,68.3s136,206.2,66.9,309.8S230.6,511,124.6,443.5c-7.7-4.9-17.7-2.8-22.7,4.7
		s-2.9,17.3,4.8,22.2C228,547.5,390.4,514,469.5,395.5S514.1,118.5,392.8,41.4z"/>
	<path d="M231.4,182.1h-14.3c-4.5,0-8.2,3.6-8.2,8.1l-0.2,130.5c0,7.3,5.9,13.2,13.2,13.2h80.3c4.5,0,8.2-3.7,8.2-8.2v-15.2
		c0-4.5-3.7-8.2-8.2-8.2h-62.6v-112C239.6,185.8,235.9,182.1,231.4,182.1z"/>
</g>
</svg>
