<?xml version="1.0" encoding="utf-8"?>
<!-- Generator: Adobe Illustrator 22.0.1, SVG Export Plug-In . SVG Version: 6.00 Build 0)  -->
<svg version="1.1" id="Layer_8" xmlns="http://www.w3.org/2000/svg" xmlns:xlink="http://www.w3.org/1999/xlink" x="0px" y="0px"
	 viewBox="0 0 546.7 512" style="enable-background:new 0 0 546.7 512;" xml:space="preserve">
<style type="text/css">
	.st0{fill:#010101;}
</style>
<g>
	<path class="st0" d="M102.4,17.6c2.6-6.7,7.6-12.1,14.2-15.2l0.4-0.2c14-6,30,0,36.3,13.8l0.4,0.9c0,0,191.7,338.3,214.5,383.9
		c12.7,24.7,59.6,16.4,93.9,10.4c14.6-2.6,27.2-4.8,36.9-4.6h0c10.5,0,21.1,8.5,31.5,25.2c8.5,13.6,14.1,28.7,14.9,40.1
		c1.2,17-7.8,29.1-23,30.9c-1.6,0.3-3.2,0.5-5,0.8c-18.5,3.1-49.4,8.2-80.7,8.2c0,0,0,0,0,0c-40.2,0-70.2-8.7-89-25.9
		c-30.8-28-244.8-447.7-244.8-447.7C100,31.8,99.8,24.4,102.4,17.6z M515.6,473.5c-0.4-3.5-2-10-6.4-18.5
		c-4.9-9.5-10.1-15.9-12.8-18.2c-6.9,0.2-17.8,2.1-29.3,4.1c-0.2,0-0.5,0.1-0.7,0.1l27,36c7.2-1.1,13.7-2.1,19.1-3
		C513.6,473.9,514.7,473.7,515.6,473.5z M367.7,463.8c13.2,12,36.4,18.1,69,18.1c0,0,0,0,0,0c9.8,0,19.7-0.6,29.2-1.4l-26.3-35
		c-12.8,1.7-26.2,2.8-38.8,2.1c-29-1.6-49-12.7-59.3-32.9l0-0.1c-10.6-21.2-35.3-75-64-140.8C317.7,376.6,346.1,444.1,367.7,463.8z"
		/>
	<path class="st0" d="M448,17.6c-2.6-6.7-7.7-12.1-14.3-15.2l-0.4-0.2c-14.1-6-30.2,0-36.5,13.8l-0.4,0.9
		c0,0-192.7,338.3-215.7,383.9c-12.8,24.7-60,16.4-94.5,10.4c-14.7-2.6-27.4-4.8-37.2-4.6h0c-10.5,0-21.2,8.5-31.7,25.2
		c-8.6,13.6-14.2,28.7-15,40.1c-1.2,17,7.9,29.1,23.1,30.9c1.6,0.3,3.3,0.5,5.1,0.8c18.6,3.1,49.7,8.2,81.3,8.2c0,0,0,0,0,0
		c40.5,0,70.7-8.7,89.7-25.9c31-28,246.2-447.7,246.2-447.7C450.5,31.8,450.6,24.4,448,17.6z M32.2,473.5c0.4-3.5,2-10,6.4-18.5
		c4.9-9.5,10.2-15.9,12.9-18.2c6.9,0.2,17.9,2.1,29.5,4.1c0.2,0,0.5,0.1,0.7,0.1l-27.2,36c-7.3-1.1-13.8-2.1-19.2-3
		C34.2,473.9,33.2,473.7,32.2,473.5z M181.1,463.8c-13.3,12-36.7,18.1-69.5,18.1c0,0,0,0,0,0c-9.9,0-19.9-0.6-29.4-1.4l26.5-35
		c12.9,1.7,26.4,2.8,39.1,2.1c29.2-1.6,49.3-12.7,59.8-32.9l0-0.1c10.7-21.2,35.5-75,64.5-140.8C231.5,376.6,203,444.1,181.1,463.8z
		"/>
	<path class="st0" d="M74.7,269.8c-31.3,0-57,10.8-57,24.7c0,13.3,25.7,24.6,57,24.6c31.3,0,57-11.3,57-24.6
		C131.7,280.6,106,269.8,74.7,269.8z M74.4,314.9c-27.4,0-49.9-9.7-49.9-21.1c0-11.9,22.5-21.1,49.9-21.1c27.4,0,49.8,9.3,49.8,21.1
		C124.3,305.2,101.8,314.9,74.4,314.9z M74.4,274.7c-24.7,0-45,8.3-45,19.1c0,10.3,20.2,19.1,45,19.1c24.7,0,45-8.7,45-19.1
		C119.4,283.1,99.2,274.7,74.4,274.7z M74.7,320.7c-27.7,0-50.3-8.7-56-20c2,23.1,2,32.1,2.6,35.2c12.8,12.3,38,14.9,54.4,15.4
		c18,0,42.6-5.7,52.4-17.5c0.5-3.1,1-20.3,2.6-32.7C125,311.9,102.4,320.7,74.7,320.7z"/>
</g>
</svg>
