<?xml version="1.0" encoding="utf-8"?>
<!-- Generator: Adobe Illustrator 21.1.0, SVG Export Plug-In . SVG Version: 6.00 Build 0)  -->
<svg version="1.1" id="Layer_1" xmlns="http://www.w3.org/2000/svg" xmlns:xlink="http://www.w3.org/1999/xlink" x="0px" y="0px"
	 viewBox="0 0 524.3 512" style="enable-background:new 0 0 524.3 512;" xml:space="preserve">
<g>
	<path d="M350.5,281.1L350.5,281.1c-12.4-12.3-28.8-19.1-46.1-19.1c-16.3,0-31.7,6-43.8,16.9c-12-10.9-27.5-16.9-43.8-16.9
		c-17.4,0-33.7,6.8-46.1,19.1c-12.3,12.3-19.1,28.7-19.1,46.1s6.8,33.8,19.1,46.1l89.9,89.9l88.6-88.7l10.6-13.2l0.7-1.1
		C375.6,334.6,371.4,302.1,350.5,281.1z M200.9,365c-14.1-13.4-21.9-20.8-21.9-37.2c0-21.9,16.5-38.4,38.4-38.4
		c13.8,0,19.4,5,24.8,9.8c4.8,4.2,9.7,8.6,18.8,8.6c8.9,0,13.4-4.2,17.8-8.3c5.3-5,10.8-10.1,27-10.1c17.7,0,36.6,15.5,36.6,38.5
		c0,14.9-5.5,20.5-19,34c-2.7,2.7-5.7,5.7-8.9,9c-21,21.8-45.5,45.6-53.6,53.5c-7.5-7.4-28.7-28.6-49.1-49.1
		C207.8,371.5,204.1,368.1,200.9,365z"/>
	<path d="M455.6,511.1H68V270l168.5-167.5c24.5-24.6,24.9-24.5,49.4,0L455.6,270V511.1z M501.4,269c0,0-230.5-226.5-232.1-228.2
		c-7.8-7.8-7.8-7.9-15.9,0C251.8,42.3,22.1,270,22.1,270l-22.8-21.7c0,0,42-42,91.5-91.4V73.2l22.2-8.4l22.3,8.4v39.2
		C177,70.8,217.1,30.9,236.5,11.9c6.6-7.3,14.8-11,24.4-11c10.3,0,18.6,3.7,25,11C335.8,61,523.6,248.3,523.6,248.3L501.4,269z
		 M244.9,138.8L100.8,283l-0.2,196.8l322.1-0.5V283L277.9,138.8C261.6,122.5,261.1,122.6,244.9,138.8z"/>
</g>
</svg>
