<?xml version="1.0" encoding="utf-8"?>
<!-- Generator: Adobe Illustrator 21.1.0, SVG Export Plug-In . SVG Version: 6.00 Build 0)  -->
<svg version="1.1" id="Layer_1" xmlns="http://www.w3.org/2000/svg" xmlns:xlink="http://www.w3.org/1999/xlink" x="0px" y="0px"
	 viewBox="0 0 524.3 512" style="enable-background:new 0 0 524.3 512;" xml:space="preserve">
<g id="_x33_2">
	<path d="M523.6,248.3L501.4,269c0,0-230.5-226.5-232.1-228.2c-7.8-7.8-7.8-7.9-15.9,0C251.8,42.3,22.1,270,22.1,270l-22.8-21.7
		c0,0,42-42,91.5-91.4V73.2l22.2-8.4l22.3,8.4v39.2C177,70.8,217.1,30.9,236.5,11.9c6.6-7.3,14.8-11,24.4-11c10.3,0,18.6,3.7,25,11
		C335.8,61,523.6,248.3,523.6,248.3z"/>
	<path d="M285.9,102.5c-24.5-24.5-24.9-24.6-49.4,0L68,270v241.1h155.4V383.6h72.7v127.5h159.5V270L285.9,102.5z M422.7,479.3H328
		c0,0,0-77.3,0-111.5c0-8.8-7.1-16-15.9-16H207.5c-8.9,0-16,7.2-16,13.9c0,33.2,0,114.1,0,114.1h-90.9l0.2-196.8l144.1-144.2
		c16.2-16.2,16.7-16.3,33,0L422.7,283V479.3z"/>
	<circle cx="260.6" cy="252.2" r="35.9"/>
</g>
</svg>
