<?xml version="1.0" encoding="utf-8"?>
<!-- Generator: Adobe Illustrator 21.1.0, SVG Export Plug-In . SVG Version: 6.00 Build 0)  -->
<svg version="1.1" id="Layer_1" xmlns="http://www.w3.org/2000/svg" xmlns:xlink="http://www.w3.org/1999/xlink" x="0px" y="0px"
	 viewBox="0 0 562 512" style="enable-background:new 0 0 562 512;" xml:space="preserve">
<g id="_x33_2_1_">
	<path d="M265.2,32.7v29.1h106.2v103.4h158.4v314.6h-19.3v-82.2H392v82.2H33v-418h25V32.7H265.2 M109.4,129.1h36v36h33.4v-36h36
		V95.7h-36v-36h-33.4v36h-36V129.1 M299.3,128.9h44.8V84.1h-44.8V128.9 M299.3,193.4h44.8v-44.8h-44.8V193.4 M177.5,264.5h68.3
		v-58.9h-68.3V264.5 M72.8,264.5h68.3v-58.9H72.8V264.5 M299.3,257.9h44.8v-44.8h-44.8V257.9 M299.3,322.4h44.8v-44.8h-44.8V322.4
		 M177.5,357.6h68.3v-58.9h-68.3V357.6 M72.8,357.7h68.3v-58.9H72.8V357.7 M299.3,386.9h44.8v-44.8h-44.8V386.9 M177.5,450.9h68.3
		v-58.9h-68.3V450.9 M72.8,450.9h68.3v-58.9H72.8V450.9 M299.3,451.4h44.8v-44.8h-44.8V451.4 M297.2,0.7h-32H58H26v29.1H1v32v418v32
		h32h359h32v-32v-50.2h54.6v50.2v32h32h19.3h32v-32V165.2v-32h-32H403.4V61.7v-32h-32h-74.2V0.7L297.2,0.7z"/>
	<g>
		<polygon points="482.8,262 461.1,262 461.1,283.6 440.5,283.6 440.5,262 418.9,262 418.9,241.4 440.5,241.4 440.5,219.7 
			461.1,219.7 461.1,241.4 482.8,241.4 		"/>
	</g>
	<path d="M451.7,188.1c-36,0-65.2,29.1-65.2,65.2c0,36.1,29.2,65.3,65.2,65.3s65.3-29.3,65.3-65.3S487.7,188.1,451.7,188.1z
		 M451.7,301.3c-26.5,0-47.9-21.5-47.9-48c0-26.5,21.5-47.9,47.9-47.9c26.5,0,48,21.5,48,47.9C499.7,279.8,478.2,301.3,451.7,301.3z
		"/>
</g>
</svg>
