<?xml version="1.0" encoding="utf-8"?>
<!-- Generator: Adobe Illustrator 21.1.0, SVG Export Plug-In . SVG Version: 6.00 Build 0)  -->
<svg version="1.1" id="Layer_1" xmlns="http://www.w3.org/2000/svg" xmlns:xlink="http://www.w3.org/1999/xlink" x="0px" y="0px"
	 viewBox="0 0 512 512" style="enable-background:new 0 0 512 512;" xml:space="preserve">
<g>
	<path d="M375,233.4l-6.3,135.2l-1,20.1l-1.9,7c-4.7,17.6-16.7,32.8-32.7,41.8H74.5c-9.1-5-16.9-12.1-22.9-20.7
		c-7.3-10.5-11.5-22.8-12.1-35.7l-6.8-147.7H375 M390.6,201.4H17.1c-4.7,0-9,1.9-12.3,5.3c-3.3,3.4-4.9,7.9-4.7,12.5l7.5,163.4
		c1.8,39,25.8,72,59.5,86.9h0.5V512h273v-42.5h0.1c27.2-12.1,48.2-36,56.1-65.5h45.9c38.2,0,69.3-31.1,69.3-69.3
		c-0.1-38.2-31.2-69.3-69.4-69.3h-36.9l1.9-46.2c0.2-4.7-1.5-9.2-4.7-12.5C399.6,203.3,395.3,201.4,390.6,201.4L390.6,201.4z
		 M400.7,370.1l3.4-70.8c0.2,0,0.5,0,0.7,0h37.8c19.5,0,35.4,15.9,35.4,35.4c-0.1,19.5-15.9,35.4-35.4,35.4H400.7L400.7,370.1z"/>
	<path d="M184.5,175.1c-5.1,8.4-17.1,9-23.1,1.2l-0.2-0.3c-3.5-4.6-3.8-10.9-0.8-15.9c3.2-5.3,6.5-13.6,6.5-25.3
		c0-9.5-7.1-19.7-14.6-30.5c-9.8-14.2-21-30.2-21-50.7c0-21.5,5.4-36.6,11-46.6c4.8-8.5,16.8-9.5,22.9-1.9c0.2,0.2,0.3,0.4,0.5,0.6
		c3.6,4.5,4,10.6,1.3,15.6c-3.4,6.2-7.2,16.5-7.2,32.2c0,11.6,7.7,22.7,15.9,34.5c9.2,13.3,19.7,28.4,19.7,46.8
		C195.3,152.7,190,166,184.5,175.1z M259.1,175.1c-5.1,8.4-17.1,9-23.1,1.2l-0.2-0.3c-3.5-4.6-3.8-10.9-0.8-15.9
		c3.2-5.3,6.5-13.6,6.5-25.3c0-9.5-7.1-19.7-14.6-30.5c-9.8-14.2-21-30.2-21-50.7c0-21.5,5.4-36.6,11-46.6
		c4.8-8.5,16.8-9.5,22.9-1.9c0.2,0.2,0.3,0.4,0.5,0.6c3.6,4.5,4,10.6,1.3,15.6c-3.4,6.2-7.2,16.5-7.2,32.2
		c0,11.6,7.7,22.7,15.9,34.5c9.2,13.3,19.7,28.4,19.7,46.8C269.9,152.7,264.7,166,259.1,175.1z"/>
</g>
</svg>
