<?xml version="1.0" encoding="utf-8"?>
<!-- Generator: Adobe Illustrator 21.1.0, SVG Export Plug-In . SVG Version: 6.00 Build 0)  -->
<svg version="1.1" id="Layer_1" xmlns="http://www.w3.org/2000/svg" xmlns:xlink="http://www.w3.org/1999/xlink" x="0px" y="0px"
	 viewBox="0 0 513.2 512" style="enable-background:new 0 0 513.2 512;" xml:space="preserve">
<style type="text/css">
	.st0{fill:none;}
</style>
<g>
	<path class="st0" d="M300.1,35.7L198.9,67.6l-0.5,26.6l-1,49.7l0,0v336h283.4l-3.9-298.3L300.1,35.7z M391.3,135.5l33.2,29.2
		l0,30.6L391.2,169L391.3,135.5z M256,462.3l-37.3-0.3l0.2-44.3l37.3-1.2L256,462.3z M304,462.7l-35.6-0.3l0.2-46.3l35.6-1.2
		L304,462.7z M304.2,391.3l-85.2,4.5l0.2-44.2l85.2-7.9L304.2,391.3z M304.5,320.2l-85.1,9.6l0.2-44.1l85.1-13L304.5,320.2z
		 M304.7,249l-85.1,14.7l0.2-44l85-18L304.7,249z M304.9,178l-85,16.4l0.2-36.6l84.9-19.2L304.9,178z M305.1,115l-84.9,18.7
		l0.2-36.5l84.8-21.4L305.1,115z M370,465.8l-47.6,0.6l0.2-48l47.5,4.4L370,465.8z M370.2,401.6l-47.5-7l0.2-47.8l47.4,11.9
		L370.2,401.6z M370.3,337.6l-47.4-14.4l0.2-47.8l47.3,19.4L370.3,337.6z M370.4,273.5l-47.3-21.8l0.2-47.6l47.3,26.7L370.4,273.5z
		 M370.6,209.6l-47.3-29.2l0.1-39.6l47.2,33.3V209.6z M370.7,152.9l-47.2-35.8l0.1-39.5l47.2,39.8L370.7,152.9z M424.2,465.2
		l-33.4,0.4l0.1-40.7l33.4,3.3L424.2,465.2z M424.3,409.9l-33.4-5l0.1-40.6l33.3,8.7V409.9z M424.3,354.6L391,344.2l0.1-40.5
		l33.3,14.2L424.3,354.6z M424.4,299.3L391,283.4l0.1-40.4l33.3,19.6V299.3z M424.4,244.2l-33.3-21.4l0.1-33.6l33.3,24.4
		L424.4,244.2z M465.2,464.7l-25.5,0.3v-35.4l25.5,2.5V464.7z M465.2,416.1l-25.5-3.9v-35.3l25.5,6.6V416.1z M439.8,359.5v-35.2
		l25.4,10.8l0.1,32.4L439.8,359.5z M465.2,318.9l-25.4-12.1v-35.1l25.4,14.9V318.9z M465.2,270.4l-25.4-16.3v-29.2l25.4,18.6V270.4z
		 M439.9,207.4v-29.2l25.3,22.3l0.1,26.9L439.9,207.4z"/>
	<path class="st0" d="M32.3,480h27.6h0l0.7-40.9c0.3-19.1,9.3-35,20.3-35.6c11.1-0.7,20.3,14.5,20.1,34l-0.3,42.5H132V114.3
		l-96.8,31.6L32.3,480z M90.1,175.8l29.7-12.1l-0.4,73.9l-29.7,9.4L90.1,175.8z M89.4,285.3l29.7-7.9l-0.3,74.3L89,356.8L89.4,285.3
		z M45,194.2l26.3-10.7L71,253l-26.3,8.3L45,194.2z M44.4,297.3l26.3-7l-0.4,69.8L44,364.7L44.4,297.3z"/>
	<polygon points="71.4,183.5 45,194.2 44.6,261.3 71,253 	"/>
	<polygon points="70.8,290.3 44.4,297.3 44,364.7 70.3,360.1 	"/>
	<polygon points="119.2,277.3 89.4,285.3 89,356.8 118.8,351.6 	"/>
	<polygon points="119.8,163.8 90.1,175.8 89.7,247.1 119.4,237.7 	"/>
	<polygon points="322.9,323.2 370.3,337.6 370.4,294.8 323,275.5 	"/>
	<polygon points="323.1,251.7 370.4,273.5 370.5,230.9 323.3,204.2 	"/>
	<polygon points="322.7,394.7 370.2,401.6 370.3,358.7 322.9,346.8 	"/>
	<polygon points="220.2,133.7 305.1,115 305.2,75.7 220.4,97.1 	"/>
	<polygon points="323.3,180.4 370.6,209.6 370.6,174.2 323.4,140.8 	"/>
	<polygon points="322.5,466.4 370,465.8 370.1,422.8 322.6,418.4 	"/>
	<polygon points="390.9,404.8 424.3,409.9 424.3,372.9 391,364.2 	"/>
	<polygon points="391,344.2 424.3,354.6 424.4,317.9 391,303.7 	"/>
	<polygon points="323.5,117.1 370.7,152.9 370.7,117.4 323.6,77.6 	"/>
	<polygon points="391,283.4 424.4,299.3 424.4,262.6 391.1,243 	"/>
	<polygon points="390.8,465.6 424.2,465.2 424.3,428.1 390.9,424.9 	"/>
	<polygon points="220,194.4 304.9,178 305,138.6 220.1,157.8 	"/>
	<polygon points="219.6,263.6 304.7,249 304.9,201.6 219.9,219.7 	"/>
	<polygon points="439.8,324.3 439.8,359.5 465.2,367.5 465.2,335.1 	"/>
	<polygon points="439.9,306.8 465.2,318.9 465.2,286.6 439.9,271.7 	"/>
	<polygon points="439.9,178.3 439.9,207.4 465.2,227.4 465.2,200.5 	"/>
	<polygon points="439.7,465 465.2,464.7 465.2,432.2 439.7,429.6 	"/>
	<polygon points="391.2,222.8 424.4,244.2 424.5,213.6 391.3,189.2 	"/>
	<polygon points="439.9,254.1 465.2,270.4 465.2,243.4 439.9,224.8 	"/>
	<polygon points="439.7,412.2 465.2,416.1 465.2,383.6 439.7,376.9 	"/>
	<polygon points="219,395.9 304.2,391.3 304.5,343.7 219.2,351.6 	"/>
	<polygon points="219.3,329.8 304.5,320.2 304.6,272.7 219.6,285.7 	"/>
	<polygon points="218.6,462.1 256,462.3 256.2,416.6 218.9,417.7 	"/>
	<polygon points="424.4,164.7 391.3,135.5 391.2,169 424.4,195.3 	"/>
	<polygon points="268.4,462.4 304,462.7 304.2,415 268.6,416.1 	"/>
	<path d="M508.7,166.5L307.1,0L167.4,44l-1,49.6l-30-14.4l-133,43.4L0,512h513.2L508.7,166.5z M132,480h-31.3l0.3-42.5
		c0.1-19.5-9-34.6-20.1-34c-11,0.7-20.1,16.6-20.3,35.6L59.9,480h0H32.3l2.9-334.1l96.8-31.6V480z M197.4,480V144l0,0l1-49.7
		l0.5-26.6l101.2-31.9l176.8,146l3.9,298.3H197.4z"/>
</g>
</svg>
