<?xml version="1.0" encoding="utf-8"?>
<!-- Generator: Adobe Illustrator 21.1.0, SVG Export Plug-In . SVG Version: 6.00 Build 0)  -->
<svg version="1.1" id="Layer_1" xmlns="http://www.w3.org/2000/svg" xmlns:xlink="http://www.w3.org/1999/xlink" x="0px" y="0px"
	 viewBox="0 0 458.9 512" style="enable-background:new 0 0 458.9 512;" xml:space="preserve">
<g id="_x33_2">
	<path d="M231.6,358.4L231.6,358.4c-2.1,0-3.8-1.7-3.8-3.8v-24h7.6v24C235.3,356.7,233.7,358.4,231.6,358.4z M235.3,316.1h-7.6
		v-27.8h7.6V316.1z M235.3,273.7h-7.6v-27.8h7.6V273.7z M236.6,212c0,26-10.9,25.7-10.9,0c0-24.3-41.1-36.6-41.1-67.8
		c0-14.3,7.4-24.5,10.1-27.8l71.7,0c2.7,3.3,10.2,13.7,10.2,27.8C276.6,174.1,236.6,187.5,236.6,212z"/>
	<path d="M454.6,40.6c2.4,0,4.3-1.9,4.3-4.3v-32c0-2.4-1.9-4.3-4.3-4.3H4.3C1.9,0,0,1.9,0,4.2v32c0,2.4,1.9,4.3,4.3,4.3H32v430.3
		H4.3c-2.4,0-4.3,1.9-4.3,4.3v32c0,2.4,1.9,4.3,4.3,4.3h450.2c2.4,0,4.3-1.9,4.3-4.3v-32c0-2.4-1.9-4.3-4.3-4.3v0.1h-27.6V40.6
		H454.6z M154.8,88.5l16.6-20.1h118l16.7,20.2c2,2.5,12.2,15.6,12.2,32.9c0,15.7-12,29-31.9,49.1c-21,21.2-44.7,45.3-44.7,80.9
		c0,36.3,23.8,60.9,42.8,80.6c19.6,20.3,31.7,33.8,31.7,53.6c0,20-7.7,35.9-11.1,41.7l-4.2,7.4c-18.1-7.2-42.7-18-62.1-30.2
		c-5.1-3.2-11.2-2.6-16,1.4c-21.5,18-44.6,27.9-60.3,33.1l-6.7-11.8c-4.1-7.2-11-22.3-11-41.7c0-22.2,12.6-35.7,33.2-55.8
		c19.3-18.8,43.4-42.2,43.4-78.5c0-35.4-24.1-58.8-45.4-79.4c-20.8-20.1-33.4-33.5-33.4-50.6C142.7,104.4,151.9,91.9,154.8,88.5z
		 M102.2,451.6v19.2H70.3V40.5h31.9v19.1c0,2.3,0.5,8.5,8.5,8.5h19.4c-0.1,0.1-0.1,0.2-0.2,0.2c-5.3,6.5-19.2,26-19.2,53.1
		c0,59.9,78.8,83.4,78.8,130c0,49.4-76.6,66-76.6,134.2c0,26.9,9.5,47.6,15.1,57.5h-17.3C102.3,443.1,102.2,449.2,102.2,451.6z
		 M388.6,470.9h-31.9v-19.2c0-2.3-0.5-8.5-8.5-8.5H333c5.6-9.9,15.2-30.9,15.2-57.5c0-63.6-74.5-84.4-74.5-134.2
		c0-47.1,76.6-72.8,76.6-130c0-26.9-14.1-46.7-19.4-53.2c0,0-0.1-0.1-0.1-0.1h17.3c8.4,0,8.5-6.1,8.5-8.5V40.5h32V470.9z"/>
</g>
</svg>
