<?xml version="1.0" encoding="utf-8"?>
<!-- Generator: Adobe Illustrator 21.1.0, SVG Export Plug-In . SVG Version: 6.00 Build 0)  -->
<svg version="1.1" id="Layer_1" xmlns="http://www.w3.org/2000/svg" xmlns:xlink="http://www.w3.org/1999/xlink" x="0px" y="0px"
	 viewBox="0 0 512 512" style="enable-background:new 0 0 512 512;" xml:space="preserve">
<style type="text/css">
	.st0{fill-rule:evenodd;clip-rule:evenodd;}
</style>
<g id="_x33_2">
	<path class="st0" d="M132.6,257.8v3.7h7.4v-3.7H132.6z"/>
	<path class="st0" d="M154.7,257.8v3.7h-7.4v-3.7H154.7z"/>
	<path class="st0" d="M169.4,257.8v3.7h-7.4v-3.7H169.4z"/>
	<path class="st0" d="M184.2,257.8v3.7h-7.4v-3.7H184.2z"/>
	<path class="st0" d="M195.4,260.5c-0.9-0.9-1.8-1.8-2.8-2.6h-1v3.7h4.8C196,261.2,195.7,260.8,195.4,260.5z"/>
	<path class="st0" d="M328.7,257.8l-3.6,3.7h6.4v-3.7H328.7z"/>
	<path class="st0" d="M346.2,257.8v3.7h-7.4v-3.7H346.2z"/>
	<path class="st0" d="M361,257.8v3.7h-7.4v-3.7H361z"/>
	<path class="st0" d="M375.7,257.8v3.7h-7.4v-3.7H375.7z"/>
	<path class="st0" d="M257.8,143.7h-3.7v-7.4h3.7V143.7z"/>
	<path class="st0" d="M257.8,158.4h-3.7V151h3.7V158.4z"/>
	<path class="st0" d="M257.8,165.8v5.9c-1.3-1.7-2.5-3.4-3.7-5v-0.9H257.8z"/>
	<path class="st0" d="M257.8,349.9h-3.7v-7.4h3.7V349.9z"/>
	<rect x="254.2" y="357.3" width="3.7" height="7.4"/>
	<path class="st0" d="M256,0C114.6,0,0,114.6,0,256s114.6,256,256,256c141.4,0,256-114.6,256-256S397.4,0,256,0z M268.9,485.7v-51
		h-7.4v-55.3h-3.7V372h-3.7v7.4h-3.7v55.3h-7.4v51C128.4,479.2,36.5,387.3,30,272.6h47.3v-7.4h55.2v-11.1H77.4v-7.4H30
		c6.5-114.7,98.3-206.6,213.1-213V81h7.4v51.6h11.1V81h7.4V33.8c114.7,6.4,206.6,98.3,213.1,213h-51v7.4h-51.6v11.1H431v7.4h51
		C475.5,387.3,383.6,479.2,268.9,485.7z"/>
	<path class="st0" d="M393.9,209.7c-4.5-7-12.5-12.1-20.2-11.4c-7.2,0.7-19.3,8.1-32.7,11.8c-16,4.4-36.9,5.7-53.5,11.8
		c-1.7,0.6-3.9-10.4-11.9-23.7c-5.2-8.6-11.8-18.3-17.8-26.7v1.4h-3.7v-6.4c-7.1-9.5-13-16.2-14.2-15.7
		c-1.7,0.7-28.3,21.4-23.8,35.5c5.2,16.1,26,31.3,38,39.7v-1.5h3.7v4.1c3.4,2.4,5.3,3.8,4.8,4.1c-3.3,1.6-6.2,3-8.7,4.2
		c-3.6,1.7-47.5-71.1-144.8-50.5c-9.8,2.1,12.2,28.4,38.6,47.3c15.5,11.1,33.5,14.5,44.8,24h6.4v3.7h-2.6c6.7,7.8,7.4,18.3,6.4,22.7
		c-0.9,4-49,43.5-49,47.3c0,7.8,7.3,11.9,17.9,13.7c8,1.4,20.2-7.9,29.7-4.8c3.4,1.1,13.5,6.2,20.8,5.9c9.8-0.4,18.7-2.1,23.8-3
		c54.8-9.7,53.6-53.1,79.3-81.8h-1v-3.7h4.6c12.4-12.3,23.3-20.3,30.2-18.1c1.8,0.6,16.9,2.9,23.8,0c6.1-2.6,10-6,12.3-9.7
		c2.2-3.6,32.8-7.2,32.3-11C426.9,215.8,395.7,212.5,393.9,209.7z M257.8,217.3h-3.7V210h3.7V217.3z M257.8,202.6h-3.7v-7.4h3.7
		V202.6z M257.8,187.9h-3.7v-7.4h3.7V187.9z M213.6,261.5h-7.4v-3.7h7.4V261.5z M228.4,261.5H221v-3.7h7.4V261.5z M243.1,261.5h-7.4
		v-3.7h7.4V261.5z M257.8,335.2h-3.7v-7.4h3.7V335.2z M257.8,320.5h-3.7v-7.4h3.7V320.5z M257.8,305.7h-3.7v-7.4h3.7V305.7z
		 M257.8,291h-3.7v-7.4h3.7V291z M257.8,276.3h-3.7v-7.4h3.7V276.3z M257.8,261.5h-7.4v-3.7h3.7v-3.7h3.7V261.5z M257.8,246.8h-3.7
		v-7.4h3.7V246.8z M272.6,261.5h-7.4v-3.7h7.4V261.5z M287.3,261.5h-7.4v-3.7h7.4V261.5z M302,261.5h-7.4v-3.7h7.4V261.5z
		 M316.8,261.5h-7.4v-3.7h7.4V261.5z"/>
</g>
</svg>
