<?xml version="1.0" encoding="utf-8"?>
<!-- Generator: Adobe Illustrator 21.1.0, SVG Export Plug-In . SVG Version: 6.00 Build 0)  -->
<svg version="1.1" id="Layer_1" xmlns="http://www.w3.org/2000/svg" xmlns:xlink="http://www.w3.org/1999/xlink" x="0px" y="0px"
	 viewBox="0 0 512 512" style="enable-background:new 0 0 512 512;" xml:space="preserve">
<g id="_x33_2">
	<path d="M466,138.8h-60.9L372.8,33.2C366.7,13,348.1,0,328,0c-4.5,0-9.2,0.7-13.7,2.1l-281,86C8.6,95.6-5.3,121.8,2.2,146.6
		L84,413.7c5.7,18.7,22.1,31.3,40.5,33V466c0,25.4,20.6,46,46,46H466c25.4,0,46-20.6,46-46V184.8C512,159.4,491.4,138.8,466,138.8z
		 M124.4,184.8v229.4c-4.6-1.4-8.4-5.1-9.9-9.9L32.8,137.2c-1.6-5.1,0-9.3,1.1-11.3c1.1-2,3.7-5.7,8.8-7.2l281-86
		c1.4-0.4,2.9-0.7,4.4-0.7c6.5,0,12.3,4.3,14.2,10.5l29.5,96.3H170.4C145,138.8,124.4,159.4,124.4,184.8z M178,170.8l203.4-0.2
		l33.5,0l43,0c12,0,21.8,9.8,21.8,21.8l0.1,211.4l-48.4-48.1L414,338.4l-35.4,34.2l-35,33.8l-18.3-17.5l-26.6-25.3l-77.4-73.8
		l-64.9,65.2l0-162.5C156.3,180.6,166,170.8,178,170.8z M480,458.2c0,12-9.8,21.8-21.8,21.8H178c-12,0-21.8-9.8-21.8-21.8V400
		l63.6-63.9l40.9,39.1l26.5,25.4l57.5,55l71.7-69.8L480,449V458.2z"/>
	<path d="M342.2,243.2c12.2,0,22.1,9.9,22.1,22.1c0,12.2-9.9,22.1-22.1,22.1c-12.2,0-22.1-9.9-22.1-22.1
		C320.1,253.1,330,243.2,342.2,243.2L342.2,243.2z M342.2,219c-25.6,0-46.3,20.7-46.3,46.3s20.7,46.3,46.3,46.3
		c25.6,0,46.3-20.7,46.3-46.3S367.7,219,342.2,219L342.2,219z"/>
</g>
</svg>
