<?xml version="1.0" encoding="utf-8"?>
<!-- Generator: Adobe Illustrator 21.1.0, SVG Export Plug-In . SVG Version: 6.00 Build 0)  -->
<svg version="1.1" id="Layer_1" xmlns="http://www.w3.org/2000/svg" xmlns:xlink="http://www.w3.org/1999/xlink" x="0px" y="0px"
	 viewBox="0 0 550 512" style="enable-background:new 0 0 550 512;" xml:space="preserve">
<path d="M373.1,46.2c18.3,0,35.7,11,46.5,29.3l0.6,0.9l0.6,0.9l63,92.1h-15.7c-93.7,0-108.4,71.1-115.5,105.4
	c-0.5,2.3-1,4.9-1.6,7.5H198.7c-0.6-2.5-1-4.9-1.5-7.2C190.3,240.8,176,169.3,79,169.3l0,0h-0.2H66.2l62.9-92l0.6-0.9l0.6-0.9
	c10.8-18.4,28.2-29.4,46.5-29.4L373.1,46.2 M519.8,281.9v148.5c0,20.2-16.9,36.7-37.7,36.7H67.9c-20.8,0-37.7-16.4-37.7-36.7V281.9
	h48.8c2,0,3.1,0.2,3.7,0.4c0.4,0.7,1.1,2.4,2,5.7c1.2,4.8,2,11,2.6,16.9c1,9,2.2,18.2,5.3,26.8c17.1,50.5,63.8,63.9,86.1,63.9H371
	c22.4,0,69.2-13.4,86.2-64c3-8.6,4.2-17.9,5.2-26.7c0.8-6,1.4-12,2.6-16.9c0.9-3.3,1.6-4.9,2-5.7c0.6-0.2,1.7-0.4,3.8-0.4H519.8
	 M373.1,16H176.8c-29,0-56.4,16.7-72.6,44.3L9,199.8l69.9-0.1H79c110.6,0,74.4,112.9,105.8,112.9h180.4
	c30.3,0-3.1-112.8,102.9-112.8H541L445.7,60.3C429.5,32.6,402.1,16,373.1,16L373.1,16z M550,251.6h-79.2c-43.7,0-34.5,48.6-42.2,70
	c-13.7,41.4-54.1,43.6-57.5,43.6H178.8c-3.4,0-43.7-2.3-57.5-43.6c-7.7-21.4,1.4-70-42.1-70H0v178.8c0,36.7,30,66.9,67.9,66.9h414.1
	c37.8,0,67.9-30.2,67.9-66.9V251.6L550,251.6z"/>
</svg>
