<?xml version="1.0" encoding="utf-8"?>
<!-- Generator: Adobe Illustrator 21.1.0, SVG Export Plug-In . SVG Version: 6.00 Build 0)  -->
<svg version="1.1" id="Layer_1" xmlns="http://www.w3.org/2000/svg" xmlns:xlink="http://www.w3.org/1999/xlink" x="0px" y="0px"
	 viewBox="0 0 550 512" style="enable-background:new 0 0 550 512;" xml:space="preserve">
<g id="_x33_2">
	<path d="M79,287.7c110.6,0,74.4,85.1,105.8,85.1h180.4c30.3,0-3.1-85,102.9-85H541l-95.3-105.2c-16.2-20.9-43.6-33.4-72.6-33.4V172
		c18.3,0,35.7,8.3,46.5,22.1l0.6,0.7l0.6,0.7l63,69.4h-15.7c-93.7,0-108.4,53.6-115.5,79.4c-0.5,1.7-1,3.7-1.6,5.7H198.8
		c-0.6-1.9-1-3.7-1.5-5.4c-6.9-25.8-21.2-79.7-118.2-79.7H66.3l62.9-69.3l0.6-0.7l0.6-0.7c10.8-13.9,28.2-22.2,46.5-22.2v-22.7
		c-29,0-56.4,12.6-72.6,33.4L9,287.8L79,287.7L79,287.7z"/>
	<path d="M470.8,326.8c-43.7,0-34.5,36.6-42.2,52.8c-13.7,31.2-54.1,32.9-57.5,32.9H178.8c-3.4,0-43.7-1.7-57.5-32.9
		c-7.7-16.1,1.4-52.8-42.1-52.8H0v134.8C0,489.2,30,512,68,512H482c37.8,0,67.9-22.8,67.9-50.4V326.8H470.8z M519.8,461.6
		c0,15.2-16.9,27.7-37.7,27.7H68c-20.8,0-37.7-12.4-37.7-27.7V349.6H79c2,0,3.1,0.2,3.7,0.3c0.4,0.5,1.1,1.8,2,4.3
		c1.2,3.6,2,8.3,2.6,12.7c1,6.8,2.2,13.7,5.3,20.2c17.1,38.1,63.8,48.2,86.1,48.2H371c22.4,0,69.2-10.1,86.2-48.2
		c3-6.5,4.2-13.5,5.2-20.1c0.8-4.5,1.4-9,2.6-12.7c0.9-2.5,1.6-3.7,2-4.3c0.6-0.1,1.7-0.3,3.8-0.3h49V461.6z"/>
	<path d="M286.4,0.5h-22.9v186.4l-66.9-62.6v23.9l0.4,4.3c0.4,3.1,1.6,5.5,3.7,7.3l74.4,68.5l73.1-70l3.3-4.3c0.9-2,1.4-3.8,1.4-5.3
		v-26.4l-66.3,64.5V0.5z"/>
</g>
</svg>
