<?xml version="1.0" encoding="utf-8"?>
<!-- Generator: Adobe Illustrator 21.1.0, SVG Export Plug-In . SVG Version: 6.00 Build 0)  -->
<svg version="1.1" id="Layer_1" xmlns="http://www.w3.org/2000/svg" xmlns:xlink="http://www.w3.org/1999/xlink" x="0px" y="0px"
	 viewBox="0 0 512 512" style="enable-background:new 0 0 512 512;" xml:space="preserve">
<g>
	<g>
		<rect x="283" y="346.8" width="49.8" height="49.8"/>
	</g>
	<g>
		<polygon points="283.3,463 332.9,463 333.1,413.3 283.3,413.3 		"/>
	</g>
	<g>
		<rect x="349.2" y="413.3" width="49.8" height="49.6"/>
	</g>
	<g>
		<polygon points="349.2,346.8 349.2,396.4 399,396.4 399.1,346.8 		"/>
	</g>
	<g>
		<rect x="59" y="390.3" width="56.7" height="56.7"/>
	</g>
	<g>
		<rect x="138.3" y="311" width="56.7" height="56.7"/>
	</g>
	<g>
		<rect x="138.3" y="390.3" width="56.7" height="56.7"/>
	</g>
	<g>
		<rect x="59" y="311" width="56.7" height="56.7"/>
	</g>
	<path d="M480,208.8V480H32V281h193.1v47h32h193V208.8c4.7,0.4,9.7,0.6,14.8,0.6C470.1,209.4,475.2,209.2,480,208.8 M354.2,0
		c-92.9,0-94.7,68.5-188.3,68.5c-31.1,0-55.4-2.6-93.9-35.5c0,36.8,20.1,98.5,93.9,98.5c98,0,93.6-68.5,188.3-68.5
		c31.5,0,57.2,2.1,93.4,35.5C447.6,76.5,435.6,0,354.2,0L354.2,0z M465.1,151c-31.3,0-47,4.5-47,13.5V296h-161v-47H0v263h512V164.5
		C512,155.5,496.4,151,465.1,151L465.1,151z M464.9,177.4c-20.5,0-37-3.8-37-8.4c0-4.6,16.6-8.4,37-8.4c20.5,0,37,3.8,37,8.4
		C502,173.6,485.4,177.4,464.9,177.4L464.9,177.4z"/>
</g>
</svg>
