<?xml version="1.0" encoding="utf-8"?>
<!-- Generator: Adobe Illustrator 22.0.1, SVG Export Plug-In . SVG Version: 6.00 Build 0)  -->
<svg version="1.1" id="Layer_1" xmlns="http://www.w3.org/2000/svg" xmlns:xlink="http://www.w3.org/1999/xlink" x="0px" y="0px"
	 viewBox="0 0 512 512" style="enable-background:new 0 0 512 512;" xml:space="preserve">
<g id="XMLID_1_">
	<path d="M462,0.5H50c-27.6,0-50,22.4-50,50v412c0,27.6,22.4,50,50,50h412c27.6,0,50-22.4,50-50v-412C512,22.9,489.6,0.5,462,0.5z
		 M480,462.5c0,9.9-8,18-18,18c-2.4,0-410.6,0-412,0c-10,0-18-8.1-18-18c0-0.6,0-389,0-412c0-10,8-18,18-18c0.1,0,42.9,0,43,0
		c7.9-0.7,367.6,0,369,0c10,0,18,8,18,18C480,51.8,480,460.5,480,462.5z"/>
	<path id="XMLID_2_" d="M273.5,384.7c0,2.9-2.3,5.2-5.2,5.2h-22.5c-2.9,0-5.2-2.3-5.2-5.2V204.4h32.9V384.7z"/>
	<circle cx="257" cy="152.1" r="26.4"/>
</g>
</svg>
