<?xml version="1.0" encoding="utf-8"?>
<!-- Generator: Adobe Illustrator 22.0.1, SVG Export Plug-In . SVG Version: 6.00 Build 0)  -->
<svg version="1.1" id="Layer_1" xmlns="http://www.w3.org/2000/svg" xmlns:xlink="http://www.w3.org/1999/xlink" x="0px" y="0px"
	 viewBox="0 0 254.3 512" style="enable-background:new 0 0 254.3 512;" xml:space="preserve">
<style type="text/css">
	.st0{fill:#010101;}
</style>
<g>
	<path d="M199.5,385.8H56.2V240h143.3V385.8z M71.2,370.8h113.3V255H71.2V370.8z"/>
	<path class="st0" d="M158,324.3h-18.8V343c0,6.3-5.1,11.4-11.9,11.4c-6.3,0-11.4-5.1-11.4-11.4v-18.8H97.1
		c-6.3,0-11.9-5.1-11.9-11.9c0-6.3,5.1-11.9,11.9-11.9h18.8v-18.8c0-6.3,5.1-11.9,11.4-11.9c6.3,0,11.9,5.1,11.9,11.9v19.3H158
		c6.3,0,11.9,5.1,11.9,11.9C169.9,319.1,164.8,324.3,158,324.3z"/>
	<path class="st0" d="M235.3,145.9l-45.1-45.7c-3.4-3.4-5.3-8-5.3-12.8V60h25.2V12.9c0-7.1-5.8-12.9-12.9-12.9H56.8
		c-7.1,0-12.9,5.8-12.9,12.9V60h25.2v26.8c0,4.8-1.9,9.4-5.3,12.8l-45.1,45.7C7.1,157.5,0,173.7,0,190.5v295.7
		C0,500.4,11.6,512,25.8,512h202.4c14.2,0,25.8-11.6,25.8-25.8V191.1C254,174.3,247.6,158.2,235.3,145.9z M222,480H32V190.5
		c0-8,3.5-16.3,9.8-23l44.8-45.4c8.1-8.2,13-18.7,14.2-30.1V61h52.3v31c1,11.6,6,22.3,14.3,30.7l45.1,45.7l0.1,0.1l0.1,0.1
		c6,6,9.3,14,9.3,22.6V480z"/>
</g>
</svg>
