<?xml version="1.0" encoding="utf-8"?>
<!-- Generator: Adobe Illustrator 22.0.1, SVG Export Plug-In . SVG Version: 6.00 Build 0)  -->
<svg version="1.1" id="Layer_1" xmlns="http://www.w3.org/2000/svg" xmlns:xlink="http://www.w3.org/1999/xlink" x="0px" y="0px"
	 viewBox="0 0 430.6 512" style="enable-background:new 0 0 430.6 512;" xml:space="preserve">
<style type="text/css">
	.st0{fill:#010101;}
</style>
<g>
	<path class="st0" d="M65.7,106.5l48.5-37L92.3,40.8L114.4,24c5.9-4.5,7.1-13,2.5-18.9c-4.5-5.9-13-7.1-18.9-2.5L5.3,73.2
		c-5.9,4.5-7.1,13-2.5,18.9c4.5,5.9,13,7.1,18.9,2.5l22.1-16.9L65.7,106.5z"/>
	<path class="st0" d="M350.4,406.6l9.6-7.3c3.9-2.9,4.6-8.4,1.7-12.3l-14.6-19.3l10.1-7.7c6.6-5,7.9-14.4,2.8-21l-38.2-50.1
		l-20.3,15.5c-0.8,0.6-1.7,0.9-2.6,0.8c-1.1-0.1-2.2-0.6-3-1.6c-1.4-1.8-1-4.3,0.8-5.7l20.2-15.4l-20.2-26.5l-20.3,15.5
		c-0.8,0.6-1.7,0.9-2.6,0.8c-1.1-0.1-2.2-0.6-3-1.6c-1.4-1.8-1-4.3,0.8-5.6l20.2-15.4l-20.3-26.6l-20.2,15.4
		c-0.8,0.6-1.8,0.9-2.6,0.8c-1.1-0.1-2.2-0.6-3-1.6c-1.4-1.8-1-4.3,0.8-5.6l20.2-15.4l-20.3-26.6l-20.2,15.4
		c-0.8,0.7-1.8,0.9-2.6,0.8c-1.1-0.1-2.2-0.6-3-1.6c-1.4-1.8-1-4.3,0.8-5.6l20.1-15.3l-78-102.3L138,100.7l-6.3-8.3l42.5-32.4
		c5-3.8,6-11.1,2.2-16.1l0,0c-3.8-5-11.1-6-16.1-2.2L26.7,143.6c-5,3.8-6,11.1-2.2,16.1l0,0c3.8,5,11.1,6,16.1,2.2l42.5-32.4
		l6.3,8.3l-25.4,19.4l196.5,257.7c5,6.6,14.4,7.9,21,2.8l10.1-7.7l14.6,19.3c2.9,3.9,8.5,4.6,12.3,1.7l10.2-7.8l51.6,67.1
		c6.5,8.5,15.9,14.4,26.3,16.7l23.8,5.2L350.4,406.6z M275.7,381.8L108.9,163.2l48.6-37l166.8,218.7L275.7,381.8z"/>
</g>
</svg>
