<?xml version="1.0" encoding="utf-8"?>
<!-- Generator: Adobe Illustrator 21.1.0, SVG Export Plug-In . SVG Version: 6.00 Build 0)  -->
<svg version="1.1" id="Layer_1" focusable="false" xmlns="http://www.w3.org/2000/svg" xmlns:xlink="http://www.w3.org/1999/xlink"
	 x="0px" y="0px" viewBox="0 0 384 512" style="enable-background:new 0 0 384 512;" xml:space="preserve">
<path id="_x33_2" d="M86.2,512.3c-31.1,0-56.7-17-74-49.1c-5.4-10-9.1-19.9-11.6-28c-2.8-9.2,3.2-18.7,12.9-20.3h0
	c8-1.3,15.8,3.5,18.1,11.2c1.8,6,4.5,13.3,8.6,20.5c18.4,32.9,37.5,33.4,46,33.6c6.4,0.1,19.3-4.7,42.3-64.8
	c16.9-44.3,32.8-105,48.2-163.7c15.5-59.2,31.6-120.4,48.9-166c15.1-39.6,36.9-85,72.1-85c33.6,0,59.8,18.4,75.7,53.1
	c5.1,11.1,8.3,22.2,10.2,31.1c2.1,9.4-4.7,18.5-14.5,19.3l-0.3,0c-8.1,0.6-15.4-4.7-17.1-12.5c-1.6-7.2-4.2-16.4-8.3-25.4
	c-6.9-15-21.4-33.5-38.3-33.5c-9.5,0-25.7,3.1-49,64.3c-16.8,44-32.6,104.4-47.9,162.8c-15.6,59.5-31.7,121-49.2,167
	C143.7,466.6,121.7,512.3,86.2,512.3z"/>
</svg>
