<?xml version="1.0" encoding="utf-8"?>
<!-- Generator: Adobe Illustrator 21.1.0, SVG Export Plug-In . SVG Version: 6.00 Build 0)  -->
<svg version="1.1" id="Layer_4" xmlns="http://www.w3.org/2000/svg" xmlns:xlink="http://www.w3.org/1999/xlink" x="0px" y="0px"
	 viewBox="0 0 512.7 512" style="enable-background:new 0 0 512.7 512;" xml:space="preserve">
<g>
	<path d="M490.7,87.7v109.4H22V87.7H0V512h22v-41.9h468.7V512h22V87.7H490.7z M22,448.1v-229h468.7v229H22z"/>
	<path d="M206.5,276.6h-0.2l-34.4-0.3l6.3,37.4v19.6l-47.7,0v-19.6l6.3-37.4l-34.4,0.3h-0.2l-28.4,37.1v114.4h161.5V313.6
		L206.5,276.6z M202,282.8h-0.1l21,30.8h-34.6l-7.7-31.1L202,282.8z M106.9,282.8l21.3-0.3l-7.1,31.1H86.5L106.9,282.8z
		 M225.4,418.6h-142v-95.5h37.7l0.3,10.2v9.4l67,0.3v-19.6H226L225.4,418.6z M162.7,276.6h-16.8l-5.1,34.8v17.1h27v-16.5
		L162.7,276.6z"/>
	<path d="M409.6,276.6h-0.2l-34.4-0.3l6.3,37.4v19.6l-47.7,0v-19.6l6.3-37.4l-34.4,0.3h-0.2l-28.4,37.1v114.4h161.5V313.6
		L409.6,276.6z M405.2,282.8H405l21,30.8h-34.6l-7.7-31.1L405.2,282.8z M310.1,282.8l21.3-0.3l-7.1,31.1h-34.6L310.1,282.8z
		 M428.6,418.6h-142v-95.5h37.7l0.3,10.2v9.4l67,0.3v-19.6h37.7L428.6,418.6z M365.8,276.6h-16.8l-5.1,34.8v17.1h27v-16.5
		L365.8,276.6z"/>
	<path d="M359.6,25.1h-0.2l-34.4-0.3l6.3,37.4v19.6l-47.7,0V62.2l6.3-37.4l-34.4,0.3h-0.2l-28.4,37.1v114.4h161.5V62.2L359.6,25.1z
		 M355.2,31.3H355l21,30.8h-34.6L333.8,31L355.2,31.3z M260.1,31.3l21.3-0.3l-7.1,31.1h-34.6L260.1,31.3z M378.6,167.1h-142V71.7
		h37.7l0.3,10.2v9.4l67,0.3V72h37.7L378.6,167.1z M315.8,25.1h-16.8L294,59.9V77h27V60.5L315.8,25.1z"/>
</g>
</svg>
