<?xml version="1.0" encoding="utf-8"?>
<!-- Generator: Adobe Illustrator 21.1.0, SVG Export Plug-In . SVG Version: 6.00 Build 0)  -->
<svg version="1.1" id="share-square" xmlns="http://www.w3.org/2000/svg" xmlns:xlink="http://www.w3.org/1999/xlink" x="0px"
	 y="0px" viewBox="0 0 353.1 512" style="enable-background:new 0 0 353.1 512;" xml:space="preserve">
<g>
	<g>
		<path d="M349.6,304.3l-3,10.2v41.2L326.3,338v-40.8l-6.1-20.3l-6,20.3v30.2l-24.3-21.1v-33.5l-10.2-33.4l-10,33.4v15.9l-43.8-38.2
			c0,0-6-97.9-12.3-97.9c-0.6,0-3.4,0-3.4,0l-0.3-7.7c-0.1-0.8-0.8-1.5-1.6-1.5l-5.9-0.1c0,0,0-1.3,0-3.1c0-3.6,0-8.9-0.2-8.9
			c-1.5,0-2-1.2-3.7-1.2c-0.2,0-5.4-65.1-5.5-65.3C190.5,46.3,177.4,0,176.6,0c-0.7,0-15.6,46.3-17.8,64.8c0,0.1-4,65.3-4.2,65.3
			c-1.3,0-2.5,1.2-3.7,1.2c-0.1,0-0.1,1.9-0.1,4.3c0,3.5,0.1,7.8,0.1,7.8h-5.9c-0.9,0-1.6,0.7-1.6,1.6l-0.1,6.5c0,0-4.1-0.1-4.9-0.1
			c-6.7,0-11.3,92.2-11.3,98.1c0,0,0,1.2,0,1.2c-0.2,0.3-22.1,20-43.6,38.6v-16.4l-10-33.4l-10.4,33.4v33.8
			c-8.3,7.2-16.5,14.4-24.3,21v-30.5l-6-20.3l-6.1,20.3v41c-8.5,7.3-15.5,13.5-20.2,17.5v-41.2l-3-10.2l-3.1,10.2v80.4h127.9v25.1
			l-66.4,59l2.5,22.6l81.5,2.6l10.1-11.3v15.5c0,2.1,1.7,3.8,3.8,3.8h33.8c2.1,0,3.8-1.7,3.8-3.8v-15.5l9.4,10.2l82.1-1.5l2.5-22.6
			l-66.4-60.2v-23.8h127.9v-0.1v-80.4L349.6,304.3z M176.5,80.8c6.3,0,11.5,13.1,11.5,28c-6.1-3-17-3-23,0
			C165,93.9,170.2,80.8,176.5,80.8z M188.1,113.8l-1,43h-21l-1-43c0,0,3.1-2,11.3-2C185.2,111.8,188.1,113.8,188.1,113.8z
			 M330.6,372.8H202.7v55.7l56.7,51.4l-43.3,0.8l-2.7-2.9L176,436.9l-39.8,44.8l-42.7-1.3l56.8-50.4v-57.2H22.5v-1.6
			c2.4-2.1,124.3-106.4,124.3-106.4s6.8-78.9,7.6-85.7h43c0.9,7.2,7,82.2,7,82.2l126.1,109.9V372.8z"/>
	</g>
</g>
</svg>
