<?xml version="1.0" encoding="utf-8"?>
<!-- Generator: Adobe Illustrator 21.1.0, SVG Export Plug-In . SVG Version: 6.00 Build 0)  -->
<svg version="1.1" id="share-square" xmlns="http://www.w3.org/2000/svg" xmlns:xlink="http://www.w3.org/1999/xlink" x="0px"
	 y="0px" viewBox="0 0 741.5 512" style="enable-background:new 0 0 741.5 512;" xml:space="preserve">
<g>
	<g>
		<path d="M647.5,230.8c-0.2,0-94.4-5.8-94.4-6.1c0-1.9-1.8-3.6-1.8-5.3c0-0.2-2.8-0.2-6.2-0.2c-5,0-11.3,0.1-11.3,0.1v-8.5
			c0-1.3-1-2.3-2.3-2.3l-9.4-0.1c0,0,0.1-6,0.1-7.1c0-9.8-133.4-16.4-141.9-16.4c-0.1,0-1.8,0-1.8,0c-0.4-0.3-29-32.1-55.9-63.3
			h23.7l48.4-14.5L346.4,92h-49C287,80,276.6,68,267,56.8h44.1l29.4-8.7l-29.4-8.9h-59.3c-10.6-12.3-19.5-22.5-25.3-29.3h59.7
			l14.7-4.4L286.2,1H169.9v185.5h-36.4L48.1,90.1l-32.7,3.6L11.7,212l16.4,14.6H5.7c-3,0-5.5,2.5-5.5,5.5v49c0,3,2.5,5.5,5.5,5.5
			h22.4l-14.8,13.6l2.1,119.1l32.7,3.6l87.2-96.4h34.5V512h116.4l14.7-4.5l-14.7-4.4h-59.7l25.5-29.3h59.1l29.4-8.9l-29.4-8.7h-43.8
			l30.6-35.2h48.5l48.4-14.8l-48.4-14.5h-23l55.3-63.6c0,0,141.7-8.7,141.7-17.8c0-0.9,0-4.9,0-4.9l11.2-0.4
			c1.2-0.1,2.2-1.1,2.2-2.3l0.1-8.5c0,0,1.9,0,4.5,0c5.2,0,12.9,0,12.9-0.3c0-2.2,1.8-2.9,1.8-5.3c0-0.3,94.1-7.9,94.4-8
			c26.8-3.9,93.7-22.9,93.7-24C741.3,255.6,674.3,233.9,647.5,230.8z M482.3,286.9c-10.5,1.4-119,10.1-119,10.1L204.2,480h-2.5
			V294.5h-80.7l-74.4,82.3l-1.1-62.8l4.2-3.9l59.2-54.4l-64.8-57.7l1.9-62l73,82.4h82.8V33h2.3c3,3.5,154,180.3,154,180.3
			s114.1,9.9,124.1,11.1V286.9z M576.5,273.2l-62.3-1.5v-30.4l62.3-1.4c0,0,2.9,4.5,2.9,16.4C579.4,269,576.5,273.2,576.5,273.2z
			 M583.7,273.2c4.3-8.9,4.3-24.7,0-33.4c21.6,0,40.6,7.5,40.6,16.7S605.3,273.2,583.7,273.2z"/>
	</g>
</g>
</svg>
