<?xml version="1.0" encoding="utf-8"?>
<!-- Generator: Adobe Illustrator 21.1.0, SVG Export Plug-In . SVG Version: 6.00 Build 0)  -->
<svg version="1.1" id="share-square" xmlns="http://www.w3.org/2000/svg" xmlns:xlink="http://www.w3.org/1999/xlink" x="0px"
	 y="0px" viewBox="0 0 909.2 512" style="enable-background:new 0 0 909.2 512;" xml:space="preserve">
<path d="M814.5,54.9c-7.1,5.6-12.5,9.8-14.6,11.5l-13.3,8.9l-43.1,29l-3.7,0l-3.9,3.9l-4.3,2.1l-0.6,2.2
	c-38.1,25.7-78.3,52.7-78.7,53l-26.6,17.9l9.5,14.1l-33.8,22.7l-9.6-14.2l-26.5,18.1l-4.1,2.8l-26.9,18.4l4.8,6.7l-15.9,10.7
	l-26.5,17.8l1.2,1.8l-8.5,6.1c-1.1-0.1-2.1-0.2-3.2-0.2c-12.2,0-23.3,6.7-29,17.5c-3.4,6.5-4.5,13.7-3.3,20.7l-9.4,6.3
	c-3.3,1.4-7.5,2.9-11.1,3.9l-11.2-16l-26,17.6l-6.8,4.6c-2.7,1.8-3.7,2.5-5.3,3.6l-7.4,5c-0.4,0.3-0.8,0.6-1.3,0.9l-9.2,6.3
	l-12.6,8.5c-62.8,42.3-78.8,53.1-78.9,53.2l-14.6,9.9l0.3,8.6l-3,1.2l-1.2-2.2l-24.3,7.1l-42.9,12.6l-6.4-9.3l-26.1,17.6l-7,4.7
	l-16.3-24.2l8.9-6l2.4-1.6l2.1-2l22.5-22l19.4-18.9l-15.5-22.2l-1.6-2.3l-18-25.9l-26.1,17.6l-7.1,4.8l-2.1-3.3L48.3,255.2l165,71.8
	l8.7,3.8l9.4-1.6l54-9.2l7.3-1.2l6-4.3c1.1-0.8,103.3-73.9,231.2-162.1l13.3,19.5l24.3-10.7l64.8-28.5l1,4l35.1-19.8l11.8-5.2
	l-0.3-1.3l48.4-27.4l0.2,0l5.6-1.9c0.4-0.1,36.7-12.5,76.5-24.9C812,55.7,813.3,55.3,814.5,54.9 M903.1,0
	c-31,0-179.2,50.7-179.2,50.7s-40.9-1.6-74-1.6c-16,0-30.7,4.1-38.3,9.2c-22.6,15.2-50,33.4-74.9,50.5
	c-141.1,96.9-256.6,179.6-256.6,179.6l-54,9.2L23.3,209.4L0,238.7l90.7,143.1l-5.9,4l-11.8,25l3.2,4.7l27.2,2.1l41.4-27.9l1.6,2.3
	l-22.5,22l-28.7,19.3c-3.8,2.5-4.7,7.6-2.2,11.4l42.9,63.7c1.6,2.4,4.1,3.6,6.7,3.6c1.6,0,3.2-0.5,4.7-1.4l26.7-18l1.6,2.3l65-19.1
	l2.5,4.4l49.7-19.9l-0.4-13.3c0,0,15.4-10.4,78.9-53.2c4.1,3.7,8.1,13.7,8.7,17.9c13.3-11.5,15.6-23.5,12.9-32.5
	c0.7-0.5,1.3-0.9,1.9-1.3l15.3,22.8c-8.5,7.7-10.3,20.6-3.7,30.3c4.5,6.7,11.9,10.3,19.4,10.3c5.3,0,10.7-1.8,15.2-5.6
	c8.2-6.9,10.5-18.8,5.6-28.3c-4.2-8.2-12.4-12.8-20.8-12.8c-2.7,0-5.5,0.5-8.1,1.5L402,373c2.5-1.7,3.7-2.5,12-8.1
	c2.6,3.8,7.4,5.1,12.9,5.1c14.1,0,33.1-8.9,33.4-9.1l35.5-23.9c0.3-0.1-6.4-10-10.1-15.4c-0.4-0.6,0.1-1.3,0.7-1.3
	c0.1,0,0.3,0,0.4,0.1l6.7,4.5l33.7-24.1l14.4,1.9l5.9-4l-6.3-9.4l43.1-29l-4.9-6.9l4.1-2.8l9.5,14l79.5-53.5l13.3,19.8
	c-9,8.1-10.5,22.2-2.4,32.1c4.5,5.5,11.3,8.5,18.1,8.5c4,0,8.1-1,11.7-3.2c11.7-6.9,15.1-22.1,7.6-33.2
	c-4.5-6.7-11.9-10.3-19.4-10.3c-2.7,0-5.4,0.5-8,1.4l-16.5-24.6l-0.1,0.1l-6.5-9.6c0,0,43.1-29,82.8-55.8c0,0,0,0,0,0
	c0.2,0,6.3,9.4,6.3,9.4c0,0,0,0,0,0c0,0,0,0,0,0c-0.2,0-2.6,4.7-1.4,6.6c0.5,0.8,1.6,1,2.7,1c1.6,0,3.4-0.5,3.5-0.5l11.8-8
	c4.1-2.8,1.5-7.8-2.2-7.8c-0.8,0-1.7,0.3-2.5,0.8c-0.3,0.2-5.8,3.9-5.9,4c0,0,0,0,0,0c0,0,0,0,0,0c0.2-0.1-6.5-9.3-6.3-9.4
	l45.4-30.6c0.2,0.4,0.4,0.8,0.7,1.2c2.1,3.1,5.3,4.8,8.4,4.8c1.4,0,2.8-0.4,4-1.2c3.8-2.5,4.4-8.3,1.4-12.8
	c-0.3-0.4-0.8-1.2-0.8-1.2s101.4-77.1,90.2-91.4C907.7,0.4,905.8,0,903.1,0L903.1,0z M653.8,88.3l-8.7-33.2l67.6-0.1L653.8,88.3
	L653.8,88.3z M554.7,131.8l-13.4-19.6c0,0,70-47,71.3-47.9c5.4-3.7,14.5-6.7,21.6-7.7C636.7,66.4,643,93,643,93L554.7,131.8
	L554.7,131.8z M701.4,260.6c-3.9,0-7.8-1.9-10.2-5.4c-3.8-5.6-2.3-13.2,3.3-17c2.1-1.4,4.5-2.1,6.8-2.1c3.9,0,7.8,1.9,10.2,5.4
	c3.8,5.6,2.3,13.2-3.3,17C706.1,259.9,703.7,260.6,701.4,260.6L701.4,260.6z M425.7,430.2c-3.9,0-7.8-1.9-10.2-5.4
	c-3.8-5.6-2.3-13.2,3.3-17c2.1-1.4,4.5-2.1,6.8-2.1c3.9,0,7.8,1.9,10.2,5.4c3.8,5.6,2.3,13.2-3.3,17
	C430.4,429.5,428,430.2,425.7,430.2L425.7,430.2z"/>
</svg>
