<?xml version="1.0" encoding="utf-8"?>
<!-- Generator: Adobe Illustrator 22.0.1, SVG Export Plug-In . SVG Version: 6.00 Build 0)  -->
<svg version="1.1" id="Layer_2" xmlns="http://www.w3.org/2000/svg" xmlns:xlink="http://www.w3.org/1999/xlink" x="0px" y="0px"
	 viewBox="0 0 512 512" style="enable-background:new 0 0 512 512;" xml:space="preserve">
<g id="_x33_2">
	<path d="M256,0.7L0,46.7v419.4l256,46l256-46V46.7L256,0.7z M256,33.2l224,40.3v59.3l-224-28.2L32,132.8V73.4L256,33.2z M256,479.6
		L32,439.4V215.5l10-0.9v-23.8l-10,0.9v-27.1l224-21.2l224,21.2v274.8L256,479.6z"/>
	<polygon points="283,196.6 357,203.5 357,179.5 283,172.6 	"/>
	<polygon points="395,207.1 452,212.4 452,188.4 395,183.1 	"/>
	<polygon points="170,202 227,196.6 227,172.6 170,178 	"/>
	<polygon points="80,209.6 138,204.2 138,180.2 80,185.6 	"/>
</g>
</svg>
