<?xml version="1.0" encoding="utf-8"?>
<!-- Generator: Adobe Illustrator 21.1.0, SVG Export Plug-In . SVG Version: 6.00 Build 0)  -->
<svg version="1.1" id="Layer_1" xmlns="http://www.w3.org/2000/svg" xmlns:xlink="http://www.w3.org/1999/xlink" x="0px" y="0px"
	 viewBox="0 0 512 512" style="enable-background:new 0 0 512 512;" xml:space="preserve">
<path d="M506.6,484.6l-25.5-25.5l27.7-27.7l-23.7-23.7l-27.7,27.7L421.1,399l42.8-42.8l-26.1-26.1l18.5-18.5L430,285.5l-61.2,61.2
	l-94.2-94.2c63.2-71.8,73.7-167.3,21.8-219.1c-54.7-54.7-158-40-230.7,32.7c-72.7,72.7-87.4,176-32.7,230.7
	c51.8,51.8,147.2,41.4,218.9-21.7l232,232c6.2,6.2,16.4,6.2,22.6,0l0,0C512.8,500.9,512.8,490.8,506.6,484.6z M55.4,274.6
	C13.7,232.9,28.8,150.1,89.2,89.7c60.4-60.4,143.1-75.5,184.8-33.8c41.7,41.7,26.5,124.5-33.8,184.8
	C179.8,301.1,97.1,316.3,55.4,274.6z"/>
</svg>
