<?xml version="1.0" encoding="utf-8"?>
<!-- Generator: Adobe Illustrator 22.0.1, SVG Export Plug-In . SVG Version: 6.00 Build 0)  -->
<svg version="1.1" id="Layer_3" xmlns="http://www.w3.org/2000/svg" xmlns:xlink="http://www.w3.org/1999/xlink" x="0px" y="0px"
	 viewBox="0 0 576 512" style="enable-background:new 0 0 576 512;" xml:space="preserve">
<style type="text/css">
	.st0{fill:#070707;}
</style>
<g id="_x33_2_1_">
	<path class="st0" d="M0,80v352.8c0,8.3,6.7,15,15,15l545.9-0.1c8.3,0,15-6.7,15-15V80c0-8.3-6.7-15-15-15H15C6.7,65,0,71.7,0,80z
		 M543.9,415.8H32.1V97h511.9V415.8z"/>
	<path class="st0" d="M310.8,143.7h32.1v32h-32.1V143.7z M310.8,239.6h32.1v32h-32.1V239.6z M230.7,143.7h32.1v32h-32.1V143.7z
		 M230.7,239.6h32.1v32h-32.1V239.6z M102,367H70v-32H102V367z M102,271.6H70v-32H102V271.6z M102,175.7H70v-32H102V175.7z
		 M182.3,367h-32.1v-32h32.1V367z M182.3,271.6h-32.1v-32h32.1V271.6z M182.3,175.7h-32.1v-32h32.1V175.7z M423.3,367H230.7v-32
		h192.6V367z M423.3,271.6h-32.1v-32h32.1V271.6z M423.3,175.7h-32.1v-32h32.1V175.7z M503.5,367h-32.1v-32h32.1V367z M503.5,271.6
		h-32.1v-32h32.1V271.6z M503.5,175.7h-32.1v-32h32.1V175.7z"/>
</g>
</svg>
