<?xml version="1.0" encoding="utf-8"?>
<!-- Generator: Adobe Illustrator 21.1.0, SVG Export Plug-In . SVG Version: 6.00 Build 0)  -->
<svg version="1.1" id="Layer_2" xmlns="http://www.w3.org/2000/svg" xmlns:xlink="http://www.w3.org/1999/xlink" x="0px" y="0px"
	 viewBox="0 0 512 512" style="enable-background:new 0 0 512 512;" xml:space="preserve">
<style type="text/css">
	.st0{fill-rule:evenodd;clip-rule:evenodd;}
</style>
<g id="_x33_2">
	<path d="M337.8,47.7l51.2,53.5h-43.2l86.7,88.1h-62.6l71.3,80.8H237.6l71.7-80.8h-62.2l88.2-88l-47.3-0.1L337.8,47.7 M337.5,1
		l-123,132l43.5,0.1l-88.3,88.1h68.4L166.4,302h157l-0.3,101.6h32L355,302h157l-71.3-80.8h68l-86.7-88.1h41.8L337.5,1L337.5,1z"/>
	<path class="st0" d="M0,374.1c7.3,2.1,18.4,4.4,31.4,4.4c8,0,15.6-3.2,23.5-6.5c8.8-3.7,18-7.5,28.7-7.5c8.4,0,17.9,3,27.9,6.2
		c12,3.8,24.5,7.8,37.9,7.8c11.5,0,22.1-3.6,32.3-7.2c10.3-3.5,20-6.8,30.6-6.8c8.8,0,19,3.2,29.7,6.6c8.8,2.8,17.8,5.7,26.6,6.8
		v32.6c-7.3-1-14.7-3.6-22.5-6.2c-10.5-3.6-21.5-7.3-32.6-7.3c-12.3,0-24,3.8-35.4,7.5c-10.2,3.3-19.8,6.5-28.7,6.5
		c-11.1,0-22.3-3.6-33.1-7.1c-10.9-3.5-21.2-6.9-31.6-6.9c-14.9,0-27,4.6-37.6,8.6c-7.6,2.9-14.2,5.4-19.9,5.4
		c-11.9,0-22-3-27.2-4.9V374.1z M512,499.3c-12.7-3.8-26.9-7.8-42.8-7.8c-9.9,0-19.9,3.6-29.6,7c-9.7,3.4-19.6,7-29.3,7
		c-9.4,0-19.4-3.2-30-6.5c-11.8-3.7-23.9-7.5-36.7-7.5c-11.7,0-23.1,3.7-34.2,7.3c-10.7,3.4-20.8,6.7-30.7,6.7
		c-9.4,0-19.2-3.3-29.4-6.7c-10.7-3.6-21.7-7.3-33-7.3c-12.5,0-24.3,3.8-35.8,7.5c-10.3,3.3-20,6.5-29.1,6.5
		c-11.2,0-22.6-3.6-33.5-7.1c-11-3.5-21.4-6.9-32-6.9c-15.1,0-27.3,4.6-38.1,8.6c-7.7,2.9-14.4,5.4-20.2,5.4
		c-12.1,0-22.3-3-27.6-4.9v-32c7.4,2.1,18.7,4.4,31.8,4.4c8.1,0,15.8-3.2,23.8-6.5c8.9-3.7,18.2-7.5,29-7.5c8.5,0,18.1,3,28.3,6.2
		c12.2,3.8,24.8,7.8,38.4,7.8c11.6,0,22.4-3.6,32.7-7.2c10.4-3.5,20.2-6.8,31-6.8c9,0,19.2,3.2,30,6.6c11.5,3.6,23.4,7.4,34.8,7.4
		c12,0,23.7-3.8,34.9-7.4c10.5-3.4,20.5-6.6,30-6.6c10.8,0,22.1,3.5,33,6.9c11.2,3.5,22.8,7.1,34.3,7.1c12.8,0,24.6-4,36-7.8
		c9.5-3.2,18.5-6.2,26.5-6.2c13.1,0,25.6,4.2,36.7,7.8c0.2,0.1,0.5,0.2,0.7,0.2V499.3z"/>
</g>
</svg>
