<?xml version="1.0" encoding="utf-8"?>
<!-- Generator: Adobe Illustrator 21.1.0, SVG Export Plug-In . SVG Version: 6.00 Build 0)  -->
<svg version="1.1" id="Layer_1" focusable="false" xmlns="http://www.w3.org/2000/svg" xmlns:xlink="http://www.w3.org/1999/xlink"
	 x="0px" y="0px" viewBox="0 0 448 512" style="enable-background:new 0 0 448 512;" xml:space="preserve">
<path id="_x33_2" d="M448,446.4v33.5c-48.1-2.1-91.2-25.3-109.7-59.8l-0.2-0.4c-1.2-2-81.3-140.4-127.9-221.7l-11.2-19.6L45,480H0
	l180.3-333.1l-5.9-11.3c-20.7-35-42.5-64.4-95.7-68.2V32c81.5,4.8,112.6,58.5,131.5,91.3c1.8,3.2,3.6,6.2,5.2,8.9
	c3.8,6.5,147.5,256.5,155.3,270.2c6.4,12.9,17.7,23.9,32.8,31.7C416.4,440.8,431.6,445,448,446.4z"/>
</svg>
