<?xml version="1.0" encoding="utf-8"?>
<!-- Generator: Adobe Illustrator 21.1.0, SVG Export Plug-In . SVG Version: 6.00 Build 0)  -->
<svg version="1.1" id="Layer_3" xmlns="http://www.w3.org/2000/svg" xmlns:xlink="http://www.w3.org/1999/xlink" x="0px" y="0px"
	 viewBox="0 0 442.3 512" style="enable-background:new 0 0 442.3 512;" xml:space="preserve">
<g>
	<path d="M270.8,125.5c5.9-15.1,14.8-28.9,26.6-40.7c12-12,25.9-20.8,40.7-26.5l-2.2-2.2L293,13c-17.1-17.1-44.7-17.3-62.1-0.8
		c-3.2-1.2-6.6-2.6-10.3-4.3c-10.6-4.7-27.1-4.9-38.4,6c-12.4,12-18.4,29.2-17.5,49.7c0.5,10.4,2.6,19,4,23.8l1.1,4.7l-12.1,34.1
		c-0.1,0.4-0.2,0.7-0.3,1L28.9,219.6c-2.9-1.8-6.3-2.9-10-2.9c-10.4,0-18.8,8.4-18.8,18.8s8.4,18.8,18.8,18.8c1.2,0,2.3-0.1,3.4-0.3
		l172.6,102.7c0.7,7.8,4.6,14.6,10.5,19.1v30.1l-0.1-0.1v4.7H203V410c0-1.8-1.5-3.3-3.4-3.3c-1.8,0-3.3,1.5-3.3,3.3v13.7
		c0,1.9,1.5,3.3,3.3,3.3c1.9,0,3.4-1.5,3.4-3.3v-0.5h2.3v35.6l-28.8,5.3c-23.6,4-39.4,11.4-39.4,19.9c0,0,0,1.3,0,3.2
		c0,0,0,1.4,0,3.7V503c0,5,4.1,9,9,9h139.6c5,0,9-4,9-9v-12.3c0-2.2,0-3.7,0-3.7c0-1.9,0-3.2,0-3.2c0.1-5-5.4-9.6-14.8-13.4
		c0.4-0.5,0.7-1.1,0.9-1.8c0.6-2.1-0.1-4.2-1.5-4.6l-10.8-3.1c-1.5-0.4-3.1,0.9-3.7,3.1c-0.2,0.6-0.2,1.2-0.2,1.7
		c-8-1.8-17.3-3.2-27.4-4h0.8v-85.4c6.9-4.9,11.3-13,11.3-22.1c0-15-12.2-27.2-27.2-27.2c-4.8,0-9.3,1.2-13.2,3.4L39.5,229.8l127-93
		c0.1,0,0.1,0,0.2,0l62.8-13c7.7-1.6,9.7-7.7,4.3-13.4l-14.6-15.9c0.1-0.1,0.2-0.1,0.3-0.2c1.4-1,1.8-2.8,0.9-4.3l0.5-0.4l-0.1-0.2
		c1,1.5,3,1.8,4.5,0.8c1.4-1,1.8-2.9,0.9-4.3l2.6-2.4L270.8,125.5z M18.9,244.6c-5.1,0-9.2-4.1-9.2-9.2c0-5.1,4.1-9.2,9.2-9.2
		c5.1,0,9.2,4.1,9.2,9.2C28.2,240.5,24,244.6,18.9,244.6z M222,345.2c5.1,0,9.2,4.1,9.2,9.2c0,5.1-4.1,9.2-9.2,9.2s-9.2-4.1-9.2-9.2
		C212.8,349.3,216.9,345.2,222,345.2z M200.2,338.1c-1.5,2-2.7,4.3-3.6,6.7L33.3,247.6c1.6-1.9,2.8-4.1,3.6-6.5L200.2,338.1z
		 M202.6,109.3c-0.6,0.7-1.2,1.3-1.9,1.8c-1.9,1.4-4.2,2.2-6.7,2.2c-4.1,0-7.8-2.2-9.7-5.5c-1-1.7-1.7-3.7-1.7-5.9
		c0-2.1,0.6-4.1,1.7-5.9c0.3-0.5,0.6-1,1-1.4c0.4-0.4,0.8-0.9,1.2-1.2c2-1.8,4.6-2.9,7.5-2.9c6.3,0,11.4,5.1,11.4,11.4
		C205.4,104.7,204.3,107.3,202.6,109.3z M225.6,17.3c-15.5,15.5-17.2,39.6-5,57l-0.1-0.1l-1.6,1.1l0.1,0.2c-1-1.5-3-1.8-4.5-0.8
		c-1.4,1-1.8,2.9-0.9,4.3l-0.5,0.4l0.1,0.2c-1-1.5-3-1.8-4.5-0.8c-1,0.7-1.5,1.8-1.4,2.9l-14.8-16.1c-5.3-5.8-11.9-4.5-14.5,3
		l-5.1,14.2c-3.2-13.5-8-44.8,13-65c9-8.7,23.1-9.1,32.4-5c2.3,1,5.2,2.3,8.3,3.5L225.6,17.3z M236.9,28.6l5-4.8
		c11.1-10.5,29-10.3,39.8,0.5L311,53.8c-9,5.5-17.4,12.1-25,19.7c-7.6,7.6-14.2,15.9-19.7,25l-33.1-33l0.4-0.3
		C225.7,53.8,227.1,38.4,236.9,28.6z"/>
	<path d="M371.4,86.2c15.2,0,29.7,4.6,41.9,13.1L310.4,200.6c-8.2-12.2-12.6-26.5-12.5-41.5c0.2-19.6,8-37.9,22-51.7
		C333.7,93.7,352,86.2,371.4,86.2 M371.4,66.2c-23.7,0-47.3,8.9-65.5,26.9c-36.8,36.2-37.3,95.2-1.1,132c1.5,1.6,4.6,4.4,4.8,4.4
		c0,0,0,0,0,0L442.3,98.9c0.1-0.1-2.8-3.3-4.4-4.8C419.6,75.5,395.5,66.2,371.4,66.2L371.4,66.2z"/>
</g>
</svg>
