<?xml version="1.0" encoding="utf-8"?>
<!-- Generator: Adobe Illustrator 22.0.1, SVG Export Plug-In . SVG Version: 6.00 Build 0)  -->
<svg version="1.1" id="Layer_1" xmlns="http://www.w3.org/2000/svg" xmlns:xlink="http://www.w3.org/1999/xlink" x="0px" y="0px"
	 viewBox="0 0 640 512" style="enable-background:new 0 0 640 512;" xml:space="preserve">
<path d="M640,455v34.5c0,11-6.4,17.5-19.3,19.5c-12.8,2-28.2,3-46.1,3H65.4c-17.9,0-33.3-1-46.1-3C6.4,507,0,500.5,0,489.5V455H640z
	 M606.3,35.1v354.4c0,19.4-15.7,35.1-35.1,35.1H70.3c-19.4,0-35.1-15.7-35.1-35.1V35.1C35.3,15.7,51,0,70.3,0h501
	C590.6,0,606.3,15.7,606.3,35.1z M86.1,479.8c-1-1.2-2.2-1.8-3.5-2c-1.4-0.2-2.7,0.1-4.1,0.8c-1.3,0.7-2.4,1.8-3,3.5
	c-0.7,1.7-0.7,3.3,0,4.8s1.7,2.6,3,3.2c2,1,4.1,0.8,6.3-0.8c2.2-1.5,3.1-3.4,2.8-5.8C87.6,482.2,87.1,480.9,86.1,479.8z M573.4,374
	V45.5c0-3-1.2-5.6-3.5-7.8c-2.4-2.2-5.2-3.2-8.6-3.2h-482c-3,0-5.8,1.1-8.1,3.2c-2.4,2.2-3.5,4.7-3.5,7.8V374c0,3,1.2,5.8,3.5,8.3
	c2.4,2.5,5.1,3.7,8.1,3.7h481.9c3.4,0,6.3-1.3,8.6-3.7C572.3,379.7,573.4,377,573.4,374z M106.4,479.8c-1-1.2-2.2-1.8-3.5-2
	c-1.4-0.2-2.7,0.1-4.1,0.8c-1.4,0.7-2.4,1.8-3,3.5c-0.7,1.7-0.7,3.3,0,4.8s1.7,2.6,3,3.2c2,1,4.1,0.8,6.3-0.8
	c2.2-1.5,3.1-3.4,2.8-5.8C107.9,482.2,107.4,480.9,106.4,479.8z M352.7,489.5c4.4,0,9.3-4.1,9.3-8.2c0-4.2-3.2-7.6-7.6-7.6h-68.7
	c-4.1,0-7.6,3.5-7.6,7.6c0,4.2,4.8,8.2,8.8,8.2H352.7z"/>
<g>
	<polygon points="390.2,317.2 486.8,209.2 390.2,101 390.2,153.5 441.1,209.1 390.5,264.7 	"/>
	<polygon points="269.3,356.8 301.2,356.8 362.8,62.9 330.8,62.9 	"/>
	<polygon points="247.2,153.5 247.6,101 151,208.4 247.6,317.2 248.2,264.7 197.4,208.7 	"/>
</g>
</svg>
