<?xml version="1.0" encoding="utf-8"?>
<!-- Generator: Adobe Illustrator 21.1.0, SVG Export Plug-In . SVG Version: 6.00 Build 0)  -->
<svg version="1.1" id="smile" xmlns="http://www.w3.org/2000/svg" xmlns:xlink="http://www.w3.org/1999/xlink" x="0px" y="0px"
	 viewBox="0 0 512 512" style="enable-background:new 0 0 512 512;" xml:space="preserve">
<g>
	<path d="M256,0C114.6,0,0,114.6,0,256s114.6,256,256,256s256-114.6,256-256S397.4,0,256,0z M256,480.1c-123.7,0-224-100.3-224-224
		S132.2,32,256,32s224,100.3,224,224S379.7,480.1,256,480.1z"/>
	<path d="M121.4,293.9v15.8c0,62.7,62.5,115.7,136.5,115.7s136.5-53,136.5-115.7v-15.8H121.4z M257.9,393.8
		c-49.1,0-91.8-29.7-101.2-68.3H359C349.7,364.1,307.1,393.8,257.9,393.8z"/>
	<polygon points="383.8,150.7 357.5,124.4 290.1,191.7 357.5,259.1 383.8,232.8 342.7,191.7 	"/>
	<polygon points="127.8,150.7 168.9,191.7 127.8,232.8 154.1,259.1 221.5,191.7 154.1,124.4 	"/>
</g>
</svg>
