<?xml version="1.0" encoding="utf-8"?>
<!-- Generator: Adobe Illustrator 21.1.0, SVG Export Plug-In . SVG Version: 6.00 Build 0)  -->
<svg version="1.1" id="Layer_1" xmlns="http://www.w3.org/2000/svg" xmlns:xlink="http://www.w3.org/1999/xlink" x="0px" y="0px"
	 viewBox="0 0 524.3 512" style="enable-background:new 0 0 524.3 512;" xml:space="preserve">
<path d="M510,13.8c-13.5,9.7-47.3,25.1-108.9,30c-4.2,0.3-8.4,0.5-12.7,0.5c-23.3,0-48.5-4.4-75-9c-29.1-5.1-59.9-10.5-91.5-10.5
	c-41.3,0-83.9,9.2-126,40.3c-27.9,20.6-47,47.6-56.7,80.2c-7.7,25.9-9.6,55.4-5.6,87.6c5.5,43.4,22.6,84.4,29.9,100.3
	c-28,37.2-43.4,75.1-51.8,103.5c-7.5,25.5-10.5,46.8-11.8,60c-0.7,7.7,5.4,14.3,13.1,14.3l12.3,0c3.2,0,5.8-2.5,6-5.6
	c0.7-10.1,3-32.7,11.4-60.8c7.3-24.4,20.3-56.4,43.5-88.3c12.9,9.4,31.9,20.8,55.5,28.4c11.1,3.6,22.2,6,33.4,7.2
	c6,0.7,12.1,1,18.1,1c9.9,0,19.7-0.9,29.6-2.7c33.5-6.2,66.6-23.1,98.1-50.1C446.4,232.8,483.3,118.3,503,56.8
	c5.3-16.3,9.4-29.2,13.6-36.8c0.9-1.6,7.5-17.1,7.7-17.5C523.9,2.8,512.7,11.8,510,13.8z M423.6,165.9c-14.1,25.6-30.6,50.3-49,73.4
	c-21.6,27.1-46.7,52.8-74.4,76.6c-27.3,23.3-55.2,37.8-83.1,42.9c-7.9,1.5-15.9,2.2-23.8,2.2c-4.8,0-9.7-0.3-14.6-0.8
	c-9-1-18.2-3-27.2-5.9c-18.8-6.1-34.3-15.2-44.9-22.7c4.7-5,9.6-10,14.9-14.9c42.2-39.3,117.7-104,118.3-104.6l10.9-9
	c-2.3,1.3-109,51.1-150.9,90.1c-4.5,4.2-8.8,8.5-13,12.8c-7.5-18.5-17.5-47.5-21.3-77.1c-3.5-27.8-2-52.8,4.5-74.4
	c7.7-25.8,22.9-47.2,45.1-63.6c31.4-23.2,65.4-34,107-34c28.8,0,57.9,5.1,86,10c28,4.9,54.4,9.5,80.5,9.5c5.2,0,10.3-0.2,15.2-0.6
	c25.1-2,45.8-5.6,62.9-9.8C457.2,93.6,444.5,127.9,423.6,165.9z"/>
</svg>
