<?xml version="1.0" encoding="utf-8"?>
<!-- Generator: Adobe Illustrator 22.0.1, SVG Export Plug-In . SVG Version: 6.00 Build 0)  -->
<svg version="1.1" id="Layer_2" xmlns="http://www.w3.org/2000/svg" xmlns:xlink="http://www.w3.org/1999/xlink" x="0px" y="0px"
	 viewBox="0 0 512 512" style="enable-background:new 0 0 512 512;" xml:space="preserve">
<style type="text/css">
	.st0{fill:#010101;}
</style>
<path class="st0" d="M497.7,169.6c-2.4-8.2-10-13.5-18-13.5c-2.1,0-4.3,0.4-6.4,1.1l0,0l0,0c0.3-0.1,0.7-0.2,1-0.3
	c-24-52.6-66.6-95-119.4-118.8c-0.1,0.2-0.1,0.4-0.2,0.5l0,0l0,0c3.7-10.2-2-21.3-12.3-24.4C322.1,8.2,288.5,0,256,0
	c-32.5,0-66.1,8.2-86.4,14.3c-10.4,3.1-16,14.3-12.3,24.4l0,0.1l0,0C105,62.8,62.9,105,39.1,157.4l0,0l-0.4-0.2
	c-2.1-0.8-4.3-1.1-6.4-1.1c-8.1,0-15.6,5.2-18,13.5C8.2,189.9,0,223.5,0,256c0,32.5,8.2,66.1,14.3,86.4c2.4,8.2,10,13.5,18,13.5
	c2.1,0,4.3-0.4,6.4-1.1l0.3-0.1l0,0c23.8,52.5,65.9,94.8,118.3,118.8c0,0,0,0,0,0c-3.6,10.2,2,21.3,12.4,24.3
	c20.2,6,53.9,14.2,86.3,14.2c32.5,0,66.1-8.2,86.4-14.3c10.4-3.1,16-14.3,12.3-24.4l0,0l0,0c0.1,0.3,0.2,0.5,0.3,0.8
	c52.8-23.8,95.4-66.3,119.4-119c-0.3-0.1-0.6-0.2-1-0.3c2.1,0.7,4.2,1.1,6.3,1.1c8.1,0,15.6-5.2,18-13.5c6-20.2,14.2-53.9,14.2-86.3
	C512,223.6,503.8,189.9,497.7,169.6z M344,68.4c43.9,20.4,79.4,55.7,100,99.5l0,0l-54,19.5c-14.4-27.9-37.4-50.7-65.5-64.9L344,68.4
	z M256.8,373.4c-64.8,0-117.3-52.5-117.3-117.3c0-64.8,52.5-117.2,117.3-117.2c64.8,0,117.2,52.5,117.2,117.2
	C374.1,320.9,321.6,373.4,256.8,373.4z M256,32c22.6,0,46.5,4.8,63.7,9.2l-20.2,56h-87.1l-20.2-56C209.5,36.8,233.4,32,256,32z
	 M168.2,69l19.5,54c-27.6,14.4-50.1,37-64.3,64.7l-54-19.5C89.7,124.8,124.8,89.6,168.2,69z M32,256c0-22.6,4.8-46.5,9.2-63.7
	l56,20.2v87.1l-56,20.2C36.8,302.5,32,278.6,32,256z M168.2,443.2c-43.4-20.6-78.5-55.9-98.9-99.5l0,0l54-19.5
	c14.2,27.8,36.8,50.5,64.4,64.9L168.2,443.2z M256,480c-22.6,0-46.5-4.8-63.7-9.2l20.2-56h87.1l20.2,56
	C302.5,475.2,278.6,480,256,480z M344.1,443.8L344.1,443.8l-19.5-54c28.1-14.3,51.1-37.1,65.5-65.1l54,19.5
	C423.5,388,388,423.4,344.1,443.8z M470.8,319.7l-56-20.2v-87.1l56-20.2c4.4,17.2,9.2,41.2,9.2,63.8
	C480,278.6,475.2,302.5,470.8,319.7z"/>
</svg>
