<?xml version="1.0" encoding="utf-8"?>
<!-- Generator: Adobe Illustrator 21.1.0, SVG Export Plug-In . SVG Version: 6.00 Build 0)  -->
<svg version="1.1" id="Layer_4" xmlns="http://www.w3.org/2000/svg" xmlns:xlink="http://www.w3.org/1999/xlink" x="0px" y="0px"
	 viewBox="0 0 334.8 512" style="enable-background:new 0 0 334.8 512;" xml:space="preserve">
<g>
	<path d="M167.4,0C74.9,0,0,75,0,167.4c0,61.8,33.5,115.8,83.4,144.8v39.7v19.6v12.3h167.9v-12.3v-19.6v-39.6
		c49.9-29,83.5-83,83.5-144.9C334.8,75,259.9,0,167.4,0z M219.3,292.5v34l0,0v25.3h-104v-47.1l0,0v-12.4
		c-49-20.4-83.4-68.7-83.4-125.1c0-74.8,60.7-135.5,135.5-135.5s135.5,60.7,135.5,135.5C302.9,223.8,268.4,272.2,219.3,292.5z"/>
	<rect x="83.4" y="398.8" width="167.9" height="31.9"/>
	<path d="M110.2,471.4h114.5c14.1,0,26.8-11.4,26.8-26.8H83.4C83.4,460,96,471.4,110.2,471.4z"/>
	<path d="M167.3,511.6c14.8,0,26.8-12,26.8-26.8h-53.6C140.5,499.6,152.5,511.6,167.3,511.6z"/>
</g>
</svg>
