<?xml version="1.0" encoding="utf-8"?>
<!-- Generator: Adobe Illustrator 21.1.0, SVG Export Plug-In . SVG Version: 6.00 Build 0)  -->
<svg version="1.1" id="Layer_6" xmlns="http://www.w3.org/2000/svg" xmlns:xlink="http://www.w3.org/1999/xlink" x="0px" y="0px"
	 viewBox="0 0 640 512" style="enable-background:new 0 0 640 512;" xml:space="preserve">
<g id="_x33_2_1_">
	<path d="M507.8,187.5C507.8,83.8,423.7-0.3,320-0.3S132.2,83.8,132.2,187.5c0,97.8,79.3,157.7,86.6,169.9
		c16.5,27.7,13.7,50.2,13.7,50.4H408c0-0.2-2.8-22.7,13.6-50.4C429.1,344.7,507.8,285.3,507.8,187.5z M394,341.2
		c-7.4,12.5-11.8,24.3-14.5,34.6H260.9c-2.7-10.3-7.2-22.2-14.6-34.7c-3.3-5.5-7.5-9.9-14.7-17.2c-21.9-22.5-67.4-69.2-67.4-136.4
		c0-41.6,16.2-80.8,45.6-110.2c29.4-29.4,68.6-45.6,110.2-45.6s80.8,16.2,110.2,45.6c29.4,29.4,45.6,68.6,45.6,110.2
		c0,66.9-45.1,113.5-66.8,135.9C402,330.8,397.3,335.6,394,341.2z M234.9,415.5v21.9h167.9v-21.9H234.9z M234.9,445.3
		c0,15.4,12.6,26.8,26.8,26.8h114.5c14.1,0,26.8-11.4,26.8-26.8H234.9z M292,485.5c0,14.8,12,26.8,26.8,26.8
		c14.8,0,26.8-12,26.8-26.8H292z"/>
	<path d="M64.7,25.7l60.7,35c7.7,4.4,10.3,14.2,5.9,21.9l0,0c-4.4,7.6-14.2,10.3-21.8,5.9l-60.7-35C41,49,38.4,39.2,42.8,31.6l0,0
		C47.2,23.9,57,21.3,64.7,25.7z M16,175.5h70.1c8.8,0,16,7.2,16,16v0c0,8.8-7.2,16-16,16H16c-8.8,0-16-7.2-16-16v0
		C0,182.7,7.2,175.5,16,175.5z M43,351.6L43,351.6c-4.4-7.7-1.8-17.4,5.8-21.9l60.7-35.1c7.6-4.4,17.4-1.8,21.9,5.8l0,0
		c4.4,7.6,1.8,17.4-5.8,21.9l-60.7,35.1C57.2,361.9,47.4,359.3,43,351.6z M597,31.3L597,31.3c4.4,7.7,1.8,17.4-5.8,21.9l-60.7,35.1
		c-7.6,4.4-17.4,1.8-21.9-5.8l0,0c-4.4-7.6-1.8-17.4,5.8-21.9l60.7-35.1C582.8,21.1,592.6,23.7,597,31.3z M575.3,357.3l-60.7-35
		c-7.7-4.4-10.3-14.2-5.9-21.9l0,0c4.4-7.6,14.2-10.3,21.8-5.9l60.7,35c7.7,4.4,10.3,14.2,5.9,21.9l0,0
		C592.8,359.1,583,361.7,575.3,357.3z M624,207.5h-70.1c-8.8,0-16-7.2-16-16v0c0-8.8,7.2-16,16-16H624c8.8,0,16,7.2,16,16v0
		C640,200.3,632.8,207.5,624,207.5z"/>
</g>
</svg>
