<?xml version="1.0" encoding="utf-8"?>
<!-- Generator: Adobe Illustrator 21.1.0, SVG Export Plug-In . SVG Version: 6.00 Build 0)  -->
<svg version="1.1" id="Layer_2" xmlns="http://www.w3.org/2000/svg" xmlns:xlink="http://www.w3.org/1999/xlink" x="0px" y="0px"
	 viewBox="0 0 376 512" style="enable-background:new 0 0 376 512;" xml:space="preserve">
<g id="_x33_2_1_">
	<path id="_x33_2" d="M187.8,32c41.6,0,80.8,16.2,110.2,45.6c29.4,29.4,45.6,68.5,45.6,110.1c0,66.8-45.1,113.4-66.8,135.8
		c-7.1,7.3-11.7,12.1-15,17.7c-7.4,12.5-11.8,24.3-14.5,34.6H128.7c-2.7-10.3-7.2-22.2-14.7-34.7c-3.2-5.5-7.5-9.9-14.7-17.2
		C77.5,301.4,32,254.7,32,187.6C32,146,48.2,107,77.6,77.6C107.1,48.2,146.2,32,187.8,32 M187.8,0C84.1,0,0,84,0,187.6
		c0,97.7,79.3,157.5,86.6,169.7c16.5,27.7,13.7,50.1,13.7,50.3h175.6c0-0.2-2.8-22.6,13.6-50.3c7.5-12.7,86.2-72,86.2-169.7
		C375.6,84,291.6,0,187.8,0L187.8,0z M270.6,415.3H102.8v21.9h167.9V415.3L270.6,415.3z M270.9,445.1H102.8
		c0,15.4,12.6,26.8,26.8,26.8h114.5C258.1,471.8,270.9,460.5,270.9,445.1L270.9,445.1z M213.5,485.2h-53.6c0,14.8,12,26.8,26.8,26.8
		C201.5,512,213.5,500,213.5,485.2L213.5,485.2z"/>
	<path d="M187,324.5c-15.4,0-27.9-12.4-27.9-27.7c0-15.3,12.5-27.7,27.9-27.7c15.4,0,27.9,12.5,27.9,27.7
		C214.9,312,202.3,324.5,187,324.5z M199.8,237c0,7-0.4,9.7-1.7,11.6c-1.8,2.6-4.8,3-6.8,3h-9.4c-2.3,0-5.1-0.4-6.7-2.9
		c-1.2-1.9-1.6-4.5-1.6-10.6c0-3.5-17-119.9-17-121.4c0-9.7,2.8-18.1,8.3-24.8c5.5-6.8,13.2-10.3,22.9-10.3
		c9.5,0,16.9,3.7,22.1,11.1c5,7.3,7.6,15.8,7.6,25.4C217.5,120.6,199.9,232.1,199.8,237z"/>
</g>
</svg>
