<?xml version="1.0" encoding="utf-8"?>
<!-- Generator: Adobe Illustrator 21.1.0, SVG Export Plug-In . SVG Version: 6.00 Build 0)  -->
<svg version="1.1" id="Layer_2" xmlns="http://www.w3.org/2000/svg" xmlns:xlink="http://www.w3.org/1999/xlink" x="0px" y="0px"
	 viewBox="0 0 376 512" style="enable-background:new 0 0 376 512;" xml:space="preserve">
<g id="_x33_2_1_">
	<path d="M200.1,304v11.8h-21.6v-11.7c-31-2.4-58.6-23.2-58.6-63h37.7c0,17.6,7.5,27.9,20.8,31.7V208c-38-16.2-55-36.2-55-61.7
		c0-29.5,24.8-53.1,55-53.1v-9.1h21.6v9.2c26.4,1.7,58.1,16.5,58.1,56.3h-37.7c-1.7-16-8.5-24.7-20.3-25.9v50.9l20.8,9.2
		c33.8,16.2,46.5,35.7,46.5,61.5C267.4,279.5,238.7,304,200.1,304z M200.1,217.2v56.9c15.3,0,30.1-9.5,30.1-25.2
		C230.1,235.5,220.1,225,200.1,217.2z M161.3,141.8c0,8.5,5.7,16,17.3,23v-41C167,125.8,161.3,131.9,161.3,141.8z"/>
	<path id="_x33_2" d="M187.8,32c41.6,0,80.8,16.2,110.2,45.6c29.4,29.4,45.6,68.5,45.6,110.1c0,66.8-45.1,113.4-66.8,135.8
		c-7.1,7.3-11.7,12.1-15,17.7c-7.4,12.5-11.8,24.3-14.5,34.6H128.7c-2.7-10.3-7.2-22.2-14.7-34.7c-3.2-5.5-7.5-9.9-14.7-17.2
		C77.5,301.4,32,254.7,32,187.6C32,146,48.2,107,77.6,77.6C107.1,48.2,146.2,32,187.8,32 M187.8,0C84.1,0,0,84,0,187.6
		c0,97.7,79.3,157.5,86.6,169.7c16.5,27.7,13.7,50.1,13.7,50.3h175.6c0-0.2-2.8-22.6,13.6-50.3c7.5-12.7,86.2-72,86.2-169.7
		C375.6,84,291.6,0,187.8,0L187.8,0z M270.6,415.3H102.8v21.9h167.9V415.3L270.6,415.3z M270.9,445.1H102.8
		c0,15.4,12.6,26.8,26.8,26.8h114.5C258.1,471.8,270.9,460.5,270.9,445.1L270.9,445.1z M213.5,485.2h-53.6c0,14.8,12,26.8,26.8,26.8
		C201.5,512,213.5,500,213.5,485.2L213.5,485.2z"/>
</g>
</svg>
