<?xml version="1.0" encoding="utf-8"?>
<!-- Generator: Adobe Illustrator 21.1.0, SVG Export Plug-In . SVG Version: 6.00 Build 0)  -->
<svg version="1.1" id="Layer_2" xmlns="http://www.w3.org/2000/svg" xmlns:xlink="http://www.w3.org/1999/xlink" x="0px" y="0px"
	 viewBox="0 0 640 512" style="enable-background:new 0 0 640 512;" xml:space="preserve">
<g id="_x33_2_1_">
	<path id="_x33_2" d="M291.8,485.2c0,14.8,12,26.8,26.8,26.8c14.8,0,26.8-12,26.8-26.8H291.8z M234.7,445.1
		c0,15.4,12.6,26.8,26.8,26.8H376c14.1,0,26.8-11.4,26.8-26.8H234.7z M234.7,415.3v21.9h167.9v-21.9H234.7z M409.4,387.9l-27.2-21.5
		c-1.1,3.2-2,6.3-2.8,9.3H260.7c-2.7-10.3-7.2-22.2-14.6-34.7c-3.3-5.5-7.5-9.9-14.7-17.2c-21.2-21.7-64.4-66.1-67.3-129.6
		l-31.3-24.7c-0.6,5.9-0.9,12-0.9,18.1c0,97.7,79.3,157.5,86.6,169.7c16.5,27.7,13.7,50.1,13.7,50.3h175.6
		C407.8,407.5,406.9,399.8,409.4,387.9z M396.7,336.9C396.6,337,396.6,337,396.7,336.9l25.1,19.9c0,0,0-0.1,0.1-0.1L396.7,336.9z
		 M139.7,134.2l27.5,21.7c0,0,0-0.1,0-0.1L139.7,134.2C139.7,134.1,139.7,134.2,139.7,134.2z"/>
	<path d="M633.8,483.3L443.6,333.2c25.7-28,64-77.5,64-145.6C507.6,84,423.5,0,319.8,0c-73.3,0-136.8,41.9-167.7,103.1L25.8,3.3
		C22.9,1.1,19.4,0,16,0C11.2,0,6.5,2.1,3.3,6.2c-5.4,7-4.1,17,2.9,22.4l133.5,105.4l27.5,21.7l229.4,181.1l25.1,19.8l192.4,151.9
		c7,5.4,17,4.1,22.4-2.9C642.1,498.8,640.8,488.8,633.8,483.3z M177.8,123.4c7.6-16.8,18.3-32.3,31.8-45.8
		C239.1,48.2,278.2,32,319.8,32S400.6,48.2,430,77.5c29.4,29.4,45.6,68.5,45.6,110.1c0,58-34,100.8-57.2,125.7L177.8,123.4z"/>
</g>
</svg>
