<?xml version="1.0" encoding="utf-8"?>
<!-- Generator: Adobe Illustrator 21.1.0, SVG Export Plug-In . SVG Version: 6.00 Build 0)  -->
<svg version="1.1" id="Layer_6" xmlns="http://www.w3.org/2000/svg" xmlns:xlink="http://www.w3.org/1999/xlink" x="0px" y="0px"
	 viewBox="0 0 470.7 512" style="enable-background:new 0 0 470.7 512;" xml:space="preserve">
<g>
	<path d="M235.4,109.3c-72.8,0-131.8,59-131.8,131.8c0,48.6,26.4,91.1,65.6,114v31.2v15.4v9.7h132.2v-9.7v-15.4v-31.2
		c39.3-22.8,65.7-65.3,65.7-114.1C367.2,168.4,308.2,109.3,235.4,109.3z M276.3,339.5v26.8l0,0v19.9h-81.9v-37.1l0,0v-9.8
		c-38.6-16.1-65.6-54.1-65.6-98.5c0-58.9,47.8-106.7,106.7-106.7S342.1,182,342.1,240.9C342.1,285.5,314.9,323.6,276.3,339.5z"/>
	<rect x="169.3" y="423.2" width="132.2" height="25.1"/>
	<path d="M190.4,480.4h90.1c11.1,0,21.1-9,21.1-21.1H169.3C169.3,471.4,179.2,480.4,190.4,480.4z"/>
	<path d="M235.4,512c11.6,0,21.1-9.4,21.1-21.1h-42.2C214.3,502.6,223.7,512,235.4,512z"/>
	<rect x="417.6" y="198.8" transform="matrix(-1.836970e-16 1 -1 -1.836970e-16 669.4027 -198.7119)" width="32.9" height="73"/>
	<rect x="20.1" y="198.8" transform="matrix(-1.836970e-16 1 -1 -1.836970e-16 271.8636 198.8273)" width="32.9" height="73"/>
	<rect x="218.9" transform="matrix(-1 -1.224647e-16 1.224647e-16 -1 470.6909 73.0363)" width="32.9" height="73"/>
	<rect x="359.4" y="58.3" transform="matrix(0.7071 0.7071 -0.7071 0.7071 177.1441 -237.9938)" width="32.9" height="73"/>
	<rect x="78.3" y="58.2" transform="matrix(-0.7071 0.7071 -0.7071 -0.7071 228.7547 94.7533)" width="32.9" height="73"/>
</g>
</svg>
