<?xml version="1.0" encoding="utf-8"?>
<!-- Generator: Adobe Illustrator 21.1.0, SVG Export Plug-In . SVG Version: 6.00 Build 0)  -->
<svg version="1.1" id="Layer_1" xmlns="http://www.w3.org/2000/svg" xmlns:xlink="http://www.w3.org/1999/xlink" x="0px" y="0px"
	 viewBox="0 0 502 512" style="enable-background:new 0 0 502 512;" xml:space="preserve">
<path d="M464.3,144.3c10,0,18.1-8.1,18.1-18.1s-8.1-18.1-18.1-18.1s-18.1,8.1-18.1,18.1S454.3,144.3,464.3,144.3z M464.3,117.9
	c4.6,0,8.3,3.7,8.3,8.3c0,4.6-3.7,8.3-8.3,8.3s-8.3-3.7-8.3-8.3C456,121.6,459.7,117.9,464.3,117.9z M360.7,306.3l101.8-151.2
	c-11.6-0.8-21.3-8.2-25.3-18.6L336.5,286C347.9,287.5,357.3,295.6,360.7,306.3z M218.5,265.5l85.2,54.7c-0.3-1.6-0.4-3.3-0.4-5
	c0-10.1,5.1-19,12.8-24.3L233.8,238c0,0.5,0,1.1,0,1.7C233.9,250.8,227.7,260.5,218.5,265.5z M18.1,475.8c-10,0-18.1,8.1-18.1,18.1
	S8.1,512,18.1,512s18.1-8,18.1-18S28.1,475.8,18.1,475.8z M18.1,502.3c-4.6,0-8.3-3.7-8.3-8.3s3.7-8.3,8.3-8.3s8.3,3.7,8.3,8.3
	S22.7,502.3,18.1,502.3z M332.9,333.6c10,0,18.1-8.1,18.1-18.1s-8.1-18.1-18.1-18.1s-18.1,8.1-18.1,18.1S322.9,333.6,332.9,333.6z
	 M332.9,307.2c4.6,0,8.3,3.7,8.3,8.3s-3.7,8.3-8.3,8.3s-8.3-3.7-8.3-8.3S328.3,307.2,332.9,307.2z M204.4,258.1
	c10,0,18.1-8.1,18.1-18.1s-8.1-18.1-18.1-18.1s-18.1,8.1-18.1,18.1S194.4,258.1,204.4,258.1z M204.4,231.6c4.6,0,8.3,3.7,8.3,8.3
	s-3.7,8.3-8.3,8.3s-8.3-3.7-8.3-8.3S199.8,231.6,204.4,231.6z M55.6,479.8l144.1-211.1c-11.4-1.8-20.6-10.2-23.6-21.1L34.3,455.4V1
	H2.9v468.2c4.4-2.6,9.5-4.1,15-4.1c16.2,0,29.4,13.2,29.4,29.4c0,6.2-1.9,11.9-5.2,16.7H502v-31.4L55.6,479.8L55.6,479.8z"/>
</svg>
