<?xml version="1.0" encoding="utf-8"?>
<!-- Generator: Adobe Illustrator 22.0.1, SVG Export Plug-In . SVG Version: 6.00 Build 0)  -->
<svg version="1.1" id="Layer_2_1_" xmlns="http://www.w3.org/2000/svg" xmlns:xlink="http://www.w3.org/1999/xlink" x="0px" y="0px"
	 viewBox="0 0 640 512" style="enable-background:new 0 0 640 512;" xml:space="preserve">
<g id="_x33_2">
	<path d="M274,62.2h357.7c4.4,0,8,3.6,8,8v16c0,4.4-3.6,8-8,8H274c-4.4,0-8-3.6-8-8v-16C266,65.8,269.6,62.2,274,62.2z"/>
	<path d="M274,243.2h357.7c4.4,0,8,3.6,8,8v16c0,4.4-3.6,8-8,8H274c-4.4,0-8-3.6-8-8v-16C266,246.8,269.6,243.2,274,243.2z"/>
	<path d="M274,420.2h357.7c4.4,0,8,3.6,8,8v16c0,4.4-3.6,8-8,8H274c-4.4,0-8-3.6-8-8v-16C266,423.8,269.6,420.2,274,420.2z"/>
	<path d="M202.6,348.8h-36.2l0.3-181.7l36-0.2c9.8-0.1,16.2-8.1,16.2-16.4c0-4-1.5-8-4.7-11.3l-93.1-99.6c-3.1-3.2-7.3-4.9-11.5-4.9
		c-4.2,0-8.4,1.6-11.5,4.8C66.8,70.9,48.8,94.1,4.7,139.2c-3.2,3.3-4.7,7.3-4.7,11.3c0,8.4,6.5,16.4,16.3,16.4h36.2l-0.3,181.7
		l-36,0.2C6.4,348.9,0,356.9,0,365.2c0,4,1.5,8,4.7,11.3l93.1,99.6c3.1,3.2,7.3,4.9,11.5,4.9s8.4-1.6,11.5-4.8
		c31.3-31.4,49.3-54.6,93.4-99.7c3.2-3.3,4.7-7.3,4.7-11.3C218.9,356.8,212.4,348.8,202.6,348.8z M109.5,442l-56.9-61.3l31.5-0.2
		l0.5-245.6H53.1l56.3-61.2l56.9,61.3l-31.5,0.2l-0.5,245.6h31.5L109.5,442z"/>
</g>
</svg>
