<?xml version="1.0" encoding="utf-8"?>
<!-- Generator: Adobe Illustrator 21.1.0, SVG Export Plug-In . SVG Version: 6.00 Build 0)  -->
<svg version="1.1" id="Layer_1" xmlns="http://www.w3.org/2000/svg" xmlns:xlink="http://www.w3.org/1999/xlink" x="0px" y="0px"
	 viewBox="0 0 552 512" style="enable-background:new 0 0 552 512;" xml:space="preserve">
<g>
	<g>
		<path d="M32,479V238h125.6c5.5,12.1,17.7,20.5,31.9,20.5c4.1,0,8-0.7,11.6-2l81.1,81.1c-0.4,2.2-0.7,4.5-0.7,6.9
			c0,19.3,15.7,35,35,35s35-15.7,35-35c0-3.6-0.5-7.1-1.6-10.4l140.2-140.2c3.3,1,6.8,1.6,10.4,1.6c19.3,0,35-15.7,35-35
			s-15.7-35-35-35s-35,15.7-35,35c0,5.4,1.2,10.5,3.4,15L331.5,312.9c-4.6-2.2-9.7-3.4-15-3.4c-6.5,0-12.7,1.8-17.9,4.9l-77-77
			c1.9-4.3,2.9-9,2.9-13.9c0-19.3-15.7-35-35-35c-14.5,0-27,8.9-32.3,21.5H32V0H0v512h551v-33H32z"/>
	</g>
</g>
</svg>
