<?xml version="1.0" encoding="utf-8"?>
<!-- Generator: Adobe Illustrator 21.1.0, SVG Export Plug-In . SVG Version: 6.00 Build 0)  -->
<svg version="1.1" id="Layer_6" xmlns="http://www.w3.org/2000/svg" xmlns:xlink="http://www.w3.org/1999/xlink" x="0px" y="0px"
	 viewBox="0 0 512.3 512" style="enable-background:new 0 0 512.3 512;" xml:space="preserve">
<path d="M306.6,398.4L224,480.9c-41.5,41.5-108.8,41.5-150.3,0l-42.4-42.4c-41.5-41.4-41.5-108.6,0-150.1l82.6-82.5
	c14-14,36.6-14,50.6,0l37.8,37.7c6.1,6.1,6.2,16,0.2,22.2c-6.2,6.4-16.8,6.2-23.1-0.1l-33.1-33.1c-4-3.9-10.4-3.9-14.3,0l-81.8,81.7
	c-27.1,27.1-27.1,71,0,98.1l49.4,49.4c27.1,27.1,71,27.1,98.1,0l81.8-81.7c3.9-3.9,3.9-10.3,0-14.2l-33.1-33.1
	c-6.1-6-6.7-15.9-0.9-22.2c6.1-6.8,16.7-7,23.1-0.5l38,37.7C320.6,361.8,320.6,384.4,306.6,398.4z M320.2,142.1
	c-6.2-6.1-6.2-16.2,0-22.4s16.3-6.2,22.4,0l25,25l24.9,24.9c6.2,6.1,6.2,16.2,0,22.4c-6.1,6.2-16.2,6.2-22.4,0l-13.8-13.7
	L180.7,353.8l13.7,13.7c6.2,6.1,6.2,16.2,0,22.4c-6.1,6.2-16.2,6.2-22.4,0L122.1,340c-6.2-6.1-6.2-16.2,0-22.4
	c6.2-6.2,16.3-6.2,22.4,0l13.9,13.8l175.7-175.5L320.2,142.1z M481.2,223.5L398.6,306c-14,14-36.6,14-50.6,0l-37.9-37.7
	c-6.1-6.1-6.2-16-0.2-22.2c6.2-6.4,16.8-6.2,23.1,0.1l33.1,33.1c4,3.9,10.4,3.9,14.3,0l81.8-81.7c27.1-27.1,27.1-71,0-98.1
	l-49.4-49.4c-27.1-27.1-71-27.1-98.1,0l-81.8,81.7c-3.9,3.9-3.9,10.3,0,14.2l33.4,33.5c6.1,6.1,6.2,16,0.2,22.2
	c-6.2,6.4-16.8,6.2-23.1-0.1L206,164.2c-14-14-14-36.6,0-50.6l82.6-82.5c41.5-41.4,108.8-41.4,150.2-0.1l42.4,42.3
	C522.7,114.8,522.7,182,481.2,223.5z"/>
</svg>
