<?xml version="1.0" encoding="utf-8"?>
<!-- Generator: Adobe Illustrator 21.1.0, SVG Export Plug-In . SVG Version: 6.00 Build 0)  -->
<svg version="1.1" id="Layer_2" xmlns="http://www.w3.org/2000/svg" xmlns:xlink="http://www.w3.org/1999/xlink" x="0px" y="0px"
	 viewBox="0 0 512.3 512" style="enable-background:new 0 0 512.3 512;" xml:space="preserve">
<path d="M163.3,41.3c0-5.1,4.1-9.2,9.2-9.2s9.2,4.1,9.2,9.2v68.5c0,5.1-4.1,9.2-9.2,9.2s-9.2-4.1-9.2-9.2V41.3z M79.6,69.5
	c1.7-1.7,4-2.7,6.5-2.7s4.8,1,6.5,2.7L141,118c3.6,3.6,3.6,9.4,0,13c-1.7,1.7-4,2.7-6.5,2.7c-1.3,0-2.5-0.3-3.5-0.7
	c-1.1-0.5-2.1-1.1-3-2L79.6,82.5C76,78.9,76,73.1,79.6,69.5z M50.4,153.1h68.5c5.1,0,9.2,4.1,9.2,9.2c0,5.1-4.1,9.2-9.2,9.2H50.4
	c-5.1,0-9.2-4.1-9.2-9.2C41.2,157.2,45.3,153.1,50.4,153.1z M306.3,398.4l-82.6,82.5c-41.5,41.5-108.8,41.5-150.3,0l-42.4-42.4
	c-41.5-41.5-41.5-108.7,0-150.1l82.6-82.5c14-14,36.6-14,50.6,0l37.8,37.7c6.2,6.1,6.2,16,0.3,22.2c-6.2,6.5-16.8,6.2-23.1-0.1
	l-33.1-33.1c-3.9-3.9-10.3-3.9-14.3,0l-81.8,81.7c-27.1,27.1-27.1,71,0,98.1l49.4,49.4c27.1,27.1,71,27.1,98.1,0l81.8-81.7
	c3.9-3.9,3.9-10.3,0-14.2l-33.1-33.1c-6.1-6-6.6-15.9-0.9-22.2c6.2-6.8,16.7-7,23.1-0.5l37.8,37.7
	C320.3,361.8,320.3,384.4,306.3,398.4z M320.2,142.2c-6.2-6.1-6.2-16.2,0-22.4c6.2-6.2,16.3-6.2,22.4,0l25,25l24.9,24.9
	c6.2,6.1,6.2,16.2,0,22.4c-6.1,6.2-16.2,6.2-22.4,0l-13.8-13.8L180.8,353.8l13.7,13.8c6.2,6.1,6.2,16.2,0,22.4
	c-6.1,6.2-16.2,6.2-22.4,0L147.1,365l-25-25c-6.2-6.1-6.2-16.2,0-22.4c6.2-6.2,16.3-6.2,22.4,0l13.9,13.7L334,156L320.2,142.2z
	 M358.2,460.8c0,5.1-4.1,9.2-9.2,9.2s-9.2-4.1-9.2-9.2v-68.5c0-5.1,4.1-9.2,9.2-9.2s9.2,4.1,9.2,9.2V460.8z M442.1,432.5
	c-1.8,1.8-4.2,2.7-6.5,2.7c-2.3,0-4.7-0.9-6.5-2.7L380.7,384c-1.7-1.7-2.7-4-2.7-6.5s1-4.8,2.7-6.5c3.5-3.6,9.3-3.6,13,0l48.4,48.5
	c1.7,1.7,2.7,4,2.7,6.5S443.8,430.8,442.1,432.5z M471.2,349h-68.5c-5.1,0-9.2-4.1-9.2-9.2c0-5.1,4.1-9.2,9.2-9.2h68.5
	c5.1,0,9.2,4.1,9.2,9.2C480.4,344.9,476.3,349,471.2,349z M481.2,223.5L398.6,306c-14,14-36.6,14-50.6,0l-37.8-37.7
	c-6.1-6.1-6.2-16-0.3-22.2c6.2-6.5,16.8-6.2,23.1,0.1l33.1,33.1c3.9,3.9,10.3,3.9,14.3,0l81.8-81.7c27.1-27.1,27.1-71,0-98
	l-49.4-49.4c-27.1-27.1-71-27.1-98.1,0l-81.8,81.7c-3.9,3.9-3.9,10.3,0,14.3l33.4,33.4c6.1,6.1,6.2,16,0.3,22.2
	c-6.2,6.5-16.8,6.2-23.1-0.1l-37.4-37.4c-14-14-14-36.6,0-50.6l82.6-82.5c41.5-41.4,108.8-41.4,150.2-0.1l42.4,42.3
	C522.7,114.8,522.7,182,481.2,223.5z"/>
</svg>
