<?xml version="1.0" encoding="utf-8"?>
<!-- Generator: Adobe Illustrator 21.1.0, SVG Export Plug-In . SVG Version: 6.00 Build 0)  -->
<svg version="1.1" id="Layer_5" xmlns="http://www.w3.org/2000/svg" xmlns:xlink="http://www.w3.org/1999/xlink" x="0px" y="0px"
	 viewBox="0 0 512.5 512" style="enable-background:new 0 0 512.5 512;" xml:space="preserve">
<g>
	<g>
		<path d="M109.1,512h403.4v-32H109.1V512z M511.5,320H109.1v32h402.4V320z M109.1,192h403.4v-32H109.1V192z M110.1,0v32h402.4V0
			H110.1z M35.2,458h-10L0.9,489.2v9.3h24.3V512h10v-13.5h5.9v-10.1h-5.9V458z M25.2,488.4l-13,0.2l13-17V488.4z M32.8,354.7
			c3.8-3.2,5.8-7.6,5.8-13.4c0-3.5-1.1-6.6-3.2-9.2s-5-4.3-8.5-5.1L37,314.8v-9.4H1.5v10.4h21.6c-1.4,1.2-2.7,2.6-4,4.1
			s-2.8,3.4-4.5,5.7c-1.7,2.3-2.8,3.9-3.4,4.7l2.7,5.9c7.5-0.7,11.3,1.2,11.3,5.7c0,2-0.8,3.6-2.4,4.6c-1.6,1-3.4,1.5-5.5,1.5
			c-4,0-7.7-1.6-11.1-4.7L0,352.5c4.7,4.6,10.8,6.9,18.3,6.9C24.2,359.5,29,357.9,32.8,354.7z M38.6,203.3v-10.4H14.7
			c0.1-1.8,1.5-3.6,3.9-5.5c2.5-1.9,5.2-3.7,8.1-5.3c2.9-1.6,5.6-3.9,8-6.8c2.4-2.9,3.6-6.1,3.6-9.7c0-5-1.8-9-5.4-11.9
			s-8-4.4-13.1-4.4c-4.2,0-8,1-11.3,3.1c-3.4,2-6,4.8-7.8,8.4l9.2,6.3c2.5-4.1,5.4-6.1,8.7-6.1c1.8,0,3.2,0.5,4.3,1.4
			c1,0.9,1.6,2.3,1.6,4.1c0,1.6-0.8,3.2-2.5,4.7s-3.7,3-6.1,4.6c-2.4,1.6-4.8,3.2-7.2,5s-4.4,4.1-6,7.1c-1.7,3-2.5,6.3-2.5,9.8
			c0,1.4,0.2,3.3,0.6,5.7h37.8V203.3z M12.4,13.2h0.2v1.5v30.5H2.9V54h30.7v-8.9h-9.7V0h-9.7l-14,14l6.9,5.2
			C7.9,15.8,9.7,13.8,12.4,13.2z"/>
	</g>
</g>
</svg>
