<?xml version="1.0" encoding="utf-8"?>
<!-- Generator: Adobe Illustrator 21.1.0, SVG Export Plug-In . SVG Version: 6.00 Build 0)  -->
<svg version="1.1" id="Layer_2" xmlns="http://www.w3.org/2000/svg" xmlns:xlink="http://www.w3.org/1999/xlink" x="0px" y="0px"
	 viewBox="0 0 512 512" style="enable-background:new 0 0 512 512;" xml:space="preserve">
<path d="M451.3,239.6c-7.9-95.1-83.8-171-178.9-178.9V0h-32.7v60.8c-95.1,7.9-171,83.8-178.9,178.9H0v32.7h60.8
	c7.9,95.1,83.8,171.2,178.9,179.1V512h32.7v-60.5c95.3-7.9,171.3-83.9,179.1-179.2H512v-32.7H451.3z M256,92.9
	c90,0,163.1,73,163.1,163.1S346,419.1,256,419.1S92.9,346,92.9,256S166,92.9,256,92.9z"/>
<path d="M256,176.3c-44,0-79.7,35.7-79.7,79.7s35.7,79.7,79.7,79.7s79.7-35.7,79.7-79.7S300,176.3,256,176.3z M256,303.7
	c-26.3,0-47.7-21.3-47.7-47.7s21.3-47.7,47.7-47.7s47.7,21.3,47.7,47.7S282.3,303.7,256,303.7z"/>
</svg>
