<?xml version="1.0" encoding="utf-8"?>
<!-- Generator: Adobe Illustrator 21.1.0, SVG Export Plug-In . SVG Version: 6.00 Build 0)  -->
<svg version="1.1" id="Layer_1" xmlns="http://www.w3.org/2000/svg" xmlns:xlink="http://www.w3.org/1999/xlink" x="0px" y="0px"
	 viewBox="0 0 409 512" style="enable-background:new 0 0 409 512;" xml:space="preserve">
<style type="text/css">
	.st0{fill:none;}
</style>
<g>
	<path d="M402,207h-68v-78.5C334,57.5,276.5,0,205.5,0l0,0C134.5,0,77,57.5,77,128.5V207H8l-7,6v300h408V213L402,207z M205.5,33
		c52.7,0,95.5,42.8,95.5,95.5V207H110v-78.5C110,75.8,152.8,33,205.5,33z M376,480H34V246h43h257h42V480z"/>
	<g>
		<path class="st0" d="M204.3,344.9c13.3,0,24,10.7,24,24c0,8.5-4.4,16-11.1,20.2v29.1c0,6.7-5.5,12.2-12.2,12.2h0
			c-6.7,0-12.2-5.5-12.2-12.2v-28.3c-7.4-4.1-12.5-12-12.5-21C180.3,355.6,191,344.9,204.3,344.9z"/>
		<path d="M192.7,389.9v28.3c0,6.7,5.5,12.2,12.2,12.2h0c6.7,0,12.2-5.5,12.2-12.2v-29.1c6.7-4.3,11.1-11.7,11.1-20.2
			c0-13.3-10.7-24-24-24s-24,10.7-24,24C180.3,378,185.3,385.9,192.7,389.9z"/>
	</g>
</g>
</svg>
