<?xml version="1.0" encoding="utf-8"?>
<!-- Generator: Adobe Illustrator 21.1.0, SVG Export Plug-In . SVG Version: 6.00 Build 0)  -->
<svg version="1.1" id="Layer_1" xmlns="http://www.w3.org/2000/svg" xmlns:xlink="http://www.w3.org/1999/xlink" x="0px" y="0px"
	 viewBox="0 0 539 512" style="enable-background:new 0 0 539 512;" xml:space="preserve">
<g>
	<path d="M410,0c-71,0.2-128,58.9-128,129.9V207H8l-7,6v300h408V213l-7-6h-87v-77.3c0-52.6,42-96.2,94.6-96.7
		c53.1-0.5,96.4,42.5,96.4,95.5V209h10c0,0,1,7-3,12c-1.1,1.3-3.8,3.8-7,6.5v2c0,9.1,7.4,16.5,16.5,16.5s16.5-7.4,16.5-16.5v-101
		C539,57.4,481.2-0.2,410,0z M93.5,211c9.1,0,16.5,2,16.5,4.5s-7.4,4.5-16.5,4.5S77,218,77,215.5S84.4,211,93.5,211z M376,246v234
		H34V246H376z"/>
	<path d="M192.7,389.9v28.3c0,6.7,5.5,12.2,12.2,12.2h0c6.7,0,12.2-5.5,12.2-12.2v-29.1c6.7-4.3,11.1-11.7,11.1-20.2
		c0-13.3-10.7-24-24-24s-24,10.7-24,24C180.3,378,185.3,385.9,192.7,389.9z"/>
</g>
</svg>
