<?xml version="1.0" encoding="utf-8"?>
<!-- Generator: Adobe Illustrator 21.1.0, SVG Export Plug-In . SVG Version: 6.00 Build 0)  -->
<svg version="1.1" id="Layer_1" xmlns="http://www.w3.org/2000/svg" xmlns:xlink="http://www.w3.org/1999/xlink" x="0px" y="0px"
	 viewBox="0 0 445 512" style="enable-background:new 0 0 445 512;" xml:space="preserve">
<path d="M445.8,511.8l-234.5-63.5v-83.4h32.1v65l170.4,33.4V48.2L243.2,81.6v61l-31.9,4V63L445.8,0C445.8,0,445.8,511.8,445.8,511.8
	z M137.5,383.1v-42.5L0,330.2l0-32.9l169.4,14.4l0.2,20.4l84-76.2l-83.8-75.6l-0.2,19.8L0,214.7l0-32.9l137.5-10.4V129
	c0-4.7,2.8-8.8,7-10.6c4.2-1.8,9.1-0.7,12.3,2.6l133.6,127c4.3,4.5,4.3,11.6,0,16L156.8,391c-3.2,3.3-8.1,4.3-12.3,2.6
	C140.3,391.9,137.5,387.7,137.5,383.1z"/>
</svg>
