<?xml version="1.0" encoding="utf-8"?>
<!-- Generator: Adobe Illustrator 21.1.0, SVG Export Plug-In . SVG Version: 6.00 Build 0)  -->
<svg version="1.1" id="Layer_1" xmlns="http://www.w3.org/2000/svg" xmlns:xlink="http://www.w3.org/1999/xlink" x="0px" y="0px"
	 viewBox="0 0 391.4 512" style="enable-background:new 0 0 391.4 512;" xml:space="preserve">
<g>
	<rect x="52.5" y="314.9" width="32" height="197.1"/>
	<path d="M274.1,256.4l-2.9,0.6c-3.6,0.7-6.2,3.9-6.2,7.5v39.2l18.2,1.1v-40.9C283.2,259.1,278.8,255.5,274.1,256.4z M275.5,279.7
		v8.1c0,1.5-0.9,2.7-2,2.7c-1,0-1.9-1.1-1.9-2.6v-8c-1.1-0.8-1.8-2.4-1.8-4.2c0-2.8,1.7-5.3,3.8-5.6c2.2-0.3,3.9,1.9,3.9,4.8
		C277.5,276.9,276.7,278.7,275.5,279.7z M274.1,256.4l-2.9,0.6c-3.6,0.7-6.2,3.9-6.2,7.5v39.2l18.2,1.1v-40.9
		C283.2,259.1,278.8,255.5,274.1,256.4z M275.5,279.7v8.1c0,1.5-0.9,2.7-2,2.7c-1,0-1.9-1.1-1.9-2.6v-8c-1.1-0.8-1.8-2.4-1.8-4.2
		c0-2.8,1.7-5.3,3.8-5.6c2.2-0.3,3.9,1.9,3.9,4.8C277.5,276.9,276.7,278.7,275.5,279.7z M52.5,0v135.6h32V32h274.8v1.1L225.8,62.7
		v424.4L359.4,512h32V0H52.5z M359.3,479.3l-101.5-18.4L258.6,88l100.7-22V479.3z M283.2,263.9c0-4.8-4.4-8.4-9.1-7.5l-2.9,0.6
		c-3.6,0.7-6.2,3.9-6.2,7.5v39.2l18.2,1.1V263.9z M275.5,279.7v8.1c0,1.5-0.9,2.7-2,2.7c-1,0-1.9-1.1-1.9-2.6v-8
		c-1.1-0.8-1.8-2.4-1.8-4.2c0-2.8,1.7-5.3,3.8-5.6c2.2-0.3,3.9,1.9,3.9,4.8C277.5,276.9,276.7,278.7,275.5,279.7z"/>
	<polygon points="82.8,164.6 140.3,224.8 82.8,284.9 114.3,284.9 171.8,224.8 114.3,164.6 	"/>
	<polygon points="62.1,284.9 74.8,284.9 132.3,224.8 74.8,164.6 62.1,164.6 104.5,209 0,209 0,240 104.6,240.4 	"/>
</g>
</svg>
