<?xml version="1.0" encoding="utf-8"?>
<!-- Generator: Adobe Illustrator 21.1.0, SVG Export Plug-In . SVG Version: 6.00 Build 0)  -->
<svg version="1.1" id="Layer_1" xmlns="http://www.w3.org/2000/svg" xmlns:xlink="http://www.w3.org/1999/xlink" x="0px" y="0px"
	 viewBox="0 0 445 512" style="enable-background:new 0 0 445 512;" xml:space="preserve">
<path d="M0,0.2l234.5,63.5v83.4h-32.1v-65L32,48.7v415.1l170.6-33.4v-61l31.9-4V449L0,512C0,512,0,0.2,0,0.2z M289.7,383.3v-42.5
	l-137.5-10.4l0-32.9L321.6,312l0.2,20.4l84-76.2L322,180.7l-0.2,19.8L152.2,215v-32.9l137.5-10.4v-42.4c0-4.7,2.8-8.8,7-10.6
	c4.2-1.8,9.1-0.7,12.3,2.6l133.6,127c4.3,4.5,4.3,11.6,0,16L309,391.2c-3.2,3.3-8.1,4.3-12.3,2.6C292.5,392.1,289.7,388,289.7,383.3
	z"/>
</svg>
