<?xml version="1.0" encoding="utf-8"?>
<!-- Generator: Adobe Illustrator 21.1.0, SVG Export Plug-In . SVG Version: 6.00 Build 0)  -->
<svg version="1.1" id="Layer_1" xmlns="http://www.w3.org/2000/svg" xmlns:xlink="http://www.w3.org/1999/xlink" x="0px" y="0px"
	 viewBox="0 0 392.3 512" style="enable-background:new 0 0 392.3 512;" xml:space="preserve">
<g>
	<rect x="52.5" y="314.9" width="32" height="197.1"/>
	<path d="M275,256.4l-2.9,0.6c-3.6,0.7-6.2,3.9-6.2,7.5v39.2l18.2,1.1v-40.9C284.1,259.1,279.7,255.5,275,256.4z M276.4,279.7v8.1
		c0,1.5-0.9,2.7-2,2.7c-1,0-1.9-1.1-1.9-2.6v-8c-1.1-0.8-1.8-2.4-1.8-4.2c0-2.8,1.7-5.3,3.8-5.6c2.2-0.3,3.9,1.9,3.9,4.8
		C278.4,276.9,277.6,278.7,276.4,279.7z M275,256.4l-2.9,0.6c-3.6,0.7-6.2,3.9-6.2,7.5v39.2l18.2,1.1v-40.9
		C284.1,259.1,279.7,255.5,275,256.4z M276.4,279.7v8.1c0,1.5-0.9,2.7-2,2.7c-1,0-1.9-1.1-1.9-2.6v-8c-1.1-0.8-1.8-2.4-1.8-4.2
		c0-2.8,1.7-5.3,3.8-5.6c2.2-0.3,3.9,1.9,3.9,4.8C278.4,276.9,277.6,278.7,276.4,279.7z M52.5,0v135.6h32V32h275.7v1.1L226.7,62.7
		v424.4L360.3,512h32V0H52.5z M360.2,479.3l-101.5-18.4L259.5,88l100.7-22V479.3z M284.1,263.9c0-4.8-4.4-8.4-9.1-7.5l-2.9,0.6
		c-3.6,0.7-6.2,3.9-6.2,7.5v39.2l18.2,1.1V263.9z M276.4,279.7v8.1c0,1.5-0.9,2.7-2,2.7c-1,0-1.9-1.1-1.9-2.6v-8
		c-1.1-0.8-1.8-2.4-1.8-4.2c0-2.8,1.7-5.3,3.8-5.6c2.2-0.3,3.9,1.9,3.9,4.8C278.4,276.9,277.6,278.7,276.4,279.7z"/>
	<polygon points="89,284.9 31.5,224.7 89,164.6 57.5,164.6 0,224.7 57.5,284.9 	"/>
	<polygon points="109.7,164.6 97,164.6 39.5,224.7 97,284.9 109.7,284.9 67.3,240.5 171.8,240.5 171.8,209.5 67.2,209.1 	"/>
</g>
</svg>
