<?xml version="1.0" encoding="utf-8"?>
<!-- Generator: Adobe Illustrator 21.1.0, SVG Export Plug-In . SVG Version: 6.00 Build 0)  -->
<svg version="1.1" id="Shape_1_1_" xmlns="http://www.w3.org/2000/svg" xmlns:xlink="http://www.w3.org/1999/xlink" x="0px" y="0px"
	 viewBox="0 0 512 512" style="enable-background:new 0 0 512 512;" xml:space="preserve">
<g>
	<path d="M256,0C114.6,0,0,114.6,0,256s114.6,256,256,256s256-114.6,256-256S397.4,0,256,0z M255,480C131.3,480,31,379.7,31,256
		S131.3,32,255,32s224,100.3,224,224S378.7,480,255,480z"/>
	<path d="M245.6,422.9L116.9,294.2c-6.2-6.2-6.2-16.4,0-22.6l0,0c6.2-6.2,16.4-6.2,22.6,0l100.1,100.1V102.3c0-8.8,7.2-16,16-16l0,0
		c8.8,0,16,7.2,16,16v269.3l100.2-100.2c6.2-6.2,16.4-6.2,22.6,0l0,0c6.2,6.2,6.2,16.4,0,22.6L265.6,422.9
		C260.1,428.4,251.1,428.4,245.6,422.9z"/>
</g>
</svg>
