<?xml version="1.0" encoding="utf-8"?>
<!-- Generator: Adobe Illustrator 21.1.0, SVG Export Plug-In . SVG Version: 6.00 Build 0)  -->
<svg version="1.1" id="Shape_1_1_" xmlns="http://www.w3.org/2000/svg" xmlns:xlink="http://www.w3.org/1999/xlink" x="0px" y="0px"
	 viewBox="0 0 512 512" style="enable-background:new 0 0 512 512;" xml:space="preserve">
<g>
	<path d="M256,512c141.4,0,256-114.6,256-256S397.4,0,256,0S0,114.6,0,256S114.6,512,256,512z M257,32c123.7,0,224,100.3,224,224
		S380.7,480,257,480S33,379.7,33,256S133.3,32,257,32z"/>
	<path d="M266.4,89.1l128.7,128.7c6.2,6.2,6.2,16.4,0,22.6l0,0c-6.2,6.2-16.4,6.2-22.6,0L272.4,140.3v269.3c0,8.8-7.2,16-16,16l0,0
		c-8.8,0-16-7.2-16-16V140.3L140.2,240.6c-6.2,6.2-16.4,6.2-22.6,0l0,0c-6.2-6.2-6.2-16.4,0-22.6L246.4,89.1
		C251.9,83.6,260.9,83.6,266.4,89.1z"/>
</g>
</svg>
