<?xml version="1.0" encoding="utf-8"?>
<!-- Generator: Adobe Illustrator 21.1.0, SVG Export Plug-In . SVG Version: 6.00 Build 0)  -->
<svg version="1.1" id="Shape_1_1_" xmlns="http://www.w3.org/2000/svg" xmlns:xlink="http://www.w3.org/1999/xlink" x="0px" y="0px"
	 viewBox="0 0 512 512" style="enable-background:new 0 0 512 512;" xml:space="preserve">
<g>
	<path d="M512,256C512,114.6,397.4,0,256,0S0,114.6,0,256s114.6,256,256,256S512,397.4,512,256z M32,255C32,131.3,132.3,31,256,31
		s224,100.3,224,224S379.7,479,256,479S32,378.7,32,255z"/>
	<path d="M89.1,245.6l128.7-128.7c6.2-6.2,16.4-6.2,22.6,0l0,0c6.2,6.2,6.2,16.4,0,22.6L140.3,239.6h269.3c8.8,0,16,7.2,16,16l0,0
		c0,8.8-7.2,16-16,16H140.3l100.2,100.2c6.2,6.2,6.2,16.4,0,22.6l0,0c-6.2,6.2-16.4,6.2-22.6,0L89.1,265.6
		C83.6,260.1,83.6,251.1,89.1,245.6z"/>
</g>
</svg>
