<?xml version="1.0" encoding="utf-8"?>
<!-- Generator: Adobe Illustrator 21.1.0, SVG Export Plug-In . SVG Version: 6.00 Build 0)  -->
<svg version="1.1" id="Layer_1" xmlns="http://www.w3.org/2000/svg" xmlns:xlink="http://www.w3.org/1999/xlink" x="0px" y="0px"
	 viewBox="0 0 323.8 512" style="enable-background:new 0 0 323.8 512;" xml:space="preserve">
<path d="M151.9,476.8L4.7,329.6c-6.2-6.2-6.2-16.4,0-22.6l0,0c6.2-6.2,16.4-6.2,22.6,0l118.6,118.6V47c0-8.8,7.2-16,16-16h0
	c8.8,0,16,7.2,16,16v378.6L296.5,307c6.2-6.2,16.4-6.2,22.6,0l0,0c6.2,6.2,6.2,16.4,0,22.6L171.9,476.8
	C166.4,482.3,157.4,482.3,151.9,476.8z"/>
</svg>
