<?xml version="1.0" encoding="utf-8"?>
<!-- Generator: Adobe Illustrator 21.1.0, SVG Export Plug-In . SVG Version: 6.00 Build 0)  -->
<svg version="1.1" id="Layer_1" xmlns="http://www.w3.org/2000/svg" xmlns:xlink="http://www.w3.org/1999/xlink" x="0px" y="0px"
	 viewBox="0 0 450 512" style="enable-background:new 0 0 450 512;" xml:space="preserve">
<path d="M4.2,246L151.4,98.8c6.2-6.2,16.4-6.2,22.6,0l0,0c6.2,6.2,6.2,16.4,0,22.6L55.4,240H434c8.8,0,16,7.2,16,16v0
	c0,8.8-7.2,16-16,16H55.4L174,390.6c6.2,6.2,6.2,16.4,0,22.6l0,0c-6.2,6.2-16.4,6.2-22.6,0L4.2,266C-1.3,260.5-1.3,251.5,4.2,246z"
	/>
</svg>
