<?xml version="1.0" encoding="utf-8"?>
<!-- Generator: Adobe Illustrator 21.1.0, SVG Export Plug-In . SVG Version: 6.00 Build 0)  -->
<svg version="1.1" id="Layer_1" xmlns="http://www.w3.org/2000/svg" xmlns:xlink="http://www.w3.org/1999/xlink" x="0px" y="0px"
	 viewBox="0 0 323.8 512" style="enable-background:new 0 0 323.8 512;" xml:space="preserve">
<path d="M171.9,35.2l147.2,147.2c6.2,6.2,6.2,16.4,0,22.6l0,0c-6.2,6.2-16.4,6.2-22.6,0L177.9,86.4V465c0,8.8-7.2,16-16,16h0
	c-8.8,0-16-7.2-16-16V86.4L27.3,205c-6.2,6.2-16.4,6.2-22.6,0l0,0c-6.2-6.2-6.2-16.4,0-22.6L151.9,35.2
	C157.4,29.7,166.4,29.7,171.9,35.2z"/>
</svg>
