<?xml version="1.0" encoding="utf-8"?>
<!-- Generator: Adobe Illustrator 21.1.0, SVG Export Plug-In . SVG Version: 6.00 Build 0)  -->
<svg version="1.1" id="Layer_7" xmlns="http://www.w3.org/2000/svg" xmlns:xlink="http://www.w3.org/1999/xlink" x="0px" y="0px"
	 viewBox="0 0 512.4 512" style="enable-background:new 0 0 512.4 512;" xml:space="preserve">
<g>
	<path d="M256.4,1.2c-141.4,0-256,114.6-256,256s114.6,256,256,256c141.4,0,256-114.6,256-256S397.8,1.2,256.4,1.2z M256.4,33.2
		c111.8,0,204.4,81.9,221.3,188.9H339.8h-36.2c6.3,9,10,20.1,10,31.9v0.1c0,30.8-25,55.7-55.8,55.7c-30.8,0-55.7-24.9-55.8-55.7V254
		c0-11.9,3.7-22.9,10-31.9h-36.2H35.1C52,115,144.6,33.2,256.4,33.2z M256.4,481.2c-123.7,0-224-100.3-224-224c0-1,0-2.1,0-3.1H170
		c0,48.5,39.4,87.8,87.9,87.8c48.5,0,87.9-39.3,87.9-87.8h134.5c0,1,0,2.1,0,3.1C480.4,380.9,380.1,481.2,256.4,481.2z"/>
	<rect x="249.2" y="52.3" width="10" height="54.7"/>
	<polygon points="187.8,122.7 197,119 175.4,66.8 166.3,70.5 176.2,94.2 	"/>
	<polygon points="138.6,158.4 145.7,151.3 106.7,112.4 99.7,119.4 115.9,135.2 	"/>
	<polygon points="91.9,190.3 115.5,200.2 119.2,191.1 68.3,170 64.5,179.1 	"/>
	<polygon points="397.2,200.2 447.7,179.1 444,170 393.5,190.7 	"/>
	<polygon points="408.6,119.4 401.5,112.4 362.6,151.3 369.6,158.4 	"/>
	<polygon points="342,70.5 332.8,66.8 311.7,117.8 320.8,121.5 	"/>
	<polygon points="77.7,347.6 114.6,347.6 114.6,337.7 87.7,337.7 87.7,317.8 114.2,317.8 114.2,307.9 87.7,307.9 87.7,288.4 
		114.6,288.4 114.6,278 77.7,278 	"/>
	<polygon points="437.1,288.4 437.1,278 401.5,278 401.5,342.7 411.4,342.7 411.4,317.8 437.1,317.8 437.1,307.9 411.4,307.9 
		411.4,288.4 	"/>
	<path d="M264.3,276.5c13.1-3.3,21.2-16.6,17.9-29.7c-0.9-3.8-2.7-7.1-5.1-9.9l43.5-63.1l-15.8-9.5l-44,64c-2.7-0.3-5.5-0.1-8.2,0.6
		c-13.1,3.3-21.2,16.6-17.9,29.7C237.9,271.7,251.2,279.8,264.3,276.5z"/>
</g>
</svg>
