<?xml version="1.0" encoding="utf-8"?>
<!-- Generator: Adobe Illustrator 21.1.0, SVG Export Plug-In . SVG Version: 6.00 Build 0)  -->
<svg version="1.1" id="Layer_6" xmlns="http://www.w3.org/2000/svg" xmlns:xlink="http://www.w3.org/1999/xlink" x="0px" y="0px"
	 viewBox="0 0 456.1 512" style="enable-background:new 0 0 456.1 512;" xml:space="preserve">
<g>
	<path d="M29.4,71.7c1.7,0,3.1-1.4,3.1-3.1V13.3c0-1.7-1.4-3.1-3-3c-0.9,0-1.6,0.4-2.1,0.9s-0.9,1.3-0.9,2.1v55.4
		C26.4,70.5,27.8,71.8,29.4,71.7z"/>
	<path d="M16.2,71.8c1.7,0,3.1-1.4,3.1-3.1L19.4,3c0-1.7-1.4-3.1-3-3c-0.9,0-1.5,0.3-2.1,0.9S13.4,2.2,13.4,3l-0.1,65.7
		C13.2,70.5,14.5,71.8,16.2,71.8z"/>
	<path d="M3.1,71.9c1.6-0.1,3-1.4,3.1-3.1V13.5c0-1.7-1.4-3.1-3-3c-0.9,0-1.5,0.3-2.1,0.9c-0.5,0.5-0.9,1.3-0.9,2.1v55.4
		C0.1,70.6,1.4,72,3.1,71.9z"/>
	<path d="M453,10.3c-0.9,0-1.6,0.4-2.1,0.9s-0.9,1.3-0.9,2.1v55.4c0,1.7,1.4,3.1,3,3c1.7,0,3.1-1.4,3.1-3.1V13.3
		C456,11.6,454.6,10.2,453,10.3z"/>
	<path d="M439.7,71.8c1.7,0,3.1-1.4,3.1-3.1l0.1-65.6c0-1.7-1.4-3.1-3-3c-0.9,0-1.5,0.3-2.1,0.9s-0.9,1.3-0.9,2.1l-0.1,65.7
		C436.7,70.5,438,71.8,439.7,71.8z"/>
	<path d="M426.5,71.9c1.6-0.1,3-1.4,3.1-3.1V13.5c0-1.7-1.4-3.1-3-3c-0.9,0-1.5,0.3-2.1,0.9c-0.5,0.5-0.9,1.3-0.9,2.1v55.4
		C423.6,70.6,424.9,72,426.5,71.9z"/>
	<g>
		<path d="M424,286.3C424,392.7,335.6,480,228,480S32,392.7,32,286.3V95.9H0v190.4C0,346.9,23.6,403.5,66.8,446
			s100.6,66.1,161.2,66.1c60.5,0,117.9-23.6,161.2-66.1c43.2-42.5,66.8-99.1,66.8-159.7V95.9h-32L424,286.3L424,286.3z"/>
	</g>
</g>
</svg>
