<?xml version="1.0" encoding="utf-8"?>
<!-- Generator: Adobe Illustrator 21.1.0, SVG Export Plug-In . SVG Version: 6.00 Build 0)  -->
<svg version="1.1" id="Layer_1" xmlns="http://www.w3.org/2000/svg" xmlns:xlink="http://www.w3.org/1999/xlink" x="0px" y="0px"
	 viewBox="0 0 495.3 512" style="enable-background:new 0 0 495.3 512;" xml:space="preserve">
<g>
	<g>
		<path d="M262,217.7v-18.8l-31.9,0.2V218l-174.3-1.1L0.1,288.8l55.7,70.8l439.5,2.2V217.7H262z M462.2,327.7H72.7l-29.8-39.5
			l29.8-39.3h389.4v78.8H462.2z M495.3,106.9l-58-71.2H262V6.8c0-3.3-7.1-6-15.9-6s-15.9,2.7-15.9,6v28.8H0v142.6h436.3L495.3,106.9
			z M246,3.8c7.2,0,12.9,0.9,12.9,2s-5.8,2-12.9,2s-12.9-0.9-12.9-2S238.9,3.8,246,3.8z M30.9,146.4V67.6h388.5l29,39.4
			c0,0-28.9,39.3-29,39.4H30.9z M230.1,510.9H262l0.1-129.5l-31.9,0.1v129.4H230.1z"/>
	</g>
</g>
</svg>
