<?xml version="1.0" encoding="utf-8"?>
<!-- Generator: Adobe Illustrator 21.1.0, SVG Export Plug-In . SVG Version: 6.00 Build 0)  -->
<svg version="1.1" id="Layer_7" xmlns="http://www.w3.org/2000/svg" xmlns:xlink="http://www.w3.org/1999/xlink" x="0px" y="0px"
	 viewBox="0 0 555 512" style="enable-background:new 0 0 555 512;" xml:space="preserve">
<g id="_x33_2_1_">
	<g id="Layer_4">
	</g>
	<g>
		<path d="M285.6,351.6l-1.3-2l-7,6.2l0.6,1.3c0.7,1.7,6.8,6.9,10.7,8l1.6,0.4l4-8.1l-1.9-0.9C290.2,355.7,286.3,352.6,285.6,351.6z
			"/>
		<path d="M367,278.5c-2.4,1.4-4.5,3.1-6.5,4.6c-1.1,0.8-2,1.6-3,2.3l-2,1.5l7.3,6.5l1.3-1.2c2.3-2,5.2-4.1,8.1-6.2l1.6-1.2
			l-5.2-7.3L367,278.5z"/>
		<path d="M273.4,324c-0.3-0.6-0.3-0.7-0.3-1.7v0c0-2.5,0-5.1,0.5-7l0.6-2.1l-9.5-1.9l-0.4,1.9c-0.6,2.9-0.6,6.3-0.6,9l0,5.5l11.4-1
			L273.4,324z"/>
		<path d="M345.1,305.2l1.1,3.8l-1.7-0.5C344.5,308.6,344.6,307.3,345.1,305.2z"/>
		<path d="M358.5,298.1l-1.3,1.7c-1.8,2.4-2.8,4.4-3.4,6.7l-0.8,3.1l-1.1-3.6c-0.1,0.5-3.2-10.6-3.2-10.6c0.2-0.4,0.4-0.8,0.6-1
			l1.1-1.7L358.5,298.1z"/>
		<path d="M332.4,350.9c-1.6,0.9-3.5,1.6-5.5,2.4c-1.4,0.6-2.9,1.1-4.4,1.8l-1.7,0.7l2.9,8.7l1.8-0.5c3.4-0.9,8.2-2.4,11.8-5
			l1.5-1.1l-4.9-7.9L332.4,350.9z"/>
		<path d="M346.9,329.8v-3.4c0-2.9-0.5-5.3-1.1-7.9l-0.5-2.1l3.3-0.2l0.5,1.6l3.1,10.5l0.6,2.1L346.9,329.8z"/>
		<path d="M412.7,268.4c-3.6-0.5-7.1-0.9-10.9-0.9l-2.1,0l0,9.5l2.1,0c0,0,0,0,0,0c3.5,0,6.9,0.5,10.6,1l1.9,0.3l2.1-9.5
			L412.7,268.4z"/>
		<path d="M344.4,337.3c-1.2,3.2-2.9,6-4.9,8.3l-1.5,1.7l8.2,5.5l1.1-1.5c2.5-3.3,4.3-7.1,6.1-10.8l-1.8-0.9l0,0l1.8,0.9l1-2.1
			l-9.3-2.8L344.4,337.3z"/>
		<path d="M388.4,268.5l-0.3,0.1c-3.6,1.1-7.4,2.2-11.1,3.9l-2.2,1l5.3,8.5l1.7-0.9c2.9-1.6,5.7-2.5,8.8-3h3l-2.1-9.5L388.4,268.5z"
			/>
		<path d="M154.3,334.3l-1.1-1.7l-8.1,5.4l1.3,1.7c2.3,3,5.1,5.7,9.2,8.8l1.7,1.3l5.1-8.2l-1.5-1.1
			C157.8,338.4,155.8,336.5,154.3,334.3z"/>
		<path d="M205.2,341.1c0,0-7.3,7.4-10.4,9.2l-1,0.6l0-11.5c2.3-2.1,3.7-4.6,3.7-4.6L205.2,341.1z"/>
		<path d="M220.3,291.4l8.1,4.5c2-3,6.4-8.4,9.5-10.6l-7-6.2C226.9,281,222.1,287.1,220.3,291.4z"/>
		<path d="M167.5,344.1l-2,9.2c9,3.2,16.8,2,16.8,2l0-9.3C179.2,346.3,171,345.5,167.5,344.1z"/>
		<path d="M237.3,274.6l6.3,7.4c1.7-2.1,7.8-5,10.4-4.5l0-9.3C250.3,265.7,238.4,270.3,237.3,274.6z"/>
		<path d="M269.8,294.1c0,2.4-0.6,5.1-1.5,7.3l-1.2,2.6l9.1,2.5l0.7-1.4c1.6-3.4,2.4-7.2,2.4-11.4l0-2.1l-9.5,0.9L269.8,294.1z"/>
		<path d="M278.6,343.3c-1.7-3.1-3.4-6-3.9-8.8l-0.4-2.2l-9.4,2.8l0.6,1.9c0.9,3,2.2,5.5,3.6,8.3c0.4,0.8,0.8,1.6,1.2,2.5l0.9,1.9
			l8.3-4.6L278.6,343.3z"/>
		<path d="M266.9,285.6l1,1.5l8.2-4.6l-1.1-1.8c-2.4-3.7-5.5-6.6-9.5-9l-1.7-1l-5.3,8.5l2.3,0.8
			C262.9,280.8,264.9,282.6,266.9,285.6z"/>
		<path d="M149.4,319.2l-9.5,0l0,2c0,1.7,0,3.9,0.6,6.3l0.5,1.8l8.4-1.7L149.4,319.2z"/>
		<path d="M311.7,356.7c0,0-3.3,0.3-4.4,0.4c-1.6,0.1-6.8,0.1-6.9,0.1l-2,0l0,9.5l2.1,0c0.2,0,5.1-0.1,6.8-0.1
			c1.4-0.1,5.4-0.4,5.6-0.4l2.2-0.2l-1.4-9.5L311.7,356.7z"/>
		<path d="M205.3,317.5c-0.1,0.2-2.5,4.3-3.2,5.5c-0.7,1.2-2.4,5.2-2.6,5.7l-0.7,1.6l8.4,4.8l0.9-2.1c0.5-1.3,2.3-5.5,3.8-7.8
			c0.9-1.4,2.2-3.4,2.2-3.4l1.2-2l-9.1-3.8L205.3,317.5z"/>
		<path d="M208.4,311.2l8.4,4c1.7-3.7,5.2-11.2,8.1-15.1l-8.9-4.2C213,300.4,210.4,304.3,208.4,311.2z"/>
		<path d="M177,146.3c-26.3,0-47.6-21.4-47.6-47.6S150.7,51,177,51c26.3,0,47.6,21.4,47.6,47.6S203.3,146.3,177,146.3z M177,73
			c-14.1,0-25.6,11.5-25.6,25.6s11.5,25.6,25.6,25.6c14.1,0,25.6-11.5,25.6-25.6S191.1,73,177,73z"/>
		<path d="M177.2,256.8l-14.1-18c-5.9-7.7-21.2-28-36.2-51.5c-25.8-40.3-38.4-69.6-38.4-89.5c0-11.9,2.3-23.5,7-34.5
			c4.5-10.6,10.9-20.1,19-28.1c8.1-8.1,17.6-14.5,28.1-19c11-4.6,22.6-7,34.5-7s23.5,2.3,34.5,7c10.6,4.5,20,10.8,28.2,19
			c8.1,8.1,14.5,17.6,18.9,28.1c4.6,10.8,7,22.4,7,34.5c0,20-12.6,49.3-38.4,89.6c-17.4,27.1-35,49.9-36.6,52l0,0L177.2,256.8z
			 M177.1,33.4c-8.7,0-17.2,1.7-25.1,5.1c-7.7,3.2-14.6,7.9-20.5,13.8c-5.9,5.9-10.6,12.8-13.9,20.5c-3.3,7.9-5,16.4-5,25.1
			c0,8.4,4.5,29.6,34.6,76.6c11.3,17.6,22.8,33.5,30,43.1c6.6-8.8,18.3-24.9,30-43.1c30.1-47,34.6-68.1,34.6-76.6
			c0-8.8-1.7-17.3-5.1-25.1l0,0c-3.2-7.7-7.9-14.6-13.8-20.5c-5.9-5.9-12.8-10.6-20.5-13.8C194.2,35.1,185.8,33.4,177.1,33.4z"/>
		<polygon points="122.7,325.5 125,298.5 153.1,301.9 154.6,286.3 126.4,282.9 128.9,256.4 111.8,254.6 109.4,281.1 81.2,277.7 
			79.9,293.9 107.9,296.8 105.4,323.2 		"/>
		<path d="M415.7,193l-115.2-71.4l-4.9,3c-4.7,13.8-11.8,29.3-21.5,46.8l26.4-16.5l44.6,150.3c0.4-1.5,0.9-3.6,1.8-5.9
			c0.3-0.7,1.2-2.6,1.9-4l-41.2-136.7l91.8,57.1l101.2,229.5l-120.6-74.3l-10.1-5.7L353,309.6l-0.3,1.3l-6.4-1.8l2.1,7.1l4.8-0.4
			c0,0,1,4.8,1.2,6.4c0.2,2,0.4,8.3,0.4,8.3l-2.1-0.2l11.8,39.8l-3.9,1l-16.3,11.5h1.6l-151.9,96.1V350.9l-2.2,1.2l-3.4-8.9l4.7-3.1
			c0.3-0.2,1-0.6,1-0.6v-50.5l-7.4,10.1v177.8L38.8,408.8l33.3-233.3l13.2,5.3c-4.3-7.3-19.6-37.8-21.5-42.2l-19.2-8.6L0.2,422.5
			L185.4,512l185.2-115.2L555,510.1L415.7,193z"/>
	</g>
</g>
</svg>
