<?xml version="1.0" encoding="utf-8"?>
<!-- Generator: Adobe Illustrator 21.1.0, SVG Export Plug-In . SVG Version: 6.00 Build 0)  -->
<svg version="1.1" id="Layer_2" xmlns="http://www.w3.org/2000/svg" xmlns:xlink="http://www.w3.org/1999/xlink" x="0px" y="0px"
	 viewBox="0 0 491.2 512" style="enable-background:new 0 0 491.2 512;" xml:space="preserve">
<g id="_x33_2">
	<path d="M376.7,367.6c-7.2,7.2-14.8,14.5-22.4,21.6c58.3,10.2,94,27.9,94,44.3c0,25.1-83.3,53-202.8,53s-202.8-28-202.8-53
		c0-16.4,35.8-34.1,94-44.3c-7.7-7.1-15.2-14.3-22.4-21.6C45.1,381.2,0,405.4,0,433.5c0,43.5,107.9,77.6,245.6,77.6
		s245.6-34.1,245.6-77.6C491,405.4,445.8,381.2,376.7,367.6z"/>
	<path d="M245.6,241.1c-46.2,0-83.7-37.5-83.7-83.7s37.5-83.7,83.7-83.7c46.2,0,83.7,37.5,83.7,83.7S291.8,241.1,245.6,241.1z
		 M245.6,105.7c-28.5,0-51.7,23.2-51.7,51.7s23.2,51.7,51.7,51.7s51.7-23.2,51.7-51.7S274.2,105.7,245.6,105.7z"/>
	<path d="M245.7,32c33.5,0,65,13,88.6,36.7C358,92.4,371,123.9,371,157.4c0,18.9-9.5,64.8-72.8,159.4
		c-18.9,28.2-37.9,53.7-52.3,72.2c-14.5-18.6-33.6-44.3-52.6-72.6c-63.6-94.8-73.1-140.4-73.1-159.1c0-33.5,13-65,36.7-88.6
		C180.7,45,212.2,32,245.7,32 M245.7,0C158.7,0,88.3,70.5,88.3,157.4c0,96,157.6,282.8,157.6,282.8S403,254.2,403,157.4
		C403,70.5,332.6,0,245.7,0L245.7,0z"/>
</g>
</svg>
