<?xml version="1.0" encoding="utf-8"?>
<!-- Generator: Adobe Illustrator 21.1.0, SVG Export Plug-In . SVG Version: 6.00 Build 0)  -->
<svg version="1.1" id="Layer_1" xmlns="http://www.w3.org/2000/svg" xmlns:xlink="http://www.w3.org/1999/xlink" x="0px" y="0px"
	 viewBox="0 0 426.1 512" style="enable-background:new 0 0 426.1 512;" xml:space="preserve">
<g>
	<g>
		<path d="M194.3,122.2c-10.3,6-13.9,19.2-7.9,29.5c6,10.3,19.2,13.9,29.5,7.9c10.3-6,13.9-19.2,7.9-29.5
			C217.9,119.8,204.7,116.2,194.3,122.2z M312.3,24.2C232.2-22.1,129.7,5.4,83.5,85.5c-38.4,66.5-26,148.4,25.2,200.8L30,510.2
			l1.7,1l154.3-179.8C257.3,350,335,319.9,373.6,253C419.9,172.9,392.4,70.5,312.3,24.2z M346.5,237.9
			c-37.6,65-120.7,87.3-185.8,49.8C95.7,250.2,73.4,167,111,101.9c37.6-65,120.7-87.3,185.8-49.8
			C361.8,89.7,384.1,172.9,346.5,237.9z M176.5,81.3c-33,19.1-40.7,53-39.5,71.5c1,6.5,20,8,20.3-9.2c2.6-21.7,13.1-36.2,28.9-45.4
			c13.8-8,34.5-11.2,53.7-2.3c12.1,7,24-5.4,18.1-13C239.4,70.3,206.8,63.8,176.5,81.3z"/>
	</g>
</g>
</svg>
