<?xml version="1.0" encoding="utf-8"?>
<!-- Generator: Adobe Illustrator 21.1.0, SVG Export Plug-In . SVG Version: 6.00 Build 0)  -->
<svg version="1.1" id="Layer_2" xmlns="http://www.w3.org/2000/svg" xmlns:xlink="http://www.w3.org/1999/xlink" x="0px" y="0px"
	 viewBox="0 0 366.4 512" style="enable-background:new 0 0 366.4 512;" xml:space="preserve">
<g>
	<path d="M183.2,120.7c34.4,0,62.4,28,62.4,62.3s-28,62.3-62.4,62.3s-62.4-28-62.4-62.3S148.8,120.7,183.2,120.7 M183.2,88.7
		c-52.1,0-94.4,42.2-94.4,94.3s42.3,94.3,94.4,94.3s94.4-42.2,94.4-94.3S235.3,88.7,183.2,88.7L183.2,88.7z"/>
	<path d="M183.2,32c40.4,0,78.4,15.7,106.9,44.2c28.6,28.5,44.3,66.5,44.3,106.8c0,39.1-30.4,106-85.7,188.5
		c-23.9,35.6-48,67.6-65.2,89.6c-17.3-22-41.5-54.2-65.5-89.9C43.2,259.6,32,205.4,32,183c0-40.3,15.7-78.3,44.3-106.8
		C104.8,47.7,142.8,32,183.2,32 M183.2,0C82,0,0,81.9,0,183c0,111.7,183.5,329,183.5,329s182.9-216.3,182.9-329
		C366.4,81.9,284.4,0,183.2,0L183.2,0z"/>
</g>
</svg>
