<?xml version="1.0" encoding="utf-8"?>
<!-- Generator: Adobe Illustrator 21.1.0, SVG Export Plug-In . SVG Version: 6.00 Build 0)  -->
<svg version="1.1" id="Layer_2" xmlns="http://www.w3.org/2000/svg" xmlns:xlink="http://www.w3.org/1999/xlink" x="0px" y="0px"
	 viewBox="0 0 529 512" style="enable-background:new 0 0 529 512;" xml:space="preserve">
<path d="M186,54l160-41l183,57v442l-183-55l-160,43L0,440V0L186,54z M32,42v375l156.3,50l172.9-48L499,469l-2-376L344.1,45.8L186,87
	L32,42z"/>
<path d="M316.5,189.1c0.5-0.5,1-0.8,1.2-0.8l0.4,1.5h-0.8c-0.5,0.2-0.8,0.4-0.8,0.4s-0.1,0-0.4,0s-0.4-0.1-0.4-0.4
	C315.6,189.3,315.9,189.1,316.5,189.1z M315.9,197h0.9v-0.4c0.9-0.8,1.7-1.2,2.2-1.2h0.5l0.4-0.4h0.5l0.4,0.4h0.5
	c0.6,0,1.2-0.1,1.8-0.4c0.3,0,0.7-0.1,1.3-0.4l0.9-0.8h0.4c0.6-0.5,1.2-0.8,1.8-0.8l0.9,0.8c0.3,0,0.5,0.1,0.4,0.4
	c0,0.5-0.5,1-1.4,1.2l-0.9,0.4l-0.9,0.4c-0.3,0-0.6,0-0.9,0c-0.3,0.3-0.6,0.4-0.9,0.4s-0.6,0.1-0.9,0.4c-0.9,0-1.5,0.1-1.8,0.4
	l-0.5,0.4l-0.4,0.4c-0.3,0-0.6,0.1-0.9,0.4l-0.5,0.4l-0.4,0.4c-1.2,0.3-2.3,1-3.2,2c-1.2,1.4-1.8,2.6-1.8,3.7c0,0.5,0.3,1.1,0.9,1.6
	h0.5v0.4c0.3,0.3,0.6,0.4,0.9,0.4v0.4h-3.1c0-0.3-0.1-0.4-0.5-0.4h-0.4h-0.5v-0.4v-0.4c0-0.3-0.1-0.4-0.4-0.4c0,0-0.5,0-1.4,0
	c-0.3-0.3-0.4-0.5-0.4-0.8s0.1-0.5,0.4-0.8c0.6-0.3,0.9-0.5,0.9-0.8v-0.8c0-0.3,0.2-0.4,0.5-0.4l0.4-0.4h0.5h0.4v-0.4l-0.4-0.4
	c-0.3,0-0.5-0.1-0.5-0.4l1.4-0.8c0.3-0.3,0.4-0.5,0.4-0.8c0.3,0,0.5-0.3,0.5-0.8l-0.5-0.4v-0.4h0.5h0.4l0.4-0.4c0.3,0,0.6,0,0.9,0
	C315.7,197.4,315.9,197.3,315.9,197z M318.8,209.6c0,0.3-0.2,0.3-0.4,0c-0.3,0-0.6-0.1-0.9-0.4c-0.6,0-0.9,0-0.9,0s0-0.1,0-0.4
	c0-0.5,0.4-0.7,1.3-0.4l0.5,0.4C318.7,209,318.9,209.3,318.8,209.6z M312.8,190.2v-0.4h0.8h0.4h0.4c0.3,0,0.5,0,0.8,0v0.4v0.4
	c-0.3,0-0.6,0-0.8,0H314l0.4,0.8c-0.3,0-0.7,0-1.2,0h-0.8C312.3,190.9,312.5,190.5,312.8,190.2z M311.1,191.8h-0.4l-0.4,0.4h-0.4
	l-0.4-0.4c0,0.3-0.1,0.4-0.4,0.4h-0.4v-0.4c0-0.2,0.3-0.4,0.8-0.4l0.4-0.4c0.3,0,0.4,0,0.4,0c0.5,0,1,0.1,1.2,0.4
	C311.3,191.4,311.1,191.5,311.1,191.8z M307,189.8h0.4h1.6c-0.3-0.3-0.5-0.4-0.8-0.4V189c0.3,0,0.5,0,0.8,0l0.4-0.4l0.4-0.4h0.4
	c0.3-0.5,0.5-0.8,0.8-0.8v0.4v0.4v0.4l-0.8,0.4h-0.4c-0.3,0.2-0.4,0.5-0.4,0.8c0.5,0,1.1,0.1,1.6,0.4h-0.4h-0.4
	c-0.3,0-0.6,0.1-0.8,0.4c-0.3,0-0.6,0-0.8,0h-0.8c-0.3-0.3-0.5-0.4-0.8-0.4L307,189.8L307,189.8z M304.9,210.8
	c0.3-0.3,0.5-0.4,0.5-0.4l0.4-0.4c0.3,0,0.6,0.1,0.9,0.4c0.3,0,0.5,0.1,0.5,0.4v0.4h-0.5v0.4h-0.9c-0.6,0-0.9-0.1-0.9-0.4V210.8z
	 M297.6,190.2c0.3,0,0.7-0.1,1.2-0.4h0.4c0.3,0,0.7,0.1,1.2,0.4l0.4,0.4h0.4h0.4l0.4-0.4c0.3-0.2,0.6-0.4,0.8-0.4l0.4,0.4h0.4v0.4
	v0.4h-0.4h-0.4c0,0.3-0.1,0.3-0.4,0v0.4H302h-0.8v0.4l-0.4,0.4h-0.4H300c-0.6,0-0.8-0.3-0.8-0.8c0.1,0,0.3,0,0.4,0l-0.4-0.4h0.4
	v-0.4h-0.4c0,0-0.1,0-0.4,0H298c-0.3,0.2-0.6,0.4-0.8,0.4h-0.4l-0.4-0.4C296.6,190.4,297,190.2,297.6,190.2z M270,191.4
	c0,0.2,0.1,0.4,0.4,0.4v-0.4h0.8l-0.4-0.4h1.2c0,0.3,0.1,0.4,0.4,0.4l0.8,0.4c0.3,0,0.5-0.1,0.8-0.4V191h0.8v0.4c0,0.1,0,0.3,0,0.4
	h0.4h0.4v-0.4h1.2c0.3,0,0.7,0.1,1.2,0.4c0.3,0.3,0.4,0.5,0.4,0.8L278,193h-0.4c-0.3,0.5-0.6,0.8-0.8,0.8c-0.8,0.5-1.5,0.8-2.1,0.8
	c-0.6,0-1-0.2-1.2-0.8h-2c-0.3,0-0.4-0.1-0.4-0.4h0.4l0.4-0.4c-0.1,0-0.2,0-0.4,0h-0.4c0,0-0.1,0-0.4,0h-0.3H270
	c-0.3,0-0.3-0.1,0-0.4c-0.6-0.2-0.8-0.6-0.8-1.2L270,191.4L270,191.4z M261.8,193.3l0.4-0.4c0.3,0,0.5,0,0.8,0c0.4,0,0.8,0,1.2,0
	v0.4c0,0.3,0.1,0.4,0.4,0.4h0.4c0-0.5,0.1-0.8,0.4-0.8c0.5,0,0.9,0.2,1.2,0.8v0.4l0.4,0.4c-0.3-0.8-0.4-1.3-0.4-1.5
	c0-0.5,0.3-0.8,0.8-0.8c0.3,0,0.5,0.1,0.8,0.4l0.8,0.4v0.4l-0.4,0.4h0.4c0-0.2,0.1-0.4,0.4-0.4s0.4,0.1,0.4,0.4v0.4l0.4,0.4
	c0.3,0,0.8,0.1,1.6,0.4c0.5,0.5,1,0.9,1.2,1.2c0.1,0,0.3,0,0.4,0v0.4h1.2c0,0.5,0.1,0.9,0.4,1.2h0.4c0.3,0,0.4,0.1,0.4,0.4
	c-0.3,0-0.4,0.1-0.4,0.4h-0.8c-0.6,0.5-1,0.8-1.2,0.8c0-0.2,0.1-0.5,0.4-0.8c-0.3,0-0.6,0-0.8,0h-0.8h-0.4l0.4-0.4v-0.4
	c0.3,0,0.4-0.1,0.4-0.4c-0.3,0-0.4-0.1-0.4-0.4l-0.4-0.4v-0.4h0.4c-0.3,0-0.6-0.1-0.8-0.4c-0.6,0-1,0.3-1.2,0.8
	c-0.3,0.3-0.4,0.6-0.4,1.2v0.4l-0.4,0.4H269v0.4c-0.3,0-0.6,0.2-0.8,0.8v0.8c0,0.2-0.1,0.4-0.4,0.4l-0.8-0.4l-0.4-0.4h-0.4
	c-0.8-0.5-1.2-1-1.2-1.5c0.5,0,1.1,0,1.6,0l0.4-0.4h-0.4h-0.4h-0.4c-0.3,0-0.5,0-0.8,0s-0.4-0.3-0.4-0.8l0.4-0.4h0.4h0.4
	c0.3,0,0.5-0.1,0.8-0.4l0.8-0.4h-0.8h-0.4c0-0.2-0.1-0.4-0.4-0.4l-0.4,0.4c-0.3,0.5-0.6,0.8-0.8,0.8c-0.6,0-1-0.2-1.2-0.8h0.4
	c-0.8-0.5-1.2-1-1.2-1.5l-0.4-0.4l-0.4-0.4L261.8,193.3L261.8,193.3z M261.8,195.2l0.4,0.4c0.3,0.3,0.4,0.4,0.4,0.4s0.1,0.3,0.4,0.8
	c-0.6-0.2-1-0.5-1.2-0.8C261.5,195.5,261.5,195.2,261.8,195.2z M242.3,232v-0.4c0.3-0.3,0.6-0.4,0.9-0.4c0,0.3-0.2,0.5-0.4,0.8
	c0,0.3,0,0.4,0,0.4h0.4v0.4h0.5v-0.4V232h0.4v-0.4v-0.4l0.5-0.4h0.4h0.9h0.4v0.4c0,0.3-0.2,0.4-0.4,0.4v0.4c-0.3,0-0.4,0.1-0.4,0.4
	h2.3c0.3,0.6,0.3,1.1,0,1.6h-0.5l-0.4,0.4v0.4l-0.5,0.4h0.5h0.4h0.5c0,0.3,0.2,0.5,0.4,0.8v0.4c0.3,0.3,0.5,0.6,0.5,0.8h0.4l0.5,0.8
	c0.6,0.3,0.9,0.5,0.9,0.8v0.4v0.4h0.4c0,0.3-0.2,0.4-0.4,0.4v0.4l0.4-0.4h0.5c0.6,0,0.9,0.3,0.9,0.8c0,0.3-0.2,0.6-0.5,0.8l-0.4,0.4
	c-0.3,0-0.5,0.1-0.5,0.4c0.3,0,0.6,0,0.9,0v0.4c-0.3,0.3-0.8,0.4-1.4,0.4H249c-0.3,0-0.4,0.1-0.4,0.4h-0.9c-0.3,0-0.6,0-0.9,0h-0.5
	h-0.4l-0.4,0.4H245c-0.3,0-0.6,0.1-0.9,0.4c0-0.3,0.3-0.6,0.9-0.8l0.5-0.8h0.4h0.4c0.3-0.3,0.5-0.5,0.5-0.8
	c-0.3,0.3-0.6,0.4-0.9,0.4l-0.4-0.4H245h-0.4h-0.5c0-0.3,0.3-0.5,0.9-0.8c0.3-0.3,0.5-0.5,0.5-0.8V240l-0.5-0.4
	c1.2,0,1.8-0.3,1.8-0.8V238h-0.5c-0.3,0-0.4-0.1-0.4-0.4v-0.4h-0.4H245h-0.9l0.5-0.4v-0.4V236v-0.4l-0.5-0.4v0.4h-0.4v-0.4
	c0-0.3,0.1-0.4,0.4-0.4v-0.4h-0.4c-0.3,0-0.5-0.1-0.5-0.4l0.5-0.4v-0.4c-0.6,0-0.9-0.2-0.9-0.8c0,0-0.2,0-0.5,0V232z M244.6,238.4
	c0-0.3,0.1-0.4,0.4-0.4v0.4H244.6z M240.5,237.3c0-0.3,0.2-0.5,0.5-0.8h0.4h0.9c0.6,0,0.9,0.1,0.9,0.4c0.3,0.3,0.5,0.7,0.5,1.2
	l-0.5,0.4v1.6v0.4c0,0.3-0.2,0.5-0.4,0.8h-0.5h-0.4c-0.3,0-0.6,0.1-0.9,0.4l-0.5,0.4h-0.4c0,0.3,0,0.4,0,0.4s-0.2,0-0.5,0
	s-0.4-0.1-0.4-0.4c-0.3-0.3-0.5-0.5-0.5-0.8s0.2-0.5,0.5-0.8l0.4-0.4c0-0.3,0-0.5,0-0.8c-0.3-0.3-0.4-0.5-0.4-0.8v-0.4h0.4h0.5
	c0.3,0,0.4-0.1,0.4-0.4V237.3z M147.8,187.5c0.8-0.3,1.5-0.4,2-0.4h0.8h0.4v-0.4c0.3,0,0.5,0,0.8,0v-0.4l0.4-0.4
	c0.3,0,0.8,0.1,1.6,0.4l0.4,0.4h0.4c0.5-1,1.2-1.5,2-1.5h0.4h0.4c0-0.3,0.3-0.4,0.8-0.4h4c0-0.2,0.1-0.4,0.4-0.4c0.3,0,0.5,0,0.8,0
	l0.4,0.4c0.3,0,0.5-0.1,0.8-0.4h0.4h0.4h0.4h0.4h1.2h0.8c0.5,0,0.9,0,1.2,0c1.3,0,2.1,0.3,2.4,0.8c-0.1,0.1-0.2,0.2-0.4,0.2l2.3-0.6
	c0.3,0,0.5,0.1,0.8,0.4h0.4v0.4c0.3,0.3,0.5,0.4,0.8,0.4h0.4h0.4c0.5,0,0.8,0.3,0.8,0.8l-0.4,0.4h-0.5c-0.5,0.5-1.3,0.8-2.4,0.8
	h-0.8l-0.4,0.4c-0.5,0-1.1,0.1-1.6,0.4c0.3,0.3,0.7,0.3,1.2,0h0.8c0.3,0,0.5,0,0.8,0c-0.3,0.3-0.9,0.6-2,1.2c-0.3,0-0.7,0.1-1.2,0.4
	l-0.4,0.1H170c-0.5,0.2-1.2,0.6-2,1.1l-0.4,1.2c-0.5,0.2-0.8,0.5-0.8,0.7c-0.3,0-0.7,0-1.2,0h-0.4h-0.4H164h-0.4
	c-0.5,0.3-0.9,0.5-1.2,0.8h1.2c0,0.3-0.1,0.5-0.4,0.8h-0.8c0.5,0.3,0.9,0.5,1.2,0.8c-0.3,0.3-0.5,0.5-0.8,0.8l-0.4,0.8
	c-0.3,0-0.4,0.1-0.4,0.4h-1.6v0.4c0,0.5-0.3,0.8-0.8,0.8l-0.4,0.4c-0.3,0.2-0.4,0.5-0.4,0.8h1.2c0.3,0,0.4,0.1,0.4,0.4
	c0,0.3-0.4,0.5-1.2,0.8s-1.3,0.4-1.6,0.4h-0.4c-0.3,0-0.4-0.1-0.4-0.4h-0.4h-2.8h-0.2c-0.3,0-0.5,0-0.8,0c-0.5,0-1.6-0.2-3.2-0.8
	v0.4l-0.4,0.4c-0.3,0-0.4-0.1-0.4-0.4c0-0.8,0.3-1.2,0.8-1.2h0.8h0.4l0.4-0.4v-0.4h-0.4c-0.3-0.2-0.4-0.5-0.4-0.8v-0.4h0.4h0.4
	c0.5,0,0.9,0.1,1.2,0.4l0.4,0.4l0.4,0.4h0.8c-0.3-0.2-0.4-0.5-0.4-0.8h-0.8c-0.3-0.5-0.4-0.9-0.4-1.1h-0.4h-0.4h-0.8v-0.4
	c0.3-0.5,0.7-0.9,1.2-1.1c0.3,0,0.5-0.1,0.8-0.4h0.4c0.5,0,0.8-0.2,0.8-0.8c0-0.5-0.4-0.9-1.2-1.1h-0.4l-0.4-0.4
	c-0.3,0-0.4-0.1-0.4-0.4l0.4-0.4h0.4c-0.3,0-0.4-0.1-0.4-0.4h0.4h0.4h0.4c0.5,0,0.9,0.1,1.2,0.4h0.4l0.4,0.4v0.4
	c0.5,0.2,0.9,0.4,1.2,0.4l-0.4-0.4v-0.4l-0.8-0.4v-0.4h0.4h1.6l0.4-0.4h0.8c0.3-0.3,0.4-0.5,0.4-0.8h-0.4c-0.5,0.5-1.5,0.8-2.8,0.8
	H155h-0.4h-0.4h-0.4h-0.4c-0.3,0-0.5,0-0.8,0c-0.5-0.3-0.7-0.5-0.4-0.8h-0.4l-0.8,0.8c-0.5,0-0.9-0.1-1.2-0.4
	c-0.5-0.2-0.8-0.5-0.8-0.8c0.3-0.2,0.5-0.4,0.8-0.4h-0.4H149c-0.3,0-0.5,0-0.8,0c0.3-0.3,0.5-0.5,0.8-0.8c-0.3,0.2-0.5,0.4-0.8,0.4
	l-0.4-0.4c0.3-0.3,0.5-0.5,0.8-0.8h-0.8c-0.3,0.3-0.5,0.4-0.8,0.4h-0.8C146.2,188.1,146.8,187.7,147.8,187.5z M168.1,212.7l0.8,0.4
	c0.3,0.3,0.7,0.4,1.2,0.4v0.8h0.4c0.5,0,0.9,0.3,1.2,0.8h-0.4h-0.4c-0.3,0-0.4,0.1-0.4,0.4c0.3,0.3,0.5,0.4,0.8,0.4h0.4h0.4
	c-0.8,0.5-1.2,0.9-1.2,1.2c0.3,0.3,0.5,0.4,0.8,0.4c0,0.3,0.3,0.5,0.8,0.8c0.3,0.3,0.7,0.4,1.2,0.4c0,0.8,0.3,1.1,0.8,1.1h0.4h0.4
	l0.4,0.4h0.4c0.8,0,1.2,0.4,1.2,1.1l-0.4,0.4c-0.3,0-0.5,0-0.8,0v0.4v0.4c-0.3,0.3-0.5,0.4-0.8,0.4c0,0.3,0,0.5,0,0.8h-0.4
	c-0.5,0-1.1-0.4-1.6-1.2l-0.8-0.4v-0.6c-0.5-0.3-0.9-0.4-1.2-0.4h-0.4v0.4c0.1,0,0.3,0,0.4,0v0.4c-0.3,0.3-0.4,0.3-0.4,0v0.8h0.4
	c0,0.3,0.1,0.5,0.4,0.8c0,0.3,0.1,0.5,0.4,0.8h0.4h0.4v0.4h0.8c0,0.3,0,0.5,0,0.8l0.4,0.4v0.4c0,0.3,0,0.5,0,0.8v0.4l-0.4,0.4
	c-0.3,0-0.8-0.1-1.6-0.4c-0.8-0.5-1.3-0.9-1.6-1.2h-0.4c0,0.3,0.1,0.4,0.4,0.4l0.4,0.4l0.4,0.4c0.8,0.5,1.2,1,1.2,1.5v0.4h-0.4V229
	h-0.4c-0.3,0-0.5-0.1-0.8-0.4h-0.5c-0.5-0.2-0.9-0.4-1.2-0.4c-0.3-0.3-0.5-0.4-0.8-0.4l-0.8-0.4h-0.4c-0.5-0.3-0.7-0.6-0.4-1.2
	c-0.5-0.2-1-0.5-1.6-0.8l-0.4-0.4l-0.8-0.8l-0.4,0.4c0,0.3-0.1,0.4-0.4,0.4h-0.4v-0.4c-0.3,0-0.5,0.1-0.8,0.4h-0.4
	c-0.3,0-0.5,0-0.8,0c-0.5-0.3-0.8-0.5-0.8-0.8s0.1-0.5,0.4-0.8c0.5-0.3,0.9-0.4,1.2-0.4h1.2c0.3,0,0.5,0,0.8,0l0.8-0.4v-0.4
	l-0.4-0.4c0-0.2,0.1-0.5,0.4-0.8h0.4h0.4v-0.4l0.4-0.4l0.4-0.8c0-0.5-0.4-1.1-1.2-1.9c-0.8-0.8-1.5-1.2-2-1.2l-0.4,0.4
	c-0.3,0.3-0.5,0.4-0.8,0.4v-0.4v-0.2l0.4-0.4h0.4l-0.4-0.4c-0.5-0.2-0.8-0.5-0.8-0.8c-0.8-0.5-1.3-0.8-1.6-0.8l-0.8,0.4
	c-0.3,0.5-0.5,0.8-0.8,0.8s-0.4-0.1-0.4-0.4v-0.4c-0.3,0-1,0-2.4,0h-0.8h-0.8c-0.5,0-0.9,0-1.2,0s-0.5-0.1-0.8-0.4l-0.4-0.4h-1.6
	c0-0.3-0.1-0.4-0.4-0.4c-0.3-0.2-0.4-0.5-0.4-0.8c0.3,0,0.5,0,0.8,0h0.4h0.4v-0.4c-0.3-0.2-0.9-0.4-2-0.4c-0.3-0.5-0.4-0.9-0.4-1.2
	c0-0.8,0.1-1.3,0.4-1.5l0.4-0.4v-0.1v-0.4c0.8-1,1.7-1.5,2.8-1.5l1.2,0.8l-0.4,0.4l-0.4,0.4c-0.5,0.2-0.8,0.5-0.8,0.8
	c0,0.5,0.1,0.8,0.4,0.8v0.4v0.4c0,0.2,0.1,0.4,0.4,0.4l0.4-0.4c0.3,0,0.4-0.1,0.4-0.4l-0.4-0.4v-0.4V209c0-0.5,0.4-1,1.2-1.5
	c0.8,0,1.6,0,2.4,0c0.5,0,0.9,0.3,1.2,0.8c0.3,0.2,0.4,0.6,0.4,1.1v0.4c-0.3,0.2-0.3,0.4,0,0.4l0.4-0.4h0.4h0.4v0.4h0.4
	c0.3,0,0.4-0.1,0.4-0.4l0.8-0.8c0.5,0,1,0.1,1.6,0.4c0.5,0.3,0.9,0.4,1.2,0.4s0.4,0.2,0.4,0.8h0.4v0.4c0.5,0.5,0.9,0.8,1.2,0.8h1.2
	h0.4c0.5,0.3,0.8,0.4,0.8,0.4s0,0.1,0,0.4L168.1,212.7z M160.9,226.5c-0.3,0.3-0.4,0.4-0.4,0.4s-0.1-0.1-0.4-0.4h0.4H160.9z
	 M161.3,218.8c0-0.8,0.3-1,0.8-0.8c0.8,0,1.2,0.3,1.2,0.8c0,0.3-0.1,0.5-0.4,0.8c-0.3,0-0.5,0-0.8,0
	C161.6,219.6,161.3,219.3,161.3,218.8z M163.7,218.5v-0.4h0.4h0.4l0.4,0.4v0.4c-0.3,0-0.5,0-0.8,0
	C163.8,218.8,163.7,218.7,163.7,218.5z M159.7,215.8c0,0.5-0.3,0.8-0.8,0.8l0.4-0.4L159.7,215.8z M156.5,242.9c0.3,0,0.5,0,0.8,0
	l0.4,0.4h-0.4h-0.4h-0.4L156.5,242.9L156.5,242.9z M155.7,228.4c-0.5,0.3-0.9,0.4-1.2,0.4v-0.4l0.4-0.4v-0.4
	c0.3-0.2,0.4-0.4,0.4-0.4c0.3,0,0.6,0,1.2,0C156.3,227.8,156,228.1,155.7,228.4z M156.9,226.5h-0.8c-0.8-0.8-1.3-1.2-1.6-1.2
	c0,0.3-0.1,0.7-0.4,1.2c-0.5,0.3-0.9,0.4-1.2,0.4c0,0.3-0.1,0.4-0.4,0.4v-0.8c-0.3-0.3-0.5-0.4-0.8-0.4l-0.3,0.4H151v-0.8h0.4
	c0.3-0.3,0.4-0.5,0.4-0.8v-0.4c0-0.2,0-0.5,0-0.8c0-0.2,0.1-0.5,0.4-0.8c0.3-0.5,0.5-0.8,0.8-0.8c0,0.3,0.1,0.4,0.4,0.4v0.4v0.4
	l0.4-0.4c0.3,0.3,0.5,0.4,0.8,0.4l0.4,0.4c0.8,0.3,1.3,0.5,1.6,0.8v0.4l0.4,0.4l0.4,0.4h0.8C157.6,226.2,157.2,226.5,156.9,226.5z
	 M155,222.7c-0.3,0-0.5-0.1-0.8-0.4v-0.4h0.4v0.4L155,222.7z M158.1,228.4c0.5,0,0.8,0.1,0.8,0.4v0.4c-0.3,0.3-0.4,0.4-0.4,0.4
	c-0.3,0-0.5-0.3-0.8-0.8C157.7,228.5,157.9,228.4,158.1,228.4z M144.6,209.3c0,0.3-0.3,0.6-0.8,1.2H143c0-0.5,0-0.9,0-1.2
	c-0.3-0.2-0.4-0.5-0.4-0.8v-0.4v-0.4v-0.8h0.8c-0.3,0-0.4-0.1-0.4-0.4h0.4v-0.4c0.3-0.2,0.4-0.4,0.4-0.4s0.1,0,0.4,0
	c0.3,0,0.5,0.1,0.8,0.4h0.8c0.8,0.3,1.5,0.4,2,0.4v0.4l-0.8,0.4l-0.4,0.8l-0.4,0.4c-0.3,0.3-0.7,0.4-1.2,0.4h-0.4h-0.4v0.4
	L144.6,209.3L144.6,209.3z M141.1,211.2h-0.4h-0.4v0.4h-0.4v0.4c-0.3,0-0.5,0-0.8,0v-0.4v-0.4c-0.5-0.3-1.1-0.5-1.6-0.8l-0.8-0.4
	c-0.5-0.2-0.8-0.5-0.8-0.8v-0.7l0.8,0.4c0.3,0,0.5,0,0.8,0h0.4v-0.8h-0.4h-0.4c-0.3,0-0.4-0.1-0.4-0.4v-0.4h0.4
	c0.3-0.3,0.5-0.4,0.8-0.4l0.8-0.4l0.4,0.4h1.6c0.3,0,0.4,0.1,0.4,0.4c0,0.3-0.1,0.5-0.4,0.8l-0.8,0.4h0.8h0.4v0.4c0,0,0,0.1,0,0.4
	h0.4h0.4c-0.3,1-0.4,1.7-0.4,1.9L141.1,211.2L141.1,211.2z M141.5,215.8c0.8,0.5,1.2,0.9,1.2,1.2h-0.4v0.4h-0.4
	c-0.3,0-0.9-0.1-2-0.4l-1.2-0.4c0-0.2,0.1-0.4,0.4-0.4c0.3,0,0.4,0,0.4,0l0.4-0.4v-0.4c0-0.3,0.3-0.4,0.8-0.4L141.5,215.8z
	 M135.9,215.8v0.4h0.4c-0.3,0.5-0.9,0.8-2,0.8c-0.3,0-0.5-0.1-0.8-0.4c-0.3,0-0.5,0-0.8,0c-0.5-0.5-0.9-0.8-1.2-0.8h-0.4l-0.4,0.4
	c0,0.3-0.1,0.4-0.4,0.4h-0.4l-0.8,0.4c-0.5,0-0.9,0.1-1.2,0.4h-3.2c-0.3,0-0.4-0.1-0.4-0.4v-0.5l-0.4-0.4h-0.8h-0.4h-0.3
	c-0.5,0-0.9-0.1-1.2-0.4c-0.3-0.2-0.4-0.5-0.4-0.8l-0.4-0.4c0.8-0.5,2-0.8,3.6-0.8c0.3,0,0.5,0,0.8,0h0.4l-0.4-0.4h-0.4h-2H122h-0.4
	c-0.3,0-0.5,0-0.8,0c-0.8,0-1.2-0.2-1.2-0.8c0-0.2,0.1-0.5,0.4-0.7c-0.3,0-0.5-0.1-0.8-0.4l-0.4-0.4c0-1,0.5-1.8,1.6-2.3
	s2-0.8,2.8-0.8c0.3,0,0.4,0.1,0.4,0.4l0.4,0.4h0.4l0.4-0.4c0.8,0,1.3,0.4,1.6,1.2c0.5,0,0.9-0.1,1.2-0.4v-0.4h0.4
	c0.8,0,1.3,0.2,1.6,0.8c0,0.2,0,0.5,0,0.8v0.4c0,0.3,0.1,0.4,0.4,0.4h0.4v-0.4c0-0.2-0.1-0.6-0.4-1.1c-0.3-0.8-0.4-1.3-0.4-1.5h0.4
	c0-0.3,0.1-0.4,0.4-0.4h0.4v0.4c0.3,0,0.4-0.1,0.4-0.4v-0.4c0-0.5,0.4-0.8,1.2-0.8s1.2,0.4,1.2,1.1c0,0.3-0.1,0.4-0.4,0.4l-0.4,0.8
	c0,0.2,0,0.5,0,0.8c0.3,0.2,0.4,0.5,0.4,0.8c0.3,0.8,0.4,1.3,0.4,1.5c0,0.5,0.5,1,1.6,1.5l0.8,0.4l0.4,0.4c0.5,0.3,0.9,0.4,1.2,0.4
	c-0.5,0.3-0.8,0.4-0.8,0.4s-0.3,0-0.8,0c-0.3,0-0.4,0.1-0.4,0.4v0.4H135.9z M136.7,202c-0.3,0-0.5-0.1-0.8-0.4v-0.4
	c0.3,0,0.5,0.1,0.8,0.4c0.5,0.2,0.9,0.4,1.2,0.4v-0.8c-0.8,0-1.2-0.2-1.2-0.8h0.4h0.4h0.8c0.3,0.3,0.5,0.4,0.8,0.4l0.4-0.4
	c0.5,0,0.8,0.4,0.8,1.2v0.4v0.8c-0.3,0.5-0.4,0.9-0.4,1.1l-0.8,0.4h-0.4h-0.4h-0.4c-0.3,0-0.4-0.1-0.4-0.4v-0.4v-0.4
	c0-0.2,0.3-0.4,0.8-0.4h0.4l-0.4-0.4c-0.3,0-0.8,0.1-1.6,0.4c-0.5,0-0.9,0-1.2,0h-0.4v-0.4h-0.4l-0.4-0.4h-0.4l-0.4-0.4v-0.4v-0.4
	c0-0.1,0-0.3,0-0.4h0.4c0.3,0,0.5,0.1,0.8,0.4l0.4,0.4v0.4C135.6,202.1,136.2,202.3,136.7,202z M135.1,197.8l0.4-0.4h0.4h0.4h0.4
	v0.4h-1.2H135.1z M133.9,203.1h0.4v0.4c0,0.3-0.1,0.4-0.4,0.4v0.4h-0.4c-0.3-0.3-0.4-0.4-0.4-0.4s-0.1,0-0.4,0
	C133,203.7,133.4,203.4,133.9,203.1z M141.5,204.3c0-0.3,0.1-0.5,0.4-0.8h0.4v-0.4l0.4-0.4h0.4c0.3,0,0.7,0.1,1.2,0.4
	c0.3,0.3,0.4,0.4,0.4,0.4s0,0.1,0,0.4c0,0.8-0.3,1.2-0.8,1.2L141.5,204.3z M146.6,204.7c-0.8-0.2-1.2-0.6-1.2-1.1l0.4-0.4h0.4
	c-0.3-0.2-0.5-0.6-0.8-1.1l-0.4-0.4l-0.4-0.4c-0.3,0-0.5,0-0.8,0s-0.8-0.1-1.6-0.4c-0.5-0.3-0.8-0.5-0.8-0.8s0.1-0.4,0.4-0.4h0.4
	c0.5,0,1.2,0.1,2,0.4l0.4,0.4c0.3,0.3,0.5,0.4,0.8,0.4c0.5,0,0.8-0.1,0.8-0.4h0.8c-0.3,0.5-0.1,0.8,0.4,0.8h0.4h0.4l0.4,0.4H147
	c0,0.5,0.3,0.8,0.8,0.8h0.4c0.3,0,0.4,0.1,0.4,0.4v0.4l0.4-0.4l0.4,0.4h0.8c0.5,0.3,0.9,0.4,1.2,0.4c0.8,0,1.6-0.2,2.4-0.8h0.4h0.4
	c0.5-0.2,0.9-0.4,1.2-0.4c1.6,0,2.5,0.4,2.8,1.1l-0.4,0.4h0.4c0,0.8-0.3,1.2-0.8,1.2c-0.3,0-0.7,0.1-1.2,0.4h-0.4h-0.4
	c-0.3,0-0.4-0.1-0.4-0.4c-0.3,0-0.4-0.1-0.4-0.4l-0.8,0.4h-2.8c-0.5,0.3-0.9,0.3-1.2,0c-0.5,0-0.8-0.1-0.8-0.4H149
	c0,0.3-0.1,0.4-0.4,0.4l-0.4,0.4C147.7,205.4,147.1,205.2,146.6,204.7z M141.9,198.2c0.3,0,0.7,0,1.2,0l0.8-0.4h0.4h0.4v0.8
	c0,0.2-0.1,0.4-0.4,0.4C144,198.9,143.2,198.7,141.9,198.2z M157.7,208.1v-0.4c-0.3,0-0.4-0.1-0.4-0.4l0.4-0.4h0.4h0.4h0.4
	c0.3,0.3,0.5,0.4,0.8,0.4c0.5,0,1,0.1,1.6,0.4l0.4,0.4h0.4c0,0.5-0.1,0.8-0.4,0.8c-0.3,0-0.5,0-0.8,0l-0.4-0.4l-0.8,0.4
	c-0.3,0-0.4,0-0.4,0c-1,0-1.5-0.3-1.2-0.8H157.7z M142.6,192.1c0.3,0,0.4,0.1,0.4,0.4c0.3,0,0.4,0,0.4,0s0.1,0,0.4,0v-0.4H143
	c-0.3-0.3-0.4-0.5-0.4-0.8v-0.4h0.4h0.4l0.4,0.4h0.4h0.4v-0.4h-0.4h-0.4c-0.3,0-0.4-0.1-0.4-0.4H143v-0.4c0.5-0.2,1-0.4,1.6-0.4
	c-0.3-0.3-0.4-0.5-0.4-0.8c0.8,0.2,1.5,0.5,2,0.8h0.4c0.3,0.2,0.4,0.5,0.4,0.8c0,0.5,0.1,0.8,0.4,0.8h0.4h0.4h0.4h0.4l0.4,0.4v0.4
	v0.4h0.4v-0.4v-0.4h0.4c0.3,0,0.4,0.1,0.4,0.4v0.4h0.4v0.4v0.4c-0.3,0-0.4,0.1-0.4,0.4h0.4h0.4h0.8h0.4l0.4,0.4v0.4l-0.4,0.4h-0.4
	h-0.4l-0.4,0.4c-0.3,0.5-0.5,0.8-0.8,0.8s-0.4-0.2-0.4-0.8l-0.4,0.4h-0.4l0.4,0.4c0,0.3,0.1,0.4,0.4,0.4h-0.8v0.8l-0.8-0.4l-0.4-0.4
	c0,0.5-0.3,0.8-0.8,0.8s-0.9,0-1.2,0c-0.3-0.3-0.4-0.5-0.4-0.8h0.4c-0.3,0-0.5-0.1-0.8-0.4c-0.5-0.2-0.8-0.5-0.8-0.8
	c0-0.2,0.4-0.5,1.2-0.8h-0.4H145h-0.4v-0.4h-0.4l-0.4,0.4c-0.3,0-0.4-0.1-0.4-0.4c0.3-0.2,0.5-0.4,0.8-0.4c-1.3,0-2-0.5-2-1.5
	L142.6,192.1L142.6,192.1z M140.7,195.1l0.4,0.4c0.3,0,0.5,0,0.8,0c0,0.5,0.3,0.8,0.8,0.8h0.4v0.4v0.4v0.4c-0.5,0.3-1.1,0.4-1.6,0.4
	s-0.8-0.1-0.8-0.4l0.4-0.4l-0.4-0.4h-0.4c-0.3-0.5-0.4-0.9-0.4-1.1l0.4-0.4L140.7,195.1L140.7,195.1z M139.1,192.4h0.4h0.4v0.8h-0.8
	v-0.4c-0.3,0-0.4-0.1-0.4-0.4L139.1,192.4L139.1,192.4z M132.7,194.3c0.3,0,0.5,0,0.8,0h0.4h0.4l0.4,0.4h0.4l0.4-0.4
	c0.3,0,0.5,0.3,0.8,0.8c0,0.3,0.1,0.4,0.4,0.4v-0.4h0.4c0.3,0,0.5,0.1,0.8,0.4v0.4h0.4l-0.4,0.4l0.4,0.4c0.5,0.3,0.8,0.5,0.8,0.8
	l-0.4,0.4h-0.4c-0.3,0-0.5-0.1-0.8-0.4c-0.3-0.2-0.5-0.4-0.8-0.4l-0.4-0.4h-0.4c-0.3,0-0.5,0-0.8,0h-0.4h-0.4h-0.4
	c-0.5,0-0.9-0.1-1.2-0.4c0.3-0.3,0.5-0.4,0.8-0.4h0.4v-0.4h-0.4h-0.4h-0.4c0-0.3,0-0.4,0-0.4c-0.3,0-0.4-0.2-0.4-0.8H132.7z
	 M132.7,198.2l0.4,0.4l0.4,0.4c0,0.3,0,0.4,0,0.4s-0.1,0-0.4,0c-0.3,0-0.5-0.1-0.8-0.4c-0.3-0.5-0.4-0.9-0.4-1.1
	C132.2,197.8,132.5,197.9,132.7,198.2z M126,197c-0.3,0-0.4-0.1-0.4-0.4c-0.3,0-0.5,0-0.8,0h-0.2c-0.1,0.1-0.2,0.3-0.2,0.4v-0.4h0.2
	c0.2-0.2,0.5-0.5,1-0.8c0.5-0.2,0.9-0.4,1.2-0.4c0.8,0,1.3,0.4,1.6,1.1H128l-0.4,0.4h-0.4c0.3,0,0.5,0.1,0.8,0.4
	c-0.3,0.3-0.8,0.4-1.6,0.4h1.2c0,0.5-0.3,0.9-0.8,1.1c-0.3,0-0.7,0-1.2,0c-0.3,0-0.5-0.1-0.8-0.4l-0.4-0.4c0-0.5,0.4-0.8,1.2-0.8
	c0.3-0.2,0.5-0.4,0.8-0.4H126V197z M123.2,197.4l0.4,0.4h0.4c-0.3,0.3-0.4,0.4-0.4,0.4s-0.1,0-0.4,0l-0.4-0.4
	C122.8,197.3,122.9,197.2,123.2,197.4z M124,200.1v0.4h-0.8l-0.4-0.4H124z M123.2,200.9l0.4,0.4c0.3,0,0.4,0.1,0.4,0.4h0.8
	c0.3,0,0.6,0.2,1.2,0.8c0.3,0.2,0.5,0.4,0.8,0.4c0.5,0,0.9,0,1.2,0c0.5,0,0.8-0.1,0.8-0.4c-0.3,0-0.5,0-0.8,0l0.4-0.4v-0.4H128
	l-0.4-0.4c0-0.2,0.1-0.5,0.4-0.8l0.4-0.4c0.3,0,0.4-0.1,0.4-0.4c0.3,0.3,0.5,0.4,0.8,0.4v0.4c0,0.5,0.1,0.9,0.4,1.2
	c0.3,0.2,0.5,0.4,0.8,0.4h0.4c0.3-0.2,0.5-0.4,0.8-0.4l0.4,0.4c0.3,0.3,0.4,0.5,0.4,0.8l-0.8,0.8c-0.3,0.5-0.5,0.8-0.8,0.8h-0.8
	h-1.2l-1.2,0.4h-0.4h-0.4l-0.4,0.4c-0.8,0.3-1.6,0.4-2.4,0.4H124l-0.8-0.4c0-0.3,0.1-0.5,0.4-0.8h0.4c0-0.3,0-0.5,0-0.8
	c-0.5,0-0.8,0.3-0.8,0.8h-0.8H122h-0.4h-0.4h-0.4c-0.5,0-0.8-0.3-0.8-0.8v-0.8h0.4h0.4h0.4h0.4l-0.4-0.4v-0.4h0.4h0.4
	c-0.3,0-0.4-0.1-0.4-0.4c0-0.3,0.3-0.4,0.8-0.4c-0.3,0-0.4-0.1-0.4-0.4c0.3,0,0.5,0,0.8,0L123.2,200.9L123.2,200.9z M119.6,202.8
	l-0.4,0.4c-0.3,0-0.5,0-0.8,0c0-0.2,0-0.4,0-0.4c0-0.2,0.3-0.5,0.8-0.8h0.4h0.4C120,202.3,119.9,202.5,119.6,202.8z M115.3,201.2
	c0.3,0,0.4-0.1,0.4-0.4h0.4l0.4-0.4c0.3,0,0.5-0.1,0.8-0.4c0.3,0,0.4-0.1,0.4-0.4l0.4-0.4c0.3-0.3,0.7-0.4,1.2-0.4h0.4h0.4
	c1.3-0.5,2-0.5,2,0c0,0.3-0.1,0.5-0.4,0.8v0.4v0.4l-1.6,1.2l-0.4-0.4v-0.4c0-0.3-0.1-0.4-0.4-0.4c0,0.3-0.1,0.5-0.4,0.8
	c-0.3,0.3-0.5,0.4-0.8,0.4v0.4l-0.4,0.4c-0.3,0-0.5,0-0.8,0V202h-0.5H116h-0.4h-0.4l-0.4-0.4L115.3,201.2z M112.1,209.7l0.4-0.4
	l0.4-0.4c0.5-1,0.8-1.7,0.8-1.9s0-0.5,0-0.8l-0.4-0.4v-0.4c0.3-0.2,0.7-0.2,1.2,0h0.4h0.4h0.4h0.4c0.3-0.2,0.5-0.4,0.8-0.4
	c0,0.3,0.1,0.4,0.4,0.4l0.4,0.4h0.8c0.3,0.3,0.5,0.4,0.8,0.4l0.4-0.4h0.4c0.3,0,0.7,0.3,1.2,0.8c0.8,0.3,1.2,0.5,1.2,0.8
	s-0.4,0.5-1.2,0.8h-0.4h-0.5H120c-0.5,0.2-1.1,0.8-1.6,1.5c-0.5,0.5-0.8,1-0.8,1.5L116,212l-1.2,0.4h-0.4c0-0.2-0.1-0.4-0.4-0.4
	h-0.4v-0.4v-0.4h-0.4h-0.4v-0.4c-0.5,0-0.8-0.1-0.8-0.4C112.1,210.2,112.1,209.9,112.1,209.7z M71.6,232.6h-0.4l-0.4-0.4h0.8
	c0-0.2,0-0.4,0-0.4s0.1,0,0.4,0s0.4,0.3,0.4,0.8L71.6,232.6L71.6,232.6z M85.9,236.4c-0.5,0-1.1,0.4-1.6,1.2c0-0.3-0.1-0.4-0.4-0.4
	h-0.4v-0.8h0.4l0.4-0.4h0.8h0.8C85.9,236,85.9,236.4,85.9,236.4z M104.1,239.1c0-0.5,0.1-0.8,0.4-0.8c0-0.3,0.3-0.3,0.8,0
	c-0.3,0.2-0.1,0.6,0.4,1.1c0.3,0.3,0.4,0.5,0.4,0.8s0,0.4,0,0.4s-0.1,0-0.4,0l-0.4-0.4l-0.4-0.4v-0.3v-0.4v-0.4h-0.4L104.1,239.1z
	 M106.5,244.1v0.4c-0.3,0-0.4-0.1-0.4-0.4l-0.4-0.4l0.4-0.4l-0.4-0.4v-0.4h-0.4v-0.4l-0.4-0.4c0.3,0,0.5,0,0.8,0v0.4v0.4l0.4-0.4
	v0.4v0.4l0.4,0.4h-0.4v0.4L106.5,244.1z M112.1,248.7l-0.4-0.4v-0.4c-0.3,0-0.6,0-0.8,0c-0.3-0.3-0.5-0.5-0.8-0.8
	c0.3,0,0.4-0.1,0.4-0.4h-0.4h-0.4l0.4-0.4h0.4l0.4,0.4h0.4v0.4c1.1,0.2,2.1,1,3.2,2.3v0.4c-0.5,0-1.1-0.1-1.6-0.4
	C112.6,249.2,112.3,248.9,112.1,248.7z M203.4,317.1l-0.4,0.4l-0.4,0.8c-0.3,0.3-0.5,0.5-0.8,0.8v0.4h-0.4c0,0.3-0.1,0.4-0.4,0.4
	c0,0.3-0.1,0.5-0.4,0.8h-0.4v0.4c-0.3,0.3-0.4,0.7-0.4,1.2l0.4,0.8v0.8c0,0.2,0,0.6,0,1.1l-0.4,0.4v0.4v0.4h-0.4v0.4v0.4
	c0,0.2,0,0.5,0,0.7l-0.4,0.8l-0.4,0.4v0.4c-0.3,0.5-0.5,0.9-0.8,1.2v0.4v0.4c-0.3,0.3-0.5,0.5-0.8,0.8s-0.5,0.4-0.8,0.4
	c-1.1,0-1.7,0-2,0v0.4l-0.4,0.4l-0.4,0.4H193h-0.4c-0.5,0.2-0.9,0.5-1.2,0.8c0,0.2-0.1,0.4-0.4,0.4l-0.4,0.4
	c-0.3,0.2-0.4,0.9-0.4,1.9v1.5c-0.5,0.5-1.1,1.1-1.6,1.9v0.4v0.4l-0.4,0.4c0,0.3-0.1,0.5-0.4,0.8l-0.4,0.4c-0.5,0.5-0.9,0.9-1.2,1.2
	c0,0.2-0.1,0.5-0.4,0.8v0.8l-0.4,0.4c-0.5,0.8-1.1,1.1-1.6,1.1c-0.3,0-0.7-0.1-1.2-0.4h-0.4c-0.3,0-0.5-0.1-0.8-0.4H181h-0.4h-0.2
	c0,0.2,0.1,0.4,0.4,0.4l0.4,0.4v0.4l0.4,0.4v0.4v0.4h0.4v0.4c0,0.5,0,0.9,0,1.1c0,0.3-0.3,0.7-0.8,1.2c-0.3,0.3-0.7,0.4-1.2,0.4
	h-0.4c-0.3,0-0.5,0.1-0.8,0.4h-0.4H178c-0.5-0.3-0.9-0.3-1.2,0c-0.3,0.2-0.4,0.6-0.4,1.1v0.4c0,0.2,0,0.5,0,0.8v0.4
	c-0.3,0.3-0.5,0.4-0.8,0.4h-0.4l-0.4-0.4h-0.4H174c-0.3,0-0.4,0.1-0.4,0.4c0,0.2,0.1,0.5,0.4,0.8c0,0.2,0.1,0.4,0.4,0.4h0.4h0.4v0.4
	v0.4h-0.4h-0.4l-0.4-0.4v0.4l0.4,0.4c-0.3,0.3-0.5,1-0.8,2.3c0,0.3-0.1,0.4-0.4,0.4h-0.4h-0.4c-0.5,0.3-0.8,0.8-0.8,1.5
	c0,0.5,0.3,0.9,0.8,1.1l0.4,0.4c0.3,0,0.4,0.1,0.4,0.4c0,0.5-0.3,0.9-0.8,1.2l-0.4,0.4l-0.4,0.4v0.4v0.4l-0.4,0.4
	c0,0.3-0.1,0.4-0.4,0.4h-0.4L170,368c-0.3,0.3-0.4,0.8-0.4,1.5c0,0.3,0.1,0.4,0.4,0.4v0.4c0.3,0.3,0.5,0.8,0.8,1.5v0.4v0.4l0.4,0.4
	c0.3,0.5,0.7,0.9,1.2,1.2l0.8,0.4l0.8,0.4h-0.4h-0.4h-0.4l-0.4,0.4H172l-0.4,0.4h-0.4h-0.4H170c-0.5,0-0.8-0.1-0.8-0.4V375l-0.4-0.4
	h-0.4l-0.4-0.4c-0.3,0-0.4-0.1-0.4-0.4h-0.8l-0.4-0.4V373c-0.5,0-0.9,0-1.2,0l-0.4-0.4l-0.4-0.4v-0.4v-0.4h0.4
	c0-0.2,0.1-0.4,0.4-0.4h-0.4v-1.5v-0.4c0-0.3-0.1-0.5-0.4-0.8c-0.3-0.3-0.4-0.5-0.4-0.8v-0.4c0-0.5-0.1-1-0.4-1.5v-0.4v-0.4
	c0-0.3,0-0.5,0-0.8v-0.4l0.4-0.4v-0.4l0.4-0.4l-0.4-0.8c-0.3-0.3-0.4-0.5-0.4-0.8c0-0.5,0.1-0.8,0.4-0.8c0.3,0,0.4,0.1,0.4,0.4
	c0.3,0.3,0.5,0.4,0.8,0.4l0.8-5.4v-0.8h-0.4v0.4h-0.4v-0.4c-0.3-0.2-0.4-0.5-0.4-0.8c0-0.2,0.1-0.5,0.4-0.8v-0.8v-0.4h0.4
	c0-0.3-0.1-0.4-0.4-0.4v-0.8v-0.4v-0.4c0-0.2,0.1-0.6,0.4-1.1v-0.4c0.3-0.2,0.4-0.5,0.4-0.8v-0.4l0.4-0.4v-0.4h0.4
	c0-0.2,0-0.6,0-1.1l0.4-0.8v-0.8v-2.7c-0.3-0.2-0.3-0.6,0-1.1V339c0-0.3,0.1-0.5,0.4-0.8c0-0.3,0-0.6,0-1.2l0.4-0.8
	c0-0.2,0-0.5,0-0.7v-0.4c0-0.2,0.1-0.5,0.4-0.8v-0.4v-0.4V332c0-0.2,0-0.6,0-1.1l0.4-0.4c0-0.2,0-0.5,0-0.8c0-0.2-0.1-0.8-0.4-1.5
	c0-0.8,0-1.3,0-1.5c-0.3-0.7-0.8-1.3-1.6-1.5l-0.4-0.4H166l-0.4-0.4c-0.3-0.5-0.7-0.8-1.2-0.8c-0.5-0.3-1.2-0.8-2-1.5
	c-0.3,0-0.4-0.3-0.4-0.8v-0.4c0-0.2,0-0.5,0-0.8l-0.4-0.4v-0.4c-0.3-0.2-0.4-0.5-0.4-0.8l-0.4-0.4c-0.3-0.5-0.4-0.9-0.4-1.2
	c-0.3-0.7-0.5-1.5-0.8-2.3h-0.4l-0.4-0.4v-0.4v-0.4c-0.3,0-0.4-0.1-0.4-0.4H158c-0.3-0.3-0.4-0.5-0.4-0.8c-0.3-0.5-0.4-0.9-0.4-1.2
	c0-0.2,0-0.5,0-0.8l0.4-0.4l0.4-0.4l0.8-0.8H158l-0.4-0.8V307v-0.4l0.4-0.4c0.3-0.5,0.4-1,0.4-1.5c0.3,0,0.5-0.3,0.8-0.8
	c0.3,0,0.4-0.1,0.4-0.4v1c0.3-0.3,0.4-0.5,0.4-0.8h0.4c0.5-0.3,0.8-0.5,0.8-0.8v-0.4c-0.3,0-0.4-0.1-0.4-0.4h0.4v-0.4v-0.4
	c-0.3,0-0.4-0.1-0.4-0.4c0-0.2,0.1-0.4,0.4-0.4v-0.4v-0.4l-0.4-0.4l-0.4-0.4v-0.4v-0.4H160v-0.4h0.4l-0.4-0.4h-0.4
	c0-0.2-0.1-0.4-0.4-0.4l-0.4,0.4c-0.5,0.3-0.8,0.5-0.8,0.8h0.4c0,0.5-0.1,0.8-0.4,0.8c-0.3,0-0.5-0.1-0.8-0.4l-0.4-0.4l-0.4-0.4H156
	h-0.4v-0.4c-0.3,0-0.5,0-0.8,0v-0.4v-0.4l-0.8-0.4c0-0.3-0.1-0.4-0.4-0.4h-0.2c-0.3,0-0.4-0.1-0.4-0.4v-0.4v-0.4l-0.4-0.4v-0.4
	l-0.8-0.4v-0.4c-0.5-0.3-0.8-0.6-0.8-1.2h-0.4h-0.4v0.4c-0.3,0-0.5-0.1-0.8-0.4H149l-0.4-0.4l-0.4-0.4h-0.4c-0.5,0-0.9,0-1.2,0
	c-0.3-0.2-0.4-0.5-0.4-0.8l-0.8-0.4c-0.3-0.5-0.5-0.9-0.8-1.2h-0.4c-0.3,0-0.5,0-0.8,0H143v0.4l-0.4,0.4h-0.4l-0.4-0.4h-0.4
	c0-0.2-0.1-0.4-0.4-0.4v0.4h-0.4l-0.8-0.8h-0.4l-0.4-0.4h-0.4h-0.4h-0.4h-0.4c0-0.3-0.1-0.5-0.4-0.8c-0.3,0-0.4-0.1-0.4-0.4h-0.4
	h-0.4c0-0.2-0.1-0.4-0.4-0.4H135c0-0.3-0.1-0.4-0.4-0.4l-0.4-0.4c-0.5-0.3-0.8-0.5-0.8-0.8H133c-0.3-0.3-0.4-0.5-0.4-0.8l0.4-0.4
	v-0.4c0-0.3,0-0.5,0-0.8l-0.4-0.4c0-0.5-0.3-1.1-0.8-1.9c-0.3,0-0.5-0.3-0.8-0.8h-0.4l-0.4-0.4c0-0.2-0.1-0.4-0.4-0.4l-0.4-0.4
	l-0.4-0.4V277v-0.4c-0.3-0.2-0.4-0.5-0.4-0.8h-0.2c-0.5-0.5-0.8-0.9-0.8-1.1h-0.4c0-0.3-0.1-0.5-0.4-0.8l-0.8-0.4v-0.4l-0.4-0.4
	c0-0.2,0-0.5,0-0.8l-0.4-0.4v-0.4c0-0.2-0.1-0.4-0.4-0.4l-0.4-0.4H124c-0.3,0-0.5-0.1-0.8-0.4v0.4c0,0.3,0.1,0.7,0.4,1.2v0.4
	l0.4,0.4c0,0.3,0.1,0.4,0.4,0.4l0.4,0.4v0.4c0.5,0.3,0.8,0.8,0.8,1.5c0.3,0.3,0.5,0.5,0.8,0.8l0.4,0.8v0.4l0.4,0.8v0.7
	c0.3,0.3,0.5,0.5,0.8,0.8c0.3,0,0.4,0.1,0.4,0.4c0.3,0,0.4,0.1,0.4,0.4v0.4h-0.4l-0.4-0.8c-0.3,0-0.5-0.1-0.8-0.4l-0.4-0.4l-0.4-0.4
	v-0.4v0.4l-0.8-0.8l-0.4-0.4c0-0.3-0.1-0.4-0.4-0.4l-0.4-0.4c-0.3,0-0.5-0.1-0.8-0.4h0.4c0.3,0,0.4-0.1,0.4-0.4
	c-0.8-1-1.5-1.7-2-1.9c0-0.2,0-0.5,0-0.8l-0.4-0.8v-0.4l-0.4-0.4V271c-0.3-0.3-0.4-0.6-0.4-1.2c-0.3-0.5-0.8-1-1.6-1.5
	c-0.3-0.3-0.7-0.5-1.2-0.8c-0.3,0-0.5-0.1-0.8-0.4c-0.3,0-0.4-0.1-0.4-0.4v-0.4c0-0.2-0.1-0.5-0.4-0.8l-0.4,0v-0.4
	c-0.3-0.5-0.4-1.1-0.4-1.9c-0.5,0-0.9-0.3-1.2-0.8l-0.4-1.2l-0.4-0.4l-0.4-0.4V260l0.4-0.4c0-0.3,0-0.8,0-1.5v-0.6
	c0-0.5-0.1-0.9-0.4-1.2c0-0.2,0.1-0.9,0.4-1.9V254l0.4-0.8v-0.7c0-0.2,0-0.5,0-0.8l-0.4-0.4l-0.4-0.4c0-0.2,0-0.5,0-0.7h0.4
	c0.5,0,0.9,0.1,1.2,0.4v-0.4c0.3-0.3,0.4-0.5,0.4-0.8l-0.4-0.4v-0.4h-0.4l-0.4-0.4l-0.4-0.4c-0.3,0-0.5,0-0.8,0
	c0-0.5-0.1-0.8-0.4-0.8h-0.4c-0.5-0.3-0.8-0.5-0.8-0.8c-0.5,0-0.9-0.3-1.2-0.8V245l-0.4-0.8l-0.8-0.8c-0.3,0-0.4-0.1-0.4-0.4v-0.4
	v-0.1h-0.4H108c-0.3-0.3-0.4-0.5-0.4-0.8v-0.8v-0.4v-0.4h-0.4c-0.5,0-0.9-0.1-1.2-0.4c-0.3-0.3-0.4-0.5-0.4-0.8v-0.4
	c0-0.5-0.4-0.8-1.2-0.8H104c0-0.2,0-0.5,0-0.8l0.4-0.4v-0.4H104l-0.4,0.4c-0.3,0-0.4-0.1-0.4-0.4c-0.3,0-0.4-0.1-0.4-0.4v0.8h0.4
	v0.4v0.4c0,0.2,0,0.5,0,0.8c-0.5-0.5-0.8-1-0.8-1.5c-0.5-0.3-0.8-0.6-0.8-1.2V235h0.4h0.4h0.4v0.8c0-0.3,0.1-0.4,0.4-0.4V235
	l-0.4-0.4h-0.4c-0.3,0-0.5-0.1-0.8-0.4v0.4h-0.2c0,0.3-0.1,0.4-0.4,0.4l-0.8-0.8l-0.4-0.4c0-0.2-0.1-0.4-0.4-0.4
	c-0.3-0.3-0.8-0.5-1.6-0.8l-0.8-0.4c-0.3,0-0.5,0-0.8,0h-1.6l-0.8-0.4h-0.4c-0.3-0.2-0.5-0.4-0.8-0.4c-0.8-0.2-1.3-0.6-1.6-1.1h-0.4
	h-0.4l-0.4,0.4c0,0.2,0,0.5,0,0.7c0,0.3-0.5,0.7-1.6,1.2c-0.8,0.5-1.3,0.8-1.6,0.8h-0.4c-0.3,0-0.4-0.1-0.4-0.4h0.4v-0.4v-0.4
	c0-0.8,0.5-1.3,1.6-1.5v-0.4h-0.4c-0.5,0-1.2,0.4-2,1.1c-0.8,0.8-1.2,1.4-1.2,1.9v0.8c0,0.5-0.5,1-1.6,1.5l-0.4,0.4h-0.4v0.4
	c-0.3,0.2-0.7,0.6-1.2,1.1l-0.4,0.4c-0.3,0-0.5,0.1-0.8,0.4c-0.5,0.5-1.5,0.9-2.8,1.2c-0.3,0-0.5,0.1-0.8,0.4h-0.4l-0.4,0.4
	c-0.8,0.5-1.5,0.6-2,0.4c0.3-0.2,0.5-0.4,0.8-0.4h0.8v-0.4H75l0.4-0.8c0.3-0.2,0.5-0.4,0.8-0.4v-0.4H77c0.3,0,0.5,0,0.8,0
	c0.3-0.5,0.7-1,1.2-1.5l0.8-0.4c0.3-0.3,0.5-0.4,0.8-0.4s0.4-0.1,0.4-0.4l0.4-0.8c0.3-0.5,0.5-0.9,0.8-1.2h-0.4h-0.4L81,234
	c-0.3,0-0.5,0-0.8,0h-0.4h-0.4v0.4H79c-0.5,0-1-0.2-1.6-0.8v0.4H77l-0.4,0.4h-0.2v0.1c0-0.3,0-0.5,0-0.8v-0.8v-0.4H76
	c-0.3,0-0.4,0.1-0.4,0.4l-0.4,0.4c-0.3,0-0.7-0.2-1.2-0.8c-0.5-0.5-0.9-0.9-1.2-1.1h0.4c0-0.2,0-0.5,0-0.8h-0.4l-0.4-0.4
	c-0.3-0.3-0.4-0.5-0.4-0.8c0-0.5,0.4-1,1.2-1.5c0.5-0.3,1.1-0.4,1.6-0.4l0.4-0.4c0.3,0,0.6,0,1.2,0c0.5-0.5,0.8-0.9,0.8-1.2v-0.4
	l-0.4-0.4l0.4-0.4v-0.4h-0.4c-0.3,0-0.5,0.1-0.8,0.4h-0.4c0,0.3-0.1,0.4-0.4,0.4l-0.4-0.4h-0.4H74h-2l-0.4-0.4v-0.4v-0.4v-0.4
	c-0.5,0-0.9-0.1-1.2-0.4c0.3-0.2,0.5-0.4,0.8-0.4l0.8-0.8c0.8-0.2,1.3-0.5,1.6-0.8h0.8c0,0.5,0.1,0.9,0.4,1.1h0.4h0.4H76h0.4
	c0-0.7-0.3-1.1-0.8-1.1c0-0.2-0.1-0.4-0.4-0.4l-0.4-0.4h-0.4l-0.4-0.8l-0.4-0.4c0-0.3-0.1-0.4-0.4-0.4l-0.4-0.4h-0.4l-0.8-0.4
	l0.4-1.1h2c1.3-1.8,2.9-2.9,4.8-3.5v-0.4l0.4,0.4c0.3,0,0.5-0.1,0.8-0.4h0.4l0.4-0.4l0.4-0.7c0.3,0,0.5,0.1,0.8,0.4v0.4h0.4
	l-0.4,0.4c0.5,0.3,0.9,0.1,1.2-0.4h0.4c0,0.3,0.1,0.4,0.4,0.4h1.6L86,213c0.3,0,0.5,0.1,0.8,0.4h2.8c0.3,0.3,0.9,0.5,2,0.8
	c0.3,0,0.5,0,0.8,0c0.5,0.3,0.9,0.4,1.2,0.4l0.4-0.4h0.4c0.3,0,0.5,0,0.8,0s0.6,0.1,1.2,0.4h0.4c0.3,0,0.5,0.1,0.8,0.4H98l0.4,0.4
	c0.5,0.5,1.2,0.8,2,0.8c0.8,0.3,1.5,0.4,2,0.4v-0.1H102c0-0.2,0.1-0.4,0.4-0.4c0-0.3,0.3-0.4,0.8-0.4h0.4v-0.4
	c0.3-0.3,0.5-0.1,0.8,0.4l0.8-0.4h0.4l0.4-0.4c0.5-0.2,1.3-0.5,2.4-0.8c0.3,0.5,0.5,0.8,0.8,0.8s0.4-0.1,0.4-0.4l0.4-0.4
	c0-0.2,0.1-0.4,0.4-0.4l0.8,0.8c0.3,0.3,0.4,0.5,0.4,0.8c0.3,0,0.5,0,0.8,0s0.5-0.1,0.8-0.4v-0.4h0.4c0,0.3,0.1,0.4,0.4,0.4l0.4,0.8
	c0.3,0,0.5-0.1,0.8-0.4c0.3-0.3,0.5-0.4,0.8-0.4c0.5,0,1,0.1,1.6,0.4l0.4,0.4h0.8c1,0.8,2,1.2,2.8,1.2l1.6-0.4
	c0.3,0.3,0.7,0.7,1.2,1.2c0,0.2-0.1,0.4-0.4,0.4h-0.4h-1.2v0.4c0.3,0,0.4,0.1,0.4,0.4c0.3,0,0.7,0,1.2,0h0.4h0.4
	c0.5-0.2,0.9-0.4,1.2-0.4h2l0.8,0.4l0.4,0.4l0.4,0.4c0,0.3,0.3,0.4,0.8,0.4v-0.4l-0.4-0.4v-0.4c0-0.2,0.1-0.5,0.4-0.8h0.4
	c0.5,0,0.8-0.2,0.8-0.8c-0.3,0.3-0.5,0.4-0.8,0.4c-0.3,0.2-0.7,0.4-1.2,0.4c-0.3,0-0.4-0.1-0.4-0.4c0-0.5,0.4-0.8,1.2-0.8l0.4-0.4
	h0.4h0.8c0.3,0.8,0.9,1.3,2,1.5c0.8,0.5,1.7,0.8,2.8,0.8c0.3,0,0.7,0,1.2,0h0.4h0.4c0.3,0,0.5,0,0.8,0c0-0.8,0.4-1.1,1.2-1.1h0.8
	c0.3,0.2,0.5,0.4,0.8,0.4v0.4v0.4H142c0,0.5,0.3,0.6,0.8,0.4c0-0.3,0.1-0.5,0.4-0.8c0-0.3,0.1-0.4,0.4-0.4h0.4
	c0.5-0.5,0.8-1,0.8-1.5l-0.4,0.4l-0.4,0.4c0-0.8,0-1.3,0-1.5s-0.3-0.5-0.8-0.8h-0.8H142c-0.3-0.2-0.4-0.5-0.4-0.8v-0.4l0.4-0.4h0.4
	v-0.4l-0.4-0.4v-0.4c0-0.2,0.1-0.4,0.4-0.4h0.4v-0.4v-0.4c0-0.3,0.1-0.4,0.4-0.4c1.6,0.3,2.4,0.9,2.4,1.9v0.4v0.4h0.4
	c0.3,0.3,0.4,0.5,0.4,0.8v0.4L146,215h-0.6c0.3,0.3,0.5,0.4,0.8,0.4h0.8l0.4,0.4c-0.3,0-0.4,0.1-0.4,0.4c0.5,0.3,0.8,0.8,0.8,1.5
	c0.3,0,0.4-0.1,0.4-0.4l0.4-0.8c0-0.5,0.1-0.8,0.4-0.8c0.3,0,0.5,0.3,0.8,0.8c0.5,0.3,0.8,0.5,0.8,0.8s-0.1,0.4-0.4,0.4l-0.4,0.4
	c0,0.3,0.1,0.5,0.4,0.8c0,0.3,0.1,0.4,0.4,0.4c0.3,0.5,0.7,0.5,1.2,0c0-0.3,0.1-0.5,0.4-0.8v-0.4l0.4-0.8h0.4
	c0.3-0.2,0.4-0.5,0.4-0.8l-0.4-0.4v-0.4c0-0.2,0-0.5,0-0.8c0.3,0,0.5,0,0.8,0h0.4h0.4c0.3,0,0.5,0.1,0.8,0.4c0.3,0,0.4,0.1,0.4,0.4
	c0.5,0.3,0.9,0.4,1.2,0.4v0.4c0,0.3,0,0.5,0,0.8c-0.5,0-0.8,0.3-0.8,0.8v0.4l0.4,0.4c0.3,0.3,0.4,0.5,0.4,0.8s-0.3,0.6-0.8,1.2
	c-0.8,0.5-1.2,0.6-1.2,0.4h-0.4v0.4c-0.3,0-0.5,0-0.8,0l-0.4,0.4l-0.4-0.4h-0.4v-0.4c-0.3,0-0.5,0-0.8,0l0.4,0.4v0.4
	c0,0.3-0.1,0.5-0.4,0.8c-0.5,0.3-0.9,0.4-1.2,0.4s-0.5-0.1-0.8-0.4h-0.4l-0.4-0.4h-0.8c0.3,0.5,0.7,0.8,1.2,0.8
	c0.3,0.3,0.5,0.4,0.8,0.4h1.2v0.8c-0.3,0-0.4,0.1-0.4,0.4l-0.8,0.4c-0.3,0.3-0.5,0.4-0.8,0.4h-0.8v0.4h-0.4c0,0.5-0.1,0.6-0.4,0.4
	c-0.5-0.2-1-0.4-1.6-0.4h-0.4c0,0.3,0.1,0.4,0.4,0.4h0.4l0.4,0.4c0.5,0,0.8,0.1,0.8,0.4c0,0.3-0.3,0.5-0.8,0.8h-0.4
	c-0.3,0-0.5,0-0.8,0l-0.4,0.8v0.4l-0.4,0.4c0,0.3-0.1,0.4-0.4,0.4c-0.8,1-1.2,2-1.2,3v1.9h0.4v-0.4c0.3,0,0.5,0,0.8,0
	s0.5,0.4,0.8,1.2s0.4,1.4,0.4,1.9c0.3,0,0.4-0.1,0.4-0.4h0.4l0.4-0.4c0.3,0,0.5,0.1,0.8,0.4l0.8,0.4c2.1,1,3.6,1.8,4.4,2.3h2.4
	c0.3,0.5,0.5,1,0.8,1.5v0.8v0.4v0.4c0,0.5,0.3,1,0.8,1.5c0.3,0.3,0.4,0.5,0.4,0.8c0.3,0.3,0.5,0.5,0.8,0.8c0.3,0,0.5,0,0.8,0v-0.4
	c0-0.2,0.1-0.4,0.4-0.4l0.4-0.4v-0.4v-0.8v-0.4v-0.9c-0.3-1-0.7-1.7-1.2-1.9c0.5,0,1.2-0.4,2-1.2c0.5-0.5,0.8-0.9,0.8-1.1
	c0-1-0.1-1.9-0.4-2.7l-0.4-0.4l-0.4-0.4c-0.3-0.5-0.5-0.9-0.8-1.1h0.4c0.3-0.3,0.5-0.4,0.8-0.4c0.3-0.2,0.4-0.6,0.4-1.1
	c0-0.2-0.1-0.4-0.4-0.4v-0.3l-0.4-0.4c-0.3-0.3-0.3-0.5,0-0.8c0.5-0.3,0.7-0.5,0.4-0.8v-0.4h-0.4v-0.4c0-0.3,0.1-0.5,0.4-0.8h0.4
	c0.3,0,0.7,0,1.2,0l0.8,0.4c0.3,0,0.5,0,0.8,0h0.4l0.4-0.4c0.5,0,0.9,0.2,1.2,0.8h0.4v0.4c0.3,0.3,0.5,0.4,0.8,0.4
	c0,0.5,0.3,0.8,0.8,0.8l0.4,0.4h0.4l0.4,0.4v0.4v0.4c0.3,0.5,0.4,0.9,0.4,1.2c0,0.5,0.3,0.8,0.8,0.8l0.4,0.4l0.4,0.8
	c0.5,0,1.1-0.2,1.6-0.8c0.5-0.5,0.8-1,0.8-1.5v-0.4l0.4-0.4h0.4l0.4,0.4c0,0.3,0.1,0.4,0.4,0.4v0.4l0.4,0.4c0.5,0.3,0.6,0.5,0.4,0.8
	c0,0.5,0.1,0.9,0.4,1.2l0.4,0.4h0.4c0,0.3,0,0.5,0,0.8h0.4v0.4c0,0.2-0.1,0.4-0.4,0.4v0.4h-0.6l0.4,0.4l0.4,0.4
	c0.5,0.2,0.9,0.4,1.2,0.4c0,0.5,0.3,0.9,0.8,1.2c0.5,0.2,1.1,0.4,1.6,0.4h0.4v0.4c0,0.2-0.4,0.5-1.2,0.7l-0.4,0.4h-0.4
	c-0.3,0-0.5,0.1-0.8,0.4h0.4c0.3,0,0.8-0.1,1.6-0.4c0.5-0.2,1-0.5,1.6-0.8v0.4c0,0.3,0.1,0.4,0.4,0.4v0.4c0.3,0.8,0.4,1.4,0.4,1.9
	s-0.4,0.9-1.2,1.1h-0.8l-0.4,0.4c-0.5,0-0.8,0.1-0.8,0.4c-0.5,0.8-1.1,1.2-1.6,1.2c-0.3,0-0.5,0-0.8,0l-0.8-0.4h-0.8h-0.8H174
	c-0.5,0-1.1,0.1-1.6,0.4c-0.3,0-0.5,0.1-0.8,0.4v0.4v0.4c-0.3,0.3-0.5,0.4-0.8,0.4h-0.4c-0.5,0.2-0.9,0.6-1.2,1.1l0.8-0.4h0.4
	l0.4-0.4c0.8-0.5,1.5-0.8,2-0.8h0.4c0.3,0,0.5,0,0.8,0c0.5,0.3,0.8,0.5,0.8,0.8s-0.3,0.5-0.8,0.8h-0.4l-0.4,0.4h0.4h0.4v0.4v0.4
	c-0.3,0-0.4,0.1-0.4,0.4c0,0.3,0.4,0.6,1.2,1.1c0.5,0.5,1,0.8,1.6,0.8h0.8c0.3,0,0.4,0.1,0.4,0.4c0,0.3-0.4,0.5-1.2,0.8
	c-0.5,0.3-0.9,0.4-1.2,0.4s-0.4,0.1-0.4,0.4h-0.4l-0.4,0.4l-0.8,0.8l-0.4-0.4c-0.3-0.3-0.4-0.5-0.4-0.8c0-0.3,0.3-0.5,0.8-0.8
	s1.1-0.4,1.6-0.4c-0.5,0-0.8-0.1-0.8-0.4v-0.4c-0.3,0-0.4,0.1-0.4,0.4h-0.4v0.4h-0.8H172h-0.4v0.4c-0.3,0.5-0.7,0.8-1.2,0.8h-0.8
	c0,0.3-0.1,0.4-0.4,0.4l-0.4,0.4l-0.4,0.4c-0.3,0.3-0.4,0.8-0.4,1.5c0,0.3,0,0.5,0,0.8h0.4l-0.4,0.4c-0.3,0-0.4-0.1-0.4-0.4
	c-0.3,0.3-0.7,0.5-1.2,0.8H166v0.4c-0.1,0-0.2,0-0.4,0l0.4-0.4h-0.4c-0.3,0-0.5,0.1-0.8,0.4h-0.4v0.4v0.4c0,0.3,0,0.5,0,0.8
	l-0.8,0.8v-0.4l-0.4,0.4v0.4h0.4v0.4l-0.4,0.8l-0.4,0.8l-0.4-0.4v-0.4v-0.4v-0.4l-0.4-0.4v0.4c0,0.3,0,0.5,0,0.8
	c0.3,0.3,0.4,0.5,0.4,0.8v0.4v0.4v0.4H162c0,0.2,0.3,0.4,0.8,0.4c-0.3,0.3-0.5,0.4-0.8,0.4v0.4l0.4,0.4l-0.4,0.4l-0.4,0.4h-0.4
	c-0.3,0-0.5,0.1-0.8,0.4v0.4H160l-0.8,0.8c-0.5,0-0.9,0.2-1.2,0.7c-0.8,0.5-1.2,1.4-1.2,2.7c0,0.5,0.1,1,0.4,1.5
	c0.5,0.5,0.8,1,0.8,1.5v0.4v0.4c0.3,0.2,0.4,0.5,0.4,0.8c0,1-0.3,1.5-0.8,1.5c-0.3,0-0.4-0.1-0.4-0.4l-0.4-0.4v-0.4h-0.4v-0.4
	c-0.3-0.3-0.5-0.5-0.8-0.8c0-0.3,0-0.6,0-1.2l-0.4-0.4v-0.8c-0.3-0.8-0.7-1.2-1.2-1.2h-0.4l-0.2-0.6H153l-0.4-0.4l-0.4-0.4
	c-0.3,0-0.5,0-0.8,0H151l-0.4,0.4v-0.4h-0.4h-0.4h-0.4c-0.5,0-0.8,0.1-0.8,0.4h0.4l-0.4,0.4c0,0.3,0.1,0.5,0.4,0.8
	c-0.3,0.3-0.7,0.1-1.2-0.4h-0.4l-0.4-0.4h-0.4h-0.4c0,0.3-0.1,0.4-0.4,0.4l-0.4-0.4l-0.4-0.4c-0.5,0-0.9,0.3-1.2,0.8
	c-0.3,0-0.4,0.1-0.4,0.4l-0.4,0.4h-0.4h-0.4v0.4c-1.1,0.2-1.6,1-1.6,2.3l0.4,0.4v0.8c0,0.3,0,0.5,0,0.8l-0.4,0.4v0.4v1.9v0.4
	l0.4,0.4v0.4v0.4v0.4l0.4,0.4l0.4,0.4v0.4c0.3,0,0.4,0.1,0.4,0.4l0.4,0.4c0.3,0.3,0.5,0.5,0.8,0.8h0.4v0.4h0.4h0.4l0.4-0.4h0.4
	c0.3,0,0.5,0,0.8,0h0.4h0.4v-0.4l0.4-0.4l0.4-0.4v-0.8c0-0.5,0.3-0.9,0.8-1.2c0.5-0.2,1.1-0.4,1.6-0.4c0.3,0,0.5,0,0.8,0
	s0.5,0,0.8,0v0.4c0,0.3-0.1,0.7-0.4,1.2c-0.3,0.2-0.4,0.5-0.4,0.8c0,0.5-0.1,1-0.4,1.5v-0.7h-0.4v1.9v0.4h-0.4v0.4v0.4h0.4
	c0.3,0,0.8,0,1.6,0h0.8c0.3,0,0.5,0,0.8,0s0.5,0.1,0.8,0.4h0.4c0.3,0,0.4,0.1,0.4,0.4v0.8v0.4v0.8v2.7c0,0.2,0.1,0.5,0.4,0.8
	c0,0.2,0.1,0.4,0.4,0.4h0.4l0.4,0.4v0.4c0.3,0.3,0.5,0.4,0.8,0.4l0.4-0.4h0.4l0.8-0.4h0.4c0.5,0,0.9,0.1,1.2,0.4l0.4,0.4l0.4,0.4
	h0.4l0.4-0.4v-0.4h0.4v-0.6c0.3,0,0.4-0.1,0.4-0.4v-0.4c0-0.5,0.3-0.8,0.8-0.8c0.5-0.3,0.9-0.4,1.2-0.4l0.8-0.4h0.4l0.4-0.4h0.4
	c0-0.2,0.1-0.4,0.4-0.4h0.4v0.4l-0.4,0.4l-0.4,0.4v0.4v0.8c0,0.2,0,0.5,0,0.8c0.3,0.2,0.5,0.4,0.8,0.4c0-0.2,0-0.5,0-0.8v-0.4
	l-0.4-0.4c0-0.2,0.1-0.5,0.4-0.8h0.4h0.4h0.8c0-0.2-0.1-0.4-0.4-0.4h-0.6v-0.4h0.8c0,0.3,0.1,0.5,0.4,0.8h0.4h0.4
	c0,0.5,0.1,0.8,0.4,0.8h2c0,0.3,0.1,0.4,0.4,0.4h0.4c0.5,0,0.9-0.1,1.2-0.4l0.4-0.4h0.4c0.3,0,0.5,0.1,0.8,0.4H176
	c0,0.3,0.1,0.5,0.4,0.8h0.8c0-0.5,0.1-0.8,0.4-0.8v0.4c0,0.2-0.1,0.4-0.4,0.4l0.4,0.4c0.3,0,0.4,0.1,0.4,0.4v0.4v0.4h0.8
	c0.3,0,0.5,0.1,0.8,0.4v0.4c0.3,0,0.5,0.3,0.8,0.8h0.4c0.3,0.5,0.7,0.9,1.2,1.1c0.3,0,0.5,0,0.8,0h0.4l0.4,0.4h0.8h0.4h0.4h0.4v0.4
	h0.4c0.3,0,0.5,0.1,0.8,0.4l0.8,0.8h0.4c0,0.3,0,0.6,0,1.1l0.4,0.8v0.4h0.4v0.4c0.3,0,0.4,0.1,0.4,0.4l-0.4,0.4l-0.8,0.4
	c-0.3,0.5-0.4,1-0.4,1.5v0.4h0.4c0.3,0.3,0.5,0.5,0.8,0.8h0.8c-0.3,0-0.5-0.1-0.8-0.4c-0.5-0.2-0.8-0.5-0.8-0.7c0-0.5,0-0.8,0-0.8
	s0.3,0,0.8,0h0.4h0.4l0.4,0.4l0.4-0.4v0.4v0.4l-0.4,0.4c0,0.5-0.1,0.8-0.4,0.8v0.4h0.4v-0.4l0.4-0.4l0.4-0.4
	c0.3-0.2,0.5-0.4,0.8-0.4s0.7,0,1.2,0l0.4,0.4c0.3,0.3,0.5,0.4,0.8,0.4l0.4,0.4l0.4,0.4v0.4h0.4h0.4c0.3,0,0.5,0.1,0.8,0.4
	c0.3,0,0.5,0,0.8,0h1.2c0.3,0,0.7,0,1.2,0c0.3,0.3,0.5,0.4,0.8,0.4c0,0.3,0.3,0.6,0.8,1.1l0.8,0.8h0.4h0.4c0.3,0,0.4,0,0.4,0
	s0.1,0,0.4,0c0.5,0.3,0.8,0.9,0.8,1.9C204.2,315.3,203.9,316.4,203.4,317.1z M164.5,357.3v-0.4v-0.4l0.4-1.1c0.3,0,0.4,0.1,0.4,0.4
	v0.4v0.4v1.1h-0.4L164.5,357.3z M183.5,247.9v0.4h0.4c0.5,0,0.9,0,1.2,0v0.4v0.4v0.4v0.4v0.4v0.4c0.3,0,0.5-0.1,0.8-0.4v0.4v0.4
	c0,0.5-0.1,0.8-0.4,0.8h-0.4v-0.4h-0.4v-0.4l-0.4-0.4v0.4h-0.4l-0.4,0.4h-0.4c0-0.2,0.1-0.4,0.4-0.4h-0.4c-0.3,0-0.4-0.1-0.4-0.4
	l-0.8,0.4c-0.3,0-0.5-0.1-0.8-0.4h-0.4h-0.3c-0.3,0.3-0.5,0.4-0.8,0.4v-0.4v-0.4l0.4-0.4v-0.4h-0.4c0.5-0.3,0.9-0.8,1.2-1.5l0.4-0.4
	v-0.4l0.4-0.8l0.4-0.8c0.3-0.5,0.5-0.8,0.8-0.8v0.4c0,0,0,0.1,0,0.4c0,0.3,0,0.5,0,0.8l-0.4,0.4l-0.4,0.4v0.4h0.4h0.4h0.4l-0.4,0.4
	L183.5,247.9L183.5,247.9z M178.8,252.5v0.4c0,0.3-0.1,0.4-0.4,0.4H178c-0.5,0-0.8-0.1-0.8-0.4l0.4-0.4l0.4-0.8h0.4v0.4v0.4
	L178.8,252.5L178.8,252.5z M175.2,248.3l-0.4-0.4h-0.4l-0.4-0.4c0.5,0,1,0.1,1.6,0.4h0.8l0.4,0.8h-0.4
	C176.1,248.7,175.7,248.5,175.2,248.3z M176.4,252.5v0.4H176c-0.3,0-0.5-0.1-0.8-0.4c-0.5-0.2-0.8-0.5-0.8-0.8
	c0.3,0.3,0.5,0.5,0.8,0.8H176.4z M172.4,286.5c0.3,0,0.5,0.1,0.8,0.4h-0.4h-0.4c-0.3,0-0.5,0-0.8,0v-0.4l0.4-0.4v0.4H172.4z
	 M167.7,286.9l-0.4,0.4h-0.4v-0.4c-0.3,0-0.5,0-0.8,0h-0.4h-0.4h-0.4h-0.4c0-0.3,0-0.4,0-0.4v-0.4h1.6c-0.3,0-0.4-0.3-0.4-0.8
	c-0.3,0-0.4-0.1-0.4-0.4l0.4-0.4h0.4v0.4h0.4h0.4h0.4h0.4c0.5,0,0.9,0.1,1.2,0.4h0.4c0,0.2,0.1,0.4,0.4,0.4h-0.4l0.4,0.4h0.4
	l0.4,0.4h-1.6l-0.4,0.4h-0.4v-0.4C167.8,286.5,167.7,286.7,167.7,286.9z M164.9,283.9v-0.4c0.3,0,0.4-0.1,0.4-0.4v0.4
	C165.3,283.7,165.1,283.9,164.9,283.9z M161.7,285l-0.4-0.4h-0.4c0.3,0,0.4-0.1,0.4-0.4l-0.4-0.4h-0.4c-0.3,0-0.4-0.1-0.4-0.4
	c-0.3,0-0.4-0.1-0.4-0.4h-0.4h-0.4h-0.4l-0.4-0.4l-0.4-0.4h-1.2v-0.4h-0.4c-0.3,0-0.7,0.1-1.2,0.4c-0.5,0-0.8,0.1-0.8,0.4h-0.4
	c0.5-1,1.4-1.5,2.8-1.5c0.5,0,1.2,0.1,2,0.4c0.8,0.5,1.3,0.8,1.6,0.8h0.4v0.4c0.8,0.5,1.6,0.8,2.4,0.8v0.4h0.4
	c0.3,0,0.4,0.1,0.4,0.4l0.4,0.4c0,0.2-0.1,0.4-0.4,0.4h-0.4h-0.4c-0.3,0-0.5,0-0.8,0L161.7,285L161.7,285z M162.1,286.9l-0.4,0.4
	c-0.3,0-0.5,0-0.8,0l-0.4-0.4c0,0,0-0.1,0-0.4h0.4h0.4h0.4L162.1,286.9z M160.1,277.4h-0.4V277h0.4h0.4v0.4H160.1z M160.5,279.3v0.4
	v0.4c-0.3,0-0.4-0.1-0.4-0.4v-0.4H160.5z M192.7,215.5c0,0.3-0.3,0.5-1,0.8h-0.9h-1l-0.5-0.4c-0.3-0.5-0.5-0.9-0.5-1.2l0.5-0.4
	l0.5-0.4c0.6,0,1.1,0.3,1.4,0.8h0.5v0.4C192,215.3,192.4,215.5,192.7,215.5z M225.1,216.2c-0.6,0.5-1.1,0.8-1.4,0.8
	c-0.3,0.3-0.6,0.4-1,0.4h-1.4c-0.6,0.3-1.3,0.5-1.9,0.8h-1.9l-1,0.4l-1,0.8c-0.3,0.3-0.6,0.6-0.9,1.2l-0.5,0.4
	c0,0.3-0.2,0.4-0.5,0.4c0,0.2-0.5,0.5-1.4,0.8h-0.5l-1,0.4h-1v-0.8l-0.5,0.4v0.4v0.4c-0.3,0-0.6,0.2-1,0.4h-0.5h-0.5
	c-1,0.3-1.4,0.6-1.4,1.2v0.4v0.4v0.4c0.3,0.3,0.5,0.5,0.5,0.8s-0.2,0.4-0.5,0.4c0,0.3-0.3,0.4-1,0.4v0.4h-0.5
	c-0.3,0.3-0.5,0.5-0.5,0.8v0.4v0.8v0.8v0.8h-0.5v0.8c-0.3,0.5-0.6,0.8-0.9,0.8c-0.3,0-0.5-0.1-0.5-0.4c0,0.3-0.2,0.4-0.5,0.4h-0.5
	c-0.3,0-0.6-0.2-1-0.8c0-0.3-0.2-0.5-0.5-0.8h0c-0.3,0-0.6,0-1,0l-0.5,0.4h-0.5c0-0.2-0.2-0.5-0.5-0.8h-0.5c0-0.2-0.2-0.4-0.5-0.4
	v-0.4v-0.4c-0.7-0.3-1.1-0.8-1.4-1.6c-0.6-0.8-1-1.4-1-2v-0.7l0.5-0.4c-0.3-0.2-0.6-0.2-1,0h-0.5c-0.3,0-0.5-0.1-0.5-0.4v-0.4v-0.4
	c-0.3-0.3-0.5-0.5-0.5-0.8l-0.5-0.4c-0.3-0.2-0.5-0.6-0.5-1.2v-0.4v-0.4h0.5c-0.3-0.2-0.7-0.2-1,0v-1.2l0.5-0.4v-0.8
	c0.3-0.2,0.6-0.5,0.9-0.8c0.7-0.2,1.1-0.2,1.4,0c0-0.5,0.2-1,0.5-1.6l0.5-0.8l0.5-0.4c-0.3-0.3-0.8-0.4-1.4-0.4h-0.5l-1-0.4
	c-1.3-0.3-1.9-0.6-1.9-1.2h0.5h0.5l0.9,0.4c0.7,0.3,1.1,0.4,1.4,0.4h0.5v0v-0.4c-0.3,0-0.6-0.1-1-0.4l-0.5-0.4v-0.4
	c-0.7-0.5-1.3-0.8-1.9-0.8l-0.5,0.4h-0.5c-0.6,0-1-0.1-1-0.4v-0.4v-0.4h0.5c0.3-0.2,0.5-0.6,0.5-1.2l-0.5-0.4l0,0h-0.5v-0.2
	c-0.6-2.1-1.6-3.6-2.9-4.7c-1.6-1.6-3.5-2.3-5.7-2.3h-1.4h-0.5v0.4c-0.3,0.2-0.6,0.4-1,0.4l-0.5-0.4h-0.5c-0.3,0-0.6,0-1,0v0.4
	c-0.6,0-1.3,0-1.9,0c-0.6-0.2-1-0.5-1-0.8l0.5-0.4l0.5-0.4h-1v-0.4l-1-0.4h-1.4l0.5-0.4h0.5c0-0.3,0.2-0.4,0.5-0.4h1h0.5h2.4
	c0.3-0.2,0.6-0.5,1-0.8h-1.9c0,0.3-0.2,0.4-0.5,0.4h-1.4l-1-0.4c-0.3,0-0.6-0.1-1-0.4c-1.6-0.5-2.4-0.9-2.4-1.2c0-0.5,0.3-0.8,1-0.8
	h0.5h1l0.5-0.4l0.5-0.4c0.7,0,1-0.1,1-0.4c0.3,0,0.7,0,1,0h1c1,0,1.6,0,1.9,0c0.6-0.5,1-1.2,1-1.9v-0.4h-0.5c-0.6,0-1.1,0-1.4,0
	c-0.6,0-1-0.1-1-0.4c0-0.3,0-0.5,0-0.8h0.5h0.5c1.6-0.5,2.9-1.3,3.8-2.3c0.3,0.2,0.8,0.4,1.4,0.4c0.3,0,0.5-0.2,0.5-0.8l0.5-0.4
	v-0.4c0-0.2,0.2-0.4,0.5-0.4s0.6,0,1,0h1c0.6-0.3,1.3-0.4,1.9-0.4c0.3,0,0.6-0.1,1-0.4h1c0.6-0.5,1.1-0.8,1.4-0.8
	c0.3,0,0.5,0.1,0.5,0.4v0.4h0.5l0.5,0.4c0,0.3,0.1,0.4,0.5,0.4c0-0.3,0-0.5,0-0.8h-0.5l0.5-0.8c0.3,0.5,0.6,0.8,1,0.8h0.5l1,0.4h0.5
	v-0.4h-0.5v-0.4c0-0.2,0.2-0.4,0.5-0.4h0.5c1,0,1.7,0.1,2.4,0.4l1,0.4l0.5,0.4h1.9l-0.5-0.4c-0.3,0-0.6,0-1,0c-0.7-0.5-1-0.9-1-1.2
	c0-0.2,0.3-0.4,1-0.4h0.5v-0.4c-0.3,0-0.5-0.1-0.5-0.4c1.3-0.5,2.5-0.8,3.8-0.8c1,0,1.7,0.1,2.4,0.4h1v-0.4c0.3,0,0.6,0,1,0h0.5h0.5
	c0.3,0,0.8,0,1.4,0l1.4-0.8c1.3-0.2,2.2-0.4,2.9-0.4h6.2c1,0,2.1,0.2,3.3,0.8l0.5,0.4l1,0.4c0.6,0.3,1.1,0.5,1.4,0.8
	c0.3,0.3,1,0.4,1.9,0.4h1c0.3,0,0.6,0,1,0c0,0.5-0.7,0.9-1.9,1.2h-0.5h-1c-0.3,0.3-0.7,0.4-1,0.4l-9.6,0.4c0.3,0.3,1.7,0.3,4.3,0
	h1.4c0.6,0,1.1,0,1.4,0h1.4v0.4l-0.5,0.4l-0.5,0.4l-0.5,0.8c0.3,0,0.6-0.1,1-0.4l1-0.4l0.5-0.4c0.6-0.2,1.1-0.5,1.4-0.8l1-0.4
	c1,0,1.4,0.4,1.4,1.2c0,0.3-0.5,0.9-1.4,2l-0.5,0.4l-0.5,0.4l-0.5,0.8c0.3,0,1-0.5,1.9-1.6l0.5-0.8l0.5-0.4c0.3-0.2,0.6-0.4,1-0.4
	h2.9c0.3,0,0.6,0,1,0c0.3,0,0.6-0.1,1-0.4v-0.2h0.5h1.9c0.3-0.5,0.6-0.8,1-0.8c0.3,0,0.8,0.3,1.4,0.8c1,0.3,1.4,0.5,1.4,0.8
	s-0.2,0.5-0.5,0.8h-1.3c-0.6,0.2-1.1,0.4-1.4,0.4l-0.5,0.4l-0.5,0.4c-0.6,0.3-1.4,0.4-2.4,0.4c0.6,0.2,1,0.2,1,0
	c0,0.5-0.2,0.9-0.5,1.2h-0.5l-1,0.4v0.4c0,0.3-0.2,0.4-0.5,0.4l-0.5,0.4h-1v0.4v0.4c0,0.3-0.2,0.5-0.5,0.8l-0.5,0.4l-0.5,0.4
	c-0.3,0-0.5,0.3-0.5,0.8v0.4v0.4c0,0.3,0.2,0.3,0.5,0h0.5c0.3,0,0.6,0.1,1,0.4h0.5l0.5,0.4l-0.5,0.4v0.4h0.5c0.6,0.2,1,0.5,1,0.8
	c0,0.2-0.5,0.5-1.4,0.8c-0.3,0-0.6,0-1,0h-0.5v-0.4c-0.3,0-0.6,0.1-1,0.4v0.4c0,0.3,0.2,0.5,0.5,0.8h0.5h0.5v0.4v0.4
	c0.3,0.3,0.5,0.5,0.5,0.8v0.4v0.4c-1,0-1.4,0.3-1.4,0.8l0.5,0.4h1l0.5,0.4c-0.3,0.5-1,0.8-1.9,0.8c0,0.3,0.2,0.5,0.5,0.8
	c-0.3,0.3-0.8,0.5-1.4,0.8H229c-0.3,0.2-0.4,0.4-0.5,0.7c0.3,0.2,0.5,0.5,0.5,0.9c0,0.2-0.2,0.5-0.5,0.8H228c-0.3,0-0.7-0.1-1-0.4
	c-0.7-0.5-1.1-0.9-1.4-1.2h-0.5v0.4c0.3,0.3,0.8,0.6,1.4,1.2l0.5,0.4l1,0.4c1,0.8,1.4,1.6,1.4,2.3c0,0.3-0.2,0.4-0.5,0.4v0.4h-0.5
	c-0.6,0-1.1-0.1-1.4-0.4c0-0.2-0.2-0.5-0.5-0.8c-0.3-0.8-0.8-1.2-1.4-1.2l-0.5,0.4l-0.5-0.4v0.4l0.5,0.4v0.4c0,0.3-0.2,0.4-0.5,0.4
	h-0.5c0,0.5,0.8,0.9,2.4,1.2h0.5h0.9c0.7,0,1,0,1,0s0,0.1,0,0.4c-0.3,0-1,0.3-1.9,0.8H226C225.8,215.7,225.5,216,225.1,216.2z
	 M232.3,203.8l0.5-0.4h1v0.4h0.5l-0.5,0.4c-0.3,0.3-0.7,0.4-1,0.4v-0.4L232.3,203.8z M229.4,225.5l-0.5-0.4c-0.3,0-0.7,0-1,0v-0.4
	h0.5c0-0.3,0-0.5,0-0.8v-0.4h-0.5h-0.5h-0.5l1-0.4c0.3,0,0.6,0,1,0v-0.4c-0.3,0-0.8-0.1-1.4-0.4c-0.6,0-0.9-0.1-0.9-0.4
	c0.3-0.3,0.6-0.3,0.9,0v-0.4h0.5v-0.4h0.5c0,0.2,0.2,0.4,0.5,0.4v0.4v0.4l0.5,0.4c0.3,0,0.5-0.1,0.5-0.4h0.5c-0.3-0.2-0.3-0.4,0-0.4
	v0.4h0.5l1-0.4l0.5,0.4v-0.4c0.3,0,0.6,0,1,0h0.5h0.5h0.5c0.3-0.3,0.5-0.3,0.5,0c0-0.3,0.2-0.5,0.5-0.8c0,0.5,0.3,0.8,1,0.8l0.5-0.4
	h0.5v0.4c0,0.2,0,0.5,0,0.8l0.5,0.4c0.6,0,1,0.3,1,0.8c-0.3,0.3-0.7,0.5-1,0.8c-0.3,0.5-0.6,0.8-1,0.8h-1l-0.5,0.4
	c-0.6,0.3-1.3,0.4-1.9,0.4c-0.7,0-1.3,0-1.9,0l-1-0.4l-1-0.4L229.4,225.5L229.4,225.5z M302.3,324.9v0.4l-0.4-0.4h-0.5
	c0,1.3-0.2,2.6-0.5,3.9c0,0.5-0.2,1.1-0.5,1.6l-0.9,1.6v0.8v0.8c-0.3,0.5-0.6,1.1-0.9,1.6c-0.6,0.8-1.3,1.2-2.2,1.2
	c-0.6,0-1-0.1-1.3-0.4c-0.6-0.5-0.9-1-0.9-1.5l0.4-0.4v-0.4c-0.3-0.2-0.4-0.5-0.4-0.8v-0.8c0-0.2,0-0.5,0-0.8c0.3,0,0.6,0,0.9,0
	l0.4-2c0-0.2-0.1-0.5-0.4-0.8v-0.8v-0.4c0-0.8,0.3-1.3,0.9-1.6c0-0.3,0.3-0.4,0.9-0.4l0.4-0.4h0.4c0.3-0.3,0.7-0.8,1.4-1.6h0.4
	l0.5-0.8l0.4-0.4v-0.4v-0.4v-0.4c0.6,0,1,0.5,1.3,1.5v0.4l0.4,0.8C302.3,324.3,302.3,324.7,302.3,324.9z M311.1,291.4
	c-0.3,0-0.4,0-0.4,0s-0.2,0-0.5,0c0.3-0.3,0.6-0.4,0.9-0.4V291.4z M341,297.1c0,0.5-0.3,0.8-0.9,0.8c-0.6,0-0.9-0.4-0.9-1.2
	c0-0.2,0-0.5,0-0.8l0.4-0.8c0.3-0.5,0.5-1.1,0.5-1.6c0,0.3,0.1,0.5,0.4,0.8l0.4,0.4c0.3,0.5,0.4,1,0.4,1.6
	C341.4,296.6,341.3,296.9,341,297.1z M359.6,303.8l-0.4-0.4V303v-0.4c0.3,0.3,0.4,0.5,0.4,0.8C359.9,303.7,359.9,303.8,359.6,303.8z
	 M360.9,305.3c0,0.2,0,0.5,0,0.8v-0.4l-0.4-0.4v-0.4h0.4V305.3z M366.9,310.3l-0.4-0.4l-0.4-0.4v-0.4c-0.3,0-0.7-0.2-1.3-0.7
	l-0.4-0.4l-0.4-0.4c-0.6-0.5-1.1-1.3-1.7-2.3c0-0.3,0-0.5,0-0.8l-0.4-0.4v-0.4h-0.4h-0.4v-0.8l-0.4-0.4v-0.4
	c-0.3-0.3-0.6-0.5-0.9-0.8h-0.4v-0.4c-0.3-0.5-0.6-0.9-0.8-1.1h-0.4l-0.4-0.4l-0.4-0.4l-0.4-0.8v-0.4h0.4h0.4v0.4h1.3
	c0.6,0,1,0.4,1.3,1.1c0,0.3,0.1,0.4,0.4,0.4s0.6,0.1,0.9,0.4l0.4,0.4c0.8,1,1.6,1.5,2.1,1.5l0.4,0.4h0.4c0.3,0.3,0.4,0.5,0.4,0.8
	v0.4h0.4h0.4l-0.5,0.4c0,0.5,0.3,0.8,0.9,0.8c0,0.3,0.1,0.5,0.4,0.8v0.4l0.4,0.4h0.4v0.4c0.3,0,0.4,0.1,0.4,0.4v1.6
	c-0.3,0-0.4,0.1-0.5,0.4v0.4v0.4l-0.4,0.4L366.9,310.3z M368.7,306.3c0,0.3,0.1,0.4,0.4,0.4v0.4h-0.4v-0.4h-0.4v-0.4
	c0-0.2-0.1-0.4-0.4-0.4h-0.4c0-0.2,0.2-0.4,0.4-0.4c0-0.2,0.2-0.4,0.5-0.4v0.8L368.7,306.3z M372.9,312.5h-0.4
	c-0.9,0-1.6-0.1-2.2-0.3h-0.4h-0.4h-0.4l-0.4-0.4l-0.4-0.4l-0.4-0.4l0.5-0.4l0.4-0.4v0.4h0.4v-0.4h0.4c0.3,0,0.6,0.1,0.9,0.4
	l0.4,0.4c0.3,0,0.6,0.1,0.9,0.4c0.3,0,0.6,0,0.9,0h0.4l0.4-0.4h0.4h0.4l0.4,0.4c0.3,0,0.6,0,0.9,0h0.9h0.4l-0.9,0.4h-0.4
	c0.3,0.2,0.7,0.4,1.3,0.4h0.4v0.4h0.4h0.4l0.4,0.4h0.4h0.4h0.4v0.4c0,0.2-0.2,0.4-0.4,0.4l-0.4-0.4V313l-0.5,0.4H378l-0.4-0.4
	c-0.3,0-0.4,0.1-0.4,0.4h0.4v0.4c-1.2-0.5-2.6-0.7-4.3-0.7L372.9,312.5z M370.4,307.1v-0.4h0.4v0.4
	C370.5,307.1,370.4,307.1,370.4,307.1z M372.7,302.4h0.4c0.3,0,0.6-0.1,0.9-0.4v-0.4v-0.4l0.5-0.4l0.4-0.4h0.4h0.4l0.5-0.4v-0.4h0.4
	c0-0.3,0-0.5,0-0.8h0.4h0.4v-0.4h0.4l0.4-0.4h0.4c0-0.3,0.2-0.5,0.5-0.8c0-0.3,0.2-0.4,0.4-0.4c0.3-0.8,0.6-1.2,0.9-1.2
	s0.4,0.4,0.4,1.2c0,0.3,0.1,0.4,0.4,0.4h0.4l0.4,0.4h0.4v0.4h-0.4l-0.4,0.4v0.4h0.4c-0.3,0-0.7,0.1-1.3,0.4v0.4c0,0.5,0.1,1,0.4,1.5
	c0.6,0.8,1,1.1,1.3,1.1c0,0.3-0.2,0.4-0.5,0.4h-0.4H381l-0.4,0.4v0.4v0.8c-0.3,0.3-0.5,0.5-0.5,0.8c-0.3,0-0.4,0.1-0.4,0.4l-0.4,0.4
	l0.4,0.4v0.4l-0.4,0.4c0,0.3,0,0.5,0,0.8H379l-0.5,0.4H378h-0.4v-0.4l-0.4-0.4h-0.4c-0.3-0.2-0.6-0.4-0.9-0.4l-0.5,0.4h-0.4h-0.4
	V307v-0.4l-0.4,0.4h-0.4c-0.6,0-0.9-0.2-0.8-0.8v-0.4l-0.4-0.4V305v-0.4l-0.4-0.4l-0.4-0.8c-0.3-0.3-0.4-0.5-0.4-0.8
	s0.3-0.4,0.9-0.4L372.7,302.4z M372.6,283.3c-0.6,0-0.9-0.3-0.9-0.8h-0.4c0-0.3,0.2-0.4,0.4-0.4v-0.4h0.4h0.4
	c0.6-0.5,0.9-0.8,0.9-0.8c0.3,0,0.4,0.1,0.4,0.4l0.4,0.4c0,0.2-0.3,0.7-0.9,1.2L372.6,283.3z M383.9,283.8c0-0.3,0.1-0.5,0.4-0.8
	h0.4c0,0.2,0.1,0.4,0.4,0.4h0.4v0.4l0.4,0.4v0.4v0.4v0.4l-0.4,0.4c0,0.3,0,0.5,0,0.8s0,0.6,0,1.2c0.3,0.3,0.6,0.4,0.9,0.4v-0.4h0.4
	l0.4,0.4v0.4h0.4v0.4h0.4v0.4l-0.9-0.4v-0.4h-0.4v0.4h-0.4v-0.4l-0.4-0.4h-0.4v0.4h-0.4l-0.4-0.4v-0.4h0.4v-0.4h-0.4h-0.4l-0.4-0.4
	v-0.4v-0.4v-0.4l0.4-0.4c0-0.3,0-0.5,0-0.8v-0.4L383.9,283.8z M384.5,277.2c0-0.2,0.2-0.8,0.5-1.6c0.3-0.5,0.6-0.8,0.9-0.8l0.4,0.4
	c0,0.5-0.2,1.1-0.5,1.6c0,1,0,1.6,0,1.6s-0.3,0-0.9,0C384.6,278.4,384.5,278,384.5,277.2z M388.9,292.3v-0.4v-0.4v-0.4h-0.4v-0.4
	h0.4h0.4c0-0.2-0.1-0.5-0.4-0.8h-0.4v-0.4h0.4l0.4,0.4h0.4c0,0.3,0,0.5,0,0.8v0.4v0.4h-0.4v0.4c0.3,0,0.4,0.1,0.4,0.4
	c0.3,0,0.4,0.1,0.4,0.4h0.4c0,0.2,0.1,0.8,0.4,1.6c0.3,0.5,0.4,0.9,0.4,1.1h-0.4v0.4c-0.3,0.3-0.5,0.5-0.5,0.8v-0.4v-0.4H390h-0.4
	v0.4h0.4v0.4c0,0.3-0.2,0.4-0.5,0.4h-0.4c-0.6,0-0.9-0.4-0.8-1.2c0-0.2,0.2-0.4,0.4-0.4l-0.4-0.4h-0.4v0.4l-0.4-0.4v0.4l-0.4-0.4
	v0.4v0.4c-0.3,0.3-0.6,0.4-0.9,0.4v-0.4c0.3,0,0.4-0.1,0.4-0.4h-0.4V295l0.4-0.4c0.3,0,0.5-0.3,0.5-0.8h0.4h0.4l0.4,0.4h0.4v-0.4
	c0-0.2,0.1-0.4,0.4-0.4h0.4V293v-0.4v-0.4h-0.4L388.9,292.3c0,0.5-0.2,0.8-0.5,0.8H388v-0.4h0.4v-0.4H388c-0.3,0.3-0.5,0.5-0.5,0.8
	c0.3,0,0.4,0.1,0.4,0.4h-0.4l-0.4-0.4l-0.4-0.4c0-0.3,0.2-0.4,0.5-0.4v-0.4c0.3-0.3,0.4-0.4,0.4-0.4h0.4h0.4c0,0.3,0,0.5,0,0.8
	H388.9z M384.7,304.8l0.4-0.4v0.4l0.9-0.4c0.6-0.3,1-0.4,1.3-0.4v0.4c-0.3,0-0.4,0.1-0.4,0.4h-0.4c-0.3,0.5-0.7,0.8-1.3,0.8l0.4,0.8
	l0.4,0.8c0,0.3,0,0.5,0,0.8h0.4v0.4H386l-0.4,0.4h-0.4v-0.4V308c-0.3-0.2-0.4-0.5-0.4-0.8v-0.8h-0.4l-0.4,0.4v0.4l0.4,0.4
	c0,0.3,0,0.5,0,0.8v0.4v0.4c-0.3,0.5-0.6,0.8-0.9,0.8v-0.4c-0.3,0-0.4-0.1-0.4-0.4v-1.9h-0.4c-0.3,0-0.4-0.1-0.4-0.4
	s0.2-0.5,0.5-0.8v-0.4c0.3-0.3,0.4-0.5,0.4-0.8v-0.4c0.3,0,0.4-0.1,0.5-0.4c0-0.5,0-0.9,0-1.2c0.6-0.5,1-0.8,1.3-0.8l2.6,0.3h0.4
	l0.4-0.4l0.4-0.4h0.4c0,0.5-0.2,0.9-0.5,1.2c0,0.3-0.3,0.4-0.9,0.4l-0.4-0.4c-0.3,0-0.6,0-0.9,0h-0.4h-0.9h-0.4
	c-0.3,0-0.4,0.1-0.4,0.4c-0.3,0-0.4,0.1-0.4,0.4s0,0.5,0,0.8C384.1,304.7,384.4,304.8,384.7,304.8z M383.2,314.6l-0.4-0.4h-0.4
	c0-0.2,0.2-0.4,0.4-0.4h0.4h0.4c0,0.2,0.1,0.4,0.4,0.4v0.4v0.4h-0.4v-0.4H383.2z M381.9,313.4l-0.4-0.4v0.4h-0.4h-0.4h-0.4h-0.4
	c0-0.5,0.3-0.8,0.9-0.8c0.3,0,0.6,0.1,0.9,0.4v-0.4h0.9v0.8H381.9z M383.6,313.4c-0.3,0-0.4-0.1-0.4-0.4s0.1-0.4,0.4-0.4h0.4h0.4
	h0.4v0.4c0.3,0,0.6,0,0.9,0l0.4-0.4h0.4c-0.3,0.3-0.6,0.5-0.9,0.8h-1.7H383.6z M384.7,288.5l0.4,0.4h0.4l0.4,0.4l-0.4,0.4
	c0,0.3,0,0.4,0,0.4L384.7,288.5z M387.5,314.5c0-0.3,0-0.5,0-0.8h0.4l0.4-0.4h0.4c0.3-0.2,0.7-0.4,1.3-0.4c0.6-0.3,0.9-0.3,0.9,0
	c0,0.2-0.3,0.4-0.9,0.4c-0.6,0.3-1,0.4-1.3,0.4v0.4c-0.3,0.3-0.4,0.5-0.4,0.8c-0.3,0-0.6,0-0.9,0L387.5,314.5z M390.2,307.4V307
	v-0.4h0.4c0.3,0,0.4,0.1,0.4,0.4v0.4v0.4C390.8,307.8,390.5,307.7,390.2,307.4z M386.3,292c0-0.3,0-0.5,0-0.8v-0.4v-0.4l0.4,0.4h0.4
	v0.8l-0.5,0.4H386.3z M387.6,290h-0.4v-0.4h0.4l0.4,0.4v0.4c0,0,0-0.1,0-0.4H387.6z M384.2,291.6v0.4h-0.4c0,0.2-0.2,0.4-0.5,0.4
	c-0.3,0.5-0.4,0.9-0.4,1.2h-0.4l-0.4,0.4h-0.4c0.3-0.5,0.7-0.9,1.3-1.2l0.4-0.4c0.3-0.3,0.5-0.5,0.5-0.8H384.2z M400.4,344.1
	c0.6-0.3,1.1-0.3,1.7,0C401.6,344.3,401,344.3,400.4,344.1z M412.5,352.5c-0.3,0.8-0.7,1.2-1.3,1.2c-0.3,0-0.7-0.5-1.2-1.5
	c-0.6-0.7-0.8-1.4-0.8-1.9s0.3-0.6,0.9-0.4h0.4h0.4h0.4v0.4l0.9-0.4h0.4l0.4-0.4c-0.3-0.2-0.4-0.5-0.4-0.8h0.4v0.4v0.4v0.4v0.4
	c0.3,0.3,0.4,0.5,0.4,0.7C413.4,351.2,413.1,351.7,412.5,352.5z M419,335.9c0,0.5-0.2,0.9-0.5,1.2v0.8v0.4v0.4
	c-0.3,0.2-0.6,0.5-0.9,0.8l-0.4,0.8c-0.3,0.5-0.5,0.9-0.5,1.1c-0.3,0.3-0.4,0.5-0.4,0.8l-0.4,0.4v0.4c-0.3,0.8-0.5,1.4-0.5,1.9
	s-0.3,0.8-0.9,0.8c0,0.3-0.2,0.4-0.4,0.4l-0.9,0.4c-1.1,0.3-1.7,0.7-1.7,1.2l-0.8-0.4c-0.6-0.2-0.8-0.5-0.8-0.7
	c-0.3,0-0.6,0.1-0.8,0.4v0.4c-0.3,0-0.6,0-0.9,0c-0.9,0-1.7-0.1-2.5-0.3c-0.8-0.5-1.3-1.1-1.2-1.9c0-0.2-0.1-0.5-0.4-0.8V344v-0.4
	c-0.3,0-0.6,0-0.9,0h-0.4v-0.4v-0.4v-0.4V342h-0.4v0.4v0.4H402c0,0.2-0.2,0.4-0.4,0.4h-0.4v-0.4c0.3,0,0.6-0.4,0.9-1.2
	c0.3-0.2,0.4-0.5,0.5-0.8c0-0.2,0-0.5,0-0.8c-0.3,0.3-0.6,0.5-0.9,0.8v0.4l-0.4,0.4c-0.6,0.8-1,1.2-1.3,1.2s-0.4-0.3-0.4-0.8
	l-0.4-0.8l-0.4-0.8l-0.4-0.8c-0.3-0.3-0.8-0.5-1.7-0.7c-0.8-0.2-1.7-0.3-2.6-0.3c-0.6,0-1,0.2-1.3,0.4l-0.5,0.4
	c-0.3,0-0.4,0.1-0.4,0.4c-0.6,0-1.1,0-1.7,0h-0.9l-0.5,0.4c-1.1,0-1.7,0.4-1.7,1.2l-0.9,0.4h-0.4c-0.3,0-0.7,0-1.3,0h-0.4h-0.4
	c-0.6,0-1.2,0.3-1.7,0.8c-0.6,0.3-1.2,0.4-1.7,0.4c-0.6,0-1.1-0.1-1.7-0.3c-0.6-0.2-0.8-0.5-0.8-0.7v-0.4l0.4-0.4
	c0.3-0.3,0.5-0.6,0.5-1.2c0-0.3-0.1-0.6-0.4-1.2l-0.4-0.4v-0.8c-0.5-1.8-0.8-2.9-0.8-3.5l-0.4-0.4l-0.4-0.4c0-0.3,0-0.5,0-0.8v-0.4
	h0.4c0-0.2-0.1-0.5-0.4-0.8c0-0.2,0-0.5,0-0.8v-0.4l0.1-2.3v-0.4h0.4v0.4c0.3,0,0.7-0.3,1.3-0.8l0.4-0.4l0.5-0.4
	c0-0.3,0.3-0.4,0.9-0.4h0.9l0.4-0.4h0.4c0.3,0,0.7-0.1,1.3-0.4c0.3,0,0.7-0.1,1.3-0.4c1.1-0.5,1.7-1.2,1.8-2v-0.4
	c0-0.5,0.2-0.9,0.4-1.2c0.3,0.2,0.4,0.5,0.4,0.8h0.4v-0.4l0.5-0.4v-0.4l0.4,0.4h0.4c0-0.5,0-0.9,0-1.2l0.4-0.4
	c0.3-0.3,0.4-0.5,0.4-0.8c0.3,0,0.6,0,0.9,0c0.3-0.5,0.6-0.8,0.9-0.8s0.6,0.3,0.8,0.8c0.3,0.3,0.4,0.5,0.4,0.8
	c0.3-0.3,0.6-0.4,0.9-0.4l0.4,0.4V319v-0.4c0-0.3,0.2-0.5,0.5-0.8l0.4-0.4V317c0-0.3,0.3-0.5,0.9-0.8c0.6,0,1,0,1.3,0l0.4-0.4v-0.4
	l-0.4-0.4h0.4l0.4,0.4l0.8,0.4c0.6,0.3,1.1,0.4,1.7,0.4c0.3,0,0.4-0.1,0.5-0.4h0.4h0.4l0.4,0.4c0,0.3-0.2,0.5-0.4,0.8h-0.4l-0.5,2.3
	h0.4h0.4v0.4v0.4h0.4c0,0.2,0.1,0.4,0.4,0.4l0.8,0.4c0.3,0,0.7,0.1,1.3,0.3l0.4,0.4c0.3,0.5,0.5,0.8,0.8,0.8c0.6,0,1-0.6,1.3-1.6
	c0-0.3,0-0.5,0-0.8l0.5-0.8l0.1-3.9l0.4-0.4c0.3-0.2,0.5-0.5,0.5-0.8c0,0.5,0.1,0.9,0.4,1.2l0.4,0.8v0.8v0.8c0,0.3,0.1,0.5,0.4,0.8
	c0.3,0,0.6,0,0.9,0h0.4c0.3,0.3,0.4,0.6,0.4,1.1v0.8c0,0.3,0.1,0.4,0.4,0.4c0,0.2,0,0.5,0,0.8l0.4,0.4c0,0.5,0.1,0.9,0.4,1.2
	c0,0.5,0.3,0.9,0.8,1.1l0.8,0.4c0.3,0.3,0.6,0.5,0.8,0.7l0.4,0.8v0.4v0.4l0.4,0.4h0.9c0,0.8,0.2,1.4,0.8,1.9l0.4,0.4h0.4
	c0.3,0.2,0.4,0.5,0.4,0.8c0.3,0.2,0.5,0.9,0.8,1.9c0.2,0.8,0.4,1.5,0.3,2.3C419.4,335.1,419.2,335.4,419,335.9z M395.4,307.3H395
	h-0.4v-0.4c-0.3,0-0.6,0-0.9,0h-0.9h-0.9c0-0.2,0.2-0.4,0.4-0.4h1.7h0.4h0.4v0.4C395.3,306.9,395.4,307.1,395.4,307.3z M404.4,260.1
	h0.4c0.3-0.3,0.7-0.8,1.3-1.6c0.6-0.5,0.9-1.2,0.9-2l-0.4-0.4c0-0.2,0.2-0.5,0.5-0.8c0-0.5,0.1-0.8,0.4-0.8l0.4,0.4v-0.4h0.4v0.4
	v0.4c0,0.3,0.1,0.4,0.4,0.4v0.4c0,0.3,0,0.5,0,0.8v0.4v0.4c-0.3,0-0.4,0.1-0.5,0.4v0.4h-0.4v0.8v0.8v0.4h-0.4v0.4v0.4v0.4v0.4
	l-0.4,0.4l-0.5,0.4v-0.4v-0.4c-0.6,0.5-0.9,0.9-0.9,1.2v-0.4h-0.4l-0.5,0.4h-0.4h-0.4c-0.3,0-0.4-0.1-0.4-0.4s-0.1-0.4-0.4-0.4v0.4
	v0.4l0.4,0.4h-0.4c-0.3,0-0.4,0.1-0.4,0.4c-0.3,0.3-0.6,0.5-0.9,0.8v-0.4h-0.4v-0.4l0.5-0.4v-0.4h-0.4h-0.4c0-0.3-0.1-0.4-0.4-0.4
	s-0.4,0.1-0.5,0.4c0.6,0,0.9,0.2,0.8,0.8c-0.3,0.5-0.6,0.8-0.9,0.8l-0.4-0.4v0.4l-0.5,0.4c0,0.3,0,0.4,0,0.4s-0.1,0-0.4,0l-0.4-0.4
	v-0.4v-0.4l0.9-0.4l0.5-0.4h0.4v-0.4h-0.4h-0.4l-0.4,0.4h-0.4c-0.3,0.3-0.6,0.4-0.9,0.4h-0.4h-0.4l0.4,0.4h0.4v0.4l0.4,0.4v0.4h-0.4
	c0,0.2,0,0.5,0,0.8l-0.4,0.4c0,0.5-0.2,0.8-0.5,0.8s-0.4-0.1-0.4-0.4c-0.3,0-0.4-0.1-0.4-0.4l0.5-0.4l0.4-0.8h-0.4h-0.4h-0.4
	c0-0.3,0-0.4,0-0.4c0-0.2,0.1-0.4,0.4-0.4c0.3-0.5,0.6-0.8,0.9-0.8v-0.4h0.4l0.4-0.4l0.9-0.8c0.3-0.3,0.6-0.4,0.9-0.4h2.6l0.4-0.4
	l0.5-0.4v-0.4c0,0,0.1,0,0.4,0v-0.8h0.4v0.4C403.8,260.4,404.1,260.3,404.4,260.1z M409.3,239.6v-0.4c0-0.5,0-0.9,0-1.2
	c0-0.5,0.3-0.8,0.9-0.8v-0.4v-0.4v-0.8c0,0.5,0.1,0.9,0.4,1.2v0.4l0.4,0.4v0.4v0.4c0,0.3,0,0.5,0,0.8v0.8v0.4v0.4v0.4l0.4,0.8
	l0.4,0.4c0,0.5,0.1,0.9,0.4,1.2c-0.3-0.3-0.6-0.4-0.9-0.4c-0.6,0-0.9,0.3-0.9,0.8c-0.3,0.3-0.4,0.8-0.5,1.6c0,0.3,0.1,0.7,0.4,1.2
	l0.4,0.4l0.4,0.4h-0.4v-0.4h-0.4c-0.3,0-0.4,0.1-0.4,0.4l-0.5,0.4c-0.3,0-0.3-0.1,0-0.4v-0.4v-0.4V246v-0.4v-0.4v-0.4v-0.4
	c-0.3,0-0.4-0.1-0.4-0.4l0.4-0.4c0-0.3,0-0.5,0-0.8l0.1-2.4L409.3,239.6z M409.9,249.4l0.4,0.4v0.4c0.6,0.3,1.1,0.4,1.7,0.4h0.4h0.4
	v0.4c0,0,0.2-0.1,0.4-0.4c0.3-0.3,0.6-0.4,0.9-0.4c0,0.3-0.2,0.4-0.4,0.4v0.4l-0.5,0.4c-0.3,0-0.4-0.1-0.4-0.4
	c-0.3,0-0.4,0.1-0.5,0.4h0.4c0,0.3,0.1,0.4,0.4,0.4c-0.6,0.3-1,0.4-1.3,0.4s-0.6,0.1-0.9,0.4l-0.4,0.4v0.4h-0.4l-0.4-0.4
	c-0.3,0-0.6-0.1-0.9-0.4l-0.5,0.4h-0.4c-0.6-0.2-0.9-0.2-0.9,0c0,0.3,0.1,0.4,0.4,0.4l0.4,0.4l-0.5,0.4h-0.4v-0.8l-0.4-0.4l0.5-0.4
	v-0.4h0.4v-0.4h0.4c0.3,0,0.6-0.3,0.9-0.8c0-0.3,0-0.5,0-0.8v-0.4v-0.4V249C409.3,249,409.6,249.1,409.9,249.4z M415.9,308.8h0.4
	h0.4l0.9-0.4l0.4-0.4v-0.4l0.4-0.4l0.4,0.4v0.4c0,0.3-0.2,0.5-0.5,0.8c-0.3,0-0.4,0.1-0.4,0.4c-0.3,0-0.4,0.1-0.4,0.4h-0.4
	c-0.3,0.3-0.6,0.4-0.9,0.4s-0.4-0.1-0.4-0.4h-0.4l-0.4-0.4c-0.3,0-0.4-0.1-0.4-0.4H415.9z M415,249.7c0.3-0.5,0.5-0.8,0.5-0.8
	s0.2,0,0.4,0h0.4h0.4c-0.6,0-0.9,0.1-0.9,0.4C415.6,249.6,415.3,249.7,415,249.7z M414.9,312.7h0.4v0.4v0.4h0.4h0.4v0.4h0.4h0.4
	l-0.4,0.4v0.4c-0.3,0-0.6-0.1-0.8-0.4h-0.9c-0.6,0-1-0.1-1.3-0.3c-0.3-0.3-0.4-0.5-0.4-0.8h-0.4v-0.4l-0.4-0.4l-0.8-0.8
	c-0.3-0.3-0.7-0.4-1.3-0.4c-0.3,0-0.6,0.1-0.9,0.4l-0.4,0.4c0,0.3,0,0.5,0,0.8h-0.4h-1.3c-0.6,0-1-0.1-1.3-0.3l-0.4-0.4
	c-0.3,0-0.6,0-0.9,0h-0.4h-0.9h-0.4v-0.4c0-0.3,0.2-0.4,0.4-0.4h0.4v-0.4c-0.3-0.3-0.4-0.5-0.4-0.8v-0.4v-0.4c0-0.3-0.3-0.5-0.8-0.8
	h-0.4v-0.4h-0.4c-0.3,0-0.6,0-0.9,0c-0.3-0.2-0.7-0.4-1.3-0.4l-0.4-0.4c-0.3-0.2-0.6-0.4-0.8-0.4v0.4h-0.4h-0.4v-0.4
	c0-0.3-0.1-0.4-0.4-0.4v-0.4c-0.3,0-0.4-0.1-0.4-0.4h0.4h0.4c0.6,0,0.9-0.1,0.9-0.4c-0.3,0-0.7,0-1.3,0h-0.4l-0.4-0.4v-0.4h-0.4
	l-0.4-0.4v-0.4h0.4l0.4-0.4h0.4l0.4-0.4c0.3,0,0.6,0.1,0.8,0.4l0.4,0.4h0.4v1.6c0,0.3,0.3,0.4,0.8,0.4v0.4c0.3,0.3,0.6,0.4,0.8,0.4
	v-0.4l0.4-0.4c0.3-0.2,0.6-0.4,0.9-0.4l0.4-0.4h0.4l0.5-0.8c0,0.2,0.1,0.4,0.4,0.4s0.6,0.1,0.8,0.4l0.4,0.4h0.9h0.4
	c0,0.3,0.1,0.4,0.4,0.4c0.6,0.5,1.4,0.7,2.6,0.7h0.4l0.4,0.4c0,0.3,0.1,0.4,0.4,0.4h0.4c0.3,0.3,0.6,0.5,0.8,0.8l0.4,0.4v0.4
	l0.4,0.4h0.4h0.4c0.3,0,0.4,0.3,0.4,0.8l-0.4,0.4v0.8h0.4c0.3,0.3,0.4,0.5,0.4,0.8v0.4l0.4,0.4L414.9,312.7z M399.6,309.2v0.4
	c0,0.3-0.2,0.4-0.4,0.4v0.4v0.4h-0.4c0-0.2,0-0.5,0-0.8h0.4v-0.4C399.2,309.3,399.4,309.2,399.6,309.2z M395.6,315.8v0.4h-0.4h-0.4
	c-0.3,0-0.4-0.1-0.4-0.4C394.9,315.8,395.3,315.8,395.6,315.8z M393,301.9v0.4v0.4l-0.4,0.4h-0.4l0.4,0.4v0.4
	c-0.3,0-0.4-0.1-0.4-0.4v-0.4v-0.4v-0.4v-0.4l-0.4-0.4c0-0.5,0.2-0.8,0.4-0.8c0,0.5,0.3,0.8,0.8,0.8V301.9z M419.8,307.6h-0.4
	c-0.3,0-0.3-0.3,0-0.8c-0.3,0-0.6-0.1-0.8-0.4V306h-0.4l-0.4-0.4c0.3,0,0.6,0.1,0.8,0.4l0.4,0.4l0.4,0.4l0.4,0.4V307.6z
	 M417.6,248.1v-0.4h0.4l0.4-0.4c0,0.3,0,0.5,0,0.8c-0.3,0-0.4,0-0.4,0S417.9,248.1,417.6,248.1C417.7,248.1,417.7,248.1,417.6,248.1
	z M422.3,309.8v0.4l-0.4-0.4v-0.4c-0.3,0-0.4-0.2-0.4-0.8c0.3,0,0.4,0.1,0.4,0.4c0.6,0.2,0.8,0.5,0.8,0.8H422.3z M426,311.7
	l-0.8-0.4v-0.4h0.9c0,0.3,0.1,0.4,0.4,0.4L426,311.7z M427.2,313.6l-0.4-0.4c0.6,0,1,0.1,1.3,0.4
	C427.8,313.6,427.5,313.6,427.2,313.6z M427.3,311.6c0.6,0.2,1,0.6,1.2,1.1c-0.3,0-0.6-0.1-0.8-0.4L427.3,311.6z M428.9,313.9
	c-0.3,0-0.4-0.1-0.4-0.4c0.6,0.2,0.8,0.5,0.8,0.7C429.1,314.3,428.9,314.2,428.9,313.9z M440,351.4c-0.3,0.5-0.6,0.8-0.9,0.8v0.4
	v0.4v0.4h-0.8h-0.4c-0.3,0.5-0.8,1.4-1.4,2.7c-0.3,0.3-0.6,0.5-0.9,0.8l-0.4,0.4h-0.4l-0.4-0.4c-0.3,0-0.7-0.1-1.3-0.3
	c-0.3,0-0.4-0.1-0.4-0.4h-0.4c0-0.5,0.3-0.9,0.9-1.2l0.5-0.8c0.3,0,0.4-0.1,0.4-0.4c0-0.2,0.2-0.4,0.4-0.4c0.3,0,0.7-0.1,1.3-0.4
	l0.4-0.4l0.4-0.4c0.3-0.2,0.6-0.6,0.9-1.2c0-0.5,0.3-0.8,0.9-0.8c0-0.2,0-0.5,0-0.8c0.3-0.3,0.6-0.5,0.9-0.8v0.4v0.4
	c0,0.3,0.1,0.4,0.4,0.4l0.4-0.4c0,0,0.1,0,0.4,0c0,0.5,0.1,0.8,0.4,0.7C440.6,350.4,440.3,350.8,440,351.4z M445.2,345.1
	c0,0.3,0,0.5,0,0.8l-0.5,0.8v0.4h-0.4c-0.6,0-0.8,0.2-0.9,0.4v0.4h0.4l-0.4,0.4v0.4l-0.4,0.4l-0.4,0.4c-0.3,0.5-0.6,0.8-0.9,0.8
	s-0.4-0.2-0.4-0.7v-0.4l0.4-0.4v-0.4l-0.4-0.4h-0.4l-0.4-0.4c-0.3,0-0.4-0.1-0.4-0.4l0.4-0.4h0.4c0.3-0.3,0.4-0.8,0.5-1.5v-0.4v-0.4
	H441v-0.4v-0.4v-0.4c-0.6,0-1-0.2-1.2-0.7c-0.3-0.5-0.4-1-0.4-1.5c0,0.2,0.3,0.5,0.8,0.7h0.4v0.4h0.4v0.4v0.4c0,0.3,0.1,0.5,0.4,0.7
	c0,0.3,0.1,0.4,0.4,0.4c0-0.2,0.2-0.4,0.4-0.4h0.4c0,1,0.4,1.5,1.2,1.5h0.4l0.4-0.4c0,0,0.1,0,0.4,0L445.2,345.1z M446,321.9h-0.4
	h-0.4h-0.4c0-0.3,0.2-0.5,0.5-0.8h0.4c0,0.2,0.1,0.4,0.4,0.4L446,321.9z M447.3,320.4h-0.4v0.4h-0.4c-0.3,0-0.4,0-0.4,0s0-0.1,0-0.4
	l0.9-0.4h0.4L447.3,320.4z M444.8,205.3c0.6-0.5,1-0.8,1.3-0.8s0.7,0.1,1.3,0.4c0.6,0.3,0.8,0.5,0.8,0.8s-0.6,0.4-1.7,0.4
	c-0.3,0-0.6,0.1-0.9,0.4c-0.3,0-0.6,0-0.9,0s-0.4-0.1-0.4-0.4S444.5,205.5,444.8,205.3z M439.9,208.1l0.4,0.4c0,0.3,0,0.4,0,0.4
	s-0.2,0-0.4,0c-0.6,0-1-0.3-1.3-0.8L439.9,208.1z M416.8,196.7c0.6,0,1,0,1.3,0l0.9,0.4h0.4v0.4l-0.5,0.4c-0.6,0-0.9,0-0.9,0
	s-0.2,0-0.4,0c-0.6,0-1.2-0.1-1.7-0.4c-0.6-0.3-0.9-0.5-0.8-0.8l-0.4-0.4L416.8,196.7z M404.7,195.1c0.3-0.3,0.7-0.4,1.3-0.4
	c0.3,0,0.6,0.1,0.9,0.4l0.4,0.4l0.4,0.4h0.4c0-0.5,0.3-0.8,0.9-0.8c0.3,0,0.9,0.1,1.7,0.4h0.4l0.9,0.4c0.3,0,0.6,0,0.8,0l-0.4,0.4
	v0.4c-0.3,0.3-0.4,0.5-0.4,0.8h-0.9c-0.3,0-0.6,0-0.9,0h-0.4h-0.4H409h-0.4h-0.4v0.4h-0.4c-0.3,0-0.6-0.1-0.9-0.4v0.4
	c-0.3,0.3-0.5,0.4-0.5,0.4s-0.1,0-0.4,0s-0.7-0.3-1.3-0.8c-0.3-0.3-0.4-0.7-0.4-1.2C404.2,195.8,404.4,195.4,404.7,195.1z
	 M407.8,200.8c0.5-0.6,1-0.9,1.5-0.9c1.1,0,1.7,0.5,1.7,1.6h-0.9c-0.3-0.3-0.7-0.4-1.3-0.4h-0.4L407.8,200.8
	c-0.1,0.1-0.2,0.2-0.2,0.3v-0.4L407.8,200.8z M407.6,199.5c0-0.3,0.1-0.4,0.4-0.4s0.4,0,0.4,0s0,0.1,0,0.4v0.4H408
	C407.7,199.9,407.6,199.8,407.6,199.5z M402.5,195.5l0.4,0.4v0.4c-0.3,0.3-0.4,0.4-0.4,0.4c-0.3,0-0.4-0.1-0.4-0.4
	C402,196.1,402.2,195.8,402.5,195.5z M374,190h0.4v0.4c-0.3,0.3-0.5,0.4-0.5,0.4l-0.4-0.4h-0.4C373.4,190.1,373.7,190,374,190z
	 M367,188.4V188c0.6-0.5,1.2-0.8,1.8-0.8h0.4v0.8h0.5v-0.4h0.4c0.3,0,0.7,0.1,1.3,0.4c0.6,0.6,0.8,0.9,0.8,1.2s-0.4,0.5-1.3,0.8
	c-0.3,0-0.6,0.1-0.9,0.4c-0.3,0-0.6-0.1-0.9-0.4l-1.3,0.4l-1.8,0.4c-0.6,0-0.9,0-0.9,0s0-0.1,0-0.4c0-0.3,0.2-0.5,0.4-0.8h0.5
	c0-0.3,0.1-0.5,0.4-0.8L367,188.4z M358.2,183.6l0.5-0.4c0.9-0.6,1.6-0.8,2.2-0.8c0.6,0,1,0.1,1.3,0.4l0.4,0.4l0.4,0.4
	c0,0.3-0.2,0.4-0.4,0.4v0.4v0.4c-0.3,0.3-0.6,0.4-0.9,0.4c0.3,0,0.6,0,0.9,0s0.6,0.1,0.9,0.4h0.4h0.9c0.3,0,0.7,0.3,1.3,0.8
	c-0.3,0.3-0.5,0.5-0.5,0.8s-0.2,0.4-0.4,0.4l-0.5,0.4h0.5v0.4v0.4h-0.5c-0.3,0-0.7,0-1.3,0c-0.3,0-0.6-0.1-0.9-0.4
	c-1.2-0.3-1.9-0.4-2.2-0.4s-0.8-0.1-1.3-0.4l-0.4-0.4l-0.4-0.4c0.3-0.3,0.6-0.4,0.9-0.4l0.9-0.4c0.3-0.3,0.5-0.4,0.5-0.4h-0.9
	c-0.9,0-1.9-0.4-3.1-1.2c0.6,0,1-0.1,1.3-0.4L358.2,183.6z M359.6,192.8c0,0.6,0,0.8,0,0.8s-0.2,0-0.5,0h-0.4v-0.4v-0.4h0.4
	L359.6,192.8z M357.8,186.4h-0.5h-0.4h-0.5H356c0-0.6,0-0.8,0-0.8c0-0.3,0.1-0.4,0.4-0.4h0.5l0.9,0.4h0.4
	C358.2,186.1,358,186.4,357.8,186.4z M356.5,182.4v0.4h-0.4h-0.5c-0.3,0-0.6-0.1-0.9-0.4H356.5z M346.2,200.5h0.4h0.5
	c0.3,0,0.6,0,0.9,0s0.6-0.3,0.9-0.8v-0.4v-0.4c0.3-0.3,0.6-0.4,0.9-0.4c1.2-1.1,3-2,5.4-2.8c0.3,0,0.7-0.1,1.3-0.4
	c0.3,0,0.7,0,1.3,0c0.9-0.3,1.5-0.4,1.8-0.4c-0.3,0.8,0.3,0.9,1.8,0.4c0.9,0,1.6-0.1,2.2-0.4c0.6-0.3,1-0.6,1.4-0.8
	c0-0.3,0.3-0.6,0.9-0.8v-0.4l0.4-0.4c0.9-0.5,1.6-0.8,2.2-0.8c1.7,0,2.8,0.7,3,2h5c4.1,1.1,4.9,2.4,2.6,4c-0.3,0.3-0.9,0.7-1.8,1.2
	l-0.9,0.4l-0.9,0.4c-1.2,0.8-1.9,1.2-2.2,1.2c-0.3,0.5-0.3,0.8,0,0.8c0.6,0.3,1.9-0.5,4-2.4c0.3,0.8,1.7,1.5,4.4,2l1.3,0.4h0.9h0.4
	l0.7,0.4h4.4c0-1.3,0.6-1.9,1.8-1.6c3.2,0.3,4.9,0.8,5.2,1.6c0,0.3,0,0.5,0,0.8l-0.4,0.4c0,0.8,0.1,1.5,0.4,2
	c0.6,0.8,1.1,1.2,1.7,1.2c0.3,0,0.6-0.1,0.9-0.4c0-0.3,0-0.5,0-0.8v-0.4c0.3,0,0.6,0,0.9,0s0.6,0.1,0.9,0.4c0.3,0.3,0.6,0.4,0.9,0.4
	h6.1c0.3-1.1,0.6-1.7,0.9-2c0.6-0.8,1.6-1.2,3.1-1.2c2.6,0,5.2,0.5,7.8,1.6c0.3,0,0.7,0.3,1.3,0.8v0.8c0.3,0,0.6,0.1,0.9,0.4
	c0.3,0.3,0.9,0.4,1.7,0.4h0.9h0.4c0.6-0.3,1-0.4,1.3-0.4c2.3,0,3.7,0.9,4.2,2.7l8.6,0.4c0.3,0,0.6,0.1,0.8,0.4l0.9,0.4
	c0,0.3,0.1,0.4,0.4,0.4c0.8,0.5,1,0.1,0.5-1.2c0-0.5,0.7-0.8,2.2-0.8c2,0,4,0.4,6,1.1c1.7,0.5,2.5,0.8,2.5,0.8s0.8,0.5,2.5,1.6
	c0.6,0.3,1.3,0.5,2.1,0.8l1.3,0.8l0.8,0.4c2,0.8,3.2,1.6,3.8,2.3c-1.2,0.5-1.9,0.9-2.2,1.2c-0.3,0-0.4,0.1-0.5,0.4v0.4
	c-0.3,0.5-0.6,0.8-0.9,0.8c-0.6,0-1.5-0.5-2.9-1.6c-0.6-0.5-1.1-0.8-1.7-0.8c-0.5-0.5-1.1-0.8-1.7-0.8c-0.3,0-0.4,0.3-0.4,0.8v0.4
	v0.4l-0.9,0.4l-0.9,0.4c-0.6,0.3-0.9,0.8-0.9,1.6l0.4,0.4l0.4,0.4c0.3,0.3,0.4,0.5,0.4,0.8c0.5,0.8-0.3,1.2-2.6,1.2
	c-0.6,0-1.3,0.3-2.2,0.8c-0.3,0.3-0.6,0.5-0.9,0.8l-1.3,0.8c-1.8,1.3-6.2,2-7.4,2c-0.3,0-0.7-0.1-1.3-0.4c-0.3,0-0.6-0.1-0.8-0.4
	c-0.3,0-0.6,0-0.9,0c-1.4,0-2.9,1.3-4.4,4c0,0.5,0,0.9,0,1.2v0.4v0.4v0.4h-0.4v0.4c-0.3,0.3-0.4,0.5-0.4,0.8
	c-0.3,0.3-0.5,0.5-0.5,0.8s-0.2,0.4-0.4,0.4v0.4h-0.4c-0.6,0.5-0.7,0.9-0.5,1.2c-0.9,0.3-1.5,0.8-1.8,1.6l-0.5,0.8l-0.4,0.4
	c-0.3,0.5-0.5,0.9-0.5,1.2c-0.6-0.5-1-1.7-1.2-3.5c0-0.5,0-1.2,0.1-2c-0.3-0.8-0.4-1.3-0.4-1.6c0-0.8,0.3-1.4,0.9-2
	c0.3-0.3,0.6-0.5,0.9-0.8s0.6-0.4,0.9-0.4c0.3-0.3,0.7-0.8,1.4-1.6l0.9-0.8l0.5-1.2c0.3-0.3,0.7-0.5,1.3-0.8h0.4
	c0.3-0.3,0.6-0.4,0.9-0.4c1.5-0.8,2-1.6,1.8-2.4c-0.3,0-0.4-0.1-0.4-0.4c-0.3,0-0.6,0-0.9,0c-0.9,1.3-1.7,2.1-2.2,2.4
	c-0.6,0.5-1,0.7-1.3,0.4v-0.8c0-0.3,0.1-0.5,0.4-0.8c-0.6,0-1,0-1.3,0h-0.4h-0.4c-2.3,0-3.9,0.5-4.9,3.4H418l-1.3-0.4
	c-0.6-0.2-1.1-0.4-1.7-0.4c-0.9,0-2.2,0.2-3.9,0.4c-1.7,0,0.1,1.2-0.5,1.4c-0.6,0.3-1.5,0.8-2.6,1.6c0,0.3-0.3,0.7-0.9,1.2l-0.5,0.4
	l-0.4,0.4c-0.3,0.3-0.6,0.5-0.9,0.8l-0.5,0.4l-0.4,0.4c-0.9,0.5-1.3,1.1-1.4,1.6v0.4l0.4,0.4c0,0.3,0.1,0.5,0.4,0.8
	c0.9,0.5,1.7,0.4,2.6-0.4c0.3-0.3,0.7,0,1.3,0.8c0.8,0.8,1.2,1.5,1.2,2c0,0.3-0.2,0.7-0.5,1.2v0.4l-0.5,0.4
	c-0.3,0.5-0.5,1.1-0.5,1.6v0.4v0.8c0,0.5-0.3,1.2-0.9,2c0,0.5-0.3,0.9-0.9,1.2c-0.3,0.3-0.7,0.8-1.4,1.6l-0.5,1.2l-0.9,0.8
	c-1.2,1.8-2.2,2.8-3.1,2.8c-0.6,0-1.2-0.1-1.7-0.4h-0.4h-0.4c-0.9,0.5-1.5,1.3-1.8,2.4l-0.5,0.4l-0.4,0.4l-0.5,0.4
	c-0.3,0.3-0.7,0.4-1.3,0.4c0,0.3,0.1,0.5,0.4,0.8v0.4h0.4c0.8,1,1.2,2.2,1.2,3.5c0,0.8-0.3,1.2-0.9,1.2v0.4h-0.4
	c-0.3,0-0.4,0.1-0.5,0.4c-0.6,0-0.9,0.1-0.9,0.4h-0.9c0-0.3,0.2-0.4,0.5-0.4v-0.4V263v-0.4v-0.4v-0.4v-0.4h-0.4V261
	c0.6,0,0.9-0.3,0.9-0.8c0-0.3-0.1-0.4-0.4-0.4s-0.6,0-0.9,0h-0.4l-0.4-0.4V259l0.4-0.4v-0.4v-0.4v-0.4h-0.4h-0.4
	c0-0.3-0.2-0.4-0.4-0.4c-0.3,0-0.6,0-0.9,0c-0.3,0.3-0.6,0.4-0.9,0.4l-0.4,0.4l-0.9,0.4c0-0.3,0-0.5,0-0.8l0.4-0.4l0.5-0.4
	c0-0.2-0.1-0.4-0.4-0.4l-0.4-0.4h-0.4l-0.4,0.4c0,0.2-0.3,0.5-0.9,0.8v0.4h-0.4l-0.4,0.4h-0.4v0.4H383c-0.3,0-0.4,0.1-0.5,0.4
	c0,0.3,0.1,0.4,0.4,0.4v0.4c0.3,0,0.4,0.1,0.4,0.4c0.3,0.3,0.4,0.5,0.4,0.8c0.3,0,0.6,0,0.9,0h0.4v-0.4l0.5-0.4h0.4l0.4,0.4h0.4h0.4
	c0.3,0,0.4,0.1,0.4,0.4c-0.3,0-0.4,0.1-0.4,0.4h-0.9v0.4c-0.9,0.3-1.3,0.5-1.3,0.8l-0.4,0.4v0.4c-0.3,0-0.5,0.1-0.5,0.4
	s0.1,0.4,0.4,0.4c0,0.3,0.1,0.4,0.4,0.4c0,0.3,0,0.5,0,0.8h0.4v0.4v0.4v0.4c0.8,1,1.2,2.1,1.2,3.1c0,0.5-0.2,0.9-0.5,1.2v0.4
	c0,0.3,0,0.5,0,0.8c-0.3,0-0.7,0.3-1.3,0.8c0,0.3-0.2,0.5-0.4,0.8c0,0.3-0.2,0.5-0.5,0.8v0.4c-0.3,0.3-0.4,0.5-0.4,0.8
	c-0.3,0.5-0.6,0.8-0.9,0.8c0,0.2-0.3,0.5-0.9,0.8l-0.5,0.4l-0.4,0.4l-0.5,0.4c-0.6,0.3-1.2,0.4-1.7,0.4H378l-0.4-0.4
	c-0.3,0-0.5,0.3-0.5,0.8c-0.3,0.3-0.6,0.4-0.9,0.4l-0.9,0.4h-0.4h-0.4l-0.9,0.4v0.4v0.4c0,0.3-0.2,0.4-0.4,0.4
	c-0.3,0-0.4-0.3-0.4-0.8v-0.4c0-0.3-0.3-0.4-0.9-0.4h-0.4h-0.4c0,0.3-0.3,0.5-0.9,0.8v0.4l-0.9,0.4c-0.6,0.5-0.9,1-0.9,1.6v0.4
	l0.4,0.4c0.3,0,0.4,0.1,0.4,0.4l0.4,0.8c0.6,0.5,1,0.9,1.3,1.2c0.6,0.2,0.9,0.7,0.8,1.5c0.6,0.5,0.8,1.2,0.8,1.9
	c0,0.3-0.2,0.7-0.4,1.2v0.4l-0.5,0.4c-0.3,0-0.6,0.3-0.9,0.8h-0.9c0,0.3-0.2,0.4-0.4,0.4c0,0.2-0.2,0.4-0.5,0.4
	c0,0.5-0.2,0.8-0.4,0.8l-0.5,0.4l-0.4,0.4c-0.3,0-0.4-0.1-0.4-0.4v-0.4v-0.4v-0.4v-0.4h-0.9c-0.3-0.3-0.4-0.5-0.4-0.8
	c-0.3,0-0.6-0.1-0.9-0.4c0-0.2-0.1-0.5-0.4-0.8l-0.4-0.4h-0.4l-0.4-0.4c-0.3,0-0.4-0.1-0.4-0.4s-0.1-0.4-0.4-0.4h-0.4h-0.4v0.4
	c0,0.3,0.1,0.4,0.4,0.4v0.4c0,0.3-0.2,0.5-0.5,0.8c0,0.3-0.2,0.4-0.4,0.4v0.4v0.4c-0.3,0-0.5,0.3-0.5,0.8l0.4,0.4
	c0,0.3,0.1,0.4,0.4,0.4c0.3,0.3,0.4,0.5,0.4,0.8v0.4v0.4l0.4,0.4c0.3,0.2,0.6,0.5,0.9,0.7l0.4,0.4l0.9,0.4c0.9,0.5,1.3,1.2,1.3,1.9
	h-0.4c0,0.3,0,0.5,0,0.8l0.4,0.8h0.4v0.4v0.4c0,0.2,0.1,0.5,0.4,0.8h-0.4h-0.4h-0.4c-1.5-0.5-2.5-1.5-3-3.1c0-0.3,0-0.5,0-0.8
	l-0.4-0.8c0-0.5-0.1-0.9-0.4-1.2v-0.4v-0.4l-0.4-0.4c0-0.5-0.1-0.8-0.4-0.8h-0.4c0-0.5,0-1,0-1.6v-0.8v-0.4v-0.4
	c0-0.5-0.1-1.3-0.4-2.3l-0.4-0.8c0-0.2,0-0.5,0-0.8v-0.8v-0.4c0-0.2,0-0.5,0-0.8h-0.4h-0.4v-0.4v-0.4c-0.3,0.3-0.5,0.5-0.5,0.8
	l-0.4,0.4c-0.6,0.5-1,0.8-1.3,0.8s-0.4-0.4-0.4-1.2v-0.4c0-0.3,0-0.5,0-0.8v-0.4c-0.3-0.2-0.6-0.6-0.9-1.2v-0.4l-0.4-0.4
	c-0.6-0.5-1-0.9-1.3-1.2c0-0.2,0-0.5,0-0.8l-0.4-0.4v-0.4c0-0.3-0.1-0.5-0.4-0.8c-0.3,0-0.6-0.1-0.9-0.4c0,0.5-0.3,0.9-0.9,1.2
	c-0.3,0.3-0.7,0.4-1.3,0.4c-0.3,0-0.6-0.1-0.9-0.4c0,0.3-0.2,0.4-0.5,0.4c-0.6,0.3-0.9,0.5-0.9,0.8v0.4c0,0.3-0.2,0.5-0.4,0.8
	c-0.3,0.3-0.7,0.6-1.3,0.8l-0.5,0.4c-0.3,0-0.4,0.1-0.4,0.4l-1.3,1.2l-1.3,0.8v0.4l-0.5,0.4l-0.4,0.4H341l-0.4,0.4
	c-0.3,0-0.5,0.3-0.5,0.8c0,0.3,0,0.5,0,0.8v0.4v0.4c0,0.3,0,0.5,0,0.8v0.4c-0.3,0.5-0.4,0.9-0.4,1.2l0.4,1.2h-0.4h-0.5l-0.4,0.8v0.4
	c-0.6,0.3-0.9,0.6-0.9,0.8v0.4l-0.5,0.4c-0.3,0-0.4-0.1-0.4-0.4c-0.3,0-0.4-0.1-0.4-0.4l-0.4-0.8v-0.8c-0.3-0.5-0.6-0.9-0.9-1.2
	v-0.4l-0.4-0.4l-0.4-0.4v-0.4v-0.4v-0.8c-0.3-0.2-0.4-0.5-0.4-0.8h-0.5v-0.4v-0.4v-0.8h-0.4c-0.3-0.8-0.4-1.3-0.4-1.5l-0.4-0.8V284
	c-0.3-0.5-0.4-0.9-0.4-1.2v-0.4V282v-0.4v-0.4c0-0.3,0-0.5,0-0.8V280v-0.4v-0.4v-0.4c-0.3,0.3-0.4,0.5-0.4,0.8h-0.4v0.4
	c-0.3,0.5-0.6,0.8-0.9,0.8c-0.6,0-1-0.1-1.3-0.4l-0.4-0.4v-0.4l-0.4-0.4c0-0.3,0.2-0.4,0.4-0.4h0.5h0.4v-0.4c0-0.2-0.3-0.4-0.9-0.4
	c-0.3,0-0.7-0.1-1.3-0.4c-0.3-0.2-0.6-0.5-0.9-0.8l-0.4-0.4V276c-0.3-0.5-0.6-0.8-0.9-0.8h-0.4h-0.4h-0.5l-0.4,0.4l-1.3-0.4v0.4
	h-0.4h-0.9h-0.5c-0.3,0-0.9-0.1-1.8-0.4h-0.9c-0.3,0-0.6,0-0.9,0l-0.9-0.4h-0.4l-0.4-0.4V274c-0.3-0.5-0.6-0.8-0.9-0.8h-0.4v0.4
	l-0.4,0.4h-1.8c-0.3-0.2-0.6-0.5-0.9-0.8h-0.5v-0.4c-0.3-0.3-0.6-0.4-0.9-0.4h-0.4c0-0.2-0.1-0.4-0.4-0.4v-0.4v-0.4
	c-0.3-0.5-0.6-0.9-0.9-1.2c-0.6-0.5-1.2-0.8-1.8-0.8l-0.4,0.4c0,0.3,0,0.5,0,0.8s0,0.5,0,0.8c0,0.5,0.3,1.2,0.9,2
	c0.3,0.5,0.7,0.8,1.3,0.8c0,0.3,0,0.5,0,0.8v0.4c0.3,0,0.5-0.1,0.5-0.4h0.4c0,0.3,0,0.5,0,0.8v0.4c0,0.2,0.1,0.5,0.4,0.8
	c0.3,0,0.7,0,1.3,0c0.9,0,1.6-0.3,2.2-0.8l0.4-0.4l0.5-0.4c0.3-0.5,0.6-0.8,0.9-0.8v1.2c0.3,0.8,1,1.3,2.2,1.6
	c0.3,0.3,0.6,0.5,0.9,0.8v0.4h0.4v0.4h0.5c0,0.5-0.2,0.9-0.5,1.2l-0.4,0.4c-0.3,0.3-0.5,0.5-0.5,0.8c-0.6,0-0.9,0.3-0.9,0.8h-0.4
	v0.4v0.4c-0.3,0-0.6,0.3-0.9,0.8v0.4H314c-0.3,0-0.6,0.1-0.9,0.4s-0.5,0.5-0.5,0.8h-0.4h-0.5c-0.3,0.3-0.6,0.4-0.9,0.4
	c-1.2,0.3-1.8,0.7-1.8,1.2h0.5v0.4c-0.3,0.3-0.8,0.4-1.3,0.4l-0.9,0.4h-0.9c-0.3,0-0.7,0.3-1.3,0.8l-0.5,0.4l-0.9,0.4h-0.9
	c-0.9,0.5-1.5,0.8-1.8,0.8h-0.5l-0.4-0.4h-0.5h-0.4c0,0.3,0,0.5,0,0.8s0,0.5,0,0.8l0.4,0.4l0.5,0.4c0.3,0.5,0.6,0.8,0.9,0.8l0.4-0.4
	l0.5-0.4c0.3,0,0.6,0,0.9,0h0.5h0.4c0.6,0,1.3-0.2,2.2-0.4l0.9-0.4l1.3-0.4v0.4c0,1.1-0.3,2.4-0.9,4c-0.3,0.5-0.6,1.1-0.9,1.6
	s-0.6,0.9-0.9,1.2c-0.3,0.3-0.6,0.7-0.9,1.2v0.4l-0.4,0.4c-0.6,1.1-1.2,1.7-1.8,2c-0.6,0.6-1.3,1.1-2.2,1.6l-0.9,0.4l-0.9,0.8
	c-1.2,1.1-2.1,2.3-2.7,3.6v0.4l-0.5,0.4v0.4c-0.3,0.3-0.4,0.7-0.4,1.2c0,0.3,0,0.5,0,0.8v0.4c0,0.8,0,1.3,0,1.6
	c0,0.5,0.1,0.8,0.4,0.8c0,0.3,0.1,0.5,0.4,0.8c0.6,0.5,0.9,0.9,0.9,1.1c0,0.3-0.2,0.4-0.5,0.4v0.4v0.8c0,0.3,0,0.7,0,1.2v0.8v0.8
	c0.3,0,0.5,0.3,0.4,0.8c0,1-0.9,1.8-2.7,2.4l-1.3,0.8c-0.3,0-0.6,0.1-0.9,0.4c-0.6,0.5-0.9,1.1-0.9,1.6c-0.3,0-0.6,0.1-0.9,0.4
	s-0.5,0.5-0.5,0.8s0.1,0.7,0.4,1.2l0.4,0.4v0.8c0,0.5,0,1.1,0,1.6v0.8c0,0.3-0.3,0.4-0.9,0.4h-0.4c-0.9,0.5-1.5,1.2-1.8,2
	c0.3,0,0.4,0.3,0.4,0.8c0,0.3-0.2,0.7-0.4,1.2c-0.3,0.3-0.5,0.5-0.5,0.8h-0.4l-0.5,0.4c0,0.3-0.3,0.7-0.9,1.2v0.8
	c0,0.3-0.2,0.4-0.4,0.4l-0.5,0.4v0.4c-0.6,0.5-0.9,0.9-0.9,1.2c-0.6,0.5-1.2,0.9-1.8,1.2h-0.4l-0.5,0.4c-0.6,0-0.9,0.2-0.9,0.4h-0.5
	l-0.4,0.4c-0.3,0-0.6-0.1-0.9-0.4h-0.5c-0.3,0-0.7,0-1.3,0l-0.9,0.4l-0.5,0.4h-0.4c-0.3,0.3-0.6,0.4-0.9,0.4c-0.6,0-1-0.2-1.3-0.7
	h-0.4c0-0.2-0.1-0.6-0.4-1.2c0-0.3-0.1-0.5-0.4-0.8c0.6-0.3,0.9-0.6,0.9-0.8c0-0.5-0.3-1-0.9-1.5l-0.5-0.4c0-0.2-0.2-0.4-0.4-0.4
	l-0.5-0.8l-0.4-0.8c-0.6-0.8-0.9-1.4-0.9-1.9c-0.9-1.5-1.3-3-1.3-4.3v-1.2c0-0.3-0.2-0.5-0.5-0.8v-0.4l-0.9-1.6
	c-0.6-0.5-0.9-0.9-0.9-1.1c-0.6-1-0.9-2.2-0.9-3.5c0-0.8,0.5-1.7,1.4-2.8l0.4-0.4l0.5-0.8c0.3-0.5,0.4-0.9,0.4-1.2
	c0-0.5-0.1-0.9-0.4-1.2v-0.8v-0.4c-0.3-0.8-0.8-1.8-1.3-3.1v-0.8v-0.4c0-0.5-0.1-0.9-0.4-1.2c-0.3-0.3-0.6-0.6-0.9-1.2l-0.5-0.4
	l-0.9-0.4c-0.6-1-0.9-1.8-0.9-2.3c0-0.3,0-0.7,0-1.2c0.3-0.3,0.6-0.4,0.9-0.4c0-0.3,0-0.5,0-0.8v-0.4v-0.8c0-0.2,0-0.5,0-0.8
	c-0.3-1-1-1.6-2.2-1.5h-1.8c-0.3,0-0.7-0.4-1.3-1.2c-0.3-0.3-0.6-0.5-0.9-0.8c0-0.3-0.3-0.4-0.9-0.4s-1.5,0.2-2.7,0.5l-0.9,0.8h-1.4
	c0,0.3-0.2,0.4-0.4,0.4v0.4c-0.3,0-0.6,0-0.9,0h-0.5h-0.4l-0.9-0.4h-0.4c-0.3,0-0.8,0-1.4,0v0.4h-0.9h-0.9c0,0.3-0.3,0.4-0.9,0.4
	l-0.4-0.4h-0.5c-0.3,0-0.8-0.3-1.3-0.8l-0.5-0.4l-0.9-0.4c-0.9-0.5-1.5-1-1.8-1.6c0-0.5-0.2-0.9-0.4-1.2l-0.5-0.4
	c-0.3-0.5-0.6-1-0.9-1.6c-0.3,0-0.8-0.4-1.4-1.2l-1.4-0.8v-0.4c-0.3,0-0.5-0.1-0.5-0.4h0.5l-0.5-0.4v-0.4v-0.4
	c0-0.3-0.2-0.5-0.4-0.8v-0.4c0.3-0.3,0.6-0.8,0.9-1.6c0.3-0.8,0.4-1.5,0.4-2s-0.2-1.3-0.4-2.4v-0.8c0-0.5,0-0.9,0-1.2
	c0-0.3,0.1-0.7,0.4-1.2l0.5-0.4v-0.4c0.6-1.6,1.5-3.2,2.7-4.9c0.3-0.5,0.6-0.8,0.9-0.8h0.9l0.5-0.4c0.3-0.3,0.8-0.5,1.4-0.8
	c0.3-0.3,0.5-0.7,0.5-1.2c0.3-0.3,0.4-0.5,0.4-0.8v-0.4v-0.4c0-0.5,0.2-0.9,0.5-1.2c0.3-0.5,0.8-1.2,1.4-2l0.9-0.8l0.9-1.2l0.5-0.4
	c0-0.3,0.1-0.4,0.4-0.4c0.9,0.5,2.1,0.8,3.6,0.8l0.4-0.4h0.5l0.4-0.4c0.9-0.3,2-0.7,3.2-1.2c1.2-0.3,2.3-0.4,3.2-0.5h0.5l0.4,0.4
	h0.5h0.4l0.4-0.4c0.3-0.3,0.6-0.4,0.9-0.4h0.5l0.4,0.4h0.5l0.4-0.4c0.3,0,0.6,0,0.9,0h0.5l0.4,0.4h0.5h0.4v-0.4c0,0.3,0,0.5,0,0.8
	H263c-0.3,0-0.5,0.1-0.5,0.4s0.2,0.4,0.5,0.4l0.4,0.4v0.4l-0.4,0.4c-0.3,0.3-0.5,0.6-0.5,0.8c0,0.5,0.3,0.9,0.9,1.2
	c0.3,0.5,0.6,0.8,0.9,0.8h1.4c0.9,0,1.9,0.5,3.1,1.5c1.2,1.1,2.2,1.6,3.1,1.6c0.3,0,0.5-0.1,0.5-0.4c0.3,0,0.4-0.1,0.4-0.4v-0.8
	c0-0.5,0.2-0.9,0.5-1.2c0.3,0,0.6,0,0.9,0l0.4-0.4h0.5h0.9c0,0.3,0.1,0.5,0.4,0.8h0.5c0,0.3,0.3,0.4,0.9,0.4h0.4
	c0.3,0,0.5,0.1,0.5,0.4c0.6,0.3,1.3,0.4,2.2,0.4c0.9,0.3,1.6,0.4,2.2,0.4c0.3,0,0.7,0,1.4,0l0.4-0.4h0.9c0.3,0,0.6,0,0.9,0
	c0.6,0.3,1,0.4,1.3,0.4h0.4h0.5c0-0.1,0-0.2,0.1-0.3l-0.1-0.1c0-0.3,0.1-0.4,0.4-0.4c0-0.5,0.3-1.3,0.9-2.4v-0.4l0.5-0.4
	c0.3-0.3,0.4-0.5,0.4-0.8v-0.8V263l-0.4-0.4v-0.4h0.4v-0.4h-0.4h-0.5c-0.3,0-0.6-0.1-0.9-0.4v0.4l-0.4,0.4c-0.3,0.3-0.8,0.4-1.4,0.4
	h-0.4l-0.5-0.4l-0.4-0.4l-0.5-0.4c-0.3,0-0.6,0.1-0.9,0.4c-0.3,0.5-0.6,0.8-0.9,0.8l-0.4-0.4l-0.5-0.4c-0.3-0.3-0.6-0.3-0.9,0v-0.4
	h-0.4V261h-0.5c-0.3-0.3-0.3-0.5,0-0.8c-0.3,0-0.6-0.1-0.9-0.4l-0.4-0.4l0.4-0.4v-0.4v-0.8h-0.4c0-0.5,0.4-0.8,1.3-0.8l0.9-0.4h0.5
	c0.3,0,0.6-0.1,0.9-0.4H283v-0.4l-0.4,0.4h-0.5h-0.4h-0.5l-0.4,0.4l-0.5,0.4c-0.3,0-0.4-0.1-0.4-0.4h-0.4c-0.3-0.3-0.6-0.4-0.9-0.4
	s-0.6,0-0.9,0v0.4h-0.5c0,0.3,0,0.5,0,0.8h-0.4V257h-0.5h-0.4v0.4l0.9,0.8h-0.5v0.4l0.5,0.8l0.9,0.4v0.4h-0.5h-0.4
	c-0.3-0.3-0.6-0.4-0.9-0.4v0.4h0.4c0,0.3,0,0.5,0,0.8c-0.3,0.3-0.3,0.5,0,0.8h-0.4c-0.9,0-1.4-0.5-1.3-1.6h0.5v-0.4h-0.5
	c-0.3,0-0.4-0.1-0.4-0.4c0-0.5-0.3-0.9-0.9-1.2v-0.4l-0.5-0.4c-0.3-0.2-0.4-0.6-0.4-1.2v-0.8c0-0.3-0.1-0.5-0.5-0.8
	c-0.3-0.5-0.6-0.8-0.9-0.8l-0.4-0.4h-0.5l-0.4-0.4h-0.5c-0.6,0-1.1-0.2-1.3-0.8c-0.3-0.5-0.4-1.1-0.4-1.6h-1.4
	c-0.3,0-0.4-0.1-0.4-0.4v-0.4v-0.4l-0.5,0.4h-0.4c-0.3,0-0.5,0.1-0.5,0.4v0.4v0.4c0,0.5,0.3,0.9,0.9,1.2c0.3,0,0.5,0.1,0.5,0.4
	l0.4,0.4v0.4c0,0.3,0.2,0.5,0.5,0.8c0,0.3,0.1,0.4,0.4,0.4c0.3,0.3,0.6,0.4,0.9,0.4v-0.4h0.5v0.4c0,0.3,0.1,0.5,0.4,0.8h0.4h0.5
	l0.4,0.4c0.3,0,0.5,0.1,0.5,0.4c0.3,0.2,0.4,0.5,0.4,0.8h-0.4V257c-0.3,0-0.6,0-0.9,0c-0.6,0-0.9,0.2-0.9,0.4c0,0.3,0.2,0.5,0.4,0.8
	l0.5,0.4c0,0.3-0.2,0.4-0.5,0.4s-0.4,0.1-0.4,0.4c0,0.5-0.2,0.8-0.4,0.8c-0.3,0-0.5-0.1-0.5-0.4c0.3,0,0.5-0.1,0.5-0.4
	c0.3-0.3,0.4-0.5,0.4-0.8s-0.2-0.4-0.4-0.4v-0.4h-0.5l-0.4-0.8c-0.3-0.2-0.5-0.5-0.5-0.8h-0.4h-0.5c-0.6-0.2-1.2-0.8-1.8-1.6h-0.4
	l-0.5-0.4l-0.4-0.4l-0.5-0.8l-0.4-0.8c-0.3-0.5-0.7-0.8-1.4-0.8c-0.3,0-0.6,0.1-0.9,0.4c0,0.3-0.2,0.4-0.4,0.4h-0.5l-0.4,0.8
	c-0.3,0-0.8,0-1.3,0h-0.5h-0.4l-0.9-0.4c-0.6,0-0.9,0.1-0.9,0.4c-0.3,0.3-0.5,0.6-0.5,0.8v0.8c0,0.3-0.2,0.6-0.4,0.8
	c-0.3,0.3-0.8,0.4-1.4,0.4c-0.3,0.3-0.8,0.7-1.4,1.2c-0.3,0.6-0.5,1.1-0.5,1.6v0.4h0.5c-0.6,0.8-1.2,1.4-1.8,1.6v0.4l-0.5,0.4
	c-0.3,0.3-0.6,0.4-0.9,0.4h-0.4h-0.5h-0.4c-0.3,0-0.6,0.1-0.9,0.4l-0.9,0.4h-0.4h-0.5v-0.4v-0.4c-0.3-0.5-0.6-0.8-0.9-0.8
	s-0.6,0.1-0.9,0.4h-0.9h-0.4V261v-1.6c-0.3,0-0.5-0.1-0.5-0.4v-0.4l0.5-0.4v-0.8v-0.8v-0.8l0.4-0.8l-0.4-0.4v-0.4
	c-0.3-0.3-0.5-0.5-0.5-0.8l0.9-0.4l0.9-0.8v0.4h0.5h0.4h1.8v0.4h0.5h1.8c0.3-0.3,0.5-0.3,0.5,0h0.4h0.5h0.4h0.5c0-0.5,0-0.9,0-1.2
	c0.3-0.3,0.4-0.5,0.4-0.8v-0.4v-0.8v-0.4V249c-0.6,0-0.9-0.2-0.9-0.8c-0.3,0-0.4-0.2-0.4-0.8l-0.5-0.4h-0.4c-0.3,0-0.6-0.1-0.9-0.4
	c-0.6,0-0.9-0.3-0.9-0.8l0.5-0.4h0.4l0.4-0.4c0,0.3,0.2,0.4,0.5,0.4c0.3,0.3,0.6,0.4,0.9,0.4l0.4-0.4h0.5V245
	c-0.3,0-0.5-0.1-0.5-0.4v-0.4h0.5c0.3,0.3,0.8,0.4,1.4,0.4c0.3,0,0.5-0.3,0.5-0.8c0.9,0,1.5-0.5,1.8-1.6l0.9-0.4c0.3,0,0.6,0,0.9,0
	l0.9-0.8v-0.4v-0.4v-0.4l0.4-0.4l0.5-0.4l0.4-0.4c0.3-0.3,0.8-0.4,1.3-0.4h0.5h0.4v-0.4h0.5h0.4h0.5c0.3-0.3,0.4-0.5,0.4-0.8v-0.4
	l-0.4-0.4c0-0.3,0-0.5,0-0.8l-0.5-0.4c0-0.3,0-0.7,0-1.2s0.3-1.1,0.9-1.6l0.5-0.4c0.3-0.3,0.6-0.4,0.9-0.4v0.4c0,0.3,0,0.7,0,1.2
	v0.4h0.4v0.4l-0.4,0.4h-0.5v0.4c-0.3,0.3-0.4,0.6-0.4,0.8c0,0.6,0.2,0.8,0.4,0.8v0.4h0.5h0.4v0.4h0.5v0.4c0.3,0,0.6-0.1,0.9-0.4h0.4
	c0.6-0.3,1.1-0.4,1.4-0.4v0.4l0.4,0.4h0.5l0.4-0.4h0.9h0.5l0.4-0.4l0.4-0.4c0.3-0.3,0.6-0.4,0.9-0.4c0.6,0,1.1,0.1,1.4,0.4v0.4
	c0.3,0,0.8-0.1,1.3-0.4v-0.8h0.5V235c0.6-0.3,0.9-0.7,0.9-1.2s0.1-1.2,0.5-2c0.3-0.5,0.6-0.8,0.9-0.8h0.5l0.4,0.4
	c0.3,0.3,0.6,0.4,0.9,0.4h0.5v-0.4c0.3-0.5,0-1.2-0.9-2c-0.3-0.3-0.1-0.7,0.5-1.2c0.6-0.3,1.2-0.4,1.8-0.4c0.3,0,0.6,0.1,0.9,0.4
	h0.4h0.9l0.9-0.4c0.3-0.3,0.6-0.4,0.9-0.4c0-0.3-0.1-0.5-0.4-0.8v-0.4l-0.5-0.4c0,0.5-0.4,0.8-1.4,0.8c-0.6,0.3-1.2,0.3-1.8,0
	l-0.4,0.4h-0.5c-0.6,0.3-1.1,0.4-1.3,0.4c-0.6,0-0.9-0.2-0.9-0.8c-0.3,0-0.6,0-0.9,0c-0.6-0.3-0.9-0.7-0.9-1.2
	c0-0.3,0.1-0.4,0.4-0.4v-0.4h0.5c-0.3,0-0.6-0.3-0.9-0.8c0-0.3,0-0.5,0-0.8v-0.4v-0.4c0.6,0,1.2-0.4,1.8-1.2l0.4-0.4l0.5-0.4
	c0.3-0.3,0.6-0.5,0.9-0.8h0.4l0.5-0.4c0.3-0.3,0.4-0.5,0.4-0.8s-0.2-0.5-0.4-0.8c-0.6-0.3-1.2-0.4-1.8-0.4c-1.5,0-2.3,0.6-2.3,1.6
	v0.4v0.4c0,0.5-0.5,1.1-1.4,1.6l-0.9,0.4v0.4H272l-0.4,0.4h-0.9c-0.3,0.3-0.5,0.6-0.5,0.8l-0.4,0.4v0.8v0.4v0.8c0,0.3,0,0.6,0,0.8
	c0.6,0,1.1,0.1,1.3,0.4c0.3,0.5,0.5,0.9,0.5,1.2s-0.2,0.7-0.5,1.2c-0.3,0.3-0.6,0.4-0.9,0.4s-0.6,0.1-0.9,0.4
	c-0.3,0.6-0.4,1.1-0.4,1.6c0,0.3,0.2,0.4,0.4,0.4l0.5,0.4c0,0.3-0.3,0.6-0.9,0.8v0.4l-0.4,0.4h-1.4l-0.4,0.8c-0.3,0-0.5,0.1-0.5,0.4
	c-0.3,0.3-0.6,0.4-0.9,0.4l-0.4-1.2c0-0.3-0.2-0.4-0.5-0.4v-0.4V233c0-0.3-0.2-0.7-0.4-1.2v-0.4c0-0.3-0.2-0.5-0.5-0.8v-0.4
	c-0.3-0.3-0.4-0.5-0.4-0.8V229c-0.3-0.3-0.5-0.5-0.5-0.8v-0.4c-0.6,0.8-1.2,1.5-1.8,2c-0.6,0.6-1.4,0.8-2.3,0.8
	c-0.3,0-0.6-0.3-0.9-0.8l-0.9-0.4c0-0.3,0.2-0.4,0.5-0.4v-0.8c-0.3,0-0.6,0-0.9,0l0.4-0.4v-0.4h0.5c-0.6-0.5-0.9-1.5-0.9-2.8
	c0-0.3,0.1-0.4,0.4-0.4l0.5-0.4c0.6-0.8,1.2-1.4,1.8-1.6l0.5-0.4h0.4c0.3-0.5,0.8-0.7,1.4-0.4l-0.5-0.4h-0.4
	c0.9-0.3,1.7-0.7,2.3-1.2l0.5-0.8c0.3-0.3,0.6-0.5,0.9-0.8c0.3,0,0.4-0.1,0.4-0.4v-0.4c0-0.5,0.2-0.8,0.5-0.8l0.4-0.8
	c0.3-0.8,0.9-1.4,1.8-1.6c0.3-0.3,0.8-0.7,1.4-1.2c0.3-0.5,0.5-0.9,0.8-1.4c-0.1,0-0.1-0.1-0.2-0.1c-0.2,0.1-0.4,0.2-0.6,0.3
	l-0.5,0.4c-0.6,0-1.1,0-1.4,0c0.3,0,0.4-0.1,0.4-0.4h0.5l-0.5-0.4c0-0.3,0.2-0.4,0.5-0.4h0.4c0-0.3,0.2-0.4,0.5-0.4
	c0,0.3,0,0.6,0,0.8h0.4c0,0,0.1,0,0.1,0.1c0.1,0,0.2-0.1,0.3-0.1c0,0.1-0.1,0.1-0.1,0.2c0.2,0.1,0.4,0.2,0.6,0.2l0.4-0.4V211
	l0.5-0.4c-0.3,0-0.6,0-0.9,0c0-0.3,0.2-0.4,0.4-0.4l0.5-0.4h0.4c0.3-0.3,0.6-0.4,0.9-0.4l0.5-0.4h0.4v0.8c0-0.3,0.2-0.4,0.5-0.4V209
	c0.3-0.3,0.6-0.4,0.9-0.4v0.4c0.3-0.3,0.6-0.5,0.9-0.8h0.4h0.5c-0.3-0.3-0.5-0.5-0.5-0.8h0.5h0.4V207l0.5,0.4h0.4h0.5h0.4h0.5
	c0.6-0.5,0.9-0.7,0.9-0.4s-0.2,0.6-0.5,0.8l-0.4,0.4c0.3,0,0.6,0,0.9,0l0.4-0.8h0.4v0.4c0.3-0.3,0.9-0.7,1.8-1.2v1.2
	c0.3-0.5,0.6-0.8,0.9-0.8l0.5,0.4h0.4v0.4h0.5c-0.3,0.3-0.5,0.5-0.5,0.8h-0.4h-0.5h-0.4l0.9,0.8h0.4h0.9c0.3,0,0.6,0,0.9,0
	c0.6,0,1.8,0.4,3.6,1.2l0.9,0.4l1.3,0.4c0.9,0.5,1.5,0.8,1.8,0.8c3,1.1,4.2,2.1,3.6,3.2c-0.3,0.6-0.8,1-1.4,1.2
	c-0.9,0.3-1.7,0.3-2.3,0c-0.9-0.3-2.2-0.4-4-0.4c0,0.3,0.1,0.7,0.5,1.2v0.4l0.4,0.8c0.3,0.8,0.9,1.3,1.8,1.6v-1.6
	c1.8,0.5,3,0.4,3.6-0.4l0.4-0.4l0.5-0.8c0.3-0.5,0.6-0.8,0.9-0.8h0.9h0.4h0.5c0.6,0,0.9-0.3,0.9-0.8V215v-0.4
	c-0.3,0-0.5-0.1-0.5-0.4c0.3-1.4,0.8-2.2,1.4-2.4l0.4-0.4c0.3,0.3,0.5,0.7,0.4,1.2c0,0.5,0,1.1,0,1.6c-0.3,0.3-0.3,0.4,0,0.4
	c0.3,0.3,0.6,0.4,0.9,0.4s0.9-0.3,1.8-0.8l0.5-0.4l0.9-0.4l1.3-0.8c2.1-1.4,3.3-1.6,3.6-0.8c0.9,0.3,1.9,0.3,3.1,0l0.9-0.4h0.5
	c0.6-0.3,1.1-0.4,1.3-0.4c0.3,0,0.5,0.1,0.5,0.4l0.4,0.4h0.5c0.6,0.3,0.9-0.1,0.9-1.2v-0.4c-0.3-0.3-0.3-0.5,0-0.8
	c0-0.3,1.2-0.1,3.6,0.4c0.6,0,1.2,0.3,1.8,0.8l1.3,0.8c0.3,0,0.6,0.1,0.9,0.4c1.5,0.8,1.9,0.4,1.3-1.2c-1.2-1.1-1.7-2.4-1.7-4
	c0-0.6,0.6-1.4,1.8-2.4c1.2-1.1,2.1-1.6,2.7-1.6c-0.6,0-0.9,0-0.9,0v-0.4v-0.4c0-0.3,0.2-0.4,0.5-0.4s0.4,0.1,0.4,0.4h0.5v0.4
	l-0.5,0.4c1.5,0.5,2.2,0.9,2.2,1.2l-0.5,0.4v0.4c-0.3,0.3-0.4,0.6-0.4,0.8c0,0.3,0.1,0.8,0.4,1.6c0,0.8,0,1.6,0,2.4
	c0.6,2.1,1.1,3.2,1.7,3.2c0.6,0,0.6-0.5,0-1.6l-0.4-0.8v-0.4c0-0.5,0-0.9,0-1.2c0.6-0.5,0.8-1.1,0.5-1.6l-0.4-0.4l-0.4-0.8
	c0-0.3,0-0.6,0-0.8c1.2-0.6,1.8-1.4,1.8-2.4c0,0.3,0.1,0.7,0.4,1.2v0.4c0,0.3,0.1,0.5,0.4,0.8c0.3,0.5,0.9,0.1,1.8-1.2
	c0.6,0,1.2,0.1,1.8,0.4h0.4h0.5c0.6,0,1-0.1,1.3-0.4v-0.4l-0.4-0.4v-0.4c0-1.1,0.9-1.8,2.7-2C345,200.6,345.6,200.6,346.2,200.5z
	 M379,199.6c-0.6,0-0.9-0.1-0.9-0.4v-0.4c0.3-0.3,0.5-0.4,0.5-0.4s0.1,0,0.4,0c0.6,0,0.9,0.3,0.9,0.8l-0.4,0.4v-0.4L379,199.6z
	 M253.2,259.3v-0.4h0.4h0.5c0,0,0,0.1,0,0.4h-0.5H253.2z M259.5,257.6v-0.4h0.5l0.4-0.4l0.5,0.4c0.3,0.3,0.4,0.8,0.4,1.6
	c0,0.3-0.2,0.5-0.4,0.8l-0.5,0.4c-0.3,0-0.4-0.1-0.4-0.4l-0.5-0.4v-0.4h0.5c0-0.3,0-0.5,0-0.8L259.5,257.6z M260,255.6v-0.4v-0.4
	h0.4h0.5v0.8v0.4c-0.3,0.3-0.5,0.4-0.5,0.4V256L260,255.6z M264,261.6v-0.4c0.6-0.3,1.1-0.3,1.4,0h0.4h0.5h0.4
	c0.3-0.3,0.6-0.3,0.9,0l-0.4,0.4v0.4v0.4v0.4h-0.5c-0.3,0-0.6-0.3-0.9-0.8h-0.4l-0.5-0.4h-0.4H264z M277.1,264.2c0.6,0,1.1,0,1.4,0
	c0.6,0.2,0.9,0.4,0.9,0.4s0.1,0,0.4,0l-0.4,0.4l-0.5-0.4c-0.3,0-0.6,0-0.9,0C277.6,264.6,277.4,264.5,277.1,264.2z M286.9,264.9
	v-0.4c0.3,0,0.6-0.1,0.9-0.4c0.6,0,0.9,0,0.9,0s0.1-0.1,0.4-0.4v0.4h-0.4v0.4l-0.5,0.4h-0.9H286.9z M262.3,235.8v0.4
	c0,0,0,0.1,0,0.4c-0.6,0-0.9-0.1-0.9-0.4v-0.4H262.3z M263.2,236.2l-0.4-0.4v-0.4l0.4-0.4c0-0.3,0.2-0.4,0.5-0.4s0.6,0.3,0.9,0.8
	c-0.3,0-0.5,0.1-0.5,0.4v0.4c-0.3,0.6-0.6,0.8-0.9,0.8h-0.4l0.4-0.4c0.3,0,0.5-0.1,0.5-0.4L263.2,236.2z M270.9,232.9v-0.4v-0.4
	c0.3-0.5,0.5-0.8,0.5-0.8s0.2,0,0.4,0l-0.4,0.4v0.4v0.4L270.9,232.9z M275.5,229.6h0.5h0.4v0.4l-0.4,0.4v0.4v0.4c-0.3,0-0.5,0-0.5,0
	h-0.4v-0.4v-0.4h0.4h0.5V230C275.6,230.1,275.5,229.9,275.5,229.6z M388,292v0.4c0-0.2,0-0.5,0-0.8V292z M150.6,188.6
	c-0.3,0-0.5,0-0.8,0s-0.5,0.1-0.8,0.4c0.3,0,0.5,0,0.8,0L150.6,188.6z M298.7,290.5c-0.3-0.8-0.4-1.4-0.4-2c-0.3,0-0.4-0.2-0.4-0.8
	l0.4-0.4c0-0.5-0.1-0.9-0.4-1.2v-0.4l-0.4-0.4c-0.3,0-0.4-0.1-0.4-0.4c-0.3-0.2-0.6-0.4-0.9-0.4c-0.3-0.8-0.4-1.3-0.4-1.6
	c-1.2-0.3-1.8-1.2-1.8-2.8c0-0.3,0-0.7,0-1.2h-0.4c0-0.3,0-0.5,0-0.8h-0.5v-0.4h-0.4h-0.5v-0.4c-0.3,0-0.4-0.1-0.4-0.4v-0.4
	c0-0.3,0-0.5,0-0.8h-0.5l-0.4-0.8v-0.4l-0.9-1.2l-0.4-0.4v-0.4v-0.4v-0.4v-0.4c0,0.3-0.2,0.7-0.5,1.2v0.4v0.4c-0.6,0-1-0.4-1.3-1.2
	l-0.5-0.4v-0.4c-0.3-0.3-0.6-0.4-0.9-0.4v0.4l4,6.7c0,0.3,0.1,0.8,0.4,1.6c0.3,0.5,0.6,1.1,0.9,1.6v2c0.3,0.3,0.6,0.5,0.9,0.8
	l0.9,0.4c0,0.3,0,0.5,0,0.8c0.3,0,0.4,0.1,0.4,0.4l0.4,0.8c0,0.5,0.1,0.9,0.4,1.2c0.3,0.3,0.6,0.5,0.9,0.8h0.5
	c0,0.3,0.1,0.4,0.4,0.4c0,0.3,0.1,0.4,0.4,0.4v0.4l0.4,0.4c0.3,0.5,0.7,0.8,1.3,0.8C299,290.9,299,290.7,298.7,290.5z M283.8,256.5
	h1.4c0.3,0,0.6-0.1,0.9-0.4h0.4l0.5-0.4c0.3-0.3,0.6-0.4,0.9-0.4h0.9h0.4h0.5c0.3,0,0.4,0.1,0.4,0.4h0.5l0.4,0.4l0.9,0.4
	c0.3,0,0.6,0,0.9,0c0,0.3,0.1,0.4,0.4,0.4h2.3c0.3,0,0.6-0.1,0.9-0.4l0.4-0.4l0.5-0.4c0-1.1-0.9-2-2.7-2.8l-0.9-0.4
	c-0.3-0.3-0.6-0.4-0.9-0.4c-0.6-0.5-0.9-0.9-0.9-1.2c0.9-0.3,1.3-0.7,1.3-1.2c0-0.3-0.1-0.4-0.4-0.4v-0.4l0.4-0.4h-0.9
	c-0.3,0.3-0.7,0.4-1.3,0.4c-0.9,0.6-1.3,1-1.3,1.2c0,0.3,0.1,0.4,0.4,0.4h1.3c-0.3,0.3-0.7,0.6-1.3,0.8c-0.6,0.6-1.2,0.8-1.8,0.8
	l-0.4-0.8l-0.5-0.4l-0.4-0.4l-1.3-1.6c-0.6,0-0.9,0.3-0.9,0.8h-0.4l-0.5,0.4v0.4v0.4c-0.3,0-0.6,0-0.9,0v0.4c0,0.3-0.2,0.6-0.4,0.8
	v0.8c0,0.3-0.2,0.4-0.5,0.4v0.4c-0.3,0.6-0.4,0.9-0.4,1.2s0.1,0.5,0.4,0.8v0.4h0.5l0.4,0.4h0.5H283.8z M293.3,248.4l0.5-0.4h-0.5
	V248.4z M227.1,207.7l0.5,0.4h0.5l-0.5-0.4c-0.3,0-0.5-0.1-0.5-0.4h-0.5C226.6,207.6,226.7,207.7,227.1,207.7z M360.9,185.6h-0.3
	c0.1,0,0.4,0,0.7,0H360.9z"/>
</svg>
