<?xml version="1.0" encoding="utf-8"?>
<!-- Generator: Adobe Illustrator 21.1.0, SVG Export Plug-In . SVG Version: 6.00 Build 0)  -->
<svg version="1.1" id="Layer_1" xmlns="http://www.w3.org/2000/svg" xmlns:xlink="http://www.w3.org/1999/xlink" x="0px" y="0px"
	 viewBox="0 0 262 512" style="enable-background:new 0 0 262 512;" xml:space="preserve">
<path d="M147,251v-46h93.8v-32H147V61l67,67l22.5-22.7L131,0L26.4,105.4L49,128l66-67v112H21.2v32H115v46C50.2,258.9,0,314.1,0,381
	c0,72.3,58.7,131,131,131s131-58.7,131-131C262,314.1,211.8,258.9,147,251z M131,480c-54.7,0-99-44.3-99-99s44.3-99,99-99
	s99,44.3,99,99S185.7,480,131,480z"/>
</svg>
