<?xml version="1.0" encoding="utf-8"?>
<!-- Generator: Adobe Illustrator 21.1.0, SVG Export Plug-In . SVG Version: 6.00 Build 0)  -->
<svg version="1.1" id="Layer_1" xmlns="http://www.w3.org/2000/svg" xmlns:xlink="http://www.w3.org/1999/xlink" x="0px" y="0px"
	 viewBox="0 0 512 512" style="enable-background:new 0 0 512 512;" xml:space="preserve">
<path d="M406.6,143.9L384,166.5l67,66H338v-93h-32v93h-45c-7.9-64.8-63.1-115-130-115c-72.3,0-131,58.7-131,131s58.7,131,131,131
	c66.9,0,122.1-50.2,130-115h45v94h32v-94h113l-67,67l22.7,22.5L512,248.5L406.6,143.9z M131,347.5c-54.7,0-99-44.3-99-99
	s44.3-99,99-99s99,44.3,99,99S185.7,347.5,131,347.5z"/>
</svg>
