<?xml version="1.0" encoding="utf-8"?>
<!-- Generator: Adobe Illustrator 21.1.0, SVG Export Plug-In . SVG Version: 6.00 Build 0)  -->
<svg version="1.1" id="Layer_1" xmlns="http://www.w3.org/2000/svg" xmlns:xlink="http://www.w3.org/1999/xlink" x="0px" y="0px"
	 viewBox="0 0 512.5 512" style="enable-background:new 0 0 512.5 512;" xml:space="preserve">
<path d="M512.5,171.7L512.4,0L340.5-0.2l0.3,31.9l117.8,0.7L316.8,174.3c-75.5-65.1-188.8-61.5-260.2,9.9
	c-74.8,74.7-75.9,196.3-0.7,271.5s197.5,74.8,272.2,0c70.6-70.6,74.3-183,11.1-258.6L480.5,55.8v116L512.5,171.7z M304.5,434.1
	c-62.5,62.5-163.8,62.5-226.3,0s-62.5-163.8,0-226.3s163.8-62.5,226.3,0C366.9,270.3,366.9,371.6,304.5,434.1z"/>
</svg>
