<?xml version="1.0" encoding="utf-8"?>
<!-- Generator: Adobe Illustrator 21.1.0, SVG Export Plug-In . SVG Version: 6.00 Build 0)  -->
<svg version="1.1" id="Layer_1" xmlns="http://www.w3.org/2000/svg" xmlns:xlink="http://www.w3.org/1999/xlink" x="0px" y="0px"
	 viewBox="0 0 545.9 512" style="enable-background:new 0 0 545.9 512;" xml:space="preserve">
<g>
	<path d="M194.7,0.5v31h106.7l-81.3,81.3c-21.5-12.3-46.4-19.3-72.9-19.3C65.9,93.5,0,159.4,0,240.7s65.9,147.2,147.2,147.2
		S294.4,322,294.4,240.7c0-43.1-18.6-81.9-48.1-108.9l76-76l-0.2,103.5h32L354.2,0L194.7,0.5z M263.1,241
		c0,63.8-51.7,115.5-115.5,115.5S32.1,304.8,32.1,241s51.7-115.5,115.5-115.5C211.3,125.5,263,177.2,263.1,241z"/>
	<path d="M386.8,133v31.9h105.6c0,0-54.2,54.2-99.5,99.5c-15.9-17.7-36-31.6-58.7-40c0,1.8,0.1,27.4,0,34.7
		C372.6,278,399,317.4,399.1,363c0,63.8-51.7,115.5-115.5,115.5c-41.6,0-78-22-98.3-54.9c-1.1,0.5-24.7,4.8-34.1,4
		c24,48.7,74.2,82.2,132.1,82.2c81.3,0,147.2-65.9,147.2-147.2c0-26.1-6.8-50.5-18.7-71.8c45.7-45.7,102.6-102.6,102.6-102.6
		L513.7,292l32-0.1l0.6-159.4L386.8,133z"/>
</g>
</svg>
