<?xml version="1.0" encoding="utf-8"?>
<!-- Generator: Adobe Illustrator 22.0.1, SVG Export Plug-In . SVG Version: 6.00 Build 0)  -->
<svg version="1.1" id="Layer_1" xmlns="http://www.w3.org/2000/svg" xmlns:xlink="http://www.w3.org/1999/xlink" x="0px" y="0px"
	 viewBox="0 0 386.8 512" style="enable-background:new 0 0 386.8 512;" xml:space="preserve">
<style type="text/css">
	.st0{fill-rule:evenodd;clip-rule:evenodd;}
</style>
<g>
	<g>
		<path class="st0" d="M108.3,206.4h172.5c28.4,0,25.2-23.2,24.9-51.7c-0.3-28.1,2.4-50.5-25.7-50.5H108.3
			c-28.2,0-24.9,22.9-24.9,51.1C83.4,183.6,80.1,206.4,108.3,206.4z M174.7,90.5h39.8c11.5,0,20.8-9.3,20.8-20.8v-0.1
			c0-11.5-9.3-20.8-20.8-20.8h-39.8c-11.5,0-20.8,9.3-20.8,20.8v0.1C153.8,81.2,163.2,90.5,174.7,90.5z M276.3,277.2
			c-16.3,0-29.5,12.9-29.5,28.9c0,16,13.2,28.9,29.5,28.9s29.5-12.9,29.5-28.9C305.7,290.1,292.5,277.2,276.3,277.2z M112.9,277.2
			c-16.3,0-29.5,12.9-29.5,28.9c0,16,13.2,28.9,29.5,28.9c16.3,0,29.5-12.9,29.5-28.9C142.3,290.1,129.2,277.2,112.9,277.2z
			 M305.3,385.1c4.3,0,6.8,0,6.8,0c26.7,0,48.3-30.8,48.3-57.1V79.3C360.3,53,349.1,0,279.9,0H106.1c-61,0-80.4,53-80.4,79.3V328
			c0,26.3,21.6,57.1,48.3,57.1c0,0,3.7,0,10.2,0C85.3,385.1-1.4,512-0.1,512h46.3c1.2,0,65.1-88.8,66.3-88.8h164.1
			c1.1,0,60.3,88.8,61.4,88.8h51.2C391,512,304.1,385.1,305.3,385.1z M277,370.1c-4.2,7.8-4.4,15-3.1,21.1H115.6
			c1.3-6.1,1-13.3-3.1-21.1l-9-17H73.9c-1.9,0-5.6-2.3-9.1-6.6c-4.3-5.4-7.2-12.8-7.2-18.5V79.3c0-7.6,3.4-20.3,10.9-30.2
			c8.7-11.5,21-17.1,37.6-17.1h173.8c28.8,0,37.1,12.1,39.9,16c8,11.5,8.6,26.8,8.6,31.3V328c0,5.7-2.9,13.1-7.2,18.5
			c-3.4,4.3-7.2,6.6-9.1,6.6h-6.8l-19.2,0L277,370.1z"/>
	</g>
</g>
</svg>
