<?xml version="1.0" encoding="utf-8"?>
<!-- Generator: Adobe Illustrator 21.1.0, SVG Export Plug-In . SVG Version: 6.00 Build 0)  -->
<svg version="1.1" id="Layer_1" xmlns="http://www.w3.org/2000/svg" xmlns:xlink="http://www.w3.org/1999/xlink" x="0px" y="0px"
	 viewBox="0 0 586 512" style="enable-background:new 0 0 586 512;" xml:space="preserve">
<g id="_x33_2">
	<path d="M367,227.2V253c0,41.4-33.6,75-75,75c-7.8,0-15.3-1.2-22.4-3.4L245,349.1c14.2,7,30.1,10.9,47,10.9
		c59.1,0,107-47.9,107-107v-57.8L367,227.2z M217,193h95.8l32-32H217v-51.6c0-41.4,33.6-75,75-75s75,33.6,75,75v29.4l32-32
		C397.6,48.9,350.2,2.4,292,2.4c-29.5,0-56.3,12-75.7,31.3C197,53.1,185,79.8,185,109.4V253c0,19.5,5.2,37.8,14.3,53.5l23.8-23.8
		c-4-9.1-6.1-19.2-6.1-29.7V193z"/>
	<circle cx="258.5" cy="235.5" r="8.5"/>
	<path d="M147,258c0,28.7,8.4,55.5,22.8,78.1l-23.2,23.2c-21-29.7-31.5-63.4-31.5-101.1l0-49.2h32C147,209,147,242.2,147,258z"/>
	<path d="M469.2,258.2c0,45.2-15.1,84.7-45.3,118.3c-30.2,33.6-67.6,52.9-112.2,57.8v40.4h96.7V514H174.2v-39.2h98.3v-40.4
		c-30.8-3.4-58.1-13.6-82-30.7l23.4-23.4c22.5,14.4,49.3,22.8,78.1,22.8c80.1,0,145-64.9,145-145c0-16,0-49,0-49h32L469.2,258.2z"/>
	<polygon points="571.6,0 59.6,512 14.4,512 526.4,0 	"/>
</g>
</svg>
