<?xml version="1.0" encoding="utf-8"?>
<!-- Generator: Adobe Illustrator 21.1.0, SVG Export Plug-In . SVG Version: 6.00 Build 0)  -->
<svg version="1.1" id="Layer_1" xmlns="http://www.w3.org/2000/svg" xmlns:xlink="http://www.w3.org/1999/xlink" x="0px" y="0px"
	 viewBox="0 0 366 512" style="enable-background:new 0 0 366 512;" xml:space="preserve">
<g>
	<path d="M184,360L184,360c59.1,0,107-47.9,107-107V109.4c0-59.1-47.9-107-107-107h0c-59.1,0-107,47.9-107,107V253
		C77,312.1,124.9,360,184,360z M184,328c-41.4,0-75-33.6-75-75v-60h150v60C259,294.4,225.4,328,184,328z M184,34.4
		c41.4,0,75,33.6,75,75V161H109v-51.6C109,68,142.6,34.4,184,34.4z"/>
	<circle cx="150.5" cy="235.5" r="8.5"/>
	<circle cx="184.5" cy="235.5" r="8.5"/>
	<circle cx="217.5" cy="235.5" r="8.5"/>
	<path d="M361,209h-32c0,0,0,33,0,49c0,80.1-64.9,145-145,145S39,338.1,39,258c0-15.8,0-49,0-49H7l0,49.2
		c0,45.2,15.1,84.7,45.3,118.3c30.2,33.6,67.6,52.9,112.2,57.8v40.4H66.2V514h234.2v-39.2h-96.7v-40.4c44.6-4.9,82-24.2,112.2-57.8
		c30.2-33.6,45.3-73.1,45.3-118.3L361,209z"/>
</g>
</svg>
