<?xml version="1.0" encoding="utf-8"?>
<!-- Generator: Adobe Illustrator 21.1.0, SVG Export Plug-In . SVG Version: 6.00 Build 0)  -->
<svg version="1.1" id="_x35_2_1_" xmlns="http://www.w3.org/2000/svg" xmlns:xlink="http://www.w3.org/1999/xlink" x="0px" y="0px"
	 viewBox="0 0 549.8 512" style="enable-background:new 0 0 549.8 512;" xml:space="preserve">
<g id="_x33_2_1_">
	<path d="M433.7,342.2c33.1,0,61.1,22.1,70,52.3h46.5l-0.3-113.6h0.1l-0.1-29.6c0-2.1-1.8-3.9-3.9-3.9s-3.9,1.8-3.9,3.9l0.1,13.4
		h-68.3v-23.2h-8.2v-5.1l48.7,22.5l32.8-70.4L269.3,59.8l3.8,33.7l-4,8.5l-75.4-36.2l-13.7,26l76.7,37l-4.2,9l88.6,40.9v33.4h-3.3
		v27.1h-4.9v25.3h-43l-28.6-23.3v-22.7l-31.5-26.4h-28.9l-0.6,64.3h-19.8l0.3-81.3h-120l-12.4,21.1v-57.3h-1.9v60.5l-4.6,7.8V183
		h-5.5v33.6L4.9,269.9c-6.7,11-6.4,36.8,0.7,47.5l49.4,74l27.1,0.4c9.6-29,37.1-49.9,69.3-49.9c33.1,0,61.1,22.1,70,52.3h142.4
		C372.6,364.2,400.6,342.2,433.7,342.2z M354.6,185l97.7,45.1H452v11.2h-8.2v23.2h-81.1v-25.3h-4.9v-27.1h-3.3V185L354.6,185z
		 M50.2,252.5c0-8.6,26.9-49.3,26.9-49.3h56.5l-3,53.2c0,0-28.7-0.1-50.3-0.1c-10.8,0-19.8,0-22.5,0.1c-0.2,0-0.3,0-0.4,0
		C49.7,256.5,50.2,252.5,50.2,252.5z M345.6,367.2H239.3c-17.3-31.6-51-52.3-88-52.3c-34.7,0-66.1,17.7-84.2,45.8L28.6,303
		c-1.6-4.1-1.8-15.2-0.2-19.2l5-8.4c4.9,4.3,12.5,8.3,24.1,8.3c0.3,0,169.9,0,169.9,0l0.5-57.7l6.1,5.2v23l46.2,37.6h9.7h232.9
		l0.3,75.5h-1.2c-17.3-31.6-51.1-52.3-88.1-52.3C396.7,314.9,363,335.7,345.6,367.2z"/>
	<path d="M151.3,356.3c-32.5,0-58.9,26.4-58.9,58.9s26.4,58.9,58.9,58.9s58.9-26.4,58.9-58.9S183.8,356.3,151.3,356.3z M151.3,442.8
		c-15.2,0-27.5-12.4-27.5-27.5c0-15.2,12.4-27.5,27.5-27.5c15.2,0,27.5,12.4,27.5,27.5C178.9,430.4,166.5,442.8,151.3,442.8z"/>
	<path d="M433.7,355.7c-32.5,0-58.9,26.4-58.9,58.9s26.4,58.9,58.9,58.9s58.9-26.4,58.9-58.9S466.3,355.7,433.7,355.7z M433.7,442.1
		c-15.2,0-27.5-12.4-27.5-27.5c0-15.2,12.4-27.5,27.5-27.5c15.2,0,27.6,12.4,27.6,27.5C461.3,429.8,449,442.1,433.7,442.1z"/>
	<polygon points="259.2,448.9 262.5,448.9 262.5,432.6 267.4,432.6 267.4,396 237.5,396 237.5,432.6 242.3,432.6 242.3,448.9 
		245.7,448.9 245.7,466.5 227.7,466.5 227.7,474.1 245.7,474.1 259.2,474.1 277.2,474.1 277.2,466.5 259.2,466.5 	"/>
	<polygon points="531.9,448.9 535.3,448.9 535.3,432.6 540.1,432.6 540.1,396 510.2,396 510.2,432.6 515.1,432.6 515.1,448.9 
		518.4,448.9 518.4,466.5 500.3,466.5 500.3,474.1 518.4,474.1 531.9,474.1 549.9,474.1 549.9,466.5 531.9,466.5 	"/>
	<path d="M151.1,77.9l25.3,11.7l13.3-26.4l-25.4-12.5C142.8,40,99.8,38,99.8,38S133,72.2,151.1,77.9z"/>
</g>
</svg>
