<?xml version="1.0" encoding="utf-8"?>
<!-- Generator: Adobe Illustrator 21.1.0, SVG Export Plug-In . SVG Version: 6.00 Build 0)  -->
<svg version="1.1" id="Layer_1" xmlns="http://www.w3.org/2000/svg" xmlns:xlink="http://www.w3.org/1999/xlink" x="0px" y="0px"
	 viewBox="0 0 303.7 512" style="enable-background:new 0 0 303.7 512;" xml:space="preserve">
<path d="M274.1,2c-0.6-0.2-1.2-0.4-1.8-0.5c0,0,0,0,0,0c-0.6-0.2-1.3-0.3-1.9-0.5c-1.3-0.3-2.6-0.5-3.9-0.7h0
	c-0.4,0-0.7-0.1-1.1-0.1C263.9,0.1,262.5,0,261,0H42.7c-1.5,0-2.9,0.1-4.4,0.2c-1,0.1-2,0.2-3,0.4C15.3,4.1,0,21.6,0,42.7v426.6
	c0,21.1,15.3,38.5,35.3,42c1,0.2,2,0.3,3,0.4c1.4,0.1,2.9,0.2,4.4,0.2H261c1.8,0,3.7-0.1,5.4-0.3c1.3-0.2,2.6-0.4,3.9-0.7
	c0.6-0.1,1.3-0.3,1.9-0.5c0,0,0,0,0,0c0.6-0.2,1.2-0.4,1.8-0.5c17.2-5.5,29.6-21.6,29.6-40.6V42.7C303.7,23.7,291.3,7.5,274.1,2z
	 M114.5,30.3c1.1-1.1,2.7-1.8,4.5-1.8h65.6c3.5,0,6.3,2.8,6.3,6.3c0,1.7-0.7,3.3-1.8,4.5s-2.7,1.8-4.5,1.8H119
	c-3.5,0-6.3-2.8-6.3-6.3C112.7,33.1,113.4,31.5,114.5,30.3z M79.8,28.5c3.5,0,6.4,2.8,6.4,6.4s-2.8,6.4-6.4,6.4
	c-3.5,0-6.4-2.8-6.4-6.4S76.2,28.5,79.8,28.5z M161.9,501.2c-0.4,0.1-0.8,0.3-1.2,0.4c-0.2,0.1-0.3,0.1-0.5,0.1
	c-0.3,0.1-0.7,0.2-1,0.3c-0.4,0.1-0.9,0.2-1.4,0.3c-0.5,0.1-0.9,0.2-1.4,0.2c-0.5,0.1-0.9,0.1-1.4,0.2h0c-0.3,0-0.5,0.1-0.8,0.1h0
	c-0.8,0.1-1.6,0.1-2.4,0.1c-0.8,0-1.7,0-2.5-0.1c-0.3,0-0.5,0-0.8-0.1h0c-16.1-1.6-28.7-15.2-28.7-31.8c0-16,11.8-29.3,27.2-31.6
	c0.5-0.1,1-0.1,1.5-0.2c1.1-0.1,2.2-0.2,3.3-0.2c1.1,0,2.2,0,3.2,0.2c0.5,0,0.9,0.1,1.4,0.2c0.5,0.1,0.9,0.1,1.4,0.2
	c0.5,0.1,0.9,0.2,1.4,0.3c0.5,0.1,0.9,0.2,1.3,0.3c13.4,3.8,23.2,16.1,23.2,30.7C183.8,485,174.6,497,161.9,501.2z M273.4,427.7
	H30.3V67.6h243.1V427.7z"/>
</svg>
