<?xml version="1.0" encoding="utf-8"?>
<!-- Generator: Adobe Illustrator 22.0.1, SVG Export Plug-In . SVG Version: 6.00 Build 0)  -->
<svg version="1.1" id="Layer_1" xmlns="http://www.w3.org/2000/svg" xmlns:xlink="http://www.w3.org/1999/xlink" x="0px" y="0px"
	 viewBox="0 0 303.7 512" style="enable-background:new 0 0 303.7 512;" xml:space="preserve">
<path id="_x33_2_1_" d="M273.4,0h-243C13.6,0,0,13.6,0,30.4v451.3C0,498.4,13.6,512,30.4,512l242.7-0.1c16.8,0,30.3-13.6,30.4-30.3
	l0.3-451.2C303.8,13.6,290.2,0,273.4,0z M271.8,473.4c-0.1,3.6-3,6.5-6.6,6.5H38.5c-3.6,0-6.5-2.9-6.5-6.5v-435
	c0-3.6,2.9-6.5,6.5-6.5h37.8l6.2,14.9c3.2,7.5,11.6,12.6,21.1,12.6h94.2c9.5,0,17.9-5.1,21.1-12.6l6.2-14.9h40.1
	c3.6,0,6.5,2.9,6.5,6.5V473.4z"/>
</svg>
