<?xml version="1.0" encoding="utf-8"?>
<!-- Generator: Adobe Illustrator 22.0.1, SVG Export Plug-In . SVG Version: 6.00 Build 0)  -->
<svg version="1.1" id="Layer_1" xmlns="http://www.w3.org/2000/svg" xmlns:xlink="http://www.w3.org/1999/xlink" x="0px" y="0px"
	 viewBox="0 0 303.7 512" style="enable-background:new 0 0 303.7 512;" xml:space="preserve">
<g id="_x33_2">
	<path d="M271.7,32v447.9H32V32H271.7 M286.6,0H17.1C7.6,0,0,7.6,0,17.1v477.8c0,9.4,7.6,17.1,17.1,17.1h269.6
		c9.4,0,17.1-7.6,17.1-17.1V17.1C303.7,7.6,296.1,0,286.6,0L286.6,0z"/>
	<path d="M182.1,456.4h-61c-4.8,0-8.8-3.9-8.8-8.8l0,0c0-4.8,3.9-8.8,8.8-8.8h61c4.8,0,8.8,3.9,8.8,8.8l0,0
		C190.9,452.5,187,456.4,182.1,456.4z"/>
</g>
</svg>
