<?xml version="1.0" encoding="utf-8"?>
<!-- Generator: Adobe Illustrator 22.0.1, SVG Export Plug-In . SVG Version: 6.00 Build 0)  -->
<svg version="1.1" id="Layer_1" xmlns="http://www.w3.org/2000/svg" xmlns:xlink="http://www.w3.org/1999/xlink" x="0px" y="0px"
	 viewBox="0 0 303.7 512" style="enable-background:new 0 0 303.7 512;" xml:space="preserve">
<g>
	<path d="M286.7,0H16.8C7.5,0,0,7.6,0,16.9v478.2c0,9.3,7.5,16.8,16.8,16.8h269.9c9.3,0,16.8-7.5,16.8-16.8V16.9
		C303.6,7.6,296,0,286.7,0z M190.8,455.7c0,4.9-3.9,8.8-8.8,8.8h-61c-4.9,0-8.8-3.9-8.8-8.8v0c0-4.9,3.9-8.8,8.8-8.8h61
		C186.8,446.8,190.8,450.8,190.8,455.7L190.8,455.7z M271.7,480H32V32h239.7V480z"/>
	<path d="M219.7,84v311.7H84V84H219.7 M52,52v375.7h199.7V52H52z"/>
</g>
</svg>
