<?xml version="1.0" encoding="utf-8"?>
<!-- Generator: Adobe Illustrator 22.0.1, SVG Export Plug-In . SVG Version: 6.00 Build 0)  -->
<svg version="1.1" id="Layer_2_1_" xmlns="http://www.w3.org/2000/svg" xmlns:xlink="http://www.w3.org/1999/xlink" x="0px" y="0px"
	 viewBox="0 0 550.2 512" style="enable-background:new 0 0 550.2 512;" xml:space="preserve">
<g id="_x33_2">
	<g>
		<path d="M384.6,195.1c-59.3,0-107.4,48.1-107.4,107.4s48.1,107.4,107.4,107.4c59.3,0,107.4-48.1,107.4-107.4
			S443.9,195.1,384.6,195.1z M428,369.4c-9.4,8.6-22.1,13.1-38,13.5v9.1h-16.7v-9.1c-12.4-1.7-22.7-6-31.1-13.1
			c-8.3-7.1-13.1-19-14.3-35.7h29.2c-0.1,0.9-0.1,1.5-0.1,1.9c0,5.5,1.4,10.3,4.2,14.5c2.9,4.1,6.8,6.8,12,8.1v-50.1
			c-16.7-7.7-28-15.4-33.8-22.9c-5.8-7.6-8.8-15.8-8.8-24.8c0-10.9,3.9-20.2,11.7-27.9c7.8-7.7,18.1-12.1,30.9-13.1v-7.2h16.7v7.2
			c13.7,1.1,24.7,5.5,32.8,13.3c8.1,7.7,12.2,17.8,12.2,30.3h-29.2c-1.3-12.4-6.6-19.1-15.7-20.1v39.4l16.1,7.2
			c9.1,4.1,16.3,8.8,21.7,14c5.4,5.2,9.1,10.7,11.2,16.4c2.1,5.7,3.1,11.4,3.1,17.2C442.1,350.2,437.4,360.8,428,369.4z
			 M389.9,315.7v44c6.8,0.1,12.4-1.8,16.8-5.7c4.4-3.9,6.6-8.5,6.5-13.9C413.2,329.9,405.4,321.7,389.9,315.7z M359.9,257.3
			c0,6.5,4.4,12.5,13.4,17.7v-31.7C364.3,245,359.9,249.7,359.9,257.3z"/>
	</g>
	<path d="M60.3,256.8H182v31.8H60.3V256.8z M242.8,348.6H60.3v-31.8h182.5V348.6z"/>
	<path d="M0.2,45v422H550V45H0.2z M32.2,77H518v63.4H32.2V77z M518,435H32.2V172.4H518V435z"/>
</g>
</svg>
