<?xml version="1.0" encoding="utf-8"?>
<!-- Generator: Adobe Illustrator 21.1.0, SVG Export Plug-In . SVG Version: 6.00 Build 0)  -->
<svg version="1.1" id="Layer_2" xmlns="http://www.w3.org/2000/svg" xmlns:xlink="http://www.w3.org/1999/xlink" x="0px" y="0px"
	 viewBox="0 0 575.9 512" style="enable-background:new 0 0 575.9 512;" xml:space="preserve">
<path d="M-0.1,0v512h576V0H-0.1z M543.9,480h-512V309.8h137.6l36.1-117.1l70.9,199.5c1.3,3.8,4.9,6.4,9,6.7c0.2,0,0.4,0,0.7,0
	c3.9,0,7.5-2.2,9.2-5.6l66-132.7l83.4-0.2c8.2,0,14.9-6.7,14.9-14.9c0-8.2-6.7-14.9-14.9-14.9H340.1l-50.6,108.2L214,120
	c-1.5-4.2-5.5-7-9.9-6.9c-4.5,0.1-8.3,3-9.6,7.3L146,279.5h-114V32h512V480z"/>
</svg>
