<?xml version="1.0" encoding="utf-8"?>
<!-- Generator: Adobe Illustrator 21.1.0, SVG Export Plug-In . SVG Version: 6.00 Build 0)  -->
<svg version="1.1" id="Layer_1" xmlns="http://www.w3.org/2000/svg" xmlns:xlink="http://www.w3.org/1999/xlink" x="0px" y="0px"
	 viewBox="0 0 550.2 512" style="enable-background:new 0 0 550.2 512;" xml:space="preserve">
<g>
	<path d="M550.2,372.7c-44.3,67.4-120.5,111.7-207,111.7C206.1,484.5,94.7,372.7,94.7,235.3c0-85.1,42.4-160.1,107.3-204.8
		c-42.2,44.8-68.3,106.3-68.3,174.2c0,137.5,107.3,249.2,239.3,249.2c69.3,0,131.6-30.6,175.3-79.7
		C548.9,373.7,549.6,373.2,550.2,372.7z"/>
	<path d="M51.2,353l-9.5-24.3l-14.8,22L0,352.1l17.8,19.5l-6.7,24.7l24.9-9.8l23.5,13.6L57,374.5l21.1-15.9L51.2,353z M416.2,214.5
		l30.2,32.1l9.1-41.5l42.7-16.3l-39.3-21.4l-3.8-42.5l-34,28.5l-44.1-9.8l18.2,38.7l-23.9,36.4L416.2,214.5z M87.2,53.1l7.2-19.1
		l-20.6,6.5L56.5,28.4l0.4,20.1L38.8,60.1l20.6,6.1l6.7,19.5l12.5-16.3h22L87.2,53.1z"/>
</g>
</svg>
