<?xml version="1.0" encoding="utf-8"?>
<!-- Generator: Adobe Illustrator 21.1.0, SVG Export Plug-In . SVG Version: 6.00 Build 0)  -->
<svg version="1.1" id="Layer_7" xmlns="http://www.w3.org/2000/svg" xmlns:xlink="http://www.w3.org/1999/xlink" x="0px" y="0px"
	 viewBox="0 0 511.9 512" style="enable-background:new 0 0 511.9 512;" xml:space="preserve">
<g id="_x33_2">
	<path d="M276.5,306.3c0-10.6-8.6-19.3-19.3-19.3s-19.3,8.6-19.3,19.3V337h38.5L276.5,306.3L276.5,306.3z"/>
	<path d="M223.4,311.2c0-8.9-7.2-16.2-16.2-16.2s-16.2,7.2-16.2,16.2V337h32.4V311.2z"/>
	<path d="M307.1,295L307.1,295c-8.9,0-16.2,7.2-16.2,16.2V337h32.4v-25.8C323.3,302.2,316.1,295,307.1,295z"/>
	<path d="M447.9,73.2l-1.3-15.6c3.1-1.1,5.4-4,5.4-7.5s-2.3-6.5-5.5-7.6L445.3,28h-2.7l-1.2,14.4c-3.2,1.1-5.5,4-5.5,7.6
		c0,3.5,2.3,6.5,5.4,7.5L440,73c-36.2,1.8-65.1,31.7-65.1,68.4V197h-34c-0.8-44.5-34.7-80.9-78.2-85.5l-1.2-14.7
		c5.2-1.8,8.9-6.7,8.9-12.5s-3.8-10.8-9-12.5l-2-23.8H255l-2,23.8c-5.3,1.8-9,6.7-9,12.5s3.7,10.7,8.9,12.5l-1.2,14.2
		c-47,1-84.9,39-85.7,86h-29v-55.5c0-36.3-28.3-66.1-64.1-68.3l-1.3-15.6c3.1-1.1,5.4-4,5.4-7.5s-2.3-6.5-5.5-7.6L70.3,28h-2.7
		l-1.2,14.4c-3.2,1.1-5.5,4-5.5,7.6c0,3.5,2.3,6.5,5.4,7.5L65,73c-36.2,1.9-65,31.8-65,68.5V512h32V229h448v274h0v9h32V141.5
		C512,105.2,483.7,75.4,447.9,73.2z M24.6,197H9v-12.4c0-4.3,3.5-7.8,7.8-7.8s7.8,3.5,7.8,7.8V197z M50.4,197h-17v-13.6
		c0-4.7,3.8-8.5,8.5-8.5c4.7,0,8.5,3.8,8.5,8.5V197z M77.4,197H58.9v-14.8c0-5.1,4.1-9.3,9.2-9.3c5.1,0.1,9.3,4.2,9.3,9.4V197z
		 M103,197H86v-13.6c0-4.7,3.8-8.5,8.5-8.5s8.5,3.8,8.5,8.5V197z M104.9,147.5H32v-6C32,122,47.2,106,66.6,105l2-0.1l2.2,0.1
		c19.1,1.2,34.1,17.2,34.1,36.4V147.5z M127.3,197h-15.5v-12.4h-0.1c0-4.3,3.5-7.8,7.8-7.8s7.8,3.5,7.8,7.8V197z M400.6,197H385
		v-12.4c0-4.3,3.5-7.8,7.8-7.8s7.8,3.5,7.8,7.8V197z M426.3,197h-17v-13.6c0-4.7,3.8-8.5,8.5-8.5s8.5,3.8,8.5,8.5V197z M453.4,197
		h-18.5v-14.8c0-5.1,4.1-9.3,9.3-9.3c5.1,0,9.2,4.1,9.2,9.3V197z M478.9,197h-17v-13.6c0-4.7,3.8-8.5,8.5-8.5c4.7,0,8.5,3.8,8.5,8.5
		V197z M480,147.6h-73v-6.1c0-19.5,15.2-35.5,34.7-36.5l2-0.1l2.2,0.1c19.1,1.2,34.1,17.2,34.1,36.4V147.6z M503.3,197h-15.6v-12.4
		c0-4.3,3.5-7.8,7.8-7.8s7.8,3.5,7.8,7.8V197z"/>
	<path d="M162.5,445.5V512h-27v-66.5c0-14.9-12.1-27-27-27s-27,12.1-27,27V512H54.4v-24.5h0.1v-42c0-29.8,24.2-54,54-54
		S162.5,415.7,162.5,445.5z"/>
	<path d="M290.5,512v-77c0-18.5-15-33.5-33.5-33.5s-33.5,15-33.5,33.5v77h-27l0-77c0-33.4,27.1-60.5,60.5-60.5s60.5,27.1,60.5,60.5
		l0,77H290.5z"/>
	<path d="M433.5,512v-66.5c0-14.9-12.1-27-27-27s-27,12.1-27,27V512h-27v-66.5c0-29.8,24.2-54,54-54s54,24.2,54,54l0,66.5H433.5z"/>
</g>
</svg>
