<?xml version="1.0" encoding="utf-8"?>
<!-- Generator: Adobe Illustrator 21.1.0, SVG Export Plug-In . SVG Version: 6.00 Build 0)  -->
<svg version="1.1" id="Layer_1" xmlns="http://www.w3.org/2000/svg" xmlns:xlink="http://www.w3.org/1999/xlink" x="0px" y="0px"
	 viewBox="0 0 729.3 512" style="enable-background:new 0 0 729.3 512;" xml:space="preserve">
<path d="M728.9,294.4c-1.4-6.5-9.2-35.3-12.2-46.3c-0.8-2.7-2.2-4.6-4.2-6c-4.1-2.3-17.7-13-17.7-13c0.7,0.1,1.4,0.2,2,0.2
	c10.2,0,11.7-11.5,9.1-16.7l-10.8-25.9c-1.3-3-3.8-6.5-10.4-6.5c-3.8,0-19.6,1.1-30.8,4c-1.3-1.9-4.4-3.6-6.2-3.6
	c-0.2,0-0.5,0-0.7,0.1c-5.3-17.5-16.1-34.1-30.7-38.4c-1-0.7-2-1.3-3.1-2c-0.8-1-2.2-2.5-4.2-3c-4.4-1-9.4-1.5-15-1.5
	c-50.3,0-76.2,0-76.2,0s-8.2,0.4-8.2,12.5c0,16.3-22.8,28.9-33.4,28.9c-5.7,0,0.8-1.8-12-5.5c-1-0.3-25-7.8-37.4-8.5
	c-0.4,0-0.9,0-1.3,0c-6.4,0-18.3,2.4-29.8,17c-3.6-6-34.4-54.9-63.9-76.1c-14.4-11.3-28.1-17.1-41.2-17.4
	c-19.6,0.6-31.1,4.5-36.2,6.5c-1-2-2.2-3.6-3.5-5l-10.1-7.4L253.6,37h9.7l32,23.7c1.3,1,2.8,1.5,4.3,1.5c3.1,0,6-2,7.6-5.7
	c2.4-5.4,0.8-12.1-3.5-15l-6.6-5L316.8,48c1.2,0.7,2.4,1,3.6,1c3.4,0,6.6-2.5,8-6.7c1.9-5.6-0.1-12-4.4-14.5L280.5,2.6
	c-1.3-0.7-2.6-1-3.8-1l-26.2,2c-3.6,0-6,2.9-7.7,7L239.3,24c-6.7,0.3-9.7,1.2-15.5,7c-7.8,7.8-11.5,26.8-22.4,30.5L191.1,53
	l-11.5,23.8c0,0-4.4-7.2-8.9-7.5c-0.5-0.1-1-0.1-1.5-0.1c-1.2,0-2.4,0.2-3.9,0.6c-3.8,0-6.4,2.9-7.7,8.7c-1.3,5.8-2.2,17.4-2.7,34.9
	c-0.5,17.4,0,26.6,1.6,27.4c1.6,0.8,2.8,2.1,3.8,3.7l5-0.5c-0.8,2.3-1.2,4.8-1.2,7.5v15.9c0,6.7,4.3,11,8.5,11h5.8l-15.4,38.3
	c-8.6,0.9-11.9,14-11.9,14c-13.6-7-27.7-10.5-42.4-10.5c-6.9,0-13.9,0.8-20.8,2.5c-3.1,0.7-9.9,3.7-12.3,14C35.1,250.7,0,308,0,371
	c0,80.4,50.7,141,108.9,141c57.9,0,100.8-57,107.7-118c2.6-2,8.9-7.9,8.9-18c0-29.4-3.7-49-11.1-69.2c5.3-30.1-0.9-62.1-2.4-70.7
	c-2.6-16.9-6-46.1-1.6-67.2l12.3,7c0.8,3,37,119.2,41.4,137.5c-3.5,71.4,25.8,124.5,82.2,124.5c4.1,0,9.5,0.1,16,0.1
	c25.4,0,68-2,117.8-21.1c12.9,51.9,52.7,95.1,103.1,95.1c60.2,0,108.9-63.1,108.9-141c0-80.7-50.7-141.4-108.9-141.4
	c-15.9,0-31.1,4.3-45.4,12.9l-3.5-6.5c2.6-2.3,5-4,7.3-5c13.3-12.3,31.5-17.8,51.1-17.8c50,0,109.1,35.9,119.3,87.3
	c0.9,4.9,4.6,8,8.3,8c0.6,0,1.2-0.1,1.8-0.2C727.2,307,730.3,300.6,728.9,294.4z M194.4,140.5l-3.1,6.5v-1.5c-0.2-0.7-0.5-1-0.8-1
	c-0.5-1-1.2-2-2-3L194.4,140.5z M156.6,290.9c9.3,9.3,16.7,20.7,22.3,34.4c2.9,7.3,5,14.9,6.4,22.7c-4.9,5.3-10.4,10.4-15.4,13.3
	c-7.6,4.4-15.2,8.5-21.5,11.8v-1.5c0-6.3-0.9-12.6-2.7-18.9c-1.8-6-4.4-11.3-7.7-15.9L156.6,290.9z M180.9,410.4
	c-16.9,43.7-41.7,61.7-76,61.7c-27.9,0-74.1-35.9-74.1-101c0-46.1,28.2-100.9,76.7-100.9c8,0,16.6,1.5,25.7,4.8l-18.8,46.3
	c-1.8-0.7-3.6-1-5.4-1c-5.1,0-10.3,1.3-15.4,4c-4.6,3-8.7,6.8-12.3,11.5c-3.6,4.3-6.4,9.6-8.5,15.9c-2.3,6.3-3.5,13-3.5,19.9
	c0,7,1.2,13.6,3.5,19.9c2,6,4.9,11.5,8.5,16.4c3.6,4.6,7.7,8.3,12.3,10.9c5.1,2.7,10.3,4,15.4,4c5.7,0,10.8-1.3,15.4-4
	c4.9-2.6,9.1-6.3,12.7-10.9c3.6-5,6.4-10.5,8.5-16.4c0.5-1.5,0.9-3.1,1.3-4.6c8.3-4.1,22-11.3,33.4-19c2.3-1.5,4.6-3.6,7-6
	C188.7,376.5,185.3,397.5,180.9,410.4z M96.6,375.5c1,4.7,3.1,8.1,6.2,10.5c2,1.3,4.1,2,6.2,2c2.3,0,4.6-0.8,6.9-2.5
	c2.3-1.7,4-3.8,5-6.5l7.7-19.4c1.8,4,2.7,8,2.7,12s-0.6,7.6-2,10.9c-1,3.3-2.7,6.3-5,9c-1.8,2.7-4.1,4.6-6.9,6
	c-2.6,1.7-5.4,2.5-8.5,2.5c-2.8,0-5.7-0.8-8.5-2.5c-2.3-1.3-4.6-3.3-6.9-6c-2-2.6-3.6-5.6-4.6-9c-1-3.3-1.6-7-1.6-10.9
	c0-6.6,1.6-12.6,5-17.9c3.3-5,7.6-8.1,12.7-9.5l-7.7,18.4C95.8,366.9,95.6,371.2,96.6,375.5z M207,290
	c-8.5-17.3-19.2-31.7-32.3-43.3l1.9-5c1.8-4,2-8.3,0.8-12.9l23.9-57.8c-4.9,29.9,2,67.8,2,67.8C206.3,255.9,208.6,277.6,207,290z
	 M220.9,132.6l-6.6,6l16.2-39.8l4.2,3.5L220.9,132.6z M225.1,72.8c-2.3,0.7-4.1,2.5-5.4,5.5l-8.9,21.9c-2.8-1-5.4-2.2-7.7-3.5
	l11.9-24.9l-5-3c10.3-4.8,12.4-27.7,25.2-31.5L225.1,72.8z M505.7,359.6c0.5-5.6,1.3-11.3,2.3-16.9l13.5,7.5c-3.4,2-6.3,4.5-8.9,7.5
	L505.7,359.6z M510.4,407.9c3.1-1,5.4-1.8,6.9-2.5c0.8,0,1.6,0.2,2.7,0.5c1,0,7.8,0.4,10,0.4l-16.5,10
	C512.4,413.6,511.3,410.8,510.4,407.9z M521.9,433.3c-2.7-4.5-5.2-9.4-7.4-14.5l20.3-12.2c7.8,0.6,14.5,0.8,20.1,0.8
	c0.7,0.9,1.4,1.7,2,2.4l-26.9,34.9C527.2,441.2,524.4,437.4,521.9,433.3z M538.9,453.7c-2.4-2.1-4.6-4.3-6.7-6.7l27-34.9
	c2.7,2.8,8.2,7.3,13.3,8.9l-12.9,46C552.2,464,545.4,459.6,538.9,453.7z M562.4,374.1l4.6-0.9l2,1.1h-6.4L562.4,374.1z M585.3,472.1
	c-0.6,0-1.2,0.1-1.9,0.1c-7.6-0.2-15-1.6-22-4.3l13-46.2c2.3,0.6,5.9,1.2,8.8,1.2c0.7,0,1.4,0,2-0.1L585.3,472.1L585.3,472.1z
	 M619.5,460.5L603.4,416c0.3-0.2,0.5-0.4,0.9-0.6c2.6-2.2,4.9-4.7,7-7.4l26.9,34.8C632.6,449.8,626.4,455.7,619.5,460.5z
	 M655.5,410.4c-3.8,11.1-8.9,21-15.5,29.8l-27-34.9c2-3,3.6-6.2,5.1-9.8c2.6-0.6,5.1-1.3,7.6-2l30.4,14.3
	C655.9,408.7,655.7,409.6,655.5,410.4z M656.9,405.2l-27.2-12.8c1.5-0.5,11.1-3.4,11.1-3.4c2.3-0.7,4.1-2.3,5.4-5
	c1.3-2.6,1.6-5.5,0.8-8.5h14.1C660.8,385.7,659.4,395.6,656.9,405.2z M661.2,371.1v1h-14.8l-5-29.6l14.8-8.9
	C659.5,345.6,661.2,358,661.2,371.1z M655.2,330.7l-14.4,8.7l-0.5-2.7c-0.2-2.6-1.4-4.8-3.5-6.5c-1.5-1.4-3.1-2.1-4.8-2.1
	c-0.3,0-0.7,0-1,0.1l-8.6,1.7l19.6-25.4C647.5,312.4,651.9,321.1,655.2,330.7z M638.5,299.4c0.6,0.8,1.3,1.7,1.9,2.5L618,330.8
	l-9.5,1.9c-2.1-2.6-4.6-4.7-7.1-6.4l13.4-47.6C623.8,283.7,631.7,290.5,638.5,299.4z M588.1,269.5c7.5,0,15.6,2.7,24.6,7.9
	L599.4,325c-0.8-0.4-6.8-3.7-11.2-4.3V269.5z M588.1,422.5c4.6-0.7,9-2.3,13.2-5l15.9,44.5c-1.3,0.8-2.4,1.5-3.7,2.2
	c-8.1,4.2-16.6,6.8-25.4,7.7L588.1,422.5L588.1,422.5z M583.5,269.5h2v50.9c-0.7-0.1-1.3-0.1-1.9-0.1c-2.2,0-3.1,0.5-3.1,0.5
	L556.2,276C565.1,271.7,574.2,269.5,583.5,269.5z M557.8,368l-4.9,6.3h-12.6l13.9-8.3L557.8,368z M520,311.8
	c2.4-4.3,4.9-8.2,7.8-11.9l22.3,28.8L520,311.8z M529.6,297.4c1.1-1.4,2.3-2.7,3.5-4l14.5,27.2L529.6,297.4z M592.8,181.2
	c-24.7,0-46.5,7.4-63.1,21.4c-3.2,1.8-6.4,4.2-9.7,7.1l-20.3,18l13.9,26.1l2.2,4.1c-27.1,25.7-44.6,66.8-44.6,113.1
	c0,5.2,0.2,10.4,0.6,15.5C426.4,404,387.6,406,362.4,406c-3.5,0-6.7,0-9.7-0.1c-2.3,0-4.5,0-6.4,0c-17.7,0-31.7-6.7-41.4-19.8
	c-11.5-15.7-17.1-40.8-15.7-70.7l0.2-5.8l-1.3-5.5c-3.3-13.7-20.2-68.9-35.9-119.5c-2.7-8.8-5.3-17.2-5.9-19.2l-3.4-12.9l-1.7-1
	l1.3-2.8l9.7-21.1l9.7-3.8c9.3-3.7,20.7-4.8,28.8-5.1c8.4,0.3,17.7,4.6,28,12.6l0.4,0.3l0.5,0.3c22.3,16,48.7,55.2,56.3,67.7
	l17.3,28.8l20.2-25.6c5.6-7,10.4-7.8,12.2-7.8c0.1,0,0.2,0,0.2,0c5.6,0.3,18.2,3.3,32.2,7.5c0.3,0.1,0.5,0.1,0.6,0.2h0.1h0.1
	c0.2,0.1,0.5,0.1,0.7,0.2c6.9,6.1,14.1,6.1,16.9,6.1c10.1,0,22.5-4.7,33.3-12.7c10.5-7.7,18-17.6,21.9-28.7H594
	c2.5,0,4.8,0.1,6.9,0.4l0.5,0.3c0.9,0.6,1.6,1.1,2.2,1.5c0.3,0.2,0.5,0.4,0.9,0.5l2.9,2l3.2,1c3.3,1,6.9,5,9.7,10.7
	C611.1,182.2,601.8,181.2,592.8,181.2z"/>
</svg>
