<?xml version="1.0" encoding="utf-8"?>
<!-- Generator: Adobe Illustrator 21.1.0, SVG Export Plug-In . SVG Version: 6.00 Build 0)  -->
<svg version="1.1" id="Layer_1" xmlns="http://www.w3.org/2000/svg" xmlns:xlink="http://www.w3.org/1999/xlink" x="0px" y="0px"
	 viewBox="0 0 450 512" style="enable-background:new 0 0 450 512;" xml:space="preserve">
<g>
	<g>
		<path d="M120.5,170.6c0,13,10.5,23.5,23.5,23.5s23.5-10.5,23.5-23.5S157,147.1,144,147.1S120.5,157.6,120.5,170.6z M445.8,376.5
			h-10.5v-19.9h-34.1v19.9h-10.5c-2,0-3.7,1.7-3.7,3.7v55.1c0,2,1.7,3.7,3.7,3.7h19.2c-1.7,16.7-15.8,29.7-32.9,29.7
			c-18.2,0-33-14.8-33-33l-0.3-363.8c0.2-39.8-46.4-71.8-103.9-71.8c-56.5,0-102.4,31-103.9,69.7l-3.2,0.1
			C58.6,75.5,0.5,138.2,0.5,212.6v156.1c0,79,64.3,143.3,143.2,143.3s143.2-64.3,143.2-143.3V212.6c0-36.3-13.7-70.9-38.4-97.5
			c-24.6-26.4-58-42.5-93.8-45.2h-3.5c3.5-30.3,41.8-54.1,88.5-54.1c49.1,0,88.8,26.2,88.8,58.6v361.2c0,26.8,21.7,48.6,48.6,48.6
			c25.7,0,46.7-20,48.4-45.2h20.3c2,0,3.7-1.7,3.7-3.7v-55.1C449.5,378.2,447.8,376.5,445.8,376.5z M153.3,101.7
			c27.4,2.4,52.9,14.8,71.8,35.1c19.2,20.7,29.8,47.5,29.8,75.7v156.1c0,61.4-49.9,111.3-111.2,111.3S32.5,430.3,32.5,368.9V212.6
			c0-27.9,10.6-54.6,29.8-75.4c19-20.6,44.7-33.2,72.3-35.5H153.3z"/>
	</g>
</g>
</svg>
