<?xml version="1.0" encoding="utf-8"?>
<!-- Generator: Adobe Illustrator 21.1.0, SVG Export Plug-In . SVG Version: 6.00 Build 0)  -->
<svg version="1.1" id="Layer_1" xmlns="http://www.w3.org/2000/svg" xmlns:xlink="http://www.w3.org/1999/xlink" x="0px" y="0px"
	 viewBox="0 0 514 512" style="enable-background:new 0 0 514 512;" xml:space="preserve">
<path d="M271,31.9c27-1.9,50.4,45.4,40.8,76.3c-5.5,14.4-65.8,49.9-107.3-21.6l-17.6,46.3c-16.3,42.9-16.2,90.9-16.1,133.3
	c0,2.9-5.6,96.5-5.6,96.5l59.4-57.6c19.1-18.5,41.3-28.3,64.3-28.3c10.1,0,20.5,1.9,30.9,5.5c23.4,6.6,61.1,62.7,61.1,62.7
	s20.2-43.3,49.3-50.5c14.7-4.8,31.4-7.5,46.9-7.5c1.7,0,3.4,0,5,0.1v146.4c-56.8,30.9-124.5,47.1-196.9,47.1
	c-39.7,0-79.9-4.9-119.4-14.5c-39.2-9.5-76.6-23.4-111.1-41.4c-21-14.6-24.2-43.2-20.6-59.9c19.3-89,64.9-174,102.5-238.1
	c7.7-13.2,20.7-35.3,35.2-53.5c18.3-23,30.5-29.1,36.2-30.8C207.9,42.4,225,36,271,31.9z M199,11.7c-38,11-71.3,66.8-90.1,98.8
	C63.9,187.3,21.8,270.3,2.8,358c-12.3,56.9,22.2,87.4,37.1,95.1c73.8,38.2,160,59.4,245.2,59.4c80.8,0,160.9-19,228.9-60.6V259.7
	c-11.6-3.4-24.2-4.8-37-4.8c-41.9,0-85.2,15.8-96.8,33.2c-11.8-17-31.1-29.5-49.8-36.1c-14.1-5-28-7.3-41.5-7.3
	c-32.4,0-62.2,13.7-86.6,37.3c0.2-2.4,0.5-4.7,0.5-7.1c0-41.9-1.2-90.5,14.1-130.7c50.5,36.2,111.3,11.2,124.9-24.7
	c12.7-33.7-2-72.7-25.5-97.8C282.4-16,221.1,5.3,199,11.7z"/>
</svg>
