<?xml version="1.0" encoding="utf-8"?>
<!-- Generator: Adobe Illustrator 21.1.0, SVG Export Plug-In . SVG Version: 6.00 Build 0)  -->
<svg version="1.1" id="Layer_1" xmlns="http://www.w3.org/2000/svg" xmlns:xlink="http://www.w3.org/1999/xlink" x="0px" y="0px"
	 viewBox="0 0 384.7 512" style="enable-background:new 0 0 384.7 512;" xml:space="preserve">
<path d="M215.9,0.5c-1-0.2-2-0.3-3.1-0.3c-6.3,0-12.3,3.3-15.7,8.9c-1.8,3-2.2,4.4-2.2,10.1v290.9c-15.4-11.6-34.8-17.4-55.4-17.4
	c-29.9,0-62.6,12.1-89.9,35.8c-51.5,44.7-64.4,114.1-29,154.8c16.7,19.1,41,28.6,67.5,28.6c29.9,0,62.6-12.1,89.9-35.8
	c31.2-27.2,48.3-63.4,48.9-96.8V47.7c40.6,1.4,125.4,8.4,133.5,41.8c2.4,9.8-3,28.9-3,28.9s27.4-21.3,27.4-48.6
	C384.7,32.2,241.8,4.9,215.9,0.5z M157,452c-38.1,33.2-88.3,37.9-112.1,10.5c-23.8-27.3-12.1-76.4,26-109.6
	C109,319.8,159.2,315,183,342.4c6.8,7.8,10.7,17.3,11.9,27.8c0.3,3,0.5,6,0.4,9.2C194.7,403.5,181.2,430.9,157,452z"/>
</svg>
