<?xml version="1.0" encoding="utf-8"?>
<!-- Generator: Adobe Illustrator 21.1.0, SVG Export Plug-In . SVG Version: 6.00 Build 0)  -->
<svg version="1.1" id="Layer_2" xmlns="http://www.w3.org/2000/svg" xmlns:xlink="http://www.w3.org/1999/xlink" x="0px" y="0px"
	 viewBox="0 0 550 512" style="enable-background:new 0 0 550 512;" xml:space="preserve">
<g>
	<g>
		<path d="M267.4,139.1H136.6v32.5h130.7V139.1z M489.2,139.1H307v175.6h182.1V139.1z M456.6,282.2H339.5V171.7h117.2V282.2z
			 M78.8,43l-0.1,169H0v205.7c0,28.5,22.6,51.4,51.4,51.4h467c20.3,0,31.6-16.9,31.6-37.8L550,43.1L78.8,43z M78.6,410.7
			c0,15.6-12.5,27.9-27.5,27.9s-27.6-12.2-27.6-27.9s0-169.6,0-169.6h55.1C78.6,241.1,78.6,395.1,78.6,410.7z M518,424.6
			c0,7.1-4.7,12.5-11.7,12.5H103c8-12.3,7.5-27.2,7.5-27.2V75H518V424.6z M267.4,283.1H136.6v32.5h130.7V283.1z M267.4,211.1H136.6
			v32.5h130.7V211.1z M489.2,355.1H136.6v32.5h352.5V355.1z"/>
	</g>
</g>
</svg>
