<?xml version="1.0" encoding="utf-8"?>
<!-- Generator: Adobe Illustrator 21.1.0, SVG Export Plug-In . SVG Version: 6.00 Build 0)  -->
<svg version="1.1" id="Layer_1" focusable="false" xmlns="http://www.w3.org/2000/svg" xmlns:xlink="http://www.w3.org/1999/xlink"
	 x="0px" y="0px" viewBox="0 0 448 512" style="enable-background:new 0 0 448 512;" xml:space="preserve">
<path d="M448,0l-75.1,112H435c7.2,0,13,5.8,13,13v22.5c0,7.2-5.8,13-13,13h-94.6l-128,191H435c7.2,0,13,5.8,13,13V387
	c0,7.2-5.8,13-13,13H179.8l-75,112H56.3l75-112H13c-7.2,0-13-5.8-13-13v-22.5c0-7.2,5.8-13,13-13h150.8l128-191H13
	c-7.2,0-13-5.8-13-13V125c0-7.2,5.8-13,13-13h311.4L399.5,0L448,0L448,0z"/>
</svg>
