<?xml version="1.0" encoding="utf-8"?>
<!-- Generator: Adobe Illustrator 21.1.0, SVG Export Plug-In . SVG Version: 6.00 Build 0)  -->
<svg version="1.1" id="Layer_1" xmlns="http://www.w3.org/2000/svg" xmlns:xlink="http://www.w3.org/1999/xlink" x="0px" y="0px"
	 viewBox="0 0 482 512" style="enable-background:new 0 0 482 512;" xml:space="preserve">
<g>
	<path d="M405.9,496.6c16.5,0,31.1,5.5,42.9,9.9c7.5,2.8,14.6,5.5,18.9,5.5c6.2,0,11.1-1.3,14.3-2.6v-34.9c-4.5,1-9.6,1.7-15.4,1.7
		c-9,0-17.7-3.6-26.9-7.4c-9.5-3.9-19.3-8-29.1-8c-5.4,0-12.5,3-20.1,6.2c-10.3,4.3-21.9,9.2-34.8,9.2c-11.7,0-22.6-4.2-33.2-8.3
		c-9.3-3.6-18.1-7-26-7c-6.8,0-14.8,3.2-23.3,6.7c-10.1,4.1-21.6,8.7-33.8,8.7c-11.6,0-22.8-4.4-33.7-8.6
		c-8.4-3.3-17.1-6.7-23.4-6.7c-7.7,0-15.6,3.3-24,6.9c-9.9,4.2-20.1,8.5-32,8.5c-13.6,0-25.9-4.8-36.8-9.1
		c-8.2-3.2-15.9-6.2-21.9-6.2c-7.5,0-14.5,3.6-21.8,7.3c-7.6,3.9-15.5,8-24.7,8c-7.9,0-15.1-1.1-21.2-2.5v35.1
		c4.3,1.6,10.5,3.2,17.5,3.2c3.2,0,8.8-2.6,14.3-5.1c9.7-4.5,21.9-10.2,37-10.2c10.9,0,21.2,4.1,31.2,8.1c9.3,3.7,18.1,7.2,26.4,7.2
		c6.4,0,14.2-3.2,22.5-6.5c10.3-4.1,22-8.8,34.6-8.8c11.6,0,22.1,4.4,32.2,8.6c8.3,3.5,16.1,6.7,22.7,6.7c7.1,0,15.2-3.3,23.9-6.8
		c10.5-4.2,21.3-8.6,33.2-8.6c12.8,0,24.7,4.7,35.3,8.8c8.6,3.4,16.7,6.5,23.4,6.5c6.8,0,14.4-3.4,22.4-7
		C385.8,500.9,395.4,496.6,405.9,496.6z"/>
	<path d="M405.9,370.4c16.5,0,31.1,5.5,42.9,9.9c7.5,2.8,14.6,5.4,19,5.4c6.2,0,11.1-1.3,14.3-2.6v-34.9c-4.5,1-9.6,1.7-15.4,1.7
		c-9,0-17.7-3.6-26.9-7.4c-9.1-3.8-18.5-7.6-28-7.9c-0.6,0.1-1.3,0.3-1.8,0.4c-3.8,0.9-6.6,1.5-9.1,1.5c-0.1,0-0.2,0-0.3,0
		c-12,0-43.7-15.3-62.2-25.7c-24.7-13.8-58.9-36.4-81.9-65.2c-22.5-28.1-29.4-56.2-20.8-83.4c9.1-28.4,47.5-31.5,76.6-26
		c1.8,0.3,3.7,0.8,5.5,1.2c-80.8-49.8-134.2-4.8-139.7,39.1c-3.1,25-9.9,75,96,143.4c1.5,1,2.5,1.6,3.4,2.2
		c5.9,4.4,6.3,10.3,4.7,14.4c-0.6,1.5-2.8,4.2-14.4,7.9c-1.2,0.4-28.4,2.1-45.5-4.6c-54-21.3-129.6-70-146.3-156.3
		C66.1,133,91.1,77.8,125.6,58.1c70.7-40.6,150.3-13.9,198.7,10.5c-6.7-7.8-14.8-16.2-24.5-24.3C273.3,22.2,228.5-2.9,165.6,2.8
		c-43.3,3.9-84.1,22-113,59.5c-30.3,39.3-65.3,160.6,38.4,260.2l44.6,35.3l-57.9-15.3c-8.9-3.7-25-4.1-31.9-0.5
		c-7.6,3.9-15.5,8-24.7,8c-7.9,0-15.1-1.1-21.2-2.5v40.1c4.3,1.6,10.5,3.2,17.5,3.2c3.2,0,8.8-2.6,14.3-5.1
		c9.7-4.5,21.9-10.2,37-10.2c10.9,0,49.3,15.6,57.6,16.3c26.8,2.5,54.5-7.9,67.1-7.9c11.6,0,32.8,6.3,45.2,6
		c16.2-0.4,53.6-16.7,65.5-16.1c27.9,1.3,35.2,11.8,49.9,12.1C375,386.2,395.4,370.4,405.9,370.4z"/>
</g>
</svg>
