<?xml version="1.0" encoding="utf-8"?>
<!-- Generator: Adobe Illustrator 21.1.0, SVG Export Plug-In . SVG Version: 6.00 Build 0)  -->
<svg version="1.1" id="Layer_1" xmlns="http://www.w3.org/2000/svg" xmlns:xlink="http://www.w3.org/1999/xlink" x="0px" y="0px"
	 viewBox="0 0 462.4 512" style="enable-background:new 0 0 462.4 512;" xml:space="preserve">
<path d="M231.2,32c6.8,0,13.5,1.8,19.4,5.2L411,129.8c11.9,6.9,19.4,19.8,19.4,33.5v185.3c0,13.8-7.4,26.7-19.4,33.5l-160.4,92.6
	c-5.9,3.4-12.6,5.2-19.4,5.2c-6.8,0-13.5-1.8-19.4-5.2L51.4,382.2C39.4,375.3,32,362.4,32,348.6V163.4c0-13.8,7.4-26.7,19.4-33.5
	l160.4-92.6C217.7,33.8,224.4,32,231.2,32 M231.2,0c-12.2,0-24.4,3.2-35.4,9.5L35.4,102.1C13.5,114.7,0,138.1,0,163.4v185.3
	c0,25.3,13.5,48.6,35.4,61.3l160.4,92.6c10.9,6.3,23.2,9.5,35.4,9.5c12.2,0,24.4-3.2,35.4-9.5L427,409.9
	c21.9-12.6,35.4-36,35.4-61.3V163.4c0-25.3-13.5-48.6-35.4-61.3L266.5,9.5C255.6,3.2,243.4,0,231.2,0L231.2,0z"/>
</svg>
