<?xml version="1.0" encoding="utf-8"?>
<!-- Generator: Adobe Illustrator 21.1.0, SVG Export Plug-In . SVG Version: 6.00 Build 0)  -->
<svg version="1.1" id="Layer_1" xmlns="http://www.w3.org/2000/svg" xmlns:xlink="http://www.w3.org/1999/xlink" x="0px" y="0px"
	 viewBox="0 0 512 512" style="enable-background:new 0 0 512 512;" xml:space="preserve">
<path id="_x33_2" d="M410.7,460H512v52H320v-51.7c0.3-0.1,0.6-0.2,0.8-0.3C407.3,432.5,470,351.6,470,256c0-118.2-95.8-214-214-214
	S42,137.8,42,256c0,95.6,62.7,176.5,149.2,204c0.3,0.1,0.5,0.2,0.8,0.3V512H0v-52h101.3C39.8,413.3,0,339.3,0,256
	C0,114.6,114.6,0,256,0s256,114.6,256,256C512,339.3,472.2,413.3,410.7,460z"/>
</svg>
