<?xml version="1.0" encoding="utf-8"?>
<!-- Generator: Adobe Illustrator 21.1.0, SVG Export Plug-In . SVG Version: 6.00 Build 0)  -->
<svg version="1.1" id="Layer_8" xmlns="http://www.w3.org/2000/svg" xmlns:xlink="http://www.w3.org/1999/xlink" x="0px" y="0px"
	 viewBox="0 0 422.6 512" style="enable-background:new 0 0 422.6 512;" xml:space="preserve">
<path id="_x33_2_1_" d="M380.2,173.5l0.4,0.2l31.7-61.8l-20.2-11.2c20.8-18.1,25.9-49,10.9-73.1C386.4,0.9,351.2-7.3,324.5,9.4
	c-14.6,9.1-23.6,23.7-26.1,39.5L280.5,39l-28,54.1c-13.4-2.7-27.2-4.1-41.4-4.1C86.5,89,0,192.2,0,300.3C0,423.2,99.9,512,211.1,512
	c116.8,0,211.5-94.7,211.5-211.5C422.6,252.8,406.8,208.9,380.2,173.5z M334.2,24.9c18.1-11.3,42-5.8,53.3,12.4
	c11.3,18.1,5.8,42-12.4,53.3c-0.2,0.1-0.4,0.3-0.7,0.4L316,58.6C315.7,45.4,322.2,32.4,334.2,24.9z M211.1,480
	c-90.7,0-179.5-73.3-179.5-179.7c0-87.2,70.6-179.5,179.5-179.5c106.8,0,180.3,85.7,180.3,179.7C391.4,397.1,313,480,211.1,480z"/>
</svg>
