<?xml version="1.0" encoding="utf-8"?>
<!-- Generator: Adobe Illustrator 21.1.0, SVG Export Plug-In . SVG Version: 6.00 Build 0)  -->
<svg version="1.1" id="Layer_2" xmlns="http://www.w3.org/2000/svg" xmlns:xlink="http://www.w3.org/1999/xlink" x="0px" y="0px"
	 viewBox="0 0 550 512" style="enable-background:new 0 0 550 512;" xml:space="preserve">
<g id="_x33_2_2_">
	<path d="M64.1,326.8h16.1l-16-16l7.6-7.6l23.5,23.6h26.9l-17.6-17.6h23.7l-13-13H83.1v-10.7h22.5L89,269l8.6-8.5h-1.1l17.2,17.1
		v-23.2h10.7v33l13.7,13.5v-24l16.8,16.6v-25.7l-23.5-23.4l7.6-7.5l15.9,15.9v-15.9h13v15.1l15.2-15.1l7.5,7.5l-22.6,22.6v27.3
		l17.6-17.5v24.6l15.3-15.6v-32.9h10.7v22.7l14.6-14.6l0,0l8.7,8.6l-14.6,14.6h22.7v10.7h-32.4L195.1,310h23.7L202,326.8h25.4
		l23-22.9l7.4,7.4l-15.6,15.5h15.6v13h-15.4l15.4,15.3l0.2,0.2l-7.5,7.5l-23-23h-26.4l17.6,17.6h-24.6l15.3,15.3h32.6v10.7h-22
		l14.3,14.6v0.1l-8.5,8.6L211.4,392v22.6h-10.7v-33L185.5,366l-0.1,24l-17.5-17.3v26.9l22.5,22.6l-7.6,7.5l-15-15.1v15.2h-13V414
		l-15.9,15.9l0,0l0,0l-7.5-7.5l23.4-23.4v-25.5l-16.8,16.8v-24.4l-13.7,13.5v32.9h-9.9v-22.6l-16.7,16.7l-8.6-8.6l-0.1-0.1
		l16.7-16.7H83.1v-10.7h33.3l13.7-13.7h-25.2l17.6-17.6H94.9l-23.3,23.3l-7.6-7.6L79.8,339H64.1V326.8z M183.2,346.6h9.8l-6.9-6.9
		h-9.8L183.2,346.6z M186.1,327.6l6.9-6.9h-9.9l-6.9,6.9H186.1z M167.9,357.8l6.9,6.9v-9.8l-6.9-6.9V357.8z M167.9,318.7l6.9-6.9
		v-9.7l-6.9,6.9V318.7z M148.8,364.7l6.1-6.1v-9.6l-6.1,6.1V364.7z M148.8,311.8l6.1,6.1v-9.7l-6.1-6.1V311.8z M140.2,345.9l6.9-6.9
		h-9.9l-6.9,6.9H140.2z M136.9,326.8h9.8l-6.9-6.9h-9.8L136.9,326.8z"/>
	<path d="M485.9,239.4h-16.1l16-16l-7.6-7.6l-23.5,23.6h-26.9l17.6-17.6h-23.7l13-13h32.2v-10.7h-22.5l16.6-16.6l-8.6-8.5h1.1
		l-17.2,17.1v-23.2h-10.7v33l-13.7,13.5v-24l-16.8,16.6v-25.7l23.5-23.4l-7.6-7.5l-15.9,15.9v-15.9h-13v15.1L367,149.3l-7.5,7.5
		l22.6,22.6v27.3l-17.6-17.5v24.6l-15.3-15.6v-32.9h-10.7V188L324,173.4l0,0l-8.7,8.6l14.6,14.6h-22.7v10.7h32.4l15.3,15.3h-23.7
		l16.8,16.8h-25.4l-23-22.9l-7.4,7.4l15.6,15.5h-15.6v13h15.4l-15.4,15.3l-0.2,0.2l7.5,7.5l23-23h26.4l-17.6,17.6h24.6l-15.3,15.3
		h-32.6v10.7h22l-14.3,14.6v0.1l8.5,8.6l14.4-14.6v22.6h10.7v-33l15.3-15.6l0.1,24l17.5-17.3v26.9l-22.5,22.6l7.6,7.5l15-15.1v15.2
		h13v-15.9l15.9,15.9l0,0l0,0l7.5-7.5l-23.4-23.4v-25.5l16.8,16.8v-24.4l13.7,13.5v32.9h9.9v-22.6l16.7,16.7l8.6-8.6l0.1-0.1
		l-16.7-16.7h22.7v-10.7h-33.3l-13.7-13.7h25.2l-17.6-17.6h27.6l23.3,23.3l7.6-7.6l-15.8-15.7h15.7V239.4z M366.8,259.2h-9.8
		l6.9-6.9h9.8L366.8,259.2z M363.9,240.1l-6.9-6.9h9.9l6.9,6.9H363.9z M382.1,270.3l-6.9,6.9v-9.8l6.9-6.9V270.3z M382.1,231.3
		l-6.9-6.9v-9.7l6.9,6.9V231.3z M401.2,277.2l-6.1-6.1v-9.6l6.1,6.1V277.2z M401.2,224.4l-6.1,6.1v-9.7l6.1-6.1V224.4z M409.8,258.4
		l-6.9-6.9h9.9l6.9,6.9H409.8z M413.1,239.4h-9.8l6.9-6.9h9.8L413.1,239.4z"/>
	<path id="_x33_2" d="M517.6,148.4l0.3,0.2l24.2-47.2l-15.4-8.6c15.9-13.8,19.8-37.4,8.3-55.8c-12.7-20.4-39.5-26.6-59.9-13.9
		c-11.1,7-18,18.1-19.9,30.2l-13.7-7.6L420.2,87c-10.2-2.1-20.8-3.1-31.6-3.1c-73.4,0-129.4,46.9-151.2,106.3
		c-22.1-11.9-47.8-18.8-76-18.8c-10.8,0-21.4,1.1-31.6,3.1l-21.4-41.3l-13.7,7.5c-1.9-12-8.8-23.2-19.9-30.1
		c-20.4-12.7-47.2-6.5-59.9,13.9c-11.4,18.4-7.6,42,8.3,55.8l-15.4,8.5L32.1,236l0.3-0.2C12.1,262.9,0,296.4,0,332.8
		c0,89.1,72.3,161.4,161.4,161.4c66.8,0,128.3-41.5,151.6-106.3c22.9,12.2,48.8,18.9,75.6,18.9c89.1,0,161.4-72.3,161.4-161.4
		C550,208.9,537.9,175.4,517.6,148.4z M482.5,35c13.8-8.6,32.1-4.4,40.7,9.5c8.6,13.8,4.4,32.1-9.5,40.7c-0.2,0.1-0.3,0.2-0.5,0.3
		l-44.6-24.7C468.4,50.7,473.4,40.7,482.5,35z M26.8,131.9c8.6-13.9,26.9-18.1,40.7-9.5c9.2,5.7,14.1,15.6,13.9,25.7l-44.6,24.7
		c-0.2-0.1-0.4-0.2-0.5-0.3C22.4,164,18.2,145.7,26.8,131.9z M161.4,469.8c-77.8,0-137.6-63.3-137.6-137
		c0-71.7,56.1-137.1,137.6-137.1c26.2,0,49.5,7,69.2,18.7c-2,10.1-3.1,20.4-3.1,30.8c0,54.7,25.9,100.6,64.4,129.3
		C273.3,432.2,218.6,469.8,161.4,469.8z M388.6,382.3c-69.2,0-137-55.9-137-137.2c0-66.6,53.8-137,137-137
		c81.5,0,137.6,65.4,137.6,137.1C526.2,319,466.4,382.3,388.6,382.3z"/>
</g>
</svg>
