<?xml version="1.0" encoding="utf-8"?>
<!-- Generator: Adobe Illustrator 21.1.0, SVG Export Plug-In . SVG Version: 6.00 Build 0)  -->
<svg version="1.1" id="Layer_1" xmlns="http://www.w3.org/2000/svg" xmlns:xlink="http://www.w3.org/1999/xlink" x="0px" y="0px"
	 viewBox="0 0 484 512" style="enable-background:new 0 0 484 512;" xml:space="preserve">
<path d="M473.3,156.1c-1.4-44.9-34.5-82.3-78.6-89h-10.3c-2.5-38.3-14.2-67-55.1-67H57C9.8,0.1,1.4,38.4,1.4,85.7
	c0,47.2,8.3,85.6,55.6,85.6h2v29c0,5,4.5,9,10,9s10-4,10-9v-29h10v2c0,5,4.4,9,10,9s10-4,10-9v-2h10v20c0,5,4.4,9,10,9
	c5.6,0,10-4,10-9v-20h8c2.4,3,3.8,6.8,3.8,10.9v9.3c0,2,0.9,4.1,2.3,5.5c1.8,1.8,4.1,2.6,6.4,2.3c4.1-0.3,7.6-4.1,7.6-8.8v-13.9
	c0-1.9,0.3-3.6,0.8-5.3h56.9c0.4,1.3,0.6,2.6,0.6,4c0,3.8,2.3,8.2,7.3,8.2h2.3c2.3,0,4.4-0.9,5.8-2.3c1.5-1.5,2.3-3.5,2.3-5.5
	c0-1.5,0.3-3,0.6-4.3h47.4c0.5,1.6,0.7,3.3,0.7,5v1.2c0,3.2,2.9,6.1,6.1,6.1c3.5,0,6.1-2.6,6.1-6.1v-0.3c0-2.1,0.4-4.1,1-5.9h24
	c40.9,0,52.7-28.8,55.1-67.2h11l0.3,0.1c30.7,6.3,50.6,36.6,44.4,67.5c-5.4,26.5-28.9,45.8-55.8,45.8H247
	c-33.4,0-60.5,27.1-60.5,60.5v24.5H154c-5.8,0-10.5,4.7-10.5,10.5v184.1c0,8.4,6.8,15.2,15.2,15.2l90.7,0.1
	c8.4,0,15.2-6.8,15.2-15.2V313c0-5.8-4.7-10.5-10.5-10.5h-31.5v-25.2c0-13.7,11.1-24.8,24.8-24.8l136.9,0
	C435.1,250.8,475,207.5,473.3,156.1z M326.3,139.3H62c-29.5,0-27.6-24-27.6-53.6c0-29.5-2-53.6,27.6-53.6h264.3
	c29.5,0,26.6,24,26.6,53.6C352.9,115.3,355.9,139.3,326.3,139.3z M229.5,337.5v98.7h-50v-98.7H229.5z"/>
</svg>
