<?xml version="1.0" encoding="utf-8"?>
<!-- Generator: Adobe Illustrator 21.1.0, SVG Export Plug-In . SVG Version: 6.00 Build 0)  -->
<svg version="1.1" id="Layer_1" xmlns="http://www.w3.org/2000/svg" xmlns:xlink="http://www.w3.org/1999/xlink" x="0px" y="0px"
	 viewBox="0 0 512 512" style="enable-background:new 0 0 512 512;" xml:space="preserve">
<g id="_x33_2">
	<g>
		<path d="M462.5,1c-13.2,0-25.6,5.1-34.9,14.4L180,265l-0.2,0.2c-12.5,13.1-19.3,30.3-19.2,48.5c0.1,18.2,7.1,35.3,19.8,48.2
			c12.8,13.1,29.9,20.3,48,20.3c18.5,0,35.7-7.4,48.6-20.9l0.4-0.5L501.6,81l0.2-0.2c15.1-19.6,13.3-47.7-4.2-65.2
			C488.2,6.2,475.8,1,462.5,1L462.5,1z M302.4,282.6L253,233.2L448.4,36.3c3.8-3.7,8.8-5.8,14.1-5.8c5.4,0,10.4,2.1,14.2,5.9
			c7.1,7.1,7.8,18.4,1.8,26.3L302.4,282.6L302.4,282.6z M228.5,352.7c-10.2,0-19.8-4.1-27-11.5c-14.9-15.2-15.1-40.1-0.4-55.6
			l29.4-29.7l51.8,51.8l-26.8,33.5C248.2,348.6,238.6,352.7,228.5,352.7L228.5,352.7z"/>
	</g>
	<path d="M120.8,387.4c21.1,0,38.2,17.8,38.2,39.6c0,32.8-30.8,53-52.9,53c-11.8,0-22.9-0.9-33.2-2.4c6-13.3,9.7-30,9.7-50.5
		C82.6,405.2,99.7,387.4,120.8,387.4 M120.8,355.4c-38.7,0-70.2,32.2-70.2,71.6c0,58.8-35.7,63.5-47.1,63.5c-2.2,0-3.5-0.2-3.5-0.2
		S45.7,512,106.1,512c38.7,0,84.9-33.3,84.9-85C191,387.6,159.6,355.4,120.8,355.4L120.8,355.4z"/>
</g>
</svg>
