<?xml version="1.0" encoding="utf-8"?>
<!-- Generator: Adobe Illustrator 21.1.0, SVG Export Plug-In . SVG Version: 6.00 Build 0)  -->
<svg version="1.1" id="Layer_1" xmlns="http://www.w3.org/2000/svg" xmlns:xlink="http://www.w3.org/1999/xlink" x="0px" y="0px"
	 viewBox="0 0 322.1 512" style="enable-background:new 0 0 322.1 512;" xml:space="preserve">
<path d="M321.7,122c0-10.3-8.3-18.6-18.6-18.5c-10.2,0-18.6,8.3-18.5,18.6c0,57,0.3,225.4,0.3,228.8
	c0.1,68.1-55.3,123.7-123.4,123.8c-65.6-2.4-123.8-48.9-123.8-123.5c0-0.4-0.4-235-0.4-237.5c0-42.2,34-76.3,75.9-76.4
	c63.5,2.2,76.4,55.7,76.4,76.1c0,1.3,0.2,235.1,0.2,237.6l0,0.1c-1.2,19-15.5,27.6-28.8,28.8c-14.7,1.2-28.3-12.4-28.8-28.9
	c0-1.5-0.3-118-0.3-164.2c0-10.2-8.3-18.5-18.6-18.5c-10.2-0.1-18.6,8.2-18.6,18.6c0.1,46.4,0.3,163.5,0.3,164.2
	c1,37,29.5,66.1,66.2,65.9c27.5-0.5,65.9-20.8,65.9-66.2c0-2.1-0.4-230-0.3-237.6C226.9,79.3,203.7,4.1,113.4,0
	C18.9,4.6-0.1,83.2,0,113.7c0,1.8,0.2,230.9,0.4,237.5C6,473.5,100.2,508.6,161.5,512c63.9,1.6,161.5-52.4,160.6-161.1
	C322,349.5,321.8,179.3,321.7,122z"/>
</svg>
