<?xml version="1.0" encoding="utf-8"?>
<!-- Generator: Adobe Illustrator 21.1.0, SVG Export Plug-In . SVG Version: 6.00 Build 0)  -->
<svg version="1.1" id="Layer_1" xmlns="http://www.w3.org/2000/svg" xmlns:xlink="http://www.w3.org/1999/xlink" x="0px" y="0px"
	 viewBox="0 0 488.5 512" style="enable-background:new 0 0 488.5 512;" xml:space="preserve">
<path d="M151.2,422.6L151.2,422.6c-3.8-6.3-132-228.6-133-230.3C1.1,162.7-24.4,75.8,64.7,18.6c89.9-46.5,154.5,13.6,173.4,46.5
	c4.2,7.4,131.8,228.4,133,230.4c25.3,44-0.6,85.1-27,101c-35.6,20.7-79.5,8.4-101.1-27c-0.4-0.7-66-114.2-92-159.2
	c-5.8-10-2.3-22.8,7.7-28.4l0,0c10-5.7,22.7-2.3,28.4,7.6c25.8,44.8,91.2,157.7,92,159.2c9.7,15.7,30.5,21.3,44.1,11.9
	c12.3-8.6,21.4-24.9,11.9-44l-0.1-0.1C333.6,314,202.8,87.3,202.1,86c-11.4-19.8-53.8-64.5-116.7-31.2
	c-40.6,23.5-54.6,75.7-31,116.6l0,0c1.4,2.4,132.8,229.9,133,230.3c41.6,72.4,124.1,85,189.1,50.7c66-38.2,88.7-123.1,50.6-189.1
	C425.2,260,330.8,96.7,299,41.4c-5.8-10-2.3-22.7,7.6-28.4l0,0c10-5.8,22.7-2.4,28.4,7.6c32.1,55.6,127.4,220.7,128.2,221.9
	c61.6,105-3,212-65.9,246.1C336,519.5,224.9,538.1,151.2,422.6z"/>
</svg>
