<?xml version="1.0" encoding="utf-8"?>
<!-- Generator: Adobe Illustrator 21.1.0, SVG Export Plug-In . SVG Version: 6.00 Build 0)  -->
<svg version="1.1" id="Layer_2" xmlns="http://www.w3.org/2000/svg" xmlns:xlink="http://www.w3.org/1999/xlink" x="0px" y="0px"
	 viewBox="0 0 418.3 512" style="enable-background:new 0 0 418.3 512;" xml:space="preserve">
<g>
	<path d="M186,386.2h-57.9v30.7l57.9-0.3V386.2L186,386.2z M286,421.9h-94.6V512l94.7-0.2L286,421.9L286,421.9z M186,421.9h-53.8
		l-0.1,89.9L186,512V421.9L186,421.9z"/>
	<path d="M208.7,32C259,32,304.9,47.2,338,74.7c30.8,25.5,47.9,59.5,48.2,95.6c0,5.2-0.5,10.7-1.6,16.4c-6.9-2-14.8-3.4-26.2-3.4
		c-33.3,0-64.5,10.3-88.4,28.7c-14.1-9.2-36.3-20.4-61.3-20.4c-17.2,0-43.3,5.3-63.3,18.5c-17-13.6-43.3-28-78.6-28
		c-11,0-22.3,1.4-33.6,4.3c-0.9-5.3-1.3-10.7-1.3-16.3c0-36.2,16.9-70.2,47.5-95.7C112.5,47.1,158.4,32,208.7,32 M208.7,0
		C88,0,0,76.2,0,170.2c0,17.1,3.1,34.1,10.2,50.6l3.1,6.1l168.8,147l14.6,12.3h-5.3v30.7l98.7-0.3v-30.4h-68.5l13.9-11.7
		l168.7-147.6l3.9-6.1c6.3-16.5,10.2-33.6,10.2-50.6C417.5,76.8,329.5,0,208.7,0L208.7,0z M186.8,362.3L26.7,222
		c14.7-5.6,28.1-7.9,40.2-7.9c32.6,0,55.8,16.6,68.9,30.4L186.8,362.3L186.8,362.3z M226,365.9L276.2,250l1.6-1.8
		c18.8-20.7,48.6-32.9,80.8-32.9c14.1,0,18.2,2.4,31.6,7.3L226,365.9L226,365.9z M207.2,374.5l-54.9-126.9c8.3-14.2,36.1-24,56.4-24
		c19.6,0,40.7,11.4,54.1,22.8L207.2,374.5L207.2,374.5z"/>
</g>
</svg>
