<?xml version="1.0" encoding="utf-8"?>
<!-- Generator: Adobe Illustrator 21.1.0, SVG Export Plug-In . SVG Version: 6.00 Build 0)  -->
<svg version="1.1" id="Layer_2" xmlns="http://www.w3.org/2000/svg" xmlns:xlink="http://www.w3.org/1999/xlink" x="0px" y="0px"
	 viewBox="0 0 450.3 512" style="enable-background:new 0 0 450.3 512;" xml:space="preserve">
<path id="_x33_2" d="M184.8,31.5c-13.1,0-25.8,1.5-38.1,4.3c-0.1,0-0.2,0.1-0.3,0.1C70.8,52.5,14.2,119.7,14.2,200
	c0,92.8,75.4,168,168.5,168c4.4,0,18.4-0.5,18.5-0.5v102.5c0,6,4.9,10.9,10.9,10.9h10.4c6,0,10.9-4.9,10.9-10.9V63.5h98.7v406.6
	c0,6,4.9,10.9,10.9,10.9h10.4c6,0,10.9-4.9,10.9-10.9V63.5h56.5c6,0,10.9-4.9,10.9-10.9V42.4c0-6-4.9-10.9-10.9-10.9H184.8z
	 M201.1,336c-0.1,0-0.1,0-0.2,0c-3.7,0.3-7.4,0.4-11.1,0.4C110.4,336.4,46,275.3,46,199.9c0-65.3,48.2-119.8,112.7-133.3
	c0.1,0,0.2,0,0.3-0.1c10.4-2.3,21.3-3.5,32.5-3.5h9.7L201.1,336z"/>
</svg>
