<?xml version="1.0" encoding="utf-8"?>
<!-- Generator: Adobe Illustrator 21.1.0, SVG Export Plug-In . SVG Version: 6.00 Build 0)  -->
<svg version="1.1" id="Layer_2" xmlns="http://www.w3.org/2000/svg" xmlns:xlink="http://www.w3.org/1999/xlink" x="0px" y="0px"
	 viewBox="0 0 418.3 512" style="enable-background:new 0 0 418.3 512;" xml:space="preserve">
<path d="M208.8,0C88.1,0,0.1,76.2,0.1,170.2c0,17.1,3.1,34.1,10.2,50.6l3.1,6.1l168.7,147l15,12.6h-68.8v36.9h4.5l-0.1,88.6H286
	l-0.1-88.6h4.2v-36.9h-68.8l14.2-12l168.7-147.6l3.9-6.1c6.3-16.5,10.2-33.6,10.2-50.6C417.5,76.8,329.5,0,208.8,0z M338.1,74.7
	c30.7,25.5,47.9,59.5,48.2,95.6c0,5.2-0.5,10.7-1.6,16.4c-6.9-2-14.8-3.4-26.2-3.4c-6.8,0-13.5,0.4-20,1.3
	c-0.3-42.5-13.6-82.5-37.5-112.7c-11.5-14.5-24.8-25.9-39.3-33.9C290.8,44.7,317,57.2,338.1,74.7z M206.4,32L203,191.8
	c-16.9,1-39.6,6.5-57.5,18.3c-11.7-9.3-27.8-19.1-48.2-24.3c0.6-77.2,43.4-143.9,98.5-153.5C199.3,32.2,202.8,32,206.4,32z
	 M224,32.5c55.1,10.2,97.8,77.4,97.8,155v0.1c-19.2,4.6-36.8,12.9-51.7,24.3c-12.9-8.4-32.6-18.5-55-20.2L211.7,32
	C215.8,32.1,219.9,32.2,224,32.5z M79.6,74.5c21.3-17.7,48-30.3,77.8-36.9c-14.8,8.1-28.3,19.6-40,34.3
	c-23.6,29.8-36.9,69-37.5,110.9c-4.2-0.4-8.5-0.7-12.9-0.7c-11,0-22.3,1.4-33.6,4.3c-0.9-5.3-1.3-10.7-1.3-16.3
	C32.1,133.9,48.9,99.9,79.6,74.5z M26.7,222c14.7-5.6,28.1-7.9,40.2-7.9c32.6,0,55.8,16.6,68.9,30.4l50.9,117.7L26.7,222z
	 M138.9,401h6.4v7.6h-6.4V401z M149.4,499.1H143v-75.6h6.4V499.1z M186.2,499.1h-12v-75.6h12V499.1z M186.2,408.6h-16.1v-7.6h16.1
	V408.6z M191.4,499.1v-75.6h32.4l0,75.6H191.4z M252.7,401.1h24v7.6h-24V401.1z M248.7,423.5h24.1v75.6h-24.1V423.5z M227.9,401.1
	v7.6h-36.5v-7.6H227.9z M207.2,374.5l-54.9-126.9c8.3-14.2,36.1-24,56.4-24c19.6,0,40.7,11.4,54.1,22.8L207.2,374.5z M226,365.9
	L276.2,250l1.6-1.8c18.8-20.7,48.6-32.9,80.7-32.9c14.1,0,18.2,2.4,31.6,7.3L226,365.9z"/>
</svg>
