<?xml version="1.0" encoding="utf-8"?>
<!-- Generator: Adobe Illustrator 21.1.0, SVG Export Plug-In . SVG Version: 6.00 Build 0)  -->
<svg version="1.1" id="Layer_3" xmlns="http://www.w3.org/2000/svg" xmlns:xlink="http://www.w3.org/1999/xlink" x="0px" y="0px"
	 viewBox="0 0 460.5 512" style="enable-background:new 0 0 460.5 512;" xml:space="preserve">
<path d="M440.5,324c0-10.5-8.5-19-19-19H342l-44.8-100.8c7.8-12.2,12.3-26.7,12.3-42.3c0-38.2-27-70-63-77.4V0h-32v84.6
	c-36,7.4-63,39.2-63,77.4c0,15.6,4.5,30.2,12.4,42.4L122.7,305H39.5c-10.5,0-19,8.5-19,19s8.5,19,19,19h67.7L47.7,488.2l6.5,2.7
	l-6.1,14.8c-0.8,2,0.1,4.4,2.2,5.2c2,0.8,4.4-0.1,5.2-2.2l6.1-14.8l4.7,1.9l21.2-20.5L141.7,343h73.8v4c0,6.6,5.4,12,12,12
	s12-5.4,12-12v-4h84.4l59,132.8l21.8,19.9l4.7-2.1l6.5,14.6c0.9,2,3.3,2.9,5.3,2c2-0.9,2.9-3.3,2-5.3l-6.5-14.6l6.4-2.8L358.9,343
	h62.6C432,343,440.5,334.5,440.5,324z M230.5,115c26,0,47,21,47,47s-21,47-47,47s-47-21-47-47S204.5,115,230.5,115z M239.5,305v-3
	c0-6.6-5.4-12-12-12s-12,5.4-12,12v3h-58.2l31.2-76.1c12.2,7.7,26.6,12.1,42,12.1c15.7,0,30.3-4.6,42.5-12.4l34,76.4H239.5z"/>
</svg>
