<?xml version="1.0" encoding="utf-8"?>
<!-- Generator: Adobe Illustrator 21.1.0, SVG Export Plug-In . SVG Version: 6.00 Build 0)  -->
<svg version="1.1" id="Layer_1" xmlns="http://www.w3.org/2000/svg" xmlns:xlink="http://www.w3.org/1999/xlink" x="0px" y="0px"
	 viewBox="0 0 339.2 512" style="enable-background:new 0 0 339.2 512;" xml:space="preserve">
<g id="_x33_2">
	<g>
		<path d="M169.7,147.3l-0.3,0c-46.3,0.2-84,38.1-84,84.5c0,46.4,37.6,84.3,84,84.5l0.3,0c46.5,0,84.3-37.9,84.3-84.5
			S216.2,147.3,169.7,147.3L169.7,147.3z M164,189.7c-6-0.3-12-1.1-17.9-2.4c4.6-13.3,11.2-23.1,17.9-26.8V189.7L164,189.7z
			 M175.5,189.7v-29.1c6.7,3.8,13.2,13.5,17.7,26.7C187.4,188.6,181.5,189.4,175.5,189.7L175.5,189.7z M204.4,184.3
			c-2.8-8.3-6.2-15.4-10.2-21.2c9.2,3.3,17.7,8.5,24.9,15.2C214.4,180.7,209.4,182.7,204.4,184.3L204.4,184.3z M134.9,184.3
			c-5-1.6-9.8-3.6-14.5-6c7.1-6.6,15.5-11.8,24.6-15.1C141,169,137.6,176.1,134.9,184.3L134.9,184.3z M211.5,226
			c-0.4-10.7-1.7-20.9-3.9-30.6c6.8-2.2,13.4-5,19.7-8.3c8.8,11.3,13.9,24.6,15,38.9H211.5L211.5,226z M97.2,226
			c1.1-14.2,6.3-27.6,15-38.9c6.3,3.3,12.8,6.1,19.5,8.3c-2.3,9.6-3.6,19.9-3.9,30.6H97.2L97.2,226z M139.4,226
			c0.3-9.8,1.5-19,3.5-27.6c6.9,1.5,14,2.5,21.1,2.8V226H139.4L139.4,226z M175.5,226v-24.7c7-0.3,14-1.3,20.9-2.8
			c2,8.5,3.2,17.8,3.5,27.5H175.5L175.5,226z M227.2,276.5c-6.3-3.4-12.9-6.2-19.7-8.3c2.2-9.6,3.5-19.9,3.9-30.5h30.8
			C241.1,251.8,236,265.2,227.2,276.5L227.2,276.5z M196.4,265.1c-6.8-1.5-13.9-2.4-20.9-2.8v-24.7h24.4
			C199.5,247.3,198.4,256.6,196.4,265.1L196.4,265.1z M142.9,265.1c-2-8.5-3.1-17.8-3.5-27.5H164v24.7
			C156.8,262.6,149.8,263.6,142.9,265.1L142.9,265.1z M112.3,276.5c-8.8-11.3-13.9-24.6-15-38.9h30.6c0.3,10.7,1.7,21,3.9,30.6
			C125,270.4,118.5,273.1,112.3,276.5L112.3,276.5z M175.5,303v-29.1c6,0.3,11.9,1.1,17.7,2.4C188.7,289.4,182.2,299.2,175.5,303
			L175.5,303z M164,303.1c-6.7-3.7-13.3-13.5-17.9-26.9c5.9-1.3,11.9-2.1,17.9-2.4V303.1L164,303.1z M194.2,300.5
			c4-5.8,7.4-13,10.2-21.2c5,1.7,10,3.7,14.7,6C211.9,292,203.4,297.2,194.2,300.5L194.2,300.5z M145,300.4
			c-9.1-3.3-17.5-8.4-24.6-15.1c4.7-2.3,9.5-4.3,14.5-6C137.6,287.5,141,294.6,145,300.4L145,300.4z"/>
	</g>
	<g>
		<path d="M307.1,87.1V480H32.4V87.1H307.1 M321.6,55.1H17.9c-9.9,0-17.5,7.6-17.5,17.6v421.8c0,10,7.6,17.6,17.5,17.6h303.7
			c9.9,0,17.5-7.6,17.5-17.6V72.7C339.1,62.7,331.5,55.1,321.6,55.1L321.6,55.1z"/>
	</g>
	<g>
		<path d="M257.3,394.1H82.1c-3.5,0-5.8,2.3-5.8,5.9s2.3,5.9,5.8,5.9h175.2c3.5,0,5.8-2.3,5.8-5.9S260.8,394.1,257.3,394.1
			L257.3,394.1z"/>
	</g>
	<g>
		<path d="M257.3,364.8H82.1c-3.5,0-5.8,2.3-5.8,5.9c0,3.5,2.3,5.9,5.8,5.9h175.2c3.5,0,5.8-2.3,5.8-5.9
			C263.2,367.2,260.8,364.8,257.3,364.8L257.3,364.8z"/>
	</g>
	<g>
		<path d="M262.4,0.5c-0.7,0-1.4,0-2.1,0.1L123.6,28.7c-1.2,0.6-1.2,2.3,0.6,2.3L280.7,17C279.6,7.7,271.9,0.5,262.4,0.5L262.4,0.5z
			"/>
	</g>
	<g>
		<path d="M293.3,28c-0.7,0-1.3,0-2,0.1L149.3,41c-1.8,0-1.2,2.3,0,2.3h160.6C308.8,34.7,301.7,28,293.3,28L293.3,28z"/>
	</g>
</g>
</svg>
