<?xml version="1.0" encoding="utf-8"?>
<!-- Generator: Adobe Illustrator 21.1.0, SVG Export Plug-In . SVG Version: 6.00 Build 0)  -->
<svg version="1.1" id="_x33_2_1_" xmlns="http://www.w3.org/2000/svg" xmlns:xlink="http://www.w3.org/1999/xlink" x="0px" y="0px"
	 viewBox="0 0 512 512" style="enable-background:new 0 0 512 512;" xml:space="preserve">
<g id="_x33_2">
	<path id="XMLID_35_" d="M353.8,108h-21.2V13c0-3.9-1.8-7.6-4.8-10s-7-3.3-10.7-2.5L11.5,88.3h-0.2c-0.8,0.2-1.5,0.4-2.2,0.7
		c-0.1,0.1-0.3,0.1-0.4,0.2c-0.6,0.3-1.1,0.6-1.7,0.9c-0.2,0.1-0.4,0.3-0.6,0.5c-0.4,0.3-0.8,0.6-1.2,1C5,91.8,4.8,92,4.6,92.3
		C4.3,92.7,4,93,3.7,93.4c-0.2,0.3-0.4,0.5-0.5,0.8C3,94.6,2.8,95,2.6,95.4c-0.1,0.3-0.3,0.6-0.4,0.9c-0.2,0.4-0.3,0.9-0.4,1.4
		c-0.1,0.3-0.2,0.6-0.2,0.9c-0.1,0.5-0.1,1.1-0.2,1.6c0,0.2-0.1,0.4-0.1,0.6v398.4c0,7,5.7,12.8,12.8,12.8h339.7
		c7,0,12.8-5.7,12.8-12.8V120.8C366.6,113.8,360.9,108,353.8,108z M299.1,39v69.1H58L299.1,39z M335,479.5H32.8V139.6H335V479.5z"/>
	<path d="M487,182.3l-100-34.9v79.3l34.2,11.9l-5.4,15.4L387,244v218.6l1.9,0.7c15.9,5.5,32.7-1.4,37.6-15.4l59.1-169.5l-42.2-14.7
		l5.4-15.4L491,263l15.8-45.3C511.7,203.6,502.8,187.8,487,182.3z"/>
	<path id="XMLID_21_" d="M180.9,184c-34.8,0-63.2,28.3-63.2,63.2c0,34.8,28.3,63.2,63.2,63.2c34.9,0,63.2-28.3,63.2-63.2
		C244.1,212.3,215.8,184,180.9,184z M180.9,278.4c-17.2,0-31.2-14-31.2-31.2c0-17.2,14-31.2,31.2-31.2c17.2,0,31.2,14,31.2,31.2
		C212.1,264.4,198.1,278.4,180.9,278.4z"/>
	<rect x="82" y="360" width="128" height="21"/>
	<rect x="227" y="360" width="53" height="21"/>
	<rect x="102" y="403" width="158" height="21"/>
</g>
</svg>
