<?xml version="1.0" encoding="utf-8"?>
<!-- Generator: Adobe Illustrator 22.0.1, SVG Export Plug-In . SVG Version: 6.00 Build 0)  -->
<svg version="1.1" id="Layer_1" xmlns="http://www.w3.org/2000/svg" xmlns:xlink="http://www.w3.org/1999/xlink" x="0px" y="0px"
	 viewBox="0 0 512 512" style="enable-background:new 0 0 512 512;" xml:space="preserve">
<g>
	<path d="M311.2,328.4c3,0,5.4-2.4,5.4-5.4c0-3-2.4-5.4-5.4-5.4H193.1c-3,0-5.4,2.4-5.4,5.4c0,3,2.4,5.4,5.4,5.4H311.2z"/>
	<path d="M59.8,313.6c0,0-8.2-5-16.4-5c-4.1,0-8.2,1.3-11.3,5c-1.2,1.4,18.8,100.6,18.8,100.6v19.5h0v78.4h27.8c0,0,0-48.9,0-78.4
		h46.3v78.4h27.8v-78.4h0v-22.2H77.8C74.2,390.4,59.8,313.6,59.8,313.6z"/>
	<path d="M457.5,308.6c-8.2,0-16.4,5-16.4,5s-14.5,76.8-18,97.9h-74.9v13.6v8.6v78.4H376v-78.4h46.3c0,29.5,0,78.4,0,78.4h27.8
		v-97.9c0,0,20-99.2,18.8-100.6C465.8,309.8,461.6,308.6,457.5,308.6z"/>
	<path d="M510,145.8C470.3,61.4,371.6,1.6,256.2,1.6C140.4,1.6,41.5,61.7,2,146.4c-0.6,1.3-1.8,4-1.8,4l0,0C2,150,4,149.8,6,149.8
		c8.3,0,18,3.7,26.5,10.8c10.7,8.8,16.5,20.6,15.9,30.1c2.7-3.1,29.1-32.3,66.9-32.3c39.9,0,72.2,32.6,72.2,32.6
		s19.4-21.9,49.1-29.8v151h31.1V159c35.9,4.6,61.1,31.9,61.1,31.9s29-32.6,71-32.6c42,0,67.1,32.6,67.1,32.6l0.1-0.1
		c-0.7-9.5,5-21.4,15.7-30.3c8.4-7.1,18.1-10.7,26.3-10.7c1,0,2,0.1,2.9,0.2C511.4,148.9,510.5,146.9,510,145.8z M462.2,136
		c-2.1,1.7-4,3.5-5.9,5.4c-17.6-9.9-36.9-15-56.5-15c-23.4,0-47.1,7.4-68.7,21.5c-0.8,0.6-1.7,1.1-2.5,1.6c-0.9-0.6-1.8-1.2-2.7-1.8
		c-21.7-14-45.4-21.4-68.4-21.4c-23.2,0-46.7,7.5-68.1,21.6c-0.9,0.6-1.8,1.2-2.7,1.8c-1.1-0.7-2.3-1.5-3.5-2.2
		c-22.2-13.8-45.7-21.1-68-21.1c-22.2,0-41.2,6.9-56.1,15.3c-1.9-2-4-3.9-6.2-5.7c-1.8-1.5-3.6-2.9-5.5-4.2
		c5.3-7.5,11.3-14.7,17.8-21.6c14.6-15.4,31.8-28.9,51.2-40.1c40.9-23.7,89.2-36.3,139.6-36.3c50.3,0,98.5,12.5,139.3,36.1
		c29.2,16.9,53,38.4,70.3,63.3C464.6,134,463.4,135,462.2,136z"/>
	<path d="M405.1,359.9c7.4,0,13.5-6,13.5-13.5s-6-13.5-13.5-13.5H96.5C89,333,83,339,83,346.5s6,13.5,13.5,13.5h99.3v152.2h32V379.4
		h48.7v133l32-0.3V359.9H405.1z"/>
</g>
</svg>
