<?xml version="1.0" encoding="utf-8"?>
<!-- Generator: Adobe Illustrator 21.1.0, SVG Export Plug-In . SVG Version: 6.00 Build 0)  -->
<svg version="1.1" id="Layer_1" xmlns="http://www.w3.org/2000/svg" xmlns:xlink="http://www.w3.org/1999/xlink" x="0px" y="0px"
	 viewBox="0 0 513.4 512" style="enable-background:new 0 0 513.4 512;" xml:space="preserve">
<path d="M174.6,32c4.5,0,12.3,3.7,20.7,14.2c10.2,12.7,17.6,30.7,20.7,50.5c5.1,31.7-2.4,55.8-10.3,66.8c-2.3,3.2-6,7.2-10.2,7.8
	c-0.5,0.1-0.9,0.1-1.4,0.1c-4.5,0-12.3-3.7-20.7-14.2c-10.2-12.7-17.6-30.7-20.7-50.5c-3.3-20.9-1.5-41.7,5-57
	c4.2-10,10.2-16.8,15.6-17.6C173.7,32,174.2,32,174.6,32 M363.6,40.8c0.9,0,1.7,0.1,2.5,0.3c4.1,1.2,7.2,5.5,9.1,9
	c6.6,11.8,11.1,36.6,2.2,67.6c-5.3,18.4-14.2,34.7-25.1,46.1c-9.4,9.8-17.9,13.3-22.7,13.3c-0.9,0-1.7-0.1-2.5-0.3
	c-4.1-1.2-7.2-5.5-9.1-9c-6.6-11.8-11.1-36.6-2.2-67.5c5.3-18.4,14.2-34.7,25.1-46.1C350.3,44.3,358.8,40.8,363.6,40.8L363.6,40.8
	L363.6,40.8 M51.5,183.3c14,0,35.2,17,46.6,45.4c9.7,24.2,7.9,45,3,56.4c-1.7,4-4.8,9.1-9.6,11.1c-1.5,0.6-3.1,0.9-4.9,0.9
	c-14,0-35.3-17-46.6-45.4c-9.7-24.2-7.9-45-3-56.4c1.7-4,4.8-9.1,9.7-11.1C48.1,183.6,49.7,183.3,51.5,183.3 M462.5,197.9
	c1.9,0,3.7,0.3,5.3,1c4.8,2.1,7.7,7.3,9.4,11.3c4.6,11.5,5.9,32.3-4.4,56.3c-5.9,13.8-14.7,25.9-24.7,34.1
	c-7.8,6.4-16.1,10.1-22.6,10.1c-1.9,0-3.7-0.3-5.3-1c-4.8-2.1-7.7-7.3-9.4-11.3c-4.6-11.5-5.9-32.3,4.4-56.3
	c5.9-13.8,14.7-25.9,24.7-34.1C447.8,201.6,456,197.9,462.5,197.9 M253.3,278.9c0.6,0,1.2,0,1.7,0c3.4,0.2,16.4,2.2,39.2,22.3
	c17.3,15.1,35.8,36.8,52.1,61.2c16.1,24,29.3,49.2,37.2,71c7.3,20.3,8,32.1,7.5,36.8c-5.3,3-9.1,3.4-11.9,3.4
	c-8.9,0-20.7-5.1-33.2-10.4c-18.6-8-39.8-17.1-65.5-17.1c-11.5,0-23,1.9-34.1,5.6c-4.1,1.4-8.8,3-13.8,4.8
	c-24.8,8.8-66.4,23.4-94.5,23.4c-9.8,0-13.9-1.9-14.9-2.4c-0.5-0.3-0.9-0.5-1.4-2.6c-8.6-37.3,10.1-93.3,46.6-139.2
	c14.1-17.8,29.8-32.5,45.4-42.6C228.2,283.9,241.9,278.9,253.3,278.9L253.3,278.9L253.3,278.9 M174.6,0c-2.1,0-4.3,0.2-6.4,0.5
	c-34.9,5.6-56,55.4-47.1,111.3c8.4,52.5,40.3,91.6,73,91.6c2.1,0,4.3-0.2,6.4-0.5c34.9-5.6,56-55.4,47.1-111.3
	C239.3,39.2,207.4,0,174.6,0L174.6,0z M363.6,8.8c-31.2,0-64.6,34.1-78.5,82.5c-15.6,54.4-0.7,106.4,33.3,116.1
	c3.7,1.1,7.5,1.6,11.3,1.6c31.2,0,64.6-34.1,78.5-82.5c15.6-54.4,0.7-106.4-33.3-116.1C371.2,9.3,367.4,8.8,363.6,8.8L363.6,8.8z
	 M51.5,151.3c-5.7,0-11.3,1-16.7,3.1c-32.5,12.9-43.5,61.7-24.6,109C26,303,57.6,329,86.5,329c5.7,0,11.3-1,16.7-3.1
	c32.5-12.9,43.5-61.7,24.6-109C112,177.3,80.4,151.3,51.5,151.3L51.5,151.3z M462.5,165.9c-28.6,0-60.2,25-76.7,63.6
	c-20.1,46.8-10.3,95.9,21.8,109.6c5.7,2.4,11.7,3.6,17.8,3.6c28.6,0,60.2-25,76.7-63.6c20.1-46.8,10.3-95.9-21.8-109.6
	C474.7,167.1,468.7,165.9,462.5,165.9L462.5,165.9z M253.3,246.9c-82.4,0-184.1,142.3-162.7,235.2c5.1,22.3,23.9,29.8,47.4,29.8
	c39.4,0,92.4-21.1,118.4-29.8c8.3-2.8,16.3-4,23.9-4c37,0,66.6,27.5,98.7,27.5c10.5,0,21.3-2.9,32.8-10.8
	c49.7-33.9-76.1-244.3-155.4-247.9C255.5,247,254.4,246.9,253.3,246.9L253.3,246.9z"/>
</svg>
