<?xml version="1.0" encoding="utf-8"?>
<!-- Generator: Adobe Illustrator 21.1.0, SVG Export Plug-In . SVG Version: 6.00 Build 0)  -->
<svg version="1.1" id="Layer_1" xmlns="http://www.w3.org/2000/svg" xmlns:xlink="http://www.w3.org/1999/xlink" x="0px" y="0px"
	 viewBox="0 0 512 512" style="enable-background:new 0 0 512 512;" xml:space="preserve">
<g id="_x33_2">
	<path d="M432.8,395.8c-13.1-59-105-198.9-174.6-198.9c-75,0-181.3,158.8-181.3,207.3c-1.5,6.8-2.2,13.8-2.2,21.1
		c0,48.4,34.5,87.7,77,87.7c5.2,0,10.2-0.6,15.1-1.7c0,0,0,0,0,0c0.4-0.1,3.6-1.1,8.7-2.6c18.2-5.3,59.9-16.7,80.5-16.7
		c20,0,60.7,11,79.8,16.5c0,0,0,0,0.1,0c5.9,1.7,9.8,2.9,10.2,3c0,0,0.1,0,0.1,0c4.6,1,9.3,1.5,14.2,1.5c42.5,0,77-39.2,77-87.7
		C437.3,414.9,435.7,405,432.8,395.8z M390.7,466.2c-8.4,9.5-19.2,14.8-30.4,14.8c-2.2,0-4.3-0.2-6.4-0.6c-1.9-0.6-5.1-1.5-9.2-2.7
		l0,0c0,0,0,0,0,0c-28.1-8.1-66.3-17.7-88.7-17.7c-22.7,0-61.1,9.8-89.4,18c-3.5,1-6.3,1.8-7.9,2.3c-2.3,0.5-4.7,0.7-7,0.7
		c-11.2,0-22-5.3-30.4-14.8c-9.4-10.7-14.6-25.2-14.6-40.9c0-4.8,0.5-9.7,1.5-14.3l0.7-3.3l0-3.4c0-0.1,0.2-10.8,14.3-38.3
		c10.6-20.6,25.3-43.3,41.4-63.8c17.6-22.5,36-41.2,53-54.2c21.7-16.5,34.7-19,40.6-19c14.8,0,45.5,17,83.3,65.1
		c32.5,41.3,55.2,86.8,60,108.7l0.3,1.3l0.4,1.3c2,6.3,3,13,3,19.9C405.3,440.9,400.1,455.4,390.7,466.2z"/>
	<path d="M166.4,30.2c7.4,0,15.2,3.8,22,10.6c8.2,8.3,13.9,20,16,33.1c2.3,14,0.1,28.1-6,38.8c-2.9,5-9.3,13.8-19.8,15.4
		c-1.2,0.2-2.4,0.3-3.6,0.3c-7.4,0-15.2-3.8-22-10.6c-8.2-8.3-13.9-20-16-33.1c-2.3-14-0.1-28.1,6-38.8c2.9-5,9.3-13.8,19.8-15.4
		C164,30.3,165.2,30.2,166.4,30.2L166.4,30.2L166.4,30.2L166.4,30.2z M166.4,0.2c-2.8,0-5.5,0.2-8.3,0.7
		c-35,5.6-57.6,45.3-50.7,88.6c6.4,39.9,35.7,68.9,67.6,68.9c2.8,0,5.5-0.2,8.3-0.7c35-5.6,57.6-45.3,50.7-88.6
		C227.5,29.2,198.3,0.2,166.4,0.2L166.4,0.2z"/>
	<path d="M367.3,4.1c-6-2.3-12.3-3.5-18.6-3.5c-28.3,0-57.6,22.4-71,57.1c-16.5,42.4-3.1,87.3,29.9,100.1c6,2.3,12.3,3.4,18.6,3.4
		c28.3,0,57.6-22.4,71-57.1C413.7,61.7,400.3,16.9,367.3,4.1z M369.2,93.3c-9.7,24.9-29,38-43.1,38c-2.7,0-5.3-0.5-7.7-1.4
		c-9.6-3.7-13.9-13.9-15.6-19.5c-3.7-12.4-2.7-27.6,2.8-41.7c9.7-24.9,29-38,43.1-38c2.7,0,5.3,0.5,7.7,1.4
		c9.6,3.7,13.9,13.9,15.6,19.5C375.7,64,374.7,79.2,369.2,93.3z"/>
	<path d="M462.6,155.5c2,0,3.9,0.3,5.7,1c7.3,2.8,10.6,10.8,11.9,15.3c3.1,10.3,2.2,23-2.4,34.9c-3.8,9.9-10,18.5-17.3,24.3
		c-6,4.7-12.3,7.3-17.9,7.3c-2,0-3.9-0.3-5.7-1c-7.3-2.8-10.6-10.8-11.9-15.3c-3.1-10.3-2.2-23,2.4-34.9c3.8-9.9,10-18.5,17.3-24.3
		C450.7,158.1,457,155.5,462.6,155.5L462.6,155.5L462.6,155.5z M462.6,125.5c-25.1,0-51.2,19.9-63.2,50.8
		c-14.7,37.8-2.8,77.6,26.6,89c5.4,2.1,10.9,3.1,16.5,3.1c25.1,0,51.2-19.9,63.2-50.8c14.7-37.8,2.8-77.6-26.6-89
		C473.8,126.5,468.2,125.5,462.6,125.5L462.6,125.5z"/>
	<path d="M109,156.4c-16.3-21.5-39.5-33.5-60.7-33.5c-10.6,0-20.7,3-29.1,9.3c-25.1,19-25.7,60.6-1.3,92.9
		c16.3,21.5,39.5,33.5,60.7,33.5c10.6,0,20.7-3,29-9.3C132.8,230.3,133.4,188.7,109,156.4z M91.4,227.7c-3.4,2.6-7.7,3.9-12.8,3.9
		c-13.3,0-28.6-9-39.1-22.8C31.4,198.1,26.8,185.4,27,174c0.1-5.2,1.3-14.8,8.5-20.3c3.4-2.6,7.7-3.9,12.8-3.9
		c13.3,0,28.6,8.9,39.1,22.8c8.1,10.7,12.6,23.4,12.5,34.8C99.8,212.7,98.6,222.3,91.4,227.7z"/>
</g>
</svg>
