<?xml version="1.0" encoding="utf-8"?>
<!-- Generator: Adobe Illustrator 21.1.0, SVG Export Plug-In . SVG Version: 6.00 Build 0)  -->
<svg version="1.1" id="Layer_2" xmlns="http://www.w3.org/2000/svg" xmlns:xlink="http://www.w3.org/1999/xlink" x="0px" y="0px"
	 viewBox="0 0 512 512" style="enable-background:new 0 0 512 512;" xml:space="preserve">
<g id="_x33_2">
	<path d="M349.4,122.8l40.3,40.2L97.1,455.5c-5.4,2.5-21,7.9-46,14.4c-4,1-7.8,2-11.4,2.9c0.9-3.6,1.8-7.4,2.8-11.4
		c7.1-27.6,12.2-41.4,14.4-46l120.9-120.9L349.4,122.8L349.4,122.8z M349.4,77.6C208.1,218.9,173.2,253.7,31.9,395
		C21.2,405.7-3.2,507.6,0.8,511.6c0.3,0.3,1.1,0.4,2.4,0.4c16.1,0,104.3-21.8,114.2-31.6C261.9,336,434.9,163,434.9,163L349.4,77.6
		L349.4,77.6z"/>
	<path d="M442.8,155.2l68.8-68.8L426.1,0.8l-68.8,68.8L442.8,155.2z M402.5,69.7l23.6-23.6l40.3,40.2l-23.6,23.6L402.5,69.7z"/>
</g>
</svg>
