<?xml version="1.0" encoding="utf-8"?>
<!-- Generator: Adobe Illustrator 22.0.1, SVG Export Plug-In . SVG Version: 6.00 Build 0)  -->
<svg version="1.1" id="Layer_2" xmlns="http://www.w3.org/2000/svg" xmlns:xlink="http://www.w3.org/1999/xlink" x="0px" y="0px"
	 viewBox="0 0 512 512" style="enable-background:new 0 0 512 512;" xml:space="preserve">
<path d="M512,143.9l-114,64.5L195.1,47.6L206.3,0h-32.9l-14.1,60.1h0c-1,0.2-21.4,4.1-43.2,11.3C83.8,82,65.7,94,60.6,108.1
	c-8.4,23.7-6.4,52.9-4,86.8c2.4,34.2,5.1,73-1.3,117.8C46.1,378,14.7,458.8,1.1,491.5c-0.8,1.8-1.1,3.8-1.1,5.6
	c0,4.5,2,8.8,5.7,11.7c2.7,2.1,5.9,3.1,9.1,3.1c3.1,0,6.2-1,8.8-2.9c25.8-19,101.6-73.4,154.5-96.1c41.6-17.8,79.8-25.3,113.4-31.9
	c33.3-6.5,62.1-12.2,82.8-26.5c12.3-8.5,19.2-29.2,21-63.2c1.2-23-0.3-43.8-0.4-44.6l117-66.2V143.9z M363.4,289.8
	c-1.6,29-6.8,37.6-7.8,38.9c-15.2,10.2-40.7,15.3-70.2,21l-0.2,0c-35.2,6.9-75,14.8-119.7,33.9c-32.2,13.8-71.4,37.9-104.4,60
	l110.4-146.1c4.1,1.7,8.7,2.6,13.4,2.6c19.7,0,35.7-16,35.7-35.7s-16-35.7-35.7-35.7s-35.7,16-35.7,35.7c0,7.4,2.3,14.3,6.1,20
	L54.5,441.2c1.3-3.6,2.5-7.3,3.8-11c11.9-35.3,23.6-76.3,28.8-113c6.8-48.1,4-88.6,1.5-124.3l0-0.3c-2.1-30-3.9-55.9,2-73.3
	c1.1-1.3,8-8.6,35.5-17.7c9.6-3.1,49.3-15.2,62.1-18.7l175.6,139.2C364.1,235.9,363.9,279.3,363.4,289.8z"/>
</svg>
