<?xml version="1.0" encoding="utf-8"?>
<!-- Generator: Adobe Illustrator 21.1.0, SVG Export Plug-In . SVG Version: 6.00 Build 0)  -->
<svg version="1.1" id="Layer_1" xmlns="http://www.w3.org/2000/svg" xmlns:xlink="http://www.w3.org/1999/xlink" x="0px" y="0px"
	 viewBox="0 0 512 512" style="enable-background:new 0 0 512 512;" xml:space="preserve">
<g id="_x33_2_1_">
	<polygon points="96.8,482.3 128.8,482.3 406.8,29.3 374.8,29.3 	"/>
	<path d="M83.2,72.2c12.9,0,25.3,5.9,34.9,16.7c10.5,11.9,16.4,27.9,16.4,45.1c0,34.1-23,61.9-51.2,61.9c-12.9,0-25.3-5.9-34.9-16.7
		C37.8,167.4,32,151.3,32,134.1s5.8-33.3,16.4-45.1C57.9,78.2,70.3,72.2,83.2,72.2 M428.8,315.9c12.9,0,25.3,5.9,34.9,16.7
		c10.5,11.9,16.4,27.9,16.4,45.1s-5.8,33.3-16.4,45.1c-9.6,10.8-22,16.7-34.9,16.7s-25.3-5.9-34.9-16.7
		c-10.5-11.9-16.4-27.9-16.4-45.1C377.5,343.7,400.5,315.9,428.8,315.9 M83.2,40.2C37.4,40.2,0,82.2,0,134.1S37.4,228,83.2,228
		c46.1,0,83.2-42,83.2-93.9S129.1,40.2,83.2,40.2L83.2,40.2z M428.8,283.9c-46.1,0-83.2,42-83.2,93.9s37.4,93.9,83.2,93.9
		s83.2-42,83.2-93.9S474.6,283.9,428.8,283.9L428.8,283.9z"/>
</g>
</svg>
