<?xml version="1.0" encoding="utf-8"?>
<!-- Generator: Adobe Illustrator 22.0.1, SVG Export Plug-In . SVG Version: 6.00 Build 0)  -->
<svg version="1.1" id="Layer_3" xmlns="http://www.w3.org/2000/svg" xmlns:xlink="http://www.w3.org/1999/xlink" x="0px" y="0px"
	 viewBox="0 0 512 512" style="enable-background:new 0 0 512 512;" xml:space="preserve">
<style type="text/css">
	.st0{fill:#000100;}
</style>
<g>
	<path d="M512.9,256H481c-0.2-29.4-6-57.8-17.1-85.2c-11.6-27.9-27.8-52-48.6-72.2c-20.2-21-44.5-37.4-72.9-49.1
		c-27.3-11.4-55.9-17.4-85.8-17.9V1.3c35.4-1,70,6,103.6,20.9c33.1,14.5,61.9,35,86.2,61.6c21.3,23.1,37.7,49.7,49.3,79.9
		C507.5,193.8,513.2,224.6,512.9,256z"/>
	<path d="M322,256h-15.6c-5.8,0-11,0.2-15.5,0.4c-0.5-1.3-1.1-2.9-1.9-4.9l-0.8-2.7l-1.1-2.3c-1.8-4-3.4-7.3-4.9-9.9
		c-2.8-3.6-6.6-6.6-11.4-9.1c-2-0.5-4.4-1.3-7.2-2.3l-3.4-1.1l-3.4-1.1v-23.2c0-3.1,0.1-5.9,0.4-8.4c8.6,0.3,16.8,2.2,24.7,5.7
		c7.6,3.3,14.3,8,20.1,14.1c6.1,5.8,10.9,12.6,14.4,20.2C319.8,239.2,321.7,247.4,322,256z"/>
	<path d="M417.3,256h-15.6c-5.8,0-11.2,0.2-15.9,0.4c-2.1-31.7-11.4-58.1-28.1-79.1c-11.9-15.2-27-27.2-45.2-36.1
		c-17.7-8.4-36.3-12.8-55.8-13.3v-16c0-6.1,0.1-11.5,0.4-16.4c21,0.8,41.1,4.9,60.3,12.5c19.7,7.9,36.8,19,51.3,33.5
		c15.4,14.5,27.3,31.9,35.7,52.5C413,214.1,417.3,234.7,417.3,256z"/>
	<path class="st0" d="M92.9,32.5c13,0,25.1,10.2,30.7,26l0.2,0.7l0.3,0.6c7.5,18.4,15.5,45.6,15.5,66.4c0,19.4-9.7,33.4-18.9,36.5
		l-9.9,3.4c-9.9,3.4-15.6,13.8-13.3,24l2.3,10.1c2.6,11.3,18.2,70.6,70,125.8c53.5,57.1,119.2,81.2,138.1,87.2l11.3,3.6
		c10.6,3.4,22-2.3,25.6-12.9l3.7-10.9c3.1-9.1,17.1-18.8,36.9-18.8c20.9,0,48.3,7.9,67,15.3l0.6,0.3l0.7,0.2
		c15.9,5.5,26.2,17.5,26.2,30.5c0,5.8-6,21-21.9,37.3c-15.8,15.7-31.4,22.7-40,22.7c-2,0-4.1-0.1-6.3-0.3l-0.8-0.1h-0.8
		c-1.6-0.1-40.7-2.5-94.6-20.6c-31.1-10.5-60.9-24.1-88.4-40.6c-34-20.3-64.9-45.1-91.5-73.5c-22.1-23.6-41.3-50.9-57.1-81
		c-12.8-24.3-23.2-50.6-31.2-78.1c-2.6-8.9-4.7-17.4-6.5-25.3l-8-59.7c-0.3-2.5-0.5-5-0.5-7.5c0-8.5,7.1-24,23-39.5
		C71.7,38.4,87.1,32.5,92.9,32.5 M92.9,0.4C56.5,0.4,0,51.6,0,93.7c0,4,0,11.1,0,11.1s4.5,147.8,111.7,262.1
		c125.7,134.2,290.9,144.6,296.4,145c3.2,0.3,6.5,0.5,9.8,0.5c42.4,0,94.1-56,94.1-92.2c0-27.5-19.8-50.9-47.8-60.7
		c-11.4-4.5-47.1-17.6-79-17.6c-32.3,0-59.5,17.2-67.5,40.7c-16.8-5.3-76-27-124.3-78.6c-47-50.1-60.6-104.4-62.1-111.1
		c23.4-8,40.7-34.9,40.7-66.8c0-31.6-13.2-66.9-17.8-78.4C144.3,20,120.6,0.4,92.9,0.4L92.9,0.4z"/>
</g>
</svg>
