<?xml version="1.0" encoding="utf-8"?>
<!-- Generator: Adobe Illustrator 22.0.1, SVG Export Plug-In . SVG Version: 6.00 Build 0)  -->
<svg version="1.1" id="Layer_3" xmlns="http://www.w3.org/2000/svg" xmlns:xlink="http://www.w3.org/1999/xlink" x="0px" y="0px"
	 viewBox="0 0 512 512" style="enable-background:new 0 0 512 512;" xml:space="preserve">
<style type="text/css">
	.st0{fill:#000100;}
</style>
<g>
	<polygon points="392.5,76.1 370.1,76.1 370,152.3 426,152.3 426,129.5 392.5,129.5 	"/>
	<path d="M381.5,4C310.5,4,253,61.5,253,132.5S310.5,261,381.5,261S510,203.5,510,132.5S452.5,4,381.5,4z M477.7,147.7
		c-6.5,41.4-39.1,74.2-80.5,80.9c-1.5,7-7.7,12.3-15.2,12.3c-7.4,0-13.6-5.2-15.2-12.1c-41.9-6.3-75-39.3-81.5-81.1
		c-7-1.5-12.2-7.8-12.2-15.2c0-7.4,5.2-13.7,12.2-15.2c6.5-41.8,39.7-74.7,81.5-81.1c1.6-7,7.8-12.1,15.2-12.1
		c7.5,0,13.7,5.3,15.2,12.3c41.4,6.7,74,39.5,80.5,80.9c7,1.5,12.2,7.8,12.2,15.2C489.9,139.9,484.7,146.2,477.7,147.7z"/>
	<path d="M372.7,37.4c0.1,0.1,0.3,0.1,0.4,0.1s0.2,0,0.3-0.1c0.1,0,0.2-0.1,0.3-0.2l1.5-1.3c0,0.4,0,0.7,0,1v6.8h-2.6v2.1h7.6v-2.1
		H378V32.4h-2.4l-4.2,3.5l0.9,1.2C372.5,37.2,372.6,37.3,372.7,37.4z"/>
	<path d="M391,44.2c0-0.3-0.1-0.5-0.3-0.7c-0.2-0.2-0.4-0.3-0.7-0.3h-2.5c-0.3,0-0.6,0-0.9,0.1s-0.7,0.1-1,0.2l2.6-2.7
		c0.4-0.4,0.7-0.7,1-1.1c0.3-0.4,0.6-0.7,0.8-1.1c0.2-0.4,0.4-0.8,0.6-1.2c0.1-0.4,0.2-0.9,0.2-1.4c0-0.6-0.1-1.1-0.3-1.6
		c-0.2-0.5-0.5-0.9-0.9-1.2s-0.8-0.6-1.4-0.8c-0.5-0.2-1.1-0.3-1.8-0.3c-0.6,0-1.2,0.1-1.7,0.2c-0.5,0.2-1,0.4-1.4,0.7
		s-0.8,0.7-1,1.2c-0.3,0.5-0.5,1.1-0.6,1.7l1.5,0.3c0.1,0,0.1,0,0.2,0s0.1,0,0.2,0c0.3,0,0.5-0.1,0.6-0.2c0.2-0.1,0.3-0.3,0.4-0.6
		c0.1-0.2,0.1-0.3,0.2-0.5c0.1-0.1,0.2-0.3,0.4-0.4c0.1-0.1,0.3-0.2,0.5-0.2c0.2-0.1,0.4-0.1,0.6-0.1c0.5,0,0.9,0.1,1.2,0.4
		c0.3,0.3,0.4,0.7,0.4,1.2c0,0.3,0,0.6-0.1,0.9c-0.1,0.3-0.2,0.6-0.4,0.9c-0.2,0.3-0.4,0.6-0.6,0.9c-0.2,0.3-0.5,0.6-0.9,0.9
		l-3.9,3.9c-0.2,0.2-0.3,0.3-0.4,0.6c-0.1,0.2-0.1,0.4-0.1,0.6v0.9h9.4L391,44.2L391,44.2z"/>
	<path d="M477.6,132.1c0.3-0.1,0.6-0.2,0.9-0.4c0.2-0.2,0.5-0.4,0.6-0.6c0.2-0.2,0.3-0.5,0.4-0.8s0.1-0.7,0.1-1.1
		c0-0.5-0.1-0.9-0.3-1.3c-0.2-0.4-0.5-0.8-0.8-1.1c-0.4-0.3-0.8-0.6-1.3-0.8c-0.5-0.2-1.1-0.3-1.8-0.3c-0.6,0-1.2,0.1-1.7,0.2
		c-0.5,0.2-1,0.4-1.4,0.7c-0.4,0.3-0.8,0.7-1,1.2c-0.3,0.5-0.5,1.1-0.6,1.7l1.5,0.3c0.1,0,0.1,0,0.2,0s0.1,0,0.2,0
		c0.3,0,0.5-0.1,0.6-0.2c0.2-0.1,0.3-0.3,0.4-0.6c0.1-0.2,0.1-0.3,0.2-0.5c0.1-0.1,0.2-0.3,0.4-0.4c0.1-0.1,0.3-0.2,0.5-0.2
		c0.2-0.1,0.4-0.1,0.6-0.1c0.5,0,0.9,0.1,1.2,0.4c0.3,0.3,0.4,0.7,0.4,1.2c0,0.3,0,0.5-0.1,0.7s-0.2,0.4-0.4,0.5
		c-0.2,0.2-0.5,0.3-0.8,0.4c-0.3,0.1-0.8,0.1-1.4,0.1v2c0.7,0,1.2,0,1.5,0.1c0.4,0.1,0.6,0.2,0.8,0.4c0.2,0.2,0.3,0.4,0.3,0.6
		c0,0.2,0.1,0.5,0.1,0.8c0,0.2,0,0.4-0.1,0.7c-0.1,0.2-0.2,0.4-0.4,0.6c-0.2,0.2-0.4,0.3-0.6,0.4c-0.2,0.1-0.5,0.2-0.8,0.2
		c-0.4,0-0.8-0.1-1.1-0.3c-0.3-0.2-0.6-0.6-0.9-1.1c-0.1-0.1-0.2-0.3-0.4-0.3c-0.2-0.1-0.3-0.1-0.5-0.1c-0.1,0-0.2,0-0.3,0
		c-0.1,0-0.2,0.1-0.3,0.1l-1.3,0.5c0.2,0.6,0.5,1.2,0.8,1.6c0.3,0.5,0.6,0.8,1,1.1s0.8,0.5,1.3,0.6s1.1,0.2,1.7,0.2s1.2-0.1,1.8-0.3
		c0.6-0.2,1.1-0.4,1.5-0.8c0.4-0.3,0.8-0.8,1-1.3c0.3-0.5,0.4-1.1,0.4-1.9C479.8,133.6,479.1,132.6,477.6,132.1z"/>
	<path d="M385.9,225.2c-0.4-0.3-0.8-0.6-1.3-0.7c-0.5-0.2-1-0.2-1.4-0.2c-0.3,0-0.5,0-0.8,0.1c-0.2,0-0.5,0.1-0.7,0.2
		c0.1-0.1,0.1-0.1,0.2-0.2c0.1-0.1,0.1-0.1,0.2-0.2l4-4.7h-2.5c-0.3,0-0.6,0.1-0.9,0.2c-0.3,0.1-0.5,0.3-0.6,0.5l-3,4.1
		c-0.5,0.7-0.9,1.4-1.1,2c-0.3,0.7-0.4,1.3-0.4,2s0.1,1.4,0.3,1.9c0.2,0.6,0.5,1.1,0.9,1.5s0.9,0.8,1.5,1s1.3,0.4,2,0.4
		s1.4-0.1,2-0.4c0.6-0.2,1.1-0.6,1.5-1s0.8-0.9,1-1.5s0.3-1.2,0.3-1.8c0-0.7-0.1-1.3-0.3-1.8C386.6,226,386.3,225.6,385.9,225.2z
		 M384.1,229.3c-0.1,0.3-0.3,0.5-0.4,0.7c-0.2,0.2-0.4,0.3-0.7,0.5c-0.3,0.1-0.5,0.2-0.8,0.2s-0.6-0.1-0.9-0.2
		c-0.3-0.1-0.5-0.2-0.6-0.4c-0.2-0.2-0.3-0.4-0.4-0.7s-0.1-0.6-0.1-0.9c0-0.3,0-0.6,0.1-0.9c0.1-0.3,0.2-0.5,0.4-0.7
		c0.2-0.2,0.4-0.3,0.6-0.4c0.2-0.1,0.5-0.2,0.8-0.2s0.6,0,0.9,0.1s0.5,0.2,0.7,0.4s0.3,0.4,0.4,0.7s0.2,0.6,0.2,0.9
		C384.3,228.8,384.2,229.1,384.1,229.3z"/>
	<path d="M292.5,126.2c-0.4-0.4-0.9-0.7-1.4-0.9c-0.6-0.2-1.2-0.3-1.9-0.3c-0.7,0-1.4,0.1-1.9,0.4c-0.6,0.2-1.1,0.6-1.5,1
		s-0.7,0.9-1,1.4c-0.2,0.5-0.3,1.1-0.3,1.7c0,0.7,0.1,1.2,0.3,1.7c0.2,0.5,0.5,0.9,0.9,1.2s0.7,0.6,1.2,0.7c0.4,0.2,0.9,0.2,1.3,0.2
		s0.7,0,1-0.1s0.6-0.2,0.9-0.3c-0.1,0.1-0.1,0.2-0.2,0.3s-0.2,0.2-0.2,0.3l-4.2,5.1h2.6c0.3,0,0.6-0.1,0.9-0.2
		c0.3-0.1,0.5-0.3,0.6-0.5l2.9-4.1c0.2-0.3,0.4-0.6,0.6-1c0.2-0.3,0.3-0.7,0.5-1c0.1-0.4,0.2-0.7,0.3-1.1c0.1-0.4,0.1-0.8,0.1-1.2
		c0-0.7-0.1-1.3-0.3-1.8C293.2,127.1,292.9,126.6,292.5,126.2z M290.5,130.7c-0.3,0.4-0.8,0.5-1.4,0.5c-1.2,0-1.9-0.7-1.9-2
		c0-0.3,0-0.5,0.1-0.8c0.1-0.2,0.2-0.5,0.4-0.6c0.2-0.2,0.3-0.3,0.6-0.4c0.2-0.1,0.5-0.2,0.8-0.2s0.5,0,0.8,0.1
		c0.2,0.1,0.4,0.2,0.6,0.4c0.2,0.2,0.3,0.4,0.4,0.6c0.1,0.2,0.1,0.5,0.1,0.9C291,129.8,290.8,130.3,290.5,130.7z"/>
	<path class="st0" d="M92.9,32.1c13,0,25.1,10.2,30.7,26l0.2,0.7l0.3,0.6c7.5,18.4,15.5,45.6,15.5,66.4c0,19.4-9.7,33.4-18.9,36.5
		l-9.9,3.4c-9.9,3.4-15.6,13.8-13.3,24l2.3,10.1c2.6,11.3,18.2,70.6,70,125.8c53.5,57.1,119.2,81.2,138.1,87.2l11.3,3.6
		c10.6,3.4,22-2.3,25.6-12.9l3.7-10.9c3.1-9.1,17.1-18.8,36.9-18.8c20.9,0,48.3,7.9,67,15.3l0.6,0.3l0.7,0.2
		c15.9,5.5,26.2,17.5,26.2,30.5c0,5.8-6,21-21.9,37.3c-15.8,15.7-31.4,22.7-40,22.7c-2,0-4.1-0.1-6.3-0.3l-0.8-0.1h-0.8
		c-1.6-0.1-40.7-2.5-94.6-20.6c-31.1-10.5-60.9-24.1-88.4-40.6c-34-20.3-64.9-45.1-91.5-73.5c-22.1-23.6-41.3-50.9-57.1-81
		c-12.8-24.3-23.2-50.6-31.2-78.1c-2.6-8.9-4.7-17.4-6.5-25.3l-8-59.7c-0.3-2.5-0.5-5-0.5-7.5c0-8.5,7.1-24,23-39.5
		C71.7,38,87.1,32.1,92.9,32.1 M92.9,0C56.5,0,0,51.2,0,93.3c0,4,0,11.1,0,11.1s4.5,147.8,111.7,262.1
		c125.7,134.2,290.9,144.6,296.4,145c3.2,0.3,6.5,0.5,9.8,0.5c42.4,0,94.1-56,94.1-92.2c0-27.5-19.8-50.9-47.8-60.7
		c-11.4-4.5-47.1-17.6-79-17.6c-32.3,0-59.5,17.2-67.5,40.7c-16.8-5.3-76-27-124.3-78.6c-47-50.1-60.6-104.4-62.1-111.1
		c23.4-8,40.7-34.9,40.7-66.8c0-31.6-13.2-66.9-17.8-78.4C144.3,19.6,120.6,0,92.9,0L92.9,0z"/>
</g>
</svg>
