<?xml version="1.0" encoding="utf-8"?>
<!-- Generator: Adobe Illustrator 21.1.0, SVG Export Plug-In . SVG Version: 6.00 Build 0)  -->
<svg version="1.1" id="Layer_3" xmlns="http://www.w3.org/2000/svg" xmlns:xlink="http://www.w3.org/1999/xlink" x="0px" y="0px"
	 viewBox="0 0 550 512" style="enable-background:new 0 0 550 512;" xml:space="preserve">
<g>
	<path d="M321.9,442l28,37.3h-56.1L321.9,442 M321.9,388.8l-92.1,122.5H414L321.9,388.8L321.9,388.8z"/>
	<g>
		<path d="M169,137.9l46.6,127.7l-128,46.7L41,184.4L169,137.9 M188.1,97L0,165.2l68.6,188.2l188.2-68.6L188.1,97L188.1,97z"/>
	</g>
	<polygon points="538.4,208.8 550.5,241.5 49.2,422.3 37.4,389.7 	"/>
	<path d="M477.9,21v109.7h11.9l-28.6,28.6l-28.5-28.6h11.9V21H477.9 M502.9,0h-83.2v109.7H378l83.2,83.3l83.3-83.3h-41.6V0L502.9,0z
		"/>
</g>
</svg>
