<?xml version="1.0" encoding="utf-8"?>
<!-- Generator: Adobe Illustrator 21.1.0, SVG Export Plug-In . SVG Version: 6.00 Build 0)  -->
<svg version="1.1" id="Layer_1" focusable="false" xmlns="http://www.w3.org/2000/svg" xmlns:xlink="http://www.w3.org/1999/xlink"
	 x="0px" y="0px" viewBox="0 0 512 512" style="enable-background:new 0 0 512 512;" xml:space="preserve">
<path id="_x33_2" d="M511.9,80.8c0,10.3-1.4,15.8-12,16.3H366.6c0,0-10.5,52.8-17.1,110.8c-4,35.4-8,82.9-8.3,107.8
	c-0.8,52.9,7.9,93,21.4,107.6c13.7,14.9,25.7,21.8,47.2,21.8c36,0,37.6-32.7,40.1-57.2c0.5-4.9,7.2-19.4,19.4-16.6
	c8.9,2,14.2,10,12.8,22.6c-4.2,38.4-20.4,84.1-73.6,84.1c-24.6,0-51.5-12-68.6-30.5c-14.2-15.4-23.4-38.1-28-69.4
	c-4.8-32.6-4.6-83.7,0.7-135.7C316.8,201.5,332,97.1,332,97.1H148.1c-1.8,88-21.4,312-73.4,377.7c-3.4,4.2-13.2,11.1-23.1,0.8
	c-8-8.3-8.2-23.2-0.7-32.3c12-14.6,23.6-45.3,36.5-96.7c12.3-48.9,27.1-189.9,25.6-249.5L66.8,97C53.1,96.5,40,96,32.6,112.6
	c-2.5,5.5-5.9,9-10.2,10.4c-4.6,1.5-9.2,0.3-12.1-1.4c-9.4-5.4-13.1-19.5-7.8-30.2c8.4-17.1,31.2-26.1,65.9-26.1
	c97.3,0,425.8,0.1,429,0.1C513.9,65.4,511.9,77,511.9,80.8z"/>
</svg>
