<?xml version="1.0" encoding="utf-8"?>
<!-- Generator: Adobe Illustrator 21.1.0, SVG Export Plug-In . SVG Version: 6.00 Build 0)  -->
<svg version="1.1" id="Layer_1" xmlns="http://www.w3.org/2000/svg" xmlns:xlink="http://www.w3.org/1999/xlink" x="0px" y="0px"
	 viewBox="0 0 517 512" style="enable-background:new 0 0 517 512;" xml:space="preserve">
<g>
	<path d="M294.1,330.7h144.6c-4.3,17.4-11.2,34-20.4,49.8c-17.7,30.3-41.1,53.7-71.6,71.4c-16.5,9.6-34.2,16.7-52.7,21.1V330.7
		 M261.9,298.5v211.6c36.5-2.3,70.2-12.5,101-30.5c35-20.4,62.7-48,83.1-82.9c17.8-30.5,27.8-63.1,30.1-98.2H261.9L261.9,298.5z"/>
	<path d="M36.7,330.7h146.9v143.8c-18.9-4.2-36.8-11.4-54.1-21.3c-30.6-17.7-54.1-41-72-71.4C48,365.4,41.1,348.5,36.7,330.7
		 M-0.5,298.5c2.1,35.7,12.3,68.9,30.4,99.6c20.5,34.9,48.3,62.5,83.5,82.9c31.6,18.2,65.6,28.3,102.3,30.2V298.5H-0.5L-0.5,298.5z"
		/>
	<path d="M181.8,220.4H37.1c4.3-17.4,11.2-34,20.4-49.8c17.7-30.3,41.1-53.7,71.6-71.4c16.5-9.6,34.2-16.7,52.7-21.1V220.4
		 M213.9,252.5V40.9c-36.5,2.3-70.2,12.5-101,30.5c-35,20.4-62.7,48-83.1,82.9C12,184.8,1.9,217.5-0.3,252.5H213.9L213.9,252.5z"/>
	<path d="M475,205.5H309V43c21.4,4.8,41.6,12.8,61.1,24.1c34.5,20,61.1,46.3,81.3,80.7C462.3,166.2,470.1,185.4,475,205.5
		 M517,241.9c-2.4-40.3-13.9-77.8-34.3-112.6c-23.2-39.4-54.6-70.7-94.4-93.7C352.6,15,314.1,3.6,272.7,1.5v240.4L517,241.9
		L517,241.9z"/>
</g>
</svg>
