<?xml version="1.0" encoding="utf-8"?>
<!-- Generator: Adobe Illustrator 21.1.0, SVG Export Plug-In . SVG Version: 6.00 Build 0)  -->
<svg version="1.1" id="Layer_2" xmlns="http://www.w3.org/2000/svg" xmlns:xlink="http://www.w3.org/1999/xlink" x="0px" y="0px"
	 viewBox="0 0 517 512" style="enable-background:new 0 0 517 512;" xml:space="preserve">
<g>
	<path d="M181.2,73v220.6v32h32h227.2c-10,38-30.8,72.5-60.2,99.6c-38.4,35.4-88.3,54.8-140.6,54.8c-28,0-55.2-5.5-80.8-16.3
		c-24.7-10.5-46.9-25.4-66-44.5c-19.1-19.1-34.1-41.3-44.5-66C37.5,327.6,32,300.4,32,272.4c0-51.5,19-100.8,53.4-139
		C111.4,104.5,144.6,83.8,181.2,73 M213.2,34.1C93.3,47.3,0,148.9,0,272.4C0,404.7,107.3,512,239.7,512c125.2,0,228-96,238.7-218.4
		H213.2V34.1L213.2,34.1z"/>
	<path d="M282.8,32.1c26.1,0.7,51.4,6.1,75.3,16.2c24.7,10.5,46.9,25.4,66,44.5c19.1,19.1,34.1,41.3,44.5,66
		c9.4,22.3,14.8,45.8,16,70.1H282.8V32.1 M277.2,0.1c-8.9,0-17.8,0.5-26.4,1.4V261h265.2c0.6-7,0.9-14.1,0.9-21.3
		C516.8,107.3,409.5,0.1,277.2,0.1L277.2,0.1z"/>
</g>
</svg>
