<?xml version="1.0" encoding="utf-8"?>
<!-- Generator: Adobe Illustrator 21.1.0, SVG Export Plug-In . SVG Version: 6.00 Build 0)  -->
<svg version="1.1" id="Layer_2" xmlns="http://www.w3.org/2000/svg" xmlns:xlink="http://www.w3.org/1999/xlink" x="0px" y="0px"
	 viewBox="0 0 470 512.6" style="enable-background:new 0 0 470 512.6;" xml:space="preserve">
<g>
	<path d="M398.6,190.7l-14.9,8.6L350,218.8c-1.7-4.4-5.9-7.5-10.8-7.5c-6.4,0-11.6,5.2-11.6,11.6c0,2.8,1,5.3,2.6,7.3l-65.4,37.9
		l-22.4,13l3,1.7c-2.9,2-4.8,5.3-5,9l-4.8-2.7v25.8v136.2v17.1l16.9-2.2c25.4-3.3,49.5-11.4,71.8-24.2
		c22.3-12.7,41.6-29.5,57.3-49.7l10.7-13.7l-15.1-8.6l-68.8-39.2c0.1-2.4-0.2-4.7-0.1-5.8c0.3-1.9,0.5-3.6,0.7-5.1l73.6,42.6
		l14.7,8.5l6.6-15.7c10-23.6,15.1-48.6,15.3-74.2c0.2-25.6-4.6-50.6-14.3-74.4L398.6,190.7z M250.6,314.9l0.2,0.1
		C250.8,315,250.7,315,250.6,314.9L250.6,314.9z M344.1,409.8c1.5-2.1,2.4-4.8,2.4-7.6c0-7.3-5.9-13.3-13.3-13.3
		c-7.3,0-13.3,5.9-13.3,13.3c0,7.3,5.9,13.3,13.3,13.3c1.8,0,3.6-0.4,5.2-1c-25.3,19.7-55.5,32.5-87.7,36.7v-9
		c0.9,2.4,2.4,3.2,4.1,3c1.8-0.2,4.8-4.1,4.9-9.1c0.1-3.9-1.9-8.4-4.6-8.3c-1.8,0-3.5,1.6-4.4,4v-85.2c1.8,3.3,4,6.7,6.7,10.1
		c6.6,8.3,20.4,13.8,30.2,5.8c5.8-4.8,9.2-7.4,0.6-18.9c-4.4-5.9-10.8-12.5-16.4-16.5l98.2,55.9
		C362.2,392.8,353.5,401.8,344.1,409.8z M300,324.5c0,0.4,0,0.9-0.1,1.3L258.3,302c2.9-1.9,4.9-5.1,5.2-8.7l1.3,0.8l36.4,21.1
		C300.5,318.4,300.1,322,300,324.5z M390.3,349.4l-7.3-4.2c1.9,0.1,3.3-0.4,3.9-1.8c0.7-1.6-1.3-6.2-5.5-8.8
		c-3.4-2.1-8.2-3.2-9.5-0.8c-0.8,1.3-0.1,3.7,1.5,5.8l-100.9-58.4l20.5-11.9c-0.4,1.5-0.6,3.1-0.6,4.9c0,7.5,3,18.3,17.2,21
		c6.7,1.3,13.8-3.1,18.9-5.1c6.3-2.5,18.8-4.5,18.8-11.7c0-7.3-16.9-18.1-33.3-21.3l70.1-40.6c0.9,1.6,2.3,3.4,4.5,4.4
		c2.2,1,4.7,2,6.6,2c2.8,8.3,4.9,16.8,6.5,25.3c-0.2-0.5-0.5-0.9-0.9-1.2c-17.6-16.3-25.6-15.4-27.3-13.7c-3.6,3.6-2.4,18.9,8.7,31
		c5.1,5.6,18.8,0.1,19.6-5.6c0.4-2.6,0.6-4.6,0.6-6.3C407.3,284.9,403.3,318.5,390.3,349.4z"/>
	<path d="M160.7,124.8c-2.6,0-5.5,4.2-5.5,8.8s2.1,8.4,4.7,8.4c2.6,0,4.7-3.8,4.7-8.4S163.3,124.8,160.7,124.8z"/>
	<circle cx="88.8" cy="251.5" r="13.3"/>
	<circle cx="280.3" cy="417.7" r="13.3"/>
	<circle cx="376.6" cy="307" r="13.3"/>
	<circle cx="185" cy="141" r="13.3"/>
	<path d="M194.8,166.8c-1.3,0-4.8,4-4.8,9c0,3,1.3,8.6,3.9,8.6c2.7,0,5.8-3.6,5.8-8.6C199.6,170.8,197.5,166.8,194.8,166.8z"/>
	<path d="M145,419.3c2.5-1.7,6.4-5.9,5-8s-6.2-2.6-10.3,0.2s-6.3,6.8-4.8,9C135.6,421.5,140.9,422.1,145,419.3z"/>
	<path d="M164.7,367.8c3.2-2,6.5-5.8,5.1-8s-6.7-2.8-10.6-0.1c-5.3,3.6-6.6,6.6-4.9,8.5C155.5,369.5,160.7,370.3,164.7,367.8z"/>
	<path d="M386.2,158c3.4-2.6,7.2-5.9,6-8.5c-1.3-2.8-8.5-2.8-12.7,0.6c-5.7,4.6-6.3,7.1-4.3,9.1C376.6,160.5,381.9,161.2,386.2,158z
		"/>
	<path d="M347.4,114.4c3.5-2.6,7.2-5.9,6-8.6c-1.4-2.9-8.7-3-13,0.4c-5.7,4.7-6.4,7.2-4.2,9.3C337.6,116.9,343.1,117.7,347.4,114.4z
		"/>
	<path d="M342.7,293.8c-3.6-1.7-8.2-2.1-9.3,0.4s2.4,7.1,6.9,9.1c6.2,2.6,8.2,0.8,8.9-1.8C349.8,299.6,347.2,295.9,342.7,293.8z"/>
	<path d="M305,434.2c1.8-0.2,4.3-3,4.5-7.9c0.1-3.9-1.4-9.5-4.1-9.5c-2.7,0-4.9,5.2-5.3,8.6C299.6,429.9,302.3,434.5,305,434.2z"/>
	<path d="M270.8,391.6c1.8-0.2,4.3-3,4.5-7.9c0.1-3.9-1.4-9.5-4.1-9.5c-2.7,0-4.9,5.2-5.3,8.6C265.4,387.3,268.1,391.9,270.8,391.6z
		"/>
	<path d="M179.7,400.5c5.2,4.4,11.8-1,14.4-1.7c13.8-3.8,15.2-5.9,14.6-8.3c-1.2-4.9-12.4-1.7-17.7,0.4
		C183.9,393.8,175.2,396.8,179.7,400.5z"/>
	<path d="M310.8,385.4c6.4-2.3,5-10.7,5.7-13.3c3.7-13.9,2.5-16.1,0.2-16.8c-4.9-1.4-7.7,9.8-8.5,15.5
		C307.1,378.3,305.3,387.3,310.8,385.4z"/>
	<path d="M234.1,154.1c-2-0.6-3.7,1-5.1,3.4v-50V90.5l-16.9,2.2c-25.3,3.3-49.4,11.4-71.6,24c-22.2,12.7-41.4,29.3-57,49.4
		l-10.6,13.6l14.9,8.6l36.9,21.4c-2.4,2.1-3.9,5.2-4,8.6l-38.4-22.1l-14.6-8.4l-6.7,15.4c-10.2,23.6-15.5,48.5-15.7,74
		c-0.3,25.6,4.5,50.5,14.2,74.2l6.5,15.9l14.9-8.6l24-13.9c0.8,3.5,3.2,6.5,6.4,8l-25.6,14.8l-14.6,8.4l10.1,13.5
		c14.9,19.9,34,37.2,55.4,50c22,13.2,47,22,72.3,25.6l17.1,2.4v-17.3V312.8v-26l-22.5,13l-75.8,43.7c0-0.3,0.1-0.7,0.1-1
		c0-3.4-1.5-6.4-3.8-8.5l76.2-44l22.5-13l-22.6-13l-61.9-35.6c2.8-1.7,4.8-4.4,5.4-7.7l62.9,36.4l22.5,13v-26v-60.6
		c4.9-2.9,3.9-10.2,4.6-12.5C237.6,157.1,236.5,154.9,234.1,154.1z M211,312.8v22.6c-3.6-3.6-8.7-5.9-14.2-5.9
		c-11.1,0-20.1,9-20.1,20.1c0,11.1,9,20.1,20.1,20.1c5.5,0,10.6-2.2,14.2-5.9v86.6c-12.2-1.7-24.3-4.8-35.9-9
		c0.5,0.1,1.1,0.1,1.6,0.1c7.3,0,13.3-5.9,13.3-13.3s-5.9-13.3-13.3-13.3s-13.3,5.9-13.3,13.3c0,4.5,2.2,8.5,5.7,10.9
		c-8.5-3.5-16.8-7.6-24.7-12.3c-19.9-12-37.4-27.7-51.2-46.2l9-5.2c-1.8,2.2-2.5,4.5-1.5,6c0.7,1,6,1.6,10.2-1.2
		c2.5-1.7,6.5-5.9,5-8.1c-0.8-1.2-2.8-1.9-5-1.7L211,312.8z M172.8,288.5c0.4-1.5,0.6-3.1,0.6-4.8c0-11.1-9-20.1-20.1-20.1
		s-20.1,9-20.1,20.1c0,9.2,6.1,16.9,14.5,19.3l-67.7,39.1c-1-1.5-2.5-2.9-4.4-3.7c-2.3-1-4.1-1.6-5.5-1.9c-3.1-8.9-5.4-18-7-27.2
		c1.8,5.2,6.7,8.9,12.5,8.9c7.3,0,13.3-5.9,13.3-13.3c0-7.3-5.9-13.3-13.3-13.3c-7.3,0-13.1,5.8-13.3,13.1
		c-4.7-32.1-0.5-65.1,12.7-95.5l9,5.2c-3.5-1-5.1-0.2-5.7,1.8c-0.5,1.7,1.1,6.2,5.4,8.2c3.4,1.6,7.4,3.1,9,1c1.1-1.5,0.2-4.6-1.8-7
		l102,58.6L172.8,288.5z M194.8,232.9c8.7-2.2,15.1-10,15.1-19.4c0-11.1-9-20-20-20s-20,9-20,20c0,1.9,0.3,3.7,0.8,5.4l-75.4-43.6
		c7.5-9.6,15.9-18.4,25.1-26.2c-1.5,2.1-2.3,4.7-2.3,7.5c0,7.3,5.9,13.3,13.3,13.3c7.3,0,13.3-5.9,13.3-13.3
		c0-7.3-5.9-13.3-13.3-13.3c-1.9,0-3.6,0.4-5.2,1.1c25.2-19.8,55.6-32.7,87.9-36.9v9.1c-0.9-1.6-2.1-2.5-3.4-2.5c-1.3,0-4.8,4-4.8,9
		c0,3,1.3,8.6,3.9,8.6c1.5,0,3.1-1.1,4.3-3v115.4L194.8,232.9z"/>
	<path d="M244.2,169.2c2.8-0.9,4.1-3,4.8-5.3v66.3v26l22.5-13l68-39.3c1.2,5.1,5.8,8.9,11.2,8.9c6.4,0,11.6-5.2,11.6-11.6
		c0-3.3-1.4-6.3-3.6-8.4l52-30l14.6-8.4l-10-13.5c-17.9-24.1-40-44.1-65.8-59.3c-25.8-15.2-53.9-24.9-83.5-28.7L249,50.7v17.1v71.5
		c-3.9,1.1-6.3,10.4-7.2,15.4C240.7,162.2,238.8,171.1,244.2,169.2z M403.2,149.9L264,230.3v-34.9c4,6.4,11.1,10.6,19.2,10.6
		c12.5,0,22.6-10.1,22.6-22.6s-10.1-22.6-22.6-22.6c-8.1,0-15.2,4.2-19.2,10.6v-92c2.7,0.6,6.6,0.4,9.6-1.9c3.2-2.4,5.7-5.2,5.5-7.3
		C328.5,80.5,372.8,108.8,403.2,149.9z M269,68.5c-1.1,0.4-2.1,1-3,1.7c-0.8,0.6-1.4,1.2-2,1.7v-4.1C265.7,68,267.4,68.2,269,68.5z"
		/>
	<path d="M354.6,252.7c-10.2-10.1-12.6-10.2-14.4-8.6c-3.7,3.5,4.6,11.6,9.2,15.2c5.9,4.7,12.9,10.7,13.9,5
		C364.4,257.6,356.5,254.6,354.6,252.7z"/>
	<path d="M269,138.5c1.1,5.5,14,2,20.1-0.4c8-3.1,17.9-6.5,13-10.7c-5.9-4.9-14,0.8-17,1.6C269.3,133.2,268.2,135,269,138.5z"/>
	<path d="M100.9,293.6c-1.1,6.7,7.5,10,9.3,11.9c8.4,8.6,12.8,10.1,14.5,8.4c3.6-3.5-4.8-11.5-9.4-15
		C109.4,294.2,101.8,287.9,100.9,293.6z"/>
	<circle cx="306" cy="95.6" r="15.2"/>
	<path d="M398.6,286.8c4,3,5.5,6.3,3.8,8.4c-1.6,2.1-8.4-0.2-10.8-2.1c-4-3-4.7-7.1-3.9-8.1C389.4,283,394.7,283.8,398.6,286.8z"/>
	<path d="M205.8,444.8c4.1-2.5,8.4-2.3,9.7-0.1s-1.4,6-4.8,7.8c-4.2,2.3-8.9,1.9-10,0.6C199.3,451.1,200.2,448.1,205.8,444.8z"/>
	<path d="M14.6,278.7c0,38.1,9.9,73.9,27.2,105l-13.6,7.9c-39.4-73.5-35.9-157.9,0.5-226.8l13.5,8C24.6,204.2,14.6,240.3,14.6,278.7
		z"/>
	<path d="M431.3,400.8c-43.4,70-118,109.9-195.5,112.2v-18.2c76-1.7,142.3-42.7,179.5-103.4L431.3,400.8z"/>
	<path d="M227.1,494.8v17.6C144.4,510.1,72.7,465,31,398.5l14.5-8.2C82.9,452,150.1,493.6,227.1,494.8z"/>
	<path d="M229.4,45.7v16.8C152,63,84.2,104.2,46.4,165.7l-13.1-7.8C77.3,87.9,151.9,48,229.4,45.7z"/>
	<path d="M435.9,393.9l-16.4-9.6C437,353.1,447,317.1,447,278.7c0-37-9.3-71.8-25.6-102.2l15.7-9.4
		C475.8,240.6,472.9,325.6,435.9,393.9z"/>
	<path d="M470.1,129l-15.8,8.9C409.7,69.3,334.5,22.4,248,16.6V0C341.6,2.9,423.2,53.8,470.1,129z"/>
</g>
</svg>
