<?xml version="1.0" encoding="utf-8"?>
<!-- Generator: Adobe Illustrator 21.1.0, SVG Export Plug-In . SVG Version: 6.00 Build 0)  -->
<svg version="1.1" id="Layer_3" xmlns="http://www.w3.org/2000/svg" xmlns:xlink="http://www.w3.org/1999/xlink" x="0px" y="0px"
	 viewBox="0 0 572 512" style="enable-background:new 0 0 572 512;" xml:space="preserve">
<g id="_x33_2">
	<path d="M565.6,206.4c-5.5-5.6-32.1-54.4-97.2-54.4c-65.1,0-243,1.2-254.2,1.2c-11.2,0-42.7-6.7-63.1-37.8L76.8,12.1
		c0,0-5.9-11.1-15.8-11.1c-6.6,0-36.7,0-36.7,0l47.3,165.6c0,0-37.2,6.1-40.9,9.9c0.2-0.2-3.2-0.3-7.7-0.3c-9,0-22.8,0.3-22.8,0.3
		l28.8,11.7v12.1c0,1.7,0.9,3.1,2.1,3.5L180.5,250c0,0,51.5,8.2,86,9.4c8.2,0.3,16.1,0.5,23.9,0.7l81.5,18.6c2.5,0.8,4.8-1,4.8-3.6
		l-0.4-14.1l-1.8-0.5c93.6-1.3,141.4-8.4,141.4-8.4s56.1-6.7,56.1-29C572,217.2,571.1,211.9,565.6,206.4z M33.9,189.8
		c-0.3,5-1,9.1-1.5,9.1c-0.6,0-0.8-4.1-0.5-9.2c0.3-5,1-9.1,1.5-9.1C34,180.7,34.2,184.8,33.9,189.8z M527.6,217.3
		c-8,2-14.9,2.9-15.5,3l-0.3,0l-0.5,0.1c-0.6,0.1-57.6,8.3-166.4,8.3c-24.9,0-50.9-0.4-77.2-1.3c-28.3-1-69.9-7.1-79.8-8.7l-74.6-23
		l-10.9-37.9L76,65.8l48.8,67.8c27.2,40.7,68.9,51.5,89.4,51.5c3.4,0,20.3-0.1,46-0.3c60.7-0.3,162.3-0.9,208.2-0.9
		c17.7,0,32.7,4.6,46,14.2c8.1,5.8,14,12.4,18.2,17.7C531.1,216.4,529.4,216.8,527.6,217.3z"/>
	<rect x="0" y="480" width="572" height="32"/>
	<path d="M153.5,390c0.7-2.3,1.1-4.7,1.1-7.2c0-9-4.8-16.9-11.9-21.4c0.1-0.9,0.1-1.8,0.1-2.7c0-14.3-11.6-25.9-25.9-25.9
		c-0.2,0-0.3,0-0.5,0c-3.9-3.3-8.9-5.3-14.4-5.3c-2.7,0-5.4,0.5-7.8,1.4c-4-5.1-10.2-8.3-17.2-8.3c-10.8,0-19.7,7.8-21.6,18
		c-0.8-0.1-1.7-0.2-2.6-0.2c-5.1,0-9.5,2.6-12.1,6.5c-2.9-1.3-6.2-2.1-9.6-2.1c-12.9,0-23.3,10.4-23.3,23.3c0,0.9,0.1,1.8,0.1,2.6
		c-4.1,4-6.6,9.6-6.6,15.7c0,3.7,0.9,7.2,2.6,10.3c-0.8,1.7-1.3,3.6-1.3,5.6c0,7,5.7,12.7,12.7,12.7c2.7,0,5.2-0.9,7.3-2.3
		c6.2-1.9,14.8-4.2,18.5-4.2c1,0,2.3,0.1,3.7,0.3c7.7,18.3,25.2,25,25.2,25h0.2c0.7,8.4,1.3,16.3,1.6,20.7
		c0.9,14.1-7.4,28.8-7.4,28.8l28.3,1.8c0,0-3.1-20.2-3-24.2c0.5-19.2,3.1-32.6,6-41.7c3.7,0.4,7.9,1.1,12.2,2.3
		c19.9,5.5,23.4-2.5,23.4-2.5l0,0c2.6,1.6,5.7,2.5,9,2.5c9.8,0,17.7-7.9,17.7-17.7C158,397.2,156.3,393.1,153.5,390z M55.9,410.4
		c-0.3-0.5-0.6-1-0.8-1.5c4.5,1.2,9.4,2.7,13.5,4.1c0.3,3.3,0.6,6.9,0.9,10.6C64.1,419.3,58.1,414,55.9,410.4z"/>
</g>
</svg>
