<?xml version="1.0" encoding="utf-8"?>
<!-- Generator: Adobe Illustrator 21.1.0, SVG Export Plug-In . SVG Version: 6.00 Build 0)  -->
<svg version="1.1" id="Layer_3" xmlns="http://www.w3.org/2000/svg" xmlns:xlink="http://www.w3.org/1999/xlink" x="0px" y="0px"
	 viewBox="0 0 572 512" style="enable-background:new 0 0 572 512;" xml:space="preserve">
<g id="_x33_2">
	<path d="M547.3,327.7c-4-6.7-18.5-60.4-81.8-75.7c-63.3-15.2-236.5-55.7-247.4-58.3c-10.9-2.6-39.9-16.5-52.5-51.5L117.5,24.4
		c0,0-3.2-12.2-12.8-14.5C98.3,8.4,69,1.3,69,1.3l7.2,172.1c0,0-37.6-2.7-42.1,0.1c0.2-0.2-3.1-1-7.5-2.1
		c-8.8-2.1-22.3-5.1-22.3-5.1l25.3,18.1l-2.8,11.8c-0.4,1.6,0.1,3.2,1.2,3.9L162.7,280c0,0,48.1,20,81.4,29.2
		c7.9,2.2,15.5,4.2,23,6.2l74.9,37.2c2.2,1.3,4.9,0.2,5.5-2.4l2.9-13.8l-1.6-0.9c91.3,20.6,139.4,24.9,139.4,24.9s56.1,6.6,61.3-15
		C551,339.7,551.4,334.4,547.3,327.7z M34.3,187.2c-1.5,4.8-3.1,8.6-3.6,8.5c-0.5-0.2,0.2-4.2,1.7-9.1c1.5-4.8,3.1-8.6,3.6-8.5
		C36.5,178.3,35.7,182.4,34.3,187.2z M507.8,329.4c-8.3,0.1-15.2-0.7-15.8-0.7l-0.3,0l-0.5,0c-0.6-0.1-57.9-5.4-163.7-30.9
		c-24.2-5.8-49.3-12.3-74.8-19.3c-27.2-7.5-66.3-23.3-75.6-27.1l-67.2-39.9l-1.7-39.4l-4-95.6l31.6,77.3c16.9,45.9,55,66.2,74.9,71
		c3.3,0.8,19.8,4.7,44.8,10.5c59.1,13.9,158,37.1,202.6,47.8c17.2,4.1,30.7,12.2,41.4,24.6c6.5,7.5,10.7,15.3,13.6,21.5
		C511.4,329.4,509.7,329.4,507.8,329.4z"/>
	<rect x="0" y="480" width="572" height="32"/>
</g>
</svg>
