<?xml version="1.0" encoding="utf-8"?>
<!-- Generator: Adobe Illustrator 21.1.0, SVG Export Plug-In . SVG Version: 6.00 Build 0)  -->
<svg version="1.1" id="Layer_1" xmlns="http://www.w3.org/2000/svg" xmlns:xlink="http://www.w3.org/1999/xlink" x="0px" y="0px"
	 viewBox="0 0 512 512" style="enable-background:new 0 0 512 512;" xml:space="preserve">
<g>
	<path d="M223.7,211l77.6,45.6l-77.6,45.8V211 M206.6,166.1c-2.4,0-4.8,0.6-7.2,1.9c-5.1,2.9-7.7,7.3-7.7,13.2v151.2
		c0,5.6,2.6,10,7.7,13.2c2.4,1.2,4.9,1.8,7.3,1.8c2.7,0,5.2-0.7,7.7-2.2l128-75.6c5.1-2.7,7.7-6.9,7.7-12.8c0-5.8-2.6-10.2-7.7-13.2
		l-128-75.3C211.8,166.8,209.2,166.1,206.6,166.1L206.6,166.1z"/>
	<path d="M256,0C114.6,0,0,114.6,0,256s114.6,256,256,256s256-114.6,256-256S397.4,0,256,0z M256,480C132.3,480,32,379.7,32,256
		S132.3,32,256,32s224,100.3,224,224S379.7,480,256,480z"/>
</g>
</svg>
