<?xml version="1.0" encoding="utf-8"?>
<!-- Generator: Adobe Illustrator 21.1.0, SVG Export Plug-In . SVG Version: 6.00 Build 0)  -->
<svg version="1.1" id="Layer_2" xmlns="http://www.w3.org/2000/svg" xmlns:xlink="http://www.w3.org/1999/xlink" x="0px" y="0px"
	 viewBox="0 0 476 512" style="enable-background:new 0 0 476 512;" xml:space="preserve">
<g id="_x33_2_1_">
	<path d="M453.9,80.6h-6.5V14.1c0-3.7-1.3-6.8-4-9.5c-2.3-2.7-5.3-4-9-4s-6.8,1.3-9.5,4s-4,5.8-4,9.5v66.5h-75.7V14.1
		c0-3.7-1.3-6.8-4-9.5s-5.8-4-9.5-4s-6.8,1.3-9.5,4c-2.3,2.7-3.5,5.8-3.5,9.5v66.5h-6.5c-12.6,0-22.4,9.8-22.4,22.5v72.5
		c0,44.1,30.4,81.5,72.2,91h5v140.9c0,39.2-34,71-76,71s-76-31.8-76-71v-31c0-62.7-40.3-113-103-113c-74.5,0-112,70.1-112,100h32
		c0-33.3,34-68,76-68c41.1,0,75,31.7,75,72v31c0,53.8,36.3,112,103,112s113-57.3,113-112V266.6h4.3c60.2-14,72.7-65,72.7-91
		c0-18.1,0-72.5,0-72.5C476.3,90.5,466.5,80.6,453.9,80.6z M320.9,14.1c0-6.1,4.9-11,11-11c6,0,11,4.9,11,11v15.5H321V14.1H320.9z
		 M444.1,175.6c0,17-8.2,50.3-47.6,59.5h-27c-27.3-6.2-47.2-30.6-47.2-59.5v-63.1h121.8C444.1,112.5,444.1,163.8,444.1,175.6z
		 M445.4,29.6H423V14.1c0-6.1,4.9-11,10.9-11h0.5c6.1,0,11,4.9,11,11V29.6z"/>
</g>
</svg>
