<?xml version="1.0" encoding="utf-8"?>
<!-- Generator: Adobe Illustrator 21.1.0, SVG Export Plug-In . SVG Version: 6.00 Build 0)  -->
<svg version="1.1" id="Layer_2" xmlns="http://www.w3.org/2000/svg" xmlns:xlink="http://www.w3.org/1999/xlink" x="0px" y="0px"
	 viewBox="0 0 512 512" style="enable-background:new 0 0 512 512;" xml:space="preserve">
<g id="_x33_2">
	<path d="M0,50v412c0,27.6,22.4,50,50,50h412c27.6,0,50-22.4,50-50V50c0-27.6-22.4-50-50-50H50C22.4,0,0,22.4,0,50z M462,32
		c9.9,0,18,8,18,18c0,2.4,0,410.6,0,412c0,10-8.1,18-18,18c-0.6,0-389,0-412,0c-10,0-18-8-18-18c0-0.1,0-42.9,0-43
		c-0.7-7.9,0-367.6,0-369c0-10,8-18,18-18C51.3,32,460,32,462,32z"/>
	<path d="M146,210c0-8.8,7.2-16,16-16s16,7.2,16,16s-7.2,16-16,16S146,218.8,146,210z M146,415V264h32v151H146z M370,328v87h-32v-87
		H370z M370,274c0,8.8-7.2,16-16,16s-16-7.2-16-16s7.2-16,16-16S370,265.2,370,274z M274,168v247h-32V168H274z M274,114
		c0,8.8-7.2,16-16,16s-16-7.2-16-16s7.2-16,16-16S274,105.2,274,114z"/>
</g>
</svg>
