<?xml version="1.0" encoding="utf-8"?>
<!-- Generator: Adobe Illustrator 21.1.0, SVG Export Plug-In . SVG Version: 6.00 Build 0)  -->
<svg version="1.1" id="Layer_2" xmlns="http://www.w3.org/2000/svg" xmlns:xlink="http://www.w3.org/1999/xlink" x="0px" y="0px"
	 viewBox="0 0 512 512" style="enable-background:new 0 0 512 512;" xml:space="preserve">
<g id="_x33_2">
	<path d="M462,0H50C22.4,0,0,22.4,0,50v412c0,27.6,22.4,50,50,50h412c27.6,0,50-22.4,50-50V50C512,22.4,489.6,0,462,0z M480,462
		c0,9.9-8,18-18,18c-2.4,0-410.6,0-412,0c-10,0-18-8.1-18-18c0-0.6,0-389,0-412c0-10,8-18,18-18c0.1,0,42.9,0,43,0
		c7.9-0.7,367.6,0,369,0c10,0,18,8,18,18C480,51.3,480,460,480,462z"/>
	<path d="M302,146c8.8,0,16,7.2,16,16s-7.2,16-16,16s-16-7.2-16-16S293.2,146,302,146z M97,146h151v32H97V146z M184,370H97v-32h87
		V370z M238,370c-8.8,0-16-7.2-16-16s7.2-16,16-16s16,7.2,16,16S246.8,370,238,370z M344,274H97v-32h247V274z M398,274
		c-8.8,0-16-7.2-16-16s7.2-16,16-16s16,7.2,16,16S406.8,274,398,274z"/>
</g>
</svg>
