<?xml version="1.0" encoding="utf-8"?>
<!-- Generator: Adobe Illustrator 21.1.0, SVG Export Plug-In . SVG Version: 6.00 Build 0)  -->
<svg version="1.1" id="Layer_2" xmlns="http://www.w3.org/2000/svg" xmlns:xlink="http://www.w3.org/1999/xlink" x="0px" y="0px"
	 viewBox="0 0 460.9 512" style="enable-background:new 0 0 460.9 512;" xml:space="preserve">
<g id="_x33_2_1_">
	<path d="M327.9,72.7c-10.7-5-22.9,2.7-23,14.5v0c0,6.3,3.6,12,9.4,14.7c67.5,31.6,114.4,100.2,114.4,179.7
		c0,124.2-114.3,221.8-243.5,193.2C118.1,459.9,51,392,36.8,324.7C16.3,227.5,67,139.1,146.6,101.9c5.7-2.7,9.4-8.4,9.3-14.7
		c-0.1-11.8-12.3-19.5-23-14.5C58,107.8,5,182,0.3,269c-7.3,136.3,106,249.8,242.3,242.7c121.6-6.3,218.3-106.9,218.3-230.1
		C460.9,189.2,406.5,109.4,327.9,72.7z"/>
	<path d="M230.4,224.3c8.8,0,16-7.2,16-16V16c0-8.8-7.2-16-16-16s-16,7.2-16,16v192.3C214.4,217.1,221.6,224.3,230.4,224.3z"/>
</g>
</svg>
