<?xml version="1.0" encoding="utf-8"?>
<!-- Generator: Adobe Illustrator 21.1.0, SVG Export Plug-In . SVG Version: 6.00 Build 0)  -->
<svg version="1.1" id="Layer_1" xmlns="http://www.w3.org/2000/svg" xmlns:xlink="http://www.w3.org/1999/xlink" x="0px" y="0px"
	 viewBox="0 0 436 512" style="enable-background:new 0 0 436 512;" xml:space="preserve">
<g id="_x33_2">
	<g>
		<path d="M436,275.4L412.1,252L303.4,358.5l-102-100.1l20-5c58.2-14.7,98.9-65.8,98.9-124.4c0-71.1-59-129-131.5-129H0v454.7h33.8
			V258h119.4l126.4,124l-84.8,83.2c-13.1,12.9-13.1,34,0,46.9l0,0l108.7-106.6L412.1,512l0,0c13.1-12.9,13.1-34,0-46.8L327.3,382
			L436,275.4z M33.8,224.9V33.1h155c53.9,0,97.7,43,97.7,95.9c0,52.9-43.8,95.9-97.7,95.9H33.8z"/>
	</g>
</g>
</svg>
