<?xml version="1.0" encoding="utf-8"?>
<!-- Generator: Adobe Illustrator 22.0.1, SVG Export Plug-In . SVG Version: 6.00 Build 0)  -->
<svg version="1.1" id="Layer_1" xmlns="http://www.w3.org/2000/svg" xmlns:xlink="http://www.w3.org/1999/xlink" x="0px" y="0px"
	 viewBox="0 0 512 512" style="enable-background:new 0 0 512 512;" xml:space="preserve">
<path d="M180.8,437.3v21.4h148.5v-21.4H180.8z M180.8,384.1v21h148.5v-21H180.8z M180.8,458.7h148.5v-21.4H180.8V458.7z
	 M180.8,384.1v21h148.5v-21H180.8z M53.3,198.8v31.9h42.8v-31.9H53.3z M53.3,198.8v31.9h42.8v-31.9H53.3z M180.8,458.7h148.5v-21.4
	H180.8V458.7z M180.8,384.1v21h148.5v-21H180.8z M53.3,230.7h42.8v-31.9H53.3V230.7z"/>
<path d="M512,163.4c0-9.9-8-17.9-17.9-17.9l-95.7,0V94.6h-97V0H112.3v145.4l-94.3,0c-9.9,0-17.9,8-17.9,17.9v264.5
	c0,9.9,8,17.9,17.9,17.9h99.6V512h276.3v-66.2h100.4c9.9,0,17.9-8,17.9-17.9L512,163.4z M144.3,32h125.1v94.6h97v18.5H144.3V32z
	 M361.5,480.6H148.9V361.8h212.6V480.6z M480,413.2h-86.1v-82.8H117.5v82.8H32V177.1h448V413.2z"/>
<polygon points="392.5,80.9 316.3,80.9 316.3,4.6 "/>
</svg>
