<?xml version="1.0" encoding="utf-8"?>
<!-- Generator: Adobe Illustrator 21.1.0, SVG Export Plug-In . SVG Version: 6.00 Build 0)  -->
<svg version="1.1" id="Layer_4" xmlns="http://www.w3.org/2000/svg" xmlns:xlink="http://www.w3.org/1999/xlink" x="0px" y="0px"
	 viewBox="0 0 512 512" style="enable-background:new 0 0 512 512;" xml:space="preserve">
<g>
	<path d="M512,311.7c0-3-2.4-4.8-4.8-4.8c-1.5,0-2.9,0.6-3.9,2.1c-2.1,3-4.6,5.8-7.3,8.4c-9.7,9.1-22.7,14.7-37,14.7
		c-0.3,0-0.6,0-0.9,0c-29.7-0.5-54-26-53.1-55.7c0.9-29,24.7-52.3,54-52.3c14.3,0,27.3,5.6,37,14.7c2.7,2.5,5.1,5.3,7.2,8.4
		c1,1.4,2.5,2.1,4,2.1c2.4,0,4.8-1.8,4.8-4.8V107h-71.6c11.9-11.7,19.1-28.2,18.6-46.3C458,27.4,430.7,0.5,397.4,0
		c-0.3,0-0.6,0-0.9,0C362,0,334,28,334,62.5c0,17.4,7.1,33.2,18.6,44.5H106v157.6C94.8,253.7,79.4,247,62.5,247c-0.8,0-1.7,0-2.5,0
		c-33,1.3-59.5,28.5-60,61.5c-0.5,35,27.7,63.5,62.5,63.5c16.9,0,32.3-6.7,43.5-17.6V512l138.2,0c4.7,0,6.7-6.1,2.8-8.8
		c-3-2.1-5.8-4.5-8.4-7.2c-9.3-9.9-14.9-23.2-14.7-37.9c0.5-29.2,25.1-53.1,54.1-53.1c0.5,0,1.1,0,1.6,0c29,0.9,52.3,24.7,52.3,54
		c0,14.3-5.6,27.3-14.7,37c-2.5,2.7-5.3,5.1-8.4,7.2c-3.8,2.7-1.8,8.8,2.9,8.8l200.2,0L512,311.7z M62.5,340
		C45.7,340,32,326.3,32,309.5c0-16.8,13.7-30.5,30.5-30.5S93,292.7,93,309.5C93,326.3,79.3,340,62.5,340z M396.5,32
		c16.8,0,30.5,13.7,30.5,30.5c0,16.8-13.7,30.5-30.5,30.5S366,79.3,366,62.5C366,45.7,379.7,32,396.5,32z M361.4,480
		c1.7-6.8,2.6-13.8,2.6-21c0-46.8-36.6-84.5-83.3-86c-0.9,0-1.7,0-2.6,0c-46.7,0-85.3,38-86.1,84.6c-0.1,7.6,0.8,15.1,2.6,22.4
		l-56.6,0V139h342v55.6c-6.8-1.7-13.8-2.6-21-2.6c-46.8,0-84.5,36.6-86,83.3c-0.7,23,7.8,45,23.9,61.9
		c16.1,16.9,37.7,26.4,60.7,26.8c0.5,0,0.9,0,1.4,0c7.2,0,14.2-0.9,21-2.6l0,118.6L361.4,480z"/>
</g>
</svg>
