<?xml version="1.0" encoding="utf-8"?>
<!-- Generator: Adobe Illustrator 21.1.0, SVG Export Plug-In . SVG Version: 6.00 Build 0)  -->
<svg version="1.1" id="Layer_1" xmlns="http://www.w3.org/2000/svg" xmlns:xlink="http://www.w3.org/1999/xlink" x="0px" y="0px"
	 viewBox="0 0 512 512" style="enable-background:new 0 0 512 512;" xml:space="preserve">
<path d="M232.7,0v232.7H0V0H232.7z M232.7,279.3V512H0V279.3H232.7z M32.5,200.2h167.6V32.5H32.5V200.2z M32.5,479h167.6V311.8H32.5
	V479z M89.3,422.7v46.5H42.8v-46.5H89.3z M190,42.8v46.5h-46.5V42.8H190z M512,0v232.7H279.3V0H512z M512,279.3v139.6H372.4v-46.5
	h-46.5V512h-46.5V279.3H419v46.5h46.5v-46.5H512z M311.8,200.2h167.6V32.5H311.8V200.2z M418.9,465.5V512h-46.5v-46.5H418.9z
	 M469.2,42.8v46.5h-46.5V42.8H469.2z M464.6,418.1v46.5h-46.5v-46.5H464.6z M512,465.5V512h-46.5v-46.5H512z"/>
</svg>
