<?xml version="1.0" encoding="utf-8"?>
<!-- Generator: Adobe Illustrator 21.1.0, SVG Export Plug-In . SVG Version: 6.00 Build 0)  -->
<svg version="1.1" id="Layer_1" xmlns="http://www.w3.org/2000/svg" xmlns:xlink="http://www.w3.org/1999/xlink" x="0px" y="0px"
	 viewBox="0 0 512 512" style="enable-background:new 0 0 512 512;" xml:space="preserve">
<g>
	<path d="M256,0C114.6,0,0,114.6,0,256s114.6,256,256,256s256-114.6,256-256S397.4,0,256,0z M256,480C132.3,480,32,379.7,32,256
		S132.3,32,256,32s224,100.3,224,224S379.7,480,256,480z"/>
	<path d="M244.2,364.9v0.2c0,9.3,7.6,16.9,16.9,16.9h0c9.3,0,16.9-7.6,16.9-16.9v-0.2c0-9.3-7.6-16.9-16.9-16.9h0
		C251.8,348,244.2,355.6,244.2,364.9z"/>
	<path d="M261.4,130.3c-23,0-42.7,7.3-57,21.2c-15.2,14.8-23.2,36.3-23.2,62.2v5h32.5v-5c0-33.5,16.9-51.9,47.7-51.9
		c25.4,0,43.9,17.9,43.9,42.6c0,13.4-3.7,21.2-25.4,41.4c-25.8,24.1-34.7,41.6-35,69.2l-0.1,5.1h32.5l0.1-4.9
		c0.3-18.6,7.6-30.6,31.1-51.6c22-19.7,30.6-36.1,30.6-58.4C339.1,161.7,306.4,130.3,261.4,130.3z"/>
</g>
</svg>
