<?xml version="1.0" encoding="utf-8"?>
<!-- Generator: Adobe Illustrator 22.0.1, SVG Export Plug-In . SVG Version: 6.00 Build 0)  -->
<svg version="1.1" id="Layer_1" xmlns="http://www.w3.org/2000/svg" xmlns:xlink="http://www.w3.org/1999/xlink" x="0px" y="0px"
	 viewBox="0 0 304.3 512" style="enable-background:new 0 0 304.3 512;" xml:space="preserve">
<g id="_x33_2">
	<path d="M153.7,458.3c7.8,0,14.1,6.3,14.1,14.1v0.5c0,7.8-6.3,14.1-14.1,14.1s-14.1-6.3-14.1-14.1v-0.5
		C139.6,464.6,145.9,458.3,153.7,458.3 M153.7,433.3c-21.5,0-39.1,17.6-39.1,39.1v0.5c0,21.5,17.6,39.1,39.1,39.1
		s39.1-17.6,39.1-39.1v-0.5C192.8,450.9,175.2,433.3,153.7,433.3L153.7,433.3z"/>
	<path d="M155.2,0c21.5,0,41.8,3.6,60.3,10.8c17.8,6.9,33.6,16.8,46.9,29.6c13.2,12.7,23.5,27.8,30.6,44.9
		c7.4,17.7,11.1,37.1,11.1,57.6c0,21.5-4.2,39.5-13.1,56.6c-9.3,17.7-24.1,35.4-46.5,55.4c-51.2,45.8-69.4,74.8-71.5,116.1h-36.3
		c0.9-25,5.6-44.7,15-63.4c10.4-20.6,27.1-41,54.1-66.2c47.1-43.9,59.3-64.5,59.3-100.2c0-62.1-46.2-107.2-110-107.2
		c-73.2,0-115.9,44-118,121.1H1c1.1-48,16.4-87.6,44.3-114.7C72.6,14,110.5,0,155.2,0"/>
</g>
</svg>
