<?xml version="1.0" encoding="utf-8"?>
<!-- Generator: Adobe Illustrator 22.0.1, SVG Export Plug-In . SVG Version: 6.00 Build 0)  -->
<svg version="1.1" id="Layer_1" xmlns="http://www.w3.org/2000/svg" xmlns:xlink="http://www.w3.org/1999/xlink" x="0px" y="0px"
	 viewBox="0 0 512 512" style="enable-background:new 0 0 512 512;" xml:space="preserve">
<g id="XMLID_1_">
	<path d="M462,0.5H50c-27.6,0-50,22.4-50,50v412c0,27.6,22.4,50,50,50h412c27.6,0,50-22.4,50-50v-412C512,22.9,489.6,0.5,462,0.5z
		 M480,462.5c0,9.9-8,18-18,18c-2.4,0-410.6,0-412,0c-10,0-18-8.1-18-18c0-0.6,0-389,0-412c0-10,8-18,18-18c0.1,0,410.6,0,412,0
		c10,0,18,8,18,18C480,51.8,480,460.5,480,462.5z"/>
	<path d="M241.1,366.8v0.2c0,9.3,7.6,16.9,16.9,16.9l0,0c9.3,0,16.9-7.6,16.9-16.9v-0.2c0-9.3-7.6-16.9-16.9-16.9l0,0
		C248.7,349.9,241.1,357.5,241.1,366.8z"/>
	<path d="M258.3,132.1c-23,0-42.7,7.3-57,21.2c-15.2,14.8-23.2,36.3-23.2,62.2v5h32.5v-5c0-33.5,16.9-51.9,47.7-51.9
		c25.4,0,43.9,17.9,43.9,42.6c0,13.4-3.7,21.2-25.4,41.4c-25.8,24.1-34.7,41.6-35,69.2l-0.1,5.1h32.5l0.1-4.9
		c0.3-18.6,7.6-30.6,31.1-51.6c22-19.7,30.6-36.1,30.6-58.4C336,163.5,303.3,132.1,258.3,132.1z"/>
</g>
</svg>
