<?xml version="1.0" encoding="utf-8"?>
<!-- Generator: Adobe Illustrator 21.1.0, SVG Export Plug-In . SVG Version: 6.00 Build 0)  -->
<svg version="1.2" baseProfile="tiny" id="Layer_1" xmlns="http://www.w3.org/2000/svg" xmlns:xlink="http://www.w3.org/1999/xlink"
	 x="0px" y="0px" viewBox="0 0 554.7 512" xml:space="preserve">
<path d="M164.7,41.6l13,20.6c-29.4,18-52.4,41.4-68.7,69.9c-18.5,32.3-29.5,74.7-33.7,129.5c-1.2,15.4,4.2,30.8,14.7,42.1
	c10.5,11.3,25.3,17.8,40.8,17.8h53.5V481H32V336.7c0-45.8,2.7-85.6,8.1-118.2c5.1-30.9,12.6-55.9,22.3-74l0.1-0.1v-0.1
	c13.2-25.1,30.4-47.4,51.2-66.3C128.6,64.4,145.7,52.2,164.7,41.6 M496,41.6l13,20.6c-29.4,18-52.4,41.4-68.7,69.9
	c-18.5,32.3-29.5,74.7-33.7,129.5c-1.2,15.4,4.2,30.8,14.7,42.1c10.5,11.3,25.3,17.8,40.8,17.8h53.5V481H363.3V336.7
	c0-45.8,2.7-85.6,8.1-118.2c5.1-30.9,12.6-55.9,22.3-74l0.1-0.1v-0.1C407,119.2,424.2,96.9,445,78C459.9,64.4,477,52.2,496,41.6
	 M507.7,0c-64.8,29.2-112.2,72.3-142.2,129.3c-22.8,42.8-34.2,111.9-34.2,207.4v149.8c0,14.7,11.9,26.6,26.6,26.6h163.2
	c14.7,0,26.6-11.9,26.6-26.6V316.2c0-14.7-11.9-26.6-26.6-26.6h-59c-13.8,0-24.6-11.8-23.5-25.5c3.8-49.6,13.7-88.3,29.6-116.1
	c18.5-32.4,47.4-56.8,86.6-73.2L507.7,0L507.7,0z M176.4,0C111.5,29.2,64.1,72.3,34.2,129.3C11.4,172.1,0,241.2,0,336.7v149.8
	C0,501.1,11.9,513,26.6,513h163.2c14.7,0,26.6-11.9,26.6-26.6V316.2c0-14.7-11.9-26.6-26.6-26.6h-59c-13.8,0-24.6-11.8-23.5-25.5
	c3.8-49.6,13.7-88.3,29.6-116.1c18.5-32.4,47.4-56.8,86.6-73.2L176.4,0L176.4,0z"/>
</svg>
