<?xml version="1.0" encoding="utf-8"?>
<!-- Generator: Adobe Illustrator 21.1.0, SVG Export Plug-In . SVG Version: 6.00 Build 0)  -->
<svg version="1.1" id="Layer_1" xmlns="http://www.w3.org/2000/svg" xmlns:xlink="http://www.w3.org/1999/xlink" x="0px" y="0px"
	 viewBox="0 0 512 512" style="enable-background:new 0 0 512 512;" xml:space="preserve">
<g id="_x33_2">
	<g>
		<path d="M352.9,133.1c14.6,11.2,27.3,25,37.3,40.7c10.8,16.9,18.2,35.6,22,55.2l-74.8-0.8c-3.9-10.3-9.8-19.7-17.2-27.8
			L352.9,133.1 M158.4,133.6l33,66.9c-7.3,8.1-13.1,17.4-17,27.6L99.8,229c3.7-19.4,11.1-38,21.7-54.8
			C131.4,158.6,143.9,144.9,158.4,133.6 M279.7,343.3l45.2,59.5c-21.3,10.3-44.6,15.6-68.9,15.6c-24.2,0-47.5-5.3-68.8-15.6
			l45.2-59.5c7.6,2.1,15.5,3.2,23.6,3.2C264.1,346.5,272,345.4,279.7,343.3 M339.6,87.4l-59.4,122.2c18.4,8.9,31.1,27.8,31.1,49.7
			c0,0.2,0,0.4,0,0.6l135.8,1.5c0-0.7,0-1.4,0-2.1C447.1,183.7,403.2,118.4,339.6,87.4L339.6,87.4z M171.5,87.8
			C108.3,119,64.9,184.1,64.9,259.3c0,0.7,0,1.4,0,2.1l135.8-1.5c0-0.2,0-0.4,0-0.6c0-21.7,12.6-40.5,30.8-49.5L171.5,87.8
			L171.5,87.8z M289.4,303.2c-9.3,7.1-20.9,11.3-33.4,11.3c-12.6,0-24.1-4.2-33.4-11.2l-82.1,108.2c32.1,24.4,72.1,38.9,115.5,38.9
			c43.5,0,83.5-14.5,115.6-38.9L289.4,303.2L289.4,303.2z"/>
	</g>
	<g>
		<g>
			<path d="M256,0C114.6,0,0,114.6,0,256s114.6,256,256,256s256-114.6,256-256S397.4,0,256,0z M256,479.8
				C132.4,479.8,32.2,379.6,32.2,256S132.4,32.2,256,32.2S479.8,132.4,479.8,256S379.6,479.8,256,479.8z"/>
		</g>
	</g>
	<path d="M256,224.9c-19,0-34.3,15.4-34.3,34.3c0,19,15.4,34.3,34.3,34.3s34.3-15.4,34.3-34.3C290.3,240.3,275,224.9,256,224.9z
		 M256,269.7c-5.8,0-10.5-4.7-10.5-10.5c0-5.8,4.7-10.5,10.5-10.5c5.8,0,10.5,4.7,10.5,10.5C266.5,265,261.8,269.7,256,269.7z"/>
</g>
</svg>
