<?xml version="1.0" encoding="utf-8"?>
<!-- Generator: Adobe Illustrator 21.1.0, SVG Export Plug-In . SVG Version: 6.00 Build 0)  -->
<svg version="1.1" id="Layer_2" xmlns="http://www.w3.org/2000/svg" xmlns:xlink="http://www.w3.org/1999/xlink" x="0px" y="0px"
	 viewBox="0 0 512 512" style="enable-background:new 0 0 512 512;" xml:space="preserve">
<g>
	<path d="M483.3,28.7C457,2.5,405.2-4.3,347.4,2.4c-1.7,0.2-3.3,0.4-5,0.6c-11.7,1.5-23.6,3.5-35.6,6.1
		C233.8,24.6,158.7,58.3,118,99l-18.6,18.6c-39.7,39.7-72.9,111.8-89,182.9c-3.1,13.5-5.5,26.9-7.2,40.1
		c-8,60.1-1.6,114.7,25.9,142.3c28.1,28.1,84.5,34.2,146,25.4c5.1-0.7,10.2-1.5,15.3-2.5c8.6-1.5,17.2-3.3,25.8-5.4
		c69.5-16.5,139.3-49.1,178.1-87.9L413,394c39.8-39.8,72.9-112.6,88.9-184.1c3.1-14,5.6-28,7.3-41.7
		C516.5,109,510.1,55.5,483.3,28.7z M94.5,478c-19.6-3-34.4-9.1-42.9-17.6c-8.3-8.3-14.3-22.7-17.4-41.6c-2.3-13.7-2.9-29.7-2-47.1
		c11.7,12.2,23.6,24.4,35.7,36.6c24.8,24.8,49.9,48.6,74.9,71.4C125,480.7,108.6,480.1,94.5,478z M470.8,202.9
		c-15.3,68.9-46.8,135.1-80.3,168.5l-18.6,18.6c-16.1,16.1-40,32.1-68.9,46.2c-28.8,14-61.3,25.5-94,33.2
		c-7.9,1.9-15.7,3.5-23.4,4.9c-31.8-27.6-63.6-57.2-95.1-88.6C72,367.2,54.2,348.6,37,330c1.3-7.4,2.8-14.9,4.5-22.5
		c15.4-68.3,47-134,80.5-167.4l18.6-18.6c34.4-34.4,102.3-66.3,173-81.3c7.8-1.7,15.5-3.1,23.1-4.2c17.7,16.3,35.3,33.3,52.8,50.8
		c30.5,30.5,59.2,61.3,86,92.1C474.1,186.8,472.6,194.8,470.8,202.9z M479.9,135.5c-21.7-23.8-44.4-47.6-68-71.2
		c-11-11-22-21.7-33-32.3c15.8-0.5,30.3,0.4,42.7,2.6c17.8,3.1,31.4,8.9,39.1,16.7c8,8,13.8,21.9,16.9,40.4
		C479.8,104.4,480.6,119.3,479.9,135.5z"/>
	<path d="M343.1,144.5c-6.2-6.2-16.3-6.2-22.5,0c-6.2,6.2-6.2,16.3,0,22.5l1,1L301,188.5l-6.5-6.5c-6.2-6.2-16.3-6.2-22.5,0l0,0
		c-6.2,6.2-6.2,16.3,0,22.5l6.5,6.5l-20.4,20.4l-9.7-9.7c-6.2-6.2-16.3-6.2-22.5,0l0,0c-6.2,6.2-6.2,16.3,0,22.5l9.7,9.7l-20,20
		l-6.5-6.5c-6.2-6.2-16.3-6.2-22.5,0l0,0c-6.2,6.2-6.2,16.3,0,22.5l6.5,6.5l-21,21l-1-1c-6.2-6.2-16.3-6.2-22.5,0l0,0
		c-6.2,6.2-6.2,16.3,0,22.5l24.5,24.5c6.2,6.2,16.3,6.2,22.5,0l0,0c6.2-6.2,6.2-16.3,0-22.5l-1-1l21-21l6.5,6.5
		c6.2,6.2,16.3,6.2,22.5,0l0,0c6.2-6.2,6.2-16.3,0-22.5l-6.5-6.5l20-20l9.7,9.7c6.2,6.2,16.3,6.2,22.5,0l0,0
		c6.2-6.2,6.2-16.3,0-22.5l-9.7-9.7l20.4-20.4l6.5,6.5c6.2,6.2,16.3,6.2,22.5,0l0,0c6.2-6.2,6.2-16.3,0-22.5l-6.5-6.5l20.6-20.6l1,1
		c6.2,6.2,16.3,6.2,22.5,0c6.2-6.2,6.2-16.3,0-22.5L343.1,144.5z"/>
</g>
</svg>
