<?xml version="1.0" encoding="utf-8"?>
<!-- Generator: Adobe Illustrator 21.1.0, SVG Export Plug-In . SVG Version: 6.00 Build 0)  -->
<svg version="1.1" id="_x33_2_2_" xmlns="http://www.w3.org/2000/svg" xmlns:xlink="http://www.w3.org/1999/xlink" x="0px" y="0px"
	 viewBox="0 0 550.1 512" style="enable-background:new 0 0 550.1 512;" xml:space="preserve">
<g id="_x33_2">
	<path d="M302.3,202.4l19.9,23.8c46.1-59.2,87.1-104,148.6-104h26.6l-53.9,53.9l21.5,21.3l80-79.7c2.8-2.8,4.5-6.6,4.5-10.7
		s-1.6-7.9-4.5-10.7l-80.4-79.5l-21.5,21.3L497.4,92h-26.6C396.4,92.1,346.6,146.1,302.3,202.4z"/>
	<path d="M244.8,322C195,377.4,131.2,433,36.4,433H0v-30.2h36.4c39.2,0,75-10.7,109.5-32.6c32-20.4,58.4-47.9,78.3-70.5L244.8,322z"
		/>
	<path d="M542.4,422.2L461.9,502l-21.5-21.3l54.6-54c-115.7,8.3-160-68.8-223-146.5c-42.7-52.7-111.8-161.7-235.6-161.7H0V88.3h36.4
		c127,0,201.7,96.3,260.6,174.6c69,91.9,107.4,140.2,198,133.6l-54.3-53.8l21.5-21.3l80.2,79.6C548.4,406.8,548.4,416.3,542.4,422.2
		z"/>
</g>
</svg>
