<?xml version="1.0" encoding="utf-8"?>
<!-- Generator: Adobe Illustrator 21.1.0, SVG Export Plug-In . SVG Version: 6.00 Build 0)  -->
<svg version="1.1" id="Layer_1" xmlns="http://www.w3.org/2000/svg" xmlns:xlink="http://www.w3.org/1999/xlink" x="0px" y="0px"
	 viewBox="0 0 546 512" style="enable-background:new 0 0 546 512;" xml:space="preserve">
<style type="text/css">
	.st0{fill:#010101;}
</style>
<g>
	<path d="M250.4,387v-25.2c-12.6-1.6-22.8-4.4-30.7-8.5c-7.9-4.1-14.7-10.6-20.4-19.6c-5.7-9-9.1-20.1-10-33.1l25.3-4.8
		c2,13.5,5.4,23.4,10.3,29.8c7.1,9,15.6,13.9,25.5,15v-80.1c-10.3-2-20.9-6-31.7-12c-8-4.5-14.2-10.7-18.5-18.6
		c-4.3-7.9-6.5-16.9-6.5-27c0-17.9,6.3-32.4,19-43.5c8.5-7.5,21.1-12,37.8-13.7v-12h14.8v12c14.6,1.4,26.2,5.7,34.8,12.9
		c11,9.1,17.6,21.7,19.9,37.6l-26,3.9c-1.5-9.9-4.6-17.5-9.3-22.7c-4.7-5.3-11.2-8.7-19.4-10.4v72.6c12.7,3.2,21.1,5.6,25.2,7.4
		c7.8,3.5,14.2,7.6,19.2,12.6c4.9,4.9,8.7,10.8,11.4,17.6c2.7,6.8,4,14.2,4,22.1c0,17.4-5.5,32-16.6,43.6
		c-11.1,11.7-25.5,17.9-43.1,18.7V387H250.4z M250.4,166.6c-9.8,1.5-17.5,5.4-23.1,11.7c-5.6,6.3-8.5,13.8-8.5,22.5
		c0,8.6,2.4,15.8,7.2,21.5c4.8,5.8,12.9,10.4,24.4,13.8V166.6z M265.2,340.6c9.8-1.2,17.9-5.5,24.3-12.7c6.4-7.3,9.6-16.3,9.6-27
		c0-9.1-2.3-16.5-6.8-22c-4.5-5.5-13.5-10.5-27.1-14.9V340.6z"/>
	<path class="st0" d="M511.5,256C511.5,114.8,397,0.3,255.8,0.3S0,114.8,0,256s114.5,255.7,255.7,255.7c8.9,0,16-7.1,16-16
		s-7.1-16-16-16C132.1,479.7,32,379.5,32,256S132.2,32.3,255.7,32.3S479.5,132.4,479.5,256c-0.3,0-9.3,0-9.3,0h-26.7l51.4,67.9
		l51.5-67.9h-26.7C519.7,256,511.8,256,511.5,256z"/>
</g>
</svg>
