<?xml version="1.0" encoding="utf-8"?>
<!-- Generator: Adobe Illustrator 21.1.0, SVG Export Plug-In . SVG Version: 6.00 Build 0)  -->
<svg version="1.1" id="Layer_2" xmlns="http://www.w3.org/2000/svg" xmlns:xlink="http://www.w3.org/1999/xlink" x="0px" y="0px"
	 viewBox="0 0 465.4 512" style="enable-background:new 0 0 465.4 512;" xml:space="preserve">
<g>
	<path d="M360.6,302.5c-54.3,0-98.9,41.3-104.2,94.2h-7.6v-85c31.3-3.9,58.1-17.9,79.4-41.6c21.8-24.2,32.8-53,32.8-85.7l-0.2-37.1
		h-26.8v36.9c0,55.9-45.5,101.3-101.3,101.3c-55.9,0-101.3-45.4-101.3-101.3v-36.9h-26.8v37.1c0,32.6,11,61.4,32.8,85.7
		c21.4,23.8,48.1,37.8,79.4,41.6v85h-7.6c-5.3-52.8-50-94.1-104.2-94.1c-57.9,0-104.8,46.9-104.8,104.8
		c0,56.1,44.1,101.9,99.6,104.6c1.7,0.1,3.4,0.1,5.2,0.1h255.5c57.8,0,104.8-46.9,104.8-104.8S418.5,302.5,360.6,302.5z M31.3,407.3
		c0-40.7,33.1-73.8,73.8-73.8c40.7,0,73.8,33.1,73.8,73.8S145.8,481,105.1,481C64.4,481,31.3,447.9,31.3,407.3z M179,481.5
		c14.2-14.2,24.4-32.4,28.6-52.9H258c4.2,20.4,14.4,38.7,28.6,52.9H179z M360.6,481c-40.7,0-73.8-33.1-73.8-73.8
		s33.1-73.8,73.8-73.8c40.7,0,73.8,33.1,73.8,73.8S401.3,481,360.6,481z"/>
	<path d="M232.8,0c-43.1,0-78.3,35.1-78.3,78.3v102.3c0,43.1,35.1,78.3,78.3,78.3c43.2,0,78.3-35.1,78.3-78.3V78.3
		C311.1,35.1,276,0,232.8,0z M232.8,26.8c28.4,0,51.4,23.1,51.4,51.4V113H181.4V78.3C181.4,49.9,204.4,26.8,232.8,26.8z M232.8,232
		c-28.4,0-51.5-23.1-51.5-51.4v-40.8h102.9v40.8C284.3,209,261.2,232,232.8,232z"/>
	<path d="M209.2,177.5c-3.3,0-6-2.7-6-6c0-3.3,2.7-6.1,6-6.1c3.4,0,6.1,2.7,6.1,6.1C215.2,174.8,212.5,177.5,209.2,177.5z
		 M233.4,177.5c-3.3,0-6.1-2.7-6.1-6c0-3.3,2.7-6.1,6.1-6.1c3.3,0,6.1,2.7,6.1,6.1C239.5,174.8,236.8,177.5,233.4,177.5z
		 M256.9,177.5c-3.3,0-6.1-2.7-6.1-6c0-3.3,2.7-6.1,6.1-6.1c3.4,0,6.1,2.7,6.1,6.1C263,174.8,260.3,177.5,256.9,177.5z"/>
</g>
</svg>
