<?xml version="1.0" encoding="utf-8"?>
<!-- Generator: Adobe Illustrator 21.1.0, SVG Export Plug-In . SVG Version: 6.00 Build 0)  -->
<svg version="1.1" id="Layer_2" xmlns="http://www.w3.org/2000/svg" xmlns:xlink="http://www.w3.org/1999/xlink" x="0px" y="0px"
	 viewBox="0 0 550 512" style="enable-background:new 0 0 550 512;" xml:space="preserve">
<g>
	<g>
		<polygon points="228.8,498.5 44.2,498.6 62.5,465.2 228.6,465.4 		"/>
	</g>
	<g>
		<polygon points="143,315.6 123.6,302.6 19.2,490.9 0,458.5 96.5,284.6 76.8,271.7 131.2,256.1 		"/>
	</g>
	<g>
		<polygon points="544.1,428.5 506.8,428.8 424.6,280.2 452.5,263.7 		"/>
	</g>
	<g>
		<polygon points="550,454.8 532.2,487.9 337.8,487.8 336.6,512 296.4,471.1 340.7,431 339.5,454.8 		"/>
	</g>
	<g>
		<polygon points="413.5,162.6 399.2,218.7 343.4,199.3 364,188.5 258.8,0.7 295.7,0 296.4,1.3 392.7,173.5 		"/>
	</g>
	<g>
		<polygon points="258.6,52.2 174.6,199.8 146.7,183.1 239.8,18.9 		"/>
	</g>
</g>
</svg>
