<?xml version="1.0" encoding="utf-8"?>
<!-- Generator: Adobe Illustrator 21.1.0, SVG Export Plug-In . SVG Version: 6.00 Build 0)  -->
<svg version="1.1" id="Layer_1" xmlns="http://www.w3.org/2000/svg" xmlns:xlink="http://www.w3.org/1999/xlink" x="0px" y="0px"
	 viewBox="0 0 512 512" style="enable-background:new 0 0 512 512;" xml:space="preserve">
<style type="text/css">
	.st0{fill:#010101;}
</style>
<path class="st0" d="M119.2,41.5C240.5-35.6,402.9-2.1,482,116.4c0.3-0.2,7.1-4.5,7.1-4.5L512,97.3l-6.3,85.1l-82.2-28.9l23-14.6
	c0,0,7.7-4.9,8-5.1C385.3,30.1,243.1,0.9,137,68.4S1,274.5,70.1,378.1s211.3,133,317.3,65.5c7.7-4.9,17.7-2.8,22.7,4.7
	s2.9,17.3-4.8,22.2c-121.3,77.1-283.7,43.6-362.8-74.9S-2.1,118.6,119.2,41.5z"/>
</svg>
