<?xml version="1.0" encoding="utf-8"?>
<!-- Generator: Adobe Illustrator 21.1.0, SVG Export Plug-In . SVG Version: 6.00 Build 0)  -->
<svg version="1.1" id="Layer_1" xmlns="http://www.w3.org/2000/svg" xmlns:xlink="http://www.w3.org/1999/xlink" x="0px" y="0px"
	 viewBox="0 0 550.4 512" style="enable-background:new 0 0 550.4 512;" xml:space="preserve">
<path id="_x33_2_1_" d="M278.5,10.7c142.3-0.3,221.4,96.2,253.8,162.7c22.2,45.5,22.7,98.1,6.9,146.8
	c-14.3,44.7-43.9,82.6-83.2,105.5c-41.2,24.4-91.1,30.5-136.4,16.8c-55.9-16.3-101.8-60.8-121.2-119.2
	c-7.7-23.6-12.3-45.3-11.4-66.6l0.6-13.7l34.9-0.7l-53.2-56.9l-53,56.6l35.3,0.1c0,0,0.3,27.3,0.3,28.8c2.3,49.3,14,84.8,39.1,118.7
	l0.2,0.2c23.2,32.6,55.6,56.8,93.8,69.9c69.7,27,135.7,1.6,135.7,1.6s-158,106.7-322-16.9C65.6,419.5,33.6,375.8,19,344
	c-21.4-46.1-24.5-100.3-8.5-148.7c14.3-44.7,45-83.5,84.2-106.5c41.2-24.4,91.6-32.4,136.4-16.8c147.6,51.7,132.1,199.7,132.1,199.7
	l-34.9,0.7l53.1,56.9l52.9-56.6l-35.5-0.1c0,0,19.7-161.1-133.2-217.4c-72.4-26.7-135.8-1.7-135.8-1.7S191,10.9,278.5,10.7z
	 M379.5,420.3c56.4,0,141.1-63.2,141.1-158.4c0-138.4-130-209.4-215.6-221.9c31.2,16,57.9,39.1,78.4,67.9
	c28.8,38.8,42.1,79.1,44.7,134.7v0.9l66.4,1.3l-115,125.2L266.8,243c0,0,54.9,0.1,67.4,0c-0.9-13.8-3.9-25.5-8.8-40.5
	c-16.4-49.4-55.7-88.7-102.6-102.3l-0.2-0.1c-37.7-11.4-78.9-6.3-113.2,14c-33.1,19.4-59,52.3-71.2,90.3l-0.1,0.2
	c-13.5,40.8-10.8,88.3,7.2,127.2v0.1c15.6,34,45,71.3,69.8,88.6c48.7,34.4,94.6,48.8,130.2,54.3c-31.1-16-57.8-39-78.3-67.8
	c-28.8-38.8-42.1-79.1-44.7-134.7v-0.1c0-0.3,0-0.5,0-0.8c-2.1,0-66.4-1.3-66.4-1.3l115-125.3l112.8,126.9c0,0-54.9-0.1-67.4,0
	C227.3,368,293,420.3,379.5,420.3z"/>
</svg>
