<?xml version="1.0" encoding="utf-8"?>
<!-- Generator: Adobe Illustrator 21.1.0, SVG Export Plug-In . SVG Version: 6.00 Build 0)  -->
<svg version="1.1" id="Layer_1" xmlns="http://www.w3.org/2000/svg" xmlns:xlink="http://www.w3.org/1999/xlink" x="0px" y="0px"
	 viewBox="0 0 512 512" style="enable-background:new 0 0 512 512;" xml:space="preserve">
<style type="text/css">
	.st0{fill:#010101;}
</style>
<path class="st0" d="M392.8,41.5C271.5-35.6,109.1-2.1,30,116.4c-0.3-0.2-7.1-4.5-7.1-4.5L0,97.3l6.3,85.1l82.2-28.9l-23-14.6
	c0,0-7.7-4.9-8-5.1C126.7,30.1,269,0.9,375,68.4s136,206.2,66.9,309.8s-211.3,132.9-317.3,65.4c-7.7-4.9-17.7-2.8-22.7,4.7
	s-2.9,17.3,4.8,22.2c121.3,77.1,283.7,43.6,362.8-74.9S514.1,118.6,392.8,41.5z"/>
</svg>
