<?xml version="1.0" encoding="utf-8"?>
<!-- Generator: Adobe Illustrator 21.1.0, SVG Export Plug-In . SVG Version: 6.00 Build 0)  -->
<svg version="1.1" id="Layer_1" xmlns="http://www.w3.org/2000/svg" xmlns:xlink="http://www.w3.org/1999/xlink" x="0px" y="0px"
	 viewBox="0 0 550 512" style="enable-background:new 0 0 550 512;" xml:space="preserve">
<g>
	<g>
		<path d="M550,344.5c0,31.8-12.8,75.1-38.4,129.9c-0.8,1.9-7.4,17.1-11.4,21.7c-2.2,3.3-4.9,5-8.2,5c-8.9,0-8.2-17.6-8.2-24.5
			c0.8-12.9,1.2-24.7,1.2-35.3c0-134-93-161.8-151.6-161.8h-133v116L0,204.3L200.4,14v117.9h68.3C464.3,131.9,550,203.8,550,344.5z
			 M511.9,394.6C546.8,226.3,446,162,271.8,162c-7.1,0-58.2,0-58.2,0h-44.8V86.4l-124.1,118l124,118.4v-73.3h44.8c0,0,103,0,110,0
			C427.2,249.5,491.9,296.2,511.9,394.6z"/>
	</g>
</g>
</svg>
