<?xml version="1.0" encoding="utf-8"?>
<!-- Generator: Adobe Illustrator 21.1.0, SVG Export Plug-In . SVG Version: 6.00 Build 0)  -->
<svg version="1.1" id="Layer_1" xmlns="http://www.w3.org/2000/svg" xmlns:xlink="http://www.w3.org/1999/xlink" x="0px" y="0px"
	 viewBox="0 0 545.2 512" style="enable-background:new 0 0 545.2 512;" xml:space="preserve">
<style type="text/css">
	.st0{fill:#010101;}
</style>
<g>
	<path d="M367.4,47.8c21.9,21.1,43.3,43,64.1,64.3c24.3,24.9,49.2,50.5,75.3,75.1c-7,14.1-17.2,27.7-31.1,41.6
		c-26.5,26.5-62.5,50.4-104.2,78.1c-52.1,34.5-111.1,73.7-165.6,128.3c-8.8,8.8-17.4,17.9-25.4,27c-0.7,0.7-1.3,1.5-2,2.2
		c-34-33.2-96.9-95.7-138-140.9c7.8-11.1,17.6-22.5,29.4-34.3c35-35,83.5-68.9,130.4-101.7c49.6-34.7,100.8-70.5,140.3-110
		C350.7,67.5,359.6,57.6,367.4,47.8 M362.7,0.1c-0.4,0-0.8,0.2-1.2,0.6c-0.4,0.4-0.8,0.9-1.2,1.6c-11,18.3-25.4,35.7-42.2,52.5
		c-74.8,74.8-196.7,137.7-270.7,211.8C28,285.9,12,305.9,0.9,327.1c54.8,63.5,179.6,184.3,180.4,184.3c0,0,0,0,0,0
		c7.5-9.7,15.3-19,23.2-27.9c7.9-8.9,15.9-17.4,24.1-25.6c95.2-95.2,206-142.5,269.8-206.3c21.6-21.6,37.8-45,46.3-72.9
		C481.9,121.6,427,58,364.3,1l-0.6-0.4C363.3,0.3,363,0.1,362.7,0.1L362.7,0.1z"/>
	<path d="M347.3,239.1l20.7,20.7c31.9-21.3,59.9-40.6,81.4-60.9l-23.2-23.2C402.2,197.9,375.1,218.9,347.3,239.1z"/>
	<path d="M359.4,108.9c-24,22.2-51,43.1-78.9,63.4l20.7,20.7c31.9-21.3,59.9-40.6,81.4-60.9L359.4,108.9z"/>
	<path d="M228.9,312.4c-0.1,0.1-0.2,0.1-0.2,0.2l-0.1,0c-0.3,0.3-13.3,13.1-17.4,17.2l-1.2,1.2c-2.8,2.8-8.2,2.5-10.7,1
		c-1.1-0.6-2.9-1.9-3.5-2.3c-6.7-6-21.2-16.4-27.4-20.8c-3.2-2.3-3.3-2.4-3.5-2.6c-0.7-0.7-5.6-8.5-3-11c1.5-1.5,3-0.8,5.3,0.3
		c8.5,3.8,18.4,12.4,27.1,20.1c1.9,1.6,3.7,3.2,5.3,4.6c0.3,0.3,1.5,0,2.4-0.9c0.6-0.6,9.4-9.2,13.2-12.9c-0.7-0.4-1.5-0.9-2.3-1.5
		c-1.6-1-3.1-1.3-4.5-1.7c-1.6-0.4-3.2-0.8-4.8-2c-2.4-1.8-4.1-4.7-4.3-7.1c-0.1-1.6,0.5-2.5,1-3c2.8-2.8,9.4-1.2,16.1,3.9
		c4.4,3.3,9.7,9.5,11.7,11.8c0.4,0.4,0.6,0.7,0.7,0.8c0.8,0.8,1.2,1.7,1.2,2.6C229.8,311.3,229.3,312,228.9,312.4z"/>
	<path d="M250.9,329.7c-3.2,3.2-7.4,5.2-12.1,7.4c-1.6,0.7-3.2,1.5-4.9,2.4l-0.3,0.1c-1.5,0.5-3.1,0-3.9-1.3
		c-0.8-1.3-0.7-2.9,0.3-3.9c0.8-0.8,1.9-1.6,3.5-2.7c1.5-1.1,3.5-2.4,5.3-4c6.3-5.5,8.1-14.4,5.6-27.1c-1.2-6.1-6.4-6.9-14.3-7.5
		l-0.9-0.1c-3-0.2-5.4-0.6-6.3-0.8l-0.2,0c-1.6,0-3.1-0.7-4.3-1.8c-1.2-1.2-1.9-2.7-1.9-4.4c0-3.4,2.8-6.2,6.3-6.2
		c0.1,0,7.4,0,15.6,1.5l0,0c5,0.9,7.8,3.1,12,7.3c4.1,4.1,6,9.2,6.4,17.1c0,0.9,0.1,1.8,0.2,2.7c0.4,5.3,0.9,11.2-3.7,18.2
		C252.6,327.8,251.8,328.8,250.9,329.7z M232.9,337.2C232.9,337.2,232.9,337.2,232.9,337.2C232.9,337.2,232.9,337.2,232.9,337.2z"/>
	<path d="M186.1,371.3c-3.6,3.6-9.1,8.2-15.6,8.3c-4.2,0.1-8.2-1.8-12-5.5c-2.6-2.6-6.8-12.2-7.7-16.7c-0.7-3.3,1.3-5.6,3.4-6.1
		c2.1-0.5,4.8,0.7,5.7,4.5c0.3,1.1,0.9,3,3.5,8.2c1.2,2.4,3,3,6.5,2.1c3.6-0.9,6.2-3.7,8.4-6c0.4-0.4,0.7-0.8,1.1-1.1
		c3.9-3.9,5.8-7.2,5.7-10.2c0-3.7-3-7.3-7.5-11.5c-8.8-8.4-17.4-14-23.8-18.1c-3.8-2.5-6.6-4.2-8-5.8c-0.1-0.1-4.9-5.6-3.2-8.7
		c1.2-2.1,3.5-1.9,4.8-1.8c0.6,0,1.2,0.1,1.6,0l0.4-0.1c3.4-0.7,7.3-1.4,10,1.5c1.4,1.6,2.1,5,2.4,7.7c2.1,2,12.9,11,25.2,20.5
		c6.6,5,10.3,10.9,10.7,17c0.4,6.1-2.4,12.3-8.5,18.3c-0.4,0.4-0.8,0.8-1.2,1.3C187.6,369.8,186.9,370.5,186.1,371.3z"/>
	<path class="st0" d="M231.2,331.1c0.8,0,1.4-0.6,1.5-1.4l0.2-6.2c0-0.8-0.6-1.4-1.3-1.5l-7.4-0.5c-0.8,0-1.5,0.6-1.5,1.4l-0.1,6.5
		c0,0.2,0,0.4,0.1,0.6l-7.1-0.5c-0.8,0-1.5,0.6-1.5,1.4l-0.1,6.5c0,0.8,0.6,1.4,1.4,1.4l7.2,0.3c0.8,0,1.4-0.6,1.5-1.4l0.2-6.2
		c0-0.2,0-0.4-0.1-0.6L231.2,331.1z"/>
</g>
</svg>
