<?xml version="1.0" encoding="utf-8"?>
<!-- Generator: Adobe Illustrator 21.1.0, SVG Export Plug-In . SVG Version: 6.00 Build 0)  -->
<svg version="1.1" id="Layer_2" xmlns="http://www.w3.org/2000/svg" xmlns:xlink="http://www.w3.org/1999/xlink" x="0px" y="0px"
	 viewBox="0 0 620.5 512" style="enable-background:new 0 0 620.5 512;" xml:space="preserve">
<g>
	<g>
		<path d="M319.4,96.4h-18.3l-14.5,187.5h47.2L319.4,96.4z M286.6,283.9L286.6,283.9L286.6,283.9L286.6,283.9z M264.8,512L264.8,512
			L264.8,512L264.8,512z M283.9,334.3L264.8,512h92.5l-20.7-177.7H283.9z M302.8,72.3L302.8,72.3L302.8,72.3L302.8,72.3z M311.9,0
			h-1l-8.2,72.3h15L311.9,0z M248.5,0L0,512h57.3L252,0H248.5z M78.3,512h26.8L258.5,0h-3.2L78.3,512z M372,0h-3.4l194.1,512h57.1
			L372,0z M362,0l152.8,512h26.8L365.2,0H362z"/>
	</g>
</g>
</svg>
