<?xml version="1.0" encoding="utf-8"?>
<!-- Generator: Adobe Illustrator 21.1.0, SVG Export Plug-In . SVG Version: 6.00 Build 0)  -->
<svg version="1.1" id="_x33_2" xmlns="http://www.w3.org/2000/svg" xmlns:xlink="http://www.w3.org/1999/xlink" x="0px" y="0px"
	 viewBox="0 0 550 512" style="enable-background:new 0 0 550 512;" xml:space="preserve">
<g>
	<g>
		<path d="M550,470.5h-56.3l-0.7-0.8l-150.5-163l3.3-3.5l66.8,55.1c24.5-30.9,37.9-69.5,37.9-109c0-97-78.9-176-175.8-176
			c-97,0-175.9,78.9-175.9,175.9c0,39.8,13.5,78.5,38.1,109.4l67.4-55.5l3.3,3.5L56.4,470.5H0l112.7-91.9
			C83.4,342,67.3,296.2,67.3,249.3c0-55.4,21.6-107.4,60.7-146.6C167.2,63.5,219.2,42,274.6,42S382,63.5,421.2,102.7
			c39.1,39.2,60.7,91.2,60.7,146.6c0,46.7-15.9,92.4-45,128.9L550,470.5z"/>
	</g>
	<g>
		<polygon points="288.8,357 260.9,357 270,310.8 279.6,310.8 280.3,313.9 		"/>
	</g>
	<g>
		<polygon points="302,423.5 247.8,423.5 260.3,360.5 289.5,360.5 		"/>
	</g>
	<g>
		<polygon points="311.6,471.3 238.3,471.3 245.4,435.6 304.3,435.6 		"/>
	</g>
</g>
</svg>
