<?xml version="1.0" encoding="utf-8"?>
<!-- Generator: Adobe Illustrator 21.1.0, SVG Export Plug-In . SVG Version: 6.00 Build 0)  -->
<svg version="1.1" id="Layer_1" xmlns="http://www.w3.org/2000/svg" xmlns:xlink="http://www.w3.org/1999/xlink" x="0px" y="0px"
	 viewBox="0 0 384.3 512" style="enable-background:new 0 0 384.3 512;" xml:space="preserve">
<g>
	<path d="M323.5,69.4c19.7,11.5,39.2,19.2,60.8,19c0,0-5.9-78-21.4-86.9s-85.7,24.8-86.1,24.7C288.1,45.3,304.5,58.3,323.5,69.4z
		 M119.1,417c-7.2-4.8-14.9-6.9-23-6.2c-8.3,0.2-15.5,3.3-21.6,9.4c-8.8,10.6-13.9,25.3-15.5,44.1c-0.5,6-0.6,14-0.3,24l0.1,11.9
		l0.4,11.8l10.3-5l10.3-5c7.8-4.2,14.4-8,19.7-11.5c14.2-9.2,25-19.6,32.2-31.3c4.1-7.9,4.7-15.9,1.7-23.9
		C130.8,428,126,421.9,119.1,417z M111.4,198.6C37.2,202.3,0,292.4,0,292.4l86.7,1C86.7,293.4,97.6,233.1,111.4,198.6z M249.3,387.2
		l43.3,74.1c0,0,59.2-77.3,26.1-143.1C295.8,347.5,249.3,387.2,249.3,387.2z M258.5,37.7c-36.9,25-75.1,59.8-101.7,105.9
		c-30.4,52.6-46.4,107.3-51.6,153.5c60.1-0.4,102,23.8,130.6,75.4c37.4-27.6,76.8-68.9,107.1-121.5c26.6-46.1,37.7-96.6,40.9-141.1
		C336.8,102,287.8,76,258.5,37.7z M342.5,138.4c0,0-7.9,50.4-32.1,93.3c-25.9,46-68,84.8-68,84.8s-18.7-20.4-41.9-33.7
		c-23.4-13.5-51.2-20-51.2-20s13.6-56,40.4-100.7c25.4-42.3,64.2-73.4,64.2-73.4s19.5,17.1,41.6,29.5
		C317.8,130.5,342.5,138.4,342.5,138.4z M174,328.7C115.8,295.1,41.4,315,7.9,373.2c43.7-14.3,79.3-10.4,103-3.7
		c-4.5,4.3-32.2,32.3-32.2,32.3l51.7,2.6l28.1,43.5c0,0,11.3-41.3,11.9-44.2c17.5,16.9,38.7,45.7,48.2,91.1
		C252.1,436.7,232.2,362.3,174,328.7z"/>
	<path d="M267.2,133.1c-15.6,0-28.2,12.6-28.2,28.2s12.6,28.2,28.2,28.2s28.2-12.6,28.2-28.2S282.7,133.1,267.2,133.1z M267.2,176.5
		c-8.4,0-15.2-6.8-15.2-15.2c0-8.4,6.8-15.2,15.2-15.2c8.4,0,15.2,6.8,15.2,15.2C282.3,169.7,275.5,176.5,267.2,176.5z"/>
	<path d="M237.8,196.9c-8.6,0-15.5,6.9-15.5,15.5c0,8.6,6.9,15.5,15.5,15.5c8.6,0,15.5-6.9,15.5-15.5
		C253.3,203.8,246.3,196.9,237.8,196.9z M237.8,220.7c-4.6,0-8.4-3.7-8.4-8.4c0-4.6,3.7-8.3,8.4-8.3c4.6,0,8.3,3.7,8.3,8.3
		C246.1,217,242.4,220.7,237.8,220.7z"/>
	<path d="M215.1,235.3c-8.5,0-15.5,6.9-15.5,15.5c0,8.6,7,15.5,15.5,15.5c8.6,0,15.5-6.9,15.5-15.5
		C230.6,242.2,223.6,235.3,215.1,235.3z M215.1,259.1c-4.6,0-8.3-3.7-8.3-8.3c0-4.6,3.7-8.3,8.3-8.3c4.6,0,8.3,3.7,8.3,8.3
		C223.4,255.4,219.7,259.1,215.1,259.1z"/>
</g>
</svg>
