<?xml version="1.0" encoding="utf-8"?>
<!-- Generator: Adobe Illustrator 21.1.0, SVG Export Plug-In . SVG Version: 6.00 Build 0)  -->
<svg version="1.1" id="Layer_1" xmlns="http://www.w3.org/2000/svg" xmlns:xlink="http://www.w3.org/1999/xlink" x="0px" y="0px"
	 viewBox="0 0 294.7 512" style="enable-background:new 0 0 294.7 512;" xml:space="preserve">
<g>
	<path d="M45.3,255.6c-53.8,34.8-42.7,118-42.7,118L67.7,337C67.7,337,49.9,287.3,45.3,255.6z M213.1,331.8
		c16-36.7,27.6-84.5,27.6-136.8c0-45.9-13.5-88.3-30.3-122.9c-38.6,14.2-86.3,16-124.6,0C69,106.7,55.5,149.1,55.5,195
		c0,52.3,11.6,100.1,27.6,136.8C127.8,305.6,169.5,305.6,213.1,331.8z M88.1,194.5c0.7-42.5,16.3-82.4,16.3-82.4s21.9,4.3,43.8,4.1
		c21.9-0.3,43.8-5.1,43.8-5.1s15.8,41,16.3,83.4c0.5,45.5-14.2,92.6-14.2,92.6s-22.8-7.1-45.8-7.1c-23.3,0-46.8,7.1-46.8,7.1
		S87.3,239.5,88.1,194.5z M201.5,55.8c0,0-38-55.6-53.4-55.6S94.8,55.7,94.5,55.7c16.7,9.4,34.5,12.1,53.5,12.2
		C167.6,67.9,185.5,65.3,201.5,55.8z M163.7,422.8c-5-4.3-11.2-6.9-18.5-7.5c-7.5-0.5-14.1,1.3-19.9,5.3
		c-6.1,3.7-10.1,9.1-12.1,16.3c-2,11.7,0.5,24.9,7.4,39.5c2.2,4.7,5.6,10.7,10.1,18l5.2,8.9l5.5,8.6l5.5-8.1l5.5-8.1
		c4-6.5,7.3-12.2,9.7-17.1c6.7-13,10.2-25.4,10.6-37.3C172.4,433.7,169.4,427.5,163.7,422.8z M148.1,325.8
		c-57.9,0-104.8,46.9-104.8,104.8c26.4-29.5,54.7-41.9,75.3-47.1c-1.5,5.2-10.1,38-10.1,38l39.7-20.4l39.7,20.4
		c0,0-9.4-35.7-10.1-38.1c20.3,5.1,48.6,17.5,75.3,47.2C252.9,372.7,206,325.8,148.1,325.8z M251.6,255.6
		c-4.5,31.7-22.1,81.4-22.1,81.4l64.2,36.6C293.7,373.6,304.6,290.4,251.6,255.6z"/>
	<path d="M148.2,129.7c-15.6,0-28.2,12.6-28.2,28.2s12.6,28.2,28.2,28.2s28.2-12.6,28.2-28.2S163.8,129.7,148.2,129.7z M148.2,173.1
		c-8.4,0-15.2-6.8-15.2-15.2c0-8.4,6.8-15.2,15.2-15.2c8.4,0,15.2,6.8,15.2,15.2C163.4,166.3,156.6,173.1,148.2,173.1z"/>
	<path d="M148,194.1c-8.6,0-15.5,6.9-15.5,15.5c0,8.6,6.9,15.5,15.5,15.5c8.6,0,15.5-6.9,15.5-15.5
		C163.5,201.1,156.6,194.1,148,194.1z M148,218c-4.6,0-8.4-3.7-8.4-8.4c0-4.6,3.7-8.3,8.4-8.3c4.6,0,8.3,3.7,8.3,8.3
		C156.3,214.2,152.6,218,148,218z"/>
	<path d="M148,233.1c-8.5,0-15.5,6.9-15.5,15.5s7,15.5,15.5,15.5c8.6,0,15.5-6.9,15.5-15.5S156.5,233.1,148,233.1z M148,257
		c-4.6,0-8.3-3.7-8.3-8.3c0-4.6,3.7-8.3,8.3-8.3c4.6,0,8.3,3.7,8.3,8.3C156.3,253.3,152.6,257,148,257z"/>
</g>
</svg>
