<?xml version="1.0" encoding="utf-8"?>
<!-- Generator: Adobe Illustrator 21.1.0, SVG Export Plug-In . SVG Version: 6.00 Build 0)  -->
<svg version="1.1" id="Layer_3" xmlns="http://www.w3.org/2000/svg" xmlns:xlink="http://www.w3.org/1999/xlink" x="0px" y="0px"
	 viewBox="0 0 512 512" style="enable-background:new 0 0 512 512;" xml:space="preserve">
<g>
	<path d="M308.9,249L257,300.9L205.1,249H247V65.3c-10.9,0.6-21.6,2-32,4.4C129.7,88.8,66,164.9,66,256c0,105.5,85.5,191,191,191
		s191-85.5,191-191c0-91.1-63.7-167.2-149-186.4c-10.4-2.3-21.1-3.8-32-4.4V249H308.9z M359.2,217H299V102.6
		C366.4,121,416,182.7,416,256c0,87.8-71.2,159-159,159S98,343.8,98,256c0-73.3,49.6-135,117-153.4V217h-60.2
		c-10,0-14.9,12-7.9,19.1l110.1,110L367.1,236C374.1,229,369.1,217,359.2,217z"/>
	<path d="M1,256c0,141.4,114.6,256,256,256s256-114.6,256-256S398.4,0,257,0S1,114.6,1,256z M480,256c0,123.2-99.8,223-223,223
		S34,379.2,34,256S133.8,33,257,33S480,132.8,480,256z"/>
</g>
</svg>
