<?xml version="1.0" encoding="utf-8"?>
<!-- Generator: Adobe Illustrator 21.1.0, SVG Export Plug-In . SVG Version: 6.00 Build 0)  -->
<svg version="1.1" id="Layer_3" xmlns="http://www.w3.org/2000/svg" xmlns:xlink="http://www.w3.org/1999/xlink" x="0px" y="0px"
	 viewBox="0 0 512 512" style="enable-background:new 0 0 512 512;" xml:space="preserve">
<g>
	<path d="M264,307.9L212.1,256l51.9-51.9V246h183.7c-0.6-10.9-2-21.6-4.4-32C424.2,128.7,348.1,65,257,65C151.5,65,66,150.5,66,256
		s85.5,191,191,191c91.1,0,167.2-63.7,186.4-149c2.3-10.4,3.8-21.1,4.4-32H264V307.9z M296,358.2V298h114.4
		C392,365.4,330.3,415,257,415c-87.8,0-159-71.2-159-159S169.2,97,257,97c73.3,0,135,49.6,153.4,117H296v-60.2
		c0-10-12-14.9-19.1-7.9L166.9,256L277,366.1C284,373.1,296,368.1,296,358.2z"/>
	<path d="M257,0C115.6,0,1,114.6,1,256s114.6,256,256,256s256-114.6,256-256S398.4,0,257,0z M257,479c-123.2,0-223-99.8-223-223
		S133.8,33,257,33s223,99.8,223,223S380.2,479,257,479z"/>
</g>
</svg>
