<?xml version="1.0" encoding="utf-8"?>
<!-- Generator: Adobe Illustrator 22.0.1, SVG Export Plug-In . SVG Version: 6.00 Build 0)  -->
<svg version="1.1" id="Layer_1" xmlns="http://www.w3.org/2000/svg" xmlns:xlink="http://www.w3.org/1999/xlink" x="0px" y="0px"
	 viewBox="0 0 512 512" style="enable-background:new 0 0 512 512;" xml:space="preserve">
<path id="_x33_2_3_" d="M512,368H149V0H0v512h512V368z M481,480H32V32h85v34H88.5c-1.2,0-2.4,0.5-3.2,1.3c-0.8,0.8-1.3,1.9-1.3,3.2
	c0,2.5,2,4.5,4.5,4.5H117v26H88.5c-1.2,0-2.4,0.5-3.2,1.3c-0.8,0.8-1.3,1.9-1.3,3.2c0,2.5,2,4.5,4.5,4.5H117v27H88.5
	c-1.2,0-2.4,0.5-3.2,1.3c-0.8,0.8-1.3,1.9-1.3,3.2c0,2.5,2,4.5,4.5,4.5H117v26H72.5h-10c-1.2,0-2.4,0.5-3.2,1.3
	c-0.8,0.8-1.3,1.9-1.3,3.2c0,2.5,2,4.5,4.5,4.5h10H117v26H88.5c-1.2,0-2.4,0.5-3.2,1.3c-0.8,0.8-1.3,1.9-1.3,3.2
	c0,2.5,2,4.5,4.5,4.5H117v27H88.5c-1.2,0-2.4,0.5-3.2,1.3c-0.8,0.8-1.3,1.9-1.3,3.2c0,2.5,2,4.5,4.5,4.5H117v26H88.5
	c-1.2,0-2.4,0.5-3.2,1.3c-0.8,0.8-1.3,1.9-1.3,3.2c0,2.5,2,4.5,4.5,4.5H117v26H72.5h-10c-1.2,0-2.4,0.5-3.2,1.3
	c-0.8,0.8-1.3,1.9-1.3,3.2c0,2.5,2,4.5,4.5,4.5h10H117v26H88.5c-1.2,0-2.4,0.5-3.2,1.3c-0.8,0.8-1.3,1.9-1.3,3.2
	c0,2.5,2,4.5,4.5,4.5H117v11v22v10h48v26.5c0,1.2,0.5,2.4,1.3,3.2c0.8,0.8,1.9,1.3,3.2,1.3c2.5,0,4.5-2,4.5-4.5V400h27v26.5
	c0,1.2,0.5,2.4,1.3,3.2c0.8,0.8,1.9,1.3,3.2,1.3c2.5,0,4.5-2,4.5-4.5V400h26v41.5v10c0,1.2,0.5,2.4,1.3,3.2c0.8,0.8,1.9,1.3,3.2,1.3
	c2.5,0,4.5-2,4.5-4.5v-10V400h26v26.5c0,1.2,0.5,2.4,1.3,3.2c0.8,0.8,1.9,1.3,3.2,1.3c2.5,0,4.5-2,4.5-4.5V400h27v26.5
	c0,1.2,0.5,2.4,1.3,3.2c0.8,0.8,1.9,1.3,3.2,1.3c2.5,0,4.5-2,4.5-4.5V400h26v26.5c0,1.2,0.5,2.4,1.3,3.2c0.8,0.8,1.9,1.3,3.2,1.3
	c2.5,0,4.5-2,4.5-4.5V400h28v41.5v10c0,1.2,0.5,2.4,1.3,3.2c0.8,0.8,1.9,1.3,3.2,1.3c2.5,0,4.5-2,4.5-4.5v-10V400h25v26.5
	c0,1.2,0.5,2.4,1.3,3.2c0.8,0.8,1.9,1.3,3.2,1.3c2.5,0,4.5-2,4.5-4.5V400h27v26.5c0,1.2,0.5,2.4,1.3,3.2c0.8,0.8,1.9,1.3,3.2,1.3
	c2.5,0,4.5-2,4.5-4.5V400h23V480z"/>
</svg>
