<?xml version="1.0" encoding="utf-8"?>
<!-- Generator: Adobe Illustrator 21.1.0, SVG Export Plug-In . SVG Version: 6.00 Build 0)  -->
<svg version="1.1" id="Layer_1" xmlns="http://www.w3.org/2000/svg" xmlns:xlink="http://www.w3.org/1999/xlink" x="0px" y="0px"
	 viewBox="0 0 442 512" style="enable-background:new 0 0 442 512;" xml:space="preserve">
<style type="text/css">
	.st0{fill-rule:evenodd;clip-rule:evenodd;}
</style>
<path id="_x33_2_1_" class="st0" d="M162,331.5L162.1,0H0v512h442V331.7L162,331.5z M155.8,363.4l0,48.5l27.4,0l0-48.5l40.5,0
	l0.2,48.5l27.1,0l-0.1-48.5l41.1,0l-0.1,48.5l27.1,0l0.1-48.5l40.8,0l-0.2,48.5l27.5,0l-0.1-48.5l22.9,0v116.8l-378-0.7L32,32.1
	h96.8v27.8L88,59.7v31.9l40.8,0.5v47.5L88,139.3v32.6l40.8,0.2v47.7L88,219.8v32l40.8,0.3v47.5L88,300v32l40.8-0.4v31.7L155.8,363.4
	z"/>
</svg>
