<?xml version="1.0" encoding="utf-8"?>
<!-- Generator: Adobe Illustrator 21.1.0, SVG Export Plug-In . SVG Version: 6.00 Build 0)  -->
<svg version="1.1" id="Layer_6" xmlns="http://www.w3.org/2000/svg" xmlns:xlink="http://www.w3.org/1999/xlink" x="0px" y="0px"
	 viewBox="0 0 253 512" style="enable-background:new 0 0 253 512;" xml:space="preserve">
<g>
	<path d="M0,0v512h253V0H0z M221,480H32v-37h79v-23H32v-22h50v-23H32v-22h79v-23H32v-22h49v-23H32v-22h80v-23H32v-22h49v-23H32v-22
		h79v-23H32V32h189V480z"/>
	<path d="M162.4,118.6c16.6,0,30.1-13.5,30.1-30.1S179,58.4,162.4,58.4c-16.6,0-30.1,13.5-30.1,30.1S145.8,118.6,162.4,118.6z
		 M162.4,66.2c12.3,0,22.3,10,22.3,22.3c0,12.3-10,22.3-22.3,22.3c-12.3,0-22.3-10-22.3-22.3C140.1,76.2,150.1,66.2,162.4,66.2z"/>
</g>
</svg>
