<?xml version="1.0" encoding="utf-8"?>
<!-- Generator: Adobe Illustrator 21.1.0, SVG Export Plug-In . SVG Version: 6.00 Build 0)  -->
<svg version="1.1" id="Layer_1" xmlns="http://www.w3.org/2000/svg" xmlns:xlink="http://www.w3.org/1999/xlink" x="0px" y="0px"
	 viewBox="0 0 545.2 512" style="enable-background:new 0 0 545.2 512;" xml:space="preserve">
<g id="_x33_2">
	<path d="M367.2,48c21.9,21.1,43.3,43,64.1,64.3c24.3,24.9,49.2,50.5,75.3,75.1c-7,14.1-17.2,27.7-31.1,41.6
		c-26.5,26.5-62.5,50.4-104.2,78.1c-52.1,34.5-111.1,73.7-165.6,128.3c-8.8,8.8-17.4,17.9-25.4,27c-0.7,0.7-1.3,1.5-2,2.2
		c-34-33.2-96.9-95.7-138-140.9c7.8-11.1,17.6-22.5,29.4-34.3c35-35,83.5-68.9,130.4-101.7c49.6-34.7,100.8-70.5,140.3-110
		C350.5,67.7,359.4,57.8,367.2,48 M362.5,0.3c-0.4,0-0.8,0.2-1.2,0.6c-0.4,0.4-0.8,0.9-1.2,1.6c-11,18.3-25.4,35.7-42.2,52.5
		c-74.8,74.8-196.7,137.7-270.7,211.8c-19.4,19.3-35.4,39.3-46.5,60.5c54.8,63.5,179.6,184.3,180.4,184.3l0,0
		c7.5-9.7,15.3-19,23.2-27.9s15.9-17.4,24.1-25.6c95.2-95.2,206-142.5,269.8-206.3c21.6-21.6,37.8-45,46.3-72.9
		C481.7,121.8,426.8,58.2,364.1,1.2l-0.6-0.4C363.1,0.5,362.8,0.3,362.5,0.3L362.5,0.3z"/>
	<path d="M347.1,239.3l20.7,20.7c31.9-21.3,59.9-40.6,81.4-60.9L426,176C402,198.1,374.9,219.1,347.1,239.3z"/>
	<path d="M359.2,109.1c-24,22.2-51,43.1-78.9,63.4l20.7,20.7c31.9-21.3,59.9-40.6,81.4-60.9L359.2,109.1z"/>
	<path d="M261.3,283.4c-5.5,0.4-12.1,2.7-19.7,6.8c-5.2,2.4-8.9,3.9-11.2,4.4c-2.3,0.5-4.2,0-5.7-1.5c-1.6-1.6-2.2-3.6-1.9-6
		c0.3-2.4,1.7-4.9,4.1-7.3c2.5-2.5,5-3.8,7.7-3.9c2.7-0.1,5.1,0.9,7.1,2.9l11.6-11.6l-0.1-0.3c-4.5-4.8-10.1-6.8-16.7-6.1
		c-6.6,0.7-12.8,3.9-18.5,9.7c-5.8,5.8-9.2,11.9-10.3,18.3s0.6,11.8,4.9,16.1c4.4,4.4,9.4,6.3,14.9,5.5c5.5-0.8,12.5-3.4,21.1-7.9
		c4.2-2,7.5-3.1,9.7-3.3c2.2-0.2,4.2,0.6,6,2.4c1.6,1.6,2.3,3.5,2.1,5.7c-0.2,2.2-1.6,4.6-4.1,7.1c-3.3,3.3-6.3,5.1-9.2,5.4
		c-2.9,0.3-5.8-1-8.8-4l-11.7,11.7l0.1,0.3c5.4,5.7,11.7,7.8,19,6.5c7.2-1.3,13.8-4.9,19.7-10.8c5.9-5.9,9.2-11.8,10.2-17.9
		s-0.8-11.4-5.4-16C271.8,285.1,266.8,283,261.3,283.4z M189.7,321.7l-0.4-0.4c4.7-10.1,5-25.3-6-36.3c-7.9-7.9-16.7-11.1-25.9-10.1
		c-11,1.3-21.8,8.2-34.5,21c-10.3,10.3-24,24.3-24,24.3l87.8,87.8l17.5-17.5L169,355.3l5.9-5.9c8-7.8,14.6-8.5,27.6-0.1
		c13.1,8,23.7,14.5,27.5,15.5l19.9-19.9c-5-1.7-20.4-11.7-32.8-18.7C207.1,320.6,198,318.2,189.7,321.7z M162.7,333.7l-7.6,7.6
		l-23.7-23.7c1.1-1.7,3.4-4.7,8.1-9.4c9-8.8,18.3-10.2,26.2-2.3C173.2,313.4,172.3,324,162.7,333.7z"/>
</g>
</svg>
