<?xml version="1.0" encoding="utf-8"?>
<!-- Generator: Adobe Illustrator 21.1.0, SVG Export Plug-In . SVG Version: 6.00 Build 0)  -->
<svg version="1.1" id="Layer_1" xmlns="http://www.w3.org/2000/svg" xmlns:xlink="http://www.w3.org/1999/xlink" x="0px" y="0px"
	 viewBox="0 0 545.2 512" style="enable-background:new 0 0 545.2 512;" xml:space="preserve">
<g id="_x33_2">
	<path d="M367.2,48c21.9,21.1,43.3,43,64.1,64.3c24.3,24.9,49.2,50.5,75.3,75.1c-7,14.1-17.2,27.7-31.1,41.6
		c-26.5,26.5-62.5,50.4-104.2,78.1c-52.1,34.5-111.1,73.7-165.6,128.3c-8.8,8.8-17.4,17.9-25.4,27c-0.7,0.7-1.3,1.5-2,2.2
		c-34-33.2-96.9-95.7-138-140.9c7.8-11.1,17.6-22.5,29.4-34.3c35-35,83.5-68.9,130.4-101.7c49.6-34.7,100.8-70.5,140.3-110
		C350.5,67.7,359.4,57.8,367.2,48 M362.5,0.3c-0.4,0-0.8,0.2-1.2,0.6c-0.4,0.4-0.8,0.9-1.2,1.6c-11,18.3-25.4,35.7-42.2,52.5
		c-74.8,74.8-196.7,137.7-270.7,211.8c-19.4,19.3-35.4,39.3-46.5,60.5c54.8,63.5,179.6,184.3,180.4,184.3l0,0
		c7.5-9.7,15.3-19,23.2-27.9s15.9-17.4,24.1-25.6c95.2-95.2,206-142.5,269.8-206.3c21.6-21.6,37.8-45,46.3-72.9
		C481.7,121.8,426.8,58.2,364.1,1.2l-0.6-0.4C363.1,0.5,362.8,0.3,362.5,0.3L362.5,0.3z"/>
	<path d="M347.1,239.3l20.7,20.7c31.9-21.3,59.9-40.6,81.4-60.9L426,176C402,198.1,374.9,219.1,347.1,239.3z"/>
	<path d="M359.2,109.1c-24,22.2-51,43.1-78.9,63.4l20.7,20.7c31.9-21.3,59.9-40.6,81.4-60.9L359.2,109.1z"/>
	<path d="M191.1,319.7l-0.4-0.4c5.6-11.8,5.9-29.5-6.9-42.3c-9.2-9.2-19.5-12.9-30.1-11.6c-12.7,1.5-25.5,9.7-40.3,24.6
		c-12,12-28.3,28.3-28.3,28.3l102.3,102.3L208,400l-41-41l6.9-6.9c9.4-9.1,17.1-10.1,32.2-0.3c15.3,9.4,27.6,16.9,32.1,18.1
		l23.2-23.2c-5.7-2-23.8-13.6-38.2-21.7C211.4,318.3,200.9,315.5,191.1,319.7z M159.5,333.8l-9,9l-27.6-27.6c1.4-2,4.1-5.5,9.5-11.1
		c10.6-10.4,21.4-12,30.7-2.8C171.9,310,170.8,322.5,159.5,333.8z M267,243.6c-19-19-34.4-7.1-48.6,7L198,271.1l69.3,69.3l14.4-14.4
		l-28.3-28.3c0,0,7.1-7.4,9.7-9.9C276.4,274.2,281.7,258.3,267,243.6z M251.2,277.4c-4.2,4.2-9.1,9.1-9.1,9.1l-17.9-17.9
		c0,0,11.5-11.1,12-11.6c3.8-3.8,10.5-4.3,16,1.1C256.3,262.3,258.7,269.8,251.2,277.4z"/>
</g>
</svg>
