<?xml version="1.0" encoding="utf-8"?>
<!-- Generator: Adobe Illustrator 21.1.0, SVG Export Plug-In . SVG Version: 6.00 Build 0)  -->
<svg version="1.1" id="Layer_1" xmlns="http://www.w3.org/2000/svg" xmlns:xlink="http://www.w3.org/1999/xlink" x="0px" y="0px"
	 viewBox="0 0 512 512" style="enable-background:new 0 0 512 512;" xml:space="preserve">
<g>
	<path d="M186.3,236.6l-105-104.9c-18.6-18.6-48.8-18.6-67.4,0l0,0c-18.6,18.6-18.6,48.8,0,67.4l104.9,104.8L186.3,236.6z
		 M37.6,155.3L37.6,155.3c5.6-5.6,14.7-5.6,20.2,0l81.3,81.3l-20.2,20.2l-81.3-81.3C32.1,169.9,32.1,160.9,37.6,155.3z"/>
	<path d="M208,393.2l105,104.9c18.6,18.6,48.8,18.6,67.4,0l0,0c18.6-18.6,18.6-48.8,0-67.4l-105-104.9L208,393.2z M356.7,474.5
		L356.7,474.5c-5.6,5.6-14.7,5.6-20.2,0l-81.3-81.3l20.2-20.2l81.3,81.3C362.3,459.8,362.3,468.9,356.7,474.5z"/>
	<path d="M376.8,155.4c3.5,1.5,7.4,2.3,11.4,2.3c17.3,0,31.4-14.8,31.4-33.1s-14.1-33.1-31.4-33.1s-31.3,14.7-31.3,33
		c0,4.8,0.9,9.4,2.7,13.5l-15.8,15.8l-62.4-62.4c-35.9,35.9-38.1,92.7-6.4,131.1l-15.8,15.8l-26.6-26.3l-91.6,91.6l-46.5,46.6
		c-0.1,0.1-0.2,0.1-0.2,0.2h-0.1c-0.1,0.1-0.1,0.1-0.1,0.1l0,0l-0.1,0.1l0.1,0.1c-6.8,7.5,2.4,28.2,20.8,46.5
		c14.3,14.3,29.9,23.1,39.8,23.1c2.8,0,5.1-0.7,6.8-2.3c0.1,0,0.1,0,0.2-0.1c0-0.1,0.1-0.1,0.1-0.1v-0.1c0.1,0,0.1-0.1,0.1-0.1
		l-0.1,0.1v0.1l46.8-46.8l91.6-91.6l-23.7-23.7l16.3-16.3c17.1,12.6,37.5,18.9,57.8,18.9c25,0,50.1-9.5,69.2-28.6l-58.7-58.5
		L376.8,155.4z M158.6,412.4c-1.3,1.3-3,1.9-5.3,1.9c-8.1,0-21.9-7.9-34.7-20.8c-16.3-16.3-24.7-34.1-18.9-40c1.3-1.3,3-1.9,5.3-1.9
		c8.1,0,21.9,7.9,34.7,20.8C155.9,388.6,164.4,406.6,158.6,412.4z M172.9,359.4c-2.9-3.5-6.2-7.1-9.6-10.5
		c-2.8-2.8-6.5-6.3-10.5-9.6l80.1-80.1l20.2,20.2L172.9,359.4z M350.6,224.9c-17.2,0-33.4-6.7-45.5-18.9
		c-16.5-16.5-22.1-39.6-17-60.8l77.8,77.8C360.9,224.3,355.8,224.9,350.6,224.9z"/>
	<path d="M456.5,170.9c-1.3,2.5-4,4.1-6.8,4.1h-0.5c-5.7,0-9.5-6-6.9-11c13.3-26.1,8.9-58.8-12.9-80.6c-22.5-22.5-56.5-26.4-83-11.7
		c-5,2.8-11.3-0.8-11.3-6.7v-0.4c0-2.7,1.5-5.3,4-6.7c32.5-17.8,74.1-13,101.6,14.3C467.3,98.9,472.6,138.9,456.5,170.9z M492.2,110
		c-0.2,4.1-3.5,7.2-7.6,7.2h-0.3c-4.4,0-7.8-3.7-7.6-8c0.9-19-5.8-38.3-20.4-52.8c-15-15.1-35.3-21.8-55-20.1
		c-4.6,0.4-8.5-3.1-8.5-7.6v-0.4c0-4,3-7.3,6.9-7.6c24.2-2.1,49.3,6.2,67.6,24.6C485.2,63,493.4,86.6,492.2,110z M504.3,62.2h-0.5
		c-3.2,0-6.1-2-7.2-5c-7.3-19.7-23.4-35.2-43.4-41.8c-3.2-1-5.3-4-5.3-7.3V7.7c0-5.2,5.1-8.9,10.2-7.3c24.7,8.1,44.4,27.2,53.4,51.5
		C513.3,56.9,509.7,62.2,504.3,62.2z"/>
</g>
</svg>
