<?xml version="1.0" encoding="utf-8"?>
<!-- Generator: Adobe Illustrator 21.1.0, SVG Export Plug-In . SVG Version: 6.00 Build 0)  -->
<svg version="1.1" id="Layer_2" xmlns="http://www.w3.org/2000/svg" xmlns:xlink="http://www.w3.org/1999/xlink" x="0px" y="0px"
	 viewBox="0 0 550.2 512" style="enable-background:new 0 0 550.2 512;" xml:space="preserve">
<g id="_x33_2">
	<rect x="-0.1" y="479.9" width="549.5" height="32.1"/>
	<path d="M394.3,237.8c0-0.3,0.1-0.6,0.4-1.1v-0.4c0-10.5,0-96.2,0-96.2h-19.3c-10.2-24.2-43.8-58-82-61.8c0,0-5-5.6-11.7-8.3v-6.4
		c-0.5-0.9-1.3-1.8-2.5-2.5V44.6h28.2v10h31.4c-1.9-2.4-4.5-5.7-7.8-10l-8.2-10L331,25l7.8-10h-31.4V5h-27.5c0-1.7-0.7-3.2-2.1-4.6
		c-0.2-0.2-0.6-0.4-1.1-0.4l-1.4,0.4c-0.7,0.5-1.2,0.8-1.4,1.1c-0.2,0.5-0.2,1,0,1.4V61c0,0-1.5,1-2.5,2.5v6.4
		c-4,1-8.1,3.6-12.1,7.8c-25.5,2.8-64.3,21.1-83.7,62.3H156v97.6H0v233h550.2V237.8H394.3z M188,172h9.3c0-22,31.5-63,78.5-63
		c47.8,0,78.6,41.9,78.6,63.1h8.3v42.6H188V172z M156.4,438.6H32v-169h124.4V438.6z M362.3,438.6h-16.8l-10-14H214.4l-9.7,14h-16.3
		V237.9h36.4v177.5H248V237.9h51.2v177.5h23.2V237.9h39.9V438.6z M518.2,438.6H394.3V269.8h123.9V438.6z"/>
	<rect x="77.9" y="319" width="27.8" height="43.3"/>
	<rect x="441.8" y="319" width="28.2" height="43.3"/>
	<g>
		<path d="M276.9,136.5c-18,0-32.5,14.6-32.5,32.5s14.6,32.5,32.5,32.5s32.5-14.6,32.5-32.5S294.8,136.5,276.9,136.5z M276.9,194.9
			c-14.3,0-25.9-11.6-25.9-25.9s11.6-25.9,25.9-25.9s25.9,11.6,25.9,25.9S291.2,194.9,276.9,194.9z"/>
		<path d="M296,170.6c-0.4-0.3-0.9-0.5-1.5-0.6l-13.8-1.4c-0.2-0.9-0.6-1.7-1.3-2.3l0.9-1.2l-0.4-0.3L279,166
			c-0.3-0.2-0.5-0.3-0.8-0.4l-0.5-0.1c-0.1,0-0.2,0-0.3-0.1l-1.7-7.5c-0.2-1.1-0.9-2-1.8-2.6l-2.6-1.7l-0.8,2.7
			c-0.4,1.2-0.3,2.6,0.3,3.7l3.5,6.6c-0.4,0.5-0.8,1-1,1.7c-0.4,1.6,0.2,3.2,1.4,4.1l-4.5,6.5c-0.9-0.5-2.1-0.2-2.7,0.7
			s-0.4,2.1,0.4,2.8l-1.1,1.6l0.4,0.3l1.1-1.6c0.9,0.5,2.1,0.2,2.7-0.7s0.4-2.1-0.4-2.8l4.4-6.5c0.2,0.1,0.4,0.2,0.6,0.3l0.5,0.1
			c1.8,0.3,3.5-0.6,4.2-2.1l13.5,2.9c0.5,0.1,1.1,0.1,1.6-0.1l3-1.1L296,170.6z M279.2,169.9c-0.3,1.2-1.5,1.9-2.6,1.7
			c-0.1,0-0.2,0-0.3-0.1c-0.1,0-0.2-0.1-0.2-0.1c-1.1-0.4-1.7-1.6-1.4-2.8s1.5-1.9,2.6-1.7c0.1,0,0.2,0,0.3,0.1s0.2,0.1,0.2,0.1
			C278.9,167.5,279.5,168.7,279.2,169.9z"/>
	</g>
</g>
</svg>
