<?xml version="1.0" encoding="utf-8"?>
<!-- Generator: Adobe Illustrator 21.1.0, SVG Export Plug-In . SVG Version: 6.00 Build 0)  -->
<svg version="1.1" id="Layer_1" xmlns="http://www.w3.org/2000/svg" xmlns:xlink="http://www.w3.org/1999/xlink" x="0px" y="0px"
	 viewBox="0 0 455.7 512" style="enable-background:new 0 0 455.7 512;" xml:space="preserve">
<path d="M409,48.5l-18.8,31.1l-14.3,7.1l5-15.1L409,48.5 M227.6,298.6L78.1,471c-9.3,10.7-25.6,12-36.5,3c-0.1-0.1-0.2-0.2-0.4-0.3
	c-10.7-9.3-11.6-26.6-1.9-37.8l148.8-171.6L227.6,298.6 M455.7,33.1L417.5,0l-64.1,52.6L342,87.2L209.7,240.8l-26.4-22.9
	c-5.5-4.8-13.9-4.2-18.7,1.3l-10.1,11.7c-2.9,3.3-4.1,7.9-2.8,12.2c1.2,4.2,3.7,17-6.1,28.4c-3.8,4.4-8.7,7.5-13.9,9.1L15.1,415
	C-6,439.3-4,476.8,20.3,497.9c0.3,0.2,0.5,0.5,0.8,0.7c24.3,20.2,60.4,17.4,81.2-6.6l118-136.1c1-5,3.2-9.8,6.8-14
	c9.8-11.4,22.7-10.7,26.8-10.2c4.3,0.6,8.6-1.2,11.4-4.5l10.4-12c4.8-5.5,4.2-13.9-1.3-18.7l-26.4-22.9l132.3-153.6l32.6-16.2
	L455.7,33.1L455.7,33.1z"/>
</svg>
