<?xml version="1.0" encoding="utf-8"?>
<!-- Generator: Adobe Illustrator 22.0.1, SVG Export Plug-In . SVG Version: 6.00 Build 0)  -->
<svg version="1.1" id="Layer_2_1_" xmlns="http://www.w3.org/2000/svg" xmlns:xlink="http://www.w3.org/1999/xlink" x="0px" y="0px"
	 viewBox="0 0 512 512" style="enable-background:new 0 0 512 512;" xml:space="preserve">
<g id="_x33_2_1_">
	<path d="M500.8,446.9L396.6,342.6l-7.3,7.3l-18.4-18.4c26.4-34.7,42.1-78,42.1-125C413,92.5,320.5,0,206.5,0S0,92.5,0,206.5
		S92.5,413,206.5,413c46.9,0,90.2-15.7,124.9-42l18.4,18.4l-7.2,7.2l104.2,104.3c7.5,7.4,17.2,11.2,27,11.2c9.8,0,19.5-3.7,27-11.2
		C515.7,486,515.7,461.8,500.8,446.9z M32,206.5C32,110.1,110.1,32,206.5,32S381,110.1,381,206.5S302.9,381,206.5,381
		S32,302.9,32,206.5z"/>
</g>
</svg>
