<?xml version="1.0" encoding="utf-8"?>
<!-- Generator: Adobe Illustrator 22.0.1, SVG Export Plug-In . SVG Version: 6.00 Build 0)  -->
<svg version="1.1" id="Layer_2_1_" xmlns="http://www.w3.org/2000/svg" xmlns:xlink="http://www.w3.org/1999/xlink" x="0px" y="0px"
	 viewBox="0 0 512 512" style="enable-background:new 0 0 512 512;" xml:space="preserve">
<g id="_x33_2">
	<g>
		<path d="M500.8,446.9L396.6,342.6l-7.3,7.3l-18.4-18.4c26.4-34.7,42.1-78,42.1-125C413,92.5,320.5,0,206.5,0S0,92.5,0,206.5
			S92.5,413,206.5,413c46.9,0,90.2-15.7,124.9-42l18.4,18.4l-7.2,7.2l104.2,104.3c7.5,7.4,17.2,11.2,27,11.2c9.8,0,19.5-3.7,27-11.2
			C515.7,486,515.7,461.8,500.8,446.9z M206.5,381C110.1,381,32,302.9,32,206.5S110.1,32,206.5,32S381,110.1,381,206.5
			S302.9,381,206.5,381z"/>
	</g>
	<path d="M208.4,125.3c28,0,50.9,22.8,50.9,50.9c0,3.9-1.2,12.9-9.3,30.1c-5.7,12.1-13.8,26-24.1,41.3c-6,8.9-12,17.3-17.3,24.4
		c-5.3-7.1-11.3-15.4-17.2-24.2c-10.4-15.4-18.5-29.4-24.3-41.6c-8.2-17.3-9.4-26.3-9.4-30.1C157.5,148.3,180.3,125.3,208.4,125.3
		 M208.4,100.2c-41.9,0-76,34-76,76c0,46.4,76.1,136.5,76.1,136.5s75.8-89.8,75.8-136.5C284.3,134.3,250.3,100.2,208.4,100.2
		L208.4,100.2z"/>
	<path d="M208.4,160.4c8.8,0,15.9,7.1,15.9,15.9s-7.1,15.9-15.9,15.9c-8.8,0-15.9-7.1-15.9-15.9S199.6,160.4,208.4,160.4
		 M208.4,137.6c-21.3,0-38.6,17.3-38.6,38.6c0,21.3,17.3,38.6,38.6,38.6s38.6-17.3,38.6-38.6C247,154.9,229.7,137.6,208.4,137.6
		L208.4,137.6z"/>
</g>
</svg>
