<?xml version="1.0" encoding="utf-8"?>
<!-- Generator: Adobe Illustrator 22.0.1, SVG Export Plug-In . SVG Version: 6.00 Build 0)  -->
<svg version="1.1" id="Layer_2_1_" xmlns="http://www.w3.org/2000/svg" xmlns:xlink="http://www.w3.org/1999/xlink" x="0px" y="0px"
	 viewBox="0 0 512 512" style="enable-background:new 0 0 512 512;" xml:space="preserve">
<g>
	<g>
		<path d="M500.8,446.9L396.6,342.6l-7.3,7.3l-18.4-18.4c26.4-34.7,42.1-78,42.1-125C413,92.5,320.5,0,206.5,0S0,92.5,0,206.5
			S92.5,413,206.5,413c46.9,0,90.2-15.7,124.9-42l18.4,18.4l-7.2,7.2l104.2,104.3c7.5,7.4,17.2,11.2,27,11.2c9.8,0,19.5-3.7,27-11.2
			C515.7,486,515.7,461.8,500.8,446.9z M206.5,381C110.1,381,32,302.9,32,206.5S110.1,32,206.5,32S381,110.1,381,206.5
			S302.9,381,206.5,381z"/>
	</g>
	<path d="M336,158.7c0-18.9-15.4-34.4-34.4-34.4H93.8c-1.2,2.3-2.3,4.8-3.4,7.2c-0.1,0.1-0.1,0.3-0.2,0.4h211.5
		c14.7,0,26.8,12,26.8,26.8c0,14.7-12,26.8-26.8,26.8h-59.9l-52.9-17.2l5.9,17.2H77.2c-0.1,1.2-0.1,2.6-0.1,3.8S77,191.8,77,193
		h120.4l32.1,93.7l17.8-25.2c0.6-0.9,1.4-1.6,2.3-2c0.6-0.3,1.2-0.4,1.8-0.4h0.6c0.9,0,1.7,0.2,2.4,0.6c0.6,0.3,1.1,0.7,1.7,1.1
		l30.5,30.5l20.3-20.3l6.6-6.6L282.8,234c-1.1-1.1-1.8-2.8-1.7-4.4c0.2-1.7,1-3.1,2.4-4.1l25.1-18l-43.5-14.2h36.4
		C320.6,193,336,177.7,336,158.7z"/>
	<path d="M109.2,159.7c0,3.7-3,6.6-6.6,6.6H79.4c0.8-4.1,1.7-8.1,2.7-12c0.1-0.3,0.2-0.8,0.3-1.1h20.2
		C106.3,153.2,109.2,156.2,109.2,159.7z"/>
	<ellipse transform="matrix(0.1602 -0.9871 0.9871 0.1602 88.8849 424.1128)" cx="293.7" cy="159.8" rx="13.3" ry="13.3"/>
</g>
</svg>
