<?xml version="1.0" encoding="utf-8"?>
<!-- Generator: Adobe Illustrator 22.0.1, SVG Export Plug-In . SVG Version: 6.00 Build 0)  -->
<svg version="1.1" id="Layer_2_1_" xmlns="http://www.w3.org/2000/svg" xmlns:xlink="http://www.w3.org/1999/xlink" x="0px" y="0px"
	 viewBox="0 0 512 512" style="enable-background:new 0 0 512 512;" xml:space="preserve">
<g id="_x33_2">
	<path d="M11.2,446.8l104.2-104.3l7.3,7.3l18.4-18.4c-26.4-34.7-42.1-78-42.1-125C99,92.4,191.5,0,305.5,0S512,92.4,512,206.5
		s-92.4,206.5-206.5,206.5c-46.9,0-90.2-15.6-124.9-42l-18.4,18.4l7.2,7.2L65.2,500.8c-7.4,7.4-17.2,11.2-27,11.2
		c-9.8,0-19.5-3.7-27-11.2C-3.7,485.9-3.7,461.7,11.2,446.8z M305.5,380.9c96.4,0,174.5-78.1,174.5-174.5S401.9,32,305.5,32
		S131,110.1,131,206.5S209.1,380.9,305.5,380.9z"/>
</g>
</svg>
