<?xml version="1.0" encoding="utf-8"?>
<!-- Generator: Adobe Illustrator 21.1.0, SVG Export Plug-In . SVG Version: 6.00 Build 0)  -->
<svg version="1.1" id="Layer_3" xmlns="http://www.w3.org/2000/svg" xmlns:xlink="http://www.w3.org/1999/xlink" x="0px" y="0px"
	 viewBox="0 0 429.4 512" style="enable-background:new 0 0 429.4 512;" xml:space="preserve">
<g id="_x33_2">
	<path d="M230.7,202.7c22.5,0,41.4,17.5,43.1,40l4.9,107.1c-21.1-4.3-49.1-9.4-63.8-9.4s-42.8,5.1-63.8,9.4l4.9-107.1
		c1.7-22.4,20.5-40,43.1-40H230.7L230.7,202.7z M230.7,170.7h-31.7c-39.5,0-72.3,30.6-75,70.1l-6,130.1c-0.4,8.5,6.4,15.6,14.9,15.6
		c0,0,61.5-14,82-14s82,14,82,14c8.5,0,15.3-7.1,14.9-15.6l-6-130.1C303.1,201.3,270.3,170.7,230.7,170.7L230.7,170.7z"/>
	<path d="M411.5,395.3h-26.3l-11.8-165.2c-4.2-61.4-50.2-110.6-109-120.5V89.8h17.9c13.7,0,24.8-11.1,24.8-24.8V53.8
		C307,24.1,283,0,253.3,0h-76.2c-29.7,0-53.8,24.1-53.8,53.8V65c0,13.7,11.1,24.8,24.8,24.8h18v19.7
		c-59.2,9.6-105.5,58.9-109.7,120.5l-11,165.3c-1.4-0.1-2.9-0.2-4.3-0.2l-23.3,0c-9.8,0-17.9,8.1-17.9,18c0,1.2,0.2,2.4,0.7,3.5
		c2,52.7,44.7,95.3,97.7,95.3H331c53,0,96.4-42.5,98.4-95.3c0-1.4,0-2.3,0-3.5C429.4,403.4,421.3,395.3,411.5,395.3z M183.9,89.8
		h62.7v18c-1.3,0-2.7-0.1-4-0.1h-55.3c-1.1,0-2.3,0-3.4,0V89.8z M88.4,232.2c1.7-25.2,12.8-48.5,31.2-65.7
		c18.4-17.2,42.5-26.7,67.7-26.7h55.3c25.2,0,49.3,9.5,67.7,26.7c18.4,17.2,29.5,40.6,31.2,65.7l12.5,172.9l-0.5,0.3
		c-9.5,4.8-20.2,6.1-30.6,3.9l-12.5-2.7c-63-13.6-128.2-13.6-191.2,0l-12.5,2.7c-10,2.2-20.5,0.9-29.8-3.5L88.4,232.2z"/>
</g>
</svg>
