<?xml version="1.0" encoding="utf-8"?>
<!-- Generator: Adobe Illustrator 21.1.0, SVG Export Plug-In . SVG Version: 6.00 Build 0)  -->
<svg version="1.1" id="Layer_5" xmlns="http://www.w3.org/2000/svg" xmlns:xlink="http://www.w3.org/1999/xlink" x="0px" y="0px"
	 viewBox="0 0 512 512" style="enable-background:new 0 0 512 512;" xml:space="preserve">
<path d="M421.2,151C353.9,151,311,202.7,319,261.8c0,0,0.4,5.5,2.4,10.5c-12.2,20.6-17.7,39.7-20.2,53.7c-1.7-11-4.9-24.5-10.2-39.5
	c-1.5-29.7-2.3-83.6,8.1-120.2c8.4,4.9,15.6,7.1,22,7.1c38,0,42.5-79.7,71.6-136.5C375.6,11,359.7,0,345.8,0
	c-34.9,0-57,69-52.9,147.6c0,0,0.5,12.1,1.7,18.1c-10.7,44.6-9.6,85.7-6.9,112.1c-4.2-10.5-9.5-21.5-16.3-32.9
	c3.1-10.2,3.6-14.7,3.6-14.7c11.4-84.4-49.9-158.5-146.3-158.5C90.3,71.8,46.2,83.6-1,111.1c80.8,61,93.1,146.6,198.3,146.6
	c16.1,0,34.3-2,55.4-6.4c55.7,115.3,55,256.5,56.2,260.7h15.8c0,0,1.2-85.1-20.6-176.7c6.4-18.5,18.1-49.9,26.9-59.8
	c16.3,3.7,30.3,5.3,42.6,5.3c73.5,0,82-59.7,138.5-102.4C478.8,159.2,448,151,421.2,151z M323.4,61.4c7.2-18.5,20.6-28.9,22.5-29.8
	c4.1,0.2,8.2,1.9,12,9.1C351,57.4,345.6,74.4,340.8,90c-4.5,14.2-8.7,27.7-13.2,37.9c-2.4,5.5-7.3,12.9-13.4,11.8
	c3.4-23.4,9.7-46.1,17.9-65.5c7.4-17.5,14.9-28.8,21.9-36.1c-27.1,18.5-38.8,62.3-43.7,91.2C307.1,109.8,315.8,78.7,323.4,61.4z
	 M197.2,225.2c-55,0-76.6-26.6-109.5-67c-10.2-12.6-21.1-26-34-39.5c7-2.8,14-5.2,21-7.2c18.6-5.5,36.8-8.2,54-8.2
	c21,0,40.5,4.1,57.7,12.1c15.6,7.3,28.8,17.6,39.1,30.6c13.2,16.7,20.6,37,21.6,58.6C221.3,175,172.4,133,93.6,118.9
	c22.1,6.4,47,17,74.4,34.2c33.5,21,58.3,44.1,76.8,66.9C227.1,223.4,211.2,225.2,197.2,225.2z M443.2,204.8
	c-10.9,13.4-20.2,24.9-30.9,32.5c-10.8,7.6-22.8,11-38.8,11c-6.5,0-13.7-0.6-21.6-1.8c10-9.3,21.6-18.5,35.4-27.2
	c19-12,36.5-19.4,51.9-23.9c-41.7,7.5-71.5,26.1-91.2,43.7c1.4-11.1,5.7-21.5,12.5-30.3c13.5-17,35.1-26.4,60.8-26.4
	c11.3,0,23.4,1.9,35.9,5.6C452.1,193.8,447.6,199.4,443.2,204.8z"/>
</svg>
