<?xml version="1.0" encoding="utf-8"?>
<!-- Generator: Adobe Illustrator 21.1.0, SVG Export Plug-In . SVG Version: 6.00 Build 0)  -->
<svg version="1.1" id="Layer_1" xmlns="http://www.w3.org/2000/svg" xmlns:xlink="http://www.w3.org/1999/xlink" x="0px" y="0px"
	 viewBox="0 0 512 512" style="enable-background:new 0 0 512 512;" xml:space="preserve">
<g>
	<path d="M512,130.8V19.3C512,8.6,503.4,0,492.7,0H19.3C8.6,0,0,8.6,0,19.3v111.5c0,10.6,8.6,19.3,19.3,19.3h220.9v81.5H19.3
		C8.6,231.6,0,240.2,0,250.8v111.5c0,10.6,8.6,19.3,19.3,19.3h220.9v63.3h-19.9c-2.8,0-5.1,2.3-5.1,5.1v15.8h-101v25.5h101v15.6
		c0,2.8,2.3,5.1,5.1,5.1h72.4c2.8,0,5.1-2.3,5.1-5.1v-15.6h99.7v-25.5h-99.7V450c0-2.8-2.3-5.1-5.1-5.1h-20.6v-63.3h220.6
		c10.6,0,19.3-8.6,19.3-19.3V250.8c0-10.6-8.6-19.3-19.3-19.3H272.1v-81.5h220.6C503.4,150.1,512,141.4,512,130.8z M480,263.6v86H32
		v-86L480,263.6z M32,118.1V32l448,0v86H32z"/>
	<path d="M70.7,320.3c-7,0-12.8-5.7-12.8-12.8c0-7,5.7-12.8,12.8-12.8c7,0,12.8,5.7,12.8,12.8C83.4,314.6,77.7,320.3,70.7,320.3z
		 M70.7,88.8c-7,0-12.8-5.7-12.8-12.8c0-7,5.7-12.8,12.8-12.8c7,0,12.8,5.7,12.8,12.8C83.4,83,77.7,88.8,70.7,88.8z"/>
</g>
</svg>
