<?xml version="1.0" encoding="utf-8"?>
<!-- Generator: Adobe Illustrator 21.1.0, SVG Export Plug-In . SVG Version: 6.00 Build 0)  -->
<svg version="1.1" id="Layer_1" xmlns="http://www.w3.org/2000/svg" xmlns:xlink="http://www.w3.org/1999/xlink" x="0px" y="0px"
	 viewBox="0 0 512 512" style="enable-background:new 0 0 512 512;" xml:space="preserve">
<path d="M286.1,32l9.5,45l3.6,17.1l16.3,6.2c2.9,1.1,5.8,2.3,8.6,3.5l15.9,7.1l14.6-9.5l38.5-25.1l42.6,42.6l-25,38.4l-9.5,14.6
	l7.1,15.9c1.2,2.8,2.5,5.7,3.6,8.7l6.2,16.3l17,3.6l44.9,9.5v60.2l-44.9,9.5l-17.1,3.6l-6.2,16.3c-1.1,2.9-2.3,5.9-3.6,8.7
	l-7.1,15.9l9.5,14.6l25,38.4l-42.6,42.6l-38.6-25.1l-14.6-9.5l-15.9,7.1c-2.8,1.2-5.7,2.4-8.6,3.5l-16.3,6.2l-3.6,17.1l-9.5,45.1
	h-60.2l-9.6-45.3l-3.6-17l-16.2-6.2c-2.8-1.1-5.7-2.3-8.4-3.5l-15.9-7.1l-14.6,9.5l-38.8,25.2l-42.6-42.6l25.3-38.8l9.5-14.6
	l-7.1-15.9c-1.2-2.6-2.3-5.3-3.4-8.3l-6.2-16.2l-17-3.6L32,286.1v-60.2l45.3-9.6l17-3.6l6.2-16.3c1.1-2.9,2.3-5.7,3.4-8.3l7.1-15.9
	l-9.5-14.6l-25.3-38.8l42.6-42.6l38.7,25.2l14.6,9.5l15.9-7.1c2.7-1.2,5.6-2.4,8.5-3.5l16.2-6.2l3.6-17l9.5-45.1H286.1 M256.1,396.8
	c77.6,0,140.8-63.2,140.8-140.8c0-77.6-63.2-140.8-140.8-140.8c-77.6,0-140.8,63.2-140.8,140.8C115.2,333.6,178.4,396.8,256.1,396.8
	 M293,0h-74c-11.1,0-20.7,7.8-23,18.6l-10.9,51.9c-3.4,1.3-6.8,2.7-10.1,4.2l-44.4-28.9c-3.9-2.6-8.4-3.8-12.8-3.8
	c-6.1,0-12.1,2.3-16.6,6.9l-52.3,52.3c-7.8,7.9-9.1,20.1-3.1,29.4l29,44.6c-1.4,3.2-2.8,6.5-4.1,9.9l-52.1,11
	C7.8,198.3,0,207.9,0,219v74c0,11.1,7.8,20.7,18.6,23l52.1,11c1.3,3.3,2.6,6.6,4.1,9.8l-29.1,44.6c-6.1,9.3-4.8,21.6,3.1,29.4
	l52.3,52.3c4.5,4.5,10.6,6.9,16.6,6.9c4.4,0,8.9-1.2,12.8-3.8l44.5-29c3.3,1.5,6.6,2.8,9.9,4.1l11,52c2.3,10.9,11.9,18.6,23,18.6h74
	c11.1,0,20.7-7.8,23-18.6l10.9-51.8c3.4-1.3,6.8-2.7,10.1-4.2l44.4,28.9c3.9,2.6,8.4,3.8,12.8,3.8c6.1,0,12.1-2.3,16.6-6.9
	l52.3-52.3c7.8-7.8,9.1-20.1,3.1-29.4l-28.8-44.2c1.5-3.4,2.9-6.8,4.3-10.3l51.6-10.9c10.9-2.3,18.6-11.9,18.6-23v-74
	c0-11.1-7.8-20.7-18.6-23l-51.6-10.9c-1.3-3.5-2.8-7-4.3-10.4l28.8-44.2c6.1-9.3,4.8-21.6-3.1-29.4l-52.3-52.3
	c-4.5-4.5-10.6-6.9-16.6-6.9c-4.4,0-8.9,1.2-12.8,3.8l-44.3,28.8c-3.4-1.5-6.8-2.9-10.3-4.2L316,18.6C313.7,7.8,304.1,0,293,0L293,0
	z M256.1,364.8C196,364.8,147.2,316,147.2,256c0-60.1,48.7-108.8,108.8-108.8c60.1,0,108.8,48.7,108.8,108.8
	C364.9,316,316.2,364.8,256.1,364.8L256.1,364.8z"/>
</svg>
