<?xml version="1.0" encoding="utf-8"?>
<!-- Generator: Adobe Illustrator 21.1.0, SVG Export Plug-In . SVG Version: 6.00 Build 0)  -->
<svg version="1.1" id="Layer_1" xmlns="http://www.w3.org/2000/svg" xmlns:xlink="http://www.w3.org/1999/xlink" x="0px" y="0px"
	 viewBox="0 0 512 512" style="enable-background:new 0 0 512 512;" xml:space="preserve">
<path d="M287.5,32l6.7,25.1c6,22.5,26.5,38.2,49.8,38.2c9,0,17.9-2.4,25.7-6.9l22.5-13l44.5,44.5l-13,22.5c-8.1,14-9.2,30.5-3,45.5
	c6.2,14.9,18.7,25.9,34.3,30l25.1,6.7v63l-25.1,6.7c-15.6,4.2-28.1,15.1-34.3,30c-6.2,14.9-5.1,31.5,3,45.5l13,22.5l-44.5,44.5
	l-22.5-13c-7.8-4.5-16.7-6.9-25.7-6.9c-23.3,0-43.8,15.7-49.8,38.2l-6.7,25.1h-63l-6.7-25c-6-22.5-26.5-38.2-49.8-38.2
	c-9,0-17.9,2.4-25.7,6.9l-22.5,13l-44.5-44.5l13-22.5c8.1-14,9.2-30.5,3-45.5c-6.2-14.9-18.7-25.9-34.2-30L32,287.5v-63l25.1-6.7
	c15.6-4.2,28.1-15.1,34.3-30c6.2-14.9,5.1-31.5-3-45.5l-13-22.5l44.5-44.5l22.5,13c7.8,4.5,16.7,6.9,25.7,6.9
	c23.3,0,43.8-15.7,49.8-38.2l6.7-25.1H287.5 M256,393.6c75.9,0,137.6-61.7,137.6-137.6c0-75.9-61.7-137.6-137.6-137.6
	S118.4,180.1,118.4,256C118.4,331.8,180.1,393.6,256,393.6 M290.9,0h-69.8c-12.5,0-23.4,8.4-26.6,20.4l-7.6,28.4
	c-2.4,8.9-10.4,14.5-18.9,14.5c-3.3,0-6.6-0.8-9.7-2.6l-25.4-14.7c-4.3-2.5-9-3.7-13.8-3.7c-7.1,0-14.2,2.8-19.5,8.1L50.3,99.7
	c-8.8,8.8-10.6,22.4-4.4,33.2l14.7,25.4c6.4,11.1,0.5,25.3-11.8,28.6l-28.4,7.6C8.4,197.7,0,208.6,0,221.1v69.8
	c0,12.5,8.4,23.4,20.4,26.6l28.4,7.6c12.4,3.3,18.2,17.5,11.8,28.6l-14.7,25.4c-6.2,10.8-4.4,24.4,4.4,33.2l49.4,49.4
	c5.3,5.3,12.3,8.1,19.5,8.1c4.7,0,9.5-1.2,13.8-3.7l25.4-14.7c3.1-1.8,6.4-2.6,9.7-2.6c8.4,0,16.5,5.5,18.9,14.5l7.6,28.4
	c3.2,12,14.1,20.4,26.6,20.4h69.8c12.5,0,23.4-8.4,26.6-20.4l7.6-28.4c2.4-8.9,10.4-14.5,18.9-14.5c3.3,0,6.6,0.8,9.7,2.6l25.4,14.7
	c4.3,2.5,9.1,3.7,13.8,3.7c7.1,0,14.2-2.8,19.5-8.1l49.4-49.4c8.8-8.8,10.6-22.4,4.4-33.2l-14.7-25.4c-6.4-11.1-0.5-25.3,11.8-28.6
	l28.4-7.6c12-3.2,20.4-14.1,20.4-26.6v-69.8c0-12.5-8.4-23.4-20.4-26.6l-28.4-7.6c-12.4-3.3-18.2-17.5-11.8-28.6l14.7-25.4
	c6.2-10.8,4.4-24.4-4.4-33.2l-49.4-49.4c-5.3-5.3-12.3-8.1-19.5-8.1c-4.7,0-9.5,1.2-13.8,3.7l-25.4,14.7c-3.1,1.8-6.4,2.6-9.7,2.6
	c-8.5,0-16.5-5.5-18.9-14.5l-7.6-28.4C314.3,8.4,303.4,0,290.9,0L290.9,0z M256,361.6c-58.3,0-105.6-47.3-105.6-105.6
	S197.7,150.3,256,150.3S361.6,197.6,361.6,256S314.3,361.6,256,361.6L256,361.6z"/>
</svg>
