<?xml version="1.0" encoding="utf-8"?>
<!-- Generator: Adobe Illustrator 21.1.0, SVG Export Plug-In . SVG Version: 6.00 Build 0)  -->
<svg version="1.1" id="Layer_2" xmlns="http://www.w3.org/2000/svg" xmlns:xlink="http://www.w3.org/1999/xlink" x="0px" y="0px"
	 viewBox="0 0 487.4 512" style="enable-background:new 0 0 487.4 512;" xml:space="preserve">
<path d="M487.3,278.5L253.9,123.7c16-10.4,20.6-31.8,10.2-47.8c-1.1-1.6-2.2-3.1-3.6-4.6l20.2-71h-32.8l-13.2,41.2L221.5,0.3h-32.6
	l20.1,71c-12.9,14-12,35.9,2,48.8c1.6,1.5,3.3,2.8,5.2,3.9L2.9,276.1c-1.4,1.1-2.4,2.7-2.9,4.4v226.2l174.1,5.2l313.2-5.2
	L487.3,278.5z M234.8,77.2c9.6,0,17.4,7.8,17.4,17.4s-7.8,17.4-17.4,17.4c-9.6,0-17.4-7.8-17.4-17.4C217.4,85,225.1,77.2,234.8,77.2
	z M37.9,482.7h-15V288.5l15-2.7V482.7z M75.5,482l-15,0.2V281.8l15-2.8V482z M113.1,481.7h-15V275l15-2.7V481.7z M150.7,481l-15,0.2
	V268.3l15-2.7V481z M165.9,230.5c-0.5,1-0.8,2.2-0.8,3.3v-0.3L43.6,266.8l167.1-116.5L165.9,230.5z M236.7,136.6l114.8,124.3
	L183.1,235L236.7,136.6z M226,481.2l-17.4-0.2V265.6l17.4,2.7V481.2z M269.6,481.7h-17.4V272.3l17.4,2.7V481.7z M313.2,482.2
	l-17.4-0.2V279l17.4,2.8V482.2z M356.8,482.7h-17.4V285.8l17.4,2.7V482.7z M400.3,483.1l-17.4-0.2V292.8l17.4,2.4V483.1z
	 M443.9,483.6l-17.4-0.2v-184l17.4,2.4V483.6z M377.7,264.9l-104.2-110l181.6,122L377.7,264.9z"/>
</svg>
