<?xml version="1.0" encoding="utf-8"?>
<!-- Generator: Adobe Illustrator 21.1.0, SVG Export Plug-In . SVG Version: 6.00 Build 0)  -->
<svg version="1.1" id="Layer_6" xmlns="http://www.w3.org/2000/svg" xmlns:xlink="http://www.w3.org/1999/xlink" x="0px" y="0px"
	 viewBox="0 0 568 512" style="enable-background:new 0 0 568 512;" xml:space="preserve">
<g id="_x33_2">
	<path d="M431.2,462c0,9.9-8.1,18-18,18H50c-9.9,0-18-8.1-18-18V100c0-9.9,8.1-18,18-18h105.2l42.4-32H50C22.4,50,0,72.4,0,100v362
		c0,27.6,22.4,50,50,50h363c27.6,0,50.2-22.4,50.2-50V313.6l-32,23.2V462z"/>
	<path d="M443.8,64.2l77.8,73.9l-77.8,74.2v-15.7v-32h-32H308.1c-52.2,0-111,23.5-136.8,85c0-0.8,0-1.6,0-2.4
		c0-23.3,3.5-43.4,10.3-59.8c6.6-15.8,16.3-28.5,29.7-38.9c30-23.2,79.5-35,147.2-35h53.2h32v-32L443.8,64.2 M411.8,81.6h-53.2
		c-152.5,0-219.2,56-219.2,165.6c0,24.8,10,58.5,29.9,101.2c0.6,1.5,5.8,13.3,8.9,16.9c1.7,2.6,3.8,3.9,6.4,3.9
		c6.9,0,6.4-13.7,6.4-19.1c-0.5-10-0.9-19.2-0.9-27.4c0-104.4,72.5-126.1,118.2-126.1H412v72.2c0,6.8,8.2,10.3,13.1,5.6L568,138
		L424.9,2.1C420-2.5,411.8,1,411.8,7.8V81.6z"/>
</g>
</svg>
