<?xml version="1.0" encoding="utf-8"?>
<!-- Generator: Adobe Illustrator 21.1.0, SVG Export Plug-In . SVG Version: 6.00 Build 0)  -->
<svg version="1.1" id="Layer_1" xmlns="http://www.w3.org/2000/svg" xmlns:xlink="http://www.w3.org/1999/xlink" x="0px" y="0px"
	 viewBox="0 0 466 512" style="enable-background:new 0 0 466 512;" xml:space="preserve">
<path d="M373,326c-30.7,0-57.9,14.9-74.8,37.8l-118.5-73.9c4.1-10.5,6.4-21.9,6.4-33.9c0-11.5-2.1-22.4-5.9-32.6L299,149.3
	c17,22.3,43.8,36.7,74,36.7c51.4,0,93-41.6,93-93S424.4,0,373,0s-93,41.6-93,93c0,9.7,1.5,19,4.2,27.8l-120.3,75
	C146.9,175.8,121.4,163,93,163c-51.4,0-93,41.6-93,93s41.6,93,93,93c27.9,0,53-12.3,70-31.8l120.8,75.3c-2.5,8.4-3.8,17.3-3.8,26.5
	c0,51.4,41.6,93,93,93s93-41.6,93-93S424.4,326,373,326z M373,32c33.6,0,61,27.4,61,61s-27.4,61-61,61c-33.6,0-61-27.4-61-61
	S339.4,32,373,32z M93,317c-33.6,0-61-27.4-61-61s27.4-61,61-61c33.6,0,61,27.4,61,61S126.6,317,93,317z M373,480
	c-33.6,0-61-27.4-61-61s27.4-61,61-61c33.6,0,61,27.4,61,61S406.6,480,373,480z"/>
</svg>
