<?xml version="1.0" encoding="utf-8"?>
<!-- Generator: Adobe Illustrator 21.1.0, SVG Export Plug-In . SVG Version: 6.00 Build 0)  -->
<svg version="1.1" id="Layer_1" xmlns="http://www.w3.org/2000/svg" xmlns:xlink="http://www.w3.org/1999/xlink" x="0px" y="0px"
	 viewBox="0 0 197.4 512.3" style="enable-background:new 0 0 197.4 512.3;" xml:space="preserve">
<g>
	<path d="M198.3,94.7c0-7.5-3.2-12.6-8-13c-0.9-15.1-1.7-26.4-1.8-27.7l-0.2-3.7V27.2c0-8.2-5.4-13.6-13.6-13.6V6.8
		c0-4.1-2.7-6.8-6.8-6.8c-4.1,0-6.8,2.7-6.8,6.8v6.8h-13.6V6.8c0-4.1-2.7-6.8-6.8-6.8c-4.1,0-6.8,2.7-6.8,6.8v6.8h-13.6V6.8
		c0-4.1-2.7-6.8-6.8-6.8c-4.1,0-6.8,2.7-6.8,6.8v6.8H93.3V6.8c0-4.1-2.7-6.8-6.8-6.8c-4.1,0-6.8,2.7-6.8,6.8v6.8H66.1V6.8
		c0-4.1-2.7-6.8-6.8-6.8c-4.1,0-6.8,2.7-6.8,6.8v6.8H39V6.8C39,2.7,36.3,0,32.2,0c-4.1,0-6.8,2.7-6.8,6.8v6.8
		c-8.1,0-13.6,5.4-13.6,13.6v21L11.4,54c-0.1,1.4-0.9,12.7-2,27.7c-5,0-8.5,5.4-8.5,13c0,6.8,2.7,11.7,6.8,12.8
		c-1.8,26.5-3.5,54.2-3.5,60.7c0,10.2,5.3,16.6,9.9,22c4.8,5.7,9.4,11.2,9.4,21.8c0,14.9-3.3,65.6-5.7,102.5
		c-1.5,22.8-2.3,35.9-2.3,38.4c0,11.4,8.4,51.6,18.1,86.1c20.3,73.1,31.4,73.3,36.2,73.3h52.4c23.6,0,54.7-143,55-156.4
		c0-1.2-1.8-120.8-1.8-143.9c0-10.8,4.9-16.6,10-22.7c4.8-5.7,9.7-11.5,9.7-20.7c0-7.9-1.5-35.2-3.1-61.2
		C195.8,106.1,198.3,101.3,198.3,94.7z M160.9,168.7L160.9,168.7L160.9,168.7l-0.2,0.2c-6.5,7.8-17.4,20.8-17.4,43.1
		c0,19,1.2,101.7,1.6,132.8c0.1,4.7,0.1,8.2,0.1,10c-0.8,6.7-6.4,34.8-14.8,65.7c-8.8,32.2-16.1,50.8-20.6,59.8H81.4
		c-3.4-7.1-9.2-21.6-17-49.9l0-0.1c-9.8-34.8-16.6-69.4-16.9-77.4c0.1-2.2,0.5-10.4,2.2-36.3l0-0.3c3.1-48.4,5.8-89.6,5.8-104.3
		c0-22.3-11-35.4-16.9-42.4l-0.1-0.1c-0.6-0.7-1.6-1.9-2.2-2.7c0.2-6.2,1.3-25.6,3.4-57.1l1.8-26.3l0,0c0.3-4.6,0.6-8.9,0.9-12.6
		h115.3c0.2,3.8,0.5,8.1,0.8,12.8l1.6,27.7l0.2,0c1.6,25.9,2.7,46.5,2.9,54.8C162.4,166.9,161.6,167.9,160.9,168.7z M166.9,46.8
		H26.8v-5.9h140.1V46.8z"/>
	<path d="M99.6,259.6c-7,0-12.7,5.6-12.7,12.6c0,6.9,5.7,12.6,12.7,12.6s12.6-5.7,12.6-12.6C112.2,265.3,106.6,259.6,99.6,259.6z"/>
	<path d="M99.6,215.1c-15.4,0-20.3,3.9-21.4,5.1l-1.3,1.4l0.1,1.8c0.4,5.4,2.4,25.1,8.9,37.7c3.2-4,8.1-6.6,13.7-6.6
		c5.5,0,10.5,2.6,13.7,6.6c6.5-12.6,8.5-32.3,8.9-37.7l0.3-1.9l-1.4-1.4C119.9,218.9,114.9,215.1,99.6,215.1z"/>
</g>
</svg>
