<?xml version="1.0" encoding="utf-8"?>
<!-- Generator: Adobe Illustrator 21.1.0, SVG Export Plug-In . SVG Version: 6.00 Build 0)  -->
<svg version="1.1" id="Layer_2" xmlns="http://www.w3.org/2000/svg" xmlns:xlink="http://www.w3.org/1999/xlink" x="0px" y="0px"
	 viewBox="0 0 417 512" style="enable-background:new 0 0 417 512;" xml:space="preserve">
<path id="_x33_2_1_" d="M208.7,0.1L0,93.9V233c0,64.7,19.9,123.7,59.8,177c39.9,53.6,89.5,87.6,148.9,102
	c59.4-14.4,108.9-48.4,148.5-102c39.9-53.3,59.8-112.3,59.8-177V93.9L208.7,0.1z M385,233c0,28.7-4.5,56.5-13.3,82.5
	c-8.8,26.2-22.3,51.5-40.2,75.3l-0.1,0.1l-0.1,0.1c-17.6,23.8-37.5,43.4-59.2,58.3c-19.2,13.2-40.5,23.1-63.3,29.5v6.3V35.4
	l176,79.3V233z"/>
</svg>
