<?xml version="1.0" encoding="utf-8"?>
<!-- Generator: Adobe Illustrator 21.1.0, SVG Export Plug-In . SVG Version: 6.00 Build 0)  -->
<svg version="1.1" id="Layer_2" xmlns="http://www.w3.org/2000/svg" xmlns:xlink="http://www.w3.org/1999/xlink" x="0px" y="0px"
	 viewBox="0 0 417 512" style="enable-background:new 0 0 417 512;" xml:space="preserve">
<g>
	<path id="_x35_2_2_" d="M208.7,35.2L385,114.6V233c0,28.7-4.5,56.5-13.3,82.5c-8.8,26.2-22.3,51.5-40.2,75.3l-0.1,0.1l-0.1,0.1
		c-17.6,23.8-37.5,43.4-59.2,58.3c-19.3,13.3-40.7,23.2-63.6,29.6c-22.9-6.4-44.3-16.4-63.7-29.6c-21.8-14.9-41.8-34.6-59.6-58.4
		l0,0l0,0c-17.8-23.8-31.3-49.1-40.2-75.3c-8.5-26.1-13-53.9-13-82.6V114.6L208.7,35.2 M208.7,0.1L0,93.9V233
		c0,64.7,19.9,123.7,59.8,177c39.9,53.6,89.5,87.6,148.9,102c59.4-14.4,108.9-48.4,148.5-102c39.9-53.3,59.8-112.3,59.8-177V93.9
		L208.7,0.1L208.7,0.1z"/>
</g>
</svg>
