<?xml version="1.0" encoding="utf-8"?>
<!-- Generator: Adobe Illustrator 21.1.0, SVG Export Plug-In . SVG Version: 6.00 Build 0)  -->
<svg version="1.1" id="Layer_2" xmlns="http://www.w3.org/2000/svg" xmlns:xlink="http://www.w3.org/1999/xlink" x="0px" y="0px"
	 viewBox="0 0 417 512" style="enable-background:new 0 0 417 512;" xml:space="preserve">
<path id="_x33_2" d="M208.7,0.1L0,93.9V233c0,64.7,19.9,123.7,59.8,177c39.9,53.6,89.5,87.6,148.9,102
	c59.4-14.4,108.9-48.4,148.5-102c39.9-53.3,59.8-112.3,59.8-177V93.9L208.7,0.1z M331.3,390.8L331.3,390.8l-0.1,0.1
	c-17.5,23.8-37.4,43.4-59,58.2c-19.2,13.2-40.5,23.2-63.3,29.6V256.6H34c-0.7-7.8-1-15.6-1-23.5V114.8l176-79.3l0,0v221.1h174.5
	c-1.8,20.4-5.8,40.1-12.2,59C362.5,341.7,349.1,367,331.3,390.8z"/>
</svg>
