<?xml version="1.0" encoding="utf-8"?>
<!-- Generator: Adobe Illustrator 21.1.0, SVG Export Plug-In . SVG Version: 6.00 Build 0)  -->
<svg version="1.1" id="Layer_1" xmlns="http://www.w3.org/2000/svg" xmlns:xlink="http://www.w3.org/1999/xlink" x="0px" y="0px"
	 viewBox="0 0 500 512" style="enable-background:new 0 0 500 512;" xml:space="preserve">
<path d="M240.3,54.5H113.2v42.1h127.1L240.3,54.5L240.3,54.5z M240.3,1.9h-92V44h92V1.9L240.3,1.9z M403.7,107.1H258.4v42h145.3
	V107.1z M407.5,247.5h30.4v-35.1H332.6L407.5,247.5z M240.3,107.1H95.1v42.1h145.3L240.3,107.1L240.3,107.1z M385.6,54.5H258.4v42.1
	h127.1V54.5H385.6z M350.4,1.9h-92v42h92V1.9z M258.9,181.1l48.4,20.7h113.5v-42.1H259L258.9,181.1z M243.1,212.6L46.9,295.5
	c-4.5,1.9-5.8,6.9-2.9,10.4l46.6,53.9c1,1.2,1.6,2.7,1.6,4.2v79.4c0,0.2,0,0.6,0,0.6L0,443.9v19.4c0,0,126.4-0.1,128.8-0.1
	c31.9,13.4,114.5,48.1,114.5,48.1c1,0.5,2.2,0.7,3.4,0.7c0-0.4,0-299.7,0-300.1C245.4,211.9,244.2,212.1,243.1,212.6z M171.2,274.7
	l15.3-6.6c2.7-1.2,5.1,0,5.5,2.6l1.5,12.2c0.3,2.6-1.6,5.5-4.3,6.6l-15.2,6.2c-2.6,1.1-4.9-0.1-5.3-2.6l-1.6-11.8
	C166.8,278.8,168.6,275.8,171.2,274.7z M140,288l14.4-6.2c2.5-1.1,4.9,0.1,5.3,2.6l1.6,11.7c0.3,2.5-1.5,5.3-4,6.3l-14.3,5.8
	c-2.4,1-4.7-0.2-5-2.6l-1.7-11.4C135.9,291.9,137.5,289.1,140,288z M99.1,326.2l-12.8,5.2c-2.2,0.9-4.2-0.2-4.7-2.5l-1.9-10.6
	c-0.5-2.3,1-4.9,3.2-5.8l12.8-5.5c2.3-1,4.5,0.1,4.8,2.5l1.8,10.9C102.7,322.7,101.2,325.3,99.1,326.2z M109,317.7l-1.8-11
	c-0.3-2.4,1.1-5.1,3.4-6.1l13.6-5.8c2.4-1,4.7,0.1,5,2.5l1.7,11.3c0.3,2.4-1.3,5.1-3.7,6.1l-13.5,5.5
	C111.5,321.1,109.4,320,109,317.7z M210.6,462.2c0,0-37.2-16.8-61.5-25.9c-11.7-4.4-20.5-5-20.5-5s1.7-39.6,0.8-63.6
	c-0.5-10.5-4.1-18-4.1-18l85.4-33.9L210.6,462.2L210.6,462.2z M222.9,275.8l-16.1,6.6c-2.7,1.1-5.1-0.1-5.5-2.7l-1.4-12.3
	c-0.3-2.6,1.7-5.7,4.5-6.9l16.4-7c2.9-1.2,5.4,0,5.7,2.7l1.3,12.7C227.9,271.5,225.8,274.6,222.9,275.8z M381.5,512h92.3v-18.9
	h-92.3V512L381.5,512z M407.6,443.9c0,0,0-0.4,0-0.6v-79.4c0-1.5,0.6-3,1.6-4.2l46.6-53.9c3-3.5,1.6-8.5-2.9-10.4l-196.2-82.8
	c-1.1-0.5-2.3-0.7-3.4-0.7c0,0.4,0,299.7,0,300.1c1.1,0,2.3-0.2,3.4-0.7c0,0,81.2-34.5,113.6-48.1c17.2,0,129.7,0.1,129.7,0.1v-19.4
	H407.6z M338.4,295.7L340,284c0.3-2.5,2.7-3.7,5.3-2.6l14.5,6.2c2.4,1,4.1,3.9,3.8,6.3l-1.7,11.4c-0.3,2.4-2.6,3.5-5,2.6l-14.4-5.8
	C339.9,301,338,298.1,338.4,295.7z M306.1,282.5l1.5-12.1c0.3-2.6,2.7-3.8,5.5-2.6l15.3,6.6c2.6,1.1,4.5,4.1,4.1,6.6l-1.6,11.8
	c-0.3,2.5-2.6,3.7-5.3,2.6l-15.2-6.2C307.7,288,305.9,285,306.1,282.5z M271.9,268.4l1.3-12.6c0.2-2.7,2.9-3.9,5.7-2.7l16.4,7
	c2.7,1.2,4.8,4.3,4.5,6.9l-1.4,12.3c-0.3,2.6-2.7,3.8-5.5,2.7l-16.2-6.6C273.7,274.2,271.6,271.1,271.9,268.4z M371.2,372.6
	c-1,24.5,0,59.8,0,59.8s-5.1-2.2-19.3,3c-24,8.8-62.7,26.9-62.7,26.9V314.8l85.4,33.9C374.6,348.7,371.8,357.7,371.2,372.6z
	 M392.6,306.2l-1.8,11c-0.3,2.3-2.5,3.4-4.9,2.5l-13.5-5.5c-2.4-1-4-3.7-3.7-6l1.7-11.3c0.3-2.4,2.6-3.5,5-2.5l13.6,5.8
	C391.4,301.1,393,303.8,392.6,306.2z M397.4,319.8l1.8-10.9c0.5-2.3,2.5-3.4,4.8-2.5l12.9,5.5c2.2,0.9,3.7,3.5,3.2,5.8l-1.9,10.6
	c-0.5,2.2-2.5,3.3-4.7,2.5l-12.8-5.2C398.5,324.7,397,322.1,397.4,319.8z M166.2,212.4H61v35.1h30.4L166.2,212.4z M26,512h92.3
	v-18.9H26V512z M239.8,181.2v-21.5H78v42.1h113.2L239.8,181.2z"/>
</svg>
