<?xml version="1.0" encoding="utf-8"?>
<!-- Generator: Adobe Illustrator 22.0.1, SVG Export Plug-In . SVG Version: 6.00 Build 0)  -->
<svg version="1.1" id="Layer_1" xmlns="http://www.w3.org/2000/svg" xmlns:xlink="http://www.w3.org/1999/xlink" x="0px" y="0px"
	 viewBox="0 0 511 512" style="enable-background:new 0 0 511 512;" xml:space="preserve">
<style type="text/css">
	.st0{fill:#010101;}
</style>
<g>
	<path class="st0" d="M502.9,196.1H369.6L317.2,25.4C313.7,14,304.7,5.1,293.3,1.9l-1.7-0.5c-13.1-3.8-27.2,0.5-36,10.9
		c-8.8-10.4-22.9-14.7-35.9-10.9L218,1.9c-11.5,3.2-20.5,12.1-23.9,23.5l-52.5,170.7H8.3c-4.7,0-8.5,3.8-8.5,8.5v51.2
		c0,4.7,3.8,8.5,8.5,8.5h18.6l44.1,213.3c3.8,18.1,18.8,31.5,36.8,33.7l0.3,0.3h4.6h285.5h5.8l0.3-0.5c17.5-2.6,31.9-15.8,35.6-33.5
		l44.1-213.3h18.6c4.7,0,8.5-3.8,8.5-8.5v-51.2C511.4,199.9,507.6,196.1,502.9,196.1z M264.8,30.1c2.2-7.7,9.2-13,17.2-13
		c1.7,0,3.3,0.2,4.9,0.7l1.8,0.5c5.9,1.7,10.5,6.2,12.2,12.1l59.6,193.9c2.9,9.4-2.5,19.4-11.9,22.3c-3.3,1-6.8,1-10,0.1l-1.7-0.5
		c-5.9-1.7-10.5-6.2-12.2-12.1L264.9,40.1C263.9,36.9,263.9,33.4,264.8,30.1z M311.9,247.2H199.3c1.6-2.6,2.8-5.3,3.7-8.2l8-25.9
		h89.2l7.9,25.8C309,241.9,310.3,244.7,311.9,247.2z M255.6,68l39.4,128.1h-78.7L255.6,68z M150.8,224.3l59.6-193.9
		c1.7-5.8,6.4-10.4,12.2-12l1.7-0.5c1.6-0.4,3.2-0.7,4.9-0.7c8,0,15,5.3,17.1,13c0.9,3.3,0.9,6.7-0.1,10l-59.6,194
		c-1.7,5.8-6.4,10.4-12.2,12l-1.7,0.5c-9.5,2.7-19.4-2.8-22.1-12.3C149.8,231,149.8,227.5,150.8,224.3L150.8,224.3z M16.8,247.2
		v-34.1h119.5l-1.9,6.2c-1.9,6.4-2,13.2-0.2,19.6c0.9,2.9,2.1,5.7,3.7,8.3H16.8z M424.3,469.7H86.5L49.1,289.1h412.6L424.3,469.7z
		 M494.4,247.2H373.1c1.6-2.6,2.9-5.4,3.7-8.3c1.8-6.4,1.8-13.2-0.2-19.6l-1.9-6.1h119.5V247.2z"/>
	<path class="st0" d="M138,325.7c-2.6-6.7-10.1-10.1-16.9-7.6c-6.7,2.6-10.1,10.1-7.6,16.9l36.8,98.4c2,5.2,7,8.4,12.2,8.4
		c1.5,0,3.1-0.3,4.6-0.9c3.3-1.2,5.8-3.7,7.3-6.9c1.4-3.2,1.5-6.7,0.3-10L138,325.7z"/>
	<path class="st0" d="M255.6,317.3c-7.2,0-13.1,5.9-13.1,13.1v97.2c0,7.2,5.9,13.1,13.1,13.1c7.2,0,13.1-5.9,13.1-13.1v-97.2
		C268.7,323.2,262.8,317.3,255.6,317.3z"/>
	<path class="st0" d="M397.3,325c-1.4-3.2-4-5.6-7.3-6.9c-6.7-2.6-14.3,0.8-16.9,7.6l-37.5,98.4c-1.2,3.3-1.1,6.8,0.3,10
		c1.4,3.2,4,5.6,7.3,6.9c1.5,0.6,3.1,0.9,4.6,0.9c5.3,0,10.2-3.2,12.2-8.4l37.5-98.4C398.8,331.8,398.7,328.2,397.3,325z"/>
	
		<ellipse transform="matrix(0.3827 -0.9239 0.9239 0.3827 -105.151 296.8129)" class="st0" cx="169.5" cy="227.1" rx="11.1" ry="11.1"/>
	<circle class="st0" cx="342.3" cy="227.1" r="11.1"/>
</g>
</svg>
