<?xml version="1.0" encoding="utf-8"?>
<!-- Generator: Adobe Illustrator 21.1.0, SVG Export Plug-In . SVG Version: 6.00 Build 0)  -->
<svg version="1.1" id="Layer_2" xmlns="http://www.w3.org/2000/svg" xmlns:xlink="http://www.w3.org/1999/xlink" x="0px" y="0px"
	 viewBox="0 0 512 512" style="enable-background:new 0 0 512 512;" xml:space="preserve">
<g>
	<path d="M11.3,512h43.2V293.1h149.3V512h299V224.8H11.3V512z M454.4,495.3H239.1V293.1h215.3V495.3z M43.3,256.8h427.5v4.3h-16.4
		H239.1h-32h-3.3H54.5H43.3V256.8z"/>
	<rect x="262.8" y="446.4" transform="matrix(0.7071 -0.7071 0.7071 0.7071 -251.5872 325.89)" width="9.5" height="40.4"/>
	<rect x="251.5" y="465.1" transform="matrix(0.7071 -0.7071 0.7071 0.7071 -262.8875 321.1981)" width="9.5" height="25.6"/>
	<path d="M454.7,51.4V29.3c0-16.2-13.2-29.4-29.4-29.4H88.7C72.4,0,59.3,13.2,59.3,29.4v22.1L0,172.9v15.9c0,5.3,4.3,9.6,9.6,9.6
		h23.9c5.3,0,9.6-4.3,9.6-9.6v-15.9h36v15.9c0,5.3,4.3,9.6,9.6,9.6h30.7c5.3,0,9.6-4.3,9.6-9.6v-15.9h42c0,0.1,0,8.7,0,15.9
		c0,5.3,4.3,9.6,9.6,9.6h40.9c5.3,0,9.6-4.3,9.6-9.6c0-7.2,0-15.8,0-15.9h52c0,0.1,0,8.7,0,15.9c0,5.3,4.3,9.6,9.6,9.6h40.9
		c5.3,0,9.6-4.3,9.6-9.6c0-7.2,0-15.8,0-15.9h42v15.9c0,5.3,4.3,9.6,9.6,9.6h30.7c5.3,0,9.6-4.3,9.6-9.6v-15.9h34v15.9
		c0,5.3,4.3,9.6,9.6,9.6h23.9c5.3,0,9.6-4.3,9.6-9.6v-15.9L454.7,51.4z M435.1,140.9h-32h-17.9h-42h-32h-28.1h-52h-32H171h-42H97
		H79.1H51.2l36.8-75.4l3.2-6.6v-7.4V31.9h331.4v19.5v7.2l3.1,6.5l35.9,75.8H435.1z"/>
	<rect x="61.7" y="317.4" transform="matrix(0.7071 -0.7071 0.7071 0.7071 -203.7893 152.2922)" width="40.4" height="9.5"/>
	<rect x="57.8" y="306.1" transform="matrix(0.7071 -0.7071 0.7071 0.7071 -199.168 140.9629)" width="25.6" height="9.5"/>
</g>
</svg>
