<?xml version="1.0" encoding="utf-8"?>
<!-- Generator: Adobe Illustrator 22.0.1, SVG Export Plug-In . SVG Version: 6.00 Build 0)  -->
<svg version="1.1" id="Layer_1" xmlns="http://www.w3.org/2000/svg" xmlns:xlink="http://www.w3.org/1999/xlink" x="0px" y="0px"
	 viewBox="0 0 512 512" style="enable-background:new 0 0 512 512;" xml:space="preserve">
<style type="text/css">
	.st0{fill:#010101;}
</style>
<g id="_x33_2">
	<path class="st0" d="M512,462L470.7,1.3h-1.8c-0.2-0.6-0.4-1-0.6-1c0,0-2.2,0-7.9,0c-5.9,0-11.6,0.3-17.1,1H71.8H61H60L56.6,54H45
		H35L3,512h19.2v0h427.7v0H470L512,462z M104.5,35.2c-0.1,9-14.2,15.2-29,18.8h-5.9l1.6-38.1C85.9,18.5,104.7,25,104.5,35.2z
		 M417.6,86L436.5,480H37.3L64.8,86H417.6z M390.1,54h-271c3.9-4.7,6.1-9.8,6.1-15.2c0-9.2-6.3-17.6-16.7-24.2h293
		c-10.8,6.7-17.2,15.2-17.2,24.5C384.3,44.3,386.4,49.4,390.1,54z M449.6,86h0.3l-0.4-1.2L448,54h-8.1h-13.2
		c-11.4-3.1-22.4-8.4-22.4-14.9c0-16.4,28.6-22.3,55.4-23.5l29.5,434.1L468,470L449.6,86z"/>
	<path class="st0" d="M373.3,170.7c0-18.7-15.2-33.9-33.9-33.9s-33.9,15.2-33.9,33.9c0,14.4,9,26.8,21.8,31.7v20.3
		c0,48.4-35.6,87.8-79.4,87.8c-43.8,0-79.4-39.4-79.4-87.8v-20.3c12.7-4.9,21.8-17.2,21.8-31.7c0-18.7-15.2-33.9-33.9-33.9
		s-33.9,15.2-33.9,33.9c0,13.9,8.3,25.8,20.2,31v21c0,62.6,47.2,113.6,105.2,113.6c58,0,105.2-51,105.2-113.6v-20.9
		C364.9,196.4,373.3,184.5,373.3,170.7z"/>
</g>
</svg>
