<?xml version="1.0" encoding="utf-8"?>
<!-- Generator: Adobe Illustrator 21.1.0, SVG Export Plug-In . SVG Version: 6.00 Build 0)  -->
<svg version="1.1" id="Layer_1" xmlns="http://www.w3.org/2000/svg" xmlns:xlink="http://www.w3.org/1999/xlink" x="0px" y="0px"
	 viewBox="0 0 458.8 512" style="enable-background:new 0 0 458.8 512;" xml:space="preserve">
<g>
	<path d="M335.8,75.8c-30.1,33.5-119.3,122.8-152.6,152.7c-20.4-33.3-21.7-76.4-2.1-111.9l6.3-11.5l-51.7-52
		c-10.4-11.6-25.6-18.3-41.8-18.3C78,34.8,63.1,41,52,52.1c-11.2,11.1-17.3,26.1-17.3,42v418.1H0V94.1C0,42.3,42.1,0.1,93.9,0.1
		c25.1,0,48.7,9.8,66.4,27.5l52.2,52.5l11.6-6.6C258.8,53.9,301.8,55.3,335.8,75.8z"/>
	<path d="M342.4,126L342.4,126c0.1-0.2,0.4-0.2,0.6-0.1c1.7,1.3,5.3,1.3,9.1,1.5c3.8,0.2,7.8,0.6,10.2,2.9c4,3.7,4.4,9.9,0.7,14.1
		c-3.7,4.1-10,4.5-14,0.8c-2.6-2.2-3.4-6.1-4-9.8c-0.6-3.8-1-7.4-2.5-8.9C342.3,126.4,342.3,126.2,342.4,126z M316.7,154.5
		c0.1-0.1,0.4-0.2,0.6,0c1.7,1.2,5.3,1.3,9.1,1.5c3.8,0.2,7.8,0.6,10.2,3c4,3.6,4.4,9.9,0.7,14c-3.7,4.1-10,4.5-14.1,0.8
		c-2.6-2.2-3.4-6.1-4-9.8c-0.6-3.8-1-7.4-2.5-8.9C316.6,155,316.6,154.7,316.7,154.5z M291,183.1c0.1-0.2,0.4-0.2,0.6-0.1
		c1.7,1.3,5.3,1.3,9.1,1.5c3.8,0.2,7.8,0.6,10.2,2.9c4,3.7,4.4,9.9,0.7,14.1c-3.7,4.1-10,4.5-14.1,0.8c-2.6-2.2-3.4-6.1-4-9.8
		c-0.6-3.8-1-7.4-2.5-8.9C290.9,183.5,290.9,183.2,291,183.1z M265.3,211.6c0.1-0.2,0.4-0.2,0.6,0c1.7,1.2,5.3,1.3,9.1,1.5
		c3.8,0.2,7.8,0.6,10.2,3c4,3.6,4.4,9.9,0.7,14c-3.7,4.1-10,4.5-14,0.8c-2.6-2.2-3.4-6.1-4-9.8c-0.6-3.8-1-7.4-2.5-8.9
		C265.2,212,265.2,211.8,265.3,211.6z M246.1,259.4c-2.6-2.2-3.4-6.1-4-9.8c-0.6-3.8-1-7.4-2.5-8.9c-0.1-0.1-0.1-0.4,0-0.6
		c0.1-0.1,0.4-0.2,0.6-0.1c1.7,1.3,5.3,1.3,9.1,1.5c3.8,0.2,7.8,0.6,10.2,3c4.1,3.6,4.4,9.9,0.7,14
		C256.4,262.7,250.2,263.1,246.1,259.4z M266.4,303.5c-2.6-2.2-3.4-6.1-4-9.8c-0.6-3.8-1-7.4-2.5-8.9c-0.1-0.2-0.1-0.4,0-0.6
		c0.1-0.2,0.4-0.2,0.6,0c1.7,1.2,5.3,1.3,9.1,1.5c3.8,0.2,7.8,0.6,10.2,3c4,3.7,4.4,9.9,0.7,14C276.7,306.8,270.4,307.2,266.4,303.5
		z M300.7,346.8c-3.7,4.1-10,4.5-14,0.8c-2.6-2.2-3.4-6.1-4-9.8c-0.6-3.8-1-7.4-2.5-8.9c-0.1-0.2-0.1-0.4,0-0.6
		c0.1-0.1,0.4-0.2,0.6,0c1.7,1.2,5.3,1.3,9.1,1.5c3.8,0.2,7.8,0.6,10.2,3C304.1,336.4,304.4,342.7,300.7,346.8z M292.1,275
		c-2.6-2.2-3.4-6.1-4-9.8c-0.6-3.8-1-7.4-2.5-8.9c-0.1-0.1-0.1-0.4,0-0.6c0.1-0.1,0.4-0.2,0.6-0.1c1.7,1.2,5.3,1.3,9.1,1.5
		c3.8,0.2,7.8,0.6,10.2,3c4,3.7,4.4,9.9,0.7,14.1C302.4,278.3,296.1,278.6,292.1,275z M326.4,318.3c-3.7,4.1-10,4.5-14,0.8
		c-2.6-2.2-3.4-6.1-4-9.8c-0.6-3.8-1-7.4-2.5-8.9c-0.1-0.2-0.1-0.4,0-0.6c0.1-0.2,0.4-0.2,0.6-0.1c1.7,1.3,5.3,1.3,9.1,1.5
		c3.8,0.2,7.8,0.6,10.2,3C329.8,307.9,330.1,314.2,326.4,318.3z M317.8,246.5c-2.6-2.2-3.4-6.1-4-9.8c-0.6-3.8-1.1-7.4-2.5-8.9
		c-0.1-0.2-0.1-0.4,0-0.6c0.1-0.2,0.4-0.2,0.6,0c1.7,1.2,5.3,1.3,9.1,1.5c3.8,0.2,7.8,0.6,10.2,2.9c4,3.7,4.4,9.9,0.7,14.1
		C328.1,249.8,321.8,250.1,317.8,246.5z M352.1,289.8c-3.7,4.1-10,4.5-14,0.8c-2.6-2.2-3.4-6.1-4-9.8c-0.6-3.8-1-7.4-2.5-8.9
		c-0.1-0.2-0.1-0.4,0-0.6c0.1-0.1,0.4-0.2,0.6,0c1.7,1.2,5.3,1.3,9.1,1.5c3.8,0.2,7.8,0.6,10.2,3
		C355.5,279.3,355.8,285.6,352.1,289.8z M343.5,217.9c-2.6-2.1-3.4-6.1-4-9.8c-0.6-3.8-1.1-7.4-2.5-8.9c-0.1-0.1-0.1-0.4,0-0.6
		c0.1-0.1,0.4-0.2,0.6-0.1c1.7,1.2,5.3,1.3,9.1,1.5c3.8,0.2,7.8,0.6,10.2,3c4,3.7,4.4,9.9,0.7,14
		C353.8,221.2,347.5,221.6,343.5,217.9z M377.8,261.2c-3.7,4.1-10,4.5-14,0.8c-2.6-2.2-3.4-6.1-4-9.8c-0.6-3.8-1-7.4-2.5-8.9
		c-0.1-0.2-0.1-0.4,0-0.6c0.1-0.2,0.4-0.2,0.6-0.1c1.7,1.3,5.3,1.3,9.1,1.5c3.8,0.2,7.8,0.6,10.2,2.9
		C381.2,250.8,381.5,257.1,377.8,261.2z M369.2,189.4c-2.6-2.2-3.4-6.1-4-9.8c-0.6-3.8-1.1-7.4-2.5-8.9c-0.1-0.2-0.1-0.4,0-0.6
		c0.1-0.2,0.4-0.2,0.6,0c1.7,1.2,5.3,1.3,9.1,1.5c3.8,0.2,7.8,0.6,10.2,3c4,3.6,4.4,9.9,0.7,14C379.5,192.7,373.2,193,369.2,189.4z
		 M403.5,232.7c-3.7,4.1-10,4.5-14,0.8c-2.6-2.2-3.4-6.1-4-9.8c-0.6-3.8-1-7.4-2.5-8.9c-0.1-0.2-0.1-0.4,0-0.6
		c0.1-0.1,0.4-0.2,0.6,0c1.7,1.2,5.3,1.3,9.1,1.5c3.8,0.2,7.8,0.6,10.2,3C406.9,222.3,407.2,228.5,403.5,232.7z M394.8,160.9
		c-2.6-2.1-3.4-6.1-4-9.8c-0.6-3.8-1-7.4-2.5-8.9c-0.1-0.2-0.1-0.4,0-0.6c0.1-0.1,0.4-0.2,0.6,0c1.7,1.2,5.3,1.3,9.1,1.5
		c3.8,0.2,7.8,0.6,10.2,3c4,3.7,4.4,9.9,0.7,14C405.2,164.2,398.9,164.5,394.8,160.9z M429.2,204.2c-3.7,4.1-10,4.4-14,0.8
		c-2.6-2.2-3.4-6.1-4-9.8c-0.6-3.8-1-7.4-2.5-8.9c-0.1-0.2-0.1-0.4,0-0.6s0.4-0.2,0.6-0.1c1.7,1.3,5.3,1.3,9.1,1.5
		c3.8,0.2,7.8,0.6,10.2,2.9C432.6,193.8,432.9,200,429.2,204.2z M454.9,175.6c-3.7,4.1-10,4.5-14,0.8c-2.6-2.2-3.4-6.1-4-9.8
		c-0.6-3.8-1-7.4-2.5-8.9c-0.1-0.2-0.1-0.4,0-0.6c0.1-0.2,0.4-0.2,0.6-0.1c1.7,1.2,5.3,1.3,9.1,1.5c3.8,0.2,7.8,0.6,10.2,3
		C458.3,165.2,458.6,171.5,454.9,175.6z"/>
</g>
</svg>
