<?xml version="1.0" encoding="utf-8"?>
<!-- Generator: Adobe Illustrator 21.1.0, SVG Export Plug-In . SVG Version: 6.00 Build 0)  -->
<svg version="1.1" id="Layer_1" xmlns="http://www.w3.org/2000/svg" xmlns:xlink="http://www.w3.org/1999/xlink" x="0px" y="0px"
	 viewBox="0 0 493.7 512" style="enable-background:new 0 0 493.7 512;" xml:space="preserve">
<g>
	<path d="M466.1,75.9c-5.7,20.2-18.1,40.9-37.2,62.3c-5.9,6.7-14.4,15.7-25.6,26.9l-6.7,6.9l-6.5,6.5c-4.8,5-9,9.4-12.8,13.3
		c-16.7,16.8-34.8,37-54.3,60.3c-7.3,9.1-15.7,19.7-25.2,31.8l-12.6,15.9l-12.6,15.9c-43.2,55.3-78.9,96.1-107,122.4
		c-18.8,17.2-42.1,31.7-70,43.5c-21.4,8.9-49.7,18.1-81.5,21.9c0,0,14.7,7.5,40.8,7.5c29,0,72.1-9.3,124.8-48.6
		c62.9-53.4,114-123.3,171.4-181.9c67.6-69,110.1-92.8,130.7-136.8C502.2,92.2,496.2,84.2,466.1,75.9z"/>
	<path d="M228.8,357.5c6.9-9.5,82.1-101.5,95.1-117.8c60.6-76.3,124.8-112.9,133.7-165c-37.3-7.8-82.9-74.1-135.2-74.1
		c-7.2,0-13.7,1.6-19.4,5.1c-1.7,5.6,11.2,51-8.4,79.3c-13.8,23.3-16.7,27.3-42.7,37.1c-43.2,16.2-104.4,21.3-126.6,52.9
		c-10.8,23.6-20.5,172.1-116.1,263c-14.6,15-10.1,44.5,1.9,59.5c28.7-1.9,97.2-21.3,143.5-59.3C154.6,438.2,206.1,388.7,228.8,357.5
		z M153.7,190.8c18.8-16.2,88.9-30.2,109.4-38.7l0,0l0,0c17.3-6.5,27.8-12,36.3-19.9c-14.5,35.1-47.7,49.2-47.7,49.2
		s59.6-10.8,67.8-75.8c0.7-1.1,1.3-2.2,2-3.4c14.1-21,16.5-45.8,15.9-65.5c29.8,13.1,65.1,48.6,79.4,54
		c-18.6,28.5-75.2,76.7-110.5,119.7c-113.3-1.5-171.3,83.2-171.3,83.2s53-61.5,151.1-57.5c-25.7,32.4-75.6,94.3-82,101.1
		c-14.3,15-26.7,30.9-40.5,46.4c-0.9-18.8,2-35.4,8.8-49.8c3-6.2,6.8-12.9,11.2-20.1c0.1-0.1,0-0.3-0.1-0.2
		c-26.2,28.3-30.6,56.8-29.1,80.1c-3.1,3.2-6.2,6.4-9.5,9.5c-2.1-32,4.8-59.9,26.6-90.1c-33.1,28.7-40.5,64.4-35.3,98
		c-24.2,20.8-55.5,39.1-104,50.7C122.6,370.8,134.7,267.9,153.7,190.8z"/>
</g>
</svg>
