<?xml version="1.0" encoding="utf-8"?>
<!-- Generator: Adobe Illustrator 22.0.1, SVG Export Plug-In . SVG Version: 6.00 Build 0)  -->
<svg version="1.1" id="Layer_1" xmlns="http://www.w3.org/2000/svg" xmlns:xlink="http://www.w3.org/1999/xlink" x="0px" y="0px"
	 viewBox="0 0 512 512" style="enable-background:new 0 0 512 512;" xml:space="preserve">
<g>
	<path d="M440.7,474.5l-29.6-43V265.1c0-85.6-69.4-155-155.1-155c-42.8,0-81.6,17.4-109.6,45.4c-28,28.1-45.4,66.8-45.4,109.6v166.4
		l-29.6,43.1H44.7V512h422.7v-37.5H440.7z M133,265.1c0-32.9,12.8-63.8,36-87c23.2-23.2,54.1-36,87-36s63.8,12.8,87,36
		c23.2,23.2,36,54.1,36,87v155.3H133V265.1z M106.4,480l19-27.6h261.2l19,27.6H106.4z"/>
	<path d="M71.9,256.7H20.4C9.1,256.7,0,247.6,0,236.3C0,225.1,9.1,216,20.4,216h51.5V256.7z M90.5,120.3L54.1,83.9
		c-7.9-8-7.9-20.8,0-28.8c8-8,20.8-8,28.8,0l36.4,36.4L90.5,120.3z M192.9,309.5l-18.1,0v-18.2h18.1V309.5z M192.5,285.6h-17.9
		c0-75.9,31.3-74.5,31.3-74.5S192.5,214.8,192.5,285.6z M276.4,71.9h-40.7V20.3C235.7,9.1,244.8,0,256,0c5.6,0,10.7,2.3,14.4,6
		c3.7,3.7,6,8.8,6,14.4V71.9z M391.4,91.5l36.4-36.4c7.9-8,20.8-8,28.8,0c4,4,6,9.2,6,14.4c0,5.2-2,10.4-6,14.4l-36.4,36.4
		L391.4,91.5z M506,250.7c-3.7,3.7-8.8,6-14.4,6h-51.5V216h51.5c11.2,0,20.4,9.1,20.4,20.3C512,242,509.7,247,506,250.7z"/>
</g>
</svg>
