<?xml version="1.0" encoding="utf-8"?>
<!-- Generator: Adobe Illustrator 21.1.0, SVG Export Plug-In . SVG Version: 6.00 Build 0)  -->
<svg version="1.1" id="Layer_1" xmlns="http://www.w3.org/2000/svg" xmlns:xlink="http://www.w3.org/1999/xlink" x="0px" y="0px"
	 viewBox="0 0 512 512" style="enable-background:new 0 0 512 512;" xml:space="preserve">
<g>
	<path d="M460.5,51.5c13.8,13.8,21.4,32.2,21.4,51.7c0,16.8-5.7,32.8-16.1,45.7c-24.6-16.5-58.3-13.9-80,7.8L346,196.6
		c-21.8,21.8-24.3,55.7-7.5,80.4l-63.5,63.5c-24.6-16.8-58.5-14.3-80.4,7.5L154.6,388c-21.7,21.7-24.3,55.2-7.9,79.8
		c-12.5,9.2-27.6,14.2-43.4,14.2c-19.5,0-37.9-7.6-51.7-21.4c-13.8-13.8-21.4-32.2-21.4-51.7c0-15.8,5-30.9,14.3-43.4
		c24.6,16.3,58.1,13.6,79.7-8l39.9-39.9c21.8-21.8,24.3-55.7,7.5-80.4l63.5-63.5c24.6,16.8,58.5,14.3,80.4-7.5l39.9-39.9
		c21.7-21.7,24.3-55.5,7.7-80.1c12.9-10.4,28.9-16.1,45.7-16.1C428.3,30.1,446.7,37.7,460.5,51.5 M481.7,30.3
		C441.4-10,376.2-10,335.9,30.3L321.2,45l13,13c13,13,13,34,0,47l-39.9,39.9c-13,13-34,13-47,0L234.4,132L130,236.5l12.9,12.9
		c13,13,13,34,0,47l-39.9,39.9c-13,13-34,13-47,0L43,323.4L30.4,336c-40.3,40.3-40.3,105.5,0,145.8c20.1,20.1,46.5,30.2,72.9,30.2
		c26.4,0,52.8-10.1,72.9-30.2l12.5-12.7l-12.9-12.9c-13-13-13-34,0-47l39.9-39.9c13-13,34-13,47,0l12.9,12.9l104.4-104.4l-12.9-12.9
		c-13-13-13-34,0-47l39.9-39.9c13-13,34-13,47,0l12.9,12.9l14.7-14.7C522.1,135.8,522.1,70.6,481.7,30.3L481.7,30.3z"/>
	<path d="M237.5,105.7l30.9,30.9c4.4,4.4,11.6,4.4,16.1,0l41.4-41.4c4.4-4.4,4.4-11.6,0-16.1L295,48.2c-4.4-4.4-11.6-4.4-16.1,0
		l-41.4,41.4C233.1,94,233.1,101.2,237.5,105.7z"/>
	<path d="M463.9,217.2L433,186.2c-4.4-4.4-11.6-4.4-16.1,0l-41.4,41.4c-4.4,4.4-4.4,11.6,0,16.1l30.9,30.9c4.4,4.4,11.6,4.4,16.1,0
		l41.4-41.4C468.3,228.9,468.3,221.7,463.9,217.2z"/>
	<path d="M93.7,327.3l41.4-41.4c4.4-4.4,4.4-11.6,0-16.1l-30.9-30.9c-4.4-4.4-11.6-4.4-16.1,0l-41.4,41.4c-4.4,4.4-4.4,11.6,0,16.1
		l30.9,30.9C82.1,331.7,89.3,331.7,93.7,327.3z"/>
	<path d="M273.3,407.8l-30.9-30.9c-4.4-4.4-11.6-4.4-16.1,0l-41.4,41.4c-4.4,4.4-4.4,11.6,0,16.1l30.9,30.9c4.4,4.4,11.6,4.4,16.1,0
		l41.4-41.4C277.7,419.5,277.7,412.3,273.3,407.8z"/>
</g>
</svg>
