<?xml version="1.0" encoding="utf-8"?>
<!-- Generator: Adobe Illustrator 21.1.0, SVG Export Plug-In . SVG Version: 6.00 Build 0)  -->
<svg version="1.1" id="Layer_1" xmlns="http://www.w3.org/2000/svg" xmlns:xlink="http://www.w3.org/1999/xlink" x="0px" y="0px"
	 viewBox="0 0 483 512" style="enable-background:new 0 0 483 512;" xml:space="preserve">
<g>
	<path d="M399.6,28.8V0H83.3v29L0,483.7c56.8,17.1,151,28.6,248.2,28.6c83.2,0,168.7-8.4,234.8-28.8L399.6,28.8z M248.2,480.3
		c-14.7,0-29.5-0.3-44.2-0.8v-253h-13.1l-9.9,252c-23.4-1.3-46.4-3.2-68.4-5.8c-2.6-0.3-5.2-0.6-7.8-0.9l24.1-245.3h-8.1l-38,242.2
		c-16.6-2.5-32.1-5.3-46-8.4l77.9-425.4l0.5-2.8h31.9l2.9,60.2h32.3L179.5,32H303l-2.9,60.2h32.3l2.9-60.2h32.3l0.5,2.6l78.1,425.8
		c-14.6,3.5-30.2,6.5-46.7,9.1l-38.1-243h-8.1l24.1,246.2c-24.6,3.1-50.8,5.3-78.2,6.6l-9.9-252.7h-13.1v253.5
		C267,480.1,257.6,480.3,248.2,480.3z"/>
	<circle cx="241.8" cy="65.8" r="16.7"/>
	<circle cx="241.8" cy="116.1" r="16.7"/>
	<circle cx="241.8" cy="166.5" r="16.7"/>
</g>
</svg>
