<?xml version="1.0" encoding="utf-8"?>
<!-- Generator: Adobe Illustrator 21.1.0, SVG Export Plug-In . SVG Version: 6.00 Build 0)  -->
<svg version="1.1" id="Layer_2" xmlns="http://www.w3.org/2000/svg" xmlns:xlink="http://www.w3.org/1999/xlink" x="0px" y="0px"
	 viewBox="0 0 512 512" style="enable-background:new 0 0 512 512;" xml:space="preserve">
<rect x="426.7" y="46.9" width="85.3" height="32"/>
<rect y="46.9" width="242.5" height="32"/>
<rect x="426.7" y="433.5" width="85.3" height="32"/>
<rect y="433.5" width="242.5" height="32"/>
<rect x="252.8" y="240.2" width="259.2" height="32"/>
<rect y="240.2" width="78.7" height="32"/>
<path d="M331.7,32.8c16.6,0,30.1,13.5,30.1,30.1S348.3,93,331.7,93s-30.1-13.5-30.1-30.1S315.1,32.8,331.7,32.8 M331.7,0.8
	c-34.3,0-62.1,27.8-62.1,62.1c0,34.3,27.8,62.1,62.1,62.1c34.3,0,62.1-27.8,62.1-62.1C393.8,28.6,366,0.8,331.7,0.8L331.7,0.8z"/>
<path d="M166.5,225.9c16.6,0,30.1,13.5,30.1,30.1c0,16.6-13.5,30.1-30.1,30.1s-30.1-13.5-30.1-30.1
	C136.4,239.4,149.9,225.9,166.5,225.9 M166.5,193.9c-34.3,0-62.1,27.8-62.1,62.1c0,34.3,27.8,62.1,62.1,62.1s62.1-27.8,62.1-62.1
	C228.7,221.7,200.8,193.9,166.5,193.9L166.5,193.9z"/>
<path d="M332.7,419.4c16.6,0,30.1,13.5,30.1,30.1c0,16.6-13.5,30.1-30.1,30.1s-30.1-13.5-30.1-30.1
	C302.6,432.9,316.1,419.4,332.7,419.4 M332.7,387.4c-34.3,0-62.1,27.8-62.1,62.1s27.8,62.1,62.1,62.1c34.3,0,62.1-27.8,62.1-62.1
	S367,387.4,332.7,387.4L332.7,387.4z"/>
</svg>
