<?xml version="1.0" encoding="utf-8"?>
<!-- Generator: Adobe Illustrator 21.1.0, SVG Export Plug-In . SVG Version: 6.00 Build 0)  -->
<svg version="1.1" id="Layer_2" xmlns="http://www.w3.org/2000/svg" xmlns:xlink="http://www.w3.org/1999/xlink" x="0px" y="0px"
	 viewBox="0 0 512 512" style="enable-background:new 0 0 512 512;" xml:space="preserve">
<rect x="406.7" y="453.5" transform="matrix(-1.836970e-16 1 -1 -1.836970e-16 918.837 20.2309)" width="85.3" height="32"/>
<rect x="328" y="105.5" transform="matrix(-1.836970e-16 1 -1 -1.836970e-16 570.757 -327.8491)" width="242.5" height="32"/>
<rect x="20" y="453.5" transform="matrix(-1.836970e-16 1 -1 -1.836970e-16 532.2327 406.8352)" width="85.3" height="32"/>
<rect x="-58.6" y="105.5" transform="matrix(-1.836970e-16 1 -1 -1.836970e-16 184.1527 58.7552)" width="242.5" height="32"/>
<rect x="126.4" y="366.6" transform="matrix(-1.836970e-16 1 -1 -1.836970e-16 638.5848 126.5831)" width="259.2" height="32"/>
<rect x="216.6" y="23.5" transform="matrix(-1.836970e-16 1 -1 -1.836970e-16 295.5508 -216.4509)" width="78.7" height="32"/>
<path d="M479.4,331.9c0,16.6-13.5,30.1-30.1,30.1s-30.1-13.5-30.1-30.1s13.5-30.1,30.1-30.1S479.4,315.2,479.4,331.9 M511.4,331.9
	c0-34.3-27.8-62.1-62.1-62.1c-34.3,0-62.1,27.8-62.1,62.1c0,34.3,27.8,62.1,62.1,62.1C483.6,394,511.4,366.2,511.4,331.9
	L511.4,331.9z"/>
<path d="M286.3,166.7c0,16.6-13.5,30.1-30.1,30.1s-30.1-13.5-30.1-30.1s13.5-30.1,30.1-30.1S286.3,150.1,286.3,166.7 M318.3,166.7
	c0-34.3-27.8-62.1-62.1-62.1c-34.3,0-62.1,27.8-62.1,62.1s27.8,62.1,62.1,62.1C290.5,228.8,318.3,201,318.3,166.7L318.3,166.7z"/>
<path d="M92.8,332.9c0,16.6-13.5,30.1-30.1,30.1s-30.1-13.5-30.1-30.1s13.5-30.1,30.1-30.1S92.8,316.2,92.8,332.9 M124.8,332.9
	c0-34.3-27.8-62.1-62.1-62.1S0.6,298.5,0.6,332.9c0,34.3,27.8,62.1,62.1,62.1S124.8,367.2,124.8,332.9L124.8,332.9z"/>
</svg>
