<?xml version="1.0" encoding="utf-8"?>
<!-- Generator: Adobe Illustrator 21.1.0, SVG Export Plug-In . SVG Version: 6.00 Build 0)  -->
<svg version="1.1" id="Layer_1" xmlns="http://www.w3.org/2000/svg" xmlns:xlink="http://www.w3.org/1999/xlink" x="0px" y="0px"
	 viewBox="0 0 512 512" style="enable-background:new 0 0 512 512;" xml:space="preserve">
<g id="_x33_2_1_">
	<path d="M462,0.5H50c-27.6,0-50,22.4-50,50v412c0,27.6,22.4,50,50,50h412c27.6,0,50-22.4,50-50v-412C512,22.9,489.6,0.5,462,0.5z
		 M480,462.5c0,9.9-8,18-18,18c-2.4,0-410.6,0-412,0c-10,0-18-8.1-18-18c0-0.6,0-389,0-412c0-10,8-18,18-18c0.1,0,42.9,0,43,0
		c7.9-0.7,367.6,0,369,0c10,0,18,8,18,18C480,51.8,480,460.5,480,462.5z"/>
	<path d="M292.5,154.4v32h159.2v-32H292.5z M386.4,327.7v32h65.3v-32H386.4z M292.4,281.6c-34.3,0-62.1,27.8-62.1,62.1
		s27.8,62.1,62.1,62.1c34.3,0,62.1-27.8,62.1-62.1S326.7,281.6,292.4,281.6z M292.4,373.8c-16.6,0-30.1-13.5-30.1-30.1
		c0-16.6,13.5-30.1,30.1-30.1c16.6,0,30.1,13.5,30.1,30.1C322.5,360.3,309,373.8,292.4,373.8z M206.2,108.1
		c-34.3,0-62.1,27.8-62.1,62.1s27.8,62.1,62.1,62.1s62.1-27.8,62.1-62.1C268.4,135.9,240.5,108.1,206.2,108.1z M206.2,200.3
		c-16.6,0-30.1-13.5-30.1-30.1c0-16.6,13.5-30.1,30.1-30.1c16.6,0,30.1,13.5,30.1,30.1C236.3,186.8,222.8,200.3,206.2,200.3z
		 M59.7,327.7v32h142.5v-32H59.7z M59.7,154.4v32h58.7v-32H59.7z"/>
</g>
</svg>
