<?xml version="1.0" encoding="utf-8"?>
<!-- Generator: Adobe Illustrator 21.1.0, SVG Export Plug-In . SVG Version: 6.00 Build 0)  -->
<svg version="1.1" id="smile" xmlns="http://www.w3.org/2000/svg" xmlns:xlink="http://www.w3.org/1999/xlink" x="0px" y="0px"
	 viewBox="0 0 512 512" style="enable-background:new 0 0 512 512;" xml:space="preserve">
<g>
	<g>
		<path d="M332.8,237.4c16.7,0,30.2-16.7,30.2-37.2s-13.6-37.2-30.2-37.2c-16.7,0-30.2,16.7-30.2,37.2
			C302.5,220.8,316,237.4,332.8,237.4z M179.2,237.4c16.7,0,30.2-16.7,30.2-37.2s-13.6-37.2-30.2-37.2S149,179.6,149,200.2
			C148.9,220.8,162.4,237.4,179.2,237.4z M256,0C114.6,0,0,114.6,0,256s114.6,256,256,256s256-114.6,256-256S397.4,0,256,0z
			 M256,480.1c-123.7,0-224-100.3-224-224S132.2,32,256,32s224,100.3,224,224S379.7,480.1,256,480.1z M348.4,312.3
			c-46.2,32.1-106,33.5-173.2,1.1c-6.7-3.9-15.4-1.6-19.3,5c-4,6.8-1.6,15.7,5.4,19.5c72.3,35.8,135.2,38.8,201.4-1.4l0.2-0.1
			C379.1,326.7,364.5,302.6,348.4,312.3z"/>
	</g>
</g>
</svg>
