<?xml version="1.0" encoding="utf-8"?>
<!-- Generator: Adobe Illustrator 21.1.0, SVG Export Plug-In . SVG Version: 6.00 Build 0)  -->
<svg version="1.1" id="Layer_1" xmlns="http://www.w3.org/2000/svg" xmlns:xlink="http://www.w3.org/1999/xlink" x="0px" y="0px"
	 viewBox="0 0 512 512" style="enable-background:new 0 0 512 512;" xml:space="preserve">
<path d="M243.2,512v-49.2l-45.8,46.6l-12.3-12.3l58.1-58.8v-88.8l-46.9,46.9l-0.1-66.7l-53.1,53.4v85.9h-17.4v-68.6l-44.8,44.8
	l-15.2-15.2l44.7-44.8H41.9v-17.4h85.5l53.1-53.1h-67.7l46.9-47H73.3l-59.4,59.4L1.8,315.1l47.3-47.3H0v-23.5h51l-48.6-48l12.4-12.3
	l60.8,60.3H161l-45.9-46h65.4l-53.1-53.1H41.9v-17.4h68.5L65.8,83L81,67.8l44.7,44.7V43.9h17.4v85.8l53.1,53.4V116l47,47.3V73.4
	L185,14.6l12.1-12.2l46.1,46.6V0h24.5v51L316,2.4l12.3,12.3l-60.5,60.8V161l45-45v66.6l48-47.6V49.1h17.4v68.5l50.4-50.3l15.2,15.2
	l-50.4,50.4h68.6v17.4h-85.4l-46.9,46.9l66.1,0.1l-47,47h87.8l60.6-60.7l12.3,12.3L461,244.2h51v22.5h-50.1l47.7,47.7l-12.3,12.3
	l-60-60h-89.8l46.9,46.9l-66.3,0.1l48,48h85.7v17.4h-68.6l50.4,50.4l-15.2,15.2l-50.4-50.4v68.6h-17.4V377l-47.9-47.6l-0.1,67.5
	l-45-45.4v85.1l60.3,60.8l-12.1,12.2L267.8,461v51H243.2z M213.6,312.3v42l29.6-29.6v-42L213.6,312.3z M267.8,326.6l27.6,27.6v-41.8
	l-27.6-27.6V326.6z M156.6,297.4h42l29.6-29.6h-42L156.6,297.4z M310.3,296.4h42.6l-29.6-29.6h-42.6L310.3,296.4z M185.9,245.3h42.5
	l-29.6-29.6h-42.5L185.9,245.3z M281.7,244.2h42.2l29.6-29.6h-42.2L281.7,244.2z M213.6,200.2l29.6,29.6V188l-29.6-29.6V200.2z
	 M267.8,186v41.8l27.6-27.6v-41.8L267.8,186z"/>
</svg>
