<?xml version="1.0" encoding="utf-8"?>
<!-- Generator: Adobe Illustrator 21.1.0, SVG Export Plug-In . SVG Version: 6.00 Build 0)  -->
<svg version="1.1" id="Layer_1" xmlns="http://www.w3.org/2000/svg" xmlns:xlink="http://www.w3.org/1999/xlink" x="0px" y="0px"
	 viewBox="0 0 550 512" style="enable-background:new 0 0 550 512;" xml:space="preserve">
<g id="_x33_2">
	<polygon points="21.2,180.2 145.1,56.6 145.6,511.9 173.4,512 173.1,56.7 296,179.7 317.3,158.5 158.8,0 0,158.9 	"/>
	<path d="M398.8,445.4h92.6l23.8,66.6H550l-84-214.1h-42.6L340.6,512h32.3L398.8,445.4z M441.8,328.6h0.8c1.8,7.3,37.2,87,37.2,87
		h-69.3C410.5,415.6,440,335.9,441.8,328.6z M340.4,30.4h158.4v0.5L340.3,165.1v32.1h207.5V166H385.6l0.1-0.9L547.8,30.3V0.1
		L340.4,0V30.4z"/>
</g>
</svg>
