<?xml version="1.0" encoding="utf-8"?>
<!-- Generator: Adobe Illustrator 21.1.0, SVG Export Plug-In . SVG Version: 6.00 Build 0)  -->
<svg version="1.1" id="Layer_1" xmlns="http://www.w3.org/2000/svg" xmlns:xlink="http://www.w3.org/1999/xlink" x="0px" y="0px"
	 viewBox="0 0 512 512" style="enable-background:new 0 0 512 512;" xml:space="preserve">
<g id="_x33_2">
	<polygon points="313.7,321 182.4,452 182,0.1 152.4,0 152.8,451.9 22.4,321.5 0,344 167.9,512 336.2,343.6 	"/>
	<path d="M470.5,274.6v-32.5h-32.9v32.5H470.5z M429.5,242.1H396v32.5h33.4v-32.5H429.5z M480,197.2h32V0.2h-32v7l-44.7,29.5v38.5
		l44.7-30V197.2z M458.6,310.6c-8.4-1-16.7-0.7-24.8,1c-7.8,1.7-14.9,4.8-21.3,9.5c-12.2,8.4-22.6,22.9-25.3,42
		c-3.1,19.9,0.6,35.9,7.6,48.5c4.4,7,9.6,12.8,15.7,17.5s13,8,20.8,10c7.8,1.7,15.4,1.7,22.8,0c9.1-1.7,17.6-6.7,25.3-15
		c-0.7,14-2.5,25.8-5.6,35.5c-2.7,6.9-9,16.1-17.7,19c-3.7,1-7.6,1.2-11.7,0.5c-6.9-1-20.6-5.3-22.7-21c-3.6,0.3-28.6,3.5-31.5,3.5
		c1,8.7,3.4,16.5,7.1,23.5c19.9,34.8,64.4,24.8,63.3,25c48.3-9.8,49.6-53,51.3-91.5c0.5-19.3-0.9-48.2-7.1-65.5
		C491.4,317.1,464.4,311.3,458.6,310.6z M474.8,391.6c0.8-4.4-2.5,16.5-26.9,17c-30.7,0-29.7-27.2-29.3-38.5
		c2.8-17.7,17.4-31.6,32.4-28c-0.9-0.1,16-0.7,23.8,22.5C476.8,373.9,476.8,382.9,474.8,391.6z M387.9,242.1H355v32.5h32.9V242.1z
		 M478.6,242.1v32.5H512v-32.5H478.6z"/>
</g>
</svg>
