<?xml version="1.0" encoding="utf-8"?>
<!-- Generator: Adobe Illustrator 21.1.0, SVG Export Plug-In . SVG Version: 6.00 Build 0)  -->
<svg version="1.1" id="Layer_1" xmlns="http://www.w3.org/2000/svg" xmlns:xlink="http://www.w3.org/1999/xlink" x="0px" y="0px"
	 viewBox="0 0 512 512" style="enable-background:new 0 0 512 512;" xml:space="preserve">
<g id="_x33_2">
	<polygon points="22.5,191 153.8,60 154.2,511.9 183.8,512 183.4,60.1 313.8,190.5 336.2,168 168.3,0 0,168.4 	"/>
	<path d="M480.2,321.4l-44.7,29.5v38.5l44.7-30v152h32v-197h-32V321.4z M396.2,274.8h33.4v-32.5h-33.4V274.8z M355.2,274.8h32.9
		v-32.5h-32.9V274.8z M504.8,43.3c-13.3-36-40.3-41.8-46.2-42.5c-8.4-1-16.7-0.7-24.8,1c-7.8,1.7-14.9,4.8-21.3,9.5
		c-12.2,8.4-22.6,22.9-25.3,42c-3.1,19.9,0.6,35.9,7.6,48.5c4.4,7,9.6,12.8,15.7,17.5s13,8,20.8,10c7.8,1.7,15.4,1.7,22.8,0
		c9.1-1.7,17.6-6.7,25.3-15c-0.7,14-2.5,25.8-5.6,35.5c-2.7,6.9-9,16.1-17.7,19c-3.7,1-7.6,1.2-11.7,0.5c-6.9-1-20.6-5.3-22.7-21
		c-3.6,0.3-28.6,3.5-31.5,3.5c1,8.7,3.4,16.5,7.1,23.5c19.9,34.8,64.4,24.8,63.3,25c48.3-9.8,49.6-53,51.3-91.5
		C512.5,89.5,511.1,60.6,504.8,43.3z M474.9,81.8c0.8-4.4-2.5,16.5-26.9,17c-30.7,0-29.7-27.2-29.3-38.5c2.8-17.7,17.4-31.6,32.4-28
		c-0.9-0.1,16-0.7,23.8,22.5C476.9,64.1,476.9,73.1,474.9,81.8z M437.8,242.4v32.5h32.9v-32.5H437.8L437.8,242.4z M478.8,274.8h33.4
		v-32.5h-33.4L478.8,274.8L478.8,274.8z"/>
</g>
</svg>
