<?xml version="1.0" encoding="utf-8"?>
<!-- Generator: Adobe Illustrator 21.1.0, SVG Export Plug-In . SVG Version: 6.00 Build 0)  -->
<svg version="1.1" id="Layer_1" xmlns="http://www.w3.org/2000/svg" xmlns:xlink="http://www.w3.org/1999/xlink" x="0px" y="0px"
	 viewBox="0 0 445.7 512" style="enable-background:new 0 0 445.7 512;" xml:space="preserve">
<path d="M32,221.7c25.2,4.8,61.2,9.3,107,9.3c23.2,0,43.6-0.9,61.2-2.4c-20.9,8.6-39.3,24.5-50.8,45.1c-21.9,39.3-12,76,3.6,101
	c-9.7,16.7-14.6,37.4-14.6,61.5c0,15.1,4.3,29.9,12.3,43.5c-2,0-4,0-6.1,0c-40.9,0-73.8-2.5-97.9-7.4c-6.2-1.2-11-2.5-14.7-3.6
	V221.7 M366,336.3C366,336.3,366,336.3,366,336.3C366,336.3,366,336.3,366,336.3 M139.5,0c0,0-28.7,43.8-28.7,59.6
	c0,14,10.2,33,24.2,37v23.5C59.7,120.6,0,132.3,0,146.7c0,14.7,62.7,26.6,140.1,26.6s140.1-11.9,140-26.7c0-14.3-59.7-26-134.2-26.6
	V96.3c12.6-4.7,22.3-23,22.3-36.7C168.2,43.9,139.5,0,139.5,0L139.5,0z M282,180.6c0,0-41.6,18.4-143,18.4C48,199,0,180.6,0,180.6
	v307.5c0,0,17.4,23.5,144.6,23.6c69.7,0,115.7-10.2,115.7-10.2l-3.9-7.2c0,0-8.6,4.1-22.6,4.1c-26.9,0-63.4-28.4-63.4-62.2
	c0-48.3,24.4-60.8,24.4-60.8s-44.2-38-17.4-86.1c13.4-24,37.6-35.9,58.5-35.9c12.5,0,21.5,3.1,21.5,3.1s4.5-13.7,10.8-22.9
	c6-8.7,13.8-13,13.8-13V180.6L282,180.6z M323.3,238.9c-19.3,0-34.9,15.6-34.9,34.9c0,19.2,15.6,72.8,34.9,72.8
	c19.2,0,34.9-53.5,34.9-72.8C358.2,254.5,342.6,238.9,323.3,238.9L323.3,238.9z M410.9,289.4c-5.9,0-11.9,1.5-17.4,4.7
	c-16.7,9.6-55.3,49.9-45.7,66.6c3.3,5.8,11.9,8,22.5,8c20,0,47-7.9,58-14.2c16.7-9.6,22.4-30.9,12.9-47.6
	C434.7,295.7,423,289.4,410.9,289.4L410.9,289.4z M235.8,289.4c-12.1,0-23.8,6.3-30.3,17.5c-9.6,16.6-3.9,38,12.8,47.6
	c10.9,6.3,37.9,14.2,57.9,14.2c10.6,0,19.3-2.2,22.7-8c9.6-16.7-29-57-45.7-66.6C247.7,290.9,241.7,289.4,235.8,289.4L235.8,289.4z
	 M370.2,380.9c-10.6,0-19.2,2.2-22.5,8c-9.6,16.7,29,57,45.6,66.6c5.5,3.2,11.5,4.7,17.4,4.7c12.1,0,23.8-6.3,30.3-17.5
	c9.6-16.6,3.9-38-12.8-47.6C417.3,388.8,390.3,380.9,370.2,380.9L370.2,380.9z M276.3,381c-20,0-47,7.9-58,14.2
	c-16.7,9.6-22.4,30.9-12.8,47.6c6.4,11.2,18.2,17.5,30.3,17.5c5.9,0,11.9-1.5,17.3-4.7c16.7-9.6,55.3-49.9,45.7-66.6
	C295.5,383.2,286.9,381,276.3,381L276.3,381z M323.3,403c-19.3,0-34.9,53.6-34.9,72.8c0,19.3,15.6,34.9,34.9,34.9
	c19.3,0,34.9-15.6,34.9-34.9C358.2,456.6,342.6,403,323.3,403L323.3,403z"/>
</svg>
