<?xml version="1.0" encoding="utf-8"?>
<!-- Generator: Adobe Illustrator 21.1.0, SVG Export Plug-In . SVG Version: 6.00 Build 0)  -->
<svg version="1.1" id="_x33_2_1_" xmlns="http://www.w3.org/2000/svg" xmlns:xlink="http://www.w3.org/1999/xlink" x="0px" y="0px"
	 viewBox="0 0 512 512" style="enable-background:new 0 0 512 512;" xml:space="preserve">
<g id="_x33_2">
	<path d="M62,228c-1.5,10.7-2.2,21.4-2,31.9c0.3-4.6,0.8-9.2,1.4-13.8c3.8-26.5,13.6-50.8,27.9-71.4l-9.3-5.4
		C71.2,187.3,65,207,62,228z"/>
	<path d="M90.3,151l12.2,7c8.9-10,19-18.8,30-26.4l-13.7-15.9C108,126.3,98.4,138.1,90.3,151z"/>
	<path d="M134.4,101.8l16.3,18.9c12.3-6.3,25.3-11.2,39-14.4l-11.1-31C162.7,82.2,147.9,91.1,134.4,101.8z"/>
	<path d="M210.7,102.8c11.2-1.1,22.7-1.1,34.3,0.1V59.3c-16.1,1-31.8,3.9-46.8,8.6L210.7,102.8z"/>
	<path d="M285,61c-6.4-0.9-12.7-1.5-19-1.8v47.2c12.8,3,24.9,7.4,36.3,13l20.5-49.1C310.8,66,298.1,62.9,285,61z"/>
	<path d="M342.2,78.3L320.6,130c9.7,6.4,18.6,13.8,26.6,22l42-42C375.3,97.3,359.5,86.6,342.2,78.3z"/>
	<path d="M404,124.8l-42.9,42.9c6.4,8.4,12,17.3,16.8,26.8l56.6-24.3C426.4,153.8,416.2,138.5,404,124.8z"/>
	<path d="M442.5,189.7l-56.4,24.2c4.8,13.4,7.9,27.5,9.1,42.1H454C454,232.9,450,210.6,442.5,189.7z"/>
	<polygon points="248.6,447.9 253.2,447.9 253.2,448.1 260.8,448.1 260.8,447.9 265.2,447.9 265.2,422.2 248.6,422.2 	"/>
	<rect x="384.9" y="380" transform="matrix(0.7071 -0.7071 0.7071 0.7071 -159.6615 388.0749)" width="7.5" height="13.6"/>
	<rect x="118.6" y="383" transform="matrix(0.7071 -0.7071 0.7071 0.7071 -236.7654 201.9291)" width="13.6" height="7.5"/>
	<rect x="423.8" y="322.9" transform="matrix(0.4005 -0.9163 0.9163 0.4005 -45.7593 589.4362)" width="7.5" height="13.6"/>
	<rect x="175.7" y="421.9" transform="matrix(0.4005 -0.9163 0.9163 0.4005 -280.6986 422.4048)" width="13.6" height="7.5"/>
	<rect x="335" y="415.6" transform="matrix(0.8983 -0.4395 0.4395 0.8983 -151.1361 191.8557)" width="7.5" height="13.6"/>
	<rect x="83" y="333.2" transform="matrix(0.8983 -0.4395 0.4395 0.8983 -138.938 73.7369)" width="13.6" height="7.5"/>
	<path d="M256,0C114.6,0,0,114.6,0,256s114.6,256,256,256s256-114.6,256-256S397.4,0,256,0z M256,480C132.3,480,32,379.7,32,256
		S132.3,32,256,32s224,100.3,224,224S379.7,480,256,480z"/>
	<path d="M328.8,185.6c-0.3,0-0.6,0-0.9,0.3l-62.4,56.6c-2.4-1.2-5.5-2.1-8.5-2.1c-10,0-18.2,8.2-18.2,18.2c0,10,8.2,18.2,18.2,18.2
		c10,0,18.2-8.2,18.2-18.2c0-3-0.9-6.1-2.1-8.5l55.7-60.9l1.2-1.2c0.6-0.6,0.6-1.5,0-2.1C329.7,185.6,329.4,185.6,328.8,185.6z"/>
</g>
</svg>
