<?xml version="1.0" encoding="utf-8"?>
<!-- Generator: Adobe Illustrator 21.1.0, SVG Export Plug-In . SVG Version: 6.00 Build 0)  -->
<svg version="1.1" id="Layer_1" focusable="false" xmlns="http://www.w3.org/2000/svg" xmlns:xlink="http://www.w3.org/1999/xlink"
	 x="0px" y="0px" viewBox="0 0 576 512" style="enable-background:new 0 0 576 512;" xml:space="preserve">
<g id="_x33_2">
	<polygon points="392.1,222.7 369.4,245.4 446.6,322.5 369.4,399.6 392.1,422.3 469.2,345.1 546.3,422.3 569,399.6 491.8,322.5 
		569,245.4 546.3,222.7 469.2,299.9 	"/>
	<path d="M576,0v35.4H380.1c-10.7,0-20.4,6.7-24.2,16.7L184,500.6c-3.9,10.2-13.2,11.3-15.9,11.4c-2.8,0.1-12.1-0.4-16.7-10.3
		L67.8,320.5c-4.2-9.2-10.5-15.1-20.6-15.1H0v-35.4h72.2c6.9,0,13.2,4,16.1,10.3L162.8,440c1.4,3.1,5.9,2.9,7.1-0.3L333.6,11.4
		C336.2,4.6,342.8,0,350.1,0H576z"/>
</g>
</svg>
