<?xml version="1.0" encoding="utf-8"?>
<!-- Generator: Adobe Illustrator 22.0.1, SVG Export Plug-In . SVG Version: 6.00 Build 0)  -->
<svg version="1.1" id="Layer_1" xmlns="http://www.w3.org/2000/svg" xmlns:xlink="http://www.w3.org/1999/xlink" x="0px" y="0px"
	 viewBox="0 0 512 512" style="enable-background:new 0 0 512 512;" xml:space="preserve">
<g id="_x33_2">
	<path d="M256.3,376.3L256.3,376.3c-22.2,0-40.2,17.4-41.1,39.1c0,0.5,0,1,0,1.6v73.3h82.2v-73.3c0-0.5,0-1.1,0-1.6
		C296.5,393.6,278.5,376.3,256.3,376.3z"/>
	<path d="M474.5,172.8l-15-48.7l-6-1.2v0l-26.8-5.2c-0.1,0-0.1,0-0.2,0c-0.5,0-0.9,0.4-0.9,0.8c0,9.7,6.3,13.5,14,13.5
		c5,0,9.5-2.1,11.9-5.1l4.6,0.9l13,42.2c-45.8-22.7-124-37.6-212.8-37.6c-6.5,0-12.9,0.1-19.2,0.2l0.1-87.8l16.4,0
		c2.9-0.1,4.7,0,5.5,0.2c0.3,0.1,0.8,0.3,1.5,0.6l0.5,0.3c1.5,0.6,3.1,1.9,4.8,3.7l2.3,2.7c1.4,1.8,2.5,3.1,3.3,3.9
		c1.4,1.3,2.9,2.2,4.5,2.6l0.5,0.1c1.2,0.3,2.7,0.4,4.5,0.2c1.8-0.2,4.3-0.7,7.6-1.7l0.6-0.2c3.6-1.9,7.3-4.1,11-6.7
		c5.1-3.4,11.1-8,18-13.6l0.2,0c0.7-0.7,1.1-1.4,1.3-2.1c0.2-0.8,0.1-1.6-0.4-2.4l-0.2,0l-0.1-0.2c-0.4-0.5-0.9-0.8-1.5-1.1
		c-0.8-0.2-1.5-0.3-2.3-0.2c-7.4,0.8-13.7,0.9-19,0.2l-2.6-0.5c-1.9-0.2-3.2-0.5-4.1-0.7c-1.1-0.3-2.2-0.8-3.3-1.4
		c-1.1-0.6-2.4-1.7-3.9-3.1c-1.5-1.4-2.7-2.8-3.5-4c-1.4-1.9-2.9-4.6-4.3-8.1l-1.5-3.1c-0.7-1.5-1.5-2.8-2.5-4
		c-1.8-2.3-3.7-3.8-5.8-4.7c-0.6-0.4-1.4-0.7-2.3-1c-2.5-0.7-5.3-0.7-8.4-0.2c-4.5,0.4-10.2,1.8-17,4.3l-0.2,0.1l-0.3-0.3
		c-0.3-0.2-0.8-0.3-1.5-0.4c-0.9-0.1-2.1-0.1-3.4-0.1c-1.3,0.1-2.3,0.2-3,0.4c-0.7,0.2-1.1,0.4-1.2,0.6L227.2,5l0,128
		c-75.1,2.8-140.3,16.4-181.3,35.9l12.6-41l4.6-0.9c2.5,3.1,6.9,5.1,11.9,5.1c7.7,0,14-3.8,14-13.5c0-0.5-0.4-0.8-0.9-0.8
		c-0.1,0-0.1,0-0.2,0L61.2,123l0,0l-6,1.2l-14.6,47.4c-25.3,13.1-39.9,28.6-39.9,45.3H0v179.5c0,0.4,0,0.9,0,1.3
		C1.4,454.4,89.6,501.4,206.2,512v-96.2c0-0.6,0-1.3,0-1.9c1-26.5,23-47.7,50-47.7c13.5,0,25.8,5.3,34.8,13.9
		c9,8.6,14.8,20.5,15.3,33.8c0,0.6,0,1.3,0,1.9v96.2c116.3-10.7,204.3-57.7,205.6-114.2c0-0.2,0-0.4,0-0.7V216.8
		C512,200.7,498.3,185.6,474.5,172.8z M434.8,189.9c32,11.7,43.1,23.1,45,26.9c-1.7,3.4-10.8,12.9-35.6,23.2
		c-7.8-3.9-16.1-7.5-25-10.9L434.8,189.9z M266.8,164.2c55.5,0.8,108.1,7.7,149.3,19.6l-15.4,38.8c-38.4-12.1-84.3-19.6-133.9-20.5
		V164.2z M349.5,242.4c14,2.7,27.2,6,39.5,9.8l-1.9,4.7c-38.5,8.1-83.8,12.5-130.7,12.5c-44.4,0-87.3-3.9-124.4-11.2l-3.4-7.7
		c10.7-3.1,22.1-5.9,34-8.2c29.5-5.8,61-8.7,93.5-8.7C288.5,233.8,319.9,236.7,349.5,242.4z M232.1,4.5c1.5,0,2.3,0.1,2.3,0.4
		c0,0.3-0.7,0.5-2.3,0.6c-1.6,0.1-2.3-0.1-2.3-0.4C229.8,4.7,230.6,4.5,232.1,4.5z M247.1,164.2v37.9c-48.4,0.8-93.5,7.7-131.5,19.2
		l-16.8-38.1C140,171.6,192.1,164.9,247.1,164.2z M80,189.2L97,227.6c-10.3,3.8-19.9,7.9-28.8,12.3c-24.5-10.3-33.5-19.7-35.2-23.1
		C34.9,213,46.4,201.1,80,189.2z M480,289.2c-0.2,7.6-4.2,15.6-11.8,23.8c-9.9,10.7-25.3,21.1-44.7,30c-21.2,9.8-46.1,17.5-74,22.9
		c-10.1,2-20.4,3.6-30.8,4.9c6.3,8.9,10.6,19.2,12.5,30.3c63.8-9,117-29.2,148.8-55.6v51.5c-0.2,7.6-4.2,15.6-11.8,23.8
		c-9.9,10.7-25.3,21.1-44.7,30c-21.2,9.8-46.1,17.5-74,22.9c-8.9,1.7-18,3.2-27.3,4.4v-64.6c0-18-7.4-34.3-19.3-46.1
		c-11.9-11.8-28.4-19.1-46.6-19.1c-36.4,0-65.9,29.2-65.9,65.2v64.7c-9.5-1.2-18.8-2.7-27.9-4.5c-28-5.4-52.9-13.1-74-22.9
		c-19.4-8.9-34.8-19.3-44.7-30C36,412.4,32,404.1,32,396.4v-50.7c31.9,26.5,85.3,46.7,149.4,55.7c1.9-11.1,6.2-21.4,12.5-30.3
		c-10.7-1.3-21.1-3-31.4-5c-28-5.4-52.9-13.1-74-22.9c-19.4-8.9-34.8-19.3-44.7-30C36,304.5,32,296.3,32,288.5v-31.2
		c43.4,26.1,127.6,43.9,224.3,43.9c96.2,0,180-17.5,223.6-43.4V289.2z"/>
</g>
</svg>
