<?xml version="1.0" encoding="utf-8"?>
<!-- Generator: Adobe Illustrator 21.1.0, SVG Export Plug-In . SVG Version: 6.00 Build 0)  -->
<svg version="1.1" id="Layer_2" xmlns="http://www.w3.org/2000/svg" xmlns:xlink="http://www.w3.org/1999/xlink" x="0px" y="0px"
	 viewBox="0 0 713.9 512" style="enable-background:new 0 0 713.9 512;" xml:space="preserve">
<path d="M713.9,0.1H0.2V512h713.7V0.1z M675.6,327.9l-1.2-1.9l6.9-0.8l0,0v2.1L675.6,327.9z M681.3,327.7v1.6h-4.8l-0.6-1
	L681.3,327.7L681.3,327.7z M674.2,325.6l-0.3-0.5h4.5L674.2,325.6z M672.6,323.2l-1-1.6v-23.1l10.3,16.2v8.5H672.6z M673,328.6
	l0.4,0.7h-1.9v-0.5L673,328.6z M671.6,328.4v-2.1l1.2,1.9L671.6,328.4z M681.9,195.8l-5-7.9h5V195.8z M680.4,185.9h-4.8l-0.5-0.8
	L680.4,185.9z M674.7,184.6l-1.9-2.9l1.5,0.2l7.1,1v2.7l0,0L674.7,184.6z M681.3,179.2L680,179h1.4V179.2z M681.3,179.7v2.6l0,0
	l-8.9-1.3l-0.9-1.4V179h4.8L681.3,179.7z M671.7,184.7l0.8,1.2h-0.9v-1.3L671.7,184.7z M673.8,187.9l8.1,12.7v24.6L671.6,209v-21.1
	H673.8z M681.9,229.9v24.2L671.6,238v-24.2L681.9,229.9z M676.8,250.9l2.5,3.8l0.6,1l2,3.1v24.6l-10.3-16.1v-24.6L676.8,250.9z
	 M681.9,288.3v21.6l-10.3-16.1v-21.6L681.9,288.3z M681.9,176.2l-75.5,0v155.9l75.5,0v99.1h-5.3c-96.9,0-175.7-78.8-175.7-175.7
	S579.7,79.8,676.6,79.8h5.3V176.2z M668.1,328.8v-2.1l1.3-0.1v2.1L668.1,328.8z M669.4,329v0.3h-1.3v-0.1L669.4,329z M668.1,326.3
	v-1.1h1.3v1L668.1,326.3z M658.3,323.2v-17.6l11.1,17.4v0.2H658.3z M658.3,327.4v-1.8l3.7-0.4h3.6v1.4L658.3,327.4z M665.6,327v2.1
	l-2.2,0.2h-5.1v-1.5l1.4-0.2l1.7-0.2L665.6,327z M658.3,325.2L658.3,325.2L658.3,325.2L658.3,325.2z M658.3,300.8v-23.1l5.5,8.6
	l2.6,4.1l3,4.7v23.1L658.3,300.8z M658.3,273v-21.6l11.1,17.4v21.6L658.3,273z M658.3,246.6V222l11.1,17.4V264L658.3,246.6z
	 M658.3,217.2V193l11.1,17.4v24.2L658.3,217.2z M658.3,188.3v-0.3h11.1v17.7L658.3,188.3z M665.6,180.6v2.7l-4.1-0.6l-1.7-0.2
	l-1.4-0.2v-2.7L665.6,180.6z M658.3,179.1L658.3,179.1l7.3,0v1.1L658.3,179.1z M665.6,183.8v2.1H664l-5.7-0.8v-2.3L665.6,183.8z
	 M660.3,185.9h-2v-0.3L660.3,185.9z M668.1,185.9v-1.7l1.3,0.2v1.6H668.1z M668.1,183.7V181l1.3,0.2v2.7L668.1,183.7z M668.1,180.5
	v-1.4l1,1.5L668.1,180.5z M655.8,327.7l-1.1-1.7l1.4-0.2v1.8L655.8,327.7z M656.1,328v0.2L656,328L656.1,328z M654.5,325.6l-0.3-0.4
	h1.9v0.2L654.5,325.6z M652.9,323.2l-7.7-12v-26l0,0l0.1,0.1l10.8,17v21H652.9z M653.2,328.4l0.6,0.9h-1.2v-0.9L653.2,328.4z
	 M652.6,328v-0.6l0.4,0.6L652.6,328z M645.2,328.8V327l4.8-0.5v1.8L645.2,328.8z M650,328.7v0.6h-4.8v-0.1L650,328.7z M645.2,326.6
	v-1.5h4.8v0.9L645.2,326.6z M645.2,323.2v-7.3l4.6,7.3H645.2z M645.2,280.3v-23.1l0.1,0.2l3.7,5.7l1.4,2.1l5.8,9v23.1L645.2,280.3z
	 M650.7,261l-5.5-8.5h0v-21.6l0,0l0.1,0.2l10.8,16.9v21.6L650.7,261z M645.2,226.1v-24.6l10.9,17.1v24.6L645.2,226.1z M650.7,205.3
	l-5.5-8.5h0v-8.8h9.8l1.1,1.7v24.2L650.7,205.3z M650,181.6v2.3l-4.8-0.7v-2.3L650,181.6z M645.2,180.4V179h4.1l0.7,1.1v1
	L645.2,180.4z M650,184.4v1.5h-4.8v-2.2L650,184.4z M653.1,184.9l0.7,1h-1.2l0-1.1L653.1,184.9z M652.6,184.3v-0.2l0.1,0.2
	L652.6,184.3z M656.1,184.8l-1.6-2.6l1.7,0.2L656.1,184.8L656.1,184.8z M654.1,181.6l-1.5-2.3V179h1.8l1.8,0.3l0,2.7L654.1,181.6z
	 M637.2,327.5l-0.4-0.7v-1.2l4-0.4h2.3v1.7L637.2,327.5z M643.1,327.3v1.8l-2,0.2h-2.7l-0.9-1.4L643.1,327.3z M636.8,325.2
	L636.8,325.2l0.4,0L636.8,325.2L636.8,325.2L636.8,325.2z M634.4,323.2l-2.5-3.9v-24.2l11.1,17.4v10.6H634.4z M631.9,328.1v-1.9
	l1.2-0.1l1,1.6v0.2L631.9,328.1z M634.2,328.2v1.1h-2.3v-0.8L634.2,328.2L634.2,328.2z M631.9,325.7v-0.6h0.7l0.3,0.5L631.9,325.7z
	 M631.9,290.3v-26l11.1,17.4v26L631.9,290.3z M631.9,259.6v-23.1l11.1,17.4V277L631.9,259.6z M631.9,231.7v-21.6l11.1,17.4v21.6
	L631.9,231.7z M631.9,205.4v-17.4h4.6l6.5,10.2v24.6L631.9,205.4z M632.7,182l1.5,2.3v0.4l0,0l-2.3-0.3v-2.5L632.7,182z
	 M631.9,181.3v-0.6l0.4,0.7L631.9,181.3z M634.1,179.3l0.2,0v0.2L634.1,179.3z M634.2,185.2v0.7h-2.3v-1L634.2,185.2z M638.2,185.8
	l1,0.1h-0.9L638.2,185.8z M639.6,187.9h3.5v5.5L639.6,187.9z M642.8,185.9l-5-0.7l-1.1-1.7v-1l0,0l0,0l6.3,0.9v2.5H642.8z
	 M636.8,182v-2.3l0,0l0,0l6.3,0.9v2.3L636.8,182z M636.8,179.2V179h6.3v1.1L636.8,179.2z M622.6,329.1v-1.9l3.7-0.4l3.5-0.4v1.9
	L622.6,329.1z M629.8,328.7v0.6h-5.1l1.7-0.2L629.8,328.7z M626.3,326.4l-3.7,0.4v-1.6h7.2v0.8L626.3,326.4z M620,323.2v-17.8
	l9.8,15.3v2.5H620z M620,327.1v-1.9h0L620,327.1L620,327.1z M620.1,327.5v1.8h0L620.1,327.5L620.1,327.5z M620,300.6v-24.2l9.8,15.3
	v24.2L620,300.6z M620,271.7v-26l9.8,15.3v26L620,271.7z M620,240.9v-23.1l9.8,15.3v23.1L620,240.9z M620,213.1v-21.6l9.8,15.3v21.6
	L620,213.1z M620.1,180.2v2.5l0,0L620.1,180.2L620.1,180.2z M620,179.6V179h0L620,179.6L620,179.6z M620.1,183.2v2.7h0L620.1,183.2
	L620.1,183.2z M620.8,187.9h9V202L620.8,187.9z M622.6,185.9v-2.4l3.7,0.5l3.5,0.5v1.3H622.6z M626.3,183.6l-3.7-0.5v-2.5l7.2,1v2.5
	L626.3,183.6z M626.3,180.5l-3.7-0.5v-1h7.2v2L626.3,180.5z M616.2,323.2v-23.8l1.7,2.7v21.1H616.2z M617.9,325.2v1.5l-0.9-1.4
	l0.5-0.1H617.9z M616.5,329.3h-0.3v-0.5L616.5,329.3z M616.2,294.6v-24.2l1.7,2.7v24.2L616.2,294.6z M616.2,265.7v-26l1.7,2.7v26
	L616.2,265.7z M616.2,234.9v-23.1l1.7,2.7v23.1L616.2,234.9z M616.2,207v-19.1h1.6l0.1,0.2v21.6L616.2,207z M616.2,185.5
	L616.2,185.5L616.2,185.5L616.2,185.5z M617.5,182.8l0.3,0v0.5L617.5,182.8z M617.2,182.3l-1-1.6v-1.1l1.7,0.2v2.5L617.2,182.3z
	 M616.2,179.1L616.2,179.1l1.7-0.1v0.3L616.2,179.1z M32.2,332.1h77v0h0V176.2l-77,0V79.8h5.3c96.9,0,175.7,78.8,175.7,175.7
	S134.4,431.3,37.5,431.3h-5.3V332.1z M33.8,181.6l5.2,0.7l2,3.1l-1.3-0.2L38,185l-4.1-0.6L33.8,181.6L33.8,181.6z M33.8,181.1V179h3
	l0.1,0l1.8,2.8l-0.8-0.1L33.8,181.1z M42.8,179.9v2.5l-0.7-0.1l-1.8-2.8L42.8,179.9z M40.5,179h2.3v0.3L40.5,179z M42.8,182.9v0.5
	l-0.3-0.5L42.8,182.9z M33.8,184.9l6.8,1h-6.9L33.8,184.9L33.8,184.9z M42.6,187.9l0.1,0.2v21.6l-9.3-14.6v-7.2H42.6z M42.8,214.5
	v23.1l-9.3-14.6v-23.1L42.8,214.5z M42.8,242.3v26l-9.3-14.6v-26L42.8,242.3z M42.8,273.1v24.2l-9.3-14.6v-24.2L42.8,273.1z
	 M42.8,302v21.1h-2.2L33.4,312v-24.6L42.8,302z M42.8,325.2v1.5l-0.9-1.4l0.5-0.1H42.8z M38,325.6l1-0.1l1.3,2l-6.5,0.7l0,0v-2.2
	L38,325.6z M33.8,325.7v-0.5h4.8L33.8,325.7L33.8,325.7z M38,328.2l1.8-0.2l0.8-0.1l0.9,1.3h-7.6v-0.6L38,328.2z M37.5,323.2h-4.1
	v-6.4L37.5,323.2z M44.9,180.2v2.5l0,0L44.9,180.2L44.9,180.2z M44.9,179.6V179h0L44.9,179.6L44.9,179.6z M44.9,183.2v2.7h0
	L44.9,183.2L44.9,183.2z M54.7,206.8v21.6l-9.8-15.3v-21.6L54.7,206.8z M54.7,181.6v2.5l-3.5-0.5l-3.7-0.5v-2.5L54.7,181.6z
	 M47.5,180v-1h7.2v2l-3.5-0.5L47.5,180z M51.2,184.1l3.5,0.5v1.3h-7.2v-2.4L51.2,184.1z M54.7,187.9V202l-9-14.1H54.7z M54.7,233.1
	v23.1l-9.8-15.3v-23.1L54.7,233.1z M54.7,261v26l-9.8-15.3v-26L54.7,261z M54.7,291.7v24.2l-9.8-15.3v-24.2L54.7,291.7z M54.7,320.7
	v2.5h-9.8v-17.8L54.7,320.7z M47.5,329.1v-1.9l3.7-0.4l3.5-0.4v1.9L47.5,329.1z M54.7,328.7v0.6h-5.1l1.7-0.2L54.7,328.7z
	 M51.2,326.4l-3.7,0.4v-1.6h7.2v0.8L51.2,326.4z M44.9,325.2v1.9l0,0L44.9,325.2L44.9,325.2z M44.9,327.5v1.8h0L44.9,327.5
	L44.9,327.5z M57.6,182l1.5,2.3v0.4l0,0l-2.3-0.3v-2.5L57.6,182z M56.8,181.3v-0.6l0.4,0.7L56.8,181.3z M59,179.3l0.2,0v0.2
	L59,179.3z M59.1,185.2v0.7h-2.3v-1L59.1,185.2z M61.4,187.9l6.5,10.2v24.6l-11.1-17.4v-17.4H61.4z M61.7,179.7L61.7,179.7l6.3,0.9
	v2.3l-6.3-0.9L61.7,179.7L61.7,179.7z M61.7,179.2V179h6.3v1.1L61.7,179.2z M61.7,182.6L61.7,182.6l6.3,0.9v2.5h-0.2l-5-0.7
	l-1.1-1.7L61.7,182.6L61.7,182.6z M67.9,187.9v5.5l-3.5-5.5H67.9z M64.1,185.9h-0.9l-0.1-0.1L64.1,185.9z M67.9,227.5v21.6
	l-11.1-17.4v-21.6L67.9,227.5z M67.9,253.9V277l-11.1-17.4v-23.1L67.9,253.9z M67.9,281.7v26l-11.1-17.4v-26L67.9,281.7z
	 M67.9,312.5v10.6h-8.6l-2.5-3.9v-24.2L67.9,312.5z M62.1,327.5l-0.4-0.7v-1.2l4-0.4h2.3v1.7L62.1,327.5z M67.9,327.3v1.8l-2,0.2
	h-2.7l-0.9-1.4L67.9,327.3z M61.7,325.2L61.7,325.2l0.4,0L61.7,325.2L61.7,325.2L61.7,325.2z M57.5,325.2l0.3,0.5l-1,0.1v-0.6H57.5z
	 M58.1,326l1,1.6v0.2l-2.3,0.3v-1.9L58.1,326z M59.1,328.2L59.1,328.2l0,1.1h-2.3v-0.8L59.1,328.2z M74.9,181.6v2.3l-4.8-0.7v-2.3
	L74.9,181.6z M70.1,180.4V179h4.1l0.7,1.1v1L70.1,180.4z M74.9,184.4v1.5h-4.8v-2.2L74.9,184.4z M79.9,187.9l1.1,1.7v24.2l-5.5-8.5
	l-5.5-8.5h0v-8.8H79.9z M78.9,181.6l-1.5-2.3V179h1.8l1.8,0.3l0,2.7L78.9,181.6z M81,182.5l0,2.3l-0.1,0l-1.6-2.6L81,182.5z
	 M77.6,184.3l-0.1,0v-0.2L77.6,184.3z M78,184.9l0.7,1h-1.2l0-1.1L78,184.9z M81,218.6v24.6l-10.9-17.1v-24.6L81,218.6z M70.1,230.9
	l0.1,0.2L81,248v21.6l-5.5-8.5l-5.5-8.5h0L70.1,230.9L70.1,230.9z M70.2,257.5l3.7,5.7l1.4,2.1l5.8,9v23.1l-10.9-17.1v-23.1
	L70.2,257.5z M70.1,285.1l0.1,0.1l10.8,17v21h-3.2l-7.7-12L70.1,285.1L70.1,285.1z M80.7,327.7l-1.1-1.7l1.4-0.2v1.8L80.7,327.7z
	 M81,328v0.2l-0.1-0.2L81,328z M79.3,325.6l-0.3-0.4H81v0.2L79.3,325.6z M78.1,328.4l0.6,0.9h-1.2v-0.9L78.1,328.4z M77.5,328v-0.6
	l0.4,0.6L77.5,328z M74.7,323.2h-4.6v-7.3L74.7,323.2z M74.9,325.2v0.9l-4.8,0.5v-1.5H74.9z M74.9,326.5v1.8l-4.8,0.5V327
	L74.9,326.5z M74.9,328.7v0.6h-4.8v-0.1L74.9,328.7z M90.4,180.6v2.7l-4.1-0.6l-1.7-0.2l-1.4-0.2v-2.7L90.4,180.6z M83.2,179.1
	L83.2,179.1l7.3,0v1.1L83.2,179.1z M90.4,183.8v2.1h-1.6l-5.7-0.8v-2.3L90.4,183.8z M85.2,185.9h-2v-0.3L85.2,185.9z M94.3,187.9
	v17.7l-11.1-17.4v-0.3H94.3z M94.3,181.2v2.7l-1.3-0.2V181L94.3,181.2z M93,180.5v-1.4l1,1.5L93,180.5z M94.3,184.4v1.6H93v-1.7
	L94.3,184.4z M94.3,210.4v24.2l-11.1-17.4V193L94.3,210.4z M94.3,239.4V264l-11.1-17.4V222L94.3,239.4z M94.3,268.8v21.6L83.2,273
	v-21.6L94.3,268.8z M88.7,286.4l2.6,4.1l3,4.7v23.1l-11.1-17.4v-23.1L88.7,286.4z M94.3,323v0.2H83.2v-17.6L94.3,323z M93,328.8
	v-2.1l1.3-0.1v2.1L93,328.8z M94.3,329v0.3H93v-0.1L94.3,329z M93,326.3v-1.1h1.3v1L93,326.3z M83.2,325.2L83.2,325.2L83.2,325.2
	L83.2,325.2z M86.8,325.2h3.6v1.4l-7.3,0.8v-1.8L86.8,325.2z M84.6,327.6l1.7-0.2l4.1-0.5v2.1l-2.2,0.2h-5.1v-1.5L84.6,327.6z
	 M97.3,181.1l-0.9-1.4V179h2.9v2.4L97.3,181.1z M99.4,181.9v2.3l-1.7-2.6l1.5,0.2L99.4,181.9z M96.6,184.7l0.8,1.2h-0.9v-1.3
	L96.6,184.7z M98.7,187.9l0.7,1.1v24.6l-2.9-4.6v-21.1H98.7z M99.4,218.4v24.2l-2.9-4.6v-24.2L99.4,218.4z M99.4,247.3v24.6
	l-2.9-4.6v-24.6L99.4,247.3z M99.4,276.7v21.6l-2.9-4.6v-21.6L99.4,276.7z M99.4,303.1v20.1h-1.9l-1-1.6v-23.1L99.4,303.1z
	 M99,325.6l-0.3-0.5h0.6v0.4L99,325.6z M99.4,326v0.1V326L99.4,326z M97.7,328.3l-1.2,0.1v-2.1L97.7,328.3z M97.9,328.6l0.4,0.7
	h-1.9v-0.5L97.9,328.6z M32.2,480v-16.7h5.3c55.5,0,107.7-21.6,146.9-60.8c39.2-39.2,60.8-91.4,60.8-146.9
	C245.2,141,152,47.8,37.5,47.8h-5.3V32.1H341v161.1c-28,7-48.7,32.3-48.7,62.4s20.7,55.4,48.7,62.4V480H32.2z M373,480V317.7
	c27.6-7.2,47.9-32.3,47.9-62.2s-20.3-54.9-47.9-62.2V32.1h308.8v15.8h-5.3c-55.5,0-107.7,21.6-146.9,60.8
	c-39.2,39.2-60.9,91.4-60.9,146.9c0,114.5,93.2,207.7,207.7,207.7h5.3V480H373z"/>
</svg>
