<?xml version="1.0" encoding="utf-8"?>
<!-- Generator: Adobe Illustrator 21.1.0, SVG Export Plug-In . SVG Version: 6.00 Build 0)  -->
<svg version="1.1" id="Layer_1" xmlns="http://www.w3.org/2000/svg" xmlns:xlink="http://www.w3.org/1999/xlink" x="0px" y="0px"
	 viewBox="0 0 536.8 512" style="enable-background:new 0 0 536.8 512;" xml:space="preserve">
<g>
	<path d="M530.5,214.8c12.2-11.8,5.5-32.4-11.3-34.9l-141.8-20.5c-11.8-1.7-22-9.1-27.3-19.7L286.5,11.4C282.8,3.8,275.5,0,268.2,0
		c-7.3,0-14.6,3.8-18.3,11.4l-63.3,128.2c-5.3,10.7-15.5,18.1-27.3,19.8L17.5,180c-16.8,2.4-23.5,23-11.3,34.9l102.6,100
		c8.5,8.3,12.4,20.3,10.4,32l-24,141.3c-2.2,13.2,8.2,23.9,20.1,23.9c3.1,0,6.4-0.7,9.5-2.4L251.4,443c5.3-2.8,11.1-4.2,16.9-4.2
		c5.8,0,11.5,1.4,16.8,4.1l127.4,66.6c3.1,1.6,6.3,2.4,9.5,2.4c11.9,0,22.4-10.8,20.1-24l-24.8-140.9c-2.1-11.8,1.8-23.9,10.4-32.2
		L530.5,214.8z M405.4,291.9c-16.2,15.8-23.5,38.4-19.6,60.7l20.7,117.8l-106.6-55.8c-9.7-5.1-20.6-7.8-31.6-7.8
		c-11,0-22,2.7-31.8,7.8l-105.8,55.7l20.1-118.2c3.8-22.1-3.6-44.6-19.6-60.3l-85.8-83.6l118.6-17.2c22.2-3.2,41.4-17.2,51.4-37.3
		l53-107.3l53.3,107.4c10,20.1,29.2,34,51.3,37.2l118.5,17.1L405.4,291.9z"/>
	<g>
		<path d="M268.4,194.7l7.2,14.5c11.4,23,33.3,38.8,58.7,42.5l15.6,2.3l-11.4,11.1c-18.5,18-26.9,44-22.4,69.4l2.7,15.4l-14.3-7.5
			c-11.1-5.8-23.6-8.9-36.1-8.9c-12.6,0-25.2,3.1-36.3,9l-14,7.4l2.7-15.8c4.3-25.3-4.1-51-22.4-68.9L186.8,254l15.7-2.3
			c25.4-3.7,47.4-19.6,58.8-42.7L268.4,194.7 M268.3,122.6l-35.7,72.3c-6.7,13.6-19.7,23-34.6,25.2L118,231.6l57.8,56.4
			c10.8,10.5,15.8,25.7,13.2,40.6l-13.6,79.7l71.3-37.5c6.6-3.5,14-5.3,21.4-5.3c7.4,0,14.8,1.8,21.3,5.2l71.9,37.6l-13.9-79.4
			c-2.6-15,2.3-30.3,13.2-40.9l58-56.4l-79.9-11.6c-15-2.2-27.9-11.5-34.6-25.1L268.3,122.6L268.3,122.6z"/>
	</g>
</g>
</svg>
