<?xml version="1.0" encoding="utf-8"?>
<!-- Generator: Adobe Illustrator 21.1.0, SVG Export Plug-In . SVG Version: 6.00 Build 0)  -->
<svg version="1.1" id="Layer_1" xmlns="http://www.w3.org/2000/svg" xmlns:xlink="http://www.w3.org/1999/xlink" x="0px" y="0px"
	 viewBox="0 0 512 512" style="enable-background:new 0 0 512 512;" xml:space="preserve">
<path d="M95.5,319.2l58.9,17.9L95.5,355l-17.4,58.3L59.7,355L1.8,337.1l57.9-17.9l18.4-57.8L95.5,319.2z M70.6,46l31.6,9.9
	l-31.6,9.4l-9.4,31.5l-9.9-31.5l-31.6-9.4L51.3,46l9.9-31L70.6,46z M182.7,98.2l62.7,18.8l-62.7,19.3l-19.3,63l-19.3-63L81.4,117
	l62.7-18.8l19.3-63L182.7,98.2z M181.3,446.7l31.6,9.4l-31.6,9.9l-9.9,31l-9.4-31l-31.1-9.9l31.1-9.4l9.4-31.5L181.3,446.7z
	 M230.3,235.1l31.6,9.4l-31.6,9.4l-9.9,31.5l-9.4-31.5l-31.1-9.4l31.1-9.4l9.4-31.5L230.3,235.1z M325.4,384.6l63.1,18.8l-63.1,19.3
	l-18.8,62.5l-19.3-62.5l-63.1-19.3l63.1-18.8l19.3-62.5L325.4,384.6z M275.5,46l31.1,9.9l-31.1,9.4l-9.4,31.5l-9.9-31.5l-31.6-9.4
	l31.6-9.9l9.9-31L275.5,46z M387.2,167.4l48.5,14.6l-48.5,15l-15.1,48.4L357,197l-48.5-15l48.5-14.6l15.1-48.9L387.2,167.4z
	 M480,250.6l31.6,9.4l-31.6,9.9l-9.4,31.5l-9.4-31.5l-31.6-9.9l31.6-9.4l9.4-31L480,250.6z"/>
</svg>
