<?xml version="1.0" encoding="utf-8"?>
<!-- Generator: Adobe Illustrator 21.1.0, SVG Export Plug-In . SVG Version: 6.00 Build 0)  -->
<svg version="1.1" id="Layer_1" xmlns="http://www.w3.org/2000/svg" xmlns:xlink="http://www.w3.org/1999/xlink" x="0px" y="0px"
	 viewBox="0 0 369.6 512" style="enable-background:new 0 0 369.6 512;" xml:space="preserve">
<g>
	<path d="M357.3,317c8-7.7,3.6-21.2-7.4-22.8L257,280.7c-7.7-1.1-14.4-6-17.8-12.9l-41.7-84c-2.5-5-7.2-7.4-12-7.4c0,0,0,0,0,0
		c-4.8,0-9.5,2.5-12,7.5l-41.5,84c-3.5,7-10.1,11.9-17.9,13l-92.8,13.4c-11,1.6-15.4,15.1-7.4,22.8l67.2,65.5
		c5.6,5.4,8.1,13.3,6.8,21L72.2,496c-1.5,8.6,5.4,15.7,13.2,15.7c2.1,0,4.2-0.5,6.2-1.6l82.9-43.6c3.5-1.8,7.2-2.7,11-2.7
		c3.8,0,7.5,0.9,11,2.7l83.4,43.6c2,1.1,4.2,1.6,6.2,1.6c7.8,0,14.7-7.1,13.2-15.7l-16.2-92.3c-1.4-7.7,1.2-15.6,6.8-21.1L357.3,317
		z M267.6,359.6c-13.2,12.9-19.2,31.4-16,49.6l9.7,55l-49.9-26.1c-7.9-4.2-16.9-6.3-25.8-6.3c-9,0-18,2.2-25.9,6.4l-49.5,26.1
		l9.4-55.4c3.1-18.1-2.9-36.5-16-49.2l-40.2-39.1l55.5-8c18.2-2.6,33.9-14,42-30.5l24.8-50.2l25,50.3c8.1,16.4,23.8,27.8,41.9,30.4
		l55.4,8L267.6,359.6z"/>
	<path d="M104.5,148.3c4,3.7,6,8.2,6,13.5c0,5.7-2,10.3-6,14c-3.7,4-8.2,6-13.5,6s-10-2-14-6l-66.5-66.4C6.8,105.7,5,101.2,5,95.9
		c0-5.7,1.8-10.3,5.5-14c4-4,8.7-6,14-6s9.8,2,13.5,6L104.5,148.3z M204.6,113.3c0,5.3-2,9.8-6,13.5c-3.7,4-8.3,6-14,6
		c-5,0-9.5-2-13.5-6c-3.7-3.7-5.5-8.2-5.5-13.5V19.5c0-5.3,1.8-9.8,5.5-13.5c4-4,8.5-6,13.5-6c5.7,0,10.3,2,14,6c4,3.7,6,8.2,6,13.5
		V113.3z M292.6,175.8c-3.7,4-8.3,6-14,6c-5.3,0-9.8-2-13.5-6c-3.7-3.7-5.5-8.3-5.5-14c0-5.3,1.8-9.8,5.5-13.5l66-66.4
		c4-4,8.7-6,14-6s10,2,14,6c3.7,3.7,5.5,8.3,5.5,14c0,5.3-1.8,9.8-5.5,13.5L292.6,175.8z"/>
</g>
</svg>
