<?xml version="1.0" encoding="utf-8"?>
<!-- Generator: Adobe Illustrator 21.1.0, SVG Export Plug-In . SVG Version: 6.00 Build 0)  -->
<svg version="1.1" id="Layer_4" xmlns="http://www.w3.org/2000/svg" xmlns:xlink="http://www.w3.org/1999/xlink" x="0px" y="0px"
	 viewBox="0 0 532.3 512" style="enable-background:new 0 0 532.3 512;" xml:space="preserve">
<style type="text/css">
	.st0{fill:none;}
</style>
<g>
	<path class="st0" d="M67.4,490.8c-63.6,0-43.7-58.6-36.8-80.6c9.8-36.2,67.1-137.4,90.2-161.7c23.5-1.5,44.3-11.5,73.1-31.8
		c8.9-6.3,38.3-31,47.7-38.9c1.6-1.4,1.8-3.8,0.5-5.4c-1.4-1.6-3.8-1.9-5.4-0.5c-9.5,7.8-39.2,32.2-47.8,38.3
		c-13.6,9.7-42,29.5-67.4,30.2c-24.2,0.7-18.6-24.7-14-42.1l0-0.2c1.2-4,9.8-27,13.3-36.4c0.8-2.2-0.4-4.5-2.7-5.1l-0.4-0.1
		c-1.9-0.5-3.9,0.5-4.5,2.4c-3.6,9.5-13.8,37.3-15.6,45.7c-3.1,14.5-4.6,33.7,9.9,41.5c-36.7,48.9-78.1,126.4-89.1,164.5
		c-22,70.4,6.2,90.4,48.9,91.3c100.6,2.2,187.5-160.4,290.5-160.4c36.9,0,76.8,40.2,77.4,40.7l9.7-10.9c-2-1.8-43.4-41.6-90.3-41.6
		C255.2,329.8,160.7,490.8,67.4,490.8z"/>
	<path d="M482.6,367c-6.8,0-13.3,1.4-19.2,3.8l-1.9-1.6c-1.9-1.7-4.4-2.7-7.2-2.8c-3-2.9-47-46.4-100.9-46.4
		c-102.9,0-194.9,160.8-286.1,160.8c-48.9,0-33.6-47.3-27.3-67.5c8.9-31.8,55.2-118.3,85.4-155c20.1-1.5,44.4-12.5,74.1-33.4
		c7.7-5.4,32.9-26.6,47.4-38.8c4.8-4.1,6.2-10.7,3.8-16.2c41-32.9,121.7-110.3,131.8-131.6c1.6-3.4,6.5-11.4,2.9-17.1
		c-4.7-7.6-14.1-8.1-25.3-8.1c-1.5-3.2-4.8-5.4-8.5-5.4h-12.1c-1.7-1.6-3.8-2.5-6-2.5c-5.4,0-9.8,5.3-9.8,11.8
		c0,6.5,4.4,11.8,9.8,11.8c2.1,0,4.1-0.8,5.7-2.2v0h12.5c4.5,0,8.3-3.2,9.2-7.4c6.4,0,16.9,0.8,18.8,4.9c1.4,2.7,0,7.2-4.1,13.5
		c-15.7,25.7-84.7,91.9-128.6,127.3c-5.1-4.2-12.7-4.3-17.9,0.2c-19.7,17-61.4,51.7-81.7,58.5c-28.7,9.7-40.7,14.8-30.2-22.6
		c0.9-3.1,7.6-21.5,12.5-34.8c2.3-6.3-0.2-13.1-5.6-16.5c15.2-42,54.3-103.2,72.3-123.2c6.8-8.1,16.2-12.4,23.7-13.9
		c8.5-1.7,21.4-1,27.7-0.5c0.5,4.8,4.5,8.5,9.4,8.5h12.2c1.7,1.6,3.8,2.5,6,2.5c5.4,0,9.8-5.3,9.8-11.8c0-6.5-4.4-11.8-9.8-11.8
		c-2.1,0-4.1,0.8-5.7,2.2v0h-12.5c-3.3,0-6.2,1.7-7.9,4.3c-5.8-0.6-17.2-2-28.8,0.1c-11.7,2.2-21.4,7.5-29.1,15.9
		c-12,14.6-55,73.3-73,125.5c-6.5-1-12.9,2.7-15.2,9c-5.3,14.8-13.8,38.8-15.3,46c-3.6,17.1-3.5,35.7,6.2,45.3
		C51.7,307,17.5,378.3,8.9,407.9C-20.9,498.5,35.6,512,67.4,512c104.1,0,197.9-160.6,288.4-160.6c34.5,0,74.9,40.1,76.4,41.3
		c0.4,2.4,1.8,4.6,3.8,6.2l0.3-0.1c-2.1,5.5-3.3,11.5-3.3,17.8c0,27.4,22.2,49.6,49.6,49.6c27.4,0,49.6-22.2,49.6-49.6
		C532.3,389.2,510,367,482.6,367z M281,5c1.5,0,2.8,3,2.8,6.8c0,3.7-1.2,6.7-2.8,6.7s-2.8-3-2.8-6.7C278.2,8,279.5,5,281,5z
		 M435.3,382.4c-0.6-0.5-40.4-40.7-77.4-40.7c-103.1,0-190,162.5-290.5,160.4c-42.7-0.9-70.8-20.8-48.8-91.3
		c11-38,52.3-115.5,89.1-164.4c-14.5-7.9-13-27-10-41.5c1.8-8.4,12-36.2,15.6-45.7c0.7-1.8,2.6-2.9,4.5-2.4l0.4,0.1
		c2.2,0.6,3.5,2.9,2.7,5.1c-3.5,9.4-12.1,32.3-13.3,36.4l0,0.2c-4.6,17.4-10.2,42.9,14,42.1c25.3-0.8,53.8-20.6,67.4-30.3
		c8.6-6.1,38.3-30.5,47.8-38.3c1.6-1.3,4-1.1,5.4,0.5c1.4,1.6,1.2,4-0.5,5.4c-9.4,7.9-38.8,32.6-47.7,38.9
		c-28.8,20.3-49.6,30.3-73.1,31.8C97.7,272.8,40.3,374,30.6,410.2c-6.9,22-26.8,80.6,36.8,80.6c93.3,0,187.8-161,287.3-161
		c46.9,0,88.3,39.8,90.3,41.6L435.3,382.4z M482.6,450.9c-18.9,0-34.3-15.3-34.3-34.3s15.3-34.3,34.3-34.3s34.3,15.3,34.3,34.3
		S501.5,450.9,482.6,450.9z"/>
	<path d="M482.6,386.7c-16.5,0-29.9,13.4-29.9,29.9s13.4,29.9,29.9,29.9s29.9-13.4,29.9-29.9S499.1,386.7,482.6,386.7z M482.6,437.3
		c-11.4,0-20.6-9.2-20.6-20.6c0-11.4,9.2-20.6,20.6-20.6s20.6,9.2,20.6,20.6C503.3,428,494,437.3,482.6,437.3z"/>
</g>
<g>
	<path d="M482.6,386.7c-16.5,0-29.9,13.4-29.9,29.9s13.4,29.9,29.9,29.9s29.9-13.4,29.9-29.9S499.1,386.7,482.6,386.7z M482.6,437.3
		c-11.4,0-20.6-9.2-20.6-20.6c0-11.4,9.2-20.6,20.6-20.6s20.6,9.2,20.6,20.6C503.3,428,494,437.3,482.6,437.3z"/>
	<path d="M482.6,367c-6.8,0-13.3,1.4-19.2,3.8l-1.9-1.6c-1.9-1.7-4.4-2.7-7.2-2.8c-3-2.9-47-46.4-100.9-46.4
		c-102.9,0-194.9,160.8-286.1,160.8c-48.9,0-33.6-47.3-27.3-67.5c8.9-31.8,55.2-118.3,85.4-155c20.1-1.5,44.4-12.5,74.1-33.4
		c7.7-5.4,32.9-26.6,47.4-38.8c4.8-4.1,6.2-10.7,3.8-16.2c41-32.9,121.7-110.3,131.8-131.6c1.6-3.4,6.5-11.4,2.9-17.1
		c-4.7-7.6-14.1-8.1-25.3-8.1c-1.5-3.2-4.8-5.4-8.5-5.4h-12.1c-1.7-1.6-3.8-2.5-6-2.5c-5.4,0-9.8,5.3-9.8,11.8
		c0,6.5,4.4,11.8,9.8,11.8c2.1,0,4.1-0.8,5.7-2.2v0h12.5c4.5,0,8.3-3.2,9.2-7.4c6.4,0,16.9,0.8,18.8,4.9c1.4,2.7,0,7.2-4.1,13.5
		c-15.7,25.7-84.7,91.9-128.6,127.3c-5.1-4.2-12.7-4.3-17.9,0.2c-19.7,17-61.4,51.7-81.7,58.5c-28.7,9.7-40.7,14.8-30.2-22.6
		c0.9-3.1,7.6-21.5,12.5-34.8c2.3-6.3-0.2-13.1-5.6-16.5c15.2-42,54.3-103.2,72.3-123.2c6.8-8.1,16.2-12.4,23.7-13.9
		c8.5-1.7,21.4-1,27.7-0.5c0.5,4.8,4.5,8.5,9.4,8.5h12.2c1.7,1.6,3.8,2.5,6,2.5c5.4,0,9.8-5.3,9.8-11.8c0-6.5-4.4-11.8-9.8-11.8
		c-2.1,0-4.1,0.8-5.7,2.2v0h-12.5c-3.3,0-6.2,1.7-7.9,4.3c-5.8-0.6-17.2-2-28.8,0.1c-11.7,2.2-21.4,7.5-29.1,15.9
		c-12,14.6-55,73.3-73,125.5c-6.5-1-12.9,2.7-15.2,9c-5.3,14.8-13.8,38.8-15.3,46c-3.6,17.1-3.5,35.7,6.2,45.3
		C51.8,307,17.5,378.3,8.9,407.9C-20.9,498.5,35.7,512,67.4,512c104.1,0,197.9-160.6,288.4-160.6c34.5,0,74.9,40.1,76.4,41.3
		c0.4,2.4,1.8,4.6,3.8,6.2l0.3-0.1c-2.1,5.5-3.3,11.5-3.3,17.8c0,27.4,22.2,49.6,49.6,49.6c27.4,0,49.6-22.2,49.6-49.6
		C532.3,389.2,510,367,482.6,367z M281,5c1.5,0,2.8,3,2.8,6.8c0,3.7-1.2,6.7-2.8,6.7s-2.8-3-2.8-6.7C278.2,8,279.5,5,281,5z
		 M482.6,450.9c-18.9,0-34.3-15.3-34.3-34.3s15.3-34.3,34.3-34.3s34.3,15.3,34.3,34.3S501.5,450.9,482.6,450.9z"/>
</g>
</svg>
