<?xml version="1.0" encoding="utf-8"?>
<!-- Generator: Adobe Illustrator 21.1.0, SVG Export Plug-In . SVG Version: 6.00 Build 0)  -->
<svg version="1.1" id="Layer_1" xmlns="http://www.w3.org/2000/svg" xmlns:xlink="http://www.w3.org/1999/xlink" x="0px" y="0px"
	 viewBox="0 0 512 512" style="enable-background:new 0 0 512 512;" xml:space="preserve">
<path d="M480,32v447.9H32.1C32,363.1,32,146.3,32,32H480 M490.7,0c0,0-352.1,0-469.5,0C15.5,0,10.5,2.1,6.3,6.3
	C2.1,10.5,0,15.5,0,21.2c0,117.4,0,352.2,0.1,469.5c0,5.7,2.1,10.7,6.3,14.9c4.2,4.2,9.2,6.3,14.9,6.3c117.3,0,469.5,0,469.5,0
	c5.7,0,10.7-2.1,14.9-6.3c4.2-4.2,6.3-9.2,6.3-14.9V21.2c0-5.7-2.1-10.6-6.4-14.9C501.4,2.1,496.4,0,490.7,0L490.7,0z"/>
</svg>
