<?xml version="1.0" encoding="utf-8"?>
<!-- Generator: Adobe Illustrator 21.1.0, SVG Export Plug-In . SVG Version: 6.00 Build 0)  -->
<svg version="1.1" id="Layer_1" xmlns="http://www.w3.org/2000/svg" xmlns:xlink="http://www.w3.org/1999/xlink" x="0px" y="0px"
	 viewBox="0 0 491.2 512" style="enable-background:new 0 0 491.2 512;" xml:space="preserve">
<g>
	<path d="M301.4,150.8c2.9,0,5.2,2.3,5.2,5.2v98.3h-28.7c-4.7,0-8.5,3.8-8.5,8.5v117.4c0,13.3-10.9,24.6-24.3,24.4
		c-13-0.2-23.4-10.8-23.4-23.8v-118c0-4.7-3.8-8.5-8.5-8.5h-28.7V156c0-2.9,2.3-5.2,5.2-5.2H301.4L301.4,150.8z M301.4,118.8H189.8
		c-20.6,0-37.2,16.7-37.2,37.2v111.7c0,10.2,8.4,18.6,18.6,18.6h18.6v94.5c0,30.8,25,55.8,55.8,55.8h0c30.8,0,55.8-25,55.8-55.8
		v-94.5h18.6c10.2,0,18.6-8.4,18.6-18.6V156C338.7,135.4,322,118.8,301.4,118.8L301.4,118.8z"/>
	<path d="M245.7,0c-30.4,0-55,24.6-55,55s24.6,55,55,55s55-24.6,55-55S276.1,0,245.7,0z M245.7,78c-12.7,0-23-10.3-23-23
		c0-12.7,10.3-23,23-23s23,10.3,23,23C268.7,67.7,258.4,78,245.7,78z"/>
	<path d="M376.7,368.5c-7.2,7.2-14.8,14.5-22.4,21.6c58.3,10.2,94,27.9,94,44.3c0,25.1-83.3,53-202.8,53s-202.8-28-202.8-53
		c0-16.4,35.8-34.1,94-44.3c-7.7-7.1-15.2-14.3-22.4-21.6C45.1,382.1,0,406.3,0,434.4C0,477.9,107.9,512,245.6,512
		s245.6-34.1,245.6-77.6C491,406.3,445.8,382.1,376.7,368.5z"/>
</g>
</svg>
