<?xml version="1.0" encoding="utf-8"?>
<!-- Generator: Adobe Illustrator 22.0.1, SVG Export Plug-In . SVG Version: 6.00 Build 0)  -->
<svg version="1.1" id="Layer_1" xmlns="http://www.w3.org/2000/svg" xmlns:xlink="http://www.w3.org/1999/xlink" x="0px" y="0px"
	 viewBox="0 0 482 512" style="enable-background:new 0 0 482 512;" xml:space="preserve">
<path id="_x33_2" d="M121.9,67.6c12.9-21.4,32.2-38.1,57.5-49.6C205.7,6.1,237,0,272.6,0c21.3,0,42,1.4,61.6,4.1
	c15.4,2.1,33,5.6,52.2,10.4v89.6h-15.5c-4.6-18-10.1-32.7-16.7-44.8c-9.3-17.1-21.2-30.1-35.6-38.5c-14.1-8.3-31.5-12.5-51.7-12.5
	c-17.5,0-33.5,3.7-47.5,11c-14.7,7.7-26.6,19.4-35.2,34.6l-0.1,0.2c-8.4,15.2-12.6,33.2-12.6,53.5c0,20.5,3.5,38.7,10.5,54.1
	c7.1,15.6,18.2,30,33.8,44c1.9,1.7,3.9,3.4,5.9,5.1H114c-1.4-3.3-2.8-6.7-4-10.3c-5.3-15.3-7.9-32.8-7.9-52.2
	C102.1,116.5,108.8,89.3,121.9,67.6z M391.6,355.9c0,32.3-6.3,60.5-18.8,83.7c-12.3,22.9-30.4,40.7-54,53
	c-24.4,12.8-53.5,19.3-86.3,19.3c-24.9,0-51.1-1.7-78-4.9c-21-2.6-41.3-6.1-60.4-10.5v-97.4h15.2c7.3,30.6,18.3,54.7,32.9,71.6
	c18.7,21.9,45.5,33,79.8,33c17.8,0,34.2-3.6,48.5-10.8c15.7-7.7,28.4-20.3,37.7-37.5c9-16.6,13.5-36.9,13.5-60.5
	c0-21.6-3.6-40.7-10.6-57c-5.1-11.8-12.4-23.2-21.7-33.9h96.1C389.6,319.5,391.7,336.8,391.6,355.9L391.6,355.9z M482,272H0v-32h482
	V272z"/>
</svg>
