<?xml version="1.0" encoding="utf-8"?>
<!-- Generator: Adobe Illustrator 21.1.0, SVG Export Plug-In . SVG Version: 6.00 Build 0)  -->
<svg version="1.1" id="Layer_1" xmlns="http://www.w3.org/2000/svg" xmlns:xlink="http://www.w3.org/1999/xlink" x="0px" y="0px"
	 viewBox="0 0 464 512" style="enable-background:new 0 0 464 512;" xml:space="preserve">
<path d="M314.5,339.4l6.3,1.8c34,9.8,64,25.2,84.2,43.5c12.3,11.1,26.9,28.5,27,48.5c0,8.1-2.3,13.4-7.8,18.4
	c-5,4.5-15.3,11-36.2,16.3l0,0l0,0c-39.4,10.1-98.2,11.6-155.9,11.7h-1c-57.3,0-115.8-1.5-155.3-11.6c-20.8-5.3-31-11.8-35.9-16.2
	c-5.5-5-7.7-10.4-7.7-18.5c0-19.9,14.5-37.3,26.7-48.4c20.1-18.3,49.8-33.7,83.6-43.4l7-2c22.9,20.4,51.8,31.8,82.7,31.8
	C262.2,371.2,291.6,359.6,314.5,339.4L314.5,339.4z M218.5,1.7c-1,0-2,0.3-3,1L72.9,62.3c-0.7,0.4-1,1.2-1,2.5c0,1.7,0.3,2.7,1,3
	l11,5.9l-1,9.4c-1.7,0.4-3.2,1.2-4.5,2.5c-1,1.7-1.5,3.3-1.5,5c0,1.7,0.5,3.3,1.5,5c0.7,1,1.8,1.8,3.5,2.5l-6,86.8v0.5l2.5,20.8
	l1.5-8.9l4.5,12.9l8.5-25.3l-6-86.8c1.3-0.7,2.5-1.5,3.5-2.5c1-1.7,1.5-3.3,1.5-5c0-1.7-0.5-3.3-1.5-5c-1.3-1.3-2.8-2.2-4.5-2.5
	l-1-8.4l15,8.4l0.5,0.5l12,6.9l-3.5,40.2l8,3c0.2,27.5,3.3,81.7,2,121.3c-1.1,33.9-8.1,55.8,3,55.8c1.9,0,5.8,0,11.5-0.1
	C54.7,333.4,0,381.8,0,433.3c0,71,103.7,78.2,231,78.3h1c64-0.1,121.9-1.9,163.9-12.7c42-10.7,68.1-30.3,68.1-65.8
	c-0.1-51.5-55.2-100-134.4-122.7c1.4,0.1,2.6,0.1,3.5,0.2h1c12.6,0,6.2-21,4.9-56.8s3-86.9,3-122.6c0-19.5-4-33.8-11-44.3l6.6-3.8
	l27-15.4c0.7-0.3,1-1.3,1-3c0-1.3-0.3-2.2-1-2.5L221.5,2.7C220.8,2,219.8,1.7,218.5,1.7L218.5,1.7z M218.5,169.9
	c2.3,0,5.2-0.5,8.5-1.5c2.3-0.7,78-27.9,78-27.9c0.2,1.5,0.4,3.1,0.5,4.8c0.1,0,0.2-0.1,0.2-0.1c1.2-1.1,2.4-1.7,3.9-1.7
	c8.5,1.1,11.3,13.1,7.6,31c-1.8,8.7-5.8,16.2-9,16.2c-1.5,0-3.2-0.2-4.6-1.3c-9.2,45.2-40.6,87.7-78,87.7
	c-37.1,0-68.3-41.6-77.7-86.4h-1c-3.3,0-6.8-7.7-8.9-16.4c-0.1-0.6-0.3-1.2-0.4-1.8c0-0.1,0-0.2-0.1-0.3c-0.1-0.6-0.2-1.2-0.4-1.8
	c0-0.1,0-0.2,0-0.2c-0.1-0.5-0.2-1-0.3-1.4c0-0.2-0.1-0.4-0.1-0.6c-0.1-0.4-0.1-0.9-0.2-1.3c0-0.3-0.1-0.5-0.1-0.7
	c0-0.4-0.1-0.8-0.1-1.1c0-0.2,0-0.5-0.1-0.7c0-0.4-0.1-0.8-0.1-1.2v-0.7c0-0.4,0-0.8-0.1-1.2v-2c0-4.4,1-8.3,2.8-11.2
	c1.4-2.3,3.2-3.9,5.2-4.4c0,0,64.3,24,66.5,24.7C213.8,169.4,216.5,169.9,218.5,169.9L218.5,169.9z M231.9,311.5
	c23.4,0,44.2-12.3,57-31.2l19.3,18.6c-17.6,24.5-45.3,40.3-76.3,40.3c-31.1,0-58.7-15.8-76.3-40.3l19.3-18.6
	C187.7,299.2,208.5,311.5,231.9,311.5L231.9,311.5z"/>
</svg>
