<?xml version="1.0" encoding="utf-8"?>
<!-- Generator: Adobe Illustrator 21.1.0, SVG Export Plug-In . SVG Version: 6.00 Build 0)  -->
<svg version="1.1" id="_x35_2" xmlns="http://www.w3.org/2000/svg" xmlns:xlink="http://www.w3.org/1999/xlink" x="0px" y="0px"
	 viewBox="0 0 466.1 512" style="enable-background:new 0 0 466.1 512;" xml:space="preserve">
<g id="_x33_2_1_">
	<path d="M368.6,324.8c-29.5-11.4-60.1-22.6-60.1-22.6c0,0,0,0,0,0c-0.2,0-3.4-10.8-17.8-24.4v-20.1c0,0,11.7-12.8,24.3-33.8
		c9.7-16.1,19.9-37,25.7-60.6l-107.6,14.8l-107.6-14.8c5.8,23.5,16,44.5,25.7,60.6c12.6,20.9,24.3,33.8,24.3,33.8v20.1
		c-14.4,13.6-17.6,24.4-17.8,24.4c0,0,0,0,0,0c0,0-30.7,11.1-60.1,22.6C68.1,336.2,0,360.2,0,425.7C0,507,179.3,512,223.5,512
		c5.3,0,8.7-0.1,9.5-0.1c0.9,0,4.2,0.1,9.5,0.1c44.2,0,223.5-5,223.5-86.3C466.1,360.2,398,336.2,368.6,324.8z M419.3,446.9
		c-12.3,8.3-31.4,15.6-55.5,21.1c-47.2,10.7-100.5,11.9-121.2,11.9c-5.6,0-8.9-0.1-8.9-0.1l-0.7,0l-0.7,0c0,0-3.3,0.1-8.9,0.1
		c-20.7,0-74-1.2-121.2-11.9c-24-5.4-43.2-12.7-55.5-21.1c-14.7-10-14.7-17.9-14.7-21.2c0-17.4,7.4-31.4,23.4-43.9
		c16-12.6,36.7-20.6,50.5-25.9c1.1-0.4,2.1-0.8,3.1-1.2c25.6-9.9,52.4-19.8,58.3-21.9c7.9-2.5,15.8-8.3,20.2-18.9
		c1.1-2.7,4.3-7.5,9.9-12.8l10.1-9.5v-33.9l0.1-12.4l-8.5-9.2c-0.7-0.8-10.3-11.7-20.5-28.7c-0.9-1.6-1.9-3.2-2.8-4.7l52.7,7.2
		l4.4,0.6l4.4-0.6l52.7-7.2c-0.9,1.6-1.8,3.1-2.8,4.7c-10.3,17.1-19.9,28-20.5,28.7l-8.5,9.2l0.1,12.4v33.9l10.1,9.5
		c5.6,5.3,8.8,10.1,9.9,12.8c4.3,10.6,12.2,16.4,20.2,18.9c5.9,2.1,32.7,12,58.3,21.9c1,0.4,2.1,0.8,3.1,1.2
		c13.7,5.3,34.5,13.3,50.5,25.9c16,12.5,23.4,26.5,23.4,43.9C433.9,429.1,433.9,437,419.3,446.9z"/>
	<path d="M235.4,33.9l88.6,30l-11.9,7.2l0.4,18.5l0.3,13.5l-77.2,11.1l-82.3-11.6l0.7-16.7l0.9-20.7l-3.8-1.9L235.4,33.9 M235.3,0
		c-1,0-156.6,54.3-156.6,54.3c-1.1,0.7-1.6,1.7-1.6,3.1c0,1.7,0.6,2.9,1.6,3.6l11.5,6.1l-1,10.2c-1.8,0.4-3.3,1.2-4.7,2.6
		c-1.4,2-2.1,3.9-2.1,5.6c0,1.7,0.7,3.2,2.1,4.6c0.7,1.7,1.9,2.9,3.7,3.6l-6.8,92.8v0.5l3.1,22.6l1.6-9.7l4.7,14.3l9.4-27.7
		l-6.8-92.8c1.4-0.7,2.8-1.9,4.2-3.6c1.1-1.4,1.6-2.9,1.6-4.6c0-1.7-0.6-3.6-1.6-5.6c-1.4-1.4-3-2.3-4.7-2.6l-1-9.2l15.8,9.2l1,0.5
		l13.1,6.6l-1.9,45.7l115.6,16.4l109.9-15.8L344.5,89l13.6-8.2l6.8-3.6l29.9-16.4c0.6-0.7,1-1.9,1-3.6c0-1.4-0.3-2.4-1-3.1
		C394.9,54.1,236.7,0,235.3,0L235.3,0z"/>
</g>
</svg>
