<?xml version="1.0" encoding="utf-8"?>
<!-- Generator: Adobe Illustrator 21.1.0, SVG Export Plug-In . SVG Version: 6.00 Build 0)  -->
<svg version="1.1" id="Layer_1" xmlns="http://www.w3.org/2000/svg" xmlns:xlink="http://www.w3.org/1999/xlink" x="0px" y="0px"
	 viewBox="0 0 439.1 512" style="enable-background:new 0 0 439.1 512;" xml:space="preserve">
<g id="_x33_2">
	<path d="M219.8,32.8c19.2,0.1,32.7,4.9,41.2,14.7c28,34.3,7.2,92.5-5.7,111.1c-7.4,12.4-23.2,30-23.2,30v41.8l10,9.5
		c4.5,4.3,5.8,7.2,5.8,7.2l0.1,0.1c3.7,9,11,15.7,19.7,18.6c4.5,1.6,72.6,27.6,84,36.6c10.5,8.2,13.9,16.1,14.9,22.8
		c-25.1,25.7-132.9,62.5-146.8,67.2c-13.9-4.7-100.8-32.8-147-67.2c1-6.6,4.4-14.5,14.9-22.7c11.4-9,79.7-35,84.2-36.7
		c8.8-2.9,16.1-9.6,19.8-18.7l0.1-0.1c0,0,1.3-2.9,5.8-7.2l10-9.5l0.2-41.6c0,0-16-17.8-23.4-30.2c-9.3-16.9-35.3-67.7-5.7-111
		C187,37.7,200.6,32.9,219.8,32.8 M219.8,0.8C117.6,1.2,133.7,109.6,134,111.6c2.8,24.9,13.1,47.3,22.8,63.4
		c9.7,16.1,18.7,26,18.7,26v15.5c-11.1,10.5-13.6,18.8-13.7,18.8c0,0,0,0,0,0c0,0-23.6,8.6-46.3,17.4c-22.7,8.8-75.1,27.3-75.1,77.9
		c0,37.6,173.6,93.6,179.4,95.4c5.8-1.8,179.2-57.8,179.2-95.4c0-50.5-52.3-69-75-77.9c-22.6-8.8-46.2-17.4-46.2-17.4c0,0,0,0,0,0
		c-0.1,0-2.6-8.3-13.7-18.8v-15.5c0,0,9-9.9,18.7-26c9.7-16.1,20-38.5,22.8-63.4C305.8,109.6,321.9,1.2,219.8,0.8L219.8,0.8z"/>
	<g>
		<path d="M411.9,379.8c-28.6,12.7-117,35-153,57.6c-18.5,10.9-31.6,24-39.4,39.2c-9.9-20.6-30.3-33.9-39.4-39.2
			c-19.2-15.8-115.2-43.6-122.6-46.2c-24.2-8.3-43.4-16.7-57.5-25.3v31.8c5,1.3,30.9,9.1,38.3,11.5c-5.6,3.1-4.4,19.7,24.2,28.8
			c19.7,6.2,36,0.9,36.4-7c21.1,9.9,89.1,38.6,96.8,81h47.7c5.1-28.6,39.5-55.8,94.3-80c5.8,12.8,27.9,8.7,36.3,6
			c8.7-2.7,33.5-14.2,24.8-28.4c7.7-2.6,35-10.3,40.3-12v-31.8C431.4,370.5,422.4,375.1,411.9,379.8z"/>
	</g>
</g>
</svg>
