<?xml version="1.0" encoding="utf-8"?>
<!-- Generator: Adobe Illustrator 21.1.0, SVG Export Plug-In . SVG Version: 6.00 Build 0)  -->
<svg version="1.1" id="Layer_3" xmlns="http://www.w3.org/2000/svg" xmlns:xlink="http://www.w3.org/1999/xlink" x="0px" y="0px"
	 viewBox="0 0 606.9 512" style="enable-background:new 0 0 606.9 512;" xml:space="preserve">
<g id="_x33_2">
	<path d="M606.6,377.6c0-63.3-51.3-114.6-114.6-114.6c0,0,0,0-0.1,0h-13.5v-9.4c-35.9-5.8-72.7-9.6-109.6-10
		c-23.4-0.3-46.8,0.7-70.1,3.2v16.4l-100.3,0.1l-95.2,28.9v58.3l-21.9-43.9H54.1v54.1l-39,19.5c-1.3-1.9-3.2-3.2-5.7-3.4
		c3.7-2.8,6.8-21.7,6.8-30.3c0-9.6-3.4-17.3-7.7-17.3c-4,0-7.4,7.7-7.4,17.3c0,8.7,2.8,27.6,6.5,30.3c-5,0.2-7.5,5.6-7.6,11l0,0l0,0
		c0,5.3,2.4,10.7,7.3,11c-3.4,3.7-6.2,21.7-6.2,30.3c0,9.6,3.4,17.3,7.4,17.3c4.3,0,7.7-7.7,7.7-17.3c0-8.7-2.8-26.6-6.5-30.3
		c2.5-0.2,4.3-1.5,5.5-3.4l38.9,19.5V469h27.1l21.9-43.9v56.6l93.8,28.8c1,0.3,1.9,0.4,2.9,0.4l0,0h292.1
		c63.3,0,114.6-51.3,114.6-114.7L606.6,377.6z M550.4,454.7c-15.6,15.6-36.4,24.2-58.4,24.2H203.2l-68-20.9V315.8l68-20.6l288.7-0.2
		h0.1c45.5,0,82.6,37.1,82.6,82.6v18.7C574.6,418.3,566,439.1,550.4,454.7z"/>
	<path d="M258.6,125.8c0-3.2-2.5-5.8-5.7-5.8c-3.1,0-5.7,2.6-5.7,5.8c0,3.2,2.5,5.8,5.7,5.8S258.6,129,258.6,125.8z M252.9,130.1
		c-2.4,0-4.3-1.9-4.3-4.4c0-2.4,1.9-4.4,4.3-4.4s4.3,2,4.3,4.4C257.2,128.1,255.3,130.1,252.9,130.1z"/>
	<path d="M263.7,136.7c-4.2,0-7.5,3.2-7.5,7.3c0,4,3.4,7.3,7.5,7.3c4.2,0,7.5-3.3,7.5-7.3S267.9,136.7,263.7,136.7z M263.7,149.4
		c-3.1,0-5.7-2.5-5.7-5.5s2.6-5.5,5.7-5.5c3.2,0,5.7,2.5,5.7,5.5C269.4,146.9,266.9,149.4,263.7,149.4z"/>
	<path d="M261.2,167.3c-2.6,0-4.7,2.1-4.7,4.6c0,2.6,2.1,4.6,4.7,4.6s4.7-2.1,4.7-4.6C265.9,169.4,263.8,167.3,261.2,167.3z
		 M261.3,175.3c-1.9,0-3.5-1.6-3.5-3.5s1.6-3.5,3.5-3.5c2,0,3.5,1.6,3.5,3.5C264.8,173.8,263.2,175.3,261.3,175.3z"/>
	<path d="M285.1,146.4c2,0,3.6-1.7,3.6-3.7s-1.6-3.7-3.6-3.7s-3.6,1.7-3.6,3.7C281.6,144.7,283.2,146.4,285.1,146.4z M285.2,139.9
		c1.5,0,2.7,1.2,2.7,2.8c0,1.5-1.2,2.8-2.7,2.8s-2.7-1.2-2.7-2.8C282.4,141.1,283.6,139.9,285.2,139.9z"/>
	<path d="M285.2,179.7c-1.9,0-3.5,1.6-3.5,3.5s1.6,3.5,3.5,3.5s3.5-1.6,3.5-3.5C288.8,181.2,287.2,179.7,285.2,179.7z M285.3,185.7
		c-1.5,0-2.7-1.2-2.7-2.6c0-1.5,1.2-2.6,2.7-2.6s2.7,1.2,2.7,2.6C287.9,184.5,286.7,185.7,285.3,185.7z"/>
	<path d="M413.9,192.4l5.9,10.6c-17.3-1.5-34.2-2.3-50.6-2.5c-2.9,0-5.8-0.1-8.6-0.1c-6.8,0-13.5,0.1-20.2,0.3l2.1-8.4L413.9,192.4
		L413.9,192.4z M335.5,160.4c-10.6,0-19.8,7.2-22.4,17.5l-1.6,6.4H299l-4.1,9.9c0,0.4,1.8,0.8,4.1,0.8h9.8l-7.7,30.7l-2.5,10
		c20.5-2.2,41.2-3.2,61.9-3.2c2.7,0,5.5,0,8.2,0.1c36.9,0.5,73.7,4.2,109.6,10l-9.4-16.9l-29.7-53.4c-4.1-7.3-11.8-11.8-20.1-11.8
		L335.5,160.4C335.5,160.4,335.5,160.4,335.5,160.4L335.5,160.4z"/>
	<path d="M606.5,106.3c0-1-0.6-1.6-1.6-1.6s-1.6,0.6-1.6,1.6c0,4.2-6.3,7.7-13.6,7.7c-7.6,0-13.6-3.5-13.6-7.7c0-1-0.6-1.6-1.6-1.6
		s-1.6,0.6-1.6,1.6c0,4.2-6.3,7.7-13.6,7.7s-13.6-3.5-13.6-7.7c0-1-0.6-1.6-1.6-1.6c-0.9,0-3.2,0.3-3.2,1.3c0,4.2-6.3,7.7-13.6,7.7
		s-13.6-3.5-13.6-7.7c0-1-0.6-1.6-1.6-1.6c-0.9,0-1.6,0.6-1.6,1.6c0,4.2-6.3,7.7-13.6,7.7c-7.6,0-13.6-3.5-13.6-7.7
		c0-1-0.6-1.6-1.6-1.6c-0.9,0-1.6,0.6-1.6,1.6c0,4.2-6.3,7.7-13.6,7.7c-7.6,0-13.6-3.5-13.6-7.7c0-1-0.6-1.6-1.6-1.6
		s-1.6,0.6-1.6,1.6c0,4.2-6.3,7.7-13.6,7.7c-6.3,0-13.3-2.4-15-6V106c0-9.7,4.7-10,5.3-10c5,0,9-4,9-9s-4-9-9-9
		c-9.3,0-23.2,7.4-23.2,28v7.7c-6.9-0.2-12.8-3.7-12.8-7.7c0-0.8-0.4-1.3-1-1.5v-70c0-12,5.8-12.4,6.5-12.4c6.1,0,11.1-5,11.1-11.1
		s-5-11.1-11.1-11.1c-11.5,0-28.7,9.2-28.7,34.5v78.2c-4.1-1.3-7-3.8-7.1-6.5c0-0.1,0-0.1,0-0.2c0-1-0.6-1.6-1.6-1.6h-0.3
		c-0.8,0.1-1.3,0.7-1.3,1.6c0,2.3-2,4.4-4.9,5.9v-46c0-25.3-17.1-34.5-28.7-34.5c-6.1,0-11.1,5-11.1,11.1c0,6.1,5,11.1,11.1,11.1
		c0.7,0,6.5,0.3,6.5,12.4v40.2c0-1-0.6-1.6-1.6-1.6c-0.9,0-1.6,0.6-1.6,1.6c0,4.2-6.3,7.7-13.6,7.7s-13.6-3.5-13.6-7.7
		c0-1-0.6-1.6-1.6-1.6c-0.9,0-3.2,0.3-3.2,1.3c0,4.2-6.3,7.7-13.6,7.7s-13.6-3.5-13.6-7.7c0-1-0.6-1.6-1.6-1.6s-1.6,0.6-1.6,1.6
		c0,4.2-6.3,7.7-13.6,7.7c-7.6,0-13.6-3.5-13.6-7.7c0-1-0.6-1.6-1.6-1.6c-0.9,0-1.6,0.6-1.6,1.6c0,4.2-6.3,7.7-13.6,7.7
		c-7.6,0-13.6-3.5-13.6-7.7c0-1-0.6-1.6-1.6-1.6s-1.6,0.6-1.6,1.6c0,4.2-6.3,7.7-13.6,7.7s-15.5-3.2-15.5-7.7c0-1-0.6-1.6-1.6-1.6
		s-1.6,0.6-1.6,1.6c0,4.2-6.3,7.7-13.6,7.7s-13.6-3.5-13.6-7.7c0-1-0.6-1.6-1.6-1.6s-1.6,0.6-1.6,1.6c0,4.2-6.3,7.7-13.6,7.7
		c-2.7,0-5.2-0.5-7.4-1.3c-3.2-1.4-5.3-3.6-5.3-6.1c0-0.9-0.6-1.6-1.5-1.6c-0.3-0.2-0.6-0.3-1-0.3c-0.9,0-1.6,0.6-1.6,1.6
		c0,4.2-6.3,7.7-13.6,7.7c-0.3,0-0.6,0.1-0.9,0.2c-6.7-0.5-11.7-3.8-11.7-7.6c0-1-0.6-1.6-1.6-1.6s-1.6,0.6-1.6,1.6
		c0,4.2-6.3,7.7-13.5,7.7c-7.2,0-13.5-3.5-13.5-7.7c0-1-0.6-1.6-1.6-1.6s-3.1,0.3-3.1,1.3c0,4.2-6.3,7.7-13.5,7.7
		s-13.5-3.5-13.5-7.7c0-1-0.6-1.6-1.6-1.6c-0.9,0-1.6,0.6-1.6,1.6c0,4.2-6.3,7.7-13.5,7.7c-2,0-3.8-0.2-5.5-0.7v2.5
		c2.4,0.8,5.1,1.3,8.1,1.3c6.9,0,12.6-2.6,15.4-6.4c2.8,3.9,8.5,6.4,15.4,6.4c6.9,0,12.6-2.6,15.4-6.4c2.8,3.9,8.5,6.4,15.4,6.4
		c6.9,0,12.6-2.6,15.4-6.4c2.4,3.2,6.7,5.5,12.1,6.2c0.2,0.1,0.5,0.2,0.8,0.2h2.6c6,0,11.1-1.9,14.2-5c3.1,3,8.2,5,14.2,5h2.4
		c0.3,0,0.6-0.1,0.8-0.2c5.4-0.7,9.8-3,12.2-6.2c2.8,3.9,8.5,6.4,15.5,6.4c6.9,0,12.6-2.6,15.5-6.4c2.8,3.9,8.5,6.4,15.5,6.4
		c6.9,0,12.6-2.6,15.5-6.4c2.8,3.9,8.5,6.4,15.5,6.4c6.9,0,12.6-2.6,15.5-6.4c2.8,3.9,8.5,6.4,15.5,6.4s12.6-2.6,15.5-6.4
		c2.8,3.9,8.5,6.4,15.5,6.4c6.9,0,12.6-2.6,15.5-6.4c2.8,3.9,8.5,6.4,15.5,6.4c6.9,0,12.6-2.6,15.5-6.4c0.1,0.1,0.2,0.3,0.3,0.4
		v36.7h22.2v-31.7c2.5-0.7,4.7-1.9,6.5-3.3c0.8-0.6,0.9-0.7,1-0.9c0.9,1,2,1.9,3.3,2.7c1.3,0.8,2.8,1.4,4.4,1.9v31.4H390V111
		c0.1-0.2,0.3-0.3,0.4-0.5c2.6,3.5,7.4,5.9,13.4,6.3v30.5h17.9V111c3,3.6,8.4,5.9,15,5.9c6.9,0,12.6-2.6,15.5-6.4
		c2.8,3.9,8.5,6.4,15.5,6.4s12.6-2.6,15.5-6.4c2.8,3.9,8.5,6.4,15.5,6.4c6.9,0,12.6-2.6,15.5-6.4c2.8,3.9,8.5,6.4,15.5,6.4
		c6.9,0,12.6-2.6,15.5-6.4c2.8,3.9,8.5,6.4,15.5,6.4c6.9,0,12.6-2.6,15.5-6.4c2.8,3.9,8.5,6.4,15.5,6.4c6.7,0,12.3-2.4,15.2-6.1
		C606.6,110.9,606.5,110.5,606.5,106.3z M427.6,81.2c3.2,0,5.8,2.6,5.8,5.8s-2.6,5.8-5.8,5.8c-3.2,0-5.8-2.6-5.8-5.8
		S424.4,81.2,427.6,81.2z M396.5,4c3.7,0,6.6,3,6.6,6.6c0,3.7-3,6.6-6.6,6.6s-6.6-3-6.6-6.6C389.9,7,392.8,4,396.5,4z M323.6,48.8
		c-3.7,0-6.6-3-6.6-6.6c0-3.7,3-6.6,6.6-6.6c3.7,0,6.6,3,6.6,6.6C330.2,45.8,327.2,48.8,323.6,48.8z"/>
</g>
</svg>
