<?xml version="1.0" encoding="utf-8"?>
<!-- Generator: Adobe Illustrator 21.1.0, SVG Export Plug-In . SVG Version: 6.00 Build 0)  -->
<svg version="1.1" id="Layer_1" focusable="false" xmlns="http://www.w3.org/2000/svg" xmlns:xlink="http://www.w3.org/1999/xlink"
	 x="0px" y="0px" viewBox="0 0 512 512" style="enable-background:new 0 0 512 512;" xml:space="preserve">
<g id="_x33_2">
	<path d="M28,32.2l-9.5,0C2.1,32.3-6.1,52,5.4,63.7L123,182.8L5.3,301.9c-11.5,11.7-3.3,31.4,13.1,31.4l9.5,0c5,0,9.7-2,13.2-5.5
		l112.2-114.2l112,113.9c3.5,3.6,8.3,5.6,13.3,5.5l9.5-0.1c16.3-0.1,24.4-19.8,13-31.4L183.7,182.8L301.4,63.6
		c11.5-11.6,3.3-31.4-13.1-31.4l-9.5,0c-5,0-9.7,2-13.2,5.5L153.3,151.9L41.2,37.7C37.7,34.2,32.9,32.2,28,32.2z"/>
	<path d="M512,447.3v28.8H341.7c-0.8-8-1.2-15.7-1.2-20c0-16.9,4-33,11.3-48c20.7-43.1,74.5-67.8,99.3-90.8
		c29.5-27.3,19.3-62.1,5.2-76l-0.1-0.1c-17.3-17.3-54.1-20.3-81.7,16.5l-27.1-19.4c17.2-22.5,45.6-41.7,81.3-41.7
		c48.6,0,81.9,34,81.9,76.4c0,14.6-3.7,29.8-15.7,44.6C455,367,377.3,398.4,377.3,431.1l-0.3,16.2H512z"/>
</g>
</svg>
