<?xml version="1.0" encoding="utf-8"?>
<!-- Generator: Adobe Illustrator 21.1.0, SVG Export Plug-In . SVG Version: 6.00 Build 0)  -->
<svg version="1.1" id="Layer_1" xmlns="http://www.w3.org/2000/svg" xmlns:xlink="http://www.w3.org/1999/xlink" x="0px" y="0px"
	 viewBox="0 0 512 512" style="enable-background:new 0 0 512 512;" xml:space="preserve">
<g>
	<g>
		<path d="M90,240.5H0v32h90V240.5z M422,240.5v32h90v-32H422z M272,0.5h-32v90h32V0.5z M240,512.5h32v-90h-32V512.5z M104.2,325.6
			l-77.9,45l16,27.7l77.9-45L104.2,325.6z M407.8,187.4l77.9-45l-16-27.7l-77.9,45L407.8,187.4z M186.9,104.7l-45-77.9l-27.7,16
			l45,77.9L186.9,104.7z M325.1,408.3l45,77.9l27.7-16l-45-77.9L325.1,408.3z M114.1,470.2l27.7,16l45-77.9l-27.7-16L114.1,470.2z
			 M397.9,42.8l-27.7-16l-45,77.9l27.7,16L397.9,42.8z M120.2,159.6l-77.9-45l-16,27.7l77.9,45L120.2,159.6z M391.8,353.4l77.9,45
			l16-27.7l-77.9-45L391.8,353.4z"/>
		<path d="M256,154.5c56.2,0,102,45.8,102,102s-45.8,102-102,102s-102-45.8-102-102S199.8,154.5,256,154.5 M256,122.5
			c-74,0-134,60-134,134s60,134,134,134s134-60,134-134S330,122.5,256,122.5L256,122.5z"/>
	</g>
</g>
</svg>
