<?xml version="1.0" encoding="utf-8"?>
<!-- Generator: Adobe Illustrator 21.1.0, SVG Export Plug-In . SVG Version: 6.00 Build 0)  -->
<svg version="1.1" id="Layer_3" xmlns="http://www.w3.org/2000/svg" xmlns:xlink="http://www.w3.org/1999/xlink" x="0px" y="0px"
	 viewBox="0 0 512 512" style="enable-background:new 0 0 512 512;" xml:space="preserve">
<g>
	<g>
		<path d="M179.2,163.9c-16.7,0-30.2,16.7-30.2,37.2s13.6,37.2,30.2,37.2s30.2-16.7,30.2-37.2S195.9,163.9,179.2,163.9z
			 M255.5,298.1c-53,0-56.5,27.5-56.5,61.5s25.3,61.5,56.5,61.5s56.5-27.5,56.5-61.5S308.5,298.1,255.5,298.1z M256,1
			C114.6,1,0,115.6,0,257s114.6,256,256,256s256-114.6,256-256S397.4,1,256,1z M256,481.1c-123.7,0-224-100.3-224-224
			S132.2,33,256,33s224,100.3,224,224S379.7,481.1,256,481.1z M332.8,163.9c-16.7,0-30.2,16.7-30.2,37.2s13.6,37.2,30.2,37.2
			c16.7,0,30.2-16.7,30.2-37.2S349.5,163.9,332.8,163.9z"/>
	</g>
</g>
</svg>
