<?xml version="1.0" encoding="utf-8"?>
<!-- Generator: Adobe Illustrator 21.1.0, SVG Export Plug-In . SVG Version: 6.00 Build 0)  -->
<svg version="1.1" id="Layer_4" xmlns="http://www.w3.org/2000/svg" xmlns:xlink="http://www.w3.org/1999/xlink" x="0px" y="0px"
	 viewBox="0 0 465.4 512" style="enable-background:new 0 0 465.4 512;" xml:space="preserve">
<g>
	<path d="M333.9,167.5c-8.2,0-11.8,5.6-12.1,6.1l-115.9,158l-46.2-66.5c-4.2-7-13.3-9.6-20.3-5.7c-7,3.9-9.4,12.9-5.3,19.9
		l50.5,71.3c15.4,15.4,27.6,14.7,43.9-1.5c1.3-1.3,63.7-86.8,100.4-136.7c13.7-18.5,19.4-23.9,19.4-30.8
		C348.2,174.9,342.8,167.5,333.9,167.5z"/>
	<path d="M462.7,113.1c-57.4,0-104-46.5-104.7-104c0,0-49.2-9.1-125.4-9.1S107.3,9.1,107.3,9.1c-0.7,57.5-47.3,104-104.6,104
		c-0.9,0-1.8-0.1-2.7-0.1c4.1,38.2,10.4,98.7,18.2,178.1C32.3,433.9,231.4,512,231.4,512h1.3h1.3c0,0,199.1-78.1,213.3-220.9
		c7.9-79.4,14.2-139.9,18.2-178.1C464.5,113,463.6,113.1,462.7,113.1z M415.4,287.9c-2.6,26.4-13.6,52.7-32.6,78.1
		c-16.2,21.6-38.1,42.6-65.2,62.4c-34.3,25.1-68.4,41.8-85,49.3c-16.3-7.4-49.6-23.8-83.8-48.5c-27.3-19.8-49.5-40.9-65.8-62.6
		c-19.2-25.5-30.3-52-33-78.7c-6-60.5-11.1-110.2-14.9-146.8c50.1-12.4,89.7-52.9,101-103.8c20.7-2.4,54.4-5.4,96.5-5.4
		c42.2,0,75.9,2.9,96.6,5.4c11.2,50.9,50.9,91.4,101,103.8C426.5,177.6,421.4,227.1,415.4,287.9z"/>
</g>
</svg>
