<?xml version="1.0" encoding="utf-8"?>
<!-- Generator: Adobe Illustrator 21.1.0, SVG Export Plug-In . SVG Version: 6.00 Build 0)  -->
<svg version="1.1" id="Layer_2" xmlns="http://www.w3.org/2000/svg" xmlns:xlink="http://www.w3.org/1999/xlink" x="0px" y="0px"
	 viewBox="0 0 558.1 512" style="enable-background:new 0 0 558.1 512;" xml:space="preserve">
<g id="_x33_2">
	<path d="M30.3,313.5c0-31,30.1-59,78.2-78.6c-2.7-2.7-7.7-7.2-12.9-11.8C37,247.5,0,283.3,0,323.2c0,39.3,35.8,74.6,92.7,98.9
		c9.9-11.3,19.5-22.6,23.2-27C63.5,375.3,30.3,346.1,30.3,313.5z"/>
	<path d="M277.2,421.2c-49.3,0-95.3-6.3-133.9-17.2c-5.5,6.7-14.4,18.6-21.8,28.9c44.8,14.6,99.1,23.2,157.6,23.2
		c59,0,113.7-8.7,158.7-23.6c-9.3-10.1-21.2-23-26.2-28.6C372.9,414.9,326.8,421.2,277.2,421.2z"/>
	<path d="M477.8,229.9c-2-0.9-18.3-8.3-22.6-10.2V106.9c0-15.2,12.4-27.9,27.6-27.7c14.7,0.3,26.5,12.3,26.5,27v18.5
		c0,7.8,6.4,14.2,14.2,14.2c3.9,0,7.5-1.6,10-4.2c2.6-2.6,4.2-6.1,4.2-10v-18.5c0-30.9-25.3-55.9-56.4-55.4
		c-30.4,0.5-54.5,26-54.5,56.4v23.9l-82.3-7.9v-22.2c0-16.6,13-30.5,29.5-31c6.4-0.2,12.4,1.7,17.4,4.9c3.5,2.3,7.7,2.9,11.7,1.8
		c12.2-3.3,14.8-19.6,4.1-26.4c-9.2-6-20.2-9.5-32-9.6c-33-0.2-60.1,27.5-60.1,60.6v90.2c-11.4-0.7-24.3-1.1-36.1-1.1
		c-58.2,0-112.3,8.5-157,23c5.3,5.2,10.5,10.2,12.7,12.2c40.3-12.4,89.5-19.7,142.5-19.7c12.2,0,26.1,0.5,37.9,1.3v85.5
		c0,4.1,1.7,7.7,4.3,10.4c2.7,2.7,6.3,4.3,10.4,4.3c8.1,0,14.7-6.6,14.7-14.7v-33.7l82.3,7.9v40.4c0,7.8,6.4,14.2,14.2,14.2
		c3.9,0,7.5-1.6,10-4.2c2.6-2.6,4.2-6.1,4.2-10v-67.8c4,2,18.6,8.9,20,9.6c30.7,18,48.9,40.2,48.9,64.4c0,32.4-32.8,61.5-84.7,81.2
		c7.3,7.7,16.7,17.3,26.4,27.2c56.7-24.3,92.3-59.5,92.3-98.7C558.1,286.8,527.4,253.9,477.8,229.9z M426.8,159.5v28.1l-82.3-7.9
		v-28.1L426.8,159.5z M344.5,230.4v-22.3l82.3,7.9v22.3L344.5,230.4z"/>
</g>
</svg>
