<?xml version="1.0" encoding="utf-8"?>
<!-- Generator: Adobe Illustrator 21.1.0, SVG Export Plug-In . SVG Version: 6.00 Build 0)  -->
<svg version="1.1" id="Layer_4" xmlns="http://www.w3.org/2000/svg" xmlns:xlink="http://www.w3.org/1999/xlink" x="0px" y="0px"
	 viewBox="0 0 512 512" style="enable-background:new 0 0 512 512;" xml:space="preserve">
<g>
	<path d="M479.7,2.2c-33.2,2.3-64.4,16.5-87.9,40L130.3,304.5l78.3,77l261.2-262.1c23.4-23.4,37.6-54.5,39.9-87.6L511.9,0L479.7,2.2
		z M446.3,96.6L208.4,335.3l-31.6-31L415.4,64.9c16.4-16.4,37.9-26.9,60.8-29.8C473.4,58.4,462.9,80,446.3,96.6z"/>
	<path d="M106.1,314.6c-13.7-13.7-36-13.6-49.6,0.2l43.2,43.2l13.8,13.8l-77.4,77.4c-9.5-1.3-19.5,1.5-26.8,8.9
		C-3,470.3-3,490.3,9.3,502.7c12.4,12.4,32.4,12.4,44.8,0c7.3-7.3,10.2-17.3,8.9-26.8l77.4-77.4l13.8,13.8l44,44l0.8-0.9
		c13-13.7,12.7-35.3-0.7-48.7L106.1,314.6z"/>
</g>
</svg>
