<?xml version="1.0" encoding="utf-8"?>
<!-- Generator: Adobe Illustrator 21.1.0, SVG Export Plug-In . SVG Version: 6.00 Build 0)  -->
<svg version="1.1" id="Layer_4" xmlns="http://www.w3.org/2000/svg" xmlns:xlink="http://www.w3.org/1999/xlink" x="0px" y="0px"
	 viewBox="0 0 512 512" style="enable-background:new 0 0 512 512;" xml:space="preserve">
<g>
	<polygon points="384,304.5 307.1,381.5 273.4,347 296.3,324.1 307.3,335.3 338.3,304.3 327.3,293.1 350.3,270.1 	"/>
	<path d="M103.9,64.9C87.7,48.5,66.7,38,44.2,35.2C46.9,58.4,57.3,80,73.6,96.6L186,211.4l-22.9,23l-112.6-115
		C27.4,96,13.5,64.9,11.2,31.8L9.1,0l31.6,2.2c32.6,2.3,63.3,16.5,86.3,40L240,157.5l-23,23L103.9,64.9z"/>
	<path d="M407.8,314.6c13.5-13.7,35.3-13.6,48.7,0.2l-42.4,43.2l-13.6,13.8l76,77.4c9.3-1.3,19.1,1.5,26.3,8.9
		c12.2,12.4,12.2,32.4,0,44.8c-12.2,12.4-31.9,12.4-44,0c-7.2-7.3-10-17.3-8.7-26.8l-76-77.4l-13.5,13.8l-43.3,44l-0.8-0.9
		c-12.8-13.7-12.5-35.3,0.7-48.7L407.8,314.6z"/>
	<path d="M471.3,2.2c-32.6,2.3-63.3,16.5-86.3,40L128,304.5l77,77l256.6-262.1c23-23.4,36.9-54.5,39.2-87.6L502.9,0L471.3,2.2z
		 M438.4,96.6L204.8,335.3l-31-31L408.1,64.9c16.2-16.4,37.2-26.9,59.7-29.8C465.1,58.4,454.7,80,438.4,96.6z"/>
	<path d="M104.3,314.6c-13.5-13.7-35.3-13.6-48.7,0.2L98,357.9l13.5,13.8l-76,77.4c-9.3-1.3-19.1,1.5-26.3,8.9
		C-3,470.3-3,490.3,9.2,502.7c12.2,12.4,31.9,12.4,44,0c7.2-7.3,10-17.3,8.7-26.8l76-77.4l13.5,13.8l43.2,44l0.8-0.9
		c12.8-13.7,12.5-35.3-0.7-48.7L104.3,314.6z"/>
</g>
</svg>
