<?xml version="1.0" encoding="utf-8"?>
<!-- Generator: Adobe Illustrator 21.1.0, SVG Export Plug-In . SVG Version: 6.00 Build 0)  -->
<svg version="1.1" id="Layer_1" xmlns="http://www.w3.org/2000/svg" xmlns:xlink="http://www.w3.org/1999/xlink" x="0px" y="0px"
	 viewBox="0 0 377.7 512" style="enable-background:new 0 0 377.7 512;" xml:space="preserve">
<path d="M338.9,0H38.8C17.4,0,0,17.4,0,38.8v434.5C0,494.6,17.4,512,38.8,512h300.2c21.4,0,38.8-17.4,38.8-38.8V38.8
	C377.7,17.4,360.3,0,338.9,0z M188.9,502.5c-13.5,0-24.5-11-24.5-24.5s11-24.5,24.5-24.5c13.6,0,24.5,11,24.5,24.5
	S202.4,502.5,188.9,502.5z M345.7,430.2c0,7.2-5.8,13-13,13H45c-7.2,0-13-5.8-13-13V45c0-7.2,5.8-13,13-13h287.7c7.2,0,13,5.8,13,13
	V430.2z"/>
</svg>
