<?xml version="1.0" encoding="utf-8"?>
<!-- Generator: Adobe Illustrator 22.0.1, SVG Export Plug-In . SVG Version: 6.00 Build 0)  -->
<svg version="1.1" id="Layer_3" xmlns="http://www.w3.org/2000/svg" xmlns:xlink="http://www.w3.org/1999/xlink" x="0px" y="0px"
	 viewBox="0 0 530.7 512" style="enable-background:new 0 0 530.7 512;" xml:space="preserve">
<style type="text/css">
	.st0{fill:#010101;}
</style>
<g>
	<path class="st0" d="M458.7,52.9C425.1,19.3,374.1,0,318.7,0c-55,0-105.9,19.3-139.5,52.9C140.4,91.7,75.9,163.1,54,191.5
		c-16.6,21.5-14.6,52.2,4.6,71.4l43.4,43.4c2.9,2.9,2.9,7.7,0,10.6l-1.2,1.2c-3.9,3.9-3.9,10.2,0,14.1l0,0l-83.9,83.9
		c-21.7,21.7-22.4,57.2-0.7,79c10.9,10.9,25.1,16.4,39.4,16.4c14.2,0,28.4-5.4,39.3-16.3l84.5-84.5l0,0c3.9,3.9,10.2,3.9,14.1,0
		l1.2-1.2c1.4-1.4,3.4-2.1,5.3-2.1c2,0,3.9,0.7,5.3,2.1l43,43c9.9,9.9,23.3,16,37.3,16.3c0.5,0,1,0,1.5,0c12.1,0,23.5-3.9,33-11.3
		c28.4-21.9,99.8-86.5,138.6-125.3C534.5,256.6,534.5,128.6,458.7,52.9z M300.6,432.4c-4,3.1-8.5,4.6-13.5,4.6c-0.1,0-0.2,0-0.3,0
		c-5.7-0.1-11.6-2.7-16-7.1l-50-50c-7.4-7.4-17.3-11.5-27.9-11.5c-10.6,0-20.5,4.1-27.9,11.5l-92.8,92.8c-4.5,4.5-10.4,6.9-16.7,6.9
		c-6.3,0-12.2-2.5-16.7-6.9c-9.2-9.2-9.2-24.2,0-33.4l92.8-92.8c15.3-15.4,15.3-40.4,0-55.8l-50.5-50.5c-7.9-7.9-8.7-20.5-1.9-29.3
		c6.6-8.5,17.3-21.2,30.2-35.9l227.1,227.1C321.9,415.1,309.1,425.8,300.6,432.4z M436.1,309.8c-19.7,19.7-48.7,46.8-75.7,71.2
		L130.6,151.2c24.3-27,51.5-56,71.2-75.7c27.7-27.7,70.3-43.5,116.9-43.5c47,0,89.8,15.9,117.4,43.5c15.4,15.4,27.3,33.6,35.5,54.2
		c7.9,20,11.9,41.1,11.9,63c0,21.8-4,43-11.9,63C463.5,276.2,451.5,294.4,436.1,309.8z"/>
	<path class="st0" d="M473.2,502c-32.3,0-58.5-26.3-58.5-58.5s26.3-58.5,58.5-58.5s58.5,26.3,58.5,58.5S505.4,502,473.2,502z
		 M473.2,406.2c-20.5,0-37.2,16.7-37.2,37.2c0,20.5,16.7,37.2,37.2,37.2s37.2-16.7,37.2-37.2C510.4,422.9,493.7,406.2,473.2,406.2z"
		/>
</g>
</svg>
