<?xml version="1.0" encoding="utf-8"?>
<!-- Generator: Adobe Illustrator 21.1.0, SVG Export Plug-In . SVG Version: 6.00 Build 0)  -->
<svg version="1.1" id="Layer_3" xmlns="http://www.w3.org/2000/svg" xmlns:xlink="http://www.w3.org/1999/xlink" x="0px" y="0px"
	 viewBox="0 0 512 512" style="enable-background:new 0 0 512 512;" xml:space="preserve">
<path d="M494.4,31.4H17.6C7.9,31.4,0,39.3,0,49v413.7c0,9.7,7.9,17.6,17.6,17.6h476.9c9.7,0,17.6-7.9,17.6-17.6V49
	C512,39.3,504.1,31.4,494.4,31.4z M272,117.5h208V212H272V117.5z M272,244h208v78.2H272V244z M240,448.3H32v-94.1h208V448.3z
	 M240,322.2H32V244h208V322.2z M240,212H32v-94.5h208V212z M480,448.3H272v-94.1h208V448.3z"/>
</svg>
