<?xml version="1.0" encoding="utf-8"?>
<!-- Generator: Adobe Illustrator 22.0.1, SVG Export Plug-In . SVG Version: 6.00 Build 0)  -->
<svg version="1.1" id="Layer_2_1_" xmlns="http://www.w3.org/2000/svg" xmlns:xlink="http://www.w3.org/1999/xlink" x="0px" y="0px"
	 viewBox="0 0 571.3 512" style="enable-background:new 0 0 571.3 512;" xml:space="preserve">
<g>
	<path d="M285.6,57.4c34.5,0,68.1,6.6,99.6,19.6c30.5,12.6,57.8,30.7,81.4,53.6c23.5,22.9,42,49.7,54.9,79.5
		c13.4,30.8,20.1,63.6,20.1,97.3c0,30.1-5.4,59.6-16.1,87.6c-8.7,22.9-20.9,44.3-36.1,63.8c-9.6,11.3-23.6,28.9-23.6,28.9h37.7
		c42.3-48.6,67.7-111.5,67.7-180.2c0-154-127.8-278.8-285.4-278.8l0,0C127.9,28.6,0.1,153.5,0.1,307.4c0,68.8,25.5,131.7,67.7,180.3
		h36c0,0-9.9-12.6-21.9-28.8c-15.2-19.5-27.3-40.9-36.2-63.8C35,367,29.6,337.6,29.6,307.4c0-33.7,6.7-66.5,20.1-97.3
		c12.9-29.8,31.4-56.5,54.9-79.5c23.5-22.9,50.9-41,81.4-53.6c31.6-13,66-19.6,100.6-19.6"/>
	<path d="M344.2,226.8c-5-2.1-52.3,84.6-58,84.6c-23,0-41.7,18.8-41.7,41.9c0,23.1,18.7,41.9,41.7,41.9s41.7-18.8,41.7-41.9
		c0-12.1-5.2-23-13.3-30.7C311,319.2,348.8,228.6,344.2,226.8z"/>
	<path d="M93.3,222.8c-9.7,20-16.5,41.7-19.8,64.8c-1.7,11.9-2.4,23.7-2.2,35.3c0.4-5,0.8-10.2,1.6-15.3c4.2-29.4,14.9-56,30.6-79
		L93.3,222.8z"/>
	<path d="M135.7,163.4c-11.8,11.8-22.4,24.8-31.2,39l13.4,7.8c9.9-11.1,20.9-20.8,33-29.1L135.7,163.4z"/>
	<path d="M201.2,118.9c-17.4,7.5-33.6,17.4-48.3,29.2l17.9,21c13.4-7,27.8-12.3,42.7-15.9L201.2,118.9z"/>
	<path d="M222.9,110.7l13.7,38.6c12.2-1.3,24.9-1.3,37.7,0.1v-48.3C256.6,102.3,239.5,105.4,222.9,110.7z"/>
	<path d="M318.1,103c-7.1-1-14-1.7-20.9-2v52.2c14,3.3,27.3,8.2,39.9,14.3l22.5-54.2C346.4,108.6,332.5,105.1,318.1,103z"/>
	<path d="M380.9,122.2l-23.7,57.2c10.6,7.1,20.4,15.2,29.2,24.3l46-46.4C417.3,143.1,399.9,131.4,380.9,122.2z"/>
	<path d="M448.7,173.6l-47.1,47.5c7,9.3,13.3,19.2,18.4,29.6l62.1-26.8C473.2,205.7,462,188.7,448.7,173.6z"/>
	<path d="M490.9,245.4l-62,26.8c5.2,14.8,8.7,30.5,9.9,46.5h64.6C503.5,293.1,499.2,268.4,490.9,245.4z"/>
	<path d="M490.9,245.4l-62,26.8c5.2,14.8,8.7,30.5,9.9,46.5h64.6C503.5,293.1,499.2,268.4,490.9,245.4z M448.7,173.6l-47.1,47.5
		c7,9.3,13.3,19.2,18.4,29.6l62.1-26.8C473.2,205.7,462,188.7,448.7,173.6z M380.9,122.2l-23.7,57.2c10.6,7.1,20.4,15.2,29.2,24.3
		l46-46.4C417.3,143.1,399.9,131.4,380.9,122.2z M359.5,113.3c-13.1-4.7-27.1-8.2-41.4-10.3c-7.1-1-14-1.7-20.9-2v52.2
		c14,3.3,27.3,8.2,39.9,14.3L359.5,113.3z M344.2,226.8c-5-2.1-52.3,84.6-58,84.6c-23,0-41.7,18.8-41.7,41.9
		c0,23.1,18.7,41.9,41.7,41.9s41.7-18.8,41.7-41.9c0-12.1-5.2-23-13.3-30.7C311,319.2,348.8,228.6,344.2,226.8z M274.3,149.4v-48.3
		c-17.8,1.1-34.9,4.3-51.4,9.5l13.7,38.6C248.8,148.1,261.6,148.1,274.3,149.4z M152.9,148.2l17.9,21c13.4-7,27.8-12.3,42.7-15.9
		l-12.2-34.3C183.9,126.4,167.6,136.3,152.9,148.2z M104.5,202.6l13.4,7.8c9.9-11.1,20.9-20.8,33-29.1l-15.1-17.7
		C123.9,175.2,113.3,188.4,104.5,202.6z M73.5,287.7c-1.7,11.9-2.4,23.7-2.2,35.3c0.4-5,0.8-10.2,1.6-15.3c4.2-29.4,14.9-56,30.6-79
		l-10.2-5.8C83.6,242.8,76.7,264.6,73.5,287.7z"/>
</g>
</svg>
