<?xml version="1.0" encoding="utf-8"?>
<!-- Generator: Adobe Illustrator 22.0.1, SVG Export Plug-In . SVG Version: 6.00 Build 0)  -->
<svg version="1.1" id="Layer_1" xmlns="http://www.w3.org/2000/svg" xmlns:xlink="http://www.w3.org/1999/xlink" x="0px" y="0px"
	 viewBox="0 0 512 512" style="enable-background:new 0 0 512 512;" xml:space="preserve">
<g id="_x33_2">
	<path d="M46.8,290.3c13.4-13.2,145.5-143.6,185.5-183.1c7.8-7.6,20.6-10.4,31.2-12.5c-20.5-1.4-54.4-1.3-68.2,12.2L9.8,290.2
		c-13,12.9-13,34.9-0.3,47.9l158,159.3c11.5,11.5,28.9,13.2,42,5C208.6,501.4,49,340.9,46.4,338.2C23.7,315.2,33.3,303.5,46.8,290.3
		z"/>
	<path d="M471.7,129c21.8-23.5,38-51.9,39.9-77.4c2.5-33.9-5.8-50.3-21-51.6c-18.9-0.9-32,17.8-39.3,28.5
		c-8.6,12.7-17.6,43.1-19.6,67.6c-1.7,17.5-4.1,29.6-12.6,42.7c-7,11.6-15.7,20.1-28.1,29.9c-4.4,3.4,2.8,12.1,10.7,7.7
		c12.8-7.3,24.5-13.9,35.3-20.5c1.3,2.3,2.5,5.1,3.4,7.8c4.1,16.3,0.9,37-13.5,51.2c-18.6,18.4-49.4,18.6-68.3-0.4
		c-18.9-19-18.6-49.6,0.3-68.2c16.3-16.1,34.3-17.1,51.4-12.8c1.7,0.5,3.8,1.3,3.8,1.3s2.5-2.5,5-7.9c2.2-4.6,4.2-11.9,4.2-11.9
		s-3-1.9-3.8-2.3c-17.2-8.2-135.7-31.5-163.5-4.1L69.2,292.1c-13.3,13.2-13.3,36-0.2,49.3l161.1,160.2c13.6,13.8,35.6,13.9,49.3,0.3
		l185.1-185.3c27.6-27.3,4.5-144.8-3.3-161.9c-1.6-4.3-3.7-8.1-5.8-11.4C461.4,138.9,466.8,134.2,471.7,129z M430.5,147.3
		c-21.4,16-21.2,14.8-21.2,14.8s12.1-7.6,19.6-18.6l2.7,3C431.2,146.8,430.8,147.1,430.5,147.3z M442.5,294.2l-186,184.6
		c-1.2,1.1-3,1.1-4.2,0L93.5,318c-1.1-1.2-1.1-3,0-4.2l185.2-183.6c18.7-6,55.4-3.4,55.4-3.4c-23.2,25.9-30.1,74.1,3.2,107.5
		c41.1,41.1,90.8,20.1,108.1,5.2C445.5,239.6,449.9,276.3,442.5,294.2z M462.4,121.3c-4.7,4.6-9.3,8.7-14.4,12.7
		c-2.1-2.2-3.8-3.8-4.5-4.3l0,0c-1.2-1.1-3.5-3.4-5.6-5.4c2.9-9.6,4.4-20.2,5.2-30.9c2.4-22.7,10.7-45.7,19.9-60
		c9.9-15.1,22.8-25.1,29-19.8C506.9,26.1,509.1,77.9,462.4,121.3z"/>
</g>
</svg>
