<?xml version="1.0" encoding="utf-8"?>
<!-- Generator: Adobe Illustrator 21.1.0, SVG Export Plug-In . SVG Version: 6.00 Build 0)  -->
<svg version="1.1" id="Layer_1" focusable="false" xmlns="http://www.w3.org/2000/svg" xmlns:xlink="http://www.w3.org/1999/xlink"
	 x="0px" y="0px" viewBox="0 0 640 512" style="enable-background:new 0 0 640 512;" xml:space="preserve">
<path id="_x33_2" d="M639.2,146.9c-2.8-8.4-11.9-12.9-20.3-10.1l-92,30.8V48c0-8.8-7.2-16-16-16s-16,7.2-16,16v130.3l-96,32.1V48
	c0-8.8-7.2-16-16-16s-16,7.2-16,16v173.1l-96,32.1V48c0-8.8-7.2-16-16-16s-16,7.2-16,16v216l-95.9,32.1V48c0-8.8-7.2-16-16-16
	s-16,7.2-16,16v258.8L10.9,340.3C2.5,343.1-2,352.2,0.8,360.6v0c2.8,8.4,11.9,12.9,20.3,10.1l90-30.1V464c0,8.8,7.2,16,16,16
	s16-7.2,16-16V329.8l95.9-32.1V464c0,8.8,7.2,16,16,16s16-7.2,16-16V287l96-32.1V464c0,8.8,7.2,16,16,16s16-7.2,16-16V244.2l96-32.1
	v252c0,8.8,7.2,16,16,16s16-7.2,16-16V201.3l102.2-34.2C637.5,164.3,642,155.2,639.2,146.9z"/>
</svg>
