<?xml version="1.0" encoding="utf-8"?>
<!-- Generator: Adobe Illustrator 21.1.0, SVG Export Plug-In . SVG Version: 6.00 Build 0)  -->
<svg version="1.1" id="Layer_4" xmlns="http://www.w3.org/2000/svg" xmlns:xlink="http://www.w3.org/1999/xlink" x="0px" y="0px"
	 viewBox="0 0 512 512" style="enable-background:new 0 0 512 512;" xml:space="preserve">
<path id="_x33_2" d="M70.5,460H29.7v-40.8h40.8V460z M133.6,231.8L44,317.3c-0.6,0.6-1.3,1.1-2.2,1.5c-4.5,2-10-0.1-12.2-4.6l-28-38
	c-6.4-12.2,7.2-21.8,16.5-12.7L39.8,293l79.3-76C128.3,207.9,143.3,220.2,133.6,231.8z M133.6,60.8L44,146.3
	c-0.6,0.6-1.3,1.1-2.2,1.5c-4.5,2-10-0.1-12.2-4.6l-28-38C-4.8,93,8.9,83.4,18.1,92.5L39.8,122l79.3-76
	C128.3,36.9,143.3,49.2,133.6,60.8z M512,456H194.1v-32H512V456z M512,285.4H194.1v-32H512V285.4z M512,114.9H194.1v-32H512V114.9z"
	/>
</svg>
