<?xml version="1.0" encoding="utf-8"?>
<!-- Generator: Adobe Illustrator 21.1.0, SVG Export Plug-In . SVG Version: 6.00 Build 0)  -->
<svg version="1.1" id="Layer_5" xmlns="http://www.w3.org/2000/svg" xmlns:xlink="http://www.w3.org/1999/xlink" x="0px" y="0px"
	 viewBox="0 0 513.8 512" style="enable-background:new 0 0 513.8 512;" xml:space="preserve">
<g id="_x33_2">
	<path d="M483.6,0.5H187L186.8,512h296.9c15.8,0,28.6-12.8,28.6-28.6V29.2C512.3,13.4,499.5,0.5,483.6,0.5z M480.3,480H218.9
		l0.1-287.5h9.7h251.7V480z M481,160.5H228.6V32.4H481V160.5z"/>
	<path d="M142.1,32v87.3l-5.8,1.3c-10.6,2.4-18.1,11.8-18.1,22.7v225.3c0,10.9,7.6,20.4,18.3,22.7l5.5,1.2v87.2H33.5v-87.4l4.7-1.6
		c9.4-3.2,15.7-12.1,15.7-22V143c0-9.9-6.3-18.8-15.7-22l-4.7-1.6V32H142.1 M143.6,0H31.9C15.1,0,1.5,13.6,1.5,30.4v90.1
		c0,13.3,8.5,24.6,20.4,28.7v213.4C9.9,366.7,1.5,378,1.5,391.3v90.1c0,16.8,13.6,30.4,30.4,30.4h111.7c16.8,0,30.4-13.6,30.4-30.4
		v-90.1c0-14.5-10.2-26.7-23.8-29.7V150.3c13.7-3.1,23.9-15.2,23.9-29.7V30.4C174.1,13.6,160.4,0,143.6,0L143.6,0z"/>
	<g>
		<path d="M463.7,80.9c-1.6-2.7-4-4.1-7.2-4.1s-5.8,1.4-7.7,4.1c-1.6,2.7-2.4,6.2-2.4,10.6c0,4.3,0.8,7.7,2.4,10.2
			c1.9,2.7,4.3,4.1,7.2,4.1c3.2,0,5.8-1.2,7.6-3.7c1.7-2.7,2.5-6.4,2.5-11C466,87,465.3,83.6,463.7,80.9z M459.5,99.2
			c-0.8,1.6-1.9,2.4-3.2,2.4c-1.6,0-2.8-0.8-3.6-2.4c-0.8-1.9-1.2-4.4-1.2-7.7s0.4-5.9,1.2-7.8c0.8-1.9,2-2.9,3.6-2.9
			c1.3,0,2.4,1,3.2,2.9c0.8,1.6,1.2,4.2,1.2,7.8C460.8,94.7,460.3,97.3,459.5,99.2z M441,80.5c-1.9-2.4-4.4-3.7-7.6-3.7
			c-2.7,0-5.1,1.1-7.2,3.3c-1.6,1.9-2.4,4.2-2.4,6.9c0,2.4,0.8,4.5,2.4,6.1c1.4,1.6,3.2,2.5,5.6,2.5c2.7,0,4.7-0.8,6-2.5h0.4
			c-0.5,2.7-1.7,4.8-3.6,6.1c-1.6,1.4-3.5,2.2-5.6,2.4h-2.8v4.2h2.7c4-0.6,7.2-1.9,9.7-4.1c3.2-3,4.8-7.2,4.8-12.6
			C443.5,85.6,442.7,82.7,441,80.5z M437.8,89.5c-0.6,0.5-1.1,1.1-1.6,1.6c-0.8,0.5-1.8,0.8-2.8,0.8c-1.4,0-2.6-0.5-3.6-1.6
			c-0.8-0.8-1.2-2.1-1.2-3.7c0-1.6,0.5-3,1.6-4.1c0.8-1.1,1.9-1.6,3.2-1.6c1.6,0,2.8,0.7,3.6,2.1c0.8,1.3,1.2,3,1.2,4.9
			C438.3,88.7,438.2,89.3,437.8,89.5z M419.3,93.1c-1.1-1.1-2.4-1.9-4-2.4v-0.4c1.6-0.5,2.7-1.5,3.2-2.9c0.8-1.1,1.2-2.2,1.2-3.2
			c0-1.9-0.7-3.5-2-4.9c-1.6-1.6-3.9-2.4-6.8-2.4c-2.7,0-4.8,0.8-6.5,2.4c-1.9,1.4-2.8,3.1-2.8,5.3c0,1.4,0.4,2.6,1.2,3.7
			c0.8,1.1,1.9,1.9,3.2,2.4v0.4c-3.4,1.4-5.1,3.7-5.1,6.9c0,2.2,0.8,4,2.4,5.3c1.9,1.6,4.3,2.5,7.2,2.5c2.9,0,5.4-0.7,7.2-2.1
			c1.9-1.6,2.8-3.7,2.8-6.1C420.5,96,420,94.5,419.3,93.1z M407.7,81.6c0.8-0.8,1.9-1.2,3.2-1.2c1.3,0,2.3,0.4,2.8,1.2
			c0.5,0.8,0.8,1.8,0.8,2.9s-0.3,2.1-0.8,2.9c-0.8,0.8-1.6,1.2-2.4,1.2c-1.1,0-2-0.4-2.8-1.2c-1-0.8-1.6-1.7-1.6-2.9
			C406.8,83.4,407.2,82.5,407.7,81.6z M414.2,100.9c-0.8,0.8-1.9,1.2-3.2,1.2c-1.4,0-2.6-0.4-3.6-1.2c-0.8-1.1-1.2-2.2-1.2-3.3
			c0-1.1,0.5-2.2,1.6-3.2c0.8-1.1,1.6-1.6,2.4-1.6c1.4,0,2.6,0.5,3.6,1.6c1,1,1.6,2.3,1.6,3.6C415.3,99.1,415,100.1,414.2,100.9z
			 M379.2,77.7v4H392v0.4c-4.5,9.2-8.5,17-11.7,23.3h5.6c1.1-2.2,2-4.3,2.8-6.5c0.8-1.3,1.7-3.2,2.8-5.7l0.8-1.2l0.4-1.6
			c0.5-1.1,1.1-2,1.6-2.9c1.1-2.2,2.1-4.3,3.2-6.5v-3.3H379.2z M373.2,89c-1.6-1.6-3.6-2.4-6-2.4c-2.7,0-4.8,1-6.4,2.9
			c0.5-2.2,1.5-3.9,2.8-5.3c1.6-1.6,3.7-2.6,6.4-2.9h2.7v-4.1c-0.8-0.3-1.8-0.3-2.8,0c-4,0.3-7.2,1.6-9.6,4.1
			c-1.6,1.4-2.8,3.1-3.6,5.3c-0.8,2.2-1.2,4.6-1.2,7.3c0,3.5,0.9,6.4,2.8,8.6s4.4,3.3,7.7,3.3c2.7,0,5-1,6.8-2.9
			c1.9-1.9,2.8-4.2,2.8-7C375.5,93.2,374.8,90.9,373.2,89z M369,100.5c-0.8,1.1-1.9,1.6-3.2,1.6c-1.6,0-3-0.7-4-2
			c-0.8-1.4-1.2-3-1.2-4.9c0-0.5,0.1-1.1,0.4-1.6c0.3-0.8,0.8-1.5,1.6-2c0.8-0.6,1.7-0.8,2.8-0.8c1.3,0,2.5,0.6,3.6,1.6
			c0.8,0.7,1.2,2.1,1.2,4C370.3,98,369.8,99.4,369,100.5z M350.5,91.9c-0.8-1.1-1.8-2-2.8-2.9c-1.6-1.1-3.8-1.6-6.5-1.6h-2
			c0-0.8,0.1-1.8,0.4-2.9v-1.2c0.3-0.5,0.4-1.1,0.4-1.6h10.6v-4.1h-14.1c-0.3,1.9-0.7,4.2-1.2,6.9c0,1.4-0.1,2.5-0.4,3.3
			c0,1.4-0.2,2.6-0.4,3.7h4c2.4,0,4.3,0.4,5.6,1.2s2,2,2,3.7c0,1.6-0.7,3-2,4.1c-1.1,0.8-2.4,1.2-4,1.2c-1.1,0-2.3-0.1-3.6-0.4
			c-0.8-0.3-1.6-0.7-2.4-1.2c0,0.5-0.1,0.9-0.4,1.2v0.8c-0.3,0.8-0.4,1.5-0.4,2.1c1.9,1.1,4.3,1.6,7.2,1.6c3.2,0,5.9-1,8-2.9
			c1.9-1.6,2.8-3.8,2.8-6.5C351.3,94.8,351,93.3,350.5,91.9z M326.8,94.4V77.6h-6c-1.1,1.4-2.1,2.9-3.2,4.5
			c-0.5,1.1-1.4,2.4-2.4,4.1c-0.6,0.8-0.9,1.5-1.2,2.1c-0.6,0.5-1.1,1.2-1.6,2c-1.1,1.6-2,3.2-2.8,4.5v3.7h12.5v6.9h4.7v-6.9h3.6
			v-4.1H326.8z M322,94.4h-7.6c0.6-0.8,1.1-1.5,1.6-2.1v-0.4l0.4-0.8l0.4-0.8c1.1-1.3,2-2.6,2.8-3.7c0.8-1.4,1.6-3,2.4-4.9V94.4z
			 M304.2,92.7c-1.1-1.1-2.6-1.9-4.4-2.5c1.6-0.5,2.9-1.3,4-2.4c0.8-1.1,1.2-2.4,1.2-4.1c0-1.9-0.8-3.5-2.4-4.9
			c-1.3-1.3-3.5-2-6.5-2c-1.3,0-2.8,0.3-4.4,0.8c-1.3,0.3-2.4,0.8-3.2,1.6c0,0.6,0.1,1.1,0.4,1.6c0.3,0.8,0.6,1.5,0.8,2.1
			c0.5-0.6,1.3-1,2.4-1.2c1.1-0.3,2.1-0.4,3.2-0.4c1.3,0,2.4,0.3,3.2,0.8c0.8,0.8,1.2,1.6,1.2,2.4c0,1.4-0.7,2.5-2,3.3
			c-1.1,0.6-2.3,0.8-3.6,0.8h-2.4v3.7h2.4c1.9,0,3.3,0.4,4.4,1.2c1.3,0.8,2,2,2,3.7c0,1.1-0.4,2-1.2,2.9c-1.1,1.1-2.6,1.6-4.4,1.6
			c-1.1,0-2.3-0.3-3.6-0.8c-1.1-0.3-1.6-0.4-1.6-0.4s-0.3-0.2-1.1-0.4v0.8c-0.3,0.3-0.4,0.7-0.4,1.2c-0.3,0.8-0.5,1.4-0.8,1.6
			c2.1,1.4,4.8,2.1,8,2.1c3.2,0,5.8-0.8,7.6-2.5c1.9-1.6,2.8-3.7,2.8-6.1C305.8,95.6,305.3,94.1,304.2,92.7z M272.5,100.9
			c0-0.3,0.1-0.4,0.4-0.4l0.4-0.4h0.4c0-0.3,0.2-0.6,0.4-0.8c0.3,0,0.5-0.1,0.8-0.4c2.7-2.7,4.6-4.9,5.6-6.5
			c1.6-2.4,2.4-4.8,2.4-6.9c0-2.4-0.7-4.3-2-5.7c-1.9-1.9-4.2-2.9-6.8-2.9c-3.5,0-6.3,1-8.4,2.9c0,0.8,0.1,1.5,0.4,2l0.4,0.4v0.4
			c0.3,0.3,0.4,0.7,0.4,1.2c1.1-0.8,2-1.4,2.8-1.6c1.1-0.5,2.1-0.8,3.2-0.8c1.6,0,2.8,0.4,3.6,1.2c0.8,0.8,1.2,1.9,1.2,3.3
			c0,1.9-0.8,3.8-2.4,5.7c-1.1,1.6-3.5,4.2-7.2,7.7l-3.2,2.9v3.3h18.9v-4.6H272.5z M251.2,77.6c-0.5,0.3-1.2,0.6-2,0.8
			c-0.3,0-0.6,0.1-0.8,0.4l-0.8,0.4c-1.1,0.6-2.1,1.1-3.2,1.6c0,0.3,0.2,0.5,0.4,0.8v1.2c0.3,0.8,0.4,1.5,0.4,2
			c0.5-0.3,1.1-0.5,1.6-0.8l0.4-0.4l0.8-0.4c0.5-0.3,0.9-0.4,1.2-0.4c0.3-0.3,0.6-0.6,1.2-0.8v23.4h5.2V77.6H251.2z"/>
	</g>
	<g>
		<path d="M242.2,207.7v42.9h56v-42.9H242.2z M274.5,242.3h-4.3v-20.6c-0.4,0.2-1,0.4-1.4,0.7l-0.4,0.4l-0.7,0.4h-0.4
			c-0.3,0.3-0.4,0.4-0.7,0.4c-0.3,0.3-0.6,0.4-1.1,0.7c0-0.4-0.1-0.8-0.4-1.1v-0.7c-0.3-0.8-0.4-1.4-0.4-1.9
			c2.4-1.2,4.4-2.2,6.1-2.9h3.6V242.3z M270.9,296.5c-0.7,1-1.4,2.1-2.1,3.3l-0.7,0.7c0,0.4-0.1,0.8-0.4,1.1
			c-0.4,0.5-0.8,1.2-1.1,1.9h6.4v-11.3C272.3,293.8,271.6,295.3,270.9,296.5z M270.9,296.5c-0.7,1-1.4,2.1-2.1,3.3l-0.7,0.7
			c0,0.4-0.1,0.8-0.4,1.1c-0.4,0.5-0.8,1.2-1.1,1.9h6.4v-11.3C272.3,293.8,271.6,295.3,270.9,296.5z M270.9,296.5
			c-0.7,1-1.4,2.1-2.1,3.3l-0.7,0.7c0,0.4-0.1,0.8-0.4,1.1c-0.4,0.5-0.8,1.2-1.1,1.9h6.4v-11.3C272.3,293.8,271.6,295.3,270.9,296.5
			z M270.9,296.5c-0.7,1-1.4,2.1-2.1,3.3l-0.7,0.7c0,0.4-0.1,0.8-0.4,1.1c-0.4,0.5-0.8,1.2-1.1,1.9h6.4v-11.3
			C272.3,293.8,271.6,295.3,270.9,296.5z M270.9,296.5c-0.7,1-1.4,2.1-2.1,3.3l-0.7,0.7c0,0.4-0.1,0.8-0.4,1.1
			c-0.4,0.5-0.8,1.2-1.1,1.9h6.4v-11.3C272.3,293.8,271.6,295.3,270.9,296.5z M270.9,296.5c-0.7,1-1.4,2.1-2.1,3.3l-0.7,0.7
			c0,0.4-0.1,0.8-0.4,1.1c-0.4,0.5-0.8,1.2-1.1,1.9h6.4v-11.3C272.3,293.8,271.6,295.3,270.9,296.5z M242.2,279.1V322h56v-42.9
			H242.2z M280.6,307.1h-3.2v6.2h-4.2v-6.2h-11.2v-3.3c1-1.2,1.9-2.6,2.9-4c0.3-0.5,0.6-1.2,1.1-1.9l0.4-1.1l0.7-0.7
			c1.9-2.9,3.6-5.5,5-7.7h5.4v14.9h3.2V307.1z M268.7,299.8l-0.7,0.7c0,0.4-0.1,0.8-0.4,1.1c-0.4,0.5-0.8,1.2-1.1,1.9h6.4v-11.3
			c-0.7,1.7-1.4,3.2-2.1,4.4C270.2,297.5,269.5,298.5,268.7,299.8z M270.9,296.5c-0.7,1-1.4,2.1-2.1,3.3l-0.7,0.7
			c0,0.4-0.1,0.8-0.4,1.1c-0.4,0.5-0.8,1.2-1.1,1.9h6.4v-11.3C272.3,293.8,271.6,295.3,270.9,296.5z M270.9,296.5
			c-0.7,1-1.4,2.1-2.1,3.3l-0.7,0.7c0,0.4-0.1,0.8-0.4,1.1c-0.4,0.5-0.8,1.2-1.1,1.9h6.4v-11.3C272.3,293.8,271.6,295.3,270.9,296.5
			z M270.9,296.5c-0.7,1-1.4,2.1-2.1,3.3l-0.7,0.7c0,0.4-0.1,0.8-0.4,1.1c-0.4,0.5-0.8,1.2-1.1,1.9h6.4v-11.3
			C272.3,293.8,271.6,295.3,270.9,296.5z M270.9,296.5c-0.7,1-1.4,2.1-2.1,3.3l-0.7,0.7c0,0.4-0.1,0.8-0.4,1.1
			c-0.4,0.5-0.8,1.2-1.1,1.9h6.4v-11.3C272.3,293.8,271.6,295.3,270.9,296.5z M270.9,296.5c-0.7,1-1.4,2.1-2.1,3.3l-0.7,0.7
			c0,0.4-0.1,0.8-0.4,1.1c-0.4,0.5-0.8,1.2-1.1,1.9h6.4v-11.3C272.3,293.8,271.6,295.3,270.9,296.5z M270.9,296.5
			c-0.7,1-1.4,2.1-2.1,3.3l-0.7,0.7c0,0.4-0.1,0.8-0.4,1.1c-0.4,0.5-0.8,1.2-1.1,1.9h6.4v-11.3C272.3,293.8,271.6,295.3,270.9,296.5
			z M242.2,350.4v42.9h56v-42.9H242.2z M279.9,362.4c-5,10.2-8.5,17.4-10.3,21.8h-5c1.6-3.7,3.3-7.1,5-10.5c0.4-1,1.2-2.5,2.5-4.7
			c0.4-1.2,1-2.1,1.4-2.9c0.4-1,1-2,1.4-2.9h-11.5v-4h16.5V362.4z M242.2,421.8v42.9h56v-42.9H242.2z M280.7,445.1
			c-1.2-0.3-2.9-0.4-4.7-0.7l-0.7-0.4h-1.1c-1-0.3-1.8-0.4-2.5-0.4c0.4,0.7,0.9,1.4,1.4,2.1c0.3,0,0.4,0.3,0.7,0.7l0.7,0.7
			c1,1.2,1.9,2.4,2.9,3.7c-0.4,0.2-1.2,0.6-2.1,1.1l-0.4,0.4c-0.3,0-0.4,0.1-0.7,0.4c-0.3,0.3-0.6,0.4-1.1,0.7
			c-0.4-1.4-1.1-2.9-1.8-4.4l-0.4-1.1v-0.4l-0.4-0.4c0-0.4-0.1-0.8-0.4-1.1c-0.3-0.4-0.4-1-0.4-1.4h-0.4c-0.3,0.8-0.4,1.6-0.7,2.6
			l-0.4,0.4v0.4l-0.4,1.1c-0.7,1.4-1.3,2.9-1.8,4.4c-0.4-0.2-0.8-0.4-1.1-0.7c-0.3-0.3-0.6-0.4-1.1-0.7c-0.7-0.4-1.4-0.8-2.1-1.1
			c0.7-0.7,1.3-1.4,1.8-2.1l0.7-0.7l0.4-0.7l0.7-0.7c0.3-0.3,0.4-0.5,0.7-1.1c0.4-0.4,1-1.1,1.4-1.8c-0.7,0-1.4,0.1-2.1,0.4h-1.1
			l-1.1,0.4c-1.4,0.3-2.9,0.4-4.3,0.7v-5.1c1.2,0.3,2.6,0.4,4.3,0.7l1.1,0.4h1.1c0.7,0.3,1.4,0.4,2.1,0.4c-0.4-0.7-1-1.3-1.4-1.8
			c-0.3-0.3-0.4-0.6-0.7-1.1l-0.7-0.7c-1-1.5-1.9-2.7-2.9-3.7c0.4-0.3,1-0.4,1.4-0.7l0.4-0.4h0.4c1-0.4,1.7-1,2.1-1.4
			c0.4,0.7,0.8,1.4,1.1,2.1c0.2,0.5,0.4,1.2,0.7,2.2c0.7,1.7,1.3,3,1.8,4c0.3-0.4,0.6-1.2,1.1-2.1v-0.4l0.7-1.4
			c0.4-1.4,0.9-2.9,1.4-4.4c0.7,0.4,1.4,1,2.1,1.4h0.7c0,0.3,0.1,0.4,0.4,0.4c0.4,0.3,0.8,0.4,1.1,0.7c-0.7,1-1.1,1.2-1.1,1.2
			s-0.6,0.7-1.8,2.1l-0.7,0.7c-0.3,0.4-0.4,0.8-0.7,1.1c-0.4,0.4-1,1.1-1.4,1.8c3.7-0.4,6.6-0.9,9-1.4V445.1z M270.9,296.5
			c-0.7,1-1.4,2.1-2.1,3.3l-0.7,0.7c0,0.4-0.1,0.8-0.4,1.1c-0.4,0.5-0.8,1.2-1.1,1.9h6.4v-11.3C272.3,293.8,271.6,295.3,270.9,296.5
			z M270.9,296.5c-0.7,1-1.4,2.1-2.1,3.3l-0.7,0.7c0,0.4-0.1,0.8-0.4,1.1c-0.4,0.5-0.8,1.2-1.1,1.9h6.4v-11.3
			C272.3,293.8,271.6,295.3,270.9,296.5z M326.6,207.7v42.9h56v-42.9H326.6z M364.7,242.3h-17v-2.9c0.4-0.3,0.8-0.4,1.1-0.7l0.7-0.7
			l0.4-0.4c0.4-0.2,0.8-0.4,1.1-0.7c3-2.9,5.3-5.2,6.4-6.9c1.2-1.7,1.8-3.3,1.8-4.7c0-1.2-0.3-2.1-0.7-2.9c-1-1-2.1-1.4-3.6-1.4
			c-1,0-1.9,0.3-2.9,0.7c-0.7,0.2-1.4,0.7-2.1,1.4c-0.3-0.2-0.4-0.6-0.4-1.1l-0.4-0.4v-0.4c-0.3-0.4-0.4-1-0.7-1.4
			c2-1.8,4.5-2.6,7.6-2.6c2.6,0,4.6,0.7,6.1,2.1c1.2,1.2,1.8,2.9,1.8,5.1c0,2.1-0.6,4.2-1.8,6.2c-1.2,1.4-2.9,3.4-5.4,5.8
			c-0.3,0.2-0.6,0.5-1.1,1.1c-0.4,0.3-0.8,0.4-1.1,0.7h10.1V242.3z M326.6,279.1V322h56v-42.9H326.6z M361.7,311
			c-1.9,1.7-4.4,2.6-7.5,2.6c-2.3,0-4.6-0.4-6.4-1.4c0.3-0.5,0.6-1.7,1.1-3.7c0.7,0.4,1.4,0.8,2.1,1.1c1.2,0.3,2.2,0.4,3.2,0.4
			c1.4,0,2.6-0.4,3.6-1.1c1.2-1,1.8-2.2,1.8-3.7c0-1.4-0.6-2.6-1.8-3.3c-1.2-0.9-2.9-1.4-5.4-1.4c-1.2,0-2.2,0.1-3.2,0.4
			c0.2-1,0.4-2.1,0.4-3.3c0.2-0.4,0.4-1,0.4-1.4v-1.4c0.4-2.4,0.8-4.5,1.1-6.2h12.5v3.6h-9.4c-0.2,0.4-0.4,0.9-0.4,1.4v1.1
			c-0.3,1-0.4,1.9-0.4,2.6h1.8c2.2,0,4.1,0.4,5.8,1.4c0.9,0.8,1.8,1.6,2.5,2.6c0.4,1.2,0.7,2.4,0.7,3.7
			C364.2,307.3,363.4,309.3,361.7,311z M359.2,363.1c-0.7-0.7-1.6-1.1-2.9-1.1c-1.2,0-2,0.4-2.5,1.1c-0.7,0.7-1.1,1.4-1.1,2.1
			c0,1.2,0.4,2.2,1.4,3c1,0.7,1.8,1.1,2.5,1.1s1.4-0.4,2.1-1.1c0.7-0.7,1.1-1.6,1.1-2.6C359.9,364.8,359.7,363.9,359.2,363.1z
			 M358.9,374.4c-1-0.9-1.9-1.4-2.9-1.4c-1,0-1.8,0.4-2.5,1.4c-0.7,1-1.1,2-1.1,2.9c0,1,0.4,1.9,1.1,2.6c0.7,1,1.7,1.4,2.9,1.4
			c1.2,0,2.2-0.4,3.2-1.1c0.7-0.8,1.1-1.6,1.1-2.6C360.7,376.4,360.1,375.4,358.9,374.4z M358.9,374.4c-1-0.9-1.9-1.4-2.9-1.4
			c-1,0-1.8,0.4-2.5,1.4c-0.7,1-1.1,2-1.1,2.9c0,1,0.4,1.9,1.1,2.6c0.7,1,1.7,1.4,2.9,1.4c1.2,0,2.2-0.4,3.2-1.1
			c0.7-0.8,1.1-1.6,1.1-2.6C360.7,376.4,360.1,375.4,358.9,374.4z M359.2,363.1c-0.7-0.7-1.6-1.1-2.9-1.1c-1.2,0-2,0.4-2.5,1.1
			c-0.7,0.7-1.1,1.4-1.1,2.1c0,1.2,0.4,2.2,1.4,3c1,0.7,1.8,1.1,2.5,1.1s1.4-0.4,2.1-1.1c0.7-0.7,1.1-1.6,1.1-2.6
			C359.9,364.8,359.7,363.9,359.2,363.1z M359.2,363.1c-0.7-0.7-1.6-1.1-2.9-1.1c-1.2,0-2,0.4-2.5,1.1c-0.7,0.7-1.1,1.4-1.1,2.1
			c0,1.2,0.4,2.2,1.4,3c1,0.7,1.8,1.1,2.5,1.1s1.4-0.4,2.1-1.1c0.7-0.7,1.1-1.6,1.1-2.6C359.9,364.8,359.7,363.9,359.2,363.1z
			 M358.9,374.4c-1-0.9-1.9-1.4-2.9-1.4c-1,0-1.8,0.4-2.5,1.4c-0.7,1-1.1,2-1.1,2.9c0,1,0.4,1.9,1.1,2.6c0.7,1,1.7,1.4,2.9,1.4
			c1.2,0,2.2-0.4,3.2-1.1c0.7-0.8,1.1-1.6,1.1-2.6C360.7,376.4,360.1,375.4,358.9,374.4z M358.9,374.4c-1-0.9-1.9-1.4-2.9-1.4
			c-1,0-1.8,0.4-2.5,1.4c-0.7,1-1.1,2-1.1,2.9c0,1,0.4,1.9,1.1,2.6c0.7,1,1.7,1.4,2.9,1.4c1.2,0,2.2-0.4,3.2-1.1
			c0.7-0.8,1.1-1.6,1.1-2.6C360.7,376.4,360.1,375.4,358.9,374.4z M354.2,368.3c1,0.7,1.8,1.1,2.5,1.1s1.4-0.4,2.1-1.1
			c0.7-0.7,1.1-1.6,1.1-2.6c0-1-0.3-1.9-0.7-2.6c-0.7-0.7-1.6-1.1-2.9-1.1c-1.2,0-2,0.4-2.5,1.1c-0.7,0.7-1.1,1.4-1.1,2.1
			C352.8,366.5,353.2,367.5,354.2,368.3z M326.6,350.4v42.9h56v-42.9H326.6z M362.8,382.4c-1.6,1.4-3.7,2.1-6.4,2.1
			c-2.9,0-5-0.7-6.4-2.1c-1.4-1.2-2.1-2.8-2.1-4.7c0-2.9-0.1-4.5-0.1-4.5s1.4-0.7,4.3-2.1c-1.2-0.5-2.1-1.2-2.9-2.2
			c-0.4-1-0.7-2.1-0.7-3.3c0-2,0.8-3.7,2.5-5.1c1.4-1.2,3.3-1.9,5.7-1.9c2.4,0,4.4,0.8,5.8,2.2c1.2,1.2,1.8,2.7,1.8,4.4
			c0,1-0.3,2-0.7,2.9c-0.7,1-1.7,1.9-2.9,2.6c1.4,0.7,2.5,1.6,3.2,2.6c1,1,1.4,2.3,1.4,4C365.3,379.5,364.5,381.2,362.8,382.4z
			 M358.9,374.4c-1-0.9-1.9-1.4-2.9-1.4c-1,0-1.8,0.4-2.5,1.4c-0.7,1-1.1,2-1.1,2.9c0,1,0.4,1.9,1.1,2.6c0.7,1,1.7,1.4,2.9,1.4
			c1.2,0,2.2-0.4,3.2-1.1c0.7-0.8,1.1-1.6,1.1-2.6C360.7,376.4,360.1,375.4,358.9,374.4z M354.2,368.3c1,0.7,1.8,1.1,2.5,1.1
			s1.4-0.4,2.1-1.1c0.7-0.7,1.1-1.6,1.1-2.6c0-1-0.3-1.9-0.7-2.6c-0.7-0.7-1.6-1.1-2.9-1.1c-1.2,0-2,0.4-2.5,1.1
			c-0.7,0.7-1.1,1.4-1.1,2.1C352.8,366.5,353.2,367.5,354.2,368.3z M359.2,363.1c-0.7-0.7-1.6-1.1-2.9-1.1c-1.2,0-2,0.4-2.5,1.1
			c-0.7,0.7-1.1,1.4-1.1,2.1c0,1.2,0.4,2.2,1.4,3c1,0.7,1.8,1.1,2.5,1.1s1.4-0.4,2.1-1.1c0.7-0.7,1.1-1.6,1.1-2.6
			C359.9,364.8,359.7,363.9,359.2,363.1z M358.9,374.4c-1-0.9-1.9-1.4-2.9-1.4c-1,0-1.8,0.4-2.5,1.4c-0.7,1-1.1,2-1.1,2.9
			c0,1,0.4,1.9,1.1,2.6c0.7,1,1.7,1.4,2.9,1.4c1.2,0,2.2-0.4,3.2-1.1c0.7-0.8,1.1-1.6,1.1-2.6C360.7,376.4,360.1,375.4,358.9,374.4z
			 M358.9,374.4c-1-0.9-1.9-1.4-2.9-1.4c-1,0-1.8,0.4-2.5,1.4c-0.7,1-1.1,2-1.1,2.9c0,1,0.4,1.9,1.1,2.6c0.7,1,1.7,1.4,2.9,1.4
			c1.2,0,2.2-0.4,3.2-1.1c0.7-0.8,1.1-1.6,1.1-2.6C360.7,376.4,360.1,375.4,358.9,374.4z M359.2,363.1c-0.7-0.7-1.6-1.1-2.9-1.1
			c-1.2,0-2,0.4-2.5,1.1c-0.7,0.7-1.1,1.4-1.1,2.1c0,1.2,0.4,2.2,1.4,3c1,0.7,1.8,1.1,2.5,1.1s1.4-0.4,2.1-1.1
			c0.7-0.7,1.1-1.6,1.1-2.6C359.9,364.8,359.7,363.9,359.2,363.1z M359.2,363.1c-0.7-0.7-1.6-1.1-2.9-1.1c-1.2,0-2,0.4-2.5,1.1
			c-0.7,0.7-1.1,1.4-1.1,2.1c0,1.2,0.4,2.2,1.4,3c1,0.7,1.8,1.1,2.5,1.1s1.4-0.4,2.1-1.1c0.7-0.7,1.1-1.6,1.1-2.6
			C359.9,364.8,359.7,363.9,359.2,363.1z M358.9,374.4c-1-0.9-1.9-1.4-2.9-1.4c-1,0-1.8,0.4-2.5,1.4c-0.7,1-1.1,2-1.1,2.9
			c0,1,0.4,1.9,1.1,2.6c0.7,1,1.7,1.4,2.9,1.4c1.2,0,2.2-0.4,3.2-1.1c0.7-0.8,1.1-1.6,1.1-2.6C360.7,376.4,360.1,375.4,358.9,374.4z
			 M358.9,374.4c-1-0.9-1.9-1.4-2.9-1.4c-1,0-1.8,0.4-2.5,1.4c-0.7,1-1.1,2-1.1,2.9c0,1,0.4,1.9,1.1,2.6c0.7,1,1.7,1.4,2.9,1.4
			c1.2,0,2.2-0.4,3.2-1.1c0.7-0.8,1.1-1.6,1.1-2.6C360.7,376.4,360.1,375.4,358.9,374.4z M359.2,363.1c-0.7-0.7-1.6-1.1-2.9-1.1
			c-1.2,0-2,0.4-2.5,1.1c-0.7,0.7-1.1,1.4-1.1,2.1c0,1.2,0.4,2.2,1.4,3c1,0.7,1.8,1.1,2.5,1.1s1.4-0.4,2.1-1.1
			c0.7-0.7,1.1-1.6,1.1-2.6C359.9,364.8,359.7,363.9,359.2,363.1z M326.6,421.8v42.9h56v-42.9H326.6z M357.8,455.2h-4.3v-20.8h-0.4
			c-0.4,0.2-1.2,0.6-2.1,1.1c-1,0.4-1.6,0.8-2.1,1.1c0-0.3-0.1-0.4-0.4-0.7v-1.1c-0.3-0.8-0.4-1.3-0.4-1.9c0.9-0.4,1.9-0.9,2.9-1.4
			l0.7-0.4h0.4l0.4-0.4c0.4-0.2,1-0.4,1.4-0.7h3.9V455.2z M358.9,374.4c-1-0.9-1.9-1.4-2.9-1.4c-1,0-1.8,0.4-2.5,1.4
			c-0.7,1-1.1,2-1.1,2.9c0,1,0.4,1.9,1.1,2.6c0.7,1,1.7,1.4,2.9,1.4c1.2,0,2.2-0.4,3.2-1.1c0.7-0.8,1.1-1.6,1.1-2.6
			C360.7,376.4,360.1,375.4,358.9,374.4z M359.2,363.1c-0.7-0.7-1.6-1.1-2.9-1.1c-1.2,0-2,0.4-2.5,1.1c-0.7,0.7-1.1,1.4-1.1,2.1
			c0,1.2,0.4,2.2,1.4,3c1,0.7,1.8,1.1,2.5,1.1s1.4-0.4,2.1-1.1c0.7-0.7,1.1-1.6,1.1-2.6C359.9,364.8,359.7,363.9,359.2,363.1z
			 M358.9,374.4c-1-0.9-1.9-1.4-2.9-1.4c-1,0-1.8,0.4-2.5,1.4c-0.7,1-1.1,2-1.1,2.9c0,1,0.4,1.9,1.1,2.6c0.7,1,1.7,1.4,2.9,1.4
			c1.2,0,2.2-0.4,3.2-1.1c0.7-0.8,1.1-1.6,1.1-2.6C360.7,376.4,360.1,375.4,358.9,374.4z M359.2,363.1c-0.7-0.7-1.6-1.1-2.9-1.1
			c-1.2,0-2,0.4-2.5,1.1c-0.7,0.7-1.1,1.4-1.1,2.1c0,1.2,0.4,2.2,1.4,3c1,0.7,1.8,1.1,2.5,1.1s1.4-0.4,2.1-1.1
			c0.7-0.7,1.1-1.6,1.1-2.6C359.9,364.8,359.7,363.9,359.2,363.1z M411,207.7v42.9h56.4v-42.9H411z M445,240.4
			c-1.9,1.5-4.3,2.2-7.1,2.2c-2.9,0-5.2-0.4-6.9-1.4c0-0.4,0.1-0.8,0.4-1.1v-0.7c0.3-0.7,0.4-1.3,0.7-1.8c0.5,0.3,0.8,0.3,0.8,0.3
			s0.4,0.1,1.4,0.4c1.2,0.4,2.2,0.7,3.2,0.7c1.6,0,2.9-0.4,3.9-1.4c0.7-0.8,1.1-1.6,1.1-2.6c0-1.5-0.5-2.6-1.8-3.3
			c-0.9-0.7-2.1-1.1-3.6-1.1h-2.1v-3.3h2.1c1.2,0,2.2-0.2,3.2-0.7c1-0.7,1.4-1.7,1.4-2.9c0-0.7-0.4-1.4-1.1-2.1
			c-0.4-0.4-1.4-0.7-2.9-0.7c-1,0-1.9,0.1-2.9,0.4c-0.7,0.2-1.4,0.5-2.1,1.1c0-0.5-0.1-1.2-0.4-1.9c-0.2-0.4-0.4-0.9-0.7-1.4
			c0.7-0.4,1.6-0.9,2.9-1.4c1.4-0.3,2.9-0.4,4.3-0.4c2.3,0,4.3,0.6,5.7,1.8c1.2,1,1.8,2.3,1.8,4c0,1.5-0.4,2.7-1.1,3.7
			c-0.7,1-1.8,1.7-3.2,2.1c1.4,0.5,2.6,1.2,3.6,2.2c1.2,1.2,1.8,2.7,1.8,4.4C447.5,237.5,446.7,239.2,445,240.4z M442.9,301.7
			c-0.9-0.9-2-1.4-3.2-1.4c-1,0-1.8,0.3-2.5,0.7c-0.7,0.4-1.2,1.1-1.4,1.8c-0.3,0.4-0.4,1-0.4,1.4c0,1.7,0.4,3.1,1.1,4.4
			c0.9,1,2.1,1.4,3.6,1.4c1.2,0,2.1-0.4,2.9-1.1c0.7-1,1.1-2.3,1.1-4C444,303.5,443.6,302.4,442.9,301.7z M442.9,301.7
			c-0.9-0.9-2-1.4-3.2-1.4c-1,0-1.8,0.3-2.5,0.7c-0.7,0.4-1.2,1.1-1.4,1.8c-0.3,0.4-0.4,1-0.4,1.4c0,1.7,0.4,3.1,1.1,4.4
			c0.9,1,2.1,1.4,3.6,1.4c1.2,0,2.1-0.4,2.9-1.1c0.7-1,1.1-2.3,1.1-4C444,303.5,443.6,302.4,442.9,301.7z M442.9,301.7
			c-0.9-0.9-2-1.4-3.2-1.4c-1,0-1.8,0.3-2.5,0.7c-0.7,0.4-1.2,1.1-1.4,1.8c-0.3,0.4-0.4,1-0.4,1.4c0,1.7,0.4,3.1,1.1,4.4
			c0.9,1,2.1,1.4,3.6,1.4c1.2,0,2.1-0.4,2.9-1.1c0.7-1,1.1-2.3,1.1-4C444,303.5,443.6,302.4,442.9,301.7z M442.9,301.7
			c-0.9-0.9-2-1.4-3.2-1.4c-1,0-1.8,0.3-2.5,0.7c-0.7,0.4-1.2,1.1-1.4,1.8c-0.3,0.4-0.4,1-0.4,1.4c0,1.7,0.4,3.1,1.1,4.4
			c0.9,1,2.1,1.4,3.6,1.4c1.2,0,2.1-0.4,2.9-1.1c0.7-1,1.1-2.3,1.1-4C444,303.5,443.6,302.4,442.9,301.7z M442.9,301.7
			c-0.9-0.9-2-1.4-3.2-1.4c-1,0-1.8,0.3-2.5,0.7c-0.7,0.4-1.2,1.1-1.4,1.8c-0.3,0.4-0.4,1-0.4,1.4c0,1.7,0.4,3.1,1.1,4.4
			c0.9,1,2.1,1.4,3.6,1.4c1.2,0,2.1-0.4,2.9-1.1c0.7-1,1.1-2.3,1.1-4C444,303.5,443.6,302.4,442.9,301.7z M442.9,301.7
			c-0.9-0.9-2-1.4-3.2-1.4c-1,0-1.8,0.3-2.5,0.7c-0.7,0.4-1.2,1.1-1.4,1.8c-0.3,0.4-0.4,1-0.4,1.4c0,1.7,0.4,3.1,1.1,4.4
			c0.9,1,2.1,1.4,3.6,1.4c1.2,0,2.1-0.4,2.9-1.1c0.7-1,1.1-2.3,1.1-4C444,303.5,443.6,302.4,442.9,301.7z M442.9,301.7
			c-0.9-0.9-2-1.4-3.2-1.4c-1,0-1.8,0.3-2.5,0.7c-0.7,0.4-1.2,1.1-1.4,1.8c-0.3,0.4-0.4,1-0.4,1.4c0,1.7,0.4,3.1,1.1,4.4
			c0.9,1,2.1,1.4,3.6,1.4c1.2,0,2.1-0.4,2.9-1.1c0.7-1,1.1-2.3,1.1-4C444,303.5,443.6,302.4,442.9,301.7z M442.9,301.7
			c-0.9-0.9-2-1.4-3.2-1.4c-1,0-1.8,0.3-2.5,0.7c-0.7,0.4-1.2,1.1-1.4,1.8c-0.3,0.4-0.4,1-0.4,1.4c0,1.7,0.4,3.1,1.1,4.4
			c0.9,1,2.1,1.4,3.6,1.4c1.2,0,2.1-0.4,2.9-1.1c0.7-1,1.1-2.3,1.1-4C444,303.5,443.6,302.4,442.9,301.7z M411,279.1V322h56.4v-42.9
			H411z M446.1,311.2c-1.6,1.7-3.7,2.6-6.1,2.6c-2.9,0-5.2-1-6.9-2.9c-1.7-2-2.5-4.6-2.5-7.7c0-2.5,0.4-4.6,1.1-6.6
			c0.7-2,1.8-3.5,3.2-4.7c2.2-2.2,5.1-3.4,8.7-3.7c0.9-0.3,1.8-0.3,2.5,0v3.7h-2.5c-2.4,0.3-4.3,1.2-5.7,2.6
			c-1.2,1.2-2.1,2.8-2.5,4.7h0.4c1.2-1.7,2.9-2.6,5.4-2.6c2.1,0,3.9,0.8,5.4,2.2c1.4,1.7,2.1,3.7,2.1,6.2S447.8,309.5,446.1,311.2z
			 M439.7,300.2c-1,0-1.8,0.3-2.5,0.7c-0.7,0.4-1.2,1.1-1.4,1.8c-0.3,0.4-0.4,1-0.4,1.4c0,1.7,0.4,3.1,1.1,4.4
			c0.9,1,2.1,1.4,3.6,1.4c1.2,0,2.1-0.4,2.9-1.1c0.7-1,1.1-2.3,1.1-4c0-1.4-0.4-2.5-1.1-3.2C442,300.8,440.9,300.2,439.7,300.2z
			 M442.9,301.7c-0.9-0.9-2-1.4-3.2-1.4c-1,0-1.8,0.3-2.5,0.7c-0.7,0.4-1.2,1.1-1.4,1.8c-0.3,0.4-0.4,1-0.4,1.4
			c0,1.7,0.4,3.1,1.1,4.4c0.9,1,2.1,1.4,3.6,1.4c1.2,0,2.1-0.4,2.9-1.1c0.7-1,1.1-2.3,1.1-4C444,303.5,443.6,302.4,442.9,301.7z
			 M442.9,301.7c-0.9-0.9-2-1.4-3.2-1.4c-1,0-1.8,0.3-2.5,0.7c-0.7,0.4-1.2,1.1-1.4,1.8c-0.3,0.4-0.4,1-0.4,1.4
			c0,1.7,0.4,3.1,1.1,4.4c0.9,1,2.1,1.4,3.6,1.4c1.2,0,2.1-0.4,2.9-1.1c0.7-1,1.1-2.3,1.1-4C444,303.5,443.6,302.4,442.9,301.7z
			 M442.9,301.7c-0.9-0.9-2-1.4-3.2-1.4c-1,0-1.8,0.3-2.5,0.7c-0.7,0.4-1.2,1.1-1.4,1.8c-0.3,0.4-0.4,1-0.4,1.4
			c0,1.7,0.4,3.1,1.1,4.4c0.9,1,2.1,1.4,3.6,1.4c1.2,0,2.1-0.4,2.9-1.1c0.7-1,1.1-2.3,1.1-4C444,303.5,443.6,302.4,442.9,301.7z
			 M442.9,301.7c-0.9-0.9-2-1.4-3.2-1.4c-1,0-1.8,0.3-2.5,0.7c-0.7,0.4-1.2,1.1-1.4,1.8c-0.3,0.4-0.4,1-0.4,1.4
			c0,1.7,0.4,3.1,1.1,4.4c0.9,1,2.1,1.4,3.6,1.4c1.2,0,2.1-0.4,2.9-1.1c0.7-1,1.1-2.3,1.1-4C444,303.5,443.6,302.4,442.9,301.7z
			 M442.9,301.7c-0.9-0.9-2-1.4-3.2-1.4c-1,0-1.8,0.3-2.5,0.7c-0.7,0.4-1.2,1.1-1.4,1.8c-0.3,0.4-0.4,1-0.4,1.4
			c0,1.7,0.4,3.1,1.1,4.4c0.9,1,2.1,1.4,3.6,1.4c1.2,0,2.1-0.4,2.9-1.1c0.7-1,1.1-2.3,1.1-4C444,303.5,443.6,302.4,442.9,301.7z
			 M442.9,301.7c-0.9-0.9-2-1.4-3.2-1.4c-1,0-1.8,0.3-2.5,0.7c-0.7,0.4-1.2,1.1-1.4,1.8c-0.3,0.4-0.4,1-0.4,1.4
			c0,1.7,0.4,3.1,1.1,4.4c0.9,1,2.1,1.4,3.6,1.4c1.2,0,2.1-0.4,2.9-1.1c0.7-1,1.1-2.3,1.1-4C444,303.5,443.6,302.4,442.9,301.7z
			 M442.9,301.7c-0.9-0.9-2-1.4-3.2-1.4c-1,0-1.8,0.3-2.5,0.7c-0.7,0.4-1.2,1.1-1.4,1.8c-0.3,0.4-0.4,1-0.4,1.4
			c0,1.7,0.4,3.1,1.1,4.4c0.9,1,2.1,1.4,3.6,1.4c1.2,0,2.1-0.4,2.9-1.1c0.7-1,1.1-2.3,1.1-4C444,303.5,443.6,302.4,442.9,301.7z
			 M442.9,301.7c-0.9-0.9-2-1.4-3.2-1.4c-1,0-1.8,0.3-2.5,0.7c-0.7,0.4-1.2,1.1-1.4,1.8c-0.3,0.4-0.4,1-0.4,1.4
			c0,1.7,0.4,3.1,1.1,4.4c0.9,1,2.1,1.4,3.6,1.4c1.2,0,2.1-0.4,2.9-1.1c0.7-1,1.1-2.3,1.1-4C444,303.5,443.6,302.4,442.9,301.7z
			 M442.9,364.2c-0.9-1.2-2.1-1.8-3.6-1.8c-1,0-1.9,0.4-2.9,1.4c-0.7,1-1.1,2.2-1.1,3.7c0,1.2,0.4,2.3,1.1,3.2
			c0.7,0.7,1.7,1.1,2.9,1.1c1,0,1.8-0.1,2.5-0.4c0.7-0.4,1.3-1,1.8-1.4v-1.4C443.6,366.9,443.4,365.5,442.9,364.2z M442.9,364.2
			c-0.9-1.2-2.1-1.8-3.6-1.8c-1,0-1.9,0.4-2.9,1.4c-0.7,1-1.1,2.2-1.1,3.7c0,1.2,0.4,2.3,1.1,3.2c0.7,0.7,1.7,1.1,2.9,1.1
			c1,0,1.8-0.1,2.5-0.4c0.7-0.4,1.3-1,1.8-1.4v-1.4C443.6,366.9,443.4,365.5,442.9,364.2z M442.9,364.2c-0.9-1.2-2.1-1.8-3.6-1.8
			c-1,0-1.9,0.4-2.9,1.4c-0.7,1-1.1,2.2-1.1,3.7c0,1.2,0.4,2.3,1.1,3.2c0.7,0.7,1.7,1.1,2.9,1.1c1,0,1.8-0.1,2.5-0.4
			c0.7-0.4,1.3-1,1.8-1.4v-1.4C443.6,366.9,443.4,365.5,442.9,364.2z M442.9,364.2c-0.9-1.2-2.1-1.8-3.6-1.8c-1,0-1.9,0.4-2.9,1.4
			c-0.7,1-1.1,2.2-1.1,3.7c0,1.2,0.4,2.3,1.1,3.2c0.7,0.7,1.7,1.1,2.9,1.1c1,0,1.8-0.1,2.5-0.4c0.7-0.4,1.3-1,1.8-1.4v-1.4
			C443.6,366.9,443.4,365.5,442.9,364.2z M411,350.4v42.9h56.4v-42.9H411z M444.4,381c-2.2,2-5.1,3.2-8.7,3.7H433v-3.7
			c0.7,0,1.6-0.1,2.9-0.4c1.9,0,3.6-0.5,5-1.8c1.4-1.2,2.4-3,2.9-5.4c-1.2,1.4-2.9,2.1-5.4,2.1c-2.1,0-3.9-0.7-5.4-2.1
			c-1.4-1.4-2.1-3.2-2.1-5.4c0-2.4,0.8-4.5,2.5-6.2c1.6-2,3.7-2.9,6.4-2.9c2.9,0,5,1.2,6.4,3.3c1.7,1.7,2.5,4.1,2.5,7.2
			C448.7,374.5,447.3,378.3,444.4,381z M439.3,362.4c-1,0-1.9,0.4-2.9,1.4c-0.7,1-1.1,2.2-1.1,3.7c0,1.2,0.4,2.3,1.1,3.2
			c0.7,0.7,1.7,1.1,2.9,1.1c1,0,1.8-0.1,2.5-0.4c0.7-0.4,1.3-1,1.8-1.4v-1.4c0-1.7-0.3-3.1-0.7-4.4
			C442,363.1,440.8,362.4,439.3,362.4z M442.9,364.2c-0.9-1.2-2.1-1.8-3.6-1.8c-1,0-1.9,0.4-2.9,1.4c-0.7,1-1.1,2.2-1.1,3.7
			c0,1.2,0.4,2.3,1.1,3.2c0.7,0.7,1.7,1.1,2.9,1.1c1,0,1.8-0.1,2.5-0.4c0.7-0.4,1.3-1,1.8-1.4v-1.4
			C443.6,366.9,443.4,365.5,442.9,364.2z M442.9,364.2c-0.9-1.2-2.1-1.8-3.6-1.8c-1,0-1.9,0.4-2.9,1.4c-0.7,1-1.1,2.2-1.1,3.7
			c0,1.2,0.4,2.3,1.1,3.2c0.7,0.7,1.7,1.1,2.9,1.1c1,0,1.8-0.1,2.5-0.4c0.7-0.4,1.3-1,1.8-1.4v-1.4
			C443.6,366.9,443.4,365.5,442.9,364.2z M439,440.7l-0.7,5.4h4.3l0.7-5.4H439z M439,440.7l-0.7,5.4h4.3l0.7-5.4H439z M411,421.8
			v42.9h56.4v-42.9H411z M451.8,440.8h-4.3c-0.2,0.4-0.4,1-0.4,1.4v1.1c-0.3,1.2-0.4,2.2-0.7,2.9h3.9v4.4h-4.3
			c-0.3,0.8-0.4,1.5-0.4,2.2c-0.3,0.4-0.4,1.1-0.4,1.8l-0.4,1.1v1.1c0,0.7-0.1,1.4-0.4,2.1h-4.3c0.3-0.7,0.4-1.4,0.4-2.1
			c0.2-0.5,0.4-1.2,0.4-2.2c0.3-1.7,0.4-3,0.7-4h-4.3c-0.2,0.8-0.4,1.5-0.4,2.2c0,0.4-0.1,1.1-0.4,1.8c-0.3,2-0.4,3.4-0.7,4.4v0.2
			H432c0-1.2,0.1-2.7,0.4-4.4l0.4-0.7v-1.1c0.3-0.8,0.4-1.5,0.4-2.2h-3.9v-4.4h4.7c0-0.4,0.1-1,0.4-1.4v-1.4c0.2-1,0.4-1.9,0.4-2.6
			h-3.9v-4.4h4.7c0.3-1.2,0.4-2.7,0.7-4.4c0.3-1.7,0.4-3,0.4-4h4.3c0,0.7-0.1,1.4-0.4,2.1c0,0.5-0.1,1.2-0.4,1.9
			c-0.3,1.7-0.4,3.1-0.4,4.4h4.3c0-0.8,0.1-1.6,0.4-2.6v-1.8c0.2-1.7,0.4-3,0.7-4h4.3c-0.3,0.7-0.4,1.4-0.4,2.1v1.1l-0.4,0.7
			c-0.3,1.7-0.4,3.1-0.7,4.4h3.9V440.8z M438.3,446.1h4.3l0.7-5.4H439L438.3,446.1z M439,440.7l-0.7,5.4h4.3l0.7-5.4H439z
			 M439,440.7l-0.7,5.4h4.3l0.7-5.4H439z M439,440.7l-0.7,5.4h4.3l0.7-5.4H439z M442.9,301.7c-0.9-0.9-2-1.4-3.2-1.4
			c-1,0-1.8,0.3-2.5,0.7c-0.7,0.4-1.2,1.1-1.4,1.8c-0.3,0.4-0.4,1-0.4,1.4c0,1.7,0.4,3.1,1.1,4.4c0.9,1,2.1,1.4,3.6,1.4
			c1.2,0,2.1-0.4,2.9-1.1c0.7-1,1.1-2.3,1.1-4C444,303.5,443.6,302.4,442.9,301.7z M442.9,364.2c-0.9-1.2-2.1-1.8-3.6-1.8
			c-1,0-1.9,0.4-2.9,1.4c-0.7,1-1.1,2.2-1.1,3.7c0,1.2,0.4,2.3,1.1,3.2c0.7,0.7,1.7,1.1,2.9,1.1c1,0,1.8-0.1,2.5-0.4
			c0.7-0.4,1.3-1,1.8-1.4v-1.4C443.6,366.9,443.4,365.5,442.9,364.2z M442.9,301.7c-0.9-0.9-2-1.4-3.2-1.4c-1,0-1.8,0.3-2.5,0.7
			c-0.7,0.4-1.2,1.1-1.4,1.8c-0.3,0.4-0.4,1-0.4,1.4c0,1.7,0.4,3.1,1.1,4.4c0.9,1,2.1,1.4,3.6,1.4c1.2,0,2.1-0.4,2.9-1.1
			c0.7-1,1.1-2.3,1.1-4C444,303.5,443.6,302.4,442.9,301.7z M442.9,364.2c-0.9-1.2-2.1-1.8-3.6-1.8c-1,0-1.9,0.4-2.9,1.4
			c-0.7,1-1.1,2.2-1.1,3.7c0,1.2,0.4,2.3,1.1,3.2c0.7,0.7,1.7,1.1,2.9,1.1c1,0,1.8-0.1,2.5-0.4c0.7-0.4,1.3-1,1.8-1.4v-1.4
			C443.6,366.9,443.4,365.5,442.9,364.2z M439,440.7l-0.7,5.4h4.3l0.7-5.4H439z"/>
	</g>
</g>
</svg>
