<?xml version="1.0" encoding="utf-8"?>
<!-- Generator: Adobe Illustrator 22.0.1, SVG Export Plug-In . SVG Version: 6.00 Build 0)  -->
<svg version="1.1" id="Layer_1" xmlns="http://www.w3.org/2000/svg" xmlns:xlink="http://www.w3.org/1999/xlink" x="0px" y="0px"
	 viewBox="0 0 512 512" style="enable-background:new 0 0 512 512;" xml:space="preserve">
<style type="text/css">
	.st0{fill:#070707;}
</style>
<g>
	<polygon points="512,393 392.2,512.8 369.6,490.2 448.7,411 63.2,411 141,489.4 118.4,512 0,393 119.8,273.9 142.4,296.5 59.4,379 
		452.7,379 371,297.3 393.6,274.7 	"/>
	<path id="_x36_2_1_" class="st0" d="M84,57.6h17.5c4.6-23.9,15.3-29.8,30.9-30.3c2.8-0.1,105.7,0,108.8,0.2
		c0,0-0.3,234.1-0.3,236.9c0,11.6-9.7,12.8-12.7,13.4v16.3h59.3v-16.3c-2.5-0.4-12.7-1.8-12.7-13.4c0-2.3-0.3-236.9-0.3-236.9
		c2.9,0,105.8-0.2,108.8-0.2c12.6-0.1,25.5,2.5,30.8,30.3h17.5V0H84V57.6z"/>
</g>
</svg>
