<?xml version="1.0" encoding="utf-8"?>
<!-- Generator: Adobe Illustrator 22.0.1, SVG Export Plug-In . SVG Version: 6.00 Build 0)  -->
<svg version="1.1" id="Layer_2_1_" xmlns="http://www.w3.org/2000/svg" xmlns:xlink="http://www.w3.org/1999/xlink" x="0px" y="0px"
	 viewBox="0 0 512 512" style="enable-background:new 0 0 512 512;" xml:space="preserve">
<style type="text/css">
	.st0{fill:#070707;}
</style>
<g>
	<path id="_x36_2_1_" class="st0" d="M84,57.6h17.5c4.6-23.9,15.3-29.8,30.9-30.3c2.8-0.1,105.7,0,108.8,0.2
		c0,0-0.3,214.1-0.3,216.9c0,11.6-9.7,12.8-12.7,13.4v16.3h59.3v-16.3c-2.5-0.4-12.7-1.8-12.7-13.4c0-2.3-0.3-216.9-0.3-216.9
		c2.9,0,105.8-0.2,108.8-0.2c12.6-0.1,25.5,2.5,30.8,30.3h17.5V0H84V57.6z"/>
	<polygon points="466.8,335.5 405,398.6 427.6,421.2 512.1,335.5 429.1,251.7 406.4,274.3 	"/>
	<polygon points="45.3,337.5 107.1,274.3 84.4,251.7 0,337.5 83,421.2 105.7,398.6 	"/>
	<polygon points="255.9,466.7 192.8,404.9 170.2,427.6 255.9,512 339.7,429 317,406.3 	"/>
	<rect x="178.6" y="320" width="154.7" height="32"/>
</g>
</svg>
