<?xml version="1.0" encoding="utf-8"?>
<!-- Generator: Adobe Illustrator 21.1.0, SVG Export Plug-In . SVG Version: 6.00 Build 0)  -->
<svg version="1.1" id="Layer_2" xmlns="http://www.w3.org/2000/svg" xmlns:xlink="http://www.w3.org/1999/xlink" x="0px" y="0px"
	 viewBox="0 0 550 512" style="enable-background:new 0 0 550 512;" xml:space="preserve">
<g id="_x33_2_1_">
	<g>
		<path d="M99,279.1c15.7,77.5,143.7,58.8,142.6-22.6C196.6,292.4,149.1,299.9,99,279.1z M468.8,312c5.6-20.3-22.4-41.7-35.2-41.7
			c-12.7,0-23.1,9.8-23.1,21.9c0,12.1,11,18.6,23.1,22.9C446.1,319.4,465.6,323.7,468.8,312z M419,427.8
			c0.5-26.6-8.5-45.3-26.9-56.1c-14.2-9.2-29.9-11.3-47.1-6.3c-17.2,5.3-29.3,15.7-36.3,31.6C353,385.9,389.8,396.1,419,427.8z
			 M375.5,285.2c7.8-8.2,5.6-22.2-4-31.3c-9.5-9.1-21.7-10.3-32.5-5.8c-6.9,2.9-9.7,14.1-10.6,24.1c-0.5,5.6-1.8,7.7-3.5,10.8
			C337.9,291,367.6,293.3,375.5,285.2z M303.5,186.3c-9.9-110.9-27.6-151.8-42.6-168.1c-4.5-5.1-10.4-7.7-16.5-7.7
			c-3.3,0-6.6,0.8-9.8,2.2c0,0-60.8,43.8-155.3,43.8c-14.9,0-30.6-1.1-47.1-3.6c-1.7-0.4-3.4-0.6-5-0.6C14,52.4,5.1,65.7,2.6,79
			c-10.7,53.9,14.6,151.8,14.6,151.8c1.8,7.4,15.9,87.9,90,136.9c26.1,17.6,50.1,26.4,72.2,26.4c5.3,0,10.5-0.5,15.5-1.5
			c20.2-6,41-22.1,62.4-48.1C293.4,300,308.7,247.3,303.5,186.3z M233.6,324.9c-20.6,25-36.1,34.3-46,37.6c-2.6,0.5-5.3,0.7-8.1,0.7
			c-15.6,0-34.2-7.1-55-21.2l-0.1-0.1l-0.1-0.1c-25.1-16.6-45.1-39.5-59.5-68c-11.5-22.7-15.6-41.7-17-48c-0.2-1.1-0.4-1.8-0.6-2.4
			l-0.1-0.2l-0.1-0.2c-6.6-25.3-21.9-99.6-14.2-138l0.1-0.3l0.1-0.3v-0.1c15.4,2.1,30.9,3.2,46.2,3.2c80.8,0,139.7-29.3,162.7-42.9
			c3.3,5.4,7.6,14.8,12.3,30.7c7.8,27.1,14,65.4,18.4,113.7c2.2,26.6,0.1,51.4-6.5,74C259.8,285.2,248.7,306,233.6,324.9z
			 M546.2,196.7c-2.7-9.6-9.8-16.5-19.4-17.7c0,0-110.6,5.7-196.1-50.7c0,0,3.7,35.1,4.8,38.3c21.1,12.8,81.5,45.4,184.1,43.8
			c-1.4,65.8-28.8,157.7-40.8,177.4c-25,45.1-59.5,73.3-103.6,82.8c-14.8,3.7-26.7,2.2-35.9-4.3c-26.9-19.5-45.5-52.3-59.4-96.6
			c-9,8.4-18.5,16.2-24.7,23.4c14,43.7,36.9,77.1,68.9,100c18.2,13.1,41.9,14.9,71.1,5.1c61.6-21.1,103.1-64.1,124.2-129.2
			C549.3,271.8,552.1,221,546.2,196.7z M184.7,138.9c-9.4,11.3-8.7,27.2,1.5,35.7c10.1,8.5,23.9,3.4,36.2-4.3
			c12.7-7.9,30.7-22.2,23.2-33.1C232.6,118,194.1,127.7,184.7,138.9z M122.7,194c12.7-5.4,17.9-18.8,11.6-29.9
			c-6.3-11.1-20.7-15.4-34.9-14c-14.6,1.4-34.3,12.6-31.4,24.5C73.2,195.5,110,199.4,122.7,194z"/>
	</g>
</g>
</svg>
