<?xml version="1.0" encoding="utf-8"?>
<!-- Generator: Adobe Illustrator 21.1.0, SVG Export Plug-In . SVG Version: 6.00 Build 0)  -->
<svg version="1.1" id="Layer_2" xmlns="http://www.w3.org/2000/svg" xmlns:xlink="http://www.w3.org/1999/xlink" x="0px" y="0px"
	 viewBox="0 0 510.9 512" style="enable-background:new 0 0 510.9 512;" xml:space="preserve">
<path d="M510.9,84.1c0-21.5-8.2-43-24.6-59.4c-32.8-32.8-86-32.8-118.8,0L90,302.2c-26.8,26.8-31.7,67.3-14.6,99.1L8.6,468.2
	c-9.5,9.5-10.3,24.5-1.7,34.1c4.5,5,10.7,7.9,17.4,8c0.2,0,0.4,0,0.6,0c6.4,0,12.6-2.6,17.2-7.1l67.6-67.6
	c31.8,17.1,72.3,12.2,99.1-14.6l277.5-277.5C502.7,127,510.9,105.6,510.9,84.1z M34.7,495.8c-2.7,2.7-6.3,4.2-10.1,4
	c-3.8-0.1-7.3-1.7-9.9-4.6c-4.8-5.3-4.2-14.2,1.3-19.7l41.4-41.4l9.7,9.7c0,0,0,0,0,0l9.7,9.7L34.7,495.8z M463.9,121.1L186,399
	c-19.2,19.2-49.6,20.3-70.1,3.5l20.2-20.2l11.1,11.1c0.5,0.5,1.2,0.8,1.9,0.8c0.7,0,1.3-0.3,1.9-0.8c1-1,1-2.7,0-3.7l-11.1-11.1
	l14.8-14.8l7.4,7.4c0.5,0.5,1.2,0.8,1.9,0.8c0.6,0,1.2-0.2,1.7-0.7c1.2-1,1.1-2.8,0-3.9l-7.3-7.3l14.8-14.8l7.4,7.4
	c0.5,0.5,1.2,0.8,1.9,0.8c0.6,0,1.2-0.2,1.7-0.7c1.2-1,1.1-2.8,0-3.9l-7.3-7.3l14.8-14.8l7.4,7.4c0.5,0.5,1.2,0.8,1.9,0.8
	c0.6,0,1.2-0.2,1.7-0.7c1.2-1,1.1-2.8,0-3.9l-7.3-7.3l14.8-14.8l11.1,11.1c0.5,0.5,1.2,0.8,1.9,0.8c0.6,0,1.2-0.2,1.7-0.7
	c1.2-1,1.1-2.8,0-3.9l-11-11l14.8-14.8l7.4,7.4c0.5,0.5,1.2,0.8,1.9,0.8c0.6,0,1.2-0.2,1.7-0.7c1.2-1,1.1-2.8,0-3.9l-7.3-7.3
	l14.8-14.8l7.4,7.4c0.5,0.5,1.2,0.8,1.9,0.8c0.6,0,1.2-0.2,1.7-0.7c1.2-1,1.1-2.8,0-3.9l-7.3-7.3l14.8-14.8l7.4,7.4
	c0.5,0.5,1.2,0.8,1.9,0.8c0.6,0,1.2-0.2,1.7-0.7c1.2-1,1.1-2.8,0-3.9l-7.3-7.3l14.8-14.8l11.1,11.1c0.5,0.5,1.2,0.8,1.9,0.8
	c0.6,0,1.2-0.2,1.7-0.7c1.2-1,1.1-2.8,0-3.9l-11-11l14.8-14.8l7.4,7.4c0.5,0.5,1.2,0.8,1.9,0.8c0.6,0,1.2-0.2,1.7-0.7
	c1.2-1,1.1-2.8,0-3.9l-7.3-7.3l14.8-14.8l7.4,7.4c0.5,0.5,1.2,0.8,1.9,0.8c0.6,0,1.2-0.2,1.7-0.7c1.2-1,1.1-2.8,0-3.9l-7.3-7.3
	l14.8-14.8l7.4,7.4c0.5,0.5,1.2,0.8,1.9,0.8c0.6,0,1.2-0.2,1.7-0.7c1.2-1,1.1-2.8,0-3.9l-7.3-7.3l14.8-14.8l11.1,11.1
	c0.5,0.5,1.2,0.8,1.9,0.8c0.6,0,1.2-0.2,1.7-0.7c1.2-1,1.1-2.8,0-3.9l-11-11l14.8-14.8l7.4,7.4c0.5,0.5,1.2,0.8,1.9,0.8
	c0.6,0,1.2-0.2,1.7-0.7c1.2-1,1.1-2.8,0-3.9l-7.3-7.3l14.8-14.8l7.4,7.4c0.5,0.5,1.2,0.8,1.9,0.8c0.6,0,1.2-0.2,1.7-0.7
	c1.2-1,1.1-2.8,0-3.9l-7.3-7.3l14.8-14.8l7.4,7.4c0.5,0.5,1.2,0.8,1.9,0.8c0.6,0,1.2-0.2,1.7-0.7c1.2-1,1.1-2.8,0-3.9l-7.3-7.3
	l14.8-14.8l11.1,11.1c0.5,0.5,1.2,0.8,1.9,0.8c0.6,0,1.2-0.2,1.7-0.7c1.2-1,1.1-2.8,0-3.9l-11-11l16.5-16.5c1.9-1.9,2.2-5.1,0.5-7.2
	c-2-2.4-5.6-2.5-7.8-0.4l-16.7,16.7l-11.2-11.1c-1.1-1.1-3.1-1-4,0.4c-0.7,1.1-0.5,2.5,0.4,3.4l11,11l-14.8,14.8l-7.3-7.3
	c-0.9-0.9-2.3-1.1-3.4-0.4c-1.4,1-1.5,2.9-0.4,4l7.4,7.4l-14.8,14.8l-7.3-7.3c-0.9-0.9-2.3-1.1-3.4-0.4c-1.4,1-1.5,2.9-0.4,4
	l7.4,7.4l-14.8,14.8l-7.3-7.3c-0.9-0.9-2.3-1.1-3.4-0.4c-1.4,1-1.5,2.9-0.4,4l7.4,7.4l-14.8,14.8l-11-11c-0.9-0.9-2.3-1.1-3.4-0.4
	c-1.4,1-1.5,2.9-0.4,4l11.1,11.1l-14.8,14.8l-7.3-7.3c-0.9-0.9-2.3-1.1-3.4-0.4c-1.4,1-1.5,2.9-0.4,4l7.4,7.4l-14.8,14.8l-7.3-7.3
	c-0.9-0.9-2.3-1.1-3.4-0.4c-1.4,1-1.5,2.9-0.4,4l7.4,7.4l-14.8,14.8l-7.3-7.3c-0.9-0.9-2.3-1.1-3.4-0.4c-1.4,1-1.5,2.9-0.4,4
	l7.4,7.4l-14.8,14.8l-11.1-11c-0.9-0.9-2.3-1.1-3.4-0.4c-1.4,1-1.5,2.9-0.4,4l11.1,11.1l-14.8,14.8l-7.3-7.3
	c-0.9-0.9-2.3-1.1-3.4-0.4c-1.4,1-1.5,2.9-0.4,4l7.4,7.4L243.5,260l-7.3-7.3c-0.9-0.9-2.3-1.1-3.4-0.4c-1.4,1-1.5,2.9-0.4,4l7.4,7.4
	L225,278.5l-7.3-7.3c-0.9-0.9-2.3-1.1-3.4-0.4c-1.4,1-1.5,2.9-0.4,4l7.4,7.4l-14.8,14.8l-11-11c-0.9-0.9-2.3-1.1-3.4-0.4
	c-1.4,1-1.5,2.9-0.4,4l11.1,11.1L188,315.6l-7.3-7.3c-0.9-0.9-2.3-1.1-3.4-0.4c-1.4,1-1.5,2.9-0.4,4l7.4,7.4l-14.8,14.8l-7.3-7.3
	c-0.9-0.9-2.3-1.1-3.4-0.4c-1.4,1-1.5,2.9-0.4,4l7.4,7.4l-14.8,14.8l-7.3-7.3c-0.9-0.9-2.3-1.1-3.4-0.4c-1.4,1-1.5,2.9-0.4,4
	l7.4,7.4l-14.8,14.8l-11-11c-0.9-0.9-2.3-1.1-3.4-0.4c-1.4,1-1.5,2.9-0.4,4l11.1,11.1l-20.2,20.2c-7.9-9.6-11.8-21.3-11.8-33.1
	c0-13.4,5.1-26.8,15.3-37L389.9,47.1c20.4-20.4,53.6-20.4,74,0c10.2,10.2,15.3,23.6,15.3,37C479.3,97.4,474.1,110.8,463.9,121.1z"/>
</svg>
