<?xml version="1.0" encoding="utf-8"?>
<!-- Generator: Adobe Illustrator 21.1.0, SVG Export Plug-In . SVG Version: 6.00 Build 0)  -->
<svg version="1.1" id="Layer_1" xmlns="http://www.w3.org/2000/svg" xmlns:xlink="http://www.w3.org/1999/xlink" x="0px" y="0px"
	 viewBox="0 0 505.9 512" style="enable-background:new 0 0 505.9 512;" xml:space="preserve">
<g>
	<g>
		<path d="M26.6,66.9C24.3,73.2,22,80,19.7,87.3c-2.6,8.6-5.1,17.8-7.4,27.4C6.7,138.6,3,163.1,1.4,188c-2.3,31.3-1.7,62.9,2,94.8
			c3,0.3,6.6,0.7,10.9,1c9.6,0.7,19.2,1.2,28.8,1.5c13.9,0.3,27.1,0.5,39.7,0.5c15.5-0.7,29.6-1.8,42.1-3.5V49.9H33.6
			C31.6,53.5,29.3,59.2,26.6,66.9z M58.4,89.3c1-2.3,2.5-4.7,4.5-7c1.7-2,4-3.5,6.9-4.5c2.6-1,5.3-1.5,7.9-1.5c3,0,5.8,0.5,8.4,1.5
			c2.3,1,4.6,2.5,6.9,4.5c2,2.3,3.5,4.7,4.5,7c1,2.7,1.5,5.5,1.5,8.5c0,2.7-0.5,5.3-1.5,8c-1,3-2.5,5.3-4.5,7
			c-2.3,2-4.6,3.5-6.9,4.5c-2.6,1.3-5.5,2-8.4,2c-2.6,0-5.3-0.7-7.9-2c-3-1-5.3-2.5-6.9-4.5c-2-1.7-3.5-4-4.5-7c-1.3-2.7-2-5.3-2-8
			C56.4,94.8,57,92,58.4,89.3z M66.2,149.6c13.2,3.2,27-1,27-1l-1,105l-59-1c0,0-1.8-27.6,0-55c2-31.1,7-62,7-62
			S52.9,146.3,66.2,149.6z M487.6,227c3.3-9.6,5-18.1,5-25.4c0.7-16.6-4.1-31.6-14.4-44.9c4-12.6,4-25.6,0-38.9
			c-3.3-12.3-9.3-22.6-17.9-30.9c2-24.9-3.3-45.1-15.9-60.4C430.6,9.8,409,1.2,379.6,0.5h-11.9h-24.8h-6c-14.5,0-30.4,1.7-47.6,5.2
			s-30.5,6.7-39.9,9.7c-9.4,3-22.7,7.3-39.9,13C182.7,38,165.6,43,158,43.4c-6,0.3-11,2.5-15.1,6.5s-6.2,8.8-6.2,14.5v217
			c7.6,5.3,14.7,10,21.3,14c4.6,2.7,12.6,10.3,24,22.9s22.4,25.9,33,39.9c14.9,19,25.9,32.1,33.2,39.4c4.3,4,7.8,9.3,10.7,16
			c2.8,6.7,4.7,12,5.7,16s2.3,10.8,4,20.4c1.7,8.3,3.1,14.9,4.5,19.7c1.3,4.8,3.5,10.6,6.4,17.2c3,6.6,6.6,12.3,10.9,17
			c4.3,4.3,9.4,6.5,15.4,6.5c22.1,3.7,38.6-1.1,49.3-14.2c10.7-13.1,17.3-29,19.8-47.6s2.8-33.5,1-44.6c-1.8-11.2-5-21.3-9.4-30.4
			c-4.5-9.2-9.5-20.2-15.1-33.2h91.1c17.2,0,32.1-6.2,44.6-18.7c12.6-12.5,18.8-27.4,18.8-44.6C506,257.6,499.9,240.9,487.6,227z
			 M440.1,308.8H302.6l1,2l1,2.5c0.7,1.7,1.2,3,1.5,4c1.7,3.3,3.1,6.3,4.5,9c11.2,24.6,24.5,53.6,29.8,68.9
			c5.6,14.3,6.7,30.5,3.2,48.6c-4,20.7-10.2,35.9-24.8,35.9c-7.5,0-12.4-5.4-15.6-21.1c-5.8-27.9-9.2-61.6-36-87.4
			c-21.1-20.3-40.1-51.6-57.9-71.5c-22.3-25-40.1-35.7-40.1-35.7l0.3-165.7c0,0-0.5-21-0.5-24c1.3-1.7,6.5-1.7,11.4-3
			c23.8-4,51-16.5,51-16.5c77.8-28.2,151.1-26.3,173.5-18c7.1,2.7,11.6,5.2,16.8,12.5c5.3,7.3,5.8,14.6,6.3,19.2
			c0.9,8.8,1.2,14.5-1,30.6c2.7,3.3,22,15.1,22,37.3c0,8.2-4.9,24.5-7,26c0,0,18.5,18,18.5,35.2c0,15.6-7,29.4-9.7,36.2
			c12.8,13.5,22.7,22.3,24.2,42.6C473.6,293.4,459.8,308.8,440.1,308.8z"/>
	</g>
</g>
</svg>
