<?xml version="1.0" encoding="utf-8"?>
<!-- Generator: Adobe Illustrator 21.1.0, SVG Export Plug-In . SVG Version: 6.00 Build 0)  -->
<svg version="1.1" id="Layer_1" xmlns="http://www.w3.org/2000/svg" xmlns:xlink="http://www.w3.org/1999/xlink" x="0px" y="0px"
	 viewBox="0 0 506.2 512" style="enable-background:new 0 0 506.2 512;" xml:space="preserve">
<g>
	<g>
		<path d="M43,226.7c-9.6,0.3-19.2,0.8-28.8,1.5c-4.3,0.3-7.9,0.7-10.9,1c-3.6,31.9-4.3,63.5-2,94.8c1.6,24.9,5.3,49.4,10.9,73.4
			c2.3,9.6,4.8,18.8,7.4,27.4c2.3,7.3,4.6,14.1,7,20.5c2.6,7.7,5,13.3,6.9,17h91.3V229.7c-12.6-1.7-26.6-2.8-42.2-3.5
			C70.1,226.2,56.9,226.4,43,226.7z M97.6,406.4c1,2.7,1.5,5.3,1.5,8c0,3-0.5,5.8-1.5,8.5c-1,2.3-2.5,4.7-4.5,7
			c-2.3,2-4.6,3.5-7,4.5c-2.6,1-5.5,1.5-8.4,1.5c-2.6,0-5.3-0.5-7.9-1.5c-3-1-5.3-2.5-6.9-4.5c-2-2.3-3.5-4.7-4.5-7
			c-1.3-2.7-2-5.5-2-8.5c0-2.7,0.7-5.3,2-8c1-3,2.5-5.3,4.5-7c1.7-2,4-3.5,6.9-4.5c2.6-1.3,5.3-2,7.9-2c3,0,5.8,0.7,8.4,2
			c2.3,1,4.6,2.5,7,4.5C95.1,401,96.6,403.4,97.6,406.4z M93.2,363.5c0,0-13.8-4.2-27-1c-13.3,3.3-26,14-26,14s-5-30.9-7-62
			c-1.8-27.4,0-55,0-55l59-1L93.2,363.5z M492.8,310.5c0-7.3-1.7-15.8-5-25.4c12.2-14,18.4-30.6,18.4-49.9
			c0-17.3-6.3-32.2-18.9-44.7c-12.6-12.5-27.4-18.7-44.6-18.7h-91.3c5.6-13,10.7-24,15.1-33.2c4.5-9.1,7.6-19.3,9.4-30.4
			s1.5-26-1-44.7c-2.5-18.6-9.1-34.5-19.8-47.7C344.5,2.7,328-2,305.9,1.7c-6,0-11.1,2.2-15.4,6.5c-4.3,4.7-7.9,10.3-10.9,17
			s-5.1,12.4-6.4,17.2s-2.8,11.4-4.5,19.7c-1.7,9.6-3,16.5-4,20.5s-2.9,9.3-5.7,16c-2.8,6.7-6.4,12-10.7,16
			c-7.3,7.3-18.4,20.5-33.2,39.4c-10.6,14-21.6,27.3-33,39.9c-11.4,12.7-19.4,20.3-24.1,23c-6.6,4-13.7,8.7-21.3,14V448
			c0,5.7,2.1,10.5,6.2,14.5c4.1,4,9.2,6.2,15.1,6.5c7.6,0.3,24.8,5.3,51.6,15c17.2,5.7,30.5,10,39.9,13s22.7,6.2,39.9,9.7
			c17.2,3.5,33,5.2,47.6,5.2h6h24.8h11.9c29.4-0.7,51.1-9.3,65-25.9c12.6-15.3,17.9-35.4,15.9-60.4c8.6-8.3,14.6-18.6,17.9-30.9
			c4-13.3,4-26.3,0-38.9C488.7,342.1,493.5,327.2,492.8,310.5z M460.7,314.3c0,17.3-18.5,35.2-18.5,35.2c2.1,1.4,7,17.8,7,26
			c0,22.2-19.3,34.1-22,37.3c2.2,16.2,1.9,21.8,1,30.7c-0.5,4.6-1,11.9-6.3,19.2c-5.3,7.3-9.7,9.8-16.8,12.5
			c-22.4,8.4-95.7,10.3-173.6-18c0,0-27.3-12.5-51-16.5c-4.9-1.3-10.1-1.3-11.4-3c0-3,0.5-24,0.5-24l-0.5-165.6
			c0,0,17.8-10.7,40.2-35.7c17.8-20,36.9-51.2,58-71.6c26.8-25.8,30.3-59.5,36-87.4c3.3-15.8,8.2-21.1,15.6-21.1
			c14.6,0,20.9,15.2,24.8,35.9c3.5,18.1,2.4,34.4-3.2,48.7c-5.3,15.3-18.6,44.3-29.8,68.9c-1.3,2.7-2.8,5.7-4.5,9
			c-0.3,1-0.8,2.3-1.5,4l-1,2.5l-1,2h137.6c19.8,0,33.6,15.3,34.9,32.2c-1.5,20.3-11.4,29-24.2,42.6
			C453.8,284.9,460.7,298.7,460.7,314.3z"/>
	</g>
</g>
</svg>
