<?xml version="1.0" encoding="utf-8"?>
<!-- Generator: Adobe Illustrator 22.0.1, SVG Export Plug-In . SVG Version: 6.00 Build 0)  -->
<svg version="1.1" id="Layer_1" xmlns="http://www.w3.org/2000/svg" xmlns:xlink="http://www.w3.org/1999/xlink" x="0px" y="0px"
	 viewBox="0 0 506.3 512" style="enable-background:new 0 0 506.3 512;" xml:space="preserve">
<g id="_x33_2">
	<path d="M249.7,0h-2.1c-8.3,0-15,6.7-15,15v57.9h32V15C264.6,6.7,257.9,0,249.7,0z"/>
	<path d="M0.6,146.9l-0.4,2c-1.4,8.1,4,15.9,12.1,17.3l57,10.1l5.6-31.5l-57-10.1C9.8,133.3,2,138.7,0.6,146.9z"/>
	<path d="M506.1,148.9l-0.4-2c-1.4-8.1-9.2-13.6-17.3-12.1l-57,10.1l5.6,31.5l57-10.1C502.1,164.8,507.5,157.1,506.1,148.9z"/>
	<path d="M33,293.8c-7.3,0.2-14.7,0.6-22,1.1c-3.3,0.2-6,0.5-8.3,0.8c-2.8,24.4-3.3,48.6-1.5,72.5c1.2,19,4.1,37.8,8.3,56.2
		c1.8,7.3,3.7,14.4,5.7,21c1.8,5.6,3.5,10.8,5.4,15.7c2,5.9,3.8,10.2,5.3,13h69.8v-178c-9.6-1.3-20.4-2.1-32.3-2.7
		C53.7,293.4,43.6,293.6,33,293.8z M74.7,431.3c0.8,2.1,1.1,4.1,1.1,6.1c0,2.3-0.4,4.4-1.1,6.5c-0.8,1.8-1.9,3.6-3.4,5.4
		c-1.8,1.5-3.5,2.7-5.4,3.4c-2,0.8-4.2,1.1-6.4,1.1c-2,0-4.1-0.4-6-1.1c-2.3-0.8-4.1-1.9-5.3-3.4c-1.5-1.8-2.7-3.6-3.4-5.4
		c-1-2.1-1.5-4.2-1.5-6.5c0-2.1,0.5-4.1,1.5-6.1c0.8-2.3,1.9-4.1,3.4-5.4c1.3-1.5,3.1-2.7,5.3-3.4c2-1,4.1-1.5,6-1.5
		c2.3,0,4.4,0.5,6.4,1.5c1.8,0.8,3.5,1.9,5.4,3.4C72.8,427.2,74,429,74.7,431.3z M71.4,398.5c0,0-10.6-3.2-20.7-0.8
		c-10.2,2.5-19.9,10.7-19.9,10.7S27,384.8,25.5,361c-1.4-21,0-42.1,0-42.1l45.1-0.8L71.4,398.5z M377.1,357.9
		c0-5.6-1.3-12.1-3.8-19.4c9.3-10.7,14.1-23.4,14.1-38.2c0-13.2-4.8-24.6-14.5-34.2c-9.6-9.6-21-14.3-34.1-14.3h-69.8
		c4.3-9.9,8.2-18.4,11.6-25.4c3.4-7,5.8-14.8,7.2-23.3c1.4-8.5,1.1-19.9-0.8-34.2c-1.9-14.2-7-26.4-15.1-36.5
		c-8.1-10-20.7-13.6-37.6-10.8c-4.6,0-8.5,1.7-11.8,5c-3.3,3.6-6,7.9-8.3,13c-2.3,5.1-3.9,9.5-4.9,13.2c-1,3.7-2.1,8.7-3.4,15.1
		c-1.3,7.3-2.3,12.6-3.1,15.7s-2.2,7.1-4.4,12.2c-2.1,5.1-4.9,9.2-8.2,12.2c-5.6,5.6-14.1,15.7-25.4,30.1
		c-8.1,10.7-16.5,20.9-25.2,30.5c-8.7,9.7-14.8,15.5-18.4,17.6c-5,3.1-10.5,6.7-16.3,10.7v166.1c0,4.4,1.6,8,4.7,11.1
		c3.1,3.1,7,4.7,11.6,5c5.8,0.2,19,4.1,39.5,11.5c13.2,4.4,23.3,7.7,30.5,9.9c7.2,2.3,17.4,4.7,30.5,7.4c13.2,2.7,25.2,4,36.4,4h4.6
		h19h9.1c22.5-0.5,39.1-7.1,49.7-19.8c9.6-11.7,13.7-27.1,12.2-46.2c6.6-6.3,11.2-14.2,13.7-23.6c3.1-10.2,3.1-20.1,0-29.8
		C373.9,382.1,377.6,370.7,377.1,357.9z M352.5,360.8c0,8.9-6.5,18.1-10.7,23.1c-1.8,2.2-2.4,5.2-1.5,7.9c1.6,4.5,3.3,11.6,3.3,15.8
		c0,12.9-8.6,21.3-13.6,25.6c-2,1.8-3.1,4.4-2.7,7.1c1.1,9.3,0.8,13.3,0.2,19.3c-0.4,3.5-0.8,9.1-4.8,14.7
		c-4.1,5.6-7.4,7.5-12.9,9.6c-17.1,6.4-73.2,7.9-132.8-13.8c0,0-20.9-9.6-39-12.6c-3.7-1-7.7-1-8.7-2.3c0-2.3,0.4-18.4,0.4-18.4
		l-0.4-126.7c0,0,13.6-8.2,30.8-27.3c13.6-15.3,28.2-39.2,44.4-54.8c20.5-19.7,23.2-45.5,27.5-66.9c2.5-12.1,6.3-16.1,11.9-16.1
		c11.2,0,16,11.6,19,27.5c2.7,13.8,1.8,26.3-2.4,37.3c-4.1,11.7-14.2,33.9-22.8,52.7c-0.1,0.2-0.2,0.4-0.3,0.6
		c-2.8,5.9,1.6,12.8,8.1,12.8h91.3c15.1,0,25.7,11.7,26.7,24.6c-1,13.5-6.9,20.3-14.8,28.7c-2.2,2.3-2.9,5.8-1.6,8.7
		C349.5,343.7,352.5,351.9,352.5,360.8z"/>
</g>
</svg>
