<?xml version="1.0" encoding="utf-8"?>
<!-- Generator: Adobe Illustrator 21.1.0, SVG Export Plug-In . SVG Version: 6.00 Build 0)  -->
<svg version="1.1" id="Layer_1" focusable="false" xmlns="http://www.w3.org/2000/svg" xmlns:xlink="http://www.w3.org/1999/xlink"
	 x="0px" y="0px" viewBox="0 0 512 512" style="enable-background:new 0 0 512 512;" xml:space="preserve">
<style type="text/css">
	.st0{fill:#040202;}
</style>
<g id="_x33_2_1_">
	<path class="st0" d="M511.9,223.2c0,29.1-10.9,56.4-30.8,76.8c-19.8,20.6-46.3,32-74.3,32h-40.5l22.3-32h18.2
		c19.8,0,38.3-8,52.3-22.5c14-14.5,21.7-33.8,21.7-54.3c0-16-4.8-31.5-13.9-44.7c-8.8-12.8-21-22.4-35.3-27.6l-5.7-2.1
		c-24.7-5.8-43.4-2-62.3,13l-12.1,9.6l5.1-14.6c3.3-9.3,16.5-38.4,54.7-38.8c-7-22.1-20.6-42.3-38.9-57.3c-11-9-23.4-16.1-36.9-20.9
		c-14-5.1-28.7-7.6-43.8-7.6c-29.2,0-57.2,9.8-79.6,27.7c27.1,14.5,35.2,43.9,33.7,60.3l-1.4,15.3l-7.1-13.6
		c-12.2-23.4-33.1-39.4-59.6-39.4c-26.3,0-47.2,12.8-59,32.1c15.8,2,28.6,8.8,38,20.1c9.8,11.7,13.3,25.6,14.5,32.8l2.8,16.5
		L163.2,171c-15-18-30.5-25.8-52-25.8c-3.3,0-6.4,0.2-9.5,0.5l-10.5,2c-35,6.7-60.4,38.5-60.4,75.5c0,20.5,7.7,39.8,21.7,54.3
		C66.5,292,85,300,104.8,300h63.4l-6.9,32h-56.5c-58,0-105.2-48.8-105.2-108.7c0-51.4,34.8-95.8,83.2-106.4
		c13.8-39.2,49.8-65.3,90.4-65.3c0.5,0,1,0,1.4,0C204.3,18.8,246.8,0,291.5,0c74.1,0,137.9,51.1,152.9,121.8
		C484.7,137.9,511.7,178.3,511.9,223.2z"/>
	<path class="st0" d="M274.4,259.5l-31.1,83.9l68.4-10.6l-66.6,97.8l12.4-66.2l-56.1,9.7l32.3-114.6H274.4 M214.7,237.3l-44.9,164
		L231,392l-19.2,120l145.8-207.1l-82.4,12.3l31.9-79.9H214.7z"/>
</g>
</svg>
