<?xml version="1.0" encoding="utf-8"?>
<!-- Generator: Adobe Illustrator 21.1.0, SVG Export Plug-In . SVG Version: 6.00 Build 0)  -->
<svg version="1.1" id="Layer_2" xmlns="http://www.w3.org/2000/svg" xmlns:xlink="http://www.w3.org/1999/xlink" x="0px" y="0px"
	 viewBox="0 0 512 512" style="enable-background:new 0 0 512 512;" xml:space="preserve">
<g>
	<g>
		<path d="M336.1,198.8l-18.8,18.8l26.6,26.6l18.8-18.8L336.1,198.8z M285.5,148.2L266.8,167l26.6,26.6l18.8-18.8L285.5,148.2z
			 M336.1,198.8l-18.8,18.8l26.6,26.6l18.8-18.8L336.1,198.8z M266.8,167l26.6,26.6l18.8-18.8l-26.6-26.6L266.8,167z M336.1,198.8
			l-18.8,18.8l26.6,26.6l18.8-18.8L336.1,198.8z M266.8,167l26.6,26.6l18.8-18.8l-26.6-26.6L266.8,167z"/>
		<path d="M444.4,139.7c-20.1,11.3-46.7,8.4-63.9-8.8c-17.2-17.2-20-43.7-8.7-63.8L303.6-0.9L0.4,302.5L68.8,371c0,0,0,0,0.1,0
			c20.1-11.2,46-8.3,63,8.8c17.1,17.1,20.4,43.1,9.1,63.2l-0.1-0.1l66.9,66.8l303.3-303.4L444.4,139.7z M388,288.2L207.8,468.4
			c0,0-32-32-33.1-33.1c8-30.5-6.1-60.5-23.3-77.7c-17.3-17.3-49.6-28.3-74.6-20c-0.6-0.6-35-35-35-35l180.2-180.3l21.3,21.3
			l18.8-18.8l-21.3-21.4l62.8-62.8c0,0,32.3,32.3,34.2,34.2c-5.5,20.3-2.6,51.8,21.5,76c28,28.1,67.5,27.1,77.2,22.7
			c2.1,2.1,33.1,33.1,33.1,33.1l-62.9,62.9L385.4,248l-18.8,18.8L388,288.2z"/>
	</g>
</g>
</svg>
