<?xml version="1.0" encoding="utf-8"?>
<!-- Generator: Adobe Illustrator 21.1.0, SVG Export Plug-In . SVG Version: 6.00 Build 0)  -->
<svg version="1.1" id="Shape_1_1_" xmlns="http://www.w3.org/2000/svg" xmlns:xlink="http://www.w3.org/1999/xlink" x="0px" y="0px"
	 viewBox="0 0 512 512" style="enable-background:new 0 0 512 512;" xml:space="preserve">
<g>
	<polygon points="178.9,156.2 156.2,178.9 233.4,256 156.2,333.1 178.9,355.8 256,278.6 333.1,355.8 355.8,333.1 278.6,256 
		355.8,178.9 333.1,156.2 256,233.4 	"/>
	<path d="M256,0C114.6,0,0,114.6,0,256s114.6,256,256,256s256-114.6,256-256S397.3,0,256,0z M256,479.5
		C132.5,479.5,32.5,379.4,32.5,256S132.5,32.5,256,32.5S479.5,132.6,479.5,256S379.4,479.5,256,479.5z"/>
</g>
</svg>
