<?xml version="1.0" encoding="utf-8"?>
<!-- Generator: Adobe Illustrator 21.1.0, SVG Export Plug-In . SVG Version: 6.00 Build 0)  -->
<svg version="1.1" id="Layer_3" xmlns="http://www.w3.org/2000/svg" xmlns:xlink="http://www.w3.org/1999/xlink" x="0px" y="0px"
	 viewBox="0 0 371.2 512" style="enable-background:new 0 0 371.2 512;" xml:space="preserve">
<g>
	<path d="M186,65.1c8,24.1,21,52.4,42.4,80.3c8.3,10.9,17.3,22,26.8,33.7c20.9,25.8,42.5,52.4,58.8,79.1
		c16.8,27.4,24.9,50,24.9,68.9c0,25.4-4.3,48.5-12.8,68.5c-7.6,18.1-18.7,33.7-32.8,46.4c-27,24.4-65.1,37.8-107.2,37.8
		s-80.1-13.4-107.2-37.8c-14.1-12.8-25.2-28.4-32.8-46.4c-8.5-20-12.8-43.1-12.8-68.5c0-26.9,9.5-59.1,28.3-95.7
		c15.9-31,38.4-64.8,66.6-100.3C148.5,105.8,169,83.1,186,65.1 M205.8,0C205.8,0,1,186.3,1,327.2C1,450.4,88.9,512,186.1,512
		s185.1-61.6,185.1-184.8c0-68.2-72.3-142.5-117-201.1C206.5,63.7,205.8,0,205.8,0L205.8,0z"/>
	<path d="M72.9,309c5,2.1,8,7.3,6.8,12.8c-5.5,27.1,0.4,50.4,17.8,69.7c5.3,5.8,11.5,11,18.6,15.7c5.1,3.3,6.6,10.4,2.8,15.7
		c-3.1,4.6-9,6.2-13.8,4.3c-0.8-0.3-1.4-0.5-2.1-1.1c-8.8-5.7-16.3-12.1-22.9-19.4c-22.2-24.3-30.1-55.2-23-89.4
		c1.3-6.3,7.3-10.3,13.5-9C71.5,308.5,72.2,308.8,72.9,309L72.9,309z"/>
</g>
</svg>
