<?xml version="1.0" encoding="utf-8"?>
<!-- Generator: Adobe Illustrator 21.1.0, SVG Export Plug-In . SVG Version: 6.00 Build 0)  -->
<svg version="1.1" id="Layer_5" xmlns="http://www.w3.org/2000/svg" xmlns:xlink="http://www.w3.org/1999/xlink" x="0px" y="0px"
	 viewBox="0 0 512 512" style="enable-background:new 0 0 512 512;" xml:space="preserve">
<g id="_x33_2_1_">
	<path d="M503.5,263.3L503.5,263.3c1.4-0.9,3.2-2,5.8-3.6c0,0,2.6-1.6,2.7-4.6c0.2-14-1.4-31.2-4.4-45.5c0,0-0.6-3-3.5-4.1
		c-2.8-1.1-4.8-1.8-6.3-2.4c-0.7-0.3-1.3-0.9-1.5-1.8c-0.2-0.9,0.1-1.8,0.7-2.4l0,0c1.1-1.2,2.6-2.7,4.7-4.9c0,0,2.1-2.2,1.4-5.2
		c-3.4-13.6-9.5-29.8-16.1-42.8c0,0-1.4-2.7-4.4-3s-5.2-0.5-6.7-0.7c-0.8-0.1-1.5-0.6-1.9-1.3c-0.4-0.8-0.4-1.8,0.1-2.5l0,0
		c0.8-1.4,1.8-3.3,3.2-5.9c0,0,1.5-2.7,0-5.4c-6.8-12.2-16.9-26.3-26.6-37.2c0,0-2-2.3-5.1-1.8c-3,0.5-5.1,0.8-6.6,1.1
		c-0.8,0.1-1.6-0.1-2.2-0.8c-0.6-0.7-0.8-1.6-0.6-2.5l0,0c0.4-1.6,0.9-3.7,1.6-6.6c0,0,0.7-3-1.4-5.2c-9.7-10-23.1-21-35.3-29
		c0,0-2.6-1.7-5.4-0.4c-2.8,1.2-4.7,2.1-6.1,2.8c-0.7,0.3-1.6,0.3-2.3-0.2c-0.8-0.5-1.2-1.4-1.2-2.2l0,0c0-1.6-0.1-3.8-0.2-6.8
		c0,0-0.1-3.1-2.7-4.7c-12-7.2-27.7-14.3-41.6-18.9c0,0-2.9-0.9-5.3,1s-4,3.3-5.2,4.2c-0.6,0.5-1.5,0.7-2.3,0.4
		c-0.9-0.3-1.5-1-1.7-1.8l0,0c-0.5-1.5-1.1-3.6-1.9-6.5c0,0-0.9-2.9-3.8-3.8c-13.4-3.8-30.5-6.7-45.1-7.5c0,0-0.2,0-0.5,0
		c-0.8,0-3.1,0.3-4.5,2.3c-1.8,2.5-3,4.2-3.9,5.4c-0.5,0.6-1.2,1-2.1,1s-1.7-0.6-2.1-1.3l0,0c-0.8-1.4-2-3.2-3.5-5.8
		c0,0-1.6-2.6-4.7-2.7c-14-0.2-31.2,1.4-45.5,4.4c0,0-3,0.6-4.1,3.5c-1.1,2.8-1.8,4.8-2.4,6.3c-0.3,0.7-0.9,1.3-1.8,1.5
		c-0.9,0.2-1.8-0.1-2.4-0.7l0,0c-0.2-0.2-0.4-0.4-0.6-0.6c-0.3-0.3-0.6-0.6-0.9-0.9c-0.3-0.3-0.6-0.6-1-1c-0.3-0.3-0.6-0.5-0.9-0.8
		c-0.4-0.4-0.9-0.9-1.4-1.4c0,0-2.2-2.1-5.2-1.4C175.2,12,159,18.1,146,24.7c0,0-2.7,1.4-3,4.4s-0.5,5.1-0.7,6.7
		c-0.1,0.8-0.5,1.5-1.3,1.9c-0.6,0.3-1.2,0.3-1.8,0.2c-1.4-0.7-3.4-1.8-6.3-3.4c-0.7-0.4-1.3-0.6-2-0.6c-1-0.2-2.4-0.2-3.8,0.5
		c-8.4,4.6-17.6,10.8-26,17.4c-3.9,3-7.6,6-11,8.9c-0.7,0.6-1.1,1.3-1.4,1.9c-0.4,0.9-0.8,2-0.6,3.4c0.6,3.5,1,5.9,1.2,7.4
		c-0.1,0.5-0.3,1-0.7,1.4c-0.6,0.6-1.5,0.8-2.2,0.6c-1.5-0.4-3.6-0.9-6.5-1.6c-3-0.7-5.2,1.4-5.2,1.4c-10.5,10.1-21.6,23.4-29.3,35
		c-1.7,2.6-0.4,5.4-0.4,5.4c1.2,2.7,2.1,4.7,2.8,6.2l0,0c0.4,0.8,0.4,1.7-0.1,2.5c-0.4,0.7-1.2,1.1-2,1.2c-1.5,0-3.7,0.1-6.7,0.1
		c-3.1,0.1-4.7,2.7-4.7,2.7c-7.6,12.5-14.9,28.2-19.3,41.4c-1,2.9,1,5.3,1,5.3c1.9,2.3,3.3,4,4.3,5.2l0,0c0.6,0.6,0.8,1.6,0.5,2.5
		c-0.2,0.8-0.9,1.4-1.6,1.6c-1.5,0.4-3.5,1-6.5,1.9c-2.9,0.9-3.8,3.8-3.8,3.8c-4.1,14-7.1,31.1-7.9,45c-0.2,3.1,2.3,4.9,2.3,4.9
		c0.9,0.6,1.7,1.2,2.4,1.7c0.4,0.3,0.7,0.5,1.1,0.8c0.5,0.4,1,0.7,1.5,1.1c0.2,0.1,0.4,0.2,0.5,0.4l0,0c0.7,0.5,1.2,1.3,1.2,2.2
		s-0.5,1.6-1.2,2c-1.3,0.8-3.1,1.9-5.7,3.5s-2.7,4.7-2.7,4.7c-0.3,14.6,1.2,31.8,4,45.5c0.6,3,3.5,4.1,3.5,4.1
		c2.8,1,4.8,1.8,6.3,2.4l0,0c0.8,0.3,1.5,0.9,1.7,1.9c0.2,0.8-0.1,1.7-0.6,2.3c-1,1.1-2.5,2.7-4.6,4.8c-2.1,2.2-1.4,5.2-1.4,5.2
		c3.5,14.2,9.4,30.4,15.7,42.9c1.4,2.7,4.4,3,4.4,3c2.9,0.3,5.1,0.5,6.7,0.7l0,0c0.9,0,1.7,0.5,2.1,1.3c0.4,0.8,0.4,1.6,0,2.3
		c-0.7,1.4-1.8,3.2-3.2,5.9c-1.5,2.7,0,5.4,0,5.4c7,12.8,17,26.9,26.2,37.4c2,2.3,5.1,1.8,5.1,1.8c2.9-0.5,5.1-0.8,6.7-1.1l0,0
		c0.8-0.2,1.8,0.1,2.4,0.7s0.8,1.5,0.6,2.3c-0.4,1.5-0.9,3.6-1.6,6.5c-0.7,3,1.4,5.2,1.4,5.2c10.1,10.5,23.4,21.6,35,29.3
		c2.5,1.7,5.4,0.4,5.4,0.4c2.7-1.2,4.7-2.1,6.2-2.8l0,0c0.8-0.4,1.7-0.4,2.5,0.1c0.7,0.5,1.1,1.2,1.2,2c0,1.5,0.1,3.7,0.2,6.7
		c0.1,3.1,2.7,4.7,2.7,4.7c12.5,7.6,28.2,14.9,41.4,19.3c2.9,1,5.3-1,5.3-1c2.3-1.9,4-3.3,5.2-4.3l0,0c0.6-0.6,1.6-0.8,2.5-0.6
		c0.2,0.1,0.5,0.2,0.7,0.4c0,0,0.1,0,0.1,0.1c0.2,0.1,0.4,0.3,0.5,0.5c0.4,1.5,1.1,3.8,2.1,7.2c0.9,2.9,3.8,3.8,3.8,3.8
		c14,4.1,31.1,7.1,45,7.9c0.4,0,0.7,0,1.1-0.1c0.3,0,0.5-0.1,0.8-0.1h0.1c0.2-0.1,0.5-0.2,0.7-0.3c0,0,0.1,0,0.1-0.1
		c0.2-0.1,0.4-0.2,0.6-0.3l0.1-0.1c0.2-0.1,0.3-0.2,0.5-0.3c0,0,0.1,0,0.1-0.1c0.1-0.1,0.3-0.2,0.4-0.3c0,0,0,0,0-0.1
		c0.1-0.1,0.2-0.2,0.3-0.3l0,0c0.1-0.1,0.2-0.3,0.2-0.3c0.5-0.6,0.9-1.2,1.2-1.7c0.1-0.1,0.2-0.3,0.3-0.4c1.2-1.6,2.1-2.9,2.7-3.8
		l0.1-0.1c0.5-0.4,1-0.6,1.7-0.6c0.9,0,1.6,0.5,2,1.2c0.8,1.3,1.9,3.1,3.5,5.7s4.7,2.7,4.7,2.7c14.6,0.3,31.8-1.2,45.5-4
		c3-0.6,4.1-3.5,4.1-3.5c1.1-2.8,1.8-4.8,2.4-6.3l0,0c0.3-0.8,1-1.5,1.9-1.7c0.8-0.2,1.6,0.1,2.2,0.6c1.1,1.1,2.7,2.5,4.9,4.6
		c2.2,2.1,5.2,1.4,5.2,1.4c14.2-3.5,30.4-9.4,42.9-15.7c2.7-1.4,3-4.4,3-4.4c0.3-2.9,0.5-5.1,0.7-6.7l0,0c0-0.9,0.5-1.7,1.3-2.1
		s1.6-0.4,2.3,0c1.4,0.7,3.2,1.8,5.9,3.2c0.7,0.4,1.4,0.5,2,0.6c1,0.2,2.4,0.2,3.8-0.5c8.3-4.7,17.6-10.8,26-17.4
		c3.9-3,7.6-6,11-8.9c0.7-0.6,1.1-1.3,1.3-1.9c0.4-0.9,0.8-2,0.6-3.4c-0.5-3-0.8-5.1-1.1-6.6c-0.1-0.8,0.2-1.6,0.8-2.2
		c0.7-0.6,1.6-0.8,2.5-0.6l0,0c1.6,0.4,3.7,0.9,6.6,1.6c0,0,3,0.7,5.2-1.4c10-9.7,21-23.1,29-35.3c0,0,1.7-2.6,0.4-5.4
		c-1.2-2.8-2.1-4.7-2.8-6.1c-0.3-0.7-0.3-1.6,0.2-2.3c0.5-0.8,1.4-1.2,2.2-1.2l0,0c0.1,0,0.1,0,0.2,0s0.2,0,0.3,0c0.5,0,1.1,0,1.7,0
		c1.3,0,2.7-0.1,4.5-0.1c0,0,3.1-0.1,4.6-2.7c7.2-12,14.3-27.7,18.9-41.6c0,0,0.9-2.9-1-5.3c-1.9-2.3-3.3-4-4.3-5.2
		c-0.5-0.6-0.7-1.5-0.4-2.3c0.3-0.9,1-1.5,1.8-1.7l0,0c1.5-0.5,3.6-1.1,6.5-1.9c0,0,2.9-0.9,3.8-3.8c3.8-13.4,6.7-30.5,7.5-45.1
		c0,0,0.2-3.1-2.3-4.9s-4.2-3-5.4-3.9c-0.6-0.5-1-1.2-1-2.1C502.2,264.5,502.8,263.8,503.5,263.3z M435.9,263
		c-3.8,99.4-87.5,177-186.9,173.2S72.1,348.7,75.9,249.3c3.8-99.4,87.4-176.9,186.9-173.1C362.2,80,439.7,163.7,435.9,263z"/>
	<g id="_x33_2">
		<circle cx="374.7" cy="255.5" r="12.8"/>
		<circle cx="136" cy="255.5" r="12.8"/>
		<ellipse transform="matrix(0.8576 -0.5144 0.5144 0.8576 -138.9541 213.9386)" cx="316.8" cy="357.9" rx="12.8" ry="12.8"/>
		<ellipse transform="matrix(0.8576 -0.5144 0.5144 0.8576 -51.1169 121.5614)" cx="193.9" cy="153.1" rx="12.8" ry="12.8"/>
		<ellipse transform="matrix(0.5142 -0.8577 0.8577 0.5142 -212.6569 340.266)" cx="194" cy="357.9" rx="12.8" ry="12.8"/>
		<ellipse transform="matrix(0.5142 -0.8577 0.8577 0.5142 22.5688 346.0089)" cx="316.7" cy="153.1" rx="12.8" ry="12.8"/>
		<path d="M256.2,80c-96.9,0-175.5,78.6-175.5,175.5S159.3,431,256.2,431s175.5-78.6,175.5-175.5S353.1,80,256.2,80z M410.2,259
			c0,0.7-0.1,1.4-0.1,2.1c0,0.5-0.1,1.1-0.1,1.6c0,0.7-0.1,1.4-0.1,2.1c0,0.5-0.1,1.1-0.1,1.6c-0.1,0.7-0.1,1.4-0.1,2.1
			c-0.1,0.5-0.1,1-0.1,1.5c-0.1,0.7-0.1,1.4-0.2,2.1c-0.1,0.5-0.1,1-0.1,1.4c-0.1,0.8-0.1,1.4-0.3,2.2c-0.1,0.3-0.1,0.7-0.1,1.1
			c-0.4,2.7-0.8,5.5-1.4,8.2c-0.1,0.3-0.1,0.5-0.1,0.8c-0.1,0.8-0.3,1.6-0.5,2.5c-0.1,0.3-0.1,0.6-0.2,1c-0.2,0.8-0.3,1.6-0.5,2.5
			c-0.1,0.3-0.1,0.6-0.2,0.9c-0.2,0.8-0.4,1.7-0.6,2.5c-0.1,0.2-0.1,0.4-0.1,0.6c-1.1,4.1-2.4,8.1-3.8,12.1l-81.7-47.2
			c0.1-1.7,0.2-3.4,0.2-5.1s-0.1-3.4-0.2-5.1l81.7-47.2c1.4,4,2.7,8.2,3.9,12.5l0,0c0.3,1,0.5,2,0.8,3c0,0.1,0.1,0.2,0.1,0.3
			c0.2,1,0.5,2,0.7,2.9c0,0.1,0.1,0.2,0.1,0.3c0.9,4.1,1.6,8.3,2.2,12.5c0,0.1,0,0.2,0.1,0.3c0.1,0.8,0.2,1.6,0.3,2.5
			c0.1,0.3,0.1,0.8,0.1,1.1c0.1,0.8,0.1,1.5,0.2,2.3c0.1,0.5,0.1,0.9,0.1,1.4c0.1,0.8,0.1,1.4,0.1,2.2c0.1,0.5,0.1,1,0.1,1.5
			c0.1,0.7,0.1,1.4,0.1,2.1c0,0.5,0.1,1,0.1,1.6c0,0.7,0.1,1.4,0.1,2.1c0,0.5,0,1,0,1.6c0,0.7,0,1.3,0,2c0,0.7,0,1.3,0,2
			C410.2,258,410.2,258.5,410.2,259z M373.7,355c-0.6,0.8-1.3,1.5-1.9,2.2c-0.1,0.1-0.1,0.2-0.3,0.3c-0.7,0.8-1.4,1.5-2.1,2.3
			l-0.1,0.1c-3.6,4-7.5,7.7-11.6,11.3c-0.1,0.1-0.1,0.1-0.2,0.2c-0.7,0.6-1.4,1.2-2.2,1.9c-0.1,0.1-0.3,0.3-0.4,0.3
			c-0.7,0.6-1.4,1.2-2.1,1.7c-0.2,0.1-0.3,0.3-0.5,0.4c-0.7,0.5-1.4,1.2-2.1,1.7c-0.1,0.1-0.3,0.3-0.5,0.3c-0.8,0.5-1.5,1.2-2.3,1.7
			c-0.1,0.1-0.2,0.1-0.3,0.2c-4.3,3.2-8.8,6.2-13.5,8.8l-0.1,0.1c-0.9,0.5-1.7,1-2.6,1.5c-0.1,0.1-0.3,0.1-0.4,0.2
			c-0.8,0.5-1.7,0.9-2.5,1.4c-0.1,0.1-0.3,0.1-0.5,0.3c-0.8,0.4-1.7,0.9-2.5,1.3c-0.1,0.1-0.3,0.1-0.4,0.2c-0.9,0.4-1.8,0.9-2.7,1.3
			c-0.1,0.1-0.1,0.1-0.3,0.1c-6,2.8-12.1,5.2-18.5,7.3H303c-1,0.3-2.1,0.6-3.1,1c-0.1,0-0.1,0.1-0.2,0.1c-1,0.3-2.1,0.6-3.1,0.9
			c-0.1,0-0.1,0.1-0.2,0.1c-4.3,1.2-8.7,2.2-13.2,2.9v-94.3c3.1-1.4,6-3.2,8.8-5.1l81.7,47.2C373.8,354.8,373.8,354.9,373.7,355z
			 M257.3,409.5c-0.3,0-0.8,0-1.1,0s-0.8,0-1.1,0c-0.5,0-1.1,0-1.6,0c-2.1-0.1-4.3-0.1-6.3-0.3v-91c2.9,0.4,6,0.6,9,0.6
			s6.1-0.2,9-0.6v91c-2.1,0.1-4.2,0.2-6.3,0.3C258.4,409.4,257.8,409.5,257.3,409.5z M107.4,295.3c-0.3-1-0.5-2-0.8-2.9
			c0-0.1-0.1-0.3-0.1-0.4c-0.2-1-0.5-1.9-0.7-2.9c0-0.1-0.1-0.3-0.1-0.4c-0.2-1-0.4-2-0.6-2.9l0,0c-0.8-4.2-1.5-8.4-2-12.6
			c0-0.3-0.1-0.5-0.1-0.8c-0.1-0.9-0.2-1.7-0.3-2.6c0-0.3-0.1-0.7-0.1-1c-0.1-0.8-0.1-1.7-0.2-2.5c0-0.3-0.1-0.7-0.1-1
			c-0.1-0.9-0.1-1.7-0.1-2.6c0-0.3,0-0.5,0-0.8c-0.1-2.1-0.1-4.1-0.1-6.2c0-2.1,0.1-4.2,0.1-6.2c0-0.3,0-0.5,0-0.8
			c0.1-0.9,0.1-1.8,0.1-2.7c0-0.3,0.1-0.6,0.1-0.9c0.1-0.9,0.1-1.8,0.2-2.7c0-0.3,0.1-0.5,0.1-0.8c0.1-0.9,0.2-1.9,0.3-2.7
			c0-0.1,0.1-0.3,0.1-0.5c1.4-12.1,4.1-23.9,8.2-35l81.7,47.2c-0.1,1.7-0.2,3.4-0.2,5.1c0,1.7,0.1,3.4,0.2,5.1l-81.7,47
			C109.9,303.7,108.6,299.6,107.4,295.3C107.4,295.3,107.4,295.3,107.4,295.3z M290.2,105.2c0.9,0.2,1.8,0.4,2.6,0.6
			c0.3,0.1,0.5,0.1,0.8,0.2c0.8,0.2,1.7,0.4,2.5,0.7c0.3,0.1,0.5,0.1,0.9,0.2c0.8,0.2,1.6,0.5,2.5,0.7c0.3,0.1,0.5,0.1,0.8,0.3
			c0.8,0.3,1.7,0.5,2.5,0.8c0.2,0.1,0.4,0.1,0.7,0.2c0.9,0.3,1.8,0.6,2.7,0.9c0.1,0,0.1,0.1,0.2,0.1c5.1,1.8,10.1,3.8,15.1,6.1
			c0.1,0.1,0.3,0.1,0.4,0.2c0.9,0.4,1.7,0.8,2.6,1.2c0.1,0.1,0.3,0.1,0.5,0.3c0.8,0.4,1.7,0.8,2.5,1.3c0.1,0.1,0.3,0.2,0.5,0.3
			c0.8,0.5,1.7,0.9,2.5,1.4c0.1,0.1,0.2,0.1,0.3,0.2c5.7,3.2,11.2,6.7,16.5,10.6c0,0,0,0,0.1,0c0.8,0.6,1.6,1.2,2.5,1.9
			c0.1,0.1,0.1,0.1,0.3,0.2c0.8,0.6,1.6,1.2,2.3,1.9c0.1,0.1,0.2,0.1,0.3,0.2c0.8,0.6,1.6,1.3,2.3,1.9c0.1,0.1,0.1,0.1,0.2,0.1
			c5.8,4.9,11.2,10.2,16.2,15.8c0.1,0.1,0.1,0.1,0.2,0.2c0.7,0.8,1.3,1.5,1.9,2.3c0.1,0.1,0.1,0.1,0.1,0.1l-81.7,47.2
			c-2.8-1.9-5.8-3.6-8.8-5.1v-94.1c2.1,0.3,4.2,0.8,6.2,1.2C289.8,105.2,290,105.2,290.2,105.2z M384.8,170.8
			c0.8,1.2,1.6,2.4,2.3,3.6c0.1,0.1,0.1,0.1,0.1,0.3c2.3,3.8,4.5,7.6,6.4,11.5c0.1,0.1,0.1,0.1,0.1,0.2L315.1,232
			c-2.3-5.7-5.3-11-9-15.7L384.8,170.8C384.8,170.8,384.8,170.8,384.8,170.8z M206.3,294.7l-78.8,45.5c-3.3-5-6.4-10.3-9-15.7
			l78.8-45.5C199.6,284.7,202.6,290,206.3,294.7z M247.1,101.7c2.1-0.1,4.2-0.2,6.3-0.3c0.5,0,1.1,0,1.6,0c0.3,0,0.8,0,1.1,0
			c3,0,6,0.1,9,0.3v91c-2.9-0.4-6-0.6-9-0.6s-6.1,0.2-9,0.6V101.7z M315.1,279l78.8,45.5c-2.7,5.4-5.8,10.6-9,15.7L306,294.7
			C309.7,290,312.8,284.7,315.1,279z M138.6,156c0.7-0.8,1.3-1.6,2-2.3c0.1-0.1,0.1-0.1,0.1-0.1c5-5.7,10.5-11,16.3-15.9
			c0.1-0.1,0.1-0.1,0.1-0.1c0.8-0.7,1.6-1.3,2.3-1.9c0.1-0.1,0.2-0.1,0.3-0.2c0.8-0.6,1.6-1.2,2.4-1.9c0.1-0.1,0.1-0.1,0.2-0.2
			c0.8-0.6,1.6-1.2,2.5-1.9l0,0c5.2-3.8,10.8-7.4,16.5-10.6c0.1-0.1,0.2-0.1,0.3-0.2c0.8-0.5,1.7-0.9,2.5-1.4
			c0.1-0.1,0.3-0.1,0.5-0.3c0.8-0.4,1.7-0.9,2.5-1.3c0.1-0.1,0.3-0.1,0.5-0.3c0.9-0.4,1.7-0.8,2.6-1.2c0.1-0.1,0.3-0.1,0.3-0.2
			c4.9-2.3,9.9-4.4,15.1-6.2c0.1,0,0.1-0.1,0.1-0.1c0.9-0.3,1.9-0.6,2.7-0.9c0.2-0.1,0.4-0.1,0.6-0.2c0.9-0.3,1.7-0.5,2.6-0.8
			c0.3-0.1,0.5-0.1,0.8-0.2c0.8-0.3,1.7-0.5,2.5-0.8c0.3-0.1,0.5-0.1,0.8-0.2c0.8-0.2,1.7-0.5,2.5-0.7c0.3-0.1,0.5-0.1,0.8-0.2
			c0.9-0.2,1.8-0.4,2.7-0.6c0.2-0.1,0.3-0.1,0.5-0.1c2.1-0.5,4.2-0.9,6.2-1.2v94.3c-3.1,1.4-6,3.2-8.8,5.1l-81.4-47.1
			C138.5,156.1,138.6,156.1,138.6,156z M127.6,170.8l78.8,45.5c-3.7,4.7-6.8,10-9,15.7l-78.8-45.5c0,0,0,0,0-0.1
			C121.3,181,124.3,175.8,127.6,170.8z M220.2,307.7c2.8,1.9,5.8,3.6,8.8,5.1v94.3l0,0c-0.3-0.1-0.5-0.1-0.8-0.1
			c-1-0.2-1.9-0.3-2.9-0.5c-0.5-0.1-1-0.2-1.4-0.3c-0.7-0.1-1.4-0.3-2.1-0.5c-0.5-0.1-1-0.3-1.6-0.3c-0.7-0.1-1.3-0.3-2-0.5
			c-0.5-0.1-1.1-0.3-1.6-0.4c-0.6-0.1-1.2-0.3-1.9-0.5c-0.5-0.1-1.1-0.3-1.6-0.5c-0.6-0.2-1.2-0.3-1.9-0.5c-0.5-0.1-1.1-0.3-1.6-0.5
			c-0.6-0.2-1.2-0.4-1.8-0.6c-0.5-0.2-1.1-0.3-1.6-0.5c-0.6-0.2-1.2-0.4-1.9-0.6c-0.5-0.2-1-0.3-1.5-0.5c-0.7-0.3-1.4-0.5-2.1-0.8
			c-0.8-0.3-1.6-0.6-2.3-1c-0.7-0.3-1.4-0.5-2.1-0.8c-0.5-0.2-1-0.5-1.6-0.7c-0.5-0.3-1.1-0.5-1.7-0.8c-0.5-0.3-1.1-0.5-1.6-0.8
			c-0.5-0.3-1.1-0.5-1.6-0.8c-0.5-0.3-1.1-0.5-1.6-0.8c-0.5-0.3-1-0.5-1.6-0.8c-0.5-0.3-1.1-0.5-1.6-0.8c-0.5-0.3-1-0.5-1.5-0.8
			c-0.5-0.3-1.1-0.5-1.6-0.9c-0.5-0.3-1-0.5-1.5-0.8c-0.5-0.3-1-0.6-1.6-0.9c-0.5-0.3-1-0.5-1.4-0.9c-0.5-0.3-1-0.6-1.6-1
			c-0.5-0.3-1-0.6-1.4-0.9c-1-0.6-2.1-1.3-3.1-2c-0.4-0.3-0.8-0.5-1.2-0.8c-0.5-0.3-1-0.8-1.6-1.1c-0.4-0.3-0.9-0.6-1.3-0.9
			c-0.5-0.3-1-0.8-1.6-1.1c-0.4-0.3-0.8-0.6-1.3-1c-0.5-0.4-1-0.8-1.5-1.2c-0.4-0.3-0.8-0.6-1.2-1c-0.5-0.4-1-0.8-1.5-1.2
			c-0.4-0.3-0.8-0.6-1.2-1c-0.5-0.4-1-0.8-1.5-1.2c-0.4-0.3-0.8-0.6-1.2-1c-0.5-0.4-1-0.9-1.5-1.3c-0.3-0.3-0.7-0.6-1-0.9
			c-0.5-0.5-1-1-1.6-1.4c-0.3-0.3-0.5-0.5-0.8-0.8c-2-1.9-4-3.8-5.9-5.8c-0.1-0.2-0.3-0.3-0.5-0.5c-0.5-0.5-1.1-1.2-1.6-1.8
			c-0.2-0.3-0.5-0.5-0.7-0.8c-0.5-0.5-1-1.2-1.6-1.7c-0.3-0.3-0.5-0.5-0.8-0.8c-0.5-0.6-1-1.2-1.6-1.8c-0.1-0.1-0.2-0.3-0.3-0.4
			L220.2,307.7z"/>
	</g>
</g>
</svg>
