<?xml version="1.0" encoding="utf-8"?>
<!-- Generator: Adobe Illustrator 21.1.0, SVG Export Plug-In . SVG Version: 6.00 Build 0)  -->
<svg version="1.1" id="Layer_5" xmlns="http://www.w3.org/2000/svg" xmlns:xlink="http://www.w3.org/1999/xlink" x="0px" y="0px"
	 viewBox="0 0 512 512" style="enable-background:new 0 0 512 512;" xml:space="preserve">
<g id="_x33_2">
	<circle cx="383.8" cy="255.9" r="13.8"/>
	<circle cx="126" cy="255.9" r="13.8"/>
	<ellipse transform="matrix(0.8576 -0.5144 0.5144 0.8576 -142.73 217.4395)" cx="321.3" cy="366.4" rx="13.8" ry="13.8"/>
	<ellipse transform="matrix(0.8576 -0.5144 0.5144 0.8576 -47.866 117.6723)" cx="188.5" cy="145.3" rx="13.8" ry="13.8"/>
	<ellipse transform="matrix(0.5142 -0.8577 0.8577 0.5142 -222.6225 339.8056)" cx="188.6" cy="366.4" rx="13.8" ry="13.8"/>
	<ellipse transform="matrix(0.5142 -0.8577 0.8577 0.5142 31.4207 346.0079)" cx="321.1" cy="145.3" rx="13.8" ry="13.8"/>
	<path d="M255.8,66.3c-104.7,0-189.5,84.9-189.5,189.5s84.9,189.5,189.5,189.5s189.5-84.9,189.5-189.5S360.5,66.3,255.8,66.3z
		 M412.5,312.3l-88.2-50.9c0.1-1.9,0.2-3.7,0.2-5.6c0-1.9-0.1-3.7-0.2-5.6l88.2-50.9C425.9,229.6,424.7,285.4,412.5,312.3z
		 M382.7,363.3c-5.7,11.7-52.2,51.6-97.7,56.2V317.7c3.3-1.6,6.5-3.5,9.6-5.6l88.2,50.9C382.8,363.2,382.8,363.2,382.7,363.3z
		 M246,421.9v-98.3c3.2,0.4,6.4,0.7,9.8,0.7s6.6-0.2,9.8-0.7v98.3C262.7,422.3,249.2,422.5,246,421.9z M99.4,199.5l88.2,50.9
		c-0.1,1.9-0.2,3.6-0.2,5.6c0,1.9,0.1,3.7,0.2,5.6l-88.3,50.8C86.7,279.7,84.9,232.3,99.4,199.5z M382.8,148.2
		c0.1,0.1,0.1,0.1,0.1,0.1l-88.2,50.9c-3-2.1-6.2-3.9-9.6-5.6V92.1C334.9,102.4,363.2,126,382.8,148.2z M394.7,164.4
		c0.8,1.3,1.7,2.6,2.5,3.9c0.1,0.1,0.1,0.1,0.1,0.3c2.5,4.1,4.8,8.2,7,12.4c0.1,0.1,0.1,0.1,0.1,0.2l-85.1,49.2
		c-2.4-6.1-5.8-11.8-9.8-17L394.7,164.4C394.7,164.4,394.7,164.4,394.7,164.4z M201.9,298.2l-85.1,49.1c-3.6-5.4-6.9-11.1-9.8-17
		l85.1-49.1C194.6,287.4,197.9,293.1,201.9,298.2z M246,89.8c2.3-0.1,4.5-0.2,6.8-0.3c0.6,0,1.2,0,1.8,0c0.4,0,0.8,0,1.2,0
		c3.3,0,6.5,0.1,9.8,0.3v98.3c-3.2-0.4-6.4-0.7-9.8-0.7s-6.6,0.2-9.8,0.7V89.8z M319.4,281.3l85.1,49.1c-3,5.8-6.2,11.5-9.8,17
		l-85.1-49.1C313.6,293.1,316.9,287.4,319.4,281.3z M226.2,92.1v101.8c-3.3,1.6-6.5,3.5-9.6,5.6l-87.9-50.9
		C153.9,117.4,192.4,97.8,226.2,92.1z M116.9,164.4l85.1,49.2c-4,5.1-7.3,10.8-9.8,17l-85.1-49.2c0,0,0,0,0-0.1
		C110.1,175.4,113.3,169.8,116.9,164.4z M216.9,312.2c3,2.1,6.2,3.9,9.6,5.6v101.9l0,0c-41.7-3.8-87.9-39.5-97.9-56.6L216.9,312.2z"
		/>
	<path d="M500.8,263.8c-0.1-2.8,0-5.6,0-8.4c0-21.6-2.8-42.5-8-62.4l13.6-7.5c-2.5-20.8-16.1-37.6-34.2-45
		c-11.3-21.1-25.5-40.4-42.2-57.2l9.5-11.5C427,53.9,406.1,45.5,386,48.1c-19.1-12-39.9-21.4-62-27.7L324.4,5
		c-19.3-8.7-40.8-5.6-56.6,6.2c-3.8-0.2-7.6-0.3-11.5-0.3c-19.5,0-38.4,2.3-56.6,6.6l-5.4-12.7c-23.1,0-43,14-51.5,34.1
		C123.6,49,105.8,61.6,90,76.3l-6.6-8.6c-24.6,9.5-38.6,34.6-35.3,59.6c-10.4,16.9-18.9,35.2-25,54.6l-8.5-3.2
		C-4.1,199.2-4.7,230,12,251.2c0,1.4-0.1,2.9-0.1,4.3c0,17.3,1.8,34.2,5.2,50.5l-7.9,1c-7.5,27.7,7.1,56.2,33.1,66.6
		c10.4,18.7,23.1,36,37.8,51.3l-8.1,6.4c9.8,24.5,34.9,38.2,59.9,34.6c17.4,10.3,36.1,18.5,55.8,24.3l-2.9,11.4
		c20.8,14.8,48.2,13.4,67.3-1.7c1.4,0,2.8,0.1,4.3,0.1c20.3,0,40.1-2.5,59-7.2l3.8,11.6c24.8,1.6,46.8-13.2,55.6-35
		c17.8-9.9,34.2-21.9,48.9-35.7l8.1,8.5c23.3-10.3,36.1-34.6,32.9-58.7c11.5-18.6,20.5-38.8,26.7-60.2l13.8,1.3
		C516.2,304.6,513.7,280.9,500.8,263.8z M256.8,456.3c-110.7,0-200.5-89.8-200.5-200.5S146.1,55.3,256.8,55.3
		s200.5,89.8,200.5,200.5S367.5,456.3,256.8,456.3z"/>
</g>
</svg>
