<?xml version="1.0" encoding="utf-8"?>
<!-- Generator: Adobe Illustrator 21.1.0, SVG Export Plug-In . SVG Version: 6.00 Build 0)  -->
<svg version="1.1" id="Layer_5" xmlns="http://www.w3.org/2000/svg" xmlns:xlink="http://www.w3.org/1999/xlink" x="0px" y="0px"
	 viewBox="0 0 512 512" style="enable-background:new 0 0 512 512;" xml:space="preserve">
<g id="_x33_2">
	<circle cx="428.9" cy="256.1" r="18.6"/>
	<circle cx="80.7" cy="256.1" r="18.6"/>
	<ellipse transform="matrix(0.8576 -0.5144 0.5144 0.8576 -159.4571 234.9076)" cx="344.4" cy="405.4" rx="18.6" ry="18.6"/>
	<ellipse transform="matrix(0.8576 -0.5144 0.5144 0.8576 -31.3664 100.1713)" cx="165.2" cy="106.7" rx="18.6" ry="18.6"/>
	<ellipse transform="matrix(0.5142 -0.8577 0.8577 0.5142 -267.3747 338.7112)" cx="165.3" cy="405.4" rx="18.6" ry="18.6"/>
	<ellipse transform="matrix(0.5142 -0.8577 0.8577 0.5142 75.7305 347.1436)" cx="344.3" cy="106.7" rx="18.6" ry="18.6"/>
	<path d="M256,0.1C114.6,0.1,0,114.7,0,256.1s114.6,256,256,256s256-114.6,256-256S397.4,0.1,256,0.1z M480.6,261.2c0,1-0.1,2-0.1,3
		c0,0.8-0.1,1.6-0.1,2.4c0,1-0.1,2-0.2,3c0,0.8-0.1,1.6-0.1,2.3c-0.1,1-0.1,2-0.2,3c-0.1,0.8-0.1,1.5-0.2,2.2c-0.1,1-0.2,2-0.3,3
		c-0.1,0.7-0.2,1.4-0.2,2.1c-0.1,1.1-0.2,2.1-0.4,3.2c-0.1,0.5-0.1,1-0.2,1.6c-0.6,4-1.2,8-2,12c-0.1,0.4-0.2,0.8-0.2,1.2
		c-0.2,1.2-0.5,2.4-0.7,3.6c-0.1,0.5-0.2,0.9-0.3,1.4c-0.3,1.2-0.5,2.4-0.8,3.6c-0.1,0.4-0.2,0.9-0.3,1.3c-0.3,1.2-0.6,2.5-0.9,3.7
		c-0.1,0.3-0.2,0.6-0.2,0.9c-1.6,6-3.5,11.8-5.5,17.6l-119.1-68.8c0.2-2.5,0.3-5,0.3-7.5s-0.1-5-0.3-7.5l119.1-68.8
		c2.1,5.9,4,12,5.7,18.2l0,0c0.4,1.5,0.8,2.9,1.1,4.4c0,0.1,0.1,0.3,0.1,0.4c0.3,1.4,0.7,2.9,1,4.3c0,0.2,0.1,0.3,0.1,0.5
		c1.3,6,2.4,12.1,3.2,18.3c0,0.2,0,0.3,0.1,0.5c0.2,1.2,0.3,2.4,0.4,3.6c0.1,0.5,0.1,1.1,0.2,1.6c0.1,1.1,0.2,2.2,0.3,3.3
		c0.1,0.7,0.1,1.3,0.2,2c0.1,1.1,0.2,2.1,0.2,3.2c0.1,0.7,0.1,1.5,0.1,2.2c0.1,1,0.1,2.1,0.2,3.1c0,0.8,0.1,1.5,0.1,2.3
		c0,1,0.1,2,0.1,3c0,0.8,0,1.5,0,2.3c0,1,0,1.9,0,2.9c0,1,0,1.9,0,2.9C480.6,259.7,480.6,260.5,480.6,261.2z M427.4,401.2
		c-0.9,1.1-1.9,2.2-2.8,3.2c-0.1,0.1-0.2,0.3-0.4,0.4c-1,1.1-2,2.2-3,3.3l-0.1,0.1c-5.3,5.8-11,11.3-16.9,16.5
		c-0.1,0.1-0.2,0.2-0.3,0.3c-1,0.9-2.1,1.8-3.2,2.7c-0.2,0.2-0.4,0.4-0.6,0.5c-1,0.9-2.1,1.7-3.1,2.5c-0.3,0.2-0.5,0.4-0.8,0.6
		c-1,0.8-2.1,1.7-3.1,2.5c-0.2,0.2-0.5,0.4-0.7,0.5c-1.1,0.8-2.2,1.7-3.3,2.5c-0.2,0.1-0.3,0.2-0.5,0.3c-6.3,4.6-12.9,9-19.7,12.9
		l-0.1,0.1c-1.3,0.7-2.5,1.5-3.8,2.2c-0.2,0.1-0.4,0.2-0.6,0.3c-1.2,0.7-2.5,1.3-3.7,2c-0.2,0.1-0.5,0.2-0.7,0.4
		c-1.2,0.6-2.5,1.3-3.7,1.9c-0.2,0.1-0.4,0.2-0.6,0.3c-1.3,0.6-2.6,1.3-3.9,1.9c-0.1,0.1-0.2,0.1-0.4,0.2c-8.7,4.1-17.7,7.6-27,10.6
		h-0.1c-1.5,0.5-3,0.9-4.5,1.4c-0.1,0-0.2,0.1-0.3,0.1c-1.5,0.4-3,0.9-4.5,1.3c-0.1,0-0.2,0.1-0.3,0.1c-6.3,1.7-12.7,3.2-19.3,4.3
		V339.6c4.5-2.1,8.8-4.7,12.9-7.5l119.1,68.8C427.6,401,427.5,401.1,427.4,401.2z M257.6,480.7c-0.5,0-1.1,0-1.6,0s-1.1,0-1.6,0
		c-0.8,0-1.6,0-2.4,0c-3.1-0.1-6.2-0.2-9.2-0.4V347.6c4.3,0.6,8.7,0.9,13.2,0.9s8.9-0.3,13.2-0.9v132.7c-3.1,0.2-6.1,0.3-9.2,0.4
		C259.2,480.6,258.4,480.7,257.6,480.7z M39,314.1c-0.4-1.4-0.7-2.9-1.1-4.3c0-0.2-0.1-0.4-0.1-0.6c-0.3-1.4-0.7-2.8-1-4.2
		c0-0.2-0.1-0.4-0.1-0.6c-0.3-1.4-0.6-2.9-0.9-4.3l0,0c-1.2-6.1-2.2-12.2-2.9-18.4c0-0.4-0.1-0.8-0.1-1.1c-0.1-1.3-0.3-2.5-0.4-3.8
		c0-0.5-0.1-1-0.1-1.4c-0.1-1.2-0.2-2.5-0.3-3.7c0-0.5-0.1-1-0.1-1.5c-0.1-1.3-0.1-2.5-0.2-3.8c0-0.4,0-0.8,0-1.2
		c-0.1-3-0.2-6-0.2-9s0.1-6.1,0.2-9.1c0-0.4,0-0.8,0-1.2c0.1-1.3,0.1-2.6,0.2-3.9c0-0.4,0.1-0.9,0.1-1.3c0.1-1.3,0.2-2.6,0.3-3.9
		c0-0.4,0.1-0.8,0.1-1.2c0.1-1.3,0.3-2.7,0.4-4c0-0.2,0.1-0.5,0.1-0.7c2-17.7,6-34.8,11.9-51l119.1,68.8c-0.2,2.5-0.3,4.9-0.3,7.5
		c0,2.5,0.1,5,0.3,7.5L44.7,332.3C42.6,326.4,40.7,320.4,39,314.1C39,314.2,39,314.1,39,314.1z M305.6,36.9c1.3,0.3,2.6,0.6,3.8,0.9
		c0.4,0.1,0.8,0.2,1.2,0.3c1.2,0.3,2.5,0.6,3.7,1c0.4,0.1,0.8,0.2,1.3,0.3c1.2,0.3,2.4,0.7,3.7,1c0.4,0.1,0.8,0.2,1.2,0.4
		c1.2,0.4,2.5,0.8,3.7,1.1c0.3,0.1,0.6,0.2,1,0.3c1.3,0.4,2.6,0.9,4,1.3c0.1,0,0.2,0.1,0.3,0.1c7.5,2.6,14.8,5.6,22,8.9
		c0.2,0.1,0.4,0.2,0.6,0.3c1.3,0.6,2.5,1.2,3.8,1.8c0.2,0.1,0.5,0.2,0.7,0.4c1.2,0.6,2.5,1.2,3.7,1.9c0.2,0.1,0.5,0.3,0.7,0.4
		c1.2,0.7,2.5,1.3,3.7,2c0.2,0.1,0.3,0.2,0.5,0.3c8.3,4.6,16.3,9.8,24,15.4c0,0,0,0,0.1,0c1.2,0.9,2.4,1.8,3.6,2.7
		c0.1,0.1,0.2,0.2,0.4,0.3c1.2,0.9,2.3,1.8,3.4,2.7c0.1,0.1,0.3,0.2,0.4,0.3c1.1,0.9,2.3,1.9,3.4,2.8c0.1,0.1,0.2,0.2,0.3,0.2
		c8.5,7.1,16.4,14.9,23.7,23.1c0.1,0.1,0.2,0.2,0.3,0.3c1,1.1,1.9,2.2,2.8,3.3c0.1,0.1,0.1,0.2,0.2,0.2l-119.1,68.8
		c-4.1-2.8-8.4-5.3-12.9-7.5V34.9c3,0.5,6.1,1.2,9.1,1.8C305,36.8,305.3,36.9,305.6,36.9z M443.6,132.6c1.1,1.7,2.3,3.5,3.4,5.3
		c0.1,0.1,0.1,0.2,0.2,0.4c3.4,5.5,6.5,11.1,9.4,16.8c0.1,0.1,0.1,0.2,0.2,0.3l-114.9,66.4c-3.3-8.3-7.8-16-13.2-22.9L443.6,132.6
		C443.6,132.5,443.6,132.5,443.6,132.6z M183.3,313.3L68.4,379.6c-4.8-7.3-9.3-15-13.2-22.9l114.9-66.3
		C173.4,298.7,177.9,306.4,183.3,313.3z M242.8,31.8c3.1-0.2,6.1-0.3,9.2-0.4c0.8,0,1.6,0,2.4,0c0.5,0,1.1,0,1.6,0
		c4.4,0,8.8,0.1,13.2,0.4v132.7c-4.3-0.6-8.7-0.9-13.2-0.9s-8.9,0.3-13.2,0.9V31.8z M341.9,290.4l114.9,66.3
		c-4,7.9-8.4,15.5-13.2,22.9l-114.9-66.3C334.1,306.4,338.6,298.7,341.9,290.4z M84.5,111c1-1.1,1.9-2.3,2.9-3.4
		c0.1-0.1,0.1-0.1,0.2-0.2c7.3-8.3,15.3-16.1,23.8-23.2c0.1-0.1,0.2-0.1,0.2-0.2c1.1-1,2.3-1.9,3.4-2.8c0.1-0.1,0.3-0.2,0.4-0.3
		c1.1-0.9,2.3-1.8,3.5-2.7c0.1-0.1,0.2-0.2,0.3-0.3c1.2-0.9,2.4-1.8,3.6-2.7l0,0c7.6-5.6,15.7-10.8,24-15.4c0.2-0.1,0.3-0.2,0.5-0.3
		c1.2-0.7,2.5-1.3,3.7-2c0.2-0.1,0.5-0.2,0.7-0.4c1.2-0.6,2.5-1.3,3.7-1.9c0.2-0.1,0.5-0.2,0.7-0.4c1.3-0.6,2.5-1.2,3.8-1.8
		c0.2-0.1,0.4-0.2,0.5-0.3c7.1-3.4,14.5-6.4,22-9c0.1,0,0.2-0.1,0.2-0.1c1.3-0.5,2.7-0.9,4-1.3c0.3-0.1,0.6-0.2,0.9-0.3
		c1.3-0.4,2.5-0.8,3.8-1.2c0.4-0.1,0.8-0.2,1.1-0.3c1.2-0.4,2.5-0.7,3.7-1.1c0.4-0.1,0.8-0.2,1.2-0.3c1.2-0.3,2.5-0.7,3.7-1
		c0.4-0.1,0.8-0.2,1.2-0.3c1.3-0.3,2.6-0.6,3.9-0.9c0.3-0.1,0.5-0.1,0.8-0.2c3-0.7,6.1-1.3,9.1-1.8v137.5c-4.5,2.1-8.8,4.7-12.9,7.5
		L84.4,111.2C84.4,111.1,84.5,111.1,84.5,111z M68.4,132.5l114.9,66.4c-5.4,6.9-9.9,14.6-13.2,22.9L55.2,155.4c0,0,0,0,0-0.1
		C59.2,147.4,63.6,139.8,68.4,132.5z M203.5,332.2c4.1,2.8,8.4,5.3,12.9,7.5v137.6l0,0c-0.4-0.1-0.7-0.1-1.1-0.2
		c-1.4-0.3-2.8-0.5-4.2-0.8c-0.7-0.1-1.4-0.3-2-0.4c-1-0.2-2.1-0.4-3.1-0.7c-0.8-0.2-1.5-0.4-2.3-0.5c-1-0.2-1.9-0.5-2.9-0.7
		c-0.8-0.2-1.6-0.4-2.4-0.6c-0.9-0.2-1.8-0.5-2.7-0.7c-0.8-0.2-1.6-0.4-2.4-0.7c-0.9-0.3-1.8-0.5-2.7-0.8c-0.8-0.2-1.6-0.5-2.4-0.7
		c-0.9-0.3-1.8-0.6-2.6-0.9s-1.6-0.5-2.3-0.8c-0.9-0.3-1.8-0.6-2.7-0.9c-0.7-0.3-1.5-0.5-2.2-0.8c-1-0.4-2-0.8-3-1.1
		c-1.2-0.4-2.3-0.9-3.4-1.4c-1-0.4-2-0.8-3-1.2c-0.8-0.3-1.5-0.7-2.3-1c-0.8-0.4-1.6-0.7-2.5-1.1c-0.8-0.4-1.6-0.7-2.4-1.1
		c-0.8-0.4-1.6-0.7-2.3-1.1c-0.8-0.4-1.6-0.8-2.4-1.2c-0.8-0.4-1.5-0.7-2.3-1.1s-1.6-0.8-2.4-1.2c-0.7-0.4-1.5-0.8-2.2-1.2
		c-0.8-0.4-1.6-0.8-2.3-1.3c-0.7-0.4-1.4-0.8-2.2-1.2c-0.8-0.4-1.5-0.9-2.3-1.3c-0.7-0.4-1.4-0.8-2.1-1.3c-0.8-0.5-1.5-0.9-2.3-1.4
		c-0.7-0.4-1.4-0.9-2.1-1.3c-1.5-0.9-3-1.9-4.5-2.9c-0.6-0.4-1.2-0.8-1.8-1.2c-0.8-0.5-1.5-1.1-2.3-1.6c-0.6-0.4-1.3-0.9-1.9-1.3
		c-0.8-0.5-1.5-1.1-2.3-1.6c-0.6-0.4-1.2-0.9-1.9-1.4c-0.8-0.6-1.5-1.1-2.2-1.7c-0.6-0.5-1.2-0.9-1.8-1.4c-0.7-0.6-1.5-1.2-2.2-1.8
		c-0.6-0.5-1.2-0.9-1.7-1.4c-0.7-0.6-1.5-1.2-2.2-1.8c-0.6-0.5-1.1-0.9-1.7-1.4c-0.7-0.6-1.5-1.3-2.2-1.9c-0.5-0.4-1-0.9-1.5-1.3
		c-0.8-0.7-1.5-1.4-2.3-2.1c-0.4-0.4-0.8-0.7-1.2-1.1c-2.9-2.7-5.8-5.5-8.6-8.4c-0.2-0.3-0.5-0.5-0.8-0.8c-0.8-0.8-1.6-1.7-2.4-2.6
		c-0.3-0.4-0.7-0.7-1-1.1c-0.8-0.8-1.5-1.7-2.3-2.5c-0.4-0.4-0.7-0.8-1.1-1.2c-0.8-0.9-1.5-1.7-2.3-2.6c-0.2-0.2-0.3-0.4-0.5-0.6
		L203.5,332.2z"/>
</g>
</svg>
