<?xml version="1.0" encoding="utf-8"?>
<!-- Generator: Adobe Illustrator 21.1.0, SVG Export Plug-In . SVG Version: 6.00 Build 0)  -->
<svg version="1.1" id="Layer_1" xmlns="http://www.w3.org/2000/svg" xmlns:xlink="http://www.w3.org/1999/xlink" x="0px" y="0px"
	 viewBox="0 0 467.2 512" style="enable-background:new 0 0 467.2 512;" xml:space="preserve">
<style type="text/css">
	.st0{fill-rule:evenodd;clip-rule:evenodd;}
</style>
<g id="_x33_2">
	<path d="M393.8,128.9V80.3c0-44.3-35.9-80.3-80.3-80.3H155.9c-44.3,0-80.3,36-80.3,80.3V128C31.7,143.4,0.2,185.1,0.2,234.3v217
		c0,33.5,27.2,60.7,60.7,60.7h345.4c33.5,0,60.7-27.2,60.7-60.7v-217C466.9,186,436.5,144.8,393.8,128.9z M96.6,80.3
		c0-32.7,26.6-59.3,59.3-59.3h157.7c32.7,0,59.3,26.6,59.3,59.3v43c-6-1-12.1-1.5-18.4-1.5H112.7c-5.5,0-10.9,0.4-16.1,1.2V80.3z
		 M112.7,153.8h241.7c38.6,0,70.9,27.3,78.7,63.6c-80.2,0-325.3,0.1-399.2,0.1C41.7,181.1,74.1,153.8,112.7,153.8z M434.9,451.3
		c0,15.8-12.9,28.7-28.7,28.7H60.9c-15.8,0-28.7-12.9-28.7-28.7V240.1l402.7,0.9V451.3z"/>
	<path d="M344.6,98c4.8,0.4,8.8-3.6,8.6-8.4c-0.5-9.1-2.6-23-10.9-32.6c-8.8-10.2-21.4-14.5-29.9-16.3c-4.8-1-9.4,2.6-9.6,7.6v0
		c-0.1,3.9,2.5,7.3,6.4,8.1c6.1,1.3,15.1,4.2,21.1,11.1c5,5.8,6.7,15.7,7,23C337.4,94.4,340.6,97.7,344.6,98L344.6,98z"/>
	<path d="M117.7,98c-4.8,0.4-8.8-3.6-8.6-8.4c0.5-9.1,2.6-23,10.9-32.6c8.8-10.2,21.4-14.5,29.9-16.3c4.8-1,9.4,2.6,9.6,7.6v0
		c0.1,3.9-2.5,7.3-6.4,8.1c-6.1,1.3-15.1,4.2-21.1,11.1c-5,5.8-6.7,15.7-7,23C124.8,94.4,121.7,97.7,117.7,98L117.7,98z"/>
	<path class="st0" d="M356.4,322.9h-7.8v-35.5c0-6-4.9-10.8-10.9-10.8s-10.9,4.8-10.9,10.8v35.5H319c-12.9,0-23.4,11.1-23.4,24.7
		c0,13.6,10.4,24.7,23.4,24.7h7.8v80.3h21.8v-80.3h7.8c12.9,0,23.4-11.1,23.4-24.7C379.7,333.9,369.3,322.9,356.4,322.9z
		 M351.9,359.9h-28.4c-6.7,0-12.1-5.5-12.1-12.3s5.4-12.4,12.1-12.4h28.4c6.7,0,12.1,5.5,12.1,12.4S358.6,359.9,351.9,359.9z"/>
</g>
</svg>
