<?xml version="1.0" encoding="utf-8"?>
<!-- Generator: Adobe Illustrator 21.1.0, SVG Export Plug-In . SVG Version: 6.00 Build 0)  -->
<svg version="1.1" id="Layer_4" xmlns="http://www.w3.org/2000/svg" xmlns:xlink="http://www.w3.org/1999/xlink" x="0px" y="0px"
	 viewBox="0 0 512 512" style="enable-background:new 0 0 512 512;" xml:space="preserve">
<g id="_x33_2_1_">
	<path d="M392,1c-0.3,0-0.6,0-0.9,0c0,0,0,0,0,0c0,0-292.3-1-292.6-1C44.1,0,0,83.3,0,186c0,1,0,326,0,326h304V313.4
		c21.9,36.6,53.2,59.6,88,59.6c66.3,0,120-83.3,120-186S458.3,1,392,1z M272.2,175.4c-0.2,3.8-0.2,7.7-0.2,11.6v29.5h-6.6v16.4h6.6
		V480H32V232.8h6.9v-16.4H32V186c0-43.9,9.2-86.4,25.1-116.5C69.5,46,85,32,98.5,32c3.2,0,146.5,0.5,225.7,0.7
		c-0.2,0.4-0.5,1-0.9,1.8C294.2,66.1,274.5,117.1,272.2,175.4z M395.1,340.9c-49.8,0-90.1-68.8-90.1-153.7
		c0-84.9,40.3-153.7,90.1-153.7c49.8,0,90.1,68.8,90.1,153.7C485.2,272,444.9,340.9,395.1,340.9z"/>
	<ellipse cx="400.1" cy="187.1" rx="43.9" ry="74.9"/>
	<path d="M108.9,232.8H55.4v-16.4h53.5V232.8z M178.9,232.8h-53.5v-16.4h53.5V232.8z M248.9,232.8h-53.5v-16.4h53.5V232.8z"/>
</g>
</svg>
