<?xml version="1.0" encoding="utf-8"?>
<!-- Generator: Adobe Illustrator 21.1.0, SVG Export Plug-In . SVG Version: 6.00 Build 0)  -->
<svg version="1.1" id="Layer_6" xmlns="http://www.w3.org/2000/svg" xmlns:xlink="http://www.w3.org/1999/xlink" x="0px" y="0px"
	 viewBox="0 0 580 512" style="enable-background:new 0 0 580 512;" xml:space="preserve">
<g>
	<path d="M574.6,245.5H324.1v25.4h-67v-25.4H5.4c-3,0-5.4,2.5-5.4,5.4v239.7c0,3,2.4,5.4,5.4,5.4h569.1c3,0,5.4-2.5,5.4-5.4V250.9
		C580,247.9,577.6,245.5,574.6,245.5z M548,464H32V277.5h516V464z"/>
	<path d="M574.5,109.8H417.1c-1.5,0-2.9-0.6-3.9-1.6c-1-1-1.6-2.3-1.6-3.8V28.5c0-3-2.4-5.5-5.4-5.5H173.8c-3,0-5.4,2.5-5.4,5.5
		v75.9c0,3-2.4,5.4-5.4,5.4H5.4c-3,0-5.4,2.5-5.4,5.4v104.4c0,3,2.4,5.4,5.4,5.4h251.7v-25.9h67V225h250.5c3,0,5.4-2.4,5.4-5.4
		V115.3C580,112.3,577.6,109.8,574.5,109.8z M201.1,61.2c0-3,2.4-5.4,5.4-5.4h166.9c3,0,5.4,2.4,5.4,5.4v43.1c0,3-2.4,5.4-5.4,5.4
		H206.5c-3,0-5.4-2.5-5.4-5.4V61.2z M548,193H32v-51.2h516V193z"/>
	<path d="M451.8,400.6l-3.2,0l-20.8-0.1c-10.1,0-18.3-8.3-18.3-18.4v-18.3c0-10.1,8.2-18.4,18.3-18.4l20.9-0.1l3.2,0
		c2-0.1,3.9-0.8,5.4-2.3c3-3,3.1-7.9,0.1-10.8l-0.5-0.5c-9.3-8.3-21.6-13-35.1-12.9c-19.7,0.2-37.1,10.9-46.6,26.9l-227.9-0.2
		c-6.9,0-13.8,2.9-19.1,8.2c-10.6,10.5-10.6,27.6,0,38.1c5.3,5.3,12.2,8.2,19.1,8.2l227.9,0.2c9.5,16,26.9,26.7,46.6,26.9
		c13.5,0.1,25.8-4.6,35.1-12.9l0.5-0.5c3-3,2.9-7.8-0.1-10.8C455.8,401.4,453.8,400.6,451.8,400.6z M156.9,379.5
		c-3.8,3.8-9.9,3.7-13.6,0c-3.8-3.8-3.7-9.9,0-13.6c3.8-3.8,9.9-3.7,13.6,0C160.6,369.6,160.6,375.7,156.9,379.5z"/>
	<rect x="278.4" y="222" width="24.4" height="26.1"/>
</g>
</svg>
