<?xml version="1.0" encoding="utf-8"?>
<!-- Generator: Adobe Illustrator 21.1.0, SVG Export Plug-In . SVG Version: 6.00 Build 0)  -->
<svg version="1.1" id="Layer_1" xmlns="http://www.w3.org/2000/svg" xmlns:xlink="http://www.w3.org/1999/xlink" x="0px" y="0px"
	 viewBox="0 0 520 512" style="enable-background:new 0 0 520 512;" xml:space="preserve">
<g>
	<g>
		<path d="M341.7,292.2c-8.8-8.8-16.3-5.5-16.3-5.5s3.9-8.5-2.1-14.5l-2.7-2.7l-7.5-7.5c-2.7-2.7-6.6-2.8-9.3,0l-13.2,13.7L70,55
			c0,0,4.2-11.4,0-15.5C65.9,35.4,19.4,3.9,19.4,3.9h-1.6l-17,17h0.5c0,0,32.8,45.9,37,50.2c4.3,4.3,16.2-0.5,16.2-0.5l219.1,221.6
			l-14.3,14.3c-2.7,2.7-2.7,7.1,0,9.9l10.2,10.2c5.5,5.5,14.5,2.1,14.5,2.1s-4.4,8.6,4.4,17.4L446.6,504c8.8,8.8,23.1,9.4,31.3,1.1
			L502,481c7.7-8.2,6.6-21.4-2.2-30.7L341.7,292.2z M447.5,473.1c-3.3,3.3-7.1,4.4-8.8,2.7L314.9,352c-1.6-1.6-0.6-5.5,2.7-8.8
			c3.3-3.3,7.1-4.4,8.8-2.7l124.4,123.9C452.4,466.5,450.8,470.4,447.5,473.1z M468.9,451.7c-3.3,3.3-7.1,4.4-8.8,2.7L336.3,330.6
			c-1.6-1.6-0.6-5.5,2.7-8.8c3.3-3.3,7.1-4.4,8.8-2.7l124.4,124.4C473.8,445.1,472.2,449,468.9,451.7z M515.7,130.7l-4.2-4
			c-4.1-4.1-9.3-6.7-14.5-7.4c-3.5-0.4-6.7,0.1-9.4,1.5l-11-11c3.9-3.9,8.8-9.4,1.3-17l-56-56C371.8,3.2,311.5,0.6,311.5,0.6
			s-3,3-3.4,3.4c0,0,27.8,5.7,43.4,14.9c15.4,9,28.1,20.5,28.1,20.5S365.7,28.9,350,20.1c-15.8-8.9-42.8-15.2-42.8-15.2
			c-1.4,1.4-3.4,3.4-3.4,3.4s47.9,13.9,68.4,51.9c-0.6,1.9-0.8,4.1-0.6,6.2c0.4,4.7,2.7,9.8,6.7,13.8l15.9,15.1l-136,129.6
			l27.2,27.5l130.3-135.5l19,19c7.8,7.8,13.2,2.6,16.5-0.8l11,11c-1.4,2.8-1.9,6-1.5,9.5c0.6,5.3,3.5,9.7,7.6,13.9
			c1.8,1.8,6.9,6.9,6.9,6.9c4.8,4.8,12.8,2.7,17.2-1.7l24.1-24.1C521.7,145.4,520.8,135.8,515.7,130.7z M223.8,259.1l-35.5,35.4
			l-2.6-2.6c-7.4-7.4-14.8-5.9-20.7,0L4.8,452.1c-8.8,8.8-4.3,18,3.9,26.3l24.1,24.1c8.2,7.7,16.9,12.7,26.3,3.9l160.1-160.3
			c6.7-6.7,6.2-14.5,0-20.7l-3.4-3.4l35.6-35.6L223.8,259.1z"/>
	</g>
</g>
</svg>
