<?xml version="1.0" encoding="utf-8"?>
<!-- Generator: Adobe Illustrator 22.0.1, SVG Export Plug-In . SVG Version: 6.00 Build 0)  -->
<svg version="1.1" id="Layer_1" xmlns="http://www.w3.org/2000/svg" xmlns:xlink="http://www.w3.org/1999/xlink" x="0px" y="0px"
	 viewBox="0 0 512 512" style="enable-background:new 0 0 512 512;" xml:space="preserve">
<g id="_x33_2">
	<path d="M366.9,313.4c-8.9-8.9-16.5-5.6-16.5-5.6s4-8.6-2.1-14.7l-2.7-2.7l-7.6-7.6c-2.7-2.7-6.7-2.8-9.4,0l-13.4,13.8L69,51.1
		c0,0,4.3-11.5,0-15.7C65.2,31.7,26.6,5.5,19,0.3c-0.8-0.5-1.8-0.4-2.5,0.2L0.6,15.5c-0.7,0.7-0.8,1.8-0.3,2.6
		C5.9,25.8,33,63.5,36.9,67.4c4.4,4.3,16.4-0.5,16.4-0.5l244.6,246.5l-14.5,14.5c-2.7,2.7-2.7,7.2,0,10l10.3,10.3
		c5.6,5.6,14.7,2.1,14.7,2.1s-4.5,8.7,4.5,17.6l137.8,137.1c8.9,8.9,23.4,9.5,31.7,1.1l24.4-24.4c7.8-8.3,6.7-21.6-2.2-31
		L366.9,313.4z M449.5,471.7c-3.3,3.3-7.1,4.4-8.8,2.7L339.5,373.1c-1.6-1.6-0.6-5.5,2.7-8.8c3.3-3.3,7.1-4.4,8.8-2.7L452.8,463
		C454.4,465.1,452.8,469,449.5,471.7z M470.9,450.3c-3.3,3.3-7.1,4.4-8.8,2.7L360.9,351.7c-1.6-1.6-0.6-5.5,2.7-8.8
		c3.3-3.3,7.1-4.4,8.8-2.7l101.9,101.9C475.8,443.7,474.2,447.6,470.9,450.3z"/>
	<path d="M332.1,260.8l-80.9-80.9l62.7-62.7c-5.3-31.8,4.8-64.9,27.5-88C358.7,11.7,381.1,1.4,404.6,0l0.8,0h1.1
		c14.2,0,25.8,11.7,25.8,26c0,6.9-2.7,13.6-7.5,18.4l-27.2,27.2c-6,6-6,15.9,0.1,22.1l20.6,20.6c6.2,6.1,16.1,6.1,22.1,0.1
		l23.6-23.4l4.1-4c5.1-4.6,11.3-7,17.9-7c14.3,0,26,11.6,26,25.8l0,1.9c-1.3,23.5-11.7,46-29.1,63.2c-23.1,22.7-56.2,32.8-88,27.4
		L332.1,260.8z M290.1,179.9l42.1,42.1l54.1-54l7.5,1.9c24.9,6.3,51.7-0.9,69.9-18.7c11.7-11.5,18.9-26.2,20.7-41.7l-0.9,0.9
		l-23.6,23.4c-16.6,16.6-43.8,16.7-60.8,0l-0.1-0.1L378.3,113c-16.8-16.8-16.8-44.1-0.1-60.8l24.5-24.5c-15.5,1.7-30.1,9-41.7,20.7
		c-17.8,18.2-25.1,45-18.8,69.9l1.9,7.5L290.1,179.9z"/>
	<path d="M57.1,512L57.1,512C25.6,511.9,0,486.2,0,454.8c0-15.5,6-30.4,16.4-40.8L181,249.6l81.5,81.5l-10,10L97.9,495.6
		C87.4,506,72.6,512,57.1,512z M181,288.3L35.8,433.4c-5.3,5.3-8.4,13.2-8.4,21.4c0,16.3,13.3,29.6,29.7,29.7c8.2,0,16-3.1,21.3-8.4
		L223.7,331L181,288.3z"/>
</g>
</svg>
