<?xml version="1.0" encoding="utf-8"?>
<!-- Generator: Adobe Illustrator 21.1.0, SVG Export Plug-In . SVG Version: 6.00 Build 0)  -->
<svg version="1.1" id="Layer_3" xmlns="http://www.w3.org/2000/svg" xmlns:xlink="http://www.w3.org/1999/xlink" x="0px" y="0px"
	 viewBox="0 0 450.8 512" style="enable-background:new 0 0 450.8 512;" xml:space="preserve">
<g>
	<path d="M450.7,121.5c-0.8-43.8-21.5-76.6-50.2-95.4C371.8,7,336.6,0.1,303,0c-25,0-49.1,3.9-69.8,10.8c-2.7,0.9-5.3,1.8-7.9,2.8
		l0,0c-0.1,0-0.1,0-0.2-0.1c-4.6-1.8-9.5-3.4-14.5-4.9c-0.1,0-0.1,0-0.2-0.1c-0.2-0.1-0.4-0.1-0.5-0.2c-0.1,0-0.2-0.1-0.4-0.1
		c-1.4-0.4-2.8-0.8-4.2-1.1c-0.3-0.1-0.6-0.2-1-0.2c-1.4-0.4-2.8-0.7-4.2-1c-0.3-0.1-0.6-0.2-0.9-0.2c-1.6-0.4-3.1-0.7-4.7-1
		c-0.2,0-0.3-0.1-0.5-0.1c-3.5-0.7-7.1-1.3-10.7-1.9c-0.4-0.1-0.9-0.1-1.3-0.2c-1.3-0.2-2.6-0.4-4-0.6c-0.7-0.1-1.3-0.2-2-0.2
		c-1.1-0.1-2.2-0.3-3.3-0.4c-0.8-0.1-1.6-0.2-2.4-0.2c-1-0.1-1.9-0.2-2.9-0.3c-0.5,0-0.9-0.1-1.4-0.1h-0.1l0,0
		C160,0.3,153.9,0,147.8,0C114.2,0.1,79,7,50.4,26.1C21.7,45,1,77.8,0.1,121.5v0.2c0,2.7-0.1,5.4-0.1,8.3
		c-0.4,53.8,15.6,82.9,29.1,106.4C42.3,260.2,53.5,279,53.8,330c0.1,69.2,11.3,113.2,27.9,141.6C98,499.8,121.3,512,140.8,512h0.3
		c5.5,0,10.6-0.9,15.4-2.6c7.3-2.6,12.9-8.3,16-13.8c3.2-5.6,4.8-11.3,6-17.1c2.3-11.7,2.7-24.7,3-39c0.6-28.6,1-62.3,9.6-90.9
		c3.6-12.3,8.1-25.3,13.9-34c6-8.5,10.9-12.5,20.2-13.5c9.3,1,14.2,5,20.2,13.5c5.9,8.7,10.3,21.7,13.9,34
		c11.5,37.7,8.1,83.5,10.8,116.2c1.1,11.1,2.4,21,7.9,30.8c3.1,5.5,8.7,11.2,16.1,13.9c4.6,1.7,9.8,2.6,15.3,2.6c0.1,0,0.2,0,0.3,0
		c19.6,0,42.8-12.2,59.2-40.4c16.6-28.4,27.8-72.5,27.9-141.6c0.4-51,11.5-69.7,24.7-93.6c13.5-23.5,29.6-52.6,29.1-106.4
		C450.8,127.2,450.8,124.4,450.7,121.5z M394.2,219.4l-0.2,0.3l-0.1,0.3l-1.1,1.9c-13.4,24.2-27.3,49.2-27.7,106.9v0.1v0.1
		c-0.1,56.7-8,99-23.6,125.5l0,0l0,0C331,472.6,317.9,479,309.9,479h-0.4l-0.1,1h-0.1c-1.4,0-2.6-0.2-3.7-0.5
		c-2.1-3.9-2.8-8.7-3.7-17.7c-0.7-8.7-0.9-19-1.2-29.8c-0.7-29.1-1.5-62-10.8-92.7c-3.9-13.2-9.5-29.9-18-42.7l-0.2-0.3l-0.2-0.3
		c-7.9-11.1-19.9-24.2-42.7-26.8l-3.6-0.4l-3.6,0.4c-22.9,2.6-34.9,15.7-42.7,26.8l-0.2,0.3l-0.2,0.3c-8.6,12.7-13.9,28.7-18.1,42.7
		c-9.5,31.6-10.3,67.2-10.9,95.9l-0.1,3.4c-0.3,11.9-0.6,24.2-2.4,33.5c-0.7,3.5-1.4,5.6-2.3,7.3c-1.1,0.3-2.3,0.4-3.7,0.4h-0.3
		c-8,0-21-6.4-31.5-24.5v-0.1V455c-15.5-26.6-23.5-68.8-22.9-125.5v-0.1v-0.1c-1-57.7-14.8-82.7-28.2-106.9l-1.1-1.9l-0.1-0.3
		l-0.2-0.3c-11.8-20.5-24.5-90.1-24.5-90.1v-1.4c0,0-0.3-4.4-0.3-6.4l0.3-0.3v-0.2c0.6-29.8,13.4-54.3,35.8-69l0.1-0.1l0.1-0.1
		C93.8,35.6,125.6,32,147.8,32c16,0,31.8,1.9,46.1,5.3c56.7,59.9,117.7,48.5,117.7,48.5S271.4,71.4,243.8,41
		c17.8-5.9,38.3-9,59.5-9.1c22.2,0,54.1,3.7,79.7,20.8l0.1,0.1l0.1,0.1c22.5,14.8,35.3,39.4,35.8,69.3v0.1v0.1
		c0.1,2.3,0.1,4.9,0.1,7.4C419.3,175.8,406,199,394.2,219.4z M419.1,129.7V129v0.2C419.1,129.4,419.1,129.5,419.1,129.7z"/>
	<path d="M100.5,149.3c0-16.1,12.6-28.7,28.6-28.7c-16,0-28.6-12.6-28.6-28.7c0,16.1-12.5,28.7-28.6,28.7
		C88,120.6,100.5,133.2,100.5,149.3z"/>
</g>
</svg>
