<?xml version="1.0" encoding="utf-8"?>
<!-- Generator: Adobe Illustrator 21.1.0, SVG Export Plug-In . SVG Version: 6.00 Build 0)  -->
<svg version="1.1" id="Layer_4" xmlns="http://www.w3.org/2000/svg" xmlns:xlink="http://www.w3.org/1999/xlink" x="0px" y="0px"
	 viewBox="0 0 512 512" style="enable-background:new 0 0 512 512;" xml:space="preserve">
<path id="_x33_2_1_" d="M512,63.4c2-49.3-161.8-63.5-250.1-64.1c-1.4,0-2.7,0-4.1,0C193.4-0.7,133,3.6,86.4,13
	C30.7,23.9,1.9,39.7,0.1,60.5C0,61.4,0,62.3,0,63.2h0c0,56.4,20.4,77.9,28.2,94.4C42.9,188.8,46.3,213.2,50,232
	c7.7,39.1,35.1,88.9,49.4,111.8c17.3,27.6,62.7,81.2,67.5,86.8c10.8,12.6,23.2,33.2,32.8,50.7c10.4,19,30.4,30.7,52,30.7h27.1
	c27.8,0,51.9-19.4,58-46.5c4.8-21.4,7.5-44.3,5-62.2c-4.1-29-2.9-51.9,1.5-76.5c5.8-32.7,23-61.4,35.5-81.6
	c20.7-33.5,74.3-75.7,94-96.6C497.9,121.9,512,89,512,63.4L512,63.4z M92.5,44.7L92.5,44.7l0.2,0c42.4-8.5,99.5-13,165.1-13
	c1.3,0,2.6,0,3.9,0c46.1,0.3,97,4.2,136.2,10.3c45.6,7.2,67,15.8,76.5,21.1c-7.6,4.3-54.6,28.3-215.2,30.5
	c-143.6,2-212.6-26.2-222-31.5C44.8,57.7,60.7,51,92.5,44.7z M322.4,482.7c-31.2,1.6-54.8,1.6-69.8,1.3c-14-0.3-28.3-1.2-41-2.1
	c-0.5-0.9-18.2-32.9-31.7-50.5c35.6,2,72.7,3.6,88.5,4.1c10.5,0.3,39.1,0.6,62.8,0.7C330.6,444.5,326.4,472.3,322.4,482.7z
	 M269.8,402.5c-21.6-0.7-76.2-2.8-118-5.6c-7.8-9.2-15-18.1-21.5-26.7c-6.5-8.6-12.5-16.9-17.8-24.9c46.4,5.4,104.3,10.9,139.5,11.9
	c11.8,0.4,48.5,1.4,77,2.1c-0.4,10.8,0,21.5,1.4,32.1c0.5,3.9,0.9,7.8,1.2,11.7C308.2,403.1,280.1,402.8,269.8,402.5z M333,326.6
	c-14.8-0.4-74.9-2-79.7-2.2c-41.4-1.3-115.2-8.8-162.4-14.9c-4.7-8.7-18.8-40.7-21.4-48c55.5,9.9,139.9,16.3,217.6,16.3
	c0,0,47.3,0,61.8,0C341.7,293.7,336.3,310,333,326.6z M366.7,245.2c-26.2,0-70.9,0.1-79.5,0.1c-82.7,0-173.5-7.7-226.2-19.1
	c-0.7-0.2-1.4-0.2-2-0.2c-1.7-6.8-3.2-13.2-4.6-19.3c-2.3-10.3-4.5-19.9-7.3-28.9c62.1,9.5,155.1,17.5,212.7,17.5h0.2
	c52.4,0,108.8-3.3,155.5-7.5C396.2,205.4,379.8,224.7,366.7,245.2z M456.7,150.6c-58.1,9.9-193.2,11.8-196.6,11.8
	c-66.4-0.7-173.8-10.7-229.3-20.8c-5.8-10.4-10.1-20.3-13.3-30c-3.2-9.7-5.2-19-6.4-28.4c38.2,32,173.7,44.4,248.2,42.6
	c127.3-3,199.9-14.1,238.6-39.6C491,107.7,475.7,131.7,456.7,150.6z"/>
</svg>
