<?xml version="1.0" encoding="utf-8"?>
<!-- Generator: Adobe Illustrator 21.1.0, SVG Export Plug-In . SVG Version: 6.00 Build 0)  -->
<svg version="1.1" id="Layer_1" xmlns="http://www.w3.org/2000/svg" xmlns:xlink="http://www.w3.org/1999/xlink" x="0px" y="0px"
	 viewBox="0 0 673 512" style="enable-background:new 0 0 673 512;" xml:space="preserve">
<g id="_x33_2">
	<path d="M509.7,365.6c-40.2,0-72.7,32.6-72.7,72.7s32.6,72.7,72.7,72.7s72.7-32.6,72.7-72.7S549.8,365.6,509.7,365.6z M509.7,473.9
		c-19.7,0-35.6-15.9-35.6-35.6s15.9-35.6,35.6-35.6s35.6,15.9,35.6,35.6S529.3,473.9,509.7,473.9z"/>
	<path d="M149.4,365.6c-40.2,0-72.7,32.6-72.7,72.7s32.6,72.7,72.7,72.7s72.7-32.6,72.7-72.7S189.6,365.6,149.4,365.6z M149.4,473.9
		c-19.7,0-35.6-15.9-35.6-35.6s15.9-35.6,35.6-35.6s35.6,15.9,35.6,35.6S169.1,473.9,149.4,473.9z"/>
	<path d="M650.1,390.5c0-0.7,0.4-119,0.4-119c0-2-0.3-41.2-0.8-47.2s-1.3-10.6-2.5-13.9c-1.2-3.3-10.1-19.1-13.4-22.4L561.4,84.6
		c-4.9-5-11.2-9.1-18.9-12.4s-14.8-5-21.3-5H462V35.4c0-8.6-6.9-15.5-15.5-15.5l0,0c-8.6,0-15.5,6.9-15.5,15.5v138.7H293.6
		L169.2,58.8c0.3-2.1,0.4-4.3,0.4-6.6c0-28.5-23-51.5-51.5-51.5c-28.4,0-51.5,23-51.5,51.5c0,12,4.1,23,11,31.7
		c-3.8,30.5,23.1,47.7,27.7,58.8c5.8,13.3-6.7,20.7-16.2,18.6c-3.5-0.8-5.5-6.8-6.5-11.9c-0.8-3.9-4.4-6.5-8.3-5.9
		c-4.5,0.6-7.4,5.2-6.1,9.5c3.9,12.5,14.2,33.4,38.4,21.8c33.7-16.2,15.8-42.8-0.4-58.5c-7.1-6.9-12.6-13.4-15.6-20.6
		c8,5,17.4,8,27.5,8c14.5,0,27.6-6,37-15.7l137.7,126.7v64.8H8.8v10l0,0c0,2,0,4,0,6v16l0,0C8.9,408.4,9,421.1,9,421.3
		c-5,0-9,3-9,7.9s4,9,9,9h46.8c0-54.8,44.1-93.6,93.6-93.6c49.6,0,93.6,40.6,93.6,93.6c131.9,0,173-0.1,173-0.1
		c0-41.1,31.6-93.5,93.6-93.5c59.3,0,93.4,50.4,93.4,93.5c0,0,34.6,0.1,47.1,0.1s22.9-12.6,22.9-24.9S662.1,390.5,650.1,390.5z
		 M91.2,52.2c0-14.9,12-26.9,26.9-26.9s26.9,12,26.9,26.9s-12,26.9-26.9,26.9S91.2,67.1,91.2,52.2z M462.1,102.6h58.3
		c7.2,0,12.3,0.9,15.2,2.7v6.6l-1.9-0.9l-1,1c-0.3,1-0.5,2.2-0.5,3.5s0.2,2.5,0.5,3.5l1,1l5.9,3.5c0.3,0,0.6-0.5,1-1.5
		c0.3-1,0.5-2,0.5-3c0-1.3-0.2-2.5-0.5-3.5c-0.3-0.7-1.1-1.5-2.4-2.5l-1.5-0.7V106l76.8,115.3c2.6,2.3,3.9,5.1,3.9,8.4v18H462.1
		V102.6z M324.8,206.1H409v73.3h-84.2V206.1z M389.2,406.4c-4.4,0-116.4,0.1-119.2,0c-12.7-56.6-66.6-93.6-120.5-93.6
		c-42,0-84.5,20.7-108.6,61.8c0-6.4-0.4,10.6-0.7-63.1H431V340C412.1,355.4,397.1,377.4,389.2,406.4z M618.2,375.5h-0.9
		c-30.1-56.1-99.8-75.8-155.4-53.6v-43.5c2.4,0.4,5.1,0.6,7.9,0.6c32.9,0,148.4,0,148.4,0L618.2,375.5L618.2,375.5z"/>
</g>
</svg>
