<?xml version="1.0" encoding="utf-8"?>
<!-- Generator: Adobe Illustrator 21.1.0, SVG Export Plug-In . SVG Version: 6.00 Build 0)  -->
<svg version="1.1" id="Layer_2" xmlns="http://www.w3.org/2000/svg" xmlns:xlink="http://www.w3.org/1999/xlink" x="0px" y="0px"
	 viewBox="0 0 696.1 512" style="enable-background:new 0 0 696.1 512;" xml:space="preserve">
<g>
	<path d="M184.3,415.6L184.3,415.6c0.5-0.3,1.2-0.8,2.1-1.4c0,0,0.9-0.6,0.9-1.8c-0.1-5.2-1-11.6-2.3-16.9c0,0-0.3-1.1-1.3-1.5
		c-1.1-0.4-1.8-0.6-2.3-0.8c-0.3-0.1-0.5-0.3-0.6-0.6c-0.1-0.3,0-0.7,0.2-0.9l0,0c0.4-0.5,0.9-1.1,1.6-1.9c0,0,0.7-0.9,0.4-2
		c-1.4-5-3.9-11-6.5-15.7c0,0-0.5-1-1.7-1.1c-1.1-0.1-1.9-0.1-2.5-0.2c-0.3,0-0.6-0.2-0.7-0.5c-0.2-0.3-0.2-0.7,0-0.9l0,0
		c0.3-0.5,0.6-1.3,1.1-2.3c0,0,0.5-1-0.1-2c-2.7-4.5-6.5-9.6-10.2-13.5c0,0-0.8-0.8-1.9-0.6c-1.1,0.2-1.9,0.4-2.4,0.5
		c-0.3,0-0.6,0-0.8-0.3c-0.2-0.2-0.3-0.6-0.2-0.9l0,0c0.1-0.6,0.3-1.4,0.5-2.5c0,0,0.2-1.1-0.6-1.9c-3.7-3.6-8.7-7.5-13.3-10.3
		c0,0-1-0.6-2-0.1s-1.7,0.9-2.2,1.1c-0.3,0.1-0.6,0.1-0.9,0c-0.3-0.2-0.5-0.5-0.5-0.8l0,0c0-0.6-0.1-1.4-0.2-2.5
		c0,0-0.1-1.1-1.1-1.7c-4.5-2.5-10.3-5-15.5-6.5c0,0-1.1-0.3-1.9,0.4c-0.8,0.8-1.4,1.3-1.8,1.7c-0.2,0.2-0.5,0.3-0.8,0.2
		c-0.3-0.1-0.6-0.3-0.7-0.7l0,0c-0.2-0.6-0.4-1.3-0.8-2.4c0,0-0.4-1.1-1.5-1.4c-5-1.2-11.3-2.1-16.6-2.1c0,0-0.1,0-0.2,0
		c-0.3,0-1.1,0.2-1.6,0.9c-0.6,0.9-1,1.6-1.4,2.1c-0.2,0.2-0.4,0.4-0.8,0.4c-0.3,0-0.6-0.2-0.8-0.5l0,0c-0.3-0.5-0.8-1.2-1.4-2.1
		c0,0-0.6-1-1.7-0.9c-5.1,0.1-11.4,1-16.6,2.3c0,0-1.1,0.3-1.4,1.4c-0.4,1.1-0.6,1.8-0.8,2.4c-0.1,0.3-0.3,0.5-0.6,0.6
		c-0.3,0.1-0.7,0-0.9-0.2l0,0c-0.1-0.1-0.2-0.1-0.2-0.2c-0.1-0.1-0.2-0.2-0.3-0.3c-0.1-0.1-0.2-0.2-0.4-0.3
		c-0.1-0.1-0.2-0.2-0.3-0.3c-0.2-0.2-0.3-0.3-0.5-0.5c0,0-0.8-0.8-1.9-0.4c-4.9,1.5-10.8,4-15.4,6.6c0,0-1,0.6-1.1,1.7
		s-0.1,1.9-0.2,2.5c0,0.3-0.2,0.6-0.5,0.7c-0.2,0.1-0.4,0.1-0.7,0.1c-0.5-0.3-1.3-0.6-2.3-1.2c-0.3-0.1-0.5-0.2-0.7-0.2
		c-0.4-0.1-0.9-0.1-1.4,0.3c-3,1.9-6.3,4.3-9.3,6.9c-1.4,1.2-2.7,2.3-3.9,3.5c-0.2,0.2-0.4,0.5-0.5,0.7c-0.2,0.3-0.3,0.8-0.2,1.3
		c0.3,1.3,0.4,2.2,0.5,2.7c0,0.2-0.1,0.4-0.3,0.5c-0.2,0.2-0.5,0.3-0.8,0.3c-0.6-0.1-1.3-0.3-2.4-0.5s-1.9,0.6-1.9,0.6
		c-3.7,3.9-7.6,9-10.2,13.5c-0.6,1-0.1,2-0.1,2c0.5,1,0.8,1.7,1.1,2.3l0,0c0.2,0.3,0.2,0.6,0,0.9s-0.4,0.4-0.7,0.5
		c-0.6,0-1.3,0.1-2.5,0.2c-1.1,0.1-1.7,1.1-1.7,1.1c-2.6,4.8-5,10.7-6.5,15.7c-0.3,1.1,0.4,2,0.4,2c0.7,0.8,1.3,1.4,1.6,1.9l0,0
		c0.2,0.2,0.3,0.6,0.2,0.9c-0.1,0.3-0.3,0.5-0.6,0.6c-0.5,0.2-1.3,0.4-2.3,0.8c-1.1,0.4-1.3,1.5-1.3,1.5c-1.3,5.3-2.1,11.7-2.3,16.9
		c0,1.1,0.9,1.8,0.9,1.8c0.3,0.2,0.6,0.4,0.9,0.6c0.1,0.1,0.3,0.2,0.4,0.3c0.2,0.1,0.4,0.3,0.5,0.4c0.1,0,0.1,0.1,0.2,0.1l0,0
		c0.3,0.2,0.5,0.5,0.5,0.8s-0.2,0.6-0.4,0.8c-0.5,0.3-1.1,0.8-2.1,1.4C0,419.2,0,420.4,0,420.4c0.1,5.4,0.9,11.9,2.1,16.9
		c0.3,1.1,1.3,1.5,1.3,1.5c1,0.4,1.8,0.6,2.3,0.8l0,0c0.3,0.1,0.6,0.3,0.7,0.7c0.1,0.3,0,0.6-0.2,0.9c-0.4,0.4-0.9,1-1.6,1.9
		s-0.4,2-0.4,2c1.5,5.2,3.9,11.2,6.3,15.8c0.5,1,1.7,1.1,1.7,1.1c1.1,0.1,1.9,0.1,2.5,0.2l0,0c0.3,0,0.6,0.2,0.8,0.5s0.2,0.6,0,0.9
		c-0.3,0.5-0.6,1.2-1.1,2.2s0.1,2,0.1,2c2.7,4.7,6.6,9.8,10.1,13.6c0.8,0.8,1.9,0.6,1.9,0.6c1.1-0.2,1.9-0.4,2.4-0.5l0,0
		c0.3-0.1,0.6,0,0.9,0.2c0.2,0.2,0.3,0.5,0.3,0.8c-0.1,0.6-0.3,1.3-0.5,2.5c-0.2,1.1,0.6,1.9,0.6,1.9c3.8,3.8,8.8,7.7,13.2,10.5
		c1,0.6,2,0.1,2,0.1c1-0.5,1.7-0.9,2.2-1.1l0,0c0.3-0.2,0.6-0.2,0.9,0c0.3,0.2,0.4,0.4,0.5,0.7c0,0.6,0.1,1.4,0.2,2.5
		c0.1,1.1,1.1,1.7,1.1,1.7c4.7,2.6,10.5,5.1,15.4,6.6c1.1,0.3,1.9-0.4,1.9-0.4c0.8-0.7,1.4-1.3,1.9-1.7l0,0c0.2-0.2,0.6-0.3,0.9-0.2
		c0.1,0,0.2,0.1,0.3,0.1l0,0c0.1,0.1,0.1,0.1,0.2,0.2c0.2,0.6,0.5,1.4,0.9,2.6c0.4,1.1,1.4,1.4,1.4,1.4c5.2,1.3,11.5,2.2,16.6,2.3
		c0.1,0,0.3,0,0.4,0s0.2,0,0.3-0.1l0,0c0.1,0,0.2-0.1,0.2-0.1l0,0c0.1,0,0.1-0.1,0.2-0.1l0,0c0.1,0,0.1-0.1,0.2-0.1l0,0l0.1-0.1l0,0
		l0.1-0.1l0,0c0-0.1,0.1-0.1,0.1-0.1c0.2-0.2,0.3-0.5,0.4-0.7c0-0.1,0.1-0.1,0.1-0.2c0.4-0.6,0.7-1.1,1-1.5l0,0
		c0.2-0.1,0.4-0.2,0.6-0.2c0.3,0,0.6,0.2,0.8,0.4c0.3,0.5,0.7,1.1,1.4,2.1c0.6,1,1.7,0.9,1.7,0.9c5.3-0.1,11.6-0.9,16.6-2.1
		c1.1-0.3,1.5-1.4,1.5-1.4c0.3-1.1,0.6-1.8,0.8-2.4l0,0c0.1-0.3,0.3-0.6,0.7-0.7c0.3-0.1,0.6,0,0.8,0.2c0.4,0.4,1,0.9,1.8,1.7
		c0.8,0.8,1.9,0.4,1.9,0.4c5.1-1.5,11-3.9,15.5-6.5c1-0.6,1.1-1.7,1.1-1.7c0.1-1.1,0.1-1.9,0.1-2.5l0,0c0-0.3,0.2-0.6,0.5-0.8
		c0.3-0.2,0.6-0.2,0.9,0c0.5,0.3,1.2,0.6,2.2,1.1c0.3,0.1,0.5,0.2,0.7,0.2c0.4,0.1,0.9,0.1,1.4-0.3c3-1.9,6.3-4.3,9.3-6.9
		c1.4-1.2,2.7-2.3,3.9-3.5c0.2-0.2,0.4-0.5,0.5-0.7c0.2-0.3,0.3-0.8,0.2-1.3c-0.2-1.1-0.4-1.9-0.5-2.5c0-0.3,0-0.6,0.3-0.8
		c0.2-0.2,0.6-0.3,0.9-0.2l0,0c0.6,0.1,1.4,0.3,2.4,0.5c0,0,1.1,0.2,1.9-0.6c3.5-3.8,7.4-8.9,10.1-13.6c0,0,0.6-1,0.1-2
		s-0.8-1.7-1.1-2.2c-0.1-0.3-0.1-0.6,0-0.9c0.2-0.3,0.5-0.5,0.8-0.5l0,0h0.1h0.1c0.2,0,0.4,0,0.6,0c0.5,0,1-0.1,1.7-0.1
		c0,0,1.1-0.1,1.7-1.1c2.5-4.6,4.9-10.6,6.3-15.8c0,0,0.3-1.1-0.4-2s-1.3-1.4-1.6-1.9c-0.2-0.2-0.3-0.5-0.2-0.9
		c0.1-0.3,0.3-0.6,0.6-0.7l0,0c0.6-0.2,1.3-0.5,2.4-0.8c0,0,1.1-0.4,1.3-1.5c1.2-5.1,2-11.5,2.1-16.9c0,0,0-1.1-0.9-1.8
		c-0.9-0.6-1.6-1.1-2.1-1.4c-0.2-0.2-0.4-0.4-0.4-0.8C183.8,416.1,184,415.8,184.3,415.6z M135.5,447.1c-16.6,23.6-48.8,29-72,12.1
		c-23.1-16.9-28.4-49.8-11.8-73.4s48.8-29,72-12.1C146.8,390.6,152.1,423.5,135.5,447.1z"/>
	<ellipse cx="93.3" cy="416.5" rx="17.1" ry="17.4"/>
	<ellipse cx="93.3" cy="386.6" rx="3.9" ry="4"/>
	<ellipse cx="93.3" cy="446.3" rx="3.9" ry="4"/>
	<ellipse cx="122.6" cy="416.5" rx="3.9" ry="4"/>
	<ellipse cx="64.1" cy="416.5" rx="3.9" ry="4"/>
	<path d="M693.4,246.3c-23.5-33.7-56.6-58.7-93.9-72.2l16.6-77.2c-60.1-8.6-85.1,31.8-101.2,66.9c-91.7,9.6-164.7,84.4-173.6,178.2
		h-20.7c0-0.3,0-0.6,0-0.9c0-48.5,17.1-92.8,45.5-127.2l-2.9-2.9l9.6-8c0.8,0.4,1.8,0.7,2.8,0.9c4.2,0.4,7.9-2.7,8.3-7
		s-2.6-8.1-6.8-8.5c-4.2-0.4-7.9,2.7-8.3,7c-0.1,1,0,2,0.3,3l-10.1,8.4l-21.6-22l19.5-19.9c18.4,16.7,38.9,23.4,46.6,15.1
		c7.9-8.7-1-30.2-19.8-48.2c-18.9-17.9-40.6-25.5-48.5-16.8c-7.3,8-0.3,27.1,15.8,44.1l-19.4,19.8L314.3,161
		c-4-4.1-9.5-6.4-15.2-6.4h-33.7V66.9c0-6-4.9-11-10.8-11h-2.2V31.7c0-7.7,6.1-13.9,13.6-13.9c0.6,0,1.3,0,1.9,0.1v-15
		c-1-0.1-1.9-0.2-2.9-0.2c-14.6,0-26.4,12.1-26.4,27v26.2h-5.2c-6.1,0-10.8,4.9-10.8,11v87.7h-140c-23.7,0-42.9,19.6-42.9,43.8
		l-0.1,107c0.3-0.1,0.5-0.2,0.8-0.3c15.5-7.4,32.8-11.5,51-11.5c51.9,0,96.2,33.4,113.3,80.3h118.7l0,0h45.5l0,0h2.5
		c0,0-0.1-11.6-0.1-12.7c0-92.1,73.4-167.1,163.7-167.1c48.2,0,93.8,21.6,125,59.2l1,1.2l1.4-0.3c9.5-2.2,19.3-3.5,29.2-3.9l4.5-0.2
		L693.4,246.3z M343.6,121c4.4-4.8,19.7,2.6,34.2,16.4s22.8,28.9,18.4,33.7s-19.7-2.6-34.2-16.4C347.5,140.9,339.3,125.8,343.6,121z
		 M224.6,342c-26.5-48.8-77.6-80.3-133.3-80.3c-6.9,0-13.6,0.5-20.3,1.4v-64.6c0-6.5,5.2-11.8,11.5-11.8H295l29.9,30.5
		c-23.1,36.8-35.6,79.9-35.6,124c0,0.3,0,0.6,0,0.9h-64.7V342z"/>
	<path d="M670.5,361.2c0-12.2-1.6-24-4.5-35.3l7.5-4.3c-1.4-11.8-8.9-21.2-19-25.5c-6.2-11.9-14.1-22.8-23.4-32.3l5.3-6.5
		c-6.9-10.1-18.4-14.8-29.6-13.3c-10.6-6.8-22.1-12.1-34.3-15.7l0.2-8.7c-10.7-4.9-22.6-3.2-31.4,3.5c-2.1-0.1-4.2-0.2-6.3-0.2
		c-10.8,0-21.3,1.3-31.4,3.7l-3-7.2c-12.8,0-23.8,7.9-28.5,19.3c-10.7,5.7-20.5,12.9-29.3,21.2l-3.6-4.9
		c-13.6,5.4-21.4,19.5-19.5,33.7c-5.8,9.6-10.5,19.9-13.8,30.8l-4.7-1.8c-10.4,11.6-10.8,29-1.5,41c0,0.8,0,1.6,0,2.4
		c0,9.8,1,19.3,2.9,28.5l-4.4,0.6c-4.2,15.6,4,31.7,18.3,37.6c5.7,10.6,12.8,20.3,20.9,29l-4.5,3.6c5.4,13.8,19.3,21.6,33.2,19.6
		c9.6,5.8,20,10.5,30.9,13.7l-1.6,6.5c11.5,8.4,26.7,7.6,37.3-1c0.8,0,1.6,0,2.4,0c11.3,0,22.2-1.4,32.7-4.1l2.1,6.6
		c13.7,0.9,26-7.4,30.8-19.8c9.8-5.6,18.9-12.4,27.1-20.2l4.5,4.8c12.9-5.8,20-19.6,18.2-33.2c6.3-10.5,11.4-21.9,14.8-34.1l7.7,0.7
		c6.1-11.3,4.7-24.7-2.5-34.4C670.5,364.4,670.5,362.8,670.5,361.2z M535.1,445.9c-45.8,0-83-37.9-83-84.7s37.2-84.7,83-84.7
		s83,37.9,83,84.7C618,408,580.9,445.9,535.1,445.9z"/>
	<ellipse cx="535.1" cy="361.2" rx="33.4" ry="34.1"/>
</g>
</svg>
