<?xml version="1.0" encoding="utf-8"?>
<!-- Generator: Adobe Illustrator 21.1.0, SVG Export Plug-In . SVG Version: 6.00 Build 0)  -->
<svg version="1.1" id="Layer_1" focusable="false" xmlns="http://www.w3.org/2000/svg" xmlns:xlink="http://www.w3.org/1999/xlink"
	 x="0px" y="0px" viewBox="0 0 392 512" style="enable-background:new 0 0 392 512;" xml:space="preserve">
<g id="_x33_2">
	<path d="M196,212.9c-26.3,0-47.3,21-47.3,47.3c0,26.3,21,47.3,47.3,47.3s47.3-21,47.3-47.3C243.3,233.9,222.3,212.9,196,212.9z
		 M196,287.5c-15.3,0-27.3-12-27.3-27.3c0-15.3,12-27.3,27.3-27.3s27.3,12,27.3,27.3C223.3,275.5,211.3,287.5,196,287.5z"/>
	<path d="M196,357.4c15.3,0,27.3,12,27.3,27.3S211.3,412,196,412s-27.3-12-27.3-27.3v-0.2l0-0.2c-0.1-7,2.5-13.6,7.4-18.7
		C181.3,360.3,188.4,357.4,196,357.4 M196,337.4c-26.3,0-47.9,21-47.3,47.3c0,26.3,21,47.3,47.3,47.3c26.3,0,47.3-21,47.3-47.3
		C243.3,358.4,222.3,337.4,196,337.4L196,337.4z"/>
	<path d="M376.9,360.5h-61.5v-52.5c44.2-13.2,67.8-44.7,75.7-83.6c2.1-9.5-5.3-18.4-14.7-18.4h-61v-52.5
		c44.2-13.1,67.8-44.7,75.7-83.6c2.1-9.5-5.3-18.4-14.7-18.4h-61V24.7c0-13.6-11.1-24.7-24.7-24.7H100.8C87.2,0,76.1,11.1,76.1,24.7
		v26.8h-61c-10,0-16.8,8.9-14.7,18.4c8.4,38.8,31.4,70.2,75.7,83.5c0.2,0.1,0.4,0.1,0.5,0.2V206H15.1c-10,0-16.8,8.9-14.7,18.4
		c8.4,38.8,31.4,70.2,75.7,83.5c0.2,0.1,0.4,0.1,0.5,0.2v52.5H15.1c-10,0-16.8,8.9-14.7,18.4c8.4,38.9,31.5,70.5,76.2,83.6
		c0,27.3,22.1,49.4,49.4,49.4h140.4c27.3,0,49.4-22.1,49.4-49.4c44.2-13.2,67.8-44.7,75.7-83.6C393.7,369.5,386.4,360.5,376.9,360.5
		z M76.1,119.5c-11-4.5-19.9-10.8-27-19c-4.2-4.9-7.8-10.6-10.8-17h37.8V119.5z M76.1,274c-11-4.5-19.9-10.8-27-19
		c-4.2-4.9-7.8-10.6-10.8-17h37.8V274z M76.1,428.5c-11-4.5-19.9-10.8-27-19c-4.2-4.9-7.8-10.6-10.8-17h37.8V428.5z M353.4,238
		c-2.9,6.4-6.5,12-10.8,17c-7,8.2-16.2,14.6-27.2,19.1V238H353.4z M353.4,83.5c-2.9,6.3-6.5,12-10.8,17c-7,8.2-16.2,14.6-27.2,19.2
		V83.5H353.4z M283.9,462.6c0,9.6-7.8,17.4-17.4,17.4H126.1c-9.6,0-17.4-7.8-17.4-17.4L108.1,32h175.3L283.9,462.6z M343.1,409.5
		c-7.2,8.3-16.5,14.8-27.8,19.4v-36.3h38.5C351,398.9,347.4,404.6,343.1,409.5z"/>
	<path d="M196,88.4c-26.3,0-47.9,21.6-47.3,47.3c0,26.3,21,47.3,47.3,47.3c26.3,0,47.3-21,47.3-47.3S222.3,88.4,196,88.4L196,88.4z"
		/>
</g>
</svg>
