<?xml version="1.0" encoding="utf-8"?>
<!-- Generator: Adobe Illustrator 21.1.0, SVG Export Plug-In . SVG Version: 6.00 Build 0)  -->
<svg version="1.1" id="Layer_2" xmlns="http://www.w3.org/2000/svg" xmlns:xlink="http://www.w3.org/1999/xlink" x="0px" y="0px"
	 viewBox="0 0 351.7 512" style="enable-background:new 0 0 351.7 512;" xml:space="preserve">
<path id="_x33_2" d="M136.1,32.7c7.3,0,14.4,1.6,21,4.8c6.1,3,11.3,7.3,15.8,12.9c6.1-4.8,12.9-7.3,20.6-7.3
	c6.9,0,13.1,1.9,18.6,5.7c5.6,3.7,9.9,8.7,13.1,14.9c2.3-3.2,5.4-5.7,9.1-7.7c3.5-1.9,7.3-2.8,11.5-2.8c6.6,0,12.4,2.3,17.4,6.9
	c4.8,4.5,7.8,10.2,9.1,16.9c0,0.2,0,0.6,0,0.8L90.5,77.4c0-0.8,0-1.4,0-1.6c0-5.9,1.2-11.5,3.6-16.9c2.3-5.1,5.7-9.7,9.9-13.7
	c4.2-3.7,9-6.9,14.3-9.3C124.1,33.8,130,32.7,136.1,32.7 M297.8,60.2c4.5,0,8.4,1.6,11.9,4.8c3.4,3.2,5.6,7.3,6.3,12v0.4l-36.3,0.4
	c0-0.2,0-0.6,0-0.8c0.8-4.8,2.9-8.8,6.3-12C289.3,61.8,293.2,60.2,297.8,60.2 M124.1,151.4c12.7,0.1,25.1,1.3,37.2,3.6v36.2
	c14.2,1.4,26.6,3,37.2,4.8v61.9c-2.1-3.5-5.2-7.5-9.1-12c-7.9-9.1-17.3-16.1-28.1-20.9v7.3c15,7.3,27.1,18,36.4,32.2
	c9.5,14.8,14.2,31,14.2,48.7c0,14.5-3.3,28.2-9.9,41c-6.3,12.6-15.2,23.1-26.5,31.4h34.4c0.2,0,0.4-0.1,0.6-0.1
	c0.9,0,1.7,0.4,2.6,1.3c1,1,1.9,2.4,2.3,4c0.8,2.4,1.2,5.2,1.2,8.5V413h-45.5v23.3l23.7,44.6H53.7l23.4-44.6V413H32v-13.6
	c0-5.9,1.2-9.9,3.6-12.1c0.9-1.1,1.8-1.7,2.6-1.7c0.2,0,0.3,0,0.5,0.1h34c-11-8.3-19.7-18.7-26.1-31.4c-6.6-12.9-9.9-26.6-9.9-41
	c0-16.9,4.4-32.6,13.1-47.1c8.4-14,19.8-24.7,34-32.2v-7c-9.5,5.1-17.9,11.8-25.3,20.1c-3.7,4-6.5,7.7-8.3,10.9v-61.9
	c9.5-1.6,20.7-3.1,33.7-4.4V155C97.5,152.6,110.9,151.4,124.1,151.4L124.1,151.4z M122.6,172.4c9,0,16.5-0.8,22.5-2.4
	c6.3-1.4,9.5-3,9.5-4.8c0-1.9-3.1-3.5-9.5-4.8c-6.1-1.4-13.6-2-22.5-2c-8.7,0-16.2,0.7-22.5,2c-6.3,1.4-9.5,3-9.5,4.8
	c0,1.9,3.1,3.5,9.5,4.8C106.4,171.6,113.9,172.4,122.6,172.4 M124.1,368.3c6.9,0,13.5-1.4,19.8-4c6.1-2.7,11.5-6.5,16.2-11.3
	c4.5-4.5,8.1-10.1,10.7-16.5c2.7-6.1,4-12.8,4-19.7c0-7.3-1.3-14-4-20.1s-6.2-11.7-10.7-16.5c-4.8-4.8-10.2-8.6-16.2-11.2
	c-6.3-2.7-12.9-4-19.8-4c-6.9,0-13.3,1.4-19.4,4c-6.1,2.7-11.5,6.5-16.2,11.2c-4.8,4.8-8.3,10.3-10.7,16.5c-2.7,6.1-4,12.9-4,20.1
	c0,6.9,1.4,13.6,4,19.7c2.3,6.5,5.9,11.9,10.7,16.5c4.8,4.8,10.2,8.6,16.2,11.3C110.8,366.9,117.3,368.3,124.1,368.3 M188.3,409.3
	c2.8,0,5.2-1,7.1-2.8c2.1-2.2,3.1-4.5,3.1-7.2c0-3-1-5.3-3.1-7.3c-1.9-2.2-4.2-3.2-7.1-3.2c-2.9,0-5.3,1-7.1,3.2
	c-1.9,1.9-2.7,4.3-2.7,7.3c0,2.7,0.9,5.1,2.7,7.2C183,408.3,185.4,409.3,188.3,409.3 M60.1,409.3c2.9,0,5.4-1,7.5-2.8
	c1.9-2.2,2.7-4.5,2.7-7.2c0-3-0.9-5.3-2.7-7.3c-2.1-2.2-4.6-3.2-7.5-3.2c-2.7,0-5,1-7.1,3.2c-1.9,1.9-2.7,4.3-2.7,7.3
	c0,2.7,1,5.1,2.7,7.2C55.1,408.3,57.5,409.3,60.1,409.3 M94.5,423.4h59.7l-5.5-10.4h-49L94.5,423.4 M87.5,437.1h74
	c-1.6,0-2.7-0.6-3.1-1.6c-0.2-0.8-0.4-1.5-0.4-2v-3.2h-0.1l-1.6-3.6H92.5l-1.9,3.6v3.2c0,0.6-0.2,1.2-0.4,2
	C89.6,436.5,88.8,437.1,87.5,437.1 M79.9,450.7h89l-5.6-10.4H85.4L79.9,450.7 M72.8,464.5H176l-5.6-10.1H77.9L72.8,464.5 M66,476.9
	h116.3l-4.4-8.8H70.8L66,476.9 M124.2,283c9.4,0,17.4,3.4,23.7,10.1c6.6,6.7,9.9,14.8,9.9,24.1c-0.1,9.6-3.4,17.8-9.9,24.5
	c-6.3,6.7-14.3,10.1-23.7,10.1c-9.2,0-17.1-3.4-23.7-10.1s-9.9-14.9-9.9-24.5c0-9.4,3.3-17.4,9.9-24.1S115,283,124.2,283 M136.1,0.7
	c-9.9,0-19.7,1.8-29,5.3l-1,0.4l-1,0.4c-8.1,3.7-15.6,8.5-22.3,14.4l-0.4,0.3L82.1,22c-7.2,6.8-13,14.8-17,23.6L65,45.9l-0.1,0.3
	c-4.2,9.4-6.3,19.5-6.3,29.7v1.6v31.9l289.4-0.2V77.4V77v-2.4l-0.4-2.4c-1.8-11.7-7.3-22.2-15.9-30.4l-0.1-0.1l-0.1-0.1
	c-9.4-8.8-21.1-13.4-33.7-13.4c-6.6,0-12.9,1.2-18.7,3.7c-9.7-7-21.1-10.6-33.3-10.6c-5,0-9.9,0.6-14.6,1.9
	c-0.4-0.2-0.7-0.5-1.1-0.7c-10.7-7.3-23.3-11.2-36.5-11.2c-5.1,0-10.1,0.6-15,1.7c-2.3-1.5-4.8-2.9-7.3-4.1h-0.1h-0.1
	C160.1,3.4,148.3,0.7,136.1,0.7L136.1,0.7z M124.2,119.4L124.2,119.4c-15.1,0-30.5,1.4-46,4.1l-26.4,4.7v35.3
	c-2.4,0.4-33.7,5.6-33.7,5.6v88.2c-8.9,17.4-13.4,36.1-13.4,55.9c0,17.1,3.5,33.7,10.4,49.2c-1.1,1-2.1,2-3.1,3.1
	c-8,8.4-12,19.7-12,33.8V445h36.4L0.8,513h247.4L212,445h36.6v-45.6c0-6.5-0.9-12.6-2.7-18.2c-2-6.4-5.5-12.3-10.2-17
	c-0.7-0.7-1.4-1.3-2.1-1.9c6.9-15.5,10.3-31.9,10.3-49.1c0-19.9-4.5-38.6-13.4-55.8v-88.2c0,0-33.5-5.8-37.2-6.4v-34.2l-25.9-5
	c-14-2.7-28.5-4.1-43.1-4.2L124.2,119.4L124.2,119.4z"/>
</svg>
