<?xml version="1.0" encoding="utf-8"?>
<!-- Generator: Adobe Illustrator 21.1.0, SVG Export Plug-In . SVG Version: 6.00 Build 0)  -->
<svg version="1.1" id="_x33_2" xmlns="http://www.w3.org/2000/svg" xmlns:xlink="http://www.w3.org/1999/xlink" x="0px" y="0px"
	 viewBox="0 0 649 512" style="enable-background:new 0 0 649 512;" xml:space="preserve">
<g>
	<path d="M648.5,512L516.3,404c34.8-42.6,55.7-97.1,55.7-156.5c0-3.1-0.1-6.2-0.2-9.3c0-1.1-0.1-2.3-0.2-3.4
		c-0.4-8.4-1.3-16.7-2.5-24.9c-0.3-1.9-0.6-3.7-0.9-5.5c-0.5-2.8-1-5.5-1.6-8.2c-0.2-0.9-0.4-1.8-0.6-2.7
		c-9.2-41.4-28.8-78.9-55.8-109.6h-45.5c46.1,39.5,75.3,98.2,75.3,163.7c0,51.5-18.1,98.8-48.3,135.9l-22.8-18.8
		c-0.1,0.1-0.1,0.2-0.2,0.2l-39.6-32.6c0-0.1,0.1-0.2,0.1-0.3c0,0,0,0,0-0.1c2.5-9.2,3.7-18.6,3.7-28.4c0-21.9-5.8-42-17.6-60.3
		c-11.5-17.6-26.5-30.9-45.1-39.9v-9c13.4,5.9,25,14.6,34.8,25.9c4.9,5.6,8.7,10.6,11.3,14.9v-76.7c-13.1-2.3-28.5-4.3-46.1-6v-44.8
		c-15-2.9-30.4-4.4-46.1-4.5c-16.4,0-33,1.5-50,4.5V153c-16,1.7-29.9,3.5-41.7,5.5v76.7c2.3-4,5.7-8.5,10.3-13.5
		c9.2-10.3,19.6-18.6,31.4-24.9v8.5c-17.6,9.3-31.7,22.6-42.1,39.9c-10.8,17.9-16.2,37.4-16.2,58.3c0,10,1.3,19.7,3.9,29.1
		l-36.3,29.9l-2.1,1.7l-0.3,0.3l0.1,0.2L157.7,384c-30.4-37.1-48.6-84.6-48.6-136.4c0-106.5,77.3-194.9,178.8-212.4
		c12.6-19.1,34.3-31.7,58.9-31.7V1c-7.2-0.7-14.5-1-21.8-1c-1.1,0-2.1,0-3.2,0C186.3,1.5,77,111.7,77,247.6
		c0,59.4,20.9,113.8,55.7,156.5L0.5,512H648.5z M259,506.7l5.8-14.7h119.4l5.8,14.7H259z M365.9,452v0.5c0,0.7,0.2,1.5,0.5,2.5
		c0.6,1.3,1.9,2,3.9,2l3.8,9.7h-99.3l3.9-9.7c1.6,0,2.7-0.7,3.4-2c0.3-1,0.5-1.8,0.5-2.5V452H365.9z M283.5,446.6l1.5-2.7l2.4-4
		l3.9-7.9h65.9l4.2,7.9l2.4,4l1.2,2.7H283.5z M376.2,471.9l5.8,14.7H266.9l5.8-14.7H376.2z M575.4,506.7h-166l-7.8-14.7h161
		L575.4,506.7z M557.8,486.6h-159l-7.9-14.7H545L557.8,486.6z M540.4,466.7H388.1l-5.7-10.7v-4h145.2L540.4,466.7z M523,446.7H382.4
		V432h127.8L523,446.7z M391.4,410.1c0-3.7,1.1-6.7,3.4-9c2.2-2.7,5.2-4,8.8-4c3.6,0,6.5,1.3,8.8,4c2.6,2.4,3.9,5.3,3.9,9
		c0,3.3-1.3,6.2-3.9,8.9c-2.3,2.3-5.3,3.5-8.8,3.5c-3.6,0-6.5-1.2-8.8-3.5C392.5,416.4,391.4,413.4,391.4,410.1z M492.7,411.9
		l12.8,14.7h-66.8v-14.7H492.7z M420.6,354.2c2.8-5.5,5.2-11.2,7-16.9l8,9.2l4.7,5.3l12.8,14.7h-39.7
		C416,362.6,418.4,358.5,420.6,354.2z M409.7,371.8h48.1l12.8,14.7H396C401,382,405.6,377.1,409.7,371.8z M389.5,391.8h85.8
		l12.8,14.7h-49.6v0.1c-0.2-2.6-0.6-4.9-1.3-7c-0.6-2-1.6-3.7-2.9-5c-1.3-1.3-2.6-1.8-3.9-1.5h-42.6
		C388.4,392.7,388.9,392.3,389.5,391.8z M294.3,114c7.8-1.6,17.1-2.5,27.9-2.5c11.1,0,20.4,0.8,27.9,2.5c7.9,1.7,11.8,3.7,11.8,6
		s-4,4.3-11.8,6c-7.5,2-16.8,3-27.9,3c-10.8,0-20.1-1-27.9-3c-7.9-1.7-11.8-3.7-11.8-6S286.5,115.7,294.3,114z M266.8,283
		c2.9-7.6,7.3-14.4,13.2-20.4c5.9-5.9,12.6-10.6,20.1-13.9s15.5-5,24-5s16.7,1.7,24.5,5c7.5,3.3,14.2,7.9,20.1,13.9
		c5.5,5.9,9.9,12.8,13.2,20.4c3.3,7.6,4.9,15.9,4.9,24.9c0,8.6-1.6,16.8-4.9,24.4c-3.2,7.9-7.6,14.8-13.2,20.4
		c-5.9,6-12.6,10.7-20.1,14c-7.8,3.3-16,5-24.5,5s-16.5-1.7-24-5c-7.5-3.4-14.2-8-20.1-14c-5.9-5.6-10.3-12.4-13.2-20.4
		c-3.2-7.6-4.9-15.8-4.9-24.4C261.9,299,263.5,290.6,266.8,283z M221.2,337.6c0,0.1,0.1,0.3,0.1,0.4c1,2.9,2,5.7,3.2,8.5h-11.1
		L221.2,337.6z M208.8,351.8h18.1c0.4,0.8,0.8,1.6,1.2,2.4c2.2,4.3,4.6,8.4,7.2,12.3H196L208.8,351.8z M191.4,371.8h47.7
		c4,5.3,8.5,10.2,13.4,14.7h-73.9L191.4,371.8z M173.8,391.9h85v-0.1c0.5,0.4,1.1,0.8,1.6,1.3h-42.1c-1.3-0.3-2.6,0.3-3.9,2
		c-2.4,2.2-3.8,6.1-4.3,11.5H161L173.8,391.9z M257.5,410.1c0,3.3-1.1,6.2-3.4,8.9c-2.6,2.3-5.7,3.5-9.3,3.5c-3.2,0-6.2-1.2-8.8-3.5
		c-2.2-2.6-3.4-5.6-3.4-8.9c0-3.7,1.1-6.7,3.4-9c2.6-2.7,5.5-4,8.8-4c3.6,0,6.7,1.3,9.3,4C256.4,403.5,257.5,406.4,257.5,410.1z
		 M156.3,411.9H210v14.7h-66.5L156.3,411.9z M138.9,431.9h127v14.7H126.1L138.9,431.9z M121.5,452h144.4v4l-5.6,10.7H108.7
		L121.5,452z M104,472h153.5l-7.6,14.7H91.2L104,472z M247.1,492l-7.6,14.7H73.8L86.5,492H247.1z"/>
	<path d="M324.2,351.3c11.7,0,21.6-4.2,29.4-12.5c8.1-8.3,12.2-18.5,12.3-30.4c0-11.6-4.1-21.6-12.3-29.9
		c-7.8-8.3-17.7-12.5-29.4-12.5c-11.4,0-21.2,4.2-29.4,12.5c-8.2,8.3-12.3,18.3-12.3,29.9c0,12,4.1,22.1,12.3,30.4
		S312.8,351.3,324.2,351.3z"/>
	<path d="M565.9,49c-11.9,0-21.6,9.1-22.6,20.8h45.3C587.7,58.1,577.9,49,565.9,49z"/>
	<path d="M310.5,69.8h83.1H425h46.7h10.7h54.2C535.2,53.1,521.3,40,504.2,40c-10.8,0-20.3,5.2-26.2,13.2
		c-7.2-14.7-22.4-24.9-40-24.9c-9.5,0-18.3,3-25.6,8c-10.5-13.1-26.6-21.4-44.6-21.4C336.9,14.9,311.8,39.2,310.5,69.8z"/>
</g>
</svg>
