<?xml version="1.0" encoding="utf-8"?>
<!-- Generator: Adobe Illustrator 21.1.0, SVG Export Plug-In . SVG Version: 6.00 Build 0)  -->
<svg version="1.1" id="Layer_1" xmlns="http://www.w3.org/2000/svg" xmlns:xlink="http://www.w3.org/1999/xlink" x="0px" y="0px"
	 viewBox="0 0 510 512" style="enable-background:new 0 0 510 512;" xml:space="preserve">
<g id="translate">
	<g>
		<path d="M357.6,206.2c-25.1,0-48.7,6.1-69.6,16.8c10.7-20.9,16.8-44.5,16.8-69.6C304.8,69.2,236.6,1,152.4,1S0,69.2,0,153.4
			s68.2,152.4,152.4,152.4c25.1,0,48.7-6.1,69.6-16.8c-10.7,20.9-16.8,44.5-16.8,69.6c0,84.2,68.2,152.4,152.4,152.4
			S510,442.8,510,358.6S441.8,206.2,357.6,206.2z M152.4,274c-66.6,0-120.5-54-120.5-120.5S85.9,33,152.4,33S273,86.8,273,153.4
			S219,274,152.4,274z M357.6,479.2c-66.6,0-120.5-54-120.5-120.5s54-120.5,120.5-120.5s120.5,54,120.5,120.5
			S424.2,479.2,357.6,479.2z M436.3,124.5h-23.9l21.3,26.2l20.5,25.6l20.5-25.6l20.5-26.2h-22.9v-3c0-60.3-48.5-106-108.9-106v36.4
			C403.6,51.9,436.3,84.3,436.3,124.5z M73.6,387.4h23.9l-21.2-26.1l-20.4-25.6l-20.4,25.6l-20.4,26.1H38v3
			c0,60.2,48.4,105.7,108.6,105.7v-36.3C106.3,459.8,73.6,427.5,73.6,387.4z M166.4,72.7h-28v29.8H81.7v88.2h24.7v-12h32.7v54.5h27
			v-54.5h33.4v10h24.7v-86.2l-57.8,0.1V72.7z M139.1,155.6h-32.7v-29.4h32.7V155.6z M199.5,126.2v29.4h-33.4v-29.4
			C166.1,126.2,199.5,126.2,199.5,126.2z M332.8,270.6L286,419.4h37.7l9.1-35.4H379l10.7,35.4h38.7l-47.9-148.8L332.8,270.6
			L332.8,270.6z M338.1,356.9c0,0,14.9-49.7,17-59.3h0.5c2.7,9.5,18,59.3,18,59.3H338.1z"/>
	</g>
</g>
</svg>
