<?xml version="1.0" encoding="utf-8"?>
<!-- Generator: Adobe Illustrator 21.1.0, SVG Export Plug-In . SVG Version: 6.00 Build 0)  -->
<svg version="1.1" id="Layer_1" xmlns="http://www.w3.org/2000/svg" xmlns:xlink="http://www.w3.org/1999/xlink" x="0px" y="0px"
	 viewBox="0 0 354 512" style="enable-background:new 0 0 354 512;" xml:space="preserve">
<path d="M194,0v32h107.3L220,113.3C198.5,101,173.6,94,147.1,94C65.9,93.9,0,159.8,0,241.1c0,75.8,57.4,138.3,131,146.3V435H38v32
	h93v45h32v-45h93v-32h-93v-47.5c73.9-7.9,131.4-70.4,131.4-146.3c0-43.1-18.6-81.9-48.1-108.9l76-76L322,163h32V0H194z M263,241.5
	c0,63.8-51.7,115.5-115.5,115.5C83.8,357,32.1,305.3,32,241.5C32,177.7,83.7,126,147.5,126S263,177.7,263,241.5z"/>
</svg>
