<?xml version="1.0" encoding="utf-8"?>
<!-- Generator: Adobe Illustrator 21.1.0, SVG Export Plug-In . SVG Version: 6.00 Build 0)  -->
<svg version="1.1" id="Layer_2" xmlns="http://www.w3.org/2000/svg" xmlns:xlink="http://www.w3.org/1999/xlink" x="0px" y="0px"
	 viewBox="0 0 361.3 512" style="enable-background:new 0 0 361.3 512;" xml:space="preserve">
<g>
	<path d="M319,144.6v320.2c0,8.4-6.8,15.2-15.2,15.2H47.2c-8.4,0-15.2-6.8-15.2-15.2V144.6H319 M351,112.6H0V478
		c0,18.8,15.2,34,34,34h283c18.8,0,34-15.2,34-34V112.6L351,112.6z"/>
	<path d="M335,61.4h-59.3V42.2c0-23.3-18.9-42.2-42.2-42.2h-116C94.2,0,75.3,18.9,75.3,42.2v19.2H16c-8.8,0-16,7.2-16,16
		s7.2,16,16,16h319c8.8,0,16-7.2,16-16S343.9,61.4,335,61.4z M106.6,43c0-9,7.3-16.3,16.3-16.3h105.2c9,0,16.3,7.3,16.3,16.3v18.4
		H106.6V43z"/>
	<rect x="234" y="245.4" width="24.4" height="137.1"/>
	<rect x="94" y="245.4" width="24.4" height="137.1"/>
	<rect x="163.8" y="218.7" width="24.4" height="185"/>
</g>
</svg>
