<?xml version="1.0" encoding="utf-8"?>
<!-- Generator: Adobe Illustrator 22.0.1, SVG Export Plug-In . SVG Version: 6.00 Build 0)  -->
<svg version="1.1" id="Layer_2_1_" xmlns="http://www.w3.org/2000/svg" xmlns:xlink="http://www.w3.org/1999/xlink" x="0px" y="0px"
	 viewBox="0 0 361.3 512" style="enable-background:new 0 0 361.3 512;" xml:space="preserve">
<g>
	<path d="M329.1,144.6v320.2c0,8.4-6.8,15.2-15.2,15.2H47.2c-8.4,0-15.2-6.8-15.2-15.2V144.6H329.1 M361.1,112.6H0V478
		c0,18.8,15.2,34,34,34h293.1c18.8,0,34-15.2,34-34V112.6L361.1,112.6z"/>
	<path d="M345.1,61.4h-59.3V42.2c0-23.3-18.9-42.2-42.2-42.2H117.5C94.2,0,75.3,18.9,75.3,42.2v19.2H16c-8.8,0-16,7.2-16,16
		s7.2,16,16,16h329.1c8.8,0,16-7.2,16-16S354,61.4,345.1,61.4z M106.6,43c0-9,7.3-16.3,16.3-16.3h115.3c9,0,16.3,7.3,16.3,16.3v18.4
		H106.6V43z"/>
	<polygon points="248.5,310.8 196.7,310.8 196.7,397.6 164.7,397.6 164.7,310.8 112.8,310.8 180.7,233 	"/>
</g>
</svg>
