<?xml version="1.0" encoding="utf-8"?>
<!-- Generator: Adobe Illustrator 21.1.0, SVG Export Plug-In . SVG Version: 6.00 Build 0)  -->
<svg version="1.1" id="Layer_4" xmlns="http://www.w3.org/2000/svg" xmlns:xlink="http://www.w3.org/1999/xlink" x="0px" y="0px"
	 viewBox="0 0 511.2 512" style="enable-background:new 0 0 511.2 512;" xml:space="preserve">
<path d="M498.9,218.7c1.2-5.8,1.7-11.6,1.7-17.5c0-28.4-13.2-54.5-35.8-71.6c0-49.9-40.5-90.8-91-92.9
	c-14.3-10.2-31.6-15.8-49.3-15.8c-6.4,0-12.6,0.7-18.8,2.1C290.2,8.4,269.8,0.3,248.1,0.3c-35.1,0-65.9,21.5-77.8,52.8
	c-14.3,0.9-27.6,6.8-37.8,16.3c-7.9-2.3-16.1-3.4-24.5-3.4c-48,0-87,38.2-87,85.1c0,0.6,0,1.2,0,1.8C8.2,167.6,1.3,186.1,1.3,205.6
	c0,10.7,2.2,21.3,6.3,31.1c-1.6,5.1-2.4,10.5-2.4,16c0,29.7,24.6,53.8,54.8,53.8c10.4,0,20.4-2.8,29.1-8.2
	c35.8-10.5,47-11.3,49.7-11.3c4,0,9.8,0.8,16.7,2.2c26.8,44.1,70.2,60.8,70.2,60.8h0.7c2.2,26.4,4.3,51.5,5.2,65.4
	C234.4,459.7,205,512,205,512h92.7c0,0-9.8-63.5-9.4-76.3c1.3-51,7.3-88.9,14.6-116.8c10.8,1.1,23,3.1,35.6,6.5
	c15.6,4.2,29.5,6.3,41.7,6.3c10.1,0,18.9-1.4,26.5-4.3c4.3-1.6,7.9-3.6,10.7-5.6c7.6,2.7,15.8,4.2,24,4.2
	c38.5,0,69.9-30.7,69.9-68.5C511.2,243.5,506.9,230,498.9,218.7z M195,299.4c9.3,2.7,18.7,5.7,27.7,8.6c0.5,5.5,1,11.3,1.5,17.1
	C214.2,317,203.5,307.9,195,299.4z M267.5,486H245c9.7-26.8,13.9-51.1,12.5-72.3c-1.2-18.9-4.5-57.7-7.7-94.7l25.5,2.8
	c-7.6,32.6-12,70.5-13.1,113.2C262,443.6,264.8,466.2,267.5,486z M441.3,294c-6.9,0-13.6-1.8-19.4-5.2l-15.3-8.8l-6.8,15
	c-3.2,3.3-18.1,9-53.1-0.4c-26.9-7.2-51.8-8.8-68.9-8.8c-8.5,0-15,0.4-18.9,0.7C240.5,280,167.1,255,138.7,255
	c-4,0-16.1,0-60.9,13.3l-2.4,0.7l-2.1,1.4c-3.9,2.7-8.5,4.1-13.3,4.1c-12.6,0-22.8-9.8-22.8-21.8c0-3.3,0.7-6.4,2.2-9.4l3.7-7.5
	l-4-7.3c-3.9-7.1-5.8-14.8-5.8-22.9c0-13.3,5.4-25.7,15.2-35.1l5.7-5.5l-0.9-7.9c-0.2-2-0.4-4-0.4-5.9c0-29.3,24.7-53.1,55-53.1
	c8,0,15.7,1.6,22.9,4.8l12.1,5.4l7.5-10.9c5.3-7.7,14.3-12.3,23.9-12.3c1.7,0,3.4,0.2,5.1,0.4l15.5,2.7l2.9-15.4
	c4.5-23.4,25.6-40.4,50.3-40.4c15.7,0,30.4,6.9,40.1,18.8l7.2,8.8l10.7-3.9c5.8-2.1,12-3.2,18.2-3.2c12.3,0,24.3,4.3,33.6,12.1
	l4.6,3.8l6-0.1c0.3,0,0.6,0,0.9,0l0.4,0c34.8,0,63.1,27.4,63.1,61c0,2.1-0.1,4.3-0.3,6.4l-1.1,10.1l8.7,5.3
	c17.9,10.8,28.6,29.4,28.6,49.8c0,5.6-0.8,11.2-2.5,16.7l-2.7,8.8l6.2,6.7c6.1,6.7,9.5,15.3,9.5,24.2
	C479.2,277.6,462.2,294,441.3,294z"/>
</svg>
