<?xml version="1.0" encoding="utf-8"?>
<!-- Generator: Adobe Illustrator 21.1.0, SVG Export Plug-In . SVG Version: 6.00 Build 0)  -->
<svg version="1.1" id="Layer_1" xmlns="http://www.w3.org/2000/svg" xmlns:xlink="http://www.w3.org/1999/xlink" x="0px" y="0px"
	 viewBox="0 0 673 512" style="enable-background:new 0 0 673 512;" xml:space="preserve">
<style type="text/css">
	.st0{fill:#020202;}
</style>
<g id="_x33_2_1_">
	<path class="st0" d="M509.7,365.6c-40.2,0-72.7,32.6-72.7,72.7s32.6,72.7,72.7,72.7s72.7-32.6,72.7-72.7S549.8,365.6,509.7,365.6z
		 M509.7,473.9c-19.7,0-35.6-15.9-35.6-35.6s15.9-35.6,35.6-35.6s35.6,15.9,35.6,35.6S529.3,473.9,509.7,473.9z"/>
	<path class="st0" d="M149.4,365.6c-40.2,0-72.7,32.6-72.7,72.7s32.6,72.7,72.7,72.7s72.7-32.6,72.7-72.7S189.6,365.6,149.4,365.6z
		 M149.4,473.9c-19.7,0-35.6-15.9-35.6-35.6s15.9-35.6,35.6-35.6s35.6,15.9,35.6,35.6S169.1,473.9,149.4,473.9z"/>
	<path class="st0" d="M650.1,390.5c0-0.7,0.4-119,0.4-119c0-2-0.3-41.2-0.8-47.2s-1.3-10.6-2.5-13.9c-1.2-3.3-10.1-19.1-13.4-22.4
		L561.4,84.6c-4.9-5-11.2-9.1-18.9-12.4s-14.8-5-21.3-5H462V35.4c0-8.6-6.9-15.5-15.5-15.5s-15.5,7-15.5,15.5v146.7H293.6l-0.5,57.3
		l-187-18.8l174.4-50v-42.1h21h22.8h9.2V0h-9.2h-22.8h-73.8h-32v32v64.6v32h32h20.9v17.3L31.2,212.1l2.6,32.4l259.1,27.1l-0.1,7.9
		H8.8c0,0,0.2,141.6,0.2,141.8c-5,0-9,3-9,7.9s4,9,9,9h46.8c0-54.8,44.1-93.6,93.6-93.6c49.6,0,93.6,40.6,93.6,93.6
		c131.9,0,173-0.1,173-0.1c0-41.1,31.6-93.5,93.6-93.5c59.3,0,93.4,50.4,93.4,93.5c0,0,34.6,0.1,47.1,0.1s22.9-12.6,22.9-24.9
		S662.1,390.5,650.1,390.5z M227.7,32h73.8v64.6h-73.8V32z M324.8,214.1H409v65.3h-84.2V214.1z M431,340
		c-18.9,15.3-33.9,37.4-41.8,66.4c-4.4,0-116.4,0.1-119.2,0c-12.7-56.6-66.6-93.6-120.5-93.6c-42,0-84.5,20.7-108.6,61.8
		c0-36.4-0.5-19.4-0.7-63.1H431V340z M462.1,102.6h58.3c7.2,0,12.3,0.9,15.2,2.7v6.6l-1.9-0.9l-1,1c-0.3,1-0.5,2.2-0.5,3.5
		s0.2,2.5,0.5,3.5l1,1l5.9,3.5c0.3,0,0.6-0.5,1-1.5c0.3-1,0.5-2,0.5-3c0-1.3-0.2-2.5-0.5-3.5c-0.3-0.7-1.1-1.5-2.4-2.5l-1.5-0.7V106
		l76.8,115.3c2.6,2.3,3.9,5.1,3.9,8.4v18H462.1V102.6z M618.2,375.5h-0.9c-30.1-56.1-99.8-75.8-155.4-53.6v-43.5
		c2.4,0.4,5.1,0.6,7.9,0.6c32.9,0,148.4,0,148.4,0L618.2,375.5L618.2,375.5z"/>
</g>
</svg>
