<?xml version="1.0" encoding="utf-8"?>
<!-- Generator: Adobe Illustrator 21.1.0, SVG Export Plug-In . SVG Version: 6.00 Build 0)  -->
<svg version="1.1" id="Layer_1" xmlns="http://www.w3.org/2000/svg" xmlns:xlink="http://www.w3.org/1999/xlink" x="0px" y="0px"
	 viewBox="0 0 673 512" style="enable-background:new 0 0 673 512;" xml:space="preserve">
<g id="_x33_2">
	<path d="M509.7,365.6c-40.2,0-72.7,32.6-72.7,72.7s32.6,72.7,72.7,72.7s72.7-32.6,72.7-72.7S549.8,365.6,509.7,365.6z M509.7,473.9
		c-19.7,0-35.6-15.9-35.6-35.6s15.9-35.6,35.6-35.6s35.6,15.9,35.6,35.6S529.3,473.9,509.7,473.9z"/>
	<path d="M149.4,365.6c-40.2,0-72.7,32.6-72.7,72.7s32.6,72.7,72.7,72.7s72.7-32.6,72.7-72.7S189.6,365.6,149.4,365.6z M149.4,473.9
		c-19.7,0-35.6-15.9-35.6-35.6s15.9-35.6,35.6-35.6s35.6,15.9,35.6,35.6S169.1,473.9,149.4,473.9z"/>
	<path d="M650.1,390.5c0-0.7,0.4-139,0.4-139c0-2-0.3-41.2-0.8-47.2s-1.3-10.6-2.5-13.9c-1.2-3.3-10.1-19.1-13.4-22.4L561.4,64.6
		c-4.9-5-11.2-9.1-18.9-12.4s-14.8-5-21.3-5H462V15.4c0-8.6-6.9-15.5-15.5-15.5c-4.3,0-8.2,1.7-11,4.5s-4.5,6.7-4.5,11v243.8
		L8.8,259.5v32c0,48.5,0.1,95.8,0.1,111.2C9,418,9,421.2,9,421.3c-5,0-9,3-9,7.9s4,9,9,9h46.8c0-54.8,44.1-93.6,93.6-93.6
		c49.6,0,93.6,40.6,93.6,93.6c131.9,0,173-0.1,173-0.1c0-41.1,31.6-93.5,93.6-93.5c59.3,0,93.4,50.4,93.4,93.5
		c0,0,34.6,0.1,47.1,0.1s22.9-12.6,22.9-24.9S662.1,390.5,650.1,390.5z M431,340c-18.9,15.4-33.9,37.4-41.8,66.4
		c-4.4,0-116.4,0.1-119.2,0c-12.7-56.6-66.6-93.6-120.5-93.6c-42,0-84.5,20.7-108.6,61.8c0-6.4-0.4-9.4-0.7-83.1H431V340z
		 M462.1,82.6h58.3c7.2,0,12.3,0.9,15.2,2.7v6.6l-1.9-0.9l-1,1c-0.3,1-0.5,2.2-0.5,3.5s0.2,2.5,0.5,3.5l1,1l5.9,3.5
		c0.3,0,0.6-0.5,1-1.5c0.3-1,0.5-2,0.5-3c0-1.3-0.2-2.5-0.5-3.5c-0.3-0.7-1.1-1.5-2.4-2.5l-1.5-0.7V86l76.8,115.3
		c2.6,2.3,3.9,5.1,3.9,8.4v18H462.1V82.6z M618.2,375.5h-0.9c-30.1-56.1-99.8-75.8-155.4-53.6v-63.5c2.4,0.4,5.1,0.6,7.9,0.6
		c32.9,0,148.4,0,148.4,0L618.2,375.5L618.2,375.5z"/>
</g>
</svg>
