<?xml version="1.0" encoding="utf-8"?>
<!-- Generator: Adobe Illustrator 21.1.0, SVG Export Plug-In . SVG Version: 6.00 Build 0)  -->
<svg version="1.1" id="Layer_1" xmlns="http://www.w3.org/2000/svg" xmlns:xlink="http://www.w3.org/1999/xlink" x="0px" y="0px"
	 viewBox="0 0 512 512" style="enable-background:new 0 0 512 512;" xml:space="preserve">
<path d="M184.8,61.4C205.5,76.1,230.1,84,256,84c25.5,0,49.7-7.7,70.2-22L378,83.8c12.8,5.4,24.5,13.1,34.4,22.7l55,53.3l-50.2,54.6
	L373,185.2c-5.3-3.5-12.5,0.3-12.5,6.7V458H153.7v-267c0-6.4-7.1-10.2-12.4-6.7L95.9,214l-51.2-54.9l57-55.3
	c10.3-10,22.5-17.9,35.8-23.3L184.8,61.4 M190.8,24.4l-65.2,26.3c-17.2,6.9-32.8,17.1-46.1,30L0,158l90.9,97.6l30.8-20.2V490h270.8
	V236.5l29.7,19.7l89.8-97.6l-77.3-75c-12.8-12.4-27.9-22.4-44.3-29.3L320.7,25c-16.5,16.6-39.4,27-64.7,27
	C230.4,52,207.3,41.4,190.8,24.4L190.8,24.4z"/>
</svg>
