<?xml version="1.0" encoding="utf-8"?>
<!-- Generator: Adobe Illustrator 21.1.0, SVG Export Plug-In . SVG Version: 6.00 Build 0)  -->
<svg version="1.1" id="Layer_4" xmlns="http://www.w3.org/2000/svg" xmlns:xlink="http://www.w3.org/1999/xlink" x="0px" y="0px"
	 viewBox="0 0 512 512" style="enable-background:new 0 0 512 512;" xml:space="preserve">
<g>
	<path d="M81.1,313.5c0.2,0.6,0.4,1.2,0.6,1.8c1.5,4.4,3.1,8.8,4.7,13.2l79.6-19c-1.7-4.4-3.6-9.2-5.8-14.4L81.1,313.5z"/>
	<path d="M346.3,469.8l68.9-38.9c-3.7-3.3-7.9-7-12.9-11l-68.1,37.2C338.5,461.5,342.6,465.8,346.3,469.8z"/>
	<path d="M309.7,433.5l66.3-32.4c-4.7-3.1-9.8-6.3-15.4-9.6l-64.1,30.7C300.9,425.7,305.3,429.5,309.7,433.5z"/>
	<path d="M363.7,489l68.6-40.9c-2.6-2.8-6.4-7-12-12.5l-68.2,40.4C356.9,481.4,360.9,485.8,363.7,489z"/>
	<path d="M267.4,368.7c-6.7,0.8-13.4,1.6-20,2l-44.6,19.8c10.9-0.3,22.6,0.1,34.1,2l55-25.6C283.6,366.8,275.4,367.7,267.4,368.7z"
		/>
	<path d="M268.8,402.8l60.1-28.6c-8.3-3.6-16.3-5.5-24-6.5l-56.8,27.2C255.2,396.7,262.1,399.3,268.8,402.8z"/>
	<path d="M290.7,417.4l63.2-29.9c-5.3-3.1-10.9-6.2-17-9.4l-60.8,29C280.9,410.1,285.8,413.6,290.7,417.4z"/>
	<path d="M328,451l68.9-35.2c-4.4-3.4-9.3-6.9-14.8-10.6l-66.6,33.7C319.8,442.9,324,446.9,328,451z"/>
	<path d="M113.2,222.6c0,0-0.4-0.4-0.9-0.9l-76.6,9.5c3.2,3.6,7.3,8.3,11.6,13.8l75.9-10.7C117.5,227.4,113.3,222.7,113.2,222.6z"/>
	<path d="M126.7,238.8L51,250.1c3.1,4.2,6.2,8.8,9.1,13.5l76-12.3C132.9,246.9,129.7,242.6,126.7,238.8z"/>
	<path d="M146.9,268.1c-2.2-4-4.8-8.1-7.6-12.1l-76.7,12c2.3,4.1,4.4,8.4,6.2,12.7c0.2,0.4,0.3,0.8,0.5,1.2l78.2-12.5
		C147.4,268.9,147.1,268.5,146.9,268.1z"/>
	<path d="M150.3,274.4l-78,14.8c2.1,5.5,4.2,11.1,6.1,16.6l79.1-16.7C155.4,284.4,153,279.5,150.3,274.4z"/>
	<path d="M372.1,139.9c17.4,0,33.2,6.6,45.2,17.5c12.4-10.5,28.5-16.8,46.1-16.8c18.8,0,35.9,7.3,48.7,19.1
		C499.7,74.1,422.9,12.5,329,9.4c-0.1-2.5-1-4.7-2.8-6.5C324.3,1,322,0,319.2,0c-2.6,0-4.8,1-6.7,2.9c-1.9,1.9-2.8,4.1-2.9,6.6
		C217,14.3,141.9,76,130.5,161.1c12.8-12.3,30.3-19.9,49.5-19.9c17.4,0,33.4,6.2,45.7,16.5c11.9-11,27.9-17.8,45.5-17.8
		c14.7,0,28.4,4.8,39.5,12.9v207c-2.1-0.7-4.2-1.4-6.3-2c-0.2-0.1-0.6-0.2-1.5-0.4c-3.4-1-8.3-2.4-11.1-4.3
		c-8.2-6.2-16.9-11.9-26.1-16.9c-9.2-5-18.9-9.1-29-11.9c-10.9-3-21.7-4.4-31.3-4.6c-10-0.2-19,0.9-25.9,2.9
		c-0.6-1.4-1.3-3.3-2.1-5.2c-10.7-27-25.9-65.6-48.4-87.6c-6.3-6.1-10.4-10-14.3-12.3c-4.2-2.4-8.1-3-13.7-2.3
		c-2.2,0.2-5.4,0.5-9.3,0.9c-17.4,1.7-59.5,4.7-75.9,6.5c-0.1,0-0.1,0-0.2,0c-11,1.3-17.2,14.1-10.5,22.9
		c41.6,55.2,43.2,74.8,54.9,106.8c0,0-0.8,0.3-1,0.4c-8.8,3.2-16.8,8-23.9,13.8c-9.3,7.6-17.3,16.9-24.2,26.8
		c-0.3,0.4-0.6,0.8-0.9,1.3c-1.6,2.3-3.6,5.1-4.4,7.8c-1.2,3.9-0.4,7.3,5.3,9c8.3,2.5,10.7-1.3,14.3-6.9c0.6-0.9,1.1-1.8,1.7-2.6
		c6.2-9,12.5-16.5,19.9-22.3c4.4-3.5,9.2-6.4,14.7-8.6c2.7-1.1,4.1-1.9,6.2-2.7c37.9,56.7,62.5,54.4,136.6,57.3h0
		c6,7.1,12.8,16.1,19.3,25.5c9.4,13.6,18.2,27.8,22.6,38l0.4,0.9l0.9,0.3c0.7,0.3,1,0.4,1.1,0.4h0c0,0,0,0,0,0h0l0,0c0,0,0,0,0.1,0
		c4.1,1.5,7,2.6,10.5,2.5c1.7-0.1,4.3-0.8,6.5-2c2-1,3.7-2.4,4.3-4l0.4-1l-0.5-0.9c-5.5-10.6-13.6-23.1-21.9-34.8
		c-7-10-14.3-19.5-20.3-27.1c32.9-4.2,97.4,72.2,104,79.3c4.9,5.3,8.6,8.1,12.5,8.8c4,0.7,7.8-0.7,12.8-3.9l77.4-49.2
		c4.4-2.7,7-5.1,7.7-8c0.8-3.1-0.6-6.2-4.3-10.3c-14.9-16.7-36.4-34.1-60.6-49.1c-14.7-9.1-30.5-17.4-46.4-24.1v-213
		C342,145.3,356.4,139.9,372.1,139.9z M271.1,119.5c-16.5,0-32.4,4.6-46.1,13.1c-13.7-7.7-29.3-11.9-45.2-11.9
		c-5.8,0-11.6,0.6-17.2,1.6c1.9-4.1,4-8.2,6.3-12.1c9.4-16.1,21.9-30.4,37.2-42.4c15.3-12.1,32.9-21.6,52.2-28.1
		c19.9-6.8,41.1-10.2,63-10.2c21.8,0,42.8,3.4,62.7,10.1c19.2,6.5,36.7,15.9,52,27.9c15.2,11.9,27.7,26.1,37.2,42
		c2.4,4,4.5,8,6.4,12.1c-5.3-1-10.7-1.4-16.2-1.4c-16.1-0.1-31.9,4.2-45.7,12.1c-13.7-8.4-29.3-12.8-45.6-12.8
		c-18.2,0-35.9,5.7-50.5,16C306.9,125.2,289.3,119.5,271.1,119.5z M205.3,324.3c9.3,0.2,19.6,1.5,30.2,4.4c9.7,2.7,19.1,6.7,28,11.5
		c9,4.8,17.5,10.5,25.6,16.5l0.1,0.1c0.7,0.5,1.5,0.9,2.3,1.3c-5.8,0.1-11.1,0.9-16.2,1.9c-9.6-9.9-25.5-18.2-42.7-23
		c-16-4.4-33.3-5.7-47.9-2.3c-0.4-0.9-0.9-1.8-1.3-2.8c-0.7-1.6-1.4-3.3-2.1-5C187.7,325.1,196,324.2,205.3,324.3z M269.8,361.1
		c-0.8,0.2-1.6,0.4-2.4,0.5l-0.2,0c-16.9,3.5-33.4,2.6-47.2-1.2c-15.2-4.2-27.2-12-33-21.6c13.6-2.9,29.5-1.5,44.4,2.6
		C246.6,345.7,260.6,352.7,269.8,361.1z M163,401.2c-0.2,0-0.5,0-0.7,0c-34.9,0-61-16.5-68.8-32.9c-0.5-0.9-0.9-1.9-1.3-2.9h9.5
		c1.1,2,2.5,4,4.2,6l8.4-2.8c5.1,1.2,10.1,2.7,15.1,4.5l-15.3,5.5c6.3,4.5,14.4,8.3,23.9,10.9c0,0,0,0,0,0l14.3-5.9
		c2.9,1.6,5.7,3.2,8.5,5l-7.9,3.6c3.1,0.3,6.2,0.5,9.5,0.5c0.2,0,0.4,0,0.7,0c1.5,0,3-0.1,4.6-0.1h0l9.6,8
		C171.8,400.9,167.1,401.1,163,401.2z M244,453.5c7.9,11.2,15.5,22.9,20.9,33.1c-0.4,0.3-0.9,0.6-1.5,1c-1.6,0.8-3.5,1.4-4.6,1.5
		c-2.6,0.1-5.1-0.8-8.8-2.2l-0.3-0.1c-4.7-10.4-13.3-24.5-22.6-37.9c-10.4-15-21.8-29.2-29.2-36.4c-5.7-5.7-11.9-11.2-18.5-16.4
		l0-0.1l-0.1,0c-12.2-9.5-25.8-17.7-39.9-23.7c-21.6-9.3-44.5-13.5-65.5-9.5l0,0l-1.9,0.4c-0.5,0.1-1,0.2-1.5,0.3
		c-0.5,0.1-0.9,0.2-1.4,0.3v0c-10,2.6-18.2,6.8-25.4,12.5c-7.8,6.2-14.4,14-20.8,23.4c-0.7,1-1.3,1.9-1.8,2.7
		c-2.4,3.8-4.1,6.4-9.1,4.9c-2.2-0.7-2.6-1.9-2.2-3.3c0.6-2,2.3-4.5,3.8-6.5c0.3-0.5,0.6-0.9,1-1.4c6.6-9.6,14.3-18.6,23.3-25.9
		C45.6,364,54.3,359,64.1,356c0.6-0.2,1.2-0.3,1.8-0.5c1-0.3,1.9-0.5,2.6-0.7c1.2-0.3,2.5-0.6,3.7-0.8c1.2-0.2,2.4-0.5,3.7-0.7
		c1.5-0.2,3-0.5,4.6-0.6c1.6-0.2,3.1-0.3,4.6-0.5c23-1.8,46.5,3.8,68.9,15.1c23.4,11.8,45.5,29.9,64.2,52.3h0
		C224.9,427.7,234.6,440.2,244,453.5z M437,448c0.8,0.7,0.7,1.9-0.1,2.6c-0.8,1.2-2.6,2.6-5.2,4.2l-67.5,42.5l0,0
		c-1.7,1-4,0.7-5.4-0.8c-11.8-13.6-59.1-66.5-92-85c-17.9-10.1-38.9-12.5-58.3-12.4l-7.6-7.6l-2.5,1.1c-1.5-1.3-2.9-2.6-4.4-3.9
		l39.6-18.1c-7.6-0.7-15.3-2.5-23.1-6l-29.9,13.7c-2.2-1.6-4.4-3.1-6.6-4.5l30.2-12.4c-6-3.4-10.8-6.8-14.8-10.4l-34,12.1
		c-3.5-1.7-7-3.3-10.5-4.8l39.6-12.3c-3.5-4-6.2-8.2-8.6-12.8l-58.2,16.8c-5.3-1-10.6-1.8-15.9-2.1l72.1-18.6c-2-4.4-3.9-9-5.9-14.1
		l-79.4,19.7c1.5,4.2,3.1,8.4,4.8,12.6h-9.2c-3.9-9.8-7.3-19.5-10.6-29c-3.9-11.3-8-22.9-12.7-34.2c-11.3-27.1-37.9-53.5-38.1-53.7
		c-0.3-0.3-0.4-0.7-0.4-1.1c0-0.8,0.6-1.6,1.5-1.7l1.9-0.3c0,0,0,0,0,0c0.8-0.1,1.7-0.2,2.7-0.4c0.5-0.1,1-0.1,1.5-0.2
		c17.1-1.9,46.8-4.7,63.5-6.3c3.9-0.4,11.9-1.2,15.8-1.5c1-0.1,2.1-0.2,4,0.2c1.4,0.3,2.3,1.3,2.3,1.3c0.1,0.1,6.3,7,13.8,16.6
		c0.4,0.4,0.8,0.9,1.2,1.3l-0.1,0c6.6,8.5,14.1,18.8,19.3,28.2c10.1,18.2,15.8,32.9,20.3,44.7c8.4,21.8,13.5,35,36.8,47.8
		c20.5,11.2,39.6,8.9,59.9,6.4c21.9-2.7,44.7-4.7,71,9.4C412,414.3,428.3,439.7,437,448z"/>
</g>
</svg>
