<?xml version="1.0" encoding="utf-8"?>
<!-- Generator: Adobe Illustrator 22.0.1, SVG Export Plug-In . SVG Version: 6.00 Build 0)  -->
<svg version="1.1" id="Layer_2" xmlns="http://www.w3.org/2000/svg" xmlns:xlink="http://www.w3.org/1999/xlink" x="0px" y="0px"
	 viewBox="0 0 448 512" style="enable-background:new 0 0 448 512;" xml:space="preserve">
<g id="_x33_2">
	<path d="M64.9,39.6c3.7,8.1,5.6,21.7,5.6,40.6v156.4c0,85,68.9,153.9,153.9,153.9c85,0,153.9-68.9,153.9-153.9V80.2
		c0-17.3,1.3-29.2,3.8-35.9c3.4-9.6,8.8-16.8,16.2-21.5c7.5-4.8,14.8-7.2,26-7.2h0.3V0H299.4v15.6c16.1,0,18.6,2.4,27.5,7.2
		c5.7,3.1,10.4,8.8,14.1,16.9c3.7,8.1,5.6,21.7,5.6,40.6l-0.2,156.4c0,67.3-54.6,121.9-121.9,121.9c-67.3,0-121.9-54.6-121.9-121.9
		l-0.2-156.4c0-17.3,1.3-29.2,3.8-35.9c3.4-9.6,8.8-16.8,16.2-21.5c7.5-4.8,14.8-7.2,26-7.2h0.3V0H23.3v15.6
		c16.1,0,18.6,2.4,27.5,7.2C56.5,25.8,61.2,31.5,64.9,39.6z"/>
	<rect y="480" width="448" height="32"/>
</g>
</svg>
