<?xml version="1.0" encoding="utf-8"?>
<!-- Generator: Adobe Illustrator 19.0.0, SVG Export Plug-In . SVG Version: 6.00 Build 0)  -->
<svg version="1.1" id="Layer_2" xmlns="http://www.w3.org/2000/svg" xmlns:xlink="http://www.w3.org/1999/xlink" x="0px" y="0px"
	 viewBox="-76 0 378 512" style="enable-background:new -76 0 378 512;" xml:space="preserve">
<g>
	<path d="M113,60c16.6,0,30-13.4,30-30S129.6,0,113,0S83,13.4,83,30S96.4,60,113,60z"/>
	<path d="M97,448h32V138l123.4,113.4V218l-0.5-6c-0.6-4.3-2.3-7.7-5.1-10.2L113,80.1L-19,202.8l-4.6,6c-1.2,2.8-1.9,5.3-1.9,7.4V253
		L97,138V448z"/>
	<polygon points="270,448 270,480.1 -44,480.1 -44,448 -76,448 -76,512.1 302,512.1 302,448 	"/>
</g>
</svg>
