<?xml version="1.0" encoding="utf-8"?>
<!-- Generator: Adobe Illustrator 21.1.0, SVG Export Plug-In . SVG Version: 6.00 Build 0)  -->
<svg version="1.1" id="Layer_1" xmlns="http://www.w3.org/2000/svg" xmlns:xlink="http://www.w3.org/1999/xlink" x="0px" y="0px"
	 viewBox="0 0 545.2 512" style="enable-background:new 0 0 545.2 512;" xml:space="preserve">
<g id="_x33_2">
	<path d="M367.2,48c21.9,21.1,43.3,43,64.1,64.3c24.3,24.9,49.2,50.5,75.3,75.1c-7,14.1-17.2,27.7-31.1,41.6
		c-26.5,26.5-62.5,50.4-104.2,78.1c-52.1,34.5-111.1,73.7-165.6,128.3c-8.8,8.8-17.4,17.9-25.4,27c-0.7,0.7-1.3,1.5-2,2.2
		c-34-33.2-96.9-95.7-138-140.9c7.8-11.1,17.6-22.5,29.4-34.3c35-35,83.5-68.9,130.4-101.7c49.6-34.7,100.8-70.5,140.3-110
		C350.5,67.7,359.4,57.8,367.2,48 M362.5,0.3c-0.4,0-0.8,0.2-1.2,0.6c-0.4,0.4-0.8,0.9-1.2,1.6c-11,18.3-25.4,35.7-42.2,52.5
		c-74.8,74.8-196.7,137.7-270.7,211.8c-19.4,19.3-35.4,39.3-46.5,60.5c54.8,63.5,179.6,184.3,180.4,184.3l0,0
		c7.5-9.7,15.3-19,23.2-27.9s15.9-17.4,24.1-25.6c95.2-95.2,206-142.5,269.8-206.3c21.6-21.6,37.8-45,46.3-72.9
		C481.7,121.8,426.8,58.2,364.1,1.2l-0.6-0.4C363.1,0.5,362.8,0.3,362.5,0.3L362.5,0.3z"/>
	<path d="M347.1,239.3l20.7,20.7c31.9-21.3,59.9-40.6,81.4-60.9L426,176C402,198.1,374.9,219.1,347.1,239.3z"/>
	<path d="M359.2,109.1c-24,22.2-51,43.1-78.9,63.4l20.7,20.7c31.9-21.3,59.9-40.6,81.4-60.9L359.2,109.1z"/>
	<path d="M222.2,352.4c0.1-8.5-3.3-16.4-10.2-23.2c-7-7.1-14.8-10.4-23.1-10.2c-7.7,0.3-17.5,2.9-28.9,8c-6.9,3-10.6,3.6-12.5,3.4
		c-2.5-0.1-4.8-1.2-7-3.4c-2.3-2.3-3.7-4.8-3.8-7.3c-0.1-2.3,0.8-4.7,3.3-7l0,0c2.3-2.3,4.8-3.2,7.7-2.7c3.3,0.4,6.9,2.6,10.4,6.3
		l2.3,2.3l19-19.1l-0.7-3.2l-0.7-0.7c-7.4-7.6-15.5-11.8-24.3-12.6c-7.8-0.7-15.5,1.2-22.7,6l-12.1-12.1l-13.2,13.3l11.8,12
		c-5.1,7.1-7.7,14.6-7.7,22.3c0,8.7,3.3,16.4,10,23.1c7.1,7.1,15,10.7,23.4,10.3c7.8-0.3,17.5-3.2,28.7-8.4
		c5.1-2.3,9.2-3.3,12.2-3.2c2.6,0.1,5.1,1.4,7.4,3.7c2.3,2.3,3.4,4.8,3.4,7.4c0,2.6-1.2,5.2-4,7.8c-2.9,2.9-5.9,4.3-9.3,4.4
		c-3.3,0.1-7.1-1.9-11.3-6l-2.3-2.3l-19.2,19.4l1.2,3l0.4,0.4c8.4,8.8,17.5,13.1,26.8,12.6c8.2-0.3,16.1-3.2,23.4-8.5l10.9,11
		l13.2-13.3l-11-11C219.4,367.4,222,360,222.2,352.4z"/>
</g>
</svg>
