<?xml version="1.0" encoding="utf-8"?>
<!-- Generator: Adobe Illustrator 21.1.0, SVG Export Plug-In . SVG Version: 6.00 Build 0)  -->
<svg version="1.1" id="Layer_3" xmlns="http://www.w3.org/2000/svg" xmlns:xlink="http://www.w3.org/1999/xlink" x="0px" y="0px"
	 viewBox="0 0 464.6 512" style="enable-background:new 0 0 464.6 512;" xml:space="preserve">
<g>
	<path d="M459.9,397.4c-5.4-16.6-15.5-28.8-27.3-38c-20.4-15.9-45.9-23.4-61.4-30.9c-29-13.9-65-26.3-65-26.3c0.3-1.5,0-3.3-0.8-5.1
		c-2.8-6.9-11.3-15.6-15.3-19.6c-0.2-0.2-0.3-0.3-0.5-0.5v-19.2c0,0,35.5-39,49.2-91.5h-34.9c-13.8,45.6-44.3,75.5-44.3,75.5
		s-3.7,6.8-3.7,27.9c0,27.6,16.7,37.9,17.9,40c0.3,20.8,34.9,30.1,68.3,43.1c43.5,16.9,88.3,35.4,88.3,68.3
		c0.2,58.2-188.5,56.8-198.5,56.8s-197.7,1.2-197.7-56.8c0-31.6,42.5-52,85.2-68.3c35.6-13.7,69.1-20.1,72.5-43.1
		c1-1.2,16.8-12.5,16.8-40c0-21.2-3.2-27.9-3.2-27.9s-30.8-29.9-44.8-75.5h-34.8c5.9,22.6,15.7,42.6,25,58.2
		c3.5,5.9,7,11.1,10.1,15.6c1.1,1.5,2.1,2.9,3,4.2c0.6,0.9,1.3,1.7,1.9,2.5c0.6,0.8,1.2,1.6,1.7,2.3c0.3,0.4,0.5,0.7,0.8,1.1
		c0.8,1,1.5,2,2.2,2.8c1.1,1.4,2.1,2.5,2.8,3.4c0.3,0.3,0.5,0.6,0.8,0.9c0.5,0.6,0.8,0.9,0.8,0.9v20c-14.7,13.9-17.7,24.9-17.7,24.3
		c0,0-30.5,11.1-59.8,22.5c-29.3,11.4-97,35.3-97,100.6c0,92.4,232,85.9,232,85.9s2.5,0.1,6.9,0.1c32.8,0.3,173.7-1.3,214-54.1
		c6.8-9,10.8-19.4,10.8-31.6C464.1,415.1,462.6,405.7,459.9,397.4z"/>
	<path d="M117,151.2h231.2c8.7,0,15.8-7.1,15.8-15.7v0c0-8.7-7.1-15.8-15.8-15.8h-5.3c0-49.7-32.4-86.7-56.6-94.3l-13,48.4
		c-1.1,4.1-5.1,6.7-9.3,6.1l-0.5-0.1c-4.6-0.7-7.7-5.1-7-9.6l10-59.2c-1.7-3.3-9.4-10.5-18.6-10.5h-31.2c-10.5,0-17,7.2-18.6,10.5
		l9.6,59.3c0.7,4.6-2.4,8.9-6.9,9.6c-4.2,0.7-8.3-2-9.4-6.1l-12.9-48.4c-16.9,4.7-57.3,41.2-57.3,94.3H117
		c-8.7,0-15.8,7.1-15.7,15.9C101.3,144.2,108.3,151.2,117,151.2z"/>
</g>
</svg>
