<?xml version="1.0" encoding="utf-8"?>
<!-- Generator: Adobe Illustrator 22.0.1, SVG Export Plug-In . SVG Version: 6.00 Build 0)  -->
<svg version="1.1" id="Layer_1" xmlns="http://www.w3.org/2000/svg" xmlns:xlink="http://www.w3.org/1999/xlink" x="0px" y="0px"
	 viewBox="0 0 590 512" style="enable-background:new 0 0 590 512;" xml:space="preserve">
<style type="text/css">
	.st0{fill:#010101;}
</style>
<g id="_x33_2">
	<path d="M470.1,323C442,414.5,356.7,481,256,481C132.3,481,32,380.7,32,257S132.3,33,256,33c27.8,0,54.3,5,78.9,14.3l11.8-29.8
		C318.5,6.8,287.9,1,256,1C114.6,1,0,115.6,0,257s114.6,256,256,256c118.6,0,218.3-80.6,247.4-190H470.1z"/>
	<path d="M398.1,376.9c-36.3-24.4-84.9-33.4-84.9-33.4s0-0.1-0.1-0.2c-0.1,0-0.2,0-0.2,0s-1.8-4.6-5.3-9.6c-3.1-4.5-8-9.3-8-9.3
		v-20.8l1.8-2.6c0,0,19.3-19.9,32.3-53.3c5.1-14.6,8.7-31.7,8.7-51c0-62.9-37.7-93.3-87.7-93.3c-69,0-87.7,50-87.7,93.2
		c0,8.8,0.8,17.1,2.1,25c10.7,48.7,40.2,79.2,40.2,79.2l0.6,2.6v20.8c0,0,0,0-0.1,0.1v0.1c0,0-4.9,4.9-8,9.4
		c-2.4,3.5-5.1,9.4-5.1,9.4s0,0,0,0c-0.1,0.2-0.1,0.3-0.1,0.3s-63.5,11.9-99.6,44.9c0,0-0.1,0.1-0.1,0.1
		c-12.7,11.8-21.8,26.2-23.5,43.7c46.5,47.2,111.1,76.5,182.6,76.5c70.4,0,134.2-28.4,180.4-74.4C435,410.3,418.7,390.8,398.1,376.9
		z M400.2,457c-8.7,6.7-42.4,27.2-146.4,27.2S118.5,463.7,109.7,457c-9.8-7.6-11.1-14.4-11.1-19.4c0-9.6,4-18.5,12.1-27.2
		c8-8.5,39.6-35,104.9-44.5c0,0,6-15.9,7.3-17.8c1.3-1.8,12.6-13.3,12.6-13.3l0.2-41.5c0,0-43.1-34.2-43.1-96.7
		c0-49.7,27.1-67.9,62.3-67.9c35.2,0,62.3,18.6,62.3,68c0,61.2-42.9,96.5-42.9,96.5v41.6c0,0,11.3,11.5,12.6,13.4
		c1.3,1.9,7.1,17.3,7.1,17.3c66.8,11.1,97.2,36.6,105.1,45.1c8.2,8.7,12.1,17.6,12.1,27.2C411.2,442.8,410,449.5,400.2,457z"/>
	<path class="st0" d="M471.5,44C406,44,353,97.1,353,162.5S406,281,471.5,281s118.5-53,118.5-118.5S536.9,44,471.5,44z M471.5,256.9
		c-52.2,0-94.4-42.3-94.4-94.4s42.3-94.4,94.4-94.4s94.4,42.3,94.4,94.4S523.6,256.9,471.5,256.9z"/>
	<path class="st0" d="M541,168.3c-1.5-1.2-3.4-2-5.4-2.2l-50.2-5.1c-0.6-3.2-2.3-6.2-4.9-8.2l3.1-4.5l-1.5-1.1l-3,4.5
		c-0.9-0.6-1.9-1.1-2.9-1.4l-1.8-0.5c-0.4-0.1-0.8-0.1-1.2-0.2l-6.1-27.5c-0.8-3.9-3.2-7.4-6.6-9.6l-9.6-6.2l-3,10
		c-1.4,4.5-0.9,9.3,1.2,13.5l12.6,23.9c-1.6,1.7-2.9,3.7-3.5,6.1c-1.5,5.7,0.7,11.6,5.2,14.9l-16.3,23.5c-3.4-1.8-7.7-0.8-10,2.5
		c-2.3,3.3-1.6,7.7,1.3,10.2l-3.9,5.8l1.5,1.1l3.9-5.8c3.4,1.8,7.7,0.8,10-2.5c2.3-3.3,1.6-7.7-1.3-10.2l16.2-23.6
		c0.7,0.4,1.5,0.7,2.3,1l1.8,0.5c6.4,1.2,12.8-2,15.5-7.8l49.1,10.5c2,0.4,3.9,0.3,5.8-0.4l11-4L541,168.3z M479.8,165.8
		c-1.1,4.2-5.4,6.9-9.6,6.2c-0.3-0.1-0.6-0.1-0.9-0.2c-0.3-0.1-0.6-0.2-0.8-0.3c-4-1.5-6.2-6-5.1-10.2c1.1-4.2,5.4-6.9,9.6-6.2
		c0.3,0.1,0.6,0.1,0.9,0.2c0.3,0.1,0.6,0.2,0.8,0.3C478.7,157.1,481,161.5,479.8,165.8z"/>
</g>
</svg>
