<?xml version="1.0" encoding="utf-8"?>
<!-- Generator: Adobe Illustrator 21.1.0, SVG Export Plug-In . SVG Version: 6.00 Build 0)  -->
<svg version="1.1" id="Layer_1" xmlns="http://www.w3.org/2000/svg" xmlns:xlink="http://www.w3.org/1999/xlink" x="0px" y="0px"
	 viewBox="0 0 512 512" style="enable-background:new 0 0 512 512;" xml:space="preserve">
<g>
	<path d="M256,0.1C114.6,0.1,0,114.7,0,256.1c0,141.4,114.6,256,256,256c141.4,0,256-114.6,256-256C512,114.7,397.4,0.1,256,0.1z
		 M256,480c-60.4,0-115.1-23.9-155.4-62.7c24.4-27.9,73.1-45.6,114-50.9c0,0,4.3-14,7.7-18.8c2.2-3.5,13.3-14.1,13.3-14.1l0.2-38.5
		c0,0-45.4-41.6-45.4-106.3c0-52.7,29-71.7,65.7-71.7c36,0,65.8,18.4,65.8,71.8c0,65.6-45.3,106.2-45.3,106.2l-0.1,38.6
		c0,0,11.2,10.9,13.3,14.2c3.7,4.7,7.5,18.3,7.5,18.3c44.5,6.8,96.4,28.9,114.1,51.3C371.1,456.2,316.3,480,256,480z M429.6,397.6
		c-35.8-40.6-112.4-55-112.4-55s-1.9-4.9-5.5-10.1c-3.3-4.7-8.4-9.8-8.4-9.8V306c0,0,45.3-46.8,45.3-117.2
		c0-69.7-42.4-98.5-92.5-98.5c-50.1,0-92.5,28.9-92.5,98.5c0,70.3,45.3,117.1,45.3,117.1v16.6c0,0-5.1,5.1-8.4,9.8
		c-3.7,5.2-5.5,10.1-5.5,10.1s-76.7,14.3-112.5,55.1C50.9,358.9,32,309.7,32,256.1C32,132.4,132.3,32.1,256,32.1
		s224,100.3,224,223.9C480,309.7,461.1,359,429.6,397.6z"/>
</g>
</svg>
