<?xml version="1.0" encoding="utf-8"?>
<!-- Generator: Adobe Illustrator 21.1.0, SVG Export Plug-In . SVG Version: 6.00 Build 0)  -->
<svg version="1.1" id="Layer_1" xmlns="http://www.w3.org/2000/svg" xmlns:xlink="http://www.w3.org/1999/xlink" x="0px" y="0px"
	 viewBox="0 0 462.1 512" style="enable-background:new 0 0 462.1 512;" xml:space="preserve">
<path d="M458.4,410.8c-13.8-42.7-64.5-82.4-153.8-106.8c0,0-2.3-5.1-6-10.7c-4.5-6.8-10.5-14.3-10.5-14.3v-19.1c0,0,1.2-0.9,3.2-2.8
	c0,0,0,0,0.1-0.1c6-5.4,19.3-18.7,30.6-37.6c8.7-14.6,16.3-32.7,18.6-53.4c1.2-6,2.1-11.9,2.8-17.7l0,0c12.2-4.7,6.4,10.7,6.6,20.4
	c0,0,1.3,36.3,24.3,71c3.9,5.8,19.2,14.7,17.2,3.1c-4.3-7.4-3.5-21,0-27c0.2-3.8,0.2-7.7,0.3-11.5c-0.2-5.4-1.4-15.8,4.5-8.3
	c3.8,4.3,29.7,36.5,46.9,21.5c-14.6-21.5-20-73.7-55.4-92.6c-3.3-1.8-7.6-3.2-12.6-4c-3.2-0.5-7.4-0.2-9.5-3.1c-1.7-2-2.9-4.2-4.6-6
	c-3.5-0.5-15.5,0.8-16.9-3.4c-0.3-2.3-1.1-6.8-1.5-9.1h-0.2v0c-9.8-56.9-50.4-93.3-101.9-97.1H240C238.6,2,234.8,2,231,2
	c-3.8,0-7.6,0.1-9,0.2h-0.4c-50.1,3.6-89.8,38.1-101,92.3c-1.8,8.7-2.9,17.8-3.1,27.4c0,1.2-0.1,2.4-0.1,3.6
	c0,6.1,0.2,12.3,0.8,18.8c0.1,1.3,0.3,2.6,0.4,3.9c0.1,1.3,0.3,2.6,0.5,3.9l0,0c0.6,4.6,1.4,9.2,2.3,14c2.2,20.7,9.8,38.7,18.6,53.4
	c11.4,18,24.5,31.6,30.5,37.5c2.1,2.1,3.4,3.2,3.4,3.2V279c0,0-6.2,7.5-11,14.3c-4,5.7-6.6,10.9-6.6,10.9
	c-85,22.3-135.2,60.7-150.9,102c-7.8,21.4-5.1,36.1-4.4,39.5c9.9,55.2,96.5,64.9,201.5,66.1c9.3,0.1,18.8,0.1,28.4,0.1
	c9.7,0,19.4,0,28.8-0.1c105.1-1.2,191.6-10.8,201.4-66.1C462.1,441.8,463.7,426.1,458.4,410.8z M178,53.1c12.2-11,27.6-17.5,44.9-19
	h0.3l1-0.1c0.7,0,3.1-0.1,6.9-0.1c3.8,0,6.2,0.1,6.8,0.1l1,0.1h0.3c17.8,1.5,33.6,8.4,46,20c12.2,11.4,20.7,27.2,24.7,45.8
	c-49.4,0.2-115.1-2.7-156.5-4.3C157.7,78.3,166.2,63.7,178,53.1z M429.9,439.2l-0.1,0.3l-0.1,0.7c-0.8,4.4-3.2,17.9-41.6,28
	c-36.1,9.5-87.7,11.3-128.7,11.7c-9.3,0.1-18.6,0.1-28.5,0.1c-9.7,0-18.9,0-28-0.1c-40.9-0.5-92.4-2.2-128.6-11.8
	c-38.5-10.1-41-23.6-41.8-28l-0.1-0.4l-0.1-0.4c-0.2-0.9-1.6-9,3.1-21.9c5.7-14.9,18.8-29.8,37.8-43.1
	c23.2-16.2,53.9-29.4,91.2-39.1l14.1-3.5l6.4-13.1c0.2-0.5,1.9-3.6,4.2-6.9c4-5.7,9.5-12.3,9.5-12.4l7.3-8.9V279v-18.9l0.4-14.8
	l-11.7-9.5c-0.2-0.2-0.8-0.7-1.6-1.5l-0.1-0.1l-0.1-0.1c-5.6-5.5-16.3-16.8-25.7-31.5c-7.9-13.3-12.6-26.8-14-40l-0.2-1.5l-0.3-1.4
	c-0.4-2.1-0.8-4.2-1.1-6.2c52.8,1.2,119.4-1.9,159.1-3.7c-0.5,3.3-1,6.5-1.7,9.8l-0.3,1.4l-0.2,1.4c-1.5,13.6-6.3,27.2-14.2,40.5
	c-9.8,16.4-21.3,27.3-24.5,30.3l-0.6,0.6l-0.4,0.4c-0.2,0.1-0.3,0.3-0.4,0.4l-12.5,8.5v16.9v19.1v11.2l7,8.8c0.1,0.1,5.2,6.5,8.8,12
	c2,3,3.4,5.8,3.6,6.3l6,13.6l14.7,4c39.5,10.8,71.5,24.9,95,41.7c19.2,13.7,31.9,29,36.8,44.1l0.1,0.3l0.1,0.3
	C430.7,428.7,430.2,437,429.9,439.2z"/>
</svg>
