<?xml version="1.0" encoding="utf-8"?>
<!-- Generator: Adobe Illustrator 21.1.0, SVG Export Plug-In . SVG Version: 6.00 Build 0)  -->
<svg version="1.1" id="Layer_1" xmlns="http://www.w3.org/2000/svg" xmlns:xlink="http://www.w3.org/1999/xlink" x="0px" y="0px"
	 viewBox="0 0 590 512" style="enable-background:new 0 0 590 512;" xml:space="preserve">
<g id="_x33_2">
	<path d="M470.1,323c-9.2,30-24.5,57.3-44.5,80.4c-6.9-10.3-16.6-19.2-27.5-26.5c-36.3-24.4-84.9-33.4-84.9-33.4s0-0.1-0.1-0.2
		c-0.1,0-0.2,0-0.2,0s-1.8-4.6-5.3-9.6c-3.1-4.5-8-9.3-8-9.3v-20.8l1.8-2.6c0,0,19.3-19.9,32.3-53.3c5.1-14.6,8.7-31.7,8.7-51
		c0-62.9-37.7-93.3-87.7-93.3c-69,0-87.7,50-87.7,93.2c0,8.8,0.8,17.1,2.1,25c10.7,48.7,40.2,79.2,40.2,79.2l0.6,2.6v20.8
		c0,0,0,0-0.1,0.1v0.1c0,0-4.9,4.9-8,9.4c-2.4,3.5-5.1,9.4-5.1,9.4c-0.1,0.2-0.1,0.3-0.1,0.3s-63.5,11.9-99.6,44.9l-0.1,0.1
		c-4.4,4.1-8.4,8.5-11.8,13.3C52,362.8,32,312.2,32,257C32,133.3,132.3,33,256,33c27.8,0,54.3,5,78.9,14.3l11.8-29.8
		C318.5,6.8,287.9,1,256,1C114.6,1,0,115.6,0,257s114.6,256,256,256c118.6,0,218.3-80.6,247.4-190H470.1z M110.7,410.4
		c8-8.5,39.6-35,104.9-44.5c0,0,6-15.9,7.3-17.8c1.3-1.8,12.6-13.3,12.6-13.3l0.2-41.5c0,0-43.1-34.2-43.1-96.7
		c0-49.7,27.1-67.9,62.3-67.9c35.2,0,62.3,18.6,62.3,68c0,61.2-42.9,96.5-42.9,96.5v41.6c0,0,11.3,11.5,12.6,13.4
		c1.3,1.9,7.1,17.3,7.1,17.3c66.8,11.1,97.2,36.6,105.1,45.1c3.6,3.8,6.3,7.6,8.3,11.5c-39.9,36.6-93,58.9-151.4,58.9
		c-59.1,0-112.9-22.9-152.9-60.3C105,417.2,107.5,413.8,110.7,410.4z"/>
</g>
<path d="M373.9,233.9h202.4c7.6,0,13.8-6.2,13.8-13.7l0,0c0-7.6-6.2-13.8-13.8-13.8h-4.6c0-43.5-28.4-75.9-49.5-82.5l-11.4,42.4
	c-1,3.6-4.5,5.9-8.1,5.3l-0.4-0.1c-4-0.6-6.7-4.5-6.1-8.4l8.8-51.8c-1.5-2.9-8.2-9.2-16.3-9.2h-27.3c-9.2,0-14.9,6.3-16.3,9.2
	l8.4,51.9c0.6,4-2.1,7.8-6,8.4c-3.7,0.6-7.3-1.8-8.2-5.3l-11.3-42.4c-14.8,4.1-50.2,36.1-50.2,82.5h-3.7c-7.6,0-13.8,6.2-13.7,13.9
	C360.2,227.7,366.3,233.9,373.9,233.9z"/>
</svg>
