<?xml version="1.0" encoding="utf-8"?>
<!-- Generator: Adobe Illustrator 22.0.1, SVG Export Plug-In . SVG Version: 6.00 Build 0)  -->
<svg version="1.1" id="Layer_1" xmlns="http://www.w3.org/2000/svg" xmlns:xlink="http://www.w3.org/1999/xlink" x="0px" y="0px"
	 viewBox="0 0 590 512" style="enable-background:new 0 0 590 512;" xml:space="preserve">
<style type="text/css">
	.st0{fill:#010101;}
</style>
<g id="_x33_2">
	<path d="M470.1,323C442,414.5,356.7,481,256,481C132.3,481,32,380.7,32,257S132.3,33,256,33c27.8,0,54.3,5,78.9,14.3l11.8-29.8
		C318.5,6.8,287.9,1,256,1C114.6,1,0,115.6,0,257s114.6,256,256,256c118.6,0,218.3-80.6,247.4-190H470.1z"/>
	<path d="M398.1,376.9c-36.3-24.4-84.9-33.4-84.9-33.4s0-0.1-0.1-0.2c-0.1,0-0.2,0-0.2,0s-1.8-4.6-5.3-9.6c-3.1-4.5-8-9.3-8-9.3
		v-20.8l1.8-2.6c0,0,19.3-19.9,32.3-53.3c5.1-14.6,8.7-31.7,8.7-51c0-62.9-37.7-93.3-87.7-93.3c-69,0-87.7,50-87.7,93.2
		c0,8.8,0.8,17.1,2.1,25c10.7,48.7,40.2,79.2,40.2,79.2l0.6,2.6v20.8c0,0,0,0-0.1,0.1v0.1c0,0-4.9,4.9-8,9.4
		c-2.4,3.5-5.1,9.4-5.1,9.4s0,0,0,0c-0.1,0.2-0.1,0.3-0.1,0.3s-63.5,11.9-99.6,44.9c0,0-0.1,0.1-0.1,0.1
		c-12.7,11.8-21.8,26.2-23.5,43.7c46.5,47.2,111.1,76.5,182.6,76.5c70.4,0,134.2-28.4,180.4-74.4C435,410.3,418.7,390.8,398.1,376.9
		z M400.2,457c-8.7,6.7-42.4,27.2-146.4,27.2S118.5,463.7,109.7,457c-9.8-7.6-11.1-14.4-11.1-19.4c0-9.6,4-18.5,12.1-27.2
		c8-8.5,39.6-35,104.9-44.5c0,0,6-15.9,7.3-17.8c1.3-1.8,12.6-13.3,12.6-13.3l0.2-41.5c0,0-43.1-34.2-43.1-96.7
		c0-49.7,27.1-67.9,62.3-67.9c35.2,0,62.3,18.6,62.3,68c0,61.2-42.9,96.5-42.9,96.5v41.6c0,0,11.3,11.5,12.6,13.4
		c1.3,1.9,7.1,17.3,7.1,17.3c66.8,11.1,97.2,36.6,105.1,45.1c8.2,8.7,12.1,17.6,12.1,27.2C411.2,442.8,410,449.5,400.2,457z"/>
	<path class="st0" d="M551.8,215.9H388.9l-6.5,23.2h176L551.8,215.9z M397.4,229.7c-1.4,0-2.2-0.7-2.2-1.4c0-1.4,0.7-2.2,2.2-2.2
		c0.7,0,1.4,0.7,1.4,2.2C398.8,229,398.1,229.7,397.4,229.7z M421,229.7c-0.7,0-2.2-0.7-2.2-1.4c0-1.4,1.4-2.2,2.2-2.2
		c0.7,0,2.2,0.7,2.2,2.2C423.2,229,421.7,229.7,421,229.7z M444.6,229.7c-0.7,0-1.4-0.7-1.4-1.4c0-1.4,0.7-2.2,1.4-2.2
		c1.4,0,2.2,0.7,2.2,2.2C446.7,229,446,229.7,444.6,229.7z M468.9,229.7c-1.4,0-2.2-0.7-2.2-1.4c0-1.4,0.7-2.2,2.2-2.2
		c0.7,0,1.4,0.7,1.4,2.2C470.3,229,469.6,229.7,468.9,229.7z M492.5,229.7c-0.7,0-2.2-0.7-2.2-1.4c0-1.4,1.4-2.2,2.2-2.2
		c0.7,0,2.2,0.7,2.2,2.2C494.7,229,493.2,229.7,492.5,229.7z M516.1,229.7c-0.7,0-1.4-0.7-1.4-1.4c0-1.4,0.7-2.2,1.4-2.2
		c1.4,0,2.2,0.7,2.2,2.2C518.2,229,517.5,229.7,516.1,229.7z M540.4,229.7c-1.4,0-2.2-0.7-2.2-1.4c0-1.4,0.7-2.2,2.2-2.2
		c0.7,0,1.4,0.7,1.4,2.2C541.8,229,541.1,229.7,540.4,229.7z M411.7,115.9c-1,8.8-2.9,17.6-5.8,26.3c6.8,7.8,11.7,17.6,15.5,26.3
		c1.9-8.8,4.9-18.5,9.7-27.3c-5.8-7.8-10.7-16.6-14.6-25.4c4.9-1.9,7.8-5.9,7.8-10.7c0-6.8-4.9-11.7-11.7-11.7
		c-5.8,0-10.7,4.9-10.7,11.7C402,111,405.9,115.9,411.7,115.9z M556.1,245.3H381.7c-2.2,0-4.3,2.2-4.3,4.3c0,2.2,2.2,4.3,4.3,4.3
		h174.4c2.2,0,4.3-2.2,4.3-4.3C560.4,247.5,558.3,245.3,556.1,245.3z M519.6,168.6c3.9-8.8,8.8-18.5,15.5-26.3
		c-2.9-8.8-4.9-17.6-5.8-26.3c5.8,0,9.7-4.9,9.7-10.7c0-6.8-4.9-11.7-10.7-11.7c-6.8,0-11.7,4.9-11.7,11.7c0,4.9,2.9,8.8,7.8,10.7
		c-3.9,8.8-8.8,17.6-14.6,25.4C514.7,150,517.6,159.8,519.6,168.6z M577.9,107.1c-5.8,0-10.7,5.9-10.7,11.7c0,1.9,0,2.9,1,4.9
		c-23.3,4.9-41.8,28.3-49.6,57.6c-2.9-34.1-20.4-62.5-43.7-71.3c3.9-1.9,6.8-5.9,6.8-10.7c0-6.8-4.9-11.7-10.7-11.7
		c-6.8,0-11.7,4.9-11.7,11.7c0,4.9,2.9,8.8,6.8,10.7c-23.3,8.8-40.8,37.1-43.7,71.3c-7.8-29.3-26.3-52.7-49.6-57.6
		c1-1.9,1-2.9,1-4.9c0-5.9-4.9-11.7-10.7-11.7c-6.8,0-11.7,5.9-11.7,11.7c0,6.8,4.9,11.7,11.7,11.7c2.9,0,4.9-1,6.8-2.9
		c13.6,20.5,19.6,86,19.6,86s36.7,0,81.8,0c44.6,0,80.2,0,80.2,0s6-65.5,19.6-86c1.9,1.9,3.9,2.9,6.8,2.9c6.8,0,11.7-4.9,11.7-11.7
		C589.5,112.9,584.7,107.1,577.9,107.1z M403.8,194.2c-0.6-6.2-2.1-16.8-4.1-26.5c4.6,7.5,8,21,9.1,26.5H403.8z M437.9,194.2
		c0.6-6.3,0.3-14.7,3.2-26.8c4.2-17.2,15.2-35.2,29.6-41.6c13.9,7,23.9,21.8,28.7,40c2.7,10.1,3.1,18.1,3.8,28.3L437.9,194.2
		L437.9,194.2z M536.9,194.2h-4.4c1-5.7,4.6-20.2,8.5-26.2C540.4,172.4,537.5,188.4,536.9,194.2z M470.7,136.2c-2.4,0-4.4,2-4.4,4.4
		c0,2.4,2,4.4,4.4,4.4s4.4-2,4.4-4.4S473.1,136.2,470.7,136.2z"/>
</g>
</svg>
