<?xml version="1.0" encoding="utf-8"?>
<!-- Generator: Adobe Illustrator 21.1.0, SVG Export Plug-In . SVG Version: 6.00 Build 0)  -->
<svg version="1.1" id="Layer_1" xmlns="http://www.w3.org/2000/svg" xmlns:xlink="http://www.w3.org/1999/xlink" x="0px" y="0px"
	 viewBox="0 0 512 512" style="enable-background:new 0 0 512 512;" xml:space="preserve">
<g>
	<path d="M256,0C114.6,0,0,114.6,0,256s114.6,256,256,256c141.4,0,256-114.6,256-256S397.4,0,256,0z M102.6,419.4
		c0.7-8.4,4.6-16.3,11.8-24.1c7.8-8.4,32.8-29.6,88.3-42.7c15.6,9,34,13.9,53.2,13.9c19.3,0,37.8-4.9,53.4-14
		c56.3,13,81.5,34.5,89.3,43c6.9,7.5,10.7,15.1,11.6,23.2c-40.2,38.1-94.5,61.5-154.2,61.5C196.7,480.1,142.7,457.1,102.6,419.4z
		 M215.1,308.3c9.3,10.2,24.1,16.7,40.7,16.7c17.4,0,32.7-7.1,41.9-18.1l14.3,11.8c-13,13.8-33.3,22.8-56.2,22.8
		c-22.2,0-42-8.4-55-21.5L215.1,308.3z M192.7,239.9h-0.1c-8.2,0-14.1-36.1-1.4-36.1c0.4,0,0.8,0,1.2,0.1
		c14.9-16.5,12.6-18.5,13.1-46c6.4,12.4,15.2,24.9,44.8,24.9c13.6,0,27.3-2.3,38.6-2.3c15.6,0,26.6,4.4,26.6,25.3
		c1.7-1.6,3.1-2.3,4.4-2.3c9,0,7,36.5-4.1,36.5c-0.6,0-1.2-0.1-1.8-0.3c-8.5,39.2-32.5,67.4-60.7,67.4
		C225.2,307.1,201.3,279,192.7,239.9z M429.9,397.4c-23.2-49.9-111.1-68.5-116-69.5c1.8,0.2,20.9,2.7,21.3,2.7
		c5.6,0,10.3-4.7,10-10.5c0,0-8.5-20.9-2.4-134.7c2.8-51.1-39.6-92.1-86.4-92.1c-45.4,0-90.1,38.9-86.4,92
		c6.2,113.9-2.4,134.6-2.4,134.6c-0.3,5.8,4.4,10.5,10,10.5c0.4,0,19.5-2.5,21.3-2.7c-5,1-93.9,19.9-116.4,70.3
		C50.9,359.4,31.9,309.9,31.9,256C31.9,132.2,132.2,31.9,256,31.9S480.1,132.2,480.1,256C480.1,309.6,461.3,358.9,429.9,397.4z"/>
</g>
</svg>
