<?xml version="1.0" encoding="utf-8"?>
<!-- Generator: Adobe Illustrator 21.1.0, SVG Export Plug-In . SVG Version: 6.00 Build 0)  -->
<svg version="1.1" id="Layer_1" xmlns="http://www.w3.org/2000/svg" xmlns:xlink="http://www.w3.org/1999/xlink" x="0px" y="0px"
	 viewBox="0 0 463.6 512" style="enable-background:new 0 0 463.6 512;" xml:space="preserve">
<path d="M370.6,329c-29-13.9-65-26.3-65-26.3c1.4-7.3-11.8-20.5-16.6-25.2v-19.2c0,0,46.6-51.3,53.6-115.4c0.2-1,5-32.5-3.6-65.7
	L415.8,55l1.5-0.4l-0.2,6.5c-6.1,0.4-10.6,4.9-10.6,10c0,4.6,3.7,8.2,8.4,9.7l-7.9,99.1v0.6l3.4,25.1l2.7-10.4l5.1,15l12.5-30.2
	l-8.8-99.1c5.4-1.1,8.8-4.9,8.4-9.7c0-5.1-4.4-9.5-10.3-10l-0.5-7l15-4.9L231.8,0L28.9,47.6L125,76c-9.2,33.6-4.4,65.9-4.3,67.1
	c3.6,32.2,17,61.1,29.5,81.9c12.5,20.9,24.1,33.7,24.1,33.7v20c-14.7,13.9-17.7,24.9-17.7,24.3c0,0-30.5,11.1-59.8,22.5
	c-29.3,11.4-97,35.3-97,100.6c0,92.4,232,85.9,232,85.9s231.6,7.8,231.6-85.5C463.6,357,399.6,343,370.6,329z M231.2,478.4
	c-10,0-197.7,1.2-197.7-56.8c0-31.6,42.5-52,85.2-68.3c35.6-13.7,69.1-20.1,72.5-43.1c1-1.2,16.8-12.5,16.8-40
	c0-21.2-3.2-27.9-3.2-27.9s-50.4-48.9-51.5-117.2c16.1,5.5,56.3,15.8,76.9,15.8c18.5,0,59.5-9.7,79.6-15.6
	c-1.1,68.1-51,116.9-51,116.9s-3.7,6.8-3.7,27.9c0,27.6,16.7,37.9,17.9,40c0.3,20.8,34.9,30.1,68.3,43.1
	c43.5,16.9,88.3,35.4,88.3,68.3C429.9,479.8,241.2,478.4,231.2,478.4z"/>
</svg>
