<?xml version="1.0" encoding="utf-8"?>
<!-- Generator: Adobe Illustrator 21.1.0, SVG Export Plug-In . SVG Version: 6.00 Build 0)  -->
<svg version="1.1" id="_x33_2" xmlns="http://www.w3.org/2000/svg" xmlns:xlink="http://www.w3.org/1999/xlink" x="0px" y="0px"
	 viewBox="0 0 640 512" style="enable-background:new 0 0 640 512;" xml:space="preserve">
<g>
	<path d="M640,356c-0.1,29.8-25,44.7-63.4,52.1c-1.4-7.7-4.2-15.5-8.2-23c5.6-0.9,11-2,16-3.3c30.3-7.7,29.3-18.1,30-21.5
		c0.3-1.3,0.4-2.7,0.4-4.2c0-1.2-0.1-2.2-0.2-3.3l0,0l0,0c-0.1-0.8-0.2-1.7-0.4-2.5l-0.1-0.5v-0.2c0-0.1,0-0.3-0.1-0.4l-0.2-0.7
		l-0.1-0.4c0-0.2-0.1-0.4-0.1-0.6l-0.1-0.2v-0.2c-0.1-0.2-0.1-0.4-0.2-0.6l-0.1-0.2l-0.1-0.3c-0.1-0.3-0.2-0.6-0.3-1
		c-3.8-11.6-11-23.3-26-33.9c-18.4-13-43.6-23.8-74.6-32.1l-14.8-4l-2.8-12.2c-0.9-1.6-3.2-5.3-8.4-11.3l-5.7-6.8v-35.6l9.4-7.2
		c0.1-0.1,0.5-0.4,1-0.8l0,0l0.5-0.4c3.4-3,12-11.3,19.4-23.3c6.3-10.3,10.1-20.8,11.2-31.2l0.1-1.1l0.3-1.1
		c6.1-29.8,1.8-56.1-12.2-74.1c-10.3-13.3-25.1-21.1-42.7-22.6l-1.2-0.1c-1.5-0.1-3-0.2-4.4-0.2H461c-1.8,0-3.6,0.1-5.4,0.2h-0.6
		c-6.2,0.5-12,1.8-17.4,3.8c-6.6-6.6-14.2-12.3-22.4-16.7c5.3-3.1,10.9-5.6,16.8-7.6h0.1c9-2.9,19-4.3,30.1-4.4c2,0,4.1,0.1,6,0.2
		h0.1c0.1,0,0.2,0,0.3,0c22.4,1.6,42.2,10.9,56.7,26.4c0.4,0.4,0.6,0.7,1,1c19.7,22.2,29,56.5,20.5,98.7c-3.2,30-21,52.9-31.9,64.3
		c-0.1,0.1-0.3,0.3-0.4,0.4c-2.4,2.4-4.4,4.3-5.9,5.6c0,0,0,0-0.1,0.1c-1.6,1.4-2.5,2.1-2.5,2.1v14.8c11.3,13.6,12.9,19,13,19.3
		c22.6,6.1,41.8,13.4,57.7,21.5c1.3,0.6,2.6,1.3,3.8,2c5.4,2.9,10.2,5.8,14.9,8.9c0.7,0.6,1.5,1,2.3,1.6c0.6,0.5,1.3,0.9,1.8,1.3
		c0.4,0.3,0.7,0.6,1.1,0.7c19.2,14,31.1,29.8,36.4,46.2c0.2,0.6,0.4,1.2,0.6,1.8c0.2,0.6,0.4,1.2,0.5,1.8c0.2,0.6,0.3,1.2,0.5,1.8
		c0,0.1,0.1,0.3,0.1,0.5c0.1,0.5,0.2,0.9,0.3,1.5c0.1,0.3,0.1,0.6,0.2,0.8c0.3,1.5,0.5,3,0.6,4.5c0.2,1.5,0.3,3,0.3,4.3
		C640,355.1,640,355.5,640,356z"/>
	<path d="M0,356c0.1,29.8,25,44.7,63.4,52.1c1.4-7.7,4.2-15.5,8.2-23c-5.6-0.9-11-2-16-3.3c-30.3-7.7-29.4-18.1-30.1-21.5
		c-0.3-1.3-0.4-2.7-0.4-4.2c0-1.2,0.1-2.2,0.2-3.3l0,0l0,0c0.1-0.8,0.2-1.7,0.4-2.5l0.1-0.5v-0.2c0-0.1,0-0.3,0.1-0.4l0.2-0.7
		l0.1-0.4c0-0.2,0.1-0.4,0.1-0.6l0.1-0.2v-0.2c0.1-0.2,0.1-0.4,0.2-0.6l0.1-0.2l0.1-0.3c0.1-0.3,0.2-0.6,0.3-1
		c3.8-11.6,11-23.3,26-33.9c18.4-13,43.6-23.8,74.6-32.1l14.8-4l2.8-12.2c0.9-1.6,3.2-5.3,8.4-11.3l5.7-6.8v-35.6l-9.4-7.2
		c-0.1-0.1-0.5-0.4-1-0.8l0,0l-0.5-0.4c-3.4-3-12-11.3-19.4-23.3c-6.3-10.3-10.1-20.8-11.2-31.2l-0.1-1.2l-0.3-1.1
		c-6.1-29.8-1.8-56.1,12.2-74.1C140,56.8,154.8,49,172.4,47.5l1.2-0.1c1.5-0.1,3-0.2,4.4-0.2h0.8c1.8,0,3.6,0.1,5.4,0.2h0.6
		c6.2,0.5,12,1.8,17.4,3.8c6.6-6.6,14.2-12.3,22.4-16.7c-5.3-3.1-10.9-5.6-16.8-7.6h-0.1c-9-2.9-19-4.3-30.1-4.4c-2,0-4.1,0.1-6,0.2
		h-0.1c-0.1,0-0.2,0-0.3,0c-22.4,1.6-42.2,10.9-56.7,26.4c-0.4,0.4-0.6,0.7-1,1c-19.7,22.2-29,56.6-20.5,98.7
		c3.2,30,21,52.9,31.9,64.3c0.1,0.1,0.3,0.3,0.4,0.4c2.4,2.4,4.4,4.3,5.9,5.6c0,0,0,0,0.1,0.1c1.6,1.4,2.5,2.1,2.5,2.1V236
		c-11.3,13.6-12.9,19-13,19.3c-22.6,6.1-41.8,13.4-57.7,21.5c-1.3,0.6-2.6,1.3-3.8,2c-5.4,2.9-10.2,5.8-14.9,8.9
		c-0.7,0.6-1.5,1-2.3,1.6c-0.6,0.5-1.3,0.9-1.8,1.3c-0.4,0.3-0.7,0.6-1.1,0.7c-19.2,14-31.1,29.8-36.4,46.2
		c-0.2,0.6-0.4,1.2-0.6,1.8c-0.2,0.6-0.4,1.2-0.5,1.8c-0.2,0.6-0.3,1.2-0.5,1.8c0,0.1-0.1,0.3-0.1,0.5c-0.1,0.5-0.2,0.9-0.3,1.5
		c-0.1,0.3-0.1,0.6-0.2,0.8c-0.3,1.5-0.5,3-0.6,4.5c-0.2,1.5-0.3,3-0.3,4.3C0,355.1,0,355.5,0,356z"/>
	<path d="M448.1,324.6c-26.8-12.8-60-24.3-60-24.3c1.3-6.7-10.9-18.9-15.3-23.2v-17.7c0,0,43-47.3,49.4-106.5
		c0.4-2,20.1-131.9-101.8-131.9c-122.3,0.1-103,129.7-102.8,132l0,0c6.5,59.4,49.4,106.6,49.4,106.6v18.4
		c-13.6,12.8-16.3,23-16.3,22.4c0,0-28.1,10.2-55.2,20.8s-89.5,32.6-89.5,92.8c0,85.2,214,79.2,214,79.2s213.6,7.2,213.6-78.9
		C533.9,350.4,474.9,337.5,448.1,324.6z M319.5,462.4c-9.2,0-182.4,1.1-182.4-52.4c0-29.1,39.2-48,78.6-63
		c32.8-12.6,63.7-18.5,66.9-39.8c0.9-1.1,15.5-11.5,15.5-36.9c0-19.6-3-25.7-3-25.7s-47.5-46-47.5-110c0-64.1,29.7-82.4,72.2-82.4
		s72.2,18.4,72.2,82.4c0,63.9-47,110-47,110s-3.4,6.3-3.4,25.7c0,25.5,15.4,35,16.5,36.9c0.3,19.2,32.2,27.8,63,39.8
		c40.1,15.6,81.5,32.7,81.5,63C502.8,463.7,328.8,462.4,319.5,462.4z"/>
</g>
</svg>
