<?xml version="1.0" encoding="utf-8"?>
<!-- Generator: Adobe Illustrator 21.1.0, SVG Export Plug-In . SVG Version: 6.00 Build 0)  -->
<svg version="1.1" id="Layer_5" xmlns="http://www.w3.org/2000/svg" xmlns:xlink="http://www.w3.org/1999/xlink" x="0px" y="0px"
	 viewBox="0 0 453.6 512" style="enable-background:new 0 0 453.6 512;" xml:space="preserve">
<g>
	<path d="M423.9,349.5c-16.1-14.3-35.3-22.2-50.7-28.6c-4.8-2-9.3-3.8-12.9-5.6c-0.9-0.4-1.7-0.8-2.6-1.2l11.8-51.1
		c2.7-11.7,0.2-24.2-6.4-32.6c-4.8-6.1-11.4-9.4-18.5-9.4H335c5.7-14.8,9.1-30.7,10-47.1c3.7-1.5,7.4-3.5,10.3-6.3
		c43.7-9.1,64.1-22.2,64.1-40.9c0-4.6-1.2-8.8-3.7-12.7c-3.2-8.3-11.5-15.4-24.9-21c-10.2-4.3-23.7-8.1-40.1-11.3
		c-9.8-27.3-24.6-52-36.1-65.7c-9-10.8-22.3-16.3-35.7-15.9C272.2,0,265.4,1.4,259,4.3l-15.8,7.3c-5.1-0.5-10.5-0.8-16-0.8
		c-5.4,0-10.7,0.3-15.7,0.7l-14.7-7C190.1,1.2,183-0.2,175.9,0c-13.1-0.2-25.9,5.2-34.7,15.3c-12,13.8-27.5,38.9-37.3,66.1
		c-17,3.3-30.8,7.1-41.2,11.5c-17.5,7.4-26.4,17.2-26.4,29.1c0,4.2,1.1,8.1,3.3,11.7c4.7,15,25.1,25.9,63,33.7
		c1.8,1.8,4,3.2,6.1,4.4c0.1,0,0.2,0.1,0.3,0.2c0.8,17,4.2,33.5,10.1,48.9h-8.8c-7.1,0-13.7,3.3-18.5,9.4
		c-6.6,8.4-9.1,20.9-6.4,32.6l11.3,49.2l-1.4,0.5c-15,5.8-37.6,14.6-57.3,30.3C12.8,363,0,388.2,0,418c0,17.4,6.8,32.9,20,45.9
		c22.7,22.2,64.9,37,125.3,44c41.5,4.8,77,4.1,81.6,4c1.4,0,5.6,0.1,12,0.1c14.6,0,40.4-0.6,69.2-3.7
		c60.2-6.7,102.3-21.3,125.1-43.5c13.5-13.1,20.3-28.7,20.3-46.4C453.6,390.3,443.7,367.1,423.9,349.5z M75.3,124.4
		c7.3-3.4,20.6-7.9,44.5-12.1l8.9-1.6l2.6-8.8c7.7-26.2,23.1-53.5,34.3-67c2.7-3.3,6.8-5.1,10.9-5.4c2,0.1,3.9,0.6,5.8,1.5
		l25.3,11.6c12.2,5.6,26.1,5.6,38.3,0l3.1-1.4L273.5,31c1.9-0.9,3.9-1.4,5.9-1.5c4.8-0.3,9.7,1.6,12.8,5.4
		c11.2,13.4,26.6,40.7,34.3,67l1.7,5.7l0.9,3.1l9,1.6c21.9,3.9,34.9,8,42.5,11.2c-9.1,4.2-30.8,13.4-51.2,17.9
		c-12.9,2.8-48.2,7.5-102.5,7.5s-89.6-4.6-102.5-7.5C112.3,138.7,87,129.3,75.3,124.4z M191.3,206.8c18.6,0,27.4-11.3,28-25.7h19.8
		c0.6,14.3,9.4,25.7,28.1,25.7c19.3,0,41.9-16.4,41.9-27.2c0-1.7-0.6-3.4-1.6-4.9c0.5-0.1,0.9-0.1,1.4-0.2c2.2-0.2,4.3-0.5,6.3-0.8
		c-3.7,55.2-42,98.8-88.5,98.8c-27.2,0-51.6-14.9-67.9-38.3l-3.8-6.3c-9.6-16-15.3-34.7-16.6-54.3c2,0.3,4,0.5,6.2,0.7
		c2,0.2,4.1,0.4,6.2,0.7c-0.8,1.4-1.3,2.9-1.3,4.4C149.6,190.4,172,206.8,191.3,206.8z M424.3,418.4c0,9.5-3.7,17.8-11.4,25.2
		c-36.7,35.7-146.3,40.1-185.5,38.8H227h-0.5c-39.4,1.1-149.6-3.9-186.1-39.7c-7.5-7.4-11.2-15.5-11.2-24.7
		c0-48,49.8-67.4,76.6-77.8l2.8-1.1c3-1.2,6.1-2.4,9.1-3.6l13.1-5.1l-17-74.1c-0.5-2.4-0.3-4.5,0.1-5.9h20.2
		c2.5,3.7,5.2,7.2,8.1,10.6c22.4,26.5,52.3,41,84.3,41s62-14.6,84.3-41c2.9-3.4,5.6-6.9,8.1-10.6h21.6c0.4,1.4,0.6,3.5,0.1,5.9
		l-17.2,74.9l11.2,4.9c4.5,2,8.8,4,12.7,5.9c4.4,2.1,9.3,4.1,14.5,6.3C389.8,359.7,424.4,373.9,424.3,418.4L424.3,418.4z"/>
	<path d="M281.5,318.3V350c0,4.3-4,7.5-8.2,6.4l-31.9-8.1c-3.1,5-8.5,8.3-14.8,8.3c-6.2,0-11.7-3.3-14.7-8.2l-31.7,8
		c-4.1,1-8.2-2.1-8.2-6.4v-31.8c0-4.3,4-7.5,8.2-6.4l41.6,10.5c1.5-0.5,3.2-0.7,4.9-0.7s3.4,0.3,5,0.7l41.7-10.5
		C277.5,310.8,281.5,314,281.5,318.3z"/>
</g>
</svg>
