<?xml version="1.0" encoding="utf-8"?>
<!-- Generator: Adobe Illustrator 21.1.0, SVG Export Plug-In . SVG Version: 6.00 Build 0)  -->
<svg version="1.1" id="Layer_1" xmlns="http://www.w3.org/2000/svg" xmlns:xlink="http://www.w3.org/1999/xlink" x="0px" y="0px"
	 viewBox="0 0 487.5 512" style="enable-background:new 0 0 487.5 512;" xml:space="preserve">
<g>
	<path d="M371.2,329.1c-29-13.9-65-26.3-65-26.3c1.4-7.3-11.8-20.5-16.6-25.2v-19.2c0,0,46.6-51.3,53.6-115.4
		C343.6,140.8,365,0,232.8,0C100.2,0.1,121.1,140.6,121.4,143.1l0,0c7.1,64.4,53.6,115.6,53.6,115.6v20
		c-14.7,13.9-17.7,24.9-17.7,24.3c0,0-30.5,11.1-59.8,22.5s-97,35.3-97,100.6c0,92.4,232,85.9,232,85.9s231.6,7.8,231.6-85.5
		C464.2,357.1,400.2,343.1,371.2,329.1z M231.8,478.5c-10,0-197.7,1.2-197.7-56.8c0-31.6,42.5-52,85.2-68.3
		c35.6-13.7,69.1-20.1,72.5-43.1c1-1.2,16.8-12.5,16.8-40c0-21.2-3.2-27.9-3.2-27.9s-51.5-49.9-51.5-119.3
		c0-69.5,32.2-89.3,78.3-89.3s78.3,19.9,78.3,89.3c0,69.3-51,119.3-51,119.3s-3.7,6.8-3.7,27.9c0,27.6,16.7,37.9,17.9,40
		c0.3,20.8,34.9,30.1,68.3,43.1c43.5,16.9,88.3,35.4,88.3,68.3C430.5,479.9,241.8,478.5,231.8,478.5z"/>
	<path d="M461.4,201.3l-59.2,59l-13-22.1c-4.2-7.3-13.6-9.8-20.9-5.6c-7.3,4.2-9.8,13.6-5.6,20.9l22,37.8c0.6,1.2,3.2,4.1,3.6,4.5
		c6,6,15.7,6,21.7,0l73.1-72.9c6-6,6-15.6,0-21.6C477,195.4,467.4,195.4,461.4,201.3z"/>
</g>
</svg>
