<?xml version="1.0" encoding="utf-8"?>
<!-- Generator: Adobe Illustrator 21.1.0, SVG Export Plug-In . SVG Version: 6.00 Build 0)  -->
<svg version="1.1" id="_x35_2" xmlns="http://www.w3.org/2000/svg" xmlns:xlink="http://www.w3.org/1999/xlink" x="0px" y="0px"
	 viewBox="0 0 464.6 512" style="enable-background:new 0 0 464.6 512;" xml:space="preserve">
<g id="_x33_2">
	<path d="M191.8,310.2c1-1.2,16.8-12.5,16.8-40c0-21.2-3.2-27.9-3.2-27.9s-51.5-49.9-51.5-119.3c0-69.5,32.2-89.3,78.3-89.3
		c46.1,0,78.3,19.9,78.3,89.3c0,69.3-51,119.3-51,119.3s-3.7,6.8-3.7,27.9c0,27.6,16.7,37.9,17.9,40c0.3,20.8,34.9,30.1,68.3,43.1
		c10.1,3.9,20.3,7.9,29.9,12.2c-0.6,2.2-1.3,4.2-1.9,6.1h-1c-19.8,0-35.9,16.1-35.9,35.9s16.1,35.9,35.9,35.9
		c19.8,0,35.9-16.1,35.9-35.9c0-15.7-10.2-29.1-24.3-33.9c0.5-1.1,0.9-2.3,1.4-3.5c-3.3-1.6-6.6-3.1-10-4.6c2.4-8.3,4-18.2,1.5-25.7
		c-1.4-3.2-2.3-6.9-3-11.2c-28.9-13.7-64.2-25.9-64.2-25.9c1.4-7.3-11.8-20.5-16.6-25.2v-19.2c0,0,46.6-51.3,53.6-115.4
		C343.6,140.8,365,0,232.8,0C100.2,0.1,121.1,140.6,121.4,143.1c3.5,32.2,16.9,61.1,29.5,81.9c12.5,20.8,24.1,33.6,24.1,33.6v20
		c-14.7,13.9-17.7,24.9-17.7,24.3c0,0-12.1,4.4-28.4,10.5c6.2,5.4,14.4,13.6,16.1,30.7C169.7,335.4,189.2,327.5,191.8,310.2z
		 M389.6,407.5c0,11.4-9.2,20.6-20.6,20.6c-11.4,0-20.6-9.2-20.6-20.6c0-11.4,9.2-20.6,20.6-20.6
		C380.3,386.9,389.6,396.1,389.6,407.5z"/>
	<path d="M383.8,334.5c0.8,4.2,1.8,8.4,3,12.8c-0.2,8.2-2.5,16.3-4.9,22.8c27.3,13.1,48.4,28.9,48.4,51.5
		c0.2,58.2-188.5,56.8-198.5,56.8s-197.7,1.2-197.7-56.8c0-31.6,42.5-52,85.2-68.3c4.3-1.6,8.6-3.2,12.8-4.7
		c1.5-15.3-8.1-24.4-14.6-30.9c-6.5,2.4-13.2,5-20,7.7c-29.3,11.4-97,35.3-97,100.6c0,92.4,232,85.9,232,85.9s231.6,7.8,231.6-85.5
		C464.2,365.8,415.5,347.5,383.8,334.5z"/>
	<polygon points="278,434.8 295.9,434.8 295.9,411.6 319,411.6 319,393.6 295.8,393.6 295.8,370.3 277.9,370.3 277.9,393.6 
		254.7,393.6 254.7,411.6 278,411.6 	"/>
	<path d="M101.1,373.6c-13.5,18.6-15.4,35.6-16.9,47.6c-0.1,8.9-0.1,12,0,14.8c2.5,2.4,6.3,5.2,8.8,7.6c-4.8,10.4,3.8,16,8.1,15.7
		c0,0,8.4,0.2,8.4-9.5c0-9.6-8.1-9.6-13.7-8.5c-3-3.5-7.4-8-7.4-8.5c2.8-41.6,22.9-76.2,51.7-76.2c35.6,0,55,48.5,53.8,76.2
		c-0.1,2.4-8.6,9.6-8.8,9.6c-3.3-2.1-12.9-3.2-14.4,7.4c-0.9,6.3,5,9.7,9.5,9.5c12.4-0.5,7.8-12.7,8.4-13.8
		c1.7-2.9,10.5-6.1,10.6-9.5c0.8-28.4-10.1-75.8-52.8-85.7c-0.4-0.1-1.1,0.4-1.1,0c0-2.2-0.1-4.2-0.3-6.2c-4.2,1.5-8.5,3-12.9,4.5
		c-0.1,0.9-0.2,1.8-0.4,2.8C130.4,350.4,114,355.8,101.1,373.6z"/>
</g>
</svg>
