<?xml version="1.0" encoding="utf-8"?>
<!-- Generator: Adobe Illustrator 22.0.1, SVG Export Plug-In . SVG Version: 6.00 Build 0)  -->
<svg version="1.1" id="Layer_1" xmlns="http://www.w3.org/2000/svg" xmlns:xlink="http://www.w3.org/1999/xlink" x="0px" y="0px"
	 viewBox="0 0 590 512" style="enable-background:new 0 0 590 512;" xml:space="preserve">
<style type="text/css">
	.st0{fill:#010101;}
</style>
<g id="_x33_2">
	<path d="M470.1,323C442,414.5,356.7,481,256,481C132.3,481,32,380.7,32,257S132.3,33,256,33c27.8,0,54.3,5,78.9,14.3l11.8-29.8
		C318.5,6.8,287.9,1,256,1C114.6,1,0,115.6,0,257s114.6,256,256,256c118.6,0,218.3-80.6,247.4-190H470.1z"/>
	<path d="M398.1,376.9c-36.3-24.4-84.9-33.4-84.9-33.4s0-0.1-0.1-0.2c-0.1,0-0.2,0-0.2,0s-1.8-4.6-5.3-9.6c-3.1-4.5-8-9.3-8-9.3
		v-20.8l1.8-2.6c0,0,19.3-19.9,32.3-53.3c5.1-14.6,8.7-31.7,8.7-51c0-62.9-37.7-93.3-87.7-93.3c-69,0-87.7,50-87.7,93.2
		c0,8.8,0.8,17.1,2.1,25c10.7,48.7,40.2,79.2,40.2,79.2l0.6,2.6v20.8c0,0,0,0-0.1,0.1v0.1c0,0-4.9,4.9-8,9.4
		c-2.4,3.5-5.1,9.4-5.1,9.4s0,0,0,0c-0.1,0.2-0.1,0.3-0.1,0.3s-63.5,11.9-99.6,44.9c0,0-0.1,0.1-0.1,0.1
		c-12.7,11.8-21.8,26.2-23.5,43.7c46.5,47.2,111.1,76.5,182.6,76.5c70.4,0,134.2-28.4,180.4-74.4C435,410.3,418.7,390.8,398.1,376.9
		z M400.2,457c-8.7,6.7-42.4,27.2-146.4,27.2S118.5,463.7,109.7,457c-9.8-7.6-11.1-14.4-11.1-19.4c0-9.6,4-18.5,12.1-27.2
		c8-8.5,39.6-35,104.9-44.5c0,0,6-15.9,7.3-17.8c1.3-1.8,12.6-13.3,12.6-13.3l0.2-41.5c0,0-43.1-34.2-43.1-96.7
		c0-49.7,27.1-67.9,62.3-67.9c35.2,0,62.3,18.6,62.3,68c0,61.2-42.9,96.5-42.9,96.5v41.6c0,0,11.3,11.5,12.6,13.4
		c1.3,1.9,7.1,17.3,7.1,17.3c66.8,11.1,97.2,36.6,105.1,45.1c8.2,8.7,12.1,17.6,12.1,27.2C411.2,442.8,410,449.5,400.2,457z"/>
	<path class="st0" d="M574.3,131.4l-10-2.1l5.6-8.5c5.2-8,4.1-18.8-2.7-25.5l-21.5-21.5c-6.7-6.7-17.5-7.9-25.5-2.7l-8.5,5.6
		l-2.1-10c-2-9.4-10.4-16.2-20-16.2h-30.4c-9.6,0-17.9,6.8-19.9,16.2l-2.1,10l-8.5-5.6c-8-5.2-18.8-4.1-25.5,2.7l-21.6,21.5
		c-6.7,6.7-7.9,17.5-2.7,25.5l5.6,8.6l-10,2.1c-9.4,2-16.2,10.4-16.2,19.9v30.4c0,9.6,6.8,17.9,16.2,19.9l10,2.1l-5.6,8.5
		c-5.2,8-4.1,18.8,2.7,25.5l21.6,21.6c6.7,6.7,17.5,7.9,25.5,2.7l8.5-5.6l2.1,10c2,9.4,10.4,16.2,19.9,16.2h30.5
		c9.6,0,17.9-6.8,19.9-16.2l2.1-10l8.5,5.6c8,5.2,18.8,4.1,25.5-2.7l21.5-21.5c6.7-6.7,7.9-17.5,2.7-25.5l-5.6-8.5l10-2.1
		c9.4-2,16.2-10.4,16.2-19.9v-30.4C590.5,141.7,583.7,133.3,574.3,131.4z M569,180.9l-26.1,5.5l-2.1,5.4c-0.5,1.3-1,2.5-1.5,3.7
		l-2.4,5.3l14.6,22.4l-20.3,20.3L508.7,229l-5.3,2.4c-1.2,0.5-2.4,1-3.7,1.5l-5.4,2.1l-5.5,26.2H460l-5.5-26.3l-5.4-2.1
		c-1.2-0.5-2.4-1-3.6-1.5l-5.3-2.4l-22.6,14.7l-20.3-20.3l14.7-22.6l-2.4-5.3c-0.5-1.1-1-2.3-1.4-3.5l-2.1-5.4l-26.3-5.5v-28.8
		l26.3-5.6l2.1-5.4c0.5-1.2,1-2.4,1.4-3.5l2.4-5.3l-14.7-22.5l20.3-20.4l22.5,14.6l5.3-2.4c1.1-0.5,2.4-1,3.6-1.5l5.4-2.1l5.5-26.2
		h28.8l5.5,26.2l5.4,2.1c1.2,0.5,2.5,1,3.7,1.5l5.3,2.4l22.5-14.5l20.3,20.3l-14.6,22.4l2.4,5.3c0.5,1.2,1,2.4,1.5,3.7l2.1,5.4
		l26.1,5.5L569,180.9L569,180.9z"/>
	<path class="st0" d="M474.4,108.4c-32,0-58,26-58,58s26,57.9,58,57.9c31.9,0,57.9-26,57.9-57.9S506.3,108.4,474.4,108.4z
		 M474.4,202.9c-20.2,0-36.6-16.4-36.6-36.6s16.4-36.6,36.6-36.6c20.2,0,36.6,16.4,36.6,36.6C511,186.5,494.6,202.9,474.4,202.9z"/>
</g>
</svg>
