<?xml version="1.0" encoding="utf-8"?>
<!-- Generator: Adobe Illustrator 21.1.0, SVG Export Plug-In . SVG Version: 6.00 Build 0)  -->
<svg version="1.1" id="Layer_1" xmlns="http://www.w3.org/2000/svg" xmlns:xlink="http://www.w3.org/1999/xlink" x="0px" y="0px"
	 viewBox="0 0 463.9 512" style="enable-background:new 0 0 463.9 512;" xml:space="preserve">
<path d="M229.4,32.8c20.6,0,40.2,9.7,55.3,27.2c7.3,8.5,13.1,18.2,17.3,28.8c-8.4-3.4-18.7-5.5-31.4-5.6c-0.2,0-0.4,0-0.6,0
	c-5.2,0-11,0.7-17.7,1.5c-8.4,1-17.8,2.1-27.3,2.1c-9.8,0-17.4-1.2-22.7-3.7c-4.5-2.1-6.9-4.8-8.7-9.7l-8.8-23.9
	C197.9,38.7,213.4,32.8,229.4,32.8 M314.5,339.8l6.3,1.8c34,9.8,64,25.2,84.2,43.5c12.3,11.1,26.9,28.5,27,48.5
	c0,8.1-2.3,13.4-7.8,18.4c-5,4.5-15.3,11-36.2,16.3l0,0l0,0c-39.4,10.1-98.2,11.6-155.9,11.7h-1c-57.3,0-115.8-1.5-155.3-11.6
	c-20.8-5.3-31-11.8-35.9-16.2c-5.5-5-7.7-10.4-7.7-18.5c0-19.9,14.5-37.3,26.7-48.4c20.1-18.3,49.8-33.7,83.6-43.4l7-2
	c22.9,20.4,51.8,31.8,82.7,31.8C262.2,371.6,291.6,360,314.5,339.8 M229.4,0.8c-62.1,0-112.5,58.6-112.5,131
	c0,26.7,3.3,82.8,2,123.6c-1.1,33.9-8.1,55.8,3,55.8c1.9,0,5.8,0,11.5-0.1C54.7,333.8,0,382.2,0,433.7c0,71,103.7,78.2,231,78.3h1
	c64-0.1,121.9-1.9,163.9-12.7c42-10.7,68.1-30.3,68.1-65.8c-0.1-51.5-55.2-100-134.4-122.7c1.4,0.1,2.6,0.1,3.5,0.2c0.3,0,0.7,0,1,0
	c12.6,0,6.2-21,4.9-56.8s3-86.9,3-122.6C341.9,59.4,291.5,0.8,229.4,0.8L229.4,0.8z M147.5,144.4c20.1-21.3,15.1-22.7,16-59.9
	c10.3,28.2,36.9,34.3,61.5,34.3c19,0,36.7-3.6,45-3.6c0.1,0,0.2,0,0.3,0c13.1,0.1,33.3,1.2,35.2,30.5c0.1-0.1,0.1-0.1,0.2-0.2v0.1
	c1.2-1.1,2.4-1.7,3.9-1.7c5.2,0,9.3,7.1,9.4,15.8c0,4.5-0.7,10-2,15.2h0.2c-2.3,8.6-5.8,16.2-9,16.2c-1.5,0-3.2-0.2-4.6-1.3
	c-9.2,45.2-40.6,87.7-78,87.7c-37.1,0-68.3-41.6-77.7-86.4c-0.3,0-0.7,0-1,0c-3.3,0-6.8-7.7-8.9-16.4c-0.1-0.6-0.3-1.2-0.4-1.8
	c0-0.1,0-0.2-0.1-0.3c-0.1-0.6-0.2-1.2-0.4-1.8c0-0.1,0-0.2,0-0.2c-0.1-0.5-0.2-1-0.3-1.4c0-0.2-0.1-0.4-0.1-0.6
	c-0.1-0.4-0.1-0.9-0.2-1.3c0-0.3-0.1-0.5-0.1-0.7c0-0.4-0.1-0.8-0.1-1.1c0-0.2,0-0.5-0.1-0.7c0-0.4-0.1-0.8-0.1-1.2
	c0-0.2,0-0.5,0-0.7c0-0.4,0-0.8-0.1-1.2c0-0.2,0-0.4,0-0.5c0-0.5,0-1,0-1.5c0-8.7,4.2-15.8,9.4-15.8
	C146.2,143.9,146.9,144.1,147.5,144.4L147.5,144.4z M231.9,311.9c23.4,0,44.2-12.3,57-31.2l19.3,18.6
	c-17.6,24.5-45.3,40.3-76.3,40.3c-31.1,0-58.7-15.8-76.3-40.3l19.3-18.6C187.7,299.6,208.5,311.9,231.9,311.9L231.9,311.9z"/>
</svg>
