<?xml version="1.0" encoding="utf-8"?>
<!-- Generator: Adobe Illustrator 22.0.1, SVG Export Plug-In . SVG Version: 6.00 Build 0)  -->
<svg version="1.1" id="Layer_1" xmlns="http://www.w3.org/2000/svg" xmlns:xlink="http://www.w3.org/1999/xlink" x="0px" y="0px"
	 viewBox="0 0 590 512" style="enable-background:new 0 0 590 512;" xml:space="preserve">
<style type="text/css">
	.st0{fill:#010101;}
</style>
<g id="_x33_2">
	<path d="M470.1,323C442,414.5,356.7,481,256,481C132.3,481,32,380.7,32,257S132.3,33,256,33c27.8,0,54.3,5,78.9,14.3l11.8-29.8
		C318.5,6.8,287.9,1,256,1C114.6,1,0,115.6,0,257s114.6,256,256,256c118.6,0,218.3-80.6,247.4-190H470.1z"/>
	<path d="M398.1,376.9c-36.3-24.4-84.9-33.4-84.9-33.4s0-0.1-0.1-0.2c-0.1,0-0.2,0-0.2,0s-1.8-4.6-5.3-9.6c-3.1-4.5-8-9.3-8-9.3
		v-20.8l1.8-2.6c0,0,19.3-19.9,32.3-53.3c5.1-14.6,8.7-31.7,8.7-51c0-62.9-37.7-93.3-87.7-93.3c-69,0-87.7,50-87.7,93.2
		c0,8.8,0.8,17.1,2.1,25c10.7,48.7,40.2,79.2,40.2,79.2l0.6,2.6v20.8c0,0,0,0-0.1,0.1v0.1c0,0-4.9,4.9-8,9.4
		c-2.4,3.5-5.1,9.4-5.1,9.4s0,0,0,0c-0.1,0.2-0.1,0.3-0.1,0.3s-63.5,11.9-99.6,44.9c0,0-0.1,0.1-0.1,0.1
		c-12.7,11.8-21.8,26.2-23.5,43.7c46.5,47.2,111.1,76.5,182.6,76.5c70.4,0,134.2-28.4,180.4-74.4C435,410.3,418.7,390.8,398.1,376.9
		z M400.2,457c-8.7,6.7-42.4,27.2-146.4,27.2S118.5,463.7,109.7,457c-9.8-7.6-11.1-14.4-11.1-19.4c0-9.6,4-18.5,12.1-27.2
		c8-8.5,39.6-35,104.9-44.5c0,0,6-15.9,7.3-17.8c1.3-1.8,12.6-13.3,12.6-13.3l0.2-41.5c0,0-43.1-34.2-43.1-96.7
		c0-49.7,27.1-67.9,62.3-67.9c35.2,0,62.3,18.6,62.3,68c0,61.2-42.9,96.5-42.9,96.5v41.6c0,0,11.3,11.5,12.6,13.4
		c1.3,1.9,7.1,17.3,7.1,17.3c66.8,11.1,97.2,36.6,105.1,45.1c8.2,8.7,12.1,17.6,12.1,27.2C411.2,442.8,410,449.5,400.2,457z"/>
	<path class="st0" d="M565.2,76.5c-1.7-2.4-3.4-4.1-4.7-5.2c2.7-3.6,5-7.2,6.9-10.7c7.1-13.6,10.4-26.2,8.1-38.2
		c-3.1-16-9-22.6-16.3-21.2c-8.8,2-12.5,12.3-14.5,18.2c-2.3,7-2.7,22.2-0.5,33.7c1.8,10.1-2.5,31.1-9.6,38.7c-5.2,5.5,1,6.4,6,2.2
		c4.6-4.7,9.1-9.4,13.1-14.2c1.1,1,2.3,2.1,3.1,3.4c3.9,7,5.1,17.1,0.3,25.4c-6.2,10.8-20.5,14.9-31.6,8.4
		c-11.1-6.4-14.9-20.6-8.5-31.7c5.5-9.5,13.2-12.3,21.6-12.4c0.9,0,0.9,0.1,0.9,0.1s1-1.5,1.3-4.3c0.4-2.9,0.7-5.4,0.3-6.5
		c0,0-0.5-0.1-0.9-0.1c-9-1.6-67.8,2.6-77.2,18.8l-64.2,111.4c-4.5,7.8-1.6,18.4,6.1,22.9l95.9,55.4c8,4.6,18.2,1.9,22.9-6.1
		l64.2-111.3C597.1,137.1,571,83.5,565.2,76.5z M559.9,60.9c-3.1,5.6-5.9,11.3-10.4,17.2c-5.6,7.2-6.8,7.9-6.8,7.9s4-5,5.9-11.4
		c2.3-7.3,3.1-15.9,1.4-24.4c-1.8-10.8-0.4-22.5,2.1-30.2c2.7-8.2,6-12.3,9.5-10.6C569.9,13.3,574.6,35,559.9,60.9z M555.8,153.9
		l-47.1,81.8c-1.8,3.2-6,4.3-8.7,2.6l-66.6-37.8c-2.6-1.6-3.9-6.1-1.8-10.1l46.2-79.9c4.8-8.5,8-13.3,8-13.3s0,26.4,25.4,44.3
		c26.8,12.4,51.2,0.3,51.2,0.3S560.7,145.4,555.8,153.9z"/>
</g>
</svg>
