<?xml version="1.0" encoding="utf-8"?>
<!-- Generator: Adobe Illustrator 22.0.1, SVG Export Plug-In . SVG Version: 6.00 Build 0)  -->
<svg version="1.1" id="Layer_1" xmlns="http://www.w3.org/2000/svg" xmlns:xlink="http://www.w3.org/1999/xlink" x="0px" y="0px"
	 viewBox="0 0 590 512" style="enable-background:new 0 0 590 512;" xml:space="preserve">
<g id="_x33_2">
	<path d="M470.1,323C442,414.5,356.7,481,256,481C132.3,481,32,380.7,32,257S132.3,33,256,33c27.8,0,54.3,5,78.9,14.3l11.8-29.8
		C318.5,6.8,287.9,1,256,1C114.6,1,0,115.6,0,257s114.6,256,256,256c118.6,0,218.3-80.6,247.4-190H470.1z"/>
	<path d="M398.1,376.9c-36.3-24.4-84.9-33.4-84.9-33.4s0-0.1-0.1-0.2c-0.1,0-0.2,0-0.2,0s-1.8-4.6-5.3-9.6c-3.1-4.5-8-9.3-8-9.3
		v-20.8l1.8-2.6c0,0,19.3-19.9,32.3-53.3c5.1-14.6,8.7-31.7,8.7-51c0-62.9-37.7-93.3-87.7-93.3c-69,0-87.7,50-87.7,93.2
		c0,8.8,0.8,17.1,2.1,25c10.7,48.7,40.2,79.2,40.2,79.2l0.6,2.6v20.8c0,0,0,0-0.1,0.1v0.1c0,0-4.9,4.9-8,9.4
		c-2.4,3.5-5.1,9.4-5.1,9.4s0,0,0,0c-0.1,0.2-0.1,0.3-0.1,0.3s-63.5,11.9-99.6,44.9c0,0-0.1,0.1-0.1,0.1
		c-12.7,11.8-21.8,26.2-23.5,43.7c46.5,47.2,111.1,76.5,182.6,76.5c70.4,0,134.2-28.4,180.4-74.4C435,410.3,418.7,390.8,398.1,376.9
		z M400.2,457c-8.7,6.7-42.4,27.2-146.4,27.2S118.5,463.7,109.7,457c-9.8-7.6-11.1-14.4-11.1-19.4c0-9.6,4-18.5,12.1-27.2
		c8-8.5,39.6-35,104.9-44.5c0,0,6-15.9,7.3-17.8c1.3-1.8,12.6-13.3,12.6-13.3l0.2-41.5c0,0-43.1-34.2-43.1-96.7
		c0-49.7,27.1-67.9,62.3-67.9c35.2,0,62.3,18.6,62.3,68c0,61.2-42.9,96.5-42.9,96.5v41.6c0,0,11.3,11.5,12.6,13.4
		c1.3,1.9,7.1,17.3,7.1,17.3c66.8,11.1,97.2,36.6,105.1,45.1c8.2,8.7,12.1,17.6,12.1,27.2C411.2,442.8,410,449.5,400.2,457z"/>
	<path d="M525.4,277.8v-25.1c18.7-0.8,34-7,45.8-18.5c11.8-11.5,17.7-25.8,17.7-43c0-7.8-1.4-15.1-4.2-21.8
		c-2.8-6.7-6.9-12.5-12.1-17.3c-5.3-4.9-12-9-20.4-12.4c-4.4-1.7-13.3-4.2-26.7-7.3V61.1c8.7,1.7,15.6,5.1,20.6,10.3
		c5,5.2,8.3,12.6,9.9,22.4l27.6-3.9c-2.4-15.7-9.4-28-21.1-37c-9.1-7.1-21.4-11.3-37-12.7V28.3h-15.7v11.8
		c-17.7,1.7-31.1,6.2-40.1,13.5c-13.5,10.9-20.2,25.2-20.2,42.8c0,9.9,2.3,18.8,6.9,26.6c4.6,7.8,11.2,13.9,19.7,18.3
		c11.5,6,22.7,9.9,33.7,11.8v78.9c-10.5-1-19.5-5.9-27-14.7c-5.3-6.2-8.9-16-11-29.3l-26.9,4.7c1,12.9,4.5,23.7,10.6,32.6
		c6.1,8.9,13.3,15.4,21.7,19.3c8.4,4,19.2,6.8,32.6,8.3v24.8H525.4z M509.6,129.4c-12.2-3.4-20.8-7.9-25.9-13.6
		c-5.1-5.7-7.7-12.8-7.7-21.2c0-8.5,3-15.9,9-22.2c6-6.2,14.2-10.1,24.6-11.6V129.4z M525.4,156.7c14.4,4.3,23.9,9.2,28.7,14.7
		c4.8,5.5,7.2,12.7,7.2,21.7c0,10.6-3.4,19.4-10.2,26.6c-6.8,7.2-15.4,11.3-25.8,12.5V156.7z"/>
</g>
</svg>
