<?xml version="1.0" encoding="utf-8"?>
<!-- Generator: Adobe Illustrator 22.0.1, SVG Export Plug-In . SVG Version: 6.00 Build 0)  -->
<svg version="1.1" id="Layer_1" xmlns="http://www.w3.org/2000/svg" xmlns:xlink="http://www.w3.org/1999/xlink" x="0px" y="0px"
	 viewBox="0 0 590 512" style="enable-background:new 0 0 590 512;" xml:space="preserve">
<g id="_x33_2">
	<path d="M470.1,323C442,414.5,356.7,481,256,481C132.3,481,32,380.7,32,257S132.3,33,256,33c27.8,0,54.3,5,78.9,14.3l11.8-29.8
		C318.5,6.8,287.9,1,256,1C114.6,1,0,115.6,0,257s114.6,256,256,256c118.6,0,218.3-80.6,247.4-190H470.1z"/>
	<path d="M398.1,376.9c-36.3-24.4-84.9-33.4-84.9-33.4s0-0.1-0.1-0.2c-0.1,0-0.2,0-0.2,0s-1.8-4.6-5.3-9.6c-3.1-4.5-8-9.3-8-9.3
		v-20.8l1.8-2.6c0,0,19.3-19.9,32.3-53.3c5.1-14.6,8.7-31.7,8.7-51c0-62.9-37.7-93.3-87.7-93.3c-69,0-87.7,50-87.7,93.2
		c0,8.8,0.8,17.1,2.1,25c10.7,48.7,40.2,79.2,40.2,79.2l0.6,2.6v20.8c0,0,0,0-0.1,0.1v0.1c0,0-4.9,4.9-8,9.4
		c-2.4,3.5-5.1,9.4-5.1,9.4s0,0,0,0c-0.1,0.2-0.1,0.3-0.1,0.3s-63.5,11.9-99.6,44.9c0,0-0.1,0.1-0.1,0.1
		c-12.7,11.8-21.8,26.2-23.5,43.7c46.5,47.2,111.1,76.5,182.6,76.5c70.4,0,134.2-28.4,180.4-74.4C435,410.3,418.7,390.8,398.1,376.9
		z M400.2,457c-8.7,6.7-42.4,27.2-146.4,27.2S118.5,463.7,109.7,457c-9.8-7.6-11.1-14.4-11.1-19.4c0-9.6,4-18.5,12.1-27.2
		c8-8.5,39.6-35,104.9-44.5c0,0,6-15.9,7.3-17.8c1.3-1.8,12.6-13.3,12.6-13.3l0.2-41.5c0,0-43.1-34.2-43.1-96.7
		c0-49.7,27.1-67.9,62.3-67.9c35.2,0,62.3,18.6,62.3,68c0,61.2-42.9,96.5-42.9,96.5v41.6c0,0,11.3,11.5,12.6,13.4
		c1.3,1.9,7.1,17.3,7.1,17.3c66.8,11.1,97.2,36.6,105.1,45.1c8.2,8.7,12.1,17.6,12.1,27.2C411.2,442.8,410,449.5,400.2,457z"/>
	<path d="M477.2,72.1l14.7,29.6c5.4,11,15.9,18.5,28,20.3l32.6,4.7l-23.7,23c-8.8,8.6-12.8,21-10.7,33.1l5.7,32.3l-29.4-15.3
		c-5.3-2.8-11.3-4.2-17.3-4.2c-6,0-11.9,1.5-17.2,4.2l-0.1,0l-0.1,0l-29.1,15.3l5.5-32.6c2.1-12-1.9-24.3-10.7-32.9l-23.6-23
		l32.6-4.7c12.1-1.7,22.6-9.3,28.1-20.4L477.2,72.1 M477.2,33.3c-3.1,0-6.1,1.6-7.7,4.8l-26.6,53.8c-2.2,4.5-6.5,7.6-11.5,8.3
		l-59.6,8.6c-7,1-9.8,9.7-4.7,14.6l43.1,42c3.6,3.5,5.2,8.5,4.4,13.4l-10.1,59.3c-0.9,5.5,3.5,10,8.5,10c1.3,0,2.7-0.3,4-1l53.1-28
		c2.2-1.2,4.7-1.7,7.1-1.7s4.9,0.6,7.1,1.7l53.5,28c1.3,0.7,2.7,1,4,1c5,0,9.4-4.5,8.4-10.1L539.8,179c-0.9-5,0.8-10,4.4-13.5
		l43.2-42c5.1-5,2.3-13.7-4.7-14.7l-59.5-8.6c-5-0.7-9.2-3.8-11.5-8.3L484.9,38C483.3,34.9,480.3,33.3,477.2,33.3L477.2,33.3z"/>
</g>
</svg>
