<?xml version="1.0" encoding="utf-8"?>
<!-- Generator: Adobe Illustrator 21.1.0, SVG Export Plug-In . SVG Version: 6.00 Build 0)  -->
<svg version="1.1" id="Layer_3" xmlns="http://www.w3.org/2000/svg" xmlns:xlink="http://www.w3.org/1999/xlink" x="0px" y="0px"
	 viewBox="0 0 464.6 512" style="enable-background:new 0 0 464.6 512;" xml:space="preserve">
<g>
	<path d="M459.9,397.4c-5.4-16.6-15.5-28.8-27.3-38c-20.4-15.9-45.9-23.4-61.4-30.9c-29-13.9-65-26.3-65-26.3c0.3-1.5,0-3.3-0.8-5.1
		c-2.8-6.9-11.3-15.6-15.3-19.6c-0.2-0.2-0.3-0.3-0.5-0.5v-19.2c0,0,35.5-39,49.2-91.5h-34.9c-13.8,45.6-44.3,75.5-44.3,75.5
		s-3.7,6.8-3.7,27.9c0,27.6,16.7,37.9,17.9,40c0.3,20.8,34.9,30.1,68.3,43.1c43.5,16.9,88.3,35.4,88.3,68.3
		c0.2,58.2-188.5,56.8-198.5,56.8s-197.7,1.2-197.7-56.8c0-31.6,42.5-52,85.2-68.3c35.6-13.7,69.1-20.1,72.5-43.1
		c1-1.2,16.8-12.5,16.8-40c0-21.2-3.2-27.9-3.2-27.9s-30.8-29.9-44.8-75.5h-34.8c5.9,22.6,15.7,42.6,25,58.2
		c3.5,5.9,7,11.1,10.1,15.6c1.1,1.5,2.1,2.9,3,4.2c0.6,0.9,1.3,1.7,1.9,2.5c0.6,0.8,1.2,1.6,1.7,2.3c0.3,0.4,0.5,0.7,0.8,1.1
		c0.8,1,1.5,2,2.2,2.8c1.1,1.4,2.1,2.5,2.8,3.4c0.3,0.3,0.5,0.6,0.8,0.9c0.5,0.6,0.8,0.9,0.8,0.9v20c-14.7,13.9-17.7,24.9-17.7,24.3
		c0,0-30.5,11.1-59.8,22.5s-97,35.3-97,100.6c0,92.4,232,85.9,232,85.9s2.5,0.1,6.9,0.1c32.8,0.3,173.7-1.3,214-54.1
		c6.8-9,10.8-19.4,10.8-31.6C464.1,415.1,462.6,405.7,459.9,397.4z"/>
	<path d="M233.5,58.5c35.6,44.1,51.4,55.7,64.6,59.4c2.9,0.8,5.8,1.2,8.8,1.2c4.5,0,8.9-0.9,13.5-2.7l-1.3,6H146.7l-1.7-8
		c8.2,4.3,14.4,5.3,19.8,5.3c3.2,0,6.3-0.4,9.3-1.3C182.1,116.1,194.8,112.5,233.5,58.5 M232.6,0.3c-9.9,0-18,8.1-18,18
		c0,4.2,1.4,8.1,3.9,11.1c-9.8,14.2-40.6,57.8-52.1,61c-0.5,0.1-1,0.2-1.5,0.2c-9.9,0-31.3-21.8-40.7-32c2.2-3,3.5-6.7,3.5-10.6
		c0-9.9-8.1-18-18-18s-18,8.1-18,18c0,8.4,5.8,15.5,13.5,17.4l18,85.9h219.6l18-86.1c7.4-2.2,12.8-9.1,12.8-17.2c0-9.9-8.1-18-18-18
		s-18,8.1-18,18c0,4.5,1.6,8.6,4.3,11.7c-7.9,11.1-27.1,30.3-35,30.3c-0.4,0-0.7,0-1-0.1C292.2,86.1,258.3,43.3,247,29
		c2.2-3,3.5-6.7,3.5-10.7C250.6,8.4,242.5,0.3,232.6,0.3L232.6,0.3z"/>
</g>
</svg>
