<?xml version="1.0" encoding="utf-8"?>
<!-- Generator: Adobe Illustrator 21.1.0, SVG Export Plug-In . SVG Version: 6.00 Build 0)  -->
<svg version="1.1" id="Layer_1" xmlns="http://www.w3.org/2000/svg" xmlns:xlink="http://www.w3.org/1999/xlink" x="0px" y="0px"
	 viewBox="0 0 735.1 512" style="enable-background:new 0 0 735.1 512;" xml:space="preserve">
<g>
	<path d="M239.1,366c-40.3,0-73,32.7-73,73s52.7,73,93,73s53-32.7,53-73S279.4,366,239.1,366z M239.1,474.7
		c-19.7,0-35.7-16-35.7-35.7s16-35.7,35.7-35.7s35.7,16,35.7,35.7S258.9,474.7,239.1,474.7z"/>
	<path d="M712.2,391c0-0.7,0.8-143.8,0.6-146.6s-0.5-7.2-1-13.2s-1.3-10.6-2.5-13.9c-1.1-3.3-2.9-7.1-5.2-11.2
		c-2.3-4.2-5.1-7.9-8.3-11.2l-72.7-73.7c-4.9-5-11.2-9.1-18.9-12.5c-7.7-3.3-14.8-5-21.3-5h-59.5V24c0-6.3-2.3-11.9-6.9-16.7
		C511.9,2.4,506.3,0,499.8,0H121.6c-6.6,0-12.1,2.4-16.7,7.2C100.3,12,98,17.6,98,24c0,0,0,32.1,0,78.1H25.1c-8.8,0-16,7.2-16,16
		s7.2,16,16,16H98c0,22.9,0,47.8,0,73H78.1c-8.8,0-16,7.2-16,16s7.2,16,16,16H98c0,24.8,0,49.4,0,72H16c-8.8,0-16,7.2-16,16
		s7.2,16,16,16h82c0,46.4,0,78.9,0,79c-5,0-9,3-9,7.9s4,9.1,9,9.1h47c0-55,44.3-94,94-94s94,40.8,94,94c132.4,0,144.1-0.1,144.1-0.1
		c0-41.3,31.7-93.9,94-93.9c59.5,0,93.7,50.5,93.7,93.9c0,0,34.8,0.1,47.3,0.1s23-12.7,23-25C735.2,401.7,724.2,391,712.2,391z
		 M680.2,376c0,0-0.9,0-1,0c-48.1-89.6-197-86.7-229,31c-4.4,0-87.3,0.1-90.1,0c-12.7-56.8-66.8-94-121-94c-42.2,0-84.9,20.7-109,62
		c0-10.5-1-343-1-343h363.1c0,0,0,194,0,211s6,36,39,36s149,0,149,0V376z M682.1,247.6H523.4V135.1h58.5c7.3,0,12.3,0.9,15.2,2.8
		v6.6l-1.9-0.9l-1,1c-0.3,1-0.5,2.2-0.5,3.5s0.2,2.5,0.5,3.5l1,1l5.9,3.5c0.3,0,0.7-0.5,1-1.5s0.5-2,0.5-3c0-1.3-0.2-2.5-0.5-3.5
		c-0.3-0.6-1.1-1.5-2.5-2.5l-1.5-0.7v-6.3l80.1,89.6c2.6,2.3,3.9,5.2,3.9,8.5L682.1,247.6L682.1,247.6z"/>
	<path d="M571.2,366c-40.3,0-73,32.7-73,73s32.7,73,73,73s73-32.7,73-73S611.5,366,571.2,366z M571.2,474.7
		c-19.7,0-35.7-16-35.7-35.7s16-35.7,35.7-35.7s35.7,16,35.7,35.7S591,474.7,571.2,474.7z"/>
</g>
</svg>
