<?xml version="1.0" encoding="utf-8"?>
<!-- Generator: Adobe Illustrator 21.1.0, SVG Export Plug-In . SVG Version: 6.00 Build 0)  -->
<svg version="1.1" id="Layer_1" xmlns="http://www.w3.org/2000/svg" xmlns:xlink="http://www.w3.org/1999/xlink" x="0px" y="0px"
	 viewBox="0 0 328 512" style="enable-background:new 0 0 328 512;" xml:space="preserve">
<path d="M328,164C328,73.4,254.5,0,164,0C73.4,0,0,73.4,0,164c0,85.2,65,155.2,148,163.3V397H46v32h102v83h32v-83h102v-32H180v-69.8
	C263.1,319.2,328.1,249.2,328,164z M32.1,164C32.1,91.1,91.2,32,164,32c72.9,0,132,59.1,132,132s-59.1,132-131.9,132
	C91.2,296,32.1,236.9,32.1,164z"/>
</svg>
