<?xml version="1.0" encoding="utf-8"?>
<!-- Generator: Adobe Illustrator 21.1.0, SVG Export Plug-In . SVG Version: 6.00 Build 0)  -->
<svg version="1.1" id="Layer_4" xmlns="http://www.w3.org/2000/svg" xmlns:xlink="http://www.w3.org/1999/xlink" x="0px" y="0px"
	 viewBox="0 0 574 512" style="enable-background:new 0 0 574 512;" xml:space="preserve">
<g>
	<path d="M574,136.1c-0.9-21.7-19.2-36.7-38.9-36.7h0c-6.5,0-13.2,1.6-19.4,5.2l-88,61.7h-25.4v-56.5c0-24.3-19.7-43.9-43.9-43.9
		H43.9C19.7,65.9,0,85.6,0,109.8v293.7c0,24.3,19.7,43.9,43.9,43.9h314.4c24.3,0,43.9-19.7,43.9-43.9v-51h25.4l89.8,55.8
		c5.7,2.9,11.8,4.2,17.7,4.2c16,0,31.2-9.8,36.7-26c1.4-4.2,2.2-8.8,2.2-13.5V137.9C574,137.3,574,136.7,574,136.1z M370.2,403.6
		c0,6.6-5.4,11.9-11.9,11.9H43.9c-6.6,0-11.9-5.4-11.9-11.9V109.8c0-6.6,5.4-11.9,11.9-11.9h314.4c6.6,0,11.9,5.4,11.9,11.9V403.6z
		 M542,373.1c0,1.1-0.2,2.3-0.5,3.3c-1.1,3.3-4.5,4.2-6.3,4.2c-0.9,0-1.7-0.2-2.5-0.4l-88.1-54.8l-7.8-4.8h-11.6V198.3h12.5l8.3-5.8
		l86.3-60.6c0.9-0.4,1.8-0.6,2.7-0.6c2.2,0,6.8,1.5,6.9,6v0.2l0,0.1V373.1z"/>
	<polygon points="217,150.7 185,150.7 185,240.7 95,240.7 95,272.7 185,272.7 185,362.7 217,362.7 217,272.7 306.9,272.7 
		306.9,240.7 217,240.7 	"/>
</g>
</svg>
