<?xml version="1.0" encoding="utf-8"?>
<!-- Generator: Adobe Illustrator 21.1.0, SVG Export Plug-In . SVG Version: 6.00 Build 0)  -->
<svg version="1.1" id="Layer_4" xmlns="http://www.w3.org/2000/svg" xmlns:xlink="http://www.w3.org/1999/xlink" x="0px" y="0px"
	 viewBox="0 0 574 512" style="enable-background:new 0 0 574 512;" xml:space="preserve">
<g>
	<path d="M370.2,393.1v10.5c0,6.6-5.4,11.9-11.9,11.9H43.9c-6.6,0-11.9-5.4-11.9-11.9V109.8c0-4.8,2.8-8.9,6.9-10.8L14.4,77.3
		C5.6,85.3,0,97,0,109.8v293.7c0,24.3,19.7,43.9,43.9,43.9h314.4c18.8,0,34.9-11.8,41.1-28.5L370.2,393.1z"/>
	<path d="M517.4,408.3c5.7,2.9,11.8,4.2,17.7,4.2c16,0,31.2-9.8,36.7-26c1.4-4.2,2.2-8.8,2.2-13.5V137.9c0-0.6,0-1.2,0-1.8
		c-0.9-21.7-19.2-36.7-38.9-36.7h0c-6.5,0-13.2,1.6-19.4,5.2l-88,61.7h-25.4v-56.5c0-24.3-19.7-43.9-43.9-43.9H97.4L28.1,4.2
		c-3-2.7-6.8-4-10.6-4c-4.1,0-8.2,1.6-11.3,4.7C-0.3,11.3,0,22,6.9,28.1l539.3,480c6.3,5.6,15.9,5.3,21.9-0.7
		c6.5-6.5,6.2-17.1-0.7-23.2L419.5,352.5h8.2L517.4,408.3z M133.4,97.9h224.9c6.6,0,11.9,5.4,11.9,11.9v198.9L133.4,97.9z
		 M425.2,198.3h12.5l8.3-5.8l86.3-60.6c0.9-0.4,1.8-0.6,2.7-0.6c2.2,0,6.8,1.5,6.9,6v0.2l0,0.1v235.4c0,1.1-0.2,2.3-0.5,3.3
		c-1.1,3.3-4.5,4.2-6.3,4.2c-0.9,0-1.7-0.2-2.5-0.4l-88.1-54.8l-7.8-4.8h-11.6V198.3z"/>
</g>
</svg>
