<?xml version="1.0" encoding="utf-8"?>
<!-- Generator: Adobe Illustrator 21.1.0, SVG Export Plug-In . SVG Version: 6.00 Build 0)  -->
<svg version="1.1" id="Layer_6" xmlns="http://www.w3.org/2000/svg" xmlns:xlink="http://www.w3.org/1999/xlink" x="0px" y="0px"
	 viewBox="0 0 624 512" style="enable-background:new 0 0 624 512;" xml:space="preserve">
<g id="_x33_2_1_">
	<rect y="-0.3" width="287" height="32"/>
	<rect y="479.8" width="287" height="32"/>
	<rect y="241.8" width="130" height="32"/>
	<path d="M494.3,264.8c0,11.4-2.2,22.1-6.1,32.1c-3.8-11.5-14.6-19.8-27.4-19.8c-15.9,0-28.9,12.9-28.9,28.9
		c0,15.3,11.9,27.8,27,28.8c-14.4,10.5-32.1,16.8-51.3,16.8c-47.9,0-86.7-38.8-86.7-86.7s38.8-86.7,86.7-86.7
		C455.5,178,494.3,216.9,494.3,264.8z"/>
	<path d="M391.2,127.8c27.2,0,54.4,7,80.9,20.9c22.2,11.6,44,28.1,64.8,48.9c23,23,39.9,46.4,49.7,61.2c-9.4,14.7-25.8,38-48.5,60.9
		c-20.6,20.8-42.3,37.2-64.5,48.9c-26.6,13.9-54.3,21-82.1,21c-27.5,0-55-7.2-81.8-21.3c-22.3-11.8-44.3-28.5-65.2-49.5
		c-22.7-22.8-39.3-46-48.8-60.5c9.1-14.1,24.9-36.4,46.8-58.9c20.8-21.3,42.8-38.1,65.3-50C334.9,135.1,362.9,127.8,391.2,127.8
		 M391.2,95.8c-147.1,0-232.8,162.6-232.8,162.6v0.3c0,0,88,162.9,233,162.9c144.7,0,229.4-157.3,232.5-163.1
		C620.8,252.9,533.3,95.8,391.2,95.8L391.2,95.8z"/>
</g>
</svg>
