<?xml version="1.0" encoding="utf-8"?>
<!-- Generator: Adobe Illustrator 21.1.0, SVG Export Plug-In . SVG Version: 6.00 Build 0)  -->
<svg version="1.1" id="Layer_6" xmlns="http://www.w3.org/2000/svg" xmlns:xlink="http://www.w3.org/1999/xlink" x="0px" y="0px"
	 viewBox="0 0 624.1 512" style="enable-background:new 0 0 624.1 512;" xml:space="preserve">
<g id="_x33_2_2_">
	<rect x="0.1" y="0" width="287" height="32"/>
	<rect x="0.1" y="480" width="287" height="32"/>
	<rect x="0.1" y="242" width="130" height="32"/>
	<path d="M416.4,179.2l-74.7,96.3c-0.4-3.4-0.6-6.9-0.6-10.4C341,221.1,373.9,184.8,416.4,179.2z"/>
	<path d="M514.4,265.1c0,11.4-2.2,22.1-6.1,32c-3.8-11.5-14.6-19.8-27.4-19.8c-15.9,0-28.9,12.9-28.9,28.9c0,15.3,11.9,27.8,27,28.8
		c-14.4,10.5-32.1,16.8-51.3,16.8c-14.9,0-28.9-3.8-41.2-10.4l104.9-135.2C505.7,221.7,514.4,242.4,514.4,265.1z"/>
	<path d="M533.7,151.7L514.1,177c7.8,6.4,15.4,13.3,23,20.8c23,23,39.9,46.4,49.7,61.3c-9.4,14.7-25.8,38-48.5,60.9
		c-20.6,20.8-42.3,37.2-64.5,48.9c-26.6,14-54.3,21-82.1,21c-13,0-26-1.6-39-4.8l-21.2,27.3c18.7,6,38.8,9.5,60.1,9.5
		c144.7,0,229.4-157.3,232.5-163.1C622.2,255.5,589.9,197.5,533.7,151.7z M307.9,149.8c27.1-14.4,55.2-21.7,83.4-21.7
		c19,0,38,3.4,56.8,10.2l20.5-26.4c-23.5-9.8-49.3-15.9-77.2-15.9c-147.1,0-232.8,162.6-232.8,162.6v0.3c0,0,37.7,69.8,104.4,118
		l19.6-25.3c-12.9-9.3-25.6-20.1-38-32.6c-22.7-22.8-39.3-46-48.8-60.5c9.1-14.1,24.9-36.4,46.8-58.9
		C263.4,178.5,285.4,161.7,307.9,149.8z"/>
	<polygon points="623.6,0 226.7,512 186.2,512 583.1,0 	"/>
</g>
</svg>
