<?xml version="1.0" encoding="utf-8"?>
<!-- Generator: Adobe Illustrator 21.1.0, SVG Export Plug-In . SVG Version: 6.00 Build 0)  -->
<svg version="1.1" id="Layer_1" xmlns="http://www.w3.org/2000/svg" xmlns:xlink="http://www.w3.org/1999/xlink" x="0px" y="0px"
	 viewBox="0 0 512 512" style="enable-background:new 0 0 512 512;" xml:space="preserve">
<style type="text/css">
	.st0{fill:#0C0506;}
</style>
<g id="_x33_2">
	<rect x="105.9" y="422.8" class="st0" width="9" height="8.6"/>
	<rect x="123.8" y="422.8" class="st0" width="9.3" height="8.6"/>
	<rect x="235.6" y="404.9" class="st0" width="13.4" height="13.8"/>
	<rect x="262.9" y="404.9" class="st0" width="13.8" height="13.8"/>
	<rect x="379.1" y="422.8" class="st0" width="9.3" height="8.6"/>
	<g>
		<path class="st0" d="M512,310.3h-27.3v166.3h-32V298.3c-13.6-8.2-27.9-13.7-38.1-15.4h-11.2l-9.4-9.6c-9-9.2-9.2-19.5-9.3-25
			c0-1.9,0-4.7-0.1-8.1c0-6.4,0-15.1,0-24.7c0-16.4,0-38.3,0.2-46.2l0.3-14.2l-128.9-112L126.7,155.7l0.5,13
			c0.3,7.9,0.5,33.8,0.5,44.5c0,8.9,0,17.7,0,24.2c0,3.3,0,6,0,8c-0.1,5.2-0.2,16-9.5,25.2l-7.3,7.4l-10.3,1.6
			c-10.1,1.6-26,9.3-41.4,19.8v177.2h-32V310.3H0c21.4-27.6,66.1-57.7,95.6-62.4c0.3-0.2,0.1-66.2-0.4-77.9h-34l195-169.1
			l194.6,169.2h-34c-0.3,13.9-0.3,80.9,0,80.9C445.9,254.5,491.2,278.1,512,310.3z"/>
	</g>
	<g>
		<rect x="225.6" y="143.5" class="st0" width="23.8" height="23.4"/>
	</g>
	<g>
		<rect x="225.6" y="175.9" class="st0" width="23.8" height="23.4"/>
	</g>
	<g>
		<rect x="262.9" y="143.5" class="st0" width="23.8" height="23.4"/>
	</g>
	<g>
		<rect x="262.9" y="175.9" class="st0" width="23.8" height="23.4"/>
	</g>
	<rect x="397.4" y="422.8" class="st0" width="9" height="8.6"/>
	<path class="st0" d="M170.7,414.5v62.1h-19v-62.1c0-17.7-14.4-32.2-32.2-32.2c-17.7,0-32.2,14.4-32.2,32.2v62.1h-19v-62.1
		c0-28.3,22.9-51.2,51.2-51.2C147.8,363.4,170.7,386.3,170.7,414.5z"/>
	<path class="st0" d="M443.8,414.5v62.1h-19v-62.1c0-17.7-14.4-32.2-32.2-32.2c-17.7,0-32.2,14.4-32.2,32.2v62.1h-19v-62.1
		c0-28.3,22.9-51.2,51.2-51.2C420.9,363.4,443.8,386.3,443.8,414.5z"/>
	<path class="st0" d="M324.2,396.4v80.2h-19v-80.2c0-27.3-22.2-49.5-49.5-49.5s-49.5,22.2-49.5,49.5v80.2h-19v-80.2
		c0-37.8,30.7-68.5,68.5-68.5C293.5,327.9,324.2,358.5,324.2,396.4z"/>
	<rect y="486.6" class="st0" width="512" height="27.1"/>
	<g>
		<polygon class="st0" points="218.3,132.3 210.5,124.5 257.2,82.7 303.9,124.5 296.1,132.3 257.2,97.5 		"/>
	</g>
</g>
</svg>
