<?xml version="1.0" encoding="utf-8"?>
<!-- Generator: Adobe Illustrator 21.1.0, SVG Export Plug-In . SVG Version: 6.00 Build 0)  -->
<svg version="1.1" id="Layer_1" xmlns="http://www.w3.org/2000/svg" xmlns:xlink="http://www.w3.org/1999/xlink" x="0px" y="0px"
	 viewBox="0 0 394.2 512" style="enable-background:new 0 0 394.2 512;" xml:space="preserve">
<g id="_x33_2">
	<path d="M20.6,19.4c-4.2,0.8-7.4,6.8-6.9,13.6l20.4,103.3c0,0.5,0.2,0.8,0.5,0.8c0.3,0,0.6-0.3,0.5-0.8L20.6,19.4z M8.6,40.6
		c-4.5,0.9-7.9,7.2-7.4,14.9L28.5,155c0.1,0.3,0.4,0.5,0.6,0.5c0.3,0,0.5-0.3,0.4-1L8.6,40.6z M29.1,369.4c-0.2,0-0.4,0.2-0.5,0.6
		L1.3,469.4c-0.6,7.7,2.9,14,7.4,14.9l20.9-113.9C29.6,369.7,29.3,369.4,29.1,369.4z M34.5,387.8c-0.3,0-0.5,0.2-0.5,0.8L13.7,491.9
		c-0.5,6.8,2.7,12.7,6.9,13.6l14.6-116.9C35.2,388.2,34.8,387.8,34.5,387.8z"/>
	<path d="M380.2,24.9C377.7,15.1,366.8,0,354,0H49.9C37.1,0,26.8,10.4,26.8,23.3c0,0,15.4,51.6,15.4,107.4
		c0,65.5-21.6,116.2-21.6,122.9c0,5.3,7.3,25.9,7.4,26.5c3.4,13.8,12.7,55.9,12.7,99.5c0,52.6-13.9,107.4-13.9,107.4
		c0,12.9,8.8,23.3,21.6,23.3h305.7c12.7,0,22.1-10.5,26.2-24.9c0,0,13.9-55.1,13.9-108.9c0-42.9-11.6-83.9-15.6-96.9
		c-0.2-0.5-6-18.9-6-22.9c0-3.5,20.4-67.5,21.6-127.6C395.3,74.6,380.3,24.9,380.2,24.9z M349.3,477.1c-0.1,0.5-0.3,0.9-0.4,1.2
		H61.5c4.4-21.4,11.1-60.3,11.1-98.7c0-45.5-9.3-89.2-13.1-104.8h284.2c0.3,1.1,0.6,2.2,1,3.4c0,0.1,1.9,6.6,3.3,10.8
		c3.3,10.8,14.2,49.1,14.2,87.5C362.2,422.9,350.7,471.6,349.3,477.1z M362.2,128.5c-0.9,43.1-13,90.4-18,109.8H58
		c6.8-23.8,16.1-62.2,16.1-107.5C74.2,90.8,67,53.2,62,32h286.5c0.3,0.4,0.5,0.9,0.7,1.2l4.4,17.3
		C357.5,67.9,362.8,97.5,362.2,128.5z"/>
	<path d="M260.8,137.9c6.7,0,12.1,5.5,12.1,12.3c0,6.8-5.4,12.3-12.1,12.3s-12.1-5.5-12.1-12.3C248.6,143.4,254.1,137.9,260.8,137.9
		L260.8,137.9z M260.8,122.9c-15,0-27.1,12.2-27.1,27.3s12.2,27.3,27.1,27.3s27.1-12.2,27.1-27.3S275.7,122.9,260.8,122.9
		L260.8,122.9z"/>
	<path d="M171.5,149l-15.2,54.1l-35-39L171.5,149L171.5,149z M178.8,141.6l-66.4,20l46.3,51.6L178.8,141.6L178.8,141.6z"/>
	<path d="M160.6,159.8l-7.7,27.6l-17.7-19.8L160.6,159.8L160.6,159.8z M167.9,152.4L126.3,165l29,32.5L167.9,152.4L167.9,152.4z"/>
	<path d="M260.8,113c20.2,0,36.7,16.6,36.7,37.1s-16.5,37.1-36.7,37.1s-36.7-16.6-36.7-37.1S240.5,113,260.8,113L260.8,113z
		 M260.8,98c-28.6,0-51.7,23.3-51.7,52.1s23.2,52.1,51.7,52.1s51.7-23.3,51.7-52.1C312.5,121.4,289.4,98,260.8,98L260.8,98z"/>
	<path d="M145.6,76.2c3.3,0,6.1,2.8,6.1,6.2c0,3.4-2.7,6.2-6.1,6.2s-6.1-2.8-6.1-6.2C139.5,79,142.2,76.2,145.6,76.2L145.6,76.2z
		 M145.6,68.7c-7.5,0-13.6,6.1-13.6,13.7s6.1,13.7,13.6,13.7s13.6-6.1,13.6-13.7S153,68.7,145.6,68.7L145.6,68.7z"/>
	<path d="M145.6,63.8c10.1,0,18.4,8.3,18.4,18.6s-8.2,18.6-18.4,18.6s-18.4-8.3-18.4-18.6S135.4,63.8,145.6,63.8L145.6,63.8z
		 M145.6,56.3c-14.3,0-25.9,11.7-25.9,26.1s11.6,26.1,25.9,26.1s25.9-11.7,25.9-26.1C171.4,68,159.9,56.3,145.6,56.3L145.6,56.3z"/>
	<path d="M262.1,367.2l-3.8,13.6h7.5L262.1,367.2z"/>
	<path d="M287.1,318.6H141c-11.6,0-20.9,9.3-20.9,20.9v73.1c0,11.6,9.3,20.9,20.9,20.9h146.2c11.6,0,20.9-9.3,20.9-20.9v-73.1
		C308.1,328,298.6,318.6,287.1,318.6z M170.9,396.3h-9.4l-15.3-40.8h12l8.1,26.7l8-26.7h11.9L170.9,396.3z M201.6,396.3h-11.3v-40.8
		h11.3V396.3z M239.4,390c-3.8,6.9-12.4,6.6-14.4,6.8c-5.2,0.6-14.6-2.6-18-4.8l4.9-9.8c1.4,0.8,7.7,4.5,13.2,4.5
		c4.5-0.1,3.3-2.6,2.6-3.3c-2.2-1.8-12.5-3.1-16.4-7.5c-0.8-1-2.6-3-2.5-7c0.1-6.5,3.2-9.2,4.6-10.3c6.3-4.7,15.5-4.9,26.2,0.9
		l-4.9,9.3c-1.2-0.7-9.4-5.3-13.3-3.3c-0.6,0.3-1.5,1.5-0.4,2.9c1.2,1.4,8.8,3.4,12.3,4.6c6.6,2.6,7.3,7.8,7.3,10.8
		C240.7,386.3,240.3,388.4,239.4,390z M270,396.3l-2.5-8h-11l-2.5,8h-12l15.4-40.8h9.2l15.3,40.8H270z"/>
</g>
</svg>
