<?xml version="1.0" encoding="utf-8"?>
<!-- Generator: Adobe Illustrator 21.1.0, SVG Export Plug-In . SVG Version: 6.00 Build 0)  -->
<svg version="1.1" id="Layer_1" xmlns="http://www.w3.org/2000/svg" xmlns:xlink="http://www.w3.org/1999/xlink" x="0px" y="0px"
	 viewBox="0 0 418.1 512" style="enable-background:new 0 0 418.1 512;" xml:space="preserve">
<g>
	<g>
		<path d="M120.9,161L8,161.5c-4.6,0-8,3.3-8,8c0,71.9,0,167.6,0,172s3.6,8,8,8s112.9-1.5,112.9-1.5L285,510.5v-511L120.9,161z
			 M253,433.5c0,0-67.2-66.2-104-103c-12.7-12.7-28-14-28-14H32v-123l89-1c0,0,11.5,2.5,30-16c36.8-36.8,102-100,102-100V433.5z
			 M366,177.5c-5.6-2.2-11.8-4.2-19,3c-7.3,7.2-3.5,18.5,1,23c4.4,4.4,37.5,13.5,37.5,51.5c0,38.6-33.8,45.6-39.5,54.5
			c-4,5.1-5,14,1,20c9,9,18.7,3.7,20,3c28.3-11,51.1-41.4,51.1-77.5C418.1,223.3,400.5,190.8,366,177.5z"/>
	</g>
</g>
</svg>
