<?xml version="1.0" encoding="utf-8"?>
<!-- Generator: Adobe Illustrator 21.1.0, SVG Export Plug-In . SVG Version: 6.00 Build 0)  -->
<svg version="1.1" id="Layer_1" xmlns="http://www.w3.org/2000/svg" xmlns:xlink="http://www.w3.org/1999/xlink" x="0px" y="0px"
	 viewBox="0 0 511.8 512" style="enable-background:new 0 0 511.8 512;" xml:space="preserve">
<g>
	<g>
		<path d="M120.9,161L8,161.5c-4.6,0-8,3.3-8,8c0,71.9,0,167.6,0,172s3.6,8,8,8s112.9-1.5,112.9-1.5L285,510.5v-511L120.9,161z
			 M253,433.5c0,0-67.2-66.2-104-103c-12.7-12.7-28-14-28-14H32v-123l89-1c0,0,11.5,2.5,30-16c36.8-36.8,102-100,102-100V433.5z
			 M404,92.5c-3.4-1.2-15.4-4.6-21,4c-4,6.1-9.8,18.2,10,27c29.9,12.8,86.5,56.2,86.2,131.5c-3.3,81.5-54.8,116.4-88.6,131.6
			c-15.9,8.2-12.2,21.2-7.3,26.6c9.8,10.9,21.8,3.7,22.7,3.3c60.5-26.6,105.8-88.2,105.8-161.5S464.2,117.5,404,92.5z M418.1,255
			c0-31.7-17.7-64.2-52.1-77.5c-5.6-2.2-11.8-4.2-19,3c-7.3,7.2-3.5,18.5,1,23c4.4,4.4,37.5,13.5,37.5,51.5
			c0,38.6-33.8,45.6-39.5,54.5c-4,5.1-5,14,1,20c9,9,18.7,3.7,20,3C395.3,321.5,418.1,291.1,418.1,255z"/>
	</g>
</g>
</svg>
