<?xml version="1.0" encoding="utf-8"?>
<!-- Generator: Adobe Illustrator 21.1.0, SVG Export Plug-In . SVG Version: 6.00 Build 0)  -->
<svg version="1.1" id="Layer_1" xmlns="http://www.w3.org/2000/svg" xmlns:xlink="http://www.w3.org/1999/xlink" x="0px" y="0px"
	 viewBox="0 0 605 512" style="enable-background:new 0 0 605 512;" xml:space="preserve">
<g>
	<path d="M8,161.5c-4.6,0-8,3.3-8,8c0,71.9,0,167.6,0,172c0,4.4,3.6,8,8,8s112.9-1.5,112.9-1.5L285,510.5v-511L120.9,161L8,161.5z
		 M151,176.5c36.8-36.8,102-100,102-100v357c0,0-67.2-66.2-104-103c-12.7-12.7-28-14-28-14H32v-123l89-1
		C121,192.5,132.5,195,151,176.5z"/>
	<polygon points="605,163.6 582.1,140.7 490.7,232.1 399.2,140.7 376.3,163.6 467.8,255 376.3,346.4 399.2,369.3 490.7,277.9 
		582.1,369.3 605,346.4 513.6,255 	"/>
</g>
</svg>
