<?xml version="1.0" encoding="utf-8"?>
<!-- Generator: Adobe Illustrator 21.1.0, SVG Export Plug-In . SVG Version: 6.00 Build 0)  -->
<svg version="1.1" id="Layer_1" xmlns="http://www.w3.org/2000/svg" xmlns:xlink="http://www.w3.org/1999/xlink" x="0px" y="0px"
	 viewBox="0 0 512 512" style="enable-background:new 0 0 512 512;" xml:space="preserve">
<style type="text/css">
	.st0{fill-rule:evenodd;clip-rule:evenodd;}
</style>
<g id="_x33_2_1_">
	<path d="M349.9,365.7L349.9,365.7c-10.6,4-22.5-1.4-26.3-12.1c-5.7-16.1-13.7-37.1-17.6-42c-10.7-13.3-39.4-30.8-57.1-31.9
		c-3.3-0.2-8.3,1-7.1,11.4c0.3,2.7,2.4,48.9,1,53.8c-0.8,2.9-18.4,41.2-27.1,65.5c-4,11.1-16,17-27.2,13.4h0
		c-11.2-3.6-17.5-15.5-14.2-26.8c5.7-19.7,17.7-47.9,19.2-57.6c4.1-27.1-0.4-55.6-4.8-68.1l-0.1-0.3c-2.7-8.5-3.7-11.7-4.3-29.2
		c-1.1-28.1,1.7-62.7,2.5-73.8c0.4-4.9-0.4-12.5-8.1-10.2c-21.7,6.4-30,10-30,27.8v40.2c0,8.9-7.2,16.1-16.1,16.1h0
		c-8.9,0-16.1-7.2-16.1-16.1v-61.9c0-7,7.2-12.2,18.9-20c0,0,53.5-31.1,59.8-35c24.8-15.2,44.7-13.8,62.4,4.4
		c0.4,0.4,40,44.7,42.6,47.1c3,2.7,8.3,4.9,27.2,2.2c2.1-0.3,8.7-1.4,15.3-2.5c8.4-1.4,16.4,4.5,17.4,13v0c1.1,8.3-4.8,15.8-13,16.9
		c-18.3,2.4-44,5.7-51.1,5.9c-4.3,0-11.9-6-15.6-10.3c-4.6-5.4-10.4-12.5-16.9-6.9c-4.4,3.7-3.5,8.8-3,46c0.1,6.8,0.7,8.9,4.6,10.7
		c11.9,5.4,40.8,23.9,57.5,32c14.9,7.3,15.6,10.6,23,28.8c0.3,0.9,9.5,25.6,16.1,43.7C365.6,350.2,360.3,361.8,349.9,365.7z"/>
	<path class="st0" d="M248,0c26,0,47,20.5,47,45.8s-21,45.8-47,45.8s-47-20.5-47-45.8S222.1,0,248,0z"/>
	<path d="M393.6,411c-73.5-1.3-175.7,53-254,50.6c-88.5-2.6-139-47.2-139-47.2s50.5,97.9,126,97.9c170.1,0,169.4-48.6,292.6-50.6
		c0.9,0,1.7,0,2.6,0c66.2,0,90.2,41.9,91.3,43.8C512.3,502.7,482.6,412.6,393.6,411z"/>
</g>
</svg>
