<?xml version="1.0" encoding="utf-8"?>
<!-- Generator: Adobe Illustrator 21.1.0, SVG Export Plug-In . SVG Version: 6.00 Build 0)  -->
<svg version="1.1" id="Layer_2" xmlns="http://www.w3.org/2000/svg" xmlns:xlink="http://www.w3.org/1999/xlink" x="0px" y="0px"
	 viewBox="0 0 358.8 512" style="enable-background:new 0 0 358.8 512;" xml:space="preserve">
<g>
	<path d="M218.9,169.8c-18.5-16.2-28.1-6-40.1-0.7l-12.3-7.2c3.3-2,5.7-4.3,10.7-3.5l4.6-12.3c-8.8-2.7-19.9-0.7-26.6,9.4L151,153
		l-3.6,6.3l4.2,2.4c-3.6,7.2-4.9,13.5-3.4,19.1c3.1,12.8,15.7,15.9,20.6,15.5c7.2-0.5,10.6-3.2,20.4-12.8l15.1,8.7
		c-4.2,2.8-6.9,3.1-13.1,0.9l-8,18.4c21.2,7.7,32.4-11.9,32.6-12.6l8.1,4.6l3.6-6.3l-8.1-4.6C221.4,189.1,226.3,176.2,218.9,169.8z
		 M162.6,168l11,6.4C166.4,182.8,157,176,162.6,168z M208.3,186.1l-13.7-7.9C199.8,171.9,212.5,175.3,208.3,186.1z"/>
	<path id="_x33_2" d="M325.5,298.4c-0.3-0.3-0.7-0.5-1-0.7v-97.5c0-7.8-5.5-14.3-12.7-15.8c0.8-1.3,1.5-2.5,2.3-3.8
		c17.4-30.1,26.4-61.6,29.8-76c1.1-4.8-1-9.7-5.2-12.1L181,1.5c-5.8-3.3-13.1-0.7-15.4,5.6c-4.4,12.1-12.8,32.3-26.1,55.3
		c-23.1,40.1-91.9,97.8-116.7,140.9C11.5,222.8,7,238.8,5.5,250.8H0V512h324.5v-80.9c0.3-0.2,0.7-0.5,1-0.7
		c20.2-15,33.4-38.9,33.4-66C358.8,337.3,345.7,313.3,325.5,298.4z M51,218.9c24.8-42.9,93.2-100.1,116.2-140
		c8.1-13.9,14.4-27.1,19-38l122.4,70.7c-4.8,15.4-11.9,34.3-22.4,52.5c-19.5,33.9-46.7,67.3-63.5,86.8H37
		C39.7,241.5,44.2,230.8,51,218.9z M292.1,214.4v36.3h-27.7C273,240.1,282.7,227.8,292.1,214.4z M204.8,328.5
		c-19.9,0-36,16.1-36,35.9c0,19.8,16.1,35.9,36,35.9h106.3c-5.1,4.9-11.2,8.6-18,11v0.1h-1v66.7H32.3V283.1h259.8v35.4h3.3
		c5.9,2.3,11.1,5.9,15.7,10.1H204.8z M219.4,364.4c0,8.1-6.6,14.7-14.7,14.7s-14.7-6.6-14.7-14.7c0-8.1,6.6-14.7,14.7-14.7
		S219.4,356.3,219.4,364.4z"/>
</g>
</svg>
