<?xml version="1.0" encoding="utf-8"?>
<!-- Generator: Adobe Illustrator 21.1.0, SVG Export Plug-In . SVG Version: 6.00 Build 0)  -->
<svg version="1.1" id="Layer_4" xmlns="http://www.w3.org/2000/svg" xmlns:xlink="http://www.w3.org/1999/xlink" x="0px" y="0px"
	 viewBox="0 0 578.1 512" style="enable-background:new 0 0 578.1 512;" xml:space="preserve">
<g>
	<path d="M289.1,36.5l257.1,140.3v303.5h-72.9V209H101.9v271.3H32V176.7L289.1,36.5 M289.1,0L0,157.7v354.5h133.9V241h307.3v271.3
		h136.9V157.7L289.1,0L289.1,0z"/>
	<path d="M339.1,307.6l-17.9-25.2h-0.1l-21.3-0.2l3.9,25.4l0,0v13.3h-29.5v-13.3h0.1l3.9-25.4l-21.3,0.2h-0.1l-17.5,25.2l-0.1,77.7
		h100V307.6L339.1,307.6z M307.6,287.6h8.2l11.8,20h-14.1L307.6,287.6z M262.1,287.6h8.2l-5.6,20h-14.1L262.1,287.6z M329.2,374.8
		h-80.6V318h16l0.2,2.9v10.4l48.8,0.2v-13.3h16L329.2,374.8z M294.2,282.4h-10.4l-3.2,23.6v11.6h16.7v-11.2L294.2,282.4z"/>
	<path d="M277.5,434.7l-17.9-25.2h-0.1l-21.3-0.2l3.9,25.4l0,0V448h-29.5v-13.3h0.1l3.9-25.4l-21.3,0.2h-0.1l-17.5,25.2l-0.1,77.7
		h100V434.7L277.5,434.7z M246,414.7h8.2l11.8,20h-14.1L246,414.7z M200.6,414.7h8.2l-5.6,20h-14.1L200.6,414.7z M267.7,501.9H187
		v-56.7h16l0.2,2.9v10.4l48.8,0.2v-13.3h16L267.7,501.9z M232.6,409.5h-10.4l-3.2,23.6v11.6h16.7v-11.2L232.6,409.5z"/>
	<path d="M400.2,434.7l-17.9-25.2h-0.1l-21.3-0.2l3.9,25.4l0,0V448h-29.5v-13.3h0.1l3.9-25.4l-21.3,0.2h-0.1l-17.5,25.2l-0.1,77.7
		h100V434.7L400.2,434.7z M368.7,414.7h8.2l11.8,20h-14.1L368.7,414.7z M323.3,414.7h8.2l-5.6,20h-14.1L323.3,414.7z M390.4,501.9
		h-80.6v-56.7h16l0.2,2.9v10.4l48.8,0.2v-13.3h16L390.4,501.9z M355.3,409.5h-10.4l-3.2,23.6v11.6h16.7v-11.2L355.3,409.5z"/>
</g>
</svg>
