<?xml version="1.0" encoding="utf-8"?>
<!-- Generator: Adobe Illustrator 22.0.1, SVG Export Plug-In . SVG Version: 6.00 Build 0)  -->
<svg version="1.1" id="Layer_1" xmlns="http://www.w3.org/2000/svg" xmlns:xlink="http://www.w3.org/1999/xlink" x="0px" y="0px"
	 viewBox="0 0 512 512" style="enable-background:new 0 0 512 512;" xml:space="preserve">
<style type="text/css">
	.st0{fill-rule:evenodd;clip-rule:evenodd;}
</style>
<g id="_x33_2">
	<path class="st0" d="M152.6,295.5l-47.4-53.3l-1.4,130.6l42.3-38.6L152.6,295.5z"/>
	<path class="st0" d="M-0.2,397.7h20.6v52.1H-0.2V397.7z"/>
	<path class="st0" d="M-0.2,470.6h20.6V512H-0.2V470.6z"/>
	<path class="st0" d="M30.6,470.6h20.6V512H30.6V470.6z"/>
	<path class="st0" d="M61.5,470.6H82V512H61.5V470.6z"/>
	<path class="st0" d="M30.6,418.5h20.6v41.7H30.6V418.5z"/>
	<path class="st0" d="M61.5,408.1H82v41.8H61.5V408.1z"/>
	<path class="st0" d="M30.6,366h20.6v42.1H30.6V366z"/>
	<path class="st0" d="M61.7,383.2h20.6v14.4H61.7V383.2z"/>
	<path class="st0" d="M-0.2,345.6h20.6V377H-0.2V345.6z"/>
	<path class="st0" d="M94,261.7v20.7H73.4v-20.7H94z"/>
	<path class="st0" d="M94.4,294.5v20.7H73.8v-20.7H94.4z"/>
	<path class="st0" d="M63.1,261.6L63,282.1c0,0-10.5,0.4-25.9,15.5c-12.7,12.4-16.7,33.2-16.7,33.2H0.7c0,0,4.3-28,27.4-49.1
		C49,262.6,63.1,261.6,63.1,261.6z"/>
	<path class="st0" d="M63.3,321.9c0,0-0.5,0.6-0.8,1c-9.5,12.3-11.3,28.6-11.3,28.6H31.4c0,0,3-28,26.1-49.1
		c1.5-1.3,2.9-2.6,4.3-3.7c0.4-0.4,1.3-1.1,1.3-1.1L63.3,321.9z"/>
	<path class="st0" d="M82.3,367.9H62.6c0,0,3.1-20.3,18.3-39.3c0.4-0.5,1.2-1.5,1.2-1.5L82.3,367.9z"/>
	<path d="M464.2,251.5c54.6-48.5,64.4-132,20.5-192.5C438.2-5.1,349.2-19.1,285.9,27.6c-48.6,35.9-68,97.2-53.3,152.8l-18.3,13.5
		c-17.3,12.8-21,37.3-8.3,54.7l38.2,52.7L171.9,290l-8.3,54.7l134.1,30.5l38.2,52.7l166.8-123.2l-22.9-31.6L464.2,251.5z
		 M303.9,53.7C353.6,17,423.3,28,459.7,78.2c33.7,46.5,27,110.2-13.5,148.6l-73.5-101.4c-7.6-10.5-19.4-16.1-31.4-16.1
		c-7.9,0-15.9,2.5-22.8,7.5l-59.1,43.6C253.8,120.7,269.5,79.1,303.9,53.7z M342.9,383l-111-153.1c-2.3-3.2-1.7-7.9,1.4-10.2
		l104.3-77c1.1-0.8,2.4-1.3,3.8-1.3c1,0,3.6,0.3,5.5,2.9l111.4,153.6L342.9,383z"/>
</g>
</svg>
