<?xml version="1.0" encoding="utf-8"?>
<!-- Generator: Adobe Illustrator 21.1.0, SVG Export Plug-In . SVG Version: 6.00 Build 0)  -->
<svg version="1.1" id="Layer_2" xmlns="http://www.w3.org/2000/svg" xmlns:xlink="http://www.w3.org/1999/xlink" x="0px" y="0px"
	 viewBox="0 0 512.1 512" style="enable-background:new 0 0 512.1 512;" xml:space="preserve">
<g id="_x33_2">
	<path d="M52.6,512h391.7l-32-32H87.6c7.9-41.8,31-78.2,63.4-103.2c30.5,18.4,66.3,29,104.5,29c24.6,0,48.2-4.4,70.1-12.5
		l-25.4-25.4c-14.2,3.8-29.2,5.9-44.7,5.9c-94.4,0-170.9-76.5-170.9-170.9c0-15.5,2.1-30.4,5.9-44.7L65,132.8
		c-8,21.9-12.4,45.5-12.4,70.1c0,61.9,27.8,117.4,71.5,154.6C80.4,394.7,52.6,450.1,52.6,512z"/>
	<circle cx="255.2" cy="16.9" r="3.7"/>
</g>
<path d="M428.3,405.6c-11.2-18.2-25.2-34.4-41.3-48.2c43.7-37.2,71.5-92.6,71.5-154.6C458.4,90.8,367.5,0,255.5,0
	C191.9,0,135,29.3,97.8,75.2L22.6,0L0,22.6l489.5,489.4l22.6-22.6L428.3,405.6z M255.2,9c4.4,0,7.9,3.5,7.9,7.9
	c0,4.4-3.5,7.9-7.9,7.9c-4.4,0-7.9-3.5-7.9-7.9C247.3,12.5,250.9,9,255.2,9z M236.1,177.9c-0.2,0.1-0.3,0.3-0.5,0.4
	c-7,5.7-11.3,14.2-11.5,23.2l-16.4-16.4c3.1-8.6,8.5-16.3,15.8-22.1v-0.2c4.1-3.4,10.2-2.9,13.6,1.2c0.1,0.1,0.1,0.2,0.2,0.3
	C240.7,168.4,240.2,174.5,236.1,177.9z M254.9,125.5c-28.9,0-54.1,16-67.1,39.7L120.6,98c31.3-40.1,80.1-66,134.9-66
	c94.4,0,170.9,76.5,170.9,170.9c0,54.8-25.8,103.6-66,134.9l-68.7-68.7c23.6-13,39.6-38.2,39.6-67.1
	C331.4,159.7,297.1,125.5,254.9,125.5z"/>
</svg>
