<?xml version="1.0" encoding="utf-8"?>
<!-- Generator: Adobe Illustrator 21.1.0, SVG Export Plug-In . SVG Version: 6.00 Build 0)  -->
<svg version="1.1" id="Layer_3" xmlns="http://www.w3.org/2000/svg" xmlns:xlink="http://www.w3.org/1999/xlink" x="0px" y="0px"
	 viewBox="0 0 512 512" style="enable-background:new 0 0 512 512;" xml:space="preserve">
<g>
	<path id="_x33_2" d="M465.7,109.9h-89.9C369.3,49.6,318.6,0,257,0S144.7,49.6,138.2,109.9h-92C20.7,109.9,0,130.6,0,156.1v309.6
		C0,491.3,20.7,512,46.3,512h419.5c25.5,0,46.2-20.7,46.3-46.3V156.1C512,130.6,491.3,109.9,465.7,109.9z M257,32
		c47.4,0,87.5,41.7,87.5,91c0,48.3-39.3,87.5-87.5,87.5c-48.3,0-87.5-39.3-87.5-87.5C169.5,73.7,209.6,32,257,32z M139,141.9
		c9,57,58.5,100.6,118,100.6c59.6,0,109-43.6,118-100.6h33.5c-3.9,34-19.1,65.4-43.7,90c-28.8,28.8-67.2,44.7-107.9,44.7
		c-40.8,0-79.1-15.9-107.9-44.7c-24.5-24.6-39.7-56-43.7-90H139z M480,465.7c0,7.9-6.4,14.3-14.3,14.3H46.3
		c-7.9,0-14.3-6.4-14.3-14.3V156.2c0-7.9,6.4-14.3,14.3-14.3h27c9,93.5,87.9,166.7,183.8,166.7s174.7-73.1,183.8-166.7h24.9
		c7.9,0,14.3,6.4,14.3,14.3V465.7z"/>
	<rect x="111.2" y="384.7" width="293" height="32"/>
	<path d="M281,121.2c0,13-10.5,23.5-23.5,23.5S234,134.2,234,121.2c0-3.4,0.7-6.6,2-9.4l-20.4-20.4l12.1-12.1l20.4,20.4
		c2.9-1.3,6.1-2,9.4-2C270.5,97.7,281,108.2,281,121.2z"/>
</g>
</svg>
