<?xml version="1.0" encoding="utf-8"?>
<!-- Generator: Adobe Illustrator 21.1.0, SVG Export Plug-In . SVG Version: 6.00 Build 0)  -->
<svg version="1.1" id="Layer_5" xmlns="http://www.w3.org/2000/svg" xmlns:xlink="http://www.w3.org/1999/xlink" x="0px" y="0px"
	 viewBox="0 0 640 512" style="enable-background:new 0 0 640 512;" xml:space="preserve">
<g>
	<path d="M468.5,84.1c-75.1,0-148.2,39.7-187.6,119.2c-15.7,31.7-46.1,45.5-73.6,45.5c-12.8,0-36.9-2.4-51.4-24.6
		c-11.6-17.5-16.2-38.2-16.2-38.2c117.8-49.5,92.9-86,89.5-86c0,0,0,0,0,0c-11,10.3-60.2,14.2-75,20.1c-1.9-0.6-3.8-0.9-5.8-0.9
		c-12.6,0-26.4,10.9-33.7,11.1c-2.4,0.1-3.1-2.6-8.5-2.6c-6,0-13.8,3.1-16.9,4.3c-33.8,17.5-61.2,14.7-82.8,17.2
		c-22.7,4.2,19.3,24.6,41.9,37.7c29.2,11.1,24.5,59,53.6,94.6c39.2,47.9,93.3,81.6,178.3,94.8c-2.7,16.9-12.8,56.5-50.3,84
		c104.6,28.6,125.5-57.4,128.9-78c2.8,0,5.6,0,8.5,0c22.3,0,43.8-3.1,64.3-8.6c2.3,9.9,6.9,37.3-4.1,64.8
		c49.4-14.3,56.8-67,57.8-85.1c93-46,154.6-133.9,154.6-166C640,146.7,558.5,84.1,468.5,84.1z M460.9,329.7
		c-88.6,41.8-221.4,9.7-264.7-12.2c-23.4-11.8-59.7-40.7-73.3-58.1c-16.5-21.1-21.3-73.1-46-89.8c7.8-2.5,23.5-9,26.9-10.9
		c13.6,4.4,41.3-8.2,43.7-9l0.1,0c-5.9,2.8-42.8,18.5-42.8,18.5s7.4,48.3,28.3,76.1c20.9,32.3,53.8,36.6,74,36.6
		c43.7,0,82.9-24.2,102.3-63.3c15.6-31.5,36.9-56.1,63.2-73.2c22-14.3,58-28.3,95.7-28.3h0c34.2,0,71,11.2,101,30.6
		c28.5,18.5,38.1,36.1,38.4,40.7C607.7,190.5,579.4,273.8,460.9,329.7z"/>
	<path d="M534,184c8.8,0,16,7.2,16,16s-7.2,16-16,16s-16-7.2-16-16S525.2,184,534,184z"/>
</g>
</svg>
