<?xml version="1.0" encoding="utf-8"?>
<!-- Generator: Adobe Illustrator 21.1.0, SVG Export Plug-In . SVG Version: 6.00 Build 0)  -->
<svg version="1.1" id="Layer_2" xmlns="http://www.w3.org/2000/svg" xmlns:xlink="http://www.w3.org/1999/xlink" x="0px" y="0px"
	 viewBox="0 0 512 512" style="enable-background:new 0 0 512 512;" xml:space="preserve">
<g id="_x33_2_1_">
	<g>
		<path d="M512,177.4l-22.5-91.5c-36.5,10-336.1,77.8-389.4,114.2c-45.4,31.1-76,82.6-76,141.7c0,14.9,1.9,29.3,5.5,43.1
			C12,393.6,0,411.6,0,432.5c0,29.4,23.8,53.2,53.3,53.2c12.7,0,24.4-4.5,33.6-11.9c29.3,23.9,66.8,38.2,107.5,38.2
			c94.1,0,170.4-76.2,170.4-170.2c0-24.2-5.1-47.3-14.2-68.1C379.8,256.1,512,177.4,512,177.4z M346.2,153.4l3.1,8.8l-37.8,11.6
			l-11.8-8.2L346.2,153.4z M53.3,464.2c-17.5,0-31.7-14.2-31.7-31.7c0-11.3,5.9-21.3,14.9-26.9c8.1,19.9,19.8,38,34.4,53.3
			C65.8,462.3,59.8,464.2,53.3,464.2z M292.3,439.5c-55.4,55.4-141.4,54.2-195.7,0c-79.5-79.5-24.2-190,26.6-215.6
			c31-15.6,85.8-33.2,142.7-49.2l38.2,27l78.4-27.6l-9.7-27.5c52.5-13,91.9-21.7,93.2-22l9.2,37.4L310,260.8
			C342.8,323.9,343.8,388.1,292.3,439.5z"/>
	</g>
	<g>
		<path d="M195.9,254.6c-44.7,0-80.9,36.2-80.9,80.9c0,44.7,36.2,80.9,80.9,80.9s80.9-36.2,80.9-80.9
			C276.9,290.8,240.6,254.6,195.9,254.6z M195.9,384.4c-27.1,0-49-21.9-49-49c0-27.1,21.9-49,49-49s49,21.9,49,49
			C245,362.5,223,384.4,195.9,384.4z"/>
	</g>
	<path d="M274,99.1c-1.3,2.4-3.4,4-5.8,4.6c-2.2,0.6-4.6,0.4-6.8-0.8l-50.8-26.9c-4.6-2.4-6.3-8.1-3.9-12.6c2.4-4.6,8-6.3,12.6-3.9
		l50.8,26.9C274.6,88.9,276.4,94.5,274,99.1z M302.8,81c-0.4,0.2-0.8,0.3-1.2,0.4c-4.4,1.2-9.2-1.1-11-5.4l-19.9-47.7
		c-2-4.8,0.3-10.2,5-12.2c4.8-2,10.2,0.3,12.2,5l19.9,47.7C309.8,73.5,307.6,79,302.8,81z M364.4,12.1l-16.8,54.6
		c-1,3.2-3.5,5.5-6.5,6.3c-1.6,0.4-3.4,0.4-5.2-0.1c-4.9-1.5-7.7-6.8-6.2-11.7l16.8-54.6c1.5-5,6.7-7.7,11.7-6.2
		C363.1,1.9,365.9,7.2,364.4,12.1z"/>
</g>
</svg>
