<?xml version="1.0" encoding="utf-8"?>
<!-- Generator: Adobe Illustrator 21.1.0, SVG Export Plug-In . SVG Version: 6.00 Build 0)  -->
<svg version="1.1" id="Layer_5" xmlns="http://www.w3.org/2000/svg" xmlns:xlink="http://www.w3.org/1999/xlink" x="0px" y="0px"
	 viewBox="0 0 512 512" style="enable-background:new 0 0 512 512;" xml:space="preserve">
<path id="_x33_2" d="M283.7,187.3h100.5c33.6,0,61.7-26.7,62.2-60.3c0.5-34.2-27.1-62.2-61.3-62.2c-23.3,0-44.6,13.5-54.9,34
	c-1,2-3.1,3.4-5.3,3.4h-22.6c-4.1,0-7-4.1-5.6-8c13.3-36.5,48.6-62,88.3-62c52.1,0,94.4,42.7,93.9,94.9c-0.5,51.7-43.4,93-95.1,93
	H249.2C263.9,213.5,276.2,202,283.7,187.3z M0,204c-0.2-9.1,7.6-16.6,16.7-16.6h176.5c18,0,33.1-14.7,32.8-32.7
	c-0.3-17.5-14.6-31.6-32.2-31.6c-10.8,0-20.8,5.4-26.7,14.2c-1.5,2.2-4.2,3.3-6.8,2.5l-20.4-6.3c-3.5-1.1-5.2-5.1-3.5-8.4
	c11-21.3,33.6-34.6,57.4-34.6c36.1,0,65.4,29.6,64.8,65.8c-0.5,35.6-30.2,63.8-65.8,63.8H16.4C7.5,220,0.2,212.8,0,204z
	 M218.5,385.5H88.2c-4.5,0-8.6-1.8-11.8-5c-3.1-3.2-4.7-7.5-4.6-11.9c0.3-8.7,7.8-15.7,16.8-15.7h129.8c9,0,16.3,7.3,16.3,16.3
	C234.8,378.2,227.5,385.5,218.5,385.5z M398.8,479.8c-45.5,0-86.8-27.8-104.3-69c-1.7-3.9,1.2-8.3,5.5-8.3H323
	c2.2,0,4.1,1.2,5.2,3.1c14.1,25.4,41.3,41.6,70.6,41.6c44.7,0,81.1-36.6,80.7-81.4c-0.4-44.4-37.3-79.9-81.7-79.9H48
	c-9.1,0-16.9-7.5-16.8-16.6c0.2-8.9,7.4-16,16.3-16h351.3c62.5,0,113.3,50.8,113.3,113.3S461.3,479.8,398.8,479.8z"/>
</svg>
