<?xml version="1.0" encoding="utf-8"?>
<!-- Generator: Adobe Illustrator 22.0.1, SVG Export Plug-In . SVG Version: 6.00 Build 0)  -->
<svg version="1.1" id="Layer_1" xmlns="http://www.w3.org/2000/svg" xmlns:xlink="http://www.w3.org/1999/xlink" x="0px" y="0px"
	 viewBox="0 0 545.2 512" style="enable-background:new 0 0 545.2 512;" xml:space="preserve">
<style type="text/css">
	.st0{display:none;}
	.st1{display:inline;}
</style>
<path class="st0" d="M364.3,1l-0.6-0.4c-0.8-0.7-1.5-0.5-2.2,0.2c-0.4,0.4-0.8,0.9-1.2,1.6c-11,18.3-25.4,35.7-42.3,52.5
	c-74.8,74.8-196.7,137.7-270.7,211.8C28,285.9,12,305.9,0.9,327.1c54.8,63.6,180,184.7,180.4,184.3c7.5-9.7,15.3-19,23.2-27.9
	c7.9-8.9,16-17.4,24.1-25.6c95.2-95.2,206-142.5,269.8-206.3c21.6-21.6,37.8-45,46.3-72.9C481.9,121.6,427,58,364.3,1z M216.5,348.8
	L204.1,360l-20.5-12.9L171,358.7l11,21.5L169.2,392l-20.3-13l-11.2,10.2l-12.1-13.3l7.7-7l-2.8-1.8l-7.1,6.5l-12.1-13.3l3.5-3.2
	l-20.2-13l14.8-13.5l19.6,13.6l10.4-9.5l-11-21.5l14.2-13l20.1,13.1L173,304L161.4,283l14.6-13.3l11,21.5l3.6-3.3l12.1,13.3
	l-7.3,6.6l1.5,2.9l7.9-7.2l12.1,13.3l-11.5,10.5L216.5,348.8z M296.8,161.4c27.9-20.3,54.9-41.2,78.9-63.4l23.2,23.2
	c-21.5,20.2-49.5,39.6-81.4,60.8L296.8,161.4z M382.2,246.9l-20.7-20.7c27.9-20.2,54.9-41.2,78.9-63.4l23.2,23.2
	C442.1,206.3,414.2,225.6,382.2,246.9z M174.8,321.3l6.2,4l2.5-2.3l-3.5-6.3L174.8,321.3z M159.3,336l3.2,6.2l5.4-4.9l-5.9-3.7
	L159.3,336z M140.9,352.5l5.8,4.1l2.6-2.4l-3.5-6.8L140.9,352.5z"/>
<g id="_x35_2" class="st0">
	<path class="st1" d="M368.8,77c16.1,15.9,32,32.2,48.4,49.1c20.9,21.4,42.2,43.3,64.4,64.7c-5.3,7.9-11.9,15.8-20.1,23.9
		c-25.1,25.1-60.3,48.5-101.1,75.5c-52.8,35.1-112.7,74.8-168.7,130.8c-4.8,4.8-9.5,9.6-14.1,14.5c-31.6-31.1-76.6-76.2-111.1-113.2
		c5.1-6.2,10.9-12.5,17.5-19c33.7-33.7,79.4-65.7,127.7-99.5c50.3-35.2,102.3-71.5,143-112.3C359.7,86.7,364.4,81.9,368.8,77
		 M362.7,0.1c-0.4,0-0.8,0.2-1.2,0.6c-0.4,0.4-0.8,0.9-1.2,1.6c-11,18.3-25.4,35.7-42.2,52.5c-74.8,74.8-196.7,137.7-270.7,211.8
		C28,285.9,12,305.9,0.9,327.1c54.8,63.5,179.6,184.3,180.4,184.3c0,0,0,0,0,0c7.5-9.7,15.3-19,23.2-27.9
		c7.9-8.9,15.9-17.4,24.1-25.6c95.2-95.2,206-142.5,269.8-206.3c21.6-21.6,37.8-45,46.3-72.9C481.9,121.6,427,58,364.3,1l-0.6-0.4
		C363.3,0.3,363,0.1,362.7,0.1L362.7,0.1z"/>
	<path class="st1" d="M348,239.8l20.7,20.7c31.9-21.3,59.9-40.6,81.4-60.9l-23.2-23.2C402.9,198.6,375.8,219.5,348,239.8z"/>
	<path class="st1" d="M362.1,111.7c-24,22.2-51,43.1-78.9,63.4l20.7,20.7c31.9-21.3,59.9-40.6,81.4-60.9L362.1,111.7z"/>
	<path class="st1" d="M230.8,310.2l11.1-10.1l-11.6-12.7l-7.6,7l-1.4-2.8l7-6.4l-11.6-12.7l-3.5,3.2L202.5,255l-14,12.8l11.1,20.1
		l-9.9,9l-19.3-12.6l-13.7,12.5l10.6,20.6l-10,9.1l-18.8-13.1l-14.2,13l19.4,12.5l-3.4,3.1l11.6,12.7l6.8-6.2l2.7,1.7l-7.4,6.7
		l11.6,12.7l10.7-9.8l19.5,12.5l12.3-11.2l-10.6-20.7l12.2-11.1l19.7,12.4l11.9-10.9L230.8,310.2z M201.3,304.5l5-4.4l3.4,6.1
		l-2.4,2.2L201.3,304.5z M194.7,319.9l-5.2,4.7l-3-5.9l2.5-2.4L194.7,319.9z M176.8,336.2l-2.5,2.3l-5.6-3.9l4.7-5L176.8,336.2z"/>
</g>
<g>
	<path d="M367.4,47.8c21.9,21.1,43.3,43,64.1,64.3c24.3,24.9,49.2,50.5,75.3,75.1c-7,14.1-17.2,27.7-31.1,41.6
		c-26.5,26.5-62.5,50.4-104.2,78.1c-52.1,34.5-111.1,73.7-165.6,128.3c-8.8,8.8-17.4,17.9-25.4,27c-0.7,0.7-1.3,1.5-2,2.2
		c-34-33.2-96.9-95.7-138-140.9c7.8-11.1,17.6-22.5,29.4-34.3c35-35,83.5-68.9,130.4-101.7c49.6-34.7,100.8-70.5,140.3-110
		C350.7,67.5,359.6,57.6,367.4,47.8 M362.7,0.1c-0.4,0-0.8,0.2-1.2,0.6c-0.4,0.4-0.8,0.9-1.2,1.6c-11,18.3-25.4,35.7-42.2,52.5
		c-74.8,74.8-196.7,137.7-270.7,211.8C28,285.9,12,305.9,0.9,327.1c54.8,63.5,179.6,184.3,180.4,184.3c0,0,0,0,0,0
		c7.5-9.7,15.3-19,23.2-27.9c7.9-8.9,15.9-17.4,24.1-25.6c95.2-95.2,206-142.5,269.8-206.3c21.6-21.6,37.8-45,46.3-72.9
		C481.9,121.6,427,58,364.3,1l-0.6-0.4C363.3,0.3,363,0.1,362.7,0.1L362.7,0.1z"/>
	<path d="M347.3,239.1l20.7,20.7c31.9-21.3,59.9-40.6,81.4-60.9l-23.2-23.2C402.2,197.9,375.1,218.9,347.3,239.1z"/>
	<path d="M359.4,108.9c-24,22.2-51,43.1-78.9,63.4l20.7,20.7c31.9-21.3,59.9-40.6,81.4-60.9L359.4,108.9z"/>
	<path d="M199.5,250.6l-11.2,11.2l12,19.6l-11.1,11.1l-19.9-11.7l-11.5,11.5l11.5,20.1l-11.2,11.2l-19.4-12.2l-11.4,11.4l20,11.6
		l-3.6,3.6l10.1,10.1l6.3-6.3l5.4,3.2l-7.4,7.4l10.1,10.1l10-10l20,11.6l10.2-10.2L197,333.6l13.3-13.3l20.2,11.5l9.8-9.8
		l-11.5-20.2l10.4-10.4l-10.1-10.1l-7.6,7.6l-3.1-5.5l6.4-6.4l-10.1-10.1l-3.7,3.7L199.5,250.6z M179.8,330.7l-4.1,4.1l-5.2-3.3
		l6.2-6.2L179.8,330.7z M189.7,320.8l-3.1-5.5l5.4-5.4l5.5,3.1L189.7,320.8z M211.2,299.2l-4,4l-5.4-3.2l6.1-6.1L211.2,299.2z"/>
</g>
</svg>
