<?xml version="1.0" encoding="utf-8"?>
<!-- Generator: Adobe Illustrator 21.1.0, SVG Export Plug-In . SVG Version: 6.00 Build 0)  -->
<svg version="1.1" id="smile" xmlns="http://www.w3.org/2000/svg" xmlns:xlink="http://www.w3.org/1999/xlink" x="0px" y="0px"
	 viewBox="0 0 512 512" style="enable-background:new 0 0 512 512;" xml:space="preserve">
<g>
	<path d="M256,0C114.6,0,0,114.6,0,256s114.6,256,256,256s256-114.6,256-256S397.4,0,256,0z M256,480.1c-123.7,0-224-100.3-224-224
		S132.2,32,256,32s224,100.3,224,224S379.7,480.1,256,480.1z"/>
	<path d="M179.2,237.4c16.7,0,30.2-16.7,30.2-37.2s-13.6-37.2-30.2-37.2S149,179.6,149,200.2C148.9,220.8,162.4,237.4,179.2,237.4z"
		/>
	<path d="M332.8,237.4c16.7,0,30.2-16.7,30.2-37.2s-13.6-37.2-30.2-37.2c-16.7,0-30.2,16.7-30.2,37.2
		C302.5,220.8,316,237.4,332.8,237.4z"/>
	<polygon points="353.1,299.4 328,338.8 288.3,286.9 248.2,346.9 202.5,288.5 138.4,370.3 163.7,390 202.5,340.5 250,401.7 290,342 
		330.5,394.6 380.1,316.9 	"/>
</g>
</svg>
