<?xml version="1.0" encoding="utf-8"?>
<!-- Generator: Adobe Illustrator 21.1.0, SVG Export Plug-In . SVG Version: 6.00 Build 0)  -->
<svg version="1.1" id="Layer_1" xmlns="http://www.w3.org/2000/svg" xmlns:xlink="http://www.w3.org/1999/xlink" x="0px" y="0px"
	 viewBox="0 0 512 512" style="enable-background:new 0 0 512 512;" xml:space="preserve">
<path id="_x33_2" d="M363.3,32.3c3.1,0,6.2,0.1,9.3,0.4l-71.4,71.4c-6.8,6.8-9,16.8-5.6,25.8l20.8,56.2c1.7,4.6,5.3,8.2,9.9,9.9
	l55.6,20.2c8.9,3.2,18.9,1,25.6-5.7l72.1-72.1c1.1,11.7,0.4,23.5-2.1,35.1c-4.7,22-15.6,42.2-31.6,58.2c-22,22-51.4,34.2-82.5,34.2
	c-11.5,0-22.8-1.7-33.8-5l-11.2-3.4c-4.5-1.3-9.3-0.1-12.6,3.2c-28,28.5-154.8,161.8-199.1,206.6c-8.3,8.4-19.3,12.9-31,12.9
	c-11.5,0-22.4-4.5-30.6-12.6c-17.1-16.9-17.3-44.5-0.4-61.6c48.1-48.7,177-183.6,203.8-210.7c3-3,4.2-7.3,3.3-11.4l-2.2-10.2
	c-4-18.8-3.3-38.6,1.9-57c5.4-19,15.5-36.3,29.4-50.2C302.8,44.5,332.1,32.3,363.3,32.3 M363.3,0.3c-38.1,0-76.1,14.5-105.2,43.6
	c-36.7,36.7-50,88.7-39.9,136.4C194,204.9,76.5,328.2,21.8,383.6c-29.3,29.7-29,77.5,0.7,106.8c14.7,14.5,33.9,21.8,53.1,21.8
	c19.5,0,39-7.5,53.8-22.5c52.4-53.1,160.8-167.6,191-198.3c14,4.2,28.5,6.3,43,6.3c38.1,0,76.1-14.5,105.2-43.6
	C510.7,212,522.2,150.7,503,98.1c-2.2-6-7.7-9.4-13.3-9.4c-3.5,0-7.1,1.3-9.9,4.1l-86.9,86.9c-2.9,2.9-7.1,3.8-10.9,2.4l-33.6-12.2
	c-2.9-1-5.1-3.3-6.2-6.2l-12.7-34.2c-1.4-3.8-0.5-8.1,2.4-11l86.5-86.5c7.4-7.4,4.5-19.8-5.3-23.3C396.9,3.2,380.1,0.3,363.3,0.3
	L363.3,0.3z"/>
</svg>
