<?xml version="1.0" encoding="utf-8"?>
<!-- Generator: Adobe Illustrator 22.0.1, SVG Export Plug-In . SVG Version: 6.00 Build 0)  -->
<svg version="1.1" id="Layer_1" xmlns="http://www.w3.org/2000/svg" xmlns:xlink="http://www.w3.org/1999/xlink" x="0px" y="0px"
	 viewBox="0 0 545.2 512" style="enable-background:new 0 0 545.2 512;" xml:space="preserve">
<g>
	<path d="M367.4,47.8c21.9,21.1,43.3,43,64.1,64.3c24.3,24.9,49.2,50.5,75.3,75.1c-7,14.1-17.2,27.7-31.1,41.6
		c-26.5,26.5-62.5,50.4-104.2,78.1c-52.1,34.5-111.1,73.7-165.6,128.3c-8.8,8.8-17.4,17.9-25.4,27c-0.7,0.7-1.3,1.5-2,2.2
		c-34-33.2-96.9-95.7-138-140.9c7.8-11.1,17.6-22.5,29.4-34.3c35-35,83.5-68.9,130.4-101.7c49.6-34.7,100.8-70.5,140.3-110
		C350.7,67.5,359.6,57.6,367.4,47.8 M362.7,0.1c-0.4,0-0.8,0.2-1.2,0.6c-0.4,0.4-0.8,0.9-1.2,1.6c-11,18.3-25.4,35.7-42.2,52.5
		c-74.8,74.8-196.7,137.7-270.7,211.8C28,285.9,12,305.9,0.9,327.1c54.8,63.5,179.6,184.3,180.4,184.3c0,0,0,0,0,0
		c7.5-9.7,15.3-19,23.2-27.9c7.9-8.9,15.9-17.4,24.1-25.6c95.2-95.2,206-142.5,269.8-206.3c21.6-21.6,37.8-45,46.3-72.9
		C481.9,121.6,427,58,364.3,1l-0.6-0.4C363.3,0.3,363,0.1,362.7,0.1L362.7,0.1z"/>
	<path d="M347.3,239.1l20.7,20.7c31.9-21.3,59.9-40.6,81.4-60.9l-23.2-23.2C402.2,197.9,375.1,218.9,347.3,239.1z"/>
	<path d="M359.4,108.9c-24,22.2-51,43.1-78.9,63.4l20.7,20.7c31.9-21.3,59.9-40.6,81.4-60.9L359.4,108.9z"/>
	<path d="M213.5,349.9l-10.3,10.3l-7.8-7.8L179.7,368l-9.9-9.9l15.7-15.7l-3-3l-15.7,15.7l-10.3-10.3l11.8-11.8l-40.8-10.3
		l11.4-11.4c0,0,31.9,7.3,33.2,7.8c-0.6-1.4-8.4-32.7-8.4-32.7l12-12l10.3,40.7l11.8-11.8l10.3,10.3l-15.5,15.5l3,3l15.5-15.5
		l9.9,9.9l-15.5,15.5L213.5,349.9z"/>
</g>
</svg>
